<svg fill="none" height="48" viewBox="0 0 48 48" width="48" xmlns="http://www.w3.org/2000/svg"><path d="m9.70925 20.7096c.53855 1.6456 1.46905 2.2868 2.64475 3.7747.6127.7169.7514 1.7318.3531 2.5864-.8606 1.8502-.7195 4.4584-.9346 6.2947-.1705 1.4536-.6437 2.9408-1.4467 4.5466-.98559 1.9728-.2383 4.3862 2.0342 5.5082 4.2829 2.0529 4.3568 2.3006 5.0668 2.3004.6604 0 1.3085-.3741 1.6087-1.0358.0856-.1881.3302-.2476.4955-.0982.2054.1846 2.7363 2.4716 2.8638 2.5857 1.0642.962 3.2554.7189 4.3459.8181 1.3383.1217 2.4456-1.0285 2.2703-2.3624-.1222-.9314.3233-1.8394 1.1351-2.3135 1.1828-.691 2.184-1.5046 3.3085-1.0804l1.1607.4353c.0806.0303 2.7026 1.0129 2.7761 1.0401 1.4424.5411 2.907.0159 4.2576-.2818 1.6582-.3662 2.5709-1.7977 3.4827-2.9234.9512-1.1726.7248-2.8983-.496-3.7865l-.9764-.7097c-.1287-.0936-.2182-.2312-.2519-.3863l-.4287-1.9884c-.0602-.2778.0727-.5673.323-.7038 1.0935-.5965 1.4329-2.0127.7211-3.0409-.2127-.3521-.5415-.5892-.482-.9863l.1279-.8539c.1729-1.1505-.7613-2.163-1.9201-2.0875-.2766.0181-.4713-.2643-.3598-.5157l1.8163-4.0856c.1672-.3767.541-.6137.9545-.6034 1.2977.0334 2.422-.956 2.5247-2.279.2873-3.1485.1511-3.2782.4266-3.6367 1.0247-1.3395.3386-3.291-1.2982-3.696l-2.6939-.665c-.4445-.11-.4864-.3732-1.6728-1.62421-.6083-.67263-1.2506-.72344-2.0546-.86491-2.008-.35323-2.0383-.38096-4.1386-1.67755l-.0009-.00048c-1.2394-.70822-1.4224-1.19691-3.1646-3.09768-1.2899-1.45453-3.3061-2.358325-5.2617-2.358325h-1.0385c-.8899 0-1.6428.665455-1.7512 1.546465l-.3046 2.43308c-.0758.60835-.5553 1.0793-1.1651 1.14513-1.2832.13662-2.0892.21962-3.0258 1.18557-.0095.00979-.0407.04266-.0312.03287-.0822.08629-.139.14311-.191.24134-.2636.49732-.87.69997-1.3799.46164 0 0-3.0644-1.43583-3.1019-1.45347-1.7408-.81536-3.8063 1.00763-3.1333 2.84391l.7059 1.92852c.0889.243-.1376.4783-.3818.4046-4.80378-1.4519-4.6533-1.469-5.18698-1.3664l-2.88251.5492c-1.80554.3439-2.77575 2.3229-1.93993 3.9614.37747.7411.69377 1.3366 1.5994 1.7224l3.65142 1.5533c1.1429.4864 2.03612 1.4431 2.44065 2.6636zm37.37675-5.8381c-.038.0472-.0925.0966-.1599.1394.0592-.038.1132-.0849.1599-.1394zm-37.40419 5.7238c.00281.0183.0064.0365.01067.0545-.00311-.0127-.00708-.0314-.01067-.0545z" fill="#212121"/><g clip-rule="evenodd" fill-rule="evenodd"><path d="m34.2151 26.4739v-1.2911c-.2284-1.5723-.6547-4.0515-1.2819-5.8847-.7967-2.3286-3.2343-6.3241-4.1582-7.7992-.8477-1.1902-1.3463-2.64636-1.3463-4.21892 0-4.02089 3.2596-7.28046828 7.2805-7.28046828s7.2804 3.25957828 7.2804 7.28046828c0 1.57413-.4995 3.03162-1.3488 4.22242-.9534 1.5089-3.3975 5.484-4.1885 7.7957-.6272 1.8332-1.0535 4.3124-1.2818 5.8847v1.2911z" fill="#c1c1fb"/><path d="m34.7095 10.5888c1.4621 0 2.6474-1.18527 2.6474-2.64741s-1.1853-2.64744-2.6474-2.64744c-1.4622 0-2.6475 1.1853-2.6475 2.64744s1.1853 2.64741 2.6475 2.64741z" fill="#fff"/><path d="m16.2151 37.617v-1.2912c-.2284-1.5722-.6547-4.0514-1.2819-5.8846-.7967-2.3286-3.2343-6.3241-4.1582-7.7993-.84771-1.1902-1.34629-2.6463-1.34629-4.2189 0-4.0208 3.25959-7.2804 7.28049-7.2804s7.2804 3.2596 7.2804 7.2804c0 1.5742-.4995 3.0316-1.3488 4.2225-.9534 1.5089-3.3975 5.484-4.1885 7.7957-.6272 1.8332-1.0535 4.3124-1.2818 5.8846v1.2912z" fill="#c1c1fb"/><path d="m16.7095 21.7319c1.4621 0 2.6474-1.1853 2.6474-2.6474 0-1.4622-1.1853-2.6475-2.6474-2.6475-1.4622 0-2.6475 1.1853-2.6475 2.6475 0 1.4621 1.1853 2.6474 2.6475 2.6474z" fill="#fff"/></g></svg>