<svg fill="none" height="48" viewBox="0 0 48 48" width="48" xmlns="http://www.w3.org/2000/svg" xmlns:xlink="http://www.w3.org/1999/xlink"><clipPath id="a"><path d="m29.3677 7.43262h13.4194v13.4194h-13.4194z"/></clipPath><clipPath id="b"><path d="m6.13477 24.4741h15.3364v15.3364h-15.3364z"/></clipPath><mask id="c" height="10" maskUnits="userSpaceOnUse" width="14" x="29" y="9"><path d="m29.9775 10.7873c0-.6737.5462-1.21992 1.22-1.21992h9.7595c.6738 0 1.22.54622 1.22 1.21992v6.7097c0 .6738-.5462 1.2199-1.22 1.2199h-9.7595c-.6738 0-1.22-.5461-1.22-1.2199z" fill="#fff"/></mask><mask id="d" height="12" maskUnits="userSpaceOnUse" width="15" x="6" y="26"><rect fill="#fff" height="10.4566" rx="1.62659" width="13.9422" x="6.83203" y="26.9141"/></mask><path d="m24 13.3876c0 3.1034 1.929 5.8416 4.8897 7.5758.6729.4107.2243 2.7839.3589 3.1946s2.6467-1.9168 3.0505-1.8255c1.1663.2738 2.3775.4564 3.6785.4564 6.6392 0 12.0224-4.1986 12.0224-9.3556 0-5.15704-5.3832-9.35566-12.0224-9.35566-6.6393 0-11.9776 4.15298-11.9776 9.30996z" fill="#c1c1fb"/><g clip-path="url(#a)"><path d="m0 0h13.4194v13.4194h-13.4194z" fill="#c1c1fb" transform="translate(29.3677 7.43262)"/><path d="m29.9775 10.7873c0-.6737.5462-1.21992 1.22-1.21992h9.7595c.6738 0 1.22.54622 1.22 1.21992v6.7097c0 .6738-.5462 1.2199-1.22 1.2199h-9.7595c-.6738 0-1.22-.5461-1.22-1.2199z" fill="#fff"/><path clip-rule="evenodd" d="m31.2429 8.89551h9.6689c1.0357 0 1.8752.83958 1.8752 1.87529v6.6498c0 1.0357-.8395 1.8752-1.8752 1.8752h-9.6689c-1.0356 0-1.8752-.8395-1.8752-1.8752v-6.6498c0-1.03572.8396-1.87529 1.8752-1.87529zm0 .66498c-.6684 0-1.2102.54181-1.2102 1.21031v6.6498c0 .6684.5418 1.2103 1.2102 1.2103h9.6689c.6684 0 1.2103-.5419 1.2103-1.2103v-6.6498c0-.6685-.5419-1.21031-1.2103-1.21031z" fill="#ddd" fill-rule="evenodd"/><g mask="url(#c)"><path d="m35.7871 9.56738h6.3902v9.14952h-6.3902z" fill="#1ab11f"/><g clip-rule="evenodd" fill-rule="evenodd"><path d="m29.9775 18.7169h4.0665v-9.14952h-4.0665z" fill="#262626"/><path d="m34.0439 18.7169h4.0665v-9.14952h-4.0665z" fill="#dc0d18"/><path d="m34.9154 13.4307c.2246 0 .4067.182.4067.4066 0 .3097.1596.5716.3845.7087.1918.1168.2526.367.1357.5588-.1168.1918-.3671.2526-.5588.1357-.4682-.2852-.7747-.8109-.7747-1.4032 0-.2246.1821-.4066.4066-.4066zm2.3238 0c.2246 0 .4067.1821.4067.4067 0 .5676-.2815 1.0738-.7167 1.366-.1864.1253-.439.0756-.5643-.1108-.1252-.1865-.0755-.4391.1109-.5643.2103-.1413.3568-.3943.3568-.6909 0-.2246.182-.4067.4066-.4067z" fill="#fff" opacity=".75"/><path d="m36.0775 14.4471c.3208 0 .5809-.4096.5809-.915 0-.5053-.2601-.9149-.5809-.9149s-.5809.4096-.5809.9149c0 .5054.2601.915.5809.915z" fill="#fff" fill-opacity=".5"/></g></g></g><path d="m27.4286 31.2801c0 3.5467-2.2046 6.6761-5.5883 8.6581-.769.4694-.2563 3.1815-.4101 3.6509s-3.0249-2.1905-3.4863-2.0862c-1.333.3129-2.7172.5215-4.204.5215-7.5877 0-13.7399-4.7984-13.7399-10.6921s6.1522-10.6922 13.7399-10.6922 13.6887 4.7463 13.6887 10.64z" fill="#adadf9"/><g clip-path="url(#b)"><path d="m0 0h15.3364v15.3364h-15.3364z" fill="#adadf9" transform="translate(6.13477 24.4741)"/><path clip-rule="evenodd" d="m8.27791 26.146h11.05009c1.1837 0 2.1432.9595 2.1432 2.1431v7.5998c0 1.1837-.9595 2.1432-2.1432 2.1432h-11.05009c-1.18362 0-2.14314-.9595-2.14314-2.1432v-7.5998c0-1.1836.95952-2.1431 2.14314-2.1431zm0 .76c-.7639 0-1.38316.6192-1.38316 1.3831v7.5998c0 .7639.61926 1.3832 1.38316 1.3832h11.05009c.7639 0 1.3832-.6192 1.3832-1.3832v-7.5998c0-.7639-.6193-1.3831-1.3832-1.3831z" fill="#ddd" fill-rule="evenodd"/><rect fill="#fff" height="10.4566" rx="1.62659" width="13.9422" x="6.83203" y="26.9141"/><g clip-rule="evenodd" fill-rule="evenodd" mask="url(#d)"><path d="m6.83203 32.4909h13.94217v-5.5768h-13.94217z" fill="#156dd1"/><path d="m6.83203 37.3705h13.94217v-4.8798h-13.94217z" fill="#ffd948"/></g></g></svg>