<svg fill="none" height="48" viewBox="0 0 48 48" width="48" xmlns="http://www.w3.org/2000/svg"><path d="m16.5464 24.3228 6.3602-8.4224h20.497l4.5714 8.4224z" fill="#212121"/><path d="m19.9507 17.1425 5.4907 3.5031 3.7764-.9689-5.8634-3.205z" fill="#fff"/><g fill="#5e5e5e"><path d="m22.8076 16.8445.3975-.0994.5218.2982-.3727.0993z"/><path d="m22.0869 16.9685.4224-.0994.5217.323-.4224.0746z"/><path d="m21.3418 17.093.4721-.0993.5217.3229-.4721.0994z"/><path d="m20.6211 17.2419.4969-.1242.5218.3478-.5218.0994z"/><path d="m23.478 17.1922.3976-.0745.5217.2733-.3975.1242z"/><path d="m22.7329 17.3411.4472-.0994.5218.2981-.4224.0994z"/><path d="m22.0122 17.4905.472-.0994.4969.2981-.4472.0994z"/><path d="m21.2915 17.6145.4969-.0994.4969.323-.4969.0994z"/><path d="m24.124 17.5647.3975-.0994.5466.2982-.3975.0994z"/><path d="m23.4043 17.7136.4223-.0993.5218.2981-.4224.1242z"/><path d="m22.6836 17.8631.4472-.0994.5217.323-.4472.0993z"/><path d="m21.9629 18.012.472-.0994.5218.323-.4969.0994z"/><path d="m24.7949 17.9373.3975-.0994.5218.2981-.3975.0994z"/><path d="m24.0742 18.0862.4224-.0994.5217.2982-.4223.1242z"/><path d="m23.3535 18.2605.4472-.1243.4969.323-.4472.0994z"/><path d="m22.6084 18.4094.4969-.0993.4969.2981-.472.0994z"/><path d="m25.4658 18.3103.3976-.0994.5217.2982-.3975.0994z"/><path d="m24.7207 18.4592.4472-.0993.5218.2981-.4472.1242z"/><path d="m24 18.6331.4472-.0994.5217.2981-.4472.0994z"/><path d="m23.2793 18.7825.4721-.0994.4968.323-.4472.0994z"/><path d="m26.1118 18.6828.4224-.1242.5217.2981-.4223.1243z"/><path d="m25.3921 18.8318.4223-.0994.5218.2982-.4224.1242z"/><path d="m24.6714 19.0056.4472-.0994.5217.2982-.4472.1242z"/><path d="m23.9507 19.1799.472-.0993.4969.2981-.472.1242z"/><path d="m26.7822 19.0305.3975-.0993.5466.2981-.4223.1242z"/><path d="m26.0625 19.2292.4224-.1242.5217.2981-.4224.1242z"/><path d="m25.3418 19.4031.4224-.0994.5217.2733-.4472.1242z"/><path d="m24.6211 19.5769.4472-.0994.4969.2982-.4472.0994z"/><path d="m27.4292 19.4036.4224-.0994.5466.2981-.4473.0994z"/><path d="m26.7085 19.6023.4472-.1243.5217.2982-.4471.1242z"/><path d="m26.0132 19.7761.4223-.0993.5218.2981-.4472.0994z"/><path d="m25.2925 19.9748.4472-.1242.4969.2981-.4472.1242z"/><path d="m29.2178 19.6767v.2733l-3.7516 1.0187-5.5155-3.5031v-.323l5.4907 3.5031z"/><path d="m30.4846 15.7262.2485 2.1615s-2.0373.3976-3.5031-.7701l.8944-1.7392z"/></g><path d="m30.7328 17.888s.149-.3478.0993-.6708c-.0248-.323-.1739-1.4658-.1739-1.4658l-.1987-.0497z" fill="#212121"/><path d="m24.0004 15.5522-.0497-7.40376 11.5776.42236-.472 8.8944z" fill="#5e5e5e"/><path d="m24.4471 15.2294-.0496-6.55899 10.3602.32298-.3975 7.77641z" fill="#fff"/><path d="m23.9507 8.14881.4224-.04969 11.1552.34783.2734.02484-.4224 8.86961-.323.1242.472-8.89443z" fill="#212121"/><path d="m3.0559 29.0928h8.5466l1.118 13.7143h-12.7205z" fill="#c1c1fb"/><path d="m3.0559 29.0928h2.63354l1.56524 13.7143h-7.25468z" fill="#adadf9"/><path d="m21.342 26.7324c.9193-.5466 2.4348.149 2.4348.9441 0 2.3354-2.1366 13.3664-2.2608 14.0621-.1243.6957-1.3168.8696-1.3665 0-.0994-1.3913-.323-6.236-.0994-8.4721.0746-.9192.1739-1.8136.2733-2.5838-1.118 2.0124-2.8571 4.9192-5.1926 8.6956l-1.267-.5714c.9938-3.3043 1.8136-5.6149 2.4596-6.9814 1.0932-2.3354 2.1118-4.323 2.559-5.0186.646-1.118 1.8385-.7454 2.4596-.0745z" fill="#e8a16d"/><path d="m13.9131 36.9438 4.3727-10.3602c1.0435-1.6895 3.9751.3478 3.6273 1.3167-.8199 2.2112-4.9441 9.3914-5.1677 10.0622z" fill="#212121"/><path d="m13.6712 38.1309c-.2691.2176-.4364.4079-.5233.5586-.0994.1721-.227.4427-.3487.8027.1936.1118 2.001 1.1553 5.4005 3.118.4239-.3864.4745-.6727.1981-.8897-.2763-.2169-.5221-.3875-.6909-.5424l-1.8714-2.5722c-.0306-.0464-.1076-.0621-.154-.0315l-.3742.3003c-.3543-.0324-.6282-.1045-.8003-.2038-.1506-.087-.307-.2634-.4816-.5076-.0951-.0836-.2276-.1027-.3542-.0324 0 0 .0124-.0215 0 0z" fill="#212121"/><path d="m24.0749 28.4716c0 2.9317-1.3913 9.7889-1.3913 10.4348h-3.0062c.4472-6.1118.5963-9.1925.472-9.2671-.1987-.0993-7.8509.7702-10.16148.7702-3.30435 0-4.69567-2.0869-4.79505-5.9627h6.55903c1.3416.149 8.2982 1.5404 10.9069 2.0372 1.118.1988 1.4161 1.1926 1.4161 1.9876z" fill="#212121"/><path d="m13.4909 8.52135c-.2981-.7205-.3727-1.54038-.0745-2.28572.9192-2.18634 3.8758-.64597 4.0994.69565s-.8199 4.17392-1.6646 4.12422c-.3479-.0248-.9441-.4472-1.4907-1.09315l-.5963 3.15525-2.5093-.8695z" fill="#e8a16d"/><path d="m16.9437 5.3412c-.2981-.2236-.795-.42236-1.0186-.47205.2236-.24844.3726-.54658.4472-.86956.0745-.32298.0248-.62112-.0249-.91926-.0248-.14907-.0497-.29814-.0993-.42236-.0746-.12422-.174-.24845-.2982-.32298-.1242-.07454-.2733-.12423-.3975-.14907-.0745 0-.1242 0-.1988 0-.0745 0-.0745-.04969-.1242-.09938-.0745-.12423-.2236-.2236-.3478-.27329-.1491-.07454-.2982-.09938-.4721-.09938-.149 0-.3229.02484-.4472.09938-.0496.02484-.1242.07453-.1739.12422-.0248.02485-.0248.02484-.0497.04969-.0248 0-.0497 0-.0745 0-.2733 0-.5217.12422-.7205.32298-.0994.12423-.2236.34783-.2981.62112-.0746.27329-.0746 1.06833.0745 1.39131.1242.29814.3727.54658.646.7205-.2733.14907-.4969.39751-.6708.62112-.1988.27329-.3727.57143-.4969.86956-.1243.29814-.2485.62112-.2733.94411-.0249.29813.0496.57142.2236.79503.0745.09938.1987.19876.2981.27329.0994.07454.1988.17391.323.2236.2236.12423.4969.19876.7205.07454.0745-.04969.1739-.09938.2484-.17391.0249-.02485.0497-.04969.0249-.07454-.0249-.04969-.0497-.07453-.0745-.12422-.1243-.22361-.174-.44721-.1243-.69566s.2236-.54658.4969-.57143c.3479-.02484.6211.22361.8199.44721.2484-.34783.5963-.62112 1.0186-.69566.4721-.07453.9193.07454 1.3913.02485.1243 0 .2485-.02484.3479-.07453.0496-.02485.0993-.07454.1242-.09938.0497-.04969.0248-.12423 0-.19876-.0497-.27329-.5217-1.04348-.8199-1.26709z" fill="#ac5419"/><path d="m17.2919 8.86914c-.1987.37267.0248.86957-.1739 1.24226-.1739-.0497-.323-.0994-.4969-.14909" fill="#e8a16d"/><path d="m16.3476 10.4594c-.149-.0248-.2733-.1242-.3478-.2236-.0745-.1242-.1242-.27325-.0745-.42232.0994.12422.149.22362.2236.32302.0496.0993.1242.1987.1987.3229z" fill="#212121"/><path d="m16.7456 8.37231c.0249-.07454.0994-.12423.1739-.12423.0746-.02484.1491.00001.2236.02485.0746.02484.1243.07453.1739.12422.0497.04969.0746.14907.0497.19876-.0497-.04969-.0994-.07453-.1242-.12422-.0497-.02485-.0994-.04969-.1491-.07454-.0497-.02484-.0993-.02484-.149-.04968-.0746.02484-.1491-.00001-.1988.02484z" fill="#212121"/><path d="m17.1405 8.88367c.032-.06072.0086-.13583-.0521-.16778-.0607-.03194-.1358-.00862-.1678.0521-.0319.06072-.0086.13583.0521.16778.0607.03194.1359.00862.1678-.0521z" fill="#212121"/><path d="m15.7517 20.8193 3.5528-1.7392c1.59.0249 2.3602-.0745 2.2857-.2981-.0994-.3478-.5714-.2236-.6708-.4224-.0994-.2236.3727-.7205.8447-1.1925.4721-.4721.1242-.5218-.0994-.4969-.7453.2484-1.5404.6459-2.4099 1.2174l-4.4721.9689z" fill="#e8a16d"/><path d="m14.0127 20.5212c1.6149.5218 3.8013 0 5.5155-.9441l-.2733-1.913c-2.2857.6459-4.1739.4223-5.5155.0248-1.2174.6708-1.0186 2.41.2733 2.8323z" fill="#adadf9"/><path d="m21.8886 19.7514 1.9627-.4224c.4969-.8447.9193-1.2174 1.2423-1.118.2981-.0497-.4969.969.0248 1.0186.5218.0497 1.9379-.4969 2.087-.2484.2236.3478-.2733 1.0683-.7205 1.3913-.8199.5714-1.3665.6957-2.6832.6708-.6708 0-1.4659.1491-2.3603.4472z" fill="#e8a16d"/><path d="m15.0556 11.1796-3.0808-.8945c-.3478-.0993-3.92544 3.6274-4.77016 6.4845-.77019 2.6087-3.67704 3.5528-3.62735 8.0249 2.13665.1988 7.50311 3.9503 9.16771 2.087.7951-.9193 1.292-2.0125 1.5901-3.2547 2.0621.5466 4.7453.6211 8.0745-.0497.2733-.7205.2485-2.0621-.0745-4.0497-3.7267.1988-6.2609-.0745-7.5777-.8447-.0248-2.6087-.1739-5.2671.2982-7.5031z" fill="#c1c1fb"/><path d="m47.9999 24.3228h-31.4535v19.5776h31.4535z" fill="#5e5e5e"/></svg>