<svg fill="none" height="24" viewBox="0 0 137 24" width="137" xmlns="http://www.w3.org/2000/svg" xmlns:xlink="http://www.w3.org/1999/xlink"><linearGradient id="a" gradientUnits="userSpaceOnUse" x1="130.206" x2="130.777" y1="11.9001" y2="11.9001"><stop offset="0" stop-color="#6a6af4"/><stop offset="1" stop-color="#6a6af4" stop-opacity=".4"/></linearGradient><g clip-rule="evenodd" fill-rule="evenodd"><g fill="#6a6af4"><path d="m12.4999 18.26-7.05299 3.948 1.575-7.928-5.935-5.488 8.02701-.952 3.38598-7.34 3.386 7.34 8.027.952-5.935 5.488 1.575 7.928z"/><path d="m40.4999 18.26-7.053 3.948 1.575-7.928-5.935-5.488 8.027-.952 3.386-7.34 3.386 7.34 8.027.952-5.935 5.488 1.575 7.928z"/><path d="m68.4999 18.26-7.053 3.948 1.575-7.928-5.935-5.488 8.027-.952 3.386-7.34 3.386 7.34 8.027.952-5.935 5.488 1.575 7.928z"/><path d="m96.4999 18.26-7.053 3.948 1.575-7.928-5.935-5.488 8.027-.952 3.386-7.34 3.386 7.34 8.0271.952-5.935 5.488 1.575 7.928z"/></g><path d="m124.5 18.26-7.053 3.948 1.575-7.928-5.935-5.488 8.027-.952 3.386-7.34 3.386 7.34 8.027.952-5.935 5.488 1.575 7.928z" fill="url(#a)"/></g></svg>