<svg width="536" height="176" viewBox="0 0 536 176" fill="none" xmlns="http://www.w3.org/2000/svg">
<path d="M97.7999 109.1C101 104.8 109 107.6 109 111.2C109 120.6 100.4 165.2 99.9999 168C99.5999 170.8 94.7999 171.7 94.4999 168.2C94.0999 162.6 93.1999 143.2 94.0999 134.1C94.2999 131.5 94.6 128.9 94.9 126.5C90.4 134.6 83.4999 146 74.2999 160.8L69.2 158.5C73.2 145.3 76.4999 135.9 79.0999 130.5C83.4999 121.2 87.6 113.2 89.4 110.4C91.5 106.8 95.1999 107.3 97.7999 109.1Z" fill="#51052F"/>
<path d="M69.4 151.3L87 109.7C91.2 102.9 103 111.1 101.6 115C98.3 123.9 81.8 152.7 80.8 155.4L69.4 151.3Z" fill="#FC0E3B"/>
<path d="M109.4 114.5C109.4 126.3 104.2 154 104.2 156.6L91.7 156.2C93.9 132.1 94.8 120 94.5 119.8C93.7 119.4 62.9 124.1 53.7 124.4C40.4 124.9 34.9 116.7 34.4 101.2H60.2C82.3 103.8 96.8 105.7 103.7 106.7C108.2 107.4 109.4 111.2 109.4 114.5Z" fill="#F93A70"/>
<path d="M68.3719 157.382C67.5722 158.522 67.1362 159.444 66.9669 160.123C66.7734 160.9 66.5801 162.088 66.5083 163.616C67.3815 163.834 75.532 165.866 90.7656 169.664C91.9771 167.699 91.8551 166.535 90.5451 166.002C89.235 165.469 88.0949 165.082 87.27 164.67L77.2726 156.818C77.1027 156.673 76.7874 156.697 76.642 156.867L75.5273 158.445C74.1208 158.712 72.9809 158.737 72.2047 158.544C71.5255 158.374 70.7248 157.865 69.7784 157.114C69.2204 156.872 68.6869 156.945 68.3719 157.382C68.3961 157.285 68.3719 157.382 68.3719 157.382Z" fill="#E4E4E4"/>
<path d="M93.7 161.7C93.2 163 93 164 93 164.7C93 165.5 93.1 166.7 93.4 168.2C94.3 168.2 102.7 168.2 118.4 168.2C119.1 166 118.7 164.9 117.3 164.7C115.9 164.5 114.7 164.4 113.8 164.2L102.2 159C102 158.9 101.7 159 101.6 159.2L100.9 161C99.6 161.6 98.5 161.9 97.7 161.9C97 161.9 96.1 161.6 95 161.1C94.5 161 94 161.2 93.7 161.7C93.8 161.6 93.7 161.6 93.7 161.7Z" fill="#E4E4E4"/>
<path d="M95 168.1H115.4C116.3 168.1 117 168.8 117 169.7C117 170.6 116.3 171.3 115.4 171.3H95C94.1 171.3 93.4 170.6 93.4 169.7C93.4 168.8 94.1 168.1 95 168.1Z" fill="#51052F"/>
<path d="M33 103.7H80.5C83 103.7 84.9 105.7 84.9 108.1V129.9H30.3C29.3 129.9 28.5 129.1 28.5 128.1V108.1C28.6 105.7 30.6 103.7 33 103.7Z" fill="#51052F"/>
<path d="M80.6 103.7H81.6C83.8 103.7 85.6 105.3 86 107.4L95.7 166.7H91" fill="#51052F"/>
<path d="M93.4 175.7C97.8183 175.7 101.4 172.118 101.4 167.7C101.4 163.282 97.8183 159.7 93.4 159.7C88.9817 159.7 85.4 163.282 85.4 167.7C85.4 172.118 88.9817 175.7 93.4 175.7Z" fill="#6B0533"/>
<path d="M34.4 174.8C15.8 174.8 0.599976 159.7 0.599976 141C0.599976 122.3 15.7 107.2 34.4 107.2C53 107.2 68.2 122.3 68.2 141C68.2 159.7 53 174.8 34.4 174.8ZM34.4 168.6C49.6 168.6 61.9 156.3 61.9 141.1C61.9 125.9 49.6 113.6 34.4 113.6C19.2 113.6 6.90002 125.9 6.90002 141.1C6.90002 156.3 19.2 168.6 34.4 168.6Z" fill="#6B0533"/>
<path d="M36.2 111.7H32.6V170.3H36.2V111.7Z" fill="#6B0533"/>
<path d="M54.5 119.7L55.8 121C56.1 121.3 56.1 121.9 55.8 122.3L15.6 162.5C15.3 162.8 14.7 162.8 14.3 162.5L13 161.2C12.7 160.9 12.7 160.3 13 159.9L53.2 119.7C53.6 119.3 54.1 119.3 54.5 119.7Z" fill="#6B0533"/>
<path d="M63.7 140.2V142C63.7 142.5 63.3 142.9 62.8 142.9H6C5.5 142.9 5.09998 142.5 5.09998 142V140.2C5.09998 139.7 5.5 139.3 6 139.3H62.8C63.3 139.3 63.7 139.7 63.7 140.2Z" fill="#6B0533"/>
<path d="M55.7 161.1L54.4 162.4C54.1 162.7 53.5 162.7 53.1 162.4L13 122.2C12.7 121.9 12.7 121.3 13 120.9L14.3 119.6C14.6 119.3 15.2 119.3 15.6 119.6L55.8 159.8C56.1 160.2 56.1 160.8 55.7 161.1Z" fill="#6B0533"/>
<path d="M48.5001 46.1C46.5001 43.7 45.1 40.8 45.3 37.5C46 28 59.2 30.1 61.8 34.9C64.4 39.7 64.1001 51.9 60.7001 52.7C59.4001 53 56.5001 52.2 53.7001 50.5L55.5001 63.3H44.8L48.5001 46.1Z" fill="#51052F"/>
<path d="M57.6 29.6C56.1 29.2 54 29 53.1 29.1C53.6 27.9 53.8 26.5 53.6 25.2C53.4 23.9 52.9 22.8 52.3 21.7C52.1 21.2 51.8 20.7 51.4 20.3C51 19.9 50.5 19.6 49.9 19.5C49.3 19.4 48.7 19.4 48.2 19.5C47.9 19.6 47.7 19.7 47.5 19.7C47.2 19.8 47.1 19.6 46.9 19.4C46.5 19 45.8 18.8 45.2 18.8C44.6 18.7 43.9 18.8 43.3 19C42.7 19.2 42.2 19.5 41.7 20C41.5 20.2 41.3 20.5 41.2 20.7C41.2 20.8 41.1 20.9 41 20.9C40.9 20.9 40.8 20.9 40.7 21C39.7 21.3 38.8 22.1 38.4 23.1C38.1 23.7 38 24.7 38 25.9C38 27 39.1 30 40 31.1C40.9 32.1 42.1 32.7 43.4 33C42.6 33.9 42 35.1 41.6 36.3C41.2 37.6 40.9 38.9 40.8 40.3C40.7 41.6 40.7 43 41 44.2C41.3 45.4 41.9 46.4 42.9 47C43.4 47.3 43.9 47.5 44.4 47.7C44.9 47.9 45.4 48.1 45.9 48.2C46.9 48.4 48 48.4 48.8 47.6C49.1 47.3 49.4 47 49.6 46.6C49.7 46.5 49.7 46.4 49.6 46.3C49.5 46.2 49.3 46 49.2 45.9C48.4 45.3 48 44.4 47.8 43.4C47.7 42.4 48 41 49 40.6C50.2 40 51.6 40.7 52.7 41.3C53.2 39.6 54.1 38.1 55.7 37.4C57.4 36.6 59.3 36.5 61 35.7C61.4 35.5 61.9 35.3 62.2 34.9C62.3 34.7 62.5 34.5 62.6 34.3C62.7 34 62.5 33.8 62.4 33.6C61.8 32.4 59 30.1 57.6 29.6Z" fill="#6B0533"/>
<path d="M63.2 41.8C63.7 43.2 64.6 44.4 64.8 45.9C64.8 46.3 64.8 46.7 64.6 47C64.2 47.4 63.1 47.8 62.6 47.8C62.6 47.7 62.6 47.7 62.6 47.6" fill="#51052F"/>
<path d="M62.6 40.5C62 40.5 61.5 40.5 61 40.5C60.7 40.5 60.5 40.5 60.3 40.6C60.1 40.7 59.8 40.7 59.5 40.8C59.8 40.3 60.4 40 61 40C61.6 40 62.2 40.2 62.6 40.5Z" fill="#B50437"/>
<path d="M62.6 49.9C62 50.1 61.4 50.1 60.8 50C60.2 49.8 59.6 49.4 59.3 48.9C59.9 49.2 60.4001 49.4 60.9001 49.5C61.5001 49.6 62 49.7 62.6 49.9Z" fill="#B50437"/>
<path d="M61.7 42.1C61.9761 42.1 62.2 41.8761 62.2 41.6C62.2 41.3238 61.9761 41.1 61.7 41.1C61.4238 41.1 61.2 41.3238 61.2 41.6C61.2 41.8761 61.4238 42.1 61.7 42.1Z" fill="#B50437"/>
<path d="M77.4 81.1L94.9 78.7C98.4 76.7 101.6 75.4 104.6 74.7C105.4 74.7 106.7 75 104.8 76.6C102.8 78.2 100.8 80 101.2 80.9C101.6 81.8 103.4 81.4 103.7 82.8C103.9 83.7 100.9 83.8 94.8 83.2L80.6 88.8L77.4 81.1ZM22.3 85.1H32C21.3 109.1 15.8 121.7 15.3 122.8C14.3 125.3 16.4 129.2 17.4 131.3C14.4 132.7 14.7 127.6 10.9 129.4C7.40004 131 4.80003 134 0.700027 131.5C0.200027 131.2 -0.299986 130 1.00001 129.1C4.30001 126.9 8.99999 122.9 9.59999 121.6C10.5 120 14.7 107.8 22.3 85.1Z" fill="#51052F"/>
<path d="M48.9001 54.3L56.5001 54.8C58.4001 71.8 68.6001 82.5 91.5001 78.9L94.5001 100.7C73.1001 103.5 54.4001 94.9 50.5001 71.7C49.6001 65.7 48.8001 59.5 48.9001 54.3Z" fill="#910940"/>
<path d="M45.2 52.1L56.7 54.7C56.7 74.5 63 87.2 66.3 101.8H35.1C34.7 106.8 34.4 112 34.3 117.3H11C16.3 89.2 27.4 67.4 44.5 52L45.2 52.1Z" fill="#B50437"/>
<path d="M40 73.5C39.2 85.9 39.7 95.3 41.4 101.8H35.1C36 91.8 37.5 82.4 40 73.5Z" fill="black" fill-opacity="0.1"/>
<path d="M357.4 112.7H354.1V128.7H357.4V112.7Z" fill="#51052F"/>
<path d="M423.5 112.7H420.2V128.7H423.5V112.7Z" fill="#51052F"/>
<path d="M531.2 81.2C531.1 84.6 530.2 88.1 529.3 91.1C528.7 93.2 524.4 109.7 524.5 109.7C522.8 109.3 521.1 109 519.5 108.6C519.2 108.5 518.9 108.4 518.7 108.2C518.5 107.9 518.6 107.6 518.7 107.3C520.5 99.3 522.4 91.2 524.2 83.2C525.3 78.2 524.8 75.3 519.1 75C501.6 73.8 484.1 74 466.6 74.3C466.6 86.5 466.6 98.7 466.6 110.9C464.7 110.9 462.8 110.9 460.9 110.9C460.9 98.7 460.9 86.5 460.9 74.3C441.7 74.3 422.6 74.3 403.4 74.3C403.4 86.5 403.4 98.7 403.4 110.9C401.5 110.9 399.6 110.9 397.7 110.9C397.7 98.7 397.7 86.5 397.7 74.3C378.4 74.3 359.2 74.3 339.9 74.3C339.9 86.5 339.9 98.7 339.9 110.9C338 110.9 336.1 110.9 334.2 110.9C334.2 98.7 334.2 86.5 334.3 74.4C321.5 74.1 308.7 74.1 296 74.4C290.2 74.5 283.1 73.7 277.5 75.1C272.7 76.2 273.2 79.5 274.3 83.8C274.6 85.1 279.7 107.6 280 108.6C274.6 109.8 276.2 109.5 273.8 110C270.9 97.3 267.3 81.5 267.3 81.5C266.7 79 267.2 76.4 268.6 74.2C269.4 73 270.4 71.9 271.7 71.2C277.1 68 284.3 68.8 290.3 68.8C297.7 68.8 305 68.8 312.4 68.8C327.1 68.8 341.9 68.8 356.6 68.7C386.1 68.7 415.5 68.7 445 68.7C468.9 68.7 492.7 68.8 516.6 68.8C521.3 68.8 528.2 69.2 530.4 74.3C531 76.3 531.3 78.7 531.2 81.2Z" fill="#51052F"/>
<path d="M522.2 105.7H276.6V110.3H522.2V105.7Z" fill="#51052F"/>
<path d="M336.4 112.3C335.7 112.4 334.9 112.5 334 112.6C330.6 113 326.3 113.4 321.4 113.6C316.6 113.8 311.1 114 305.4 114C297.7 114 290.6 113.8 284.7 113.4C281.7 113.2 279 113 276.8 112.7C275.4 112.5 274.2 112.4 273.2 112.2C273.3 110.8 273.7 109.4 274.4 108.3C275 107.3 275.7 106.5 276.6 105.9C278 104.8 279.8 104.2 281.7 104.2H282.8L287.5 104.3H287.7L287.3 101.8L286.4 96.7999L286.1 95.2L284.5 86L284.1 83.6L283.5 80.3L281 66.3L279.6 58.2C279 54.9 281.8 51.9 285.2 52.4C289.2 52.9 294.2 53.3 299.8 53.5C300.6 53.5 301.5 53.5 302.4 53.6C303 53.6 303.6 53.6 304.2 53.6C304.6 53.6 304.9 53.6 305.3 53.6C307.3 53.6 309.4 53.5 311.6 53.4C312 53.4 312.4 53.4 312.9 53.3C314.3 53.2 315.7 53.1 317 53C320.4 52.7 323.6 52.3 326.3 52C329.6 51.6 332.4 54.4 331.9 57.7L330.9 64.8L324.9 105.2V105.3L327.9 104.3C330.4 104.3 332.7 105.4 334.2 107.1C334.5 107.5 334.8 107.8 335.1 108.3C335.8 109.2 336.3 110.7 336.4 112.3Z" fill="#51052F"/>
<path d="M334.1 106.8C330.3 108.1 324.9 109.3 316.8 110.1C315.8 110.2 314.8 110.3 313.8 110.4C313 110.5 312.3 110.5 311.5 110.6C310.7 110.6 309.9 110.7 309.1 110.7C309 110.7 308.8 110.7 308.7 110.7C308.3 110.7 307.8 110.7 307.4 110.7C306.5 110.7 305.5 110.8 304.7 110.8C291.1 110.9 282.2 108.3 276.8 105.8C278.2 104.7 280 104.1 281.9 104.1L287.7 104.3L293.8 106.4C297.7 107.4 303.6 107.7 309.5 107.5C310.5 107.5 311.4 107.4 312.3 107.4C312.7 107.4 313.2 107.4 313.6 107.3C314.6 107.2 315.5 107.2 316.5 107.1C316.6 107.1 316.6 107.1 316.7 107.1C317.6 107 318.5 106.9 319.4 106.7C320.9 106.4 322.4 106 323.8 105.5C324.2 105.4 324.6 105.2 325 105.1V105.2L328 104.2C330.3 104 332.6 105.1 334.1 106.8Z" fill="#910940"/>
<path d="M399.6 112.3C398.9 112.4 398.1 112.5 397.2 112.6C393.8 113 389.5 113.4 384.6 113.6C379.8 113.8 374.3 114 368.6 114C360.9 114 353.8 113.8 347.9 113.4C344.9 113.2 342.2 113 340 112.7C338.6 112.5 337.4 112.4 336.4 112.2C336.5 110.8 336.9 109.4 337.6 108.3C338.2 107.3 338.9 106.5 339.8 105.9C341.2 104.8 343 104.2 344.9 104.2H346L350.7 104.3H350.9L350.5 101.8L349.6 96.7999L349.3 95.2L347.7 86L347.3 83.6L346.7 80.3L344.2 66.3L342.8 58.2C342.2 54.9 345 51.9 348.4 52.4C352.4 52.9 357.4 53.3 363 53.5C363.8 53.5 364.7 53.5 365.6 53.6C366.2 53.6 366.8 53.6 367.4 53.6C367.8 53.6 368.1 53.6 368.5 53.6C370.5 53.6 372.6 53.5 374.8 53.4C375.2 53.4 375.6 53.4 376.1 53.3C377.5 53.2 378.9 53.1 380.2 53C383.6 52.7 386.8 52.3 389.5 52C392.8 51.6 395.6 54.4 395.1 57.7L394.1 64.8L388.1 105.2V105.3L391.1 104.3C393.6 104.3 395.9 105.4 397.4 107.1C397.7 107.5 398 107.8 398.3 108.3C399 109.2 399.5 110.7 399.6 112.3Z" fill="#51052F"/>
<path d="M397.3 106.8C393.5 108.1 388.1 109.3 380 110.1C379 110.2 378 110.3 377 110.4C376.2 110.5 375.5 110.5 374.7 110.6C373.9 110.6 373.1 110.7 372.3 110.7C372.2 110.7 372 110.7 371.9 110.7C371.5 110.7 371 110.7 370.6 110.7C369.7 110.7 368.7 110.8 367.9 110.8C354.3 110.9 345.4 108.3 340 105.8C341.4 104.7 343.2 104.1 345.1 104.1L350.9 104.3L357 106.4C360.9 107.4 366.8 107.7 372.7 107.5C373.7 107.5 374.6 107.4 375.5 107.4C375.9 107.4 376.4 107.4 376.8 107.3C377.8 107.2 378.7 107.2 379.7 107.1C379.8 107.1 379.8 107.1 379.9 107.1C380.8 107 381.7 106.9 382.6 106.7C384.1 106.4 385.6 106 387 105.5C387.4 105.4 387.8 105.2 388.2 105.1V105.2L391.2 104.2C393.5 104 395.7 105.1 397.3 106.8Z" fill="#910940"/>
<path d="M463.7 112.3C463 112.4 462.2 112.5 461.3 112.6C457.9 113 453.6 113.4 448.7 113.6C443.9 113.8 438.4 114 432.7 114C425 114 417.9 113.8 412 113.4C409 113.2 406.3 113 404.1 112.7C402.7 112.5 401.5 112.4 400.5 112.2C400.6 110.8 401 109.4 401.7 108.3C402.3 107.3 403 106.5 403.9 105.9C405.3 104.8 407.1 104.2 409 104.2H410.1L414.8 104.3H415L414.6 101.8L413.7 96.7999L413.4 95.2L411.8 86L411.4 83.6L410.8 80.3L408.3 66.3L406.9 58.2C406.3 54.9 409.1 51.9 412.5 52.4C416.5 52.9 421.5 53.3 427.1 53.5C427.9 53.5 428.8 53.5 429.7 53.6C430.3 53.6 430.9 53.6 431.5 53.6C431.9 53.6 432.2 53.6 432.6 53.6C434.6 53.6 436.7 53.5 438.9 53.4C439.3 53.4 439.7 53.4 440.2 53.3C441.6 53.2 443 53.1 444.3 53C447.7 52.7 450.9 52.3 453.6 52C456.9 51.6 459.7 54.4 459.2 57.7L458.2 64.8L452.2 105.2V105.3L455.2 104.3C457.7 104.3 460 105.4 461.5 107.1C461.8 107.5 462.1 107.8 462.4 108.3C463.1 109.2 463.6 110.7 463.7 112.3Z" fill="#51052F"/>
<path d="M461.4 106.8C457.6 108.1 452.2 109.3 444.1 110.1C443.1 110.2 442.1 110.3 441.1 110.4C440.3 110.5 439.6 110.5 438.8 110.6C438 110.6 437.2 110.7 436.4 110.7C436.3 110.7 436.1 110.7 436 110.7C435.6 110.7 435.1 110.7 434.7 110.7C433.8 110.7 432.8 110.8 432 110.8C418.4 110.9 409.5 108.3 404.1 105.8C405.5 104.7 407.3 104.1 409.2 104.1L415 104.3L421.1 106.4C425 107.4 430.9 107.7 436.8 107.5C437.8 107.5 438.7 107.4 439.6 107.4C440 107.4 440.5 107.4 440.9 107.3C441.9 107.2 442.8 107.2 443.8 107.1C443.9 107.1 443.9 107.1 444 107.1C444.9 107 445.8 106.9 446.7 106.7C448.2 106.4 449.7 106 451.1 105.5C451.5 105.4 451.9 105.2 452.3 105.1V105.2L455.3 104.2C457.6 104 459.9 105.1 461.4 106.8Z" fill="#910940"/>
<path d="M527.8 112.3C527.1 112.4 526.3 112.5 525.4 112.6C522 113 517.7 113.4 512.8 113.6C508 113.8 502.5 114 496.8 114C489.1 114 482 113.8 476.1 113.4C473.1 113.2 470.4 113 468.2 112.7C466.8 112.5 465.6 112.4 464.6 112.2C464.7 110.8 465.1 109.4 465.8 108.3C466.4 107.3 467.1 106.5 468 105.9C469.4 104.8 471.2 104.2 473.1 104.2H474.2L478.9 104.3H479.1L478.7 101.8L477.8 96.7999L477.5 95.2L475.9 86L475.5 83.6L474.9 80.3L472.4 66.3L471 58.2C470.4 54.9 473.2 51.9 476.6 52.4C480.6 52.9 485.6 53.3 491.2 53.5C492 53.5 492.9 53.5 493.8 53.6C494.4 53.6 495 53.6 495.6 53.6C496 53.6 496.3 53.6 496.7 53.6C498.7 53.6 500.8 53.5 503 53.4C503.4 53.4 503.8 53.4 504.3 53.3C505.7 53.2 507.1 53.1 508.4 53C511.8 52.7 515 52.3 517.7 52C521 51.6 523.8 54.4 523.3 57.7L522.3 64.8L516.3 105.2V105.3L519.3 104.3C521.8 104.3 524.1 105.4 525.6 107.1C525.9 107.5 526.2 107.8 526.5 108.3C527.2 109.2 527.7 110.7 527.8 112.3Z" fill="#51052F"/>
<path d="M525.5 106.8C521.7 108.1 516.3 109.3 508.2 110.1C507.2 110.2 506.2 110.3 505.2 110.4C504.4 110.5 503.7 110.5 502.9 110.6C502.1 110.6 501.3 110.7 500.5 110.7C500.4 110.7 500.2 110.7 500.1 110.7C499.7 110.7 499.2 110.7 498.8 110.7C497.9 110.7 496.9 110.8 496.1 110.8C482.5 110.9 473.6 108.3 468.2 105.8C469.6 104.7 471.4 104.1 473.3 104.1L479.1 104.3L485.2 106.4C489.1 107.4 495 107.7 500.9 107.5C501.9 107.5 502.8 107.4 503.7 107.4C504.1 107.4 504.6 107.4 505 107.3C506 107.2 506.9 107.2 507.9 107.1C508 107.1 508 107.1 508.1 107.1C509 107 509.9 106.9 510.8 106.7C512.3 106.4 513.8 106 515.2 105.5C515.6 105.4 516 105.2 516.4 105.1V105.2L519.4 104.2C521.7 104 524 105.1 525.5 106.8Z" fill="#910940"/>
<path d="M288.6 140.5L291.7 138.6L307.5 144L306.9 148.3H304.6L304.5 145.6L288.6 140.5Z" fill="#910940"/>
<path d="M509.2 142.4L506.1 140.5L490.3 145.9L490.9 150.1L493.2 150.2L493.3 147.5L509.2 142.4Z" fill="#910940"/>
<path d="M510 138.9L516.3 111.3L511 110.5L507.8 124.4H290.6V124.9L287.3 110.5L282 111.3L288.3 138.9L262.9 148.3L264.2 155.4H268V150.9L294.5 141.8L291.5 128.7H506.9L503.9 141.8H504L530.4 150.9V155.4H534.2L535.5 148.3L510 138.9Z" fill="#51052F"/>
<path d="M414.4 91.7C418.5 89.2 425.5 92.4 425.5 96C425.5 106.6 415.8 156.8 415.3 160C414.8 163.2 409.4 164 409 160C408.5 153.6 407.6 131.6 408.5 121.4C408.9 117.2 409.3 113.2 409.7 109.6C404.6 118.8 396.7 132 386.1 149.1L380.3 146.5C384.8 131.5 388.6 120.9 391.5 114.8C396.5 104.2 401.2 95.2 403.1 92C406.2 86.9 411.6 88.7 414.4 91.7Z" fill="#B50437"/>
<path d="M380.7 138.2L400.6 91.1C405.4 83.4 418.7 92.7 417.1 97.1C413.4 107.2 394.7 139.8 393.6 142.8L380.7 138.2Z" fill="#E50C4A"/>
<path d="M379.634 143.555C378.364 144.554 377.641 145.406 377.241 146.099C376.791 146.879 376.314 148.104 375.674 149.813C376.627 150.363 384.767 155.063 400.269 164.013C402.075 162.285 402.429 160.872 401.093 159.986C399.808 159.013 398.782 158.189 397.879 157.553L389.398 145.843C389.188 145.607 388.878 145.543 388.641 145.753L386.899 147.172C385.25 147.028 384.06 146.688 383.281 146.238C382.675 145.888 381.872 145.078 381.046 143.908C380.727 143.262 380.107 143.135 379.634 143.555Z" fill="#910940"/>
<path d="M407.7 157.4C407.1 158.9 406.9 160 406.9 160.8C406.9 161.7 407.1 163 407.4 164.8C408.5 164.8 417.9 164.8 435.8 164.8C436.5 162.4 436.1 161 434.5 160.9C432.9 160.7 431.6 160.5 430.5 160.4L417.3 154.5C417 154.4 416.7 154.5 416.6 154.8L415.8 156.9C414.3 157.6 413.1 157.9 412.2 157.9C411.5 157.9 410.4 157.6 409.1 157C408.6 156.6 408 156.9 407.7 157.4C407.8 157.4 407.8 157.4 407.7 157.4Z" fill="#910940"/>
<path d="M426.9 99.6C426.9 113 420.6 144.1 420.6 147.1H406.9C408.9 119.3 409.6 105.2 409 104.9C408.1 104.5 373.3 108.4 362.8 108.4C347.7 108.4 341.5 98.9 341 81.3H370.9C377 82 408.7 88.3 420.5 90.5C425.5 91.5 426.9 95.9 426.9 99.6Z" fill="#FC0E3B"/>
<path d="M355.2 18.5C352.9 15.8 351.3 12.4 351.6 8.69996C352.4 -2.10004 367.3 0.299955 370.2 5.69996C373.1 11.1 372.8 24.9 369 25.9C367.5 26.3 364.3 25.3 361 23.4L363 37.9H350.9L355.2 18.5Z" fill="#B50437"/>
<path d="M371.8 13.4C372 13.9 372.4 14.3 372.6 14.8C372.9 15.4 373.1 16.1 373.3 16.8C373.6 17.7 373.8 18.6 373.9 19.6C374 20.5 374 20.5 373.1 20.8C372.3 21.1 371.6 21.1 370.8 21.1" fill="#B50437"/>
<path d="M370.8 11.4C370.6 11.1 370.3 11.1 370 11C369.7 11 369.4 10.9 369.1 10.9C368.8 10.9 368.5 10.8 368.2 10.8C367.9 10.8 367.6 10.7 367.2 10.6C367.4 10.3 367.8 10.1 368.2 9.99997C368.6 9.89997 368.9 9.89996 369.3 9.89996C369.7 9.99996 370.1 10.1 370.4 10.3C370.7 10.4 371 11 370.8 11.4Z" fill="#51052F"/>
<path d="M371.3 23C370.9 23.2 370.5 23.2999 370.1 23.3999C369.7 23.4999 369.3 23.4999 368.8 23.3999C368.4 23.2999 367.9 23.1 367.5 22.8C367.2 22.4 367 22.1 366.9 21.7C367.4 21.8 367.7 22.1 368 22.2C368.3 22.3 368.6 22.4 368.9 22.5C369.6 22.6 370.4 22.6 371.3 23Z" fill="#51052F"/>
<path d="M369.7 13.3C370.087 13.3 370.4 12.9866 370.4 12.6C370.4 12.2134 370.087 11.9 369.7 11.9C369.313 11.9 369 12.2134 369 12.6C369 12.9866 369.313 13.3 369.7 13.3Z" fill="#51052F"/>
<path d="M359 12.7C358.6 12.4 358.1 12.3 357.6 12.3C356.2 12.3 355.1 13.5 355.1 14.8C355.1 16.1 355.7 17.2 356.6 17.6C356.1 18.5 355.6 19.2 355.1 19.3C352.9 19.1 350.1 13.7 350.1 9.19997C350.1 4.29997 354 0.0999756 361.2 0.0999756C367.7 0.0999756 370.1 2.79998 370.3 5.09998C367.5 5.89998 362.7 6.19998 355.7 6.09998V6.59998L361.7 7.09998L362.7 10.1C361 10.1 359.9 11.2 359 12.7Z" fill="#51052F"/>
<path d="M392.2 65.8L410.4 57.8C413.6 54.6 416.7 52.2 419.6 50.5C420.5 50.2 422 50.1 420.4 52.5C418.8 54.9 417.2 57.4 417.8 58.3C418.4 59.1 420.3 58.2 421.1 59.6C421.6 60.5 418.4 61.6 411.6 62.8L398 73.3L392.2 65.8ZM318.5 68L328.8 70C318.4 89.3 312.9 99.5 312.1 100.7C310.4 103.3 312 108.1 312.6 110.6C308.9 111.5 310.4 105.9 305.8 107.1C301.6 108.1 298 110.8 294.1 107.2C293.6 106.8 293.3 105.4 294.9 104.6C299 102.8 305.1 99.5 306.1 98.2C307.3 96.5 311.5 86.5 318.5 68Z" fill="#B50437"/>
<path d="M356.8 29.5L361.1 28.8C370.6 38 374.4 60.1 380.7 63C386.7 65.8 395.1 63.1 405.2 59.5L408.3 66.4C399.2 76.3 379.7 84.6 371.8 79.9C359.3 72.1 356.4 44.9 356.8 29.5Z" fill="#16C1B8"/>
<path d="M337.9 84.1C355.3 84.1 368.2 84.1 376.4 84.1C378.2 84.1 377.8 81.6 377.6 80.3C374.7 65.5 363.2 49.6 363.2 28.5L352.1 26.8C342.8 41.6 339.7 59.7 337.9 84.1Z" fill="#DDE3E9"/>
<path d="M334 69.2C326.2 83.3 319.6 93.5 314.2 99.8L306.1 98.2C311.3 66 326.3 42.2 351.2 26.9H351.3H355.6C365.6 60.9 368.3 83.5 363.8 94.8H329.2C329.9 86.4 331.6 77.7 334 69.2Z" fill="#1CD3CA"/>
<path d="M151.6 93.1C150.8 93.1 150.2 93.6 150.2 94.2C150.2 94.3 150.2 94.4 150.2 94.4C150.2 94.6 150.2 94.9 150.2 95.1C150.2 95.5 150.2 95.8 150.2 96.2C150.2 96.7 150.2 97.1 150.2 97.6C150.2 98.2 150.2 98.7 150.2 99.3C150.2 99.9 150.2 100.6 150.2 101.2C150.2 101.9 150.2 102.6 150.2 103.2C150.2 103.9 150.2 104.6 150.2 105.3C150.2 106 150.2 106.7 150.2 107.5C150.2 108.2 150.2 108.9 150.2 109.6C150.2 110.3 150.2 111 150.2 111.6C150.2 112.2 150.2 112.9 150.2 113.5C150.2 114.1 150.2 114.6 150.2 115.2C150.2 115.7 150.2 116.1 150.2 116.6C150.2 117 150.2 117.3 150.2 117.7C150.2 117.9 150.2 118.2 150.2 118.4C150.2 118.5 150.2 118.7 150.2 118.8C150.2 119 150.5 119 150.7 119.1C151 119.2 151.3 119.2 151.6 119.2C151.9 119.2 152.1 119.2 152.4 119.1C152.6 119.1 152.9 119 153 118.9V118.8C153 118.6 153 118.5 153 118.3C153 118.1 153 117.8 153 117.6C153 117.3 153 116.9 153 116.6C153 116.1 153 115.7 153 115.2C153 114.7 153 114.1 153 113.6C153 113 153 112.4 153 111.8C153 111.1 153 110.5 153 109.8C153 109.1 153 108.4 153 107.8C153 107.1 153 106.4 153 105.7C153 105 153 104.3 153 103.6C153 102.9 153 102.3 153 101.6C153 101 153 100.3 153 99.7C153 99.1 153 98.6 153 98C153 97.5 153 97 153 96.5C153 96.1 153 95.7 153 95.3C153 95 153 94.7 153 94.5C153 94.3 153 94.2 153 94C153 94 153 94 153 93.9C153 93.6 152.4 93.1 151.6 93.1Z" fill="#B50437"/>
<path d="M216.7 92.2C215.9 92.2 215.3 92.7 215.3 93.3C215.3 93.4 215.3 93.5 215.3 93.5C215.3 93.7 215.3 94 215.3 94.2C215.3 94.6 215.3 94.9 215.3 95.3C215.3 95.8 215.3 96.2 215.3 96.7C215.3 97.3 215.3 97.8 215.3 98.4C215.3 99 215.3 99.7 215.3 100.3C215.3 101 215.3 101.7 215.3 102.3C215.3 103 215.3 103.7 215.3 104.4C215.3 105.1 215.3 105.8 215.3 106.6C215.3 107.3 215.3 108 215.3 108.7C215.3 109.4 215.3 110.1 215.3 110.7C215.3 111.3 215.3 112 215.3 112.6C215.3 113.2 215.3 113.7 215.3 114.3C215.3 114.8 215.3 115.2 215.3 115.7C215.3 116.1 215.3 116.4 215.3 116.8C215.3 117 215.3 117.3 215.3 117.5C215.3 117.6 215.3 117.8 215.3 117.9C215.3 118.1 215.6 118.1 215.8 118.2C216.1 118.3 216.4 118.3 216.7 118.3C217 118.3 217.2 118.3 217.5 118.2C217.7 118.2 218 118.1 218.1 118V117.9C218.1 117.7 218.1 117.6 218.1 117.4C218.1 117.2 218.1 116.9 218.1 116.7C218.1 116.4 218.1 116 218.1 115.7C218.1 115.2 218.1 114.8 218.1 114.3C218.1 113.8 218.1 113.2 218.1 112.7C218.1 112.1 218.1 111.5 218.1 110.9C218.1 110.2 218.1 109.6 218.1 108.9C218.1 108.2 218.1 107.5 218.1 106.9C218.1 106.2 218.1 105.5 218.1 104.8C218.1 104.1 218.1 103.4 218.1 102.7C218.1 102 218.1 101.4 218.1 100.7C218.1 100.1 218.1 99.4 218.1 98.8C218.1 98.2 218.1 97.7 218.1 97.1C218.1 96.6 218.1 96.1 218.1 95.6C218.1 95.2 218.1 94.8 218.1 94.4C218.1 94.1 218.1 93.8 218.1 93.6C218.1 93.4 218.1 93.3 218.1 93.1C218.1 93.1 218.1 93.1 218.1 93C218 92.7 217.4 92.2 216.7 92.2Z" fill="#B50437"/>
<path d="M134.4 100.2C133.6 100.2 133 100.8 133 101.5C133 101.6 133 101.7 133 101.8C133 102.1 133 102.3 133 102.6C133 103 133 103.4 133 103.8C133 104.3 133 104.8 133 105.4C133 106 133 106.6 133 107.3C133 108 133 108.7 133 109.4C133 110.2 133 110.9 133 111.7C133 112.5 133 113.3 133 114.1C133 114.9 133 115.7 133 116.5C133 117.3 133 118.1 133 118.9C133 119.7 133 120.4 133 121.2C133 121.9 133 122.6 133 123.3C133 123.9 133 124.5 133 125.2C133 125.7 133 126.2 133 126.8C133 127.2 133 127.6 133 128C133 128.3 133 128.5 133 128.8C133 129 133 129.1 133 129.3C133 129.5 133.3 129.6 133.5 129.6C133.8 129.7 134.1 129.7 134.4 129.7C134.7 129.7 134.9 129.7 135.2 129.6C135.4 129.6 135.7 129.5 135.8 129.4V129.3C135.8 129.1 135.8 129 135.8 128.8C135.8 128.5 135.8 128.3 135.8 128C135.8 127.6 135.8 127.2 135.8 126.8C135.8 126.3 135.8 125.8 135.8 125.3C135.8 124.7 135.8 124.1 135.8 123.5C135.8 122.8 135.8 122.2 135.8 121.5C135.8 120.8 135.8 120.1 135.8 119.3C135.8 118.5 135.8 117.8 135.8 117C135.8 116.2 135.8 115.5 135.8 114.7C135.8 113.9 135.8 113.2 135.8 112.4C135.8 111.7 135.8 110.9 135.8 110.2C135.8 109.5 135.8 108.8 135.8 108.1C135.8 107.5 135.8 106.8 135.8 106.2C135.8 105.7 135.8 105.1 135.8 104.6C135.8 104.2 135.8 103.7 135.8 103.3C135.8 103 135.8 102.7 135.8 102.4C135.8 102.2 135.8 102.1 135.8 101.9C135.8 101.9 135.8 101.9 135.8 101.8C135.7 100.8 135.1 100.2 134.4 100.2Z" fill="#B50437"/>
<path d="M231.7 101C230.9 101 230.3 101.6 230.3 102.3C230.3 102.4 230.3 102.5 230.3 102.6C230.3 102.9 230.3 103.1 230.3 103.4C230.3 103.8 230.3 104.2 230.3 104.6C230.3 105.1 230.3 105.6 230.3 106.2C230.3 106.8 230.3 107.4 230.3 108.1C230.3 108.8 230.3 109.5 230.3 110.2C230.3 111 230.3 111.7 230.3 112.5C230.3 113.3 230.3 114.1 230.3 114.9C230.3 115.7 230.3 116.5 230.3 117.3C230.3 118.1 230.3 118.9 230.3 119.7C230.3 120.5 230.3 121.2 230.3 122C230.3 122.7 230.3 123.4 230.3 124.1C230.3 124.7 230.3 125.3 230.3 126C230.3 126.5 230.3 127 230.3 127.6C230.3 128 230.3 128.4 230.3 128.8C230.3 129.1 230.3 129.3 230.3 129.6C230.3 129.8 230.3 129.9 230.3 130.1C230.3 130.3 230.6 130.4 230.8 130.4C231.1 130.5 231.4 130.5 231.7 130.5C232 130.5 232.2 130.5 232.5 130.4C232.7 130.4 233 130.3 233.1 130.2V130.1C233.1 129.9 233.1 129.8 233.1 129.6C233.1 129.3 233.1 129.1 233.1 128.8C233.1 128.4 233.1 128 233.1 127.6C233.1 127.1 233.1 126.6 233.1 126.1C233.1 125.5 233.1 124.9 233.1 124.3C233.1 123.6 233.1 123 233.1 122.3C233.1 121.6 233.1 120.9 233.1 120.1C233.1 119.3 233.1 118.6 233.1 117.8C233.1 117 233.1 116.3 233.1 115.5C233.1 114.7 233.1 114 233.1 113.2C233.1 112.5 233.1 111.7 233.1 111C233.1 110.3 233.1 109.6 233.1 108.9C233.1 108.3 233.1 107.6 233.1 107C233.1 106.5 233.1 105.9 233.1 105.4C233.1 105 233.1 104.5 233.1 104.1C233.1 103.8 233.1 103.5 233.1 103.2C233.1 103 233.1 102.9 233.1 102.7C233.1 102.7 233.1 102.7 233.1 102.6C233.1 101.6 232.5 101 231.7 101Z" fill="#B50437"/>
<path d="M126.6 105.9L149.5 87.7H216.6L239.5 105.9H126.6Z" fill="#F985A6"/>
<path d="M239.4 105.9H126.6V108.1H239.4V105.9Z" fill="#910940"/>
<path fill-rule="evenodd" clip-rule="evenodd" d="M223.5 83.5C215.9 92.2 217.4 99.5 218.8 102.3C217.9 102.1 216.6 96.6 218 92C218.8 89.4 222.1 84 223.5 83.5Z" fill="#F93A70"/>
<path fill-rule="evenodd" clip-rule="evenodd" d="M224.3 83.1C224.2 82 224.8 80.1 228.9 79.7C227.4 83.5 225.3 83.5 224.3 83.1Z" fill="#F93A70"/>
<path fill-rule="evenodd" clip-rule="evenodd" d="M221.8 84C220.9 83.5 219.5 81.9 221.5 78.3C223.9 81.8 222.7 83.4 221.8 84Z" fill="#F93A70"/>
<path fill-rule="evenodd" clip-rule="evenodd" d="M222.7 86.3C223 85.3 224.2 83.6 228.2 84.7C225.4 87.7 223.5 87 222.7 86.3Z" fill="#F93A70"/>
<path fill-rule="evenodd" clip-rule="evenodd" d="M219.2 87.8C218.1 87.7 216.3 86.8 216.7 82.7C220.2 84.9 219.8 86.9 219.2 87.8Z" fill="#F93A70"/>
<path fill-rule="evenodd" clip-rule="evenodd" d="M220.1 90.1C220.3 89.1 221.4 87.3 225.4 88.2C222.9 91.4 220.9 90.7 220.1 90.1Z" fill="#F93A70"/>
<path fill-rule="evenodd" clip-rule="evenodd" d="M217 92C215.9 91.9 214.1 91 214.5 86.9C218 89.1 217.6 91.1 217 92Z" fill="#F93A70"/>
<path fill-rule="evenodd" clip-rule="evenodd" d="M218.8 94.9C218.7 93.8 219.3 91.9 223.4 91.6C221.8 95.4 219.8 95.3 218.8 94.9Z" fill="#F93A70"/>
<path fill-rule="evenodd" clip-rule="evenodd" d="M216.6 97.2C215.5 97.4 213.5 97 212.9 92.9C216.8 94.2 216.9 96.2 216.6 97.2Z" fill="#F93A70"/>
<path fill-rule="evenodd" clip-rule="evenodd" d="M218.5 99.2C218.4 98.1 218.8 96.1 222.9 95.7C221.5 99.5 219.5 99.6 218.5 99.2Z" fill="#F93A70"/>
<path fill-rule="evenodd" clip-rule="evenodd" d="M217.6 102.1C216.6 102.5 214.5 102.4 213.2 98.5C217.3 99.1 217.7 101 217.6 102.1Z" fill="#F93A70"/>
<path fill-rule="evenodd" clip-rule="evenodd" d="M217.9 85.5C215.7 93.9 219.2 98.2 221.1 99.6C220.4 99.7 217.7 96.5 217.1 93C216.7 91 217.1 86.3 217.9 85.5Z" fill="#910940"/>
<path fill-rule="evenodd" clip-rule="evenodd" d="M218.3 84.9C217.9 84.2 217.6 82.7 220.2 81.1C220.5 84.2 219.1 84.9 218.3 84.9Z" fill="#910940"/>
<path fill-rule="evenodd" clip-rule="evenodd" d="M216.9 86.4C216.1 86.4 214.7 85.8 214.8 82.7C217.6 84.2 217.3 85.7 216.9 86.4Z" fill="#910940"/>
<path fill-rule="evenodd" clip-rule="evenodd" d="M218.3 87.6C218.1 86.8 218.4 85.3 221.4 84.7C220.6 87.7 219.1 87.8 218.3 87.6Z" fill="#910940"/>
<path fill-rule="evenodd" clip-rule="evenodd" d="M216.5 89.8C215.8 90.1 214.2 90.1 213.1 87.2C216.2 87.5 216.6 89 216.5 89.8Z" fill="#910940"/>
<path fill-rule="evenodd" clip-rule="evenodd" d="M217.8 91C217.6 90.2 217.7 88.7 220.7 87.9C220.1 91 218.6 91.2 217.8 91Z" fill="#910940"/>
<path fill-rule="evenodd" clip-rule="evenodd" d="M216.4 93.3C215.7 93.6 214.1 93.6 213 90.7C216.1 91.1 216.5 92.5 216.4 93.3Z" fill="#910940"/>
<path fill-rule="evenodd" clip-rule="evenodd" d="M218.6 94.7C218.2 94 217.9 92.5 220.6 91C220.8 94 219.4 94.6 218.6 94.7Z" fill="#910940"/>
<path fill-rule="evenodd" clip-rule="evenodd" d="M217.8 97C217.1 97.5 215.7 97.9 213.9 95.4C217 94.9 217.7 96.2 217.8 97Z" fill="#910940"/>
<path fill-rule="evenodd" clip-rule="evenodd" d="M219.8 97.7C219.4 97 219 95.5 221.6 93.9C221.9 96.9 220.6 97.6 219.8 97.7Z" fill="#910940"/>
<path fill-rule="evenodd" clip-rule="evenodd" d="M220.2 99.9C219.6 100.5 218.3 101.1 216.1 99C218.9 98 219.9 99.1 220.2 99.9Z" fill="#910940"/>
<path fill-rule="evenodd" clip-rule="evenodd" d="M212.1 90.6C210.8 95 212 99.8 215.1 102.7H227.5C230.6 99.7 231.8 94.9 230.5 90.6H212.1Z" fill="#51052F"/>
<path fill-rule="evenodd" clip-rule="evenodd" d="M230.7 90.7H212.1C211.7 90.7 211.4 90.4 211.4 90C211.4 89.6 211.7 89.3 212.1 89.3H230.7C231.1 89.3 231.4 89.6 231.4 90C231.4 90.3 231.1 90.7 230.7 90.7Z" fill="#51052F"/>
<path fill-rule="evenodd" clip-rule="evenodd" d="M237.1 109.3C235.7 94.9 227.8 90 224 88.9C225 88.3 231.1 91.8 234 97C235.8 99.9 237.9 107.6 237.1 109.3Z" fill="#F93A70"/>
<path fill-rule="evenodd" clip-rule="evenodd" d="M236.8 110.4C237.8 111.2 239.2 113.4 235.9 117.4C233.7 112.7 235.5 110.9 236.8 110.4Z" fill="#F93A70"/>
<path fill-rule="evenodd" clip-rule="evenodd" d="M238 107.3C239.3 106.9 241.8 107 243.4 111.9C238.3 111.1 237.8 108.6 238 107.3Z" fill="#F93A70"/>
<path fill-rule="evenodd" clip-rule="evenodd" d="M235.2 106.2C235.9 107.3 236.4 109.9 232 112.5C231.6 107.3 233.9 106.3 235.2 106.2Z" fill="#F93A70"/>
<path fill-rule="evenodd" clip-rule="evenodd" d="M236.8 101.6C237.8 100.7 240.2 99.8 243.6 103.7C238.6 105 237.1 102.9 236.8 101.6Z" fill="#F93A70"/>
<path fill-rule="evenodd" clip-rule="evenodd" d="M234 100.5C234.8 101.6 235.4 104.1 231.2 107C230.5 101.9 232.7 100.7 234 100.5Z" fill="#F93A70"/>
<path fill-rule="evenodd" clip-rule="evenodd" d="M234.9 96.1C235.9 95.2 238.3 94.3 241.7 98.2C236.7 99.5 235.3 97.4 234.9 96.1Z" fill="#F93A70"/>
<path fill-rule="evenodd" clip-rule="evenodd" d="M230.8 95.2C231.8 96.1 233.1 98.3 229.8 102.2C227.7 97.5 229.5 95.7 230.8 95.2Z" fill="#F93A70"/>
<path fill-rule="evenodd" clip-rule="evenodd" d="M230.6 91.1C231.4 90 233.5 88.5 237.7 91.5C233.1 94 231.2 92.3 230.6 91.1Z" fill="#F93A70"/>
<path fill-rule="evenodd" clip-rule="evenodd" d="M227.1 91.2C228.2 92 229.6 94.1 226.5 98.3C224.2 93.7 225.9 91.8 227.1 91.2Z" fill="#F93A70"/>
<path fill-rule="evenodd" clip-rule="evenodd" d="M225.2 87.9C225.7 86.7 227.5 84.8 232.2 86.9C228.3 90.2 226.1 88.9 225.2 87.9Z" fill="#F93A70"/>
<path fill-rule="evenodd" clip-rule="evenodd" d="M243 86.5C231.9 83.1 225.9 87.6 223.9 90C223.7 89.1 228.2 85.6 232.9 85C235.7 84.6 241.9 85.4 243 86.5Z" fill="#F93A70"/>
<path fill-rule="evenodd" clip-rule="evenodd" d="M243.7 87C244.6 86.5 246.7 86.2 248.6 89.8C244.5 90 243.7 88.1 243.7 87Z" fill="#F93A70"/>
<path fill-rule="evenodd" clip-rule="evenodd" d="M241.8 85.2C241.9 84.1 242.8 82.3 246.9 82.6C244.7 86.1 242.7 85.7 241.8 85.2Z" fill="#F93A70"/>
<path fill-rule="evenodd" clip-rule="evenodd" d="M240.1 86.9C241.2 86.7 243.2 87.1 243.8 91.2C239.9 90 239.8 87.9 240.1 86.9Z" fill="#F93A70"/>
<path fill-rule="evenodd" clip-rule="evenodd" d="M237.2 84.4C236.9 83.4 236.9 81.3 240.8 80C240.3 84.1 238.3 84.5 237.2 84.4Z" fill="#F93A70"/>
<path fill-rule="evenodd" clip-rule="evenodd" d="M235.5 86.1C236.5 85.9 238.6 86.2 239.4 90.2C235.5 89.1 235.3 87.1 235.5 86.1Z" fill="#F93A70"/>
<path fill-rule="evenodd" clip-rule="evenodd" d="M232.5 84.1C232.2 83.1 232.2 81 236.1 79.7C235.6 83.8 233.6 84.2 232.5 84.1Z" fill="#F93A70"/>
<path fill-rule="evenodd" clip-rule="evenodd" d="M230.6 86.9C231.5 86.4 233.6 86.1 235.5 89.8C231.4 89.9 230.6 88 230.6 86.9Z" fill="#F93A70"/>
<path fill-rule="evenodd" clip-rule="evenodd" d="M227.6 85.8C227 84.9 226.6 82.9 230 80.7C230.5 84.8 228.6 85.7 227.6 85.8Z" fill="#F93A70"/>
<path fill-rule="evenodd" clip-rule="evenodd" d="M226.6 88.3C227.5 87.7 229.5 87.4 231.7 90.9C227.5 91.3 226.6 89.4 226.6 88.3Z" fill="#F93A70"/>
<path fill-rule="evenodd" clip-rule="evenodd" d="M223.5 88.7C222.8 87.9 221.9 86 224.9 83.2C226.2 87.2 224.6 88.4 223.5 88.7Z" fill="#F93A70"/>
<path fill-rule="evenodd" clip-rule="evenodd" d="M245.1 103.7C237.5 89.8 227.5 88.3 223.2 88.8C223.9 87.8 231.6 88.6 236.8 92.6C239.7 94.9 245.1 101.6 245.1 103.7Z" fill="#910940"/>
<path fill-rule="evenodd" clip-rule="evenodd" d="M245.2 104.9C246.6 105.3 248.9 106.9 247.3 112.4C243.2 108.6 244.2 106 245.2 104.9Z" fill="#910940"/>
<path fill-rule="evenodd" clip-rule="evenodd" d="M245.1 101.3C246.2 100.3 248.8 99.4 252.5 103.7C247 105 245.5 102.7 245.1 101.3Z" fill="#910940"/>
<path fill-rule="evenodd" clip-rule="evenodd" d="M241.8 101.4C243 102.3 244.6 104.6 241.3 109.1C238.7 104.1 240.5 102 241.8 101.4Z" fill="#910940"/>
<path fill-rule="evenodd" clip-rule="evenodd" d="M241.5 96.1C242.1 94.8 244.1 92.8 249.2 95.3C244.7 98.8 242.4 97.3 241.5 96.1Z" fill="#910940"/>
<path fill-rule="evenodd" clip-rule="evenodd" d="M238.2 96.2C239.4 97 241.1 99.2 238.1 104C235.2 99.1 236.9 96.9 238.2 96.2Z" fill="#910940"/>
<path fill-rule="evenodd" clip-rule="evenodd" d="M237.2 91.3C237.8 90 239.8 88 244.9 90.5C240.5 94 238.1 92.5 237.2 91.3Z" fill="#910940"/>
<path fill-rule="evenodd" clip-rule="evenodd" d="M232.6 92.3C234 92.7 236.2 94.4 234.6 99.8C230.5 95.9 231.6 93.3 232.6 92.3Z" fill="#910940"/>
<path fill-rule="evenodd" clip-rule="evenodd" d="M230.7 88.3C231 86.9 232.5 84.5 238 85.6C234.5 90 231.9 89.2 230.7 88.3Z" fill="#910940"/>
<path fill-rule="evenodd" clip-rule="evenodd" d="M227.3 89.8C228.7 90.1 231.1 91.7 229.7 97.2C225.4 93.5 226.3 90.9 227.3 89.8Z" fill="#910940"/>
<path fill-rule="evenodd" clip-rule="evenodd" d="M224 87.3C224 85.8 225 83.2 230.7 83.3C228 88.3 225.3 88 224 87.3Z" fill="#910940"/>
</svg>
