<svg width="200" height="130" viewBox="0 0 200 130" fill="none" xmlns="http://www.w3.org/2000/svg">
<path d="M40.8 114.3C46.4885 114.3 51.1 113.897 51.1 113.4C51.1 112.903 46.4885 112.5 40.8 112.5C35.1115 112.5 30.5 112.903 30.5 113.4C30.5 113.897 35.1115 114.3 40.8 114.3Z" fill="#F93A70"/>
<path d="M60.8999 52.6C60.9999 56.9 60.1999 60.7 58.8999 64.1L56.2999 62.8L58.2999 65.5C56.5999 69.3 54.2999 72.5 52.0999 75L51.2999 71.8V75.8C47.7999 79.5 44.7 81.4 44.7 81.4C47.9 61.7 60.8999 52.6 60.8999 52.6Z" fill="#FC0E3B"/>
<path d="M46.2 77.4C46.2 77.4 37.6 99.1 41.4 128" stroke="#FC0E3B" stroke-miterlimit="10"/>
<path d="M40.5999 119.4C40.5999 119.4 43.1999 82 26.2999 66.6" stroke="#FC0E3B" stroke-miterlimit="10"/>
<path d="M0.599976 60.9C0.599976 60.9 31.1 54.3 35.1 80C35.1 80 19.6 63.2 0.599976 60.9Z" fill="#F93A70"/>
<path d="M23.3 71.1L22.5 74.4C23.7 75.2 25 75.9 26.3 76.6L26.9 75.8V76.9C29.5 78.2 32.2 79.4 35.1 79.9C35.1 79.9 30.9 58.5 0.599976 60.8C0.599976 60.8 3.29998 65.7 9.09998 67.3L10.9 65.8L9.69998 67.4C9.79998 67.4 9.99998 67.5 10.1 67.5C13.4 68.2 17.2 70.8 21.5 73.6L23.3 71.1Z" fill="#910940"/>
<path d="M40.1 126.3C40.1 126.3 37.5 88.9 54.4 73.5" stroke="#FC0E3B" stroke-miterlimit="10"/>
<path d="M80.1 67.9C80.1 67.9 49.6 61.3 45.6 87C45.6 86.9 61.1 70.2 80.1 67.9Z" fill="#F93A70"/>
<path d="M57.4999 78L58.2999 81.3C57.0999 82.1 55.7999 82.8 54.4999 83.5L53.8999 82.7V83.8C51.2999 85.1 48.6 86.3 45.7 86.8C45.7 86.8 49.9 65.4 80.2 67.7C80.2 67.7 77.5 72.6 71.7 74.2L69.8999 72.7L71.0999 74.3C70.9999 74.3 70.8 74.4 70.7 74.4C67.4 75.1 63.5999 77.7 59.2999 80.5L57.4999 78Z" fill="#910940"/>
<path d="M41.7999 66.7C41.7999 66.7 39.5999 103.9 41.4999 116.6" stroke="#FC0E3B" stroke-miterlimit="10"/>
<path d="M44.8999 70.7L46.9999 71.2C47.4999 69.6 47.8999 67.7 48.0999 65.8L45.3999 64.2L48.1999 65.1C48.5999 61.8 48.8999 58.2 49.5999 55.4C49.7999 54.6 49.8999 53.8 49.8999 53L47.1999 54.5L49.8999 51.7C49.4999 45.6 44.8999 40.6 44.8999 40.6C42.1999 46 40.4999 76.5 40.8999 76.5C43.7999 76.5 45.3999 74.8 46.4999 72.4L44.8999 70.7Z" fill="#F93A70"/>
<path d="M37.7999 53.8L40.2999 53.7L37.7999 54.3999C37.7999 54.7999 37.7999 55.2 37.7999 55.6C37.9999 58.1 37.9999 60.5999 37.8999 62.8999H39.7999L37.7999 64.3C37.6999 70.7 37.4999 75.6 40.7999 76.6L44.7999 40.7C44.8999 40.7 38.0999 44.8 37.7999 53.8Z" fill="#910940"/>
<path d="M20.5 46.3C20.4 50.6 21.2 54.4 22.5 57.8L25.1 56.5L23.1 59.2C24.8 63 27.1 66.2 29.3 68.7L30.1 65.5V69.5C33.6 73.2 36.7 75.1 36.7 75.1C33.5 55.3 20.5 46.3 20.5 46.3Z" fill="#910940"/>
<path d="M35.1 71C35.1 71 43.7 92.7 39.9 121.6" stroke="#910940" stroke-miterlimit="10"/>
<path d="M40.8 114.2C35.1 114.2 30.5 113.8 30.5 113.3L34.3 128.6C34.3 128.6 36.5 129.6 41 129.6C45.5 129.6 47.7 128.6 47.7 128.6L51.2 113.3C51.2 113.8 46.5 114.2 40.8 114.2Z" fill="#51052F"/>
<path d="M185.2 42.8L175.8 75.6L169 99.7H164.1L171.3 42.8H185.2Z" fill="#6B0533"/>
<path d="M187.6 42.8C187.8 59.7 188.6 68.9 188.8 70.4C189 71.9 192.5 81.7 199.1 99.6H194C185.6 82.4 180.9 72.6 179.9 70.4C178.9 68.2 175.9 58.9 171.3 42.8H187.6Z" fill="#910940"/>
<path d="M199.6 104.3L199.3 98.9H193.9C191.3 100.7 188 102.2 183.9 103.3V104.3H193.7L197 103.8V104.3H199.6Z" fill="#FC0E3B"/>
<path d="M169.7 104.3L169.4 98.9H164C161.4 100.7 158.1 102.2 154 103.3V104.3H163.8L167.1 103.8V104.3H169.7Z" fill="#FC0E3B"/>
<path d="M182.4 9.80001C183.6 8.40001 184.4 6.70001 184.3 4.80001C183.9 -0.699987 176.3 0.500013 174.8 3.30001C173.3 6.10001 173.5 13.1 175.4 13.6C176.2 13.8 177.8 13.3 179.5 12.3L178.5 19.7H184.7L182.4 9.80001Z" fill="#B50437"/>
<path d="M180.5 6.8C180.7 6.7 180.9 6.60001 181.2 6.60001C181.9 6.60001 182.5 7.19999 182.5 7.89999C182.5 8.59999 182.2 9.1 181.7 9.3C181.9 9.8 182.2 10.1 182.5 10.2C183.6 10.1 185.1 7.30001 185.1 5.10001C185.1 2.60001 183.1 0.5 179.4 0.5C176.1 0.5 174.8 1.90001 174.8 3.10001C176.2 3.50001 178.7 3.60001 182.3 3.60001V3.89999L179.2 4.2L178.7 5.7C179.4 5.5 180 6 180.5 6.8Z" fill="#51052F"/>
<path d="M165.4 42.8L157.6 46.2C155.4 48.9 154.2 50 153.9 49.6C153.5 48.9 154.4 48.3 154.2 47.8C154 47.3 152.5 47.4 151.1 47.5C149.7 47.6 150.1 47 150.4 46.6C151.8 45.7 153.6 45 155.7 44.4L163.6 38.4L165.4 42.8Z" fill="#B50437"/>
<path d="M179.2 16L177.1 15.6C169.2 22.7 165.9 36.4 156.2 43.7L158.5 46.7C175.4 44.5 179.6 27.8 179.2 16Z" fill="#FC0E3B"/>
<path d="M188.5 43.9C180 43.9 173.7 43.9 169.6 43.9C168.7 43.9 168.9 42.6 169 41.9C170.4 34.3 176.1 26.2 176.1 15.4L181.5 14.5C186.1 22.2 187.6 31.5 188.5 43.9Z" fill="#DDE3E9"/>
<path d="M190.2 20.4C191 20.1 189.8 21.3 190.2 20.4C192.2 16.7 191.5 14.6 189.3 13.9C187.1 13.2 185.3 14.6 181.9 14.6C181.7 14.6 181.5 14.6 181.4 14.6L179.7 14.7C174.8 32 173.5 43.5 175.7 49.3H188.8C189.6 47.9 189.6 43.6 190.2 42.3L195.9 43.9C200.5 29.3 203.6 28.1 190.2 20.4Z" fill="#F93A70"/>
<path d="M191.6 30.8C190.3 30.1 188.4 29.6 187.1 29.1C186.1 28.7 186.1 36.6 186 38.2C185.7 43.3 185.2 48 185.1 49.3H188.8C189.8 46.9 191 33.9 191.6 30.8Z" fill="black" fill-opacity="0.1"/>
<path d="M183.3 52.9C183.3 53.1 183.3 53.5 183.5 53.9C183.7 54.3 184.1 54.5 184.3 54.6C185.4 55.2 186.5 55.7 187.7 55.9C187.8 55.9 187.8 55.9 187.9 55.9V106.7H189.6V56C190.2 55.9 190.8 55.8 191.3 55.6C192 55.4 192.7 55 193.4 54.7C193.6 54.6 194 54.4 194.2 54C194.4 53.6 194.4 53.3 194.4 53C194.4 50.5 194.4 47 194.4 43.6L192.9 43.2C192.9 44.7 192.9 46.1 192.9 47.6H184.9C184.9 42.9 184.9 37.6 184.9 34.6V34.5C184.9 34.5 185 34.5 185 34.4C186 33.7 187.2 33.3 188.4 33.2C189.3 33.1 190.3 33.3 191.2 33.7L191.4 32.1C190.9 31.9 190.5 31.8 190 31.7C189.3 31.6 188.7 31.6 188 31.6C186.7 31.8 185.4 32.2 184.1 33C183.9 33.1 183.5 33.3 183.3 33.8C183.2 34.1 183.2 34.5 183.2 34.7C183.3 38.8 183.3 47.7 183.3 52.9ZM184.8 52.9C184.8 51.7 184.8 50.2 184.8 48.7H192.8C192.8 50.3 192.8 51.7 192.8 52.9C192.8 52.9 192.8 53 192.8 53.1L192.7 53.2C191.3 54 190 54.4 188.9 54.4C187.7 54.4 186.4 53.9 185.1 53.2C185 53.2 185 53.1 185 53.1C184.8 53 184.8 52.9 184.8 52.9Z" fill="#51052F"/>
<path d="M192.4 45.1C192.2 45.9 193 49.3 193.6 51.4C193.9 52.3 193.2 52.6 192.9 52.6C190.2 52.4 190.1 50.2 189.1 48.2C188 46.1 186.4 48.5 185.5 46.9C186.6 46.2 189 45.2 189.4 43.7C189.7 43 189.9 42.6 190.1 42.3L193.3 43.2C192.9 43.9 192.8 44.1 192.4 45.1Z" fill="#B50437"/>
</svg>
