<svg width="443" height="215" viewBox="0 0 443 215" fill="none" xmlns="http://www.w3.org/2000/svg">
<path d="M338.873 203.59C295.364 220.309 237.543 215.034 214.071 210.307C157.968 205.636 77.2471 172.987 44.6155 149.849C11.9838 126.711 -5.16185 90.4228 11.4113 72.9704C24.1696 59.5353 44.6155 52.0713 88.1244 49.4589C151.405 45.6594 236.971 66.626 270.175 69.2384C303.379 71.8508 421.311 71.8508 435.623 86.7787C449.935 101.707 442.493 121.486 421.311 140.146C400.129 158.806 393.259 182.691 338.873 203.59Z" fill="#FCF4EF"/>
<path d="M133.187 93.5466L133.306 50.0271C133.306 48.5358 133.545 47.0445 134.022 45.6887C136.167 39.7234 142.843 22.2342 154.167 4.47395C155.955 1.62688 158.935 0 162.035 0H279.332C279.332 0 311.279 5.69419 349.544 38.0966C351.571 39.859 354.074 40.9436 356.696 41.2148C370.643 42.8417 416.895 49.7559 417.61 73.6171L418.325 73.8883C421.305 75.1084 423.093 78.3622 422.974 82.0227C422.617 88.9371 421.544 99.6474 418.206 101.41C415.226 102.901 407.239 105.342 401.16 107.24C398.656 107.918 396.153 105.748 396.153 102.766V97.7495C396.153 80.3959 383.637 65.7538 368.378 66.1605C353.597 66.4316 341.676 80.2603 341.676 97.0716V106.019C341.676 107.918 340.365 109.409 338.696 109.409H212.697C210.551 109.409 208.882 107.511 208.882 105.07V97.885C208.882 80.5314 196.366 65.8894 181.108 66.2961C166.326 66.5673 154.406 80.3959 154.406 97.2071V105.613C154.406 107.782 152.856 109.409 151.068 109.409H135.571C133.902 109.409 132.234 108.595 131.161 107.104C129.015 104.393 127.108 97.2071 133.187 93.5466Z" fill="#E83D0F"/>
<path d="M154.406 105.748V97.3426C154.406 80.3958 166.326 66.7027 181.108 66.4316C181.584 66.4316 181.942 66.4316 182.419 66.4316L184.088 66.5672C197.915 68.0585 208.882 81.8871 208.882 98.0205V105.206C208.882 107.24 210.074 108.867 211.743 109.409H151.902C153.333 109.138 154.406 107.646 154.406 105.748Z" fill="#5435D6"/>
<path d="M341.677 106.291V97.3428C341.677 80.3959 353.597 66.7029 368.379 66.4317C383.637 66.1606 396.154 80.6671 396.154 98.0207V103.037C396.154 105.206 397.346 106.833 399.014 107.375L338.697 109.68C340.366 109.68 341.677 108.053 341.677 106.291Z" fill="#5435D6"/>
<path d="M368.498 125C381.928 125 392.816 112.617 392.816 97.3427C392.816 82.0681 381.928 69.6855 368.498 69.6855C355.068 69.6855 344.18 82.0681 344.18 97.3427C344.18 112.617 355.068 125 368.498 125Z" fill="#FF8F43"/>
<path d="M368.498 114.832C376.99 114.832 383.875 107.002 383.875 97.3429C383.875 87.6838 376.99 79.8537 368.498 79.8537C360.005 79.8537 353.12 87.6838 353.12 97.3429C353.12 107.002 360.005 114.832 368.498 114.832Z" fill="#5435D6"/>
<path d="M368.497 106.291C372.843 106.291 376.365 102.285 376.365 97.3427C376.365 92.4009 372.843 88.3948 368.497 88.3948C364.152 88.3948 360.63 92.4009 360.63 97.3427C360.63 102.285 364.152 106.291 368.497 106.291Z" fill="#F9AA75"/>
<path d="M181.704 125C195.134 125 206.021 112.617 206.021 97.3427C206.021 82.0681 195.134 69.6855 181.704 69.6855C168.273 69.6855 157.386 82.0681 157.386 97.3427C157.386 112.617 168.273 125 181.704 125Z" fill="#FF8F43"/>
<path d="M181.704 114.832C190.196 114.832 197.081 107.002 197.081 97.3429C197.081 87.6838 190.196 79.8537 181.704 79.8537C173.211 79.8537 166.326 87.6838 166.326 97.3429C166.326 107.002 173.211 114.832 181.704 114.832Z" fill="#5435D6"/>
<path d="M181.703 106.291C186.049 106.291 189.571 102.285 189.571 97.3427C189.571 92.4009 186.049 88.3948 181.703 88.3948C177.358 88.3948 173.836 92.4009 173.836 97.3427C173.836 102.285 177.358 106.291 181.703 106.291Z" fill="#F9AA75"/>
<path d="M197.081 8.2701V36.1985C197.081 38.2321 195.651 39.7234 193.982 39.859L161.677 40.6724C159.532 40.6724 157.982 38.3677 158.578 36.0629L165.73 7.18543C166.088 5.55854 167.399 4.47394 168.829 4.47394H193.982C195.651 4.60951 197.081 6.23648 197.081 8.2701Z" fill="#F9AA75"/>
<path d="M395.796 56.3992C401.16 56.5347 409.624 58.1616 413.081 66.7028C413.677 68.1941 412.604 69.821 411.292 69.6855C406.643 69.4143 397.465 68.0585 393.292 61.9577C391.862 59.6529 393.412 56.3992 395.796 56.3992Z" fill="#F5D1C3"/>
<path d="M419.398 89.0728L418.087 96.3939C417.729 98.4275 416.18 99.9188 414.272 99.9188C412.723 99.9188 411.531 98.6986 411.173 97.0717L409.504 89.0728C409.266 87.717 410.1 86.4968 411.292 86.4968H417.729C418.802 86.4968 419.637 87.717 419.398 89.0728Z" fill="#E83D0F"/>
<path d="M138.79 52.332V65.4827C138.79 67.7875 137.121 69.5499 135.213 69.5499H133.306V50.0272C133.306 49.4849 133.306 48.807 133.425 48.2647H135.213C137.121 48.4003 138.79 50.1628 138.79 52.332Z" fill="#F9AA75"/>
<path d="M340.484 37.2832C329.398 29.8266 306.63 13.422 285.889 5.28749C284.935 4.88077 280.167 4.60962 279.213 4.60962H271.942C269.2 4.60962 266.935 7.18556 266.935 10.3038V34.8428C266.935 37.5543 268.842 39.7235 271.226 39.7235H339.888C341.08 39.7235 341.557 37.9611 340.484 37.2832Z" fill="#F9AA75"/>
<path d="M260.617 9.35475V34.9784C260.617 37.5543 258.71 39.7235 256.445 39.7235H207.69C205.425 39.7235 203.518 37.5543 203.518 34.9784V9.35475C203.518 6.77882 205.425 4.60962 207.69 4.60962H256.445C258.829 4.60962 260.617 6.77882 260.617 9.35475Z" fill="#F9AA75"/>
<path d="M338.696 109.68H212.697C210.551 109.68 208.882 107.782 208.882 105.342V98.1561C208.882 91.5129 206.975 85.1409 203.875 79.989H346.564C343.584 85.0053 341.796 90.9706 341.796 97.4783V106.426C341.676 108.053 340.365 109.68 338.696 109.68Z" fill="#5435D6"/>
<path d="M154.406 97.3427V105.748C154.406 107.918 152.856 109.544 151.068 109.544H135.571C133.902 109.544 132.234 108.731 131.161 107.24C128.896 104.257 126.989 97.0716 133.187 93.5466V79.8536H159.174C156.194 84.8699 154.406 90.8351 154.406 97.3427Z" fill="#5435D6"/>
<path d="M418.206 101.681C415.226 103.172 407.239 105.613 401.16 107.511C398.657 108.189 396.153 106.02 396.153 103.037V98.0206C396.153 91.1063 394.127 84.5987 390.789 79.3113L419.517 74.7018C421.782 76.1931 423.213 79.0402 422.974 82.1584C422.617 89.2083 421.544 99.9187 418.206 101.681Z" fill="#5435D6"/>
<path d="M25.3442 118.357V125.386C26.3486 131.411 38.0664 135.762 53.467 135.427C68.8676 135.092 80.5855 129.737 80.9203 124.047L81.2551 117.688" fill="#FF8F43"/>
<path d="M53.6631 129.393C69.1918 129.094 81.6853 123.908 81.5681 117.81C81.4509 111.711 68.7675 107.008 53.2388 107.307C37.7101 107.605 25.2166 112.791 25.3338 118.889C25.4509 124.988 38.1344 129.691 53.6631 129.393Z" fill="#F9C19B"/>
<path d="M53.6012 125.042C66.3569 124.797 76.6311 121.152 76.5492 116.901C76.4674 112.65 66.0605 109.403 53.3048 109.649C40.549 109.894 30.2749 113.539 30.3567 117.79C30.4386 122.041 40.8455 125.288 53.6012 125.042Z" fill="#FF8F43"/>
<path d="M70.5414 118.357H38.7358C38.0662 118.357 37.7314 118.023 37.7314 117.353C37.7314 116.684 38.0662 116.349 38.7358 116.349H70.5414C71.211 116.349 71.5457 116.684 71.5457 117.353C71.5457 118.023 71.211 118.357 70.5414 118.357Z" fill="#F9C19B"/>
<path d="M62.5065 123.043C62.1717 123.043 61.8368 122.708 61.5021 122.374C61.1673 121.704 61.5021 121.035 61.8369 121.035C62.5065 120.7 64.5153 118.022 63.8457 116.349C63.5109 115.345 62.5065 115.01 60.8325 115.01C57.8194 114.675 56.815 115.68 55.4758 117.353C54.4714 118.692 53.1322 120.031 50.119 121.035C45.7667 122.374 42.7535 121.035 41.7491 119.361C40.7448 117.688 41.0795 115.68 43.0883 114.006C43.4231 113.671 44.0927 113.671 44.7623 114.006C45.0971 114.341 45.0971 115.01 44.7623 115.68C43.7579 116.684 43.4231 117.688 43.7579 118.357C44.4275 119.361 46.4363 120.365 49.4495 119.361C51.7931 118.692 52.7974 117.353 53.8018 116.349C55.141 114.675 56.4802 113.002 60.8325 113.337C64.1805 113.671 65.5197 115.01 65.8545 116.349C66.524 119.027 63.8457 122.708 62.8413 123.378C62.8413 123.043 62.8413 123.043 62.5065 123.043Z" fill="#F9C19B"/>
<path d="M25.3442 109.655V116.684C26.3486 122.708 38.0664 127.059 53.467 126.725C68.8676 126.39 80.5855 121.035 80.9203 115.345L81.2551 108.986" fill="#FF8F43"/>
<path d="M53.6655 120.69C69.1942 120.392 81.6876 115.206 81.5703 109.107C81.453 103.008 68.7694 98.306 53.2407 98.6045C37.712 98.903 25.2186 104.089 25.3359 110.188C25.4532 116.287 38.1368 120.989 53.6655 120.69Z" fill="#F9C19B"/>
<path d="M53.5985 116.006C66.3543 115.759 76.6283 112.114 76.5462 107.863C76.4641 103.612 66.0571 100.366 53.3013 100.612C40.5456 100.858 30.2716 104.504 30.3537 108.755C30.4358 113.005 40.8428 116.252 53.5985 116.006Z" fill="#FF8F43"/>
<path d="M70.5414 109.655H38.7358C38.0662 109.655 37.7314 109.32 37.7314 108.651C37.7314 107.981 38.0662 107.647 38.7358 107.647H70.5414C71.211 107.647 71.5457 107.981 71.5457 108.651C71.5457 109.32 71.211 109.655 70.5414 109.655Z" fill="#F9C19B"/>
<path d="M62.5065 114.341C62.1717 114.341 61.8368 114.006 61.5021 113.671C61.1673 113.002 61.5021 112.333 61.8369 112.333C62.5065 111.998 64.5153 109.32 63.8457 107.647C63.5109 106.643 62.5065 106.308 60.8325 106.308C57.8194 105.973 56.815 106.977 55.4758 108.651C54.4714 109.99 53.1322 111.328 50.119 112.333C45.7667 113.671 42.7535 112.333 41.7491 110.659C40.7448 108.986 41.0795 106.977 43.0883 105.304C43.4231 104.969 44.0927 104.969 44.7623 105.304C45.0971 105.639 45.0971 106.308 44.7623 106.977C43.7579 107.981 43.4231 108.986 43.7579 109.655C44.4275 110.659 46.4363 111.663 49.4495 110.659C51.7931 109.99 52.7974 108.651 53.8018 107.647C55.141 105.973 56.4802 104.3 60.8325 104.634C64.1805 104.969 65.5197 106.308 65.8545 107.647C66.524 110.324 63.8457 114.006 62.8413 114.675C62.8413 114.341 62.8413 114.341 62.5065 114.341Z" fill="#F9C19B"/>
<path d="M27.688 100.953V107.981C28.6924 114.006 40.4102 118.357 55.8108 118.022C71.2114 117.688 82.9292 112.333 83.264 106.643L83.5988 100.283" fill="#FF8F43"/>
<path d="M55.6704 111.659C71.1991 111.36 83.6925 106.174 83.5752 100.075C83.4579 93.9763 70.7743 89.2741 55.2456 89.5726C39.7169 89.8711 27.2235 95.0572 27.3408 101.156C27.4581 107.255 40.1417 111.957 55.6704 111.659Z" fill="#F9C19B"/>
<path d="M55.6082 107.308C68.3639 107.062 78.6381 103.417 78.5562 99.1666C78.4742 94.9159 68.0673 91.6692 55.3116 91.9149C42.5559 92.1605 32.2817 95.8056 32.3636 100.056C32.4456 104.307 42.8525 107.554 55.6082 107.308Z" fill="#FF8F43"/>
<path d="M72.8852 100.953H41.0796C40.4101 100.953 40.0752 100.618 40.0752 99.9486C40.0752 99.2792 40.4101 98.9445 41.0796 98.9445H72.8852C73.5548 98.9445 73.8896 99.2792 73.8896 99.9486C73.8896 100.283 73.22 100.953 72.8852 100.953Z" fill="#F9C19B"/>
<path d="M64.8502 105.639C64.5154 105.639 64.1806 105.304 63.8458 104.969C63.511 104.3 63.8458 103.63 64.1806 103.63C64.8502 103.296 66.859 100.618 66.1894 98.9445C65.8546 97.9403 64.8502 97.6056 63.1762 97.6056C60.163 97.2709 59.1587 98.275 57.8195 99.9485C56.8151 101.287 55.4759 102.626 52.4628 103.63C48.1104 104.969 45.0973 103.63 44.0929 101.957C43.0885 100.283 43.4233 98.275 45.4321 96.6015C45.7668 96.2668 46.4364 96.2668 47.106 96.6015C47.4408 96.9362 47.4408 97.6056 47.106 98.275C46.1016 99.2791 45.7669 100.283 46.1017 100.953C46.7713 101.957 48.78 102.961 51.7931 101.957C54.1367 101.287 55.1412 99.9486 56.1456 98.9445C57.4847 97.2709 58.8238 95.5974 63.1762 95.9321C66.5241 96.2668 67.8633 97.6056 68.1981 98.9445C68.8677 101.622 66.1894 105.304 65.185 105.973C65.185 105.304 64.8502 105.639 64.8502 105.639Z" fill="#F9C19B"/>
<path d="M25.3442 91.9157V98.9444C26.3486 104.969 38.0664 109.32 53.467 108.986C68.8676 108.651 80.5855 103.296 80.9203 97.6056L81.2551 91.2463" fill="#FF8F43"/>
<path d="M53.6638 102.951C69.1925 102.653 81.6859 97.4671 81.5687 91.3682C81.4515 85.2693 68.768 80.567 53.2393 80.8654C37.7106 81.1637 25.2171 86.3496 25.3343 92.4485C25.4516 98.5474 38.1351 103.25 53.6638 102.951Z" fill="#F9C19B"/>
<path d="M53.6014 98.6009C66.3571 98.3552 76.6313 94.7101 76.5493 90.4594C76.4674 86.2087 66.0605 82.9619 53.3047 83.2076C40.549 83.4533 30.2749 87.0984 30.3568 91.3492C30.4388 95.5999 40.8457 98.8466 53.6014 98.6009Z" fill="#FF8F43"/>
<path d="M70.5414 91.9157H38.7358C38.0662 91.9157 37.7314 91.581 37.7314 90.9116C37.7314 90.2422 38.0662 89.9075 38.7358 89.9075H70.5414C71.211 89.9075 71.5457 90.2422 71.5457 90.9116C71.5457 91.581 71.211 91.9157 70.5414 91.9157Z" fill="#F9C19B"/>
<path d="M62.5065 96.6015C62.1717 96.6015 61.8368 96.2668 61.5021 95.9321C61.1673 95.2627 61.5021 94.5933 61.8369 94.5933C62.5065 94.2586 64.5153 91.581 63.8457 89.9075C63.5109 88.9034 62.5065 88.5687 60.8325 88.5687C57.8194 88.234 56.815 89.2381 55.4758 90.9116C54.4714 92.2504 53.1322 93.5892 50.119 94.5933C45.7667 95.9321 42.7535 94.5933 41.7491 92.9198C40.7448 91.2463 41.0795 89.2381 43.0883 87.5646C43.4231 87.2299 44.0927 87.2299 44.7623 87.5646C45.0971 87.8993 45.0971 88.5687 44.7623 89.2381C43.7579 90.2422 43.4231 91.2463 43.7579 91.9157C44.4275 92.9198 46.4363 93.9239 49.4495 92.9198C51.7931 92.2504 52.7974 90.9116 53.8018 89.9075C55.141 88.234 56.4802 86.5605 60.8325 86.8952C64.1805 87.2299 65.5197 88.5687 65.8545 89.9075C66.524 92.5851 63.8457 96.2669 62.8413 96.9363C62.8413 96.6016 62.8413 96.6015 62.5065 96.6015Z" fill="#F9C19B"/>
<path d="M23.001 83.2134V90.2422C24.0054 96.2668 35.7233 100.618 51.1239 100.283C66.5245 99.9486 78.2423 94.5933 78.5771 88.9034L78.9119 82.544" fill="#FF8F43"/>
<path d="M51.3218 94.2506C66.8505 93.9524 79.344 88.7666 79.2269 82.6677C79.1097 76.5688 66.4263 71.8665 50.8976 72.1646C35.3689 72.4628 22.8753 77.6486 22.9924 83.7474C23.1096 89.8463 35.7931 94.5487 51.3218 94.2506Z" fill="#F9C19B"/>
<path d="M51.2539 89.5654C64.0096 89.3197 74.2837 85.6746 74.2018 81.4239C74.1199 77.1731 63.7129 73.9264 50.9572 74.1721C38.2015 74.4178 27.9273 78.0629 28.0092 82.3136C28.0911 86.5644 38.4981 89.8111 51.2539 89.5654Z" fill="#FF8F43"/>
<path d="M122.77 133.084V140.113C123.774 146.138 135.492 150.489 150.893 150.154C166.293 149.819 178.011 144.464 178.346 138.774L178.681 132.415" fill="#FF8F43"/>
<path d="M151.086 143.787C166.615 143.489 179.109 138.303 178.991 132.204C178.874 126.105 166.191 121.403 150.662 121.701C135.133 121.999 122.64 127.185 122.757 133.284C122.874 139.383 135.558 144.085 151.086 143.787Z" fill="#F9C19B"/>
<path d="M151.024 139.436C163.78 139.191 174.054 135.547 173.972 131.296C173.891 127.045 163.484 123.798 150.728 124.043C137.972 124.288 127.698 127.933 127.78 132.184C127.862 136.435 138.268 139.682 151.024 139.436Z" fill="#FF8F43"/>
<path d="M167.967 132.749H136.162C135.492 132.749 135.157 132.415 135.157 131.745C135.157 131.076 135.492 130.741 136.162 130.741H167.967C168.637 130.741 168.972 131.076 168.972 131.745C169.306 132.415 168.637 132.749 167.967 132.749Z" fill="#F9C19B"/>
<path d="M159.932 137.435C159.597 137.435 159.262 137.101 158.927 136.766C158.593 136.096 158.927 135.427 159.262 135.427C159.932 135.092 161.941 132.415 161.271 130.741C160.936 129.737 159.932 129.402 158.258 129.402C155.245 129.068 154.24 130.072 152.901 131.745C151.897 133.084 150.557 134.423 147.544 135.427C143.192 136.766 140.179 135.427 139.174 133.754C138.17 132.08 138.505 130.072 140.514 128.398C140.848 128.064 141.518 128.064 142.188 128.398C142.522 128.733 142.522 129.402 142.188 130.072C141.183 131.076 140.848 132.08 141.183 132.749C141.853 133.754 143.862 134.758 146.875 133.754C149.218 133.084 150.223 131.745 151.227 130.741C152.566 129.068 153.905 127.394 158.258 127.729C161.606 128.064 162.945 129.402 163.28 130.741C163.949 133.419 161.271 137.101 160.266 137.77C160.266 137.435 160.267 137.435 159.932 137.435Z" fill="#F9C19B"/>
<path d="M122.77 124.047V131.076C123.774 137.101 135.492 141.452 150.893 141.117C166.293 140.782 178.011 135.427 178.346 129.737L178.681 123.378" fill="#FF8F43"/>
<path d="M151.09 135.085C166.619 134.787 179.112 129.601 178.995 123.502C178.877 117.403 166.194 112.701 150.665 112.999C135.136 113.298 122.643 118.484 122.76 124.583C122.878 130.681 135.561 135.384 151.09 135.085Z" fill="#F9C19B"/>
<path d="M151.021 130.4C163.777 130.154 174.051 126.509 173.969 122.259C173.887 118.008 163.48 114.761 150.725 115.007C137.969 115.252 127.695 118.897 127.777 123.148C127.858 127.399 138.265 130.645 151.021 130.4Z" fill="#FF8F43"/>
<path d="M167.967 124.047H136.162C135.492 124.047 135.157 123.712 135.157 123.043C135.157 122.374 135.492 122.039 136.162 122.039H167.967C168.637 122.039 168.972 122.374 168.972 123.043C169.306 123.712 168.637 124.047 167.967 124.047Z" fill="#F9C19B"/>
<path d="M159.932 128.733C159.597 128.733 159.262 128.398 158.927 128.064C158.593 127.394 158.927 126.725 159.262 126.725C159.932 126.39 161.941 123.712 161.271 122.039C160.936 121.035 159.932 120.7 158.258 120.7C155.245 120.365 154.24 121.37 152.901 123.043C151.897 124.382 150.557 125.721 147.544 126.725C143.192 128.064 140.179 126.725 139.174 125.051C138.17 123.378 138.505 121.37 140.514 119.696C140.848 119.361 141.518 119.361 142.188 119.696C142.522 120.031 142.522 120.7 142.188 121.37C141.183 122.374 140.848 123.378 141.183 124.047C141.853 125.051 143.862 126.055 146.875 125.051C149.218 124.382 150.223 123.043 151.227 122.039C152.566 120.365 153.905 118.692 158.258 119.027C161.606 119.361 162.945 120.7 163.28 122.039C163.949 124.717 161.271 128.398 160.266 129.068C160.266 128.733 160.267 128.733 159.932 128.733Z" fill="#F9C19B"/>
<path d="M122.77 115.345V122.374C123.774 128.398 135.492 132.749 150.893 132.415C166.293 132.08 178.011 126.725 178.346 121.035L178.681 114.675" fill="#FF8F43"/>
<path d="M151.085 126.048C166.614 125.75 179.107 120.564 178.99 114.465C178.873 108.366 166.189 103.664 150.661 103.962C135.132 104.26 122.638 109.446 122.756 115.545C122.873 121.644 135.556 126.346 151.085 126.048Z" fill="#F9C19B"/>
<path d="M151.023 121.698C163.778 121.452 174.053 117.807 173.971 113.557C173.889 109.306 163.482 106.059 150.726 106.304C137.97 106.55 127.696 110.195 127.778 114.446C127.86 118.696 138.267 121.943 151.023 121.698Z" fill="#FF8F43"/>
<path d="M167.967 115.345H136.162C135.492 115.345 135.157 115.01 135.157 114.341C135.157 113.671 135.492 113.337 136.162 113.337H167.967C168.637 113.337 168.972 113.671 168.972 114.341C169.306 114.675 168.637 115.345 167.967 115.345Z" fill="#F9C19B"/>
<path d="M159.932 120.031C159.597 120.031 159.262 119.696 158.927 119.361C158.593 118.692 158.927 118.022 159.262 118.022C159.932 117.688 161.941 115.01 161.271 113.337C160.936 112.333 159.932 111.998 158.258 111.998C155.245 111.663 154.24 112.667 152.901 114.341C151.897 115.68 150.557 117.018 147.544 118.022C143.192 119.361 140.179 118.022 139.174 116.349C138.17 114.675 138.505 112.667 140.514 110.994C140.848 110.659 141.518 110.659 142.188 110.994C142.522 111.328 142.522 111.998 142.188 112.667C141.183 113.671 140.848 114.675 141.183 115.345C141.853 116.349 143.862 117.353 146.875 116.349C149.218 115.68 150.223 114.341 151.227 113.337C152.566 111.663 153.905 109.99 158.258 110.324C161.606 110.659 162.945 111.998 163.28 113.337C163.949 116.014 161.271 119.696 160.266 120.365C160.266 119.696 160.267 120.031 159.932 120.031Z" fill="#F9C19B"/>
<path d="M122.77 106.643V113.671C123.774 119.696 135.492 124.047 150.893 123.712C166.293 123.378 178.011 118.023 178.346 112.333L178.681 105.973" fill="#FF8F43"/>
<path d="M151.087 117.346C166.616 117.048 179.109 111.862 178.992 105.763C178.875 99.6639 166.191 94.9616 150.663 95.2598C135.134 95.558 122.64 100.744 122.758 106.843C122.875 112.942 135.558 117.644 151.087 117.346Z" fill="#F9C19B"/>
<path d="M151.025 112.995C163.781 112.75 174.055 109.105 173.973 104.854C173.891 100.604 163.484 97.3567 150.729 97.6022C137.973 97.8478 127.699 101.493 127.781 105.743C127.862 109.994 138.269 113.241 151.025 112.995Z" fill="#FF8F43"/>
<path d="M167.967 106.308H136.162C135.492 106.308 135.157 105.973 135.157 105.304C135.157 104.634 135.492 104.3 136.162 104.3H167.967C168.637 104.3 168.972 104.634 168.972 105.304C169.306 105.973 168.637 106.308 167.967 106.308Z" fill="#F9C19B"/>
<path d="M159.932 110.994C159.597 110.994 159.262 110.659 158.927 110.324C158.593 109.655 158.927 108.986 159.262 108.986C159.932 108.651 161.941 105.973 161.271 104.3C160.936 103.296 159.932 102.961 158.258 102.961C155.245 102.626 154.24 103.63 152.901 105.304C151.897 106.643 150.557 107.981 147.544 108.986C143.192 110.324 140.179 108.986 139.174 107.312C138.17 105.638 138.505 103.63 140.514 101.957C140.848 101.622 141.518 101.622 142.188 101.957C142.522 102.291 142.522 102.961 142.188 103.63C141.183 104.634 140.848 105.638 141.183 106.308C141.853 107.312 143.862 108.316 146.875 107.312C149.218 106.643 150.223 105.304 151.227 104.3C152.566 102.626 153.905 100.953 158.258 101.287C161.606 101.622 162.945 102.961 163.28 104.3C163.949 106.977 161.271 110.659 160.266 111.328C160.266 110.994 160.267 110.994 159.932 110.994Z" fill="#F9C19B"/>
<path d="M122.77 97.6056V104.634C123.774 110.659 135.492 115.01 150.893 114.675C166.293 114.341 178.011 108.986 178.346 103.296L178.681 96.9362" fill="#FF8F43"/>
<path d="M151.089 108.644C166.618 108.346 179.111 103.16 178.994 97.0608C178.877 90.9619 166.193 86.2596 150.665 86.558C135.136 86.8563 122.642 92.0423 122.76 98.1412C122.877 104.24 135.56 108.942 151.089 108.644Z" fill="#F9C19B"/>
<path d="M151.021 103.959C163.777 103.713 174.051 100.068 173.969 95.8176C173.887 91.5669 163.48 88.3199 150.725 88.5653C137.969 88.8107 127.695 92.4555 127.777 96.7062C127.858 100.957 138.265 104.204 151.021 103.959Z" fill="#FF8F43"/>
<path d="M167.967 97.6056H136.162C135.492 97.6056 135.157 97.2709 135.157 96.6015C135.157 95.9321 135.492 95.5974 136.162 95.5974H167.967C168.637 95.5974 168.972 95.9321 168.972 96.6015C169.306 97.2709 168.637 97.6056 167.967 97.6056Z" fill="#F9C19B"/>
<path d="M159.932 102.291C159.597 102.291 159.262 101.957 158.927 101.622C158.593 100.953 158.927 100.283 159.262 100.283C159.932 99.9485 161.941 97.2709 161.271 95.5974C160.936 94.5933 159.932 94.2586 158.258 94.2586C155.245 93.9239 154.24 94.928 152.901 96.6015C151.897 97.9403 150.557 99.2791 147.544 100.283C143.192 101.622 140.179 100.283 139.174 98.6097C138.17 96.9362 138.505 94.928 140.514 93.2545C140.848 92.9198 141.518 92.9198 142.188 93.2545C142.522 93.5892 142.522 94.2586 142.188 94.928C141.183 95.9321 140.848 96.9362 141.183 97.6056C141.853 98.6097 143.862 99.6138 146.875 98.6097C149.218 97.9403 150.223 96.6015 151.227 95.5974C152.566 93.9239 153.905 92.2504 158.258 92.5851C161.606 92.9198 162.945 94.2586 163.28 95.5974C163.949 98.275 161.271 101.957 160.266 102.626C160.266 102.291 160.267 102.291 159.932 102.291Z" fill="#F9C19B"/>
<path d="M122.77 88.9034V95.9321C123.774 101.957 135.492 106.308 150.893 105.973C166.293 105.639 178.011 100.283 178.346 94.5933L178.681 88.2339" fill="#FF8F43"/>
<path d="M151.085 99.6068C166.614 99.3086 179.107 94.1228 178.99 88.0239C178.873 81.9251 166.189 77.2226 150.661 77.5208C135.132 77.819 122.638 83.0048 122.756 89.1037C122.873 95.2025 135.556 99.9049 151.085 99.6068Z" fill="#F9C19B"/>
<path d="M151.022 95.2566C163.778 95.0113 174.052 91.3664 173.971 87.1157C173.889 82.865 163.482 79.618 150.726 79.8633C137.97 80.1087 127.696 83.7535 127.778 88.0042C127.86 92.2549 138.267 95.5019 151.022 95.2566Z" fill="#FF8F43"/>
<path d="M167.967 88.9034H136.162C135.492 88.9034 135.157 88.5686 135.157 87.8992C135.157 87.2298 135.492 86.8951 136.162 86.8951H167.967C168.637 86.8951 168.972 87.2298 168.972 87.8992C169.306 88.2339 168.637 88.9034 167.967 88.9034Z" fill="#F9C19B"/>
<path d="M159.932 93.5892C159.597 93.5892 159.262 93.2545 158.927 92.9198C158.593 92.2504 158.927 91.5809 159.262 91.5809C159.932 91.2462 161.941 88.5686 161.271 86.8951C160.936 85.891 159.932 85.5563 158.258 85.5563C155.245 85.2216 154.24 86.2257 152.901 87.8992C151.897 89.238 150.557 90.5768 147.544 91.5809C143.192 92.9198 140.179 91.5809 139.174 89.9074C138.17 88.2339 138.505 86.2257 140.514 84.5522C140.848 84.2175 141.518 84.2175 142.188 84.5522C142.522 84.8869 142.522 85.5563 142.188 86.2257C141.183 87.2298 140.848 88.2339 141.183 88.9033C141.853 89.9074 143.862 90.9115 146.875 89.9074C149.218 89.238 150.223 87.8992 151.227 86.8951C152.566 85.2216 153.905 83.5481 158.258 83.8828C161.606 84.2175 162.945 85.5563 163.28 86.8951C163.949 89.5727 161.271 93.2545 160.266 93.9239C160.266 93.2545 160.267 93.5892 159.932 93.5892Z" fill="#F9C19B"/>
<path d="M122.77 80.2011V87.2298C123.774 93.2545 135.492 97.6056 150.893 97.2709C166.293 96.9362 178.011 91.581 178.346 85.891L178.681 79.5317" fill="#FF8F43"/>
<path d="M151.087 90.9047C166.616 90.6064 179.109 85.4204 178.992 79.3215C178.875 73.2227 166.191 68.5204 150.663 68.8187C135.134 69.1171 122.64 74.303 122.758 80.4019C122.875 86.5007 135.558 91.203 151.087 90.9047Z" fill="#F9C19B"/>
<path d="M151.025 86.5542C163.781 86.3087 174.055 82.6638 173.973 78.413C173.891 74.1623 163.484 70.9154 150.729 71.1609C137.973 71.4064 127.699 75.0514 127.781 79.3021C127.862 83.5528 138.269 86.7997 151.025 86.5542Z" fill="#FF8F43"/>
<path d="M167.967 79.8664H136.162C135.492 79.8664 135.157 79.5317 135.157 78.8623C135.157 78.1929 135.492 77.8582 136.162 77.8582H167.967C168.637 77.8582 168.972 78.1929 168.972 78.8623C169.306 79.5317 168.637 79.8664 167.967 79.8664Z" fill="#F9C19B"/>
<path d="M159.932 84.5522C159.597 84.5522 159.262 84.2175 158.927 83.8828C158.593 83.2134 158.927 82.544 159.262 82.544C159.932 82.2093 161.941 79.5317 161.271 77.8581C160.936 76.854 159.932 76.5193 158.258 76.5193C155.245 76.1846 154.24 77.1887 152.901 78.8623C151.897 80.2011 150.557 81.5399 147.544 82.544C143.192 83.8828 140.179 82.544 139.174 80.8705C138.17 79.197 138.505 77.1887 140.514 75.5152C140.848 75.1805 141.518 75.1805 142.188 75.5152C142.522 75.8499 142.522 76.5193 142.188 77.1887C141.183 78.1929 140.848 79.197 141.183 79.8664C141.853 80.8705 143.862 81.8746 146.875 80.8705C149.218 80.2011 150.223 78.8623 151.227 77.8581C152.566 76.1846 153.905 74.5111 158.258 74.8458C161.606 75.1805 162.945 76.5193 163.28 77.8581C163.949 80.5358 161.271 84.2175 160.266 84.8869C160.266 84.5522 160.267 84.5522 159.932 84.5522Z" fill="#F9C19B"/>
<path d="M122.77 71.1641V78.1928C123.774 84.2175 135.492 88.5686 150.893 88.2339C166.293 87.8992 178.011 82.544 178.346 76.854L178.681 70.4947" fill="#FF8F43"/>
<path d="M151.089 82.2027C166.618 81.9046 179.111 76.7187 178.994 70.6199C178.877 64.521 166.193 59.8186 150.665 60.1168C135.136 60.4149 122.642 65.6007 122.76 71.6996C122.877 77.7985 135.56 82.5009 151.089 82.2027Z" fill="#F9C19B"/>
<path d="M151.022 77.5176C163.778 77.2719 174.052 73.6268 173.97 69.3761C173.888 65.1253 163.481 61.8786 150.725 62.1243C137.969 62.37 127.695 66.0151 127.777 70.2658C127.859 74.5166 138.266 77.7633 151.022 77.5176Z" fill="#FF8F43"/>
<path d="M167.967 71.1641H136.162C135.492 71.1641 135.157 70.8294 135.157 70.16C135.157 69.4906 135.492 69.1559 136.162 69.1559H167.967C168.637 69.1559 168.972 69.4906 168.972 70.16C169.306 70.8294 168.637 71.1641 167.967 71.1641Z" fill="#F9C19B"/>
<path d="M159.932 75.8499C159.597 75.8499 159.262 75.5152 158.927 75.1805C158.593 74.5111 158.927 73.8417 159.262 73.8417C159.932 73.507 161.941 70.8294 161.271 69.1559C160.936 68.1518 159.932 67.8171 158.258 67.8171C155.245 67.4824 154.24 68.4865 152.901 70.16C151.897 71.4988 150.557 72.8376 147.544 73.8417C143.192 75.1805 140.179 73.8417 139.174 72.1682C138.17 70.4947 138.505 68.4865 140.514 66.813C140.848 66.4783 141.518 66.4783 142.188 66.813C142.522 67.1477 142.522 67.8171 142.188 68.4865C141.183 69.4906 140.848 70.4947 141.183 71.1641C141.853 72.1682 143.862 73.1723 146.875 72.1682C149.218 71.4988 150.223 70.16 151.227 69.1559C152.566 67.4824 153.905 65.8088 158.258 66.1435C161.606 66.4782 162.945 67.8171 163.28 69.1559C163.949 71.8335 161.271 75.5152 160.266 76.1846C160.266 75.8499 160.267 75.8499 159.932 75.8499Z" fill="#F9C19B"/>
<path d="M122.77 62.4619V69.4906C123.774 75.5153 135.492 79.8664 150.893 79.5317C166.293 79.197 178.011 73.8418 178.346 68.1518L178.681 61.7925" fill="#FF8F43"/>
<path d="M151.086 73.1661C166.615 72.8677 179.108 67.6816 178.991 61.5827C178.873 55.4838 166.19 50.7817 150.661 51.0802C135.132 51.3786 122.639 56.5647 122.756 62.6636C122.874 68.7625 135.557 73.4646 151.086 73.1661Z" fill="#F9C19B"/>
<path d="M151.024 68.8154C163.78 68.5697 174.054 64.9246 173.972 60.6739C173.89 56.4231 163.483 53.1764 150.728 53.4221C137.972 53.6678 127.698 57.3129 127.78 61.5636C127.862 65.8144 138.269 69.0611 151.024 68.8154Z" fill="#FF8F43"/>
<path d="M167.967 62.4618H136.162C135.492 62.4618 135.157 62.1271 135.157 61.4577C135.157 60.7883 135.492 60.4536 136.162 60.4536H167.967C168.637 60.4536 168.972 60.7883 168.972 61.4577C169.306 61.7924 168.637 62.4618 167.967 62.4618Z" fill="#F9C19B"/>
<path d="M159.932 67.1477C159.597 67.1477 159.262 66.8129 158.927 66.4782C158.593 65.8088 158.927 65.1394 159.262 65.1394C159.932 64.8047 161.941 62.1271 161.271 60.4536C160.936 59.4495 159.932 59.1148 158.258 59.1148C155.245 58.7801 154.24 59.7842 152.901 61.4577C151.897 62.7965 150.557 64.1353 147.544 65.1394C143.192 66.4783 140.179 65.1394 139.174 63.4659C138.17 61.7924 138.505 59.7842 140.514 58.1107C140.848 57.776 141.518 57.776 142.188 58.1107C142.522 58.4454 142.522 59.1148 142.188 59.7842C141.183 60.7883 140.848 61.7924 141.183 62.4618C141.853 63.4659 143.862 64.47 146.875 63.4659C149.218 62.7965 150.223 61.4577 151.227 60.4536C152.566 58.7801 153.905 57.1066 158.258 57.4413C161.606 57.776 162.945 59.1148 163.28 60.4536C163.949 63.1312 161.271 66.8129 160.266 67.4823C160.266 66.8129 160.267 67.1477 159.932 67.1477Z" fill="#F9C19B"/>
<path d="M122.77 53.4249V60.4536C123.774 66.4783 135.492 70.8294 150.893 70.4947C166.293 70.16 178.011 64.8047 178.346 59.1148L178.681 52.7554" fill="#FF8F43"/>
<path d="M151.087 64.4637C166.616 64.1653 179.109 58.9793 178.992 52.8805C178.875 46.7816 166.191 42.0793 150.663 42.3777C135.134 42.676 122.64 47.862 122.758 53.9609C122.875 60.0598 135.558 64.762 151.087 64.4637Z" fill="#F9C19B"/>
<path d="M151.026 60.1134C163.782 59.8675 174.056 56.2223 173.974 51.9716C173.892 47.7208 163.485 44.4742 150.729 44.7201C137.973 44.966 127.699 48.6112 127.781 52.8619C127.863 57.1127 138.27 60.3593 151.026 60.1134Z" fill="#FF8F43"/>
<path d="M75.564 143.795V150.823C76.5684 156.848 88.2862 161.199 103.687 160.865C119.087 160.53 130.805 155.175 131.14 149.485L131.475 143.125" fill="#FF8F43"/>
<path d="M103.548 154.835C119.077 154.536 131.571 149.35 131.453 143.251C131.336 137.152 118.652 132.45 103.124 132.749C87.5948 133.047 75.1014 138.233 75.2187 144.332C75.336 150.431 88.0196 155.133 103.548 154.835Z" fill="#F9C19B"/>
<path d="M103.485 150.484C116.241 150.239 126.515 146.594 126.433 142.344C126.352 138.093 115.945 134.846 103.189 135.091C90.4333 135.336 80.159 138.981 80.2408 143.231C80.3225 147.482 90.7294 150.729 103.485 150.484Z" fill="#FF8F43"/>
<path d="M120.761 143.795H88.9555C88.2859 143.795 87.9512 143.46 87.9512 142.791C87.9512 142.121 88.2859 141.786 88.9555 141.786H120.761C121.431 141.786 121.765 142.121 121.765 142.791C121.765 143.46 121.096 143.795 120.761 143.795Z" fill="#F9C19B"/>
<path d="M112.726 148.48C112.391 148.48 112.056 148.146 111.721 147.811C111.387 147.142 111.721 146.472 112.056 146.472C112.726 146.138 114.735 143.46 114.065 141.786C113.73 140.782 112.726 140.448 111.052 140.448C108.039 140.113 107.034 141.117 105.695 142.791C104.691 144.129 103.351 145.468 100.338 146.472C95.9859 147.811 92.9728 146.472 91.9684 144.799C90.964 143.125 91.2988 141.117 93.3075 139.443C93.6423 139.109 94.3119 139.109 94.9815 139.443C95.3163 139.778 95.3163 140.448 94.9815 141.117C93.9771 142.121 93.6424 143.125 93.9772 143.795C94.6468 144.799 96.6556 145.803 99.6687 144.799C102.012 144.129 103.017 142.791 104.021 141.786C105.36 140.113 106.699 138.439 111.052 138.774C114.4 139.109 115.739 140.448 116.074 141.786C116.743 144.464 114.065 148.146 113.061 148.815C113.061 148.48 112.726 148.48 112.726 148.48Z" fill="#F9C19B"/>
<path d="M75.564 135.092V142.121C76.5684 148.146 88.2862 152.497 103.687 152.162C119.087 151.828 130.805 146.472 131.14 140.782L131.475 134.423" fill="#FF8F43"/>
<path d="M103.544 145.798C119.073 145.499 131.566 140.313 131.449 134.215C131.332 128.116 118.648 123.414 103.119 123.712C87.5904 124.01 75.097 129.197 75.2143 135.295C75.3316 141.394 88.0152 146.096 103.544 145.798Z" fill="#F9C19B"/>
<path d="M103.481 141.447C116.236 141.202 126.511 137.558 126.429 133.307C126.347 129.056 115.94 125.809 103.185 126.054C90.4289 126.299 80.1547 129.944 80.2364 134.195C80.3182 138.446 90.725 141.693 103.481 141.447Z" fill="#FF8F43"/>
<path d="M120.761 135.092H88.9555C88.2859 135.092 87.9512 134.758 87.9512 134.088C87.9512 133.419 88.2859 133.084 88.9555 133.084H120.761C121.431 133.084 121.765 133.419 121.765 134.088C121.765 134.423 121.096 135.092 120.761 135.092Z" fill="#F9C19B"/>
<path d="M112.726 139.778C112.391 139.778 112.056 139.443 111.721 139.109C111.387 138.439 111.721 137.77 112.056 137.77C112.726 137.435 114.735 134.758 114.065 133.084C113.73 132.08 112.726 131.745 111.052 131.745C108.039 131.411 107.034 132.415 105.695 134.088C104.691 135.427 103.351 136.766 100.338 137.77C95.9859 139.109 92.9728 137.77 91.9684 136.096C90.964 134.423 91.2988 132.415 93.3075 130.741C93.6423 130.406 94.3119 130.406 94.9815 130.741C95.3163 131.076 95.3163 131.745 94.9815 132.415C93.9771 133.419 93.6424 134.423 93.9772 135.092C94.6468 136.096 96.6556 137.101 99.6687 136.096C102.012 135.427 103.017 134.088 104.021 133.084C105.36 131.411 106.699 129.737 111.052 130.072C114.4 130.406 115.739 131.745 116.074 133.084C116.743 135.762 114.065 139.443 113.061 140.113C113.061 139.778 112.726 139.778 112.726 139.778Z" fill="#F9C19B"/>
<path d="M75.564 126.39V133.419C76.5684 139.443 88.2862 143.795 103.687 143.46C119.087 143.125 130.805 137.77 131.14 132.08L131.475 125.721" fill="#FF8F43"/>
<path d="M103.546 137.096C119.075 136.797 131.568 131.611 131.451 125.512C131.333 119.413 118.65 114.711 103.121 115.01C87.5924 115.308 75.099 120.494 75.2163 126.593C75.3336 132.692 88.0171 137.394 103.546 137.096Z" fill="#F9C19B"/>
<path d="M103.483 132.745C116.238 132.5 126.513 128.855 126.431 124.605C126.349 120.354 115.942 117.107 103.187 117.352C90.4309 117.597 80.1566 121.242 80.2384 125.493C80.3201 129.743 90.727 132.99 103.483 132.745Z" fill="#FF8F43"/>
<path d="M120.761 126.39H88.9555C88.2859 126.39 87.9512 126.055 87.9512 125.386C87.9512 124.717 88.2859 124.382 88.9555 124.382H120.761C121.431 124.382 121.765 124.717 121.765 125.386C121.765 125.721 121.096 126.39 120.761 126.39Z" fill="#F9C19B"/>
<path d="M112.726 130.741C112.391 130.741 112.056 130.407 111.721 130.072C111.387 129.402 111.721 128.733 112.056 128.733C112.726 128.398 114.735 125.721 114.065 124.047C113.73 123.043 112.726 122.708 111.052 122.708C108.039 122.374 107.034 123.378 105.695 125.051C104.691 126.39 103.351 127.729 100.338 128.733C95.9859 130.072 92.9728 128.733 91.9684 127.06C90.964 125.386 91.2988 123.378 93.3075 121.704C93.6423 121.37 94.3119 121.37 94.9815 121.704C95.3163 122.039 95.3163 122.708 94.9815 123.378C93.9771 124.382 93.6424 125.386 93.9772 126.055C94.6468 127.059 96.6556 128.064 99.6687 127.06C102.012 126.39 103.017 125.051 104.021 124.047C105.36 122.374 106.699 120.7 111.052 121.035C114.4 121.37 115.739 122.708 116.074 124.047C116.743 126.725 114.065 130.407 113.061 131.076C113.061 130.741 112.726 130.741 112.726 130.741Z" fill="#F9C19B"/>
<path d="M75.564 117.353V124.382C76.5684 130.407 88.2862 134.758 103.687 134.423C119.087 134.088 130.805 128.733 131.14 123.043L131.475 116.684" fill="#FF8F43"/>
<path d="M103.548 128.394C119.077 128.095 131.57 122.91 131.453 116.811C131.336 110.712 118.652 106.009 103.124 106.308C87.5948 106.606 75.1013 111.792 75.2185 117.891C75.3357 123.989 88.0192 128.692 103.548 128.394Z" fill="#F9C19B"/>
<path d="M103.487 124.043C116.243 123.797 126.517 120.152 126.435 115.902C126.353 111.651 115.946 108.404 103.19 108.65C90.4343 108.896 80.1602 112.541 80.2422 116.792C80.3242 121.043 90.7311 124.289 103.487 124.043Z" fill="#FF8F43"/>
<path d="M120.761 117.353H88.9555C88.2859 117.353 87.9512 117.018 87.9512 116.349C87.9512 115.68 88.2859 115.345 88.9555 115.345H120.761C121.431 115.345 121.765 115.68 121.765 116.349C121.765 117.018 121.096 117.353 120.761 117.353Z" fill="#F9C19B"/>
<path d="M112.726 122.039C112.391 122.039 112.056 121.704 111.721 121.37C111.387 120.7 111.721 120.031 112.056 120.031C112.726 119.696 114.735 117.018 114.065 115.345C113.73 114.341 112.726 114.006 111.052 114.006C108.039 113.671 107.034 114.675 105.695 116.349C104.691 117.688 103.351 119.027 100.338 120.031C95.9859 121.37 92.9728 120.031 91.9684 118.357C90.964 116.684 91.2988 114.675 93.3075 113.002C93.6423 112.667 94.3119 112.667 94.9815 113.002C95.3163 113.337 95.3163 114.006 94.9815 114.675C93.9771 115.68 93.6424 116.684 93.9772 117.353C94.6468 118.357 96.6556 119.361 99.6687 118.357C102.012 117.688 103.017 116.349 104.021 115.345C105.36 113.671 106.699 111.998 111.052 112.333C114.4 112.667 115.739 114.006 116.074 115.345C116.743 118.023 114.065 121.704 113.061 122.374C113.061 122.039 112.726 122.039 112.726 122.039Z" fill="#F9C19B"/>
<path d="M75.564 108.651V115.68C76.5684 121.704 88.2862 126.055 103.687 125.721C119.087 125.386 130.805 120.031 131.14 114.341L131.475 107.981" fill="#FF8F43"/>
<path d="M103.543 119.357C119.072 119.059 131.566 113.873 131.449 107.774C131.331 101.675 118.648 96.9727 103.119 97.2709C87.5904 97.569 75.0969 102.755 75.2141 108.854C75.3313 114.953 88.0147 119.655 103.543 119.357Z" fill="#F9C19B"/>
<path d="M103.482 115.006C116.237 114.761 126.512 111.116 126.43 106.865C126.348 102.615 115.941 99.3677 103.185 99.6132C90.4294 99.8587 80.1552 103.504 80.2371 107.754C80.3189 112.005 90.7258 115.252 103.482 115.006Z" fill="#FF8F43"/>
<path d="M120.761 108.651H88.9555C88.2859 108.651 87.9512 108.316 87.9512 107.647C87.9512 106.977 88.2859 106.643 88.9555 106.643H120.761C121.431 106.643 121.765 106.977 121.765 107.647C121.765 107.981 121.096 108.651 120.761 108.651Z" fill="#F9C19B"/>
<path d="M112.726 113.337C112.391 113.337 112.056 113.002 111.721 112.667C111.387 111.998 111.721 111.328 112.056 111.328C112.726 110.994 114.735 108.316 114.065 106.643C113.73 105.638 112.726 105.304 111.052 105.304C108.039 104.969 107.034 105.973 105.695 107.647C104.691 108.986 103.351 110.324 100.338 111.328C95.9859 112.667 92.9728 111.328 91.9684 109.655C90.964 107.981 91.2988 105.973 93.3075 104.3C93.6423 103.965 94.3119 103.965 94.9815 104.3C95.3163 104.634 95.3163 105.304 94.9815 105.973C93.9771 106.977 93.6424 107.981 93.9772 108.651C94.6468 109.655 96.6556 110.659 99.6687 109.655C102.012 108.986 103.017 107.647 104.021 106.643C105.36 104.969 106.699 103.296 111.052 103.63C114.4 103.965 115.739 105.304 116.074 106.643C116.743 109.32 114.065 113.002 113.061 113.671C113.061 113.337 112.726 113.337 112.726 113.337Z" fill="#F9C19B"/>
<path d="M75.564 99.9486V106.977C76.5684 113.002 88.2862 117.353 103.687 117.018C119.087 116.684 130.805 111.328 131.14 105.639L131.475 99.2792" fill="#FF8F43"/>
<path d="M103.546 110.655C119.075 110.356 131.568 105.17 131.451 99.0714C131.334 92.9725 118.65 88.2702 103.122 88.5686C87.5929 88.8669 75.0994 94.0528 75.2167 100.152C75.3339 106.251 88.0174 110.953 103.546 110.655Z" fill="#F9C19B"/>
<path d="M103.484 106.304C116.24 106.059 126.514 102.414 126.432 98.1633C126.35 93.9126 115.943 90.6656 103.188 90.9109C90.4318 91.1563 80.1576 94.8011 80.2394 99.0518C80.3212 103.303 90.7281 106.55 103.484 106.304Z" fill="#FF8F43"/>
<path d="M120.761 99.9485H88.9555C88.2859 99.9485 87.9512 99.6138 87.9512 98.9444C87.9512 98.275 88.2859 97.9403 88.9555 97.9403H120.761C121.431 97.9403 121.765 98.275 121.765 98.9444C121.765 99.2791 121.096 99.9485 120.761 99.9485Z" fill="#F9C19B"/>
<path d="M112.726 104.3C112.391 104.3 112.056 103.965 111.721 103.63C111.387 102.961 111.721 102.291 112.056 102.291C112.726 101.957 114.735 99.2792 114.065 97.6056C113.73 96.6015 112.726 96.2668 111.052 96.2668C108.039 95.9321 107.034 96.9362 105.695 98.6098C104.691 99.9486 103.351 101.287 100.338 102.291C95.9859 103.63 92.9728 102.291 91.9684 100.618C90.964 98.9445 91.2988 96.9362 93.3075 95.2627C93.6423 94.928 94.3119 94.928 94.9815 95.2627C95.3163 95.5974 95.3163 96.2668 94.9815 96.9362C93.9771 97.9404 93.6424 98.9444 93.9772 99.6139C94.6468 100.618 96.6556 101.622 99.6687 100.618C102.012 99.9486 103.017 98.6098 104.021 97.6056C105.36 95.9321 106.699 94.2586 111.052 94.5933C114.4 94.928 115.739 96.2668 116.074 97.6056C116.743 100.283 114.065 103.965 113.061 104.634C113.061 104.3 112.726 104.3 112.726 104.3Z" fill="#F9C19B"/>
<path d="M75.564 90.9116V97.9403C76.5684 103.965 88.2862 108.316 103.687 107.981C119.087 107.647 130.805 102.291 131.14 96.6015L131.475 90.2422" fill="#FF8F43"/>
<path d="M103.548 101.952C119.077 101.654 131.57 96.4681 131.453 90.3692C131.336 84.2703 118.652 79.568 103.124 79.8663C87.5948 80.1647 75.1014 85.3506 75.2186 91.4495C75.3358 97.5484 88.0193 102.251 103.548 101.952Z" fill="#F9C19B"/>
<path d="M103.485 97.6018C116.241 97.3564 126.515 93.7116 126.434 89.4608C126.352 85.2101 115.945 81.9632 103.189 82.2085C90.4333 82.4539 80.1591 86.0987 80.2409 90.3494C80.3227 94.6002 90.7296 97.8472 103.485 97.6018Z" fill="#FF8F43"/>
<path d="M120.761 90.9116H88.9555C88.2859 90.9116 87.9512 90.5769 87.9512 89.9075C87.9512 89.2381 88.2859 88.9034 88.9555 88.9034H120.761C121.431 88.9034 121.765 89.2381 121.765 89.9075C121.765 90.5769 121.096 90.9116 120.761 90.9116Z" fill="#F9C19B"/>
<path d="M112.726 95.5974C112.391 95.5974 112.056 95.2627 111.721 94.928C111.387 94.2586 111.721 93.5892 112.056 93.5892C112.726 93.2545 114.735 90.5769 114.065 88.9034C113.73 87.8993 112.726 87.5646 111.052 87.5646C108.039 87.2298 107.034 88.2339 105.695 89.9075C104.691 91.2463 103.351 92.5851 100.338 93.5892C95.9859 94.928 92.9728 93.5892 91.9684 91.9157C90.964 90.2422 91.2988 88.2339 93.3075 86.5604C93.6423 86.2257 94.3119 86.2257 94.9815 86.5604C95.3163 86.8951 95.3163 87.5645 94.9815 88.2339C93.9771 89.2381 93.6424 90.2422 93.9772 90.9116C94.6468 91.9157 96.6556 92.9198 99.6687 91.9157C102.012 91.2463 103.017 89.9075 104.021 88.9034C105.36 87.2299 106.699 85.5563 111.052 85.891C114.4 86.2257 115.739 87.5646 116.074 88.9034C116.743 91.581 114.065 95.2627 113.061 95.9321C113.061 95.5974 112.726 95.5974 112.726 95.5974Z" fill="#F9C19B"/>
<path d="M75.564 82.2093V89.2381C76.5684 95.2627 88.2862 99.6139 103.687 99.2792C119.087 98.9445 130.805 93.5892 131.14 87.8993L131.475 81.5399" fill="#FF8F43"/>
<path d="M103.544 92.9158C119.072 92.6175 131.566 87.4316 131.449 81.3327C131.331 75.2338 118.648 70.5315 103.119 70.8298C87.5904 71.1282 75.097 76.3141 75.2142 82.413C75.3314 88.5119 88.015 93.2141 103.544 92.9158Z" fill="#F9C19B"/>
<path d="M103.482 88.5654C116.238 88.3198 126.512 84.6749 126.43 80.4241C126.348 76.1734 115.941 72.9266 103.186 73.1721C90.4299 73.4177 80.1557 77.0626 80.2376 81.3133C80.3195 85.5641 90.7264 88.8109 103.482 88.5654Z" fill="#FF8F43"/>
<path d="M120.761 82.2093H88.9555C88.2859 82.2093 87.9512 81.8746 87.9512 81.2052C87.9512 80.5358 88.2859 80.2011 88.9555 80.2011H120.761C121.431 80.2011 121.765 80.5358 121.765 81.2052C121.765 81.5399 121.096 82.2093 120.761 82.2093Z" fill="#F9C19B"/>
<path d="M112.726 86.8952C112.391 86.8952 112.056 86.5604 111.721 86.2257C111.387 85.5563 111.721 84.8869 112.056 84.8869C112.726 84.5522 114.735 81.8746 114.065 80.2011C113.73 79.197 112.726 78.8623 111.052 78.8623C108.039 78.5276 107.034 79.5317 105.695 81.2052C104.691 82.544 103.351 83.8828 100.338 84.8869C95.9859 86.2257 92.9728 84.8869 91.9684 83.2134C90.964 81.5399 91.2988 79.5317 93.3075 77.8582C93.6423 77.5235 94.3119 77.5235 94.9815 77.8582C95.3163 78.1929 95.3163 78.8623 94.9815 79.5317C93.9771 80.5358 93.6424 81.5399 93.9772 82.2093C94.6468 83.2134 96.6556 84.2175 99.6687 83.2134C102.012 82.544 103.017 81.2052 104.021 80.2011C105.36 78.5276 106.699 76.8541 111.052 77.1888C114.4 77.5235 115.739 78.8623 116.074 80.2011C116.743 82.8787 114.065 86.5605 113.061 87.2299C113.061 86.8952 112.726 86.8952 112.726 86.8952Z" fill="#F9C19B"/>
<path d="M75.564 73.507V80.5358C76.5684 86.5604 88.2862 90.9116 103.687 90.5769C119.087 90.2422 130.805 84.8869 131.14 79.197L131.475 72.8376" fill="#FF8F43"/>
<path d="M103.545 84.2133C119.074 83.9152 131.568 78.7294 131.451 72.6305C131.333 66.5316 118.65 61.8292 103.121 62.1274C87.5924 62.4255 75.0989 67.6113 75.2161 73.7102C75.3332 79.8091 88.0167 84.5115 103.545 84.2133Z" fill="#F9C19B"/>
<path d="M103.484 79.8631C116.24 79.6177 126.514 75.9729 126.432 71.7222C126.35 67.4714 115.943 64.2244 103.188 64.4698C90.4318 64.7152 80.1576 68.36 80.2394 72.6108C80.3213 76.8615 90.7281 80.1085 103.484 79.8631Z" fill="#FF8F43"/>
<path d="M120.761 73.507H88.9555C88.2859 73.507 87.9512 73.1723 87.9512 72.5029C87.9512 71.8335 88.2859 71.4988 88.9555 71.4988H120.761C121.431 71.4988 121.765 71.8335 121.765 72.5029C121.765 72.8376 121.096 73.507 120.761 73.507Z" fill="#F9C19B"/>
<path d="M112.726 77.8581C112.391 77.8581 112.056 77.5234 111.721 77.1887C111.387 76.5193 111.721 75.8499 112.056 75.8499C112.726 75.5152 114.735 72.8376 114.065 71.1641C113.73 70.1599 112.726 69.8252 111.052 69.8252C108.039 69.4905 107.034 70.4947 105.695 72.1682C104.691 73.507 103.351 74.8458 100.338 75.8499C95.9859 77.1887 92.9728 75.8499 91.9684 74.1764C90.964 72.5029 91.2988 70.4947 93.3075 68.8211C93.6423 68.4864 94.3119 68.4864 94.9815 68.8211C95.3163 69.1558 95.3163 69.8253 94.9815 70.4947C93.9771 71.4988 93.6424 72.5029 93.9772 73.1723C94.6468 74.1764 96.6556 75.1805 99.6687 74.1764C102.012 73.507 103.017 72.1682 104.021 71.1641C105.36 69.4905 106.699 67.817 111.052 68.1517C114.4 68.4864 115.739 69.8252 116.074 71.1641C116.743 73.8417 114.065 77.5234 113.061 78.1928C113.061 77.8581 112.726 77.8581 112.726 77.8581Z" fill="#F9C19B"/>
<path d="M71.8804 64.4701V71.4988C72.8848 77.5235 84.6026 81.8746 100.003 81.5399C115.404 81.2052 127.122 75.85 127.456 70.16L127.791 63.8007" fill="#FF8F43"/>
<path d="M100.2 75.51C115.728 75.2119 128.222 70.026 128.105 63.9271C127.988 57.8283 115.304 53.1259 99.7754 53.4241C84.2467 53.7223 71.7532 58.9081 71.8704 65.007C71.9875 71.1058 84.671 75.8082 100.2 75.51Z" fill="#F9C19B"/>
<path d="M100.138 71.1596C112.894 70.9143 123.168 67.2694 123.086 63.0187C123.005 58.768 112.598 55.521 99.8419 55.7664C87.0861 56.0118 76.8119 59.6566 76.8937 63.9073C76.9756 68.1581 87.3824 71.405 100.138 71.1596Z" fill="#FF8F43"/>
<path d="M117.413 64.47H85.6074C84.9378 64.47 84.603 64.1353 84.603 63.4659C84.603 62.7965 84.9378 62.4618 85.6074 62.4618H117.413C118.083 62.4618 118.417 62.7965 118.417 63.4659C118.417 64.1353 117.748 64.47 117.413 64.47Z" fill="#F9C19B"/>
<path d="M109.378 69.1559C109.043 69.1559 108.708 68.8212 108.374 68.4865C108.039 67.8171 108.374 67.1477 108.708 67.1477C109.378 66.813 111.387 64.1354 110.717 62.4618C110.382 61.4577 109.378 61.123 107.704 61.123C104.691 60.7883 103.687 61.7924 102.347 63.466C101.343 64.8048 100.004 66.1436 96.9906 67.1477C92.6383 68.4865 89.6251 67.1477 88.6207 65.4742C87.6163 63.8007 87.9511 61.7924 89.9599 60.1189C90.2947 59.7842 90.9643 59.7842 91.6339 60.1189C91.9687 60.4536 91.9687 61.123 91.6339 61.7924C90.6295 62.7966 90.2947 63.8006 90.6295 64.4701C91.2991 65.4742 93.3079 66.4783 96.3211 65.4742C98.6647 64.8048 99.669 63.466 100.673 62.4618C102.013 60.7883 103.352 59.1148 107.704 59.4495C111.052 59.7842 112.391 61.123 112.726 62.4618C113.396 65.1395 110.717 68.8212 109.713 69.4906C109.713 69.1559 109.378 69.1559 109.378 69.1559Z" fill="#F9C19B"/>
<path d="M75.564 55.7678V62.7965C76.5684 68.8212 88.2862 73.1723 103.687 72.8376C119.087 72.5029 130.805 67.1477 131.14 61.4577L131.475 55.0984" fill="#FF8F43"/>
<path d="M103.544 66.4745C119.072 66.1762 131.566 60.9903 131.449 54.8914C131.331 48.7925 118.648 44.0902 103.119 44.3886C87.5904 44.6869 75.097 49.8728 75.2142 55.9717C75.3314 62.0706 88.015 66.7728 103.544 66.4745Z" fill="#F9C19B"/>
<path d="M103.482 62.1241C116.238 61.8785 126.512 58.2336 126.43 53.9829C126.348 49.7321 115.941 46.4853 103.186 46.7308C90.4299 46.9764 80.1557 50.6213 80.2376 54.872C80.3195 59.1228 90.7264 62.3696 103.482 62.1241Z" fill="#FF8F43"/>
<path d="M120.761 55.7678H88.9555C88.2859 55.7678 87.9512 55.4331 87.9512 54.7637C87.9512 54.0943 88.2859 53.7596 88.9555 53.7596H120.761C121.431 53.7596 121.765 54.0943 121.765 54.7637C121.765 55.0984 121.096 55.7678 120.761 55.7678Z" fill="#F9C19B"/>
<path d="M112.726 60.4536C112.391 60.4536 112.056 60.1189 111.721 59.7842C111.387 59.1148 111.721 58.4454 112.056 58.4454C112.726 58.1107 114.735 55.4331 114.065 53.7596C113.73 52.7555 112.726 52.4208 111.052 52.4208C108.039 52.0861 107.034 53.0902 105.695 54.7637C104.691 56.1025 103.351 57.4413 100.338 58.4454C95.9859 59.7842 92.9728 58.4454 91.9684 56.7719C90.964 55.0984 91.2988 53.0902 93.3075 51.4166C93.6423 51.0819 94.3119 51.0819 94.9815 51.4166C95.3163 51.7513 95.3163 52.4207 94.9815 53.0902C93.9771 54.0943 93.6424 55.0984 93.9772 55.7678C94.6468 56.7719 96.6556 57.776 99.6687 56.7719C102.012 56.1025 103.017 54.7637 104.021 53.7596C105.36 52.0861 106.699 50.4125 111.052 50.7472C114.4 51.0819 115.739 52.4208 116.074 53.7596C116.743 56.4372 114.065 60.1189 113.061 60.7883C113.061 60.4536 112.726 60.4536 112.726 60.4536Z" fill="#F9C19B"/>
<path d="M75.564 47.0655V54.0943C76.5684 60.1189 88.2862 64.4701 103.687 64.1354C119.087 63.8007 130.805 58.4454 131.14 52.7555L131.475 46.3961" fill="#FF8F43"/>
<path d="M103.545 57.7724C119.074 57.4743 131.568 52.2885 131.451 46.1896C131.333 40.0907 118.65 35.3883 103.121 35.6865C87.5924 35.9846 75.0989 41.1704 75.2161 47.2693C75.3332 53.3682 88.0167 58.0706 103.545 57.7724Z" fill="#F9C19B"/>
<path d="M103.485 53.422C116.241 53.1761 126.515 49.5307 126.433 45.28C126.351 41.0293 115.944 37.7828 103.188 38.0288C90.4323 38.2748 80.1583 41.9201 80.2403 46.1708C80.3223 50.4216 90.7294 53.668 103.485 53.422Z" fill="#FF8F43"/>
<path d="M120.761 47.0655H88.9555C88.2859 47.0655 87.9512 46.7308 87.9512 46.0614C87.9512 45.392 88.2859 45.0573 88.9555 45.0573H120.761C121.431 45.0573 121.765 45.392 121.765 46.0614C121.765 46.3961 121.096 47.0655 120.761 47.0655Z" fill="#F9C19B"/>
<path d="M112.726 51.4166C112.391 51.4166 112.056 51.0819 111.721 50.7472C111.387 50.0778 111.721 49.4084 112.056 49.4084C112.726 49.0737 114.735 46.3961 114.065 44.7226C113.73 43.7185 112.726 43.3838 111.052 43.3838C108.039 43.0491 107.034 44.0532 105.695 45.7267C104.691 47.0655 103.351 48.4043 100.338 49.4084C95.9859 50.7472 92.9728 49.4084 91.9684 47.7349C90.964 46.0614 91.2988 44.0532 93.3075 42.3797C93.6423 42.0449 94.3119 42.0449 94.9815 42.3797C95.3163 42.7144 95.3163 43.3838 94.9815 44.0532C93.9771 45.0573 93.6424 46.0614 93.9772 46.7308C94.6468 47.7349 96.6556 48.739 99.6687 47.7349C102.012 47.0655 103.017 45.7267 104.021 44.7226C105.36 43.049 106.699 41.3756 111.052 41.7103C114.4 42.045 115.739 43.3837 116.074 44.7226C116.743 47.4002 114.065 51.0819 113.061 51.7513C113.061 51.4166 112.726 51.4166 112.726 51.4166Z" fill="#F9C19B"/>
<path d="M75.564 38.0285V45.0573C76.5684 51.082 88.2862 55.4331 103.687 55.0984C119.087 54.7637 130.805 49.4084 131.14 43.7185L131.475 37.3591" fill="#FF8F43"/>
<path d="M103.549 49.0701C119.077 48.7718 131.571 43.5858 131.454 37.487C131.336 31.3881 118.653 26.6858 103.124 26.9841C87.5953 27.2825 75.1019 32.4684 75.2191 38.5673C75.3363 44.6661 88.0198 49.3684 103.549 49.0701Z" fill="#F9C19B"/>
<path d="M103.487 44.7197C116.243 44.4739 126.517 40.8287 126.435 36.578C126.353 32.3273 115.946 29.0807 103.19 29.3265C90.4348 29.5723 80.1607 33.2175 80.2427 37.4682C80.3246 41.719 90.7316 44.9656 103.487 44.7197Z" fill="#FF8F43"/>
<path d="M120.761 38.0285H88.9555C88.2859 38.0285 87.9512 37.6939 87.9512 37.0244C87.9512 36.355 88.2859 36.0203 88.9555 36.0203H120.761C121.431 36.0203 121.765 36.355 121.765 37.0244C121.765 37.6939 121.096 38.0285 120.761 38.0285Z" fill="#F9C19B"/>
<path d="M112.726 42.7144C112.391 42.7144 112.056 42.3797 111.721 42.045C111.387 41.3756 111.721 40.7062 112.056 40.7062C112.726 40.3715 114.735 37.6938 114.065 36.0203C113.73 35.0162 112.726 34.6815 111.052 34.6815C108.039 34.3468 107.034 35.3509 105.695 37.0244C104.691 38.3632 103.351 39.7021 100.338 40.7062C95.9859 42.045 92.9728 40.7062 91.9684 39.0326C90.964 37.3591 91.2988 35.3509 93.3075 33.6774C93.6423 33.3427 94.3119 33.3427 94.9815 33.6774C95.3163 34.0121 95.3163 34.6815 94.9815 35.3509C93.9771 36.355 93.6424 37.3591 93.9772 38.0285C94.6468 39.0326 96.6556 40.0368 99.6687 39.0326C102.012 38.3632 103.017 37.0244 104.021 36.0203C105.36 34.3468 106.699 32.6733 111.052 33.008C114.4 33.3427 115.739 34.6815 116.074 36.0203C116.743 38.6979 114.065 42.3797 113.061 43.0491C113.061 42.7144 112.726 42.7144 112.726 42.7144Z" fill="#F9C19B"/>
<path d="M75.564 29.3263V36.355C76.5684 42.3797 88.2862 46.7308 103.687 46.3961C119.087 46.0614 130.805 40.7062 131.14 35.0162L131.475 28.6569" fill="#FF8F43"/>
<path d="M103.544 40.0333C119.072 39.735 131.566 34.549 131.449 28.4502C131.331 22.3513 118.648 17.649 103.119 17.9473C87.5904 18.2457 75.097 23.4316 75.2142 29.5305C75.3314 35.6293 88.015 40.3316 103.544 40.0333Z" fill="#F9C19B"/>
<path d="M103.483 35.6833C116.239 35.4371 126.513 31.7916 126.431 27.5409C126.349 23.2901 115.942 20.0438 103.186 20.29C90.4304 20.5362 80.1564 24.1817 80.2385 28.4324C80.3206 32.6831 90.7276 35.9294 103.483 35.6833Z" fill="#FF8F43"/>
<path d="M120.761 29.3263H88.9555C88.2859 29.3263 87.9512 28.9916 87.9512 28.3222C87.9512 27.6528 88.2859 27.3181 88.9555 27.3181H120.761C121.431 27.3181 121.765 27.6528 121.765 28.3222C121.765 28.6569 121.096 29.3263 120.761 29.3263Z" fill="#F9C19B"/>
<path d="M112.726 34.0121C112.391 34.0121 112.056 33.6774 111.721 33.3427C111.387 32.6733 111.721 32.0039 112.056 32.0039C112.726 31.6692 114.735 28.9916 114.065 27.318C113.73 26.3139 112.726 25.9792 111.052 25.9792C108.039 25.6445 107.034 26.6486 105.695 28.3222C104.691 29.661 103.351 30.9998 100.338 32.0039C95.9859 33.3427 92.9728 32.0039 91.9684 30.3304C90.964 28.6569 91.2988 26.6486 93.3075 24.9751C93.6423 24.6404 94.3119 24.6404 94.9815 24.9751C95.3163 25.3098 95.3163 25.9792 94.9815 26.6486C93.9771 27.6528 93.6424 28.6568 93.9772 29.3263C94.6468 30.3304 96.6556 31.3345 99.6687 30.3304C102.012 29.661 103.017 28.3222 104.021 27.318C105.36 25.6445 106.699 23.971 111.052 24.3057C114.4 24.6404 115.739 25.9792 116.074 27.318C116.743 29.9957 114.065 33.6774 113.061 34.3468C113.061 34.0121 112.726 34.0121 112.726 34.0121Z" fill="#F9C19B"/>
<path d="M77.5723 20.624V27.6527C78.5767 33.6774 90.2945 38.0285 105.695 37.6938C121.096 37.3591 132.814 32.0039 133.148 26.3139L133.483 19.9546" fill="#FF8F43"/>
<path d="M105.89 31.33C121.419 31.0316 133.912 25.8457 133.795 19.7468C133.678 13.6479 120.994 8.94567 105.465 9.24403C89.9366 9.54238 77.4432 14.7284 77.5604 20.8272C77.6777 26.9261 90.3612 31.6283 105.89 31.33Z" fill="#F9C19B"/>
<path d="M105.829 26.9795C118.585 26.7335 128.859 23.0881 128.777 18.8374C128.695 14.5866 118.288 11.3402 105.532 11.5862C92.7761 11.8322 82.502 15.4776 82.5841 19.7283C82.6661 23.979 93.0731 27.2255 105.829 26.9795Z" fill="#FF8F43"/>
<path d="M123.104 20.624H91.2989C90.6293 20.624 90.2944 20.2893 90.2944 19.6199C90.2944 18.9505 90.6293 18.6158 91.2989 18.6158H123.104C123.774 18.6158 124.109 18.9505 124.109 19.6199C124.109 19.9546 123.439 20.624 123.104 20.624Z" fill="#F9C19B"/>
<path d="M115.069 24.9751C114.735 24.9751 114.4 24.6404 114.065 24.3057C113.73 23.6363 114.065 22.9669 114.4 22.9669C115.069 22.6322 117.078 19.9546 116.409 18.281C116.074 17.2769 115.069 16.9422 113.395 16.9422C110.382 16.6075 109.378 17.6116 108.039 19.2852C107.034 20.624 105.695 21.9628 102.682 22.9669C98.3297 24.3057 95.3165 22.9669 94.3121 21.2934C93.3077 19.6199 93.6425 17.6116 95.6513 15.9381C95.9861 15.6034 96.6557 15.6034 97.3253 15.9381C97.6601 16.2728 97.6601 16.9422 97.3253 17.6116C96.3209 18.6157 95.9861 19.6199 96.3209 20.2893C96.9905 21.2934 98.9992 22.2975 102.012 21.2934C104.356 20.624 105.36 19.2852 106.365 18.281C107.704 16.6075 109.043 14.934 113.395 15.2687C116.743 15.6034 118.083 16.9422 118.417 18.281C119.087 20.9587 116.409 24.6404 115.404 25.3098C115.404 24.9751 115.069 24.9751 115.069 24.9751Z" fill="#F9C19B"/>
<path d="M74.2241 11.587V18.6158C75.2285 24.6404 86.9463 28.9916 102.347 28.6569C117.748 28.3222 129.465 22.9669 129.8 17.277L130.135 10.9176" fill="#FF8F43"/>
<path d="M102.545 22.6267C118.073 22.3281 130.567 17.1418 130.449 11.043C130.332 4.9441 117.648 0.242093 102.12 0.540738C86.5909 0.839383 74.0976 6.02559 74.2149 12.1245C74.3323 18.2233 87.0159 22.9254 102.545 22.6267Z" fill="#F9C19B"/>
<path d="M102.483 18.2759C115.238 18.0303 125.513 14.3852 125.431 10.1345C125.349 5.88376 114.942 2.63702 102.186 2.88269C89.4304 3.12836 79.1562 6.77341 79.2382 11.0241C79.3201 15.2749 89.727 18.5216 102.483 18.2759Z" fill="#FF8F43"/>
<path d="M8.604 155.175L8.93882 162.538C9.94321 168.897 22.3306 173.583 38.7356 173.248C55.1406 172.914 67.1933 167.224 67.528 161.199L67.8629 154.17" fill="#FF8F43"/>
<path d="M38.6102 166.544C54.8784 166.231 67.9656 160.734 67.8411 154.265C67.7167 147.797 54.4279 142.807 38.1597 143.119C21.8915 143.432 8.80447 148.929 8.92888 155.398C9.05329 161.866 22.3421 166.856 38.6102 166.544Z" fill="#F9C19B"/>
<path d="M38.2083 161.865C51.7035 161.605 62.5743 157.799 62.4889 153.363C62.4035 148.928 51.3942 145.543 37.899 145.802C24.4038 146.062 13.5331 149.868 13.6185 154.304C13.7039 158.74 24.7131 162.125 38.2083 161.865Z" fill="#FF8F43"/>
<path d="M56.4805 155.175H23.0009C22.3313 155.175 21.9966 154.505 21.9966 154.17C21.9966 153.501 22.6661 153.166 23.0009 153.166H56.4805C57.1501 153.166 57.4849 153.836 57.4849 154.17C57.4849 154.505 57.1501 155.175 56.4805 155.175Z" fill="#F9C19B"/>
<path d="M47.7757 159.86C47.4409 159.86 47.1061 159.526 46.7713 159.191C46.4365 158.522 46.7713 157.852 47.1061 157.517C47.7757 157.183 49.7845 154.17 49.4497 152.497C49.1149 151.493 48.1104 151.158 46.4364 150.823C43.0885 150.489 42.0842 151.493 40.745 153.166C39.7406 154.505 38.0666 156.179 35.0534 157.183C30.7011 158.522 27.3531 157.183 26.3487 155.174C25.3443 153.501 25.6792 151.158 27.688 149.485C28.0228 149.15 29.0272 149.15 29.362 149.485C29.6968 149.819 29.6968 150.823 29.362 151.158C28.3576 152.162 28.0227 153.166 28.3575 154.17C29.0271 155.509 31.3707 156.179 34.3839 155.174C37.0623 154.17 38.0666 153.166 39.071 151.827C40.4102 150.154 42.0841 148.48 46.4364 148.815C50.1192 149.15 51.1236 150.823 51.4584 152.162C52.128 155.175 49.4496 158.856 48.1104 159.526C48.4452 159.86 48.1105 159.86 47.7757 159.86Z" fill="#F9C19B"/>
<path d="M180.689 95.9321L173.659 98.275C167.967 100.953 166.963 114.341 171.985 129.737C177.007 145.133 185.711 155.509 191.738 153.836L198.434 152.162" fill="#FF8F43"/>
<path d="M198.549 152.426C204.709 150.44 205.654 136.28 200.66 120.797C195.666 105.314 186.625 94.3722 180.465 96.3577C174.305 98.3433 173.36 112.504 178.354 127.987C183.348 143.47 192.389 154.412 198.549 152.426Z" fill="#F9C19B"/>
<path d="M198.336 147.245C202.559 145.884 202.625 134.368 198.483 121.524C194.34 108.68 187.558 99.3723 183.334 100.734C179.111 102.095 179.045 113.611 183.187 126.455C187.33 139.298 194.112 148.607 198.336 147.245Z" fill="#FF8F43"/>
<path d="M121.765 173.248C137.297 173.248 149.888 160.661 149.888 145.133C149.888 129.606 137.297 117.018 121.765 117.018C106.234 117.018 93.6426 129.606 93.6426 145.133C93.6426 160.661 106.234 173.248 121.765 173.248Z" fill="#F9C19B"/>
<path d="M121.765 167.559C134.154 167.559 144.197 157.518 144.197 145.133C144.197 132.748 134.154 122.708 121.765 122.708C109.377 122.708 99.334 132.748 99.334 145.133C99.334 157.518 109.377 167.559 121.765 167.559Z" fill="#FF8F43"/>
<path d="M0.234375 143.125L0.569191 150.489C1.57358 156.848 13.961 161.534 30.366 161.199C46.771 160.864 58.8236 155.175 59.1584 149.15L59.4932 142.121" fill="#FF8F43"/>
<path d="M29.9066 154.831C46.1747 154.518 59.2619 149.021 59.1375 142.552C59.0131 136.084 45.7242 131.094 29.4561 131.406C13.1879 131.719 0.100847 137.216 0.225247 143.685C0.349648 150.153 13.6384 155.143 29.9066 154.831Z" fill="#F9C19B"/>
<path d="M29.8323 149.811C43.3275 149.551 54.1984 145.745 54.1129 141.31C54.0275 136.874 43.0182 133.489 29.523 133.749C16.0279 134.008 5.15713 137.815 5.24255 142.25C5.32796 146.686 16.3372 150.071 29.8323 149.811Z" fill="#FF8F43"/>
</svg>
