<svg width="361" height="181" viewBox="0 0 361 181" fill="none" xmlns="http://www.w3.org/2000/svg">
<path d="M346.632 85.9414L320.469 82.5894C316.536 82.1323 312.907 80.4564 310.033 77.8662C299.901 69.1816 269.048 49.0698 202.656 49.0698C202.656 49.0698 172.409 47.3938 144.732 55.469C141.556 56.3832 138.683 57.6021 135.81 59.2781C125.374 65.0678 97.698 80.304 92.1023 82.1323C85.2967 84.2654 53.2346 86.246 42.1944 88.3791C31.1542 90.5122 4.99042 99.5015 4.99042 112.605V127.079C4.99042 127.993 6.95648 137.592 6.95648 137.592L11.0399 139.573C10.8886 144.144 14.5183 147.8 19.0554 147.8H44.6143C44.6143 129.364 59.4354 114.585 77.5837 114.585C95.8832 114.585 110.553 129.517 110.553 147.8H258.008C258.008 129.364 272.829 114.585 290.978 114.585C309.277 114.585 323.947 129.517 323.947 147.8L356.765 142.925V97.5208C356.916 91.7311 352.531 86.7032 346.632 85.9414Z" fill="#F9C19B"/>
<path d="M77.5843 114.585C59.2847 114.585 44.6149 129.517 44.6149 147.8V158.161H110.554V147.8C110.554 129.517 95.7326 114.585 77.5843 114.585Z" fill="#FF8F43"/>
<path d="M290.978 114.585C272.678 114.585 258.008 129.517 258.008 147.8V158.161H323.947V147.8C323.947 129.517 309.277 114.585 290.978 114.585Z" fill="#FF8F43"/>
<path d="M38.4141 99.5016C39.624 98.5874 39.0191 96.7591 37.6579 96.4544C33.877 95.6926 27.6764 96.302 22.0807 98.4351C18.451 99.8063 10.8893 105.444 9.07444 112.3C8.77197 113.367 9.83058 114.128 10.738 113.824C16.1825 111.691 30.8523 105.748 38.4141 99.5016Z" fill="#FCF4EF"/>
<path d="M28.1297 135.459H20.8703C19.8117 135.459 18.9043 134.545 18.9043 133.478C18.9043 132.412 19.8117 131.497 20.8703 131.497H28.1297C29.1883 131.497 30.0957 132.412 30.0957 133.478C29.9445 134.545 29.1883 135.459 28.1297 135.459Z" fill="#FF8F43"/>
<path d="M356.917 101.33C354.043 101.177 349.203 101.025 345.12 101.33C341.642 101.482 339.676 105.444 341.49 108.338L344.213 112.757C345.12 114.128 346.481 115.042 348.145 115.042H356.917V101.33Z" fill="#EA6206"/>
<path d="M77.5841 177.358C61.3802 177.358 48.2443 164.125 48.2443 147.8C48.2443 131.476 61.3802 118.242 77.5841 118.242C93.788 118.242 106.924 131.476 106.924 147.8C106.924 164.125 93.788 177.358 77.5841 177.358Z" fill="#F9AA75"/>
<path d="M77.5844 168.064C66.4755 168.064 57.47 158.992 57.47 147.8C57.47 136.609 66.4755 127.536 77.5844 127.536C88.6932 127.536 97.6987 136.609 97.6987 147.8C97.6987 158.992 88.6932 168.064 77.5844 168.064Z" fill="#EA6206"/>
<path d="M77.5843 154.352C73.9927 154.352 71.0811 151.418 71.0811 147.8C71.0811 144.182 73.9927 141.249 77.5843 141.249C81.1759 141.249 84.0874 144.182 84.0874 147.8C84.0874 151.418 81.1759 154.352 77.5843 154.352Z" fill="#FF8F43"/>
<path d="M290.978 177.358C274.774 177.358 261.638 164.125 261.638 147.8C261.638 131.476 274.774 118.242 290.978 118.242C307.181 118.242 320.317 131.476 320.317 147.8C320.317 164.125 307.181 177.358 290.978 177.358Z" fill="#F9AA75"/>
<path d="M290.978 168.064C279.869 168.064 270.864 158.992 270.864 147.8C270.864 136.609 279.869 127.536 290.978 127.536C302.087 127.536 311.092 136.609 311.092 147.8C311.092 158.992 302.087 168.064 290.978 168.064Z" fill="#EA6206"/>
<path d="M290.978 154.352C287.386 154.352 284.475 151.418 284.475 147.8C284.475 144.182 287.386 141.249 290.978 141.249C294.569 141.249 297.481 144.182 297.481 147.8C297.481 151.418 294.569 154.352 290.978 154.352Z" fill="#FF8F43"/>
<path d="M143.523 56.5355C142.918 56.5355 142.313 56.6878 141.557 56.6878C139.591 57.4497 137.625 58.3638 135.81 59.278C125.828 64.763 100.118 78.9327 93.0099 81.6752C109.646 78.628 135.81 62.9347 143.825 57.9067C144.733 57.602 144.279 56.5355 143.523 56.5355Z" fill="#F9C19B"/>
<path d="M258.16 143.991H110.251C110.402 145.21 110.402 146.581 110.402 147.8H258.008C258.008 146.581 258.008 145.21 258.16 143.991Z" fill="#FF8F43"/>
<path d="M107.075 86.8555C106.319 86.8555 106.016 85.9414 106.621 85.4843C115.091 79.2375 152.143 54.7072 201.144 55.469C201.144 55.469 263.15 50.8981 291.734 81.3705C292.339 81.98 291.734 83.0465 290.827 83.0465L107.075 86.8555Z" fill="#F9AA75"/>
<path d="M186.928 62.1729V79.8468C186.928 81.0657 186.02 81.9799 184.81 81.9799H122.501C121.745 81.9799 121.291 80.9134 122.047 80.4563C129.912 75.5807 156.378 60.8016 184.962 60.4968C186.172 60.3445 186.928 61.1063 186.928 62.1729Z" fill="#FCF4EF"/>
<path d="M197.817 62.7824V79.0851C197.817 80.6087 199.026 81.8276 200.539 81.8276L256.647 80.3039C258.16 80.3039 259.218 79.0851 259.218 77.5615V68.4198C259.218 67.2009 258.462 66.1343 257.252 65.8296C250.447 63.8489 226.551 58.0591 200.085 60.1922C198.875 60.1922 197.817 61.4111 197.817 62.7824Z" fill="#FCF4EF"/>
<path d="M263.15 69.9433V79.0851C263.15 79.6945 263.604 80.1516 264.209 80.1516L278.425 79.5421C279.484 79.5421 279.786 78.1709 279.03 77.5614C275.854 75.1237 269.956 71.0099 264.511 68.8768C263.907 68.7244 263.15 69.1815 263.15 69.9433Z" fill="#FCF4EF"/>
<path d="M258.008 147.8C258.008 147.8 257.857 154.352 260.125 158.161C260.125 158.313 107.982 158.161 107.982 158.161C107.982 158.161 110.856 152.523 110.553 147.8H258.008Z" fill="#FF8F43"/>
<path d="M44.6147 147.8C44.6147 146.581 44.7659 145.21 44.7659 143.991H34.3306C32.9694 143.991 31.7596 143.229 31.1547 142.011L30.3985 140.335C29.6423 138.659 27.9787 137.592 26.3151 137.592H9.98162L8.46926 137.44C3.78095 137.44 9.15527e-05 141.096 9.15527e-05 145.82V152.371C9.15527e-05 156.028 3.02475 159.075 6.65442 158.923L46.7319 158.008C46.7319 158.161 44.7659 154.352 44.6147 147.8Z" fill="#FF8F43"/>
<path d="M361 135.459C361 133.478 359.336 131.802 357.37 131.802H335.441C333.475 131.802 331.509 132.869 330.45 134.697L323.494 146.734C323.191 147.343 322.889 148.105 322.889 148.867V155.418C322.889 157.399 324.552 159.075 326.518 159.075H352.833C354.497 159.075 356.009 158.009 356.463 156.333L360.849 139.725C360.849 139.42 361 139.268 361 138.963V135.459Z" fill="#FF8F43"/>
<path d="M229.869 76.6846L215.129 128.709L204.351 167.033H196.52L207.944 76.6846H229.869Z" fill="#EA6206"/>
<path d="M233.83 76.6846C234.198 103.53 235.304 118.063 235.672 120.563C236.041 122.97 241.476 138.521 251.886 167.033H243.779C230.421 139.632 223.051 124.173 221.485 120.563C219.919 116.953 215.129 102.327 207.943 76.6846H233.83Z" fill="#FF8F43"/>
<path d="M252.623 174.439L252.255 165.83H243.687C239.634 168.699 234.382 171.014 227.842 172.772V174.439H243.319L248.57 173.606V174.439H252.623Z" fill="#E83D0F"/>
<path d="M205.456 174.439L205.088 165.83H196.52C192.467 168.699 187.216 171.014 180.675 172.772V174.439H196.152L201.403 173.606V174.439H205.456Z" fill="#E83D0F"/>
<path d="M223.419 25.2154C225.262 22.9937 226.551 20.3092 226.367 17.2544C225.722 8.55277 213.654 10.4042 211.259 14.8475C208.863 19.2909 209.14 30.4919 212.272 31.2325C213.47 31.5102 216.049 30.7696 218.721 29.1959L217.062 40.9523H226.828L223.419 25.2154Z" fill="#EA6206"/>
<path d="M215.128 10.034C216.418 9.66368 218.353 9.47854 219.182 9.57111C218.721 8.46027 218.537 7.25685 218.721 5.96087C218.906 4.75745 219.366 3.73918 219.919 2.72091C220.103 2.25806 220.379 1.79521 220.748 1.42493C221.116 1.05465 221.577 0.776936 222.13 0.684366C222.683 0.591796 223.235 0.591796 223.696 0.684366C223.972 0.776936 224.157 0.869504 224.341 0.869504C224.617 0.962074 224.709 0.776945 224.894 0.591804C225.262 0.221523 225.907 0.0363773 226.367 0.0363773C226.92 -0.0561929 227.565 0.0363745 228.118 0.221515C228.671 0.406655 229.131 0.684366 229.592 1.14722C229.776 1.33236 229.96 1.61007 230.052 1.79521C230.052 1.88778 230.145 1.98036 230.237 1.98036C230.329 1.98036 230.421 1.98035 230.513 2.07292C231.434 2.35063 232.263 3.0912 232.632 4.0169C232.908 4.57232 233 5.49802 233 6.51629C233 7.53456 231.987 10.3117 231.158 11.3299C230.329 12.2556 229.223 12.8111 228.118 13.0888C228.855 13.9219 229.408 15.0327 229.776 16.1436C230.145 17.347 230.421 18.5504 230.513 19.8464C230.605 21.0498 230.605 22.2532 230.329 23.4566C230.052 24.5675 229.5 25.4006 228.578 26.0486C228.118 26.3263 227.657 26.5115 227.197 26.6966C226.736 26.8817 226.275 27.0669 225.815 27.1595C224.894 27.3446 223.88 27.3446 223.143 26.604C222.867 26.3263 222.59 26.0486 222.406 25.6783C222.314 25.5858 222.314 25.4932 222.406 25.4006C222.498 25.308 222.683 25.1229 222.775 25.0303C223.512 24.4749 223.88 23.6418 223.972 22.7161C224.064 21.7904 223.788 20.4944 222.867 20.1241C221.761 19.5687 220.472 20.2167 219.458 20.7721C218.998 19.1984 218.168 17.9024 216.787 17.1619C215.22 16.4213 213.47 16.3287 211.904 15.5882C211.536 15.403 211.075 15.2179 210.799 14.8476C210.706 14.6625 210.522 14.4773 210.43 14.2922C210.338 14.0145 210.522 13.8293 210.614 13.6442C211.167 12.6259 213.747 10.4968 215.128 10.034Z" fill="#331FA8"/>
<path d="M210.154 21.3276C210.154 22.9938 208.403 24.3824 208.403 26.0487C209.048 26.2338 209.785 26.3264 210.43 26.4189" fill="#EA6206"/>
<path d="M210.43 28.8256C210.982 29.0108 211.627 28.9182 212.088 28.6405C212.548 28.3627 213.009 27.8999 213.193 27.3445C212.641 27.6222 212.272 27.8073 211.812 28.085C211.443 28.2702 210.982 28.4553 210.43 28.8256Z" fill="#331FA8"/>
<path d="M213.009 20.5868C213.101 20.3091 212.917 19.9389 212.64 19.7537C212.456 19.5686 212.088 19.476 211.811 19.3834C211.535 19.3834 211.258 19.3834 210.982 19.476C210.706 19.5686 210.521 19.8463 210.429 20.124C210.706 20.0314 210.89 20.0314 211.166 19.9389C211.351 19.9389 211.627 19.9389 211.811 19.9389C211.995 19.9389 212.18 20.0314 212.456 20.0314C212.548 20.3091 212.825 20.4017 213.009 20.5868Z" fill="#331FA8"/>
<path d="M211.166 22.1605C210.912 22.1605 210.706 21.9533 210.706 21.6977C210.706 21.442 210.912 21.2348 211.166 21.2348C211.421 21.2348 211.627 21.442 211.627 21.6977C211.627 21.9533 211.421 22.1605 211.166 22.1605Z" fill="#331FA8"/>
<path d="M193.203 63.3544L178.463 56.8745C175.883 54.2825 173.396 52.3386 171.001 50.95C170.264 50.7649 169.066 50.6723 170.356 52.6163C171.646 54.5603 172.935 56.5968 172.475 57.3374C171.922 57.9854 170.448 57.2448 169.803 58.3556C169.435 59.0962 171.922 59.9293 177.45 60.9476L188.504 69.4641L193.203 63.3544ZM252.807 65.2058L244.516 66.8721C252.899 82.609 257.413 90.8478 257.966 91.866C259.348 93.9952 258.058 97.8831 257.597 99.9196C260.545 100.568 259.348 96.1243 263.125 97.05C266.533 97.8831 269.481 100.105 272.614 97.1425C272.982 96.7723 273.258 95.6614 271.969 95.106C268.652 93.6249 263.678 90.9403 262.941 89.9221C261.835 88.3484 258.519 80.2022 252.807 65.2058Z" fill="#EA6206"/>
<path d="M221.853 33.8246L218.353 33.1766C210.706 40.6748 207.574 58.5408 202.415 60.9476C197.625 63.1693 190.715 61.0402 182.608 58.078L180.121 63.6322C187.491 71.6858 203.244 78.4434 209.601 74.5555C219.827 68.5384 222.222 46.4141 221.853 33.8246Z" fill="#331FA8"/>
<path d="M237.146 78.2581C223.051 78.2581 212.641 78.2581 206.008 78.2581C204.626 78.2581 204.81 76.2216 205.087 75.1107C207.482 63.0766 216.694 50.1168 216.694 32.9913L225.631 31.6027C233.093 43.6368 235.672 58.4481 237.146 78.2581Z" fill="#FCF4EF"/>
<path d="M240.278 66.1313C246.635 77.61 251.978 85.9413 256.308 90.9401L270.157 72.2046C265.92 46.0073 246.45 44.0996 226.367 31.6952H226.275H222.867C214.852 59.2811 212.549 77.7026 216.234 86.867H244.24C243.595 80.1094 242.213 73.0741 240.278 66.1313Z" fill="#5435D6"/>
<path d="M256.591 83.4311L241.667 134.993L234.665 173.78H227.664L234.665 83.4311H256.591Z" fill="#E83D0F"/>
<path d="M263.316 83.4311C262.302 110.276 262.671 124.81 262.947 127.309C263.224 129.716 264.513 146.009 273.542 174.613H266.264C254.38 147.212 250.142 130.92 248.852 127.309C247.47 123.699 243.417 109.073 237.521 83.4311H263.316Z" fill="#E83D0F"/>
<path d="M256.958 83.4311C253.089 101.205 246.364 129.531 236.875 168.411H226.558C225.821 128.42 229.045 102.13 234.664 83.4311H256.958Z" fill="#331FA8"/>
<path d="M263.315 83.4311C262.302 110.276 264.973 136.659 273.08 168.873H262.117C250.141 141.935 241.574 115.646 235.77 83.4311H263.315Z" fill="#5435D6"/>
<path d="M274.462 179.889L274.094 173.317C271.699 174.057 268.751 173.78 265.25 172.484C261.381 175.168 256.59 177.02 250.786 178.038C250.326 178.13 250.05 178.501 250.142 178.964V179.056L250.694 181H265.25H273.725L274.462 179.889Z" fill="#AA1707"/>
<path d="M236.23 179.889L235.862 173.317C233.467 174.057 230.519 173.78 227.018 172.484C223.149 175.168 218.358 177.02 212.555 178.038C212.094 178.13 211.818 178.501 211.91 178.964V179.056L212.462 181H227.018H235.493L236.23 179.889Z" fill="#AA1707"/>
<path d="M252.997 31.8693C254.84 29.6476 256.129 26.9631 255.945 23.9082C255.3 15.2066 243.232 17.058 240.837 21.5014C238.442 25.9448 238.718 37.1458 241.85 37.8863C243.048 38.164 245.627 37.4235 248.299 35.8498L246.641 47.6062H256.406L252.997 31.8693Z" fill="#E83D0F"/>
<path d="M253.735 33.9057C254.933 28.4441 258.433 24.7413 257.881 22.2419C257.512 20.5756 256.591 19.5574 255.025 19.1871C254.196 15.9471 251.616 14.5586 247.286 15.0214C240.746 15.762 236.784 18.4465 238.535 24.4636C240.101 24.4636 242.035 23.9082 244.615 24.8339C245.444 25.1116 246.089 26.1298 246.365 27.7035H247.563C248.76 25.7596 249.866 25.1116 250.971 25.5744C252.077 26.1298 252.353 27.3333 251.708 29.2772L252.261 33.8132H253.735V33.9057Z" fill="#AA1707"/>
<path d="M239.547 28.3516C239.179 29.555 238.902 30.851 238.718 32.0544C238.534 33.443 238.626 34.1835 240.284 33.9984" fill="#E83D0F"/>
<path d="M241.113 27.426C241.574 27.3334 241.942 27.2408 242.311 27.1483C242.679 27.1483 243.14 27.1483 243.601 27.0557C243.416 26.9631 243.232 26.8706 242.956 26.778C242.771 26.6854 242.495 26.6854 242.219 26.6854C241.85 26.778 241.39 27.0557 241.113 27.426Z" fill="#331FA8"/>
<path d="M241.759 29.2772C241.454 29.2772 241.206 29.0286 241.206 28.7218C241.206 28.4151 241.454 28.1664 241.759 28.1664C242.064 28.1664 242.312 28.4151 242.312 28.7218C242.312 29.0286 242.064 29.2772 241.759 29.2772Z" fill="#331FA8"/>
<path d="M240.285 35.9423C240.653 36.1274 241.114 36.22 241.574 36.0348C242.035 35.8497 242.219 35.4794 242.496 35.2017C242.311 35.2017 242.035 35.2943 241.851 35.3869C241.667 35.4794 241.482 35.572 241.298 35.6646C241.114 35.7571 240.653 35.7571 240.285 35.9423Z" fill="#331FA8"/>
<path d="M224.9 76.8585L212.74 85.8378C209.423 86.7635 206.659 87.8744 204.448 89.1704C203.896 89.6332 203.251 90.6515 205.462 90.4663C207.673 90.2812 209.976 90.1886 210.252 90.9292C210.528 91.6698 209.239 92.5955 209.884 93.6137C210.252 94.2617 212.187 92.5955 215.595 88.6149L227.664 83.6162L224.9 76.8585ZM271.791 77.1362H263.776C268.751 93.1509 271.33 101.667 271.791 102.593C272.712 104.815 270.778 108.147 270.041 109.999C272.62 111.202 272.344 106.851 275.66 108.332C278.7 109.721 280.911 112.313 284.412 110.091C284.873 109.814 285.333 108.795 284.136 108.055C281.28 106.111 277.226 102.686 276.674 101.575C275.937 100.186 274.278 92.04 271.791 77.1362Z" fill="#E83D0F"/>
<path d="M249.036 43.4407L245.719 42.8853C233.467 53.5308 228.4 73.9889 213.384 84.8196L216.977 89.3555C243.14 86.1155 249.589 61.1216 249.036 43.4407Z" fill="#E83D0F"/>
<path d="M263.5 85.1898C250.234 85.1898 240.469 85.1898 234.205 85.1898C232.823 85.1898 233.099 83.2458 233.283 82.2276C235.494 70.934 244.246 58.7148 244.246 42.7001L252.722 41.4041C259.723 52.6977 262.118 66.5832 263.5 85.1898Z" fill="#FCF4EF"/>
<path d="M263.224 52.5125C264.421 52.1422 265.435 51.3091 266.172 50.0131C269.212 44.4589 268.106 41.3115 264.882 40.2933C261.565 39.275 258.618 41.4041 253.366 41.4041C253.09 41.4041 252.814 41.4041 252.537 41.4967L249.866 41.6818C242.312 67.5089 240.193 84.727 243.601 93.336H266.632C268.014 96.5759 269.304 99.2605 270.594 101.39H276.858C277.503 82.135 272.897 65.8426 263.224 52.5125Z" fill="#EA6206"/>
<path d="M261.657 80.0056C260.92 86.1152 259.723 90.5586 258.157 93.2431H266.724C265.066 89.5403 263.408 85.1895 261.657 80.0056Z" fill="#E83D0F"/>
<path d="M272.922 56.005C269.605 54.1536 264.17 51.9937 262.788 52.3022L269.237 62.0221L268.315 64.7992L274.303 68.502C276.146 66.6506 277.067 58.3193 272.922 56.005Z" fill="#E83D0F"/>
<path d="M267.854 75.9074C270.802 74.4263 272.768 70.0447 273.382 68.039L269.236 64.799C268.776 65.1076 267.486 66.095 266.012 67.5761C264.169 69.4275 264.169 70.3532 264.63 70.3532C265.091 70.3532 267.854 69.4275 267.394 70.3532C267.025 71.0938 265.091 74.6732 264.169 76.3703C264.169 76.8331 264.906 77.3886 267.854 75.9074Z" fill="#EA6206"/>
</svg>
