<svg width="389" height="297" viewBox="0 0 389 297" fill="none" xmlns="http://www.w3.org/2000/svg">
<path d="M301.521 286.823C264.968 301.735 216.391 297.031 196.672 292.814C149.538 288.648 81.7234 259.527 54.3088 238.889C26.8942 218.251 12.4898 185.885 26.4133 170.318C37.1318 158.335 54.3088 151.677 90.8616 149.347C144.025 145.958 215.91 164.659 243.806 166.989C271.701 169.32 370.779 169.32 382.803 182.634C394.827 195.949 388.574 213.591 370.779 230.235C352.983 246.878 347.212 268.182 301.521 286.823Z" fill="#FCF4EF"/>
<path d="M318.136 98.3924C320.245 95.8786 321.704 92.8782 321.461 89.3912C320.731 79.4979 307.026 81.6874 304.35 86.6341C301.674 91.5807 301.998 104.231 305.486 105.123C306.864 105.447 309.784 104.637 312.784 102.771L310.919 116.071H322.029L318.136 98.3924Z" fill="#F5D1C3"/>
<path d="M303.296 88.9047C303.377 88.2559 303.702 87.5261 303.864 86.9585C304.107 86.1475 304.594 85.4988 304.999 84.769C305.891 83.4715 306.945 82.3362 308.081 81.4442C310.189 79.7412 312.865 78.687 315.541 79.0114C316.839 79.1736 318.136 79.6601 319.272 80.5521C320.245 81.282 321.218 82.4173 322.516 82.4984C323.894 82.5795 325.192 81.3631 326.327 80.5521C327.624 79.6601 328.922 79.0925 330.463 78.8492C332.977 78.4438 335.328 79.2547 337.031 81.282C338.897 83.4715 340.194 86.6341 338.978 89.5534C338.734 90.1211 338.491 90.5265 338.086 90.932C337.68 91.2564 337.113 91.6618 336.95 92.1484C336.788 92.716 337.275 93.4458 337.437 94.0135C337.68 94.7433 337.923 95.5542 337.842 96.3652C337.68 97.7437 336.869 98.9601 335.977 99.8521C335.085 100.744 333.95 101.231 332.733 101.474C331.922 101.636 331.112 101.717 330.301 101.636C329.895 101.636 329.571 101.474 329.165 101.393C328.76 101.312 328.598 101.393 328.273 101.636C326.814 102.609 325.192 103.015 323.489 102.853C322.029 102.771 320.326 102.366 319.191 101.393C317.893 100.258 317.893 98.798 318.218 97.095C317.893 97.2572 317.001 97.3383 317.488 96.6896C317.731 96.4463 318.137 96.3652 318.38 96.203C318.704 96.0408 319.029 95.7975 319.272 95.4732C320.245 94.3379 319.272 91.9862 317.974 91.5807C316.109 91.0131 315.704 93.6891 314.325 94.3379C313.514 94.7433 312.784 94.1757 312.135 93.608C311.325 92.8782 310.838 91.9051 310.351 90.8509C309.946 90.04 309.622 89.229 309.216 88.4181C309.054 88.0127 308.405 86.9585 308.73 86.553C307.351 86.3097 305.891 86.8774 304.756 87.6072C304.269 87.9316 303.945 88.2559 303.621 88.7425C303.539 88.8236 303.458 89.229 303.296 89.229C303.134 89.3912 303.215 89.0669 303.296 88.9047Z" fill="#EA6206"/>
<path d="M339.221 170.565H306.134L301.755 223.761H351.061L339.221 170.565Z" fill="#F5D1C3"/>
<path d="M339.221 170.565H329.085L322.921 223.761H351.061L339.221 170.565Z" fill="#F5D1C3"/>
<path d="M268.344 161.482C264.776 159.374 258.856 162.05 258.856 165.131C258.856 174.214 267.128 216.949 267.615 219.707C268.02 222.383 272.642 223.112 272.967 219.707C273.372 214.273 274.183 195.541 273.372 186.783C273.048 183.215 272.724 179.809 272.318 176.728C276.697 184.594 283.347 195.784 292.511 210.462L297.457 208.191C293.565 195.379 290.402 186.378 287.888 181.107C283.671 172.105 279.617 164.402 277.995 161.644C275.4 157.428 270.777 158.887 268.344 161.482Z" fill="#FCF4EF"/>
<path d="M297.133 201.055L280.184 160.915C276.13 154.346 264.776 162.212 266.155 166.023C269.318 174.619 285.293 202.434 286.185 205.029L297.133 201.055Z" fill="#F9C19B"/>
<path d="M298.047 205.612C299.119 206.511 299.77 207.168 300.1 207.733C300.459 208.408 300.977 209.457 301.474 210.867C300.647 211.326 293.719 215.379 280.548 222.945C278.966 221.469 278.71 220.291 279.809 219.522C280.909 218.752 281.787 218.042 282.514 217.431L289.761 207.476C289.882 207.265 290.174 207.246 290.385 207.368L291.878 208.511C293.267 208.376 294.264 208.109 294.94 207.75C295.504 207.421 296.161 206.77 296.839 205.757C297.042 205.406 297.626 205.368 298.047 205.612Z" fill="#F9C19B"/>
<path d="M274.021 217.517C274.508 218.815 274.751 219.788 274.751 220.355C274.751 221.166 274.589 222.22 274.345 223.761C273.453 223.761 265.425 223.761 250.179 223.761C249.531 221.653 249.936 220.599 251.234 220.436C252.612 220.274 253.748 220.112 254.64 219.95L265.912 214.922C266.155 214.841 266.398 214.922 266.479 215.165L267.209 216.95C268.426 217.517 269.48 217.842 270.291 217.842C270.939 217.842 271.832 217.598 272.967 217.031C273.291 216.787 273.778 217.031 274.021 217.517C274.021 217.436 274.021 217.517 274.021 217.517Z" fill="#F9C19B"/>
<path d="M257.721 168.213C257.721 179.566 263.154 206.164 263.154 208.678H274.832C273.129 184.999 272.561 172.997 273.048 172.754C273.777 172.349 303.539 175.755 312.459 175.755C325.353 175.755 330.624 167.645 331.03 152.643H305.566C300.376 153.211 273.372 158.644 263.316 160.509C258.856 161.239 257.721 165.05 257.721 168.213Z" fill="#F9C19B"/>
<path d="M283.996 147.21L271.832 159.05C268.264 160.59 265.425 162.212 263.155 164.077C262.668 164.726 262.101 165.861 264.452 165.375C266.804 164.888 269.399 164.402 269.804 165.213C270.21 166.024 268.912 167.159 269.723 168.213C270.291 168.862 272.156 166.753 275.319 161.726L287.97 154.265L283.996 147.21ZM343.357 136.506H333.95C341.086 159.698 344.898 171.781 345.303 172.916C346.276 175.349 344.168 179.161 343.276 181.107C346.195 182.404 345.871 177.539 349.601 179.323C353.007 180.863 355.521 183.702 359.414 181.35C359.9 181.026 360.387 179.971 359.17 179.079C356.008 176.89 351.466 173.16 350.818 171.862C350.088 170.159 347.574 158.32 343.357 136.506Z" fill="#FCF4EF"/>
<path d="M314.731 109.827L311 109.178C305.162 129.856 275.157 143.885 273.292 151.589C272.643 154.427 274.67 155.887 273.616 156.698L278.401 160.266C279.211 159.293 280.995 161.077 284.564 159.861C288.132 158.644 314.731 134.317 314.731 109.827Z" fill="#AA1707"/>
<path d="M308.568 112.584C308.973 139.912 293.16 146.886 296.728 157.833C299.647 166.916 327.463 176.647 332.247 167.727C334.193 164.158 335.085 159.78 335.167 155.076C336.383 158.725 337.356 161.807 338.086 164.483C339.302 169.024 344.087 169.754 344.087 171.457L350.412 169.754C350.007 167.402 352.926 166.267 352.196 160.915C348.628 137.236 339.059 120.044 323.408 109.421L323.246 107.069C323.165 106.096 322.354 105.448 321.381 105.448L309.865 106.259C308.892 106.34 308.243 107.151 308.243 108.124L308.568 112.584Z" fill="#E83D0F"/>
<path d="M302.648 94.5811C302.648 95.9597 300.863 97.1761 300.945 98.5546C301.026 99.8521 302.729 100.095 303.54 100.501" fill="#F5D1C3"/>
<path d="M303.215 93.0405C303.377 92.7161 303.62 92.5539 303.945 92.3918C304.188 92.2296 304.512 92.1485 304.837 92.0674C305.161 92.0674 305.486 92.0674 305.81 92.1485C306.134 92.2296 306.459 92.5539 306.459 92.8783C306.134 92.7161 305.891 92.7161 305.648 92.7161C305.404 92.7161 305.161 92.7972 304.918 92.7972C304.431 92.9594 303.864 93.0405 303.215 93.0405Z" fill="#E83D0F"/>
<path d="M303.621 102.69C304.107 102.366 304.432 102.204 304.837 102.042C305.242 101.879 305.648 101.717 306.216 101.636C306.053 102.204 305.648 102.528 305.161 102.771C304.675 102.934 304.107 103.015 303.621 102.69Z" fill="#E83D0F"/>
<path d="M303.945 94.8244C304.258 94.8244 304.512 94.5703 304.512 94.2567C304.512 93.9432 304.258 93.6891 303.945 93.6891C303.631 93.6891 303.377 93.9432 303.377 94.2567C303.377 94.5703 303.631 94.8244 303.945 94.8244Z" fill="#E83D0F"/>
<path d="M266.337 204.279H233.25L228.871 257.475H278.176L266.337 204.279Z" fill="#F5D1C3"/>
<path d="M266.337 204.279H256.119L250.037 257.476H278.176L266.337 204.279Z" fill="#F5D1C3"/>
<path d="M197.974 255.043C203.489 242.798 207.543 232.094 209.165 226.417C211.922 216.767 214.031 208.253 214.517 205.09C215.815 197.548 204.786 197.062 203.326 200.873C201.137 206.55 197.325 225.282 192.703 253.502L197.974 255.043ZM262.282 216.524C257.173 214.497 239.413 208.253 230.817 206.469C228.385 205.982 225.952 205.495 223.681 205.09C217.031 203.792 213.544 215.875 219.951 216.767C236.007 219.038 258.714 221.471 260.66 221.714C263.417 222.038 265.445 217.74 262.282 216.524Z" fill="#EA6206"/>
<path d="M219.545 201.684L247.036 187.655V184.573H243.793C217.194 191.385 203.57 195.683 203.002 197.629V197.71C203.002 197.71 203.002 197.71 203.002 197.792C197.731 205.009 194.568 240.446 193.514 243.122L203.651 244.663C207.543 230.31 219.87 220.335 219.545 203.144C219.545 202.657 219.545 202.17 219.545 201.684Z" fill="#FF8F43"/>
<path d="M244.765 210.036C247.279 209.55 249.631 209.063 251.577 208.739C264.39 206.468 268.121 199.657 265.931 184.654H242.333C238.44 185.79 218.41 194.142 208.03 198.602C201.137 201.522 203.326 212.226 207.219 214.983C207.219 215.145 207.3 215.307 207.462 215.307C228.384 223.984 245.009 219.443 250.523 220.903L253.118 212.794L244.765 210.036Z" fill="#F9AA75"/>
<path d="M260.522 215.198C261.935 215.321 262.84 215.511 263.454 215.844C264.175 216.214 265.112 216.839 266.337 217.686C265.93 218.516 262.376 225.843 255.639 239.594C253.467 239.21 252.641 238.441 253.089 237.139C253.537 235.838 253.91 234.754 254.209 233.886L254.657 221.487C254.624 221.233 254.88 221.018 255.096 221.093L257.054 221.221C258.15 220.325 258.847 219.534 259.217 218.812C259.477 218.234 259.667 217.33 259.68 216.06C259.539 215.588 259.978 215.193 260.522 215.198C260.449 215.234 260.449 215.234 260.522 215.198Z" fill="#E83D0F"/>
<path d="M200.488 252.772C200.975 254.07 201.218 255.043 201.218 255.691C201.218 256.502 201.056 257.638 200.813 259.097C199.921 259.097 191.811 259.097 176.403 259.097C175.755 256.989 176.16 255.854 177.539 255.691C178.917 255.529 180.053 255.367 180.945 255.205L192.298 250.177C192.541 250.096 192.784 250.177 192.865 250.42L193.595 252.204C194.893 252.772 195.866 253.096 196.677 253.096C197.326 253.096 198.218 252.853 199.353 252.286C199.759 252.042 200.245 252.204 200.488 252.772C200.488 252.691 200.488 252.691 200.488 252.772Z" fill="#E83D0F"/>
<path d="M253.038 132.107C255.065 129.755 256.363 126.917 256.12 123.673C255.471 114.429 242.577 116.456 240.063 121.159C237.549 125.863 237.873 137.702 241.117 138.513C242.415 138.837 245.172 138.026 247.929 136.323L246.226 148.731H256.606L253.038 132.107Z" fill="#EA6206"/>
<path d="M255.308 116.05C255.308 116.05 255.227 116.05 255.308 116.05C254.254 115.726 253.281 115.483 252.227 115.483C252.146 115.483 252.065 115.483 252.065 115.402C251.983 115.402 251.821 115.402 251.74 115.402C251.092 115.402 247.361 115.564 245.983 115.807C244.117 116.132 240.549 117.753 240.063 118.97C239.495 120.267 239.819 121.808 242.171 121.646C244.523 124.484 248.01 126.43 248.415 126.511C248.415 126.511 249.956 124.403 251.416 125.295C253.119 126.349 252.794 128.214 251.902 129.674C251.416 130.404 250.686 131.62 251.902 132.431C253.849 133.81 258.714 130.728 259.606 128.133C260.904 123.673 259.444 117.997 255.308 116.05Z" fill="#AA1707"/>
<path d="M238.278 128.62C237.873 129.593 237.224 130.404 236.9 131.458C236.494 132.918 236.981 132.837 238.278 132.756C239.576 132.674 239.414 131.945 239.333 130.566C239.333 129.674 239.252 128.458 238.846 127.728C238.603 128.052 238.36 128.377 238.278 128.62Z" fill="#EA6206"/>
<path d="M239.17 126.755C239.252 126.511 239.495 126.268 239.819 126.187C240.062 126.106 240.387 126.106 240.711 126.106C241.279 126.187 241.765 126.511 242.009 127.079C241.441 126.917 241.036 126.836 240.549 126.755C240.306 126.674 240.143 126.674 239.9 126.674C239.657 126.674 239.414 126.674 239.17 126.755Z" fill="#AA1707"/>
<path d="M239.089 135.35C239.575 135.269 240.062 135.107 240.549 134.864C240.792 134.783 240.954 134.702 241.197 134.539C241.441 134.377 241.684 134.215 242.008 134.215H242.333V134.458C242.414 134.945 242.17 135.188 241.927 135.431C241.684 135.675 241.522 135.837 241.278 135.999C241.035 136.161 240.792 136.242 240.549 136.405C240.305 136.486 240.062 136.567 239.738 136.648C240.143 136.323 240.549 135.999 240.954 135.675C241.116 135.513 241.36 135.35 241.441 135.188C241.603 135.026 241.684 134.783 241.684 134.702L242.008 134.945C241.846 134.945 241.603 135.026 241.441 135.188C241.197 135.269 240.954 135.431 240.63 135.513C240.386 135.594 240.062 135.594 239.819 135.594C239.575 135.431 239.332 135.431 239.089 135.35Z" fill="#AA1707"/>
<path d="M239.82 128.376C240.088 128.376 240.306 128.159 240.306 127.89C240.306 127.621 240.088 127.403 239.82 127.403C239.551 127.403 239.333 127.621 239.333 127.89C239.333 128.159 239.551 128.376 239.82 128.376Z" fill="#AA1707"/>
<path d="M220.194 172.815L204.543 165.922C201.786 163.165 199.11 161.138 196.596 159.678C195.866 159.435 194.487 159.354 195.947 161.381C197.407 163.408 198.704 165.598 198.137 166.328C197.569 167.058 195.947 166.247 195.298 167.382C194.893 168.193 197.569 169.085 203.489 170.139L215.247 179.14L220.194 172.815ZM283.61 174.68L274.771 176.464C283.691 193.088 288.476 201.846 289.124 202.9C290.584 205.171 289.205 209.226 288.719 211.415C291.882 212.145 290.665 207.442 294.639 208.415C298.288 209.307 301.369 211.658 304.775 208.496C305.181 208.09 305.505 206.874 304.046 206.306C300.478 204.765 295.287 201.927 294.395 200.792C293.179 199.251 289.611 190.574 283.61 174.68Z" fill="#EA6206"/>
<path d="M250.686 141.513L246.955 140.865C238.846 148.731 235.521 167.787 230.088 170.301C224.979 172.653 217.68 170.382 209.003 167.301L206.327 173.221C214.193 181.735 230.899 188.871 237.711 184.817C248.496 178.248 251.01 154.813 250.686 141.513Z" fill="#E83D0F"/>
<path d="M266.985 188.547C251.983 188.547 240.954 188.547 233.899 188.547C232.358 188.547 232.682 186.358 232.926 185.222C235.439 172.491 245.333 158.786 245.333 140.703L254.902 139.243C262.687 151.893 265.363 167.544 266.985 188.547Z" fill="#F5D1C3"/>
<path d="M270.23 175.653C276.961 187.817 282.637 196.575 287.26 201.927L294.234 200.549C289.774 172.815 276.799 152.38 255.39 139.162H255.308H251.659C243.063 168.355 240.712 187.817 244.604 197.548H274.366C273.798 190.493 272.338 182.952 270.23 175.653Z" fill="#EA6206"/>
<path d="M265.466 34.0474C265.466 45.3965 273.469 55.2906 285.692 61.5472C288.456 63.0022 286.71 71.5868 287.147 73.0419C287.729 74.4969 298.059 66.0578 299.806 66.4943C304.607 67.5128 309.7 68.0948 315.084 68.0948C342.584 68.0948 364.701 52.8171 364.701 34.0474C364.701 15.2777 342.438 0 315.084 0C287.729 0 265.466 15.1322 265.466 34.0474Z" fill="#FCF4EF"/>
<path d="M2.10254 131.232L65.3589 120.806L68.6005 92.8585L69.2138 77.0886L67.4616 45.1107L12.2656 46.8629L6.83364 50.3674L4.20526 59.9169L5.95752 76.3877L6.57081 92.3328L5.95752 105.212L4.64333 118.266L2.10254 131.232Z" fill="#EA6206"/>
<path d="M65.3588 120.806L63.1685 120.281C63.1685 120.193 66.1473 107.928 66.9358 101.269C68.5128 88.3903 68.5128 73.7594 66.8482 55.4487V55.1859C66.4101 50.3673 65.8845 44.9355 68.3376 40.2921C69.6518 37.7514 72.543 35.4735 75.5218 36.3496C78.7635 37.3133 80.1653 41.6063 81.0415 44.4974C81.1291 44.8479 81.2167 45.1107 81.3043 45.3735L79.2016 46.0744C79.1139 45.8116 79.0263 45.4611 78.9387 45.1107C78.1502 42.7452 77.0113 39.0656 74.9086 38.4523C73.1563 37.9266 71.3164 39.5036 70.3527 41.3434C68.25 45.2859 68.688 50.1921 69.1261 54.9231V55.1859C70.7907 73.6718 70.8784 88.3903 69.2138 101.532C68.3376 108.278 65.4464 120.281 65.3588 120.806Z" fill="#FCF4EF"/>
<path d="M9.8125 46.6877L12.0905 46.0744L73.5069 35.9992C73.5069 35.9992 78.7636 34.4222 81.2168 45.3735L17.9605 55.8868C17.9605 55.8868 16.6463 51.7691 16.3834 51.3311C15.6825 49.8417 14.6312 48.5275 13.317 47.5638C12.3533 46.7753 11.1267 46.8629 9.8125 46.6877Z" fill="#FCF4EF"/>
<path d="M81.0996 44.6371L17.9771 55.454L18.1398 56.4038L81.2624 45.5869L81.0996 44.6371Z" fill="#FF8F43"/>
<path d="M7.53472 205.175C7.44711 205.175 7.4471 205.175 7.35949 205.175C6.30814 205.088 5.51962 204.124 5.60724 203.073L17.0845 64.0346C17.1721 62.9833 18.1358 62.1948 19.1872 62.2824C20.2385 62.37 21.0271 63.3337 20.9394 64.3851L9.46221 203.423C9.28699 204.387 8.49846 205.175 7.53472 205.175Z" fill="#FF8F43"/>
<path d="M6.57097 203.774C6.30813 203.774 6.0453 203.511 6.13291 203.248L17.6101 69.2036C17.6101 68.9408 17.873 68.7656 18.1358 68.7656C18.3986 68.7656 18.5739 69.0284 18.5739 69.2912L7.09663 203.335C7.09663 203.598 6.83381 203.774 6.57097 203.774Z" fill="#F9AA75"/>
<path d="M39.338 237.591C38.2867 237.591 37.4981 236.803 37.4105 235.751L35.2202 148.842C35.2202 147.79 36.0088 146.914 37.0601 146.914C38.1115 146.914 38.9876 147.703 38.9876 148.754L41.1779 235.664C41.2655 236.715 40.477 237.591 39.338 237.591Z" fill="#FF8F43"/>
<path d="M38.6371 236.277C38.3743 236.277 38.199 236.102 38.199 235.839L35.8335 148.053C35.8335 147.79 36.0087 147.528 36.2716 147.528C36.5344 147.528 36.7973 147.703 36.7973 147.966L39.1628 235.751C39.0752 236.102 38.8999 236.277 38.6371 236.277Z" fill="#F9AA75"/>
<path d="M102.332 217.879C101.455 217.879 100.579 217.266 100.492 216.302L86.4736 138.328C86.2984 137.277 86.9993 136.313 88.0507 136.138C89.102 135.963 90.0658 136.664 90.241 137.715L104.259 215.689C104.434 216.74 103.733 217.704 102.682 217.879C102.594 217.879 102.419 217.879 102.332 217.879Z" fill="#FF8F43"/>
<path d="M101.631 216.74C101.368 216.74 101.193 216.565 101.193 216.389L85.6854 129.918C85.5978 129.655 85.773 129.392 86.0358 129.392C86.2986 129.305 86.5615 129.48 86.5615 129.743L102.069 216.214C102.157 216.389 101.981 216.652 101.631 216.74C101.719 216.74 101.719 216.74 101.631 216.74Z" fill="#F9AA75"/>
<path d="M18.1357 55.8868L31.3653 150.419L96.111 136.401L81.2168 45.0231L18.1357 55.8868Z" fill="#FCF4EF"/>
<path d="M18.0482 55.8868C17.3473 52.5576 15.6827 47.8266 12.2658 46.8629C9.28694 45.9868 6.39571 48.2647 5.08152 50.8054C2.62837 55.3612 3.15403 60.793 3.5921 65.6992V65.962C5.25674 84.2727 5.34433 98.9036 3.67969 111.782C2.89117 118.441 0.0876126 130.093 0 130.181L2.01508 131.232C2.10269 130.706 4.99388 118.791 5.87 112.045C7.53464 98.9913 7.44705 84.2727 5.78241 65.6992V65.4364C5.34435 60.7054 4.90631 55.7992 7.00901 51.8567C7.97275 50.0169 9.90018 48.4399 11.5648 48.9656C16.4711 50.455 16.5588 60.793 17.1721 65.1736C18.2234 72.6205 19.2748 80.0674 20.4137 87.5143C21.7279 96.6258 23.0421 105.737 24.3563 114.849C25.4953 122.734 26.6342 130.531 27.7732 138.416C28.2988 142.096 28.5617 144.198 29.0873 147.878L29.2626 149.543L31.3653 150.419C30.9272 147.352 30.4892 144.374 30.0511 141.307C28.9998 134.036 28.036 126.676 26.9847 119.405C25.7581 110.468 24.4439 101.532 23.2173 92.5957C22.0784 84.7107 21.027 76.8258 19.888 68.9408C19.2747 64.7355 18.9243 60.5302 18.1358 56.3249C18.1358 56.2373 18.1358 56.062 18.0482 55.8868Z" fill="#FF8F43"/>
<path d="M258.327 64.3454C258.327 83.4499 235.794 98.9033 207.922 98.9033C190.547 98.9033 175.254 92.8747 166.204 83.7046C164.394 81.9215 147.11 81.3272 149.101 79.8837C152.449 77.5912 159.236 73.6005 158.603 71.3079C157.969 69.1003 157.607 66.7229 157.607 64.3454C157.607 45.241 180.14 29.7876 208.013 29.7876C235.885 29.7876 258.327 45.3259 258.327 64.3454Z" fill="#FCF4EF"/>
<path d="M180.135 64.9988C180.108 63.0633 181.694 61.3965 183.603 61.3965C185.619 61.3696 187.286 62.9826 187.286 64.9719C187.286 66.9344 185.7 68.5474 183.738 68.6011C181.775 68.6011 180.162 66.9882 180.135 64.9988Z" fill="#FCF4EF"/>
<path d="M180.135 73.9507C180.108 72.0152 181.694 70.3484 183.603 70.3484C185.619 70.3215 187.286 71.9345 187.286 73.9238C187.286 75.8863 185.7 77.4993 183.738 77.553C181.775 77.553 180.162 75.9401 180.135 73.9507Z" fill="#FCF4EF"/>
<path d="M176.076 69.5421C176.667 69.5421 177.259 69.5421 177.877 69.5421C177.877 69.4077 177.904 69.2732 177.904 69.1657C177.904 67.0688 177.904 64.972 177.904 62.902C177.904 62.6332 177.823 62.445 177.581 62.3374C177.312 62.2299 177.07 62.0148 176.775 61.9073C176.022 61.6654 175.834 61.1546 176.049 60.4019C176.613 60.4019 177.232 60.4019 177.877 60.4019C177.877 60.2137 177.904 60.0524 177.904 59.918C177.904 57.848 177.904 55.8049 177.904 53.7349C177.904 53.4392 177.823 53.3048 177.554 53.1972C177.285 53.0897 177.07 52.9015 176.802 52.794C176.049 52.5521 175.807 52.0682 176.049 51.2617C176.667 51.2617 177.312 51.2617 177.958 51.2617C178.307 50.2132 179.033 49.8369 180.108 49.8638C182.555 49.8906 185.028 49.8638 187.474 49.8638C188.442 49.8638 189.034 50.267 189.356 51.2348C190.001 51.2348 190.647 51.2348 191.346 51.2348C191.346 51.5574 191.372 51.88 191.346 52.1757C191.319 52.2832 191.211 52.4176 191.104 52.4983C190.62 52.7671 190.136 53.0091 189.679 53.2779C189.571 53.3585 189.437 53.5198 189.437 53.6274C189.41 55.8318 189.437 58.0362 189.437 60.2137C189.437 60.2675 189.464 60.2943 189.491 60.375C190.109 60.375 190.727 60.375 191.399 60.375C191.399 60.7245 191.426 61.0471 191.399 61.3428C191.399 61.4503 191.238 61.5578 191.13 61.6116C190.647 61.8804 190.163 62.1224 189.706 62.3912C189.598 62.4719 189.464 62.6332 189.464 62.7676C189.464 64.972 189.464 67.2033 189.464 69.4077C189.464 69.4345 189.491 69.4614 189.517 69.5152C190.109 69.5152 190.727 69.5152 191.426 69.5152C191.426 69.8647 191.453 70.1873 191.399 70.483C191.372 70.5905 191.238 70.698 191.104 70.7787C190.566 71.0744 190.001 71.3701 189.437 71.6658C189.437 73.7089 189.41 75.752 189.437 77.7951C189.464 78.736 188.765 79.7038 187.528 79.7307C184.974 79.7307 182.447 79.7307 179.893 79.7307C178.737 79.7307 177.958 78.9511 177.958 77.7682C177.958 75.8864 177.958 73.9778 177.958 72.0959C177.958 71.7465 177.877 71.5583 177.554 71.4508C177.312 71.3701 177.124 71.1819 176.882 71.1013C176.129 70.8593 175.807 70.3754 176.076 69.5421ZM180.108 56.0468C180.135 58.0362 181.748 59.6491 183.738 59.6223C185.7 59.5954 187.286 57.9555 187.286 55.9931C187.286 54.0306 185.619 52.3908 183.603 52.4176C181.667 52.4714 180.081 54.1113 180.108 56.0468ZM183.657 68.5474C185.646 68.5474 187.232 66.9613 187.259 64.9989C187.286 63.0364 185.619 61.3428 183.657 61.3697C181.479 61.4234 180.054 63.2246 180.081 64.972C180.135 66.9613 181.667 68.5474 183.657 68.5474ZM183.684 77.4725C185.673 77.4725 187.232 75.8864 187.259 73.8971C187.286 71.9615 185.646 70.2948 183.684 70.3217C181.721 70.3217 180.135 71.9078 180.081 73.8433C180.054 75.8864 181.748 77.5263 183.684 77.4725Z" fill="#EC7D66"/>
<path d="M185.915 48.7884C184.436 48.7884 182.984 48.7884 181.533 48.7884C181.613 48.1701 182.42 47.498 183.253 47.3636C184.382 47.1754 185.458 47.7399 185.915 48.7884Z" fill="#EC7D66"/>
<path d="M180.108 56.0467C180.081 54.1112 181.667 52.4444 183.576 52.4444C185.592 52.4175 187.259 54.0305 187.259 56.0199C187.259 57.9823 185.673 59.5953 183.711 59.649C181.748 59.649 180.135 58.063 180.108 56.0467Z" fill="#331FA8"/>
<path d="M185.162 79.0049H182.151V83.3599H185.162V79.0049Z" fill="#EC7D66"/>
<path d="M203.765 63.9504C203.739 62.0149 205.325 60.3481 207.233 60.3481C209.25 60.3212 210.917 61.9342 210.917 63.9235C210.917 65.886 209.33 67.499 207.368 67.5527C205.405 67.5527 203.765 65.9398 203.765 63.9504Z" fill="#5435D6"/>
<path d="M203.792 54.9715C203.765 53.036 205.352 51.3692 207.26 51.3692C209.277 51.3423 210.943 52.9553 210.943 54.9447C210.943 56.9071 209.357 58.5201 207.395 58.5739C205.432 58.5739 203.819 56.9878 203.792 54.9715Z" fill="#FCF4EF"/>
<path d="M203.765 72.9024C203.739 70.9668 205.325 69.3001 207.233 69.3001C209.25 69.2732 210.917 70.8862 210.917 72.8755C210.917 74.838 209.33 76.4509 207.368 76.5047C205.405 76.5047 203.765 74.8917 203.765 72.9024Z" fill="#FCF4EF"/>
<path d="M199.76 68.4937C200.351 68.4937 200.943 68.4937 201.561 68.4937C201.561 68.3593 201.588 68.2248 201.588 68.1173C201.588 66.0204 201.588 63.9236 201.588 61.8536C201.588 61.5848 201.507 61.3966 201.265 61.289C200.996 61.1815 200.754 60.9664 200.459 60.8589C199.706 60.617 199.518 60.1062 199.733 59.3535C200.297 59.3535 200.916 59.3535 201.561 59.3535C201.561 59.1653 201.588 59.004 201.588 58.8696C201.588 56.7996 201.588 54.7565 201.588 52.6865C201.588 52.3908 201.507 52.2564 201.238 52.1488C200.97 52.0413 200.754 51.8531 200.486 51.7456C199.733 51.5037 199.491 51.0198 199.733 50.2133C200.351 50.2133 200.996 50.2133 201.642 50.2133C201.991 49.1648 202.717 48.7885 203.792 48.8154C206.239 48.8422 208.712 48.8154 211.158 48.8154C212.126 48.8154 212.718 49.2186 213.04 50.1864C213.685 50.1864 214.331 50.1864 215.03 50.1864C215.03 50.509 215.056 50.8316 215.03 51.1273C215.003 51.2348 214.895 51.3692 214.788 51.4499C214.304 51.7187 213.82 51.9607 213.363 52.2295C213.255 52.3101 213.121 52.4714 213.121 52.579C213.094 54.7834 213.121 56.9878 213.121 59.1653C213.121 59.2191 213.148 59.2459 213.175 59.3266C213.793 59.3266 214.411 59.3266 215.083 59.3266C215.083 59.6761 215.11 59.9987 215.083 60.2944C215.083 60.4019 214.922 60.5094 214.815 60.5632C214.331 60.832 213.847 61.074 213.39 61.3428C213.282 61.4235 213.148 61.5848 213.148 61.7192C213.148 63.9236 213.148 66.1549 213.148 68.3593C213.148 68.3861 213.175 68.413 213.202 68.4668C213.793 68.4668 214.411 68.4668 215.11 68.4668C215.11 68.8163 215.137 69.1389 215.083 69.4346C215.056 69.5421 214.922 69.6496 214.788 69.7303C214.25 70.026 213.685 70.3217 213.121 70.6174C213.121 72.6605 213.094 74.7036 213.121 76.7467C213.148 77.6876 212.449 78.6554 211.212 78.6823C208.658 78.6823 206.131 78.6823 203.577 78.6823C202.421 78.6823 201.642 77.9027 201.642 76.7198C201.642 74.838 201.642 72.9294 201.642 71.0475C201.642 70.6981 201.561 70.5099 201.238 70.4024C200.996 70.3217 200.808 70.1335 200.566 70.0529C199.787 69.784 199.464 69.327 199.76 68.4937ZM203.765 54.9984C203.792 56.9878 205.405 58.6007 207.395 58.5739C209.357 58.547 210.943 56.9071 210.943 54.9447C210.943 52.9822 209.277 51.3424 207.26 51.3692C205.325 51.3961 203.739 53.0629 203.765 54.9984ZM207.341 67.4721C209.33 67.4721 210.916 65.886 210.943 63.9236C210.97 61.9611 209.303 60.2675 207.341 60.2944C205.163 60.3481 203.739 62.1493 203.765 63.8967C203.792 65.9129 205.325 67.4721 207.341 67.4721ZM207.341 76.4241C209.33 76.4241 210.89 74.838 210.916 72.8487C210.943 70.9131 209.303 69.2464 207.341 69.2733C205.378 69.2733 203.792 70.8594 203.739 72.7949C203.712 74.8112 205.405 76.451 207.341 76.4241Z" fill="#EC7D66"/>
<path d="M209.572 47.7131C208.094 47.7131 206.642 47.7131 205.19 47.7131C205.271 47.0948 206.078 46.4227 206.911 46.2883C208.04 46.127 209.115 46.6916 209.572 47.7131Z" fill="#EC7D66"/>
<path d="M208.846 77.5532H205.835V81.9082H208.846V77.5532Z" fill="#EC7D66"/>
<path d="M228.499 72.8755C228.472 70.9399 230.058 69.2732 231.967 69.2732C233.983 69.2463 235.65 70.8593 235.65 72.8486C235.65 74.811 234.064 76.424 232.101 76.4778C230.166 76.4778 228.526 74.8648 228.499 72.8755Z" fill="#331FA8"/>
<path d="M228.552 63.9504C228.525 62.0149 230.111 60.3481 232.02 60.3481C234.036 60.3212 235.703 61.9342 235.703 63.9235C235.703 65.886 234.117 67.499 232.154 67.5527C230.219 67.5527 228.579 65.9398 228.552 63.9504Z" fill="#FCF4EF"/>
<path d="M228.552 54.9715C228.525 53.036 230.111 51.3692 232.02 51.3692C234.036 51.3423 235.703 52.9553 235.703 54.9447C235.703 56.9071 234.117 58.5201 232.154 58.5739C230.219 58.5739 228.579 56.9878 228.552 54.9715Z" fill="#FCF4EF"/>
<path d="M224.52 68.4937C225.111 68.4937 225.702 68.4937 226.321 68.4937C226.321 68.3593 226.348 68.2248 226.348 68.1173C226.348 66.0204 226.348 63.9236 226.348 61.8536C226.348 61.5848 226.267 61.3966 226.025 61.289C225.756 61.1815 225.514 60.9664 225.219 60.8589C224.466 60.617 224.278 60.1062 224.493 59.3535C225.057 59.3535 225.676 59.3535 226.321 59.3535C226.321 59.1653 226.348 59.004 226.348 58.8696C226.348 56.7996 226.348 54.7565 226.348 52.6865C226.348 52.3908 226.267 52.2564 225.998 52.1488C225.729 52.0413 225.514 51.8531 225.245 51.7456C224.493 51.5037 224.251 51.0198 224.493 50.2133C225.111 50.2133 225.756 50.2133 226.401 50.2133C226.751 49.1648 227.477 48.7885 228.552 48.8154C230.998 48.8422 233.472 48.8154 235.918 48.8154C236.886 48.8154 237.477 49.2186 237.8 50.1864C238.445 50.1864 239.09 50.1864 239.789 50.1864C239.789 50.509 239.816 50.8316 239.789 51.1273C239.762 51.2348 239.655 51.3692 239.547 51.4499C239.064 51.7187 238.58 51.9607 238.123 52.2295C238.015 52.3101 237.881 52.4714 237.881 52.579C237.854 54.7834 237.881 56.9878 237.881 59.1653C237.881 59.2191 237.908 59.2459 237.934 59.3266C238.553 59.3266 239.171 59.3266 239.843 59.3266C239.843 59.6761 239.87 59.9987 239.843 60.2944C239.843 60.4019 239.682 60.5094 239.574 60.5632C239.09 60.832 238.607 61.074 238.149 61.3428C238.042 61.4235 237.908 61.5848 237.908 61.7192C237.908 63.9236 237.908 66.1549 237.908 68.3593C237.908 68.3861 237.934 68.413 237.961 68.4668C238.553 68.4668 239.171 68.4668 239.87 68.4668C239.87 68.8163 239.897 69.1389 239.843 69.4346C239.816 69.5421 239.682 69.6496 239.547 69.7303C239.01 70.026 238.445 70.3217 237.881 70.6174C237.881 72.6605 237.854 74.7036 237.881 76.7467C237.908 77.6876 237.209 78.6554 235.972 78.6823C233.418 78.6823 230.891 78.6823 228.337 78.6823C227.181 78.6823 226.401 77.9027 226.401 76.7198C226.401 74.838 226.401 72.9294 226.401 71.0475C226.401 70.6981 226.321 70.5099 225.998 70.4024C225.756 70.3217 225.568 70.1335 225.326 70.0529C224.546 69.784 224.251 69.327 224.52 68.4937ZM228.525 54.9984C228.552 56.9878 230.165 58.6007 232.154 58.5739C234.117 58.547 235.703 56.9071 235.703 54.9447C235.703 52.9822 234.036 51.3424 232.02 51.3692C230.111 51.3961 228.525 53.0629 228.525 54.9984ZM232.101 67.4721C234.09 67.4721 235.676 65.886 235.703 63.9236C235.73 61.9611 234.063 60.2675 232.101 60.2944C229.923 60.3481 228.498 62.1493 228.525 63.8967C228.579 65.9129 230.111 67.4721 232.101 67.4721ZM232.128 76.4241C234.117 76.4241 235.676 74.838 235.703 72.8487C235.73 70.9131 234.09 69.2464 232.128 69.2733C230.165 69.2733 228.579 70.8594 228.525 72.7949C228.498 74.8112 230.192 76.451 232.128 76.4241Z" fill="#EC7D66"/>
<path d="M234.332 47.7131C232.854 47.7131 231.402 47.7131 229.95 47.7131C230.031 47.0948 230.837 46.4227 231.671 46.2883C232.8 46.127 233.875 46.6916 234.332 47.7131Z" fill="#EC7D66"/>
<path d="M233.66 77.5532H230.649V81.9082H233.66V77.5532Z" fill="#EC7D66"/>
<path d="M114.541 129.691L130.698 186.579L142.501 228.567H151.209L138.631 129.691H114.541Z" fill="#331FA8"/>
<path d="M110.187 129.691C109.8 159.005 108.542 174.969 108.155 177.678C107.768 180.387 101.77 197.318 90.2563 228.567H99.1574C113.863 198.575 121.99 181.644 123.732 177.678C125.473 173.711 130.698 157.748 138.631 129.691H110.187Z" fill="#5435D6"/>
<path d="M89.4824 236.597L89.9662 227.213H99.3509C103.801 230.309 109.606 232.921 116.766 234.856V236.597H99.7379L93.9329 235.727V236.597H89.4824Z" fill="#EA6206"/>
<path d="M141.341 236.597L141.825 227.213H151.209C155.66 230.309 161.465 232.921 168.624 234.856V236.597H151.596L145.791 235.727V236.597H141.341Z" fill="#EA6206"/>
<path d="M122.765 77.2532C120.734 74.8345 119.282 71.8353 119.573 68.5459C120.25 58.9678 133.601 61.0963 136.117 65.9337C138.729 70.7711 138.439 83.0581 135.053 83.8321C133.698 84.219 130.892 83.3483 127.99 81.6068L129.828 94.4743H119.089L122.765 77.2532Z" fill="#EA6206"/>
<path d="M124.894 61.7736C130.312 59.9354 137.278 62.0638 136.311 66.5142C135.73 69.3199 132.441 70.7711 129.248 72.2223C128.764 71.4484 127.893 70.8679 126.829 70.8679C125.281 70.8679 124.12 72.0288 124.12 73.5768C124.12 74.1573 124.313 74.641 124.604 75.028C123.539 75.9955 122.766 77.0597 122.572 78.511C120.831 78.511 118.025 73.3833 118.992 68.5459C118.702 68.5459 118.509 68.5459 118.218 68.5459C114.542 68.5459 111.542 65.5467 111.542 61.8703C111.542 58.1939 114.542 55.1947 118.218 55.1947C121.895 55.1947 124.797 58.0971 124.894 61.7736Z" fill="#AA1707"/>
<path d="M137.665 74.0605C137.858 75.8987 139.503 77.1564 139.6 78.9946C138.729 79.2849 137.761 79.0914 136.794 79.0914" fill="#EA6206"/>
<path d="M134.376 73.3831C134.085 73.5766 133.892 73.9636 133.989 74.3506C134.279 74.4474 134.472 74.5441 134.763 74.4474C134.859 74.2539 134.859 73.7701 134.763 73.4799C134.569 73.3831 134.279 73.1896 134.182 73.1896" fill="#AA1707"/>
<path d="M137.181 80.4458C136.601 80.5425 136.02 80.5425 135.44 80.4458C134.859 80.4458 134.279 80.349 133.698 80.4458L133.892 80.1555C133.892 80.2523 134.085 80.4457 134.279 80.6392C134.472 80.8327 134.763 80.9295 134.956 81.0262C135.44 81.3165 135.924 81.51 136.407 81.897C135.924 81.7035 135.343 81.6067 134.859 81.4132C134.569 81.3165 134.376 81.2197 134.085 81.0262C133.892 80.8327 133.505 80.6392 133.505 80.2522V80.0587H133.795C134.376 79.962 135.053 80.0588 135.537 80.1555L137.181 80.4458Z" fill="#AA1707"/>
<path d="M133.118 72.4157C133.408 72.2222 133.699 72.0287 134.086 71.932C134.279 71.932 134.473 71.8352 134.666 71.932C134.86 71.932 135.053 72.0287 135.15 72.2222C134.763 72.2222 134.473 72.319 134.182 72.4157C133.892 72.5125 133.505 72.6092 133.118 72.4157Z" fill="#AA1707"/>
<path d="M157.886 118.758L172.205 113.437C176.365 108.89 178.687 107.052 179.171 107.826C179.848 108.987 178.3 109.954 178.59 110.921C178.88 111.792 181.589 111.792 184.105 111.695C186.62 111.599 185.846 112.663 185.266 113.243C182.654 114.695 179.364 115.856 175.397 116.726L160.788 126.691L157.886 118.758ZM97.6104 126.208H106.995C101.19 144.88 98.0941 154.748 97.6104 155.813C96.5461 158.425 98.7714 162.295 99.7389 164.423C96.6429 165.778 97.0299 160.747 93.1599 162.488C89.6768 164.133 86.9679 167.035 82.9044 164.617C82.4206 164.326 81.8401 163.165 83.1946 162.198C86.4841 159.973 91.2249 156.006 91.9021 154.652C92.7729 153.007 94.7079 143.429 97.6104 126.208Z" fill="#EA6206"/>
<path d="M126.442 86.7344L130.312 86.0571C138.729 94.184 142.212 113.824 147.824 116.436C153.145 118.855 160.691 116.533 169.592 113.34L172.301 119.435C164.174 128.239 146.856 135.689 139.89 131.432C128.667 124.66 126.055 100.473 126.442 86.7344Z" fill="#E83D0F"/>
<path d="M107.382 135.592H141.825C133.891 116.243 129.828 99.6986 129.828 86.1539L119.476 84.606C111.252 97.6669 108.93 113.921 107.382 135.592Z" fill="#F5D1C3"/>
<path d="M119.186 84.606H119.863C120.637 84.606 121.895 84.7027 123.54 84.7995L126.055 91.9588C126.346 100.666 127.894 118.371 130.699 144.88H108.156C108.253 146.718 108.35 148.556 108.447 150.395H91.709C94.2245 122.047 103.416 100.086 119.186 84.606Z" fill="#EA6206"/>
<path d="M109.704 121.37C110.382 132.786 111.93 140.623 114.542 144.977H108.253C107.963 136.753 108.447 128.917 109.704 121.37Z" fill="#E83D0F"/>
<path d="M113.187 131.142L124.313 125.917V131.142H113.187Z" fill="#FCF4EF"/>
<path d="M75.3018 83.7605L73.9911 73.7689C73.9468 73.4264 73.8694 73.0882 73.7631 72.7854C73.2888 71.454 71.845 67.5574 69.7498 63.6819C69.4177 63.0601 68.9569 62.7399 68.5281 62.7955L52.297 64.8973C52.297 64.8973 48.0456 66.7774 43.7143 74.9039C43.4863 75.3449 43.1722 75.6388 42.8174 75.7481C40.9358 76.3716 34.7414 78.7882 35.352 84.2804L35.2611 84.3555C34.885 84.6891 34.7343 85.4684 34.8597 86.3068C35.1148 87.8882 35.5818 90.3285 36.096 90.6734C36.5528 90.9625 37.7305 91.3798 38.6282 91.7067C38.9947 91.8175 39.2766 91.2745 39.1879 90.5896L39.0388 89.4377C38.5227 85.4526 39.8192 81.8659 41.9427 81.6859C43.9961 81.4833 46.0569 84.4453 46.5568 88.3059L46.8229 90.3606C46.8794 90.7965 47.1052 91.1155 47.3361 91.0856L64.7713 88.8278C65.0682 88.7894 65.2427 88.3236 65.1702 87.7632L64.9565 86.1131C64.4404 82.1281 65.737 78.5414 67.8604 78.3614C69.9139 78.1588 71.9746 81.1208 72.4745 84.9813L72.7245 86.9116C72.789 87.4097 73.0518 87.7555 73.2993 87.7235L75.4436 87.4458C75.6745 87.4159 75.8813 87.1992 75.9854 86.8375C76.2017 86.1764 76.2519 84.4921 75.3018 83.7605Z" fill="#E83D0F"/>
<path d="M72.7286 86.9427L72.4786 85.0124C71.9746 81.1208 69.9179 78.1899 67.8645 78.3925C67.7985 78.4011 67.749 78.4075 67.683 78.416L67.4561 78.4771C65.5871 79.0673 64.4808 82.4394 64.9605 86.1443L65.1742 87.7943C65.2347 88.2613 65.1181 88.6563 64.9033 88.8107L73.1838 87.7384C72.9778 87.7018 72.785 87.3786 72.7286 86.9427Z" fill="#5435D6"/>
<path d="M46.8307 90.423L46.5646 88.3682C46.0606 84.4765 44.0039 81.5456 41.9505 81.7482C39.831 81.9594 38.5305 85.5149 39.0465 89.5L39.1957 90.6519C39.2602 91.1501 39.1436 91.545 38.9288 91.6995L47.3439 91.1479C47.1129 91.1778 46.8831 90.8277 46.8307 90.423Z" fill="#5435D6"/>
<path d="M43.676 95.1999C41.8176 95.4406 39.9428 92.7921 39.4885 89.2845C39.0343 85.7768 40.1726 82.7382 42.031 82.4976C43.8894 82.2569 45.7642 84.9053 46.2185 88.413C46.6727 91.9206 45.5344 94.9593 43.676 95.1999Z" fill="#FF8F43"/>
<path d="M43.3733 92.8649C42.1981 93.0171 41.0126 91.3424 40.7253 89.1243C40.4381 86.9062 41.1579 84.9847 42.3331 84.8326C43.5083 84.6804 44.6938 86.3551 44.981 88.5732C45.2683 90.7913 44.5485 92.7128 43.3733 92.8649Z" fill="#5435D6"/>
<path d="M43.1193 90.9035C42.518 90.9814 41.9115 90.1245 41.7645 88.9897C41.6176 87.8549 41.9859 86.8718 42.5871 86.7939C43.1884 86.7161 43.7949 87.5729 43.9419 88.7077C44.0888 89.8426 43.7206 90.8257 43.1193 90.9035Z" fill="#F9AA75"/>
<path d="M69.5236 91.8527C67.6652 92.0934 65.7904 89.445 65.3362 85.9373C64.8819 82.4297 66.0202 79.3911 67.8787 79.1504C69.7371 78.9098 71.6119 81.5582 72.0661 85.0658C72.5204 88.5735 71.3821 91.6121 69.5236 91.8527Z" fill="#FF8F43"/>
<path d="M69.2209 89.5178C68.0458 89.67 66.8602 87.9953 66.573 85.7772C66.2857 83.5591 67.0056 81.6376 68.1807 81.4854C69.3559 81.3333 70.5414 83.008 70.8287 85.2261C71.1159 87.4442 70.3961 89.3657 69.2209 89.5178Z" fill="#5435D6"/>
<path d="M68.967 87.5564C68.3657 87.6342 67.7591 86.7774 67.6122 85.6425C67.4652 84.5077 67.8335 83.5246 68.4348 83.4468C69.036 83.3689 69.6426 84.2257 69.7895 85.3606C69.9365 86.4954 69.5682 87.4785 68.967 87.5564Z" fill="#F9AA75"/>
<path d="M63.9244 65.3227L64.755 71.7361C64.8154 72.2031 65.0577 72.5199 65.2927 72.5211L69.787 72.1291C70.0839 72.0906 70.2298 71.5336 70.0788 71.015L68.2304 64.5118C68.1325 64.1446 67.9188 63.919 67.7209 63.9447L64.2404 64.3954C64.0135 64.4564 63.8639 64.8557 63.9244 65.3227Z" fill="#F9AA75"/>
<path d="M37.8584 79.9357C37.1201 80.0629 35.9973 80.5882 35.773 82.6115C35.7349 82.9647 35.9317 83.319 36.1091 83.2644C36.7444 83.1188 37.9742 82.643 38.3701 81.1673C38.4995 80.6124 38.1883 79.893 37.8584 79.9357Z" fill="#F5D1C3"/>
<path d="M35.5642 87.8617L35.9633 89.5194C36.0733 89.98 36.3321 90.2947 36.596 90.2605C36.8104 90.2328 36.9391 89.9312 36.9402 89.5512L36.9333 87.6844C36.9259 87.3688 36.7742 87.1036 36.6092 87.1249L35.7185 87.2403C35.5701 87.2595 35.4909 87.5547 35.5642 87.8617Z" fill="#E83D0F"/>
<path d="M73.3007 74.3964L73.6917 77.4163C73.7603 77.9456 74.0436 78.3204 74.3075 78.2862L74.5715 78.252L73.9909 73.7689C73.9748 73.6443 73.9546 73.4887 73.922 73.3663L73.6746 73.3983C73.4147 73.4636 73.2362 73.8983 73.3007 74.3964Z" fill="#F9AA75"/>
<path d="M44.9436 74.5548C46.2559 72.6438 48.9186 68.4687 51.5469 66.2291C51.6667 66.1186 52.3185 65.9709 52.4504 65.9538L53.4566 65.8235C53.836 65.7743 54.226 66.3253 54.3187 67.0414L55.0485 72.6765C55.1291 73.2991 54.9297 73.8314 54.5998 73.8742L45.0987 75.1045C44.9337 75.1259 44.8153 74.7297 44.9436 74.5548Z" fill="#F9AA75"/>
<path d="M55.1648 66.7102L55.9268 72.5943C56.0034 73.1859 56.3318 73.6498 56.6452 73.6092L63.3917 72.7356C63.7051 72.695 63.9045 72.1627 63.8279 71.5712L63.0659 65.687C62.9893 65.0955 62.6609 64.6315 62.3475 64.6721L55.601 65.5457C55.2711 65.5885 55.0882 66.1186 55.1648 66.7102Z" fill="#F9AA75"/>
<path d="M47.3443 91.1479L64.7795 88.8901C65.0764 88.8516 65.2509 88.3859 65.1783 87.8255L64.9647 86.1754C64.7671 84.6499 64.8415 83.1524 65.1172 81.9138L45.3726 84.4706C45.9342 85.5692 46.359 86.907 46.5525 88.4014L46.8186 90.4562C46.8835 90.8277 47.1133 91.1778 47.3443 91.1479Z" fill="#5435D6"/>
<path d="M72.4787 85.0124L72.7287 86.9427C72.7932 87.4408 73.056 87.7866 73.3034 87.7546L75.4478 87.4769C75.6787 87.447 75.8854 87.2303 75.9895 86.8686C76.2142 86.1431 76.2645 84.4589 75.3019 83.7605L74.8947 80.616L71.2988 81.0817C71.8603 82.1802 72.2852 83.518 72.4787 85.0124Z" fill="#5435D6"/>
<path d="M36.1042 90.7357C36.5609 91.0248 37.7386 91.4421 38.6363 91.769C39.0029 91.8798 39.2848 91.3368 39.1961 90.6519L39.0469 89.5C38.8413 87.9122 38.9282 86.3815 39.2328 85.1075L35.1204 84.5637C34.8514 84.9468 34.7381 85.6262 34.8638 86.338C35.1229 87.9505 35.5899 90.3908 36.1042 90.7357Z" fill="#5435D6"/>
<path d="M347.654 28.9728L342.638 28.3325C341.884 28.2452 341.188 27.9251 340.637 27.4304C338.694 25.7716 332.779 21.9302 320.05 21.9302C320.05 21.9302 314.251 21.6101 308.944 23.1525C308.335 23.3271 307.784 23.5599 307.233 23.88C305.233 24.9859 299.926 27.896 298.854 28.2452C297.549 28.6526 291.401 29.031 289.285 29.4384C287.168 29.8458 282.152 31.5628 282.152 34.0655V36.8302C282.152 37.0048 282.529 38.8382 282.529 38.8382L283.312 39.2165C283.283 40.0895 283.978 40.7879 284.848 40.7879H289.749C289.749 37.2667 292.59 34.4438 296.07 34.4438C299.578 34.4438 302.391 37.2958 302.391 40.7879H330.662C330.662 37.2667 333.504 34.4438 336.984 34.4438C340.492 34.4438 343.305 37.2958 343.305 40.7879L349.597 39.8567V31.1845C349.626 30.0786 348.785 29.1183 347.654 28.9728Z" fill="#FF8F43"/>
<path d="M296.07 34.4438C292.561 34.4438 289.749 37.2958 289.749 40.788V42.7669H302.391V40.788C302.391 37.2958 299.549 34.4438 296.07 34.4438Z" fill="#AA1707"/>
<path d="M336.984 34.4438C333.475 34.4438 330.662 37.2958 330.662 40.788V42.7669H343.305V40.788C343.305 37.2958 340.492 34.4438 336.984 34.4438Z" fill="#AA1707"/>
<path d="M288.56 31.5628C288.792 31.3882 288.676 31.0389 288.415 30.9807C287.69 30.8352 286.501 30.9516 285.428 31.3591C284.732 31.621 283.282 32.6977 282.934 34.0073C282.876 34.211 283.079 34.3565 283.253 34.2983C284.297 33.8909 287.11 32.7559 288.56 31.5628Z" fill="#FCF4EF"/>
<path d="M286.588 38.4307H285.196C284.993 38.4307 284.819 38.2561 284.819 38.0524C284.819 37.8487 284.993 37.6741 285.196 37.6741H286.588C286.791 37.6741 286.965 37.8487 286.965 38.0524C286.936 38.2561 286.791 38.4307 286.588 38.4307Z" fill="#FF8F43"/>
<path d="M349.626 31.912C349.075 31.8829 348.147 31.8538 347.364 31.912C346.697 31.9411 346.32 32.6977 346.668 33.2506L347.19 34.0946C347.364 34.3565 347.625 34.5311 347.944 34.5311H349.626V31.912Z" fill="#EA6206"/>
<path d="M296.07 46.4336C292.963 46.4336 290.444 43.906 290.444 40.7879C290.444 37.6699 292.963 35.1423 296.07 35.1423C299.176 35.1423 301.695 37.6699 301.695 40.7879C301.695 43.906 299.176 46.4336 296.07 46.4336Z" fill="#AA1707"/>
<path d="M296.07 44.6585C293.94 44.6585 292.213 42.9256 292.213 40.788C292.213 38.6504 293.94 36.9175 296.07 36.9175C298.2 36.9175 299.926 38.6504 299.926 40.788C299.926 42.9256 298.2 44.6585 296.07 44.6585Z" fill="#EA6206"/>
<path d="M296.07 42.0393C295.381 42.0393 294.823 41.479 294.823 40.7879C294.823 40.0968 295.381 39.5366 296.07 39.5366C296.758 39.5366 297.316 40.0968 297.316 40.7879C297.316 41.479 296.758 42.0393 296.07 42.0393Z" fill="#FF8F43"/>
<path d="M336.984 46.4336C333.877 46.4336 331.358 43.906 331.358 40.7879C331.358 37.6699 333.877 35.1423 336.984 35.1423C340.09 35.1423 342.609 37.6699 342.609 40.7879C342.609 43.906 340.09 46.4336 336.984 46.4336Z" fill="#AA1707"/>
<path d="M336.983 44.6585C334.853 44.6585 333.127 42.9256 333.127 40.788C333.127 38.6504 334.853 36.9175 336.983 36.9175C339.113 36.9175 340.84 38.6504 340.84 40.788C340.84 42.9256 339.113 44.6585 336.983 44.6585Z" fill="#EA6206"/>
<path d="M336.984 42.0393C336.295 42.0393 335.737 41.479 335.737 40.7879C335.737 40.0968 336.295 39.5366 336.984 39.5366C337.672 39.5366 338.23 40.0968 338.23 40.7879C338.23 41.479 337.672 42.0393 336.984 42.0393Z" fill="#FF8F43"/>
<path d="M308.712 23.3561C308.596 23.3561 308.48 23.3852 308.335 23.3852C307.958 23.5307 307.581 23.7054 307.233 23.88C305.32 24.9276 300.39 27.6341 299.027 28.1579C302.217 27.5759 307.233 24.5784 308.77 23.618C308.944 23.5598 308.857 23.3561 308.712 23.3561Z" fill="#F9C19B"/>
<path d="M330.691 40.0604H302.333C302.362 40.2932 302.362 40.5552 302.362 40.788H330.662C330.662 40.5552 330.662 40.2932 330.691 40.0604Z" fill="#FF8F43"/>
<path d="M301.724 29.1474C301.579 29.1474 301.521 28.9728 301.637 28.8855C303.261 27.6923 310.365 23.0069 319.76 23.1525C319.76 23.1525 331.648 22.2794 337.129 28.0997C337.245 28.2161 337.129 28.4198 336.955 28.4198L301.724 29.1474Z" fill="#EA6206"/>
<path d="M317.034 24.4329V27.8087C317.034 28.0415 316.86 28.2161 316.628 28.2161H304.682C304.537 28.2161 304.45 28.0124 304.595 27.9251C306.103 26.9938 311.177 24.171 316.657 24.1128C316.889 24.0837 317.034 24.2292 317.034 24.4329Z" fill="#F9C19B"/>
<path d="M319.122 24.5493V27.6632C319.122 27.9542 319.354 28.187 319.644 28.187L330.401 27.896C330.691 27.896 330.894 27.6632 330.894 27.3722V25.6261C330.894 25.3933 330.749 25.1895 330.517 25.1313C329.212 24.753 324.631 23.6472 319.557 24.0546C319.325 24.0546 319.122 24.2874 319.122 24.5493Z" fill="#F9C19B"/>
<path d="M331.648 25.9171V27.6632C331.648 27.7796 331.735 27.8669 331.851 27.8669L334.577 27.7505C334.78 27.7505 334.838 27.4886 334.693 27.3722C334.084 26.9066 332.953 26.1208 331.909 25.7134C331.793 25.6843 331.648 25.7716 331.648 25.9171Z" fill="#F9C19B"/>
<path d="M330.662 40.788C330.662 40.788 330.633 42.0393 331.068 42.7669C331.068 42.796 301.898 42.7669 301.898 42.7669C301.898 42.7669 302.449 41.6901 302.391 40.788H330.662Z" fill="#AA1707"/>
<path d="M289.749 40.788C289.749 40.5552 289.778 40.2932 289.778 40.0604H287.777C287.516 40.0604 287.284 39.9149 287.168 39.6821L287.023 39.362C286.878 39.0419 286.559 38.8382 286.24 38.8382H283.109L282.819 38.8091C281.92 38.8091 281.195 39.5075 281.195 40.4097V41.661C281.195 42.3594 281.775 42.9415 282.471 42.9124L290.155 42.7378C290.155 42.7669 289.778 42.0393 289.749 40.788Z" fill="#AA1707"/>
<path d="M350.409 38.4307C350.409 38.0524 350.09 37.7323 349.713 37.7323H345.508C345.131 37.7323 344.754 37.936 344.551 38.2852L343.218 40.5843C343.16 40.7007 343.102 40.8462 343.102 40.9917V42.243C343.102 42.6214 343.421 42.9415 343.798 42.9415H348.843C349.162 42.9415 349.452 42.7378 349.539 42.4177L350.38 39.2456C350.38 39.1874 350.409 39.1583 350.409 39.1001V38.4307Z" fill="#AA1707"/>
</svg>
