<svg width="329" height="254" viewBox="0 0 329 254" fill="none" xmlns="http://www.w3.org/2000/svg">
<path d="M6.18244 67.101C3.53287 67.9876 0 68.8741 0 65.3279C0.883191 60.8951 4.41604 60.0086 7.9488 59.122C9.71518 59.122 11.4815 59.122 14.1311 59.122C16.7807 60.0086 21.1966 60.8951 22.963 57.3489C22.963 57.3489 22.9631 56.4624 23.8463 56.4624H24.7294C26.4958 56.4624 29.1453 55.5758 30.9117 56.4624C33.5613 57.3489 36.2109 63.5548 37.9772 65.3279L42.3932 62.6682C44.1596 61.7817 45.926 62.6682 46.8091 64.4414C48.5755 63.5548 50.342 62.6683 52.1083 61.7817C52.1083 62.6683 52.9915 64.4414 53.8747 64.4414C54.7579 64.4414 59.1738 64.4414 60.057 63.5548C60.057 64.4414 57.4075 60.0086 56.5243 59.122C55.6411 54.6893 57.4075 51.1431 54.7579 45.8237C53.8748 44.0506 52.9915 42.2775 52.1083 40.5044C52.1083 37.8447 52.1083 36.9582 51.2251 35.1851C52.1083 34.2985 52.9915 35.1851 53.8747 35.1851C54.7579 36.0717 55.6411 36.0716 56.5243 36.0716C58.2907 36.0716 60.057 34.2985 61.8234 35.1851C62.7066 35.1851 62.7066 36.0717 62.7066 36.9582C62.7066 36.9582 62.7066 37.8448 61.8234 37.8448C60.9402 39.6179 61.8234 40.5044 62.7066 42.2775L63.5899 43.1641C64.473 43.1641 64.473 43.1641 65.3562 44.0506C70.6554 44.9372 77.7209 48.4834 83.02 45.8237C83.9032 44.9372 86.5527 43.1641 88.3191 43.1641C86.5527 43.1641 85.6696 40.5044 85.6696 38.7313C85.6696 36.9582 87.436 35.1851 89.2023 34.2985C95.3847 30.7523 104.217 31.6389 107.749 25.433C108.633 24.5464 108.633 23.6599 109.516 22.7733C110.399 21.8868 112.165 21.8868 112.165 23.6599C110.399 20.1137 110.399 15.6809 110.399 11.2482C110.399 8.58849 110.399 5.92884 112.165 4.15573C113.932 1.49607 117.465 1.49608 120.997 1.49608C122.764 1.49608 127.18 -1.1636 128.946 0.609502C130.712 2.38261 128.946 10.3616 134.245 8.5885C135.128 8.5885 136.011 6.81538 137.778 6.81538C139.544 6.81538 139.544 8.58848 140.427 9.47504C140.427 11.2481 140.427 12.1347 142.194 13.0213C143.077 13.9078 144.843 13.0213 145.727 13.9078C147.493 13.9078 149.259 16.5675 148.376 18.3406C151.026 16.5675 155.442 17.454 158.091 20.1137C157.208 20.1137 157.208 21.8868 157.208 22.7733C157.208 23.6599 158.091 25.433 157.208 26.3196C159.858 28.9792 165.157 27.2061 166.923 23.6599C166.923 23.6599 166.923 22.7733 167.806 22.7733C168.689 21.8868 170.456 22.7733 170.456 24.5465C170.456 25.433 169.573 27.2061 169.573 28.0927C169.573 30.7523 172.222 32.5254 174.872 34.2985C177.521 35.1851 180.171 36.9582 181.054 39.6179C181.937 38.7313 183.704 37.8447 185.47 38.7313C187.236 38.7313 188.12 39.6179 189.886 39.6179C193.419 40.5044 198.718 38.7313 200.484 41.391C201.368 42.2775 201.368 44.0506 202.251 44.9372C203.134 45.8237 204.017 47.5968 205.784 46.7103C206.667 46.7103 206.667 45.8237 207.55 45.8237C209.316 45.8237 210.2 47.5968 211.083 47.5968C212.849 47.5968 214.615 45.8237 216.382 46.7103C217.265 46.7103 217.265 47.5968 218.148 47.5968C221.681 50.2565 226.097 49.3699 230.513 51.1431C226.097 57.3489 222.564 65.3279 220.798 73.3069C219.915 77.7397 219.915 81.2859 219.915 85.7187C219.915 88.3783 219.915 90.1514 219.031 91.9245C216.382 96.3573 211.966 89.2649 209.316 94.5842C210.2 94.5842 211.083 94.5842 211.966 94.5842C210.199 98.1304 208.433 100.79 205.784 103.45C204.017 104.336 203.134 106.109 202.251 106.996C201.368 107.882 201.368 109.656 201.368 110.542C200.484 113.202 196.952 114.975 196.068 118.521C195.185 122.067 197.835 124.727 193.419 127.387C194.302 128.273 196.952 128.273 197.835 126.5C198.718 124.727 199.601 123.84 200.484 122.067C203.134 119.408 208.433 120.294 209.316 123.84C210.2 125.614 209.316 127.387 210.199 128.273C211.083 129.16 211.966 130.046 211.966 130.933C212.849 131.819 212.849 132.706 211.966 133.593C211.966 133.593 211.083 134.479 210.199 134.479C208.433 136.252 209.316 138.912 211.083 140.685C212.849 142.458 214.615 144.231 215.499 146.004C215.499 147.777 214.615 150.437 212.849 151.324C211.083 152.21 208.433 153.097 206.667 153.983C205.784 153.983 212.849 161.076 212.849 161.962C215.499 165.508 212.849 165.508 211.966 169.055C211.083 171.714 212.849 174.374 214.615 176.147C217.265 178.807 220.798 179.693 223.447 178.807C228.746 177.92 227.863 181.466 226.097 185.013C224.331 188.559 221.681 191.219 218.148 192.992C218.148 194.765 216.382 196.538 214.615 196.538C214.615 197.424 213.732 199.198 212.849 200.084C211.966 200.971 210.2 200.971 209.316 202.744C209.316 202.744 208.433 203.63 208.433 204.517C208.433 204.517 208.433 205.403 209.316 205.403C209.316 206.29 209.316 207.176 207.55 208.063C206.667 208.063 205.784 208.063 204.9 208.95C204.017 208.95 203.134 209.836 203.134 210.723C203.134 207.176 199.601 211.609 198.718 212.496C196.952 210.723 194.302 210.723 192.536 212.496C190.769 209.836 187.236 208.063 183.704 208.063C182.821 207.176 182.821 206.29 182.821 205.403C179.288 205.403 175.755 204.517 173.105 202.744C173.105 203.63 173.106 204.517 173.989 204.517C172.222 205.403 169.573 205.403 167.806 204.517C167.806 203.63 168.69 202.744 169.573 202.744C166.923 202.744 164.274 201.857 161.624 201.857C160.741 201.857 159.858 201.857 159.858 200.971L158.974 200.084C158.091 200.084 158.091 200.084 157.208 200.084C151.909 203.63 146.61 207.176 141.311 210.723C140.427 211.609 139.544 211.609 138.661 211.609C138.661 211.609 138.661 211.609 137.778 211.609C136.895 211.609 137.778 212.496 137.778 212.496L138.661 213.382V214.269C138.661 217.815 138.661 221.361 138.661 224.908C138.661 225.794 138.661 225.794 138.661 225.794C138.661 226.681 139.544 226.681 140.427 227.567C141.311 228.454 141.311 229.34 140.427 229.34C139.544 229.34 139.544 229.34 139.544 228.454C138.661 227.567 136.895 227.567 135.128 228.454L128.946 232C127.18 229.34 123.647 228.454 120.997 230.227C120.114 230.227 120.114 231.113 119.231 231.113C118.348 231.113 117.465 230.227 116.581 230.227C113.049 226.681 112.165 224.908 107.749 223.134C102.45 221.361 98.0342 219.588 92.735 217.815C93.6182 218.702 92.7351 220.475 90.9687 221.361C89.2023 222.248 88.3192 222.248 87.436 222.248C83.9032 222.248 80.3705 222.248 76.8377 220.475C75.9545 219.588 75.0713 218.702 74.1881 218.702C72.4217 217.815 69.7722 218.702 68.0058 217.815C67.1226 217.815 66.2394 216.929 65.3562 216.042C61.8234 213.382 57.4074 211.609 52.9915 210.723C52.1083 211.609 50.342 211.609 50.342 209.836C50.342 208.95 51.2252 208.95 52.1083 208.063C52.9915 206.29 50.3419 205.403 48.5755 204.517C41.51 203.63 47.6924 200.971 49.4587 198.311C52.1083 194.765 52.9915 189.445 53.8747 185.013C54.7579 179.693 56.5242 174.374 57.4074 168.168C58.2906 169.055 59.1739 169.055 60.9403 168.168C60.9403 167.282 60.0571 166.395 59.1739 166.395C58.2907 166.395 57.4074 167.282 57.4074 168.168C58.2906 161.076 59.1738 153.983 60.057 146.891C60.057 146.004 60.9402 144.231 61.8234 144.231C64.4729 148.664 68.8889 152.21 68.8889 156.643C69.7721 152.21 68.0058 147.777 65.3562 145.118C64.473 144.231 62.7066 143.345 61.8234 141.572C59.1738 138.912 58.2906 134.479 57.4074 130.933C60.057 131.819 60.9403 134.479 60.9403 137.139C60.9403 135.366 63.5898 135.366 62.7066 132.706C62.7066 130.933 61.8235 129.16 59.1739 128.273C57.4075 127.387 54.7579 126.5 53.8747 124.727C55.6411 124.727 56.5243 125.614 58.2907 126.5C60.057 127.387 61.8234 126.5 61.8234 125.614C56.5242 123.84 52.1083 120.294 48.5755 115.861C46.8091 113.202 45.0428 110.542 45.926 106.996C45.926 106.109 46.8091 104.336 46.8091 103.45C46.8091 102.563 45.0427 100.79 44.1595 101.677C45.0427 100.79 45.926 99.017 45.926 97.2438C44.1597 98.1304 42.3932 98.1304 40.6268 97.2438C40.6268 97.2438 39.7436 97.2438 39.7436 96.3573V95.4707C39.7436 93.6976 40.6268 91.9245 40.6268 91.038C37.9773 91.9245 35.3277 91.038 33.5613 89.2648C34.4445 89.2648 35.3277 89.2648 37.0941 89.2648C35.3277 87.4917 30.9118 88.3783 30.0286 91.038C30.0286 87.4917 27.3789 84.8321 24.7294 83.9455C22.0798 83.059 18.547 82.1724 15.8975 79.5128C14.1311 77.7397 11.4815 81.2859 9.71515 80.3993C8.83196 79.5128 7.9488 78.6262 7.9488 76.8531C7.06561 75.08 5.29917 73.3069 2.6496 73.3069C4.41598 73.3069 10.5984 72.4203 10.5984 70.6472C10.5984 69.7607 9.7151 68.8741 8.83191 68.8741C7.94872 68.8741 7.06564 68.8741 6.18244 69.7607C6.18244 68.8741 5.29915 67.101 4.41595 66.2145C7.06553 66.2145 8.83194 67.101 11.4815 67.101C10.5983 66.2145 9.71518 65.3279 7.9488 65.3279C6.18242 67.9876 6.18244 67.101 6.18244 67.101Z" fill="#3D2884"/>
<path fill-rule="evenodd" clip-rule="evenodd" d="M132.759 57.7634C131.932 57.7634 131.259 58.4364 131.259 59.2634C131.259 60.0904 131.932 60.7634 132.759 60.7634C133.586 60.7634 134.259 60.0904 134.259 59.2634C134.259 58.4364 133.586 57.7634 132.759 57.7634ZM132.759 62.7632C130.829 62.7632 129.259 61.1932 129.259 59.2632C129.259 57.3332 130.829 55.7632 132.759 55.7632C134.689 55.7632 136.259 57.3332 136.259 59.2632C136.259 61.1932 134.689 62.7632 132.759 62.7632ZM132.759 51.7633C128.348 51.7633 124.759 55.3173 124.759 59.6863C124.759 65.1603 131.808 71.2653 132.108 71.5223C132.296 71.6833 132.527 71.7633 132.759 71.7633C132.991 71.7633 133.222 71.6833 133.41 71.5223C133.71 71.2653 140.759 65.1603 140.759 59.6863C140.759 55.3173 137.17 51.7633 132.759 51.7633Z" fill="white"/>
<mask id="mask0" mask-type="alpha" maskUnits="userSpaceOnUse" x="124" y="51" width="17" height="21">
<path fill-rule="evenodd" clip-rule="evenodd" d="M132.759 57.7634C131.932 57.7634 131.259 58.4364 131.259 59.2634C131.259 60.0904 131.932 60.7634 132.759 60.7634C133.586 60.7634 134.259 60.0904 134.259 59.2634C134.259 58.4364 133.586 57.7634 132.759 57.7634ZM132.759 62.7632C130.829 62.7632 129.259 61.1932 129.259 59.2632C129.259 57.3332 130.829 55.7632 132.759 55.7632C134.689 55.7632 136.259 57.3332 136.259 59.2632C136.259 61.1932 134.689 62.7632 132.759 62.7632ZM132.759 51.7633C128.348 51.7633 124.759 55.3173 124.759 59.6863C124.759 65.1603 131.808 71.2653 132.108 71.5223C132.296 71.6833 132.527 71.7633 132.759 71.7633C132.991 71.7633 133.222 71.6833 133.41 71.5223C133.71 71.2653 140.759 65.1603 140.759 59.6863C140.759 55.3173 137.17 51.7633 132.759 51.7633Z" fill="white"/>
</mask>
<g mask="url(#mask0)">
<rect x="120.759" y="49.7633" width="24" height="24" fill="white"/>
</g>
<path fill-rule="evenodd" clip-rule="evenodd" d="M49.8496 88.4037C49.0226 88.4037 48.3496 89.0767 48.3496 89.9037C48.3496 90.7307 49.0226 91.4037 49.8496 91.4037C50.6766 91.4037 51.3496 90.7307 51.3496 89.9037C51.3496 89.0767 50.6766 88.4037 49.8496 88.4037ZM49.8497 93.4035C47.9197 93.4035 46.3497 91.8335 46.3497 89.9035C46.3497 87.9735 47.9197 86.4035 49.8497 86.4035C51.7797 86.4035 53.3497 87.9735 53.3497 89.9035C53.3497 91.8335 51.7797 93.4035 49.8497 93.4035ZM49.8496 82.4036C45.4386 82.4036 41.8496 85.9576 41.8496 90.3266C41.8496 95.8006 48.8986 101.906 49.1986 102.163C49.3866 102.324 49.6176 102.404 49.8496 102.404C50.0816 102.404 50.3126 102.324 50.5006 102.163C50.8006 101.906 57.8496 95.8006 57.8496 90.3266C57.8496 85.9576 54.2606 82.4036 49.8496 82.4036Z" fill="white"/>
<mask id="mask1" mask-type="alpha" maskUnits="userSpaceOnUse" x="41" y="82" width="17" height="21">
<path fill-rule="evenodd" clip-rule="evenodd" d="M49.8496 88.4037C49.0226 88.4037 48.3496 89.0767 48.3496 89.9037C48.3496 90.7307 49.0226 91.4037 49.8496 91.4037C50.6766 91.4037 51.3496 90.7307 51.3496 89.9037C51.3496 89.0767 50.6766 88.4037 49.8496 88.4037ZM49.8497 93.4035C47.9197 93.4035 46.3497 91.8335 46.3497 89.9035C46.3497 87.9735 47.9197 86.4035 49.8497 86.4035C51.7797 86.4035 53.3497 87.9735 53.3497 89.9035C53.3497 91.8335 51.7797 93.4035 49.8497 93.4035ZM49.8496 82.4036C45.4386 82.4036 41.8496 85.9576 41.8496 90.3266C41.8496 95.8006 48.8986 101.906 49.1986 102.163C49.3866 102.324 49.6176 102.404 49.8496 102.404C50.0816 102.404 50.3126 102.324 50.5006 102.163C50.8006 101.906 57.8496 95.8006 57.8496 90.3266C57.8496 85.9576 54.2606 82.4036 49.8496 82.4036Z" fill="white"/>
</mask>
<g mask="url(#mask1)">
<rect x="37.8496" y="80.4036" width="24" height="24" fill="white"/>
</g>
<path fill-rule="evenodd" clip-rule="evenodd" d="M150.782 13.6052C149.955 13.6052 149.282 14.2782 149.282 15.1052C149.282 15.9322 149.955 16.6052 150.782 16.6052C151.609 16.6052 152.282 15.9322 152.282 15.1052C152.282 14.2782 151.609 13.6052 150.782 13.6052ZM150.782 18.605C148.852 18.605 147.282 17.035 147.282 15.105C147.282 13.175 148.852 11.605 150.782 11.605C152.712 11.605 154.282 13.175 154.282 15.105C154.282 17.035 152.712 18.605 150.782 18.605ZM150.782 7.6051C146.371 7.6051 142.782 11.1591 142.782 15.5281C142.782 21.0021 149.831 27.1071 150.131 27.3641C150.319 27.5251 150.55 27.6051 150.782 27.6051C151.014 27.6051 151.245 27.5251 151.433 27.3641C151.733 27.1071 158.782 21.0021 158.782 15.5281C158.782 11.1591 155.193 7.6051 150.782 7.6051Z" fill="white"/>
<mask id="mask2" mask-type="alpha" maskUnits="userSpaceOnUse" x="142" y="7" width="17" height="21">
<path fill-rule="evenodd" clip-rule="evenodd" d="M150.782 13.6052C149.955 13.6052 149.282 14.2782 149.282 15.1052C149.282 15.9322 149.955 16.6052 150.782 16.6052C151.609 16.6052 152.282 15.9322 152.282 15.1052C152.282 14.2782 151.609 13.6052 150.782 13.6052ZM150.782 18.605C148.852 18.605 147.282 17.035 147.282 15.105C147.282 13.175 148.852 11.605 150.782 11.605C152.712 11.605 154.282 13.175 154.282 15.105C154.282 17.035 152.712 18.605 150.782 18.605ZM150.782 7.6051C146.371 7.6051 142.782 11.1591 142.782 15.5281C142.782 21.0021 149.831 27.1071 150.131 27.3641C150.319 27.5251 150.55 27.6051 150.782 27.6051C151.014 27.6051 151.245 27.5251 151.433 27.3641C151.733 27.1071 158.782 21.0021 158.782 15.5281C158.782 11.1591 155.193 7.6051 150.782 7.6051Z" fill="white"/>
</mask>
<g mask="url(#mask2)">
<rect x="138.782" y="5.6051" width="24" height="24" fill="white"/>
</g>
<path fill-rule="evenodd" clip-rule="evenodd" d="M75.9839 152.388C75.1569 152.388 74.4839 153.061 74.4839 153.888C74.4839 154.715 75.1569 155.388 75.9839 155.388C76.8109 155.388 77.4839 154.715 77.4839 153.888C77.4839 153.061 76.8109 152.388 75.9839 152.388ZM75.984 157.388C74.054 157.388 72.484 155.818 72.484 153.888C72.484 151.958 74.054 150.388 75.984 150.388C77.914 150.388 79.484 151.958 79.484 153.888C79.484 155.818 77.914 157.388 75.984 157.388ZM75.9839 146.388C71.5729 146.388 67.9839 149.942 67.9839 154.311C67.9839 159.785 75.0329 165.89 75.3329 166.147C75.5209 166.308 75.7519 166.388 75.9839 166.388C76.2159 166.388 76.4469 166.308 76.6349 166.147C76.9349 165.89 83.9839 159.785 83.9839 154.311C83.9839 149.942 80.3949 146.388 75.9839 146.388Z" fill="white"/>
<mask id="mask3" mask-type="alpha" maskUnits="userSpaceOnUse" x="67" y="146" width="17" height="21">
<path fill-rule="evenodd" clip-rule="evenodd" d="M75.9839 152.388C75.1569 152.388 74.4839 153.061 74.4839 153.888C74.4839 154.715 75.1569 155.388 75.9839 155.388C76.8109 155.388 77.4839 154.715 77.4839 153.888C77.4839 153.061 76.8109 152.388 75.9839 152.388ZM75.984 157.388C74.054 157.388 72.484 155.818 72.484 153.888C72.484 151.958 74.054 150.388 75.984 150.388C77.914 150.388 79.484 151.958 79.484 153.888C79.484 155.818 77.914 157.388 75.984 157.388ZM75.9839 146.388C71.5729 146.388 67.9839 149.942 67.9839 154.311C67.9839 159.785 75.0329 165.89 75.3329 166.147C75.5209 166.308 75.7519 166.388 75.9839 166.388C76.2159 166.388 76.4469 166.308 76.6349 166.147C76.9349 165.89 83.9839 159.785 83.9839 154.311C83.9839 149.942 80.3949 146.388 75.9839 146.388Z" fill="white"/>
</mask>
<g mask="url(#mask3)">
<rect x="63.9839" y="144.388" width="24" height="24" fill="white"/>
</g>
<path fill-rule="evenodd" clip-rule="evenodd" d="M139.067 194.744C138.24 194.744 137.567 195.417 137.567 196.244C137.567 197.071 138.24 197.744 139.067 197.744C139.894 197.744 140.567 197.071 140.567 196.244C140.567 195.417 139.894 194.744 139.067 194.744ZM139.067 199.743C137.137 199.743 135.567 198.173 135.567 196.243C135.567 194.313 137.137 192.743 139.067 192.743C140.997 192.743 142.567 194.313 142.567 196.243C142.567 198.173 140.997 199.743 139.067 199.743ZM139.067 188.744C134.656 188.744 131.067 192.298 131.067 196.667C131.067 202.141 138.116 208.246 138.416 208.503C138.604 208.664 138.835 208.744 139.067 208.744C139.299 208.744 139.53 208.664 139.718 208.503C140.018 208.246 147.067 202.141 147.067 196.667C147.067 192.298 143.478 188.744 139.067 188.744Z" fill="white"/>
<mask id="mask4" mask-type="alpha" maskUnits="userSpaceOnUse" x="131" y="188" width="17" height="21">
<path fill-rule="evenodd" clip-rule="evenodd" d="M139.067 194.744C138.24 194.744 137.567 195.417 137.567 196.244C137.567 197.071 138.24 197.744 139.067 197.744C139.894 197.744 140.567 197.071 140.567 196.244C140.567 195.417 139.894 194.744 139.067 194.744ZM139.067 199.743C137.137 199.743 135.567 198.173 135.567 196.243C135.567 194.313 137.137 192.743 139.067 192.743C140.997 192.743 142.567 194.313 142.567 196.243C142.567 198.173 140.997 199.743 139.067 199.743ZM139.067 188.744C134.656 188.744 131.067 192.298 131.067 196.667C131.067 202.141 138.116 208.246 138.416 208.503C138.604 208.664 138.835 208.744 139.067 208.744C139.299 208.744 139.53 208.664 139.718 208.503C140.018 208.246 147.067 202.141 147.067 196.667C147.067 192.298 143.478 188.744 139.067 188.744Z" fill="white"/>
</mask>
<g mask="url(#mask4)">
<rect x="127.067" y="186.744" width="24" height="24" fill="white"/>
</g>
<path fill-rule="evenodd" clip-rule="evenodd" d="M136.364 136.166C135.537 136.166 134.864 136.839 134.864 137.666C134.864 138.493 135.537 139.166 136.364 139.166C137.191 139.166 137.864 138.493 137.864 137.666C137.864 136.839 137.191 136.166 136.364 136.166ZM136.364 141.166C134.434 141.166 132.864 139.596 132.864 137.666C132.864 135.736 134.434 134.166 136.364 134.166C138.294 134.166 139.864 135.736 139.864 137.666C139.864 139.596 138.294 141.166 136.364 141.166ZM136.364 130.166C131.953 130.166 128.364 133.72 128.364 138.089C128.364 143.563 135.413 149.668 135.713 149.925C135.901 150.086 136.132 150.166 136.364 150.166C136.596 150.166 136.827 150.086 137.015 149.925C137.315 149.668 144.364 143.563 144.364 138.089C144.364 133.72 140.775 130.166 136.364 130.166Z" fill="white"/>
<mask id="mask5" mask-type="alpha" maskUnits="userSpaceOnUse" x="128" y="130" width="17" height="21">
<path fill-rule="evenodd" clip-rule="evenodd" d="M136.364 136.166C135.537 136.166 134.864 136.839 134.864 137.666C134.864 138.493 135.537 139.166 136.364 139.166C137.191 139.166 137.864 138.493 137.864 137.666C137.864 136.839 137.191 136.166 136.364 136.166ZM136.364 141.166C134.434 141.166 132.864 139.596 132.864 137.666C132.864 135.736 134.434 134.166 136.364 134.166C138.294 134.166 139.864 135.736 139.864 137.666C139.864 139.596 138.294 141.166 136.364 141.166ZM136.364 130.166C131.953 130.166 128.364 133.72 128.364 138.089C128.364 143.563 135.413 149.668 135.713 149.925C135.901 150.086 136.132 150.166 136.364 150.166C136.596 150.166 136.827 150.086 137.015 149.925C137.315 149.668 144.364 143.563 144.364 138.089C144.364 133.72 140.775 130.166 136.364 130.166Z" fill="white"/>
</mask>
<g mask="url(#mask5)">
<rect x="124.364" y="128.166" width="24" height="24" fill="white"/>
</g>
<path fill-rule="evenodd" clip-rule="evenodd" d="M153.486 145.178C152.659 145.178 151.986 145.851 151.986 146.678C151.986 147.505 152.659 148.178 153.486 148.178C154.313 148.178 154.986 147.505 154.986 146.678C154.986 145.851 154.313 145.178 153.486 145.178ZM153.486 150.178C151.556 150.178 149.986 148.608 149.986 146.678C149.986 144.748 151.556 143.178 153.486 143.178C155.416 143.178 156.986 144.748 156.986 146.678C156.986 148.608 155.416 150.178 153.486 150.178ZM153.486 139.178C149.075 139.178 145.486 142.732 145.486 147.101C145.486 152.575 152.535 158.68 152.835 158.937C153.023 159.098 153.254 159.178 153.486 159.178C153.718 159.178 153.949 159.098 154.137 158.937C154.437 158.68 161.486 152.575 161.486 147.101C161.486 142.732 157.897 139.178 153.486 139.178Z" fill="white"/>
<mask id="mask6" mask-type="alpha" maskUnits="userSpaceOnUse" x="145" y="139" width="17" height="21">
<path fill-rule="evenodd" clip-rule="evenodd" d="M153.486 145.178C152.659 145.178 151.986 145.851 151.986 146.678C151.986 147.505 152.659 148.178 153.486 148.178C154.313 148.178 154.986 147.505 154.986 146.678C154.986 145.851 154.313 145.178 153.486 145.178ZM153.486 150.178C151.556 150.178 149.986 148.608 149.986 146.678C149.986 144.748 151.556 143.178 153.486 143.178C155.416 143.178 156.986 144.748 156.986 146.678C156.986 148.608 155.416 150.178 153.486 150.178ZM153.486 139.178C149.075 139.178 145.486 142.732 145.486 147.101C145.486 152.575 152.535 158.68 152.835 158.937C153.023 159.098 153.254 159.178 153.486 159.178C153.718 159.178 153.949 159.098 154.137 158.937C154.437 158.68 161.486 152.575 161.486 147.101C161.486 142.732 157.897 139.178 153.486 139.178Z" fill="white"/>
</mask>
<g mask="url(#mask6)">
<rect x="141.486" y="137.178" width="24" height="24" fill="white"/>
</g>
<g filter="url(#filter0_d)">
<path d="M244.774 29.9998H303.226C306.99 29.9998 310 33.1547 310 37.0983V78.9011C310 82.8448 306.99 85.9998 303.226 85.9998H244.774C241.01 85.9998 238 82.8448 238 78.9011V37.0983C238 33.1547 241.01 29.9998 244.774 29.9998Z" fill="white"/>
<path d="M260.064 46.9133L262.745 53.5588L287.066 57.8588L277.659 66.7031L252.363 58.7872L251.145 54.4872L258.456 45.3986L260.064 46.9133Z" fill="#3D2884"/>
<path d="M268.788 57.2726L270.689 58.0056C270.835 58.0544 270.932 58.2499 270.835 58.3965C270.542 59.1294 269.763 61.1328 270.055 62.8919C270.299 64.3578 270.932 65.726 271.371 66.459C271.566 66.801 271.468 67.2897 271.127 67.534C270.737 67.8272 270.152 67.6806 269.909 67.2408C269.226 65.8726 268.203 62.9408 269.129 59.1783C269.226 58.6896 269.129 58.201 268.739 57.8101L268.544 57.6146C268.495 57.5658 268.447 57.4681 268.495 57.4192C268.495 57.2726 268.642 57.2237 268.788 57.2726Z" fill="#705FA4"/>
<path d="M272.198 55.3686C272.247 55.222 272.247 55.0754 272.198 54.9777C272.15 54.8311 272.101 54.6356 272.003 54.5379L272.15 53.2674C272.198 52.7299 272.101 52.2413 271.809 51.8015L270.736 50.0913L270.444 50.1402C270.444 50.1402 270.541 50.8243 270.736 51.7527C271.029 51.7527 271.272 51.997 271.321 52.2902C271.37 52.5834 271.224 52.8765 270.931 52.9743C270.98 53.3163 271.077 53.7072 271.126 54.0981C271.077 54.0981 271.029 54.0981 270.98 54.0981C270.931 54.0981 270.882 54.147 270.834 54.147C270.785 53.7561 270.688 53.414 270.639 53.0231C270.346 52.9743 270.103 52.7788 270.054 52.4856C270.005 52.1924 270.151 51.8993 270.444 51.8015C270.298 50.8731 270.151 50.189 270.151 50.189L269.859 50.2379L269.42 52.2413C269.323 52.7299 269.372 53.2674 269.567 53.7561L270.151 54.9288C270.103 55.0754 270.103 55.2709 270.103 55.4174C270.103 55.564 270.2 55.7106 270.249 55.8083L269.664 57.6652L270.736 58.1049L271.224 56.3947V56.3458C271.272 56.3458 271.321 56.3458 271.37 56.3458C271.419 56.3458 271.467 56.297 271.516 56.297V56.3458L272.54 57.8118L273.417 57.0299L272.198 55.3686Z" fill="#A396C4"/>
<path d="M274.001 56.3443L272.491 57.7125C272.344 57.8102 272.344 58.0057 272.491 58.1523C273.027 58.7386 274.391 60.3511 274.733 62.1591C274.976 63.625 274.83 65.1398 274.684 65.9705C274.635 66.3614 274.879 66.7523 275.269 66.8989C275.756 67.0455 276.243 66.7034 276.292 66.2148C276.487 64.7 276.487 61.5727 274.343 58.3477C274.05 57.9079 274.05 57.4193 274.245 56.9307L274.391 56.6375C274.44 56.5886 274.44 56.4909 274.391 56.442C274.294 56.2954 274.099 56.2466 274.001 56.3443Z" fill="#705FA4"/>
<path d="M271.239 55.7421C271.583 55.6826 271.815 55.3543 271.755 55.0088C271.696 54.6633 271.369 54.4314 271.024 54.4908C270.679 54.5503 270.448 54.8786 270.507 55.2241C270.567 55.5697 270.894 55.8016 271.239 55.7421Z" fill="#705FA4"/>
<path d="M297.788 48.7237L291.062 51.118C290.769 51.2158 290.623 51.5578 290.721 51.8021L291.988 55.3203H292.036C292.329 55.4669 294.083 56.3953 294.62 56.7374L296.179 57.6169C296.325 57.7147 296.472 57.7147 296.618 57.6658L300.468 56.2976C301.004 56.1021 301.297 55.5158 301.102 54.9783L299.104 49.359C298.909 48.8215 298.324 48.5283 297.788 48.7237ZM299.883 54.9783L297.983 55.6624C297.349 55.8578 296.715 55.5646 296.472 54.9294L295.448 52.0465C295.253 51.4112 295.546 50.776 296.179 50.5317L298.08 49.8476L299.883 54.9783Z" fill="#897AB4"/>
<path d="M268.641 59.7186L290.719 51.8516L291.987 55.3698C291.987 55.3698 294.862 56.8845 294.716 56.9334C294.57 56.9823 293.741 59.23 293.741 59.23L293.108 58.4482L292.62 59.3766L291.938 58.6436L291.597 59.6209L290.866 58.8391L290.427 59.8652L289.745 59.0345L289.306 59.9629L288.575 59.23L288.185 60.2561L287.551 59.3766L287.161 60.4516L286.43 59.572L286.04 60.5982L285.309 59.8164L284.919 60.7448L284.188 59.9629L283.75 60.9891L283.116 60.1584L282.726 61.0868L282.044 60.4027L281.556 61.3311L280.874 60.5982L280.484 61.5266L279.802 60.7448L279.266 61.7709L278.681 60.9891L278.291 62.0641L277.511 61.2823L277.121 62.2595L276.39 61.4777L275.951 62.5039L275.269 61.722L274.782 62.7482L274.148 61.9664L273.758 62.8948L273.027 62.1618L272.637 63.0902L271.955 62.3573L271.565 63.2857L270.883 62.5527L270.346 63.3834L269.762 62.8459L268.641 59.7186Z" fill="#A396C4"/>
<path d="M292.363 52.318C292.565 52.2456 292.671 52.0222 292.599 51.8189C292.527 51.6157 292.304 51.5096 292.101 51.582C291.898 51.6544 291.792 51.8779 291.865 52.0811C291.937 52.2844 292.16 52.3904 292.363 52.318Z" fill="#3D2884"/>
<path d="M293.191 54.6109C293.394 54.5385 293.5 54.315 293.427 54.1118C293.355 53.9085 293.132 53.8025 292.93 53.8749C292.727 53.9473 292.621 54.1708 292.693 54.374C292.766 54.5773 292.988 54.6833 293.191 54.6109Z" fill="#3D2884"/>
<path d="M258.456 45.3986L249.488 56.0509L280.924 62.11L287.699 50.4315L258.456 45.3986ZM279.608 60.1554L252.705 55.0736L258.943 47.4508L284.482 51.9952L279.608 60.1554Z" fill="#897AB4"/>
<path d="M249.488 56.0531L251.437 65.8258L282.143 72.1781L280.924 62.1122L249.488 56.0531Z" fill="#564394"/>
<path d="M287.699 50.4352L280.924 62.1136L282.142 72.1795L290.428 69.1011L292.816 60.5011L287.699 50.4352Z" fill="#705FA4"/>
<path d="M246.174 53.1205C245.296 49.7 248.026 47.55 248.026 47.55L249.439 46.5239C249.537 46.475 249.634 46.475 249.732 46.5239C250.122 46.7194 250.609 46.6705 250.999 46.4262C251.389 46.133 251.584 45.6932 251.486 45.2534C251.486 45.1557 251.535 45.058 251.584 44.9603L252.851 44.0319C252.949 43.983 253.046 43.983 253.095 44.0807L254.557 46.133C254.606 46.2307 254.606 46.3285 254.508 46.3773L253.241 47.3057C253.143 47.3546 253.046 47.3546 252.949 47.3057C252.559 47.1103 252.071 47.1591 251.681 47.4035C251.633 47.4035 251.633 47.4523 251.584 47.4523C251.145 47.8432 251.096 48.5762 251.438 49.0648L251.73 49.4557L256.263 55.7103L253.485 55.1728L250.17 50.5307L249.683 49.8466C247.88 49.3091 246.856 51.8989 246.466 53.0716C246.417 53.2671 246.174 53.2671 246.174 53.1205Z" fill="#D6CDE4"/>
<path d="M276.878 59.8154L277.658 59.3267L278.097 60.0108L278.779 59.5711L278.194 58.6427L277.61 57.7142L276.927 58.154L277.366 58.887L276.099 59.6688" fill="#D6CDE4"/>
<path d="M278.974 56.8829L277.609 57.7136L278.779 59.5704L280.143 58.7397H280.728C281.021 58.7397 281.313 58.642 281.605 58.4954L285.456 56.1011C285.7 55.9545 285.797 55.6124 285.602 55.3681L285.017 54.4397L284.432 53.5113C284.286 53.267 283.945 53.1693 283.701 53.3647L279.851 55.759C279.607 55.9056 279.363 56.15 279.266 56.4431L278.974 56.8829Z" fill="#3D2884"/>
<path d="M284.631 55.005L280.66 57.4856L280.995 58.0247L284.966 55.5441L284.631 55.005Z" fill="#D6CDE4"/>
<path d="M283.953 53.9352L279.982 56.4158L280.317 56.9549L284.288 54.4743L283.953 53.9352Z" fill="#D6CDE4"/>
</g>
<g filter="url(#filter1_d)">
<path d="M248.021 182H299.979C303.324 182 306 184.704 306 188.084V223.915C306 227.296 303.324 230 299.979 230H248.021C244.676 230 242 227.296 242 223.915V188.084C242 184.704 244.676 182 248.021 182Z" fill="white"/>
<path d="M256.247 216.601V202.876L263.841 195.098L271.664 202.876V216.601H256.247Z" fill="#3D2884"/>
<path d="M293.065 203.104L285.241 195.098H263.841L271.664 203.104H293.065Z" fill="#EFE8F4"/>
<path d="M274.656 199.216H282.249L278.568 202.876L274.656 199.216Z" fill="#3D2884"/>
<path d="M293.065 202.876H286.161L282.25 199.216L278.568 202.876H271.665V216.601H293.065V202.876Z" fill="#705FA4"/>
<path d="M290.994 204.248H290.073V206.993H290.994V204.248Z" fill="white"/>
<path d="M286.852 204.248H285.931V206.993H286.852V204.248Z" fill="white"/>
<path d="M282.94 204.248H282.02V206.993H282.94V204.248Z" fill="white"/>
<path d="M278.798 204.248H277.877V206.993H278.798V204.248Z" fill="white"/>
<path d="M274.886 204.248H273.966V206.993H274.886V204.248Z" fill="white"/>
<path d="M290.994 209.052H290.073V211.797H290.994V209.052Z" fill="white"/>
<path d="M287.082 209.052H286.161V211.797H287.082V209.052Z" fill="white"/>
<path d="M282.94 209.052H282.02V211.797H282.94V209.052Z" fill="white"/>
<path d="M278.798 209.052H277.877V211.797H278.798V209.052Z" fill="white"/>
<path d="M274.886 209.052H273.966V211.797H274.886V209.052Z" fill="white"/>
</g>
<g filter="url(#filter2_d)">
<path d="M164.021 148H215.979C219.324 148 222 150.704 222 154.084V189.915C222 193.296 219.324 196 215.979 196H164.021C160.676 196 158 193.296 158 189.915V154.084C158 150.704 160.676 148 164.021 148Z" fill="white"/>
<path d="M170.701 169.383L173.799 168.986C174.265 168.932 174.694 168.733 175.035 168.426C176.234 167.398 179.888 165.017 187.749 165.017C187.749 165.017 191.33 164.818 194.607 165.775C194.983 165.883 195.323 166.027 195.664 166.226C196.899 166.911 200.176 168.715 200.839 168.932C201.645 169.184 205.441 169.419 206.748 169.671C208.055 169.924 211.153 170.988 211.153 172.54V174.253C211.153 174.362 210.92 175.498 210.92 175.498L210.437 175.733C210.455 176.274 210.025 176.707 209.488 176.707H206.462C206.462 174.524 204.707 172.774 202.558 172.774C200.391 172.774 198.654 174.542 198.654 176.707H181.195C181.195 174.524 179.44 172.774 177.291 172.774C175.124 172.774 173.387 174.542 173.387 176.707L169.501 176.13V170.754C169.484 170.068 170.003 169.473 170.701 169.383Z" fill="#BCB1D4"/>
<path d="M202.558 172.774C204.724 172.774 206.461 174.542 206.461 176.707V177.934H198.654V176.707C198.654 174.542 200.409 172.774 202.558 172.774Z" fill="#564394"/>
<path d="M177.291 172.774C179.458 172.774 181.195 174.542 181.195 176.707V177.934H173.387V176.707C173.387 174.542 175.124 172.774 177.291 172.774Z" fill="#564394"/>
<path d="M207.196 170.988C207.053 170.88 207.124 170.663 207.285 170.627C207.733 170.537 208.467 170.609 209.13 170.862C209.559 171.024 210.455 171.692 210.67 172.504C210.706 172.63 210.58 172.72 210.473 172.684C209.828 172.431 208.091 171.728 207.196 170.988Z" fill="#EFE8F4"/>
<path d="M208.413 175.246H209.273C209.398 175.246 209.506 175.137 209.506 175.011C209.506 174.885 209.398 174.777 209.273 174.777H208.413C208.288 174.777 208.181 174.885 208.181 175.011C208.199 175.137 208.288 175.246 208.413 175.246Z" fill="#564394"/>
<path d="M169.483 171.205C169.824 171.187 170.397 171.169 170.88 171.205C171.292 171.223 171.525 171.692 171.31 172.035L170.988 172.558C170.88 172.72 170.719 172.828 170.522 172.828H169.483V171.205Z" fill="#705FA4"/>
<path d="M202.558 180.207C204.477 180.207 206.032 178.64 206.032 176.707C206.032 174.774 204.477 173.207 202.558 173.207C200.639 173.207 199.084 174.774 199.084 176.707C199.084 178.64 200.639 180.207 202.558 180.207Z" fill="#A396C4"/>
<path d="M202.558 179.106C203.873 179.106 204.94 178.032 204.94 176.707C204.94 175.382 203.873 174.308 202.558 174.308C201.243 174.308 200.176 175.382 200.176 176.707C200.176 178.032 201.243 179.106 202.558 179.106Z" fill="#705FA4"/>
<path d="M202.558 177.483C202.983 177.483 203.328 177.135 203.328 176.707C203.328 176.279 202.983 175.931 202.558 175.931C202.132 175.931 201.788 176.279 201.788 176.707C201.788 177.135 202.132 177.483 202.558 177.483Z" fill="#564394"/>
<path d="M177.291 180.207C179.209 180.207 180.765 178.64 180.765 176.707C180.765 174.774 179.209 173.207 177.291 173.207C175.372 173.207 173.817 174.774 173.817 176.707C173.817 178.64 175.372 180.207 177.291 180.207Z" fill="#A396C4"/>
<path d="M177.291 179.106C178.606 179.106 179.672 178.032 179.672 176.707C179.672 175.382 178.606 174.308 177.291 174.308C175.975 174.308 174.909 175.382 174.909 176.707C174.909 178.032 175.975 179.106 177.291 179.106Z" fill="#705FA4"/>
<path d="M177.291 177.483C177.716 177.483 178.061 177.135 178.061 176.707C178.061 176.279 177.716 175.931 177.291 175.931C176.866 175.931 176.521 176.279 176.521 176.707C176.521 177.135 176.866 177.483 177.291 177.483Z" fill="#564394"/>
<path d="M194.75 165.901C194.822 165.901 194.893 165.919 194.983 165.919C195.216 166.009 195.449 166.117 195.663 166.225C196.845 166.875 199.89 168.553 200.731 168.877C198.761 168.517 195.663 166.658 194.714 166.063C194.607 166.027 194.661 165.901 194.75 165.901Z" fill="#BCB1D4"/>
<path d="M181.177 176.256H198.69C198.672 176.4 198.672 176.563 198.672 176.707H181.195C181.195 176.563 181.195 176.4 181.177 176.256Z" fill="#564394"/>
<path d="M199.066 169.491C199.155 169.491 199.191 169.383 199.119 169.328C198.117 168.589 193.729 165.684 187.928 165.775C187.928 165.775 180.586 165.233 177.201 168.841C177.13 168.914 177.201 169.04 177.309 169.04L199.066 169.491Z" fill="#A396C4"/>
<path d="M189.611 166.568V168.661C189.611 168.805 189.718 168.914 189.862 168.914H197.239C197.329 168.914 197.382 168.787 197.293 168.733C196.362 168.156 193.228 166.406 189.844 166.37C189.7 166.352 189.611 166.442 189.611 166.568Z" fill="#EFE8F4"/>
<path d="M188.322 166.64V168.571C188.322 168.751 188.178 168.895 187.999 168.895L181.356 168.715C181.177 168.715 181.051 168.571 181.051 168.39V167.308C181.051 167.164 181.141 167.037 181.284 167.001C182.09 166.767 184.919 166.081 188.053 166.334C188.196 166.334 188.322 166.478 188.322 166.64Z" fill="#EFE8F4"/>
<path d="M180.586 167.488V168.571C180.586 168.643 180.532 168.697 180.46 168.697L178.777 168.625C178.652 168.625 178.616 168.463 178.705 168.39C179.082 168.102 179.78 167.615 180.425 167.362C180.496 167.344 180.586 167.398 180.586 167.488Z" fill="#EFE8F4"/>
<path d="M181.195 176.707C181.195 176.707 181.212 177.483 180.944 177.934C180.944 177.952 198.958 177.934 198.958 177.934C198.958 177.934 198.618 177.266 198.654 176.707H181.195Z" fill="#564394"/>
<path d="M206.462 176.707C206.462 176.563 206.444 176.4 206.444 176.256H207.679C207.84 176.256 207.984 176.166 208.055 176.021L208.145 175.823C208.234 175.625 208.431 175.498 208.628 175.498H210.562L210.741 175.48C211.297 175.48 211.744 175.913 211.744 176.472V177.248C211.744 177.681 211.386 178.042 210.956 178.024L206.211 177.916C206.211 177.934 206.444 177.483 206.462 176.707Z" fill="#564394"/>
<path d="M169 175.246C169 175.011 169.197 174.813 169.43 174.813H172.026C172.259 174.813 172.492 174.939 172.617 175.156L173.441 176.581C173.477 176.653 173.513 176.743 173.513 176.833V177.609C173.513 177.844 173.316 178.042 173.083 178.042H169.967C169.77 178.042 169.591 177.916 169.537 177.717L169.018 175.751C169.018 175.715 169 175.697 169 175.661V175.246Z" fill="#564394"/>
</g>
<g filter="url(#filter3_d)">
<path d="M167.268 75.9998H212.732C215.659 75.9998 218 78.2533 218 81.0702V110.929C218 113.746 215.659 116 212.732 116H167.268C164.341 116 162 113.746 162 110.929V81.0702C162 78.2533 164.341 75.9998 167.268 75.9998Z" fill="white"/>
<path d="M189.018 102.845C188.942 102.942 188.866 102.959 188.784 102.849C188.764 102.821 188.741 102.796 188.718 102.778C188.627 102.716 188.583 102.518 188.446 102.598C188.305 102.682 187.528 102.891 187.312 102.965C186.372 103.284 185.402 103.293 184.424 103.149C182.399 102.861 180.565 102.071 178.826 101.02C177.908 100.463 177.069 99.8063 176.285 99.0591C175.481 98.2905 174.79 97.4439 174.385 96.4062C173.9 95.176 173.995 94.0005 174.882 92.9604C175.037 93.1284 175.196 93.2999 175.352 93.4679C175.03 93.7986 174.868 94.2011 174.806 94.6491C174.676 95.5791 175.022 96.3668 175.493 97.1185C175.873 97.7288 176.363 98.2508 176.874 98.7393C177.409 99.2529 178.004 99.6967 178.618 100.11C179.484 100.696 180.401 101.187 181.366 101.594C182.463 102.059 183.588 102.411 184.78 102.542C185.447 102.614 186.359 102.692 186.963 102.338C187.459 102.053 187.87 101.619 188.283 101.23C188.682 100.854 189.055 100.436 189.259 99.922C189.547 99.2048 189.566 98.3975 189.494 97.6347C189.465 97.3102 189.418 96.9886 189.361 96.663C189.057 95.007 188.478 93.4601 187.666 91.9897C187.253 91.237 186.77 90.5365 186.241 89.865C185.633 89.0872 184.921 88.4392 184.065 87.971C183.233 87.5141 182.357 87.3959 181.471 87.8514C181.376 87.8991 181.285 87.9504 181.216 88.0336C181.061 87.8656 180.906 87.6977 180.75 87.5297C181.598 86.8973 182.532 86.7428 183.539 87.0383C184.44 87.3055 185.181 87.8411 185.862 88.4776C187.036 89.5673 187.867 90.8941 188.582 92.3021C189.252 93.6258 189.752 95.0147 190.011 96.4798C190.179 97.4322 190.281 98.3992 190.128 99.3695C190.062 99.7828 189.974 100.195 189.799 100.577C189.717 100.752 189.441 101.604 189.365 101.735C189.298 101.849 189.449 101.976 189.522 102.027C189.757 102.188 189.63 102.279 189.492 102.387C189.338 102.549 189.178 102.697 189.018 102.845Z" fill="#705FA4"/>
<path d="M189.027 102.883C189.189 102.734 189.35 102.584 189.512 102.434C190.455 103.453 191.38 104.495 192.344 105.494C194.376 107.589 197.701 107.951 200.195 106.377C202.817 104.724 203.872 101.38 202.659 98.5543C202.383 97.9102 202.019 97.3147 201.547 96.8053C199.154 94.2052 196.754 91.6186 194.354 89.0252C194.197 88.8128 194.204 88.82 194.527 88.5275C194.707 88.3611 194.769 88.5288 194.851 88.6179C197.176 91.1225 199.493 93.6338 201.814 96.1417C201.88 96.213 201.95 96.2809 202.019 96.3488C203.422 97.9008 204.002 99.7318 203.778 101.811C203.627 103.22 203.079 104.475 202.146 105.557C201.103 106.767 199.812 107.564 198.249 107.873C196.119 108.29 194.174 107.861 192.459 106.512C192.165 106.282 191.911 106.007 191.661 105.737C190.784 104.782 189.904 103.831 189.027 102.883Z" fill="#3D2884"/>
<path d="M194.689 88.7679C194.362 89.0641 194.233 89.1703 194.053 89.2715C192.936 89.9053 191.8 89.9269 190.722 89.2664C189.108 88.281 188.72 86.1359 189.932 84.5875C190.844 83.4221 192.413 83.0524 193.665 83.5461C194.971 84.0621 195.753 85.3117 195.633 86.7409C195.578 87.3819 195.358 87.9458 194.969 88.4566C194.885 88.5538 194.869 88.6014 194.689 88.7679ZM193.622 87.8604C194.382 87.223 194.463 86.0469 193.774 85.2811C193.137 84.5717 191.979 84.5618 191.24 85.2066C190.511 85.8415 190.419 87.0414 191.083 87.7515C191.799 88.525 192.937 88.5206 193.622 87.8604Z" fill="#705FA4"/>
<path d="M175.468 93.5371C175.309 93.3655 175.147 93.1902 174.988 93.0186C174.835 92.8892 174.849 92.7816 175.003 92.6526C175.254 92.4479 175.481 92.2106 175.721 91.9949C175.94 91.7991 176.191 91.8109 176.401 92.0094C176.689 92.2848 176.754 92.5568 176.542 92.7808C176.275 93.0616 175.974 93.3129 175.69 93.5824C175.589 93.6824 175.536 93.6031 175.468 93.5371Z" fill="#3D2884"/>
<path d="M180.887 87.5181C181.028 87.6703 181.169 87.8224 181.309 87.9746C181.381 88.0523 181.385 88.1212 181.287 88.2115C181.013 88.459 180.748 88.7162 180.475 88.9571C180.227 89.1746 180.013 89.1386 179.769 88.8534C179.578 88.633 179.595 88.4192 179.82 88.2054C180.051 87.9848 180.298 87.7805 180.517 87.5536C180.661 87.3969 180.768 87.3755 180.887 87.5181Z" fill="#3D2884"/>
<path d="M193.689 87.9243C193.021 88.576 191.882 88.5705 191.153 87.7893C190.482 87.0723 190.56 85.875 191.279 85.2493C192.009 84.6138 193.164 84.6372 193.807 85.3531C194.502 86.126 194.439 87.2965 193.689 87.9243Z" fill="#3D2884"/>
</g>
<g filter="url(#filter4_d)">
<path d="M230 131.889C230 141.693 237.088 150.42 247.993 155.8C250.501 156.996 248.865 164.528 249.301 165.843C249.737 167.158 259.006 159.746 260.533 160.104C264.786 161.061 269.366 161.539 274.055 161.539C298.372 161.539 318 148.268 318 131.769C318 115.39 298.263 102 274.055 102C249.846 102 230 115.39 230 131.889Z" fill="white"/>
<rect x="256.473" y="119.061" width="35.2608" height="26.4456" rx="3.04211" fill="white"/>
<mask id="mask7" mask-type="alpha" maskUnits="userSpaceOnUse" x="256" y="119" width="36" height="27">
<rect x="256.853" y="119.442" width="34.5003" height="25.6851" rx="2.66184" fill="white" stroke="white" stroke-width="0.760527"/>
</mask>
<g mask="url(#mask7)">
<rect x="279.981" y="119.061" width="11.7536" height="26.4456" fill="#F44653"/>
<path fill-rule="evenodd" clip-rule="evenodd" d="M256.473 145.507H268.227V119.061H256.473V145.507Z" fill="#1035BB"/>
</g>
</g>
<defs>
<filter id="filter0_d" x="222" y="21.9998" width="104" height="88" filterUnits="userSpaceOnUse" color-interpolation-filters="sRGB">
<feFlood flood-opacity="0" result="BackgroundImageFix"/>
<feColorMatrix in="SourceAlpha" type="matrix" values="0 0 0 0 0 0 0 0 0 0 0 0 0 0 0 0 0 0 127 0"/>
<feOffset dy="8"/>
<feGaussianBlur stdDeviation="8"/>
<feColorMatrix type="matrix" values="0 0 0 0 0.129412 0 0 0 0 0.129412 0 0 0 0 0.129412 0 0 0 0.24 0"/>
<feBlend mode="normal" in2="BackgroundImageFix" result="effect1_dropShadow"/>
<feBlend mode="normal" in="SourceGraphic" in2="effect1_dropShadow" result="shape"/>
</filter>
<filter id="filter1_d" x="226" y="174" width="96" height="80" filterUnits="userSpaceOnUse" color-interpolation-filters="sRGB">
<feFlood flood-opacity="0" result="BackgroundImageFix"/>
<feColorMatrix in="SourceAlpha" type="matrix" values="0 0 0 0 0 0 0 0 0 0 0 0 0 0 0 0 0 0 127 0"/>
<feOffset dy="8"/>
<feGaussianBlur stdDeviation="8"/>
<feColorMatrix type="matrix" values="0 0 0 0 0.129412 0 0 0 0 0.129412 0 0 0 0 0.129412 0 0 0 0.24 0"/>
<feBlend mode="normal" in2="BackgroundImageFix" result="effect1_dropShadow"/>
<feBlend mode="normal" in="SourceGraphic" in2="effect1_dropShadow" result="shape"/>
</filter>
<filter id="filter2_d" x="142" y="140" width="96" height="80" filterUnits="userSpaceOnUse" color-interpolation-filters="sRGB">
<feFlood flood-opacity="0" result="BackgroundImageFix"/>
<feColorMatrix in="SourceAlpha" type="matrix" values="0 0 0 0 0 0 0 0 0 0 0 0 0 0 0 0 0 0 127 0"/>
<feOffset dy="8"/>
<feGaussianBlur stdDeviation="8"/>
<feColorMatrix type="matrix" values="0 0 0 0 0.129412 0 0 0 0 0.129412 0 0 0 0 0.129412 0 0 0 0.24 0"/>
<feBlend mode="normal" in2="BackgroundImageFix" result="effect1_dropShadow"/>
<feBlend mode="normal" in="SourceGraphic" in2="effect1_dropShadow" result="shape"/>
</filter>
<filter id="filter3_d" x="146" y="67.9998" width="88" height="72" filterUnits="userSpaceOnUse" color-interpolation-filters="sRGB">
<feFlood flood-opacity="0" result="BackgroundImageFix"/>
<feColorMatrix in="SourceAlpha" type="matrix" values="0 0 0 0 0 0 0 0 0 0 0 0 0 0 0 0 0 0 127 0"/>
<feOffset dy="8"/>
<feGaussianBlur stdDeviation="8"/>
<feColorMatrix type="matrix" values="0 0 0 0 0.129412 0 0 0 0 0.129412 0 0 0 0 0.129412 0 0 0 0.24 0"/>
<feBlend mode="normal" in2="BackgroundImageFix" result="effect1_dropShadow"/>
<feBlend mode="normal" in="SourceGraphic" in2="effect1_dropShadow" result="shape"/>
</filter>
<filter id="filter4_d" x="219.884" y="96.9418" width="108.232" height="84.2317" filterUnits="userSpaceOnUse" color-interpolation-filters="sRGB">
<feFlood flood-opacity="0" result="BackgroundImageFix"/>
<feColorMatrix in="SourceAlpha" type="matrix" values="0 0 0 0 0 0 0 0 0 0 0 0 0 0 0 0 0 0 127 0"/>
<feOffset dy="5.05792"/>
<feGaussianBlur stdDeviation="5.05792"/>
<feColorMatrix type="matrix" values="0 0 0 0 0.129412 0 0 0 0 0.129412 0 0 0 0 0.129412 0 0 0 0.24 0"/>
<feBlend mode="normal" in2="BackgroundImageFix" result="effect1_dropShadow"/>
<feBlend mode="normal" in="SourceGraphic" in2="effect1_dropShadow" result="shape"/>
</filter>
</defs>
</svg>
