<svg width="224" height="152" viewBox="0 0 224 152" fill="none" xmlns="http://www.w3.org/2000/svg">
<g opacity="0.67">
<path opacity="0.67" d="M112.243 0C114.855 1.09405 117.468 2.27226 120.122 3.28216C152.134 15.3167 184.146 27.2671 216.158 39.3017C216.78 39.5121 217.36 39.8067 218.439 40.2275C214.002 40.2275 210.104 40.0591 206.206 40.2695C201.893 40.4799 197.871 39.5963 193.807 38.0814C167.103 28.1508 140.357 18.3043 113.57 8.54202C112.367 8.07915 110.709 8.07915 109.506 8.54202C80.2724 19.0618 51.0385 29.6656 21.8461 40.1854C20.4778 40.6903 18.902 40.9428 17.4507 40.9849C12.8479 41.069 8.2037 41.027 2.896 41.027C3.93266 40.5641 4.38878 40.3537 4.84491 40.1433C39.5523 27.0988 74.2597 14.0544 108.926 1.00989C109.589 0.757421 110.211 0.336631 110.875 0C111.331 0 111.787 0 112.243 0Z" fill="#1E9ED1"/>
<path opacity="0.67" d="M216.242 43.0901C214.956 45.1096 213.878 46.8345 212.634 48.8119C145.251 48.8119 77.4953 48.8119 9.94644 48.8119C8.90978 46.9187 7.99752 45.1937 6.87793 43.0901C76.7489 43.0901 146.205 43.0901 216.242 43.0901Z" fill="#1E9ED1"/>
<path opacity="0.67" d="M213.09 51.4205C213.09 53.2717 213.09 54.8705 213.09 56.5954C145.375 56.5954 77.7849 56.5954 9.9873 56.5954C9.9873 54.9125 9.9873 53.2717 9.9873 51.4205C77.619 51.4205 145.292 51.4205 213.09 51.4205Z" fill="#1E9ED1"/>
<path opacity="0.67" d="M0.284419 132.129C74.7996 132.129 149.19 132.129 223.581 132.129C224.41 135.79 224.245 136 220.886 136C148.278 136 75.6289 136 3.0212 136C-0.254649 136 -0.296111 136 0.284419 132.129Z" fill="#1E9ED1"/>
<path opacity="0.67" d="M220.181 126.32C220.222 127.035 220.305 127.666 220.305 128.255C220.305 128.76 220.222 129.307 220.181 129.98C147.988 129.98 75.8776 129.98 3.64307 129.98C3.64307 128.76 3.64307 127.624 3.64307 126.32C75.7532 126.32 147.863 126.32 220.181 126.32Z" fill="#1E9ED1"/>
<path opacity="0.67" d="M5.96582 124.259C5.96582 123.081 5.96582 121.945 5.96582 120.641C75.8782 120.641 145.749 120.641 215.786 120.641C215.786 121.777 215.786 122.913 215.786 124.259C145.874 124.259 75.9612 124.259 5.96582 124.259Z" fill="#1E9ED1"/>
<path opacity="0.67" d="M192.273 40.06C138.243 40.06 84.2118 40.06 30.1811 40.06C30.1396 39.9759 30.1396 39.8496 30.0981 39.7655C34.618 38.1244 39.0963 36.4412 43.6162 34.8002C65.2202 27.0156 86.7827 19.2309 108.387 11.3622C110.377 10.6468 112.077 10.6468 114.068 11.3622C139.694 20.7037 165.362 29.9611 190.988 39.2605C191.444 39.4288 191.942 39.6392 192.398 39.8075C192.356 39.8917 192.315 39.9759 192.273 40.06ZM182.031 38.3348C182.073 38.2085 182.156 38.0823 182.197 37.9561C181.658 37.7457 181.119 37.5353 180.58 37.3249C157.981 29.1616 135.423 20.9562 112.824 12.877C111.746 12.4983 110.294 12.6246 109.175 13.0453C86.9901 20.9983 64.847 28.9933 42.7039 37.0303C41.9161 37.3249 41.1282 37.7036 40.3403 38.0402C40.3818 38.1244 40.4233 38.2506 40.4648 38.3348C87.6535 38.3348 134.842 38.3348 182.031 38.3348Z" fill="#1E9ED1"/>
<path opacity="0.67" d="M37.9771 118.24C41.1285 115.505 40.548 111.886 40.7138 108.52C41.3358 97.4113 41.7505 86.3025 42.2481 75.1516C42.2481 74.6887 42.3725 74.2679 42.4554 73.6367C45.5654 73.6367 48.6339 73.6367 52.0756 73.6367C52.2415 76.456 52.4488 79.4015 52.5318 82.3471C52.8635 92.7826 53.1123 103.218 53.527 113.654C53.5684 114.79 54.1904 115.926 54.771 116.978C55.31 118.03 55.3929 118.829 53.9831 118.829C49.0071 118.872 43.9897 118.829 39.0137 118.787C38.7649 118.872 38.599 118.619 37.9771 118.24Z" fill="#1E9ED1"/>
<path opacity="0.67" d="M152.217 118.661C146.371 118.661 140.856 118.661 135.133 118.661C139.156 112.097 137.497 104.901 138.119 98.1267C138.865 90.0475 138.948 81.8842 139.321 73.6367C142.556 73.6367 145.624 73.6367 149.025 73.6367C149.149 75.5303 149.356 77.4659 149.398 79.4436C149.729 90.5945 149.978 101.703 150.393 112.854C150.434 114.327 151.347 115.8 151.844 117.273C152.01 117.651 152.093 118.072 152.217 118.661Z" fill="#1E9ED1"/>
<path opacity="0.67" d="M102.707 118.703C106.729 113.485 105.112 107.679 105.692 102.25C106.273 96.696 106.231 91.0574 106.48 85.4188C106.646 81.5055 106.895 77.6342 107.102 73.6367C110.419 73.6367 113.488 73.6367 116.805 73.6367C116.888 75.2357 117.054 76.8347 117.095 78.4337C117.427 89.9633 117.717 101.493 118.132 113.023C118.174 114.369 118.961 115.716 119.376 117.062C119.542 117.525 119.749 117.988 120.04 118.745C114.317 118.703 108.844 118.703 102.707 118.703Z" fill="#1E9ED1"/>
<path opacity="0.67" d="M181.949 73.6367C181.99 74.8149 182.073 75.8669 182.114 76.9189C182.446 88.7431 182.736 100.567 183.193 112.391C183.276 114.032 184.146 115.631 184.644 117.273C184.768 117.693 184.81 118.114 184.976 118.745C179.336 118.745 173.863 118.745 168.306 118.745C168.265 118.409 168.099 117.988 168.265 117.862C170.462 115.505 170.379 112.56 170.504 109.656C171.001 98.3791 171.499 87.102 172.038 75.8248C172.08 75.1516 172.204 74.4783 172.328 73.6788C175.48 73.6367 178.548 73.6367 181.949 73.6367Z" fill="#1E9ED1"/>
<path opacity="0.67" d="M70.2383 118.914C74.5923 113.443 72.9336 107.51 73.4312 101.998C74.1776 93.498 74.2605 84.998 74.6752 76.456C74.7167 75.5303 74.8825 74.6466 74.9655 73.6367C78.1584 73.6367 81.2269 73.6367 84.9589 73.6367C84.9589 77.3397 84.8759 81.0847 84.9589 84.7876C85.2077 94.2133 85.4565 103.681 85.8297 113.107C85.8711 114.453 86.6175 115.8 87.198 117.104C87.6127 118.03 87.9444 118.872 86.6175 118.872C81.4342 118.956 76.2509 118.914 70.2383 118.914Z" fill="#1E9ED1"/>
<path opacity="0.67" d="M201.646 73.6367C204.797 73.6367 207.866 73.6367 211.225 73.6367C211.39 77.1713 211.556 80.7481 211.681 84.3248C211.971 92.993 212.344 101.661 212.51 110.372C212.551 112.938 212.22 115.421 214.003 117.609C214.127 117.735 213.464 118.914 213.173 118.914C207.99 118.998 202.765 118.956 197.665 118.956C197.499 118.493 197.375 118.282 197.416 118.24C200.982 113.696 199.614 108.268 199.987 103.176C200.734 93.6663 200.982 84.1564 201.438 74.6466C201.48 74.31 201.563 74.0154 201.646 73.6367Z" fill="#1E9ED1"/>
<path opacity="0.67" d="M11.3979 73.5968C14.5908 73.5968 17.7008 73.5968 20.8937 73.5968C20.9766 73.9334 21.1011 74.3121 21.1425 74.6488C21.5157 87.2304 21.806 99.8541 22.2621 112.436C22.3036 114.035 23.2573 115.549 23.589 117.148C23.7134 117.653 23.2988 118.79 23.1329 118.79C17.8667 118.874 12.6004 118.874 7.41713 118.874C7.29273 118.411 7.16833 118.2 7.20979 118.116C10.61 113.866 9.36605 108.733 9.73925 103.978C10.4442 94.5521 10.7344 85.1264 11.1906 75.6587C11.1906 75.0275 11.315 74.3542 11.3979 73.5968Z" fill="#1E9ED1"/>
<path opacity="0.67" d="M118.422 59.2899C117.966 62.7825 117.593 66.1488 117.012 69.473C116.929 70.0201 116.017 70.8195 115.436 70.8616C112.948 71.0299 110.419 71.0299 107.931 70.8616C107.392 70.8195 106.563 69.9359 106.48 69.3889C106.107 66.1067 105.899 62.8245 105.65 59.2899C109.88 59.2899 113.944 59.2899 118.422 59.2899Z" fill="#1E9ED1"/>
<path opacity="0.67" d="M86.5343 59.2479C86.0782 62.7405 85.6635 66.1489 85.083 69.5152C85.0001 70.0622 84.0463 70.7776 83.4243 70.8196C81.0193 70.9879 78.5728 70.9879 76.2092 70.8196C75.6286 70.7776 74.7164 69.8939 74.6335 69.2627C74.2188 66.0226 74.0115 62.7405 73.7212 59.2479C77.8264 59.2479 81.9315 59.2479 86.5343 59.2479Z" fill="#1E9ED1"/>
<path opacity="0.67" d="M10.2783 59.2032C14.6738 59.2032 18.696 59.2032 23.1329 59.2032C22.5939 63.1166 22.0963 66.9037 21.5987 70.775C18.1155 70.775 14.8396 70.775 11.3564 70.775C10.9833 66.9458 10.6515 63.2428 10.2783 59.2032Z" fill="#1E9ED1"/>
<path opacity="0.67" d="M54.1075 59.2479C53.5685 62.9509 53.1123 66.4013 52.5318 69.8518C52.4489 70.2726 51.7854 70.8196 51.3707 70.8617C48.4266 70.9459 45.4825 70.9038 42.3311 70.9038C41.9579 66.9904 41.6261 63.2033 41.2529 59.2479C45.524 59.2479 49.5462 59.2479 54.1075 59.2479Z" fill="#1E9ED1"/>
<path opacity="0.67" d="M171.126 59.2032C175.397 59.2032 179.502 59.2032 183.939 59.2032C183.442 62.78 183.068 66.1884 182.488 69.5547C182.405 70.1017 181.451 70.817 180.871 70.8591C178.466 71.0274 176.019 71.0274 173.655 70.8591C173.075 70.817 172.121 69.8913 172.08 69.3022C171.582 66.02 171.416 62.7379 171.126 59.2032Z" fill="#1E9ED1"/>
<path opacity="0.67" d="M138.077 59.2032C142.473 59.2032 146.536 59.2032 150.932 59.2032C150.393 62.9062 149.937 66.4408 149.356 69.9334C149.273 70.3121 148.527 70.8591 148.071 70.8591C145.126 70.9433 142.224 70.9012 139.072 70.9012C138.782 66.9458 138.45 63.2428 138.077 59.2032Z" fill="#1E9ED1"/>
<path opacity="0.67" d="M213.215 59.2479C212.717 62.8246 212.303 66.1909 211.722 69.4731C211.639 70.0201 210.686 70.7776 210.146 70.8196C207.368 70.9459 204.59 70.9038 201.439 70.9038C201.107 66.9904 200.734 63.2454 200.402 59.2479C204.714 59.2479 208.82 59.2479 213.215 59.2479Z" fill="#1E9ED1"/>
</g>
<g filter="url(#filter0_d)">
<path d="M131.552 121.571L126.652 111.775L115.897 116.059L133.69 69.7528L149.345 75.2654L131.552 121.571Z" fill="#0421B1"/>
<path d="M149.312 121.571L154.246 111.775L165 116.059L147.207 69.7528L131.52 75.2654L149.312 121.571Z" fill="#1C66DD"/>
<path d="M151.055 88.0233C150.694 88.0233 150.299 88.0233 149.937 88.0233C149.74 88.0233 149.674 88.0863 149.641 88.2438C149.411 88.9683 149.181 89.6613 148.983 90.3858C148.95 90.5118 148.918 90.5433 148.786 90.5118C148.424 90.4173 148.03 90.3228 147.668 90.2283C147.24 90.1338 146.813 90.0078 146.385 89.9133C146.254 89.8818 146.221 90.0078 146.188 90.0708C145.826 90.7008 145.464 91.3623 145.102 91.9923C145.004 92.1498 144.971 92.2128 144.741 92.1183C144.346 91.9293 143.951 91.7403 143.557 91.5828C143.261 91.4883 142.998 91.3308 142.734 91.1733C142.57 91.0788 142.471 91.1103 142.34 91.2363C141.846 91.8033 141.353 92.3388 140.893 92.8744C140.761 93.0004 140.695 93.0318 140.531 92.9058C139.939 92.4648 139.314 92.0238 138.722 91.5513C138.558 91.4253 138.459 91.4883 138.36 91.5828C137.801 91.9923 137.209 92.4333 136.65 92.8429C136.387 93.0319 136.387 93.0319 136.19 92.8113C135.729 92.2758 135.236 91.7403 134.775 91.1733C134.677 91.0473 134.578 91.0158 134.414 91.1103C133.723 91.4253 133.032 91.7403 132.342 92.0553C132.177 92.1183 132.111 92.1498 132.013 91.9608C131.684 91.2993 131.322 90.6693 130.993 90.0393C130.895 89.8818 130.829 89.8188 130.631 89.8818C129.908 90.0708 129.184 90.2283 128.428 90.3858C128.263 90.4173 128.165 90.4488 128.099 90.1968C127.902 89.5038 127.704 88.8423 127.54 88.1493C127.474 87.9288 127.375 87.8658 127.145 87.8658C126.553 87.8973 125.994 87.8973 125.402 87.9603C125.205 87.9918 125.007 87.9603 124.81 87.9288C124.679 87.9288 124.679 87.8343 124.679 87.7398C124.646 87.0467 124.58 86.3852 124.547 85.6922C124.514 85.2827 124.514 85.2827 124.119 85.2197C123.396 85.0937 122.705 84.9677 121.982 84.8417C121.817 84.8102 121.817 84.7157 121.85 84.5897C121.949 83.8652 122.048 83.1407 122.179 82.4162C122.212 82.2272 122.179 82.1327 121.982 82.0697C121.291 81.8177 120.6 81.5026 119.91 81.2506C119.712 81.1876 119.68 81.0931 119.778 80.9356C120.041 80.2741 120.304 79.5811 120.568 78.9196C120.633 78.7621 120.6 78.6676 120.469 78.5731C119.811 78.1636 119.186 77.7226 118.528 77.3131C118.364 77.2186 118.397 77.1241 118.496 77.0296C118.923 76.3996 119.318 75.7695 119.745 75.1395C119.844 75.0135 119.844 74.919 119.712 74.793C119.186 74.289 118.693 73.785 118.2 73.2495C117.969 73.029 117.969 73.029 118.2 72.8085C118.693 72.3045 119.219 71.8005 119.712 71.328C119.877 71.202 119.844 71.076 119.745 70.9185C119.351 70.32 118.989 69.7214 118.594 69.1229C118.463 68.9339 118.496 68.8394 118.693 68.7134C119.318 68.3354 119.943 67.9259 120.568 67.5164C120.732 67.4219 120.732 67.3589 120.666 67.2014C120.403 66.5084 120.173 65.8154 119.91 65.1539C119.844 64.9649 119.877 64.9019 120.074 64.8389C120.765 64.5869 121.456 64.3033 122.179 64.0513C122.344 63.9883 122.376 63.8938 122.376 63.7363C122.278 63.0118 122.179 62.2873 122.08 61.5628C122.048 61.4053 122.08 61.3423 122.278 61.3108C123.034 61.1848 123.758 61.0588 124.514 60.9328C124.711 60.9013 124.81 60.8068 124.81 60.6178C124.843 59.9248 124.909 59.2318 124.975 58.5387C125.007 58.2552 125.007 58.2552 125.303 58.2552C126.06 58.2867 126.816 58.3182 127.573 58.3497C127.704 58.3497 127.77 58.3182 127.77 58.1922C127.902 57.5622 128.165 56.9322 128.329 56.3022C128.461 55.8297 128.461 55.8297 128.954 55.9242C129.612 56.0817 130.303 56.2392 130.96 56.3967C131.125 56.4282 131.191 56.3967 131.289 56.2392C131.651 55.6092 132.013 54.9792 132.375 54.3492C132.473 54.1602 132.539 54.1287 132.736 54.2232C133.394 54.5382 134.085 54.8532 134.743 55.1682C134.907 55.2312 135.006 55.2312 135.104 55.1052C135.598 54.5382 136.091 53.9712 136.584 53.4357C136.683 53.3097 136.749 53.3097 136.913 53.4042C137.505 53.8767 138.13 54.3177 138.722 54.7902C138.854 54.9162 138.952 54.8847 139.084 54.7902C139.676 54.3492 140.301 53.9082 140.893 53.4672C141.024 53.3412 141.123 53.3412 141.254 53.4987C141.715 54.0657 142.208 54.6012 142.702 55.1682C142.833 55.3257 142.932 55.3257 143.096 55.2627C143.787 54.9477 144.478 54.6327 145.168 54.3177C145.333 54.2547 145.398 54.2862 145.464 54.4122C145.826 55.0737 146.188 55.7037 146.517 56.3652C146.615 56.5227 146.714 56.5542 146.878 56.5227C147.602 56.3337 148.326 56.1762 149.082 55.9872C149.279 55.9242 149.345 55.9872 149.411 56.1762C149.608 56.8692 149.806 57.5622 150.003 58.2237C150.069 58.4442 150.167 58.4757 150.365 58.4757C151.088 58.4442 151.845 58.4442 152.568 58.4127C152.765 58.4127 152.831 58.4757 152.831 58.6647C152.864 59.3893 152.93 60.1138 152.996 60.8068C152.996 60.9958 153.094 61.0588 153.292 61.0903C154.015 61.1848 154.706 61.3423 155.429 61.4368C155.693 61.4683 155.725 61.5943 155.693 61.7833C155.594 62.4763 155.495 63.1693 155.364 63.8623C155.331 64.0513 155.397 64.1458 155.561 64.2088C156.252 64.4923 156.975 64.7759 157.666 65.0279C157.83 65.0909 157.863 65.1539 157.797 65.3114C157.534 66.0044 157.271 66.6974 156.975 67.3904C156.909 67.5479 156.942 67.6109 157.074 67.7054C157.699 68.1149 158.324 68.5244 158.949 68.9339C159.113 69.0284 159.146 69.0914 159.014 69.2804C158.587 69.8789 158.225 70.509 157.797 71.1075C157.699 71.265 157.699 71.3595 157.863 71.517C158.389 72.021 158.916 72.5565 159.409 73.092C159.541 73.218 159.541 73.281 159.409 73.407C158.85 73.9425 158.324 74.478 157.797 74.982C157.666 75.108 157.666 75.171 157.765 75.3285C158.159 75.9586 158.554 76.5886 158.949 77.1871C159.047 77.3446 159.014 77.4391 158.85 77.5336C158.225 77.9116 157.6 78.3526 156.975 78.7306C156.844 78.8251 156.778 78.8881 156.844 79.0771C157.107 79.7701 157.337 80.4631 157.6 81.1246C157.666 81.3136 157.633 81.3766 157.469 81.4396C156.778 81.6917 156.087 81.9752 155.397 82.2272C155.166 82.2902 155.133 82.4162 155.166 82.6052C155.265 83.3297 155.364 84.0542 155.462 84.7787C155.495 84.9362 155.462 84.9677 155.298 84.9992C154.509 85.1252 153.719 85.2512 152.93 85.3772C152.765 85.4087 152.765 85.5032 152.765 85.6292C152.7 86.2907 152.667 86.9207 152.601 87.5823C152.601 87.6138 152.601 87.6453 152.601 87.6768C152.568 88.0548 152.568 88.0233 152.206 88.0233C151.878 88.0233 151.516 88.0233 151.187 88.0233C151.055 88.0548 151.055 88.0548 151.055 88.0233ZM126.718 59.0743C126.718 59.0428 126.718 59.0428 126.718 59.0113C126.356 59.0113 125.994 59.0113 125.599 59.0113C125.435 59.0113 125.369 59.0743 125.369 59.2318C125.303 59.8933 125.238 60.5863 125.205 61.2478C125.205 61.4683 125.106 61.5313 124.876 61.5628C124.218 61.6573 123.56 61.7833 122.903 61.8778C122.672 61.9093 122.607 62.0038 122.639 62.2243C122.738 62.8543 122.804 63.4843 122.903 64.1143C122.936 64.3348 122.87 64.4609 122.639 64.5554C122.015 64.7759 121.423 65.0279 120.831 65.2484C120.535 65.3744 120.535 65.3744 120.633 65.6579C120.864 66.2879 121.094 66.9494 121.324 67.5794C121.357 67.6739 121.357 67.7369 121.291 67.7999C120.962 68.0204 120.633 68.2724 120.304 68.4614C120.008 68.6189 119.712 68.8394 119.416 68.9969C119.252 69.1229 119.252 69.2174 119.351 69.3434C119.712 69.9104 120.074 70.4775 120.469 71.076C120.568 71.202 120.535 71.328 120.403 71.454C119.91 71.9265 119.449 72.399 118.956 72.8715C118.792 73.029 118.792 73.155 118.956 73.281C119.416 73.7535 119.877 74.226 120.337 74.667C120.502 74.8245 120.535 74.9505 120.403 75.1395C120.008 75.7065 119.68 76.2736 119.285 76.8406C119.186 76.9666 119.219 77.0611 119.351 77.1556C119.943 77.5336 120.502 77.9431 121.094 78.3211C121.291 78.4471 121.291 78.5416 121.225 78.6991C120.995 79.3291 120.765 79.9276 120.502 80.5576C120.436 80.7466 120.436 80.8411 120.666 80.9356C121.258 81.1561 121.883 81.4081 122.475 81.6602C122.87 81.8177 122.87 81.8177 122.804 82.2272C122.705 82.7942 122.607 83.3927 122.541 83.9597C122.475 84.3062 122.508 84.3062 122.903 84.3692C123.527 84.4637 124.185 84.5897 124.81 84.6842C125.04 84.7157 125.106 84.8102 125.106 85.0307C125.139 85.6607 125.205 86.2907 125.238 86.9207C125.238 87.2042 125.271 87.2357 125.599 87.2357C126.29 87.2357 126.981 87.2043 127.671 87.1728C127.869 87.1728 127.935 87.2357 128 87.3932C128.165 87.9918 128.362 88.6218 128.559 89.2203C128.658 89.5668 128.691 89.5668 129.053 89.5038C129.678 89.3463 130.335 89.2203 130.96 89.0628C131.125 89.0313 131.223 89.0313 131.322 89.2203C131.651 89.8188 131.98 90.4488 132.342 91.0473C132.407 91.1733 132.473 91.2363 132.638 91.1418C133.263 90.8583 133.92 90.5748 134.545 90.2598C134.743 90.1653 134.874 90.1653 135.006 90.3543C135.433 90.8583 135.861 91.3623 136.288 91.8663C136.42 91.9923 136.519 92.0868 136.716 91.9293C137.275 91.4883 137.834 91.1103 138.393 90.6693C138.525 90.5748 138.623 90.5748 138.755 90.6693C139.314 91.1103 139.873 91.5198 140.432 91.9293C140.564 92.0553 140.662 92.0553 140.794 91.8978C141.254 91.3623 141.715 90.8583 142.175 90.3543C142.307 90.2283 142.406 90.1968 142.57 90.2913C143.195 90.5748 143.82 90.8583 144.412 91.1733C144.642 91.2993 144.741 91.2363 144.839 91.0473C145.135 90.5118 145.431 89.9763 145.727 89.4723C145.925 89.0943 145.925 89.1258 146.385 89.2203C147.01 89.3778 147.635 89.5038 148.227 89.6613C148.457 89.7243 148.523 89.6298 148.556 89.4408C148.753 88.8108 148.95 88.1808 149.148 87.5508C149.214 87.3302 149.312 87.2988 149.51 87.2988C150.2 87.3618 150.858 87.3617 151.549 87.3932C151.812 87.3932 151.878 87.2987 151.878 87.0782C151.91 86.4482 151.976 85.7867 152.009 85.1567C152.009 84.9362 152.108 84.8732 152.338 84.8102C153.029 84.7157 153.719 84.5897 154.41 84.4637C154.574 84.4322 154.64 84.3692 154.607 84.2117C154.509 83.5502 154.443 82.8887 154.344 82.1957C154.311 81.9752 154.377 81.8807 154.574 81.8177C155.232 81.5657 155.89 81.3137 156.548 81.0616C156.679 80.9986 156.745 80.9671 156.679 80.7781C156.449 80.1481 156.219 79.5181 155.989 78.8881C155.923 78.6991 155.923 78.5731 156.12 78.4471C156.712 78.1006 157.271 77.7226 157.83 77.3446C158.028 77.2186 158.028 77.1241 157.929 76.9666C157.567 76.3996 157.205 75.8325 156.844 75.2655C156.778 75.1395 156.712 75.045 156.844 74.919C157.337 74.4465 157.83 73.9425 158.324 73.4385C158.488 73.281 158.488 73.1865 158.324 73.029C157.83 72.5565 157.37 72.0525 156.877 71.58C156.745 71.454 156.745 71.3595 156.844 71.202C157.205 70.635 157.567 70.0679 157.929 69.5324C158.061 69.3434 158.061 69.2174 157.83 69.0914C157.271 68.7449 156.712 68.3354 156.12 67.9889C155.956 67.8944 155.923 67.7999 155.989 67.6109C156.252 66.9809 156.449 66.3509 156.712 65.7524C156.778 65.5634 156.745 65.4689 156.548 65.3744C155.89 65.1224 155.265 64.8704 154.607 64.6184C154.443 64.5554 154.377 64.4608 154.41 64.2718C154.509 63.6103 154.607 62.9173 154.706 62.2558C154.739 62.0983 154.673 62.0038 154.509 62.0038C153.851 61.9093 153.193 61.7518 152.502 61.6573C152.305 61.6258 152.108 61.5943 152.108 61.3423C152.075 60.6808 152.009 59.9878 151.976 59.3263C151.976 59.1058 151.878 59.0743 151.68 59.0743C151.022 59.1058 150.332 59.1058 149.674 59.1373C149.411 59.1373 149.312 59.0743 149.246 58.8537C149.082 58.2237 148.885 57.6252 148.72 56.9952C148.687 56.8377 148.622 56.7117 148.391 56.7747C147.734 56.9322 147.076 57.0897 146.418 57.2472C146.188 57.3102 146.056 57.2787 145.925 57.0582C145.629 56.4912 145.3 55.9557 145.004 55.3887C144.905 55.1682 144.774 55.1367 144.543 55.2312C143.951 55.5147 143.326 55.7982 142.702 56.0817C142.504 56.1762 142.406 56.1447 142.274 55.9872C141.814 55.4832 141.353 54.9477 140.926 54.4437C140.794 54.2862 140.728 54.2862 140.597 54.4122C140.005 54.8532 139.413 55.2627 138.854 55.7037C138.755 55.7982 138.656 55.7982 138.558 55.7037C137.998 55.2627 137.407 54.8217 136.815 54.3807C136.683 54.2862 136.584 54.2862 136.486 54.4122C136.058 54.9162 135.565 55.3887 135.137 55.9242C134.973 56.1447 134.808 56.1132 134.578 56.0187C133.986 55.7352 133.361 55.4517 132.769 55.1682C132.638 55.1052 132.539 55.1052 132.473 55.2627C132.144 55.8612 131.783 56.4282 131.487 57.0267C131.355 57.2787 131.223 57.3102 130.993 57.2472C130.335 57.0897 129.678 56.9322 129.053 56.7747C128.855 56.7117 128.757 56.7747 128.691 56.9637C128.494 57.5937 128.296 58.2237 128.099 58.8853C128.033 59.0428 127.967 59.1373 127.77 59.1058C127.441 59.0743 127.079 59.0743 126.718 59.0743Z" fill="#FBFAF6"/>
<path d="M126.718 59.073C127.08 59.073 127.409 59.073 127.77 59.073C127.968 59.073 128.034 59.01 128.099 58.8525C128.297 58.2224 128.494 57.5924 128.691 56.9309C128.757 56.7419 128.823 56.6789 129.053 56.7419C129.711 56.8994 130.369 57.0569 130.994 57.2144C131.224 57.2774 131.355 57.2459 131.487 56.9939C131.783 56.3954 132.145 55.8284 132.474 55.2299C132.572 55.0724 132.638 55.0724 132.77 55.1354C133.362 55.4189 133.986 55.7024 134.578 55.9859C134.809 56.0804 134.94 56.1119 135.138 55.8914C135.565 55.3874 136.026 54.8834 136.486 54.3794C136.618 54.2534 136.683 54.2534 136.815 54.3479C137.374 54.7889 137.966 55.2299 138.558 55.6709C138.657 55.7654 138.722 55.7654 138.854 55.6709C139.446 55.2299 140.038 54.8204 140.597 54.3794C140.729 54.2849 140.827 54.2534 140.926 54.4109C141.354 54.9464 141.814 55.4504 142.274 55.9544C142.406 56.1119 142.505 56.1434 142.702 56.0489C143.294 55.7654 143.919 55.4819 144.544 55.1984C144.774 55.0724 144.873 55.1354 145.004 55.3559C145.3 55.9229 145.629 56.4584 145.925 57.0254C146.057 57.2459 146.188 57.2774 146.418 57.2144C147.076 57.0569 147.734 56.9309 148.392 56.7419C148.622 56.6789 148.688 56.8049 148.721 56.9624C148.918 57.5924 149.082 58.191 149.247 58.821C149.313 59.0415 149.411 59.136 149.674 59.1045C150.332 59.073 151.023 59.073 151.681 59.0415C151.878 59.0415 151.977 59.1045 151.977 59.2935C152.009 59.955 152.075 60.648 152.108 61.3095C152.108 61.5615 152.305 61.6245 152.503 61.6245C153.193 61.6875 153.851 61.845 154.509 61.971C154.673 62.0025 154.706 62.0655 154.706 62.223C154.608 62.8845 154.509 63.5775 154.41 64.2391C154.377 64.4281 154.443 64.5226 154.608 64.5856C155.265 64.8376 155.89 65.0896 156.548 65.3416C156.745 65.4046 156.811 65.4991 156.713 65.7196C156.449 66.3496 156.252 66.9796 155.989 67.5781C155.923 67.7356 155.956 67.8301 156.121 67.9561C156.68 68.3341 157.239 68.7121 157.831 69.0586C158.061 69.1846 158.061 69.3106 157.929 69.4996C157.568 70.0352 157.206 70.6022 156.844 71.1692C156.745 71.3267 156.745 71.4212 156.877 71.5472C157.37 72.0197 157.831 72.5237 158.324 72.9962C158.488 73.1537 158.488 73.2482 158.324 73.4057C157.831 73.8782 157.337 74.3822 156.844 74.8862C156.712 75.0122 156.745 75.1068 156.844 75.2328C157.206 75.7998 157.568 76.3668 157.929 76.9338C158.061 77.1228 158.028 77.2173 157.831 77.3118C157.239 77.6583 156.68 78.0363 156.121 78.4143C155.923 78.5403 155.89 78.6663 155.989 78.8553C156.219 79.4853 156.449 80.1153 156.68 80.7453C156.745 80.9029 156.68 80.9659 156.548 81.0289C155.89 81.2809 155.233 81.5329 154.575 81.7849C154.377 81.8479 154.312 81.9739 154.345 82.1629C154.443 82.8244 154.509 83.4859 154.608 84.1789C154.641 84.3364 154.575 84.3994 154.41 84.4309C153.72 84.5569 153.029 84.6829 152.338 84.7774C152.108 84.8089 152.042 84.9034 152.009 85.1239C151.977 85.7539 151.911 86.4155 151.878 87.0455C151.878 87.266 151.812 87.3605 151.549 87.3605C150.858 87.329 150.201 87.329 149.51 87.266C149.313 87.266 149.214 87.2975 149.148 87.518C148.984 88.148 148.753 88.778 148.556 89.408C148.49 89.597 148.425 89.66 148.227 89.6285C147.602 89.471 146.977 89.345 146.385 89.1875C145.958 89.093 145.958 89.0615 145.728 89.4395C145.432 89.975 145.136 90.5105 144.84 91.0145C144.741 91.2035 144.642 91.2665 144.412 91.1405C143.82 90.8255 143.162 90.5735 142.57 90.2585C142.406 90.164 142.307 90.1955 142.176 90.3215C141.715 90.857 141.255 91.361 140.794 91.865C140.663 92.0225 140.597 91.991 140.433 91.8965C139.874 91.4555 139.314 91.046 138.755 90.6365C138.624 90.542 138.525 90.542 138.394 90.6365C137.834 91.046 137.242 91.4555 136.716 91.8965C136.519 92.054 136.42 91.9595 136.289 91.8335C135.861 91.3295 135.401 90.857 135.006 90.3215C134.842 90.1325 134.743 90.1325 134.546 90.227C133.921 90.5105 133.263 90.794 132.638 91.109C132.474 91.172 132.408 91.1405 132.342 91.0145C132.013 90.416 131.651 89.786 131.322 89.1875C131.224 89.03 131.125 88.9985 130.961 89.03C130.336 89.1875 129.678 89.3135 129.053 89.471C128.658 89.5655 128.658 89.5655 128.56 89.1875C128.362 88.589 128.198 87.959 128.001 87.3605C127.935 87.1715 127.869 87.1085 127.672 87.14C126.981 87.1715 126.29 87.1715 125.6 87.203C125.304 87.203 125.238 87.1715 125.238 86.888C125.238 86.2579 125.139 85.6279 125.107 84.9979C125.107 84.7774 125.041 84.6829 124.811 84.6514C124.186 84.5569 123.528 84.4309 122.903 84.3364C122.508 84.2734 122.508 84.2734 122.541 83.9269C122.607 83.3599 122.706 82.7614 122.804 82.1944C122.87 81.7849 122.87 81.7849 122.475 81.6274C121.883 81.3754 121.259 81.1234 120.667 80.9029C120.436 80.8084 120.436 80.7138 120.502 80.5248C120.765 79.9263 120.995 79.2963 121.226 78.6663C121.291 78.5088 121.291 78.3828 121.094 78.2883C120.502 77.9103 119.91 77.5008 119.351 77.1228C119.219 77.0283 119.187 76.9653 119.285 76.8078C119.647 76.2408 120.009 75.6738 120.403 75.1067C120.535 74.9177 120.535 74.7917 120.338 74.6342C119.877 74.1932 119.417 73.6892 118.956 73.2482C118.792 73.0907 118.792 72.9962 118.956 72.8387C119.45 72.3662 119.91 71.8937 120.403 71.4212C120.535 71.2952 120.535 71.2007 120.469 71.0432C120.107 70.4762 119.746 69.9092 119.351 69.3106C119.252 69.1531 119.219 69.0586 119.417 68.9641C119.713 68.7751 120.009 68.5861 120.305 68.4286C120.667 68.2396 120.963 67.9876 121.291 67.7671C121.357 67.7041 121.357 67.6411 121.324 67.5466C121.094 66.9166 120.864 66.2551 120.634 65.6251C120.535 65.3416 120.535 65.3101 120.831 65.2156C121.423 64.9951 122.048 64.7431 122.64 64.5226C122.87 64.4281 122.936 64.3336 122.903 64.0816C122.804 63.4515 122.739 62.8215 122.64 62.1915C122.607 61.971 122.673 61.8765 122.903 61.845C123.561 61.7505 124.219 61.6245 124.876 61.53C125.074 61.4985 125.172 61.4355 125.205 61.215C125.238 60.5535 125.337 59.8605 125.37 59.199C125.37 59.0415 125.435 58.9785 125.6 58.9785C125.962 58.9785 126.323 58.9785 126.718 58.9785C126.718 59.0415 126.718 59.0415 126.718 59.073Z" fill="#EA3815"/>
<path d="M159.54 73.7531C159.804 73.5011 159.836 73.1861 159.54 72.9026C159.277 72.6506 159.047 72.3986 158.784 72.1466C158.521 71.8946 158.258 71.6111 157.995 71.3591C158.192 71.0756 158.356 70.7921 158.554 70.5401C158.751 70.2251 158.981 69.9101 159.179 69.5951C159.31 69.4061 159.475 69.0281 158.981 68.7446C158.62 68.5241 158.291 68.3035 157.929 68.0515C157.666 67.894 157.436 67.705 157.172 67.5475C157.304 67.2325 157.403 66.949 157.534 66.634C157.666 66.2875 157.83 65.9095 157.962 65.5315C158.093 65.185 157.962 64.9015 157.633 64.7755C157.304 64.6495 156.975 64.5235 156.679 64.3975C156.317 64.24 155.956 64.114 155.561 63.9565C155.627 63.547 155.692 63.1375 155.758 62.7279C155.791 62.4759 155.824 62.1924 155.89 61.9404C155.988 61.3104 155.528 61.1844 155.298 61.1529C154.936 61.0899 154.574 61.0269 154.212 60.9639C153.884 60.9009 153.555 60.8379 153.226 60.8064C153.193 60.5229 153.193 60.2394 153.16 59.9559C153.127 59.5464 153.094 59.1054 153.061 58.6959C153.028 58.2864 152.798 58.0659 152.371 58.0974C152.042 58.0974 151.68 58.1289 151.351 58.1289C150.957 58.1289 150.562 58.1604 150.2 58.1604C150.101 57.7824 150.003 57.4359 149.904 57.0894C149.805 56.7743 149.707 56.4593 149.641 56.1443C149.542 55.7663 149.246 55.6088 148.852 55.7033C148.424 55.7978 147.997 55.9238 147.569 56.0183C147.306 56.0813 147.01 56.1443 146.714 56.2073C146.517 55.8293 146.319 55.4828 146.122 55.1048C145.99 54.8528 145.826 54.5693 145.661 54.2858C145.398 53.8133 144.971 53.9708 144.872 54.0023C144.609 54.1283 144.313 54.2543 144.05 54.3803C143.655 54.5693 143.261 54.7583 142.866 54.9473C142.636 54.6638 142.405 54.4118 142.175 54.1598C141.945 53.8763 141.682 53.5928 141.452 53.3408C141.189 53.0258 140.86 52.9943 140.564 53.2463C140.268 53.4668 139.972 53.6873 139.709 53.8763C139.413 54.0968 139.117 54.3173 138.821 54.5378C138.525 54.3173 138.229 54.0653 137.933 53.8448C137.637 53.6243 137.374 53.4038 137.078 53.1833C136.782 52.9628 136.453 52.9943 136.222 53.2778C135.992 53.5613 135.729 53.8448 135.466 54.1283C135.236 54.3803 135.006 54.6638 134.775 54.9158C134.479 54.7898 134.183 54.6323 133.92 54.5063C133.558 54.3488 133.197 54.1598 132.835 53.9708C132.605 53.8763 132.21 53.7503 131.947 54.2543C131.75 54.6008 131.585 54.9158 131.388 55.2623C131.223 55.5458 131.059 55.8293 130.927 56.1128C130.533 56.0183 130.105 55.9238 129.71 55.8293C129.48 55.7663 129.25 55.7033 129.02 55.6718C128.724 55.6088 128.494 55.5458 128.263 55.6718C128.033 55.7978 128 56.0183 127.902 56.3018C127.836 56.5538 127.737 56.8373 127.671 57.0894C127.573 57.4044 127.474 57.7194 127.375 58.0659C127.112 58.0659 126.849 58.0344 126.586 58.0344C126.158 58.0344 125.698 58.0029 125.27 57.9714C125.073 57.9714 124.876 57.9399 124.744 58.0659C124.547 58.1919 124.547 58.4124 124.514 58.5699C124.481 58.7904 124.481 59.0424 124.448 59.2629C124.415 59.7039 124.382 60.1764 124.35 60.6174C123.988 60.6804 123.626 60.7434 123.264 60.8064C122.902 60.8694 122.541 60.9324 122.179 60.9954C121.949 61.0269 121.587 61.1529 121.653 61.6884C121.718 62.0664 121.751 62.4759 121.817 62.8539C121.85 63.169 121.916 63.484 121.949 63.7675C121.62 63.8935 121.291 64.0195 120.962 64.1455C120.6 64.2715 120.271 64.429 119.91 64.555C119.515 64.7125 119.383 64.996 119.515 65.374C119.647 65.752 119.811 66.13 119.943 66.508C120.041 66.7915 120.14 67.075 120.271 67.3585C119.975 67.5475 119.712 67.705 119.416 67.894C119.12 68.083 118.791 68.3035 118.463 68.4925C118.331 68.5555 118.199 68.6816 118.134 68.8706C118.068 69.1226 118.199 69.3431 118.265 69.4061C118.495 69.7211 118.693 70.0676 118.89 70.3826C119.055 70.6346 119.219 70.9181 119.383 71.1701C119.022 71.5166 118.66 71.8631 118.331 72.2096C118.199 72.3671 118.035 72.4931 117.871 72.6506C117.739 72.7766 117.607 72.9341 117.607 73.1231C117.607 73.3121 117.739 73.4381 117.871 73.5956C118.035 73.7846 118.232 73.9422 118.397 74.1312C118.693 74.4462 119.022 74.7612 119.318 75.0762C119.055 75.4857 118.759 75.8952 118.495 76.3047C118.364 76.4937 118.232 76.6827 118.101 76.9032C117.805 77.3442 118.101 77.5962 118.265 77.6907C118.627 77.9112 118.956 78.1317 119.285 78.3522C119.548 78.5412 119.844 78.7302 120.107 78.8877C119.975 79.2027 119.844 79.5492 119.712 79.8642C119.581 80.1793 119.449 80.5258 119.318 80.8408C119.12 81.3448 119.449 81.5653 119.679 81.6598C120.041 81.7858 120.403 81.9433 120.765 82.0693C121.061 82.1953 121.39 82.3213 121.719 82.4473C121.62 82.9513 121.554 83.4868 121.488 83.9908C121.455 84.1798 121.423 84.4003 121.39 84.5893C121.324 85.0933 121.686 85.2193 121.85 85.2508C122.245 85.3138 122.639 85.3769 123.034 85.4398C123.363 85.5028 123.692 85.5659 123.988 85.5974C124.021 85.5974 124.054 85.5974 124.054 85.5974C124.054 85.6289 124.054 85.6604 124.054 85.6918C124.086 86.1959 124.119 86.7314 124.152 87.2354C124.152 87.3929 124.185 87.5504 124.185 87.7394C124.185 87.7394 124.185 87.7394 124.185 87.7709C124.218 88.2434 124.613 88.2749 124.678 88.2749C124.744 88.2749 124.81 88.2749 124.876 88.2749C125.04 88.2749 125.205 88.3064 125.369 88.2749C125.665 88.2434 125.994 88.2434 126.29 88.2434C126.553 88.2434 126.816 88.2434 127.046 88.2119C127.211 88.8419 127.375 89.4719 127.573 90.0704L127.638 90.2594C127.737 90.6374 128.033 90.7949 128.461 90.7004C128.757 90.6374 129.053 90.5744 129.316 90.5114C129.743 90.4169 130.171 90.3224 130.566 90.2279C130.697 90.5114 130.862 90.7949 131.026 91.0469C131.223 91.3935 131.421 91.74 131.585 92.0865C131.717 92.3385 131.947 92.5905 132.44 92.37C132.736 92.244 133.065 92.0865 133.361 91.9605C133.723 91.803 134.085 91.614 134.446 91.4565C134.808 91.8975 135.17 92.307 135.532 92.7165L135.795 93.0315C135.926 93.189 136.058 93.315 136.255 93.3465C136.486 93.378 136.617 93.252 136.781 93.126C137.406 92.6535 137.966 92.2755 138.459 91.8975C138.755 92.1495 139.084 92.37 139.38 92.5905C139.643 92.7795 139.906 92.9685 140.169 93.189C140.301 93.2835 140.465 93.3465 140.597 93.3465C140.761 93.3465 140.925 93.252 141.09 93.0945C141.32 92.8425 141.55 92.5905 141.748 92.3385C141.978 92.055 142.241 91.7715 142.504 91.4879H142.537C142.8 91.614 143.03 91.7715 143.326 91.866C143.688 91.992 144.05 92.181 144.477 92.4015C144.609 92.4645 144.773 92.5275 144.971 92.496C145.201 92.433 145.3 92.244 145.365 92.1495C145.661 91.6455 145.957 91.1099 146.253 90.6059L146.418 90.3224C146.582 90.3539 146.714 90.3854 146.878 90.4484C147.076 90.5114 147.306 90.5429 147.503 90.6059C147.701 90.6374 147.865 90.7004 148.062 90.7319C148.26 90.7634 148.424 90.8264 148.621 90.8579C148.753 90.8894 149.148 90.9524 149.312 90.4484C149.411 90.0704 149.542 89.7239 149.641 89.3459C149.74 89.0309 149.838 88.6844 149.937 88.3694C150.167 88.3694 150.397 88.3694 150.628 88.3694V88.4324H151.022C151.121 88.4324 151.22 88.4324 151.351 88.4324C151.581 88.4324 151.812 88.4324 152.075 88.4324C152.305 88.4324 152.502 88.4324 152.667 88.2749C152.831 88.1174 152.831 87.9599 152.864 87.7079C152.864 87.6764 152.864 87.6764 152.864 87.6449V87.6134L152.897 87.2354C152.93 86.7314 152.963 86.2274 153.028 85.7549C153.259 85.7234 153.489 85.6919 153.719 85.6289C154.212 85.5344 154.739 85.4713 155.232 85.3768C155.594 85.3138 155.791 85.0933 155.725 84.7468C155.692 84.4318 155.627 84.1483 155.594 83.8333C155.528 83.4238 155.495 83.0143 155.429 82.6048C155.824 82.4788 156.186 82.3213 156.58 82.1638C156.876 82.0378 157.172 81.9433 157.501 81.8173C157.863 81.6913 158.028 81.3763 157.863 81.0298C157.732 80.6833 157.6 80.3368 157.468 80.0218C157.337 79.7067 157.238 79.3602 157.107 79.0452C157.37 78.8877 157.666 78.6987 157.929 78.5412C158.258 78.3207 158.587 78.1002 158.948 77.9112C159.409 77.6277 159.277 77.2497 159.146 77.0607C158.916 76.7457 158.718 76.3992 158.488 76.0527C158.324 75.8007 158.159 75.5172 157.962 75.2652C158.192 75.0447 158.422 74.7927 158.652 74.5722C158.948 74.3202 159.244 74.0366 159.54 73.7531ZM158.784 73.2491C158.817 73.2806 158.85 73.3121 158.85 73.3436C158.817 73.3751 158.784 73.4066 158.784 73.4066C158.784 73.3436 158.784 73.3121 158.784 73.2491ZM158.455 69.2801C158.422 69.3116 158.422 69.3431 158.389 69.3746C158.389 69.3116 158.389 69.2486 158.356 69.2171C158.389 69.2486 158.422 69.2801 158.455 69.2801ZM118.89 69.1856C118.857 69.1541 118.857 69.1226 118.824 69.0911C118.857 69.0596 118.89 69.0596 118.923 69.0281C118.89 69.0596 118.89 69.1226 118.89 69.1856ZM118.43 73.1861C118.397 73.1546 118.364 73.1231 118.331 73.0916C118.364 73.0601 118.397 73.0286 118.43 72.9971C118.43 73.0601 118.43 73.1231 118.43 73.1861ZM118.759 77.1552C118.791 77.1237 118.791 77.0922 118.824 77.0607C118.824 77.1237 118.824 77.1552 118.857 77.2182C118.824 77.1867 118.791 77.1867 118.759 77.1552ZM157.172 65.4055C157.172 65.437 157.14 65.4685 157.14 65.5C157.14 65.437 157.107 65.4055 157.074 65.3425C157.107 65.4055 157.14 65.4055 157.172 65.4055ZM156.383 67.768C156.383 67.7995 156.383 67.7995 156.383 67.768C156.383 67.7995 156.383 67.7995 156.383 67.768C156.383 67.7995 156.383 67.7995 156.383 67.768ZM155.068 61.8774C155.068 61.9089 155.068 61.9404 155.068 61.9719C155.035 61.9404 155.002 61.8774 154.969 61.8459C155.002 61.8774 155.035 61.8774 155.068 61.8774ZM154.837 64.3345C154.837 64.366 154.837 64.366 154.837 64.3345C154.837 64.366 154.837 64.366 154.837 64.3345C154.804 64.366 154.804 64.366 154.837 64.3345ZM152.634 61.3734H152.601C152.568 61.3734 152.568 61.3734 152.568 61.3734C152.568 61.3419 152.568 61.3104 152.568 61.2789C152.568 61.3104 152.601 61.3419 152.634 61.3734ZM152.272 58.8534C152.272 58.8849 152.272 58.9479 152.272 58.9794C152.239 58.9479 152.173 58.8849 152.14 58.8534C152.173 58.8534 152.206 58.8534 152.272 58.8534ZM149.707 58.8219C149.674 58.8219 149.674 58.8219 149.674 58.8219C149.674 58.8219 149.674 58.8219 149.674 58.7904V58.7589C149.674 58.7904 149.674 58.8219 149.707 58.8219ZM148.852 56.4593C148.852 56.4908 148.885 56.5223 148.885 56.5853C148.852 56.5538 148.786 56.5223 148.753 56.4908C148.753 56.4593 148.819 56.4593 148.852 56.4593ZM146.319 56.9318C146.286 56.9318 146.286 56.9318 146.286 56.9318C146.286 56.9318 146.286 56.9318 146.286 56.9003L146.319 56.9318ZM144.971 54.7898C145.004 54.8213 145.004 54.8528 145.037 54.9158C145.004 54.9158 144.971 54.8843 144.938 54.8843C144.905 54.8843 144.872 54.8528 144.839 54.8528C144.905 54.8213 144.938 54.7898 144.971 54.7898ZM142.636 55.7348C142.636 55.7348 142.603 55.7348 142.603 55.7663L142.57 55.7348C142.603 55.7348 142.603 55.7348 142.636 55.7348ZM140.86 53.9078C140.893 53.9393 140.893 53.9708 140.925 53.9708C140.893 53.9708 140.827 53.9393 140.794 53.9393C140.794 53.9393 140.794 53.9393 140.761 53.9393C140.794 53.9393 140.827 53.9393 140.86 53.9078ZM138.755 55.3253C138.722 55.3253 138.722 55.3253 138.755 55.3253C138.722 55.3253 138.722 55.3253 138.689 55.3253C138.722 55.3253 138.722 55.3253 138.755 55.3253ZM136.617 53.8763C136.65 53.9078 136.683 53.9078 136.716 53.9393C136.65 53.9393 136.617 53.9393 136.551 53.9393C136.551 53.9393 136.584 53.9078 136.617 53.8763ZM134.874 55.6718C134.874 55.7033 134.874 55.7033 134.874 55.6718C134.841 55.7033 134.841 55.7033 134.874 55.6718C134.841 55.7033 134.841 55.6718 134.808 55.6718C134.841 55.7033 134.841 55.7033 134.874 55.6718ZM132.473 54.6953C132.506 54.6953 132.539 54.7268 132.572 54.7268C132.506 54.7268 132.473 54.7583 132.44 54.7583C132.44 54.7583 132.44 54.7268 132.473 54.6953ZM131.158 56.8058C131.158 56.8373 131.125 56.8373 131.158 56.8058C131.125 56.8373 131.125 56.8373 131.158 56.8058C131.125 56.8373 131.125 56.8373 131.125 56.8373C131.125 56.8373 131.125 56.8373 131.158 56.8058ZM128.526 56.4593C128.526 56.4278 128.559 56.3648 128.559 56.3333C128.592 56.3333 128.658 56.3648 128.691 56.3648H128.724C128.658 56.3963 128.592 56.4278 128.526 56.4908V56.4593ZM125.139 58.6959C125.172 58.6959 125.238 58.6959 125.27 58.6959C125.205 58.7274 125.172 58.7589 125.139 58.8219C125.139 58.7904 125.139 58.7589 125.139 58.6959ZM124.81 61.1529V61.1844C124.777 61.1844 124.777 61.1844 124.744 61.1844C124.777 61.1844 124.81 61.1529 124.81 61.1529ZM122.508 64.1455V64.177C122.508 64.177 122.508 64.177 122.475 64.177H122.442C122.508 64.177 122.508 64.177 122.508 64.1455ZM122.442 61.6884C122.409 61.7199 122.343 61.7829 122.31 61.8459C122.31 61.8144 122.311 61.7514 122.278 61.7199C122.343 61.6884 122.376 61.6884 122.442 61.6884ZM120.896 67.579C120.896 67.6105 120.896 67.6105 120.896 67.6105V67.579ZM120.239 65.185C120.239 65.2165 120.206 65.2165 120.206 65.248C120.206 65.2795 120.173 65.2795 120.173 65.311C120.173 65.2795 120.14 65.248 120.14 65.2165C120.173 65.2165 120.206 65.185 120.239 65.185ZM120.041 80.9983C120.041 80.9668 120.074 80.9353 120.074 80.8723C120.074 80.9353 120.107 80.9983 120.14 81.0298C120.14 81.0298 120.107 81.0298 120.041 80.9983ZM120.831 78.6672V78.6357C120.831 78.6357 120.831 78.6357 120.831 78.6672ZM122.146 84.5578C122.146 84.5263 122.146 84.4948 122.146 84.4633C122.179 84.4948 122.179 84.5263 122.212 84.5578C122.212 84.5578 122.212 84.5578 122.212 84.5893C122.212 84.5578 122.179 84.5578 122.146 84.5578ZM122.409 82.1323C122.409 82.1008 122.376 82.1008 122.376 82.0693C122.376 82.0693 122.409 82.0693 122.409 82.1008C122.442 82.1008 122.409 82.1008 122.409 82.1323ZM124.678 85.1248C124.678 85.0933 124.678 85.0933 124.678 85.1248C124.678 85.0933 124.678 85.0933 124.678 85.1248C124.678 85.0933 124.678 85.1248 124.678 85.1248ZM124.974 87.5819C124.974 87.5504 124.974 87.5189 124.974 87.4874C125.007 87.5189 125.04 87.5504 125.106 87.5819C125.073 87.5819 125.007 87.5819 124.974 87.5819ZM127.54 87.6134H127.573V87.6449L127.54 87.6134ZM128.362 89.9759L128.329 89.9129C128.329 89.8814 128.329 89.8814 128.329 89.8499C128.362 89.8814 128.395 89.9129 128.428 89.9129C128.461 89.9129 128.461 89.9444 128.494 89.9444C128.461 89.9759 128.395 89.9759 128.362 89.9759ZM132.243 91.6455C132.243 91.614 132.21 91.5825 132.21 91.551C132.243 91.5825 132.309 91.5825 132.342 91.5825C132.309 91.614 132.276 91.6455 132.243 91.6455ZM134.611 90.6689C134.644 90.6689 134.644 90.6689 134.611 90.6689C134.644 90.6689 134.644 90.6689 134.644 90.6689C134.644 90.7004 134.611 90.7004 134.611 90.6689ZM136.387 92.496L136.321 92.433C136.387 92.433 136.42 92.4645 136.486 92.4645C136.453 92.4645 136.42 92.496 136.387 92.496ZM138.492 91.11C138.492 91.11 138.492 91.0784 138.492 91.11H138.525C138.525 91.11 138.525 91.11 138.492 91.11ZM140.629 92.5275C140.597 92.496 140.564 92.496 140.564 92.4645C140.597 92.4645 140.662 92.4645 140.695 92.4645C140.662 92.496 140.629 92.5275 140.629 92.5275ZM142.373 90.7319C142.405 90.7319 142.405 90.7319 142.373 90.7319C142.405 90.7319 142.373 90.7319 142.373 90.7319ZM144.773 91.7085C144.741 91.677 144.708 91.677 144.675 91.6455C144.741 91.6455 144.773 91.614 144.839 91.5825C144.806 91.6455 144.773 91.677 144.773 91.7085ZM148.621 90.1019C148.589 90.1019 148.556 90.0704 148.49 90.0704C148.556 90.0704 148.589 90.0389 148.654 90.0074C148.654 90.0389 148.621 90.0704 148.621 90.1019ZM149.477 87.7709V87.7394H149.509C149.509 87.7394 149.509 87.7394 149.477 87.7709ZM152.075 87.6134C152.075 87.6449 152.075 87.6449 152.075 87.6764V87.7079C152.042 87.7079 152.009 87.7079 151.943 87.7079C152.009 87.6764 152.042 87.6449 152.075 87.6134ZM154.706 82.2898V82.2583H154.739C154.739 82.2268 154.739 82.2583 154.706 82.2898ZM154.837 84.7468C154.87 84.7153 154.903 84.6838 154.903 84.6523C154.903 84.6838 154.903 84.7153 154.903 84.7468C154.903 84.7153 154.87 84.7153 154.837 84.7468ZM156.317 78.8562C156.317 78.8247 156.317 78.8247 156.317 78.8562C156.317 78.8247 156.317 78.8247 156.317 78.8247V78.8562ZM157.008 81.2503C157.041 81.2188 157.041 81.1873 157.041 81.1558C157.041 81.1873 157.074 81.2188 157.074 81.2188C157.041 81.2188 157.008 81.2188 157.008 81.2503ZM157.172 74.0996C156.975 74.3202 156.745 74.5407 156.515 74.7297C156.284 74.9502 156.252 75.2337 156.449 75.5487C156.58 75.7377 156.712 75.9582 156.844 76.1787C157.041 76.5252 157.271 76.8402 157.501 77.1867C157.238 77.3442 157.008 77.5017 156.745 77.6592C156.449 77.8482 156.153 78.0372 155.857 78.2262C155.725 78.2892 155.331 78.5412 155.561 79.1082C155.692 79.4232 155.791 79.7382 155.923 80.0533C156.021 80.3053 156.12 80.5888 156.219 80.8723C155.988 80.9668 155.758 81.0613 155.528 81.1243C155.166 81.2818 154.772 81.4078 154.41 81.5653C154.048 81.6913 153.884 81.9748 153.949 82.3528C154.015 82.7308 154.048 83.1088 154.114 83.4553C154.147 83.7073 154.18 83.9593 154.212 84.2113C153.982 84.2428 153.752 84.2743 153.555 84.3373C153.127 84.4003 152.732 84.4948 152.305 84.5578C151.91 84.6208 151.68 84.8413 151.647 85.2508C151.614 85.5974 151.581 85.9439 151.581 86.2904C151.549 86.5739 151.549 86.8574 151.516 87.1094C151.384 87.1094 151.285 87.1094 151.154 87.1094C150.628 87.1094 150.101 87.0779 149.575 87.0464C149.082 87.0149 148.885 87.2984 148.819 87.5819C148.72 87.9599 148.589 88.3379 148.49 88.6844C148.424 88.9049 148.358 89.1569 148.26 89.3774C147.931 89.2829 147.635 89.2199 147.306 89.1569C147.043 89.0939 146.78 89.0309 146.517 88.9679H146.484C146.221 88.9049 146.056 88.8734 145.859 88.9364C145.661 89.0309 145.563 89.1884 145.431 89.4089C145.135 89.9444 144.839 90.4484 144.543 90.9524C144.214 90.7949 143.853 90.6374 143.524 90.4799C143.261 90.3539 142.997 90.2594 142.767 90.1334C142.438 89.9759 142.142 90.0389 141.879 90.2909C141.682 90.5114 141.452 90.7634 141.254 90.9839C141.024 91.236 140.794 91.488 140.597 91.74C140.333 91.551 140.07 91.3305 139.807 91.1415C139.544 90.9524 139.281 90.7319 139.018 90.5429C138.886 90.4484 138.722 90.3854 138.59 90.3854C138.459 90.3854 138.294 90.4484 138.163 90.5429C137.933 90.7004 137.702 90.8894 137.505 91.0469C137.209 91.2674 136.88 91.488 136.584 91.74C136.486 91.614 136.354 91.488 136.255 91.3619C135.959 91.0154 135.63 90.6689 135.334 90.3224C135.236 90.1964 134.94 89.8499 134.381 90.1334C134.052 90.2909 133.69 90.4484 133.361 90.6059C133.131 90.7004 132.868 90.8264 132.638 90.9209C132.506 90.6689 132.374 90.4169 132.243 90.1964C132.078 89.8814 131.881 89.5664 131.717 89.2199C131.618 89.0309 131.388 88.7789 130.927 88.8734C130.533 88.9679 130.138 89.0624 129.776 89.1254C129.513 89.1884 129.283 89.2514 129.02 89.3144C129.02 89.3144 129.02 89.3144 128.987 89.3144C128.987 89.3144 128.987 89.3144 128.987 89.2829C128.79 88.6529 128.625 88.0544 128.428 87.4559C128.329 87.1094 128.066 86.9204 127.704 86.9519C127.112 86.9834 126.487 86.9834 125.895 87.0149H125.731C125.731 86.6684 125.698 86.3219 125.665 86.0069C125.632 85.7234 125.632 85.4398 125.599 85.1878C125.599 84.6838 125.238 84.5263 124.974 84.4948C124.613 84.4318 124.218 84.3688 123.856 84.3058C123.593 84.2743 123.33 84.2113 123.067 84.1798C123.067 84.1798 123.067 84.1798 123.034 84.1798C123.1 83.6128 123.198 83.0143 123.297 82.4473C123.33 82.1953 123.363 82.0378 123.264 81.8488C123.166 81.6598 122.968 81.5968 122.738 81.5023C122.508 81.4078 122.278 81.3133 122.047 81.2188C121.719 81.0928 121.357 80.9353 120.995 80.8093C121.192 80.3053 121.39 79.8013 121.587 79.3287L121.686 79.0452C121.85 78.6042 121.62 78.3522 121.39 78.2262C121.028 78.0057 120.666 77.7537 120.304 77.5017C120.14 77.3757 119.943 77.2497 119.778 77.1552C119.91 76.9347 120.041 76.7457 120.173 76.5252C120.37 76.2102 120.567 75.8952 120.798 75.5802C121.028 75.2337 120.995 74.9187 120.699 74.6352C120.436 74.3832 120.173 74.0996 119.91 73.8476C119.745 73.6586 119.548 73.5011 119.383 73.3121C119.647 73.0601 119.877 72.8396 120.107 72.5876C120.337 72.3671 120.535 72.1466 120.765 71.9261C121.028 71.6741 121.061 71.3906 120.863 71.1071C120.732 70.8866 120.6 70.6661 120.469 70.4771C120.271 70.1621 120.041 69.8156 119.811 69.4691C119.844 69.4376 119.877 69.4376 119.91 69.4061C120.14 69.2801 120.337 69.1226 120.567 68.9966C120.831 68.8391 121.061 68.6815 121.324 68.4925C121.423 68.4295 121.521 68.3666 121.62 68.3035C121.719 68.2405 121.949 68.02 121.817 67.6735C121.686 67.3585 121.587 67.0435 121.455 66.7285C121.357 66.4135 121.225 66.0985 121.127 65.815C121.258 65.752 121.39 65.7205 121.521 65.6575C121.982 65.4685 122.442 65.311 122.903 65.122C123.33 64.9645 123.494 64.681 123.429 64.2715C123.396 63.988 123.363 63.7045 123.297 63.421C123.264 63.106 123.198 62.7594 123.166 62.4129C123.429 62.3814 123.725 62.3184 123.988 62.2869C124.35 62.2239 124.711 62.1609 125.073 62.0979C125.501 62.0349 125.698 61.8144 125.731 61.4364C125.764 61.0269 125.797 60.6174 125.83 60.2394C125.862 60.0189 125.862 59.7984 125.895 59.5464C126.093 59.5464 126.29 59.5464 126.454 59.5464V59.6094H126.849C126.948 59.6094 127.046 59.6094 127.178 59.6094C127.441 59.6094 127.671 59.6094 127.902 59.6094C128.165 59.6094 128.494 59.5464 128.625 59.1054C128.724 58.8219 128.822 58.5069 128.888 58.2234C128.987 57.9084 129.086 57.5934 129.184 57.2784C129.48 57.3414 129.809 57.4359 130.105 57.4989C130.401 57.5619 130.73 57.6564 131.026 57.7194C131.454 57.8454 131.782 57.6879 131.98 57.3099C132.177 56.9633 132.374 56.6168 132.572 56.2703C132.67 56.0813 132.802 55.8923 132.901 55.7033C133.098 55.7978 133.328 55.8923 133.526 55.9868C133.887 56.1443 134.249 56.3333 134.611 56.4908C135.006 56.6798 135.367 56.6168 135.63 56.3018C135.861 56.0183 136.124 55.7348 136.387 55.4513C136.551 55.2623 136.716 55.1048 136.88 54.9158C137.143 55.1363 137.439 55.3253 137.702 55.5458C137.966 55.7348 138.229 55.9553 138.492 56.1443C138.821 56.3963 139.084 56.2703 139.281 56.1443C139.577 55.9238 139.873 55.7033 140.169 55.5143C140.432 55.3253 140.662 55.1363 140.925 54.9473C141.156 55.2308 141.419 55.5143 141.649 55.7663C141.813 55.9553 142.011 56.1758 142.175 56.3963C142.438 56.6798 142.734 56.7428 143.096 56.5853C143.392 56.4278 143.688 56.3018 144.017 56.1758C144.313 56.0498 144.609 55.9238 144.872 55.7663C145.004 56.0183 145.168 56.3018 145.3 56.5538C145.464 56.8373 145.629 57.1209 145.76 57.4044C145.957 57.7824 146.253 57.9084 146.681 57.8139C146.977 57.7509 147.273 57.6879 147.569 57.5934C147.898 57.5304 148.227 57.4359 148.523 57.3729C148.556 57.4989 148.589 57.5934 148.621 57.7194C148.753 58.1919 148.917 58.6644 149.049 59.1684C149.148 59.5779 149.444 59.7669 149.871 59.7354C150.233 59.7039 150.628 59.7039 150.989 59.7039C151.253 59.7039 151.516 59.7039 151.779 59.6724C151.812 59.9874 151.812 60.3339 151.845 60.6489C151.877 60.9639 151.877 61.2789 151.91 61.5939C151.91 61.8774 152.075 62.2239 152.667 62.2869C153.061 62.3184 153.456 62.4129 153.884 62.4759C154.081 62.5074 154.278 62.5389 154.476 62.5704C154.443 62.8224 154.41 63.106 154.344 63.358C154.278 63.736 154.245 64.0825 154.18 64.4605C154.114 64.9015 154.377 65.122 154.607 65.2165C154.936 65.3425 155.265 65.4685 155.561 65.5945C155.857 65.7205 156.153 65.8465 156.449 65.941C156.317 66.2245 156.219 66.5395 156.12 66.823C156.021 67.138 155.89 67.453 155.758 67.7365C155.627 68.083 155.725 68.335 156.021 68.5556C156.284 68.7131 156.548 68.9021 156.811 69.0911C157.074 69.2801 157.37 69.4691 157.666 69.6581C157.468 69.9416 157.271 70.2566 157.074 70.5401C156.909 70.7921 156.745 71.0441 156.58 71.2646C156.383 71.5481 156.416 71.8316 156.679 72.0836C156.909 72.3041 157.107 72.5246 157.337 72.7451C157.567 72.9971 157.83 73.2491 158.06 73.4696C157.666 73.5641 157.403 73.8476 157.172 74.0996ZM157.172 75.1707C157.172 75.1707 157.172 75.2022 157.172 75.1707C157.14 75.2022 157.14 75.2022 157.172 75.1707C157.14 75.1707 157.14 75.1707 157.172 75.1707ZM120.041 74.9502C120.041 74.9817 120.041 74.9817 120.041 74.9502C120.074 74.9817 120.074 74.9817 120.041 74.9502C120.074 74.9817 120.074 74.9817 120.074 74.9817C120.074 74.9817 120.074 74.9817 120.074 75.0132C120.041 74.9817 120.041 74.9817 120.041 74.9502ZM120.041 71.2646C120.041 71.2331 120.041 71.2331 120.041 71.2016C120.074 71.2331 120.074 71.2331 120.041 71.2646C120.074 71.2646 120.074 71.2646 120.041 71.2646ZM157.172 71.4536C157.172 71.4221 157.172 71.4221 157.172 71.4221C157.172 71.4536 157.172 71.4536 157.172 71.4536ZM158.356 77.2812C158.389 77.3127 158.389 77.3442 158.422 77.3757C158.389 77.4072 158.356 77.4072 158.356 77.4387C158.324 77.3757 158.356 77.3127 158.356 77.2812Z" fill="white"/>
<path d="M138.656 87.5183C146.885 87.5183 153.555 81.1295 153.555 73.2485C153.555 65.3675 146.885 58.9788 138.656 58.9788C130.428 58.9788 123.758 65.3675 123.758 73.2485C123.758 81.1295 130.428 87.5183 138.656 87.5183Z" fill="white"/>
</g>
<path d="M87.2847 98.1669L92.2509 125.163L93.4677 147.749L96.6251 148.127L98.4997 99.4899L87.2847 98.1669Z" fill="#E8A16D"/>
<path d="M86.265 101.159C87.6463 115.492 87.4161 122.957 87.3832 124.249C87.3503 125.54 86.0676 134.109 82.8774 150.331L86.1992 149.04C91.856 134.014 93.632 126.265 94.2898 124.312C94.9147 122.359 96.4605 114.389 98.8942 100.497L86.265 101.159Z" fill="#FFCAA7"/>
<path d="M82.8771 148.85C82.614 149.48 82.4824 149.953 82.4824 150.268C82.4824 150.646 82.5482 151.213 82.6798 151.937C83.1402 151.937 87.3171 151.969 95.2103 152C95.5392 150.961 95.3748 150.425 94.6512 150.331C93.9606 150.236 93.3686 150.173 92.9081 150.11L87.0868 147.591C86.9882 147.528 86.8566 147.591 86.7908 147.685L86.3962 148.567C85.7384 148.85 85.2122 149.008 84.8175 149.008C84.4886 149.008 84.0282 148.882 83.4362 148.63C83.2389 148.504 82.9758 148.599 82.8771 148.85C82.8771 148.819 82.8771 148.85 82.8771 148.85Z" fill="#06508C"/>
<path d="M92.7442 147.402C92.4811 148.032 92.3167 148.504 92.3167 148.819C92.2838 149.197 92.3495 149.764 92.4482 150.52C92.9087 150.551 97.0855 150.709 104.979 151.087C105.341 150.079 105.209 149.512 104.485 149.386C103.795 149.26 103.203 149.166 102.742 149.071L97.0526 146.331C96.954 146.268 96.8224 146.331 96.7566 146.426L96.3291 147.276C95.6713 147.528 95.1451 147.654 94.7175 147.654C94.3887 147.654 93.9282 147.496 93.3691 147.213C93.1389 147.087 92.8758 147.181 92.7442 147.402Z" fill="#06508C"/>
<path d="M100.934 54.161C101.756 56.87 102.742 69.7222 101.723 70.6987L93.5336 69.6277L91.7905 69.5962C89.3239 69.3757 90.8368 61.8471 90.771 59.4845L90.7052 55.0115C90.6723 52.4914 92.843 50.4124 95.5399 50.3494H96.0003C98.4669 50.2864 100.539 51.9559 100.934 54.161Z" fill="#0421B1"/>
<path d="M93.2694 58.5702C92.2169 57.4362 91.4934 56.0187 91.5921 54.4437C91.8552 49.8761 98.4987 50.7896 99.8142 53.0576C101.13 55.3257 101.097 61.1848 99.4196 61.6258C98.7618 61.8148 97.3476 61.4053 95.8676 60.6178L96.5254 63.6733L99.0907 66.7604L95.6374 67.9574L92.1512 67.7369L88.4019 65.8784L91.6907 63.9253L93.2694 58.5702Z" fill="#FFCAA7"/>
<path d="M113.398 67.1052L121.719 64.3961C123.232 63.1676 124.712 62.2541 126.06 61.6871C126.455 61.5926 127.145 61.6241 126.323 62.5691C125.534 63.5141 124.712 64.5221 124.975 64.9001C125.238 65.2781 126.093 64.9631 126.356 65.5616C126.553 65.9711 125.106 66.2861 122.048 66.5697L115.634 70.4757L113.398 67.1052Z" fill="#FFCAA7"/>
<path d="M80.2794 77.689L84.1932 78.319C79.7861 87.0131 77.4181 91.6437 77.1221 92.1477C76.3986 93.2817 77.1879 95.2663 77.4839 96.3373C75.8723 96.7468 76.4314 94.3843 74.3924 94.9513C72.5506 95.4553 71.0048 96.6523 69.1959 95.1718C68.9657 94.9828 68.8013 94.4158 69.5248 94.0693C71.3337 93.2502 73.9648 91.7697 74.3595 91.2027C74.9186 90.3837 76.8919 85.9106 80.2794 77.689Z" fill="#FFCAA7"/>
<path d="M114.615 65.877C115.075 65.121 115.766 64.428 116.687 63.798C117.147 63.483 117.772 63.5775 118.101 63.987C118.298 64.239 118.331 64.554 118.266 64.806C118.496 64.743 118.759 64.6485 118.989 64.554L120.962 67.9561C113.563 71.7991 107.182 75.7997 100.276 74.9177C97.9404 74.6342 96.2302 71.5786 94.0596 70.2556L94.6187 67.8615C102.084 69.0901 106.163 68.0191 114.615 65.877Z" fill="#F2F2F2"/>
<path d="M87.6793 86.8236C87.4491 86.6031 87.3175 86.2881 87.3504 85.9731L87.4491 85.3431C87.5148 84.9021 87.8766 84.5871 88.3042 84.5556C88.37 84.2406 88.4357 83.9256 88.4686 83.6106C88.8633 80.933 88.0739 78.35 88.0739 75.7669C84.5549 78.728 81.4304 83.8311 78.7007 91.0447L74.4909 89.9107C74.6554 89.3437 74.7869 88.7766 74.9514 88.2096C74.4581 87.9576 73.8661 86.7606 74.2936 86.5401C74.7212 86.3196 75.1487 86.1621 75.6092 86.0676C79.2927 74.8849 81.562 71.6718 88.2713 65.5922C88.4028 65.4662 89.7842 65.8757 89.9815 65.9072C90.9353 66.0963 91.889 66.2853 92.8757 66.3798C93.9939 66.5058 95.1121 66.5688 96.2632 66.5688C96.9868 66.5688 98.7628 66.1908 99.3219 66.5688C100.637 67.4508 101.427 69.9393 101.821 71.3568C102.413 73.5304 102.578 75.9559 101.789 78.098C100.736 80.996 98.9601 83.4846 99.4205 86.7291C102.216 106.102 100.736 96.2423 102.282 108.023C95.7041 109.536 88.3042 110.071 81.7922 106.354C80.9371 99.5813 82.9433 94.8878 87.6793 86.8236Z" fill="white"/>
<path d="M88.4678 84.7781C89.2242 84.4946 90.0135 84.3687 90.8029 84.2742C91.5922 84.2112 92.3815 84.2112 93.138 84.2742C93.8944 84.3372 94.6508 84.4316 95.4073 84.5576C96.1637 84.7151 96.9202 84.8726 97.6766 85.1561C96.9202 85.471 96.1308 85.597 95.3415 85.66C94.5522 85.723 93.7628 85.723 93.0064 85.66C92.25 85.597 91.4935 85.5025 90.7371 85.3765C89.9806 85.2505 89.2242 85.0616 88.4678 84.7781Z" fill="#EDEBEB"/>
<path d="M88.6001 65.9418C89.521 67.1703 90.7379 67.9578 92.0205 68.7138C93.3032 69.4383 94.6845 70.0998 96.0329 70.9504C97.3156 71.8009 98.5654 72.7774 99.5849 73.9744C100.111 74.5729 100.572 75.2344 100.868 75.9589C101.164 76.6835 101.361 77.5025 101.131 78.227C100.999 77.471 100.67 76.841 100.243 76.2739C99.8151 75.7069 99.2889 75.2029 98.7298 74.7304C97.6445 73.7854 96.3947 72.9349 95.1778 72.1159C93.9609 71.2969 92.6125 70.5723 91.3628 69.6273C90.7379 69.1548 90.1459 68.6193 89.6525 68.0208C89.1592 67.3593 88.7645 66.6663 88.6001 65.9418Z" fill="#EDEBEB"/>
<path d="M86.8569 69.7847C88.2054 69.8477 89.5209 70.1312 90.8036 70.5092C92.0862 70.8872 93.336 71.3912 94.4871 72.0527C95.6711 72.7142 96.7564 73.5017 97.7102 74.4468C98.6311 75.3918 99.4204 76.5258 99.7822 77.7858C98.8942 76.8093 97.9733 75.9903 96.9538 75.2658C95.9342 74.5412 94.8818 73.8797 93.7635 73.2812C92.6453 72.6827 91.5271 72.1157 90.376 71.5487C89.2249 70.9817 88.0409 70.4147 86.8569 69.7847Z" fill="#EDEBEB"/>
<path d="M88.271 73.7222C88.9288 73.5647 89.5865 73.4387 90.2443 73.3442C90.9021 73.2497 91.6257 73.2497 92.3163 73.3442C92.6781 73.4072 93.007 73.4702 93.3687 73.5962C93.7305 73.6907 94.0594 73.8482 94.3554 73.9742C94.9803 74.2577 95.5723 74.5727 96.1314 74.9507C96.6905 75.3287 97.2167 75.7382 97.7429 76.1792C98.2363 76.6202 98.7296 77.1243 99.0914 77.6913C99.8478 78.8253 100.242 80.0538 100.637 81.2823C99.7163 80.3373 99.0256 79.2348 98.1705 78.3528C97.7429 77.9118 97.3154 77.5338 96.822 77.1558C96.3287 76.7777 95.8354 76.3997 95.3092 76.0847C94.783 75.7382 94.2567 75.4232 93.7305 75.1082C93.4345 74.9507 93.2043 74.8247 92.9412 74.6987C92.6781 74.5727 92.3821 74.4782 92.119 74.3837C90.935 74.0372 89.5865 73.9742 88.271 73.7222Z" fill="#EDEBEB"/>
<path d="M96.1318 87.1727C95.9016 88.7793 95.5069 90.3543 94.9478 91.8978C94.3887 93.4413 93.6652 94.9534 92.7114 96.3394C91.7576 97.7254 90.5736 98.9539 89.291 100.025C87.9754 101.096 86.5612 102.009 85.0483 102.734C86.1994 101.537 87.3834 100.403 88.4688 99.2374C89.5541 98.0719 90.5736 96.8749 91.4616 95.5834C92.3496 94.2918 93.1061 92.9058 93.8625 91.4883C94.6518 90.0708 95.3425 88.5903 96.1318 87.1727Z" fill="#EDEBEB"/>
<path d="M97.6117 87.5183C97.9406 89.5028 97.5459 91.5819 96.8223 93.4719C96.0988 95.3934 95.0793 97.1575 93.9939 98.827C92.9086 100.56 91.4944 102.135 89.8828 103.426C88.2713 104.718 86.3967 105.757 84.4233 106.356C86.1335 105.222 87.7122 103.993 89.1264 102.639C90.5406 101.253 91.7246 99.772 92.777 98.1025C93.8624 96.433 94.9148 94.7949 95.8028 93.0624C96.6579 91.2984 97.3486 89.4713 97.6117 87.5183Z" fill="#EDEBEB"/>
<path d="M98.6636 88.6211C99.0582 90.0386 99.0911 91.5821 98.828 93.0627C98.5978 94.5432 98.0387 95.9922 97.348 97.3152C97.0191 97.9767 96.6245 98.6068 96.2298 99.2368C95.8351 99.8668 95.4405 100.497 95.0458 101.095C94.2236 102.324 93.3685 103.521 92.3818 104.655C92.8423 103.237 93.4014 101.883 94.0263 100.56C94.3223 99.8983 94.6512 99.2368 95.0129 98.6068L95.5392 97.6302C95.7036 97.3152 95.868 97.0002 96.0325 96.6852C96.6903 95.4252 97.2822 94.1337 97.7098 92.8107C98.1702 91.4561 98.4334 90.0701 98.6636 88.6211Z" fill="#EDEBEB"/>
<path d="M95.5068 50.5381C93.7966 50.5696 92.3824 51.6721 91.2971 53.8772V54.0347C91.0998 54.2237 90.9024 54.4127 90.6722 54.6332C90.738 57.6887 88.37 60.3978 86.5611 62.7288C85.41 64.2409 84.226 65.7214 83.338 67.3909C82.7132 68.5879 80.7398 72.179 83.1407 72.557C85.5416 72.9665 88.1069 72.368 90.1131 71.108C91.0669 70.5095 91.922 69.8165 92.3824 68.8399C93.0073 67.5484 93.3033 66.1939 93.6651 64.8079C94.2242 62.6028 94.9477 60.0513 94.6846 57.7832C94.6517 57.7832 94.6517 57.7832 94.6189 57.7832C93.9282 57.7832 93.402 57.2792 93.3691 56.6177C93.3691 55.9562 93.8953 55.4522 94.586 55.4207C94.882 55.4207 95.1451 55.5152 95.3753 55.6727C97.1513 54.5702 99.1575 54.3182 99.6508 52.5857C98.9273 51.6406 98.105 50.5066 95.5068 50.5381Z" fill="#0421B1"/>
<path d="M90.606 55.0737C90.7375 55.0422 90.5073 53.5302 90.5073 53.3412C90.5402 52.7427 90.6718 52.1442 90.902 51.5772C91.3953 50.4746 92.2504 49.5296 93.3029 48.9311C94.5855 48.2066 96.1313 47.9231 97.6113 48.0176C98.7953 48.1121 100.604 48.3326 100.834 49.7186C101.032 50.9156 99.9464 51.2307 99.0584 50.7896C99.0584 50.7581 99.0584 50.7581 99.0584 50.7896C99.2557 51.0417 99.4859 51.3567 99.5846 51.6717C99.1899 51.2937 98.7952 51.6717 98.4664 51.9552C97.381 52.9002 96.0326 53.3412 94.6842 53.7507C93.3686 54.1917 91.9873 54.8532 90.606 55.0737Z" fill="#B2230B"/>
<path d="M93.5206 52.618C94.0654 52.6097 94.5002 52.1801 94.4916 51.6583C94.483 51.1365 94.0344 50.7202 93.4895 50.7284C92.9446 50.7366 92.5099 51.1663 92.5185 51.6881C92.527 52.2098 92.9757 52.6262 93.5206 52.618Z" fill="#0421B1" stroke="white" stroke-width="0.483075" stroke-miterlimit="10"/>
<path d="M137.283 82.1274L130.213 74.4372L132.624 72.2213L137.12 77.1418L145.689 66.584L148.231 68.6369L137.283 82.1274Z" fill="#0421B1"/>
<defs>
<filter id="filter0_d" x="99.8975" y="45.0386" width="81.1027" height="100.533" filterUnits="userSpaceOnUse" color-interpolation-filters="sRGB">
<feFlood flood-opacity="0" result="BackgroundImageFix"/>
<feColorMatrix in="SourceAlpha" type="matrix" values="0 0 0 0 0 0 0 0 0 0 0 0 0 0 0 0 0 0 127 0"/>
<feOffset dy="8"/>
<feGaussianBlur stdDeviation="8"/>
<feColorMatrix type="matrix" values="0 0 0 0 0.129412 0 0 0 0 0.129412 0 0 0 0 0.129412 0 0 0 0.24 0"/>
<feBlend mode="normal" in2="BackgroundImageFix" result="effect1_dropShadow"/>
<feBlend mode="normal" in="SourceGraphic" in2="effect1_dropShadow" result="shape"/>
</filter>
</defs>
</svg>
