<svg width="220" height="228" fill="none" xmlns="http://www.w3.org/2000/svg"><g filter="url(#filter0_d)"><path d="M78.721 49.282V14.72a6.285 6.285 0 016.285-6.285h62.842a6.284 6.284 0 016.284 6.285v34.563a6.284 6.284 0 01-6.284 6.285H85.006a6.285 6.285 0 01-6.285-6.285z" fill="#4398D1"/><path d="M147.848 8.434h-6.677L94.039 55.567h53.809a6.285 6.285 0 006.285-6.285V14.72a6.285 6.285 0 00-6.285-6.285z" fill="#3E8CC7"/><path d="M85.005 33.572h6.285v3.142h-6.285v-3.142zM85.005 42.998h6.285v3.142h-6.285v-3.142zM113.284 42.998h6.285v3.142h-6.285v-3.142zM94.432 33.572h6.284v3.142h-6.284v-3.142zM103.858 33.572h6.284v3.142h-6.284v-3.142zM113.284 33.572h6.285v3.142h-6.285v-3.142zM143.134 14.72h3.142v4.713h-3.142V14.72zM136.851 14.72h3.142v4.713h-3.142V14.72zM130.566 14.72h3.143v4.713h-3.143V14.72zM124.282 14.72h3.142v4.713h-3.142V14.72z" fill="#5EB3D1"/><path d="M85.005 24.775v-7.54a2.513 2.513 0 012.514-2.515h7.541a2.513 2.513 0 012.513 2.514v7.541a2.513 2.513 0 01-2.513 2.514h-7.54a2.513 2.513 0 01-2.515-2.514z" fill="#FDB62F"/><path d="M85.005 19.432h4.714v3.142h-4.714v-3.142zM92.86 19.432h4.713v3.142h-4.712v-3.142z" fill="#FD7B2F"/></g><g filter="url(#filter1_d)"><path d="M172.091 38.199H55.237a5.238 5.238 0 00-5.03 3.785l35.559 76.813h86.286c2.88 0 5.223-2.332 5.223-5.2V43.399c0-2.868-2.343-5.2-5.184-5.2z" fill="#307205"/><path d="M50.014 43.398v70.198c0 2.868 2.343 5.2 5.223 5.2h30.567L50.206 41.984a5.718 5.718 0 00-.192 1.414z" fill="#F9AA38"/><path d="M61.227 89.817h16.935c2.534 0 4.608-2.064 4.608-4.588v-9.788c0-2.523-2.073-4.588-4.608-4.588H61.227c-2.534 0-4.608 2.065-4.608 4.588v9.788c0 2.524 2.074 4.588 4.608 4.588z" fill="#EA931F"/><path d="M69.445 54.524l.23.84h.077l.192-.84 3.725-11.356h3.648l-5.836 15.6h-3.533l-5.876-15.6h3.648l3.725 11.356zM82.348 44.392h-3.456V42.06h3.456v2.332zm0 14.376h-3.456V47.183h3.456v11.585zM89.298 44.354v2.83h2.15v2.179h-2.15v5.888c0 .459.115.765.307.956.192.19.5.306.807.306.192 0 .345 0 .46-.039.116-.038.27-.038.461-.076l.269 2.256a5.315 5.315 0 01-.998.23 8.878 8.878 0 01-1.076.076c-1.19 0-2.112-.306-2.765-.88-.652-.573-.96-1.53-.96-2.83v-5.887h-1.881v-2.18h1.882v-2.829h3.494zM101.125 58.769a5.481 5.481 0 01-.307-.842c-.077-.305-.154-.573-.192-.917a4.185 4.185 0 01-1.42 1.415c-.615.382-1.268.573-2.075.573-1.344 0-2.38-.306-3.11-.918-.73-.611-1.075-1.49-1.075-2.561 0-1.147.499-2.027 1.459-2.639.96-.611 2.38-.917 4.224-.917h1.92v-.918c0-.573-.153-.994-.499-1.3-.346-.306-.806-.459-1.46-.459-.575 0-.998.115-1.305.383-.307.23-.46.573-.46.994h-3.303l-.039-.076c-.038-.995.423-1.836 1.421-2.524.999-.727 2.304-1.07 3.917-1.07 1.536 0 2.765.343 3.725 1.032.96.688 1.421 1.72 1.421 3.02v4.78c0 .535.038 1.07.153 1.529.077.497.231.956.423 1.415h-3.418zm-3.149-2.103c.615 0 1.152-.153 1.613-.42.461-.269.807-.574.96-.957v-1.644h-1.92c-.73 0-1.267.153-1.651.497-.384.344-.576.727-.576 1.224 0 .382.153.688.422.917.27.23.653.383 1.152.383zM110.227 58.768h-3.456V42.06h3.456v16.708zM118.599 58.998c-1.92 0-3.38-.535-4.455-1.606-1.075-1.07-1.613-2.409-1.613-4.09v-.422c0-1.72.538-3.135 1.575-4.244 1.037-1.108 2.457-1.644 4.301-1.644 1.728 0 3.033.46 3.955 1.415.921.956 1.382 2.218 1.382 3.862v1.606h-7.68l-.038.076c.038.803.307 1.453.806 1.912.461.497 1.191.726 2.112.726.768 0 1.421-.076 1.959-.23.537-.152 1.113-.343 1.689-.65l.922 1.913c-.499.382-1.191.688-2.074.955a9.431 9.431 0 01-2.841.421zm-.231-9.635c-.691 0-1.229.23-1.613.65-.384.42-.614.994-.691 1.72l.039.039h4.224v-.23c0-.688-.154-1.223-.461-1.605-.307-.383-.807-.574-1.498-.574z" fill="#F9AA38"/><path d="M87.225 65.65h-1.037l-.23.69h-.653l1.075-3.136h.653l1.075 3.135h-.652l-.23-.688zm-.883-.496h.73l-.346-1.109-.384 1.109zM89.607 65.689c0-.077-.039-.115-.115-.191a1.561 1.561 0 00-.385-.115 1.582 1.582 0 01-.614-.23.544.544 0 01-.23-.458c0-.192.076-.383.268-.497.154-.153.384-.23.692-.23.307 0 .537.077.73.23.191.153.268.305.268.535h-.614c0-.077-.039-.153-.077-.23-.038-.076-.154-.076-.269-.076-.115 0-.192.038-.23.076a.292.292 0 00-.077.192c0 .076.038.114.077.19.076.039.192.077.384.115.268.077.499.153.652.268.154.115.23.268.23.459a.557.557 0 01-.268.497 1.37 1.37 0 01-.73.191c-.307 0-.576-.076-.73-.23a.667.667 0 01-.268-.535h.576c0 .115.038.23.115.268a.726.726 0 00.307.077c.116 0 .192-.039.27-.077 0-.076.038-.153.038-.23zM91.91 65.689c0-.077-.039-.115-.116-.191a1.56 1.56 0 00-.384-.115 1.582 1.582 0 01-.614-.23.544.544 0 01-.23-.458c0-.192.076-.383.268-.497.154-.153.384-.23.691-.23.308 0 .538.077.73.23.192.153.269.305.269.535h-.653a.542.542 0 00-.077-.23c-.076-.076-.153-.076-.269-.076-.115 0-.192.038-.23.076-.077.039-.077.115-.077.192 0 .076.039.114.077.19.077.039.192.077.384.115.269.077.5.153.653.268.154.115.23.268.23.459a.557.557 0 01-.269.497 1.37 1.37 0 01-.73.191c-.306 0-.575-.076-.729-.23a.667.667 0 01-.269-.535h.576c0 .115.039.23.116.268a.726.726 0 00.307.077c.115 0 .192-.039.269-.077.038-.076.076-.153.076-.23zM94.367 65.995c-.077.114-.154.229-.269.305a.65.65 0 01-.384.115.692.692 0 01-.576-.268c-.153-.153-.192-.42-.192-.764v-1.338h.615v1.3c0 .19.038.344.076.42.039.077.154.115.27.115.115 0 .191 0 .268-.038.077-.039.115-.077.192-.153v-1.683h.614v2.333h-.537l-.077-.344zM96.672 64.542h-.23a.548.548 0 00-.23.076.3.3 0 00-.154.153v1.568h-.615v-2.333h.576l.039.344c.038-.114.115-.229.23-.267.115-.038.192-.115.307-.115h.154l-.077.574zM98.361 66.339c-.038-.039-.038-.115-.077-.153 0-.077-.038-.115-.038-.191a.896.896 0 01-.269.267.65.65 0 01-.384.115.946.946 0 01-.576-.191.725.725 0 01-.192-.497c0-.23.077-.42.269-.536.192-.114.422-.19.768-.19h.346v-.192a.551.551 0 00-.077-.268c-.077-.076-.154-.076-.269-.076-.115 0-.192.038-.23.076a.292.292 0 00-.077.192h-.615c0-.192.077-.383.27-.497.191-.115.422-.23.729-.23.269 0 .499.077.691.23.192.153.269.344.269.611v.918c0 .115 0 .23.038.306.039.076.039.191.077.306h-.653zm-.576-.42c.115 0 .192-.04.307-.077.116-.039.154-.115.192-.192v-.344h-.345a.437.437 0 00-.307.115c-.077.076-.116.153-.116.23 0 .076.039.152.077.19a.294.294 0 00.192.077zM99.935 64.006l.039.344c.077-.114.192-.229.307-.267a.65.65 0 01.384-.115c.23 0 .422.077.538.23.115.153.192.382.192.726v1.415h-.653v-1.415a.766.766 0 00-.077-.344c-.038-.077-.154-.115-.269-.115-.077 0-.192 0-.23.038-.077.039-.115.077-.192.153v1.683h-.615v-2.333h.576zM102.855 65.918a.35.35 0 00.269-.115.345.345 0 00.115-.267h.576c0 .23-.077.42-.269.573-.192.153-.422.23-.691.23-.346 0-.614-.115-.806-.344-.192-.23-.269-.497-.269-.842v-.076c0-.344.077-.612.269-.841.192-.23.46-.344.806-.344.269 0 .499.076.691.23.192.152.269.382.269.65h-.576a.432.432 0 00-.115-.307.35.35 0 00-.269-.115.404.404 0 00-.346.192c-.076.114-.115.306-.115.497v.076c0 .191.039.383.115.497.077.23.192.306.346.306zM105.196 66.377c-.345 0-.614-.115-.806-.306a1.256 1.256 0 01-.307-.841v-.077c0-.344.076-.65.268-.84a.969.969 0 01.768-.345c.308 0 .538.115.73.306.154.191.269.459.269.765v.306h-1.383c0 .153.077.305.154.382.077.076.23.153.384.153s.269 0 .346-.038c.115-.039.192-.077.307-.115l.153.382a.895.895 0 01-.384.191 1.945 1.945 0 01-.499.077zm-.038-1.95a.436.436 0 00-.307.115c-.077.076-.116.19-.116.344h.768v-.038a.595.595 0 00-.076-.306c-.077-.039-.154-.115-.269-.115zM108.192 64.006l.039.306a.886.886 0 01.268-.267c.116-.077.231-.077.384-.077a.65.65 0 01.384.115.475.475 0 01.231.306c.077-.115.153-.23.269-.306a.774.774 0 01.422-.115c.23 0 .422.077.538.23.115.153.192.42.192.764v1.377h-.615v-1.377a.812.812 0 00-.077-.382.347.347 0 00-.268-.115.549.549 0 00-.231.077.296.296 0 00-.153.153v1.682h-.615v-1.415a.812.812 0 00-.077-.382.347.347 0 00-.268-.115c-.077 0-.154 0-.231.038a.296.296 0 00-.153.153v1.72h-.615v-2.331h.576v-.039zM112.8 66.339c-.038-.039-.038-.115-.077-.153-.038-.039-.038-.115-.038-.191a.9.9 0 01-.269.267.65.65 0 01-.384.115.948.948 0 01-.576-.191c-.153-.115-.192-.306-.192-.497 0-.23.077-.42.269-.536.192-.114.422-.19.768-.19h.346v-.192c0-.115-.039-.191-.077-.268-.077-.076-.154-.076-.269-.076-.115 0-.192.038-.23.076a.289.289 0 00-.077.192h-.615c0-.192.077-.383.269-.497.192-.115.423-.23.73-.23.269 0 .499.077.691.23.192.153.269.344.269.611v.918c0 .115 0 .23.038.306.039.076.039.191.077.306h-.653zm-.576-.42c.115 0 .192-.04.307-.077.116-.039.154-.115.192-.192v-.344h-.345a.436.436 0 00-.307.115c-.077.076-.116.153-.116.23 0 .076.039.152.077.19a.295.295 0 00.192.077zM114.49 66.34h-.614v-3.365h.614v3.364zM116.371 66.339c-.038-.039-.038-.115-.077-.153-.038-.039-.038-.115-.038-.191a.9.9 0 01-.269.267.65.65 0 01-.384.115.948.948 0 01-.576-.191c-.154-.115-.192-.306-.192-.497 0-.23.077-.42.269-.536.192-.114.422-.19.768-.19h.345v-.192a.555.555 0 00-.076-.268c-.077-.076-.154-.076-.269-.076-.115 0-.192.038-.231.076a.293.293 0 00-.076.192h-.615c0-.192.077-.383.269-.497.192-.115.422-.23.73-.23.268 0 .499.077.691.23.192.153.269.344.269.611v.918c0 .115 0 .23.038.306.038.076.038.191.077.306h-.653zm-.576-.42c.115 0 .192-.04.307-.077.115-.039.154-.115.192-.192v-.344h-.345a.438.438 0 00-.308.115c-.076.076-.115.153-.115.23 0 .076.039.152.077.19a.292.292 0 00.192.077zM117.293 65.192c0-.382.077-.65.23-.88.154-.229.384-.343.692-.343.115 0 .23.038.307.076.077.038.192.115.23.23v-1.262h.653v3.364h-.538l-.038-.305c-.077.114-.154.19-.269.229-.115.038-.23.076-.345.076a.821.821 0 01-.653-.305c-.154-.192-.231-.498-.231-.842v-.038h-.038zm.614.038c0 .192.039.383.116.498a.402.402 0 00.345.19c.077 0 .154 0 .231-.038a.3.3 0 00.153-.152v-.995c-.038-.076-.115-.114-.153-.153a.55.55 0 00-.231-.076.402.402 0 00-.345.191 1.104 1.104 0 00-.116.535zM120.558 63.433h-.653v-.458h.615v.458h.038zm0 2.906h-.653v-2.332h.615v2.332h.038zM122.093 66.377c-.345 0-.614-.115-.806-.306a1.257 1.257 0 01-.308-.841v-.077c0-.344.077-.65.269-.84a.969.969 0 01.768-.345c.308 0 .538.115.73.306.154.191.269.459.269.765v.306h-1.383c0 .153.077.305.154.382.077.076.23.153.384.153s.269 0 .346-.038c.115-.039.192-.077.307-.115l.153.382a.895.895 0 01-.384.191 1.945 1.945 0 01-.499.077zm-.038-1.95a.436.436 0 00-.307.115c-.077.076-.116.19-.116.344h.768v-.038a.595.595 0 00-.076-.306c-.039-.077-.154-.115-.269-.115z" fill="#fff"/><path d="M92.907 113.789H90.91v-.382l.922-1.032c.153-.153.23-.306.307-.421.077-.115.077-.229.077-.306a.72.72 0 00-.077-.306.35.35 0 00-.269-.114.35.35 0 00-.307.153c-.077.076-.115.229-.115.344h-.576c0-.268.076-.497.268-.65.192-.192.423-.268.73-.268s.538.076.73.229a.902.902 0 01.268.612.766.766 0 01-.153.497c-.077.153-.269.344-.5.612l-.499.573h1.23v.459h-.04zM93.33 112.451l.154-1.644h1.65v.459h-1.151l-.077.688c.038-.038.115-.076.192-.115.077-.038.192-.038.269-.038.269 0 .499.077.653.268.153.191.23.42.23.726s-.077.535-.23.727c-.154.191-.423.267-.768.267-.27 0-.5-.076-.692-.229-.192-.153-.307-.344-.269-.612l.577-.038c0 .115.038.229.115.306a.439.439 0 00.307.114c.154 0 .23-.038.307-.152a.646.646 0 00.115-.383.764.764 0 00-.115-.42.35.35 0 00-.307-.153c-.115 0-.192.038-.269.076-.077.038-.115.115-.115.153h-.576zM96.825 110.769c.115 0 .23 0 .307.038.077.038.192.038.307.077l-.115.42c-.077-.038-.192-.038-.23-.076-.077 0-.154-.039-.27-.039-.191 0-.306.077-.421.192-.116.114-.154.305-.154.573v.077a1.18 1.18 0 01.269-.192.972.972 0 01.384-.076c.269 0 .46.076.614.268.154.191.23.42.23.688 0 .306-.076.535-.268.726-.192.191-.423.268-.73.268s-.576-.115-.768-.306a1.286 1.286 0 01-.307-.879v-.536c0-.382.115-.688.346-.917.23-.23.46-.306.806-.306zm-.115 1.529c-.115 0-.192 0-.27.038-.076.039-.153.077-.191.153v.153c0 .23.038.421.115.536a.405.405 0 00.346.191c.115 0 .23-.039.307-.153a.646.646 0 00.115-.383c0-.152-.038-.305-.115-.382a.35.35 0 00-.307-.153zM99.051 112.031c.154 0 .23-.039.308-.115a.434.434 0 00.115-.306.348.348 0 00-.115-.268.439.439 0 00-.308-.114.35.35 0 00-.269.114.348.348 0 00-.115.268h-.576c0-.229.077-.421.27-.574.191-.153.421-.229.69-.229.308 0 .538.076.73.229.192.153.269.345.269.612a.649.649 0 01-.115.383c-.077.114-.192.191-.308.267.154.077.27.153.346.268a.762.762 0 01.115.42.815.815 0 01-.307.65c-.192.153-.46.23-.768.23-.269 0-.5-.077-.73-.23a.741.741 0 01-.307-.611h.576c0 .114.038.191.115.267a.435.435 0 00.308.115c.153 0 .23-.038.345-.115.115-.076.115-.191.115-.306 0-.153-.038-.267-.115-.344-.077-.076-.192-.114-.345-.114h-.346v-.459h.422v-.038zM102.392 111.572a.643.643 0 01-.116.382c-.076.115-.192.191-.307.268.154.076.307.153.384.267.077.115.154.268.154.421 0 .268-.077.497-.269.65-.192.153-.422.229-.73.229-.307 0-.576-.076-.768-.229a.815.815 0 01-.307-.65c0-.153.039-.306.154-.421.115-.114.23-.229.384-.267-.154-.077-.269-.153-.346-.268a.642.642 0 01-.115-.382c0-.268.077-.459.269-.612.192-.153.422-.229.691-.229.269 0 .499.076.653.229.192.153.269.344.269.612zm-.461 1.338a.437.437 0 00-.115-.306.44.44 0 00-.308-.115.624.624 0 00-.345.115.433.433 0 00-.115.306c0 .153.038.229.115.306.077.076.192.115.345.115a.44.44 0 00.308-.115c.076-.077.115-.153.115-.306zm-.115-1.3c0-.115-.039-.191-.077-.268-.077-.076-.154-.114-.231-.114a.348.348 0 00-.268.114.348.348 0 00-.116.268c0 .115.039.229.116.306a.349.349 0 00.268.115c.116 0 .192-.039.231-.115a.725.725 0 00.077-.306zM104.888 113.789h-1.997v-.382l.922-1.032c.154-.153.23-.306.307-.421.077-.115.077-.229.077-.306a.71.71 0 00-.077-.306.35.35 0 00-.269-.114.35.35 0 00-.307.153c-.077.076-.115.229-.115.344h-.576c0-.268.077-.497.269-.65.192-.192.422-.268.729-.268.308 0 .538.076.73.229.192.153.269.383.269.612a.768.768 0 01-.154.497c-.077.153-.269.344-.499.612l-.499.573h1.229v.459h-.039zM106.424 110.769c.116 0 .231 0 .308.038.115.038.192.038.307.077l-.115.42c-.077-.038-.192-.038-.231-.076-.077 0-.153-.039-.269-.039-.192 0-.307.077-.422.192-.115.114-.154.305-.154.573v.077a1.18 1.18 0 01.269-.192.975.975 0 01.384-.076c.269 0 .461.076.615.268.153.191.23.42.23.688 0 .306-.077.535-.269.726-.192.191-.422.268-.729.268-.308 0-.576-.115-.768-.306a1.286 1.286 0 01-.308-.879v-.536c0-.382.116-.688.346-.917.192-.191.461-.306.806-.306zm-.115 1.529c-.115 0-.192 0-.269.038-.076.039-.153.077-.192.153v.153c0 .23.039.421.116.536a.404.404 0 00.345.191.35.35 0 00.307-.153.646.646 0 00.116-.383c0-.152-.039-.305-.116-.382-.115-.115-.192-.153-.307-.153zM109.688 111.266c-.346.382-.576.726-.692 1.07a3.136 3.136 0 00-.192 1.071v.382h-.614v-.382c0-.421.077-.803.23-1.109.154-.306.384-.688.653-.994h-1.536v-.459h2.074v.421h.077zM110.956 113.369c.153 0 .269-.039.345-.153a.818.818 0 00.154-.459v-.191c-.077.076-.154.153-.23.191a.73.73 0 01-.308.076c-.268 0-.499-.076-.652-.267-.154-.191-.231-.421-.231-.727s.077-.535.269-.726a.986.986 0 01.73-.306c.307 0 .537.115.729.306.192.191.269.497.269.841v.803c0 .344-.115.612-.307.803a1.076 1.076 0 01-.768.306c-.115 0-.192 0-.307-.038-.116-.039-.231-.039-.308-.077l.116-.421a.543.543 0 00.268.077c0-.038.116-.038.231-.038zm.038-.994c.115 0 .192-.039.269-.077.077-.038.115-.076.192-.153v-.344c0-.191-.038-.344-.115-.42a.35.35 0 00-.307-.153.35.35 0 00-.308.153.687.687 0 00-.115.42c0 .153.039.306.115.421.077.076.154.153.269.153zM113.874 113.789h-.576v-2.447h-.614v-.458l1.19-.115v3.02zM116.869 111.266c-.346.382-.576.726-.692 1.07a3.313 3.313 0 00-.192 1.071v.382h-.614v-.382c0-.421.077-.803.23-1.109.154-.306.384-.688.653-.994h-1.536v-.459h2.074v.421h.077zM119.288 111.266c-.345.382-.576.726-.691 1.07a3.313 3.313 0 00-.192 1.071v.382h-.614v-.382c0-.421.076-.803.23-1.109.154-.306.384-.688.653-.994h-1.536v-.459h2.073v.421h.077zM120.632 112.031c.153 0 .23-.039.307-.115a.433.433 0 00.115-.306.347.347 0 00-.115-.268.439.439 0 00-.307-.114.351.351 0 00-.269.114.347.347 0 00-.115.268h-.576c0-.229.077-.421.269-.574.192-.153.422-.229.691-.229.307 0 .537.076.729.229.192.153.269.345.269.612a.645.645 0 01-.115.383c-.077.114-.192.191-.307.267.153.077.269.153.345.268a.763.763 0 01.116.42.816.816 0 01-.308.65c-.192.153-.46.23-.768.23-.268 0-.499-.077-.729-.23a.741.741 0 01-.307-.611h.576c0 .114.038.191.115.267a.435.435 0 00.307.115c.154 0 .23-.038.346-.115.115-.076.115-.191.115-.306 0-.153-.039-.267-.115-.344-.077-.076-.192-.114-.346-.114h-.269v-.459h.346v-.038zM122.936 113.369c.154 0 .269-.039.346-.153a.818.818 0 00.153-.459v-.191c-.076.076-.153.153-.23.191a.73.73 0 01-.307.076c-.269 0-.499-.076-.653-.267-.154-.191-.23-.421-.23-.727s.076-.535.268-.726a.987.987 0 01.73-.306c.307 0 .538.115.73.306.192.191.268.497.268.841v.803c0 .344-.115.612-.307.803a1.076 1.076 0 01-.768.306c-.115 0-.192 0-.307-.038-.115-.039-.23-.039-.307-.077l.115-.421a.55.55 0 00.269.077c.038-.038.115-.038.23-.038zm.077-.994c.115 0 .192-.039.269-.077.077-.038.115-.076.192-.153v-.344c0-.191-.039-.344-.115-.42a.35.35 0 00-.308-.153.35.35 0 00-.307.153.68.68 0 00-.115.42c0 .153.038.306.115.421.039.076.115.153.269.153zM125.855 113.789h-.576v-2.447h-.614v-.458l1.19-.115v3.02zM128.889 111.266c-.345.382-.576.726-.691 1.07a3.313 3.313 0 00-.192 1.071v.382h-.614v-.382c0-.421.076-.803.23-1.109.154-.306.384-.688.653-.994h-1.536v-.459h2.073v.421h.077z" fill="#212121"/><path d="M65.374 115.816l-7.18-4.129 7.065-3.9.576.994-5.3 2.906 5.415 3.135-.576.994zM148.704 43.17h23.808v30.587h-23.808z" fill="#fff"/><path d="M163.035 63.892c1.434-1.688 2.412-3.764 2.249-6.085-.472-6.668-9.83-5.208-11.656-1.833-1.825 3.375-1.597 11.91.75 12.526.946.243 2.935-.34 4.972-1.574l-1.336 6.798h7.548l-2.527-9.832z" fill="#CB7A43"/><path d="M168.577 55.583c.244-.243.375-.584.489-.908.114-.341.228-.682.31-1.022.163-.698.163-1.51-.343-2.061-.407-.438-1.011-.633-1.565-.682a2.584 2.584 0 00-1.108.146c-.359.114-.669.341-1.011.487-.016-.762-.147-1.541-.522-2.19a2.178 2.178 0 00-1.646-1.055c-.685-.097-1.37.065-1.989.406-.163.08-.31.178-.457.276-.13.08-.244.178-.391.21-.163.033-.244-.048-.342-.178-.131-.13-.261-.26-.408-.357-.652-.47-1.499-.665-2.249-.39-.343.13-.685.358-.913.666-.212.276-.359.698-.652.892-.131.081-.212-.032-.326-.097-.163-.114-.326-.243-.489-.357a2.323 2.323 0 00-.767-.34c-.407-.098-.961-.066-1.076.454-.048.194-.016.405 0 .6.017.276.033.552.066.811.016.211.049.406.081.617.016.113.082.308.033.422-.065.13-.326.065-.44.065a1.902 1.902 0 00-.669.146c-.163.08-.342.178-.407.373-.049.113-.033.227-.017.34.017.147 0 .211-.016.357-.31-.146-1.369-.486-1.5.065-.049.179.049.39.131.536.13.276.309.519.489.746a6.49 6.49 0 001.32 1.266.85.85 0 00-.228 1.427c.212.195.505.244.782.228.098 0 .245-.05.327-.033.048.016.081.049.146.049.391.032.832-.065 1.207-.146a3.954 3.954 0 001.842-.957c.13-.13.244-.195.424-.195.163 0 .309.048.472.048.424.017.799-.194 1.174-.324.016.52.179 1.087.391 1.558.18.389.538.438.897.47 1.141.114 2.298-.016 3.44-.016-1.109.243-2.266.357-3.359.649-.505.13-.114.47.098.698.343.373.603.843.799 1.346.538-.697 1.5-1.168 2.348-.957.945.243 1.597 1.509.994 2.418-.342.519-.978.73-1.5.957.408.422.506 1.038.75 1.574.114.26.293.551.571.649.097.032.212.032.293.113.098.098.114.211.245.292.505.341 1.287.325 1.728-.13.407-.405.293-1.054-.033-1.46.538-.227 1.5-.503 1.288-1.33 1.157-.081 3.961-1.931 2.413-3.294.847-.47 1.63-1.639 1.092-2.677-.44-.795-1.418-1.152-2.217-1.2z" fill="#3A3A3A"/><path d="M153.188 60.485c-.62.162-.767.86-.995 1.249-.228.39-.684 1.168-.913 1.574-.228.39-.228.39-.146.697.456.552 1.076.39 1.76.536.31-.081.685.146.995.065" fill="#CB7A43"/><path d="M154.052 60.695c-.179 0-.31-.146-.31-.325 0-.178.147-.324.31-.324.179 0 .31.146.31.324 0 .179-.131.325-.31.325zM154.003 65.935a2.364 2.364 0 01-1.059.097c.391-.113.75-.243 1.076-.438.163-.097.326-.194.472-.324.082-.065.164-.13.245-.211.049-.065.114-.114.179-.179l.017-.016a.183.183 0 01.26.033c.082.08.066.21-.016.292l-.016.016c-.147.113-.277.276-.424.454-.147.179-.326.373-.522.487-.391.276-.815.422-1.255.552.179-.146.359-.276.538-.406.196-.097.359-.227.505-.357zM154.279 59.445c-.13 0-.277 0-.44-.017a1.384 1.384 0 01-.473-.13c.147-.08.277-.145.424-.194.147-.049.294-.081.457-.081.326-.016.701.146.847.454l-.456-.032h-.359z" fill="#3A3A3A"/></g><g filter="url(#filter2_d)"><mask id="a" maskUnits="userSpaceOnUse" x="20" y="85" width="180" height="115"><rect x="20" y="85.001" width="180" height="114" rx="8.108" fill="#F7CDD4"/></mask><g mask="url(#a)"><rect x="20" y="85.001" width="180" height="114" rx="8.108" fill="#F7CDD4"/><g filter="url(#filter3_f)"><path fill="#C1E3F2" d="M69.19 85.001h81.081v114H69.19z"/></g><path fill="#6BB8DC" d="M85.406 105.531h12.432v2.701H85.406zM85.405 114.716h12.432v2.701H85.405zM85.405 121.74h30.811v2.701H85.405zM85.405 130.924h45.946v2.701H85.405zM85.405 147.674h27.568v2.701H85.405zM85.405 157.94h19.459v2.701H85.405z"/><path fill="#C6C6C6" d="M85.405 163.341h51.892v3.782H85.405zM85.405 152.534h50.811v3.782H85.405zM85.405 135.245h27.568v3.782H85.405zM85.406 125.522h24.865v3.782H85.406zM85.405 140.65h31.892v3.782H85.405zM85.405 170.365h47.568v3.782H85.405zM85.405 177.388h60v3.782h-60zM85.405 184.413h22.703v3.782H85.405z"/><path d="M20 93.109a8.108 8.108 0 018.108-8.108h163.784A8.108 8.108 0 01200 93.109v3.778H20V93.11z" fill="#88C6E3"/><path d="M200 191.977a7.023 7.023 0 01-7.024 7.023H27.024A7.023 7.023 0 0120 191.977h180z" fill="#DDF2F9"/><path d="M83.434 90.234v-1.099h-4.921v1.099h1.878v4.846h1.165v-4.846h1.878zm1.989 4.846v-5.945h-1.174v5.945h1.174zm5.732-4.846v-1.099h-4.921v1.099h1.878v4.846h1.165v-4.846h1.878zm3.75 4.846h1.29l-1.274-2.431c.78-.227 1.266-.856 1.266-1.686 0-1.031-.738-1.828-1.895-1.828H91.97v5.945h1.165v-2.289h.604l1.165 2.289zm-1.77-3.287v-1.651h.94c.586 0 .93.327.93.83 0 .486-.344.821-.93.821h-.94zm7.798 3.287v-1.09h-2.566v-1.375h2.323v-1.031h-2.323v-1.359h2.566v-1.09H97.21v5.945h3.723zm4.386-1.073v-3.798h.93c.973 0 1.778.612 1.778 1.903s-.814 1.895-1.786 1.895h-.922zm.964 1.073c1.693 0 2.943-1.09 2.943-2.968s-1.241-2.977-2.935-2.977h-2.129v5.945h2.121zm7.668 0v-1.09h-2.565v-1.375h2.322v-1.031h-2.322v-1.359h2.565v-1.09h-3.722v5.945h3.722zm7.229-4.528c-.135-.67-.688-1.542-2.13-1.542-1.123 0-2.071.805-2.071 1.861 0 .897.612 1.51 1.56 1.702l.83.168c.461.092.721.36.721.704 0 .42-.344.73-.965.73-.838 0-1.249-.529-1.299-1.116l-1.073.285c.092.847.788 1.862 2.364 1.862 1.384 0 2.146-.923 2.146-1.837 0-.838-.578-1.542-1.66-1.752l-.83-.16c-.436-.083-.645-.343-.645-.67 0-.394.369-.754.93-.754.755 0 1.023.511 1.082.838l1.04-.319zm4.498-2.9h-1.375l-.864 1.064h1.023l1.216-1.065zm.285 7.428v-1.09h-2.566v-1.375h2.323v-1.031h-2.323v-1.359h2.566v-1.09h-3.723v5.945h3.723zm.515-1.811c0 1.165.771 1.937 1.945 1.937 1.157 0 1.937-.889 1.937-1.962v-4.109h-1.157v4.109c0 .52-.302.863-.788.863-.47 0-.814-.276-.822-.888v-.545l-1.115.2v.395zm6.025-1.166c0-1.341.939-1.978 1.853-1.978.923 0 1.862.637 1.862 1.978 0 1.342-.939 1.98-1.862 1.98-.914 0-1.853-.638-1.853-1.98zm-1.199.009c0 1.912 1.442 3.094 3.052 3.094 1.618 0 3.061-1.183 3.061-3.094 0-1.92-1.443-3.102-3.061-3.102-1.61 0-3.052 1.182-3.052 3.102zm9.338 3.102c1.274 0 2.288-.78 2.288-2.239v-3.84h-1.157v3.757c0 .78-.427 1.19-1.131 1.19-.688 0-1.124-.41-1.124-1.19v-3.757h-1.157v3.84c0 1.46 1.014 2.24 2.281 2.24zm6.526-.134h1.291l-1.275-2.431c.78-.227 1.266-.856 1.266-1.686 0-1.031-.737-1.828-1.894-1.828h-2.323v5.945h1.165v-2.289h.604l1.166 2.289zm-1.77-3.287v-1.651h.94c.586 0 .93.327.93.83 0 .486-.344.821-.93.821h-.94z" fill="#fff"/></g><g opacity=".5" clip-path="url(#clip0)"><path d="M183.514 146.484h-26.919c0 3.998 4.433 7.348 10.379 8.266v7.24h1.783c-.324.432-.54.919-.54 1.513 0 1.351 1.135 2.485 2.486 2.485 1.352 0 2.487-1.134 2.487-2.485 0-.54-.216-1.081-.541-1.513h1.784v-7.51c5.297-1.188 9.081-4.322 9.081-7.996z" fill="#E78CA2"/><path d="M174.811 132.491v-5.673h-1.837c.324-.433.54-.919.54-1.513 0-1.351-1.135-2.486-2.486-2.486-1.352 0-2.487 1.135-2.487 2.486 0 .54.216 1.08.541 1.513h-1.784v5.294c-6.919 1.513-10.216 7.402-11.297 9.887l-.325 1.081c.595 2.972 3.568 5.295 7.135 5.295 3.514 0 6.433-2.161 7.081-5.079h.271c.648 2.918 3.621 5.079 7.081 5.079 4 0 7.243-2.864 7.243-6.376.054 0-4.432-7.617-9.676-9.508z" fill="#EFACBB"/><path d="M162.865 152.43c.702-.703 1.081-1.297 1.081-1.297s-1.244-.594-2.811-.756c.162-.109.216-.163.216-.163s-1.027-1.026-2.594-1.674c-.325-.649-1.406-2.648-3.352-3.566-2.378-1.189-5.135-.324-5.135-.324s1.081 2.701 3.459 3.836c.055.054.163.054.217.108a8.715 8.715 0 00-2.108 1.188s2 1.999 4.54 2.161c-1.027.865-1.621 1.837-1.621 1.837s2.486 1.243 4.918.595c-1.135 1.404-1.621 3.025-1.621 3.025s2.865.486 5.081-.918c2.216-1.405 2.973-4.215 2.973-4.215s-1.568-.216-3.243.163zM163.838 133.032c.433-2.539-1.027-4.862-1.027-4.862s-.865.648-1.675 1.782c-.379-2.539-2.541-4.376-2.541-4.376s-.865 1.243-1.189 2.918c-.054-.162-.162-.27-.27-.433-1.46-2.161-4.271-2.863-4.271-2.863s-.432 2.863 1.027 5.025a.764.764 0 01.163.216c-1.352-.216-2.433-.054-2.433-.054s.703 2.755 2.811 4.16c-1.351.216-2.324.756-2.324.756s1.513 2.323 3.946 3.026c-1.784.594-2.973 1.783-2.973 1.783s2.216 1.891 4.81 1.783c2.649-.108 4.703-2.107 4.703-2.107s-1.189-1.027-2.865-1.513c.973-.27 1.568-.594 1.568-.594s-.054-.109-.216-.325c.162-.162.648-.54 1.135-1.134a9.07 9.07 0 00.108 3.241s2.702-.972 3.946-3.295c1.189-2.323.486-5.133.486-5.133s-1.621.702-2.919 1.999zm-4.594 2.647c.162 0 .27-.054.27-.054s-.216-.756-.703-1.674c.541.648.973 1.026.973 1.026s.054-.108.162-.216c.163.973.487 1.783.757 2.269-.324-.378-.811-.918-1.459-1.351zM188.107 148.916c.054-.054.162-.054.216-.108 2.379-1.135 3.46-3.836 3.46-3.836s-2.757-.864-5.135.324c-1.946.919-3.028 2.918-3.352 3.566-1.567.648-2.594 1.675-2.594 1.675s.054.054.216.162c-1.568.162-2.811.756-2.811.756s.378.595 1.081 1.297c-1.676-.432-3.243-.162-3.243-.162s.757 2.809 2.973 4.214c2.216 1.405 5.081.919 5.081.919s-.433-1.621-1.676-3.026c2.487.594 4.919-.594 4.919-.594s-.594-.919-1.622-1.837c2.595-.162 4.541-2.161 4.541-2.161s-.811-.649-2.054-1.189zM179.729 139.948s.379-1.513.108-3.242c.487.594.973.972 1.136 1.134a2.47 2.47 0 00-.217.325s.649.324 1.568.594a8.454 8.454 0 00-2.865 1.513s2.054 1.999 4.703 2.107c2.648.108 4.811-1.783 4.811-1.783s-1.244-1.189-2.973-1.783c2.432-.702 3.946-3.026 3.946-3.026s-.973-.54-2.325-.756c2.108-1.459 2.811-4.16 2.811-4.16s-1.081-.162-2.432.054c.054-.054.108-.108.162-.216 1.459-2.161 1.027-5.025 1.027-5.025s-2.811.702-4.27 2.864c-.109.162-.163.27-.271.432-.324-1.675-1.189-2.918-1.189-2.918s-2.162 1.783-2.54 4.377c-.811-1.081-1.676-1.783-1.676-1.783s-1.46 2.377-1.027 4.862c-1.297-1.351-2.919-1.891-2.919-1.891s-.757 2.81.486 5.133c1.244 2.215 3.946 3.188 3.946 3.188zm3.514-5.619c-.487.918-.703 1.674-.703 1.674s.108 0 .27.055c-.648.432-1.135.972-1.459 1.35.216-.486.595-1.296.757-2.269.108.162.162.216.162.216s.432-.378.973-1.026z" fill="#fff"/><path d="M170.811 153.238a8.376 8.376 0 008.378-8.374 8.376 8.376 0 00-8.378-8.375 8.376 8.376 0 00-8.378 8.375 8.376 8.376 0 008.378 8.374z" fill="#fff"/></g><path d="M196.758 170.203v2.809h-.54l-1.46-1.297c-.216-.216-.432-.324-.594-.432-.163-.108-.325-.108-.433-.108-.162 0-.324.054-.432.108a.49.49 0 00-.162.378c0 .163.054.325.216.433.108.108.324.162.486.162v.81c-.378 0-.702-.108-.919-.378-.27-.27-.378-.594-.378-1.027 0-.432.108-.756.324-1.026.217-.216.541-.378.865-.378.27 0 .487.054.703.216.216.108.486.378.865.702l.811.703v-1.729h.648v.054zM194.864 169.61l-2.324-.216v-2.323h.649v1.62l.973.109c-.054-.055-.108-.163-.162-.271-.055-.108-.055-.27-.055-.378 0-.378.109-.702.379-.918.27-.216.594-.324 1.027-.324.432 0 .757.108 1.027.324.27.216.378.594.378 1.08 0 .378-.108.703-.324.973-.216.27-.487.432-.865.378l-.054-.81a.61.61 0 00.432-.163.61.61 0 00.163-.432c0-.216-.054-.324-.217-.432a.912.912 0 00-.54-.162c-.216 0-.433.054-.595.162a.491.491 0 00-.216.432c0 .162.054.27.108.378.054.108.162.163.216.163v.81zM192.486 164.692c0-.162 0-.324.054-.432.054-.108.054-.27.108-.432l.595.162c-.054.108-.054.27-.108.324 0 .108-.054.216-.054.378 0 .27.108.432.27.595.162.162.433.216.811.216h.108a1.624 1.624 0 01-.27-.379 1.355 1.355 0 01-.108-.54c0-.378.108-.648.378-.864a1.51 1.51 0 01.973-.324c.433 0 .757.108 1.027.378.27.27.378.594.378 1.026 0 .433-.162.811-.432 1.081-.324.27-.703.432-1.243.432h-.757c-.54 0-.973-.162-1.297-.486-.325-.324-.433-.648-.433-1.135zm2.162.162c0 .162 0 .27.055.379.054.108.108.216.216.27h.216c.324 0 .595-.054.757-.162a.569.569 0 00.27-.487.491.491 0 00-.216-.432.915.915 0 00-.541-.162c-.216 0-.432.054-.54.162a.492.492 0 00-.217.432zM194.27 161.558c0-.216-.054-.324-.162-.432a.616.616 0 00-.433-.162.49.49 0 00-.378.162.613.613 0 00-.162.432c0 .162.054.27.162.378a.488.488 0 00.378.163v.81c-.324 0-.594-.108-.811-.378a1.51 1.51 0 01-.324-.973c0-.432.108-.756.324-1.026.217-.27.487-.378.865-.378.216 0 .379.054.541.162.162.108.27.27.378.432.108-.216.216-.378.379-.486a1.09 1.09 0 01.594-.163c.379 0 .703.163.919.433.216.27.324.648.324 1.08 0 .378-.108.703-.324 1.027-.216.27-.486.432-.865.432v-.81c.162 0 .27-.054.379-.162a.617.617 0 00.162-.433c0-.216-.054-.324-.162-.486-.109-.162-.271-.162-.433-.162-.216 0-.378.054-.486.162-.108.108-.163.27-.163.486v.487h-.648v-.595h-.054zM193.621 156.86c.217 0 .379.054.541.162.162.108.27.27.378.432.108-.216.216-.432.379-.54.162-.108.378-.216.594-.216.379 0 .703.108.919.378.216.27.324.594.324 1.026 0 .433-.108.811-.324 1.081-.216.27-.54.432-.919.432-.216 0-.432-.054-.594-.216-.163-.162-.325-.324-.379-.54-.108.216-.216.378-.378.486a.913.913 0 01-.541.162c-.378 0-.648-.108-.865-.378a1.508 1.508 0 01-.324-.973c0-.378.108-.702.324-.918.217-.27.487-.378.865-.378zm1.892.648a.613.613 0 00-.432.162.613.613 0 00-.162.432c0 .162.054.324.162.487.108.108.27.162.432.162.216 0 .325-.054.433-.162.108-.108.162-.271.162-.487a.613.613 0 00-.162-.432c-.108-.108-.217-.162-.433-.162zm-1.838.162c-.162 0-.27.054-.378.108-.108.108-.162.216-.162.324 0 .162.054.27.162.379a.49.49 0 00.378.162.614.614 0 00.433-.162.494.494 0 00.162-.379c0-.162-.054-.27-.162-.324a1.018 1.018 0 00-.433-.108zM196.756 153.346v2.809h-.54l-1.46-1.296c-.216-.216-.432-.324-.594-.432-.163-.109-.325-.109-.433-.109-.162 0-.324.055-.432.109a.49.49 0 00-.162.378c0 .162.054.324.216.432.108.108.324.162.486.162v.81c-.378 0-.702-.108-.919-.378-.27-.27-.378-.594-.378-1.026 0-.432.108-.757.324-1.027.217-.27.541-.378.865-.378.271 0 .487.054.703.216.216.108.486.378.865.702l.811.703v-1.729h.648v.054zM192.486 151.186c0-.162 0-.324.054-.432.054-.162.054-.27.108-.432l.595.162c-.054.108-.054.27-.108.324 0 .108-.054.216-.054.378 0 .27.108.432.27.594.162.163.433.217.811.217h.108a1.645 1.645 0 01-.27-.379 1.355 1.355 0 01-.108-.54c0-.378.108-.648.378-.864.27-.216.595-.325.973-.325.433 0 .757.109 1.027.379.27.27.378.594.378 1.026 0 .432-.162.811-.432 1.081-.324.27-.703.432-1.243.432h-.757c-.54 0-.973-.162-1.297-.486-.271-.27-.433-.649-.433-1.135zm2.162.162c0 .162 0 .27.055.378.054.108.108.217.216.271h.216c.324 0 .595-.054.757-.163a.567.567 0 00.27-.486.491.491 0 00-.216-.432.915.915 0 00-.541-.162c-.216 0-.432.054-.54.162-.162.162-.217.27-.217.432zM193.189 146.594c.541.487 1.027.811 1.514.973.432.162.973.27 1.513.27h.541v.865h-.541c-.594 0-1.135-.109-1.567-.325a6.943 6.943 0 01-1.406-.918v2.161h-.648v-2.918h.594v-.108zM196.162 144.811c0-.216-.054-.378-.217-.487a1.158 1.158 0 00-.648-.216h-.27c.108.108.216.216.27.325.054.108.108.27.108.432 0 .378-.108.702-.378.918-.271.216-.595.324-1.027.324-.433 0-.757-.108-1.028-.378a1.383 1.383 0 01-.432-1.026c0-.433.162-.757.432-1.027.271-.27.703-.378 1.19-.378h1.135c.486 0 .865.162 1.135.432s.432.649.432 1.081c0 .162 0 .27-.054.432-.054.162-.054.324-.108.432l-.594-.162a.78.78 0 00.108-.378c-.054 0-.054-.162-.054-.324zm-1.406-.054c0-.162-.054-.27-.108-.378-.054-.109-.108-.163-.216-.271h-.487c-.27 0-.486.054-.594.162a.494.494 0 00-.216.433c0 .162.054.324.216.432.162.108.324.162.594.162.217 0 .433-.054.595-.162.108-.108.216-.216.216-.378zM196.757 140.705v.81h-3.46v.864h-.649l-.162-1.674h4.271zM193.189 136.489c.541.487 1.027.811 1.514.973.486.162.973.27 1.513.27h.541v.864h-.541c-.594 0-1.135-.108-1.567-.324a6.943 6.943 0 01-1.406-.918v2.161h-.648v-2.918h.594v-.108zM193.189 133.085c.541.487 1.027.811 1.514.973.486.162.973.27 1.513.27h.541v.864h-.541c-.594 0-1.135-.108-1.567-.324a6.943 6.943 0 01-1.406-.918v2.161h-.648v-2.918h.594v-.108zM194.27 131.196c0-.217-.054-.325-.162-.433a.616.616 0 00-.433-.162.49.49 0 00-.378.162.616.616 0 00-.162.433c0 .162.054.27.162.378a.49.49 0 00.378.162v.81c-.324 0-.594-.108-.811-.378a1.508 1.508 0 01-.324-.972c0-.433.108-.757.324-1.027.217-.27.487-.378.865-.378.216 0 .379.054.541.162.162.108.27.27.378.432.108-.216.216-.378.379-.486.162-.108.378-.162.594-.162.379 0 .703.162.919.432.216.27.324.648.324 1.081 0 .378-.108.702-.324 1.026-.216.27-.486.432-.865.432v-.81c.162 0 .27-.054.379-.162a.613.613 0 00.162-.432c0-.216-.054-.325-.162-.487-.109-.162-.271-.162-.433-.162-.216 0-.378.054-.486.162-.108.108-.163.271-.163.487v.378h-.648v-.486h-.054zM196.162 127.954c0-.216-.054-.378-.217-.486a1.158 1.158 0 00-.648-.216h-.27c.108.108.216.216.27.324.054.108.108.27.108.432 0 .378-.108.702-.378.919-.271.216-.595.324-1.027.324-.433 0-.757-.108-1.028-.378a1.387 1.387 0 01-.432-1.027c0-.432.162-.756.432-1.027.271-.27.703-.378 1.19-.378h1.135c.486 0 .865.162 1.135.432.27.271.432.649.432 1.081 0 .162 0 .27-.054.432-.054.162-.054.324-.108.433l-.594-.163a.78.78 0 00.108-.378c-.054-.054-.054-.162-.054-.324zm-1.406-.108a.78.78 0 00-.108-.378c-.054-.108-.108-.162-.216-.27h-.487c-.27 0-.486.054-.594.162a.491.491 0 00-.216.432c0 .162.054.324.216.432.162.108.324.162.594.162.217 0 .433-.054.595-.162.108-.054.216-.162.216-.378zM196.757 123.849v.811h-3.46v.864h-.649l-.162-1.675h4.271zM193.189 119.579c.541.486 1.027.811 1.514.973.486.162.973.27 1.513.27h.541v.864h-.541c-.594 0-1.135-.108-1.567-.324a6.943 6.943 0 01-1.406-.918v2.161h-.648v-2.918h.594v-.108z" fill="#212121"/><path fill="#fff" d="M76.459 122.82H27.025v63.754H76.46z"/><path d="M46.707 166.01c-2.979-3.517-5.01-7.846-4.671-12.682.981-13.899 20.41-10.855 24.2-3.821 3.791 7.034 3.318 24.822-1.556 26.107-1.964.508-6.093-.71-10.324-3.28l2.776 14.17H41.46l5.247-20.494z" fill="#CB7A43"/><path d="M35.2 148.694c-.508-.507-.779-1.217-1.016-1.893-.237-.711-.474-1.421-.643-2.131-.338-1.454-.338-3.145.71-4.295.847-.913 2.1-1.319 3.25-1.42a5.355 5.355 0 012.302.304c.744.237 1.388.71 2.098 1.015.034-1.59.305-3.213 1.083-4.566.779-1.285 1.997-2.029 3.419-2.198 1.422-.203 2.843.135 4.13.845.338.17.642.372.947.575.27.169.508.372.812.44.339.068.508-.101.711-.372.271-.271.542-.541.846-.744 1.354-.981 3.114-1.387 4.671-.812.711.271 1.422.744 1.896 1.387.44.575.744 1.454 1.354 1.86.27.169.44-.068.677-.203.338-.237.676-.507 1.015-.744a4.79 4.79 0 011.59-.71c.847-.203 1.998-.135 2.235.947.101.406.034.845 0 1.251a26.28 26.28 0 01-.136 1.691c-.033.44-.101.845-.169 1.285-.034.237-.17.643-.068.879.136.271.677.136.914.136.474.033.948.101 1.388.304.339.169.71.372.846.778.102.236.068.473.034.71-.034.304 0 .44.034.744.643-.304 2.843-1.015 3.114.135.101.372-.102.812-.271 1.116-.27.575-.643 1.082-1.015 1.556-.779 1.014-1.727 1.894-2.742 2.638a1.773 1.773 0 01.474 2.976c-.44.405-1.05.507-1.625.473-.203 0-.507-.101-.677-.068-.101.034-.169.102-.304.102-.813.068-1.727-.135-2.505-.304a8.197 8.197 0 01-3.825-1.996c-.27-.27-.508-.406-.88-.406-.338 0-.643.102-.981.102-.88.034-1.659-.406-2.437-.676-.034 1.082-.373 2.265-.813 3.246-.372.812-1.117.913-1.861.981-2.37.237-4.773-.034-7.142-.034 2.301.507 4.705.744 6.972 1.353 1.05.27.237.98-.203 1.454-.71.778-1.252 1.758-1.658 2.807-1.117-1.454-3.114-2.435-4.874-1.995-1.963.507-3.317 3.145-2.065 5.038.711 1.083 2.031 1.522 3.114 1.996-.846.879-1.05 2.164-1.557 3.28-.237.541-.61 1.15-1.184 1.353-.204.067-.44.067-.61.237-.203.202-.237.439-.508.608-1.049.71-2.673.677-3.587-.27-.846-.846-.61-2.198.067-3.044-1.116-.473-3.113-1.048-2.673-2.773-2.404-.169-8.225-4.024-5.01-6.865-1.76-.981-3.385-3.416-2.268-5.58.914-1.657 2.945-2.401 4.604-2.503z" fill="#3A3A3A"/><path d="M67.15 158.908c1.286.338 1.591 1.793 2.065 2.604.474.812 1.421 2.435 1.895 3.281.474.811.474.811.305 1.454-.948 1.15-2.234.811-3.656 1.116-.643-.169-1.421.304-2.064.135" fill="#CB7A43"/><path d="M65.358 159.347c.372 0 .642-.304.642-.676 0-.372-.304-.677-.642-.677-.373 0-.644.305-.644.677 0 .372.271.676.644.676zM65.46 170.269c.71.237 1.488.305 2.2.203-.813-.236-1.558-.507-2.235-.913-.338-.203-.677-.406-.981-.676a5.872 5.872 0 01-.508-.44c-.102-.135-.237-.236-.372-.372l-.034-.034a.382.382 0 00-.542.068c-.169.169-.135.44.034.609l.034.034c.305.236.575.575.88.947.305.372.677.777 1.083 1.014.812.575 1.692.879 2.606 1.15a24.824 24.824 0 00-1.117-.846c-.406-.202-.744-.473-1.049-.744zM64.883 156.743c.271 0 .576 0 .914-.034.305-.033.643-.101.982-.27a5.155 5.155 0 00-.88-.406 2.951 2.951 0 00-.948-.169c-.677-.034-1.455.304-1.76.947l.948-.068h.744z" fill="#3A3A3A"/><g opacity=".3"><path d="M118.296 135.516c-2.818-3.328-4.74-7.424-4.419-12 .928-13.153 19.313-10.273 22.9-3.616 3.587 6.656 3.139 23.488-1.473 24.704-1.858.48-5.765-.672-9.769-3.104l2.626 13.409h-14.829l4.964-19.393z" fill="#CB7A43"/><path d="M107.407 119.132c-.48-.48-.737-1.152-.961-1.792-.224-.672-.448-1.344-.608-2.016-.321-1.376-.321-2.976.672-4.064.801-.864 1.986-1.248 3.075-1.344a5.066 5.066 0 012.178.288c.705.224 1.313.672 1.986.96.032-1.504.288-3.04 1.025-4.32.736-1.216 1.889-1.92 3.235-2.08 1.345-.192 2.69.128 3.907.8.32.16.609.352.897.544.256.16.48.352.769.416.32.064.48-.096.672-.352.256-.256.513-.512.801-.704 1.281-.928 2.947-1.312 4.42-.768.672.256 1.345.704 1.793 1.312.417.544.705 1.376 1.282 1.76.256.16.416-.064.64-.192.32-.224.641-.48.961-.704.48-.32.961-.544 1.505-.672.801-.192 1.89-.128 2.114.896.096.384.032.8 0 1.184-.032.544-.064 1.088-.128 1.6-.032.416-.096.8-.16 1.216-.032.224-.16.608-.064.832.128.256.641.128.865.128.448.032.897.096 1.313.288.32.16.672.352.801.736.096.224.064.448.032.672-.032.288 0 .416.032.704.608-.288 2.69-.96 2.946.128.096.352-.096.768-.256 1.056-.256.544-.608 1.024-.961 1.472-.736.96-1.633 1.792-2.594 2.496a1.677 1.677 0 01.448 2.816c-.416.384-.993.48-1.537.448-.192 0-.481-.096-.641-.064-.096.032-.16.096-.288.096-.769.064-1.633-.128-2.37-.288a7.754 7.754 0 01-3.619-1.888c-.257-.256-.481-.384-.833-.384-.32 0-.609.096-.929.096-.833.032-1.569-.384-2.306-.64-.032 1.024-.352 2.144-.769 3.072-.352.768-1.057.864-1.761.929-2.242.224-4.516-.033-6.758-.033 2.178.481 4.452.705 6.598 1.281.993.256.224.928-.192 1.376-.673.736-1.186 1.664-1.57 2.656-1.057-1.376-2.947-2.304-4.612-1.888-1.858.48-3.139 2.976-1.954 4.768.673 1.024 1.922 1.44 2.947 1.888-.801.832-.993 2.048-1.473 3.104-.225.512-.577 1.088-1.121 1.28-.193.064-.417.064-.577.224-.192.192-.224.416-.48.576-.993.672-2.531.64-3.395-.256-.801-.8-.577-2.08.064-2.88-1.057-.448-2.947-.992-2.531-2.624-2.274-.16-7.783-3.808-4.74-6.496-1.665-.928-3.203-3.233-2.146-5.281.865-1.568 2.787-2.272 4.356-2.368z" fill="#3A3A3A"/><path d="M137.641 128.798c1.217.32 1.506 1.696 1.954 2.464.449.768 1.345 2.304 1.794 3.104.448.768.448.768.288 1.376-.897 1.088-2.114.768-3.459 1.056-.609-.16-1.345.288-1.954.128" fill="#CB7A43"/><path d="M135.943 129.213c.352 0 .609-.288.609-.64 0-.352-.289-.64-.609-.64-.352 0-.609.288-.609.64 0 .352.257.64.609.64zM136.04 139.547a4.632 4.632 0 002.082.192c-.769-.224-1.473-.48-2.114-.864-.32-.192-.641-.384-.929-.64-.16-.128-.32-.256-.48-.416-.096-.128-.224-.224-.353-.352l-.032-.032a.36.36 0 00-.512.064c-.16.16-.128.416.032.576l.032.032c.288.224.545.544.833.896.288.352.64.736 1.025.96.768.544 1.601.832 2.466 1.088-.352-.288-.705-.544-1.057-.8a4.602 4.602 0 01-.993-.704zM135.495 126.747c.257 0 .545 0 .865-.032.289-.032.609-.096.929-.256a4.8 4.8 0 00-.833-.384 2.776 2.776 0 00-.896-.16c-.641-.032-1.378.288-1.666.896l.897-.064h.704z" fill="#3A3A3A"/></g></g><defs><filter id="filter0_d" x="60.427" y="-1" width="112.438" height="82.25" filterUnits="userSpaceOnUse" color-interpolation-filters="sRGB"><feFlood flood-opacity="0" result="BackgroundImageFix"/><feColorMatrix in="SourceAlpha" values="0 0 0 0 0 0 0 0 0 0 0 0 0 0 0 0 0 0 127 0"/><feOffset dy="8"/><feGaussianBlur stdDeviation="8"/><feColorMatrix values="0 0 0 0 0.129412 0 0 0 0 0.129412 0 0 0 0 0.129412 0 0 0 0.24 0"/><feBlend in2="BackgroundImageFix" result="effect1_dropShadow"/><feBlend in="SourceGraphic" in2="effect1_dropShadow" result="shape"/></filter><filter id="filter1_d" x="32.308" y="29.346" width="162.672" height="116.009" filterUnits="userSpaceOnUse" color-interpolation-filters="sRGB"><feFlood flood-opacity="0" result="BackgroundImageFix"/><feColorMatrix in="SourceAlpha" values="0 0 0 0 0 0 0 0 0 0 0 0 0 0 0 0 0 0 127 0"/><feOffset dy="8.853"/><feGaussianBlur stdDeviation="8.853"/><feColorMatrix values="0 0 0 0 0.129412 0 0 0 0 0.129412 0 0 0 0 0.129412 0 0 0 0.24 0"/><feBlend in2="BackgroundImageFix" result="effect1_dropShadow"/><feBlend in="SourceGraphic" in2="effect1_dropShadow" result="shape"/></filter><filter id="filter2_d" x=".791" y="75.396" width="218.418" height="152.418" filterUnits="userSpaceOnUse" color-interpolation-filters="sRGB"><feFlood flood-opacity="0" result="BackgroundImageFix"/><feColorMatrix in="SourceAlpha" values="0 0 0 0 0 0 0 0 0 0 0 0 0 0 0 0 0 0 127 0"/><feOffset dy="9.605"/><feGaussianBlur stdDeviation="9.605"/><feColorMatrix values="0 0 0 0 0.129412 0 0 0 0 0.129412 0 0 0 0 0.129412 0 0 0 0.24 0"/><feBlend in2="BackgroundImageFix" result="effect1_dropShadow"/><feBlend in="SourceGraphic" in2="effect1_dropShadow" result="shape"/></filter><filter id="filter3_f" x="52.974" y="68.785" width="113.514" height="146.432" filterUnits="userSpaceOnUse" color-interpolation-filters="sRGB"><feFlood flood-opacity="0" result="BackgroundImageFix"/><feBlend in="SourceGraphic" in2="BackgroundImageFix" result="shape"/><feGaussianBlur stdDeviation="8.108" result="effect1_foregroundBlur"/></filter><clipPath id="clip0"><path fill="#fff" transform="translate(150.27 122.82)" d="M0 0h41.514v43.06H0z"/></clipPath></defs></svg>