<svg width="160" height="160" viewBox="0 0 160 160" fill="none" xmlns="http://www.w3.org/2000/svg">
<g clip-path="url(#clip0)">
<path d="M80.1477 10C39.9785 10 7.06055 42.918 7.06055 83.0871C7.06055 123.256 39.9785 156.174 80.1477 156.174C120.317 156.174 153.235 123.256 153.235 83.0871C153.235 42.918 120.317 10 80.1477 10Z" fill="#FCBF35"/>
<path d="M153.235 83.0866C153.235 123.256 120.317 156.174 80.1479 156.174V9.99951C120.317 9.99951 153.235 42.9175 153.235 83.0866Z" fill="#F9AA38"/>
<path d="M80.1479 27.4154C49.4849 27.4154 24.4761 52.4242 24.4761 83.0872C24.4761 113.749 49.4849 138.759 80.1479 138.759C110.811 138.759 135.82 113.749 135.82 83.0872C135.82 52.4242 110.811 27.4154 80.1479 27.4154Z" fill="#FFD400"/>
<path d="M135.82 83.0872C135.82 113.749 110.811 138.759 80.1479 138.759V27.4154C110.811 27.4154 135.82 52.4242 135.82 83.0872Z" fill="#FCBF35"/>
<path d="M105.414 101.073C107.213 102.528 107.384 105.269 105.842 107.068C100.189 113.663 92.5669 117.346 84.4302 117.346C82.9749 117.346 81.5184 117.26 80.1478 116.918C73.6382 115.975 67.6428 112.464 63.018 107.067C60.1909 103.813 58.0497 100.044 56.5943 95.9326H50.1706C47.7718 95.9326 45.8882 94.049 45.8882 91.6502C45.8882 89.2524 47.7718 87.3677 50.1706 87.3677H54.7955C54.6248 85.9123 54.4531 84.5417 54.4531 83.0853C54.4531 81.6299 54.6248 80.2593 54.7955 78.8028H50.1706C47.7718 78.8028 45.8882 76.9192 45.8882 74.5204C45.8882 72.1226 47.7718 70.2379 50.1706 70.2379H56.5943C58.0497 66.1272 60.1909 62.3589 63.018 59.1036C67.6428 53.7081 73.6382 50.1963 80.1478 49.2539C81.5184 48.9116 82.9749 48.8257 84.4302 48.8257C92.5669 48.8257 100.189 52.5093 105.842 59.1036C107.384 60.9024 107.213 63.6425 105.414 65.099C103.615 66.6402 100.874 66.4696 99.3329 64.6707C94.2799 58.7612 86.9138 56.5341 80.1478 58.0753C76.2077 58.9318 72.5252 61.1589 69.5275 64.6707C68.071 66.2978 66.9581 68.2673 66.0146 70.2379H84.4302C86.8291 70.2379 88.7127 72.1226 88.7127 74.5204C88.7127 76.9181 86.8291 78.8028 84.4302 78.8028H63.3604C63.1897 80.1734 63.018 81.6288 63.018 83.0853C63.018 84.5417 63.1897 85.9971 63.3604 87.3677H84.4302C86.8291 87.3677 88.7127 89.2524 88.7127 91.6502C88.7127 94.0479 86.8291 95.9326 84.4302 95.9326H66.0157C66.9581 97.9021 68.071 99.8727 69.5275 101.5C72.5252 105.013 76.2077 107.24 80.1478 108.095C86.9138 109.638 94.2799 107.41 99.3329 101.5C100.874 99.702 103.615 99.5303 105.414 101.073Z" fill="#F9AA38"/>
<path d="M84.4304 95.9328H80.1479V87.3679H84.4304C86.8292 87.3679 88.7128 89.2515 88.7128 91.6504C88.7128 94.0481 86.8292 95.9328 84.4304 95.9328Z" fill="#FCA306"/>
<path d="M84.4304 78.8027H80.1479V70.2378H84.4304C86.8292 70.2378 88.7128 72.1214 88.7128 74.5202C88.7128 76.918 86.8292 78.8027 84.4304 78.8027Z" fill="#FCA306"/>
<path d="M105.414 101.072C107.213 102.528 107.384 105.269 105.843 107.068C100.19 113.663 92.567 117.346 84.4304 117.346C82.975 117.346 81.5186 117.26 80.1479 116.917V108.095C86.914 109.636 94.28 107.409 99.3331 101.499C100.874 99.7017 103.616 99.53 105.414 101.072Z" fill="#FCA306"/>
<path d="M80.1489 58.0768V49.2554C81.5195 48.913 82.976 48.8271 84.4314 48.8271C92.568 48.8271 100.191 52.5096 105.844 59.105C107.385 60.9039 107.214 63.644 105.415 65.1005C103.617 66.6417 100.875 66.4711 99.3341 64.6722C94.281 58.7627 86.915 56.5356 80.1489 58.0768Z" fill="#FCA306"/>
</g>
<g clip-path="url(#clip1)">
<path d="M5 154.993L155 4.99329" stroke="#EA8003" stroke-width="10" stroke-linecap="round" stroke-linejoin="round"/>
<path d="M155 154.993L5 4.99329" stroke="#EA8003" stroke-width="10" stroke-linecap="round" stroke-linejoin="round"/>
</g>
<defs>
<clipPath id="clip0">
<rect width="146.174" height="146.174" fill="white" transform="translate(7.06055 10)"/>
</clipPath>
<clipPath id="clip1">
<rect width="160" height="160" fill="white"/>
</clipPath>
</defs>
</svg>
