<svg width="20" height="16" viewBox="0 0 20 16" fill="none" xmlns="http://www.w3.org/2000/svg">
<rect y="0.5" width="20" height="15" rx="2" fill="white"/>
<mask id="mask0" mask-type="alpha" maskUnits="userSpaceOnUse" x="0" y="0" width="20" height="16">
<rect y="0.5" width="20" height="15" rx="2" fill="white"/>
</mask>
<g mask="url(#mask0)">
<rect x="9.52393" y="0.5" width="10.4762" height="15" fill="#1AB11F"/>
<path fill-rule="evenodd" clip-rule="evenodd" d="M0 15.5H6.66667V0.5H0V15.5Z" fill="#262626"/>
<path fill-rule="evenodd" clip-rule="evenodd" d="M6.66699 15.5H13.3337V0.5H6.66699V15.5Z" fill="#DC0D18"/>
<path opacity="0.75" d="M8.76188 7.5C8.76188 7.13181 8.4634 6.83333 8.09521 6.83333C7.72703 6.83333 7.42855 7.13181 7.42855 7.5H8.76188ZM8.69855 9.80043C9.01298 9.992 9.42317 9.8924 9.61474 9.57797C9.80631 9.26354 9.70671 8.85335 9.39228 8.66178L8.69855 9.80043ZM10.6534 8.63277C10.3477 8.83804 10.2663 9.25223 10.4716 9.55789C10.6768 9.86355 11.091 9.94494 11.3967 9.73967L10.6534 8.63277ZM12.5716 7.50012C12.5716 7.13193 12.2731 6.83346 11.9049 6.83346C11.5367 6.83346 11.2382 7.13193 11.2382 7.50012H12.5716ZM7.42855 7.5C7.42855 8.47098 7.93103 9.33282 8.69855 9.80043L9.39228 8.66178C9.02354 8.43713 8.76188 8.00769 8.76188 7.5H7.42855ZM11.3967 9.73967C12.1101 9.26056 12.5716 8.43069 12.5716 7.50012H11.2382C11.2382 7.98635 10.9981 8.40124 10.6534 8.63277L11.3967 9.73967Z" fill="white"/>
<path fill-rule="evenodd" clip-rule="evenodd" d="M9.99974 8.5C10.5257 8.5 10.9521 7.82843 10.9521 7C10.9521 6.17157 10.5257 5.5 9.99974 5.5C9.47376 5.5 9.04736 6.17157 9.04736 7C9.04736 7.82843 9.47376 8.5 9.99974 8.5Z" fill="white" fill-opacity="0.5"/>
</g>
</svg>
