<svg width="20" height="16" viewBox="0 0 20 16" fill="none" xmlns="http://www.w3.org/2000/svg">
<rect y="0.5" width="20" height="15" rx="2" fill="white"/>
<mask id="mask0" mask-type="alpha" maskUnits="userSpaceOnUse" x="0" y="0" width="20" height="16">
<rect y="0.5" width="20" height="15" rx="2" fill="white"/>
</mask>
<g mask="url(#mask0)">
<path fill-rule="evenodd" clip-rule="evenodd" d="M20 0.5V8H0V0.5H20Z" fill="#29C53F"/>
<path fill-rule="evenodd" clip-rule="evenodd" d="M20 8V16H0V8H20Z" fill="#579DED"/>
<path fill-rule="evenodd" clip-rule="evenodd" d="M0 15.5L20 8L0 0.5V15.5Z" fill="#F42D56"/>
<path d="M8.85693 8C8.85693 9.59583 7.63275 10.8333 6.19027 10.8333C4.74779 10.8333 3.5236 9.59583 3.5236 8C3.5236 6.40417 4.74779 5.16667 6.19027 5.16667C7.63275 5.16667 8.85693 6.40417 8.85693 8Z" stroke="#FFC63C" stroke-width="1.33333"/>
<path fill-rule="evenodd" clip-rule="evenodd" d="M5.71447 7.5C5.97746 7.5 6.19066 7.27614 6.19066 7C6.19066 6.72386 5.97746 6.5 5.71447 6.5C5.45148 6.5 5.23828 6.72386 5.23828 7C5.23828 7.27614 5.45148 7.5 5.71447 7.5Z" fill="#FFC63C"/>
<path fill-rule="evenodd" clip-rule="evenodd" d="M6.66662 8C6.92961 8 7.14281 7.77614 7.14281 7.5C7.14281 7.22386 6.92961 7 6.66662 7C6.40363 7 6.19043 7.22386 6.19043 7.5C6.19043 7.77614 6.40363 8 6.66662 8Z" fill="#FFC63C"/>
<path fill-rule="evenodd" clip-rule="evenodd" d="M6.19055 7C6.45354 7 6.66674 6.77614 6.66674 6.5C6.66674 6.22386 6.45354 6 6.19055 6C5.92755 6 5.71436 6.22386 5.71436 6.5C5.71436 6.77614 5.92755 7 6.19055 7Z" fill="#FFC63C"/>
<path fill-rule="evenodd" clip-rule="evenodd" d="M5.71447 8.5C5.97746 8.5 6.19066 8.27614 6.19066 8C6.19066 7.72386 5.97746 7.5 5.71447 7.5C5.45148 7.5 5.23828 7.72386 5.23828 8C5.23828 8.27614 5.45148 8.5 5.71447 8.5Z" fill="#FFC63C"/>
<path fill-rule="evenodd" clip-rule="evenodd" d="M6.66662 9C6.92961 9 7.14281 8.77614 7.14281 8.5C7.14281 8.22386 6.92961 8 6.66662 8C6.40363 8 6.19043 8.22386 6.19043 8.5C6.19043 8.77614 6.40363 9 6.66662 9Z" fill="#FFC63C"/>
<path fill-rule="evenodd" clip-rule="evenodd" d="M5.71447 9.5C5.97746 9.5 6.19066 9.27614 6.19066 9C6.19066 8.72386 5.97746 8.5 5.71447 8.5C5.45148 8.5 5.23828 8.72386 5.23828 9C5.23828 9.27614 5.45148 9.5 5.71447 9.5Z" fill="#FFC63C"/>
<path fill-rule="evenodd" clip-rule="evenodd" d="M6.66662 10C6.92961 10 7.14281 9.77614 7.14281 9.5C7.14281 9.22386 6.92961 9 6.66662 9C6.40363 9 6.19043 9.22386 6.19043 9.5C6.19043 9.77614 6.40363 10 6.66662 10Z" fill="#FFC63C"/>
</g>
<path fill-rule="evenodd" clip-rule="evenodd" d="M6.19055 10.5C6.45354 10.5 6.66674 10.2761 6.66674 10C6.66674 9.72386 6.45354 9.5 6.19055 9.5C5.92755 9.5 5.71436 9.72386 5.71436 10C5.71436 10.2761 5.92755 10.5 6.19055 10.5Z" fill="#FFC63C"/>
</svg>
