<svg width="216" height="189" viewBox="0 0 216 189" fill="none" xmlns="http://www.w3.org/2000/svg">
<path d="M10.9 60.9001C10.9 60.9001 6.30005 26.3001 4.70005 21.7001C4.70005 21.7001 -5.19995 10.7001 4.70005 5.50007C14.6 0.300067 88.4 -1.89994 95.7001 6.90006C103 15.7001 104.3 49.9001 104.3 49.9001L103 87.6001L40.6 92.7001L10.9 60.9001Z" fill="#0A6EA5"/>
<path d="M137.6 57.4001C137.6 57.4001 132.7 52.6001 105.8 49.9001C105.8 49.9001 92.6 50.7002 96.2 85.5002L119.3 92.6002C119.3 92.7002 123.1 52.9001 137.6 57.4001Z" fill="#188CC6"/>
<path d="M15.9001 116.7V148.9H19.3001L22.8001 115.9L15.9001 116.7Z" fill="#043054"/>
<path d="M15.9001 116.7L12.8 115.5L13.5001 146.5L15.9001 148.9V116.7Z" fill="#043054"/>
<path d="M37 137V169.2H40.4L43.9 136.2L37 137Z" fill="#043054"/>
<path d="M37 137L34 135.8L34.6 166.8L37 169.2V137Z" fill="#043054"/>
<path d="M133.9 126.8V159.1H137.4L140.8 126.1L133.9 126.8Z" fill="#043054"/>
<path d="M133.9 126.8L130.9 125.6L131.5 156.7L133.9 159.1V126.8Z" fill="#043054"/>
<path d="M112.8 106.5V138.8H116.2L119.7 105.8L112.8 106.5Z" fill="#043054"/>
<path d="M112.8 106.5L109.8 105.3L110.4 136.4L112.8 138.8V106.5Z" fill="#043054"/>
<path d="M133.9 76.5C133.9 76.5 143.2 75.2 141.4 64.5C139.7 53.7 128.9 54 124.6 57.5C120.3 61 116.1 67.5 120.3 103.5L120.5 123.5H135.3C135.4 123.5 138.6 117.8 133.9 76.5Z" fill="#1174BA"/>
<path d="M31.2 80.7L7.29996 74.9C7.29996 74.9 -1.20001 62.3 11.7 55.7C11.7 55.7 35.7 53.7 40.4 59.2L31.2 80.7Z" fill="#188CC6"/>
<path d="M9.29997 75.4001C9.29997 75.4001 5.49997 115.5 9.29997 119.6C13.1 123.7 29.6 132.2 29.6 132.2C29.6 132.2 38.2 97.9002 31.2 80.7002L9.29997 75.4001Z" fill="#188CC6"/>
<path d="M31.2 80.7001C31.2 80.7001 21.1 79.3001 23 67.5001C24.9 55.7001 36.7 56.0001 41.4 59.8001C46.1 63.6001 50.7 70.8001 46.1 110.3L45.8 132.2H29.6C29.6 132.2 26 125.9 31.2 80.7001Z" fill="#1174BA"/>
<path d="M29.2001 101.8C29.2001 101.8 26.6001 127 29.6001 132.2C29.6001 132.2 34.3001 138.5 41.7001 136.6C49.1001 134.7 122.1 130.9 141.7 130.4C141.7 130.4 151.3 112.4 138.9 97.6001C138.7 97.6001 85.0001 85.6001 29.2001 101.8Z" fill="#1E9ED1"/>
<path d="M96.2001 85.6001C96.2001 85.6001 66.1001 81.3001 48.0001 87.5001L47.6001 94.8001C47.6001 94.8001 29.5 97.9001 29.3 101.8C29.3 101.8 30.0001 105.9 50.0001 101.8C70.0001 97.7001 138.9 97.6001 138.9 97.6001C138.9 97.6001 139.5 92.2001 119.4 92.7001L96.2001 85.6001Z" fill="#84D1EF"/>
<path d="M69.4001 50.0999C69.4001 50.0999 65.5001 47.6999 64.8001 48.7999C64.1001 49.8999 67.1001 52.6999 67.1001 52.6999C67.1001 52.6999 59.7001 70.1999 65.1001 83.3999C65.1001 83.3999 61.9001 88.2999 63.9001 87.8999C65.9001 87.4999 68.0001 86.2999 68.0001 86.2999C68.0001 86.2999 82.3001 91.5999 103 89.8999C103 89.8999 104.9 91.3999 106.6 90.7999C108.2 90.1999 104.8 87.9999 104.8 87.9999C104.8 87.9999 109.3 72.9999 103.7 54.1999C103.7 54.1999 106.1 51.4999 105.3 50.4999C104.4 49.3999 101.2 51.5999 101.2 51.5999C101.2 51.5999 84.6001 44.2999 69.4001 50.0999Z" fill="#DDF3FA"/>
<path d="M129.6 128L145.7 119.3C148.4 116.1 151 113.7 153.6 111.9C154.4 111.6 155.8 111.4 154.5 113.7C153.2 116 151.9 118.5 152.6 119.2C153.3 119.9 154.9 118.9 155.7 120.1C156.2 120.9 153.4 122.1 147.2 123.8L135.5 134.4L129.6 128Z" fill="#0A6EA5"/>
<path d="M91.2998 110.8L98.8998 108.5C106.9 124.2 120.7 130.9 141.5 119.1L152.4 139.1C132.7 149.5 111.5 148.1 99.2998 127C96.0998 121.7 92.9998 115.9 91.2998 110.8Z" fill="#06508C"/>
<path d="M144.9 153C144 153.1 123.6 170.5 115.5 175.5C103.8 182.7 94.4 178.3 85.5 164.9L108.7 150.6" fill="#022035"/>
<path d="M166.4 144.7C174.3 150.1 185.6 158.5 200.3 169.6L197.4 174.6C184.2 169.2 174.9 164.8 169.5 161.7C160.3 156.2 152.5 151.2 149.8 149.1C145.5 145.9 147.6 141.1 150.6 138.8C150.5 138.9 152.9 135.8 166.4 144.7Z" fill="#0A6EA5"/>
<path d="M143.4 144.2C143.9 141.1 149.5 137 151.6 138.9C156.4 143.3 173.5 170.2 174.7 171.8C175.8 173.4 173.1 177.2 171.1 175.8C165.7 171.9 160.5 167.8 155.8 163.1C151.2 158.5 146.4 153.4 143.9 147C143.6 146.2 143.3 145.4 143.4 144.4C143.3 144.4 143.3 144.3 143.4 144.2Z" fill="#0A6EA5"/>
<path d="M191.938 174.147C192.528 175.527 193.057 176.41 193.613 176.846C194.206 177.42 195.145 178.193 196.481 179.079C197.104 178.4 203.296 172.275 214.783 160.779C213.651 158.74 212.612 158.14 211.392 159.052C210.259 160.014 209.276 160.717 208.48 161.297L196.192 165.98C195.919 166.053 195.855 166.363 195.979 166.55L196.764 168.389C196.274 169.838 195.724 170.791 195.151 171.383C194.628 171.89 193.795 172.332 192.602 172.798C192.005 173.031 191.792 173.601 191.938 174.147C191.988 174.061 191.988 174.061 191.938 174.147Z" fill="#F77B0B"/>
<path d="M185.9 171.1L144.2 150.3C137.5 145.5 146.7 133.9 150.6 135.6C159.6 139.5 188.2 158.5 190.9 159.7L185.9 171.1Z" fill="#022035"/>
<path d="M165.2 172.9C164.7 174.3 164.4 175.3 164.4 176C164.4 176.8 164.5 178 164.8 179.6C165.8 179.6 174.4 179.7 190.7 179.8C191.4 177.6 191 176.4 189.6 176.2C188.2 176 186.9 175.8 186 175.7L174 170.2C173.8 170.1 173.5 170.2 173.4 170.4L172.6 172.3C171.3 172.9 170.2 173.2 169.3 173.2C168.6 173.2 167.7 172.9 166.5 172.4C166 172.1 165.5 172.3 165.2 172.9C165.2 172.8 165.2 172.8 165.2 172.9Z" fill="#F77B0B"/>
<path d="M155.5 138.4C164.2 148.6 172.4 163.6 173.8 165.9L161.9 172.8C146.4 155.5 139.9 153.5 139.3 153.5C138.4 153.6 118 171 109.9 176C98.2 183.2 76.3 176.7 77.9 154.7L103.2 151.1C108.2 148.7 135.9 138.4 146.1 134.5C150.5 132.7 153.3 135.8 155.5 138.4Z" fill="#043054"/>
<path d="M89.7999 97.9002C87.3999 95.1002 85.7999 91.6002 85.9999 87.7002C86.7999 76.5002 102.4 79.0002 105.4 84.6002C108.4 90.2002 108.1 104.6 104.2 105.6C102.6 106 99.2999 105 95.8999 103L97.9999 118.1H85.3999L89.7999 97.9002Z" fill="#0A6EA5"/>
<path d="M93.7 91.8002C93.3 91.5002 92.8 91.3002 92.3 91.3002C90.9 91.3002 89.7 92.6002 89.7 93.9002C89.7 95.3002 90.4 96.4002 91.3 96.8002C90.8 97.8002 90.3 98.5002 89.7 98.6002C87.4 98.4002 84.5 92.7002 84.5 88.1002C84.5 83.0002 88.5 78.7002 96 78.7002C102.7 78.7002 105.3 81.5002 105.4 83.9002C102.5 84.7002 97.5 85.0002 90.2 84.9002V85.4002L96.5 85.9002L97.5 89.0002C95.8 89.2002 94.6 90.3002 93.7 91.8002Z" fill="#011623"/>
<path d="M106.6 92.4001C107.7 94.2001 109.8 95.6001 109.5 97.9001C108.2 98.4001 106.9 99.0001 105.6 99.4001" fill="#0A6EA5"/>
<path d="M106.1 90.5002C105.4 90.6002 104.9 90.6002 104.4 90.7002C103.9 90.8002 103.4 90.8002 102.9 91.2002C102.9 90.9002 103.1 90.5001 103.4 90.3001C103.7 90.1001 104 90.0001 104.4 89.9001C105 89.9001 105.6 90.0002 106.1 90.5002Z" fill="#011623"/>
<path d="M106.3 102.4C105.7 102.7 105.1 102.9 104.4 102.8C104.2 102.8 104 102.7 103.9 102.6C103.7 102.5 103.6 102.4 103.4 102.2C103.2 101.9 103.1 101.7 102.8 101.4C103.2 101.4 103.5 101.6 103.7 101.7C104 101.8 104.1 101.9 104.4 101.9C105 102.1 105.6 102.1 106.3 102.4Z" fill="#011623"/>
<path d="M105.4 92.5002C105.676 92.5002 105.9 92.2764 105.9 92.0002C105.9 91.7241 105.676 91.5002 105.4 91.5002C105.124 91.5002 104.9 91.7241 104.9 92.0002C104.9 92.2764 105.124 92.5002 105.4 92.5002Z" fill="#011623"/>
<path d="M64.6999 139.2H74.7999C63.7999 164 57.9999 177 57.5999 178.2C56.4999 180.8 58.7999 184.8 59.6999 187C56.5999 188.4 56.8999 183.2 52.9999 185C49.3999 186.7 46.6999 189.7 42.4999 187.1C41.9999 186.8 41.3999 185.6 42.7999 184.7C46.1999 182.4 50.9999 178.3 51.6999 177C52.4999 175.2 56.7999 162.6 64.6999 139.2Z" fill="#0A6EA5"/>
<path d="M88.2999 105L100.2 107.7C100.2 128.2 105.3 137.3 108.6 152.3L77.5999 161.6C77.0999 166.8 77.0999 166.9 76.9999 172.4H52.8999C58.3999 143.3 69.8999 120.8 87.4999 104.9L88.2999 105Z" fill="#085F9B"/>
<path d="M82.9998 127.2C82.1998 140 84.0998 152.5 85.8998 159.2L77.5999 161.7C78.5999 151.4 80.3998 136.3 82.9998 127.2Z" fill="black" fill-opacity="0.1"/>
</svg>
