<svg fill="none" height="56" viewBox="0 0 56 56" width="56" xmlns="http://www.w3.org/2000/svg"><path d="m28-.00097656c-15.4633 0-28 10.82557656-28 24.18127656.0649443 3.3252.842356 6.5928 2.27501 9.5623 1.43265 2.9695 3.48407 5.5653 6.00325 7.5963l-5.84348 14.659 15.51442-9.2678c3.25 1.0814 6.6402 1.6318 10.0508 1.6316 15.4633 0 28-10.8256 28-24.1814 0-13.3557-12.5367-24.18127656-28-24.18127656z" fill="#fa873a"/><path d="m12.4159 25.1263c0 2 1.64 3.64 3.64 3.64 2.04 0 3.68-1.64 3.68-3.64s-1.64-3.64-3.68-3.64c-2 0-3.64 1.64-3.64 3.64zm12.4219 0c0 2 1.64 3.64 3.64 3.64 2.04 0 3.68-1.64 3.68-3.64s-1.64-3.64-3.68-3.64c-2 0-3.64 1.64-3.64 3.64zm12.4219 0c0 2 1.64 3.64 3.64 3.64 2.04 0 3.68-1.64 3.68-3.64s-1.64-3.64-3.68-3.64c-2 0-3.64 1.64-3.64 3.64z" fill="#fff"/></svg>