<svg fill="none" height="270" viewBox="0 0 416 270" width="416" xmlns="http://www.w3.org/2000/svg"><path d="m207.999 269.999c102.701 0 185.956-17.666 185.956-39.457 0-21.792-83.255-39.458-185.956-39.458s-185.956 17.666-185.956 39.458c0 21.791 83.255 39.457 185.956 39.457z" fill="#eef8ff"/><path d="m239.113 62.3413h-63.751c-1.973 0-3.551-1.5783-3.551-3.5512v-42.6701c0-1.9729 1.578-3.5512 3.551-3.5512h63.751c1.973 0 3.551 1.5783 3.551 3.5512v42.7265c-.056 1.9165-1.634 3.4948-3.551 3.4948z" fill="#f8c92c"/><path d="m171.811 58.848c0 1.9729 1.578 3.5512 3.551 3.5512h63.751c1.973 0 3.551-1.5783 3.551-3.5512l-35.398-25.8163z" fill="#f5bd1f"/><path d="m242.608 19.8963c0-1.9728.282-5.9749-1.691-5.9749h-67.641c-1.973 0-1.466 4.0584-1.466 5.9749l35.399 22.0961z" fill="#f5bd1f"/><path d="m242.608 16.1771c0-1.9728-1.578-3.5511-3.551-3.5511h-63.695c-1.973 0-3.551 1.5783-3.551 3.5511l35.398 25.8163z" fill="#fcbf35"/><g fill="#0a54bf"><path d="m132.072 65.2733c1.691-1.0709 3.439-2.0855 5.186-3.0438 1.747-.9582 3.495-1.8601 5.299-2.762 1.803-.8455 3.607-1.7474 5.411-2.5365 1.804-.7892 3.664-1.5783 5.524-2.2547-1.691 1.071-3.439 2.0856-5.186 3.0438-1.747.9583-3.495 1.8601-5.298 2.762-1.804.8455-3.608 1.7474-5.412 2.5366-1.803.7891-3.664 1.5782-5.524 2.2546z"/><path d="m135.061 73.8954c1.691-1.071 3.438-2.0856 5.185-3.0438 1.748-.9583 3.495-1.8602 5.299-2.762 1.804-.8455 3.607-1.7474 5.411-2.5366 1.804-.7891 3.664-1.5783 5.524-2.2547-1.691 1.071-3.438 2.0856-5.186 3.0439-1.747.9582-3.494 1.8601-5.298 2.762-1.804.8455-3.608 1.7474-5.411 2.5365-1.804.8455-3.608 1.5783-5.524 2.2547z"/><path d="m139.965 81.6186c1.691-1.071 3.438-2.0856 5.186-3.0439 1.747-.9582 3.494-1.8601 5.298-2.762 1.804-.8455 3.608-1.7474 5.411-2.5365 1.804-.7892 3.664-1.5783 5.524-2.2547-1.691 1.071-3.438 2.0856-5.185 3.0438-1.748.9583-3.495 1.8602-5.299 2.762-1.804.8455-3.607 1.7474-5.411 2.5366-1.804.7891-3.664 1.5783-5.524 2.2547z"/></g><g opacity=".58"><path d="m318.479 116.623c.959-1.353 2.706-4.791 4.059-5.242.845-.338.62 2.931.62 3.495.056 2.367-.169 4.735-.451 7.102-.507 4.228-2.198 8.004-4.509 11.612-1.184 1.86-2.593 3.72-4.51 4.904-.902.507-1.973.62-2.818 1.071-1.015.507-.451.112-.902 1.183-.62 1.466-.846 3.382-1.127 4.961-1.353 7.215-4.623 45.432-4.059 52.76.056.676-.845.789-.902 0-.225-4.228 1.86-33.426 2.875-42.952 1.071-9.526 2.142-17.982 3.213-21.307 1.296-4.002 3.607-8.85 5.58-12.57.789-1.748 1.804-3.439 2.931-5.017z" fill="#f5bd1f" opacity=".58"/><path d="m325.468 163.464c2.48-1.803 5.13 1.579 2.875 3.439-1.24 1.014-2.537.62-3.269-.169-.451.563-.902 1.183-1.353 1.691-1.297 1.522-2.537 3.1-3.664 4.735-2.424 3.382-4.509 6.933-6.651 10.427-2.142 3.439-4.284 6.877-6.201 10.428-1.634 2.988-3.833 6.483-4.396 9.808.845-6.933 4.114-13.641 7.947-19.785 3.833-6.087 8.23-12.739 14.149-17.53-.564-.958-.564-2.198.563-3.044z" fill="#fcbf35" opacity=".58"/><path d="m278.74 146.499c1.353.282 3.607 3.382 4.791 4.566 1.353 1.409 2.593 2.931 3.72 4.509 2.481 3.382 4.735 6.989 6.595 10.766 3.101 6.144 5.581 12.457 7.328 19.109 1.071 4.114 1.804 8.342 2.255 12.57.056.789.902 6.933-.282 7.102-1.071.169-.733-4.622-.789-5.299-.564-7.384-2.368-14.542-4.791-21.476-.508-1.522-1.015-3.382-1.86-4.735-.62-.958 0-.62-1.071-1.014-.902-.338-1.973-.226-2.932-.62-2.085-.846-3.72-2.48-5.185-4.171-2.819-3.213-5.073-6.708-6.201-10.823-.62-2.311-1.24-4.566-1.578-6.933-.169-.564-.902-3.72 0-3.551z" fill="#f5bd1f" opacity=".58"/><path d="m284.15 94.5836c5.186 9.0184 9.47 18.8834 12.232 28.9164 1.691 6.088 2.819 12.288 4.002 18.489 1.804 9.582 3.495 19.165 4.002 28.916.508 9.808 1.466 21.138-1.747 30.551 1.578-9.582.056-19.785-.169-29.424-.113-4.622-.507-9.187-1.015-13.753-.451-4.453-1.24-8.85-1.973-13.247-.338-2.141-.732-4.283-1.127-6.425-.113-.62-.169-2.537-.564-2.988-.394-.451-2.48-.62-3.156-.958-1.297-.677-2.537-1.578-3.664-2.537-2.086-1.86-3.946-4.284-5.355-6.707-3.326-5.581-4.678-12.345-4.622-18.827 0-1.24 2.029-14.712 1.24-14.9375.056-.0564.113-.1127.113-.1691.62 1.0146 1.24 2.0856 1.803 3.1002z" fill="#fcbf35" opacity=".58"/><path d="m340.237 127.05c.057-.113.62-.902.339-.845.507-.113-.733.902.62.281-.62.621-.282 1.353-.282 2.199 0 1.296-.226 2.593-.451 3.889-.395 2.029-.958 4.002-1.804 5.862-1.804 4.115-4.96 8.061-8.624 10.597-1.804 1.241-3.608 1.691-5.693 2.255-1.297.395-1.409 1.071-2.142 2.311-1.466 2.649-2.875 5.299-4.171 8.061-1.522 3.269-2.988 6.538-4.397 9.864-4.735 11.217-8.568 22.885-10.541 34.892-.056-7.103 1.579-14.431 3.664-21.195 1.522-4.904 3.495-9.695 5.581-14.373.507-1.128 1.296-2.593 1.465-3.89.169-.902-.338-1.747-.507-2.649-.846-3.607-.789-7.666-.057-11.273.79-4.003 3.101-5.863 6.99-6.426 1.409-.226 3.213-.113 4.566-.733 1.409-.677 2.029-2.818 2.818-4.228 2.198-3.776 4.791-7.327 7.722-10.54.846-.902 1.691-1.691 2.65-2.424.62-.451 1.86-1.015 2.254-1.635z" fill="#fcbf35" opacity=".58"/><path d="m296.497 198.75h13.866c.62 0 1.127.508 1.127 1.128v.169l-1.071 7.271c-.338 2.199-2.198 3.833-4.453 3.833h-5.016c-2.255 0-4.115-1.634-4.453-3.833l-1.071-7.271c-.113-.62.338-1.184.958-1.297 0 .057.056 0 .113 0z" fill="#ea6206" opacity=".58"/></g><path d="m143.741 153.997c.845-.113 1.747-.056 2.48.282 1.634.676 2.142 2.649 2.085 4.227 0 1.692-.394 3.552.902 4.961.62.62 1.353 1.127 1.917 1.747.62.677 1.127 1.466 1.465 2.311.677 1.579 1.015 3.382.395 5.017-.564 1.409-1.917 2.706-1.578 4.34.281 1.691 2.029 2.988 3.1 4.284 1.24 1.409 2.311 3.27 2.536 5.13.169 1.803-.62 3.607-1.803 5.016-2.424 2.706-6.032 4.059-9.696 4.059-1.522 0-3.325-.057-4.622-.902-.394-.282-.62-.564-.902-.958-.225-.339-.507-.62-.845-.846-.733-.564-1.297-1.296-1.635-2.142-1.296-3.269-.282-7.328 1.579-10.259.45-.676.789-1.352.563-2.198-.225-.846-.789-1.635-1.24-2.367-.451-.733-1.015-1.41-1.409-2.199-.395-.845-.507-1.691-.451-2.593.113-1.691.845-3.269 1.916-4.622 1.015-1.296 2.199-2.593 2.199-4.284 0-1.803-1.24-3.438-.677-5.298.226-.789.62-1.579 1.353-2.029.733-.395 1.578-.564 2.368-.677z" fill="#137f3a"/><path d="m143.178 156.929c0-.225.282-.394.507-.338.282.056.282.338.282.62 0 .789.113 1.522.282 2.255.395 1.578 1.071 2.987 1.635 4.509.563 1.466.845 3.044.507 4.622-.338 1.466-.789 2.931-1.127 4.453-.282 1.297-.564 2.706-.169 4.002.394 1.24 1.296 2.311 1.972 3.439 1.353 2.367 1.973 4.96 2.03 7.666.056 1.24 0 2.536-.282 3.72-.169.733-.395 1.635-1.015 2.142-.282.225-.733.282-1.014-.056-.226-.339 0-.79.056-1.128.282-1.465.338-2.931.282-4.396-.057-1.41-.226-2.819-.677-4.172-.394-1.24-1.071-2.367-1.803-3.494-.733-1.128-1.522-2.255-1.86-3.552-.339-1.352-.057-2.705.281-4.058.339-1.409.846-2.762 1.353-4.115s.677-2.593.395-3.946c-.395-2.762-1.804-5.298-1.635-8.173z" fill="#82e59b"/><path d="m165.837 157.323c1.015.338 2.086.846 2.819 1.635 1.578 1.691 1.071 4.227.225 6.087-.958 2.03-2.367 4.002-1.522 6.314.338 1.071.958 2.029 1.353 3.1.395 1.127.507 2.311.507 3.495-.056 2.198-.62 4.509-2.198 6.144-1.409 1.409-3.664 2.254-4.171 4.34-.564 2.198.789 4.622 1.353 6.651.676 2.311 1.014 5.073.225 7.384-.733 2.199-2.649 3.946-4.791 4.961-4.284 1.973-9.188 1.691-13.472-.226-1.804-.789-3.833-1.804-4.96-3.495-.338-.507-.451-.958-.508-1.578-.056-.563-.281-.958-.563-1.465-.564-1.071-.789-2.199-.733-3.382.169-4.566 3.551-8.794 7.271-11.274.902-.564 1.635-1.184 1.861-2.255.169-1.127-.057-2.311-.226-3.438s-.451-2.198-.451-3.326c0-1.183.282-2.254.846-3.269 1.071-1.917 2.762-3.382 4.678-4.509 1.86-1.015 3.889-1.917 4.848-3.946.958-2.142.394-4.735 1.973-6.651.676-.79 1.578-1.522 2.649-1.692.902-.169 1.973.113 2.987.395z" fill="#82e59b"/><path d="m163.695 160.93c.169-.282.564-.282.789-.113.282.282.169.564 0 .902-.451.902-.676 1.86-.845 2.818-.338 2.03-.282 4.115-.395 6.201-.113 2.085-.62 4.002-1.86 5.749-1.127 1.579-2.48 3.044-3.607 4.679-1.015 1.409-2.086 2.874-2.255 4.678-.169 1.691.338 3.382.507 5.073.338 3.495-.338 6.933-1.634 10.146-.621 1.522-1.297 2.988-2.312 4.284-.563.733-1.352 1.748-2.311 2.03-.451.112-1.071-.057-1.127-.564-.113-.507.395-.958.62-1.297 1.127-1.521 1.973-3.269 2.649-5.016.677-1.691 1.184-3.495 1.41-5.299.169-1.691.056-3.382-.282-5.073-.282-1.747-.62-3.438-.282-5.186.338-1.747 1.353-3.269 2.424-4.622 1.183-1.465 2.423-2.818 3.72-4.171 1.24-1.296 2.086-2.706 2.536-4.509.846-3.664.564-7.441 2.255-10.71z" fill="#137f3a"/><path d="m133.82 170.288c1.748 0 3.213.902 4.284 2.198 1.24 1.522 1.466 3.382 1.973 5.186.226.902.677 1.804 1.409 2.424.677.564 1.522.676 2.368.958 1.634.564 2.931 1.86 3.438 3.439.62 1.916-.056 3.889.057 5.862.112 1.804 1.86 2.931 3.325 3.777 1.409.845 2.706 1.634 3.1 3.325.451 1.748.621 3.72 0 5.468-1.014 2.931-4.114 4.171-7.045 4.396-2.65.17-6.032-.112-8.061-2.029-1.184-1.183-1.635-2.762-1.578-4.396.056-1.015.225-1.973.507-2.988.169-.676.451-1.353.507-2.085.169-1.917-1.578-2.255-3.044-2.762-1.916-.677-3.212-1.917-4.114-3.664-.846-1.635-1.24-3.439-.677-5.186.282-.902.733-1.748 1.409-2.424.282-.282.677-.564.959-.902.225-.282.169-.676.112-1.071-.394-1.634-1.578-2.987-1.972-4.622-.395-1.465-.17-3.326 1.183-4.284.451-.451 1.184-.62 1.86-.62z" fill="#82e59b"/><path d="m136.188 174.572c1.804 1.916 2.311 4.565 2.48 7.102.057 1.409 0 2.931.395 4.34.338 1.184 1.184 2.086 2.086 2.931 1.747 1.748 3.72 3.495 4.227 5.975.282 1.466.113 2.988.507 4.453.395 1.297 1.015 2.593 1.861 3.72.676.902 1.521 1.579 2.198 2.424.225.282.507.62.451 1.015-.113.394-.62.564-1.015.507-.902-.169-1.634-1.014-2.198-1.634-.846-.902-1.578-1.861-2.142-2.988-.677-1.184-1.184-2.48-1.409-3.833-.226-1.409-.113-2.875-.677-4.227-.902-2.255-3.044-3.608-4.622-5.412-1.973-2.198-1.691-4.96-1.465-7.666.112-1.465.225-3.156-.508-4.565-.282-.508-.902-1.015-1.071-1.579-.169-.507.451-1.071.902-.563z" fill="#137f3a"/><path d="m138.104 206.475c0 11.104 1.803 16.91 11.386 16.91 9.582 0 11.386-5.806 11.386-16.91z" fill="#0a54bf"/><path d="m357.429 119.667-15.558 54.677-11.386 40.303h-8.286l12.063-94.98z" fill="#137f3a"/><path d="m361.6 119.667c.338 28.184 1.578 43.573 1.973 46.109.394 2.537 6.087 18.883 17.192 48.871h-8.568c-14.092-28.804-21.983-45.094-23.618-48.871s-6.708-19.165-14.317-46.109z" fill="#82e59b"/><path d="m381.496 222.426-.451-9.019h-9.019c-4.284 2.987-9.864 5.467-16.741 7.328v1.747h16.347l5.58-.846v.846h4.284z" fill="#073099"/><path d="m331.668 222.426-.451-9.019h-9.019c-4.284 2.987-9.864 5.467-16.741 7.328v1.747h16.347l5.58-.846v.846h4.284z" fill="#073099"/><path d="m346.663 56.3107c1.973-2.3111 3.326-5.1858 3.101-8.3424-.62-9.1879-13.472-7.1587-15.952-2.5365-2.481 4.6221-2.199 16.4029 1.014 17.2484 1.297.3382 4.002-.5073 6.821-2.1419l-1.748 12.3444h10.316z" fill="#cb7a43"/><path d="m341.14 48.9827c-.395 5.5241-1.466 8.2297-3.157 8.2297-2.536 0-4.678-1.6347-5.805-1.6347-.79 0-.621 1.0147-.113 1.7474.451.6201 2.593 1.2401 2.593 2.1984 0 .9582-1.691.2254-1.691.7891 0 .9582-.282 2.7056 1.352 2.7056 1.692 0 6.426-.62 7.272-3.1002.507-1.5783.845-4.9039 1.015-9.9206h.281c1.41 0 2.593 1.1273 2.593 2.5929 0 .7327-.282 1.3528-.789 1.8601.62.8455 1.24 1.7474 2.029 2.6493 2.875-1.7474 5.468-6.7641 2.65-11.6681-.79-2.3674-2.988-3.6639-5.073-4.2276-1.691-.7327-3.439-.7891-4.904-.3382-2.875.2255-5.468 1.1274-6.201 1.6347 0 2.762.507 3.5511 5.073 3.4948 1.128.62 1.973 1.6346 2.875 2.9874z" fill="#212121"/><path d="m333.361 49.4326c-.451 1.3528-2.255 2.0292-2.875 3.213-.62 1.24 1.184 2.311 2.086 2.9311.056-.1128.113-.2819.169-.3946" fill="#cb7a43"/><path d="m337.701 49.3775c-.056-.2818-.282-.5637-.507-.7328-.226-.1691-.508-.3382-.79-.3945-.281-.0564-.563-.1691-.901-.1128-.17 0-.339.0564-.451.1691-.169.1128-.226.2819-.226.3946.226-.2255.451-.1127.677-.1127.225.0563.451.1127.676.2254.225.0564.451.1691.733.2255.282.1127.507.1691.789.3382z" fill="#212121"/><path d="m335.109 50.5605c.28 0 .507-.2271.507-.5073s-.227-.5073-.507-.5073-.507.2271-.507.5073.227.5073.507.5073z" fill="#212121"/><path d="m325.582 88.3259-10.822-9.9207c-5.694-1.5783-8.343-2.7056-7.836-3.4384.733-1.071 2.255-.1691 2.875-.8455s-.563-2.9875-1.747-5.0731c-1.184-2.1419.056-1.9728.845-1.6346 2.424 1.6346 4.848 3.9457 7.328 6.8768l14.937 8.1733zm-18.207 7.5532c-2.818-2.0292-5.467-3.382-7.891-4.0584-4.679-1.2965-6.539-2.3111-8.793-5.1858-1.24-1.5783-2.255-4.6785-1.071-5.6931.789-.6764 5.355 2.7056 7.215 3.1002 1.86.3945.169-4.0585 1.127-3.6075 1.296 0 2.367 1.8037 3.326 5.2985l6.538 3.6075z" fill="#cb7a43"/><path d="m338.377 80.6054c-5.242-.0564-12.175-1.1837-19.616-5.8622l-2.931 6.5386c5.13 5.073 12.345 9.3006 18.658 9.0751 4.96-.1691 7.497-6.2004 3.889-9.7515z" fill="#0a54bf"/><path d="m331.332 91.032c-5.524 1.4091-14.881-.2255-27.902-4.904-3.213 6.7077-4.735 11.4989-4.51 14.317 11.217 5.863 20.8 8.455 28.748 8.625-.226 4.678.338 9.187 2.254 13.246 3.946 8.399 27.057.62 34.835 2.142 4.848-15.783-4.565-22.209-4.565-32.3551 0-11.048-8.906-28.1273-10.203-28.1273h-11.95c-.676 8.5115-4.002 17.8685-6.707 27.0564z" fill="#428edd"/><path d="m238.719 32.1285c8.872 0 16.065-7.1925 16.065-16.0648 0-8.87226-7.193-16.06467656-16.065-16.06467656s-16.065 7.19241656-16.065 16.06467656c0 8.8723 7.193 16.0648 16.065 16.0648z" fill="#009245"/><path d="m230.32 15.3877 5.13 6.7077 13.19-12.45722" stroke="#fff" stroke-miterlimit="10" stroke-width="5.6752"/><path d="m70.2372 84.2121c-2.4238-2.0856-4.2276-4.8476-4.5094-8.1732-.7328-9.6389 12.8517-9.5261 16.1211-5.0731 3.2693 4.453 4.7912 16.6847 1.5783 18.0376-1.2965.5636-4.2276.1127-7.3842-1.1837l3.7203 12.5133-10.7098 1.579z" fill="#ffcaa7"/><path d="m83.2023 72.9943c-.2255-.62-.5637-1.2401-.8455-1.8038-.3946-.7327-.9019-1.3528-1.4092-1.9164-1.0146-1.071-2.1983-2.0293-3.4384-2.762-2.3111-1.3529-5.0167-1.9165-7.5533-1.2401-1.24.3382-2.4238 1.0146-3.382 2.0292-.8455.9019-1.6347 2.0856-2.8747 2.3674-1.3529.2819-2.7621-.7327-3.9458-1.2964-1.3528-.6764-2.762-1.071-4.2275-1.071-2.4802-.0564-4.6222 1.1273-5.975 3.3257-1.4655 2.3674-2.2547 5.6367-.6764 8.2296.2819.5073.6201.9019 1.071 1.1837.3946.2819 1.0146.5637 1.2401 1.071.2254.5637-.1128 1.3528-.2255 1.8601-.1691.7892-.2255 1.5783-.0564 2.3111.3382 1.2965 1.2965 2.4238 2.3111 3.1002 1.0146.7328 2.142 1.071 3.3257 1.1274.7891.0563 1.5783 0 2.3674-.1691.3946-.1128.7328-.2255 1.071-.3946.3382-.1127.5637-.0564.9019.0564 1.5783.7327 3.1566.8455 4.8476.4509 1.4092-.3382 2.9311-.9019 3.9457-2.0292 1.1273-1.2401.8455-2.7057.3382-4.284.3382.1128 1.2401.0564.62-.4509-.2254-.2255-.6764-.2818-.9582-.3382-.3382-.1127-.6764-.2818-.9582-.5637-1.1274-.9582-.5074-3.382.6764-3.9457 1.7474-.8455 2.5365 1.691 3.9457 2.142.7891.2818 1.5219-.3946 1.9728-.9583.6201-.8455 1.0147-1.8601 1.2965-2.8747.2255-.8455.4509-1.691.7328-2.5365.1127-.3946.5636-1.522.2254-1.9165 1.2401-.451 2.8184-.1128 4.0021.3945.5073.2255.9019.5073 1.2401.9583.0564.1127.2255.3945.3946.3945s0-.3382 0-.4509z" fill="#715f56"/><path d="m84.4431 78.125c.2255 1.2401 1.8037 2.0856 2.1983 3.1566.451 1.1837-1.2964 1.9165-2.1419 2.3674-.0564-.1127-.1128-.2255-.1128-.3382" fill="#ffcaa7"/><g fill="#715f56"><path d="m80.6094 77.5602c.0563-.2819.3382-.451.5073-.5637.2255-.1128.4509-.2255.7328-.2819.2818-.0563.5073-.0563.7891 0 .1127.0564.2818.1128.3946.2255.1127.1127.1691.2818.1691.3946-.1691-.2255-.3946-.1691-.5637-.1691-.2255 0-.4509.0563-.62.1127-.2255.0564-.451.1127-.6765.1127-.2818.0564-.5073.0564-.7327.1692z"/><path d="m83.4835 85.6215h.1691c.5073-.1127.9019-.3382 1.4092-.5073-.451 0-.8455.0564-1.2965.1127-.9019.1128-1.6346-.0563-2.4801-.2254.0563.3382.5636.7327.8455.7891.9018.2255 1.8037.5637 2.8183.4509-.4509-.1691-.9018-.3382-1.2964-.5073-.1127-.1127-.1127-.1127-.1691-.1127z"/><path d="m83.2692 78.5221c.0294-.2473-.1472-.4716-.3945-.5011-.2473-.0294-.4716.1472-.5011.3945-.0294.2473.1472.4716.3945.5011.2473.0294.4716-.1472.5011-.3945z"/></g><path d="m62.0625 149.767 17.9248 61.891 8.4552 46.447h8.4551l-8.4551-108.338z" fill="#ffcaa7"/><path d="m54.0029 149.767c1.2401 32.129.7328 49.659.451 52.59-.2819 2.932-1.8601 22.491-12.7391 56.706h8.7934c14.43-32.862 19.4467-52.365 21.0814-56.706 1.6346-4.34 6.5386-21.814 13.6409-52.59z" fill="#ffcaa7"/><path d="m61.6699 149.767c4.6785 21.306 12.7391 55.24 24.238 101.912h12.4009c.9018-47.912-2.9875-79.422-9.6952-101.912z" fill="#f8c92c"/><path d="m53.8902 149.767c1.2401 32.129-1.9729 63.808-11.7808 102.419h13.2463c14.3737-32.355 24.689-63.864 31.7349-102.419z" fill="#fcbf35"/><path d="m40.4746 265.433.5073-7.835c2.8748.846 6.4259.508 10.7098-.958 4.6222 3.269 10.428 5.468 17.4176 6.708.5073.113.9018.62.7891 1.127v.113l-.6764 2.367h-17.5303-10.2025z" fill="#ce3a5e"/><path d="m86.5273 265.433.5073-7.835c2.8748.846 6.4259.508 10.7099-.958 4.6225 3.269 10.4275 5.468 17.4175 6.708.507.113.902.62.789 1.127v.113l-.676 2.367h-17.5305-10.2025z" fill="#ce3a5e"/><path d="m103.945 90.6959 9.808-11.1607c5.524-2.0856 8.061-3.4948 7.497-4.2276-.846-1.071-2.255 0-2.931-.62-.677-.6201.282-3.1002 1.24-5.4113s-.282-2.0292-.958-1.6347c-2.255 1.8602-4.453 4.4531-6.652 7.7224l-14.0916 9.6952zm-4.3966 12.6831c2.4236-1.691 5.8056-2.65 8.5676-3.8334 2.875-1.2401 5.863-2.3111 8.737-3.4948 2.086-.8455 3.27-3.382 5.355-4.0584.846-.2819 2.029-1.1274 1.635.2254-.395 1.3529-.733 1.4092.563 1.6911 1.297.2818 7.159-1.0146 8.907-.5637 1.183.3382-5.975 3.3257-13.134 5.1294l-9.244 7.2714c-3.721-.733-7.948-1.071-11.3866-2.367z" fill="#ffcaa7"/><path d="m68.1518 111.044c15.7829-1.014 29.9875-6.369 46.5592-15.9517l3.608 8.1737c-13.19 13.19-25.0273 22.997-38.8937 21.645-3.4384-.395-8.9061-7.103-14.2046-8.794z" fill="#f24c64"/><path d="m56.1445 150.501h33.0877c-7.4969-22.885-11.3298-38.555-11.4989-47.067 0-.451-.7892-1.183-1.1838-1.127-2.5929.733-5.3549.451-8.3423-.846-7.7787 12.683-10.4844 28.241-12.0627 49.04z" fill="#f77b0b"/><path d="m71.9278 94.7547c2.3674-.9018 4.904-1.24 7.3278-1.8601 3.7766-.9019 7.3841-3.382 10.7098-5.3549 1.8037-1.1273 17.4736-11.8935 18.0376-11.3299l8.061 7.666c-11.33 12.7954-24.2385 22.7722-37.4285 34.8352.2819 22.491 2.8748 42.388-8.5115 42.388-5.4676 0-11.3298 0-17.643 0-2.5365-17.135 1.9729-36.075 8.5115-51.914.7328-1.691 1.4656-3.439 2.1983-5.13 1.3529-2.987 3.1003-5.9182 5.8623-7.8347.9018-.6201 1.8601-1.071 2.8747-1.4656z" fill="#ce3a5e"/><g opacity=".98"><path d="m242.495 158.165c2.988-.169 6.652 1.578 6.934 4.791.225 2.368.169 4.679.507 7.046.282 1.86.902 3.664 1.691 5.355.789 1.635 2.424 3.044 2.875 4.791.282 1.128.112 2.706-.282 3.777-.451 1.353-.226 1.24.676 2.311 1.804 2.198 3.382 4.397 4.51 7.046 1.634 3.777 2.705 8.117 2.085 12.232-.056.507-.169 2.367-.902 2.536-.789.169-.451-.902-.394-1.296.282-2.199.507-4.115.169-6.37-1.297-8.624-7.497-14.373-11.499-21.701-.225-.395-.676-1.297-1.015-1.86-.507-.959-1.014-2.706-1.747-3.439-1.296-1.296-.113 1.353.169 1.804.338.62.676 1.296 1.015 1.86 1.522 2.593 3.213 5.411 4.791 8.061-6.764 1.522-11.555-6.595-13.359-11.95-1.409-4.284-3.213-14.599 3.776-14.994z" fill="#82e59b" opacity=".98"/><path d="m282.29 149.992c-4.96.395-8.173 3.664-9.638 8.23-.79 2.48-.902 5.017-1.353 7.553-.677 3.833-2.086 6.708-4.904 9.414-.846.845-1.522 1.691-1.973 2.649-.902.902-1.691 1.973-2.255 3.269-.733 1.635-.958 3.608-.113 5.242.226.451.79 1.297 1.41 1.691-2.199 4.735-3.439 9.921-3.326 15.107.056 3.1.225 6.257.395 9.357.056.845.338 2.198.732.789.395-1.297-.112-3.326-.112-4.622-.226-6.539-.395-12.514 2.311-18.601.281-.62.563-1.297.901-1.917 0 0 .057 0 .057-.056h.056c0-.057.057-.057.057-.113.112-.113.169-.226.225-.338.226-.338.507-.733.507-.959 1.691-2.705 3.552-5.298 5.524-7.835 0 0 2.142-2.874 1.804-1.296-.169.789-1.747 2.255-2.367 3.044-1.409 1.804-3.044 4.115-4.397 6.369-.169.113-.451.62-.62 1.015-.113.169-.225.395-.282.564 4.848 1.578 8.624-1.635 11.161-5.355.789-1.015 1.578-2.086 2.593-2.875 1.691-1.353 3.438-1.635 5.411-2.255 5.355-1.86 7.666-8.793 8.342-13.922.846-5.806-3.156-14.712-10.146-14.149z" fill="#137f3a" opacity=".98"/><path d="m272.483 133.702c-5.073 5.299-7.553 12.683-9.526 19.56-2.198 7.722-3.608 15.557-3.664 23.618-.056 5.298-.169 10.597.113 15.839.113 1.86.282 3.72.62 5.58 0 .169.676 4.284 1.296 3.326.339-.564-.676-4.284-.732-4.904-.451-3.495-.564-7.046-.508-10.597.057-5.806-.112-11.612.451-17.418.113-.845.169-1.747.338-2.593.226-.902-.056-.507.677-.845.676-.338 1.522-.282 2.255-.733 2.818-1.747 4.283-6.144 5.411-9.075 1.296-3.326 2.085-6.877 2.705-10.372.451-2.593.79-5.129.959-7.722.056-.846.056-1.691.225-2.48.057-.226.282-.62.226-.789 0-.395-.282-.62-.282-1.015-.169.226-.338.395-.564.62z" fill="#137f3a" opacity=".98"/><path d="m244.693 204.331c0 8.793 7.103 15.895 15.896 15.895s15.896-7.102 15.896-15.895" fill="#073099" opacity=".98"/><path d="m261.887 204.387h-.846c.056-1.071.113-2.086.338-3.157.677-4.002 2.762-9.808 7.384-10.484h1.579c.338-.226.789-.338 1.183-.338 3.946-.282 8.343 2.874 10.203 6.2 1.522 2.649 1.296 6.144.338 8.963-.62 1.916-2.029 4.565-4.284 4.622-2.875.056-3.044-3.551-3.1-5.581-.056-2.762-.451-5.186-2.593-7.046-.507-.451-1.071-.845-1.578-1.24-.789-.676-1.691-1.353-1.804-2.48-.169-1.522.733-1.804 2.086-1.522.225.057 2.536 1.071 2.198.282-.113-.225-.507-.451-.958-.564-1.24-.112-2.706-.281-3.157-.169-4.566 1.015-6.369 7.328-6.82 11.33-.113.282-.169.733-.169 1.184z" fill="#82e59b" opacity=".98"/></g></svg>