<svg width="294" height="229" viewBox="0 0 294 229" fill="none" xmlns="http://www.w3.org/2000/svg">
<path d="M211 36.2418C211 48.2667 203.387 58.9556 191.803 65.4691C189.155 66.9722 190.81 76.1579 190.313 77.828C189.817 79.3311 180.053 70.4794 178.398 70.8134C173.93 71.9825 168.965 72.4836 164 72.4836C138.018 72.4836 117 56.2833 117 36.2418C117 16.2003 138.018 0 164 0C189.982 0 211 16.2003 211 36.2418Z" fill="#EEE7E5"/>
<path d="M163.3 122.8C162.2 122.8 161.3 124.1 161.3 125.7C161.3 125.9 161.3 126.1 161.3 126.3C161.3 126.9 161.3 127.5 161.3 128.1C161.3 129 161.3 129.9 161.3 130.8C161.3 132 161.3 133.2 161.3 134.4C161.3 135.8 161.3 137.2 161.3 138.6C161.3 140.2 161.3 141.8 161.3 143.4C161.3 145.1 161.3 146.8 161.3 148.6C161.3 150.4 161.3 152.2 161.3 154C161.3 155.8 161.3 157.6 161.3 159.5C161.3 161.3 161.3 163.1 161.3 164.9C161.3 166.6 161.3 168.3 161.3 170.1C161.3 171.7 161.3 173.3 161.3 174.9C161.3 176.3 161.3 177.7 161.3 179.2C161.3 180.4 161.3 181.6 161.3 182.8C161.3 183.7 161.3 184.6 161.3 185.6C161.3 186.2 161.3 186.8 161.3 187.4C161.3 187.8 161.3 188.1 161.3 188.5C161.3 188.9 161.7 189.1 162 189.2C162.4 189.4 162.9 189.4 163.3 189.4C163.7 189.4 164.1 189.4 164.4 189.2C164.6 189.1 165.1 189 165.2 188.7C165.2 188.6 165.2 188.6 165.2 188.5C165.2 188.1 165.2 187.7 165.2 187.3C165.2 186.7 165.2 186.1 165.2 185.6C165.2 184.7 165.2 183.8 165.2 182.9C165.2 181.8 165.2 180.6 165.2 179.5C165.2 178.1 165.2 176.8 165.2 175.4C165.2 173.9 165.2 172.3 165.2 170.8C165.2 169.2 165.2 167.5 165.2 165.9C165.2 164.2 165.2 162.4 165.2 160.7C165.2 158.9 165.2 157.2 165.2 155.4C165.2 153.7 165.2 151.9 165.2 150.2C165.2 148.5 165.2 146.8 165.2 145.1C165.2 143.5 165.2 141.9 165.2 140.3C165.2 138.9 165.2 137.4 165.2 136C165.2 134.8 165.2 133.5 165.2 132.3C165.2 131.3 165.2 130.3 165.2 129.3C165.2 128.6 165.2 127.9 165.2 127.2C165.2 126.8 165.2 126.4 165.2 126C165.2 125.9 165.2 125.9 165.2 125.8C165.3 124.1 164.4 122.8 163.3 122.8Z" fill="#9D8F88"/>
<path d="M19.7 110.3L36.2 165.6L43.8999 207.2H51.7L44 110.3H19.7Z" fill="#9D8F88"/>
<path d="M12.3 110.3C13.4 139.1 13 154.7 12.7 157.3C12.4 159.9 11 177.4 1 208H9.1C22.3 178.6 26.9 161.1 28.4 157.3C29.9 153.5 34.4 137.8 40.9 110.3H12.3Z" fill="#9D8F88"/>
<path d="M19.4 110.3C23.7 129.3 31.1 159.7 41.6 201.5H53C53.8 158.6 50.3 130.4 44.1 110.3H19.4Z" fill="#443023"/>
<path d="M12.3 110.3C13.4 139.1 10.5 167.4 1.5 201.9H13.6C26.8 173 36.3 144.8 42.7 110.3H12.3Z" fill="#5A483C"/>
<path d="M0 213.8L0.4 206.8C3 207.5 6.3 207.3 10.2 205.9C14.4 208.8 19.7 210.8 26.2 211.9C26.7 212 27 212.4 26.9 212.9V213L26.3 215.1H10.2H0.799999L0 213.8Z" fill="#443023"/>
<path d="M42.2 213.8L42.6 206.8C45.2 207.5 48.5 207.3 52.4 205.9C56.6 208.8 61.9 210.8 68.4 211.9C68.9 212 69.2 212.4 69.1 212.9V213L68.5 215.1H52.4H43L42.2 213.8Z" fill="#443023"/>
<path d="M29.7 45.7001C27.6 43.3001 26.2 40.4001 26.5 37.2001C27.2 27.8001 40.6 29.9001 43.2 34.6001C45.8 39.3001 45.5 51.3001 42.1 52.2001C40.8 52.5001 37.9 51.7001 35 50.0001L36.8 62.6001H26L29.7 45.7001Z" fill="#9D8F88"/>
<path d="M21.8 34.0002C21.5 33.7002 21.3 33.2002 21.1 32.7002C20.9 32.2002 20.8 31.7001 20.6 31.3001C20.4 30.3001 20.4 29.2002 21.1 28.4002C21.7 27.8002 22.5 27.5002 23.3 27.5002C23.8 27.5002 24.4 27.5002 24.9 27.7002C25.4 27.9002 25.8 28.2002 26.3 28.4002C26.3 27.3002 26.5 26.2002 27.1 25.3002C27.6 24.4002 28.5 23.9002 29.4 23.8002C30.4 23.7002 31.4 23.9002 32.3 24.4002C32.5 24.5002 32.7 24.6002 33 24.8002C33.2 24.9002 33.4 25.1002 33.6 25.1002C33.8 25.2002 33.9 25.0002 34.1 24.9002C34.3 24.7002 34.5 24.5002 34.7 24.4002C35.6 23.7002 36.8 23.5002 37.9 23.9002C38.4 24.1002 38.9 24.4002 39.2 24.8002C39.5 25.2002 39.7 25.8002 40.1 26.1002C40.3 26.2002 40.4 26.1002 40.6 26.0002C40.8 25.8002 41.1 25.6002 41.3 25.5002C41.6 25.3002 42 25.1002 42.4 25.0002C43 24.9002 43.8 24.9002 43.9 25.6002C44 25.9002 43.9 26.2002 43.9 26.5002C43.9 26.9002 43.8 27.3002 43.8 27.7002C43.8 28.0002 43.7 28.3002 43.7 28.6002C43.7 28.8002 43.6 29.0002 43.6 29.2002C43.7 29.4002 44.1 29.3001 44.2 29.3001C44.5 29.3001 44.9 29.4002 45.2 29.5002C45.4 29.6002 45.7 29.8002 45.8 30.0002C45.9 30.2002 45.8 30.3002 45.8 30.5002C45.8 30.7002 45.8 30.8002 45.8 31.0002C46.2 30.8002 47.8 30.3002 47.9 31.1002C48 31.4002 47.8 31.6002 47.7 31.9002C47.5 32.3002 47.3 32.6002 47 33.0002C46.5 33.7002 45.8 34.3001 45.1 34.8001C45.9 35.2001 46.1 36.2001 45.4 36.8001C45.1 37.1002 44.7 37.1002 44.3 37.1002C44.2 37.1002 43.9 37.0002 43.8 37.1002C43.7 37.1002 43.7 37.2002 43.6 37.2002C43 37.2002 42.4 37.1002 41.9 37.0002C40.9 36.8002 40 36.3002 39.3 35.7002C39.1 35.5002 39 35.4002 38.7 35.4002C38.5 35.4002 38.3 35.5002 38 35.5002C37.4 35.5002 36.9 35.2002 36.3 35.0002C36.3 35.7002 36.1 36.5002 35.7 37.2002C35.5 37.7002 34.9 37.8002 34.4 37.9002C32.8 38.1002 31.1 37.9002 29.5 37.9002C31.1 38.3002 32.7 38.4002 34.3 38.8001C35 39.0001 34.5 39.5001 34.2 39.8001C33.7 40.3001 33.3 41.0002 33.1 41.7002C32.3 40.7002 30.9 40.1002 29.7 40.4002C28.4 40.7002 27.4 42.5002 28.3 43.8001C28.8 44.5002 29.7 44.8002 30.5 45.1002C29.9 45.7002 29.8 46.6001 29.4 47.3001C29.2 47.7001 29 48.1002 28.6 48.2002C28.5 48.2002 28.3 48.3002 28.2 48.4002C28.1 48.5002 28 48.7001 27.8 48.8001C27.1 49.3001 26 49.2002 25.3 48.6002C24.7 48.0002 24.9 47.1002 25.4 46.5002C24.6 46.2002 23.2 45.8002 23.5 44.6002C21.8 44.5002 17.8 41.9002 20.1 40.0002C18.9 39.3002 17.8 37.7002 18.5 36.2002C19.2 34.6002 20.6 34.1002 21.8 34.0002Z" fill="#443023"/>
<path d="M45.7 66.1002L62.2 58.4002C65 55.5002 67.8 53.2002 70.5 51.6002C71.3 51.3002 72.6999 51.2002 71.2999 53.4002C69.8999 55.6002 68.4999 57.9002 69.0999 58.6002C69.6999 59.3002 71.3999 58.4002 72.0999 59.6002C72.5999 60.4002 69.7 61.4002 63.5 62.8002L51.2999 72.6002L45.7 66.1002Z" fill="#9D8F88"/>
<path d="M36.1 65.3001C41.7 65.2001 49.2 64.1001 57.2 59.1001L60.3 65.9001C54.8 71.2001 47 75.6001 40.3 75.4001C35 75.4001 32.3 69.1001 36.1 65.3001Z" fill="#EA8003"/>
<path d="M95.7 51.7002C89 49.8002 82.4999 47.4002 75.8999 45.2002C75.0999 44.9002 71.8 43.3001 71.2 43.6001C71.2 43.6001 70.4 47.2001 70.2 48.3001C69.7 51.8001 70.1 48.3001 69.5 51.8001C69 54.2001 68.5999 56.3001 68.2999 57.4001C68.1999 57.6001 68.2 57.8001 68.2 58.0001C68.1 58.3001 68.1999 58.6001 68.2999 58.8001C68.8999 59.5001 70.4999 58.6001 71.0999 59.8001C71.3999 60.4001 69.8999 61.2002 66.3999 62.2002C64.2999 66.7002 57.4 76.0002 56.7 76.7002C61.7 79.3002 66.7 82.0001 71.7 84.6001C72.9 85.2001 80.2999 89.5001 81.5999 89.1001C82.9999 88.8001 85.1999 84.5002 86.3999 82.2002C89.2999 76.6002 91.6999 70.7001 93.3999 64.6001C94.0999 62.8001 97.1 52.0002 95.7 51.7002Z" fill="#CABEBB"/>
<path d="M73.2999 79.4001L80.2999 75.6002C81.2999 71.9002 82.4999 70.1002 83.7999 70.1002C84.8999 69.6002 82.9999 74.3001 84.9999 73.9001C86.9999 73.5001 91.8999 70.0002 92.6999 70.7002C93.8999 71.8002 92.7999 75.0002 91.4999 76.7002C89.0999 79.7002 86.9999 80.8002 81.9999 82.1002C79.3999 82.8002 76.5999 84.2001 73.4999 86.4001L73.2999 79.4001Z" fill="#9D8F88"/>
<path d="M46.8 81.2002C52.8 82.7002 62.8 80.9002 76.8 76.1002C80.3 83.1002 81.9 88.1002 81.6 91.1002C69.6 97.2002 59.2 100 50.7 100.1C51 105 50.4 109.7 48.3 114C44.1 122.8 19.2 114.6 10.9 116.3C5.69999 99.7001 15.8 93.0001 15.8 82.4001C15.8 70.8001 25.4 52.9001 26.8 52.9001H39.6C40.3 61.8001 43.9 71.6002 46.8 81.2002Z" fill="#FCA306"/>
<path d="M247.6 155.4H212.6L208 210.2H260.1L247.6 155.4Z" fill="#B3A7A1"/>
<path d="M247.6 155.4H236.8L230.4 210.2H260.1L247.6 155.4Z" fill="#9D8F88"/>
<path d="M162.1 210.5C171 199.8 177.1 192 180.3 186.8C185.7 178 190.1 170.2 191.5 167.2C194.8 160.1 183.8 156.7 181.3 160.1C177.5 165.1 169.5 181 157.2 207.7L162.1 210.5Z" fill="#B3A7A1"/>
<path d="M180.5 207.4L197.1 166.5C200.7 159.1 183.5 154.2 180.9 157.6C175 165.5 160.8 196.5 159.1 198.9L180.5 207.4Z" fill="#5A483C"/>
<path d="M224.817 199.2C221.564 194.636 209.834 179.089 203.328 172.663C201.496 170.793 199.679 169.064 197.94 167.399C192.878 162.527 182.787 170.698 187.883 175.21C200.498 186.327 218.854 201.319 220.345 202.656C222.536 204.559 226.83 202.116 224.817 199.2Z" fill="#B3A7A1"/>
<path d="M224.01 197.081C225.122 197.954 225.838 198.714 226.208 199.274C226.614 199.97 227.13 201.076 227.669 202.543C226.836 202.985 219.462 207.157 205.548 215.058C203.892 213.525 203.65 212.346 204.733 211.47C205.902 210.644 206.799 209.892 207.595 209.312L215.244 199.064C215.344 198.891 215.704 198.867 215.877 198.967L217.509 200.141C218.948 200.048 220.041 199.755 220.738 199.349C221.297 198.979 222.007 198.35 222.744 197.274C222.994 196.841 223.577 196.831 224.01 197.081Z" fill="#9D8F88"/>
<path d="M166 208.9C166.5 210.2 166.8 211.2 166.8 211.9C166.8 212.7 166.7 213.9 166.4 215.4C165.5 215.4 156.9 215.4 140.8 215.4C140.1 213.3 140.5 212.1 142 211.9C143.4 211.7 144.6 211.6 145.6 211.4L157.5 206.2C157.7 206.1 158 206.2 158.1 206.4L158.9 208.2C160.2 208.8 161.3 209.1 162.1 209.1C162.8 209.1 163.7 208.8 164.9 208.3C165.2 208.2 165.7 208.4 166 208.9C166 208.9 166 208.8 166 208.9Z" fill="#9D8F88"/>
<path d="M203.1 168.6C216.9 166.4 226.2 164.9 230.9 164.1C244.3 161.8 248.2 154.8 245.9 139.4H221.2C217.9 140.3 204.3 146 180.3 156.5C176 158.6 176.8 164.8 177.6 166.8C177.6 166.9 184.9 179.1 199.5 203.3L219.7 190.8L203.2 170.1C202.6 169.2 202.6 168.7 203.1 168.6Z" fill="#715F56"/>
<path d="M238.4 84.5002C240.5 82.1002 241.9 79.2002 241.7 75.9002C241 66.4002 227.5 68.5002 224.9 73.3002C222.3 78.1002 222.6 90.2002 226 91.1002C227.4 91.4002 230.2 90.6002 233.2 88.9002L231.4 101.6H242.3L238.4 84.5002Z" fill="#B3A7A1"/>
<path d="M223.8 75.4002C223.9 74.8002 224.2 74.1002 224.4 73.5002C224.7 72.7002 225.1 72.1002 225.5 71.4002C226.4 70.2002 227.4 69.1002 228.5 68.2002C230.6 66.5002 233.2 65.6002 235.8 65.9002C237.1 66.1002 238.4 66.5002 239.5 67.4002C240.5 68.1002 241.4 69.2002 242.7 69.3002C244.1 69.4002 245.3 68.2002 246.5 67.5002C247.7 66.7002 249.1 66.1002 250.5 65.8002C252.9 65.4002 255.2 66.2002 256.9 68.2002C258.7 70.3002 260 73.3002 258.8 76.1002C258.6 76.6002 258.3 77.0002 257.9 77.4002C257.5 77.7002 257 78.1002 256.8 78.6002C256.6 79.2002 257.1 79.9002 257.3 80.4002C257.6 81.1002 257.8 81.9002 257.7 82.7002C257.6 84.0002 256.7 85.2002 255.9 86.1002C255 87.0002 253.9 87.5002 252.7 87.7002C251.9 87.9002 251.1 87.9002 250.3 87.9002C249.9 87.9002 249.6 87.8002 249.2 87.7002C248.8 87.6002 248.6 87.7002 248.3 87.9002C246.8 88.8002 245.3 89.2002 243.6 89.0002C242.2 88.9002 240.5 88.5002 239.4 87.6002C238.1 86.5002 238.1 85.1002 238.4 83.5002C238.1 83.7002 237.2 83.8002 237.7 83.1002C237.9 82.9002 238.3 82.8002 238.6 82.6002C238.9 82.4002 239.2 82.2002 239.5 81.9002C240.5 80.8002 239.5 78.5002 238.2 78.2002C236.3 77.6002 235.9 80.2002 234.6 80.9002C233.8 81.3002 233 80.8002 232.5 80.2002C231.7 79.5002 231.2 78.5002 230.8 77.6002C230.4 76.8002 230.1 76.0002 229.7 75.2002C229.5 74.8002 228.9 73.8002 229.2 73.4002C227.9 73.1002 226.4 73.7002 225.3 74.4002C224.8 74.7002 224.5 75.0002 224.2 75.5002C224.1 75.6002 224 75.9002 223.9 76.0002C223.7 75.9002 223.8 75.6002 223.8 75.4002Z" fill="#EA8003"/>
<path d="M199.6 132.3L187.3 123.1C181.2 122 178.3 121.1 178.7 120.3C179.4 119.1 181.1 119.9 181.6 119.2C182.1 118.5 180.7 116.2 179.3 114.1C177.8 112 179.2 112.1 180 112.3C182.7 113.8 185.5 115.9 188.3 118.7L204.7 125.7L199.6 132.3ZM282.6 154.3C283.5 155.4 289 158.4 292.7 159.9C294.2 160.5 293.9 161.8 293.4 162.2C289.8 165.4 286.6 163 282.8 162.1C278.6 161.1 279.9 165.9 276.6 165.2C277.1 163 278.5 158.8 277 156.5C276.3 155.5 271.3 146.5 262 129.5L271.3 127.7C277.6 143.9 281.4 152.8 282.6 154.3Z" fill="#B3A7A1"/>
<path d="M236.7 93.8001L232.8 93.1001C224.3 101.2 220.8 120.6 215.1 123.2C209.7 125.6 202.1 123.3 193 120.1L190.2 126.2C198.4 134.9 216 142.2 223.1 138C234.5 131.3 237.2 107.3 236.7 93.8001Z" fill="#87776F"/>
<path d="M253.8 141.8C238.1 141.8 226.5 141.8 219.1 141.8C217.5 141.8 217.8 139.6 218 138.4C220.6 125.4 231 111.4 231 92.9001L241 91.4001C249.3 104.4 252.2 120.4 253.8 141.8Z" fill="#B3A7A1"/>
<path d="M257.3 128.7C264.4 141.1 270.3 150.1 275.1 155.6L282.4 154.2C277.7 125.9 264.1 104.9 241.7 91.4001H241.6H237.8C228.8 121.3 226.3 141.2 230.4 151.1H261.6C261.1 143.8 259.5 136.2 257.3 128.7Z" fill="#9D8F88"/>
<path d="M68 125.1C66.9 125.1 66 126.4 66 127.9C66 128.1 66 128.3 66 128.5C66 129.1 66 129.6 66 130.2C66 131.1 66 132 66 132.9C66 134.1 66 135.2 66 136.4C66 137.8 66 139.2 66 140.6C66 142.2 66 143.7 66 145.3C66 147 66 148.7 66 150.4C66 152.2 66 153.9 66 155.7C66 157.5 66 159.3 66 161.1C66 162.9 66 164.6 66 166.4C66 168.1 66 169.8 66 171.5C66 173.1 66 174.6 66 176.2C66 177.6 66 179 66 180.4C66 181.6 66 182.7 66 183.9C66 184.8 66 185.7 66 186.6C66 187.2 66 187.8 66 188.3C66 188.7 66 189 66 189.4C66 189.8 66.4 190 66.7 190.1C67.1 190.3 67.6 190.3 68 190.3C68.4 190.3 68.8 190.3 69.1 190.1C69.3 190 69.8 189.9 69.9 189.6C69.9 189.5 69.9 189.5 69.9 189.4C69.9 189 69.9 188.6 69.9 188.3C69.9 187.7 69.9 187.2 69.9 186.6C69.9 185.7 69.9 184.9 69.9 184C69.9 182.9 69.9 181.8 69.9 180.6C69.9 179.3 69.9 177.9 69.9 176.6C69.9 175.1 69.9 173.6 69.9 172.1C69.9 170.5 69.9 168.9 69.9 167.3C69.9 165.6 69.9 163.9 69.9 162.2C69.9 160.5 69.9 158.8 69.9 157C69.9 155.3 69.9 153.6 69.9 151.9C69.9 150.2 69.9 148.6 69.9 146.9C69.9 145.3 69.9 143.8 69.9 142.2C69.9 140.8 69.9 139.4 69.9 138C69.9 136.8 69.9 135.6 69.9 134.4C69.9 133.4 69.9 132.4 69.9 131.5C69.9 130.8 69.9 130.1 69.9 129.4C69.9 129 69.9 128.6 69.9 128.3C69.9 128.2 69.9 128.2 69.9 128.1C70 126.3 69.1 125.1 68 125.1Z" fill="#9D8F88"/>
<path d="M42.7001 142.8C41.6001 142.8 40.7001 144.4 40.7001 146.4C40.7001 146.7 40.7001 146.9 40.7001 147.2C40.7001 147.9 40.7001 148.7 40.7001 149.4C40.7001 150.5 40.7001 151.7 40.7001 152.8C40.7001 154.3 40.7001 155.8 40.7001 157.3C40.7001 159.1 40.7001 160.8 40.7001 162.6C40.7001 164.6 40.7001 166.6 40.7001 168.6C40.7001 170.8 40.7001 172.9 40.7001 175.1C40.7001 177.3 40.7001 179.6 40.7001 181.8C40.7001 184.1 40.7001 186.4 40.7001 188.6C40.7001 190.9 40.7001 193.1 40.7001 195.4C40.7001 197.6 40.7001 199.7 40.7001 201.9C40.7001 203.9 40.7001 205.9 40.7001 207.9C40.7001 209.7 40.7001 211.5 40.7001 213.2C40.7001 214.7 40.7001 216.2 40.7001 217.7C40.7001 218.9 40.7001 220 40.7001 221.2C40.7001 221.9 40.7001 222.7 40.7001 223.4C40.7001 223.9 40.7001 224.3 40.7001 224.8C40.7001 225.3 41.1001 225.5 41.4001 225.7C41.8001 225.9 42.3001 226 42.7001 226C43.1001 226 43.5001 225.9 43.8001 225.8C44.0001 225.7 44.5001 225.5 44.6001 225.1C44.6001 225 44.6001 224.9 44.6001 224.8C44.6001 224.3 44.6001 223.8 44.6001 223.3C44.6001 222.6 44.6001 221.8 44.6001 221.1C44.6001 220 44.6001 218.9 44.6001 217.8C44.6001 216.4 44.6001 214.9 44.6001 213.5C44.6001 211.8 44.6001 210.1 44.6001 208.4C44.6001 206.5 44.6001 204.6 44.6001 202.7C44.6001 200.6 44.6001 198.6 44.6001 196.5C44.6001 194.3 44.6001 192.2 44.6001 190C44.6001 187.8 44.6001 185.6 44.6001 183.4C44.6001 181.2 44.6001 179 44.6001 176.8C44.6001 174.7 44.6001 172.6 44.6001 170.5C44.6001 168.5 44.6001 166.5 44.6001 164.5C44.6001 162.7 44.6001 160.9 44.6001 159.1C44.6001 157.5 44.6001 156 44.6001 154.4C44.6001 153.1 44.6001 151.9 44.6001 150.6C44.6001 149.7 44.6001 148.8 44.6001 147.9C44.6001 147.4 44.6001 146.9 44.6001 146.5C44.6001 146.4 44.6001 146.4 44.6001 146.3C44.7001 144.4 43.8001 142.8 42.7001 142.8Z" fill="#9D8F88"/>
<path d="M185.4 145C184.3 145 183.4 146.6 183.4 148.6C183.4 148.9 183.4 149.1 183.4 149.4C183.4 150.1 183.4 150.9 183.4 151.6C183.4 152.7 183.4 153.9 183.4 155C183.4 156.5 183.4 158 183.4 159.5C183.4 161.3 183.4 163 183.4 164.8C183.4 166.8 183.4 168.8 183.4 170.8C183.4 173 183.4 175.1 183.4 177.3C183.4 179.5 183.4 181.8 183.4 184C183.4 186.3 183.4 188.6 183.4 190.8C183.4 193.1 183.4 195.3 183.4 197.6C183.4 199.8 183.4 201.9 183.4 204.1C183.4 206.1 183.4 208.1 183.4 210.1C183.4 211.9 183.4 213.7 183.4 215.4C183.4 216.9 183.4 218.4 183.4 219.9C183.4 221.1 183.4 222.2 183.4 223.4C183.4 224.1 183.4 224.9 183.4 225.6C183.4 226.1 183.4 226.5 183.4 227C183.4 227.5 183.8 227.7 184.1 227.9C184.5 228.1 185 228.2 185.4 228.2C185.8 228.2 186.2 228.1 186.5 228C186.7 227.9 187.2 227.7 187.3 227.3C187.3 227.2 187.3 227.1 187.3 227C187.3 226.5 187.3 226 187.3 225.5C187.3 224.8 187.3 224 187.3 223.3C187.3 222.2 187.3 221.1 187.3 220C187.3 218.6 187.3 217.1 187.3 215.7C187.3 214 187.3 212.3 187.3 210.6C187.3 208.7 187.3 206.8 187.3 204.9C187.3 202.8 187.3 200.8 187.3 198.7C187.3 196.5 187.3 194.4 187.3 192.2C187.3 190 187.3 187.8 187.3 185.6C187.3 183.4 187.3 181.2 187.3 179C187.3 176.9 187.3 174.8 187.3 172.7C187.3 170.7 187.3 168.7 187.3 166.7C187.3 164.9 187.3 163.1 187.3 161.3C187.3 159.7 187.3 158.2 187.3 156.6C187.3 155.3 187.3 154.1 187.3 152.8C187.3 151.9 187.3 151 187.3 150.1C187.3 149.6 187.3 149.1 187.3 148.7C187.3 148.6 187.3 148.6 187.3 148.5C187.4 146.7 186.5 145 185.4 145Z" fill="#9D8F88"/>
<path d="M31.3 146.7L64.9001 120.7H163.2L196.7 146.7H31.3Z" fill="#EEE7E5"/>
<path d="M196.7 146.7H31.3V149.8H196.7V146.7Z" fill="#9D8F88"/>
<path d="M115.3 101.2C109.7 101.2 105.1 102.4 105.1 103.9C105.1 105.4 109.7 106.6 115.3 106.6C120.9 106.6 125.5 105.4 125.5 103.9C125.5 102.4 121 101.2 115.3 101.2Z" fill="#9D8F88"/>
<path d="M115.3 101.4C118 101.4 120.5 101.7 122.4 102.2C123.3 102.4 124 102.7 124.5 103C124.8 103.2 125.2 103.5 125.2 103.8C125.2 104.1 124.8 104.4 124.5 104.6C124 104.9 123.3 105.2 122.4 105.4C120.5 105.9 118 106.2 115.3 106.2C112.6 106.2 110.1 105.9 108.2 105.4C107.3 105.2 106.6 104.9 106.1 104.6C105.8 104.4 105.4 104.1 105.4 103.8C105.4 103.5 105.8 103.2 106.1 103C106.6 102.7 107.3 102.4 108.2 102.2C110.1 101.7 112.6 101.4 115.3 101.4ZM115.3 101.2C109.7 101.2 105.1 102.4 105.1 103.9C105.1 105.4 109.7 106.6 115.3 106.6C120.9 106.6 125.5 105.4 125.5 103.9C125.5 102.4 121 101.2 115.3 101.2Z" fill="#EEE7E5"/>
<path d="M104.526 91.6944C104.686 91.6524 104.805 91.575 104.791 91.5216C104.777 91.4682 104.635 91.4589 104.475 91.5009C104.315 91.543 104.196 91.6203 104.21 91.6738C104.224 91.7272 104.365 91.7364 104.526 91.6944Z" fill="#443023"/>
<path d="M112.6 118.1L111 118.5L105.2 97.2001L106.7 96.8L112.6 118.1Z" fill="#5A483C"/>
<path d="M111.9 118.4L111.3 118.5L105.6 97.7L106.2 97.5L111.9 118.4Z" fill="#5A483C"/>
<path d="M112.2 119.7C112.3 119.7 112.3 119.7 112.4 119.8L112.7 120.9C112.7 121 112.7 121 112.6 121.1C112.5 121.1 112.5 121.1 112.4 121L112.1 119.9C112.1 119.8 112.1 119.7 112.2 119.7Z" fill="#CABEBB"/>
<path d="M111 118.5L112.2 120.7L112.7 120.5L112.6 118.1L111 118.5Z" fill="#443023"/>
<path d="M105.1 97.9L104.5 95.4C104.5 95.4 104.1 92.2 104.1 91.8C104.1 91.4 104.6 91.4 104.8 91.4C105 91.4 106.4 94.6 106.4 94.8C106.4 94.9 107.2 97.3 107.2 97.3C107.2 97.3 108.4 100.9 108.3 101.1C108.2 101.3 108.2 101.3 108.1 101.4C108 101.4 107.9 101.3 107.8 101.1C107.7 100.9 106.8 97.9 106.8 97.8C106.8 97.7 106.3 98 105.9 98.1C105.5 98 105.1 97.9 105.1 97.9Z" fill="#443023"/>
<path d="M119.9 89.9001C120.066 89.9001 120.2 89.8553 120.2 89.8C120.2 89.7448 120.066 89.7001 119.9 89.7001C119.734 89.7001 119.6 89.7448 119.6 89.8C119.6 89.8553 119.734 89.9001 119.9 89.9001Z" fill="#443023"/>
<path d="M120.6 95.4H119V117.4H120.6V95.4Z" fill="#715F56"/>
<path d="M119.9 96H119.3V117.6H119.9V96Z" fill="#87776F"/>
<path d="M119.8 118.9C119.9 118.9 119.9 119 119.9 119V120.1C119.9 120.2 119.8 120.2 119.8 120.2C119.7 120.2 119.7 120.1 119.7 120.1V119L119.8 118.9Z" fill="#CABEBB"/>
<path d="M119 117.4L119.6 119.8H120.1L120.6 117.4H119Z" fill="#9D8F88"/>
<path d="M118.8 96L118.9 93.5C118.9 93.5 119.3 90.3 119.5 89.9C119.7 89.5 120.1 89.6 120.3 89.7C120.5 89.8 120.9 93.2 120.9 93.4C120.9 93.5 121 96 121 96C121 96 121.2 99.8 121.1 100C121 100.2 120.9 100.2 120.8 100.2C120.7 100.2 120.6 100.1 120.6 99.9C120.6 99.7 120.5 96.5 120.5 96.4C120.5 96.3 120 96.5 119.6 96.4C119.1 96.3 118.8 96 118.8 96Z" fill="#9D8F88"/>
<path d="M126.852 91.9202C126.861 91.8658 126.737 91.7985 126.574 91.7699C126.41 91.7413 126.27 91.7623 126.261 91.8167C126.251 91.8711 126.376 91.9383 126.539 91.9669C126.702 91.9955 126.842 91.9746 126.852 91.9202Z" fill="#443023"/>
<path d="M122.2 119.1L120.7 118.8L124.7 97.2001L126.2 97.4001L122.2 119.1Z" fill="#9D8F88"/>
<path d="M121.5 119.1L120.9 119L124.8 97.8L125.4 97.9001L121.5 119.1Z" fill="#B3A7A1"/>
<path d="M121.2 120.4C121.3 120.4 121.3 120.5 121.3 120.5L121.1 121.6C121.1 121.7 121 121.7 121 121.7C120.9 121.7 120.9 121.6 120.9 121.6L121.1 120.5C121 120.5 121.1 120.4 121.2 120.4Z" fill="#CABEBB"/>
<path d="M120.7 118.8L120.8 121.3L121.3 121.4L122.2 119.1L120.7 118.8Z" fill="#87776F"/>
<path d="M124.3 97.7001L124.8 95.2001C124.8 95.2001 125.8 92.2001 126 91.8001C126.2 91.4001 126.7 91.6001 126.8 91.7001C126.9 91.8001 126.8 95.3001 126.8 95.4001C126.8 95.5001 126.4 98.0001 126.4 98.0001C126.4 98.0001 125.9 101.8 125.7 101.9C125.5 102 125.5 102.1 125.4 102C125.3 101.9 125.2 101.8 125.3 101.6C125.4 101.4 125.8 98.3001 125.8 98.2001C125.8 98.1001 125.3 98.2001 124.9 98.1001C124.6 98.1001 124.3 97.7001 124.3 97.7001Z" fill="#87776F"/>
<path d="M123.853 90.4453C123.867 90.3919 123.748 90.3145 123.588 90.2725C123.428 90.2305 123.287 90.2397 123.273 90.2932C123.259 90.3466 123.377 90.424 123.537 90.466C123.698 90.508 123.839 90.4988 123.853 90.4453Z" fill="#443023"/>
<path d="M115.5 116.8L117 117.2L122.9 96.0001L121.4 95.6001L115.5 116.8Z" fill="#5A483C"/>
<path d="M116.2 117.1L116.8 117.3L122.5 96.5001L121.9 96.3L116.2 117.1Z" fill="#5A483C"/>
<path d="M115.9 118.5C115.8 118.5 115.8 118.5 115.7 118.6L115.4 119.7C115.4 119.8 115.4 119.8 115.5 119.9C115.6 119.9 115.6 119.9 115.7 119.8L116 118.7C116 118.6 116 118.5 115.9 118.5Z" fill="#CABEBB"/>
<path d="M117 117.2L115.9 119.4L115.4 119.3L115.5 116.8L117 117.2Z" fill="#443023"/>
<path d="M123 96.6001L123.6 94.1001C123.6 94.1001 124 90.9001 124 90.5001C124 90.1001 123.5 90.1001 123.3 90.1001C123.1 90.1001 121.7 93.3001 121.7 93.5001C121.7 93.6001 120.9 96.0001 120.9 96.0001C120.9 96.0001 119.7 99.6001 119.8 99.8001C119.9 100 119.9 100 120 100.1C120.1 100.1 120.2 100 120.3 99.8001C120.4 99.6001 121.3 96.6001 121.3 96.5001C121.3 96.4001 121.8 96.7001 122.2 96.8001C122.6 96.8001 123 96.6001 123 96.6001Z" fill="#443023"/>
<path d="M113.565 88.9481C113.566 88.8929 113.433 88.8442 113.268 88.8394C113.102 88.8346 112.967 88.8755 112.965 88.9307C112.963 88.9859 113.096 89.0345 113.262 89.0393C113.428 89.0441 113.563 89.0033 113.565 88.9481Z" fill="#443023"/>
<path d="M111.7 116.5H113.3L114 94.5H112.4L111.7 116.5Z" fill="#715F56"/>
<path d="M112.5 116.6H113.1L113.7 95.1001H113.1L112.5 116.6Z" fill="#87776F"/>
<path d="M112.5 118C112.4 118 112.4 118.1 112.4 118.1V119.2C112.4 119.3 112.5 119.3 112.5 119.3C112.6 119.3 112.6 119.2 112.6 119.2V118.1C112.6 118 112.6 118 112.5 118Z" fill="#CABEBB"/>
<path d="M113.3 116.5L112.7 118.9H112.2L111.7 116.5H113.3Z" fill="#9D8F88"/>
<path d="M114.2 95.1V92.6C114.2 92.6 113.9 89.4 113.7 89C113.6 88.6 113.1 88.7 112.9 88.8C112.7 88.9 112.2 92.3 112.2 92.4C112.2 92.5 112 95 112 95C112 95 111.7 98.8 111.8 99C111.9 99.2 112 99.2 112.1 99.2C112.2 99.2 112.3 99.1 112.3 98.9C112.3 98.7 112.5 95.5 112.5 95.4C112.5 95.3 113 95.5 113.4 95.5C113.9 95.4 114.2 95.1 114.2 95.1Z" fill="#9D8F88"/>
<path d="M107.914 89.8997C108.078 89.8711 108.202 89.8038 108.193 89.7494C108.183 89.695 108.043 89.6741 107.88 89.7027C107.717 89.7313 107.592 89.7986 107.602 89.853C107.611 89.9074 107.751 89.9283 107.914 89.8997Z" fill="#443023"/>
<path d="M112.1 117.1L113.7 116.8L109.7 95.1001L108.1 95.4001L112.1 117.1Z" fill="#9D8F88"/>
<path d="M112.9 117L113.5 116.9L109.6 95.7001L109 95.8L112.9 117Z" fill="#B3A7A1"/>
<path d="M113.2 118.4C113.1 118.4 113.1 118.5 113.1 118.5L113.3 119.6C113.3 119.7 113.4 119.7 113.4 119.7C113.5 119.7 113.5 119.6 113.5 119.6L113.3 118.5C113.3 118.4 113.3 118.4 113.2 118.4Z" fill="#CABEBB"/>
<path d="M113.7 116.8L113.6 119.3L113.1 119.4L112.1 117.1L113.7 116.8Z" fill="#87776F"/>
<path d="M110 95.7001L109.5 93.2001C109.5 93.2001 108.5 90.2001 108.3 89.8001C108.1 89.4001 107.6 89.6001 107.5 89.7001C107.4 89.8001 107.5 93.3001 107.5 93.4001C107.5 93.5001 107.9 96.0001 107.9 96.0001C107.9 96.0001 108.4 99.8001 108.6 99.9001C108.8 100.1 108.8 100.1 108.9 100C109 99.9001 109.1 99.8001 109 99.6001C109 99.4001 108.5 96.3001 108.5 96.2001C108.5 96.1001 109 96.2001 109.4 96.1001C109.8 96.0001 110 95.7001 110 95.7001Z" fill="#87776F"/>
<path d="M115.4 106.5C109.8 106.5 105.2 105.3 105.2 103.8H105.1L106.6 123.1C106.6 123.8 107.4 124.1 108 124.3C108.7 124.5 109.4 124.7 110.2 124.8C111.8 125.1 113.5 125.1 115.2 125.1C117.2 125.1 119.1 125 121.1 124.6C121.6 124.5 122.2 124.4 122.7 124.1C123.1 123.9 123.6 123.7 123.7 123.3V123.2L125.6 104C125 105.4 120.7 106.5 115.4 106.5Z" fill="#9D8F88"/>
<path d="M108.9 124.6C108.3 124.4 107.1 124.3 107.1 123.6L105.7 104.8C105.7 104.8 105.7 104.8 105.8 104.8C105.8 104.8 107.7 105.2 107.9 105.6C108.1 106 108.9 124.6 108.9 124.6Z" fill="#B3A7A1"/>
<path d="M105.1 103.8C105.1 105.3 109.7 106.5 115.3 106.5C120.9 106.5 125.5 105.3 125.5 103.8H125.2C125.2 104.1 124.8 104.4 124.5 104.6C124 104.9 123.3 105.2 122.4 105.4C120.5 105.9 118 106.2 115.3 106.2C112.6 106.2 110.1 105.9 108.2 105.4C107.3 105.2 106.6 104.9 106.1 104.6C105.8 104.4 105.4 104.1 105.4 103.8H105.1Z" fill="#EEE7E5"/>
<path d="M86.7 126.1C84.5 127.1 62.2 131.7 62.2 131.7C62.2 131.7 73.9999 139.5 76.0999 140.6C78.1999 141.7 101.6 134.8 101.6 134.8L86.7 126.1Z" fill="#CABEBB"/>
<path d="M158.5 125.4C156.3 126.4 134 131 134 131C134 131 145.8 138.8 147.9 139.9C149.9 141.1 173.4 134.1 173.4 134.1L158.5 125.4Z" fill="#B3A7A1"/>
<path d="M95.4 127.8C93.2 128.8 70.9 133.4 70.9 133.4C70.9 133.4 82.7 141.2 84.8 142.3C86.9 143.4 110.3 136.5 110.3 136.5L95.4 127.8Z" fill="#B3A7A1"/>
<path d="M135.6 126C137.9 126.7 160.6 128.8 160.6 128.8C160.6 128.8 149.8 137.8 147.9 139.3C146 140.7 121.9 136.5 121.9 136.5L135.6 126Z" fill="#CABEBB"/>
<path d="M164.981 35.615C164.981 39.3868 164.981 43.2406 164.981 47.0125C164.981 47.6685 165.144 47.9964 165.798 48.1604C167.106 48.4884 168.414 48.9804 169.722 49.3904C170.784 49.7184 171.765 50.3743 172.011 51.6043C172.092 52.0143 172.338 52.0143 172.583 52.0963C174.054 52.5062 174.79 53.4082 174.79 54.8841C174.79 55.4581 174.79 56.0321 174.79 56.5241C174.79 57.59 174.463 57.918 173.4 57.918C170.376 57.918 167.351 57.918 164.245 57.918C160.975 57.918 157.705 57.918 154.436 57.918C152.964 57.918 152.719 57.672 152.719 56.1961C152.719 55.7041 152.719 55.2941 152.719 54.8021C152.801 53.3262 153.537 52.3422 154.926 52.0143C155.253 51.9323 155.58 51.9323 155.58 51.4403C155.744 50.2103 156.643 49.6364 157.705 49.3084C159.259 48.8164 160.73 48.3244 162.283 47.9144C162.774 47.7504 162.937 47.5865 162.937 47.1765C162.937 39.3868 162.937 31.5971 162.937 23.7255C162.937 23.2335 162.774 22.9875 162.365 22.8235C161.547 22.4955 160.893 21.8396 160.567 21.0196C160.403 20.6096 160.158 20.5276 159.749 20.5276C155.417 20.5276 151.084 20.5276 146.67 20.5276C145.934 20.5276 145.934 20.7736 146.18 21.3476C148.305 26.4314 150.43 31.5152 152.474 36.5989C152.637 37.0089 152.883 37.1729 153.373 37.1729C154.599 37.2549 154.763 37.5009 154.763 38.7308C154.599 43.3226 151.248 47.3405 146.67 48.4064C142.256 49.4724 137.515 47.3405 135.308 43.3226C134.49 41.8467 134 40.2888 134 38.6488C133.918 37.5009 134.245 37.2549 135.308 37.1729C135.798 37.1729 136.043 36.9269 136.207 36.5169C138.332 31.2692 140.539 26.1034 142.665 20.9376C142.91 20.3636 142.746 20.1176 142.338 19.7897C141.602 19.2977 141.275 18.4777 141.193 17.4938C141.193 16.9198 141.438 16.4278 142.092 16.4278C142.665 16.3458 143.155 16.6738 143.155 17.3298C143.237 18.3957 143.972 18.6417 144.872 18.6417C149.776 18.6417 154.599 18.6417 159.504 18.6417C160.076 18.6417 160.485 18.4777 160.73 17.9037C161.057 17.1658 161.629 16.5918 162.365 16.2638C162.855 16.0178 163.019 15.6898 163.019 15.1979C163.019 14.6239 163.019 14.0499 163.019 13.5579C163.019 12.82 163.019 12 164.081 12C165.062 12 165.062 12.82 164.981 13.5579C164.981 13.7219 164.981 13.9679 164.981 14.1319C164.817 15.1979 164.981 16.1818 166.207 16.5918C166.697 16.7558 167.024 17.2478 167.188 17.7398C167.515 18.5597 167.923 18.6417 168.577 18.6417C173.319 18.6417 178.06 18.6417 182.801 18.6417C183.864 18.6417 184.681 18.4777 184.763 17.1658C184.844 16.6738 185.253 16.3458 185.744 16.4278C186.316 16.5098 186.643 16.8378 186.643 17.4118C186.725 18.3957 186.316 19.2977 185.498 19.8717C185.008 20.2816 185.008 20.5276 185.171 21.1016C187.297 26.2674 189.504 31.4332 191.629 36.5989C191.793 37.0089 192.038 37.2549 192.528 37.2549C193.673 37.3369 194 37.5829 193.836 38.8128C193.509 42.8307 191.629 45.8645 188.032 47.5865C184.354 49.3904 180.675 49.0624 177.324 46.6025C174.626 44.6346 173.237 42.0107 173.073 38.6488C172.992 37.5009 173.237 37.2549 174.381 37.1729C174.872 37.1729 175.117 36.9269 175.28 36.5169C177.406 31.4332 179.449 26.3494 181.575 21.2656C181.82 20.7736 181.738 20.5276 181.084 20.5276C176.752 20.5276 172.419 20.5276 168.005 20.5276C167.596 20.5276 167.27 20.6096 167.106 21.1016C166.779 21.9216 166.207 22.4955 165.471 22.8235C164.899 23.0695 164.817 23.4795 164.817 24.0535C164.981 27.9893 164.981 31.7611 164.981 35.615ZM183.618 22.2496C181.575 27.1693 179.613 31.9251 177.651 36.5989C177.324 37.3369 177.814 37.3369 178.305 37.3369C181.82 37.3369 185.335 37.3369 188.932 37.3369C189.831 37.3369 189.831 37.0909 189.504 36.3529C188.359 33.7291 187.297 31.1052 186.234 28.4813C185.335 26.5134 184.517 24.4635 183.618 22.2496ZM144.545 22.4955C144.299 22.5775 144.218 22.7415 144.136 22.9055C142.256 27.4973 140.376 32.0071 138.496 36.5989C138.169 37.4189 138.659 37.3369 139.15 37.3369C142.665 37.3369 146.18 37.3369 149.613 37.3369C150.43 37.3369 150.675 37.1729 150.267 36.3529C149.041 33.4011 147.814 30.4492 146.588 27.4973C145.853 25.7754 145.199 24.1355 144.545 22.4955ZM183.618 39.3048C181.166 39.3048 178.632 39.3048 176.18 39.3048C175.362 39.3048 175.28 39.6328 175.444 40.2888C176.343 44.0606 179.776 46.6845 183.7 46.6845C187.46 46.6845 190.975 43.8966 191.793 40.2068C191.956 39.4688 191.793 39.3048 191.057 39.3048C188.605 39.3048 186.071 39.3048 183.618 39.3048ZM144.381 39.3048C141.847 39.3048 139.313 39.3048 136.861 39.3048C136.207 39.3048 136.125 39.5508 136.207 40.1248C136.943 43.8966 140.458 46.6845 144.463 46.6845C148.305 46.6845 151.82 43.8966 152.637 40.1248C152.801 39.3868 152.556 39.2228 151.902 39.2228C149.368 39.3048 146.834 39.3048 144.381 39.3048ZM163.836 56.0321C166.534 56.0321 169.15 55.9501 171.847 56.0321C172.828 56.0321 172.91 55.6221 172.828 54.8841C172.746 54.0642 172.174 54.1462 171.602 54.1462C166.452 54.1462 161.302 54.1462 156.152 54.1462C155.989 54.1462 155.825 54.1462 155.662 54.1462C154.926 54.2282 154.926 54.8021 154.926 55.3761C154.926 56.0321 155.253 56.0321 155.744 56.0321C158.441 55.9501 161.139 56.0321 163.836 56.0321ZM169.967 51.6863C168.169 51.1123 166.534 50.2923 164.654 50.0463C162.447 49.8004 160.485 50.7843 158.441 51.4403C158.196 51.5223 157.869 51.5223 157.951 51.8503C158.032 52.2603 158.359 52.0963 158.605 52.0963C162.201 52.0963 165.798 52.0963 169.395 52.0963C169.477 52.0963 169.722 52.1783 169.967 51.6863ZM165.635 19.6257C165.635 18.7237 164.899 17.9037 164 17.9037C163.101 17.9037 162.283 18.6417 162.283 19.5437C162.201 20.4456 163.019 21.1836 163.918 21.2656C164.899 21.2656 165.635 20.6096 165.635 19.6257Z" fill="#EA8003"/>
</svg>
