<svg width="396" height="260" viewBox="0 0 396 260" fill="none" xmlns="http://www.w3.org/2000/svg">
<path d="M33.1953 162.32C15.2558 172.036 8.29746 182.968 4.47352 193.262C0.936311 203.144 -0.0553165 213.424 11.5059 220.935C23.8047 228.929 47.9953 232.598 71.7044 235.801C120.644 242.531 174.285 248.303 233.348 243.033C292.666 237.782 357.652 218.056 367.2 196.096C375.176 178.12 345.468 165.216 323.759 152.021C292.19 132.731 261.622 121.059 185.294 126.605C137.411 130.301 64.2349 145.776 33.1953 162.32Z" fill="#EEE7E5"/>
<path d="M128.438 65.7984C128.563 65.6731 128.813 65.4226 128.938 65.2973C131.189 62.7917 136.315 59.1586 135.815 55.7761C135.44 52.6441 133.314 49.3868 132.689 46.1296C131.314 39.6151 131.814 32.2236 137.066 27.463C138.566 26.0849 140.692 25.0827 141.692 23.3288C142.817 21.4496 142.192 20.5726 141.942 18.5682C141.317 14.434 141.817 9.67335 144.568 6.41609C149.569 0.277414 156.071 1.02909 156.071 1.02909C156.071 1.02909 165.449 0.527973 167.199 9.79863C168.95 19.0693 166.949 20.1968 166.949 20.1968C166.949 20.1968 176.577 26.4608 177.577 37.36C178.578 48.2593 175.702 51.8924 173.701 55.275C173.701 55.275 178.078 62.2906 179.703 67.1765C181.454 72.0624 181.829 80.0802 178.453 85.0914C174.577 90.8542 167.199 92.8587 160.572 93.2346C151.07 93.7357 139.691 94.7379 130.939 90.3531C125.687 87.8475 121.436 82.4605 122.061 76.5724C122.686 72.5635 125.562 69.0557 128.438 65.7984Z" fill="#9D8F88"/>
<path d="M134.815 69.9325L148.069 74.192L144.568 66.6753L149.069 74.5678L154.821 76.447V73.0645L154.696 9.17212L155.321 45.8789L159.447 42.6217L160.197 35.3555L160.072 41.9953L167.575 35.8566L155.321 47.1317L156.946 135.328L154.946 135.579L154.821 77.5745L134.815 69.9325Z" fill="#715F56"/>
<path d="M107.07 36.5398C108.32 36.7904 109.57 37.4168 110.946 38.5443C118.073 44.5577 121.324 55.9581 123.699 63.8507C126.45 73.2466 127.576 82.8931 125.45 92.289C123.699 100.182 118.448 107.197 107.945 107.573C93.0654 108.074 87.8139 96.1727 87.1887 86.0251C86.4385 75.8775 87.9389 65.6046 91.44 55.9581C92.9404 51.448 98.317 35.0365 107.07 36.5398Z" fill="#B3A7A1"/>
<path d="M98.442 84.3965L105.194 90.1594L105.694 62.8485L101.193 58.2132L105.694 62.2221L105.944 45.8105L106.069 75.5017L113.321 65.9805L106.194 77.2556L106.694 146.284H104.444L105.194 91.6627L98.442 84.3965Z" fill="#715F56"/>
<path d="M239.733 70.3653C241.484 60.5936 240.859 54.2043 233.106 47.0634C228.355 42.6787 221.853 42.9292 217.227 47.314C216.852 37.1664 208.724 26.0165 197.721 27.0188C188.718 27.8957 184.842 38.4192 183.467 46.1865C176.09 43.1798 171.338 45.8106 170.088 53.5779C157.084 50.3207 145.331 62.3475 148.207 75.3765C149.582 81.6405 154.834 85.5241 161.085 85.9C165.962 86.2758 166.462 85.2736 169.713 82.6427C168.212 89.2825 189.219 90.2847 192.47 84.2713C199.847 87.9044 207.224 93.0409 215.976 90.7859C218.977 90.0342 221.478 88.2803 223.729 86.2758C224.354 85.7747 229.856 80.1371 229.981 80.2624C233.482 81.891 236.858 82.0163 239.858 79.1349C242.609 76.6293 242.859 72.7457 239.733 70.3653Z" fill="#CABEBB"/>
<path d="M180.466 75.7524L163.336 73.3721L179.466 74.6249L166.712 60.8442L183.592 77.7568L184.592 66.4817V78.7591L199.347 93.4167L199.972 53.4527L192.845 44.5579L199.972 52.5757L200.222 40.1731L200.347 80.1371L221.353 62.7233L215.476 67.9851L223.854 72.7457L215.101 68.3609L200.347 81.6405V162.07L198.096 162.32L199.222 95.797L180.466 75.7524Z" fill="#715F56"/>
<path d="M180.398 126.852H185.73V179.615H217.163V95.75L180.398 126.852Z" fill="#715F56"/>
<path d="M354.89 179.615H259.258V18.2169H305.353L354.89 86.3083V179.615Z" fill="#715F56"/>
<path d="M308.907 179.615H209.721V86.3083L261.924 21.7715L308.907 86.3083V179.615Z" fill="#B3A7A1"/>
<path d="M259.258 18.2169L261.813 21.8825L209.721 86.3083H205.389L259.258 18.2169Z" fill="#EA8003"/>
<path d="M259.258 18.2169H305.353L359 91.7511H308.907L259.258 18.2169Z" fill="#FCA306"/>
<path d="M209.721 165.619H183.064V179.615H209.721V165.619Z" fill="#715F56"/>
<path d="M209.76 179.551H309.169V165.555H209.76V179.551Z" fill="#87776F"/>
<path d="M356.779 165.619H309.129V179.615H356.779V165.619Z" fill="#5A483C"/>
<path d="M330.344 98.1937H317.46V119.41H330.344V98.1937Z" fill="#CABEBB"/>
<path d="M329.9 98.7491V118.854H318.015V98.7491H329.9ZM331.01 97.6383H316.904V119.965H331.01V97.6383Z" fill="#5A483C"/>
<path d="M209.721 179.615H199.391V156.177C199.391 150.401 204.056 145.847 209.721 145.847V179.615Z" fill="#5A483C"/>
<path d="M395.151 186.224C394.401 182.089 388.274 178.456 385.148 176.327C382.522 174.573 379.772 173.32 376.646 173.069C376.021 173.069 369.894 172.694 370.269 173.696C366.393 160.917 358.015 162.421 358.015 162.421C358.015 162.421 352.639 142.752 341.886 143.002C331.132 143.128 335.509 168.309 335.509 168.309C325.256 170.564 323.005 186.474 323.005 186.474C323.005 186.474 322.88 188.729 323.88 189.105C324.881 189.481 334.633 193.49 341.26 192.863C347.887 192.237 349.263 190.483 349.263 190.483C349.263 190.483 353.889 192.989 356.39 192.738C358.891 192.362 362.267 190.358 362.267 190.358C362.267 190.358 367.643 194.242 374.645 192.989C381.772 191.736 385.773 188.729 385.773 188.729C386.149 188.479 387.524 189.105 387.899 189.23C389.9 189.731 393.151 189.606 394.651 187.978C395.026 187.602 395.276 186.975 395.151 186.224Z" fill="#87776F"/>
<path d="M342.136 152.649L349.138 189.982" stroke="#443023" stroke-width="0.4023" stroke-miterlimit="10"/>
<path d="M351.513 149.016L346.512 175.826" stroke="#443023" stroke-width="0.4023" stroke-miterlimit="10"/>
<path d="M331.382 170.188L347.762 182.716" stroke="#443023" stroke-width="0.4023" stroke-miterlimit="10"/>
<path d="M363.517 163.924L362.016 190.483" stroke="#443023" stroke-width="0.4023" stroke-miterlimit="10"/>
<path d="M382.522 174.698L378.146 192.237" stroke="#443023" stroke-width="0.4023" stroke-miterlimit="10"/>
<path d="M254.149 57.761H244.708V70.5351H254.149V57.761Z" fill="#9D8F88"/>
<path d="M253.483 58.3164V69.9796H245.152V58.3164H253.483ZM254.593 57.2056H244.042V71.0904H254.593V57.2056Z" fill="#5A483C"/>
<path d="M272.476 57.761H263.035V70.5351H272.476V57.761Z" fill="#9D8F88"/>
<path d="M271.809 58.3164V69.9796H263.479V58.3164H271.809ZM272.92 57.2056H262.368V71.0904H272.92V57.2056Z" fill="#5A483C"/>
<path d="M254.149 73.0898H244.708V85.8639H254.149V73.0898Z" fill="#9D8F88"/>
<path d="M253.483 73.6452V85.3085H245.152V73.6452H253.483ZM254.593 72.5344H244.042V86.4193H254.593V72.5344Z" fill="#5A483C"/>
<path d="M282.594 115.336H235.076V179.631H282.594V115.336Z" fill="#FCA306"/>
<path d="M272.476 73.0898H263.035V85.8639H272.476V73.0898Z" fill="#9D8F88"/>
<path d="M271.809 73.6452V85.3085H263.479V73.6452H271.809ZM272.92 72.5344H262.368V86.4193H272.92V72.5344Z" fill="#5A483C"/>
<path d="M180.398 126.852L209.721 102.082V107.413L185.73 126.852H180.398Z" fill="#5A483C"/>
<path d="M323.902 98.4159V119.299" stroke="#5A483C" stroke-miterlimit="10"/>
<path d="M317.682 103.081H330.566" stroke="#5A483C" stroke-miterlimit="10"/>
<path d="M317.682 114.189H330.344" stroke="#5A483C" stroke-miterlimit="10"/>
<g opacity="0.82">
<path opacity="0.82" d="M260.258 18.328L310.24 91.7511H314.572L264.59 18.328H260.258Z" fill="#EA8003"/>
<path opacity="0.82" d="M276.03 18.328L328.233 91.7511H332.565L280.362 18.328H276.03Z" fill="#EA8003"/>
<path opacity="0.82" d="M291.802 18.328L344.894 91.9733H349.226L296.134 18.328H291.802Z" fill="#EA8003"/>
<path opacity="0.82" d="M284.027 18.328L336.342 91.7511H340.673L288.359 18.328H284.027Z" fill="#EA8003"/>
<path opacity="0.82" d="M267.7 18.1058L319.126 91.7511H323.457L272.031 18.1058H267.7Z" fill="#EA8003"/>
<path opacity="0.82" d="M299.577 18.1058L352.669 91.7511H357.001L303.909 18.1058H299.577Z" fill="#EA8003"/>
</g>
<path d="M295.912 0H281.917V27.4365H295.912V0Z" fill="#715F56"/>
<path d="M281.917 27.4365V0H270.699V18.2169H276.252L281.917 27.4365Z" fill="#5A483C"/>
<path d="M241.503 119.92C242.022 118.322 242.104 116.596 241.316 114.999C239.053 110.448 232.952 114.172 232.658 117.062C232.365 119.951 234.996 125.888 236.81 125.626C237.539 125.53 238.747 124.544 239.818 123.102L241.524 129.78L246.78 127.61L241.503 119.92Z" fill="#EEE7E5"/>
<path d="M233.672 113.619C234.304 113.101 235.306 112.611 235.762 112.474C235.277 111.982 234.887 111.348 234.713 110.677C234.538 110.006 234.584 109.372 234.611 108.694C234.612 108.386 234.657 108.06 234.773 107.781C234.889 107.503 235.097 107.263 235.355 107.08C235.612 106.896 235.897 106.779 236.209 106.727C236.349 106.695 236.486 106.715 236.604 106.692C236.745 106.659 236.761 106.576 236.835 106.443C236.972 106.155 237.264 105.932 237.518 105.802C237.807 105.631 238.153 105.539 238.483 105.531C238.813 105.523 239.161 105.559 239.458 105.719C239.59 105.792 239.723 105.865 239.843 105.969C239.883 106.004 239.901 106.048 239.976 106.043C240.029 106.047 240.095 106.019 240.147 106.023C240.723 105.991 241.293 106.191 241.742 106.595C241.991 106.826 242.265 107.302 242.478 107.881C242.691 108.459 242.793 110.134 242.537 110.88C242.298 111.543 241.812 112.103 241.262 112.509C241.846 112.806 242.366 113.258 242.807 113.768C243.288 114.313 243.691 114.915 244.015 115.576C244.321 116.193 244.601 116.872 244.71 117.57C244.823 118.216 244.715 118.824 244.329 119.317C244.165 119.539 243.947 119.757 243.751 119.966C243.547 120.153 243.342 120.34 243.106 120.514C242.67 120.822 242.091 121.036 241.556 120.795C241.371 120.718 241.145 120.606 240.985 120.467C240.914 120.419 240.874 120.385 240.9 120.323C240.917 120.239 240.977 120.137 241.025 120.066C241.261 119.584 241.33 119.069 241.166 118.547C241.024 118.016 240.59 117.4 240.018 117.38C239.287 117.349 238.744 117.958 238.314 118.468C237.739 117.758 236.972 117.203 236.051 117.147C235.047 117.075 234.088 117.42 233.08 117.4C232.825 117.403 232.561 117.384 232.304 117.259C232.202 117.199 232.079 117.147 232.011 117.047C231.913 116.933 231.947 116.766 231.998 116.642C232.161 115.857 233.061 114.127 233.672 113.619Z" fill="#443023"/>
<path d="M260.079 154.623L250.284 188.395L245.682 213.764H241.052L245.682 154.623H260.079Z" fill="#CABEBB"/>
<path d="M264.494 154.623C263.799 172.178 264.093 181.731 264.227 183.337C264.387 184.943 265.244 195.62 271.158 214.299H266.341C258.5 196.369 255.77 185.692 254.861 183.337C253.951 180.982 251.301 171.402 247.421 154.623H264.494Z" fill="#CABEBB"/>
<path d="M260.293 154.623C257.751 166.237 253.335 184.809 247.073 210.285H240.303C239.794 184.14 241.935 166.906 245.601 154.623H260.293Z" fill="#9D8F88"/>
<path d="M264.521 154.623C263.852 172.178 265.591 189.465 270.97 210.552H263.745C255.877 192.89 250.258 175.683 246.404 154.623H264.521Z" fill="#B3A7A1"/>
<path d="M271.853 217.778L271.586 213.496C270.034 213.951 268.08 213.764 265.752 212.961C263.237 214.754 260.079 215.958 256.252 216.6C255.958 216.654 255.77 216.921 255.824 217.216C255.824 217.243 255.824 217.243 255.824 217.269L256.198 218.554H265.752H271.345L271.853 217.778Z" fill="#443023"/>
<path d="M246.698 217.778L246.431 213.496C244.879 213.951 242.925 213.764 240.597 212.961C238.082 214.754 234.924 215.958 231.097 216.6C230.803 216.654 230.615 216.921 230.669 217.216C230.669 217.243 230.669 217.243 230.669 217.269L231.044 218.554H240.597H246.19L246.698 217.778Z" fill="#443023"/>
<path d="M234.263 151.565L226.173 147.658C222.541 147.749 220.835 147.526 220.972 147.017C221.204 146.249 222.276 146.51 222.509 146.027C222.748 145.521 221.648 144.395 220.577 143.355C219.506 142.316 220.286 142.213 220.772 142.24C222.472 142.773 224.306 143.68 226.273 144.959L236.442 147.113L234.263 151.565Z" fill="#EEE7E5"/>
<path d="M224.35 149.714C222.331 149.017 220.548 148.695 219.009 148.724C216.058 148.79 214.779 148.525 212.94 147.253C211.96 146.55 210.79 144.912 211.29 144.112C211.615 143.576 214.886 144.738 216.055 144.636C217.225 144.534 215.427 142.235 216.1 142.337C216.858 142.125 217.805 142.95 218.959 144.843L223.425 145.806L224.35 149.714Z" fill="#EEE7E5"/>
<path d="M238.216 150.859C234.564 152.087 229.591 150.885 225.703 148.83L226.262 144.515C231.456 145.959 235.711 145.386 238.779 144.495C241.51 145.927 241.09 149.916 238.216 150.859Z" fill="#5A483C"/>
<path d="M238.788 126.248L245.763 124.146C246.527 123.909 254.736 132.313 256.682 138.804C258.474 144.71 265.098 146.822 265.037 156.93C260.212 157.402 248.068 166.011 244.289 161.806C242.451 159.755 241.331 157.249 240.655 154.446C235.999 155.742 229.908 155.901 222.324 154.466C221.67 152.837 221.71 149.785 222.424 145.278C230.877 145.7 236.617 145.006 239.615 143.213C239.605 137.344 239.901 131.297 238.788 126.248Z" fill="#715F56"/>
<path d="M113.589 167.278L129.769 194.609L142.057 217.452H144.72L124.239 167.278H113.589Z" fill="#715F56"/>
<path d="M140.526 217.461C140.321 218.073 140.321 218.685 140.321 218.889C140.321 219.296 140.321 219.908 140.526 220.52C140.936 220.52 145.032 220.52 153.019 220.52C153.429 219.5 153.224 218.889 152.405 218.889C151.791 218.889 151.176 218.685 150.767 218.685L145.032 216.033C144.827 216.033 144.827 216.033 144.827 216.237L144.418 217.053C143.803 217.257 143.189 217.461 142.779 217.461C142.369 217.461 141.96 217.257 141.345 217.053C140.936 217.053 140.731 217.257 140.526 217.461Z" fill="#B3A7A1"/>
<path d="M138.78 213.781L143.9 212.149C141.647 205.419 138.985 198.28 135.708 190.326C132.431 182.371 128.949 174.621 125.263 167.278H110.926C115.022 176.66 119.528 185.227 124.034 192.773C128.54 200.524 133.455 207.458 138.78 213.781Z" fill="#87776F"/>
<path d="M112.36 167.278C110.721 176.864 107.854 189.102 107.649 189.51C107.444 189.714 100.686 191.957 87.3733 196.24L87.9877 198.484C103.758 196.24 112.155 194.405 112.974 193.181C114.203 191.345 120.552 176.456 123.01 167.278H112.36Z" fill="#715F56"/>
<path d="M92.084 194.201L93.108 197.872C104.987 198.892 112.155 198.076 114.818 195.629C117.48 193.181 120.552 183.595 124.034 167.278H110.312C108.059 180.739 107.035 187.674 106.625 188.286C106.42 188.898 101.505 190.734 92.084 194.201Z" fill="#B3A7A1"/>
<path d="M88.1927 194.857C87.5783 194.653 86.9639 194.653 86.7591 194.653C86.3494 194.653 85.735 194.857 85.1206 195.061C85.1206 195.469 85.9398 199.548 87.3735 207.299C88.3975 207.503 89.0119 207.095 89.0119 206.483C89.0119 205.871 89.0119 205.259 89.0119 204.647L90.4456 198.528C90.4456 198.324 90.4456 198.324 90.2408 198.324H89.0119C88.6023 197.712 88.3975 197.305 88.3975 196.897C88.3975 196.489 88.3975 196.081 88.6023 195.469C88.6023 195.265 88.3975 194.857 88.1927 194.857Z" fill="#B3A7A1"/>
<path d="M118.709 137.704C121.167 137.704 122.191 134.644 123.624 133.013C124.648 131.789 126.287 132.197 126.901 130.565C128.13 126.486 124.648 123.427 120.143 123.427C115.637 123.427 112.565 126.078 111.95 129.749C111.336 133.421 114.203 137.704 118.709 137.704Z" fill="#443023"/>
<path d="M118.914 135.052C117.89 133.829 117.275 132.401 117.275 130.769C117.685 126.078 124.239 127.098 125.467 129.546C126.696 131.993 126.492 137.908 124.853 138.316C124.239 138.52 122.805 138.112 121.371 137.296L122.191 143.619H116.866L118.914 135.052Z" fill="#715F56"/>
<path d="M121.167 131.993C120.962 131.993 120.757 131.789 120.552 131.789C119.733 131.789 119.119 132.401 119.119 133.013C119.119 133.217 119.119 133.625 119.323 133.829C118.914 134.441 118.709 134.849 118.709 135.46C117.685 135.46 113.794 131.381 117.685 127.506C121.576 123.631 127.516 129.138 125.877 129.546C124.853 129.546 122.805 130.565 121.167 131.993Z" fill="#443023"/>
<path d="M135.708 161.567L141.852 167.686C143.695 168.502 145.129 169.318 146.358 170.134C146.563 170.542 146.972 170.949 145.743 170.745C144.515 170.542 143.286 170.338 143.081 170.745C142.876 171.153 143.49 171.765 143.081 172.173C142.876 172.581 141.852 171.357 140.214 168.91L133.66 165.035L135.708 161.567ZM105.192 156.06H110.107C106.42 167.89 104.577 174.009 104.167 174.621C103.758 175.844 104.782 177.884 105.192 178.904C103.758 179.516 103.758 177.068 101.915 177.884C100.276 178.7 98.8425 180.128 96.7944 178.904C96.5896 178.7 96.18 178.088 96.9992 177.68C98.6377 176.864 101.095 174.825 101.3 174.213C101.71 173.397 103.143 167.278 105.192 156.06Z" fill="#715F56"/>
<path d="M119.938 142.599L121.781 142.191C124.853 152.797 140.214 159.936 141.033 163.811C141.442 165.239 140.418 166.055 140.828 166.462L138.37 168.298C137.961 167.89 137.142 168.706 135.093 168.094C133.455 167.482 119.938 155.041 119.938 142.599Z" fill="#EA8003"/>
<path d="M123.01 144.026C122.805 157.896 130.792 161.567 129.154 167.074C127.72 171.765 113.384 176.66 110.926 172.173C109.902 170.337 109.492 168.094 109.492 165.646C108.878 167.482 108.264 169.113 108.059 170.337C107.444 172.581 104.987 172.989 104.987 173.805L101.71 172.989C101.915 171.765 100.481 171.153 100.891 168.502C102.529 156.468 107.444 147.698 115.432 142.395V141.171C115.432 140.763 115.841 140.355 116.456 140.355L122.395 140.763C122.805 140.763 123.215 141.171 123.215 141.783L123.01 144.026Z" fill="#FCA306"/>
<path d="M55.2863 196.387C60.0845 197.616 64.1972 198.162 67.6245 198.162C71.0518 198.162 74.342 197.206 77.2209 195.295C72.5598 194.067 68.7212 193.384 65.7052 193.384C62.6892 193.384 59.2619 194.476 55.2863 196.387Z" fill="#715F56"/>
<path d="M71.4629 198.162L71.3258 198.025C70.6404 196.524 59.673 180.826 58.5763 177.96H70.9145C71.7371 180.144 75.4386 193.794 75.9869 196.524C77.632 200.892 81.0593 214.815 81.4706 215.77C81.8819 216.726 79.4142 217.818 78.7288 216.589C77.632 214.542 75.0273 209.082 73.9306 205.806C72.6967 202.53 71.8742 199.663 71.4629 198.162Z" fill="#9D8F88"/>
<path d="M62.4149 201.028C58.1651 202.12 42.3996 204.031 41.3028 204.304C40.2061 204.577 39.2465 202.393 40.6174 201.847C42.8108 201.028 48.8429 199.254 52.4073 198.571C55.2862 198.025 58.028 197.479 59.8102 197.206C59.6731 192.292 58.9877 180.417 59.3989 177.823H68.7212C68.3099 180.28 64.6084 198.162 63.923 199.936C63.7859 200.755 63.1004 201.028 62.4149 201.028Z" fill="#B3A7A1"/>
<path d="M40.7442 201.23C40.181 201.19 39.7527 201.126 39.483 201.173C39.2134 201.221 38.6741 201.315 38.0239 201.567C38.0955 201.971 38.6683 205.198 39.7902 211.517C40.6469 211.645 41.1623 211.416 41.0668 210.878C41.1062 210.316 41.0107 209.779 40.9629 209.51L42.1737 204.584C42.1498 204.449 42.1498 204.449 41.9912 204.339L41.2693 204.188C40.9042 203.697 40.6978 203.317 40.65 203.048C40.6023 202.78 40.6655 202.353 40.7287 201.926C41.0854 201.586 40.9029 201.341 40.7442 201.23Z" fill="#715F56"/>
<path d="M77.9064 216.316C77.6322 216.862 77.4951 217.272 77.4951 217.408C77.4951 217.681 77.4951 218.227 77.6322 218.774C78.0435 218.774 82.0191 218.774 89.5592 218.774C89.8334 217.954 89.6963 217.545 89.0108 217.408C88.3254 217.272 87.777 217.272 87.3657 217.272L81.745 215.224C81.6079 215.224 81.4708 215.224 81.4708 215.361L81.0595 216.043C80.3741 216.316 79.9628 216.453 79.5515 216.453C79.2773 216.453 78.866 216.316 78.1806 216.18C78.1806 216.043 78.0435 216.18 77.9064 216.316Z" fill="#715F56"/>
<path d="M59.2617 178.506C63.7858 177.277 68.0356 177.277 72.0113 178.506C73.3822 184.375 76.8095 186.696 77.3578 195.568C70.6404 198.708 62.2778 193.384 55.2861 196.387C53.2297 192.292 56.1086 182.055 59.2617 178.506Z" fill="#87776F"/>
<path d="M64.4714 158.031C63.5118 156.802 62.8263 155.301 62.9634 153.663C63.2376 149.022 69.818 149.977 71.0518 152.434C72.2856 154.755 72.1485 160.761 70.5034 161.17C69.818 161.307 68.4471 160.897 67.0761 160.078L68.0358 166.357H62.8263L64.4714 158.031Z" fill="#B3A7A1"/>
<path d="M68.9955 149.841C68.31 149.568 67.2133 149.568 66.802 149.568C67.0762 149.022 67.2133 148.339 67.0762 147.657C66.9391 146.974 66.6649 146.428 66.3907 145.882C66.2536 145.609 66.1165 145.336 65.9794 145.2C65.7053 145.063 65.5682 144.927 65.294 144.79C65.0198 144.79 64.7456 144.79 64.4714 144.79C64.3343 144.79 64.1973 144.927 64.0602 144.927C63.9231 144.927 63.9231 144.927 63.786 144.79C63.5118 144.654 63.2376 144.517 62.9634 144.517C62.6892 144.517 62.278 144.517 62.0038 144.654C61.7296 144.79 61.4554 144.927 61.1812 145.2C61.0441 145.336 61.0441 145.473 60.9071 145.609C60.9071 145.609 60.9071 145.746 60.77 145.746H60.6329C60.0845 145.882 59.6732 146.292 59.5361 146.838C59.399 147.111 59.399 147.657 59.399 148.203C59.399 148.749 59.9474 150.25 60.3587 150.796C60.77 151.342 61.4554 151.615 62.0038 151.752C61.5925 152.161 61.3183 152.844 61.1812 153.39C60.9071 154.072 60.77 154.618 60.77 155.301C60.77 155.983 60.77 156.666 60.9071 157.212C61.0441 157.758 61.3183 158.304 61.8667 158.577C62.1409 158.713 62.278 158.85 62.5522 158.85C62.8263 158.986 63.1005 158.986 63.2376 159.123C63.786 159.259 64.3343 159.259 64.6085 158.85C64.7456 158.713 64.8827 158.577 65.0198 158.304V158.167C65.0198 158.031 64.8827 158.031 64.8827 158.031C64.4714 157.758 64.3343 157.348 64.1973 156.802C64.1973 156.256 64.3344 155.574 64.7456 155.437C65.4311 155.164 65.9794 155.437 66.5278 155.71C66.802 154.891 67.2133 154.209 68.0358 153.799C68.8584 153.39 69.818 153.39 70.6406 152.98C70.9147 152.844 71.0518 152.844 71.1889 152.571C71.1889 152.434 71.326 152.434 71.326 152.298C71.326 152.161 71.326 152.025 71.1889 151.888C71.0518 151.206 69.6809 150.114 68.9955 149.841Z" fill="#443023"/>
<path d="M77.7692 172.909L85.5834 171.954C87.0914 171.271 88.5994 170.725 89.8332 170.452C90.2445 170.452 90.7929 170.589 89.9703 171.135C89.1478 171.681 88.1881 172.363 88.3252 172.773C88.4623 173.182 89.2849 173.046 89.422 173.455C89.5591 173.728 88.1881 173.865 85.4463 173.592L79.1401 175.776L77.7692 172.909ZM53.2298 174.411H57.6167C52.8185 183.42 50.3508 188.061 50.2137 188.47C49.8025 189.426 50.7621 190.927 51.1734 191.61C49.8025 192.156 49.9396 190.245 48.2945 190.927C46.7864 191.473 45.5526 192.702 43.7704 191.746C43.4962 191.61 43.3592 191.2 43.9075 190.927C45.4155 190.108 47.4719 188.607 47.7461 188.197C48.0203 187.515 49.8025 182.874 53.2298 174.411Z" fill="#9D8F88"/>
<path d="M65.0197 162.808L68.4469 162.945C69.2695 169.36 73.7935 173.319 83.9383 171.954L85.3092 180.144C75.8499 181.236 67.4873 177.96 65.7051 169.36C65.2938 167.176 65.0197 164.856 65.0197 162.808Z" fill="#5A483C"/>
<path d="M63.3745 161.989L68.4469 162.945C68.4469 170.316 71.3258 175.093 72.6968 180.553H58.9876C58.8505 182.464 58.7134 184.375 58.5763 186.423H48.1573C50.4879 175.912 55.4232 167.722 63.1003 161.989H63.3745Z" fill="#715F56"/>
<path d="M61.0438 170.042C60.6325 174.683 60.9067 178.233 61.7293 180.69H58.8503C59.2616 176.868 59.9471 173.318 61.0438 170.042Z" fill="#715F56"/>
<path d="M181.947 157.677C182.957 156.917 184.471 156.512 185.608 156.031C186.819 155.474 188.132 155.019 189.344 154.538C190.228 154.208 190.783 153.12 191.642 152.765C191.97 152.639 192.525 152.284 192.323 152.841C192.197 153.449 191.995 153.449 192.525 153.601C193.081 153.727 195.58 153.12 196.338 153.398C196.817 153.525 193.762 154.816 190.708 155.576L186.769 158.715C185.279 158.361 183.462 158.234 181.947 157.677Z" fill="#443023"/>
<path d="M168.515 160.943C175.231 160.538 181.366 158.209 188.486 154.057L190.051 157.601C184.421 163.247 179.321 167.475 173.413 166.867C171.923 166.741 169.601 163.804 167.303 163.12L168.515 160.943Z" fill="#9D8F88"/>
<path d="M166.58 176.614L175.257 198.641L181.05 217.33H183.329L174.458 176.638H166.58V176.614Z" fill="#443023"/>
<path d="M164.878 176.614C164.805 184.322 163.447 194.801 163.253 195.239C163.132 195.555 158.161 199.616 148.388 207.542L149.964 209.244C161.507 202.509 167.521 198.716 168.03 197.792C168.806 196.43 171.425 184.054 173.511 176.663H164.902V176.614H164.878Z" fill="#443023"/>
<path d="M148.134 206.955C147.608 207.151 147.226 207.298 147.034 207.47C146.795 207.69 146.484 208.034 146.078 208.45C146.317 208.745 148.445 211.319 152.414 216.175C153.227 215.831 153.49 215.439 153.155 214.924C152.821 214.434 152.582 214.041 152.438 213.747L151.075 208.794C151.075 208.696 150.956 208.647 150.86 208.622L150.119 208.843C149.593 208.598 149.234 208.401 149.043 208.132C148.875 207.935 148.732 207.543 148.588 207.053C148.517 207.028 148.302 206.881 148.134 206.955Z" fill="#9D8F88"/>
<path d="M180.175 216.391C179.983 216.895 179.864 217.261 179.864 217.49C179.864 217.788 179.935 218.224 179.983 218.774C180.366 218.774 183.645 218.774 189.843 218.774C190.107 217.972 189.963 217.536 189.389 217.49C188.814 217.422 188.36 217.376 188.024 217.307L183.453 215.337C183.382 215.268 183.262 215.337 183.19 215.406L182.879 216.093C182.352 216.345 181.97 216.459 181.658 216.459C181.395 216.459 181.012 216.345 180.558 216.162C180.438 216.139 180.246 216.207 180.175 216.391Z" fill="#9D8F88"/>
<path d="M172.363 215.308L183.329 214.15L175.226 176.903H165.425L172.363 215.308Z" fill="#5A483C"/>
<path d="M150.698 204.831L157.857 213.287C165.404 205.097 169.757 199.709 170.991 197.245C172.224 194.781 173.337 187.944 174.377 176.903H163.372C162.84 186.639 162.453 191.712 162.259 192.171C162.09 192.606 158.172 196.834 150.698 204.831Z" fill="#715F56"/>
<path d="M162.809 178.058H176.998C173.817 168.26 172.176 161.5 172.1 157.829C172.1 157.626 171.772 157.272 171.62 157.348C170.535 157.677 169.323 157.55 168.01 157.019C164.627 162.386 163.491 169.07 162.809 178.058Z" fill="#B3A7A1"/>
<path d="M168.096 150.645C166.936 149.801 166.073 148.593 165.776 147.16C165.048 142.86 170.928 142.241 172.6 144.124C174.273 146.007 175.433 151.46 174.057 152.218C173.544 152.528 172.25 152.443 170.793 151.994L172.978 157.502L168.392 158.71L168.096 150.645Z" fill="#443023"/>
<path d="M173.898 140.482C173.673 140.167 173.364 139.938 172.998 139.938C172.913 139.938 172.857 139.938 172.688 140.023H172.604V139.938C172.604 139.852 172.519 139.852 172.519 139.794C172.379 139.651 172.21 139.479 172.069 139.336C171.703 139.107 171.309 139.021 170.859 139.107C170.634 139.107 170.408 139.25 170.24 139.336C170.155 139.422 170.014 139.479 169.93 139.565C169.93 139.565 169.846 139.708 169.789 139.708L169.649 139.622C169.283 139.479 168.804 139.479 168.354 139.537C167.904 139.68 167.453 139.766 167.059 140.224C166.975 140.31 166.919 140.367 166.834 140.453C166.834 140.539 166.75 140.539 166.75 140.596C166.75 140.596 166.75 140.682 166.665 140.682C166.665 140.768 166.665 140.768 166.581 140.768C166.356 140.682 166.13 140.682 165.905 140.768C165.765 140.854 165.68 140.911 165.539 140.997L165.399 141.14C165.314 141.14 165.258 141.14 165.174 141.14C164.864 141.14 164.639 141.14 164.414 141.283C164.188 141.369 163.963 141.598 163.738 141.742C163.654 141.828 163.597 141.971 163.513 142.057C163.513 142.143 163.429 142.143 163.429 142.2L163.344 142.286C163.344 142.286 163.035 142.2 162.978 142.2C162.838 142.2 162.669 142.286 162.528 142.343C162.303 142.486 162.078 142.801 161.909 143.03C161.824 143.174 161.768 143.345 161.768 143.489C161.768 143.574 161.768 143.632 161.684 143.718V143.804C161.684 143.889 161.684 143.889 161.599 143.889C161.374 144.033 161.233 144.205 161.149 144.434C161.064 144.663 161.008 144.892 161.008 145.207V145.293H160.924C160.839 145.293 160.783 145.379 160.783 145.379C160.699 145.465 160.558 145.522 160.473 145.608C160.164 145.923 159.939 146.295 159.939 146.753C159.939 147.211 160.023 147.67 160.304 148.071C160.389 148.156 160.389 148.214 160.445 148.214C160.445 148.214 160.53 148.214 160.445 148.3C160.445 148.386 160.445 148.386 160.445 148.443C160.445 148.586 160.361 148.758 160.445 148.901C160.445 149.13 160.53 149.445 160.586 149.674C160.67 149.76 160.727 149.903 160.811 149.989C160.896 150.075 160.896 150.075 160.952 150.132C160.952 150.132 161.036 150.132 161.036 150.218C161.036 150.218 161.036 150.218 161.121 150.218C161.121 150.218 161.121 150.218 161.121 150.304C161.121 150.39 161.121 150.447 161.121 150.533C161.121 150.619 161.121 150.677 161.121 150.762C161.121 150.906 161.121 151.078 161.121 151.221C161.121 151.536 161.205 151.851 161.43 152.08C161.515 152.166 161.655 152.223 161.74 152.309C161.824 152.309 161.881 152.395 161.881 152.395H161.965C161.965 152.395 161.965 152.481 161.965 152.538C161.965 152.853 162.049 153.168 162.19 153.454C162.331 153.684 162.556 153.913 162.866 153.999C163.4 154.228 163.991 153.999 164.385 153.626C164.47 153.54 164.611 153.397 164.695 153.311C165.061 153.626 165.596 153.454 165.905 153.225C166.356 152.996 166.665 152.538 166.75 152.08C167.116 152.395 167.735 152.08 167.875 151.622C167.875 151.536 167.875 151.393 167.875 151.307C167.875 151.221 167.875 151.163 167.875 151.163C167.875 151.078 167.875 151.02 167.875 150.934C167.875 150.791 167.875 150.619 167.875 150.476C167.875 150.39 167.791 150.333 167.791 150.247C167.791 150.161 167.791 150.104 167.791 150.018C167.65 150.104 167.481 150.104 167.425 150.104C167.284 150.104 167.2 150.018 167.059 149.961C166.834 149.817 166.693 149.588 166.524 149.331C166.215 148.787 166.159 148.099 166.609 147.641C166.834 147.412 167.594 147.269 167.96 147.269C168.326 147.269 168.86 147.899 168.86 147.956C168.86 148.042 168.86 148.042 168.945 148.042C169.029 148.128 169.17 147.956 169.17 147.899C169.255 147.756 169.311 147.67 169.311 147.526C169.395 147.211 169.452 146.896 169.452 146.61C169.452 146.381 169.452 146.152 169.452 145.837C169.452 145.608 169.536 145.379 169.761 145.207C169.902 144.978 170.211 144.892 170.38 144.749C170.605 144.605 170.831 144.434 170.999 144.204C170.999 144.119 171.084 144.119 171.084 144.061C171.084 143.975 171.084 143.918 171.168 143.918C171.253 143.832 171.309 143.918 171.394 144.004C171.703 144.09 172.013 144.319 172.238 144.462C172.463 144.691 172.688 144.835 172.857 145.15C172.998 145.293 173.082 145.608 173.307 145.78C173.392 145.865 173.927 145.78 174.067 145.636C174.208 145.55 174.377 145.321 174.377 145.178C174.377 145.035 174.377 144.949 174.292 144.806C174.292 144.72 174.208 144.663 174.208 144.577C174.208 144.491 174.124 144.491 174.124 144.434C174.039 144.348 173.898 144.29 173.814 144.29C173.898 144.147 173.955 143.975 173.955 143.832C173.955 143.689 174.039 143.46 173.955 143.288C173.955 143.145 173.87 142.973 173.814 142.916C173.73 142.83 173.589 142.773 173.448 142.687C173.589 142.544 173.673 142.314 173.758 142.057C174.067 141.427 174.124 140.968 173.898 140.482Z" fill="#B3A7A1"/>
<path d="M181.013 149.651L186.592 146.588C188.031 144.486 188.839 143.524 189.041 143.853C189.369 144.334 188.839 144.815 189.041 145.145C189.243 145.474 190.405 145.347 191.415 145.145C192.5 144.942 192.222 145.474 192.02 145.701C191.011 146.461 189.723 147.119 188.158 147.752L182.78 152.715L181.013 149.651Z" fill="#443023"/>
<path d="M169.601 154.082C170.611 153.677 171.696 153.525 172.731 153.272C174.372 152.867 175.912 151.854 177.276 150.968C178.033 150.487 184.749 145.853 185.027 146.056L188.486 149.322C183.663 154.841 178.084 159.12 172.454 164.31C172.58 173.982 173.665 182.489 168.793 182.489C166.495 182.489 163.97 182.489 161.244 182.489C160.158 175.146 162.127 167.019 164.905 160.234C165.182 159.475 165.511 158.74 165.864 158.057C166.419 156.766 167.227 155.525 168.389 154.715C168.717 154.411 169.121 154.208 169.601 154.082Z" fill="#CABEBB"/>
</svg>
