<svg width="316" height="248" viewBox="0 0 316 248" fill="none" xmlns="http://www.w3.org/2000/svg">
<path d="M55.4313 166.786C41.6032 175.181 36.1957 184.546 33.1979 193.347C30.4226 201.796 29.5986 210.568 38.4259 216.902C47.8163 223.644 66.3603 226.625 84.5375 229.211C122.058 234.65 163.192 239.244 208.555 234.389C254.115 229.548 304.112 212.329 311.575 193.544C317.806 178.167 295.084 167.344 278.503 156.225C254.392 139.969 231.002 130.203 172.386 135.399C135.613 138.844 79.3556 152.488 55.4313 166.786Z" fill="#EEE7E5"/>
<path d="M130.956 142.635C132.315 135.267 143.182 128.867 149.004 124.989C153.661 121.886 158.707 119.56 164.335 119.172C165.305 119.172 176.366 118.396 175.784 120.335C182.77 97.4532 197.713 100.168 197.713 100.168C197.713 100.168 207.416 65.0693 226.628 65.4572C245.84 65.845 237.883 110.639 237.883 110.639C256.125 114.712 260.2 143.023 260.2 143.023C260.2 143.023 260.394 146.902 258.648 147.871C256.901 148.647 239.436 155.822 227.792 154.658C215.955 153.495 213.432 150.392 213.432 150.392C213.432 150.392 205.281 154.852 200.818 154.27C196.355 153.689 190.339 150.004 190.339 150.004C190.339 150.004 180.83 156.985 168.022 154.852C155.408 152.525 148.034 147.289 148.034 147.289C147.452 146.902 144.929 148.065 144.153 148.259C140.659 149.035 134.838 148.841 132.121 146.126C131.151 145.156 130.762 143.993 130.956 142.635Z" fill="#9D8F88"/>
<path d="M225.658 82.7156L213.044 149.422" stroke="#87776F" stroke-miterlimit="10"/>
<path d="M208.968 76.5104L217.895 124.213" stroke="#87776F" stroke-miterlimit="10"/>
<path d="M244.87 114.13L215.567 136.624" stroke="#87776F" stroke-miterlimit="10"/>
<path d="M187.428 102.883L190.145 150.198" stroke="#87776F" stroke-miterlimit="10"/>
<path d="M153.468 122.08L161.23 153.301" stroke="#87776F" stroke-miterlimit="10"/>
<path d="M230.441 167.295C230.247 155.079 234.128 137.82 245.189 153.14C244.995 147.128 249.071 131.033 257.609 133.166C260.52 133.942 264.207 141.505 264.789 143.056C264.013 131.227 275.851 113.387 289.435 121.144C300.108 127.155 297.585 146.353 297.585 156.824C297.585 152.17 301.855 150.231 305.154 153.14C307.094 154.885 308.453 165.938 307.871 168.265C306.706 175.828 298.944 177.573 291.764 175.052C289.435 186.881 267.894 178.736 264.207 171.949C262.655 176.603 256.057 176.991 253.534 172.919C253.534 177.767 242.861 179.318 238.591 177.961C234.128 176.409 232.77 172.143 230.441 167.295Z" fill="#CABEBB"/>
<path d="M283.333 126.955L274.402 173.224L275.164 173.371L284.096 127.102L283.333 126.955Z" fill="#B3A7A1"/>
<path d="M289.9 139.436L279.432 148.389L279.937 148.979L290.404 140.025L289.9 139.436Z" fill="#B3A7A1"/>
<path d="M277.597 157.794L270.999 146.74L271.581 146.353L278.179 157.406L277.597 157.794Z" fill="#B3A7A1"/>
<path d="M239.274 155.837L238.544 156.102L244.512 172.504L245.242 172.239L239.274 155.837Z" fill="#B3A7A1"/>
<path d="M234.671 161.1L234.458 161.846L241.362 163.817L241.575 163.072L234.671 161.1Z" fill="#B3A7A1"/>
<path d="M245.677 106.699V104.695C245.677 104.695 250.755 104.695 253.25 104.695C253.963 104.695 254.23 104.513 254.23 103.603C254.408 97.7743 254.23 92.037 254.319 86.2086C254.319 83.8408 255.21 81.8373 256.368 79.8338C257.616 77.8303 259.487 76.4643 261.447 75.4625C262.872 74.825 264.476 74.4608 266.08 74.4608C272.139 74.5518 278.019 74.4608 283.988 74.4608C284.879 74.4608 286.661 74.3697 287.998 74.4608C290.047 74.5518 292.185 74.3697 294.235 75.1893C296.284 76.1 298.155 77.2839 299.581 79.1052C301.63 81.7462 302.164 84.7515 302.164 87.9389C302.075 93.7673 302.164 99.6867 302.164 105.515C302.164 106.335 301.808 106.517 301.095 106.517C295.304 106.608 245.677 106.699 245.677 106.699Z" fill="#FCA306"/>
<path d="M278.761 86.7323C278.761 84.4492 277.854 82.4401 276.676 80.5223C275.497 78.5132 273.684 77.2347 271.689 76.2301C270.329 75.5909 268.697 75.3169 267.065 75.3169H266.43C264.798 75.3169 263.166 75.5909 261.806 76.2301C259.811 77.1434 257.998 78.5132 256.728 80.5223C255.55 82.4401 254.733 84.4492 254.643 86.7323C254.643 92.3944 254.824 98.0564 254.643 103.718V104.906H278.852V103.718C278.761 98.0564 278.852 92.3944 278.761 86.7323Z" fill="#9D8F88"/>
<path d="M266.621 75.3358C268.276 75.3358 269.84 75.6104 271.035 76.2512C273.242 77.2583 274.806 78.6315 275.909 80.2793C277.288 82.3849 277.932 84.3074 277.932 86.1384C277.932 88.7017 277.932 91.3566 277.932 93.92C277.932 97.1241 277.932 103.441 277.932 103.441L277.932 104.009H254.643V103.561C254.643 103.561 254.758 97.0326 254.758 93.92C254.758 91.3566 254.758 88.7017 254.758 86.1384C254.758 84.2159 255.402 82.3849 256.781 80.2793C257.885 78.6315 259.448 77.2583 261.655 76.2512C262.85 75.702 264.414 75.3358 266.069 75.3358H266.621ZM266.621 74.4203H265.977C264.322 74.4203 262.575 74.6949 261.195 75.4273C259.172 76.4343 257.241 77.716 255.953 79.8216C254.666 81.8357 253.838 83.8497 253.838 86.23C253.746 91.9975 253.93 97.8565 253.746 103.716V104.906H278.852V103.716C278.852 103.716 278.852 92.089 278.76 86.23C278.76 83.8497 277.84 81.8357 276.645 79.8216C275.357 77.8076 273.426 76.4343 271.403 75.4273C270.024 74.6949 268.276 74.4203 266.621 74.4203Z" fill="#EA8003"/>
<path d="M277.955 93.2495H264.506V104.009H277.955V93.2495Z" fill="#EEE7E5"/>
<path d="M264.506 93.2495L273.688 97.7327L277.955 95.4518V93.2495H264.506Z" fill="#CABEBB"/>
<path d="M284.232 106.699H280.645V204.432H284.232V106.699Z" fill="#B3A7A1"/>
<path d="M280.645 106.699H278.852V204.432H280.645V106.699Z" fill="#EEE7E5"/>
<path d="M101.762 52.6283C103.703 41.963 102.927 34.7881 94.3879 26.8376C89.1483 21.9897 81.9681 22.3775 76.7285 27.0315C76.3404 15.7844 67.4136 3.56777 55.1879 4.53735C45.0968 5.50692 41.0215 17.1418 39.469 25.6741C31.3185 22.3775 26.0789 25.2863 24.7205 33.8185C10.3601 30.1341 -2.64191 43.5143 0.463043 57.864C2.01552 64.845 7.8373 69.1111 14.8234 69.4989C20.2571 69.8867 20.6452 68.7233 24.3324 66.0084C22.7799 73.3772 45.873 74.3468 49.5601 67.7537C57.7106 71.8259 65.8611 77.4494 75.5641 74.9285C78.8631 74.1529 81.58 72.2137 84.1027 70.0807C84.6849 69.4989 90.8948 63.2936 91.0889 63.4876C94.9701 65.2328 98.6572 65.4267 101.956 62.3241C104.867 59.6092 105.255 55.3431 101.762 52.6283Z" fill="#CABEBB"/>
<path d="M36.1701 58.6397L17.1522 55.9249L35.0057 57.2823L20.8393 42.1569L39.6631 60.7727L40.6334 48.3622V61.9362L56.9344 78.0312L57.7107 34.0124L49.7542 24.1228L57.7107 33.0429L57.9047 19.2749L58.0988 63.2936L81.3859 44.096L74.7879 49.9135L84.1028 55.1492L74.3998 50.3013L58.0988 65.0389V153.852L55.576 154.046L56.9344 80.746L36.1701 58.6397Z" fill="#715F56"/>
<path d="M151.141 155.888C151.529 139.794 146.29 116.718 131.153 136.885C131.347 128.934 125.913 107.41 114.464 110.125C110.389 111.094 105.731 121.372 104.761 123.117C105.731 107.41 89.8184 83.5582 71.5768 94.0296C57.2164 102.174 60.5154 127.771 60.5154 141.539C60.3213 135.334 54.6936 132.813 50.4243 136.691C47.9015 139.018 46.155 153.562 46.7372 156.858C48.4837 166.942 58.9629 169.075 68.4718 165.972C71.5768 181.873 100.686 171.014 105.731 161.9C107.866 168.105 116.599 168.493 120.092 163.257C119.898 169.85 134.452 171.983 140.274 169.85C145.902 167.717 147.842 162.288 151.141 155.888Z" fill="#9D8F88"/>
<path d="M90.9828 163.839L91.9531 163.645L79.7274 101.98L78.7571 102.174L90.9828 163.839Z" fill="#443023"/>
<path d="M84.3848 131.261L85.161 130.486L70.9947 118.463L70.4125 119.238L84.3848 131.261Z" fill="#443023"/>
<path d="M87.6838 142.896L96.4165 128.352L95.4462 127.965L86.7135 142.508L87.6838 142.896Z" fill="#443023"/>
<path d="M116.017 155.888L118.151 124.086L116.987 123.892L115.046 155.695L116.017 155.888Z" fill="#443023"/>
<path d="M116.405 146.193L124.361 140.375L123.779 139.406L115.823 145.417L116.405 146.193Z" fill="#443023"/>
<path d="M116.599 134.946L117.375 134.558L112.135 123.892L111.165 124.28L116.599 134.946Z" fill="#443023"/>
<path d="M132.123 162.676L140.274 140.763L139.304 140.375L131.153 162.288L132.123 162.676Z" fill="#443023"/>
<path d="M136.199 151.041L145.514 148.326L145.319 147.356L135.811 150.071L136.199 151.041Z" fill="#443023"/>
<path d="M204.432 113.727L229.745 114.706L230 98.9999L205 97.9999L204.432 113.727Z" fill="#EEE7E5"/>
<path d="M230 98.9999L217.5 105L205 98L230 98.9999Z" fill="#CABEBB"/>
<path d="M229.745 114.706L217.555 107.045L204.432 113.727L229.745 114.706Z" fill="#EEE7E5"/>
<path d="M152.888 94.2146L171.087 157.141L179.665 204.397H188.243L179.665 94.2146H152.888Z" fill="#5A483C"/>
<path d="M144.631 94.2146C145.914 126.924 145.433 144.765 145.112 147.739C144.791 150.712 143.188 170.643 132.205 205.442H141.184C155.775 172.009 160.825 152.159 162.509 147.739C164.192 143.318 169.083 125.477 176.298 94.2146H144.631Z" fill="#5A483C"/>
<path d="M152.488 94.2146C157.218 115.914 165.395 150.471 177.1 197.968H189.687C190.649 149.185 186.64 117.119 179.826 94.2146H152.488Z" fill="#5A483C"/>
<path d="M144.631 94.2146C145.914 126.924 142.627 159.151 132.686 198.45H146.074C160.665 165.5 171.167 133.514 178.302 94.2146H144.631Z" fill="#715F56"/>
<path d="M131.002 211.871L131.483 203.915C134.369 204.799 137.977 204.397 142.306 202.95C146.956 206.245 152.888 208.576 159.943 209.781C160.505 209.862 160.825 210.424 160.745 210.907V210.987L160.024 213.398H142.226H131.884L131.002 211.871Z" fill="#715F56"/>
<path d="M177.741 211.871L178.222 203.915C181.108 204.799 184.716 204.397 189.045 202.95C193.695 206.245 199.628 208.576 206.683 209.781C207.244 209.862 207.564 210.424 207.484 210.907V210.987L206.763 213.398H188.965H178.623L177.741 211.871Z" fill="#715F56"/>
<path d="M159.863 20.6792C157.538 17.9468 156.015 14.6518 156.256 10.9549C156.977 0.26618 171.809 2.59681 174.695 7.98136C177.581 13.3659 177.26 27.0282 173.492 27.9926C171.969 28.3944 168.842 27.43 165.636 25.5012L167.64 39.8065H155.694L159.863 20.6792Z" fill="#5A483C"/>
<path d="M158.981 23.0903C157.458 16.4199 153.209 11.839 153.85 8.86543C154.251 6.85627 155.454 5.65077 157.297 5.16857C158.259 1.23061 161.386 -0.457084 166.677 0.105481C174.614 0.989511 179.505 4.28454 177.42 11.5979C175.496 11.5979 173.171 10.8746 169.964 12.0801C168.922 12.4819 168.201 13.607 167.8 15.6162H166.357C164.914 13.2856 163.551 12.4015 162.188 13.0445C160.825 13.6874 160.504 15.2144 161.226 17.545L160.504 23.0903H158.981Z" fill="#9D8F88"/>
<path d="M176.378 16.5002C176.699 17.1432 177.26 17.7057 177.501 18.429C177.741 19.072 177.902 19.956 177.982 20.5989C178.062 21.5633 176.859 22.7688 175.817 22.7688" fill="#5A483C"/>
<path d="M175.897 14.8126C175.737 14.4911 175.416 14.25 175.096 14.1696C174.775 14.0893 174.454 14.0893 174.134 14.1696C173.492 14.3304 172.931 14.7322 172.61 15.2948C173.252 15.2144 173.813 15.0537 174.294 14.893C174.534 14.8126 174.775 14.8126 175.015 14.7322C175.256 14.8126 175.577 14.8126 175.897 14.8126Z" fill="#9D8F88"/>
<path d="M175.897 25.0994C175.336 24.9387 174.935 24.6172 174.534 24.2958C174.134 23.9743 173.733 23.5725 173.091 23.251L172.61 23.0099V23.5724C172.61 24.0546 172.771 24.3761 173.011 24.6172C173.172 24.8583 173.412 25.0994 173.653 25.2601C173.893 25.4209 174.134 25.5816 174.374 25.7424C174.615 25.9031 174.935 25.9834 175.176 26.0638C174.775 25.662 174.374 25.2601 174.053 24.7779C173.893 24.5368 173.733 24.3761 173.572 24.135C173.412 23.8939 173.332 23.7332 173.412 23.5724L172.851 23.8939C173.252 24.0547 173.733 24.3761 174.214 24.6976C174.454 24.8583 174.775 24.9387 175.015 25.019C175.256 25.1798 175.577 25.1798 175.897 25.0994Z" fill="#9D8F88"/>
<path d="M174.935 17.3039C174.581 17.3039 174.294 17.0161 174.294 16.661C174.294 16.3059 174.581 16.0181 174.935 16.0181C175.289 16.0181 175.577 16.3059 175.577 16.661C175.577 17.0161 175.289 17.3039 174.935 17.3039Z" fill="#9D8F88"/>
<path d="M193.775 86.0977L208.446 94.7772C212.134 100.564 214.299 103.055 214.94 102.332C215.902 101.126 214.379 99.7599 214.86 98.8759C215.341 97.9919 218.307 98.4741 221.113 99.117C223.919 99.7599 223.278 98.3937 222.636 97.6704C219.991 95.5809 216.624 93.6521 212.535 91.884L198.425 78.1414L193.775 86.0977ZM120.82 106.671C120.099 108.118 114.808 112.538 111.2 115.03C109.757 116.074 110.318 117.36 110.879 117.682C115.369 120.494 118.335 117.199 122.264 115.351C126.513 113.342 126.192 118.968 129.559 117.441C128.517 115.11 126.112 110.77 127.234 107.877C127.715 106.591 132.124 92.527 140.462 65.5239L129.559 65.4435C124.749 91 121.783 104.662 120.82 106.671Z" fill="#5A483C"/>
<path d="M162.749 34.5828L167.079 33.8595C173.893 57.889 208.687 74.2034 210.771 83.2045C211.573 86.4995 209.168 88.1872 210.45 89.1516L204.839 93.2503C203.877 92.1251 201.872 94.1343 197.623 92.7681C193.454 91.3215 162.749 63.0325 162.749 34.5828Z" fill="#EA8003"/>
<path d="M170.045 37.717C169.564 69.5421 187.843 77.5788 183.834 90.357C180.467 100.885 148.159 112.217 142.627 101.849C140.382 97.6704 139.34 92.6073 139.26 87.1424C137.817 91.4018 136.694 95.0183 135.892 98.0722C134.449 103.296 128.918 104.18 128.918 106.189L121.622 104.18C122.103 101.448 118.656 100.081 119.618 93.9735C123.787 66.4078 134.93 46.477 153.049 34.1005L153.209 31.4484C153.289 30.3233 154.251 29.5196 155.294 29.6L168.682 30.5644C169.804 30.6448 170.606 31.6092 170.526 32.6539L170.045 37.717Z" fill="#FCA306"/>
</svg>
