<svg width="403" height="285" viewBox="0 0 403 285" fill="none" xmlns="http://www.w3.org/2000/svg">
<path d="M32.5687 198.551C14.6587 206.655 7.78903 215.915 4.06005 224.664C0.614586 233.065 -0.270329 241.833 11.4204 248.371C23.8571 255.331 48.1889 258.724 72.0321 261.715C121.25 267.99 175.178 273.498 234.432 269.635C293.943 265.79 358.989 249.646 368.34 230.996C376.156 215.732 346.183 204.392 324.242 192.89C292.332 176.076 261.509 165.779 184.92 169.692C136.877 172.332 63.5602 184.758 32.5687 198.551Z" fill="#EEE7E5"/>
<path d="M106.266 130.144C105.063 130.144 104.086 131.948 104.086 134.203C104.086 134.504 104.086 134.804 104.086 135.105C104.086 135.932 104.086 136.759 104.086 137.586C104.086 138.863 104.086 140.141 104.086 141.419C104.086 143.073 104.086 144.726 104.086 146.455C104.086 148.409 104.086 150.439 104.086 152.393C104.086 154.648 104.086 156.903 104.086 159.083C104.086 161.488 104.086 163.893 104.086 166.298C104.086 168.854 104.086 171.334 104.086 173.89C104.086 176.445 104.086 179.001 104.086 181.557C104.086 184.112 104.086 186.593 104.086 189.148C104.086 191.553 104.086 193.959 104.086 196.439C104.086 198.694 104.086 200.949 104.086 203.204C104.086 205.233 104.086 207.188 104.086 209.217C104.086 210.871 104.086 212.599 104.086 214.253C104.086 215.531 104.086 216.809 104.086 218.162C104.086 218.988 104.086 219.815 104.086 220.642C104.086 221.168 104.086 221.694 104.086 222.221C104.161 222.822 104.537 223.047 104.838 223.198C105.289 223.423 105.74 223.498 106.266 223.498C106.642 223.498 107.093 223.423 107.468 223.273C107.694 223.198 108.22 222.972 108.37 222.521C108.37 222.446 108.37 222.371 108.446 222.221C108.521 221.694 108.446 221.093 108.446 220.567C108.446 219.74 108.446 218.913 108.446 218.162C108.446 216.884 108.446 215.681 108.446 214.403C108.446 212.825 108.446 211.171 108.446 209.593C108.446 207.714 108.446 205.76 108.446 203.88C108.446 201.701 108.446 199.596 108.446 197.416C108.446 195.086 108.446 192.756 108.446 190.501C108.446 188.096 108.446 185.616 108.446 183.21C108.446 180.73 108.446 178.249 108.446 175.769C108.446 173.289 108.446 170.883 108.446 168.403C108.446 165.998 108.446 163.668 108.446 161.262C108.446 159.007 108.446 156.828 108.446 154.573C108.446 152.543 108.446 150.514 108.446 148.56C108.446 146.831 108.446 145.102 108.446 143.298C108.446 141.87 108.446 140.517 108.446 139.089C108.446 138.112 108.446 137.059 108.446 136.082C108.446 135.556 108.446 135.03 108.446 134.429C108.446 134.353 108.446 134.278 108.446 134.203C108.446 131.948 107.468 130.144 106.266 130.144Z" fill="#443023"/>
<path d="M175.793 116.69C174.59 116.69 173.613 118.494 173.613 120.749C173.613 121.049 173.613 121.35 173.613 121.651C173.613 122.478 173.613 123.304 173.613 124.131C173.613 125.409 173.613 126.687 173.613 127.965C173.613 129.618 173.613 131.272 173.613 133.001C173.613 134.955 173.613 136.984 173.613 138.939C173.613 141.193 173.613 143.448 173.613 145.628C173.613 148.033 173.613 150.439 173.613 152.844C173.613 155.4 173.613 157.88 173.613 160.436C173.613 162.991 173.613 165.547 173.613 168.102C173.613 170.658 173.613 173.138 173.613 175.694C173.613 178.099 173.613 180.504 173.613 182.985C173.613 185.24 173.613 187.495 173.613 189.75C173.613 191.779 173.613 193.733 173.613 195.763C173.613 197.416 173.613 199.145 173.613 200.799C173.613 202.077 173.613 203.354 173.613 204.707C173.613 205.534 173.613 206.361 173.613 207.188C173.613 207.714 173.613 208.24 173.613 208.766C173.688 209.367 174.064 209.593 174.365 209.743C174.816 209.969 175.267 210.044 175.793 210.044C176.169 210.044 176.619 209.969 176.995 209.818C177.221 209.743 177.747 209.518 177.897 209.067C177.897 208.992 177.897 208.916 177.972 208.766C178.048 208.24 177.972 207.639 177.972 207.113C177.972 206.286 177.972 205.459 177.972 204.707C177.972 203.429 177.972 202.227 177.972 200.949C177.972 199.371 177.972 197.717 177.972 196.139C177.972 194.259 177.972 192.305 177.972 190.426C177.972 188.246 177.972 186.142 177.972 183.962C177.972 181.632 177.972 179.302 177.972 177.047C177.972 174.642 177.972 172.161 177.972 169.756C177.972 167.275 177.972 164.795 177.972 162.315C177.972 159.834 177.972 157.429 177.972 154.949C177.972 152.543 177.972 150.213 177.972 147.808C177.972 145.553 177.972 143.373 177.972 141.118C177.972 139.089 177.972 137.059 177.972 135.105C177.972 133.376 177.972 131.648 177.972 129.844C177.972 128.416 177.972 127.063 177.972 125.634C177.972 124.657 177.972 123.605 177.972 122.628C177.972 122.102 177.972 121.576 177.972 120.974C177.972 120.899 177.972 120.824 177.972 120.749C177.972 118.494 176.995 116.69 175.793 116.69Z" fill="#443023"/>
<path d="M244.493 129.618C243.29 129.618 242.313 131.422 242.313 133.677C242.313 133.978 242.313 134.278 242.313 134.579C242.313 135.406 242.313 136.233 242.313 137.059C242.313 138.337 242.313 139.615 242.313 140.893C242.313 142.546 242.313 144.2 242.313 145.854C242.313 147.808 242.313 149.837 242.313 151.792C242.313 154.047 242.313 156.226 242.313 158.481C242.313 160.886 242.313 163.292 242.313 165.697C242.313 168.177 242.313 170.733 242.313 173.213C242.313 175.769 242.313 178.325 242.313 180.88C242.313 183.361 242.313 185.916 242.313 188.397C242.313 190.802 242.313 193.207 242.313 195.612C242.313 197.867 242.313 200.047 242.313 202.302C242.313 204.256 242.313 206.286 242.313 208.24C242.313 209.894 242.313 211.622 242.313 213.276C242.313 214.554 242.313 215.832 242.313 217.109C242.313 217.936 242.313 218.763 242.313 219.59C242.313 220.116 242.313 220.642 242.313 221.168C242.388 221.77 242.764 221.995 243.065 222.145C243.516 222.371 243.967 222.446 244.493 222.446C244.869 222.446 245.32 222.371 245.696 222.221C245.921 222.145 246.447 221.92 246.597 221.469C246.597 221.394 246.597 221.319 246.673 221.168C246.748 220.642 246.673 220.116 246.673 219.515C246.673 218.688 246.673 217.861 246.673 217.109C246.673 215.907 246.673 214.629 246.673 213.426C246.673 211.848 246.673 210.194 246.673 208.616C246.673 206.737 246.673 204.782 246.673 202.903C246.673 200.799 246.673 198.619 246.673 196.514C246.673 194.184 246.673 191.929 246.673 189.599C246.673 187.194 246.673 184.789 246.673 182.383C246.673 179.903 246.673 177.423 246.673 175.017C246.673 172.537 246.673 170.132 246.673 167.651C246.673 165.321 246.673 162.916 246.673 160.586C246.673 158.406 246.673 156.151 246.673 153.971C246.673 151.942 246.673 149.988 246.673 147.958C246.673 146.229 246.673 144.501 246.673 142.772C246.673 141.344 246.673 139.991 246.673 138.563C246.673 137.586 246.673 136.533 246.673 135.556C246.673 135.03 246.673 134.504 246.673 133.978C246.673 133.903 246.673 133.827 246.673 133.752C246.673 131.422 245.696 129.618 244.493 129.618Z" fill="#443023"/>
<path d="M254.264 124.432C254.264 133.677 218.937 141.194 175.417 141.194C131.897 141.194 96.5696 133.677 96.5696 124.432V126.461C96.5696 135.707 131.746 143.223 175.342 143.223C218.862 143.223 253.062 136.082 254.415 126.987L254.264 124.432Z" fill="#5A483C"/>
<path d="M175.266 141.344C218.813 141.344 254.114 133.839 254.114 124.582C254.114 115.325 218.813 107.821 175.266 107.821C131.72 107.821 96.4191 115.325 96.4191 124.582C96.4191 133.839 131.72 141.344 175.266 141.344Z" fill="#87776F"/>
<path d="M243.516 50.8462C243.516 59.6404 237.954 67.3823 229.385 72.1928C227.431 73.3203 228.708 80.0099 228.333 81.1374C227.957 82.2649 220.741 75.7256 219.538 76.0262C216.231 76.853 212.623 77.304 208.94 77.304C189.848 77.304 174.365 65.428 174.365 50.771C174.365 36.114 189.848 24.238 208.94 24.238C228.032 24.238 243.516 36.1892 243.516 50.8462Z" fill="white"/>
<path d="M266.666 171.635H231.264L226.604 228.535H279.294L266.666 171.635Z" fill="#CABEBB"/>
<path d="M266.666 171.635H255.768L249.228 228.535H279.294L266.666 171.635Z" fill="#B3A7A1"/>
<path d="M193.531 225.904C199.469 212.75 203.753 201.325 205.482 195.312C208.414 185.014 210.669 175.919 211.27 172.537C212.623 164.419 200.897 163.968 199.319 168.027C196.989 174.116 192.855 194.109 187.969 224.325L193.531 225.904ZM262.306 184.714C256.895 182.534 237.803 175.844 228.633 173.965C226.002 173.439 223.447 172.913 221.041 172.462C213.901 171.109 210.218 183.962 217.058 185.014C234.195 187.495 258.548 190.05 260.578 190.351C263.509 190.652 265.689 186.067 262.306 184.714Z" fill="#715F56"/>
<path d="M216.607 168.854L245.996 153.896V150.664H242.463C213.976 157.955 199.469 162.54 198.793 164.645V164.72C198.793 164.72 198.793 164.795 198.718 164.795C193.08 172.537 189.698 210.42 188.571 213.276L199.394 214.855C203.528 199.521 216.757 188.848 216.381 170.508C216.607 169.906 216.682 169.38 216.607 168.854Z" fill="#9D8F88"/>
<path d="M243.591 177.799C246.297 177.272 248.777 176.746 250.882 176.37C264.561 173.965 268.545 166.599 266.215 150.664H240.96C236.826 151.867 215.404 160.811 204.28 165.622C196.914 168.779 199.244 180.204 203.378 183.135C203.378 183.286 203.453 183.436 203.603 183.511C226.002 192.831 243.741 187.946 249.679 189.449L252.385 180.805L243.591 177.799Z" fill="#B3A7A1"/>
<path d="M260.419 183.399C261.897 183.515 262.937 183.76 263.573 184.036C264.342 184.413 265.344 185.095 266.713 186.016C266.301 186.886 262.493 194.681 255.254 209.502C252.972 209.109 252.039 208.226 252.523 206.819C253.008 205.412 253.389 204.306 253.667 203.334L254.134 190.061C254.171 189.792 254.34 189.626 254.576 189.594L256.626 189.682C257.777 188.785 258.525 187.919 258.903 187.149C259.178 186.513 259.389 185.574 259.402 184.23C259.407 183.725 259.882 183.327 260.419 183.399C260.386 183.332 260.386 183.332 260.419 183.399Z" fill="#443023"/>
<path d="M196.237 223.499C196.764 224.851 196.989 225.904 196.989 226.58C196.989 227.407 196.839 228.61 196.538 230.263C195.561 230.263 186.842 230.263 170.456 230.263C169.78 228.008 170.155 226.806 171.659 226.655C173.087 226.505 174.365 226.28 175.267 226.204L187.368 220.793C187.593 220.717 187.894 220.793 187.969 221.018L188.721 222.897C190.074 223.498 191.201 223.874 192.028 223.874C192.705 223.874 193.682 223.574 194.884 223.048C195.411 222.747 196.012 222.972 196.237 223.499C196.237 223.499 196.237 223.423 196.237 223.499Z" fill="#443023"/>
<path d="M252.385 94.4416C254.49 91.9611 255.993 88.8794 255.692 85.4218C255.016 75.5002 241.186 77.6799 238.555 82.7159C235.849 87.6768 236.225 100.38 239.682 101.282C241.035 101.657 244.042 100.755 246.973 98.9514L245.094 112.255H256.218L252.385 94.4416Z" fill="#715F56"/>
<path d="M254.865 77.3041H254.79C253.738 77.0035 252.686 76.7028 251.633 76.6277C251.558 76.6277 251.483 76.5525 251.483 76.5525C251.333 76.5525 251.257 76.5525 251.107 76.5525C250.355 76.5525 246.447 76.7028 244.944 76.9283C242.914 77.229 239.156 78.9577 238.555 80.3107C237.953 81.6637 238.329 83.3173 240.885 83.1669C243.44 86.2487 247.123 88.3533 247.574 88.3533C247.574 88.3533 249.228 86.0984 250.806 87.0755C252.61 88.1278 252.31 90.1572 251.333 91.7357C250.806 92.5625 250.055 93.7651 251.333 94.7422C253.362 96.2455 258.623 92.9383 259.525 90.0821C260.878 85.497 259.225 79.3336 254.865 77.3041Z" fill="#443023"/>
<path d="M236.676 90.7584C236.225 91.8107 235.548 92.7127 235.247 93.8402C234.796 95.3435 235.323 95.3434 236.676 95.2683C238.029 95.1931 237.878 94.3663 237.803 92.863C237.728 91.8859 237.653 90.6081 237.277 89.8564C236.976 90.0819 236.751 90.4578 236.676 90.7584Z" fill="#715F56"/>
<path d="M237.653 88.7287C237.728 88.4281 238.029 88.2026 238.329 88.1274C238.63 88.0523 238.931 88.0522 239.231 88.0522C239.833 88.2026 240.359 88.5032 240.659 89.1045C240.058 88.9542 239.607 88.8039 239.156 88.7287C238.931 88.6536 238.705 88.6536 238.48 88.6536C238.179 88.5784 237.878 88.6536 237.653 88.7287Z" fill="#443023"/>
<path d="M237.503 97.8989C238.029 97.7486 238.555 97.5983 239.081 97.4479C239.307 97.3728 239.532 97.2224 239.758 97.0721C239.983 96.9218 240.284 96.7715 240.66 96.6963H240.96V96.9969C241.035 97.5231 240.735 97.8238 240.584 98.0493C240.359 98.2748 240.133 98.4251 239.908 98.6506C239.682 98.8009 239.382 98.9512 239.156 99.0264C238.856 99.1016 238.63 99.2519 238.33 99.2519C238.781 98.9512 239.232 98.5754 239.607 98.1996C239.833 98.0492 239.983 97.8238 240.133 97.6734C240.284 97.5231 240.359 97.2976 240.359 97.2224L240.735 97.4479C240.584 97.4479 240.359 97.5983 240.133 97.6734C239.908 97.8238 239.607 97.9741 239.307 97.9741C239.006 98.0493 238.705 98.0493 238.48 98.0493C238.029 98.0493 237.728 97.9741 237.503 97.8989Z" fill="#443023"/>
<path d="M238.329 90.533C238.62 90.533 238.855 90.2975 238.855 90.0069C238.855 89.7163 238.62 89.4807 238.329 89.4807C238.039 89.4807 237.803 89.7163 237.803 90.0069C237.803 90.2975 238.039 90.533 238.329 90.533Z" fill="#443023"/>
<path d="M217.358 137.962L200.597 130.596C197.665 127.664 194.809 125.409 192.103 123.906C191.276 123.68 189.923 123.53 191.351 125.71C192.855 127.89 194.283 130.22 193.682 130.971C193.08 131.723 191.351 130.896 190.675 132.099C190.224 132.926 193.155 133.903 199.394 135.105L211.946 144.726L217.358 137.962ZM285.156 139.991L275.686 141.87C285.232 159.609 290.343 169.08 291.019 170.132C292.598 172.537 291.094 176.897 290.568 179.227C293.951 179.979 292.598 174.943 296.882 175.995C300.791 176.972 304.098 179.452 307.706 176.07C308.157 175.694 308.457 174.341 306.954 173.74C303.196 172.086 297.559 169.005 296.657 167.802C295.379 166.223 291.545 156.978 285.156 139.991Z" fill="#715F56"/>
<path d="M249.904 104.513L245.921 103.837C237.202 112.255 233.669 132.625 227.806 135.256C222.319 137.811 214.502 135.331 205.257 132.024L202.401 138.337C210.819 147.432 228.708 155.099 235.999 150.739C247.649 143.749 250.28 118.719 249.904 104.513Z" fill="#EA8003"/>
<path d="M267.343 154.798C251.333 154.798 239.532 154.798 231.94 154.798C230.287 154.798 230.662 152.468 230.888 151.266C233.594 137.661 244.117 123.004 244.117 103.611L254.339 102.033C262.758 115.638 265.689 132.399 267.343 154.798Z" fill="#EEE7E5"/>
<path d="M270.875 141.043C278.091 154.047 284.179 163.442 289.065 169.155L296.506 167.727C291.696 138.112 277.866 116.164 254.94 102.108H254.79H250.882C241.712 133.376 239.156 154.197 243.29 164.57H275.16C274.709 156.903 273.055 148.86 270.875 141.043Z" fill="#FCA306"/>
<path d="M102.207 121.425L127.387 134.053L143.171 128.04L116.488 116.99L102.207 121.425Z" fill="#EEE7E5"/>
<path d="M114.383 118.794L116.037 118.193L118.442 119.245L116.864 119.847L114.383 118.794Z" fill="#CABEBB"/>
<path d="M111.302 119.696L113.106 119.095L115.436 120.222L113.707 120.824L111.302 119.696Z" fill="#CABEBB"/>
<path d="M108.22 120.598L110.174 119.997L112.504 121.125L110.625 121.726L108.22 120.598Z" fill="#CABEBB"/>
<path d="M105.138 121.5L107.243 120.824L109.573 122.027L107.468 122.628L105.138 121.5Z" fill="#CABEBB"/>
<path d="M117.39 120.072L119.044 119.471L121.449 120.523L119.871 121.125L117.39 120.072Z" fill="#CABEBB"/>
<path d="M114.308 121.049L116.112 120.373L118.518 121.5L116.714 122.102L114.308 121.049Z" fill="#CABEBB"/>
<path d="M111.302 121.951L113.181 121.275L115.511 122.402L113.632 123.079L111.302 121.951Z" fill="#CABEBB"/>
<path d="M108.22 122.853L110.25 122.177L112.58 123.379L110.475 124.056L108.22 122.853Z" fill="#CABEBB"/>
<path d="M120.397 121.35L122.05 120.749L124.456 121.801L122.802 122.402L120.397 121.35Z" fill="#CABEBB"/>
<path d="M117.315 122.327L119.119 121.726L121.524 122.778L119.72 123.38L117.315 122.327Z" fill="#CABEBB"/>
<path d="M114.308 123.304L116.187 122.628L118.518 123.755L116.638 124.432L114.308 123.304Z" fill="#CABEBB"/>
<path d="M111.227 124.281L113.256 123.605L115.586 124.732L113.557 125.409L111.227 124.281Z" fill="#CABEBB"/>
<path d="M123.403 122.628L125.057 122.027L127.537 123.079L125.809 123.68L123.403 122.628Z" fill="#CABEBB"/>
<path d="M120.322 123.605L122.125 123.004L124.531 124.056L122.727 124.732L120.322 123.605Z" fill="#CABEBB"/>
<path d="M117.315 124.657L119.194 123.981L121.524 125.108L119.645 125.71L117.315 124.657Z" fill="#CABEBB"/>
<path d="M114.308 125.634L116.263 124.958L118.593 126.085L116.563 126.762L114.308 125.634Z" fill="#CABEBB"/>
<path d="M126.41 123.906L128.064 123.304L130.544 124.357L128.815 124.958L126.41 123.906Z" fill="#CABEBB"/>
<path d="M123.403 124.958L125.132 124.356L127.537 125.334L125.733 126.01L123.403 124.958Z" fill="#CABEBB"/>
<path d="M120.322 126.01L122.201 125.333L124.606 126.386L122.652 127.062L120.322 126.01Z" fill="#CABEBB"/>
<path d="M117.315 126.987L119.269 126.311L121.599 127.438L119.645 128.115L117.315 126.987Z" fill="#CABEBB"/>
<path d="M129.417 125.184L131.145 124.582L133.551 125.559L131.822 126.236L129.417 125.184Z" fill="#CABEBB"/>
<path d="M126.41 126.236L128.139 125.635L130.544 126.687L128.74 127.363L126.41 126.236Z" fill="#CABEBB"/>
<path d="M123.403 127.288L125.207 126.687L127.613 127.739L125.733 128.416L123.403 127.288Z" fill="#CABEBB"/>
<path d="M120.322 128.341L122.276 127.739L124.606 128.792L122.652 129.468L120.322 128.341Z" fill="#CABEBB"/>
<path d="M132.423 126.461L134.152 125.86L136.557 126.837L134.828 127.514L132.423 126.461Z" fill="#CABEBB"/>
<path d="M129.417 127.589L131.221 126.912L133.626 127.965L131.747 128.641L129.417 127.589Z" fill="#CABEBB"/>
<path d="M126.41 128.641L128.214 128.04L130.619 129.017L128.74 129.769L126.41 128.641Z" fill="#CABEBB"/>
<path d="M123.404 129.769L125.283 129.092L127.613 130.144L125.734 130.821L123.404 129.769Z" fill="#CABEBB"/>
<path d="M135.43 127.814L137.159 127.138L139.639 128.115L137.76 128.791L135.43 127.814Z" fill="#CABEBB"/>
<path d="M132.423 128.866L134.227 128.265L136.632 129.242L134.753 129.919L132.423 128.866Z" fill="#CABEBB"/>
<path d="M129.417 129.994L131.221 129.393L133.626 130.37L131.747 131.046L129.417 129.994Z" fill="#CABEBB"/>
<path d="M126.41 131.121L128.289 130.52L130.619 131.497L128.74 132.174L126.41 131.121Z" fill="#CABEBB"/>
<path d="M143.172 128.04L143.322 129.317L127.613 135.406L102.357 122.778L102.207 121.425L127.387 134.053L143.172 128.04Z" fill="#B3A7A1"/>
<path d="M153.018 105.265L154.221 114.585C154.221 114.585 145.502 116.389 139.113 111.428L142.946 103.837L153.018 105.265Z" fill="#9D8F88"/>
<path d="M124.906 104.814L124.38 72.7939L174.44 74.1469L172.861 112.556L124.906 104.814Z" fill="#CABEBB"/>
<path d="M126.936 103.461L126.41 75.0488L171.133 76.026L169.78 109.624L126.936 103.461Z" fill="white"/>
<path d="M124.38 72.7939L126.184 72.6436L174.44 73.6207H175.642L174.214 111.954L172.861 112.556L174.44 74.1468L124.38 72.7939Z" fill="#B3A7A1"/>
<path d="M31.4773 168.704H66.5038L71.0888 224.851H19L31.4773 168.704Z" fill="#CABEBB"/>
<path d="M31.4773 168.704H42.2258L48.6899 224.851H19L31.4773 168.704Z" fill="#CABEBB"/>
<path d="M106.341 159.083C110.099 156.828 116.338 159.684 116.338 162.916C116.338 172.537 107.544 217.711 107.093 220.567C106.642 223.423 101.756 224.175 101.456 220.567C101.005 214.855 100.178 195.011 101.005 185.841C101.38 182.083 101.756 178.475 102.132 175.243C97.547 183.511 90.4064 195.387 80.8605 210.871L75.6742 208.466C79.8082 194.936 83.1155 185.465 85.7462 179.903C90.2561 170.357 94.4653 162.24 96.194 159.383C98.9751 154.798 103.786 156.377 106.341 159.083Z" fill="#CABEBB"/>
<path d="M75.9746 200.949L93.8637 158.556C98.1481 151.641 110.174 159.984 108.746 163.968C105.439 173.063 88.527 202.452 87.5499 205.158L75.9746 200.949Z" fill="#443023"/>
<path d="M74.9975 205.759C73.8701 206.661 73.1936 207.413 72.8178 208.014C72.4419 208.691 71.9158 209.818 71.3896 211.322C72.2165 211.773 79.5825 216.057 93.4879 224.1C95.1416 222.521 95.4422 221.318 94.2396 220.417C93.1121 219.515 92.135 218.838 91.3833 218.237L83.7166 207.714C83.5663 207.488 83.2656 207.488 83.1153 207.639L81.5368 208.841C80.1087 208.691 78.9812 208.465 78.3047 208.014C77.7034 207.714 77.027 206.962 76.2753 205.91C76.0498 205.534 75.4485 205.459 74.9975 205.759C74.9975 205.759 75.0727 205.759 74.9975 205.759Z" fill="#5A483C"/>
<path d="M100.328 218.237C99.8017 219.59 99.5762 220.567 99.5762 221.243C99.5762 222.07 99.7265 223.273 99.952 224.851C100.929 224.851 109.423 224.851 125.508 224.851C126.184 222.672 125.809 221.469 124.38 221.319C122.952 221.168 121.75 221.018 120.848 220.868L108.972 215.606C108.746 215.531 108.446 215.606 108.37 215.832L107.619 217.711C106.266 218.312 105.214 218.613 104.387 218.613C103.71 218.613 102.808 218.312 101.606 217.786C101.155 217.56 100.628 217.786 100.328 218.237C100.403 218.237 100.403 218.237 100.328 218.237Z" fill="#5A483C"/>
<path d="M117.616 166.223C117.616 178.249 111.903 206.361 111.903 208.992H99.5763C101.38 183.962 101.982 171.259 101.455 171.034C100.704 170.658 69.2851 174.191 59.8896 174.191C46.2849 174.191 40.7227 165.622 40.2717 149.762H67.1805C72.6675 150.364 101.23 156.076 111.828 158.105C116.338 158.857 117.616 162.841 117.616 166.223Z" fill="#715F56"/>
<path d="M74.2456 84.8954C73.043 81.8888 72.6672 78.5064 73.945 75.3495C77.7784 66.2547 90.0301 72.7188 90.9321 78.2809C91.8341 83.8431 87.5497 95.6439 83.9418 95.4184C82.5137 95.3432 80.0333 93.5393 77.7784 90.9085L75.2979 104.062L64.8501 100.53L74.2456 84.8954Z" fill="#CABEBB"/>
<path d="M81.4617 70.4639C87.3245 70.3888 93.4128 74.8986 91.0827 78.8072C89.5795 81.3628 85.8964 81.6634 82.2885 82.0392C82.063 81.0621 81.3865 80.2353 80.4094 79.9347C78.9061 79.4085 77.3277 80.1601 76.8767 81.6634C76.7264 82.1896 76.7264 82.7157 76.8015 83.2419C75.4486 83.768 74.3211 84.67 73.6446 86.023C71.9159 85.4216 70.9387 79.5588 73.4191 75.1241C73.1936 75.049 72.893 74.9738 72.6675 74.8986C69.0596 73.696 67.1053 69.7875 68.3831 66.1796C69.6609 62.5717 73.4943 60.6174 77.1022 61.8952C80.7101 63.0227 82.5892 66.8561 81.4617 70.4639Z" fill="#9D8F88"/>
<path d="M89.9554 86.3235C89.6547 87.451 90.707 89.2549 90.1057 90.3824C89.7299 91.0588 88.6024 90.9837 87.7756 90.9085" fill="#CABEBB"/>
<path d="M89.88 84.1437C89.7297 83.9182 89.429 83.7679 89.2035 83.6176C88.978 83.4672 88.6774 83.3921 88.3767 83.3921C88.076 83.3921 87.7754 83.3921 87.4747 83.4672C87.1741 83.5424 86.8734 83.8431 86.8734 84.1437C87.0989 83.9182 87.3244 83.9182 87.5499 83.8431C87.7754 83.8431 88.0008 83.8431 88.3015 83.9182C88.8277 83.9934 89.2787 84.0686 89.88 84.1437Z" fill="#5A483C"/>
<path d="M86.5728 93.4642C86.4224 93.0884 86.197 92.8629 85.9715 92.6374C85.746 92.4119 85.5205 92.2616 85.2198 92.0361C85.1447 92.412 85.3702 92.7878 85.5956 93.0133C85.8963 93.2388 86.1969 93.4642 86.5728 93.4642Z" fill="#5A483C"/>
<path d="M89.1653 85.4913C89.272 85.1768 89.1035 84.8354 88.789 84.7288C88.4745 84.6221 88.1331 84.7906 88.0265 85.1051C87.9198 85.4196 88.0883 85.761 88.4028 85.8676C88.7173 85.9743 89.0587 85.8058 89.1653 85.4913Z" fill="#5A483C"/>
<path d="M83.4909 134.805L98.0728 127.664C104.612 127.739 107.769 127.363 107.468 126.461C107.017 125.108 105.138 125.559 104.687 124.657C104.236 123.756 106.191 121.726 108.145 119.772C110.099 117.818 108.671 117.667 107.769 117.742C104.687 118.72 101.38 120.373 97.8473 122.703L79.5072 126.687L83.4909 134.805Z" fill="#CABEBB"/>
<path d="M76.3503 133.602C82.9648 135.782 91.9093 133.527 98.8996 129.769L97.8473 121.952C88.5269 124.658 80.785 123.68 75.2229 122.102C70.262 124.733 71.0888 131.873 76.3503 133.602Z" fill="#EA8003"/>
<path d="M108.671 130.445L116.714 128.641C118.743 125.183 120.472 123.68 121.825 124.056C123.028 123.905 119.796 128.04 121.9 128.19C124.005 128.34 129.868 126.16 130.469 127.138C131.371 128.566 129.341 131.572 127.537 132.85C124.23 135.18 121.9 135.706 116.564 135.631C113.782 135.631 110.55 136.232 106.943 137.51L108.671 130.445Z" fill="#CABEBB"/>
<path d="M80.6349 95.3434L68.0073 91.6604C66.6543 91.2846 51.9221 106.543 48.4645 118.269C45.3076 128.942 33.3565 132.85 33.582 151.115C42.3011 151.942 64.3242 167.351 71.1641 159.684C74.4714 155.926 76.4256 151.416 77.6283 146.38C86.0467 148.635 97.0207 148.86 110.701 146.154C111.828 143.223 111.753 137.661 110.4 129.543C95.1415 130.37 84.7689 129.242 79.2819 126.086C79.2819 115.412 78.6806 104.513 80.6349 95.3434Z" fill="#FCA306"/>
<path d="M79.2818 31.8294C79.2818 36.9405 76.0498 41.4504 71.0889 44.3066C69.9615 44.9831 70.7131 48.8916 70.4876 49.5681C70.2621 50.2446 66.0529 46.4112 65.3765 46.5616C63.4222 47.0125 61.3927 47.3132 59.213 47.3132C48.0887 47.3132 39.069 40.3981 39.069 31.9045C39.069 23.411 48.0887 16.4958 59.213 16.4958C70.3373 16.4958 79.2818 23.3358 79.2818 31.8294Z" fill="white"/>
<path d="M86.197 44.6075C86.197 50.1697 90.1807 55.2057 96.2691 58.2122C97.6972 58.8887 96.72 63.1731 97.0207 63.9247C97.3214 64.6764 102.433 60.4672 103.259 60.6927C105.665 61.2188 108.145 61.5195 110.851 61.5195C124.456 61.5195 135.505 53.9279 135.505 44.6075C135.505 35.2871 124.456 27.6956 110.851 27.6956C97.2462 27.6956 86.197 35.2871 86.197 44.6075Z" fill="white"/>
<path d="M302.009 127.574L286.149 182.218L278.708 223.258H271.191L278.708 127.574H302.009Z" fill="#9D8F88"/>
<path d="M309.15 127.574C308.022 155.986 308.473 171.395 308.699 174.025C308.924 176.581 310.352 193.869 319.898 224.085H312.081C299.378 195.071 294.944 177.784 293.515 174.025C292.087 170.192 287.728 154.708 281.489 127.574H309.15Z" fill="#9D8F88"/>
<path d="M302.384 127.574C298.25 146.365 291.11 176.356 280.963 217.621H269.989C269.162 175.303 272.619 147.493 278.557 127.574H302.384Z" fill="#443023"/>
<path d="M309.225 127.574C308.172 155.986 310.953 183.872 319.672 217.997H308.022C295.319 189.434 286.224 161.623 279.986 127.574H309.225Z" fill="#5A483C"/>
<path d="M321.026 229.722L320.575 222.807C318.094 223.559 314.937 223.258 311.104 221.905C307.045 224.762 301.934 226.791 295.77 227.843C295.319 227.918 295.019 228.369 295.094 228.82V228.896L295.695 231H311.179H320.199L321.026 229.722Z" fill="#443023"/>
<path d="M280.361 229.722L279.91 222.807C277.43 223.559 274.273 223.258 270.44 221.905C266.381 224.762 261.27 226.791 255.106 227.843C254.655 227.918 254.355 228.369 254.43 228.82V228.896L255.031 231H270.515H279.535L280.361 229.722Z" fill="#443023"/>
<path d="M295.92 63.8347C297.95 61.5046 299.228 58.6484 299.002 55.4163C298.326 46.1711 285.473 48.2005 282.917 52.8607C280.437 57.5209 280.737 69.3969 283.969 70.2237C285.247 70.5243 288.028 69.7727 290.809 68.0439L289.08 80.5212H299.453L295.92 63.8347Z" fill="#9D8F88"/>
<path d="M296.672 65.9394C297.95 60.1517 301.708 56.168 301.107 53.6124C300.731 51.8836 299.754 50.8314 298.1 50.3804C297.273 46.9228 294.492 45.4947 289.907 46.0209C282.992 46.7725 278.783 49.6287 280.587 56.0177C282.24 56.0177 284.27 55.4164 287.126 56.4687C288.028 56.7693 288.629 57.8216 289.005 59.5504H290.283C291.486 57.521 292.688 56.7693 293.891 57.2955C295.094 57.8216 295.319 59.1746 294.718 61.204L295.319 66.0145H296.672V65.9394Z" fill="#FCA306"/>
<path d="M281.489 60.1519C281.188 60.7532 280.737 61.2042 280.512 61.8055C280.286 62.3316 280.136 63.0833 280.061 63.6846C279.986 64.5114 281.038 65.5637 281.94 65.5637" fill="#9D8F88"/>
<path d="M282.015 58.7236C282.316 58.7236 282.541 58.7236 282.767 58.7236C282.992 58.7236 283.218 58.7988 283.443 58.874C283.894 58.9491 284.345 59.0995 284.871 59.1746C284.646 58.6485 284.12 58.3478 283.594 58.1975C283.293 58.1223 282.992 58.1223 282.692 58.1975C282.391 58.2727 282.09 58.423 282.015 58.7236Z" fill="#715F56"/>
<path d="M282.015 67.5932C282.24 67.6684 282.541 67.6684 282.767 67.5932C282.992 67.518 283.293 67.4429 283.518 67.2925C283.969 67.067 284.345 66.7664 284.721 66.6161L284.27 66.3154C284.27 66.3906 284.195 66.6161 284.12 66.7664C284.044 66.9919 283.894 67.1422 283.744 67.2925C283.443 67.6684 283.142 68.0442 282.767 68.3448C282.992 68.2697 283.293 68.1945 283.518 68.0442C283.744 67.8939 283.969 67.7435 284.195 67.5932C284.42 67.4429 284.57 67.2174 284.721 66.9919C284.871 66.7664 285.021 66.5409 285.021 66.0899V65.6389L284.57 65.7893C284.044 66.0147 283.669 66.3906 283.293 66.6912C282.842 67.1422 282.466 67.518 282.015 67.5932Z" fill="#715F56"/>
<path d="M282.842 60.8282C282.551 60.8282 282.316 60.5926 282.316 60.302C282.316 60.0115 282.551 59.7759 282.842 59.7759C283.132 59.7759 283.368 60.0115 283.368 60.302C283.368 60.5926 283.132 60.8282 282.842 60.8282Z" fill="#715F56"/>
<path d="M262.322 113.518L250.07 125.469C246.537 126.973 243.606 128.701 241.276 130.505C240.75 131.107 240.224 132.309 242.629 131.783C245.034 131.257 247.59 130.806 248.041 131.558C248.492 132.309 247.139 133.512 247.966 134.564C248.492 135.241 250.371 133.061 253.603 128.025L266.381 120.508L262.322 113.518ZM322.228 102.695H312.757C319.973 126.071 323.806 138.322 324.257 139.45C325.234 141.93 323.13 145.689 322.228 147.718C325.159 149.071 324.859 144.11 328.617 145.914C331.999 147.492 334.63 150.349 338.539 147.943C338.99 147.643 339.516 146.515 338.238 145.613C335.081 143.434 330.496 139.6 329.819 138.322C328.993 136.669 326.512 124.793 322.228 102.695Z" fill="#9D8F88"/>
<path d="M293.365 75.861L289.607 75.1846C283.744 96.0051 253.453 110.211 251.574 118.028C250.897 120.884 252.926 122.313 251.874 123.215L256.76 126.747C257.587 125.77 259.315 127.574 262.999 126.296C266.682 125.094 293.365 100.515 293.365 75.861Z" fill="#B3A7A1"/>
<path d="M287.126 78.6422C287.577 106.228 271.642 113.293 275.175 124.342C278.107 133.512 306.218 143.283 311.029 134.339C312.983 130.731 313.885 126.296 313.96 121.561C315.238 125.244 316.215 128.401 316.891 131.032C318.169 135.617 322.98 136.293 322.98 138.097L329.369 136.368C328.918 133.963 331.924 132.836 331.097 127.499C327.489 103.597 317.793 86.309 302.009 75.5605L301.858 73.2304C301.783 72.2533 300.957 71.5768 299.979 71.6519L288.329 72.4787C287.352 72.5539 286.675 73.3807 286.75 74.3579L287.126 78.6422Z" fill="#CABEBB"/>
<path d="M402.108 48.2247C402.108 63.4513 385.073 75.8702 364.131 75.8702C351.002 75.8702 339.501 71.0106 332.665 63.7753C331.363 62.3714 318.234 61.8315 319.753 60.7516C322.248 58.9157 327.457 55.676 326.914 53.8402C326.372 52.0044 326.155 50.1685 326.155 48.3327C326.155 33.1061 343.19 20.6873 364.131 20.6873C385.073 20.6873 402.108 32.9981 402.108 48.2247Z" fill="#CABEBB"/>
<path d="M259.742 31.7174C259.742 42.1507 253.12 51.4712 243.048 57.3138C240.703 58.7049 242.22 66.6343 241.807 68.0254C241.393 69.4165 232.839 61.4872 231.321 61.9045C227.32 62.8783 223.181 63.4347 218.766 63.4347C196.14 63.4347 177.79 49.2454 177.79 31.7174C177.79 14.1894 196.14 0 218.766 0C241.393 0 259.742 14.1894 259.742 31.7174Z" fill="#CABEBB"/>
<path d="M251.122 35.2813C249.167 34.554 248.167 32.554 246.257 31.8268C245.211 31.4177 244.12 31.3722 243.301 32.3722C243.165 32.554 242.938 32.7813 243.074 33.0086C243.21 33.2359 243.529 33.1904 243.71 33.1904C245.302 33.1449 246.484 33.9177 247.712 35.0086C247.394 35.054 247.257 35.0995 247.166 35.0995C245.848 35.0995 244.574 35.054 243.301 35.0995C242.165 35.1449 241.346 35.0995 241.392 33.554C241.392 33.2359 241.301 32.9177 241.119 32.6904C240.937 32.4631 240.619 32.2813 240.3 32.2359C239.482 32.145 239.073 32.6904 238.754 33.2813C237.845 35.0086 238.391 36.1449 240.482 36.9176C239.027 39.2813 238.391 39.554 233.844 39.6903C237.481 41.3267 240.027 41.1903 241.437 37.2813C241.664 36.5995 242.21 36.6904 242.665 36.6904C245.211 36.6904 247.712 36.6904 250.258 36.6904C250.576 36.6904 251.077 36.8722 251.167 36.3722C251.304 36.054 251.304 35.3267 251.122 35.2813ZM240.3 35.1449C239.846 35.0995 239.482 34.9631 239.436 34.5086C239.391 34.1449 239.618 33.9631 240.027 33.9177C240.255 33.9631 240.437 34.054 240.619 34.2359C240.755 34.4177 240.846 34.6449 240.846 34.8722C240.891 35.1904 240.528 35.1449 240.3 35.1449Z" fill="#87776F"/>
<path d="M232.798 33.7814C233.07 34.1451 233.389 34.6905 232.843 35.0087C232.298 35.2814 231.843 34.9178 231.615 34.4178C231.388 33.9178 231.206 33.3724 231.07 32.8269C230.661 33.0542 230.661 33.236 230.706 33.4633C230.933 34.5542 230.57 35.0542 229.387 35.1905C228.205 35.2814 228.205 34.5542 228.205 33.7814C228.205 33.0542 227.932 32.3724 227.432 31.8269C226.796 32.7814 226.568 33.6905 227.25 34.7814C227.932 35.9178 228.023 37.1905 226.705 38.0541C225.386 38.9632 223.704 39.3268 222.112 39.0541C220.475 38.7814 219.93 37.9178 220.066 36.1905C220.066 35.7814 220.294 35.2814 219.93 34.9633C219.475 35.7814 219.202 36.645 219.202 37.5996C219.111 38.0541 219.157 38.5541 219.293 38.9632C219.475 39.4178 219.748 39.7814 220.112 40.0996C222.522 41.9632 227.205 40.5541 228.114 37.645C228.296 37.0087 228.569 36.8269 229.16 36.8723C230.297 36.9178 231.434 36.3269 232.616 36.8269C232.934 36.9632 233.662 37.0996 233.662 36.3723C233.616 34.9632 234.025 33.4633 233.025 32.1905C232.889 32.2815 232.752 32.3724 232.661 32.5087C232.57 32.6451 232.525 32.7814 232.479 32.9633C232.434 33.1451 232.479 33.2814 232.525 33.4633C232.57 33.5087 232.661 33.6905 232.798 33.7814Z" fill="#87776F"/>
<path d="M209.654 32.8721C209.199 31.6903 208.426 31.7358 207.653 32.463C206.835 33.1903 206.289 33.8721 205.607 34.5539C205.38 34.7812 205.062 34.963 204.743 35.0539C204.425 35.1448 204.061 35.1448 203.743 35.0539C203.015 34.8721 203.334 34.0994 203.288 33.5994C202.97 31.8267 202.561 30.0994 200.651 29.2812C200.424 30.3267 200.424 31.054 201.424 31.5994C202.424 32.1903 202.606 33.2358 202.743 34.2812C202.788 34.6448 202.834 35.0994 202.242 35.0539C200.924 34.963 199.469 35.463 198.059 34.4176C198.059 35.4176 197.65 36.5994 198.878 36.5994C201.378 36.5994 204.016 37.463 206.426 36.0085C206.926 35.6903 207.199 36.0539 207.517 36.1903C208.426 36.5994 209.654 37.1448 210.29 36.5085C211.018 35.7357 210.563 34.463 210.109 33.463C209.881 33.3267 209.745 33.0994 209.654 32.8721ZM207.562 34.0085C207.517 33.7358 207.926 33.2358 208.29 33.3721C209.017 33.5539 209.154 34.2357 209.245 35.1448C208.472 34.7812 207.699 34.7812 207.562 34.0085Z" fill="#87776F"/>
<path d="M196.059 31.0541C195.286 31.9177 195.24 32.6904 195.968 33.5541C196.286 33.9177 196.695 34.8268 196.104 35.0086C195.104 35.2813 194.058 35.2813 193.058 35.0995C192.421 34.9631 192.648 34.054 192.558 33.5086C192.33 31.7813 191.785 30.2814 190.057 29.4177C189.557 30.4632 189.738 31.145 190.739 31.7359C191.739 32.3268 191.876 33.4177 192.012 34.4631C192.057 34.7813 192.012 35.1904 191.603 35.1449C190.239 35.0995 188.784 35.5995 187.465 34.5995C187.056 35.8268 187.101 36.7813 188.647 36.7813C191.193 36.7813 193.694 36.7813 196.241 36.7813C196.559 36.7813 197.059 36.8722 197.059 36.3268C197.014 34.554 197.514 32.645 196.059 31.0541Z" fill="#87776F"/>
<path d="M212.564 36.8268C214.019 33.2359 212.837 29.645 212.428 26.0996C210.973 29.645 213.019 33.2359 212.564 36.8268Z" fill="#87776F"/>
<path d="M229.888 28.1451C229.979 28.1906 230.07 28.1906 230.206 28.1906C230.388 28.1451 230.57 28.0996 230.706 28.0087C230.843 27.9633 230.979 27.8269 231.024 27.736C231.115 27.5996 231.115 27.4633 231.115 27.3269C231.115 27.1906 231.024 27.0542 230.934 26.9178C230.843 26.7815 230.706 26.736 230.57 26.6906C230.115 26.5088 229.797 26.236 229.433 26.8269C229.251 27.0542 229.069 27.4178 229.206 27.6906C229.342 27.9178 229.615 28.0997 229.888 28.1451Z" fill="#87776F"/>
<path d="M231.115 29.0087C231.161 29.2359 231.297 29.4632 231.479 29.645C231.57 29.7359 231.661 29.7814 231.797 29.8268C231.934 29.8723 232.025 29.8723 232.161 29.8268C232.298 29.7814 232.389 29.7359 232.479 29.645C232.57 29.5541 232.616 29.4632 232.661 29.3268C232.843 28.9177 232.98 28.5541 232.479 28.3268C231.979 28.0996 231.161 27.6905 231.07 28.4632C231.07 28.6905 231.07 28.8723 231.115 29.0087Z" fill="#87776F"/>
<path d="M229.16 30.2812C229.706 30.5994 230.57 30.8721 230.661 29.9631C230.661 29.8722 230.661 29.8267 230.661 29.7358C230.615 29.554 230.57 29.3267 230.479 29.1449C230.479 29.054 230.433 29.0085 230.388 28.9631C230.342 28.9176 230.251 28.8722 230.206 28.8267C230.024 28.7813 229.888 28.7812 229.706 28.7812C229.524 28.8267 229.388 28.8722 229.251 29.0085C229.024 29.1903 228.706 29.6449 228.887 30.0085C228.933 30.1903 229.024 30.2358 229.16 30.2812Z" fill="#87776F"/>
<path d="M196.24 38.0541C195.831 37.8268 195.467 37.6905 195.24 38.2359C194.967 38.8723 194.603 39.1904 193.876 38.7359C193.239 38.3268 193.239 39.0086 193.058 39.3268C192.921 39.5995 192.83 39.8268 193.194 40.1904C194.512 41.5086 195.058 38.4177 196.286 39.7813L196.877 38.9177C196.922 38.8723 196.922 38.7814 196.968 38.7359C196.922 38.2814 196.559 38.2359 196.24 38.0541Z" fill="#87776F"/>
<path d="M210.336 24.8724C211.746 24.9633 212.973 25.9178 214.019 24.5542C212.882 25.3724 211.7 23.5542 210.336 24.8724Z" fill="#87776F"/>
<path d="M246.211 29.8269C246.393 29.6905 246.53 29.5542 246.666 29.3724C246.757 29.1906 246.848 28.9633 246.893 28.736C246.939 28.0087 246.166 27.8724 245.711 27.7815C245.256 27.6906 245.029 28.4178 244.984 28.7815C244.893 29.5087 245.757 29.4178 246.211 29.8269Z" fill="#87776F"/>
<path d="M340.5 52.6106V42.4582H344.056C345.288 42.4582 346.222 42.6953 346.859 43.1694C347.496 43.6389 347.814 44.3292 347.814 45.2403C347.814 45.7377 347.686 46.177 347.431 46.5582C347.175 46.9347 346.819 47.2113 346.364 47.388C346.885 47.5181 347.294 47.7808 347.591 48.1759C347.893 48.571 348.044 49.0545 348.044 49.6262C348.044 50.6024 347.733 51.3415 347.11 51.8436C346.487 52.3456 345.599 52.6013 344.446 52.6106H340.5ZM342.592 48.1898V50.9301H344.384C344.876 50.9301 345.26 50.8139 345.534 50.5815C345.813 50.3444 345.952 50.019 345.952 49.6053C345.952 48.6756 345.471 48.2038 344.509 48.1898H342.592ZM342.592 46.7116H344.14C345.195 46.693 345.722 46.2723 345.722 45.4495C345.722 44.9893 345.588 44.6593 345.318 44.4594C345.053 44.2548 344.632 44.1526 344.056 44.1526H342.592V46.7116ZM349.174 48.7686C349.174 48.0202 349.318 47.3531 349.606 46.7674C349.894 46.1817 350.308 45.7284 350.847 45.4077C351.391 45.0869 352.021 44.9266 352.737 44.9266C353.755 44.9266 354.585 45.238 355.226 45.8609C355.872 46.4838 356.233 47.3298 356.307 48.399L356.321 48.915C356.321 50.0725 355.998 51.0022 355.352 51.7041C354.706 52.4014 353.839 52.7501 352.751 52.7501C351.663 52.7501 350.794 52.4014 350.143 51.7041C349.497 51.0068 349.174 50.0585 349.174 48.8592V48.7686ZM351.189 48.915C351.189 49.6309 351.324 50.1794 351.593 50.5606C351.863 50.9371 352.249 51.1254 352.751 51.1254C353.239 51.1254 353.62 50.9394 353.895 50.5676C354.169 50.191 354.306 49.5914 354.306 48.7686C354.306 48.0666 354.169 47.5228 353.895 47.1369C353.62 46.7511 353.234 46.5582 352.737 46.5582C352.244 46.5582 351.863 46.7511 351.593 47.1369C351.324 47.5181 351.189 48.1108 351.189 48.915ZM359.417 45.066L359.48 45.9376C360.019 45.2636 360.742 44.9266 361.648 44.9266C362.448 44.9266 363.043 45.1613 363.433 45.6308C363.824 46.1003 364.024 46.8022 364.033 47.7366V52.6106H362.018V47.7854C362.018 47.3577 361.925 47.0486 361.739 46.858C361.553 46.6628 361.244 46.5652 360.812 46.5652C360.244 46.5652 359.819 46.8069 359.536 47.2903V52.6106H357.52V45.066H359.417ZM367.701 45.066V53.022C367.701 53.8541 367.48 54.5002 367.038 54.9604C366.597 55.4253 365.96 55.6577 365.128 55.6577C364.779 55.6577 364.447 55.6182 364.131 55.5392V53.9424C364.372 53.9842 364.584 54.0052 364.765 54.0052C365.374 54.0052 365.679 53.6821 365.679 53.0359V45.066H367.701ZM365.518 43.1136C365.518 42.8115 365.618 42.5628 365.818 42.3675C366.023 42.1723 366.299 42.0747 366.648 42.0747C366.996 42.0747 367.271 42.1723 367.471 42.3675C367.675 42.5628 367.777 42.8115 367.777 43.1136C367.777 43.4204 367.673 43.6714 367.464 43.8667C367.259 44.0619 366.987 44.1595 366.648 44.1595C366.308 44.1595 366.034 44.0619 365.825 43.8667C365.62 43.6714 365.518 43.4204 365.518 43.1136ZM368.963 48.7686C368.963 48.0202 369.107 47.3531 369.395 46.7674C369.683 46.1817 370.097 45.7284 370.636 45.4077C371.18 45.0869 371.81 44.9266 372.526 44.9266C373.544 44.9266 374.374 45.238 375.015 45.8609C375.661 46.4838 376.022 47.3298 376.096 48.399L376.11 48.915C376.11 50.0725 375.787 51.0022 375.141 51.7041C374.495 52.4014 373.628 52.7501 372.54 52.7501C371.452 52.7501 370.583 52.4014 369.932 51.7041C369.286 51.0068 368.963 50.0585 368.963 48.8592V48.7686ZM370.978 48.915C370.978 49.6309 371.113 50.1794 371.382 50.5606C371.652 50.9371 372.038 51.1254 372.54 51.1254C373.028 51.1254 373.409 50.9394 373.683 50.5676C373.958 50.191 374.095 49.5914 374.095 48.7686C374.095 48.0666 373.958 47.5228 373.683 47.1369C373.409 46.7511 373.023 46.5582 372.526 46.5582C372.033 46.5582 371.652 46.7511 371.382 47.1369C371.113 47.5181 370.978 48.1108 370.978 48.915ZM381.869 51.8436C381.372 52.4479 380.684 52.7501 379.805 52.7501C378.997 52.7501 378.378 52.5176 377.951 52.0528C377.528 51.5879 377.312 50.9069 377.302 50.0097V45.066H379.317V49.94C379.317 50.7256 379.675 51.1184 380.391 51.1184C381.075 51.1184 381.544 50.8813 381.8 50.4072V45.066H383.822V52.6106H381.925L381.869 51.8436ZM389.581 46.9556C389.307 46.9185 389.065 46.8999 388.856 46.8999C388.094 46.8999 387.594 47.1579 387.357 47.6738V52.6106H385.342V45.066H387.245L387.301 45.9655C387.706 45.2729 388.266 44.9266 388.982 44.9266C389.205 44.9266 389.414 44.9568 389.609 45.0172L389.581 46.9556Z" fill="#443023"/>
</svg>
