<svg fill="none" height="81" viewBox="0 0 80 81" width="80" xmlns="http://www.w3.org/2000/svg"><path clip-rule="evenodd" d="m59 76.3496c-.5514 0-1-.4486-1-1s.4486-1 1-1 1 .4486 1 1-.4486 1-1 1z" fill="#cacafb" fill-rule="evenodd"/><path clip-rule="evenodd" d="m67 12.3496c-.5514 0-1-.4486-1-1s.4486-1 1-1 1 .4486 1 1-.4486 1-1 1z" fill="#cacafb" fill-rule="evenodd"/><path clip-rule="evenodd" d="m9 16.3496c-.5514 0-1-.4486-1-1s.4486-1 1-1 1 .4486 1 1-.4486 1-1 1z" fill="#cacafb" fill-rule="evenodd"/><path d="m37 23.3496c0-.5523-.4477-1-1-1h-12l-.1166.0067c-.4974.0578-.8834.4805-.8834.9933 0 .5523.4477 1 1 1h12l.1166-.0067c.4974-.0578.8834-.4805.8834-.9933z" fill="#e1000f"/><path d="m39 40.3496c-1.1046 0-2 .8954-2 2 0 2.487 1.0086 4 3 4 .5523 0 1-.4477 1-1s-.4477-1-1-1l-.0941-.0034c-.1194-.0088-.2267-.0354-.322-.0832.8197-.2498 1.4161-1.0119 1.4161-1.9134 0-1.1046-.8954-2-2-2z" fill="#e1000f"/><path d="m43 42.3496c0-1.1046.8954-2 2-2s2 .8954 2 2c0 .9015-.5964 1.6636-1.4161 1.9134.0953.0478.2026.0744.322.0832l.0941.0034c.5523 0 1 .4477 1 1s-.4477 1-1 1c-1.9914 0-3-1.513-3-4z" fill="#e1000f"/><path d="m34 26.3496c.5523 0 1 .4477 1 1 0 .5128-.386.9355-.8834.9933l-.1166.0067h-10c-.5523 0-1-.4477-1-1 0-.5128.386-.9355.8834-.9933l.1166-.0067z" fill="#e1000f"/><path d="m31 31.3496c0-.5523-.4477-1-1-1h-6l-.1166.0067c-.4974.0578-.8834.4805-.8834.9933 0 .5523.4477 1 1 1h6l.1166-.0067c.4974-.0578.8834-.4805.8834-.9933z" fill="#e1000f"/><path d="m56 50.3496c.5523 0 1 .4477 1 1 0 .5128-.386.9355-.8834.9933l-.1166.0067h-18c-.5523 0-1-.4477-1-1 0-.5128.386-.9355.8834-.9933l.1166-.0067z" fill="#e1000f"/><path d="m53 55.3496c0-.5523-.4477-1-1-1h-14l-.1166.0067c-.4974.0578-.8834.4805-.8834.9933 0 .5523.4477 1 1 1h14l.1166-.0067c.4974-.0578.8834-.4805.8834-.9933z" fill="#e1000f"/><g fill="#000091"><path d="m32 12.3496c6.8541 0 12.2879 4.0571 14.9279 10.6272.2059.5124-.0426 1.0948-.5551 1.3007-.5124.2059-1.0948-.0426-1.3007-.555-2.3483-5.8442-7.0744-9.3729-13.0721-9.3729-8.2843 0-15 6.7157-15 15 0 3.2158 1.0133 6.2762 2.8657 8.8201.2349.3225.2534.7495.0581 1.0881l-.0731.1093-3.8237 4.9825h5.973c.5128 0 .9355.386.9933.8834l.0067.1166c0 .5128-.386.9355-.8834.9933l-.1166.0067h-8c-.7914 0-1.2547-.8665-.8562-1.5173l.0628-.0914 4.6134-6.0133-.0565-.0836c-1.7127-2.6176-2.6773-5.6653-2.758-8.8581l-.0055-.4363c0-9.3888 7.6112-17 17-17z"/><path d="m47 28.3496c11.0457 0 20 8.9543 20 20 0 3.1307-.7206 6.1604-2.0863 8.9032-.2461.4944-.8465.6956-1.3409.4494-.4944-.2461-.6956-.8465-.4494-1.3409 1.2285-2.4673 1.8766-5.1922 1.8766-8.0117 0-9.9411-8.0589-18-18-18s-18 8.0589-18 18c0 9.8307 7.8808 17.8207 17.6693 17.997l.3307.003h17.131l-2.9631-4.4453c-.2844-.4267-.1977-.9925.1841-1.3165l.0933-.0702c.4267-.2845.9925-.1978 1.3165.184l.0703.0933 4 6c.4219.6329.0099 1.4704-.7203 1.5488l-.1118.0059h-19c-11.0457 0-20-8.9543-20-20s8.9543-20 20-20z"/><path d="m55 19.3496c0 .5514.4486 1 1 1s1-.4486 1-1-.4486-1-1-1-1 .4486-1 1z"/><path d="m60 20.3496c-.5514 0-1-.4486-1-1s.4486-1 1-1 1 .4486 1 1-.4486 1-1 1z"/><path d="m63 19.3496c0 .5514.4486 1 1 1s1-.4486 1-1-.4486-1-1-1-1 .4486-1 1z"/><path clip-rule="evenodd" d="m68 14.3496h-16c-.5523 0-1 .4477-1 1v8l.0067.1166c.0578.4974.4805.8834.9933.8834h7.585l3.7079 3.7071.0846.0761c.637.5142 1.6225.069 1.6225-.7832v-3h3c.5523 0 1-.4477 1-1v-8c0-.5523-.4477-1-1-1zm-1 2v6h-3l-.1166.0067c-.4974.0578-.8834.4805-.8834.9933v1.585l-2.2929-2.2921-.0991-.0868c-.1735-.1329-.387-.2061-.608-.2061h-7v-6z" fill-rule="evenodd"/><path d="m16 58.3496c.5523 0 1 .4477 1 1 0 .5128-.386.9355-.8834.9933l-.1166.0067h-4c-.5523 0-1-.4477-1-1 0-.5128.386-.9355.8834-.9933l.1166-.0067z"/><path d="m19 59.3496c0 .5514.4486 1 1 1s1-.4486 1-1-.4486-1-1-1-1 .4486-1 1z"/><path d="m24 60.3496c-.5514 0-1-.4486-1-1s.4486-1 1-1 1 .4486 1 1-.4486 1-1 1z"/></g></svg>