<svg fill="none" height="48" viewBox="0 0 48 48" width="48" xmlns="http://www.w3.org/2000/svg" xmlns:xlink="http://www.w3.org/1999/xlink"><filter id="a" color-interpolation-filters="sRGB" filterUnits="userSpaceOnUse" height="56.2353" width="23.2978" x="12.2964" y="-4.11765"><feFlood flood-opacity="0" result="BackgroundImageFix"/><feBlend in="SourceGraphic" in2="BackgroundImageFix" mode="normal" result="shape"/><feGaussianBlur result="effect1_foregroundBlur_24715_8963" stdDeviation="2.05882"/></filter><mask id="b" height="48" maskUnits="userSpaceOnUse" width="35" x="7" y="0"><path d="m7.71094 0h33.4118v48h-33.4118z" fill="#c4e8f8"/></mask><g mask="url(#b)"><path d="m31.2403 0h-21.52936c-1.10457 0-2 .895432-2 2v44c0 1.1046.89543 2 2 2h29.41176c1.1046 0 2-.8954 2-2v-36.11765z" fill="#c4e7f8"/><g filter="url(#a)"><path d="m31.4766 0h-15.0589v48h15.0589z" fill="#f7cdd4"/></g><g fill="#6bb8dc"><g opacity=".3"><path d="m35.9966 41.075c-.1191-.1639-.1318-.3358-.0358-.5147.0821-.1535.0404-.3173-.1018-.4154-.1642-.1119-.2359-.2677-.207-.4662.0255-.1754-.0716-.315-.2416-.3577-.1862-.0473-.3053-.1662-.3492-.3531-.0463-.1962-.1654-.2828-.3666-.2666-.1896.015-.3376-.0612-.4394-.2216-.0982-.1534-.2567-.1996-.4197-.1223-.1873.0889-.3342.0496-.5076-.0427-.1469-.0796-.2833-.1315-.4163.0058-.1468.1523-.3191.195-.5215.1281-.1514-.0508-.3064.0231-.3758.1661-.1063.2205-.2763.2539-.4983.3047-.1376.0311-.2278.1454-.2394.285-.0162.2077-.1225.3439-.3145.4212-.111.0439-.1792.1293-.1873.2481-.0081.1223.0486.2308.0243.3554-.0197.1016-.0763.1997-.1526.2631-.1365.1177-.1515.2851-.0463.4328.1133.1581.1249.3277.0347.4996-.0856.1639-.0463.3208.1064.427.1595.1108.2289.2654.2.4593-.0254.1708.0694.3185.2336.3589.1966.0484.3168.173.3607.3692.0382.172.1619.2677.3377.2527.2081-.0173.3665.0589.4764.2378.0705.1165.2069.1719.3341.1327.1041-.0324.2047-.0993.3111-.0877.03.0034.0624.0115.0948.0219.0613.0208.1203.0542.1665.09.1457.1142.3099.1027.4394-.0289.133-.135.2937-.1777.4764-.1223.1942.06.3295-.0011.4151-.1823.0798-.1685.2174-.2619.4047-.2689.1896-.0069.3087-.1165.3238-.3046.0161-.1939.1144-.3347.2983-.4016.1526-.0554.2451-.2446.1919-.3958-.0277-.0773-.0381-.1569-.0081-.2412.0347-.0946.0763-.1788.1538-.2446.1272-.1108.1446-.2827.0451-.4212zm-2.6988 2.2248c-1.2765 0-2.3114-1.0328-2.3114-2.3067 0-1.274 1.0349-2.3068 2.3114-2.3068 1.2766 0 2.3115 1.0328 2.3115 2.3068 0 1.2739-1.0349 2.3067-2.3115 2.3067z"/><path d="m33.2956 38.665c-1.2894 0-2.3347 1.0453-2.3347 2.3347 0 1.2893 1.0453 2.3346 2.3347 2.3346 1.2893 0 2.3346-1.0453 2.3346-2.3346 0-1.2894-1.0453-2.3347-2.3346-2.3347zm.0082 4.4357c-1.1563 0-2.0941-.9378-2.0941-2.094s.9378-2.0941 2.0941-2.0941c1.1562 0 2.094.9379 2.094 2.0941s-.9378 2.094-2.094 2.094z"/><path d="m34.7055 41.0381c-.0619-.0851-.0689-.1748-.0187-.268.0432-.0804.021-.1655-.0537-.2167-.0864-.0583-.1237-.1399-.1085-.2436.0128-.0908-.0374-.1642-.1261-.1864-.0969-.0244-.1588-.0874-.1821-.1841-.0246-.1025-.0864-.1479-.1915-.1398-.0992.0082-.1763-.0314-.2288-.1153-.0514-.0804-.1331-.1049-.2183-.0653-.0981.0466-.1751.0257-.265-.0221-.0771-.0408-.1483-.0688-.2183.0035-.0771.0792-.167.1025-.272.0664-.0794-.0268-.16.0116-.1961.0874-.0561.1153-.1436.1328-.2604.1584-.0712.0163-.1191.0758-.1249.148-.0082.1084-.0642.1794-.1646.2202-.0584.0233-.0934.0676-.0981.1293-.0046.0641.0257.1212.0129.1853-.0105.0524-.0397.1037-.0794.1375-.0712.0617-.0794.1491-.0245.226.0595.0828.0654.1713.0175.261-.0444.0862-.0245.1678.0549.2226.0828.0582.119.1386.1039.24-.0129.0897.0361.1666.1214.1876.1027.0256.1657.0908.1879.1934.0199.0897.0852.1398.1763.1316.1086-.0093.1915.0303.2487.1247.0373.0606.1085.0897.1751.0688.0548-.0175.1062-.0525.1622-.0455.0164.0023.0327.0058.0491.0117.0315.0116.063.0279.0864.0477.0758.0595.1622.0536.2299-.0151.0689-.0699.1541-.0932.2487-.0641.1016.0315.1716 0 .2171-.0955.0421-.0886.1133-.1364.2113-.141.0993-.0035.1611-.0606.1693-.1596.0082-.1014.0596-.1748.1553-.2098.0794-.0291.1284-.1281.1004-.2074-.014-.0407-.0199-.0815-.0035-.1258.0175-.0489.0397-.0932.0805-.1282.0689-.0559.0782-.1456.0257-.2178zm-1.4091 1.1616c-.6665 0-1.2071-.5395-1.2071-1.2048 0-.6652.5406-1.2047 1.2071-1.2047.6666 0 1.2071.5395 1.2071 1.2047 0 .6653-.5405 1.2048-1.2071 1.2048z"/><path d="m33.3069 39.7852c-.6786 0-1.2288.5502-1.2288 1.2287 0 .6786.5502 1.2288 1.2288 1.2288.6785 0 1.2287-.5502 1.2287-1.2288 0-.6785-.5502-1.2287-1.2287-1.2287z"/></g><path d="m11.9453 14.1172h2.70588v.588235h-2.70588z"/><path d="m11.9453 15.5293h2.70588v.588236h-2.70588z"/><path d="m11.9453 16.9414h6.70588v.588238h-6.70588z"/></g><path d="m15.125 23.1768h18.5882v1.17647h-18.5882z" fill="#fff" opacity=".9"/><path d="m11.9453 8.58789h6.70588v.588236h-6.70588z" fill="#6bb8dc"/><path d="m12.3783 4.60546v-.98384h.9803v-.45271h-.9839v-.62382h1.1051v-.46697h-1.597v2.52734z" fill="#fff"/><path d="m15.1321 4.60546h.5489l-.5418-1.03375c.3315-.09624.5383-.36359.5383-.71649 0-.43845-.3137-.7771-.8056-.7771h-.9875v2.52734h.4955v-.97315h.2567zm-.7522-1.39734v-.70224h.3993c.2495 0 .3956.13902.3956.3529 0 .20675-.1461.34934-.3956.34934z" fill="#fff"/><path d="m22.972 45.6641v-.9839h.9803v-.4527h-.9838v-.6238h1.105v-.467h-1.5969v2.5274z" fill="#fff"/><path d="m25.7258 45.6641h.549l-.5418-1.0338c.3315-.0962.5382-.3636.5382-.7165 0-.4384-.3137-.7771-.8056-.7771h-.9874v2.5274h.4955v-.9732h.2566zm-.7521-1.3974v-.7022h.3992c.2495 0 .3957.139.3957.3529 0 .2067-.1462.3493-.3957.3493z" fill="#fff"/><path d="m29.9453 36.2354h6.70588v.588238h-6.70588z" fill="#6bb8dc"/><path d="m11.9453 18.3525h10v.588236h-10z" fill="#6bb8dc"/><path d="m14.1797 25.4121h20.4706v2.94118h-20.4706z" fill="#fff" opacity=".9"/><path d="m11.9453 9.76465h10v.588236h-10z" fill="#6bb8dc"/><path d="m12.2969 42.4707h10v.588234h-10z" fill="#6bb8dc"/><path d="m12.2969 41.2939h6v.588238h-6z" fill="#6bb8dc"/><path d="m11.9453 19.7646h4.23529v.588234h-4.23529z" fill="#6bb8dc"/><path d="m10.5312 29.6475h27.7647v2.94118h-27.7647z" fill="#fff" opacity=".9"/><path d="m11.9453 10.9414h4.23529v.588235h-4.23529z" fill="#6bb8dc"/><path d="m12.2969 43.6465h4.23529v.588234h-4.23529z" fill="#6bb8dc"/><g opacity=".9"><path d="m11.9453 5.76465h1.05882v1.94477h-1.05882z" fill="#06508c"/><path d="m13 5.76465h1.05882v1.94477h-1.05882z" fill="#fff"/><path d="m14.0625 5.76465h1.05882v1.94477h-1.05882z" fill="#c54126"/></g><path d="m31.2422 0 9.8823 9.88235h-8.8823c-.5523 0-1-.44771-1-1z" fill="#6bb8dc"/></g></svg>