<svg fill="none" height="48" viewBox="0 0 50 48" width="50" xmlns="http://www.w3.org/2000/svg" xmlns:xlink="http://www.w3.org/1999/xlink"><linearGradient id="a" gradientUnits="userSpaceOnUse" x1="48.9977" x2="32.4243" y1="10.4161" y2="10.4161"><stop offset="0" stop-color="#e0f0ee"/><stop offset="1" stop-color="#ebf6fc"/></linearGradient><linearGradient id="b" gradientUnits="userSpaceOnUse" x1="25.3553" x2="1" y1="11.5468" y2="11.5468"><stop offset="0" stop-color="#cca77d"/><stop offset="1" stop-color="#bba5e3"/></linearGradient><linearGradient id="c" gradientUnits="userSpaceOnUse" x1="49" x2=".999999" y1="25.427" y2="25.427"><stop offset="0" stop-color="#d8ecf7"/><stop offset="1" stop-color="#dcecec"/></linearGradient><linearGradient id="d" gradientUnits="userSpaceOnUse" x1="49.4732" x2="38.6024" y1="24.9958" y2="24.9958"><stop offset="0" stop-color="#f8badf"/><stop offset="1" stop-color="#e2d5c3"/></linearGradient><clipPath id="e"><rect height="30.4696" rx="2" width="48" x="1" y="8.57129"/></clipPath><g clip-path="url(#e)"><path d="m1 10.5713c0-1.10458.89543-2.00001 2-2.00001h30.9688 13.0289c1.1046 0 2 .89543 2 2.00001v26.3505c0 1.1046-.8954 2-2 2h-43.9977c-1.10457 0-2-.8954-2-2z" fill="url(#a)"/><path d="m34.0876 14.5819v-6.01061h-31.0876c-1.10457 0-2 .89543-2 2.00001v4.0106z" fill="url(#b)"/><path d="m1 12.1818-.005479-.1389-.133481.0053v.1336 26.9611c0 1.1813.95764 2.1389 2.13896 2.1389h44c1.1813 0 2.139-.9576 2.139-2.1389v-26.9611-.1544l-.1535.0162.0145.1382-.0146-.1382h-.0003l-.0011.0001-.0046.0005-.0182.0019-.0719.0074c-.0635.0065-.1575.016-.2796.0281-.2441.0242-.6006.0588-1.0498.1001-.8983.0827-2.167.1925-3.6485.3012-2.9637.2173-6.7764.4297-10.1779.4106-3.6966-.0207-7.5992-.2599-11.2782-.5021-.3511-.0231-.7001-.0463-1.0468-.0693-3.284-.2177-6.3532-.4212-8.8822-.4501-2.79339-.0319-5.67633.0109-7.86054.0616-1.0922.0253-2.00988.0526-2.65456.0736-.32235.0105-.57645.0195-.75.0258l-.19837.0073-.05099.002-.012939.0005-.003269.0001h-.000827-.00021z" fill="url(#c)" stroke="#0421b1" stroke-width=".277921"/><path d="m48.5158 15.9518c-.4646-.0199-.9176.149-1.2563.4689l-1.83 1.7285c-.1134.1071-.2343.2293-.2462.3851-.0109.1433.0743.2755.098.4173.0639.3822-.3603.7053-.7456.6786-.211-.0146-.4042-.0997-.5813-.218-.2078-.1388-.2508-.4296-.0834-.6153.108-.1198.1984-.2556.2675-.4015.1058-.2234-.0111-.4894-.2453-.5673l-.9682-.3221c-.4686-.1559-.9643-.3136-1.4474-.2121-.7029.1477-1.179.7951-1.5327 1.4223-.3538.6272-.6865 1.3182-1.3027 1.6885-.1953.1173-.4124.1973-.5983.3292-.1739.1235-.8727.9826-.7419 1.2938.0817.1943.2733.3174.4829.3335.3673.0281.657-.1655.9196-.3875.0533-.0452.1345-.0032.1276.0664-.073.7333-.0712 1.8215.3529 1.8686.4642.0514 1.1141-1.3115 1.1297-1.7342.0157-.4227-.3453-.3963-.3234-.6567s.1397-.5011.2243-.7482c.1712-.4998.2263-1.0727.7184-1.3808.224-.1402.518-.1301.7143.047.2197.1983.1782.4737.0756.6981-.133.2908-.3629.5296-.4883.8238-.1253.2942-.1024.7004.1751.8579.2961.1682.6522-.0441.9487-.2115.2964-.1675.7458-.2563.915.0399-.0946.4788-.1973.9761-.4926 1.364s-.8443.628-1.282.4151c-.216.0347-.3333.2798-.3485.4987s.0337.4428-.0164.6564c-.1425.6075-.9229.7564-1.5443.7817-.4118.0168-.8236.0336-1.2354.0504-.0832.0034-.1752.004-.2386-.0503-.0679-.0582-.0784-.1582-.0807-.2477-.0086-.331.1613-.7225-.058-.9897-.1788-.1699-.7059-.1258-.7963.104s.0762.6738-.0924.9013c-.1686.2276-.6074.321-.8865.8241-.0772.1391-.1383.2928-.2558.3998-.1095.0997-.2551.147-.396.1917-.6734.2134-1.7177-.2698-2.0599.1011-.2858.3534-.1272.8728.0209 1.303.1482.4302.2393.9881-.1159 1.2711-.3208.2555-.7887.1085-1.1671-.0488l-.9411-.3913c-.244-.1014-.5214.0347-.5911.2899l-.36 1.3202c-.0731.2678-.1467.548-.09.8197.1007.4828.5812.7919 1.0536.9279.3262.0939.6679.1328.9978.2096.2376.0553.479-.0853.5461-.3203.0582-.2037.1311-.402.2377-.5844.185-.3167.4909-.584.8541-.6283.1798-.0219.3959-.0036.5042-.1492.0853-.1148.0577-.2811.1259-.4068.1245-.2294.4546-.1929.7132-.1632.4368.0503.886-.0169 1.2907-.1888.1956-.083.425-.0231.5491.1495.3107.4323.5007 1.212.7798 1.674.2471.409.4304.5124.4613 1.0229.0064.1045-.0403.2056-.1244.2677-.2234.1651-.4296.3609-.6889.3824-.0669.0055-.1067.0776-.074.1363.1022.183.4077.4546.5126.5058.1378.0673.3012.0465.4504.0115.5171-.1213.7214-.5922.7829-.7003.0616-.1081.3728-.2003.3728-.2003.0534.0407.1315.0318.1706-.023.0759-.1064.0761-.2731.0106-.3944-.0863-.1599-.248-.2613-.3977-.364-.5103-.3499-.5736-1.344-.9251-1.8542-.0816-.1184-.1527-.2675-.1835-.4125-.0506-.2387.2054-.4242.4154-.3008l1.6815.9883c.096.0565.1956.1162.256.2101.1569.2442-.0216.5775.0627.8555.0649.2145.2688.3489.4348.4989.166.1499.0662.4714.2183.5871.1012.0415.2189.0376.3189-.0062.0776-.0341.1606-.0519.2453-.0528.2013-.0024.4142-.0757.3723-.2667-.0085-.0385-.0278-.0738-.0519-.105l-.3311-.6734c-.0539-.2007.1582-.2339.2769-.239.1188-.0052.4087-.0011.5633-.0012.1547 0 .9106-.6857.9644-.9891.0644-.3621.1287-.7241.193-1.0862.0294-.1657.0645-.3425.1833-.4612.1188-.1188.256.0921.435.011.2316-.1049.0915-.3917.4151-.3991.1244-.0029.2413.059.3121.1615.0298.0431.0653.0771.1275.0721.0294-.0024.0574-.0147.0809-.0326.2417-.1834.4211-.4348.6473-.636.2137-.1901.6508-.4352.7761-.288s.3185.7531-.6625 1.309c-.2105.1192-.2154.2938-.1051.5226.0485.1007.1552.159.2667.1607.2605.0039.6351-.3639 1.0748-.0037.0328.0269.2589.6563-.2152.7905-.6478.1834-.9154.1571-1.6873.2574-.3545.046-.7396.1073-.9823.3706-.1725.1872-.2516.4576-.4587.6052-.1121.0799-.2525.116-.3561.2068-.1614.1416-.1947.3887-.1375.596.0571.2074.1886.3847.3173.5568.0813.1086.1672.2212.2888.281.0986.0485.2119.0575.3216.053.6481-.0269 1.2762-.4917 1.8973-.304.1311.0397.2572.1081.3941.1093.1857.0015.3467-.1196.4989-.2266.6183-.4348 1.34-.7206 2.0877-.8266.1614-.0229.3489-.0535.4274-.1968.0364-.0662.041-.1447.0448-.2203.0198-.3922.013-.8478-.2925-1.0934-.1266-.1017-.2864-.1494-.4336-.2179-.4444-.2068-.5403-.9131-.3819-1.1796.1142-.1921 1.1069.3177 1.6528.6177.1605.0881.3563-.0284.3563-.2117l.0007-13.7167c0-.1337-.1086-.2419-.242-.2411-.5401.003-1.8126.0091-2.0223.0001z" fill="url(#d)"/><path d="m8.73607 29.8723c-1.16306-1.3764-1.95605-3.0706-1.82389-4.9633.38328-5.4397 7.96962-4.2485 9.44982-1.4956 1.4803 2.753 1.2952 9.7149-.6079 10.2178-.7666.1985-2.379-.2779-4.0311-1.2838l1.0838 5.5456h-6.1193z" fill="#c6c6c6"/><path d="m4.24557 23.095c-.19825-.1985-.30398-.4765-.3965-.7412-.09251-.2779-.18503-.5559-.25111-.8338-.13216-.5691-.13216-1.2309.27755-1.6809.33041-.3574.81942-.5162 1.26879-.5559.30398-.0265.60796.0132.89872.1191.29077.0926.54188.2779.81943.3971.01321-.6221.11895-1.2574.42293-1.7868.30398-.503.77977-.7942 1.33487-.8603.55509-.0794 1.11019.0529 1.61245.3309.1321.0661.2511.1455.37.225.1058.0661.1983.1455.3172.172.1322.0265.1983-.0397.2776-.1456.1057-.1059.2114-.2117.3304-.2911.5287-.3839 1.2159-.5427 1.8239-.3177.2775.1059.5551.2912.7401.5427.1718.225.2908.5691.5287.7279.1057.0662.1718-.0265.2643-.0794.1322-.0927.2643-.1985.3965-.2912.1982-.1323.3965-.225.6212-.2779.3304-.0794.7797-.053.8723.3706.0396.1588.0132.3308 0 .4897-.0133.225-.0265.45-.0529.6617-.0132.1721-.0397.3309-.0661.503-.0132.0926-.0661.2515-.0264.3441.0528.1059.2643.053.3568.053.1851.0132.3701.0397.5419.1191.1322.0662.2775.1456.3304.3044.0397.0926.0264.1853.0132.2779-.0132.1192 0 .1721.0132.2912.2512-.1191 1.1102-.397 1.216.053.0396.1456-.0397.3176-.1058.4367-.1057.225-.2511.4236-.3965.6089-.3039.397-.674.7412-1.0705 1.0323.4626.1986.5815.8074.185 1.1648-.1718.1588-.4097.1985-.6344.1852-.0793 0-.1982-.0397-.2643-.0264-.0396.0132-.0661.0397-.1189.0397-.3172.0265-.6741-.053-.9781-.1191-.5418-.1192-1.0705-.3839-1.4934-.7809-.1058-.1059-.1983-.1589-.3437-.1589-.1321 0-.2511.0398-.3832.0398-.3437.0132-.6477-.1589-.9516-.2648-.0133.4236-.1454.8868-.3172 1.2706-.1454.3177-.4362.3574-.7269.3839-.9252.0926-1.86358-.0133-2.78874-.0133.89873.1986 1.83714.2912 2.72264.5295.4097.1058.0925.3838-.0793.5691-.2776.3044-.489.6882-.6476 1.0985-.4362-.5691-1.21596-.9529-1.90322-.7809-.76656.1986-1.29522 1.2309-.80621 1.9721.27755.4236.79299.5956 1.21592.7809-.33041.3441-.40971.8471-.60796 1.2839-.09251.2117-.2379.45-.46258.5294-.0793.0265-.17181.0265-.23789.0926-.0793.0794-.09252.1721-.19825.2383-.40972.2779-1.04411.2647-1.40096-.1059-.33041-.3309-.2379-.8603.02644-1.1912-.43615-.1853-1.21593-.4103-1.04411-1.0853-.93838-.0662-3.21162-1.575-1.95605-2.6868-.68726-.3838-1.32166-1.3368-.88551-2.1839.35685-.6485 1.14984-.9397 1.79745-.9794z" fill="#3a3a3a"/><path d="m16.7246 27.0918c.5022.1324.6211.7015.8062 1.0191.185.3177.5551.953.7401 1.2839.185.3176.185.3176.1189.5691-.37.45-.8722.3176-1.4273.4368-.2512-.0662-.5551.1191-.8063.0529" fill="#c6c6c6"/><path d="m16.0246 27.2658c.1453 0 .2511-.1192.2511-.2648s-.119-.2647-.2511-.2647c-.1454 0-.2512.1191-.2512.2647s.1058.2648.2512.2648z" fill="#3a3a3a"/><path d="m16.0629 31.538c.2776.0927.5816.1192.8591.0795-.3172-.0927-.6079-.1986-.8723-.3574-.1321-.0794-.2643-.1588-.3833-.2647-.066-.053-.1321-.1059-.1982-.1721-.0397-.0529-.0925-.0926-.1454-.1456l-.0132-.0132c-.0661-.0529-.1586-.0397-.2115.0265-.066.0662-.0528.172.0133.2382l.0132.0132c.1189.0927.2246.2251.3436.3706.1189.1456.2643.3045.4229.3971.3172.225.6609.3441 1.0177.45-.1454-.1191-.2908-.225-.4361-.3309-.1586-.0794-.2908-.1853-.4098-.2912z" fill="#3a3a3a"/><path d="m15.8405 26.2454c.1057 0 .2247 0 .3569-.0132.1189-.0133.2511-.0397.3832-.1059-.1189-.0662-.2246-.1191-.3436-.1588-.1189-.0397-.2379-.0662-.3701-.0662-.2643-.0132-.5683.1191-.6872.3706l.3701-.0265z" fill="#3a3a3a"/><path d="m3.69671 12.4555v-.7576h.74895v-.4116h-.75181v-.4288h.85472v-.4288h-1.30638v2.0268z" fill="#0421b1"/><path d="m5.84169 12.4555h.4974l-.41164-.8205c.2487-.0886.40021-.2973.40021-.5717 0-.3602-.25728-.6346-.65748-.6346h-.80327v2.0268h.45166v-.7547h.16008zm-.52312-1.1435v-.4917h.26585c.18581 0 .28586.0944.28586.2459 0 .1429-.10005.2458-.28586.2458z" fill="#0421b1"/><path d="m8.01696 12.4555h.49168l-.75467-2.0268h-.52313l-.76325 2.0268h.47453l.14579-.4117h.78326zm-.5317-1.5237.24298.7004h-.49168z" fill="#0421b1"/><g fill="#212121"><path d="m36.985 11.5409v-1.2349h-.1982c-.0267.1296-.1486.2287-.3259.2325v.1562h.2992v.8462z"/><path d="m38.2104 11.5409h.2496l-.526-1.3512h-.2649l-.526 1.3512h.2421l.1258-.3392h.5717zm-.4136-1.1034.2058.5526h-.4116z"/><path d="m38.6409 10.1897v1.3512h.4993c.2516 0 .4193-.1563.4193-.3735 0-.1601-.0991-.284-.242-.3221.1162-.0419.2001-.1487.2001-.2916 0-.2115-.1525-.364-.4117-.364zm.2268.5717v-.3773h.202c.1392 0 .2192.0743.2192.1887 0 .1124-.08.1886-.2134.1886zm0 .5851v-.3926h.2401c.1411 0 .2192.082.2192.1982 0 .1201-.0896.1944-.2268.1944z"/><path d="m40.3988 11.5695c.345 0 .5508-.2192.6118-.4479l-.2096-.0686c-.0458.1525-.1754.2973-.4022.2973-.2306 0-.4478-.1677-.4478-.484 0-.3278.223-.4898.4459-.4898.2268 0 .3526.1315.3926.2954l.2154-.0724c-.061-.2364-.2649-.4384-.608-.4384-.3506 0-.6803.2649-.6803.7052 0 .4402.3182.7032.6822.7032z"/><path d="m41.3818 10.7691c-.0019-.021-.0057-.0439-.0057-.0629 0-.1277.0705-.2287.2154-.2287.1391 0 .2077.0915.2077.1925 0 .0895-.0476.1639-.1582.2325l-.2039.1277c-.2153.1334-.2897.2992-.2935.5107h.8938v-.202h-.6117c.0171-.061.0667-.1048.1258-.141l.2401-.1487c.1486-.0915.2382-.223.2382-.383 0-.2116-.162-.3888-.4345-.3888-.2802 0-.4402.1925-.4402.4059 0 .0248.0038.0534.0057.0705z"/><path d="m42.495 11.3313v-.9319h.242c.2344 0 .4269.1524.4269.4688 0 .3125-.1944.4631-.4288.4631zm.2478.2096c.3659 0 .6593-.2401.6593-.6727 0-.4345-.2896-.6785-.6574-.6785h-.4784v1.3512z"/><path d="m44.4764 11.5409v-.2135h-.6061v-.3582h.5489v-.2078h-.5489v-.3582h.6061v-.2135h-.8347v1.3512z"/><path d="m44.9795 11.5409v-.5451h.5489v-.2115h-.5489v-.3792h.6118v-.2154h-.8404v1.3512z"/><path d="m45.9622 10.9234c0-.1562.0267-.2763.0877-.3525.0419-.0553.101-.0915.1906-.0915.0895 0 .1467.0362.1905.0915.0591.0762.0858.1963.0858.3525 0 .1563-.0267.2764-.0858.3526-.0438.0553-.101.0915-.1905.0915-.0896 0-.1487-.0362-.1906-.0915-.0591-.0762-.0877-.1963-.0877-.3526zm-.2268 0c0 .1639.0267.3183.1106.4441.08.12.2096.202.3945.202.1848 0 .3125-.082.3925-.202.0839-.1258.1106-.2802.1106-.4441s-.0267-.3182-.1106-.444c-.08-.1201-.2077-.202-.3925-.202-.1849 0-.3145.0819-.3945.202-.0839.1258-.1106.2801-.1106.444z"/><path d="m3.41499 15.597v-.849h-.13626c-.01834.0891-.10219.1572-.22404.1599v.1074h.2057v.5817z"/><path d="m4.25742 15.597h.17163l-.36161-.9289h-.18212l-.36161.9289h.16639l.08648-.2332h.39305zm-.28432-.7586.14151.38h-.28301z"/><path d="m4.55344 14.6681v.9289h.34327c.17295 0 .28824-.1074.28824-.2568 0-.11-.06813-.1952-.16639-.2214.07992-.0288.13757-.1022.13757-.2005 0-.1454-.10482-.2502-.283-.2502zm.15591.393v-.2594h.13888c.09565 0 .15068.0511.15068.1297 0 .0773-.05503.1297-.14675.1297zm0 .4023v-.2699h.16509c.09695 0 .15067.0563.15067.1362 0 .0826-.06158.1337-.15591.1337z"/><path d="m5.76199 15.6167c.23715 0 .37865-.1507.42058-.3079l-.14412-.0472c-.03145.1048-.12054.2044-.27646.2044-.15853 0-.30789-.1153-.30789-.3328 0-.2253.15329-.3367.30658-.3367.15592 0 .24239.0904.2699.2031l.14806-.0498c-.04193-.1625-.18212-.3014-.41796-.3014-.24107 0-.46774.1822-.46774.4848 0 .3027.21881.4835.46905.4835z"/><path d="m6.43781 15.0664c-.00131-.0144-.00393-.0301-.00393-.0432 0-.0878.04848-.1573.14805-.1573.09565 0 .14281.0629.14281.1324 0 .0615-.03275.1126-.10874.1598l-.14019.0878c-.14806.0917-.19915.2057-.20177.3511h.61448v-.1389h-.42058c.0118-.0419.04586-.072.08648-.0969l.16508-.1022c.1022-.0629.16378-.1533.16378-.2634 0-.1454-.11137-.2672-.29873-.2672-.1926 0-.30265.1323-.30265.279 0 .0171.00262.0367.00393.0485z"/><path d="m7.20311 15.4529v-.6407h.16639c.16116 0 .29349.1048.29349.3223 0 .2149-.13364.3184-.2948.3184zm.17032.1441c.25156 0 .45333-.1651.45333-.4625 0-.2987-.19915-.4664-.45202-.4664h-.32886v.9289z"/><path d="m8.56529 15.597v-.1467h-.41664v-.2463h.37734v-.1429h-.37734v-.2463h.41664v-.1467h-.57386v.9289z"/><path d="m8.91123 15.597v-.3747h.37733v-.1454h-.37733v-.2608h.42057v-.148h-.5778v.9289z"/><path d="m9.58682 15.1725c0-.1074.01834-.19.06027-.2424.02882-.038.06944-.0629.13102-.0629.06157 0 .10088.0249.13102.0629.04061.0524.05895.135.05895.2424 0 .1075-.01834.19-.05895.2424-.03014.038-.06945.0629-.13102.0629-.06158 0-.1022-.0249-.13102-.0629-.04062-.0524-.06027-.1349-.06027-.2424zm-.15592 0c0 .1127.01835.2188.076.3053.05502.0825.14412.1389.27121.1389.12708 0 .21487-.0564.26989-.1389.0577-.0865.076-.1926.076-.3053s-.0183-.2188-.076-.3053c-.05502-.0825-.14281-.1388-.26989-.1388-.12709 0-.21619.0563-.27121.1388-.05765.0865-.076.1926-.076.3053z"/><path d="m19.1016 10.4883v-.1884h-.9688v.1884h.3835v.9939h.2001v-.9939z"/><path d="m19.4692 11.4822v-1.1823h-.2034v1.1823z"/><path d="m20.6014 10.4883v-.1884h-.9688v.1884h.3835v.9939h.2001v-.9939z"/><path d="m21.3625 11.4822h.2268l-.2668-.4869c.1651-.04.2668-.1684.2668-.3369 0-.2001-.1417-.3585-.3702-.3585h-.4535v1.1823h.2017v-.4669h.1468zm-.3952-.6437v-.3618h.2151c.1234 0 .2035.0717.2035.1817 0 .1084-.0801.1801-.2035.1801z"/><path d="m22.5333 11.4822v-.1868h-.5303v-.3135h.4802v-.1817h-.4802v-.3135h.5303v-.1868h-.7304v1.1823z"/><path d="m23.3872 11.2988v-.8155h.2117c.2051 0 .3736.1334.3736.4103 0 .2734-.1701.4052-.3752.4052zm.2167.1834c.3202 0 .577-.2101.577-.5886 0-.3802-.2535-.5937-.5753-.5937h-.4185v1.1823z"/><path d="m25.1208 11.4822v-.1868h-.5302v-.3135h.4802v-.1817h-.4802v-.3135h.5302v-.1868h-.7303v1.1823z"/><path d="m26.5517 10.5767c-.0267-.1317-.1351-.3018-.4135-.3018-.2202 0-.4019.1634-.4019.3619 0 .1767.1201.2951.3001.3318l.1668.035c.1017.0217.1584.0834.1584.1601 0 .0917-.0734.1634-.2151.1634-.1701 0-.2585-.1134-.2701-.2368l-.1868.0534c.0183.1701.1567.3635.4569.3635.2701 0 .4185-.1751.4185-.3585 0-.1668-.1117-.2985-.3201-.3402l-.1701-.035c-.0917-.02-.1384-.0767-.1384-.1518 0-.09.0834-.17.2034-.17.1584 0 .2201.1083.2318.1817z"/><path d="m27.4215 10.0098h-.2484l-.1701.2067h.1818zm.0818 1.4724v-.1868h-.5303v-.3135h.4802v-.1817h-.4802v-.3135h.5303v-.1868h-.7304v1.1823z"/><path d="m27.6139 11.1253c0 .2302.1467.3819.3785.3819.2251 0 .3719-.1751.3719-.3852v-.8221h-.2001v.8271c0 .1201-.0667.1918-.1735.1918-.1034 0-.1817-.0617-.1817-.2001v-.1101l-.1951.04z"/><path d="m28.7676 10.8902c0-.2851.1968-.4269.3952-.4269.2001 0 .3969.1418.3969.4269 0 .2852-.1968.4269-.3969.4269-.1984 0-.3952-.1417-.3952-.4269zm-.2051 0c0 .3886.2901.617.6003.617.3101 0 .602-.2284.602-.617 0-.3868-.2919-.6153-.602-.6153-.3102 0-.6003.2285-.6003.6153z"/><path d="m30.4029 11.5072c.2485 0 .4419-.1517.4419-.4369v-.7704h-.2001v.7587c0 .1668-.09.2585-.2418.2585-.1501 0-.2418-.0917-.2418-.2585v-.7587h-.1984v.7704c0 .2852.1934.4369.4402.4369z"/><path d="m31.7113 11.4822h.2268l-.2668-.4869c.165-.04.2668-.1684.2668-.3369 0-.2001-.1418-.3585-.3702-.3585h-.4536v1.1823h.2018v-.4669h.1467zm-.3952-.6437v-.3618h.2151c.1234 0 .2034.0717.2034.1817 0 .1084-.08.1801-.2034.1801z"/></g><rect fill="#e0e0e0" height=".833152" rx=".416576" width="15.6824" x="19.8906" y="15.1172"/><rect fill="#e0e0e0" height=".833155" rx=".416577" width="12.3559" x="19.8906" y="21.3066"/><rect fill="#e0e0e0" height=".833155" rx=".416577" width="13.1875" x="33.3125" y="21.3066"/><rect fill="#e0e0e0" height=".833152" rx=".416576" width="12.1182" x="19.8906" y="24.1631"/><rect fill="#e0e0e0" height=".833153" rx=".416576" width="16.5141" x="19.8906" y="29.043"/><rect fill="#e0e0e0" height=".833152" rx=".416576" width="13.1875" x="33.3125" y="24.1631"/><rect fill="#c6c6c6" height="1.42826" rx=".714131" width="4.87106" x="19.8906" y="16.4268"/><rect fill="#c6c6c6" height="1.42826" rx=".71413" width="4.87106" x="19.8906" y="18.6885"/><rect fill="#c6c6c6" height="1.42826" rx=".71413" width="1.54448" x="19.8906" y="22.3779"/><rect fill="#c6c6c6" height="1.42826" rx=".71413" width="2.97016" x="24.7656" y="22.3779"/><rect fill="#c6c6c6" height="1.42826" rx=".71413" width="2.01971" x="36.7578" y="22.3779"/><rect fill="#c6c6c6" height="1.42826" rx=".71413" width="2.0197" x="39.8516" y="22.3779"/><rect fill="#c6c6c6" height="1.42826" rx=".714129" width="2.01971" x="36.7578" y="25.2344"/><rect fill="#c6c6c6" height="1.42826" rx=".714129" width="14.3756" x="19.8906" y="25.2344"/><rect fill="#c6c6c6" height="1.42826" rx=".714131" width="15.6824" x="19.8906" y="27.0195"/><rect fill="#c6c6c6" height="1.42826" rx=".714129" width="9.02928" x="19.8906" y="30.2334"/><rect fill="#c6c6c6" height="1.42826" rx=".714129" width="9.02928" x="19.8906" y="36.542"/><rect fill="#c6c6c6" height="2.02337" rx="1.01168" width="7.72241" x="38.7812" y="34.2803"/><rect fill="#c6c6c6" height="1.42826" rx=".714129" width="2.0197" x="39.8516" y="25.2344"/><rect fill="#c6c6c6" height="1.42826" rx=".714129" width="3.56419" x="42.9375" y="25.2344"/><rect fill="#c6c6c6" height="1.42826" rx=".71413" width="3.56419" x="42.9375" y="22.3779"/></g><rect height="31.4696" rx="2.5" stroke="#ddd" width="49" x=".5" y="8.07129"/></svg>