<svg fill="none" height="48" viewBox="0 0 50 48" width="50" xmlns="http://www.w3.org/2000/svg" xmlns:xlink="http://www.w3.org/1999/xlink"><filter id="a" color-interpolation-filters="sRGB" filterUnits="userSpaceOnUse" height="44.4006" width="35.5568" x="15.9403" y="1.82607"><feFlood flood-opacity="0" result="BackgroundImageFix"/><feBlend in="SourceGraphic" in2="BackgroundImageFix" mode="normal" result="shape"/><feGaussianBlur result="effect1_foregroundBlur_24715_17999" stdDeviation="3.48296"/></filter><clipPath id="b"><rect height="30.4688" rx="2" width="48" x="1" y="8.79199"/></clipPath><g clip-path="url(#b)"><path d="m1 10.5063c0-.9468.76751-1.71431 1.71429-1.71431h44.57141c.9468 0 1.7143.76751 1.7143 1.71431v27.0402c0 .9467-.7675 1.7142-1.7143 1.7142h-44.57142c-.94677 0-1.71428-.7675-1.71428-1.7142z" fill="#f7cdd4"/><path d="m1 10.5063c0-.9468.76751-1.71431 1.71429-1.71431h44.57141c.9468 0 1.7143.76751 1.7143 1.71431v27.0402c0 .9467-.7675 1.7142-1.7143 1.7142h-44.57142c-.94677 0-1.71428-.7675-1.71428-1.7142z" fill="#f7cdd4"/><g filter="url(#a)"><path d="m22.9062 8.79199h21.6217v30.46871h-21.6217z" fill="#c1e3f2"/></g><path d="m16.8594 16.4453h3.31532v.722008h-3.31532z" fill="#6bb8dc"/><path d="m16.8594 18.1777h3.31531v.722007h-3.31531z" fill="#6bb8dc"/><path d="m16.8594 19.9111h8.21622v.722008h-8.21622z" fill="#6bb8dc"/><path d="m16.8594 21.6436h12.2522v.722006h-12.2522z" fill="#6bb8dc"/><path d="m16.8594 23.377h7.20721v.722011h-7.20721z" fill="#6bb8dc"/><path d="m16.8594 25.1094h5.04505v.72201h-5.04505z" fill="#6bb8dc"/><g opacity=".2"><path d="m48.0169 25.633c-.4874-.6719-.5395-1.3768-.1467-2.1102.336-.6293.1657-1.3011-.4164-1.7033-.672-.4589-.9654-1.0976-.8471-1.9114.1041-.7192-.2934-1.2917-.9891-1.4667-.7619-.194-1.2494-.6813-1.4292-1.4478-.1893-.8043-.6767-1.1592-1.5002-1.093-.7761.0615-1.3819-.2507-1.7983-.9084-.4023-.6292-1.0506-.8185-1.7179-.5015-.7666.3643-1.3677.2035-2.0775-.1751-.601-.3264-1.1595-.5393-1.7037.0237-.601.6245-1.3062.7996-2.1343.5252-.62-.2082-1.2541.0946-1.5381.6813-.4354.9037-1.131 1.0409-2.0397 1.2491-.5631.1277-.9322.5961-.9796 1.1686-.0662.8516-.5016 1.4099-1.2872 1.7269-.4543.1798-.7335.5299-.7666 1.0173-.0332.5015.1987.9462.0993 1.4572-.0804.4164-.3123.8185-.6246 1.0788-.5585.4826-.62 1.1686-.1893 1.7742.4637.6482.5111 1.3437.1419 2.0487-.3502.6718-.1893 1.3153.4354 1.7506.6531.4542.937 1.0882.8187 1.883-.1041.7003.284 1.3059.956 1.4715.8045.1987 1.2967.7097 1.4765 1.514.1562.705.6625 1.0977 1.3819 1.0362.8518-.071 1.5001.2413 1.9497.9746.2887.4779.8471.705 1.3677.5441.4259-.1325.8376-.4069 1.273-.3596.1231.0142.2556.0473.3881.0899.2508.0852.4922.2224.6815.3691.5962.4684 1.2683.4211 1.7983-.1183.5442-.5536 1.202-.7286 1.9497-.5015.7951.246 1.3488-.0048 1.699-.7476.3265-.6908.8897-1.074 1.6563-1.1024.7762-.0284 1.2636-.4778 1.3251-1.2491.0663-.7948.4685-1.372 1.221-1.6465.6247-.2271 1.0033-1.003.7856-1.6228-.1136-.317-.1562-.6435-.0331-.9888.1419-.388.3123-.7334.6294-1.0031.5205-.4542.5915-1.1592.1845-1.7269zm-11.0455 9.122c-5.2246 0-9.4601-4.2346-9.4601-9.4579 0-5.2234 4.2355-9.458 9.4601-9.458s9.4602 4.2346 9.4602 9.458c0 5.2233-4.2356 9.4579-9.4602 9.4579z" fill="#de6b8a"/><path d="m36.9614 15.7539c-5.2771 0-9.5552 4.2857-9.5552 9.5722s4.2781 9.5723 9.5552 9.5723 9.5552-4.2858 9.5552-9.5723-4.2781-9.5722-9.5552-9.5722zm.0335 18.1868c-4.7322 0-8.5705-3.8452-8.5705-8.5858 0-4.7407 3.8383-8.5858 8.5705-8.5858 4.7321 0 8.5704 3.8451 8.5704 8.5858 0 4.7406-3.8383 8.5858-8.5704 8.5858z" fill="#efacbb"/><path d="m42.7352 25.4842c-.2532-.3487-.2819-.7166-.0764-1.0988.1768-.3296.086-.6783-.2198-.8885-.3536-.2389-.5065-.5733-.4443-.9984.0525-.3727-.1529-.6736-.5161-.7644-.3965-.1003-.6498-.3583-.7453-.7548-.1004-.4204-.3536-.6067-.7836-.5732-.4061.0334-.7215-.129-.9365-.473-.2102-.3296-.5447-.4299-.8935-.2675-.4013.1911-.7166.1051-1.0845-.0908-.3154-.1672-.6068-.2818-.8935.0144-.3154.3248-.6833.4204-1.1133.2723-.3249-.1099-.6546.0477-.8027.3583-.2293.4729-.5877.5446-1.0655.6496-.2914.0669-.4873.3106-.5112.6067-.0334.4443-.2628.7357-.6737.9029-.2389.0956-.3822.2771-.4013.5303-.0192.2627.1051.4968.0525.7596-.043.2149-.1624.4251-.3249.5637-.2914.2532-.3249.6115-.1003.9267.2437.3392.2675.7023.0716 1.0701-.1815.3535-.1003.6879.2246.9125.3392.2388.4874.5685.4252.9841-.0525.3678.1482.6831.497.7691.4204.1051.6784.3726.7692.793.0812.3678.3488.5733.7215.5398.4443-.0382.7836.1242 1.0177.5112.1529.2484.4443.3678.7167.2818.2245-.0716.4348-.2149.6641-.1863.0669.0096.1338.0239.2007.0478.129.0478.258.1146.3535.1959.3106.2436.6642.2197.9413-.0621.2819-.2867.6307-.3822 1.0177-.2628.4157.129.7024 0 .8887-.3917.172-.3631.4635-.5589.8648-.5781.4061-.0143.6594-.2484.6928-.6544.0335-.4156.2437-.7166.6355-.8599.3249-.1194.5256-.5255.4109-.8504-.0573-.1672-.0812-.3344-.0143-.5159.0716-.2006.1624-.3822.3296-.5255.2819-.2293.3202-.5971.1051-.8933zm-5.7669 4.7628c-2.7282 0-4.9404-2.2118-4.9404-4.9396 0-2.7277 2.2122-4.9396 4.9404-4.9396s4.9404 2.2119 4.9404 4.9396c0 2.7278-2.2122 4.9396-4.9404 4.9396z" fill="#de6b8a"/><path d="m36.9665 20.2881c-2.7771 0-5.029 2.2559-5.029 5.038s2.2519 5.038 5.029 5.038c2.7772 0 5.0291-2.2559 5.0291-5.038s-2.2519-5.038-5.0291-5.038z" fill="#efacbb"/></g><path d="m49 37.2607c0 1.1046-.8954 2-2 2h-44c-1.10457 0-2-.8954-2-2v-2.7652h48z" fill="#ddf2f9"/><g fill="#073099"><path d="m17.2416 11.1625v-.6267h.3365c.213 0 .3427.1204.3427.3149 0 .1883-.1297.3118-.3427.3118zm.389.3674c.4322 0 .7193-.284.7193-.6823 0-.3951-.2871-.6822-.7193-.6822h-.8181v2.1888h.426v-.8243z"/><path d="m18.8568 11.4218c.0092-.1389.1265-.2994.3396-.2994.2346 0 .3334.1482.3395.2994zm.7193.3952c-.0494.1358-.1544.2315-.3458.2315-.2037 0-.3735-.1451-.3828-.3457h1.0867c0-.0062.0062-.0679.0062-.1266 0-.4878-.281-.7872-.7502-.7872-.389 0-.7471.3149-.7471.7995 0 .5125.3674.812.7841.812.3736 0 .6144-.2192.6915-.4816z"/><path d="m21.1898 10.8291c-.0309-.0031-.0617-.0062-.0957-.0062-.1296 0-.3396.0371-.4322.2377v-.2253h-.3982v1.5189h.4106v-.6947c0-.3272.1821-.4291.392-.4291.0371 0 .0772.0031.1235.0124z"/><path d="m21.8892 12.3542v-.8891c0-.1667.105-.2995.284-.2995.1853 0 .2686.1235.2686.2871v.9015h.4075v-.8891c0-.1637.105-.2995.2809-.2995.1884 0 .2686.1235.2686.2871v.9015h.3983v-.9848c0-.4075-.2686-.5773-.5495-.5773-.2007 0-.3612.0679-.4816.2531-.0772-.1636-.2439-.2531-.4508-.2531-.1667 0-.3612.0802-.4445.2284v-.1852h-.3921v1.5189z"/><path d="m24.6236 12.3542v-1.5189h-.4106v1.5189zm-.46-2.0159c0 .1358.1143.25.2532.25.142 0 .2531-.1142.2531-.25 0-.142-.1111-.2563-.2531-.2563-.1389 0-.2532.1143-.2532.2563z"/><path d="m24.9335 11.9312c.0186.1729.176.4693.6329.4693.3982 0 .5896-.2532.5896-.5002 0-.2222-.1512-.4044-.4507-.4661l-.2161-.0463c-.0833-.0155-.1389-.0618-.1389-.1359 0-.0864.0864-.1512.1945-.1512.1729 0 .2377.1142.25.2037l.3427-.0771c-.0185-.1637-.1636-.4384-.5958-.4384-.3272 0-.568.2253-.568.497 0 .213.1327.389.426.4538l.2006.0463c.1174.0247.1637.0803.1637.1482 0 .0803-.0649.1513-.2007.1513-.1791 0-.2686-.1112-.2778-.2316z"/><path d="m28.6967 10.1191h-.4044v.8675c-.0432-.0803-.1667-.1884-.4291-.1884-.4291 0-.7285.3489-.7285.7934 0 .46.3087.7996.7409.7996.2037 0 .3581-.0926.426-.213 0 .071.0093.1451.0154.176h.3921c-.0062-.0618-.0124-.1729-.0124-.2748zm-1.1484 1.4725c0-.2716.1667-.426.3767-.426.2099 0 .3735.1513.3735.4229 0 .2748-.1636.4353-.3735.4353-.2161 0-.3767-.1605-.3767-.4322z"/><path d="m29.4416 11.4218c.0093-.1389.1266-.2994.3396-.2994.2346 0 .3334.1482.3396.2994zm.7193.3952c-.0494.1358-.1543.2315-.3457.2315-.2038 0-.3736-.1451-.3828-.3457h1.0866c0-.0062.0062-.0679.0062-.1266 0-.4878-.2809-.7872-.7502-.7872-.389 0-.7471.3149-.7471.7995 0 .5125.3674.812.7842.812.3735 0 .6143-.2192.6915-.4816z"/><path d="m32.2935 11.1687c.2038 0 .2995.1297.3365.2562l.3674-.1235c-.0649-.2562-.2995-.5124-.7132-.5124-.4414 0-.7872.3365-.7872.8057 0 .4662.352.8058.7996.8058.4044 0 .6421-.2594.71-.5125l-.3612-.1204c-.0339.1173-.1389.2562-.3488.2562s-.389-.1543-.389-.4291c0-.2747.176-.426.3859-.426z"/><path d="m33.9757 12.0269c-.2006 0-.3858-.1482-.3858-.4322 0-.2871.1852-.4322.3858-.4322.2007 0 .3859.1451.3859.4322s-.1852.4322-.3859.4322zm0-1.2379c-.4538 0-.7964.3365-.7964.8057 0 .4662.3426.8058.7964.8058.4539 0 .7965-.3396.7965-.8058 0-.4692-.3426-.8057-.7965-.8057z"/><path d="m35.5069 11.4805c0-.176.105-.3149.284-.3149.1976 0 .281.1328.281.3025v.8861h.4105v-.9571c0-.3334-.1728-.6019-.5495-.6019-.1636 0-.3457.071-.4383.2284v-.1883h-.3983v1.5189h.4106z"/><path d="m38.347 10.1191h-.4044v.8675c-.0432-.0803-.1667-.1884-.4291-.1884-.4291 0-.7286.3489-.7286.7934 0 .46.3087.7996.7409.7996.2038 0 .3581-.0926.4261-.213 0 .071.0092.1451.0154.176h.3921c-.0062-.0618-.0124-.1729-.0124-.2748zm-1.1484 1.4725c0-.2716.1667-.426.3766-.426.21 0 .3736.1513.3736.4229 0 .2748-.1636.4353-.3736.4353-.2161 0-.3766-.1605-.3766-.4322z"/><path d="m39.7804 12.3542h.3921c-.0062-.0525-.0154-.1575-.0154-.2748v-1.2441h-.4106v.8829c0 .176-.105.2995-.2871.2995-.1914 0-.2779-.1359-.2779-.3057v-.8767h-.4105v.9601c0 .3303.2099.5989.5772.5989.1606 0 .3365-.0618.4199-.2038 0 .0618.0062.1328.0123.1637z"/><path d="m41.0058 12.3542v-1.5189h-.4105v1.5189zm-.4599-2.0159c0 .1358.1142.25.2531.25.142 0 .2531-.1142.2531-.25 0-.142-.1111-.2563-.2531-.2563-.1389 0-.2531.1143-.2531.2563z"/><path d="m42.3716 10.8291c-.0309-.0031-.0618-.0062-.0957-.0062-.1297 0-.3396.0371-.4322.2377v-.2253h-.3983v1.5189h.4106v-.6947c0-.3272.1821-.4291.3921-.4291.037 0 .0771.0031.1235.0124z"/><path d="m42.9447 11.4218c.0093-.1389.1266-.2994.3396-.2994.2346 0 .3334.1482.3396.2994zm.7193.3952c-.0494.1358-.1543.2315-.3457.2315-.2038 0-.3736-.1451-.3828-.3457h1.0866c0-.0062.0062-.0679.0062-.1266 0-.4878-.2809-.7872-.7501-.7872-.389 0-.7471.3149-.7471.7995 0 .5125.3673.812.7841.812.3735 0 .6143-.2192.6915-.4816z"/></g><path d="m0 0h11.2433v14.5333h-11.2433z" fill="#fff" transform="matrix(-1 0 0 1 13.9688 16.4219)"/><path d="m7.20106 26.267c-.67745-.8017-1.13936-1.7885-1.06237-2.8909.22325-3.1685 4.64211-2.4747 5.50431-.8712.8623 1.6036.7545 5.6586-.3541 5.9516-.4465.1156-1.3857-.1619-2.348-.7478l.63127 3.2301h-3.56436z" fill="#cb7a43"/><path d="m4.58365 22.3203c-.11547-.1157-.17706-.2776-.23095-.4318-.05389-.1619-.10777-.3238-.14627-.4856-.07698-.3315-.07698-.717.16167-.9791.19246-.2082.4773-.3007.73905-.3238.17706-.0154.35412.0077.52349.0694.16936.0539.31563.1619.4773.2313.0077-.3624.06928-.7324.24635-1.0408.17706-.2929.4542-.4625.77754-.5011.32333-.0462.64666.0308.9392.1927.07699.0386.14627.0848.21556.1311.06158.0385.11547.0848.18476.1002.07698.0154.11547-.0231.16166-.0848.06159-.0617.12318-.1233.19246-.1696.30794-.2236.70826-.3161 1.06238-.185.16165.0617.32335.1696.43115.3161.1.131.1693.3315.3079.424.0616.0385.1001-.0154.154-.0463.077-.0539.1539-.1156.2309-.1696.1155-.0771.231-.131.3618-.1619.1925-.0462.4543-.0308.5081.2159.0231.0925.0077.1927 0 .2852-.0077.1311-.0154.2621-.0308.3855-.0077.1002-.023.1927-.0384.2929-.0077.054-.0385.1465-.0154.2005.0308.0617.1539.0308.2078.0308.1078.0077.2156.0231.3156.0694.077.0385.1617.0848.1925.1773.0231.054.0154.1079.0077.1619-.0077.0694 0 .1002.0077.1696.1463-.0694.6467-.2313.7083.0308.0231.0848-.0231.1851-.0616.2544-.0616.1311-.1463.2467-.231.3547-.177.2312-.3926.4317-.6236.6013.2695.1156.3388.4703.1078.6784-.1001.0925-.2386.1156-.3695.1079-.0462 0-.1155-.0231-.154-.0154-.0231.0077-.0385.0231-.0693.0231-.1847.0155-.3926-.0308-.5696-.0693-.3157-.0694-.6236-.2236-.87-.4549-.0615-.0617-.1154-.0925-.2001-.0925-.077 0-.1463.0231-.22326.0231-.20016.0077-.37723-.0925-.55429-.1542-.0077.2467-.08468.5166-.18476.7401-.08468.1851-.25405.2082-.42341.2236-.53889.054-1.08548-.0077-1.62437-.0077.5235.1156 1.07008.1696 1.58587.3084.23866.0616.05389.2235-.04619.3315-.16166.1773-.28484.4008-.37722.6398-.25404-.3315-.70825-.555-1.10857-.4548-.4465.1156-.75444.7169-.4696 1.1486.16167.2467.46191.347.70825.4549-.19246.2004-.23865.4934-.35412.7478-.05389.1233-.13857.2621-.26945.3084-.04619.0154-.10008.0154-.13857.0539-.04619.0463-.05389.1002-.11547.1388-.23865.1619-.60818.1542-.81603-.0617-.19246-.1927-.13858-.5011.01539-.6938-.25404-.1079-.70825-.239-.60817-.6322-.54659-.0385-1.87071-.9174-1.13936-1.5649-.40032-.2236-.76984-.7787-.5158-1.2721.20786-.3777.66976-.5473 1.04698-.5704z" fill="#3a3a3a"/><path d="m11.8545 24.6484c.2925.0771.3618.4086.4696.5936.1077.1851.3233.5551.4311.7478.1078.1851.1078.1851.0693.3315-.2156.2621-.5081.1851-.8315.2544-.1462-.0385-.3233.0694-.4696.0309" fill="#cb7a43"/><path d="m11.4431 24.7479c.0847 0 .1463-.0692.1463-.1537 0-.0846-.0693-.1538-.1463-.1538-.0846 0-.1462.0692-.1462.1538 0 .0845.0616.1537.1462.1537z" fill="#3a3a3a"/><path d="m11.4623 27.2388c.1617.0539.3387.0694.5004.0462-.1848-.0539-.3541-.1156-.5081-.2081-.077-.0463-.154-.0925-.2233-.1542-.0385-.0308-.0769-.0617-.1154-.1002-.0231-.0309-.0539-.054-.0847-.0848l-.0077-.0077c-.0385-.0309-.0924-.0232-.1232.0154-.0385.0385-.0308.1002.0077.1388l.0077.0077c.0693.0539.1309.131.2002.2158.0692.0848.1539.1773.2463.2313.1848.1311.3849.2004.5928.2621-.0847-.0694-.1694-.131-.2541-.1927-.0923-.0463-.1693-.1079-.2386-.1696z" fill="#3a3a3a"/><path d="m11.3302 24.1545c.0616 0 .1309 0 .2079-.0077.0693-.0077.1463-.023.2232-.0615-.0692-.0384-.1308-.0692-.2001-.0922-.0693-.0231-.1386-.0385-.2156-.0385-.1539-.0077-.331.0692-.4003.2153l.2156-.0154z" fill="#3a3a3a"/><path d="m4.02344 9.94727h7.78378v4.33205h-7.78378z" fill="#073099"/><path d="m14.5469 12.4023h34.3784" stroke="#073099" stroke-width=".232197"/><path d="m1 34.4951h48" stroke="#073099" stroke-width=".232197"/><path d="m1 34.207h48" stroke="#073099" stroke-width=".232197"/><path d="m7.8204 13.6767v-1.0549h1.0429v-.5731h-1.04688v-.5971h1.19018v-.5971h-1.8191v2.8222z" fill="#fff"/></g><rect height="31.4688" rx="2.5" stroke="#ddd" width="49" x=".5" y="8.29199"/></svg>