<svg fill="none" height="274" viewBox="0 0 207 274" width="207" xmlns="http://www.w3.org/2000/svg"><path d="m157.949 94.0862c1.695 2.4291-.527 4.4251-.79 6.6288-.217 1.798-.97 3.54-1.479 5.31-1.214.574-2.401.339-3.577-.123-4.52-1.76-8.587-4.255-12.118-7.6072-1.186-1.1298-2.118-2.4197-1.911-4.2086.65-2.1466 1.337-4.2745 3.041-5.8751 1.977-.5272 3.154 1.1016 4.642 1.8077 3.907 1.8737 7.956 3.2577 12.192 4.0674z" fill="#0421b1"/><path d="m69.6726 221.079c-2.6545 2.816-1.8961 6.213-1.2392 9.462h28.2193c1.3228-2.538.5489-3.797-2.2766-4.175-5.885-.774-10.9152-3.825-16.1523-6.326-2.9156-.027.784-.701-1.9605.568z" fill="#212121"/><path d="m28.6006 231.482c1.7097-2.699.4499-3.59-2.1956-4.184-5.4711-1.224-10.9512-2.547-15.1445-6.722-3.24849.27-6.51494.468-9.62842 1.584-2.55558 2.276-1.295789 5.282-1.484758 8.008-.026995.432.143976.882.224963 1.323h28.219315z" fill="#212121"/><path d="m77.8547 215.081c-2.0697-.036-4.1303-.063-6.2-.117-1.1968-.027-2.3486-.018-2.6725 1.503.2159 1.584.4319 3.167.6479 4.751 2.9695.405 5.885.396 8.5935-1.179-.1259-1.655-.2519-3.302-.3779-4.958z" fill="#ffcaa7"/><path d="m12.5564 217.265c-3.0595-1.395-6.27197-.414-9.40345-.621-.50391 1.835-1.01682 3.671-1.52074 5.516 3.36544.405 6.64989.315 9.62839-1.584.4319-1.098.8639-2.205 1.2958-3.311z" fill="#ffcaa7"/><path d="m157.396 269.094.452-10.93-10.859-.922c-5.502 3.188-12.524 5.612-21.053 7.113l-.174 2.052 19.83 1.684 6.861-.53-.094 1.105z" fill="#0421b1"/><path d="m206.037 266.536-3.141-12.218-11.476 2.46c-4.607 5.284-11.031 10.211-19.309 14.602l.497 2.322 20.956-4.492 6.883-2.784.268 1.251z" fill="#0421b1"/><path d="m48.0081 33.9795c17.0415.9886 33.9606.5743 50.4561-4.4911 1.6948-.5178 2.5518-.3012 2.7118 1.5347 1.6 1.9866 2.062 4.2275 1.459 6.7037-.132 1.3557.593 2.768-1.177 3.8696-12.3525 7.6263-24.8465 14.8855-39.3648 17.6253-1.5158 1.4029-3.3895 1.7041-5.3478 1.7229-4.0486.2542-4.0486.2542-3.2671 4.2934 2.2031 11.3547 3.8414 22.7471 2.6739 34.3655-.3295 1.4315-.7155 2.8525-1.158 4.2555-2.5233 8.107-6.5248 11.054-15.0832 11.11-1.9584.01-3.9262.132-5.8657-.028-2.6362-.226-4.9995.424-7.2403 1.732.339-2.664-1.2522-3.135-3.3141-2.758-4.0015.734-4.9054-1.206-5.0654-4.84-1.0828-25.2985 4.83-49.0719 15.1867-71.9226.8003-1.77 1.7324-3.2953 3.9921-3.2012 3.4553-1.6288 6.9295-1.6947 10.4038.0283z" fill="#e8140f"/><path d="m157.949 94.0863c2.712-1.949 1.977-5.169 2.778-7.8052.734-2.4292-.349-5.7622 3.691-6.2517.301-.0377.489-1.0263.725-1.5724 2.673 1.7324 5.564 1.2334 8.445.8191 8.379 6.393 9.999 16.3166 13.049 25.4309 1.168 3.464 1.545 7.174 1.554 10.884.019 4.67 2.043 8.793 3.719 12.993 2.344 5.875 3.841 11.825 3.088 18.256-.367 3.097-1.111 5.941-2.919 8.492-3.832-1.798-7.711-.452-11.505 0-7.165.866-14.302 1.573-21.523 1.008-1.638-.264-3.314-.433-4.548-1.742-4.444-4.557-5.479-10.3-5.432-16.326.019-2.429-.575-3.437-3.239-3.606-10.611-.65-20.224-4.68-29.696-9.161-2.41-1.139-1.478-3.032-1.591-4.745-.113-2.062.038-4.087.791-6.026 1.299-2.26 1.996-4.802 3.286-7.071 1.375-1.412 2.938-.885 4.435-.358 3.803 1.318 7.692 2.373 11.571 3.427 4.114 1.243 8.398 1.563 12.626 2.034 3.869.433 5.291-.659 6.458-4.312.302-.932.575-1.874.942-2.778 1.393-3.785 2.316-7.6918 3.295-11.5897z" fill="#0a54bf"/><path d="m158.693 155.511c9.613.668 19.057-1.036 28.557-2.034 1.723-.179 4.349-1.647 4.839 1.846-.828 34.017 3.738 67.394 11.797 100.366.264 1.092 2.015 2.881-.819 3.323-3.182 1.742-10.47 1.403-13.793.942-2.109-.687-.104-3.503-.942-5.499-6.11-14.433-10.884-28.066-15.723-42.989-.395-1.224-.047-3.136-2.024-3.531-2.081-5.527-3.503-11.251-5.047-16.929-2.758-10.102-5.235-20.28-7.193-30.571-.33-1.647-1.007-3.371.348-4.924z" fill="#e8140f"/><path d="m26.7862 116.664c.3766-2.109 1.4876-2.957 3.7378-2.806 3.1824.217 6.393.057 9.5847.057 8.1442 0 11.383-2.477 13.9345-10.357.4049-1.252.2166-2.74 1.2899-3.7757 2.0054-1.3275 4.1145-1.1392 6.2611-.4237.3955.2072.6214.5367.6779.9794-4.1991 13.285-7.7958 26.767-12.3339 39.949-.5084 1.468-.6591 3.154-2.0808 4.18-9.9613 24.724-22.7283 48.14-33.8947 72.299-3.9356-.066-7.87114-.122-11.80669-.188 4.94298-13.464 9.88599-26.918 14.81949-40.382.7627-2.071 1.337-4.227 2.2409-6.233 6.3741-14.179 6.6188-29.337 7.2214-44.449.1318-2.947.2354-5.903.3484-8.85z" fill="#0a54bf"/><path d="m47.8669 144.467c2.834-9.368 5.6774-18.727 8.502-28.095 1.3746-4.566 2.7492-9.133 4.0485-13.727.2731-.97.2825-1.987 1.61-2.072 2.6739.095 3.4272 1.761 3.3518 4.105 3.8038 30.035 7.6075 60.079 11.4301 90.113.9321 7.325 1.9866 14.632 2.9752 21.947-3.9073 1.883-7.824 1.808-11.7502.038-2.4668-11.025-5.8939-21.787-8.9256-32.652-3.6719-13.228-7.4851-26.438-11.2418-39.657z" fill="#0421b1"/><path d="m158.693 155.511c1.168 9.999 3.87 19.668 6.308 29.385 1.61 6.412 3.531 12.739 5.395 19.085.396 1.346.415 2.626.179 3.963-2.815 12.014-5.611 24.037-8.445 36.051-.753 3.211-1.714 6.374-2.373 9.604-.48 2.391-1.111 4.623-3.097 6.214-3.042-.819-6.356.15-9.274-1.441-1.808.292-1.921-.81-1.94-2.203-.226-19.461.028-38.913 1.817-58.318 1.347-14.593 3.503-29.055 7.25-43.244 1.506-.216 2.806.518 4.18.904z" fill="#b30436"/><path d="m134.411 111.58c-3.973-1.149-7.946-2.298-11.91-3.465-1.252-.367-2.514-1.111-3.672.188-4.218.631-3.973-3.512-5.715-5.517-3.295 3.145-5.216 2.787-11.176-1.996-3.1822-9.5566-4.3496-19.5179-5.8937-29.4038-.2448-1.5535.0188-2.8246 1.9677-3.3236 8.502-2.2032 17.004-4.4252 25.44-6.8637 2.504-.725 3.276-.1224 3.559 2.3632.584 5.2066 1.431 10.3756 2.165 15.5633 1.356 2.1467 2.279 4.7359 1.055 6.8638-1.384 2.4197-.028 2.6268 1.497 3.1917.791.2919 1.648.4802 2.062 1.3558-.141 2.8245 2.043 4.5852 3.173 6.826 1.148 2.2973 2.674 4.3783 4.077 6.5243 2.485 3.823 2.212 4.567-2.091 6.375-1.478.63-2.994.988-4.538 1.318z" fill="#fff"/><path d="m154.24 60.7093c-4.727-.4237-.923-4.4816-2.608-6.2423-.16-.1695.518-1.111.358-1.2993-3.484-3.992.282-5.9598 2.316-8.3701.452-.5366 1.233-1.2805 1.76-1.1957 3.766.5461 7.645-2.2126 11.27.3295 1.168.8191 2.42.5838 3.54.5744 5.584-.0659 9.34 2.9092 13.427 6.374 4.698 3.9826 3.549 8.389 3.54 13.2755-.01 2.7492-.782 5.1218-1.177 7.6734-.254 1.6382-1.045 3.2765-2.58 3.0882-3.314-.4143-7.137.932-9.792-2.3256-1.44.612-2.674.3954-3.465-1.0357-.743-1.3558-1.129-2.7586.01-4.1333.31-.3766.64-.7532.904-1.1674.63-1.0075.96-2.0996.122-3.0788-.876-1.0169-2.062-.8285-3.013-.1318-2.664 1.9301-3.954.5461-5.018-1.8548-2.232-4.9901-4.388-5.3573-7.787-1.4123-.489.5178-.885 1.224-1.807.9321z" fill="#49220a"/><path d="m65.3885 104.688c-.5837-1.808-1.883-3.032-3.3518-4.105-.0094-.217-.0189-.443-.0283-.6593 4.2369-2.0337 4.1992-2.0148 2.7587-6.8072-2.834-9.4434-5.8469-18.8304-8.1065-28.4339-.3578-1.5253-1.0733-3.0788-.113-4.6511 1.8454-.2731 3.6908-.5461 5.5362-.8192 3.6719 14.6595 10.6862 27.7561 18.6515 40.4289.9792 1.5538 1.8548 3.2108 3.0317 4.5848 1.5911 1.855.2918 2.43-1.0734 3.107-1.61 2.345-4.1615 2.929-6.6754 3.588-1.4122 1.073-2.3067.113-3.4083-.706-2.4197-1.827-4.0579-4.68-7.2214-5.527z" fill="#b30436"/><path d="m48.0081 33.9796c-3.4742-.0188-6.9484-.0283-10.4227-.0471.7439-3.6626 1.4876-7.3345 2.2314-10.997.6497-1.9301 1.7607-3.719 1.5253-5.9127-.1036-.9886.3201-2.1279 1.1769-2.5516 3.107-1.5535 5.1313-4.4157 7.8711-6.32695 2.1467-1.49701 4.7829-1.60061 7.1932-.02827 1.8737 3.82262 1.3182 8.49252 4.2369 11.96672.4331.5179.3577 1.7136-.2825 2.0148-2.5138 1.1864-2.4762 3.672-3.2576 5.781-.8474 2.3067-2.5045 3.2294-4.9242 2.5045-1.9489-.5838-3.8885-1.224-5.8751-1.8454-.6214 1.9395.0942 3.6813.5273 5.442z" fill="#ffcaa7"/><path d="m154.24 60.7093c.48-.6967.998-1.3745 1.45-2.0901.847-1.3558 1.76-3.4083 3.342-2.9564 2.043.5932 4.689 1.0922 5.339 3.8696.64 2.721 1.064 5.3761 4.623 2.109.894-.8191 3.088-.8096 3.992.6309 1.035 1.6571.847 3.4742-.622 5.056-2.335 2.5327-1.619 4.4157 1.921 5.2442-3.474 1.8831-.188 4.4817-.697 6.6848-2.608 2.3444-7.297 1.8925-8.445-.8191-.019-1.0733.499-2.1655-.085-3.2953-1.13.4707-2.231.9791-3.371 1.3934-4.378 1.5723-5.432 1.0169-6.901-3.493-.292-.9039-.367-1.8831-1.384-2.4574-1.516-.8568-1.601-2.0713-.461-3.3236 1.77-1.9301 1.534-4.2368 1.299-6.553z" fill="#cb7a43"/><path d="m57.5831 8.10654c-4.4252-.58374-8.163.28248-10.3473 4.72646-.3766.7626-1.2334 1.0827-2.1467 1.2051-2.4385.3201-3.4083 1.9302-2.9187 4.1427.5272 2.3821-.5649 3.6719-2.3538 4.7547-5.0183-4.2086-6.553-8.9727-4.6041-14.31113 2.448-6.71305 5.3667-8.784357 12.7106-8.61488289 3.5401.07532169 7.0708.56489889 10.6109.80969389 2.7399.197719 3.5496 1.497019 2.4291 4.001469-.6873 1.5535-2.2219 2.23139-3.38 3.28589z" fill="#ac5419"/><path d="m101.938 100.78c2.636.386 4.595 2.213 6.93 3.23 1.327.574 2.674 1.036 2.683-1.318 0-.725-.574-1.912.763-2.053.969-.103 1.44.838 1.845 1.582 1.243 2.269 1.365 5.395 4.661 6.073-.396 2.391-1.083 4.66-2.825 6.459-3.907.583-7.024-.961-9.716-3.625-1.874-1.94-3.87-3.757-4.699-6.497-.414-1.384-.48-2.627.358-3.851z" fill="#cb7a43"/><path d="m102.626 37.7174c-.49-2.2314-.97-4.4628-1.46-6.7037 2.138.339 3.333-1.3463 4.802-2.3443 3.116-2.109 6.318-3.9639 10.046-5.2161.047 1.5064-.659 2.1278-1.299 2.5892-2.194 1.5723-3.079 2.947-1.045 5.6115 1.779 2.3255-.245 3.6907-2.411 4.5287-2.787 1.0922-5.894.2448-8.633 1.5347z" fill="#ffcaa7"/><path d="m76.0276 110.911c2.222-1.196 4.444-2.391 6.6754-3.587.0282 1.93 1.6194 2.627 2.8622 3.54 2.6833 1.977 4.943 4.397 7.2214 6.798.4614.489 1.1676 1.13.4614 1.874-.4707.499-1.1392.216-1.7136-.019-1.0262-.405-2.0337-.848-3.0693-1.205-2.0808-.716-4.4817-2.081-4.3875 2.033.0094.377-.4237.979-.7815 1.092-.6873.226-1.0827-.395-1.3369-.951-1.0451-2.212-2.062-4.444-3.0788-6.675-.6214-1.29-.9321-2.881-2.8528-2.9z" fill="#ffcaa7"/><path d="m141.124 88.2111c-.245 2.1184-1.403 3.8602-2.372 5.6773-2.354.1789-3.465-1.8265-5.094-2.9092-1.921-.7815-3.86-1.4971-5.743-2.3633-.744-.3389-1.704-1.6194-.509-1.77 4.322-.5367 2.015-3.2012 1.959-5.1595-.029-.8568-.123-1.7136-.179-2.5704 2.956.4142 4.35 2.9187 6.176 4.7641 1.723 1.7607 3.455 3.3989 5.762 4.331z" fill="#cb7a43"/><path d="m106.288 111.137c3.06 1.686 6.393 2.646 9.717 3.625.056 2.137-.716 4.067-1.45 6.007-5.781-.603-6.308-5.743-8.267-9.632z" fill="#fff"/><path d="m56.5474 60.0315c2.6646 11.9949 6.44 23.6792 10.0555 35.4011 1.3087 4.2463 1.3652 4.2275-3.1353 4.3311-.4896.0094-.9698.1035-1.4593.16-2.222-.0471-4.444-.0847-6.666-.1318.6685-13.3696-.9415-26.5132-4.0862-39.5251 1.883-.6214 3.5872-.3107 5.2913-.2353z" fill="#fff"/><path d="m113.01 93.7473c-1.591-.4048-3.248-.0188-3.191-2.4008.113-4.3969-1.177-7.9842-6.308-8.6338-.754-.0942-1.064-.6402-.989-1.2899.094-.9227 1.073-1.0921 1.657-1.1957 3.38-.6026 5.546-2.7492 6.478-5.7809.565-1.836 1.393-1.3935 2.353-.9886 2.044.8662 4.153 1.6853 6.346 1.6005 2.702-.113 2.985 1.9961 2.335 3.2106-1.883 3.4837.895 5.7245 2.062 8.0312 1.271 2.5138.415 3.3142-1.478 3.6908-1.939.386-3.898-.4425-4.472 2.8245-.301 1.6477-3.474-.5931-4.793.9321z" fill="#2d9cdb"/></svg>