<svg fill="none" height="42" viewBox="0 0 42 42" width="42" xmlns="http://www.w3.org/2000/svg"><rect fill="#eee7e5" height="41.6667" rx="8" width="41.6667" x=".166992" y=".162109"/><path d="m22.0729 10.4441-11.4479-1.73954c-.5313-.08333-1.07292.0625-1.47917.40625-.40625.35417-.64583.86458-.64583 1.39579v21.948c0 .5729.46875 1.0416 1.04167 1.0416h3.38543v-5.4687c0-1.0104.8125-1.8229 1.8229-1.8229h2.6042c1.0104 0 1.8229.8125 1.8229 1.8229v5.4687h4.4271v-21.25c0-.8958-.6459-1.6562-1.5313-1.8021zm-7.8437 13.4167h-1.5625c-.4313 0-.7813-.35-.7813-.7812 0-.4313.35-.7813.7813-.7813h1.5625c.4312 0 .7812.35.7812.7813 0 .4312-.35.7812-.7812.7812zm0-3.125h-1.5625c-.4313 0-.7813-.35-.7813-.7812 0-.4313.35-.7813.7813-.7813h1.5625c.4312 0 .7812.35.7812.7813 0 .4312-.35.7812-.7812.7812zm0-3.125h-1.5625c-.4313 0-.7813-.35-.7813-.7812 0-.4313.35-.7813.7813-.7813h1.5625c.4312 0 .7812.35.7812.7813 0 .4312-.35.7812-.7812.7812zm0-3.125h-1.5625c-.4313 0-.7813-.35-.7813-.7812 0-.4313.35-.7813.7813-.7813h1.5625c.4312 0 .7812.35.7812.7813 0 .4312-.35.7812-.7812.7812zm5.2083 9.375h-1.5625c-.4313 0-.7812-.35-.7812-.7812 0-.4313.3499-.7813.7812-.7813h1.5625c.4312 0 .7813.35.7813.7813 0 .4312-.3501.7812-.7813.7812zm0-3.125h-1.5625c-.4313 0-.7812-.35-.7812-.7812 0-.4313.3499-.7813.7812-.7813h1.5625c.4312 0 .7813.35.7813.7813 0 .4312-.3501.7812-.7813.7812zm0-3.125h-1.5625c-.4313 0-.7812-.35-.7812-.7812 0-.4313.3499-.7813.7812-.7813h1.5625c.4312 0 .7813.35.7813.7813 0 .4312-.3501.7812-.7813.7812zm0-3.125h-1.5625c-.4313 0-.7812-.35-.7812-.7812 0-.4313.3499-.7813.7812-.7813h1.5625c.4312 0 .7813.35.7813.7813 0 .4312-.3501.7812-.7813.7812z" fill="#5a483c"/><path d="m32.0632 19.7895-7.4167-1.5532v15.2594h7.0312c1.0052 0 1.823-.8177 1.823-1.8229v-10.1021c0-.8604-.5865-1.5927-1.4375-1.7812zm-2.4688 10.5812h-1.5625c-.4312 0-.7812-.35-.7812-.7812 0-.4313.35-.7813.7812-.7813h1.5625c.4313 0 .7813.35.7813.7813 0 .4312-.35.7812-.7813.7812zm0-3.125h-1.5625c-.4312 0-.7812-.35-.7812-.7812 0-.4313.35-.7813.7812-.7813h1.5625c.4313 0 .7813.35.7813.7813 0 .4312-.35.7812-.7813.7812zm0-3.125h-1.5625c-.4312 0-.7812-.35-.7812-.7812 0-.4313.35-.7813.7812-.7813h1.5625c.4313 0 .7813.35.7813.7813 0 .4312-.35.7812-.7813.7812z" fill="#fca306"/></svg>