<svg fill="none" height="16" viewBox="0 0 16 16" width="16" xmlns="http://www.w3.org/2000/svg"><path d="m8 .472656c1.32608 0 2.5979.526784 3.5355 1.464464.9377.93768 1.4645 2.20945 1.4645 3.53554 0 2.36466-3.66667 8.25404-4.71933 9.90004-.03016.047-.07167.0858-.12072.1126-.04904.0268-.10405.0409-.15995.0409s-.11091-.0141-.15995-.0409c-.04905-.0268-.09056-.0656-.12072-.1126-1.05266-1.6454-4.71933-7.53538-4.71933-9.90004 0-1.32609.52678-2.59786 1.46447-3.53554.93768-.93768 2.20945-1.464464 3.53553-1.464464z" fill="#e8140f"/><path d="m8 15.526c-.05589 0-.11088-.014-.15992-.0408-.04905-.0268-.09057-.0655-.12075-.1125-1.05266-1.6454-4.71933-7.53538-4.71933-9.90004 0-1.32609.52678-2.59786 1.46447-3.53554.93768-.93768 2.20945-1.464464 3.53553-1.464464z" fill="#e8140f"/><g fill="#fff"><path d="m8 7.47266c1.10457 0 2-.89543 2-2s-.89543-2-2-2-2 .89543-2 2 .89543 2 2 2z"/><path d="m8 7.47266c-.53043 0-1.03914-.21072-1.41421-.58579-.37508-.37507-.58579-.88378-.58579-1.41421 0-.53044.21071-1.03914.58579-1.41422.37507-.37507.88378-.58578 1.41421-.58578z"/></g></svg>