<svg fill="none" height="16" viewBox="0 0 16 16" width="16" xmlns="http://www.w3.org/2000/svg" xmlns:xlink="http://www.w3.org/1999/xlink"><clipPath id="a"><path d="m0 0h16v16h-16z"/></clipPath><g clip-path="url(#a)"><path d="m8.00065 15.6673c1.51632 0 2.99855-.4496 4.25935-1.292 1.2608-.8425 2.2435-2.0398 2.8237-3.4407.5803-1.40094.7321-2.94245.4363-4.42964s-1.026-2.85325-2.0982-3.92546c-1.0722-1.0722-2.4383-1.802379-3.92546-2.098199-1.48718-.29582-3.02869-.143995-4.4296.436277-1.4009.580272-2.59827 1.562932-3.44069 2.823702-.842424 1.26078-1.292066 2.74305-1.292066 4.25937 0 2.03335.807736 3.98335 2.245516 5.42115s3.38782 2.2455 5.42115 2.2455z" fill="#ffeb3b"/><path d="m8.00002.33399c-1.52772.000127-3.02056.456669-4.28703 1.31106-1.26646.85439-2.24879 2.06766-2.820972 3.48418-.57218 1.41652-.708118 2.97168-.390374 4.46599.317744 1.49428 1.074676 2.85958 2.173706 3.92078l10.83995-10.84001c-.7141-.74174-1.5708-1.33154-2.5186-1.733994-.9477-.402452-1.96702-.609258-2.99668-.608006z" fill="#f9ef99"/><g stroke-linecap="round" stroke-linejoin="round"><path d="m8.00065 15.6673c1.51632 0 2.99855-.4496 4.25935-1.292 1.2608-.8425 2.2435-2.0398 2.8237-3.4407.5803-1.40094.7321-2.94245.4363-4.42964s-1.026-2.85326-2.0982-3.92546-2.4383-1.802379-3.92546-2.098199c-1.48718-.29582-3.02869-.143995-4.4296.436277-1.4009.580272-2.59827 1.562932-3.44069 2.823702-.842424 1.26078-1.292066 2.74305-1.292066 4.25937 0 2.03335.807736 3.98335 2.245516 5.42115s3.38782 2.2455 5.42115 2.2455z" stroke="#f9aa38" stroke-width=".666667"/><path d="m9.66732 11.6673c-2.39334 0-4.33334-.6666-4.33334-3.66665 0-3 1.94-3.66667 4.33334-3.66667m-5.33334 4.66667h3.66667m-3.66667-1.33333h4.33334" stroke="#443023"/></g></g></svg>