<svg fill="none" height="53" viewBox="0 0 53 53" width="53" xmlns="http://www.w3.org/2000/svg" xmlns:xlink="http://www.w3.org/1999/xlink"><filter id="a" color-interpolation-filters="sRGB" filterUnits="userSpaceOnUse" height="41.6738" width="40.6934" x="0" y="11.3262"><feFlood flood-opacity="0" result="BackgroundImageFix"/><feColorMatrix in="SourceAlpha" result="hardAlpha" type="matrix" values="0 0 0 0 0 0 0 0 0 0 0 0 0 0 0 0 0 0 127 0"/><feOffset/><feGaussianBlur stdDeviation="2.5"/><feColorMatrix type="matrix" values="0 0 0 0 0.129412 0 0 0 0 0.129412 0 0 0 0 0.129412 0 0 0 0.12 0"/><feBlend in2="BackgroundImageFix" mode="normal" result="effect1_dropShadow_21542_423634"/><feBlend in="SourceGraphic" in2="effect1_dropShadow_21542_423634" mode="normal" result="shape"/></filter><path d="m50.0697 36.0133 2.9299-22.5615-5.6207-3.46692-1.2756 1.49832-18.3767-11.4636688-1.6543 20.4707688z" fill="#443023"/><path d="m50.0661 36.0112.7574-20.6276-24.7747-15.3836.02 20.4882z" fill="#5a483c"/><path d="m45.4446 37.4117 2.9299-22.5614-5.6206-3.467-1.2756 1.4809-18.3768-11.44623-1.6542 20.47073z" fill="#715f56"/><path d="m45.4396 37.3979.7374-20.645-24.7747-15.36618.0399 20.48818z" fill="#ea8003"/><path d="m40.4993 39.3433 2.91-22.544-5.6008-3.4843-1.2755 1.4982-18.3967-11.46359-1.6343 20.47079z" fill="#fca306"/><path d="m13.2695 4.71484 3.2289 19.09446 23.9973 15.523-2.2123-18.4847z" fill="#fcbf35"/><g filter="url(#a)"><path d="m35.6943 27.2323-17.1809-10.9061s-1.435 8.7458-4.0061 12.4567c-2.5712 3.7108-8.25162 7.5785-9.5073 8.1186l16.9217 11.0978s6.8764-3.8851 9.3877-7.8399c2.4914-3.9374 4.2454-9.1988 4.3849-12.9271z" fill="#fff"/></g><g fill="#443023"><path d="m33.82 28.0874-6.2185-3.9722s-.877 6.2371-2.332 7.8573l6.1389 3.9025c0-.0174 1.5745-2.5958 2.4116-7.7876z"/><path d="m22.5947 45.8027c-2.4915-1.3415-4.8832-2.8049-7.275-4.2858-2.3718-1.4983-4.7237-3.014-6.97595-4.6517 2.49145 1.3415 4.88315 2.805 7.27495 4.2858 2.3718 1.5157 4.7237 3.0315 6.976 4.6517z"/><path d="m24.1109 44.4074c-2.4117-1.2892-4.7437-2.7004-7.0358-4.1116-2.2921-1.4286-4.5643-2.9095-6.7567-4.4774 2.4117 1.2892 4.7436 2.6829 7.0358 4.1115 2.312 1.4461 4.5842 2.9095 6.7567 4.4775z"/><path d="m26.7962 41.7323c-1.7938-.871-3.488-1.8291-5.1821-2.8395-1.6743-1.0104-3.3286-2.0556-4.9032-3.2053 1.7939.871 3.488 1.8291 5.1822 2.8395 1.6941 1.0103 3.3285 2.0556 4.9031 3.2053z"/><path d="m28.1744 40.2357c-2.3718-1.2543-4.6639-2.6133-6.9162-3.9896-2.2522-1.3937-4.4845-2.8223-6.6371-4.3555 2.3718 1.2544 4.664 2.6133 6.9162 3.9897 2.2523 1.4111 4.4845 2.8223 6.6371 4.3554z"/><path d="m29.3337 38.967c-1.9532-1.0103-3.8069-2.1078-5.6406-3.2575-1.8336-1.1497-3.6274-2.3169-5.3415-3.606 1.9532.993 3.8068 2.1078 5.6405 3.2576 1.8337 1.1497 3.6275 2.3168 5.3416 3.6059z"/><path d="m30.5689 37.2475c-2.3718-1.2544-4.6639-2.6133-6.9161-3.9897-2.2523-1.3937-4.4846-2.8223-6.6372-4.3555 2.3719 1.2544 4.664 2.6133 6.9162 3.9897 2.2523 1.3937 4.4846 2.8223 6.6371 4.3555z"/><path d="m23.4123 30.6951c-.578-.2439-1.1162-.5401-1.6543-.8362-.5382-.2961-1.0563-.6097-1.5746-.9407-.5182-.331-1.0165-.6619-1.4948-1.0103-.4983-.3484-.9767-.7143-1.4152-1.1149.578.2439 1.1162.54 1.6544.8361.5381.2962 1.0563.6097 1.5745.9407s1.0165.662 1.4949 1.0104c.4783.3484.9567.7142 1.4151 1.1149z"/><path d="m24.1309 28.9839c-.5381-.2439-1.0564-.5052-1.5746-.7839s-.9966-.5923-1.4948-.8884c-.4784-.3136-.9567-.6271-1.4351-.9755-.4584-.331-.9168-.6794-1.3354-1.0627.5382.2439 1.0564.5052 1.5746.7839.5182.2788.9965.5923 1.4948.8885.4784.3135.9567.6271 1.4351.9755.4584.331.8969.6794 1.3354 1.0626z"/><path d="m24.8689 27.0807c-.5581-.2264-1.0963-.4877-1.6145-.749-.5182-.2788-1.0364-.5575-1.5347-.8536-.4983-.2962-.9965-.6097-1.4749-.9407-.4783-.331-.9567-.662-1.3952-1.0452.5581.2264 1.0962.4877 1.6144.749.5182.2788 1.0364.5575 1.5347.8536.4983.2962.9966.6097 1.475.9407.4783.331.9567.662 1.3952 1.0452z"/><path d="m25.3232 25.3638c-.5581-.2439-1.0963-.5226-1.6344-.8187-.5382-.2962-1.0364-.5923-1.5546-.9059-.4983-.3135-.9966-.6445-1.4949-.9929-.4783-.3484-.9567-.6968-1.3952-1.0975.5581.2439 1.0963.5226 1.6344.8188.5381.2961 1.0364.5923 1.5547.9058.4982.3136.9965.6446 1.4948.993.4784.3484.9567.7142 1.3952 1.0974z"/><path d="m25.5279 43.151c-2.3519-1.3066-4.6241-2.7003-6.8763-4.1464-2.2323-1.446-4.4447-2.9094-6.5774-4.4948 2.3519 1.3066 4.6241 2.7004 6.8763 4.1464 2.2523 1.446 4.4647 2.9269 6.5774 4.4948z"/></g></svg>