<svg height="160" viewBox="0 0 160 160" width="160" xmlns="http://www.w3.org/2000/svg"><g fill="none" fill-rule="evenodd" transform="translate(0 2)"><path d="m37.0126331 103.032994c15.7122992-6.3885731 36.867451-5.1061134 45.4810145-3.666449 20.5226444 1.08558 50.3078074 11.864621 62.4485594 19.754764 12.139754 7.890142 18.759898 20.614056 12.885405 26.986979-4.522751 4.906542-11.90948 7.769522-27.762536 9.144191-23.057359 1.998704-54.4950161-4.577578-66.639356-5.165725s-55.18514212.620046-60.55751674-4.539698c-5.37237462-5.159745-2.85360986-12.267353 4.69082181-19.116774 7.54433203-6.850418 9.81328373-15.41045 29.45360803-23.397288z" fill="#feebde" fill-rule="nonzero"/><path d="m71.382054 130.912162v-6.383888c-1.1291427-7.775503-3.237002-20.033884-6.3386304-29.0993238-3.9396883-11.5147235-15.9934137-31.2718796-20.5617214-38.5661993-4.191794-5.8854581-6.6572268-13.0857739-6.6572268-20.8618757 0-19.8827605 16.1181207-36.0008752 36.0008811-36.0008752 19.8832589 0 36.0004825 16.1181147 36.0004825 36.0008752 0 7.7838773-2.470218 14.9907723-6.66899 20.8795202-4.7151449 7.4612936-16.8007698 27.1175675-20.7118482 38.5485548-3.1016285 9.0654398-5.2094878 21.3238208-6.3386305 29.0993238v6.383888z" fill="#dd0539"/><path d="m73.8318361 52.3656189c7.2300222 0 13.091157-5.8611348 13.091157-13.0912567s-5.8611348-13.0912567-13.091157-13.0912567c-7.2301219 0-13.0912567 5.8611348-13.0912567 13.0912567s5.8611348 13.0912567 13.0912567 13.0912567z" fill="#feebde"/></g></svg>