<svg width="442" height="225" viewBox="0 0 442 225" fill="none" xmlns="http://www.w3.org/2000/svg">
<path d="M319.5 51L318.9 51.1001C318.9 51.1001 312.7 35.6 312.5 35.2C312 34.2 311.5 31 313.3 30.9L313.9 30.8" fill="#0C4C0D"/>
<path d="M328.2 47.7C335.5 56.7 337.6 56.8 337.6 56.8C337.6 56.8 340.2 57.2 338.9 54.7C337.6 52.2 329.6 45.8 329.6 45.8L328.2 47.7Z" fill="#25B759"/>
<path d="M329.372 47.1667C329.762 46.6307 329.86 46.0383 329.592 45.8434C329.324 45.6486 328.791 45.9251 328.401 46.4611C328.012 46.9972 327.913 47.5897 328.181 47.7846C328.449 47.9794 328.982 47.7028 329.372 47.1667Z" fill="#0C4C0D"/>
<path d="M320.9 47.1001C320.9 46.9001 321 46.6001 321.3 46.6001L327.2 45.7001C327.4 45.7001 328.3 45.5001 329.1 46.4001C329.2 46.6001 329.2 46.9001 329 47.0001C328.8 47.1001 328.5 47.1001 328.4 46.9001C327.9 46.3001 327.4 46.5001 327.4 46.5001L321.5 47.4001C321.2 47.5001 320.9 47.3001 320.9 47.1001Z" fill="#4ED875"/>
<path d="M323.7 43.4L319.5 51C319.5 51 313.3 35.5 313.1 35.1C312.6 34.1 312.1 30.9 313.9 30.8C314.8 30.8 315.6 31.8 316 32.5C316.7 33.5 317.3 34.4 318 35.4C319.8 38.1 321.8 40.8 323.7 43.4Z" fill="#25B759"/>
<path d="M412.3 97.8L393.2 165L379.2 214.6H369L383.8 97.8H412.3Z" fill="#095411"/>
<path d="M417.5 97.8C417.9 132.5 419.5 151.4 419.9 154.5C420.4 157.6 427.4 177.7 441 214.6H430.4C413.1 179.2 403.4 159.1 401.4 154.5C399.4 149.8 393.2 130.9 383.8 97.8H417.5Z" fill="#14662A"/>
<path d="M441.9 224.1L441.4 213H430.3C425 216.7 418.2 219.7 409.7 222V224.1H429.8L436.7 223V224.1H441.9Z" fill="#191847"/>
<path d="M380.6 224.1L380.1 213H369C363.7 216.7 356.9 219.7 348.4 222V224.1H368.5L375.4 223V224.1H380.6Z" fill="#191847"/>
<path d="M398.8 18.3C401.2 15.4 402.9 11.9 402.6 7.99999C401.8 -3.30001 386.1 -0.800008 383 4.89999C379.9 10.6 380.3 25.1 384.3 26.1C385.9 26.5 389.2 25.5 392.7 23.4L390.6 38.6H403.3L398.8 18.3Z" fill="#0C4C0D"/>
<path d="M373.2 58.4L359.9 46.2C352.9 44.3 349.7 42.8 350.3 42C351.2 40.7 353.1 41.8 353.8 41C354.5 40.2 353.1 37.4 351.6 34.7C350.1 32.1 351.7 32.3 352.6 32.7C355.6 34.7 358.6 37.5 361.6 41.1L380 51.2L373.2 58.4ZM350.8 67.7C347.3 65.2 344.1 63.5 341.1 62.7C335.4 61.1 333.1 59.9 330.3 56.3C328.8 54.4 327.5 50.6 329 49.3C330 48.5 335.4 54.3 337.5 53.2C337.9 53 333.9 49.7 335.1 50.3C336.7 50.3 342.1 50.9 343.3 55.2L351.4 59.6L350.8 67.7Z" fill="#0C4C0D"/>
<path d="M388.9 48.8999C382.5 48.7999 373.9 47.5 364.8 41.7L361.2 49.7C367.5 56 376.4 61.0999 384.1 60.8999C390.2 60.6999 393.4 53.2999 388.9 48.8999Z" fill="#D83252"/>
<path d="M380.3 61.8C373.5 63.5 362 61.5 346 55.8C342 64 340.2 69.9 340.5 73.4C354.3 80.6 366.1 83.8 375.8 84C375.5 89.8 376.2 95.3 378.6 100.3C383.5 110.6 411.9 101.1 421.4 102.9C427.4 83.5 415.8 75.6 415.8 63.1C415.8 49.5 404.9 28.5 403.2 28.5H388.5C387.7 39 383.6 50.5 380.3 61.8Z" fill="#F24C64"/>
<path d="M381.7 11C381.3 12.8 379.5 14.2 379.3 16C379.2 17.6 380.6 17.7 381.8 18.7" fill="#0C4C0D"/>
<path d="M382.7 10.1C382.9 9.69999 383.3 9.39999 383.7 9.19999C384.1 8.99999 384.6 8.99999 385.1 9.09999C385.6 9.19999 386 9.49999 386.3 9.79999C386.6 10.1 386.8 10.6 386.8 11C386.2 10.3 385.6 9.99999 384.9 9.79999C384.2 9.69999 383.5 9.79999 382.7 10.1Z" fill="#4ED875"/>
<path d="M381.7 21.2C382.4 21.1 383 20.8 383.6 20.6C384.2 20.3 384.9 20.1 385.6 20H386V20.4C386.1 20.9 385.8 21.3 385.6 21.6C385.4 21.9 385.1 22.2 384.8 22.4C384.5 22.6 384.2 22.8 383.9 23C383.6 23.2 383.2 23.3 382.9 23.4C383.5 22.9 384 22.5 384.4 22C384.6 21.7 384.8 21.5 385 21.2C385.2 20.9 385.3 20.7 385.2 20.5L385.6 20.8C385 20.9 384.3 21.1 383.7 21.2C383.1 21.3 382.4 21.4 381.7 21.2Z" fill="#4ED875"/>
<path d="M384.2 11.9C384.476 11.9 384.7 11.6762 384.7 11.4C384.7 11.1239 384.476 10.9 384.2 10.9C383.924 10.9 383.7 11.1239 383.7 11.4C383.7 11.6762 383.924 11.9 384.2 11.9Z" fill="#4ED875"/>
<path d="M181.4 99.5L197.4 155.6L209.1 197.1H217.6L205.2 99.5H181.4Z" fill="#167533"/>
<path d="M177.1 99.5C176.7 128.5 175.5 144.2 175.1 146.9C174.7 149.6 168.8 166.3 157.5 197.1H166.3C180.8 167.5 188.8 150.8 190.5 146.9C192.2 143 197.4 127.2 205.2 99.5H177.1Z" fill="#137F3A"/>
<path d="M156.7 205L157.1 195.7H166.4C170.8 198.8 176.5 201.3 183.6 203.2V205H166.8L161.1 204.1V205H156.7Z" fill="#4ED875"/>
<path d="M207.9 205L208.3 195.7H217.6C222 198.8 227.7 201.3 234.8 203.2V205H218L212.3 204.1V205H207.9Z" fill="#4ED875"/>
<path d="M188.4 43.9C186.4 41.5 185 38.6 185.2 35.3C185.9 25.9 199 27.9 201.6 32.7C204.2 37.5 203.9 49.6 200.5 50.4C199.2 50.7 196.4 49.9 193.5 48.2L195.3 60.9H184.7L188.4 43.9Z" fill="#83E59C"/>
<path d="M197.4 27.5C196 27.1 193.9 26.9 193 27C193.5 25.8 193.7 24.5 193.5 23.1C193.3 21.8 192.8 20.7 192.2 19.6C192 19.1 191.7 18.6 191.3 18.2C190.9 17.8 190.4 17.5 189.8 17.4C189.2 17.3 188.6 17.3 188.1 17.4C187.8 17.5 187.6 17.6 187.4 17.6C187.1 17.7 187 17.5 186.8 17.3C186.4 16.9 185.7 16.7 185.2 16.7C184.6 16.6 183.9 16.7 183.3 16.9C182.7 17.1 182.2 17.4 181.7 17.9C181.5 18.1 181.3 18.4 181.2 18.6C181.2 18.7 181.1 18.8 181 18.8C180.9 18.8 180.8 18.8 180.7 18.9C179.7 19.2 178.8 20 178.4 21C178.1 21.6 178 22.6 178 23.7C178 24.8 179.1 27.8 180 28.9C180.9 29.9 182.1 30.5 183.3 30.8C182.5 31.7 181.9 32.9 181.5 34.1C181.1 35.4 180.8 36.7 180.7 38.1C180.6 39.4 180.6 40.7 180.9 42C181.2 43.2 181.8 44.1 182.8 44.8C183.3 45.1 183.8 45.3 184.3 45.5C184.8 45.7 185.3 45.9 185.8 46C186.8 46.2 187.9 46.2 188.7 45.4C189 45.1 189.3 44.8 189.5 44.4C189.6 44.3 189.6 44.2 189.5 44.1C189.4 44 189.2 43.8 189.1 43.7C188.3 43.1 187.9 42.2 187.8 41.2C187.7 40.2 188 38.8 189 38.4C190.2 37.8 191.6 38.5 192.7 39.1C193.2 37.4 194.1 36 195.6 35.2C197.3 34.4 199.2 34.3 200.9 33.5C201.3 33.3 201.8 33.1 202.1 32.7C202.2 32.5 202.4 32.3 202.5 32.1C202.6 31.8 202.4 31.6 202.3 31.4C201.6 30.2 198.9 27.9 197.4 27.5Z" fill="#4ED875"/>
<path d="M202.8 39.6C202.8 41.4 204.7 42.9 204.7 44.7C204 44.9 203.2 45 202.5 45.1" fill="#83E59C"/>
<path d="M202.4 47.8C201.8 48 201.1 47.9 200.6 47.6C200.1 47.3 199.6 46.8 199.4 46.2C200 46.5 200.4 46.7 200.9 47C201.4 47.2 201.9 47.4 202.4 47.8Z" fill="#095411"/>
<path d="M199.7 38.9C199.6 38.6 199.8 38.2 200.1 38C200.3 37.8 200.7 37.7 201 37.6C201.3 37.6 201.6 37.6 201.9 37.7C202.2 37.8 202.4 38.1 202.5 38.4C202.2 38.3 202 38.3 201.7 38.2C201.5 38.2 201.2 38.2 201 38.2C200.8 38.2 200.6 38.3 200.3 38.3C200.1 38.6 199.9 38.7 199.7 38.9Z" fill="#095411"/>
<path d="M201.7 40.5C201.976 40.5 202.2 40.2761 202.2 40C202.2 39.7239 201.976 39.5 201.7 39.5C201.424 39.5 201.2 39.7239 201.2 40C201.2 40.2761 201.424 40.5 201.7 40.5Z" fill="#095411"/>
<path d="M221.1 85.1001L237.1 78.1001C239.9 75.3001 242.6 73.2 245.2 71.7C246 71.5 247.3 71.4001 245.9 73.5001C244.5 75.6001 243.1 77.8001 243.6 78.6001C244.2 79.3001 245.8 78.5 246.5 79.7C246.9 80.5 244.2 81.4001 238.2 82.5001L226.2 91.7L221.1 85.1001ZM156.4 87.0001L165.4 88.8001C156.3 105.8 151.4 114.7 150.8 115.8C149.3 118.1 150.7 122.3 151.2 124.5C148 125.2 149.3 120.4 145.2 121.4C141.5 122.3 138.3 124.7 134.9 121.5C134.5 121.1 134.2 119.9 135.6 119.3C139.2 117.7 144.6 114.8 145.4 113.7C146.7 112.1 150.3 103.2 156.4 87.0001Z" fill="#83E59C"/>
<path d="M190.1 53.2L193.9 52.5C202.2 60.6 205.6 79.9 211.2 82.5C216.4 84.9 223.9 82.6 232.7 79.4L235.4 85.4C227.4 94.1 210.3 101.4 203.4 97.2C192.2 90.6 189.7 66.7 190.1 53.2Z" fill="#095411"/>
<path d="M173.4 101.2C188.7 101.2 200 101.2 207.2 101.2C208.7 101.2 208.5 99 208.2 97.8C205.6 84.8 195.6 70.8 195.6 52.3L185.9 50.8C177.8 63.8 175 79.7 173.4 101.2Z" fill="#DBFCDF"/>
<path d="M170.1 88C163.2 100.4 157.4 109.4 152.7 114.8L145.6 113.4C150.2 85.1 163.4 64.2 185.2 50.8H185.3H189C197.7 80.6 200.2 100.5 196.2 110.4H165.8C166.4 103.2 168 95.5 170.1 88Z" fill="#14662A"/>
<path d="M47.9 101.6L67.9 152.1L81.3 194.8H86.6L66.1 101.6H47.9Z" fill="#4ED875"/>
<path d="M43.9 101.6C43.7 119.4 40.6 143.3 40.1 144.4C39.8 145.1 28.4 154.5 5.90002 172.6L9.5 176.5C36 161 49.9 152.3 51.1 150.2C52.9 147.1 58.9 118.6 63.7 101.7H43.9V101.6Z" fill="#4ED875"/>
<path d="M5.43326 171.202C4.19262 171.59 3.3746 172.015 2.91498 172.401C2.37874 172.851 1.60038 173.635 0.720755 174.765C1.29926 175.454 6.18443 181.276 15.4406 192.307C17.3583 191.481 17.9315 190.608 17.2491 189.484C16.5667 188.36 15.9363 187.453 15.4987 186.776L12.2978 175.493C12.2459 175.276 12.0407 175.187 11.8232 175.239L10.071 175.796C8.84002 175.262 8.04402 174.624 7.59407 174.088C7.20839 173.629 6.84738 172.887 6.52334 171.723C6.34283 171.352 5.86824 171.098 5.43326 171.202Z" fill="#137F3A"/>
<path d="M79.1 192.9C78.6 194.1 78.4 195 78.4 195.6C78.4 196.3 78.5 197.4 78.8 198.8C79.7 198.8 87.3 198.8 101.7 198.8C102.3 196.8 102 195.8 100.7 195.6C99.4 195.4 98.3 195.3 97.5 195.2L86.8 190.4C86.6 190.3 86.4 190.4 86.3 190.6L85.6 192.3C84.4 192.9 83.4 193.1 82.7 193.1C82.1 193.1 81.3 192.9 80.2 192.4C79.8 192.2 79.3 192.4 79.1 192.9C79.1 192.8 79.1 192.8 79.1 192.9Z" fill="#137F3A"/>
<path d="M61.3 190.4L86.5001 187.7L67.8 101.6H45.3L61.3 190.4Z" fill="#D83252"/>
<path d="M11.1 166.2L27.6 185.7C45 166.7 55.1 154.3 58 148.6C60.9 142.8 63.5 127.1 65.8 101.6H40.4C39.1 124.1 38.3 135.9 37.9 136.9C37.4 137.9 28.5 147.7 11.1 166.2Z" fill="#F24C64"/>
<path d="M50.6 48.8C55.2 48.8 56.9 43.2 59.6 40.2C61.5 38 64.7 38.7 65.7 35.6C68.1 27.9 61.7 22.5 53.3 22.5C44.9 22.5 39.3 27.2 38 34.4C36.7 41.5 42.2 48.8 50.6 48.8Z" fill="#0C4C0D"/>
<path d="M51.1 43.7999C49.2 41.5999 48.0001 38.8999 48.2001 35.8999C48.8001 27.1999 60.9 29.0999 63.3 33.4999C65.7 37.8999 65.4 48.9999 62.3 49.7999C61.1 50.0999 58.5001 49.2999 55.9001 47.7999L57.6 59.4999H47.8L51.1 43.7999Z" fill="#4ED875"/>
<path d="M55.2 38.2C54.8 38 54.4 37.9 54 37.9C52.6 37.9 51.5 39 51.5 40.3C51.5 40.9 51.7 41.4 52 41.8C51.4 42.8 51.0001 43.8 50.9001 44.9C48.8001 44.9 41.3 37.1 48.8 29.8C56.3 22.5 67.1 32.9 63.8 33.5C62 33.9 58.2 35.7 55.2 38.2Z" fill="#0C4C0D"/>
<path d="M64.4001 39.5C65.0001 39.9 65.4 40.7 65.8 41.4C66.2 42.1 66.5001 42.8 66.7001 43.6C66.8001 44 67.0001 44.2 66.7001 44.5C66.2001 45 65.1001 45 64.5001 45.1C64.1001 45.2 63.7 45.2 63.3 45.3" fill="#4ED875"/>
<path d="M64.0999 47.1C63.1999 47.2 62.3 46.8 61.4 46.6L61.7 46.4C61.7 46.4 61.7999 46.6 61.9999 46.7C62.1999 46.8 62.2999 46.9 62.4999 47.1C62.8999 47.3 63.3 47.5 63.7 47.7C63.3 47.6 62.8 47.5 62.4 47.3C62.2 47.2 61.9999 47.1 61.7999 47C61.6999 46.9 61.5999 46.9 61.4999 46.8C61.3999 46.7 61.3 46.6 61.2 46.3V45.9L61.5999 46.1C62.3999 46.6 63.1999 47.1 64.0999 47.1Z" fill="#0C4C0D"/>
<path d="M62.5 40C62.7761 40 63 39.7761 63 39.5C63 39.2239 62.7761 39 62.5 39C62.2239 39 62 39.2239 62 39.5C62 39.7761 62.2239 40 62.5 40Z" fill="#0C4C0D"/>
<path d="M60.5 38.9C61 38.7 61.3 38.4 61.9 38.3C62.2 38.2 62.5 38.2 62.7 38.3C62.9 38.4 63.3 38.5 63.3 38.8C63.2 38.7 63.1 38.7 63 38.7C62.9 38.7 62.8 38.7 62.6 38.7C62.4 38.7 62.2 38.7 62 38.8C61.8 38.9 61.5 38.9 61.3 39C61.1 39 60.8 39 60.5 38.9Z" fill="#0C4C0D"/>
<path d="M82.9 90.8001L94.4 102C97.8 103.4 100.5 105 102.6 106.7C103.1 107.3 103.6 108.4 101.3 107.9C99 107.4 96.6 107 96.2 107.7C95.8 108.4 97 109.6 96.2 110.5C95.7 111.1 93.9 109.1 90.9 104.4L78.9 97.3001L82.9 90.8001ZM26.6 80.7001H35.5C28.7 102.7 25.1 114.2 24.7 115.2C23.8 117.5 25.8 121.1 26.6 123C23.8 124.2 24.1 119.6 20.6 121.3C17.4 122.8 15 125.5 11.3 123.2C10.8 122.9 10.3 121.9 11.6 121C14.6 118.9 18.9 115.4 19.5 114.2C20.2 112.6 22.6 101.4 26.6 80.7001Z" fill="#4ED875"/>
<path d="M53.7 55.4L57.2 54.8C62.7 74.4 91.1999 87.7001 92.9999 95.1001C93.5999 97.8001 91.7 99.1 92.7 100L88.0999 103.3C87.2999 102.4 85.7 104 82.2 102.9C78.7 101.8 53.7 78.6 53.7 55.4Z" fill="#14662A"/>
<path d="M59.6 58C59.2 83.9 74.2 90.5 70.8 101C68 109.6 41.6 118.8 37.1 110.4C35.3 107 34.4 102.9 34.3 98.4C33.1 101.8 32.2 104.8 31.5 107.3C30.3 111.6 25.8 112.3 25.8 113.9L19.8 112.2C20.2 110 17.4 108.9 18.1 103.9C21.5 81.4 30.6 65.2 45.4 55.1L45.6 52.9C45.7 52 46.4 51.3 47.3 51.4L58.3 52.2C59.2 52.3 59.9 53 59.8 53.9L59.6 58Z" fill="#137F3A"/>
<path d="M134.7 112.3L150.9 168L158.5 209.8H166.2L158.5 112.3H134.7Z" fill="#095411"/>
<path d="M127.5 112.3C128.6 141.3 128.2 157 127.9 159.7C127.6 162.3 126.2 179.9 116.4 210.8H124.3C137.2 181.2 141.8 163.6 143.2 159.7C144.7 155.8 149.1 140 155.5 112.3H127.5Z" fill="#095411"/>
<path d="M134.4 112.3C138.6 131.5 145.9 162.1 156.2 204.1H167.4C168.2 160.9 164.7 132.5 158.6 112.3H134.4Z" fill="#0C4C0D"/>
<path d="M127.4 112.3C128.5 141.3 125.6 169.8 116.8 204.6H128.7C141.7 175.5 151 147.1 157.3 112.3H127.4Z" fill="#095411"/>
<path d="M115.3 216.4L115.7 209.3C118.3 210.1 121.5 209.8 125.3 208.4C129.5 211.3 134.7 213.3 141 214.4C141.5 214.5 141.8 214.9 141.7 215.4V215.5L141.1 217.6H125.3H116.1L115.3 216.4Z" fill="#DBFCDF"/>
<path d="M156.8 216.4L157.2 209.3C159.8 210.1 163 209.8 166.8 208.4C171 211.3 176.2 213.3 182.5 214.4C183 214.5 183.3 214.9 183.2 215.4V215.5L182.6 217.6H166.8H157.6L156.8 216.4Z" fill="#DBFCDF"/>
<path d="M138.7 56.6001C136.7 54.2001 135.3 51.3001 135.5 48.0001C136.2 38.6001 149.3 40.6001 151.9 45.4001C154.5 50.2001 154.2 62.3001 150.8 63.1001C149.5 63.4001 146.7 62.6001 143.8 60.9001L145.6 73.6001H135L138.7 56.6001Z" fill="#095411"/>
<path d="M137.9 58.7C136.6 52.8 132.8 48.8001 133.4 46.1001C133.8 44.3001 134.8 43.2 136.5 42.8C137.4 39.3 140.2 37.8 144.9 38.3C152 39.1 156.3 42 154.4 48.5C152.7 48.5 150.6 47.9 147.8 48.9C146.9 49.2 146.2 50.3 145.9 52H144.6C143.3 49.9 142.1 49.2 140.9 49.7C139.7 50.2 139.4 51.6 140.1 53.7L139.5 58.6001H137.9V58.7Z" fill="#062806"/>
<path d="M153.3 52.8C153.7 54.1 154 55.5 154.2 56.8C154.4 58.3 154.3 59.1 152.5 58.9" fill="#095411"/>
<path d="M151.5 51.8C151 51.7 150.6 51.6 150.2 51.5C149.8 51.5 149.3 51.5 148.8 51.4C149 51.3 149.2 51.2 149.5 51.1C149.7 51 150 51 150.3 51C150.8 51 151.2 51.3 151.5 51.8Z" fill="#062806"/>
<path d="M150.9 53.7C151.231 53.7 151.5 53.4314 151.5 53.1C151.5 52.7686 151.231 52.5 150.9 52.5C150.569 52.5 150.3 52.7686 150.3 53.1C150.3 53.4314 150.569 53.7 150.9 53.7Z" fill="#062806"/>
<path d="M152.5 61.0001C152.1 61.2001 151.6 61.3001 151.1 61.1001C150.6 60.9001 150.4 60.5001 150.1 60.2001C150.3 60.2001 150.6 60.3001 150.8 60.4001C151 60.5001 151.2 60.6001 151.4 60.7001C151.6 60.7001 152 60.8001 152.5 61.0001Z" fill="#062806"/>
<path d="M169.1 105.1L182.3 114.8C185.9 115.8 188.9 117 191.3 118.4C191.9 118.9 192.6 120 190.2 119.8C187.8 119.6 185.3 119.5 185 120.3C184.7 121.1 186.1 122.1 185.4 123.2C185 123.9 182.9 122.1 179.2 117.8L166.1 112.4L169.1 105.1ZM118.3 105.5H127C121.6 122.8 118.8 132 118.3 133C117.3 135.4 119.4 139 120.2 141C117.4 142.3 117.7 137.6 114.1 139.2C110.8 140.7 108.4 143.5 104.6 141.1C104.1 140.8 103.6 139.7 104.9 138.9C108 136.8 112.4 133.1 113 131.9C113.7 130.3 115.5 121.5 118.3 105.5Z" fill="#095411"/>
<path d="M142.9 69.1L146.5 68.5C159.8 80 165.3 102.1 181.6 113.8L177.7 118.7C149.4 115.1 142.4 88.2 142.9 69.1Z" fill="#4ED875"/>
<path d="M127.3 114.2C141.7 114.2 152.3 114.2 159.1 114.2C160.6 114.2 160.3 112.1 160.1 111C157.7 98.8 148.2 85.6 148.2 68.3L139 66.9C131.4 79 128.8 94 127.3 114.2Z" fill="#DBFCDF"/>
<path d="M127.5 78.8001C126.2 78.4001 125.1 77.5001 124.3 76.1001C121 70.1001 122.2 66.7001 125.7 65.6001C129.3 64.5001 132.5 66.8001 138.2 66.8001C138.5 66.8001 138.8 66.8 139.1 66.9L142 67.1001C150.2 95.0001 152.5 113.6 148.8 122.9H123.8C122.3 126.4 120.9 129.3 119.5 131.6H112.7C112.1 110.9 117 93.3001 127.5 78.8001Z" fill="#83E59C"/>
<path d="M129.3 108.6C130.1 115.2 131.4 120 133.1 122.9H123.8C125.5 118.9 127.4 114.1 129.3 108.6Z" fill="black" fill-opacity="0.1"/>
</svg>
