<svg width="343" height="246" viewBox="0 0 343 246" fill="none" xmlns="http://www.w3.org/2000/svg">
<path d="M98 77.0015C97.3 86.8015 50.9 115.701 50.6 116.601C50.5 117.001 55.3 128.401 65 150.801L60.9 152.401C46 128.601 38.9 115.501 39.6 113.001C40.7 109.401 52.7 97.4015 75.6 77.2015L98 77.0015Z" fill="#1C66DD"/>
<path d="M64 145.701L57.4 148.101C43.4 132.401 38 119.401 39 112.701C39.7 108.301 51.6 96.4015 74.9 77.0015H98.6C97.8 99.8015 54.8 116.601 54.2 117.601C53.5 118.601 59.2 128.101 64 145.701Z" fill="#0A54BF"/>
<path d="M66.5994 149.991C67.4279 150.931 67.9744 151.769 68.1195 152.247C68.3841 152.982 68.5804 153.905 68.9217 155.306C68.1869 155.571 61.0608 158.191 47.7997 163.049C46.5784 161.434 46.5446 160.357 47.7323 159.725C48.8859 159.187 49.8173 158.675 50.4923 158.282L58.7136 150.313C58.876 150.16 59.0981 150.134 59.2519 150.297L60.4817 151.596C61.712 151.724 62.6945 151.656 63.4294 151.391C64.036 151.186 64.6513 150.666 65.4632 149.897C65.6597 149.649 66.198 149.632 66.5994 149.991C66.5055 149.957 66.5055 149.957 66.5994 149.991Z" fill="#0A54BF"/>
<path d="M92.7 77.0015L113.3 126.601L133.6 168.501H128.8L76.4 77.0015H92.7Z" fill="#1C66DD"/>
<path d="M133.9 166.601C134.3 167.801 134.6 168.701 134.6 169.301C134.6 170.001 134.5 171.101 134.2 172.501C133.4 172.501 125.9 172.501 111.7 172.501C111.1 170.601 111.5 169.501 112.7 169.401C114 169.201 115 169.101 115.8 169.001L126.3 164.301C126.5 164.201 126.7 164.301 126.8 164.501L127.5 166.101C128.7 166.601 129.6 166.901 130.3 166.901C130.9 166.901 131.7 166.701 132.8 166.201C133.2 166.001 133.7 166.101 133.9 166.601Z" fill="#0A54BF"/>
<path d="M131.8 159.801L121.2 161.801C113 149.701 78.5 100.101 74.8 77.0015H98.5C111 93.7015 123.9 147.501 131.8 159.801Z" fill="#1C66DD"/>
<path d="M83.9 17.1015C85.7 14.9015 87 12.3015 86.8 9.30147C86.2 0.801475 74.3 2.60148 72 6.90148C69.7 11.2015 70 22.1015 73 22.9015C74.2 23.2015 76.7 22.5015 79.3 20.9015L77.7 32.4015H87.3L83.9 17.1015Z" fill="#1C66DD"/>
<path d="M71.1 8.90144C71.2 8.30144 71.4 7.70143 71.6 7.20143C71.8 6.50143 72.2 5.90143 72.6 5.30143C73.4 4.20143 74.3 3.20144 75.3 2.40144C77.1 0.901438 79.5 0.00143185 81.8 0.301432C83 0.401432 84.1 0.901435 85 1.60143C85.9 2.30143 86.7 3.20143 87.8 3.30143C89 3.40143 90.1 2.30143 91.1 1.60143C92.2 0.901435 93.4 0.301435 94.7 0.101435C96.9 -0.298565 98.9 0.501426 100.4 2.20143C102 4.10143 103.1 6.80143 102.1 9.30143C101.9 9.80143 101.7 10.2014 101.3 10.5014C101 10.8014 100.5 11.1014 100.3 11.6014C100.2 12.1014 100.6 12.8014 100.7 13.2014C100.9 13.9014 101.1 14.5014 101.1 15.2014C101 16.4014 100.3 17.5014 99.5 18.2014C98.7 19.0014 97.7 19.4014 96.7 19.6014C96 19.7014 95.3 19.8014 94.6 19.8014C94.3 19.8014 93.9 19.7014 93.6 19.6014C93.3 19.5014 93.1 19.6014 92.8 19.8014C91.5 20.6014 90.1 21.0014 88.6 20.8014C87.3 20.7014 85.9 20.4014 84.9 19.5014C83.8 18.5014 83.8 17.2014 84.1 15.8014C83.8 15.9014 83 16.0014 83.5 15.5014C83.7 15.3014 84 15.2014 84.3 15.1014C84.6 14.9014 84.9 14.8014 85.1 14.5014C86 13.5014 85.1 11.5014 84 11.1014C82.4 10.6014 82 12.9014 80.8 13.5014C80.1 13.8014 79.4 13.4014 78.9 12.9014C78.2 12.3014 77.8 11.4014 77.4 10.5014C77.1 9.80143 76.8 9.10144 76.4 8.40144C76.2 8.10144 75.7 7.10143 76 6.80143C74.8 6.60143 73.5 7.10143 72.5 7.70143C72.1 8.00143 71.8 8.30143 71.5 8.70143C71.5 8.80143 71.3 9.10143 71.2 9.10143C70.9 9.30143 71 9.00144 71.1 8.90144Z" fill="#F24C64"/>
<path d="M65.6 48.0014L55.5 38.8014C50.2 37.3014 47.8 36.3014 48.2 35.6014C48.9 34.6014 50.3 35.4014 50.9 34.8014C51.5 34.2014 50.4 32.1014 49.3 30.1014C48.2 28.1014 49.4 28.3014 50.1 28.6014C52.3 30.1014 54.6 32.2014 56.9 35.0014L70.8 42.6014L65.6 48.0014Z" fill="#1C66DD"/>
<path d="M77.5 40.8014C72.6 40.7014 66.2 39.7014 59.3 35.3014L56.6 41.3014C61.4 46.0014 68.1 49.9014 73.9 49.7014C78.5 49.7014 80.8 44.1014 77.5 40.8014Z" fill="#7CC1EF"/>
<path d="M29.3 28.3014L27.7 20.2014L46.9 18.9014L49.1 26.2014L29.3 28.3014Z" fill="#C4E8F8"/>
<path d="M29.3 28.3014V49.6014L49.1 47.3014V26.2014L29.3 28.3014Z" fill="#0A54BF"/>
<path d="M35.6 32.2014L29.3 28.3014V49.7014L35.6 54.6014V32.2014Z" fill="#5EA5EF"/>
<path d="M57.6 29.9014L49.1 26.2014V47.3014L57.6 51.7014V29.9014Z" fill="#1C66DD"/>
<path d="M35.6 32.1014L30.1 25.3014L24 21.9014L29.3 28.3014L35.6 32.1014Z" fill="#7CC1EF"/>
<path d="M57.6 29.9014L63.2 23.0014L54.6 20.2014L49.1 26.2014L57.6 29.9014Z" fill="#7CC1EF"/>
<path d="M35.6 32.1014L37.8 25.8014L60.6 23.9014L57.6 29.9014L35.6 32.1014Z" fill="#428EDD"/>
<path d="M35.6 32.2014V54.6014L57.6 51.7014V29.9014L35.6 32.2014Z" fill="#7CC1EF"/>
<path d="M45.2 59.3014C42.6 57.4014 40.1 56.1014 37.9 55.5014C33.6 54.3014 31.8 53.4014 29.7 50.7014C28.6 49.3014 27.6 46.4014 28.7 45.4014C29.4 44.8014 33.6 47.9014 35.4 48.3014C37.1 48.7014 35.5 44.6014 36.5 45.0014C37.7 45.0014 38.7 46.7014 39.6 49.9014L45.7 53.2014L45.2 59.3014Z" fill="#1C66DD"/>
<path d="M70.9 50.5014C65.7 51.8014 57.1 50.3014 45 46.0014C42 52.2014 40.6 56.7014 40.8 59.3014C51.2 64.7014 60.1 67.2014 67.5 67.3014C67.3 71.7014 67.8 75.8014 69.6 79.6014C73.3 87.4014 94.7 80.2014 101.9 81.6014C106.4 66.9014 97.7 61.0014 97.7 51.6014C97.7 41.3014 89.4 25.5014 88.2 25.5014H77.1C76.5 33.3014 73.5 41.9014 70.9 50.5014Z" fill="#C4E8F8"/>
<path d="M135.298 204.648V166.666L92.8307 145.074V179.849L135.298 204.648Z" fill="#428EDD"/>
<path d="M135.298 166.666L202.022 152.699V187.83L135.298 204.648V166.666Z" fill="#C4E8F8"/>
<path d="M92.8307 145.074L155.287 133.459L202.022 152.699L135.298 166.666L92.8307 145.074Z" fill="#7CC1EF"/>
<path opacity="0.4" d="M178.477 185.122V193.745L159.768 198.448V189.398L178.477 185.122Z" fill="#EEF8FF"/>
<path opacity="0.4" d="M179.757 168.234V157.331L135.298 137.164L117.87 140.442L158.701 161.749V173.293L179.757 168.234Z" fill="#EEF8FF"/>
<path d="M171.079 159.184L127.473 138.661L126.406 138.875L170.012 159.398L171.079 159.184Z" fill="#EEF8FF"/>
<path d="M152.37 161.607V137.236L179.615 123.411V145.716L152.37 161.607Z" fill="#C4E8F8"/>
<path d="M152.37 137.236L109.618 128.328V150.846L152.37 161.607V137.236Z" fill="#428EDD"/>
<path d="M179.615 123.411L139.566 116L109.618 128.328L152.37 137.236L179.615 123.411Z" fill="#7CC1EF"/>
<path opacity="0.4" d="M124.699 149.065V154.623L136.721 157.616V151.844L124.699 149.065Z" fill="#EEF8FF"/>
<path opacity="0.4" d="M123.917 138.304V131.321L152.37 118.352L163.538 120.489L137.361 134.1V141.511L123.917 138.304Z" fill="#EEF8FF"/>
<path d="M129.465 132.461L157.35 119.349L158.061 119.42L130.105 132.604L129.465 132.461Z" fill="#EEF8FF"/>
<path d="M47.9447 207.356V144.219L78.5326 127.972V188.686L47.9447 207.356Z" fill="#C4E8F8"/>
<path d="M47.9447 144.219L0 133.744V194.743L47.9447 207.356V144.219Z" fill="#428EDD"/>
<path d="M78.5326 127.972L33.5755 119.207L0 133.744L47.9447 144.219L78.5326 127.972Z" fill="#7CC1EF"/>
<path opacity="0.4" d="M17.0012 192.676V199.161L30.4456 202.724V195.883L17.0012 192.676Z" fill="#EEF8FF"/>
<path opacity="0.4" d="M16.0764 145.431V137.236L47.9447 121.986L60.5356 124.48L31.157 140.514V149.207L16.0764 145.431Z" fill="#EEF8FF"/>
<path d="M22.2651 138.59L53.5644 123.126L54.418 123.269L23.0476 138.732L22.2651 138.59Z" fill="#EEF8FF"/>
<path d="M93.9688 210.064V186.619L119.008 173.293V194.814L93.9688 210.064Z" fill="#C4E8F8"/>
<path d="M93.9688 186.619L54.7025 177.996V199.731L93.9688 210.064V186.619Z" fill="#428EDD"/>
<path d="M119.008 173.293L82.2316 166.167L54.7025 177.996L93.9688 186.619L119.008 173.293Z" fill="#7CC1EF"/>
<path opacity="0.4" d="M68.5738 198.021V203.365L79.5996 206.287V200.729L68.5738 198.021Z" fill="#EEF8FF"/>
<path opacity="0.4" d="M67.8624 187.617V180.918L93.9688 168.448L104.283 170.443L80.2399 183.626V190.752L67.8624 187.617Z" fill="#EEF8FF"/>
<path d="M72.913 181.987L98.5926 169.374L99.2328 169.445L73.5532 182.13L72.913 181.987Z" fill="#EEF8FF"/>
<path d="M175.703 188.472L172.644 177.711L210.132 176.001L214.542 185.693L175.703 188.472Z" fill="#7CC1EF"/>
<path d="M175.703 188.401V216.905L214.542 213.769V185.693L175.703 188.401Z" fill="#0A54BF"/>
<path d="M188.009 193.674L175.703 188.472V216.976L188.009 223.532V193.674Z" fill="#428EDD"/>
<path d="M231.188 190.681L214.542 185.693V213.769L231.188 219.613V190.681Z" fill="#1C66DD"/>
<path d="M188.009 193.602L177.41 184.552L165.388 179.921L175.703 188.472L188.009 193.602Z" fill="#7CC1EF"/>
<path d="M231.188 190.681L242 181.417L225.283 177.783L214.542 185.693L231.188 190.681Z" fill="#7CC1EF"/>
<path d="M188.009 193.603L192.419 185.194L236.949 182.7L231.188 190.681L188.009 193.603Z" fill="#428EDD"/>
<path d="M188.009 193.674V223.532L231.188 219.613V190.681L188.009 193.674Z" fill="#7CC1EF"/>
<path d="M182.105 215.764L186.017 201.94L138.001 199.731L132.382 212.201L182.105 215.764Z" fill="#7CC1EF"/>
<path d="M182.105 215.693V228.805L132.382 224.244V212.201L182.105 215.693Z" fill="#0A54BF"/>
<path d="M166.313 222.392L182.105 215.764V228.591L166.313 237V222.392Z" fill="#7CC1EF"/>
<path d="M111.041 218.544L132.382 212.201V224.53L111.041 232.012V218.544Z" fill="#1C66DD"/>
<path d="M166.313 222.32L179.899 210.705L195.336 204.79L182.105 215.764L166.313 222.32Z" fill="#428EDD"/>
<path d="M111.041 218.544L97.241 206.714L118.653 202.011L132.382 212.201L111.041 218.544Z" fill="#7CC1EF"/>
<path d="M166.313 222.32L160.693 211.56L103.643 208.353L111.041 218.544L166.313 222.32Z" fill="#C4E8F8"/>
<path d="M166.313 222.392V237L111.041 231.941V218.544L166.313 222.392Z" fill="#428EDD"/>
<path d="M63.0964 143.791C62.8119 143.863 62.5273 143.934 62.3139 144.219C62.1005 144.433 62.0294 144.718 61.9583 145.003C61.8871 145.573 62.0294 146.214 62.2428 146.784C62.4562 147.355 62.7407 147.853 63.0964 148.281C63.4521 148.708 63.95 149.136 64.2346 148.993C64.5902 148.922 64.8748 148.352 65.017 147.853C65.1593 147.283 65.2305 146.713 65.2305 146.143C65.1593 145.573 65.0882 144.932 64.7325 144.433C64.5902 144.219 64.3057 144.005 64.0212 143.863C63.7366 143.72 63.381 143.72 63.0964 143.791ZM63.0964 143.791C63.6655 143.649 64.3768 143.863 64.7325 144.362C65.1593 144.86 65.3727 145.43 65.515 146.072C65.6573 146.713 65.6573 147.355 65.5861 147.996C65.515 148.352 65.4439 148.637 65.2305 148.993C65.0882 149.279 64.8036 149.635 64.3768 149.777C63.95 149.92 63.5232 149.706 63.2387 149.492C62.9541 149.279 62.7407 148.993 62.5273 148.708C62.1717 148.138 61.9583 147.568 61.816 146.927C61.6737 146.286 61.6737 145.644 61.816 145.074C61.9583 144.362 62.4562 143.791 63.0964 143.791Z" fill="#428EDD"/>
<path d="M67.3645 147.782C67.08 146.642 66.7954 145.573 66.6532 144.433C66.582 143.863 66.582 143.293 66.6532 142.651C66.7243 142.366 66.7243 142.01 66.8665 141.725C67.0088 141.44 67.2222 141.084 67.5779 140.941C67.9336 140.799 68.2892 140.799 68.716 140.941C69.0717 141.084 69.3563 141.369 69.4985 141.654C69.8542 142.224 69.9965 142.794 70.1387 143.364C70.4233 144.504 70.4233 145.644 70.4233 146.784C70.1387 145.644 69.9253 144.504 69.5697 143.506C69.4274 143.008 69.214 142.438 68.9295 142.081C68.6449 141.654 68.2892 141.511 67.8624 141.654C67.5068 141.796 67.3645 142.295 67.2222 142.794C67.1511 143.293 67.1511 143.863 67.1511 144.433C67.2222 145.502 67.3645 146.642 67.3645 147.782Z" fill="#428EDD"/>
<path d="M72.6996 139.587C72.4862 139.445 72.2728 139.302 71.9882 139.302C71.7748 139.302 71.5614 139.373 71.4192 139.587C71.1346 139.943 71.1346 140.442 71.2058 140.941C71.2058 141.155 71.2769 141.44 71.348 141.511C71.348 141.511 71.4192 141.511 71.4903 141.511C71.5614 141.511 71.7037 141.511 71.846 141.44C72.3439 141.369 73.0553 141.226 73.6243 141.582C74.1934 142.01 74.3357 142.651 74.478 143.15C74.5491 143.72 74.5491 144.29 74.2646 144.86C74.0511 145.145 73.7666 145.288 73.5532 145.43C73.2687 145.573 73.0553 145.644 72.7707 145.716C72.4862 145.787 72.2016 145.787 71.9171 145.716C71.7748 145.716 71.6326 145.644 71.5614 145.502C71.4903 145.359 71.4192 145.217 71.4192 145.145C71.4903 145.43 71.7037 145.573 71.9171 145.573C72.1305 145.573 72.415 145.502 72.6285 145.43C73.0553 145.288 73.5532 144.932 73.7666 144.647C73.9089 144.29 73.9089 143.791 73.8377 143.293C73.7666 142.865 73.5532 142.366 73.2687 142.153C72.9841 141.939 72.4862 141.939 71.9882 142.081C71.846 142.081 71.7037 142.153 71.5614 142.081C71.4192 142.081 71.1346 142.01 70.9924 141.867C70.7078 141.511 70.7078 141.226 70.7078 140.941C70.7078 140.371 70.8501 139.801 71.2769 139.302C71.4903 139.088 71.846 138.946 72.1305 139.088C72.3439 139.231 72.5573 139.445 72.6996 139.587Z" fill="#428EDD"/>
<path d="M59.184 147.426C58.8283 147.283 58.4015 147.141 58.117 147.212C57.7613 147.283 57.619 147.711 57.4768 148.067C57.1922 148.78 57.1211 149.492 57.1922 150.276C57.3345 150.989 57.6191 151.701 58.117 152.2C58.3304 152.485 58.6149 152.699 58.9706 152.842C59.2551 152.984 59.5397 152.984 59.682 152.842C59.8242 152.699 59.9665 152.271 60.0376 151.986C60.1088 151.63 60.1088 151.274 60.1088 150.918C60.1088 150.205 59.8954 149.421 59.682 148.637C59.5397 147.853 59.3974 147.069 59.2551 146.286C59.184 145.502 59.0417 144.718 59.0417 143.934C59.3263 145.502 59.7531 146.998 60.1799 148.495C60.3933 149.207 60.6778 149.991 60.749 150.846C60.8201 151.274 60.749 151.701 60.6778 152.129C60.5356 152.557 60.4644 152.913 60.1088 153.34C59.8953 153.554 59.6108 153.625 59.3263 153.625C59.0417 153.625 58.8283 153.554 58.6149 153.412C58.1881 153.198 57.9036 152.913 57.619 152.628C57.05 151.986 56.7654 151.131 56.6943 150.347C56.6232 149.492 56.7654 148.637 57.1922 147.925C57.4056 147.64 57.619 147.141 58.0459 147.069C58.4727 146.998 58.8283 147.212 59.184 147.426Z" fill="#428EDD"/>
<path d="M210.274 197.379C209.989 197.308 209.634 197.379 209.42 197.522C209.136 197.664 208.994 197.949 208.851 198.163C208.567 198.733 208.496 199.303 208.496 199.945C208.496 200.515 208.638 201.156 208.78 201.655C208.994 202.154 209.278 202.724 209.634 202.724C209.989 202.795 210.416 202.367 210.772 201.869C211.128 201.37 211.341 200.871 211.483 200.301C211.626 199.731 211.697 199.089 211.554 198.519C211.483 198.234 211.341 197.949 211.056 197.736C210.843 197.522 210.558 197.451 210.274 197.379ZM210.274 197.379C210.914 197.451 211.483 197.878 211.697 198.448C211.91 199.018 211.981 199.66 211.91 200.301C211.839 200.942 211.626 201.584 211.341 202.154C211.199 202.439 210.985 202.724 210.701 202.938C210.416 203.151 210.061 203.365 209.634 203.365C209.207 203.294 208.851 203.009 208.638 202.724C208.424 202.439 208.353 202.082 208.211 201.797C208.069 201.156 208.069 200.515 208.14 199.873C208.211 199.232 208.424 198.591 208.709 198.092C208.994 197.593 209.634 197.237 210.274 197.379Z" fill="#428EDD"/>
<path d="M212.977 202.581C213.048 201.441 213.119 200.301 213.404 199.161C213.546 198.591 213.688 198.021 213.973 197.451C214.115 197.166 214.257 196.88 214.471 196.667C214.684 196.453 215.04 196.168 215.396 196.168C215.751 196.097 216.178 196.239 216.463 196.524C216.747 196.809 216.889 197.094 216.961 197.451C217.103 198.092 217.103 198.662 217.032 199.303C216.889 200.443 216.534 201.584 216.178 202.653C216.249 201.512 216.392 200.372 216.463 199.232C216.463 198.662 216.463 198.092 216.32 197.664C216.178 197.166 215.894 196.88 215.467 196.952C215.111 196.952 214.755 197.379 214.542 197.878C214.257 198.377 214.115 198.876 213.902 199.375C213.617 200.372 213.333 201.512 212.977 202.581Z" fill="#428EDD"/>
<path d="M220.66 196.595C220.517 196.382 220.304 196.168 220.091 196.097C219.877 196.025 219.664 196.025 219.45 196.168C219.095 196.453 218.881 196.88 218.81 197.379C218.739 197.593 218.739 197.878 218.81 197.949C218.81 197.949 218.881 198.021 218.952 198.021C219.024 198.021 219.166 198.092 219.308 198.092C219.806 198.163 220.517 198.234 220.944 198.805C221.371 199.375 221.3 200.016 221.229 200.586C221.086 201.156 220.944 201.726 220.446 202.154C220.162 202.368 219.877 202.439 219.593 202.439C219.308 202.439 219.024 202.439 218.739 202.439C218.454 202.368 218.17 202.296 217.956 202.154C217.814 202.082 217.743 201.94 217.672 201.797C217.601 201.655 217.672 201.512 217.672 201.37C217.672 201.655 217.814 201.869 218.028 201.94C218.241 202.011 218.526 202.082 218.739 202.011C219.237 202.011 219.806 201.869 220.019 201.655C220.304 201.37 220.446 200.871 220.517 200.372C220.588 199.945 220.517 199.375 220.304 199.09C220.091 198.804 219.664 198.662 219.166 198.591C219.024 198.591 218.881 198.519 218.739 198.448C218.597 198.377 218.383 198.234 218.241 198.021C218.099 197.593 218.241 197.308 218.312 197.023C218.454 196.453 218.81 195.954 219.308 195.669C219.593 195.527 219.948 195.527 220.162 195.74C220.446 196.097 220.588 196.31 220.66 196.595Z" fill="#428EDD"/>
<path d="M205.366 199.588C205.081 199.375 204.725 199.09 204.37 199.09C204.014 199.09 203.801 199.375 203.516 199.66C203.018 200.23 202.663 200.942 202.591 201.655C202.52 202.368 202.52 203.151 202.805 203.793C202.947 204.078 203.16 204.434 203.374 204.648C203.587 204.862 203.872 205.004 204.014 204.862C204.228 204.79 204.512 204.434 204.654 204.149C204.868 203.864 205.01 203.508 205.081 203.151C205.295 202.439 205.295 201.655 205.437 200.871C205.508 200.087 205.65 199.303 205.792 198.519C205.935 197.736 206.148 196.952 206.362 196.239C206.148 197.807 206.006 199.375 206.006 200.942C206.006 201.726 205.935 202.51 205.792 203.365C205.721 203.793 205.508 204.149 205.295 204.505C205.081 204.862 204.868 205.218 204.37 205.503C204.085 205.646 203.801 205.646 203.516 205.503C203.232 205.432 203.089 205.218 202.947 205.075C202.663 204.719 202.449 204.363 202.236 204.007C201.951 203.223 201.88 202.296 202.093 201.512C202.307 200.729 202.734 199.945 203.303 199.375C203.587 199.161 203.943 198.804 204.441 198.876C204.797 198.947 205.081 199.303 205.366 199.588Z" fill="#428EDD"/>
<path d="M266.091 115.985L292.312 185.21L310.715 236.24H321.193L295.929 115.985H266.091Z" fill="#CE3A5E"/>
<path d="M259.602 115.985C259.336 139.75 259.549 171.736 258.857 173.222C258.432 174.229 244.656 185.475 217.531 206.959L222.903 216.082C255.081 195.395 271.995 183.672 273.644 180.913C276.09 176.776 288.536 138.689 294.972 115.985H259.602Z" fill="#F24C64"/>
<path d="M208 213.083L217.099 206.161L224.45 214.898C225.006 221.498 227.225 228.92 231.04 237.085L229.371 238.482L216.035 222.633L212.343 216.512L211.488 217.228L208 213.083Z" fill="#073099"/>
<path d="M309.758 246L310.29 234.595H321.725C327.15 238.414 334.277 241.491 343 243.825V246H322.257L315.183 244.886V246H309.758Z" fill="#073099"/>
<path d="M280.239 36.8416C277.739 33.9241 276.037 30.317 276.303 26.2325C277.101 14.5624 293.376 17.1617 296.514 23.0497C299.652 28.9378 299.28 43.8436 295.238 44.9045C293.589 45.3288 290.132 44.321 286.621 42.1992L288.855 57.8476H275.718L280.239 36.8416Z" fill="#C4E8F8"/>
<path d="M287.26 27.5056C287.738 34.4545 289.068 37.9555 291.249 37.9555C294.493 37.9555 297.206 35.8868 298.642 35.8868C299.652 35.8868 299.439 37.1598 298.748 38.1147C298.163 38.9104 295.45 39.653 295.45 40.873C295.45 42.0931 297.631 41.1383 297.631 41.8809C297.631 43.1009 298.003 45.3289 295.929 45.3289C293.802 45.3289 287.791 44.5862 286.728 41.4565C286.036 39.4408 285.611 35.2502 285.451 28.9378C285.345 28.9378 285.185 28.9378 285.079 28.9378C283.27 28.9378 281.781 30.4231 281.781 32.2266C281.781 33.1284 282.154 33.9771 282.792 34.5606C282.047 35.6215 281.196 36.7355 280.239 37.9025C276.569 35.7276 273.324 29.3091 276.888 23.1558C277.899 20.1323 280.664 18.5409 283.324 17.7982C285.451 16.8965 287.685 16.7904 289.547 17.3208C293.217 17.6391 296.514 18.7531 297.418 19.4427C297.418 22.8906 296.727 23.9515 290.983 23.8454C289.493 24.535 288.43 25.8081 287.26 27.5056Z" fill="#7CC1EF"/>
<path d="M274.335 46.8141C274.441 46.3897 274.601 45.9654 274.707 45.5941L275.186 45.8062C275.239 45.7532 275.346 45.6471 275.399 45.5941L290.664 47.9281C290.664 56.4684 294.174 63.7887 298.535 70.6846C305.237 81.3998 306.567 93.2289 298.908 109.143C291.993 123.518 287.951 126.648 258.857 116.94C258.857 109.196 259.23 103.361 261.783 93.5472C261.995 84.5825 267.314 55.991 274.335 46.8141Z" fill="#0A54BF"/>
<path d="M283.27 97.4726C283.164 97.7909 283.111 98.1091 283.005 98.4274C265.559 86.4922 265.559 72.0107 270.718 55.7788C266.836 71.7455 268.431 85.2191 283.27 97.4726Z" fill="#5EA5EF"/>
<path d="M309.651 70.1011C303.482 68.722 295.344 69.8359 290.078 72.276C288.43 73.0717 286.887 74.1856 285.93 75.6709C285.345 76.5727 284.813 77.7927 284.866 78.9067C285.026 81.4529 289.493 81.3468 291.302 81.559C296.461 82.1955 301.886 82.0364 306.992 81.1876C309.705 80.7102 312.949 80.1267 315.236 78.5354C316.619 77.5805 318.374 75.9892 317.789 74.0795C317.364 72.6473 315.715 71.8516 314.438 71.3742C313.215 70.9499 310.981 70.4194 309.651 70.1011Z" fill="#428EDD"/>
<path d="M288.111 67.608C288.164 67.661 288.217 67.661 288.27 67.661C288.323 67.661 288.376 67.661 288.43 67.7671C288.43 67.8732 288.376 67.8732 288.323 67.8732C288.004 67.9793 288.004 68.0323 288.164 68.3506C288.323 68.6158 288.589 68.828 288.908 68.9872C289.334 69.1993 289.813 69.4115 290.238 69.6767C290.557 69.8889 290.823 70.0481 291.089 70.3133C291.674 70.7907 292.153 71.3212 292.419 72.0108C292.578 72.3821 292.685 72.8064 292.738 73.2308C292.844 73.8673 292.897 74.4508 292.897 75.0874C292.897 75.4057 292.897 75.7239 292.951 76.0422C292.951 76.4135 293.11 76.7318 293.27 77.0501C293.376 77.3684 293.536 77.6336 293.642 77.9518C293.748 78.2171 293.908 78.4823 294.014 78.7475C294.174 79.0658 294.28 79.3841 294.44 79.7024C294.653 80.1267 294.865 80.5511 295.025 81.0285C295.184 81.3468 295.344 81.665 295.504 81.9833C295.663 82.3546 295.823 82.6729 295.982 83.0442C296.089 83.3625 296.248 83.6277 296.355 83.946C296.514 84.3704 296.727 84.7947 296.886 85.2191C297.099 85.8026 297.312 86.4391 297.472 87.0226C297.525 87.3409 297.631 87.6061 297.684 87.9244C297.737 88.1896 297.791 88.4549 297.844 88.667C297.897 88.9853 297.897 89.3566 297.897 89.6749C297.897 90.2054 297.791 90.6828 297.472 91.1071C296.993 91.6906 296.035 92.0089 295.344 91.6376C295.184 91.5315 295.184 91.5315 295.078 91.7437C294.812 92.3802 294.28 92.7515 293.589 92.8046C293.217 92.8576 292.844 92.8046 292.472 92.5924C292.419 92.5394 292.366 92.5924 292.312 92.6454C292.046 93.0698 291.621 93.335 291.089 93.3881C290.398 93.4942 289.919 93.2289 289.44 92.8046C289.174 92.5924 289.015 92.3272 288.802 92.0089C288.483 91.5315 288.27 91.001 288.057 90.4706C287.845 89.9932 287.685 89.5158 287.579 89.0383C287.419 88.4548 287.26 87.9244 287.153 87.3409C287.047 86.9165 286.94 86.4391 286.887 86.0148C286.781 85.5374 286.728 85.113 286.621 84.6356C286.515 84.2112 286.462 83.7869 286.355 83.3625C286.249 82.832 286.143 82.3016 286.089 81.7181C286.036 81.3468 285.983 81.0285 285.877 80.6572C285.823 80.3919 285.77 80.1798 285.77 79.9145C285.717 79.7023 285.664 79.4371 285.664 79.2249C285.611 78.8536 285.504 78.4823 285.292 78.2171C285.185 78.0049 285.026 77.7927 284.919 77.6336C284.6 77.1562 284.281 76.7318 284.068 76.2013C283.856 75.83 283.696 75.4587 283.59 75.0343C283.43 74.5569 283.43 74.0265 283.483 73.5491C283.536 72.8595 283.749 72.1699 284.015 71.5333C284.175 71.109 284.387 70.7377 284.6 70.3663C284.76 70.1011 284.866 69.7828 284.919 69.4646C284.919 69.3054 284.866 69.1463 284.813 68.9872C284.813 68.9341 284.76 68.9341 284.707 68.9341C284.653 68.9341 284.547 68.9872 284.494 68.9872C284.441 68.9872 284.387 68.9872 284.334 68.9341C284.334 68.8811 284.334 68.828 284.334 68.775C284.387 68.7219 284.494 68.7219 284.494 68.6158H284.547C285.345 68.3506 286.196 68.0854 286.994 67.8201C287.313 67.8201 287.738 67.7141 288.111 67.608Z" fill="#EEF8FF"/>
<path d="M288.111 67.608C287.738 67.7141 287.366 67.8202 286.94 67.9793C286.143 68.2445 285.292 68.5098 284.494 68.775H284.441C284.334 68.828 284.281 68.775 284.228 68.6689C284.228 68.5098 284.175 68.4037 284.121 68.2976C284.175 68.2445 284.281 68.2445 284.334 68.1384C284.228 68.1915 284.175 68.1915 284.121 68.1915C283.962 67.5549 283.749 66.9715 283.59 66.388C283.536 66.1758 283.59 66.0166 283.856 65.9105C284.866 65.5923 285.93 65.274 286.94 64.9557C287.153 64.9027 287.366 65.0088 287.419 65.2209C287.579 65.7514 287.738 66.2819 287.898 66.8123C287.898 66.8654 288.004 66.9714 288.004 67.0245C287.791 67.0775 287.525 67.1836 287.313 67.2367V67.2897C287.579 67.2367 287.791 67.1306 288.004 67.0775C288.004 67.1306 288.057 67.2367 288.111 67.2897C288.164 67.3958 288.164 67.4489 288.217 67.5549C288.217 67.5549 288.164 67.5549 288.111 67.608ZM286.196 67.5549C285.93 67.608 285.664 67.7141 285.345 67.7671C285.664 67.7141 285.93 67.608 286.196 67.5549ZM286.302 67.5019C286.568 67.4489 286.834 67.3428 287.153 67.2367C286.834 67.2897 286.568 67.3958 286.302 67.5019ZM284.441 68.0854C284.707 68.0324 284.972 67.9263 285.238 67.8732C284.972 67.9263 284.707 67.9793 284.441 68.0854Z" fill="#0A54BF"/>
<path d="M288.111 88.667C287.898 87.8714 287.685 87.0757 287.525 86.28C287.26 84.9008 286.994 83.5216 286.728 82.1424C286.515 80.9754 286.515 79.6493 286.036 78.5353C285.77 77.8988 285.292 77.3153 284.919 76.7318C284.441 75.9361 284.121 75.0343 284.068 74.0795C284.015 73.3899 284.068 71.8516 284.76 71.5333C285.026 72.0107 284.866 72.7003 284.813 73.2838C284.76 74.61 285.451 75.83 286.143 76.944C286.887 78.0579 287.206 79.0658 287.472 80.3389C287.685 81.3467 287.898 82.4077 288.111 83.4155C288.589 85.8556 289.068 88.2957 289.706 90.7358C289.759 90.8419 289.759 90.948 289.706 91.0541C289.6 91.3193 289.174 91.1602 289.068 91.001C288.642 90.2584 288.376 89.4627 288.111 88.667Z" fill="#EEF8FF"/>
<path d="M313.002 62.0912C313.002 62.1442 313.109 62.1442 313.162 62.1973C313.215 62.2503 313.268 62.2503 313.268 62.3034C313.268 62.4095 313.215 62.4095 313.109 62.4095C312.789 62.4625 312.736 62.5155 312.843 62.8338C312.949 63.1521 313.162 63.4173 313.428 63.6295C313.8 63.9478 314.172 64.2661 314.545 64.5843C314.811 64.8496 315.023 65.1148 315.236 65.38C315.715 65.9635 316.034 66.6001 316.193 67.3427C316.3 67.7671 316.247 68.1914 316.247 68.6158C316.247 69.2523 316.14 69.8358 315.981 70.4724C315.928 70.7906 315.874 71.0559 315.821 71.3742C315.768 71.7455 315.821 72.1168 315.874 72.4351C315.928 72.7533 315.981 73.0716 316.087 73.3899C316.14 73.6551 316.247 73.9734 316.3 74.2386C316.353 74.5569 316.459 74.9282 316.513 75.2465C316.619 75.7239 316.725 76.2013 316.832 76.6787C316.885 77.05 316.991 77.3683 317.044 77.7396C317.151 78.1109 317.204 78.5353 317.257 78.9066C317.31 79.2249 317.364 79.5432 317.417 79.8614C317.47 80.2858 317.576 80.7632 317.63 81.1876C317.736 81.8241 317.789 82.4607 317.789 83.0972C317.789 83.4155 317.789 83.7337 317.789 83.999C317.789 84.2642 317.736 84.5294 317.736 84.7947C317.736 85.1129 317.63 85.4843 317.576 85.8025C317.47 86.2799 317.257 86.7574 316.832 87.1287C316.247 87.6061 315.236 87.6591 314.598 87.1817C314.438 87.0226 314.438 87.0756 314.332 87.2348C313.906 87.8183 313.375 88.0304 312.683 87.9774C312.311 87.9243 311.938 87.7652 311.673 87.5C311.619 87.4469 311.566 87.4469 311.513 87.5C311.141 87.8713 310.662 87.9774 310.183 87.9774C309.492 87.9774 309.066 87.553 308.694 87.0226C308.534 86.7573 308.375 86.4391 308.269 86.1208C308.056 85.5903 307.949 85.0069 307.896 84.4764C307.79 83.999 307.737 83.4685 307.737 82.9911C307.737 82.4076 307.683 81.8241 307.683 81.2406C307.683 80.7632 307.683 80.3388 307.683 79.8614C307.683 79.384 307.737 78.9066 307.737 78.4822C307.737 78.0579 307.737 77.6335 307.79 77.2092C307.843 76.6787 307.843 76.0952 307.896 75.5647C307.949 75.1934 307.949 74.8751 307.949 74.5038C307.949 74.2386 307.949 74.0264 308.003 73.7612C308.003 73.549 308.003 73.2838 308.003 73.0716C308.003 72.7003 308.003 72.329 307.843 71.9577C307.737 71.7455 307.683 71.5333 307.577 71.2681C307.364 70.7376 307.205 70.2071 307.045 69.6767C306.939 69.2523 306.886 68.828 306.833 68.4036C306.779 67.8731 306.886 67.3957 307.045 66.9183C307.258 66.2287 307.577 65.6452 308.003 65.0617C308.269 64.6904 308.535 64.3721 308.854 64.0539C309.066 63.8417 309.279 63.5765 309.386 63.2582C309.439 63.0991 309.386 62.9399 309.386 62.7808C309.386 62.7277 309.332 62.7277 309.279 62.7277C309.226 62.7277 309.12 62.7277 309.066 62.7277C309.013 62.7277 308.96 62.7277 308.96 62.6747C308.96 62.6216 308.96 62.5686 309.013 62.5155C309.066 62.4625 309.173 62.4625 309.226 62.4095H309.279C310.13 62.3564 310.981 62.2503 311.885 62.1973C312.204 62.1442 312.577 62.1442 313.002 62.0912Z" fill="#C4E8F8"/>
<path d="M313.002 62.0912C312.577 62.1443 312.204 62.1443 311.779 62.1973C310.928 62.2503 310.077 62.3564 309.173 62.4095H309.12C308.96 62.4625 308.96 62.3564 308.96 62.2503C308.96 62.0912 308.96 61.9851 308.96 61.826C309.013 61.7729 309.12 61.826 309.173 61.7199C309.066 61.7199 309.013 61.7199 308.907 61.7199C308.907 61.0833 308.8 60.4468 308.747 59.8633C308.747 59.6511 308.854 59.492 309.066 59.4389C310.13 59.3328 311.247 59.2798 312.311 59.1737C312.524 59.1737 312.683 59.2798 312.736 59.492C312.79 60.0224 312.843 60.6059 312.843 61.1364C312.843 61.2425 312.896 61.2955 312.896 61.3486C312.63 61.3486 312.417 61.4016 312.151 61.4016V61.4547C312.417 61.4547 312.63 61.4016 312.896 61.4016C312.896 61.4547 312.896 61.5608 312.949 61.6138C312.949 61.7199 312.949 61.7729 313.002 61.879C313.109 62.0382 313.055 62.0912 313.002 62.0912ZM311.141 61.6138C310.875 61.6138 310.556 61.6138 310.29 61.6668C310.556 61.6668 310.875 61.6668 311.141 61.6138ZM311.247 61.6138C311.513 61.6138 311.832 61.5608 312.098 61.5608C311.832 61.5608 311.566 61.5608 311.247 61.6138ZM309.332 61.7729C309.598 61.7729 309.917 61.7199 310.183 61.7199C309.864 61.7199 309.598 61.7199 309.332 61.7729Z" fill="#0A54BF"/>
<path d="M308.375 82.6728C308.322 81.8772 308.322 81.0284 308.322 80.2328C308.322 78.8536 308.375 77.4213 308.481 76.0422C308.534 74.8221 308.854 73.549 308.588 72.382C308.428 71.6924 308.109 71.0559 307.896 70.3663C307.63 69.4645 307.471 68.5097 307.63 67.6079C307.737 66.9714 308.109 65.4331 308.854 65.2739C309.013 65.8044 308.694 66.4409 308.534 66.9714C308.215 68.2445 308.588 69.5706 309.013 70.7907C309.492 72.0637 309.598 73.0716 309.545 74.3978C309.492 75.4587 309.492 76.5196 309.439 77.5274C309.385 80.0206 309.279 82.5137 309.332 85.0069C309.332 85.1129 309.332 85.219 309.279 85.3251C309.12 85.5903 308.747 85.3251 308.694 85.1129C308.534 84.3173 308.428 83.4685 308.375 82.6728Z" fill="#EEF8FF"/>
<path d="M297.312 65.6453C297.312 65.6983 297.418 65.6983 297.472 65.7513C297.525 65.8044 297.578 65.8044 297.578 65.8574C297.578 65.9635 297.525 65.9635 297.418 65.9635C297.099 66.0166 297.046 66.0696 297.152 66.3879C297.259 66.7062 297.472 66.9714 297.737 67.1836C298.11 67.5019 298.482 67.8201 298.854 68.1384C299.12 68.4036 299.333 68.6688 299.546 68.9341C300.025 69.5176 300.344 70.1541 300.503 70.8968C300.61 71.3211 300.556 71.7455 300.556 72.1699C300.556 72.8064 300.45 73.3899 300.29 74.0264C300.237 74.3447 300.184 74.61 300.131 74.9282C300.078 75.2995 300.131 75.6709 300.184 75.9891C300.237 76.3074 300.29 76.6257 300.397 76.9439C300.45 77.2092 300.556 77.5275 300.61 77.7927C300.663 78.111 300.769 78.4823 300.822 78.8005C300.929 79.2779 301.035 79.7554 301.141 80.2328C301.195 80.6041 301.301 80.9224 301.354 81.2937C301.461 81.665 301.514 82.0894 301.567 82.4607C301.62 82.7789 301.673 83.0972 301.727 83.4155C301.78 83.8399 301.886 84.3173 301.939 84.7416C302.046 85.3782 302.099 86.0147 302.099 86.6513C302.099 86.9695 302.099 87.2878 302.099 87.553C302.099 87.8183 302.046 88.0835 302.046 88.3487C302.046 88.667 301.939 89.0383 301.886 89.3566C301.78 89.834 301.567 90.3114 301.141 90.6827C300.556 91.1601 299.546 91.2132 298.908 90.7358C298.748 90.5766 298.748 90.6297 298.642 90.7888C298.216 91.3723 297.684 91.5845 296.993 91.5315C296.621 91.4784 296.248 91.3193 295.982 91.0541C295.929 91.001 295.876 91.001 295.823 91.0541C295.45 91.4254 294.972 91.5315 294.493 91.5315C293.802 91.5315 293.376 91.1071 293.004 90.5766C292.844 90.3114 292.685 89.9931 292.578 89.6749C292.366 89.1444 292.259 88.5609 292.206 88.0305C292.1 87.553 292.046 87.0226 292.046 86.5452C292.046 85.9617 291.993 85.3782 291.993 84.7947C291.993 84.3173 291.993 83.8929 291.993 83.4155C291.993 82.9381 292.046 82.4607 292.046 82.0363C292.046 81.612 292.046 81.1876 292.1 80.7632C292.153 80.2328 292.153 79.6493 292.206 79.1188C292.259 78.7475 292.259 78.4292 292.259 78.0579C292.259 77.7927 292.259 77.5805 292.312 77.3153C292.312 77.1031 292.312 76.8379 292.312 76.6257C292.312 76.2544 292.312 75.883 292.153 75.5117C292.046 75.2995 291.993 75.0874 291.887 74.8221C291.674 74.2917 291.515 73.7612 291.355 73.2308C291.249 72.8064 291.195 72.382 291.142 71.9577C291.089 71.4272 291.195 70.9498 291.355 70.4724C291.568 69.7828 291.887 69.1993 292.312 68.6158C292.578 68.2445 292.844 67.9262 293.163 67.6079C293.376 67.3958 293.589 67.1305 293.695 66.8123C293.748 66.6531 293.695 66.494 293.695 66.3348C293.695 66.2818 293.642 66.2818 293.589 66.2818C293.536 66.2818 293.429 66.2818 293.376 66.2818C293.323 66.2818 293.27 66.2818 293.27 66.2288C293.27 66.1757 293.27 66.1227 293.323 66.0696C293.376 66.0166 293.482 66.0166 293.536 65.9635H293.589C294.44 65.9105 295.291 65.8044 296.195 65.7513C296.514 65.6983 296.94 65.6983 297.312 65.6453Z" fill="#C4E8F8"/>
<path d="M297.312 65.6453C296.886 65.6983 296.514 65.6983 296.089 65.7514C295.238 65.8044 294.387 65.9105 293.482 65.9635H293.429C293.27 66.0166 293.27 65.9105 293.27 65.8044C293.27 65.6453 293.27 65.5392 293.27 65.3801C293.323 65.327 293.429 65.38 293.482 65.274C293.376 65.274 293.323 65.274 293.217 65.274C293.217 64.6374 293.11 64.0009 293.057 63.4174C293.057 63.2052 293.163 63.0461 293.376 62.993C294.44 62.8869 295.557 62.8339 296.621 62.7278C296.833 62.7278 296.993 62.8339 297.046 63.046C297.099 63.5765 297.152 64.16 297.152 64.6905C297.152 64.7965 297.206 64.8496 297.206 64.9026C296.94 64.9026 296.727 64.9557 296.461 64.9557V65.0087C296.727 65.0087 296.94 64.9557 297.206 64.9557C297.206 65.0087 297.206 65.1148 297.259 65.1679C297.259 65.274 297.259 65.327 297.312 65.4331C297.418 65.6453 297.365 65.6453 297.312 65.6453ZM295.45 65.2209C295.45 65.1679 295.45 65.1679 295.45 65.2209C295.184 65.2209 294.865 65.2209 294.599 65.274C294.919 65.2209 295.184 65.2209 295.45 65.2209ZM295.61 65.1679C295.876 65.1679 296.195 65.1148 296.461 65.1148C296.142 65.1148 295.876 65.1679 295.61 65.1679ZM293.642 65.327C293.908 65.327 294.227 65.274 294.493 65.274C294.227 65.274 293.908 65.327 293.642 65.327Z" fill="#0A54BF"/>
<path d="M292.685 86.2269C292.631 85.4312 292.631 84.5825 292.631 83.7868C292.631 82.4076 292.685 80.9754 292.791 79.5962C292.844 78.3762 293.163 77.1031 292.897 75.9361C292.738 75.2465 292.419 74.6099 292.206 73.9204C291.94 73.0186 291.78 72.0638 291.94 71.162C292.046 70.5255 292.419 68.9871 293.163 68.828C293.323 69.3585 293.004 69.995 292.844 70.5254C292.525 71.7985 292.897 73.1247 293.323 74.3447C293.802 75.6178 293.908 76.6257 293.855 77.9518C293.802 79.0127 293.802 80.0736 293.748 81.0815C293.695 83.5746 293.589 86.0678 293.642 88.5609C293.642 88.667 293.642 88.7731 293.589 88.8792C293.429 89.1444 293.057 88.8792 293.004 88.667C292.844 87.8713 292.738 87.0756 292.685 86.2269Z" fill="#EEF8FF"/>
<path d="M302.312 60.606C302.365 60.659 302.418 60.659 302.471 60.659C302.524 60.659 302.578 60.659 302.631 60.7651C302.631 60.8712 302.578 60.8712 302.524 60.8712C302.205 60.9773 302.152 61.0303 302.365 61.3486C302.524 61.6669 302.79 61.826 303.109 61.9851C303.535 62.1973 303.96 62.4095 304.386 62.7278C304.705 62.94 304.971 63.1521 305.237 63.3643C305.822 63.8417 306.247 64.4252 306.567 65.1148C306.726 65.5392 306.779 65.9635 306.886 66.3349C306.992 66.9714 306.992 67.5549 306.992 68.1915C306.992 68.5097 306.992 68.828 306.992 69.1463C306.992 69.5176 307.152 69.8359 307.258 70.2072C307.364 70.5255 307.524 70.7907 307.63 71.109C307.737 71.3742 307.896 71.6394 308.003 71.9046C308.162 72.2229 308.269 72.5412 308.428 72.8595C308.641 73.2838 308.8 73.7612 309.013 74.1856C309.173 74.5039 309.279 74.8222 309.439 75.1935C309.598 75.5648 309.758 75.9361 309.917 76.2544C310.024 76.5727 310.183 76.8379 310.29 77.1561C310.449 77.5805 310.609 78.0049 310.768 78.4292C310.981 79.0127 311.194 79.6493 311.3 80.2858C311.353 80.6041 311.46 80.8693 311.513 81.1876C311.566 81.4528 311.566 81.7181 311.619 81.9302C311.673 82.2485 311.673 82.6198 311.619 82.9381C311.566 83.4686 311.46 83.946 311.141 84.3703C310.662 84.9538 309.705 85.2191 308.96 84.8477C308.8 84.7416 308.8 84.7417 308.694 84.9538C308.375 85.5904 307.896 85.9087 307.205 86.0147C306.833 86.0678 306.46 85.9617 306.141 85.7495C306.088 85.6965 306.035 85.7495 305.982 85.8026C305.716 86.2269 305.29 86.4391 304.758 86.5452C304.067 86.6513 303.588 86.3861 303.109 85.9087C302.897 85.6965 302.684 85.3782 302.524 85.113C302.258 84.6356 301.992 84.1051 301.833 83.5747C301.673 83.0972 301.461 82.6198 301.354 82.1424C301.195 81.5589 301.088 81.0285 300.982 80.445C300.876 80.0206 300.822 79.5432 300.716 79.1188C300.61 78.6414 300.556 78.2171 300.503 77.7396C300.45 77.3153 300.344 76.8909 300.29 76.4666C300.184 75.9361 300.131 75.4056 300.025 74.8221C299.971 74.4508 299.918 74.1326 299.865 73.7612C299.812 73.496 299.812 73.2838 299.759 73.0186C299.705 72.8064 299.705 72.5412 299.652 72.329C299.599 71.9577 299.493 71.5864 299.28 71.2681C299.174 71.0559 299.014 70.8437 298.908 70.6846C298.588 70.2072 298.323 69.7298 298.057 69.2524C297.897 68.881 297.737 68.4567 297.578 68.0854C297.418 67.608 297.418 67.0775 297.472 66.6001C297.525 65.9105 297.737 65.2209 298.057 64.5844C298.216 64.16 298.429 63.7887 298.695 63.4174C298.854 63.1521 299.014 62.8339 299.014 62.5156C299.014 62.3564 298.961 62.1973 298.908 62.0382C298.908 61.9851 298.854 61.9851 298.801 61.9851C298.748 61.9851 298.642 62.0382 298.588 62.0382C298.535 62.0382 298.482 62.0382 298.429 61.9851C298.429 61.9321 298.429 61.879 298.482 61.826C298.535 61.773 298.642 61.773 298.642 61.6669H298.695C299.546 61.4016 300.344 61.1894 301.195 60.9242C301.514 60.8181 301.886 60.712 302.312 60.606Z" fill="#EEF8FF"/>
<path d="M302.312 60.606C301.939 60.7121 301.514 60.8182 301.141 60.9243C300.29 61.1895 299.493 61.4017 298.642 61.6669H298.588C298.482 61.72 298.429 61.6669 298.376 61.5608C298.376 61.4017 298.323 61.2956 298.269 61.1895C298.323 61.1364 298.429 61.1364 298.482 61.0304C298.376 61.0834 298.323 61.0834 298.269 61.0834C298.163 60.4469 297.95 59.8634 297.737 59.2799C297.684 59.0677 297.791 58.9085 298.003 58.8024C299.067 58.4842 300.078 58.2189 301.141 57.9007C301.354 57.8476 301.567 57.9537 301.62 58.1659C301.78 58.6963 301.939 59.2268 302.099 59.7573C302.099 59.8103 302.205 59.9164 302.205 59.9694C301.992 60.0225 301.727 60.1286 301.514 60.1816V60.2347C301.78 60.1816 301.992 60.0755 302.205 60.0225C302.205 60.0755 302.258 60.1816 302.312 60.2347C302.365 60.3408 302.365 60.3938 302.418 60.4999C302.418 60.5529 302.365 60.5529 302.312 60.606ZM300.397 60.4999C300.131 60.5529 299.812 60.659 299.546 60.7121C299.865 60.659 300.131 60.606 300.397 60.4999ZM300.503 60.4468C300.769 60.3938 301.035 60.2877 301.354 60.2347C301.035 60.2877 300.769 60.3938 300.503 60.4468ZM298.642 61.0304C298.908 60.9773 299.174 60.8712 299.439 60.8182C299.174 60.8712 298.908 60.9243 298.642 61.0304Z" fill="#0A54BF"/>
<path d="M301.886 81.665C301.673 80.8693 301.514 80.0737 301.354 79.278C301.088 77.8988 300.876 76.5196 300.663 75.1404C300.503 73.9734 300.503 72.5942 300.025 71.5333C299.759 70.8968 299.333 70.3133 298.961 69.6767C298.482 68.881 298.163 67.9262 298.163 67.0245C298.11 66.3349 298.216 64.7965 298.908 64.4783C299.174 64.9557 298.961 65.6983 298.961 66.2288C298.908 67.5549 299.546 68.775 300.237 69.8889C300.929 71.0029 301.248 72.0107 301.514 73.3369C301.673 74.3447 301.886 75.4056 302.046 76.4135C302.471 78.8536 302.897 81.3467 303.482 83.7338C303.482 83.8399 303.535 83.946 303.482 84.0521C303.375 84.3173 302.95 84.1582 302.843 83.946C302.418 83.2564 302.152 82.4607 301.886 81.665Z" fill="#EEF8FF"/>
<path d="M317.683 74.0795C317.896 72.329 318.693 78.058 319.438 79.9676C320.661 83.3095 321.246 87.394 322.842 90.7358C326.725 98.6926 328.746 110.946 319.119 115.667C314.332 118.001 299.493 118.266 294.546 116.198C287.472 113.28 288.323 104.475 287.419 98.1091C286.515 91.5845 284.919 85.3782 284.866 78.8006C284.866 78.8006 291.249 80.2859 296.195 80.2328C301.088 80.1798 306.726 79.1719 309.598 78.3762C312.47 77.5805 317.523 75.4587 317.683 74.0795Z" fill="#7CC1EF"/>
<path d="M283.536 98.4274C283.058 92.6985 284.547 89.9932 285.611 88.4548C293.748 97.6317 315.449 110.097 316.725 110.203C319.119 110.416 324.704 110.416 325.182 110.999C326.033 113.439 323.693 119.593 319.225 120.494C317.098 120.919 312.47 117.365 311.088 115.826C310.556 115.243 288.323 101.822 283.536 98.4274ZM319.863 80.8693C321.991 80.8693 323.108 81.718 324.331 83.4685C325.555 85.2191 326.778 93.4942 324.757 93.4942C322.736 93.4942 314.385 90.3114 314.385 88.1366C314.385 85.9617 320.129 85.0599 320.129 83.4685C320.129 81.8772 317.736 80.8693 319.863 80.8693Z" fill="#C4E8F8"/>
<path d="M298.11 29.8926C298.216 30.4761 298.748 31.1657 299.067 31.6431C299.439 32.2796 299.705 32.9162 300.078 33.5527C300.397 34.1362 301.248 35.038 300.556 35.5685C300.025 35.9928 297.95 36.205 297.365 35.9928" fill="#C4E8F8"/>
<path d="M297.525 27.8769C297.152 27.8238 296.886 27.7708 296.674 27.7708C296.461 27.7708 296.248 27.7708 296.035 27.8238C295.823 27.8769 295.557 27.8769 295.291 27.9299C295.025 27.9299 294.706 27.983 294.333 27.8769C294.493 27.5586 294.759 27.3464 294.972 27.1342C295.238 26.9751 295.557 26.816 295.929 26.7629C296.301 26.7099 296.674 26.7629 296.993 26.9751C297.259 27.2403 297.472 27.5586 297.525 27.8769Z" fill="#7CC1EF"/>
<path d="M296.78 29.8926C297.103 29.8926 297.365 29.6314 297.365 29.3092C297.365 28.9869 297.103 28.7256 296.78 28.7256C296.457 28.7256 296.195 28.9869 296.195 29.3092C296.195 29.6314 296.457 29.8926 296.78 29.8926Z" fill="#7CC1EF"/>
</svg>
