<svg width="278" height="236" viewBox="0 0 278 236" fill="none" xmlns="http://www.w3.org/2000/svg">
<path d="M43.3814 33.2607C37.225 41.3191 33.9099 50.7877 31.8972 60.2563C24.2016 94.8066 32.0156 131.674 53.2081 161.792C74.4006 191.91 108.853 215.179 148.278 225.856C183.915 235.526 228.549 232.706 251.518 207.523C279.104 177.304 262.41 133.789 268.685 95.9147C271.408 79.6972 278.393 62.3716 269.987 47.6651C264.423 37.8943 253.175 31.4476 241.928 26.2096C189.361 1.63154 84.5825 -20.7305 43.3814 33.2607Z" fill="#EEF8FF"/>
<path d="M122.487 24.6674V13.9096C122.487 9.54944 118.979 6 114.698 6H7.78923C3.50846 6 0 9.57135 0 13.9096V24.6674H122.487Z" fill="#C4E8F8"/>
<path d="M0 24.6674V76.0904C0 80.4505 3.50846 84 7.78923 84H114.698C118.979 84 122.487 80.4286 122.487 76.0904V24.6674H0Z" fill="#C4E8F8"/>
<path d="M39.4951 72.9784L7.77212 72.9041C7.39709 72.7926 7.02206 72.6998 7.13236 72.3655L7 35.5736C7.1103 35.2393 7.24267 34.9236 7.61769 35.0165L39.3407 35.0907C39.7157 35.2022 40.0907 35.295 39.9804 35.6293L39.7378 72.3283C40.0025 72.7555 39.8701 73.0898 39.4951 72.9784Z" fill="#EEF8FF"/>
<path d="M45.4556 12.8798H42.9842V19.6939H40.9983V12.8798H38.5711V11.3242H45.4556V12.8798Z" fill="#428EDD"/>
<path d="M46.1837 11.8502C46.1837 11.5653 46.272 11.3462 46.4706 11.1709C46.6692 10.9957 46.9119 10.908 47.2429 10.908C47.5518 10.908 47.8166 10.9957 48.0152 11.1709C48.2138 11.3462 48.302 11.5872 48.302 11.8502C48.302 12.135 48.2138 12.3541 48.0152 12.5294C47.8166 12.7046 47.5739 12.7923 47.2429 12.7923C46.934 12.7923 46.6692 12.7046 46.4706 12.5294C46.2941 12.376 46.1837 12.135 46.1837 11.8502ZM48.2138 19.694H46.2941V13.4715H48.2138V19.694Z" fill="#428EDD"/>
<path d="M51.6119 11.9158V13.4714H52.627V14.8079H51.6119V17.6562C51.6119 17.8972 51.6561 18.0506 51.7443 18.1382C51.8326 18.2259 51.987 18.2697 52.2298 18.2697C52.4284 18.2697 52.5828 18.2478 52.7152 18.2259V19.6062C52.3622 19.7158 52.0091 19.7815 51.634 19.7815C50.972 19.7815 50.4866 19.6281 50.1776 19.2995C49.8687 18.9927 49.7143 18.5107 49.7143 17.8753V14.8079H48.942V13.4714H49.7143V11.9158H51.6119Z" fill="#428EDD"/>
<path d="M57.0843 15.2242L56.4665 15.1804C55.8707 15.1804 55.4735 15.3775 55.319 15.75V19.6938H53.4214V13.4714H55.2087L55.2749 14.2601C55.6059 13.6466 56.0472 13.3399 56.6209 13.3399C56.8195 13.3399 56.996 13.3618 57.1505 13.4056L57.0843 15.2242Z" fill="#428EDD"/>
<path d="M60.6148 19.8035C59.666 19.8035 58.9157 19.5187 58.342 18.949C57.7683 18.3794 57.4594 17.6344 57.4594 16.7361V16.5827C57.4594 15.9473 57.5697 15.3777 57.8124 14.8956C58.0552 14.4136 58.3861 14.0412 58.8275 13.7563C59.2688 13.4715 59.7984 13.3619 60.4162 13.3619C61.2768 13.3619 61.9608 13.6249 62.4462 14.1726C62.9538 14.7204 63.1965 15.4653 63.1965 16.4513V17.1962H59.4012C59.4674 17.5468 59.6218 17.8097 59.8425 18.0288C60.0631 18.226 60.3721 18.3355 60.7472 18.3355C61.343 18.3355 61.8284 18.1164 62.1594 17.7001L63.042 18.7518C62.7993 19.0805 62.4683 19.3434 62.027 19.5406C61.5857 19.7159 61.1223 19.8035 60.6148 19.8035ZM60.4162 14.8518C59.8645 14.8518 59.5336 15.2243 59.4232 15.9692H61.343V15.8159C61.343 15.5091 61.2768 15.2681 61.1002 15.0928C60.9458 14.9395 60.703 14.8518 60.4162 14.8518Z" fill="#428EDD"/>
<path d="M66.6167 16.5389C66.6167 15.5529 66.8153 14.786 67.2345 14.2164C67.6538 13.6467 68.2496 13.3619 68.9998 13.3619C69.5514 13.3619 70.0148 13.581 70.3899 14.0192V10.8641H72.3097V19.6939H70.5885L70.5003 19.0366C70.1031 19.5625 69.6176 19.8254 68.9998 19.8254C68.2716 19.8254 67.6979 19.5405 67.2566 18.9709C66.8373 18.4012 66.6167 17.5905 66.6167 16.5389ZM68.5364 16.6484C68.5364 17.7439 68.8453 18.3136 69.4852 18.3136C69.9045 18.3136 70.2134 18.1383 70.3899 17.7658V15.3995C70.2134 15.0271 69.9266 14.8518 69.4852 14.8518C68.8895 14.8518 68.5805 15.3338 68.5364 16.2978V16.6484Z" fill="#428EDD"/>
<path d="M76.3477 19.8035C75.3989 19.8035 74.6486 19.5187 74.0749 18.949C73.5012 18.3794 73.1923 17.6344 73.1923 16.7361V16.5827C73.1923 15.9473 73.3026 15.3777 73.5453 14.8956C73.788 14.4136 74.119 14.0412 74.5604 13.7563C75.0017 13.4715 75.5313 13.3619 76.1491 13.3619C77.0097 13.3619 77.6937 13.6249 78.1791 14.1726C78.6867 14.7204 78.9294 15.4653 78.9294 16.4513V17.1962H75.1341C75.2003 17.5468 75.3547 17.8097 75.5754 18.0288C75.796 18.226 76.105 18.3355 76.4801 18.3355C77.0759 18.3355 77.5613 18.1164 77.8923 17.7001L78.7749 18.7518C78.5322 19.0805 78.2012 19.3434 77.7599 19.5406C77.3186 19.7159 76.8552 19.8035 76.3477 19.8035ZM76.127 14.8518C75.5754 14.8518 75.2444 15.2243 75.1341 15.9692H77.0538V15.8159C77.0538 15.5091 76.9876 15.2681 76.8111 15.0928C76.6566 14.9395 76.4359 14.8518 76.127 14.8518Z" fill="#428EDD"/>
<path d="M85.7919 17.9411C85.7919 17.7658 85.7037 17.6344 85.5271 17.5467C85.3506 17.4372 85.0417 17.3495 84.5562 17.24C84.0708 17.1304 83.6957 16.999 83.3867 16.8237C83.0778 16.6484 82.8351 16.4293 82.6806 16.1883C82.5262 15.9473 82.4379 15.6624 82.4379 15.3338C82.4379 14.7641 82.6806 14.2821 83.144 13.9315C83.6074 13.5591 84.2252 13.3838 84.9755 13.3838C85.7919 13.3838 86.4318 13.5591 86.9173 13.9315C87.4027 14.304 87.6454 14.786 87.6454 15.3995H85.7257C85.7257 14.8956 85.4609 14.6546 84.9534 14.6546C84.7548 14.6546 84.5783 14.7203 84.4459 14.8299C84.3135 14.9394 84.2473 15.0928 84.2473 15.2461C84.2473 15.4214 84.3356 15.5529 84.49 15.6624C84.6666 15.772 84.9313 15.8596 85.2844 15.9254C85.6375 15.9911 85.9684 16.0787 86.2332 16.1664C87.16 16.495 87.6234 17.0647 87.6234 17.8973C87.6234 18.4669 87.3807 18.927 86.8731 19.2776C86.3656 19.6282 85.7257 19.8035 84.9534 19.8035C84.4238 19.8035 83.9605 19.7158 83.5412 19.5186C83.122 19.3214 82.813 19.0585 82.5703 18.7299C82.3276 18.4012 82.2173 18.0506 82.2173 17.6782H84.0046C84.0046 17.963 84.1149 18.1821 84.2914 18.3136C84.468 18.445 84.7107 18.5108 84.9975 18.5108C85.2623 18.5108 85.4609 18.4669 85.5933 18.3574C85.7257 18.2478 85.7919 18.1164 85.7919 17.9411Z" fill="#428EDD"/>
<path d="M91.4848 19.8035C90.536 19.8035 89.7858 19.5186 89.212 18.949C88.6383 18.3793 88.3294 17.6344 88.3294 16.736V16.5827C88.3294 15.9473 88.4397 15.3776 88.6825 14.8956C88.9252 14.4136 89.2562 14.0411 89.6975 13.7563C90.1388 13.4714 90.6684 13.3619 91.2862 13.3619C92.1468 13.3619 92.8308 13.6248 93.3163 14.1726C93.8238 14.7203 94.0665 15.4653 94.0665 16.4512V17.1962H90.2712C90.3374 17.5467 90.4919 17.8096 90.7125 18.0287C90.9332 18.2259 91.2421 18.3355 91.6172 18.3355C92.213 18.3355 92.6984 18.1164 93.0294 17.7001L93.9121 18.7518C93.6693 19.0804 93.3384 19.3433 92.897 19.5405C92.4557 19.7158 91.9923 19.8035 91.4848 19.8035ZM91.2421 10.8641H93.2501L91.6834 12.6608H90.1167L91.2421 10.8641ZM91.2642 14.8518C90.7125 14.8518 90.3815 15.2242 90.2712 15.9692H92.1909V15.8158C92.1909 15.5091 92.1247 15.2681 91.9482 15.0928C91.8158 14.9394 91.5731 14.8518 91.2642 14.8518Z" fill="#428EDD"/>
<path d="M96.8909 13.4715V19.9131C96.8909 20.658 96.6703 21.2277 96.2731 21.6221C95.8538 22.0164 95.2801 22.2136 94.552 22.2136C94.243 22.2136 93.9341 22.1917 93.6473 22.126V20.658C93.8679 20.7018 94.0445 20.7018 94.1768 20.7018C94.7064 20.7018 94.9712 20.4389 94.9712 19.9131V13.4715H96.8909ZM94.8388 11.8502C94.8388 11.5653 94.9271 11.3462 95.1257 11.1709C95.3243 10.9957 95.567 10.908 95.898 10.908C96.229 10.908 96.4717 10.9957 96.6703 11.1709C96.8689 11.3462 96.9571 11.5872 96.9571 11.8502C96.9571 12.135 96.8689 12.3541 96.6703 12.5294C96.4717 12.7047 96.229 12.7923 95.898 12.7923C95.567 12.7923 95.3243 12.7047 95.1257 12.5294C94.9271 12.376 94.8388 12.135 94.8388 11.8502Z" fill="#428EDD"/>
<path d="M97.7295 16.5169C97.7295 15.9034 97.8398 15.3337 98.0825 14.8517C98.3252 14.3697 98.6562 13.9972 99.0975 13.7343C99.5389 13.4714 100.068 13.3399 100.664 13.3399C101.591 13.3399 102.297 13.6247 102.827 14.2163C103.356 14.786 103.621 15.5747 103.621 16.5826V16.6483C103.621 17.6124 103.356 18.3792 102.827 18.9489C102.297 19.5186 101.569 19.8034 100.664 19.8034C99.7816 19.8034 99.0976 19.5405 98.568 19.0146C98.0384 18.4888 97.7515 17.7657 97.7074 16.8455L97.7295 16.5169ZM99.6271 16.6483C99.6271 17.218 99.7154 17.6562 99.8919 17.9191C100.068 18.182 100.333 18.3135 100.686 18.3135C101.37 18.3135 101.723 17.7877 101.723 16.7141V16.5169C101.723 15.3995 101.37 14.8517 100.664 14.8517C100.024 14.8517 99.6713 15.3337 99.6271 16.2978V16.6483Z" fill="#428EDD"/>
<path d="M108.122 19.0147C107.725 19.5405 107.174 19.8035 106.49 19.8035C105.828 19.8035 105.298 19.6063 104.967 19.2119C104.636 18.8175 104.46 18.2478 104.46 17.5029V13.4714H106.357V17.5248C106.357 18.0506 106.622 18.3136 107.129 18.3136C107.571 18.3136 107.88 18.1602 108.056 17.8315V13.4714H109.976V19.6939H108.189L108.122 19.0147Z" fill="#428EDD"/>
<path d="M114.72 15.2242L114.102 15.1804C113.507 15.1804 113.109 15.3775 112.955 15.75V19.6938H111.057V13.4714H112.845L112.911 14.2601C113.242 13.6466 113.683 13.3399 114.257 13.3399C114.455 13.3399 114.632 13.3618 114.786 13.4056L114.72 15.2242Z" fill="#428EDD"/>
<path d="M110.638 31.6567H48.7874V33.0589H110.638V31.6567Z" fill="#428EDD"/>
<path d="M110.616 37.7039H48.7654V39.1061H110.616V37.7039Z" fill="#428EDD"/>
<path d="M110.594 43.7511H48.7433V45.1533H110.594V43.7511Z" fill="#428EDD"/>
<path d="M110.594 49.7983H48.7433V51.2005H110.594V49.7983Z" fill="#428EDD"/>
<path d="M110.572 55.8454H48.7213V57.2477H110.572V55.8454Z" fill="#428EDD"/>
<path d="M110.55 61.8927H48.6992V63.2949H110.55V61.8927Z" fill="#428EDD"/>
<path d="M110.55 67.9617H48.6992V69.3639H110.55V67.9617Z" fill="#428EDD"/>
<path d="M110.528 74.009H48.6771V75.4112H110.528V74.009Z" fill="#428EDD"/>
<path d="M22.1154 63.3653C20.3673 61.3513 19.2361 58.8209 19.3903 56.0323C19.9559 47.9763 31.1132 49.7321 33.2727 53.8117C35.4321 57.8914 35.1751 68.1678 32.3986 68.8908C31.2675 69.2007 28.9023 68.4777 26.4858 66.9801L26.82 73H19.86L22.1154 63.3653Z" fill="#0A54BF"/>
<path d="M37.2831 48.1829C37.0774 47.5116 36.6147 46.9435 35.9463 46.7886C35.7921 46.737 35.6378 46.7369 35.4321 46.7369C35.3807 46.7369 35.3293 46.7369 35.3293 46.7369C35.3293 46.6853 35.3293 46.6337 35.2779 46.582C35.2264 46.4788 35.2265 46.3755 35.1751 46.2205C35.0208 45.8591 34.8151 45.4976 34.5066 45.2394C33.9925 44.723 33.2726 44.3615 32.5014 44.3098C32.0901 44.2582 31.6788 44.3615 31.3189 44.4648C31.1132 44.5164 30.9075 44.6197 30.7532 44.723C30.7018 44.7746 30.4962 44.8779 30.4447 44.8779C30.3933 44.8779 30.2391 44.723 30.1877 44.6713C29.5707 44.1549 28.748 44 27.9768 44C27.1027 44 26.2286 44.0516 25.4574 44.6197C25.3032 44.723 25.1489 44.8779 24.9947 44.9812C24.9432 45.0328 24.8404 45.1361 24.789 45.1877C24.7376 45.2394 24.6862 45.291 24.6862 45.3427C24.6348 45.4459 24.6347 45.4459 24.5319 45.3943C24.172 45.1877 23.7607 45.0845 23.3494 45.1361C23.0923 45.1877 22.8352 45.2394 22.6295 45.3427C22.5267 45.3943 22.3724 45.4976 22.2696 45.4976C22.1667 45.4976 22.0125 45.3943 21.9097 45.3427C21.4469 45.1877 20.9328 45.1361 20.47 45.1877C19.9559 45.291 19.4931 45.4459 19.0304 45.7558C18.8247 45.9107 18.6705 46.014 18.5162 46.2205C18.4648 46.3238 18.4134 46.3755 18.3106 46.4787C18.2591 46.5304 18.2077 46.582 18.1563 46.6337C18.1563 46.582 17.5907 46.3755 17.5393 46.3755C17.2822 46.3238 16.9738 46.3238 16.7167 46.4271C16.2025 46.582 15.7398 46.9952 15.3799 47.3566C15.1742 47.5632 15.02 47.7698 14.8657 48.028C14.8143 48.1312 14.7629 48.2345 14.66 48.3895C14.6086 48.4411 14.6086 48.5444 14.5572 48.596C14.5057 48.6477 14.4544 48.6477 14.403 48.6993C13.9916 48.8542 13.5803 49.1124 13.2718 49.4223C12.9633 49.7838 12.7576 50.1969 12.7062 50.6616C12.7062 50.7133 12.7062 50.8166 12.7062 50.8166C12.7062 50.8166 12.6034 50.8166 12.552 50.8166C12.4492 50.8166 12.3463 50.8682 12.2434 50.8682C12.0378 50.9198 11.8321 50.9715 11.6779 51.0748C10.9581 51.4363 10.4439 52.1076 10.1868 52.8822C9.92972 53.6568 9.92977 54.5863 10.2383 55.3609C10.2897 55.4642 10.341 55.6191 10.4439 55.7224C10.4953 55.7741 10.4953 55.7741 10.4953 55.8773C10.4439 55.9806 10.3925 56.0323 10.3925 56.1356C10.2896 56.3938 10.1868 56.7036 10.1354 56.9618C10.0326 57.4266 9.98116 57.943 10.084 58.4077C10.1354 58.6143 10.1868 58.8209 10.2897 59.0274C10.3411 59.1307 10.3925 59.234 10.4953 59.2856C10.5468 59.3373 10.5982 59.3889 10.5982 59.4406L10.6496 59.4922C10.701 59.5438 10.701 59.4922 10.701 59.5955C10.6495 59.7504 10.5982 59.8537 10.5467 60.0086C10.4953 60.1635 10.4439 60.2668 10.3925 60.4217C10.2896 60.6799 10.2382 60.9898 10.1868 61.248C10.084 61.816 10.1354 62.3841 10.3925 62.9005C10.4953 63.107 10.6496 63.3136 10.8552 63.4685C10.9581 63.5202 11.0609 63.6234 11.1637 63.6751C11.2151 63.7267 11.2666 63.7267 11.318 63.7784C11.3694 63.83 11.318 63.9333 11.318 64.0366C11.2152 64.6046 11.2151 65.1727 11.3694 65.7407C11.5236 66.2571 11.8836 66.6702 12.2949 66.9801C13.1176 67.5481 14.3001 67.4965 15.1742 67.0834C15.4313 66.9801 15.6369 66.8252 15.7912 66.6186C16.3053 67.2899 17.2823 67.2383 18.0021 67.0834C18.8762 66.8252 19.596 66.2055 20.0587 65.3792C20.6243 66.0506 21.8068 65.844 22.2182 65.121C22.321 64.9145 22.3724 64.7595 22.4238 64.553C22.4238 64.4497 22.4238 64.3464 22.4238 64.2431C22.4238 64.0882 22.5267 63.9849 22.5781 63.83C22.681 63.5718 22.7323 63.3136 22.7323 63.0554C22.7323 62.9005 22.7323 62.7456 22.6809 62.6423C22.6809 62.4873 22.6809 62.3841 22.7323 62.2808C22.5267 62.3324 22.2182 62.2808 22.0125 62.1775C21.8068 62.1259 21.6012 61.9193 21.4469 61.7644C21.087 61.4029 20.8813 60.9381 20.7271 60.4217C20.4186 59.3889 20.5215 58.0979 21.6012 57.5298C22.1154 57.2716 23.555 57.2716 24.172 57.3749C24.789 57.5298 25.4574 58.8725 25.5088 59.0274C25.5088 59.1307 25.5088 59.1824 25.6116 59.234C25.7659 59.3373 26.0229 59.1307 26.1258 59.0274C26.3314 58.8725 26.4857 58.6143 26.5885 58.4077C26.8456 57.8913 27.1027 57.3749 27.257 56.8069C27.3598 56.3937 27.4626 55.929 27.6169 55.5159C27.7711 55.1027 28.0282 54.7412 28.3881 54.483C28.7994 54.2248 29.2622 54.0699 29.7249 53.915C30.1876 53.7601 30.599 53.5535 30.9589 53.2437C31.0103 53.192 31.1132 53.0888 31.1646 52.9855C31.216 52.9338 31.2674 52.7789 31.3189 52.7273C31.4217 52.6756 31.6273 52.8305 31.6787 52.8822C32.1929 53.192 32.6042 53.6568 32.9127 54.1216C33.2212 54.5863 33.5297 55.0511 33.7354 55.6191C33.8896 56.0323 33.9925 56.497 34.3009 56.8585C34.4038 57.0134 35.3807 57.1167 35.6892 56.9618C35.9977 56.8585 36.3576 56.497 36.4605 56.2905C36.5633 56.0839 36.6147 55.8257 36.5633 55.6191C36.5119 55.4642 36.4605 55.3609 36.4605 55.206C36.4605 55.1027 36.409 54.9995 36.3576 54.8962C36.2548 54.6896 36.1005 54.5863 35.8434 54.483C36.0491 54.2765 36.2548 54.0183 36.3576 53.7601C36.5118 53.5019 36.6147 53.1404 36.6147 52.8305C36.6147 52.5723 36.6147 52.3141 36.4605 52.1076C36.3062 51.901 36.0491 51.7461 35.8434 51.5912C36.2033 51.333 36.4605 51.0231 36.7175 50.6616C37.2317 49.887 37.5402 49.0091 37.2831 48.1829Z" fill="#073099"/>
<path d="M34.6609 59.5955C34.6094 61.0414 35.8948 62.3841 35.8948 63.83C35.8948 64.8628 34.8151 64.9661 33.8896 64.9144" fill="#0A54BF"/>
<path d="M34.301 58.8725C34.301 58.5627 34.0953 58.3045 33.7868 58.1495C33.4783 58.0463 33.1698 57.9946 32.9128 58.0463C32.6043 58.0979 32.3472 58.2012 32.0901 58.3045C31.833 58.4594 31.6273 58.6143 31.4731 58.8725C31.7302 58.7692 31.9872 58.7176 32.2443 58.6659C32.5014 58.6143 32.7585 58.5627 32.9642 58.511C33.2212 58.4594 33.4269 58.4594 33.684 58.4594C33.8897 58.6143 34.0953 58.6659 34.301 58.8725Z" fill="#073099"/>
<path d="M33.9411 66.5153C33.5812 66.4637 33.2213 66.2571 32.9128 66.1022C32.6043 65.9473 32.2443 65.7407 31.7816 65.6891L31.0103 65.5858L31.576 66.1539C31.833 66.4121 32.1415 66.7219 32.45 66.9801C32.7585 67.2383 33.1184 67.4965 33.5811 67.5482C32.9641 67.0318 32.5528 66.3604 31.9872 65.7407L31.7816 66.1539C32.0901 66.2055 32.45 66.3088 32.8099 66.4121C33.1698 66.567 33.5812 66.6186 33.9411 66.5153Z" fill="#073099"/>
<path d="M33.6839 60.0603C33.4568 60.0603 33.2726 59.8753 33.2726 59.6471C33.2726 59.419 33.4568 59.234 33.6839 59.234C33.9111 59.234 34.0952 59.419 34.0952 59.6471C34.0952 59.8753 33.9111 60.0603 33.6839 60.0603Z" fill="#073099"/>
<path d="M156.405 117.677L135.639 170.401L121.718 214.969H116.207L137.495 117.677H156.405Z" fill="#0A54BF"/>
<path d="M160.581 117.677C160.813 136.204 164.003 161.138 164.525 162.303C164.873 163.061 176.706 172.848 200.082 191.665L196.312 195.744C168.76 179.606 154.374 170.459 153.098 168.304C151.184 165.1 144.978 135.388 139.989 117.677H160.581Z" fill="#0A54BF"/>
<path d="M200.539 190.329C201.818 190.772 202.688 191.179 203.187 191.595C203.76 192.1 204.513 192.91 205.526 194.032C204.971 194.728 199.828 200.81 190.172 212.37C188.187 211.534 187.575 210.53 188.292 209.393C189.009 208.257 189.63 207.278 190.103 206.575L193.431 194.876C193.49 194.674 193.75 194.532 193.95 194.59L195.712 195.158C196.958 194.564 197.832 193.979 198.336 193.403C198.75 192.902 199.111 192.065 199.42 190.893C199.582 190.452 200.019 190.16 200.539 190.329C200.539 190.329 200.502 190.285 200.539 190.329Z" fill="#1C66DD"/>
<path d="M123.98 212.93C124.444 214.211 124.676 215.144 124.676 215.784C124.676 216.542 124.56 217.649 124.27 219.163C123.4 219.163 115.453 219.163 100.43 219.163C99.7918 217.124 100.14 216.017 101.474 215.843C102.808 215.668 103.91 215.551 104.78 215.377L115.859 210.425C116.091 210.308 116.323 210.425 116.439 210.658L117.135 212.405C118.353 212.988 119.397 213.279 120.152 213.279C120.79 213.279 121.66 213.046 122.762 212.522C123.226 212.231 123.748 212.405 123.98 212.93C123.98 212.872 123.98 212.872 123.98 212.93Z" fill="#1C66DD"/>
<path d="M142.425 210.366L116.323 207.512L135.639 117.677H159.073L142.425 210.366Z" fill="#073099"/>
<path d="M194.63 185.082L177.518 205.473C159.479 185.665 148.922 172.732 145.964 166.731C142.947 160.672 140.279 144.36 137.901 117.677H164.235C165.569 141.156 166.439 153.448 166.903 154.497C167.31 155.604 176.59 165.799 194.63 185.082Z" fill="#0A54BF"/>
<path d="M154.374 63.8469C156.347 61.5748 157.623 58.7201 157.449 55.5742C156.811 46.4859 144.224 48.4667 141.787 53.0691C139.351 57.6715 139.641 69.2649 142.773 70.0805C144.049 70.43 146.718 69.6144 149.444 67.9249L147.704 80.1592H157.855L154.374 63.8469Z" fill="#0A54BF"/>
<path d="M137.263 46.7189C137.495 45.9616 138.017 45.3207 138.771 45.1459C138.945 45.0877 139.119 45.0877 139.351 45.0877C139.409 45.0877 139.467 45.0877 139.467 45.0877C139.467 45.0294 139.467 44.9712 139.525 44.9129C139.583 44.7964 139.583 44.6799 139.641 44.5051C139.815 44.0973 140.047 43.6895 140.395 43.3982C140.975 42.8156 141.787 42.4078 142.657 42.3495C143.121 42.2913 143.585 42.4078 143.991 42.5243C144.224 42.5826 144.456 42.6991 144.63 42.8156C144.688 42.8739 144.92 42.9904 144.978 42.9904C145.036 42.9904 145.21 42.8156 145.268 42.7574C145.964 42.1748 146.892 42 147.762 42C148.748 42 149.734 42.0583 150.604 42.6991C150.778 42.8156 150.952 42.9904 151.126 43.1069C151.184 43.1652 151.3 43.2817 151.358 43.3399C151.416 43.3982 151.474 43.4565 151.474 43.5147C151.532 43.6312 151.532 43.6312 151.648 43.573C152.054 43.3399 152.518 43.2234 152.982 43.2817C153.272 43.3399 153.562 43.3982 153.794 43.5147C153.91 43.573 154.084 43.6895 154.2 43.6895C154.316 43.6895 154.49 43.573 154.606 43.5147C155.128 43.3399 155.709 43.2817 156.231 43.3399C156.811 43.4564 157.333 43.6312 157.855 43.9808C158.087 44.1556 158.261 44.2721 158.435 44.5051C158.493 44.6216 158.551 44.6799 158.667 44.7964C158.725 44.8546 158.783 44.9129 158.841 44.9712C158.841 44.9129 159.479 44.6799 159.537 44.6799C159.827 44.6216 160.175 44.6216 160.465 44.7381C161.045 44.9129 161.567 45.379 161.973 45.7868C162.205 46.0198 162.379 46.2528 162.553 46.5441C162.611 46.6607 162.669 46.7772 162.785 46.952C162.843 47.0102 162.843 47.1267 162.901 47.185C162.959 47.2432 163.017 47.2432 163.075 47.3015C163.539 47.4763 164.003 47.7676 164.351 48.1171C164.699 48.5249 164.931 48.991 164.989 49.5153C164.989 49.5736 164.989 49.6901 164.989 49.6901C164.989 49.6901 165.105 49.6901 165.163 49.6901C165.279 49.6901 165.395 49.7483 165.511 49.7483C165.743 49.8066 165.975 49.8649 166.149 49.9814C166.961 50.3892 167.542 51.1465 167.832 52.0204C168.122 52.8943 168.122 53.9429 167.774 54.8168C167.715 54.9333 167.658 55.1081 167.542 55.2246C167.484 55.2829 167.483 55.2829 167.483 55.3994C167.541 55.5159 167.6 55.5742 167.6 55.6907C167.716 55.982 167.832 56.3315 167.89 56.6228C168.006 57.1471 168.064 57.7297 167.948 58.2541C167.89 58.4871 167.832 58.7201 167.716 58.9531C167.658 59.0697 167.599 59.1862 167.483 59.2444C167.425 59.3027 167.367 59.361 167.367 59.4192L167.31 59.4775C167.251 59.5357 167.252 59.4775 167.252 59.594C167.31 59.7688 167.367 59.8853 167.425 60.0601C167.483 60.2348 167.542 60.3513 167.6 60.5261C167.716 60.8174 167.774 61.167 167.832 61.4583C167.948 62.0991 167.89 62.7399 167.6 63.3225C167.484 63.5556 167.309 63.7886 167.077 63.9634C166.961 64.0216 166.845 64.1381 166.729 64.1964C166.671 64.2547 166.613 64.2546 166.555 64.3129C166.497 64.3712 166.555 64.4877 166.555 64.6042C166.671 65.245 166.671 65.8859 166.497 66.5267C166.323 67.1093 165.917 67.5754 165.453 67.9249C164.525 68.5658 163.191 68.5075 162.205 68.0414C161.915 67.9249 161.683 67.7501 161.509 67.5171C160.929 68.2745 159.827 68.2162 159.015 68.0414C158.029 67.7501 157.217 67.051 156.695 66.1189C156.057 66.8763 154.722 66.6432 154.258 65.8276C154.142 65.5946 154.084 65.4198 154.026 65.1868C154.026 65.0703 154.026 64.9538 154.026 64.8372C154.026 64.6625 153.91 64.5459 153.852 64.3712C153.736 64.0799 153.678 63.7886 153.678 63.4973C153.678 63.3225 153.678 63.1477 153.736 63.0312C153.736 62.8565 153.736 62.7399 153.678 62.6234C153.91 62.6817 154.258 62.6234 154.49 62.5069C154.722 62.4486 154.954 62.2156 155.128 62.0408C155.535 61.633 155.767 61.1087 155.941 60.5261C156.289 59.361 156.173 57.9045 154.954 57.2637C154.374 56.9724 152.75 56.9724 152.054 57.0889C151.358 57.2637 150.604 58.7784 150.546 58.9531C150.546 59.0697 150.546 59.1279 150.43 59.1862C150.256 59.3027 149.966 59.0697 149.85 58.9531C149.618 58.7784 149.444 58.4871 149.328 58.2541C149.038 57.6715 148.748 57.0889 148.574 56.448C148.458 55.982 148.342 55.4577 148.168 54.9916C147.994 54.5255 147.704 54.1177 147.298 53.8264C146.834 53.5351 146.312 53.3604 145.79 53.1856C145.268 53.0108 144.804 52.7778 144.398 52.4282C144.34 52.37 144.224 52.2535 144.166 52.1369C144.108 52.0787 144.049 51.9039 143.991 51.8456C143.875 51.7874 143.643 51.9622 143.585 52.0204C143.005 52.37 142.541 52.8943 142.193 53.4186C141.845 53.9429 141.497 54.4673 141.265 55.1081C141.091 55.5742 140.975 56.0985 140.627 56.5063C140.511 56.6811 139.409 56.7976 139.061 56.6228C138.713 56.5063 138.307 56.0985 138.191 55.8655C138.075 55.6324 138.017 55.3411 138.075 55.1081C138.133 54.9333 138.191 54.8168 138.191 54.642C138.191 54.5255 138.249 54.409 138.307 54.2925C138.423 54.0595 138.597 53.9429 138.887 53.8264C138.655 53.5934 138.423 53.3021 138.307 53.0108C138.133 52.7195 138.017 52.3117 138.017 51.9622C138.017 51.6709 138.017 51.3796 138.191 51.1465C138.365 50.9135 138.655 50.7387 138.887 50.564C138.481 50.2727 138.191 49.9231 137.901 49.5153C137.321 48.6414 136.973 47.651 137.263 46.7189Z" fill="#073099"/>
<path d="M140.221 59.594C140.279 61.2252 138.829 62.7399 138.829 64.3712C138.829 65.5363 140.047 65.6529 141.091 65.5946" fill="#0A54BF"/>
<path d="M140.627 58.7783C140.627 58.4288 140.859 58.1375 141.207 57.9627C141.555 57.8462 141.903 57.788 142.193 57.8462C142.541 57.9045 142.831 58.021 143.121 58.1375C143.411 58.3123 143.643 58.4871 143.818 58.7783C143.527 58.6618 143.237 58.6036 142.947 58.5453C142.657 58.4871 142.367 58.4288 142.135 58.3705C141.845 58.3123 141.613 58.3123 141.323 58.3123C141.091 58.4871 140.859 58.5453 140.627 58.7783Z" fill="#073099"/>
<path d="M141.033 67.4006C141.439 67.3424 141.845 67.1093 142.193 66.9346C142.541 66.7598 142.947 66.5268 143.469 66.4685L144.34 66.352L143.701 66.9928C143.411 67.2841 143.063 67.6337 142.715 67.925C142.367 68.2163 141.961 68.5075 141.439 68.5658C142.135 67.9832 142.599 67.2259 143.237 66.5268L143.469 66.9928C143.121 67.0511 142.715 67.1676 142.309 67.2841C141.903 67.4589 141.439 67.5172 141.033 67.4006Z" fill="#073099"/>
<path d="M141.323 60.1183C141.58 60.1183 141.787 59.9096 141.787 59.6522C141.787 59.3948 141.58 59.1862 141.323 59.1862C141.067 59.1862 140.859 59.3948 140.859 59.6522C140.859 59.9096 141.067 60.1183 141.323 60.1183Z" fill="#073099"/>
<path d="M117.483 108.88L105.998 100.025C100.256 98.9766 97.5875 98.0445 98.0516 97.2871C98.6896 96.1219 100.256 96.9376 100.778 96.2385C101.3 95.5394 99.9657 93.3838 98.6316 91.403C97.2975 89.4222 98.5736 89.4805 99.2697 89.7135C101.764 91.1117 104.374 93.1508 107.042 95.8306L122.356 102.589L117.483 108.88Z" fill="#0A54BF"/>
<path d="M152.054 71.9448L148.4 71.304C140.453 79.0523 137.205 97.6949 131.869 100.142C126.88 102.472 119.746 100.2 111.277 97.1706L108.667 102.996C116.323 111.327 132.681 118.377 139.351 114.357C150.024 107.948 152.46 84.9364 152.054 71.9448Z" fill="#CE3A5E"/>
<path d="M168.006 118.027C153.33 118.027 142.599 118.027 135.697 118.027C134.247 118.027 134.479 115.871 134.711 114.823C137.147 102.356 146.776 88.8979 146.776 71.1291L156.115 69.6727C163.829 82.1399 166.497 97.4619 168.006 118.027Z" fill="#C4E8F8"/>
<path d="M167.715 96.1219C175.836 106.725 171.776 110.395 176.3 115.638L186.683 111.444C182.333 84.2372 177.634 82.606 156.752 69.6727H156.636H153.04C144.688 98.3357 142.367 117.444 146.138 126.999H175.256C174.734 120.008 169.688 103.346 167.715 96.1219Z" fill="#F24C64"/>
<path d="M153.794 95.1898C153.156 95.3646 152.46 93.9081 152.17 93.5003C151.706 92.743 151.416 91.9273 151.184 91.0535C150.894 90.0631 151.184 88.9562 152.286 88.6649C152.692 88.5484 153.098 88.7232 153.446 88.9562C154.026 89.364 154.606 90.0631 154.606 90.7622C154.606 90.8204 154.606 90.8204 154.606 90.7622C155.302 89.0144 157.971 89.4805 157.797 91.2865C157.739 92.743 155.592 94.7237 153.794 95.1898Z" fill="#073099"/>
<path d="M151.242 235.942H153.33V140.689L153.446 140.282V140.107C153.446 136.786 156.115 134.106 159.421 134.106C162.727 134.106 165.395 136.786 165.395 140.107H167.484C167.484 135.621 163.887 132.009 159.421 132.009C155.013 132.009 151.416 135.563 151.358 139.932L151.242 140.34V235.942Z" fill="#7CC1EF"/>
<path d="M174.038 111.502L162.263 127.057C158.493 129.387 155.477 131.776 153.214 134.223C152.75 134.98 152.286 136.437 154.954 135.446C157.623 134.456 160.407 133.524 161.045 134.339C161.683 135.155 160.407 136.728 161.509 137.777C162.263 138.476 164.003 135.679 166.788 129.446L179.897 118.843L174.038 111.502Z" fill="#428EDD"/>
<path d="M233.029 118.843L212.901 180.596L202.867 227.145L194.34 226.853L206.521 117.969L233.029 118.843Z" fill="#428EDD"/>
<path d="M241.092 119.134C238.772 151.467 238.656 169.178 238.83 172.149C239.004 175.12 239.932 194.87 249.677 229.708L240.802 229.417C227.461 195.86 223.11 175.936 221.602 171.566C220.094 167.139 215.802 149.312 209.711 118.085L241.092 119.134Z" fill="#428EDD"/>
<path d="M233.377 118.843C227.983 140.165 218.702 174.13 205.651 220.795L193.238 220.387C193.934 172.091 198.922 140.398 206.405 117.969L233.377 118.843Z" fill="#1C66DD"/>
<path d="M241.15 119.134C238.83 151.467 240.976 183.509 249.56 222.775L236.277 222.309C222.936 189.219 213.655 157.118 207.855 117.969L241.15 119.134Z" fill="#428EDD"/>
<path d="M250.721 234.485L250.257 226.562C247.414 227.378 243.818 227.086 239.526 225.572C234.885 228.892 229.085 231.106 222.066 232.33C221.544 232.446 221.196 232.912 221.254 233.495C221.254 233.553 221.254 233.553 221.254 233.611L221.95 236H239.526H249.793L250.721 234.485Z" fill="#0A54BF"/>
<path d="M204.433 234.485L203.969 226.562C201.126 227.378 197.53 227.086 193.238 225.572C188.597 228.892 182.797 231.106 175.778 232.33C175.256 232.446 174.908 232.912 174.966 233.495C174.966 233.553 174.966 233.553 174.966 233.611L175.662 236H193.238H203.505L204.433 234.485Z" fill="#0A54BF"/>
<path d="M186.741 64.3129C187.843 60.9922 188.075 57.3802 186.451 54.0594C181.811 44.5051 169.108 52.1952 168.412 58.1958C167.716 64.1964 173.11 76.6636 176.88 76.1393C178.389 75.9645 180.941 73.9255 183.203 70.8961L186.625 84.8198L197.588 80.3922L186.741 64.3129Z" fill="#428EDD"/>
<path d="M177.75 58.8366C179.665 64.8954 179.723 68.2744 177.924 68.9735C175.198 70.0804 172.24 69.2648 171.08 69.7309C170.21 70.0804 170.848 71.0708 171.718 71.6534C172.472 72.1195 175.024 71.8282 175.43 72.8768C175.836 73.9255 173.69 73.8672 173.922 74.4498C174.328 75.4402 174.792 77.4792 176.532 76.7801C178.272 76.081 183.087 73.4011 182.913 70.3717C182.797 68.4492 181.753 64.7789 179.781 59.3609C179.897 59.3026 180.013 59.2444 180.071 59.1861C181.579 58.6035 183.319 59.3026 183.899 60.8174C184.189 61.5747 184.189 62.3903 183.841 63.1477C184.827 63.7885 185.929 64.4294 187.147 65.0702C189.467 61.9825 190.221 55.3993 185.175 51.4378C183.319 49.224 180.245 48.8744 177.808 49.1657C175.72 49.1074 173.806 49.8065 172.414 50.9135C169.456 52.4282 167.078 54.4672 166.497 55.3411C167.658 58.254 168.586 58.8948 173.342 56.8558C174.85 57.0888 176.242 57.7879 177.75 58.8366Z" fill="#C4E8F8"/>
<path d="M169.282 64.9537C169.282 65.7693 169.282 66.5267 169.282 67.3423C169.282 67.8083 169.108 68.6822 169.282 69.1483C169.63 70.0804 171.08 69.7891 171.66 69.3813" fill="#428EDD"/>
<path d="M169.514 62.5651C169.572 62.2738 169.804 61.9825 170.036 61.8077C170.326 61.633 170.616 61.5164 170.906 61.5164C171.196 61.4582 171.486 61.5164 171.776 61.5747C172.066 61.633 172.356 61.6912 172.646 61.8077C172.066 62.0408 171.486 62.0408 170.964 62.099C170.674 62.099 170.442 62.1573 170.21 62.2155C170.036 62.2738 169.746 62.4486 169.514 62.5651Z" fill="#C4E8F8"/>
<path d="M170.5 64.1963C170.756 64.1963 170.964 63.9877 170.964 63.7303C170.964 63.4729 170.756 63.2642 170.5 63.2642C170.243 63.2642 170.036 63.4729 170.036 63.7303C170.036 63.9877 170.243 64.1963 170.5 64.1963Z" fill="#0A54BF"/>
<path d="M263.656 111.444C265.048 112.201 271.834 112.842 276.185 112.842C277.925 112.842 278.157 114.24 277.925 114.823C275.779 119.658 271.544 118.61 267.31 119.309C262.728 120.066 266.15 124.494 262.554 125.134C262.09 122.629 261.684 117.736 259.131 115.988C258.029 115.231 246.544 106.201 224.734 88.7813L233.609 82.606C251.765 100.841 261.8 110.395 263.656 111.444Z" fill="#428EDD"/>
<path d="M194.166 75.5567L189.873 75.4402C186.683 99.9669 163.133 109.638 162.321 118.726C162.031 122.047 164.583 123.328 163.539 124.494L169.63 127.698C170.384 126.474 172.646 128.164 176.59 126.183C180.477 124.202 198.284 103.462 194.166 75.5567Z" fill="#7CC1EF"/>
<path d="M185.117 82.7224C203.273 108.414 192.832 125.368 203.273 133.524C211.915 140.223 244.572 131.368 243.354 119.775C242.89 115.114 240.86 110.395 237.901 105.851C241.44 108.473 244.398 110.861 246.776 112.842C250.895 116.337 255.883 113.891 256.985 115.58L261.8 109.813C259.885 107.832 261.916 104.802 257.739 100.316C239.004 80.1591 218.76 70.0804 197.066 70.1387L195.442 68.0414C194.746 67.1675 193.528 67.051 192.658 67.7501L182.275 76.0227C181.405 76.7218 181.289 77.9453 181.985 78.8191L185.117 82.7224Z" fill="#C4E8F8"/>
<path d="M180.825 115.93C179.317 115.93 176.59 115.347 175.778 116.804C174.734 118.61 176.532 122.804 177.924 123.969C181.637 126.882 186.973 122.163 185.871 117.91C185.233 115.464 183.029 115.93 180.825 115.93Z" fill="#0A54BF"/>
</svg>
