<svg width="318" height="272" viewBox="0 0 318 272" fill="none" xmlns="http://www.w3.org/2000/svg">
<path d="M158.2 234.9C156.8 234.9 155.7 233.8 155.7 232.4V172.6C155.7 171.2 156.8 170.1 158.2 170.1C159.6 170.1 160.7 171.2 160.7 172.6V232.4C160.7 233.8 159.5 234.9 158.2 234.9Z" fill="#FC54A0"/>
<path d="M215.5 127.5C215.5 158.1 190.7 182.9 160.1 182.9C129.5 182.9 104.7 158.1 104.7 127.5" fill="#5B0434"/>
<path d="M160.3 142.6C190.952 142.6 215.8 135.839 215.8 127.5C215.8 119.16 190.952 112.4 160.3 112.4C129.648 112.4 104.8 119.16 104.8 127.5C104.8 135.839 129.648 142.6 160.3 142.6Z" fill="#770649"/>
<path d="M160.3 112.4C156.9 112.4 153.7 112.5 150.5 112.6L150.3 112.4L150 112.7C143.4 113 137.3 113.7 131.8 114.6L131.7 114.5L131.5 114.7C115.6 117.4 104.9 122.1 104.9 127.6C104.9 135.9 129.7 142.7 160.4 142.7C191 142.7 215.9 135.9 215.9 127.6C215.8 119.1 191 112.4 160.3 112.4ZM206.7 122.5L192.3 136.8C187.8 137.7 182.8 138.4 177.5 138.9L197.2 119.4C197.7 119.5 198.2 119.7 198.7 119.8C202.1 120.6 204.7 121.5 206.7 122.5ZM179.2 116.3L155.8 139.6C151.9 139.5 148.2 139.3 144.5 139L168.1 115.5C171.9 115.7 175.6 115.9 179.2 116.3ZM163.9 115.4L140.5 138.6C136.7 138.2 133 137.7 129.6 137L151.2 115.5C154.2 115.4 157.2 115.3 160.2 115.3C161.5 115.4 162.7 115.4 163.9 115.4ZM107.9 127.5C107.9 126.1 110.8 122.7 121.9 119.7C123.7 119.2 125.6 118.8 127.7 118.3L113.6 132.3C109.2 130.3 107.9 128.4 107.9 127.5ZM116.5 133.6L132.8 117.4C137.1 116.7 141.8 116.2 146.7 115.9L126.1 136.4C124.6 136.1 123.2 135.7 121.9 135.4C119.8 134.7 118.1 134.1 116.5 133.6ZM160 139.6L183.1 116.7C186.9 117.2 190.5 117.8 193.8 118.5L172.9 139.2C168.8 139.5 164.6 139.6 160.3 139.6C160.2 139.6 160.1 139.6 160 139.6ZM198.7 135.3C198.4 135.4 198.2 135.4 197.9 135.5L209.5 124C211.9 125.5 212.7 126.8 212.7 127.5C212.8 128.8 209.8 132.2 198.7 135.3Z" fill="#FDA5C4"/>
<path d="M200.8 232.4H116.4L116.8 235.2C116.8 239.7 135.7 243.4 159 243.4C182.3 243.4 201.2 239.7 201.2 235.2L200.8 232.4Z" fill="#3D0220"/>
<path d="M158.7 240.6C182.006 240.6 200.9 236.928 200.9 232.4C200.9 227.871 182.006 224.2 158.7 224.2C135.394 224.2 116.5 227.871 116.5 232.4C116.5 236.928 135.394 240.6 158.7 240.6Z" fill="#770649"/>
<path d="M113.1 253.7C112.9 253.7 112.7 253.7 112.6 253.6C111.3 253.3 110.4 252 110.7 250.6L128.7 168.5C129 167.2 130.3 166.3 131.7 166.6C133 166.9 133.9 168.2 133.6 169.6L115.6 251.7C115.3 252.9 114.2 253.7 113.1 253.7Z" fill="#FC54A0"/>
<path d="M206.2 253.5C205.1 253.5 204 252.7 203.8 251.5L185.8 169.4C185.5 168.1 186.4 166.7 187.7 166.4C189 166.1 190.4 167 190.7 168.3L208.7 250.4C209 251.7 208.1 253.1 206.8 253.4C206.5 253.4 206.4 253.5 206.2 253.5Z" fill="#FC54A0"/>
<path d="M134 131.8C133.9 126.8 130.5 120.6 125.2 119.3C122.9 118.7 119.3 119.5 119.7 122.5C120.1 125.2 124.2 125.2 125.9 127.3C127.6 129.5 126.6 133.2 128.8 135C131.5 137.2 133.4 134.3 134 131.8Z" fill="#C41C60"/>
<path d="M149.8 130.7C149.6 124.7 145.5 117.2 139.2 115.7C136.4 115 132.1 115.9 132.6 119.5C133.1 122.8 138.1 122.7 140.1 125.3C142.2 127.9 141 132.4 143.6 134.6C146.8 137.2 149.1 133.8 149.8 130.7Z" fill="#C41C60"/>
<path d="M169.3 133.8C169.1 127.8 165 120.3 158.7 118.8C155.9 118.1 151.6 119 152.1 122.6C152.6 125.9 157.6 125.8 159.6 128.4C161.7 131 160.5 135.5 163.1 137.7C166.3 140.4 168.6 136.9 169.3 133.8Z" fill="#C41C60"/>
<path d="M183.1 130.899C183 125.899 179.5 119.699 174.3 118.399C171.9 117.799 168.4 118.6 168.8 121.6C169.2 124.4 173.3 124.299 175 126.399C176.7 128.599 175.7 132.3 177.9 134.2C180.6 136.4 182.5 133.499 183.1 130.899Z" fill="#C41C60"/>
<path d="M198.4 130.8C198.2 125.4 194.5 118.6 188.8 117.2C186.2 116.6 182.3 117.4 182.8 120.7C183.2 123.7 187.7 123.6 189.6 125.9C191.5 128.3 190.4 132.4 192.8 134.4C195.6 136.7 197.7 133.6 198.4 130.8Z" fill="#C41C60"/>
<path d="M261.6 72.4001L241.7 66.5001C233.5 68.0001 229.4 68.2001 229.6 66.9001C229.9 65.1001 232.4 65.3001 232.7 64.1001C233.1 62.9001 230.2 60.7001 227.3 58.7001C224.4 56.7001 226.2 56.2001 227.3 56.1001C231.4 56.7001 235.9 58.1001 240.9 60.3001L264.9 61.5001L261.6 72.4001Z" fill="#5B0434"/>
<path d="M270.3 69.4001C262.4 73.5001 250.6 72.6001 241 69.3001L240.7 59.2001C253.1 60.6001 262.6 57.7001 269.3 54.6001C276.1 56.9001 276.6 66.1001 270.3 69.4001Z" fill="#3581EF"/>
<path d="M244.1 63.3999H174.2L174.5 65.6999C174.5 69.3999 189.5 75.5999 208.8 75.5999C228.1 75.5999 244.4 69.3999 244.4 65.6999L244.1 63.3999Z" fill="#5B0434"/>
<path d="M209.1 70.2001C228.375 70.2001 244 67.1556 244 63.4001C244 59.6445 228.375 56.6001 209.1 56.6001C189.825 56.6001 174.2 59.6445 174.2 63.4001C174.2 67.1556 189.825 70.2001 209.1 70.2001Z" fill="#770649"/>
<path d="M209.1 67.8999C225.779 67.8999 239.3 65.6613 239.3 62.8999C239.3 60.1385 225.779 57.8999 209.1 57.8999C192.421 57.8999 178.9 60.1385 178.9 62.8999C178.9 65.6613 192.421 67.8999 209.1 67.8999Z" fill="#FC90CC"/>
<path d="M185.5 63.3003C189.4 62.2003 193.5 61.6003 197.6 61.2003C201.7 60.8003 205.8 60.6003 209.9 60.7003C210.9 60.7003 211.9 60.8003 213 60.8003L214.5 60.9003L216 61.0003L219.1 61.2003C220.1 61.3003 221.1 61.4003 222.2 61.5003C224.2 61.7003 226.3 62.1003 228.3 62.4003C230.3 62.8003 232.3 63.2003 234.3 63.6003C230.3 63.0003 226.2 62.4003 222.2 62.1003C218.1 61.7003 214.1 61.5003 210 61.4003C205.9 61.3003 201.9 61.5003 197.8 61.8003C196.8 61.9003 195.8 62.0003 194.8 62.1003C193.8 62.2003 192.8 62.3003 191.8 62.4003C189.5 62.5003 187.5 62.9003 185.5 63.3003Z" fill="#5B0434"/>
<path d="M292.7 115.6L270.9 187L260.3 247.7H252L263.2 115.6H292.7Z" fill="#5B0434"/>
<path d="M300.5 115.6C299 154.8 300.8 175 301.1 178.5C301.4 182.1 306 205.1 316.7 248.8L307.9 245.8C290.9 205.8 285.1 185 283.2 179.7C281.3 174.4 276.1 153.1 267.7 115.6H300.5Z" fill="#770649"/>
<path d="M316.7 245.8C317.3 247.5 317.7 248.8 317.7 249.7C317.7 250.7 317.5 252.3 317.2 254.3C316 254.3 305.1 254.3 284.5 254.3C283.7 251.5 284.1 250 286 249.7C287.8 249.5 289.4 249.3 290.6 249.1L305.8 242.3C306.1 242.2 306.4 242.3 306.6 242.6L307.6 245C309.3 245.8 310.7 246.2 311.7 246.2C312.6 246.2 313.8 245.9 315.3 245.2C315.7 244.9 316.4 245.1 316.7 245.8C316.6 245.7 316.7 245.8 316.7 245.8Z" fill="#3D0220"/>
<path d="M262.2 245.8C262.8 247.5 263.2 248.8 263.2 249.7C263.2 250.7 263 252.3 262.7 254.3C261.5 254.3 250.6 254.3 230 254.3C229.2 251.5 229.6 250 231.5 249.7C233.4 249.4 234.9 249.3 236.1 249.1L251.3 242.3C251.6 242.2 251.9 242.3 252.1 242.6L253.1 245C254.8 245.8 256.2 246.2 257.2 246.2C258.1 246.2 259.3 245.9 260.8 245.2C261.2 244.9 261.9 245.1 262.2 245.8C262.1 245.7 262.1 245.8 262.2 245.8Z" fill="#3D0220"/>
<path d="M295.6 115.6L286.3 152H258L262.2 115.6H295.6Z" fill="#FC54A0"/>
<path d="M300.8 115.6C303.9 124.8 304.4 136.9 302.5 151.9H273.6L265.6 115.6H300.8Z" fill="#F777B7"/>
<path d="M274.7 30.7C277.4 27.6 279.2 23.7 278.9 19.4C278 7.00002 260.8 9.70003 257.4 16C254 22.3 254.4 38.2 258.8 39.3C260.5 39.7 264.2 38.7 268 36.4L265.6 53.1H279.5L274.7 30.7Z" fill="#770649"/>
<path d="M251.2 7.30001C251.5 6.30001 252.3 5.4 253.3 5.2C253.6 5.1 253.8 5.10001 254.1 5.10001C254.2 5.10001 254.2 5.10001 254.3 5.10001V4.9C254.3 4.7 254.4 4.5 254.5 4.4C254.7 3.8 255.1 3.3 255.5 2.9C256.3 2.1 257.4 1.5 258.6 1.4C259.2 1.3 259.9 1.4 260.5 1.7C260.8 1.8 261.1 1.90001 261.4 2.10001C261.5 2.10001 261.8 2.40001 261.9 2.30001C262 2.30001 262.2 2 262.3 2C263.3 1.2 264.5 0.900004 265.7 1C267.1 1 268.4 1.1 269.6 1.9C269.8 2.1 270.1 2.3 270.3 2.5C270.4 2.6 270.5 2.70001 270.6 2.80001C270.7 2.90001 270.7 2.9 270.8 3C270.9 3.1 270.9 3.20001 271 3.10001C271.6 2.80001 272.2 2.6 272.9 2.7C273.3 2.7 273.7 2.9 274 3C274.1 3.1 274.4 3.30001 274.5 3.30001C274.6 3.30001 274.9 3.10001 275 3.10001C275.7 2.80001 276.5 2.8 277.2 2.9C278 3 278.7 3.30001 279.4 3.80001C279.7 4.00001 280 4.2 280.2 4.5C280.3 4.6 280.4 4.8 280.5 4.9C280.6 5 280.7 5.00001 280.7 5.10001C280.7 5.00001 281.5 4.7 281.6 4.7C282 4.6 282.5 4.6 282.9 4.7C283.7 5 284.4 5.6 285 6.2C285.3 6.5 285.5 6.9 285.8 7.2C285.9 7.4 286 7.6 286.1 7.7C286.1 7.8 286.2 7.9 286.2 8C286.3 8.1 286.3 8.1 286.4 8.2C287.1 8.4 287.7 8.80001 288.1 9.30001C288.6 9.80001 288.9 10.5 289 11.2V11.4H289.2C289.4 11.4 289.5 11.5 289.7 11.5C290 11.6 290.3 11.7 290.6 11.8C291.7 12.4 292.5 13.4 292.9 14.6C293.3 15.8 293.3 17.2 292.8 18.4C292.7 18.6 292.6 18.8 292.5 19C292.4 19.1 292.4 19.1 292.5 19.2C292.5 19.3 292.6 19.5 292.7 19.6C292.9 20 293 20.4 293.1 20.9C293.2 21.6 293.3 22.4 293.2 23.1C293.1 23.4 293 23.8 292.9 24.1C292.8 24.3 292.7 24.4 292.6 24.5C292.5 24.6 292.5 24.6 292.4 24.7L292.3 24.8C292.2 24.9 292.2 24.8 292.2 25C292.3 25.2 292.4 25.4 292.5 25.6C292.6 25.8 292.7 26 292.7 26.2C292.8 26.6 292.9 27.1 293 27.5C293.1 28.3 293.1 29.3 292.7 30C292.5 30.3 292.3 30.6 292 30.9C291.9 31 291.7 31.1 291.5 31.2C291.4 31.2 291.3 31.3 291.3 31.3C291.3 31.4 291.3 31.6 291.3 31.7C291.4 32.6 291.5 33.5 291.2 34.3C291 35.1 290.4 35.8 289.8 36.2C288.5 37.1 286.7 37 285.3 36.3C284.9 36.1 284.6 35.9 284.3 35.6C283.5 36.6 282 36.6 280.9 36.3C279.5 35.9 278.4 35 277.8 33.7C276.9 34.8 275.1 34.4 274.5 33.3C274.4 33 274.3 32.7 274.2 32.4C274.2 32.2 274.2 32.1 274.2 31.9C274.2 31.7 274 31.5 274 31.3C273.8 30.9 273.7 30.5 273.7 30.1C273.7 29.9 273.7 29.7 273.7 29.4C273.7 29.2 273.7 29 273.6 28.8C274 28.9 274.4 28.8 274.7 28.7C275 28.6 275.3 28.3 275.6 28.1C276.1 27.5 276.5 26.8 276.7 26.1C277.2 24.5 277 22.5 275.4 21.6C274.6 21.2 272.4 21.2 271.5 21.4C270.5 21.6 269.5 23.7 269.4 23.9C269.4 24 269.4 24.2 269.3 24.3C269.1 24.5 268.6 24.2 268.5 24C268.2 23.7 268 23.4 267.8 23C267.4 22.2 267 21.4 266.8 20.5C266.6 19.8 266.5 19.2 266.3 18.5C266.1 17.9 265.7 17.3 265.1 16.9C264.5 16.5 263.7 16.3 263 16.1C262.3 15.9 261.6 15.6 261.1 15C261 14.9 260.9 14.8 260.8 14.6C260.7 14.5 260.6 14.3 260.5 14.2C260.3 14.1 260.1 14.4 259.9 14.5C259.1 15 258.5 15.7 258 16.4C257.5 17.1 257.1 17.8 256.7 18.7C256.4 19.3 256.3 20.1 255.8 20.6C255.6 20.8 254.1 21 253.6 20.8C253.1 20.6 252.6 20.1 252.4 19.8C252.2 19.5 252.2 19.1 252.3 18.8C252.3 18.6 252.4 18.4 252.5 18.2C252.5 18 252.6 17.9 252.7 17.7C252.9 17.4 253.1 17.2 253.5 17.1C253.2 16.8 252.9 16.4 252.7 16C252.5 15.6 252.3 15 252.3 14.6C252.3 14.2 252.3 13.8 252.5 13.5C252.7 13.1 253.1 12.9 253.5 12.7C253 12.3 252.5 11.8 252.2 11.2C251.3 9.9 250.9 8.60001 251.2 7.30001Z" fill="#3D0220"/>
<path d="M218.4 85.2C214.3 82.5 210.5 80.7 207 79.9C200.3 78.4 197.6 77.1 194.2 73.1C192.4 71 190.7 66.7 192.3 65.1C193.4 64.1 200 68.6 202.7 69C205.4 69.4 202.7 63.3 204.1 63.9C205.9 63.8 207.6 66.3 209.1 71.1L218.6 75.8L218.4 85.2Z" fill="#770649"/>
<path d="M264.1 40.7998L280.9 39.9998C282.7 39.8998 296.4 63.3998 297.1 78.9998C297.8 93.2998 311.5 101.7 305.6 124.4C294.5 122.7 262.4 135.2 256.3 123.6C253.3 118 252.2 111.7 252.3 105C241.1 105.3 227.4 102.2 211.2 94.6998C210.7 90.6998 212.5 83.7998 216.6 74.1998C235.3 79.8998 248.6 81.5998 256.3 79.2998C259.6 66.0998 263.7 52.7998 264.1 40.7998Z" fill="#5EA7EF"/>
<path d="M255.4 25.7002C254.4 27.3002 253.4 29.4002 253.4 31.3002C254.2 31.9002 255.9 32.2002 256.5 32.2002" fill="#770649"/>
<path d="M258.9 25.9001C259.397 25.9001 259.8 25.4971 259.8 25.0001C259.8 24.503 259.397 24.1001 258.9 24.1001C258.403 24.1001 258 24.503 258 25.0001C258 25.4971 258.403 25.9001 258.9 25.9001Z" fill="#3D0220"/>
<path d="M256.3 35.1998C257.1 34.9998 257.7 34.7998 258.3 34.4998C258.9 34.1998 259.4 33.7998 260.1 33.2998C259.9 34.0998 259.4 34.6998 258.6 35.0998C257.9 35.4998 257 35.4998 256.3 35.1998Z" fill="#3D0220"/>
<path d="M256.6 23.2C257.4 22.8 258.1 22.5 258.9 22.3C259.3 22.2 259.8 22.2 260.3 22.5C260.7 22.7 261 23.1 261.1 23.5C260.4 22.9 259.8 22.9 259 23C258.3 23.1 257.5 23.4 256.6 23.2Z" fill="#3D0220"/>
<path d="M143.4 61.8C145.4 59.6 147.3 57.5 149.3 55.4C149.9 54.8 150.1 54.2 149.8 53.3C149.3 52 149.2 50.6 149.2 49.2C149.2 47.5 149.7 46 150.9 44.8C153.1 42.5 155.1 40.2 157.2 37.8C158.3 36.6 159.3 36.4 160.6 37.4C163.1 39.3 165.4 41.5 167.7 43.7C168.8 44.8 168.6 45.9001 167.6 47.1001C165.7 49.2001 163.6 51.3001 161.8 53.6001C159.9 55.9001 157.5 56.5 154.8 56.3C154.3 56.3 153.8 56.3001 153.3 56.1001C152 55.6001 151.3 56.3001 150.5 57.1001C148.7 59.2001 146.9 61.2 145 63.3C144.8 62.5 144.3 61.9 143.4 61.8ZM160.6 47.1001C159.5 48.3001 158.4 49.5 157.3 50.7C157 51.1 156.2 51.5001 156.9 52.1001C157.7 52.8001 157.9 51.8 158.2 51.4C158.4 51.2 158.6 51 158.8 50.7C160.8 48.5 162.8 46.2 164.8 44C165.1 43.6 165.7 43.2 165.1 42.7C164.5 42.2 164.2 42.8 163.9 43.2C162.8 44.6 161.7 45.8001 160.6 47.1001ZM156.3 43.1001C157.5 41.8001 158.6 40.5 159.8 39.2C160.1 38.9 160.4 38.5001 160 38.1001C159.6 37.7001 159.3 38 159 38.4C156.7 41 154.3 43.6 152 46.2C151.7 46.5 151.3 46.9 151.7 47.4C152.2 47.8 152.5 47.4 152.8 47C153.9 45.7 155.1 44.4001 156.3 43.1001ZM158.9 45.4C157.7 46.7 156.5 48 155.4 49.3C155.1 49.6 154.7 49.9 155.1 50.3C155.5 50.8 155.8 50.3 156.1 50C158.5 47.4 160.8 44.8 163.1 42.2C163.4 41.9 163.8 41.6 163.3 41.2C162.8 40.8 162.6 41.3001 162.3 41.6001C161.2 42.9001 160.1 44.1 158.9 45.4ZM162.5 48.6001C161.3 49.9001 160.1 51.2 159 52.5C158.7 52.8 158.3 53.1 158.7 53.5C159.2 54 159.4 53.5 159.7 53.2C162 50.6 164.3 48.1 166.7 45.5C167 45.2 167.4 44.8 167 44.4C166.5 43.9 166.3 44.5 166 44.7C164.8 46.1 163.6 47.4001 162.5 48.6001ZM157.2 44C156.1 45.3 154.9 46.5 153.8 47.8C153.5 48.1 153.1 48.4 153.5 48.8C154 49.2 154.2 48.8 154.5 48.5C156.8 45.9 159.1 43.4 161.5 40.8C161.8 40.5 162.2 40.2 161.8 39.7C161.4 39.3 161.1 39.7 160.8 40C159.5 41.4 158.3 42.7 157.2 44Z" fill="#FFEBF5"/>
<path d="M143.4 61.7998C144.3 61.8998 144.7 62.5998 145.1 63.2998C145.2 63.9998 144.9 64.4998 144.5 64.9998C139.5 70.5998 134.4 76.1998 129.4 81.6998C128.6 82.5998 127.5 82.6998 126.8 81.9998C126 81.2998 126 80.1998 126.8 79.2998C131.8 73.6998 136.9 68.0998 141.9 62.4998C142.2 61.9998 142.7 61.7998 143.4 61.7998Z" fill="#F9D2E1"/>
<path d="M46.5 129.5L75.7 203.5L95.3 266H103.1L73.1 129.5H46.5Z" fill="#FDA5C4"/>
<path d="M40.6 129.5C40.3 155.5 35.8 190.5 35 192.1C34.5 193.2 17.8 206.9 -15.1 233.3L-9.79998 239C29 216.4 49.3 203.5 51.1 200.5C53.8 196 62.6 154.3 69.6 129.4H40.6V129.5Z" fill="#FDA5C4"/>
<path d="M-15.6979 231.401C-17.5267 232.022 -18.7154 232.628 -19.4049 233.206C-20.2475 233.913 -21.268 235.031 -22.6839 236.61C-21.9125 237.53 -14.7133 246.109 -1.08621 262.349C1.71383 261.175 2.54151 259.828 1.55002 258.179C0.481936 256.595 -0.329042 255.318 -1.01146 254.193L-5.67664 237.743C-5.79287 237.449 -6.12659 237.207 -6.42068 237.323L-8.90197 238.1C-10.6075 237.312 -11.8781 236.42 -12.5209 235.654C-13.0994 234.964 -13.5644 233.788 -14.0566 232.113C-14.3657 231.589 -15.0454 231.245 -15.6979 231.401Z" fill="#E4E4E4"/>
<path d="M92.2 263.1C91.5 264.9 91.2 266.2 91.2 267.1C91.2 268.2 91.4 269.7 91.7 271.8C92.9 271.8 104.1 271.8 125.3 271.8C126.2 268.9 125.7 267.4 123.8 267.1C121.9 266.9 120.4 266.7 119.1 266.5L103.5 259.5C103.2 259.4 102.8 259.5 102.7 259.8L101.7 262.2C100 263 98.5 263.4 97.5 263.4C96.6 263.4 95.4 263 93.8 262.3C93.2 262.2 92.5 262.5 92.2 263.1Z" fill="#E4E4E4"/>
<path d="M66.2 259.6L103 255.6L75.7 129.5H42.7L66.2 259.6Z" fill="#F9D2E1"/>
<path d="M-7.39996 224.1L16.7 252.7C42.1 224.9 56.9 206.8 61.2 198.3C65.5 189.8 69.2 166.9 72.6 129.5H35.5C33.7 162.4 32.4 179.6 31.8 181.2C31.1 182.7 18.1 197 -7.39996 224.1Z" fill="#FFEBF5"/>
<path d="M57.2 45.3999C64 45.3999 66.5 37.2999 70.3 32.7999C73.1 29.5999 77.8 30.5999 79.2 26.0999C82.7 14.7999 73.3 6.8999 61 6.8999C48.7 6.8999 40.5 13.8999 38.7 24.2999C36.9 34.6999 44.9 45.3999 57.2 45.3999Z" fill="#8E1B5A"/>
<path d="M57.9 38.2C55.2 35 53.3 31 53.6 26.6C54.5 13.9 72.2 16.7 75.7 23.1C79.2 29.5 78.7 45.8 74.3 47C72.5 47.5 68.7 46.3 64.9 44L67.3 61.1H53L57.9 38.2Z" fill="#FDA5C4"/>
<path d="M64 29.9997C63.5 29.6997 62.9 29.5997 62.3 29.5997C60.3 29.5997 58.6 31.1997 58.6 33.1997C58.6 33.9997 58.9 34.6997 59.3 35.2997C58.4 36.6997 57.8 38.1997 57.6 39.7997C54.6 39.7997 43.6 28.3997 54.5 17.6997C65.4 6.99967 81.3 22.2997 76.5 23.1997C73.8 23.5997 68.3 26.1997 64 29.9997Z" fill="#8E1B5A"/>
<path d="M77.5 33.5C78.5 37 82.7 39.5 76.5 39.2C76.4 37.9 76.5 36.6 76.5 35.2" fill="#FDA5C4"/>
<path d="M79.9 75.5997L100.6 64.2997C104 60.1997 107.4 56.9997 110.8 54.7997C111.8 54.3997 113.6 54.0997 111.9 57.0997C110.2 60.0997 108.6 63.1997 109.5 64.1997C110.3 65.0997 112.5 63.7997 113.5 65.3997C114.2 66.3997 110.6 67.9997 102.6 70.1997L87.6 83.8997L79.9 75.5997ZM112.3 85.0997L121.4 80.0997C122.7 75.2997 124.2 72.7997 126 72.7997C127.4 72.1997 125 78.2997 127.6 77.7997C130.2 77.2997 136.5 72.5997 137.6 73.4997C139.2 74.8997 137.8 79.1997 136.1 81.3997C132.9 85.3997 130.3 86.7997 123.9 88.5997C120.5 89.4997 116.9 91.3997 113 94.2997L112.3 85.0997Z" fill="#FDA5C4"/>
<path d="M69.9001 72.9999C77.1 72.8999 86.8001 71.3999 97.1001 64.8999L101.1 73.8999C94.0001 80.9999 84.0001 86.6999 75.3001 86.4999C68.4001 86.2999 64.9001 77.9999 69.9001 72.9999Z" fill="#5B0434"/>
<path d="M79.6 87.4997C87.3 89.3997 100.2 87.1997 118.3 80.6997C122.8 89.9997 124.9 96.5997 124.5 100.6C109 108.7 95.7 112.3 84.7 112.6C85 119.1 84.3 125.3 81.6 130.9C76.1 142.5 44.1 131.8 33.4 133.9C26.7 112 39.7 103.1 39.7 89.0997C39.7 73.7997 52 50.1997 53.8 50.1997H70.3C71.2 61.8997 75.8 74.7997 79.6 87.4997Z" fill="#770649"/>
<path d="M76.8 42.8998C75.5 43.1998 74.2 42.9998 73 42.6998L73.4 42.0998C73.8 42.5998 74.4 43.0998 75 43.4998C75.6 43.8998 76.2 44.2998 76.9 44.6998C76.5 44.6998 76.1 44.5998 75.8 44.4998C75.4 44.3998 75.1 44.1998 74.7 44.0998C74 43.6998 73.4 43.2998 72.9 42.5998L72.3 41.7998L73.2 41.9998C74.3 42.2998 75.5 42.5998 76.8 42.8998Z" fill="#8E1B5A"/>
<path d="M71 30.7998C71.7 30.2998 72.3 29.7998 73.2 29.4998C73.6 29.3998 74.1 29.2998 74.6 29.3998C75.1 29.4998 75.5 29.6998 75.8 30.0998C74.9 30.0998 74.3 30.2998 73.5 30.4998C73.1 30.5998 72.7 30.6998 72.3 30.7998C71.9 30.7998 71.5 30.8998 71 30.7998Z" fill="#8E1B5A"/>
<path d="M74.6 33.9997C75.0971 33.9997 75.5 33.5968 75.5 33.0997C75.5 32.6027 75.0971 32.1997 74.6 32.1997C74.103 32.1997 73.7 32.6027 73.7 33.0997C73.7 33.5968 74.103 33.9997 74.6 33.9997Z" fill="#8E1B5A"/>
</svg>
