<svg width="469" height="319" viewBox="0 0 469 319" fill="none" xmlns="http://www.w3.org/2000/svg">
<path d="M11.9 122.601C10.5 122.601 9.40002 124.701 9.40002 127.301C9.40002 127.601 9.40002 128.001 9.40002 128.301C9.40002 129.201 9.40002 130.201 9.40002 131.101C9.40002 132.601 9.40002 134.101 9.40002 135.501C9.40002 137.401 9.40002 139.301 9.40002 141.301C9.40002 143.601 9.40002 145.901 9.40002 148.201C9.40002 150.801 9.40002 153.401 9.40002 155.901C9.40002 158.701 9.40002 161.501 9.40002 164.301C9.40002 167.201 9.40002 170.101 9.40002 173.001C9.40002 175.901 9.40002 178.901 9.40002 181.801C9.40002 184.701 9.40002 187.601 9.40002 190.501C9.40002 193.301 9.40002 196.101 9.40002 198.901C9.40002 201.501 9.40002 204.101 9.40002 206.701C9.40002 209.001 9.40002 211.301 9.40002 213.601C9.40002 215.501 9.40002 217.501 9.40002 219.401C9.40002 220.901 9.40002 222.401 9.40002 223.901C9.40002 224.901 9.40002 225.801 9.40002 226.801C9.40002 227.401 9.40002 228.001 9.40002 228.601C9.40002 229.301 9.99999 229.601 10.3 229.701C10.8 230.001 11.4 230.101 11.9 230.101C12.4 230.101 12.8 230.001 13.3 229.801C13.6 229.701 14.2 229.501 14.3 228.901C14.3 228.801 14.3 228.701 14.4 228.601C14.5 228.001 14.4 227.301 14.4 226.701C14.4 225.801 14.4 224.801 14.4 223.901C14.4 222.501 14.4 221.001 14.4 219.601C14.4 217.701 14.4 215.901 14.4 214.001C14.4 211.801 14.4 209.601 14.4 207.401C14.4 204.901 14.4 202.501 14.4 200.001C14.4 197.301 14.4 194.701 14.4 192.001C14.4 189.201 14.4 186.401 14.4 183.601C14.4 180.801 14.4 177.901 14.4 175.101C14.4 172.301 14.4 169.401 14.4 166.601C14.4 163.901 14.4 161.101 14.4 158.401C14.4 155.801 14.4 153.301 14.4 150.701C14.4 148.401 14.4 146.101 14.4 143.701C14.4 141.701 14.4 139.701 14.4 137.701C14.4 136.101 14.4 134.501 14.4 132.801C14.4 131.601 14.4 130.501 14.4 129.301C14.4 128.701 14.4 128.101 14.4 127.401C14.4 127.301 14.4 127.201 14.4 127.101C14.4 124.701 13.3 122.601 11.9 122.601Z" fill="#6D61AA"/>
<path d="M92.1 107.101C90.7 107.101 89.6 109.201 89.6 111.801C89.6 112.101 89.6 112.501 89.6 112.801C89.6 113.701 89.6 114.701 89.6 115.601C89.6 117.101 89.6 118.601 89.6 120.001C89.6 121.901 89.6 123.801 89.6 125.801C89.6 128.101 89.6 130.401 89.6 132.701C89.6 135.301 89.6 137.901 89.6 140.401C89.6 143.201 89.6 146.001 89.6 148.801C89.6 151.701 89.6 154.601 89.6 157.501C89.6 160.401 89.6 163.401 89.6 166.301C89.6 169.201 89.6 172.101 89.6 175.001C89.6 177.801 89.6 180.601 89.6 183.401C89.6 186.001 89.6 188.601 89.6 191.201C89.6 193.501 89.6 195.801 89.6 198.101C89.6 200.001 89.6 202.001 89.6 203.901C89.6 205.401 89.6 206.901 89.6 208.401C89.6 209.401 89.6 210.301 89.6 211.301C89.6 211.901 89.6 212.501 89.6 213.101C89.6 213.801 90.2 214.101 90.5 214.201C91 214.501 91.6 214.601 92.1 214.601C92.6 214.601 93 214.501 93.5 214.301C93.8 214.201 94.4 214.001 94.5 213.401C94.5 213.301 94.5 213.201 94.6 213.101C94.7 212.501 94.6 211.801 94.6 211.201C94.6 210.301 94.6 209.301 94.6 208.401C94.6 207.001 94.6 205.501 94.6 204.101C94.6 202.201 94.6 200.401 94.6 198.501C94.6 196.301 94.6 194.101 94.6 191.901C94.6 189.401 94.6 187.001 94.6 184.501C94.6 181.801 94.6 179.201 94.6 176.501C94.6 173.701 94.6 170.901 94.6 168.101C94.6 165.301 94.6 162.401 94.6 159.601C94.6 156.801 94.6 153.901 94.6 151.101C94.6 148.401 94.6 145.601 94.6 142.901C94.6 140.301 94.6 137.801 94.6 135.201C94.6 132.901 94.6 130.601 94.6 128.201C94.6 126.201 94.6 124.201 94.6 122.201C94.6 120.601 94.6 119.001 94.6 117.301C94.6 116.101 94.6 115.001 94.6 113.801C94.6 113.201 94.6 112.601 94.6 111.901C94.6 111.801 94.6 111.701 94.6 111.601C94.6 109.201 93.4 107.101 92.1 107.101Z" fill="#6D61AA"/>
<path d="M171.2 122C169.8 122 168.7 124.1 168.7 126.6C168.7 126.9 168.7 127.3 168.7 127.6C168.7 128.5 168.7 129.5 168.7 130.4C168.7 131.9 168.7 133.3 168.7 134.8C168.7 136.7 168.7 138.6 168.7 140.6C168.7 142.9 168.7 145.2 168.7 147.5C168.7 150.1 168.7 152.601 168.7 155.201C168.7 158 168.7 160.7 168.7 163.5C168.7 166.4 168.7 169.3 168.7 172.201C168.7 175.101 168.7 178.1 168.7 181C168.7 183.9 168.7 186.8 168.7 189.701C168.7 192.501 168.7 195.3 168.7 198C168.7 200.6 168.7 203.201 168.7 205.701C168.7 208.001 168.7 210.3 168.7 212.6C168.7 214.5 168.7 216.5 168.7 218.4C168.7 219.9 168.7 221.4 168.7 222.9C168.7 223.9 168.7 224.8 168.7 225.8C168.7 226.4 168.7 227 168.7 227.6C168.7 228.3 169.3 228.601 169.6 228.701C170.1 229.001 170.7 229.1 171.2 229.1C171.7 229.1 172.1 229 172.6 228.8C172.9 228.7 173.5 228.5 173.6 227.9C173.6 227.8 173.6 227.7 173.7 227.6C173.8 227 173.7 226.3 173.7 225.701C173.7 224.8 173.7 223.8 173.7 222.9C173.7 221.5 173.7 220 173.7 218.6C173.7 216.8 173.7 214.9 173.7 213.1C173.7 210.9 173.7 208.7 173.7 206.5C173.7 204 173.7 201.6 173.7 199.1C173.7 196.4 173.7 193.8 173.7 191.1C173.7 188.3 173.7 185.5 173.7 182.701C173.7 179.901 173.7 177 173.7 174.201C173.7 171.401 173.7 168.601 173.7 165.701C173.7 163 173.7 160.3 173.7 157.5C173.7 154.9 173.7 152.4 173.7 149.8C173.7 147.5 173.7 145.2 173.7 142.9C173.7 140.9 173.7 138.9 173.7 136.9C173.7 135.3 173.7 133.7 173.7 132.1C173.7 130.9 173.7 129.8 173.7 128.6C173.7 128 173.7 127.401 173.7 126.701C173.7 126.601 173.7 126.5 173.7 126.4C173.7 124.1 172.6 122 171.2 122Z" fill="#6D61AA"/>
<path d="M182.5 116.101C182.5 126.801 141.8 135.401 91.5999 135.401C41.3999 135.401 0.699951 126.701 0.699951 116.101V118.501C0.699951 129.201 41.2999 137.801 91.4999 137.801C141.7 137.801 181.1 129.601 182.7 119.101L182.5 116.101Z" fill="#6D61AA"/>
<path d="M91.4 135.5C141.603 135.5 182.3 126.859 182.3 116.2C182.3 105.541 141.603 96.9004 91.4 96.9004C41.1973 96.9004 0.5 105.541 0.5 116.2C0.5 126.859 41.1973 135.5 91.4 135.5Z" fill="#F0E8F5"/>
<path d="M100 118.6C100 118.2 100 117.9 100 117.6C100 117.2 100 116.8 100 116.4C100 115.3 100 114.1 100 113C100 111.7 100 110.4 100 109.1C100 107.9 100 106.7 100 105.5C100 104.7 100 103.8 100 103V102.4H84.8C84.8 102.8 84.8 103.2 84.8 103.6C84.8 104.6 84.8 105.7 84.8 106.7C84.8 108 84.8 109.4 84.8 110.7C84.8 112 84.8 113.3 84.8 114.7C84.8 115.7 84.8 116.7 84.8 117.7C84.8 118 84.8 118.3 84.8 118.6C84.8 119.4 85.5001 119.6 86.0001 119.8C86.6001 120 87.3001 120.2 87.9001 120.3C89.4001 120.6 90.9 120.7 92.3 120.7C94.1 120.7 95.8001 120.6 97.5001 120.2C98.0001 120.1 98.5001 119.9 98.9001 119.7C99.5001 119.4 99.9001 119.2 100 118.6Z" fill="#ADA8D4"/>
<path d="M92.4001 104.6C96.5975 104.6 100 103.571 100 102.3C100 101.03 96.5975 100 92.4001 100C88.2027 100 84.8 101.03 84.8 102.3C84.8 103.571 88.2027 104.6 92.4001 104.6Z" fill="#ADA8D4"/>
<path d="M92.4001 100.801C94.3001 100.801 96.1001 101.001 97.5001 101.401C98.9001 101.801 99.3001 102.301 99.3001 102.401C99.3001 102.501 98.9001 102.901 97.5001 103.401C96.1001 103.801 94.3001 104.001 92.4001 104.001C90.5001 104.001 88.7 103.801 87.3 103.401C85.9 103.001 85.5001 102.501 85.5001 102.401C85.5001 102.301 85.9 101.901 87.3 101.401C88.7 101.001 90.5001 100.801 92.4001 100.801ZM92.4001 100.101C88.2001 100.101 84.8 101.101 84.8 102.401C84.8 103.601 88.2001 104.701 92.4001 104.701C96.6001 104.701 100 103.701 100 102.401C100 101.101 96.6001 100.101 92.4001 100.101Z" fill="#8479C9"/>
<path d="M86.4 104.401C86.1 104.301 85.8 104.201 85.5 104.301C85.3 104.401 85.5 104.901 85.5 105.001C85.5 105.301 85.5 105.701 85.5 106.001C85.5 107.601 85.5 109.201 85.5 110.801C85.5 113.101 85.5 115.401 85.5 117.801C85.5 118.001 85.5 118.201 85.6 118.301C85.7 118.601 86.4 118.901 86.7 119.001C86.8 118.501 86.7 117.801 86.7 117.301C86.7 116.701 86.7 116.101 86.7 115.601C86.7 114.401 86.7 113.201 86.7 112.101C86.7 109.701 86.7 107.401 86.7 105.001C86.7 104.601 86.6 104.401 86.4 104.401Z" fill="#E4DAEA"/>
<path d="M99 105.801C99.1 105.801 99.1 105.801 99 105.801C99.2 105.701 99.3 105.501 99.4 105.301C100.5 104.001 102.8 103.601 103.9 105.101C104.4 105.701 104.4 106.501 104.4 107.201C104.4 108.001 104.5 108.701 104.4 109.401C104.4 110.601 104.1 111.801 103.6 112.801C103.2 113.601 102.5 114.701 101.6 115.201C100.7 115.701 99.8 116.301 99.1 117.101C99 117.201 98.9 117.301 98.8 117.301C98.3 117.501 98.2 116.601 98.1 116.301C98 115.801 98.1 115.301 98.1 114.801C98.1 114.501 98.2 114.201 98.3 113.901C98.3 113.801 98.4 113.601 98.5 113.501C98.7 113.401 98.6 113.501 98.8 113.501C99.4 113.601 100 113.401 100.5 113.101C101.2 112.701 102 112.101 102.2 111.301C102.6 109.901 102.6 108.401 102.5 106.901C102.4 106.101 101.2 106.101 100.7 106.501C100.2 106.901 99.8 107.401 99.6 108.001C99.5 108.301 99.6 108.601 99.2 108.901C99.1 109.001 99.1 109.001 99 109.001C98.9 109.001 98.8 108.901 98.7 108.801C98.4 108.501 98.2 108.101 98.1 107.701C98 107.401 98 107.101 98 106.801C98 106.401 98 105.901 98.3 105.701C98.7 105.901 98.9 105.901 99 105.801Z" fill="#8479C9"/>
<path d="M42 82.0005C34.5 82.0005 28.5 83.6005 28.5 85.6005C28.5 87.6005 34.6 89.2005 42 89.2005C49.4 89.2005 55.5 87.6005 55.5 85.6005C55.5 83.6005 49.5 82.0005 42 82.0005Z" fill="#ADA8D4"/>
<path d="M42 82.4005C45.6 82.4005 49 82.8005 51.5 83.4005C52.7 83.7005 53.7 84.1005 54.3 84.5005C54.7 84.8005 55.2 85.2005 55.2 85.6005C55.2 86.0005 54.7 86.4005 54.3 86.7005C53.7 87.1005 52.7 87.5005 51.5 87.8005C49 88.5005 45.6 88.8005 42 88.8005C38.4 88.8005 35 88.4005 32.5 87.8005C31.3 87.5005 30.3 87.1005 29.7 86.7005C29.3 86.4005 28.8 86.0005 28.8 85.6005C28.8 85.2005 29.3 84.8005 29.7 84.5005C30.3 84.1005 31.3 83.7005 32.5 83.4005C35 82.7005 38.4 82.4005 42 82.4005ZM42 82.0005C34.5 82.0005 28.5 83.6005 28.5 85.6005C28.5 87.6005 34.6 89.2005 42 89.2005C49.4 89.2005 55.5 87.6005 55.5 85.6005C55.5 83.6005 49.5 82.0005 42 82.0005Z" fill="#F0E8F5"/>
<path d="M27.6999 69.2132C27.8599 69.1702 27.9664 69.0489 27.9377 68.9422C27.909 68.8356 27.7561 68.7839 27.5961 68.8269C27.4361 68.8699 27.3296 68.9913 27.3583 69.0979C27.387 69.2046 27.5399 69.2562 27.6999 69.2132Z" fill="black"/>
<path d="M30.5229 76.0688L28.495 76.6138L36.28 105.585L38.3079 105.04L30.5229 76.0688Z" fill="#2E3192"/>
<path d="M29.743 77.1386L28.9705 77.3462L36.5738 105.641L37.3464 105.434L29.743 77.1386Z" fill="#35519E"/>
<path d="M37.7999 107.3C37.8999 107.3 37.9999 107.3 37.9999 107.4L38.4 108.9C38.4 109 38.3999 109.1 38.2999 109.1C38.1999 109.1 38.0999 109.1 38.0999 109L37.7 107.5C37.7 107.4 37.6999 107.3 37.7999 107.3Z" fill="#CCCCCC"/>
<path d="M36.3 105.6L37.8 108.6L38.5001 108.4L38.3 105L36.3 105.6Z" fill="#1B1464"/>
<path d="M28.4 77.5001L27.6 74.1001C27.6 74.1001 27 69.8001 27.1 69.2001C27.1 68.6001 27.8 68.6001 28 68.6001C28.2 68.6001 30.1 73.0001 30.1 73.2001C30.1 73.4001 31.1 76.6001 31.1 76.6001C31.1 76.6001 32.7 81.5001 32.6 81.8001C32.5 82.1001 32.5 82.1001 32.3 82.1001C32.2 82.1001 32 82.0001 31.9 81.7001C31.8 81.5001 30.6 77.3001 30.5 77.2001C30.5 77.1001 29.9 77.5001 29.3 77.5001C29 77.8001 28.4 77.5001 28.4 77.5001Z" fill="#1B1464"/>
<path d="M47.9999 66.8004C48.1656 66.8004 48.2999 66.7109 48.2999 66.6004C48.2999 66.4899 48.1656 66.4004 47.9999 66.4004C47.8343 66.4004 47.7 66.4899 47.7 66.6004C47.7 66.7109 47.8343 66.8004 47.9999 66.8004Z" fill="black"/>
<path d="M49 74.2007H46.9V104.201H49V74.2007Z" fill="#6D61AA"/>
<path d="M47.9999 74.9004H47.2V104.2H47.9999V74.9004Z" fill="#8479C9"/>
<path d="M47.9 106.201C48 106.201 48.0999 106.301 48.0999 106.401V108.001C48.0999 108.101 48 108.201 47.9 108.201C47.8 108.201 47.7 108.101 47.7 108.001V106.401C47.8 106.201 47.9 106.201 47.9 106.201Z" fill="#CCCCCC"/>
<path d="M46.9 104.101L47.6 107.401H48.3L49 104.101H46.9Z" fill="#6753A5"/>
<path d="M46.6 75.0005L46.7 71.6005C46.7 71.6005 47.3 67.3005 47.5 66.7005C47.7 66.1005 48.3 66.3005 48.6 66.4005C48.9 66.5005 49.4 71.2005 49.4 71.4005C49.4 71.6005 49.5 74.9005 49.5 74.9005C49.5 74.9005 49.8 80.1005 49.6 80.3005C49.4 80.6005 49.4 80.6005 49.2 80.6005C49.1 80.6005 48.9 80.4005 48.9 80.2005C48.9 79.9005 48.8 75.6005 48.8 75.5005C48.8 75.4005 48.1 75.6005 47.6 75.5005C47 75.4005 46.6 75.0005 46.6 75.0005Z" fill="#6753A5"/>
<path d="M57.0335 69.4546C57.053 69.3459 56.9366 69.234 56.7736 69.2047C56.6105 69.1755 56.4625 69.2398 56.443 69.3486C56.4234 69.4573 56.5398 69.5692 56.7029 69.5985C56.8659 69.6277 57.014 69.5634 57.0335 69.4546Z" fill="black"/>
<path d="M56.4052 76.881L54.3384 76.5098L49.0344 106.036L51.1012 106.407L56.4052 76.881Z" fill="#2F1A70"/>
<path d="M55.3607 77.471L54.5734 77.3296L49.3931 106.167L50.1805 106.308L55.3607 77.471Z" fill="#3E2884"/>
<path d="M49.8 108.3C49.9 108.3 50 108.4 49.9 108.5L49.5999 110C49.5999 110.1 49.5 110.2 49.4 110.1C49.3 110.1 49.2 110 49.3 109.9L49.5999 108.4C49.5999 108.3 49.7 108.2 49.8 108.3Z" fill="#CCCCCC"/>
<path d="M49.1 106.1L49.2 109.4L49.9 109.6L51.2 106.5L49.1 106.1Z" fill="#180B4F"/>
<path d="M53.9 77.4003L54.6 74.0003C54.6 74.0003 55.9 69.8003 56.2 69.3003C56.5 68.8003 57.1 69.1003 57.3 69.2003C57.5 69.3003 57.3 74.1003 57.2 74.3003C57.2 74.5003 56.7 77.8003 56.7 77.8003C56.7 77.8003 56 82.9003 55.8 83.1003C55.6 83.3003 55.5 83.3003 55.4 83.3003C55.3 83.3003 55.2 83.1003 55.2 82.8003C55.2 82.5003 55.9 78.3003 55.9 78.1003C55.9 78.0003 55.2 78.1003 54.7 77.9003C54.3 77.8003 53.9 77.4003 53.9 77.4003Z" fill="#180B4F"/>
<path d="M53.1692 67.4772C53.1978 67.3705 53.0913 67.2492 52.9313 67.2063C52.7713 67.1633 52.6184 67.2148 52.5897 67.3215C52.5611 67.4282 52.6675 67.5495 52.8275 67.5925C52.9875 67.6355 53.1405 67.5839 53.1692 67.4772Z" fill="black"/>
<path d="M42.2124 103.368L44.2404 103.913L52.0254 74.9421L49.9974 74.3971L42.2124 103.368Z" fill="#2E3192"/>
<path d="M43.1541 103.819L43.9266 104.026L51.53 75.7314L50.7574 75.5238L43.1541 103.819Z" fill="#35519E"/>
<path d="M42.7 105.601C42.6 105.601 42.5 105.601 42.5 105.701L42.1 107.201C42.1 107.301 42.1 107.401 42.2 107.401C42.3 107.401 42.4 107.401 42.4 107.301L42.8 105.801C42.9 105.701 42.8 105.601 42.7 105.601Z" fill="#CCCCCC"/>
<path d="M44.3 103.9L42.7 106.9L42 106.7L42.2 103.4L44.3 103.9Z" fill="#1B1464"/>
<path d="M52.1 75.8004L52.9 72.4004C52.9 72.4004 53.5 68.1004 53.4 67.5004C53.3 66.9004 52.7 66.9004 52.5 66.9004C52.3 66.9004 50.4 71.3004 50.4 71.5004C50.4 71.7004 49.4 74.9004 49.4 74.9004C49.4 74.9004 47.8 79.8004 47.9 80.1004C48 80.4004 48 80.4004 48.2 80.4004C48.3 80.4004 48.5 80.3004 48.6 80.0004C48.7 79.7004 49.9 75.6004 50 75.5004C50 75.4004 50.6 75.8004 51.2 75.8004C51.6 76.1004 52.1 75.8004 52.1 75.8004Z" fill="#1B1464"/>
<path d="M39.6117 65.3447C39.6149 65.2343 39.4833 65.1408 39.3177 65.1359C39.1521 65.131 39.0152 65.2165 39.0119 65.3269C39.0086 65.4373 39.1402 65.5308 39.3058 65.5358C39.4715 65.5407 39.6084 65.4551 39.6117 65.3447Z" fill="black"/>
<path d="M37.2017 102.891L39.3009 102.953L40.1912 72.9651L38.092 72.9028L37.2017 102.891Z" fill="#2F1A70"/>
<path d="M38.1409 103.05L38.9407 103.073L39.8102 73.785L39.0104 73.7612L38.1409 103.05Z" fill="#3E2884"/>
<path d="M38.2 104.9C38.1 104.9 38 105 38 105.1V106.7C38 106.8 38.1 106.9 38.2 106.9C38.3 106.9 38.4 106.8 38.4 106.7V105.1C38.4 105 38.3 104.9 38.2 104.9Z" fill="#CCCCCC"/>
<path d="M39.2999 102.9L38.4999 106.2H37.7999L37.2 102.9H39.2999Z" fill="#180B4F"/>
<path d="M40.5 73.8003V70.4003C40.5 70.4003 40 66.1003 39.9 65.5003C39.7 64.9003 39.1 65.1003 38.8 65.2003C38.6 65.3003 37.8 70.0003 37.8 70.2003C37.8 70.4003 37.6 73.7003 37.6 73.7003C37.6 73.7003 37.2 78.9003 37.4 79.1003C37.6 79.4003 37.6 79.4003 37.8 79.4003C37.9 79.4003 38.1 79.2003 38.1 79.0003C38.1 78.7003 38.4 74.4003 38.4 74.3003C38.4 74.2003 39.1 74.4003 39.6 74.4003C40 74.2003 40.5 73.8003 40.5 73.8003Z" fill="#180B4F"/>
<path d="M32.0962 66.8138C32.2593 66.7845 32.3757 66.6726 32.3561 66.5639C32.3366 66.4552 32.1885 66.3908 32.0255 66.4201C31.8624 66.4494 31.7461 66.5613 31.7656 66.67C31.7851 66.7787 31.9331 66.8431 32.0962 66.8138Z" fill="black"/>
<path d="M37.7994 103.694L39.8662 103.323L34.5622 73.7968L32.4954 74.168L37.7994 103.694Z" fill="#6753A5"/>
<path d="M38.8265 103.566L39.6139 103.425L34.4337 74.5877L33.6462 74.7292L38.8265 103.566Z" fill="#6D61AA"/>
<path d="M39.2 105.5C39.1 105.5 39 105.6 39.1 105.7L39.4001 107.2C39.4001 107.3 39.5 107.4 39.6 107.3C39.7 107.3 39.8 107.2 39.7 107.1L39.4001 105.6C39.3001 105.5 39.3 105.5 39.2 105.5Z" fill="#CCCCCC"/>
<path d="M39.7999 103.3L39.7 106.6L38.9999 106.8L37.7 103.7L39.7999 103.3Z" fill="#583F93"/>
<path d="M35 74.6005L34.3 71.2005C34.3 71.2005 33 67.0005 32.7 66.5005C32.4 66.0005 31.8 66.3005 31.6 66.4005C31.4 66.5005 31.6 71.3005 31.7 71.5005C31.7 71.7005 32.2 75.0005 32.2 75.0005C32.2 75.0005 32.9 80.1005 33.1 80.3005C33.3 80.5005 33.4 80.5005 33.5 80.5005C33.6 80.5005 33.7 80.3005 33.7 80.0005C33.7 79.7005 33 75.5005 33 75.3005C33 75.2005 33.7 75.3005 34.2 75.1005C34.6 75.0005 35 74.6005 35 74.6005Z" fill="#583F93"/>
<path d="M44.2 68.1001C44.1 68.2001 43.7 68.2001 43.5 68.3001C43.5 68.1001 43.6 67.9001 43.5 67.7001C43.3 67.2001 43.5 66.7001 43.4 66.2001C43.5 66.2001 43.6 66.1001 43.7 66.1001C44 66.7001 44.2 67.5001 44.2 68.1001Z" fill="#F0E8F5"/>
<path d="M43.5001 66.2C43.6001 66.7 43.6 67.1 43.6 67.7C43.6 67.9 43.6001 68.2 43.5001 68.3C43.4001 68.3 42.9 68.3 42.8 68.2C42.9 67.7 43.0001 67 43.0001 66.4C43.0001 66.3 43.1001 66.1 43.2001 66C43.3001 66.1 43.4001 66.2 43.5001 66.2Z" fill="#E4DAEA"/>
<path d="M43.5 66.5002C43.4 66.5002 43.1 66.3002 43.1 66.3002C43.2 65.9002 43.3 65.4002 43.5 65.5002C43.6 65.5002 43.9 65.9002 43.9 66.2002C43.7 66.2002 43.6 66.5002 43.5 66.5002Z" fill="#180B4F"/>
<path d="M44.2 68C43.9 68.1 43.6999 68.3 43.2999 68.2C43.1999 68.2 43 68.1 42.9 68.1C42.9 68.2 42.9 68.2 42.9 68.3C42.7 69.4 42.3999 70.5 42.2999 71.6C42.1999 72.8 42.2 74 42.2 75.2C42.2 77.6 42.2 80 42.2 82.4C42.2 83.7 42.2 85.1 42.2 86.4C42.2 86.4 42.2 86.4 42.2 86.5C42.2 86.6 42.1999 86.6 42.2999 86.7C42.2999 88.9 42.2999 91 42.2999 93.2C42.2999 93.5 42.2999 93.9 42.2999 94.2C42.2999 94.8 42.2999 95.4 42.2999 96C42.2999 96.8 42.2999 97.6 42.2999 98.4C42.2999 99.3 42.2999 100.2 42.2999 101.1C42.2999 102 42.2999 102.9 42.2999 103.9C42.2999 104.8 42.2999 105.6 42.2999 106.5C42.2999 107.2 42.2999 107.9 42.2999 108.6C42.2999 109.1 42.2999 109.6 42.2999 110.1C42.2999 110.2 42.2999 110.3 42.2999 110.4C42.4999 111.2 43.6 111.4 44.2 111.3C44.6 111.2 45.1 111 45.2 110.6C45.3 110.2 45.3 109.7 45.2 109.3C45.2 108.7 45.2 108 45.2 107.4C45.2 106.6 45.2 105.8 45.2 105C45.2 104 45.2 103.1 45.2 102.1C45.2 101.1 45.2 100 45.2 99C45.2 97.9 45.2 96.8 45.2 95.8C45.2 94.8 45.2 93.7 45.2 92.7C45.2 91.8 45.2 90.8 45.2 89.9C45.2 89.1 45.2 88.4 45.2 87.6C45.2 87.3 45.2 87 45.2 86.7C45.2 86.4 45.2 86 45.2 85.8C45.2 82.3 45.0999 78.7 45.0999 75.2C45.0999 74 44.9999 72.9 44.7999 71.7C44.7999 71.2 44.2 68 44.2 68Z" fill="#8479C9"/>
<path d="M45.2 86.3003C45.2 86.4003 45.2 86.5003 45.1 86.6003C45.1 86.7003 45 86.8003 45 86.9003C44.9 87.1003 44.7 87.2003 44.5 87.3003C44 87.5003 43.4 87.5003 42.9 87.3003C42.5 87.2003 42.3 86.9003 42.2 86.5003C42 86.9003 42.1 87.4003 42.4 87.8003C42.6 88.0003 42.9 88.1003 43.1 88.1003C43.5 88.2003 43.9 88.2003 44.3 88.1003C44.5 88.1003 44.7 88.0003 44.9 87.8003C45.5 87.4003 45.5 86.7003 45.2 86.3003Z" fill="#ADA8D4"/>
<path d="M41.1 111C40.8 106.3 39.2 86.0001 38.9 81.3001C38.7 78.9001 38.6 76.5001 38.4 74.1001C38.3 73.0001 38.3 72.0001 38.2 71.0001C38.1 69.9001 37.5 68.0001 37 67.0001C36.9 66.9001 36.2 66.8001 36.1 67.2001C35.6 69.1001 35.4 70.5001 35.5 72.5001C36 79.2001 36.4 85.9001 36.9 92.6001C36.9 93.0001 38.2 110.7 38.3 111.3C38.3 111.3 38.3 111.3 38.3 111.4C38.4 111.8 39 112.1 39.7 112.1C40.6 111.9 41.1 111.5 41.1 111Z" fill="#6D61AA"/>
<path d="M38.2 70.8003V71.0003C38.2 71.1003 38.1 71.2003 38.1 71.2003C38 71.3003 37.9 71.4003 37.7 71.5003C37.2 71.7003 36.7 71.7003 36.3 71.6003C36 71.5003 35.7 71.3003 35.7 70.9003C35.5 71.2003 35.6 71.7003 35.9 71.9003C36.1 72.0003 36.3 72.1003 36.5 72.2003C36.9 72.3003 37.2 72.2003 37.6 72.2003C37.8 72.2003 38 72.1003 38.1 72.0003C38.4 71.7003 38.4 71.1003 38.2 70.8003Z" fill="#F0E8F5"/>
<path d="M36.9999 67.0004C36.9999 67.0004 36.9999 66.9004 36.8999 66.9004V67.2004C36.9999 67.1004 36.9999 67.1004 36.9999 67.0004Z" fill="#2F1A70"/>
<path d="M36.2 67.1005C36.2 67.2005 36.3 67.2005 36.2 67.1005L36.2999 67.0005L36.2 67.1005Z" fill="#2F1A70"/>
<path d="M36.9001 66.9003V66.6003C36.9001 66.4003 36.7 66.3003 36.6 66.3003C36.4 66.3003 36.3 66.5003 36.3 66.6003V66.9003V67.1003C36.4 67.1003 36.5 67.2003 36.6 67.1003C36.7 67.1003 36.8001 67.0003 36.9001 67.0003V66.9003Z" fill="#493A87"/>
<path d="M52.9001 71.5002C52.5001 71.4002 52.0001 71.4002 51.6001 71.3002C51.7001 70.8002 51.7001 70.2002 52.0001 69.7002C52.1001 70.0002 52.3001 70.0002 52.6001 70.0002C53.2001 70.1002 53.8001 70.0002 54.3001 70.2002C54.3001 70.6002 54.2001 71.2002 54.1001 71.6002C53.7001 71.7002 53.3001 71.6002 52.9001 71.5002Z" fill="#F0E8F5"/>
<path d="M54.2001 70.4002C54.2001 70.5002 54.1001 70.5002 54.0001 70.5002C53.6001 70.4002 53.2001 70.4002 52.7001 70.3002C52.4001 70.2002 51.7001 70.2002 52.0001 69.8002C52.4001 69.1002 52.9 68.8002 53.6 69.1002C54.1 69.3002 54.3 69.7002 54.3 70.2002C54.3 70.3002 54.3001 70.4002 54.2001 70.4002Z" fill="#8479C9"/>
<path d="M51.1 81.1C50.8 82.9 50.4 84.7 50.1 86.4C49.6 89.2 46.4 105.2 45.5 110.3L46.7 110.5C47.3 107.4 50.7 89.4 51.3 86.3C51.8 83.7 52.3 81.1 52.8 78.5C53.2 76.2 53.6 74 54 71.7C53.6 71.6 53.2 71.6 52.8 71.5C52.3 74.7 51.8 77.9 51.1 81.1Z" fill="#8479C9"/>
<path d="M50.1 86.5004C50.4 84.7004 50.8 82.9004 51.1 81.2004C51.7 78.0004 52.3001 74.8004 52.9001 71.6004C52.5001 71.5004 52 71.5004 51.6 71.4004C51.5 71.6004 51.5001 71.8004 51.5001 72.0004C50.5001 77.2004 49.6 82.5004 48.6 87.7004C48.1 90.3004 44.8 107.6 44.3 110.2L45.5001 110.4C46.4001 105.2 49.7 89.2004 50.1 86.5004Z" fill="#6D61AA"/>
<path d="M45.5001 110.4L44.3 110.1L44.4001 113.7L45.3 113.9L46.8 110.6L45.5001 110.4Z" fill="#BAB9B8"/>
<path d="M44.4001 113.7C44.4001 114 44.4001 114.5 44.8001 114.5C45.1001 114.5 45.2001 113.8 45.3001 113.8C45.0001 113.8 44.7001 113.8 44.4001 113.7Z" fill="#333333"/>
<path d="M42 89.3002C34.5 89.3002 28.5 87.7002 28.5 85.7002H28.4L30.4 112C30.4 113 31.5 113.3 32.2 113.6C33.1 113.9 34.1 114.1 35.1 114.3C37.3 114.7 39.5 114.8 41.7 114.8C44.3 114.8 46.9 114.6 49.5 114.1C50.2 113.9 50.9 113.8 51.6 113.5C52.2 113.3 52.8 113 52.9 112.4V112.3C52.9 112.3 52.9 112.3 52.9 112.2L55.5 86.1002C54.9 87.8002 49.1 89.3002 42 89.3002Z" fill="#ADA8D4"/>
<path d="M33.5001 113.9C32.7001 113.6 31.2001 113.5 31.2001 112.5L29.3 86.8999C29.3 86.8999 29.3001 86.8999 29.4001 86.8999C29.4001 86.8999 31.9001 87.3999 32.2001 87.9999C32.4001 88.5999 33.5001 113.9 33.5001 113.9Z" fill="#F0E8F5"/>
<path d="M28.5 85.6001C28.5 87.6001 34.6 89.2001 42 89.2001C49.4 89.2001 55.5 87.6001 55.5 85.6001H55.1C55.1 86.0001 54.6 86.4001 54.2 86.7001C53.6 87.1001 52.6 87.5001 51.4 87.8001C48.9 88.5001 45.5 88.8001 41.9 88.8001C38.3 88.8001 34.9 88.4001 32.4 87.8001C31.2 87.5001 30.2 87.1001 29.6 86.7001C29.2 86.4001 28.7 86.0001 28.7 85.6001H28.5Z" fill="#F0E8F5"/>
<path d="M8.30004 175.601C8.30004 175.601 7.20002 179.601 7.60002 184.401C7.80002 187.101 11.0001 201.001 11.7001 203.901C12.5001 206.801 18.3 231.301 18.8 233.401C19.3 235.501 20.1 238.801 20.8 238.701C21.5 238.701 26.7001 236.401 26.7001 236.401L52 229.001L57.9001 223.901C57.9001 223.901 57.8001 219.401 56.9001 214.301C56.0001 209.101 53 195.301 52.3 193.701C51.6 192.101 49.2001 181.201 49 180.301C48.8 179.501 8.30004 175.601 8.30004 175.601Z" fill="#8479C9"/>
<path d="M20.6 186.4C20.6 186.4 18.7 191 19.3 194.9C19.9 198.8 25.8 221.8 26.4 223.6C27 225.4 27.8 227.3 29.8 227.7C31.7 228.1 33.9 227.2 35.7 226.8C38 226.3 40.3 225.7 42.5 225.1C45.2 224.4 47.9 223.7 50.5 222.9C51.8 222.5 53.2 222.1 54.5 221.8C55.1 221.6 55.7 221.5 56.3 221.3C56.7 221.2 57.2 220.7 57.5 220.6C58.1 219.5 57.6 216.4 57.4 214.9C57.2 213.5 54.7 200.9 54.2 198.8C53.7 196.7 51.4 188 51 186.3C50 181.9 47.4 180.2 47.4 180.2L20.6 186.4Z" fill="#E4DAEA"/>
<path d="M28.1 193.6L30.9 204.2L33.7 206.2L34.7 203.1L32.5 192.9L28.1 193.6Z" fill="#ADA8D4"/>
<path d="M43.8 187.1L47.2001 200L50.0001 202L51.0001 198.9L47.6 184.4L43.8 187.1Z" fill="#ADA8D4"/>
<path d="M29.9 231.7C29.4 232.5 28.5999 233.2 27.7999 233.8C26.6999 234.6 25.3999 235.3 24.1999 235.9C23.7999 236 19.8999 237.4 19.9999 237.5C20.1999 238.2 20.5999 239.1 20.9999 239.7C21.8999 240.9 23.3999 241.3 24.7999 241C33.1999 239.1 41.4999 236.8 49.7999 234.7C50.1999 234.6 55.2999 233.6 56.6999 231.4C58.0999 229.2 57.9999 227.6 57.9999 226.6C57.9999 225.5 57.7999 222.5 57.7999 222.5C57.7999 222.5 30.5 229.5 30.4 229.5C30.6 229.5 30.0999 231.4 29.9999 231.6L29.9 231.7Z" fill="#ADA8D4"/>
<path d="M7.59997 181C7.29997 180.3 7.49997 179 7.59997 178.2C7.99997 175.2 10.1 172.8 12.5 171.2C18.6 167.3 26.1 166.2 33.2 164.8C37 164 40.3 164.6 43.2 167.3C44.9 169 46.2 171.1 47.4 173.2C49 176.1 51.1 179.9 50.6 183.4C50.3 185.6 49.6 186.4 48.5 187.5C46.8 189.4 43.6 190.5 41.3 191.4C37.3 192.9 32.7 193.6 28.5 194C26.3 194.2 24.1 194.1 22.6 192.2C21.2 190.4 20.7 188.1 20.1 186C19.8 185 18.2 179.9 17.2 178.8C16.2 177.7 14.7 177.3 13 177.8C11 178.3 9.29997 180.2 7.59997 181Z" fill="#ADA8D4"/>
<path d="M16 170.6C15.6 168.4 16.4 166 17.6 164.6C19.9 161.7 23.9001 160.6 27.4001 161.5C28.9001 161.9 30.3 162.7 31.5 163.8C31.8 164.1 34 166.9 33 167.2C32.2001 167.5 31.3 167.7 30.5 168C30.1 166.8 29.7001 165.5 28.7001 164.7C28.1001 164.2 27.3 164 26.5 163.9C24.5 163.6 21.8001 164.1 20.2001 165.5C18.7001 166.8 18.9 169 19.3 170.7C19.5 171.5 17.7 172.2 17 172.4C16.4 171.9 16.1 171.2 16 170.6Z" fill="#8479C9"/>
<path d="M170.1 31.2002C170.1 41.3002 163.7 50.3002 153.8 55.8002C151.5 57.1002 153 64.8002 152.6 66.1002C152.2 67.4002 143.8 59.9002 142.5 60.2002C138.6 61.2002 134.5 61.7002 130.3 61.7002C108.3 61.7002 90.5 48.0002 90.5 31.2002C90.5 14.4002 108.3 0.700195 130.3 0.700195C152.3 0.700195 170.1 14.4002 170.1 31.2002Z" fill="#E4DAEA"/>
<path d="M196.8 170.5H156L150.6 236.1H211.4L196.8 170.5Z" fill="#F0E8F5"/>
<path d="M196.8 170.5H184.2L176.7 236.1H211.4L196.8 170.5Z" fill="black" fill-opacity="0.1"/>
<path d="M112.5 233.1C119.3 218 124.3 204.8 126.3 197.8C129.7 185.9 132.3 175.4 132.9 171.5C134.5 162.2 120.9 161.6 119.1 166.3C116.4 173.3 111.7 196.4 106 231.2L112.5 233.1ZM191.8 185.6C185.5 183.1 163.6 175.4 153 173.2C150 172.6 147 172 144.2 171.5C136 169.9 131.7 184.8 139.6 185.9C159.4 188.7 187.4 191.7 189.8 192C193.2 192.4 195.7 187.1 191.8 185.6Z" fill="#6D61AA"/>
<path d="M139.1 167.3L173 150V146.2H169C136.2 154.6 119.4 159.9 118.7 162.3V162.4C118.7 162.4 118.7 162.4 118.7 162.5C112.2 171.4 108.3 215.1 107 218.4L119.5 220.3C124.3 202.6 139.5 190.3 139.1 169.1C139.1 168.5 139.1 167.9 139.1 167.3Z" fill="#8479C9"/>
<path d="M170.2 177.6C173.3 177 176.2 176.4 178.6 176C194.4 173.2 199 164.8 196.3 146.3H167.2C162.4 147.7 137.7 158 124.9 163.5C116.4 167.1 119.1 180.3 123.9 183.7C123.9 183.9 124 184.1 124.2 184.1C150 194.8 170.5 189.2 177.3 191L180.5 181L170.2 177.6Z" fill="#ADA8D4"/>
<path d="M189.629 183.966C191.372 184.117 192.488 184.352 193.244 184.761C194.134 185.217 195.289 185.989 196.8 187.033C196.297 188.056 191.915 197.092 183.608 214.05C180.929 213.576 179.91 212.627 180.462 211.022C181.015 209.418 181.475 208.081 181.844 207.011L182.397 191.721C182.355 191.407 182.671 191.142 182.939 191.234L185.352 191.392C186.705 190.287 187.564 189.312 188.02 188.422C188.34 187.71 188.575 186.594 188.59 185.029C188.417 184.446 188.959 183.959 189.629 183.966C189.539 184.009 189.539 184.009 189.629 183.966Z" fill="#8479C9"/>
<path d="M115.6 230.3C116.2 231.9 116.5 233.1 116.5 233.9C116.5 234.9 116.3 236.3 116 238.1C114.9 238.1 104.9 238.1 85.9 238.1C85.1 235.5 85.6 234.1 87.3 233.9C89 233.7 90.4 233.5 91.5 233.3L105.5 227.1C105.8 227 106.1 227.1 106.2 227.4L107.1 229.6C108.7 230.3 109.9 230.7 110.9 230.7C111.7 230.7 112.8 230.4 114.2 229.7C114.7 229.4 115.3 229.6 115.6 230.3C115.6 230.2 115.6 230.2 115.6 230.3Z" fill="#8479C9"/>
<path d="M180.4 81.5006C182.9 78.6006 184.5 75.1006 184.2 71.1006C183.4 59.7006 167.5 62.2006 164.4 68.0006C161.3 73.8006 161.7 88.4006 165.7 89.4006C167.3 89.8006 170.7 88.8006 174.1 86.7006L172 102.001H184.8L180.4 81.5006Z" fill="#6D61AA"/>
<path d="M183.2 61.7004C183.2 61.7004 183.1 61.7004 183.2 61.7004C181.9 61.3004 180.7 61.0004 179.4 61.0004C179.3 61.0004 179.2 61.0004 179.2 60.9004C179.1 60.9004 178.9 60.9004 178.8 60.9004C178 60.9004 173.4 61.1004 171.7 61.4004C169.4 61.8004 165 63.8004 164.4 65.3004C163.7 66.9004 164.1 68.8004 167 68.6004C169.9 72.1004 174.2 74.5004 174.7 74.6004C174.7 74.6004 176.6 72.0004 178.4 73.1004C180.5 74.4004 180.1 76.7004 179 78.5004C178.4 79.4004 177.5 80.9004 179 81.9004C181.4 83.6004 187.4 79.8004 188.5 76.6004C190.1 71.1004 188.3 64.1004 183.2 61.7004Z" fill="#180B4F"/>
<path d="M162.2 77.2006C161.7 78.4006 160.9 79.4006 160.5 80.7006C160 82.5006 160.6 82.4006 162.2 82.3006C163.8 82.2006 163.6 81.3006 163.5 79.6006C163.5 78.5006 163.4 77.0006 162.9 76.1006C162.6 76.5006 162.3 76.9006 162.2 77.2006Z" fill="#6D61AA"/>
<path d="M163.3 74.9006C163.4 74.6006 163.7 74.3006 164.1 74.2006C164.4 74.1006 164.8 74.1006 165.2 74.1006C165.9 74.2006 166.5 74.6006 166.8 75.3006C166.1 75.1006 165.6 75.0006 165 74.9006C164.7 74.8006 164.5 74.8006 164.2 74.8006C163.9 74.8006 163.6 74.8006 163.3 74.9006Z" fill="#2F1A70"/>
<path d="M163.2 85.5006C163.8 85.4006 164.4 85.2006 165 84.9006C165.3 84.8006 165.5 84.7006 165.8 84.5006C166.1 84.3006 166.4 84.1006 166.8 84.1006H167.2V84.4006C167.3 85.0006 167 85.3006 166.7 85.6006C166.4 85.9006 166.2 86.1006 165.9 86.3006C165.6 86.5006 165.3 86.6006 165 86.8006C164.7 86.9006 164.4 87.0006 164 87.1006C164.5 86.7006 165 86.3006 165.5 85.9006C165.7 85.7006 166 85.5006 166.1 85.3006C166.3 85.1006 166.4 84.8006 166.4 84.7006L166.8 85.0006C166.6 85.0006 166.3 85.1006 166.1 85.3006C165.8 85.4006 165.5 85.6006 165.1 85.7006C164.8 85.8006 164.4 85.8006 164.1 85.8006C163.8 85.6006 163.5 85.6006 163.2 85.5006Z" fill="#2F1A70"/>
<path d="M164.1 76.9002C164.431 76.9002 164.7 76.6316 164.7 76.3002C164.7 75.9688 164.431 75.7002 164.1 75.7002C163.769 75.7002 163.5 75.9688 163.5 76.3002C163.5 76.6316 163.769 76.9002 164.1 76.9002Z" fill="#2F1A70"/>
<path d="M139.9 131.7L120.6 123.2C117.2 119.8 113.9 117.3 110.8 115.5C109.9 115.2 108.2 115.1 110 117.6C111.8 120.1 113.4 122.8 112.7 123.7C112 124.6 110 123.6 109.2 125C108.7 126 112 127.1 119.3 128.4L133.8 139.5L139.9 131.7ZM218.1 134L207.2 136.2C218.2 156.7 224.1 167.5 224.9 168.8C226.7 171.6 225 176.6 224.4 179.3C228.3 180.2 226.8 174.4 231.7 175.6C236.2 176.7 240 179.6 244.2 175.7C244.7 175.2 245.1 173.7 243.3 173C238.9 171.1 232.5 167.6 231.4 166.2C229.9 164.3 225.5 153.6 218.1 134Z" fill="#6D61AA"/>
<path d="M177.5 93.1003L172.9 92.3003C162.9 102 158.8 125.5 152.1 128.6C145.8 131.5 136.8 128.7 126.1 124.9L122.8 132.2C132.5 142.7 153.1 151.5 161.5 146.5C174.8 138.4 177.9 109.5 177.5 93.1003Z" fill="#5E509B"/>
<path d="M197.6 151.1C179.1 151.1 165.5 151.1 156.8 151.1C154.9 151.1 155.3 148.4 155.6 147C158.7 131.3 170.9 114.4 170.9 92.1003L182.7 90.3003C192.3 105.9 195.6 125.2 197.6 151.1Z" fill="#DDE3E9"/>
<path d="M201.6 135.2C209.9 150.2 216.9 161 222.6 167.6L231.2 165.9C225.7 131.7 209.7 106.5 183.3 90.2002H183.2H178.7C168.1 126.2 165.2 150.2 170 162.2H206.7C206 153.5 204.2 144.2 201.6 135.2Z" fill="#5E509B"/>
<path d="M343.6 196.4H302.8L297.4 262H358.2L343.6 196.4Z" fill="#F0E8F5"/>
<path d="M343.6 196.4H331L323.5 262H358.2L343.6 196.4Z" fill="#F0E8F5" fill-opacity="0.1"/>
<path d="M236.6 259.3C247.7 245.8 255.2 235.7 259.1 229.2C265.8 218 271.3 208.1 273 204.3C277.1 195.2 263.5 191 260.4 195.2C255.7 201.6 245.8 221.8 230.5 255.6L236.6 259.3Z" fill="#493A87"/>
<path d="M259.3 255.401L279.9 203.501C284.3 194.001 263 187.801 259.8 192.201C252.4 202.201 234.9 241.701 232.7 244.601L259.3 255.401Z" fill="#EA931F"/>
<path d="M314.3 245.001C310.3 239.101 295.7 219.401 287.7 211.301C285.4 209.001 283.2 206.701 281.1 204.601C274.8 198.401 262.3 208.801 268.6 214.501C284.2 228.601 307 247.701 308.9 249.401C311.5 251.801 316.8 248.701 314.3 245.001Z" fill="#493A87"/>
<path d="M313.3 242.301C314.7 243.401 315.6 244.401 316 245.101C316.5 246.001 317.1 247.301 317.8 249.201C316.8 249.801 307.6 255.101 290.3 265.101C288.2 263.201 287.9 261.601 289.3 260.601C290.7 259.501 291.9 258.601 292.8 257.901L302.3 244.801C302.5 244.501 302.8 244.501 303.1 244.701L305.1 246.201C306.9 246.001 308.3 245.701 309.1 245.201C309.8 244.801 310.7 243.901 311.6 242.601C312.1 242.101 312.8 241.901 313.3 242.301Z" fill="#8479C9"/>
<path d="M241.4 257.3C242 259 242.3 260.2 242.3 261.1C242.3 262.1 242.1 263.6 241.8 265.5C240.6 265.5 230.1 265.5 210.1 265.5C209.3 262.8 209.8 261.3 211.5 261.1C213.2 260.9 214.8 260.7 215.9 260.5L230.6 253.9C230.9 253.8 231.2 253.9 231.3 254.2L232.2 256.5C233.8 257.3 235.2 257.7 236.2 257.7C237 257.7 238.2 257.4 239.7 256.7C240.4 256.4 241.1 256.7 241.4 257.3Z" fill="#8479C9"/>
<path d="M287.4 206.1C304.5 203.3 316 201.4 321.9 200.4C338.5 197.5 343.3 188.5 340.5 169H309.9C305.9 170.2 288.9 177.401 259.2 190.701C253.8 193.401 254.8 201.2 255.8 203.8C255.8 203.9 264.9 219.401 282.9 250.201L307.9 234.3L287.4 208C286.8 206.9 286.8 206.2 287.4 206.1Z" fill="#F9AA38"/>
<path d="M323.7 100.5C326.3 97.5002 328 93.7002 327.8 89.6002C327 77.6002 310.2 80.2002 306.9 86.3002C303.6 92.4002 304 107.8 308.2 108.9C309.9 109.3 313.5 108.3 317.1 106.1L314.8 122.3H328.3L323.7 100.5Z" fill="#493A87"/>
<path d="M324.7 103.2C326.4 95.7004 331.2 90.5004 330.5 87.2004C330 85.0004 328.7 83.6004 326.6 83.0004C325.5 78.5004 322 76.7004 316 77.3004C307 78.3004 301.5 82.0004 303.9 90.3004C306.1 90.3004 308.7 89.5004 312.3 90.9004C313.5 91.3004 314.3 92.7004 314.8 94.9004H316.4C318 92.3004 319.6 91.3004 321.1 92.0004C322.7 92.7004 323 94.4004 322.2 97.1004L323 103.3H324.7V103.2Z" fill="#8479C9"/>
<path d="M304.9 97.3003C304.1 97.8003 302.9 101.9 303 103.1C303.6 103.3 304.5 103.4 305.2 103.3C306.2 103 306.1 103.1 306.2 101.9C306.2 100.3 305.8 98.6003 305.5 97.1003C305.3 97.0003 305.1 97.1003 304.9 97.3003Z" fill="#493A87"/>
<path d="M305.7 94.9006C305.6 94.7006 305.6 94.5006 305.7 94.3006C305.8 94.1006 306 94.0006 306.2 93.9006C306.5 93.7006 306.9 93.6006 307.3 93.6006C307.5 93.6006 307.7 93.6006 307.9 93.7006C308.1 93.8006 308.3 93.9006 308.4 94.0006C308.7 94.2006 308.9 94.6006 309 95.0006C308.6 94.9006 308.3 94.8006 308 94.7006C307.9 94.7006 307.7 94.6006 307.6 94.6006C307.5 94.6006 307.4 94.6006 307.2 94.6006C306.9 94.6006 306.6 94.6006 306.3 94.7006C306.2 94.7006 305.9 94.6006 305.7 94.9006Z" fill="#2F1A70"/>
<path d="M306.3 106.1C306.9 105.7 307.4 105.6 307.8 105.3C308 105.2 308.2 105.1 308.4 104.9C308.6 104.8 308.9 104.4 309.3 104.5C309.1 104.8 309.2 105.1 309 105.4C308.8 105.8 308.5 106 308.2 106.2C307.6 106.6 306.9 106.5 306.3 106.1Z" fill="#2F1A70"/>
<path d="M306.7 96.6004C307.031 96.6004 307.3 96.3318 307.3 96.0004C307.3 95.669 307.031 95.4004 306.7 95.4004C306.369 95.4004 306.1 95.669 306.1 96.0004C306.1 96.3318 306.369 96.6004 306.7 96.6004Z" fill="#2F1A70"/>
<path d="M285.2 161.601L267.3 174.801C262.4 176.101 258.4 177.701 255.1 179.701C254.3 180.401 253.4 181.801 256.6 181.601C259.8 181.401 263.2 181.201 263.6 182.301C264 183.401 262.1 184.701 263 186.201C263.6 187.201 266.4 184.701 271.4 178.801L289.2 171.401L285.2 161.601ZM354 162.101H342.2C349.5 185.501 353.4 197.901 354 199.401C355.3 202.601 352.5 207.501 351.4 210.201C355.2 211.901 354.8 205.601 359.7 207.801C364.1 209.901 367.5 213.601 372.6 210.401C373.2 210.001 373.9 208.601 372.3 207.401C368.2 204.601 362.2 199.601 361.4 198.001C360.2 195.801 357.8 183.801 354 162.101Z" fill="#493A87"/>
<path d="M339.2 166.3C338.1 175.2 336.4 181.7 334 185.7H346.6C344.2 180.2 341.7 173.8 339.2 166.3Z" fill="#EA931F"/>
<path d="M320.7 112.8L315.8 112C297.8 127.6 290.3 157.5 268.2 173.4L273.5 180C311.9 175.2 321.4 138.6 320.7 112.8Z" fill="#2F1A70"/>
<path d="M341.9 173.9C322.4 173.9 308.1 173.9 298.9 173.9C296.9 173.9 297.3 171.1 297.6 169.6C300.9 153.1 313.7 135.2 313.7 111.7L326.1 109.8C336.3 126.3 339.8 146.6 341.9 173.9Z" fill="#DDE3E9"/>
<path d="M341.5 126C343.3 125.5 344.7 124.3 345.8 122.4C350.3 114.2 348.7 109.7 343.9 108.2C339.1 106.7 334.7 109.8 327 109.8C326.6 109.8 326.2 109.8 325.8 109.9L321.9 110.1C310.8 147.9 307.7 173.1 312.7 185.7H346.6C348.6 190.4 350.5 194.3 352.4 197.5H361.6C362.4 169.4 355.7 145.6 341.5 126Z" fill="#3E2884"/>
<path d="M443.1 246.3H402.3L396.9 311.9H457.7L443.1 246.3Z" fill="#F0E8F5"/>
<path d="M443.1 246.3H430.6L423 311.9H457.7L443.1 246.3Z" fill="black" fill-opacity="0.1"/>
<path d="M355.7 235.1C351.3 232.5 344 235.8 344 239.6C344 250.8 354.2 303.5 354.8 306.9C355.3 310.2 361 311.1 361.4 306.9C361.9 300.2 362.9 277.1 361.9 266.3C361.5 261.9 361.1 257.7 360.6 253.9C366 263.6 374.2 277.4 385.5 295.5L391.6 292.7C386.8 276.9 382.9 265.8 379.8 259.3C374.6 248.2 369.6 238.7 367.6 235.3C364.4 230.1 358.7 231.9 355.7 235.1Z" fill="#F0E8F5"/>
<path d="M391.2 283.9L370.3 234.4C365.3 226.3 351.3 236 353 240.7C356.9 251.3 376.6 285.6 377.7 288.8L391.2 283.9Z" fill="#ADA8D4"/>
<path d="M392.328 289.519C393.65 290.628 394.452 291.438 394.859 292.135C395.301 292.968 395.941 294.26 396.553 296C395.533 296.566 386.99 301.563 370.749 310.893C368.798 309.073 368.482 307.621 369.838 306.672C371.194 305.723 372.277 304.847 373.173 304.094L382.109 291.817C382.259 291.557 382.619 291.534 382.879 291.684L384.721 293.094C386.433 292.928 387.662 292.599 388.495 292.156C389.192 291.75 390.002 290.947 390.838 289.698C391.088 289.265 391.808 289.219 392.328 289.519Z" fill="#E4E4E4"/>
<path d="M362.7 304.2C363.3 305.8 363.6 307 363.6 307.7C363.6 308.7 363.4 310 363.1 311.9C362 311.9 352.1 311.9 333.3 311.9C332.5 309.3 333 308 334.6 307.8C336.3 307.6 337.7 307.4 338.8 307.2L352.7 301C353 300.9 353.3 301 353.4 301.3L354.3 303.5C355.8 304.2 357.1 304.6 358.1 304.6C358.9 304.6 360 304.3 361.4 303.6C361.8 303.3 362.4 303.6 362.7 304.2C362.7 304.1 362.7 304.2 362.7 304.2Z" fill="#E4E4E4"/>
<path d="M342.6 243.4C342.6 257.4 349.3 290.2 349.3 293.3H363.7C361.6 264.1 360.9 249.3 361.5 249C362.4 248.5 399.1 252.7 410.1 252.7C426 252.7 432.5 242.7 433 224.2H401.6C395.2 224.9 361.9 231.6 349.5 233.9C344 234.8 342.6 239.5 342.6 243.4Z" fill="#C0B9DB"/>
<path d="M375 217.5L360 232.1C355.6 234 352.1 236 349.3 238.3C348.7 239.1 348 240.5 350.9 239.9C353.8 239.3 357 238.7 357.5 239.7C358 240.7 356.4 242.1 357.4 243.4C358.1 244.2 360.4 241.6 364.3 235.4L379.9 226.2L375 217.5ZM448.2 204.3H436.6C445.4 232.9 450.1 247.8 450.6 249.2C451.8 252.2 449.2 256.9 448.1 259.3C451.7 260.9 451.3 254.9 455.9 257.1C460.1 259 463.2 262.5 468 259.6C468.6 259.2 469.2 257.9 467.7 256.8C463.8 254.1 458.2 249.5 457.4 247.9C456.5 245.8 453.4 231.2 448.2 204.3Z" fill="#F0E8F5"/>
<path d="M412.9 171.4L408.3 170.6C401.1 196.1 364.1 213.4 361.8 222.9C361 226.4 363.5 228.2 362.2 229.2L368.1 233.6C369.1 232.4 371.3 234.6 375.7 233.1C380.1 231.6 412.9 201.6 412.9 171.4Z" fill="#493A87"/>
<path d="M405.3 174.8C405.8 208.5 386.3 217.1 390.7 230.6C394.3 241.8 428.6 253.8 434.5 242.8C436.9 238.4 438 233 438.1 227.2C439.6 231.7 440.8 235.5 441.7 238.8C443.2 244.4 449.1 245.3 449.1 247.4L456.9 245.3C456.4 242.4 460 241 459.1 234.4C454.7 205.2 442.9 184 423.6 170.9L423.4 168C423.3 166.8 422.3 166 421.1 166L406.9 167C405.7 167.1 404.9 168.1 404.9 169.3L405.3 174.8Z" fill="#583F93"/>
<path d="M417.1 157.3C419.7 154.2 421.5 150.5 421.2 146.2C420.3 134 403.4 136.7 400.1 142.8C396.8 148.9 397.2 164.5 401.5 165.6C403.2 166 406.8 165 410.5 162.7L408.2 179.1H421.9L417.1 157.3Z" fill="#E4DAEA"/>
<path d="M398.8 145.6C398.9 144.8 399.3 143.9 399.5 143.2C399.8 142.2 400.4 141.4 400.9 140.5C402 138.9 403.3 137.5 404.7 136.4C407.3 134.3 410.6 133 413.9 133.4C415.5 133.6 417.1 134.2 418.5 135.3C419.7 136.2 420.9 137.6 422.5 137.7C424.2 137.8 425.8 136.3 427.2 135.3C428.8 134.2 430.4 133.5 432.3 133.2C435.4 132.7 438.3 133.7 440.4 136.2C442.7 138.9 444.3 142.8 442.8 146.4C442.5 147.1 442.2 147.6 441.7 148.1C441.2 148.5 440.5 149 440.3 149.6C440.1 150.3 440.7 151.2 440.9 151.9C441.2 152.8 441.5 153.8 441.4 154.8C441.2 156.5 440.2 158 439.1 159.1C438 160.2 436.6 160.8 435.1 161.1C434.1 161.3 433.1 161.4 432.1 161.3C431.6 161.3 431.2 161.1 430.7 161C430.2 160.9 430 161 429.6 161.3C427.8 162.5 425.8 163 423.7 162.8C421.9 162.7 419.8 162.2 418.4 161C416.8 159.6 416.8 157.8 417.2 155.7C416.8 155.9 415.7 156 416.3 155.2C416.6 154.9 417.1 154.8 417.4 154.6C417.8 154.4 418.2 154.1 418.5 153.7C419.7 152.3 418.5 149.4 416.9 148.9C414.6 148.2 414.1 151.5 412.4 152.3C411.4 152.8 410.5 152.1 409.7 151.4C408.7 150.5 408.1 149.3 407.5 148C407 147 406.6 146 406.1 145C405.9 144.5 405.1 143.2 405.5 142.7C403.8 142.4 402 143.1 400.6 144C400 144.4 399.6 144.8 399.2 145.4C399.1 145.5 399 146 398.8 146C398.6 146.2 398.7 145.8 398.8 145.6Z" fill="#8479C9"/>
<path d="M398 152.6C398 154.3 395.8 155.8 395.9 157.5C396 159.1 398.1 159.4 399.1 159.9" fill="#E4DAEA"/>
<path d="M398.7 150.7C398.9 150.3 399.2 150.1 399.6 149.9C399.9 149.7 400.3 149.6 400.7 149.5C401.1 149.5 401.5 149.5 401.9 149.6C402.3 149.7 402.7 150.1 402.7 150.5C402.3 150.3 402 150.3 401.7 150.3C401.4 150.3 401.1 150.4 400.8 150.4C400.2 150.6 399.5 150.7 398.7 150.7Z" fill="#8479C9"/>
<path d="M399.2 162.6C399.8 162.2 400.2 162 400.7 161.8C401.2 161.6 401.7 161.4 402.4 161.3C402.2 162 401.7 162.4 401.1 162.7C400.5 162.9 399.8 163 399.2 162.6Z" fill="#8479C9"/>
<path d="M399.6 152.9C399.987 152.9 400.3 152.587 400.3 152.2C400.3 151.813 399.987 151.5 399.6 151.5C399.213 151.5 398.9 151.813 398.9 152.2C398.9 152.587 399.213 152.9 399.6 152.9Z" fill="#8479C9"/>
</svg>
