<svg width="390" height="335" viewBox="0 0 390 335" fill="none" xmlns="http://www.w3.org/2000/svg">
<path d="M34.2 139.5C34 139.7 33.8 139.9 33.7 140C28.2 139.7 22.6999 139.6 17.2999 139.9C14.0999 140 11 140.3 7.69995 140.5C13.2 135.8 25.8 135.3 34.2 139.5Z" fill="#3E2884"/>
<path d="M34.9 134.5C34.8 134.4 34.6 134.3 34.5 134.3C35.9 125.1 40 117.6 48.7 113.2C47.9 114.3 47.2 115.5 46.3 116.6C42.1 122.2 38.3 128.1 35.1 134.3C35 134.4 34.9 134.4 34.9 134.5Z" fill="#3E2884"/>
<path d="M31.2001 130.7C31.5001 131 31.6001 131.4 31.6001 131.8C27.5001 131 23.3001 130.3 19.1001 129.9C14.9001 129.5 10.7001 129.3 6.40015 129C7.40015 128.6 8.30015 128.1 9.30015 127.8C14.3001 126.3 19.4001 126.6 24.3001 128.1C26.2001 128.7 27.9001 129.7 29.8001 130.5C30.3001 130.7 30.7001 131.3 31.2001 130.7Z" fill="#3E2884"/>
<path d="M23.8 115.7C24.4 116.2 24.9 116.6 23.8 117.1C21.2 116 18.6 114.8 16 113.7C11.7 111.8 7.20005 110.3 2.80005 108.9C2.20005 108.7 1.70005 108.5 0.800049 108.2C6.60005 107.5 11.6001 108.7 16.4001 111C18.8001 112.2 21 113.7 23 115.5C23.2001 115.7 23.4 116.1 23.8 115.7Z" fill="#3E2884"/>
<path d="M30.1001 125.4C30.0001 125.3 29.9001 125.2 29.9001 125C30.0001 116.2 33.0001 108.9 40.2001 103.6C40.3001 103.7 40.4001 103.7 40.5001 103.8C39.4001 105.9 38.2001 107.9 37.1001 110C34.4001 115 32.1001 120.1 30.1001 125.4Z" fill="#3E2884"/>
<path d="M27.2001 122.6C27.7001 123 27.9 123.4 27.5 124C23.4 122.3 19.4001 120.5 15.2001 119.2C11.8001 118.1 8.40005 117.1 4.80005 115.9C8.10005 115.3 11.1 115.5 14.1 116.2C18.5 117.2 22.5 119 26 122C26.2001 122.3 26.5 123 27.2001 122.6Z" fill="#3E2884"/>
<path d="M22.6001 109.9C21.7001 110 21.5001 109.4 21.5001 108.7C21.9001 108.3 21.5001 107.8 21.5001 107.4C21.1001 101.5 22.3001 95.9998 25.6001 91.0998C25.8001 90.7998 26.0001 90.3998 26.5001 90.2998C26.8001 90.6998 26.6001 91.1998 26.5001 91.5998C24.9001 97.4998 23.6001 103.4 22.8001 109.5C22.8001 109.6 22.7001 109.7 22.6001 109.9Z" fill="#3E2884"/>
<path d="M17.3001 103.2C17.7001 103.5 18.4001 103.6 17.7001 104.3C12.9001 101.4 8.1001 98.6998 3.0001 96.3998C2.7001 96.2998 2.4001 96.0998 2.1001 95.7998C8.2001 95.9998 13.2001 98.5998 17.3001 103.2Z" fill="#3E2884"/>
<path d="M32 92.8997C32 92.7997 32.1 92.7997 32.1 92.6997C32.2 92.7997 32.2 92.8997 32 92.9997C32.1 92.9997 32 92.8997 32 92.8997Z" fill="#3E2884"/>
<path d="M37.4001 99.3998C37.5001 99.3998 37.7001 99.2998 37.7001 99.2998C37.8001 99.3998 37.7001 99.4998 37.6001 99.5998C37.5001 99.4998 37.5001 99.4998 37.4001 99.3998Z" fill="#3E2884"/>
<path d="M17.4001 84.5998C15.9001 87.0998 15.5 89.7998 15.3 92.8998C15.3 92.5998 14.8001 91.8998 14.7001 91.6998C14.5001 91.1998 14.2 90.6998 13.9 90.2998C13.4 89.3998 12.8 88.4998 12.1 87.6998C10.7001 85.9998 9.10005 84.4998 7.30005 83.2998C7.50005 83.5998 7.50005 83.9998 7.70005 84.2998C8.00005 84.6998 8.30005 85.1998 8.50005 85.5998C9.80005 87.5998 11.0001 89.5998 12.2001 91.4998C12.4001 91.7998 14.4 94.8998 14 95.1998C13.9 95.2998 13.9 95.2998 13.8 95.2998C13.8 95.2998 13.7001 95.2998 13.7001 95.1998C11.9001 92.9998 9.70005 91.3998 7.10005 90.1998C6.60005 89.9998 6.20005 89.5998 5.40005 90.0998C9.10005 93.0998 12.4 96.2998 15.6 99.5998C16.3 100.7 17.2 101.7 17.3 103.1C17.7 103.4 18.4001 103.5 17.7001 104.2C19.5 105.9 20 108.3 21 110.5C18.5 107.8 15.7 105.5 12.4 103.8C8.60005 101.9 4.20005 100.9 1.80005 101.4C7.70005 104.1 13.4001 107 18.9001 110.4C21.1001 111.7 22.9 113.3 23.8 115.7C24.4 116.2 24.9 116.6 23.8 117.1C24.2 117.5 24.9 117.7 25.1 118.3C25.5 119.9 26.7 121.1 27.3 122.6C27.8 123 28 123.4 27.6 124C28.5 124.6 28.8 125.6 29.1 127C25.4 124.4 21.7 122.6 17.6 121.7C13.5 120.9 7.40005 121.2 5.50005 122.8C6.00005 122.9 6.40005 122.9 6.80005 123C13.3 123.8 19.8 124.9 26.1 126.5C28.6 127.1 30.6 128 31.3 130.6C31.6 130.9 31.7001 131.3 31.7001 131.7C32.2001 132.6 32.8001 133.6 33.2001 134.9C24.1 131.4 15.4001 130.9 7.10005 136.2C7.20005 136.3 7.40005 136.3 7.50005 136.3C15.7 135.3 23.9001 134.7 32.2001 135.2C32.7001 135.2 33.4001 135 33.7001 135.6C34.4001 136.9 35 138.2 35.8 139.8C35 139.6 34.6001 139.5 34.2001 139.4C34 139.6 33.8 139.8 33.7001 139.9C35.8 139.8 36.5 141.1 37.3 142.8C38.8 146.1 40.5 149.4 42.1 152.6C42.3 153 42.5 153.4 43 153.2C43.6 152.9 43.3 152.5 43.1 152.1C43 151.8 42.9001 151.6 42.7001 151.4C40.9001 147.8 39.2001 144.3 37.4001 140.7C37 139.9 37 139.3 37.6 138.6C38.4 137.6 39.3 136.6 40 135.5C42.3 131.8 45.3001 128.6 48.3001 125.3C50.5001 122.8 52.8 120.5 55.1 118.1C44.9 121.5 39.7001 129.3 36.7001 139.1C36.2001 137.4 34.6001 136.3 34.9001 134.4C34.8001 134.3 34.6 134.2 34.5 134.2C33 132.6 32.5001 130.9 33.4001 128.6C36.3001 121.5 39.7001 114.7 43.5 108C39.6 110.2 37.1001 113.6 35.2001 117.5C33.3001 121.4 32.7 125.7 32.3 130C31.6 128.4 30.4 127 30.1 125.2C30 125.1 29.9001 125 29.9001 124.8C28.7001 123.3 27.8001 121.9 28.7001 119.8C29.8001 117.1 30.7 114.4 31.8 111.7C33.5 107.5 35.7 103.5 37.6 99.3998C37.5 99.2998 37.5 99.2998 37.4001 99.1998C33.0001 102.1 30.7001 106.4 29 111.2C28 114.1 27.8 117.2 27.6 120.4C26.1 118.3 26 117.8 26.3 115.7C26.9 112.1 27.7001 108.6 28.5 105.1C29.5 101 30.8 96.8998 32 92.7998L31.9001 92.6998C30.1001 94.1998 29 96.1998 28 98.2998C25.6 103.3 24.6 108.6 25.2001 114.2C25.3001 114.7 25.3 115.2 25.3 115.7C24.2 113.7 22.6 112.1 22.5 109.7C21.6 109.8 21.4001 109.2 21.4001 108.5C21.0001 107.5 20.6 106.5 20 105.6C19.4 104.5 19 103.5 19.2001 102.2C19.8001 97.6998 20.9 93.2998 21.8 88.8998C22.2 87.9998 22.5 86.9998 22.6 85.6998C21.9 86.5998 21.3 87.1998 21 87.9998C18.5 91.9998 18.0001 96.3998 17.9001 101C16.7001 95.6998 17.3001 90.1998 17.4001 84.5998Z" fill="#3E2884"/>
<path d="M55.2001 142.8C51.2001 140.3 49.3001 136.2 47.7001 132C44.9001 124.6 43.6001 116.8 42.9001 109C42.9001 108.7 43.0001 108.3 43.0001 108C45.8001 115.8 48.7001 123.6 51.8001 131.3C53.2001 134.7 54.9001 137.9 55.4001 141.6C55.4001 141.9 55.3001 142.4 55.2001 142.8Z" fill="#2F1A70"/>
<path d="M57.0003 142C58.2003 140.5 59.6003 139.4 61.3003 138.5C68.6003 134.3 75.8003 129.9 82.7003 125.1C83.3003 124.7 83.9003 124.2 84.7003 124.3C84.8003 125.5 83.7003 126 83.1003 126.6C77.4003 132.5 71.3003 138 63.7003 141.6C61.7003 142.6 59.5003 143.3 57.2003 143.3C57.1003 142.9 56.7003 142.5 57.0003 142Z" fill="#2F1A70"/>
<path d="M59.9001 127.9C68.1001 122.1 77.2001 117.9 85.5001 112.2C85.0001 113.5 84.0001 114.3 83.0001 115.2C78.0001 119.9 72.9001 124.4 66.6001 127.3C64.4001 128.3 62.1001 129 59.6001 128.7C59.7001 128.5 59.8001 128.2 59.9001 127.9Z" fill="#2F1A70"/>
<path d="M58.6002 128C56.1002 126 55.1002 123 54.3002 120.1C52.5002 113.9 52.2002 107.6 52.2002 101.2C52.2002 100.4 51.4002 99.1998 52.6002 98.8998C52.9002 98.7998 53.0002 100.3 53.2002 101.1C54.9002 108.2 56.3002 115.4 58.5002 122.5C58.9002 123.9 58.6002 125.4 59.3002 126.7C59.6002 127.3 58.8002 127.5 58.6002 128Z" fill="#2F1A70"/>
<path d="M57.5001 136C63.7001 131.2 70.7001 127.9 77.1001 123.5C78.7001 122.4 80.5001 121.4 82.2001 120.2C82.4001 121 82.0001 121.2 81.7001 121.5C77.2001 126.2 72.4001 130.5 66.7001 133.7C63.8001 135.4 60.8001 136.6 57.4001 136.4C57.5001 136.3 57.5001 136.1 57.5001 136Z" fill="#2F1A70"/>
<path d="M56.5002 135.6C52.9002 132.6 51.5002 128.3 50.4002 124C49.0002 118.4 48.3002 112.7 48.2002 106.7C48.8002 107.1 48.9002 107.7 49.0002 108.2C51.0002 115.6 53.4002 123 56.0002 130.3C56.4002 131.5 56.2002 132.9 57.0002 134.1C57.0002 134.6 56.7002 135.1 56.5002 135.6Z" fill="#2F1A70"/>
<path d="M56.5002 135.6C56.7002 135.1 57.1002 134.6 57.0002 134C57.5002 132 58.1002 130 58.6002 127.9C58.7002 127.4 59.6002 127.2 59.3002 126.5C60.0002 124.8 60.7002 123 61.4002 121.3C62.5002 120.8 61.9002 119.6 62.3002 118.8C63.6002 117.7 64.1002 116.1 64.8002 114.7C65.2002 114.4 65.6002 114.1 65.7002 113.5C66.4002 112.3 67.2002 111.1 67.9002 109.9C68.2002 109.4 68.5002 109 68.8002 108.5C69.7002 107.1 70.7002 105.6 71.6002 104.2C71.7002 104 71.8002 103.8 71.9002 103.5C73.3002 102.4 74.4002 101.2 74.9002 99.4C76.2002 99.3 76.6002 98.2 77.3002 97.3C77.5002 96.9 77.7002 96.6 78.1002 96.5C78.7002 97.1 77.5002 97.3 77.8002 97.9C77.4002 98.7 76.2002 99.1 76.2002 100.2C74.5002 101.3 73.6002 102.9 72.6002 104.5C72.0002 105 71.4002 105.4 71.2002 106.2C69.8002 108.1 68.4002 110 67.3002 112.2C67.0002 113.2 65.7002 113.7 65.9002 115C64.4002 116.5 63.9002 118.6 62.8002 120.3C62.5002 120.9 62.3002 121.5 62.0002 122.2C61.2002 124.1 60.5002 126 59.7002 127.9C59.6002 128.2 59.5002 128.4 59.5002 128.7C58.5002 131 58.0002 133.5 57.4002 135.9C57.4002 136.1 57.3002 136.3 57.3002 136.4C57.2002 138.2 56.2002 140 56.9002 141.9C56.6002 142.4 57.0002 142.8 57.2002 143.2C56.2002 143.4 56.4002 144.2 56.4002 144.8C56.3002 148.3 56.6002 151.7 57.2002 155.1C57.3002 155.4 57.3002 155.7 57.4002 155.9C57.5002 156.4 57.5002 156.9 56.9002 157C56.3002 157.1 56.3002 156.6 56.2002 156.2C56.0002 155.1 55.8002 154 55.6002 153C55.0002 149.6 55.3002 146.1 55.2002 142.6C55.3002 142.2 55.3002 141.8 55.4002 141.3C55.8002 139.6 56.1002 137.6 56.5002 135.6Z" fill="#2F1A70"/>
<path d="M62.3002 118.9C61.9002 119.7 62.4002 120.8 61.4002 121.4C60.0002 119.9 59.3002 118.1 58.8002 116.2C57.1002 110.2 57.5002 104.1 57.9002 98.0998C58.0002 96.5998 58.2002 94.9998 58.5002 93.2998C59.0002 95.1998 59.0002 96.8998 59.2002 98.4998C60.0002 104.5 60.8002 110.5 61.6002 116.5C61.7002 117.3 61.2002 118.3 62.3002 118.9Z" fill="#2F1A70"/>
<path d="M65.7 113.6C65.6 114.2 65.2 114.5 64.8 114.8C62.5 112.1 62 108.8 61.6 105.4C60.9 99.9 61.6 94.3 62 88.8C62 88.4 62.1 88 62.4 88C63.1 88 62.9 88.6 63 89.1C63.5 94.6 64.1 100.1 64.6 105.7C64.8 108.3 65.6 110.8 65.2 113.5C65.3 113.5 65.5 113.5 65.7 113.6Z" fill="#2F1A70"/>
<path d="M62.1001 122.2C62.4001 121.6 62.6001 121 62.9001 120.3C63.3001 120.9 63.6001 120.3 63.9001 120.1C70.7001 115.8 77.4001 111.4 84.2001 107.1C84.3001 107 84.4001 107 84.8001 106.9C83.9001 108.6 82.5001 109.6 81.3001 110.7C77.1001 114.7 72.8001 118.6 67.4001 120.9C65.7001 121.8 63.9001 122.1 62.1001 122.2Z" fill="#2F1A70"/>
<path d="M68.8003 108.6C68.5003 109.1 68.2002 109.5 67.9002 110C65.8002 106.5 65.6002 102.5 65.7002 98.6C65.8002 94.2 66.4003 89.9 67.3003 85.5C68.0003 85.9 67.8003 86.5 67.8003 87C68.0003 93.2 68.0002 99.4 68.6002 105.5C68.8002 106.5 68.0003 107.6 68.8003 108.6Z" fill="#2F1A70"/>
<path d="M66.0001 115.1C65.8001 113.8 67.1001 113.3 67.4001 112.3C68.8001 112.5 69.7001 111.6 70.6001 111C74.5001 108.6 78.4001 106 82.3001 103.5C82.6001 103.3 82.9001 103.1 83.2001 102.9C83.6001 102.7 84.0001 102.3 84.4001 102.8C84.7001 103.2 84.3001 103.5 84.0001 103.8C80.3001 107.4 76.6001 110.9 72.0001 113.3C70.1001 114.4 68.2001 115.2 66.0001 115.1Z" fill="#2F1A70"/>
<path d="M71.9002 103.6C71.8002 103.8 71.7002 104 71.6002 104.3C70.2002 102.2 70.2002 99.7998 70.2002 97.3998C70.3002 92.9998 71.1002 88.7998 72.2002 84.5998C72.3002 83.9998 72.4002 83.4998 72.5002 82.8998C72.6002 82.4998 72.6002 81.7998 73.1002 81.7998C73.8002 81.7998 73.5002 82.4998 73.5002 82.8998C73.4002 84.1998 73.3002 85.3998 73.2002 86.6998C73.0002 91.0998 72.8002 95.4998 72.5002 99.8998C72.5002 101.1 72.4002 102.4 71.9002 103.6Z" fill="#2F1A70"/>
<path d="M71.3 106.3C71.4 105.5 72.1 105.1 72.7 104.6C74.5 104 76.1 103 77.7 102.1C81.4 99.9997 85.3 97.9997 88.7 95.4997C89.2 95.1997 89.7 94.6997 90.6 94.9997C85.7 99.2997 81.1 103.8 74.8 106C73.7 106.3 72.5 106.5 71.3 106.3Z" fill="#2F1A70"/>
<path d="M94.7002 86.7998C89.3002 88.8998 84.5002 91.8998 80.3002 95.8998C79.7002 96.3998 78.9002 97.4998 78.2002 96.8998C77.6002 96.2998 78.4002 95.2998 78.9002 94.6998C83.0002 89.5998 88.3002 87.0998 94.7002 86.7998Z" fill="#2F1A70"/>
<path d="M77.3001 97.3998C76.6001 98.1998 76.2001 99.2998 74.9001 99.4998C74.5001 97.5998 75.2001 95.7998 75.8001 94.0998C77.5001 89.3998 80.1001 85.0998 83.2001 80.7998C81.3001 85.6998 79.5001 90.3998 77.7001 94.9998C77.3001 95.7998 76.7001 96.5998 77.3001 97.3998Z" fill="#2F1A70"/>
<path d="M76.2002 100.3C76.3002 99.1997 77.4002 98.8997 77.8002 97.9997C81.3002 96.4997 84.4002 94.1997 87.7002 92.2997C88.6002 91.6997 89.5002 90.8997 90.7002 90.6997C90.7002 91.6997 89.9002 91.9997 89.4002 92.4997C86.7002 95.1997 83.8002 97.4997 80.4002 99.1997C79.0002 99.8997 77.7002 100.5 76.2002 100.3Z" fill="#2F1A70"/>
<path d="M43.9001 131.7C52.3 129.4 60.5 126.1 68.2 121.9C71.4 120.2 74.5 118.3 77 115.7C65.3 119.2 54.2001 124.4 44 131C43.4001 130.4 43.6 129.3 44.1 128.7C44.6 128 45.4 127.6 46.1 127.2C55.8 121.9 64.8 115.5 73 108.1C74.9 106.4 76.7001 104.7 78.1001 102.5C77.7001 102.7 77.3001 103 76.9001 103.2C65.1001 110.1 54 118.3 44 127.6C44 126.8 43.9001 126 43.9001 125.1C43.9001 124.1 43.7001 123.8 44.4001 123.1C45.5 122.1 46.9 121.2 48.1 120.3C50.5 118.4 52.8 116.4 55.1 114.3C59.6 110.2 63.9001 105.8 67.9001 101C68.3001 100.6 69.9001 99.0999 69.9001 98.5999C70.9001 97.3999 72.2001 96.0999 72.8 94.6999C72.9 94.3999 71.8 94.7999 71.7 94.8999C71.1 95.1999 70.6 95.6999 70.1 96.0999C68.2 97.4999 66.4 98.9999 64.6 100.6C62.5 102.5 60.4001 104.4 58.4001 106.5C54.3001 110.6 50.5001 114.9 46.8001 119.3C46.6001 119.5 46.6 119.7 46.6 120C45.5 120.5 45.2001 121.9 44 122.3C44 121.2 44 120.1 44 119C44 118.1 43.8 117.2 44.7001 116.5C44.7001 116.3 44.7001 116.1 44.7001 115.9C44.7001 116.1 44.7001 116.3 44.7001 116.5C45.3 116.6 46.7 115 47.2 114.6C53.8 109.1 59.3001 102 64.4001 95.0999C65.9001 93.0999 68.4 90.8999 68.6 88.2999C68.6 88.5999 66.8 89.7999 66.5 90.0999C65.3 91.1999 63.9001 92.0999 62.8001 93.2999C61.8001 94.2999 60.8001 95.3999 59.8001 96.4999C58.0001 98.3999 56.2 100.3 54.6 102.3C52.8 104.4 50.8 106.6 49.1 108.9C48.6 109.5 44.8 115.9 44.6 115.8C44.4 115.7 44.1 115.7 44.1 115.6C44.3 113.1 43 110.4 45.4001 108.3C46.1001 108.2 46.4001 107.6 46.9001 107.2C51.4001 102.6 55.2 97.3999 58.7 91.9999C59.7 90.4999 60.6001 88.9999 61.4001 87.4999C61.7001 86.8999 62.5 85.6999 62.4001 84.9999C62.3001 83.4999 59.2001 87.2999 58.9001 87.6999C57.3001 89.4999 55.8001 91.3999 54.3001 93.2999C51.4001 97.0999 48.6001 101.1 46.3001 105.3C45.7001 106.4 45.1001 107.4 44.4001 108.4C44.3001 108.4 44.2001 108.3 44 108.3C44.3 106.5 43.4 104.5 44.8 102.8C45.3 102.8 45.5 102.4 45.8 102.1C48.3 98.9999 50.6 95.7999 52.7 92.3999C53.7 90.6999 54.7 88.9999 55.6 87.1999C56.7 84.9999 57.7001 82.8999 58.4001 80.4999C58.5 80.1999 58.6 79.9999 58.5 79.7999C57.9001 79.7999 57.6 80.3999 57.2 80.7999C52.9 85.9999 49.2 91.6999 46.2 97.7999C45.6 99.0999 45.1 100.6 44 101.7C43.8 99.4999 43.8 97.2999 43.8 95.1999C43.8 93.6999 45 92.2999 46.1 91.3999C47 90.6999 47.6001 89.6999 48.3001 88.7999C48.6001 88.2999 49.4001 87.5999 49.4001 86.9999C49.9001 86.1999 50.3 85.4999 50.7 84.6999C51 84.0999 51.9001 82.9999 51.9001 82.2999C52.6001 80.8999 53.5 79.3999 53.5 77.6999C53.5 77.3999 53.3 76.8999 53 77.2999C51.9001 78.7999 50.7 80.0999 49.7 81.5999C48.5 83.3999 47.4001 85.2999 46.3001 87.1999C46.0001 87.6999 45.7001 88.2999 45.4001 88.7999C45.2001 89.1999 44.8 91.2999 44 90.9999C43.8 90.8999 43.7001 90.6999 43.7001 90.4999C43.8 89.1999 43.2001 87.7999 43.9001 86.4999C44.4001 86.4999 44.7001 85.9999 45 85.6999C47 82.9999 48.6 80.1999 49.7 76.9999C50.2 75.6999 50.5 74.3999 50.5 72.9999C49.4001 73.8999 48.6001 75.0999 47.8001 76.2999C46.7001 78.0999 45.4 80.0999 44.8 82.0999C44.6 82.7999 44.4001 83.5999 43.7001 83.9999C43.7001 83.1999 43.6 82.2999 43.6 81.4999C43.6 81.3999 43.6 81.1999 43.6 81.0999C43.6 80.9999 43.7001 80.7999 43.8 80.6999C45 78.1999 44.8001 74.2999 44.4001 71.5999C44.2001 70.3999 44.3 69.0999 43.5 67.9999C43.5 67.7999 43.5 67.6999 43.4001 67.4999C43.2001 67.0999 43.1 67.3999 43.1 67.5999C42.7 68.8999 42.4001 70.0999 42.5 71.3999C41.8 75.2999 42.4001 79.0999 43.2001 82.8999C43.2001 83.1999 43.2001 83.5999 43.2001 83.8999C43.2001 84.1999 42 82.4999 42 82.3999C40.6 79.0999 39.1 75.4999 36.2001 73.2999C36.9001 77.6999 38.6 81.6999 41.3 85.1999C41.7001 85.6999 41.8 86.3999 42.6 86.3999C43.3 88.0999 42.8 89.7999 42.5 91.4999C42.7001 90.1999 41.7 89.3999 41.1 88.4999C39.7 86.3999 38.9 83.9999 37.5 81.8999C36.8 80.8999 36.1 79.9999 35.3 79.0999C34.8 78.5999 33.1001 77.3999 32.9001 76.7999C33.8001 80.0999 35.3 83.2999 37 86.1999C37.9 87.6999 38.8 89.0999 39.8 90.3999C40.2 90.9999 40.7001 91.5999 41.2001 92.1999C41.5 92.5999 42.9001 93.8999 42.9001 94.3999C42.9001 96.6999 42.9001 98.9999 42.9001 101.4C42.7001 101.4 42.5 101.4 42.3 101.4C42 101.4 39.9 96.1999 39.6 95.6999C38.6 93.7999 37.6001 91.9999 36.4001 90.2999C34.5001 86.7999 31.9001 84.0999 29.7001 80.8999C29.4001 80.3999 29.0001 79.9999 28.4001 79.7999C28.3001 79.9999 28.3001 80.0999 28.4001 80.2999C30.6001 86.7999 34.2 92.4999 38.1 98.0999C38.8 99.0999 39.4 99.8999 40.3 100.8C41.2001 101.7 42.1 102.9 42.5 104.2C42.7001 104.9 42.8 105.6 42.8 106.3C42.8 106.7 42.3001 108.3 42.4001 108.6C42.2001 108.2 41.9001 107.8 41.7001 107.5C39.9001 104.3 37.8001 101.2 35.7001 98.1999C34.4001 96.3999 33.3 94.4999 32 92.6999C30.3 90.5999 28.4 88.5999 26.5 86.5999C26.3 86.2999 23.9001 84.0999 23.9001 83.9999C23.8001 84.2999 23.7001 84.4999 23.7001 84.4999C24.0001 85.0999 24.2 85.7999 24.5 86.3999C27.5 92.0999 31.1 97.3999 35.2001 102.4C37.1 104.7 38.8001 107.2 41.4001 108.9C42.3001 109.6 42.6 110.5 42.5 111.7C42.4001 113.1 42.5 114.5 42.5 115.9C42.2001 115.8 41.9 115.7 41.6 115.5C41.2 114.4 40.4 113.6 39.8 112.7C36.8 108.4 33.4001 104.4 29.9001 100.5C28.1001 98.4999 26.3001 96.5999 24.4001 94.6999C23.5001 93.7999 22.5 92.7999 21.6 91.8999C21.2 91.4999 19.3 90.1999 19.3 89.4999C19.2 89.3999 18 88.6999 18 88.5999C18 89.5999 18.5001 90.1999 18.9001 90.7999C24.3001 98.9999 30.6 106.5 37.7001 113.4C39.1 114.7 40.3001 116.3 42.2001 117.1C42.3 117.2 42.4001 117.3 42.5 117.4C42.8 117.7 42.6 119.6 42.6 120C42.6 120.6 42.7 121.4 42.6 122C42.5 122.3 42.3 123 41.8 122.7C41.7001 122.6 41.6 122.5 41.6 122.4C41.1 121.5 40.6001 120.6 39.9001 119.8C38.9001 118.6 38 117.4 37 116.3C35 114 33 111.7 30.8 109.5C26.5 105.1 22.0001 101 17.2001 97.0999C16.1001 96.1999 14.9001 95.2999 13.7001 94.3999C14.3001 96.1999 15.5 97.7999 16.8 99.1999C19.1 101.9 21.5001 104.5 23.9001 107.1C27.6001 111 31.3 114.8 35.6 118.1C38 120 45 123.8 42.3 127.8C32.6 118.4 21.7 110.2 9.90005 103.5C9.50005 103.3 8.90005 103.2 8.80005 103.6C18.2 113.1 29 121.1 40.7001 127.5C41.4001 127.9 42.1 128.2 42.5 128.9C42.9001 129.5 43 130.5 42.4001 131C32.2001 124.3 21.1 119.2 9.40005 115.8C11.5 118.2 14.4001 119.8 17.2001 121.4C24.2001 125.3 31.5 128.8 39.3 130.8C40.2 131 41.2001 131.3 42 131.9C42.7001 132.5 43.1 133.7 42.6 134.5C33.4 131.7 23.6 130.7 14 131.5C23.1 134.6 32.9 135.9 42.6 135C43.3 135.6 43 136.9 42.3 137.4C41.6 138 40.6 138 39.6 138.1C33.3 138.5 26.9001 139.7 21.7001 143.2C29 143.3 36.3001 141.7 42.7001 138.4C42.7001 142.6 42.8 146.8 42.8 151C42.8 151.4 42.9 152 43.3 152.1C43.9 152.2 44.1 151.4 44.1 150.8C44.1 146.6 44.1 142.5 44.1 138.3C44.4 138.3 44.6001 138.3 44.9001 138.4C44.9001 138.8 45.2001 138.9 45.5 139C49.5 141 53.8 142 58.2 142.7C60.4 143.1 62.7 143.4 65.1 142.9C64.7 143 62.6 141.6 62.1 141.4C61 140.9 59.8 140.6 58.6 140.2C57.9 140 57.2 139.8 56.6 139.6C52.6 138.4 48.4001 138.1 44.2001 137.9C44.1001 137.9 44.1 137.9 44 137.9C44 137.5 44 137.1 44 136.7C44 136.1 44.1001 135.3 44.7001 135.1C44.9001 135 45.1 135 45.3 135.1C54.7001 135.9 64.2001 134.6 73.1001 131.5C64.3001 130.2 55.4001 131.8 46.8001 133.9C46.0001 134.1 45.2001 134.3 44.5 133.9C43.5 133.2 43.2001 132.1 43.9001 131.7Z" fill="#180B4F"/>
<path d="M18 146.7H68.8L53.7 199.4H35.3L18 146.7Z" fill="#F0E8F5"/>
<path d="M71.2999 178.2C71.2999 178.2 76.3999 166.8 79.0999 164.9C81.7999 163.1 96.2999 166.1 96.2999 166.1C96.2999 166.1 110 135.3 117.7 128.8C121.3 125.7 111.9 128.3 111 128.6C100.9 131.9 91.1999 136.7 83.3999 143.9C80.4999 146.6 73.1999 152.6 72.9999 154.5C72.7999 156 77.2999 161 77.0999 163.3C76.8999 165.6 71.7999 173.4 71.0999 175.1C70.3999 176.8 69.8999 179.1 69.8999 179.1L71.2999 178.2Z" fill="#6753A5"/>
<path d="M110 132.4C109.9 132.2 109.6 132.1 109.3 132.2C101 136.3 94.0998 142.5 88.8998 148C88.7998 146.8 88.5998 144.7 88.0998 143.6C87.9998 143.3 87.6998 143.2 87.4998 143.3C87.1998 143.4 87.0998 143.7 87.1998 143.9C87.7998 145.3 87.9998 148.5 87.9998 149C81.9998 155.6 78.6998 161.1 78.5998 161.2C78.4998 161.4 78.4998 161.7 78.7998 161.9C78.8998 161.9 78.9998 162 79.0998 162C79.2998 162 79.3998 161.9 79.4998 161.8C79.4998 161.7 81.2998 158.9 84.3998 154.9C85.2998 154.7 92.1998 153.4 96.6998 154.4C96.9998 154.5 97.1999 154.3 97.2999 154C97.3999 153.7 97.1998 153.5 96.8998 153.4C92.9998 152.5 87.6999 153.2 85.2998 153.7C87.9999 150.3 91.6998 146.3 95.9998 142.5H96.0998C96.1998 142.5 101.5 140.9 103.4 140.9C103.7 140.9 103.9 140.7 103.9 140.4C103.9 140.1 103.7 139.9 103.4 139.9C102.1 139.9 99.4998 140.5 97.6998 141C101.2 138.1 105.2 135.4 109.6 133.2C110 133 110.1 132.7 110 132.4Z" fill="#583F93"/>
<path d="M85.5999 147.7C85.5999 136.4 75.7999 94 75.7999 94C69.4999 107.6 58.8999 150 58.8999 150C61.5999 151.5 67.6999 161.1 67.6999 161.1L65.6999 178.7L67.6999 179L69.8999 161.1C69.7999 161.2 85.5999 149.3 85.5999 147.7Z" fill="#6D61AA"/>
<path d="M78.3999 138.2C78.1999 138 77.8999 138 77.6999 138.3L71.0999 146.1C71.3999 143.3 71.7999 140.3 72.0999 137.5L77.9999 130.5C78.1999 130.3 78.0999 130 77.8999 129.8C77.6999 129.6 77.3999 129.7 77.1999 129.9L72.2999 135.7C73.4999 126 74.4999 117.5 74.6999 116.7C74.7999 116.4 74.5999 116.2 74.3999 116.1C74.0999 116 73.8999 116.2 73.7999 116.4C73.5999 117.3 72.2999 127.2 71.1999 137.1C71.1999 137.1 71.1999 137.2 71.1999 137.3C70.4999 143.5 69.6999 149.6 69.2999 153.7L64.3999 145.5C64.2999 145.3 63.9999 145.2 63.6999 145.3C63.4999 145.4 63.3999 145.7 63.4999 146L68.9999 155.1C68.9999 155.2 69.0999 155.2 69.0999 155.2C68.8999 157 68.7999 158.1 68.6999 158.4C68.6999 158.7 68.8999 158.9 69.0999 159C69.0999 159 69.0999 159 69.1999 159C69.3999 159 69.6999 158.8 69.6999 158.6C70.0999 155.5 70.4999 151.8 70.9999 147.9L71.0999 147.8L78.5999 139C78.6999 138.7 78.5999 138.4 78.3999 138.2Z" fill="#6450A5"/>
<path d="M65.4999 177.7L60.6999 164.1C60.6999 164.1 48.2999 160 43.5999 159.5C43.5999 159.5 40.5999 106.7 42.0999 100.2C42.0999 100.2 72.6999 144.8 73.3999 146.6C74.0999 148.4 63.9999 163.2 63.9999 163.2L66.7999 176.9L65.4999 177.7Z" fill="#8479C9"/>
<path d="M62.6999 138.8C62.4999 138.7 62.1999 138.8 61.9999 139L57.6999 148.3L45.8999 112.5C45.7999 112.2 45.4999 112.1 45.2999 112.2C44.9999 112.3 44.8999 112.6 44.9999 112.8L51.4999 132.4L45.7999 130.4C45.4999 130.3 45.2999 130.4 45.1999 130.7C45.0999 131 45.1999 131.2 45.4999 131.3L51.8999 133.6L60.6999 160.3C60.7999 160.5 60.9999 160.6 61.1999 160.6C61.2999 160.6 61.2999 160.6 61.3999 160.6C61.6999 160.5 61.7999 160.2 61.6999 160L58.2999 149.6L62.9999 139.3C63.0999 139.2 62.9999 139 62.6999 138.8Z" fill="#6D61AA"/>
<path d="M52 173.8H84.9L75.1 213.2H63.2L52 173.8Z" fill="#E4DAEA"/>
<path d="M261.9 208.5H304.1L309.7 276.3H246.8L261.9 208.5Z" fill="#F0E8F5"/>
<path d="M261.9 208.5H274.9L282.7 276.3H246.8L261.9 208.5Z" fill="black" fill-opacity="0.1"/>
<path d="M349.1 192.1C346.7 196.1 340.8 207.3 334.6 220.5C331 228.2 326.3 241.4 320.7 260L327.9 263.3C340.9 242.4 350.5 226.3 356.9 214.9C356.5 218.3 356.2 221.9 355.8 225.6C354.6 238.3 355.8 265.7 356.4 273.6C356.8 278.6 363.6 277.3 364.2 273.3C364.8 269.3 376.9 206.4 376.9 193.2C376.9 188.2 365.7 184.1 361.2 190.2C357.5 187.5 352.3 186.8 349.1 192.1Z" fill="#F0E8F5"/>
<path d="M337.1 255.4C338.5 251.7 361.8 211 366.4 198.4C368.4 192.9 351.8 181.4 345.9 190.9L321.2 249.5L337.1 255.4Z" fill="#ADA8D4"/>
<path d="M369.6 186.7C359.8 185.2 339.4 182.7 308.2 178.9H271.8C272.4 200.8 280.2 212.3 299 211.6C312 211.1 355.5 204.6 356.6 205.1C357.1 205.3 355.8 222.4 352.7 256.4L370.3 257C370.3 253.3 377.6 214.3 377.6 197.7C377.6 193.1 375.8 187.7 369.6 186.7Z" fill="#C0B9DB"/>
<path d="M354.6 274.5C354.9 273.9 355.6 273.6 356.3 273.9C357.9 274.7 359.2 275 360.2 275C361.3 275 362.8 274.6 364.7 273.7L365.8 271.1C365.9 270.8 366.3 270.6 366.6 270.8L383 278.1C384.3 278.3 386 278.5 387.9 278.8C389.9 279 390.4 280.7 389.5 283.7C367.3 283.7 355.5 283.7 354.2 283.7C353.8 281.5 353.6 279.9 353.6 278.8C353.5 277.8 353.8 276.4 354.6 274.5C354.5 274.5 354.6 274.5 354.6 274.5Z" fill="#8479C9"/>
<path d="M319.6 256.9C320.2 256.6 321 256.8 321.3 257.4C322.1 259 322.9 260.1 323.6 260.7C324.5 261.4 325.9 262 327.9 262.5L330.3 261.2C330.6 261 331 261.2 331.1 261.5L339.4 277.4C340.3 278.4 341.5 279.6 342.9 281C344.3 282.4 343.7 284 341.1 285.8C323.7 272 314.5 264.7 313.4 263.9C314.5 262 315.3 260.6 316 259.7C316.7 258.9 317.8 258 319.6 256.9C319.5 257 319.6 256.9 319.6 256.9Z" fill="#8479C9"/>
<path d="M286.8 126.8H301.8L299.3 108.8C303.4 111.2 307.3 112.4 309.2 111.9C313.9 110.7 314.3 93.4998 310.7 86.7998C307.1 79.9998 288.4 77.0998 287.5 90.4998C287.2 95.1998 289.1 99.2998 292 102.7L286.8 126.8Z" fill="#F0E8F5"/>
<path d="M304.2 87.8C310.8 87.9 311.6 86.7 311.6 82.7C310.5 81.9 306.8 80.7 302.6 80.3C300.4 79.7 297.9 79.8 295.4 80.8C292.4 81.7 290.3 82.4 288.4 85.9C284.3 93 287.7 101.5 291.9 104C293 102.7 294 101.4 294.9 100.2C294.2 99.5 293.8 98.6 293.8 97.5C293.8 95.4 295.5 93.7 297.6 93.7C297.8 93.7 297.9 93.7 298 93.7C298.2 101 298.7 105.8 299.5 108.1C300.7 111.7 307.6 112.6 310.1 112.6C312.5 112.6 312.1 110 312.1 108.6C312.1 107.8 309.6 108.9 309.6 107.4C309.6 105.9 312.8 105.1 313.4 104.2C314.2 103.1 314.4 101.6 313.3 101.6C311.7 101.6 308.5 104 304.8 104C302.3 104 300.8 100 300.2 92C301.3 90.1 302.6 88.6 304.2 87.8Z" fill="#191847"/>
<path d="M309.7 93.2998C309.1 93.3998 308.8 94.5998 309.5 94.7998C310.3 95.0998 310.4 94.0998 310.3 93.4998C310.1 93.3998 309.9 93.3998 309.7 93.2998Z" fill="#191847"/>
<path d="M312.4 93.6001C312.6 93.7001 314.5 99.2001 315 100.5C314.2 101.6 312.9 101.6 311.8 101.5C311.7 98.7001 311.6 96.0001 312.5 93.6001" fill="#F0E8F5"/>
<path d="M307.1 92.9002C306.9 92.5002 307.1 91.9002 307.4 91.6002C307.7 91.3002 308.1 91.1002 308.5 90.9002C308.9 90.8002 309.3 90.7002 309.8 90.8002C310.2 90.9002 310.7 91.0002 311 91.3002C310.6 91.4002 310.2 91.5002 309.9 91.5002C309.5 91.6002 309.2 91.7002 308.9 91.8002C308.6 91.9002 308.2 92.0002 307.9 92.1002C307.6 92.3002 307.3 92.5002 307.1 92.9002Z" fill="#191847"/>
<path d="M266.6 197.6H280.6C277.9 193.1 276 185.9 274.8 176C271.9 184.3 269.2 191.5 266.6 197.6Z" fill="black" fill-opacity="0.1"/>
<path d="M330.5 181.7L350.3 189.9C355.9 196.5 359 199.2 359.7 198.1C360.7 196.5 358.5 195 359 193.8C359.5 192.6 363.2 192.7 366.8 193C370.4 193.3 369.3 191.7 368.5 190.9C364.9 188.7 360.3 186.9 354.9 185.4L334.9 170.7L330.5 181.7ZM250.1 211.3C249.2 213.1 242.6 218.6 238 221.8C236.2 223.1 236.9 224.7 237.6 225.1C243.3 228.6 247 224.5 251.9 222.2C257.3 219.7 256.8 226.8 261.1 224.9C259.8 222 256.7 216.5 258.2 212.9C258.8 211.3 263.2 197.5 271.3 171.4L258.2 171.3C254 195.5 251.3 208.8 250.1 211.3Z" fill="#F0E8F5"/>
<path d="M347.8 191.2L353.7 183.9C329.1 166.2 320.8 132.9 300.7 115.6L295.3 116.5C294.5 145.2 305.1 185.9 347.8 191.2Z" fill="#6D61AA"/>
<path d="M289.4 113.1L303.2 115.3C303.2 141.5 317.5 161.3 321.1 179.7C321.4 181.3 321.8 184.5 319.6 184.5C309.4 184.5 293.4 184.5 271.7 184.5C274 154.1 278 131.5 289.4 113.1Z" fill="#DDE3E9"/>
<path d="M249.9 210.7H260.2C262.2 207.1 264.4 202.8 266.6 197.6H304.3C309.9 183.5 306.4 155.5 294 113.4L289.7 113.2C289.3 113.1 288.9 113.1 288.4 113.1C279.8 113.1 275 109.7 269.6 111.4C264.2 113 262.4 118.1 267.4 127.2C268.6 129.3 270.2 130.7 272.2 131.2C256.3 152.9 248.9 179.5 249.9 210.7Z" fill="#8479C9"/>
<path d="M294.9 31.7001C294.9 42.2001 302.3 51.4001 313.7 57.2001C316.3 58.5001 314.6 66.5001 315.1 67.9001C315.6 69.3001 325.2 61.5001 326.8 61.8001C331.2 62.8001 336 63.3001 340.9 63.3001C366.3 63.3001 386.9 49.2001 386.9 31.7001C386.9 14.2001 366.3 0.100098 340.9 0.100098C315.5 0.100098 294.9 14.3001 294.9 31.7001Z" fill="#E4DAEA"/>
<path d="M150.3 246.7H192.5L198.1 314.5H135.2L150.3 246.7Z" fill="#F0E8F5"/>
<path d="M150.3 246.7H163.3L171.1 314.5H135.2L150.3 246.7Z" fill="black" fill-opacity="0.1"/>
<path d="M187 181.7H199.4L197.3 166.9C200.6 168.9 203.9 169.9 205.5 169.5C209.4 168.5 209.7 154.4 206.7 148.8C203.7 143.2 188.3 140.8 187.6 151.8C187.3 155.6 188.9 159.1 191.3 161.8L187 181.7Z" fill="#8479C9"/>
<path d="M206.7 146.2C207.4 147.7 206.9 149.6 204.1 149.4C201.3 152.8 197.1 155.1 196.6 155.2C196.6 155.2 194.7 152.7 193 153.8C191 155 191.4 157.2 192.4 159C193 159.9 193.8 161.3 192.4 162.3C190.1 164 184.2 160.3 183.3 157.1C181.5 151.3 184 143.3 190.4 142.2C190 141.1 188.5 140.7 187.4 140.4C184.9 139.9 182.2 140.4 179.7 141C176.7 141.7 173.6 142.6 170.4 142.7C168.8 142.7 167.2 142.4 165.7 141.9C164.1 141.3 162.9 140.4 161.5 139.5C160.2 138.6 158.8 138.8 157.3 139.2C155.8 139.6 154.4 140.2 153 140.9C150.1 142.4 147.4 144.3 144.3 145.4C142 146.2 139.5 146.7 137.1 146.7C132.8 146.8 127.7 145.9 124.9 142.2C123 139.7 123 136.6 124.1 133.8C125.2 131.2 127.1 129.3 129.4 127.8C131.9 126.1 134.6 124.9 137.6 124.7C140.8 124.5 143.9 125.5 146.6 127.2C149.3 128.8 151.6 130.5 154.8 131C157.9 131.5 161.1 131.1 164 130.1C167.1 129.1 170.1 128 173.5 127.7C176.6 127.4 179.9 127.7 182.8 129C185.4 130.1 187.5 132.1 188.9 134.5C189.7 135.8 190.2 137.2 190.5 138.7C190.6 139.2 190.7 139.7 190.8 140.3C190.9 140.8 190.8 141.4 191 141.8C191.3 142.3 191.9 142.2 192.4 142.2C193.2 142.2 197.6 142.4 199.2 142.7C201.9 142.8 206.1 144.7 206.7 146.2Z" fill="#3E2884"/>
<path d="M263.2 306.6C257.7 272.9 253.1 250.7 250.5 243.9C248.8 239.4 235.7 239.9 237.2 249C237.8 252.8 240.3 262.9 243.6 274.4C245.5 281.1 250.3 293.9 256.9 308.5L263.2 306.6ZM182.1 268.7C184.4 268.4 211.5 265.5 230.6 262.8C238.3 261.7 234.1 247.3 226.2 248.8C223.5 249.3 220.7 249.9 217.7 250.5C207.5 252.6 186.2 260.1 180.2 262.5C176.4 264.1 178.9 269.2 182.1 268.7Z" fill="#8479C9"/>
<path d="M231.2 246.6C230.8 267.1 245.6 279 250.2 296.1L262.3 294.3C261.1 291.1 257.3 248.9 251 240.3C251 240.3 251 240.3 251 240.2C251 240.2 251 240.2 251 240.1C250.3 237.8 234.1 232.6 202.4 224.6H198.5V228.2L231.3 244.9C231.1 245.4 231.1 246 231.2 246.6Z" fill="#583F93"/>
<path d="M191.2 258.2L194.3 267.8C200.9 266.1 220.7 271.5 245.7 261.1C245.8 261 245.9 260.9 246 260.7C250.6 257.4 253.2 244.7 245 241.1C232.6 235.8 208.7 225.8 204.1 224.4H176C173.4 242.2 177.8 250.4 193.1 253.1C195.5 253.5 198.2 254.1 201.2 254.7L191.2 258.2Z" fill="#6D61AA"/>
<path d="M182.4 261C183 261 183.4 261.4 183.5 262C183.5 263.5 183.7 264.6 184.1 265.3C184.5 266.1 185.4 267.1 186.7 268.1L189 268C189.3 268 189.5 268.2 189.5 268.5L190 283.3C190.3 284.3 190.8 285.6 191.3 287.2C191.8 288.8 190.8 289.7 188.2 290.2C180.2 273.7 175.9 265 175.4 264.1C176.9 263 178 262.3 178.9 261.9C179.5 261.4 180.7 261.2 182.4 261C182.3 261 182.4 261 182.4 261Z" fill="#3E2884"/>
<path d="M253.9 305.7C254.1 305.2 254.7 305 255.3 305.2C256.6 305.8 257.7 306.1 258.5 306.1C259.4 306.1 260.7 305.7 262.2 305L263.1 302.9C263.2 302.6 263.5 302.5 263.8 302.6L277.3 308.6C278.4 308.8 279.7 308.9 281.4 309.1C283 309.3 283.5 310.6 282.7 313.1C264.4 313.1 254.7 313.1 253.6 313.1C253.3 311.3 253.1 310 253.1 309C253 308.4 253.3 307.3 253.9 305.7Z" fill="#E4E4E4"/>
<path d="M236.3 218.1L250.3 207.4C257.3 206.1 260.5 205 260 204.1C259.2 202.7 257.3 203.7 256.7 202.8C256.1 201.9 257.7 199.3 259.3 196.9C260.9 194.5 259.4 194.6 258.5 194.9C255.5 196.6 252.3 199.1 249 202.3L230.3 210.5L236.3 218.1ZM141.9 243.8C140.9 245.1 134.7 248.6 130.4 250.4C128.7 251.1 129.1 252.6 129.6 253C133.6 256.7 137.3 254 141.7 252.9C146.4 251.7 145 257.4 148.7 256.5C148.1 253.9 146.5 249 148.2 246.3C149 245.1 154.7 234.6 165.3 214.8L154.7 212.7C147.6 231.6 143.3 241.9 141.9 243.8Z" fill="#6D61AA"/>
<path d="M209.5 224.7C217.6 229.6 237.6 221 246.9 210.9L243.7 203.8C233.4 207.5 224.7 210.2 218.6 207.4C212.1 204.4 208.2 181.8 198.4 172.3L193.9 173.1C193.6 189 196.6 216.9 209.5 224.7Z" fill="#EA931F"/>
<path d="M189.1 170.4L200.5 172.2C200.5 193.8 212.2 210.1 215.3 225.3C215.6 226.6 215.9 229.2 214.1 229.2C205.7 229.2 192.5 229.2 174.6 229.2C176.5 204.2 179.7 185.5 189.1 170.4Z" fill="#DDE3E9"/>
<path d="M165.8 240H201.3C205.9 228.4 203.1 205.2 192.8 170.4H188.4H188.3C162.8 186.1 147.3 210.5 142 243.6L150.3 245.2C155.8 238.8 162.5 228.4 170.6 213.9C168.2 222.6 166.4 231.6 165.8 240Z" fill="#F9AA38"/>
<path d="M204.8 156.8C202.7 157.1 205.8 159.3 205.4 157C205.2 156.8 205 156.8 204.8 156.8Z" fill="#3E2884"/>
<path d="M208.6 158.1C208.9 159.4 209.7 160.6 210 161.9C210.5 163.7 209.5 163.4 207.7 163.3C207.6 161.5 208.2 159.8 208.6 158.1Z" fill="#8479C9"/>
<path d="M206.4 155.8C206.1 155.6 205.8 155.5 205.5 155.5C205.2 155.4 204.9 155.4 204.6 155.4C204.3 155.4 204.1 155.4 203.8 155.6C203.5 155.7 203.3 156 202.9 156C203.1 155.7 203.3 155.5 203.5 155.3C203.7 155 204.2 154.9 204.5 154.9C204.9 154.9 205.2 155 205.5 155.2C205.9 155.2 206.2 155.4 206.4 155.8Z" fill="#3E2884"/>
<path d="M204.6 165C204.8 165.3 205 165.3 205.3 165.5C205.5 165.6 205.8 165.7 206.1 165.7C206.6 165.9 207.2 166 207.7 166.3C207.1 166.6 206.4 166.6 205.8 166.4C205.5 166.3 205.2 166.2 204.9 165.9C204.7 165.7 204.5 165.3 204.6 165Z" fill="#3E2884"/>
<path d="M149 320.4C151.2 320 152.9 318.6 154.9 317.7C155.3 317.5 155.7 317.4 156.1 317.2C156.7 319.9 157.7 322.5 158.1 325.3C158.6 329 157.4 330.7 153.7 331.5C151.5 332 149.4 332.6 147.1 332.8C149.9 329.9 149.7 326.4 149.4 322.8C149.3 322 149.1 321.2 149 320.4Z" fill="#C0B9DB"/>
<path d="M81.6999 317.2C83.4999 317.7 84.7999 318.9 86.4999 319.6C87.2999 319.9 87.9999 320.3 88.8999 320.5C88.7999 320.7 88.6999 320.9 88.6999 321.1C88.5999 323.2 88.1999 325.2 88.3999 327.3C88.5999 329.4 89.4999 331.1 90.7999 332.7C87.9999 332.4 85.2999 331.8 82.6999 331C80.5999 330.4 79.7999 328.7 79.8999 326.2C79.9999 323.9 80.6999 321.8 81.2999 319.7C81.2999 318.8 81.4999 318 81.6999 317.2Z" fill="#C0B9DB"/>
<path d="M98.2999 294.7C96.9999 293.7 95.5999 293.2 93.9999 293.2C93.4999 293.2 92.9999 293.3 92.5999 292.9C95.0999 291.5 98.4999 290.4 101.3 290C100.8 291.3 99.6999 292.9 99.1999 294.2C99.0999 294.5 98.7999 294.8 98.2999 294.7Z" fill="#C0B9DB"/>
<path d="M146.1 293C144.4 293.3 142.8 293.5 141 294C140.4 294.2 140.3 294.3 139.9 294.8C138.4 294.9 138.7 294.1 138.5 293.7C138 292.5 136.7 291.1 136.2 290C139 290.5 143.5 291.5 146.1 293Z" fill="#C0B9DB"/>
<path d="M105.9 289.6C114.6 289.2 123.7 289.6 132.4 289.6C133 290.5 132.7 291.6 132.9 292.7C133.4 295 133.2 295.2 130.9 295.3C126 295.7 121.1 296.5 116.1 296.2C112.5 296 109 295.6 105.5 295.3C104.7 295.2 104.7 294.7 104.8 294.1C104.9 292.6 105.2 291.1 105.9 289.6Z" fill="#C0B9DB"/>
<path d="M147.1 332.7C144.9 334.1 142.4 334.1 139.9 334C129.8 333.5 119.6 333.4 109.4 333.6C105.2 333.7 100.9 333.7 96.6998 334.1C94.4998 334.3 92.4998 333.7 90.5998 332.6C89.2998 331 88.3998 329.2 88.1998 327.2C87.9998 325.1 88.3998 323.1 88.4998 321C88.6998 321.1 88.8998 321.1 89.0998 321.2C96.1998 324.5 103.4 326.9 111.3 327.4C116.8 327.7 122.2 327.9 127.7 327.3C133.3 326.7 138.5 325 143.4 322.2C145.2 321.1 146.9 319.9 148.9 318.9L149 320.3C149.1 321.1 149.4 321.8 149.4 322.6C149.7 326.3 149.9 329.9 147.1 332.7Z" fill="#8479C9"/>
<path d="M98.2998 294.7C97.2998 294.9 97.2998 294.7 95.2998 295.3C92.5998 295.9 90.7998 296.6 89.3998 298.6C87.3998 301.4 87.2998 304.6 87.6998 307.9C88.1998 312.1 89.4998 316.2 88.6998 320.5C87.8998 320.3 87.0998 319.9 86.2998 319.6C84.6998 318.9 83.2998 317.7 81.4998 317.2C81.9998 313.2 81.4998 309.3 81.7998 305.3C82.0998 301.6 83.1998 298.2 86.0998 295.7C87.8998 294.1 90.0998 293.4 92.3998 293C92.7998 293.5 93.2998 293.3 93.7998 293.3C95.6998 293.2 97.0998 293.8 98.2998 294.7Z" fill="#E4DAEA"/>
<path d="M143.6 295.6C143.1 295.1 142.4 295.2 141.6 295.1C141 295.1 140 295.1 139.5 294.7C139.8 294.1 140.6 293.8 141.3 293.7C142.8 293.3 144.6 293 146.1 293.1C147.5 293.2 148.9 294 150.1 294.7C151.5 295.6 152.7 296.8 153.6 298.2C155.1 300.4 155.6 302.9 155.8 305.5C156 309.4 155.7 313.4 156.1 317.3C155.7 317.5 155.3 317.6 154.9 317.8C152.9 318.7 151.2 320.1 149 320.5C149 320 148.9 319.5 148.9 319.1C149 317.5 148.8 315.8 149.1 314.2C149.6 310.8 150.4 307.4 150.2 303.9C149.9 299.7 147.1 296.1 143.6 295.6Z" fill="#E4DAEA"/>
<path d="M92.2998 296.1C91.1998 296.7 90.1998 297.5 89.4998 298.6C87.4998 301.4 87.3998 304.6 87.7998 307.9C88.2998 312.1 89.5998 316.2 88.7998 320.5C88.6998 320.7 88.5998 320.9 88.5998 321.1C88.7998 321.2 88.9998 321.2 89.1998 321.3C96.2998 324.6 103.5 327 111.4 327.5C116.9 327.8 122.3 328 127.8 327.4C133.4 326.8 138.6 325.1 143.5 322.3C145.3 321.2 147 320 149 319C149.1 317.4 148.9 315.7 149.2 314.1C149.7 310.7 150.5 307.3 150.3 303.8C150.1 299.8 147.9 296.9 144.1 295.3C141.2 294.5 140.9 294.9 139.5 294.7C138.8 294.7 138.8 294.2 138.6 293.7C136 287.5 131.9 281.8 127.8 276.5C126.7 276.5 126.2 277.2 125.9 278.1C127.5 280.9 129.1 283.7 130.7 286.5C131.8 288.4 132.5 290.6 132.9 292.7C133.4 295 133.2 295.2 130.9 295.3C126 295.7 121.1 296.5 116.1 296.2C112.5 296 109 295.6 105.5 295.3C104.7 295.2 104.7 294.7 104.8 294.1C105.4 290 107.2 286.6 109.2 283C110.2 281.2 111.3 279.4 112.3 277.6C111.5 277.3 111.2 276.2 110.2 276.4C109.9 276.4 109.3 277.6 109.1 277.8C108.7 278.3 108.3 278.8 108 279.4C107.3 280.4 106.5 281.5 105.8 282.6C104.6 284.4 103.4 286.2 102.2 288.1C101 290 100.1 292 99.2998 294.1C99.0998 294.5 98.8998 294.7 98.3998 294.7C95.5998 294.7 92.2998 296.1 92.2998 296.1ZM105.4 295.9C106 296 106.6 296 107.3 296.1C106.6 296 106 295.9 105.4 295.9Z" fill="#ADA8D4"/>
<path d="M127.7 276.5C126.6 276.5 126.1 277.2 125.8 278.1C121.8 275.9 117.7 275.2 113.5 277.4C113.1 277.6 112.7 277.7 112.2 277.7C111.4 277.4 111.1 276.3 110.1 276.5C109.7 274.9 110.1 274 111.6 273.1C113.1 272.2 114.8 272 116.5 271.9C119.7 271.8 122.9 271.6 125.9 272.9C127.7 273.8 128.1 274.6 127.7 276.5Z" fill="#8479C9"/>
<path d="M123.5 306.8H114.1C113.3 306.8 112.7 306.2 112.7 305.4V302.4C112.7 301.5 113.4 300.8 114.3 300.8H123.6C124.4 300.8 125.1 301.5 125.1 302.3V305.2C125.1 306.1 124.4 306.8 123.5 306.8Z" fill="#8479C9"/>
</svg>
