<svg width="210" height="302" viewBox="0 0 210 302" fill="none" xmlns="http://www.w3.org/2000/svg">
<path d="M145.4 4.6416H8.59998V189.542H145.4V4.6416Z" fill="url(#paint0_radial)"/>
<mask id="mask0" mask-type="alpha" maskUnits="userSpaceOnUse" x="9" y="6" width="133" height="184">
<path d="M142 6H9V190H142V6Z" fill="url(#paint1_radial)"/>
</mask>
<g mask="url(#mask0)">
<path d="M121.4 50.5416C121.4 50.5416 115 49.5416 112 48.8416H112.1C112.1 48.0416 111.4 47.6416 110.5 47.3416C110.3 46.7416 109.9 46.2416 109.5 45.9416C108.7 45.4416 107.4 45.8416 106.9 46.3416C106.9 46.3416 106.8 43.9416 105.8 43.2416C104.8 42.5416 104.1 42.3416 103.3 42.4416C102.5 42.5416 101.2 43.2416 101.2 43.2416C101.2 43.2416 100.8 41.5416 99.5 40.6416C98.2 39.7416 97.4 40.2416 96.9 40.5416C96.4 40.8416 95.6 41.4416 95.6 41.4416C95.6 41.4416 92.6 37.1416 89.6 36.0416C86.6 34.9416 80.4 35.2416 78.1 36.8416C75.8 38.3416 74.6 39.3416 74.6 39.3416C74.6 39.3416 74.2 38.2416 73 37.8416C71.4 37.3416 70 39.6416 70 39.6416C70 39.6416 66.6 35.9416 64.7 35.4416C62.7999 34.9416 60.4 34.5416 57.8 36.1416C55.3 37.6416 55.4 41.8416 55.4 42.2416C55.2 42.2416 54.7 42.1416 53 41.9416C50 41.6416 48.4 47.4416 48.4 47.4416C46.4 48.1416 37.9 49.3416 37.9 49.3416C36.9 49.5416 28 50.5416 28 50.5416H39.3C42.1 51.1416 44.8 52.0416 48 51.9416C48 51.7416 48 51.5416 48.1 51.2416C49.6 54.1416 53.9 51.5416 56.2 51.7416C58.2 51.8416 60 52.7416 62.1 52.7416C63.8 52.7416 65.4 52.2416 67 52.2416C70.1 52.2416 73.3 53.1416 76.4 52.7416C78.1 52.5416 79.3 51.6416 80.8 51.6416C84 51.7416 87.2 52.5416 90.6 52.2416C92.3 52.1416 93.7 51.3416 95.1 50.5416H121.4Z" fill="#FC974C"/>
<path d="M176.2 79.7416C176.2 79.7416 170.4 79.1416 166.7 78.6416C165.7 78.1416 164.3 77.8416 162.9 77.7416C162.5 77.1416 162.4 76.2416 161.3 75.8416C159.8 75.2416 158.7 75.4416 158.2 75.6416C157.7 75.8416 157.4 71.4416 153.9 70.9416C150.4 70.4416 150.5 70.8416 148.2 70.9416C148.2 70.9416 147.1 67.7416 144.7 67.4416C142.4 67.2416 140.9 68.7416 140.6 68.8416C140.6 68.8416 140.3 67.1416 139.3 67.0416C138.3 66.9416 136.8 67.7416 136.8 67.7416C135.6 66.7416 135.8 66.6416 134.1 66.3416C132.4 66.0416 131.5 67.8416 131.5 67.8416C131.5 67.8416 131.1 67.5416 130.6 66.8416C130.1 66.2416 128.8 65.7416 127.4 65.5416C126 65.4416 125.4 66.8416 125.4 66.7416C125.4 66.6416 124.9 65.9416 124.2 64.8416C123.5 63.8416 120.9 63.2416 119.3 63.5416C117.7 63.8416 117.3 65.4416 117.3 65.4416C117.3 65.4416 115.8 64.2416 112.9 62.3416C110 60.4416 102.2 60.0416 98.4 61.3416C94.6 62.6416 90.8 68.1416 90.8 68.1416C90.8 68.1416 89.8 67.3416 89.2 66.9416C88.6 66.5416 87.5 65.9416 85.9 67.0416C84.3 68.1416 83.8 70.2416 83.8 70.2416C83.8 70.2416 82.1 69.3416 81.1 69.2416C80.1 69.1416 79.2 69.3416 77.9 70.2416C76.7 71.1416 76.6 74.1416 76.6 74.1416C76 73.5416 74.4 73.0416 73.3 73.6416C72.3 74.2416 71.5 76.9416 71.5 76.9416C68.5 77.8416 58.4 79.3416 58.4 79.3416H64.6C66.6 79.6416 68.6 80.0416 70.5 80.3416C72.7 80.6416 74.5 80.2416 76.5 80.1416C78.1 80.1416 79.3 80.6416 81.1 80.8416C84.7 81.2416 88.4 81.7416 92.1 81.5416C94.1 81.4416 95.4 80.6416 97.2 80.1416C98.7999 79.7416 99.5 80.1416 101.4 80.5416C104 81.0416 106.6 81.0416 109.3 81.0416C110.4 81.0416 111.6 81.1416 112.6 81.0416C113.4 80.9416 113.5 80.1416 114.5 80.1416C116.2 80.2416 117.6 82.7416 119.6 80.8416C120.9 81.9416 121.9 80.7416 123 80.6416C126.1 80.3416 129.5 81.5416 132.7 81.5416C135.4 81.5416 138 81.4416 140.6 80.8416C142.2 80.4416 144 79.4416 145.6 79.3416C147.7 79.2416 150.7 80.4416 153.2 80.5416C155.3 80.6416 157.3 80.5416 159.4 80.1416C161.1 79.8416 163.1 79.6416 164.8 79.3416H176.2V79.7416Z" fill="#FC974C"/>
</g>
<path d="M5.59998 0.641602V196.342H149.1V0.641602H5.59998ZM74.6 185.642H13.4V100.242H74.6V185.642ZM74.6 93.8416H13.4V8.5416H74.6V93.8416ZM142.5 185.642H81.3V100.242H142.5V185.642ZM142.5 93.8416H81.3V8.5416H142.5V93.8416Z" fill="#583F93"/>
<path d="M155.4 194.742H0V209.442H155.4V194.742Z" fill="#3E2884"/>
<path d="M178.6 231.3C178.4 231.5 178.2 231.7 178 231.9C171.5 231.6 165.1 231.4 158.6 231.7C154.9 231.9 151.2 232.2 147.3 232.4C153.8 226.9 168.6 226.4 178.6 231.3Z" fill="#3E2884"/>
<path d="M179.4 225.4C179.2 225.3 179.1 225.2 178.9 225.1C180.5 214.2 185.4 205.5 195.6 200.3C194.7 201.6 193.8 203 192.8 204.3C187.8 210.9 183.4 217.8 179.6 225.2C179.6 225.3 179.5 225.3 179.4 225.4Z" fill="#3E2884"/>
<path d="M175 220.9C175.3 221.3 175.5 221.7 175.5 222.2C170.6 221.2 165.7 220.5 160.8 220C155.9 219.5 150.9 219.3 145.9 218.9C147.1 218.4 148.2 217.9 149.4 217.5C155.3 215.7 161.3 216.1 167.1 217.9C169.3 218.6 171.4 219.8 173.6 220.7C174 220.9 174.5 221.7 175 220.9Z" fill="#3E2884"/>
<path d="M166.3 203.2C167 203.8 167.6 204.3 166.3 204.8C163.2 203.5 160.1 202.1 157 200.8C151.9 198.6 146.7 196.8 141.4 195.1C140.7 194.9 140.1 194.7 139 194.3C145.8 193.4 151.7 194.8 157.4 197.6C160.3 199 162.9 200.7 165.2 202.9C165.6 203.2 165.8 203.6 166.3 203.2Z" fill="#3E2884"/>
<path d="M173.8 214.6C173.7 214.5 173.6 214.3 173.5 214.2C173.6 203.9 177.2 195.2 185.7 189C185.8 189.1 186 189.1 186.1 189.2C184.7 191.6 183.4 194.1 182 196.5C178.8 202.4 176.1 208.4 173.8 214.6Z" fill="#3E2884"/>
<path d="M170.3 211.4C170.9 211.8 171.2 212.4 170.6 213C165.8 211 161 208.9 156.1 207.3C152.1 206 148.1 204.8 143.9 203.4C147.8 202.7 151.3 202.9 154.9 203.7C160.1 204.9 164.8 207.1 168.9 210.6C169.2 211 169.5 211.8 170.3 211.4Z" fill="#3E2884"/>
<path d="M165 196.4C164 196.5 163.7 195.8 163.7 195C164.2 194.5 163.8 194 163.7 193.5C163.2 186.6 164.6 180.1 168.5 174.2C168.8 173.8 169 173.4 169.6 173.2C170 173.7 169.7 174.2 169.6 174.7C167.7 181.6 166.1 188.6 165.2 195.8C165.2 196 165 196.2 165 196.4Z" fill="#3E2884"/>
<path d="M158.6 188.5C159 188.8 159.9 189 159 189.8C153.4 186.4 147.7 183.2 141.6 180.5C141.2 180.3 140.8 180.2 140.5 179.9C148 180 153.9 183.1 158.6 188.5Z" fill="#3E2884"/>
<path d="M175.9 176.4C176 176.3 176 176.2 176.1 176.2C176.3 176.4 176.2 176.5 176 176.6C176.1 176.5 175.9 176.4 175.9 176.4Z" fill="#3E2884"/>
<path d="M182.4 184C182.5 184 182.7 183.9 182.8 183.9C182.9 184.1 182.8 184.1 182.6 184.2C182.5 184.2 182.5 184.1 182.4 184Z" fill="#3E2884"/>
<path d="M158.7 166.6C156.9 169.5 156.5 172.7 156.2 176.4C156.2 176.1 155.7 175.3 155.5 174.9C155.2 174.3 154.9 173.8 154.6 173.2C154 172.1 153.3 171.1 152.5 170.1C150.9 168.1 149 166.3 146.8 165C147 165.3 147 165.8 147.3 166.2C147.6 166.7 148 167.2 148.3 167.8C149.8 170.1 151.2 172.5 152.7 174.8C153 175.2 155.3 178.8 154.8 179.1C154.7 179.2 154.6 179.2 154.6 179.3C154.6 179.3 154.5 179.3 154.5 179.2C152.4 176.7 149.8 174.7 146.8 173.3C146.3 173.1 145.7 172.6 144.7 173.2C149.1 176.7 152.9 180.6 156.8 184.4C157.6 185.7 158.7 186.9 158.8 188.6C159.2 188.9 160.1 189.1 159.2 189.9C161.3 191.9 162 194.7 163.1 197.3C160.1 194.1 156.8 191.4 153 189.4C148.6 187.1 143.4 185.9 140.5 186.5C147.5 189.7 154.2 193.1 160.7 197.1C163.3 198.7 165.4 200.5 166.5 203.4C167.2 204 167.8 204.5 166.5 205C167 205.5 167.8 205.7 168 206.4C168.4 208.3 169.9 209.7 170.6 211.5C171.2 211.9 171.5 212.5 170.9 213.1C172 213.9 172.3 215 172.7 216.7C168.3 213.6 164 211.5 159.1 210.5C154.3 209.5 147.1 210 144.8 211.8C145.4 211.9 145.8 211.9 146.3 212C154 212.9 161.6 214.3 169.1 216.2C172 216.9 174.4 218 175.3 221.1C175.6 221.5 175.8 221.9 175.8 222.4C176.4 223.5 177.1 224.6 177.6 226.2C166.9 222 156.6 221.5 146.8 227.8C147 227.9 147.1 228 147.2 227.9C156.9 226.8 166.6 226 176.3 226.6C176.9 226.6 177.7 226.3 178.1 227C178.9 228.5 179.7 230.1 180.6 232C179.7 231.7 179.2 231.6 178.8 231.5C178.6 231.7 178.4 231.9 178.2 232.1C180.7 231.9 181.6 233.5 182.4 235.5C184.2 239.4 186.2 243.2 188.1 247.1C188.3 247.6 188.5 248.1 189.2 247.8C189.9 247.5 189.5 247 189.3 246.5C189.2 246.2 189 245.9 188.9 245.6C186.8 241.4 184.8 237.2 182.7 233C182.2 232 182.3 231.3 182.9 230.5C183.9 229.3 185 228.1 185.8 226.8C188.6 222.4 192.1 218.6 195.5 214.8C198.1 211.9 200.9 209.1 203.5 206.3C191.5 210.3 185.4 219.5 181.8 231C181.2 229 179.3 227.7 179.7 225.5C179.5 225.4 179.4 225.3 179.2 225.2C177.4 223.3 176.8 221.3 177.9 218.6C181.3 210.2 185.3 202.2 189.8 194.3C185.2 196.9 182.2 200.9 180 205.6C177.7 210.3 177.1 215.3 176.6 220.4C175.7 218.5 174.3 216.9 174.1 214.8C174 214.7 173.9 214.5 173.8 214.4C172.4 212.7 171.4 211 172.3 208.6C173.6 205.4 174.7 202.2 176 199C178 194 180.6 189.3 182.9 184.4C182.8 184.3 182.8 184.3 182.7 184.2C177.6 187.6 174.8 192.7 172.8 198.4C171.6 201.9 171.4 205.5 171.2 209.2C169.4 206.7 169.3 206.2 169.7 203.6C170.4 199.4 171.3 195.3 172.3 191.1C173.5 186.2 175 181.4 176.4 176.6L176.3 176.5C174.2 178.3 172.9 180.6 171.8 183.1C169 189 167.8 195.3 168.5 201.8C168.6 202.4 168.6 203 168.6 203.6C167.3 201.3 165.5 199.3 165.3 196.6C164.3 196.7 164 196 164 195.2C163.5 194 163.1 192.8 162.4 191.7C161.6 190.4 161.2 189.3 161.4 187.7C162.1 182.4 163.4 177.2 164.5 172C164.9 170.9 165.3 169.8 165.4 168.3C164.5 169.3 163.9 170.1 163.5 171C160.5 175.7 160 180.9 159.9 186.3C157.9 179.7 158.7 173.1 158.7 166.6Z" fill="#3E2884"/>
<path d="M203.4 235.2C198.7 232.2 196.4 227.4 194.5 222.5C191.2 213.8 189.7 204.6 188.8 195.3C188.8 194.9 188.9 194.5 188.9 194.1C192.2 203.3 195.6 212.5 199.3 221.6C200.9 225.6 203 229.4 203.6 233.7C203.6 234.2 203.5 234.7 203.4 235.2Z" fill="#2F1A70"/>
<path d="M205.5 234.2C206.9 232.5 208.6 231.2 210.5 230.1C219.1 225.2 227.6 219.9 235.7 214.3C236.4 213.8 237.1 213.3 238.1 213.4C238.3 214.9 237 215.4 236.2 216.1C229.5 223.1 222.2 229.5 213.4 233.8C211 234.9 208.5 235.8 205.8 235.8C205.6 235.3 205.1 234.8 205.5 234.2Z" fill="#2F1A70"/>
<path d="M208.9 217.6C218.6 210.8 229.3 205.8 239.1 199.1C238.5 200.7 237.3 201.6 236.2 202.6C230.4 208.1 224.3 213.5 216.9 216.8C214.3 218 211.6 218.8 208.6 218.5C208.7 218.3 208.8 218 208.9 217.6Z" fill="#2F1A70"/>
<path d="M207.4 217.7C204.4 215.3 203.3 211.8 202.3 208.4C200.2 201.1 199.8 193.6 199.8 186.1C199.8 185.2 198.9 183.8 200.3 183.4C200.7 183.3 200.8 185.1 201 186C203 194.4 204.7 202.9 207.2 211.2C207.7 212.8 207.4 214.6 208.2 216.1C208.6 216.9 207.5 217.1 207.4 217.7Z" fill="#2F1A70"/>
<path d="M206.1 227.1C213.4 221.5 221.7 217.5 229.3 212.4C231.2 211.1 233.3 209.9 235.3 208.6C235.6 209.5 235 209.8 234.7 210.1C229.4 215.6 223.7 220.7 217.1 224.5C213.7 226.4 210.1 227.9 206.1 227.7C206 227.5 206 227.3 206.1 227.1Z" fill="#2F1A70"/>
<path d="M204.9 226.7C200.7 223.1 199 218.1 197.7 213C196 206.4 195.2 199.6 195.1 192.6C195.9 193.1 195.9 193.8 196 194.4C198.4 203.2 201.1 211.9 204.3 220.4C204.8 221.9 204.6 223.5 205.5 224.9C205.5 225.6 205.1 226.1 204.9 226.7Z" fill="#2F1A70"/>
<path d="M204.9 226.7C205.1 226.1 205.6 225.5 205.5 224.8C206.1 222.4 206.8 220 207.4 217.7C207.6 217.1 208.6 216.9 208.2 216.1C209 214.1 209.8 212 210.6 210C211.8 209.4 211.2 208 211.7 207.1C213.2 205.8 213.8 203.9 214.7 202.2C215.1 201.8 215.7 201.5 215.8 200.8C216.7 199.4 217.5 197.9 218.4 196.5C218.8 196 219.1 195.4 219.5 194.9C220.6 193.2 221.7 191.5 222.8 189.8C222.9 189.5 223 189.3 223.1 189C224.7 187.7 226.1 186.2 226.6 184.2C228.1 184.1 228.6 182.7 229.4 181.8C229.6 181.4 229.9 181 230.4 180.9C231.1 181.6 229.7 181.9 230 182.5C229.5 183.5 228.2 183.9 228.1 185.2C226.1 186.4 225.1 188.4 223.9 190.3C223.2 190.9 222.5 191.4 222.3 192.3C220.6 194.6 219 196.8 217.7 199.3C217.3 200.5 215.8 201.1 216.1 202.6C214.3 204.3 213.8 206.8 212.4 208.8C212.1 209.5 211.8 210.3 211.5 211C210.6 213.2 209.7 215.5 208.8 217.7C208.7 218 208.6 218.3 208.5 218.6C207.3 221.3 206.7 224.3 206 227.1C206 227.3 205.9 227.5 205.9 227.7C205.8 229.9 204.6 231.9 205.4 234.2C205.1 234.8 205.5 235.2 205.7 235.7C204.5 235.9 204.8 236.9 204.7 237.6C204.6 241.7 204.9 245.8 205.7 249.8C205.8 250.1 205.9 250.5 205.9 250.8C206 251.4 206 251.9 205.3 252.1C204.6 252.2 204.6 251.6 204.5 251.2C204.2 249.9 204 248.7 203.8 247.4C203.1 243.3 203.4 239.3 203.3 235.2C203.4 234.7 203.5 234.2 203.5 233.7C204 231.4 204.5 229 204.9 226.7Z" fill="#2F1A70"/>
<path d="M211.7 207C211.2 207.9 211.8 209.3 210.6 209.9C208.9 208.2 208.2 206 207.5 203.8C205.5 196.7 206 189.6 206.4 182.4C206.5 180.6 206.7 178.8 207.2 176.7C207.8 178.9 207.7 180.9 208 182.9C208.9 190 209.9 197 210.9 204.1C211 205.1 210.4 206.3 211.7 207Z" fill="#2F1A70"/>
<path d="M189 194.1L188.9 194C188.9 194 188.9 194.1 189 194.1Z" fill="#2F1A70"/>
<path d="M190 222.1C199.9 219.4 209.6 215.5 218.6 210.5C222.3 208.5 226 206.2 229 203.2C215.2 207.3 202.1 213.4 190 221.3C189.3 220.6 189.5 219.4 190.1 218.6C190.7 217.8 191.6 217.3 192.5 216.8C203.9 210.5 214.5 203 224.2 194.3C226.4 192.3 228.6 190.2 230.2 187.7C229.7 188 229.3 188.2 228.8 188.5C214.8 196.6 201.8 206.3 190 217.3C190 216.3 189.9 215.4 189.9 214.4C189.9 213.3 189.6 212.8 190.4 212.1C191.7 210.9 193.3 209.9 194.7 208.8C197.5 206.5 200.3 204.2 203 201.8C208.4 196.9 213.4 191.7 218 186.2C218.4 185.7 220.3 184 220.3 183.3C221.4 181.9 223 180.3 223.8 178.7C223.9 178.4 222.6 178.9 222.5 178.9C221.8 179.2 221.2 179.8 220.6 180.3C218.3 182 216.3 183.7 214.1 185.6C211.6 187.8 209.1 190.1 206.7 192.5C201.9 197.3 197.4 202.4 193 207.6C192.8 207.9 192.7 208.1 192.7 208.4C191.4 208.9 191 210.6 189.7 211.1C189.7 209.8 189.7 208.5 189.7 207.2C189.7 206.1 189.5 205.1 190.5 204.3C190.5 204 190.5 203.8 190.5 203.5C190.5 203.7 190.5 204 190.5 204.2C191.2 204.3 192.9 202.4 193.5 201.9C201.3 195.4 207.8 187 213.8 178.9C215.6 176.5 218.5 174 218.8 170.9C218.8 171.3 216.7 172.7 216.3 173.1C214.9 174.4 213.3 175.5 211.9 176.9C210.7 178.1 209.6 179.4 208.4 180.6C206.3 182.8 204.2 185.1 202.2 187.4C200.1 189.9 197.8 192.5 195.7 195.2C195.1 195.9 190.6 203.5 190.3 203.4C190.1 203.3 189.7 203.3 189.7 203.2C189.9 200.3 188.4 197 191.2 194.6C192 194.5 192.4 193.8 192.9 193.3C198.2 187.8 202.7 181.7 206.8 175.3C207.9 173.6 209.1 171.8 210 169.9C210.4 169.1 211.3 167.8 211.2 166.9C211.1 165.2 207.4 169.6 207.1 170C205.2 172.2 203.4 174.4 201.6 176.6C198.1 181.1 194.9 185.8 192.1 190.7C191.4 192 190.6 193.2 189.9 194.4C189.8 194.3 189.6 194.3 189.5 194.2C189.8 192 188.8 189.7 190.4 187.7C191 187.7 191.3 187.2 191.6 186.9C194.5 183.2 197.3 179.4 199.7 175.4C200.9 173.4 202.1 171.4 203.1 169.3C204.4 166.7 205.5 164.2 206.4 161.4C206.5 161.1 206.6 160.8 206.5 160.5C205.8 160.5 205.4 161.2 205 161.7C199.9 167.9 195.6 174.5 192 181.7C191.2 183.3 190.7 185 189.4 186.4C189.2 183.8 189.2 181.3 189.2 178.7C189.2 176.9 190.6 175.3 191.9 174.2C193 173.4 193.7 172.2 194.5 171.1C194.9 170.5 195.8 169.7 195.8 168.9C196.4 168 196.9 167.1 197.4 166.2C197.8 165.5 198.8 164.1 198.8 163.4C199.6 161.7 200.7 160 200.7 158C200.6 157.6 200.5 157.1 200.1 157.6C198.8 159.3 197.3 160.9 196.2 162.7C194.8 164.9 193.5 167.1 192.2 169.3C191.8 169.9 191.4 170.5 191.2 171.2C191 171.7 190.5 174.1 189.6 173.9C189.3 173.8 189.3 173.6 189.3 173.3C189.5 171.7 188.7 170.1 189.6 168.6C190.2 168.6 190.6 168.1 190.9 167.6C193.2 164.4 195.1 161.1 196.4 157.4C197 155.8 197.3 154.3 197.3 152.6C196 153.7 195 155.1 194.1 156.5C192.8 158.6 191.3 160.9 190.5 163.3C190.2 164.2 190 165 189.2 165.6C189.2 164.6 189.1 163.6 189.1 162.6C189.1 162.4 189.1 162.2 189.1 162.1C189.1 161.9 189.2 161.8 189.3 161.6C190.7 158.6 190.4 154.1 190 150.9C189.8 149.5 189.9 147.9 188.9 146.7C188.9 146.5 188.8 146.3 188.8 146.2C188.5 145.7 188.5 146.1 188.4 146.3C188 147.8 187.5 149.3 187.6 150.8C186.8 155.4 187.5 159.9 188.4 164.4C188.4 164.8 188.4 165.2 188.3 165.6C188.3 166 186.9 164 186.8 163.8C185.1 159.9 183.4 155.7 180 153C180.8 158.2 182.9 162.9 186 167C186.4 167.6 186.6 168.4 187.6 168.4C188.4 170.4 187.8 172.4 187.5 174.4C187.7 172.9 186.6 171.9 185.8 170.9C184.1 168.4 183.2 165.5 181.5 163.1C180.7 161.9 179.8 160.8 178.9 159.8C178.3 159.2 176.3 157.8 176.1 157.1C177.1 161 178.9 164.7 181 168.2C182 169.9 183.1 171.6 184.3 173.2C184.8 173.9 185.4 174.6 185.9 175.3C186.3 175.8 187.9 177.3 187.9 177.9C187.9 180.6 187.9 183.4 187.8 186.1C187.6 186.1 187.4 186.1 187.1 186.1C186.8 186.1 184.3 180 183.9 179.3C182.8 177.1 181.5 175 180.2 172.9C178 168.8 174.9 165.6 172.3 161.8C171.9 161.3 171.5 160.7 170.8 160.5C170.7 160.7 170.7 160.9 170.8 161.1C173.4 168.8 177.6 175.5 182.2 182.1C183 183.3 183.8 184.2 184.8 185.3C185.9 186.4 187 187.8 187.4 189.3C187.7 190.1 187.8 191 187.8 191.8C187.8 192.3 187.2 194.2 187.3 194.5C187 194 186.8 193.6 186.5 193.1C184.3 189.3 181.9 185.7 179.4 182.1C177.9 180 176.6 177.7 175 175.7C173 173.2 170.7 170.8 168.6 168.5C168.3 168.2 165.5 165.6 165.6 165.4C165.5 165.8 165.4 165.9 165.4 166C165.7 166.7 166 167.5 166.4 168.2C169.9 174.9 174.2 181.2 179 187.1C181.2 189.8 183.3 192.8 186.3 194.7C187.3 195.6 187.7 196.6 187.6 198C187.5 199.7 187.6 201.3 187.6 203C187.2 202.9 186.9 202.7 186.5 202.6C186 201.4 185.1 200.4 184.4 199.3C180.8 194.2 176.9 189.5 172.7 184.9C170.6 182.6 168.4 180.3 166.2 178.1C165.1 177 164 175.9 162.9 174.8C162.4 174.3 160.2 172.7 160.2 171.9C160 171.7 158.7 171 158.7 170.9C158.7 172.1 159.3 172.7 159.7 173.4C166.1 183.1 173.5 191.9 181.8 200C183.4 201.6 184.9 203.4 187.1 204.4C187.2 204.5 187.3 204.6 187.4 204.8C187.8 205.2 187.6 207.3 187.6 207.9C187.6 208.6 187.8 209.5 187.6 210.2C187.5 210.5 187.2 211.3 186.7 211C186.6 210.9 186.5 210.8 186.4 210.7C185.8 209.7 185.2 208.5 184.4 207.7C183.3 206.3 182.1 204.9 180.9 203.5C178.6 200.8 176.1 198.1 173.6 195.5C168.6 190.3 163.2 185.4 157.6 180.9C156.2 179.8 154.9 178.8 153.5 177.7C154.2 179.9 155.7 181.7 157.1 183.4C159.8 186.6 162.6 189.7 165.5 192.8C169.8 197.4 174.3 201.9 179.2 205.8C182 208 190.3 212.6 187.1 217.2C175.7 206.1 162.8 196.4 148.9 188.6C148.4 188.3 147.7 188.2 147.6 188.7C158.7 199.8 171.4 209.4 185.2 216.9C186 217.3 186.8 217.8 187.3 218.5C187.8 219.2 187.9 220.4 187.2 221C175.2 213.1 162.1 207.1 148.3 203.1C150.8 205.9 154.1 207.8 157.4 209.7C165.7 214.2 174.3 218.5 183.5 220.8C184.6 221.1 185.8 221.3 186.7 222.1C187.6 222.8 188 224.2 187.4 225.2C176.5 221.9 165 220.7 153.7 221.6C164.5 225.3 176 226.7 187.4 225.7C188.2 226.4 187.9 227.9 187 228.5C186.1 229.2 185 229.2 183.9 229.3C176.5 229.8 168.9 231.2 162.8 235.3C171.4 235.5 180 233.5 187.6 229.6C187.6 234.5 187.7 239.5 187.7 244.4C187.7 244.9 187.8 245.6 188.3 245.7C189 245.8 189.2 244.9 189.2 244.2C189.2 239.3 189.2 234.4 189.1 229.5C189.4 229.5 189.7 229.6 190 229.6C190.1 230 190.4 230.2 190.8 230.3C195.5 232.6 200.6 233.8 205.8 234.7C208.4 235.1 211.1 235.5 214 234.9C213.5 235 211.1 233.3 210.5 233.1C209.2 232.5 207.8 232.1 206.4 231.7C205.6 231.4 204.8 231.2 204 230.9C199.3 229.5 194.3 229.2 189.4 228.9C189.3 228.9 189.2 228.9 189.2 228.8C189.2 228.3 189.2 227.9 189.2 227.4C189.2 226.7 189.3 225.8 190 225.5C190.2 225.4 190.5 225.4 190.8 225.5C201.8 226.4 213.1 224.9 223.5 221.2C213.2 219.7 202.7 221.6 192.5 224.1C191.6 224.3 190.6 224.5 189.8 224.1C189.6 223.9 189.2 222.5 190 222.1Z" fill="#180B4F"/>
<path d="M159.5 239.8H219.4L201.5 302H179.9L159.5 239.8Z" fill="#F0E8F5"/>
<defs>
<radialGradient id="paint0_radial" cx="0" cy="0" r="1" gradientUnits="userSpaceOnUse" gradientTransform="translate(49.5483 129.341) scale(159.891)">
<stop stop-color="white"/>
<stop offset="1" stop-color="#FF9933"/>
</radialGradient>
<radialGradient id="paint1_radial" cx="0" cy="0" r="1" gradientUnits="userSpaceOnUse" gradientTransform="translate(48.8108 130.092) scale(155.449 159.113)">
<stop stop-color="white"/>
<stop offset="1" stop-color="#FF9933"/>
</radialGradient>
</defs>
</svg>
