<svg fill="none" height="24" viewBox="0 0 25 24" width="25" xmlns="http://www.w3.org/2000/svg" xmlns:xlink="http://www.w3.org/1999/xlink"><clipPath id="a"><path d="m.5-.000488h24v24h-24z"/></clipPath><clipPath id="b"><path d="m.5-.000488h24v24h-24z"/></clipPath><g clip-path="url(#a)"><g clip-path="url(#b)"><path d="m11.18 11.8315c-.3125 0-.623.0465-.9216.1392-.72181.2183-1.34095.6891-1.74415 1.3263-.40321.6373-.56354 1.3984-.45168 2.1442.11187.7457.48845 1.4263 1.06089 1.9172.57243.491 1.30244.7594 2.05654.7563.3139-.0016.6259-.0484.9264-.1392.7159-.2244 1.3279-.6974 1.7255-1.3335.3976-.6362.5547-1.3935.4429-2.1353-.1119-.7418-.4853-1.4192-1.0528-1.9098-.5676-.4906-1.2918-.7621-2.042-.7654z" fill="#f2f3f5"/><path d="m10.3158 13.1851c.0954.3004.1306.6167.1038.9308-.0269.314-.1153.6197-.2603.8996-.145.2798-.34371.5284-.58476.7315-.24106.2031-.51976.3567-.82018.452-.30042.0954-.61669.1307-.93074.1038-.31405-.0268-.61974-.1153-.8996-.2603-.27987-.145-.52844-.3437-.73152-.5847-.20308-.2411-.35669-.5198-.45206-.8202-.19261-.6067-.13631-1.2651.15652-1.8303.29282-.5653.79819-.991 1.40492-1.1836s1.26513-.1363 1.83035.1565.99097.7982 1.18357 1.4049z" fill="#006adc"/><path d="m17.1128 20.7115c.0937.296.1279.6076.1007.9169-.0273.3093-.1156.6101-.2597.8851s-.3413.5187-.58.7172c-.2388.1984-.5146.3476-.8113.4389-.2967.0914-.6086.123-.9177.0932-.309-.0298-.6091-.1204-.8829-.2668-.2738-.1463-.516-.3455-.7125-.5859-.1964-.2404-.3434-.5173-.4323-.8148-.1777-.5944-.1133-1.2351.1792-1.7823.2924-.5472.7893-.9567 1.3823-1.1392s1.2342-.1234 1.7837.1647c.5496.288.9631.7815 1.1505 1.373z" fill="#ffad1d"/><path d="m2.57354 17.2363c-.21306-.0002-.42408.0415-.62101.1228-.19694.0813-.37593.2006-.52676.3511-.30462.3039-.476041.7163-.47655 1.1466s.16993.8432.47383 1.1478.71636.476 1.14665.4765.84315-.1699 1.14777-.4738.47604-.7164.47655-1.1467c.00051-.4302-.16993-.8431-.47383-1.1477s-.71636-.4761-1.14665-.4766z" fill="#5b12eb"/><path d="m17.5591 14.3323c-.1725.0005-.3428.0381-.4995.1104-.1566.0723-.2958.1774-.4081.3084-.1123.1309-.1951.2845-.2427.4503-.0475.1658-.0588.3399-.033.5105.0258.1705.0881.3335.1826.4778s.219.2666.365.3584c.146.0919.3101.1511.4811.1738s.3449.0082.5098-.0424c.2751-.0844.5106-.2648.6638-.5083s.2137-.534.1707-.8184c-.0431-.2845-.1869-.544-.4052-.7313-.2184-.1873-.4968-.2899-.7845-.2892z" fill="#fe5455"/><path d="m4.66619 5.03473c-.70781.00108-1.3862.2833-1.88593.78456-.49974.50126-.77987 1.18051-.77879 1.88832s.28329 1.3862.78456 1.88593c.50126.49976 1.18051.77986 1.88832.77876.70781-.001 1.3862-.2833 1.88593-.78453.49973-.50126.77987-1.18051.77879-1.88832s-.2833-1.3862-.78456-1.88593-1.18051-.77987-1.88832-.77879z" fill="#b3b4c3"/><path d="m15.38.378683c-1.3226-.003819-2.5927.517954-3.5307 1.450537-.9379.93258-1.467 2.19957-1.4709 3.52226-.0038 1.32269.518 2.59272 1.4506 3.5307.9326.93799 2.1996 1.46712 3.5222 1.47092 1.3227.0038 2.5928-.51797 3.5307-1.45055.938-.93258 1.4671-2.19958 1.4709-3.52227.0039-1.32268-.5179-2.59272-1.4505-3.5307s-2.1996-1.467078-3.5223-1.470897z" fill="#e6e6eb"/><path d="m20.2423 3.18671c-.2704.00031-.5381.05389-.7878.15766-.2497.10378-.4765.25572-.6675.44716-.3857.38663-.6021.91064-.6015 1.45678.0007.54613.2182 1.06964.6049 1.45537.3866.38572.9106.60207 1.4567.60143.2705-.00032.5382-.05389.7879-.15767.2497-.10377.4765-.25572.6675-.44715.191-.19144.3424-.41862.4456-.66858.1032-.24995.1562-.51778.1558-.7882-.0003-.27042-.0538-.53813-.1576-.78784s-.2557-.47654-.4472-.66753c-.1914-.19099-.4186-.34241-.6685-.4456-.25-.1032-.5178-.15615-.7883-.15583z" fill="#18a47d"/></g></g></svg>