<svg fill="none" height="24" viewBox="0 0 25 24" width="25" xmlns="http://www.w3.org/2000/svg" xmlns:xlink="http://www.w3.org/1999/xlink"><clipPath id="a"><path d="m4.22607 3.86206h16.1726v16.5h-16.1726z"/></clipPath><g clip-path="url(#a)"><path d="m20.3987 12.3015c0-.5608-.0454-1.1247-.1424-1.6764h-7.7817v3.1769h4.4562c-.1849 1.0247-.7791 1.9311-1.6491 2.507v2.0614h2.6586c1.5611-1.4369 2.4584-3.5589 2.4584-6.0689z" fill="#4285f4"/><path d="m12.4745 20.362c2.225 0 4.1015-.7305 5.4686-1.9916l-2.6585-2.0614c-.7397.5033-1.6946.7882-2.8071.7882-2.1523 0-3.97723-1.452-4.63202-3.4043h-2.74343v2.1251c1.40052 2.7858 4.25308 4.544 7.37245 4.544z" fill="#34a853"/><path d="m7.84261 13.6929c-.34559-1.0246-.34559-2.1341 0-3.1587v-2.12502h-2.74041c-1.17012 2.33112-1.17012 5.07762 0 7.40882z" fill="#fbbc04"/><path d="m12.4745 7.1269c1.1761-.01819 2.3129.4244 3.1648 1.23682l2.3554-2.35541c-1.4915-1.40051-3.471-2.17049-5.5202-2.14624-3.11937 0-5.97193 1.75822-7.37245 4.54712l2.7404 2.12501c.65176-1.95525 2.47975-3.4073 4.63205-3.4073z" fill="#ea4335"/></g></svg>