<svg width="452" height="354" viewBox="0 0 452 354" fill="none" xmlns="http://www.w3.org/2000/svg">
<path d="M311.485 342.325H208.441L215.208 300.294H304.713L311.485 342.325Z" fill="#187F73"/>
<path d="M325.537 346.995H194.391V354H325.537V346.995Z" fill="#187F73"/>
<path d="M194.391 346.995L208.442 342.325H311.486L325.537 346.995H194.391Z" fill="#27A8A5"/>
<path d="M70.269 265.269V291.35C70.269 296.268 74.2732 300.294 79.1654 300.294H443.104C447.996 300.294 452 296.268 452 291.35V265.269H70.269Z" fill="#27A8A5"/>
<path d="M452 269.939V43.2013C452 38.1962 447.996 34.0996 443.104 34.0996H79.1655C74.2733 34.0996 70.269 38.1962 70.269 43.2013V269.939H452Z" fill="#187F73"/>
<path d="M259.964 288.619C263.844 288.619 266.989 285.483 266.989 281.614C266.989 277.745 263.844 274.609 259.964 274.609C256.084 274.609 252.938 277.745 252.938 281.614C252.938 285.483 256.084 288.619 259.964 288.619Z" fill="#187F73"/>
<mask id="mask0" mask-type="alpha" maskUnits="userSpaceOnUse" x="83" y="44" width="356" height="215">
<rect x="83.4321" y="44.2451" width="355.405" height="214.262" fill="#C4C4C4"/>
</mask>
<g mask="url(#mask0)">
<path d="M438.759 66.9121H82.8335V168.421H438.759V66.9121Z" fill="#EDFDF9"/>
<path d="M438.759 168.421H82.8335V271.638H438.759V168.421Z" fill="#A5F9E8"/>
<path d="M433.133 99.1861C433.133 99.1861 428.416 98.7125 425.364 98.366C424.566 97.9963 423.387 97.7999 422.277 97.6729C421.93 97.2454 421.849 96.5985 420.97 96.2982C419.721 95.8823 418.877 96.021 418.45 96.1249C418.022 96.2289 417.791 93.0406 414.958 92.6941C412.125 92.3475 412.16 92.6248 410.333 92.6594C410.333 92.6594 409.397 90.2798 407.501 90.1065C405.604 89.9332 404.39 91.0884 404.159 91.1577C404.159 91.1577 403.882 89.9332 403.072 89.8639C402.252 89.7946 401.049 90.3837 401.049 90.3837C400.043 89.6791 400.228 89.5751 398.875 89.3325C397.511 89.0899 396.783 90.453 396.783 90.453C396.783 90.453 396.471 90.2104 396.043 89.7484C395.615 89.2979 394.563 88.9051 393.441 88.8011C392.32 88.6972 391.811 89.783 391.765 89.6791C391.73 89.5751 391.337 89.0784 390.759 88.316C390.181 87.542 388.077 87.1261 386.759 87.3687C385.441 87.6113 385.094 88.8011 385.094 88.8011C385.094 88.8011 383.845 87.8886 381.521 86.4908C379.186 85.093 372.746 84.8158 369.67 85.7861C366.606 86.768 363.496 90.788 363.496 90.788C363.496 90.788 362.641 90.1873 362.178 89.9101C361.716 89.6329 360.814 89.1361 359.496 89.9794C358.178 90.8227 357.785 92.3591 357.785 92.3591C357.785 92.3591 356.386 91.6891 355.565 91.6198C354.744 91.5504 353.969 91.7237 352.963 92.3937C351.958 93.0637 351.877 95.3048 351.877 95.3048C351.414 94.8542 350.05 94.4615 349.194 94.9235C348.339 95.3741 347.726 97.3841 347.726 97.3841C345.275 98.0194 336.997 99.1746 336.997 99.1746H342.026C343.622 99.4056 345.263 99.6598 346.893 99.8792C348.651 100.122 350.154 99.7753 351.83 99.7637C353.102 99.7522 354.143 100.133 355.623 100.272C358.583 100.561 361.623 100.93 364.618 100.803C366.26 100.734 367.3 100.11 368.768 99.7984C370.098 99.5211 370.653 99.7984 372.237 100.099C374.353 100.503 376.503 100.457 378.677 100.457C379.579 100.457 380.527 100.538 381.417 100.422C382.041 100.341 382.169 99.7522 382.932 99.7868C384.331 99.833 385.452 101.704 387.071 100.272C388.169 101.104 388.955 100.214 389.88 100.145C392.436 99.9485 395.199 100.792 397.812 100.815C400.055 100.838 402.113 100.769 404.275 100.33C405.57 100.064 407.084 99.3016 408.379 99.2323C410.125 99.1284 412.588 100.064 414.576 100.122C416.299 100.168 417.941 100.087 419.641 99.8099C421.074 99.5789 422.635 99.4634 424.069 99.1977H433.133V99.1861Z" fill="#EDEBEB"/>
<path d="M175.546 98.931C175.546 98.931 168.263 97.9209 166.108 97.3667C166.108 97.3667 165.561 95.6058 164.815 95.2036C164.061 94.8013 162.867 95.141 162.454 95.5432C162.454 95.5432 162.382 93.5767 161.493 92.9957C160.604 92.4147 159.922 92.2628 159.203 92.3164C158.485 92.379 157.255 92.96 157.255 92.96C157.255 92.96 156.913 91.6102 155.746 90.8683C154.588 90.1354 153.798 90.5644 153.385 90.8058C152.972 91.0471 152.226 91.5745 152.226 91.5745C152.226 91.5745 149.488 88.0437 146.785 87.1856C144.082 86.3275 138.407 86.5689 136.36 87.8024C134.312 89.027 133.217 89.8315 133.217 89.8315C133.217 89.8315 132.912 88.7856 131.744 88.5711C130.586 88.3566 128.736 88.7231 128.224 89.4024C127.713 90.0817 127.371 90.5108 127.335 90.6002C127.3 90.6896 126.86 89.7421 125.863 89.8315C124.875 89.9208 123.95 90.2605 123.573 90.6627C123.196 91.065 122.927 91.2795 122.927 91.2795C122.927 91.2795 122.28 90.0817 121.077 90.2963C119.883 90.5108 120.053 90.6002 119.164 91.2169C119.164 91.2169 118.105 90.6985 117.386 90.7521C116.668 90.8147 116.426 91.8873 116.426 91.8873C116.219 91.8248 115.159 90.8147 113.489 90.9667C111.81 91.1186 110.993 93.2103 110.993 93.2103C109.386 93.1834 109.422 92.9332 106.925 93.2371C104.429 93.541 104.223 96.3388 103.845 96.2494C103.468 96.16 102.714 96.0349 101.619 96.4013C100.523 96.7678 100.828 97.7511 99.9125 97.9388C98.9877 98.1265 90.9062 98.931 90.9062 98.931H98.9069C100.281 99.065 101.628 99.2528 103.064 99.4494C105.318 99.7444 107.617 99.1634 109.7 99.9142C111.882 100.71 114.028 101.371 116.417 101.487C118.626 101.595 120.323 100.54 122.424 100.263C124.363 100.013 125.171 101.604 127.156 101.872C128.377 102.042 131.17 101.398 131.583 100.272C133.361 102.077 134.851 101.175 136.961 100.692C138.281 100.388 138.578 100.737 140.032 101.496C141.819 102.426 143.265 102.9 145.357 102.989C149.443 103.159 152.594 102.792 155.962 100.647C156.527 100.281 157.371 99.4315 158.063 99.2706C158.862 99.0829 160.236 99.6014 161.143 99.7533C163.109 100.075 164.312 99.6639 165.884 99.4494C166.432 99.369 170.239 99.8159 170.634 98.931H175.546Z" fill="#EDEBEB"/>
<path d="M151.019 168.041C151.005 168.027 150.991 168.013 150.976 167.998C150.991 167.998 151.005 167.998 151.005 167.998C151.005 168.013 151.019 168.027 151.019 168.041Z" fill="white"/>
<rect width="355.926" height="21.473" transform="matrix(1 0 0 -1 82.8335 66.9121)" fill="#FBFBFB"/>
<rect x="221.005" y="51.0366" width="28.3762" height="11.4973" rx="2.93547" fill="#EDEBEB"/>
<rect x="251.338" y="51.0366" width="28.3762" height="11.4973" rx="2.93547" fill="#EDEBEB"/>
<rect x="281.671" y="51.0366" width="44.032" height="11.4973" rx="2.93547" fill="#EDEBEB"/>
<rect x="327.66" y="51.0366" width="29.5993" height="11.4973" rx="2.93547" fill="#939393"/>
<rect x="359.584" y="51.4036" width="33.024" height="10.7634" rx="2.56854" fill="white" stroke="#3A3A3A" stroke-width="0.733867"/>
<rect x="394.932" y="51.0366" width="33.7579" height="11.4973" rx="2.93547" fill="#939393"/>
<rect opacity="0.3" x="82.8335" y="66.9121" width="355.926" height="204.725" fill="#5E5E5E"/>
<rect x="214.685" y="99.853" width="92.4673" height="6.34429" fill="white"/>
<rect x="184.597" y="117.178" width="152.4" height="4.14819" fill="white"/>
<rect x="124.908" y="177.693" width="62.868" height="11.9566" rx="2.44622" fill="#564394"/>
<rect x="130.045" y="182.573" width="52.3492" height="2.19611" fill="white"/>
<rect x="144.967" y="193.065" width="39.3842" height="11.9566" rx="2.44622" fill="#D64B71"/>
<rect x="148.186" y="197.946" width="32.7946" height="2.19609" fill="white"/>
<rect x="122.952" y="208.438" width="59.4433" height="11.9566" rx="2.44622" fill="#A81E63"/>
<rect x="127.809" y="213.318" width="49.4975" height="2.19611" fill="white"/>
<rect x="193.158" y="177.693" width="54.5508" height="11.9566" rx="2.44622" fill="#5A483C"/>
<rect x="197.616" y="182.573" width="45.4236" height="2.19611" fill="white"/>
<rect x="187.776" y="193.065" width="60.6664" height="11.9566" rx="2.44622" fill="#137F3A"/>
<rect x="192.733" y="197.946" width="50.516" height="2.19609" fill="white"/>
<rect x="187.532" y="208.438" width="72.1636" height="11.9566" rx="2.44622" fill="#C159D8"/>
<rect x="193.429" y="213.318" width="60.0896" height="2.19611" fill="white"/>
<rect x="253.091" y="177.693" width="33.7579" height="11.9566" rx="2.44622" fill="#1E9ED1"/>
<rect x="255.85" y="182.573" width="28.1097" height="2.19611" fill="white"/>
<rect x="243.061" y="223.811" width="33.7579" height="11.9566" rx="2.44622" fill="white"/>
<rect x="245.82" y="228.691" width="28.1097" height="2.19609" fill="#5E5E5E"/>
<rect x="209.304" y="152.804" width="102.986" height="19.2769" rx="2.44622" fill="#EDEBEB"/>
<rect x="217.621" y="160.856" width="23.4838" height="3.66018" fill="#5E5E5E"/>
<rect x="247.465" y="155.488" width="62.3787" height="14.1526" rx="2.44622" fill="#C6C6C6"/>
<rect x="252.562" y="161.265" width="51.9418" height="2.59946" fill="white"/>
<rect x="251.868" y="193.065" width="55.2847" height="11.9566" rx="2.44622" fill="#47AA0A"/>
<rect x="256.385" y="197.946" width="46.0347" height="2.19609" fill="white"/>
<rect x="264.833" y="208.438" width="58.954" height="11.9566" rx="2.44622" fill="#C54126"/>
<rect x="269.65" y="213.318" width="49.0901" height="2.19611" fill="white"/>
<rect x="292.23" y="177.693" width="42.5643" height="11.9566" rx="2.44622" fill="#F97319"/>
<rect x="295.708" y="182.573" width="35.4427" height="2.19611" fill="white"/>
<rect x="310.577" y="193.065" width="62.6234" height="11.9566" rx="2.44622" fill="#0A54BF"/>
<rect x="315.694" y="197.946" width="52.1455" height="2.19609" fill="white"/>
<rect x="328.924" y="208.438" width="65.5588" height="11.9566" rx="2.44622" fill="#212121"/>
<rect x="334.28" y="213.318" width="54.5898" height="2.19611" fill="white"/>
<rect x="340.176" y="177.693" width="52.5938" height="11.9566" rx="2.44622" fill="#187F73"/>
<rect x="344.474" y="182.573" width="43.7941" height="2.19611" fill="white"/>
</g>
<ellipse cx="98.1234" cy="68.8304" rx="66.4706" ry="66.3045" fill="#EDFDF9"/>
<path d="M98.4147 137.339C93.2829 137.337 88.1674 136.761 83.1639 135.621C46.2297 127.222 22.9939 90.352 31.3972 53.4366C39.8006 16.5212 76.689 -6.67823 113.649 1.71786C131.419 5.75768 146.856 16.6843 156.564 32.0946C166.272 47.5049 169.456 66.1368 165.416 83.8925C158.173 115.71 129.76 137.339 98.4147 137.339ZM98.4147 7.3969C70.433 7.3969 45.0956 26.6906 38.6337 55.076C31.1194 88.017 51.8385 120.912 84.8047 128.407C117.771 135.902 150.695 115.201 158.196 82.2596C160.234 73.2882 160.225 63.9734 158.169 55.006C156.114 46.0385 152.064 37.6485 146.32 30.4581C140.576 23.2677 133.286 17.4614 124.991 13.4698C116.695 9.47825 107.606 7.40374 98.3984 7.40016L98.4147 7.3969Z" fill="#055E5A"/>
<path d="M55.1614 116.788C52.4197 114.397 48.3034 114.504 45.6902 117.035L5.20508 156.248C2.35997 159.003 2.366 163.569 5.21839 166.317L12.7737 173.596C15.7415 176.456 20.5251 176.145 23.0983 172.926L58.5224 128.61C60.8634 125.681 60.4813 121.428 57.6557 118.963L55.1614 116.788Z" fill="#055E5A"/>
<path d="M57.7026 74.0402L82.2018 86.3468V79.2249L65.3373 71.0775L82.2018 62.9301V55.9222L57.7026 68.2858V74.0402Z" fill="#5E5E5E"/>
<path d="M111.092 47.0342H104.198L84.029 88.4549H90.866L111.092 47.0342Z" fill="#5E5E5E"/>
<path d="M137.392 68.2858L112.893 55.9222V63.0441L129.757 71.1915L112.893 79.3389V86.3468L137.392 73.9833V68.2858Z" fill="#5E5E5E"/>
</svg>
