<svg width="518" height="403" viewBox="0 0 518 403" fill="none" xmlns="http://www.w3.org/2000/svg">
<path d="M247.915 390.891H142.01L148.964 347.566H240.955L247.915 390.891Z" fill="#A81E63"/>
<path d="M262.357 395.705H127.568V402.926H262.357V395.705Z" fill="#A81E63"/>
<path d="M127.568 395.705L142.01 390.891H247.916L262.357 395.705H127.568Z" fill="#F9BCD3"/>
<path d="M0 311.462V338.346C0 343.416 4.11538 347.566 9.14344 347.566H383.189C388.217 347.566 392.332 343.416 392.332 338.346V311.462H0Z" fill="#F9BCD3"/>
<path d="M392.332 316.276V82.5558C392.332 77.3966 388.217 73.1738 383.189 73.1738H9.14356C4.11543 73.1738 0 77.3966 0 82.5558V316.276H392.332Z" fill="#A81E63"/>
<path d="M194.963 335.531C198.951 335.531 202.183 332.298 202.183 328.31C202.183 324.322 198.951 321.089 194.963 321.089C190.975 321.089 187.742 324.322 187.742 328.31C187.742 332.298 190.975 335.531 194.963 335.531Z" fill="#A81E63"/>
<rect width="363.449" height="191.723" transform="matrix(1 0 0 -1 14.4419 304.241)" fill="url(#paint0_linear)"/>
<rect x="23.9146" y="120.442" width="344.255" height="16.616" rx="3.08038" fill="#E0E0E0"/>
<rect width="363.449" height="22.4955" transform="matrix(1 0 0 -1 14.4419 112.518)" fill="#FBFBFB"/>
<rect x="23.9146" y="140.126" width="253.018" height="12.0146" rx="3.08038" fill="#EDEBEB"/>
<rect x="152.384" y="95.877" width="29.777" height="12.0648" rx="3.08038" fill="#EDEBEB"/>
<rect x="184.215" y="95.877" width="29.777" height="12.0648" rx="3.08038" fill="#EDEBEB"/>
<rect x="216.045" y="95.877" width="46.2057" height="12.0648" rx="3.08038" fill="#EDEBEB"/>
<rect x="264.305" y="95.877" width="31.0605" height="12.0648" rx="3.08038" fill="#939393"/>
<rect x="297.804" y="96.262" width="34.6543" height="11.2947" rx="2.69533" fill="white" stroke="#3A3A3A" stroke-width="0.770096"/>
<rect x="334.897" y="95.877" width="35.4244" height="12.0648" rx="3.08038" fill="#939393"/>
<rect x="23.9146" y="160.321" width="41.8789" height="7.66892" rx="3.08038" fill="#EDEBEB"/>
<rect x="23.9146" y="171.057" width="47.3631" height="7.66892" rx="3.08038" fill="#EDEBEB"/>
<rect x="23.9146" y="181.794" width="39.6354" height="7.66891" rx="3.08038" fill="#EDEBEB"/>
<rect x="23.9146" y="192.53" width="47.3631" height="7.66892" rx="3.08038" fill="white"/>
<rect x="23.9146" y="203.267" width="36.1455" height="7.66892" rx="3.08038" fill="white"/>
<path d="M75.2778 163.264C75.2778 161.563 76.657 160.184 78.3582 160.184H137.912C139.614 160.184 140.993 161.563 140.993 163.264V222.819C140.993 224.52 139.614 225.899 137.912 225.899H78.3582C76.657 225.899 75.2778 224.52 75.2778 222.819V163.264Z" fill="#FFEAF4"/>
<rect x="80.4116" y="165.318" width="55.4469" height="5.64737" rx="1.54019" fill="#D01F67"/>
<rect x="80.4116" y="173.019" width="31.5739" height="5.64737" rx="1.54019" fill="#D01F67"/>
<rect x="80.4116" y="207.417" width="53.1366" height="5.64737" rx="1.54019" fill="#FC6EB5"/>
<rect x="80.4116" y="215.118" width="31.5739" height="5.64737" rx="1.54019" fill="#FC6EB5"/>
<path d="M78.3582 161.211H137.912V159.157H78.3582V161.211ZM139.966 163.264V222.819H142.019V163.264H139.966ZM137.912 224.872H78.3582V226.926H137.912V224.872ZM76.3046 222.819V163.264H74.251V222.819H76.3046ZM78.3582 224.872C77.2241 224.872 76.3046 223.953 76.3046 222.819H74.251C74.251 225.087 76.0899 226.926 78.3582 226.926V224.872ZM139.966 222.819C139.966 223.953 139.046 224.872 137.912 224.872V226.926C140.181 226.926 142.019 225.087 142.019 222.819H139.966ZM137.912 161.211C139.046 161.211 139.966 162.13 139.966 163.264H142.019C142.019 160.996 140.181 159.157 137.912 159.157V161.211ZM78.3582 159.157C76.0899 159.157 74.251 160.996 74.251 163.264H76.3046C76.3046 162.13 77.2241 161.211 78.3582 161.211V159.157Z" fill="#D01F67"/>
<path d="M145.1 163.264C145.1 161.563 146.479 160.184 148.18 160.184H207.734C209.435 160.184 210.814 161.563 210.814 163.264V222.819C210.814 224.52 209.435 225.899 207.734 225.899H148.18C146.479 225.899 145.1 224.52 145.1 222.819V163.264Z" fill="#FFEAF4"/>
<rect x="150.233" y="165.318" width="55.4469" height="5.64737" rx="1.54019" fill="#D01F67"/>
<rect x="150.233" y="173.019" width="31.5739" height="5.64737" rx="1.54019" fill="#D01F67"/>
<rect x="150.233" y="207.417" width="53.1366" height="5.64737" rx="1.54019" fill="#FC6EB5"/>
<rect x="150.233" y="215.118" width="31.5739" height="5.64737" rx="1.54019" fill="#FC6EB5"/>
<path d="M148.18 161.211H207.734V159.157H148.18V161.211ZM209.788 163.264V222.819H211.841V163.264H209.788ZM207.734 224.872H148.18V226.926H207.734V224.872ZM146.126 222.819V163.264H144.073V222.819H146.126ZM148.18 224.872C147.046 224.872 146.126 223.953 146.126 222.819H144.073C144.073 225.087 145.912 226.926 148.18 226.926V224.872ZM209.788 222.819C209.788 223.953 208.868 224.872 207.734 224.872V226.926C210.002 226.926 211.841 225.087 211.841 222.819H209.788ZM207.734 161.211C208.868 161.211 209.788 162.13 209.788 163.264H211.841C211.841 160.996 210.002 159.157 207.734 159.157V161.211ZM148.18 159.157C145.912 159.157 144.073 160.996 144.073 163.264H146.126C146.126 162.13 147.046 161.211 148.18 161.211V159.157Z" fill="#D01F67"/>
<path d="M214.922 163.264C214.922 161.563 216.301 160.184 218.002 160.184H277.556C279.258 160.184 280.637 161.563 280.637 163.264V222.819C280.637 224.52 279.258 225.899 277.556 225.899H218.002C216.301 225.899 214.922 224.52 214.922 222.819V163.264Z" fill="#FFEAF4"/>
<rect x="220.056" y="165.318" width="55.4469" height="5.64737" rx="1.54019" fill="#D01F67"/>
<rect x="220.056" y="173.019" width="31.5739" height="5.64737" rx="1.54019" fill="#D01F67"/>
<rect x="220.056" y="207.417" width="53.1366" height="5.64737" rx="1.54019" fill="#FC6EB5"/>
<rect x="220.056" y="215.118" width="31.5739" height="5.64737" rx="1.54019" fill="#FC6EB5"/>
<path d="M218.002 161.211H277.556V159.157H218.002V161.211ZM279.61 163.264V222.819H281.664V163.264H279.61ZM277.556 224.872H218.002V226.926H277.556V224.872ZM215.949 222.819V163.264H213.895V222.819H215.949ZM218.002 224.872C216.868 224.872 215.949 223.953 215.949 222.819H213.895C213.895 225.087 215.734 226.926 218.002 226.926V224.872ZM279.61 222.819C279.61 223.953 278.69 224.872 277.556 224.872V226.926C279.825 226.926 281.664 225.087 281.664 222.819H279.61ZM277.556 161.211C278.69 161.211 279.61 162.13 279.61 163.264H281.664C281.664 160.996 279.825 159.157 277.556 159.157V161.211ZM218.002 159.157C215.734 159.157 213.895 160.996 213.895 163.264H215.949C215.949 162.13 216.868 161.211 218.002 161.211V159.157Z" fill="#D01F67"/>
<path d="M284.744 163.264C284.744 161.563 286.123 160.184 287.824 160.184H347.378C349.079 160.184 350.458 161.563 350.458 163.264V222.819C350.458 224.52 349.079 225.899 347.378 225.899H287.824C286.123 225.899 284.744 224.52 284.744 222.819V163.264Z" fill="#FFEAF4"/>
<rect x="289.877" y="165.318" width="55.4469" height="5.64737" rx="1.54019" fill="#D01F67"/>
<rect x="289.877" y="173.019" width="31.5739" height="5.64737" rx="1.54019" fill="#D01F67"/>
<rect x="289.877" y="207.417" width="53.1366" height="5.64737" rx="1.54019" fill="#FC6EB5"/>
<rect x="289.877" y="215.118" width="31.5739" height="5.64737" rx="1.54019" fill="#FC6EB5"/>
<path d="M287.824 161.211H347.378V159.157H287.824V161.211ZM349.432 163.264V222.819H351.485V163.264H349.432ZM347.378 224.872H287.824V226.926H347.378V224.872ZM285.77 222.819V163.264H283.717V222.819H285.77ZM287.824 224.872C286.69 224.872 285.77 223.953 285.77 222.819H283.717C283.717 225.087 285.556 226.926 287.824 226.926V224.872ZM349.432 222.819C349.432 223.953 348.512 224.872 347.378 224.872V226.926C349.646 226.926 351.485 225.087 351.485 222.819H349.432ZM347.378 161.211C348.512 161.211 349.432 162.13 349.432 163.264H351.485C351.485 160.996 349.646 159.157 347.378 159.157V161.211ZM287.824 159.157C285.556 159.157 283.717 160.996 283.717 163.264H285.77C285.77 162.13 286.69 161.211 287.824 161.211V159.157Z" fill="#D01F67"/>
<path d="M75.2778 232.796C75.2778 231.095 76.657 229.716 78.3582 229.716H137.912C139.614 229.716 140.993 231.095 140.993 232.796V292.35C140.993 294.052 139.614 295.431 137.912 295.431H78.3582C76.657 295.431 75.2778 294.052 75.2778 292.35V232.796Z" fill="#FFEAF4"/>
<rect x="80.4116" y="234.85" width="55.4469" height="5.64737" rx="1.54019" fill="#D01F67"/>
<rect x="80.4116" y="242.551" width="31.5739" height="5.64737" rx="1.54019" fill="#D01F67"/>
<rect x="80.4116" y="276.948" width="53.1366" height="5.64737" rx="1.54019" fill="#FC6EB5"/>
<rect x="80.4116" y="284.649" width="31.5739" height="5.64737" rx="1.54019" fill="#FC6EB5"/>
<path d="M78.3582 230.743H137.912V228.689H78.3582V230.743ZM139.966 232.796V292.35H142.019V232.796H139.966ZM137.912 294.404H78.3582V296.457H137.912V294.404ZM76.3046 292.35V232.796H74.251V292.35H76.3046ZM78.3582 294.404C77.2241 294.404 76.3046 293.484 76.3046 292.35H74.251C74.251 294.619 76.0899 296.457 78.3582 296.457V294.404ZM139.966 292.35C139.966 293.484 139.046 294.404 137.912 294.404V296.457C140.181 296.457 142.019 294.619 142.019 292.35H139.966ZM137.912 230.743C139.046 230.743 139.966 231.662 139.966 232.796H142.019C142.019 230.528 140.181 228.689 137.912 228.689V230.743ZM78.3582 228.689C76.0899 228.689 74.251 230.528 74.251 232.796H76.3046C76.3046 231.662 77.2241 230.743 78.3582 230.743V228.689Z" fill="#D01F67"/>
<path d="M145.1 232.796C145.1 231.095 146.479 229.716 148.18 229.716H207.734C209.435 229.716 210.814 231.095 210.814 232.796V292.35C210.814 294.052 209.435 295.431 207.734 295.431H148.18C146.479 295.431 145.1 294.052 145.1 292.35V232.796Z" fill="#FFEAF4"/>
<rect x="150.233" y="234.85" width="55.4469" height="5.64737" rx="1.54019" fill="#D01F67"/>
<rect x="150.233" y="242.551" width="31.5739" height="5.64737" rx="1.54019" fill="#D01F67"/>
<rect x="150.233" y="276.948" width="53.1366" height="5.64737" rx="1.54019" fill="#FC6EB5"/>
<rect x="150.233" y="284.649" width="31.5739" height="5.64737" rx="1.54019" fill="#FC6EB5"/>
<path d="M148.18 230.743H207.734V228.689H148.18V230.743ZM209.788 232.796V292.35H211.841V232.796H209.788ZM207.734 294.404H148.18V296.457H207.734V294.404ZM146.126 292.35V232.796H144.073V292.35H146.126ZM148.18 294.404C147.046 294.404 146.126 293.484 146.126 292.35H144.073C144.073 294.619 145.912 296.457 148.18 296.457V294.404ZM209.788 292.35C209.788 293.484 208.868 294.404 207.734 294.404V296.457C210.002 296.457 211.841 294.619 211.841 292.35H209.788ZM207.734 230.743C208.868 230.743 209.788 231.662 209.788 232.796H211.841C211.841 230.528 210.002 228.689 207.734 228.689V230.743ZM148.18 228.689C145.912 228.689 144.073 230.528 144.073 232.796H146.126C146.126 231.662 147.046 230.743 148.18 230.743V228.689Z" fill="#D01F67"/>
<path d="M214.922 232.796C214.922 231.095 216.301 229.716 218.002 229.716H277.556C279.258 229.716 280.637 231.095 280.637 232.796V292.35C280.637 294.052 279.258 295.431 277.556 295.431H218.002C216.301 295.431 214.922 294.052 214.922 292.35V232.796Z" fill="#FFEAF4"/>
<rect x="220.056" y="234.85" width="55.4469" height="5.64737" rx="1.54019" fill="#D01F67"/>
<rect x="220.056" y="242.551" width="31.5739" height="5.64737" rx="1.54019" fill="#D01F67"/>
<rect x="220.056" y="276.948" width="53.1366" height="5.64737" rx="1.54019" fill="#FC6EB5"/>
<rect x="220.056" y="284.649" width="31.5739" height="5.64737" rx="1.54019" fill="#FC6EB5"/>
<path d="M218.002 230.743H277.556V228.689H218.002V230.743ZM279.61 232.796V292.35H281.664V232.796H279.61ZM277.556 294.404H218.002V296.457H277.556V294.404ZM215.949 292.35V232.796H213.895V292.35H215.949ZM218.002 294.404C216.868 294.404 215.949 293.484 215.949 292.35H213.895C213.895 294.619 215.734 296.457 218.002 296.457V294.404ZM279.61 292.35C279.61 293.484 278.69 294.404 277.556 294.404V296.457C279.825 296.457 281.664 294.619 281.664 292.35H279.61ZM277.556 230.743C278.69 230.743 279.61 231.662 279.61 232.796H281.664C281.664 230.528 279.825 228.689 277.556 228.689V230.743ZM218.002 228.689C215.734 228.689 213.895 230.528 213.895 232.796H215.949C215.949 231.662 216.868 230.743 218.002 230.743V228.689Z" fill="#D01F67"/>
<path d="M284.744 232.796C284.744 231.095 286.123 229.716 287.824 229.716H347.378C349.079 229.716 350.458 231.095 350.458 232.796V292.35C350.458 294.052 349.079 295.431 347.378 295.431H287.824C286.123 295.431 284.744 294.052 284.744 292.35V232.796Z" fill="#FFEAF4"/>
<rect x="289.877" y="234.85" width="55.4469" height="5.64737" rx="1.54019" fill="#D01F67"/>
<rect x="289.877" y="242.551" width="31.5739" height="5.64737" rx="1.54019" fill="#D01F67"/>
<rect x="289.877" y="276.948" width="53.1366" height="5.64737" rx="1.54019" fill="#FC6EB5"/>
<rect x="289.877" y="284.649" width="31.5739" height="5.64737" rx="1.54019" fill="#FC6EB5"/>
<path d="M287.824 230.743H347.378V228.689H287.824V230.743ZM349.432 232.796V292.35H351.485V232.796H349.432ZM347.378 294.404H287.824V296.457H347.378V294.404ZM285.77 292.35V232.796H283.717V292.35H285.77ZM287.824 294.404C286.69 294.404 285.77 293.484 285.77 292.35H283.717C283.717 294.619 285.556 296.457 287.824 296.457V294.404ZM349.432 292.35C349.432 293.484 348.512 294.404 347.378 294.404V296.457C349.646 296.457 351.485 294.619 351.485 292.35H349.432ZM347.378 230.743C348.512 230.743 349.432 231.662 349.432 232.796H351.485C351.485 230.528 349.646 228.689 347.378 228.689V230.743ZM287.824 228.689C285.556 228.689 283.717 230.528 283.717 232.796H285.77C285.77 231.662 286.69 230.743 287.824 230.743V228.689Z" fill="#D01F67"/>
<path d="M25.0409 98.2845C25.0409 98.2845 25.031 98.2845 25.0409 98.2845C24.8133 98.3555 24.6353 98.1424 24.6353 97.9293C24.6353 97.8684 24.6451 97.8075 24.6748 97.7466C24.7441 97.6249 24.8925 97.5741 25.0112 97.5336C25.308 97.4422 25.585 97.3205 25.8818 97.2291C26.0104 97.1885 26.1391 97.1479 26.2677 97.219C26.3765 97.2799 26.4458 97.3915 26.4556 97.5133C26.4853 97.7872 26.1984 97.8989 25.9907 97.9597C25.6741 98.0714 25.3575 98.1931 25.0409 98.2845Z" fill="#0421B1"/>
<path d="M42.6512 98.386C42.4237 98.4571 42.2456 98.244 42.2456 98.0309C42.2456 97.97 42.2555 97.9091 42.2852 97.8482C42.3544 97.7264 42.5028 97.6757 42.6216 97.6351C42.9184 97.5438 43.1954 97.422 43.4922 97.3307C43.6208 97.2901 43.7494 97.2495 43.878 97.3205C43.9869 97.3814 44.0561 97.493 44.066 97.6148C44.0957 97.8888 43.8088 98.0004 43.601 98.0613C43.2844 98.1729 42.9678 98.2845 42.6512 98.386Z" fill="#0421B1"/>
<path d="M20.9253 103.318C20.8956 103.653 20.8956 104.596 20.579 104.738C20.1734 104.911 19.9162 104.698 19.9261 104.343C19.9458 103.541 20.0349 102.689 20.1833 101.887C20.3317 101.075 20.4405 100.202 20.6384 99.3501C20.8363 98.4774 21.1627 98.6093 21.885 98.934C22.4489 99.1877 22.6665 99.8777 22.6468 100.456C22.6369 100.832 22.627 101.156 22.4687 101.491C22.3895 101.654 22.1917 101.948 22.063 102.08C21.9245 102.222 21.8553 102.293 21.7069 102.425C21.4002 102.709 21.4595 102.557 21.8256 103.257C21.9839 103.561 22.3104 104.018 22.2708 104.393C22.2411 104.698 21.9542 104.769 21.7267 104.667C21.4101 104.556 21.1331 103.713 20.9253 103.318ZM21.3606 99.8574C21.2716 100.365 21.1726 101.146 21.0836 101.654C22.0037 101.309 21.9641 100.02 21.3606 99.8574Z" fill="#0421B1"/>
<path d="M25.0411 99.6747C24.8828 100.111 24.8135 100.679 24.7839 101.126C24.7443 101.704 25.1005 101.359 25.4863 101.532C25.7633 101.653 25.8425 101.938 25.5259 102.141C25.0906 102.425 24.774 102.019 24.675 102.668C24.6256 102.973 24.5266 103.734 24.7443 103.957C24.9817 104.2 25.5852 103.876 25.8128 104.18C26.3371 104.89 24.4871 104.83 24.21 104.677C23.5274 104.302 23.6956 103.176 23.7451 102.465C23.8044 101.532 23.9627 100.558 24.1507 99.624C24.2397 99.1572 24.3584 98.9542 24.8531 98.8731C25.2093 98.8223 25.8029 98.731 26.1393 98.8325C26.3767 98.9035 26.6339 99.1876 26.3866 99.4616C26.1393 99.7153 25.3676 99.5834 25.0411 99.6747Z" fill="#0421B1"/>
<path d="M28.6123 101.258C28.8696 101.278 29.2752 101.268 29.384 101.501C29.5324 101.816 29.1268 101.948 28.8597 101.988C28.6519 102.029 28.5035 101.948 28.454 102.029C28.3947 102.14 28.3749 102.516 28.365 102.617C28.3155 103.023 28.2661 103.419 28.2364 103.825C28.2166 104.129 28.2957 104.596 27.9 104.748C26.881 105.134 27.3559 103.044 27.4053 102.668C27.5043 101.877 27.623 101.085 27.7615 100.304C27.8209 99.9689 27.8505 99.6138 27.9297 99.2891C27.989 99.0354 28.1473 98.8629 28.4442 98.8121C28.8894 98.7411 29.4434 98.7817 29.8589 98.8324C30.1161 98.8629 30.5416 98.9339 30.4822 99.2586C30.3932 99.6645 29.8094 99.5732 29.5225 99.563C29.1169 99.5529 28.9487 99.5224 28.8399 99.9283C28.7212 100.375 28.6519 100.831 28.6123 101.258Z" fill="#0421B1"/>
<path d="M32.0853 103.429C32.3128 103.531 32.5206 103.459 32.6591 102.739C32.7679 102.171 32.9856 100.476 33.0944 99.9079C33.1637 99.5426 33.1637 98.9743 33.5297 98.8526C33.7672 98.7714 34.0739 99.0048 34.1035 99.2483C34.1431 99.573 33.9354 100.943 33.876 101.298C33.8067 101.755 33.6386 102.8 33.5198 103.257C33.3517 103.947 32.8075 104.809 32.0457 104.809C30.5914 104.809 31.0069 100.699 31.2839 99.6238C31.3532 99.3498 31.4323 98.9033 31.7192 98.812C32.0259 98.7207 32.2238 99.0352 32.2238 99.3295C32.2139 100.283 31.6698 103.246 32.0853 103.429Z" fill="#0421B1"/>
<path d="M36.2204 103.804C36.4776 103.764 36.6953 103.388 36.7942 103.155C36.8338 103.054 36.8733 102.952 36.8733 102.84C36.8733 102.688 36.7942 102.577 36.6458 102.526C36.5568 102.495 36.4479 102.485 36.3787 102.414C36.2698 102.313 36.2698 102.13 36.349 102.008C36.4281 101.887 36.5666 101.816 36.7052 101.775C36.9921 101.684 37.3087 101.704 37.5857 101.816C37.7539 101.887 37.9221 101.998 37.9913 102.171C38.0507 102.313 38.0309 102.485 38.0012 102.638C37.8924 103.267 37.645 103.886 37.1701 104.312C36.6953 104.738 35.9829 104.89 35.4388 104.576C34.1724 103.845 34.954 101.856 35.3992 100.862C35.6762 100.233 36.072 99.6542 36.5963 99.2178C36.8338 99.0149 37.1108 98.8525 37.4274 98.8018C37.6945 98.7612 37.9913 98.8119 38.209 98.9844C38.298 99.0555 38.3673 99.1569 38.3574 99.2686C38.3376 99.3903 38.209 99.4614 38.0902 99.5121C37.9023 99.5831 37.7143 99.644 37.5362 99.7353C37.1009 99.9484 36.7645 100.334 36.5073 100.76C36.2501 101.186 36.0621 101.602 35.8939 102.059C35.8147 102.282 35.7455 102.556 35.7059 102.8C35.6564 103.094 35.6762 103.459 35.9038 103.683C36.0225 103.784 36.1214 103.815 36.2204 103.804Z" fill="#0421B1"/>
<path d="M39.7228 104.413C39.6535 104.667 39.515 104.87 39.1786 104.809C38.8027 104.728 38.8126 104.312 38.862 104.007C39.0401 102.911 39.238 101.816 39.426 100.72C39.4754 100.456 39.5447 100.09 39.7327 99.8875C39.9701 99.6338 40.4252 99.8063 40.4648 100.141C40.5044 100.435 40.3659 100.811 40.3065 101.105C40.2372 101.491 40.168 101.876 40.0987 102.272C39.9998 102.82 39.9009 103.378 39.8019 103.926C39.792 104.068 39.7723 104.251 39.7228 104.413Z" fill="#0421B1"/>
<path d="M46.035 102.678C46.035 102.658 46.035 102.638 46.035 102.617C46.035 102.272 45.7975 101.978 45.5997 101.714C45.3523 101.379 45.2237 101.044 45.3029 100.618C45.3622 100.304 45.5205 100.019 45.6986 99.7658C46.0152 99.3092 46.4406 98.9134 46.9947 98.8323C47.2717 98.7917 48.0532 98.7105 47.895 99.228C47.8158 99.4715 47.5289 99.5324 47.3409 99.6339C47.0738 99.7861 46.8166 99.9586 46.6088 100.182C46.3615 100.466 46.2032 100.872 46.312 101.237C46.4208 101.623 46.7572 101.856 46.9353 102.201C47.1233 102.577 47.0639 103.033 46.8858 103.399C46.7275 103.723 46.4802 103.997 46.223 104.251C45.7975 104.657 45.0358 104.961 44.452 104.809C44.3036 104.768 44.175 104.657 44.1552 104.505C44.1453 104.373 44.2146 104.251 44.3135 104.17C44.4125 104.089 44.5312 104.048 44.6499 103.997C44.9863 103.865 45.3128 103.713 45.5799 103.47C45.8074 103.287 46.0053 102.983 46.035 102.678Z" fill="#0421B1"/>
<path d="M42.6613 99.7153C42.5129 100.152 42.4437 100.71 42.414 101.156C42.3744 101.735 42.7207 101.39 43.0967 101.562C43.3737 101.684 43.4429 101.958 43.1362 102.161C42.7108 102.445 42.4041 102.039 42.3052 102.689C42.2557 102.993 42.1568 103.744 42.3645 103.977C42.5921 104.221 43.1857 103.896 43.4033 104.201C43.9178 104.911 42.1073 104.85 41.8402 104.698C41.1773 104.322 41.3455 103.206 41.3851 102.496C41.4346 101.562 41.5929 100.598 41.7808 99.6646C41.8699 99.208 41.9886 98.9949 42.4734 98.9239C42.8295 98.8731 43.4034 98.7818 43.7298 98.8833C43.9673 98.9543 44.2146 99.2384 43.9673 99.5124C43.7298 99.7559 42.9779 99.6342 42.6613 99.7153Z" fill="#0421B1"/>
<path d="M40.5045 99.3399C40.3165 99.4109 40.089 99.3906 39.9406 99.2587C39.5844 98.9137 39.8614 98.2947 40.366 98.4063C40.6232 98.4672 40.8211 98.7412 40.7815 99.0152C40.7617 99.1775 40.643 99.2892 40.5045 99.3399Z" fill="#0421B1"/>
<path d="M59.9053 101.045C60.1625 101.065 60.5879 101.055 60.7067 101.309C60.8551 101.643 60.4395 101.775 60.1625 101.826C59.9548 101.867 59.7965 101.775 59.747 101.877C59.6876 101.988 59.6679 102.384 59.6481 102.496C59.5986 102.922 59.5392 103.338 59.5195 103.764C59.4997 104.079 59.5788 104.576 59.1732 104.738C58.1245 105.144 58.6191 102.952 58.6587 102.557C58.7577 101.725 58.8764 100.893 59.0248 100.071C59.0841 99.7155 59.1237 99.3502 59.2029 99.0051C59.2622 98.7312 59.4304 98.5485 59.7371 98.5079C60.1922 98.4369 60.766 98.4775 61.2013 98.5282C61.4685 98.5587 61.9137 98.6398 61.8444 98.9747C61.7554 99.4009 61.1519 99.2994 60.8551 99.2994C60.4395 99.2893 60.2615 99.2588 60.1526 99.6749C60.0141 100.111 59.9449 100.588 59.9053 101.045Z" fill="#E8140F"/>
<path d="M54.9683 102.151C54.8693 102.465 54.8495 102.851 54.7902 103.186C54.7308 103.52 54.6715 103.845 54.6121 104.18C54.5626 104.495 54.2955 104.931 53.8998 104.728C53.3556 104.464 53.7909 103.277 53.8701 102.8C54.0086 101.968 54.1867 101.156 54.4043 100.344C54.5329 99.8572 54.8693 99.2687 55.1859 99.8065C55.3838 100.141 55.552 100.507 55.6905 100.872C55.829 101.247 55.9279 101.663 56.0565 102.039C56.0565 102.029 56.1654 101.461 56.1654 101.43C56.2445 100.973 56.2643 100.902 56.3237 100.456C56.383 100.009 56.4622 99.5731 56.5512 99.1368C56.6007 98.8831 56.6699 98.4975 56.9667 98.4569C57.1547 98.4366 57.3229 98.5888 57.3823 98.7715C57.4416 98.9541 57.412 99.1571 57.3922 99.3397C57.2141 100.679 57.0261 102.029 56.7986 103.358C56.759 103.561 56.7293 103.794 56.5809 103.937C56.0466 104.484 55.2453 102.749 55.0771 102.394C55.0375 102.323 54.9979 102.232 54.9683 102.151Z" fill="#E8140F"/>
<path d="M65.673 100.953C65.5345 101.714 65.396 102.475 65.109 103.176C64.8914 103.703 64.4561 104.515 63.8526 104.688C62.2597 105.134 62.1707 102.912 62.2795 101.907C62.3587 101.197 62.517 100.436 62.7643 99.7356C63.0413 98.9542 63.3777 98.5991 64.1692 98.4773C64.7133 98.386 65.2673 98.5788 65.5641 99.005C65.8313 99.3906 65.7917 99.9284 65.7521 100.385C65.7323 100.568 65.7125 100.76 65.673 100.953ZM63.5063 103.541C63.8823 103.734 64.3868 102.364 64.5352 101.39C64.6045 100.923 64.9507 99.5326 64.367 99.3906C63.3975 99.1369 63.0116 103.49 63.5063 103.541Z" fill="#E8140F"/>
<path d="M51.862 104.353C51.7829 104.617 51.6444 104.83 51.2981 104.759C50.9122 104.677 50.9122 104.241 50.9716 103.916C51.1596 102.77 51.3575 101.633 51.5652 100.487C51.6147 100.213 51.6839 99.827 51.8818 99.6241C52.1291 99.3602 52.5941 99.5429 52.6436 99.8879C52.6832 100.192 52.5348 100.588 52.4853 100.892C52.4161 101.298 52.3468 101.704 52.2677 102.1C52.1687 102.678 52.0599 103.247 51.961 103.825C51.9313 103.987 51.9115 104.18 51.862 104.353Z" fill="#E8140F"/>
<path d="M52.6734 99.0659C52.4854 99.1471 52.2381 99.1166 52.0897 98.9847C51.7137 98.6296 52.0105 97.9801 52.525 98.1019C52.7921 98.1628 52.9999 98.4469 52.9603 98.731C52.9405 98.8934 52.8218 99.005 52.6734 99.0659Z" fill="#E8140F"/>
<path d="M49.2204 104.698C48.9829 104.789 48.6861 104.759 48.508 104.596C48.0529 104.16 48.4091 103.368 49.0423 103.521C49.3688 103.592 49.626 103.947 49.5666 104.292C49.5369 104.495 49.3984 104.627 49.2204 104.698Z" fill="#E8140F"/>
<g filter="url(#filter0_d)">
<rect x="296.054" y="13" width="185.336" height="231.12" rx="4.8139" fill="#FFEAF4"/>
<path d="M354.833 48.3734V70.1879H348.848V48.3734H340.583V42.4692H363.126V48.3734H354.833Z" fill="#D01F67"/>
<path d="M381.438 60.4453C381.438 66.4666 377.078 70.7665 371.434 70.7665C365.825 70.7665 361.43 66.4666 361.43 60.4453C361.43 54.4239 365.825 50.168 371.434 50.168C377.086 50.168 381.438 54.4313 381.438 60.4453ZM375.68 60.4453C375.68 57.1636 373.635 55.6326 371.441 55.6326C369.282 55.6326 367.195 57.1562 367.195 60.4453C367.195 63.6904 369.282 65.2946 371.441 65.2946C373.635 65.2946 375.68 63.7343 375.68 60.4453Z" fill="#D01F67"/>
<path d="M413.018 66.7012C413.018 68.4593 413.132 69.7485 413.167 70.1807H407.636C407.601 69.9463 407.487 69.0892 407.487 68.3054C406.614 69.6386 404.725 70.6129 402.446 70.6129C397.142 70.6129 393.124 66.3935 393.124 60.4088C393.124 54.6219 396.915 50.2853 402.254 50.2853C405.471 50.2853 406.877 51.538 407.331 52.2778V41.8833H413.011V66.7012H413.018ZM403.17 65.2948C405.407 65.2948 407.416 63.6539 407.416 60.4455C407.416 57.2004 405.407 55.6328 403.17 55.6328C400.934 55.6328 398.931 57.2004 398.931 60.4455C398.924 63.6539 400.934 65.2948 403.17 65.2948Z" fill="#D01F67"/>
<path d="M436.861 60.4453C436.861 66.4666 432.502 70.7665 426.857 70.7665C421.248 70.7665 416.853 66.4666 416.853 60.4453C416.853 54.4239 421.248 50.168 426.857 50.168C432.509 50.168 436.861 54.4313 436.861 60.4453ZM431.103 60.4453C431.103 57.1636 429.058 55.6326 426.864 55.6326C424.706 55.6326 422.618 57.1562 422.618 60.4453C422.618 63.6904 424.706 65.2946 426.864 65.2946C429.058 65.2946 431.103 63.7343 431.103 60.4453Z" fill="#D01F67"/>
<rect x="344.194" y="94.8896" width="108.313" height="12.0347" rx="2.40695" fill="#F9BCD3"/>
<rect x="344.193" y="116.552" width="108.313" height="12.0347" rx="2.40695" fill="#F9BCD3"/>
<rect x="344.193" y="138.215" width="108.313" height="12.0347" rx="2.40695" fill="#F9BCD3"/>
<rect x="344.193" y="159.877" width="108.313" height="12.0347" rx="2.40695" fill="#F9BCD3"/>
<rect x="344.193" y="181.54" width="108.313" height="12.0347" rx="2.40695" fill="#F9BCD3"/>
<rect x="344.193" y="203.202" width="108.313" height="12.0347" rx="2.40695" fill="#F9BCD3"/>
<rect x="324.938" y="94.8896" width="12.0347" height="12.0347" rx="2.40695" fill="#F9BCD3"/>
<rect x="324.938" y="116.552" width="12.0347" height="12.0347" rx="2.40695" fill="#F9BCD3"/>
<rect x="324.938" y="138.214" width="12.0347" height="12.0347" rx="2.40695" fill="#F9BCD3"/>
<rect x="324.938" y="159.877" width="12.0347" height="12.0347" rx="2.40695" fill="#F9BCD3"/>
<rect x="324.938" y="181.54" width="12.0347" height="12.0347" rx="2.40695" fill="#F9BCD3"/>
<rect x="324.938" y="203.202" width="12.0347" height="12.0347" rx="2.40695" fill="#F9BCD3"/>
<path d="M336.341 102.252H333.963V92.9079L331.125 93.8053V91.8342L336.086 90.0225H336.341V102.252Z" fill="#D01F67"/>
<path d="M338.776 124.338H330.566V122.677L334.44 118.467C334.972 117.874 335.365 117.357 335.617 116.915C335.875 116.473 336.004 116.054 336.004 115.657C336.004 115.114 335.869 114.689 335.6 114.382C335.332 114.069 334.948 113.912 334.449 113.912C333.911 113.912 333.486 114.102 333.174 114.482C332.866 114.857 332.713 115.352 332.713 115.967H330.327C330.327 115.223 330.5 114.544 330.845 113.929C331.196 113.314 331.69 112.833 332.326 112.486C332.962 112.134 333.684 111.958 334.49 111.958C335.724 111.958 336.681 112.26 337.361 112.864C338.047 113.467 338.389 114.32 338.389 115.422C338.389 116.026 338.236 116.641 337.929 117.267C337.622 117.893 337.095 118.623 336.349 119.456L333.626 122.384H338.776V124.338Z" fill="#D01F67"/>
<path d="M332.984 139.244H334.251C334.855 139.244 335.302 139.09 335.592 138.783C335.883 138.475 336.028 138.067 336.028 137.558C336.028 137.066 335.883 136.683 335.592 136.409C335.307 136.135 334.912 135.998 334.408 135.998C333.952 135.998 333.571 136.127 333.264 136.384C332.957 136.636 332.803 136.966 332.803 137.374H330.426C330.426 136.736 330.593 136.166 330.928 135.663C331.268 135.154 331.739 134.757 332.343 134.472C332.951 134.186 333.621 134.044 334.35 134.044C335.617 134.044 336.61 134.354 337.328 134.975C338.047 135.59 338.406 136.44 338.406 137.525C338.406 138.084 338.239 138.598 337.904 139.068C337.569 139.538 337.131 139.898 336.588 140.15C337.262 140.396 337.764 140.765 338.093 141.257C338.428 141.749 338.595 142.331 338.595 143.002C338.595 144.087 338.206 144.956 337.427 145.611C336.653 146.265 335.628 146.592 334.35 146.592C333.154 146.592 332.175 146.27 331.413 145.627C330.656 144.984 330.278 144.134 330.278 143.077H332.655C332.655 143.536 332.823 143.911 333.157 144.201C333.497 144.492 333.914 144.638 334.408 144.638C334.972 144.638 335.414 144.487 335.732 144.185C336.056 143.877 336.217 143.472 336.217 142.968C336.217 141.749 335.559 141.14 334.243 141.14H332.984V139.244Z" fill="#D01F67"/>
<path d="M337.6 163.914H338.957V165.868H337.6V168.51H335.222V165.868H330.311L330.204 164.342L335.197 156.298H337.6V163.914ZM332.573 163.914H335.222V159.603L335.066 159.879L332.573 163.914Z" fill="#D01F67"/>
<path d="M330.919 184.591L331.61 178.384H338.324V180.405H333.56L333.264 183.031C333.829 182.723 334.429 182.569 335.066 182.569C336.206 182.569 337.1 182.93 337.748 183.651C338.395 184.373 338.718 185.382 338.718 186.679C338.718 187.468 338.554 188.175 338.225 188.802C337.901 189.422 337.435 189.906 336.826 190.253C336.217 190.594 335.499 190.764 334.671 190.764C333.947 190.764 333.275 190.616 332.655 190.32C332.035 190.018 331.545 189.596 331.183 189.053C330.826 188.511 330.637 187.893 330.615 187.199H332.968C333.017 187.708 333.19 188.105 333.486 188.391C333.788 188.67 334.18 188.81 334.663 188.81C335.2 188.81 335.614 188.614 335.905 188.223C336.196 187.826 336.341 187.267 336.341 186.545C336.341 185.852 336.174 185.321 335.839 184.952C335.504 184.582 335.03 184.398 334.416 184.398C333.851 184.398 333.393 184.549 333.042 184.851L332.812 185.069L330.919 184.591Z" fill="#D01F67"/>
<path d="M337.015 200.344V202.341H336.785C335.71 202.357 334.844 202.643 334.185 203.196C333.533 203.75 333.141 204.519 333.009 205.503C333.645 204.843 334.449 204.513 335.419 204.513C336.462 204.513 337.29 204.893 337.904 205.654C338.518 206.414 338.825 207.415 338.825 208.657C338.825 209.451 338.655 210.169 338.315 210.812C337.981 211.455 337.504 211.956 336.884 212.314C336.27 212.671 335.573 212.85 334.794 212.85C333.533 212.85 332.513 212.403 331.734 211.508C330.96 210.614 330.574 209.42 330.574 207.927V207.054C330.574 205.729 330.818 204.561 331.306 203.548C331.8 202.531 332.504 201.745 333.42 201.191C334.342 200.632 335.408 200.35 336.621 200.344H337.015ZM334.695 206.459C334.312 206.459 333.963 206.562 333.651 206.769C333.338 206.971 333.108 207.239 332.96 207.575V208.313C332.96 209.123 333.116 209.758 333.429 210.217C333.741 210.67 334.18 210.896 334.745 210.896C335.255 210.896 335.666 210.692 335.979 210.284C336.297 209.87 336.456 209.336 336.456 208.682C336.456 208.016 336.297 207.479 335.979 207.071C335.661 206.663 335.233 206.459 334.695 206.459Z" fill="#D01F67"/>
<path d="M294.845 222.467C308.811 222.467 320.118 233.769 320.118 247.706C320.118 261.643 308.811 272.945 294.845 272.945C280.88 272.945 269.583 261.633 269.583 247.706C269.583 233.769 280.891 222.467 294.845 222.467Z" fill="#F9F9F9" stroke="#A81E63" stroke-width="4.82494"/>
<path d="M291.671 244.647V235.022H298.085V244.647H307.548V250.765H298.085V260.39H291.671V250.765H282.154V244.647H291.671Z" fill="#A81E63"/>
</g>
<defs>
<filter id="filter0_d" x="231.067" y="0.965261" width="286.427" height="334.566" filterUnits="userSpaceOnUse" color-interpolation-filters="sRGB">
<feFlood flood-opacity="0" result="BackgroundImageFix"/>
<feColorMatrix in="SourceAlpha" type="matrix" values="0 0 0 0 0 0 0 0 0 0 0 0 0 0 0 0 0 0 127 0"/>
<feOffset dy="24.0695"/>
<feGaussianBlur stdDeviation="18.0521"/>
<feColorMatrix type="matrix" values="0 0 0 0 0 0 0 0 0 0 0 0 0 0 0 0 0 0 0.25 0"/>
<feBlend mode="normal" in2="BackgroundImageFix" result="effect1_dropShadow"/>
<feBlend mode="normal" in="SourceGraphic" in2="effect1_dropShadow" result="shape"/>
</filter>
<linearGradient id="paint0_linear" x1="181.725" y1="0" x2="181.725" y2="191.723" gradientUnits="userSpaceOnUse">
<stop stop-color="#E9E8E8"/>
<stop offset="1" stop-color="white"/>
</linearGradient>
</defs>
</svg>
