<svg width="582" height="334" viewBox="0 0 582 334" fill="none" xmlns="http://www.w3.org/2000/svg">
<mask id="mask0" mask-type="alpha" maskUnits="userSpaceOnUse" x="114" y="0" width="294" height="255">
<path d="M382.131 85.929L407.628 0H114.053V178.178L212.397 154.381L288.158 168.217V254.874L356.634 240.31L382.131 85.929Z" fill="#C4C4C4"/>
</mask>
<g mask="url(#mask0)">
<path d="M511.708 22.6309H114.053V136.325H511.708V22.6309Z" fill="#C9ECF4"/>
<path d="M511.708 136.325H114.053V251.932H511.708V136.325Z" fill="#B1E869"/>
<path d="M505.422 58.7796C505.422 58.7796 500.152 58.2491 496.742 57.8609C495.85 57.4469 494.533 57.227 493.293 57.0846C492.905 56.6059 492.815 55.8814 491.833 55.545C490.438 55.0792 489.495 55.2344 489.017 55.3509C488.539 55.4673 488.281 51.8963 485.116 51.5082C481.951 51.12 481.99 51.4306 479.949 51.4694C479.949 51.4694 478.903 48.8041 476.784 48.61C474.666 48.4159 473.309 49.7098 473.051 49.7874C473.051 49.7874 472.741 48.4159 471.837 48.3383C470.92 48.2607 469.576 48.9205 469.576 48.9205C468.453 48.1313 468.659 48.0148 467.148 47.7431C465.624 47.4714 464.81 48.9981 464.81 48.9981C464.81 48.9981 464.461 48.7264 463.983 48.2089C463.505 47.7043 462.33 47.2644 461.077 47.1479C459.824 47.0315 459.255 48.2477 459.204 48.1313C459.165 48.0148 458.726 47.4585 458.08 46.6045C457.434 45.7377 455.083 45.2719 453.61 45.5436C452.138 45.8153 451.75 47.1479 451.75 47.1479C451.75 47.1479 450.355 46.1258 447.759 44.5603C445.15 42.9947 437.955 42.6842 434.519 43.771C431.096 44.8708 427.621 49.3734 427.621 49.3734C427.621 49.3734 426.665 48.7006 426.148 48.39C425.631 48.0795 424.624 47.5232 423.151 48.4677C421.679 49.4122 421.24 51.133 421.24 51.133C421.24 51.133 419.677 50.3825 418.759 50.3049C417.842 50.2273 416.977 50.4214 415.853 51.1718C414.729 51.9222 414.639 54.4323 414.639 54.4323C414.122 53.9277 412.598 53.4878 411.642 54.0053C410.686 54.5099 410.001 56.7612 410.001 56.7612C407.263 57.4728 398.014 58.7666 398.014 58.7666H403.633C405.416 59.0254 407.25 59.31 409.071 59.5559C411.035 59.8276 412.714 59.4394 414.587 59.4265C416.008 59.4135 417.171 59.8405 418.824 59.9958C422.131 60.3192 425.528 60.7333 428.874 60.5909C430.708 60.5133 431.871 59.8146 433.511 59.4653C434.997 59.1548 435.617 59.4653 437.386 59.8017C439.75 60.2545 442.153 60.2028 444.581 60.2028C445.589 60.2028 446.648 60.2934 447.643 60.164C448.34 60.0734 448.482 59.4135 449.335 59.4524C450.898 59.5041 452.151 61.6001 453.959 59.9958C455.186 60.9273 456.065 59.9311 457.098 59.8534C459.953 59.6335 463.04 60.578 465.959 60.6039C468.465 60.6298 470.765 60.5521 473.18 60.0605C474.627 59.7629 476.319 58.9089 477.766 58.8313C479.716 58.7149 482.468 59.7629 484.69 59.8276C486.614 59.8793 488.449 59.7888 490.347 59.4782C491.949 59.2195 493.693 59.0901 495.295 58.7925H505.422V58.7796Z" fill="#F0F6F7"/>
<path d="M217.634 58.4933C217.634 58.4933 209.498 57.362 207.091 56.7413C207.091 56.7413 206.479 54.769 205.646 54.3184C204.803 53.8679 203.469 54.2484 203.008 54.6989C203.008 54.6989 202.927 52.4963 201.934 51.8456C200.941 51.1948 200.179 51.0246 199.376 51.0847C198.573 51.1548 197.199 51.8055 197.199 51.8055C197.199 51.8055 196.818 50.2938 195.514 49.4628C194.219 48.6419 193.337 49.1224 192.875 49.3927C192.414 49.663 191.581 50.2537 191.581 50.2537C191.581 50.2537 188.521 46.2991 185.502 45.338C182.482 44.3769 176.142 44.6472 173.854 46.0288C171.567 47.4004 170.343 48.3015 170.343 48.3015C170.343 48.3015 170.002 47.1301 168.698 46.8898C167.404 46.6495 165.337 47.06 164.765 47.8209C164.193 48.5818 163.812 49.0623 163.772 49.1625C163.732 49.2626 163.24 48.2013 162.127 48.3015C161.023 48.4016 159.99 48.782 159.569 49.2325C159.147 49.6831 158.846 49.9233 158.846 49.9233C158.846 49.9233 158.124 48.5818 156.78 48.8221C155.445 49.0623 155.636 49.1625 154.643 49.8533C154.643 49.8533 153.459 49.2726 152.656 49.3327C151.854 49.4027 151.583 50.6041 151.583 50.6041C151.352 50.534 150.169 49.4027 148.303 49.5729C146.427 49.7431 145.514 52.0858 145.514 52.0858C143.718 52.0558 143.758 51.7755 140.969 52.1159C138.18 52.4563 137.949 55.5899 137.528 55.4898C137.107 55.3897 136.264 55.2495 135.04 55.66C133.816 56.0705 134.157 57.1717 133.134 57.382C132.101 57.5922 123.072 58.4933 123.072 58.4933H132.01C133.545 58.6435 135.05 58.8537 136.655 59.074C139.173 59.4043 141.742 58.7536 144.069 59.5946C146.507 60.4856 148.904 61.2265 151.573 61.3566C154.041 61.4767 155.937 60.2954 158.284 59.985C160.451 59.7047 161.354 61.4868 163.571 61.7871C164.936 61.9773 168.056 61.2565 168.517 59.995C170.504 62.0174 172.169 61.0062 174.526 60.4656C176.001 60.1252 176.332 60.5156 177.957 61.3666C179.954 62.4078 181.569 62.9384 183.906 63.0386C188.471 63.2288 191.992 62.8183 195.754 60.4155C196.386 60.005 197.329 59.0539 198.102 58.8737C198.995 58.6635 200.53 59.2442 201.543 59.4143C203.74 59.7748 205.084 59.3142 206.84 59.074C207.452 58.9839 211.705 59.4844 212.147 58.4933H217.634Z" fill="#F0F6F7"/>
<path d="M190.233 135.9C190.216 135.884 190.2 135.868 190.184 135.852C190.2 135.852 190.216 135.852 190.216 135.852C190.216 135.868 190.233 135.884 190.233 135.9Z" fill="#FEFEFE"/>
<rect width="397.655" height="24.0506" transform="matrix(1 0 0 -1 114.053 22.6309)" fill="#FBFBFB"/>
<rect x="268.423" y="4.86621" width="31.7031" height="12.8452" rx="3.27963" fill="#EDEBEB"/>
<rect x="302.313" y="4.86621" width="31.7031" height="12.8452" rx="3.27963" fill="#EDEBEB"/>
<rect x="336.202" y="4.86621" width="49.1945" height="12.8452" rx="3.27963" fill="#EDEBEB"/>
<rect x="387.583" y="4.86621" width="33.0696" height="12.8452" rx="3.27963" fill="#939393"/>
<path d="M125.65 7.41353C125.65 7.41353 125.639 7.41353 125.65 7.41353C125.401 7.48948 125.206 7.26165 125.206 7.03382C125.206 6.96873 125.217 6.90364 125.249 6.83854C125.325 6.70836 125.487 6.65411 125.617 6.61071C125.942 6.51307 126.245 6.38289 126.57 6.28525C126.711 6.24185 126.851 6.19846 126.992 6.2744C127.111 6.33949 127.187 6.45883 127.198 6.58902C127.23 6.88194 126.916 7.00128 126.689 7.06637C126.343 7.18571 125.996 7.31589 125.65 7.41353Z" fill="#0421B1"/>
<path d="M144.918 7.52193C144.669 7.59787 144.474 7.37005 144.474 7.14222C144.474 7.07713 144.485 7.01203 144.517 6.94694C144.593 6.81675 144.756 6.76251 144.885 6.71911C145.21 6.62147 145.513 6.49129 145.838 6.39365C145.979 6.35025 146.119 6.30685 146.26 6.3828C146.379 6.44789 146.455 6.56723 146.466 6.69742C146.498 6.99034 146.184 7.10967 145.957 7.17477C145.611 7.29411 145.264 7.41344 144.918 7.52193Z" fill="#0421B1"/>
<path d="M121.147 12.7946C121.114 13.1526 121.114 14.1616 120.768 14.3135C120.324 14.4979 120.043 14.2701 120.054 13.8903C120.075 13.0333 120.173 12.122 120.335 11.2649C120.497 10.397 120.616 9.46399 120.833 8.55268C121.049 7.61967 121.407 7.76071 122.197 8.10787C122.814 8.3791 123.052 9.11682 123.03 9.73521C123.019 10.1366 123.009 10.4838 122.835 10.8418C122.749 11.0154 122.532 11.33 122.392 11.471C122.24 11.6229 122.164 11.6989 122.002 11.8399C121.666 12.1437 121.731 11.9809 122.132 12.7295C122.305 13.055 122.662 13.5432 122.619 13.9446C122.586 14.2701 122.273 14.346 122.024 14.2375C121.677 14.1182 121.374 13.2177 121.147 12.7946ZM121.623 9.09513C121.526 9.63757 121.417 10.4729 121.32 11.0154C122.327 10.6465 122.283 9.26871 121.623 9.09513Z" fill="#0421B1"/>
<path d="M125.65 8.89968C125.476 9.36619 125.401 9.97373 125.368 10.4511C125.325 11.0695 125.715 10.7006 126.137 10.885C126.44 11.0152 126.526 11.319 126.18 11.536C125.704 11.8397 125.357 11.4058 125.249 12.1001C125.195 12.4256 125.087 13.2393 125.325 13.4779C125.585 13.7383 126.245 13.3911 126.494 13.7166C127.068 14.476 125.043 14.4109 124.74 14.2482C123.993 13.8468 124.178 12.6426 124.232 11.8831C124.297 10.885 124.47 9.84354 124.675 8.84544C124.773 8.34639 124.903 8.12941 125.444 8.04262C125.834 7.98838 126.483 7.89074 126.851 7.99923C127.111 8.07517 127.392 8.37894 127.122 8.67186C126.851 8.94308 126.007 8.80204 125.65 8.89968Z" fill="#0421B1"/>
<path d="M129.557 10.5924C129.839 10.6141 130.283 10.6033 130.402 10.8528C130.564 11.1891 130.12 11.3302 129.828 11.3736C129.601 11.417 129.438 11.3302 129.384 11.417C129.319 11.5363 129.297 11.9377 129.287 12.0462C129.233 12.4801 129.178 12.9033 129.146 13.3372C129.124 13.6627 129.211 14.1617 128.778 14.3245C127.663 14.7367 128.183 12.5018 128.237 12.1004C128.345 11.2542 128.475 10.408 128.626 9.57264C128.691 9.21463 128.724 8.83491 128.81 8.48775C128.875 8.21653 129.049 8.03209 129.373 7.97785C129.86 7.90191 130.467 7.9453 130.921 7.99955C131.203 8.03209 131.668 8.10804 131.603 8.4552C131.506 8.88916 130.867 8.79152 130.553 8.78067C130.109 8.76982 129.925 8.73727 129.806 9.17123C129.676 9.64858 129.601 10.1368 129.557 10.5924Z" fill="#0421B1"/>
<path d="M133.357 12.9139C133.606 13.0224 133.833 12.9464 133.985 12.1762C134.104 11.5686 134.342 9.75686 134.461 9.14932C134.537 8.75876 134.537 8.15122 134.937 8.02104C135.197 7.93424 135.533 8.18377 135.565 8.44414C135.609 8.79131 135.381 10.2559 135.316 10.6356C135.24 11.1238 135.056 12.2413 134.927 12.7295C134.743 13.4672 134.147 14.3894 133.314 14.3894C131.723 14.3894 132.177 9.99554 132.48 8.84555C132.556 8.55263 132.643 8.07528 132.957 7.97764C133.292 7.88 133.509 8.21632 133.509 8.53093C133.498 9.55073 132.902 12.7186 133.357 12.9139Z" fill="#0421B1"/>
<path d="M137.882 13.3153C138.163 13.2719 138.401 12.8705 138.51 12.6209C138.553 12.5125 138.596 12.404 138.596 12.2846C138.596 12.1219 138.51 12.0026 138.347 11.9483C138.25 11.9158 138.131 11.9049 138.055 11.829C137.936 11.7205 137.936 11.5252 138.022 11.395C138.109 11.2648 138.261 11.1889 138.412 11.1455C138.726 11.0479 139.072 11.0696 139.376 11.1889C139.56 11.2648 139.744 11.3842 139.819 11.5686C139.884 11.7205 139.863 11.9049 139.83 12.0677C139.711 12.7403 139.44 13.4021 138.921 13.8577C138.401 14.3134 137.622 14.4761 137.027 14.1398C135.641 13.3587 136.496 11.2323 136.983 10.1691C137.286 9.49646 137.719 8.87807 138.293 8.41157C138.553 8.19459 138.856 8.02101 139.202 7.96676C139.495 7.92337 139.819 7.97761 140.057 8.16204C140.155 8.23799 140.231 8.34648 140.22 8.46581C140.198 8.596 140.057 8.67194 139.928 8.72619C139.722 8.80213 139.516 8.86722 139.321 8.96486C138.845 9.19269 138.477 9.60495 138.196 10.0606C137.914 10.5163 137.709 10.9611 137.525 11.4493C137.438 11.6879 137.362 11.9809 137.319 12.2412C137.265 12.5559 137.286 12.9464 137.535 13.1851C137.665 13.2936 137.774 13.3261 137.882 13.3153Z" fill="#0421B1"/>
<path d="M141.714 13.9665C141.638 14.2377 141.487 14.4547 141.118 14.3896C140.707 14.3028 140.718 13.858 140.772 13.5325C140.967 12.3608 141.183 11.1891 141.389 10.0174C141.443 9.73537 141.519 9.34481 141.725 9.12784C141.984 8.85661 142.482 9.04104 142.526 9.39906C142.569 9.71368 142.417 10.1151 142.352 10.4297C142.277 10.842 142.201 11.2542 142.125 11.6773C142.017 12.2632 141.909 12.8599 141.8 13.4457C141.79 13.5976 141.768 13.7929 141.714 13.9665Z" fill="#0421B1"/>
<path d="M148.62 12.1111C148.62 12.0894 148.62 12.0677 148.62 12.046C148.62 11.6772 148.36 11.3626 148.143 11.0805C147.873 10.7225 147.732 10.3645 147.819 9.90881C147.884 9.57249 148.057 9.26872 148.252 8.9975C148.598 8.5093 149.064 8.08619 149.67 7.9994C149.973 7.956 150.828 7.86921 150.655 8.4225C150.568 8.68288 150.254 8.74797 150.049 8.85646C149.756 9.0192 149.475 9.20363 149.248 9.4423C148.977 9.74607 148.804 10.18 148.923 10.5706C149.042 10.9828 149.41 11.2324 149.605 11.6012C149.81 12.0026 149.745 12.4908 149.551 12.8814C149.377 13.2286 149.107 13.5215 148.825 13.7927C148.36 14.2267 147.526 14.5521 146.888 14.3894C146.725 14.346 146.585 14.2267 146.563 14.0639C146.552 13.9229 146.628 13.7927 146.736 13.7059C146.844 13.6191 146.974 13.5757 147.104 13.5215C147.472 13.3805 147.83 13.2177 148.122 12.9574C148.371 12.7621 148.587 12.4366 148.62 12.1111Z" fill="#0421B1"/>
<path d="M144.929 8.94304C144.766 9.40954 144.69 10.0062 144.658 10.4836C144.615 11.102 144.994 10.7331 145.405 10.9175C145.708 11.0477 145.784 11.3406 145.448 11.5576C144.983 11.8614 144.647 11.4274 144.539 12.1218C144.485 12.4472 144.377 13.2501 144.604 13.4996C144.853 13.76 145.502 13.4128 145.74 13.7383C146.303 14.4977 144.322 14.4326 144.03 14.2699C143.305 13.8684 143.489 12.6751 143.532 11.9156C143.586 10.9175 143.76 9.88689 143.965 8.88879C144.063 8.40059 144.193 8.17276 144.723 8.09682C145.113 8.04258 145.74 7.94494 146.098 8.05342C146.357 8.12937 146.628 8.43314 146.357 8.72606C146.098 8.98643 145.275 8.85624 144.929 8.94304Z" fill="#0421B1"/>
<path d="M142.569 8.54159C142.363 8.61753 142.114 8.59584 141.952 8.4548C141.562 8.08594 141.865 7.42415 142.417 7.54349C142.699 7.60859 142.915 7.90151 142.872 8.19443C142.85 8.36801 142.72 8.48735 142.569 8.54159Z" fill="#0421B1"/>
<path d="M163.796 10.3644C164.077 10.3861 164.543 10.3752 164.672 10.6465C164.835 11.0045 164.38 11.1455 164.077 11.1998C163.85 11.2432 163.677 11.1455 163.622 11.254C163.557 11.3733 163.536 11.7965 163.514 11.9158C163.46 12.3714 163.395 12.8162 163.373 13.2719C163.352 13.6082 163.438 14.1398 162.995 14.3134C161.847 14.7474 162.388 12.404 162.432 11.9809C162.54 11.0913 162.67 10.2017 162.832 9.3229C162.897 8.94319 162.94 8.55263 163.027 8.18376C163.092 7.89084 163.276 7.69556 163.612 7.65217C164.11 7.57622 164.737 7.61962 165.214 7.67386C165.506 7.70641 165.993 7.7932 165.917 8.15122C165.82 8.60687 165.16 8.49838 164.835 8.49838C164.38 8.48753 164.185 8.45499 164.066 8.89979C163.915 9.36629 163.839 9.87619 163.796 10.3644Z" fill="#E8140F"/>
<path d="M158.394 11.5471C158.286 11.8835 158.264 12.2957 158.199 12.6537C158.134 13.0117 158.069 13.3589 158.004 13.7169C157.95 14.0532 157.658 14.5197 157.225 14.3028C156.63 14.0207 157.106 12.7514 157.192 12.2415C157.344 11.3519 157.539 10.4839 157.777 9.61604C157.918 9.09529 158.286 8.46605 158.632 9.04104C158.849 9.39906 159.033 9.78962 159.184 10.1802C159.336 10.5816 159.444 11.0264 159.585 11.4278C159.585 11.417 159.704 10.8094 159.704 10.7769C159.79 10.2887 159.812 10.2127 159.877 9.73537C159.942 9.25802 160.028 8.79152 160.126 8.32502C160.18 8.05379 160.256 7.64153 160.581 7.59814C160.786 7.57644 160.97 7.73917 161.035 7.93445C161.1 8.12973 161.068 8.34671 161.046 8.54199C160.851 9.97405 160.645 11.417 160.397 12.8382C160.353 13.0551 160.321 13.3047 160.158 13.4566C159.574 14.0424 158.697 12.1872 158.513 11.8075C158.47 11.7316 158.426 11.6339 158.394 11.5471Z" fill="#E8140F"/>
<path d="M170.106 10.2671C169.955 11.0808 169.803 11.8944 169.489 12.643C169.251 13.2071 168.775 14.0751 168.114 14.2595C166.372 14.7368 166.274 12.3609 166.393 11.2869C166.48 10.5275 166.653 9.7138 166.924 8.96522C167.227 8.12986 167.595 7.75015 168.461 7.61996C169.056 7.52232 169.662 7.72845 169.987 8.1841C170.279 8.59636 170.236 9.17135 170.193 9.65956C170.171 9.85484 170.149 10.061 170.106 10.2671ZM167.736 13.0336C168.147 13.2397 168.699 11.7751 168.861 10.7336C168.937 10.2345 169.316 8.74825 168.677 8.59636C167.617 8.32514 167.194 12.9793 167.736 13.0336Z" fill="#E8140F"/>
<path d="M154.995 13.9012C154.908 14.1833 154.757 14.4111 154.378 14.3352C153.956 14.2484 153.956 13.7819 154.021 13.4347C154.226 12.2088 154.443 10.9937 154.67 9.7678C154.724 9.47488 154.8 9.06262 155.017 8.84564C155.287 8.56357 155.796 8.75885 155.85 9.12771C155.893 9.45318 155.731 9.87629 155.677 10.2018C155.601 10.6357 155.525 11.0697 155.439 11.4928C155.33 12.1112 155.211 12.7187 155.103 13.3371C155.071 13.5107 155.049 13.7168 154.995 13.9012Z" fill="#E8140F"/>
<path d="M155.882 8.24882C155.677 8.33561 155.406 8.30307 155.244 8.16203C154.832 7.78232 155.157 7.08799 155.72 7.21818C156.012 7.28327 156.24 7.58704 156.196 7.89081C156.175 8.06439 156.045 8.18373 155.882 8.24882Z" fill="#E8140F"/>
<path d="M152.105 14.2702C151.845 14.3678 151.521 14.3353 151.326 14.1617C150.828 13.6952 151.217 12.849 151.91 13.0117C152.267 13.0876 152.549 13.4673 152.484 13.8362C152.451 14.0532 152.3 14.1942 152.105 14.2702Z" fill="#E8140F"/>
<rect opacity="0.3" x="114.053" y="22.6309" width="397.655" height="229.301" fill="black"/>
<rect x="261.363" y="59.5264" width="103.308" height="7.10587" fill="white"/>
<rect x="227.747" y="78.9312" width="170.267" height="4.64614" fill="white"/>
<rect x="161.061" y="146.71" width="70.2387" height="13.3918" rx="2.73303" fill="#564394"/>
<rect x="166.8" y="152.176" width="58.4867" height="2.45972" fill="white"/>
<rect x="183.471" y="163.928" width="44.0017" height="13.3918" rx="2.73303" fill="#D64B71"/>
<rect x="187.066" y="169.395" width="36.6395" height="2.45972" fill="white"/>
<rect x="158.874" y="181.146" width="66.4125" height="13.3918" rx="2.73303" fill="#A81E63"/>
<rect x="164.301" y="186.612" width="55.3007" height="2.45972" fill="white"/>
<rect x="237.312" y="146.71" width="60.9465" height="13.3918" rx="2.73303" fill="#5A483C"/>
<rect x="242.292" y="152.176" width="50.7492" height="2.45972" fill="white"/>
<rect x="231.299" y="163.928" width="67.779" height="13.3918" rx="2.73303" fill="#137F3A"/>
<rect x="236.837" y="169.395" width="56.4386" height="2.45972" fill="white"/>
<rect x="231.026" y="181.146" width="80.6242" height="13.3918" rx="2.73303" fill="#C159D8"/>
<rect x="237.614" y="186.612" width="67.1346" height="2.45972" fill="white"/>
<rect x="304.271" y="146.71" width="37.7157" height="13.3918" rx="2.73303" fill="#1E9ED1"/>
<rect x="307.353" y="152.176" width="31.4053" height="2.45972" fill="white"/>
<rect x="293.065" y="198.365" width="37.7157" height="13.3918" rx="2.73303" fill="white"/>
<rect x="296.147" y="203.831" width="31.4053" height="2.45972" fill="#5E5E5E"/>
<rect x="255.35" y="118.833" width="115.06" height="21.5909" rx="2.73303" fill="#EDEBEB"/>
<rect x="264.642" y="127.853" width="26.237" height="4.09954" fill="#5E5E5E"/>
<rect x="297.985" y="121.84" width="69.6921" height="15.8515" rx="2.73303" fill="#C6C6C6"/>
<rect x="303.68" y="128.31" width="58.0316" height="2.91151" fill="white"/>
<rect x="302.904" y="163.928" width="61.7664" height="13.3918" rx="2.73303" fill="#47AA0A"/>
<rect x="307.952" y="169.395" width="51.4319" height="2.45972" fill="white"/>
<rect x="317.39" y="181.146" width="65.8659" height="13.3918" rx="2.73303" fill="#C54126"/>
<rect x="322.771" y="186.612" width="54.8455" height="2.45972" fill="white"/>
<rect x="348" y="146.71" width="47.5546" height="13.3918" rx="2.73303" fill="#F97319"/>
<rect x="351.885" y="152.176" width="39.598" height="2.45972" fill="white"/>
<rect x="368.497" y="163.928" width="69.9654" height="13.3918" rx="2.73303" fill="#0A54BF"/>
<rect x="374.214" y="169.395" width="58.2592" height="2.45972" fill="white"/>
<rect x="388.995" y="181.146" width="73.2451" height="13.3918" rx="2.73303" fill="#212121"/>
<rect x="394.979" y="186.612" width="60.9901" height="2.45972" fill="white"/>
<rect x="401.566" y="146.71" width="58.76" height="13.3918" rx="2.73303" fill="#187F73"/>
<rect x="406.368" y="152.176" width="48.9286" height="2.45972" fill="white"/>
</g>
<path d="M537.036 48.3452C537.946 52.3649 540.146 59.9493 540.223 62.5271C540.449 72.9151 535.065 77.998 524.52 87.097L518.602 83.9876C526.644 72.1578 531.423 61.9191 533.014 50.2422L537.036 48.3452Z" fill="#26B759"/>
<path d="M545.912 45.3882C543.712 46.3749 541.665 46.5242 539.69 45.9962C539.465 45.9198 538.856 46.5278 538.856 46.83C538.703 53.2019 535.899 64.8788 530.282 81.9408H555.014C553.801 66.3935 551.83 54.7894 545.912 45.3882Z" fill="#E0E0E0"/>
<path d="M534.002 81.1802L520.27 146.854H525.959L535.972 119.022L550.312 81.1802H534.002Z" fill="#095411"/>
<path d="M553.801 81.1074H534.457C537.946 93.5453 544.699 114.325 546.065 116.597C546.975 118.115 556.231 124.56 573.754 135.858L576.712 130.852C561.92 119.098 554.409 112.956 554.18 112.424C553.878 111.667 553.954 94.1497 553.801 81.1802V81.1074Z" fill="#137F3A"/>
<path d="M582 134.332L580.099 136.597L579.633 136.207L577.611 139.561L570.345 148.216L569.416 147.436C571.499 142.947 572.65 138.862 572.982 135.283L576.981 130.52L581.942 134.285L582 134.332Z" fill="#095411"/>
<path d="M526.491 152.316H523.533V151.708L519.665 152.316H508.363V151.103C513.142 149.814 517.01 148.07 519.971 146.024H526.192L526.495 152.243V152.316H526.491Z" fill="#095411"/>
<path d="M539.767 24.6089H540.376C543.865 24.6089 546.75 27.4161 546.75 30.9807V37.1997C546.75 40.5349 544.247 43.1892 541.06 43.5715C541.06 43.648 541.06 43.648 541.06 43.648H532.413C531.047 42.3591 532.337 33.8645 533.4 30.0741C533.848 27.0338 536.504 24.6089 539.767 24.6089Z" fill="#7A380C"/>
<path d="M545.759 47.511H538.627L539.84 38.94C537.942 40.1524 536.048 40.684 535.138 40.4583C532.938 39.9267 532.712 31.738 534.457 28.552C536.125 25.3661 545.001 23.9279 545.457 30.2961C545.61 32.4953 544.699 34.4687 543.333 36.0599L545.759 47.511Z" fill="#AC5419"/>
<path d="M543.18 33.3293C543.18 32.419 542.423 31.6617 541.512 31.6617C541.057 31.6617 540.754 31.8146 540.448 32.0403C538.096 30.5985 535.367 30.2198 534.683 27.8677C535.593 26.5023 536.73 24.9111 540.146 24.9111C542.423 24.9111 544.32 26.4295 545.836 29.4625V29.6882C546.138 29.9904 546.367 30.2198 546.67 30.522C546.67 38.4085 551.295 35.1462 550.844 43.4915H542.197C541.21 42.5812 541.133 38.5615 541.439 34.9969C542.423 34.9969 543.18 34.2395 543.18 33.3293Z" fill="#7A380C"/>
<mask id="mask1" mask-type="alpha" maskUnits="userSpaceOnUse" x="424" y="38" width="110" height="87">
<path d="M424.031 124.738L449.527 38.8091H533.302V124.738H424.031Z" fill="#C4C4C4"/>
</mask>
<g mask="url(#mask1)">
<path d="M539.535 69.9897H141.88V183.684H539.535V69.9897Z" fill="#C9ECF4"/>
<path d="M533.249 106.138C533.249 106.138 527.979 105.608 524.569 105.22C523.677 104.806 522.36 104.586 521.12 104.444C520.732 103.965 520.642 103.24 519.66 102.904C518.265 102.438 517.322 102.593 516.844 102.71C516.366 102.826 516.108 99.2552 512.943 98.8671C509.778 98.4789 509.817 98.7894 507.776 98.8283C507.776 98.8283 506.73 96.163 504.611 95.9689C502.493 95.7748 501.137 97.0686 500.878 97.1463C500.878 97.1463 500.568 95.7748 499.664 95.6972C498.747 95.6195 497.404 96.2794 497.404 96.2794C496.28 95.4902 496.486 95.3737 494.975 95.102C493.451 94.8303 492.637 96.357 492.637 96.357C492.637 96.357 492.288 96.0853 491.81 95.5678C491.332 95.0632 490.157 94.6233 488.904 94.5068C487.651 94.3904 487.083 95.6066 487.031 95.4902C486.992 95.3737 486.553 94.8174 485.907 93.9634C485.261 93.0966 482.91 92.6308 481.438 92.9025C479.965 93.1742 479.578 94.5068 479.578 94.5068C479.578 94.5068 478.182 93.4847 475.586 91.9192C472.977 90.3536 465.782 90.0431 462.346 91.1299C458.923 92.2297 455.448 96.7322 455.448 96.7322C455.448 96.7322 454.492 96.0594 453.975 95.7489C453.459 95.4384 452.451 94.882 450.978 95.8266C449.506 96.7711 449.067 98.4919 449.067 98.4919C449.067 98.4919 447.504 97.7414 446.587 97.6638C445.669 97.5862 444.804 97.7802 443.68 98.5307C442.556 99.2811 442.466 101.791 442.466 101.791C441.949 101.287 440.425 100.847 439.469 101.364C438.513 101.869 437.829 104.12 437.829 104.12C435.09 104.832 425.841 106.126 425.841 106.126H431.46C433.243 106.384 435.077 106.669 436.899 106.915C438.862 107.186 440.541 106.798 442.414 106.785C443.835 106.772 444.998 107.199 446.651 107.355C449.958 107.678 453.355 108.092 456.701 107.95C458.535 107.872 459.698 107.174 461.338 106.824C462.824 106.514 463.444 106.824 465.213 107.161C467.577 107.613 469.98 107.562 472.408 107.562C473.416 107.562 474.475 107.652 475.47 107.523C476.167 107.432 476.309 106.772 477.162 106.811C478.725 106.863 479.978 108.959 481.786 107.355C483.014 108.286 483.892 107.29 484.925 107.212C487.78 106.992 490.867 107.937 493.787 107.963C496.293 107.989 498.592 107.911 501.007 107.419C502.454 107.122 504.146 106.268 505.593 106.19C507.544 106.074 510.295 107.122 512.517 107.186C514.442 107.238 516.276 107.148 518.175 106.837C519.776 106.578 521.52 106.449 523.122 106.151H533.249V106.138Z" fill="#F0F6F7"/>
<rect width="397.655" height="24.0506" transform="matrix(1 0 0 -1 141.88 69.9897)" fill="#FBFBFB"/>
<rect x="415.41" y="52.2251" width="33.0696" height="12.8452" rx="3.27963" fill="#939393"/>
<rect x="451.076" y="52.6351" width="36.8958" height="12.0253" rx="2.86968" fill="white" stroke="#3A3A3A" stroke-width="0.819907"/>
<rect x="490.568" y="52.2251" width="37.7157" height="12.8452" rx="3.27963" fill="#939393"/>
</g>
<path d="M519.21 53.1985L509.197 47.3582C507.831 47.2817 506.389 47.1325 505.099 46.8266C504.342 46.6009 502.899 46.295 502.746 45.4612C502.593 45.0061 502.899 44.7803 503.278 44.3252C503.504 44.1723 503.81 44.023 503.886 43.7171C503.963 43.3385 504.039 43.262 504.342 43.0363C504.418 43.0363 504.72 42.6576 504.797 42.5047C505.176 41.9731 506.389 42.3517 506.695 42.4282C507.908 42.8069 508.592 43.1855 509.576 43.9465L522.397 47.8133L519.21 53.1985Z" fill="#AC5419"/>
<path d="M543.864 45.4648C545.533 45.3883 546.822 45.3883 547.809 45.4648C548.796 45.4648 549.175 46.1457 549.401 46.528C554.482 56.388 560.022 75.8749 557.899 89.9039C553.12 89.9039 548.796 89.9039 544.699 89.9039C536.201 89.9039 535.975 76.3301 539.843 59.796C530.967 60.5533 520.801 55.5505 510.788 49.1022L512.077 42.5811C525.277 46.8265 536.809 45.5376 543.864 45.4648C543.864 45.3883 543.864 45.3883 543.864 45.4648Z" fill="#4FD875"/>
<path d="M50.1011 156.137C52.0097 154.816 54.654 154.007 56.7848 153.126C59.0613 152.172 61.3378 151.291 63.6179 150.41C65.2351 149.747 66.1894 147.767 67.8066 147.253C68.4695 147.031 69.4238 146.372 69.1288 147.399C68.8338 148.502 68.5424 148.502 69.5695 148.721C70.5967 148.943 75.1533 147.912 76.5483 148.28C77.4298 148.502 71.9189 150.923 66.2623 152.318L58.9885 157.973C56.1255 157.459 52.8219 157.168 50.1011 156.137Z" fill="#AC5419"/>
<path d="M25.5659 162.16C37.9062 161.352 49.0009 157.164 62.0041 149.675L64.7942 156.065C54.5081 166.347 45.18 174.055 34.3804 172.956C31.6632 172.661 27.4016 167.447 23.2129 166.125L25.5659 162.16Z" fill="#073099"/>
<path d="M23.8758 144.683C22.2586 143.434 21.0093 141.671 20.7907 139.541C20.055 133.374 28.7238 133.151 31.0039 135.871C33.2804 138.588 34.5298 146.372 32.4718 147.33C31.6632 147.697 29.7546 147.552 27.6967 146.743L30.4139 154.674L23.6537 155.995L23.8758 144.683Z" fill="#AC5419"/>
<path d="M23.5807 146.15C22.0363 142.553 19.1006 140.422 19.1006 138.66C19.1006 137.484 19.687 136.676 20.645 136.162C20.7906 133.814 22.4079 132.492 25.4929 132.27C30.1224 131.902 33.2075 133.297 32.8396 137.63C31.736 137.852 30.3409 137.703 28.6509 138.733C28.1373 139.028 27.8423 139.836 27.7694 141.009L26.9608 141.154C25.9337 139.978 25.0522 139.611 24.3165 140.128C23.5807 140.641 23.5807 141.522 24.2436 142.771L24.4658 146.001L23.5807 146.15Z" fill="#49220A"/>
<path d="M19.0278 193.076L31.3682 236.331L40.332 268.129H46.9429L37.3927 193.076H19.0278Z" fill="#5EA5EF"/>
<path d="M15.7205 193.076C15.4254 215.326 14.4711 227.516 14.1761 229.501C13.8811 231.558 9.32811 244.407 0.586426 268.129H7.34666C18.5142 245.365 24.6843 232.512 26.0065 229.501C27.3287 226.49 31.2952 214.372 37.3197 193.076H15.7205Z" fill="#7CC1EF"/>
<path d="M0 274.224L0.367879 267.102H7.49235C10.8725 269.451 15.2797 271.435 20.7141 272.902V274.224H7.85659L3.44932 273.561V274.224H0Z" fill="#073099"/>
<path d="M39.4507 274.224L39.8186 267.102H46.943C50.3232 269.451 54.7304 271.435 60.1648 272.902V274.224H47.2344L42.8272 273.561V274.224H39.4507Z" fill="#073099"/>
<path d="M15.061 193.225H40.9219C35.0431 175.381 32.0345 163.041 31.958 156.432C31.958 156.065 31.2951 155.479 31.0765 155.551C29.0186 156.138 26.8878 155.919 24.5385 154.889C18.4375 164.803 16.3104 176.921 15.061 193.225Z" fill="#E0E0E0"/>
<mask id="mask2" mask-type="alpha" maskUnits="userSpaceOnUse" x="33" y="113" width="117" height="87">
<path d="M138.41 113.58L43.7084 137.611L33.5098 199.509H91.4234H149.337L138.41 113.58Z" fill="#C4C4C4"/>
</mask>
<g mask="url(#mask2)">
<path d="M425.104 97.2583H27.4487V212.865H425.104V97.2583Z" fill="#B1E869"/>
<rect x="74.4565" y="107.644" width="70.2387" height="13.3918" rx="2.73303" fill="#564394"/>
<rect x="80.1958" y="113.11" width="58.4867" height="2.45972" fill="white"/>
<rect x="96.8672" y="124.862" width="44.0017" height="13.3918" rx="2.73303" fill="#D64B71"/>
<rect x="100.462" y="130.328" width="36.6395" height="2.45972" fill="white"/>
<rect x="72.27" y="142.08" width="66.4125" height="13.3918" rx="2.73303" fill="#A81E63"/>
<rect x="77.6968" y="147.546" width="55.3007" height="2.45972" fill="white"/>
<rect x="144.695" y="124.862" width="67.779" height="13.3918" rx="2.73303" fill="#137F3A"/>
<rect x="144.422" y="142.08" width="80.6242" height="13.3918" rx="2.73303" fill="#C159D8"/>
</g>
<path d="M53.3234 148.122L61.4844 139.825C65.9324 138.416 67.889 137.446 67.5118 136.88C66.915 136.022 65.7155 136.753 65.2518 136.239C64.7146 135.704 65.5605 133.806 66.4357 132.071C67.3108 130.336 66.2724 130.499 65.749 130.729C63.9056 132.114 62.0611 134.035 60.2175 136.487L48.8354 143.487L53.3234 148.122Z" fill="#AC5419"/>
<path d="M27.4014 149.602C29.2371 148.939 31.2222 148.648 33.1308 148.134C36.0702 147.399 38.9331 145.491 41.5046 143.947C42.8997 143.066 55.1672 134.622 55.6079 135.063L61.9274 141.085C53.04 151.073 42.9725 158.93 32.6901 168.331C32.9123 185.881 34.9666 201.45 26.0064 201.45C21.7448 201.45 17.119 201.45 12.1945 201.45C10.2094 188.011 13.7389 173.25 18.8783 160.838C19.4647 159.516 19.9819 158.195 20.5683 156.8C21.5955 154.452 22.9941 152.172 25.1978 150.705C25.8607 150.264 26.6656 149.897 27.4014 149.602Z" fill="#0A54BF"/>
<path d="M258.659 221.252C254.496 221.176 248.894 220.346 242.913 216.559L240.567 221.78C244.654 225.866 250.409 229.197 255.483 229.044C259.493 228.895 261.536 224.129 258.659 221.252Z" fill="#A396C4"/>
<path d="M272.059 251.222L259.493 294.587L253.589 327.207H247.608L253.516 251.222H272.059Z" fill="#E8A16D"/>
<path d="M277.737 251.222C276.83 273.774 277.205 286.037 277.435 288.157C277.661 290.199 278.721 303.897 286.37 327.964H280.159C270.088 304.956 266.533 291.182 265.397 288.157C264.26 285.131 260.855 272.868 255.857 251.222H277.737Z" fill="#E8A16D"/>
<path d="M272.361 251.222C269.105 266.132 263.426 289.97 255.326 322.743H246.621C246.016 289.14 248.74 267.038 253.435 251.222H272.361Z" fill="#564394"/>
<path d="M277.814 251.222C276.98 273.774 279.176 295.952 286.068 323.122H276.754C266.683 300.416 259.416 278.318 254.496 251.222H277.814Z" fill="#3D2884"/>
<path d="M287.201 332.355L286.822 326.832C284.855 327.436 282.356 327.21 279.326 326.151C276.069 328.423 271.983 330.01 267.135 330.844C266.756 330.921 266.53 331.299 266.603 331.602V331.678L267.058 333.342H279.322H286.516L287.201 332.355Z" fill="#564394"/>
<path d="M254.874 332.355L254.495 326.832C252.528 327.436 250.026 327.21 246.999 326.151C243.743 328.423 239.656 330.01 234.812 330.844C234.433 330.921 234.207 331.299 234.28 331.602V331.678L234.736 333.342H246.999H254.193L254.874 332.355Z" fill="#564394"/>
<path d="M265.167 200.061C266.759 198.168 267.819 195.9 267.666 193.402C267.138 186.062 256.914 187.649 254.87 191.359C252.904 195.07 253.129 204.529 255.705 205.133C256.765 205.359 258.884 204.755 261.157 203.393L259.795 213.308H268.049L265.167 200.061Z" fill="#E8A16D"/>
<path d="M262.596 196.049C262.898 195.896 263.201 195.747 263.503 195.747C264.486 195.747 265.244 196.58 265.244 197.487C265.244 198.394 264.789 199.078 264.184 199.38C264.486 199.985 264.865 200.516 265.244 200.593C266.759 200.44 268.65 196.733 268.65 193.704C268.65 190.372 265.998 187.5 261.077 187.5C256.685 187.5 254.943 189.316 254.871 190.904C256.765 191.435 260.094 191.661 264.865 191.585V191.963L260.702 192.342L260.021 194.385C261.234 194.308 261.988 195.066 262.596 196.049Z" fill="#FFCAA7"/>
<mask id="mask3" mask-type="alpha" maskUnits="userSpaceOnUse" x="168" y="176" width="77" height="102">
<path d="M179.877 262.924L168.95 176.995L244.711 190.831V277.488L179.877 262.924Z" fill="#C4C4C4"/>
</mask>
<g mask="url(#mask3)">
<path d="M455.014 156.564H57.3584V272.171H455.014V156.564Z" fill="#B1E869"/>
<rect x="104.366" y="166.95" width="70.2387" height="13.3918" rx="2.73303" fill="#564394"/>
<rect x="126.777" y="184.167" width="44.0017" height="13.3918" rx="2.73303" fill="#D64B71"/>
<rect x="180.618" y="166.95" width="60.9465" height="13.3918" rx="2.73303" fill="#5A483C"/>
<rect x="174.605" y="184.167" width="67.779" height="13.3918" rx="2.73303" fill="#137F3A"/>
<rect x="180.143" y="189.634" width="56.4386" height="2.45972" fill="white"/>
<rect x="174.332" y="201.386" width="80.6242" height="13.3918" rx="2.73303" fill="#C159D8"/>
<rect x="180.919" y="206.852" width="67.1346" height="2.45972" fill="white"/>
<rect x="236.371" y="218.604" width="37.7157" height="13.3918" rx="2.73303" fill="white"/>
<rect x="239.453" y="224.07" width="31.4053" height="2.45972" fill="#5E5E5E"/>
</g>
<path d="M234.43 233.439C232.157 231.775 230.037 230.715 228.147 230.184C224.435 229.124 222.924 228.367 221.106 226.022C220.123 224.81 219.289 222.312 220.199 221.482C220.804 220.95 224.439 223.601 225.954 223.979C227.469 224.282 226.107 220.724 226.861 221.103C227.921 221.103 228.755 222.541 229.513 225.341L234.736 228.218L234.43 233.439Z" fill="#E8A16D"/>
<path d="M253.585 229.579C249.119 230.715 241.7 229.354 231.25 225.643C228.675 231.018 227.465 234.801 227.691 237.146C236.626 241.839 244.348 243.882 250.707 244.034C250.482 247.818 250.933 251.375 252.525 254.63C255.705 261.366 274.179 255.158 280.385 256.37C284.246 243.732 276.75 238.584 276.75 230.486C276.75 221.631 269.633 208.01 268.573 208.01H259.034C258.433 214.746 255.781 222.235 253.585 229.579Z" fill="#BCB1D4"/>
<path d="M499.925 218.915C495.725 219.913 490.385 218.133 486.255 215.427L487.322 210.661C492.946 212.795 497.714 212.584 501.203 211.87C504.055 213.792 503.199 218.133 499.925 218.915Z" fill="#055E5A"/>
<path d="M533.172 265.954C525.272 268.161 518.435 269.3 512.742 269.3C507.046 269.3 501.709 267.593 496.796 264.178C504.554 261.902 510.892 260.762 515.875 260.762C520.857 260.762 526.62 262.47 533.172 265.954Z" fill="#27A8A5"/>
<path d="M505.905 272.432C505.978 272.29 506.047 272.217 506.12 272.075C507.187 269.301 524.059 239.196 525.767 233.647H506.761C505.479 237.846 499.713 264.105 498.93 269.301C496.366 277.555 491.099 304.313 490.458 306.163C489.748 308.085 493.732 310.15 494.799 307.728C496.508 303.887 500.496 293.354 502.274 286.876C503.84 280.97 505.195 275.491 505.905 272.432Z" fill="#FFCAA7"/>
<path d="M521.426 276.131C529.184 278.054 557.449 281.611 559.368 282.179C561.36 282.747 563.142 278.622 560.65 277.766C556.735 276.343 545.913 273.069 539.364 271.718C534.097 270.652 529.257 269.796 526.051 269.228C526.335 260.118 527.545 238.344 526.762 233.647H509.89C510.673 238.13 517.295 271.078 518.574 274.351C519.003 275.563 520.143 276.062 521.426 276.131Z" fill="#FFCAA7"/>
<path d="M560.479 276.608C561.524 276.422 562.245 276.368 562.755 276.422C563.352 276.532 564.187 276.75 565.268 277.136C565.17 277.802 564.081 283.919 562.059 295.407C560.428 295.622 559.634 295.185 559.666 294.165C559.71 293.146 559.765 292.268 559.787 291.544L557.521 282.405C557.485 282.194 557.598 282.03 557.736 282.004L559.131 281.687C559.765 280.781 560.071 280.074 560.184 279.477C560.249 279.033 560.198 278.32 559.954 277.351C559.907 277.071 560.122 276.67 560.479 276.608Z" fill="#055E5A"/>
<path d="M495.867 307.513C496.224 308.511 496.435 309.221 496.435 309.72C496.435 310.288 496.362 311.212 496.151 312.352C495.441 312.352 489.245 312.352 477.571 312.352C477.072 310.786 477.356 309.862 478.427 309.792C479.495 309.65 480.351 309.578 480.992 309.436L489.606 305.591C489.748 305.518 489.963 305.591 490.032 305.733L490.6 307.083C491.598 307.509 492.381 307.724 492.949 307.724C493.448 307.724 494.09 307.509 494.942 307.156C495.299 306.945 495.725 307.156 495.867 307.513C495.867 307.44 495.867 307.513 495.867 307.513Z" fill="#055E5A"/>
<path d="M526.692 233.647C519.287 231.513 512.239 231.513 505.621 233.647C503.344 244.181 497.721 248.306 496.723 264.461C507.901 270.01 521.709 260.478 533.241 265.885C536.588 258.341 531.959 240.052 526.692 233.647Z" fill="#4FD3BC"/>
<mask id="mask4" mask-type="alpha" maskUnits="userSpaceOnUse" x="362" y="141" width="135" height="156">
<path d="M496.803 141.975H387.532L362.035 296.356H496.803V141.975Z" fill="#C4C4C4"/>
</mask>
<g mask="url(#mask4)">
<path d="M532.549 36.0669H134.894V149.761H532.549V36.0669Z" fill="#C9ECF4"/>
<path d="M532.549 149.76H134.894V265.367H532.549V149.76Z" fill="#B1E869"/>
<rect x="325.112" y="160.146" width="37.7157" height="13.3918" rx="2.73303" fill="#1E9ED1"/>
<rect x="276.19" y="132.269" width="115.06" height="21.5909" rx="2.73303" fill="#EDEBEB"/>
<rect x="318.826" y="135.275" width="69.6921" height="15.8515" rx="2.73303" fill="#C6C6C6"/>
<rect x="324.521" y="141.746" width="58.0316" height="2.91151" fill="white"/>
<rect x="323.745" y="177.364" width="61.7664" height="13.3918" rx="2.73303" fill="#47AA0A"/>
<rect x="328.792" y="182.83" width="51.4319" height="2.45972" fill="white"/>
<rect x="338.23" y="194.582" width="65.8659" height="13.3918" rx="2.73303" fill="#C54126"/>
<rect x="343.612" y="200.048" width="54.8455" height="2.45972" fill="white"/>
<rect x="368.84" y="160.146" width="47.5546" height="13.3918" rx="2.73303" fill="#F97319"/>
<rect x="372.726" y="165.612" width="39.598" height="2.45972" fill="white"/>
<rect x="389.338" y="177.364" width="69.9654" height="13.3918" rx="2.73303" fill="#0A54BF"/>
<rect x="395.055" y="182.83" width="58.2592" height="2.45972" fill="white"/>
<rect x="409.835" y="194.582" width="73.2451" height="13.3918" rx="2.73303" fill="#212121"/>
<rect x="415.82" y="200.048" width="60.9901" height="2.45972" fill="white"/>
<rect x="422.407" y="160.146" width="58.76" height="13.3918" rx="2.73303" fill="#187F73"/>
<rect x="427.209" y="165.612" width="48.9286" height="2.45972" fill="white"/>
</g>
<path d="M505.265 193.085C506.474 191.661 507.33 189.881 507.188 187.889C506.762 182.195 498.858 183.476 497.292 186.324C495.725 189.171 495.94 196.5 497.933 196.999C498.716 197.214 500.424 196.715 502.132 195.648L501.065 203.262H507.472L505.265 193.085Z" fill="#FFCAA7"/>
<path d="M503.057 192.728C503.84 194.221 504.98 195.361 506.047 195.361C508.113 195.361 509.606 192.586 509.606 189.597C509.606 189.524 509.606 189.382 509.606 189.313C511.813 190.806 513.521 193.795 516.439 193.795C520.424 193.795 521.99 185.825 516.439 185.825C512.666 185.825 510.815 186.393 509.249 187.176C508.965 186.32 508.466 185.537 507.898 185.042C507.756 184.9 507.541 184.758 507.257 184.616C507.115 184.543 506.9 184.474 506.758 184.401C505.76 184.044 504.408 183.833 502.842 183.76C502.558 183.76 502.274 183.76 501.986 183.76C501.986 182.268 500.777 181.128 499.353 181.128C497.859 181.128 496.719 182.337 496.719 183.76C496.719 185.184 497.859 186.324 499.211 186.393C499.994 186.608 501.061 186.819 502.201 186.892C502.059 187.318 502.059 187.817 502.059 188.315C502.059 188.814 502.132 189.313 502.201 189.808C502.416 189.524 502.769 189.309 503.126 189.309C504.051 189.309 504.692 190.092 504.692 190.875C504.554 191.873 503.913 192.656 503.057 192.728Z" fill="#CB7A43"/>
<path d="M482.27 224.609C480.136 223.612 478.14 223.116 476.432 222.971C473.157 222.756 471.733 222.33 469.81 220.695C468.812 219.839 467.676 217.921 468.317 217.065C468.743 216.497 472.232 218.132 473.514 218.132C474.796 218.132 473.088 215.426 473.798 215.568C474.654 215.426 475.649 216.424 476.716 218.627L481.557 220.12L482.27 224.609Z" fill="#FFCAA7"/>
<path d="M500.639 200.058L508.612 198.419C509.468 198.205 517.725 208.381 519.291 215.711C520.715 222.472 527.833 225.462 526.765 236.632C521.356 236.705 507.046 245.029 503.272 239.978C501.422 237.557 500.424 234.641 499.925 231.44C494.658 232.438 487.894 232.008 479.637 229.66C479.068 227.81 479.422 224.395 480.635 219.483C489.959 220.765 496.366 220.623 499.928 218.915C500.424 212.441 501.349 205.752 500.639 200.058Z" fill="#187F73"/>
</svg>
