<svg width="857" height="593" viewBox="0 0 857 593" fill="none" xmlns="http://www.w3.org/2000/svg">
<path d="M506.637 506.164H408.54L414.982 466.051H500.19L506.637 506.164Z" fill="#EFACBB"/>
<path d="M520.014 510.621H395.163V517.307H520.014V510.621Z" fill="#EFACBB"/>
<path d="M395.163 510.621L408.54 506.164H506.637L520.014 510.621H395.163Z" fill="#DE6B8A"/>
<path d="M277 432.623V457.514C277 462.209 280.812 466.051 285.469 466.051H631.937C636.594 466.051 640.406 462.209 640.406 457.514V432.623H277Z" fill="#DE6B8A"/>
<path d="M640.406 437.08V220.686C640.406 215.91 636.594 212 631.937 212H285.469C280.812 212 277 215.91 277 220.686V437.08H640.406Z" fill="#EFACBB"/>
<path d="M457.589 454.908C461.283 454.908 464.277 451.915 464.277 448.223C464.277 444.53 461.283 441.537 457.589 441.537C453.895 441.537 450.9 444.53 450.9 448.223C450.9 451.915 453.895 454.908 457.589 454.908Z" fill="#EFACBB"/>
<mask id="mask0" mask-type="alpha" maskUnits="userSpaceOnUse" x="289" y="221" width="339" height="206">
<rect x="289.531" y="221.683" width="338.344" height="204.487" fill="#C4C4C4"/>
</mask>
<g mask="url(#mask0)">
<path d="M627.802 243.315H288.962V340.193H627.802V243.315Z" fill="#A4D5EA"/>
<path d="M627.802 340.193H288.962V438.701H627.802V340.193Z" fill="#88C6E3"/>
<path d="M622.445 274.118C622.445 274.118 617.955 273.666 615.049 273.335C614.289 272.982 613.167 272.795 612.11 272.674C611.78 272.266 611.703 271.648 610.866 271.362C609.678 270.965 608.874 271.097 608.467 271.196C608.06 271.296 607.839 268.253 605.143 267.922C602.446 267.591 602.479 267.856 600.74 267.889C600.74 267.889 599.848 265.618 598.043 265.453C596.238 265.287 595.083 266.39 594.862 266.456C594.862 266.456 594.598 265.287 593.828 265.221C593.046 265.155 591.902 265.717 591.902 265.717C590.944 265.045 591.12 264.945 589.832 264.714C588.533 264.482 587.84 265.783 587.84 265.783C587.84 265.783 587.543 265.552 587.136 265.111C586.728 264.681 585.727 264.306 584.659 264.207C583.591 264.108 583.107 265.144 583.063 265.045C583.03 264.945 582.656 264.471 582.105 263.744C581.555 263.005 579.552 262.608 578.297 262.84C577.042 263.071 576.712 264.207 576.712 264.207C576.712 264.207 575.523 263.336 573.311 262.002C571.088 260.668 564.957 260.403 562.029 261.329C559.112 262.266 556.151 266.103 556.151 266.103C556.151 266.103 555.337 265.53 554.897 265.265C554.456 265.001 553.598 264.526 552.343 265.331C551.088 266.136 550.714 267.602 550.714 267.602C550.714 267.602 549.382 266.963 548.601 266.897C547.819 266.831 547.082 266.996 546.124 267.635C545.167 268.275 545.09 270.414 545.09 270.414C544.649 269.984 543.351 269.609 542.536 270.05C541.722 270.48 541.138 272.398 541.138 272.398C538.805 273.004 530.924 274.107 530.924 274.107H535.712C537.231 274.327 538.794 274.57 540.346 274.779C542.019 275.011 543.45 274.68 545.046 274.669C546.256 274.658 547.247 275.022 548.656 275.154C551.474 275.43 554.368 275.783 557.219 275.661C558.782 275.595 559.773 275 561.171 274.702C562.436 274.438 562.965 274.702 564.473 274.989C566.487 275.375 568.534 275.331 570.603 275.331C571.462 275.331 572.364 275.408 573.212 275.298C573.806 275.22 573.927 274.658 574.654 274.691C575.986 274.735 577.053 276.521 578.594 275.154C579.64 275.948 580.388 275.099 581.269 275.033C583.701 274.846 586.332 275.65 588.82 275.672C590.955 275.695 592.914 275.628 594.972 275.209C596.205 274.956 597.647 274.228 598.88 274.162C600.542 274.063 602.886 274.956 604.78 275.011C606.42 275.055 607.983 274.978 609.601 274.713C610.965 274.493 612.451 274.383 613.816 274.129H622.445V274.118Z" fill="#EDEBEB"/>
<path d="M377.223 273.874C377.223 273.874 370.29 272.91 368.239 272.381C368.239 272.381 367.717 270.7 367.008 270.317C366.29 269.933 365.153 270.257 364.759 270.641C364.759 270.641 364.691 268.764 363.845 268.209C362.998 267.655 362.349 267.51 361.665 267.561C360.981 267.621 359.81 268.175 359.81 268.175C359.81 268.175 359.485 266.887 358.374 266.179C357.271 265.48 356.519 265.889 356.126 266.119C355.732 266.35 355.023 266.853 355.023 266.853C355.023 266.853 352.416 263.483 349.843 262.664C347.27 261.845 341.867 262.076 339.918 263.253C337.969 264.422 336.926 265.189 336.926 265.189C336.926 265.189 336.635 264.191 335.524 263.987C334.421 263.782 332.66 264.132 332.173 264.78C331.686 265.428 331.361 265.838 331.327 265.923C331.293 266.008 330.874 265.104 329.925 265.189C328.985 265.275 328.104 265.599 327.745 265.983C327.386 266.367 327.13 266.571 327.13 266.571C327.13 266.571 326.514 265.428 325.369 265.633C324.232 265.838 324.394 265.923 323.548 266.512C323.548 266.512 322.539 266.017 321.855 266.068C321.172 266.128 320.941 267.152 320.941 267.152C320.744 267.092 319.735 266.128 318.145 266.273C316.547 266.418 315.769 268.414 315.769 268.414C314.239 268.389 314.273 268.15 311.897 268.44C309.52 268.73 309.324 271.4 308.965 271.315C308.606 271.229 307.888 271.11 306.845 271.46C305.802 271.809 306.092 272.748 305.22 272.927C304.34 273.106 296.646 273.874 296.646 273.874H304.263C305.571 274.002 306.853 274.181 308.221 274.369C310.367 274.65 312.555 274.096 314.538 274.812C316.615 275.572 318.658 276.203 320.932 276.314C323.035 276.416 324.651 275.409 326.651 275.145C328.497 274.906 329.267 276.425 331.156 276.681C332.319 276.843 334.977 276.228 335.37 275.154C337.063 276.877 338.482 276.015 340.491 275.554C341.747 275.264 342.029 275.597 343.414 276.322C345.115 277.209 346.492 277.662 348.483 277.747C352.373 277.909 355.373 277.559 358.579 275.512C359.117 275.162 359.921 274.352 360.579 274.198C361.34 274.019 362.648 274.514 363.511 274.659C365.383 274.966 366.529 274.573 368.025 274.369C368.546 274.292 372.171 274.718 372.547 273.874H377.223Z" fill="#EDEBEB"/>
<path d="M353.874 339.832C353.861 339.818 353.847 339.804 353.833 339.791C353.847 339.791 353.861 339.791 353.861 339.791C353.861 339.804 353.874 339.818 353.874 339.832Z" fill="white"/>
<rect width="338.84" height="20.4934" transform="matrix(1 0 0 -1 288.962 243.315)" fill="#FBFBFB"/>
<rect x="420.5" y="228.179" width="27.014" height="10.9453" rx="2.79455" fill="#EDEBEB"/>
<rect x="449.377" y="228.179" width="27.014" height="10.9453" rx="2.79455" fill="#EDEBEB"/>
<rect x="478.254" y="228.179" width="41.9183" height="10.9453" rx="2.79455" fill="#EDEBEB"/>
<rect x="522.035" y="228.179" width="28.1784" height="10.9453" rx="2.79455" fill="#939393"/>
<rect x="552.426" y="228.528" width="31.4387" height="10.2467" rx="2.44523" fill="white" stroke="#3A3A3A" stroke-width="0.698638"/>
<rect x="586.077" y="228.179" width="32.1374" height="10.9453" rx="2.79455" fill="#939393"/>
<rect opacity="0.3" x="288.962" y="243.315" width="338.84" height="195.386" fill="#5E5E5E"/>
<rect x="414.484" y="274.754" width="88.0284" height="6.05487" fill="white"/>
<rect x="385.84" y="291.289" width="145.084" height="3.95895" fill="white"/>
<rect x="329.018" y="349.043" width="59.85" height="11.4111" rx="2.32879" fill="#564394"/>
<rect x="333.908" y="353.701" width="49.8362" height="2.09592" fill="white"/>
<rect x="348.113" y="363.715" width="37.4936" height="11.4111" rx="2.32879" fill="#D64B71"/>
<rect x="351.177" y="368.372" width="31.2203" height="2.09592" fill="white"/>
<rect x="327.154" y="378.386" width="56.5897" height="11.4111" rx="2.32879" fill="#A81E63"/>
<rect x="331.778" y="383.043" width="47.1214" height="2.09592" fill="white"/>
<rect x="393.99" y="349.043" width="51.9321" height="11.4111" rx="2.32879" fill="#5A483C"/>
<rect x="398.234" y="353.701" width="43.2431" height="2.09592" fill="white"/>
<rect x="388.867" y="363.715" width="57.7541" height="11.4111" rx="2.32879" fill="#137F3A"/>
<rect x="393.587" y="368.372" width="48.091" height="2.09592" fill="white"/>
<rect x="388.635" y="378.386" width="68.6994" height="11.4111" rx="2.32879" fill="#C159D8"/>
<rect x="394.248" y="383.043" width="57.205" height="2.09592" fill="white"/>
<rect x="451.046" y="349.043" width="32.1374" height="11.4111" rx="2.32879" fill="#1E9ED1"/>
<rect x="453.672" y="353.701" width="26.7603" height="2.09592" fill="white"/>
<rect x="441.498" y="393.058" width="32.1374" height="11.4111" rx="2.32879" fill="white"/>
<rect x="444.124" y="397.715" width="26.7603" height="2.09592" fill="#5E5E5E"/>
<rect x="409.36" y="325.29" width="98.0423" height="18.3975" rx="2.32879" fill="#EDEBEB"/>
<rect x="417.278" y="332.975" width="22.3564" height="3.49319" fill="#5E5E5E"/>
<rect x="445.689" y="327.852" width="59.3843" height="13.507" rx="2.32879" fill="#C6C6C6"/>
<rect x="450.542" y="333.364" width="49.4484" height="2.48088" fill="white"/>
<rect x="449.882" y="363.715" width="52.6308" height="11.4111" rx="2.32879" fill="#47AA0A"/>
<rect x="454.183" y="368.372" width="43.8248" height="2.09592" fill="white"/>
<rect x="462.225" y="378.386" width="56.124" height="11.4111" rx="2.32879" fill="#C54126"/>
<rect x="466.811" y="383.043" width="46.7336" height="2.09592" fill="white"/>
<rect x="488.307" y="349.043" width="40.521" height="11.4111" rx="2.32879" fill="#F97319"/>
<rect x="491.618" y="353.701" width="33.7412" height="2.09592" fill="white"/>
<rect x="505.772" y="363.715" width="59.6171" height="11.4111" rx="2.32879" fill="#0A54BF"/>
<rect x="510.645" y="368.372" width="49.6423" height="2.09592" fill="white"/>
<rect x="523.239" y="378.386" width="62.4117" height="11.4111" rx="2.32879" fill="#212121"/>
<rect x="528.339" y="383.043" width="51.9693" height="2.09592" fill="white"/>
<rect x="533.951" y="349.043" width="50.0691" height="11.4111" rx="2.32879" fill="#187F73"/>
<rect x="538.043" y="353.701" width="41.6918" height="2.09592" fill="white"/>
</g>
<path d="M668.458 342.598C668.458 341.052 669.711 339.798 671.257 339.798H725.379C726.925 339.798 728.179 341.052 728.179 342.598V396.72C728.179 398.266 726.925 399.519 725.379 399.519H671.257C669.711 399.519 668.458 398.266 668.458 396.72V342.598Z" fill="#F9F1FD"/>
<rect x="673.124" y="344.464" width="48.2897" height="5.13224" rx="1.3997" fill="#E0E0E0"/>
<rect x="673.124" y="352.396" width="28.6939" height="5.13224" rx="1.3997" fill="#E0E0E0"/>
<path d="M668.458 388.321H728.179V396.719C728.179 398.266 726.925 399.519 725.379 399.519H671.257C669.711 399.519 668.458 398.266 668.458 396.72V388.321Z" fill="#C159D8"/>
<rect x="696.919" y="391.354" width="28.6939" height="5.13224" rx="1.3997" fill="white"/>
<path d="M794.173 340.634C794.173 339.088 795.426 337.834 796.972 337.834H851.094C852.64 337.834 853.893 339.088 853.893 340.634V394.756C853.893 396.302 852.64 397.555 851.094 397.555H796.972C795.426 397.555 794.173 396.302 794.173 394.756V340.634Z" fill="#F9E8E8"/>
<rect x="798.839" y="342.5" width="48.2897" height="5.13224" rx="1.3997" fill="#E0E0E0"/>
<rect x="798.839" y="350.432" width="28.6939" height="5.13224" rx="1.3997" fill="#E0E0E0"/>
<path d="M794.173 386.357H853.893V394.756C853.893 396.302 852.64 397.555 851.094 397.555H796.972C795.426 397.555 794.173 396.302 794.173 394.756V386.357Z" fill="#E05A3E"/>
<rect x="822.634" y="389.39" width="28.6939" height="5.13224" rx="1.3997" fill="white"/>
<path d="M732.983 340.633C732.983 339.087 734.237 337.834 735.783 337.834H789.905C791.451 337.834 792.704 339.087 792.704 340.633V394.755C792.704 396.301 791.451 397.555 789.905 397.555H735.783C734.237 397.555 732.983 396.301 732.983 394.755V340.633Z" fill="#FFEDED"/>
<rect x="737.649" y="342.5" width="48.2897" height="5.13224" rx="1.3997" fill="#E0E0E0"/>
<rect x="737.649" y="350.431" width="28.6939" height="5.13224" rx="1.3997" fill="#E0E0E0"/>
<path d="M732.983 386.357H792.704V394.755C792.704 396.301 791.451 397.555 789.905 397.555H735.783C734.237 397.555 732.983 396.301 732.983 394.755V386.357Z" fill="#D64B71"/>
<rect x="761.444" y="389.39" width="28.6939" height="5.13224" rx="1.3997" fill="white"/>
<path d="M796.137 470.275C796.137 468.729 797.39 467.476 798.936 467.476H853.058C854.604 467.476 855.857 468.729 855.857 470.275V524.397C855.857 525.943 854.604 527.197 853.058 527.197H798.936C797.39 527.197 796.137 525.943 796.137 524.397V470.275Z" fill="#F9F1FD"/>
<rect x="800.803" y="472.142" width="48.2897" height="5.13224" rx="1.3997" fill="#E0E0E0"/>
<rect x="800.803" y="480.073" width="28.6939" height="5.13224" rx="1.3997" fill="#E0E0E0"/>
<path d="M796.137 515.999H855.857V524.397C855.857 525.943 854.604 527.197 853.058 527.197H798.936C797.39 527.197 796.137 525.943 796.137 524.397V515.999Z" fill="#C159D8"/>
<rect x="824.598" y="519.032" width="28.6939" height="5.13224" rx="1.3997" fill="white"/>
<path d="M668.458 468.312C668.458 466.766 669.711 465.513 671.257 465.513H725.379C726.925 465.513 728.179 466.766 728.179 468.312V522.434C728.179 523.98 726.925 525.233 725.379 525.233H671.257C669.711 525.233 668.458 523.98 668.458 522.434V468.312Z" fill="#EFE8F4"/>
<rect x="673.124" y="470.178" width="48.2897" height="5.13224" rx="1.3997" fill="#E0E0E0"/>
<rect x="673.124" y="478.11" width="28.6939" height="5.13224" rx="1.3997" fill="#E0E0E0"/>
<path d="M668.458 514.036H728.179V522.434C728.179 523.98 726.925 525.233 725.379 525.233H671.257C669.711 525.233 668.458 523.98 668.458 522.434V514.036Z" fill="#705FA4"/>
<rect x="696.919" y="517.068" width="28.6939" height="5.13224" rx="1.3997" fill="white"/>
<path d="M731.02 468.312C731.02 466.766 732.273 465.513 733.819 465.513H787.941C789.487 465.513 790.74 466.766 790.74 468.312V522.434C790.74 523.98 789.487 525.233 787.941 525.233H733.819C732.273 525.233 731.02 523.98 731.02 522.434V468.312Z" fill="#FFEDED"/>
<rect x="735.686" y="470.178" width="48.2897" height="5.13224" rx="1.3997" fill="#E0E0E0"/>
<rect x="735.686" y="478.11" width="28.6939" height="5.13224" rx="1.3997" fill="#E0E0E0"/>
<path d="M731.02 514.036H790.74V522.434C790.74 523.98 789.487 525.233 787.941 525.233H733.819C732.273 525.233 731.02 523.98 731.02 522.434V514.036Z" fill="#D64B71"/>
<rect x="759.48" y="517.068" width="28.6939" height="5.13224" rx="1.3997" fill="white"/>
<path d="M796.137 406.437C796.137 404.891 797.39 403.637 798.936 403.637H853.058C854.604 403.637 855.857 404.891 855.857 406.437V460.558C855.857 462.104 854.604 463.358 853.058 463.358H798.936C797.39 463.358 796.137 462.104 796.137 460.558V406.437Z" fill="#EFE8F4"/>
<rect x="800.803" y="408.303" width="48.2897" height="5.13224" rx="1.3997" fill="#E0E0E0"/>
<rect x="800.803" y="416.234" width="28.6939" height="5.13224" rx="1.3997" fill="#E0E0E0"/>
<path d="M796.137 452.16H855.857V460.558C855.857 462.104 854.604 463.358 853.058 463.358H798.936C797.39 463.358 796.137 462.104 796.137 460.558V452.16Z" fill="#705FA4"/>
<rect x="824.598" y="455.193" width="28.6939" height="5.13224" rx="1.3997" fill="white"/>
<path d="M734.443 407.897C734.443 406.351 735.697 405.098 737.243 405.098H791.365C792.911 405.098 794.164 406.351 794.164 407.897V462.019C794.164 463.565 792.911 464.818 791.365 464.818H737.243C735.697 464.818 734.443 463.565 734.443 462.019V407.897Z" fill="#F9E8E8"/>
<rect x="739.109" y="409.763" width="48.2897" height="5.13224" rx="1.3997" fill="#E0E0E0"/>
<rect x="739.109" y="417.695" width="28.6939" height="5.13224" rx="1.3997" fill="#E0E0E0"/>
<path d="M734.443 453.621H794.164V462.019C794.164 463.565 792.911 464.818 791.365 464.818H737.243C735.697 464.818 734.443 463.565 734.443 462.019V453.621Z" fill="#E05A3E"/>
<rect x="762.904" y="456.653" width="28.6939" height="5.13224" rx="1.3997" fill="white"/>
<path d="M669.918 407.897C669.918 406.351 671.171 405.097 672.717 405.097H726.839C728.385 405.097 729.639 406.351 729.639 407.897V462.018C729.639 463.564 728.385 464.818 726.839 464.818H672.717C671.171 464.818 669.918 463.564 669.918 462.018V407.897Z" fill="#FEEBDE"/>
<rect x="674.584" y="409.763" width="48.2897" height="5.13224" rx="1.3997" fill="#E0E0E0"/>
<rect x="674.584" y="417.694" width="28.6939" height="5.13224" rx="1.3997" fill="#E0E0E0"/>
<path d="M669.918 453.62H729.639V462.018C729.639 463.564 728.385 464.818 726.839 464.818H672.717C671.171 464.818 669.918 463.564 669.918 462.018V453.62Z" fill="#F97319"/>
<rect x="698.379" y="456.653" width="28.6939" height="5.13224" rx="1.3997" fill="white"/>
<path d="M669.918 535.575C669.918 534.029 671.171 532.775 672.717 532.775H726.839C728.385 532.775 729.639 534.029 729.639 535.575V589.697C729.639 591.243 728.385 592.496 726.839 592.496H672.717C671.171 592.496 669.918 591.243 669.918 589.697V535.575Z" fill="#F9F1FD"/>
<rect x="674.584" y="537.441" width="48.2897" height="5.13224" rx="1.3997" fill="#E0E0E0"/>
<rect x="674.584" y="545.373" width="28.6939" height="5.13224" rx="1.3997" fill="#E0E0E0"/>
<path d="M669.918 581.298H729.639V589.697C729.639 591.243 728.385 592.496 726.839 592.496H672.717C671.171 592.496 669.918 591.243 669.918 589.697V581.298Z" fill="#C159D8"/>
<rect x="698.379" y="584.331" width="28.6939" height="5.13224" rx="1.3997" fill="white"/>
<path d="M797.093 535.071C797.093 533.525 798.346 532.272 799.892 532.272H854.014C855.56 532.272 856.813 533.525 856.813 535.071V589.193C856.813 590.739 855.56 591.993 854.014 591.993H799.892C798.346 591.993 797.093 590.739 797.093 589.193V535.071Z" fill="#F9E8E8"/>
<rect x="801.759" y="536.938" width="48.2897" height="5.13224" rx="1.3997" fill="#E0E0E0"/>
<rect x="801.759" y="544.869" width="28.6939" height="5.13224" rx="1.3997" fill="#E0E0E0"/>
<path d="M797.093 580.795H856.813V589.193C856.813 590.739 855.56 591.993 854.014 591.993H799.892C798.346 591.993 797.093 590.739 797.093 589.193V580.795Z" fill="#E05A3E"/>
<rect x="825.554" y="583.828" width="28.6939" height="5.13224" rx="1.3997" fill="white"/>
<path d="M733.071 535.071C733.071 533.525 734.325 532.272 735.871 532.272H789.992C791.539 532.272 792.792 533.525 792.792 535.071V589.193C792.792 590.739 791.539 591.993 789.992 591.993H735.871C734.325 591.993 733.071 590.739 733.071 589.193V535.071Z" fill="#FEEBDE"/>
<rect x="737.737" y="536.938" width="48.2897" height="5.13224" rx="1.3997" fill="#E0E0E0"/>
<rect x="737.737" y="544.869" width="28.6939" height="5.13224" rx="1.3997" fill="#E0E0E0"/>
<path d="M733.071 580.795H792.792V589.193C792.792 590.739 791.539 591.993 789.992 591.993H735.871C734.325 591.993 733.071 590.739 733.071 589.193V580.795Z" fill="#F97319"/>
<rect x="761.532" y="583.828" width="28.6939" height="5.13224" rx="1.3997" fill="white"/>
<path d="M684.615 440.054L683.149 445.709L698.216 441.587L687.102 430.589L685.582 436.342C669.024 431.089 638.649 418.482 607.104 390.279C606.336 389.603 605.193 389.608 604.419 390.322C604.344 390.344 604.366 390.419 604.29 390.441C603.539 391.231 603.662 392.503 604.43 393.179C636.699 421.907 667.712 434.738 684.615 440.054Z" fill="#910940"/>
<path d="M19.5783 110.101L0 163.329L70.3414 189.202L89.9197 135.974L19.5783 110.101Z" fill="#E05A3E"/>
<path d="M30.8547 121.488L16.3527 161.979L15.4912 161.692L29.9932 121.129L30.8547 121.488Z" fill="#F9F9F9"/>
<path d="M37.6755 124.072L23.1017 164.563L22.2402 164.276L36.814 123.713L37.6755 124.072Z" fill="#F9F9F9"/>
<path d="M44.4236 126.657L29.8498 167.148L28.9883 166.861L43.5621 126.298L44.4236 126.657Z" fill="#F9F9F9"/>
<path d="M51.2439 129.242L36.6701 169.732L35.8086 169.445L50.3824 128.883L51.2439 129.242Z" fill="#F9F9F9"/>
<path d="M57.9919 131.826L43.4181 172.317L42.5566 172.03L57.1304 131.467L57.9919 131.826Z" fill="#F9F9F9"/>
<path d="M64.7404 134.411L50.2385 174.973L49.377 174.614L63.8789 134.052L64.7404 134.411Z" fill="#F9F9F9"/>
<path d="M71.5613 136.995L56.9875 177.558L56.126 177.199L70.6998 136.636L71.5613 136.995Z" fill="#F9F9F9"/>
<path d="M78.3093 139.58L63.7355 180.142L62.874 179.783L77.4478 139.292L78.3093 139.58Z" fill="#F9F9F9"/>
<path d="M92.6225 31.7231L65.7109 81.6499L131.69 117.214L158.602 67.2873L92.6225 31.7231Z" fill="#9E2DAD"/>
<path d="M102.216 44.5269L82.0426 82.5767L81.2529 82.146L101.426 44.0962L102.216 44.5269Z" fill="#F9F9F9"/>
<path d="M108.535 48.045L88.4328 86.0948L87.5713 85.664L107.745 47.6143L108.535 48.045Z" fill="#F9F9F9"/>
<path d="M114.924 51.5631L94.7507 89.6129L93.9609 89.1821L114.063 51.1323L114.924 51.5631Z" fill="#F9F9F9"/>
<path d="M121.242 55.0807L101.068 93.1304L100.278 92.6997L120.452 54.6499L121.242 55.0807Z" fill="#F9F9F9"/>
<path d="M127.559 58.5982L107.458 96.648L106.668 96.2173L126.77 58.1675L127.559 58.5982Z" fill="#F9F9F9"/>
<path d="M133.949 62.1163L113.775 100.166L112.985 99.7353L133.087 61.6855L133.949 62.1163Z" fill="#F9F9F9"/>
<path d="M140.267 65.6339L120.093 103.684L119.304 103.253L139.477 65.2031L140.267 65.6339Z" fill="#F9F9F9"/>
<path d="M146.585 69.1519L126.483 107.202L125.693 106.771L145.795 68.7212L146.585 69.1519Z" fill="#F9F9F9"/>
<path d="M56.8423 177.12L29.9307 227.047L95.9099 262.611L122.822 212.684L56.8423 177.12Z" fill="#5EA5EF"/>
<path d="M66.391 189.978L46.2174 228.027L45.4277 227.597L65.6013 189.547L66.391 189.978Z" fill="#F9F9F9"/>
<path d="M72.7089 193.496L52.6071 231.545L51.8174 231.115L71.9191 193.065L72.7089 193.496Z" fill="#F9F9F9"/>
<path d="M79.098 197.014L58.9245 235.064L58.1348 234.633L78.2365 196.583L79.098 197.014Z" fill="#F9F9F9"/>
<path d="M85.4154 200.531L65.3137 238.581L64.4521 238.15L84.6257 200.101L85.4154 200.531Z" fill="#F9F9F9"/>
<path d="M91.7333 204.049L71.6315 242.099L70.8418 241.668L90.9436 203.618L91.7333 204.049Z" fill="#F9F9F9"/>
<path d="M98.1234 207.567L77.9499 245.617L77.1602 245.186L97.3337 207.136L98.1234 207.567Z" fill="#F9F9F9"/>
<path d="M104.441 211.085L84.339 249.134L83.4775 248.704L103.651 210.654L104.441 211.085Z" fill="#F9F9F9"/>
<path d="M110.83 214.603L90.6569 252.652L89.8672 252.222L109.969 214.172L110.83 214.603Z" fill="#F9F9F9"/>
<path d="M80.8759 129.902L89.6611 185.932L163.705 174.322L154.92 118.292L80.8759 129.902Z" fill="#EA6206"/>
<path d="M96.257 134.268L103.293 176.84L102.359 176.984L95.3955 134.483L96.257 134.268Z" fill="#F9F9F9"/>
<path d="M103.437 133.263L110.472 175.764L109.539 175.907L102.575 133.406L103.437 133.263Z" fill="#F9F9F9"/>
<path d="M110.615 132.257L117.651 174.758L116.718 174.902L109.754 132.401L110.615 132.257Z" fill="#F9F9F9"/>
<path d="M117.794 131.181L124.83 173.682L123.896 173.825L116.933 131.324L117.794 131.181Z" fill="#F9F9F9"/>
<path d="M124.974 130.176L132.009 172.677L131.076 172.82L124.112 130.319L124.974 130.176Z" fill="#F9F9F9"/>
<path d="M132.154 129.099L139.189 171.6L138.256 171.743L131.292 129.242L132.154 129.099Z" fill="#F9F9F9"/>
<path d="M139.332 128.094L146.368 170.595L145.435 170.738L138.471 128.237L139.332 128.094Z" fill="#F9F9F9"/>
<path d="M146.511 127.017L153.547 169.517L152.613 169.733L145.649 127.16L146.511 127.017Z" fill="#F9F9F9"/>
<path d="M333.102 36.5561L276.42 38.4663L278.944 113.372L335.626 111.462L333.102 36.5561Z" fill="#D01F67"/>
<path d="M326.924 51.2756L283.849 53.0704L283.777 52.2089L326.853 50.4141L326.924 51.2756Z" fill="#F9F9F9"/>
<path d="M327.067 58.5265L283.992 60.3213V59.4598L326.996 57.665L327.067 58.5265Z" fill="#F9F9F9"/>
<path d="M327.211 65.7775L284.136 67.5723V66.7108L327.139 64.916L327.211 65.7775Z" fill="#F9F9F9"/>
<path d="M327.355 73.0285L284.351 74.8233L284.279 73.9618L327.355 72.167V73.0285Z" fill="#F9F9F9"/>
<path d="M327.499 80.2795L284.496 82.0743L284.424 81.2128L327.499 79.418V80.2795Z" fill="#F9F9F9"/>
<path d="M327.642 87.6022L284.638 89.3253L284.566 88.4637L327.642 86.6689V87.6022Z" fill="#F9F9F9"/>
<path d="M327.857 94.8532L284.782 96.5762V95.7147L327.786 93.9199L327.857 94.8532Z" fill="#F9F9F9"/>
<path d="M328.001 102.104L284.926 103.827V102.966L327.929 101.171L328.001 102.104Z" fill="#F9F9F9"/>
<path d="M196.743 19.0678L143.328 0L118.13 70.5887L171.544 89.6565L196.743 19.0678Z" fill="#FA873A"/>
<path d="M185.494 30.528L144.788 16.3132L145.075 15.4517L185.781 29.6665L185.494 30.528Z" fill="#F9F9F9"/>
<path d="M182.981 37.3483L142.275 23.1335L142.563 22.272L183.269 36.4868L182.981 37.3483Z" fill="#F9F9F9"/>
<path d="M180.469 44.0968L139.763 29.9538L140.05 29.0923L180.756 43.2353L180.469 44.0968Z" fill="#F9F9F9"/>
<path d="M177.884 50.9166L137.25 36.7736L137.537 35.9121L178.243 50.0551L177.884 50.9166Z" fill="#F9F9F9"/>
<path d="M175.372 57.737L134.737 43.5221L135.024 42.6606L175.659 56.8755L175.372 57.737Z" fill="#F9F9F9"/>
<path d="M172.859 64.5578L132.225 50.3429L132.512 49.4814L173.146 63.6245L172.859 64.5578Z" fill="#F9F9F9"/>
<path d="M170.347 71.3058L129.641 57.1628L130 56.3013L170.634 70.4443L170.347 71.3058Z" fill="#F9F9F9"/>
<path d="M167.834 78.1261L127.128 63.9831L127.415 63.1216L168.121 77.2646L167.834 78.1261Z" fill="#F9F9F9"/>
<path d="M277.568 10.7973L221.221 4.36572L212.721 78.8294L269.068 85.261L277.568 10.7973Z" fill="#564394"/>
<path d="M269.275 24.4972L226.415 19.9743L226.487 19.041L269.347 23.5639L269.275 24.4972Z" fill="#F9F9F9"/>
<path d="M268.341 31.6764L225.481 27.1535L225.625 26.2202L268.413 30.8149L268.341 31.6764Z" fill="#F9F9F9"/>
<path d="M267.408 38.9274L224.62 34.3327L224.692 33.3994L267.552 37.9941L267.408 38.9274Z" fill="#F9F9F9"/>
<path d="M266.546 46.1066L223.687 41.5119L223.758 40.6504L266.618 45.1733L266.546 46.1066Z" fill="#F9F9F9"/>
<path d="M265.613 53.2858L222.753 48.7629L222.897 47.8296L265.685 52.3525L265.613 53.2858Z" fill="#F9F9F9"/>
<path d="M264.68 60.465L221.892 55.9421L221.963 55.0088L264.823 59.6035L264.68 60.465Z" fill="#F9F9F9"/>
<path d="M263.819 67.716L220.959 63.1213L221.031 62.188L263.891 66.7827L263.819 67.716Z" fill="#F9F9F9"/>
<path d="M262.885 74.8952L220.025 70.3005L220.169 69.439L262.957 73.9619L262.885 74.8952Z" fill="#F9F9F9"/>
<path d="M239.086 223.652L182.739 217.221L174.24 291.684L230.587 298.116L239.086 223.652Z" fill="#564394"/>
<path d="M230.724 237.361L187.936 232.766L188.007 231.833L230.867 236.427L230.724 237.361Z" fill="#F9F9F9"/>
<path d="M229.862 244.54L187.002 239.945L187.074 239.083L229.934 243.606L229.862 244.54Z" fill="#F9F9F9"/>
<path d="M228.929 251.719L186.069 247.196L186.213 246.263L229.001 250.786L228.929 251.719Z" fill="#F9F9F9"/>
<path d="M227.995 258.898L185.207 254.375L185.279 253.442L228.139 258.037L227.995 258.898Z" fill="#F9F9F9"/>
<path d="M227.133 266.149L184.273 261.554L184.345 260.621L227.205 265.216L227.133 266.149Z" fill="#F9F9F9"/>
<path d="M226.201 273.328L183.341 268.734L183.484 267.872L226.272 272.395L226.201 273.328Z" fill="#F9F9F9"/>
<path d="M225.268 280.507L182.479 275.985L182.551 275.051L225.411 279.574L225.268 280.507Z" fill="#F9F9F9"/>
<path d="M224.406 287.687L181.546 283.164L181.618 282.23L224.478 286.825L224.406 287.687Z" fill="#F9F9F9"/>
<path d="M205.652 46.4868L152.481 66.2295L178.572 136.496L231.743 116.753L205.652 46.4868Z" fill="#E05A3E"/>
<path d="M204.448 62.4035L164.172 77.6952L163.813 76.9055L204.089 61.542L204.448 62.4035Z" fill="#F9F9F9"/>
<path d="M206.889 69.2233L166.614 84.5868L166.255 83.7253L206.53 68.3618L206.889 69.2233Z" fill="#F9F9F9"/>
<path d="M209.33 76.1154L169.054 91.4071L168.695 90.5456L208.971 75.2539L209.33 76.1154Z" fill="#F9F9F9"/>
<path d="M211.771 82.9357L171.496 98.2274L171.137 97.3659L211.412 82.0742L211.771 82.9357Z" fill="#F9F9F9"/>
<path d="M214.211 89.756L173.936 105.048L173.577 104.186L213.852 88.8945L214.211 89.756Z" fill="#F9F9F9"/>
<path d="M216.652 96.5763L176.377 111.868L176.018 111.007L216.293 95.7148L216.652 96.5763Z" fill="#F9F9F9"/>
<path d="M219.093 103.397L178.818 118.688L178.459 117.827L218.734 102.535L219.093 103.397Z" fill="#F9F9F9"/>
<path d="M221.535 110.217L181.259 125.509L180.9 124.719L221.176 109.355L221.535 110.217Z" fill="#F9F9F9"/>
<path d="M97.16 66.591L63.7715 112.44L124.362 156.564L157.75 110.715L97.16 66.591Z" fill="#D01F67"/>
<path d="M104.944 80.5665L79.8883 115.601L79.0986 115.027L104.226 80.064L104.944 80.5665Z" fill="#F9F9F9"/>
<path d="M110.758 84.9459L85.7028 119.909L84.9131 119.406L110.04 84.3716L110.758 84.9459Z" fill="#F9F9F9"/>
<path d="M116.574 89.2535L91.4464 124.288L90.7285 123.714L115.856 88.751L116.574 89.2535Z" fill="#F9F9F9"/>
<path d="M122.389 93.5611L97.2619 128.596L96.5439 128.093L121.671 93.0586L122.389 93.5611Z" fill="#F9F9F9"/>
<path d="M128.205 97.9405L103.077 132.975L102.359 132.401L127.415 97.438L128.205 97.9405Z" fill="#F9F9F9"/>
<path d="M134.02 102.248L108.893 137.283L108.175 136.78L133.23 101.746L134.02 102.248Z" fill="#F9F9F9"/>
<path d="M139.834 106.627L114.707 141.662L113.989 141.087L139.045 106.053L139.834 106.627Z" fill="#F9F9F9"/>
<path d="M145.65 110.935L120.523 145.969L119.805 145.467L144.86 110.432L145.65 110.935Z" fill="#F9F9F9"/>
<path d="M302.416 59.8158L246.987 71.8452L262.884 145.095L318.313 133.065L302.416 59.8158Z" fill="#9E2DAD"/>
<path d="M298.926 75.3976L256.855 84.8742L256.712 84.0127L298.71 74.5361L298.926 75.3976Z" fill="#F9F9F9"/>
<path d="M300.361 82.5051L258.363 91.9816L258.147 91.1201L300.146 81.6436L300.361 82.5051Z" fill="#F9F9F9"/>
<path d="M301.797 89.6125L259.798 99.089L259.583 98.2275L301.581 88.751L301.797 89.6125Z" fill="#F9F9F9"/>
<path d="M303.305 96.7199L261.235 106.196L261.02 105.335L303.09 95.8584L303.305 96.7199Z" fill="#F9F9F9"/>
<path d="M304.74 103.827L262.67 113.304L262.526 112.442L304.525 102.966L304.74 103.827Z" fill="#F9F9F9"/>
<path d="M306.176 110.935L264.177 120.411L263.962 119.55L305.96 110.073L306.176 110.935Z" fill="#F9F9F9"/>
<path d="M307.612 118.042L265.614 127.519L265.398 126.657L307.397 117.181L307.612 118.042Z" fill="#F9F9F9"/>
<path d="M309.048 125.15L267.049 134.626L266.834 133.765L308.904 124.288L309.048 125.15Z" fill="#F9F9F9"/>
<path d="M121.284 234.12L64.5742 233.29L63.4766 308.233L120.187 309.063L121.284 234.12Z" fill="#9E2DAD"/>
<path d="M114.349 248.56L71.2734 248.201V247.34L114.349 247.627V248.56Z" fill="#F9F9F9"/>
<path d="M114.133 255.811L71.0576 255.452V254.591L114.133 254.878V255.811Z" fill="#F9F9F9"/>
<path d="M113.99 263.062L70.915 262.703V261.842L113.99 262.129V263.062Z" fill="#F9F9F9"/>
<path d="M113.773 270.313L70.6982 269.954V269.093L113.773 269.38V270.313Z" fill="#F9F9F9"/>
<path d="M113.559 277.564L70.4834 277.205V276.344L113.559 276.631V277.564Z" fill="#F9F9F9"/>
<path d="M113.415 284.815L70.3398 284.456V283.595L113.415 283.882V284.815Z" fill="#F9F9F9"/>
<path d="M113.199 292.066L70.124 291.707V290.846L113.199 291.133V292.066Z" fill="#F9F9F9"/>
<path d="M112.984 299.317L69.9092 298.958V298.097L112.984 298.384V299.317Z" fill="#F9F9F9"/>
<path d="M179.001 118.332L123.573 130.361L139.47 203.611L194.899 191.581L179.001 118.332Z" fill="#5EA5EF"/>
<path d="M175.515 133.908L133.445 143.385L133.229 142.523L175.3 133.047L175.515 133.908Z" fill="#F9F9F9"/>
<path d="M176.95 141.016L134.952 150.492L134.736 149.631L176.735 140.154L176.95 141.016Z" fill="#F9F9F9"/>
<path d="M178.387 148.123L136.388 157.599L136.173 156.738L178.171 147.261L178.387 148.123Z" fill="#F9F9F9"/>
<path d="M179.822 155.231L137.824 164.707L137.608 163.846L179.679 154.369L179.822 155.231Z" fill="#F9F9F9"/>
<path d="M181.329 162.338L139.259 171.814L139.044 170.953L181.114 161.476L181.329 162.338Z" fill="#F9F9F9"/>
<path d="M182.766 169.445L140.696 178.922L140.553 178.06L182.551 168.583L182.766 169.445Z" fill="#F9F9F9"/>
<path d="M184.202 176.552L142.204 186.029L141.988 185.167L183.987 175.691L184.202 176.552Z" fill="#F9F9F9"/>
<path d="M185.638 183.66L143.639 193.136L143.424 192.275L185.494 182.798L185.638 183.66Z" fill="#F9F9F9"/>
<path d="M230.477 105.878L193.629 148.993L250.607 197.689L287.455 154.573L230.477 105.878Z" fill="#EA6206"/>
<path d="M237.185 120.411L209.473 153.436L208.755 152.789L236.467 119.837L237.185 120.411Z" fill="#F9F9F9"/>
<path d="M242.641 125.222L214.929 158.174L214.211 157.6L241.923 124.647L242.641 125.222Z" fill="#F9F9F9"/>
<path d="M248.097 130.031L220.385 162.984L219.667 162.41L247.379 129.385L248.097 130.031Z" fill="#F9F9F9"/>
<path d="M253.553 134.77L225.841 167.722L225.123 167.148L252.835 134.195L253.553 134.77Z" fill="#F9F9F9"/>
<path d="M259.01 139.58L231.298 172.532L230.58 171.958L258.292 139.005L259.01 139.58Z" fill="#F9F9F9"/>
<path d="M264.466 144.318L236.754 177.271L236.036 176.696L263.748 143.744L264.466 144.318Z" fill="#F9F9F9"/>
<path d="M269.922 149.128L242.21 182.081L241.492 181.506L269.204 148.554L269.922 149.128Z" fill="#F9F9F9"/>
<path d="M275.378 153.866L247.666 186.891L246.948 186.245L274.66 153.292L275.378 153.866Z" fill="#F9F9F9"/>
<path d="M95.5304 167.147L71.2334 218.395L138.959 250.504L163.256 199.256L95.5304 167.147Z" fill="#897AB4"/>
<path d="M105.805 179.496L87.6418 218.551L86.7803 218.192L104.944 179.137L105.805 179.496Z" fill="#F9F9F9"/>
<path d="M112.266 182.655L94.174 221.71L93.3125 221.351L111.476 182.296L112.266 182.655Z" fill="#F9F9F9"/>
<path d="M118.8 185.885L100.636 224.94L99.8467 224.509L118.01 185.455L118.8 185.885Z" fill="#F9F9F9"/>
<path d="M125.332 189.045L107.169 228.099L106.379 227.74L124.47 188.686L125.332 189.045Z" fill="#F9F9F9"/>
<path d="M131.865 192.203L113.701 231.33L112.84 230.899L131.003 191.844L131.865 192.203Z" fill="#F9F9F9"/>
<path d="M138.327 195.434L120.236 234.489L119.374 234.13L137.537 195.003L138.327 195.434Z" fill="#F9F9F9"/>
<path d="M144.859 198.593L126.696 237.648L125.906 237.289L144.07 198.234L144.859 198.593Z" fill="#F9F9F9"/>
<path d="M151.393 201.823L133.229 240.878L132.439 240.447L150.531 201.393L151.393 201.823Z" fill="#F9F9F9"/>
<path d="M172.829 215.213L134.387 256.917L189.498 307.718L227.94 266.015L172.829 215.213Z" fill="#F97319"/>
<path d="M178.962 230.038L150.029 261.913L149.312 261.339L178.244 229.392L178.962 230.038Z" fill="#F9F9F9"/>
<path d="M184.202 234.991L155.27 266.939L154.624 266.293L183.556 234.417L184.202 234.991Z" fill="#F9F9F9"/>
<path d="M189.515 240.017L160.511 271.893L159.865 271.319L188.797 239.371L189.515 240.017Z" fill="#F9F9F9"/>
<path d="M194.756 244.971L165.823 276.918L165.105 276.272L194.109 244.396L194.756 244.971Z" fill="#F9F9F9"/>
<path d="M200.069 249.996L171.065 281.872L170.419 281.226L199.351 249.35L200.069 249.996Z" fill="#F9F9F9"/>
<path d="M205.309 254.95L176.377 286.825L175.659 286.251L204.663 254.304L205.309 254.95Z" fill="#F9F9F9"/>
<path d="M210.622 259.903L181.618 291.851L180.972 291.205L209.904 259.329L210.622 259.903Z" fill="#F9F9F9"/>
<path d="M215.863 264.929L186.931 296.804L186.213 296.158L215.217 264.283L215.863 264.929Z" fill="#F9F9F9"/>
<path d="M158.896 260.916L103.468 272.946L119.365 346.195L174.793 334.166L158.896 260.916Z" fill="#770649"/>
<path d="M155.413 276.559L113.343 286.036L113.128 285.103L155.198 275.626L155.413 276.559Z" fill="#F9F9F9"/>
<path d="M156.848 283.667L114.778 293.143L114.635 292.21L156.633 282.733L156.848 283.667Z" fill="#F9F9F9"/>
<path d="M158.285 290.774L116.287 300.25L116.071 299.317L158.07 289.84L158.285 290.774Z" fill="#F9F9F9"/>
<path d="M159.721 297.882L117.722 307.358L117.507 306.425L159.505 296.948L159.721 297.882Z" fill="#F9F9F9"/>
<path d="M161.156 304.988L119.158 314.465L118.942 313.532L161.013 304.055L161.156 304.988Z" fill="#F9F9F9"/>
<path d="M162.664 312.096L120.594 321.572L120.379 320.639L162.449 311.163L162.664 312.096Z" fill="#F9F9F9"/>
<path d="M164.1 319.204L122.102 328.68L121.887 327.747L163.885 318.271L164.1 319.204Z" fill="#F9F9F9"/>
<path d="M165.536 326.311L123.538 335.787L123.322 334.854L165.321 325.377L165.536 326.311Z" fill="#F9F9F9"/>
<path d="M216.231 151.328L166.622 178.812L202.943 244.372L252.552 216.888L216.231 151.328Z" fill="#1174BA"/>
<path d="M217.371 167.363L179.895 188.542L179.393 187.752L216.94 166.574L217.371 167.363Z" fill="#F9F9F9"/>
<path d="M220.816 173.753L183.34 194.931L182.838 194.07L220.385 172.963L220.816 173.753Z" fill="#F9F9F9"/>
<path d="M224.262 180.142L186.715 201.321L186.284 200.459L223.831 179.353L224.262 180.142Z" fill="#F9F9F9"/>
<path d="M227.708 186.532L190.161 207.711L189.73 206.849L227.278 185.742L227.708 186.532Z" fill="#F9F9F9"/>
<path d="M231.155 192.921L193.608 214.028L193.177 213.238L230.724 192.131L231.155 192.921Z" fill="#F9F9F9"/>
<path d="M234.6 199.311L197.053 220.418L196.622 219.628L234.169 198.521L234.6 199.311Z" fill="#F9F9F9"/>
<path d="M238.046 205.7L200.499 226.807L200.068 226.017L237.544 204.911L238.046 205.7Z" fill="#F9F9F9"/>
<path d="M241.493 212.09L203.945 233.196L203.515 232.407L240.99 211.228L241.493 212.09Z" fill="#F9F9F9"/>
<path d="M370.79 102.953L316.439 86.7383L295.011 158.564L349.362 174.779L370.79 102.953Z" fill="#897AB4"/>
<path d="M360.236 114.955L318.812 102.966L319.1 102.104L360.452 114.093L360.236 114.955Z" fill="#F9F9F9"/>
<path d="M358.083 121.919L316.659 109.929L316.946 109.068L358.299 121.057L358.083 121.919Z" fill="#F9F9F9"/>
<path d="M355.929 128.811L314.505 116.821L314.792 115.96L356.144 127.949L355.929 128.811Z" fill="#F9F9F9"/>
<path d="M353.704 135.775L312.352 123.785L312.639 122.852L353.991 134.913L353.704 135.775Z" fill="#F9F9F9"/>
<path d="M351.549 142.666L310.197 130.677L310.484 129.815L351.837 141.805L351.549 142.666Z" fill="#F9F9F9"/>
<path d="M349.396 149.63L308.044 137.641L308.331 136.708L349.683 148.697L349.396 149.63Z" fill="#F9F9F9"/>
<path d="M347.243 156.522L305.891 144.533L306.106 143.671L347.53 155.661L347.243 156.522Z" fill="#F9F9F9"/>
<path d="M345.089 163.486L303.736 151.497L303.952 150.563L345.376 162.553L345.089 163.486Z" fill="#F9F9F9"/>
<path d="M285.214 289.984L282.486 294.579L296.773 294.794L289.809 282.302L287.009 286.969C273.799 278.139 250.323 259.329 229.791 226.52C229.288 225.73 228.283 225.443 227.421 225.874C227.35 225.874 227.35 225.946 227.278 225.946C226.416 226.448 226.201 227.597 226.704 228.387C247.739 261.842 271.717 281.01 285.214 289.984Z" fill="#910940"/>
<path d="M375.168 212.592C374.953 196.439 371.794 165.856 355.067 130.103C354.636 129.242 353.559 128.811 352.697 129.242C351.836 129.672 351.405 130.749 351.836 131.611C368.276 166.645 371.363 196.511 371.579 212.449L366.194 212.305L372.943 224.94L380.481 212.808L375.168 212.592Z" fill="#910940"/>
<path d="M305.172 228.315C299.07 213.597 286.291 186.029 265.399 154.584C264.825 153.723 263.748 153.507 262.887 154.082C262.025 154.656 261.81 155.733 262.384 156.594C283.06 187.824 295.696 215.105 301.798 229.679L296.772 231.617L307.972 240.591L310.126 226.448L305.172 228.315Z" fill="#910940"/>
</svg>
