<svg width="326" height="160" viewBox="0 0 326 160" fill="none" xmlns="http://www.w3.org/2000/svg">
<path d="M78.3174 40.5726C78.4627 40.4273 78.6079 40.2334 78.7531 40.0881C79.1403 39.8458 79.2855 39.2644 79.9148 39.4097C80.5924 42.2685 81.7541 44.8851 83.1578 47.4532C83.303 47.5985 83.4482 47.7439 83.5935 47.8892C84.1743 48.3738 85.1424 48.6161 85.1424 49.5367C85.1908 51.6202 86.3041 51.4264 87.6594 50.7481C89.4503 50.0697 90.7572 50.9903 92.0641 51.9594C92.3062 52.6862 91.5801 53.2192 91.6285 53.9945C93.371 53.8976 94.9684 54.1883 96.5657 53.6069C96.9529 53.4615 97.3886 53.3161 97.7758 53.2192C98.4534 53.7038 99.1311 54.2368 99.4215 55.1089C99.5667 55.3028 99.7119 55.4481 99.8572 55.6419V55.5935C99.8572 56.1265 99.8572 56.7079 99.8572 57.2409C99.5183 57.2409 99.2279 57.3379 99.0343 57.677L99.0827 57.6286C97.7274 58.2585 98.8891 59.276 98.6471 60.0998C97.5822 60.5358 96.0332 60.7781 97.7274 62.3771C97.8726 62.5225 97.921 63.007 97.8242 63.1524C96.6625 64.606 98.1146 66.3019 97.3886 67.804C97.0981 68.4339 97.5338 68.7731 97.7758 69.2576C99.2279 72.2618 100.002 75.3629 99.0827 78.7062C96.9529 78.5609 95.2104 79.4331 93.6131 80.7413C93.5646 80.7898 93.4678 80.8382 93.4678 80.8867C94.1939 83.8909 91.2897 83.0187 90.128 83.9878C89.9828 84.1331 89.886 84.23 89.7407 84.3754C89.5955 84.5208 89.4503 84.6661 89.3051 84.8115C88.3854 84.9569 87.369 84.5208 86.4977 85.1991C84.7067 85.0053 82.9158 84.7146 81.2217 85.5868C80.6892 84.8115 80.1084 84.8115 79.5759 85.5868C78.1238 85.7321 76.7201 85.7806 75.51 84.8115C75.0744 84.0362 74.5419 83.4063 73.7191 82.8733C72.9446 82.3888 72.267 81.7589 72.0733 80.3537C71.8313 78.464 70.2824 76.6227 68.9755 74.9752C68.3462 74.2 67.4266 75.266 66.6521 75.5567C65.5388 75.6052 64.716 75.6052 64.4739 74.0062C64.3287 73.134 63.1186 72.2618 61.8117 72.2618C61.6665 71.0504 61.7633 69.8391 62.199 68.6277C62.3442 67.9494 62.5862 67.2225 62.6346 66.5442C62.7798 63.9277 65.0064 63.8792 66.6521 62.8617C68.1526 61.941 69.8952 60.6812 69.8952 58.4523C70.8148 58.5977 71.1537 58.1616 71.0569 57.2409C72.0249 56.5626 70.9116 55.5935 71.4441 54.8667C72.6058 53.2677 71.5409 52.3955 70.3308 51.6202C70.4276 50.7481 70.6696 50.0697 71.6377 49.6336C73.235 48.9552 72.993 47.5016 72.3154 46.4356C70.6696 43.916 70.5728 43.9644 73.3802 43.0438C73.8159 42.8984 74.2515 42.7531 74.7355 42.6077C75.4132 42.2201 76.1393 42.8015 76.8169 42.6077C77.6882 42.4139 78.6079 42.2685 77.9302 41.0087C78.027 40.8149 78.1722 40.718 78.3174 40.5726Z" fill="#BCB1D4"/>
<path d="M121.155 128.469C119.461 127.936 120.574 126.046 119.557 125.174C119.025 124.641 118.493 124.157 117.96 123.624C116.895 123.091 115.782 123.139 114.717 123.624C114.572 124.544 114.136 124.593 113.507 124.011C113.362 123.866 113.217 123.769 113.12 123.624C111.038 123.866 111.571 122.315 111.474 121.152C111.329 121.007 111.184 120.862 111.087 120.765C110.603 120.474 110.7 119.989 110.651 119.553C110.361 119.36 110.264 119.069 110.264 118.73C110.119 118.584 109.973 118.439 109.877 118.342C109.296 117.228 109.489 115.774 108.279 114.902C107.311 114.175 106.488 113.303 105.182 114.078C104.455 114.466 103.971 114.078 103.826 113.4C103.342 111.074 102.326 112.091 101.309 112.964C101.067 113.157 100.777 113.303 100.486 113.448C99.8571 113.448 99.8571 114.127 99.4215 114.32C99.3246 115.192 99.1794 116.016 98.5986 116.743C98.5018 117.034 98.5502 117.47 98.0662 117.373C97.9209 117.324 97.8725 116.985 97.7273 116.743C97.1465 116.21 97.4369 115.289 96.9045 114.708C96.8561 114.611 96.8076 114.563 96.7592 114.466C96.7592 114.466 96.8561 114.417 96.8561 114.369C94.6779 111.849 94.9199 112.043 93.4678 114.272C92.9353 115.047 92.5481 115.919 92.1125 116.695C91.9189 117.761 91.2412 118.051 90.3699 117.761C89.6923 117.567 89.063 117.47 88.4338 117.518C88.2886 117.857 88.1434 117.809 87.9981 117.47C87.9981 115.386 87.0785 113.545 86.7396 111.558C84.6583 111.752 82.5769 112.673 80.7376 110.589C80.0599 109.814 78.4142 110.396 78.511 111.558C78.7046 114.078 76.9137 115.192 75.7036 116.888C74.8323 118.1 72.8961 118.875 73.5254 120.813C73.9126 122.073 73.8642 122.751 72.3153 122.751C71.5408 122.751 71.8797 123.236 72.0249 123.672C72.6057 125.465 70.3307 128.517 68.5398 128.324C66.2648 128.081 64.3287 129.487 62.1505 129.583C61.4244 129.632 61.134 132.152 60.0207 129.971C59.9239 130.02 59.7787 130.116 59.6819 130.165C56.7777 131.134 57.9878 133.896 57.3101 135.786C56.8745 137.045 58.375 136.803 59.101 137.094C59.3431 137.191 59.4883 137.482 59.6335 137.675C59.7787 139.904 58.133 141.988 59.2463 144.265C59.101 144.411 58.9558 144.556 58.8106 144.701C58.4718 145.331 57.891 145.816 57.9878 146.639C57.8425 147.027 57.5521 147.269 57.1649 147.463C57.1649 148.674 56.6809 149.934 57.6005 151.049C58.9558 151.776 59.7303 153.568 61.6665 153.035C63.651 152.648 65.5872 153.423 67.5717 153.423C69.5563 153.423 69.8467 152.793 69.2175 151.146C69.6047 150.758 69.5079 150.128 70.6212 150.467C72.9445 151.243 74.8807 153.084 77.5429 152.842C77.6881 152.842 77.9786 153.035 77.9786 153.181C78.3658 155.313 79.4791 154.683 80.6892 153.908C80.7376 155.022 82.5769 154.392 82.3833 155.458C81.9961 157.348 83.1578 157.154 84.2711 157.202C84.4163 158.026 85.1907 158.365 85.578 159.044C86.1104 159.916 86.9817 159.964 87.5141 158.801C88.2402 158.608 89.0146 158.365 89.7407 158.172C91.58 159.48 93.4678 160.158 95.4523 158.414C95.5491 158.365 95.6944 158.414 95.8396 158.414C95.9364 158.414 95.9848 158.365 96.0332 158.268C97.3401 157.929 98.5986 157.009 99.9539 158.22C100.244 158.462 100.825 158.22 100.97 157.832C101.067 157.542 100.825 157.202 100.486 157.057C98.647 153.229 98.3566 149.498 100.486 145.573C102.084 142.666 105.327 142.182 107.36 140.05C107.65 139.904 107.844 139.71 107.747 139.371C108.57 139.517 109.054 138.935 109.538 138.451C110.264 137.724 111.087 137.288 112.152 137.336C112.733 138.063 112.684 139.468 114.185 139.226C114.136 139.177 114.088 139.081 114.088 139.032C114.765 137.433 116.508 136.755 117.282 135.156C117.476 134.768 118.686 134.138 119.122 133.314C119.17 132.636 118.783 131.861 119.509 131.328L119.557 131.279C119.896 130.601 120.332 130.116 121.155 130.068C121.203 129.535 121.155 129.002 121.155 128.469ZM111.377 136.706C111.329 136.706 111.28 136.755 111.232 136.755C111.28 136.706 111.329 136.706 111.377 136.706ZM111.135 136.755C110.942 136.803 110.796 136.9 110.603 136.949C110.796 136.9 110.942 136.852 111.135 136.755Z" fill="#BCB1D4"/>
<path d="M88.3853 117.566C88.4328 117.566 88.4328 117.518 88.3853 117.566V117.566Z" fill="#BCB1D4"/>
<path d="M149.907 102.206C149.665 101.867 149.084 101.867 149.036 101.286C148.552 100.559 149.81 99.0085 147.922 98.8631C146.083 97.0703 146.18 96.5857 148.503 95.5197C148.6 95.4713 148.697 95.3259 148.794 95.229C149.326 94.4053 150.342 93.5816 148.794 92.7578C148.987 92.3218 148.697 92.1279 148.406 91.9341C148.358 91.4011 147.922 91.4011 147.583 91.2073C145.502 89.9475 146.809 87.9124 146.712 86.3134C146.615 84.666 146.131 84.5691 144.921 84.6175C144.195 84.666 143.324 84.4237 142.743 84.666C141.533 85.199 139.597 85.0051 139.5 86.8464C139.403 88.9784 138.532 89.8506 136.305 89.463C136.305 89.2207 136.354 88.93 136.354 88.6877C138.242 88.2516 138.968 86.798 137.951 85.3443C137.951 85.2474 137.903 85.1505 137.903 85.0536C137.225 85.0536 136.838 85.5381 136.451 86.0227C135.434 87.5248 134.321 88.6877 132.481 87.0402C132.191 86.798 131.804 86.8464 131.562 87.0402C130.061 88.2516 129.238 87.0402 128.609 86.0711C127.932 85.0536 126.77 84.5206 126.189 83.4546C125.85 83.6 125.463 83.7453 125.124 83.8422C125.027 83.8422 124.93 83.8907 124.834 83.8907C124.93 83.8907 125.027 83.8907 125.124 83.8422C125.463 83.7453 125.85 83.6 126.189 83.4546C125.366 82.7762 124.592 83.7938 123.769 83.4546C123.478 82.9701 123.188 83.067 122.946 83.4546C122.22 84.133 122.123 85.0051 122.123 85.8773C122.268 86.8464 121.349 87.4763 121.3 88.3969C121.01 88.4454 120.719 89.1238 120.623 88.7846C120.235 86.3619 118.638 87.3794 117.331 87.5248C116.653 87.4279 116.411 87.9609 116.169 88.4454C115.54 89.5114 114.62 89.6568 113.556 89.4145C113.023 89.2691 112.587 89.1722 112.007 89.2691C110.216 89.5599 109.828 89.0269 110.409 87.1371C111.716 86.1681 111.329 85.0051 110.845 83.8422C110.119 83.4062 109.393 83.0185 108.473 83.067C107.795 82.0494 107.699 80.6927 106.779 79.7721C106.489 79.4813 106.198 78.8999 105.908 79.336C104.843 80.9834 103.584 79.6752 102.374 79.7236C102.229 79.4813 102.035 79.336 101.89 79.7236H101.842C101.309 79.7236 100.825 79.7236 100.293 79.7236H100.245C100.099 79.5783 100.002 79.4813 99.8573 79.336H99.8089C99.6636 79.1906 99.5668 79.0937 99.4216 78.9483C99.2764 78.803 99.1796 78.7061 99.0344 78.5607C96.9046 78.4154 95.1621 79.2875 93.5648 80.5958C93.5164 80.6443 93.4196 80.6927 93.4196 80.7412C94.1456 83.7453 91.2414 82.8732 90.0797 83.8422C89.9345 83.9876 89.8377 84.0845 89.6925 84.2299C89.5472 84.3752 89.402 84.5206 89.3052 84.6175C88.3856 84.7629 87.3691 84.3268 86.4978 85.0051C87.4175 85.0051 88.3856 85.0051 89.3052 85.0536C89.3052 84.9082 89.3052 84.7629 89.3052 84.6175C89.3052 84.7629 89.3052 84.9082 89.3052 85.0536C89.3052 85.1505 89.3052 85.2474 89.3052 85.3443C89.4504 85.8289 89.5957 86.3619 90.0797 86.6526C90.5153 87.1856 91.0962 87.3794 91.7254 87.4763C92.4999 88.3 92.5483 89.4145 92.9355 90.3836C93.71 92.4187 93.1291 93.9208 91.677 95.3259C91.435 95.5197 90.951 95.8105 91.193 96.0527C92.4999 97.4095 91.677 99.2023 92.2095 100.656C92.5967 101.77 92.0642 102.739 92.2095 103.757C92.3063 104.338 91.2414 103.612 90.6605 103.709C90.5637 103.709 90.3217 103.805 90.3217 103.854C90.4669 105.55 88.2887 105.937 88.2887 107.779C88.2887 108.893 87.7079 110.395 86.7882 111.461C87.1271 113.448 88.0467 115.338 88.0467 117.373C88.1919 117.663 88.2887 117.76 88.4824 117.421C89.16 117.373 89.7893 117.421 90.4185 117.663C91.2898 117.954 92.0158 117.663 92.1611 116.597C92.5967 115.774 93.0323 114.95 93.5164 114.175C94.9685 111.946 94.7265 111.752 96.9046 114.272C96.8562 114.32 96.7594 114.369 96.8078 114.369C96.8562 114.465 96.9046 114.514 96.953 114.611C97.4855 115.192 97.1467 116.113 97.7759 116.646C97.8727 116.84 97.9695 117.227 98.1147 117.276C98.5504 117.373 98.5504 116.937 98.6472 116.646C99.228 115.919 99.3248 115.095 99.47 114.223C99.9057 114.029 99.9057 113.303 100.535 113.351C100.825 113.206 101.116 113.06 101.358 112.866C102.374 112.043 103.391 110.977 103.875 113.303C104.02 113.932 104.504 114.368 105.23 113.981C106.585 113.254 107.36 114.126 108.328 114.805C109.538 115.677 109.344 117.13 109.925 118.245C110.07 118.39 110.216 118.536 110.312 118.632C110.361 118.972 110.409 119.262 110.7 119.456C110.748 119.892 110.651 120.377 111.135 120.668C111.281 120.813 111.377 120.91 111.523 121.055C111.619 122.17 111.039 123.72 113.168 123.526C113.314 123.672 113.41 123.769 113.556 123.914C114.185 124.495 114.62 124.447 114.766 123.526C115.831 123.042 116.944 123.042 118.009 123.526C118.541 124.059 119.074 124.544 119.606 125.077C119.703 124.544 119.219 123.866 120.042 123.526C120.38 123.429 120.768 123.478 120.865 123.866C121.252 125.368 122.026 124.883 122.849 124.35C123.769 123.769 124.737 124.156 125.705 124.302C125.753 124.883 125.899 125.319 126.673 125.271C127.399 125.222 128.077 125.465 128.706 125.949C129.722 126.773 131.707 126.724 132.191 125.755C132.82 124.495 131.901 123.623 130.933 123.236C129.432 122.557 129.142 121.685 129.819 120.28C130.061 120.28 130.303 120.28 130.545 120.28H130.594C131.707 120.861 132.239 120.668 131.949 119.311C131.755 118.293 131.997 117.566 133.111 117.421C133.595 117.373 133.788 117.033 133.788 116.597C135.531 114.756 137.564 113.399 140.226 113.399C140.517 113.69 140.855 113.787 141.001 113.351C141.243 112.576 141.243 111.752 140.323 111.316V111.267C140.371 110.492 139.936 110.686 139.548 110.88C139.403 110.589 139.306 110.347 139.161 110.056C139.161 109.959 139.21 109.862 139.21 109.765C139.5 109.572 139.597 109.232 139.548 108.893C139.936 108.893 140.323 108.893 140.71 108.893C140.904 109.862 141.243 110.492 142.307 109.717L142.356 109.668C142.888 109.426 143.421 109.135 143.953 108.893C144.195 109.135 144.437 109.378 144.679 109.62C144.873 108.99 145.212 107.876 145.744 108.215C147.245 109.184 147.825 107.779 148.842 107.44C150.149 107.003 150.439 105.986 151.02 104.92C151.601 103.563 150.439 103.03 149.907 102.206ZM90.7573 117.13C90.8542 117.13 90.9026 117.13 90.9994 117.13C90.9026 117.13 90.8057 117.13 90.7573 117.13ZM109.441 83.8422C109.586 83.8907 109.78 83.8907 109.974 83.8907C109.78 83.8907 109.635 83.8907 109.441 83.8422ZM110.651 86.0227C110.651 85.9258 110.651 85.7804 110.7 85.6835C110.651 85.8289 110.651 85.9258 110.651 86.0227ZM110.7 85.1505C110.7 85.0051 110.7 84.8598 110.7 84.7144C110.7 84.9082 110.7 85.0051 110.7 85.1505ZM110.651 83.9391C110.458 83.9391 110.264 83.9391 110.022 83.9391C110.264 83.9391 110.458 83.9391 110.651 83.9391ZM120.719 89.366C120.671 89.4145 120.574 89.4629 120.526 89.5114C120.574 89.5114 120.623 89.4629 120.719 89.366ZM120.816 89.2207C120.768 89.2691 120.768 89.3176 120.719 89.366C120.768 89.3176 120.816 89.2691 120.816 89.2207ZM120.671 123.284C120.816 123.333 120.961 123.429 121.107 123.526C120.961 123.429 120.816 123.333 120.671 123.284ZM140.323 112.14C140.42 112.527 140.516 112.915 140.323 113.303C140.516 112.915 140.42 112.527 140.323 112.14C140.323 112.043 140.274 111.946 140.274 111.897C140.274 111.946 140.323 112.043 140.323 112.14ZM136.015 97.6033C135.918 97.5548 135.821 97.5064 135.676 97.4579C135.821 97.5064 135.918 97.5548 136.015 97.6033ZM142.549 109.087C142.598 109.039 142.646 108.99 142.695 108.942C142.646 108.99 142.598 109.039 142.549 109.087Z" fill="#D6CDE4"/>
<path d="M148.842 67.2233C148.89 67.2717 148.842 67.3202 148.842 67.3202C148.842 67.3202 148.842 67.2717 148.89 67.2717C148.067 67.0295 148.116 67.6109 148.067 68.0955C147.922 67.8532 147.051 68.2893 147.487 67.3686C148.116 66.0604 149.374 65.4305 150.294 64.4614C149.471 63.783 148.503 63.25 149.036 61.8448C149.229 61.3118 148.648 60.8273 148.164 60.6335C147.245 60.3428 146.615 59.5675 145.841 59.0829C144.873 58.5015 144.147 56.9509 142.598 58.1623C142.307 58.4046 142.017 57.8231 141.775 57.8231C139.694 57.4355 137.709 55.3035 135.482 57.1932C134.369 58.1623 132.869 59.0829 132.578 60.585C131.997 63.4438 128.658 61.4088 127.738 63.5407C127.689 63.7346 126.963 63.8315 126.867 63.7346C125.995 62.5232 124.543 62.6201 123.382 61.9902C122.704 61.651 122.462 60.7304 122.607 60.5366C124.011 58.0169 121.107 57.7747 120.429 56.4179C120.187 55.9334 119.122 55.6427 118.59 56.0788C116.46 57.7262 113.846 57.0479 111.523 57.5809C110.312 57.8231 109.49 57.1932 109.006 56.1272C108.425 54.8674 108.279 53.22 106.343 53.1715C106.005 53.1715 105.763 52.7839 105.811 52.3962C106.101 51.1364 105.133 50.4096 104.552 49.5374C104.02 49.4405 103.488 49.2952 102.955 49.1982C102.471 49.6828 101.793 49.5374 101.261 49.5374C99.954 49.5374 98.8891 49.5859 98.8407 51.3787C98.8407 52.0086 98.0663 52.59 97.6791 53.1715C98.3567 53.656 99.0344 54.189 99.3248 55.0612C99.47 55.2066 99.6152 55.4004 99.7604 55.5458C99.7604 56.0788 99.7604 56.6602 99.7604 57.1932C99.4216 57.1932 99.1312 57.2901 98.9376 57.5809C97.5822 58.2108 98.7923 59.2283 98.5503 60.0036C97.4854 60.4397 95.9365 60.6819 97.6306 62.2809C97.7759 62.4263 97.8243 62.9108 97.7275 63.0562C96.5658 64.5098 98.0179 66.2057 97.2918 67.7078C97.0014 68.3377 97.437 68.6769 97.6791 69.1614C99.1312 72.1656 99.9056 75.2667 98.986 78.6101C99.1312 78.7554 99.228 78.8523 99.3732 78.9977C99.5184 79.1431 99.6152 79.24 99.7604 79.3853C99.9056 79.5307 100.002 79.6276 100.148 79.773H100.196C100.728 79.773 101.213 79.773 101.745 79.773H101.793C101.939 79.3853 102.132 79.5307 102.277 79.773C103.439 79.7245 104.746 81.0328 105.811 79.3853C106.101 78.9492 106.44 79.5307 106.682 79.8214C107.602 80.7421 107.65 82.0988 108.376 83.1163C109.248 83.0679 110.022 83.4555 110.748 83.8916C111.281 85.103 111.668 86.2659 110.312 87.2349C109.732 89.0762 110.119 89.6577 111.91 89.3669C112.491 89.27 112.926 89.3669 113.459 89.5123C114.524 89.7546 115.492 89.6092 116.073 88.5432C116.315 88.1071 116.557 87.5257 117.234 87.6226C118.541 87.4288 120.138 86.4597 120.526 88.8824C120.574 89.1731 120.913 88.5432 121.203 88.4948C121.252 87.5741 122.171 86.9442 122.026 85.9751C122.026 85.0545 122.123 84.1823 122.849 83.5524C123.139 83.1648 123.382 83.0679 123.672 83.5524C124.495 83.94 125.318 82.874 126.092 83.5524C126.625 84.6669 127.835 85.1514 128.512 86.1689C129.142 87.138 129.964 88.3494 131.465 87.138C131.707 86.9442 132.143 86.8958 132.385 87.138C134.224 88.8339 135.337 87.6226 136.354 86.1205C136.693 85.6359 137.08 85.1514 137.806 85.1514C138.048 83.0194 138.048 80.839 140.855 80.1121C141.92 79.8214 142.501 78.8523 142.356 77.5441C142.259 76.7688 142.114 75.8966 142.888 75.3152C142.985 75.2182 143.033 75.1213 143.13 75.0244C143.566 74.976 144.098 75.2183 144.389 74.6368C144.679 74.6368 144.776 74.4914 144.776 74.2492C145.744 73.5223 146.47 72.5048 147.051 71.4388C147.148 71.3904 147.245 71.3419 147.341 71.245H147.39C148.067 70.3244 148.745 69.4037 149.471 68.5315C150.004 67.7078 149.471 67.4655 148.842 67.2233ZM98.9376 57.6293C98.9376 57.6778 98.8892 57.7747 98.8892 57.8716C98.8892 57.7262 98.9376 57.6778 98.9376 57.6293ZM98.8892 57.92C98.8407 58.1623 98.8891 58.453 98.9376 58.6953C98.8891 58.4046 98.8407 58.1623 98.8892 57.92ZM99.1796 57.5809C99.4216 57.5324 99.6152 57.4355 99.7604 57.1448C99.6152 57.4355 99.4216 57.5324 99.1796 57.5809ZM100.148 56.3695C100.148 56.0788 100.002 55.8365 99.712 55.5458C100.002 55.788 100.148 56.0788 100.148 56.3695Z" fill="#EFE8F4"/>
<path d="M114.281 20.319C114.233 19.786 112.926 19.9798 113.797 18.72C114.427 17.7994 113.991 15.7643 113.168 14.7468C112.297 13.5839 110.845 12.8571 109.054 13.2931C108.086 13.5354 106.972 13.5354 106.876 11.8395C106.827 11.0158 106.15 9.85288 104.988 10.1921C102.326 11.0158 102.035 9.31988 101.696 7.47861C101.648 7.09098 101.406 6.7518 101.261 6.36416C100.68 4.91053 100.002 4.47444 98.5502 5.58889C98.0178 5.97653 97.4369 7.23634 96.6141 6.50953C95.3556 5.39508 93.371 4.86208 93.613 2.3909C93.8066 0.743454 92.4029 -0.274088 90.7572 0.0650924C88.5306 0.501182 86.304 0.937272 84.1259 1.56718C81.0764 2.3909 79.5759 4.28062 79.9631 7.33325C80.4956 11.3065 80.0115 15.0375 78.1238 18.5747C79.5759 19.2046 80.6892 20.3675 81.6573 21.4335C82.4801 22.3541 83.1094 23.4686 82.4317 25.2129C81.7541 27.0057 82.4317 29.1862 82.6253 31.2213C83.1094 31.7543 83.4966 32.578 83.2062 33.0141C81.8993 35.3399 84.0775 34.4193 84.6099 34.4193C88.0466 34.2739 91.1444 35.2914 94.3391 36.309C95.6944 36.7451 97.3885 36.4059 98.889 36.2121C99.9055 36.0667 100.535 36.1636 100.874 37.2781C101.309 38.7317 102.519 39.6039 103.633 40.5245C104.02 40.2338 104.407 39.8946 104.843 39.6039C105.327 38.9255 106.537 38.1987 106.15 37.5203C105.085 35.6306 107.505 34.177 106.537 32.4326C106.392 32.1419 106.924 31.6089 107.311 31.7058C108.425 31.9965 109.102 30.9305 110.119 30.8821C111.087 30.979 111.28 30.446 111.329 29.5738C111.426 28.5078 110.942 27.3449 111.716 26.3758C113.265 25.0676 113.943 23.4201 113.749 21.385C113.894 20.9489 114.185 20.7067 114.281 20.319Z" fill="#D6CDE4"/>
<path d="M71.3474 54.8182C72.5091 53.2192 71.4442 52.3471 70.2341 51.5718C70.2341 51.8141 70.5729 52.1048 70.2341 52.2017C69.9921 52.2502 69.6532 52.0563 69.3628 51.9594C67.3299 51.911 65.9261 50.9903 65.3453 48.9553C64.8613 47.3563 63.8448 47.2109 62.5863 48.0346C62.1506 48.3254 61.7634 48.713 61.3278 49.0522C59.682 50.312 59.682 48.18 58.8108 47.8408C58.2299 47.4532 58.1331 46.8233 57.9879 46.1934C57.6975 46.3387 57.4555 46.4356 57.165 46.581C56.1002 47.5016 54.5996 46.5325 53.5348 47.4047C52.3247 48.2284 51.1146 48.7614 49.8561 47.4047C49.4688 47.3563 48.9848 47.4532 48.7428 47.0171C48.0167 47.5016 47.3391 47.114 46.6614 47.0171C46.9034 48.2769 47.1454 49.5367 46.8066 50.845C46.7098 51.1842 46.5646 51.5718 46.7098 51.8141C48.1619 54.6729 46.4678 56.708 45.1125 58.9369C44.58 59.809 44.096 60.2936 43.2731 59.8575C42.4019 59.373 41.4338 59.6637 40.9982 60.0998C39.546 61.5534 37.7067 61.6019 35.9158 61.941C34.8509 62.1349 34.028 62.5709 34.0764 63.8792C34.0764 64.9452 33.2535 65.139 32.4307 65.2359C31.3174 65.3328 30.3493 65.7205 29.6233 66.5442C28.752 67.1257 28.3164 67.5617 29.236 68.7246C30.0589 69.7906 31.027 69.9845 32.0434 69.8876C33.4472 69.7422 33.4956 70.7597 33.0115 71.2927C32.2371 72.1649 32.7695 72.1165 33.3504 72.3587C35.7221 73.2794 35.7705 73.5216 34.2216 75.5567C34.0764 76.2835 33.9312 77.0103 33.786 77.7372C35.0929 79.0939 36.787 80.3052 37.2227 82.0981C37.7067 83.9878 39.062 84.4239 40.4173 85.0538C40.8045 85.2476 41.3854 85.1022 41.6758 85.5383C42.7891 87.2342 44.4348 87.3796 46.2742 87.0889C46.7582 86.6043 47.5811 85.9744 48.0167 86.4105C48.9364 87.428 49.9045 86.7012 50.8241 86.8466C52.3731 87.1373 53.0023 86.2651 52.6151 84.7631C52.4699 84.2785 52.4699 83.6971 52.5183 83.2125C52.7119 80.8867 51.6954 78.997 50.4369 77.2042C49.9045 76.4774 49.7593 75.7021 49.9045 74.9753C50.0497 74.2 50.8241 74.2 51.5502 74.4423C51.889 74.5392 52.4699 74.4907 52.7119 74.2969C54.648 72.6979 56.9714 72.9886 59.198 72.8917C60.5049 71.6804 61.231 70.0329 62.1022 68.4824C62.2475 67.804 62.4895 67.0772 62.5379 66.3988C62.6831 63.7823 64.9097 63.7338 66.5554 62.7163C68.0559 61.7957 69.7985 60.5359 69.7985 58.307C70.7181 58.4523 71.057 58.0162 70.9601 57.0956C71.9282 56.5141 70.8633 55.4966 71.3474 54.8182ZM70.4277 55.3028C70.4277 55.3512 70.4277 55.3997 70.4277 55.4481C70.4277 55.3997 70.4277 55.3512 70.4277 55.3028ZM70.4277 55.4966C70.4277 55.5451 70.4277 55.5935 70.4277 55.642C70.4761 55.5935 70.4761 55.5451 70.4277 55.4966ZM70.4761 55.642C70.5729 56.1265 70.8149 56.6595 70.9601 57.1441C70.8149 56.6595 70.5729 56.175 70.4761 55.642ZM70.6213 57.3863C70.6213 57.3863 70.6213 57.4348 70.6213 57.3863C70.6213 57.4348 70.6213 57.3863 70.6213 57.3863ZM70.4277 55.109C70.4277 55.1574 70.4277 55.2059 70.4277 55.2543C70.4277 55.2059 70.4277 55.1574 70.4277 55.109ZM70.2825 57.677C70.2341 57.7255 70.2341 57.7255 70.1857 57.774C70.2341 57.7255 70.2825 57.7255 70.2825 57.677ZM69.4596 52.3955C69.5564 52.6378 69.7016 52.7832 69.8953 52.9285C69.7016 52.7832 69.5564 52.6378 69.4596 52.3955ZM70.0405 57.9678C69.9921 58.0162 69.9437 58.1131 69.9437 58.1616C69.9437 58.1131 69.9921 58.0647 70.0405 57.9678ZM70.8633 54.043C70.7665 54.1883 70.6697 54.3337 70.5729 54.4791C70.6697 54.3337 70.7665 54.1883 70.8633 54.043C71.0085 53.8492 71.0085 53.6553 70.9117 53.51C71.057 53.6553 71.0569 53.8492 70.8633 54.043ZM70.4277 55.0605C70.4277 55.0121 70.4277 54.9636 70.4761 54.9151C70.4761 54.9636 70.4277 55.0121 70.4277 55.0605ZM70.4761 54.8667C70.4761 54.8182 70.5245 54.7213 70.5245 54.6729C70.5245 54.7213 70.4761 54.8182 70.4761 54.8667ZM70.5245 54.6729C70.5245 54.6244 70.5729 54.5275 70.6213 54.4791C70.5729 54.5275 70.5729 54.576 70.5245 54.6729Z" fill="#D6CDE4"/>
<path d="M82.5287 25.2125C83.2063 23.5166 82.5771 22.3537 81.7542 21.433C80.7377 20.3186 79.6244 19.2041 78.2207 18.5742C76.091 19.6887 74.2032 21.2392 71.6862 21.4815C68.6852 21.7238 66.265 23.3227 63.6996 24.5826C62.0538 25.3578 61.9086 27.0537 61.473 28.4589C61.1826 29.428 62.6347 29.4765 63.5059 29.8641C62.7799 30.3002 62.2474 30.5909 61.8118 30.9301C59.9725 32.5291 58.0847 32.7229 55.6645 31.9961C52.9539 31.2208 50.0013 31.0755 47.1455 30.8816C45.887 30.7847 43.9024 28.6043 44.4832 27.4414C44.8221 26.7146 45.2577 26.0846 44.5316 25.5032C43.854 24.9217 42.7891 24.9217 42.2567 25.3094C40.6109 26.5207 39.2072 25.697 37.7067 25.164C37.4163 25.0671 37.0774 24.8733 36.787 24.8248C36.4482 24.7764 36.1094 24.7764 35.9642 25.164C35.8674 25.4547 36.0126 25.7455 36.2546 25.8424C37.3195 26.23 37.029 27.0053 36.9806 27.829C36.9322 28.9919 37.1743 30.4455 37.9487 31.1239C40.6593 33.5466 40.4657 36.7931 40.6109 39.8457C40.7077 41.2509 40.5141 42.6076 41.6758 43.722C42.7407 44.788 41.579 44.4489 41.095 44.5942C41.4338 47.5499 42.3535 48.1798 44.4832 46.7747C45.2577 46.2417 45.9838 46.9685 46.7582 47.0169C47.4359 47.1623 48.1619 47.5015 48.8396 47.0169C49.0816 47.453 49.5656 47.3561 49.9529 47.4046C51.163 48.7128 52.3731 48.1798 53.6316 47.4046C54.6965 46.5324 56.197 47.5015 57.2619 46.5809C57.5523 46.4355 57.7943 46.3386 58.0847 46.1932C58.2299 46.7747 58.3267 47.4046 58.9076 47.8407C59.7789 48.1798 59.7789 50.3118 61.4246 49.052C61.8118 48.7128 62.199 48.3252 62.6831 48.0345C63.9416 47.1623 64.9581 47.3077 65.4421 48.9551C66.023 50.9902 67.3783 51.9108 69.4596 51.9593C69.75 52.0562 70.0889 52.2985 70.3309 52.2016C70.6697 52.1047 70.3793 51.7655 70.3309 51.5717C70.4277 50.6995 70.6697 50.0211 71.6378 49.585C73.2351 48.9067 72.9931 47.453 72.3154 46.387C70.6697 43.8674 70.5729 43.9159 73.3803 42.9952C73.816 42.8499 74.2516 42.7045 74.7356 42.5591C75.4133 42.1715 76.1394 42.753 76.817 42.5591C77.6883 42.3653 78.608 42.22 77.9303 40.9601C78.0755 40.8148 78.2207 40.6694 78.3659 40.5241C78.5111 40.3787 78.6564 40.1849 78.8016 40.0395C78.8984 39.3612 79.0436 38.7312 79.1404 38.0529C79.1404 37.8591 79.1404 37.6168 79.1404 37.423C78.7048 35.9209 79.9633 36.7446 80.3989 36.5023C80.4957 36.5023 80.5925 36.5023 80.6893 36.5023C80.8345 36.357 81.0281 36.1632 81.1734 36.0178C80.9797 34.1765 82.8675 33.0136 82.8191 31.2208C82.5287 29.2342 81.851 27.0537 82.5287 25.2125ZM74.784 42.0746C74.9293 41.7839 75.2681 41.687 75.6069 41.7839C75.2681 41.687 74.9293 41.7839 74.784 42.0746Z" fill="#EFE8F4"/>
<path d="M157.603 127.646C157.313 127.016 158.136 125.514 156.635 125.902C155.28 126.241 153.973 126.677 152.617 126.725C151.988 126.386 151.359 125.95 150.73 125.659C148.794 124.739 147.487 123.43 147.826 121.105C147.826 120.475 147.148 119.942 147.487 119.215C147.729 119.215 147.874 119.069 147.874 118.779C148.552 118.44 148.552 117.761 148.552 117.131L148.648 117.034C149.036 116.889 149.955 117.228 149.713 116.598C149.326 115.581 150.004 114.176 148.648 113.546C147.632 113.546 146.228 113.885 146.035 112.528C145.889 111.268 145.26 110.542 144.486 109.815C144.244 109.572 144.002 109.33 143.76 109.088C143.227 109.33 142.695 109.621 142.162 109.863L142.114 109.912C141.049 110.687 140.71 110.057 140.517 109.088C140.129 109.088 139.742 109.088 139.355 109.088C139.355 109.427 139.306 109.766 139.016 109.96C139.016 110.057 139.016 110.154 138.968 110.251C139.113 110.542 139.21 110.784 139.355 111.075C139.79 110.881 140.226 110.687 140.129 111.462V111.511C141.049 111.947 141.049 112.77 140.807 113.546C140.662 113.982 140.323 113.885 140.032 113.594C137.37 113.594 135.386 114.951 133.595 116.792C133.595 117.228 133.401 117.567 132.917 117.616C131.804 117.761 131.562 118.488 131.755 119.506C132.046 120.862 131.465 121.056 130.4 120.475H130.352C130.11 120.475 129.868 120.475 129.626 120.475C128.9 121.88 129.238 122.752 130.739 123.43C131.707 123.866 132.627 124.69 131.997 125.95C131.562 126.919 129.577 126.968 128.512 126.144C127.932 125.659 127.254 125.417 126.479 125.465C125.705 125.514 125.56 125.078 125.511 124.496C124.543 124.351 123.624 123.915 122.655 124.545C121.833 125.078 121.058 125.562 120.671 124.06C120.574 123.721 120.187 123.624 119.848 123.721C119.025 124.012 119.509 124.739 119.412 125.272C120.429 126.144 119.316 128.034 121.01 128.567C121.01 129.1 121.01 129.681 121.058 130.214C120.235 130.262 119.8 130.747 119.461 131.425L119.412 131.474C118.686 132.007 119.074 132.782 119.025 133.46C118.59 134.284 117.379 134.914 117.186 135.302C116.411 136.901 114.669 137.628 113.991 139.178C113.991 139.227 114.04 139.275 114.088 139.372C114.959 139.42 115.831 139.469 116.702 139.517C117.234 139.517 117.718 139.614 118.057 140.196C119.074 142.037 120.332 142.134 121.591 140.438C122.171 139.663 122.898 140.099 123.091 140.486C123.817 142.182 125.221 141.649 126.334 141.455C127.447 141.262 127.932 141.455 127.835 142.57C127.738 143.781 128.367 143.927 129.384 144.072C130.884 144.314 132.627 144.411 133.256 146.301C133.401 146.688 134.03 146.979 134.224 146.64C134.998 145.283 136.257 146.349 137.08 145.962C138.338 145.332 139.645 145.816 141.049 145.283C143.082 144.46 144.486 143.927 144.921 141.455C145.212 139.663 147.729 139.42 148.89 137.87C150.1 136.319 151.746 134.963 153.731 134.236C155.764 134.187 155.28 132.685 155.328 131.474C156.054 130.553 157.264 130.02 157.361 128.663C157.894 128.227 158.426 127.937 157.603 127.646ZM129.868 135.35C129.771 135.35 129.626 135.35 129.48 135.302C129.577 135.35 129.722 135.35 129.868 135.35C130.206 135.302 130.594 135.35 130.739 135.011C130.594 135.35 130.206 135.302 129.868 135.35Z" fill="#A396C4"/>
<path d="M46.7581 51.8628C46.6129 51.6205 46.7581 51.1845 46.8549 50.8937C47.1938 49.5855 46.9517 48.3256 46.7097 47.0658C45.9353 47.0658 45.2092 46.339 44.4347 46.8236C42.305 48.2287 41.3853 47.5504 41.0465 44.6431C40.1752 44.7885 39.3523 44.9338 38.4811 45.0307C37.997 45.0792 37.3194 45.1277 37.2226 44.6431C36.9321 42.5596 36.0125 43.674 35.1412 44.1101C34.2215 44.5462 33.1082 45.6122 32.2854 44.6916C31.1237 43.4802 30.204 44.1586 29.2843 44.5947C28.2678 45.0307 27.7354 46.6782 26.6221 46.4844C25.412 46.2906 25.17 44.74 24.3955 43.8194C24.0567 43.4802 23.8631 43.0441 23.5727 42.7049C22.5562 41.4936 21.5881 39.943 19.5552 40.6214C18.5387 40.9606 17.619 41.3482 16.4573 41.009C16.0217 40.8637 15.1988 41.2998 15.344 41.8812C15.7312 44.0132 14.618 43.5287 13.4079 43.141C12.8754 42.9472 12.343 42.8988 11.9557 43.4318C11.6169 43.9163 11.0845 43.9648 10.7457 43.5771C10.1648 42.8018 9.58396 43.3348 8.95471 43.3833C8.08344 43.3833 7.50259 44.3524 6.72813 44.207C4.45315 43.7225 2.80742 45.1277 1.06488 46.0483C-0.387237 46.7751 0.048398 48.5195 0.338821 49.7308C0.629244 50.9906 1.69413 49.8762 2.37178 49.9246C3.09784 49.9731 3.8723 49.4886 4.64676 49.2463C4.01751 51.3783 6.09888 49.4886 6.3893 50.5545C5.51803 51.4267 4.50155 50.7968 3.53348 50.7484C3.24305 50.7484 2.95263 50.3123 2.66221 50.7484C2.46859 51.0875 2.27498 51.3783 2.66221 51.8144C2.95263 52.1051 3.04944 52.6381 3.33986 53.2195C3.48507 52.9773 3.63028 52.7834 3.72709 52.5896C4.35634 51.5236 4.98559 52.3958 5.61484 52.6381C6.09888 52.7834 6.3893 53.2195 6.29249 53.7525C6.14728 54.6732 5.32442 54.2371 4.79198 54.3824C4.06592 54.5278 3.33986 54.6732 2.6138 54.8185C2.08136 54.9154 1.21009 54.7701 1.21009 55.5453C1.21009 56.2237 2.08136 56.0783 2.51699 56.1268C4.21113 56.3691 5.0824 57.3866 5.46963 58.9372C5.80846 60.2454 6.77653 60.4392 7.88982 59.6155C9.05151 58.7918 10.31 58.0165 11.5201 59.6155C11.9073 60.1485 12.4882 59.9547 12.9722 60.1001C16.2637 61.2145 20.378 61.1661 21.2009 66.496C21.2977 63.9764 22.0237 63.6372 23.7179 64.7032C24.4923 65.1878 25.0248 65.8661 26.1865 65.5269C27.445 65.1878 29.0423 64.8001 29.6716 66.6899C30.446 65.8661 31.4141 65.4785 32.479 65.3816C33.3018 65.2847 34.1731 65.0909 34.1247 64.0249C34.0763 62.7166 34.8992 62.2805 35.9641 62.0867C37.755 61.7475 39.5943 61.6991 41.0465 60.2454C41.4821 59.8093 42.4018 59.5186 43.3214 60.0032C44.1443 60.4392 44.6768 59.9547 45.1608 59.0825C46.5161 56.7567 48.2102 54.6732 46.7581 51.8628ZM23.6695 63.9764C23.7179 64.0249 23.8147 64.0249 23.8631 64.0249C23.8147 64.0249 23.7179 63.9764 23.6695 63.9764ZM23.9599 64.0249C24.0567 63.9764 24.1051 63.928 24.2019 63.8795C24.1051 63.831 24.0083 63.7826 23.8631 63.7341C23.9599 63.7826 24.1051 63.831 24.2019 63.8795C24.1051 63.928 24.0083 63.9764 23.9599 64.0249Z" fill="#BCB1D4"/>
<path d="M104.214 43.8192C104.456 42.414 104.746 41.0573 104.988 39.6521C104.601 39.9429 104.214 40.282 103.778 40.5728C102.665 39.6521 101.455 38.78 101.019 37.3263C100.68 36.2119 100.099 36.115 99.0344 36.2603C97.5339 36.4542 95.8397 36.7933 94.4844 36.3572C91.2898 35.3397 88.1435 34.3222 84.7553 34.4675C84.2228 34.4675 81.9962 35.4366 83.3515 33.0623C83.5936 32.5778 83.2547 31.7541 82.7707 31.2695C82.8675 33.0623 80.9314 34.2252 81.125 36.0665C80.9798 36.2119 80.7861 36.4057 80.6409 36.5511C80.5441 36.5511 80.4473 36.5511 80.3505 36.5511C79.9149 36.7933 78.6564 36.0181 79.092 37.4717C79.092 37.6655 79.092 37.9078 79.092 38.1016C78.9952 38.78 78.85 39.4099 78.7532 40.0882C79.1404 39.846 79.2856 39.2645 79.9149 39.4099C80.5925 42.2687 81.7542 44.8852 83.1579 47.4533C83.3031 47.5987 83.4483 47.744 83.5936 47.8409C84.1744 48.3255 85.1425 48.5677 85.1425 49.4884C85.1909 51.5719 86.3042 51.3781 87.6595 50.6997C89.4504 50.0214 90.7573 50.942 92.0642 51.9111C92.3062 52.6379 91.5802 53.1709 91.6286 53.9462C93.3711 53.8493 94.9685 54.14 96.5658 53.5585C96.953 53.4132 97.3887 53.2678 97.7759 53.1709C98.1631 52.5895 98.9376 51.9596 98.9376 51.3781C98.986 49.5853 100.051 49.5368 101.358 49.5368C101.939 49.5368 102.568 49.6822 103.052 49.1977C103.584 49.2946 104.117 49.4399 104.649 49.5368C103.972 48.9069 103.584 48.2286 104.117 47.3079C104.456 46.7265 104.698 46.145 104.649 45.4182C105.424 44.6429 103.826 44.4491 104.214 43.8192Z" fill="#A396C4"/>
<path d="M92.1609 100.753C91.6285 99.2992 92.4513 97.5064 91.1444 96.1496C90.854 95.8589 91.3865 95.6166 91.6285 95.4228C93.0806 94.0177 93.6614 92.5156 92.887 90.4805C92.4997 89.5114 92.4029 88.3969 91.6769 87.5732C91.0476 87.5248 90.4668 87.2825 90.0312 86.7495C89.5471 86.4588 89.4019 85.9258 89.2567 85.4412C89.2567 85.3443 89.2567 85.2474 89.2567 85.1505C88.337 85.1505 87.3689 85.1505 86.4493 85.1021C84.6583 84.9082 82.8674 84.6175 81.1732 85.4897C80.6408 84.7144 80.06 84.7144 79.5275 85.4897C78.0754 85.635 76.6717 85.6835 75.4616 84.7144C75.026 83.9391 74.4935 83.3092 73.6706 82.7762C72.8962 82.2917 72.2185 81.6618 72.0249 80.2566C71.7829 78.3669 70.234 76.5256 68.9271 74.8782C68.2978 74.1029 67.3781 75.1689 66.6037 75.4596C65.8292 75.8473 65.2 76.0895 64.7159 75.7988C65.2 76.138 65.8292 75.8473 66.6037 75.4596C65.4904 75.5081 64.6675 75.5081 64.4255 73.9091C64.2803 73.0369 63.0702 72.1647 61.7633 72.1647C61.6181 70.9534 61.7149 69.742 62.1505 68.5791C61.3277 70.1296 60.6016 71.7771 59.2463 72.9885C56.9713 73.0369 54.6963 72.7462 52.7602 74.3936C52.5182 74.5874 51.9373 74.6359 51.5985 74.539C50.8724 74.2967 50.098 74.2967 49.9528 75.072C49.8075 75.7988 49.9528 76.5741 50.4852 77.3009C51.7437 79.0937 52.7602 80.9834 52.5666 83.3092C52.5182 83.8422 52.5182 84.3752 52.6634 84.8598C53.0506 86.3619 52.4698 87.234 50.8724 86.9433C49.9528 86.7495 48.9363 87.4763 48.065 86.5072C47.6294 86.0711 46.8549 86.701 46.3225 87.1856C46.3225 87.5732 46.3225 88.0093 46.3709 88.3969C45.8868 88.4939 45.5964 88.6877 45.548 89.2207C44.1443 89.899 43.273 88.6392 42.1113 88.3485C41.7725 88.2516 41.4821 88.1062 41.2401 88.4454C41.0949 88.6877 41.1917 89.0753 41.4821 89.0753C42.8858 89.2691 43.9991 90.6258 45.5964 89.9959C47.0485 90.9166 47.0485 92.2733 46.8549 93.7754C46.8065 94.2599 46.8549 94.7445 46.2257 94.8898C45.7416 94.9867 45.4512 94.5507 45.3544 94.2115C45.1124 92.9517 44.1443 92.6125 43.1278 92.1279C43.0794 93.1455 43.1762 93.9692 43.9991 94.5022C44.7251 94.9867 45.306 96.0043 45.064 96.5373C44.3379 98.2816 45.7416 98.6693 46.6129 99.4445C47.7262 100.462 48.9363 101.431 50.0496 102.4C50.9208 103.176 51.2113 104.096 51.066 105.308C50.1948 103.272 47.7262 102.885 46.9517 100.801C46.1773 102.158 44.7251 114.417 45.064 117.033C45.3544 116.5 45.4028 116.21 45.5964 116.016C46.5161 115.144 46.7097 116.258 47.0485 116.646C47.3874 116.985 47.1937 117.566 46.7097 117.518C44.5799 117.227 44.9188 118.972 44.8219 119.989C44.2895 125.707 43.1278 131.279 41.9177 136.851C41.5305 138.644 40.4656 140.195 38.3358 140.485C38.0938 141.794 38.481 142.424 39.8848 142.036C40.1268 144.362 41.6273 142.084 42.3534 142.666C42.547 142.666 42.7406 142.714 42.9826 142.714C42.9826 142.957 42.9826 143.247 43.031 143.49C43.273 144.604 41.5305 145.379 42.4018 146.542C43.3214 147.802 44.5799 146.348 45.6448 146.784C46.3225 147.463 47.1937 147.657 48.065 147.899C48.1134 147.996 48.1618 148.044 48.2586 147.996C49.5655 148.916 51.4533 148.626 52.4698 150.031C52.615 150.419 52.857 150.758 53.2926 150.855H53.2442C54.0671 151.678 55.2772 151.678 56.5841 150.806V150.855C56.9713 150.952 57.3585 151.048 57.7942 151.145C56.8745 150.031 57.3585 148.771 57.3585 147.56C57.3585 147.317 57.4554 147.124 57.6006 146.978C57.4554 147.124 57.3585 147.317 57.3585 147.56C57.7458 147.366 58.0362 147.124 58.1814 146.736C58.0846 145.961 58.6655 145.428 59.0043 144.798C59.1495 144.652 59.2947 144.507 59.4399 144.362C58.3266 142.084 59.9724 140.001 59.8271 137.772C59.6335 137.578 59.4883 137.287 59.2947 137.191C58.5686 136.9 57.0681 137.094 57.5038 135.882C58.1814 133.993 56.9713 131.231 59.8755 130.262C60.0208 130.213 60.1176 130.116 60.2144 130.068C61.3277 132.248 61.6181 129.68 62.3441 129.68C64.5223 129.583 66.4585 128.178 68.7335 128.42C70.5244 128.614 72.7994 125.561 72.2185 123.769C72.0733 123.284 71.7345 122.848 72.509 122.848C74.0579 122.848 74.1063 122.218 73.7191 120.91C73.0898 118.972 75.026 118.196 75.8972 116.985C77.1073 115.338 78.8983 114.175 78.7047 111.655C78.6078 110.492 80.2536 109.911 80.9312 110.686C82.7706 112.77 84.8519 111.849 86.9333 111.655C87.853 110.589 88.4338 109.135 88.4338 107.973C88.4338 106.131 90.612 105.744 90.4668 104.048C90.4668 103.999 90.6604 103.902 90.8056 103.902C91.3381 103.805 92.4029 104.532 92.3545 103.951C92.0641 102.836 92.5481 101.867 92.1609 100.753ZM51.2113 106.858C51.2113 106.761 51.2113 106.616 51.2113 106.519C51.2113 106.616 51.2113 106.713 51.2113 106.858ZM52.3245 110.298C52.373 110.25 52.4214 110.201 52.4698 110.105C52.4214 110.201 52.373 110.25 52.3245 110.298ZM80.302 103.951C80.6408 103.902 80.6408 104.242 80.7376 104.484C80.7376 104.678 80.6892 104.92 80.5924 105.065C80.6892 104.92 80.6892 104.726 80.7376 104.484C80.6408 104.29 80.6892 103.902 80.302 103.951Z" fill="#EFE8F4"/>
<path d="M156.006 64.1217C156.828 63.6857 156.49 63.2496 156.006 62.8135C156.006 63.2496 156.006 63.6857 156.006 64.1217Z" fill="#BCB1D4"/>
<path d="M164.331 38.5862C164.234 38.0533 163.557 38.2471 163.169 38.1017C162.685 37.9563 162.201 37.811 161.717 37.6656C161.378 37.2295 161.088 36.6481 160.459 37.3264C159.346 37.1811 158.135 37.6656 157.071 36.9388C156.829 36.1635 155.812 36.3089 155.522 35.5336C155.038 34.3707 154.263 34.7099 153.537 35.2429C153.392 35.2429 153.295 35.2429 153.198 35.3398C151.553 35.5821 150.052 35.3883 148.793 34.1769C148.358 34.1284 147.729 33.8862 147.438 34.1284C145.792 35.146 145.212 34.0315 144.631 32.8686C144.582 32.481 144.34 32.3356 144.002 32.3841C143.808 29.9129 142.985 29.1861 140.274 29.1861C138.822 27.4417 137.757 29.0407 136.596 29.6222C136.354 29.5253 136.112 29.3799 135.87 29.283C134.611 27.9747 133.207 27.2964 131.368 27.9263C130.594 28.217 129.868 28.1686 129.335 27.3933C128.125 26.6665 127.205 25.6005 125.85 24.9221C124.882 24.4376 124.059 23.6138 122.849 23.5654C121.736 22.5963 122.946 20.6097 121.252 19.8829C121.736 19.3983 121.494 18.5746 122.123 18.1385C122.462 17.8962 122.607 17.4117 122.123 17.121C121.833 16.9271 121.397 16.588 121.058 17.024C120.622 17.557 119.606 17.6539 119.654 18.3323C119.8 19.689 118.686 19.6406 118.057 20.1736C116.75 21.288 115.54 19.7859 114.282 20.2705C114.185 20.6581 113.846 20.9004 113.894 21.3365C114.088 23.3231 113.41 25.019 111.861 26.3273C112.007 26.7149 112.055 27.151 112.055 27.5386C112.055 27.151 111.958 26.7149 111.861 26.3273C111.087 27.2964 111.571 28.4593 111.474 29.5253C111.377 30.3975 111.232 30.9305 110.264 30.8335C109.248 30.882 108.57 31.948 107.457 31.6573C107.069 31.5604 106.537 32.0934 106.682 32.3841C107.602 34.1769 105.182 35.5821 106.295 37.4718C106.682 38.1502 105.472 38.877 104.988 39.5553C104.746 40.9605 104.456 42.3172 104.214 43.7224C103.875 44.4008 105.424 44.5461 104.649 45.3214C104.698 45.9998 104.407 46.6297 104.117 47.2111C103.584 48.1318 103.972 48.8101 104.649 49.44C105.23 50.3122 106.198 50.9906 105.908 52.2988C105.811 52.638 106.053 53.0257 106.44 53.0741C108.376 53.171 108.521 54.8185 109.102 56.0298C109.635 57.0958 110.409 57.7742 111.619 57.4835C113.991 56.9989 116.557 57.6773 118.686 55.9814C119.219 55.5453 120.284 55.836 120.526 56.3206C121.203 57.7257 124.108 57.9196 122.704 60.4392C122.559 60.6815 122.801 61.5536 123.478 61.8928C124.64 62.4743 126.092 62.4258 126.963 63.6372C127.012 63.7341 127.738 63.5887 127.835 63.4434C128.754 61.3114 132.094 63.3464 132.675 60.4876C132.965 58.9371 134.466 58.0649 135.579 57.0958C137.806 55.2061 139.79 57.3381 141.872 57.7257C142.114 57.7742 142.404 58.3556 142.695 58.0649C144.195 56.8536 144.97 58.4041 145.938 58.9855C146.712 59.4701 147.293 60.2454 148.261 60.5361C148.793 60.6815 149.374 61.2145 149.132 61.7475C148.551 63.1526 149.568 63.6856 150.391 64.364C149.471 65.3331 148.213 65.9145 147.583 67.2713C147.148 68.1919 148.019 67.7558 148.164 67.9981C148.213 67.4651 148.164 66.8836 148.987 67.1743L148.939 67.1259C149.616 65.1877 149.907 65.1877 151.601 66.6898C151.746 66.0114 151.504 65.4784 151.117 65.0423C151.504 65.4784 151.746 65.963 151.601 66.6898C152.424 66.8352 153.247 66.9321 154.07 66.496C155.231 66.0114 155.667 64.9939 156.102 63.9279C156.102 63.4918 156.102 63.0557 156.102 62.6681C155.957 62.4743 155.812 62.3289 155.715 62.1351C155.57 60.0515 156.925 58.2587 156.635 56.1752C156.344 55.9329 156.102 55.6422 155.957 55.3999C156.102 55.6422 156.296 55.8845 156.635 56.1752C156.393 55.0607 156.587 53.9947 156.925 52.9287C156.78 53.0741 156.635 53.171 156.538 53.3164C156.683 53.171 156.78 53.0741 156.925 52.9287V52.7834C157.071 52.5896 157.216 52.3958 157.361 52.1535C158.184 51.7658 157.845 51.0875 157.797 50.506C159.055 48.8101 159.055 46.775 159.394 44.8369C159.491 44.74 159.539 44.5946 159.442 44.4492H159.394C159.733 44.4977 159.83 44.3523 159.83 44.0616C160.217 44.1585 160.459 43.9647 160.604 43.6255C161.233 43.2863 161.621 42.7049 161.863 42.075L161.814 42.0265C162.25 42.1719 162.443 41.8812 162.637 41.5904C163.508 41.1543 163.363 40.3306 163.46 39.6038C163.847 39.5553 164.38 39.1677 164.331 38.5862ZM155.957 64.1217C155.086 64.364 154.505 64.8001 154.215 65.4784C154.505 64.8001 155.086 64.3155 155.957 64.1217Z" fill="#BCB1D4"/>
<path d="M184.661 4.7168V18.6717L120.913 40.6215L121.542 42.4628L184.661 20.7552V36.6967H326V4.7168H184.661Z" fill="#C60A3F"/>
<path d="M219.657 13.729H221.012L221.351 12.2754H222.319L221.98 13.729H223.19L223.529 12.2754H224.497L224.158 13.729H225.32V14.6012H223.965L223.674 15.9095H224.836V16.7816H223.48L223.142 18.2837H222.174L222.512 16.7816H221.302L220.963 18.2837H219.995L220.334 16.7816H219.221V15.9095H220.576L220.867 14.6012H219.705V13.729H219.657ZM221.496 15.9579H222.706L222.996 14.6497H221.786L221.496 15.9579Z" fill="#F9F9F9"/>
<path d="M232.048 13.6808C232 13.2932 231.709 12.7602 230.838 12.7602C230.209 12.7602 229.822 13.1478 229.822 13.5839C229.822 13.9715 230.064 14.2138 230.548 14.3107L231.467 14.5045C232.677 14.7468 233.307 15.5221 233.307 16.4427C233.307 17.4603 232.435 18.4778 230.935 18.4778C229.192 18.4778 228.418 17.3634 228.321 16.3943L229.531 16.0551C229.58 16.685 230.064 17.3149 230.983 17.3149C231.661 17.3149 232.048 16.9757 232.048 16.4912C232.048 16.1035 231.758 15.8128 231.225 15.7159L230.306 15.5221C229.241 15.3283 228.563 14.6499 228.563 13.6324C228.563 12.4695 229.628 11.5488 230.886 11.5488C232.484 11.5488 233.113 12.5179 233.258 13.2447L232.048 13.6808Z" fill="#F9F9F9"/>
<path d="M235.388 15.7164L236.501 15.571C236.743 15.5225 236.84 15.4256 236.84 15.2318C236.84 14.8926 236.598 14.6504 236.066 14.6504C235.533 14.6504 235.243 14.9895 235.194 15.3772L234.081 15.1349C234.178 14.4081 234.807 13.6328 236.066 13.6328C237.518 13.6328 238.05 14.4565 238.05 15.3772V17.6545C238.05 17.8968 238.098 18.236 238.098 18.3813H236.985C236.937 18.2844 236.937 17.9937 236.937 17.8483C236.695 18.1875 236.259 18.5267 235.581 18.5267C234.613 18.5267 233.984 17.8483 233.984 17.17C234.033 16.2494 234.613 15.8133 235.388 15.7164ZM236.84 16.4916V16.2978L235.823 16.4432C235.485 16.4916 235.243 16.6854 235.243 17.0246C235.243 17.3153 235.436 17.5576 235.823 17.5576C236.356 17.5576 236.84 17.3153 236.84 16.4916Z" fill="#F9F9F9"/>
<path d="M240.567 18.3329H239.309V13.7297H240.519V14.3112C240.809 13.8266 241.342 13.6328 241.826 13.6328C242.939 13.6328 243.471 14.4565 243.471 15.4741V18.3813H242.213V15.7164C242.213 15.1834 241.971 14.7957 241.342 14.7957C240.809 14.7957 240.47 15.2318 240.47 15.7648V18.3329H240.567Z" fill="#F9F9F9"/>
<path d="M246.279 13.7288H247.198V14.8432H246.279V16.7814C246.279 17.1691 246.472 17.3144 246.811 17.3144C246.956 17.3144 247.15 17.3144 247.198 17.266V18.2835C247.102 18.332 246.86 18.3804 246.521 18.3804C245.65 18.3804 245.069 17.8474 245.069 16.9752V14.8432H244.246V13.7288H244.488C244.972 13.7288 245.214 13.3896 245.214 13.002V12.3721H246.327V13.7288H246.279Z" fill="#F9F9F9"/>
<path d="M252.281 17.0241C252.039 17.7994 251.313 18.4777 250.199 18.4777C248.941 18.4777 247.828 17.5571 247.828 16.0065C247.828 14.5529 248.893 13.5838 250.103 13.5838C251.506 13.5838 252.378 14.5045 252.378 15.9581C252.378 16.1519 252.378 16.2973 252.378 16.3457H249.086C249.135 16.9272 249.619 17.4117 250.248 17.4117C250.829 17.4117 251.119 17.121 251.313 16.7334L252.281 17.0241ZM251.168 15.522C251.168 15.0859 250.829 14.6014 250.151 14.6014C249.522 14.6014 249.135 15.0859 249.135 15.522H251.168ZM250.538 13.1962H249.522L250.393 11.791H251.797L250.538 13.1962Z" fill="#F9F9F9"/>
<path d="M194.002 13.7298C195.6 13.003 197.197 12.5669 198.94 13.1483C200.005 13.536 200.682 14.8927 201.65 14.8443C202.57 14.8443 203.248 13.5844 204.312 13.2453C206.539 12.5669 209.008 13.3906 210.315 15.2803C211.718 17.3154 211.573 19.8351 209.879 21.6763C207.943 23.7599 205.861 25.7949 203.877 27.83C203.441 28.2177 202.957 28.6053 202.57 29.0414C201.311 30.3012 201.118 30.3012 199.956 29.0414C197.923 26.8125 195.939 24.5836 193.906 22.4031C191.098 19.399 191.098 16.6371 194.002 13.7298ZM193.325 18.5268C193.276 19.2536 193.857 20.1742 194.632 20.998C196.665 23.2753 198.891 25.3589 200.731 27.7816C201.215 28.4115 201.553 28.0238 201.844 27.7331C204.167 25.4073 206.539 23.0815 208.814 20.7072C210.218 19.2051 210.121 17.1701 208.717 15.7164C207.41 14.3113 205.281 14.1659 203.683 15.2803C202.957 15.8133 202.473 16.8309 201.553 16.8309C200.634 16.8309 200.198 15.7649 199.472 15.2319C198.165 14.2628 196.81 14.1174 195.358 14.7473C194.051 15.3773 193.422 16.4917 193.325 18.5268Z" fill="#F9F9F9"/>
<path d="M200.15 22.1121C200.731 20.7554 201.166 19.7378 201.602 18.7203C201.844 18.1873 202.037 17.6543 202.715 17.6543C203.393 17.6543 203.732 18.0904 203.925 18.6718C204.167 19.4471 204.7 19.7378 205.474 19.6409C206.007 19.5925 206.491 19.6409 207.023 19.6894C207.41 19.7378 207.604 20.0286 207.604 20.4162C207.604 20.7554 207.41 21.0946 207.12 21.0461C205.619 20.9007 203.925 21.7245 202.764 19.8832C202.279 21.0461 201.795 22.1121 201.36 23.1296C201.166 23.6142 200.876 24.0503 200.247 24.0503C199.617 24.0503 199.375 23.6142 199.133 23.1296C198.988 22.7905 198.746 22.4513 198.649 22.0636C198.359 21.0946 197.778 20.7069 196.761 20.8038C196.181 20.8523 195.406 20.9492 195.455 20.0286C195.503 19.2048 196.229 19.4471 196.761 19.3502C198.601 19.1079 199.617 20.077 200.15 22.1121Z" fill="#F9F9F9"/>
<path d="M317.578 15.377H257.896V16.346H317.578V15.377Z" fill="#F9F9F9"/>
<path d="M317.626 22.79H220.383V23.7591H317.626V22.79Z" fill="#F9F9F9"/>
<path d="M317.626 29.9131H220.383V30.8822H317.626V29.9131Z" fill="#F9F9F9"/>
<path d="M184.661 126.821V140.728L143.324 128.323L142.743 130.165L184.661 142.763V158.801H326V126.821H184.661Z" fill="#ED4C26"/>
<path d="M318.207 135.834H258.525V136.803H318.207V135.834Z" fill="#F9F9F9"/>
<path d="M318.255 143.296H221.012V144.265H318.255V143.296Z" fill="#F9F9F9"/>
<path d="M318.255 150.37H221.012V151.339H318.255V150.37Z" fill="#F9F9F9"/>
<path d="M221.303 135.01H222.222L222.464 133.992H223.142L222.9 135.01H223.771L224.013 133.992H224.691L224.449 135.01H225.272V135.64H224.304L224.11 136.56H224.933V137.19H223.965L223.723 138.256H223.045L223.287 137.19H222.416L222.174 138.256H221.496L221.738 137.19H220.915V136.56H221.835L222.029 135.64H221.206V135.01H221.303ZM222.561 136.56H223.432L223.626 135.64H222.755L222.561 136.56Z" fill="#F9F9F9"/>
<path d="M232 138.256V135.01L230.644 138.256H229.87L228.515 135.01V138.256H227.643V133.604H228.853L230.257 136.948L231.612 133.604H232.823V138.256H232Z" fill="#F9F9F9"/>
<path d="M236.985 136.609C236.985 137.578 236.259 138.305 235.291 138.305C234.323 138.305 233.597 137.578 233.597 136.609C233.597 135.591 234.323 134.913 235.291 134.913C236.259 134.913 236.985 135.64 236.985 136.609ZM236.114 136.609C236.114 135.979 235.727 135.688 235.291 135.688C234.856 135.688 234.468 135.979 234.468 136.609C234.468 137.19 234.856 137.53 235.291 137.53C235.727 137.53 236.114 137.239 236.114 136.609Z" fill="#F9F9F9"/>
<path d="M237.663 138.256V133.508H238.534V135.398C238.68 135.155 239.018 134.961 239.502 134.961C240.422 134.961 241.003 135.688 241.003 136.657C241.003 137.626 240.422 138.353 239.502 138.353C239.067 138.353 238.728 138.159 238.534 137.869V138.256H237.663ZM239.309 135.688C238.873 135.688 238.486 136.027 238.486 136.609C238.486 137.19 238.873 137.53 239.309 137.53C239.744 137.53 240.132 137.19 240.132 136.609C240.132 136.027 239.744 135.688 239.309 135.688Z" fill="#F9F9F9"/>
<path d="M242.116 133.411C242.407 133.411 242.649 133.653 242.649 133.944C242.649 134.235 242.407 134.477 242.116 134.477C241.826 134.477 241.584 134.235 241.584 133.944C241.535 133.653 241.777 133.411 242.116 133.411ZM241.681 138.257V135.01H242.552V138.257H241.681Z" fill="#F9F9F9"/>
<path d="M243.471 138.256V133.508H244.343V138.256H243.471Z" fill="#F9F9F9"/>
<path d="M245.698 133.411C245.988 133.411 246.23 133.653 246.23 133.944C246.23 134.235 245.988 134.477 245.698 134.477C245.408 134.477 245.166 134.235 245.166 133.944C245.166 133.653 245.408 133.411 245.698 133.411ZM245.262 138.257V135.01H246.134V138.257H245.262Z" fill="#F9F9F9"/>
<path d="M248.118 135.01H248.748V135.785H248.118V137.142C248.118 137.433 248.264 137.53 248.506 137.53C248.602 137.53 248.748 137.53 248.796 137.481V138.208C248.699 138.257 248.554 138.305 248.312 138.305C247.683 138.305 247.295 137.917 247.295 137.287V135.785H246.715V135.01H246.86C247.199 135.01 247.344 134.768 247.344 134.477V134.041H248.118V135.01Z" fill="#F9F9F9"/>
<path d="M252.378 137.336C252.232 137.869 251.7 138.353 250.926 138.353C250.054 138.353 249.28 137.723 249.28 136.609C249.28 135.591 250.054 134.913 250.877 134.913C251.894 134.913 252.474 135.543 252.474 136.561C252.474 136.706 252.474 136.803 252.474 136.851H250.151C250.151 137.287 250.538 137.578 250.974 137.578C251.361 137.578 251.603 137.384 251.7 137.094L252.378 137.336ZM251.555 136.27C251.555 135.931 251.313 135.64 250.829 135.64C250.393 135.64 250.151 135.979 250.103 136.27H251.555ZM251.119 134.622H250.441L251.022 133.653H252.039L251.119 134.622Z" fill="#F9F9F9"/>
<path d="M208.621 144.12C208.621 145.283 208.621 146.397 208.621 147.56C208.621 148.335 208.475 149.062 207.895 149.644C207.556 149.983 207.507 150.371 207.459 150.807C207.362 151.776 206.83 152.454 205.813 152.551C204.797 152.648 204.167 152.066 203.974 151.097C203.925 151 203.974 150.807 203.925 150.758C202.909 149.983 201.747 150.564 200.634 150.419C200.198 150.371 199.811 150.467 199.714 151.049C199.521 152.115 198.843 152.648 197.778 152.551C196.713 152.454 196.229 151.679 196.181 150.661C196.181 150.516 196.229 150.274 196.132 150.177C194.39 148.142 195.261 145.719 195.067 143.442C194.971 142.327 195.067 141.213 195.067 140.098C195.067 139.807 195.164 139.371 194.729 139.323C194.196 139.274 194.245 139.759 194.245 140.098C194.196 140.68 194.245 141.31 194.196 141.891C194.196 142.23 193.954 142.472 193.615 142.521C193.228 142.569 192.938 142.327 192.938 141.988C192.841 140.97 192.744 139.953 193.083 138.935C193.18 138.693 193.373 138.354 193.567 138.305C194.874 138.015 195.067 137.046 195.358 135.98C195.6 135.059 196.52 134.574 197.488 134.574C200.392 134.526 203.248 134.526 206.152 134.574C207.604 134.574 208.475 135.447 208.621 136.949C208.669 137.579 208.863 137.869 209.492 137.966C210.412 138.16 210.847 138.887 210.896 139.807C210.944 140.389 210.896 141.019 210.896 141.6C210.896 142.085 210.799 142.521 210.218 142.521C209.637 142.521 209.54 142.085 209.54 141.649C209.54 141.261 209.54 140.873 209.54 140.437C209.492 140.05 209.734 139.371 209.153 139.371C208.475 139.323 208.717 140.001 208.717 140.389C208.621 141.697 208.669 142.909 208.621 144.12ZM201.796 144.604C203.345 144.604 204.893 144.604 206.442 144.604C207.12 144.604 207.362 144.411 207.362 143.732C207.314 141.649 207.362 139.517 207.362 137.433C207.362 136.464 206.878 136.028 205.862 136.028C203.199 136.028 200.537 136.028 197.875 136.028C196.955 136.028 196.471 136.416 196.471 137.385C196.471 139.517 196.471 141.649 196.471 143.829C196.471 144.556 196.81 144.701 197.439 144.653C198.843 144.556 200.295 144.604 201.796 144.604ZM201.941 146.01C200.44 146.01 198.94 146.01 197.439 146.01C197.149 146.01 196.713 145.864 196.568 146.203C196.278 146.882 196.374 147.609 196.52 148.287C196.665 148.868 197.149 149.062 197.73 149.062C199.085 149.062 200.44 149.062 201.747 149.062C203.151 149.062 204.506 149.111 205.91 149.062C207.023 149.014 207.265 148.481 207.314 146.93C207.314 145.816 206.636 146.01 205.958 146.01C204.651 145.961 203.296 146.01 201.941 146.01Z" fill="#F9F9F9"/>
<path d="M201.844 138.16C201.312 138.16 200.828 138.16 200.295 138.16C199.908 138.16 199.617 137.966 199.569 137.53C199.569 137.094 199.86 136.852 200.247 136.852C201.36 136.852 202.473 136.852 203.538 136.852C203.877 136.852 204.119 137.094 204.167 137.481C204.167 137.918 203.877 138.16 203.49 138.16C202.957 138.208 202.377 138.16 201.844 138.16Z" fill="#F9F9F9"/>
<path d="M204.652 148.239C203.974 148.045 202.909 148.578 202.957 147.464C203.006 146.543 203.974 146.834 204.603 146.834C205.232 146.882 206.394 146.446 206.346 147.56C206.297 148.626 205.184 147.948 204.652 148.239Z" fill="#F9F9F9"/>
<path d="M199.037 148.19C198.456 148.044 197.439 148.529 197.439 147.511C197.439 146.494 198.407 146.833 199.037 146.833C199.714 146.833 200.827 146.397 200.827 147.511C200.779 148.577 199.666 148.044 199.037 148.19Z" fill="#F9F9F9"/>
<path d="M184.661 45.418L184.612 60.4388L86.3525 65.7688L86.4494 67.707L184.661 62.377V77.3979H326V45.418H184.661Z" fill="#1C66DD"/>
<path d="M317.578 54.4307H260.461V55.3998H317.578V54.4307Z" fill="#F9F9F9"/>
<path d="M317.626 61.8926H220.383V62.8617H317.626V61.8926Z" fill="#F9F9F9"/>
<path d="M317.626 68.9668H220.383V69.9359H317.626V68.9668Z" fill="#F9F9F9"/>
<path d="M221.012 53.6546H221.883L222.077 52.6855H222.706L222.513 53.6546H223.335L223.529 52.6855H224.158L223.965 53.6546H224.739V54.2361H223.819L223.626 55.1083H224.4V55.6897H223.481L223.287 56.6588H222.658L222.851 55.6897H222.028L221.835 56.6588H221.206L221.399 55.6897H220.625V55.1083H221.496L221.69 54.2361H220.915V53.6546H221.012ZM222.222 55.1083H223.045L223.239 54.2361H222.416L222.222 55.1083Z" fill="#F9F9F9"/>
<path d="M227.014 56.7076V52.3467H227.885V55.8839H229.822V56.7076H227.014Z" fill="#F9F9F9"/>
<path d="M233.355 55.2059C233.355 56.1266 232.677 56.8049 231.758 56.8049C230.838 56.8049 230.16 56.1266 230.16 55.2059C230.16 54.2853 230.838 53.6069 231.758 53.6069C232.677 53.5585 233.355 54.2368 233.355 55.2059ZM232.532 55.2059C232.532 54.6245 232.145 54.3337 231.758 54.3337C231.37 54.3337 230.983 54.6245 230.983 55.2059C230.983 55.7874 231.37 56.0781 231.758 56.0781C232.145 56.0297 232.532 55.7389 232.532 55.2059Z" fill="#F9F9F9"/>
<path d="M234.517 56.6591C234.565 56.9983 234.856 57.2405 235.243 57.2405C235.775 57.2405 236.066 56.9983 236.066 56.4168V56.1745C235.92 56.3683 235.678 56.5622 235.243 56.5622C234.42 56.5622 233.839 55.9323 233.839 55.1085C233.839 54.2848 234.42 53.6064 235.243 53.6064C235.727 53.6064 236.017 53.8003 236.114 54.0425V53.7034H236.889V56.4168C236.889 57.2405 236.453 58.0158 235.291 58.0158C234.468 58.0158 233.888 57.4828 233.839 56.9013L234.517 56.6591ZM236.017 55.1085C236.017 54.624 235.678 54.3333 235.291 54.3333C234.904 54.3333 234.565 54.624 234.565 55.1085C234.565 55.5931 234.856 55.8838 235.291 55.8838C235.727 55.8838 236.017 55.5446 236.017 55.1085Z" fill="#F9F9F9"/>
<path d="M240.373 55.8353C240.228 56.3683 239.744 56.8044 239.018 56.8044C238.195 56.8044 237.469 56.223 237.469 55.2054C237.469 54.2364 238.195 53.6064 238.97 53.6064C239.889 53.6064 240.47 54.1879 240.47 55.157C240.47 55.2539 240.47 55.3993 240.47 55.3993H238.292C238.292 55.7869 238.631 56.0776 239.067 56.0776C239.454 56.0776 239.647 55.8838 239.744 55.5931L240.373 55.8353ZM239.599 54.8178C239.599 54.5271 239.405 54.2364 238.921 54.2364C238.486 54.2364 238.244 54.5755 238.244 54.8178H239.599Z" fill="#F9F9F9"/>
<path d="M241.051 56.7075V53.6549H241.826V54.0425C241.971 53.7518 242.358 53.6064 242.697 53.6064C243.133 53.6064 243.423 53.8003 243.617 54.091C243.859 53.7034 244.198 53.6064 244.585 53.6064C245.166 53.6064 245.698 53.9456 245.698 54.7694V56.756H244.924V54.9632C244.924 54.624 244.778 54.3817 244.391 54.3817C244.052 54.3817 243.81 54.6724 243.81 54.9632V56.756H242.987V54.9632C242.987 54.624 242.842 54.3817 242.455 54.3817C242.116 54.3817 241.874 54.624 241.874 54.9632V56.756H241.051V56.7075Z" fill="#F9F9F9"/>
<path d="M249.231 55.8353C249.086 56.3683 248.602 56.8044 247.876 56.8044C247.053 56.8044 246.327 56.223 246.327 55.2054C246.327 54.2364 247.053 53.6064 247.828 53.6064C248.747 53.6064 249.328 54.1879 249.328 55.157C249.328 55.2539 249.328 55.3993 249.328 55.3993H247.15C247.15 55.7869 247.489 56.0776 247.924 56.0776C248.312 56.0776 248.505 55.8838 248.602 55.5931L249.231 55.8353ZM248.457 54.8178C248.457 54.5271 248.263 54.2364 247.779 54.2364C247.344 54.2364 247.102 54.5755 247.102 54.8178H248.457Z" fill="#F9F9F9"/>
<path d="M250.732 56.7075H249.909V53.6549H250.684V54.0425C250.877 53.7518 251.216 53.6064 251.555 53.6064C252.281 53.6064 252.668 54.1394 252.668 54.8178V56.7075H251.845V54.9632C251.845 54.624 251.7 54.3817 251.264 54.3817C250.926 54.3817 250.684 54.6724 250.684 55.0116V56.7075H250.732Z" fill="#F9F9F9"/>
<path d="M254.507 53.655H255.137V54.3818H254.507V55.6416C254.507 55.8839 254.653 55.9808 254.846 55.9808C254.943 55.9808 255.04 55.9808 255.088 55.9324V56.6107C254.991 56.6592 254.846 56.7076 254.604 56.7076C254.023 56.7076 253.636 56.3685 253.636 55.787V54.3818H253.152V53.655H253.297C253.636 53.655 253.781 53.4612 253.781 53.1705V52.7344H254.507V53.655Z" fill="#F9F9F9"/>
<path d="M209.347 66.9797C209.347 67.4157 209.298 67.8518 209.298 68.2879C209.298 69.4508 208.669 70.0323 207.652 70.323C207.507 70.3715 207.314 70.4199 207.12 70.4199C202.134 70.4199 203.054 71.1467 202.909 66.6405C202.909 66.2044 202.86 65.7683 202.909 65.3322C202.957 64.6054 202.618 64.3147 201.892 64.3147C201.166 64.3147 200.731 64.5085 200.779 65.3322C200.827 66.5436 200.779 67.7549 200.827 69.0147C200.876 70.1776 200.392 70.6137 199.279 70.5168C198.601 70.4684 197.875 70.5168 197.197 70.5168C195.116 70.5168 194.487 69.9354 194.39 67.8034C194.39 67.6096 194.341 67.3673 194.293 67.1735C194.341 66.6405 194.341 66.1075 194.39 65.6229C194.438 65.1384 194.632 64.7508 195.213 64.7992C195.697 64.8477 195.89 65.1384 195.89 65.6229C195.89 66.1075 195.842 66.592 195.939 67.0766C195.987 67.7065 195.6 68.5787 196.278 68.8694C197.1 69.257 198.068 69.0147 198.988 68.9178C199.472 68.8694 199.327 68.3848 199.327 68.0457C199.327 67.0281 199.279 66.0106 199.327 65.0415C199.375 63.6848 200.005 63.0064 201.312 62.861C203.248 62.6672 204.216 63.1518 204.409 64.6054C204.555 65.4291 204.506 66.2528 204.506 67.0766C204.555 69.1116 204.313 68.8209 206.394 68.8209C206.588 68.8209 206.733 68.8209 206.926 68.8209C207.652 68.8694 207.943 68.4817 207.943 67.8034C207.943 67.0766 207.943 66.3013 207.943 65.5745C207.943 65.0415 208.04 64.5569 208.717 64.6054C209.298 64.6054 209.347 65.0899 209.395 65.526C209.298 66.0106 209.298 66.4951 209.347 66.9797Z" fill="#F9F9F9"/>
<path d="M209.201 59.5181C208.669 61.0202 209.831 62.0377 210.944 63.0553C211.331 63.4429 212.154 63.8305 211.476 64.5089C210.75 65.2842 210.315 64.4605 209.879 64.0244C207.507 61.747 205.136 59.5181 202.861 57.1438C201.989 56.2717 201.505 56.1747 200.586 57.1438C198.407 59.5181 196.084 61.747 193.809 64.0728C193.664 64.2182 193.519 64.3635 193.373 64.5574C193.035 64.8965 192.647 65.2357 192.163 64.7996C191.631 64.3151 192.018 63.9274 192.357 63.5883C193.809 62.0862 195.261 60.5841 196.713 59.082C197.875 57.8707 198.988 56.7077 200.198 55.5448C201.215 54.5758 202.231 54.4788 203.151 55.5448C204.119 56.6593 205.184 56.8531 206.588 56.8047C209.589 56.6108 209.105 56.3201 209.201 59.5181ZM206.249 58.2583C206.733 58.8397 207.072 59.2758 207.653 59.5666C207.943 58.3067 207.556 57.8706 206.249 58.2583Z" fill="#F9F9F9"/>
<path d="M208.572 50.457C209.395 50.5055 209.879 50.8447 209.444 51.6684C209.105 52.2983 209.54 52.6375 209.734 53.0736C209.734 53.7035 209.637 54.2849 209.202 54.7695C208.911 55.1087 208.572 55.3025 208.185 55.0602C207.798 54.8179 207.701 54.4787 207.895 54.0427C208.04 53.8004 208.282 53.5581 208.04 53.2189C207.314 52.1529 207.846 51.2808 208.572 50.457Z" fill="#F9F9F9"/>
<path d="M204.7 52.88C204.603 52.2985 204.603 51.7655 204.942 51.281C205.184 50.9418 205.426 50.5057 205.91 50.6026C206.394 50.6995 206.636 51.0387 206.587 51.5232C206.2 51.9109 206.007 52.25 206.394 52.7346C206.781 53.2191 206.733 53.8006 206.442 54.3336C206.152 54.8181 205.91 55.448 205.184 55.1573C204.506 54.915 204.651 54.382 204.942 53.849C205.281 53.413 204.942 53.1707 204.7 52.88Z" fill="#F9F9F9"/>
<path d="M206.249 58.2583C207.556 57.8222 207.943 58.2583 207.652 59.5665C207.072 59.2758 206.684 58.8397 206.249 58.2583Z" fill="#F9F9F9"/>
<path d="M184.661 86.1201V101.626L119.315 100.656V102.595L184.661 103.564V102.595V118.1H326V86.1201H184.661Z" fill="#8E1C59"/>
<path d="M317.626 94.8418H265.253V95.8109H317.626V94.8418Z" fill="#F9F9F9"/>
<path d="M317.626 102.256H220.383V103.225H317.626V102.256Z" fill="#F9F9F9"/>
<path d="M317.626 109.378H220.383V110.347H317.626V109.378Z" fill="#F9F9F9"/>
<path d="M209.25 100.221C211.573 101.82 211.718 104.339 212.396 106.617C212.59 107.198 212.154 107.537 211.573 107.489C210.557 107.392 210.315 107.973 210.315 108.797C210.315 108.846 210.315 108.894 210.315 108.942C209.976 111.074 209.008 111.704 206.878 111.123C206.442 111.026 206.249 110.735 206.2 110.299C206.104 109.766 206.007 109.185 205.91 108.652C205.813 107.973 205.668 107.392 204.748 107.537C204.022 107.634 203.683 107.15 203.877 106.471C204.458 104.339 204.651 102.013 206.588 100.511C207.217 100.027 206.491 99.8815 206.297 99.7361C205.232 98.8639 204.748 97.7979 205.087 96.4412C205.426 95.0845 206.588 94.1154 207.943 94.0669C209.201 93.97 210.508 94.8422 210.992 96.0051C211.476 97.2165 211.138 98.6216 210.169 99.5423C209.927 99.7361 209.637 99.9299 209.25 100.221ZM205.523 106.035C206.926 105.841 207.12 106.762 207.217 107.731C207.265 108.216 207.362 108.652 207.459 109.136C207.507 109.475 207.604 109.718 207.991 109.718C208.379 109.718 208.669 109.572 208.766 109.185C208.766 109.088 208.766 108.991 208.814 108.942C209.25 107.876 208.524 106.181 210.508 106.035C210.75 106.035 210.653 105.648 210.605 105.454C210.315 104.436 210.121 103.37 209.54 102.45C208.717 101.238 207.556 101.238 206.733 102.45C206.007 103.516 205.813 104.727 205.523 106.035ZM206.491 97.0226C206.491 98.0886 207.265 98.8639 208.136 98.8154C208.959 98.8154 209.831 97.9433 209.782 97.1195C209.685 96.1505 209.153 95.5206 208.088 95.5206C207.072 95.569 206.539 96.1989 206.491 97.0226Z" fill="#F9F9F9"/>
<path d="M198.795 109.475C198.504 110.977 196.52 111.801 195.164 110.977C194.777 110.735 194.729 110.348 194.68 109.96C194.535 109.088 194.438 108.167 194.341 107.295C194.293 106.762 194.293 106.277 193.567 106.229C193.131 106.229 192.986 105.89 192.986 105.502C192.986 104.242 192.792 102.934 193.422 101.723C193.906 101.044 194.68 100.56 195.406 100.124C193.18 98.2824 192.986 96.102 194.777 94.6483C195.309 94.2123 195.89 94.0184 196.568 93.97C197.004 93.9215 197.342 94.1638 197.391 94.5999C197.439 94.9875 197.246 95.2783 196.858 95.3752C196.713 95.4236 196.52 95.4236 196.374 95.4721C195.309 95.7628 194.777 96.8288 195.164 97.7494C195.552 98.6216 196.568 99.0092 197.536 98.5247C197.972 98.3309 198.359 97.9917 198.795 98.4278C199.037 98.6701 199.133 98.9608 198.891 99.2515C198.649 99.5422 198.311 99.7845 197.875 100.172C200.198 101.141 200.586 103.079 200.392 105.26C200.343 105.551 200.44 105.987 200.15 106.084C198.262 106.665 199.182 108.312 198.795 109.475ZM196.616 101.529C195.939 101.771 194.971 101.626 194.729 102.74C194.535 103.661 193.906 104.63 195.358 105.114C195.648 105.211 195.648 105.599 195.697 105.89C195.794 106.52 195.794 107.198 195.939 107.779C196.132 108.458 195.648 109.621 196.713 109.621C197.633 109.621 197.294 108.458 197.488 107.779C197.778 106.713 197.197 105.211 198.891 104.727C198.94 104.727 198.988 104.485 199.037 104.388C199.279 103.031 198.117 101.529 196.616 101.529Z" fill="#F9F9F9"/>
<path d="M202.231 94.6481C202.231 94.7935 202.28 95.2296 202.28 95.6656C202.28 96.8285 201.554 97.7492 200.537 97.8461C199.569 97.943 198.649 97.3131 198.456 96.344C198.262 95.2296 198.746 94.3574 200.053 94.1151C201.021 93.9213 200.779 93.3398 200.779 92.8068C200.828 92.2738 200.779 91.6924 201.505 91.6924C202.231 91.6924 202.231 92.3223 202.231 92.8068C202.231 93.3398 202.231 93.8244 202.231 94.6481Z" fill="#F9F9F9"/>
<path d="M204.652 99.7843C204.652 100.317 204.7 100.802 204.652 101.335C204.555 102.449 203.732 103.225 202.764 103.273C201.699 103.273 201.07 102.692 200.828 101.723C200.586 100.753 201.215 99.7843 202.328 99.5421C203.054 99.3967 203.199 99.0575 203.151 98.4276C203.103 97.8462 203.006 97.0709 203.925 97.1194C204.797 97.1678 204.603 97.9431 204.652 98.5245C204.652 98.9606 204.652 99.3483 204.652 99.7843Z" fill="#F9F9F9"/>
<path d="M220.818 93.4853H221.738L221.98 92.4678H222.658L222.416 93.4853H223.287L223.529 92.4678H224.207L223.965 93.4853H224.787V94.1152H223.819L223.626 95.0359H224.449V95.6658H223.481L223.239 96.7318H222.561L222.803 95.6658H221.932L221.69 96.7318H221.012L221.254 95.6658H220.479V95.0359H221.399L221.593 94.1152H220.77V93.4853H220.818ZM222.125 95.0359H222.996L223.19 94.1152H222.319L222.125 95.0359Z" fill="#F9F9F9"/>
<path d="M228.611 94.9389H228.127V96.7317H227.208V92.0801H228.998C229.918 92.0801 230.499 92.71 230.499 93.4853C230.499 94.1152 230.112 94.6482 229.531 94.7935L230.547 96.6832H229.531L228.611 94.9389ZM228.853 94.1636C229.289 94.1636 229.579 93.9213 229.579 93.5337C229.579 93.1461 229.289 92.9038 228.853 92.9038H228.127V94.2121H228.853V94.1636Z" fill="#F9F9F9"/>
<path d="M234.033 95.7626C233.887 96.2956 233.355 96.7801 232.581 96.7801C231.709 96.7801 230.935 96.1502 230.935 95.0357C230.935 94.0182 231.709 93.3398 232.532 93.3398C233.549 93.3398 234.129 93.9697 234.129 94.9873C234.129 95.1327 234.129 95.2296 234.129 95.278H231.806C231.806 95.7141 232.193 96.0048 232.629 96.0048C233.016 96.0048 233.258 95.811 233.355 95.5203L234.033 95.7626ZM233.21 94.745C233.21 94.4058 232.968 94.1151 232.484 94.1151C232.048 94.1151 231.806 94.4543 231.758 94.745H233.21Z" fill="#F9F9F9"/>
<path d="M235.63 96.6836H234.759V93.4856H235.581V93.8732C235.775 93.534 236.162 93.3887 236.501 93.3887C237.276 93.3887 237.663 93.9701 237.663 94.6485V96.6836H236.792V94.7939C236.792 94.4547 236.598 94.1639 236.211 94.1639C235.823 94.1639 235.63 94.4547 235.63 94.8423V96.6836Z" fill="#F9F9F9"/>
<path d="M239.212 95.0846C239.212 95.666 239.599 96.0052 240.035 96.0052C240.47 96.0052 240.712 95.7145 240.761 95.4722L241.535 95.7145C241.39 96.2475 240.906 96.7805 240.035 96.7805C239.067 96.7805 238.341 96.0537 238.341 95.0846C238.341 94.067 239.067 93.3887 239.986 93.3887C240.858 93.3887 241.342 93.9217 241.487 94.4547L240.712 94.6969C240.616 94.4062 240.422 94.1639 239.986 94.1639C239.599 94.2124 239.212 94.5031 239.212 95.0846Z" fill="#F9F9F9"/>
<path d="M245.262 95.0846C245.262 96.0537 244.536 96.7805 243.568 96.7805C242.6 96.7805 241.874 96.0537 241.874 95.0846C241.874 94.067 242.6 93.3887 243.568 93.3887C244.536 93.3887 245.262 94.1155 245.262 95.0846ZM244.391 95.0846C244.391 94.4547 244.004 94.1639 243.568 94.1639C243.133 94.1639 242.745 94.4547 242.745 95.0846C242.745 95.666 243.133 96.0052 243.568 96.0052C244.004 96.0052 244.391 95.7145 244.391 95.0846Z" fill="#F9F9F9"/>
<path d="M246.811 96.6836H245.94V93.4856H246.763V93.8732C246.956 93.534 247.344 93.3887 247.682 93.3887C248.457 93.3887 248.844 93.9701 248.844 94.6485V96.6836H247.973V94.7939C247.973 94.4547 247.779 94.1639 247.392 94.1639C247.005 94.1639 246.811 94.4547 246.811 94.8423V96.6836Z" fill="#F9F9F9"/>
<path d="M250.829 93.4857H251.458V94.261H250.829V95.6177C250.829 95.9084 250.974 96.0053 251.216 96.0053C251.313 96.0053 251.458 96.0053 251.506 95.9569V96.6837C251.41 96.7321 251.264 96.7806 251.022 96.7806C250.393 96.7806 250.006 96.393 250.006 95.763V94.261H249.425V93.4857H249.57C249.909 93.4857 250.054 93.2434 250.054 92.9527V92.5166H250.829V93.4857Z" fill="#F9F9F9"/>
<path d="M254.12 94.3575C254.023 94.3575 253.927 94.3091 253.878 94.3091C253.443 94.3091 253.055 94.5029 253.055 95.2297V96.6833H252.184V93.4854H253.007V93.9699C253.201 93.5338 253.636 93.4854 253.927 93.4854C253.975 93.4854 254.072 93.4854 254.12 93.4854V94.3575Z" fill="#F9F9F9"/>
<path d="M257.605 95.7626C257.46 96.2956 256.928 96.7801 256.153 96.7801C255.282 96.7801 254.508 96.1502 254.508 95.0357C254.508 94.0182 255.282 93.3398 256.105 93.3398C257.121 93.3398 257.702 93.9697 257.702 94.9873C257.702 95.1327 257.702 95.2296 257.702 95.278H255.379C255.379 95.7141 255.766 96.0048 256.202 96.0048C256.589 96.0048 256.831 95.811 256.928 95.5203L257.605 95.7626ZM256.783 94.745C256.783 94.4058 256.541 94.1151 256.056 94.1151C255.621 94.1151 255.379 94.4543 255.33 94.745H256.783Z" fill="#F9F9F9"/>
<path d="M258.815 95.666C258.815 95.9083 259.009 96.1506 259.396 96.1506C259.687 96.1506 259.832 96.0052 259.832 95.8114C259.832 95.666 259.735 95.5691 259.493 95.5207L259.057 95.4238C258.428 95.2784 258.138 94.8908 258.138 94.4547C258.138 93.8732 258.67 93.3887 259.348 93.3887C260.267 93.3887 260.558 93.9701 260.606 94.3093L259.88 94.4547C259.832 94.2608 259.735 94.0186 259.348 94.0186C259.106 94.0186 258.912 94.1639 258.912 94.3578C258.912 94.5031 259.009 94.6 259.203 94.6485L259.638 94.7454C260.267 94.8908 260.606 95.2784 260.606 95.7145C260.606 96.2475 260.219 96.7805 259.348 96.7805C258.38 96.7805 258.041 96.1506 257.992 95.7629L258.815 95.666Z" fill="#F9F9F9"/>
</svg>
