<svg width="156" height="160" viewBox="0 0 156 160" fill="none" xmlns="http://www.w3.org/2000/svg">
<path d="M98.3703 155.174H57.032L59.7468 137.072H95.6555L98.3703 155.174Z" fill="#A396C4"/>
<path d="M104.106 156.982H50.9968V159.999H104.106V156.982Z" fill="#A396C4"/>
<path d="M50.9968 156.983L57.0321 155.174H98.3704L104.103 156.983H50.9968Z" fill="#705FA4"/>
<path d="M0 122.893V133.45C0 135.44 1.62958 137.069 3.61978 137.069H151.779C153.769 137.069 155.399 135.44 155.399 133.45V122.893H0Z" fill="#705FA4"/>
<path d="M155.402 122.892V32.6921C155.402 30.7024 153.773 29.0732 151.783 29.0732H3.61978C1.62958 29.0732 0 30.7024 0 32.6921V122.892H155.402Z" fill="#A396C4"/>
<path d="M150.554 33.7471H4.67773V117.461H150.554V33.7471Z" fill="#EFE8F4"/>
<path d="M77.0972 132.171C78.4726 132.171 79.5875 131.056 79.5875 129.681C79.5875 128.306 78.4726 127.191 77.0972 127.191C75.7219 127.191 74.6069 128.306 74.6069 129.681C74.6069 131.056 75.7219 132.171 77.0972 132.171Z" fill="#A396C4"/>
<path d="M20.0484 80.1766C18.5004 80.1766 18.5651 80.9113 18.5651 81.8126C18.5651 82.7173 18.5004 83.4486 20.0484 83.4486H127.904V85.0982L137.31 81.8398L127.904 78.1699V80.1732H20.0484V80.1766Z" fill="#705FA4"/>
<path d="M85.7827 88.2002H120.307C121.052 88.2002 121.661 88.7138 121.661 89.3498V128.471C121.661 129.103 121.055 129.62 120.307 129.62H85.7827C85.0377 129.62 84.4287 129.107 84.4287 128.471V89.3498C84.4287 88.7172 85.0343 88.2002 85.7827 88.2002Z" fill="#F9BCD3"/>
<path d="M116.245 98.4318L94.5193 98.1835C94.3185 98.1291 94.0464 97.9454 94.1008 97.7482L94.2097 96.1666C94.2641 95.9659 94.4444 95.6938 94.6451 95.7483L116.299 95.8707C116.5 95.9251 116.772 96.1088 116.718 96.3061L116.609 97.8876C116.626 98.2141 116.497 98.289 116.245 98.4318Z" fill="#F9E8E8"/>
<path d="M116.228 102.832L94.5737 102.71C94.373 102.655 94.1008 102.472 94.1552 102.275L94.2641 100.693C94.3185 100.492 94.4988 100.22 94.6996 100.275L116.354 100.397C116.554 100.451 116.827 100.635 116.772 100.832L116.663 102.414C116.609 102.615 116.357 102.758 116.228 102.832Z" fill="#F9E8E8"/>
<path d="M116.214 107.231L94.56 107.108C94.3593 107.054 94.0871 106.87 94.1416 106.673L94.2504 105.091C94.3049 104.891 94.4852 104.619 94.6859 104.673L116.34 104.796C116.541 104.85 116.813 105.03 116.758 105.231L116.65 106.812C116.595 107.013 116.34 107.159 116.214 107.231Z" fill="#F9E8E8"/>
<path d="M116.2 111.628L94.5464 111.506C94.3456 111.451 94.0735 111.268 94.1279 111.07L94.2368 109.489C94.2912 109.288 94.4715 109.016 94.6722 109.071L116.326 109.193C116.527 109.247 116.799 109.431 116.745 109.628L116.636 111.21C116.581 111.411 116.401 111.683 116.2 111.628Z" fill="#F9E8E8"/>
<path d="M89.474 108.832L91.3077 108.798C91.5085 108.852 91.7806 109.036 91.7262 109.233L91.7636 111.07C91.7092 111.271 91.5289 111.543 91.3282 111.488L89.4944 111.522C89.2937 111.468 89.0216 111.284 89.076 111.087L89.0386 109.25C89.093 109.05 89.1474 108.849 89.474 108.832Z" fill="#F9E8E8"/>
<path d="M89.4911 104.434L91.3248 104.4C91.5256 104.455 91.7977 104.638 91.7433 104.836L91.7807 106.672C91.7263 106.873 91.546 107.145 91.3452 107.091L89.5115 107.125C89.3108 107.07 89.0387 106.887 89.0931 106.689L89.0557 104.853C89.1101 104.652 89.1645 104.451 89.4911 104.434Z" fill="#F9E8E8"/>
<path d="M89.5046 100.033L91.3383 99.999C91.539 100.053 91.8111 100.237 91.7567 100.434L91.7941 102.271C91.7397 102.472 91.5594 102.744 91.3587 102.689L89.525 102.723C89.3242 102.669 89.0521 102.485 89.1065 102.288L89.0691 100.451C89.1235 100.254 89.178 100.053 89.5046 100.033Z" fill="#F9E8E8"/>
<path d="M89.5182 95.6356L91.3519 95.6016C91.5526 95.656 91.8248 95.8396 91.7704 96.0369L91.8078 97.8736C91.7534 98.0743 91.5731 98.3463 91.3723 98.2919L89.5386 98.3259C89.3379 98.2715 89.0657 98.0879 89.1202 97.8906L89.0828 96.0539C89.1372 95.8533 89.2665 95.7818 89.5182 95.6356Z" fill="#F9E8E8"/>
<path d="M90.9368 97.5266L90.4095 97.4892L90.4061 95.1254L89.7529 95.1628L89.7903 94.6356L90.8994 94.5098L90.9368 97.5266Z" fill="#C41C60"/>
<path d="M91.396 102.162L89.4875 102.071L89.4705 101.744L90.3958 100.71C90.5217 100.639 90.5761 100.438 90.7054 100.367C90.8313 100.295 90.7598 100.166 90.8857 100.094C90.8143 99.9686 90.9401 99.8938 90.7394 99.8393C90.668 99.7135 90.5387 99.7849 90.4673 99.6557C90.3414 99.7271 90.3414 99.7271 90.2121 99.8019C90.0862 99.8734 90.1577 100.003 90.1032 100.203L89.5759 100.166C89.5589 99.8393 89.6133 99.6387 89.8651 99.4924C90.1203 99.3462 90.2461 99.2747 90.5727 99.2577C90.8993 99.2407 91.1 99.2951 91.2463 99.5502C91.3178 99.6761 91.4641 99.9312 91.4096 100.132C91.3552 100.333 91.4266 100.458 91.3008 100.533C91.2463 100.734 90.9912 100.877 90.8109 101.152L90.1203 101.717H91.3008L91.396 102.162Z" fill="#C41C60"/>
<path d="M90.3075 104.979C90.4334 104.908 90.6341 104.962 90.5626 104.833C90.6885 104.761 90.6171 104.632 90.7429 104.561C90.6715 104.435 90.6715 104.435 90.5966 104.306C90.5252 104.18 90.3959 104.251 90.3245 104.125C90.1986 104.197 90.1986 104.197 90.0693 104.272C89.9435 104.343 89.9435 104.343 90.0149 104.472L89.4876 104.435C89.542 104.234 89.5964 104.034 89.7223 103.962C89.8482 103.891 90.1034 103.744 90.4299 103.727C90.7565 103.71 90.9573 103.765 91.1036 104.02C91.3043 104.074 91.3213 104.401 91.2669 104.602C91.3383 104.727 91.2124 104.802 91.158 105.003C91.0321 105.074 90.9777 105.275 90.777 105.221C90.9777 105.275 91.0491 105.404 91.124 105.53C91.1988 105.656 91.2703 105.785 91.2158 105.986C91.2328 106.312 91.107 106.387 90.9266 106.659C90.6715 106.806 90.5456 106.877 90.219 106.894C89.8924 106.911 89.6917 106.857 89.5454 106.601C89.3991 106.346 89.1984 106.292 89.1814 105.965L89.7087 106.003C89.7802 106.129 89.7802 106.129 89.855 106.258C89.9264 106.384 90.0557 106.312 90.1272 106.438C90.253 106.367 90.4538 106.421 90.3823 106.292C90.3109 106.166 90.4368 106.091 90.5626 106.02C90.6171 105.819 90.5456 105.693 90.4163 105.765C90.3449 105.639 90.2156 105.71 90.0149 105.656L89.6883 105.673L89.5964 105.217L90.3075 104.979Z" fill="#C41C60"/>
<path d="M91.0015 110.326L91.3281 110.309L91.2907 110.836L90.9641 110.853L91.0015 111.506L90.4742 111.469L90.4368 110.816H89.2563L89.2393 110.489L90.5082 108.581L91.0355 108.618L91.0015 110.326ZM89.7496 110.197L90.4028 110.159L90.4742 109.105L90.4198 109.306L89.7496 110.197Z" fill="#C41C60"/>
<path d="M103.045 82.3604C105.998 82.3604 108.389 84.7514 108.389 87.7003C108.389 90.6491 105.998 93.0402 103.045 93.0402C100.092 93.0402 97.7002 90.6491 97.7002 87.7003C97.7002 84.7514 100.092 82.3604 103.045 82.3604Z" fill="#F9F9F9"/>
<path d="M103.045 93.5778C99.8026 93.5778 97.166 90.9419 97.166 87.7005C97.166 84.4592 99.8026 81.8232 103.045 81.8232C106.287 81.8232 108.924 84.4592 108.924 87.7005C108.924 90.9419 106.287 93.5778 103.045 93.5778ZM103.045 82.8946C100.391 82.8946 98.2343 85.051 98.2343 87.7005C98.2343 90.3501 100.391 92.5065 103.045 92.5065C105.698 92.5065 107.855 90.3501 107.855 87.7005C107.855 85.051 105.695 82.8946 103.045 82.8946Z" fill="#F9BCD3"/>
<path d="M95.3085 116.468C96.0706 116.111 96.8395 115.9 97.6866 116.196C98.2105 116.38 98.5337 117.029 98.9998 117.022C99.4386 117.016 99.7788 116.41 100.293 116.25C101.368 115.917 102.569 116.312 103.188 117.237C103.854 118.227 103.803 119.441 102.987 120.315C102.045 121.325 101.055 122.288 100.082 123.274C99.8673 123.468 99.6462 123.651 99.442 123.856C98.8467 124.461 98.748 124.464 98.1833 123.849C97.2103 122.784 96.2543 121.706 95.2677 120.658C93.8933 119.192 93.8933 117.869 95.3085 116.468ZM94.9751 118.771C94.9513 119.118 95.2337 119.56 95.6045 119.971C96.5809 121.067 97.6662 122.063 98.5507 123.237C98.7786 123.539 98.9487 123.362 99.0984 123.213C100.228 122.09 101.374 120.982 102.463 119.822C103.147 119.094 103.089 118.114 102.426 117.41C101.793 116.737 100.759 116.652 99.9932 117.199C99.6428 117.448 99.4012 117.944 98.9624 117.944C98.5167 117.944 98.3023 117.427 97.9655 117.165C97.3464 116.689 96.6728 116.621 95.9822 116.941C95.3188 117.25 95.0058 117.808 94.9751 118.771Z" fill="#C41C60"/>
<path d="M98.2683 120.505C98.5506 119.852 98.7582 119.362 98.9725 118.879C99.0814 118.631 99.1834 118.369 99.5168 118.359C99.8468 118.349 99.9999 118.576 100.088 118.838C100.218 119.212 100.459 119.345 100.84 119.314C101.085 119.294 101.337 119.318 101.582 119.345C101.772 119.366 101.868 119.502 101.861 119.692C101.857 119.852 101.766 120.019 101.619 120.005C100.901 119.933 100.068 120.331 99.5134 119.44C99.2719 120.002 99.0541 120.508 98.833 121.015C98.7309 121.25 98.6085 121.461 98.3057 121.464C97.9995 121.467 97.8804 121.253 97.7716 121.022C97.6899 120.855 97.5913 120.692 97.5368 120.519C97.3973 120.056 97.115 119.862 96.6217 119.92C96.3529 119.951 95.9719 119.998 95.9957 119.549C96.0161 119.155 96.3665 119.27 96.6183 119.226C97.5198 119.07 97.9995 119.532 98.2683 120.505Z" fill="#C41C60"/>
<path d="M102.354 87.0301V84.918H103.739V87.0301H105.787V88.3736H103.739V90.4824H102.354V88.3736H100.296V87.0301H102.354Z" fill="#C41C60"/>
<path d="M28.0381 59.8184L31.3755 71.3213L32.9472 79.9604H34.5224L32.9507 59.8184H28.0381Z" fill="#3D2884"/>
<path d="M26.5343 59.8184C26.7656 65.7943 26.6738 69.0561 26.6227 69.5969C26.5717 70.1411 26.2757 73.777 24.2583 80.1406H25.8981C28.5687 74.0354 29.5043 70.3961 29.8104 69.5969C30.1166 68.7942 31.0216 65.5358 32.345 59.8184H26.5343Z" fill="#3D2884"/>
<path d="M27.9666 59.8184C28.8341 63.7774 30.3378 70.0968 32.4743 78.7767H34.7809C34.951 69.869 34.2263 64.0053 32.971 59.8184H27.9666Z" fill="#A396C4"/>
<path d="M26.5242 59.8184C26.7521 65.7943 26.1601 71.6818 24.3298 78.8686H26.7895C29.4669 72.8518 31.3857 66.9949 32.6955 59.8184H26.5242Z" fill="#BCB1D4"/>
<path d="M24.0271 81.3283L24.119 79.8692C24.6497 80.0257 25.3131 79.9644 26.1092 79.6855C26.9665 80.291 28.0449 80.7059 29.3479 80.9304C29.4466 80.9474 29.5146 81.0426 29.4976 81.1413C29.4976 81.1481 29.4942 81.1549 29.4942 81.1617L29.3683 81.6038H26.1126H24.2142L24.0271 81.3283Z" fill="#A396C4"/>
<path d="M32.5935 81.3283L32.6854 79.8692C33.2161 80.0257 33.8795 79.9644 34.6756 79.6855C35.5329 80.291 36.6113 80.7059 37.9143 80.9304C38.013 80.9474 38.081 81.0426 38.064 81.1413C38.064 81.1481 38.0606 81.1549 38.0606 81.1617L37.9347 81.6038H34.679H32.7806L32.5935 81.3283Z" fill="#A396C4"/>
<path d="M29.3273 46.3871C28.9088 45.8939 28.6231 45.2885 28.6707 44.6117C28.8068 42.6628 31.525 43.0913 32.0523 44.0743C32.5797 45.0572 32.5184 47.5571 31.8346 47.7306C31.5624 47.802 30.9807 47.6286 30.3921 47.2748L30.763 49.8972H28.5754L29.3273 46.3871Z" fill="#3D2884"/>
<path d="M29.1573 46.8262C28.8817 45.6052 28.0992 44.7719 28.2183 44.2277C28.2965 43.8638 28.5109 43.6359 28.8545 43.5475C29.0314 42.8264 29.6097 42.5203 30.5793 42.6257C32.0388 42.789 32.9267 43.3944 32.5423 44.7243C32.1885 44.7243 31.7632 44.595 31.1713 44.8161C30.9842 44.8841 30.8515 45.1018 30.7698 45.4623H30.5045C30.2459 45.0338 29.9908 44.8773 29.739 44.9896C29.4873 45.1018 29.4294 45.3807 29.5689 45.8195L29.4362 46.8262H29.1573Z" fill="#897AB4"/>
<path d="M32.3553 45.6191C32.4131 45.7382 32.5117 45.847 32.5594 45.9695C32.6036 46.0851 32.6376 46.2416 32.6478 46.364C32.6648 46.5409 32.4403 46.7586 32.2566 46.7552" fill="#3D2884"/>
<path d="M32.2567 45.3122C32.1955 45.3054 32.1479 45.3088 32.1002 45.3156C32.0526 45.3224 32.0084 45.3326 31.9641 45.3428C31.8689 45.3633 31.777 45.3939 31.658 45.4109C31.7124 45.2986 31.8145 45.234 31.9301 45.2C31.988 45.1864 32.0526 45.183 32.1138 45.2C32.1717 45.217 32.2295 45.2544 32.2567 45.3122Z" fill="#897AB4"/>
<path d="M32.2566 47.1832C32.2055 47.2036 32.1443 47.2002 32.0933 47.1866C32.0388 47.173 31.9878 47.1492 31.9402 47.1254C31.8449 47.0778 31.7599 47.0131 31.685 46.9859L31.7803 46.9247C31.7769 46.9383 31.7905 46.9825 31.8177 47.0199C31.8415 47.0608 31.8721 47.0982 31.9028 47.1356C31.9674 47.2138 32.0354 47.2886 32.1103 47.3635C32.0558 47.3567 32.0048 47.3329 31.9572 47.3056C31.9096 47.2784 31.8619 47.2512 31.8211 47.2138C31.7769 47.1798 31.7395 47.139 31.702 47.0948C31.6714 47.0472 31.6306 46.9927 31.634 46.9009L31.6374 46.8057L31.7292 46.8431C31.8483 46.8907 31.9232 46.9621 32.0014 47.0267C32.0797 47.0948 32.1511 47.1594 32.2566 47.1832Z" fill="#897AB4"/>
<path d="M32.0795 45.7645C32.1434 45.7645 32.1952 45.7127 32.1952 45.6488C32.1952 45.585 32.1434 45.5332 32.0795 45.5332C32.0157 45.5332 31.9639 45.585 31.9639 45.6488C31.9639 45.7127 32.0157 45.7645 32.0795 45.7645Z" fill="#897AB4"/>
<path d="M36.4003 56.8599L38.9825 59.3802C39.7343 59.6999 40.3501 60.0536 40.8298 60.4413C40.9387 60.5706 41.0543 60.8223 40.5474 60.71C40.0405 60.5978 39.4996 60.5026 39.4043 60.6692C39.3091 60.8359 39.5915 61.0876 39.4145 61.3019C39.2955 61.4447 38.9008 60.9889 38.2272 59.9278L35.543 58.3462L36.4003 56.8599ZM23.7719 54.5811L25.7689 54.5879C24.2482 59.5128 23.4419 62.0909 23.3467 62.3222C23.1357 62.846 23.5814 63.6419 23.7719 64.067C23.1493 64.3459 23.2174 63.3154 22.4315 63.6793C21.7171 64.0126 21.1693 64.6146 20.3426 64.1045C20.2406 64.0432 20.1283 63.8052 20.3971 63.6215C21.0673 63.1623 22.0335 62.3562 22.1661 62.0909C22.3499 61.7338 22.884 59.2305 23.7719 54.5811Z" fill="#3D2884"/>
<path d="M29.8547 48.9183L30.644 48.7822C31.8858 53.1698 38.268 56.1629 38.6592 57.8023C38.8021 58.4043 38.3701 58.707 38.5946 58.8906L37.5706 59.6389C37.3971 59.4348 37.0263 59.8056 36.254 59.5471C35.4817 59.2886 29.8547 54.1153 29.8547 48.9183Z" fill="#705FA4"/>
<path d="M31.1816 49.5027C31.0898 55.312 34.451 56.7949 33.7026 59.1248C33.0834 61.0498 27.1706 63.1178 26.1466 61.2335C25.7315 60.4682 25.5444 59.5465 25.524 58.5431C25.2621 59.3152 25.0545 59.9785 24.9049 60.5363C24.6429 61.4954 23.6257 61.6485 23.6257 62.0192L22.2853 61.6485C22.3771 61.1451 21.7443 60.9002 21.9144 59.7778C22.6731 54.744 24.7143 51.0979 28.0347 48.8327L28.0688 48.3429C28.0824 48.1422 28.2559 47.9892 28.4566 48.0062L30.9129 48.1762C31.1136 48.1898 31.2667 48.3633 31.2497 48.564L31.1816 49.5027Z" fill="#897AB4"/>
<path d="M108.08 0H141.546C142.27 0 142.856 0.58841 142.856 1.30947V45.9198C142.856 46.6443 142.267 47.2293 141.546 47.2293H108.08C107.355 47.2293 106.77 46.6409 106.77 45.9198V1.30947C106.767 0.58841 107.355 0 108.08 0Z" fill="#F9C19B"/>
<path d="M125.325 44.0088C128.186 44.0088 130.506 46.3284 130.506 49.1854C130.506 52.0459 128.186 54.3621 125.325 54.3621C122.464 54.3621 120.144 52.0425 120.144 49.1854C120.144 46.3284 122.464 44.0088 125.325 44.0088Z" fill="#F9F9F9"/>
<path d="M125.325 54.8824C122.181 54.8824 119.626 52.328 119.626 49.1853C119.626 46.0426 122.185 43.4883 125.325 43.4883C128.468 43.4883 131.023 46.0426 131.023 49.1853C131.027 52.328 128.468 54.8824 125.325 54.8824ZM125.325 44.5257C122.753 44.5257 120.664 46.6174 120.664 49.1853C120.664 51.7532 122.756 53.845 125.325 53.845C127.897 53.845 129.989 51.7566 129.989 49.1853C129.989 46.614 127.897 44.5257 125.325 44.5257Z" fill="#F9C19B"/>
<path d="M137.256 20.3192L116.714 20.2206C116.439 20.2614 116.262 20.0063 116.378 19.8464L116.432 18.2887C116.391 18.0132 116.646 17.8363 116.806 17.952L137.348 18.0506C137.623 18.0098 137.8 18.2649 137.685 18.4247L137.63 19.9825C137.651 20.1185 137.531 20.2784 137.256 20.3192Z" fill="#F9AA75"/>
<path d="M137.31 24.5331L116.769 24.4344C116.493 24.4753 116.316 24.2202 116.432 24.0603L116.486 22.5026C116.445 22.2271 116.7 22.0502 116.86 22.1658L137.402 22.2645C137.678 22.2237 137.854 22.4788 137.739 22.6386L137.684 24.1964C137.701 24.3358 137.586 24.4923 137.31 24.5331Z" fill="#F9AA75"/>
<path d="M137.365 28.747L116.823 28.6483C116.548 28.6891 116.371 28.434 116.486 28.2742L116.541 26.7164C116.5 26.4409 116.755 26.2641 116.915 26.3797L137.457 26.4783C137.732 26.4375 137.909 26.6926 137.793 26.8525L137.739 28.4102C137.756 28.5497 137.501 28.7265 137.365 28.747Z" fill="#F9AA75"/>
<path d="M137.28 32.9852L116.738 32.8866C116.462 32.9274 116.286 32.6723 116.401 32.5125L116.456 30.9547C116.415 30.6792 116.67 30.5023 116.83 30.618L137.371 30.7166C137.647 30.6758 137.824 30.9309 137.708 31.0908L137.654 32.6485C137.671 32.7846 137.555 32.9444 137.28 32.9852Z" fill="#F9AA75"/>
<path d="M137.331 37.1991L116.789 37.1005C116.513 37.1413 116.337 36.8862 116.452 36.7263L116.507 35.1686C116.466 34.8931 116.721 34.7162 116.881 34.8319L137.422 34.9305C137.698 34.8897 137.875 35.1448 137.759 35.3046L137.705 36.8624C137.725 37.0018 137.47 37.1787 137.331 37.1991Z" fill="#F9AA75"/>
<path d="M137.229 41.2977L116.687 41.1991C116.411 41.2399 116.235 40.9848 116.35 40.825L116.405 39.2672C116.364 38.9917 116.619 38.8148 116.779 38.9305L137.32 39.0291C137.596 38.9883 137.773 39.2434 137.657 39.4033L137.603 40.961C137.64 41.2365 137.525 41.3964 137.229 41.2977Z" fill="#F9AA75"/>
<path d="M111.979 38.7871L113.669 38.8211C113.945 38.7803 114.122 39.0354 114.006 39.1953L113.972 40.8891C114.013 41.1646 113.758 41.3414 113.598 41.2258L111.907 41.1918C111.632 41.2326 111.455 40.9775 111.57 40.8176L111.604 39.1238C111.584 38.9878 111.703 38.8279 111.979 38.7871Z" fill="#F9AA75"/>
<path d="M111.924 34.5732L113.615 34.6073C113.891 34.5664 114.067 34.8215 113.952 34.9814L113.918 36.6752C113.959 36.9507 113.703 37.1276 113.544 37.0119L111.853 36.9779C111.577 37.0187 111.4 36.7636 111.516 36.6038L111.55 34.91C111.533 34.7705 111.649 34.6141 111.924 34.5732Z" fill="#F9AA75"/>
<path d="M111.89 30.4951L113.581 30.5291C113.856 30.4883 114.033 30.7434 113.918 30.9033L113.884 32.5971C113.924 32.8726 113.669 33.0494 113.509 32.9338L111.819 32.8998C111.543 32.9406 111.366 32.6855 111.482 32.5256L111.516 30.8318C111.499 30.6924 111.754 30.5155 111.89 30.4951Z" fill="#F9AA75"/>
<path d="M111.975 26.2607L113.666 26.2948C113.942 26.2539 114.119 26.509 114.003 26.6689L113.969 28.3627C114.01 28.6382 113.754 28.8151 113.595 28.6994L111.904 28.6654C111.628 28.7062 111.451 28.4511 111.567 28.2913L111.482 26.7539C111.584 26.458 111.7 26.3016 111.975 26.2607Z" fill="#F9AA75"/>
<path d="M111.941 22.1826L113.632 22.2166C113.908 22.1758 114.085 22.4309 113.969 22.5908L113.935 24.2846C113.976 24.5601 113.721 24.7369 113.561 24.6213L111.87 24.5873C111.594 24.6281 111.417 24.373 111.533 24.2132L111.567 22.5193C111.53 22.2438 111.645 22.084 111.941 22.1826Z" fill="#F9AA75"/>
<path d="M111.89 17.9648L113.581 17.9989C113.856 17.958 114.033 18.2131 113.918 18.373L113.884 20.0668C113.924 20.3423 113.669 20.5192 113.509 20.4035L111.819 20.3695C111.543 20.4103 111.366 20.1552 111.482 19.9954L111.516 18.3016C111.495 18.1655 111.751 17.9853 111.89 17.9648Z" fill="#F9AA75"/>
<path d="M113.271 19.7341L112.7 19.6763L112.652 17.4315L112.081 17.3736L112.019 16.9587L113.122 16.7988L113.271 19.7341Z" fill="#E22D05"/>
<path d="M113.778 24.1658L111.948 24.1522L111.887 23.7372L112.73 22.7679C112.849 22.6114 112.965 22.4516 112.965 22.4516C112.945 22.3121 113.084 22.2951 113.064 22.1557C113.043 22.0162 113.043 22.0162 113.023 21.8802C113.003 21.7407 112.866 21.7611 112.727 21.7815C112.591 21.8019 112.451 21.8224 112.472 21.9584C112.353 22.1149 112.353 22.1149 112.373 22.2543L111.802 22.1965C111.761 21.921 111.88 21.7645 111.996 21.6047C112.115 21.4482 112.387 21.4074 112.662 21.3666C112.938 21.3258 113.094 21.4448 113.254 21.5605C113.411 21.6795 113.452 21.955 113.472 22.0911C113.492 22.2305 113.373 22.387 113.394 22.523C113.414 22.6625 113.159 22.8393 112.924 23.1556L112.434 23.6488L113.557 23.625L113.778 24.1658Z" fill="#E22D05"/>
<path d="M112.744 26.7099C112.88 26.6895 113.02 26.6691 113.02 26.6691C113.156 26.6487 113.139 26.5126 113.118 26.3732C113.098 26.2337 113.098 26.2337 113.078 26.0977C113.057 25.9582 112.921 25.9786 112.782 25.999C112.645 26.0195 112.645 26.0194 112.506 26.0399C112.37 26.0603 112.387 26.1963 112.407 26.3358L111.836 26.2779C111.795 26.0024 111.914 25.846 112.05 25.8256C112.169 25.6691 112.441 25.6283 112.717 25.5875C112.992 25.5467 113.288 25.6453 113.445 25.7644C113.601 25.8834 113.642 26.1589 113.663 26.2949C113.683 26.4344 113.564 26.5909 113.564 26.5909C113.445 26.7473 113.445 26.7473 113.309 26.7677C113.465 26.8868 113.605 26.8664 113.625 27.0024C113.646 27.1418 113.802 27.2575 113.687 27.4173C113.727 27.6928 113.608 27.8493 113.353 28.0296C113.234 28.186 112.962 28.2268 112.686 28.2677C112.411 28.3085 112.254 28.1894 112.094 28.0738C111.938 27.9547 111.758 27.6996 111.877 27.5432L112.448 27.601C112.469 27.7405 112.469 27.7405 112.489 27.8765C112.509 28.016 112.645 27.9956 112.785 27.9751C112.921 27.9547 113.061 27.9343 113.061 27.9343C113.061 27.9343 113.18 27.7779 113.159 27.6384C113.139 27.499 113.118 27.3629 113.118 27.3629C113.098 27.2235 112.962 27.2439 112.822 27.2643L112.547 27.3051L112.486 26.8902L112.744 26.7099Z" fill="#E22D05"/>
<path d="M113.489 31.8117L113.765 31.7709L113.826 32.1858L113.55 32.2267L113.492 32.7981L112.921 32.7402L112.979 32.1688L111.856 32.1926L111.815 31.9171L112.951 30.0635L113.523 30.1213L113.489 31.8117ZM112.21 31.7165L112.917 31.7539L112.914 30.7675L112.795 30.924L112.21 31.7165Z" fill="#E22D05"/>
<path d="M112.063 35.5391L112.254 33.9609L113.809 34.0154L113.87 34.4303L112.747 34.4541L112.689 35.0255L112.826 35.0051C112.962 34.9847 112.962 34.9847 113.101 34.9643C113.377 34.9235 113.533 35.0425 113.693 35.1582C113.85 35.2772 113.89 35.5527 113.931 35.8282C113.972 36.1037 113.853 36.2602 113.737 36.42C113.618 36.5765 113.346 36.6173 113.07 36.6581C112.795 36.6989 112.638 36.5799 112.479 36.4642C112.322 36.3452 112.142 36.0901 112.261 35.9336L112.812 35.852C112.832 35.9915 112.832 35.9915 112.853 36.1275C112.873 36.267 113.009 36.2466 113.149 36.2261C113.285 36.2057 113.424 36.1853 113.404 36.0493C113.523 35.8928 113.523 35.8928 113.503 35.7534C113.482 35.6139 113.462 35.4779 113.441 35.3384C113.421 35.199 113.285 35.2194 113.145 35.2398C113.009 35.2602 113.009 35.2602 112.87 35.2806L112.751 35.4371L112.063 35.5391Z" fill="#E22D05"/>
<path d="M112.979 37.9409C113.115 37.9205 113.115 37.9205 113.275 38.0395C113.411 38.0191 113.431 38.1585 113.571 38.1381L113.493 38.5701C113.356 38.5905 113.336 38.451 113.197 38.4715C113.197 38.4715 113.06 38.4919 112.921 38.5123C112.785 38.5327 112.645 38.5531 112.53 38.7095C112.411 38.866 112.431 39.0054 112.315 39.1619L112.336 39.3014C112.472 39.2809 112.455 39.1449 112.591 39.1245C112.727 39.1041 112.867 39.0837 112.867 39.0837C113.142 39.0429 113.299 39.1619 113.459 39.2775C113.615 39.3966 113.656 39.6721 113.697 39.9476C113.738 40.2231 113.618 40.3795 113.363 40.5598C113.244 40.7163 112.972 40.7571 112.696 40.7979C112.421 40.8387 112.125 40.7401 111.948 40.485C111.771 40.2299 111.73 39.9544 111.689 39.6789L111.747 39.1075C111.706 38.832 111.805 38.5361 112.04 38.2198C112.428 38.0191 112.703 37.9783 112.979 37.9409ZM112.904 39.3592C112.768 39.3796 112.768 39.3796 112.628 39.4C112.492 39.4204 112.492 39.4204 112.509 39.5564L112.53 39.6959C112.55 39.8353 112.591 40.1108 112.611 40.2469C112.632 40.3863 112.768 40.3659 112.928 40.4816C113.064 40.4612 113.203 40.4408 113.183 40.3047C113.302 40.1483 113.302 40.1483 113.282 40.0088C113.261 39.8694 113.241 39.7333 113.22 39.5939C113.04 39.3388 113.04 39.3388 112.904 39.3592Z" fill="#E22D05"/>
<path d="M136.565 6.35322H136.439V6.0199C136.439 5.34986 135.895 4.80566 135.225 4.80566H131.2C130.53 4.80566 129.986 5.34986 129.986 6.0199V6.35322H129.86C129.36 6.35322 128.955 6.75796 128.955 7.25794V8.28851C128.955 8.50279 129.128 8.67625 129.343 8.67625C129.557 8.67625 129.731 8.50279 129.731 8.28851V7.25794C129.731 7.18652 129.788 7.1321 129.856 7.1321H129.982V11.0775C129.982 11.4857 130.186 11.8462 130.499 12.0673V12.4176C130.499 12.9176 130.904 13.3223 131.404 13.3223C131.904 13.3223 132.309 12.9176 132.309 12.4176V12.2917H134.112V12.4176C134.112 12.9176 134.517 13.3223 135.017 13.3223C135.517 13.3223 135.922 12.9176 135.922 12.4176V12.0673C136.232 11.8462 136.439 11.4857 136.439 11.0775V7.1321H136.565C136.637 7.1321 136.691 7.18992 136.691 7.25794V8.28851C136.691 8.50279 136.865 8.67625 137.079 8.67625C137.293 8.67625 137.467 8.50279 137.467 8.28851V7.25794C137.47 6.76136 137.062 6.35322 136.565 6.35322ZM130.761 6.0199C130.761 5.77841 130.959 5.58454 131.197 5.58454H135.221C135.463 5.58454 135.657 5.78181 135.657 6.0199V9.44833H130.758V6.0199H130.761ZM135.66 11.0775C135.66 11.319 135.463 11.5129 135.225 11.5129H131.2C130.959 11.5129 130.765 11.3156 130.765 11.0775V10.2272H135.664V11.0775H135.66ZM131.53 12.4176C131.53 12.557 131.275 12.557 131.275 12.4176V12.2917H131.53V12.4176ZM134.888 12.4176V12.2917H135.143V12.4176C135.143 12.557 134.888 12.557 134.888 12.4176Z" fill="#E22D05"/>
<path d="M133.983 11.2579H135.014C135.228 11.2579 135.402 11.0844 135.402 10.8702C135.402 10.6559 135.228 10.4824 135.014 10.4824H133.983C133.769 10.4824 133.595 10.6559 133.595 10.8702C133.595 11.0844 133.769 11.2579 133.983 11.2579Z" fill="#E22D05"/>
<path d="M131.404 11.2579H132.435C132.649 11.2579 132.823 11.0844 132.823 10.8702C132.823 10.6559 132.649 10.4824 132.435 10.4824H131.404C131.19 10.4824 131.016 10.6559 131.016 10.8702C131.016 11.0844 131.19 11.2579 131.404 11.2579Z" fill="#E22D05"/>
<path d="M132.435 6.61532H133.983C134.197 6.61532 134.371 6.44186 134.371 6.22758C134.371 6.01331 134.197 5.83984 133.983 5.83984H132.435C132.221 5.83984 132.047 6.01331 132.047 6.22758C132.047 6.44186 132.221 6.61532 132.435 6.61532Z" fill="#E22D05"/>
<path d="M124.658 48.7839V46.7363H126.002V48.7839H127.985V50.0865H126.002V52.1307H124.658V50.0865H122.664V48.7839H124.658Z" fill="#E22D05"/>
<path d="M49.7993 17.0127H83.1224C83.8437 17.0127 84.4288 17.7304 84.4288 18.6147V73.1124C84.4288 73.9967 83.8437 74.7143 83.1224 74.7143H49.7993C49.0781 74.7143 48.4929 73.9967 48.4929 73.1124V18.6147C48.4929 17.7304 49.0781 17.0127 49.7993 17.0127Z" fill="#F2B3A7"/>
<path d="M79.2033 37.5596L58.2331 37.3181C58.0392 37.2671 57.7772 37.0902 57.8282 36.8964L57.9337 35.3692C57.9847 35.1753 58.1616 34.9135 58.3556 34.9645L79.2578 35.0801C79.4517 35.1311 79.7136 35.308 79.6626 35.5019L79.5571 37.029C79.5708 37.3487 79.4483 37.4201 79.2033 37.5596Z" fill="#F9E8E8"/>
<path d="M79.1863 41.8044L58.2841 41.6853C58.0902 41.6343 57.8282 41.4574 57.8793 41.2636L57.9847 39.7364C58.0358 39.5425 58.2127 39.2806 58.4066 39.3317L79.3088 39.4507C79.5027 39.5017 79.7647 39.6786 79.7136 39.8725L79.6082 41.3996C79.5571 41.5935 79.3122 41.7329 79.1863 41.8044Z" fill="#F9E8E8"/>
<path d="M79.1726 46.049L58.2704 45.9333C58.0765 45.8789 57.8146 45.7055 57.8656 45.5116L57.9711 43.9845C58.0221 43.7906 58.199 43.5287 58.3929 43.5797L79.2951 43.6987C79.489 43.7498 79.751 43.9266 79.7 44.1205L79.5945 45.6476C79.5401 45.8415 79.2951 45.981 79.1726 46.049Z" fill="#F9E8E8"/>
<path d="M79.159 50.297L58.2568 50.1814C58.0629 50.127 57.8009 49.9535 57.8519 49.7596L57.9574 48.2325C58.0084 48.0386 58.1853 47.7767 58.3792 47.8278L79.2814 47.9434C79.4754 47.9978 79.7373 48.1713 79.6863 48.3651L79.5808 49.8923C79.5264 50.0862 79.3529 50.3481 79.159 50.297Z" fill="#F9E8E8"/>
<path d="M79.023 54.6134L58.1208 54.4978C57.9269 54.4468 57.6649 54.2699 57.7159 54.076L57.8214 52.5489C57.8724 52.355 58.0493 52.0931 58.2433 52.1442L79.1455 52.2598C79.3394 52.3108 79.6013 52.4877 79.5503 52.6815L79.4448 54.2087C79.5129 54.3311 79.3394 54.5964 79.023 54.6134Z" fill="#F9E8E8"/>
<path d="M79.0093 58.8586L58.1071 58.7429C57.9132 58.6919 57.6512 58.515 57.7023 58.3212L57.8077 56.794C57.8588 56.6002 58.0357 56.3383 58.2296 56.3893L79.1318 56.5049C79.3257 56.5559 79.5877 56.7328 79.5366 56.9267L79.4312 58.4538C79.3767 58.6477 79.3257 58.8416 79.0093 58.8586Z" fill="#F9E8E8"/>
<path d="M78.9959 63.1027L58.0937 62.9871C57.8998 62.9326 57.6378 62.7592 57.6888 62.5653L57.7943 61.0382C57.8453 60.8443 58.0222 60.5824 58.2162 60.6334L79.1184 60.7491C79.3123 60.8035 79.5742 60.9769 79.5232 61.1708L79.4177 62.698C79.3633 62.8952 79.1864 63.1571 78.9959 63.1027Z" fill="#F9E8E8"/>
<path d="M78.9822 67.3507L58.08 67.2351C57.8861 67.1807 57.6241 67.0072 57.6752 66.8134L57.7806 65.2862C57.8317 65.0923 58.0086 64.8304 58.2025 64.8815L79.1047 64.9971C79.2986 65.0481 79.5606 65.225 79.5095 65.4189L79.4041 66.946C79.3496 67.1399 79.1727 67.4018 78.9822 67.3507Z" fill="#F9E8E8"/>
<path d="M53.3069 64.5789L55.0794 64.5449C55.2733 64.5993 55.5352 64.7728 55.4842 64.9667L55.5216 66.7387C55.4706 66.9326 55.2937 67.1945 55.0998 67.1435L53.3273 67.1775C53.1334 67.1264 52.8714 66.9496 52.9225 66.7557L52.885 64.9837C52.7456 64.7388 52.9905 64.5993 53.3069 64.5789Z" fill="#F9E8E8"/>
<path d="M53.3205 60.3348L55.093 60.3008C55.2869 60.3552 55.5488 60.5287 55.4978 60.7225L55.5352 62.4946C55.4842 62.6884 55.3073 62.9503 55.1134 62.8993L53.3409 62.9333C53.147 62.8789 52.885 62.7054 52.9361 62.5116L52.8986 60.7395C52.7592 60.4947 53.0075 60.3518 53.3205 60.3348Z" fill="#F9E8E8"/>
<path d="M53.334 56.0897L55.1065 56.0557C55.3004 56.1101 55.5624 56.2835 55.5114 56.4774L55.5488 58.2494C55.4977 58.4433 55.3208 58.7052 55.1269 58.6542L53.3545 58.6882C53.1605 58.6338 52.8986 58.4603 52.9496 58.2665L52.9122 56.4944C52.8441 56.3686 53.0211 56.1067 53.334 56.0897Z" fill="#F9E8E8"/>
<path d="M53.3512 51.8446L55.1237 51.8105C55.3176 51.865 55.5795 52.0384 55.5285 52.2323L55.5659 54.0043C55.5149 54.1982 55.338 54.4601 55.1441 54.4091L53.3716 54.4431C53.1777 54.3921 52.9157 54.2152 52.9668 54.0213L52.9293 52.2493C52.8579 52.1235 53.0348 51.8616 53.3512 51.8446Z" fill="#F9E8E8"/>
<path d="M53.3647 47.5965L55.1372 47.5625C55.3311 47.6135 55.5931 47.7904 55.542 47.9843L55.5795 49.7563C55.5284 49.9502 55.3515 50.212 55.1576 50.161L53.3851 50.195C53.1912 50.1406 52.9293 49.9672 52.9803 49.7733L52.9429 48.0013C52.9973 47.8074 53.0483 47.6135 53.3647 47.5965Z" fill="#F9E8E8"/>
<path d="M53.3784 43.3524L55.1509 43.3184C55.3448 43.3728 55.6067 43.5462 55.5557 43.7401L55.5931 45.5121C55.5421 45.706 55.3652 45.9679 55.1713 45.9169L53.3988 45.9509C53.2049 45.8965 52.9429 45.723 52.994 45.5291L52.9565 43.7571C53.011 43.5632 53.062 43.3694 53.3784 43.3524Z" fill="#F9E8E8"/>
<path d="M53.3918 39.1043L55.1643 39.0703C55.3582 39.1213 55.6202 39.2982 55.5691 39.4921L55.6066 41.2641C55.5555 41.458 55.3786 41.7199 55.1847 41.6688L53.4122 41.7029C53.2183 41.6484 52.9564 41.475 53.0074 41.2811L52.97 39.5091C53.0244 39.3152 53.0754 39.1247 53.3918 39.1043Z" fill="#F9E8E8"/>
<path d="M53.4055 34.8592L55.178 34.8252C55.3719 34.8796 55.6338 35.0531 55.5828 35.2469L55.6202 37.019C55.5692 37.2129 55.3923 37.4747 55.1984 37.4237L53.4259 37.4577C53.232 37.4033 52.97 37.2299 53.0211 37.036L52.9836 35.264C53.0381 35.0701 53.1605 34.9987 53.4055 34.8592Z" fill="#F9E8E8"/>
<path d="M67.5716 71.1025C70.4225 71.1025 72.7291 73.412 72.7291 76.2588C72.7291 79.1056 70.4191 81.415 67.5716 81.415C64.7206 81.415 62.4141 79.1056 62.4141 76.2588C62.4141 73.412 64.7241 71.1025 67.5716 71.1025Z" fill="#F9F9F9"/>
<path d="M67.5716 81.9314C64.4417 81.9314 61.897 79.3873 61.897 76.2582C61.897 73.1291 64.4417 70.585 67.5716 70.585C70.7015 70.585 73.2462 73.1291 73.2462 76.2582C73.2462 79.3839 70.7015 81.9314 67.5716 81.9314ZM67.5716 71.6189C65.0098 71.6189 62.9278 73.7005 62.9278 76.2582C62.9278 78.8159 65.0098 80.8975 67.5716 80.8975C70.1333 80.8975 72.2154 78.8159 72.2154 76.2582C72.2154 73.7005 70.1333 71.6189 67.5716 71.6189Z" fill="#F2B3A7"/>
<path d="M54.7766 36.6854L54.2663 36.6513L54.2629 34.3691L53.6301 34.4031L53.6641 33.893L54.7324 33.7705L54.7766 36.6854Z" fill="#E96246"/>
<path d="M55.2188 41.1581L53.3783 41.0696L53.3613 40.7533L54.2561 39.7534C54.3785 39.682 54.4296 39.4915 54.5554 39.4201C54.6779 39.3486 54.6065 39.2262 54.729 39.1582C54.6575 39.0357 54.78 38.9643 54.5895 38.9133C54.518 38.7908 54.3956 38.8589 54.3275 38.7364C54.205 38.8078 54.205 38.8078 54.0826 38.8759C53.9601 38.9473 54.0315 39.0697 53.9771 39.2602L53.4702 39.2262C53.4532 38.9099 53.5042 38.716 53.7492 38.5766C53.9941 38.4371 54.1166 38.3657 54.433 38.3487C54.7494 38.3317 54.9399 38.3827 55.0828 38.631C55.1542 38.7534 55.2937 38.9983 55.2427 39.1922C55.1916 39.386 55.2597 39.5085 55.1372 39.5765C55.0862 39.7704 54.8378 39.9098 54.6643 40.1717L53.9975 40.7159H55.1372L55.2188 41.1581Z" fill="#E96246"/>
<path d="M54.1676 43.8793C54.29 43.8079 54.484 43.8623 54.4125 43.7399C54.535 43.6685 54.4635 43.546 54.586 43.478C54.5146 43.3556 54.5146 43.3556 54.4465 43.2331C54.3751 43.1107 54.2526 43.1821 54.1846 43.0563C54.0621 43.1277 54.0621 43.1277 53.9396 43.1957C53.8171 43.2671 53.8171 43.2671 53.8886 43.3896L53.3817 43.3556C53.4327 43.1617 53.4872 42.9712 53.6096 42.8998C53.7321 42.8284 53.977 42.6889 54.2934 42.6719C54.6098 42.6549 54.8003 42.7059 54.9432 42.9542C55.1371 43.0086 55.1542 43.3216 55.1031 43.5154C55.1746 43.6379 55.0521 43.7093 54.9977 43.8998C54.8752 43.9712 54.8242 44.1617 54.6302 44.1106C54.8242 44.1651 54.8922 44.2875 54.9636 44.4099C55.0351 44.5324 55.1031 44.6548 55.0521 44.8487C55.0691 45.165 54.9466 45.233 54.7731 45.4983C54.5282 45.6378 54.4057 45.7092 54.0893 45.7262C53.7729 45.7432 53.5824 45.6922 53.4395 45.4439C53.3 45.199 53.1061 45.1446 53.0891 44.8283L53.596 44.8623C53.6675 44.9847 53.6675 44.9847 53.7355 45.1072C53.8069 45.2296 53.9294 45.1616 53.9975 45.2841C54.1199 45.2126 54.3138 45.267 54.2424 45.1446C54.171 45.0222 54.2934 44.9507 54.4159 44.8827C54.4669 44.6888 54.3989 44.5664 54.2764 44.6378C54.205 44.5154 54.0825 44.5834 53.892 44.5324L53.5756 44.5494L53.4872 44.1106L54.1676 43.8793Z" fill="#E96246"/>
<path d="M54.8378 49.0357L55.1541 49.0187L55.1201 49.5288L54.8037 49.5459L54.8378 50.1785L54.3309 50.1445L54.2968 49.5118H53.1571L53.1401 49.1955L54.3649 47.3555L54.8718 47.3895L54.8378 49.0357ZM53.6266 48.9132L54.2594 48.8792L54.3275 47.8623L54.2764 48.0561L53.6266 48.9132Z" fill="#E96246"/>
<path d="M53.4023 52.7898L53.5077 51.2627L55.0319 51.3681L54.9978 51.8783H53.8582L53.7697 52.579C53.7697 52.579 53.8922 52.5075 54.0146 52.4395C54.1371 52.3681 54.1371 52.3681 54.331 52.4225C54.6474 52.4055 54.8379 52.4565 54.9808 52.7048C55.1203 52.9497 55.1918 53.0721 55.2088 53.3885C55.2258 53.7048 55.1747 53.8986 54.9298 54.0381C54.7563 54.3 54.5624 54.249 54.246 54.266C53.9296 54.283 53.7391 54.232 53.5962 53.9837C53.4023 53.9292 53.2628 53.6844 53.3138 53.4939L53.8207 53.5279C53.8922 53.6503 53.7697 53.7218 53.9602 53.7728C54.1541 53.8272 54.1541 53.8272 54.2222 53.9497C54.3446 53.8782 54.5386 53.9327 54.4671 53.8102C54.5896 53.7388 54.5182 53.6163 54.5726 53.4259C54.6236 53.232 54.5556 53.1096 54.4841 52.9871C54.4127 52.8647 54.4127 52.8647 54.2222 52.8102C54.0997 52.8817 54.0283 52.7558 53.9058 52.8273C53.9058 52.8273 53.7833 52.8987 53.8548 53.0211L53.4023 52.7898Z" fill="#E96246"/>
<path d="M54.3004 55.2117C54.4229 55.1403 54.4943 55.2627 54.6168 55.1947C54.6168 55.1947 54.8107 55.2491 54.8788 55.3716L54.7733 55.7559L54.5794 55.7049L54.3855 55.6505C54.1915 55.5961 54.0691 55.6675 54.018 55.8614C53.8956 55.9328 53.8445 56.1232 53.8616 56.4396L53.933 56.562C54.0555 56.4906 54.0555 56.4906 54.1779 56.4225C54.3004 56.3511 54.4229 56.2831 54.4943 56.4055C54.6882 56.46 54.8788 56.511 55.1441 56.6878C55.2836 56.9327 55.355 57.0552 55.3721 57.3715C55.3891 57.6878 55.338 57.8817 55.0931 58.0211C54.8481 58.1606 54.7257 58.232 54.4093 58.249C54.0929 58.266 53.899 58.215 53.7595 57.9667C53.62 57.7218 53.4771 57.4769 53.4601 57.1606L53.4261 56.528C53.4091 56.2117 53.5145 55.8273 53.7595 55.6845C53.8615 55.3001 53.984 55.2287 54.3004 55.2117ZM54.3174 56.6674C54.195 56.7389 54.1235 56.613 54.001 56.6844C53.8786 56.7559 53.8786 56.7559 53.8786 56.7559L53.8275 56.9497C53.7765 57.1436 53.8445 57.2661 53.916 57.3885C53.9874 57.5109 54.0555 57.6334 54.1779 57.5654C54.3004 57.4939 54.3004 57.4939 54.4229 57.4259C54.5454 57.3545 54.4739 57.232 54.5284 57.0382C54.5794 56.8443 54.5113 56.7219 54.4399 56.5994C54.5113 56.7219 54.3174 56.6674 54.3174 56.6674Z" fill="#E96246"/>
<path d="M55.076 59.9832C54.7766 60.3166 54.4806 60.6499 54.4977 60.9662C54.3242 61.2281 54.3412 61.5444 54.3071 62.0546L54.3241 62.3709L53.8138 62.3369L53.7968 62.0206C53.7798 61.7043 53.8853 61.3199 53.9873 60.9322C54.1643 60.6703 54.2663 60.2825 54.5657 59.9492L53.1096 59.9662L53.1436 59.4561L55.1066 59.4731L55.076 59.9832Z" fill="#E96246"/>
<path d="M55.0794 64.5484C55.1508 64.6709 55.0283 64.7423 54.9739 64.9328C54.8514 65.0042 54.8004 65.1947 54.6065 65.1436C54.8004 65.1947 54.8684 65.3205 54.9399 65.4429C55.0113 65.5654 55.0794 65.6878 55.0283 65.8817C55.0453 66.198 54.9229 66.266 54.7494 66.5313C54.5044 66.6708 54.3819 66.7422 54.0655 66.7592C53.7492 66.7762 53.5586 66.7252 53.2933 66.5483C53.0313 66.3715 53.0824 66.181 52.9429 65.9327C52.9939 65.7388 52.9259 65.6164 53.0483 65.5484C53.1708 65.477 53.2933 65.4089 53.4158 65.3375C53.2218 65.2865 53.1538 65.1606 53.0824 65.0382C53.0109 64.9158 52.9429 64.7933 52.9939 64.5994C53.0449 64.4056 53.0994 64.2151 53.2729 63.9498C53.3953 63.8784 53.6403 63.7389 53.9567 63.7219C54.2731 63.7049 54.4636 63.7559 54.535 63.8818C54.9909 64.1097 55.0623 64.2321 55.0794 64.5484ZM54.6405 65.7763C54.5691 65.6538 54.6235 65.4599 54.501 65.5314C54.4296 65.4089 54.3071 65.477 54.2391 65.3545C54.1166 65.4259 53.9227 65.3715 53.9941 65.494C53.8716 65.5654 53.9431 65.6878 53.8206 65.7559C53.892 65.8783 53.8376 66.0722 53.9601 66.0007C54.0315 66.1232 54.154 66.0552 54.3445 66.1062C54.467 66.0348 54.5384 66.1606 54.5895 65.9667C54.5895 65.9667 54.7119 65.8987 54.6405 65.7763ZM54.569 64.511C54.4976 64.3886 54.6201 64.3171 54.4296 64.2661C54.3581 64.1437 54.3581 64.1437 54.2357 64.2151C54.1132 64.2865 54.1132 64.2865 53.9907 64.3546C53.8682 64.426 53.9397 64.5484 53.8172 64.6164C53.8886 64.7389 53.7662 64.8103 53.9567 64.8613C54.0281 64.9838 54.1506 64.9158 54.2186 65.0382C54.3411 64.9668 54.3411 64.9668 54.4636 64.8987C54.518 64.7049 54.518 64.7049 54.569 64.511Z" fill="#E96246"/>
<path d="M79.074 28.3864C79.0672 28.5938 79.0502 28.7979 79.0502 29.0054C79.0502 29.5462 78.7576 29.8421 78.2575 29.9679C78.1792 29.9883 78.0942 30.0019 78.0125 30.0019C75.6447 30.0053 76.087 30.3455 76.0189 28.2061C76.0121 27.9986 75.9985 27.7911 76.0121 27.5837C76.0359 27.2299 75.8692 27.1041 75.5324 27.1075C75.1922 27.1075 74.9779 27.1891 74.9983 27.5939C75.0255 28.1721 74.9949 28.7537 75.0255 29.3319C75.0561 29.8829 74.8078 30.0802 74.2873 30.0496C73.9573 30.0291 73.6239 30.0564 73.2939 30.0564C72.3107 30.0564 72.0147 29.7707 71.9603 28.7673C71.9535 28.6653 71.9331 28.5632 71.9229 28.4612C71.9365 28.2129 71.9399 27.9646 71.9603 27.7197C71.9773 27.4884 72.0725 27.3116 72.3413 27.332C72.5692 27.349 72.6577 27.502 72.6611 27.7163C72.6645 27.9442 72.6475 28.1755 72.6747 28.4C72.7087 28.6959 72.5182 29.1142 72.8448 29.2571C73.236 29.4305 73.7055 29.3353 74.1342 29.2809C74.3655 29.2537 74.3009 29.0258 74.3009 28.8727C74.3043 28.3966 74.2805 27.917 74.2907 27.4408C74.3043 26.8048 74.6173 26.4715 75.2228 26.4171C76.1482 26.332 76.5939 26.5667 76.7061 27.2538C76.7674 27.6381 76.747 28.0394 76.7572 28.4306C76.7844 29.3931 76.6585 29.2673 77.6485 29.2673C77.7302 29.2673 77.8152 29.2571 77.8969 29.2639C78.2541 29.2911 78.3765 29.104 78.3697 28.7741C78.3595 28.4204 78.3595 28.07 78.3595 27.7163C78.3595 27.468 78.4072 27.2435 78.7236 27.2538C79.0059 27.264 79.0331 27.4748 79.0399 27.6959C79.0434 27.9306 79.0604 28.1585 79.074 28.3864Z" fill="#E96246"/>
<path d="M79.0058 24.839C78.7609 25.5601 79.312 26.026 79.8359 26.5158C80.023 26.6927 80.4109 26.8763 80.0979 27.2097C79.7577 27.5736 79.5468 27.1791 79.3426 26.9852C78.22 25.9104 77.0905 24.8424 76.0052 23.7302C75.597 23.3119 75.352 23.2677 74.9336 23.7234C73.8891 24.8458 72.7903 25.9172 71.7152 27.0124C71.6438 27.0872 71.5723 27.1621 71.4975 27.2335C71.3274 27.3967 71.1539 27.5634 70.9157 27.3389C70.6708 27.1076 70.8409 26.9274 71.0008 26.7607C71.6914 26.0465 72.3888 25.3356 73.0829 24.6213C73.634 24.0567 74.1715 23.4819 74.7362 22.9343C75.2159 22.4684 75.7126 22.431 76.1515 22.9241C76.6142 23.4479 77.1245 23.5432 77.7845 23.5159C79.1861 23.4615 78.9684 23.3221 79.0058 24.839ZM77.5974 24.2574C77.8151 24.5261 77.9852 24.7336 78.2608 24.873C78.4105 24.2608 78.2302 24.0601 77.5974 24.2574Z" fill="#E96246"/>
<path d="M78.7168 20.5537C79.0978 20.5741 79.3461 20.7306 79.1284 21.1319C78.9719 21.4278 79.176 21.5911 79.2679 21.8054C79.2747 22.1013 79.2135 22.3768 79.0127 22.6114C78.8767 22.7679 78.7236 22.8563 78.5296 22.7441C78.3425 22.6353 78.2915 22.472 78.4004 22.2713C78.465 22.1489 78.5875 22.0366 78.4752 21.8802C78.1078 21.353 78.3732 20.9449 78.7168 20.5537Z" fill="#E96246"/>
<path d="M76.8592 21.686C76.8252 21.4173 76.8116 21.152 76.9851 20.9208C77.1042 20.7609 77.2096 20.5466 77.4546 20.5908C77.6825 20.6317 77.7914 20.8051 77.7846 21.0398C77.6077 21.2133 77.5158 21.3833 77.6961 21.6248C77.873 21.8595 77.8594 22.1248 77.7097 22.3765C77.577 22.601 77.4546 22.9037 77.1178 22.7744C76.8014 22.652 76.8728 22.4003 77.0123 22.1622C77.145 21.9445 76.9749 21.8221 76.8592 21.686Z" fill="#E96246"/>
<path d="M77.5974 24.2577C78.2302 24.0604 78.4139 24.2611 78.2608 24.8733C77.9852 24.7339 77.8151 24.5264 77.5974 24.2577Z" fill="#E96246"/>
<path d="M66.9082 75.6906V73.6533H68.2452V75.6906H70.2218V76.9865H68.2452V79.0238H66.9082V76.9865H64.9214V75.6906H66.9082Z" fill="#E96246"/>
</svg>
