<svg width="298" height="152" viewBox="0 0 298 152" fill="none" xmlns="http://www.w3.org/2000/svg">
<path d="M252.1 138.541C258.441 139.78 265.934 139.161 272.319 137.479C278.704 135.797 284.069 133.23 288.858 130.398C292.982 127.963 296.839 125.264 297.815 122.121C298.79 119.023 295.864 115.527 290.144 114.863C282.784 114.022 275.601 117.873 267.974 118.05C264.87 118.094 261.722 117.563 258.796 118.227C254.583 119.2 253.475 121.989 250.504 123.847C249.13 124.733 247.312 125.397 245.804 126.193C237.779 130.663 242.833 136.727 252.1 138.541Z" fill="#F9C19B"/>
<path d="M6.90057 146.331C12.31 150.093 19.6261 151.863 26.3215 151.996C33.0168 152.085 39.18 150.669 44.8556 148.765C49.7329 147.128 54.566 145.003 56.783 141.419C59 137.834 57.7585 132.39 52.615 129.602C46.0527 126.017 37.6725 128.407 30.4451 125.972C27.5186 124.999 24.7696 123.184 21.7544 123.007C17.4091 122.786 15.1478 125.928 11.6006 127.3C9.91569 127.92 7.96473 128.141 6.19113 128.672C-3.20893 131.372 -1.03628 140.843 6.90057 146.331Z" fill="#D6CDE4"/>
<path d="M188.206 137.745C193.128 138.586 198.759 138.054 203.992 138.453C207.893 138.763 211.529 139.559 215.387 139.958C219.244 140.356 223.811 140.312 226.605 139.117C228.378 138.364 229.177 137.302 229.664 136.24C230.862 133.673 230.684 130.973 232.679 128.495C234.187 126.636 236.892 124.954 238.488 123.095C240.084 121.236 240.306 118.935 237.246 117.43C233.522 115.616 226.516 115.793 221.594 116.988C216.673 118.183 212.948 120.086 208.426 121.546C204.036 122.962 198.981 123.936 194.237 125.131C189.093 126.415 182.62 128.495 180.846 131.062C179.161 133.629 182.398 136.727 188.206 137.745Z" fill="#F7CDD4"/>
<path d="M206.342 20.4167C205.189 23.9573 203.504 31.968 204.701 33.2958L212.904 33.7383V33.6941C215.963 33.517 218.446 31.0829 218.624 27.9405L218.934 22.01C219.111 18.6463 216.54 15.8138 213.17 15.6368L212.593 15.5925C209.578 15.4155 206.962 17.4956 206.342 20.4167Z" fill="#7A380C"/>
<path d="M215.564 26.6124C216.939 25.1519 217.914 23.3373 217.87 21.2129C217.737 15.1495 209.268 16.0347 207.45 19C205.632 21.9653 205.455 29.7104 207.539 30.3743C208.381 30.6399 210.199 30.1973 212.106 29.1793L210.554 37.2343L217.338 37.5884L215.564 26.6124Z" fill="#FFCAA7"/>
<path d="M213.746 25.5064C213.258 28.8257 213.17 32.6762 214.057 33.6498L222.259 34.0924C223.146 26.1702 218.535 29.047 218.934 21.5674C218.668 21.3018 218.446 20.992 218.18 20.7707V20.5494C216.894 17.5842 215.165 16.0351 212.992 15.9023C209.711 15.7253 208.603 17.1858 207.672 18.4693C208.204 20.7707 210.731 21.2133 212.948 22.7624C213.214 22.5411 213.569 22.4525 213.968 22.4525C214.81 22.4968 215.475 23.2492 215.431 24.0901C215.387 24.931 214.633 25.5949 213.791 25.5506C213.791 25.5064 213.791 25.5064 213.746 25.5064Z" fill="#7A380C"/>
<path d="M207.406 23.5589C207.539 23.5589 207.672 23.5147 207.805 23.6032C207.893 23.6474 207.982 23.6917 207.982 23.7802C208.026 23.913 207.938 24.09 207.805 24.1785C207.672 24.2228 207.539 24.267 207.406 24.2228C207.184 24.1785 207.184 23.9572 207.228 23.7802C207.273 23.6474 207.361 23.5589 207.406 23.5589Z" fill="#49220A"/>
<path d="M208.78 23.1167C208.78 22.9397 208.647 22.7626 208.47 22.6741C208.337 22.5856 208.159 22.4971 207.982 22.4971C207.805 22.4971 207.627 22.4971 207.45 22.5413C207.273 22.5856 207.095 22.7184 207.007 22.8511C207.184 22.8069 207.317 22.8511 207.494 22.8511C207.627 22.8511 207.805 22.8511 207.938 22.8954C208.071 22.8954 208.204 22.9397 208.381 22.9839C208.47 22.9839 208.603 23.0282 208.78 23.1167Z" fill="#49220A"/>
<path d="M206.652 29.1796C206.829 29.1353 207.007 29.0911 207.184 29.0025C207.361 28.914 207.539 28.8255 207.672 28.737C207.982 28.5157 208.248 28.2502 208.47 27.8961L208.159 27.6748C207.982 27.8961 207.672 28.0289 207.406 28.1174C207.095 28.2059 206.785 28.2944 206.43 28.3387C206.741 28.4714 207.14 28.4714 207.494 28.4272C207.849 28.3829 208.204 28.2502 208.514 27.9404L208.204 27.7191C208.026 27.9846 207.805 28.2502 207.539 28.5157C207.184 28.737 206.918 28.9583 206.652 29.1796Z" fill="#49220A"/>
<path d="M206.075 23.8691C206.075 24.5773 205.499 25.1084 205.277 25.5952C204.79 26.5689 205.588 26.5246 206.297 26.7459" fill="#FFCAA7"/>
<path d="M269.615 22.8064C270.102 30.286 262.21 36.9247 251.967 37.5886C245.582 38.0312 239.774 36.0395 236.182 32.6759C235.473 32.0121 229.088 32.1891 229.797 31.6137C230.95 30.6401 233.389 28.8697 233.079 27.9846C232.768 27.0994 232.591 26.2143 232.502 25.2848C232.014 17.8052 239.907 11.1665 250.149 10.5026C260.392 9.83877 269.127 15.3268 269.615 22.8064Z" fill="#C1E3F2"/>
<path d="M216.185 84.3693C212.372 84.6348 207.627 85.9183 201.907 88.264C205.854 90.9194 209.977 92.1144 214.323 91.8046C218.668 91.4948 223.767 90.2113 229.62 87.9099C224.432 85.2987 219.954 84.1037 216.185 84.3693Z" fill="#DE6B8A"/>
<path d="M213.879 108.092C213.436 113.447 211.84 122.431 211.042 125.706C210.554 127.786 206.829 126.857 207.14 125.219C207.406 123.67 207.361 101.763 208.115 94.8142C207.938 90.5654 208.381 68.9675 208.736 65.4711L224.787 62.2402C224.299 66.8431 215.077 93.3536 214.677 95.6993C214.677 95.8321 214.633 95.9206 214.589 96.0091C214.544 98.5761 214.278 103.046 213.879 108.092Z" fill="#FFCAA7"/>
<path d="M212.549 124.6C212.416 124.335 212.061 124.246 211.795 124.379C211.086 124.733 210.509 124.954 210.11 124.998C209.578 125.043 208.913 124.91 208.071 124.6L207.494 123.538C207.406 123.405 207.228 123.361 207.095 123.449L199.957 127.034C199.38 127.167 198.626 127.3 197.74 127.477C196.853 127.654 196.675 128.362 197.207 129.601C207.228 128.893 212.549 128.495 213.126 128.451C213.214 127.521 213.259 126.813 213.214 126.37C213.126 125.972 212.948 125.397 212.549 124.6C212.549 124.644 212.549 124.6 212.549 124.6Z" fill="#EFACBB"/>
<path d="M224.299 108.003C224.787 113.359 224.698 122.432 224.521 125.751C224.388 127.875 220.575 127.521 220.53 125.839C220.53 124.246 216.717 102.692 216.318 95.7882C215.387 91.6279 212.15 70.2956 211.928 66.7992L227.27 61.2227C227.58 65.8255 222.969 93.3097 222.969 95.6997C222.969 95.8325 222.969 95.921 222.925 96.0537C223.324 98.5322 223.856 103.002 224.299 108.003Z" fill="#FFE0CB"/>
<path d="M225.452 126.459C225.275 126.194 224.92 126.105 224.654 126.282C223.944 126.68 223.412 126.902 222.969 126.946C222.437 126.99 221.772 126.902 220.885 126.592L220.264 125.574C220.176 125.441 219.998 125.397 219.865 125.486L212.904 129.292C212.327 129.424 211.618 129.602 210.731 129.779C209.844 129.956 209.711 130.664 210.288 131.903C220.264 130.929 225.541 130.398 226.117 130.354C226.161 129.424 226.161 128.716 226.117 128.274C226.117 127.831 225.895 127.256 225.452 126.459C225.452 126.503 225.452 126.459 225.452 126.459Z" fill="#EFACBB"/>
<path d="M229.709 87.9096C220.663 83.8378 210.731 92.7337 201.908 88.5292C201.73 74.6764 205.721 70.7817 206.874 61.6646C211.795 59.4959 217.116 59.1418 222.88 60.6024C227.226 65.8248 231.748 81.2266 229.709 87.9096Z" fill="#EFACBB"/>
<path d="M192.02 55.2034L182.708 52.2381C178.851 52.902 176.944 52.902 177.033 52.3266C177.166 51.4415 178.363 51.5742 178.54 50.9989C178.718 50.4235 177.388 49.3613 176.057 48.3877C174.727 47.414 175.57 47.1927 176.102 47.1484C178.008 47.4582 180.137 48.1664 182.442 49.2728L193.705 50.0252L192.02 55.2034ZM238.577 73.0394C239.02 73.836 242.212 76.1375 244.385 77.4209C245.272 77.952 244.962 78.7044 244.651 78.9257C242.212 80.696 240.395 78.9257 238.089 78.0406C235.562 77.0669 236.005 80.2535 234.01 79.5011C234.497 78.1291 235.739 75.5621 234.985 74.0131C234.63 73.305 230.551 65.5598 222.747 50.7776L228.955 50.335C234.719 64.3648 237.956 71.9772 238.577 73.0394Z" fill="#FFCAA7"/>
<path d="M212.771 42.988C211.485 57.8587 200.799 64.0548 188.073 63.1254L188.916 49.1399C202.573 50.5561 208.115 43.3421 208.514 32.4546L212.993 31.835C213.303 35.1543 213.081 39.1375 212.771 42.988Z" fill="#C60A3F"/>
<path d="M215.121 30.2864L215.564 30.2422C226.25 39.3593 233.788 52.7253 238.089 70.3842L224.344 71.3137C224.033 67.9501 223.634 64.675 223.191 61.4884L204.834 62.7276C206.12 53.3449 209.312 45.0244 208.47 32.4551L215.121 30.2864Z" fill="#CE2A58"/>
<path d="M223.191 61.488L219.466 61.7536C220.22 57.5491 220.087 51.53 219.067 43.6963C220.929 49.2285 222.215 55.1591 223.191 61.488Z" fill="#C60A3F"/>
<path d="M57.5367 114.244C54.5659 116.501 53.5018 118.846 52.9697 121.015C52.482 123.095 52.4376 125.22 54.5216 126.592C56.7386 128.052 60.9509 128.45 65.0745 128.76C73.5878 129.424 82.8991 129.822 93.0086 127.875C103.162 125.928 114.114 120.927 115.489 116.28C116.642 112.473 111.365 110.26 107.463 107.87C101.788 104.374 96.3785 102.427 83.2982 104.684C75.0953 106.144 62.6801 110.393 57.5367 114.244Z" fill="#F5D1C3"/>
<path d="M123.958 103.888C122.938 104.286 122.096 104.729 121.386 105.304C116.553 109.11 112.74 113.89 109.37 118.05C107.508 120.352 106.444 122.963 107.951 125.353C108.395 126.017 109.015 126.681 110.035 127.212C111.676 128.053 114.114 128.407 116.464 128.54C126.707 129.203 136.861 127.035 147.148 127.035C154.242 127.035 161.869 128.008 168.12 126.327C174.683 124.556 177.299 119.953 173.752 116.678C171.845 114.908 168.564 113.625 165.371 112.385C158.277 109.597 151.138 106.056 143.379 103.799C137.703 102.073 129.146 101.896 123.958 103.888Z" fill="#C4E8F8"/>
<path d="M167.633 55.3363L173.707 57.2394C173.707 57.2394 170.648 65.4714 170.116 66.7991C170.116 66.7991 156.016 61.7537 155.484 61.5324C154.951 61.3111 159.385 53.0791 159.385 53.0791L167.633 55.3363Z" fill="#C1E3F2"/>
<path d="M153.754 43.6969L161.691 51.3978C163.997 52.3715 165.903 53.4779 167.367 54.6286C167.677 55.0269 168.076 55.7793 166.48 55.4695C164.928 55.1155 163.287 54.8499 162.977 55.3367C162.667 55.8236 163.553 56.6202 163.021 57.2841C162.667 57.7267 161.425 56.3104 159.385 53.0796L151.138 48.2112L153.754 43.6969ZM115.001 36.7041L121.12 36.7484C116.464 51.8404 113.981 59.7183 113.671 60.4264C113.006 62.0197 114.38 64.4539 115.001 65.7817C113.095 66.6226 113.316 63.4802 110.878 64.5867C108.661 65.6046 107.02 67.4635 104.493 65.8702C104.182 65.6931 103.828 64.9407 104.67 64.4096C106.71 62.9934 109.68 60.5149 110.079 59.7183C110.656 58.6118 112.296 50.9552 115.001 36.7041Z" fill="#AC5419"/>
<path d="M133.668 19.3544L136.107 18.9561C139.92 32.4105 159.474 41.5719 160.716 46.5731C161.159 48.4319 159.829 49.3613 160.494 49.8924L157.346 52.1939C156.814 51.5743 155.661 52.725 153.311 51.9283C150.961 51.1317 133.668 35.2873 133.668 19.3544Z" fill="#897AB4"/>
<path d="M128.082 52.7246L138.368 87.954L143.157 114.42H147.99L143.157 52.7246H128.082Z" fill="#AC5419"/>
<path d="M123.515 52.7246C124.224 71.0474 123.958 81.0055 123.781 82.6873C123.603 84.3691 122.716 95.4779 116.509 114.996H121.519C129.722 96.2745 132.56 85.1658 133.535 82.6873C134.466 80.2089 137.26 70.2508 141.295 52.7246H123.515Z" fill="#AC5419"/>
<path d="M127.86 52.7246C130.52 64.8513 135.132 84.1921 141.694 110.791H148.788C149.32 83.484 147.103 65.5594 143.246 52.7246H127.86Z" fill="#564394"/>
<path d="M123.47 52.7246C124.18 71.0474 122.362 89.0605 116.73 111.101H124.268C132.471 92.6896 138.368 74.7209 142.403 52.7246H123.47Z" fill="#705FA4"/>
<path d="M115.799 118.625L116.065 114.155C117.706 114.642 119.746 114.465 122.184 113.58C124.8 115.439 128.126 116.722 132.116 117.386C132.427 117.431 132.604 117.74 132.56 118.05V118.094L132.161 119.466H122.184H116.376L115.799 118.625Z" fill="#BCB1D4"/>
<path d="M142.093 118.625L142.359 114.155C143.999 114.642 146.039 114.465 148.478 113.58C151.094 115.439 154.419 116.722 158.41 117.386C158.72 117.431 158.898 117.74 158.853 118.05V118.094L158.454 119.466H148.478H142.669L142.093 118.625Z" fill="#BCB1D4"/>
<path d="M132.072 11.6092C130.786 10.1045 129.899 8.24562 130.077 6.16549C130.476 0.190648 138.812 1.51839 140.452 4.52794C142.093 7.53749 141.871 15.1941 139.787 15.7252C138.945 15.9465 137.171 15.4154 135.353 14.309L136.506 22.3197H129.811L132.072 11.6092Z" fill="#AC5419"/>
<path d="M131.54 12.9371C130.698 9.17516 128.303 6.65245 128.658 4.97065C128.924 3.8642 129.545 3.15607 130.609 2.89052C131.141 0.677615 132.915 -0.251804 135.885 0.0580026C140.364 0.544841 143.113 2.40368 141.916 6.47542C140.851 6.47542 139.521 6.0771 137.703 6.74097C137.127 6.96226 136.728 7.62613 136.462 8.73258H135.664C134.865 7.40484 134.067 6.918 133.314 7.27207C132.56 7.62613 132.382 8.46703 132.782 9.79478L132.382 12.8928H131.54V12.9371Z" fill="#49220A"/>
<path d="M141.339 9.21973C141.517 9.57379 141.827 9.92786 141.96 10.2819C142.093 10.636 142.182 11.1228 142.226 11.4769C142.27 12.008 141.605 12.6719 141.029 12.6719" fill="#AC5419"/>
<path d="M141.029 8.29027C140.851 8.29027 140.674 8.29027 140.541 8.29027C140.408 8.33452 140.275 8.33452 140.098 8.37878C139.787 8.4673 139.521 8.55582 139.167 8.60007C139.344 8.24601 139.654 8.06898 140.009 7.98046C140.186 7.9362 140.364 7.9362 140.585 7.98046C140.807 8.02472 140.984 8.11323 141.029 8.29027Z" fill="#49220A"/>
<path d="M141.029 14.044C140.851 14.0882 140.674 14.0882 140.541 14.044C140.364 13.9997 140.231 13.9112 140.053 13.8669C139.787 13.7341 139.521 13.5129 139.255 13.4243L139.565 13.2473C139.565 13.2916 139.61 13.4243 139.698 13.5571C139.787 13.6899 139.876 13.7784 139.965 13.9112C140.142 14.1325 140.364 14.398 140.585 14.6193C140.408 14.5751 140.275 14.5308 140.098 14.4423C139.965 14.3538 139.832 14.2652 139.698 14.1767C139.565 14.0882 139.432 13.9554 139.344 13.8227C139.255 13.6899 139.122 13.5129 139.122 13.2473V12.9375L139.388 13.0703C139.743 13.203 139.965 13.4243 140.231 13.6456C140.497 13.7784 140.718 13.9554 141.029 14.044Z" fill="#49220A"/>
<path d="M140.497 9.70618C140.692 9.70618 140.851 9.54766 140.851 9.35211C140.851 9.15657 140.692 8.99805 140.497 8.99805C140.301 8.99805 140.142 9.15657 140.142 9.35211C140.142 9.54766 140.301 9.70618 140.497 9.70618Z" fill="#49220A"/>
<path d="M137.748 21.1248C137.482 38.9165 147.768 43.4751 145.463 50.6007C143.556 56.487 125.421 62.8159 122.273 57.0623C120.987 54.7167 120.411 51.8841 120.366 48.8303C119.568 51.176 118.947 53.2119 118.46 54.938C117.662 57.859 114.513 58.3458 114.513 59.4965L110.39 58.3458C110.656 56.7968 108.749 56.0444 109.237 52.6365C111.587 37.2347 117.839 26.0374 128.037 19.1332L128.126 17.6284C128.17 17.0088 128.702 16.5662 129.323 16.6105L136.861 17.1416C137.482 17.1858 137.925 17.7169 137.881 18.3365L137.748 21.1248Z" fill="#A396C4"/>
<path d="M72.4792 53.2559L82.5001 88.3525L89.8162 114.199H95.137L87.3775 53.2559H72.4792Z" fill="#F9AA75"/>
<path d="M69.8189 53.2559C69.5972 71.3131 68.7991 81.1827 68.5331 82.8202C68.3114 84.4578 64.6312 94.9027 57.4924 114.155H62.9906C72.0359 95.6993 77.0907 85.2544 78.1548 82.8202C79.219 80.3861 82.4558 70.5165 87.3775 53.2559H69.8189Z" fill="#FFCAA7"/>
<path d="M57.0046 119.156L57.2707 113.358H63.0792C65.8283 115.306 69.4198 116.855 73.8538 118.05V119.156H63.3896L59.798 118.625V119.156H57.0046Z" fill="#EA6005"/>
<path d="M89.0623 119.156L89.3283 113.358H95.1368C97.8859 115.306 101.477 116.855 105.911 118.05V119.156H95.4029L91.8113 118.625V119.156H89.0623Z" fill="#EA6005"/>
<path d="M77.0906 19.9302C75.8047 18.4255 74.9623 16.6109 75.0953 14.575C75.4944 8.68869 83.7416 9.97217 85.3378 12.9375C86.9341 15.9028 86.7567 23.4709 84.6727 24.002C83.8303 24.2233 82.101 23.6922 80.2831 22.63L81.3916 30.5522H74.7849L77.0906 19.9302Z" fill="#FFCAA7"/>
<path d="M85.9585 14.3091C85.9141 13.9108 85.7368 13.5125 85.6038 13.1142C85.4264 12.6273 85.2047 12.229 84.8943 11.8307C84.3622 11.0783 83.7415 10.4144 83.032 9.83906C81.7462 8.82112 80.1499 8.20151 78.5537 8.4228C77.7556 8.51131 76.9575 8.82112 76.3367 9.35222C75.7603 9.7948 75.1839 10.5029 74.3858 10.5472C73.5433 10.5914 72.7895 9.83906 72.0801 9.39647C71.3263 8.86538 70.5282 8.51131 69.6414 8.37854C68.1338 8.11299 66.7593 8.64409 65.7395 9.83906C64.631 11.1225 63.8329 13.0256 64.5866 14.7517C64.7197 15.0615 64.897 15.3271 65.1187 15.5483C65.3404 15.7696 65.6951 15.9909 65.7838 16.3007C65.8725 16.6548 65.6065 17.0974 65.4734 17.4072C65.2961 17.8498 65.1631 18.3366 65.2074 18.8234C65.2961 19.6201 65.7838 20.3725 66.3159 20.9036C66.848 21.4347 67.5131 21.7445 68.2225 21.8772C68.7102 21.9658 69.198 22.01 69.6857 22.01C69.9074 22.01 70.1291 21.9215 70.3508 21.8772C70.5725 21.833 70.7055 21.8772 70.8829 22.01C71.7697 22.5854 72.7452 22.8067 73.765 22.7182C74.6518 22.6296 75.6273 22.4526 76.3367 21.833C77.1348 21.1691 77.0905 20.2397 76.9131 19.266C77.0905 19.3545 77.6669 19.4431 77.3122 19.0447C77.1792 18.912 76.9575 18.8234 76.7801 18.7349C76.6028 18.6464 76.3811 18.5136 76.248 18.3366C75.6273 17.6285 76.248 16.2122 77.0018 15.9909C78.1103 15.6369 78.3764 17.2302 79.1745 17.6285C79.6179 17.8498 80.1056 17.54 80.4603 17.2302C80.9037 16.7876 81.2584 16.2122 81.5245 15.5926C81.7462 15.1058 81.9679 14.6189 82.1896 14.1321C82.2783 13.9108 82.6773 13.2469 82.5 12.9814C83.2981 12.8043 84.1849 13.1584 84.8943 13.601C85.1604 13.778 85.3821 13.9993 85.5594 14.3091C85.6038 14.3976 85.6481 14.5747 85.7368 14.5747C86.0472 14.5747 86.0028 14.3976 85.9585 14.3091Z" fill="#E22D05"/>
<path d="M86.0917 17.3633C85.9587 18.4255 87.4662 19.1779 87.3775 20.2843C86.8011 20.2843 86.269 20.5941 85.6926 20.5499" fill="#FFCAA7"/>
<path d="M84.1851 17.2304C84.4068 17.0534 84.7171 16.9648 85.0275 16.9648C85.1605 16.9648 85.3379 17.0091 85.4709 17.0976C85.6039 17.1861 85.6926 17.3189 85.737 17.4959C85.6039 17.2304 85.2936 17.1419 85.0275 17.1419C84.8945 17.1419 84.7615 17.1419 84.5841 17.1861C84.4954 17.1419 84.3181 17.1861 84.1851 17.2304Z" fill="#49220A"/>
<path d="M85.9143 21.8768C85.5596 21.9211 85.1605 21.9653 84.8058 21.8768C84.6284 21.8325 84.4511 21.7883 84.2737 21.6998C84.0964 21.6113 83.9633 21.4785 83.8303 21.3457C84.1407 21.567 84.4511 21.6998 84.8058 21.7883C85.1605 21.8768 85.5596 21.8325 85.9143 21.8768Z" fill="#49220A"/>
<path d="M85.2049 18.2485C85.3763 18.2485 85.5153 18.1098 85.5153 17.9387C85.5153 17.7676 85.3763 17.6289 85.2049 17.6289C85.0335 17.6289 84.8945 17.7676 84.8945 17.9387C84.8945 18.1098 85.0335 18.2485 85.2049 18.2485Z" fill="#49220A"/>
<path d="M97.886 45.2451L107.907 40.8636C109.68 39.1375 111.365 37.8098 113.006 36.8804C113.494 36.7033 114.336 36.6591 113.449 37.9868C112.563 39.2703 111.676 40.6866 112.03 41.1291C112.385 41.5717 113.405 41.0849 113.804 41.8373C114.07 42.3241 112.341 42.8995 108.616 43.6076L101.123 49.3611L97.886 45.2451ZM57.4037 46.4401L63.0792 47.5466C57.4037 58.1242 54.3442 63.745 53.9008 64.3646C52.9697 65.7809 53.8565 68.3921 54.1669 69.8084C52.1716 70.2952 52.9697 67.2414 50.398 67.9053C48.0923 68.4806 46.097 69.9411 43.9243 67.9495C43.6583 67.684 43.4809 66.9316 44.3677 66.5333C46.6291 65.5596 49.9546 63.745 50.4866 62.9926C51.2848 62.1075 53.5461 56.5752 57.4037 46.4401Z" fill="#FFCAA7"/>
<path d="M78.4651 25.329L80.8595 24.9307C86.0472 29.9761 88.1755 42.0585 91.6341 43.6518C94.9152 45.1566 99.5709 43.6961 105.069 41.7045L106.754 45.4664C101.744 50.8659 91.0576 55.4687 86.7123 52.8575C79.7953 48.6972 78.1991 33.7823 78.4651 25.329Z" fill="#EA6005"/>
<path d="M68.0452 55.2924C77.6226 55.2924 84.6726 55.2924 89.1953 55.2924C90.1708 55.2924 89.9934 53.9204 89.8604 53.2122C88.2642 45.113 81.9679 36.3499 81.9679 24.8428L75.8047 23.8691C70.7942 31.9241 69.0206 41.9264 68.0452 55.2924Z" fill="#E0E0E0"/>
<path d="M65.9169 47.0597C61.6159 54.8049 57.9801 60.3814 55.0536 63.8335L50.6196 62.9483C53.4574 45.2894 61.749 32.2333 75.4056 23.8242H75.4943H77.8443C83.2982 42.4569 84.8057 54.8491 82.367 61.0452H63.3452C63.6556 56.5309 64.5867 51.7511 65.9169 47.0597Z" fill="#FA7821"/>
</svg>
