<svg width="260" height="221" viewBox="0 0 260 221" fill="none" xmlns="http://www.w3.org/2000/svg">
<path d="M104.908 68.0974C105.053 67.9564 105.162 67.8154 105.307 67.6744C105.634 67.4629 105.816 66.9695 106.36 67.0752C106.941 69.5425 108.031 71.8336 109.265 74.0894C109.374 74.1951 109.52 74.3361 109.629 74.4419C110.137 74.8648 111.008 75.0411 111.045 75.887C111.117 77.6846 112.062 77.5436 113.296 76.9444C114.894 76.3452 116.092 77.1559 117.254 78.0018C117.436 78.6011 116.819 79.0945 116.855 79.7642C118.416 79.6937 119.869 79.9052 121.249 79.4117C121.612 79.306 121.975 79.165 122.338 79.0593C122.955 79.5175 123.536 79.9404 123.791 80.7159C123.936 80.8569 124.045 81.0331 124.19 81.1741L124.154 81.1389C124.154 81.6323 124.154 82.0905 124.154 82.584C123.863 82.584 123.573 82.6897 123.427 82.9717L123.464 82.9365C122.229 83.4652 123.282 84.3816 123.101 85.0865C122.12 85.4743 120.74 85.6857 122.265 87.0604C122.411 87.2014 122.447 87.5891 122.338 87.7301C121.285 88.999 122.592 90.4794 121.939 91.7835C121.648 92.3122 122.084 92.6294 122.302 93.0524C123.609 95.6607 124.299 98.3747 123.464 101.265C121.539 101.124 119.978 101.899 118.562 103.063C118.525 103.098 118.453 103.168 118.453 103.204C119.106 105.847 116.492 105.072 115.475 105.918C115.366 106.023 115.257 106.129 115.112 106.27C115.003 106.376 114.858 106.517 114.749 106.623H114.785C113.95 106.764 113.042 106.376 112.279 106.975C110.682 106.799 109.084 106.552 107.522 107.328C107.014 106.658 106.542 106.658 106.034 107.328C104.763 107.433 103.492 107.504 102.366 106.658C101.967 105.953 101.494 105.424 100.768 104.966C100.078 104.543 99.461 104.014 99.2794 102.745C99.0615 101.089 97.6453 99.5026 96.5196 98.0575C95.9749 97.3878 95.1397 98.3042 94.4135 98.551C93.3967 98.5862 92.6705 98.6215 92.4526 97.2116C92.3437 96.4714 91.218 95.6959 90.0559 95.6959C89.947 94.6385 90.0196 93.5811 90.3828 92.5589C90.528 91.9597 90.7459 91.3605 90.7822 90.7261C90.9274 88.435 92.9247 88.3998 94.3772 87.5186C95.7207 86.7079 97.2822 85.6152 97.3185 83.6766C98.1537 83.7824 98.4805 83.3947 98.3716 82.6192C99.2431 82.0553 98.2263 81.1741 98.6984 80.5396C99.7152 79.1298 98.771 78.3896 97.6816 77.7199C97.7906 76.9797 98.0084 76.3452 98.88 75.9928C100.332 75.3936 100.115 74.1599 99.4973 73.2082C98.0448 70.9877 97.9358 71.0581 100.478 70.2475C100.877 70.1065 101.277 70.0007 101.676 69.895C102.293 69.5425 102.911 70.0712 103.564 69.895C104.327 69.7188 105.162 69.5778 104.581 68.4851C104.654 68.3441 104.799 68.2384 104.908 68.0974Z" fill="#A4D5EA"/>
<path d="M143.399 144.584C141.874 144.125 142.855 142.469 141.947 141.729C141.475 141.27 141.003 140.847 140.531 140.389C139.55 139.931 138.606 139.966 137.626 140.389C137.48 141.2 137.081 141.235 136.536 140.742C136.427 140.636 136.282 140.53 136.173 140.389C134.285 140.601 134.757 139.226 134.721 138.274C134.612 138.169 134.466 138.028 134.357 137.922V137.957C133.922 137.71 134.031 137.287 133.994 136.9C133.704 136.723 133.667 136.477 133.631 136.195C133.522 136.089 133.377 135.948 133.268 135.842C132.76 134.855 132.905 133.622 131.816 132.846C130.944 132.212 130.218 131.472 129.019 132.106C128.366 132.459 127.93 132.106 127.785 131.542C127.349 129.498 126.441 130.414 125.497 131.154C125.279 131.331 124.989 131.436 124.771 131.577C124.226 131.577 124.226 132.177 123.827 132.353C123.718 133.093 123.609 133.833 123.1 134.468C123.028 134.714 123.028 135.102 122.628 134.996C122.483 134.961 122.447 134.644 122.338 134.468C121.793 134.009 122.084 133.199 121.612 132.705C121.575 132.635 121.503 132.564 121.466 132.494C121.466 132.494 121.539 132.423 121.575 132.423C119.651 130.238 119.869 130.414 118.525 132.318C118.053 132.987 117.69 133.727 117.29 134.432C117.145 135.349 116.528 135.596 115.693 135.349C115.112 135.173 114.531 135.102 113.95 135.173C113.804 135.49 113.695 135.419 113.586 135.137C113.586 133.34 112.788 131.718 112.461 129.991C110.609 130.132 108.721 130.943 107.086 129.145C106.469 128.476 105.017 128.969 105.089 129.991C105.271 132.177 103.637 133.164 102.584 134.609C101.821 135.666 100.078 136.336 100.623 138.028C100.986 139.156 100.913 139.684 99.5334 139.684C98.8435 139.684 99.134 140.107 99.2792 140.495C99.8239 142.046 97.7541 144.725 96.1563 144.548C94.1228 144.337 92.3798 145.571 90.4189 145.641C89.7653 145.676 89.5111 147.897 88.4943 145.993C88.3854 146.064 88.2764 146.134 88.1675 146.17C85.5893 146.98 86.6787 149.412 86.0614 151.034C85.6619 152.127 87.0055 151.915 87.6591 152.162C87.8407 152.232 87.9859 152.479 88.1312 152.655C88.2401 154.594 86.7876 156.427 87.7681 158.401C87.6591 158.542 87.5139 158.647 87.4049 158.788C87.1144 159.317 86.6061 159.775 86.6787 160.48C86.5334 160.833 86.2792 161.044 85.9161 161.185C85.9161 162.242 85.4804 163.335 86.3156 164.322C87.5139 164.921 88.2401 166.507 89.9831 166.049C91.7625 165.732 93.5055 166.366 95.2848 166.402C97.0642 166.402 97.3183 165.838 96.7737 164.428C97.1005 164.075 97.0642 163.511 98.0446 163.829C100.114 164.498 101.857 166.12 104.218 165.908C104.327 165.908 104.581 166.084 104.617 166.225C104.98 168.094 105.961 167.565 107.014 166.86C107.05 167.812 108.721 167.283 108.539 168.199C108.176 169.856 109.229 169.68 110.246 169.715C110.391 170.42 111.081 170.737 111.444 171.301C111.916 172.041 112.715 172.076 113.187 171.125C113.841 170.949 114.531 170.772 115.184 170.561C116.818 171.689 118.525 172.288 120.304 170.808C120.377 170.737 120.522 170.808 120.667 170.808C120.74 170.808 120.813 170.772 120.849 170.667C122.011 170.385 123.137 169.574 124.371 170.596C124.626 170.808 125.134 170.631 125.279 170.279C125.388 170.032 125.134 169.75 124.843 169.609C123.173 166.261 122.955 163.018 124.843 159.599C126.26 157.096 129.201 156.673 131.017 154.805C131.271 154.664 131.452 154.523 131.38 154.206C132.142 154.347 132.542 153.818 133.014 153.395C133.667 152.761 134.394 152.373 135.338 152.444C135.883 153.078 135.81 154.312 137.154 154.065C137.117 154.03 137.045 153.959 137.081 153.924C137.662 152.549 139.26 151.95 139.95 150.54C140.131 150.188 141.184 149.659 141.584 148.919C141.62 148.32 141.257 147.65 141.911 147.192L141.947 147.157C142.237 146.593 142.637 146.134 143.363 146.099C143.399 145.535 143.399 145.077 143.399 144.584ZM134.575 151.774C134.539 151.774 134.503 151.809 134.43 151.809C134.503 151.774 134.539 151.774 134.575 151.774ZM134.394 151.809C134.249 151.88 134.067 151.915 133.922 151.986C134.067 151.915 134.212 151.88 134.394 151.809Z" fill="#A4D5EA"/>
<path d="M169.145 121.743C168.927 121.426 168.383 121.426 168.346 120.968C167.911 120.333 169.036 118.994 167.366 118.888C165.696 117.337 165.804 116.914 167.874 115.998C167.983 115.963 168.02 115.822 168.129 115.751C168.601 115.046 169.508 114.341 168.129 113.601C168.274 113.213 168.056 113.037 167.765 112.896C167.729 112.438 167.293 112.403 167.003 112.262C165.151 111.169 166.277 109.371 166.204 108.032C166.131 106.587 165.659 106.516 164.57 106.552C163.916 106.587 163.154 106.375 162.609 106.622C161.52 107.08 159.777 106.939 159.704 108.525C159.595 110.358 158.832 111.134 156.835 110.817C156.835 110.605 156.872 110.358 156.872 110.147C158.578 109.794 159.196 108.49 158.324 107.257C158.324 107.151 158.288 107.08 158.288 106.975C157.67 106.975 157.307 107.398 157.017 107.821C156.073 109.125 155.129 110.147 153.458 108.702C153.204 108.49 152.841 108.525 152.623 108.702C151.279 109.759 150.553 108.702 149.972 107.856C149.355 106.975 148.302 106.516 147.83 105.565C147.503 105.67 147.176 105.811 146.885 105.882C146.813 105.917 146.704 105.917 146.631 105.917C146.704 105.917 146.813 105.882 146.885 105.882C147.212 105.811 147.539 105.67 147.83 105.565C147.103 104.966 146.377 105.882 145.651 105.529C145.397 105.107 145.142 105.177 144.888 105.529C144.235 106.093 144.162 106.869 144.162 107.644C144.271 108.49 143.472 109.019 143.399 109.83C143.145 109.865 142.855 110.464 142.818 110.182C142.455 108.103 141.039 108.948 139.877 109.089C139.26 109.019 139.078 109.477 138.824 109.9C138.279 110.817 137.408 110.958 136.464 110.746C135.992 110.64 135.592 110.535 135.084 110.64C133.486 110.922 133.123 110.429 133.668 108.807C134.866 107.962 134.503 106.939 134.031 105.917L133.994 105.882C133.341 105.529 132.687 105.177 131.888 105.212C131.271 104.296 131.198 103.133 130.363 102.322C130.109 102.075 129.818 101.582 129.564 101.97C128.62 103.415 127.458 102.251 126.405 102.322C126.26 102.11 126.115 101.97 125.969 102.322H125.933C125.461 102.322 124.989 102.322 124.517 102.322H124.48C124.372 102.216 124.263 102.11 124.154 102.005L124.117 101.97C124.008 101.864 123.899 101.758 123.754 101.652C123.645 101.547 123.536 101.441 123.391 101.3V101.265C121.466 101.124 119.905 101.899 118.489 103.062C118.453 103.097 118.38 103.168 118.38 103.203C119.034 105.847 116.419 105.071 115.402 105.917C115.293 106.023 115.184 106.129 115.039 106.27C114.93 106.375 114.785 106.516 114.676 106.622C113.841 106.763 112.933 106.375 112.17 106.975C113.006 106.975 113.841 107.01 114.676 107.01C114.676 106.869 114.676 106.763 114.676 106.622C114.676 106.763 114.676 106.869 114.676 107.01C114.676 107.08 114.712 107.186 114.676 107.257C114.821 107.68 114.967 108.138 115.366 108.385C115.729 108.843 116.274 109.019 116.855 109.089C117.545 109.794 117.617 110.781 117.944 111.627C118.67 113.39 118.126 114.729 116.818 115.927C116.601 116.104 116.129 116.35 116.383 116.562C117.545 117.76 116.818 119.311 117.291 120.545C117.654 121.496 117.182 122.342 117.291 123.259C117.363 123.788 116.383 123.153 115.911 123.224C115.802 123.224 115.62 123.329 115.62 123.365C115.729 124.845 113.804 125.197 113.768 126.784C113.768 127.77 113.223 129.039 112.425 129.956C112.715 131.683 113.55 133.304 113.55 135.102C113.659 135.349 113.768 135.454 113.913 135.137C114.494 135.102 115.075 135.172 115.656 135.313C116.455 135.56 117.073 135.313 117.254 134.397C117.654 133.692 118.017 132.952 118.489 132.282C119.796 130.379 119.578 130.167 121.539 132.388C121.503 132.423 121.43 132.458 121.43 132.458C121.466 132.529 121.503 132.599 121.575 132.67C122.048 133.163 121.757 133.974 122.302 134.432C122.411 134.608 122.447 134.961 122.592 134.961C122.992 135.031 122.992 134.679 123.064 134.432C123.573 133.833 123.682 133.058 123.791 132.317C124.19 132.141 124.19 131.542 124.735 131.542C124.989 131.401 125.243 131.295 125.461 131.119C126.369 130.379 127.277 129.498 127.749 131.507C127.858 132.071 128.33 132.458 128.983 132.071C130.182 131.436 130.908 132.176 131.779 132.811C132.869 133.586 132.687 134.855 133.232 135.807C133.341 135.913 133.486 136.054 133.595 136.159C133.631 136.441 133.668 136.723 133.958 136.864C133.994 137.252 133.922 137.675 134.321 137.922C134.43 138.027 134.539 138.133 134.684 138.274C134.757 139.261 134.285 140.6 136.137 140.389C136.246 140.495 136.391 140.6 136.5 140.706C137.081 141.2 137.48 141.2 137.589 140.354C138.57 139.931 139.514 139.931 140.494 140.354C140.966 140.812 141.439 141.235 141.911 141.693C141.983 141.235 141.584 140.636 142.31 140.354C142.601 140.248 142.964 140.318 143.036 140.636C143.363 141.94 144.053 141.517 144.816 141.059C145.651 140.53 146.522 140.918 147.358 141.023C147.394 141.552 147.503 141.905 148.193 141.869C148.883 141.799 149.464 142.046 150.008 142.469C150.953 143.174 152.732 143.138 153.131 142.292C153.676 141.164 152.877 140.459 152.006 140.072C150.662 139.508 150.372 138.732 151.025 137.499C151.243 137.499 151.461 137.499 151.679 137.499H151.715C152.696 138.027 153.168 137.851 152.95 136.688C152.768 135.807 152.986 135.172 154.003 135.031C154.439 134.961 154.62 134.714 154.62 134.326C156.218 132.74 157.997 131.542 160.394 131.542C160.648 131.789 160.975 131.894 161.084 131.507C161.302 130.802 161.302 130.132 160.466 129.744L160.43 129.709C160.466 129.039 160.103 129.216 159.704 129.357C159.595 129.11 159.486 128.898 159.341 128.652C159.341 128.581 159.377 128.475 159.377 128.405C159.668 128.229 159.704 127.947 159.704 127.665C160.067 127.665 160.394 127.665 160.757 127.665C160.939 128.475 161.229 129.075 162.21 128.37L162.246 128.334C162.718 128.123 163.19 127.876 163.662 127.665C163.88 127.876 164.098 128.088 164.279 128.299C164.461 127.77 164.751 126.784 165.223 127.066C166.567 127.911 167.075 126.678 167.983 126.396C169.145 126.043 169.436 125.162 169.908 124.175C170.707 122.906 169.654 122.483 169.145 121.743ZM116.092 134.714C116.165 134.714 116.237 134.714 116.31 134.749C116.237 134.714 116.165 134.714 116.092 134.714ZM132.869 105.776C133.014 105.811 133.159 105.811 133.341 105.847C133.196 105.811 133.014 105.776 132.869 105.776ZM133.958 107.68C133.958 107.574 133.994 107.468 133.994 107.398C133.958 107.503 133.958 107.574 133.958 107.68ZM133.994 106.939C133.994 106.834 133.994 106.693 133.994 106.587C133.994 106.693 133.994 106.798 133.994 106.939ZM133.958 105.847C133.777 105.847 133.595 105.847 133.413 105.847C133.595 105.847 133.777 105.847 133.958 105.847ZM142.964 110.605C142.891 110.676 142.855 110.711 142.782 110.711C142.855 110.711 142.927 110.64 142.964 110.605ZM143.073 110.464C143.036 110.499 143 110.535 142.964 110.57C143.036 110.535 143.073 110.499 143.073 110.464ZM142.927 140.107C143.073 140.142 143.218 140.213 143.327 140.318C143.218 140.213 143.073 140.142 142.927 140.107ZM160.575 130.379C160.648 130.731 160.757 131.048 160.575 131.401C160.757 131.048 160.648 130.731 160.575 130.379C160.539 130.308 160.539 130.238 160.539 130.167C160.539 130.238 160.539 130.308 160.575 130.379ZM156.726 117.725C156.617 117.69 156.545 117.655 156.436 117.584C156.545 117.655 156.617 117.69 156.726 117.725ZM162.573 127.735C162.609 127.7 162.645 127.629 162.682 127.594C162.645 127.629 162.609 127.7 162.573 127.735Z" fill="#C1E3F2"/>
<path d="M168.237 91.3254L168.274 91.3607C168.274 91.3959 168.237 91.3959 168.237 91.4312C168.237 91.3959 168.274 91.3959 168.274 91.3607C167.547 91.1492 167.584 91.6427 167.511 92.1009C167.366 91.8894 166.603 92.2771 167.003 91.4664C167.547 90.3033 168.709 89.8098 169.508 88.9639C168.782 88.3647 167.874 87.9065 168.383 86.7081C168.564 86.2498 168.056 85.8269 167.584 85.6859C166.749 85.4039 166.204 84.7342 165.514 84.3465C164.642 83.853 163.989 82.4784 162.609 83.5358C162.355 83.7473 162.101 83.2538 161.883 83.2186C160.031 82.9014 158.251 81.0333 156.254 82.6899C155.237 83.5358 153.93 84.3113 153.64 85.6506C153.131 88.118 150.117 86.3556 149.282 88.2237C149.209 88.3647 148.556 88.4704 148.52 88.3999C147.757 87.3425 146.413 87.413 145.397 86.8843C144.779 86.5671 144.561 85.7916 144.707 85.6154C145.978 83.3948 143.363 83.2186 142.746 82.0202C142.528 81.5972 141.584 81.3505 141.075 81.703C139.151 83.1481 136.827 82.5489 134.721 83.0071C133.631 83.2186 132.905 82.6546 132.469 81.7382C131.925 80.6455 131.816 79.2357 130.073 79.1652C129.746 79.1652 129.528 78.8127 129.601 78.4955C129.855 77.4028 129.02 76.7684 128.475 76.0282C128.003 75.9224 127.531 75.8167 127.059 75.7109C126.623 76.0987 126.042 75.9929 125.533 75.9929C124.371 75.9929 123.391 76.0634 123.355 77.6143C123.355 78.143 122.665 78.6717 122.302 79.1652C122.919 79.6234 123.5 80.0463 123.754 80.8218C123.863 80.9628 124.008 81.1038 124.117 81.2447C124.117 81.703 124.117 82.1964 124.117 82.6546C123.827 82.6546 123.573 82.7604 123.391 83.0071C122.193 83.5358 123.246 84.4522 123.028 85.1219C122.047 85.5097 120.668 85.7211 122.193 87.0958C122.338 87.2368 122.374 87.6245 122.265 87.7655C121.212 89.0344 122.52 90.5148 121.866 91.8189C121.575 92.3476 122.011 92.6648 122.229 93.0878C123.536 95.6961 124.226 98.4101 123.391 101.3V101.336C123.5 101.441 123.609 101.547 123.754 101.688C123.863 101.794 123.972 101.9 124.117 102.005L124.154 102.041C124.263 102.146 124.371 102.252 124.48 102.358H124.517C124.989 102.358 125.461 102.358 125.933 102.358H125.969C126.114 102.005 126.26 102.146 126.405 102.358C127.458 102.287 128.62 103.45 129.564 102.005C129.818 101.618 130.109 102.111 130.363 102.358C131.162 103.169 131.271 104.332 131.888 105.248C132.687 105.178 133.341 105.53 133.994 105.918C134.466 106.94 134.83 107.962 133.631 108.808C133.123 110.429 133.45 110.923 135.047 110.641C135.556 110.57 135.955 110.641 136.427 110.747C137.371 110.958 138.243 110.817 138.788 109.901C139.042 109.513 139.223 109.02 139.841 109.09C141.003 108.949 142.419 108.068 142.782 110.183C142.818 110.465 143.109 109.865 143.363 109.83C143.399 109.055 144.235 108.491 144.126 107.645C144.126 106.869 144.198 106.094 144.852 105.53C145.106 105.178 145.36 105.107 145.614 105.53C146.341 105.847 147.067 104.966 147.793 105.565C148.302 106.517 149.355 106.975 149.936 107.856C150.517 108.702 151.243 109.76 152.587 108.702C152.841 108.526 153.168 108.491 153.422 108.702C155.092 110.147 156.036 109.125 156.98 107.821C157.307 107.398 157.634 106.975 158.251 106.975C158.506 105.107 158.469 103.204 160.975 102.569C161.919 102.323 162.427 101.477 162.318 100.349C162.246 99.679 162.101 98.9388 162.79 98.4101C162.863 98.3396 162.936 98.2691 163.008 98.1634C163.408 98.0929 163.88 98.3396 164.134 97.8109C164.388 97.8109 164.497 97.6699 164.497 97.4585C165.369 96.824 166.022 95.9428 166.531 95.0264C166.64 94.9912 166.712 94.9207 166.785 94.8502L166.821 94.8149C167.439 94.0395 168.02 93.2288 168.709 92.4886C169.29 91.7132 168.782 91.5369 168.237 91.3254ZM123.427 82.9366C123.391 83.0071 123.391 83.0776 123.391 83.1128C123.391 83.0776 123.427 83.0071 123.427 82.9366ZM123.391 83.2186C123.355 83.4301 123.391 83.6768 123.427 83.8883C123.391 83.6416 123.355 83.4301 123.391 83.2186ZM123.645 82.9366C123.863 82.9014 124.045 82.7956 124.154 82.5841C124.045 82.7956 123.863 82.9014 123.645 82.9366ZM124.517 81.8792C124.517 81.6325 124.408 81.3857 124.154 81.1742C124.408 81.3857 124.517 81.6325 124.517 81.8792Z" fill="#DDF2F9"/>
<path d="M137.226 50.5089C137.154 50.0507 135.992 50.2269 136.791 49.1343C137.372 48.3236 136.972 46.5612 136.246 45.68C135.447 44.6931 134.14 44.0587 132.578 44.4464C131.707 44.6579 130.726 44.6579 130.654 43.1775C130.617 42.4725 130 41.4151 128.947 41.7324C126.55 42.4725 126.296 40.9569 126.006 39.3708C125.933 39.0183 125.751 38.7363 125.606 38.3839C125.098 37.115 124.444 36.7273 123.173 37.7142C122.701 38.0666 122.193 39.1593 121.43 38.5249C120.305 37.5732 118.489 37.0797 118.743 34.9649C118.925 33.5198 117.654 32.6386 116.201 32.9206C114.204 33.3083 112.207 33.696 110.246 34.2247C107.522 34.9649 106.179 36.5863 106.506 39.2298C106.978 42.684 106.578 45.9268 104.872 49.0285C106.143 49.5925 107.159 50.5794 108.067 51.5311C108.83 52.3418 109.374 53.2934 108.757 54.8091C108.14 56.3952 108.757 58.2985 108.939 60.0257C109.374 60.4839 109.701 61.1888 109.483 61.6118C108.285 63.6561 110.246 62.8454 110.754 62.8102C113.841 62.6692 116.637 63.5504 119.506 64.4668C120.74 64.8545 122.229 64.5373 123.573 64.3963C124.481 64.2906 125.025 64.3611 125.352 65.348C125.715 66.6169 126.805 67.3923 127.821 68.203C128.184 67.921 128.548 67.6743 128.874 67.3923C129.31 66.7931 130.4 66.1587 130.036 65.5595C129.056 63.9028 131.235 62.6692 130.4 61.1183C130.254 60.8716 130.726 60.3781 131.089 60.4839C132.106 60.7306 132.724 59.8142 133.595 59.7437C134.467 59.8142 134.612 59.356 134.684 58.6158C134.793 57.6993 134.321 56.6772 135.011 55.8312C136.427 54.7033 137.008 53.2229 136.827 51.4958C136.827 51.0376 137.117 50.8261 137.226 50.5089Z" fill="#C1E3F2"/>
<path d="M98.6982 80.5045C99.715 79.0947 98.7708 78.3545 97.6815 77.6848C97.7178 77.8962 97.972 78.143 97.6815 78.2487C97.4636 78.3192 97.1731 78.1077 96.8826 78.0372C95.0306 78.002 93.796 77.1913 93.2876 75.4289C92.8519 74.0191 91.9803 73.9133 90.8183 74.6535C90.4189 74.9002 90.0921 75.2527 89.6926 75.5347C88.2038 76.6626 88.2401 74.7592 87.4412 74.4773C86.9329 74.1248 86.8602 73.5961 86.715 73.0674C86.4608 73.1731 86.2429 73.2789 85.9887 73.4199C85.0446 74.2305 83.701 73.3846 82.7569 74.1248C81.6675 74.8297 80.5781 75.288 79.4524 74.1248C79.0893 74.0896 78.6898 74.1953 78.4357 73.7723C77.8183 74.1953 77.1647 73.8781 76.5474 73.7371C76.7653 74.8297 76.9831 75.9224 76.6563 77.0503C76.5837 77.3323 76.4384 77.6848 76.5474 77.8962C77.8546 80.3636 76.3295 82.1612 75.0949 84.0998C74.6228 84.8399 74.1507 85.2629 73.4245 84.8752C72.6256 84.4875 71.7541 84.7342 71.391 85.0867C70.0837 86.3556 68.4496 86.3908 66.8519 86.708C65.8714 86.8843 65.1815 87.272 65.1815 88.3999C65.2178 89.3163 64.4552 89.5278 63.6926 89.5983C62.7122 89.7041 61.8407 90.0213 61.1507 90.7615C60.3882 91.2549 59.9887 91.6427 60.7876 92.6296C61.5502 93.546 62.3854 93.7222 63.2932 93.6517C64.5641 93.546 64.6005 94.3919 64.1647 94.8502C63.4748 95.5903 63.9468 95.5551 64.4915 95.7666C66.5977 96.5773 66.6703 96.7535 65.2904 98.5511C65.1451 99.1856 65.0362 99.82 64.891 100.454C66.053 101.618 67.5781 102.675 67.9776 104.261C68.4133 105.883 69.6116 106.27 70.8463 106.834C71.2094 107.01 71.7178 106.869 71.972 107.257C72.9887 108.702 74.4776 108.879 76.0753 108.597C76.5111 108.209 77.2373 107.61 77.6368 107.997C78.4356 108.879 79.3435 108.244 80.1787 108.385C81.5949 108.632 82.1396 107.892 81.7764 106.587C81.6675 106.164 81.6675 105.671 81.7038 105.213C81.8854 103.204 80.9776 101.547 79.8519 99.9962C79.3798 99.3618 79.2345 98.6569 79.3798 98.0576C79.525 97.388 80.215 97.3527 80.8686 97.5994C81.1591 97.7052 81.6675 97.6699 81.9217 97.4584C83.6647 96.0486 85.7345 96.2953 87.7681 96.26C88.9664 95.2026 89.62 93.7575 90.3463 92.4181C90.4915 91.8189 90.7094 91.2197 90.7457 90.5852C90.891 88.2942 92.8882 88.2589 94.3407 87.3777C95.6843 86.5671 97.2457 85.4744 97.282 83.5358C98.1172 83.6415 98.444 83.2538 98.3351 82.5136C99.2066 81.9849 98.2262 81.139 98.6982 80.5045ZM97.863 80.9275C97.863 80.9628 97.863 81.0332 97.863 81.0685C97.863 81.0332 97.863 80.9628 97.863 80.9275ZM97.863 81.1037C97.863 81.139 97.863 81.2095 97.8993 81.2447C97.8993 81.2095 97.8993 81.139 97.863 81.1037ZM97.8993 81.2447C98.0083 81.7029 98.2262 82.1259 98.3351 82.5489C98.2262 82.1259 98.0083 81.7029 97.8993 81.2447ZM98.0446 82.7604C98.0446 82.7604 98.0083 82.7604 98.0446 82.7604C98.0083 82.7604 98.0446 82.7604 98.0446 82.7604ZM97.863 80.7513C97.863 80.7865 97.863 80.857 97.863 80.8923C97.863 80.857 97.863 80.8218 97.863 80.7513ZM97.7541 83.0071C97.7178 83.0423 97.7178 83.0776 97.6815 83.1128C97.6815 83.0776 97.7178 83.0423 97.7541 83.0071ZM96.9915 78.425C97.0641 78.6364 97.1731 78.7774 97.391 78.8832C97.1731 78.7774 97.0641 78.6012 96.9915 78.425ZM97.4999 83.2891C97.4636 83.3243 97.4273 83.3948 97.391 83.4653C97.4273 83.3948 97.4636 83.3243 97.4999 83.2891ZM98.2625 79.8348C98.1535 79.9406 98.0809 80.0816 98.0083 80.1873C98.0809 80.0816 98.1535 79.9758 98.2625 79.8348C98.4077 79.6586 98.4077 79.4824 98.3351 79.3414C98.4077 79.4824 98.4077 79.6586 98.2625 79.8348ZM97.863 80.716C97.863 80.6808 97.863 80.6103 97.8993 80.575C97.8993 80.6455 97.863 80.6808 97.863 80.716ZM97.8993 80.5398C97.8993 80.4693 97.9357 80.434 97.9357 80.3636C97.9357 80.434 97.8993 80.5045 97.8993 80.5398ZM97.9357 80.3636C97.972 80.2931 97.972 80.2578 98.0083 80.1873C98.0083 80.2578 97.972 80.3283 97.9357 80.3636Z" fill="#C1E3F2"/>
<path d="M108.721 54.7737C109.302 53.2933 108.757 52.3064 108.031 51.4957C107.123 50.544 106.143 49.5571 104.835 48.9932C102.947 49.9448 101.24 51.3195 98.9889 51.4957C96.3018 51.7072 94.123 53.0818 91.799 54.1745C90.3465 54.8794 90.2012 56.3246 89.8381 57.523C89.5839 58.3337 90.8912 58.4394 91.69 58.7566C91.0727 59.1444 90.5643 59.3558 90.1649 59.7083C88.4945 61.083 86.8241 61.2592 84.6453 60.66C82.2124 59.9903 79.5615 59.8846 76.9833 59.6731C75.8213 59.5673 74.0783 57.6992 74.5867 56.6771C74.9135 56.0426 75.2766 55.5139 74.6593 54.9852C74.0783 54.4917 73.0979 54.4565 72.5895 54.809C71.137 55.8664 69.8297 55.1614 68.4861 54.7032C68.1956 54.5975 67.9414 54.4565 67.6509 54.4212C67.3604 54.386 67.0336 54.386 66.8884 54.7385C66.7794 55.0204 66.9247 55.2319 67.1426 55.3377C68.123 55.6901 67.8325 56.3598 67.7962 57.0648C67.7599 58.0869 67.9414 59.3206 68.6677 59.955C71.1007 62.0699 70.9191 64.8544 71.0643 67.5332C71.137 68.7668 70.9917 69.93 72.0085 70.9169C72.9526 71.8334 71.9358 71.5514 71.5001 71.6571C71.8269 74.2302 72.6621 74.7941 74.5504 73.5605C75.2403 73.1023 75.8939 73.7367 76.5839 73.772C77.2012 73.8777 77.8548 74.1949 78.4722 73.8072C78.69 74.1949 79.1258 74.0892 79.4889 74.1597C80.5783 75.3228 81.6677 74.8646 82.7571 74.1597C83.7375 73.4195 85.0448 74.2654 86.0252 73.4547C86.2794 73.349 86.4973 73.2432 86.7515 73.1023C86.8967 73.631 86.9694 74.1597 87.4777 74.5121C88.2403 74.8294 88.2403 76.6975 89.7291 75.5696C90.0923 75.2523 90.4554 74.9351 90.8548 74.6884C92.0169 73.9482 92.9247 74.0539 93.3241 75.4638C93.8688 77.2262 95.0671 78.0369 96.9191 78.0721C97.1733 78.1426 97.4638 78.3541 97.718 78.2836C98.0085 78.2131 97.7543 77.9311 97.718 77.7196C97.8269 76.9794 98.0448 76.345 98.9163 75.9925C100.369 75.3933 100.151 74.1597 99.5336 73.208C98.0811 70.9874 97.9722 71.0579 100.514 70.2472C100.913 70.1062 101.313 70.0005 101.712 69.8948C102.33 69.5423 102.947 70.071 103.601 69.8948C104.363 69.7185 105.198 69.5775 104.617 68.4849C104.763 68.3791 104.872 68.2381 105.017 68.1324C105.162 67.9914 105.271 67.8504 105.416 67.7094C105.525 67.1455 105.634 66.5463 105.707 65.9823C105.707 65.8061 105.707 65.5946 105.707 65.4184C105.307 64.1142 106.433 64.8544 106.832 64.6077C106.905 64.6077 107.014 64.6077 107.087 64.6077C107.232 64.4667 107.377 64.3257 107.522 64.1847C107.341 62.5633 109.048 61.5764 108.975 59.9903C108.721 58.2279 108.103 56.3598 108.721 54.7737ZM101.749 69.4365C101.894 69.1898 102.184 69.1193 102.475 69.1898C102.184 69.1193 101.894 69.1546 101.749 69.4365Z" fill="#DDF2F9"/>
<path d="M176.081 143.878C175.827 143.315 176.553 142.01 175.209 142.363C174.011 142.645 172.849 143.033 171.578 143.068C170.997 142.751 170.452 142.398 169.871 142.151C168.128 141.376 166.966 140.213 167.257 138.168C167.257 137.604 166.64 137.146 166.966 136.512C167.184 136.512 167.329 136.371 167.329 136.159C167.91 135.842 167.947 135.278 167.947 134.749L168.019 134.644C168.346 134.538 169.181 134.82 168.964 134.291C168.6 133.41 169.218 132.212 168.019 131.648C167.112 131.648 165.841 131.93 165.695 130.767C165.55 129.674 165.005 129.039 164.279 128.405C164.061 128.193 163.843 127.982 163.662 127.771C163.19 127.982 162.718 128.229 162.246 128.44L162.209 128.475C161.229 129.145 160.938 128.581 160.757 127.771C160.394 127.771 160.067 127.771 159.704 127.771C159.704 128.052 159.667 128.334 159.377 128.511C159.377 128.581 159.377 128.687 159.341 128.757C159.45 129.004 159.559 129.216 159.704 129.462C160.067 129.321 160.466 129.145 160.43 129.815L160.466 129.85C161.302 130.238 161.265 130.943 161.084 131.612C160.975 132 160.648 131.894 160.394 131.648C157.997 131.648 156.218 132.846 154.62 134.432C154.584 134.82 154.438 135.102 154.003 135.137C152.986 135.278 152.768 135.913 152.95 136.794C153.204 137.957 152.695 138.133 151.715 137.604H151.679C151.461 137.604 151.243 137.604 151.025 137.604C150.371 138.803 150.662 139.578 152.005 140.178C152.877 140.53 153.676 141.27 153.131 142.398C152.732 143.244 150.952 143.279 150.008 142.574C149.464 142.151 148.883 141.94 148.193 141.975C147.503 142.046 147.394 141.658 147.357 141.129C146.522 140.988 145.651 140.636 144.816 141.164C144.089 141.623 143.363 142.046 143.036 140.741C142.964 140.424 142.6 140.354 142.31 140.46C141.584 140.706 141.983 141.341 141.91 141.799C142.818 142.539 141.838 144.196 143.363 144.654C143.363 145.112 143.363 145.606 143.399 146.064C142.673 146.099 142.274 146.557 141.983 147.121L141.947 147.156C141.293 147.65 141.656 148.32 141.62 148.884C141.221 149.624 140.167 150.152 139.986 150.505C139.296 151.915 137.735 152.514 137.117 153.889C137.117 153.924 137.153 153.994 137.19 154.03C137.989 154.065 138.751 154.1 139.55 154.135C140.059 154.171 140.458 154.241 140.748 154.735C141.693 156.356 142.782 156.426 143.908 154.946C144.416 154.276 145.106 154.629 145.251 154.981C145.905 156.462 147.14 156.004 148.156 155.827C149.137 155.651 149.572 155.827 149.536 156.779C149.464 157.836 150.045 157.942 150.952 158.083C152.332 158.295 153.857 158.365 154.438 160.022C154.547 160.339 155.128 160.621 155.31 160.304C156 159.141 157.162 160.057 157.852 159.704C158.978 159.176 160.176 159.599 161.41 159.105C163.226 158.365 164.497 157.942 164.86 155.757C165.151 154.171 167.366 153.959 168.419 152.655C169.508 151.28 170.997 150.117 172.776 149.483C174.592 149.448 174.156 148.108 174.229 147.086C174.846 146.275 175.936 145.817 176.045 144.619C176.371 144.372 176.807 144.125 176.081 143.878ZM151.17 150.575C151.061 150.575 150.952 150.575 150.843 150.54C150.952 150.575 151.061 150.575 151.17 150.575C151.461 150.54 151.824 150.611 151.969 150.293C151.824 150.611 151.461 150.575 151.17 150.575Z" fill="#88C6E3"/>
<path d="M76.6201 77.9313C76.5112 77.7198 76.6201 77.3673 76.729 77.0853C77.0559 75.9574 76.8017 74.8648 76.6201 73.7721C75.9302 73.7368 75.2765 73.1024 74.5866 73.5606C72.6983 74.759 71.8631 74.1951 71.5363 71.6573C70.7738 71.763 70.0112 71.904 69.2486 71.9745C68.8492 72.0097 68.1955 72.045 68.1229 71.622C67.8687 69.7892 67.0698 70.7761 66.2346 71.1638C65.4358 71.5515 64.419 72.4679 63.6564 71.6925C62.6397 70.6351 61.7682 71.2343 60.9693 71.622C60.0615 72.0097 59.5894 73.4196 58.5726 73.2786C57.4832 73.1376 57.2654 71.7277 56.5391 70.9876C56.2486 70.6703 56.0307 70.3179 55.7765 70.0359C54.8687 68.9785 53.9972 67.6391 52.1816 68.2383C51.2738 68.5203 50.4386 68.8727 49.4218 68.5908C49.0224 68.485 48.2961 68.8375 48.405 69.3309C48.7682 71.1638 47.7514 70.7761 46.6983 70.4236C46.2263 70.2826 45.7542 70.2121 45.3911 70.6703C45.0643 71.0933 44.5922 71.1285 44.3017 70.7761C43.7933 70.1064 43.2486 70.5646 42.7039 70.5998C41.905 70.6351 41.3967 71.4458 40.7067 71.3048C38.6732 70.8818 37.1844 72.1155 35.6229 72.8909C34.3157 73.5606 34.7151 75.0057 34.9693 76.0984C35.2235 77.2263 36.1676 76.2041 36.8212 76.2394C37.4749 76.2746 38.1648 75.8869 38.8548 75.6754C38.3101 77.5435 40.162 75.8869 40.3799 76.8033C39.6173 77.5788 38.6732 77.0148 37.838 76.9443C37.5838 76.9443 37.3296 76.5566 37.0754 76.9443C36.8939 77.2263 36.7123 77.5083 37.0754 77.8608C37.3296 78.1427 37.4386 78.5657 37.6927 79.0944C37.838 78.8477 37.9469 78.7067 38.0196 78.5657C38.6006 77.6493 39.1816 78.4247 39.7263 78.601C40.162 78.7419 40.4162 79.1297 40.3073 79.5879C40.162 80.3986 39.4358 80.0108 38.9637 80.1166C38.3101 80.2576 37.6564 80.3633 37.0028 80.5043C36.4944 80.61 35.7319 80.4338 35.7319 81.1388C35.7319 81.738 36.4944 81.597 36.9302 81.6675C38.4553 81.8789 39.2542 82.7601 39.581 84.0995C39.8715 85.2274 40.743 85.4389 41.7598 84.6987C42.7765 83.9938 43.9386 83.2888 44.9916 84.6987C45.3548 85.1569 45.8631 84.9807 46.2989 85.1217C49.2402 86.0734 52.9441 86.0734 53.6704 90.6555C53.743 88.4702 54.3967 88.153 55.9218 89.0694C56.6117 89.4923 57.0838 90.0563 58.1369 89.7743C59.2626 89.4571 60.6788 89.1399 61.2598 90.7965C61.9497 90.0915 62.8212 89.7391 63.8017 89.6333C64.5643 89.5628 65.3268 89.3514 65.2905 88.4349C65.2542 87.2718 65.9805 86.9193 66.9609 86.7431C68.5587 86.4611 70.1927 86.3906 71.5 85.1217C71.8631 84.7692 72.7346 84.4872 73.5335 84.9102C74.2961 85.2979 74.7318 84.875 75.2039 84.1348C76.4022 82.1962 77.9274 80.3986 76.6201 77.9313ZM55.8855 88.4702C55.9581 88.5054 55.9944 88.5407 56.067 88.5407C56.0307 88.5407 55.9581 88.5054 55.8855 88.4702ZM56.1397 88.5054C56.2123 88.4702 56.2849 88.4349 56.3575 88.3997C56.2486 88.3644 56.176 88.2939 56.067 88.2587C56.176 88.2939 56.2486 88.3644 56.3575 88.3997C56.2849 88.4349 56.2123 88.5054 56.1397 88.5054Z" fill="#A4D5EA"/>
<path d="M128.148 70.9522C128.366 69.7538 128.62 68.5554 128.838 67.3217C128.475 67.6037 128.112 67.8505 127.785 68.1324C126.768 67.3217 125.679 66.5463 125.316 65.2774C125.025 64.2905 124.48 64.22 123.536 64.3257C122.193 64.502 120.668 64.7839 119.469 64.3962C116.6 63.515 113.804 62.6339 110.718 62.7396C110.209 62.7749 108.249 63.5855 109.447 61.5412C109.665 61.1535 109.338 60.4133 108.902 59.9551C108.975 61.5412 107.268 62.5281 107.45 64.1495C107.304 64.2905 107.159 64.4315 107.014 64.5725C106.941 64.5725 106.832 64.5725 106.76 64.5725C106.36 64.7839 105.235 64.079 105.634 65.3831C105.634 65.5594 105.634 65.7709 105.634 65.9471C105.525 66.5111 105.416 67.1103 105.344 67.6742C105.67 67.4627 105.852 66.9693 106.397 67.075C106.978 69.5423 108.067 71.8686 109.302 74.0892C109.411 74.1949 109.556 74.3359 109.665 74.4417C110.173 74.8646 111.045 75.0409 111.081 75.8868C111.154 77.6844 112.098 77.5434 113.332 76.9442C114.93 76.345 116.128 77.1557 117.29 78.0016C117.472 78.6009 116.855 79.0943 116.891 79.764C118.452 79.6935 119.905 79.905 121.285 79.4115C121.648 79.3058 122.011 79.1648 122.374 79.0591C122.737 78.5304 123.391 78.0369 123.427 77.5082C123.464 75.9573 124.444 75.9221 125.606 75.8868C126.114 75.8868 126.695 75.9926 127.131 75.6048C127.603 75.7106 128.075 75.8163 128.547 75.9221C127.93 75.3934 127.603 74.7941 128.075 73.9835C128.366 73.49 128.62 72.9613 128.584 72.3621C129.274 71.6572 127.857 71.5162 128.148 70.9522Z" fill="#88C6E3"/>
<path d="M117.363 120.475C116.891 119.206 117.654 117.655 116.455 116.492C116.201 116.245 116.673 116.033 116.891 115.857C118.198 114.659 118.743 113.319 118.017 111.557C117.654 110.711 117.617 109.759 116.927 109.019C116.346 108.949 115.838 108.772 115.438 108.314C115.003 108.032 114.894 107.609 114.748 107.186C114.748 107.116 114.748 107.01 114.748 106.94C113.913 106.94 113.078 106.904 112.243 106.904C110.645 106.728 109.047 106.481 107.486 107.257C106.978 106.587 106.505 106.587 105.997 107.257C104.726 107.363 103.455 107.433 102.366 106.587C101.966 105.882 101.494 105.354 100.768 104.895C100.078 104.472 99.4608 103.944 99.2792 102.675C99.0613 101.018 97.6451 99.432 96.5194 97.9868C95.9747 97.3172 95.1395 98.2336 94.4133 98.4803C93.7233 98.7975 93.1423 99.0443 92.7429 98.7623C93.1786 99.0443 93.7596 98.7975 94.4133 98.4803C93.3965 98.5156 92.6703 98.5508 92.4524 97.1409C92.3434 96.4007 91.2541 95.6253 90.0921 95.6253C89.9831 94.5679 90.0557 93.5105 90.4189 92.4883C89.6563 93.8277 89.039 95.2728 87.8407 96.3302C85.8071 96.3655 83.7373 96.1188 81.9943 97.5286C81.7764 97.7049 81.268 97.7401 80.9412 97.6696C80.2876 97.4581 79.5976 97.4581 79.4524 98.1278C79.3071 98.7623 79.4524 99.432 79.9245 100.066C81.0502 101.617 81.9943 103.274 81.7764 105.283C81.7401 105.741 81.7401 106.235 81.849 106.658C82.2122 107.962 81.6675 108.702 80.2513 108.455C79.4161 108.314 78.5446 108.913 77.7094 108.068C77.3462 107.68 76.62 108.244 76.1479 108.667C76.1479 109.019 76.1479 109.372 76.1842 109.724C75.7848 109.795 75.4943 110.006 75.458 110.429C74.2233 111.028 73.3881 109.936 72.3714 109.689C72.0809 109.618 71.7904 109.477 71.5725 109.759C71.4272 109.971 71.5362 110.288 71.7541 110.323C73.025 110.464 74.0418 111.698 75.458 111.134C76.7289 111.945 76.7289 113.143 76.5837 114.412C76.5474 114.835 76.5837 115.258 76.039 115.364C75.6032 115.434 75.3127 115.082 75.2764 114.765C75.0585 113.672 74.187 113.355 73.2792 112.967C73.2066 113.848 73.3155 114.553 74.0418 115.046C74.6954 115.469 75.2038 116.351 74.9859 116.809C74.3323 118.36 75.6032 118.677 76.3658 119.311C77.3825 120.193 78.4356 121.039 79.4524 121.884C80.215 122.554 80.5055 123.365 80.3602 124.422C79.5613 122.66 77.3826 122.307 76.6563 120.51C75.9664 121.673 74.6591 132.353 74.9859 134.609C75.2401 134.115 75.2764 133.869 75.458 133.728C76.2568 132.987 76.4384 133.904 76.7652 134.256C77.0557 134.573 76.9105 135.067 76.4747 134.996C74.5502 134.75 74.877 136.265 74.768 137.146C74.296 142.116 73.2429 146.98 72.1535 151.845C71.7904 153.431 70.8462 154.735 68.958 154.982C68.7038 156.109 69.0669 156.673 70.3379 156.321C70.5194 158.33 71.8993 156.356 72.5166 156.885C72.6982 156.92 72.8798 156.92 73.0613 156.955C73.0613 157.202 73.0613 157.414 73.0976 157.66C73.3155 158.647 71.7541 159.317 72.5166 160.339C73.3518 161.432 74.4775 160.163 75.4217 160.551C76.0027 161.15 76.8379 161.291 77.6004 161.502C77.6367 161.573 77.7094 161.608 77.782 161.608C78.944 162.419 80.6144 162.172 81.5948 163.37C81.7401 163.688 81.9217 163.97 82.3211 164.075L82.2848 164.111C83.0474 164.816 84.1367 164.816 85.2624 164.075V164.111C85.6256 164.181 85.9887 164.287 86.3155 164.357C85.5166 163.406 85.9161 162.278 85.9161 161.22C85.9161 160.974 85.9887 160.833 86.134 160.692C86.025 160.797 85.9161 160.974 85.9161 161.22C86.2429 161.079 86.5334 160.868 86.6786 160.515C86.606 159.81 87.1144 159.387 87.4049 158.824C87.5138 158.683 87.6591 158.577 87.768 158.436C86.7876 156.462 88.2401 154.629 88.1312 152.691C87.9859 152.514 87.8407 152.268 87.6591 152.197C87.0055 151.915 85.6619 152.127 86.0613 151.069C86.6786 149.413 85.5893 147.016 88.1675 146.205C88.2764 146.17 88.3854 146.099 88.4943 146.029C89.511 147.897 89.7289 145.712 90.4189 145.676C92.3798 145.571 94.1228 144.372 96.1563 144.584C97.7541 144.76 99.8239 142.081 99.2792 140.53C99.1339 140.143 98.8434 139.72 99.5334 139.72C100.913 139.72 100.986 139.156 100.623 138.063C100.078 136.371 101.821 135.701 102.584 134.644C103.637 133.199 105.271 132.212 105.089 130.027C105.017 129.004 106.469 128.511 107.086 129.181C108.757 131.013 110.609 130.203 112.461 130.062C113.26 129.145 113.804 127.841 113.804 126.89C113.841 125.268 115.765 124.951 115.656 123.471C115.656 123.435 115.838 123.33 115.947 123.33C116.455 123.259 117.399 123.894 117.327 123.365C117.254 122.307 117.726 121.461 117.363 120.475ZM80.5781 125.797C80.5781 125.691 80.5781 125.585 80.5781 125.48C80.6144 125.585 80.6144 125.691 80.5781 125.797ZM81.5948 128.793C81.6312 128.758 81.7038 128.687 81.7401 128.652C81.7038 128.687 81.6675 128.758 81.5948 128.793ZM106.723 123.294C107.05 123.259 107.05 123.541 107.086 123.753C107.086 123.929 107.05 124.105 106.978 124.246C107.05 124.105 107.086 123.929 107.086 123.753C107.05 123.541 107.05 123.259 106.723 123.294Z" fill="#DDF2F9"/>
<path d="M174.665 88.6103C175.391 88.2226 175.1 87.8701 174.665 87.4824C174.665 87.8701 174.665 88.2226 174.665 88.6103Z" fill="#A4D5EA"/>
<path d="M182.109 66.3697C182.036 65.9115 181.419 66.0525 181.056 65.9467C180.62 65.8057 180.184 65.7 179.748 65.5943C179.458 65.2065 179.167 64.7131 178.623 65.277C177.606 65.136 176.553 65.5942 175.573 64.9598C175.355 64.2901 174.447 64.3958 174.156 63.7614C173.721 62.7392 173.031 63.0212 172.341 63.5147C172.232 63.5147 172.123 63.5499 172.05 63.5852C170.598 63.7966 169.218 63.6557 168.092 62.5982C167.693 62.563 167.148 62.3515 166.857 62.5277C165.369 63.4442 164.86 62.4572 164.352 61.4351C164.279 61.1179 164.098 60.9769 163.771 61.0121C163.589 58.862 162.827 58.2276 160.43 58.2276V58.2628C159.123 56.7472 158.179 58.1571 157.126 58.6505C156.908 58.5448 156.69 58.4391 156.472 58.3333C155.346 57.2054 154.075 56.6062 152.441 57.1702C151.715 57.4169 151.061 57.3816 150.626 56.712C149.536 56.0775 148.737 55.1258 147.503 54.5619C146.631 54.1389 145.869 53.3987 144.779 53.3635C143.762 52.5175 144.888 50.7904 143.327 50.1912C143.762 49.7683 143.545 49.0633 144.126 48.6756C144.452 48.4641 144.561 48.0411 144.162 47.7944C143.908 47.6534 143.508 47.3362 143.181 47.7239C142.818 48.1821 141.874 48.2526 141.911 48.8518C142.019 50.015 141.075 49.9797 140.494 50.438C139.332 51.3896 138.243 50.1207 137.117 50.5437C137.008 50.8609 136.754 51.0724 136.79 51.4954C136.936 53.2225 136.355 54.7029 134.975 55.8308C135.084 56.1832 135.156 56.5357 135.156 56.8882C135.156 56.5357 135.084 56.1832 134.975 55.8308C134.285 56.6767 134.721 57.6989 134.648 58.6153C134.575 59.3555 134.43 59.8137 133.559 59.7432C132.651 59.7785 132.07 60.6949 131.053 60.4834C130.69 60.4129 130.218 60.8711 130.363 61.1179C131.198 62.6687 129.019 63.9024 130 65.559C130.327 66.1582 129.274 66.7574 128.838 67.3919C128.62 68.5903 128.366 69.7887 128.148 71.0223C127.821 71.5863 129.237 71.7625 128.511 72.4322C128.547 73.0314 128.293 73.5601 128.003 74.0536C127.531 74.8643 127.857 75.4635 128.475 75.9922C128.983 76.7676 129.855 77.3668 129.6 78.4595C129.528 78.7767 129.746 79.0939 130.073 79.1292C131.816 79.1997 131.924 80.6096 132.469 81.7022C132.941 82.6186 133.631 83.2178 134.721 82.9711C136.827 82.5482 139.151 83.1121 141.075 81.667C141.547 81.3145 142.528 81.5612 142.746 81.9842C143.363 83.1826 145.978 83.3941 144.707 85.5794C144.598 85.7909 144.816 86.5663 145.397 86.8483C146.413 87.377 147.757 87.3065 148.519 88.3639C148.592 88.4344 149.246 88.3287 149.282 88.1877C150.081 86.3196 153.095 88.082 153.64 85.6147C153.93 84.2753 155.237 83.4998 156.254 82.6539C158.251 81.0325 160.031 82.8654 161.883 83.1826C162.1 83.2178 162.355 83.7113 162.609 83.4998C163.989 82.4424 164.642 83.8171 165.514 84.3105C166.24 84.6982 166.748 85.4032 167.584 85.6499C168.056 85.7909 168.564 86.2139 168.383 86.6721C167.874 87.9057 168.782 88.3639 169.508 88.9279C168.673 89.7738 167.547 90.2673 167.003 91.4304C166.603 92.2411 167.366 91.8534 167.511 92.0649C167.547 91.6067 167.547 91.1132 168.274 91.3247L168.237 91.2895C168.855 89.6328 169.109 89.5976 170.634 90.937C170.779 90.3378 170.561 89.8796 170.198 89.5271C170.525 89.9148 170.743 90.3378 170.634 90.937C171.397 91.078 172.123 91.1485 172.849 90.796C173.866 90.373 174.265 89.4918 174.665 88.5754C174.665 88.1877 174.665 87.8352 174.665 87.4475C174.556 87.3065 174.411 87.1303 174.302 86.9893C174.156 85.1917 175.391 83.6056 175.137 81.808C174.846 81.5612 174.665 81.3498 174.556 81.1383C174.665 81.3498 174.883 81.5612 175.137 81.808C174.919 80.8563 175.064 79.9046 175.427 78.9882C175.282 79.0939 175.173 79.1997 175.064 79.3054C175.173 79.1997 175.318 79.0939 175.427 78.9882L175.391 78.8824C175.5 78.7062 175.645 78.53 175.754 78.3537C176.48 78.0365 176.19 77.4373 176.154 76.9086C177.279 75.4282 177.316 73.6659 177.57 71.974C177.679 71.8682 177.679 71.7625 177.606 71.6568H177.57C177.86 71.692 177.969 71.5863 177.933 71.3043C178.296 71.41 178.514 71.2338 178.659 70.9166C179.204 70.5993 179.567 70.1411 179.785 69.5419L179.748 69.5067C180.148 69.6477 180.293 69.3657 180.475 69.1542C181.237 68.7665 181.165 68.0616 181.201 67.3919C181.709 67.2509 182.181 66.8984 182.109 66.3697ZM174.628 88.6107C173.83 88.7869 173.321 89.2099 173.067 89.8091C173.321 89.2099 173.83 88.7869 174.628 88.6107Z" fill="#A4D5EA"/>
<path d="M153.967 24.0898H138.548L119.274 47.5837L130.115 24.0898H112.207V0H153.967V24.0898Z" fill="#A4D5EA"/>
<path d="M82.6087 33.2116H74.0404L90.0559 69.7899L64.8315 33.2116H37.7654V12.6895H82.6087V33.2116Z" fill="#6BB8DC"/>
<path d="M230.587 83.1837H189.463V77.1822L165.587 79.4746L189.463 70.614V63.0928H230.587V83.1837Z" fill="#A4D5EA"/>
<path d="M110.391 206.901H155.056V186.064H129.158L118.354 164.604L123.233 186.064H110.391V206.901Z" fill="#6BB8DC"/>
<path d="M0 107.177C0 97.8291 10.142 90.2324 22.6797 90.2324C31.4109 90.2324 38.9974 93.9149 42.7773 99.2969C43.5759 100.43 76.9832 96.593 76.9832 96.593C76.9832 96.593 45.3594 105.683 45.3594 107.151C45.3594 116.499 35.2174 124.07 22.6797 124.07C10.142 124.07 0 116.525 0 107.177Z" fill="#A4D5EA"/>
<path d="M209.525 32.8474C209.525 41.639 199.309 48.75 186.718 48.75C181.303 48.75 176.342 47.4312 172.421 45.2333C171.06 44.4834 143.799 59.9205 143.799 59.9205C143.799 59.9205 166.766 40.6564 166.019 39.5446C164.658 37.5018 163.885 35.2263 163.885 32.8215C163.885 24.0299 174.101 16.9189 186.692 16.9189C199.309 16.9448 209.525 24.0557 209.525 32.8474Z" fill="#6BB8DC"/>
<path d="M227.028 147.404L215.553 186.423L207.201 215.185H201.101L209.997 147.404H227.028Z" fill="#88C6E3"/>
<path d="M230.078 147.404C230.332 167.53 231.24 178.492 231.531 180.325C231.821 182.158 235.997 193.79 244.131 215.185H237.849C227.5 194.636 221.726 183.004 220.492 180.325C219.257 177.646 215.553 166.649 209.961 147.404H230.078Z" fill="#A4D5EA"/>
<path d="M244.712 220.683L244.385 214.232H237.74C234.581 216.383 230.478 218.11 225.43 219.449V220.683H237.45L241.553 220.083V220.683H244.712Z" fill="#168CC6"/>
<path d="M208.073 220.683L207.746 214.232H201.101C197.941 216.383 193.838 218.11 188.791 219.449V220.683H200.81L204.913 220.083V220.683H208.073Z" fill="#168CC6"/>
<path d="M221.4 109.478C222.852 107.821 223.833 105.777 223.687 103.521C223.215 96.9649 213.81 98.41 211.958 101.723C210.143 105.036 210.36 113.425 212.721 114.025C213.665 114.271 215.662 113.672 217.732 112.474L216.461 121.285H224.05L221.4 109.478Z" fill="#FFCAA7"/>
<path d="M211.232 103.204C211.305 102.781 211.486 102.288 211.631 101.9C211.813 101.371 212.103 100.913 212.43 100.455C213.011 99.6088 213.737 98.8687 214.536 98.2342C215.989 97.0711 217.841 96.4366 219.656 96.6481C220.564 96.7538 221.472 97.1063 222.235 97.6703C222.925 98.1637 223.578 98.9391 224.45 98.9744C225.43 99.0449 226.302 98.199 227.064 97.7055C227.936 97.1415 228.844 96.7186 229.897 96.5423C231.603 96.2604 233.201 96.8243 234.363 98.199C235.598 99.6441 236.506 101.759 235.707 103.662C235.561 104.015 235.344 104.332 235.089 104.579C234.835 104.79 234.436 105.037 234.327 105.425C234.218 105.812 234.545 106.306 234.69 106.658C234.872 107.152 235.017 107.68 234.98 108.244C234.908 109.126 234.327 110.007 233.71 110.571C233.092 111.17 232.33 111.522 231.494 111.663C230.95 111.769 230.405 111.84 229.824 111.804C229.534 111.769 229.316 111.699 229.025 111.663C228.771 111.593 228.626 111.663 228.408 111.804C227.391 112.439 226.302 112.686 225.103 112.615C224.123 112.545 222.961 112.298 222.162 111.628C221.254 110.888 221.291 109.866 221.472 108.808C221.254 108.914 220.637 108.985 221 108.562C221.145 108.385 221.436 108.315 221.617 108.209C221.835 108.103 222.053 107.927 222.235 107.751C222.925 106.976 222.235 105.425 221.363 105.143C220.056 104.755 219.802 106.517 218.858 106.976C218.313 107.222 217.768 106.87 217.369 106.517C216.824 106.024 216.461 105.389 216.17 104.72C215.916 104.191 215.662 103.627 215.408 103.063C215.299 102.816 214.863 102.076 215.081 101.794C214.173 101.618 213.12 101.97 212.321 102.464C211.994 102.675 211.74 102.887 211.559 103.239C211.522 103.31 211.45 103.557 211.341 103.557C211.159 103.521 211.232 103.31 211.232 103.204Z" fill="#49220A"/>
<path d="M210.869 106.764C210.941 107.398 210.469 107.962 210.106 108.42C209.888 108.702 208.981 109.795 209.525 110.112C210.034 110.429 210.76 110.359 211.341 110.324" fill="#FFCAA7"/>
<path d="M213.302 106.482C213.193 106.306 213.048 106.165 212.866 106.094C212.684 105.988 212.503 105.953 212.285 105.953C212.067 105.953 211.849 105.988 211.668 106.165C211.486 106.306 211.377 106.552 211.45 106.729C211.631 106.623 211.777 106.588 211.886 106.552C211.994 106.552 212.14 106.517 212.285 106.552C212.575 106.517 212.866 106.517 213.302 106.482Z" fill="#49220A"/>
<path d="M211.341 111.664C211.74 111.91 212.176 111.946 212.648 111.875C213.12 111.805 213.556 111.488 213.701 111.029C213.229 111.135 212.902 111.241 212.539 111.276C212.14 111.382 211.74 111.417 211.341 111.664Z" fill="#49220A"/>
<path d="M212.14 107.61C212.34 107.61 212.503 107.452 212.503 107.258C212.503 107.063 212.34 106.905 212.14 106.905C211.939 106.905 211.777 107.063 211.777 107.258C211.777 107.452 211.939 107.61 212.14 107.61Z" fill="#49220A"/>
<path d="M194.346 143.033L185.777 136.653C181.492 135.878 179.495 135.243 179.821 134.679C180.293 133.869 181.455 134.433 181.855 133.904C182.254 133.41 181.274 131.824 180.257 130.379C179.24 128.934 180.184 129.005 180.765 129.146C182.617 130.168 184.578 131.613 186.576 133.551L198.014 138.416L194.346 143.033ZM252.12 158.295C252.738 159.07 256.55 161.115 259.129 162.207C260.182 162.63 259.927 163.512 259.637 163.758C257.168 165.979 254.916 164.322 252.265 163.688C249.36 162.983 250.268 166.331 247.981 165.838C248.344 164.287 249.324 161.397 248.271 159.811C247.799 159.106 244.313 152.867 237.813 141.094L244.277 139.861C248.67 151.069 251.285 157.202 252.12 158.295Z" fill="#FFCAA7"/>
<path d="M220.201 116.316L217.478 115.857C211.522 121.462 209.089 134.926 205.131 136.689C201.391 138.38 196.053 136.759 189.735 134.538L187.81 138.733C193.547 144.76 205.785 149.836 210.723 146.945C218.676 142.328 220.492 125.727 220.201 116.316Z" fill="#329BCD"/>
<path d="M232.112 149.624C221.145 149.624 213.084 149.624 207.927 149.624C206.838 149.624 207.02 148.074 207.201 147.298C209.053 138.275 216.243 128.547 216.243 115.717L223.215 114.659C228.989 123.682 230.986 134.785 232.112 149.624Z" fill="#DDF2F9"/>
<path d="M234.545 140.495C239.483 149.131 243.623 155.334 246.964 159.141L252.048 158.189C248.779 138.557 239.338 124.035 223.687 114.694H223.615H220.927C214.682 135.42 212.939 149.201 215.735 156.11H237.486C237.159 151.034 236.034 145.712 234.545 140.495Z" fill="#4FA9D5"/>
<path d="M179.725 126.565C180.251 125.032 179.398 123.375 177.818 122.864C176.239 122.353 174.532 123.181 174.006 124.714C173.479 126.247 174.333 127.904 175.912 128.415C177.491 128.926 179.198 128.097 179.725 126.565Z" fill="#6BB8DC"/>
<path d="M176.117 128.511L182.617 140.178C182.617 140.178 184.506 140.178 185.196 138.909L179.64 126.854L176.117 128.511Z" fill="#C1E3F2"/>
<path d="M174.411 127.56L179.821 124.916L179.567 124.353L174.048 126.961L174.411 127.56Z" fill="#88C6E3"/>
<path d="M176.481 129.286C175.645 130.062 175.645 132 176.009 133.022C176.408 134.256 177.28 135.102 178.587 135.278C179.531 135.384 180.657 135.349 181.165 134.397C181.819 133.199 181.056 131.366 180.185 130.485C179.422 129.744 177.679 128.44 176.481 129.286Z" fill="#FFCAA7"/>
<path d="M48.2961 170.827H63.5811L82.6872 147.333L71.94 170.827H89.6928V194.917H48.2961V170.827Z" fill="#A4D5EA"/>
</svg>
