<svg width="239" height="162" viewBox="0 0 239 162" fill="none" xmlns="http://www.w3.org/2000/svg">
<path d="M196.169 35.7343L182.452 29.2257C180.099 26.7558 177.813 24.8199 175.56 23.5182C174.888 23.2846 173.745 23.1845 174.921 25.0202C176.098 26.856 177.275 28.8252 176.737 29.426C176.233 30.0268 174.821 29.2925 174.215 30.2938C173.812 30.9613 176.199 31.8625 181.376 32.964L191.529 41.2082L196.169 35.7343Z" fill="#E8A16D"/>
<path d="M204.17 35.1004C199.497 35.067 193.278 34.0657 186.621 29.8936L183.999 35.6678C188.571 40.1737 195.026 43.8786 200.674 43.7117C205.112 43.5782 207.398 38.2712 204.17 35.1004Z" fill="#C60A3F"/>
<path d="M186.621 43.244V26.8558C186.621 20.2138 181.276 14.8066 174.753 14.8066H11.8676C5.34548 14.8066 0 20.2471 0 26.8558V43.244H186.621Z" fill="#F7CDD4"/>
<path d="M0 43.2441V121.58C0 128.223 5.34548 133.63 11.8676 133.63H174.753C181.276 133.63 186.621 128.189 186.621 121.58V43.2441H0Z" fill="#F7CDD4"/>
<path d="M60.2122 120.779L11.8676 120.645C11.2961 120.445 10.7245 120.278 10.8926 119.678L10.6909 53.5573C10.859 52.9565 11.0607 52.3891 11.6323 52.5559L59.9769 52.6894C60.5484 52.8897 61.12 53.0566 60.9519 53.6574L60.5821 119.611C60.9855 120.378 60.7838 120.979 60.2122 120.779Z" fill="#F9F9F9"/>
<path d="M69.2558 25.2878H65.4905V35.6681H62.4647V25.2878H58.7666V22.918H69.2558V25.2878Z" fill="#F9F9F9"/>
<path d="M70.3652 23.7184C70.3652 23.2845 70.4997 22.9507 70.8023 22.6837C71.1049 22.4167 71.4747 22.2832 71.979 22.2832C72.4496 22.2832 72.8531 22.4167 73.1556 22.6837C73.4582 22.9507 73.5927 23.3179 73.5927 23.7184C73.5927 24.1523 73.4582 24.4861 73.1556 24.7531C72.8531 25.0201 72.4833 25.1536 71.979 25.1536C71.5083 25.1536 71.1049 25.0201 70.8023 24.7531C70.5333 24.5195 70.3652 24.1523 70.3652 23.7184ZM73.4582 35.6675H70.5333V26.1883H73.4582V35.6675Z" fill="#F9F9F9"/>
<path d="M78.6356 23.8193V26.1891H80.1821V28.2251H78.6356V32.5642C78.6356 32.9313 78.7028 33.165 78.8373 33.2985C78.9718 33.432 79.2071 33.4987 79.5769 33.4987C79.8795 33.4987 80.1148 33.4654 80.3165 33.432V35.5347C79.7786 35.7016 79.2407 35.8018 78.6692 35.8018C77.6606 35.8018 76.921 35.5681 76.4503 35.0675C75.9796 34.6002 75.7443 33.8659 75.7443 32.8979V28.2251H74.5676V26.1891H75.7443V23.8193H78.6356Z" fill="#F9F9F9"/>
<path d="M86.9731 28.8587L86.0318 28.792C85.1241 28.792 84.5189 29.0924 84.2836 29.6598V35.6677H81.3923V26.1885H84.1155L84.2164 27.3901C84.7206 26.4556 85.393 25.9883 86.2671 25.9883C86.5697 25.9883 86.8387 26.0217 87.074 26.0884L86.9731 28.8587Z" fill="#F9F9F9"/>
<path d="M92.3523 35.8344C90.9066 35.8344 89.7636 35.4005 88.8895 34.5327C88.0153 33.6649 87.5447 32.53 87.5447 31.1616V30.9279C87.5447 29.96 87.7128 29.0922 88.0826 28.3579C88.4524 27.6236 88.9567 27.0562 89.6291 26.6223C90.3015 26.1884 91.1083 26.0215 92.0497 26.0215C93.3608 26.0215 94.403 26.422 95.1427 27.2564C95.9159 28.0909 96.2857 29.2257 96.2857 30.7277V31.8625H90.5032C90.604 32.3965 90.8394 32.7971 91.1756 33.1308C91.5118 33.4312 91.9824 33.5981 92.554 33.5981C93.4617 33.5981 94.2013 33.2643 94.7056 32.6302L96.0504 34.2323C95.6806 34.7329 95.1763 35.1335 94.5039 35.4339C93.8315 35.7009 93.1255 35.8344 92.3523 35.8344ZM92.0497 28.2911C91.2092 28.2911 90.7049 28.8585 90.5368 29.9934H93.4617V29.7597C93.4617 29.2925 93.3608 28.9253 93.0919 28.6583C92.8565 28.4246 92.4867 28.2911 92.0497 28.2911Z" fill="#F9F9F9"/>
<path d="M101.497 30.8615C101.497 29.3595 101.799 28.1913 102.438 27.3235C103.077 26.4557 103.985 26.0218 105.128 26.0218C105.968 26.0218 106.674 26.3556 107.246 27.0231V22.2168H110.171V35.6678H107.548L107.414 34.6665C106.809 35.4676 106.069 35.8681 105.128 35.8681C104.018 35.8681 103.144 35.4342 102.472 34.5664C101.833 33.6986 101.497 32.4636 101.497 30.8615ZM104.422 31.0284C104.422 32.6972 104.892 33.5651 105.867 33.5651C106.506 33.5651 106.977 33.298 107.246 32.7306V29.1259C106.977 28.5585 106.54 28.2915 105.867 28.2915C104.96 28.2915 104.489 29.0258 104.422 30.4944V31.0284Z" fill="#F9F9F9"/>
<path d="M116.323 35.8344C114.877 35.8344 113.734 35.4005 112.86 34.5327C111.986 33.6649 111.515 32.53 111.515 31.1616V30.9279C111.515 29.96 111.683 29.0922 112.053 28.3579C112.423 27.6236 112.927 27.0562 113.6 26.6223C114.272 26.1884 115.079 26.0215 116.02 26.0215C117.332 26.0215 118.374 26.422 119.113 27.2564C119.887 28.0909 120.256 29.2257 120.256 30.7277V31.8625H114.474C114.575 32.3965 114.81 32.7971 115.146 33.1308C115.482 33.4312 115.953 33.5981 116.525 33.5981C117.432 33.5981 118.172 33.2643 118.676 32.6302L120.021 34.2323C119.651 34.7329 119.147 35.1335 118.475 35.4339C117.802 35.7009 117.096 35.8344 116.323 35.8344ZM115.987 28.2911C115.146 28.2911 114.642 28.8585 114.474 29.9934H117.399V29.7597C117.399 29.2925 117.298 28.9253 117.029 28.6583C116.794 28.4246 116.457 28.2911 115.987 28.2911Z" fill="#F9F9F9"/>
<path d="M130.712 32.9981C130.712 32.7311 130.577 32.5308 130.309 32.3973C130.04 32.2305 129.569 32.0969 128.829 31.9301C128.09 31.7632 127.518 31.5629 127.047 31.2959C126.577 31.0289 126.207 30.6951 125.972 30.328C125.736 29.9608 125.602 29.5269 125.602 29.0262C125.602 28.1584 125.972 27.4241 126.678 26.8901C127.384 26.3227 128.325 26.0557 129.468 26.0557C130.712 26.0557 131.687 26.3227 132.427 26.8901C133.166 27.4575 133.536 28.1918 133.536 29.1264H130.611C130.611 28.3587 130.208 27.9915 129.434 27.9915C129.132 27.9915 128.863 28.0917 128.661 28.2586C128.459 28.4254 128.359 28.6591 128.359 28.8927C128.359 29.1597 128.493 29.36 128.728 29.5269C128.997 29.6938 129.401 29.8273 129.939 29.9274C130.477 30.0276 130.981 30.1611 131.384 30.2946C132.796 30.7952 133.502 31.663 133.502 32.9314C133.502 33.7992 133.133 34.5001 132.359 35.0341C131.586 35.5682 130.611 35.8352 129.434 35.8352C128.628 35.8352 127.922 35.7017 127.283 35.4013C126.644 35.1009 126.173 34.7004 125.804 34.1997C125.434 33.699 125.266 33.165 125.266 32.5976H127.989C127.989 33.0315 128.157 33.3653 128.426 33.5655C128.695 33.7658 129.065 33.8659 129.502 33.8659C129.905 33.8659 130.208 33.7992 130.409 33.6323C130.611 33.4654 130.712 33.2651 130.712 32.9981Z" fill="#F9F9F9"/>
<path d="M139.386 35.8347C137.94 35.8347 136.797 35.4008 135.923 34.533C135.049 33.6652 134.578 32.5304 134.578 31.1619V30.9283C134.578 29.9603 134.746 29.0925 135.116 28.3582C135.486 27.6239 135.99 27.0565 136.663 26.6226C137.335 26.1887 138.142 26.0218 139.083 26.0218C140.394 26.0218 141.437 26.4223 142.176 27.2568C142.949 28.0912 143.319 29.226 143.319 30.728V31.8628H137.537C137.638 32.3969 137.873 32.7974 138.209 33.1312C138.545 33.4315 139.016 33.5984 139.587 33.5984C140.495 33.5984 141.235 33.2647 141.739 32.6305L143.084 34.2326C142.714 34.7333 142.21 35.1338 141.537 35.4342C140.865 35.7012 140.159 35.8347 139.386 35.8347ZM139.016 22.2168H142.075L139.688 24.9537H137.301L139.016 22.2168ZM139.05 28.2915C138.209 28.2915 137.705 28.8589 137.537 29.9937H140.462V29.7601C140.462 29.2928 140.361 28.9256 140.092 28.6586C139.89 28.425 139.52 28.2915 139.05 28.2915Z" fill="#F9F9F9"/>
<path d="M147.622 26.1883V36.0012C147.622 37.1361 147.286 38.0039 146.681 38.6047C146.042 39.2055 145.168 39.5059 144.059 39.5059C143.588 39.5059 143.117 39.4725 142.68 39.3723V37.1361C143.017 37.2028 143.286 37.2028 143.487 37.2028C144.294 37.2028 144.698 36.8023 144.698 36.0012V26.1883H147.622ZM144.496 23.7184C144.496 23.2845 144.63 22.9507 144.933 22.6837C145.235 22.4167 145.605 22.2832 146.11 22.2832C146.614 22.2832 146.984 22.4167 147.286 22.6837C147.589 22.9507 147.723 23.3179 147.723 23.7184C147.723 24.1523 147.589 24.4861 147.286 24.7531C146.984 25.0201 146.614 25.1536 146.11 25.1536C145.605 25.1536 145.235 25.0201 144.933 24.7531C144.63 24.5195 144.496 24.1523 144.496 23.7184Z" fill="#F9F9F9"/>
<path d="M148.9 30.828C148.9 29.8934 149.068 29.0256 149.438 28.2913C149.808 27.557 150.312 26.9896 150.984 26.5891C151.657 26.1885 152.464 25.9883 153.371 25.9883C154.783 25.9883 155.859 26.4222 156.666 27.3234C157.473 28.1912 157.876 29.3928 157.876 30.9281V31.0282C157.876 32.4968 157.473 33.665 156.666 34.5329C155.859 35.4007 154.75 35.8346 153.371 35.8346C152.027 35.8346 150.984 35.434 150.178 34.633C149.371 33.8319 148.934 32.7305 148.866 31.3286L148.9 30.828ZM151.791 31.0282C151.791 31.896 151.926 32.5636 152.195 32.9641C152.464 33.3646 152.867 33.5649 153.405 33.5649C154.447 33.5649 154.985 32.7639 154.985 31.1284V30.828C154.985 29.1257 154.447 28.2913 153.371 28.2913C152.397 28.2913 151.859 29.0256 151.791 30.4942V31.0282Z" fill="#F9F9F9"/>
<path d="M164.735 34.6329C164.13 35.434 163.289 35.8345 162.247 35.8345C161.238 35.8345 160.432 35.5341 159.927 34.9333C159.423 34.3325 159.154 33.4647 159.154 32.3299V26.1885H162.045V32.3633C162.045 33.1643 162.449 33.5648 163.222 33.5648C163.894 33.5648 164.365 33.3312 164.634 32.8305V26.1885H167.559V35.6676H164.836L164.735 34.6329Z" fill="#F9F9F9"/>
<path d="M174.787 28.8587L173.846 28.792C172.938 28.792 172.333 29.0924 172.098 29.6598V35.6677H169.206V26.1885H171.929L172.03 27.3901C172.535 26.4556 173.207 25.9883 174.081 25.9883C174.384 25.9883 174.653 26.0217 174.888 26.0884L174.787 28.8587Z" fill="#F9F9F9"/>
<path d="M168.568 53.8916H74.3325V56.0278H168.568V53.8916Z" fill="#F9F9F9"/>
<path d="M168.534 63.1035H74.2988V65.2397H168.534V63.1035Z" fill="#F9F9F9"/>
<path d="M168.5 72.3154H74.2651V74.4516H168.5V72.3154Z" fill="#F9F9F9"/>
<path d="M168.5 81.5283H74.2651V83.6645H168.5V81.5283Z" fill="#F9F9F9"/>
<path d="M168.466 90.7402H74.2314V92.8764H168.466V90.7402Z" fill="#F9F9F9"/>
<path d="M168.433 99.9521H74.198V102.088H168.433V99.9521Z" fill="#F9F9F9"/>
<path d="M168.433 109.197H74.198V111.333H168.433V109.197Z" fill="#F9F9F9"/>
<path d="M168.399 118.41H74.1643V120.546H168.399V118.41Z" fill="#F9F9F9"/>
<path d="M31.1988 100.486C28.2403 97.0144 26.2231 92.7421 26.5593 87.9692C27.5343 74.2512 46.8318 77.2551 50.5972 84.1976C54.3625 91.14 53.8919 108.696 49.0507 109.965C47.1007 110.465 42.9992 109.264 38.7968 106.727L41.5536 120.712H25.9878L31.1988 100.486Z" fill="#E8A16D"/>
<path d="M19.7681 83.3967C19.2639 82.8961 18.9949 82.1952 18.7596 81.5276C18.5242 80.8267 18.2889 80.1258 18.1208 79.4248C17.7846 77.9896 17.7846 76.3208 18.8268 75.1859C19.6673 74.2848 20.9112 73.8842 22.0543 73.7841C22.8275 73.7173 23.6008 73.8175 24.3404 74.0845C25.08 74.3181 25.7188 74.7854 26.4248 75.0858C26.4584 73.5171 26.7274 71.915 27.5006 70.5799C28.2738 69.3115 29.4841 68.5772 30.8962 68.4104C32.3082 68.2101 33.7202 68.5439 34.9977 69.2448C35.3339 69.4117 35.6365 69.6119 35.9391 69.8122C36.208 69.9791 36.4433 70.1794 36.7459 70.2461C37.0821 70.3129 37.2502 70.146 37.4519 69.879C37.7209 69.6119 37.9898 69.3449 38.2924 69.1447C39.6372 68.1767 41.3854 67.7762 42.9319 68.3436C43.6379 68.6106 44.3439 69.0779 44.8146 69.7121C45.2516 70.2795 45.5542 71.1473 46.1593 71.5478C46.4283 71.7147 46.5964 71.4811 46.8317 71.3476C47.1679 71.1139 47.5041 70.8469 47.8403 70.6133C48.3446 70.2795 48.8489 70.0458 49.4204 69.9123C50.2609 69.7121 51.404 69.7788 51.6393 70.8469C51.7402 71.2474 51.6729 71.6813 51.6393 72.0819C51.6057 72.6493 51.5721 73.2167 51.5048 73.7507C51.4712 74.1846 51.404 74.5851 51.3367 75.0191C51.3031 75.2527 51.1686 75.6532 51.2695 75.8869C51.404 76.1539 51.9419 76.0204 52.1772 76.0204C52.6479 76.0537 53.1185 76.1205 53.5556 76.3208C53.8918 76.4877 54.2616 76.6879 54.3961 77.0884C54.4969 77.3221 54.4633 77.5557 54.4297 77.7894C54.3961 78.0898 54.4297 78.2233 54.4633 78.5237C55.1021 78.2233 57.2873 77.5223 57.5563 78.6572C57.6572 79.0243 57.4554 79.4582 57.2873 79.7586C57.0184 80.326 56.6486 80.8267 56.2788 81.294C55.5055 82.2953 54.5642 83.1631 53.5556 83.8974C54.7323 84.3981 55.0349 85.9334 54.0263 86.8346C53.5892 87.2351 52.9841 87.3353 52.4125 87.3019C52.2108 87.3019 51.9082 87.2017 51.7402 87.2351C51.6393 87.2685 51.5721 87.3353 51.4376 87.3353C50.6307 87.402 49.723 87.2017 48.9497 87.0349C47.5714 86.7345 46.2266 86.0669 45.1508 85.0656C44.8818 84.7986 44.6465 84.6651 44.2767 84.6651C43.9405 84.6651 43.6379 84.7652 43.3017 84.7652C42.4276 84.7986 41.6543 84.3647 40.8811 84.0977C40.8475 85.1657 40.5113 86.3339 40.0742 87.3019C39.7044 88.1029 38.9648 88.2031 38.2252 88.2698C35.8718 88.5035 33.4848 88.2364 31.1315 88.2364C33.4176 88.7371 35.8046 88.9707 38.0571 89.5715C39.0993 89.8385 38.2924 90.5395 37.8554 91.0068C37.1494 91.7744 36.6114 92.7424 36.208 93.7771C35.0986 92.3418 33.115 91.3739 31.3668 91.8078C29.4169 92.3085 28.0721 94.9119 29.316 96.781C30.022 97.8491 31.3332 98.283 32.409 98.7503C31.5685 99.6181 31.3668 100.886 30.8625 101.988C30.6272 102.522 30.2574 103.123 29.6859 103.323C29.4841 103.39 29.2488 103.39 29.0807 103.557C28.879 103.757 28.8454 103.99 28.5764 104.157C27.5342 104.858 25.9205 104.825 25.0128 103.89C24.1723 103.056 24.4076 101.721 25.08 100.886C23.9706 100.419 21.987 99.8517 22.4241 98.1495C20.0371 97.9826 14.2546 94.1776 17.4484 91.3739C15.7002 90.406 14.0865 88.0028 15.1959 85.8667C16.1036 84.2312 18.1208 83.4969 19.7681 83.3967Z" fill="#8E1C59"/>
<path d="M51.5047 93.4766C52.7823 93.8103 53.0848 95.2456 53.5555 96.0466C54.0262 96.8477 54.9675 98.4498 55.4382 99.2842C55.9089 100.085 55.9089 100.085 55.7408 100.719C54.7994 101.854 53.5219 101.52 52.1099 101.821C51.4711 101.654 50.6979 102.121 50.0591 101.954" fill="#E8A16D"/>
<path d="M49.723 93.9103C50.0928 93.9103 50.3618 93.6099 50.3618 93.2427C50.3618 92.8756 50.0592 92.5752 49.723 92.5752C49.3532 92.5752 49.0842 92.8756 49.0842 93.2427C49.0842 93.6099 49.3532 93.9103 49.723 93.9103Z" fill="#8E1C59"/>
<path d="M49.8238 104.692C50.5298 104.925 51.303 104.992 52.009 104.892C51.2022 104.658 50.4625 104.391 49.7901 103.991C49.454 103.79 49.1178 103.59 48.8152 103.323C48.6471 103.19 48.479 103.056 48.3109 102.889C48.21 102.756 48.0756 102.656 47.9411 102.522L47.9075 102.489C47.7394 102.355 47.504 102.389 47.3695 102.555C47.2015 102.722 47.2351 102.989 47.4032 103.156L47.4368 103.19C47.7394 103.423 48.0083 103.757 48.3109 104.124C48.6135 104.491 48.9833 104.892 49.3867 105.125C50.1936 105.693 51.0677 105.993 51.9754 106.26C51.6056 105.96 51.2358 105.693 50.866 105.426C50.4625 105.226 50.1263 104.959 49.8238 104.692Z" fill="#8E1C59"/>
<path d="M49.2523 91.3408C49.5212 91.3408 49.8238 91.3408 50.16 91.3074C50.4626 91.274 50.7988 91.2073 51.1349 91.0404C50.8324 90.8735 50.5634 90.74 50.2608 90.6399C49.9583 90.5397 49.6557 90.473 49.3195 90.473C48.6471 90.4396 47.8739 90.7734 47.5713 91.4075L48.5126 91.3408C48.7143 91.3408 48.9833 91.3408 49.2523 91.3408Z" fill="#8E1C59"/>
<path d="M222.526 73.3838L208.843 120.179L202.388 155.292H195.9L202.388 73.3838H222.526Z" fill="#E8A16D"/>
<path d="M228.712 73.3838C227.771 97.6824 228.141 110.933 228.343 113.169C228.544 115.372 229.788 130.158 238.059 156.059H231.335C220.375 131.227 216.542 116.44 215.298 113.169C214.054 109.898 210.323 96.6477 204.91 73.3838H228.712Z" fill="#E8A16D"/>
<path d="M222.829 73.3838C219.265 89.4716 213.113 115.172 204.338 150.485H194.891C194.185 114.238 197.177 90.4062 202.321 73.3838H222.829Z" fill="#E78CA2"/>
<path d="M228.746 73.3838C227.805 97.6824 230.225 121.647 237.756 150.852H227.67C216.677 126.387 208.81 102.555 203.431 73.3838H228.746Z" fill="#EFACBB"/>
<path d="M239 160.866L238.63 154.925C236.445 155.559 233.722 155.292 230.461 154.19C226.93 156.66 222.526 158.329 217.181 159.264C216.777 159.331 216.508 159.731 216.576 160.132C216.576 160.165 216.576 160.198 216.609 160.198L217.114 162.001H230.494H238.294L239 160.866Z" fill="#8E1C59"/>
<path d="M203.834 160.866L203.464 154.925C201.279 155.559 198.556 155.292 195.295 154.19C191.765 156.66 187.361 158.329 182.015 159.264C181.612 159.331 181.343 159.731 181.41 160.132C181.41 160.165 181.41 160.198 181.444 160.198L181.948 162.001H195.328H203.128L203.834 160.866Z" fill="#8E1C59"/>
<path d="M214.256 18.7451C215.971 16.7425 217.147 14.2726 216.946 11.5357C216.374 3.59189 205.246 5.36088 203.061 9.36615C200.909 13.3714 201.145 23.5181 203.969 24.2524C205.078 24.5528 207.465 23.8519 209.886 22.3833L208.373 33.0306H217.349L214.256 18.7451Z" fill="#E8A16D"/>
<path d="M220.846 8.86527C221.148 8.56488 221.283 8.16435 221.417 7.7972C221.552 7.39667 221.686 6.99615 221.787 6.56224C221.989 5.72781 221.989 4.75987 221.383 4.1257C220.913 3.59167 220.173 3.35803 219.501 3.32465C219.064 3.29127 218.593 3.35803 218.19 3.49154C217.753 3.62505 217.416 3.89206 216.979 4.05895C216.979 3.15776 216.811 2.2232 216.341 1.45553C215.903 0.721226 215.197 0.287322 214.391 0.18719C213.55 0.0870588 212.743 0.253945 212.004 0.654472C211.802 0.754603 211.634 0.854735 211.466 0.988244C211.331 1.08838 211.163 1.18851 210.995 1.25526C210.793 1.28864 210.693 1.18851 210.592 1.055C210.457 0.888112 210.289 0.754603 210.121 0.621094C209.348 0.0536815 208.339 -0.179959 207.431 0.153813C207.028 0.320699 206.625 0.587717 206.356 0.92149C206.12 1.25526 205.919 1.75592 205.582 1.98956C205.448 2.08969 205.347 1.95618 205.213 1.85605C205.011 1.72254 204.809 1.55566 204.607 1.42215C204.338 1.22188 204.002 1.08838 203.7 1.02162C203.229 0.921489 202.557 0.92149 202.422 1.55566C202.355 1.7893 202.422 2.05632 202.422 2.28996C202.456 2.62373 202.456 2.92412 202.489 3.2579C202.523 3.49154 202.523 3.72518 202.59 3.99219C202.624 4.1257 202.691 4.35934 202.624 4.49285C202.557 4.65974 202.22 4.55961 202.086 4.55961C201.817 4.55961 201.548 4.62636 201.279 4.72649C201.077 4.82663 200.876 4.96013 200.808 5.1604C200.741 5.29391 200.775 5.42742 200.808 5.56092C200.842 5.72781 200.808 5.82794 200.775 5.99483C200.405 5.82794 199.161 5.42742 198.993 6.06158C198.926 6.26185 199.06 6.52886 199.161 6.69575C199.329 7.02952 199.531 7.29654 199.766 7.59694C200.203 8.16435 200.741 8.66501 201.346 9.09891C200.674 9.39931 200.506 10.2671 201.077 10.8011C201.346 11.0348 201.683 11.0682 202.019 11.0682C202.153 11.0682 202.321 11.0014 202.389 11.0348C202.456 11.0348 202.489 11.1015 202.557 11.1015C203.027 11.1349 203.532 11.0348 204.002 10.9347C204.809 10.7678 205.582 10.3672 206.187 9.79983C206.356 9.66632 206.49 9.56619 206.692 9.56619C206.893 9.56619 207.062 9.63295 207.263 9.63295C207.768 9.63295 208.205 9.39931 208.675 9.23242C208.709 9.86659 208.877 10.5341 209.146 11.1015C209.348 11.5688 209.785 11.6356 210.222 11.669C211.6 11.8025 212.945 11.669 214.323 11.669C213.012 11.9694 211.634 12.1029 210.323 12.4366C209.718 12.6035 210.188 13.004 210.424 13.2711C210.827 13.7383 211.163 14.2724 211.365 14.8732C212.004 14.0387 213.147 13.4713 214.155 13.7383C215.265 14.0054 216.072 15.5073 215.332 16.6088C214.929 17.243 214.155 17.4766 213.55 17.7436C214.021 18.2443 214.155 18.9786 214.458 19.6127C214.592 19.9131 214.794 20.2803 215.13 20.3804C215.265 20.4138 215.399 20.4138 215.5 20.5139C215.601 20.6474 215.635 20.7809 215.803 20.8811C216.408 21.2816 217.316 21.2482 217.853 20.7142C218.324 20.2135 218.223 19.4792 217.82 18.9786C218.459 18.7116 219.602 18.3778 219.366 17.4098C220.745 17.3097 224.073 15.1068 222.224 13.5047C223.233 12.9373 224.174 11.5354 223.501 10.3339C222.964 9.36593 221.821 8.93202 220.846 8.86527Z" fill="#8E1C59"/>
<path d="M203.363 19.6127C202.994 19.7128 202.556 19.4458 202.187 19.5125C201.38 19.3457 200.64 19.5125 200.069 18.8784C199.968 18.5112 199.968 18.5112 200.237 18.044C200.506 17.5767 201.044 16.6421 201.313 16.1748C201.582 15.7075 201.75 14.8731 202.489 14.6729" fill="#E8A16D"/>
<path d="M203.935 14.5732C203.935 14.3729 203.767 14.2061 203.565 14.2061C203.363 14.2061 203.195 14.3729 203.195 14.6066C203.195 14.8068 203.363 14.9737 203.565 14.9737C203.767 14.9404 203.935 14.7735 203.935 14.5732Z" fill="#8E1C59"/>
<path d="M203.498 21.1817C203.095 21.3152 202.658 21.3486 202.22 21.3152C202.691 21.1817 203.128 21.0148 203.498 20.8145C203.7 20.7144 203.868 20.5809 204.07 20.4474C204.17 20.3806 204.271 20.2805 204.372 20.2138C204.439 20.147 204.507 20.0802 204.607 20.0135C204.607 20.0135 204.607 20.0135 204.641 19.9801C204.742 19.9134 204.876 19.9134 204.977 20.0135C205.078 20.1136 205.044 20.2805 204.977 20.3473C204.977 20.3473 204.977 20.3473 204.944 20.3806C204.776 20.5142 204.607 20.7144 204.439 20.9147C204.271 21.1149 204.07 21.3486 203.834 21.5155C203.364 21.8492 202.859 22.0161 202.355 22.183C202.557 22.0161 202.792 21.8492 202.994 21.6824C203.128 21.4821 203.33 21.3486 203.498 21.1817Z" fill="#8E1C59"/>
<path d="M203.834 13.4712C203.666 13.4712 203.498 13.4712 203.33 13.4712C203.162 13.4712 202.96 13.4378 202.792 13.3377C202.96 13.2375 203.128 13.1708 203.296 13.104C203.464 13.0373 203.666 13.0039 203.834 13.0039C204.238 13.0039 204.675 13.1708 204.843 13.5379L204.305 13.5046C204.137 13.4712 203.969 13.4712 203.834 13.4712Z" fill="#8E1C59"/>
<path d="M177.611 53.0905C175.09 51.2881 172.736 50.0865 170.551 49.4857C166.382 48.3509 164.701 47.4497 162.65 44.8797C161.575 43.5112 160.633 40.7409 161.675 39.8397C162.381 39.2389 166.449 42.2429 168.097 42.5767C169.744 42.9104 168.231 39.0053 169.105 39.4058C170.248 39.4392 171.223 40.9746 172.064 44.0786L177.914 47.2829L177.611 53.0905Z" fill="#E8A16D"/>
<path d="M200.035 48.8178C195.059 50.0528 186.756 48.5842 175.056 44.4788C172.165 50.42 170.82 54.6589 171.022 57.1955C181.04 62.369 189.647 64.7054 196.707 64.8389C196.472 69.0111 197.009 72.9496 198.724 76.5877C202.254 84.0308 222.93 77.1217 229.856 78.4902C234.192 64.5051 225.788 58.7976 225.788 49.8525C225.788 40.0396 217.82 24.9531 216.643 24.9531H205.986C205.414 32.3962 202.456 40.6404 200.035 48.8178Z" fill="#CE2A58"/>
</svg>
