<svg width="409" height="408" viewBox="0 0 409 408" fill="none" xmlns="http://www.w3.org/2000/svg">
<path d="M171.311 215.241C173.867 219.909 177.229 224.067 181.399 227.716C209.872 252.422 247.272 274.047 279.911 293.191C297.924 303.693 318.877 311.278 339.541 308.041C345.531 307.144 351.349 305.279 356.267 301.712C364.342 295.888 368.599 286.154 371.261 276.603C382.946 234.888 371.244 190.044 377.549 147.223C381.79 117.705 394.539 87.2408 384.447 59.1705C373.936 29.678 337.128 13.269 307.724 24.0112C291.805 29.8311 279.065 41.7708 266.779 53.4634C239.4 79.5753 205.352 104.81 181.748 134.408C164.546 156.052 157.894 191.286 171.311 215.241Z" fill="#DE6B8A"/>
<path d="M20.2514 81.0026C11.5821 94.3285 6.91397 109.987 4.07976 125.645C-6.7569 182.78 4.24648 243.746 34.089 293.552C63.9315 343.358 112.446 381.837 167.963 399.494C218.146 415.485 280.998 410.821 313.341 369.177C352.187 319.205 328.679 247.244 337.515 184.612C341.35 157.794 351.186 129.143 339.349 104.823C331.514 88.665 315.675 78.0042 299.837 69.3423C225.815 28.698 78.2692 -8.28158 20.2514 81.0026Z" fill="#DD1C68"/>
</svg>
