<svg width="485" height="452" viewBox="0 0 485 452" fill="none" xmlns="http://www.w3.org/2000/svg">
<path d="M223.118 61.8919C215.965 62.7796 209.051 64.9379 202.374 68.3667C157.052 91.8878 111.153 128.187 70.7544 159.73C48.5388 177.17 28.5282 199.767 22.29 227.403C20.4302 235.393 19.8739 243.65 21.9104 251.623C25.2129 264.698 35.3457 274.918 46.0439 283.037C92.7376 318.573 155.046 326.223 205.819 355.537C240.871 375.612 272.867 406.871 313.25 408.175C355.634 409.662 394.669 371.505 395.82 329.117C396.438 306.167 387.763 284.165 379.173 262.858C359.959 215.349 345.18 159.879 319.692 115.383C301.025 82.9176 259.979 56.9538 223.118 61.8919Z" fill="#3D2884"/>
<path d="M190.248 154.761C184.979 155.505 179.902 157.185 175.017 159.799C141.855 177.728 108.428 205.095 79.0003 228.883C62.8194 242.034 48.3304 258.965 44.0707 279.442C42.7976 285.363 42.4901 291.465 44.0929 297.325C46.6939 306.935 54.3012 314.353 62.2995 320.212C97.2108 345.861 143.3 350.73 181.144 371.734C207.269 386.116 231.278 408.791 261.104 409.249C292.408 409.817 320.746 381.164 321.066 349.86C321.236 332.912 314.558 316.779 307.951 301.158C293.175 266.328 281.573 225.567 262.203 193.04C248.018 169.308 217.396 150.656 190.248 154.761Z" fill="#A396C4"/>
</svg>
