<svg height="40" viewBox="0 0 25 25" width="40" xmlns="http://www.w3.org/2000/svg"><path d="m12.083 13.6983c-1.0937-1.0674-2.0576-2.0049-2.60449-4.16705h3.82799v-1.61425h-3.80174v-2.13575h-1.64063v2.16113h-3.828v1.61425h3.90626s-.02637.3125-.07813.54687c-.54688 2.1358-1.19825 3.4893-3.828 4.8175l.54687 1.6143c2.5-1.3282 3.80176-2.995 4.37501-4.8438.54687 1.4063 1.48436 2.5518 2.55176 3.5938z"/><path d="m17.1359 8.46387h-2.1875l-3.828 10.75503h1.6406l1.0937-3.2295h4.375l1.0938 3.2295h1.6406zm-2.7345 5.91123 1.6406-4.297 1.6406 4.3233z"/></svg>