<svg fill="none" height="58" viewBox="0 0 182 58" width="182" xmlns="http://www.w3.org/2000/svg"><path d="m1 .00097656v58.00002344" stroke="#000" stroke-width="2"/><path d="m15.236 15.001h3.3c2.664 0 4.464-1.932 4.464-4.2 0-2.26802-1.8-4.20002-4.464-4.20002h-3.3zm3.324-6.85202c1.56 0 2.688 1.152 2.688 2.65202 0 1.488-1.128 2.652-2.688 2.652h-1.62v-5.30402zm9.4305-.156 1.44-1.992h-1.656l-1.248 1.992zm2.052 6.02402-1.092-.864c-.324.432-.9.72-1.56.72-.948 0-1.644-.456-1.788-1.584h4.236c.048-.204.096-.516.096-.852 0-1.58402-1.104-2.72402-2.784-2.72402-1.98 0-3.108 1.47602-3.108 3.26402 0 1.764 1.212 3.264 3.36 3.264 1.14 0 2.076-.468 2.64-1.224zm-2.928-4.05602c.852 0 1.296.61202 1.32 1.22402h-2.784c.168-.792.684-1.22402 1.464-1.22402zm4.3092 5.04002h1.524v-9.00002h-1.524zm6.8676-7.00802 1.44-1.992h-1.656l-1.248 1.992zm2.052 6.02402-1.092-.864c-.324.432-.9.72-1.56.72-.948 0-1.644-.456-1.788-1.584h4.236c.048-.204.096-.516.096-.852 0-1.58402-1.104-2.72402-2.784-2.72402-1.98 0-3.108 1.47602-3.108 3.26402 0 1.764 1.212 3.264 3.36 3.264 1.14 0 2.076-.468 2.64-1.224zm-2.928-4.05602c.852 0 1.296.61202 1.32 1.22402h-2.784c.168-.792.684-1.22402 1.464-1.22402zm3.6623 6.09602c0 1.272 1.14 1.944 3.072 1.944 1.884 0 3.168-1.032 3.168-2.376 0-1.128-.828-1.944-2.352-1.944h-1.524c-.276 0-.408-.12-.408-.36 0-.132.072-.264.204-.384.18.036.372.048.576.048 1.56 0 2.448-.96 2.448-2.148 0-.204-.024-.396-.084-.588h1.068v-1.29602h-2.208c-.348-.156-.756-.24-1.224-.24-1.512 0-2.424.948-2.424 2.12402 0 .672.288 1.272.816 1.668-.456.336-.66.72-.66 1.2 0 .312.132.636.372.876-.54.396-.84.876-.84 1.476zm2.76-4.224c-.66 0-1.056-.396-1.056-.996 0-.588.396-.98402 1.056-.98402.636 0 1.044.38402 1.044.98402s-.408.996-1.044.996zm-1.32 4.008c0-.372.18-.636.408-.852h1.872c.732 0 1.008.324 1.008.78 0 .6-.564 1.008-1.668 1.008-1.068 0-1.62-.36-1.62-.936zm7.3328-.66c.708 0 1.428-.3 1.812-.768v.588h1.524v-3.912c0-1.33202-.9-2.37602-2.652-2.37602-1.104 0-1.992.456-2.532 1.2l1.116.85202c.324-.444.78-.72 1.368-.72.696 0 1.176.408 1.176 1.044v.156l-1.848.312c-1.296.216-2.004.9-2.004 1.812 0 1.116.828 1.812 2.04 1.812zm-.528-1.884c0-.372.264-.636.9-.744l1.44-.24v.852c-.3.48-.804.804-1.5.804-.516 0-.84-.264-.84-.672zm5.9931-.504c0 1.476.72 2.328 2.232 2.328.504 0 .864-.06 1.164-.192v-1.332c-.204.084-.48.132-.9.132-.6 0-.96-.264-.96-.936v-2.472h1.848v-1.36802h-1.848v-1.512h-1.536v1.512h-1.128v1.36802h1.128zm5.5168-4.89602c.54 0 .984-.456.984-.996s-.444-.996-.984-.996-.996.456-.996.996.456.996.996.996zm-.768 7.10402h1.524v-6.04802h-1.524zm6.2316-6.28802c-1.968 0-3.312 1.45202-3.312 3.26402s1.344 3.264 3.312 3.264 3.312-1.452 3.312-3.264-1.344-3.26402-3.312-3.26402zm.024 5.08802c-1.008 0-1.752-.768-1.752-1.824s.744-1.824 1.752-1.824c.972 0 1.704.768 1.704 1.824 0 1.044-.732 1.824-1.704 1.824zm4.678 1.2h1.524v-3.948c.228-.384.636-.9 1.404-.9.744 0 1.2.504 1.2 1.308v3.54h1.536v-3.6c0-1.78802-1.044-2.68802-2.352-2.68802-.804 0-1.368.312-1.788.72v-.48h-1.524zm11.3969-7.10402c.54 0 .984-.456.984-.996s-.444-.996-.984-.996-.996.456-.996.996.456.996.996.996zm-.768 7.10402h1.524v-6.04802h-1.524zm3.3516 0h1.524v-3.948c.228-.384.636-.9 1.404-.9.744 0 1.2.504 1.2 1.308v3.54h1.536v-3.6c0-1.78802-1.044-2.68802-2.352-2.68802-.804 0-1.368.312-1.788.72v-.48h-1.524zm7.7785-2.208c0 1.476.72 2.328 2.232 2.328.504 0 .864-.06 1.164-.192v-1.332c-.204.084-.48.132-.9.132-.6 0-.96-.264-.96-.936v-2.472h1.848v-1.36802h-1.848v-1.512h-1.536v1.512h-1.128v1.36802h1.128zm10.2001 1.224-1.092-.864c-.324.432-.9.72-1.56.72-.9484 0-1.6444-.456-1.7884-1.584h4.2364c.048-.204.096-.516.096-.852 0-1.58402-1.104-2.72402-2.784-2.72402-1.9804 0-3.1084 1.47602-3.1084 3.26402 0 1.764 1.212 3.264 3.3604 3.264 1.14 0 2.076-.468 2.64-1.224zm-2.928-4.05602c.852 0 1.296.61202 1.32 1.22402h-2.7844c.168-.792.684-1.22402 1.4644-1.22402zm4.309 5.04002h1.524v-3.876c.228-.384.708-.792 1.452-.792.276 0 .48.036.672.084v-1.50002c-.144-.048-.324-.084-.528-.084-.684 0-1.2.312-1.596.72v-.6h-1.524zm4.875 0h1.524v-3.948c.228-.384.588-.9 1.284-.9.684 0 1.08.456 1.08 1.188v3.66h1.536v-3.72c0-.096 0-.18-.012-.264.24-.408.6-.864 1.26-.864.684 0 1.08.456 1.08 1.188v3.66h1.536v-3.72c0-1.70402-.984-2.56802-2.232-2.56802-1.02 0-1.596.456-2.028.984-.396-.648-1.068-.984-1.836-.984-.744 0-1.26.3-1.668.696v-.456h-1.524zm11.795-7.10402c.54 0 .984-.456.984-.996s-.444-.996-.984-.996-.996.456-.996.996.456.996.996.996zm-.768 7.10402h1.524v-6.04802h-1.524zm3.352 0h1.524v-3.948c.228-.384.636-.9 1.404-.9.744 0 1.2.504 1.2 1.308v3.54h1.536v-3.6c0-1.78802-1.044-2.68802-2.352-2.68802-.804 0-1.368.312-1.788.72v-.48h-1.524zm8.162-7.10402c.54 0 .984-.456.984-.996s-.444-.996-.984-.996-.996.456-.996.996.456.996.996.996zm-.768 7.10402h1.524v-6.04802h-1.524zm2.742-.876c.576.684 1.344 1.116 2.424 1.116 1.14 0 2.16-.696 2.184-1.968 0-2.088-2.892-1.728-2.892-2.76 0-.312.228-.57602.708-.57602.468 0 .864.31202 1.176.69602l1.008-.88802c-.432-.588-1.272-1.032-2.196-1.032-1.26 0-2.16.804-2.16 1.87202 0 2.124 2.892 1.728 2.892 2.784 0 .36-.252.648-.744.648-.576 0-1.02-.336-1.392-.804zm6.49-1.332c0 1.476.72 2.328 2.232 2.328.504 0 .864-.06 1.164-.192v-1.332c-.204.084-.48.132-.9.132-.6 0-.96-.264-.96-.936v-2.472h1.848v-1.36802h-1.848v-1.512h-1.536v1.512h-1.128v1.36802h1.128zm8.148-4.80002 1.44-1.992h-1.656l-1.248 1.992zm2.052 6.02402-1.092-.864c-.324.432-.9.72-1.56.72-.948 0-1.644-.456-1.788-1.584h4.236c.048-.204.096-.516.096-.852 0-1.58402-1.104-2.72402-2.784-2.72402-1.98 0-3.108 1.47602-3.108 3.26402 0 1.764 1.212 3.264 3.36 3.264 1.14 0 2.076-.468 2.64-1.224zm-2.928-4.05602c.852 0 1.296.61202 1.32 1.22402h-2.784c.168-.792.684-1.22402 1.464-1.22402zm4.309 5.04002h1.524v-3.876c.228-.384.708-.792 1.452-.792.276 0 .48.036.672.084v-1.50002c-.144-.048-.324-.084-.528-.084-.684 0-1.2.312-1.596.72v-.6h-1.524zm5.643-7.10402c.54 0 .984-.456.984-.996s-.444-.996-.984-.996-.996.456-.996.996.456.996.996.996zm-.768 7.10402h1.524v-6.04802h-1.524zm8.919-.984-1.092-.864c-.324.432-.9.72-1.56.72-.948 0-1.644-.456-1.788-1.584h4.236c.048-.204.096-.516.096-.852 0-1.58402-1.104-2.72402-2.784-2.72402-1.98 0-3.108 1.47602-3.108 3.26402 0 1.764 1.212 3.264 3.36 3.264 1.14 0 2.076-.468 2.64-1.224zm-2.928-4.05602c.852 0 1.296.61202 1.32 1.22402h-2.784c.168-.792.684-1.22402 1.464-1.22402zm4.31 5.04002h1.524v-9.00002h-1.524zm3.351 0h1.524v-9.00002h-1.524zm8.92-.984-1.092-.864c-.324.432-.9.72-1.56.72-.948 0-1.644-.456-1.788-1.584h4.236c.048-.204.096-.516.096-.852 0-1.58402-1.104-2.72402-2.784-2.72402-1.98 0-3.108 1.47602-3.108 3.26402 0 1.764 1.212 3.264 3.36 3.264 1.14 0 2.076-.468 2.64-1.224zm-2.928-4.05602c.852 0 1.296.61202 1.32 1.22402h-2.784c.168-.792.684-1.22402 1.464-1.22402zm-159.738 18.03202h1.452l-1.236-1.992h-1.656zm.036 7.188c.708 0 1.428-.3 1.812-.768v.588h1.524v-3.912c0-1.332-.9-2.376-2.652-2.376-1.104 0-1.992.456-2.532 1.2l1.116.852c.324-.444.78-.72 1.368-.72.696 0 1.176.408 1.176 1.044v.156l-1.848.312c-1.296.216-2.004.9-2.004 1.812 0 1.116.828 1.812 2.04 1.812zm-.528-1.884c0-.372.264-.636.9-.744l1.44-.24v.852c-.3.48-.804.804-1.5.804-.516 0-.84-.264-.84-.672zm8.8435 1.704h1.524v-9h-1.524zm4.1653-4.944 1.392-3.456h-1.728l-1.08 3.456zm3.738 5.124c.708 0 1.428-.3 1.812-.768v.588h1.524v-3.912c0-1.332-.9-2.376-2.652-2.376-1.104 0-1.992.456-2.532 1.2l1.116.852c.324-.444.78-.72 1.368-.72.696 0 1.176.408 1.176 1.044v.156l-1.848.312c-1.296.216-2.004.9-2.004 1.812 0 1.116.828 1.812 2.04 1.812zm-.528-1.884c0-.372.264-.636.9-.744l1.44-.24v.852c-.3.48-.804.804-1.5.804-.516 0-.84-.264-.84-.672zm8.5131.504c-1.02 0-1.752-.756-1.752-1.824 0-1.056.732-1.824 1.728-1.824.624 0 1.104.276 1.392.696l1.188-.912c-.564-.744-1.452-1.224-2.556-1.224-2.088 0-3.336 1.5-3.336 3.264s1.248 3.264 3.336 3.264c1.104 0 1.992-.48 2.556-1.224l-1.188-.912c-.288.42-.768.696-1.368.696zm6.3633 0c-1.02 0-1.752-.756-1.752-1.824 0-1.056.732-1.824 1.728-1.824.624 0 1.104.276 1.392.696l1.188-.912c-.564-.744-1.452-1.224-2.556-1.224-2.088 0-3.336 1.5-3.336 3.264s1.248 3.264 3.336 3.264c1.104 0 1.992-.48 2.556-1.224l-1.188-.912c-.288.42-.768.696-1.368.696zm7.6776-1.416c0 .876-.456 1.416-1.284 1.416-.84 0-1.296-.54-1.296-1.416v-3.432h-1.536v3.36c0 1.812 1.044 2.928 2.82 2.928s2.832-1.116 2.832-2.928v-3.36h-1.536zm8.7911 1.632-1.092-.864c-.324.432-.9.72-1.56.72-.948 0-1.644-.456-1.788-1.584h4.236c.048-.204.096-.516.096-.852 0-1.584-1.104-2.724-2.784-2.724-1.98 0-3.108 1.476-3.108 3.264 0 1.764 1.212 3.264 3.36 3.264 1.14 0 2.076-.468 2.64-1.224zm-2.928-4.056c.852 0 1.296.612 1.32 1.224h-2.784c.168-.792.684-1.224 1.464-1.224zm5.0772-2.064c.54 0 .984-.456.984-.996s-.444-.996-.984-.996-.996.456-.996.996.456.996.996.996zm-.768 7.104h1.524v-6.048h-1.524zm3.3516 0h1.524v-9h-1.524zm12.1539-.984-1.092-.864c-.324.432-.9.72-1.56.72-.948 0-1.644-.456-1.788-1.584h4.236c.048-.204.096-.516.096-.852 0-1.584-1.104-2.724-2.784-2.724-1.98 0-3.108 1.476-3.108 3.264 0 1.764 1.212 3.264 3.36 3.264 1.14 0 2.076-.468 2.64-1.224zm-2.928-4.056c.852 0 1.296.612 1.32 1.224h-2.784c.168-.792.684-1.224 1.464-1.224zm4.6815 2.832c0 1.476.72 2.328 2.232 2.328.504 0 .864-.06 1.164-.192v-1.332c-.204.084-.48.132-.9.132-.6 0-.96-.264-.96-.936v-2.472h1.848v-1.368h-1.848v-1.512h-1.536v1.512h-1.128v1.368h1.128zm9.6512-4.8h1.452l-1.236-1.992h-1.656zm.036 7.188c.708 0 1.428-.3 1.812-.768v.588h1.524v-3.912c0-1.332-.9-2.376-2.652-2.376-1.104 0-1.992.456-2.532 1.2l1.116.852c.324-.444.78-.72 1.368-.72.696 0 1.176.408 1.176 1.044v.156l-1.848.312c-1.296.216-2.004.9-2.004 1.812 0 1.116.828 1.812 2.04 1.812zm-.528-1.884c0-.372.264-.636.9-.744l1.44-.24v.852c-.3.48-.804.804-1.5.804-.516 0-.84-.264-.84-.672zm8.8437 1.704h1.524v-9h-1.524zm4.165-4.944 1.392-3.456h-1.728l-1.08 3.456zm3.376-2.16c.54 0 .984-.456.984-.996s-.444-.996-.984-.996-.996.456-.996.996.456.996.996.996zm-.768 7.104h1.524v-6.048h-1.524zm3.352 0h1.524v-3.948c.228-.384.636-.9 1.404-.9.744 0 1.2.504 1.2 1.308v3.54h1.536v-3.6c0-1.788-1.044-2.688-2.352-2.688-.804 0-1.368.312-1.788.72v-.48h-1.524zm7.778-2.208c0 1.476.72 2.328 2.232 2.328.504 0 .864-.06 1.164-.192v-1.332c-.204.084-.48.132-.9.132-.6 0-.96-.264-.96-.936v-2.472h1.848v-1.368h-1.848v-1.512h-1.536v1.512h-1.128v1.368h1.128zm8.148-4.8 1.44-1.992h-1.656l-1.248 1.992zm2.052 6.024-1.092-.864c-.324.432-.9.72-1.56.72-.948 0-1.644-.456-1.788-1.584h4.236c.048-.204.096-.516.096-.852 0-1.584-1.104-2.724-2.784-2.724-1.98 0-3.108 1.476-3.108 3.264 0 1.764 1.212 3.264 3.36 3.264 1.14 0 2.076-.468 2.64-1.224zm-2.928-4.056c.852 0 1.296.612 1.32 1.224h-2.784c.168-.792.684-1.224 1.464-1.224zm3.662 6.096c0 1.272 1.14 1.944 3.072 1.944 1.884 0 3.168-1.032 3.168-2.376 0-1.128-.828-1.944-2.352-1.944h-1.524c-.276 0-.408-.12-.408-.36 0-.132.072-.264.204-.384.18.036.372.048.576.048 1.56 0 2.448-.96 2.448-2.148 0-.204-.024-.396-.084-.588h1.068v-1.296h-2.208c-.348-.156-.756-.24-1.224-.24-1.512 0-2.424.948-2.424 2.124 0 .672.288 1.272.816 1.668-.456.336-.66.72-.66 1.2 0 .312.132.636.372.876-.54.396-.84.876-.84 1.476zm2.76-4.224c-.66 0-1.056-.396-1.056-.996 0-.588.396-.984 1.056-.984.636 0 1.044.384 1.044.984s-.408.996-1.044.996zm-1.32 4.008c0-.372.18-.636.408-.852h1.872c.732 0 1.008.324 1.008.78 0 .6-.564 1.008-1.668 1.008-1.068 0-1.62-.36-1.62-.936zm5.852-.84h1.524v-3.876c.228-.384.708-.792 1.452-.792.276 0 .48.036.672.084v-1.5c-.144-.048-.324-.084-.528-.084-.684 0-1.2.312-1.596.72v-.6h-1.524zm6.286.18c.708 0 1.428-.3 1.812-.768v.588h1.524v-3.912c0-1.332-.9-2.376-2.652-2.376-1.104 0-1.992.456-2.532 1.2l1.116.852c.324-.444.78-.72 1.368-.72.696 0 1.176.408 1.176 1.044v.156l-1.848.312c-1.296.216-2.004.9-2.004 1.812 0 1.116.828 1.812 2.04 1.812zm-.528-1.884c0-.372.264-.636.9-.744l1.44-.24v.852c-.3.48-.804.804-1.5.804-.516 0-.84-.264-.84-.672zm5.993-.504c0 1.476.72 2.328 2.232 2.328.504 0 .864-.06 1.164-.192v-1.332c-.204.084-.48.132-.9.132-.6 0-.96-.264-.96-.936v-2.472h1.848v-1.368h-1.848v-1.512h-1.536v1.512h-1.128v1.368h1.128zm5.517-4.896c.54 0 .984-.456.984-.996s-.444-.996-.984-.996-.996.456-.996.996.456.996.996.996zm-.768 7.104h1.524v-6.048h-1.524zm6.231-6.288c-1.968 0-3.312 1.452-3.312 3.264s1.344 3.264 3.312 3.264 3.312-1.452 3.312-3.264-1.344-3.264-3.312-3.264zm.024 5.088c-1.008 0-1.752-.768-1.752-1.824s.744-1.824 1.752-1.824c.972 0 1.704.768 1.704 1.824 0 1.044-.732 1.824-1.704 1.824zm4.678 1.2h1.524v-3.948c.228-.384.636-.9 1.404-.9.744 0 1.2.504 1.2 1.308v3.54h1.536v-3.6c0-1.788-1.044-2.688-2.352-2.688-.804 0-1.368.312-1.788.72v-.48h-1.524zm-149.377 16.976c0 1.764 1.164 3.264 3.072 3.264.816 0 1.404-.252 1.872-.72v.48h1.536v-9h-1.536v3.432c-.468-.468-1.056-.72-1.872-.72-1.908 0-3.072 1.5-3.072 3.264zm1.596 0c0-1.056.66-1.824 1.692-1.824.684 0 1.248.288 1.656.84v1.968c-.408.552-.972.84-1.656.84-1.032 0-1.692-.768-1.692-1.824zm12.279 2.04-1.092-.864c-.324.432-.9.72-1.56.72-.948 0-1.644-.456-1.788-1.584h4.236c.048-.204.096-.516.096-.852 0-1.584-1.104-2.724-2.784-2.724-1.98 0-3.108 1.476-3.108 3.264 0 1.764 1.212 3.264 3.36 3.264 1.14 0 2.076-.468 2.64-1.224zm-2.928-4.056c.852 0 1.296.612 1.32 1.224h-2.784c.168-.792.684-1.224 1.464-1.224zm3.6992 4.164c.576.684 1.344 1.116 2.424 1.116 1.14 0 2.16-.696 2.184-1.968 0-2.088-2.892-1.728-2.892-2.76 0-.312.228-.576.708-.576.468 0 .864.312 1.176.696l1.008-.888c-.432-.588-1.272-1.032-2.196-1.032-1.26 0-2.16.804-2.16 1.872 0 2.124 2.892 1.728 2.892 2.784 0 .36-.252.648-.744.648-.576 0-1.02-.336-1.392-.804zm9.2467.876h1.524v-3.876c.228-.384.708-.792 1.452-.792.276 0 .48.036.672.084v-1.5c-.144-.048-.324-.084-.528-.084-.684 0-1.2.312-1.596.72v-.6h-1.524zm8.1332-7.008 1.44-1.992h-1.656l-1.248 1.992zm2.052 6.024-1.092-.864c-.324.432-.9.72-1.56.72-.948 0-1.644-.456-1.788-1.584h4.236c.048-.204.096-.516.096-.852 0-1.584-1.104-2.724-2.784-2.724-1.98 0-3.108 1.476-3.108 3.264 0 1.764 1.212 3.264 3.36 3.264 1.14 0 2.076-.468 2.64-1.224zm-2.928-4.056c.852 0 1.296.612 1.32 1.224h-2.784c.168-.792.684-1.224 1.464-1.224zm3.5652-1.008v1.368h1.128v4.68h1.536v-4.68h1.848v-1.368h-1.848v-.672c0-.552.336-.912.852-.912.312 0 .552.108.732.24l.648-1.272c-.384-.204-.852-.336-1.404-.336-1.512 0-2.364 1.032-2.364 2.316v.636zm9.603 3.432c0 .876-.456 1.416-1.284 1.416-.84 0-1.296-.54-1.296-1.416v-3.432h-1.536v3.36c0 1.812 1.044 2.928 2.82 2.928s2.832-1.116 2.832-2.928v-3.36h-1.536zm2.541 3.672c0 1.272 1.14 1.944 3.072 1.944 1.884 0 3.168-1.032 3.168-2.376 0-1.128-.828-1.944-2.352-1.944h-1.524c-.276 0-.408-.12-.408-.36 0-.132.072-.264.204-.384.18.036.372.048.576.048 1.56 0 2.448-.96 2.448-2.148 0-.204-.024-.396-.084-.588h1.068v-1.296h-2.208c-.348-.156-.756-.24-1.224-.24-1.512 0-2.424.948-2.424 2.124 0 .672.288 1.272.816 1.668-.456.336-.66.72-.66 1.2 0 .312.132.636.372.876-.54.396-.84.876-.84 1.476zm2.76-4.224c-.66 0-1.056-.396-1.056-.996 0-.588.396-.984 1.056-.984.636 0 1.044.384 1.044.984s-.408.996-1.044.996zm-1.32 4.008c0-.372.18-.636.408-.852h1.872c.732 0 1.008.324 1.008.78 0 .6-.564 1.008-1.668 1.008-1.068 0-1.62-.36-1.62-.936zm6.596-7.944c.54 0 .984-.456.984-.996s-.444-.996-.984-.996-.996.456-.996.996.456.996.996.996zm-.768 7.104h1.524v-6.048h-1.524zm6.8676-7.008 1.44-1.992h-1.656l-1.248 1.992zm2.052 6.024-1.092-.864c-.324.432-.9.72-1.56.72-.948 0-1.644-.456-1.788-1.584h4.236c.048-.204.096-.516.096-.852 0-1.584-1.104-2.724-2.784-2.724-1.98 0-3.108 1.476-3.108 3.264 0 1.764 1.212 3.264 3.36 3.264 1.14 0 2.076-.468 2.64-1.224zm-2.928-4.056c.852 0 1.296.612 1.32 1.224h-2.784c.168-.792.684-1.224 1.464-1.224zm3.6992 4.164c.576.684 1.344 1.116 2.424 1.116 1.14 0 2.16-.696 2.184-1.968 0-2.088-2.892-1.728-2.892-2.76 0-.312.228-.576.708-.576.468 0 .864.312 1.176.696l1.008-.888c-.432-.588-1.272-1.032-2.196-1.032-1.26 0-2.16.804-2.16 1.872 0 2.124 2.892 1.728 2.892 2.784 0 .36-.252.648-.744.648-.576 0-1.02-.336-1.392-.804z" fill="#000"/></svg>