<svg fill="none" height="81" viewBox="0 0 81 81" width="81" xmlns="http://www.w3.org/2000/svg"><path d="m59.7443 61.698c3.147.807 5.8636 1.2105 8.1499 1.2105s4.4112-.6187 6.3747-1.883c-3.0932-.8339-5.6216-1.2643-7.612-1.2643s-4.3036.6725-6.9126 1.9368z" fill="#7cc1ef"/><path d="m70.3687 62.8007c-.0269-.0269-.0538-.0806-.0807-.1344-.4573-.9684-7.6658-11.4054-8.392-13.2884h8.1499c.5379 1.4526 3.0125 10.5446 3.3622 12.3469 1.1028 2.8513 3.3353 12.1316 3.6311 12.7772.2959.6725-1.3986 1.3719-1.8559.538-.7262-1.3181-2.4476-4.9764-3.2008-7.2091-.7262-2.0712-1.3179-3.9542-1.6138-5.0302z" fill="#e8a16d"/><path d="m64.4242 64.7375c-2.8511.6994-13.2335 1.9906-13.9328 2.1789-.7263.2152-1.3718-1.2912-.4573-1.614 1.4525-.5111 5.4064-1.6946 7.8272-2.1788 1.9366-.3766 3.7118-.6994 4.8953-.8877-.1076-3.2817-.5648-11.1633-.269-12.8848h6.1865c-.2959 1.6408-2.7436 13.5573-3.174 14.7409-.1882.4573-.6186.6455-1.0759.6455z" fill="#e8a16d"/><path d="m50.0749 64.9337c-.3677-.0718-.6419-.078-.832-.0718-.2119.0374-.5251.1199-.9084.2694.042.2385.4343 2.4637 1.1941 6.618.6154.0827.9146-.0793.8757-.4549-.0124-.3802-.0419-.7027-.031-.9505l.8357-3.3158c.0171-.0577-.0234-.1325-.081-.1496l-.5142-.1279c-.2197-.3163-.3505-.5937-.3879-.8056-.0327-.1855.0048-.4379.0858-.7526-.0186-.106-.095-.2291-.2368-.2587z" fill="#edebeb"/><path d="m74.6454 74.9592c-.1614.3497-.2421.5918-.2421.7532 0 .2152.0538.5111.1345.8877h7.9348c.2152-.5649.0807-.8608-.3497-.8877-.4572-.0538-.8069-.0807-1.1028-.1076l-3.6849-1.345c-.0807-.0269-.1614 0-.1883.0538l-.2421.4573c-.4035.1614-.7531.2421-.9952.2421-.2152 0-.4842-.0807-.8607-.2152-.1614-.0269-.3228.0269-.4035.1614.0269-.0269.0269-.0269 0 0z" fill="#edebeb"/><path d="m62.3263 49.8085c2.9588-.7801 5.7561-.7801 8.4189 0 .9145 3.8735 3.147 5.4067 3.5505 11.3246-4.465 2.0444-9.979-1.4526-14.5784.538-1.3449-2.7706.4841-9.4955 2.609-11.8626z" fill="#c4e8f8"/><path d="m65.7962 36.1434c-.6724-.7801-1.1297-1.7485-1.049-2.8245.2152-3.1203 4.5457-2.4209 5.4064-.8608.8338 1.5602.7531 5.5682-.3497 5.8372-.4304.1076-1.3718-.1614-2.3132-.7263l.5918 4.1694h-3.4967z" fill="#e8a16d"/><path d="m68.7817 30.7366c-.4842-.1345-1.1566-.1883-1.4525-.1614.1614-.4035.2421-.8339.1883-1.2643s-.2421-.7801-.4035-1.1567c-.0806-.1613-.1613-.3496-.2958-.4841s-.3228-.2152-.4842-.269c-.1882-.0538-.3765-.0269-.5648 0-.0807.0269-.1614.0538-.2421.0807s-.1345-.0269-.1883-.0807c-.1345-.1345-.3496-.1883-.5379-.2152-.2152-.0269-.4304 0-.6186.0807-.1883.0538-.3766.1614-.5111.3228-.0538.0807-.1076.1614-.1614.2421-.0269.0269-.0269.0538-.0538.0807-.0269 0-.0807 0-.1076.0269-.3228.1076-.6186.3765-.7531.6993-.0807.1883-.1345.538-.1076.9146 0 .3766.3497 1.3719.6724 1.7216.2959.3228.6994.538 1.1028.6187-.2689.2959-.4572.6994-.5648 1.0759-.1345.4304-.2421.8608-.269 1.3181-.0269.4304-.0269.8608.0538 1.2912.0807.3766.2959.6994.6187.9146.1613.0807.3227.1614.4841.2152s.3228.1345.4841.1614c.3228.0538.6994.0538.9415-.1883.0807-.0807.1882-.2152.242-.3228.0269-.0538.0269-.0538 0-.1076s-.0807-.0807-.1344-.1076c-.2421-.2152-.4035-.4842-.4304-.8339s.0538-.7801.3766-.9415c.4034-.1883.8607.0269 1.2104.2152.1613-.538.4841-1.0491.9683-1.2912.5379-.269 1.1834-.2959 1.7483-.5379.1345-.0538.2959-.1345.4034-.269.0538-.0538.1076-.1076.1076-.1883.0269-.0807-.0269-.1614-.0807-.2421-.2689-.4035-1.1834-1.1836-1.6407-1.3181z" fill="#073099"/><path d="m74.5378 46.0424 5.1643-.5918c1.0221-.4842 1.9904-.807 2.8512-.9953.242 0 .6455.0807.0538.4842-.5918.4035-1.1566.8608-1.049 1.076s.6455.1345.7262.4842c.0538.2152-.8069.269-2.6091.1076l-4.196 1.3988zm-16.2192.9953h2.8512c-3.147 5.9716-4.7878 9.092-4.9223 9.3879-.2958.6456.3497 1.587.6187 2.125-.8877.3497-.807-.9146-1.9098-.4573-1.0221.4035-1.8021 1.1298-2.9856.5111-.1345-.0807-.2959-.3497.0807-.5918.9683-.5648 2.3401-1.5332 2.5284-1.856.2689-.4304 1.5062-3.47 3.7387-9.1189z" fill="#e8a16d"/><path d="m66.1727 39.3713 2.2325.1345c.5648 4.2232 3.5505 6.8863 10.3017 5.9986l.8876 5.4337c-6.294.6994-11.808-1.4526-12.9377-7.2091-.2958-1.5063-.511-3.0665-.4841-4.3577z" fill="#0a54bf"/><path d="m65.0699 38.8064 3.3891.6456c0 4.9495 1.8559 8.0967 2.8242 11.7281h-9.172c-.1345 1.2643-.2152 2.5555-.2421 3.8736h-6.8588c1.56-6.9939 4.8415-12.4276 9.8445-16.2473z" fill="#0a54bf"/><path d="m63.5636 44.1594c-.242 3.0666-.1075 5.4337.4304 7.0477h-1.8559c.2151-2.5017.6724-4.8419 1.4255-7.0477z" fill="#073099"/><path d="m42.3416 37.9453 6.6436 21.7348 3.2277 18.4799h2.5284l-3.416-40.2147z" fill="#ffcaa7"/><path d="m39.9476 37.9453c.4573 11.9434-.0806 18.0764-.1882 19.1793-.1076 1.076-1.4794 8.1236-4.7609 21.412l2.6898-.9146c5.1643-12.1855 6.9395-18.5337 7.5313-20.1208.5917-1.614 2.1787-8.0967 4.7339-19.529h-10.0059z" fill="#ffcaa7"/><path d="m35.0523 77.5682c-.1882.538-.2958.9146-.2958 1.1836 0 .3228.0538.7801.1613 1.3988h9.9521c.269-.8608.1076-1.3181-.4573-1.3988-.5648-.0807-1.0221-.1345-1.3986-.1883l-4.6264-2.0712c-.0807-.0269-.1883 0-.2421.0807l-.2958.7262c-.5111.2421-.9414.3497-1.2642.3497-.269 0-.6186-.1076-1.0759-.3228-.1614-.0269-.3766.0538-.4573.2421z" fill="#edebeb"/><path d="m51.6481 77.5682c-.1883.538-.2959.9146-.2959 1.1836 0 .3228.0538.7801.1614 1.3988h9.9521c.2689-.8608.1075-1.3181-.4573-1.3988-.5649-.0807-1.0221-.1345-1.3987-.1883l-4.6264-2.0712c-.0807-.0269-.1882 0-.242.0807l-.2959.7262c-.5111.2421-.9414.3497-1.2642.3497-.269 0-.6186-.1076-1.0759-.3228-.1614-.0269-.3766.0538-.4572.2421z" fill="#edebeb"/><path d="m41.454 37.9453 2.8242 11.0557h8.6341l-1.2911-11.0557z" fill="#c4e8f8"/><path d="m39.867 37.9453c-.9414 2.7976-1.1028 6.4828-.5379 11.0826h8.8224l2.4207-11.0826z" fill="#eef8ff"/><path d="m45.9459 12.4448c-.8069-.9684-1.3718-2.125-1.2642-3.4431.269-3.79282 5.5409-2.95894 6.563-1.04908s.9145 6.75178-.4304 7.10148c-.5379.1345-1.6407-.1883-2.7973-.8877l.7262 5.084h-4.2498z" fill="#ffcaa7"/><path d="m47.4253 12.1759c-.538 1.0222-1.2642 1.7754-1.9905 1.7754-1.3717 0-2.3669-1.8561-2.3669-3.8197 0-.0807 0-.13451 0-.2152-1.4525.9953-2.5822 2.9858-4.5188 2.9858-2.636 0-3.6581-5.29916 0-5.29916 2.5014 0 3.7118.3766 4.7877.91458.2152-.59178.538-1.07597.9145-1.42567.0807-.10759.2421-.21519.4304-.29589.1076-.0538.2421-.1076.3497-.1614.6455-.24209 1.56-.40349 2.5821-.43039h.5649c0-.96838.78-1.74846 1.7752-1.74846.9683 0 1.7753.78008 1.7753 1.77536 0 .94148-.7532 1.72157-1.6677 1.77537-.5379.16139-1.2104.29589-1.9635.32279.0807.26899.1076.59179.1076.94148 0 .32279-.0269.64559-.1076.99529-.1614-.1883-.3766-.3228-.6187-.3228-.6186 0-1.0489.5111-1.0489 1.0491 0 .6456.4034 1.1297.9952 1.1835z" fill="#073099"/><path d="m44.0092 15.9958c.0538-.1345.0807-.269.1345-.4035l.1614.0807c.0269-.0269.0538-.0538.0807-.0807l4.9491.7532c0 2.7706 2.2056 5.3799 3.6043 7.6125 2.1787 3.47 6.0519 7.3436 3.5774 12.5082-2.2325 4.6536-8.0693 5.4068-17.4834 2.2596 0-2.5017 2.0711-5.0302 2.1249-8.0698.0538-2.9052.5918-11.7013 2.8511-14.6602z" fill="#f24c64"/><path d="m50.1687 35.1482c.3228-1.6947.538-2.8514.6455-3.4163 2.636 2.9859 4.1692 4.4922 4.5726 4.5191.7801.0538 1.3449-.6186 1.5063-.4304.269.807-.4842 2.7976-1.9366 3.0666-.6994.1345-1.7484-1.2912-2.2056-1.8023-.1883-.1614-1.049-.8339-2.5822-1.9367zm4.5457-9.092c.6724 0 1.049.2689 1.4525.8607.4034.5918.78 3.2549.1344 3.2549-.6455 0-3.3621-1.0491-3.3621-1.7485s1.8559-.9953 1.8559-1.5064-.78-.8607-.0807-.8607z" fill="#ffcaa7"/><path d="m48.7701 37.7574c-.0538.1345-.0807.2959-.1345.4304-7.7465-5.4068-7.7465-11.9702-5.4333-19.3138-1.7215 7.236-1.0222 13.3421 5.5678 18.8834z" fill="#ce3a5e"/><path d="m3.99711 31.7983 9.52689 24.1046 6.3815 20.3846h2.5405l-9.7688-44.4892z" fill="#cb7a43"/><path d="m2.09181 31.7983c-.09074 8.4684-1.572695 19.8704-1.814648 20.4148-.151221.3629-5.595172 4.8391-16.301562 13.4284l1.7239 1.8449c12.64203-7.3796 19.2655-11.5533 19.84014-12.5513.87708-1.482 3.75028-15.0616 6.01856-23.167h-9.46639z" fill="#cb7a43"/><path d="m18.8773 75.3196c-.2117.5746-.3327 1.0283-.3327 1.3005 0 .3629.0605.8468.1815 1.5424h10.9483c.2722-.9376.121-1.4517-.4839-1.5122s-1.119-.1512-1.5122-.2117l-5.081-2.2683c-.0907-.0303-.2117 0-.2419.0907l-.3327.7864c-.5747.2722-1.0283.3931-1.3913.3931-.3024 0-.6956-.1209-1.1795-.3629-.2419-.0605-.4839.0302-.5746.242z" fill="#c4e8f8"/><path d="m10.4089 74.1704 11.9767-1.3005-8.8615-41.0716h-10.76694z" fill="#428edd"/><path d="m-13.5747 62.6171 7.86344 9.3152c8.2869-9.043 13.12597-14.9406 14.48696-17.7231 1.361-2.7522 2.601-10.2527 3.72-22.4411h-12.097634c-.604883 10.7366-.998057 16.3318-1.209766 16.846-.21171.5141-4.4459 5.1717-12.763 14.003z" fill="#5ea5ef"/><path d="m5.44899 8.17727c-.90732-1.05855-1.51221-2.3288-1.39123-3.78052.30244-4.143451 6.07904-3.23613 7.19814-1.14928 1.119 2.08685.998 7.40983-.4537 7.77273-.5746.1512-1.81464-.2117-3.0849-.9678l.78635 5.5952h-4.6576z" fill="#cb7a43"/><g fill="#073099"><path d="m11.407 4.88077c-.1512-.06049-.3025-.09073-.4537-.09073s-.3327.03024-.4839.09073-.3024.18146-.3932.33269c-.09069.15122-.12094.30244-.09069.4839.09069-.12097.18149-.24195.27219-.33268.0907-.09074.2117-.15122.3327-.21171.2419-.09073.5141-.15123.8166-.2722z"/><path d="m11.7094 9.38712c-.2118-.09073-.3025-.15122-.4235-.24195-.0605-.03025-.1512-.09074-.2419-.15123-.0908-.03024-.2117-.06049-.3025-.03024.121.15122.2117.2722.363.39317.0907.06049.1814.12098.3024.12098s.2117-.03024.3025-.09073z"/><path d="m11.3464 5.69736c-.0907-.12097-.2117-.15122-.3024-.15122-.0605 0-.121 0-.1512.06049-.0605.03024-.121.09073-.121.15122.0605.03024.121.06049.1512.09073.0605.03025.0907.03025.1512.03025.0605-.03025.1815-.06049.2722-.18147z"/><path d="m9.1992 3.54986c-.63513.36293-1.08879 1.0283-1.63318 1.87514-.12098-.06049-.2722-.09074-.42343-.09074-.63512 0-1.14927.51415-1.14927 1.14928 0 .33269.12098.63513.36293.84684-.2722.39317-.57464.78635-.90733 1.17952-1.30049-.78635-2.75222-3.02442-1.54245-5.20199 1.05855-4.35516 7.59133-1.66343 8.74053-2.38929.2117 1.60294-.6049 2.87319-3.4478 2.63124z"/></g><path d="m15.0969 6.45331c0-.36293.6351-.93757.8469-1.20976.5141-.60489 1.1795-1.17953 1.9658-1.36099.6049-.15122 1.8449-.2722 1.8449.60488 0 .45367-.6049.90732-.8771 1.3005-.2722.39317-.4839 1.14928-.8166 1.48196-.3326.33269-1.6029.39318-1.9658.09074" fill="#fca19a"/><path d="m5.53975 11.6251c1.99611-.2117 4.1132 1.3307 6.07905.2722.5444-.3025.9981-.7864 1.3308-1.3308.6351-1.02828.9678-2.23804 1.5727-3.32683.4536-.78635.9073-1.05855 1.8146-.96782.8468.09074 1.6937.21171 2.5405.30245.3629.03024-1.8751 8.4684-2.1473 9.285-.3025.877-.7259 1.7541-1.4517 2.3288-.8771.6956-2.0566.9375-3.1454.8165-1.2098-.0907-2.57078-.4536-3.59908-1.0585-1.42148-.8468-2.11709-2.1776-3.02442-3.5083" fill="#c4e8f8"/><path d="m13.252 4.91065c-.3024-.2722-.877-.48391-1.3005-.45367-.4839.03025-.3326.69562-.3024 1.0283.0302.48391.0907.96782.0907 1.48197 0 .21171 0 .42341-.0302.63512 0 .09074-.0907.2722-.0303.36294.2118.45366.8771.18146 1.1191-.03025.1512-.12098.1512-.15122.1814-.33269.1815-.78634.3327-1.5122.363-2.29855" fill="#0a54bf"/><path d="m12.9194 7.78408 8.0752.96781.4536-3.75027-8.2566-.09073z" fill="#1c66dd"/><path d="m20.692 9.02386.4235-4.35516 3.5083.24196-.0908.90732-.877.12097c.3629.24196.6048.63514.5746 1.11904-.0605.48391-.3629.84684-.7863 1.0283l.9073.24196-.0907.90732z" fill="#1c66dd"/><path d="m13.5545 4.91089 1.6937.03024c.998 1.02831 2.4195 1.87514 4.0527 2.44978 1.5122.51415 3.0546.69562 4.3854.57464-.0907.06049-.1815.12098-.2722.15122l.9073.24195-.0907.90732-3.5386-.24194.0303-.33269-6.6538-.78635c-.2117.33268-.5444-1.17952-.6956-.96781" fill="#0a54bf"/><path d="m21.0248 5.06201c.242.33269-.0302 1.48197-.121 1.90538-.121.5444-.2419 1.08879-.4536 1.66343.2117-.54439.1814-1.33074.1512-1.90538-.0303-.42342-.0907-1.42148-.4839-1.66343.3327.12098.6653.21171.9375 0z" fill="#0a54bf"/><path d="m15.7624 7.17926c-.2722-.42341-1.24-.66537-1.2098-1.48196.3629.03025.6956.36293 1.0586.09073.2419-.18146.5443-.66537.2722-.7561-.5142-.15122-1.6332.03024-2.3288-.06049.4536-1.08879 3.3571-1.42147 4.1434-.72586 1.0283.87708 1.0283 2.75222.5746 3.9015-.4234-.03025-.8468-.42342-1.2702-.57464-.5142-.15122-.9678-.15122-1.24-.39318z" fill="#cb7a43"/><path d="m.730897 32.7052h14.940603c-3.3873-10.3133-5.2927-15.9992-5.3532-19.8402 0-.1815-.36294-.5444-.51416-.4839-1.17952.3327-2.23807-1.1795-3.59905-1.7844-3.53857 5.6859-4.74833 12.7025-5.474193 22.1085z" fill="#c4e8f8"/><path d="m7.47545 10.5663c4.29465.0302 5.44395 10.283 8.25665-3.38734l2.6917.63512c1.724 15.90842-2.48 15.27332-7.5308 16.54352.3327 7.1074 1.2703 13.0958-3.90146 13.0958-2.44977 0-5.11125 0-7.954206 0-1.270254-8.4987 2.056606-20.2939 5.141506-26.252.12098-.2419.36293-.6653.96781-.6653.5444.0302 1.3005.0302 2.3288.0302z" fill="#7cc1ef"/><path d="m15.2784 6.06012c.8771-.84684 1.3307-2.38929 2.6312-2.75222s2.5406.09073 2.2986 1.60294c-.6049.18146-.6654-.60489-1.2098-.63513.0303.18146-.0302.51415-.2722.57464-.4234.09073-.2117-.36293-.4536-.42342-.3932-.09073-.8771.84684-1.1796.24195-.2721.03025-.5141.45367-.7863.63513-.3024.24196-.6956.39318-1.0283.75611z" fill="#cb7a43"/></svg>