<svg width="20" height="20" viewBox="0 0 20 20" fill="none" xmlns="http://www.w3.org/2000/svg">
<path d="M10.0363 10.9228C9.07995 9.98944 8.23711 9.16967 7.75892 7.27907H11.1062V5.86754H7.78187V4H6.34728V5.88973H3V7.30126H6.4157C6.4157 7.30126 6.39264 7.57451 6.34739 7.77946C5.86919 9.647 5.29961 10.8305 3.00011 11.992L3.47831 13.4035C5.66436 12.2422 6.80263 10.7846 7.30389 9.16803C7.78209 10.3977 8.60186 11.3993 9.53519 12.3105L10.0363 10.9228Z" fill="#212121"/>
<path d="M14.4544 6.3457H12.5416L9.19434 15.7501H10.6289L11.5853 12.9261H15.4109L16.3673 15.7501H17.8019L14.4544 6.3457ZM12.0633 11.5146L13.4979 7.75723L14.9325 11.5376L12.0633 11.5146Z" fill="#212121"/>
</svg>
