<svg width="21" height="21" viewBox="0 0 21 21" fill="none" xmlns="http://www.w3.org/2000/svg">
<path d="M10.5363 11.4228C9.57995 10.4894 8.73711 9.66967 8.25892 7.77907H11.6062V6.36754H8.28187V4.5H6.84728V6.38973H3.5V7.80126H6.9157C6.9157 7.80126 6.89264 8.07451 6.84739 8.27946C6.36919 10.147 5.79961 11.3305 3.50011 12.492L3.97831 13.9035C6.16436 12.7422 7.30263 11.2846 7.80389 9.66803C8.28209 10.8977 9.10186 11.8993 10.0352 12.8105L10.5363 11.4228Z" fill="white"/>
<path d="M14.9544 6.8457H13.0416L9.69434 16.2501H11.1289L12.0853 13.4261H15.9109L16.8673 16.2501H18.3019L14.9544 6.8457ZM12.5633 12.0146L13.9979 8.25723L15.4325 12.0376L12.5633 12.0146Z" fill="white"/>
</svg>
