<svg width="50" height="33" viewBox="0 0 50 33" fill="none" xmlns="http://www.w3.org/2000/svg">
<path d="M43.9083 26.8337C45.9893 25.891 46.7824 24.8223 47.2098 23.8144C47.6045 22.8467 47.7004 21.8383 46.3322 21.0941C44.8767 20.3019 42.0376 19.927 39.2557 19.5981C33.5134 18.9075 27.2225 18.308 20.3186 18.789C13.3846 19.268 5.81577 21.1642 4.7412 23.3137C3.84279 25.0731 7.34602 26.3578 9.91327 27.6662C13.6468 29.5789 17.2484 30.7432 26.1729 30.2457C31.771 29.9123 40.3071 28.4384 43.9083 26.8337Z" fill="#EFE8F4"/>
<path d="M37.79 20.3249C37.8988 19.7357 38.7687 19.224 39.2348 18.9139C39.6077 18.6658 40.0116 18.4797 40.4621 18.4487C40.5398 18.4487 41.4253 18.3867 41.3787 18.5418C41.938 16.7121 43.1342 16.9291 43.1342 16.9291C43.1342 16.9291 43.911 14.1226 45.449 14.1536C46.987 14.1846 46.35 17.7665 46.35 17.7665C47.8103 18.0921 48.1366 20.3559 48.1366 20.3559C48.1366 20.3559 48.1521 20.6661 48.0123 20.7436C47.8725 20.8056 46.4743 21.3793 45.5422 21.2863C44.5945 21.1933 44.3926 20.9452 44.3926 20.9452C44.3926 20.9452 43.7401 21.3018 43.3828 21.2553C43.0254 21.2088 42.5438 20.9142 42.5438 20.9142C42.5438 20.9142 41.7826 21.4724 40.7573 21.3018C39.7475 21.1157 39.1571 20.6971 39.1571 20.6971C39.1105 20.6661 38.9086 20.7591 38.8464 20.7746C38.5668 20.8366 38.1007 20.8211 37.8832 20.604C37.8056 20.5265 37.7745 20.4335 37.79 20.3249Z" fill="#A396C4"/>
<path d="M45.3711 15.5332L44.3613 20.8672" stroke="#897AB4" stroke-miterlimit="10"/>
<path d="M44.0352 15.0371L44.7498 18.8516" stroke="#897AB4" stroke-miterlimit="10"/>
<path d="M46.9093 18.0459L44.5635 19.8446" stroke="#897AB4" stroke-miterlimit="10"/>
<path d="M42.3105 17.1465L42.528 20.9299" stroke="#897AB4" stroke-miterlimit="10"/>
<path d="M39.5918 18.6816L40.2132 21.1781" stroke="#897AB4" stroke-miterlimit="10"/>
<path d="M43.7906 22.3134C43.7751 21.3365 44.0858 19.9565 44.9713 21.1814C44.9557 20.7008 45.282 19.4138 45.9655 19.5843C46.1986 19.6464 46.4937 20.2511 46.5404 20.3751C46.4782 19.4293 47.4259 18.0027 48.5133 18.623C49.3678 19.1036 49.1658 20.6387 49.1658 21.4761C49.1658 21.1039 49.5076 20.9489 49.7717 21.1814C49.9271 21.321 50.0358 22.2048 49.9892 22.3909C49.896 22.9956 49.2746 23.1352 48.6998 22.9336C48.5133 23.8795 46.7889 23.2282 46.4937 22.6855C46.3695 23.0577 45.8413 23.0887 45.6393 22.763C45.6393 23.1507 44.7849 23.2747 44.4431 23.1662C44.0858 23.0422 43.977 22.701 43.7906 22.3134Z" fill="#D6CDE4"/>
<path d="M48.0246 19.0874L47.3096 22.7871L47.3706 22.7989L48.0856 19.0991L48.0246 19.0874Z" fill="#BCB1D4"/>
<path d="M48.5509 20.0849L47.7129 20.8008L47.7533 20.8479L48.5913 20.132L48.5509 20.0849Z" fill="#BCB1D4"/>
<path d="M47.5653 21.5535L47.0371 20.6697L47.0837 20.6387L47.6119 21.5225L47.5653 21.5535Z" fill="#BCB1D4"/>
<path d="M44.4979 21.3968L44.4395 21.418L44.9172 22.7295L44.9756 22.7083L44.4979 21.3968Z" fill="#BCB1D4"/>
<path d="M44.1294 21.8173L44.1123 21.877L44.665 22.0346L44.6821 21.975L44.1294 21.8173Z" fill="#BCB1D4"/>
<path d="M13.7721 8.74763C14.0348 7.30587 13.9297 6.33595 12.7741 5.26118C12.065 4.60584 11.0932 4.65826 10.3841 5.2874C10.3316 3.76699 9.12346 2.11551 7.46884 2.24658C6.10313 2.37765 5.55159 3.95049 5.34148 5.1039C4.23841 4.65826 3.52929 5.05147 3.34544 6.20488C1.40193 5.70682 -0.357741 7.51558 0.0624785 9.45541C0.272588 10.3991 1.0605 10.9758 2.00599 11.0282C2.74138 11.0807 2.7939 10.9234 3.29291 10.5564C3.0828 11.5525 6.20819 11.6836 6.7072 10.7923C7.81027 11.3428 8.91335 12.103 10.2265 11.7622C10.673 11.6574 11.0407 11.3952 11.3821 11.1069C11.4609 11.0282 12.3014 10.1894 12.3276 10.2156C12.8529 10.4515 13.3519 10.4777 13.7984 10.0583C14.1924 9.69133 14.2449 9.11463 13.7721 8.74763Z" fill="#D6CDE4"/>
<path d="M4.89568 9.5597L2.32183 9.19271L4.73809 9.37621L2.82084 7.33152L5.36842 9.84806L5.49974 8.17037V10.0053L7.70589 12.1811L7.81095 6.23054L6.73414 4.89363L7.81095 6.09947L7.83721 4.23828L7.86348 10.1888L11.0151 7.59366L10.1222 8.38008L11.3828 9.08785L10.0696 8.43251L7.86348 10.4248V22.4307L7.52205 22.4569L7.70589 12.5481L4.89568 9.5597Z" fill="#705FA4"/>
<path d="M12.9794 21.2099C13.0193 19.5582 12.4809 17.1901 10.9258 19.2597C10.9457 18.4438 10.3875 16.2348 9.21112 16.5135C8.79242 16.613 8.31391 17.6677 8.21422 17.8468C8.31391 16.2348 6.67899 13.7871 4.80482 14.8617C3.32941 15.6975 3.66836 18.3244 3.66836 19.7373C3.64842 19.1005 3.07022 18.8418 2.63158 19.2398C2.37239 19.4786 2.19294 20.9711 2.25276 21.3094C2.4322 22.3442 3.50885 22.5631 4.48581 22.2447C4.80482 23.8765 7.79552 22.7621 8.31391 21.8268C8.53323 22.4636 9.43044 22.5034 9.78932 21.9661C9.76938 22.6427 11.2647 22.8616 11.8629 22.6427C12.4411 22.4238 12.6405 21.8666 12.9794 21.2099Z" fill="#A396C4"/>
<path d="M6.79906 22.0259L6.89875 22.006L5.64266 15.6777L5.54297 15.6976L6.79906 22.0259Z" fill="#3D2884"/>
<path d="M6.12108 18.6826L6.20083 18.603L4.74536 17.3691L4.68555 17.4487L6.12108 18.6826Z" fill="#3D2884"/>
<path d="M6.46004 19.877L7.35725 18.3845L7.25756 18.3447L6.36035 19.8372L6.46004 19.877Z" fill="#3D2884"/>
<path d="M9.37117 21.2103L9.59049 17.9467L9.47086 17.9268L9.27148 21.1904L9.37117 21.2103Z" fill="#3D2884"/>
<path d="M9.4104 20.2151L10.2279 19.6181L10.168 19.5186L9.35059 20.1355L9.4104 20.2151Z" fill="#3D2884"/>
<path d="M9.43033 19.0611L9.51009 19.0213L8.97176 17.9268L8.87207 17.9666L9.43033 19.0611Z" fill="#3D2884"/>
<path d="M11.0255 21.9067L11.8629 19.658L11.7632 19.6182L10.9258 21.8669L11.0255 21.9067Z" fill="#3D2884"/>
<path d="M11.4442 20.7131L12.4012 20.4345L12.3813 20.335L11.4043 20.6136L11.4442 20.7131Z" fill="#3D2884"/>
<path d="M38.125 12.3029L37.0458 11.3212C36.4797 11.162 36.2143 11.0559 36.2674 10.9763C36.3382 10.8613 36.4885 10.9586 36.5504 10.8878C36.6124 10.8171 36.4974 10.596 36.3735 10.3748C36.2497 10.1537 36.3824 10.1891 36.4531 10.2068C36.692 10.3748 36.9397 10.596 37.1873 10.8878L38.6734 11.7015L38.125 12.3029Z" fill="#CB7A43"/>
<path d="M39.3454 11.5066C38.8235 11.4977 38.1247 11.3916 37.3905 10.9229L37.0986 11.5685C37.6117 12.0815 38.3282 12.4972 38.9562 12.4795C39.4516 12.4618 39.6993 11.8604 39.3454 11.5066Z" fill="#F97319"/>
<path d="M14.9492 13.8331L16.4265 14.0985C16.7184 14.2754 16.9837 14.3992 17.2403 14.4699C17.311 14.4788 17.426 14.4522 17.258 14.3107C17.0899 14.1604 16.9307 14.01 16.966 13.9393C17.0014 13.8685 17.1518 13.9039 17.1783 13.7889C17.196 13.7093 16.9483 13.6916 16.4265 13.7182L15.2323 13.1875L14.9492 13.8331Z" fill="#CB7A43"/>
<path d="M12.6226 10.5693C13.4895 11.7633 14.6218 12.6035 16.2052 13.4261L15.7452 14.1159C14.0557 13.7445 13.1445 13.4968 12.5696 12.3471C12.4192 12.0552 12.2158 11.0912 12.0742 10.5959L12.6226 10.5693Z" fill="#910940"/>
<ellipse cx="25.9371" cy="11.3547" rx="11.3678" ry="11.3547" fill="#FFD5D0"/>
<path d="M26.3955 13.1045C26.3818 12.9682 26.3818 12.9136 26.3818 12.8455C26.3818 12.3136 26.5591 11.8227 26.9818 11.5364L27.6091 11.1136C28.4 10.5818 29 9.83182 29 8.74091C29 7.35 27.9227 6 26.0136 6C23.9136 6 23 7.54091 23 8.79545C23 9.04091 23.0273 9.25909 23.0818 9.45L24.4045 9.61364C24.35 9.46364 24.3091 9.17727 24.3091 8.94545C24.3091 8.08636 24.8273 7.2 26.0136 7.2C27.1045 7.2 27.6364 7.95 27.6364 8.75455C27.6364 9.28636 27.3773 9.77727 26.9136 10.0909L26.3136 10.5C25.5091 11.0455 25.1818 11.7273 25.1818 12.6273C25.1818 12.8045 25.1818 12.9409 25.1955 13.1045H26.3955ZM24.8955 15.0545C24.8955 15.5455 25.2909 15.9409 25.7818 15.9409C26.2727 15.9409 26.6818 15.5455 26.6818 15.0545C26.6818 14.5636 26.2727 14.1545 25.7818 14.1545C25.2909 14.1545 24.8955 14.5636 24.8955 15.0545Z" fill="#EC7D66"/>
<path d="M40.1827 15.1328L38.6347 20.5721L37.5024 24.5786H36.6709L37.8739 15.1328H40.1827Z" fill="#CD5605"/>
<path d="M40.5976 15.1328C40.633 17.9365 40.7568 19.4666 40.7922 19.7319C40.8364 19.9884 41.3937 21.6069 42.4994 24.5963H41.6414C40.2438 21.7307 39.4565 20.1034 39.2884 19.7319C39.1204 19.3516 38.625 17.8215 37.8643 15.1328H40.5976Z" fill="#EA6206"/>
<path d="M42.588 25.3484L42.5438 24.4463H41.6415C41.2169 24.747 40.6596 24.9946 39.9785 25.1715V25.3484H41.6061L42.1634 25.26V25.3484H42.588Z" fill="#F97319"/>
<path d="M37.6173 25.3484L37.5731 24.4463H36.6708C36.2462 24.747 35.6889 24.9946 35.0078 25.1715V25.3484H36.6354L37.1927 25.26V25.3484H37.6173Z" fill="#F97319"/>
<path d="M39.1473 8.95065C39.3419 8.7207 39.4746 8.42883 39.4569 8.11928C39.395 7.19946 38.1212 7.40288 37.8647 7.87163C37.617 8.34039 37.6524 9.50784 37.9708 9.58744C38.1035 9.62282 38.3689 9.53438 38.6431 9.37518L38.4662 10.6045H39.4923L39.1473 8.95065Z" fill="#7A380C"/>
<path d="M38.5902 8.21669C38.5459 8.76504 38.4398 9.03922 38.2806 9.03922C38.0329 9.03922 37.8118 8.87117 37.7056 8.87117C37.626 8.87117 37.6437 8.97731 37.6968 9.04806C37.741 9.10997 37.9533 9.17188 37.9533 9.26033C37.9533 9.34877 37.7764 9.28686 37.7764 9.33992C37.7764 9.43721 37.7498 9.60526 37.909 9.60526C38.0771 9.60526 38.5459 9.54335 38.6344 9.30455C38.6875 9.14535 38.7229 8.81811 38.7405 8.32282C38.7494 8.32282 38.7582 8.32282 38.7759 8.32282C38.9175 8.32282 39.0325 8.4378 39.0325 8.57931C39.0325 8.65006 39.0059 8.72082 38.9528 8.76504C39.0148 8.85348 39.0855 8.94193 39.1474 9.02153C39.4305 8.84464 39.7182 8.32291 39.4263 7.83647C39.3466 7.60652 39.1121 7.50029 38.8998 7.43838C38.7317 7.36763 38.5548 7.35879 38.4044 7.40301C38.1214 7.42954 37.856 7.51798 37.7852 7.57105C37.7852 7.84522 37.8383 7.92483 38.2894 7.91598C38.4221 7.98674 38.5106 8.09287 38.5902 8.21669Z" fill="#FCAF7B"/>
<path d="M35.2463 12.9575C34.9632 12.754 34.6978 12.6214 34.459 12.5506C33.9902 12.418 33.8133 12.3295 33.5744 12.0288C33.4506 11.8696 33.3533 11.5601 33.4594 11.4628C33.5391 11.392 33.9902 11.7281 34.1759 11.7635C34.3617 11.7989 34.1936 11.3566 34.2909 11.4097C34.4236 11.4097 34.5209 11.5954 34.6182 11.9404L35.2728 12.2941L35.2463 12.9575Z" fill="#7A380C"/>
<path d="M37.6349 12.4797C37.0776 12.6212 36.1576 12.4532 34.8573 11.9933C34.5389 12.6566 34.3796 13.1342 34.4062 13.4172C35.5207 13.9921 36.4761 14.2663 37.2633 14.2751C37.2368 14.7439 37.2987 15.1949 37.4845 15.5929C37.8737 16.4331 40.1824 15.6548 40.952 15.8052C41.4385 14.2309 40.5009 13.5941 40.5009 12.5858C40.5009 11.4803 39.6075 9.79102 39.4836 9.79102H38.2983C38.2275 10.6401 37.9002 11.5599 37.6349 12.4797Z" fill="#FA873A"/>
<path d="M11.417 9.63151C11.2313 9.41924 11.1074 9.14507 11.134 8.8532C11.1959 7.9953 12.3901 8.18988 12.62 8.62325C12.85 9.05663 12.8235 10.1533 12.5227 10.2329C12.3989 10.2683 12.1512 10.1887 11.8947 10.0384L12.0628 11.1881H11.1074L11.417 9.63151Z" fill="#CB7A43"/>
<path d="M12.0624 8.11918C11.9297 8.10149 11.5935 8.0838 11.5316 8.0838C11.4874 8.0838 11.4432 8.09265 11.4255 8.05727C11.4078 8.03074 11.4166 7.97767 11.4078 7.94229C11.3989 7.89807 11.3901 7.86269 11.3812 7.81847C11.3547 7.70349 11.3105 7.59736 11.2486 7.49123C11.1336 7.3055 10.9832 7.15514 10.7709 7.05785C10.5497 6.96057 10.2932 6.93404 10.0544 6.96057C9.79786 6.97826 9.55903 7.0667 9.32019 7.1463C9.0902 7.2259 8.84252 7.25243 8.60369 7.21705C8.36486 7.18167 8.17025 7.04017 7.97564 6.92519C7.77219 6.79252 7.52451 6.71293 7.27683 6.73946C7.04684 6.75715 6.8257 6.85443 6.63994 6.97825C6.45418 7.10207 6.31264 7.24359 6.22419 7.44701C6.13573 7.65927 6.13573 7.90691 6.28611 8.10149C6.49841 8.37567 6.89646 8.45527 7.2326 8.44642C7.41836 8.44642 7.61297 8.4022 7.78988 8.34029C8.02872 8.25185 8.24101 8.11033 8.46216 7.99536C8.5683 7.94229 8.67445 7.88922 8.78945 7.86269C8.90444 7.82731 9.01059 7.81847 9.10789 7.88038C9.21404 7.95114 9.3025 8.02189 9.43519 8.06612C9.55903 8.11034 9.67402 8.13687 9.79786 8.13687C10.0367 8.13687 10.2844 8.05727 10.5144 8.0042C10.7001 7.95998 10.9124 7.91576 11.107 7.95998C11.1866 7.97767 11.3016 8.01305 11.337 8.10149C10.8328 8.18993 10.6471 8.80904 10.7797 9.26011C10.8593 9.49891 11.3193 9.79077 11.4874 9.65811C11.6024 9.57851 11.5316 9.47237 11.4874 9.40162C11.3989 9.26011 11.3724 9.09207 11.5316 8.99478C11.6732 8.91518 11.8058 9.10975 11.8058 9.10975C11.8412 9.10975 12.1597 8.92402 12.3808 8.65869C12.5931 8.66753 12.6285 8.52602 12.5754 8.41104C12.5666 8.30491 12.2393 8.14571 12.0624 8.11918Z" fill="#7A380C"/>
<path d="M10.6475 14.6465C10.7182 15.6282 15.3711 18.5292 15.3976 18.6088C15.4065 18.6441 14.9288 19.7939 13.9469 22.0404L14.3538 22.1996C15.8487 19.8116 16.5653 18.5026 16.4856 18.2461C16.3706 17.8835 15.1765 16.6807 12.8766 14.6642L10.6475 14.6465Z" fill="#CB7A43"/>
<path d="M14.0524 21.5274L14.7159 21.7662C16.1135 20.1831 16.6619 18.8829 16.5646 18.2285C16.4938 17.7862 15.2997 16.5922 12.9732 14.6465H10.5938C10.6734 16.9283 14.9812 18.6176 15.0431 18.7149C15.1051 18.8122 14.5301 19.7674 14.0524 21.5274Z" fill="#DE6B8A"/>
<path d="M13.8052 21.9604C13.7256 22.0577 13.6726 22.1284 13.646 22.1903C13.6195 22.2522 13.5929 22.3672 13.5664 22.4999C13.646 22.5264 14.3537 22.7829 15.6894 23.2693C15.8132 23.1101 15.8132 22.9952 15.6982 22.9421C15.5832 22.889 15.4859 22.836 15.424 22.7917L14.6014 21.9958C14.5837 21.9781 14.5571 21.9781 14.5483 21.9958L14.4244 22.1284C14.2918 22.1373 14.1945 22.1284 14.1325 22.1019C14.0795 22.0842 14.0087 22.0311 13.9202 21.9515C13.876 21.925 13.8318 21.925 13.8052 21.9604Z" fill="#910940"/>
<path d="M11.1865 14.6465L9.10776 19.617L7.07324 23.8181H7.55976L12.8141 14.6465H11.1865Z" fill="#CB7A43"/>
<path d="M7.04733 23.6319C7.0031 23.7557 6.97656 23.8353 6.97656 23.8972C6.97656 23.968 6.98541 24.083 7.01195 24.2156C7.1004 24.2156 7.85229 24.2156 9.26761 24.2156C9.32953 24.0299 9.29414 23.9149 9.16146 23.9061C9.02877 23.8884 8.93147 23.8796 8.85186 23.8619L7.80806 23.3931C7.79037 23.3843 7.76383 23.3931 7.75499 23.4108L7.68422 23.5788C7.56038 23.6319 7.47192 23.6584 7.40116 23.6584C7.33924 23.6584 7.25963 23.6319 7.15348 23.5877C7.11809 23.57 7.06502 23.5877 7.04733 23.6319C7.04733 23.6319 7.04733 23.6231 7.04733 23.6319Z" fill="#910940"/>
<path d="M7.25879 22.9426L8.32912 23.1371C9.16062 21.9255 12.6016 16.9549 12.982 14.6377H10.6025C9.34638 16.3181 8.04606 21.7132 7.25879 22.9426Z" fill="#E78CA2"/>
<path d="M14.3711 10.4279L15.8926 9.96799C16.1756 9.74689 16.4498 9.58769 16.6975 9.48155C16.7683 9.46387 16.7683 9.56115 16.6179 9.7292C16.4675 9.90608 17.3875 9.64075 17.4317 9.71151C17.4759 9.78226 17.0248 10.1007 16.8833 10.1626C16.7241 10.2156 16.4852 10.3395 15.9456 10.366L14.7603 11.0559L14.3711 10.4279Z" fill="#CB7A43"/>
<path d="M10.3115 14.9026H13.3987C12.6999 12.7799 12.346 11.3118 12.3283 10.5246C12.3283 10.4804 12.2487 10.4096 12.2134 10.4185C11.9745 10.4892 11.7091 10.4627 11.4349 10.3389C10.7096 11.5063 10.4619 12.9568 10.3115 14.9026Z" fill="#F7CDD4"/>
<path d="M11.7003 10.3392C12.5849 10.348 14.0179 10.5161 15.672 9.97656L15.8401 10.7902C14.584 11.5951 13.3279 12.2142 12.2222 12.1257C12.7087 14.1865 12.6822 15.8846 11.6207 15.8846C11.1076 15.8846 10.5681 15.8846 9.97539 15.8846C9.71886 14.1334 10.4 11.6924 11.0369 10.4718C11.0634 10.4276 11.1165 10.3303 11.2315 10.3303C11.3288 10.3392 11.488 10.3392 11.7003 10.3392Z" fill="#B50437"/>
</svg>
