<svg width="254" height="180" viewBox="0 0 254 180" fill="none" xmlns="http://www.w3.org/2000/svg">
<path d="M238.284 84.1791C236.661 68.6901 230.848 62.2251 230.848 62.2251C230.848 62.2251 231.253 47.1402 226.116 40.6753C226.116 40.6753 224.764 8.75462 210.838 0C196.912 8.75462 195.56 40.6753 195.56 40.6753C190.422 47.1402 190.828 62.2251 190.828 62.2251C190.828 62.2251 185.014 68.6901 183.392 84.1791C181.77 99.668 199.346 99.9373 210.838 99.9373C222.33 99.9373 239.906 99.668 238.284 84.1791Z" fill="#149193"/>
<path d="M210.838 25.8594V118.389" stroke="#6B3E00" stroke-width="0.200871" stroke-miterlimit="10"/>
<path d="M214.759 31.3818L210.838 41.0793" stroke="#6B3E00" stroke-width="0.200871" stroke-miterlimit="10"/>
<path d="M202.861 42.0225L210.838 62.2255" stroke="#6B3E00" stroke-width="0.200871" stroke-miterlimit="10"/>
<path d="M226.386 65.9961L210.838 87.546" stroke="#6B3E00" stroke-width="0.200871" stroke-miterlimit="10"/>
<path d="M253.779 113.565C252.156 104.137 248.37 98.0759 248.37 98.0759C248.37 98.0759 255.671 89.3212 238.366 70.8691C221.06 89.4559 228.361 98.0759 228.361 98.0759C228.361 98.0759 224.575 104.137 222.952 113.565C221.33 122.993 230.253 126.899 238.366 126.899C246.478 126.899 255.536 122.993 253.779 113.565Z" fill="#26A8A5"/>
<path d="M238.501 84.6074V148.045" stroke="#6B3E00" stroke-width="0.200871" stroke-miterlimit="10"/>
<path d="M107.181 74.3292C102.283 69.602 99.166 63.2498 98.4239 56.4544C97.8303 50.8409 95.604 44.4887 89.8157 41.6819C84.9178 39.3183 81.0589 35.1821 79.7231 30.0117C76.6063 18.6368 69.9275 1.64844 58.6477 1.64844C47.3679 1.64844 40.689 18.6368 37.5722 30.0117C36.088 35.1821 32.2291 39.3183 27.4797 41.6819C21.6913 44.4887 19.6135 50.6931 18.8714 56.4544C18.1293 63.2498 15.0125 69.602 10.1147 74.3292C-3.68827 87.4767 -3.24302 106.681 10.7084 106.681C27.3313 106.681 33.7133 106.681 58.4992 106.681C83.2852 106.681 89.6672 106.681 106.29 106.681C120.687 106.681 120.984 87.4767 107.181 74.3292Z" fill="#117F3A"/>
<path d="M58.6475 22.1826V138.442" stroke="#6B3E00" stroke-width="0.200871" stroke-miterlimit="10"/>
<path d="M80.9104 46.1133L58.6475 85.9991" stroke="#6B3E00" stroke-width="0.200871" stroke-miterlimit="10"/>
<path d="M27.9248 57.4883L58.6475 101.067" stroke="#6B3E00" stroke-width="0.200871" stroke-miterlimit="10"/>
<path d="M91.0497 122.622C88.5933 123.537 86.5015 124.644 84.7744 125.943C73.1031 134.803 63.9991 145.912 55.8974 155.621C51.4627 160.975 48.9671 166.978 52.6696 172.373C53.7193 173.939 55.3099 175.412 57.7993 176.559C61.8676 178.445 67.8451 179.113 73.5748 179.361C98.6048 180.462 123.351 175.125 148.538 174.726C165.891 174.423 184.545 176.36 199.789 172.275C215.813 168.008 221.97 157.314 213.173 149.936C208.408 145.942 200.407 143.101 192.588 140.371C175.133 134.289 157.588 126.372 138.464 121.475C124.485 117.91 103.63 117.845 91.0497 122.622Z" fill="#F7CDD4"/>
<path d="M155.56 145.785H121.855L124.069 131.089H153.345L155.56 145.785Z" fill="#EF9887"/>
<path d="M160.232 147.254H116.934V149.703H160.232V147.254Z" fill="#EF9887"/>
<path d="M116.934 147.253L121.855 145.784H155.559L160.232 147.253H116.934Z" fill="#E96246"/>
<path d="M75.3574 119.576V128.149C75.3574 129.765 76.6864 131.088 78.3102 131.088H199.105C200.728 131.088 202.057 129.765 202.057 128.149V119.576H75.3574Z" fill="#E96246"/>
<path d="M202.056 119.577V46.3393C202.056 44.7226 200.727 43.3994 199.103 43.3994H78.3102C76.6864 43.3994 75.3574 44.7226 75.3574 46.3393V119.577H202.056Z" fill="#EF9887"/>
<path d="M198.106 47.1963H79.1709V115.167H198.106V47.1963Z" fill="#F9E8E8"/>
<path d="M138.215 127.108C139.336 127.108 140.244 126.204 140.244 125.088C140.244 123.972 139.336 123.067 138.215 123.067C137.094 123.067 136.186 123.972 136.186 125.088C136.186 126.204 137.094 127.108 138.215 127.108Z" fill="#EF9887"/>
<path d="M130.702 76.6369C130.702 84.297 124.462 90.5078 116.762 90.5078C109.063 90.5078 102.823 84.297 102.823 76.6369C102.823 68.9768 109.063 62.7659 116.762 62.7659C124.462 62.7659 130.702 68.9768 130.702 76.6369Z" fill="white" stroke="#E22D05" stroke-width="0.276035"/>
<path d="M143.676 99.8473C143.676 102.577 141.452 104.791 138.707 104.791C135.962 104.791 133.739 102.577 133.739 99.8473C133.739 97.1176 135.962 94.9036 138.707 94.9036C141.452 94.9036 143.676 97.1176 143.676 99.8473Z" fill="#E96246" stroke="#E22D05" stroke-width="0.276035"/>
<path d="M172.107 76.6369C172.107 84.297 165.867 90.5078 158.168 90.5078C150.468 90.5078 144.228 84.297 144.228 76.6369C144.228 68.9768 150.468 62.7659 158.168 62.7659C165.867 62.7659 172.107 68.9768 172.107 76.6369Z" fill="white" stroke="#E22D05" stroke-width="0.276035"/>
<path d="M119.109 76.4992C119.109 75.2865 118.121 74.3023 116.901 74.3023C115.681 74.3023 114.693 75.2865 114.693 76.4992C114.693 77.7118 115.681 78.696 116.901 78.696C118.121 78.696 119.109 77.7118 119.109 76.4992Z" fill="#E96246" stroke="#E22D05" stroke-width="0.276035"/>
<path d="M160.791 76.4992C160.791 75.2938 159.748 74.3023 158.444 74.3023C157.14 74.3023 156.098 75.2938 156.098 76.4992C156.098 77.7045 157.14 78.696 158.444 78.696C159.748 78.696 160.791 77.7045 160.791 76.4992Z" fill="#E96246" stroke="#E22D05" stroke-width="0.276035"/>
<path d="M146.851 54.1123C150.099 57.2216 159.284 61.5745 170.038 54.1123" stroke="#E22D05" stroke-width="2.20828"/>
<path d="M128.633 58.2324C125.384 55.1232 116.199 50.7702 105.446 58.2324" stroke="#E22D05" stroke-width="2.20828"/>
<path d="M76.5998 67.9844C67.1686 73.707 48.113 86.196 47.3401 90.3712C46.3739 95.5903 76.5998 107.127 76.5998 108.363C76.5998 109.599 74.9436 118.114 68.7328 119.076" stroke="#E22D05" stroke-width="2.20828"/>
<path d="M66.6621 115.093C69.1924 114.452 74.6119 112.209 76.0473 108.363" stroke="#E22D05" stroke-width="2.20828"/>
<path d="M65.9727 111.11C68.0889 111.522 73.0668 111.576 76.0479 108.5" stroke="#E22D05" stroke-width="2.20828"/>
<path d="M201.23 74.0272C206.981 66.6565 218.896 49.1407 220.552 38.0434C222.209 26.9461 194.743 33.4195 180.803 38.0434C177.767 37.5856 171.28 37.9336 169.624 42.9878" stroke="#E22D05" stroke-width="2.20828"/>
<path d="M177.077 43.2623C177.629 41.7057 179.147 38.4278 180.804 37.7686" stroke="#E22D05" stroke-width="2.20828"/>
<path d="M181.08 43.3996C180.344 42.484 179.313 40.0759 181.08 37.7686" stroke="#E22D05" stroke-width="2.20828"/>
<path d="M35.3652 164.262H104.331C104.331 164.262 102.209 149.19 92.4476 147.078C92.4476 147.078 96.6916 123.273 86.4352 123.061C76.1787 122.85 71.0152 141.443 71.0152 141.443C71.0152 141.443 63.093 140.035 59.3441 152.149C59.4148 152.149 48.734 146.092 35.3652 164.262Z" fill="#3DBFB7"/>
<path d="M86.1529 132.146L79.999 164.262" stroke="#092242" stroke-width="0.200871" stroke-miterlimit="10"/>
<path d="M77.1699 128.767L81.9091 154.121" stroke="#092242" stroke-width="0.200871" stroke-miterlimit="10"/>
<path d="M96.3387 148.768L80.6357 160.67" stroke="#092242" stroke-width="0.200871" stroke-miterlimit="10"/>
<path d="M65.6396 142.781L66.7007 164.262" stroke="#092242" stroke-width="0.200871" stroke-miterlimit="10"/>
<path d="M47.6025 153.064L50.2904 164.263" stroke="#092242" stroke-width="0.200871" stroke-miterlimit="10"/>
</svg>
