<svg width="246" height="174" viewBox="0 0 246 174" fill="none" xmlns="http://www.w3.org/2000/svg">
<path d="M230.779 81.3731C229.207 66.4004 223.577 60.1509 223.577 60.1509C223.577 60.1509 223.97 45.5689 218.994 39.3194C218.994 39.3194 217.684 8.4628 204.197 0C190.71 8.4628 189.401 39.3194 189.401 39.3194C184.425 45.5689 184.818 60.1509 184.818 60.1509C184.818 60.1509 179.187 66.4004 177.616 81.3731C176.044 96.3457 193.067 96.6061 204.197 96.6061C215.327 96.6061 232.35 96.3457 230.779 81.3731Z" fill="#CE3A5E"/>
<path d="M204.197 24.9971V114.443" stroke="#5A483C" stroke-width="0.540119" stroke-miterlimit="10"/>
<path d="M207.995 30.3359L204.197 39.7101" stroke="#5A483C" stroke-width="0.540119" stroke-miterlimit="10"/>
<path d="M196.472 40.6211L204.197 60.1507" stroke="#5A483C" stroke-width="0.540119" stroke-miterlimit="10"/>
<path d="M219.256 63.7959L204.197 84.6275" stroke="#5A483C" stroke-width="0.540119" stroke-miterlimit="10"/>
<path d="M245.785 109.779C244.214 100.666 240.548 94.8067 240.548 94.8067C240.548 94.8067 247.619 86.3438 230.858 68.5068C214.097 86.474 221.168 94.8067 221.168 94.8067C221.168 94.8067 217.502 100.666 215.93 109.779C214.359 118.893 223.001 122.669 230.858 122.669C238.715 122.669 247.488 118.893 245.785 109.779Z" fill="#F24C64"/>
<path d="M230.989 81.7871V143.11" stroke="#5A483C" stroke-width="0.540119" stroke-miterlimit="10"/>
<path d="M103.805 71.8508C99.0613 67.2812 96.0427 61.1407 95.324 54.5719C94.749 49.1454 92.5928 43.005 86.9868 40.2918C82.2433 38.007 78.5058 34.0086 77.2121 29.0106C74.1935 18.0149 67.7251 1.59277 56.8005 1.59277C45.8759 1.59277 39.4074 18.0149 36.3888 29.0106C34.9514 34.0086 31.214 38.007 26.6142 40.2918C21.0081 43.005 18.9957 49.0026 18.277 54.5719C17.5583 61.1407 14.5397 67.2812 9.79611 71.8508C-3.5721 84.5601 -3.14088 103.124 10.3711 103.124C26.4704 103.124 32.6514 103.124 56.6567 103.124C80.662 103.124 86.843 103.124 102.942 103.124C116.886 103.124 117.173 84.5601 103.805 71.8508Z" fill="#CE2951"/>
<path d="M56.8003 21.4424V133.827" stroke="#1174BA" stroke-width="0.540119" stroke-miterlimit="10"/>
<path d="M78.362 44.5752L56.8003 83.1315" stroke="#1174BA" stroke-width="0.540119" stroke-miterlimit="10"/>
<path d="M27.0449 55.5713L56.8 97.6975" stroke="#1174BA" stroke-width="0.540119" stroke-miterlimit="10"/>
<path d="M88.1821 118.534C85.8031 119.419 83.7772 120.489 82.1045 121.745C70.8008 130.31 61.9835 141.048 54.1369 150.433C49.842 155.609 47.4249 161.412 51.0109 166.627C52.0275 168.141 53.568 169.564 55.979 170.674C59.9192 172.496 65.7084 173.142 71.2576 173.382C95.4993 174.447 119.466 169.287 143.86 168.902C160.666 168.609 178.733 170.481 193.496 166.532C209.016 162.408 214.979 152.07 206.459 144.938C201.844 141.077 194.095 138.331 186.523 135.692C169.617 129.813 152.625 122.159 134.103 117.426C120.564 113.979 100.366 113.916 88.1821 118.534Z" fill="#F7CDD4"/>
<path d="M150.66 140.926H118.017L120.161 126.72H148.515L150.66 140.926Z" fill="#5EA5EF"/>
<path d="M155.186 142.346H113.251V144.713H155.186V142.346Z" fill="#5EA5EF"/>
<path d="M113.251 142.346L118.017 140.926H150.66L155.186 142.346H113.251Z" fill="#1C66DD"/>
<path d="M72.9839 115.591V123.877C72.9839 125.44 74.271 126.719 75.8437 126.719H192.834C194.406 126.719 195.693 125.44 195.693 123.877V115.591H72.9839Z" fill="#1C66DD"/>
<path d="M195.692 115.591V44.795C195.692 43.2322 194.404 41.9531 192.832 41.9531H75.8437C74.271 41.9531 72.9839 43.2322 72.9839 44.795V115.591H195.692Z" fill="#5EA5EF"/>
<path d="M191.867 45.624H76.6777V111.329H191.867V45.624Z" fill="#EEF8FF"/>
<path d="M133.861 122.872C134.947 122.872 135.827 121.997 135.827 120.919C135.827 119.84 134.947 118.966 133.861 118.966C132.776 118.966 131.896 119.84 131.896 120.919C131.896 121.997 132.776 122.872 133.861 122.872Z" fill="#5EA5EF"/>
<path d="M126.348 74.083C126.348 81.3547 120.412 87.2539 113.085 87.2539C105.757 87.2539 99.8213 81.3547 99.8213 74.083C99.8213 66.8113 105.757 60.9121 113.085 60.9121C120.412 60.9121 126.348 66.8113 126.348 74.083Z" fill="white" stroke="#073099" stroke-width="0.742228"/>
<path d="M138.914 96.5197C138.914 99.0254 136.868 101.061 134.339 101.061C131.81 101.061 129.764 99.0254 129.764 96.5197C129.764 94.0141 131.81 91.9785 134.339 91.9785C136.868 91.9785 138.914 94.0141 138.914 96.5197Z" fill="#F24C64" stroke="#073099" stroke-width="0.742228"/>
<path d="M166.449 74.083C166.449 81.3547 160.514 87.2539 153.186 87.2539C145.859 87.2539 139.923 81.3547 139.923 74.083C139.923 66.8113 145.859 60.9121 153.186 60.9121C160.514 60.9121 166.449 66.8113 166.449 74.083Z" fill="white" stroke="#073099" stroke-width="0.742228"/>
<ellipse rx="2.2724" ry="2.257" transform="matrix(1 0 0 -1 113.219 73.95)" fill="#F24C64"/>
<ellipse rx="2.40608" ry="2.257" transform="matrix(1 0 0 -1 153.454 73.95)" fill="#F24C64"/>
<path d="M142.226 52.3096C145.372 55.3152 154.268 59.5231 164.682 52.3096" stroke="#073099" stroke-width="5"/>
<path d="M124.582 56.292C121.435 53.2864 112.54 49.0785 102.125 56.292" stroke="#073099" stroke-width="5"/>
<path d="M74.1873 65.7188C65.0531 71.2506 46.5977 83.3233 45.8491 87.3594C44.9134 92.4044 74.1873 103.557 74.1873 104.752C74.1873 105.946 72.5832 114.178 66.568 115.107" stroke="#073099" stroke-width="2"/>
<path d="M64.5625 111.256C67.0131 110.637 72.2619 108.468 73.6521 104.751" stroke="#073099" stroke-width="2"/>
<path d="M63.895 107.407C65.9446 107.806 70.7657 107.859 73.653 104.885" stroke="#073099" stroke-width="2"/>
<path d="M194.892 71.56C200.462 64.435 212.002 47.5031 213.606 36.7757C215.21 26.0483 188.61 32.3059 175.109 36.7757C172.168 36.3331 165.886 36.6695 164.282 41.5553" stroke="#073099" stroke-width="2"/>
<path d="M171.5 41.8203C172.035 40.3157 173.505 37.147 175.109 36.5098" stroke="#073099" stroke-width="5.93782"/>
<path d="M175.377 41.9531C174.664 41.068 173.666 38.7402 175.377 36.5098" stroke="#073099" stroke-width="5.93782"/>
<path d="M25.6533 155.59H92.4468C92.4468 155.59 90.3916 141.021 80.9378 138.978C80.9378 138.978 85.0481 115.967 75.1148 115.762C65.1814 115.558 60.1804 133.532 60.1804 133.532C60.1804 133.532 52.5077 132.17 48.8769 143.88C48.9454 143.88 38.601 138.025 25.6533 155.59Z" fill="#CE3A5E"/>
<path d="M74.8404 124.545L68.8804 155.59" stroke="#06508C" stroke-width="0.540119" stroke-miterlimit="10"/>
<path d="M66.1401 121.277L70.7301 145.787" stroke="#06508C" stroke-width="0.540119" stroke-miterlimit="10"/>
<path d="M84.7054 140.612L69.4971 152.118" stroke="#06508C" stroke-width="0.540119" stroke-miterlimit="10"/>
<path d="M54.9736 134.825L56.0012 155.59" stroke="#06508C" stroke-width="0.540119" stroke-miterlimit="10"/>
<path d="M37.5049 144.765L40.1081 155.59" stroke="#06508C" stroke-width="0.540119" stroke-miterlimit="10"/>
</svg>
