<svg width="282" height="159" viewBox="0 0 282 159" fill="none" xmlns="http://www.w3.org/2000/svg">
  <g clip-path="url(#clip0_2857_16597)">
  <rect width="282" height="158.63" fill="black"/>
  <path d="M282 -22H0V159H282V-22Z" fill="#E7BEA6"/>
  <path d="M282 108.85H0V208.333H282V108.85Z" fill="#BB8568"/>
  <path d="M130.302 30.9214H112.017V54.6677H130.302V30.9214Z" fill="#FBF5F2"/>
  <path d="M126.703 44.6562C126.62 44.6562 126.537 44.6562 126.455 44.6562C126.248 44.6562 126.041 44.6976 125.875 44.7803C125.751 44.8217 125.627 44.8631 125.503 44.8217C125.627 44.5321 125.751 44.2425 125.875 43.9529C125.917 43.8702 125.958 43.7461 126.041 43.6634C126.248 43.3324 126.661 43.2083 127.075 43.2083C126.827 43.2083 126.579 43.1669 126.33 43.2497C126.082 43.3324 125.875 43.5392 125.71 43.7461C125.462 44.0771 125.255 44.4907 124.924 44.7803C124.634 45.0286 124.262 45.1113 123.89 45.0699C123.807 45.0699 123.766 45.0286 123.724 44.9872C123.724 44.9458 123.724 44.9458 123.724 44.9044C123.807 44.6976 124.055 44.5321 124.055 44.3253C123.89 44.4908 123.724 44.6562 123.6 44.8217C123.559 44.8631 123.476 44.9458 123.435 44.9458C123.352 44.9458 123.269 44.8631 123.228 44.8217C123.021 44.5735 122.773 44.3253 122.566 44.077C122.69 44.4494 122.897 44.8217 123.186 45.0699C122.938 45.2768 122.524 45.2768 122.235 45.0699C121.945 44.8631 121.78 44.5321 121.697 44.2012C121.614 43.8288 121.656 43.4151 121.573 43.0428C121.573 42.9601 121.532 42.9187 121.449 42.8773C121.366 42.836 121.283 42.836 121.242 42.9187C121.325 42.836 120.911 42.3809 121.201 42.3809C120.746 42.4223 120.332 42.0913 120.208 41.6776C120.911 41.9672 121.738 41.9258 122.442 41.6362C122.773 41.4708 123.104 41.2639 123.435 41.0984C123.766 40.9329 124.138 40.7675 124.51 40.7675C124.883 40.7675 125.296 40.8916 125.503 41.2225C125.172 41.0157 124.717 40.9743 124.345 41.0571C123.931 41.1398 123.6 41.3466 123.269 41.6362C123.848 41.8017 124.427 41.9672 125.007 42.1327C124.717 42.2568 124.386 42.174 124.097 42.0499C123.807 41.9258 123.476 41.8431 123.186 41.9258C123.435 42.0086 123.641 42.1327 123.848 42.2568C123.228 42.1327 122.607 42.1327 121.987 42.2568C122.731 42.3395 123.559 42.4636 124.138 42.9601C124.552 43.291 124.883 43.7875 125.503 43.6634C125.71 43.622 125.917 43.4979 126.124 43.4151C126.165 43.3738 126.248 43.3738 126.289 43.3324C126.372 43.291 126.413 43.291 126.496 43.2497C126.537 43.2083 126.496 43.1255 126.455 43.1255C126.413 43.1255 126.33 43.1669 126.289 43.2083C126 43.4151 125.586 43.4979 125.255 43.3738C125.213 43.3324 125.214 43.3324 125.172 43.291C125.131 43.2497 125.089 43.2083 125.048 43.1255C125.007 43.0014 125.131 42.9187 125.214 42.836C125.917 42.2154 126.372 41.3053 126.496 40.3538C126.786 38.2853 126.082 36.5477 124.634 35.0584C123.435 33.8173 121.987 33.1968 120.249 33.3623C119.794 33.4036 119.339 33.4864 118.925 33.6932C118.677 33.8587 118.47 34.0655 118.512 34.3965C118.553 34.562 118.594 34.6861 118.801 34.6447C119.049 34.6034 119.339 34.6034 119.587 34.6034C120.125 34.6034 120.663 34.6447 121.159 34.8102C121.077 34.8516 121.035 34.8516 120.952 34.8102C120.415 34.7688 119.877 34.8102 119.298 34.8516C118.594 34.8929 118.015 35.1825 117.477 35.5962C117.022 35.9272 116.691 36.3409 116.443 36.8373C116.402 36.9201 116.319 37.0442 116.526 37.0442C117.436 36.9614 118.181 37.3338 118.884 37.8716C119.38 38.2439 119.711 38.699 120.001 39.2781C120.125 39.485 120.29 39.6505 120.539 39.6091C120.787 39.5677 120.787 39.3609 120.787 39.154L120.828 39.1127C120.952 39.3195 121.035 39.485 120.911 39.6918C120.746 40.0228 120.415 40.0642 120.084 40.0642C120.415 40.3124 120.746 40.1883 121.118 40.1055C121.035 40.271 120.952 40.3951 120.828 40.4779C120.663 40.5192 120.456 40.602 120.29 40.6434C120.497 40.6847 120.58 40.6847 120.911 40.5192C121.325 40.3538 121.697 40.4365 122.028 40.6847C122.111 40.7261 122.235 40.8088 122.152 40.8916C122.111 40.9743 121.945 41.0157 121.821 40.9329C121.449 40.7261 121.118 40.8502 120.746 40.8916C120.787 41.0157 120.87 40.9743 120.911 41.0157C121.614 41.1812 122.235 41.0157 122.773 40.5192C123.062 40.271 123.31 40.0228 123.641 39.816C123.972 39.6505 124.303 39.5264 124.676 39.6091C124.965 39.6918 125.131 39.8573 125.172 40.1469C124.8 39.816 124.51 39.7746 124.055 40.0642C123.724 40.271 123.476 40.602 123.145 40.8502C122.483 41.4294 121.738 41.7603 120.87 41.6362C120.084 41.5121 119.753 41.2225 119.504 40.4365C119.463 40.3124 119.422 40.1883 119.339 40.1055C119.091 39.7746 118.925 39.4436 118.925 39.0299C118.925 38.9058 118.843 38.8645 118.76 38.7817C118.346 38.4921 118.098 38.1198 118.098 37.582C118.098 37.4579 118.015 37.4165 117.891 37.3751C117.436 37.1683 116.94 37.0855 116.443 37.0855C116.278 37.0855 116.154 37.1683 116.112 37.3338C115.781 38.2439 115.574 39.1954 115.905 40.1469C115.988 40.3951 115.947 40.6847 115.823 40.8916C115.657 41.2225 115.45 41.5121 115.243 41.8431C115.161 41.9258 115.078 42.0499 114.995 42.174C114.788 42.4636 114.912 42.7118 115.285 42.7946C115.409 42.7946 115.533 42.836 115.657 42.836C115.74 42.8773 115.823 42.9187 115.905 42.9601C115.988 43.0842 115.905 43.2497 115.905 43.3738C115.823 43.7047 115.864 43.7875 116.195 43.8702C116.484 43.9529 116.733 43.9943 117.064 44.077C116.815 44.1598 116.609 44.1598 116.402 44.1184C116.278 44.0771 116.112 44.0357 116.029 44.2012C115.947 44.3666 116.029 44.4907 116.154 44.5735C116.443 44.7803 116.484 45.0286 116.36 45.3181C116.195 45.7318 116.443 46.1455 116.857 46.2283C117.022 46.2697 117.146 46.2697 117.312 46.2697C117.767 46.2697 118.222 46.1455 118.677 46.0214C119.215 45.856 119.753 46.1042 119.96 46.5592C120.373 47.4694 120.787 48.3795 121.118 49.2897C121.242 49.662 121.242 49.9929 121.035 50.3239C120.787 50.779 120.704 51.3168 120.497 51.7718C120.415 51.9373 120.497 52.0614 120.704 52.0201C121.159 51.9787 121.697 51.8132 121.863 51.2754C122.194 50.3239 122.69 49.4138 123.393 48.6691C123.476 48.5864 123.476 48.545 123.435 48.4209C123.145 47.8831 123.228 47.3453 123.476 46.8075C123.559 46.6006 123.683 46.3938 123.766 46.1455C123.807 45.9387 123.848 45.7318 123.683 45.525C123.6 45.4423 123.559 45.4009 123.435 45.4423C122.938 45.6905 122.318 45.5664 121.904 45.1527C121.863 45.1113 121.78 45.0699 121.863 44.9872C122.318 45.3181 122.814 45.2768 123.31 45.0286C123.352 44.9872 123.435 44.9872 123.476 45.0286C124.014 45.3181 124.552 45.194 125.089 44.9458C125.544 44.7803 126.041 44.5321 126.537 44.5735C126.703 44.5735 126.868 44.6562 126.992 44.739C127.241 44.9458 127.323 45.2768 127.241 45.5664C127.365 45.4009 127.406 45.1527 127.365 44.9458C127.323 44.739 127.158 44.5735 126.992 44.4494C126.91 44.6976 126.827 44.6976 126.703 44.6562ZM121.945 39.1127C121.159 39.1127 120.58 38.5335 120.58 37.7475C120.58 36.9614 121.201 36.3823 121.945 36.3409C122.731 36.3409 123.31 36.9614 123.31 37.7061C123.352 38.4921 122.731 39.154 121.945 39.1127ZM116.443 39.3195C116.526 39.2781 116.65 39.2368 116.774 39.2368C117.229 39.2368 117.684 39.3195 118.057 39.4436C117.56 39.4436 117.022 39.3195 116.526 39.485C116.484 39.485 116.402 39.5264 116.36 39.4436C116.319 39.4023 116.36 39.3609 116.443 39.3195ZM116.94 40.8916C116.857 40.8916 116.65 41.0157 116.733 40.7261C116.774 40.5606 116.774 40.271 116.484 40.1883C116.443 40.1883 116.36 40.1055 116.36 39.9814C116.567 40.1055 116.774 40.0642 116.94 40.0228C117.105 39.9814 117.27 40.0228 117.436 40.1469C117.684 40.3124 117.932 40.4365 118.263 40.5606C117.808 40.6434 117.395 40.8502 116.94 40.8916Z" fill="#6A6AF4"/>
  <path d="M124.386 46.0627C124.427 46.311 124.344 46.5178 124.262 46.6833C124.138 46.8901 124.013 47.097 123.889 47.2625C123.724 47.5107 123.558 47.7589 123.558 48.0485C123.558 48.214 123.517 48.4208 123.641 48.5036C123.765 48.5863 123.889 48.3795 123.972 48.2967C124.096 48.214 124.262 48.1726 124.262 47.9658C124.262 47.5934 124.386 47.2211 124.469 46.8488C124.551 46.6006 124.51 46.311 124.386 46.0627Z" fill="#6A6AF4"/>
  <path d="M119.546 46.7246C119.546 47.0556 119.38 47.3038 119.422 47.5934C119.463 47.883 119.629 48.1312 119.959 48.2139C119.753 47.9243 119.711 47.7175 119.959 47.4693C120.001 47.4279 120.001 47.3452 119.959 47.3038C119.877 47.0969 119.794 46.8901 119.546 46.7246Z" fill="#6A6AF4"/>
  <path d="M125.048 46.4351C125.048 46.8074 125.089 47.1383 125.172 47.4279C125.213 47.552 125.213 47.6762 125.42 47.6348C125.627 47.5934 125.668 47.5107 125.627 47.3038C125.544 46.9315 125.255 46.766 125.048 46.4351Z" fill="#6A6AF4"/>
  <path d="M124.8 46.9316C124.635 47.2212 124.51 47.5108 124.428 47.8004C124.428 47.8831 124.428 48.0073 124.552 47.9245C124.717 47.8418 124.841 47.8004 125.007 47.7177C125.09 47.6763 125.131 47.6349 125.048 47.5936C124.924 47.4281 124.924 47.1799 124.8 46.9316Z" fill="#6A6AF4"/>
  <path d="M120.083 48.5864C120.249 48.7105 120.373 48.876 120.539 49.0001C120.58 48.6692 120.29 48.6692 120.083 48.5864Z" fill="#6A6AF4"/>
  <path d="M121.945 36.8372C121.449 36.8372 121.035 37.2509 121.035 37.7059C121.035 38.2437 121.449 38.6574 121.945 38.6574C122.442 38.6574 122.855 38.2437 122.855 37.7473C122.855 37.2509 122.442 36.8372 121.945 36.8372ZM121.945 38.2437C121.656 38.2437 121.449 38.0369 121.449 37.7473C121.449 37.4577 121.697 37.2095 121.987 37.2509C122.276 37.2509 122.483 37.4991 122.483 37.7887C122.442 38.0369 122.235 38.2437 121.945 38.2437Z" fill="#6A6AF4"/>
  <path d="M283.558 35.2634H149.396V105.013H283.558V35.2634Z" fill="#F3E2D9"/>
  <path d="M278.8 58.3063C278.8 58.3063 274.498 57.6444 273.257 57.2721C273.257 57.2721 272.926 56.1137 272.512 55.8655C272.057 55.6173 271.354 55.8242 271.105 56.0724C271.105 56.0724 271.064 54.7899 270.526 54.4176C269.988 54.0452 269.616 53.9211 269.161 53.9625C268.747 54.0039 268.003 54.3762 268.003 54.3762C268.003 54.3762 267.796 53.5074 267.134 53.011C266.431 52.5146 265.976 52.8042 265.727 52.9696C265.479 53.1351 265.024 53.4661 265.024 53.4661C265.024 53.4661 263.411 51.1494 261.839 50.5702C260.267 49.991 256.916 50.1565 255.716 50.9839C254.516 51.7699 253.854 52.3077 253.854 52.3077C253.854 52.3077 253.689 51.6044 252.985 51.4803C252.282 51.3562 251.207 51.5631 250.917 52.0181C250.627 52.4732 250.421 52.7628 250.379 52.8042C250.379 52.8455 250.09 52.225 249.51 52.3077C248.931 52.3491 248.393 52.5973 248.145 52.8455C247.938 53.0937 247.773 53.2592 247.773 53.2592C247.773 53.2592 247.401 52.4732 246.697 52.5973C245.994 52.7214 246.077 52.8042 245.58 53.2179C245.58 53.2179 244.96 52.8869 244.546 52.9283C244.132 52.9696 243.967 53.6729 243.967 53.6729C243.843 53.6315 243.222 52.9696 242.229 53.0524C241.236 53.1351 240.74 54.5417 240.74 54.5417C239.788 54.5417 239.83 54.3762 238.341 54.5417C236.851 54.7485 236.768 56.5688 236.52 56.5274C236.313 56.4861 235.858 56.4033 235.196 56.6102C234.535 56.8584 234.741 57.4789 234.204 57.6031C233.666 57.7272 228.908 58.265 228.908 58.265H233.252C233.583 58.3477 233.914 58.4718 234.286 58.5959C235.114 58.8441 235.982 58.3063 236.727 58.5132C237.513 58.72 237.844 59.382 238.92 59.2992C240.781 59.1751 242.602 60.2507 244.381 59.837C245.001 59.7129 245.539 59.4233 246.159 59.2992C247.194 59.0924 248.228 59.4647 249.262 59.5474C250.131 59.6302 250.876 59.2165 251.744 59.1337C252.737 59.051 253.73 59.4647 254.682 59.6302C255.674 59.837 256.709 59.837 257.743 59.6302C258.736 59.4233 259.77 59.0096 260.804 59.051C261.839 59.0924 262.666 59.4233 263.618 58.8441C263.907 59.2165 264.362 59.2992 264.817 59.1337C265.19 59.0096 265.521 58.8028 265.893 58.7614C266.389 58.6787 266.927 58.8855 267.465 58.9269C269.037 59.1337 271.271 58.6373 272.802 58.3063C273.174 58.2236 273.67 58.2236 274.125 58.1822H278.8V58.3063Z" fill="#F3E2D9"/>
  <path d="M256.75 77.6262C256.75 77.6262 254.061 77.2125 252.779 76.9229C252.82 76.9229 252.82 76.9229 252.861 76.9229C252.861 76.5919 252.572 76.4264 252.199 76.3023C252.075 76.0541 251.951 75.8059 251.786 75.7231C251.455 75.5163 250.876 75.6818 250.669 75.8886C250.669 75.8886 250.627 74.8544 250.214 74.5648C249.8 74.2752 249.469 74.1925 249.138 74.2338C248.807 74.2752 248.228 74.5648 248.228 74.5648C248.228 74.5648 248.062 73.8615 247.525 73.4892C246.987 73.1168 246.614 73.3237 246.408 73.4478C246.201 73.5719 245.87 73.8615 245.87 73.8615C245.87 73.8615 244.587 72.0412 243.346 71.5862C242.105 71.1311 239.457 71.2552 238.506 71.9171C237.554 72.5377 237.058 72.9514 237.058 72.9514C237.058 72.9514 236.893 72.4549 236.355 72.2894C235.651 72.0826 235.114 73.0341 235.114 73.0341C235.114 73.0341 233.666 71.4621 232.88 71.2552C232.052 71.0484 231.059 70.8829 229.984 71.5448C228.95 72.1653 228.991 73.9442 228.991 74.1097C228.908 74.1097 228.701 74.0683 227.998 73.9856C226.716 73.8615 226.054 76.3437 226.054 76.3437C225.185 76.6333 221.627 77.1711 221.627 77.1711C221.213 77.2538 217.449 77.6675 217.449 77.6675H222.206C223.406 77.9157 224.564 78.3294 225.888 78.2467C225.888 78.164 225.888 78.0399 225.93 77.9571C226.591 79.1982 228.37 78.0812 229.363 78.164C230.232 78.2053 230.935 78.5777 231.887 78.5777C232.59 78.5777 233.293 78.3708 233.955 78.3708C235.279 78.3708 236.603 78.7845 237.968 78.5777C238.713 78.4949 239.209 78.1226 239.83 78.1226C241.195 78.164 242.56 78.4949 243.967 78.3708C244.711 78.3294 245.291 77.9985 245.87 77.6675H256.75V77.6262Z" fill="#F3E2D9"/>
  <path d="M280.207 81.9287C280.207 81.9287 277.766 81.6391 276.194 81.4736C275.78 81.2668 275.16 81.1427 274.581 81.0599C274.415 80.8117 274.374 80.4394 273.919 80.2739C273.257 80.0257 272.843 80.1084 272.595 80.1911C272.388 80.2325 272.264 78.4122 270.775 78.2054C269.285 77.9985 269.327 78.164 268.375 78.2054C268.375 78.2054 267.879 76.8402 266.886 76.7161C265.893 76.592 265.272 77.2953 265.148 77.3366C265.148 77.3366 265.024 76.6333 264.569 76.592C264.155 76.5506 263.535 76.8816 263.535 76.8816C262.997 76.4679 263.121 76.4265 262.418 76.261C261.715 76.1369 261.342 76.9229 261.342 76.9229C261.342 76.9229 261.177 76.7988 260.97 76.5092C260.763 76.261 260.225 76.0128 259.605 75.9714C259.026 75.9301 258.777 76.5506 258.736 76.4679C258.736 76.4265 258.529 76.1369 258.198 75.6818C257.909 75.2268 256.792 74.9785 256.13 75.144C255.426 75.2681 255.261 75.9714 255.261 75.9714C255.261 75.9714 254.599 75.4336 253.399 74.6476C252.2 73.8616 248.849 73.6961 247.277 74.2339C245.705 74.8131 244.091 77.1298 244.091 77.1298C244.091 77.1298 243.636 76.7988 243.388 76.6333C243.14 76.4679 242.685 76.1783 241.981 76.6747C241.278 77.1711 241.112 78.0399 241.112 78.0399C241.112 78.0399 240.368 77.6676 239.954 77.6262C239.54 77.5848 239.127 77.6676 238.589 78.0813C238.051 78.4536 238.01 79.7361 238.01 79.7361C237.762 79.4879 237.058 79.2396 236.603 79.5292C236.148 79.7775 235.858 80.9358 235.858 80.9358C234.576 81.3081 230.315 81.97 230.315 81.97H232.921C233.749 82.0942 234.617 82.2596 235.445 82.3837C236.355 82.5079 237.141 82.3424 238.01 82.301C238.672 82.301 239.209 82.5079 239.995 82.5906C241.526 82.7561 243.098 82.9629 244.67 82.8802C245.539 82.8388 246.077 82.4665 246.821 82.301C247.525 82.1355 247.814 82.301 248.6 82.4665C249.717 82.7147 250.793 82.6733 251.951 82.6733C252.406 82.6733 252.903 82.7147 253.358 82.6733C253.689 82.632 253.73 82.301 254.144 82.301C254.889 82.3424 255.468 83.418 256.295 82.5906C256.874 83.087 257.288 82.5492 257.743 82.5079C259.067 82.3837 260.515 82.8802 261.839 82.8802C262.997 82.8802 264.073 82.8388 265.19 82.5906C265.852 82.4251 266.638 82.0114 267.3 81.97C268.21 81.9287 269.492 82.4665 270.526 82.4665C271.437 82.5079 272.264 82.4665 273.133 82.301C273.877 82.1769 274.663 82.0942 275.408 81.9287H280.207Z" fill="white"/>
  <path d="M230.646 65.422C230.646 65.422 225.806 64.6774 224.358 64.2637C224.358 64.2637 223.986 62.9399 223.489 62.6503C222.993 62.3607 222.207 62.6089 221.917 62.8985C221.917 62.8985 221.876 61.4505 221.297 60.9955C220.717 60.5818 220.262 60.4577 219.766 60.499C219.269 60.5404 218.483 60.9955 218.483 60.9955C218.483 60.9955 218.235 60.0026 217.49 59.4234C216.704 58.8856 216.208 59.1752 215.918 59.3821C215.629 59.5475 215.132 59.9612 215.132 59.9612C215.132 59.9612 213.312 57.3549 211.492 56.693C209.672 56.0725 205.907 56.2379 204.542 57.1481C203.177 58.0582 202.432 58.6374 202.432 58.6374C202.432 58.6374 202.225 57.8514 201.439 57.6859C200.653 57.5204 199.412 57.81 199.081 58.3064C198.75 58.8029 198.502 59.1338 198.502 59.2166C198.46 59.2993 198.171 58.596 197.509 58.6374C196.847 58.7201 196.226 58.9684 195.978 59.2579C195.73 59.5475 195.564 59.713 195.564 59.713C195.564 59.713 195.151 58.8029 194.323 58.9684C193.537 59.1338 193.62 59.2166 193.041 59.6716C193.041 59.6716 192.338 59.2993 191.841 59.3407C191.345 59.3821 191.221 60.1681 191.221 60.1681C191.097 60.1267 190.393 59.3821 189.276 59.4648C188.159 59.5889 187.621 61.1196 187.621 61.1196C186.546 61.0782 186.587 60.9127 184.891 61.161C183.236 61.4092 183.071 63.4777 182.823 63.3949C182.574 63.3122 182.078 63.2294 181.333 63.519C180.589 63.8086 180.795 64.5119 180.175 64.6774C179.554 64.8015 174.176 65.422 174.176 65.422H179.513C180.423 65.5048 181.333 65.6703 182.285 65.7944C183.774 66.0012 185.305 65.5875 186.711 66.1253C188.159 66.7045 189.607 67.201 191.179 67.2837C192.669 67.3664 193.786 66.5804 195.192 66.3736C196.475 66.1667 197.012 67.3664 198.336 67.5733C199.164 67.6974 201.025 67.2423 201.274 66.3736C202.473 67.6974 203.466 67.0355 204.873 66.7045C205.741 66.4977 205.948 66.7459 206.9 67.2837C208.1 67.987 209.051 68.3179 210.458 68.4007C213.188 68.5248 215.298 68.2352 217.532 66.6631C217.904 66.3736 218.483 65.753 218.938 65.6289C219.476 65.5048 220.386 65.8771 221.007 66.0012C222.331 66.2494 223.117 65.9185 224.151 65.7944C224.523 65.753 227.047 66.084 227.337 65.422H230.646Z" fill="white"/>
  <path fill-rule="evenodd" clip-rule="evenodd" d="M194.695 107.661H238.092H241.236H285.585V31.3333H146.582V107.661H191.592H194.695ZM149.726 104.392V34.6428H191.592V104.392H149.726ZM194.695 104.392V34.6428H238.092V104.392H194.695ZM282.482 104.392H241.278V34.6428H282.482V104.392Z" fill="#D69E75"/>
  <path d="M155.187 31.623H154.194V76.3852H155.187V31.623Z" fill="white"/>
  <path d="M199.618 32.2434H198.625V77.0056H199.618V32.2434Z" fill="white"/>
  <path d="M279.049 32.9053H278.056V77.6674H279.049V32.9053Z" fill="white"/>
  <path d="M283.889 34.5601H147.947V35.5529H283.889V34.5601Z" fill="white"/>
  <path d="M283.889 37.7456H147.947V38.7385H283.889V37.7456Z" fill="white"/>
  <path d="M283.889 41.2622H147.947V42.2551H283.889V41.2622Z" fill="white"/>
  <path d="M283.889 44.9026H147.947V45.8955H283.889V44.9026Z" fill="white"/>
  <path d="M283.889 48.2122H147.947V49.205H283.889V48.2122Z" fill="white"/>
  <path d="M283.889 51.8943H147.947V52.8872H283.889V51.8943Z" fill="white"/>
  <path d="M283.889 55.7H147.947V56.6928H283.889V55.7Z" fill="white"/>
  <path d="M141.866 113.204C145.59 113.204 148.609 112.945 148.609 112.625C148.609 112.305 145.59 112.046 141.866 112.046C138.142 112.046 135.123 112.305 135.123 112.625C135.123 112.945 138.142 113.204 141.866 113.204Z" fill="#855D48"/>
  <path d="M154.939 72.9927C155.021 75.8058 154.484 78.288 153.615 80.522L151.919 79.6532L153.201 81.4321C152.084 83.9557 150.595 86.0242 149.147 87.6376L148.609 85.5691V88.2168C146.334 90.6162 144.307 91.8573 144.307 91.8573C146.458 78.8672 154.939 72.9927 154.939 72.9927Z" fill="#855D48"/>
  <path d="M142.114 122.182C139.673 103.524 145.217 89.2512 145.258 89.0857L145.506 89.1684C145.465 89.2925 139.963 103.524 142.362 122.099L142.114 122.182Z" fill="#855D48"/>
  <path d="M141.866 116.514H141.617C141.617 116.266 143.189 92.1057 132.351 82.2183L132.516 82.0115C143.438 91.9816 141.866 116.266 141.866 116.514Z" fill="#BB8568"/>
  <path d="M115.637 78.3709C115.637 78.3709 135.495 74.0684 138.142 90.8232C138.184 90.8232 128.048 79.9015 115.637 78.3709Z" fill="#855D48"/>
  <path d="M130.406 84.9901L129.91 87.1413C130.696 87.6377 131.523 88.1342 132.392 88.5892L132.806 88.0928V88.8374C134.502 89.7062 136.281 90.4509 138.142 90.8232C138.142 90.8232 135.371 76.8816 115.637 78.3709C115.637 78.3709 117.416 81.5564 121.181 82.632L122.38 81.6805L121.594 82.7561C121.677 82.7561 121.76 82.7975 121.843 82.7975C123.994 83.2111 126.476 84.9901 129.289 86.769L130.406 84.9901Z" fill="#BB8568"/>
  <path d="M141.287 121.064C141.287 120.816 139.714 96.4906 150.636 86.5205L150.802 86.7274C139.921 96.6147 141.493 120.775 141.535 121.023L141.287 121.064Z" fill="#BB8568"/>
  <path d="M167.515 82.9214C167.515 82.9214 147.657 78.6189 145.01 95.3737C145.01 95.3737 155.104 84.4521 167.515 82.9214Z" fill="#855D48"/>
  <path d="M152.746 89.5406L153.242 91.6918C152.456 92.1883 151.629 92.6847 150.76 93.1398L150.346 92.6433V93.388C148.65 94.2568 146.871 95.0014 145.01 95.3737C145.01 95.3737 147.782 81.4321 167.515 82.9214C167.515 82.9214 165.736 86.1069 161.971 87.1825L160.772 86.231L161.558 87.3066C161.475 87.3066 161.392 87.348 161.309 87.348C159.158 87.7617 156.676 89.5406 153.863 91.3195L152.746 89.5406Z" fill="#BB8568"/>
  <path d="M142.197 114.694C140.997 106.544 142.404 82.3837 142.404 82.1355H142.652C142.652 82.3837 141.245 106.502 142.445 114.652L142.197 114.694Z" fill="#855D48"/>
  <path d="M144.514 84.7833L145.879 85.1142C146.251 84.08 146.458 82.8389 146.623 81.5978L144.844 80.5635L146.706 81.1841C146.996 78.9915 147.161 76.7161 147.575 74.8959C147.699 74.3581 147.782 73.8616 147.782 73.3238L146.003 74.2753L147.74 72.4137C147.451 68.4008 144.472 65.2153 144.472 65.2153C142.693 68.6904 141.618 88.5893 141.907 88.5893C143.769 88.5479 144.886 87.5137 145.548 85.9003L144.514 84.7833Z" fill="#855D48"/>
  <path d="M139.921 73.7788L141.576 73.7374L139.921 74.1925C139.921 74.4407 139.921 74.6889 139.963 74.9371C140.087 76.5919 140.087 78.164 140.046 79.6533L141.287 79.6119L140.004 80.522C139.921 84.7004 139.839 87.8445 141.949 88.5478L144.513 65.1738C144.513 65.1738 140.087 67.9042 139.921 73.7788Z" fill="#BB8568"/>
  <path d="M128.628 68.8557C128.545 71.6689 129.083 74.1511 129.951 76.385L131.647 75.5163L130.365 77.2952C131.482 79.7773 132.971 81.8872 134.419 83.5006L134.957 81.4321V84.0798C137.232 86.4793 139.26 87.7204 139.26 87.7204C137.108 74.7302 128.628 68.8557 128.628 68.8557Z" fill="#BB8568"/>
  <path d="M141.452 118.044L141.204 118.003C143.645 99.4281 138.142 85.1968 138.06 85.0727L138.308 84.99C138.349 85.1141 143.893 99.3867 141.452 118.044Z" fill="#BB8568"/>
  <path d="M141.866 113.163C138.143 113.163 135.123 112.915 135.123 112.584L137.605 122.554C137.605 122.554 139.011 123.174 141.99 123.174C144.927 123.174 146.375 122.554 146.375 122.554L148.651 112.584C148.609 112.915 145.589 113.163 141.866 113.163Z" fill="#855D48"/>
  <path d="M285.708 113.37C289.227 113.37 292.079 113.129 292.079 112.832C292.079 112.535 289.227 112.294 285.708 112.294C282.19 112.294 279.337 112.535 279.337 112.832C279.337 113.129 282.19 113.37 285.708 113.37Z" fill="#BB8568"/>
  <path d="M287.611 86.8932C287.363 86.6036 287.032 86.3554 286.701 86.1486C286.618 86.1072 286.494 86.1486 286.453 86.2313C286.205 86.7277 285.956 87.1828 285.667 87.6379C285.584 87.8034 285.419 87.9688 285.295 88.0929L285.253 88.1343C285.212 88.0929 285.212 88.0516 285.212 88.0102C284.964 87.3069 285.253 86.5623 285.088 85.859C285.005 85.4866 284.757 85.1143 284.467 84.8247C284.178 84.5351 283.764 84.411 283.598 83.9973C283.516 83.8318 283.35 83.8732 283.267 83.9973C282.854 84.6179 282.275 85.2384 282.15 85.9831C282.068 86.645 282.399 87.2242 282.812 87.7206C283.019 87.9688 283.185 88.2171 283.35 88.5066C283.433 88.6721 283.557 88.9203 283.433 89.0858C283.267 89.2513 283.061 88.9617 282.936 88.8376C282.688 88.5894 282.481 88.2998 282.275 88.0102C281.902 87.5551 281.364 86.8105 280.702 86.976C280.413 87.0173 280.289 87.3483 280.289 87.5965C280.247 88.0102 280.454 88.4653 280.661 88.8376C281.116 89.6236 282.068 89.8718 282.688 90.5338C282.812 90.6992 283.226 91.1957 282.978 91.4025C282.895 91.4853 282.73 91.4439 282.647 91.4439C282.44 91.4025 282.192 91.3198 281.985 91.1957C281.282 90.6579 281.033 89.7477 280.33 89.2513C279.999 89.0445 279.503 88.879 279.13 89.0031C278.799 89.0858 278.675 89.3754 278.634 89.7064C278.634 90.0787 278.799 90.451 278.965 90.782C279.172 91.1543 279.461 91.4439 279.834 91.6507C280.578 92.0644 281.489 92.1058 281.985 92.8918C282.068 92.9746 282.109 93.1401 282.109 93.2642C282.068 93.3469 281.944 93.3883 281.861 93.4297C281.489 93.5124 280.992 93.3883 280.661 93.1814C280.247 92.9746 279.958 92.6023 279.668 92.2713C279.337 91.9403 279.006 91.6508 278.551 91.5266C278.22 91.4439 277.807 91.4439 277.6 91.7335C277.393 92.0231 277.434 92.3954 277.517 92.685C277.6 93.0987 277.848 93.471 278.138 93.802C278.427 94.1329 278.924 94.3398 279.337 94.5053C279.792 94.6708 280.247 94.7535 280.661 94.919C280.785 94.9603 280.868 95.0017 280.992 95.0017C281.116 95.0017 281.282 95.0017 281.406 95.0431C281.53 95.0845 281.447 95.2086 281.406 95.2913C281.323 95.4981 281.033 95.4568 280.868 95.4981C280.702 95.4981 280.537 95.5395 280.372 95.5395C280.165 95.5395 279.958 95.4981 279.792 95.4568C279.42 95.4154 279.006 95.3327 278.634 95.4568C278.262 95.5809 278.013 95.9118 277.931 96.2842C277.807 97.0702 278.675 97.5666 279.337 97.6494C279.751 97.7321 280.123 97.608 280.496 97.4012C280.951 97.1529 281.323 96.7806 281.819 96.6979C281.861 96.9047 281.778 97.0702 281.613 97.2357C281.364 97.4425 280.992 97.5666 280.702 97.6907C280.082 97.8976 279.213 98.1044 278.882 98.725C278.841 98.8077 278.841 98.8905 278.924 98.9732C279.213 99.2628 279.544 99.4696 279.958 99.511C280.289 99.5524 280.62 99.3869 280.909 99.2214C281.406 98.8905 281.819 98.394 282.357 98.1872C282.275 98.3113 282.15 98.4354 281.985 98.5595C281.695 98.7664 281.571 99.056 281.489 99.3869C281.364 99.8834 281.53 100.421 282.15 100.421C282.481 100.421 282.812 100.256 283.061 100.09C283.35 99.9247 283.598 99.6351 283.805 99.3455C284.053 98.9732 284.178 98.5595 284.26 98.1044C284.757 99.056 285.832 100.049 286.825 99.2214C287.694 98.5181 286.287 97.9803 285.708 97.4012C285.832 97.4425 285.915 97.4839 286.039 97.5666C286.329 97.7321 286.618 97.8976 286.908 98.0217C287.487 98.2699 288.108 98.2286 288.439 97.6494C288.728 97.1529 288.108 96.9047 287.735 96.7806C287.446 96.6979 286.867 96.5738 286.66 96.2842C287.404 96.3669 288.232 96.4497 288.894 96.036C289.183 95.8291 289.556 95.4568 289.597 95.0844C289.638 94.7949 289.307 94.6707 289.059 94.6707C288.439 94.588 287.777 94.8776 287.156 94.8776C286.991 94.8776 286.867 94.8362 286.701 94.8362C286.66 94.8362 286.577 94.7949 286.536 94.7949C286.494 94.7949 286.494 94.7535 286.494 94.7535C286.494 94.7535 286.494 94.7535 286.494 94.7121C286.536 94.6294 286.618 94.588 286.701 94.5466C286.867 94.4225 287.032 94.3812 287.239 94.3398C287.611 94.2984 287.984 94.3398 288.356 94.2984C288.77 94.2157 289.101 93.9675 289.39 93.6779C289.638 93.3883 289.887 93.0573 289.928 92.685C289.969 92.3127 289.721 92.0231 289.39 91.899C288.397 91.5266 287.859 92.5195 287.156 92.9746C286.991 93.0987 286.742 93.1814 286.536 93.2228C286.453 93.2642 286.205 93.3469 286.122 93.2642C286.081 93.2228 286.246 92.9746 286.287 92.8918C286.412 92.6436 286.618 92.5195 286.825 92.3954C287.404 92.0644 288.108 91.9403 288.563 91.4439C288.852 91.1129 289.101 90.4924 288.811 90.0787C288.48 89.6236 287.818 89.7477 287.404 89.996C286.908 90.3269 286.66 90.9888 286.081 91.1543C286.039 90.8647 286.122 90.6165 286.329 90.3683C286.618 89.996 286.949 89.7064 287.28 89.3754C287.611 89.0858 287.901 88.7549 288.066 88.3412C287.984 87.6792 287.859 87.2655 287.611 86.8932Z" fill="#855D48"/>
  <path d="M276.193 89.8307C275.821 89.7066 275.407 89.6653 275.035 89.6653C274.952 89.6653 274.828 89.748 274.828 89.8721C274.87 90.4099 274.911 90.9477 274.87 91.4855C274.87 91.651 274.828 91.8992 274.787 92.0233L274.745 92.0647C274.704 92.0647 274.663 92.0233 274.663 91.982C274.125 91.4855 273.959 90.6995 273.422 90.2031C273.132 89.9135 272.76 89.7066 272.387 89.6239C271.974 89.5411 271.56 89.6239 271.229 89.3757C271.105 89.2929 270.939 89.417 270.939 89.5411C270.898 90.2858 270.691 91.1132 270.981 91.8165C271.229 92.437 271.85 92.7266 272.429 92.9748C272.718 93.099 273.008 93.2231 273.256 93.3885C273.422 93.4713 273.67 93.6368 273.628 93.8436C273.587 94.0505 273.256 93.9264 273.049 93.885C272.718 93.8022 272.387 93.6368 272.056 93.5127C271.519 93.3058 270.65 92.9748 270.153 93.4299C269.947 93.6368 269.988 93.9677 270.112 94.1746C270.319 94.5469 270.733 94.8365 271.064 95.0433C271.891 95.4984 272.801 95.2088 273.67 95.457C273.877 95.4984 274.456 95.7466 274.373 96.0362C274.332 96.119 274.166 96.2017 274.084 96.2431C273.877 96.3258 273.628 96.3672 273.38 96.3672C272.511 96.2844 271.808 95.5811 270.939 95.5398C270.567 95.4984 270.071 95.6639 269.781 95.9121C269.533 96.1603 269.574 96.4913 269.698 96.7395C269.864 97.0705 270.236 97.3187 270.526 97.4842C270.898 97.691 271.312 97.7737 271.725 97.7737C272.553 97.7737 273.38 97.3187 274.208 97.7324C274.332 97.7738 274.456 97.8565 274.497 97.9806C274.539 98.0633 274.414 98.1874 274.373 98.2288C274.084 98.477 273.587 98.6425 273.215 98.6425C272.76 98.6839 272.305 98.477 271.891 98.3529C271.436 98.2288 270.981 98.1874 270.526 98.3116C270.195 98.3943 269.864 98.6011 269.822 98.9735C269.781 99.3044 270.029 99.6354 270.236 99.8422C270.526 100.132 270.939 100.339 271.312 100.504C271.725 100.628 272.263 100.587 272.677 100.463C273.132 100.38 273.546 100.215 274.042 100.132C274.166 100.09 274.249 100.09 274.373 100.049C274.497 100.008 274.621 99.925 274.745 99.8836C274.87 99.8422 274.87 100.008 274.87 100.09C274.911 100.297 274.621 100.463 274.497 100.546C274.373 100.628 274.249 100.752 274.084 100.876C273.918 100.959 273.711 101.042 273.546 101.125C273.173 101.29 272.801 101.414 272.553 101.704C272.305 101.993 272.263 102.407 272.387 102.78C272.677 103.524 273.67 103.483 274.29 103.235C274.663 103.069 274.952 102.821 275.159 102.449C275.407 101.993 275.531 101.497 275.945 101.166C276.069 101.332 276.111 101.497 276.028 101.745C275.904 102.076 275.656 102.324 275.49 102.614C275.076 103.11 274.414 103.731 274.456 104.434C274.456 104.517 274.497 104.6 274.621 104.6C274.994 104.683 275.407 104.683 275.78 104.517C276.069 104.352 276.276 104.062 276.4 103.772C276.648 103.235 276.773 102.614 277.104 102.118C277.104 102.283 277.062 102.407 276.979 102.614C276.855 102.945 276.897 103.276 276.979 103.566C277.145 104.062 277.559 104.434 278.055 104.145C278.345 103.979 278.51 103.69 278.676 103.4C278.841 103.069 278.924 102.738 278.924 102.366C278.924 101.911 278.841 101.497 278.676 101.083C279.586 101.663 281.034 101.952 281.447 100.711C281.82 99.6768 280.33 99.925 279.544 99.7181C279.668 99.7181 279.793 99.6768 279.917 99.6768C280.248 99.6354 280.579 99.6354 280.91 99.594C281.53 99.5113 282.068 99.1389 282.027 98.477C282.027 97.8979 281.365 98.022 280.992 98.1047C280.703 98.1874 280.165 98.3943 279.793 98.2288C280.496 97.8979 281.24 97.5669 281.571 96.8636C281.737 96.5327 281.82 96.0362 281.654 95.7053C281.53 95.4157 281.199 95.4984 280.992 95.6225C280.413 95.9121 280.041 96.4499 279.462 96.7809C279.337 96.8636 279.172 96.905 279.048 96.9877C279.007 96.9877 278.924 97.0291 278.882 97.0291C278.841 97.0291 278.841 97.0291 278.8 97.0291V96.9877C278.8 96.905 278.841 96.8222 278.882 96.7395C278.965 96.574 279.089 96.4085 279.255 96.2844C279.544 96.0776 279.917 95.9121 280.165 95.6639C280.496 95.3743 280.661 95.002 280.744 94.5883C280.827 94.2159 280.827 93.8022 280.661 93.4713C280.496 93.099 280.165 93.0162 279.793 93.0576C278.758 93.2231 278.8 94.3814 278.427 95.1674C278.345 95.3743 278.179 95.5398 278.055 95.7053C278.014 95.788 277.807 95.9948 277.724 95.9535C277.641 95.9535 277.683 95.6225 277.683 95.5811C277.683 95.3329 277.765 95.0847 277.89 94.8365C278.221 94.2573 278.758 93.8022 278.882 93.099C278.965 92.6439 278.882 92.0233 278.386 91.8165C277.89 91.6096 277.352 92.0647 277.145 92.4784C276.897 93.0162 277.021 93.7195 276.607 94.1332C276.4 93.9263 276.359 93.6368 276.4 93.3058C276.442 92.8507 276.607 92.3957 276.731 91.982C276.855 91.5683 276.938 91.1132 276.897 90.6581C276.897 90.3272 276.607 89.9962 276.193 89.8307Z" fill="#855D48"/>
  <path d="M294.893 95.1672C294.851 94.7949 294.686 94.4226 294.479 94.0502C294.438 93.9675 294.313 93.9261 294.231 93.9675C293.776 94.2571 293.321 94.5467 292.824 94.7949C292.659 94.8776 292.452 94.9604 292.286 95.0018H292.245C292.245 94.9604 292.245 94.919 292.245 94.8776C292.41 94.1744 293.031 93.6365 293.196 92.9333C293.321 92.5609 293.279 92.1059 293.196 91.7335C293.114 91.3198 292.824 91.0302 292.865 90.5752C292.865 90.4097 292.7 90.3683 292.576 90.4097C291.914 90.7407 291.087 90.9475 290.59 91.5681C290.176 92.1059 290.218 92.7678 290.259 93.3883C290.301 93.6779 290.342 94.0089 290.301 94.2985C290.301 94.4639 290.259 94.7949 290.094 94.8363C289.887 94.8776 289.804 94.5467 289.763 94.3812C289.68 94.0502 289.639 93.6779 289.597 93.3056C289.515 92.7264 289.39 91.8163 288.77 91.6094C288.48 91.5267 288.232 91.6922 288.067 91.9404C287.818 92.3127 287.777 92.7678 287.777 93.1815C287.777 94.0916 288.48 94.7949 288.687 95.6637C288.729 95.8705 288.811 96.4911 288.522 96.5738C288.439 96.6152 288.273 96.4911 288.191 96.4083C288.025 96.2842 287.86 96.0774 287.777 95.8705C287.446 95.0431 287.694 94.133 287.322 93.347C287.156 92.9746 286.784 92.6437 286.412 92.5196C286.081 92.4368 285.791 92.6023 285.626 92.8919C285.419 93.2228 285.378 93.6365 285.378 93.9675C285.378 94.3812 285.502 94.7949 285.709 95.1672C286.122 95.9119 286.908 96.4083 286.95 97.3185C286.95 97.4426 286.95 97.6081 286.867 97.6908C286.784 97.7735 286.66 97.7322 286.577 97.6908C286.205 97.5667 285.874 97.1944 285.667 96.9048C285.419 96.5324 285.378 96.036 285.253 95.6223C285.129 95.1672 284.964 94.7535 284.633 94.4226C284.385 94.1744 284.054 93.9675 283.723 94.133C283.433 94.2985 283.268 94.6294 283.185 94.919C283.061 95.3327 283.061 95.7878 283.144 96.2015C283.226 96.6565 283.557 97.0702 283.847 97.4012C284.136 97.7322 284.509 98.0631 284.798 98.3941C284.881 98.4768 284.922 98.5596 285.047 98.6423C285.171 98.725 285.295 98.7664 285.378 98.8905C285.46 98.9733 285.336 99.056 285.253 99.0974C285.088 99.2215 284.84 99.056 284.674 98.9733C284.509 98.8905 284.343 98.8491 284.219 98.7664C284.054 98.6837 283.888 98.5182 283.723 98.3941C283.433 98.1459 283.102 97.8976 282.73 97.7735C282.358 97.6908 281.944 97.8563 281.696 98.1459C281.199 98.7664 281.696 99.5938 282.192 100.008C282.523 100.256 282.895 100.38 283.309 100.38C283.847 100.38 284.302 100.256 284.798 100.463C284.716 100.669 284.592 100.752 284.343 100.794C284.012 100.835 283.64 100.794 283.35 100.711C282.73 100.587 281.861 100.338 281.241 100.711C281.158 100.752 281.116 100.835 281.158 100.918C281.282 101.29 281.447 101.662 281.778 101.869C282.068 102.076 282.399 102.076 282.73 102.076C283.309 102.035 283.93 101.828 284.509 101.911C284.385 101.993 284.219 101.993 284.012 102.035C283.681 102.076 283.392 102.283 283.185 102.531C282.854 102.903 282.73 103.483 283.226 103.772C283.516 103.938 283.847 103.938 284.178 103.938C284.55 103.938 284.881 103.814 285.212 103.648C285.584 103.441 285.915 103.152 286.205 102.779C286.164 103.855 286.577 105.261 287.86 105.055C288.977 104.889 288.025 103.689 287.818 102.945C287.901 103.027 287.942 103.152 288.025 103.234C288.191 103.524 288.356 103.814 288.563 104.062C288.935 104.558 289.515 104.848 290.094 104.517C290.59 104.227 290.176 103.731 289.928 103.441C289.721 103.193 289.266 102.821 289.225 102.448C289.845 102.903 290.507 103.4 291.293 103.358C291.666 103.317 292.162 103.193 292.369 102.862C292.535 102.614 292.328 102.366 292.121 102.2C291.583 101.828 290.921 101.745 290.383 101.414C290.259 101.331 290.135 101.249 290.011 101.124C289.97 101.083 289.928 101.042 289.887 101L289.845 100.959C289.845 100.959 289.846 100.959 289.887 100.959C289.97 100.918 290.052 100.918 290.135 100.918C290.342 100.918 290.507 100.959 290.673 101C291.004 101.166 291.335 101.373 291.666 101.497C292.079 101.662 292.493 101.621 292.865 101.455C293.238 101.331 293.61 101.166 293.817 100.835C294.065 100.504 293.982 100.173 293.734 99.8834C293.072 99.056 292.079 99.6352 291.252 99.7179C291.045 99.7179 290.797 99.6765 290.59 99.6352C290.507 99.5938 290.259 99.5524 290.218 99.4697C290.176 99.4283 290.466 99.2628 290.507 99.2215C290.756 99.0974 290.962 99.056 291.252 99.056C291.914 99.056 292.576 99.3456 293.238 99.0974C293.652 98.9319 294.189 98.5596 294.107 98.0631C294.065 97.5253 293.403 97.2771 292.907 97.3185C292.328 97.3598 291.749 97.8149 291.169 97.6494C291.252 97.3598 291.5 97.1944 291.79 97.0702C292.204 96.9048 292.659 96.822 293.114 96.6979C293.527 96.6152 293.982 96.4497 294.355 96.2015C294.851 96.036 294.934 95.5809 294.893 95.1672Z" fill="#E6B79A"/>
  <path d="M285.75 113.163C285.543 111.302 284.674 109.605 283.764 107.992C282.895 106.379 281.944 104.724 281.654 102.862C281.613 102.614 281.241 102.738 281.282 102.945C281.82 106.627 284.923 109.399 285.336 113.122C285.378 113.37 285.791 113.37 285.75 113.163Z" fill="#BB8568"/>
  <path d="M291.418 104.351C289.763 105.055 288.149 106.172 287.032 107.62C286.412 108.406 286.081 109.274 285.833 110.226C285.75 109.233 285.584 108.281 285.378 107.33C284.964 105.096 284.592 102.862 284.385 100.587C284.302 99.6765 284.219 98.7664 284.178 97.8976C284.178 97.6494 283.764 97.6494 283.805 97.8976C283.93 100.421 284.219 102.903 284.592 105.386C284.84 107.082 285.295 108.736 285.419 110.433C285.253 109.523 285.047 108.612 284.757 107.744C284.343 106.461 283.805 105.261 283.102 104.144C283.102 104.103 283.102 104.062 283.061 103.979C283.019 103.938 282.978 103.855 282.895 103.813C282.73 103.565 282.523 103.276 282.358 103.027C282.275 102.903 282.151 102.945 282.068 103.027C281.778 102.779 281.447 102.614 281.116 102.407C280.33 101.993 279.338 101.745 278.965 100.835C278.882 100.587 278.552 100.793 278.634 101.042C279.007 101.952 279.917 102.283 280.744 102.655C281.447 103.027 282.068 103.441 282.606 104.02C283.392 105.179 283.971 106.503 284.385 107.826C284.881 109.44 285.212 111.136 285.212 112.832C285.212 112.832 285.212 112.832 285.212 112.873C285.171 112.998 285.295 113.08 285.378 113.08C285.419 113.246 285.75 113.246 285.75 112.998C285.874 111.177 286.081 109.274 287.281 107.785C288.356 106.42 289.928 105.344 291.5 104.682C291.831 104.6 291.666 104.269 291.418 104.351Z" fill="#855D48"/>
  <path d="M279.876 91.4024C279.503 91.2369 279.131 91.1542 278.759 91.1128C278.676 91.1128 278.552 91.1956 278.552 91.2783C278.51 91.8161 278.51 92.3539 278.469 92.8917C278.428 93.0572 278.428 93.3054 278.345 93.4295L278.304 93.4709C278.262 93.4295 278.221 93.4295 278.221 93.3882C277.724 92.8504 277.642 92.0643 277.187 91.4852C276.938 91.1956 276.566 90.9474 276.194 90.8232C275.821 90.6991 275.408 90.7405 275.035 90.4509C274.911 90.3682 274.746 90.4509 274.746 90.6164C274.622 91.3611 274.373 92.1471 274.58 92.8917C274.787 93.5537 275.366 93.8846 275.904 94.1742C276.194 94.2983 276.442 94.4638 276.69 94.6706C276.814 94.7534 277.062 94.9602 277.021 95.1671C276.938 95.3739 276.607 95.2084 276.442 95.1671C276.111 95.043 275.78 94.8775 275.49 94.712C274.953 94.4224 274.167 94.0501 273.629 94.4638C273.38 94.6293 273.422 94.9602 273.505 95.2084C273.67 95.5808 274.042 95.9117 274.373 96.16C275.159 96.6978 276.111 96.4909 276.938 96.8219C277.145 96.9046 277.683 97.1942 277.6 97.4838C277.559 97.5665 277.393 97.6493 277.311 97.6493C277.104 97.732 276.814 97.732 276.607 97.6906C275.739 97.5252 275.118 96.7805 274.249 96.615C273.877 96.5323 273.38 96.6564 273.05 96.9046C272.801 97.1115 272.801 97.4424 272.884 97.732C273.008 98.063 273.339 98.3526 273.629 98.5594C273.96 98.8076 274.373 98.9317 274.787 98.9731C275.614 99.0145 276.483 98.6835 277.228 99.18C277.311 99.2627 277.476 99.3454 277.476 99.4695C277.517 99.5523 277.393 99.6764 277.311 99.7178C277.021 99.966 276.483 100.049 276.152 100.007C275.697 99.966 275.283 99.7591 274.87 99.5937C274.415 99.4282 274.001 99.3454 273.546 99.3868C273.215 99.4282 272.843 99.635 272.801 100.007C272.76 100.338 272.925 100.669 273.132 100.917C273.422 101.248 273.753 101.497 274.167 101.662C274.58 101.828 275.077 101.828 275.532 101.786C275.987 101.745 276.442 101.621 276.897 101.579C277.021 101.579 277.104 101.538 277.228 101.497C277.352 101.455 277.476 101.373 277.6 101.373C277.724 101.331 277.683 101.497 277.683 101.579C277.683 101.786 277.435 101.91 277.269 101.993C277.104 102.076 276.98 102.2 276.814 102.283C276.649 102.365 276.442 102.407 276.235 102.49C275.863 102.614 275.449 102.738 275.159 102.986C274.87 103.234 274.787 103.689 274.87 104.02C275.077 104.806 276.07 104.848 276.69 104.641C277.104 104.517 277.393 104.268 277.642 103.937C277.931 103.524 278.097 103.027 278.552 102.738C278.676 102.903 278.676 103.11 278.593 103.317C278.469 103.607 278.179 103.855 277.973 104.103C277.517 104.558 276.814 105.137 276.773 105.84C276.773 105.923 276.814 106.006 276.897 106.047C277.269 106.171 277.683 106.213 278.055 106.089C278.386 105.965 278.593 105.675 278.759 105.427C279.048 104.93 279.214 104.31 279.627 103.855C279.627 104.02 279.545 104.144 279.462 104.31C279.296 104.599 279.296 104.93 279.379 105.261C279.503 105.758 279.876 106.171 280.413 105.923C280.703 105.799 280.91 105.51 281.117 105.261C281.324 104.972 281.406 104.599 281.448 104.268C281.489 103.813 281.448 103.4 281.324 102.945C282.192 103.607 283.557 104.062 284.137 102.862C284.592 101.869 283.102 101.993 282.358 101.704C282.482 101.704 282.606 101.704 282.73 101.704C283.061 101.704 283.392 101.745 283.723 101.704C284.343 101.662 284.923 101.373 284.964 100.711C285.005 100.131 284.343 100.173 283.971 100.256C283.64 100.297 283.102 100.462 282.771 100.297C283.475 100.049 284.261 99.7591 284.674 99.0972C284.84 98.8076 285.005 98.3112 284.881 97.9389C284.799 97.6493 284.426 97.6906 284.219 97.7734C283.599 97.9802 283.185 98.518 282.565 98.7663C282.44 98.8076 282.275 98.8904 282.11 98.9317C282.068 98.9317 281.985 98.9731 281.944 98.9731C281.903 98.9731 281.903 98.9731 281.861 98.9731V98.9317C281.903 98.849 281.944 98.7663 281.985 98.6835C282.068 98.518 282.234 98.3939 282.399 98.2698C282.73 98.063 283.061 97.9389 283.392 97.732C283.723 97.4838 283.93 97.1115 284.054 96.7391C284.137 96.3668 284.219 95.9531 284.095 95.6221C283.971 95.2498 283.64 95.1257 283.268 95.1257C282.234 95.2084 282.151 96.3668 281.696 97.0701C281.572 97.2769 281.406 97.4424 281.241 97.5665C281.158 97.6079 280.993 97.8147 280.868 97.7734C280.827 97.7734 280.827 97.4424 280.827 97.4011C280.868 97.1528 280.951 96.9046 281.117 96.6978C281.489 96.16 282.11 95.7463 282.275 95.0843C282.399 94.6293 282.358 94.0087 281.903 93.7605C281.448 93.4709 280.868 93.8846 280.62 94.2983C280.331 94.7948 280.372 95.498 279.917 95.9117C279.751 95.6635 279.751 95.4153 279.793 95.0843C279.876 94.6293 280.082 94.2156 280.248 93.7605C280.413 93.3468 280.537 92.8917 280.537 92.478C280.537 91.9402 280.289 91.5679 279.876 91.4024Z" fill="#BB8568"/>
  <path d="M285.708 113.37C282.192 113.37 279.337 113.122 279.337 112.832L281.654 122.223C281.654 122.223 283.019 122.802 285.791 122.802C288.563 122.802 289.928 122.223 289.928 122.223L292.079 112.832C292.079 113.122 289.225 113.37 285.708 113.37Z" fill="#E6B79A"/>
  <path d="M199.499 123.277L200.574 123.277L200.574 103.295L199.499 103.295L199.499 123.277Z" fill="#855D48"/>
  <path d="M201.832 124.248L202.907 124.248L202.907 107.203L201.832 107.203L201.832 124.248Z" fill="#855D48"/>
  <path d="M185.036 124.248L186.112 124.248L186.112 107.203L185.036 107.203L185.036 124.248Z" fill="#855D48"/>
  <path d="M187.453 123.277L188.528 123.277L188.528 103.295L187.453 103.295L187.453 123.277Z" fill="#855D48"/>
  <path d="M183.234 96.8219V100.007C183.234 102.117 184.971 103.813 187.04 103.813H200.94C201.85 103.813 202.678 103.482 203.298 102.986C204.167 102.283 204.746 101.207 204.746 100.007V96.8219C204.746 94.712 203.009 93.0159 200.94 93.0159H187.04C184.971 93.0159 183.234 94.712 183.234 96.8219Z" fill="#855D48"/>
  <path d="M183.399 109.067V109.481H204.664V109.067C204.664 108.902 204.664 108.736 204.622 108.571C204.415 107.619 203.547 106.875 202.512 106.875H185.592C184.392 106.916 183.399 107.868 183.399 109.067Z" fill="#855D48"/>
  <path d="M176.499 123.277L177.574 123.277L177.574 103.295L176.499 103.295L176.499 123.277Z" fill="#855D48"/>
  <path d="M178.832 124.248L179.907 124.248L179.907 107.203L178.832 107.203L178.832 124.248Z" fill="#855D48"/>
  <path d="M162.036 124.248L163.112 124.248L163.112 107.203L162.036 107.203L162.036 124.248Z" fill="#855D48"/>
  <path d="M164.453 123.277L165.528 123.277L165.528 103.295L164.453 103.295L164.453 123.277Z" fill="#855D48"/>
  <path d="M160.234 96.8219V100.007C160.234 102.117 161.971 103.813 164.04 103.813H177.94C178.85 103.813 179.678 103.482 180.298 102.986C181.167 102.283 181.746 101.207 181.746 100.007V96.8219C181.746 94.712 180.009 93.0159 177.94 93.0159H164.04C161.971 93.0159 160.234 94.712 160.234 96.8219Z" fill="#855D48"/>
  <path d="M160.399 109.067V109.481H181.664V109.067C181.664 108.902 181.664 108.736 181.622 108.571C181.415 107.619 180.547 106.875 179.512 106.875H162.592C161.392 106.916 160.399 107.868 160.399 109.067Z" fill="#855D48"/>
  <path d="M223.499 123.277L224.574 123.277L224.574 103.295L223.499 103.295L223.499 123.277Z" fill="#855D48"/>
  <path d="M225.832 124.248L226.907 124.248L226.907 107.203L225.832 107.203L225.832 124.248Z" fill="#855D48"/>
  <path d="M209.036 124.248L210.112 124.248L210.112 107.203L209.036 107.203L209.036 124.248Z" fill="#855D48"/>
  <path d="M211.453 123.277L212.528 123.277L212.528 103.295L211.453 103.295L211.453 123.277Z" fill="#855D48"/>
  <path d="M207.234 96.8219V100.007C207.234 102.117 208.971 103.813 211.04 103.813H224.94C225.85 103.813 226.678 103.482 227.298 102.986C228.167 102.283 228.746 101.207 228.746 100.007V96.8219C228.746 94.712 227.009 93.0159 224.94 93.0159H211.04C208.971 93.0159 207.234 94.712 207.234 96.8219Z" fill="#855D48"/>
  <path d="M207.399 109.067V109.481H228.664V109.067C228.664 108.902 228.664 108.736 228.622 108.571C228.415 107.619 227.547 106.875 226.512 106.875H209.592C208.392 106.916 207.399 107.868 207.399 109.067Z" fill="#855D48"/>
  <path d="M220.054 77.3781C221.833 77.3781 222.454 75.2682 223.447 74.1099C224.15 73.2825 225.391 73.5307 225.763 72.3723C226.674 69.4351 224.233 67.408 221.047 67.408C217.862 67.408 215.711 69.2282 215.255 71.9173C214.8 74.6063 216.869 77.3781 220.054 77.3781Z" fill="#161616"/>
  <path d="M220.22 75.5169C219.517 74.6895 219.021 73.6553 219.103 72.4969C219.352 69.1873 223.944 69.932 224.812 71.5868C225.723 73.2416 225.598 77.5027 224.44 77.7923C223.985 77.9164 222.992 77.6268 221.999 77.0062L222.62 81.4328H218.896L220.22 75.5169Z" fill="#AC5419"/>
  <path d="M225.144 73.6555C225.392 73.7796 225.557 74.152 225.681 74.4002C225.805 74.6898 225.971 74.9794 226.054 75.2689C226.095 75.4344 226.178 75.5172 226.054 75.6413C225.847 75.8481 225.433 75.8481 225.185 75.8895C225.019 75.9309 224.854 75.9309 224.688 75.9309" fill="#AC5419"/>
  <path d="M225.185 76.7168C224.813 76.6754 224.523 76.5099 224.192 76.3445L224.068 76.2617V76.4272C224.068 76.5513 224.151 76.5513 224.151 76.5927C224.192 76.634 224.233 76.634 224.275 76.6754C224.357 76.7168 224.44 76.7582 224.523 76.7995C224.688 76.8409 224.854 76.9236 225.019 76.965C224.854 76.8823 224.688 76.7995 224.564 76.7168C224.482 76.6754 224.399 76.634 224.357 76.5927C224.275 76.5513 224.233 76.4686 224.233 76.4686L224.109 76.5513C224.44 76.5927 224.813 76.7582 225.185 76.7168Z" fill="#FFCAA7"/>
  <path d="M224.523 73.9037C224.637 73.9037 224.73 73.8111 224.73 73.6968C224.73 73.5826 224.637 73.49 224.523 73.49C224.409 73.49 224.316 73.5826 224.316 73.6968C224.316 73.8111 224.409 73.9037 224.523 73.9037Z" fill="#FFCAA7"/>
  <path d="M223.778 73.4483C223.861 73.4897 223.985 73.4897 224.109 73.4483C224.192 73.4483 224.316 73.4069 224.399 73.3656C224.482 73.3242 224.564 73.3242 224.647 73.3242C224.688 73.3242 224.73 73.3242 224.771 73.3242C224.813 73.3242 224.854 73.3242 224.895 73.3656C224.895 73.2415 224.73 73.2001 224.647 73.1587C224.564 73.1173 224.399 73.1173 224.316 73.1587C224.233 73.2001 224.109 73.2415 224.027 73.2828C223.944 73.3656 223.861 73.4069 223.778 73.4483Z" fill="#FFCAA7"/>
  <path d="M237.927 101.993C236.81 101.124 234.907 100.793 234.121 102.655C233.624 103.813 232.507 107.123 231.39 110.929C230.728 113.163 230.025 116.928 229.28 122.182L231.349 122.761C234.038 116.431 236.024 111.591 237.265 108.24" fill="#AC5419"/>
  <path d="M233.542 120.278C233.749 119.203 238.382 107.247 239.085 103.689C239.416 102.117 234.452 99.7176 233.211 102.531L228.95 119.41L233.542 120.278Z" fill="#D69978"/>
  <path d="M228.965 121.957C229.035 121.752 229.262 121.683 229.404 121.763C229.851 121.964 230.199 122.012 230.475 122.021C230.773 121.992 231.17 121.872 231.709 121.586L231.985 120.859C232.027 120.785 232.105 120.731 232.233 120.754L236.738 122.547C237.085 122.595 237.546 122.609 238.078 122.662C238.61 122.716 238.781 123.154 238.534 123.995C232.449 124.304 229.258 124.472 228.868 124.498C228.747 123.892 228.725 123.439 228.711 123.137C228.689 122.929 228.774 122.535 228.965 121.957Z" fill="#FBF5F2"/>
  <path d="M237.927 101.993C236.81 101.124 234.907 100.793 234.121 102.655C233.624 103.813 232.507 107.123 231.39 110.929C230.728 113.163 230.025 116.928 229.28 122.182L231.349 122.761C234.038 116.431 236.024 111.591 237.265 108.24" fill="#AC5419"/>
  <path d="M233.542 120.278C233.749 119.203 238.382 107.247 239.085 103.689C239.416 102.117 234.452 99.7176 233.211 102.531L228.95 119.41L233.542 120.278Z" fill="#D69978"/>
  <path d="M234.574 119.323C234.483 119.592 234.409 119.819 234.359 119.989L230.257 119.213L234.448 102.613C234.724 102.001 235.194 101.677 235.755 101.548C236.332 101.415 237.01 101.49 237.66 101.703C238.308 101.916 238.904 102.259 239.313 102.634C239.736 103.022 239.895 103.382 239.841 103.638L239.84 103.641C239.493 105.397 238.167 109.254 236.892 112.831C236.531 113.842 236.177 114.824 235.851 115.728C235.601 116.422 235.368 117.07 235.161 117.649C234.924 118.313 234.722 118.884 234.574 119.323Z" stroke="#6A6AF4" stroke-width="0.5"/>
  <path d="M228.965 121.957C229.035 121.752 229.262 121.683 229.404 121.763C229.851 121.964 230.199 122.012 230.475 122.021C230.773 121.992 231.17 121.872 231.709 121.586L231.985 120.859C232.027 120.785 232.105 120.731 232.233 120.754L236.738 122.547C237.085 122.595 237.546 122.609 238.078 122.662C238.61 122.716 238.781 123.154 238.534 123.995C232.449 124.304 229.258 124.472 228.868 124.498C228.747 123.892 228.725 123.439 228.711 123.137C228.689 122.929 228.774 122.535 228.965 121.957Z" fill="#FBF5F2"/>
  <path d="M237.347 108.281C237.182 109.481 237.016 110.846 236.851 112.294C236.437 115.769 236.561 123.257 236.685 125.409C236.768 126.774 238.63 126.526 238.795 125.45C239.002 124.374 242.725 107.413 242.849 103.772C242.891 102.572 240.533 101.414 239.126 102.241" fill="#AC5419"/>
  <path d="M236.23 124.498C236.313 124.333 236.52 124.25 236.685 124.333C237.141 124.54 237.471 124.664 237.72 124.664C238.051 124.664 238.423 124.581 238.961 124.333L239.25 123.629C239.292 123.547 239.374 123.505 239.499 123.547L243.925 125.657C244.297 125.739 244.711 125.781 245.249 125.863C245.787 125.946 245.911 126.401 245.663 127.229C239.581 127.063 236.354 126.98 236.024 126.98C235.941 126.401 235.899 125.946 235.899 125.615C235.941 125.408 236.024 125.036 236.23 124.498C236.23 124.54 236.23 124.498 236.23 124.498Z" fill="#FBF5F2"/>
  <path d="M241.153 101.869C237.182 101 226.426 98.5597 224.357 98.3115L214.18 98.0632C214.18 104.062 216.249 107.33 221.379 107.496C224.936 107.578 236.809 106.544 237.14 106.71C237.347 106.834 236.975 111.591 236.065 121.023L240.698 121.148C240.74 120.155 243.139 109.605 243.263 105.055C243.305 103.772 242.849 102.242 241.153 101.869Z" fill="#EAC7B2"/>
  <path d="M238.269 106.495L238.26 106.49L238.252 106.486C238.215 106.467 238.179 106.46 238.162 106.457C238.141 106.453 238.119 106.45 238.098 106.448C238.057 106.445 238.007 106.443 237.951 106.442C237.839 106.44 237.688 106.443 237.505 106.449C237.138 106.462 236.631 106.488 236.023 106.525C235.128 106.578 234.011 106.652 232.796 106.733C232.359 106.762 231.909 106.792 231.453 106.822C227.993 107.05 224.15 107.287 222.385 107.246C219.877 107.165 218.159 106.33 217.057 104.819C215.977 103.339 215.46 101.171 215.431 98.3194L225.339 98.5611C226.37 98.687 229.55 99.3533 232.988 100.102C235.06 100.553 237.215 101.032 239.036 101.436C240.244 101.704 241.306 101.94 242.099 102.113C242.872 102.283 243.352 102.711 243.64 103.24C243.933 103.779 244.033 104.434 244.013 105.047L244.013 105.048C243.951 107.3 243.325 111.055 242.703 114.39C242.466 115.662 242.231 116.87 242.029 117.905C241.967 118.223 241.908 118.524 241.853 118.807C241.737 119.406 241.639 119.919 241.569 120.314C241.528 120.543 241.495 120.74 241.474 120.892L237.339 120.781C237.78 116.197 238.093 112.736 238.27 110.395C238.361 109.202 238.417 108.297 238.437 107.68C238.447 107.373 238.448 107.132 238.44 106.961C238.436 106.877 238.429 106.801 238.418 106.74C238.412 106.71 238.403 106.674 238.389 106.639C238.378 106.614 238.346 106.542 238.269 106.495Z" stroke="#6A6AF4" stroke-width="0.5"/>
  <path d="M232.631 84.9074L238.878 85.652C239.043 85.0729 240.45 76.8816 240.45 76.8816L234.079 76.2197C234.079 76.2197 233.748 78.2882 233.417 80.3981C233.376 80.6463 233.334 80.8945 233.293 81.1014C233.251 81.3082 233.251 81.4737 233.21 81.6805C233.21 81.7633 233.169 81.846 233.169 81.9701C233.127 82.0942 233.127 82.2597 233.086 82.3838C233.086 82.4252 233.086 82.4666 233.086 82.5079C233.086 82.5907 233.127 82.632 233.169 82.6734C233.376 82.9216 233.913 82.5907 234.162 82.963C234.286 83.1285 233.831 83.4181 232.838 83.749C232.755 84.3282 232.672 84.7419 232.631 84.9074Z" fill="#6A6AF4"/>
  <path d="M234.286 91.5267C235.279 90.8234 236.189 90.327 237.058 90.0788C238.713 89.6237 239.375 89.2927 240.161 88.2585C240.574 87.7207 240.947 86.6037 240.533 86.2727C240.243 86.0245 238.671 87.2242 238.009 87.3484C237.347 87.4725 237.968 85.9418 237.596 86.1073C237.141 86.1073 236.768 86.7278 236.437 87.9689L234.121 89.2514L234.286 91.5267Z" fill="#AC5419"/>
  <path d="M225.64 85.6107L230.894 82.7148C231.762 81.6805 232.631 80.8531 233.459 80.3153C233.707 80.1912 234.162 80.1498 233.748 80.8945C233.334 81.6391 232.921 82.4665 233.128 82.6734C233.334 82.9216 233.872 82.5907 234.12 82.963C234.286 83.2112 233.376 83.6249 231.349 84.1627L227.543 87.6378L225.64 85.6107Z" fill="#AC5419"/>
  <path d="M223.116 84.9486C224.936 84.9486 227.419 84.5349 230.025 82.8801L231.059 85.1555C229.239 86.9344 226.715 88.4237 224.481 88.3409C222.744 88.3409 221.834 86.2311 223.116 84.9486Z" fill="#8B8BF6"/>
  <path d="M225.557 88.6305C227.501 89.127 230.77 88.5478 235.362 86.893C236.52 89.2511 237.016 90.9473 236.934 91.9401C233.004 94.0086 229.611 94.9188 226.839 94.9601C226.922 96.6149 226.715 98.187 226.053 99.6349C224.647 102.572 216.538 99.8418 213.808 100.38C212.112 94.836 215.421 92.5607 215.421 89.0029C215.421 85.1141 218.565 79.1155 219.02 79.1155H223.199C223.447 82.1355 224.605 85.4037 225.557 88.6305Z" fill="#6A6AF4"/>
  <path d="M221.709 73.4892C221.585 73.4064 221.42 73.3651 221.254 73.3651C220.716 73.3651 220.303 73.7787 220.303 74.2752C220.303 74.482 220.385 74.6889 220.509 74.813C220.303 75.1853 220.137 75.5577 220.096 75.9714C219.31 75.9714 216.455 73.0341 219.31 70.2209C222.164 67.4492 226.26 71.4207 225.019 71.6275C224.274 71.8757 222.868 72.5377 221.709 73.4892Z" fill="#161616"/>
  <path d="M80.5526 56.6463C81.4189 55.6226 82.0096 54.4019 81.8914 53.0237C81.6158 49.0466 76.0637 49.9129 74.9611 51.9211C73.8979 53.9293 74.0161 59.0483 75.3943 59.4027C75.9455 59.5602 77.1268 59.2058 78.3475 58.4577L77.5994 63.8129H82.0883L80.5526 56.6463Z" fill="#7A380C"/>
  <path d="M72.9933 49.1263C73.072 48.8113 73.3477 48.5357 73.6627 48.4569C73.7414 48.4176 73.8202 48.4176 73.8989 48.4176C73.9383 48.4176 73.9383 48.4176 73.9383 48.4176C73.9383 48.4176 73.9383 48.3782 73.9383 48.3388C73.9383 48.2994 73.9777 48.2207 73.9777 48.1813C74.0564 47.9844 74.1746 47.8269 74.2927 47.6694C74.5683 47.3938 74.9227 47.2363 75.2771 47.1969C75.474 47.1969 75.6709 47.1969 75.8678 47.2756C75.9859 47.315 76.0647 47.3544 76.1434 47.3938C76.1828 47.3938 76.2615 47.4725 76.3009 47.4725C76.3403 47.4725 76.3797 47.3938 76.419 47.3544C76.7341 47.1181 77.1278 47 77.5216 47C77.9547 47 78.3879 47.0394 78.7817 47.315C78.8604 47.3544 78.9392 47.4331 79.0179 47.5119C79.0573 47.5513 79.0967 47.5907 79.136 47.63C79.1754 47.6694 79.1754 47.6694 79.2148 47.7088C79.2542 47.7482 79.2542 47.7482 79.2936 47.7482C79.4904 47.63 79.6873 47.5907 79.8842 47.63C80.0023 47.63 80.1205 47.6694 80.2386 47.7482C80.278 47.7482 80.3567 47.8269 80.3961 47.8269C80.4355 47.8269 80.5142 47.7482 80.5536 47.7482C80.7899 47.6694 81.0261 47.63 81.2624 47.6694C81.4987 47.7088 81.7743 47.8269 81.9712 47.945C82.0893 48.0238 82.1681 48.1026 82.2468 48.1813C82.2862 48.2207 82.2862 48.2601 82.3256 48.2994C82.3649 48.3388 82.4043 48.3388 82.4043 48.3782C82.4043 48.3782 82.68 48.2601 82.7193 48.2601C82.8768 48.2207 82.995 48.2207 83.1525 48.2601C83.4281 48.3388 83.625 48.5357 83.8219 48.7326C83.9006 48.8507 83.9794 48.9295 84.0581 49.0476C84.0975 49.087 84.1369 49.1657 84.1369 49.2051C84.1369 49.2445 84.1763 49.2839 84.1763 49.2839C84.2157 49.3232 84.2156 49.3232 84.255 49.3232C84.4519 49.402 84.6488 49.5201 84.8063 49.6776C84.9638 49.8351 85.0426 50.0714 85.0819 50.2683V50.347C85.0819 50.347 85.1213 50.347 85.1607 50.347C85.2001 50.347 85.2788 50.347 85.3182 50.3864C85.4363 50.4258 85.5151 50.4258 85.5938 50.5045C85.9482 50.7014 86.2239 51.0164 86.342 51.4102C86.4601 51.804 86.4601 52.2765 86.3026 52.6309C86.2632 52.7096 86.2632 52.749 86.2239 52.8278C86.1845 52.8671 86.1845 52.8671 86.2239 52.9065C86.2239 52.9459 86.2632 52.9853 86.3026 53.0247C86.3814 53.1428 86.4207 53.3003 86.4207 53.4184C86.4601 53.6547 86.4995 53.8909 86.4601 54.1272C86.4208 54.2453 86.4208 54.3241 86.342 54.4422C86.3026 54.4816 86.2632 54.521 86.2632 54.5997C86.2632 54.6391 86.2239 54.6391 86.1845 54.6785L86.1451 54.7179C86.1057 54.7572 86.1057 54.7179 86.1451 54.7572C86.1451 54.836 86.1845 54.8754 86.2239 54.9541C86.2632 55.0329 86.2632 55.0722 86.3026 55.151C86.342 55.2691 86.3814 55.4266 86.4207 55.5841C86.4601 55.8598 86.4601 56.1354 86.342 56.4111C86.3026 56.5292 86.2239 56.6079 86.1057 56.6867C86.0664 56.7261 86.027 56.7654 85.9482 56.7654C85.9089 56.7654 85.8695 56.7654 85.8695 56.8048C85.8695 56.8442 85.8695 56.8836 85.8695 56.923C85.9089 57.1986 85.9482 57.4742 85.8301 57.7499C85.7513 57.9861 85.5938 58.2224 85.3576 58.3799C84.9244 58.6555 84.3732 58.6555 83.94 58.4193C83.8219 58.3405 83.7038 58.3011 83.625 58.183C83.3887 58.498 82.8768 58.498 82.5224 58.4193C82.0893 58.3011 81.7349 57.9861 81.4986 57.5924C81.223 57.9468 80.6324 57.8286 80.4355 57.4349C80.3961 57.3561 80.3567 57.238 80.3567 57.1592C80.3567 57.1198 80.3567 57.0411 80.3567 57.0017C80.3567 56.923 80.3174 56.8836 80.278 56.8048C80.2386 56.6867 80.1992 56.5292 80.1992 56.4111C80.1992 56.3323 80.1992 56.2535 80.1992 56.2142C80.1992 56.1354 80.1992 56.096 80.1598 56.0173C80.278 56.0173 80.3961 56.0173 80.5142 55.9779C80.6324 55.9385 80.7111 55.8598 80.7899 55.781C80.9474 55.5841 81.0655 55.3479 81.1443 55.1116C81.3018 54.5997 81.223 53.9697 80.7111 53.6941C80.4749 53.5759 79.7267 53.5759 79.4511 53.6153C79.136 53.6941 78.7817 54.3635 78.7817 54.4422C78.7817 54.4816 78.7816 54.521 78.7423 54.5603C78.6635 54.5997 78.5454 54.521 78.4666 54.4816C78.3485 54.4028 78.3091 54.2847 78.2304 54.1666C78.1122 53.9303 77.9941 53.6547 77.9154 53.379C77.8366 53.1822 77.8366 52.9459 77.7579 52.749C77.6791 52.5521 77.561 52.3552 77.3641 52.2371C77.1672 52.119 76.9309 52.0402 76.6947 51.9615C76.4584 51.8827 76.2615 51.804 76.0647 51.6071C76.0253 51.5677 75.9859 51.5283 75.9465 51.489C75.9072 51.4496 75.9071 51.3708 75.8678 51.3708C75.8284 51.3314 75.7103 51.4102 75.6709 51.4496C75.4346 51.6071 75.2377 51.8433 75.0409 52.0796C74.8833 52.3159 74.7258 52.5521 74.6471 52.8278C74.5683 53.0247 74.529 53.2609 74.3715 53.4184C74.2927 53.4972 73.8202 53.5365 73.6627 53.4578C73.5052 53.379 73.3477 53.2215 73.2689 53.1428C73.2295 53.0247 73.1901 52.9065 73.2295 52.8278C73.2295 52.749 73.2689 52.7096 73.2689 52.6309C73.2689 52.5915 73.3083 52.5128 73.3083 52.4734C73.3477 52.3946 73.4658 52.3159 73.5445 52.2765C73.4264 52.1584 73.3477 52.0402 73.2689 51.9221C73.1901 51.7646 73.1508 51.6071 73.1508 51.4496C73.1508 51.3314 73.1508 51.2133 73.2295 51.0952C73.3083 50.9771 73.4264 50.8983 73.5445 50.8195C73.387 50.7014 73.2295 50.5439 73.1114 50.347C72.9933 49.9533 72.8751 49.5201 72.9933 49.1263Z" fill="#161616"/>
  <path d="M74.3705 54.9548C74.3705 55.6242 73.7011 56.1755 73.7404 56.8055C74.0161 56.8449 74.2917 56.8843 74.5674 56.9237" fill="#7A380C"/>
  <path d="M74.5308 57.868C74.767 57.9467 75.0033 57.9074 75.2002 57.7892C75.397 57.6711 75.5546 57.5136 75.5939 57.2773C75.397 57.3955 75.2395 57.4742 75.0427 57.553C74.9245 57.6711 74.7276 57.7499 74.5308 57.868Z" fill="#161616"/>
  <path d="M75.5152 54.6394C75.5152 54.5213 75.4758 54.4032 75.397 54.3244C75.3183 54.2457 75.2002 54.2063 75.082 54.2063C74.9639 54.2063 74.8458 54.2063 74.7276 54.2457C74.6095 54.2851 74.5308 54.4032 74.5308 54.5213C74.6489 54.4819 74.7276 54.4819 74.8064 54.4426C74.8851 54.4426 74.9639 54.4426 75.0427 54.4426C75.1214 54.4426 75.2002 54.4819 75.2789 54.4819C75.3183 54.5607 75.3971 54.5607 75.5152 54.6394Z" fill="#161616"/>
  <path d="M74.7681 55.2685C74.8768 55.2671 74.9637 55.1777 74.9623 55.069C74.9608 54.9603 74.8715 54.8733 74.7628 54.8748C74.6541 54.8763 74.5671 54.9656 74.5686 55.0743C74.57 55.183 74.6593 55.27 74.7681 55.2685Z" fill="#161616"/>
  <path d="M74.7267 66.2146L68.2295 62.6707C67.1663 61.4106 66.1032 60.3868 65.04 59.678C64.725 59.5599 64.1737 59.4812 64.6856 60.3868C65.1975 61.3319 65.7094 62.3163 65.4338 62.5919C65.1581 62.8676 64.4887 62.4738 64.1737 62.9463C63.9768 63.2613 65.0794 63.7732 67.5601 64.4426L72.2853 68.7347L74.7267 66.2146Z" fill="#7A380C"/>
  <path d="M78.2697 65.7028C75.9858 65.6634 72.9932 65.1909 69.7249 63.1433L68.4648 65.9784C70.7093 68.1835 73.8201 69.9949 76.5765 69.9161C78.7422 69.8374 79.8447 67.2385 78.2697 65.7028Z" fill="#855D48"/>
  <path d="M53.4632 56.2141C56.3771 55.5447 59.291 54.7178 62.1655 53.9697C62.5199 53.8909 63.9768 53.3003 64.2131 53.4184C64.2131 53.4184 64.4887 54.9541 64.5281 55.3872C64.6856 56.8442 64.9218 58.3011 65.1187 59.7581C65.2762 60.7425 65.3944 61.6088 65.4731 62.0813C65.4731 62.1994 65.5125 62.2782 65.5125 62.3176C65.5125 62.4751 65.5125 62.5538 65.4337 62.6326C65.1581 62.9082 64.4887 62.5144 64.1737 62.987C64.0162 63.2232 64.6856 63.5776 66.1819 64.0895C66.9694 65.9796 69.7258 69.996 70.0408 70.311C67.7964 71.2955 65.5912 72.2799 63.3468 73.2249C62.7955 73.4612 59.5272 75.0363 58.9366 74.8788C58.3459 74.7212 57.4796 72.9099 57.0071 71.9255C55.8652 69.5629 54.9989 67.0428 54.4082 64.4833C54.2507 63.7745 52.8725 56.3323 53.4632 56.2141Z" fill="#6A6AF4"/>
  <path d="M63.504 76.0591C62.1652 75.114 60.9445 74.4446 59.8026 74.1296C57.5975 73.5389 56.7312 73.0664 55.668 71.6882C55.0774 70.9401 54.6049 69.4831 55.1561 69.0106C55.5105 68.6956 57.6763 70.2707 58.5425 70.4675C59.4088 70.6644 58.6213 68.5775 59.0938 68.7744C59.6845 68.7744 60.1964 69.6013 60.6295 71.2551L63.7009 72.9483L63.504 76.0591Z" fill="#7A380C"/>
  <path d="M73.9789 72.2792C71.577 72.8699 67.5211 72.1611 61.8509 70.1529C60.4333 73.0667 59.8033 75.1537 59.882 76.3744C64.7648 78.9339 68.8993 80.0364 72.3645 80.1152C72.2464 82.1628 72.522 84.0923 73.3489 85.8642C75.0815 89.5263 85.0832 86.1398 88.4696 86.8092C90.5959 79.9577 86.5008 77.1619 86.5008 72.7517C86.5008 67.9478 82.6418 60.5449 82.0512 60.5449H76.8534C76.5778 64.2463 75.1602 68.2628 73.9789 72.2792Z" fill="#855D48"/>
  <path d="M92.7662 131.308H2.16016V132.725H92.7662V131.308Z" fill="#ECCBB9"/>
  <path d="M92.7672 132.687H2.16113V137.097H92.7672V132.687Z" fill="#FBF5F2"/>
  <path d="M-3.07666 84.4479V80.2739H98.0036V84.4479H94.7747H0.191616H-3.07666Z" fill="#FBF5F2"/>
  <path d="M95.7168 116.029H-0.756348V131.267H95.7168V116.029Z" fill="#F3E2D9"/>
  <path d="M95.7178 86.1812H-0.755371V115.123H95.7178V86.1812Z" fill="#F3E2D9"/>
  <path d="M95.7168 115.122H-0.756348V116.027H95.7168V115.122Z" fill="#ECCBB9"/>
  <path d="M95.7188 84.4478H-0.754395V86.1803H95.7188V84.4478Z" fill="#ECCBB9"/>
  <path d="M39.0137 77.0829L47.4403 78.1067C47.6372 77.3192 49.5667 66.2543 49.5667 66.2543L40.9038 65.3486C40.9038 65.3486 40.4706 68.1444 39.9981 71.0189C39.9587 71.3339 39.88 71.6489 39.8406 72.0033C39.8012 72.2396 39.7618 72.5152 39.7225 72.7515C39.6831 72.8696 39.6831 72.9877 39.6437 73.1059C39.6043 73.3028 39.565 73.4996 39.565 73.6965C39.565 73.7753 39.565 73.8146 39.565 73.8934C39.565 73.9722 39.6437 74.0509 39.6831 74.1297C39.9587 74.4447 40.7069 74.0115 41.0613 74.5234C41.2188 74.7597 40.6281 75.1141 39.2499 75.5866C39.1318 76.3348 39.053 76.886 39.0137 77.0829Z" fill="#6A6AF4"/>
  <path d="M41.2594 86.06C42.5982 85.0756 43.8583 84.4456 45.0002 84.1306C47.2053 83.5005 48.1109 83.028 49.2135 81.6498C49.8041 80.9017 50.2767 79.4447 49.7254 78.9328C49.371 78.6178 47.2053 80.2323 46.2996 80.3898C45.3939 80.5867 46.2209 78.4603 45.7483 78.6966C45.1577 78.6966 44.6064 79.5629 44.1733 81.2167L41.0625 82.9493L41.2594 86.06Z" fill="#FFCAA7"/>
  <path d="M16.5317 95.4722L26.3759 121.5L33.2669 140.677H37.2046L27.7148 95.4722H16.5317Z" fill="#C08C65"/>
  <path d="M14.128 95.4722C14.0099 104.411 14.0886 116.421 13.8524 116.972C13.6948 117.326 8.53648 121.579 -1.66211 129.651L0.346107 133.116C12.4348 125.32 18.7745 120.91 19.3651 119.886C20.3101 118.311 24.9566 104.017 27.3586 95.4722H14.128Z" fill="#C08C65"/>
  <path d="M-5.2238 131.992L-1.81154 129.382L0.944945 132.672C1.17475 135.153 1.96475 137.935 3.42582 141.028L2.79278 141.56L-2.18913 135.614L-3.60732 133.308L-3.90877 133.562L-5.2238 131.992Z" fill="#855D48"/>
  <path d="M32.9121 144.338L33.109 140.046H37.4011C39.4487 141.463 42.0869 142.645 45.3946 143.511V144.338H37.6373L34.9597 143.944V144.338H32.9121Z" fill="#855D48"/>
  <path d="M22.0835 65.387C21.1385 64.2844 20.5084 62.9062 20.6266 61.4099C20.9416 57.0391 27.045 57.9841 28.2263 60.1892C29.4076 62.3943 29.2895 67.9858 27.7538 68.419C27.1237 68.5765 25.8243 68.1827 24.5249 67.3952L25.3518 73.2623H20.4297L22.0835 65.387Z" fill="#FFCAA7"/>
  <path d="M26.2571 57.7875C25.5877 57.5906 24.6032 57.5119 24.2095 57.5513C24.4457 57 24.5245 56.37 24.4457 55.7793C24.367 55.1887 24.0913 54.6768 23.8551 54.1649C23.7369 53.9286 23.6188 53.6923 23.4219 53.4955C23.225 53.2986 22.9888 53.1804 22.7131 53.1411C22.4375 53.0623 22.1619 53.1017 21.9256 53.1411C21.8075 53.1804 21.6893 53.2198 21.6106 53.2592C21.4925 53.2986 21.4531 53.2198 21.335 53.1411C21.1381 52.9836 20.8231 52.8654 20.5868 52.826C20.3112 52.7867 19.9961 52.826 19.7205 52.9442C19.4449 53.0229 19.2086 53.1804 19.0117 53.4167C18.933 53.4955 18.8542 53.6136 18.8148 53.7317C18.7755 53.7711 18.7755 53.8105 18.7361 53.8498C18.6967 53.8498 18.618 53.8498 18.5786 53.8892C18.1061 54.0467 17.7123 54.4011 17.5154 54.8736C17.3973 55.1493 17.3185 55.6218 17.3579 56.1337C17.3579 56.6456 17.8698 58.0632 18.3029 58.5357C18.6967 58.9688 19.2874 59.2838 19.8386 59.402C19.4449 59.8351 19.2086 60.3864 19.0117 60.8983C18.8148 61.4889 18.6967 62.119 18.6573 62.749C18.618 63.3397 18.618 63.9697 18.7361 64.5603C18.8542 65.1116 19.1299 65.5448 19.6024 65.8204C19.7993 65.9385 20.0355 66.0566 20.2718 66.1354C20.508 66.2142 20.7443 66.2929 20.9806 66.3717C21.4137 66.4504 21.965 66.4504 22.3194 66.096C22.4375 65.9779 22.595 65.8204 22.6738 65.6629C22.7131 65.6235 22.7131 65.5841 22.6738 65.5054C22.6344 65.4266 22.5556 65.3872 22.4769 65.3479C22.1225 65.0329 21.9256 64.6391 21.8469 64.1666C21.8075 63.694 21.9256 63.064 22.3981 62.8671C22.9888 62.5915 23.6188 62.9065 24.1307 63.1821C24.367 62.434 24.8001 61.7252 25.5089 61.3708C26.2964 60.977 27.1627 60.9377 27.9503 60.5833C28.1471 60.5045 28.3834 60.3864 28.5015 60.2289C28.5803 60.1501 28.659 60.0714 28.659 59.9532C28.6984 59.8351 28.6197 59.717 28.5409 59.5989C28.2259 59.0476 26.9658 57.9844 26.2571 57.7875Z" fill="#AC5419"/>
  <path d="M28.9334 63.4583C28.894 64.2064 29.5635 64.7971 29.6816 65.5058C29.7603 66.254 28.8547 66.0177 28.3428 66.1752" fill="#FFCAA7"/>
  <path d="M28.6209 66.922C28.3846 67.0007 28.1484 66.9613 27.9121 66.922C27.6758 66.8432 27.5183 66.7644 27.3214 66.7644L27.5183 66.6069C27.5183 66.6857 27.5183 66.7251 27.5577 66.8038C27.5971 66.8826 27.6758 66.9613 27.7546 67.0795C27.8333 67.1582 27.9121 67.2763 27.9908 67.3551C28.0696 67.4732 28.1484 67.552 28.1877 67.7095C27.9908 67.552 27.7546 67.4732 27.5183 67.3157C27.4002 67.237 27.3214 67.1582 27.2033 67.0007C27.1246 66.8826 27.0458 66.6857 27.0852 66.4888L27.1246 66.3313H27.2821C27.5577 66.3707 27.7546 66.4888 27.9515 66.6069C28.2271 66.7644 28.3846 66.8826 28.6209 66.922Z" fill="#AC5419"/>
  <path d="M28.2641 63.5768C28.3946 63.5768 28.5004 63.471 28.5004 63.3405C28.5004 63.21 28.3946 63.1042 28.2641 63.1042C28.1336 63.1042 28.0278 63.21 28.0278 63.3405C28.0278 63.471 28.1336 63.5768 28.2641 63.5768Z" fill="#AC5419"/>
  <path d="M28.699 62.7496C28.5809 62.6709 28.4627 62.6709 28.384 62.6709C28.2658 62.6709 28.1871 62.6709 28.069 62.6709H27.7146C27.5964 62.6709 27.4783 62.6709 27.3208 62.6709C27.3602 62.5134 27.5177 62.4346 27.6358 62.3559C27.7539 62.2771 27.9115 62.2771 28.0296 62.2771C28.1871 62.2771 28.3052 62.3165 28.4627 62.3952C28.6202 62.4346 28.7384 62.5921 28.699 62.7496Z" fill="#AC5419"/>
  <path d="M29.5649 78.0667L36.6528 74.1684C37.8341 72.7508 39.0154 71.6877 40.1573 70.9001C40.5117 70.7426 41.1023 70.6639 40.5511 71.6877C39.9604 72.7114 39.4091 73.814 39.7242 74.129C39.9998 74.444 40.748 74.0109 41.1023 74.5228C41.3386 74.8772 40.0785 75.4284 37.3615 76.1766L32.2032 80.9018L29.5649 78.0667Z" fill="#FFCAA7"/>
  <path d="M27.958 81.5988C25.8333 81.5273 24.743 78.9876 26.2062 77.4503C28.6507 77.3992 31.8692 76.8866 35.3201 74.7709L36.5119 77.4609C34.1022 79.8231 30.8033 81.6733 27.958 81.5988Z" fill="#855D48" stroke="#FBF5F2" stroke-width="0.5"/>
  <path d="M29.2065 82.2341L29.247 82.3702L29.3847 82.4052C30.7534 82.7525 32.5658 82.7168 34.7954 82.3254C36.9778 81.9423 39.5791 81.2147 42.5878 80.1505C43.3028 81.652 43.8263 82.9408 44.1608 84.0141C44.4872 85.0612 44.628 85.8858 44.6021 86.4955C39.3637 89.2323 34.8758 90.4199 31.1735 90.497L30.9155 90.5024L30.9291 90.7601C31.0457 92.9763 30.7727 95.0587 29.8895 96.9404C29.4696 97.8235 28.5315 98.3142 27.2076 98.5332C25.888 98.7515 24.2491 98.6882 22.5302 98.5212C21.5003 98.4211 20.4591 98.2861 19.4472 98.1548C18.7647 98.0663 18.0955 97.9795 17.4522 97.9063C15.9956 97.7407 14.6714 97.645 13.7132 97.7869C12.6557 94.2034 13.1815 91.668 13.9848 89.4388C14.1894 88.8708 14.4121 88.3228 14.6332 87.7788L14.6374 87.7684C14.8593 87.2225 15.0796 86.6798 15.2741 86.1332C15.6634 85.0387 15.9536 83.9156 15.9536 82.6747C15.9536 80.0885 17.0001 76.7797 18.1341 74.0994C18.6993 72.7633 19.282 71.5936 19.7581 70.7606C19.9966 70.3432 20.2055 70.0154 20.3698 69.7948C20.4526 69.6836 20.5189 69.6066 20.5679 69.5598C20.5784 69.5498 20.587 69.5423 20.5938 69.5366H25.9894C26.3097 72.8025 27.3915 76.3143 28.466 79.8021C28.7165 80.6152 28.9666 81.427 29.2065 82.2341ZM20.6115 69.5234C20.6139 69.5219 20.6138 69.5222 20.6112 69.5235L20.6115 69.5234Z" fill="#855D48" stroke="#FBF5F2" stroke-width="0.5"/>
  <path d="M53.9772 114.413C52.6778 115.082 51.2996 115.712 49.882 116.185C42.5579 118.784 24.4052 118.784 17.0811 116.264C15.5848 115.752 14.1279 115.122 12.7497 114.413L11.6865 115.594C13.1041 116.342 14.6004 116.972 16.1361 117.524C19.9557 118.862 29.2486 119.571 33.5406 119.571C37.9115 119.571 46.85 118.862 50.7483 117.445C52.2053 116.933 53.6228 116.303 55.001 115.594L53.9772 114.413Z" fill="#855D48"/>
  <path d="M16.2529 152.369C15.8198 151.936 14.8747 151.661 13.7722 151.661H12.5515V115.158V114.41H11.2521H9.91327V115.158V151.621H8.69259C7.59004 151.621 6.64499 151.936 6.21185 152.33C6.05434 152.488 5.97559 152.645 5.97559 152.842V152.999H16.4498V152.842C16.4498 152.684 16.3711 152.527 16.2529 152.369Z" fill="#855D48"/>
  <path d="M13.3379 113.977H12.0385V109.724H10.424V113.977H9.16396C8.96708 113.977 8.80957 114.135 8.80957 114.331C8.80957 114.528 8.96708 114.686 9.16396 114.686H10.424V115.198H12.0385V114.686H13.3379C13.5348 114.686 13.6923 114.528 13.6923 114.331C13.6923 114.135 13.5348 113.977 13.3379 113.977Z" fill="#855D48"/>
  <path d="M12.2771 106.221C11.9621 106.103 11.6077 106.024 11.214 106.024C10.1114 106.024 9.20575 106.654 8.85136 107.52C8.7726 107.757 8.69385 107.993 8.69385 108.269C8.69385 109.489 9.7964 110.474 11.1746 110.474C12.5528 110.474 13.6553 109.489 13.6553 108.269C13.6947 107.324 13.1434 106.575 12.2771 106.221Z" fill="#855D48"/>
  <path d="M60.2358 152.173C59.8027 151.74 58.8577 151.464 57.7551 151.464H56.5344V114.962V114.214H55.235H53.8962V114.962V151.464H52.6755C51.5729 151.464 50.6279 151.779 50.1948 152.173C50.0373 152.33 49.9585 152.488 49.9585 152.685V152.842H60.4327V152.685C60.4327 152.488 60.354 152.33 60.2358 152.173Z" fill="#855D48"/>
  <path d="M57.3208 113.821H56.0214V109.568H54.4069V113.821H53.1469C52.95 113.821 52.7925 113.979 52.7925 114.175C52.7925 114.372 52.95 114.53 53.1469 114.53H54.4069V115.042H56.0214V114.53H57.3208C57.5177 114.53 57.6752 114.372 57.6752 114.175C57.6752 113.979 57.5177 113.821 57.3208 113.821Z" fill="#855D48"/>
  <path d="M56.262 106.024C55.947 105.906 55.5926 105.827 55.1988 105.827C54.0963 105.827 53.1906 106.457 52.8362 107.324C52.7575 107.56 52.6787 107.796 52.6787 108.072C52.6787 109.293 53.7813 110.277 55.1594 110.277C56.5376 110.277 57.6402 109.293 57.6402 108.072C57.6796 107.127 57.1283 106.379 56.262 106.024Z" fill="#855D48"/>
  </g>
  <defs>
  <clipPath id="clip0_2857_16597">
  <rect width="282" height="158.63" fill="white"/>
  </clipPath>
  </defs>
  </svg>
