<svg width="282" height="159" viewBox="0 0 282 159" fill="none" xmlns="http://www.w3.org/2000/svg">
  <g clip-path="url(#clip0_2857_18195)">
  <rect width="282" height="158.63" fill="#FEF3FD"/>
  <rect x="-25.8501" y="50.8501" width="333.7" height="109.667" fill="#FDDBFA"/>
  <path d="M225.31 105.346L237.372 112.868C232.81 119.955 227.9 122.111 221.674 118.35C217.393 115.776 206.912 106.484 206.521 106.483" fill="#F983F1"/>
  <path d="M203.56 99.1464C205.113 100.332 206.068 102.893 203.904 104.463C202.527 105.444 198.399 108.19 193.684 110.935C190.933 112.503 186.026 114.854 179.161 117.593L177.621 115.03C185.295 109.142 191.197 104.826 195.326 102.079C202.206 97.568 203.56 99.1464 203.56 99.1464Z" fill="#CB7A43"/>
  <path d="M207.254 102.133C207.249 102.722 207.246 103.116 207.047 103.508C205.652 106.847 203.288 109.594 200.732 111.947C198.37 114.301 195.621 116.456 192.676 118.612C191.694 119.396 190.152 117.426 190.745 116.444C191.339 115.463 200.434 101.526 202.793 99.369C203.974 98.1923 206.88 100.362 207.254 102.133C207.254 102.133 207.256 101.936 207.254 102.133Z" fill="#CB7A43"/>
  <path d="M181.717 117.209C181.829 117.024 181.778 116.747 181.451 116.563C180.849 116.471 180.358 116.195 180.144 115.826C179.929 115.457 179.551 114.995 179.398 114.164L179.959 113.24C180.071 113.055 179.908 112.963 179.908 112.963L173.516 110.849C173.026 110.572 172.648 110.111 171.995 109.743C171.453 109.19 170.79 109.56 170.28 110.762C175.908 116.664 178.829 119.8 179.044 120.169C179.819 119.614 180.319 119.151 180.707 118.873C180.931 118.503 181.268 117.948 181.717 117.209Z" fill="#CB9F2D"/>
  <path d="M182.363 109.936C183.736 109.349 198.675 99.3463 203.383 97.3895C205.345 96.4101 210.176 102.524 206.636 105.074L184.851 115.847L182.363 109.936Z" fill="#A558A0"/>
  <path d="M195.821 116.801C195.628 116.603 195.435 116.404 195.237 116.602C194.648 116.799 194.059 116.995 193.864 116.995C193.473 116.994 192.889 116.795 192.109 116.596L191.73 115.606C191.732 115.408 191.537 115.408 191.341 115.408L185.052 118.166C184.466 118.165 183.877 118.362 183.095 118.36C182.311 118.557 182.108 119.15 182.485 120.338C190.891 120.353 195.389 120.163 195.976 120.164C196.181 119.373 196.188 118.78 196.195 118.186C196.195 118.186 196.007 117.592 195.821 116.801Z" fill="#CB9F2D"/>
  <path d="M205.793 96.8274C211.057 98.8122 225.484 104.369 228.017 105.558L241.108 107.365C241.787 119 230.412 122.324 224.381 118.563C220.1 115.989 207.852 107.283 207.461 107.282C207.07 107.281 205.501 107.671 197.401 116.722L191.368 113.157C192.161 111.976 196.534 104.1 201.081 98.7875C202.069 97.6069 203.648 96.0334 205.793 96.8274Z" fill="#F983F1"/>
  <path d="M247.029 116.768C247.412 117.555 249.927 119.527 251.669 120.71C252.445 121.105 252.049 121.89 251.854 121.89C249.699 123.26 248.349 121.685 246.41 120.697C244.471 119.71 244.447 122.461 242.896 121.671C243.49 120.493 244.676 118.531 244.104 117.154C243.915 116.564 240.859 109.677 235.323 96.8887L240.582 96.9017C244.368 109.293 246.649 115.784 247.029 116.768Z" fill="#CB7A43"/>
  <path d="M225.666 75.0888C225.878 76.211 223.202 78.6717 225.856 78.6784L225.666 75.0888Z" fill="#CB7A43"/>
  <path d="M236.794 88.3688L230.349 88.3527L231.529 80.5005C229.741 81.6182 227.959 82.0626 227.295 81.8365C225.298 81.3827 225.143 73.7516 226.724 70.838C228.306 67.9243 236.318 66.5977 236.712 72.4339C236.916 74.4543 236.011 76.2475 234.664 77.8152L236.794 88.3688Z" fill="#CB7A43"/>
  <path d="M230.684 73.3247L231.143 71.7531L234.49 71.5367L234.492 71.3121C230.701 71.3026 228.027 71.0713 226.691 70.8433C226.703 69.4952 228.053 68.1505 231.621 68.1594C235.412 68.1689 237.622 70.4211 237.599 73.1172C237.577 75.5886 235.99 78.5054 234.875 78.5027C234.652 78.5021 234.21 78.0516 233.991 77.6018C234.439 77.3782 234.891 76.7053 234.897 76.0313C234.903 75.3573 234.24 74.6816 233.571 74.6799C233.348 74.6794 233.125 74.6788 232.9 74.9029C232.018 73.7773 231.578 73.1022 230.684 73.3247Z" fill="#49220A"/>
  <path d="M227.313 74.8739C226.644 74.8722 226.638 75.5462 227.084 75.5473C227.53 75.5484 227.536 74.8744 227.313 74.8739Z" fill="#6E445A"/>
  <path d="M226.422 74.1999C226.645 74.2005 226.647 73.9752 226.871 73.9758C227.094 73.9763 227.32 73.7516 227.541 73.9774L227.765 73.978L227.986 74.2038C228.208 74.4297 228.208 74.4297 228.206 74.655C227.982 74.6544 227.761 74.4286 227.761 74.4286C227.537 74.428 227.539 74.2027 227.316 74.2022C227.092 74.2016 227.092 74.2016 226.869 74.201C226.645 74.2005 226.645 74.2005 226.422 74.1999Z" fill="#6E445A"/>
  <path d="M236.986 78.1962C236.556 76.8962 237.172 74.7639 237.534 73.8603L236.631 74.7646L235.728 76.3915L234.105 77.658C234.39 79.2472 235.661 80.2451 236.261 80.5454C235.686 79.6791 235.665 77.8969 235.727 77.114L236.986 78.1962Z" fill="#49220A"/>
  <path d="M129.607 92.6672C128.693 92.6672 128.008 93.2371 128.008 93.9209C128.008 94.0348 128.008 94.1488 128.008 94.1488C128.008 94.3767 128.008 94.7186 128.008 94.9465C128.008 95.4024 128.008 95.7443 128.008 96.2002C128.008 96.77 128.008 97.2259 128.008 97.7957C128.008 98.4795 128.008 99.0493 128.008 99.7331C128.008 100.417 128.008 101.215 128.008 101.898C128.008 102.696 128.008 103.494 128.008 104.178C128.008 104.976 128.008 105.773 128.008 106.571C128.008 107.369 128.008 108.167 128.008 109.078C128.008 109.876 128.008 110.674 128.008 111.472C128.008 112.269 128.008 113.067 128.008 113.751C128.008 114.435 128.008 115.232 128.008 115.916C128.008 116.6 128.008 117.17 128.008 117.854C128.008 118.423 128.008 118.879 128.008 119.449C128.008 119.905 128.008 120.247 128.008 120.703C128.008 120.931 128.008 121.273 128.008 121.501C128.008 121.615 128.008 121.842 128.008 121.956C128.008 122.184 128.351 122.184 128.579 122.298C128.922 122.412 129.264 122.412 129.607 122.412C129.949 122.412 130.178 122.412 130.52 122.298C130.748 122.298 131.091 122.184 131.205 122.07V121.956C131.205 121.728 131.205 121.614 131.205 121.387C131.205 121.159 131.205 120.817 131.205 120.589C131.205 120.247 131.205 119.791 131.205 119.449C131.205 118.879 131.205 118.423 131.205 117.854C131.205 117.284 131.205 116.6 131.205 116.03C131.205 115.346 131.205 114.663 131.205 113.979C131.205 113.181 131.205 112.497 131.205 111.699C131.205 110.902 131.205 110.104 131.205 109.42C131.205 108.622 131.205 107.825 131.205 107.027C131.205 106.229 131.205 105.431 131.205 104.634C131.205 103.836 131.205 103.152 131.205 102.354C131.205 101.671 131.205 100.873 131.205 100.189C131.205 99.5052 131.205 98.9353 131.205 98.2515C131.205 97.6817 131.205 97.1119 131.205 96.5421C131.205 96.0862 131.205 95.6303 131.205 95.1745C131.205 94.8326 131.205 94.4907 131.205 94.2627C131.205 94.0348 131.205 93.9209 131.205 93.6929C131.205 93.6929 131.205 93.6929 131.205 93.5789C131.205 93.2371 130.52 92.6672 129.607 92.6672Z" fill="#BB7F9E"/>
  <path d="M203.931 91.6414C203.018 91.6414 202.333 92.2112 202.333 92.895C202.333 93.0089 202.333 93.1229 202.333 93.1229C202.333 93.3508 202.333 93.6927 202.333 93.9207C202.333 94.3765 202.333 94.7184 202.333 95.1743C202.333 95.7441 202.333 96.2 202.333 96.7698C202.333 97.4536 202.333 98.0234 202.333 98.7072C202.333 99.391 202.333 100.189 202.333 100.873C202.333 101.67 202.333 102.468 202.333 103.152C202.333 103.95 202.333 104.747 202.333 105.545C202.333 106.343 202.333 107.141 202.333 108.052C202.333 108.85 202.333 109.648 202.333 110.446C202.333 111.243 202.333 112.041 202.333 112.725C202.333 113.409 202.333 114.207 202.333 114.89C202.333 115.574 202.333 116.144 202.333 116.828C202.333 117.398 202.333 117.853 202.333 118.423C202.333 118.879 202.333 119.221 202.333 119.677C202.333 119.905 202.333 120.247 202.333 120.475C202.333 120.589 202.333 120.817 202.333 120.931C202.333 121.158 202.675 121.158 202.903 121.272C203.246 121.386 203.588 121.386 203.931 121.386C204.273 121.386 204.502 121.386 204.844 121.272C205.073 121.272 205.415 121.158 205.529 121.044V120.931C205.529 120.703 205.529 120.589 205.529 120.361C205.529 120.133 205.529 119.791 205.529 119.563C205.529 119.221 205.529 118.765 205.529 118.423C205.529 117.853 205.529 117.398 205.529 116.828C205.529 116.258 205.529 115.574 205.529 115.004C205.529 114.321 205.529 113.637 205.529 112.953C205.529 112.155 205.529 111.471 205.529 110.674C205.529 109.876 205.529 109.078 205.529 108.394C205.529 107.597 205.529 106.799 205.529 106.001C205.529 105.203 205.529 104.406 205.529 103.608C205.529 102.81 205.529 102.126 205.529 101.328C205.529 100.645 205.529 99.8469 205.529 99.1631C205.529 98.4793 205.529 97.9095 205.529 97.2257C205.529 96.6558 205.529 96.086 205.529 95.5162C205.529 95.0603 205.529 94.6044 205.529 94.1486C205.529 93.8067 205.529 93.4648 205.529 93.2369C205.529 93.0089 205.529 92.895 205.529 92.667C205.529 92.667 205.529 92.667 205.529 92.5531C205.415 92.2112 204.73 91.6414 203.931 91.6414Z" fill="#BB7F9E"/>
  <path d="M109.969 100.759C109.056 100.759 108.371 101.443 108.371 102.24C108.371 102.354 108.371 102.468 108.371 102.582C108.371 102.924 108.371 103.152 108.371 103.494C108.371 103.95 108.371 104.406 108.371 104.862C108.371 105.431 108.371 106.001 108.371 106.685C108.371 107.369 108.371 108.053 108.371 108.85C108.371 109.648 108.371 110.446 108.371 111.244C108.371 112.155 108.371 112.953 108.371 113.865C108.371 114.777 108.371 115.688 108.371 116.6C108.371 117.512 108.371 118.423 108.371 119.335C108.371 120.247 108.371 121.159 108.371 122.07C108.371 122.982 108.371 123.78 108.371 124.692C108.371 125.489 108.371 126.287 108.371 127.085C108.371 127.769 108.371 128.452 108.371 129.25C108.371 129.82 108.371 130.39 108.371 131.074C108.371 131.529 108.371 131.985 108.371 132.441C108.371 132.783 108.371 133.011 108.371 133.353C108.371 133.581 108.371 133.695 108.371 133.923C108.371 134.151 108.714 134.265 108.942 134.265C109.284 134.379 109.627 134.379 109.969 134.379C110.312 134.379 110.54 134.379 110.883 134.265C111.111 134.265 111.454 134.151 111.568 134.037V133.923C111.568 133.695 111.568 133.581 111.568 133.353C111.568 133.011 111.568 132.783 111.568 132.441C111.568 131.985 111.568 131.529 111.568 131.074C111.568 130.504 111.568 129.934 111.568 129.364C111.568 128.68 111.568 127.997 111.568 127.313C111.568 126.515 111.568 125.831 111.568 125.033C111.568 124.236 111.568 123.438 111.568 122.526C111.568 121.614 111.568 120.817 111.568 119.905C111.568 118.993 111.568 118.196 111.568 117.284C111.568 116.372 111.568 115.574 111.568 114.663C111.568 113.865 111.568 112.953 111.568 112.155C111.568 111.358 111.568 110.56 111.568 109.762C111.568 109.078 111.568 108.281 111.568 107.597C111.568 107.027 111.568 106.343 111.568 105.773C111.568 105.317 111.568 104.748 111.568 104.292C111.568 103.95 111.568 103.608 111.568 103.266C111.568 103.038 111.568 102.924 111.568 102.696C111.568 102.696 111.568 102.696 111.568 102.582C111.454 101.443 110.769 100.759 109.969 100.759Z" fill="#BB7F9E"/>
  <path d="M221.056 101.67C220.143 101.67 219.458 102.354 219.458 103.152C219.458 103.266 219.458 103.38 219.458 103.494C219.458 103.836 219.458 104.064 219.458 104.406C219.458 104.861 219.458 105.317 219.458 105.773C219.458 106.343 219.458 106.913 219.458 107.597C219.458 108.28 219.458 108.964 219.458 109.762C219.458 110.56 219.458 111.358 219.458 112.155C219.458 113.067 219.458 113.865 219.458 114.776C219.458 115.688 219.458 116.6 219.458 117.512C219.458 118.423 219.458 119.335 219.458 120.247C219.458 121.159 219.458 122.07 219.458 122.982C219.458 123.894 219.458 124.691 219.458 125.603C219.458 126.401 219.458 127.199 219.458 127.996C219.458 128.68 219.458 129.364 219.458 130.162C219.458 130.732 219.458 131.301 219.458 131.985C219.458 132.441 219.458 132.897 219.458 133.353C219.458 133.695 219.458 133.923 219.458 134.265C219.458 134.493 219.458 134.606 219.458 134.834C219.458 135.062 219.801 135.176 220.029 135.176C220.371 135.29 220.714 135.29 221.056 135.29C221.399 135.29 221.627 135.29 221.97 135.176C222.198 135.176 222.541 135.062 222.655 134.948V134.834C222.655 134.606 222.655 134.493 222.655 134.265C222.655 133.923 222.655 133.695 222.655 133.353C222.655 132.897 222.655 132.441 222.655 131.985C222.655 131.415 222.655 130.846 222.655 130.276C222.655 129.592 222.655 128.908 222.655 128.224C222.655 127.427 222.655 126.743 222.655 125.945C222.655 125.147 222.655 124.35 222.655 123.438C222.655 122.526 222.655 121.728 222.655 120.817C222.655 119.905 222.655 119.107 222.655 118.195C222.655 117.284 222.655 116.486 222.655 115.574C222.655 114.776 222.655 113.865 222.655 113.067C222.655 112.269 222.655 111.471 222.655 110.674C222.655 109.99 222.655 109.192 222.655 108.508C222.655 107.939 222.655 107.255 222.655 106.685C222.655 106.229 222.655 105.659 222.655 105.203C222.655 104.861 222.655 104.52 222.655 104.178C222.655 103.95 222.655 103.836 222.655 103.608C222.655 103.608 222.655 103.608 222.655 103.494C222.655 102.354 221.97 101.67 221.056 101.67Z" fill="#BB7F9E"/>
  <path d="M101.064 107.255L127.209 86.5132H203.817L229.961 107.255H101.064Z" fill="#BB7F9E"/>
  <path d="M229.847 107.255H101.064V109.762H229.847V107.255Z" fill="#6E445A"/>
  <path d="M163.063 98.262L171.016 89.7666H195.779L190.718 98.262H163.063Z" fill="#FEE7FC"/>
  <path d="M183.127 103.142L177.343 94.647H202.468L211.144 103.142H183.127Z" fill="#FEF3FD"/>
  <path d="M152.651 95.5384C152.531 95.3758 152.518 95.162 152.543 94.9688C152.547 94.8945 152.626 94.8733 152.681 94.8447C153.333 94.5478 154.016 94.3288 154.694 94.1026C154.731 94.0866 154.768 94.0684 154.804 94.0482C154.811 93.9528 154.827 93.8583 154.852 93.7658C155.071 93.7235 155.294 93.7145 155.516 93.6821C155.617 94.4281 155.689 95.1778 155.783 95.925C155.549 95.9471 155.317 95.9906 155.082 95.9995C155.056 95.916 155.082 95.7905 154.993 95.7446C154.213 95.6766 153.43 95.6293 152.651 95.5384Z" fill="#FCC63A" stroke="#FCC63A" stroke-width="0.0325357"/>
  <path d="M155.782 95.9251C155.689 95.1777 155.616 94.4281 155.515 93.6822C155.65 93.6698 155.785 93.6501 155.918 93.6232C156.69 93.564 157.457 93.456 158.226 93.3693C160.151 93.1395 162.074 92.9006 164.001 92.6879C164.598 92.6332 165.192 92.5614 165.788 92.4994C166.051 92.4502 166.32 92.4505 166.585 92.4177C166.659 93.1533 166.747 93.8878 166.838 94.6214C167.094 94.6123 167.346 94.5626 167.601 94.5503C167.249 94.6285 166.885 94.6333 166.529 94.6831C166.443 93.9441 166.363 93.2046 166.272 92.4663C166.148 92.4699 166.024 92.4853 165.903 92.5122C165.91 92.7939 165.959 93.0682 165.986 93.3461C166.044 93.8058 166.084 94.2679 166.154 94.7262C163.143 95.0682 160.133 95.4241 157.123 95.77C156.878 95.8032 156.631 95.8121 156.391 95.8731C156.191 95.9217 155.984 95.89 155.782 95.925M156.104 95.8753C156.211 95.8608 156.349 95.879 156.435 95.8158C156.366 95.0886 156.266 94.363 156.189 93.6359C156.067 93.6408 155.941 93.6427 155.826 93.6814C155.805 93.7489 155.822 93.8206 155.827 93.8886C155.907 94.5384 155.974 95.1899 156.058 95.8391L156.104 95.8753Z" fill="#FBAFF5"/>
  <path d="M155.782 95.9251C155.689 95.1777 155.616 94.4281 155.515 93.6822C155.65 93.6698 155.785 93.6501 155.918 93.6232C156.69 93.564 157.457 93.456 158.226 93.3693C160.151 93.1395 162.074 92.9006 164.001 92.6879C164.598 92.6332 165.192 92.5614 165.788 92.4994C166.051 92.4502 166.32 92.4505 166.585 92.4177C166.659 93.1533 166.747 93.8878 166.838 94.6214C167.094 94.6123 167.346 94.5626 167.601 94.5503C167.249 94.6285 166.885 94.6333 166.529 94.6831C166.443 93.9441 166.363 93.2046 166.272 92.4663C166.148 92.4699 166.024 92.4853 165.903 92.5122C165.91 92.7939 165.959 93.0682 165.986 93.3461C166.044 93.8058 166.084 94.2679 166.154 94.7262C163.143 95.0682 160.133 95.4241 157.123 95.77C156.878 95.8032 156.631 95.8121 156.391 95.8731C156.191 95.9217 155.984 95.89 155.782 95.925M156.104 95.8753C156.211 95.8608 156.349 95.879 156.435 95.8158C156.366 95.0886 156.266 94.363 156.189 93.6359C156.067 93.6408 155.941 93.6427 155.826 93.6814C155.805 93.7489 155.822 93.8206 155.827 93.8886C155.907 94.5384 155.974 95.1899 156.058 95.8391L156.104 95.8753V95.8753Z" stroke="#FBAFF5" stroke-width="0.0325357"/>
  <path d="M156.105 95.875L156.058 95.8388C155.975 95.1896 155.908 94.5383 155.828 93.8883C155.823 93.8203 155.806 93.7497 155.827 93.6812C155.944 93.6422 156.068 93.6405 156.19 93.6356C156.268 94.3626 156.367 95.0884 156.436 95.8155C156.35 95.8788 156.212 95.8605 156.105 95.875Z" fill="#A558A0" stroke="#A558A0" stroke-width="0.0325357"/>
  <path d="M166.154 94.7262C166.083 94.2679 166.043 93.8058 165.985 93.3461C165.958 93.0668 165.909 92.7922 165.902 92.5122C166.024 92.4853 166.147 92.4699 166.272 92.4663C166.363 93.2045 166.445 93.9439 166.529 94.6831C166.404 94.6996 166.278 94.7121 166.153 94.7266L166.154 94.7262Z" fill="#6E445A" stroke="#6E445A" stroke-width="0.0325357"/>
  <path d="M166.839 94.6212C166.747 93.8876 166.66 93.1531 166.585 92.4174C166.832 92.4047 167.08 92.3781 167.327 92.3597L167.341 92.3736C167.437 93.0975 167.505 93.8258 167.602 94.5501C167.346 94.5631 167.095 94.6121 166.839 94.6212Z" fill="#FCC63A" stroke="#FCC63A" stroke-width="0.0325357"/>
  <path d="M173.225 98.8206C173.309 99.0047 173.277 99.2166 173.212 99.4003C173.192 99.472 173.11 99.4762 173.051 99.4927C172.352 99.647 171.638 99.7186 170.928 99.7982C170.887 99.806 170.848 99.8161 170.808 99.8284C170.782 99.9202 170.746 100.009 170.703 100.095C170.48 100.09 170.259 100.052 170.036 100.038C170.093 99.2871 170.179 98.5389 170.243 97.7886C170.477 97.8158 170.712 97.8216 170.944 97.8621C170.952 97.9492 170.901 98.0665 170.978 98.1298C171.727 98.3594 172.483 98.5691 173.225 98.8206Z" fill="#F767EF" stroke="#F767EF" stroke-width="0.0325357"/>
  <path d="M170.245 97.7889C170.179 98.5391 170.094 99.2874 170.037 100.038C169.902 100.022 169.767 100.013 169.631 100.012C168.864 99.9083 168.091 99.8537 167.32 99.7778C165.39 99.6007 163.459 99.4326 161.531 99.2384C160.936 99.1673 160.339 99.1133 159.744 99.0495C159.476 99.0427 159.214 98.9864 158.948 98.9631C159.028 98.2282 159.096 97.4916 159.16 96.755C158.908 96.7106 158.651 96.7066 158.399 96.6653C158.759 96.6622 159.116 96.7336 159.475 96.7593C159.404 97.4998 159.329 98.2398 159.263 98.9809C159.386 99.0033 159.51 99.014 159.634 99.013C159.686 98.7361 159.695 98.4576 159.727 98.1802C159.767 97.7186 159.824 97.2583 159.851 96.7954C162.867 97.0897 165.884 97.3701 168.901 97.6606C169.147 97.6791 169.391 97.722 169.638 97.7124C169.843 97.7066 170.04 97.781 170.244 97.7889M169.919 97.7702C169.811 97.7621 169.68 97.7154 169.583 97.7594C169.498 98.4848 169.445 99.2153 169.369 99.9426C169.488 99.9632 169.612 99.9877 169.733 99.9738C169.768 99.9123 169.765 99.8384 169.775 99.771C169.832 99.1187 169.903 98.4676 169.957 97.8154L169.919 97.7702Z" fill="#FBAFF5"/>
  <path d="M170.245 97.7889C170.179 98.5391 170.094 99.2874 170.037 100.038C169.902 100.022 169.767 100.013 169.631 100.012C168.864 99.9083 168.091 99.8537 167.32 99.7778C165.39 99.6007 163.459 99.4326 161.531 99.2384C160.936 99.1673 160.339 99.1133 159.744 99.0495C159.476 99.0427 159.214 98.9864 158.948 98.9631C159.028 98.2282 159.096 97.4916 159.16 96.755C158.908 96.7106 158.651 96.7066 158.399 96.6653C158.759 96.6622 159.116 96.7336 159.475 96.7593C159.404 97.4998 159.329 98.2398 159.263 98.9809C159.386 99.0033 159.51 99.014 159.634 99.013C159.686 98.7361 159.695 98.4576 159.727 98.1802C159.767 97.7186 159.824 97.2583 159.851 96.7954C162.867 97.0897 165.884 97.3701 168.901 97.6606C169.147 97.6791 169.391 97.722 169.638 97.7124C169.843 97.7066 170.04 97.781 170.244 97.7889M169.919 97.7702C169.811 97.7621 169.68 97.7154 169.583 97.7594C169.498 98.4848 169.445 99.2153 169.369 99.9426C169.488 99.9632 169.612 99.9877 169.733 99.9738C169.768 99.9123 169.765 99.8384 169.775 99.771C169.832 99.1187 169.903 98.4676 169.957 97.8154L169.919 97.7702V97.7702Z" stroke="#FBAFF5" stroke-width="0.0325357"/>
  <path d="M169.917 97.7698L169.955 97.815C169.901 98.4672 169.831 99.1183 169.773 99.7706C169.764 99.838 169.766 99.9108 169.731 99.9733C169.609 99.9871 169.487 99.9628 169.367 99.9422C169.442 99.2148 169.497 98.4843 169.582 97.7589C169.679 97.715 169.81 97.7616 169.917 97.7698Z" fill="#A558A0" stroke="#A558A0" stroke-width="0.0325357"/>
  <path d="M159.851 96.7953C159.824 97.2582 159.767 97.7185 159.727 98.1801C159.696 98.4589 159.687 98.7378 159.634 99.0129C159.51 99.0139 159.386 99.0032 159.264 98.9808C159.328 98.2397 159.403 97.4995 159.475 96.7592C159.601 96.769 159.726 96.7831 159.852 96.795L159.851 96.7953Z" fill="#6E445A" stroke="#6E445A" stroke-width="0.0325357"/>
  <path d="M159.159 96.7546C159.095 97.4912 159.028 98.2278 158.947 98.9628C158.703 98.9237 158.455 98.898 158.209 98.8644L158.198 98.8478C158.256 98.1197 158.341 97.3933 158.398 96.6649C158.65 96.7055 158.907 96.7102 159.159 96.7546Z" fill="#F767EF" stroke="#F767EF" stroke-width="0.0325357"/>
  <path d="M199.211 88.9936C199.287 89.126 199.278 89.2876 199.243 89.4303C199.233 89.4857 199.172 89.4947 199.128 89.5114C198.614 89.6775 198.082 89.7823 197.554 89.893C197.524 89.9018 197.495 89.9122 197.466 89.9243C197.453 89.9952 197.433 90.0647 197.406 90.1319C197.238 90.1446 197.07 90.1319 196.901 90.137C196.889 89.5686 196.901 89 196.896 88.4313C197.073 88.435 197.25 88.4226 197.428 88.4364C197.44 88.5012 197.409 88.5931 197.472 88.6353C198.051 88.7542 198.635 88.8577 199.211 88.9936Z" fill="#6E445A" stroke="#6E445A" stroke-width="0.0325357"/>
  <path d="M196.896 88.4314C196.901 89.0001 196.89 89.5687 196.901 90.1371C196.799 90.1346 196.696 90.1377 196.594 90.1463C196.01 90.1236 195.425 90.1379 194.84 90.136C193.376 90.141 191.913 90.153 190.449 90.145C189.997 90.1342 189.544 90.1363 189.092 90.131C188.89 90.145 188.689 90.1214 188.487 90.123C188.496 89.5647 188.494 89.0062 188.489 88.4478C188.296 88.4325 188.103 88.4478 187.911 88.4349C188.181 88.4068 188.455 88.4349 188.726 88.4285C188.726 88.9903 188.722 89.552 188.726 90.1138C188.82 90.1218 188.914 90.121 189.007 90.1114C189.027 89.8995 189.014 89.6895 189.017 89.4787C189.014 89.1288 189.024 88.7786 189.011 88.4288C191.3 88.4341 193.588 88.4288 195.877 88.4312C196.063 88.4275 196.249 88.4423 196.434 88.4174C196.589 88.3983 196.742 88.4402 196.896 88.4314M196.65 88.4407C196.568 88.4423 196.467 88.4166 196.397 88.4566C196.385 89.008 196.397 89.561 196.392 90.1132C196.483 90.1201 196.578 90.1297 196.668 90.1106C196.69 90.0619 196.683 90.0065 196.685 89.9551C196.681 89.4606 196.688 88.9662 196.682 88.472L196.65 88.4407Z" fill="#FBAFF5"/>
  <path d="M196.896 88.4314C196.901 89.0001 196.89 89.5687 196.901 90.1371C196.799 90.1346 196.696 90.1377 196.594 90.1463C196.01 90.1236 195.425 90.1379 194.84 90.136C193.376 90.141 191.913 90.153 190.449 90.145C189.997 90.1342 189.544 90.1363 189.092 90.131C188.89 90.145 188.689 90.1214 188.487 90.123C188.496 89.5647 188.494 89.0062 188.489 88.4478C188.296 88.4325 188.103 88.4478 187.911 88.4349C188.181 88.4068 188.455 88.4349 188.726 88.4285C188.726 88.9903 188.722 89.552 188.726 90.1138C188.82 90.1218 188.914 90.121 189.007 90.1114C189.027 89.8995 189.014 89.6895 189.017 89.4787C189.014 89.1288 189.024 88.7786 189.011 88.4288C191.3 88.4341 193.588 88.4288 195.877 88.4312C196.063 88.4275 196.249 88.4423 196.434 88.4174C196.589 88.3983 196.742 88.4402 196.896 88.4314M196.65 88.4407C196.568 88.4423 196.467 88.4166 196.397 88.4566C196.385 89.008 196.397 89.561 196.392 90.1132C196.483 90.1201 196.578 90.1297 196.668 90.1106C196.69 90.0619 196.683 90.0065 196.685 89.9551C196.681 89.4606 196.688 88.9662 196.682 88.472L196.65 88.4407V88.4407Z" stroke="#FBAFF5" stroke-width="0.0325357"/>
  <path d="M196.649 88.4405L196.681 88.4718C196.687 88.966 196.681 89.4605 196.684 89.9549C196.682 90.0063 196.689 90.0609 196.667 90.1104C196.576 90.1295 196.482 90.1199 196.391 90.113C196.395 89.5608 196.384 89.0078 196.396 88.4564C196.466 88.4164 196.568 88.4421 196.649 88.4405Z" fill="#A558A0" stroke="#A558A0" stroke-width="0.0325357"/>
  <path d="M189.012 88.4287C189.025 88.7786 189.014 89.1287 189.018 89.4786C189.014 89.6905 189.027 89.9008 189.008 90.1113C188.914 90.121 188.82 90.1218 188.727 90.1137C188.722 89.5519 188.725 88.9902 188.727 88.4284C188.822 88.4269 188.917 88.4284 189.012 88.4284L189.012 88.4287Z" fill="#6E445A" stroke="#6E445A" stroke-width="0.0325357"/>
  <path d="M188.488 88.4478C188.493 89.0061 188.495 89.5647 188.487 90.123C188.3 90.1111 188.112 90.1095 187.925 90.1018L187.916 90.0901C187.907 89.5387 187.919 88.9865 187.91 88.4348C188.102 88.4473 188.295 88.4324 188.488 88.4478Z" fill="#6E445A" stroke="#6E445A" stroke-width="0.0325357"/>
  <path d="M219.064 94.2263L210.024 93.1205C208.28 92.3306 206.535 91.6988 205.108 91.3828C204.632 91.3828 203.997 91.5408 204.949 92.1727C205.901 92.8045 207.011 93.5944 206.852 94.0683C206.694 94.5422 205.742 94.3842 205.583 94.8582C205.425 95.1741 207.011 95.3321 210.183 95.0161L217.478 97.5436L219.064 94.2263Z" fill="#CB7A43"/>
  <path d="M233.813 82.5366L229.848 82.6946C228.897 90.1192 223.663 94.7003 211.927 93.1206L211.064 100.791C222.007 102.055 230.958 100.071 233.02 90.1192C233.496 87.5917 233.813 84.9062 233.813 82.5366Z" fill="#FCC63A"/>
  <path d="M235.679 81.4974L236.071 81.4992C245.245 89.7843 251.07 101.586 253.94 116.71L241.395 116.652C241.409 113.708 241.225 113.831 240.846 111.081L236.688 109.816L229.401 106.743L225.843 104.032C227.644 96.1907 229.351 93.4387 229.401 82.6455L235.679 81.4974Z" fill="#FCC63A"/>
  <path d="M241.331 111.35L237.026 109.956C238.022 106.429 239.032 99.9572 238.672 93.2832C240.022 97.9994 240.965 105.854 241.331 111.35Z" fill="#CB9F2D"/>
  <path fill-rule="evenodd" clip-rule="evenodd" d="M141.657 61.704C142.724 61.5383 143.79 60.9898 144.711 60.349C145.382 59.653 145.64 58.6641 145.895 57.7461C146.13 56.8571 145.789 55.9527 145.242 55.2696C144.84 54.7652 144.529 54.0513 143.894 53.8414C143.161 53.6784 142.802 52.9104 142.465 52.3466C141.849 52.1536 141.143 52.2532 140.5 52.2555C139.219 52.2859 138.232 53.0964 137.323 53.931C136.619 54.5632 135.986 55.4228 136.03 56.4391C135.936 57.6209 135.897 58.9342 136.655 59.914C137.263 60.7538 138.231 61.2815 139.207 61.4954C140.026 61.5253 140.865 61.8269 141.657 61.7039L141.657 61.704Z" fill="#FCC63A"/>
  <path fill-rule="evenodd" clip-rule="evenodd" d="M138.378 57.4133L138.21 57.1847L137.873 56.9695L137.613 56.9964L137.51 57.1847L137.575 57.4268C137.575 57.4268 137.748 57.6441 137.808 57.6958C137.886 57.763 138.158 57.763 138.158 57.763L138.378 57.4133Z" fill="#F767EF"/>
  <path fill-rule="evenodd" clip-rule="evenodd" d="M141.385 57.1979L141.489 57.05C141.489 57.05 141.567 56.8886 141.683 56.8617C141.8 56.8348 141.865 56.7944 141.981 56.7944C142.098 56.7944 142.215 56.8482 142.318 56.8617C142.422 56.8751 142.5 57.2921 142.5 57.2921C142.5 57.2921 142.344 57.6956 142.28 57.709C142.215 57.7225 141.968 57.857 141.968 57.857L141.632 57.5207L141.385 57.1979Z" fill="#F767EF"/>
  <path fill-rule="evenodd" clip-rule="evenodd" d="M141.359 57.2116L140.944 57.0233L140.231 56.9426H139.493L138.961 57.1175L138.482 57.3461L138.352 57.4672L138.106 57.8841L137.886 58.3145L137.821 58.9601L137.873 59.5385C137.873 59.5385 137.899 59.6461 138.171 59.9016C138.443 60.1572 138.702 60.3859 138.702 60.3859L139.506 60.6683L140.024 60.6952L140.646 60.6818L141.204 60.48L141.683 60.2245L142.085 59.8075C142.085 59.8075 142.227 59.3098 142.227 59.256C142.227 59.2022 142.189 58.6508 142.189 58.6508L142.033 58.1397C142.033 58.1397 141.916 57.8707 141.878 57.8034C141.839 57.7362 141.67 57.5344 141.605 57.4672C141.541 57.3999 141.307 57.1982 141.359 57.2116L141.359 57.2116Z" fill="#FEF3FD"/>
  <path fill-rule="evenodd" clip-rule="evenodd" d="M140.608 58.3819L140.362 58.1936L140.063 58.0322H139.636L139.299 58.0726L139.027 58.1802L138.897 58.5299L138.975 58.8796L139.208 59.1351L139.506 59.3638L139.869 59.4579L140.038 59.2965C140.038 59.2965 140.241 59.1898 140.31 59.1082C140.4 59.0006 140.445 58.9002 140.491 58.8527C140.543 58.7989 140.595 58.6509 140.595 58.6509L140.608 58.3819L140.608 58.3819Z" fill="#F767EF"/>
  <path fill-rule="evenodd" clip-rule="evenodd" d="M142.501 52.2894L142.849 52.1087L143.179 51.9755L143.555 51.928L144.132 51.9946L144.801 52.1943L145.479 52.4891C145.479 52.4891 145.956 52.9456 146.038 53.0217C146.121 53.0978 146.231 53.5448 146.231 53.5448L146.341 54.4388L146.221 54.9239L145.873 55.5421L145.653 55.9986L145.626 56.0462L144.81 54.7812L143.967 53.8397L143.775 53.8587H143.591C143.591 53.8587 143.509 53.8397 143.445 53.7636C143.38 53.6875 143.325 53.697 143.289 53.6304C143.252 53.5639 143.234 53.4973 143.161 53.4497C143.087 53.4022 143.06 53.3927 143.014 53.3356C142.968 53.2785 142.831 53.2024 142.766 53.1264C142.702 53.0503 142.601 52.9266 142.601 52.9266C142.601 52.9266 142.556 52.7269 142.537 52.6794C142.519 52.6318 142.437 52.4226 142.437 52.4226L142.501 52.2894L142.501 52.2894Z" fill="#FEF3FD"/>
  <path fill-rule="evenodd" clip-rule="evenodd" d="M143.948 53.7922C143.948 53.7922 143.966 53.4594 143.966 53.4023V53.0884C143.966 53.0219 144.021 52.9268 144.067 52.9268C144.113 52.9268 144.278 53.117 144.397 53.1645C144.516 53.2121 144.956 53.5259 145.038 53.602C145.121 53.6781 145.313 54.0776 145.313 54.1632C145.313 54.2487 145.267 54.515 145.222 54.5911C145.176 54.6672 145.148 54.8384 145.066 54.8669C144.983 54.8955 144.846 54.905 144.846 54.905L144.241 54.1631L143.966 53.8493L143.948 53.7922L143.948 53.7922Z" fill="#FCC63A"/>
  <path fill-rule="evenodd" clip-rule="evenodd" d="M138.429 53.031C138.429 53.031 137.87 52.7932 137.824 52.7837C137.778 52.7742 137.384 52.6506 137.384 52.6506L137.146 52.622C137.146 52.622 136.797 52.5935 136.761 52.603C136.724 52.6125 136.348 52.6696 136.348 52.6696C136.348 52.6696 136.101 52.8883 136.037 52.9169C135.973 52.9454 135.643 53.4114 135.643 53.4114L135.386 53.9155L135.285 54.4386L135.294 54.8475L135.441 55.3421L135.707 56.0174L136.119 56.3692L136.183 55.7035L136.66 54.7524L137.439 53.8584L138.429 53.031L138.429 53.031Z" fill="#FEF3FD"/>
  <path fill-rule="evenodd" clip-rule="evenodd" d="M136.88 54.2391C136.88 54.182 136.761 54.0394 136.715 53.9538C136.67 53.8682 136.624 53.8302 136.56 53.8111C136.496 53.7921 136.386 53.8206 136.358 53.8682C136.331 53.9158 136.239 54.144 136.193 54.182C136.147 54.2201 135.946 54.5339 135.936 54.6195C135.927 54.7051 135.854 55.1902 135.854 55.1902C135.854 55.1902 136.001 55.485 136.065 55.4945C136.129 55.504 136.239 55.4565 136.266 55.3804C136.294 55.3043 136.496 55.1236 136.505 55.038C136.514 54.9524 136.541 54.8763 136.569 54.7812C136.596 54.6861 136.642 54.61 136.697 54.5435C136.752 54.4769 136.835 54.4008 136.844 54.3532C136.853 54.3057 136.862 54.2581 136.88 54.2391L136.88 54.2391Z" fill="#FCC63A"/>
  <path fill-rule="evenodd" clip-rule="evenodd" d="M137.108 60.4421C136.758 60.6723 136.408 60.9025 136.058 61.1328C136.644 61.7886 136.59 62.3588 137.144 63.0439C137.265 63.2878 136.678 63.8223 136.777 63.8654C136.712 64.4525 137.164 64.41 137.098 64.9952C137.029 65.1911 137.838 64.9609 137.668 65.0881C137.526 65.2013 137.426 65.3126 137.638 65.4105C137.912 65.6326 138.163 65.8951 138.451 66.0918C138.848 66.2267 139.224 66.4484 139.65 66.4647C140.033 66.5024 140.416 66.5896 140.799 66.5953C141.467 66.5026 142.142 66.4445 142.805 66.3298C143.312 66.1623 143.831 66.0272 144.33 65.8395C144.452 65.7689 144.087 65.744 144.003 65.6928C143.782 65.6211 143.544 65.5618 143.348 65.4414C142.995 65.1444 142.928 64.6672 142.969 64.2282C143.022 63.7858 143.05 63.3257 143.29 62.9391C143.512 62.523 144.128 62.5828 144.533 62.4409C144.881 62.3802 145.232 62.3541 145.585 62.3858C145.87 62.4029 146.171 62.3973 146.446 62.4516C146.662 62.6491 146.879 62.8465 147.095 63.044C146.931 62.645 146.784 62.2373 146.541 61.8796C146.386 61.6048 146.233 61.3277 145.994 61.119C145.715 60.7969 145.278 60.7117 144.899 60.5692C144.737 60.5528 144.566 60.4515 144.412 60.4921C143.996 60.7189 143.574 60.9308 143.126 61.0814C142.613 61.2858 142.095 61.4999 141.567 61.6468C140.702 61.4946 139.824 61.4366 138.948 61.385C138.53 61.1992 138.094 61.0442 137.695 60.821C137.511 60.6992 137.339 60.5215 137.148 60.4338L137.123 60.4389L137.108 60.442L137.108 60.4421Z" fill="#F767EF"/>
  <path fill-rule="evenodd" clip-rule="evenodd" d="M137.418 63.0347L136.112 61.0532L135.831 61.0627L135.333 61.2054C135.333 61.2054 135.061 61.4432 135.034 61.5002C135.007 61.5572 134.808 61.8141 134.753 61.8331C134.699 61.8521 134.373 62.5559 134.373 62.5559L134.264 62.9649L134.11 63.5355C134.11 63.5355 134.092 64.0111 134.11 64.0586C134.128 64.1061 134.183 64.4486 134.201 64.5151C134.219 64.5817 134.735 65.1238 134.735 65.1238L135.315 65.8086L135.813 65.8941L135.333 65.8181L135.197 65.9227L134.907 65.5518C134.907 65.5518 134.717 65.3521 134.626 65.3521C134.536 65.3521 134.11 65.276 134.11 65.276C134.11 65.276 133.639 65.1999 133.557 65.1999C133.476 65.1999 133.231 65.1428 133.177 65.1999C133.123 65.2569 132.47 65.9607 132.47 65.9607L133.213 66.0749L134.173 66.5314L134.844 67.1591L134.934 67.9009L135.224 70.0694C135.224 70.0694 135.224 70.6019 135.17 70.678C135.116 70.7541 134.898 70.9254 134.898 71.0014C134.898 71.0775 134.88 71.1916 134.952 71.1916C135.025 71.1916 135.351 71.2107 135.424 71.2107C135.496 71.2107 136.166 71.0394 136.166 71.0394C136.166 71.0394 138.721 69.3275 138.812 69.3085C138.902 69.2895 140.298 69.3846 140.37 69.4036C140.443 69.4227 140.932 69.6128 140.932 69.6128L142.635 69.5938L143.758 70.8112C143.758 70.8112 144.393 71.3818 144.465 71.3818C144.537 71.3818 145.317 71.7242 145.317 71.7242C145.317 71.7242 145.48 71.8003 145.443 71.7052C145.407 71.6101 145.135 71.2677 145.135 71.1726C145.135 71.0775 144.972 70.4688 144.972 70.4688L144.918 69.2705C144.918 69.2705 144.954 68.7189 144.99 68.6428C145.027 68.5667 145.244 67.996 145.244 67.996L145.57 67.3873L146.078 66.9118C146.078 66.9118 146.476 66.7596 146.549 66.7596H147.147C147.219 66.7596 147.491 66.7977 147.672 66.7977C147.853 66.7977 148.487 67.121 148.487 67.121L148.705 67.3493L148.542 66.7216L148.234 66.17L147.563 65.8656H146.349L146.331 65.6564C146.331 65.6564 146.712 65.295 146.748 65.2189C146.784 65.1428 146.911 64.6863 146.911 64.6863L147.219 64.0206C147.219 64.0206 147.192 63.5355 147.183 63.4784C147.174 63.4214 147.092 63.1931 147.047 63.117C147.002 63.0409 146.929 62.9268 146.902 62.8793C146.875 62.8317 146.386 62.3752 146.386 62.3752L145.108 62.2896L144.392 62.3752L143.405 62.6415L143.233 62.8983L143.052 63.3928L142.979 63.935L142.925 64.3249L142.934 64.8575L143.242 65.3806L144.356 65.7705L144.211 65.8276L143.505 66.0654C143.505 66.0654 142.68 66.3221 142.635 66.3221C142.59 66.3221 140.687 66.5409 140.723 66.5409C140.76 66.5409 139.383 66.3887 139.383 66.3887L138.395 66.0083L137.902 65.3708L137.273 64.8289C137.273 64.8289 136.921 64.6701 137.116 64.6637C137.311 64.6573 137.457 63.3094 137.457 63.3094L137.345 63.0692L137.417 63.0347L137.418 63.0347Z" fill="#FCC63A"/>
  <path fill-rule="evenodd" clip-rule="evenodd" d="M134.966 71.1056C134.966 71.1056 134.694 71.1479 134.642 71.1338C134.59 71.1197 134.279 70.993 134.279 70.993L133.631 70.5143L133.126 69.8104L132.62 68.8953C132.62 68.8953 132.4 68.3744 132.387 68.3181C132.374 68.2618 132.141 67.2763 132.141 67.1637C132.141 67.0511 132.154 66.685 132.154 66.685L132.283 66.3049L132.478 65.8826L133.346 66.0093L134.266 66.4879L134.927 67.1074L135.316 70.1765L135.238 70.8241L134.966 71.1057L134.966 71.1056Z" fill="#FEF3FD"/>
  <path fill-rule="evenodd" clip-rule="evenodd" d="M145.421 71.7328L146.147 71.7055L146.808 71.7328C146.808 71.7328 147.314 71.405 147.365 71.3641C147.417 71.3231 147.702 71.0499 147.702 70.9953C147.702 70.9406 148.247 69.5748 148.247 69.5748C148.247 69.5748 148.376 68.6323 148.376 68.5504C148.376 68.4684 148.571 68.0313 148.584 67.963C148.597 67.8948 148.726 67.485 148.726 67.4167C148.726 67.3484 148.623 67.1299 148.623 67.1299L148.337 66.9523L147.754 66.6928L147.223 66.6108C147.223 66.6108 146.64 66.6245 146.575 66.6245C146.51 66.6245 146.212 66.6245 146.16 66.6518C146.108 66.6791 145.758 66.966 145.68 67.0479C145.603 67.1299 145.382 67.485 145.24 67.6899C145.097 67.8948 144.877 68.605 144.877 68.605C144.877 68.605 144.825 69.4245 144.838 69.5201C144.851 69.6157 144.903 70.244 144.903 70.244L144.994 70.8587L145.097 71.1865L145.421 71.7328L145.421 71.7328Z" fill="#FEF3FD"/>
  <path fill-rule="evenodd" clip-rule="evenodd" d="M123.105 40.6102C123.105 40.6281 123.105 40.6461 123.105 40.664H123.105V67.5515H123.04C123.083 67.7938 123.105 68.0331 123.105 68.2665C123.105 70.8834 120.308 72.8965 116.858 72.8965C113.408 72.8965 110.611 70.8834 110.611 68.2665C110.611 68.0331 110.634 67.7938 110.677 67.5515H110.611V40.664H110.612C110.611 40.6461 110.611 40.6281 110.611 40.6102C110.611 37.9933 113.408 35.9802 116.858 35.9802C120.308 35.9802 123.105 37.9933 123.105 40.6102Z" fill="#A558A0"/>
  <rect x="108.944" y="41.6482" width="2.63947" height="4.1259" rx="1.31973" fill="#FCC63A"/>
  <rect x="122.142" y="41.6482" width="2.63947" height="4.1259" rx="1.31973" fill="#FCC63A"/>
  <rect x="115.543" y="42.1064" width="3.07938" height="3.20904" fill="#FDC0F8"/>
  <rect x="111.584" y="43.0234" width="10.5579" height="1.3753" fill="#FEE7FC"/>
  <rect x="108.944" y="63.1028" width="2.63947" height="4.1259" rx="1.31973" fill="#FCC63A"/>
  <rect x="122.142" y="63.1028" width="2.63947" height="4.1259" rx="1.31973" fill="#FCC63A"/>
  <rect x="115.543" y="63.5613" width="3.07938" height="3.20904" fill="#FDC0F8"/>
  <rect x="111.584" y="64.478" width="10.5579" height="1.3753" fill="#FEE7FC"/>
  <path d="M78.8436 45.0791C88.2828 45.0791 89.856 49.9644 89.4627 52.407V53.8726H19.1406V45.0791H78.8436Z" fill="#FBB8F6"/>
  <path d="M12.5332 11.7264C12.5332 10.4507 13.5674 9.4165 14.8431 9.4165C16.1189 9.4165 17.153 10.4507 17.153 11.7264V65.4343H12.5332V11.7264Z" fill="#F983F1"/>
  <path d="M89.0903 11.7264C89.0903 10.4507 90.1245 9.4165 91.4003 9.4165C92.676 9.4165 93.7102 10.4507 93.7102 11.7264V65.4343H89.0903V11.7264Z" fill="#F983F1"/>
  <rect x="93.7104" y="53.4792" width="4.78201" height="81.1772" transform="rotate(90 93.7104 53.4792)" fill="#F983F1"/>
  <rect x="93.7104" y="17.2727" width="4.78201" height="81.1772" transform="rotate(90 93.7104 17.2727)" fill="#F983F1"/>
  <rect x="76.5508" y="17.2727" width="3.29989" height="40.9886" fill="#F983F1"/>
  <rect x="64.0112" y="17.2727" width="3.29989" height="40.9886" fill="#F983F1"/>
  <rect x="51.4717" y="17.2727" width="3.29989" height="40.9886" fill="#F983F1"/>
  <rect x="38.9321" y="17.2727" width="3.29989" height="40.9886" fill="#F983F1"/>
  <rect x="26.3926" y="17.2727" width="3.29989" height="40.9886" fill="#F983F1"/>
  <path d="M64.1816 134.832C69.6849 136.241 74.402 136.868 78.3329 136.868C82.2638 136.868 86.0375 135.772 89.3394 133.579C83.9934 132.169 79.5908 131.386 76.1316 131.386C72.6724 131.386 68.7415 132.639 64.1816 134.832Z" fill="#A558A0"/>
  <path d="M82.7353 136.868L82.578 136.711C81.7919 134.988 69.213 116.977 67.9551 113.688H82.1063C83.0498 116.194 87.2951 131.856 87.9241 134.988C89.8109 140 93.7418 155.975 94.2135 157.071C94.6852 158.167 91.855 159.42 91.0688 158.011C89.8109 155.662 86.8234 149.397 85.5655 145.638C84.1504 141.879 83.207 138.59 82.7353 136.868Z" fill="#E8A16D"/>
  <path d="M72.3582 140.156C67.4838 141.409 49.4017 143.602 48.1438 143.915C46.8859 144.228 45.7852 141.723 47.3576 141.096C49.8734 140.156 56.7918 138.12 60.8799 137.337C64.1819 136.711 67.3266 136.084 69.3707 135.771C69.2134 130.133 68.4273 116.507 68.899 113.531H79.591C79.1193 116.351 74.8739 136.867 74.0878 138.903C73.9305 139.843 73.1443 140.156 72.3582 140.156Z" fill="#E8A16D"/>
  <path d="M47.1822 140.352C46.597 140.277 46.1498 140.181 45.8737 140.221C45.5976 140.262 45.0455 140.343 44.3883 140.601C44.4875 141.071 45.2807 144.829 46.8342 152.19C47.7286 152.381 48.2477 152.143 48.1155 151.517C48.1213 150.87 47.9891 150.244 47.923 149.931L48.8698 144.302C48.8368 144.145 48.8368 144.145 48.6657 144.009L47.9094 143.797C47.5011 143.211 47.2639 142.762 47.1978 142.449C47.1316 142.135 47.1705 141.645 47.2094 141.155C47.5574 140.781 47.3533 140.488 47.1822 140.352Z" fill="#E8A16D"/>
  <path d="M90.1255 157.698C89.811 158.324 89.6538 158.794 89.6538 158.951C89.6538 159.264 89.6538 159.89 89.8111 160.517C90.2828 160.517 94.8426 160.517 103.491 160.517C103.805 159.577 103.648 159.107 102.862 158.951C102.075 158.794 101.447 158.794 100.975 158.794L94.5281 156.445C94.3709 156.445 94.2137 156.445 94.2137 156.601L93.742 157.385C92.9558 157.698 92.4841 157.854 92.0124 157.854C91.6979 157.854 91.2262 157.698 90.44 157.541C90.44 157.385 90.2828 157.541 90.1255 157.698Z" fill="#E8A16D"/>
  <path d="M68.7414 114.315C73.9302 112.905 78.8045 112.905 83.3644 114.315C84.9367 121.049 88.8676 123.712 89.4966 133.892C81.792 137.494 72.2006 131.386 64.1816 134.832C61.823 130.133 65.125 118.387 68.7414 114.315Z" fill="#6E445A"/>
  <path d="M66.0766 123.14C67.0463 119.16 68.7407 115.287 70.4921 113.279C75.5621 111.914 80.3182 111.909 84.767 113.254C85.3795 115.804 86.3302 117.786 87.2946 119.797C87.588 120.409 87.8825 121.023 88.1693 121.657C89.4035 124.384 90.522 127.524 90.8489 132.479C87.1153 134.155 82.9263 133.555 78.6064 132.916L78.4955 132.899C74.2618 132.272 69.9093 131.627 65.9182 133.251C65.4267 132.147 65.2212 130.661 65.2532 128.963C65.2872 127.16 65.5884 125.143 66.0766 123.14Z" stroke="#FCC63A" stroke-width="0.5"/>
  <path d="M74.7169 90.8222C73.6163 89.4127 72.8301 87.6899 72.9873 85.8105C73.3018 80.4855 80.8491 81.5818 82.2643 84.4009C83.6794 87.0634 83.5221 93.9546 81.6353 94.4244C80.8491 94.581 79.2768 94.1112 77.7044 93.1715L78.8051 100.376H72.8301L74.7169 90.8222Z" fill="#E8A16D"/>
  <path d="M79.9055 81.425C79.1193 81.1117 77.8614 81.1117 77.3897 81.1117C77.7042 80.4853 77.8614 79.7022 77.7042 78.9191C77.5469 78.136 77.2324 77.5095 76.918 76.8831C76.7607 76.5698 76.6035 76.2566 76.4463 76.1C76.1318 75.9434 75.9746 75.7867 75.6601 75.6301C75.3456 75.6301 75.0311 75.6301 74.7167 75.6301C74.5594 75.6301 74.4022 75.7867 74.245 75.7867C74.0877 75.7867 74.0877 75.7867 73.9305 75.6301C73.616 75.4735 73.3015 75.3169 72.9871 75.3169C72.6726 75.3169 72.2009 75.3169 71.8864 75.4735C71.5719 75.6301 71.2575 75.7867 70.943 76.1C70.7858 76.2566 70.7858 76.4132 70.6285 76.5698C70.6285 76.5698 70.6285 76.7264 70.4713 76.7264H70.3141C69.6851 76.8831 69.2134 77.3529 69.0562 77.9794C68.8989 78.2926 68.8989 78.9191 68.8989 79.5456C68.8989 80.172 69.5279 81.8948 69.9996 82.5213C70.4713 83.1477 71.2575 83.461 71.8864 83.6176C71.4147 84.0874 71.1002 84.8705 70.943 85.497C70.6285 86.2801 70.4713 86.9066 70.4713 87.6896C70.4713 88.4727 70.4713 89.2558 70.6285 89.8823C70.7858 90.5087 71.1002 91.1352 71.7292 91.4484C72.0436 91.6051 72.2009 91.7617 72.5154 91.7617C72.8298 91.9183 73.1443 91.9183 73.3015 92.0749C73.9305 92.2315 74.5594 92.2315 74.8739 91.7617C75.0311 91.6051 75.1884 91.4484 75.3456 91.1352V90.9786C75.3456 90.822 75.1884 90.822 75.1884 90.822C74.7167 90.5087 74.5594 90.0389 74.4022 89.4124C74.4022 88.786 74.5594 88.0029 75.0311 87.8463C75.8173 87.533 76.4463 87.8463 77.0752 88.1595C77.3897 87.2198 77.8614 86.4367 78.8048 85.9668C79.7482 85.497 80.8489 85.497 81.7923 85.0271C82.1068 84.8705 82.264 84.8705 82.4212 84.5573C82.4212 84.4007 82.5785 84.4007 82.5785 84.2441C82.5785 84.0874 82.5785 83.9308 82.4212 83.7742C82.264 82.9911 80.6916 81.7382 79.9055 81.425Z" fill="#7A380C"/>
  <path d="M81.4779 88.3162C81.3207 88.3162 81.1635 88.3162 81.0062 88.3162C80.849 89.0992 81.9496 88.6294 81.4779 88.3162Z" fill="#7A380C"/>
  <path d="M83.2073 89.0994C83.2073 89.5692 84.308 91.4486 83.8363 91.7619C83.679 91.9185 82.7356 91.6052 82.5784 91.4486C82.2639 90.9788 82.7356 89.5692 83.2073 89.0994Z" fill="#E8A16D"/>
  <path d="M80.2197 88.003C80.377 87.6898 80.6914 87.5332 81.1631 87.3766C81.4776 87.2199 81.9493 87.2199 82.2638 87.5332C81.9493 87.6898 81.6349 87.8464 81.3204 87.8464C80.8487 87.8464 80.5342 87.8464 80.2197 88.003Z" fill="#7A380C"/>
  <path d="M82.8928 92.545C82.5783 92.7017 82.1066 92.7017 81.6349 92.545C81.3204 92.545 80.8487 92.3884 80.5342 92.545L80.6915 92.0752C81.0059 92.3884 81.1632 92.545 81.4776 92.8583C81.7921 93.0149 81.9493 93.3281 82.4211 93.4847C82.1066 93.4847 81.6349 93.4847 81.3204 93.3281C81.0059 93.1715 80.6915 92.8583 80.377 92.7017L79.9053 92.2318H80.5342C81.0059 92.2318 81.3204 92.2318 81.7921 92.3884L82.8928 92.545Z" fill="#7A380C"/>
  <path d="M89.9685 107.894L98.9309 106.797C100.661 106.014 102.39 105.388 103.805 105.074C104.277 105.074 104.906 105.231 103.962 105.858C103.019 106.484 101.918 107.267 102.076 107.737C102.233 108.207 103.176 108.05 103.334 108.52C103.491 108.833 101.918 108.99 98.7737 108.677L91.5408 111.183L89.9685 107.894ZM61.8232 109.616H66.8547C61.3515 119.953 58.5212 125.278 58.364 125.748C57.8923 126.844 58.9929 128.567 59.4646 129.35C57.8923 129.977 58.0495 127.784 56.1627 128.567C54.4331 129.193 53.018 130.603 50.9739 129.507C50.6594 129.35 50.5022 128.88 51.1311 128.567C52.8607 127.627 55.2193 125.905 55.5337 125.435C55.8482 124.652 57.8923 119.327 61.8232 109.616Z" fill="#E8A16D"/>
  <path d="M75.3457 96.3037L79.2766 96.4603C80.22 103.821 85.4088 108.363 97.0443 106.797L98.6167 116.194C87.7674 117.447 78.176 113.688 76.1319 103.821C75.6602 101.315 75.3457 98.653 75.3457 96.3037Z" fill="#F767EF"/>
  <path d="M73.4586 95.364L79.2763 96.4603C79.2763 104.918 82.5783 110.399 84.1506 116.664H68.427C68.2698 118.857 68.1126 121.049 67.9553 123.398H56.0054C58.6784 111.339 64.3389 101.942 73.1441 95.364H73.4586Z" fill="#F767EF"/>
  <path d="M70.7858 104.604C70.3141 109.929 70.6286 114.001 71.572 116.82H68.27C68.7417 112.435 69.5279 108.363 70.7858 104.604Z" fill="#A558A0"/>
  <path d="M28.1729 85.7979L39.6511 123.229L45.1544 155.179H49.557L43.7392 85.7979H28.1729Z" fill="#CB7A43"/>
  <path d="M24.085 85.7979C24.8712 106.315 23.9278 116.965 23.7705 118.844C23.4561 120.723 21.0975 132.783 15.437 155.806L20.1541 154.239C29.1166 133.253 32.104 122.29 33.2047 119.47C34.3053 116.651 36.9784 105.532 41.381 85.7979H24.085Z" fill="#E8A16D"/>
  <path d="M15.437 154.083C15.1226 155.022 14.9653 155.649 14.9653 156.119C14.9653 156.745 15.1226 157.528 15.2798 158.468C15.9087 158.468 21.7265 158.468 32.5758 158.468C33.0475 157.058 32.733 156.119 31.7896 156.119C30.8462 155.962 30.06 155.962 29.4311 155.806L21.412 152.203C21.2548 152.203 21.0975 152.203 20.9403 152.36L20.4686 153.613C19.5252 154.083 18.8962 154.239 18.2673 154.239C17.7956 154.239 17.1666 154.083 16.3805 153.613C16.066 153.613 15.5943 153.77 15.437 154.083Z" fill="#6E445A"/>
  <path d="M44.2115 154.083C43.897 155.022 43.7397 155.649 43.7397 156.119C43.7397 156.745 43.897 157.528 44.0542 158.468C44.6832 158.468 50.5009 158.468 61.3502 158.468C61.8219 157.058 61.5074 156.119 60.564 156.119C59.6206 155.962 58.8344 155.962 58.2055 155.806L50.1864 152.203C50.0292 152.203 49.872 152.203 49.7147 152.36L49.243 153.613C48.2996 154.083 47.6706 154.239 47.0417 154.239C46.57 154.239 45.941 154.083 45.1549 153.613C44.8404 153.613 44.3687 153.77 44.2115 154.083Z" fill="#6E445A"/>
  <path d="M26.6006 85.7979L31.4749 104.905H46.4123L44.211 85.7979H26.6006Z" fill="#CB9F2D"/>
  <path d="M23.7705 85.7979C22.1981 90.653 21.8836 96.9177 22.8271 104.905H38.079L42.3243 85.7979H23.7705Z" fill="#FCC63A"/>
  <path d="M34.4626 41.7885C33.0474 40.0657 32.104 38.1863 32.2613 35.8371C32.733 29.2592 41.8527 30.8254 43.5823 34.1143C45.3119 37.4033 45.1546 45.704 42.7961 46.3304C41.8527 46.487 39.9658 46.0172 37.9218 44.7643L39.1797 53.5348H31.7896L34.4626 41.7885Z" fill="#E8A16D"/>
  <path d="M36.9783 41.3188C36.0348 43.0416 34.777 44.2945 33.5191 44.2945C31.1605 44.2945 29.4309 41.1622 29.4309 37.7166C29.4309 37.56 29.4309 37.4034 29.4309 37.4034C26.9151 39.1262 25.0283 42.5717 21.5691 42.5717C17.0093 42.5717 15.2797 33.4879 21.5691 33.4879C25.9717 33.4879 28.0158 34.1144 29.9026 35.0541C30.2171 34.1144 30.846 33.1747 31.475 32.5482C31.6322 32.3916 31.9467 32.235 32.2612 32.0784C32.4184 31.9218 32.7329 31.9218 32.8901 31.7652C33.9908 31.2953 35.5631 31.1387 37.45 30.9821C37.7644 30.9821 38.0789 30.9821 38.3934 30.9821C38.3934 29.2593 39.8085 28.0063 41.3809 28.0063C43.1105 28.0063 44.3684 29.4159 44.3684 30.9821C44.3684 32.5482 43.1105 33.9578 41.5381 33.9578C40.5947 34.271 39.494 34.4276 38.0789 34.5843C38.2361 35.0541 38.2362 35.6806 38.2362 36.1504C38.2362 36.6203 38.2361 37.2467 38.0789 37.8732C37.7644 37.56 37.45 37.2467 37.1355 37.2467C36.0348 37.2467 35.2487 38.1864 35.2487 39.1262C35.2487 40.3791 35.8776 41.1622 36.9783 41.3188Z" fill="#49220A"/>
  <path d="M42.7961 38.0296C42.6389 38.0296 42.3244 37.873 42.1672 38.0296C41.8527 39.1259 43.2678 38.4994 42.7961 38.0296Z" fill="#161616"/>
  <path d="M44.6828 39.126C44.5256 39.7524 45.9407 42.1017 45.469 42.4149C45.1545 42.5715 44.0539 42.2583 43.8967 41.9451C43.5822 41.3186 44.2111 39.7524 44.6828 39.126Z" fill="#E8A16D"/>
  <path d="M41.0664 37.7165C41.2236 37.2467 41.6953 37.0901 42.1671 36.9334C42.6388 36.7768 43.1105 36.7768 43.4249 37.0901C43.1105 37.2467 42.796 37.2467 42.3243 37.4033C42.0098 37.5599 41.5381 37.5599 41.0664 37.7165Z" fill="#161616"/>
  <path d="M44.2111 43.8243C43.8966 43.981 43.4249 43.981 43.1105 43.8243C42.796 43.8243 42.3243 43.8243 42.0098 43.8243L42.167 43.3545C42.3243 43.6677 42.6388 43.8243 42.9532 43.981C43.2677 44.1376 43.4249 44.4508 43.7394 44.6074C43.4249 44.6074 42.9532 44.6074 42.6388 44.4508C42.3243 44.2942 42.0098 43.981 41.6953 43.8243L41.2236 43.3545H41.8526C42.3243 43.3545 42.6388 43.3545 42.9532 43.5111L44.2111 43.8243Z" fill="#161616"/>
  <path d="M31.0035 47.8965C31.0035 47.7399 31.1607 47.4266 31.1607 47.27L31.4752 47.4266L31.6324 47.27L40.1232 48.523C40.1232 53.3781 43.8968 57.7634 46.4126 61.6788C50.1863 67.6302 56.9474 74.3648 52.5448 83.2919C48.6139 91.2794 38.5508 92.6889 22.1982 87.2073C22.1982 82.8221 25.8147 78.5934 25.8147 73.2684C26.1291 68.1001 27.0726 52.9082 31.0035 47.8965Z" fill="#A558A0"/>
  <path d="M30.4755 49.7643L30.4442 49.8052C29.5425 50.9872 28.8018 52.7678 28.1982 54.8713C27.5959 56.9699 27.1359 59.3681 26.7849 61.769C26.0831 66.5686 25.8195 71.3583 25.719 73.7444C25.6671 76.3078 24.7826 78.6337 23.9295 80.8041C23.9009 80.8768 23.8724 80.9493 23.8439 81.0217C23.0411 83.0619 22.2973 84.9523 22.2522 86.8306C29.8754 89.3717 36.0227 90.3199 40.7087 89.7095C45.4145 89.0965 48.6398 86.9147 50.4329 83.1811C52.4294 79.0155 51.8789 75.3996 50.3803 72.0991C49.6287 70.4437 48.6389 68.8691 47.6088 67.3444C47.2671 66.8386 46.92 66.3369 46.5758 65.8395C45.8874 64.8447 45.2111 63.8672 44.6142 62.9088M30.4755 49.7643L44.826 62.7761M30.4755 49.7643L30.488 49.7142C30.5104 49.6249 30.5447 49.5215 30.5832 49.4059L30.585 49.4005C30.5923 49.3786 30.5998 49.3562 30.6073 49.3335M30.4755 49.7643L30.3747 49.2405M44.6142 62.9088C44.614 62.9086 44.6139 62.9084 44.6138 62.9082L44.826 62.7761M44.6142 62.9088C44.6143 62.909 44.6144 62.9092 44.6145 62.9093L44.826 62.7761M44.6142 62.9088C44.1835 62.2254 43.7001 61.5109 43.2009 60.773C42.3806 59.5605 41.5176 58.2848 40.775 56.9795C39.6096 54.9308 38.7001 52.7462 38.6458 50.4715M44.826 62.7761C44.3858 62.0775 43.8983 61.3572 43.3974 60.617C41.2664 57.4682 38.8933 53.9614 38.8933 50.2569M38.6458 50.4715L38.8549 50.504L38.8933 50.2569M38.6458 50.4715L30.8856 49.2665M38.6458 50.4715C38.6441 50.4001 38.6433 50.3286 38.6433 50.2569H38.8933M38.8933 50.2569L30.8856 49.2665M30.8856 49.2665L30.9439 49.2082L30.9667 49.1855L30.973 49.1791L30.9747 49.1774L30.9752 49.177L30.9753 49.1769L30.9753 49.1769L30.9753 49.1768L30.7986 49L30.7716 49.1741L30.7602 49.247L30.86 49.2625L30.8856 49.2665ZM30.8856 49.2665L30.8748 49.2773L30.7582 49.3939L30.6073 49.3335M30.8856 49.2665L30.698 49.1006L30.6806 49.0936C30.6627 49.1607 30.6408 49.2309 30.6185 49.2994C30.6147 49.3108 30.611 49.3222 30.6073 49.3335M30.6073 49.3335L30.6051 49.3327L30.3747 49.2405M30.3747 49.2405C30.3653 49.2691 30.3557 49.298 30.346 49.3268C30.3083 49.4399 30.2706 49.5531 30.2455 49.6536C26.5249 54.5305 25.6702 68.9602 25.4691 73.7366L30.3747 49.2405Z" stroke="#FCC63A" stroke-width="0.5"/>
  <path d="M41.6958 80.9429C42.3247 77.9672 42.6392 76.0878 42.7965 74.9915C47.3563 80.1599 50.0293 82.6657 50.6583 82.8223C51.9162 82.979 53.0168 81.726 53.3313 82.0393C53.803 83.4488 52.5451 86.8944 50.0293 87.3642C48.7714 87.6775 47.0418 85.1716 46.2556 84.2319C45.7839 83.9187 44.3688 82.8224 41.6958 80.9429ZM49.5576 65.2812C50.8155 65.2812 51.4444 65.7511 52.0734 66.6908C52.7023 67.6305 53.4885 72.329 52.3879 72.329C51.2872 72.329 46.5701 70.6062 46.5701 69.3533C46.5701 68.1004 49.7148 67.6305 49.7148 66.6908C49.7148 65.7511 48.457 65.2812 49.5576 65.2812Z" fill="#E8A16D"/>
  <path d="M39.3371 85.4848C39.3371 85.798 39.1799 85.9546 39.1799 86.2679C25.8148 76.8708 25.8148 65.5944 29.7457 52.9084C26.601 65.2812 27.8589 75.9311 39.3371 85.4848Z" fill="#6E445A"/>
  <path d="M239.7 131.473H240.731V84.4367L240.789 84.2353V84.149C240.789 82.5092 242.106 81.1858 243.739 81.1858C245.372 81.1858 246.689 82.5092 246.689 84.149H247.72C247.72 81.9338 245.945 80.1501 243.739 80.1501C241.562 80.1501 239.786 81.905 239.758 84.0627L239.7 84.2641V131.473Z" fill="white"/>
  <path d="M250.957 70.0234L245.142 77.7047C243.281 78.8554 241.791 80.0349 240.674 81.2432C240.445 81.6172 240.216 82.3364 241.533 81.8473C242.851 81.3583 244.226 80.898 244.541 81.3007C244.856 81.7035 244.226 82.4802 244.77 82.9981C245.142 83.3433 246.002 81.9624 247.377 78.8842L253.85 73.6483L250.957 70.0234Z" fill="#FFE0CB"/>
  <path d="M277.22 76.5155L267.281 107.01L262.326 129.996L258.115 129.853L264.13 76.084L277.22 76.5155Z" fill="#FBB8F6"/>
  <path d="M281.202 76.6594C280.056 92.626 279.999 101.372 280.085 102.839C280.171 104.306 280.629 114.059 285.441 131.262L281.058 131.118C274.47 114.548 272.322 104.709 271.577 102.551C270.833 100.365 268.713 91.5616 265.706 76.1416L281.202 76.6594Z" fill="#FFE0CB"/>
  <path d="M277.392 76.5155C274.728 87.0448 270.145 103.817 263.701 126.861L257.571 126.659C257.915 102.81 260.378 87.1599 264.073 76.084L277.392 76.5155Z" fill="#A66989"/>
  <path d="M281.23 76.6594C280.085 92.6259 281.144 108.449 285.384 127.839L278.824 127.609C272.236 111.268 267.653 95.4165 264.789 76.084L281.23 76.6594Z" fill="#6E445A"/>
  <path d="M285.956 133.621L285.727 129.709C284.324 130.112 282.548 129.968 280.428 129.22C278.137 130.86 275.272 131.953 271.806 132.557C271.549 132.614 271.377 132.845 271.405 133.132C271.405 133.161 271.405 133.161 271.405 133.19L271.749 134.369H280.428H285.498L285.956 133.621Z" fill="white"/>
  <path d="M263.099 133.621L262.87 129.709C261.466 130.112 259.69 129.968 257.571 129.22C255.279 130.86 252.415 131.953 248.949 132.557C248.691 132.614 248.519 132.845 248.548 133.132C248.548 133.161 248.548 133.161 248.548 133.19L248.892 134.369H257.571H262.641L263.099 133.621Z" fill="white"/>
  <path d="M292.344 72.8618C293.031 73.2358 296.383 73.5522 298.531 73.5522C299.39 73.5522 299.505 74.2427 299.39 74.5304C298.33 76.9182 296.239 76.4003 294.148 76.7456C291.886 77.1195 293.575 79.306 291.8 79.6224C291.57 78.3854 291.37 75.9688 290.11 75.1058C289.565 74.7318 283.894 70.2726 273.124 61.6708L277.506 58.6213C286.472 67.6259 291.427 72.344 292.344 72.8618Z" fill="#FFE0CB"/>
  <path d="M244.921 45.5706C245.578 49.0121 247.81 56.3992 249.394 56.9386L256.319 53.6043C256.308 53.5803 256.308 53.5803 256.296 53.5562C258.713 52.0377 259.666 48.8861 258.383 46.2199L255.954 41.1757C254.578 38.3174 251.175 37.1153 248.333 38.4835L247.856 38.7135C245.312 39.9677 244.1 42.8886 244.921 45.5706Z" fill="#161616"/>
  <path d="M244.631 45.486L244.635 45.499L244.637 45.5123C244.963 47.2194 245.682 49.9141 246.516 52.2472C246.933 53.4142 247.376 54.4825 247.81 55.2888C248.027 55.6924 248.238 56.0232 248.438 56.2663C248.6 56.4641 248.742 56.5874 248.86 56.652L255.456 53.476L255.445 53.4519L255.634 53.3331C257.943 51.8819 258.856 48.8678 257.628 46.3169L255.2 41.2727C253.883 38.5375 250.629 37.3895 247.912 38.6973L247.436 38.9267C245.006 40.1258 243.845 42.9187 244.631 45.486Z" stroke="#FCC63A" stroke-width="0.5"/>
  <path d="M254.955 46.7674C255.262 44.9666 255.09 43.0132 254.021 41.1882C250.954 35.9878 245.085 40.0862 245.209 43.354C245.333 46.6218 248.995 53.4 250.867 53.1389C251.621 53.0445 252.746 51.9515 253.657 50.3392L256.456 57.9382L261.668 55.5834L254.955 46.7674Z" fill="#FFE0CB"/>
  <path d="M253.277 46.4298C254.39 49.4147 256.047 52.6113 257.217 53.0246L264.142 49.6902C261.275 42.7567 258.81 47.1685 255.757 40.8272C255.402 40.702 255.083 40.5893 254.776 40.5007L254.683 40.3085C252.298 38.4093 250.18 37.9202 248.341 38.8055C245.571 40.1393 245.336 41.8502 245.127 43.3116C246.602 44.9687 248.914 44.2107 251.391 44.4678C251.513 44.1722 251.777 43.9266 252.088 43.7772C252.804 43.4322 253.69 43.7453 254.037 44.4659C254.384 45.1865 254.076 46.0744 253.36 46.4194C253.325 46.4068 253.301 46.4183 253.277 46.4298Z" fill="#161616"/>
  <path d="M263.5 50.0257C260.632 43.0921 258.168 47.5039 255.114 41.1627C254.76 41.0375 254.807 40.0887 254.5 40M247.37 39.141C244.6 40.4747 244.365 42.1857 244.157 43.647" stroke="#FCC63A" stroke-width="0.5"/>
  <path d="M247.864 47.4262C247.987 47.376 248.165 47.1362 248.355 47.2253C249.071 48.1004 247.698 47.9949 247.864 47.4262Z" fill="#6E445A"/>
  <path d="M247.126 49.014C247.503 49.506 247.41 51.9727 247.894 52.0968C248.194 52.1345 248.891 51.5227 248.88 51.2036C248.857 50.5653 247.739 49.4084 247.126 49.014Z" fill="#FFE0CB"/>
  <path d="M249.188 46.6424C248.854 46.2582 248.405 46.27 247.956 46.2818C247.507 46.2936 247.128 46.4509 247.014 46.8469C247.336 46.8875 247.589 46.7826 248.038 46.7709C248.36 46.8115 248.739 46.6542 249.188 46.6424Z" fill="#6E445A"/>
  <path d="M248.538 52.0756C248.859 52.1159 249.238 51.9595 249.421 51.7107C249.673 51.6064 250.051 51.45 250.303 51.3457L249.97 50.9642C249.982 51.3054 249.799 51.5543 249.616 51.8031C249.433 52.0519 249.445 52.3932 249.262 52.642C249.514 52.5377 249.892 52.3813 250.075 52.1325C250.258 51.8836 250.372 51.4903 250.556 51.2414L250.727 50.6514L250.222 50.8599C249.844 51.0163 249.592 51.1206 249.409 51.3694L248.538 52.0756Z" fill="#6E445A"/>
  <path d="M260.896 52.2731L258.777 52.2156C257.201 64.3272 245.572 69.1027 245.171 73.5906C245.028 75.2305 246.288 75.8634 245.773 76.4387L248.78 78.021C249.153 77.4169 250.27 78.2512 252.217 77.273C254.136 76.2949 262.93 66.0533 260.896 52.2731Z" fill="#F983F1"/>
  <path d="M254.212 57.5121C262.323 70.7611 256.628 78.7757 261.508 83.1336C265.549 86.7155 281.928 83.4125 281.704 77.6604C281.627 75.3488 280.78 72.9577 279.47 70.6225C281.128 72.0292 282.508 73.3022 283.616 74.3555C285.531 76.2116 288.069 75.1679 288.557 76.0361L291.117 73.3505C290.238 72.3124 291.337 70.8856 289.424 68.5396C280.847 57.9988 271.199 52.3753 260.508 51.6995L259.776 50.6134C259.461 50.1602 258.865 50.0632 258.413 50.3794L253.029 54.1186C252.577 54.4348 252.48 55.0339 252.795 55.4871L254.212 57.5121Z" fill="#F767EF"/>
  <path d="M264.815 64.0445C264.672 64.3879 263.788 64.1968 263.507 64.1855C263.012 64.1315 262.551 63.9802 262.085 63.783C261.547 63.5716 261.157 63.0626 261.409 62.4729C261.497 62.2526 261.715 62.1322 261.938 62.0577C262.318 61.9401 262.827 61.9226 263.137 62.1628C263.162 62.1828 263.162 62.1828 263.137 62.1628C262.604 61.2532 263.731 60.228 264.469 60.9257C265.093 61.4518 265.229 63.0856 264.815 64.0445Z" fill="#FCC63A"/>
  <path d="M319.16 -54.137H148.56V29.6355H319.16V-54.137Z" fill="#A558A0"/>
  <path d="M317.459 1.36353H148.367V28.0114H317.459V1.36353Z" fill="#FDDBFA"/>
  <path d="M265.052 -55.7227H261.107H206.69H202.745H146.742V31.492H202.745H206.69H261.107H265.052H321.055V-55.7227H265.052ZM150.648 27.7017V-51.9711H202.745V27.7404H150.648V27.7017ZM206.69 27.7017V-51.9711H261.107V27.7404H206.69V27.7017ZM317.11 27.7017H265.014V-51.9711H317.11V27.7017Z" fill="#A558A0"/>
  <path d="M173.235 38.2169V-56.4961H162.406V38.2169C167.357 41.235 171.688 39.4744 173.235 38.2169Z" fill="#FEE7FC"/>
  <path d="M155.251 38.2169V-56.4961H144.422V38.2169C149.372 41.235 153.704 39.4744 155.251 38.2169Z" fill="#FEE7FC"/>
  <path d="M162.6 37.9451V-56.4961H155.251V37.9451C158.61 40.9546 161.55 39.1991 162.6 37.9451Z" fill="#A558A0"/>
  <path d="M182.711 37.7622V-56.4961H173.042V37.7622C177.462 40.7658 181.33 39.0137 182.711 37.7622Z" fill="#A558A0"/>
  </g>
  <defs>
  <clipPath id="clip0_2857_18195">
  <rect width="282" height="158.63" fill="white"/>
  </clipPath>
  </defs>
  </svg>
