<svg width="282" height="159" viewBox="0 0 282 159" fill="none" xmlns="http://www.w3.org/2000/svg">
  <g clip-path="url(#clip0_2857_16770)">
  <path d="M282 -39.1667H0V166.85H282V-39.1667Z" fill="#C5D0FC"/>
  <path d="M282 106.85H0V159.333H282V106.85Z" fill="#465F9D"/>
  <path d="M285.682 -25.7666H232.102V46.6526H285.682V-25.7666Z" fill="url(#paint0_linear_2857_16770)"/>
  <mask id="mask0_2857_16770" style="mask-type:alpha" maskUnits="userSpaceOnUse" x="232" y="-26" width="53" height="73">
  <path d="M284.35 -25.2346H232.258V46.832H284.35V-25.2346Z" fill="url(#paint1_radial_2857_16770)"/>
  </mask>
  <g mask="url(#mask0_2857_16770)">
  <path d="M297.745 3.64751C297.745 3.64751 295.474 3.41251 294.024 3.21668C293.633 3.02084 293.084 2.90334 292.536 2.86417C292.379 2.62917 292.34 2.27668 291.909 2.12001C291.322 1.88501 290.891 1.96334 290.695 2.04168C290.499 2.12001 290.382 0.396676 289.011 0.200843C287.64 0.00500941 287.679 0.161676 286.779 0.200843C286.779 0.200843 286.348 -1.05249 285.408 -1.16999C284.507 -1.24832 283.919 -0.660823 283.802 -0.621657C283.802 -0.621657 283.684 -1.28749 283.293 -1.32666C282.901 -1.36582 282.314 -1.05249 282.314 -1.05249C281.844 -1.44416 281.922 -1.48332 281.256 -1.60082C280.59 -1.71832 280.238 -1.01332 280.238 -1.01332C280.238 -1.01332 280.081 -1.13082 279.885 -1.40499C279.689 -1.63999 279.18 -1.83582 278.632 -1.91416C278.084 -1.95333 277.849 -1.40499 277.849 -1.44416C277.849 -1.48333 277.653 -1.75749 277.379 -2.18832C277.104 -2.57999 276.086 -2.81499 275.459 -2.69749C274.833 -2.57999 274.676 -1.95332 274.676 -1.95332C274.676 -1.95332 274.089 -2.42332 272.953 -3.16749C271.817 -3.91166 268.762 -4.06832 267.274 -3.55916C265.785 -3.04999 264.297 -0.895825 264.297 -0.895825C264.297 -0.895825 263.905 -1.20916 263.67 -1.36582C263.435 -1.52249 263.004 -1.75749 262.378 -1.32666C261.751 -0.895825 261.555 -0.0733256 261.555 -0.0733256C261.555 -0.0733256 260.889 -0.425826 260.498 -0.464993C260.106 -0.504159 259.754 -0.425826 259.244 -0.0733256C258.774 0.279174 258.735 1.45417 258.735 1.45417C258.5 1.21918 257.874 1.02334 257.443 1.25834C257.051 1.49334 256.738 2.55084 256.738 2.55084C255.563 2.90334 251.607 3.49084 251.607 3.49084H254.035C254.819 3.60834 255.602 3.76501 256.346 3.88251C257.208 4.00001 257.913 3.84334 258.696 3.80418C259.323 3.80418 259.793 4.00001 260.498 4.07834C261.908 4.23501 263.357 4.43084 264.806 4.35251C265.589 4.31334 266.099 4.00001 266.804 3.80418C267.43 3.64751 267.704 3.80418 268.449 3.96084C269.467 4.15668 270.485 4.15668 271.543 4.15668C271.974 4.15668 272.444 4.19584 272.835 4.15668C273.149 4.11751 273.188 3.80418 273.579 3.80418C274.245 3.84334 274.794 4.82251 275.577 4.07834C276.086 4.50918 276.478 4.03918 276.909 4.00001C278.123 3.88251 279.454 4.35251 280.708 4.35251C281.765 4.35251 282.784 4.31334 283.802 4.07834C284.429 3.92168 285.134 3.53001 285.76 3.49084C286.583 3.45168 287.758 3.92168 288.737 3.96084C289.559 4.00001 290.343 3.96084 291.165 3.80418C291.831 3.68668 292.614 3.60834 293.28 3.49084H297.745V3.64751Z" fill="#C5D0FC"/>
  </g>
  <path d="M230.927 -27.3333V49.3159H287.131V-27.3333H230.927ZM257.952 45.1251H233.982V11.6767H257.952V45.1251ZM257.952 9.17008H233.982V-24.2391H257.952V9.17008ZM284.546 45.1251H260.576V11.6767H284.546V45.1251ZM284.546 9.17008H260.576V-24.2391H284.546V9.17008Z" fill="#465F9D"/>
  <path d="M289.598 48.6892H228.733V54.4467H289.598V48.6892Z" fill="#2F4077"/>
  <path d="M267.744 96.3585C267.665 96.4368 267.587 96.5151 267.509 96.5935C264.963 96.476 262.456 96.3976 259.91 96.5151C258.461 96.5935 257.012 96.711 255.484 96.7893C258.03 94.6351 263.827 94.4393 267.744 96.3585Z" fill="#4E68BB"/>
  <path d="M268.057 94.0476C267.978 94.0085 267.939 93.9693 267.861 93.9301C268.488 89.661 270.407 86.2535 274.402 84.2168C274.049 84.726 273.697 85.2743 273.305 85.7835C271.347 88.3685 269.623 91.071 268.135 93.9693C268.135 94.0085 268.096 94.0085 268.057 94.0476Z" fill="#4E68BB"/>
  <path d="M266.334 92.2854C266.451 92.442 266.529 92.5987 266.529 92.7946C264.61 92.4029 262.691 92.1287 260.772 91.9329C258.853 91.7371 256.894 91.6587 254.936 91.502C255.406 91.3062 255.837 91.1104 256.307 90.9537C258.618 90.2487 260.968 90.4054 263.239 91.1104C264.101 91.3845 264.924 91.8546 265.785 92.2071C265.942 92.2854 266.138 92.5987 266.334 92.2854Z" fill="#4E68BB"/>
  <path d="M262.926 85.3528C263.2 85.5878 263.435 85.7837 262.926 85.9795C261.712 85.4703 260.498 84.922 259.283 84.4128C257.286 83.5512 255.249 82.8462 253.173 82.1803C252.899 82.102 252.664 82.0237 252.233 81.867C254.897 81.5145 257.208 82.0628 259.44 83.1595C260.576 83.7078 261.594 84.3737 262.495 85.2353C262.652 85.3528 262.73 85.5095 262.926 85.3528Z" fill="#4E68BB"/>
  <path d="M265.864 89.8177C265.824 89.7785 265.785 89.7002 265.746 89.661C265.785 85.6268 267.195 82.2193 270.524 79.791C270.564 79.8302 270.642 79.8302 270.681 79.8693C270.133 80.8093 269.624 81.7885 269.075 82.7285C267.822 85.0393 266.764 87.3893 265.864 89.8177Z" fill="#4E68BB"/>
  <path d="M264.492 88.5644C264.727 88.721 264.845 88.956 264.61 89.191C262.73 88.4077 260.85 87.5852 258.931 86.9585C257.364 86.4494 255.797 85.9794 254.152 85.431C255.68 85.1569 257.051 85.2352 258.461 85.5485C260.497 86.0185 262.338 86.8802 263.944 88.2511C264.062 88.4077 264.179 88.721 264.492 88.5644Z" fill="#4E68BB"/>
  <path d="M262.417 82.6894C262.025 82.7286 261.908 82.4544 261.908 82.1411C262.104 81.9453 261.947 81.7494 261.908 81.5536C261.712 78.8511 262.26 76.3053 263.788 73.9944C263.905 73.8378 263.984 73.6811 264.219 73.6028C264.375 73.7986 264.258 73.9944 264.219 74.1903C263.474 76.8928 262.848 79.6345 262.495 82.4545C262.495 82.5328 262.417 82.6111 262.417 82.6894Z" fill="#4E68BB"/>
  <path d="M259.91 79.5951C260.067 79.7126 260.419 79.791 260.067 80.1043C257.873 78.7726 255.641 77.5193 253.252 76.4618C253.095 76.3835 252.938 76.3443 252.821 76.2268C255.758 76.266 258.069 77.4801 259.91 79.5951Z" fill="#4E68BB"/>
  <path d="M266.686 74.8562C266.725 74.817 266.725 74.7778 266.764 74.7778C266.843 74.8562 266.804 74.8953 266.725 74.9345C266.764 74.8953 266.686 74.8562 266.686 74.8562Z" fill="#4E68BB"/>
  <path d="M269.232 77.8326C269.271 77.8326 269.349 77.7935 269.389 77.7935C269.428 77.8718 269.389 77.8718 269.31 77.911C269.271 77.911 269.271 77.8718 269.232 77.8326Z" fill="#4E68BB"/>
  <path d="M259.949 71.0178C259.244 72.1536 259.087 73.4069 258.97 74.8561C258.97 74.7386 258.774 74.4253 258.696 74.2686C258.578 74.0336 258.461 73.8378 258.343 73.6028C258.108 73.1719 257.834 72.7803 257.521 72.3886C256.894 71.6053 256.15 70.9003 255.288 70.3911C255.367 70.5086 255.367 70.7044 255.484 70.8611C255.602 71.0569 255.758 71.2528 255.876 71.4878C256.463 72.3886 257.012 73.3286 257.599 74.2294C257.717 74.3861 258.617 75.7961 258.422 75.9136C258.382 75.9528 258.343 75.9528 258.343 75.9919C258.343 75.9919 258.304 75.9919 258.304 75.9528C257.482 74.9736 256.463 74.1903 255.288 73.6419C255.092 73.5636 254.857 73.3678 254.466 73.6028C256.189 74.9736 257.677 76.5011 259.205 77.9894C259.518 78.4986 259.949 78.9686 259.988 79.6344C260.145 79.7519 260.497 79.8303 260.145 80.1436C260.967 80.9269 261.242 82.0236 261.672 83.0419C260.497 81.7886 259.205 80.7311 257.717 79.9478C255.993 79.0469 253.957 78.5769 252.821 78.8119C255.562 80.0653 258.187 81.3969 260.732 82.9636C261.751 83.5903 262.573 84.2953 263.004 85.4311C263.278 85.6661 263.513 85.8619 263.004 86.0578C263.2 86.2536 263.513 86.3319 263.592 86.6061C263.748 87.3503 264.336 87.8986 264.61 88.6036C264.845 88.7603 264.962 88.9953 264.727 89.2303C265.158 89.5436 265.276 89.9744 265.432 90.6403C263.709 89.4261 262.025 88.6036 260.106 88.2119C258.226 87.8203 255.406 88.0161 254.505 88.7211C254.74 88.7603 254.897 88.7603 255.092 88.7994C258.108 89.1519 261.085 89.7003 264.022 90.4444C265.158 90.7186 266.098 91.1494 266.451 92.3636C266.568 92.5203 266.647 92.6769 266.647 92.8728C266.882 93.3036 267.156 93.7344 267.352 94.3611C263.161 92.7161 259.127 92.5203 255.288 94.9878C255.367 95.0269 255.406 95.0661 255.445 95.0269C259.244 94.5961 263.043 94.2828 266.842 94.5178C267.077 94.5178 267.391 94.4003 267.547 94.6744C267.861 95.2619 268.174 95.8886 268.527 96.6328C268.174 96.5153 267.978 96.4761 267.822 96.4369C267.743 96.5153 267.665 96.5936 267.587 96.6719C268.566 96.5936 268.918 97.2203 269.232 98.0036C269.937 99.5311 270.72 101.019 271.464 102.547C271.542 102.743 271.621 102.939 271.895 102.821C272.169 102.704 272.012 102.508 271.934 102.312C271.895 102.194 271.817 102.077 271.777 101.959C270.955 100.314 270.172 98.6694 269.349 97.0244C269.153 96.6328 269.192 96.3586 269.427 96.0453C269.819 95.5753 270.25 95.1053 270.563 94.5961C271.66 92.8728 273.031 91.3844 274.362 89.8961C275.381 88.7603 276.477 87.6636 277.496 86.5669C272.796 88.1336 270.407 91.7369 268.997 96.2411C268.762 95.4578 268.017 94.9486 268.174 94.0869C268.096 94.0478 268.057 94.0086 267.978 93.9694C267.273 93.2253 267.038 92.4419 267.469 91.3844C268.801 88.0944 270.367 84.9611 272.13 81.8669C270.328 82.8853 269.153 84.4519 268.292 86.2928C267.391 88.1336 267.156 90.0919 266.96 92.0894C266.607 91.3453 266.059 90.7186 265.981 89.8961C265.942 89.8569 265.902 89.7786 265.863 89.7394C265.315 89.0736 264.923 88.4078 265.276 87.4678C265.785 86.2144 266.216 84.9611 266.725 83.7078C267.508 81.7494 268.527 79.9086 269.427 77.9894C269.388 77.9503 269.388 77.9503 269.349 77.9111C267.352 79.2428 266.255 81.2403 265.472 83.4728C265.002 84.8436 264.923 86.2536 264.845 87.7028C264.14 86.7236 264.101 86.5278 264.257 85.5094C264.532 83.8644 264.884 82.2586 265.276 80.6136C265.746 78.6944 266.333 76.8144 266.882 74.9344L266.842 74.8953C266.02 75.6003 265.511 76.5011 265.08 77.4803C263.983 79.7911 263.513 82.2586 263.787 84.8044C263.827 85.0394 263.827 85.2744 263.827 85.5094C263.317 84.6086 262.612 83.8253 262.534 82.7678C262.142 82.8069 262.025 82.5328 262.025 82.2194C261.829 81.7494 261.672 81.2794 261.398 80.8486C261.085 80.3394 260.928 79.9086 261.007 79.2819C261.281 77.2061 261.79 75.1694 262.221 73.1328C262.377 72.7019 262.534 72.2711 262.573 71.6836C262.221 72.0753 261.986 72.3886 261.829 72.7411C260.654 74.5819 260.458 76.6186 260.419 78.7336C259.636 76.1486 259.949 73.5636 259.949 71.0178Z" fill="#4E68BB"/>
  <path d="M277.457 97.8866C275.616 96.7116 274.715 94.8316 273.971 92.9124C272.678 89.5049 272.091 85.9016 271.738 82.2591C271.738 82.1024 271.777 81.9457 271.777 81.7891C273.07 85.3924 274.402 88.9957 275.851 92.5599C276.477 94.1266 277.3 95.6149 277.535 97.2991C277.535 97.4949 277.496 97.6907 277.457 97.8866Z" fill="#465F9D"/>
  <path d="M278.279 97.4947C278.828 96.8289 279.493 96.3197 280.238 95.8889C283.606 93.9697 286.935 91.8939 290.108 89.7006C290.382 89.5047 290.656 89.3089 291.048 89.3481C291.126 89.9356 290.617 90.1314 290.303 90.4056C287.679 93.1472 284.82 95.6539 281.373 97.3381C280.433 97.7689 279.454 98.1214 278.397 98.1214C278.318 97.9256 278.123 97.7297 278.279 97.4947Z" fill="#465F9D"/>
  <path d="M279.611 90.9932C283.41 88.3298 287.601 86.3715 291.439 83.7473C291.204 84.374 290.734 84.7265 290.303 85.1181C288.031 87.2723 285.642 89.3873 282.744 90.6798C281.726 91.1498 280.668 91.4632 279.493 91.3457C279.532 91.2673 279.572 91.1498 279.611 90.9932Z" fill="#465F9D"/>
  <path d="M279.023 91.0322C277.848 90.0922 277.417 88.7213 277.026 87.3897C276.203 84.5305 276.047 81.593 276.047 78.6555C276.047 78.303 275.694 77.7547 276.242 77.598C276.399 77.5588 276.438 78.2638 276.517 78.6163C277.3 81.9063 277.966 85.2355 278.945 88.4863C279.141 89.113 279.023 89.818 279.337 90.4055C279.493 90.7188 279.062 90.7972 279.023 91.0322Z" fill="#465F9D"/>
  <path d="M278.514 94.7139C281.373 92.5205 284.624 90.9538 287.601 88.9563C288.345 88.4472 289.168 87.9772 289.951 87.468C290.068 87.8205 289.833 87.938 289.716 88.0555C287.64 90.2097 285.408 92.2072 282.823 93.6955C281.491 94.4397 280.081 95.0272 278.514 94.9489C278.475 94.8705 278.475 94.7922 278.514 94.7139Z" fill="#465F9D"/>
  <path d="M278.044 94.5573C276.399 93.1473 275.733 91.1889 275.224 89.1914C274.558 86.6064 274.245 83.9431 274.206 81.2014C274.519 81.3972 274.519 81.6714 274.558 81.9064C275.498 85.3531 276.556 88.7606 277.809 92.0898C278.005 92.6773 277.926 93.3039 278.279 93.8523C278.279 94.1264 278.122 94.3223 278.044 94.5573Z" fill="#465F9D"/>
  <path d="M278.044 94.5572C278.122 94.3222 278.318 94.0872 278.279 93.8131C278.514 92.8731 278.788 91.9331 279.023 91.0322C279.102 90.7972 279.493 90.7189 279.337 90.4056C279.65 89.6222 279.963 88.7997 280.277 88.0164C280.747 87.7814 280.512 87.2331 280.707 86.8806C281.295 86.3714 281.53 85.6272 281.882 84.9614C282.039 84.8047 282.274 84.6872 282.313 84.4131C282.666 83.8647 282.979 83.2772 283.332 82.7289C283.488 82.5331 283.606 82.2981 283.762 82.1022C284.193 81.4364 284.624 80.7706 285.055 80.1047C285.094 79.9872 285.133 79.9089 285.172 79.7914C285.799 79.2822 286.347 78.6947 286.543 77.9114C287.131 77.8722 287.327 77.3239 287.64 76.9714C287.718 76.8147 287.836 76.6581 288.032 76.6189C288.306 76.8931 287.757 77.0106 287.875 77.2456C287.679 77.6372 287.17 77.7939 287.131 78.3031C286.347 78.7731 285.956 79.5564 285.486 80.3006C285.212 80.5356 284.937 80.7314 284.859 81.0839C284.193 81.9847 283.567 82.8464 283.057 83.8256C282.901 84.2956 282.313 84.5306 282.431 85.1181C281.726 85.7839 281.53 86.7631 280.982 87.5464C280.864 87.8206 280.747 88.1339 280.629 88.4081C280.277 89.2697 279.924 90.1706 279.572 91.0322C279.532 91.1497 279.493 91.2672 279.454 91.3847C278.984 92.4422 278.749 93.6172 278.475 94.7139C278.475 94.7922 278.436 94.8706 278.436 94.9489C278.397 95.8106 277.927 96.5939 278.24 97.4947C278.122 97.7297 278.279 97.8864 278.357 98.0822C277.887 98.1606 278.005 98.5522 277.966 98.8264C277.927 100.432 278.044 102.038 278.357 103.605C278.397 103.722 278.436 103.879 278.436 103.996C278.475 104.231 278.475 104.427 278.201 104.506C277.927 104.545 277.927 104.31 277.887 104.153C277.77 103.644 277.692 103.174 277.613 102.665C277.339 101.059 277.457 99.4922 277.417 97.8864C277.457 97.6906 277.496 97.4947 277.496 97.2989C277.692 96.3981 277.887 95.4581 278.044 94.5572Z" fill="#465F9D"/>
  <path d="M280.707 86.8414C280.512 87.1939 280.747 87.7422 280.277 87.9772C279.611 87.3114 279.337 86.4497 279.062 85.588C278.279 82.8072 278.475 80.0264 278.632 77.2064C278.671 76.5014 278.749 75.7964 278.945 74.9739C279.18 75.8355 279.141 76.6189 279.258 77.4022C279.611 80.183 280.002 82.9247 280.394 85.7055C280.433 86.0972 280.198 86.5672 280.707 86.8414Z" fill="#465F9D"/>
  <path d="M282.274 84.374C282.235 84.6482 282.039 84.7657 281.843 84.9223C280.747 83.669 280.551 82.1415 280.394 80.614C280.081 78.0682 280.394 75.4832 280.59 72.9373C280.59 72.7807 280.629 72.5457 280.786 72.5457C281.099 72.5457 281.021 72.859 281.06 73.0548C281.295 75.6007 281.569 78.1465 281.804 80.6923C281.922 81.8673 282.274 83.0423 282.078 84.2565C282.078 84.3348 282.235 84.374 282.274 84.374Z" fill="#465F9D"/>
  <path d="M280.629 88.369C280.747 88.0948 280.864 87.7815 280.982 87.5073C281.178 87.7815 281.295 87.5073 281.452 87.429C284.585 85.4315 287.679 83.434 290.813 81.4365C290.852 81.3973 290.93 81.3973 291.087 81.3582C290.656 82.1415 290.029 82.6115 289.481 83.1207C287.562 84.9615 285.564 86.7632 283.058 87.8207C282.274 88.1732 281.491 88.3298 280.629 88.369Z" fill="#465F9D"/>
  <path d="M271.817 81.7889L271.777 81.7498C271.777 81.7498 271.777 81.7889 271.817 81.7889Z" fill="#465F9D"/>
  <path d="M272.208 92.7554C276.086 91.6979 279.885 90.1704 283.41 88.2121C284.859 87.4287 286.308 86.5279 287.483 85.3529C282.078 86.9587 276.947 89.3479 272.208 92.4421C271.934 92.1679 272.012 91.6979 272.247 91.3846C272.482 91.0713 272.835 90.8754 273.187 90.6796C277.652 88.2121 281.804 85.2746 285.603 81.8671C286.465 81.0837 287.327 80.2612 287.953 79.2821C287.757 79.3996 287.601 79.4779 287.405 79.5954C281.922 82.7679 276.83 86.5671 272.208 90.8754C272.208 90.4837 272.169 90.1312 272.169 89.7396C272.169 89.3087 272.052 89.1129 272.365 88.8388C272.874 88.3687 273.501 87.9771 274.049 87.5462C275.146 86.6454 276.242 85.7446 277.3 84.8046C279.415 82.8854 281.373 80.8487 283.175 78.6946C283.332 78.4987 284.076 77.8329 284.076 77.5587C284.507 77.0104 285.133 76.3837 285.447 75.7571C285.486 75.6396 284.977 75.8354 284.937 75.8354C284.663 75.9529 284.428 76.1879 284.193 76.3837C283.292 77.0496 282.509 77.7154 281.647 78.4596C280.668 79.3213 279.689 80.2221 278.749 81.1621C276.869 83.0421 275.107 85.0396 273.383 87.0763C273.305 87.1937 273.266 87.2721 273.266 87.3896C272.757 87.5854 272.6 88.2513 272.091 88.4471C272.091 87.9379 272.091 87.4287 272.091 86.9196C272.091 86.4887 272.012 86.0971 272.404 85.7837C272.404 85.6662 272.404 85.5879 272.404 85.4704C272.404 85.5487 272.404 85.6662 272.404 85.7446C272.678 85.7837 273.344 85.0396 273.579 84.8437C276.634 82.2979 279.18 79.0079 281.53 75.8354C282.235 74.8954 283.371 73.9162 283.488 72.7021C283.488 72.8587 282.666 73.4071 282.509 73.5638C281.961 74.0729 281.334 74.5037 280.786 75.0521C280.316 75.5221 279.885 76.0312 279.415 76.5013C278.592 77.3629 277.77 78.2637 276.987 79.1646C276.164 80.1437 275.263 81.1621 274.441 82.2196C274.206 82.4937 272.443 85.4704 272.326 85.4312C272.247 85.3921 272.091 85.3921 272.091 85.3529C272.169 84.2171 271.582 82.9246 272.678 81.9846C272.992 81.9454 273.148 81.6712 273.344 81.4754C275.42 79.3212 277.182 76.9321 278.788 74.4254C279.219 73.7596 279.689 73.0546 280.042 72.3104C280.198 71.9971 280.551 71.4879 280.512 71.1354C280.472 70.4696 279.023 72.1929 278.906 72.3496C278.162 73.2112 277.457 74.0729 276.752 74.9346C275.381 76.6971 274.127 78.5379 273.031 80.4571C272.757 80.9662 272.443 81.4362 272.169 81.9062C272.13 81.8671 272.052 81.8671 272.012 81.8279C272.13 80.9662 271.738 80.0654 272.365 79.2821C272.6 79.2821 272.717 79.0862 272.835 78.9687C273.971 77.5196 275.067 76.0312 276.007 74.4646C276.477 73.6812 276.947 72.8979 277.339 72.0754C277.848 71.0571 278.279 70.0779 278.632 68.9812C278.671 68.8637 278.71 68.7462 278.671 68.6287C278.397 68.6287 278.24 68.9029 278.083 69.0987C276.086 71.5271 274.402 74.1121 272.992 76.9321C272.678 77.5587 272.482 78.2246 271.973 78.7729C271.895 77.7546 271.895 76.7754 271.895 75.7571C271.895 75.0521 272.443 74.4254 272.952 73.9946C273.383 73.6812 273.657 73.2113 273.971 72.7804C274.127 72.5454 274.48 72.2321 274.48 71.9187C274.715 71.5662 274.911 71.2137 275.107 70.8612C275.263 70.5871 275.655 70.0387 275.655 69.7646C275.968 69.0987 276.399 68.4329 276.399 67.6496C276.36 67.4929 276.321 67.2971 276.164 67.4929C275.655 68.1588 275.067 68.7854 274.637 69.4904C274.088 70.3521 273.579 71.2137 273.07 72.0754C272.913 72.3104 272.757 72.5454 272.678 72.8196C272.6 73.0154 272.404 73.9554 272.052 73.8771C271.934 73.8379 271.934 73.7596 271.934 73.6421C272.012 73.0154 271.699 72.3888 272.052 71.8013C272.287 71.8013 272.443 71.6054 272.561 71.4096C273.462 70.1563 274.206 68.8637 274.715 67.4146C274.95 66.7879 275.067 66.2004 275.067 65.5346C274.558 65.9654 274.167 66.5137 273.814 67.0621C273.305 67.8846 272.717 68.7854 272.404 69.7254C272.287 70.0779 272.208 70.3913 271.895 70.6263C271.895 70.2346 271.856 69.8429 271.856 69.4513C271.856 69.3729 271.856 69.2946 271.856 69.2554C271.856 69.1771 271.895 69.1379 271.934 69.0596C272.482 67.8846 272.365 66.1221 272.208 64.8687C272.13 64.3204 272.169 63.6937 271.777 63.2237C271.777 63.1454 271.738 63.0671 271.738 63.0279C271.621 62.8321 271.621 62.9888 271.582 63.0671C271.425 63.6546 271.229 64.2421 271.268 64.8296C270.955 66.6313 271.229 68.3937 271.582 70.1562C271.582 70.3129 271.582 70.4696 271.542 70.6263C271.542 70.7829 270.994 69.9996 270.955 69.9212C270.289 68.3938 269.623 66.7487 268.292 65.6912C268.605 67.7279 269.427 69.5687 270.642 71.1746C270.798 71.4096 270.877 71.7229 271.268 71.7229C271.582 72.5062 271.347 73.2896 271.229 74.0729C271.307 73.4854 270.877 73.0937 270.563 72.7021C269.897 71.7229 269.545 70.5871 268.879 69.6471C268.566 69.1771 268.213 68.7463 267.861 68.3546C267.626 68.1196 266.842 67.5713 266.764 67.2971C267.156 68.8246 267.861 70.2737 268.683 71.6446C269.075 72.3104 269.506 72.9762 269.976 73.6029C270.172 73.8771 270.407 74.1512 270.602 74.4254C270.759 74.6212 271.386 75.2087 271.386 75.4437C271.386 76.5012 271.386 77.5979 271.347 78.6554C271.268 78.6554 271.19 78.6554 271.072 78.6554C270.955 78.6554 269.976 76.2662 269.819 75.9921C269.388 75.1304 268.879 74.3079 268.37 73.4854C267.508 71.8796 266.294 70.6262 265.276 69.1379C265.119 68.9421 264.962 68.7071 264.688 68.6287C264.649 68.7071 264.649 68.7854 264.688 68.8638C265.707 71.8796 267.352 74.5038 269.153 77.0887C269.467 77.5588 269.78 77.9112 270.172 78.3421C270.602 78.7729 271.033 79.3212 271.19 79.9087C271.307 80.2221 271.347 80.5746 271.347 80.8879C271.347 81.0837 271.112 81.8279 271.151 81.9454C271.033 81.7496 270.955 81.5929 270.837 81.3971C269.976 79.9088 269.036 78.4987 268.057 77.0887C267.469 76.2663 266.96 75.3654 266.333 74.5821C265.55 73.6029 264.649 72.6629 263.827 71.7621C263.709 71.6446 262.612 70.6262 262.652 70.5479C262.612 70.7046 262.573 70.7437 262.573 70.7829C262.691 71.0571 262.808 71.3704 262.965 71.6446C264.336 74.2687 266.02 76.7362 267.9 79.0471C268.762 80.1046 269.584 81.2796 270.759 82.0237C271.151 82.3762 271.307 82.7679 271.268 83.3162C271.229 83.9821 271.268 84.6087 271.268 85.2746C271.112 85.2354 270.994 85.1571 270.837 85.1179C270.642 84.6479 270.289 84.2562 270.015 83.8254C268.605 81.8279 267.077 79.9871 265.432 78.1854C264.61 77.2846 263.748 76.3837 262.887 75.5221C262.456 75.0913 262.025 74.6604 261.594 74.2296C261.398 74.0337 260.537 73.4071 260.537 73.0937C260.458 73.0154 259.949 72.7412 259.949 72.7021C259.949 73.1721 260.184 73.4071 260.341 73.6812C262.847 77.4804 265.746 80.9271 268.997 84.0996C269.623 84.7262 270.211 85.4312 271.072 85.8229C271.112 85.8621 271.151 85.9012 271.19 85.9796C271.347 86.1362 271.268 86.9587 271.268 87.1937C271.268 87.4679 271.347 87.8204 271.268 88.0946C271.229 88.2121 271.112 88.5254 270.916 88.4079C270.877 88.3687 270.837 88.3296 270.798 88.2904C270.563 87.8987 270.328 87.4287 270.015 87.1154C269.584 86.5671 269.114 86.0187 268.644 85.4704C267.743 84.4129 266.764 83.3554 265.785 82.3371C263.827 80.3004 261.712 78.3812 259.518 76.6187C258.97 76.1879 258.461 75.7962 257.912 75.3654C258.187 76.2271 258.774 76.9321 259.322 77.5979C260.38 78.8512 261.477 80.0654 262.612 81.2796C264.297 83.0812 266.059 84.8437 267.978 86.3712C269.075 87.2329 272.326 89.0346 271.072 90.8362C266.607 86.4887 261.555 82.6896 256.111 79.6346C255.915 79.5171 255.641 79.4779 255.602 79.6737C259.949 84.0212 264.923 87.7812 270.328 90.7187C270.642 90.8754 270.955 91.0712 271.151 91.3454C271.347 91.6196 271.386 92.0896 271.112 92.3246C266.412 89.2304 261.281 86.8804 255.876 85.3137C256.855 86.4104 258.147 87.1546 259.44 87.8987C262.691 89.6612 266.059 91.3454 269.662 92.2462C270.093 92.3637 270.563 92.4421 270.916 92.7554C271.268 93.0296 271.425 93.5779 271.19 93.9696C266.921 92.6771 262.417 92.2071 257.991 92.5596C262.221 94.0087 266.725 94.5571 271.19 94.1654C271.503 94.4396 271.386 95.0271 271.033 95.2621C270.681 95.5362 270.25 95.5362 269.819 95.5754C266.921 95.7712 263.944 96.3196 261.555 97.9254C264.923 98.0037 268.292 97.2204 271.268 95.6929C271.268 97.6121 271.307 99.5704 271.307 101.49C271.307 101.685 271.347 101.96 271.542 101.999C271.817 102.038 271.895 101.685 271.895 101.411C271.895 99.4921 271.895 97.5729 271.856 95.6537C271.973 95.6537 272.091 95.6929 272.208 95.6929C272.247 95.8496 272.365 95.9279 272.522 95.9671C274.362 96.8679 276.36 97.3379 278.397 97.6904C279.415 97.8471 280.472 98.0037 281.608 97.7687C281.412 97.8079 280.472 97.1421 280.237 97.0638C279.728 96.8288 279.18 96.6721 278.632 96.5154C278.318 96.3979 278.005 96.3196 277.692 96.2021C275.851 95.6537 273.892 95.5362 271.973 95.4187C271.934 95.4187 271.895 95.4187 271.895 95.3796C271.895 95.1838 271.895 95.0271 271.895 94.8312C271.895 94.5571 271.934 94.2046 272.208 94.0871C272.287 94.0479 272.404 94.0479 272.522 94.0871C276.83 94.4396 281.256 93.8521 285.329 92.4029C281.295 91.8154 277.182 92.5596 273.187 93.5387C272.835 93.6171 272.443 93.6954 272.13 93.5387C272.052 93.4604 271.895 92.9121 272.208 92.7554Z" fill="#2F4077"/>
  <path d="M260.263 99.6877H283.724L276.713 124.049H268.253L260.263 99.6877Z" fill="white"/>
  <path d="M16.306 113.905H33.6743L35.9791 139.25H10.0913L16.306 113.905Z" fill="url(#paint2_linear_2857_16770)"/>
  <path d="M16.306 113.905H21.6564L24.8667 139.25H10.0913L16.306 113.905Z" fill="#DEE5FD"/>
  <path d="M52.1949 107.773C51.2072 109.268 48.7789 113.455 46.2272 118.389C44.7455 121.268 42.8111 126.202 40.5063 133.155L43.4696 134.389C48.8201 126.576 52.7711 120.558 55.4052 116.296C55.2406 117.567 55.1171 118.913 54.9525 120.296C54.4586 125.043 54.9525 135.286 55.1994 138.239C55.364 140.108 58.1627 139.623 58.4097 138.127C58.6566 136.632 63.6366 113.119 63.6366 108.184C63.6366 106.315 59.027 104.782 57.1749 107.063C55.6521 106.053 53.512 105.792 52.1949 107.773Z" fill="#E8A16D"/>
  <path d="M47.2569 131.437C47.8331 130.054 57.4226 114.839 59.3159 110.129C60.139 108.073 53.3069 103.774 50.8787 107.326L40.7129 129.231L47.2569 131.437Z" fill="#8BA7F8"/>
  <path d="M60.6325 105.756C56.5991 105.195 48.203 104.261 35.362 102.84H20.3809C20.6278 111.027 23.8381 115.326 31.5756 115.064C36.926 114.877 54.8293 112.448 55.282 112.634C55.4878 112.709 54.9528 119.102 53.6769 131.812L60.9206 132.036C60.9206 130.653 63.925 116.074 63.925 109.868C63.925 108.149 63.1842 106.13 60.6325 105.756Z" fill="#6B93F6"/>
  <path d="M54.4592 138.576C54.5827 138.352 54.8708 138.239 55.1589 138.352C55.8174 138.651 56.3525 138.763 56.764 138.763C57.2168 138.763 57.8341 138.613 58.6161 138.277L59.0688 137.305C59.11 137.193 59.2746 137.118 59.3981 137.193L66.1478 139.922C66.6829 139.996 67.3825 140.071 68.1645 140.183C68.9877 140.258 69.1934 140.894 68.823 142.015C59.6862 142.015 54.8297 142.015 54.2946 142.015C54.13 141.193 54.0477 140.595 54.0477 140.183C54.0065 139.809 54.13 139.286 54.4592 138.576C54.4592 138.576 54.4181 138.576 54.4592 138.576Z" fill="#2F4077"/>
  <path d="M40.0542 131.999C40.3011 131.886 40.6304 131.961 40.7539 132.185C41.0831 132.784 41.4124 133.195 41.7005 133.419C42.0709 133.681 42.6471 133.905 43.4702 134.092L44.458 133.606C44.5815 133.531 44.7461 133.606 44.7872 133.718L48.2033 139.662C48.5737 140.036 49.0676 140.484 49.6438 141.008C50.22 141.531 49.973 142.129 48.903 142.802C41.7416 137.643 37.9552 134.914 37.5024 134.615C37.9552 133.905 38.2844 133.382 38.5725 133.045C38.8606 132.746 39.3134 132.41 40.0542 131.999C40.0542 131.999 40.013 132.036 40.0542 131.999Z" fill="#2F4077"/>
  <path d="M26.5532 83.3637H32.7268L31.6979 76.6349C33.3853 77.5321 34.9904 77.9806 35.7724 77.7937C37.7068 77.3451 37.8714 70.9154 36.3898 68.4108C34.9081 65.8688 27.2117 64.7847 26.8413 69.7939C26.7178 71.5509 27.4998 73.0836 28.6934 74.3546L26.5532 83.3637Z" fill="#E8A16D"/>
  <path d="M33.7155 68.7835C36.4319 68.8209 36.7612 68.3723 36.7612 66.877C36.3084 66.578 34.7856 66.1294 33.057 65.9799C32.1516 65.7556 31.1226 65.7929 30.0937 66.1668C28.859 66.5032 27.9947 66.7649 27.2127 68.0733C25.5253 70.7274 26.9246 73.9049 28.6532 74.8394C29.106 74.3535 29.5175 73.8675 29.8879 73.4189C29.5998 73.1572 29.4352 72.8208 29.4352 72.4096C29.4352 71.6246 30.1349 70.9891 30.9992 70.9891C31.0815 70.9891 31.1226 70.9891 31.1638 70.9891C31.2461 73.718 31.4519 75.5123 31.7812 76.3721C32.275 77.7179 35.1149 78.0543 36.1438 78.0543C37.1316 78.0543 36.9669 77.0824 36.9669 76.559C36.9669 76.26 35.938 76.6712 35.938 76.1104C35.938 75.5497 37.255 75.2506 37.502 74.9142C37.8312 74.503 37.9136 73.9423 37.4608 73.9423C36.8023 73.9423 35.4853 74.8394 33.9625 74.8394C32.9336 74.8394 32.3162 73.3441 32.0693 70.3536C32.522 69.6433 33.057 69.0826 33.7155 68.7835Z" fill="#7A380C"/>
  <path d="M35.978 70.8369C35.731 70.8743 35.6076 71.3229 35.8957 71.3976C36.2249 71.5098 36.2661 71.136 36.2249 70.9117C36.1426 70.8743 36.0603 70.8743 35.978 70.8369Z" fill="#7A380C"/>
  <path d="M37.0899 70.9504C37.1722 70.9878 37.9542 73.0439 38.1599 73.5299C37.8307 73.9411 37.2956 73.9411 36.8429 73.9037C36.8018 72.857 36.7606 71.8476 37.131 70.9504" fill="#E8A16D"/>
  <path d="M34.9076 70.6914C34.8253 70.5418 34.9076 70.3176 35.0311 70.2054C35.1546 70.0933 35.3192 70.0185 35.4838 69.9437C35.6485 69.9064 35.8131 69.869 36.0189 69.9064C36.1835 69.9437 36.3893 69.9811 36.5128 70.0933C36.3481 70.1306 36.1835 70.168 36.06 70.168C35.8954 70.2054 35.7719 70.2428 35.6485 70.2802C35.525 70.3176 35.3604 70.3549 35.2369 70.3923C35.1134 70.4671 34.99 70.5418 34.9076 70.6914Z" fill="#7A380C"/>
  <path d="M18.2402 109.831H24.0022C22.891 108.149 22.109 105.457 21.6151 101.756C20.4216 104.859 19.3103 107.551 18.2402 109.831Z" fill="#E8A16D"/>
  <path d="M44.5398 103.885L52.6889 106.951C54.9937 109.418 56.2696 110.427 56.5577 110.016C56.9692 109.418 56.0638 108.857 56.2696 108.409C56.4753 107.96 57.9981 107.997 59.4798 108.11C60.9615 108.222 60.5087 107.624 60.1795 107.325C58.6978 106.502 56.8046 105.829 54.5821 105.269L46.3507 99.7734L44.5398 103.885ZM11.4495 114.951C11.0791 115.623 8.36275 117.679 6.46952 118.876C5.7287 119.362 6.0168 119.96 6.3049 120.109C8.65085 121.418 10.1737 119.885 12.1904 119.025C14.4128 118.091 14.2071 120.745 15.9768 120.035C15.4418 118.95 14.1659 116.894 14.7833 115.549C15.0302 114.951 16.8411 109.792 20.1748 100.035L14.7833 99.9977C13.0547 109.044 11.9434 114.016 11.4495 114.951Z" fill="#E8A16D"/>
  <path d="M51.6606 107.438L54.0889 104.709C43.9642 98.0928 40.5482 85.6446 32.2756 79.1775L30.0531 79.5139C29.7239 90.2426 34.0865 105.457 51.6606 107.438Z" fill="#2F4077"/>
  <path d="M43.2795 92.0257C46.383 96.6978 49.7344 101.427 54.7103 104.759L52.5601 107.175C43.9279 106.166 38.5489 101.929 35.3573 96.6275C32.1848 91.3577 31.1658 85.0212 31.2972 79.7298L33.2061 79.4409C36.8907 82.3513 39.6056 86.4635 42.4299 90.7415C42.7116 91.1683 42.9945 91.5967 43.2795 92.0257Z" stroke="#69DF97" stroke-width="0.5"/>
  <path d="M27.6241 78.2415L33.3038 79.0639C33.3038 88.858 39.1893 96.2596 40.6709 103.138C40.7944 103.736 40.959 104.932 40.0536 104.932C35.8556 104.932 29.2704 104.932 20.3394 104.932C21.286 93.5681 22.9322 85.1198 27.6241 78.2415Z" fill="#DEE5FD"/>
  <path d="M11.3673 114.727H15.6065C16.4296 113.381 17.3351 111.774 18.2405 109.83H33.7567C36.0615 104.559 34.621 94.0919 29.5176 78.354L27.7478 78.2793C27.5832 78.2419 27.4186 78.2419 27.2128 78.2419C23.6733 78.2419 21.6977 76.9709 19.4752 77.6064C17.2528 78.2045 16.5119 80.111 18.5698 83.5128C19.0637 84.2978 19.7222 84.8212 20.5453 85.0081C14.0014 93.12 10.9557 103.064 11.3673 114.727Z" fill="#2F4077"/>
  <path d="M17.2405 109.58H17.0812L17.0139 109.724C16.1399 111.601 15.2658 113.162 14.4661 114.477H10.6091C10.2496 102.97 13.2837 93.1682 19.7399 85.165L19.9916 84.853L19.6007 84.7643C18.8555 84.5951 18.2485 84.1213 17.7826 83.3815C16.7658 81.7002 16.476 80.4427 16.662 79.5598C16.8425 78.7033 17.4884 78.1309 18.5402 77.8478L18.5402 77.8478L18.544 77.8468C19.5919 77.5471 20.5879 77.6929 21.802 77.9312C21.9288 77.9561 22.0578 77.9819 22.1892 78.0082C23.3087 78.2326 24.6027 78.4919 26.2128 78.4919C26.4245 78.4919 26.5601 78.493 26.6925 78.5231L26.7146 78.5281L26.7373 78.5291L28.3333 78.5965C30.8521 86.3847 32.4653 92.8651 33.1675 98.0506C33.8621 103.18 33.6601 107.009 32.5916 109.58H17.2405Z" stroke="#69DF97" stroke-width="0.5"/>
  <path d="M29.8867 47.8128C29.8867 51.7379 32.9323 55.177 37.6242 57.3452C38.6943 57.8312 37.9947 60.8217 38.2004 61.3451C38.4062 61.8685 42.3573 58.9526 43.0158 59.0648C44.8267 59.4386 46.8023 59.6255 48.8189 59.6255C59.2728 59.6255 67.7512 54.3546 67.7512 47.8128C67.7512 41.2709 59.2728 36 48.8189 36C38.3651 36 29.8867 41.3083 29.8867 47.8128Z" fill="#5EC988"/>
  <path d="M-1.08703 128.556H14.9685L17.0991 154.351H-6.83203L-1.08703 128.556Z" fill="url(#paint3_linear_2857_16770)"/>
  <path d="M-1.08703 128.556H3.859L6.82662 154.351H-6.83203L-1.08703 128.556Z" fill="#E5E5E5"/>
  <path d="M12.876 103.826H17.5937L16.7948 98.1946C18.0503 98.9556 19.3058 99.336 19.9146 99.1838C21.3984 98.8034 21.5125 93.4388 20.3711 91.3082C19.2297 89.1776 13.3706 88.2645 13.1043 92.4496C12.9901 93.8954 13.5989 95.227 14.512 96.2543L12.876 103.826Z" fill="#CB7A43"/>
  <path d="M20.371 90.319C20.6373 90.8897 20.4471 91.6126 19.3818 91.5365C18.3165 92.8301 16.7185 93.7051 16.5283 93.7432C16.5283 93.7432 15.8054 92.792 15.1586 93.2105C14.3977 93.6671 14.5499 94.5041 14.9303 95.1889C15.1586 95.5313 15.463 96.064 14.9303 96.4445C14.0553 97.0912 11.8105 95.6835 11.4681 94.466C10.7833 92.2594 11.7344 89.2156 14.1694 88.7971C14.0172 88.3786 13.4465 88.2264 13.028 88.1123C12.0769 87.9221 11.0496 88.1123 10.0984 88.3406C8.95706 88.6069 7.77762 88.9493 6.56013 88.9874C5.95139 88.9874 5.34265 88.8732 4.77196 88.683C4.16321 88.4547 3.70666 88.1123 3.17401 87.7699C2.67941 87.4275 2.14676 87.5036 1.57606 87.6557C1.00537 87.8079 0.472718 88.0362 -0.0599308 88.3025C-1.16327 88.8732 -2.19053 89.5961 -3.36996 90.0146C-4.24503 90.319 -5.19619 90.5092 -6.1093 90.5092C-7.74529 90.5473 -9.68566 90.2049 -10.751 88.7971C-11.4738 87.846 -11.4738 86.6665 -11.0553 85.6012C-10.6368 84.612 -9.91394 83.8892 -9.03887 83.3185C-8.08772 82.6717 -7.06046 82.2151 -5.91907 82.139C-4.70158 82.0629 -3.52215 82.4434 -2.49489 83.0902C-1.46764 83.6989 -0.592579 84.3457 0.624906 84.5359C1.80434 84.7262 3.02182 84.574 4.12517 84.1935C5.30461 83.8131 6.446 83.3945 7.73957 83.2804C8.91901 83.1663 10.1745 83.2804 11.2779 83.775C12.2671 84.1935 13.0661 84.9545 13.5987 85.8676C13.9031 86.3622 14.0933 86.8948 14.2075 87.4655C14.2455 87.6557 14.2835 87.846 14.3216 88.0743C14.3596 88.2645 14.3216 88.4928 14.3977 88.645C14.5118 88.8352 14.7401 88.7971 14.9303 88.7971C15.2347 88.7971 16.9087 88.8732 17.5175 88.9874C18.5447 89.0254 20.1427 89.7483 20.371 90.319Z" fill="#161616"/>
  <path d="M41.8675 151.345C39.7749 138.524 38.0248 130.077 37.0356 127.49C36.3888 125.778 31.4047 125.968 31.9754 129.431C32.2037 130.876 33.1548 134.719 34.4104 139.094C35.1332 141.644 36.9595 146.513 39.4705 152.068L41.8675 151.345ZM11.0119 136.926C11.8869 136.812 22.1975 135.708 29.4643 134.681C32.3939 134.263 30.796 128.784 27.7903 129.355C26.763 129.545 25.6977 129.773 24.5564 130.001C20.6756 130.8 12.5718 133.654 10.289 134.567C8.84321 135.176 9.79437 137.116 11.0119 136.926Z" fill="#CB7A43"/>
  <path d="M29.6921 128.517C29.54 136.317 35.1708 140.844 36.9209 147.35L41.5246 146.666C41.068 145.448 39.6222 129.392 37.2253 126.12C37.2253 126.12 37.2253 126.12 37.2253 126.082C37.2253 126.082 37.2253 126.082 37.2253 126.044C36.959 125.169 30.7955 123.191 18.7348 120.147H17.251V121.517L29.7302 127.871C29.6541 128.061 29.6541 128.289 29.6921 128.517Z" fill="#4E68BB"/>
  <path d="M14.4736 132.931L15.653 136.583C18.1641 135.937 25.6973 137.991 35.2089 134.034C35.2469 133.996 35.285 133.958 35.323 133.882C37.0732 132.627 38.0624 127.795 34.9426 126.425C30.2248 124.409 21.1317 120.604 19.3816 120.071H8.69056C7.70135 126.844 9.37539 129.963 15.1965 130.991C16.1096 131.143 17.1369 131.371 18.2782 131.599L14.4736 132.931Z" fill="#4E68BB"/>
  <path d="M11.1256 133.996C11.3539 133.996 11.5061 134.148 11.5442 134.377C11.5442 134.947 11.6203 135.366 11.7724 135.632C11.9246 135.936 12.267 136.317 12.7616 136.697L13.6367 136.659C13.7508 136.659 13.8269 136.735 13.8269 136.85L14.0172 142.48C14.1313 142.861 14.3215 143.355 14.5118 143.964C14.702 144.573 14.3215 144.915 13.3323 145.106C10.2886 138.828 8.65263 135.518 8.4624 135.176C9.0331 134.757 9.45161 134.491 9.79403 134.339C10.0223 134.148 10.4789 134.072 11.1256 133.996C11.1256 133.996 11.0876 133.996 11.1256 133.996Z" fill="#2F4077"/>
  <path d="M38.3287 151.003C38.4048 150.813 38.633 150.737 38.8613 150.813C39.3559 151.041 39.7744 151.155 40.0788 151.155C40.4212 151.155 40.9158 151.003 41.4865 150.737L41.8289 149.938C41.867 149.824 41.9811 149.786 42.0953 149.824L47.2315 152.106C47.65 152.182 48.1446 152.221 48.7914 152.297C49.4001 152.373 49.5904 152.867 49.286 153.818C42.3235 153.818 38.633 153.818 38.2145 153.818C38.1004 153.134 38.0243 152.639 38.0243 152.259C37.9863 152.03 38.1004 151.612 38.3287 151.003Z" fill="#2F4077"/>
  <path d="M31.6329 117.674L36.9594 113.603C39.6226 113.109 40.8401 112.69 40.6499 112.348C40.3455 111.815 39.6226 112.196 39.3943 111.853C39.1661 111.511 39.7748 110.522 40.3835 109.609C40.9923 108.695 40.4216 108.733 40.0792 108.848C38.9378 109.494 37.7203 110.446 36.4648 111.663L29.3501 114.783L31.6329 117.674ZM-4.28289 127.452C-4.66335 127.947 -7.02222 129.278 -8.65822 129.963C-9.30501 130.23 -9.15282 130.8 -8.96258 130.953C-7.44073 132.36 -6.03302 131.333 -4.35898 130.914C-2.5708 130.458 -3.10345 132.627 -1.69573 132.284C-1.92401 131.295 -2.53275 129.431 -1.88596 128.403C-1.58159 127.947 0.587051 123.952 4.61997 116.419L0.587049 115.62C-2.11424 122.811 -3.75024 126.729 -4.28289 127.452Z" fill="#CB7A43"/>
  <path d="M21.4364 120.185C24.5182 122.05 32.1275 118.778 35.6658 114.935L34.4483 112.234C30.5295 113.641 27.2195 114.669 24.8987 113.603C22.4257 112.462 20.9418 103.863 17.2133 100.249L15.5012 100.553C15.3871 106.603 16.5285 117.218 21.4364 120.185Z" fill="#69DF97"/>
  <path d="M13.6749 99.5261L18.0122 100.211C18.0122 108.429 22.4636 114.631 23.6431 120.414C23.7572 120.908 23.8713 121.897 23.1865 121.897C19.9906 121.897 14.9685 121.897 8.1582 121.897C8.88108 112.386 10.0986 105.271 13.6749 99.5261Z" fill="#E9EDFE"/>
  <path d="M4.80992 126.006H18.3164C20.0665 121.593 19.0012 112.766 15.0824 99.5261H13.4084H13.3703C3.66853 105.499 -2.22866 114.783 -4.24512 127.376L-1.08727 127.985C1.00528 125.55 3.55439 121.593 6.63614 116.076C5.72303 119.386 5.03819 122.811 4.80992 126.006Z" fill="#5EC988"/>
  <path d="M19.6483 94.3521C18.8494 94.4662 20.0288 95.3032 19.8766 94.4281C19.8005 94.3521 19.7244 94.3521 19.6483 94.3521Z" fill="#2F4077"/>
  <path d="M21.0937 94.8464C21.2078 95.341 21.5122 95.7976 21.6264 96.2922C21.8166 96.977 21.4361 96.8629 20.7513 96.8248C20.7132 96.14 20.9415 95.4932 21.0937 94.8464Z" fill="#CB7A43"/>
  <path d="M20.2569 93.9716C20.1428 93.8955 20.0286 93.8574 19.9145 93.8574C19.8004 93.8194 19.6862 93.8194 19.5721 93.8194C19.4579 93.8194 19.3819 93.8194 19.2677 93.8955C19.1536 93.9335 19.0775 94.0477 18.9253 94.0477C19.0014 93.9335 19.0775 93.8574 19.1536 93.7813C19.2297 93.6672 19.4199 93.6292 19.534 93.6292C19.6862 93.6292 19.8004 93.6672 19.9145 93.7433C20.0667 93.7433 20.1808 93.8194 20.2569 93.9716Z" fill="#2F4077"/>
  <path d="M19.5721 97.4717C19.6482 97.5858 19.7243 97.5858 19.8385 97.6619C19.9145 97.7 20.0287 97.738 20.1428 97.738C20.3331 97.8141 20.5613 97.8521 20.7516 97.9663C20.5233 98.0804 20.257 98.0804 20.0287 98.0043C19.9145 97.9663 19.8004 97.9282 19.6863 97.8141C19.6102 97.738 19.5341 97.5858 19.5721 97.4717Z" fill="#2F4077"/>
  <path d="M190.033 96.5354L221.113 91.8827L222.705 79.4103L223.007 72.3727L222.146 58.1018L195.027 58.8838L192.358 60.4477L191.066 64.7094L191.927 72.0599L192.229 79.1757L191.927 84.9232L191.282 90.7488L190.033 96.5354Z" fill="#2F4077"/>
  <path d="M221.111 91.8822L220.035 91.6476C220.035 91.6085 221.498 86.1347 221.886 83.1633C222.66 77.4158 222.661 70.8864 221.843 62.7149V62.5976C221.627 60.4472 221.369 58.0231 222.574 55.9509C223.22 54.8171 224.641 53.8005 226.104 54.1915C227.697 54.6216 228.386 56.5374 228.816 57.8276C228.859 57.984 228.902 58.1013 228.945 58.2186L227.912 58.5314C227.869 58.4141 227.826 58.2577 227.783 58.1013C227.396 57.0457 226.836 55.4035 225.803 55.1298C224.942 54.8953 224.038 55.599 223.564 56.4201C222.531 58.1795 222.747 60.369 222.962 62.4803V62.5976C223.78 70.8473 223.823 77.4158 223.005 83.2806C222.574 86.2911 221.154 91.6476 221.111 91.8822Z" fill="white"/>
  <path d="M193.822 58.8052L194.941 58.5315L225.116 54.0352C225.116 54.0352 227.699 53.3314 228.905 58.2187L197.825 62.9105C197.825 62.9105 197.179 61.0729 197.05 60.8774C196.706 60.2127 196.189 59.6262 195.544 59.1961C195.07 58.8443 194.467 58.8834 193.822 58.8052Z" fill="#99B3F9"/>
  <path d="M228.847 57.8905L197.833 62.7178L197.913 63.1417L228.927 58.3144L228.847 57.8905Z" fill="#465F9D"/>
  <path d="M192.7 129.534C192.657 129.534 192.657 129.534 192.614 129.534C192.097 129.495 191.71 129.065 191.753 128.596L197.392 66.5467C197.435 66.0775 197.908 65.7256 198.425 65.7647C198.942 65.8038 199.329 66.2339 199.286 66.703L193.647 128.752C193.561 129.182 193.173 129.534 192.7 129.534Z" fill="#DEE5FD"/>
  <path d="M192.226 128.909C192.097 128.909 191.968 128.791 192.011 128.674L197.65 68.8537C197.65 68.7364 197.779 68.6582 197.908 68.6582C198.037 68.6582 198.123 68.7755 198.123 68.8928L192.484 128.713C192.484 128.83 192.355 128.909 192.226 128.909Z" fill="#6B93F6"/>
  <path d="M208.326 144C207.81 144 207.422 143.648 207.379 143.179L206.303 104.394C206.303 103.924 206.691 103.533 207.207 103.533C207.724 103.533 208.154 103.885 208.154 104.355L209.23 143.14C209.273 143.609 208.886 144 208.326 144Z" fill="#DEE5FD"/>
  <path d="M207.983 143.414C207.854 143.414 207.768 143.335 207.768 143.218L206.606 104.042C206.606 103.924 206.692 103.807 206.821 103.807C206.95 103.807 207.079 103.885 207.079 104.003L208.242 143.179C208.199 143.335 208.113 143.414 207.983 143.414Z" fill="#6B93F6"/>
  <path d="M239.278 135.203C238.848 135.203 238.417 134.929 238.374 134.499L231.487 99.7016C231.401 99.2324 231.745 98.8023 232.262 98.7241C232.778 98.6459 233.252 98.9587 233.338 99.4279L240.225 134.225C240.311 134.694 239.967 135.125 239.45 135.203C239.407 135.203 239.321 135.203 239.278 135.203Z" fill="#DEE5FD"/>
  <path d="M238.934 134.695C238.805 134.695 238.719 134.617 238.719 134.538L231.1 95.9484C231.057 95.8311 231.143 95.7138 231.272 95.7138C231.401 95.6747 231.53 95.7529 231.53 95.8702L239.149 134.46C239.192 134.538 239.106 134.656 238.934 134.695C238.977 134.695 238.977 134.695 238.934 134.695Z" fill="#6B93F6"/>
  <path d="M197.912 62.9104L204.412 105.097L236.223 98.8417L228.905 58.0623L197.912 62.9104Z" fill="#DEE5FD"/>
  <path d="M197.868 62.9105C197.523 61.4248 196.705 59.3135 195.026 58.8834C193.563 58.4924 192.142 59.509 191.497 60.6428C190.291 62.6759 190.55 65.1 190.765 67.2895V67.4068C191.583 75.5783 191.626 82.1077 190.808 87.8552C190.421 90.8266 189.043 96.0267 189 96.0658L189.99 96.535C190.033 96.3004 191.454 90.983 191.884 87.9725C192.702 82.1468 192.659 75.5783 191.841 67.2895V67.1722C191.626 65.0609 191.411 62.8714 192.444 61.112C192.917 60.2909 193.864 59.5872 194.682 59.8217C197.093 60.4864 197.136 65.1 197.437 67.0549C197.954 70.3783 198.47 73.7016 199.03 77.025C199.675 81.0912 200.321 85.1574 200.967 89.2236C201.526 92.7424 202.086 96.2222 202.646 99.741C202.904 101.383 203.033 102.321 203.291 103.964L203.377 104.706L204.411 105.097C204.195 103.729 203.98 102.4 203.765 101.031C203.248 97.7861 202.775 94.5019 202.258 91.2567C201.656 87.2687 201.01 83.2807 200.407 79.2927C199.848 75.7738 199.331 72.255 198.772 68.7361C198.47 66.8594 198.298 64.9827 197.911 63.106C197.911 63.0669 197.911 62.9887 197.868 62.9105Z" fill="#465F9D"/>
  <path d="M203.291 67.2496C203.721 67.8752 203.765 68.6572 203.765 69.361C203.808 69.3219 203.894 69.2828 203.937 69.2437C203.549 69.3609 203.119 69.3219 202.731 69.3219C202.602 69.3219 202.344 69.4782 202.559 69.4782C203.033 69.4782 203.506 69.5173 203.98 69.4001C204.023 69.4001 204.152 69.361 204.152 69.2828C204.195 68.579 204.109 67.797 203.678 67.1714C203.592 67.0542 203.248 67.1715 203.291 67.2496Z" fill="#5EC988"/>
  <path d="M202.518 67.3669C203.163 67.3669 203.766 67.1323 204.412 67.0932C204.584 67.0932 204.713 66.8586 204.455 66.8977C203.852 66.9368 203.25 67.1714 202.647 67.1714C202.518 67.1714 202.303 67.3669 202.518 67.3669Z" fill="#5EC988"/>
  <path d="M204.885 68.1491C205.358 68.2273 205.918 68.0319 205.789 67.5236C205.789 67.4845 205.746 67.4845 205.703 67.4845C205.229 67.3672 204.584 67.4845 204.627 68.071C204.67 68.4619 204.971 68.9311 205.444 68.892C205.789 68.8529 206.047 68.6183 206.219 68.3446C206.305 68.1882 205.918 68.2273 205.875 68.3446C205.789 68.4619 205.66 68.7356 205.444 68.6965C205.272 68.6574 205.143 68.4619 205.057 68.3055C204.971 68.1491 204.928 67.9537 205.014 67.7582C205.1 67.5627 205.272 67.6409 205.444 67.68C205.401 67.68 205.401 67.6409 205.358 67.6409C205.401 67.8755 205.315 68.0319 205.057 67.9928C204.971 67.9928 204.842 67.9928 204.799 68.071C204.842 68.071 204.799 68.11 204.885 68.1491Z" fill="#5EC988"/>
  <path d="M203.678 70.69C203.678 71.4328 203.635 73.466 205.056 72.8013C205.271 72.684 205.099 72.5276 204.884 72.6058C203.98 73.0359 204.066 71.0419 204.066 70.6509C204.023 70.4554 203.678 70.5336 203.678 70.69Z" fill="#5EC988"/>
  <path d="M203.766 71.6679C203.981 71.6679 204.239 71.6679 204.455 71.6679C204.541 71.6679 204.67 71.6288 204.713 71.5897C204.756 71.5115 204.67 71.4724 204.627 71.4724C204.411 71.4724 204.153 71.4724 203.938 71.4724C203.852 71.4724 203.723 71.5115 203.68 71.5506C203.637 71.6288 203.723 71.6679 203.766 71.6679Z" fill="#5EC988"/>
  <path d="M205.142 71.3162C205.099 71.8636 205.4 72.8411 206.218 72.6065C207.079 72.3328 206.52 71.3944 206.778 70.8471C206.864 70.6516 206.477 70.6907 206.434 70.8079C206.261 71.238 206.477 71.7463 206.347 72.1764C206.175 72.5674 205.831 72.3328 205.702 72.0591C205.573 71.8245 205.53 71.5508 205.573 71.3162C205.53 71.1207 205.142 71.1598 205.142 71.3162Z" fill="#5EC988"/>
  <path d="M204.758 74.9523C204.887 75.3824 204.887 75.8516 204.973 76.2817C205.016 76.4381 205.36 76.3599 205.36 76.2035C205.274 75.7734 205.231 75.3042 205.145 74.8741C205.102 74.6786 204.715 74.7959 204.758 74.9523Z" fill="#5EC988"/>
  <path d="M204.583 74.2487C204.583 74.327 204.583 74.3661 204.583 74.4444C204.583 74.5227 204.971 74.4836 204.971 74.3661C204.971 74.2878 204.971 74.2487 204.971 74.1704C204.971 74.053 204.583 74.1313 204.583 74.2487C204.583 74.327 204.583 74.3661 204.583 74.4444C204.583 74.5227 204.971 74.4836 204.971 74.3661C204.971 74.2878 204.971 74.2487 204.971 74.1704C204.971 74.053 204.583 74.1313 204.583 74.2487Z" fill="#5EC988"/>
  <path d="M205.227 73.8577C205.141 74.6005 205.615 75.2652 205.787 76.008C205.787 76.0862 205.959 76.0862 206.002 76.0471C206.174 76.0081 206.346 76.008 206.519 75.9689C206.734 75.9298 206.691 75.7344 206.476 75.7735C206.303 75.8126 206.131 75.8126 205.959 75.8517C206.045 75.8517 206.088 75.8908 206.174 75.8908C206.002 75.187 205.528 74.5614 205.615 73.8186C205.615 73.6622 205.227 73.7013 205.227 73.8577Z" fill="#5EC988"/>
  <path d="M208.114 73.0366C208.114 74.2487 207.942 75.4998 207.942 76.7118C208.071 76.6727 208.2 76.6336 208.329 76.6336C208.329 76.5945 208.329 76.5945 208.329 76.5554C208.329 76.4772 207.942 76.5164 207.942 76.6336C207.942 76.6727 207.942 76.6727 207.942 76.7118C207.942 76.79 208.329 76.7509 208.329 76.6336C208.329 75.4216 208.458 74.1705 208.501 72.9584C208.458 72.8411 208.114 72.9193 208.114 73.0366Z" fill="#5EC988"/>
  <path d="M209.103 74.4044C209.577 74.4826 210.179 74.3262 210.007 73.7789C210.007 73.7398 209.964 73.7398 209.921 73.7398C209.706 73.7007 209.49 73.7007 209.275 73.7398C209.232 73.7398 209.103 73.7789 209.103 73.8571C209.017 74.248 208.888 74.7172 209.447 74.9127C209.749 75.03 210.308 74.9909 210.394 74.639C210.437 74.5217 210.05 74.5999 210.007 74.6781C209.921 74.9518 209.534 74.6781 209.447 74.5217C209.318 74.2871 209.404 74.0135 209.447 73.7789C209.404 73.818 209.318 73.8571 209.275 73.8962C209.404 73.8571 209.534 73.8962 209.663 73.8962C209.62 73.8962 209.62 73.8571 209.577 73.8571C209.62 73.9353 209.663 74.0917 209.577 74.2089C209.49 74.2871 209.361 74.248 209.275 74.248C209.232 74.209 208.888 74.3653 209.103 74.4044Z" fill="#5EC988"/>
  <path d="M209.963 72.8015C210.092 73.5053 210.394 74.1699 210.695 74.8346C210.695 74.8737 210.781 74.9128 210.824 74.9128C210.953 74.9128 211.082 74.9519 211.255 74.9128C211.47 74.9128 211.556 74.6782 211.298 74.6782C211.169 74.6782 211.083 74.6782 210.953 74.6782C210.996 74.7173 211.039 74.7173 211.083 74.7564C210.824 74.0917 210.48 73.4271 210.351 72.7233C210.308 72.606 209.92 72.6842 209.963 72.8015Z" fill="#5EC988"/>
  <path d="M211.126 72.5669C211.126 73.3879 211.342 74.1308 211.514 74.9128C211.557 74.991 211.729 74.991 211.772 74.9519C211.858 74.9128 212.03 74.8737 212.16 74.8346C212.418 74.7564 212.203 74.5609 211.987 74.6391C211.815 74.7173 211.772 74.7173 211.6 74.7564C211.686 74.7564 211.772 74.7955 211.858 74.7955C211.686 74.0135 211.471 73.3098 211.471 72.4887C211.514 72.3714 211.126 72.4496 211.126 72.5669Z" fill="#5EC988"/>
  <path d="M212.459 73.8966C212.933 73.9748 213.407 73.7793 213.277 73.271C213.277 73.2319 213.234 73.2319 213.191 73.2319C212.933 73.2319 212.632 73.271 212.459 73.5056C212.33 73.7402 212.33 74.0139 212.373 74.2485C212.373 74.2485 212.373 74.2876 212.416 74.2876C212.804 74.4049 213.32 74.444 213.579 74.0921C213.622 74.053 213.579 74.0139 213.536 74.0139C213.45 74.0139 213.363 74.0139 213.32 74.0139C213.234 74.0139 212.89 74.1312 213.062 74.1703C213.148 74.1703 213.191 74.1703 213.277 74.1703C213.277 74.1312 213.234 74.1312 213.234 74.0921C213.148 74.1703 213.105 74.2094 212.976 74.2094C212.933 74.2094 212.804 74.2094 212.761 74.1703C212.718 74.1312 212.718 73.9748 212.718 73.8966C212.718 73.7793 212.761 73.3883 212.933 73.3883C212.89 73.3883 212.89 73.3492 212.847 73.3492C212.847 73.4274 212.89 73.5447 212.847 73.6229C212.804 73.7402 212.761 73.7402 212.632 73.7011C212.589 73.7402 212.244 73.8966 212.459 73.8966Z" fill="#5EC988"/>
  <path d="M205.098 79.4096C207.466 79.2532 209.747 78.5104 212.115 78.3149C212.244 78.3149 212.502 78.1194 212.287 78.1585C209.919 78.354 207.638 79.0968 205.27 79.2532C205.141 79.2532 204.84 79.4096 205.098 79.4096Z" fill="#5EC988"/>
  <path d="M205.531 81.7943C208.243 81.5988 210.826 80.3867 213.495 79.8002C213.71 79.7611 213.667 79.5657 213.451 79.6048C210.869 80.1912 208.243 81.3642 205.617 81.5597C205.359 81.5988 205.273 81.8334 205.531 81.7943Z" fill="#5EC988"/>
  <path d="M205.962 84.1794C208.846 84.023 211.73 83.9057 214.442 82.8501C214.7 82.7719 214.442 82.6937 214.313 82.7719C211.73 83.7884 208.889 83.9057 206.134 84.023C206.005 84.023 205.703 84.1794 205.962 84.1794Z" fill="#5EC988"/>
  <path d="M205.787 86.995C205.701 87.4642 205.83 88.2852 206.519 88.2461C207.38 88.168 207.337 87.3078 207.208 86.7604C207.165 86.6431 206.82 86.7213 206.82 86.8386C206.863 87.0732 207.036 88.1289 206.476 88.0116C206.089 87.8943 206.089 87.2296 206.132 86.9559C206.175 86.8386 205.787 86.8777 205.787 86.995Z" fill="#5EC988"/>
  <path d="M207.811 86.5257C207.725 86.9949 207.682 87.4641 207.725 87.9333C207.725 88.0506 208.07 87.9724 208.113 87.8551C208.156 87.5814 208.07 87.3468 208.027 87.0731C207.983 86.8776 208.027 86.0957 208.5 86.3694C208.715 86.4867 208.672 86.9167 208.672 87.1122C208.672 87.3468 208.629 87.5814 208.672 87.816C208.672 87.9333 209.06 87.8551 209.06 87.7378C209.017 87.2686 209.361 86.1348 208.457 86.1348C208.07 86.1348 207.725 86.3303 207.682 86.6821C207.596 87.0731 207.811 87.5032 207.768 87.8942C207.897 87.8551 208.027 87.8551 208.156 87.816C208.113 87.3468 208.156 86.9167 208.242 86.4476C208.199 86.3303 207.811 86.3694 207.811 86.5257Z" fill="#5EC988"/>
  <path d="M210.051 87.3074C210.051 87.542 209.965 87.7766 209.707 87.8939C209.793 87.8939 209.836 87.8939 209.922 87.8548V87.7766C209.922 87.6984 209.535 87.7766 209.535 87.8548C209.535 87.933 209.492 87.9721 209.621 87.9721C209.75 87.9721 209.922 87.8939 210.008 87.8548C210.267 87.6984 210.396 87.4638 210.396 87.1901C210.396 87.151 210.051 87.2292 210.051 87.3074Z" fill="#5EC988"/>
  <path d="M212.634 85.7043C211.644 85.3915 211.299 86.3689 211.256 87.0727C211.256 87.0727 211.256 87.0727 211.299 87.0727C211.816 87.2291 212.462 87.19 212.591 86.6035C212.72 85.9389 212.419 85.2742 212.548 84.6095C212.548 84.5313 212.203 84.5704 212.16 84.6877C212.031 85.2742 212.289 85.8607 212.246 86.4471C212.246 86.6426 212.074 87.3464 211.687 86.9945C211.429 86.799 211.816 85.6652 212.246 85.8216C212.419 85.8607 212.677 85.7043 212.634 85.7043Z" fill="#5EC988"/>
  <path d="M213.063 86.1343C213.407 86.2125 213.881 86.1734 214.01 85.8215C214.139 85.4696 213.752 85.3132 213.407 85.3523C213.321 85.3523 213.192 85.3914 213.149 85.4696C213.063 85.7824 212.675 86.3689 213.149 86.6034C213.536 86.7989 214.139 86.5643 214.354 86.2125C214.44 86.0952 214.053 86.1343 214.01 86.2125C213.838 86.4471 213.364 86.6034 213.321 86.2125C213.278 85.9388 213.45 85.6651 213.536 85.4305C213.45 85.4696 213.364 85.5087 213.278 85.5478C213.45 85.5478 213.665 85.5869 213.665 85.7824C213.665 85.9388 213.536 86.0561 213.364 85.9779C213.278 85.9388 213.192 85.9779 213.106 86.017C213.063 86.0561 212.977 86.1343 213.063 86.1343Z" fill="#5EC988"/>
  <path d="M214.311 85.3137C214.096 85.822 214.526 86.3693 215.129 86.252C215.775 86.1347 215.732 85.5483 215.732 85.04C215.732 85.0009 215.344 85.04 215.344 85.1182C215.344 85.2746 215.344 85.4701 215.344 85.6265C215.344 85.7438 215.301 86.0566 215.129 86.0956C214.957 86.1347 214.742 85.8611 214.699 85.7438C214.612 85.5874 214.612 85.3919 214.655 85.1964C214.699 85.1964 214.311 85.2355 214.311 85.3137Z" fill="#5EC988"/>
  <path d="M215.863 85.0791C216.379 85.2746 216.637 85.7437 217.025 86.0956C217.111 86.1738 217.455 86.0565 217.369 85.9783C216.982 85.6264 216.724 85.1573 216.164 84.9618C216.078 84.8836 215.733 85.04 215.863 85.0791Z" fill="#5EC988"/>
  <path d="M217.197 84.8835C216.594 85.3527 216.035 85.8609 215.604 86.4474C215.475 86.6038 215.863 86.6038 215.949 86.4865C216.379 85.9391 216.896 85.47 217.455 85.0399C217.627 84.8444 217.326 84.7662 217.197 84.8835Z" fill="#5EC988"/>
  <path d="M218.228 85.9391C218.185 86.3301 217.883 86.6038 217.582 86.8384C217.539 86.8775 217.625 86.9166 217.668 86.9166C217.754 86.9166 217.84 86.8775 217.926 86.8384C218.228 86.5647 218.529 86.291 218.615 85.9C218.615 85.8219 218.228 85.8609 218.228 85.9391Z" fill="#5EC988"/>
  <path d="M219.304 83.6716C219.218 84.1799 218.917 85.001 219.218 85.5092C219.434 85.822 219.907 85.822 220.251 85.8611C220.424 85.9002 220.639 85.6656 220.381 85.6265C219.993 85.5874 219.606 85.5874 219.52 85.1964C219.391 84.7273 219.606 84.1408 219.692 83.6325C219.692 83.4761 219.347 83.5152 219.304 83.6716Z" fill="#5EC988"/>
  <path d="M219.262 84.4925C219.477 84.5316 219.692 84.5707 219.908 84.6098C219.994 84.6098 220.08 84.6098 220.166 84.5707C220.209 84.5707 220.295 84.4925 220.209 84.4925C219.994 84.4534 219.778 84.4143 219.563 84.3752C219.477 84.3752 219.391 84.3752 219.305 84.4143C219.262 84.4143 219.176 84.4925 219.262 84.4925Z" fill="#5EC988"/>
  <path d="M220.684 84.2969C220.598 84.727 220.598 85.1571 220.598 85.6263C220.598 85.6654 220.942 85.6263 220.985 85.5481C221.071 85.0789 220.899 84.6488 221.028 84.1796C220.942 84.2187 220.856 84.2578 220.77 84.2578C221.028 84.2187 221.244 84.3751 221.244 84.6097C221.244 84.6879 221.115 84.8052 221.115 84.8443C221.071 84.8834 221.071 84.8834 221.201 84.8443C221.158 84.8443 221.158 84.8443 221.115 84.8052C221.071 84.7661 220.985 84.727 220.942 84.6879C220.813 84.727 220.727 84.7661 220.598 84.8052C221.071 84.8443 221.287 85.2353 221.588 85.5481C221.674 85.6263 221.975 85.4699 221.975 85.4699C221.674 85.1571 221.459 84.727 220.942 84.6879C220.899 84.6879 220.555 84.727 220.598 84.8052C220.856 85.0398 221.373 85.0398 221.588 84.727C221.846 84.2969 221.33 84.1405 220.985 84.1796C220.942 84.1796 220.727 84.2187 220.727 84.2578C220.598 84.727 220.77 85.1962 220.684 85.6263C220.813 85.5872 220.942 85.5481 221.071 85.5481C221.071 85.118 221.114 84.6879 221.158 84.2187C221.028 84.2187 220.684 84.2187 220.684 84.2969Z" fill="#5EC988"/>
  <path d="M222.793 84.0235C222.448 83.9453 222.061 84.0626 221.932 84.3753C221.803 84.649 221.803 85.04 221.975 85.2746C222.233 85.5874 222.664 85.6656 223.008 85.3919C223.266 85.1573 223.309 84.7272 223.352 84.4144C223.137 84.3362 222.965 84.219 222.793 84.0235C222.75 83.9453 222.405 84.1017 222.448 84.1408C222.578 84.2971 222.707 84.3753 222.879 84.4926C222.965 84.5708 222.965 84.6099 222.965 84.7272C222.965 84.8054 222.922 84.8445 222.922 84.9227C222.879 85.04 222.836 85.1573 222.793 85.2746C222.75 85.3137 222.707 85.3919 222.664 85.431C222.621 85.4701 222.707 85.431 222.664 85.431C222.621 85.431 222.578 85.3919 222.535 85.3528C222.276 85.1964 222.19 85.0009 222.19 84.7272C222.19 84.6099 222.19 84.4535 222.233 84.3362C222.233 84.2971 222.276 84.258 222.319 84.1798C222.362 84.1017 222.362 84.1017 222.448 84.1017C222.578 84.1799 222.922 84.0626 222.793 84.0235Z" fill="#5EC988"/>
  <path d="M223.351 83.9058C223.265 84.375 223.265 84.8051 223.394 85.2743C223.437 85.3915 223.781 85.2743 223.781 85.1961C223.652 84.7269 223.695 84.3359 223.738 83.8667C223.781 83.7494 223.394 83.7885 223.351 83.9058Z" fill="#5EC988"/>
  <path d="M224.685 83.7107C224.169 83.7889 224.04 84.1017 223.997 84.5318C223.997 84.5318 223.997 84.5709 224.04 84.5709C224.255 84.61 224.427 84.61 224.642 84.61C224.771 84.61 224.858 84.61 224.858 84.7273C224.858 84.8054 224.814 84.9227 224.771 85.0009C224.857 84.9618 224.987 84.9227 225.073 84.8836C224.814 84.8836 224.599 84.8836 224.384 84.9227C224.341 84.9227 224.169 84.9618 224.126 85.0009C224.083 85.04 224.169 85.0791 224.212 85.0791C224.427 85.04 224.642 85.04 224.858 85.04C224.944 85.04 225.116 85.04 225.159 84.9227C225.202 84.8054 225.245 84.6491 225.245 84.4927C225.245 84.4927 225.245 84.4536 225.202 84.4536C225.03 84.4145 224.47 84.4536 224.384 84.3363C224.341 84.219 224.47 83.828 224.599 83.7889C224.771 83.828 224.944 83.7107 224.685 83.7107Z" fill="#5EC988"/>
  <path d="M223.825 83.2803C223.609 83.3194 223.351 83.3977 223.48 83.6326C223.523 83.7109 223.868 83.5934 223.868 83.5543C223.868 83.5152 223.825 83.5152 223.825 83.476C223.825 83.3977 223.825 83.3977 223.739 83.4369C223.911 83.3977 224.083 83.2803 223.825 83.2803Z" fill="#5EC988"/>
  <path d="M207.77 90.0836C207.124 89.9664 206.478 89.9273 206.263 90.631C206.048 91.3348 206.78 91.4912 207.425 91.5303C207.511 91.5303 207.683 91.4912 207.683 91.413C207.727 90.9829 208.157 90.4746 207.77 90.0836C207.727 90.0055 207.425 90.0837 207.425 90.2009C207.468 90.5528 207.597 90.8656 207.683 91.2175C207.77 91.5694 207.77 91.8822 207.77 92.234C207.77 92.3513 208.157 92.2731 208.157 92.1559C208.157 91.804 208.157 91.4521 208.071 91.1393C207.985 90.7874 207.813 90.4746 207.77 90.0836C207.684 90.1227 207.554 90.1618 207.425 90.2009C207.727 90.5528 207.382 91.0611 207.296 91.413C207.382 91.3739 207.468 91.3348 207.554 91.2957C207.167 91.2957 206.65 91.2566 206.607 90.8265C206.607 90.631 206.693 90.3182 206.866 90.2009C207.038 90.0837 207.296 90.2009 207.511 90.24C207.64 90.3182 207.985 90.1227 207.77 90.0836Z" fill="#5EC988"/>
  <path d="M208.156 90.0443C208.113 90.4353 208.113 91.1 208.673 91.1C208.974 91.1 209.275 90.9436 209.319 90.709C209.405 90.4353 209.276 90.2007 209.232 89.927C209.189 89.7707 208.802 89.8488 208.845 90.0052C208.888 90.1616 208.974 90.3571 208.974 90.5135C208.974 90.6699 208.931 90.9045 208.716 90.8263C208.458 90.7481 208.501 90.2007 208.544 90.0052C208.544 89.8488 208.199 89.8879 208.156 90.0443Z" fill="#5EC988"/>
  <path d="M209.707 89.6531C209.707 89.614 209.707 89.4967 209.793 89.4967C209.836 89.4967 209.922 89.5749 209.965 89.5749C210.008 89.6531 210.051 89.7313 210.094 89.8095C210.137 90.005 210.18 90.2004 210.223 90.3959C210.223 90.4741 210.568 90.3959 210.611 90.3177C210.654 90.0441 210.353 89.6922 210.051 89.7313C209.664 89.7313 209.449 90.044 209.406 90.3568C209.319 90.6696 209.492 90.9042 209.879 90.826C210.18 90.7869 210.525 90.5523 210.654 90.2786C210.697 90.2395 210.309 90.2395 210.266 90.3568C210.223 90.4741 210.008 90.7478 209.922 90.7087C209.707 90.6696 209.793 90.3177 209.836 90.2004C209.879 90.1222 209.879 90.044 209.965 89.9659C209.965 89.9268 210.008 89.8877 210.051 89.8486C209.922 89.9268 210.008 89.9268 210.051 89.9659C210.18 90.0831 210.309 90.2786 210.266 90.435C210.396 90.3959 210.525 90.3568 210.654 90.3568C210.568 90.0831 210.568 89.5358 210.223 89.4185C209.922 89.3403 209.406 89.4576 209.406 89.7704C209.362 89.8095 209.707 89.7704 209.707 89.6531Z" fill="#5EC988"/>
  <path d="M210.524 88.9104C210.481 89.4187 210.524 91.0217 211.514 90.3961C211.73 90.2788 211.428 90.1615 211.256 90.2397C210.955 90.4352 210.869 89.0277 210.869 88.8322C210.912 88.7149 210.524 88.7931 210.524 88.9104Z" fill="#5EC988"/>
  <path d="M211.384 89.3407C211.341 89.6535 211.557 89.8881 211.6 90.2008C211.643 90.3572 211.987 90.2399 211.987 90.1226C211.944 89.9272 211.47 89.5362 211.686 89.3407C211.772 89.2625 212.073 89.2234 212.116 89.3798C212.159 89.5753 211.729 89.5362 211.6 89.5362C211.513 89.5362 211.341 89.6926 211.513 89.7317C211.815 89.8099 212.03 90.0444 212.288 90.2008C212.417 90.279 212.719 90.1226 212.59 90.0053C212.331 89.8099 212.073 89.5753 211.729 89.4971C211.686 89.5753 211.686 89.6144 211.643 89.6926C211.815 89.6535 211.987 89.7317 212.202 89.6535C212.331 89.6144 212.46 89.4971 212.504 89.3407C212.547 89.0279 212.159 88.9888 211.901 89.0279C211.686 89.067 211.298 89.1843 211.255 89.4189C211.212 89.7317 211.557 89.888 211.6 90.1617C211.729 90.1226 211.858 90.0835 211.987 90.0835C211.944 89.8099 211.729 89.5753 211.772 89.3016C211.815 89.1452 211.427 89.2234 211.384 89.3407Z" fill="#5EC988"/>
  <path d="M210.567 89.419C210.696 89.419 210.826 89.4582 210.955 89.4582C211.041 89.4582 211.386 89.3407 211.214 89.3016C211.084 89.3016 210.955 89.2625 210.826 89.2625C210.74 89.2625 210.395 89.419 210.567 89.419Z" fill="#5EC988"/>
  <path d="M212.719 89.497C212.934 89.5361 213.193 89.6143 213.451 89.5361C213.709 89.4579 213.709 89.2233 213.709 88.9887C213.709 88.9496 213.666 88.9497 213.623 88.9497C213.106 88.8324 212.504 89.106 212.676 89.6534C212.848 90.2399 213.58 90.1226 213.967 89.8098C214.14 89.6925 213.752 89.6925 213.666 89.7707C213.537 89.8489 213.451 89.9662 213.279 89.888C213.149 89.8098 213.063 89.6925 213.063 89.5752C213.02 89.4579 213.02 89.3406 213.106 89.2233C213.193 89.106 213.322 89.1451 213.451 89.1842C213.408 89.1842 213.408 89.1451 213.365 89.1451C213.365 89.2233 213.365 89.3015 213.322 89.3797C213.322 89.4188 213.279 89.4579 213.322 89.4579C213.236 89.497 213.063 89.4188 212.934 89.3797C212.848 89.2624 212.547 89.4188 212.719 89.497Z" fill="#5EC988"/>
  <path d="M214.742 89.6538C214.742 89.7712 214.742 90.0844 214.57 90.1235C214.527 90.1627 214.44 90.2018 214.483 90.2801C214.527 90.3584 214.656 90.3192 214.742 90.2801C215.087 90.1627 215.087 89.9278 215.13 89.6146C215.13 89.4972 214.785 89.5363 214.742 89.6538Z" fill="#5EC988"/>
  <path d="M216.595 88.4809C216.293 88.4418 215.949 88.4418 215.82 88.7155C215.734 88.911 215.648 89.2238 215.691 89.4584C215.82 89.9666 216.81 89.8494 216.939 89.4193C216.982 89.2629 216.595 89.3411 216.552 89.4584C216.509 89.5757 216.336 89.5757 216.207 89.5366C216.078 89.4975 216.035 89.3802 216.035 89.2629C216.035 89.1456 216.078 88.9892 216.121 88.8719C216.121 88.8328 216.164 88.7546 216.207 88.7155C216.25 88.6764 216.422 88.7155 216.465 88.7155C216.595 88.7155 216.853 88.4809 216.595 88.4809Z" fill="#5EC988"/>
  <path d="M216.893 88.4799C216.85 88.7926 216.893 89.0663 216.936 89.3791C216.936 89.4573 217.323 89.3791 217.323 89.3009C217.28 89.0272 217.237 88.7535 217.28 88.4799C217.28 88.3235 216.936 88.3626 216.893 88.4799Z" fill="#5EC988"/>
  <path d="M217.97 89.4185C217.97 89.3012 217.797 88.7148 218.013 88.7148C218.142 88.7148 218.185 88.9103 218.228 88.9493C218.271 89.0666 218.357 89.1839 218.443 89.3012C218.572 89.4185 218.917 89.2621 218.787 89.1448C218.615 88.9884 218.615 88.793 218.486 88.6366C218.357 88.4802 218.185 88.4411 217.97 88.4802C217.41 88.5975 217.582 89.0666 217.582 89.4576C217.625 89.614 218.013 89.5358 217.97 89.4185Z" fill="#5EC988"/>
  <path d="M219.476 88.2069C219.132 88.1678 218.874 88.4024 218.788 88.6761C218.702 89.0671 219.003 89.2626 219.39 89.2626C219.476 89.2626 219.606 89.2235 219.649 89.1453C219.778 88.8716 219.907 88.637 219.821 88.3242C219.778 88.1678 219.433 88.2851 219.433 88.4024C219.563 88.9498 219.735 89.5754 219.606 90.1618C219.563 90.3182 219.95 90.2791 219.993 90.1227C220.122 89.5363 219.95 88.8716 219.821 88.2851C219.692 88.3242 219.563 88.3633 219.433 88.3633C219.52 88.5979 219.39 88.8325 219.304 89.0671C219.39 89.028 219.477 88.9889 219.563 88.9498C219.347 88.9498 219.175 88.8716 219.175 88.6761C219.175 88.5979 219.218 88.3242 219.39 88.3633C219.52 88.4415 219.735 88.246 219.476 88.2069Z" fill="#5EC988"/>
  <path d="M221.07 88.5588C221.07 88.7152 221.07 88.9498 220.941 89.0671C220.812 89.2235 221.156 89.3017 221.243 89.1453C221.372 88.9498 221.415 88.7152 221.415 88.5197C221.458 88.3633 221.113 88.4024 221.07 88.5588Z" fill="#5EC988"/>
  <path d="M223.264 86.7989C222.834 86.6816 222.231 86.9944 222.446 87.4636C222.619 87.8155 223.092 87.5027 223.35 87.6591C223.566 87.8546 223.307 88.0501 223.135 88.1282C222.877 88.2064 222.705 88.2064 222.791 87.8937C222.834 87.7373 222.446 87.7764 222.403 87.9328C222.317 88.2455 222.489 88.4019 222.834 88.4019C223.135 88.4019 223.479 88.2455 223.695 88.0501C223.91 87.8546 223.867 87.5418 223.609 87.4245C223.436 87.3463 223.221 87.3854 223.049 87.3854C222.963 87.3854 222.92 87.3854 222.877 87.3072C222.791 87.1508 222.877 86.9162 223.092 86.9553C223.178 87.0726 223.479 86.8771 223.264 86.7989Z" fill="#5EC988"/>
  <path d="M223.911 87.3466C223.867 87.6203 223.824 87.8549 223.911 88.1286C223.954 88.2459 224.341 88.1677 224.298 88.0504C224.212 87.8158 224.298 87.5812 224.298 87.3466C224.341 87.1511 223.954 87.2293 223.911 87.3466Z" fill="#5EC988"/>
  <path d="M223.997 86.9167C223.997 87.1124 224.083 87.1907 224.341 87.1907C224.384 87.1907 224.6 87.1515 224.6 87.0732C224.6 86.9558 224.6 86.9167 224.514 86.8384C224.428 86.7601 224.083 86.8775 224.169 86.9558C224.212 86.995 224.255 87.0341 224.255 87.1124C224.341 87.0732 224.428 87.0341 224.514 86.995C224.428 86.995 224.384 86.9558 224.428 86.8384C224.384 86.7209 223.997 86.7992 223.997 86.9167Z" fill="#5EC988"/>
  <path d="M224.642 87.1904C224.986 87.2686 225.244 87.5032 225.545 87.6596C225.675 87.7378 226.019 87.5814 225.847 87.4641C225.545 87.2686 225.244 87.034 224.9 86.9558C224.685 86.9167 224.426 87.1513 224.642 87.1904Z" fill="#5EC988"/>
  <path d="M225.332 87.073C225.289 87.2685 225.16 87.4249 225.031 87.5813C224.901 87.7377 224.772 87.9331 224.6 88.0113C224.385 88.1286 224.6 88.285 224.772 88.1677C224.987 88.0504 225.16 87.855 225.332 87.6595C225.504 87.464 225.633 87.2294 225.719 86.9948C225.762 86.8775 225.375 86.9557 225.332 87.073Z" fill="#5EC988"/>
  <path d="M207.211 95.0883C209.836 94.8537 212.333 93.798 214.959 93.4071C216.939 93.0943 218.962 92.8206 220.942 92.4687C221.158 92.4296 221.114 92.2341 220.899 92.2732C218.79 92.6642 216.681 92.9379 214.571 93.2898C212.118 93.6807 209.75 94.6973 207.254 94.9319C207.081 94.8928 206.952 95.1274 207.211 95.0883Z" fill="#5EC988"/>
  <path d="M207.639 97.473C210.523 97.2775 213.407 96.7692 216.248 96.2609C218.874 95.7917 221.715 95.4399 224.212 94.4624C224.47 94.3842 224.212 94.306 224.082 94.3451C221.5 95.3617 218.529 95.7136 215.775 96.1827C213.149 96.6519 210.48 97.1211 207.768 97.3166C207.682 97.3166 207.424 97.473 207.639 97.473Z" fill="#5EC988"/>
  <path d="M241.778 57.8584C241.466 60.5576 241.405 66.5457 242.473 67.3375L248.4 66.4572L248.394 66.4185C250.568 65.8581 251.997 63.7454 251.657 61.4596L251.019 57.1592C250.656 54.7185 248.387 53.0361 245.946 53.3985L245.52 53.4618C243.351 53.784 241.771 55.6815 241.778 57.8584Z" fill="#AC5419"/>
  <path d="M249.251 60.9854C250.014 59.7238 250.471 58.27 250.13 56.7764C249.17 52.4446 243.231 54.3164 242.358 56.703C241.485 59.0896 242.475 64.6842 244.082 64.8415C244.725 64.9044 245.75 64.4961 246.985 63.4812L247.242 69.3217L252.162 68.5911L249.251 60.9854Z" fill="#FFCAA7"/>
  <path d="M247.78 60.4119C247.91 62.8872 248.396 65.6263 249.191 66.1814L255.118 65.3012C254.615 59.5156 251.728 62.2014 250.922 56.7775C250.7 56.6126 250.477 56.4477 250.261 56.3215L250.238 56.1665C248.881 54.2298 247.447 53.3736 245.859 53.6095C243.495 53.9604 242.92 55.1545 242.406 56.2208C243.112 57.779 245.006 57.7353 246.789 58.5397C246.96 58.3559 247.18 58.2439 247.452 58.2036C248.072 58.1116 248.65 58.5405 248.742 59.1603C248.834 59.7802 248.405 60.3586 247.785 60.4507C247.824 60.4449 247.824 60.4449 247.78 60.4119Z" fill="#AC5419"/>
  <path d="M242.958 59.9401C243.03 59.8898 243.146 59.8726 243.268 59.8941C243.351 59.9213 243.396 59.9543 243.44 59.9873C243.496 60.0978 243.475 60.2197 243.364 60.2757C243.292 60.326 243.182 60.382 243.099 60.3547C242.938 60.339 242.915 60.184 242.898 60.0678C242.853 60.0348 242.919 59.9458 242.958 59.9401Z" fill="#AC5419"/>
  <path d="M242.324 60.4697C242.446 60.4912 242.954 62.3163 243 62.6263C242.845 62.6493 242.27 62.7743 242.103 62.7198C241.848 62.5994 241.924 62.3109 241.973 62.1057C242.07 61.6953 241.936 60.5273 242.324 60.4697Z" fill="#FFCAA7"/>
  <path d="M243.875 59.4474C243.819 59.3369 243.724 59.2322 243.596 59.172C243.469 59.1118 243.347 59.0903 243.192 59.1133C243.075 59.1305 242.92 59.1536 242.81 59.2096C242.7 59.2656 242.595 59.3603 242.535 59.488C242.645 59.432 242.761 59.4148 242.877 59.3975C242.994 59.3803 243.071 59.3688 243.187 59.3515C243.304 59.3342 243.387 59.3615 243.503 59.3442C243.631 59.4044 243.747 59.3872 243.875 59.4474Z" fill="#AC5419"/>
  <path d="M243.219 64.0984C243.33 64.0424 243.479 63.9807 243.584 63.8859C243.688 63.7912 243.793 63.6965 243.898 63.6017C244.107 63.4122 244.272 63.1898 244.348 62.9013L244.093 62.7809C244 62.9531 243.823 63.0981 243.602 63.2101C243.381 63.3221 243.16 63.4341 242.934 63.5073C243.178 63.5503 243.449 63.51 243.714 63.431C243.98 63.352 244.195 63.2013 244.354 62.94L244.098 62.8196C244.011 63.0306 243.885 63.2473 243.759 63.464C243.555 63.6922 243.39 63.9147 243.219 64.0984Z" fill="#AC5419"/>
  <path d="M248.669 103.745C245.536 103.745 241.541 104.45 236.684 105.899C239.778 108.053 243.107 109.11 246.711 109.11C250.314 109.11 254.583 108.405 259.557 107.035C255.445 104.802 251.802 103.745 248.669 103.745Z" fill="#2F4077"/>
  <path d="M243.773 121.33C243.186 125.208 241.58 131.71 240.836 134.06C240.366 135.548 237.741 134.686 238.016 133.511C238.29 132.375 239.308 116.395 240.209 111.382C240.287 108.288 241.658 92.5429 242.128 89.9971L253.996 88.4304C253.408 91.7596 245.379 110.677 244.987 112.361C244.948 112.44 244.948 112.518 244.909 112.596C244.713 114.437 244.321 117.688 243.773 121.33Z" fill="#FFCAA7"/>
  <path d="M241.58 133.746C241.463 133.55 241.188 133.511 240.993 133.629C240.483 133.942 240.092 134.099 239.778 134.138C239.387 134.177 238.917 134.138 238.251 133.942L237.781 133.198C237.703 133.12 237.585 133.08 237.507 133.12L232.454 136.057C232.023 136.175 231.514 136.292 230.888 136.488C230.261 136.645 230.143 137.154 230.574 138.055C237.859 137.075 241.698 136.566 242.128 136.527C242.168 135.861 242.128 135.352 242.089 135C242.089 134.725 241.893 134.334 241.58 133.746C241.58 133.785 241.58 133.785 241.58 133.746Z" fill="#6B93F6"/>
  <path d="M251.411 121.8C251.489 125.717 251.019 132.336 250.706 134.765C250.51 136.292 247.729 135.861 247.807 134.647C247.886 133.472 246.162 117.57 246.201 112.479C245.731 109.385 244.439 93.6788 244.439 91.0938L255.876 87.7646C255.876 91.133 251.176 110.951 251.058 112.714C251.058 112.792 251.019 112.87 251.019 112.949C251.136 114.829 251.293 118.119 251.411 121.8Z" fill="#FFCAA7"/>
  <path d="M251.333 134.373C251.176 134.216 250.902 134.216 250.745 134.334C250.314 134.686 249.923 134.921 249.649 135C249.296 135.117 248.787 135.117 248.121 135.039L247.534 134.373C247.455 134.295 247.338 134.295 247.259 134.373L242.755 138.015C242.364 138.211 241.854 138.407 241.267 138.642C240.679 138.877 240.64 139.425 241.228 140.248C248.278 138.211 251.999 137.115 252.39 136.997C252.312 136.331 252.194 135.822 252.077 135.47C251.999 135.274 251.764 134.882 251.333 134.373Z" fill="#6B93F6"/>
  <path d="M259.636 106.995C252.39 103.588 243.695 109.58 236.684 106.095C237.311 95.9505 240.836 93.3263 242.285 86.7463C246.437 85.4146 250.862 85.4146 255.523 86.7463C258.813 90.7413 261.712 102.217 259.636 106.995Z" fill="#6B93F6"/>
  <path d="M260.636 105.996C253.39 102.588 244.695 108.581 237.684 105.095C238.311 94.9505 241.836 92.3263 243.285 85.7463" stroke="#E3FDEB" stroke-width="0.5"/>
  <path d="M233.943 82.1638L227.324 79.5397C224.464 79.8138 223.094 79.7355 223.172 79.3438C223.329 78.7172 224.151 78.8738 224.347 78.443C224.504 78.0513 223.564 77.1897 222.663 76.4455C221.762 75.7013 222.349 75.5447 222.741 75.5447C224.112 75.858 225.6 76.4847 227.245 77.3855L235.431 78.4822L233.943 82.1638ZM266.999 97.4388C267.313 98.0263 269.506 99.8672 270.994 100.925C271.621 101.356 271.347 101.865 271.112 102.021C269.232 103.196 268.018 101.826 266.373 101.042C264.61 100.22 264.728 102.57 263.318 101.904C263.749 100.925 264.767 99.123 264.297 97.948C264.101 97.4388 261.477 91.5638 256.542 80.4013H261.085C264.61 90.9372 266.608 96.6163 266.999 97.4388Z" fill="#FFCAA7"/>
  <path d="M247.886 74.1348C246.084 84.9448 237.35 88.9007 227.402 87.6473L228.812 77.464C239.465 79.1482 244.244 74.174 245.105 66.2623L248.669 66.0273C248.748 68.4165 248.356 71.354 247.886 74.1348Z" fill="#69DF97"/>
  <path d="M250.432 64.9697H250.785C258.735 72.1372 263.905 82.2814 266.373 95.4022H255.485C255.406 92.9347 255.289 90.5064 255.093 88.1564H240.562C242.09 81.3414 245.027 75.4664 245.027 66.2231L250.432 64.9697Z" fill="#5EC988"/>
  <path d="M255.093 88.1564H252.155C252.978 85.1406 253.174 80.7148 252.821 74.9573C253.996 79.1089 254.701 83.4956 255.093 88.1564Z" fill="#5EC988"/>
  <path d="M46.4047 5.75044C53.0179 5.75044 58.3421 11.1307 58.2861 17.7439C58.23 24.3011 52.9058 29.6253 46.2926 29.5693C39.7914 29.5132 34.4112 24.189 34.4672 17.5758C34.5793 11.0186 39.8475 5.69439 46.4047 5.75044ZM47.0212 16.3989C47.0212 16.2868 47.0212 16.2307 47.0212 16.2307C47.0212 13.5966 47.0212 10.9626 47.0212 8.32848C47.0212 8.21639 47.0212 8.1043 47.0212 7.99221C47.0212 7.76803 46.9091 7.54386 46.6849 7.43177C46.2365 7.20759 45.7882 7.54386 45.7882 8.04825C45.7882 11.2988 45.7882 14.5494 45.7882 17.8C45.7882 17.856 45.7882 17.912 45.7882 17.9681C45.7882 18.1923 45.9003 18.4164 46.1245 18.5285C46.3486 18.6406 46.5728 18.5846 46.7409 18.4725C46.797 18.4164 46.853 18.3604 46.9651 18.3044C47.8618 17.4077 48.7585 16.5109 49.6552 15.6142C50.552 14.7175 51.3926 13.8769 52.2893 12.9802C52.4575 12.812 52.5135 12.6439 52.5135 12.4197C52.4574 12.1955 52.3454 12.0274 52.1212 11.9153C51.841 11.8593 51.6168 11.9153 51.4487 12.0834C50.552 12.9802 49.7113 13.8208 48.8146 14.7175C48.3662 15.1659 47.9179 15.5582 47.5256 16.0065C47.3574 16.1186 47.1893 16.2307 47.0212 16.3989ZM56.5487 17.9121C56.8289 17.9121 57.1091 17.9121 57.3333 17.9121C57.5575 17.9121 57.7256 17.8 57.7256 17.5758C57.7256 17.4077 57.6135 17.2395 57.3894 17.2395C56.8289 17.2395 56.3245 17.2395 55.7641 17.2395C55.5399 17.2395 55.3718 17.3516 55.4278 17.5758C55.4278 17.7439 55.596 17.9121 55.7641 17.9121C55.9883 17.9681 56.2685 17.9121 56.5487 17.9121ZM46.0684 27.7758C46.0684 28.0561 46.0684 28.3363 46.0684 28.6165C46.0684 28.8407 46.1805 28.9528 46.4047 28.9528C46.5728 28.9528 46.7409 28.8407 46.7409 28.6165C46.7409 28.0561 46.7409 27.4956 46.7409 26.9352C46.7409 26.711 46.6289 26.5989 46.4047 26.5989C46.2365 26.5989 46.0684 26.767 46.0684 26.9352C46.0684 27.2714 46.0684 27.4956 46.0684 27.7758ZM36.2607 17.2956C35.9804 17.2956 35.7002 17.2956 35.42 17.2956C35.2519 17.2956 35.0837 17.4637 35.0837 17.6318C35.0837 17.8 35.1958 17.9681 35.42 17.9681C35.9804 17.9681 36.5409 17.9681 37.1013 17.9681C37.2695 17.9681 37.4376 17.856 37.4376 17.6318C37.4376 17.4637 37.3255 17.2956 37.1013 17.2956C36.8211 17.2956 36.5409 17.2956 36.2607 17.2956Z" fill="#2F4077"/>
  <path d="M47.0209 16.3986C47.1891 16.2305 47.3572 16.0623 47.4693 15.9502C47.9176 15.5019 48.366 15.1096 48.7583 14.6612C49.655 13.7645 50.4957 12.9238 51.3924 12.0271C51.5605 11.859 51.7847 11.7469 52.0649 11.859C52.2891 11.9151 52.4573 12.0832 52.4573 12.3634C52.5133 12.5876 52.4012 12.7557 52.2331 12.9238C51.3364 13.8206 50.4957 14.6612 49.599 15.5579C48.7023 16.4546 47.8056 17.3513 46.9089 18.2481C46.8528 18.3041 46.7968 18.3601 46.6847 18.4162C46.4605 18.5843 46.2924 18.5843 46.0682 18.4722C45.844 18.3601 45.7319 18.192 45.7319 17.9118C45.7319 17.8557 45.7319 17.7997 45.7319 17.7437C45.7319 14.4931 45.7319 11.2425 45.7319 7.99195C45.7319 7.48755 46.1803 7.15129 46.6286 7.37546C46.8528 7.48755 46.9649 7.65569 46.9649 7.93591C46.9649 8.048 46.9649 8.16008 46.9649 8.27217C46.9649 10.9063 46.9649 13.5403 46.9649 16.1744C47.021 16.2865 47.0209 16.3426 47.0209 16.3986Z" fill="white"/>
  <path d="M56.5486 17.9123C56.2684 17.9123 55.9882 17.9123 55.764 17.9123C55.5398 17.9123 55.4277 17.8002 55.4277 17.576C55.4277 17.4079 55.5959 17.2397 55.764 17.2397C56.3245 17.2397 56.8288 17.2397 57.3893 17.2397C57.6135 17.2397 57.7816 17.4079 57.7256 17.576C57.7256 17.7441 57.5574 17.9123 57.3333 17.9123C57.1091 17.9683 56.8288 17.9123 56.5486 17.9123Z" fill="white"/>
  <path d="M46.0684 27.7758C46.0684 27.4956 46.0684 27.2154 46.0684 26.9351C46.0684 26.711 46.1805 26.5989 46.4046 26.5989C46.5728 26.5989 46.7409 26.711 46.7409 26.9351C46.7409 27.4956 46.7409 28.056 46.7409 28.6165C46.7409 28.8406 46.6288 28.9527 46.4046 28.9527C46.2365 28.9527 46.0684 28.8406 46.0684 28.6165C46.0684 28.3362 46.0684 28.056 46.0684 27.7758Z" fill="white"/>
  <path d="M36.2604 17.2954C36.5407 17.2954 36.8209 17.2954 37.1011 17.2954C37.3253 17.2954 37.4374 17.4075 37.4374 17.6317C37.4374 17.7998 37.3253 17.9679 37.1011 17.9679C36.5407 17.9679 35.9802 17.9679 35.4198 17.9679C35.2516 17.9679 35.0835 17.8559 35.0835 17.6317C35.0835 17.4635 35.1956 17.2954 35.4198 17.2954C35.7 17.2954 35.9802 17.2954 36.2604 17.2954Z" fill="white"/>
  <path d="M169.32 -5H139V34.0068H169.32V-5Z" fill="#F4F6FE"/>
  <path d="M194.596 8.45044H164.276V47.4573H194.596V8.45044Z" fill="#ADBFFC"/>
  <path d="M148.976 31.4847C148.191 31.4847 147.463 31.4847 146.678 31.4847C146.734 31.3166 146.734 31.2045 146.79 31.1484C147.799 29.0187 148.752 26.9451 149.817 24.8154C150.153 24.0869 150.377 23.3583 150.321 22.5737C150.321 22.3495 150.321 22.1253 150.321 21.789C151.106 22.0132 151.162 21.5088 151.33 20.9484C151.61 19.7154 152.002 18.5385 152.283 17.3055C152.395 16.8571 152.675 16.4088 152.395 15.9044C152.283 15.6802 152.395 15.3439 152.395 15.0077C152.899 15.1198 152.955 14.7835 153.011 14.4472C153.235 12.0373 153.516 9.57137 153.684 7.16147C153.852 5.19992 153.908 3.29441 154.02 1.33286C154.02 1.05264 153.852 0.772418 153.852 0.548241C153.852 -0.0122018 153.908 -0.516602 154.02 -1.07704C154.02 -1.18913 154.3 -1.30122 154.468 -1.41331C154.468 -2.0298 154.468 -2.75838 154.468 -3.43091C154.524 -3.43091 154.58 -3.43091 154.58 -3.43091C154.58 -2.70233 154.58 -2.0298 154.58 -1.30122C155.085 -1.30122 155.141 -1.021 155.085 -0.684736C155.029 -0.460559 155.253 -0.180336 155.197 0.0438416C154.805 2.84606 155.365 5.64827 155.477 8.45049C155.533 10.5241 155.869 12.5978 156.15 14.6714C156.15 14.8395 156.43 15.0077 156.598 15.1758C156.654 15.1758 156.71 15.1198 156.766 15.1198C156.71 15.5121 156.598 15.9044 156.542 16.2406C156.542 16.3527 156.542 16.4648 156.598 16.5769C157.046 18.3143 157.495 20.0517 157.999 21.789C158.223 21.789 158.448 21.8451 158.672 21.8451C158.672 22.0132 158.728 22.1253 158.728 22.2934C158.616 23.3022 158.896 24.1989 159.344 25.0957C160.353 27.0572 161.25 29.0748 162.202 31.0363C162.259 31.1484 162.315 31.3166 162.427 31.5407C161.642 31.5407 160.97 31.5407 160.297 31.5407C160.185 31.5407 160.017 31.3166 159.961 31.1484C159.344 29.8594 158.896 28.5144 158.111 27.3374C156.43 24.7033 152.731 24.8715 151.162 27.2253C150.713 27.8979 150.321 28.6264 149.985 29.355C149.536 29.9155 149.256 30.7001 148.976 31.4847ZM152.843 21.789C153.964 21.789 155.029 21.789 156.15 21.789C155.869 20.3319 155.645 18.8747 155.365 17.4176C154.805 17.4176 154.244 17.4176 153.628 17.4176C153.347 18.8187 153.123 20.2758 152.843 21.789ZM154.468 6.3208C154.3 9.01093 154.132 11.9252 153.964 14.8395C154.3 14.8395 154.637 14.8395 154.973 14.8395C154.805 11.9252 154.636 9.01093 154.468 6.3208Z" fill="#69DF97"/>
  </g>
  <defs>
  <linearGradient id="paint0_linear_2857_16770" x1="258.892" y1="-25.7666" x2="258.892" y2="46.6526" gradientUnits="userSpaceOnUse">
  <stop stop-color="#E9EDFE"/>
  <stop offset="1" stop-color="#FBF5F2"/>
  </linearGradient>
  <radialGradient id="paint1_radial_2857_16770" cx="0" cy="0" r="1" gradientUnits="userSpaceOnUse" gradientTransform="translate(247.851 23.3682) scale(60.8844 62.3191)">
  <stop stop-color="white"/>
  <stop offset="1" stop-color="#FF9933"/>
  </radialGradient>
  <linearGradient id="paint2_linear_2857_16770" x1="23.0352" y1="113.905" x2="23.0352" y2="139.25" gradientUnits="userSpaceOnUse">
  <stop stop-color="#E9EDFE"/>
  <stop offset="1" stop-color="#FBF5F2"/>
  </linearGradient>
  <linearGradient id="paint3_linear_2857_16770" x1="5.13355" y1="128.556" x2="5.13355" y2="154.351" gradientUnits="userSpaceOnUse">
  <stop stop-color="#E9EDFE"/>
  <stop offset="1" stop-color="#FBF5F2"/>
  </linearGradient>
  <clipPath id="clip0_2857_16770">
  <rect width="282" height="158.63" fill="white"/>
  </clipPath>
  </defs>
  </svg>
