<svg width="282" height="159" viewBox="0 0 282 159" fill="none" xmlns="http://www.w3.org/2000/svg">
  <g clip-path="url(#clip0_2857_16892)">
  <rect width="282" height="158.63" fill="#E6EEFE"/>
  <path d="M358.529 206.386L-108.179 206.386L-108.179 116.961L358.529 116.961V206.386Z" fill="#BCD3FC"/>
  <path d="M132.001 117.515C131.905 122.242 131.841 127.001 131.776 131.728L131.648 145.941C131.583 150.667 131.616 155.427 131.583 160.153L131.551 174.366L131.583 188.579C131.616 193.306 131.583 198.065 131.648 202.792L131.776 217.005C131.841 221.732 131.905 226.491 132.001 231.218C132.098 226.491 132.162 221.732 132.227 217.005L132.355 202.792C132.419 198.065 132.387 193.306 132.42 188.579L132.452 174.366L132.42 160.153C132.387 155.427 132.419 150.667 132.355 145.941L132.227 131.728C132.162 127.001 132.098 122.274 132.001 117.515Z" fill="#A9C8FB"/>
  <path d="M148.98 117.579C149.269 122.242 149.591 126.904 149.88 131.567L150.877 145.522C151.198 150.185 151.584 154.848 151.938 159.478L153.031 173.434L154.221 187.389C154.639 192.052 154.993 196.714 155.443 201.345L156.729 215.3C157.179 219.963 157.629 224.593 158.112 229.256C157.822 224.593 157.501 219.931 157.211 215.268L156.215 201.313C155.893 196.65 155.507 191.988 155.121 187.357L154.028 173.401L152.838 159.446C152.42 154.783 152.067 150.153 151.616 145.49L150.33 131.535C149.88 126.872 149.462 122.21 148.98 117.579Z" fill="#A9C8FB"/>
  <path d="M165.926 117.611C166.57 122.177 167.309 126.744 167.984 131.342L170.139 145.04C170.846 149.606 171.618 154.172 172.358 158.739L174.609 172.437L176.924 186.135C177.695 190.701 178.467 195.267 179.271 199.834L181.683 213.532C182.519 218.098 183.323 222.664 184.191 227.23C183.548 222.664 182.808 218.098 182.133 213.5L179.979 199.801C179.271 195.235 178.499 190.669 177.76 186.103L175.509 172.405L173.194 158.706C172.422 154.14 171.65 149.574 170.846 145.008L168.435 131.31C167.599 126.711 166.795 122.145 165.926 117.611Z" fill="#A9C8FB"/>
  <path d="M182.904 117.643C183.933 122.145 185.059 126.615 186.12 131.117L189.432 144.558C190.525 149.059 191.683 153.529 192.808 157.999L196.185 171.44L199.657 184.881C200.815 189.351 201.94 193.852 203.162 198.322L206.699 211.763C207.921 216.233 209.111 220.703 210.365 225.172C209.336 220.67 208.211 216.201 207.15 211.699L203.838 198.226C202.744 193.724 201.587 189.254 200.461 184.785L197.085 171.343L193.612 157.902C192.454 153.433 191.329 148.931 190.107 144.461L186.538 131.02C185.348 126.583 184.158 122.113 182.904 117.643Z" fill="#A9C8FB"/>
  <path d="M199.882 117.676C201.297 122.081 202.776 126.486 204.256 130.892L208.725 144.108C210.204 148.513 211.748 152.918 213.227 157.291L217.761 170.475L222.391 183.659C223.935 188.064 225.446 192.438 227.022 196.843L231.684 209.963C233.292 214.336 234.836 218.741 236.476 223.114C235.061 218.709 233.582 214.304 232.102 209.898L227.633 196.682C226.154 192.277 224.61 187.904 223.131 183.498L218.597 170.315L213.967 157.131C212.423 152.725 210.912 148.352 209.336 143.947L204.641 130.795C203.066 126.422 201.49 122.049 199.882 117.676Z" fill="#A9C8FB"/>
  <path d="M216.828 117.708C218.629 122.049 220.494 126.358 222.326 130.667L227.922 143.625C229.787 147.934 231.684 152.243 233.581 156.552L239.273 169.479L245.028 182.405C246.958 186.714 248.855 191.023 250.816 195.3L256.669 208.194C258.662 212.471 260.592 216.78 262.585 221.056C260.785 216.715 258.92 212.406 257.087 208.098L251.492 195.139C249.627 190.83 247.729 186.521 245.832 182.212L240.141 169.286L234.385 156.359C232.456 152.05 230.558 147.741 228.597 143.465L222.744 130.57C220.783 126.293 218.854 121.984 216.828 117.708Z" fill="#A9C8FB"/>
  <path d="M233.807 117.74C235.994 121.984 238.244 126.229 240.463 130.441L247.216 143.143C249.467 147.387 251.75 151.6 254.033 155.812L260.85 168.482L267.763 181.119C270.079 185.331 272.362 189.544 274.677 193.756L281.655 206.393C284.002 210.606 286.349 214.786 288.729 218.998C286.542 214.754 284.292 210.509 282.073 206.297L275.32 193.595C273.069 189.351 270.786 185.138 268.503 180.926L261.686 168.256L254.773 155.619C252.457 151.407 250.174 147.194 247.859 142.982L240.881 130.345C238.534 126.132 236.186 121.952 233.807 117.74Z" fill="#A9C8FB"/>
  <path d="M250.784 117.772C253.356 121.92 255.993 126.068 258.598 130.248L266.508 142.693C269.112 146.841 271.814 150.957 274.45 155.105L282.425 167.517L290.464 179.897C293.165 184.013 295.802 188.161 298.535 192.277L306.67 204.625C309.404 208.741 312.105 212.857 314.87 216.94C312.298 212.792 309.661 208.644 307.056 204.464L299.146 192.02C296.541 187.872 293.84 183.756 291.203 179.607L283.229 167.195L275.19 154.815C272.489 150.699 269.852 146.551 267.119 142.435L258.983 130.088C256.25 126.004 253.549 121.888 250.784 117.772Z" fill="#A9C8FB"/>
  <path d="M267.763 117.804C270.721 121.888 273.744 125.939 276.734 130.023L285.77 142.21C288.76 146.262 291.847 150.313 294.87 154.365L304.002 166.52L313.134 178.643C316.189 182.694 319.244 186.746 322.331 190.765L331.592 202.856C334.711 206.875 337.798 210.895 340.949 214.914C337.991 210.831 334.968 206.779 331.978 202.695L322.942 190.508C319.952 186.456 316.865 182.405 313.842 178.353L304.71 166.198L295.513 154.076C292.458 150.024 289.404 145.972 286.317 141.953L277.056 129.862C273.969 125.843 270.882 121.823 267.763 117.804Z" fill="#A9C8FB"/>
  <path d="M114.219 117.804C113.93 122.467 113.608 127.129 113.319 131.792L112.322 145.747C112.001 150.41 111.615 155.072 111.261 159.703L110.168 173.658L108.978 187.614C108.56 192.277 108.206 196.939 107.756 201.57L106.47 215.525C106.02 220.188 105.569 224.818 105.087 229.481C105.376 224.818 105.698 220.156 105.987 215.493L106.984 201.538C107.306 196.875 107.692 192.212 108.077 187.582L109.171 173.626L110.361 159.671C110.779 155.008 111.132 150.378 111.582 145.715L112.869 131.76C113.287 127.097 113.737 122.434 114.219 117.804Z" fill="#A9C8FB"/>
  <path d="M97.2407 117.836C96.5976 122.402 95.858 126.968 95.1827 131.567L93.0283 145.265C92.3209 149.831 91.5492 154.397 90.8096 158.963L88.5587 172.662L86.2434 186.36C85.4717 190.926 84.7 195.492 83.8961 200.058L81.4844 213.757C80.6484 218.323 79.8444 222.889 78.9762 227.455C79.6194 222.889 80.3589 218.323 81.0342 213.725L83.1886 200.026C83.8961 195.46 84.6678 190.894 85.4074 186.328L87.6583 172.63L89.9735 158.931C90.7453 154.365 91.517 149.799 92.3209 145.233L94.7326 131.535C95.5686 126.968 96.3725 122.402 97.2407 117.836Z" fill="#A9C8FB"/>
  <path d="M80.2627 117.868C79.2337 122.37 78.1083 126.84 77.0471 131.342L73.7351 144.815C72.6418 149.317 71.4842 153.786 70.3587 158.256L66.9824 171.697L63.5096 185.138C62.3519 189.608 61.2265 194.11 60.0046 198.579L56.4353 212.02C55.2134 216.49 54.0236 220.96 52.7695 225.429C53.7985 220.928 54.924 216.458 55.9851 211.956L59.2972 198.483C60.3905 193.981 61.5481 189.511 62.6735 185.042L66.0499 171.601L69.5227 158.16C70.6803 153.69 71.8057 149.188 73.0277 144.718L76.5969 131.277C77.851 126.808 79.0408 122.338 80.2627 117.868Z" fill="#A9C8FB"/>
  <path d="M63.3174 117.9C61.9025 122.306 60.4234 126.711 58.9442 131.116L54.4746 144.332C52.9954 148.738 51.4519 153.143 49.9727 157.516L45.4388 170.7L40.8084 183.884C39.2649 188.289 37.7536 192.663 36.1779 197.068L31.4832 210.22C29.8754 214.593 28.3319 218.998 26.692 223.371C28.1068 218.966 29.586 214.561 31.0651 210.155L35.5027 196.939C36.9818 192.534 38.5253 188.161 40.0045 183.755L44.5384 170.572L49.1689 157.388C50.7123 152.982 52.2237 148.609 53.7993 144.204L58.494 131.052C60.1018 126.679 61.6774 122.274 63.3174 117.9Z" fill="#A9C8FB"/>
  <path d="M46.3394 117.933C44.5386 122.274 42.6736 126.583 40.8407 130.891L35.2456 143.85C33.3806 148.159 31.4834 152.468 29.5862 156.777L23.8947 169.703L18.1388 182.63C16.2094 186.939 14.3122 191.248 12.3507 195.524L6.49837 208.419C4.50471 212.696 2.5754 217.004 0.581745 221.281C2.38247 216.94 4.24749 212.631 6.08037 208.322L11.6755 195.364C13.5405 191.055 15.4377 186.746 17.3349 182.437L23.0264 169.51L28.7823 156.584C30.7117 152.275 32.6089 147.966 34.5704 143.689L40.4227 130.795C42.3842 126.518 44.3457 122.241 46.3394 117.933Z" fill="#A9C8FB"/>
  <path d="M29.3608 117.965C27.1742 122.209 24.9233 126.454 22.7046 130.666L15.9519 143.368C13.701 147.612 11.4179 151.825 9.13486 156.037L2.31782 168.706L-4.59566 181.344C-6.91088 185.556 -9.19394 189.768 -11.5091 193.981L-18.4869 206.618C-20.8343 210.83 -23.1817 215.011 -25.5612 219.223C-23.3746 214.979 -21.1237 210.734 -18.905 206.522L-12.1523 193.82C-9.90136 189.575 -7.61828 185.363 -5.33522 181.151L1.48178 168.481L8.39527 155.844C10.7105 151.632 12.9935 147.419 15.3088 143.207L22.2866 130.57C24.6661 126.389 26.9813 122.177 29.3608 117.965Z" fill="#A9C8FB"/>
  <path d="M12.4136 118.029C9.84111 122.177 7.20437 126.325 4.59975 130.505L-3.3106 142.95C-5.91521 147.098 -8.61628 151.214 -11.2531 155.362L-19.2277 167.774L-27.2666 180.154C-29.9677 184.27 -32.6045 188.418 -35.3377 192.534L-43.4731 204.882C-46.2063 208.998 -48.9074 213.114 -51.6728 217.197C-49.1004 213.049 -46.4636 208.901 -43.859 204.721L-35.9487 192.277C-33.3441 188.129 -30.643 184.013 -28.0062 179.865L-20.0316 167.452L-11.9926 155.072C-9.29157 150.957 -6.65476 146.808 -3.92152 142.693L4.21386 130.345C6.9471 126.229 9.64818 122.113 12.4136 118.029Z" fill="#A9C8FB"/>
  <path d="M190.396 167.39H372.59V116.583H177.952L190.396 167.39Z" fill="#76ADF8"/>
  <path d="M183.995 158.161C183.609 158.225 183.224 158.29 182.838 158.418C183.449 158.547 184.027 158.611 184.638 158.643C185.249 158.676 185.828 158.708 186.439 158.676C187.05 158.676 187.629 158.643 188.24 158.579C188.626 158.515 189.012 158.45 189.397 158.322C188.787 158.193 188.208 158.129 187.597 158.097C186.986 158.065 186.407 158.032 185.796 158.065C185.185 158.065 184.606 158.097 183.995 158.161Z" fill="#76ADF8"/>
  <path d="M183.256 155.235C182.934 155.299 182.612 155.364 182.291 155.492C182.902 155.621 183.481 155.653 184.092 155.685C184.703 155.717 185.281 155.749 185.892 155.717C186.503 155.717 187.082 155.685 187.693 155.589C188.015 155.524 188.336 155.46 188.658 155.331C188.047 155.203 187.468 155.171 186.857 155.138C186.246 155.106 185.667 155.074 185.056 155.106C184.445 155.106 183.834 155.139 183.256 155.235Z" fill="#76ADF8"/>
  <path d="M182.515 152.277C182.258 152.341 182.033 152.405 181.776 152.534C182.387 152.63 182.965 152.695 183.576 152.727C184.187 152.759 184.766 152.759 185.377 152.759C185.988 152.759 186.567 152.695 187.178 152.63C187.435 152.566 187.66 152.502 187.917 152.373C187.307 152.277 186.728 152.212 186.117 152.18C185.506 152.148 184.927 152.148 184.316 152.148C183.705 152.18 183.094 152.212 182.515 152.277Z" fill="#76ADF8"/>
  <path d="M181.744 149.35C181.583 149.415 181.39 149.511 181.229 149.608C181.84 149.704 182.419 149.768 183.03 149.8C183.641 149.833 184.22 149.833 184.831 149.833C185.442 149.8 186.021 149.768 186.632 149.704C186.792 149.64 186.985 149.543 187.146 149.447C186.535 149.35 185.956 149.286 185.345 149.254C184.734 149.222 184.156 149.222 183.545 149.222C182.934 149.222 182.355 149.254 181.744 149.35Z" fill="#76ADF8"/>
  <path d="M181.004 146.392C180.908 146.489 180.779 146.553 180.683 146.65C181.293 146.746 181.872 146.81 182.483 146.81C183.094 146.843 183.673 146.843 184.284 146.81C184.895 146.778 185.474 146.746 186.085 146.65C186.181 146.553 186.31 146.489 186.406 146.392C185.795 146.296 185.216 146.232 184.606 146.232C183.995 146.199 183.416 146.199 182.805 146.232C182.194 146.264 181.615 146.328 181.004 146.392Z" fill="#76ADF8"/>
  <path d="M180.264 143.465C180.232 143.562 180.2 143.626 180.167 143.722C180.778 143.819 181.357 143.851 181.968 143.883C182.579 143.915 183.158 143.915 183.769 143.883C184.38 143.851 184.959 143.819 185.57 143.722C185.602 143.626 185.634 143.562 185.666 143.465C185.055 143.369 184.476 143.337 183.865 143.304C183.254 143.272 182.676 143.272 182.065 143.304C181.454 143.337 180.843 143.369 180.264 143.465Z" fill="#76ADF8"/>
  <path d="M179.525 140.507C179.557 140.603 179.589 140.668 179.621 140.764C180.232 140.861 180.811 140.893 181.422 140.925C182.033 140.957 182.612 140.957 183.223 140.925C183.834 140.893 184.412 140.861 185.023 140.764C184.991 140.668 184.959 140.603 184.927 140.507C184.316 140.41 183.737 140.378 183.126 140.346C182.515 140.314 181.936 140.314 181.326 140.346C180.715 140.378 180.104 140.41 179.525 140.507Z" fill="#76ADF8"/>
  <path d="M178.755 137.58C178.851 137.677 178.98 137.741 179.076 137.838C179.687 137.934 180.266 137.966 180.877 137.998C181.488 138.031 182.067 137.998 182.678 137.998C183.289 137.966 183.868 137.934 184.479 137.838C184.382 137.741 184.253 137.677 184.157 137.58C183.546 137.484 182.967 137.452 182.356 137.42C181.745 137.387 181.166 137.42 180.556 137.42C179.945 137.42 179.366 137.484 178.755 137.58Z" fill="#76ADF8"/>
  <path d="M178.014 134.622C178.175 134.719 178.368 134.783 178.529 134.88C179.14 134.944 179.719 135.008 180.33 135.008C180.941 135.04 181.519 135.008 182.13 134.976C182.741 134.944 183.32 134.88 183.931 134.783C183.77 134.687 183.577 134.622 183.417 134.526C182.806 134.462 182.227 134.397 181.616 134.397C181.005 134.365 180.426 134.397 179.815 134.43C179.204 134.494 178.625 134.526 178.014 134.622Z" fill="#76ADF8"/>
  <path d="M177.275 131.696C177.532 131.793 177.758 131.889 178.015 131.954C178.626 132.018 179.205 132.05 179.816 132.082C180.427 132.082 181.005 132.082 181.616 132.05C182.227 132.018 182.806 131.954 183.417 131.857C183.16 131.761 182.935 131.664 182.677 131.6C182.066 131.536 181.488 131.503 180.877 131.471C180.266 131.471 179.687 131.471 179.076 131.503C178.465 131.536 177.854 131.6 177.275 131.696Z" fill="#76ADF8"/>
  <path d="M176.534 128.77C176.855 128.899 177.177 128.963 177.498 129.028C178.109 129.092 178.688 129.124 179.299 129.156C179.91 129.156 180.489 129.156 181.1 129.124C181.711 129.092 182.289 129.027 182.9 128.931C182.579 128.802 182.257 128.738 181.936 128.674C181.325 128.609 180.746 128.577 180.135 128.545C179.524 128.545 178.945 128.545 178.334 128.577C177.723 128.577 177.112 128.642 176.534 128.77Z" fill="#76ADF8"/>
  <path d="M175.762 125.812C176.148 125.941 176.534 126.005 176.92 126.069C177.531 126.133 178.11 126.166 178.721 126.166C179.332 126.166 179.911 126.166 180.522 126.133C181.133 126.101 181.711 126.037 182.322 125.908C181.936 125.78 181.551 125.715 181.165 125.651C180.554 125.587 179.975 125.555 179.364 125.555C178.753 125.555 178.174 125.555 177.563 125.587C176.952 125.651 176.373 125.683 175.762 125.812Z" fill="#76ADF8"/>
  <path d="M175.023 122.886C175.473 123.014 175.924 123.079 176.406 123.143C177.017 123.207 177.596 123.24 178.207 123.24C178.818 123.24 179.396 123.24 180.007 123.175C180.618 123.143 181.197 123.079 181.808 122.95C181.358 122.822 180.908 122.757 180.425 122.693C179.814 122.629 179.236 122.596 178.625 122.596C178.014 122.596 177.435 122.596 176.824 122.661C176.213 122.693 175.634 122.757 175.023 122.886Z" fill="#76ADF8"/>
  <path d="M174.283 119.928C174.797 120.056 175.344 120.121 175.859 120.185C176.47 120.249 177.048 120.249 177.659 120.281C178.27 120.281 178.849 120.249 179.46 120.217C180.071 120.185 180.65 120.121 181.261 119.992C180.746 119.863 180.2 119.799 179.685 119.735C179.074 119.67 178.495 119.67 177.884 119.638C177.273 119.638 176.695 119.67 176.084 119.702C175.473 119.735 174.862 119.799 174.283 119.928Z" fill="#76ADF8"/>
  <path d="M180.716 117.001C180.105 116.873 179.526 116.809 178.915 116.744C178.304 116.712 177.725 116.68 177.114 116.68C176.503 116.68 175.925 116.712 175.314 116.744C174.703 116.776 174.124 116.873 173.513 117.001C174.124 117.13 174.703 117.194 175.314 117.259C175.925 117.291 176.503 117.323 177.114 117.323C177.725 117.323 178.304 117.291 178.915 117.259C179.494 117.194 180.105 117.13 180.716 117.001Z" fill="#76ADF8"/>
  <path d="M273.326 116.616C273.326 116.809 273.358 117.034 273.358 117.227C273.39 117.42 273.487 117.581 273.68 117.581C273.84 117.581 273.969 117.548 274.098 117.356C274.612 116.552 275.062 116.552 275.577 117.356C275.834 117.741 276.059 117.613 276.284 117.356C276.509 117.098 276.638 116.745 277.056 116.873C277.281 116.938 277.313 117.066 277.377 117.741C277.699 117.806 278.053 117.484 278.406 117.967C278.567 118.224 278.857 117.806 279.017 117.581C279.628 116.809 279.628 116.809 280.336 117.516C280.593 117.774 280.786 117.581 280.882 117.388C281.043 117.066 281.236 116.905 281.558 116.841C281.944 116.777 282.297 116.809 282.265 117.356C282.265 117.548 282.233 117.709 282.49 117.709C282.683 117.709 282.876 117.741 282.908 117.516C282.973 117.195 283.23 116.97 283.358 116.68C280.014 116.616 276.67 116.616 273.326 116.616Z" fill="#A9C8FB"/>
  <path d="M242.296 116.584C242.263 116.97 242.36 117.355 242.682 117.516C243.067 117.709 243.228 117.259 243.453 117.066C243.582 116.937 243.678 116.712 243.936 116.809C244.418 117.002 244.193 117.388 244.289 117.709C244.707 117.516 245.415 117.806 245.415 116.937C245.415 116.616 246.283 116.648 246.508 117.002C246.701 117.259 246.605 117.774 247.151 117.677C247.762 117.581 247.215 117.034 247.473 116.809C247.505 116.777 247.505 116.68 247.505 116.616C245.801 116.584 244.064 116.584 242.296 116.584Z" fill="#A9C8FB"/>
  <path d="M231.652 116.616C231.62 116.777 231.813 116.777 231.877 116.905C232.167 117.484 232.424 117.902 232.938 117.002C233.196 116.584 233.806 116.68 233.999 117.098C234.096 117.291 233.999 117.581 234.353 117.581C234.675 117.581 234.578 117.291 234.707 117.163C234.835 117.002 234.932 116.841 235.061 116.648C233.903 116.616 232.777 116.616 231.652 116.616Z" fill="#A9C8FB"/>
  <path d="M182.196 152.726C183.354 152.855 184.351 152.952 185.38 152.791C185.09 151.987 184.994 151.987 184.383 152.566C184.062 152.887 183.451 152.855 183.258 152.534C182.807 151.89 182.614 152.405 182.196 152.726Z" fill="#A9C8FB"/>
  <path d="M240.301 116.616C240.301 116.809 240.301 117.034 240.333 117.227C240.333 117.388 240.365 117.548 240.558 117.548C240.719 117.548 240.976 117.645 241.008 117.42C241.137 116.873 241.683 116.905 242.005 116.616C241.426 116.616 240.847 116.616 240.301 116.616Z" fill="#A9C8FB"/>
  <path d="M238.116 116.616C238.309 116.905 238.341 117.195 238.051 117.548C238.534 117.548 238.887 117.548 239.209 117.548C239.113 117.227 239.113 116.905 239.209 116.584C238.855 116.616 238.502 116.616 238.116 116.616Z" fill="#A9C8FB"/>
  <path d="M264.676 116.616C265.126 116.777 264.998 117.709 265.544 117.452C265.898 117.291 266.155 116.809 266.573 116.616C265.962 116.616 265.319 116.616 264.676 116.616Z" fill="#A9C8FB"/>
  <path d="M269.016 117.548C269.723 117.645 269.82 116.938 270.238 116.648C269.723 116.648 269.209 116.616 268.694 116.616C268.984 116.873 269.144 117.163 269.016 117.548Z" fill="#A9C8FB"/>
  <path d="M252.328 116.584C252.328 116.873 252.618 117.002 252.746 117.259C253.003 117.709 253.293 117.581 253.518 117.227C253.454 117.034 253.454 116.841 253.647 116.745C253.614 116.712 253.647 116.68 253.679 116.648C253.261 116.648 252.778 116.616 252.328 116.584Z" fill="#A9C8FB"/>
  <path d="M262.907 116.616C262.939 116.777 263.003 116.97 263.003 117.13C263.003 117.291 263.003 117.452 263.196 117.484C263.389 117.516 263.646 117.484 263.646 117.291C263.678 116.809 264.161 116.841 264.386 116.584C263.871 116.616 263.389 116.616 262.907 116.616Z" fill="#A9C8FB"/>
  <path d="M229.82 116.648C229.852 116.777 229.916 116.937 229.948 117.066C229.98 117.227 229.884 117.452 230.141 117.516C230.366 117.58 230.591 117.452 230.624 117.259C230.688 116.809 231.138 116.873 231.331 116.648C230.849 116.648 230.334 116.648 229.82 116.648Z" fill="#A9C8FB"/>
  <path d="M183.996 158.772C184.157 158.611 184.575 158.901 184.575 158.418C184.575 158.032 184.286 158.161 184.125 158.193C183.9 158.225 183.514 158 183.45 158.45C183.45 158.74 183.771 158.708 183.996 158.772Z" fill="#A9C8FB"/>
  <path d="M183.322 141.021C183.515 140.796 183.451 140.507 183.483 140.25C183.129 140.378 182.775 140.443 182.422 140.443C182.357 140.636 182.325 140.829 182.261 141.054C182.615 141.021 182.968 141.021 183.322 141.021Z" fill="#A9C8FB"/>
  <path d="M266.637 116.616C266.83 116.777 267.023 116.905 267.088 117.195C267.12 117.356 267.055 117.548 267.345 117.581C267.57 117.581 267.602 117.42 267.699 117.259C267.827 117.034 267.956 116.841 268.084 116.616C267.602 116.616 267.12 116.616 266.637 116.616Z" fill="#A9C8FB"/>
  <path d="M184.479 146.81C184.511 146.617 184.543 146.424 184.575 146.264C184.189 146.296 183.803 146.296 183.45 146.328C183.45 147.164 184.029 146.907 184.479 146.81Z" fill="#A9C8FB"/>
  <path d="M181.49 146.875C182.004 147.003 182.358 146.778 182.647 146.296C182.197 146.296 181.779 146.296 181.393 146.296C181.2 146.521 181.49 146.682 181.49 146.875Z" fill="#A9C8FB"/>
  <path d="M248.631 116.648C248.631 116.68 248.631 116.712 248.663 116.712C248.856 116.97 248.534 117.484 248.92 117.581C249.435 117.709 249.435 117.098 249.66 116.809C249.692 116.745 249.724 116.68 249.756 116.616C249.37 116.616 249.017 116.616 248.631 116.648Z" fill="#A9C8FB"/>
  <path d="M181.972 149.318C181.715 149.414 181.265 149.189 181.2 149.575C181.168 149.929 181.586 149.768 181.811 149.8C182.101 149.864 182.358 149.736 182.39 149.446C182.422 149.157 182.133 149.318 181.972 149.318Z" fill="#A9C8FB"/>
  <path d="M180.268 132.051C180.268 131.858 180.235 131.665 180.235 131.472C180.075 131.472 179.914 131.44 179.785 131.472C179.624 131.537 179.271 131.247 179.271 131.729C179.303 132.147 179.496 132.18 179.817 132.147C179.978 132.115 180.107 132.083 180.268 132.051Z" fill="#A9C8FB"/>
  <path d="M186.344 158.708C186.312 158.483 186.537 158.354 186.569 158.161C186.505 158.161 186.409 158.129 186.344 158.129C186.087 158.161 185.765 157.968 185.605 158.322C185.54 158.418 185.508 158.644 185.572 158.676C185.798 158.869 186.087 158.772 186.344 158.708Z" fill="#A9C8FB"/>
  <path d="M179.72 135.106C179.816 134.881 180.042 134.72 179.881 134.431C179.656 134.559 179.238 134.238 179.205 134.752C179.205 135.17 179.527 135.042 179.72 135.106Z" fill="#A9C8FB"/>
  <path d="M181.232 137.485C181.168 137.839 180.653 137.678 180.621 138.032C181.007 137.967 181.393 137.935 181.779 137.871C181.875 137.71 182.004 137.581 182.1 137.421C181.811 137.453 181.521 137.324 181.232 137.485Z" fill="#A9C8FB"/>
  <path d="M175.443 120.121C175.508 119.993 175.572 119.864 175.636 119.703C175.057 119.446 174.704 120.314 174.093 119.993C174.446 119.832 174.511 119.8 174.672 119.993C174.929 120.25 175.186 120.186 175.443 120.121Z" fill="#A9C8FB"/>
  <path d="M180.461 140.412C180.429 140.605 180.236 140.765 180.3 140.99C180.59 140.99 180.911 140.99 181.201 141.023C181.201 140.83 181.201 140.605 181.201 140.412C180.943 140.412 180.686 140.412 180.461 140.412Z" fill="#A9C8FB"/>
  <path d="M179.783 137.742C179.847 137.645 179.88 137.549 179.944 137.452C179.397 137.324 178.947 137.645 178.368 137.71C178.915 138.128 179.333 137.838 179.783 137.742Z" fill="#A9C8FB"/>
  <path d="M183.966 149.833C184.062 149.64 184.127 149.415 184.223 149.222C184.127 149.222 184.03 149.222 183.934 149.222C183.548 149.158 183.226 149.254 183.323 149.704C183.387 150.058 183.709 149.865 183.966 149.833Z" fill="#A9C8FB"/>
  <path d="M176.956 131.633C177.406 132.083 177.728 132.115 178.081 131.987C178.113 131.987 178.178 131.761 178.146 131.697C177.824 131.408 177.47 131.665 176.956 131.633Z" fill="#A9C8FB"/>
  <path d="M182.712 138.096C182.712 138.064 182.712 138 182.68 137.967C182.615 137.935 182.551 137.967 182.551 138.064C182.647 138.064 182.68 138.064 182.712 138.096Z" fill="#A9C8FB"/>
  <path d="M244.323 117.71C244.162 117.677 244.194 117.806 244.162 117.871C244.194 117.806 244.259 117.774 244.323 117.71Z" fill="#A9C8FB"/>
  <path d="M243.292 129.382C243.325 129.35 243.325 129.35 243.357 129.318C243.325 129.285 243.325 129.285 243.292 129.285C243.26 129.285 243.26 129.318 243.228 129.318C243.26 129.35 243.292 129.382 243.292 129.382Z" fill="#A9C8FB"/>
  <path d="M198.338 155.01C198.274 154.978 198.242 154.978 198.177 154.946C198.209 154.978 198.242 155.042 198.274 155.075C198.306 155.075 198.338 155.042 198.338 155.01Z" fill="#A9C8FB"/>
  <path d="M276.188 129.35C276.284 129.382 276.381 129.446 276.445 129.317C276.381 129.285 276.316 129.253 276.252 129.253C276.252 129.285 276.22 129.317 276.188 129.35Z" fill="#A9C8FB"/>
  <path d="M216.409 129.639C216.345 129.703 216.184 129.735 216.313 129.832C216.377 129.896 216.505 129.864 216.538 129.735C216.505 129.735 216.473 129.703 216.409 129.639Z" fill="#A9C8FB"/>
  <path d="M258.953 134.237C258.856 134.301 258.663 134.108 258.663 134.366C258.76 134.334 258.856 134.301 258.953 134.237Z" fill="#A9C8FB"/>
  <path d="M267.056 134.88C267.153 134.816 267.185 134.719 267.12 134.655C267.024 134.559 266.96 134.687 266.895 134.719C266.96 134.784 266.992 134.816 267.056 134.88Z" fill="#A9C8FB"/>
  <path d="M234.063 134.753C234.063 134.688 234.063 134.624 234.063 134.559C234.031 134.592 233.999 134.624 233.967 134.656C233.999 134.721 234.031 134.753 234.063 134.753Z" fill="#A9C8FB"/>
  <path d="M229.82 153.498C229.723 153.498 229.561 153.466 229.658 153.66C229.723 153.66 229.852 153.66 229.82 153.498Z" fill="#A9C8FB"/>
  <path d="M99.0197 109.717C102.566 109.717 105.44 109.477 105.44 109.182C105.44 108.886 102.566 108.647 99.0197 108.647C95.4737 108.647 92.5991 108.886 92.5991 109.182C92.5991 109.477 95.4737 109.717 99.0197 109.717Z" fill="#3558A2"/>
  <path d="M111.415 71.5798C111.475 74.2253 110.969 76.6033 110.167 78.7138L108.562 77.9112L109.81 79.5758C108.77 81.9538 107.343 83.9156 105.976 85.4613L105.47 83.4995V85.9964C103.3 88.2852 101.398 89.4742 101.398 89.4742C103.36 77.1681 111.415 71.5798 111.415 71.5798Z" fill="#3558A2"/>
  <path d="M102.349 86.918C102.349 86.918 97.0285 100.383 99.3767 118.248" stroke="#3558A2" stroke-width="0.297248" stroke-miterlimit="10"/>
  <path d="M98.8712 112.897C98.8712 112.897 100.506 89.7714 90.0132 80.2297" stroke="#3558A2" stroke-width="0.297248" stroke-miterlimit="10"/>
  <path d="M74.1104 76.6924C74.1104 76.6924 92.9856 72.6201 95.4825 88.4932C95.4825 88.4932 85.8814 78.1192 74.1104 76.6924Z" fill="#3558A2"/>
  <path d="M88.1405 82.9943L87.6649 85.0453C88.408 85.5209 89.2106 85.9965 90.0131 86.4126L90.3995 85.937V86.6207C92.0047 87.453 93.699 88.1367 95.4825 88.4934C95.4825 88.4934 92.8667 75.2658 74.1104 76.6926C74.1104 76.6926 75.8047 79.7245 79.3716 80.7352L80.5012 79.8137L79.7581 80.8244C79.8472 80.8541 79.9067 80.8541 79.9959 80.8838C82.0469 81.3 84.3951 82.9645 87.0406 84.6589L88.1405 82.9943Z" fill="#5982E0"/>
  <path d="M98.5737 117.207C98.5737 117.207 96.9389 94.0815 107.432 84.5398" stroke="#3558A2" stroke-width="0.297248" stroke-miterlimit="10"/>
  <path d="M123.335 81.0025C123.335 81.0025 104.459 76.9302 101.962 92.8032C101.962 92.8032 111.564 82.459 123.335 81.0025Z" fill="#3558A2"/>
  <path d="M109.304 87.3043L109.78 89.3553C109.037 89.8309 108.234 90.3065 107.432 90.7227L107.045 90.2471V90.9308C105.44 91.7631 103.746 92.4467 101.962 92.8034C101.962 92.8034 104.578 79.5759 123.335 81.0027C123.335 81.0027 121.64 84.0346 118.073 85.0452L116.944 84.1238L117.687 85.1344C117.598 85.1641 117.538 85.1641 117.449 85.1939C115.398 85.61 113.05 87.2746 110.404 88.9689L109.304 87.3043Z" fill="#5982E0"/>
  <path d="M99.614 80.2595C99.614 80.2595 98.2764 103.326 99.4356 111.144" stroke="#3558A2" stroke-width="0.297248" stroke-miterlimit="10"/>
  <path d="M101.516 82.786L102.824 83.113C103.151 82.1023 103.359 80.9728 103.538 79.7541L101.843 78.7732L103.597 79.3677C103.865 77.2869 104.013 75.117 104.429 73.393C104.548 72.8877 104.608 72.4121 104.637 71.9067L102.973 72.7985L104.637 71.0447C104.37 67.2399 101.546 64.208 101.546 64.208C99.8517 67.5372 98.8411 86.4124 99.1086 86.4124C100.862 86.3827 101.932 85.3721 102.586 83.8561L101.516 82.786Z" fill="#3558A2"/>
  <path d="M97.1469 72.3228L98.6926 72.2931L97.1172 72.739C97.1172 72.9768 97.1172 73.2146 97.1469 73.4524C97.2658 74.9981 97.2658 76.514 97.2361 77.9408L98.4251 77.9111L97.2064 78.7731C97.1469 82.7265 97.0577 85.7287 99.0493 86.3827L101.487 64.1782C101.516 64.1485 97.2955 66.7346 97.1469 72.3228Z" fill="#5982E0"/>
  <path d="M95.4824 82.9644C95.4824 82.9644 100.803 96.4297 98.4549 114.294" stroke="#3558A2" stroke-width="0.297248" stroke-miterlimit="10"/>
  <path d="M86.4164 67.6265C86.3569 70.272 86.8622 72.65 87.6648 74.7604L89.2699 73.9579L88.0215 75.6224C89.0619 78.0004 90.4887 79.9623 91.856 81.508L92.3613 79.5461V82.043C94.5312 84.3318 96.4336 85.5208 96.4336 85.5208C94.4718 73.2147 86.4164 67.6265 86.4164 67.6265Z" fill="#5982E0"/>
  <path d="M99.0197 109.717C95.4824 109.717 92.5991 109.479 92.5991 109.182L94.9474 118.634C94.9474 118.634 96.3147 119.229 99.1088 119.229C101.903 119.229 103.27 118.634 103.27 118.634L105.44 109.182C105.411 109.479 102.557 109.717 99.0197 109.717Z" fill="#5982E0"/>
  <path d="M71.5246 85.818H49.3796C49.1418 85.818 48.9337 85.8477 48.6959 85.8477C48.4878 85.818 48.2501 85.818 48.0123 85.818L17.2471 84.7776C14.4232 84.7776 12.6694 84.9857 12.6694 88.4635L12.1938 111.025C12.1938 113.284 14.4827 115.097 17.3362 115.097H48.042C48.2798 115.097 48.4878 115.067 48.7256 115.067C48.9337 115.097 49.1715 115.097 49.4093 115.097H71.5543C74.3782 115.097 76.6967 113.284 76.6967 111.025V89.8903C76.667 86.5611 74.3484 85.818 71.5246 85.818Z" fill="#7996E6"/>
  <path d="M13.0259 128.622H12.0153C11.0046 128.622 10.1724 127.789 10.1724 126.779C10.1724 125.768 11.0046 124.936 12.0153 124.936H13.0259C14.0366 124.936 14.8689 125.768 14.8689 126.779C14.8689 127.789 14.0366 128.622 13.0259 128.622Z" fill="#161616"/>
  <path d="M74.6755 128.622H75.6861C76.6967 128.622 77.529 127.789 77.529 126.779C77.529 125.768 76.6967 124.936 75.6861 124.936H74.6755C73.6648 124.936 72.8325 125.768 72.8325 126.779C72.8325 127.789 73.6648 128.622 74.6755 128.622Z" fill="#161616"/>
  <path d="M53.66 111.441H44.475H14.8691V126.036H44.475H53.66H74.4674V111.441H53.66Z" fill="#7996E6"/>
  <path d="M53.66 111.441H44.475H14.8691V113.135H44.475H53.66H74.4674V111.441H53.66Z" fill="#5982E0"/>
  <path d="M8.03209 109.449C8.03209 113.254 8.03209 126.036 8.03209 126.036H16.8901C16.8901 126.036 16.8901 110.4 16.8901 106.328C16.8901 102.256 11.6585 92.9518 6.36749 98.5698C2.91941 102.285 8.03209 105.644 8.03209 109.449Z" fill="#4E68BB"/>
  <path d="M60.2291 99.5212C60.2291 99.5212 58.9806 98.7483 58.7726 99.105C58.5645 99.4617 59.486 100.353 59.486 100.353C59.486 100.353 57.1377 105.882 58.8617 110.073C58.8617 110.073 57.8511 111.619 58.4753 111.5C59.0995 111.381 59.7535 110.995 59.7535 110.995C59.7535 110.995 64.3014 112.66 70.8408 112.124C70.8408 112.124 71.4651 112.6 71.9704 112.392C72.4757 112.184 71.4056 111.5 71.4056 111.5C71.4056 111.5 72.8324 106.744 71.0489 100.77C71.0489 100.77 71.8218 99.9373 71.5542 99.5806C71.2867 99.2239 70.2463 99.9373 70.2463 99.9373C70.2463 99.9373 65.0445 97.6782 60.2291 99.5212Z" fill="#FDC6BD"/>
  <path d="M79.669 109.449C79.669 113.254 79.669 126.036 79.669 126.036H70.811C70.811 126.036 70.811 110.4 70.811 106.328C70.811 102.256 76.0426 92.9518 81.3336 98.5698C84.7817 102.285 79.669 105.644 79.669 109.449Z" fill="#4E68BB"/>
  <path d="M49.6767 123.866C45.9908 121.012 43.4642 118.842 42.0671 117.356C39.6594 114.829 37.6678 112.57 36.9842 111.679C35.379 109.568 38.6785 107.666 39.7189 108.587C41.324 109.984 45.0991 114.621 51.044 122.528L49.6767 123.866Z" fill="#E8A16D"/>
  <path d="M43.5235 124.193L35.1113 111.916C33.417 109.717 38.5892 106.833 39.689 107.785C42.1859 109.955 49.0523 119.169 49.7954 119.823L43.5235 124.193Z" fill="#5982E0"/>
  <path d="M28.6518 124.694C29.354 122.93 31.9799 116.947 33.5877 114.348C34.0377 113.603 34.4922 112.9 34.928 112.22C36.1979 110.227 40.0625 112.209 38.7563 114.058C35.5398 118.644 30.73 124.962 30.3415 125.489C29.7704 126.289 28.1995 125.82 28.6518 124.694Z" fill="#E8A16D"/>
  <path d="M28.7327 123.974C28.4434 124.356 28.265 124.665 28.1868 124.86C28.1045 125.121 28.0291 125.49 27.9566 126.031C28.2438 126.128 30.9499 126.97 36.0236 128.526C36.4467 127.913 36.4448 127.5 36.0181 127.288C35.5913 127.075 35.227 126.934 34.9289 126.796L31.6896 123.965C31.6273 123.894 31.5461 123.916 31.4757 123.979L31.0458 124.485C30.5625 124.55 30.1902 124.541 29.9288 124.458C29.7189 124.406 29.4505 124.217 29.1347 123.931C29.0358 123.805 28.8625 123.808 28.7327 123.974C28.7475 123.948 28.7475 123.948 28.7327 123.974Z" fill="white"/>
  <path d="M48.309 123.628C48.2496 124.104 48.2496 124.46 48.2793 124.668C48.3387 124.936 48.4576 125.293 48.6657 125.798C48.963 125.738 51.7274 125.114 56.8995 123.925C56.9589 123.182 56.7509 122.825 56.2753 122.855C55.7997 122.915 55.4132 122.944 55.0863 122.974L50.8653 122.142C50.7762 122.112 50.7167 122.171 50.687 122.261L50.5681 122.915C50.1817 123.212 49.8547 123.39 49.5872 123.45C49.3791 123.509 49.0521 123.479 48.636 123.39C48.5171 123.331 48.3387 123.45 48.309 123.628C48.309 123.628 48.309 123.598 48.309 123.628Z" fill="white"/>
  <path d="M33.3577 113.016C28.7504 113.284 25.6293 113.492 24.0539 113.551C19.5654 113.759 17.7819 111.738 17.3955 106.507L25.332 104.693C26.4616 104.753 31.277 105.645 39.808 107.339C41.3537 107.725 41.5618 109.806 41.4429 110.549C41.4429 110.579 39.9864 115.127 37.1328 124.223L29.7016 121.547L33.4766 113.492C33.5361 113.165 33.5064 113.016 33.3577 113.016Z" fill="#3558A2"/>
  <path d="M23.3035 79.4569C22.5604 77.5545 20.658 76.9303 19.0826 77.287L18.7853 77.3464C17.0613 77.7328 15.9614 79.4569 16.3479 81.2106L16.4073 81.5079C16.3776 81.3295 16.3479 81.1512 16.2884 80.9729C16.4073 80.7945 16.4965 80.6459 16.6154 80.4973L16.5857 80.3784C16.9721 78.7138 17.7449 77.7626 18.8745 77.495C20.5688 77.1086 21.2822 77.7923 21.8767 78.3571C21.7875 79.6055 20.5093 80.0811 19.4987 81.062C19.3203 80.9728 19.142 80.9431 18.9636 81.0026C18.5178 81.0917 18.2503 81.5376 18.3394 81.9835C18.4286 82.4294 18.8745 82.6969 19.3204 82.6077H19.3501C19.8851 84.2426 20.2715 86.145 19.9446 86.7989C20.1229 86.7989 20.8066 88.731 20.9849 88.7013L21.6389 88.5527L24.433 91.1387C25.0275 90.3064 25.0572 83.113 23.3035 79.4569Z" fill="#161616"/>
  <path d="M18.5254 83.3212C17.6633 82.6969 17.0094 81.8052 16.831 80.7054C16.3554 77.5248 20.8439 77.2276 22.0626 78.6246C23.2813 80.0217 24.0839 84.0345 23.0435 84.5696C22.6274 84.7777 21.6465 84.7182 20.5764 84.3615L22.1221 88.4338L18.6145 89.2364L18.5254 83.3212Z" fill="#E8A16D"/>
  <path d="M19.3576 82.578H19.3278C18.882 82.6672 18.4361 82.3996 18.3469 81.9538C18.2577 81.5079 18.5253 81.062 18.9711 80.9729C19.1495 80.9431 19.3576 80.9431 19.5062 81.0323C20.5168 80.0514 21.795 79.5758 21.8842 78.3273C21.2897 77.7626 20.5763 77.1086 18.882 77.4653C17.7524 77.7328 16.9796 78.684 16.5931 80.3486L16.6229 80.4675C16.504 80.6161 16.4148 80.7945 16.2959 80.9431C16.3256 81.1512 16.3851 81.3295 16.4148 81.4782L17.039 84.2426C17.366 85.6694 17.6632 85.7883 18.5847 86.353C18.8522 85.7288 19.8926 84.2129 19.3576 82.578Z" fill="#161616"/>
  <path d="M22.9541 80.646C23.2513 80.9432 23.7864 81.4188 23.9053 81.8647C23.9945 82.1917 23.5189 82.37 23.3405 82.5781" fill="#E8A16D"/>
  <path d="M22.6866 80.319C22.5083 80.4081 22.3299 80.4379 22.1813 80.4973C22.0327 80.5568 21.9138 80.6162 21.7949 80.7946C21.7651 80.7054 21.7949 80.5865 21.8543 80.4973C21.9138 80.4081 22.0029 80.3487 22.0921 80.2892C22.2705 80.2298 22.4785 80.2595 22.6866 80.319Z" fill="#161616"/>
  <path d="M22.5381 83.321C22.6867 83.2319 22.8651 83.2319 23.0137 83.2021C23.1623 83.2021 23.3109 83.2021 23.4893 83.2319C23.3704 83.3805 23.192 83.4102 23.0137 83.4102C22.8353 83.4399 22.6867 83.4102 22.5381 83.321Z" fill="#161616"/>
  <path d="M22.5382 81.062C22.6367 81.062 22.7165 80.9822 22.7165 80.8837C22.7165 80.7852 22.6367 80.7053 22.5382 80.7053C22.4397 80.7053 22.3599 80.7852 22.3599 80.8837C22.3599 80.9822 22.4397 81.062 22.5382 81.062Z" fill="#161616"/>
  <path d="M25.8672 91.5549L30.3259 87.6312C30.9501 86.4422 31.6041 85.4613 32.2877 84.7181C32.5255 84.5695 32.9417 84.3912 32.7039 85.2235C32.4661 86.0558 32.2283 86.9178 32.4958 87.0961C32.7633 87.2745 33.2092 86.8286 33.5362 87.1556C33.7443 87.3637 32.9714 87.9581 31.1285 88.9391L28.1857 93.1303L25.8672 91.5549Z" fill="#E8A16D"/>
  <path d="M23.2513 91.4953C25.0348 91.0792 27.2939 90.1577 29.4638 87.9878L30.95 89.9794C29.6124 92.0898 27.4722 94.0814 25.3023 94.4975C23.608 94.8245 22.3001 92.9816 23.2513 91.4953Z" fill="#B6CFFB"/>
  <path d="M25.3486 95.387L25.3484 95.387C23.7739 95.6909 22.5616 94 23.3999 92.6174C25.1654 92.1981 27.3819 91.2867 29.5194 89.19L30.868 90.9971C29.5357 93.0677 27.4446 94.985 25.3486 95.387Z" stroke="#FB9175" stroke-width="0.25"/>
  <path d="M30.4746 89.6822C31.515 89.9795 33.9821 91.3171 33.9821 91.3171L36.5979 84.8371C35.944 84.2426 32.8229 83.7075 32.8229 83.7075L30.4746 89.6822Z" fill="#FDC6BD"/>
  <path d="M40.8781 85.9962C40.8781 85.9962 39.5703 84.8667 36.8653 84.8667L34.2495 91.317C34.2495 91.317 37.3112 91.7034 38.0543 92.506L40.8781 85.9962Z" fill="#FB9175"/>
  <path d="M40.6404 85.9964C40.6404 85.9964 39.3622 84.8074 36.6275 84.8074L34.0117 91.2874C34.0117 91.2874 37.0734 91.6738 37.8165 92.4764L40.6404 85.9964Z" fill="#FB9175"/>
  <path d="M33.209 84.8964C33.5954 84.837 33.9818 84.8667 34.3385 84.9856C34.6952 85.1045 35.0519 85.2828 35.3194 85.5504C34.9627 85.372 34.6358 85.2234 34.2791 85.1342C33.9521 85.0153 33.5954 84.9559 33.209 84.8964Z" fill="#8AB8F9"/>
  <path d="M34.1306 85.6395C33.7739 85.5206 33.4172 85.4612 33.0308 85.4017C33.4172 85.3423 33.8036 85.4017 34.1603 85.5206C34.517 85.6395 34.8737 85.8179 35.1412 86.0854C34.8143 85.9071 34.4576 85.7287 34.1306 85.6395Z" fill="#8AB8F9"/>
  <path d="M33.9226 86.1151C33.5659 85.9962 33.2092 85.907 32.8228 85.8475C33.2092 85.7881 33.5956 85.8475 33.9523 85.9664C34.309 86.0853 34.6657 86.2934 34.9332 86.5609C34.6063 86.3826 34.2793 86.234 33.9226 86.1151Z" fill="#8AB8F9"/>
  <path d="M33.7439 86.6204C33.3872 86.5015 33.0305 86.4123 32.6738 86.3529C33.0603 86.3232 33.4467 86.3529 33.8034 86.5015C34.1601 86.6204 34.5168 86.8285 34.7843 87.096C34.4276 86.8879 34.1006 86.7393 33.7439 86.6204Z" fill="#8AB8F9"/>
  <path d="M33.5657 87.0961C33.209 86.9772 32.8523 86.888 32.4956 86.7988C32.882 86.7691 33.2684 86.8286 33.6251 86.9475C33.9818 87.0664 34.3088 87.2744 34.5763 87.5717C34.2196 87.3933 33.8927 87.2447 33.5657 87.0961Z" fill="#8AB8F9"/>
  <path d="M33.3577 87.6013C33.001 87.4527 32.6443 87.3635 32.2876 87.3041C32.674 87.2743 33.0604 87.3338 33.4171 87.4824C33.7738 87.631 34.1008 87.8391 34.3683 88.1066C34.0414 87.8986 33.7144 87.7202 33.3577 87.6013Z" fill="#8AB8F9"/>
  <path d="M33.1795 88.1067C32.8228 87.958 32.4661 87.8689 32.1094 87.7797C32.4958 87.75 32.8822 87.8391 33.2389 87.958C33.5956 88.1067 33.9226 88.3147 34.1901 88.612C33.8631 88.4039 33.5362 88.2256 33.1795 88.1067Z" fill="#8AB8F9"/>
  <path d="M33.0008 88.5824C32.6738 88.4338 32.3171 88.3446 31.9307 88.2555C32.3171 88.2257 32.7035 88.3149 33.0602 88.4635C33.4169 88.6121 33.7439 88.8202 33.9817 89.1175C33.6547 88.9094 33.3277 88.731 33.0008 88.5824Z" fill="#8AB8F9"/>
  <path d="M32.8225 89.0877C32.4956 88.9391 32.1389 88.8202 31.7524 88.731C32.1389 88.7013 32.5253 88.7905 32.882 88.9391C33.2387 89.0877 33.5657 89.3255 33.8035 89.6228C33.4765 89.4147 33.1495 89.2364 32.8225 89.0877Z" fill="#8AB8F9"/>
  <path d="M31.5742 89.2065C31.9606 89.2065 32.3471 89.2957 32.7038 89.4443C33.0605 89.593 33.3874 89.8308 33.6252 90.128C33.2982 89.9199 33.001 89.7416 32.6443 89.593C32.2876 89.4146 31.9309 89.3254 31.5742 89.2065Z" fill="#8AB8F9"/>
  <path d="M34.1011 93.606L36.0629 91.882C36.0926 90.6335 36.3304 89.9499 36.7763 89.831C37.0736 89.5932 36.8357 91.228 37.4302 90.9605C38.0247 90.693 39.3326 89.177 39.6299 89.3554C40.1055 89.6229 39.9866 90.7524 39.6893 91.3767C39.1246 92.5359 38.5598 93.0115 37.1033 93.8141C36.3304 94.2302 35.5279 94.8842 34.7253 95.8056L34.1011 93.606Z" fill="#E8A16D"/>
  <path d="M26.4323 94.4978C28.4238 94.5275 31.4558 93.279 35.5578 90.693C37.1629 92.7143 38.0547 94.2302 38.1736 95.2112C34.8147 98.0647 31.753 99.6996 29.0778 100.354C29.5237 101.929 29.6723 103.504 29.3453 105.02C28.6617 108.171 20.1901 107.309 17.6635 108.439C14.7801 103.445 17.4851 100.532 16.7123 97.0838C15.8503 93.3088 17.5743 86.8288 18.0202 86.7396L22.0627 85.8181C22.9545 88.6717 24.7974 91.5847 26.4323 94.4978Z" fill="#76ADF8"/>
  <path d="M26.0249 95.7408L26.0601 95.8036L26.1321 95.8046C27.1524 95.8199 28.4265 95.5082 29.9533 94.8736C31.458 94.2482 33.2163 93.3055 35.2311 92.0404C35.9981 93.0118 36.595 93.8616 37.0166 94.5869C37.432 95.3015 37.6717 95.8861 37.742 96.3421C34.4134 99.16 31.3867 100.769 28.7498 101.414L28.6239 101.445L28.6592 101.569C29.1012 103.131 29.2463 104.685 28.9248 106.176C28.7669 106.903 28.1572 107.417 27.2413 107.791C26.3274 108.164 25.1391 108.386 23.8814 108.545C23.1245 108.641 22.351 108.714 21.6007 108.785C21.1018 108.832 20.6132 108.878 20.1466 108.929C19.0493 109.049 18.0729 109.198 17.4185 109.462C16.0477 107.04 16.0081 105.12 16.2222 103.379C16.2764 102.937 16.347 102.507 16.417 102.081L16.4176 102.077C16.4876 101.651 16.5569 101.228 16.6073 100.807C16.708 99.964 16.7335 99.1197 16.5359 98.2384L16.5358 98.2379C16.1106 96.3758 16.3222 93.8325 16.7004 91.7336C16.8892 90.6862 17.1184 89.7549 17.3275 89.0816C17.4322 88.7444 17.531 88.4749 17.616 88.2886C17.6587 88.195 17.6961 88.1266 17.7269 88.082C17.742 88.0604 17.7532 88.0476 17.7603 88.0409L21.68 87.1475C22.4193 89.4523 23.7654 91.7953 25.1074 94.1313C25.4159 94.6684 25.7243 95.2051 26.0249 95.7408Z" stroke="#FB9175" stroke-width="0.25"/>
  <path d="M199.844 128.425H213.291L215.04 149.983H195.05L199.844 128.425Z" fill="#BCD3FC"/>
  <path d="M199.844 128.425H203.975L206.447 149.983H195.05L199.844 128.425Z" fill="#9FC3FC"/>
  <path d="M228.579 124.717C229.996 123.842 232.408 124.958 232.408 126.194C232.408 129.872 229.061 147.209 228.88 148.295C228.699 149.38 226.83 149.682 226.709 148.295C226.528 146.094 226.227 138.496 226.528 134.968C226.649 133.521 226.8 132.134 226.95 130.898C225.202 134.094 222.458 138.646 218.78 144.556L216.79 143.651C218.357 138.465 219.654 134.817 220.649 132.676C222.367 129.028 223.996 125.892 224.659 124.807C225.744 123.088 227.614 123.691 228.579 124.717Z" fill="#7A380C"/>
  <path d="M216.94 140.788L223.814 124.506C225.473 121.853 230.086 125.049 229.513 126.587C228.247 130.084 221.764 141.361 221.372 142.386L216.94 140.788Z" fill="#FB9175"/>
  <path d="M216.552 142.631C216.139 142.985 215.839 143.264 215.703 143.499C215.552 143.76 215.363 144.208 215.14 144.775C215.453 144.956 218.273 146.584 223.626 149.675C224.257 149.064 224.379 148.612 223.913 148.274C223.473 147.95 223.112 147.672 222.828 147.439L219.896 143.413C219.832 143.341 219.739 143.322 219.641 143.37L219.019 143.846C218.454 143.799 218.028 143.692 217.767 143.542C217.532 143.406 217.29 143.162 217.004 142.753C216.949 142.547 216.721 142.52 216.552 142.631Z" fill="#E5E5E5"/>
  <path d="M226.287 147.421C226.106 147.933 225.985 148.325 225.985 148.597C225.985 148.898 226.046 149.381 226.136 149.984C226.498 149.984 229.754 149.984 235.935 149.984C236.176 149.139 236.056 148.687 235.483 148.627C234.94 148.567 234.488 148.506 234.126 148.446L229.573 146.426C229.483 146.396 229.392 146.426 229.332 146.516L229.031 147.24C228.518 147.481 228.096 147.602 227.794 147.602C227.523 147.602 227.191 147.511 226.739 147.3C226.588 147.149 226.377 147.24 226.287 147.421Z" fill="#E5E5E5"/>
  <path d="M232.89 127.461C232.89 132.074 230.689 142.838 230.689 143.863H225.985C226.679 134.245 226.92 129.39 226.709 129.3C226.407 129.149 214.347 130.506 210.759 130.506C205.543 130.506 203.402 127.219 203.221 121.129H213.533C215.643 121.34 226.588 123.571 230.659 124.325C232.407 124.657 232.89 126.194 232.89 127.461Z" fill="#FDC6BD"/>
  <path d="M209.19 95.5906C208.376 94.6559 207.833 93.5102 207.924 92.2137C208.195 88.5051 213.351 89.3192 214.376 91.1886C215.371 93.0579 215.25 97.8218 213.954 98.1535C213.441 98.2741 212.326 97.9726 211.21 97.2791L211.904 102.284H207.773L209.19 95.5906Z" fill="#7A380C"/>
  <path d="M214.799 92.0331C214.769 91.7919 214.648 91.5206 214.588 91.2793C214.497 90.9778 214.316 90.7065 214.136 90.4653C213.804 89.9828 213.412 89.5607 212.99 89.1989C212.206 88.5356 211.181 88.1738 210.186 88.2944C209.673 88.3547 209.191 88.5356 208.769 88.8673C208.407 89.1688 208.045 89.5909 207.532 89.621C206.99 89.6512 206.507 89.1989 206.085 88.8974C205.603 88.5657 205.09 88.3245 204.548 88.2341C203.613 88.0833 202.738 88.3848 202.075 89.1688C201.382 89.9828 200.899 91.1889 201.351 92.2743C201.442 92.4854 201.532 92.6361 201.713 92.7869C201.864 92.9075 202.075 93.0583 202.135 93.2693C202.196 93.4804 202.015 93.7819 201.954 93.9628C201.864 94.2342 201.774 94.5357 201.804 94.8673C201.864 95.3799 202.166 95.8623 202.497 96.194C202.829 96.5256 203.251 96.7367 203.703 96.8271C204.005 96.8874 204.306 96.9176 204.608 96.8874C204.759 96.8874 204.879 96.8271 205.03 96.797C205.181 96.7668 205.241 96.797 205.362 96.8874C205.934 97.2493 206.537 97.4 207.171 97.3397C207.713 97.2794 208.347 97.1588 208.799 96.797C209.281 96.3749 209.281 95.802 209.161 95.199C209.281 95.2593 209.613 95.2894 209.432 95.0482C209.342 94.9578 209.191 94.8975 209.1 94.8673C208.98 94.807 208.859 94.7166 208.769 94.596C208.377 94.1739 208.769 93.2693 209.251 93.1186C209.975 92.9075 210.125 93.9025 210.638 94.1738C210.94 94.3246 211.241 94.1135 211.452 93.9025C211.754 93.6311 211.935 93.2392 212.115 92.8774C212.266 92.5758 212.387 92.2442 212.538 91.9427C212.598 91.7919 212.839 91.4 212.718 91.219C213.231 91.1286 213.804 91.3396 214.226 91.611C214.407 91.7316 214.558 91.8522 214.648 92.0633C214.678 92.0934 214.708 92.2442 214.769 92.2442C214.829 92.214 214.799 92.0934 214.799 92.0331Z" fill="#161616"/>
  <path d="M214.889 93.9329C214.919 94.2645 215.281 94.7168 215.432 95.0183C215.522 95.1992 215.673 95.3801 215.703 95.561C215.764 95.7721 215.733 95.8324 215.643 95.953C215.432 96.1942 215.04 96.3148 214.769 96.4656" fill="#7A380C"/>
  <path d="M214.859 93.6916C214.618 93.7217 214.437 93.6916 214.256 93.6916C214.075 93.6916 213.954 93.6916 213.743 93.8122C213.743 93.6916 213.803 93.571 213.924 93.5107C214.045 93.4202 214.165 93.4202 214.286 93.4202C214.527 93.3901 214.708 93.4805 214.859 93.6916Z" fill="#161616"/>
  <path d="M214.437 94.355C214.554 94.355 214.648 94.2605 214.648 94.1439C214.648 94.0274 214.554 93.9329 214.437 93.9329C214.321 93.9329 214.226 94.0274 214.226 94.1439C214.226 94.2605 214.321 94.355 214.437 94.355Z" fill="#161616"/>
  <path d="M214.648 97.3395C214.558 97.3696 214.437 97.3696 214.347 97.3395C214.256 97.3093 214.166 97.2792 214.075 97.2189C213.894 97.1284 213.744 96.9777 213.623 96.7968L213.653 96.8269C213.683 96.8571 213.774 96.8571 213.834 96.8269L213.894 96.7666V96.646L213.864 96.6158L213.834 96.5857C213.955 96.6761 214.105 96.7365 214.256 96.7666C214.407 96.8269 214.588 96.8571 214.769 96.9174C214.588 96.9777 214.407 97.0078 214.226 97.0078C214.045 97.0078 213.834 96.9475 213.683 96.8571L213.653 96.8269V96.7063L213.713 96.646C213.744 96.6158 213.864 96.6158 213.894 96.646V96.6761C213.985 96.7968 214.105 96.9475 214.226 97.0681C214.317 97.1586 214.467 97.2792 214.648 97.3395Z" fill="#161616"/>
  <path d="M207.534 98.9674C207.564 98.8468 207.624 98.696 207.654 98.5754L207.805 98.6357C207.835 98.6056 207.865 98.5754 207.865 98.5754L212.72 99.3292C212.72 102.073 214.89 104.636 216.277 106.837C218.418 110.274 222.217 114.043 219.775 119.138C217.574 123.721 211.845 124.475 202.589 121.37C202.589 118.897 204.609 116.425 204.669 113.41C204.79 110.545 205.302 101.892 207.534 98.9674Z" fill="#3558A2"/>
  <path d="M213.594 117.842C213.926 116.153 214.137 115.038 214.227 114.465C216.82 117.39 218.328 118.867 218.72 118.897C219.474 118.957 220.047 118.294 220.197 118.475C220.469 119.259 219.715 121.219 218.298 121.49C217.604 121.641 216.579 120.224 216.127 119.741C215.946 119.56 215.102 118.927 213.594 117.842ZM218.057 108.887C218.72 108.887 219.082 109.158 219.474 109.731C219.866 110.304 220.258 112.927 219.594 112.927C218.931 112.927 216.278 111.902 216.278 111.209C216.278 110.515 218.087 110.244 218.087 109.701C218.147 109.219 217.393 108.887 218.057 108.887Z" fill="#7A380C"/>
  <path d="M212.238 120.405C212.207 120.556 212.147 120.706 212.117 120.827C204.519 115.52 204.489 109.068 206.78 101.832C205.062 108.947 205.755 114.948 212.238 120.405Z" fill="#2F4077"/>
  <path d="M206.673 99.0738L206.695 99.0451L206.703 99.0101C206.717 98.9576 206.737 98.8966 206.76 98.827L206.761 98.8234C206.763 98.8186 206.764 98.8137 206.766 98.8089L206.847 98.8413L206.926 98.7622L211.547 99.4797C211.584 100.842 212.13 102.15 212.826 103.373C213.272 104.157 213.791 104.924 214.283 105.651C214.582 106.094 214.872 106.522 215.129 106.93C215.487 107.505 215.894 108.092 216.307 108.689C216.513 108.987 216.721 109.288 216.925 109.591C217.543 110.505 218.136 111.448 218.585 112.438C219.482 114.413 219.811 116.573 218.617 119.063C217.546 121.293 215.62 122.597 212.805 122.964C210.004 123.329 206.328 122.763 201.766 121.244C201.797 120.129 202.239 119.004 202.719 117.786C202.736 117.743 202.752 117.7 202.769 117.658C203.281 116.356 203.813 114.958 203.844 113.415C203.904 111.985 204.062 109.114 204.483 106.237C204.694 104.798 204.969 103.361 205.33 102.104C205.692 100.843 206.135 99.7789 206.673 99.0738Z" fill="#3558A2" stroke="#FB9175" stroke-width="0.35"/>
  <path d="M213.594 117.842C213.926 116.154 214.137 115.038 214.227 114.465C216.82 117.39 218.328 118.867 218.72 118.897C219.474 118.958 220.047 118.294 220.197 118.475C220.469 119.259 219.715 121.219 218.298 121.49C217.604 121.641 216.579 120.224 216.127 119.742C215.946 119.561 215.102 118.928 213.594 117.842ZM218.057 108.887C218.72 108.887 219.082 109.159 219.474 109.731C219.866 110.304 220.258 112.927 219.594 112.927C218.931 112.927 216.278 111.902 216.278 111.209C216.278 110.515 218.087 110.244 218.087 109.701C218.147 109.219 217.393 108.887 218.057 108.887Z" fill="#7A380C"/>
  <path d="M205.264 111.783C206.036 114.869 207.829 117.742 211.042 120.469C211.035 120.494 211.028 120.519 211.02 120.544C207.382 117.949 205.56 115.092 204.911 112.017C204.531 110.212 204.553 108.324 204.858 106.36C204.718 108.238 204.828 110.042 205.264 111.783Z" fill="#2F4077" stroke="#FB9175" stroke-width="0.35"/>
  <path d="M226.8 117.722C226.227 117.722 225.774 118.566 225.774 119.621C225.774 119.772 225.774 119.893 225.774 120.044C225.774 120.436 225.774 120.827 225.774 121.189C225.774 121.792 225.774 122.395 225.774 122.998C225.774 123.782 225.774 124.566 225.774 125.35C225.774 126.285 225.774 127.22 225.774 128.154C225.774 129.209 225.774 130.265 225.774 131.32C225.774 132.466 225.774 133.581 225.774 134.727C225.774 135.903 225.774 137.109 225.774 138.285C225.774 139.491 225.774 140.697 225.774 141.903C225.774 143.079 225.774 144.285 225.774 145.461C225.774 146.607 225.774 147.752 225.774 148.868C225.774 149.923 225.774 150.979 225.774 152.034C225.774 152.969 225.774 153.903 225.774 154.868C225.774 155.652 225.774 156.466 225.774 157.25C225.774 157.853 225.774 158.456 225.774 159.089C225.774 159.481 225.774 159.873 225.774 160.265C225.774 160.506 225.774 160.748 225.774 160.989C225.805 161.26 225.985 161.381 226.136 161.441C226.347 161.562 226.589 161.592 226.8 161.592C226.98 161.592 227.192 161.562 227.372 161.471C227.493 161.411 227.734 161.32 227.795 161.109C227.795 161.079 227.825 161.019 227.825 160.989C227.855 160.717 227.825 160.476 227.825 160.205C227.825 159.813 227.825 159.451 227.825 159.059C227.825 158.486 227.825 157.883 227.825 157.31C227.825 156.557 227.825 155.803 227.825 155.049C227.825 154.144 227.825 153.24 227.825 152.366C227.825 151.371 227.825 150.345 227.825 149.35C227.825 148.265 227.825 147.18 227.825 146.064C227.825 144.918 227.825 143.772 227.825 142.627C227.825 141.451 227.825 140.305 227.825 139.129C227.825 137.983 227.825 136.808 227.825 135.662C227.825 134.546 227.825 133.431 227.825 132.315C227.825 131.26 227.825 130.204 227.825 129.179C227.825 128.245 227.825 127.28 227.825 126.345C227.825 125.531 227.825 124.717 227.825 123.873C227.825 123.209 227.825 122.546 227.825 121.883C227.825 121.4 227.825 120.948 227.825 120.466C227.825 120.224 227.825 119.953 227.825 119.712C227.825 119.682 227.825 119.652 227.825 119.591C227.825 118.566 227.372 117.722 226.8 117.722Z" fill="#4E68BB"/>
  <path d="M259.575 111.39C259.002 111.39 258.55 112.235 258.55 113.29C258.55 113.441 258.55 113.561 258.55 113.712C258.55 114.104 258.55 114.496 258.55 114.858C258.55 115.461 258.55 116.064 258.55 116.667C258.55 117.451 258.55 118.235 258.55 119.019C258.55 119.953 258.55 120.888 258.55 121.823C258.55 122.878 258.55 123.933 258.55 124.989C258.55 126.134 258.55 127.25 258.55 128.396C258.55 129.571 258.55 130.778 258.55 131.953C258.55 133.159 258.55 134.366 258.55 135.572C258.55 136.747 258.55 137.953 258.55 139.129C258.55 140.275 258.55 141.421 258.55 142.536C258.55 143.592 258.55 144.647 258.55 145.702C258.55 146.637 258.55 147.572 258.55 148.537C258.55 149.32 258.55 150.135 258.55 150.918C258.55 151.521 258.55 152.125 258.55 152.758C258.55 153.15 258.55 153.542 258.55 153.934C258.55 154.175 258.55 154.416 258.55 154.657C258.58 154.929 258.761 155.049 258.912 155.109C259.123 155.23 259.364 155.26 259.575 155.26C259.756 155.26 259.967 155.23 260.148 155.14C260.268 155.079 260.51 154.989 260.57 154.778C260.57 154.748 260.6 154.687 260.6 154.657C260.63 154.386 260.6 154.145 260.6 153.873C260.6 153.481 260.6 153.119 260.6 152.728C260.6 152.155 260.6 151.552 260.6 150.979C260.6 150.225 260.6 149.471 260.6 148.717C260.6 147.813 260.6 146.908 260.6 146.034C260.6 145.039 260.6 144.014 260.6 143.019C260.6 141.933 260.6 140.848 260.6 139.732C260.6 138.587 260.6 137.441 260.6 136.295C260.6 135.119 260.6 133.974 260.6 132.798C260.6 131.652 260.6 130.476 260.6 129.33C260.6 128.215 260.6 127.099 260.6 125.984C260.6 124.928 260.6 123.873 260.6 122.848C260.6 121.913 260.6 120.948 260.6 120.014C260.6 119.2 260.6 118.385 260.6 117.541C260.6 116.878 260.6 116.215 260.6 115.551C260.6 115.069 260.6 114.617 260.6 114.134C260.6 113.893 260.6 113.622 260.6 113.38C260.6 113.35 260.6 113.32 260.6 113.26C260.6 112.235 260.148 111.39 259.575 111.39Z" fill="#4E68BB"/>
  <path d="M296.539 115.039C296.539 119.41 279.896 122.938 259.393 122.938C238.89 122.938 222.247 119.41 222.247 115.039V116.003C222.247 120.375 238.83 123.903 259.333 123.903C279.836 123.903 295.936 120.556 296.6 116.245L296.539 115.039Z" fill="#4E68BB"/>
  <path d="M259.333 122.998C279.848 122.998 296.479 119.462 296.479 115.099C296.479 110.736 279.848 107.199 259.333 107.199C238.818 107.199 222.187 110.736 222.187 115.099C222.187 119.462 238.818 122.998 259.333 122.998Z" fill="#DAE6FD"/>
  <path d="M258.367 120.224C262.197 120.224 265.302 119.657 265.302 118.958C265.302 118.259 262.197 117.692 258.367 117.692C254.537 117.692 251.432 118.259 251.432 118.958C251.432 119.657 254.537 120.224 258.367 120.224Z" fill="white"/>
  <path d="M258.366 120.043C262.046 120.043 265.029 119.53 265.029 118.897C265.029 118.265 262.046 117.752 258.366 117.752C254.686 117.752 251.703 118.265 251.703 118.897C251.703 119.53 254.686 120.043 258.366 120.043Z" fill="#A9C8FB"/>
  <path d="M265.302 118.958C265.302 119.651 262.196 120.224 258.367 120.224C254.538 120.224 251.432 119.651 251.432 118.958C251.432 120.133 254.538 121.038 258.367 121.038C262.196 121.038 265.302 120.164 265.302 118.958Z" fill="#8AB8F9"/>
  <path d="M234.154 117.058C237.984 117.058 241.089 116.491 241.089 115.792C241.089 115.092 237.984 114.525 234.154 114.525C230.325 114.525 227.22 115.092 227.22 115.792C227.22 116.491 230.325 117.058 234.154 117.058Z" fill="white"/>
  <path d="M234.153 116.877C237.833 116.877 240.817 116.364 240.817 115.731C240.817 115.099 237.833 114.586 234.153 114.586C230.473 114.586 227.49 115.099 227.49 115.731C227.49 116.364 230.473 116.877 234.153 116.877Z" fill="#A9C8FB"/>
  <path d="M241.089 115.792C241.089 116.485 237.983 117.058 234.154 117.058C230.325 117.058 227.219 116.485 227.219 115.792C227.219 116.968 230.325 117.872 234.154 117.872C237.983 117.872 241.089 116.998 241.089 115.792Z" fill="#8AB8F9"/>
  <path d="M243.2 111.54C247.03 111.54 250.135 110.973 250.135 110.274C250.135 109.574 247.03 109.007 243.2 109.007C239.37 109.007 236.265 109.574 236.265 110.274C236.265 110.973 239.37 111.54 243.2 111.54Z" fill="white"/>
  <path d="M243.199 111.358C246.879 111.358 249.862 110.845 249.862 110.213C249.862 109.58 246.879 109.067 243.199 109.067C239.519 109.067 236.536 109.58 236.536 110.213C236.536 110.845 239.519 111.358 243.199 111.358Z" fill="#A9C8FB"/>
  <path d="M250.134 110.273C250.134 110.966 247.029 111.539 243.199 111.539C239.37 111.539 236.265 110.966 236.265 110.273C236.265 111.449 239.37 112.353 243.199 112.353C247.029 112.353 250.134 111.509 250.134 110.273Z" fill="#8AB8F9"/>
  <path d="M279.834 118.264C283.664 118.264 286.768 117.697 286.768 116.998C286.768 116.298 283.664 115.731 279.834 115.731C276.004 115.731 272.899 116.298 272.899 116.998C272.899 117.697 276.004 118.264 279.834 118.264Z" fill="white"/>
  <path d="M279.833 118.084C283.513 118.084 286.497 117.571 286.497 116.938C286.497 116.305 283.513 115.792 279.833 115.792C276.153 115.792 273.17 116.305 273.17 116.938C273.17 117.571 276.153 118.084 279.833 118.084Z" fill="#A9C8FB"/>
  <path d="M286.768 116.998C286.768 117.692 283.663 118.264 279.834 118.264C276.004 118.264 272.899 117.692 272.899 116.998C272.899 118.174 276.004 119.078 279.834 119.078C283.663 119.078 286.768 118.204 286.768 116.998Z" fill="#8AB8F9"/>
  <path d="M270.278 111.631C274.107 111.631 277.212 111.064 277.212 110.364C277.212 109.665 274.107 109.098 270.278 109.098C266.448 109.098 263.343 109.665 263.343 110.364C263.343 111.064 266.448 111.631 270.278 111.631Z" fill="white"/>
  <path d="M270.277 111.449C273.957 111.449 276.941 110.936 276.941 110.304C276.941 109.671 273.957 109.158 270.277 109.158C266.597 109.158 263.614 109.671 263.614 110.304C263.614 110.936 266.597 111.449 270.277 111.449Z" fill="#A9C8FB"/>
  <path d="M277.212 110.364C277.212 111.057 274.107 111.63 270.278 111.63C266.448 111.63 263.343 111.057 263.343 110.364C263.343 111.54 266.448 112.444 270.278 112.444C274.107 112.444 277.212 111.57 277.212 110.364Z" fill="#8AB8F9"/>
  <path d="M263.011 115.702C263.011 115.732 263.011 115.732 263.011 115.732C262.981 115.822 262.89 115.883 262.8 115.913C262.679 115.973 262.589 115.973 262.468 116.003C262.046 116.094 261.624 116.124 261.202 116.124C260.84 116.124 260.478 116.094 260.146 116.033C259.996 116.003 259.845 115.973 259.694 115.913C259.574 115.883 259.393 115.822 259.393 115.641L259.061 111.39H263.433L263.011 115.702Z" fill="#A9C8FB"/>
  <path d="M261.232 110.847C260.026 110.847 259.031 111.119 259.031 111.42C259.031 111.722 259.996 111.993 261.232 111.993C262.468 111.993 263.433 111.722 263.433 111.42C263.433 111.119 262.468 110.847 261.232 110.847Z" fill="#8AB8F9"/>
  <path d="M261.232 110.907C261.805 110.907 262.348 110.968 262.77 111.088C262.951 111.149 263.132 111.209 263.222 111.269C263.283 111.299 263.373 111.39 263.373 111.45C263.373 111.51 263.283 111.601 263.222 111.631C263.132 111.691 262.951 111.752 262.77 111.812C262.348 111.933 261.805 111.993 261.232 111.993C260.659 111.993 260.117 111.933 259.695 111.812C259.514 111.752 259.333 111.691 259.242 111.631C259.182 111.601 259.092 111.51 259.092 111.45C259.092 111.39 259.182 111.299 259.242 111.269C259.333 111.209 259.514 111.149 259.695 111.088C260.117 110.968 260.659 110.907 261.232 110.907ZM261.232 110.847C260.026 110.847 259.031 111.119 259.031 111.42C259.031 111.722 259.996 111.993 261.232 111.993C262.468 111.993 263.433 111.722 263.433 111.42C263.433 111.119 262.468 110.847 261.232 110.847Z" fill="#EEEEEE"/>
  <path d="M261.019 116.847C260.988 116.847 260.988 116.877 261.019 116.847C261.019 116.877 261.019 116.877 261.019 116.877C260.988 116.968 260.898 117.028 260.808 117.058C260.687 117.118 260.597 117.118 260.476 117.149C260.054 117.239 259.632 117.269 259.21 117.269C258.848 117.269 258.486 117.239 258.154 117.179C258.004 117.149 257.853 117.118 257.702 117.058C257.581 117.028 257.401 116.968 257.401 116.787L257.069 112.535H261.441L261.019 116.847Z" fill="#8AB8F9"/>
  <path d="M259.24 112.022C258.034 112.022 257.039 112.294 257.039 112.595C257.039 112.897 258.003 113.168 259.24 113.168C260.446 113.168 261.441 112.897 261.441 112.595C261.441 112.294 260.446 112.022 259.24 112.022Z" fill="#8AB8F9"/>
  <path d="M259.24 112.053C259.812 112.053 260.355 112.113 260.777 112.234C260.958 112.294 261.139 112.354 261.23 112.414C261.29 112.445 261.38 112.535 261.38 112.595C261.38 112.656 261.29 112.746 261.23 112.776C261.139 112.837 260.958 112.897 260.777 112.957C260.355 113.078 259.812 113.138 259.24 113.138C258.667 113.138 258.124 113.078 257.702 112.957C257.521 112.897 257.34 112.837 257.25 112.776C257.189 112.746 257.099 112.656 257.099 112.595C257.099 112.535 257.189 112.445 257.25 112.414C257.34 112.354 257.521 112.294 257.702 112.234C258.094 112.113 258.667 112.053 259.24 112.053ZM259.24 112.022C258.034 112.022 257.039 112.294 257.039 112.595C257.039 112.897 258.003 113.168 259.24 113.168C260.446 113.168 261.441 112.897 261.441 112.595C261.441 112.294 260.446 112.022 259.24 112.022Z" fill="#EEEEEE"/>
  <path d="M248.505 115.459C248.475 115.489 248.475 115.489 248.505 115.459C248.505 115.489 248.505 115.489 248.505 115.489C248.475 115.58 248.384 115.64 248.294 115.67C248.173 115.731 248.083 115.731 247.962 115.761C247.54 115.851 247.118 115.881 246.696 115.881C246.334 115.881 245.972 115.851 245.641 115.791C245.49 115.761 245.339 115.731 245.188 115.67C245.068 115.64 244.887 115.58 244.887 115.399L244.555 111.148H248.927L248.505 115.459Z" fill="#A9C8FB"/>
  <path d="M246.724 110.635C245.518 110.635 244.523 110.907 244.523 111.208C244.523 111.51 245.488 111.781 246.724 111.781C247.93 111.781 248.925 111.51 248.925 111.208C248.925 110.907 247.93 110.635 246.724 110.635Z" fill="#8AB8F9"/>
  <path d="M246.724 110.696C247.297 110.696 247.84 110.756 248.262 110.876C248.443 110.937 248.624 110.997 248.714 111.057C248.775 111.088 248.865 111.178 248.865 111.238C248.865 111.299 248.775 111.389 248.714 111.419C248.624 111.479 248.443 111.54 248.262 111.6C247.84 111.721 247.297 111.781 246.724 111.781C246.152 111.781 245.609 111.721 245.187 111.6C245.006 111.54 244.825 111.479 244.734 111.419C244.674 111.389 244.584 111.299 244.584 111.238C244.584 111.178 244.674 111.088 244.734 111.057C244.825 110.997 245.006 110.937 245.187 110.876C245.579 110.756 246.152 110.696 246.724 110.696ZM246.724 110.635C245.518 110.635 244.523 110.907 244.523 111.208C244.523 111.51 245.488 111.781 246.724 111.781C247.93 111.781 248.925 111.51 248.925 111.208C248.925 110.907 247.93 110.635 246.724 110.635Z" fill="#EEEEEE"/>
  <path d="M271.464 106.445L265.102 103.973C262.358 104.244 261.031 104.184 261.122 103.792C261.242 103.189 262.087 103.34 262.237 102.948C262.388 102.556 261.484 101.772 260.609 101.048C259.735 100.325 260.308 100.174 260.7 100.204C262.026 100.506 263.474 101.078 265.041 101.953L272.881 102.978L271.464 106.445Z" fill="#E8A16D"/>
  <path d="M276.288 101.319C273.966 102.072 270.74 102.585 266.76 101.59L266.429 104.907C269.444 106.414 273.243 107.198 275.987 106.203C278.157 105.419 278.399 102.374 276.288 101.319Z" fill="#76ADF8"/>
  <path d="M264.889 101.38H249.632C249.632 101.38 250.567 108.133 257.261 108.133C263.954 108.133 264.889 101.38 264.889 101.38Z" fill="#BCD3FC"/>
  <path d="M251.26 105.269C252.376 106.777 254.215 108.164 257.23 108.164C260.245 108.164 262.084 106.777 263.2 105.269C261.301 107.169 253.733 107.712 251.26 105.269Z" fill="#8AB8F9"/>
  <path d="M257.261 102.405C261.474 102.405 264.889 101.946 264.889 101.38C264.889 100.813 261.474 100.354 257.261 100.354C253.048 100.354 249.632 100.813 249.632 101.38C249.632 101.946 253.048 102.405 257.261 102.405Z" fill="white"/>
  <path d="M257.261 102.073C261.257 102.073 264.497 101.735 264.497 101.319C264.497 100.903 261.257 100.565 257.261 100.565C253.264 100.565 250.024 100.903 250.024 101.319C250.024 101.735 253.264 102.073 257.261 102.073Z" fill="#8AB8F9"/>
  <path d="M286.567 118.114L279.33 143.532L274.024 162.286H270.165L275.803 118.114H286.567Z" fill="#3558A2"/>
  <path d="M288.527 118.114C288.708 131.23 289.281 138.376 289.431 139.582C289.612 140.788 292.266 148.356 297.421 162.316H293.411C286.869 148.929 283.19 141.331 282.436 139.582C281.683 137.833 279.331 130.657 275.773 118.114H288.527Z" fill="#417DC4"/>
  <path d="M275.924 89.6811C276.858 88.5957 277.461 87.269 277.371 85.7916C277.069 81.5102 271.099 82.4449 269.954 84.6157C268.808 86.7866 268.929 92.244 270.436 92.6359C271.039 92.7867 272.305 92.4249 273.602 91.6409L272.788 97.3998H277.582L275.924 89.6811Z" fill="#E8A16D"/>
  <path d="M273.331 86.2449C273.15 88.8077 272.668 90.0741 271.884 90.0741C270.708 90.0741 269.713 89.3203 269.17 89.3203C268.778 89.3203 268.869 89.8027 269.14 90.1344C269.351 90.4359 270.346 90.7072 270.346 91.1595C270.346 91.6118 269.562 91.2499 269.562 91.5213C269.562 91.9736 269.411 92.7877 270.195 92.7877C270.979 92.7877 273.18 92.5163 273.572 91.3706C273.813 90.6168 273.964 89.1092 274.055 86.7574C274.115 86.7574 274.145 86.7574 274.205 86.7574C274.869 86.7574 275.411 87.3002 275.411 87.9635C275.411 88.2951 275.261 88.5966 275.05 88.8077C275.321 89.1997 275.653 89.6218 275.984 90.0439C277.311 89.2298 278.607 86.878 277.311 84.6167C276.949 83.5011 275.833 82.9282 274.869 82.6569C274.085 82.3252 273.271 82.2951 272.577 82.476C271.22 82.5966 270.014 82.9885 269.683 83.2599C269.683 84.5262 269.924 84.9182 272.034 84.8881C272.517 85.1594 272.939 85.6418 273.331 86.2449Z" fill="#AC5419"/>
  <path d="M269.412 87.0889C269.261 87.5411 268.477 88.2346 268.507 88.717C268.537 89.109 269.08 89.1693 269.412 89.1391" fill="#E8A16D"/>
  <path d="M269.563 86.697C269.593 86.5764 269.714 86.4558 269.834 86.3955C269.955 86.3352 270.106 86.3352 270.256 86.3352C270.528 86.3955 270.769 86.6066 270.799 86.8478C270.558 86.7272 270.377 86.6669 270.166 86.6066C269.985 86.6367 269.804 86.6367 269.563 86.697Z" fill="#AC5419"/>
  <path d="M269.894 87.3906C269.994 87.3906 270.075 87.3096 270.075 87.2097C270.075 87.1098 269.994 87.0288 269.894 87.0288C269.794 87.0288 269.713 87.1098 269.713 87.2097C269.713 87.3096 269.794 87.3906 269.894 87.3906Z" fill="#AC5419"/>
  <path d="M260.787 110.576C259.31 109.913 257.983 109.521 256.807 109.43C254.576 109.249 253.611 108.978 252.315 107.863C251.621 107.26 250.867 105.933 251.29 105.36C251.591 104.968 253.973 106.114 254.847 106.114C255.722 106.114 254.546 104.244 255.028 104.365C255.601 104.244 256.264 104.968 257.018 106.476L260.335 107.531L260.787 110.576Z" fill="#E8A16D"/>
  <path d="M271.28 106.174C268.868 107.32 264.496 107.41 258.104 106.506C257.229 109.853 256.988 112.174 257.35 113.441C262.988 115.099 267.601 115.4 271.25 114.767C271.551 116.938 272.245 118.928 273.481 120.617C276.044 124.084 285.873 118.415 289.551 118.415C290.335 110.757 285.451 108.707 284.516 104.094C283.491 99.0585 277.883 92.0936 277.28 92.2142L271.853 93.2996C272.335 97.159 271.672 101.712 271.28 106.174Z" fill="#4A9DF7"/>
  <path d="M243.399 46.8667H231.083V62.4979H243.399V46.8667Z" fill="#161616"/>
  <path d="M231.764 47.5692L231.083 46.8667V62.4979L231.764 61.7953V47.5692Z" fill="#3558A2"/>
  <path d="M242.719 47.5692L243.399 46.8667V62.4979L242.719 61.7953V47.5692Z" fill="#3558A2"/>
  <path d="M242.719 47.5693H231.764V61.7955H242.719V47.5693Z" fill="#DAE6FD"/>
  <path d="M240.765 60.5439H233.564V60.6757H240.765V60.5439Z" fill="#DAE6FD"/>
  <path d="M240.765 60.1487H233.564V60.2804H240.765V60.1487Z" fill="#DAE6FD"/>
  <path opacity="0.28" d="M237.494 56.9646C237.922 57.0835 238.302 57.131 238.635 57.131C238.944 57.131 239.253 57.036 239.515 56.8695C239.087 56.7507 238.73 56.7031 238.445 56.7031C238.16 56.7031 237.851 56.7982 237.494 56.9646Z" fill="#76ADF8"/>
  <path opacity="0.28" d="M238.968 57.1305C238.968 57.1068 238.968 57.1305 238.968 57.1305C238.897 56.9879 237.898 55.5377 237.779 55.2524H238.92C238.992 55.4426 239.348 56.7264 239.396 56.9641C239.538 57.3683 239.871 58.652 239.895 58.7471C239.943 58.8422 239.705 58.9373 239.634 58.8184C239.538 58.6282 239.301 58.129 239.182 57.82C239.087 57.5347 239.016 57.2732 238.968 57.1305Z" fill="#76ADF8"/>
  <path opacity="0.28" d="M238.137 57.3922C237.733 57.4873 236.306 57.6775 236.187 57.7012C236.092 57.725 235.997 57.5111 236.116 57.4873C236.306 57.416 236.877 57.2495 237.21 57.1782C237.471 57.1307 237.733 57.0831 237.899 57.0594C237.875 56.6077 237.828 55.5141 237.851 55.2764H238.707C238.66 55.5141 238.327 57.1545 238.256 57.3209C238.279 57.3684 238.208 57.3922 238.137 57.3922Z" fill="#76ADF8"/>
  <g opacity="0.28">
  <path opacity="0.28" d="M236.155 57.4088C236.104 57.3937 236.057 57.4019 236.034 57.4061C236.011 57.4102 235.964 57.4184 235.898 57.4542C235.902 57.4776 235.959 57.8054 236.059 58.3673C236.133 58.3783 236.176 58.3467 236.191 58.2957C236.183 58.2489 236.198 58.1979 236.194 58.1745L236.307 57.7201L236.302 57.6967L236.228 57.6856C236.196 57.6429 236.188 57.5961 236.184 57.5727C236.18 57.5493 236.176 57.5259 236.191 57.4749C236.187 57.4515 236.159 57.4322 236.155 57.4088Z" fill="#76ADF8"/>
  </g>
  <path opacity="0.28" d="M239.563 58.8183C239.539 58.8659 239.539 58.8896 239.539 58.9134C239.539 58.9372 239.539 58.9847 239.563 59.0323C239.61 59.0323 239.967 59.0323 240.656 59.0323C240.68 58.961 240.68 58.9134 240.609 58.9134C240.538 58.9134 240.49 58.9134 240.466 58.8896L239.943 58.6995H239.919L239.896 58.7708C239.848 58.7946 239.801 58.7946 239.753 58.7946C239.729 58.7946 239.682 58.7946 239.634 58.7708C239.61 58.7946 239.587 58.7946 239.563 58.8183Z" fill="#76ADF8"/>
  <path d="M237.851 55.3238C238.255 55.2049 238.659 55.2049 239.015 55.3238C239.134 55.8706 239.443 56.0845 239.515 56.8928C238.897 57.1781 238.136 56.6788 237.494 56.9641C237.304 56.5837 237.565 55.6566 237.851 55.3238Z" fill="#76ADF8"/>
  <g opacity="0.9">
  <path opacity="0.28" d="M238.326 53.4229C238.231 53.304 238.16 53.1851 238.183 53.0187C238.207 52.5908 238.825 52.6859 238.944 52.8999C239.063 53.1138 239.039 53.6844 238.897 53.7082C238.825 53.7319 238.706 53.6844 238.587 53.6131L238.659 54.1836H238.183L238.326 53.4229Z" fill="#76ADF8"/>
  </g>
  <path d="M238.754 52.6618C238.683 52.6381 238.588 52.6381 238.54 52.6381C238.564 52.5905 238.564 52.5192 238.564 52.4716C238.564 52.4241 238.54 52.3528 238.516 52.3052C238.516 52.2815 238.493 52.2577 238.469 52.2339C238.445 52.2101 238.421 52.2101 238.398 52.1864C238.374 52.1864 238.35 52.1864 238.326 52.1864H238.302H238.279C238.255 52.1626 238.231 52.1626 238.207 52.1626C238.184 52.1626 238.16 52.1626 238.112 52.1626C238.088 52.1626 238.065 52.1864 238.041 52.2101L238.017 52.2339C238.017 52.2339 238.017 52.2339 237.993 52.2339C237.946 52.2577 237.898 52.2815 237.898 52.329C237.875 52.3528 237.875 52.4003 237.875 52.4479C237.875 52.4954 237.922 52.6381 237.97 52.6856C238.017 52.7332 238.065 52.7569 238.112 52.7807C238.065 52.8282 238.041 52.8758 238.041 52.9233C238.017 52.9709 238.017 53.0422 237.993 53.1135C237.993 53.1611 237.993 53.2324 237.993 53.3037C238.017 53.3513 238.041 53.3988 238.088 53.4226C238.112 53.4464 238.136 53.4464 238.16 53.4464C238.184 53.4464 238.207 53.4701 238.231 53.4701C238.279 53.4701 238.326 53.4701 238.35 53.4464C238.374 53.4226 238.374 53.4226 238.374 53.3988C238.374 53.3988 238.374 53.3988 238.374 53.375C238.374 53.375 238.35 53.375 238.35 53.3513C238.326 53.3275 238.302 53.2799 238.279 53.2324C238.279 53.1848 238.279 53.1135 238.326 53.1135C238.374 53.0898 238.445 53.1135 238.493 53.1373C238.516 53.066 238.564 52.9947 238.635 52.9471C238.707 52.8996 238.802 52.8996 238.873 52.8758C238.897 52.8758 238.921 52.852 238.921 52.8282L238.944 52.8045C238.944 52.7807 238.944 52.7807 238.944 52.7807C238.944 52.7807 238.825 52.6856 238.754 52.6618Z" fill="#76ADF8"/>
  <path opacity="0.28" d="M239.563 54.8011L240.276 54.7298C240.418 54.6585 240.561 54.6109 240.68 54.5872C240.704 54.5872 240.775 54.5872 240.68 54.6585C240.609 54.706 240.513 54.7773 240.537 54.8011C240.561 54.8249 240.632 54.8249 240.632 54.8724C240.632 54.8962 240.513 54.92 240.276 54.8962L239.681 55.0864L239.563 54.8011ZM237.304 54.9438H237.708C237.28 55.7758 237.043 56.2037 237.019 56.2513C236.971 56.3464 237.066 56.4652 237.114 56.5366C236.995 56.5841 236.995 56.4177 236.852 56.4652C236.71 56.5128 236.591 56.6317 236.424 56.5366C236.401 56.5366 236.377 56.489 236.424 56.4652C236.567 56.3939 236.757 56.2513 236.781 56.2037C236.805 56.1324 236.995 55.7283 237.304 54.9438Z" fill="#76ADF8"/>
  <path d="M238.397 53.874L238.706 53.8978C238.777 54.4921 239.205 54.8487 240.133 54.7299L240.251 55.4906C239.372 55.5857 238.611 55.3004 238.445 54.4921C238.421 54.2544 238.373 54.0404 238.397 53.874Z" fill="#76ADF8"/>
  <path d="M238.231 53.7788L238.707 53.8739C238.707 54.5633 238.968 54.9912 239.087 55.5143H237.803C237.78 55.6807 237.78 55.8709 237.78 56.061H236.829C237.043 55.0863 237.494 54.3256 238.207 53.8026L238.231 53.7788Z" fill="#76ADF8"/>
  <path opacity="0.28" d="M238.017 54.5393C237.993 54.9672 237.993 55.3 238.064 55.514H237.803C237.85 55.1574 237.922 54.8484 238.017 54.5393Z" fill="#76ADF8"/>
  <path d="M235.069 53.6599L235.996 56.6791L236.448 59.2704H236.805L236.329 53.6599H235.069Z" fill="#76ADF8"/>
  <path d="M234.736 53.6599C234.808 55.324 234.736 56.1799 234.713 56.3225C234.689 56.4652 234.499 57.4399 234.047 59.2942L234.427 59.1753C235.14 57.4874 235.402 56.6078 235.473 56.3701C235.545 56.1561 235.782 55.2527 236.139 53.6599H234.736Z" fill="#76ADF8"/>
  <path d="M234.047 59.1751C234.023 59.2464 234 59.294 234 59.3415C234 59.3891 234 59.4604 234.023 59.5317C234.071 59.5317 234.546 59.5317 235.402 59.5317C235.45 59.4128 235.426 59.3415 235.331 59.3415C235.236 59.3415 235.188 59.3177 235.141 59.3177L234.499 59.0325C234.475 59.0325 234.475 59.0325 234.475 59.0562L234.427 59.1513C234.356 59.1751 234.309 59.1989 234.261 59.1989C234.213 59.1989 234.166 59.1751 234.118 59.1513C234.095 59.1513 234.071 59.1513 234.047 59.1751Z" fill="#76ADF8"/>
  <path d="M236.377 59.1751C236.353 59.2464 236.33 59.294 236.33 59.3415C236.33 59.3891 236.33 59.4604 236.353 59.5317C236.401 59.5317 236.876 59.5317 237.732 59.5317C237.78 59.4128 237.756 59.3415 237.661 59.3415C237.566 59.3415 237.518 59.3177 237.471 59.3177L236.829 59.0325C236.805 59.0325 236.805 59.0325 236.805 59.0562L236.758 59.1513C236.686 59.1751 236.639 59.1989 236.591 59.1989C236.544 59.1989 236.496 59.1751 236.448 59.1513C236.401 59.1513 236.377 59.1513 236.377 59.1751Z" fill="#76ADF8"/>
  <path opacity="0.28" d="M234.95 53.6599L235.331 55.2052H236.543L236.353 53.6599H234.95Z" fill="#76ADF8"/>
  <path opacity="0.28" d="M234.737 53.6599C234.618 54.0403 234.594 54.5633 234.666 55.2052H235.902L236.235 53.6599H234.737Z" fill="#76ADF8"/>
  <g opacity="0.9">
  <path opacity="0.28" d="M235.57 50.1174C235.451 49.9748 235.379 49.8321 235.403 49.6419C235.451 49.1189 236.164 49.2378 236.307 49.4993C236.449 49.7608 236.425 50.4265 236.259 50.474C236.188 50.4978 236.021 50.4502 235.879 50.3551L235.974 51.0683H235.379L235.57 50.1174Z" fill="#76ADF8"/>
  </g>
  <path d="M235.783 50.0936C235.712 50.2362 235.617 50.3313 235.498 50.3313C235.308 50.3313 235.165 50.0698 235.165 49.8083V49.7845C234.951 49.9272 234.809 50.1887 234.547 50.1887C234.191 50.1887 234.048 49.4517 234.547 49.4517C234.904 49.4517 235.07 49.4992 235.213 49.5706C235.237 49.4992 235.284 49.4279 235.332 49.3804C235.356 49.3566 235.356 49.3566 235.379 49.3328C235.403 49.3328 235.403 49.3091 235.427 49.3091C235.522 49.2853 235.641 49.2615 235.783 49.2377C235.807 49.2377 235.831 49.2377 235.855 49.2377C235.855 49.0951 235.974 49 236.093 49C236.235 49 236.33 49.1189 236.33 49.2377C236.33 49.3804 236.235 49.4755 236.093 49.4755C236.021 49.4992 235.926 49.523 235.807 49.523C235.807 49.5706 235.831 49.5943 235.831 49.6657C235.831 49.7132 235.831 49.7607 235.807 49.8083C235.783 49.7845 235.76 49.7607 235.712 49.7607C235.617 49.7607 235.569 49.8321 235.569 49.9034C235.641 49.9985 235.688 50.0698 235.783 50.0936Z" fill="#76ADF8"/>
  <path d="M235.308 50.6171C235.308 50.5934 235.308 50.5696 235.332 50.5696H235.356L236.045 50.6647C236.045 51.045 236.354 51.4016 236.544 51.7345C236.853 52.2099 237.376 52.7567 237.044 53.4699C236.734 54.1118 235.926 54.2307 234.619 53.779C234.619 53.4224 234.904 53.0895 234.904 52.6616C234.904 52.2575 234.999 51.0213 235.308 50.6171Z" fill="#76ADF8"/>
  <path d="M236.164 53.2798C236.212 53.042 236.235 52.8756 236.259 52.8043C236.616 53.2084 236.83 53.4224 236.901 53.4224C237.02 53.4224 237.091 53.3273 237.115 53.3749C237.163 53.4937 237.044 53.7552 236.853 53.8028C236.758 53.8265 236.616 53.6126 236.544 53.565C236.497 53.5175 236.378 53.4224 236.164 53.2798ZM236.782 52.0198C236.877 52.0198 236.925 52.0673 236.996 52.1386C237.067 52.21 237.115 52.5903 237.02 52.5903C236.925 52.5903 236.544 52.4477 236.544 52.3526C236.544 52.2575 236.806 52.21 236.806 52.1386C236.806 52.0673 236.687 52.0198 236.782 52.0198Z" fill="#76ADF8"/>
  <path d="M235.973 53.6365C235.973 53.6603 235.973 53.6841 235.949 53.7079C234.88 52.9471 234.88 52.0437 235.189 51.0215C234.951 52.02 235.046 52.8758 235.973 53.6365Z" fill="#76ADF8"/>
  <path d="M260.718 -0.916504H260.356V17.3551H260.718V-0.916504Z" fill="#3558A2"/>
  <path d="M259.573 18.9227V17.2342C259.573 16.6614 259.995 16.179 260.538 16.179C261.051 16.179 261.503 16.6614 261.503 17.2342V18.9227H259.573Z" fill="#3558A2"/>
  <path opacity="0.3" d="M261.472 18.9229V17.2345C261.472 16.6616 261.05 16.1792 260.507 16.1792C260.447 16.1792 260.356 16.1792 260.296 16.2093C261.562 16.4506 261.442 18.4405 260.597 18.6214C259.753 18.8023 259.542 18.139 259.542 18.139V18.8928H261.472V18.9229Z" fill="#3558A2"/>
  <path d="M260.538 23.7168C261.304 23.7168 261.925 23.2308 261.925 22.6313C261.925 22.0319 261.304 21.5459 260.538 21.5459C259.772 21.5459 259.151 22.0319 259.151 22.6313C259.151 23.2308 259.772 23.7168 260.538 23.7168Z" fill="#F3F6FE"/>
  <path d="M258.366 22.933V19.1039C258.366 17.7772 259.331 16.7219 260.537 16.7219C261.743 16.7219 262.708 17.8074 262.708 19.1039V22.933H258.366Z" fill="#417DC4"/>
  <path opacity="0.3" d="M262.709 22.9326V19.1034C262.709 17.7767 261.744 16.7214 260.538 16.7214C260.387 16.7214 260.236 16.7516 260.085 16.7817C262.95 17.3245 262.709 21.8471 260.779 22.2994C258.819 22.7517 258.397 21.2139 258.397 21.2139V22.9326H262.709Z" fill="#417DC4"/>
  <path d="M238.919 -0.916504H238.557V20.8224H238.919V-0.916504Z" fill="#3558A2"/>
  <path d="M237.772 22.3905V20.702C237.772 20.1291 238.195 19.6467 238.737 19.6467C239.25 19.6467 239.702 20.1291 239.702 20.702V22.3905H237.772Z" fill="#3558A2"/>
  <path opacity="0.3" d="M239.672 22.3902V20.7018C239.672 20.1289 239.25 19.6465 238.707 19.6465C238.647 19.6465 238.556 19.6465 238.496 19.6766C239.762 19.9178 239.642 21.9078 238.797 22.0887C237.953 22.2696 237.742 21.6063 237.742 21.6063V22.3601H239.672V22.3902Z" fill="#3558A2"/>
  <path d="M238.739 27.2143C239.505 27.2143 240.125 26.7284 240.125 26.1289C240.125 25.5294 239.505 25.0435 238.739 25.0435C237.973 25.0435 237.352 25.5294 237.352 26.1289C237.352 26.7284 237.973 27.2143 238.739 27.2143Z" fill="#F3F6FE"/>
  <path d="M236.567 26.4304V22.6012C236.567 21.2745 237.532 20.2192 238.738 20.2192C239.944 20.2192 240.909 21.3047 240.909 22.6012V26.4304H236.567Z" fill="#417DC4"/>
  <path opacity="0.3" d="M240.908 26.4299V22.6007C240.908 21.274 239.943 20.2188 238.737 20.2188C238.587 20.2188 238.436 20.2489 238.285 20.2791C241.15 20.8218 240.908 25.3444 238.979 25.7967C237.019 26.249 236.597 24.7113 236.597 24.7113V26.4299H240.908Z" fill="#417DC4"/>
  <path d="M248.115 -0.916504H247.753V29.2647H248.115V-0.916504Z" fill="#3558A2"/>
  <path d="M247.001 30.8331V29.1446C247.001 28.5718 247.424 28.0894 247.966 28.0894C248.479 28.0894 248.931 28.5718 248.931 29.1446V30.8331H247.001Z" fill="#3558A2"/>
  <path opacity="0.3" d="M248.9 30.8331V29.1446C248.9 28.5718 248.478 28.0894 247.936 28.0894C247.875 28.0894 247.785 28.0894 247.724 28.1195C248.991 28.3607 248.87 30.3507 248.026 30.5316C247.182 30.7125 246.971 30.0492 246.971 30.0492V30.803H248.9V30.8331Z" fill="#3558A2"/>
  <path d="M247.935 35.6565C248.701 35.6565 249.322 35.1705 249.322 34.571C249.322 33.9716 248.701 33.4856 247.935 33.4856C247.169 33.4856 246.548 33.9716 246.548 34.571C246.548 35.1705 247.169 35.6565 247.935 35.6565Z" fill="#F3F6FE"/>
  <path d="M245.763 34.8727V31.0436C245.763 29.7169 246.728 28.6616 247.934 28.6616C249.14 28.6616 250.105 29.7471 250.105 31.0436V34.8727H245.763Z" fill="#417DC4"/>
  <path opacity="0.3" d="M250.106 34.8723V31.0431C250.106 29.7164 249.141 28.6611 247.935 28.6611C247.784 28.6611 247.633 28.6913 247.482 28.7214C250.347 29.2642 250.106 33.7868 248.176 34.2391C246.216 34.6914 245.794 33.1536 245.794 33.1536V34.8723H250.106Z" fill="#417DC4"/>
  <path d="M57.9426 4.56665H55.4653V19.2547H57.9426V4.56665Z" fill="#76ADF8"/>
  <path d="M57.0345 6.55078H56.4014V18.2627H57.0345V6.55078Z" fill="#76ADF8"/>
  <path d="M60.9432 7.23975H57.9429V19.2548H60.9432V7.23975Z" fill="#417DC4"/>
  <path fill-rule="evenodd" clip-rule="evenodd" d="M66.1182 18.7862L62.2921 7.40503L60.9434 7.84595L64.7694 19.2547L66.1182 18.7862Z" fill="#3558A2"/>
  <path d="M62.1293 9.11861C62.3167 9.05569 62.4177 8.85262 62.3548 8.66503C62.292 8.47745 62.0891 8.37638 61.9018 8.4393C61.7144 8.50222 61.6134 8.70529 61.6763 8.89288C61.7391 9.08046 61.942 9.18152 62.1293 9.11861Z" fill="#BCD3FC"/>
  <path d="M62.732 9.78675L62.0273 10.0234L64.9168 18.6454L65.6214 18.4087L62.732 9.78675Z" fill="#BCD3FC"/>
  <path d="M64.7123 10.122L63.3813 10.5691L66.2883 19.2433L67.6193 18.7962L64.7123 10.122Z" fill="#5982E0"/>
  <path d="M65.1955 8.98482L64.4126 9.2478L67.7661 19.2545L68.549 18.9915L65.1955 8.98482Z" fill="#417DC4"/>
  <path fill-rule="evenodd" clip-rule="evenodd" d="M67.5217 11.7591L69.7788 18.5657L68.7604 18.8964L66.5033 12.0897C66.4207 11.8142 66.5583 11.511 66.8336 11.4284C67.1089 11.3457 67.4116 11.4835 67.5217 11.7591Z" fill="#9FC3FC"/>
  <path fill-rule="evenodd" clip-rule="evenodd" d="M67.7142 11.6765L70.0814 18.7863L69.8612 18.8414L67.5215 11.7592C67.439 11.4836 67.1362 11.3183 66.8609 11.4285C66.5857 11.5112 66.4205 11.8143 66.5306 12.0899L68.8703 19.1721L68.6501 19.2272L66.2829 12.1174C66.1453 11.7316 66.3655 11.2907 66.7508 11.1805C67.1637 11.0702 67.5766 11.2907 67.7142 11.6765Z" fill="#76ADF8"/>
  <path d="M80.8991 15.5896H72.9717V19.2547H80.8991V15.5896Z" fill="#5982E0"/>
  <path d="M81.422 14.1841H72.3936V15.5895H81.422V14.1841Z" fill="#417DC4"/>
  <path fill-rule="evenodd" clip-rule="evenodd" d="M75.4487 15.9202H78.4215V16.2233C78.4215 16.3886 78.2839 16.5264 78.1187 16.5264H75.7515C75.5864 16.5264 75.4487 16.3886 75.4487 16.2233V15.9202Z" fill="#417DC4"/>
  <path d="M102.617 19.0894H48.7217V20.8806H102.617V19.0894Z" fill="#7996E6"/>
  <path d="M81.3122 34.8796H27.417V36.6709H81.3122V34.8796Z" fill="#7996E6"/>
  <path fill-rule="evenodd" clip-rule="evenodd" d="M76.1374 26.3921C72.7792 30.2501 73.4674 33.4743 74.0729 34.7144C73.6876 34.6318 73.082 32.2067 73.7151 30.1675C74.0729 28.9825 75.5043 26.585 76.1374 26.3921Z" fill="#FB9175"/>
  <path fill-rule="evenodd" clip-rule="evenodd" d="M76.4953 26.1993C76.4677 25.7308 76.688 24.849 78.5046 24.7112C77.844 26.4197 76.9357 26.3922 76.4953 26.1993Z" fill="#FB9175"/>
  <path fill-rule="evenodd" clip-rule="evenodd" d="M75.3942 26.64C74.9813 26.4196 74.4032 25.7307 75.2841 24.1323C76.3025 25.6204 75.7795 26.3645 75.3942 26.64Z" fill="#FB9175"/>
  <path fill-rule="evenodd" clip-rule="evenodd" d="M75.7793 27.6323C75.9169 27.1638 76.4399 26.4473 78.174 26.9158C76.9904 28.2661 76.1371 27.9354 75.7793 27.6323Z" fill="#FB9175"/>
  <path fill-rule="evenodd" clip-rule="evenodd" d="M74.2381 28.3212C73.7701 28.2661 72.9444 27.8803 73.137 26.0615C74.6785 27.026 74.5133 27.9079 74.2381 28.3212Z" fill="#FB9175"/>
  <path fill-rule="evenodd" clip-rule="evenodd" d="M74.6235 29.3131C74.7336 28.8446 75.2016 28.073 76.9907 28.4588C75.8622 29.8918 74.9814 29.5887 74.6235 29.3131Z" fill="#FB9175"/>
  <path fill-rule="evenodd" clip-rule="evenodd" d="M73.2747 30.1398C72.8067 30.0847 71.981 29.6989 72.1737 27.8801C73.7151 28.8722 73.5224 29.754 73.2747 30.1398Z" fill="#FB9175"/>
  <path fill-rule="evenodd" clip-rule="evenodd" d="M74.0732 31.4349C74.0457 30.9665 74.2934 30.0846 76.1101 30.002C75.3944 31.6554 74.5136 31.6278 74.0732 31.4349Z" fill="#FB9175"/>
  <path fill-rule="evenodd" clip-rule="evenodd" d="M73.082 32.4547C72.6141 32.5374 71.7333 32.3445 71.458 30.5532C73.1646 31.1044 73.2196 32.0138 73.082 32.4547Z" fill="#FB9175"/>
  <path fill-rule="evenodd" clip-rule="evenodd" d="M73.9077 33.3366C73.8527 32.8682 74.0454 31.9863 75.8621 31.7659C75.2565 33.4744 74.3482 33.502 73.9077 33.3366Z" fill="#FB9175"/>
  <path fill-rule="evenodd" clip-rule="evenodd" d="M73.5227 34.6318C73.0823 34.7971 72.1739 34.7696 71.5684 33.061C73.385 33.2815 73.5777 34.1633 73.5227 34.6318Z" fill="#FB9175"/>
  <path fill-rule="evenodd" clip-rule="evenodd" d="M73.6604 27.2739C72.697 30.9666 74.2384 32.8956 75.0642 33.5019C74.7614 33.557 73.5503 32.1516 73.3026 30.5808C73.1374 29.699 73.3026 27.6322 73.6604 27.2739Z" fill="#FDC6BD"/>
  <path fill-rule="evenodd" clip-rule="evenodd" d="M73.8255 27.026C73.6328 26.7228 73.5227 26.0615 74.6788 25.345C74.7889 26.7228 74.1833 26.9984 73.8255 27.026Z" fill="#FDC6BD"/>
  <path fill-rule="evenodd" clip-rule="evenodd" d="M73.2473 27.6872C72.8895 27.6596 72.2839 27.4116 72.339 26.0613C73.5226 26.7227 73.4125 27.384 73.2473 27.6872Z" fill="#FDC6BD"/>
  <path fill-rule="evenodd" clip-rule="evenodd" d="M73.8253 28.211C73.7427 27.8528 73.8528 27.1914 75.2016 26.9434C74.8438 28.2386 74.1831 28.2937 73.8253 28.211Z" fill="#FDC6BD"/>
  <path fill-rule="evenodd" clip-rule="evenodd" d="M73.0269 29.1753C72.6966 29.313 72.036 29.3131 71.5405 28.0454C72.8893 28.1832 73.082 28.8446 73.0269 29.1753Z" fill="#FDC6BD"/>
  <path fill-rule="evenodd" clip-rule="evenodd" d="M73.6326 29.7265C73.55 29.3958 73.605 28.7069 74.9263 28.3762C74.6235 29.699 73.9629 29.8092 73.6326 29.7265Z" fill="#FDC6BD"/>
  <path fill-rule="evenodd" clip-rule="evenodd" d="M72.9996 30.7461C72.6693 30.8839 72.0086 30.8839 71.5132 29.6162C72.8619 29.7264 73.0271 30.3878 72.9996 30.7461Z" fill="#FDC6BD"/>
  <path fill-rule="evenodd" clip-rule="evenodd" d="M73.9626 31.3248C73.7974 31.0217 73.6598 30.3603 74.8434 29.6714C74.926 31.0493 74.3204 31.2973 73.9626 31.3248Z" fill="#FDC6BD"/>
  <path fill-rule="evenodd" clip-rule="evenodd" d="M73.633 32.3444C73.3578 32.5373 72.6972 32.7302 71.8989 31.6279C73.2477 31.4075 73.578 32.0137 73.633 32.3444Z" fill="#FDC6BD"/>
  <path fill-rule="evenodd" clip-rule="evenodd" d="M74.4856 32.6475C74.2929 32.3444 74.1278 31.683 75.2563 30.939C75.449 32.2893 74.8434 32.62 74.4856 32.6475Z" fill="#FDC6BD"/>
  <path fill-rule="evenodd" clip-rule="evenodd" d="M74.6512 33.6397C74.4034 33.8877 73.7979 34.1908 72.8345 33.2539C74.1282 32.7854 74.5411 33.309 74.6512 33.6397Z" fill="#FDC6BD"/>
  <path fill-rule="evenodd" clip-rule="evenodd" d="M71.1 29.5061C70.5219 31.4351 71.0449 33.557 72.4212 34.8798H77.8988C79.2476 33.5846 79.7705 31.4351 79.22 29.5061H71.1Z" fill="#5982E0"/>
  <path fill-rule="evenodd" clip-rule="evenodd" d="M79.3303 29.5613H71.1277C70.9625 29.5613 70.7974 29.4235 70.7974 29.2306C70.7974 29.0652 70.935 28.8999 71.1277 28.8999H79.3303C79.4955 28.8999 79.6606 29.0377 79.6606 29.2306C79.6331 29.4235 79.4955 29.5613 79.3303 29.5613Z" fill="#5982E0"/>
  <path fill-rule="evenodd" clip-rule="evenodd" d="M82.1381 37.8009C81.5326 31.4351 78.0368 29.2856 76.3853 28.7896C76.7981 28.514 79.5232 30.0572 80.8169 32.3721C81.5601 33.6673 82.4684 37.0293 82.1381 37.8009Z" fill="#FB9175"/>
  <path fill-rule="evenodd" clip-rule="evenodd" d="M82.0006 38.2693C82.4686 38.6275 83.0466 39.6196 81.6153 41.3833C80.6519 39.3165 81.4501 38.5173 82.0006 38.2693Z" fill="#FB9175"/>
  <path fill-rule="evenodd" clip-rule="evenodd" d="M82.5508 36.8916C83.1013 36.7262 84.2298 36.7538 84.918 38.9308C82.6609 38.6001 82.4407 37.4703 82.5508 36.8916Z" fill="#FB9175"/>
  <path fill-rule="evenodd" clip-rule="evenodd" d="M81.3121 36.4231C81.6149 36.9191 81.8351 38.049 79.8808 39.2064C79.6881 36.9467 80.7066 36.4507 81.3121 36.4231Z" fill="#FB9175"/>
  <path fill-rule="evenodd" clip-rule="evenodd" d="M82.0005 34.4115C82.4409 34.0257 83.4869 33.6123 85.0008 35.3484C82.7987 35.9271 82.1656 34.9902 82.0005 34.4115Z" fill="#FB9175"/>
  <path fill-rule="evenodd" clip-rule="evenodd" d="M80.7896 33.8877C81.1199 34.3837 81.3952 35.4585 79.5234 36.7537C79.1931 34.5215 80.2116 33.9704 80.7896 33.8877Z" fill="#FB9175"/>
  <path fill-rule="evenodd" clip-rule="evenodd" d="M81.1748 31.9588C81.6152 31.573 82.6612 31.1597 84.1751 32.8958C81.973 33.4469 81.34 32.5375 81.1748 31.9588Z" fill="#FB9175"/>
  <path fill-rule="evenodd" clip-rule="evenodd" d="M79.3304 31.573C79.7708 31.9588 80.3488 32.9233 78.89 34.687C77.9816 32.5926 78.8074 31.7935 79.3304 31.573Z" fill="#FB9175"/>
  <path fill-rule="evenodd" clip-rule="evenodd" d="M79.2476 29.7819C79.5779 29.2859 80.5137 28.652 82.3855 29.9472C80.4036 31.0495 79.5503 30.3055 79.2476 29.7819Z" fill="#FB9175"/>
  <path fill-rule="evenodd" clip-rule="evenodd" d="M77.7342 29.8093C78.2021 30.1676 78.8352 31.1045 77.4865 32.9233C76.4405 30.8841 77.2112 30.0573 77.7342 29.8093Z" fill="#FB9175"/>
  <path fill-rule="evenodd" clip-rule="evenodd" d="M76.9082 28.3488C77.1559 27.7976 77.9267 26.9984 80.0186 27.9354C78.257 29.3684 77.266 28.7897 76.9082 28.3488Z" fill="#FB9175"/>
  <path fill-rule="evenodd" clip-rule="evenodd" d="M84.7256 27.7149C79.8261 26.2268 77.1836 28.1834 76.3028 29.2581C76.2202 28.8723 78.2021 27.3291 80.294 27.0535C81.5051 26.8882 84.2852 27.2189 84.7256 27.7149Z" fill="#FB9175"/>
  <path fill-rule="evenodd" clip-rule="evenodd" d="M85.0283 27.9629C85.4412 27.7424 86.322 27.6046 87.2028 29.203C85.4137 29.2581 85.0558 28.4314 85.0283 27.9629Z" fill="#FB9175"/>
  <path fill-rule="evenodd" clip-rule="evenodd" d="M84.2026 27.1362C84.2302 26.6678 84.6155 25.841 86.4322 26.0064C85.4963 27.5496 84.588 27.3843 84.2026 27.1362Z" fill="#FB9175"/>
  <path fill-rule="evenodd" clip-rule="evenodd" d="M83.4593 27.9079C83.9272 27.8252 84.808 28.0181 85.0833 29.8094C83.3492 29.2582 83.3216 28.3488 83.4593 27.9079Z" fill="#FB9175"/>
  <path fill-rule="evenodd" clip-rule="evenodd" d="M82.1934 26.7779C82.0282 26.337 82.0558 25.4276 83.7899 24.8489C83.5422 26.6401 82.6613 26.833 82.1934 26.7779Z" fill="#FB9175"/>
  <path fill-rule="evenodd" clip-rule="evenodd" d="M81.4498 27.5219C81.9177 27.4117 82.7985 27.5495 83.1839 29.3131C81.4223 28.8998 81.3122 27.9904 81.4498 27.5219Z" fill="#FB9175"/>
  <path fill-rule="evenodd" clip-rule="evenodd" d="M80.1285 26.6402C79.9633 26.1993 79.9908 25.2899 81.7249 24.7112C81.4772 26.5024 80.5964 26.6953 80.1285 26.6402Z" fill="#FB9175"/>
  <path fill-rule="evenodd" clip-rule="evenodd" d="M79.2754 27.9076C79.6883 27.6872 80.5966 27.5769 81.4224 29.1753C79.6057 29.2028 79.2754 28.3761 79.2754 27.9076Z" fill="#FB9175"/>
  <path fill-rule="evenodd" clip-rule="evenodd" d="M77.9269 27.4118C77.6792 27.026 77.459 26.1442 79.0004 25.1521C79.1931 26.9433 78.3949 27.3567 77.9269 27.4118Z" fill="#FB9175"/>
  <path fill-rule="evenodd" clip-rule="evenodd" d="M77.4863 28.5415C77.8992 28.2935 78.78 28.1282 79.7159 29.6714C77.8992 29.8367 77.5139 29.01 77.4863 28.5415Z" fill="#FB9175"/>
  <path fill-rule="evenodd" clip-rule="evenodd" d="M76.1651 28.7068C75.8348 28.3761 75.477 27.5218 76.7982 26.2817C77.3212 28.0179 76.6055 28.569 76.1651 28.7068Z" fill="#FB9175"/>
  <path fill-rule="evenodd" clip-rule="evenodd" d="M85.661 35.3208C82.3029 29.1755 77.8713 28.5417 75.9995 28.7346C76.3023 28.2937 79.6879 28.6519 81.9726 30.4156C83.2938 31.4352 85.661 34.4114 85.661 35.3208Z" fill="#FDC6BD"/>
  <path fill-rule="evenodd" clip-rule="evenodd" d="M85.7165 35.8718C86.3496 36.0372 87.3405 36.7812 86.6524 39.1787C84.8081 37.4977 85.2761 36.3403 85.7165 35.8718Z" fill="#FDC6BD"/>
  <path fill-rule="evenodd" clip-rule="evenodd" d="M85.689 34.2458C86.1844 33.8325 87.3405 33.3916 88.9645 35.293C86.5423 35.8993 85.8266 34.8797 85.689 34.2458Z" fill="#FDC6BD"/>
  <path fill-rule="evenodd" clip-rule="evenodd" d="M84.2299 34.301C84.7529 34.6868 85.441 35.7065 83.9822 37.7181C82.8261 35.5135 83.6519 34.6042 84.2299 34.301Z" fill="#FDC6BD"/>
  <path fill-rule="evenodd" clip-rule="evenodd" d="M84.0649 31.9864C84.3402 31.4077 85.221 30.5534 87.4781 31.6281C85.5238 33.1438 84.4778 32.51 84.0649 31.9864Z" fill="#FDC6BD"/>
  <path fill-rule="evenodd" clip-rule="evenodd" d="M82.6335 31.9861C83.184 32.3168 83.9272 33.3088 82.606 35.4032C81.3123 33.2813 82.0555 32.3168 82.6335 31.9861Z" fill="#FDC6BD"/>
  <path fill-rule="evenodd" clip-rule="evenodd" d="M82.1929 29.8643C82.4681 29.2856 83.349 28.4313 85.6061 29.506C83.6242 31.0217 82.5782 30.3879 82.1929 29.8643Z" fill="#FDC6BD"/>
  <path fill-rule="evenodd" clip-rule="evenodd" d="M80.156 30.2776C80.7616 30.4705 81.7525 31.2145 81.0368 33.5845C79.2477 31.8759 79.7156 30.7461 80.156 30.2776Z" fill="#FDC6BD"/>
  <path fill-rule="evenodd" clip-rule="evenodd" d="M79.3027 28.514C79.4404 27.8801 80.0734 26.833 82.5232 27.329C81.0093 29.2856 79.8257 28.8998 79.3027 28.514Z" fill="#FDC6BD"/>
  <path fill-rule="evenodd" clip-rule="evenodd" d="M77.7889 29.1753C78.422 29.3131 79.4404 30.002 78.8624 32.4271C76.9631 30.8287 77.376 29.6713 77.7889 29.1753Z" fill="#FDC6BD"/>
  <path fill-rule="evenodd" clip-rule="evenodd" d="M76.3301 28.073C76.3301 27.4392 76.7705 26.2818 79.2753 26.3093C78.1468 28.5139 76.9081 28.3761 76.3301 28.073Z" fill="#FDC6BD"/>
  <path d="M58.1354 24.8213H55.5205V34.9073H58.1354V24.8213Z" fill="#5982E0"/>
  <path d="M58.1354 26.3093H55.5205V33.2262H58.1354V26.3093Z" fill="#5982E0"/>
  <path d="M58.1354 24.8213H55.5205V32.9507H58.1354V24.8213Z" fill="#5982E0"/>
  <path opacity="0.4" d="M56.4013 24.8213H55.5205V34.9073H56.4013V24.8213Z" fill="#5982E0"/>
  <path d="M55.5206 24.8213H53.291V34.9073H55.5206V24.8213Z" fill="#417DC4"/>
  <path d="M55.5206 25.1243H53.291V30.1673H55.5206V25.1243Z" fill="#417DC4"/>
  <path d="M55.5206 24.8213H53.291V29.8643H55.5206V24.8213Z" fill="#417DC4"/>
  <path opacity="0.4" d="M54.0342 24.8213H53.291V34.9073H54.0342V24.8213Z" fill="#417DC4"/>
  <path d="M48.0061 25.4551H45.6113V34.9348H48.0061V25.4551Z" fill="#76ADF8"/>
  <path d="M48.0061 26.1438H45.6113V34.2181H48.0061V26.1438Z" fill="#76ADF8"/>
  <path d="M47.7034 32.0137H45.8867V32.3444H47.7034V32.0137Z" fill="#76ADF8"/>
  <path d="M47.7034 31.3799H45.8867V31.7106H47.7034V31.3799Z" fill="#76ADF8"/>
  <path d="M47.7034 30.7737H45.8867V31.1044H47.7034V30.7737Z" fill="#76ADF8"/>
  <path opacity="0.4" d="M47.9789 25.4551H47.1807V34.9348H47.9789V25.4551Z" fill="#76ADF8"/>
  <path d="M53.3733 23.8843H49.9326V34.9072H53.3733V23.8843Z" fill="#3558A2"/>
  <path d="M53.3733 25.4827H49.9326V33.309H53.3733V25.4827Z" fill="#3558A2"/>
  <path d="M53.3733 25.8411H49.9326V32.9784H53.3733V25.8411Z" fill="#3558A2"/>
  <path opacity="0.4" d="M53.3734 23.8843H52.2173V34.9072H53.3734V23.8843Z" fill="#3558A2"/>
  <path d="M49.9053 24.8213H47.6758V34.9073H49.9053V24.8213Z" fill="#417DC4"/>
  <path d="M49.9053 25.1243H47.6758V30.1673H49.9053V25.1243Z" fill="#417DC4"/>
  <path d="M49.9053 24.8213H47.6758V29.8643H49.9053V24.8213Z" fill="#417DC4"/>
  <path opacity="0.4" d="M49.9053 24.8213H49.1621V34.9073H49.9053V24.8213Z" fill="#417DC4"/>
  <path opacity="0.35" d="M210.482 -13.0056H162.986V39.3669H210.482V-13.0056Z" fill="#E5E5E5"/>
  <path d="M208.448 -13.3564H162.916V37.2622H208.448V-13.3564Z" fill="#A9C8FB"/>
  <path d="M183.086 -13.3564V6.0421H196.521L208.483 16.1448V-13.3564H183.086Z" fill="#BCD3FC"/>
  <path d="M208.904 16.0044H163.372V17.4075H208.904V16.0044Z" fill="white"/>
  <path opacity="0.63" d="M167.546 -12.9355H167.23V12.0054H167.546V-12.9355Z" fill="#E5E5E5"/>
  <g opacity="0.63">
  <path opacity="0.63" d="M208.693 1.90283H163.652V2.21854H208.693V1.90283Z" fill="#E5E5E5"/>
  </g>
  <path opacity="0.63" d="M207.992 16.1448H164.599V-13.3564H162.916V16.1448V18.2144V37.2622H164.599V18.2144H207.992V16.1448Z" fill="#E5E5E5"/>
  <path d="M209.36 38.1392H162.074V-14.2334H209.36V38.1392ZM163.793 36.3852H207.571V-12.4795H163.793V36.3852Z" fill="#F3F6FE"/>
  <path d="M208.448 15.8992H162.916V17.3023H208.448V15.8992Z" fill="#F3F6FE"/>
  <path d="M167.3 -13.3564H166.704V13.8997H167.3V-13.3564Z" fill="#F3F6FE"/>
  <path d="M207.957 1.3064H162.916V1.90273H207.957V1.3064Z" fill="#F3F6FE"/>
  </g>
  <defs>
  <clipPath id="clip0_2857_16892">
  <rect width="282" height="158.63" fill="white"/>
  </clipPath>
  </defs>
  </svg>
