<svg width="282" height="159" viewBox="0 0 282 159" fill="none" xmlns="http://www.w3.org/2000/svg">
  <g clip-path="url(#clip0_2857_19207)">
  <path d="M394.136 -30H-228.996V56.8899H394.136V-30Z" fill="#FEF4F3"/>
  <path d="M-235.034 25.0716C-234.991 24.9003 -234.991 24.6862 -234.948 24.5149C-149.515 30.5531 -64.1235 37.9616 21.0106 47.4257C60.2374 51.3655 96.7234 49.4813 136.207 48.8389C176.547 48.1966 220.014 47.4685 260.311 46.4408C307.76 45.2417 354.181 53.0785 401.288 57.1039V95.7312L-233.321 95.6884C-234.82 81.1282 -236.704 39.6318 -235.034 25.0716Z" fill="#FDC6C0"/>
  <path d="M-263.983 75.7752C-263.983 75.6896 -249.851 36.7198 -238.889 36.3772C-186.215 34.7499 -60.6551 29.4397 -8.0672 32.5231C96.4662 38.6897 237.014 89.1363 341.805 91.7914C355.037 92.134 368.27 92.3481 381.503 92.4766C387.841 92.5194 394.221 92.4766 400.559 92.5622C405.955 92.6479 406.812 91.7486 408.525 95.8596C411.736 103.568 408.525 119.498 408.525 127.764C408.525 148.961 408.525 170.159 408.525 191.357V191.4H-247.282C-247.282 191.4 -263.983 75.8609 -263.983 75.7752Z" fill="#FAA191"/>
  <path d="M-108.919 222.233L-110.416 193.027C-45.2159 184.796 23.2583 173.636 105.062 157.648C188.691 141.343 272.459 139.997 354.123 153.453C355.152 153.611 356.181 153.769 357.21 153.928C370.68 156.223 383.402 158.36 395.704 153.294L400.474 181.63C384.852 187.962 369.792 185.429 355.246 182.975C354.217 182.817 353.235 182.659 352.206 182.5C271.992 169.283 189.626 170.628 107.448 186.616C25.3162 202.762 -43.3918 214.002 -108.919 222.233Z" fill="#FA7659"/>
  <path d="M162.092 2.01221H-37.5146V137.288H162.092V2.01221Z" fill="#F5F5FE"/>
  <path d="M-42.5324 13.6318L160.93 15.4298L162.103 15.5441V7.22134L158.843 9.4704C158.843 9.4704 152.192 2.83148 142.673 9.35618C142.673 9.35618 134.976 2.94573 125.847 9.35618C125.847 9.35618 117.759 2.60898 109.021 9.35618C109.021 9.35618 101.979 2.9457 92.3275 9.24188C92.3275 9.24188 84.8947 2.49472 75.243 9.35618C75.243 9.35618 68.4597 2.38046 58.9403 9.35618C58.9403 9.35618 51.3753 2.49468 41.9881 9.4704C41.9881 9.4704 34.1645 2.27218 25.6854 9.4704C25.6854 9.4704 18.5112 2.38647 8.85941 9.35618C8.85941 9.35618 1.42671 2.60894 -7.70185 9.4704C-7.70185 9.4704 -14.7437 2.7232 -24.5278 9.2479C-24.5278 9.2479 -29.483 2.72324 -40.8306 9.3622C-52.1781 16.0012 -42.5263 13.6378 -42.5263 13.6378L-42.5324 13.6318Z" fill="#5982E0"/>
  <path d="M-33.0596 7.13991C-29.1268 7.13991 -25.8434 8.36669 -25.0496 10.0084H-24.34C-23.5402 8.3727 -20.2628 7.15195 -16.336 7.15195C-12.4092 7.15195 -9.13775 8.37871 -8.33194 10.0084H-7.61034C-6.79851 8.37871 -3.53313 7.16399 0.381691 7.16399C4.29651 7.16399 7.56182 8.38473 8.37365 10.0084H9.11337C9.93723 8.38473 13.1965 7.17603 17.0993 7.17603C21.0021 7.17603 24.2675 8.39074 25.0853 10.0084H25.837C26.6669 8.39074 29.9202 7.18205 33.817 7.18205C37.7138 7.18205 40.9671 8.39074 41.797 10.0084H42.5607C43.4026 8.39676 46.6499 7.19409 50.5347 7.19409C54.4194 7.19409 57.6668 8.39676 58.5087 10.0084H59.2844C60.1323 8.40277 63.3736 7.20605 67.2523 7.20605C71.1311 7.20605 74.3724 8.40277 75.2203 10.0084H76.0081C76.868 8.40878 80.1033 7.21809 83.97 7.21809C87.8367 7.21809 91.072 8.40878 91.9319 10.0084H92.7317C93.5977 8.41479 96.8269 7.23013 100.688 7.23013C104.548 7.23013 107.778 8.41479 108.644 10.0084H109.461C110.339 8.42081 113.563 7.24217 117.411 7.24217C121.26 7.24217 124.483 8.42081 125.361 10.0084H126.191C127.075 8.42682 130.292 7.25421 134.135 7.25421C137.978 7.25421 141.189 8.42682 142.079 10.0084H142.921C143.817 8.43283 147.022 7.26023 150.859 7.26023C154.695 7.26023 157.901 8.42682 158.797 10.0084H159.65C160.553 8.43885 163.758 7.27227 167.582 7.27227C171.407 7.27227 174.606 8.43283 175.514 10.0084H175.953L111.452 -44.8833H-40.5586V9.31079C-39.2897 8.03592 -36.4152 7.13991 -33.0657 7.13991H-33.0596Z" fill="#76ADF8"/>
  <path d="M155.936 22.8457H80.0059V130.073H155.936V22.8457Z" fill="#FDDFDB"/>
  <path d="M155.936 89.9932H80.0059V130.081H155.936V89.9932Z" fill="#F6F6F6"/>
  <path d="M72.2075 22.8457H-7.66064V130.073H72.2075V22.8457Z" fill="#FDDFDB"/>
  <path d="M72.2075 89.9932H-7.66064V130.081H72.2075V89.9932Z" fill="#F6F6F6"/>
  <path d="M33.1308 32.8836C33.8069 32.8836 34.3549 32.3559 34.3549 31.7049C34.3549 31.0539 33.8069 30.5261 33.1308 30.5261C32.4548 30.5261 31.9067 31.0539 31.9067 31.7049C31.9067 32.3559 32.4548 32.8836 33.1308 32.8836Z" fill="#FDC6C0"/>
  <path d="M27.5996 31.7276L33.176 27.3752L38.7298 31.7276H27.5996Z" fill="#A94645"/>
  <path d="M33.1546 27.6619C33.0462 27.6657 32.9633 27.6196 32.9881 27.5535L33.0238 22.3627C33.0216 22.2975 33.1011 22.2458 33.2095 22.242C33.3179 22.2382 33.4008 22.2842 33.4031 22.3494L33.3674 27.5402C33.3423 27.5982 33.2356 27.6509 33.1546 27.6619Z" fill="#A94645"/>
  <path d="M23.8189 44.5044H-5.49023V73.8135H23.8189V44.5044Z" fill="#A94645"/>
  <path d="M22.5752 45.7478H-4.24707V72.5701H22.5752V45.7478Z" fill="#FEF4F3"/>
  <path d="M21.611 46.7122H-3.30811V71.6312H21.611V46.7122Z" fill="#FCBFB7"/>
  <path d="M21.6111 59.1971C21.6111 59.1971 20.2916 64.1708 13.4909 63.0542C4.12719 61.5063 8.59334 52.6755 4.10182 57.37C-0.389705 62.0646 8.00972 61.0495 2.73155 64.2976C-2.54663 67.5457 -3.81543 70.0072 -3.81543 70.0072V71.6312H21.6111V59.1971Z" fill="#FEF7DA"/>
  <path d="M13.0596 66.8097C13.0596 66.8097 13.1104 62.5466 10.6236 57.7506C8.13672 52.9545 10.6743 47.7017 11.6132 49.478C12.5521 51.2544 11.9177 56.6087 13.2626 59.1462C14.6329 61.7092 16.8914 65.3633 15.3688 65.9977C13.8463 66.6575 13.0596 66.8097 13.0596 66.8097Z" fill="#FA7659"/>
  <path d="M4.96443 46.7122C4.96443 46.7122 -0.38987 49.9349 1.15806 53.2337C2.70598 56.5326 1.2342 57.8014 -0.668992 59.1717C-2.57218 60.5674 -3.28271 63.5363 -3.28271 63.5363C-3.28271 63.5363 -0.262991 49.8588 -3.28271 46.7122H4.96443Z" fill="#FB907D"/>
  <path d="M119.496 88.9077H119.778V116.027H101.098H100.78V88.9077H119.496Z" fill="#FDDFDB"/>
  <path d="M119.778 88.9078L117.554 86.4006H103.005L100.78 88.9078H119.778Z" fill="#FEF4F3"/>
  <path d="M108.585 87.0009C105.76 85.3059 103.676 79.3028 103.676 76.5132C103.676 73.7588 105.689 71.4635 108.408 70.7573V67.4732H107.313V66.7317H112.999V67.4732H111.904V70.7573C114.623 71.4635 116.636 73.7941 116.636 76.5132C116.636 79.3381 114.517 85.3059 111.657 87.0009C113.069 87.0715 114.058 87.2481 114.058 87.4599C114.058 87.7424 112.292 87.9543 110.138 87.9543C107.984 87.9543 106.219 87.7424 106.219 87.4599C106.219 87.2481 107.207 87.0715 108.585 87.0009Z" fill="#FA7659"/>
  <path d="M106.501 76.2659C106.501 77.894 108.06 79.3028 110.103 79.3028C112.145 79.3028 113.704 77.894 113.704 76.2659C113.704 74.6378 112.145 73.2291 110.103 73.2291C108.06 73.2291 106.501 74.6378 106.501 76.2659Z" stroke="#A94645" stroke-width="0.706243"/>
  <path d="M96.2607 96.3589C97.426 96.9592 98.6619 97.5242 99.9332 97.9479C106.501 100.279 113.952 100.279 120.52 98.0186C121.862 97.5595 123.169 96.9945 124.404 96.3589L125.358 97.4183C124.087 98.0892 122.745 98.6542 121.368 99.1486C117.942 100.349 114.199 100.985 110.35 100.985C106.431 100.985 102.652 100.349 99.1563 99.0779C97.8498 98.6189 96.5785 98.0539 95.3426 97.4183L96.2607 96.3589Z" fill="white"/>
  <path d="M121.262 116.628C121.65 116.239 122.498 115.992 123.486 115.992H124.581V97.0296V96.3586H125.746H126.947V97.0296V115.992H128.042C129.03 115.992 129.878 116.275 130.266 116.628C130.407 116.769 130.478 116.91 130.478 117.087V117.228H121.085V117.087C121.085 116.91 121.156 116.769 121.262 116.628Z" fill="#A94645"/>
  <path d="M123.875 96.0054H125.04V92.1917H126.488V96.0054H127.618C127.794 96.0054 127.936 96.1466 127.936 96.3232C127.936 96.4997 127.794 96.641 127.618 96.641H126.488V97.1H125.04V96.641H123.875C123.698 96.641 123.557 96.4997 123.557 96.3232C123.557 96.1466 123.698 96.0054 123.875 96.0054Z" fill="#DA8A89"/>
  <path d="M124.828 89.0137C125.111 88.9078 125.428 88.8372 125.782 88.8372C126.77 88.8372 127.582 89.4022 127.9 90.179C127.971 90.3909 128.042 90.6028 128.042 90.8499C128.042 91.9446 127.053 92.8274 125.817 92.8274C124.581 92.8274 123.592 91.9446 123.592 90.8499C123.557 90.0378 124.051 89.3315 124.828 89.0137Z" fill="white"/>
  <path d="M90.6458 116.451C91.0343 116.063 91.8817 115.816 92.8705 115.816H93.9652V96.8531V96.1821H95.1305H96.3311V96.8531V115.816H97.4258C98.4145 115.816 99.262 116.098 99.6504 116.451C99.7917 116.593 99.8623 116.734 99.8623 116.91V117.052H90.4693V116.91C90.434 116.734 90.5399 116.593 90.6458 116.451Z" fill="#A94645"/>
  <path d="M93.2589 95.8288H94.4242V92.0151H95.872V95.8288H97.002C97.1786 95.8288 97.3198 95.9701 97.3198 96.1467C97.3198 96.3232 97.1786 96.4645 97.002 96.4645H95.872V96.9235H94.4242V96.4645H93.2589C93.0824 96.4645 92.9411 96.3232 92.9411 96.1467C92.9411 95.9701 93.0824 95.8288 93.2589 95.8288Z" fill="#DA8A89"/>
  <path d="M94.2124 88.8372C94.4949 88.7313 94.8127 88.6606 95.1658 88.6606C96.1545 88.6606 96.9667 89.2256 97.2845 90.0025C97.3551 90.2144 97.4258 90.4263 97.4258 90.6734C97.4258 91.7681 96.4371 92.6509 95.2011 92.6509C93.9652 92.6509 92.9765 91.7681 92.9765 90.6734C92.9058 89.8613 93.4355 89.155 94.2124 88.8372Z" fill="white"/>
  <path d="M27.945 74.4651L34.1953 95.9349L37.1262 112.073H40.0571L37.1262 74.4651H27.945Z" fill="#FFCAA7"/>
  <path d="M25.1556 74.4651C25.5793 85.6237 25.4028 91.6974 25.3321 92.7215C25.2615 93.7455 24.6965 100.525 20.9181 112.39H23.9903C28.9693 100.985 30.6996 94.2046 31.2999 92.7215C31.8649 91.2384 33.5599 85.1294 36.0317 74.4651H25.1556Z" fill="#FFCAA7"/>
  <path d="M27.8039 74.4651C29.4283 81.8453 32.2179 93.6396 36.2082 109.848H40.5163C40.8341 93.2158 39.4922 82.2691 37.1263 74.4651H27.8039Z" fill="#5982E0"/>
  <path d="M25.1201 74.4651C25.5438 85.6237 24.4492 96.6058 21.0239 110.024H25.6145C30.5935 98.7952 34.1953 87.8484 36.6318 74.4651H25.1201Z" fill="#76ADF8"/>
  <path d="M20.4588 114.615L20.6353 111.896C21.6241 112.178 22.86 112.072 24.3431 111.543C25.9322 112.673 27.9449 113.45 30.3815 113.873C30.558 113.909 30.6993 114.085 30.664 114.262V114.297L30.4168 115.109H24.3431H20.8119L20.4588 114.615Z" fill="#A94645"/>
  <path d="M36.4553 114.615L36.6319 111.896C37.6206 112.178 38.8566 112.072 40.3397 111.543C41.9287 112.673 43.9416 113.45 46.3781 113.873C46.5547 113.909 46.6959 114.085 46.6606 114.262V114.297L46.4134 115.109H40.3397H36.8085L36.4553 114.615Z" fill="#A94645"/>
  <path d="M30.2399 53.3131C29.463 52.3949 28.9333 51.265 29.004 49.9937C29.2512 46.3566 34.3361 47.1687 35.3249 49.005C36.3136 50.8412 36.2077 55.5024 34.9364 55.8202C34.4421 55.9615 33.3474 55.6437 32.2527 54.9727L32.959 59.8811H28.8627L30.2399 53.3131Z" fill="#FFCAA7"/>
  <path d="M32.429 50.4174C32.5703 52.6068 32.994 53.6662 33.665 53.6662C34.6537 53.6662 35.5365 53.0306 35.9603 53.0306C36.2781 53.0306 36.2074 53.419 35.9956 53.7368C35.819 53.984 34.9715 54.2312 34.9715 54.6196C34.9715 55.008 35.6424 54.6902 35.6424 54.9374C35.6424 55.3258 35.7484 56.0321 35.1128 56.0321C34.4418 56.0321 32.5703 55.7849 32.2525 54.8315C32.0406 54.1958 31.8993 52.8893 31.864 50.9118C31.8287 50.9118 31.7934 50.9118 31.7581 50.9118C31.1931 50.9118 30.734 51.3709 30.734 51.9359C30.734 52.2184 30.84 52.4656 31.0519 52.6774C30.8047 52.9952 30.5575 53.3484 30.2397 53.7015C29.1097 53.0305 28.0856 51.0178 29.2156 49.1109C29.5334 48.1575 30.3809 47.6631 31.2284 47.4159C31.8993 47.1334 32.5703 47.0981 33.1706 47.2747C34.3006 47.3806 35.3246 47.7337 35.6424 47.9456C35.6424 49.0403 35.4305 49.3581 33.6296 49.3228C33.0999 49.4993 32.7822 49.8878 32.429 50.4174Z" fill="#AC5419"/>
  <path d="M35.8546 51.053C35.7487 51.7239 36.6314 52.2183 36.5961 52.8539C36.3136 52.9245 36.0311 52.9951 35.7486 53.0305" fill="#FFCAA7"/>
  <path d="M35.5366 50.6293C35.3601 50.4174 35.1129 50.3821 34.8657 50.4174C34.7597 50.4528 34.6185 50.4881 34.5126 50.594C34.4066 50.6646 34.336 50.8059 34.3713 50.9471C34.4773 50.8765 34.5832 50.8412 34.6538 50.8412C34.7244 50.8059 34.8304 50.8059 34.901 50.7706C35.1129 50.6999 35.2894 50.6999 35.5366 50.6293Z" fill="#AC5419"/>
  <path d="M35.1836 51.4416C35.0666 51.4416 34.9718 51.3467 34.9718 51.2297C34.9718 51.1127 35.0666 51.0178 35.1836 51.0178C35.3007 51.0178 35.3955 51.1127 35.3955 51.2297C35.3955 51.3467 35.3007 51.4416 35.1836 51.4416Z" fill="#AC5419"/>
  <path d="M40.6575 73.476L45.6718 76.4422C46.9431 78.4197 47.6493 79.2672 47.8965 79.02C48.2143 78.6316 47.6846 78.1372 47.8965 77.8194C48.1084 77.5016 49.0971 77.6782 50.0152 77.89C50.9686 78.1019 50.7568 77.6429 50.5449 77.3957C49.6621 76.6894 48.4968 76.0185 47.0843 75.4182L42.2818 70.7217L40.6575 73.476ZM18.6934 82.2334C18.4462 82.7278 16.6452 84.2462 15.4093 85.0937C14.9149 85.4468 15.1268 85.8706 15.3034 86.0118C16.8571 86.9653 17.8459 85.8353 19.1877 85.1997C20.6355 84.5287 20.5296 86.4356 21.6949 85.9059C21.3418 85.0937 20.4943 83.6106 20.8827 82.6572C21.0593 82.2334 22.2599 78.455 24.4492 71.3926H20.8827C19.7527 77.9254 19.0112 81.5625 18.6934 82.2334Z" fill="#FFCAA7"/>
  <path d="M30.9822 56.4557L32.4653 56.2085C35.0078 62.5294 39.4218 68.2852 45.7427 73.4408L40.9755 79.232C34.6193 71.8518 30.735 64.2597 30.9822 56.4557Z" fill="#CE614A"/>
  <path d="M30.0115 56.2472L31.4946 56C34.0371 62.3209 38.4511 68.0768 44.772 73.2323L40.0048 79.0235" stroke="#76ADF8" stroke-width="0.5"/>
  <path d="M24.555 74.924H37.6558C34.6189 67.5437 33.1005 61.2935 33.1005 56.1379L29.1455 55.5376C26.0381 60.5166 25.1906 66.6609 24.555 74.924Z" fill="white"/>
  <path d="M29.0749 55.5376H29.3221C29.6399 55.5376 30.099 55.5729 30.7346 55.6082L31.688 58.3273C31.7939 61.6466 32.3942 68.3559 33.4536 78.4199H24.8728C24.9081 79.1261 24.9434 79.8324 24.9787 80.5386H18.5872C19.5759 69.7684 23.0366 61.4347 29.0749 55.5376Z" fill="#CE614A"/>
  <path d="M32.5936 77.1226C31.5149 67.0606 31.4631 61.9778 31.3507 58.6587L30.3921 55.9415C29.7564 55.9074 29.2973 55.873 28.9795 55.8736L28.7323 55.8741C22.7053 61.7828 19.2607 70.1231 18.2927 80.8952L22.9587 80.7284" stroke="#76ADF8" stroke-width="0.5"/>
  <path d="M25.4377 69.5212C25.6849 73.8646 26.2852 76.8662 27.2739 78.4905H24.8727C24.7668 75.3831 24.9787 72.3815 25.4377 69.5212Z" fill="#A94645"/>
  <path d="M26.7801 73.2289L31.0176 71.2515V73.2289H26.7801Z" fill="#DA8A89"/>
  <path d="M132.808 67.9446H128.673V70.3391H132.808V67.9446Z" fill="white"/>
  <path d="M131.767 68.48H129.12V68.599H131.767V68.48Z" fill="#A94645"/>
  <path d="M131.365 68.8816H129.12V69.0006H131.365V68.8816Z" fill="#A94645"/>
  <path d="M129.774 69.313H129.12V69.432H129.774V69.313Z" fill="#A94645"/>
  <path d="M143.769 49.9192H128.673V65.0148H143.769V49.9192Z" fill="#A94645"/>
  <path d="M143.159 50.5288H129.283V64.4049H143.159V50.5288Z" fill="#FEF4F3"/>
  <path d="M130.027 51.2725V63.6762H142.431V51.2725H130.027ZM131.395 57.4892C131.395 56.9984 131.499 56.5373 131.693 56.1209C132.213 54.9906 133.343 54.2172 134.667 54.2172C135.128 54.2172 135.574 54.3213 135.976 54.4998C135.158 54.8567 134.518 55.5409 134.221 56.3737C134.727 56.0317 135.351 55.8383 136.006 55.8383C136.63 55.8383 137.225 56.0168 137.716 56.3291C137.82 56.6117 137.894 56.8943 137.924 57.2066C137.404 58.3369 136.273 59.1103 134.95 59.1103C134.771 59.1103 134.608 59.0954 134.429 59.0657C134.176 58.6046 134.028 58.0543 134.028 57.4892C134.028 57.0876 134.102 56.7158 134.221 56.3737C133.537 56.8199 133.031 57.5189 132.823 58.3369C132.763 58.5898 132.734 58.8426 132.734 59.1103C132.734 59.5267 132.808 59.9134 132.942 60.2852C132.005 59.7052 131.395 58.6641 131.395 57.4892Z" fill="#755348"/>
  <path d="M142.431 51.2725H130.027V63.6762H142.431V51.2725Z" fill="#FDDFDB"/>
  <path d="M136.005 55.8383C135.351 55.8383 134.741 56.0316 134.221 56.3737C134.533 55.5408 135.173 54.8567 135.976 54.4998C136.779 54.8418 137.403 55.5111 137.716 56.3291C137.21 56.0168 136.63 55.8383 136.005 55.8383Z" fill="#FA7659"/>
  <path d="M137.924 57.4892C137.924 58.8278 137.121 59.9729 135.976 60.4786C135.574 60.6571 135.128 60.7612 134.667 60.7612C134.042 60.7612 133.448 60.5827 132.957 60.2853C132.823 59.9283 132.749 59.5268 132.749 59.1103C132.749 58.8426 132.778 58.5749 132.838 58.337C133.031 57.519 133.537 56.82 134.236 56.3738C134.102 56.7307 134.042 57.1025 134.042 57.4892C134.042 58.0544 134.191 58.6047 134.444 59.0657C134.608 59.0955 134.786 59.1103 134.965 59.1103C136.288 59.1103 137.419 58.3221 137.939 57.2066C137.924 57.2959 137.924 57.3851 137.924 57.4892Z" fill="#FA7659"/>
  <path d="M134.444 58.9317C134.607 58.9615 134.771 58.9764 134.935 58.9764C136.139 58.9764 137.255 58.2774 137.76 57.1917C137.731 56.9388 137.671 56.6711 137.582 56.4332C137.106 56.1506 136.541 56.0019 135.991 56.0019C135.381 56.0019 134.786 56.1803 134.28 56.5075L133.923 56.7455L134.072 56.3439C134.384 55.4813 135.054 54.7674 135.901 54.3956C136.333 54.2023 136.794 54.113 137.27 54.113C137.448 54.113 137.627 54.1279 137.805 54.1577C139.471 54.4254 140.675 55.8383 140.675 57.5189C140.675 58.6789 140.095 59.7497 139.129 60.3744C138.578 60.7313 137.939 60.9247 137.27 60.9247C136.794 60.9247 136.333 60.8354 135.901 60.6421C135.217 60.3446 134.652 59.8241 134.28 59.1697L134.444 58.9317ZM134.697 59.2441C135.024 59.7349 135.485 60.1215 136.035 60.3595C136.437 60.538 136.853 60.6272 137.299 60.6272C137.909 60.6272 138.504 60.4487 139.01 60.1215C139.902 59.5415 140.438 58.5599 140.438 57.504C140.438 55.9572 139.337 54.6633 137.805 54.4105C137.641 54.3807 137.478 54.3659 137.314 54.3659C136.883 54.3659 136.452 54.4551 136.05 54.6336C135.396 54.9162 134.86 55.4218 134.533 56.0465C134.994 55.8234 135.5 55.7044 136.02 55.7044C136.645 55.7044 137.27 55.8829 137.805 56.2101L137.85 56.2398L137.865 56.2844C137.984 56.5819 138.043 56.8942 138.073 57.2065V57.2363L138.058 57.266C137.508 58.4707 136.288 59.2589 134.964 59.2589C134.86 59.2441 134.771 59.2441 134.697 59.2441Z" fill="#D5706F"/>
  <path d="M137.791 56.1953C137.939 56.2846 138.073 56.3887 138.207 56.5076C138.966 57.162 139.412 58.099 139.412 59.1103C139.412 59.5119 139.337 59.9135 139.203 60.2853C138.713 61.6238 137.419 62.531 136.006 62.531C134.608 62.531 133.329 61.6535 132.823 60.3448C132.674 59.9581 132.6 59.5416 132.6 59.1252C132.6 58.8426 132.63 58.5749 132.704 58.3072C132.912 57.4595 133.418 56.7307 134.162 56.2548L134.519 56.0168L134.37 56.4184C134.251 56.7605 134.177 57.1174 134.177 57.4892C134.177 57.9949 134.296 58.4857 134.534 58.9319C134.682 58.9467 134.816 58.9616 134.965 58.9616C136.169 58.9616 137.285 58.2626 137.791 57.1769C137.761 56.9092 137.701 56.6266 137.597 56.3738L137.791 56.1953ZM133.968 56.7307C133.478 57.162 133.121 57.7272 132.972 58.3667C132.912 58.6047 132.883 58.8575 132.883 59.1103C132.883 59.497 132.957 59.8688 133.091 60.2258C133.552 61.4305 134.727 62.2336 136.021 62.2336C137.33 62.2336 138.504 61.4156 138.966 60.1812C139.085 59.8391 139.159 59.4822 139.159 59.1103C139.159 58.1882 138.757 57.3256 138.058 56.7307C138.043 56.7159 138.029 56.701 137.999 56.6861C138.043 56.8497 138.073 57.0282 138.088 57.1918V57.2215L138.073 57.2513C137.523 58.4559 136.303 59.2442 134.98 59.2442C134.801 59.2442 134.623 59.2293 134.444 59.1996L134.37 59.1847L134.34 59.1252C134.058 58.6195 133.924 58.0544 133.924 57.4744C133.879 57.2364 133.909 56.9836 133.968 56.7307Z" fill="#D5706F"/>
  <path d="M137.82 57.7419L137.775 57.2065C137.746 56.9388 137.686 56.6711 137.597 56.4034C137.121 56.1208 136.556 55.9721 136.005 55.9721C135.396 55.9721 134.801 56.1505 134.295 56.4777L133.938 56.7157L134.087 56.3141C134.369 55.5408 134.92 54.9012 135.619 54.5146C135.306 54.4104 134.979 54.3658 134.652 54.3658C133.432 54.3658 132.317 55.0797 131.811 56.1951L131.588 56.6859L131.544 56.1505C131.529 56.0464 131.529 55.9423 131.529 55.8531C131.529 53.9791 133.061 52.4473 134.935 52.4473C136.184 52.4473 137.329 53.1165 137.924 54.2171C138.207 54.7228 138.34 55.2879 138.34 55.868C138.34 56.1505 138.311 56.4182 138.236 56.6859C138.192 56.8942 138.117 57.1024 138.028 57.2957L137.82 57.7419ZM136.005 55.6895C136.63 55.6895 137.255 55.868 137.79 56.1951L137.835 56.2249L137.85 56.2695C137.894 56.3885 137.939 56.5223 137.969 56.6413C137.969 56.6116 137.984 56.5967 137.984 56.567C138.043 56.329 138.073 56.0762 138.073 55.8233C138.073 55.3028 137.939 54.7674 137.686 54.3212C137.136 53.3247 136.08 52.7001 134.949 52.7001C133.314 52.7001 131.96 53.9791 131.826 55.5854C132.451 54.6484 133.522 54.0684 134.667 54.0684C135.143 54.0684 135.604 54.1725 136.035 54.351L136.333 54.4848L136.035 54.6187C135.381 54.9012 134.845 55.4069 134.518 56.0316C134.979 55.8085 135.485 55.6895 136.005 55.6895Z" fill="#FB907D"/>
  <path fill-rule="evenodd" clip-rule="evenodd" d="M78.4096 15.554H-97.9165V137.633H161.89V15.554H78.4096ZM-92.0527 130.023V22.7618H-16.148V130.023H-92.0527ZM-7.71606 130.023V22.7618H71.6898V130.023H-7.71606ZM80.1217 130.023V22.7618H155.17V130.023H80.1217Z" fill="white"/>
  <path d="M221.232 114.292C222.784 119.508 251.887 129.942 252.081 130.329C252.275 130.522 250.917 137.284 248.201 150.81L250.529 151.196C255.961 136.318 258.289 128.203 257.513 127.044C256.543 125.112 248.395 120.088 233.455 111.78L221.232 114.292Z" fill="#E8A16D"/>
  <path d="M257.465 135.268C256.559 138.901 254.8 143.368 251.948 148.412L248.464 147.891C248.759 142.891 249.377 138.923 249.878 136.17C250.005 135.471 250.124 134.85 250.229 134.31C250.246 134.222 250.263 134.136 250.279 134.052C250.363 133.622 250.436 133.248 250.493 132.934C250.561 132.559 250.609 132.259 250.628 132.043C250.637 131.937 250.64 131.837 250.629 131.755C250.624 131.713 250.615 131.663 250.593 131.615C250.574 131.572 250.54 131.516 250.478 131.475C250.444 131.451 250.411 131.437 250.398 131.431C250.369 131.418 250.337 131.407 250.303 131.396C250.236 131.374 250.146 131.349 250.039 131.321C249.825 131.264 249.523 131.192 249.15 131.103C249.076 131.086 248.999 131.068 248.92 131.049C248.192 130.877 247.227 130.649 246.092 130.358C243.575 129.713 240.226 128.762 236.795 127.439C233.362 126.114 229.857 124.422 227.021 122.297C224.261 120.23 222.156 117.771 221.346 114.865L234.004 112.043C241.528 115.888 247.265 119.106 251.243 121.651C253.239 122.928 254.788 124.033 255.895 124.959C257.007 125.89 257.641 126.614 257.862 127.132C258.418 128.805 258.381 131.595 257.465 135.268Z" fill="#5982E0" stroke="#76ADF8" stroke-width="0.5"/>
  <path d="M247.424 150.617C247.036 151.197 246.842 151.777 246.842 151.97C246.842 152.356 246.842 152.936 246.842 153.709C247.23 153.709 251.498 154.289 259.453 155.448C259.841 154.482 259.841 153.902 259.065 153.709C258.289 153.516 257.707 153.323 257.319 153.323L251.692 150.038C251.498 150.038 251.498 150.038 251.304 150.038L250.722 150.811C249.946 151.004 249.558 151.197 248.976 151.004C248.588 151.004 248.2 150.811 247.618 150.424C247.812 150.424 247.424 150.424 247.424 150.617Z" fill="#A94645"/>
  <path d="M222.784 111.587L211.143 139.604L199.696 163.176H202.412L231.903 111.587H222.784Z" fill="#E8A16D"/>
  <path d="M206.937 158.499C206.806 158.689 206.683 158.868 206.568 159.035L201.07 157.975C202.156 156.156 203.384 153.083 204.716 149.358C205.687 146.64 206.719 143.56 207.797 140.344C208.287 138.881 208.787 137.39 209.295 135.892C210.919 131.098 212.627 126.232 214.376 121.974C216.102 117.771 217.862 114.179 219.611 111.837H232.577C232.004 115.042 230.435 119.106 228.31 123.528C226.123 128.08 223.357 132.993 220.509 137.711C215.159 146.576 209.53 154.739 206.937 158.499Z" fill="#76ADF8" stroke="#5982E0" stroke-width="0.5"/>
  <path d="M224.142 82.798C223.172 81.6387 222.396 80.0929 222.59 78.354C222.978 73.5236 229.574 74.6829 230.932 77.0015C232.29 79.3201 232.096 85.503 230.35 86.0826C229.768 86.2759 228.216 85.8894 226.858 84.9233L227.828 91.2995H222.396L224.142 82.798Z" fill="#E8A16D"/>
  <path d="M227.052 78.933C227.246 81.8312 227.828 83.1837 228.604 83.1837C229.962 83.1837 231.127 82.4109 231.709 82.4109C232.097 82.4109 232.097 82.9905 231.709 83.377C231.515 83.7634 230.35 83.9566 230.35 84.5363C230.35 85.1159 231.321 84.7295 231.321 84.9227C231.321 85.5023 231.515 86.2752 230.544 86.2752C229.768 86.2752 227.246 85.8888 226.664 84.7295C226.47 83.9566 226.276 82.2177 226.082 79.5126H225.888C225.112 79.5126 224.53 80.0923 224.53 80.8651C224.53 81.2516 224.724 81.638 224.918 81.8312C224.53 82.2177 224.336 82.7973 223.948 83.1837C222.396 82.2177 221.232 79.7058 222.784 77.194C223.172 76.0347 224.142 75.2619 225.112 75.0686C226.082 74.489 227.052 74.489 227.828 74.6822C229.38 74.8754 230.738 75.2619 231.127 75.4551C231.127 76.8076 230.933 77.3872 228.41 77.194C227.828 77.7737 227.44 78.1601 227.052 78.933Z" fill="#49220A"/>
  <path d="M241.022 104.439L249.171 100.961C250.529 99.6083 251.887 98.449 253.245 97.6761C253.633 97.4829 254.409 97.4829 253.633 98.6422C252.857 99.6083 252.275 100.768 252.469 101.154C252.663 101.54 253.633 101.154 254.021 101.734C254.215 102.12 252.857 102.7 249.753 103.086L243.544 107.723L241.022 104.439ZM208.039 105.405L212.695 106.371C208.039 115.066 205.516 119.51 205.322 120.089C204.546 121.249 205.322 123.374 205.516 124.533C203.964 124.92 204.546 122.408 202.412 122.987C200.472 123.374 198.92 124.726 197.174 122.987C196.98 122.794 196.785 122.215 197.562 121.828C199.308 121.055 202.218 119.51 202.606 118.93C202.994 118.157 204.934 113.713 208.039 105.405Z" fill="#E8A16D"/>
  <path d="M225.306 88.208L227.247 87.8215C231.515 91.8791 233.261 101.733 235.977 103.086C238.694 104.245 242.38 103.086 247.036 101.54L248.395 104.631C244.32 109.075 235.589 112.746 232.097 110.621C226.276 107.336 225.112 95.1638 225.306 88.208Z" fill="#FDC6C0"/>
  <path d="M216.769 112.554C224.53 112.554 230.35 112.554 234.037 112.554C234.813 112.554 234.619 111.394 234.619 110.815C233.261 104.245 228.216 97.0962 228.216 87.6286L223.172 86.8557C218.903 93.6183 217.545 101.733 216.769 112.554Z" fill="white"/>
  <path d="M215.024 105.984C211.531 112.36 208.621 116.804 206.099 119.702L202.606 118.929C204.935 104.631 211.725 94.0041 222.784 87.0483H224.725C229.187 102.119 230.351 112.36 228.411 117.383H212.889C213.083 113.712 213.86 109.848 215.024 105.984Z" fill="#FEE9E6"/>
  <path d="M276.209 117.819C279.186 117.819 281.6 115.415 281.6 112.45C281.6 109.485 279.186 107.081 276.209 107.081C273.232 107.081 270.818 109.485 270.818 112.45C270.818 115.415 273.232 117.819 276.209 117.819Z" fill="#5982E0"/>
  <path d="M280.532 113.369C280.532 116.195 278.231 118.488 275.391 118.488C272.551 118.488 270.25 116.195 270.25 113.369C270.25 110.543 272.551 108.25 275.391 108.25C278.231 108.25 280.532 110.543 280.532 113.369Z" stroke="#76ADF8" stroke-width="0.5"/>
  <path d="M261.882 127.45C261.882 126.005 263.182 119.431 271.201 117.697" stroke="#76ADF8" stroke-width="0.866941" stroke-linecap="round" stroke-linejoin="round"/>
  </g>
  <defs>
  <clipPath id="clip0_2857_19207">
  <rect width="282" height="158.63" fill="white"/>
  </clipPath>
  </defs>
  </svg>
