<svg width="282" height="159" viewBox="0 0 282 159" fill="none" xmlns="http://www.w3.org/2000/svg">
  <g clip-path="url(#clip0_2857_18062)">
  <rect width="282" height="158.63" fill="#FEF4F2"/>
  <path d="M317.593 39.7437H-0.44043V44.1303H317.593V39.7437Z" fill="#FBB8AB"/>
  <path d="M287.018 45.556H262.431V22.7453L274.56 14.5422L287.018 22.7453V45.556Z" fill="#FDDFD8"/>
  <path d="M316.914 43.5164H-0.526855V58.8478H316.914V43.5164Z" fill="#FEE9E5"/>
  <path d="M3.31069 49.6357H-0.966309V50.7105H3.31069V49.6357Z" fill="#FDC6BA"/>
  <path d="M16.8434 49.6357H12.5664V50.7105H16.8434V49.6357Z" fill="#FDC6BA"/>
  <path d="M30.3981 49.6357H26.1211V50.7105H30.3981V49.6357Z" fill="#FDC6BA"/>
  <path d="M43.9533 49.6143H39.6763V50.689H43.9533V49.6143Z" fill="#FDC6BA"/>
  <path d="M57.5084 49.6143H53.2314V50.689H57.5084V49.6143Z" fill="#FDC6BA"/>
  <path d="M71.0626 49.6143H66.7856V50.689H71.0626V49.6143Z" fill="#FDC6BA"/>
  <path d="M84.6173 49.6143H80.3403V50.689H84.6173V49.6143Z" fill="#FDC6BA"/>
  <path d="M98.1725 49.6143H93.8955V50.689H98.1725V49.6143Z" fill="#FDC6BA"/>
  <path d="M111.727 49.6143H107.45V50.689H111.727V49.6143Z" fill="#FDC6BA"/>
  <path d="M125.282 49.6143H121.005V50.689H125.282V49.6143Z" fill="#FDC6BA"/>
  <path d="M138.837 49.5918H134.56V50.6665H138.837V49.5918Z" fill="#FDC6BA"/>
  <path d="M152.369 49.5918H148.092V50.6665H152.369V49.5918Z" fill="#FDC6BA"/>
  <path d="M165.924 49.5918H161.647V50.6665H165.924V49.5918Z" fill="#FDC6BA"/>
  <path d="M179.479 49.5918H175.202V50.6665H179.479V49.5918Z" fill="#FDC6BA"/>
  <path d="M193.034 49.5918H188.757V50.6665H193.034V49.5918Z" fill="#FDC6BA"/>
  <path d="M206.589 49.5918H202.312V50.6665H206.589V49.5918Z" fill="#FDC6BA"/>
  <path d="M220.144 49.5918H215.867V50.6665H220.144V49.5918Z" fill="#FDC6BA"/>
  <path d="M233.698 49.5701H229.421V50.6448H233.698V49.5701Z" fill="#FDC6BA"/>
  <path d="M247.253 49.5701H242.976V50.6448H247.253V49.5701Z" fill="#FDC6BA"/>
  <path d="M260.808 49.5701H256.531V50.6448H260.808V49.5701Z" fill="#FDC6BA"/>
  <path d="M274.626 49.5918H270.349V50.6665H274.626V49.5918Z" fill="#FDC6BA"/>
  <path d="M235.432 24.6534C235.125 22.9426 235.234 21.824 236.594 20.5738C237.428 19.8062 238.568 19.85 239.38 20.6177C239.446 18.8411 240.871 16.889 242.801 17.0645C244.381 17.218 245.06 19.0604 245.302 20.4203C246.596 19.8939 247.429 20.3545 247.649 21.7144C249.93 21.1441 251.991 23.2497 251.487 25.5527C251.246 26.6494 250.325 27.3293 249.228 27.3951C248.372 27.4609 248.285 27.2854 247.714 26.8248C247.978 27.9873 244.293 28.1628 243.723 27.11C242.428 27.746 241.134 28.6453 239.599 28.2505C239.073 28.1189 238.634 27.8118 238.239 27.4609C238.13 27.3732 237.164 26.3862 237.143 26.4081C236.528 26.6932 235.936 26.7152 235.41 26.2107C234.927 25.7501 234.883 25.0702 235.432 24.6534Z" fill="#FAA184"/>
  <path d="M245.828 25.5965L248.833 25.1798L246.004 25.3991L248.263 22.9864L245.28 25.9474L245.126 23.9734V26.1229L242.538 28.6891L242.407 21.6924L243.679 20.1351L242.407 21.5388L242.363 19.3674V26.3422L238.656 23.2935L239.687 24.2366L238.217 25.0701L239.753 24.3024L242.363 26.6274L242.341 40.7086L242.758 40.7524L242.538 29.1058L245.828 25.5965Z" fill="#755348"/>
  <path d="M256.29 35.1375C255.983 32.001 254.799 30.685 254.799 30.685C254.799 30.685 254.887 27.6582 253.856 26.3422C253.856 26.3422 253.593 19.9158 250.763 18.1392C247.956 19.9158 247.671 26.3422 247.671 26.3422C246.618 27.6582 246.728 30.685 246.728 30.685C246.728 30.685 245.543 32.001 245.236 35.1375C244.929 38.274 248.46 38.3178 250.763 38.3178C253.066 38.3178 256.598 38.274 256.29 35.1375Z" fill="#FA7A35"/>
  <path d="M250.873 23.3594H250.631V42.0466H250.873V23.3594Z" fill="#FCC0B0"/>
  <path d="M251.448 24.4233L250.654 26.3972L250.878 26.4872L251.671 24.5133L251.448 24.4233Z" fill="#FCC0B0"/>
  <path d="M249.277 26.5644L249.052 26.6519L250.642 30.7402L250.867 30.6528L249.277 26.5644Z" fill="#FCC0B0"/>
  <path d="M253.797 31.37L250.653 35.728L250.848 35.8692L253.993 31.5111L253.797 31.37Z" fill="#FCC0B0"/>
  <path d="M149.255 51.9384H150.417V54.2853L158.05 54.6801H211.809L219.792 53.4299L220.604 53.2983C220.604 53.2983 220.999 53.2983 220.999 52.3113C220.999 52.1797 220.999 51.8068 220.999 51.2804C220.955 47.9246 220.823 38.0546 220.823 38.0546C220.823 38.0546 220.823 37.4624 220.034 37.4624C219.244 37.4624 149.672 37.4624 149.672 37.4624L149.255 51.9384Z" fill="#FA7A35"/>
  <path d="M159.301 50.3811C160.31 50.074 161.669 50.1179 161.669 50.1179C161.669 50.1179 163.007 50.074 164.038 50.3811C164.038 50.3811 165.332 51.0172 165.442 54.68H161.669H157.897C158.007 51.0172 159.301 50.3811 159.301 50.3811Z" fill="#B34000"/>
  <path d="M161.669 57.0268C163.486 57.0268 164.959 55.5538 164.959 53.7368C164.959 51.9198 163.486 50.4468 161.669 50.4468C159.852 50.4468 158.379 51.9198 158.379 53.7368C158.379 55.5538 159.852 57.0268 161.669 57.0268Z" fill="#755348"/>
  <path d="M161.669 55.4915C162.638 55.4915 163.424 54.7059 163.424 53.7368C163.424 52.7678 162.638 51.9822 161.669 51.9822C160.7 51.9822 159.915 52.7678 159.915 53.7368C159.915 54.7059 160.7 55.4915 161.669 55.4915Z" fill="#B34000"/>
  <path d="M161.669 52.7059C161.73 52.7059 161.779 52.6568 161.779 52.5962C161.779 52.5357 161.73 52.4866 161.669 52.4866C161.609 52.4866 161.56 52.5357 161.56 52.5962C161.56 52.6568 161.609 52.7059 161.669 52.7059Z" fill="#EEEEEE"/>
  <path d="M161.669 54.9872C161.73 54.9872 161.779 54.9381 161.779 54.8775C161.779 54.8169 161.73 54.7678 161.669 54.7678C161.609 54.7678 161.56 54.8169 161.56 54.8775C161.56 54.9381 161.609 54.9872 161.669 54.9872Z" fill="#EEEEEE"/>
  <path d="M160.928 53.0119C160.971 52.969 160.971 52.8996 160.928 52.8568C160.886 52.814 160.816 52.814 160.773 52.8568C160.731 52.8996 160.731 52.969 160.773 53.0119C160.816 53.0547 160.886 53.0547 160.928 53.0119Z" fill="#EEEEEE"/>
  <path d="M162.548 54.6405C162.591 54.5977 162.591 54.5283 162.548 54.4854C162.505 54.4426 162.436 54.4426 162.393 54.4854C162.35 54.5283 162.35 54.5977 162.393 54.6405C162.436 54.6834 162.505 54.6834 162.548 54.6405Z" fill="#EEEEEE"/>
  <path d="M160.529 53.8465C160.589 53.8465 160.638 53.7974 160.638 53.7369C160.638 53.6763 160.589 53.6272 160.529 53.6272C160.468 53.6272 160.419 53.6763 160.419 53.7369C160.419 53.7974 160.468 53.8465 160.529 53.8465Z" fill="#EEEEEE"/>
  <path d="M162.81 53.8465C162.87 53.8465 162.92 53.7974 162.92 53.7369C162.92 53.6763 162.87 53.6272 162.81 53.6272C162.749 53.6272 162.7 53.6763 162.7 53.7369C162.7 53.7974 162.749 53.8465 162.81 53.8465Z" fill="#EEEEEE"/>
  <path d="M160.938 54.6198C160.981 54.577 160.981 54.5075 160.938 54.4647C160.895 54.4219 160.825 54.4219 160.783 54.4647C160.74 54.5075 160.74 54.577 160.783 54.6198C160.825 54.6626 160.895 54.6626 160.938 54.6198Z" fill="#EEEEEE"/>
  <path d="M162.53 53.0136C162.573 52.9708 162.573 52.9013 162.53 52.8585C162.487 52.8157 162.418 52.8157 162.375 52.8585C162.332 52.9013 162.332 52.9708 162.375 53.0136C162.418 53.0564 162.487 53.0564 162.53 53.0136Z" fill="#EEEEEE"/>
  <path d="M195.951 50.3811C196.96 50.074 198.32 50.1179 198.32 50.1179C198.32 50.1179 199.658 50.074 200.689 50.3811C200.689 50.3811 201.983 51.0172 202.092 54.68H198.32H194.547C194.657 51.0172 195.951 50.3811 195.951 50.3811Z" fill="#B34000"/>
  <path d="M198.298 57.0268C200.115 57.0268 201.588 55.5538 201.588 53.7368C201.588 51.9198 200.115 50.4468 198.298 50.4468C196.481 50.4468 195.008 51.9198 195.008 53.7368C195.008 55.5538 196.481 57.0268 198.298 57.0268Z" fill="#755348"/>
  <path d="M198.298 55.4915C199.267 55.4915 200.053 54.7059 200.053 53.7368C200.053 52.7678 199.267 51.9822 198.298 51.9822C197.329 51.9822 196.543 52.7678 196.543 53.7368C196.543 54.7059 197.329 55.4915 198.298 55.4915Z" fill="#C68F7D"/>
  <path d="M198.298 52.7059C198.359 52.7059 198.408 52.6568 198.408 52.5962C198.408 52.5357 198.359 52.4866 198.298 52.4866C198.238 52.4866 198.188 52.5357 198.188 52.5962C198.188 52.6568 198.238 52.7059 198.298 52.7059Z" fill="#EEEEEE"/>
  <path d="M198.298 54.9872C198.359 54.9872 198.408 54.9381 198.408 54.8775C198.408 54.8169 198.359 54.7678 198.298 54.7678C198.238 54.7678 198.188 54.8169 198.188 54.8775C198.188 54.9381 198.238 54.9872 198.298 54.9872Z" fill="#EEEEEE"/>
  <path d="M197.576 53.0053C197.619 52.9625 197.619 52.893 197.576 52.8502C197.533 52.8074 197.464 52.8074 197.421 52.8502C197.378 52.893 197.378 52.9625 197.421 53.0053C197.464 53.0481 197.533 53.0481 197.576 53.0053Z" fill="#EEEEEE"/>
  <path d="M199.191 54.6239C199.234 54.5811 199.234 54.5117 199.191 54.4688C199.148 54.426 199.079 54.426 199.036 54.4688C198.993 54.5117 198.993 54.5811 199.036 54.6239C199.079 54.6668 199.148 54.6668 199.191 54.6239Z" fill="#EEEEEE"/>
  <path d="M197.179 53.8465C197.24 53.8465 197.289 53.7974 197.289 53.7369C197.289 53.6763 197.24 53.6272 197.179 53.6272C197.119 53.6272 197.07 53.6763 197.07 53.7369C197.07 53.7974 197.119 53.8465 197.179 53.8465Z" fill="#EEEEEE"/>
  <path d="M199.438 53.8465C199.499 53.8465 199.548 53.7974 199.548 53.7369C199.548 53.6763 199.499 53.6272 199.438 53.6272C199.378 53.6272 199.329 53.6763 199.329 53.7369C199.329 53.7974 199.378 53.8465 199.438 53.8465Z" fill="#EEEEEE"/>
  <path d="M197.583 54.6107C197.626 54.5679 197.626 54.4985 197.583 54.4557C197.54 54.4128 197.471 54.4128 197.428 54.4557C197.385 54.4985 197.385 54.5679 197.428 54.6107C197.471 54.6536 197.54 54.6536 197.583 54.6107Z" fill="#EEEEEE"/>
  <path d="M199.184 53.0175C199.227 52.9747 199.227 52.9052 199.184 52.8624C199.141 52.8196 199.072 52.8196 199.029 52.8624C198.986 52.9052 198.986 52.9747 199.029 53.0175C199.072 53.0603 199.141 53.0603 199.184 53.0175Z" fill="#EEEEEE"/>
  <path d="M151.095 54.2258L156.623 54.2258L156.623 40.8246L151.095 40.8246L151.095 54.2258Z" fill="#E4794A"/>
  <path d="M153.793 54.2258L153.947 54.2258L153.947 40.8246L153.793 40.8246L153.793 54.2258Z" fill="#B34000"/>
  <path d="M154.848 50.7101H155.704C155.989 50.7101 156.23 50.4688 156.23 50.1837V41.8929C156.23 41.6077 155.989 41.3665 155.704 41.3665H154.848C154.563 41.3665 154.322 41.6077 154.322 41.8929V50.1837C154.3 50.4907 154.541 50.7101 154.848 50.7101Z" fill="#FEF4F2"/>
  <path d="M152.041 50.7101H152.896C153.181 50.7101 153.422 50.4688 153.422 50.1837V41.8929C153.422 41.6077 153.181 41.3665 152.896 41.3665H152.041C151.755 41.3665 151.514 41.6077 151.514 41.8929V50.1837C151.514 50.4907 151.755 50.7101 152.041 50.7101Z" fill="#FEF4F2"/>
  <path d="M204.627 54.2258L210.154 54.2258L210.154 40.8246L204.627 40.8246L204.627 54.2258Z" fill="#E4794A"/>
  <path d="M207.303 54.2258L207.456 54.2258L207.456 40.8246L207.303 40.8246L207.303 54.2258Z" fill="#B34000"/>
  <path d="M208.365 50.7101H209.221C209.506 50.7101 209.747 50.4688 209.747 50.1837V41.8929C209.747 41.6077 209.506 41.3665 209.221 41.3665H208.365C208.08 41.3665 207.839 41.6077 207.839 41.8929V50.1837C207.817 50.4907 208.058 50.7101 208.365 50.7101Z" fill="#FEF4F2"/>
  <path d="M205.558 50.7101H206.413C206.698 50.7101 206.939 50.4688 206.939 50.1837V41.8929C206.939 41.6077 206.698 41.3665 206.413 41.3665H205.558C205.273 41.3665 205.031 41.6077 205.031 41.8929V50.1837C205.031 50.4907 205.273 50.7101 205.558 50.7101Z" fill="#FEF4F2"/>
  <path d="M149.145 51.9382H150.439V54.3509H149.803C149.803 54.3509 149.189 54.4167 149.167 53.7368C149.101 53.0568 149.145 51.9382 149.145 51.9382Z" fill="#E4794A"/>
  <path d="M149.299 50.6223H149.913V51.5216H149.277L149.299 50.6223Z" fill="#FDDFD8"/>
  <path d="M149.584 40.3795C149.584 40.3795 150.286 40.3137 150.286 41.1911C150.286 42.0684 150.286 46.9815 150.286 46.9815C150.286 46.9815 150.308 47.5956 149.387 47.5956L149.584 40.3795Z" fill="#FEF4F2"/>
  <path d="M151.1 40.1946L151.451 40.1946L151.451 39.383L151.1 39.383L151.1 40.1946Z" fill="#AB7B6B"/>
  <path d="M151.295 39.5898L148.794 40.3136V42.2218H148.904V40.4233L151.295 39.9408V39.5898Z" fill="#B34000"/>
  <path d="M149.343 40.6426V43.1868H149.189C149.189 43.1868 148.882 42.814 148.86 42.0463V41.6076V41.476C148.86 41.476 148.86 40.9277 149.189 40.6426H149.343Z" fill="#B34000"/>
  <path d="M220.955 48.6265H220.319V50.7759H220.977L220.955 48.6265Z" fill="#E4794A"/>
  <path d="M219.792 51.3022V53.4517L220.604 53.3201C220.604 53.3201 220.999 53.3201 220.999 52.3331C220.999 52.2015 220.999 51.8286 220.999 51.3022H219.792Z" fill="#E4794A"/>
  <path d="M211.919 45.468H218.038C218.586 45.468 219.025 45.0293 219.025 44.481V40.0505C219.025 39.5021 218.586 39.0635 218.038 39.0635H211.919C211.37 39.0635 210.932 39.5021 210.932 40.0505V44.481C210.932 45.0074 211.37 45.468 211.919 45.468Z" fill="#FEF4F2"/>
  <path d="M196.039 45.468H202.904C203.452 45.468 203.891 45.0293 203.891 44.481V40.0505C203.891 39.5021 203.452 39.0635 202.904 39.0635H196.039C195.491 39.0635 195.052 39.5021 195.052 40.0505V44.481C195.03 45.0074 195.491 45.468 196.039 45.468Z" fill="#FEF4F2"/>
  <path d="M186.651 45.468H193.516C194.065 45.468 194.503 45.0293 194.503 44.481V40.0505C194.503 39.5021 194.065 39.0635 193.516 39.0635H186.651C186.103 39.0635 185.664 39.5021 185.664 40.0505V44.481C185.642 45.0074 186.103 45.468 186.651 45.468Z" fill="#FEF4F2"/>
  <path d="M177.264 45.468H184.129C184.678 45.468 185.116 45.0293 185.116 44.481V40.0505C185.116 39.5021 184.678 39.0635 184.129 39.0635H177.264C176.716 39.0635 176.277 39.5021 176.277 40.0505V44.481C176.255 45.0074 176.716 45.468 177.264 45.468Z" fill="#FEF4F2"/>
  <path d="M167.876 45.468H174.742C175.29 45.468 175.729 45.0293 175.729 44.481V40.0505C175.729 39.5021 175.29 39.0635 174.742 39.0635H167.876C167.328 39.0635 166.889 39.5021 166.889 40.0505V44.481C166.867 45.0074 167.328 45.468 167.876 45.468Z" fill="#FEF4F2"/>
  <path d="M158.489 45.468H165.354C165.903 45.468 166.341 45.0293 166.341 44.481V40.0505C166.341 39.5021 165.903 39.0635 165.354 39.0635H158.489C157.941 39.0635 157.502 39.5021 157.502 40.0505V44.481C157.48 45.0074 157.941 45.468 158.489 45.468Z" fill="#FEF4F2"/>
  <path d="M195.03 37.0017H202.904C203.123 37.0017 203.321 37.1772 203.321 37.4184V37.5062H194.635V37.4184C194.613 37.1772 194.81 37.0017 195.03 37.0017Z" fill="#B34000"/>
  <path d="M162.941 37.0017H170.815C171.035 37.0017 171.232 37.1772 171.232 37.4184V37.5062H162.546V37.4184C162.546 37.1772 162.722 37.0017 162.941 37.0017Z" fill="#B34000"/>
  <path d="M165.617 51.1706H194.131C194.24 51.1706 194.306 51.0829 194.306 50.9952V50.9294C194.306 50.8197 194.218 50.7539 194.131 50.7539H165.617C165.508 50.7539 165.442 50.8416 165.442 50.9294V50.9952C165.442 51.0829 165.53 51.1706 165.617 51.1706Z" fill="#B34000"/>
  <path d="M211.107 51.1706H218.872C218.981 51.1706 219.047 51.0829 219.047 50.9952V50.9294C219.047 50.8197 218.959 50.7539 218.872 50.7539H211.107C210.997 50.7539 210.932 50.8416 210.932 50.9294V50.9952C210.932 51.0829 211.019 51.1706 211.107 51.1706Z" fill="#B34000"/>
  <path d="M55.7753 44.6021L55.0015 44.5038C54.8849 44.4915 54.7804 44.4424 54.6945 44.3687C54.3935 44.1169 53.4846 43.5274 51.5194 43.5274C51.5194 43.5274 50.6289 43.4782 49.806 43.7177C49.7138 43.7423 49.6279 43.7791 49.5419 43.8283C49.2348 44.0002 48.418 44.4424 48.2522 44.4977C48.0495 44.5591 47.1038 44.6205 46.7721 44.6819C46.4467 44.7433 45.6729 45.0074 45.6729 45.3882V45.8119C45.6729 45.8426 45.7343 46.119 45.7343 46.119L45.851 46.1804C45.851 46.3155 45.9554 46.4199 46.0905 46.4199H46.8458C46.8458 45.8795 47.2819 45.4434 47.8223 45.4434C48.3628 45.4434 48.7988 45.8795 48.7988 46.4199H53.1591C53.1591 45.8795 53.5952 45.4434 54.1356 45.4434C54.676 45.4434 55.1121 45.8795 55.1121 46.4199L56.0824 46.2787V44.946C56.0763 44.7679 55.9473 44.6205 55.7753 44.6021Z" fill="#C68F7D"/>
  <path d="M47.8227 45.4373C47.2822 45.4373 46.8462 45.8733 46.8462 46.4137V46.7147H48.7991V46.4137C48.793 45.8794 48.357 45.4373 47.8227 45.4373Z" fill="#FA7A35"/>
  <path d="M54.1298 45.4373C53.5894 45.4373 53.1533 45.8733 53.1533 46.4137V46.7147H55.1063V46.4137C55.1063 45.8794 54.6641 45.4373 54.1298 45.4373Z" fill="#FA7A35"/>
  <path d="M46.6616 45.0013C46.6924 44.9768 46.6801 44.9215 46.6371 44.9092C46.5265 44.8908 46.3423 44.9031 46.1765 44.9645C46.0659 45.0075 45.8448 45.1733 45.7957 45.3698C45.7896 45.4005 45.8203 45.4251 45.8448 45.4128C46.0045 45.3575 46.4406 45.1794 46.6616 45.0013Z" fill="#FEF4F2"/>
  <path d="M46.3547 46.0515H46.1397C46.109 46.0515 46.0845 46.0269 46.0845 45.9962C46.0845 45.9655 46.109 45.9409 46.1397 45.9409H46.3547C46.3854 45.9409 46.41 45.9655 46.41 45.9962C46.4161 46.0269 46.3854 46.0515 46.3547 46.0515Z" fill="#E4794A"/>
  <path d="M56.0764 45.0503C55.9904 45.0442 55.8492 45.038 55.7263 45.0503C55.6219 45.0564 55.5667 45.167 55.6158 45.2591L55.6956 45.3881C55.7202 45.4311 55.7632 45.4556 55.8123 45.4556H56.0703V45.0503H56.0764Z" fill="#755348"/>
  <path d="M47.8225 47.2797C48.3007 47.2797 48.6884 46.892 48.6884 46.4138C48.6884 45.9355 48.3007 45.5479 47.8225 45.5479C47.3442 45.5479 46.9565 45.9355 46.9565 46.4138C46.9565 46.892 47.3442 47.2797 47.8225 47.2797Z" fill="#AB7B6B"/>
  <path d="M47.8225 47.0034C48.1481 47.0034 48.412 46.7394 48.412 46.4138C48.412 46.0882 48.1481 45.8242 47.8225 45.8242C47.4969 45.8242 47.2329 46.0882 47.2329 46.4138C47.2329 46.7394 47.4969 47.0034 47.8225 47.0034Z" fill="#755348"/>
  <path d="M54.1296 47.2797C54.6078 47.2797 54.9955 46.892 54.9955 46.4138C54.9955 45.9355 54.6078 45.5479 54.1296 45.5479C53.6514 45.5479 53.2637 45.9355 53.2637 46.4138C53.2637 46.892 53.6514 47.2797 54.1296 47.2797Z" fill="#AB7B6B"/>
  <path d="M54.1296 47.0034C54.4552 47.0034 54.7192 46.7394 54.7192 46.4138C54.7192 46.0882 54.4552 45.8242 54.1296 45.8242C53.804 45.8242 53.54 46.0882 53.54 46.4138C53.54 46.7394 53.804 47.0034 54.1296 47.0034Z" fill="#755348"/>
  <path d="M49.7694 43.7361C49.751 43.7361 49.7326 43.7361 49.7141 43.7422C49.6589 43.7668 49.5974 43.7914 49.5483 43.8221C49.2535 43.9817 48.492 44.3993 48.2832 44.4792C48.7745 44.3932 49.5483 43.9265 49.7878 43.7791C49.8001 43.7668 49.794 43.7361 49.7694 43.7361Z" fill="#FCC0B0"/>
  <path d="M53.1592 46.3032H48.7866C48.7928 46.3401 48.7928 46.3769 48.7928 46.4138H53.1531C53.1531 46.3769 53.1531 46.3401 53.1592 46.3032Z" fill="#E4794A"/>
  <path d="M48.6942 44.6266C48.6758 44.6266 48.6635 44.6021 48.682 44.5898C48.9276 44.4056 50.0269 43.687 51.4763 43.7116C51.4763 43.7116 53.3064 43.5765 54.1539 44.4731C54.1723 44.4915 54.1539 44.5222 54.1293 44.5222L48.6942 44.6266Z" fill="#E4794A"/>
  <path d="M51.053 43.902V44.4178C51.053 44.4547 51.0223 44.4792 50.9916 44.4792H49.1492C49.1246 44.4792 49.1124 44.4485 49.1369 44.4362C49.3703 44.295 50.1502 43.859 50.9977 43.8467C51.0285 43.8467 51.053 43.8712 51.053 43.902Z" fill="#FCC0B0"/>
  <path d="M51.3721 43.9203V44.3994C51.3721 44.4423 51.4089 44.4792 51.4519 44.4792L53.1101 44.4301C53.1531 44.4301 53.1899 44.3932 53.1899 44.3502V44.08C53.1899 44.0432 53.1653 44.0125 53.1285 44.0002C52.9258 43.9449 52.2196 43.7729 51.4396 43.8344C51.4028 43.8466 51.3721 43.8773 51.3721 43.9203Z" fill="#FCC0B0"/>
  <path d="M53.3066 44.1354V44.3995C53.3066 44.4179 53.3189 44.4302 53.3373 44.4302L53.7611 44.4118C53.7918 44.4118 53.8041 44.375 53.7795 44.3565C53.6874 44.289 53.5154 44.1662 53.3496 44.1047C53.3312 44.0925 53.3066 44.1109 53.3066 44.1354Z" fill="#FCC0B0"/>
  <path d="M53.1531 46.4138C53.1531 46.4138 53.1469 46.6042 53.2145 46.7147H48.7129C48.7129 46.7147 48.7989 46.5489 48.7927 46.4138H53.1531Z" fill="#FA7A35"/>
  <path d="M46.846 46.4137C46.846 46.3769 46.846 46.34 46.8521 46.3032H46.5451C46.5082 46.3032 46.4714 46.2786 46.4529 46.2418L46.4284 46.1926C46.4038 46.1435 46.3608 46.1128 46.3055 46.1128H45.8204H45.7774C45.6423 46.1128 45.5317 46.2233 45.5317 46.3584V46.5488C45.5317 46.6594 45.6177 46.7454 45.7283 46.7392L46.9135 46.7146C46.9074 46.7208 46.8521 46.6102 46.846 46.4137Z" fill="#FA7A35"/>
  <path d="M56.1991 46.0576C56.1991 45.9962 56.1499 45.947 56.0885 45.947H55.4437C55.3823 45.947 55.327 45.9777 55.2963 46.033L55.0936 46.3892C55.0813 46.4076 55.0752 46.4322 55.0752 46.4506V46.641C55.0752 46.7024 55.1243 46.7515 55.1857 46.7515H55.9657C56.0148 46.7515 56.0578 46.7208 56.0701 46.6717L56.1991 46.1804C56.1991 46.1743 56.1991 46.1681 56.1991 46.1558V46.0576Z" fill="#FA7A35"/>
  <path d="M62.8863 25.3503L65.9131 25.3503L65.9131 10.2383L62.8863 10.2383L62.8863 25.3503Z" fill="#161616"/>
  <path d="M64.4961 26.8047L148.654 26.8047L148.654 23.1857L64.4961 23.1857L64.4961 26.8047Z" fill="#161616"/>
  <path d="M145.617 24.9167H64.5073V8.68608C64.5073 8.24742 64.8583 7.89648 65.2969 7.89648H145.112C151.451 7.89648 157.373 11.1207 160.817 16.4724L161.804 18.0078C162.593 19.236 162.791 20.7933 162.198 22.1312C161.497 23.7323 159.939 24.6974 158.272 24.6974H158.119L159.544 26.5398C159.917 27.0224 159.566 27.7023 158.974 27.7023H148.424C147.657 27.7023 147.042 27.0882 147.042 26.3205C147.021 25.5528 146.384 24.9167 145.617 24.9167Z" fill="#FCC0B0"/>
  <path d="M160.137 15.4635H156.276C152.35 15.4635 149.148 12.2832 149.148 8.33521H149.192C153.535 9.30027 157.439 11.8226 160.137 15.4635Z" fill="#FA7A35"/>
  <path d="M152.921 9.58531H64.5073V8.66411C64.5073 8.22545 64.8583 7.87451 65.2969 7.87451H145.112C147.854 7.89645 150.508 8.48864 152.921 9.58531Z" fill="#AB7B6B"/>
  <path d="M145.507 24.9167H64.5073V19.5649H140.177C143.116 19.5869 145.507 21.9776 145.507 24.9167Z" fill="#AB7B6B"/>
  <path d="M137.611 20.7494H64.5073V19.5869H140.177C143.138 19.5869 145.529 21.9776 145.529 24.9386H142.853C142.305 22.526 140.177 20.7494 137.611 20.7494Z" fill="#FA7A35"/>
  <path d="M150.596 23.3375H148.666C147.986 23.3375 147.438 22.7892 147.438 22.1093V15.6609C147.438 14.981 147.986 14.4326 148.666 14.4326H150.596C151.276 14.4326 151.824 14.981 151.824 15.6609V22.1093C151.824 22.7892 151.276 23.3375 150.596 23.3375ZM148.666 14.6958C148.139 14.6958 147.723 15.1126 147.723 15.639V22.0873C147.723 22.6137 148.139 23.0305 148.666 23.0305H150.596C151.122 23.0305 151.539 22.6137 151.539 22.0873V15.6609C151.539 15.1345 151.122 14.7178 150.596 14.7178H148.666V14.6958Z" fill="#FA7A35"/>
  <path d="M71.0436 23.5349H67.5562C66.6569 23.5349 65.9331 22.8111 65.9331 21.9119V12.3709C65.9331 11.4716 66.6569 10.7478 67.5562 10.7478H71.0436C71.9428 10.7478 72.6666 11.4716 72.6666 12.3709V21.9338C72.6447 22.8111 71.9209 23.5349 71.0436 23.5349ZM67.5342 11.0329C66.7885 11.0329 66.1963 11.6471 66.1963 12.3709V21.9338C66.1963 22.6795 66.8104 23.2717 67.5342 23.2717H71.0216C71.7674 23.2717 72.3596 22.6576 72.3596 21.9338V12.3709C72.3596 11.6251 71.7454 11.0329 71.0216 11.0329H67.5342Z" fill="#FA7A35"/>
  <path d="M139.87 17.6348H142.524C143.138 17.6348 143.643 17.1303 143.643 16.5162V14.3886C143.643 13.7745 143.138 13.27 142.524 13.27H139.87C139.256 13.27 138.751 13.7745 138.751 14.3886V16.5162C138.773 17.1522 139.256 17.6348 139.87 17.6348Z" fill="#FA7A35"/>
  <path d="M133.488 17.6348H136.142C136.756 17.6348 137.26 17.1303 137.26 16.5162V14.3886C137.26 13.7745 136.756 13.27 136.142 13.27H133.488C132.874 13.27 132.369 13.7745 132.369 14.3886V16.5162C132.369 17.1522 132.874 17.6348 133.488 17.6348Z" fill="#FA7A35"/>
  <path d="M127.105 17.6348H129.759C130.373 17.6348 130.877 17.1303 130.877 16.5162V14.3886C130.877 13.7745 130.373 13.27 129.759 13.27H127.105C126.491 13.27 125.986 13.7745 125.986 14.3886V16.5162C125.986 17.1522 126.491 17.6348 127.105 17.6348Z" fill="#FA7A35"/>
  <path d="M120.723 17.6348H123.377C123.991 17.6348 124.495 17.1303 124.495 16.5162V14.3886C124.495 13.7745 123.991 13.27 123.377 13.27H120.723C120.108 13.27 119.604 13.7745 119.604 14.3886V16.5162C119.604 17.1522 120.108 17.6348 120.723 17.6348Z" fill="#FA7A35"/>
  <path d="M114.208 17.6348H116.862C117.477 17.6348 117.981 17.1303 117.981 16.5162V14.3886C117.981 13.7745 117.477 13.27 116.862 13.27H114.208C113.594 13.27 113.09 13.7745 113.09 14.3886V16.5162C113.09 17.1522 113.594 17.6348 114.208 17.6348Z" fill="#FA7A35"/>
  <path d="M107.826 17.6348H110.48C111.094 17.6348 111.598 17.1303 111.598 16.5162V14.3886C111.598 13.7745 111.094 13.27 110.48 13.27H107.826C107.211 13.27 106.707 13.7745 106.707 14.3886V16.5162C106.707 17.1522 107.211 17.6348 107.826 17.6348Z" fill="#FA7A35"/>
  <path d="M101.443 17.6348H104.097C104.711 17.6348 105.216 17.1303 105.216 16.5162V14.3886C105.216 13.7745 104.711 13.27 104.097 13.27H101.443C100.829 13.27 100.325 13.7745 100.325 14.3886V16.5162C100.325 17.1522 100.829 17.6348 101.443 17.6348Z" fill="#FA7A35"/>
  <path d="M95.0605 17.6348H97.7144C98.3286 17.6348 98.833 17.1303 98.833 16.5162V14.3886C98.833 13.7745 98.3286 13.27 97.7144 13.27H95.0605C94.4464 13.27 93.9419 13.7745 93.9419 14.3886V16.5162C93.9419 17.1522 94.4244 17.6348 95.0605 17.6348Z" fill="#FA7A35"/>
  <path d="M88.5463 17.6348H91.2003C91.8144 17.6348 92.3189 17.1303 92.3189 16.5162V14.3886C92.3189 13.7745 91.8144 13.27 91.2003 13.27H88.5463C87.9322 13.27 87.4277 13.7745 87.4277 14.3886V16.5162C87.4277 17.1522 87.9322 17.6348 88.5463 17.6348Z" fill="#FA7A35"/>
  <path d="M82.1635 17.6348H84.8175C85.4316 17.6348 85.9361 17.1303 85.9361 16.5162V14.3886C85.9361 13.7745 85.4316 13.27 84.8175 13.27H82.1635C81.5494 13.27 81.0449 13.7745 81.0449 14.3886V16.5162C81.0449 17.1522 81.5275 17.6348 82.1635 17.6348Z" fill="#FA7A35"/>
  <path d="M75.7592 17.6348H78.4132C79.0273 17.6348 79.5318 17.1303 79.5318 16.5162V14.3886C79.5318 13.7745 79.0273 13.27 78.4132 13.27H75.7592C75.1451 13.27 74.6406 13.7745 74.6406 14.3886V16.5162C74.6406 17.1522 75.1451 17.6348 75.7592 17.6348Z" fill="#FA7A35"/>
  <path d="M59.8629 25.3503L62.8896 25.3503L62.8896 10.2383L59.8629 10.2383L59.8629 25.3503Z" fill="#161616"/>
  <path d="M-1.45472 26.1902L61.3843 26.1902L61.3843 23.1853L-1.45472 23.1853L-1.45472 26.1902Z" fill="#161616"/>
  <path d="M-0.656689 7.89648H7.45864H51.9175H60.5812C61.0198 7.89648 61.3708 8.24742 61.3708 8.68608V24.9167H51.9175H7.06384H-1.44629V8.68608C-1.44629 8.24742 -1.09536 7.89648 -0.656689 7.89648Z" fill="#FCC0B0"/>
  <path d="M-0.327637 9.58531H61.3928V8.66411C61.3928 8.22545 61.0418 7.87451 60.6032 7.87451H7.4587C4.71703 7.89645 2.08503 8.48864 -0.327637 9.58531Z" fill="#FA7A35"/>
  <path d="M7.06396 24.9167H61.3709V19.5649H12.4157C9.4547 19.5869 7.06396 21.9776 7.06396 24.9167Z" fill="#AB7B6B"/>
  <path d="M14.96 20.7494H61.3709V19.5869H12.4157C9.4547 19.5869 7.06396 21.9776 7.06396 24.9386H9.73983C10.2882 22.526 12.4157 20.7494 14.96 20.7494Z" fill="#FA7A35"/>
  <path d="M58.3439 23.5569H54.8565C53.9572 23.5569 53.2334 22.8331 53.2334 21.9338V12.3709C53.2334 11.4716 53.9572 10.7478 54.8565 10.7478H58.3439C59.2431 10.7478 59.9669 11.4716 59.9669 12.3709V21.9338C59.9669 22.8331 59.2431 23.5569 58.3439 23.5569ZM54.8565 11.0329C54.1107 11.0329 53.5185 11.6251 53.5185 12.3709V21.9338C53.5185 22.6795 54.1107 23.2717 54.8565 23.2717H58.3439C59.0896 23.2717 59.6818 22.6795 59.6818 21.9338V12.3709C59.6818 11.6251 59.0896 11.0329 58.3439 11.0329H54.8565Z" fill="#FA7A35"/>
  <path d="M60.2741 9.58531H-1.44629V8.66411C-1.44629 8.22545 -1.09536 7.87451 -0.656689 7.87451H52.4658C55.2075 7.89645 57.8614 8.48864 60.2741 9.58531Z" fill="#AB7B6B"/>
  <path d="M52.8606 24.9167H-1.44629V19.5649H47.5308C50.4699 19.5869 52.8606 21.9776 52.8606 24.9167Z" fill="#AB7B6B"/>
  <path d="M44.9646 20.7494H-1.44629V19.5869H47.5308C50.4918 19.5869 52.8826 21.9776 52.8826 24.9386H50.2067C49.6584 22.526 47.5308 20.7494 44.9646 20.7494Z" fill="#FA7A35"/>
  <path d="M5.08996 23.5569H1.60256C0.703292 23.5569 -0.0205078 22.8331 -0.0205078 21.9338V12.3709C-0.0205078 11.4716 0.703292 10.7478 1.60256 10.7478H5.08996C5.98922 10.7478 6.71302 11.4716 6.71302 12.3709V21.9338C6.71302 22.8331 5.98922 23.5569 5.08996 23.5569ZM1.60256 11.0329C0.856825 11.0329 0.264625 11.6251 0.264625 12.3709V21.9338C0.264625 22.6795 0.856825 23.2717 1.60256 23.2717H5.08996C5.83569 23.2717 6.42789 22.6795 6.42789 21.9338V12.3709C6.42789 11.6251 5.83569 11.0329 5.08996 11.0329H1.60256Z" fill="#FA7A35"/>
  <path d="M47.2456 17.6348H49.8995C50.5136 17.6348 51.0181 17.1303 51.0181 16.5162V14.3886C51.0181 13.7745 50.5136 13.27 49.8995 13.27H47.2456C46.6314 13.27 46.127 13.7745 46.127 14.3886V16.5162C46.127 17.1522 46.6095 17.6348 47.2456 17.6348Z" fill="#FA7A35"/>
  <path d="M40.8413 17.6348H43.4952C44.1093 17.6348 44.6138 17.1303 44.6138 16.5162V14.3886C44.6138 13.7745 44.1093 13.27 43.4952 13.27H40.8413C40.2271 13.27 39.7227 13.7745 39.7227 14.3886V16.5162C39.7227 17.1522 40.2271 17.6348 40.8413 17.6348Z" fill="#FA7A35"/>
  <path d="M34.4584 17.6348H37.1124C37.7265 17.6348 38.231 17.1303 38.231 16.5162V14.3886C38.231 13.7745 37.7265 13.27 37.1124 13.27H34.4584C33.8443 13.27 33.3398 13.7745 33.3398 14.3886V16.5162C33.3398 17.1522 33.8443 17.6348 34.4584 17.6348Z" fill="#FA7A35"/>
  <path d="M28.0761 17.6348H30.7301C31.3442 17.6348 31.8487 17.1303 31.8487 16.5162V14.3886C31.8487 13.7745 31.3442 13.27 30.7301 13.27H28.0761C27.462 13.27 26.9575 13.7745 26.9575 14.3886V16.5162C26.9575 17.1522 27.462 17.6348 28.0761 17.6348Z" fill="#FA7A35"/>
  <path d="M21.562 17.6348H24.2159C24.83 17.6348 25.3345 17.1303 25.3345 16.5162V14.3886C25.3345 13.7745 24.83 13.27 24.2159 13.27H21.562C20.9478 13.27 20.4434 13.7745 20.4434 14.3886V16.5162C20.4434 17.1522 20.9478 17.6348 21.562 17.6348Z" fill="#FA7A35"/>
  <path d="M15.1791 17.6348H17.8331C18.4472 17.6348 18.9517 17.1303 18.9517 16.5162V14.3886C18.9517 13.7745 18.4472 13.27 17.8331 13.27H15.1791C14.565 13.27 14.0605 13.7745 14.0605 14.3886V16.5162C14.0605 17.1522 14.565 17.6348 15.1791 17.6348Z" fill="#FA7A35"/>
  <path d="M8.79682 17.6348H11.4508C12.0649 17.6348 12.5694 17.1303 12.5694 16.5162V14.3886C12.5694 13.7745 12.0649 13.27 11.4508 13.27H8.79682C8.18269 13.27 7.67822 13.7745 7.67822 14.3886V16.5162C7.67822 17.1522 8.18269 17.6348 8.79682 17.6348Z" fill="#FA7A35"/>
  <path d="M1.86572 59.3955H23.2507C23.2507 59.3955 22.5927 54.7018 19.5659 54.0438C19.5659 54.0438 20.8819 46.6303 17.7016 46.5645C14.5213 46.4987 12.9421 52.2891 12.9421 52.2891C12.9421 52.2891 10.4855 51.8505 9.32306 55.623C9.32306 55.623 5.98919 53.7367 1.86572 59.3955Z" fill="#FA7A35"/>
  <path d="M17.4858 49.3866L15.5776 59.3835L15.7931 59.4247L17.7013 49.4277L17.4858 49.3866Z" fill="#755348"/>
  <path d="M14.9216 48.3231L14.7061 48.3635L16.1855 56.2539L16.4011 56.2134L14.9216 48.3231Z" fill="#755348"/>
  <path d="M20.6844 54.4697L15.8262 58.1909L15.9595 58.365L20.8177 54.6438L20.6844 54.4697Z" fill="#755348"/>
  <path d="M11.3524 52.7046L11.1333 52.7153L11.4605 59.397L11.6796 59.3862L11.3524 52.7046Z" fill="#755348"/>
  <path d="M5.745 55.8894L5.53174 55.9407L6.3676 59.4168L6.58086 59.3655L5.745 55.8894Z" fill="#755348"/>
  <path d="M317.047 58.7161H-0.964844V67.9281H317.047V58.7161Z" fill="#FB926B"/>
  <path d="M281.999 68.1001H-0.000976562V179.333H281.999V68.1001Z" fill="#FDC6BA"/>
  <path d="M318.034 67.0505H-2.03906V68.8929H318.034V67.0505Z" fill="#FA7A35"/>
  <path d="M4.47933 118.343H-0.784668V120.317H4.47933V118.343Z" fill="white"/>
  <path d="M21.1263 118.322H15.8623V120.296H21.1263V118.322Z" fill="white"/>
  <path d="M37.7743 118.322H32.5103V120.296H37.7743V118.322Z" fill="white"/>
  <path d="M54.4212 118.322H49.1572V120.296H54.4212V118.322Z" fill="white"/>
  <path d="M71.0692 118.322H65.8052V120.296H71.0692V118.322Z" fill="white"/>
  <path d="M87.7161 118.3H82.4521V120.274H87.7161V118.3Z" fill="white"/>
  <path d="M104.364 118.3H99.0996V120.274H104.364V118.3Z" fill="white"/>
  <path d="M121.011 118.3H115.747V120.274H121.011V118.3Z" fill="white"/>
  <path d="M137.659 118.277H132.395V120.251H137.659V118.277Z" fill="white"/>
  <path d="M154.284 118.277H149.02V120.251H154.284V118.277Z" fill="white"/>
  <path d="M170.931 118.277H165.667V120.251H170.931V118.277Z" fill="white"/>
  <path d="M187.579 118.277H182.315V120.251H187.579V118.277Z" fill="white"/>
  <path d="M204.226 118.255H198.962V120.229H204.226V118.255Z" fill="white"/>
  <path d="M220.873 118.255H215.609V120.229H220.873V118.255Z" fill="white"/>
  <path d="M237.521 118.255H232.257V120.229H237.521V118.255Z" fill="white"/>
  <path d="M254.168 118.255H248.904V120.229H254.168V118.255Z" fill="white"/>
  <path d="M270.816 118.234H265.552V120.208H270.816V118.234Z" fill="white"/>
  <path d="M324.92 30.1365H-0.17627V61.7643H7.54426V44.5686C7.54426 38.5589 13.1373 33.6458 19.9585 33.6458C26.2534 33.6458 31.4077 38.186 31.4077 43.7351V61.7863H40.5759V44.5686C40.5759 38.5589 46.125 33.6458 52.9243 33.6458C59.1973 33.6458 64.3297 38.186 64.3297 43.7351V61.7863H73.6294V44.5686C73.6294 38.5589 79.1566 33.6458 85.9121 33.6458C92.1411 33.6458 97.2516 38.186 97.2516 43.7351V61.7863H106.661V44.5686C106.661 38.5589 112.166 33.6458 118.878 33.6458C125.085 33.6458 130.152 38.186 130.152 43.7351V61.7863H139.693V44.5686C139.693 38.5589 145.154 33.6458 151.844 33.6458C158.007 33.6458 163.074 38.186 163.074 43.7351V61.7863H172.746V44.5686C172.746 38.5589 178.186 33.6458 184.831 33.6458C190.973 33.6458 195.995 38.186 195.995 43.7351V61.7863H203.716V44.5686C203.716 38.5589 209.309 33.6458 216.13 33.6458C222.425 33.6458 227.579 38.186 227.579 43.7351V61.7863H236.748V44.5686C236.748 38.5589 242.297 33.6458 249.096 33.6458C255.369 33.6458 260.501 38.186 260.501 43.7351V61.7863H269.801V44.5686C269.801 38.5589 275.328 33.6458 282.084 33.6458C288.313 33.6458 293.423 38.186 293.423 43.7351V61.7863H302.833V44.5686C302.833 38.5589 308.338 33.6458 315.05 33.6458C319.305 33.6458 323.011 35.7733 324.942 38.8879V30.1365H324.92Z" fill="#6A6AF4"/>
  <path d="M324.919 25.9253H-1.62402V27.6142H324.919V25.9253Z" fill="#000091"/>
  <path d="M324.919 26.978H-1.62402V28.6669H324.919V26.978Z" fill="#6A6AF4"/>
  <path d="M-1.62402 28.4475V30.1364H324.919V28.4475" fill="#000091"/>
  <path d="M198.962 -1.29048C198.962 -1.29048 194.861 -1.93788 192.888 -2.36948C192.919 -2.36948 192.95 -2.40031 192.981 -2.40031C192.95 -2.89356 192.549 -3.17102 191.964 -3.35599C191.809 -3.72593 191.594 -4.09588 191.347 -4.21919C190.823 -4.52748 189.96 -4.28085 189.682 -3.94174C189.682 -3.94174 189.621 -5.48316 189.004 -5.94559C188.387 -6.40802 187.894 -6.53133 187.37 -6.46968C186.877 -6.40802 185.983 -5.97642 185.983 -5.97642C185.983 -5.97642 185.736 -7.05542 184.904 -7.61034C184.071 -8.19608 183.516 -7.85696 183.239 -7.67199C182.962 -7.48702 182.407 -7.05542 182.407 -7.05542C182.407 -7.05542 180.464 -9.83 178.553 -10.5082C176.642 -11.1865 172.634 -11.0015 171.185 -10.015C169.736 -9.05928 168.965 -8.41188 168.965 -8.41188C168.965 -8.41188 168.719 -9.15176 167.917 -9.39839C166.869 -9.73751 166.006 -8.25774 166.006 -8.25774C166.006 -8.25774 163.817 -10.6624 162.584 -10.9398C161.351 -11.2173 159.809 -11.5256 158.145 -10.5082C156.541 -9.55254 156.603 -6.87045 156.634 -6.62382C156.511 -6.65465 156.172 -6.71631 155.123 -6.80879C153.15 -7.02459 152.133 -3.26351 152.133 -3.26351C150.838 -2.83191 145.382 -2.03036 145.382 -2.03036C144.734 -1.87622 139 -1.25965 139 -1.25965H146.245C148.064 -0.858878 149.821 -0.273134 151.825 -0.36562C151.825 -0.519763 151.856 -0.643078 151.886 -0.79722C152.873 1.08332 155.617 -0.581421 157.096 -0.488935C158.391 -0.427278 159.501 0.158465 160.919 0.127637C162.029 0.127637 163.046 -0.180649 164.094 -0.180649C166.067 -0.211477 168.133 0.405094 170.168 0.127637C171.308 -0.0265055 172.048 -0.581419 173.004 -0.581419C175.069 -0.519762 177.135 -0.0265055 179.293 -0.180649C180.403 -0.273134 181.297 -0.766392 182.191 -1.25965H198.962V-1.29048Z" fill="#FEF4F2"/>
  <path d="M239.525 117.565L231.771 144.814L226.125 164.901H221.984L228.007 117.565H239.525Z" fill="#E4794A"/>
  <path d="M241.596 117.565C241.784 131.623 242.386 139.274 242.574 140.555C242.763 141.836 245.623 149.939 251.119 164.901H246.828C239.827 150.542 235.912 142.439 235.084 140.555C234.256 138.671 231.733 131.02 227.969 117.565H241.596Z" fill="#FB926B"/>
  <path d="M236.777 92.013C237.756 90.8447 238.434 89.4503 238.321 87.8297C237.982 83.2318 231.62 84.2493 230.378 86.586C229.136 88.8849 229.286 94.7642 230.905 95.1788C231.545 95.3295 232.9 94.9527 234.293 94.0858L233.427 100.229H238.546L236.777 92.013Z" fill="#FFEAE2"/>
  <path d="M232.674 86.9252C233.389 87.3021 233.879 88.0559 234.481 88.998C234.632 88.9227 234.782 88.9227 234.933 88.9227C235.648 88.9227 236.213 89.488 236.213 90.2041C236.213 90.5809 236.062 90.8824 235.836 91.1086C236.137 91.5231 236.476 91.9754 236.853 92.4276C238.283 91.5608 239.826 88.9604 238.471 86.5483C237.304 81.7243 230.19 84.8147 228.91 84.0233C228.609 85.7569 229.512 87.189 232.674 86.9252Z" fill="#AC5419"/>
  <path d="M228.082 120.354L222.662 125.291C221.608 128.042 220.93 129.286 220.591 129.022C220.064 128.608 220.591 127.892 220.29 127.553C219.989 127.213 218.784 127.703 217.693 128.193C216.601 128.683 216.714 128.08 216.902 127.703C217.806 126.573 219.048 125.48 220.629 124.387L225.334 117.339L228.082 120.354ZM219.801 101.548L213.138 97.6285C212.235 97.5908 211.294 97.5154 210.428 97.2893C209.938 97.1762 209.411 97.0632 209.299 96.4978C209.223 96.1963 208.997 95.8948 209.261 95.631C209.374 95.4803 209.637 95.4049 209.637 95.2165C209.675 94.9526 209.713 94.9526 209.901 94.7642C209.938 94.7265 210.202 94.5758 210.127 94.5004C209.863 94.1612 209.073 93.709 208.847 93.4828C207.981 92.5029 208.47 92.5406 208.884 92.616C210.315 93.1813 211.821 94.0858 213.402 95.3295L221.946 97.8923L219.801 101.548Z" fill="#FFEAE2"/>
  <path d="M229.7 100.681C228.646 108.483 225.447 115.342 220.064 123.219L223.979 125.329C231.018 119.261 234.632 115.832 234.443 108.897C234.406 107.164 232.938 102.113 232.298 99.3999L229.7 100.681Z" fill="#6A6AF4"/>
  <path d="M242.875 120.844H226.426C230.152 109.463 232.072 101.624 232.147 97.4025C232.147 97.1764 232.561 96.7995 232.712 96.8372C233.992 97.2141 235.385 97.0633 236.853 96.4226C240.73 102.716 242.085 110.442 242.875 120.844Z" fill="#EEEEEE"/>
  <path d="M235.422 96.4602C230.717 96.4979 223.038 97.3647 214.23 94.5381L213.364 98.9099C220.026 103.206 226.802 106.523 232.712 106.071C230.152 117.113 230.265 126.158 235.949 126.158C238.659 126.158 241.595 126.158 244.72 126.158C246.113 116.774 242.461 103.772 239.036 97.2139C238.923 96.9501 238.622 96.4979 237.982 96.4979C237.417 96.4225 236.589 96.4225 235.422 96.4602C235.46 96.4225 235.422 96.4225 235.422 96.4602Z" fill="#6A6AF4"/>
  <path d="M229.851 89.1111C229.663 89.9025 229.136 90.3548 228.835 91.0332C228.308 92.2015 229.098 92.2015 229.964 92.5783" fill="#FFEAE2"/>
  <path d="M230.416 88.9226C230.717 88.8095 231.018 88.7719 231.357 88.8095C231.507 88.8472 231.695 88.9226 231.808 89.0357C231.921 89.1487 231.997 89.2995 232.034 89.4879C231.808 89.2618 231.582 89.1487 231.319 89.1111C231.018 89.0357 230.717 89.0357 230.416 88.9226Z" fill="#AC5419"/>
  <path d="M229.851 93.2568C230.115 93.2191 230.34 93.1437 230.566 93.0684C230.792 92.9553 231.018 92.8422 231.281 92.7669C231.357 92.7292 231.432 92.8046 231.47 92.8422C231.47 92.8799 231.47 92.9176 231.47 92.9553C231.319 93.2568 231.056 93.4829 230.83 93.6714C230.566 93.8598 230.303 94.0106 230.077 94.199C230.227 93.9352 230.491 93.7091 230.679 93.4829C230.905 93.2568 231.093 93.0684 231.244 92.8046L231.394 92.993C231.169 93.0684 230.905 93.1437 230.642 93.2191C230.378 93.3322 230.077 93.3322 229.851 93.2568Z" fill="#AC5419"/>
  <path d="M230.905 89.9779C231.03 89.9779 231.131 89.8766 231.131 89.7518C231.131 89.6269 231.03 89.5256 230.905 89.5256C230.78 89.5256 230.679 89.6269 230.679 89.7518C230.679 89.8766 230.78 89.9779 230.905 89.9779Z" fill="#AC5419"/>
  <path d="M278.937 130.455L271.86 154.801L268.547 173.117H265.197L268.547 130.455H278.937Z" fill="#755348"/>
  <path d="M282.099 130.455C281.609 143.118 281.797 150.015 281.91 151.183C282.023 152.351 282.663 160.039 286.917 173.532H283.454C277.807 160.605 275.812 152.879 275.172 151.183C274.532 149.487 272.613 142.59 269.827 130.455H282.099Z" fill="#755348"/>
  <path d="M279.087 130.455C277.243 138.859 274.081 152.238 269.564 170.63H264.67C264.294 151.748 265.837 139.349 268.51 130.455H279.087Z" fill="#755348"/>
  <path d="M282.137 130.455C281.647 143.118 282.889 155.592 286.767 170.818H281.572C275.926 158.08 271.86 145.68 269.075 130.455H282.137Z" fill="#AB7B6B"/>
  <path d="M274.42 100.455C275.323 99.3998 275.925 98.1185 275.812 96.6863C275.511 92.5407 269.79 93.4452 268.66 95.5557C267.531 97.6285 267.682 102.942 269.112 103.319C269.677 103.47 270.919 103.093 272.161 102.339L271.371 107.88H276.001L274.42 100.455Z" fill="#CB7A43"/>
  <path d="M266.59 92.6916C266.703 92.3524 266.929 92.0509 267.305 91.9755C267.38 91.9378 267.493 91.9378 267.569 91.9378C267.606 91.9378 267.606 91.9378 267.606 91.9378C267.606 91.9378 267.606 91.9001 267.606 91.8625C267.606 91.7871 267.644 91.7494 267.644 91.674C267.719 91.4856 267.832 91.2971 267.983 91.1464C268.246 90.8826 268.623 90.6941 268.999 90.6565C269.225 90.6565 269.413 90.6564 269.639 90.7318C269.752 90.7695 269.827 90.8072 269.94 90.8449C269.978 90.8449 270.053 90.9203 270.091 90.9203C270.128 90.9203 270.204 90.8449 270.204 90.8072C270.542 90.5434 270.919 90.468 271.333 90.468C271.784 90.468 272.236 90.5057 272.613 90.7695C272.688 90.8449 272.763 90.8826 272.838 90.958C272.876 90.9956 272.914 91.0333 272.951 91.071C272.989 91.1087 272.989 91.1087 273.027 91.1464C273.064 91.1841 273.064 91.1841 273.102 91.1841C273.29 91.071 273.516 91.0333 273.704 91.0333C273.817 91.0333 273.968 91.071 274.081 91.1464C274.118 91.1464 274.231 91.2218 274.269 91.2218C274.306 91.2218 274.419 91.1464 274.457 91.1464C274.683 91.071 274.946 91.0333 275.21 91.071C275.473 91.1087 275.737 91.2218 275.925 91.3725C276.038 91.4479 276.113 91.5233 276.189 91.6363C276.226 91.674 276.264 91.7117 276.302 91.7494C276.339 91.7871 276.377 91.7871 276.377 91.8248C276.377 91.8248 276.64 91.7117 276.678 91.674C276.829 91.6363 276.979 91.6363 277.13 91.674C277.393 91.7494 277.619 91.9755 277.807 92.164C277.92 92.277 277.995 92.3901 278.071 92.5032C278.108 92.5785 278.146 92.6162 278.184 92.6916C278.184 92.7293 278.221 92.767 278.221 92.767C278.259 92.8046 278.259 92.8047 278.297 92.8047C278.522 92.88 278.711 92.9931 278.861 93.1815C279.012 93.37 279.125 93.5584 279.162 93.8222V93.8976C279.162 93.8976 279.2 93.8976 279.238 93.8976C279.313 93.8976 279.351 93.8976 279.426 93.9353C279.539 93.973 279.614 94.0107 279.727 94.0484C280.103 94.2368 280.367 94.576 280.48 94.9529C280.63 95.3674 280.63 95.8197 280.442 96.2342C280.405 96.3096 280.367 96.3473 280.329 96.4227C280.292 96.4604 280.292 96.4604 280.329 96.4981C280.329 96.5357 280.367 96.5734 280.405 96.6111C280.48 96.7619 280.517 96.8749 280.555 97.0257C280.593 97.2518 280.63 97.5156 280.593 97.7794C280.555 97.8925 280.517 98.0056 280.48 98.1186C280.442 98.1563 280.405 98.2317 280.367 98.2694C280.329 98.3071 280.329 98.3071 280.292 98.3448L280.254 98.3824C280.216 98.4201 280.216 98.3824 280.254 98.4201C280.254 98.4955 280.329 98.5709 280.329 98.6086C280.367 98.6839 280.367 98.7593 280.405 98.8347C280.442 98.9854 280.48 99.1362 280.517 99.2869C280.555 99.5508 280.555 99.8523 280.405 100.116C280.329 100.229 280.254 100.342 280.179 100.418C280.141 100.455 280.066 100.493 280.028 100.531C279.99 100.531 279.953 100.568 279.953 100.568C279.953 100.606 279.953 100.644 279.953 100.681C279.99 100.983 280.028 101.284 279.915 101.548C279.84 101.812 279.652 102.038 279.426 102.189C278.974 102.49 278.41 102.453 277.958 102.227C277.845 102.151 277.732 102.076 277.619 102C277.356 102.34 276.829 102.34 276.49 102.227C276.038 102.114 275.662 101.774 275.436 101.36C275.135 101.699 274.532 101.586 274.344 101.209C274.307 101.096 274.269 101.021 274.269 100.908C274.269 100.87 274.269 100.794 274.269 100.757C274.269 100.681 274.231 100.606 274.194 100.568C274.156 100.455 274.118 100.305 274.118 100.154C274.118 100.078 274.118 100.003 274.118 99.9276C274.118 99.8523 274.118 99.8146 274.081 99.7392C274.194 99.7769 274.344 99.7392 274.457 99.7015C274.57 99.6638 274.683 99.5885 274.758 99.5131C274.946 99.3246 275.059 99.0608 275.135 98.8347C275.285 98.3071 275.248 97.6287 274.683 97.3649C274.419 97.2141 273.667 97.2141 273.365 97.2895C273.064 97.3649 272.688 98.0433 272.688 98.1186C272.688 98.1563 272.688 98.194 272.65 98.2317C272.575 98.3071 272.424 98.194 272.387 98.1186C272.274 98.0433 272.199 97.9302 272.161 97.7794C272.01 97.5156 271.897 97.2518 271.822 96.9503C271.747 96.7242 271.709 96.4981 271.634 96.3096C271.559 96.0835 271.446 95.895 271.22 95.782C270.994 95.6689 270.768 95.5935 270.542 95.5182C270.316 95.4428 270.091 95.3297 269.902 95.179C269.865 95.1413 269.827 95.1036 269.789 95.0659C269.752 95.0282 269.752 94.9529 269.714 94.9529C269.639 94.9152 269.564 94.9905 269.526 95.0282C269.262 95.179 269.074 95.4051 268.886 95.6689C268.698 95.9327 268.585 96.1589 268.472 96.4227C268.397 96.6111 268.321 96.8749 268.171 97.0634C268.096 97.1387 267.606 97.1764 267.456 97.1011C267.305 97.0257 267.117 96.8749 267.079 96.7619C267.042 96.6488 267.004 96.5357 267.042 96.4227C267.042 96.3473 267.079 96.2719 267.117 96.2342C267.117 96.1589 267.154 96.1212 267.154 96.0835C267.192 95.9704 267.305 95.8951 267.418 95.8951C267.305 95.782 267.192 95.6689 267.154 95.5182C267.079 95.3674 267.042 95.179 267.004 95.0282C267.004 94.9152 267.004 94.7644 267.079 94.6513C267.154 94.5383 267.267 94.4629 267.418 94.3875C267.23 94.2368 267.079 94.086 266.966 93.8976C266.627 93.5584 266.477 93.1062 266.59 92.6916Z" fill="#161616"/>
  <path d="M268.397 110.367L261.696 106.711C260.567 105.392 259.476 104.375 258.422 103.621C258.083 103.47 257.518 103.395 258.045 104.375C258.572 105.355 259.099 106.372 258.836 106.674C258.572 106.975 257.857 106.561 257.556 107.051C257.33 107.39 258.497 107.88 261.057 108.596L265.95 113.005L268.397 110.367Z" fill="#CB7A43"/>
  <path d="M272.048 109.839C269.714 109.802 266.59 109.312 263.24 107.201L261.922 110.141C264.219 112.44 267.456 114.324 270.279 114.211C272.537 114.136 273.667 111.422 272.048 109.839Z" fill="#E4794A"/>
  <path d="M246.414 100.003C249.425 99.3245 252.399 98.4577 255.41 97.6663C255.786 97.5532 257.255 96.9502 257.518 97.1009C257.518 97.1009 257.782 98.6838 257.819 99.1361C257.97 100.644 258.196 102.151 258.421 103.621C258.572 104.676 258.723 105.543 258.798 106.033C258.835 106.146 258.835 106.221 258.835 106.297C258.835 106.448 258.836 106.561 258.76 106.636C258.497 106.937 257.782 106.523 257.48 107.013C257.292 107.277 258.007 107.654 259.551 108.143C260.379 110.103 263.24 114.249 263.503 114.588C261.207 115.606 258.911 116.623 256.615 117.603C256.05 117.867 252.662 119.487 252.06 119.299C251.458 119.148 250.554 117.264 250.065 116.246C248.898 113.797 247.995 111.196 247.355 108.558C247.242 107.842 245.811 100.154 246.414 100.003Z" fill="#FEF4F2"/>
  <path d="M256.389 118.809C255.109 117.905 253.942 117.264 252.85 116.962C250.78 116.397 249.914 115.945 248.898 114.626C248.333 113.947 247.882 112.515 248.409 112.063C248.747 111.761 250.818 113.269 251.646 113.457C252.474 113.646 251.721 111.648 252.173 111.837C252.737 111.837 253.227 112.628 253.641 114.211L256.577 115.832L256.389 118.809Z" fill="#CB7A43"/>
  <path d="M267.606 116.623C265.122 117.226 260.944 116.51 255.071 114.437C253.603 117.452 252.963 119.601 253.039 120.882C258.083 123.52 262.374 124.688 265.912 124.764C265.799 126.874 266.063 128.872 266.929 130.719C268.698 134.487 279.049 130.982 282.55 131.698C284.733 124.613 280.518 121.711 280.518 117.189C280.518 112.214 276.527 104.563 275.925 104.563H270.58C270.316 108.332 268.848 112.515 267.606 116.623Z" fill="#FA7A35"/>
  <path d="M267.945 98.6084C268.058 99.2114 267.23 99.5883 267.155 100.116C267.042 100.794 267.87 100.945 268.284 101.058" fill="#CB7A43"/>
  <path d="M268.246 102C268.472 101.887 268.623 101.85 268.811 101.737C268.999 101.661 269.187 101.548 269.413 101.51C269.3 101.737 269.15 101.887 268.924 102C268.698 102.076 268.434 102.113 268.246 102Z" fill="#161616"/>
  <path d="M268.547 98.0808C268.547 97.93 268.585 97.7416 268.773 97.6662C268.924 97.5908 269.112 97.5908 269.263 97.6285C269.564 97.7416 269.827 97.93 269.978 98.1938C269.677 98.1185 269.413 98.0054 269.187 97.93C269.074 97.8923 268.961 97.8546 268.848 97.8923C268.773 97.8546 268.66 97.9677 268.547 98.0808Z" fill="#161616"/>
  <path d="M269.074 98.6462C269.178 98.6462 269.263 98.5618 269.263 98.4577C269.263 98.3537 269.178 98.2693 269.074 98.2693C268.97 98.2693 268.886 98.3537 268.886 98.4577C268.886 98.5618 268.97 98.6462 269.074 98.6462Z" fill="#161616"/>
  <mask id="path-196-inside-1_2857_18062" fill="white">
  <path d="M266.037 92.2236C266.15 91.8844 266.376 91.5829 266.752 91.5075C266.828 91.4698 266.941 91.4698 267.016 91.4698C267.053 91.4698 267.053 91.4698 267.053 91.4698C267.053 91.4698 267.053 91.4321 267.053 91.3944C267.053 91.3191 267.091 91.2814 267.091 91.206C267.166 91.0176 267.279 90.8291 267.43 90.6784C267.693 90.4146 268.07 90.2261 268.446 90.1884C268.672 90.1884 268.86 90.1884 269.086 90.2638C269.199 90.3015 269.274 90.3392 269.387 90.3769C269.425 90.3769 269.5 90.4522 269.538 90.4522C269.575 90.4522 269.651 90.3769 269.651 90.3392C269.99 90.0754 270.366 90 270.78 90C271.232 90 271.683 90.0377 272.06 90.3015C272.135 90.3769 272.21 90.4146 272.286 90.4899C272.323 90.5276 272.361 90.5653 272.399 90.603C272.436 90.6407 272.436 90.6407 272.474 90.6784C272.512 90.7161 272.512 90.7161 272.549 90.7161C272.737 90.603 272.963 90.5653 273.151 90.5653C273.264 90.5653 273.415 90.603 273.528 90.6784C273.566 90.6784 273.678 90.7538 273.716 90.7538C273.754 90.7538 273.867 90.6784 273.904 90.6784C274.13 90.603 274.394 90.5653 274.657 90.603C274.921 90.6407 275.184 90.7538 275.372 90.9045C275.485 90.9799 275.561 91.0552 275.636 91.1683C275.674 91.206 275.711 91.2437 275.749 91.2814C275.786 91.3191 275.824 91.3191 275.824 91.3567C275.824 91.3567 276.088 91.2437 276.125 91.206C276.276 91.1683 276.426 91.1683 276.577 91.206C276.84 91.2814 277.066 91.5075 277.254 91.6959C277.367 91.809 277.443 91.9221 277.518 92.0351C277.556 92.1105 277.593 92.1482 277.631 92.2236C277.631 92.2613 277.669 92.2989 277.669 92.2989C277.706 92.3366 277.706 92.3366 277.744 92.3366C277.97 92.412 278.158 92.5251 278.308 92.7135C278.459 92.9019 278.572 93.0904 278.61 93.3542V93.4296C278.61 93.4296 278.647 93.4296 278.685 93.4296C278.76 93.4296 278.798 93.4296 278.873 93.4673C278.986 93.505 279.061 93.5426 279.174 93.5803C279.551 93.7688 279.814 94.108 279.927 94.4848C280.078 94.8994 280.078 95.3517 279.889 95.7662C279.852 95.8416 279.814 95.8793 279.777 95.9547C279.739 95.9923 279.739 95.9924 279.777 96.03C279.777 96.0677 279.814 96.1054 279.852 96.1431C279.927 96.2938 279.965 96.4069 280.002 96.5577C280.04 96.7838 280.078 97.0476 280.04 97.3114C280.002 97.4245 279.965 97.5375 279.927 97.6506C279.889 97.6883 279.852 97.7637 279.814 97.8014C279.777 97.839 279.777 97.839 279.739 97.8767L279.701 97.9144C279.664 97.9521 279.664 97.9144 279.701 97.9521C279.701 98.0275 279.777 98.1029 279.777 98.1405C279.814 98.2159 279.814 98.2913 279.852 98.3667C279.889 98.5174 279.927 98.6682 279.965 98.8189C280.002 99.0827 280.002 99.3842 279.852 99.6481C279.777 99.7611 279.701 99.8742 279.626 99.9496C279.588 99.9873 279.513 100.025 279.475 100.063C279.438 100.063 279.4 100.1 279.4 100.1C279.4 100.138 279.4 100.176 279.4 100.213C279.438 100.515 279.475 100.816 279.362 101.08C279.287 101.344 279.099 101.57 278.873 101.721C278.421 102.022 277.857 101.985 277.405 101.759C277.292 101.683 277.179 101.608 277.066 101.532C276.803 101.872 276.276 101.872 275.937 101.759C275.485 101.646 275.109 101.306 274.883 100.892C274.582 101.231 273.98 101.118 273.791 100.741C273.754 100.628 273.716 100.553 273.716 100.439C273.716 100.402 273.716 100.326 273.716 100.289C273.716 100.213 273.678 100.138 273.641 100.1C273.603 99.9872 273.566 99.8365 273.566 99.6857C273.566 99.6104 273.566 99.535 273.566 99.4596C273.566 99.3842 273.566 99.3466 273.528 99.2712C273.641 99.3089 273.791 99.2712 273.904 99.2335C274.017 99.1958 274.13 99.1204 274.205 99.0451C274.394 98.8566 274.507 98.5928 274.582 98.3667C274.732 97.839 274.695 97.1607 274.13 96.8969C273.867 96.7461 273.114 96.7461 272.813 96.8215C272.512 96.8968 272.135 97.5752 272.135 97.6506C272.135 97.6883 272.135 97.726 272.098 97.7637C272.022 97.839 271.872 97.726 271.834 97.6506C271.721 97.5752 271.646 97.4622 271.608 97.3114C271.458 97.0476 271.345 96.7838 271.269 96.4823C271.194 96.2562 271.156 96.03 271.081 95.8416C271.006 95.6155 270.893 95.427 270.667 95.314C270.441 95.2009 270.215 95.1255 269.99 95.0502C269.764 94.9748 269.538 94.8617 269.35 94.711C269.312 94.6733 269.274 94.6356 269.237 94.5979C269.199 94.5602 269.199 94.4848 269.161 94.4848C269.086 94.4472 269.011 94.5225 268.973 94.5602C268.71 94.711 268.522 94.9371 268.333 95.2009C268.145 95.4647 268.032 95.6908 267.919 95.9547C267.844 96.1431 267.769 96.4069 267.618 96.5954C267.543 96.6707 267.053 96.7084 266.903 96.633C266.752 96.5577 266.564 96.4069 266.526 96.2938C266.489 96.1808 266.451 96.0677 266.489 95.9547C266.489 95.8793 266.526 95.8039 266.564 95.7662C266.564 95.6908 266.602 95.6532 266.602 95.6155C266.639 95.5024 266.752 95.427 266.865 95.427C266.752 95.314 266.639 95.2009 266.602 95.0502C266.526 94.8994 266.489 94.711 266.451 94.5602C266.451 94.4471 266.451 94.2964 266.526 94.1833C266.602 94.0703 266.715 93.9949 266.865 93.9195C266.677 93.7688 266.526 93.618 266.413 93.4296C266.075 93.0904 265.924 92.6381 266.037 92.2236Z"/>
  </mask>
  <path d="M266.037 92.2236C266.15 91.8844 266.376 91.5829 266.752 91.5075C266.828 91.4698 266.941 91.4698 267.016 91.4698C267.053 91.4698 267.053 91.4698 267.053 91.4698C267.053 91.4698 267.053 91.4321 267.053 91.3944C267.053 91.3191 267.091 91.2814 267.091 91.206C267.166 91.0176 267.279 90.8291 267.43 90.6784C267.693 90.4146 268.07 90.2261 268.446 90.1884C268.672 90.1884 268.86 90.1884 269.086 90.2638C269.199 90.3015 269.274 90.3392 269.387 90.3769C269.425 90.3769 269.5 90.4522 269.538 90.4522C269.575 90.4522 269.651 90.3769 269.651 90.3392C269.99 90.0754 270.366 90 270.78 90C271.232 90 271.683 90.0377 272.06 90.3015C272.135 90.3769 272.21 90.4146 272.286 90.4899C272.323 90.5276 272.361 90.5653 272.399 90.603C272.436 90.6407 272.436 90.6407 272.474 90.6784C272.512 90.7161 272.512 90.7161 272.549 90.7161C272.737 90.603 272.963 90.5653 273.151 90.5653C273.264 90.5653 273.415 90.603 273.528 90.6784C273.566 90.6784 273.678 90.7538 273.716 90.7538C273.754 90.7538 273.867 90.6784 273.904 90.6784C274.13 90.603 274.394 90.5653 274.657 90.603C274.921 90.6407 275.184 90.7538 275.372 90.9045C275.485 90.9799 275.561 91.0552 275.636 91.1683C275.674 91.206 275.711 91.2437 275.749 91.2814C275.786 91.3191 275.824 91.3191 275.824 91.3567C275.824 91.3567 276.088 91.2437 276.125 91.206C276.276 91.1683 276.426 91.1683 276.577 91.206C276.84 91.2814 277.066 91.5075 277.254 91.6959C277.367 91.809 277.443 91.9221 277.518 92.0351C277.556 92.1105 277.593 92.1482 277.631 92.2236C277.631 92.2613 277.669 92.2989 277.669 92.2989C277.706 92.3366 277.706 92.3366 277.744 92.3366C277.97 92.412 278.158 92.5251 278.308 92.7135C278.459 92.9019 278.572 93.0904 278.61 93.3542V93.4296C278.61 93.4296 278.647 93.4296 278.685 93.4296C278.76 93.4296 278.798 93.4296 278.873 93.4673C278.986 93.505 279.061 93.5426 279.174 93.5803C279.551 93.7688 279.814 94.108 279.927 94.4848C280.078 94.8994 280.078 95.3517 279.889 95.7662C279.852 95.8416 279.814 95.8793 279.777 95.9547C279.739 95.9923 279.739 95.9924 279.777 96.03C279.777 96.0677 279.814 96.1054 279.852 96.1431C279.927 96.2938 279.965 96.4069 280.002 96.5577C280.04 96.7838 280.078 97.0476 280.04 97.3114C280.002 97.4245 279.965 97.5375 279.927 97.6506C279.889 97.6883 279.852 97.7637 279.814 97.8014C279.777 97.839 279.777 97.839 279.739 97.8767L279.701 97.9144C279.664 97.9521 279.664 97.9144 279.701 97.9521C279.701 98.0275 279.777 98.1029 279.777 98.1405C279.814 98.2159 279.814 98.2913 279.852 98.3667C279.889 98.5174 279.927 98.6682 279.965 98.8189C280.002 99.0827 280.002 99.3842 279.852 99.6481C279.777 99.7611 279.701 99.8742 279.626 99.9496C279.588 99.9873 279.513 100.025 279.475 100.063C279.438 100.063 279.4 100.1 279.4 100.1C279.4 100.138 279.4 100.176 279.4 100.213C279.438 100.515 279.475 100.816 279.362 101.08C279.287 101.344 279.099 101.57 278.873 101.721C278.421 102.022 277.857 101.985 277.405 101.759C277.292 101.683 277.179 101.608 277.066 101.532C276.803 101.872 276.276 101.872 275.937 101.759C275.485 101.646 275.109 101.306 274.883 100.892C274.582 101.231 273.98 101.118 273.791 100.741C273.754 100.628 273.716 100.553 273.716 100.439C273.716 100.402 273.716 100.326 273.716 100.289C273.716 100.213 273.678 100.138 273.641 100.1C273.603 99.9872 273.566 99.8365 273.566 99.6857C273.566 99.6104 273.566 99.535 273.566 99.4596C273.566 99.3842 273.566 99.3466 273.528 99.2712C273.641 99.3089 273.791 99.2712 273.904 99.2335C274.017 99.1958 274.13 99.1204 274.205 99.0451C274.394 98.8566 274.507 98.5928 274.582 98.3667C274.732 97.839 274.695 97.1607 274.13 96.8969C273.867 96.7461 273.114 96.7461 272.813 96.8215C272.512 96.8968 272.135 97.5752 272.135 97.6506C272.135 97.6883 272.135 97.726 272.098 97.7637C272.022 97.839 271.872 97.726 271.834 97.6506C271.721 97.5752 271.646 97.4622 271.608 97.3114C271.458 97.0476 271.345 96.7838 271.269 96.4823C271.194 96.2562 271.156 96.03 271.081 95.8416C271.006 95.6155 270.893 95.427 270.667 95.314C270.441 95.2009 270.215 95.1255 269.99 95.0502C269.764 94.9748 269.538 94.8617 269.35 94.711C269.312 94.6733 269.274 94.6356 269.237 94.5979C269.199 94.5602 269.199 94.4848 269.161 94.4848C269.086 94.4472 269.011 94.5225 268.973 94.5602C268.71 94.711 268.522 94.9371 268.333 95.2009C268.145 95.4647 268.032 95.6908 267.919 95.9547C267.844 96.1431 267.769 96.4069 267.618 96.5954C267.543 96.6707 267.053 96.7084 266.903 96.633C266.752 96.5577 266.564 96.4069 266.526 96.2938C266.489 96.1808 266.451 96.0677 266.489 95.9547C266.489 95.8793 266.526 95.8039 266.564 95.7662C266.564 95.6908 266.602 95.6532 266.602 95.6155C266.639 95.5024 266.752 95.427 266.865 95.427C266.752 95.314 266.639 95.2009 266.602 95.0502C266.526 94.8994 266.489 94.711 266.451 94.5602C266.451 94.4471 266.451 94.2964 266.526 94.1833C266.602 94.0703 266.715 93.9949 266.865 93.9195C266.677 93.7688 266.526 93.618 266.413 93.4296C266.075 93.0904 265.924 92.6381 266.037 92.2236Z" stroke="#6A6AF4" mask="url(#path-196-inside-1_2857_18062)"/>
  <path d="M291.025 40.2202H251.538V40.8628H291.025V40.2202Z" fill="#E4794A"/>
  <path d="M290.832 51.6904H251.344V52.333H290.832V51.6904Z" fill="#E4794A"/>
  <path d="M264.067 36.0432H253.208V56.51H264.067V36.0432Z" fill="#FEE9E5"/>
  <path d="M263.746 36.3322V56.1885H253.497V36.3322H263.746ZM264.357 35.7539H263.746H253.497H252.886V36.3644V56.2207V56.8311H253.497H263.746H264.357V56.2207V36.3644V35.7539Z" fill="#E4794A"/>
  <path d="M276.664 36.0432H265.804V56.51H276.664V36.0432Z" fill="#FEE9E5"/>
  <path d="M276.374 36.3322V56.1885H266.125V36.3322H276.374ZM276.953 35.7539H276.342H266.093H265.482V36.3644V56.2207V56.8311H266.093H276.342H276.953V56.2207V36.3644V35.7539Z" fill="#E4794A"/>
  <path d="M289.29 36.0432H278.43V56.51H289.29V36.0432Z" fill="#FEE9E5"/>
  <path d="M288.968 36.3322V56.1885H278.719V36.3322H288.968ZM289.579 35.7539H288.968H278.719H278.108V36.3644V56.2207V56.8311H278.719H288.968H289.579V56.2207V36.3644V35.7539Z" fill="#E4794A"/>
  <path d="M251.89 31.4165H250.798V62.7753H251.89V31.4165Z" fill="#E4794A"/>
  <path d="M293.049 27.5293H271.265H249.481C249.481 27.5293 246.718 28.4289 245.85 31.417H271.265H296.68C295.844 28.4289 293.049 27.5293 293.049 27.5293Z" fill="#E4794A"/>
  <path d="M292.503 27.9465H271.233H270.912H249.642C249.642 27.9465 248.356 28.2357 247.682 29.2317H270.847H271.233H294.399C293.756 28.2357 292.503 27.9465 292.503 27.9465Z" fill="#FEF4F2"/>
  <path d="M261.462 64.0921H260.916L261.366 59.0156H261.912L261.462 64.0921Z" fill="#755348"/>
  <path d="M280.708 64.0921H281.222L280.772 59.0156H280.258L280.708 64.0921Z" fill="#755348"/>
  <path d="M259.954 65.3455H259.343L259.889 58.6946H260.5L259.954 65.3455Z" fill="#755348"/>
  <path d="M282.188 65.3452H282.799L282.285 58.6943H281.674L282.188 65.3452Z" fill="#755348"/>
  <path d="M262.395 51.594H261.784V59.016H262.395V51.594Z" fill="#755348"/>
  <path d="M280.355 51.5938H279.744V59.0158H280.355V51.5938Z" fill="#755348"/>
  <path d="M283.953 51.5938H258.217V53.5858H283.953V51.5938Z" fill="#FA7A35"/>
  <path d="M283.953 55.0317H258.217V57.0238H283.953V55.0317Z" fill="#FA7A35"/>
  <path d="M285.077 58.4053H257.06V58.9836H285.077V58.4053Z" fill="#FA7A35"/>
  <path d="M235.056 27.2397H234.413V64.5426H235.056V27.2397Z" fill="#AB7B6B"/>
  <path d="M243.73 44.2688C242.734 38.7103 240.549 35.1439 240.549 35.1439C240.549 35.1439 244.823 30.0031 234.702 19.1111C224.613 30.0031 228.854 35.1439 228.854 35.1439C228.854 35.1439 226.669 38.7103 225.673 44.2688C224.677 49.8273 229.946 52.1085 234.702 52.1085C239.457 52.1085 244.726 49.8273 243.73 44.2688Z" fill="#FA7A35"/>
  <path d="M253.884 56.543C253.369 56.2217 252.502 56.6394 252.502 57.0892C252.502 58.4066 253.723 64.704 253.787 65.0896C253.851 65.4751 254.526 65.6037 254.558 65.0896C254.623 64.2863 254.751 61.5553 254.623 60.2701C254.558 59.756 254.526 59.2419 254.462 58.7921C255.105 59.9488 256.068 61.5874 257.418 63.7401L258.157 63.4188C257.579 61.5553 257.129 60.238 256.743 59.4668C256.133 58.1495 255.522 57.025 255.297 56.6073C254.912 55.9325 254.237 56.1575 253.884 56.543Z" fill="#49220A"/>
  <path d="M258.093 62.3584L255.619 56.4786C255.009 55.5147 253.37 56.6714 253.563 57.2176C254.013 58.4706 256.358 62.5511 256.519 62.9367L258.093 62.3584Z" fill="#AB7B6B"/>
  <path d="M258.259 63.0103C258.41 63.1346 258.505 63.2266 258.557 63.3305C258.608 63.4343 258.671 63.5821 258.746 63.7737C258.626 63.8529 257.627 64.4263 255.673 65.5614C255.427 65.3451 255.408 65.1856 255.56 65.0507C255.712 64.9159 255.848 64.8089 255.952 64.7576L257.018 63.2958C257.035 63.2679 257.078 63.2562 257.106 63.2722L257.341 63.4446C257.544 63.4137 257.704 63.3945 257.78 63.327C257.856 63.2596 257.948 63.1644 258.056 63.0413C258.088 62.9857 258.176 62.9621 258.259 63.0103C258.259 63.0103 258.231 62.9943 258.259 63.0103Z" fill="#FCB09E"/>
  <path d="M254.719 64.7679C254.784 64.9607 254.816 65.0892 254.816 65.1856C254.816 65.3141 254.784 65.4747 254.751 65.6675C254.623 65.6675 253.434 65.6675 251.217 65.6675C251.121 65.3784 251.185 65.1856 251.378 65.1856C251.571 65.1856 251.731 65.1534 251.86 65.1213L253.498 64.3823C253.531 64.3823 253.563 64.3823 253.595 64.4145L253.691 64.6715C253.884 64.7679 254.012 64.8 254.141 64.8C254.237 64.8 254.366 64.7679 254.527 64.6715C254.623 64.6394 254.687 64.6715 254.719 64.7679C254.719 64.7358 254.719 64.7358 254.719 64.7679Z" fill="#FCB09E"/>
  <path d="M252.341 57.5389C252.341 59.2096 253.145 63.0974 253.145 63.4829H254.847C254.59 60.0129 254.494 58.2457 254.59 58.2136C254.687 58.1494 259.056 58.6634 260.374 58.6634C262.269 58.6634 263.041 57.4746 263.105 55.2898H259.378C258.607 55.3862 254.655 56.1573 253.177 56.4465C252.502 56.5107 252.341 57.0569 252.341 57.5389Z" fill="#C68F7D"/>
  <path d="M261.303 46.1327C261.592 45.7793 261.785 45.3616 261.753 44.9118C261.656 43.5623 259.793 43.8515 259.407 44.5262C259.022 45.2009 259.086 46.9359 259.568 47.0645C259.761 47.1287 260.146 47.0002 260.564 46.7432L260.307 48.5424H261.817L261.303 46.1327Z" fill="#49220A"/>
  <path d="M256.968 54.3574L255.105 55.4498C254.655 56.1888 254.366 56.5101 254.302 56.4137C254.173 56.2531 254.366 56.0924 254.302 55.9639C254.237 55.8354 253.852 55.8996 253.498 55.996C253.145 56.0603 253.241 55.8996 253.306 55.8033C253.627 55.5462 254.077 55.2892 254.591 55.0643L256.358 53.3292L256.968 54.3574ZM266.19 56.9278C266.286 57.1206 266.961 57.6668 267.411 57.9881C267.603 58.1166 267.507 58.2773 267.443 58.3094C266.864 58.6628 266.511 58.2451 265.997 58.0202C265.451 57.7632 265.515 58.47 265.065 58.2773C265.194 57.9881 265.515 57.4419 265.354 57.0885C265.29 56.9278 264.744 55.1607 263.684 51.7549H265.065C265.708 54.9679 266.061 56.7029 266.19 56.9278Z" fill="#49220A"/>
  <path d="M260.889 47.8352L260.342 47.7388C259.475 50.759 255.073 52.8153 254.816 53.972C254.72 54.3897 255.009 54.5824 254.848 54.711L255.555 55.225C255.684 55.0965 255.941 55.3536 256.455 55.1608C257.001 55.0001 260.889 51.4337 260.889 47.8352Z" fill="#FB926B"/>
  <path d="M259.989 48.2529C260.053 52.2691 257.74 53.2973 258.254 54.9038C258.671 56.2211 262.752 57.6669 263.459 56.3496C263.748 55.8355 263.877 55.1929 263.877 54.4861C264.069 55.0323 264.198 55.4821 264.294 55.8677C264.487 56.5424 265.162 56.6388 265.162 56.8958L266.094 56.6388C266.029 56.2854 266.479 56.1247 266.351 55.3536C265.836 51.8836 264.423 49.3774 262.142 47.8031L262.109 47.4496C262.109 47.3211 261.981 47.1926 261.852 47.2247L260.149 47.3532C260.021 47.3532 259.892 47.4818 259.925 47.6103L259.989 48.2529Z" fill="#FAA184"/>
  <path d="M202.971 145.294C203.148 145.868 203.854 146.133 204.296 145.736C204.782 145.338 205.223 144.72 205.223 143.705C205.223 141.585 206.327 129.62 205.665 128.207C204.826 126.441 187.032 123.438 180.144 123.173C179.526 123.129 178.952 122.82 178.643 122.29C176.788 119.244 170.563 109.177 168.576 108.559C166.236 107.852 152.327 106.483 144.954 106.483C137.58 106.483 117.755 106.704 116.122 108.382C114.444 110.06 100.05 127.235 99.2551 129.267C98.4603 131.298 97.1357 136.949 97.1357 139.643C97.1357 141.718 99.7849 143.661 101.419 144.588C101.904 144.853 102.522 144.588 102.611 144.014C103.096 141.276 104.995 134.477 112.236 134.477C121.288 134.477 123.716 142.027 124.864 144.19C126.012 146.354 126.763 146.089 135.019 146.089C143.276 146.089 178.245 146.089 178.245 146.089C178.245 146.089 180.321 146.177 181.16 143.484C181.954 140.791 183.5 134.874 190.432 134.874C195.244 134.874 200.455 135.89 202.971 145.294Z" fill="#E4794A"/>
  <path d="M101.419 144.544C101.905 144.809 102.523 144.544 102.611 143.97C102.832 142.645 103.406 140.437 104.73 138.451L97.5333 135.89C97.2684 137.303 97.0918 138.671 97.0918 139.599C97.136 141.674 99.7852 143.616 101.419 144.544Z" fill="#FA7A35"/>
  <path d="M178.29 146.045C178.29 146.045 143.276 146.045 135.064 146.045C129.412 146.045 127.249 146.177 126.101 145.559C126.012 145.515 125.924 145.471 125.88 145.427C125.836 145.427 125.836 145.382 125.792 145.382C125.438 145.118 125.173 144.72 124.909 144.19C124.864 144.146 124.82 144.058 124.82 143.97C124.246 142.822 123.407 140.702 121.729 138.715H183.191C182.087 140.393 181.557 142.292 181.204 143.484C180.365 146.133 178.29 146.045 178.29 146.045Z" fill="#FA7A35"/>
  <path d="M204.296 145.692C204.782 145.294 205.223 144.676 205.223 143.661C205.223 142.998 205.312 141.453 205.444 139.554L200.322 139.201C201.382 140.658 202.265 142.645 202.971 145.206C203.148 145.868 203.855 146.089 204.296 145.692Z" fill="#FA7A35"/>
  <path d="M202.972 145.294C200.455 135.89 195.333 134.874 190.476 134.874C183.412 134.874 181.999 140.791 181.204 143.484C180.409 146.177 178.29 146.089 178.29 146.089C178.29 146.089 178.069 146.089 177.672 146.089C177.672 146.221 177.672 146.354 177.716 146.486L186.503 147.723L203.325 145.78C203.148 145.647 203.016 145.471 202.972 145.294Z" fill="#755348"/>
  <path d="M124.908 144.146C123.76 141.983 121.332 134.432 112.28 134.432C105.039 134.432 103.141 141.232 102.655 143.969C102.611 144.234 102.434 144.455 102.213 144.588L113.87 147.325L127.646 146.001C126.012 145.78 125.482 145.338 124.908 144.146Z" fill="#755348"/>
  <path d="M178.599 122.114C177.054 119.553 172.771 112.665 170.166 109.795C169.592 109.795 168.488 109.883 168.488 110.281C168.488 110.81 175.155 122.246 176.435 122.732C177.318 123.129 178.157 122.599 178.599 122.114Z" fill="#FEE9E5"/>
  <path d="M173.742 123.836C174.316 123.836 174.669 123.174 174.36 122.688C172.285 119.465 166.545 110.634 165.397 110.369C164.028 110.06 145.352 110.369 145.352 110.369C145.352 110.369 142.747 110.369 142.747 114.122C142.747 116.904 142.967 120.922 143.056 122.776C143.1 123.35 143.541 123.792 144.115 123.792H173.742V123.836Z" fill="#FEE9E5"/>
  <path d="M141.113 112.444V122.246C141.113 123.129 140.406 123.836 139.523 123.836H115.504C115.504 123.836 113.605 123.306 113.429 121.231C113.296 119.685 117.756 114.21 119.963 111.605C120.714 110.722 121.774 110.236 122.922 110.236H138.905C140.097 110.236 141.113 111.252 141.113 112.444Z" fill="#FEE9E5"/>
  <path d="M112.987 111.914C110.559 114.784 107.203 118.802 104.421 122.29L104.863 122.467C105.481 122.732 106.232 122.511 106.629 121.981L113.385 113.151C113.694 112.753 113.473 112.091 112.987 111.914Z" fill="#FEE9E5"/>
  <path d="M175.95 148.208H129.324C128.352 148.208 127.558 147.414 127.558 146.442V145.957H177.672V146.442C177.716 147.414 176.921 148.208 175.95 148.208Z" fill="#755348"/>
  <path d="M98.8136 130.503C98.1513 132.755 97.3124 136.375 97.1357 138.759C97.8422 139.378 98.7253 139.775 99.0343 138.804C99.52 137.214 101.11 131.253 100.889 130.944C100.756 130.723 99.6525 130.591 98.8136 130.503Z" fill="#FAA184"/>
  <path d="M100.448 141.806L99.6086 143.219C99.432 143.484 99.1671 143.66 98.8139 143.66H97.6659C97.401 143.66 97.1802 143.881 97.1802 144.146C97.136 144.499 97.0036 144.808 96.4737 144.367C95.5907 143.616 94.6634 142.027 94.7959 140.702C94.9284 139.378 95.3257 138.009 95.8114 138.009C96.2971 138.009 97.136 138.141 97.136 139.378V140.084C97.136 140.526 97.4893 140.923 97.9749 140.923H99.9618C100.403 140.923 100.668 141.409 100.448 141.806Z" fill="#755348"/>
  <path d="M205.93 144.853H205.312C204.649 144.853 204.12 144.323 204.12 143.66V141.585C204.12 141.1 204.517 140.746 204.959 140.746H205.974C206.857 140.746 207.608 141.453 207.608 142.38V143.263C207.564 144.102 206.857 144.853 205.93 144.853Z" fill="#755348"/>
  <path d="M205.841 128.56C205.841 128.56 206.945 128.56 206.901 130.37C206.857 132.181 206.901 134.521 205.753 134.874C205.753 134.874 205.93 129.09 205.841 128.56Z" fill="#755348"/>
  <path d="M191.756 155.847C197.146 155.847 201.514 151.478 201.514 146.089C201.514 140.7 197.146 136.331 191.756 136.331C186.367 136.331 181.999 140.7 181.999 146.089C181.999 151.478 186.367 155.847 191.756 155.847Z" fill="#755348"/>
  <path d="M191.757 152.359C195.219 152.359 198.026 149.552 198.026 146.089C198.026 142.626 195.219 139.819 191.757 139.819C188.294 139.819 185.487 142.626 185.487 146.089C185.487 149.552 188.294 152.359 191.757 152.359Z" fill="#FEE9E5"/>
  <path d="M191.757 148.208C192.927 148.208 193.876 147.259 193.876 146.089C193.876 144.918 192.927 143.969 191.757 143.969C190.586 143.969 189.637 144.918 189.637 146.089C189.637 147.259 190.586 148.208 191.757 148.208Z" fill="#AB7B6B"/>
  <path d="M113.517 155.847C118.906 155.847 123.275 151.478 123.275 146.089C123.275 140.7 118.906 136.331 113.517 136.331C108.128 136.331 103.759 140.7 103.759 146.089C103.759 151.478 108.128 155.847 113.517 155.847Z" fill="#755348"/>
  <path d="M113.517 152.359C116.98 152.359 119.787 149.552 119.787 146.089C119.787 142.626 116.98 139.819 113.517 139.819C110.054 139.819 107.247 142.626 107.247 146.089C107.247 149.552 110.054 152.359 113.517 152.359Z" fill="#FEE9E5"/>
  <path d="M113.517 148.208C114.687 148.208 115.636 147.259 115.636 146.089C115.636 144.918 114.687 143.969 113.517 143.969C112.346 143.969 111.397 144.918 111.397 146.089C111.397 147.259 112.346 148.208 113.517 148.208Z" fill="#AB7B6B"/>
  <path d="M205.621 137.567L205.488 139.775L206.327 139.334C206.725 139.113 206.813 138.539 206.46 138.23L205.621 137.567Z" fill="#FAA184"/>
  <path d="M149.281 129.134H144.512C144.115 129.134 143.762 128.781 143.762 128.383C143.762 127.986 144.115 127.633 144.512 127.633H149.281C149.678 127.633 150.031 127.986 150.031 128.383C150.076 128.825 149.722 129.134 149.281 129.134Z" fill="#FEE9E5"/>
  <path d="M177.11 145.606C177.11 145.356 177.11 145.356 177.109 145.356H177.108H177.106H177.103H177.1H177.095H177.09H177.084H177.078H177.07H177.062H177.053H177.043H177.032H177.021H177.009H176.996H176.983H176.968H176.953H176.937H176.921H176.904H176.885H176.867H176.847H176.827H176.806H176.784H176.762H176.739H176.715H176.69H176.665H176.639H176.612H176.585H176.557H176.528H176.499H176.469H176.438H176.406H176.374H176.341H176.308H176.273H176.238H176.203H176.167H176.13H176.092H176.054H176.015H175.976H175.935H175.895H175.853H175.811H175.768H175.725H175.681H175.636H175.591H175.545H175.499H175.451H175.404H175.355H175.306H175.257H175.207H175.156H175.104H175.052H175H174.947H174.893H174.839H174.784H174.728H174.672H174.615H174.558H174.5H174.442H174.383H174.324H174.264H174.203H174.142H174.08H174.018H173.955H173.892H173.828H173.764H173.699H173.633H173.567H173.501H173.434H173.366H173.298H173.23H173.16H173.091H173.021H172.95H172.879H172.807H172.735H172.663H172.59H172.516H172.442H172.367H172.292H172.217H172.141H172.065H171.988H171.91H171.832H171.754H171.675H171.596H171.517H171.437H171.356H171.275H171.194H171.112H171.03H170.947H170.864H170.78H170.696H170.612H170.527H170.442H170.356H170.27H170.184H170.097H170.009H169.922H169.834H169.745H169.656H169.567H169.478H169.388H169.297H169.206H169.115H169.024H168.932H168.84H168.747H168.654H168.561H168.467H168.373H168.279H168.184H168.089H167.994H167.898H167.802H167.706H167.609H167.512H167.414H167.317H167.219H167.12H167.022H166.923H166.824H166.724H166.624H166.524H166.424H166.323H166.222H166.12H166.019H165.917H165.815H165.712H165.61H165.507H165.403H165.3H165.196H165.092H164.988H164.883H164.778H164.673H164.568H164.463H164.357H164.251H164.145H164.038H163.931H163.824H163.717H163.61H163.502H163.394H163.286H163.178H163.07H162.961H162.852H162.743H162.634H162.524H162.415H162.305H162.195H162.085H161.974H161.864H161.753H161.642H161.531H161.42H161.308H161.197H161.085H160.973H160.861H160.749H160.637H160.524H160.412H160.299H160.186H160.073H159.96H159.847H159.733H159.62H159.506H159.392H159.278H159.164H159.05H158.936H158.822H158.707H158.593H158.478H158.364H158.249H158.134H158.019H157.904H157.789H157.674H157.558H157.443H157.328H157.212H157.097H156.981H156.866H156.75H156.634H156.518H156.403H156.287H156.171H156.055H155.939H155.823H155.707H155.591H155.475H155.359H155.243H155.126H155.01H154.894H154.778H154.662H154.546H154.429H154.313H154.197H154.081H153.965H153.849H153.733H153.617H153.501H153.385H153.269H153.153H153.037H152.921H152.805H152.689H152.573H152.458H152.342H152.226H152.111H151.995H151.88H151.765H151.649H151.534H151.419H151.304H151.189H151.074H150.959H150.845H150.73H150.615H150.501H150.387H150.272H150.158H150.044H149.93H149.816H149.703H149.589H149.476H149.362H149.249H149.136H149.023H148.91H148.797H148.685H148.573H148.46H148.348H148.236H148.124H148.013H147.901H147.79H147.679H147.568H147.457H147.346H147.236H147.126H147.015H146.905H146.796H146.686H146.577H146.468H146.359H146.25H146.141H146.033H145.925H145.817H145.709H145.602H145.494H145.387H145.28H145.174H145.067H144.961H144.855H144.75H144.644H144.539H144.434H144.33H144.225H144.121H144.017H143.913H143.81H143.707H143.604H143.501H143.399H143.297H143.195H143.094H142.993H142.892H142.791H142.691H142.591H142.491H142.392H142.293H142.194H142.095H141.997H141.899H141.802H141.704H141.608H141.511H141.415H141.319H141.223H141.128H141.033H140.939H140.844H140.751H140.657H140.564H140.471H140.379H140.287H140.195H140.104H140.013H139.922H139.832H139.742H139.653H139.564H139.475H139.387H139.299H139.211H139.124H139.038H138.951H138.866H138.78H138.695H138.61H138.526H138.442H138.359H138.276H138.194H138.111H138.03H137.949H137.868H137.788H137.708H137.628H137.549H137.471H137.393H137.315H137.238H137.161H137.085H137.009H136.934H136.859H136.785H136.711H136.638H136.565H136.493H136.421H136.349H136.278H136.208H136.138H136.069H136H135.932H135.864H135.796H135.73H135.663H135.598H135.532H135.468H135.404H135.34H135.277H135.214H135.152H135.091H135.03H134.97H134.91H134.851H134.792H134.734H134.676H134.62H134.563H134.507H134.452H134.397H134.343H134.29H134.237H134.185H134.133H134.082H134.031H133.982H133.932H133.884C132.99 145.356 132.187 145.359 131.461 145.361C130.506 145.365 129.686 145.368 128.977 145.363C127.727 145.354 126.839 145.319 126.177 145.22C125.519 145.122 125.106 144.962 124.791 144.719C124.474 144.473 124.232 144.123 123.949 143.59C123.828 143.362 123.692 143.069 123.532 142.728C122.212 139.901 119.338 133.743 111.1 133.743C107.386 133.743 105.029 135.494 103.55 137.591C102.079 139.677 101.474 142.103 101.229 143.487L101.229 143.487L101.228 143.492C101.168 143.88 100.751 144.073 100.404 143.886C99.5993 143.429 98.5498 142.724 97.705 141.885C96.8517 141.037 96.25 140.094 96.25 139.159C96.25 137.841 96.5761 135.776 97.0061 133.775C97.4357 131.776 97.9622 129.871 98.3522 128.874C98.4382 128.654 98.7299 128.19 99.2074 127.516C99.6774 126.853 100.309 126.012 101.052 125.052C102.537 123.133 104.462 120.745 106.415 118.367C110.326 113.605 114.335 108.903 115.163 108.075L115.165 108.073C115.23 108.006 115.363 107.923 115.59 107.833C115.811 107.746 116.098 107.661 116.448 107.579C117.148 107.415 118.074 107.27 119.172 107.142C121.367 106.887 124.221 106.702 127.26 106.57C133.337 106.305 140.133 106.25 143.818 106.25C147.494 106.25 152.805 106.591 157.494 107.022C159.837 107.237 162.022 107.474 163.767 107.701C165.518 107.929 166.804 108.145 167.367 108.314C167.557 108.374 167.836 108.563 168.196 108.9C168.549 109.231 168.955 109.677 169.398 110.212C170.283 111.282 171.3 112.687 172.317 114.172C174.349 117.139 176.365 120.412 177.292 121.935C177.65 122.546 178.305 122.89 178.99 122.939L178.99 122.939L178.999 122.94C182.425 123.072 188.582 123.886 193.991 124.89C196.695 125.391 199.205 125.939 201.088 126.47C202.031 126.736 202.809 126.995 203.374 127.24C203.657 127.363 203.88 127.479 204.041 127.587C204.208 127.698 204.28 127.782 204.303 127.83C204.33 127.888 204.36 127.991 204.387 128.149C204.413 128.304 204.434 128.497 204.451 128.726C204.483 129.183 204.494 129.767 204.489 130.441C204.479 131.788 204.403 133.478 204.307 135.193C204.23 136.556 204.14 137.938 204.059 139.175C203.938 141.041 203.837 142.579 203.837 143.221C203.837 144.15 203.44 144.701 203.002 145.059L203.002 145.059L202.993 145.066C202.849 145.196 202.66 145.222 202.481 145.16C202.299 145.097 202.14 144.946 202.076 144.741C200.807 140.003 198.848 137.336 196.562 135.864C194.281 134.394 191.715 134.141 189.296 134.141C185.744 134.141 183.553 135.663 182.158 137.536C180.85 139.293 180.246 141.353 179.85 142.704C179.828 142.781 179.806 142.855 179.785 142.928C179.385 144.209 178.702 144.806 178.14 145.09C177.855 145.234 177.594 145.3 177.407 145.33C177.313 145.346 177.238 145.352 177.188 145.354C177.163 145.356 177.145 145.356 177.133 145.356L177.121 145.356L177.12 145.356L177.12 145.356H177.11V145.606Z" stroke="#6A6AF4" stroke-width="0.5"/>
  <path d="M58.2206 178.94H-4.7002C-4.7002 178.94 -2.75657 165.137 6.10505 163.16C6.10505 163.16 2.2178 141.352 11.5736 141.187C20.9293 141.023 25.6072 158.054 25.6072 158.054C25.6072 158.054 32.8546 156.769 36.2477 167.871C36.2807 167.904 46.0647 162.337 58.2206 178.94Z" fill="#FA7A35"/>
  <path d="M12.261 149.499L11.6138 149.623L17.2285 179.038L17.8757 178.914L12.261 149.499Z" fill="#FA7A35"/>
  <path d="M19.8314 146.385L15.4722 169.634L16.1198 169.755L20.479 146.506L19.8314 146.385Z" fill="#FA7A35"/>
  <path d="M57.9208 178.754H-5C-5 178.754 -3.05637 164.951 5.80525 162.974C5.80525 162.974 1.91799 141.166 11.2738 141.001C20.6295 140.836 25.3074 157.868 25.3074 157.868C25.3074 157.868 32.5548 156.583 35.9479 167.685C35.9809 167.718 45.7649 162.15 57.9208 178.754Z" fill="#FA7A35"/>
  <path d="M11.9612 149.313L11.314 149.437L16.9287 178.852L17.5759 178.728L11.9612 149.313Z" fill="#AB7B6B"/>
  <path d="M19.5316 146.199L15.1724 169.447L15.82 169.569L20.1792 146.32L19.5316 146.199Z" fill="#AB7B6B"/>
  <path d="M65.3845 99.2005L65.3598 91.2915C65.3598 91.0205 65.3106 90.7495 65.212 90.5031C64.7685 89.419 63.3887 86.2407 61.0481 83.013C60.6785 82.4956 60.0626 82.2 59.422 82.2H35.1777C35.1777 82.2 28.5746 83.2348 20.6657 89.1234C20.2468 89.4437 19.7294 89.6408 19.1874 89.69C16.3046 89.9857 6.74493 91.2423 6.5971 95.5786L6.44925 95.6279C5.83328 95.8497 5.46373 96.441 5.48837 97.1062C5.56229 98.3628 5.78403 100.309 6.47391 100.63C7.08987 100.901 8.74063 101.344 9.99719 101.689C10.5146 101.812 11.032 101.418 11.032 100.876V99.9643C11.032 96.8106 13.619 94.1496 16.7728 94.2235C19.8279 94.2728 22.2918 96.7859 22.2918 99.8411V101.467C22.2918 101.812 22.5628 102.083 22.9078 102.083H48.9506C49.3941 102.083 49.739 101.738 49.739 101.295V99.9889C49.739 96.8352 52.3261 94.1742 55.4798 94.2482C58.535 94.2974 60.9988 96.8106 60.9988 99.8657V101.393C60.9988 101.788 61.3191 102.083 61.6887 102.083H64.8917C65.2366 102.083 65.5816 101.935 65.8033 101.664C66.2468 101.147 66.641 99.8411 65.3845 99.2005Z" fill="#FB926B"/>
  <path d="M60.9987 101.418V99.8903C60.9987 96.8105 58.5349 94.322 55.4797 94.2727C55.3811 94.2727 55.3072 94.2727 55.2087 94.2727L54.8637 94.2973C52.0057 94.5684 49.7389 97.0815 49.7389 100.013V101.319C49.7389 101.689 49.4925 101.985 49.1476 102.083H61.5161C61.2205 102.034 60.9987 101.738 60.9987 101.418Z" fill="#161616"/>
  <path d="M22.2918 101.492V99.8658C22.2918 96.786 19.8279 94.2975 16.7727 94.2482C13.619 94.199 11.032 96.8353 11.032 99.989V100.901C11.032 101.295 10.7856 101.591 10.4407 101.689L22.9077 102.108C22.5628 102.108 22.2918 101.837 22.2918 101.492Z" fill="#161616"/>
  <path d="M16.7482 104.917C13.9722 104.917 11.7219 102.666 11.7219 99.8903C11.7219 97.1143 13.9722 94.864 16.7482 94.864C19.5241 94.864 21.7744 97.1143 21.7744 99.8903C21.7744 102.666 19.5241 104.917 16.7482 104.917Z" fill="#E4794A"/>
  <path d="M16.7484 103.069C14.993 103.069 13.57 101.646 13.57 99.8903C13.57 98.1349 14.993 96.7119 16.7484 96.7119C18.5038 96.7119 19.9268 98.1349 19.9268 99.8903C19.9268 101.646 18.5038 103.069 16.7484 103.069Z" fill="#FB926B"/>
  <path d="M55.3321 104.917C52.5562 104.917 50.3059 102.666 50.3059 99.8903C50.3059 97.1143 52.5562 94.864 55.3321 94.864C58.1081 94.864 60.3584 97.1143 60.3584 99.8903C60.3584 102.666 58.1081 104.917 55.3321 104.917Z" fill="#E4794A"/>
  <path d="M55.3319 103.069C53.5765 103.069 52.1535 101.646 52.1535 99.8903C52.1535 98.1349 53.5765 96.7119 55.3319 96.7119C57.0872 96.7119 58.5103 98.1349 58.5103 99.8903C58.5103 101.646 57.0872 103.069 55.3319 103.069Z" fill="#FB926B"/>
  <path d="M52.1783 83.7028V88.7783C52.1783 89.1479 52.4739 89.4189 52.8189 89.4436L59.4959 89.5914C59.9394 89.5914 60.2597 89.1726 60.1365 88.7537L58.6582 83.5057C58.5843 83.21 58.3133 83.0129 58.0176 83.0129H52.8189C52.4739 83.0376 52.1783 83.3332 52.1783 83.7028Z" fill="#FDDFD8"/>
  <path d="M11.0815 92.4495C9.97278 92.4741 8.22345 92.7698 7.50893 94.322C7.38574 94.593 7.60749 94.8887 7.87851 94.864C8.83941 94.8148 10.7366 94.5684 11.5989 93.4596C11.9192 93.0408 11.5989 92.4495 11.0815 92.4495Z" fill="#FDDFD8"/>
  <path d="M6.22736 98.3873L6.49838 99.7178C6.57229 100.087 6.89258 100.358 7.2868 100.358C7.6071 100.358 7.85347 100.137 7.92739 99.841L8.27233 98.3873C8.32161 98.1409 8.14914 97.9192 7.90276 97.9192H6.57227C6.35053 97.9192 6.17808 98.1409 6.22736 98.3873Z" fill="#000091"/>
  <path d="M64.2265 91.7103V94.1003C64.2265 94.5191 64.5714 94.8394 64.9657 94.8394H65.3599V91.2915C65.3599 91.1929 65.3599 91.0697 65.3352 90.9712H64.9657C64.5714 90.9712 64.2265 91.3161 64.2265 91.7103Z" fill="#FDDFD8"/>
  <path d="M22.5383 88.9755C24.8297 87.6204 29.5356 84.6391 33.8227 83.1608C34.0198 83.0869 35.0054 83.0376 35.2025 83.0376H36.7054C37.2721 83.0376 37.7402 83.5057 37.7402 84.0724V88.532C37.7402 89.0247 37.346 89.419 36.8532 89.419H22.6615C22.4151 89.419 22.3166 89.0987 22.5383 88.9755Z" fill="#FDDFD8"/>
  <path d="M39.0214 83.8999V88.5566C39.0214 89.0248 39.4156 89.419 39.8838 89.419H49.9609C50.429 89.419 50.8232 89.0248 50.8232 88.5566V83.8999C50.8232 83.4318 50.429 83.0376 49.9609 83.0376H39.8838C39.4156 83.0376 39.0214 83.4318 39.0214 83.8999Z" fill="#FDDFD8"/>
  <path d="M22.9078 102.108H48.9507C49.3942 102.108 49.7391 101.763 49.7391 101.319V100.013C49.7391 98.8062 50.1333 97.6482 50.7739 96.7119H21.2817C21.8977 97.6235 22.2672 98.7076 22.2672 99.8903V101.516C22.2919 101.837 22.5629 102.108 22.9078 102.108Z" fill="#FA7A35"/>
  <path d="M60.9989 99.8903V101.418C60.9989 101.812 61.3192 102.108 61.6888 102.108H64.8918C65.2367 102.108 65.5816 101.96 65.8034 101.689C66.2715 101.147 66.6657 99.841 65.3845 99.2004V96.7119H60.0134C60.6293 97.5989 60.9989 98.7076 60.9989 99.8903Z" fill="#FA7A35"/>
  <path d="M6.47378 100.654C7.08974 100.925 8.7405 101.369 9.99706 101.714C10.5145 101.837 11.0319 101.443 11.0319 100.901V99.989C11.0319 98.7325 11.4507 97.5498 12.1406 96.5889L6.20273 95.7512C5.7346 96.0222 5.43896 96.5397 5.48824 97.1063C5.56216 98.4122 5.75926 100.359 6.47378 100.654Z" fill="#FA7A35"/>
  </g>
  <defs>
  <clipPath id="clip0_2857_18062">
  <rect width="282" height="158.63" fill="white"/>
  </clipPath>
  </defs>
  </svg>
