<svg width="282" height="159" viewBox="0 0 282 159" fill="none" xmlns="http://www.w3.org/2000/svg">
  <g clip-path="url(#clip0_2857_17824)">
  <path d="M121.239 80.6833H282V219.333H0V80.6833H77.9757H121.239Z" fill="#A6F2FA"/>
  <path d="M282 0H0V80.6833H282V0Z" fill="#E5FBFD"/>
  <path d="M126.117 11.7678H-83.4326V17.9224H126.117V11.7678Z" fill="#009099"/>
  <path d="M122.6 -4.4978H-95.1558V12.5006H122.6V-4.4978Z" fill="#006A6F"/>
  <path d="M110.115 69.4158H-60.9243V87.7916H110.115V69.4158Z" fill="#419CA4"/>
  <path d="M114.686 64.2283L109.675 64.0818L110.114 87.8209L114.686 80.7871V64.2283Z" fill="#58C5CF"/>
  <path d="M110.642 67.9504H-61.2471V63.3784H114.892L110.642 67.9504Z" fill="#58C5CF"/>
  <path d="M110.495 67.8918H-61.335V69.4451H110.495V67.8918Z" fill="#009099"/>
  <path d="M110.496 69.4158V67.8918L114.892 63.3784V64.6973L110.496 69.4158Z" fill="#006A6F"/>
  <path fill-rule="evenodd" clip-rule="evenodd" d="M106.685 55.231C105.513 54.7914 102.67 54.469 99.3584 54.469C96.0467 54.469 93.2038 54.7914 92.0315 55.231H91.5333C91.3868 55.231 91.2695 55.3482 91.2695 55.4948C91.2695 55.6413 91.3868 55.7585 91.5333 55.7585H107.184C107.33 55.7585 107.447 55.6413 107.447 55.4948C107.447 55.3482 107.33 55.231 107.184 55.231H106.685Z" fill="#419CA4"/>
  <path fill-rule="evenodd" clip-rule="evenodd" d="M91.7388 55.7585H106.979V64.3164C106.979 65.0197 106.393 65.6059 105.689 65.6059H92.8818C92.2663 65.6059 91.7681 65.1077 91.7681 64.4922V55.7585H91.7388Z" fill="#006A6F"/>
  <path fill-rule="evenodd" clip-rule="evenodd" d="M91.7388 55.7585H106.979V64.3164C106.979 65.0197 106.393 65.6059 105.689 65.6059H92.8818C92.2663 65.6059 91.7681 65.1077 91.7681 64.4922V55.7585H91.7388Z" fill="#006A6F"/>
  <path fill-rule="evenodd" clip-rule="evenodd" d="M97.5997 52.4468H101.058C101.468 52.4468 101.879 52.6226 102.142 52.8864C102.435 53.1795 102.582 53.5605 102.582 53.9708V55.2603V55.5241H102.318H96.3395H96.0757V55.2896V54.0001C96.0757 53.5898 96.2515 53.1795 96.5153 52.9157C96.8084 52.6226 97.1894 52.4468 97.5997 52.4468ZM101.087 52.9743H97.629C97.3359 52.9743 97.1015 53.0915 96.8963 53.2674C96.7205 53.4432 96.6032 53.707 96.6032 54.0001V55.0258H102.113V54.0001C102.113 53.707 101.996 53.4725 101.82 53.2674C101.615 53.0915 101.38 52.9743 101.087 52.9743Z" fill="#419CA4"/>
  <path fill-rule="evenodd" clip-rule="evenodd" d="M88.6611 57.2534C88.6611 56.9017 88.8077 56.5793 89.0421 56.3449C89.2766 56.1104 89.599 55.9639 89.9507 55.9639H92.4418H92.7056V56.2276V58.2499V58.5136H92.4418H89.9507C89.599 58.5136 89.2766 58.3671 89.0421 58.1326C88.8077 57.9275 88.6611 57.6051 88.6611 57.2534ZM89.1887 57.2534C89.1887 57.4586 89.2766 57.6637 89.4231 57.7809C89.5697 57.9275 89.7455 58.0154 89.9507 58.0154H92.178V56.4914H89.9507C89.7455 56.4914 89.5404 56.5793 89.4231 56.7259C89.2766 56.8724 89.1887 57.0482 89.1887 57.2534Z" fill="#006A6F"/>
  <path fill-rule="evenodd" clip-rule="evenodd" d="M109.499 57.2531C109.499 57.048 109.411 56.8428 109.264 56.7256C109.118 56.5791 108.942 56.4912 108.737 56.4912H106.509V58.0151H108.737C108.942 58.0151 109.147 57.9272 109.264 57.7807C109.411 57.6635 109.499 57.4583 109.499 57.2531ZM110.026 57.2531C110.026 57.6048 109.88 57.9272 109.645 58.1617C109.411 58.3961 109.089 58.5427 108.737 58.5427H106.246H106.011V58.2789V56.2567V55.9929H106.275H108.766C109.118 55.9929 109.44 56.1395 109.675 56.3739C109.88 56.5791 110.026 56.9015 110.026 57.2531Z" fill="#006A6F"/>
  <path d="M99.3291 86.9709H73.8608V87.8209H99.3291V86.9709Z" fill="#006A6F"/>
  <path d="M99.8861 69.3865H73.48V86.7073H99.8861V69.3865Z" fill="#4CB4BD"/>
  <path d="M81.1296 83.7472C80.1038 83.7472 79.2832 83.0438 79.2832 82.1939V78.3253C79.2832 77.4754 80.1038 76.772 81.1296 76.772H92.3544C93.3802 76.772 94.2008 77.4754 94.2008 78.3253V82.1939C94.2008 83.0438 93.3802 83.7472 92.3544 83.7472H81.1296Z" fill="#006A6F"/>
  <path d="M81.2757 74.8672C81.3929 74.8672 81.5101 74.9551 81.5101 75.0723V75.3654H80.543V74.9844L81.2757 74.8672Z" fill="#006A6F"/>
  <path d="M92.2364 74.8674C92.1192 74.8674 92.002 74.9554 92.002 75.0726V75.3657H92.9691V74.9847L92.2364 74.8674Z" fill="#006A6F"/>
  <path d="M94.6108 74.9847L94.2884 74.8381H92.2369L92.7644 75.014C92.9696 75.0726 92.911 75.3364 92.7058 75.3364H86.8443H86.7564H80.8948C80.6604 75.3364 80.6018 75.0726 80.8362 75.014L81.3638 74.8381H79.2829L78.9606 74.9847C78.7847 75.0726 78.6675 75.2191 78.6675 75.3657C78.6675 75.6001 78.9019 76.1277 79.195 76.1277H94.435C94.728 76.1277 94.9625 75.6001 94.9625 75.3657C94.9039 75.2191 94.7866 75.0726 94.6108 74.9847Z" fill="#64ECF8"/>
  <path d="M100.003 74.1345H73.4215C73.275 74.1345 73.1284 74.0173 73.1284 73.8414V73.8121C73.1284 73.6656 73.2456 73.519 73.4215 73.519H100.003C100.15 73.519 100.297 73.6363 100.297 73.8121V73.8414C100.297 74.0173 100.15 74.1345 100.003 74.1345Z" fill="#64ECF8"/>
  <path d="M79.2246 72.5518C79.9044 72.5518 80.4555 72.0925 80.4555 71.526C80.4555 70.9595 79.9044 70.5002 79.2246 70.5002C78.5447 70.5002 77.9937 70.9595 77.9937 71.526C77.9937 72.0925 78.5447 72.5518 79.2246 72.5518Z" fill="#64ECF8"/>
  <path d="M79.2244 72.2586C79.71 72.2586 80.1037 71.9306 80.1037 71.5259C80.1037 71.1212 79.71 70.7932 79.2244 70.7932C78.7389 70.7932 78.3452 71.1212 78.3452 71.5259C78.3452 71.9306 78.7389 72.2586 79.2244 72.2586Z" fill="#64ECF8"/>
  <path d="M79.3419 70.6467H79.1074V72.4345H79.3419V70.6467Z" fill="#006A6F"/>
  <path d="M87.782 72.2587C87.3131 72.669 86.5218 72.669 86.0529 72.2587C85.5839 71.8484 85.5839 71.2036 86.0529 70.8226C86.5218 70.4123 87.3131 70.4123 87.782 70.8226C88.2509 71.2036 88.2509 71.8484 87.782 72.2587Z" fill="#64ECF8"/>
  <path d="M87.5185 72.0534C87.1668 72.3465 86.6099 72.3465 86.2876 72.0534C85.9652 71.7604 85.9359 71.2914 86.2876 71.0277C86.6393 70.7346 87.1961 70.7346 87.5185 71.0277C87.8702 71.2914 87.8702 71.7604 87.5185 72.0534Z" fill="#64ECF8"/>
  <path d="M86.2579 72.2293L86.082 72.0827L87.5767 70.8225L87.7526 70.969L86.2579 72.2293Z" fill="#006A6F"/>
  <path d="M94.6108 72.5518C95.2906 72.5518 95.8417 72.0925 95.8417 71.526C95.8417 70.9595 95.2906 70.5002 94.6108 70.5002C93.931 70.5002 93.3799 70.9595 93.3799 71.526C93.3799 72.0925 93.931 72.5518 94.6108 72.5518Z" fill="#64ECF8"/>
  <path d="M94.6107 72.2586C95.0963 72.2586 95.4899 71.9306 95.4899 71.5259C95.4899 71.1212 95.0963 70.7932 94.6107 70.7932C94.1251 70.7932 93.7314 71.1212 93.7314 71.5259C93.7314 71.9306 94.1251 72.2586 94.6107 72.2586Z" fill="#64ECF8"/>
  <path d="M94.7281 70.6467H94.4937V72.4345H94.7281V70.6467Z" fill="#006A6F"/>
  <path d="M99.3879 87.1763H73.9782C73.7144 87.1763 73.48 86.9418 73.48 86.6781V86.4436H99.8568V86.6781C99.8568 86.9711 99.6517 87.1763 99.3879 87.1763Z" fill="#64ECF8"/>
  <path d="M49.351 24.2834H11.751V47.7834H49.351V24.2834Z" fill="#A6F2FA"/>
  <path fill-rule="evenodd" clip-rule="evenodd" d="M40.5701 28.9832H41.3028C41.7131 28.9832 42.0648 29.3348 42.0648 29.7452C42.0648 29.921 41.9769 30.6537 41.9769 31.445C41.9769 32.4414 41.7424 33.8189 43.032 33.9654L44.3801 34.1413C44.7611 34.1999 45.0835 34.5223 45.0249 34.9033C44.556 38.1271 44.7318 40.208 45.0249 43.6956C45.0542 44.1059 44.6732 44.4576 44.2629 44.4576H37.5807C37.1704 44.4576 36.7894 44.1059 36.8188 43.6956C37.1118 40.1493 37.2291 38.4495 36.8188 34.9033C36.7894 34.5223 37.1118 34.1999 37.4635 34.1413L38.9582 33.9361C40.0133 33.7896 39.896 32.3828 39.896 31.4743C39.896 30.683 39.7788 29.921 39.7788 29.7452C39.8081 29.3348 40.1598 28.9832 40.5701 28.9832ZM40.9218 29.6572C40.7753 29.6572 40.6287 29.7745 40.6287 29.9503C40.6287 30.0968 40.746 30.2434 40.9218 30.2434C41.0683 30.2434 41.2149 30.1262 41.2149 29.9503C41.2149 29.7745 41.0977 29.6572 40.9218 29.6572Z" fill="#009FA7"/>
  <path d="M45.5849 34.8821L45.5846 34.8841C45.1122 38.1321 45.289 40.2363 45.581 43.7107L45.5827 43.7316C45.5991 43.9736 45.359 44.2244 45.07 44.2244H38.3879C38.0988 44.2244 37.8587 43.9735 37.8752 43.7314C38.1685 40.1821 38.2872 38.4631 37.8748 34.8968C37.8604 34.675 38.0582 34.4486 38.3086 34.4053L39.7993 34.2007L39.7997 34.2006C40.1245 34.1555 40.372 34.0092 40.5499 33.7933C40.7225 33.5839 40.8187 33.3227 40.8745 33.0597C40.9654 32.6312 40.9597 32.1328 40.955 31.7285C40.9541 31.6449 40.9532 31.5653 40.9532 31.4911C40.9532 31.0841 40.9231 30.6869 40.8935 30.3723C40.8828 30.2593 40.8721 30.1554 40.8629 30.0664C40.8593 30.0319 40.856 29.9996 40.853 29.9699C40.8425 29.8662 40.837 29.8023 40.8361 29.7703C40.8615 29.4847 41.1112 29.25 41.3772 29.25H42.1099C42.3822 29.25 42.6219 29.4898 42.6219 29.762C42.6219 29.8087 42.6143 29.904 42.6031 30.0447C42.596 30.1331 42.5876 30.2396 42.5786 30.3631C42.5565 30.6698 42.534 31.0575 42.534 31.4618C42.534 31.5822 42.5305 31.7091 42.5266 31.8429L42.526 31.8613C42.5223 31.9884 42.5184 32.121 42.5175 32.2537C42.5157 32.5305 42.5264 32.8221 42.5833 33.0923C42.6404 33.3633 42.7473 33.6297 42.9502 33.8403C43.1563 34.054 43.4401 34.1882 43.8087 34.2304L45.1518 34.4056C45.4414 34.4514 45.6159 34.6805 45.5849 34.8821ZM41.7289 29.4241C41.4609 29.4241 41.1859 29.6373 41.1859 29.9672C41.1859 30.2352 41.3991 30.5102 41.7289 30.5102C41.997 30.5102 42.272 30.297 42.272 29.9672C42.272 29.8224 42.2227 29.6824 42.1182 29.5779C42.0137 29.4734 41.8737 29.4241 41.7289 29.4241Z" stroke="#FA7659" stroke-width="0.5"/>
  <path d="M30.531 40.0403C30.7655 40.3627 31.2637 40.3627 31.5275 40.0403C31.9964 39.4249 32.2602 38.6336 32.2602 37.7837C32.2602 37.7543 32.2602 37.725 32.2602 37.6664C32.2602 37.1682 31.9964 36.8165 31.6447 36.6407C31.3516 36.4941 31.1758 36.201 31.1758 35.8787L31.2637 31.8635H30.7948L30.8827 35.8787C30.8827 36.201 30.7069 36.4941 30.4138 36.6407C30.0621 36.8165 29.8276 37.1682 29.7983 37.6664C29.7983 37.6957 29.7983 37.725 29.7983 37.7837C29.7983 38.6629 30.0621 39.4249 30.531 40.0403Z" fill="#5BD8E3"/>
  <path d="M30.531 40.0403C30.5603 40.0696 30.5896 40.1283 30.619 40.1576C30.3259 39.63 30.1793 39.0146 30.1793 38.3405C30.1793 38.3112 30.1793 38.2819 30.1793 38.2233C30.2086 37.0803 31.4982 36.7872 32.1723 37.3147C32.055 36.9337 31.762 36.6993 31.4103 36.582C31.293 36.5527 31.1758 36.5234 31.0586 36.5234C31 36.5234 30.912 36.4941 30.8827 36.4355C30.8827 36.4062 30.8827 36.3769 30.8827 36.3476C30.8827 36.3476 30.8827 36.3476 30.8827 36.3183C30.9707 36.1424 31.0293 35.9666 31.0293 35.7614C31.0293 35.7321 31.0293 36.289 31.0293 36.2597C30.9707 34.7357 31 33.5341 31.0293 32.0101C31.0293 31.9514 31.0293 31.9221 31.0293 31.8635H30.7655L30.8534 35.908C30.8534 36.2304 30.6776 36.4941 30.3845 36.6407C30.0621 36.8165 29.7984 37.1682 29.769 37.6664C29.769 37.6957 29.769 37.725 29.769 37.7837C29.7984 38.6629 30.0621 39.4249 30.531 40.0403Z" fill="#5BD8E3"/>
  <path d="M30.7652 32.3323H31.2634C31.322 32.3323 31.3807 32.2737 31.3807 32.2151V28.6102C31.3807 28.4051 31.2048 28.2292 30.9997 28.2292C30.7945 28.2292 30.6187 28.4051 30.6187 28.6102V32.2151C30.6187 32.2737 30.6773 32.3323 30.7652 32.3323ZM30.8824 28.7275C30.8824 28.6689 30.9411 28.6102 30.9997 28.6102C31.0583 28.6102 31.1169 28.6689 31.1169 28.7275V29.2843C31.1169 29.3429 31.0583 29.4016 30.9997 29.4016C30.9411 29.4016 30.8824 29.3429 30.8824 29.2843V28.7275Z" fill="#5BD8E3"/>
  <path d="M31.2634 28.4344V31.7755C31.2634 31.922 31.1169 32.0392 30.9703 31.9806C30.9117 31.9513 30.8531 31.9513 30.7652 31.9513H30.6187V32.1272C30.6187 32.1858 30.6773 32.2444 30.7359 32.2444H31.2341C31.2927 32.2444 31.3513 32.1858 31.3513 32.1272V28.5223C31.3513 28.4051 31.2927 28.2879 31.1755 28.2C31.2341 28.3172 31.2634 28.3758 31.2634 28.4344Z" fill="#5BD8E3"/>
  <path d="M25.5262 39.8352H27.988C28.2811 39.8352 28.5156 39.5714 28.457 39.2783L28.1639 36.9924C28.1346 36.7872 27.9587 36.6114 27.7536 36.6114H27.4605C27.1674 36.6114 26.9037 36.3769 26.933 36.0545L26.9916 31.8635H26.5226L26.6106 36.0545C26.6106 36.3476 26.3761 36.6114 26.083 36.6114H25.79C25.5848 36.6114 25.409 36.7579 25.3797 36.9924L25.0866 39.2783C24.9987 39.6007 25.2331 39.8352 25.5262 39.8352ZM27.7243 37.2854C27.7829 37.2854 27.8415 37.344 27.8415 37.4027L28.0173 39.0439C28.0173 39.1025 27.9587 39.1904 27.9001 39.1904H27.8708C27.8122 39.1904 27.7536 39.1318 27.7536 39.0732L27.607 37.432C27.607 37.344 27.6657 37.2854 27.7243 37.2854ZM27.226 37.2854C27.2847 37.2854 27.3433 37.344 27.3433 37.4027L27.4312 39.0439C27.4312 39.1025 27.3726 39.1611 27.314 39.1611H27.2847C27.226 39.1611 27.1674 39.1025 27.1674 39.0439L27.1088 37.4027C27.1088 37.344 27.1674 37.2854 27.226 37.2854ZM26.6106 37.432C26.6106 37.3734 26.6692 37.3147 26.7278 37.3147C26.7864 37.3147 26.845 37.3734 26.845 37.432L26.8743 39.0732C26.8743 39.1318 26.8157 39.1904 26.7571 39.1904H26.7278C26.6692 39.1904 26.6106 39.1318 26.6106 39.0732V37.432ZM26.1124 37.4027C26.1124 37.344 26.171 37.2854 26.2296 37.2854C26.2882 37.2854 26.3468 37.344 26.3468 37.4027L26.2882 39.0439C26.2882 39.1025 26.2296 39.1611 26.171 39.1611H26.1417C26.083 39.1611 26.0244 39.1025 26.0244 39.0439L26.1124 37.4027ZM25.4383 39.0732L25.6141 37.432C25.6141 37.3734 25.6727 37.3147 25.7314 37.3147C25.79 37.3147 25.8486 37.3734 25.8486 37.4613L25.702 39.1025C25.702 39.1611 25.6434 39.2197 25.5848 39.2197H25.5555C25.4676 39.1904 25.409 39.1318 25.4383 39.0732Z" fill="#009FA7"/>
  <path d="M25.3213 37.1682C25.3799 36.963 25.5557 36.7872 25.7609 36.7872H26.054C26.3471 36.7872 26.728 36.5527 26.728 36.2303V32.0394H26.9918V31.8928H26.5229L26.6108 36.0838C26.6108 36.3769 26.3764 36.6407 26.0833 36.6407H25.7902C25.5851 36.6407 25.4092 36.7872 25.3799 37.0217L25.3213 37.1682Z" fill="#009FA7"/>
  <path d="M27.8121 39.1904H27.8414C27.7828 39.1904 27.7242 39.1318 27.7242 39.0732L27.5777 37.4319C27.5777 37.3733 27.607 37.3147 27.6656 37.3147H27.6363C27.5777 37.3147 27.519 37.3733 27.519 37.4612L27.6656 39.1025C27.6949 39.1611 27.7535 39.1904 27.8121 39.1904Z" fill="#009FA7"/>
  <path d="M27.1973 37.2854C27.1094 37.2854 27.0508 37.344 27.0508 37.4026L27.1094 39.0439C27.1094 39.1025 27.168 39.1611 27.2266 39.1611H27.2559C27.1973 39.1611 27.1387 39.1025 27.1387 39.0439L27.0801 37.4026C27.1094 37.3733 27.1387 37.3147 27.1973 37.2854Z" fill="#009FA7"/>
  <path d="M25.5557 39.1904C25.4971 39.1904 25.4385 39.1318 25.4385 39.0439L25.6143 37.4026C25.6143 37.344 25.673 37.3147 25.7023 37.2854H25.673C25.6143 37.2854 25.5557 37.344 25.5557 37.4026L25.3799 39.0439C25.3799 39.1025 25.4385 39.1904 25.4971 39.1904H25.5557Z" fill="#009FA7"/>
  <path d="M26.0831 39.1904H26.1124C26.0538 39.1904 25.9951 39.1318 25.9951 39.0732L26.0831 37.4319C26.0831 37.3733 26.1417 37.344 26.171 37.3147H26.1417C26.0831 37.3147 26.0245 37.3733 26.0245 37.4319L25.9365 39.0732C25.9658 39.1318 26.0244 39.1904 26.0831 39.1904Z" fill="#009FA7"/>
  <path d="M26.6983 37.2854C26.6104 37.2854 26.5518 37.344 26.5518 37.4026L26.5225 39.0439C26.5225 39.1025 26.5811 39.1611 26.6397 39.1611H26.669C26.6104 39.1611 26.5518 39.1025 26.5518 39.0439L26.5811 37.4026C26.6104 37.3733 26.6397 37.3147 26.6983 37.2854Z" fill="#009FA7"/>
  <path d="M26.5225 32.3323H27.0207C27.0794 32.3323 27.138 32.2737 27.138 32.2151V28.6102C27.138 28.4051 26.9621 28.2292 26.757 28.2292C26.5518 28.2292 26.376 28.4051 26.376 28.6102V32.2151C26.376 32.2737 26.4346 32.3323 26.5225 32.3323ZM26.6398 28.7275C26.6398 28.6689 26.6984 28.6102 26.757 28.6102C26.8156 28.6102 26.8742 28.6689 26.8742 28.7275V29.2843C26.8742 29.3429 26.8156 29.4016 26.757 29.4016C26.6984 29.4016 26.6398 29.3429 26.6398 29.2843V28.7275Z" fill="#009FA7"/>
  <path d="M27.0207 28.4344V31.7755C27.0207 31.922 26.8742 32.0392 26.7277 31.9806C26.6691 31.9513 26.6104 31.9513 26.5225 31.9513H26.376V32.1272C26.376 32.1858 26.4346 32.2444 26.4932 32.2444H26.9914C27.0501 32.2444 27.1087 32.1858 27.1087 32.1272V28.5223C27.1087 28.4051 27.0501 28.2879 26.9328 28.2C26.9914 28.3172 27.0207 28.3758 27.0207 28.4344Z" fill="#009FA7"/>
  <path d="M20.8137 40.3038H23.422C23.6858 40.3038 23.8909 40.0694 23.8616 39.8056L23.4513 37.461C23.422 37.2559 23.2462 37.1093 23.0117 37.1093H22.9238C22.5721 37.1093 22.279 36.8162 22.279 36.4352L22.367 31.9219H21.898L21.986 36.4352C21.986 36.7869 21.6929 37.1093 21.3412 37.1093H21.2533C21.0481 37.1093 20.8723 37.2559 20.8137 37.461L20.4033 39.8056C20.3154 40.0401 20.5206 40.3038 20.8137 40.3038Z" fill="#5BD8E3"/>
  <path d="M20.5789 40.2455C20.5203 40.1576 20.4617 40.0403 20.491 39.8938L20.9013 37.5492C20.9306 37.344 21.1065 37.1975 21.3409 37.1975H21.4288H21.4582H22.1029C22.2201 37.1975 22.2788 37.0803 22.2788 36.9923L22.1615 36.8458C22.1322 36.8165 22.1029 36.7579 22.1029 36.6993L22.0736 36.201L21.9857 32.0101H22.3374V31.8928H21.8685L21.9564 36.4062C21.9564 36.7579 21.6633 37.0803 21.3116 37.0803H21.2237C21.0185 37.0803 20.8427 37.2268 20.7841 37.432L20.3738 39.7766C20.3445 39.9817 20.4324 40.1576 20.5789 40.2455Z" fill="#5BD8E3"/>
  <path d="M21.8682 32.3323H22.3665C22.4251 32.3323 22.4837 32.2737 22.4837 32.2151V28.6102C22.4837 28.4051 22.3078 28.2292 22.1027 28.2292C21.8975 28.2292 21.7217 28.4051 21.7217 28.6102V32.2151C21.7217 32.2737 21.7803 32.3323 21.8682 32.3323ZM21.9855 28.7275C21.9855 28.6689 22.0441 28.6102 22.1027 28.6102C22.1613 28.6102 22.2199 28.6689 22.2199 28.7275V29.2843C22.2199 29.3429 22.1613 29.4016 22.1027 29.4016C22.0441 29.4016 21.9855 29.3429 21.9855 29.2843V28.7275Z" fill="#5BD8E3"/>
  <path d="M22.3665 28.4344V31.7755C22.3665 31.922 22.2199 32.0392 22.0734 31.9806C22.0148 31.9513 21.9561 31.9513 21.8682 31.9513H21.7217V32.1272C21.7217 32.1858 21.7803 32.2444 21.8389 32.2444H22.3371C22.3958 32.2444 22.4544 32.1858 22.4544 32.1272V28.5223C22.4544 28.4051 22.3958 28.2879 22.2785 28.2C22.3371 28.3172 22.3665 28.3758 22.3665 28.4344Z" fill="#5BD8E3"/>
  <path d="M15.2635 38.3404C15.7032 39.2489 16.641 39.2489 16.7289 39.2489C16.7582 39.2489 17.7547 39.2782 18.1943 38.3404C18.9856 36.7577 17.5788 34.6183 16.8755 33.6511L16.9634 31.5996H16.4945L16.5824 33.6511C15.8497 34.6183 14.4722 36.7577 15.2635 38.3404ZM15.4394 38.2524C15.2049 37.7835 14.8532 36.4354 16.4652 34.1494C15.7618 35.9371 15.7325 37.1094 15.8497 37.7542C15.9669 38.4576 16.1721 38.8093 16.3479 39.0144C16.0255 38.9265 15.6445 38.7214 15.4394 38.2524ZM16.641 39.0144C16.5824 38.9851 16.5238 38.9558 16.4652 38.8679C16.3186 38.7214 16.1135 38.3697 16.0255 37.6956C15.9376 37.0508 15.9669 35.9371 16.641 34.1494V39.0144ZM16.8462 39.0144V34.1787C17.5495 35.9664 17.5788 37.0801 17.4616 37.7249C17.3444 38.399 17.1685 38.7214 17.022 38.8972C16.9341 38.9558 16.8755 39.0144 16.8462 39.0144ZM18.0478 38.2524C17.8133 38.7214 17.4323 38.9265 17.1392 39.0144C17.3151 38.8386 17.5202 38.4576 17.6375 37.7542C17.7547 37.1094 17.7254 35.9664 17.022 34.1494C18.6339 36.4647 18.2822 37.7835 18.0478 38.2524Z" fill="#5BD8E3"/>
  <path d="M16.5825 33.6804C16.5825 33.6804 16.7291 33.5339 16.7291 32.9477C16.7291 32.3909 16.9049 31.6289 16.9049 31.6289H16.4946L16.5825 33.6804Z" fill="#5BD8E3"/>
  <path d="M16.4947 32.3323H16.9929C17.0515 32.3323 17.1101 32.2737 17.1101 32.2151V28.6102C17.1101 28.4051 16.9343 28.2292 16.7291 28.2292C16.524 28.2292 16.3481 28.4051 16.3481 28.6102V32.2151C16.3775 32.2737 16.4361 32.3323 16.4947 32.3323Z" fill="#5BD8E3"/>
  <path d="M16.9929 28.4344V31.7755C16.9929 31.922 16.8464 32.0392 16.6998 31.9806C16.6412 31.9513 16.5826 31.9513 16.4947 31.9513H16.3481V32.1272C16.3481 32.1858 16.4068 32.2444 16.4654 32.2444H16.9636C17.0222 32.2444 17.0808 32.1858 17.0808 32.1272V28.5223C17.0808 28.4051 17.0222 28.2879 16.905 28.2C16.9636 28.3172 16.9929 28.3758 16.9929 28.4344Z" fill="#5BD8E3"/>
  <path d="M33.688 37.7836L34.1276 42.1797C34.1276 42.2383 34.2156 42.209 34.2156 42.1797L34.1569 38.0473C34.1569 37.8715 34.3035 37.7249 34.4793 37.7249C34.6552 37.7249 34.8017 37.8715 34.8017 38.0473L34.7431 42.1797C34.7431 42.2383 34.8017 42.2383 34.831 42.1797L35.2706 37.7836C35.2999 37.5198 35.0948 37.2853 34.831 37.2853H34.7431C34.6845 37.2853 34.6259 37.2267 34.6259 37.1681L34.7431 31.4824H34.1569L34.2742 37.1681C34.2742 37.2267 34.2156 37.2853 34.1569 37.2853C33.8932 37.2853 33.6587 37.5198 33.688 37.7836Z" fill="#009FA7"/>
  <path d="M34.2154 35.3219C34.2154 35.2633 34.4791 32.3032 34.4791 32.3032H34.1567L34.2154 35.3219Z" fill="#009FA7"/>
  <path d="M34.1861 32.4788H34.6843C34.7429 32.4788 34.8015 32.4202 34.8015 32.3616V28.6102C34.8015 28.4051 34.6257 28.2292 34.4205 28.2292C34.2154 28.2292 34.0396 28.4051 34.0396 28.6102V32.3616C34.0689 32.4202 34.1275 32.4788 34.1861 32.4788ZM34.3033 28.7275C34.3033 28.6689 34.3619 28.6102 34.4205 28.6102C34.4792 28.6102 34.5378 28.6689 34.5378 28.7275V29.255C34.5378 29.3136 34.4792 29.3722 34.4205 29.3722C34.3619 29.3722 34.3033 29.3136 34.3033 29.255V28.7275Z" fill="#009FA7"/>
  <path d="M34.6843 28.4344V31.922C34.6843 32.0686 34.5378 32.1858 34.3912 32.1272C34.3326 32.0979 34.274 32.0979 34.1861 32.0979H34.0396V32.2737C34.0396 32.3323 34.0982 32.3909 34.1568 32.3909H34.655C34.7136 32.3909 34.7722 32.3323 34.7722 32.2737V28.5223C34.7722 28.4051 34.7136 28.2879 34.5964 28.2C34.655 28.3172 34.6843 28.3758 34.6843 28.4344Z" fill="#009FA7"/>
  <path d="M62.3783 80.279L57.9266 64.6836H64.1158L67.569 91.7913H65.6387L62.3784 80.2795L62.3783 80.279Z" fill="#FA7659" stroke="#E5FBFD" stroke-width="0.5"/>
  <path d="M56.0543 77.8667C56.1736 77.1211 56.5194 72.7309 56.64 64.6836H64.0048C61.8275 72.3143 60.3995 76.6481 59.9439 77.7301C59.4812 78.8291 57.2229 83.4915 53.1604 91.7913H51.1828C52.7198 87.5869 53.8955 84.3273 54.7062 82.0166C55.1223 80.8309 55.4426 79.8937 55.6665 79.2065C55.8873 78.5286 56.0213 78.0735 56.0543 77.8667Z" fill="#FA7659" stroke="#E5FBFD" stroke-width="0.5"/>
  <path d="M50.6201 94.2981L50.7374 91.6604H53.375C54.606 92.5396 56.2472 93.243 58.2401 93.7705V94.2688H53.4923L51.8803 94.005V94.2688H50.6201V94.2981Z" fill="#F6F6F6"/>
  <path d="M65.0981 94.2981L65.2154 91.6604H67.8531C69.084 92.5396 70.7252 93.243 72.7181 93.7705V94.2688H67.9703L66.3584 94.005V94.2688H65.0981V94.2981Z" fill="#F6F6F6"/>
  <path d="M64.16 45.7648C63.5739 45.0907 63.1929 44.2701 63.2515 43.3322C63.4273 40.6653 67.1494 41.2514 67.8821 42.5996C68.6148 43.9477 68.5269 47.3767 67.589 47.6112C67.208 47.6991 66.4167 47.4646 65.6254 46.9957L66.1237 50.6005H63.1343L64.16 45.7648Z" fill="#CB7A43"/>
  <path d="M63.9255 46.3801C63.5445 44.7096 62.4894 43.5666 62.6359 42.8046C62.7532 42.3063 63.0462 41.9839 63.5152 41.8667C63.7496 40.8703 64.5409 40.46 65.8891 40.6065C67.882 40.841 69.1129 41.6616 68.5854 43.4786C68.0871 43.4786 67.5303 43.3028 66.7097 43.5959C66.4459 43.6838 66.2701 43.9769 66.1528 44.4751H65.8011C65.4495 43.8889 65.0978 43.6838 64.7461 43.8303C64.3944 43.9769 64.3358 44.3579 64.5116 44.9733L64.3358 46.3508H63.9255V46.3801Z" fill="#49220A"/>
  <path d="M70.2271 60.5648L74.0077 58.1909C75.7955 58.0444 76.6454 57.8392 76.5575 57.5755C76.411 57.1945 75.8834 57.3996 75.7369 57.1651C75.5903 56.9307 76.0593 56.3152 76.5282 55.7291C76.9971 55.1429 76.6161 55.1429 76.3817 55.2015C75.561 55.5532 74.7111 56.1101 73.8026 56.8428L68.8789 58.484L70.2271 60.5648Z" fill="#149295"/>
  <path d="M68.2341 60.184C70.1097 60.5943 72.513 59.7151 74.3301 58.4842L73.8025 56.374C71.3114 57.3705 69.1719 57.3412 67.5893 57.0481C66.2998 57.9273 66.7394 59.8616 68.2341 60.184Z" fill="#27A8A5"/>
  <path d="M82.6241 53.9121H69.1719C69.1719 53.9121 69.9925 59.8909 75.9126 59.8909C81.8327 59.8909 82.6241 53.9121 82.6241 53.9121Z" fill="#60E0EB"/>
  <path d="M75.9126 54.8205C79.6354 54.8205 82.6534 54.4137 82.6534 53.912C82.6534 53.4102 79.6354 53.0034 75.9126 53.0034C72.1898 53.0034 69.1719 53.4102 69.1719 53.912C69.1719 54.4137 72.1898 54.8205 75.9126 54.8205Z" fill="white"/>
  <path d="M75.9125 54.5569C79.4249 54.5569 82.2722 54.2551 82.2722 53.8828C82.2722 53.5105 79.4249 53.2087 75.9125 53.2087C72.4001 53.2087 69.5527 53.5105 69.5527 53.8828C69.5527 54.2551 72.4001 54.5569 75.9125 54.5569Z" fill="#00BBC3"/>
  <path d="M75.2677 57.1065L77.4364 56.3738C77.9053 55.3773 78.3157 54.9084 78.726 54.967C79.0484 54.8791 78.2864 56.11 78.8725 56.11C79.4587 56.11 81.0119 55.3187 81.1878 55.5825C81.4809 55.9635 81.0119 56.8134 80.543 57.2237C79.6931 57.9564 79.0776 58.1616 77.6123 58.3081C76.8503 58.3667 75.971 58.6305 75.0332 59.0994L75.2677 57.1065Z" fill="#CB7A43"/>
  <path d="M66.5635 48.285L62.988 47.6402C62.607 47.5816 59.0022 52.1829 58.3867 55.4946C57.8299 58.5133 54.6646 59.9201 55.2508 64.9317C57.654 64.9024 64.1603 68.4779 65.8015 66.1919C66.5928 65.0782 67.0031 63.7594 67.2083 62.3526C69.5822 62.7336 72.6009 62.4698 76.2936 61.3268C76.5281 60.4769 76.3229 58.9822 75.7368 56.7842C71.5751 57.4582 68.703 57.4289 67.1204 56.7256C66.7687 53.8241 66.2997 50.864 66.5635 48.285Z" fill="#419CA4"/>
  <path d="M171.52 122.097C171.92 127.341 196.675 142.806 196.809 143.24C196.875 143.44 194.306 149.519 189.102 161.544L191.27 162.379C199.244 149.653 203.047 142.639 202.647 141.269C202.047 139.332 195.641 132.952 183.43 122.13L171.52 122.097Z" fill="#B28B67"/>
  <path d="M189.702 158.839L193.239 160.141C200.679 151.724 203.615 144.777 203.081 141.236C202.714 138.865 196.342 132.518 183.931 122.131H171.286C171.72 134.289 194.673 143.307 194.974 143.841C195.274 144.342 192.271 149.419 189.702 158.839Z" fill="#006A6F"/>
  <path d="M174.388 122.097L163.345 148.617L152.502 171.063H155.071L183.063 122.097H174.388Z" fill="#997659"/>
  <path d="M153.471 166.387L159.142 167.456C163.546 160.976 181.929 134.455 183.964 122.097H171.32C164.581 131.048 157.674 159.807 153.471 166.387Z" fill="#161616"/>
  <path d="M178.732 89.4834C177.599 88.1152 176.818 86.4733 176.935 84.636C177.326 79.2805 184.745 80.4532 186.19 83.1505C187.634 85.8479 187.478 92.6889 185.604 93.1971C184.862 93.3925 183.261 92.9234 181.66 91.9462L182.675 99.139H176.701L178.732 89.4834Z" fill="#FFE0CB"/>
  <path d="M181.934 85.2224C182.168 88.4279 182.754 90.0306 183.769 90.0306C185.253 90.0306 186.502 89.0924 187.127 89.0924C187.595 89.0924 187.478 89.6788 187.166 90.1088C186.893 90.4606 185.643 90.8125 185.643 91.3988C185.643 91.9461 186.619 91.5161 186.619 91.8679C186.619 92.4152 186.775 93.4707 185.838 93.4707C184.862 93.4707 182.09 93.1189 181.621 91.6725C181.309 90.7343 181.114 88.8188 181.036 85.926C180.996 85.926 180.918 85.926 180.84 85.926C180.02 85.926 179.357 86.5906 179.357 87.4115C179.357 87.8415 179.513 88.1933 179.825 88.467C179.474 88.9751 179.083 89.4833 178.654 89.9915C176.975 88.9751 175.491 86.0433 177.131 83.2287C177.599 81.8605 178.849 81.1177 180.059 80.7659C181.036 80.375 182.051 80.2968 182.91 80.5704C184.589 80.7268 186.073 81.235 186.502 81.5477C186.502 83.1505 186.19 83.6196 183.574 83.5805C182.949 83.8541 182.48 84.4405 181.934 85.2224Z" fill="#E8A16D"/>
  <path d="M181.515 84.8139C182.061 84.0321 182.53 83.4457 183.155 83.1721C185.771 83.2112 186.083 82.742 186.083 81.1393C185.654 80.8266 184.17 80.3184 182.491 80.162C181.632 79.8884 180.617 79.9665 179.64 80.3575C178.43 80.7093 177.18 81.452 176.712 82.8202C175.072 85.6348 176.556 88.5667 178.235 89.5831C178.664 89.0749 179.055 88.5667 179.406 88.0585C179.094 87.7849 178.938 87.433 178.938 87.003C178.938 86.1821 179.601 85.5176 180.421 85.5176C180.499 85.5176 180.578 85.5176 180.617 85.5176C180.695 88.4103 180.89 90.3258 181.202 91.264" stroke="#FB907D" stroke-width="0.5"/>
  <path d="M186.931 86.395C186.853 87.2159 187.986 87.9196 187.83 88.936C187.4 88.9751 186.971 88.936 186.541 89.0142" fill="#FFE0CB"/>
  <path d="M186.541 85.7695C186.385 85.7304 186.268 85.6913 186.15 85.6522C186.033 85.6522 185.916 85.6132 185.799 85.6132C185.565 85.5741 185.33 85.5741 185.018 85.4959C185.213 85.2613 185.526 85.1832 185.838 85.2222C185.994 85.2613 186.15 85.3004 186.268 85.3786C186.424 85.4568 186.541 85.6132 186.541 85.7695Z" fill="#CB7A43"/>
  <path d="M186.15 86.5903C186.301 86.5903 186.424 86.4677 186.424 86.3166C186.424 86.1655 186.301 86.043 186.15 86.043C185.999 86.043 185.877 86.1655 185.877 86.3166C185.877 86.4677 185.999 86.5903 186.15 86.5903Z" fill="#CB7A43"/>
  <path d="M186.7 102.925L194.107 98.8498C195.341 97.3802 196.542 96.2445 197.743 95.4429C198.11 95.2759 198.744 95.2091 198.144 96.2445C197.543 97.28 196.976 98.449 197.276 98.783C197.576 99.117 198.344 98.6494 198.711 99.1838C198.944 99.5512 197.643 100.119 194.807 100.887L189.436 105.831L186.7 102.925Z" fill="#FFE0CB"/>
  <path d="M183.097 102.023C185.699 101.989 189.135 101.455 192.839 99.1169L194.273 102.357C191.738 104.895 188.134 106.966 185.032 106.866C182.563 106.799 181.295 103.827 183.097 102.023Z" fill="#4CB4BD"/>
  <path d="M210.02 96.4114C209.953 95.6432 206.35 95.042 201.946 95.042C197.542 95.042 193.939 95.6432 193.872 96.4114C193.839 96.8791 193.973 102.123 194.039 104.428C194.073 105.263 194.44 106.064 195.107 106.565C196.208 107.434 198.31 108.068 201.946 108.068C205.549 108.068 207.651 107.4 208.786 106.565C209.453 106.064 209.853 105.263 209.887 104.428C209.953 102.09 210.087 96.8791 210.02 96.4114Z" fill="#FA7659"/>
  <path d="M210.187 96.4449C210.187 95.5764 206.518 94.875 201.98 94.875C197.443 94.875 193.773 95.5764 193.773 96.4449C193.773 96.5117 193.773 96.7455 193.773 96.8123C193.773 97.6807 197.443 98.3821 201.98 98.3821C206.518 98.3821 210.187 97.6807 210.187 96.8123C210.187 96.7455 210.187 96.5117 210.187 96.4449Z" fill="#006A6F"/>
  <path opacity="0.7" d="M201.947 98.0147C206.48 98.0147 210.154 97.3119 210.154 96.4449C210.154 95.5779 206.48 94.875 201.947 94.875C197.414 94.875 193.74 95.5779 193.74 96.4449C193.74 97.3119 197.414 98.0147 201.947 98.0147Z" fill="#006A6F"/>
  <path d="M201.947 97.7809C206.351 97.7809 209.921 97.1678 209.921 96.4114C209.921 95.6551 206.351 95.042 201.947 95.042C197.543 95.042 193.973 95.6551 193.973 96.4114C193.973 97.1678 197.543 97.7809 201.947 97.7809Z" fill="url(#paint0_linear_2857_17824)"/>
  <path d="M201.947 97.7809C206.351 97.7809 209.921 97.1678 209.921 96.4114C209.921 95.6551 206.351 95.042 201.947 95.042C197.543 95.042 193.973 95.6551 193.973 96.4114C193.973 97.1678 197.543 97.7809 201.947 97.7809Z" fill="url(#paint1_linear_2857_17824)"/>
  <path d="M211.456 95.7102C211.322 95.6434 210.521 95.9441 209.921 96.0777C210.054 96.1779 210.121 96.2781 210.154 96.3449C210.488 96.2447 211.289 95.9775 211.356 96.0109C211.622 96.2447 211.789 96.6121 211.656 96.7123C211.489 96.8793 209.654 97.6475 209.287 97.8479C208.92 98.0149 208.253 99.9856 208.553 100.019C209.02 100.052 212.457 97.3469 212.59 97.1799C212.79 96.8793 211.789 95.8772 211.456 95.7102Z" fill="#006A6F"/>
  <path d="M192.439 95.7102C192.572 95.6434 193.373 95.9441 193.973 96.0777C193.84 96.1779 193.773 96.2781 193.74 96.3449C193.406 96.2447 192.605 95.9775 192.539 96.0109C192.272 96.2447 192.105 96.6121 192.238 96.7123C192.405 96.8793 194.24 97.6475 194.607 97.8479C194.974 98.0149 195.641 99.9856 195.341 100.019C194.874 100.052 191.438 97.3469 191.304 97.1799C191.137 96.8793 192.138 95.8772 192.439 95.7102Z" fill="#006A6F"/>
  <path d="M201.947 97.8813C206.387 97.8813 209.987 97.1934 209.987 96.3448C209.987 95.4962 206.387 94.8083 201.947 94.8083C197.506 94.8083 193.906 95.4962 193.906 96.3448C193.906 97.1934 197.506 97.8813 201.947 97.8813Z" fill="#006A6F"/>
  <path d="M203.915 93.5391C203.915 93.3721 203.048 93.2385 201.98 93.2385C200.913 93.2385 200.045 93.3721 200.045 93.5391C200.045 93.6059 200.179 93.8063 200.379 94.0068C200.613 94.2406 200.679 94.608 200.613 94.942C200.613 95.0422 201.213 95.1424 201.98 95.1424C202.748 95.1424 203.348 95.0422 203.348 94.942C203.282 94.608 203.348 94.274 203.582 94.0068C203.815 93.8063 203.915 93.6059 203.915 93.5391Z" fill="#009099"/>
  <path d="M198.777 107.935L202.013 106.131C202.48 104.395 203.014 103.526 203.648 103.493C204.148 103.259 203.281 105.463 204.215 105.263C205.149 105.063 207.384 103.393 207.785 103.727C208.352 104.228 207.852 105.764 207.251 106.566C206.117 108.002 205.183 108.503 202.88 109.138C201.679 109.472 200.378 110.14 198.977 111.175L198.777 107.935Z" fill="#FFE0CB"/>
  <path d="M186.566 107.234C189.335 107.935 193.939 107.1 200.412 104.795C202.013 108.136 202.747 110.507 202.647 111.91C197.076 114.816 192.338 116.118 188.401 116.185C188.535 118.523 188.234 120.728 187.3 122.765C185.332 126.94 173.888 123.066 170.018 123.834C167.616 115.985 172.287 112.812 172.287 107.768C172.287 102.257 176.691 93.8064 177.358 93.8064H183.263C183.597 98.0149 185.232 102.658 186.566 107.234Z" fill="#4CB4BD"/>
  <path d="M256.778 121.777L248.789 149.877L242.938 170.596H238.686L244.897 121.777H256.778Z" fill="#27A8A5"/>
  <path d="M258.917 121.777C259.097 136.278 259.742 144.174 259.922 145.49C260.128 146.806 263.067 155.192 268.737 170.622H264.329C257.087 155.811 253.067 147.451 252.216 145.49C251.365 143.555 248.762 135.633 244.871 121.777H258.917Z" fill="#27A8A5"/>
  <path d="M253.247 93.4967C254.253 92.3098 254.948 90.839 254.845 89.1877C254.51 84.4657 247.938 85.4978 246.649 87.8975C245.361 90.2714 245.515 96.3351 247.165 96.7737C247.835 96.9543 249.227 96.5157 250.67 95.6642L249.768 102.012H255.077L253.247 93.4967Z" fill="#7A380C"/>
  <path d="M248.737 85.2915C249.459 85.0592 250.515 85.0076 250.953 85.0334C250.696 84.44 250.593 83.7691 250.696 83.0982C250.773 82.4531 251.057 81.9113 251.314 81.3436C251.443 81.0856 251.572 80.8275 251.778 80.6211C251.984 80.4147 252.242 80.2857 252.526 80.2083C252.809 80.1309 253.093 80.1567 253.376 80.2083C253.505 80.2341 253.608 80.2857 253.737 80.3115C253.866 80.3373 253.917 80.2599 254.02 80.1825C254.252 80.0018 254.562 79.8986 254.845 79.8728C255.155 79.847 255.49 79.8728 255.773 79.976C256.057 80.0793 256.34 80.2341 256.546 80.4663C256.649 80.5695 256.727 80.6985 256.778 80.8275C256.804 80.8791 256.804 80.905 256.856 80.9308C256.907 80.9566 256.959 80.9566 257.01 80.9566C257.5 81.1372 257.938 81.5242 258.17 82.0145C258.299 82.2983 258.376 82.8144 258.35 83.382C258.325 83.9497 257.809 85.4463 257.345 85.9881C256.907 86.4784 256.289 86.788 255.67 86.9428C256.082 87.4073 256.34 87.975 256.546 88.5684C256.752 89.2135 256.907 89.8844 256.959 90.5553C257.01 91.2003 257.01 91.8712 256.856 92.5163C256.727 93.1097 256.417 93.6 255.902 93.8838C255.67 94.0128 255.412 94.1419 255.18 94.2193C254.923 94.3225 254.691 94.3999 254.433 94.4515C253.943 94.5547 253.376 94.5289 253.015 94.1419C252.886 94.0128 252.732 93.8322 252.629 93.6516C252.603 93.6 252.577 93.5484 252.603 93.4968C252.654 93.4194 252.732 93.3678 252.809 93.3162C253.196 93.0065 253.428 92.5679 253.479 92.0518C253.531 91.5358 253.402 90.8649 252.886 90.6327C252.268 90.3488 251.572 90.6843 251.031 90.9681C250.799 90.1424 250.309 89.3941 249.562 89.0071C248.737 88.5942 247.758 88.5426 246.907 88.1814C246.675 88.0782 246.443 87.975 246.288 87.7943C246.211 87.7169 246.134 87.6137 246.108 87.5105C246.082 87.3815 246.16 87.2525 246.237 87.1493C246.624 86.6848 248.015 85.5237 248.737 85.2915Z" fill="#161616"/>
  <path d="M245.953 91.2258C245.876 92.0257 244.819 92.7998 244.897 93.6255C245.412 93.7287 245.953 93.8061 246.443 93.9351" fill="#7A380C"/>
  <path d="M246.237 90.8388C246.418 90.6066 246.753 90.5034 247.062 90.555C247.371 90.6066 247.629 90.8388 247.706 91.1227C247.449 90.9679 247.242 90.8388 247.011 90.813C246.779 90.7614 246.547 90.7872 246.237 90.8388Z" fill="white"/>
  <path d="M246.16 95.3547C246.417 95.2515 246.675 95.1998 246.907 95.1224C247.139 95.045 247.397 94.9676 247.655 94.916C247.474 95.1482 247.242 95.2773 246.959 95.3547C246.701 95.4321 246.417 95.4579 246.16 95.3547Z" fill="white"/>
  <path d="M246.752 91.7682C246.881 91.7682 246.984 91.6642 246.984 91.5359C246.984 91.4077 246.881 91.3037 246.752 91.3037C246.624 91.3037 246.521 91.4077 246.521 91.5359C246.521 91.6642 246.624 91.7682 246.752 91.7682Z" fill="white"/>
  <path d="M221.546 108.075C221.546 108.075 222.577 108.359 223.479 108.849C224.381 109.339 227.139 111.507 227.706 112.074C228.273 112.642 230.18 114.371 230.773 113.932C231.366 113.468 229.149 111.92 227.216 110.707C225.283 109.494 223.556 108.049 222.19 107.946C220.799 107.843 221.546 108.075 221.546 108.075Z" fill="#58C5CF"/>
  <path d="M221.985 108.23C220.799 108.411 219.639 107.327 219.382 105.856C219.124 104.385 220.129 103.147 221.263 102.811C222.191 102.527 222.294 103.044 222.887 105.34C223.505 107.791 222.938 108.075 221.985 108.23Z" fill="#58C5CF"/>
  <path d="M221.753 107.508C222.269 107.43 222.552 106.501 222.372 105.469C222.191 104.437 221.624 103.663 221.109 103.74C220.929 103.766 220.8 103.895 220.671 104.076C220.594 104.54 220.594 105.082 220.697 105.65C220.825 106.372 221.083 106.992 221.392 107.43C221.496 107.482 221.624 107.508 221.753 107.508Z" fill="#419CA4"/>
  <path d="M222.474 108.101C223.222 107.972 223.608 106.682 223.351 105.185C223.093 103.714 222.294 102.605 221.547 102.734C221.083 102.811 220.773 103.327 220.645 104.076C220.748 103.895 220.902 103.766 221.083 103.74C221.598 103.663 222.165 104.411 222.346 105.469C222.526 106.501 222.242 107.43 221.727 107.507C221.598 107.533 221.495 107.507 221.366 107.43C221.701 107.894 222.114 108.152 222.474 108.101Z" fill="#A6F2FA"/>
  <path d="M222.423 108.049C223.145 107.92 223.531 106.63 223.273 105.185C223.016 103.74 222.242 102.657 221.521 102.786C221.083 102.863 220.748 103.379 220.645 104.102C220.748 103.921 220.902 103.792 221.057 103.766C221.572 103.689 222.114 104.437 222.294 105.443C222.474 106.475 222.191 107.378 221.701 107.456C221.572 107.482 221.469 107.456 221.34 107.378C221.675 107.869 222.062 108.127 222.423 108.049Z" fill="#419CA4"/>
  <path d="M237.371 115.352L230.309 112.539C227.268 112.849 225.799 112.771 225.876 112.333C226.031 111.662 226.933 111.817 227.113 111.378C227.294 110.939 226.289 110.036 225.309 109.236C224.33 108.411 225 108.282 225.412 108.282C226.882 108.617 228.479 109.288 230.232 110.243L238.943 111.43L237.371 115.352ZM272.603 131.685C272.913 132.33 275.258 134.265 276.882 135.401C277.526 135.839 277.268 136.433 277.011 136.562C275 137.8 273.686 136.33 271.959 135.53C270.052 134.652 270.232 137.155 268.712 136.459C269.176 135.426 270.258 133.491 269.743 132.227C269.511 131.659 266.753 125.415 261.444 113.468L266.289 113.442C270.078 124.744 272.191 130.808 272.603 131.685Z" fill="#7A380C"/>
  <path d="M253.067 98.1152L249.278 98.3733C248.35 106.811 243.273 112.152 231.907 110.346L230.386 121.209C241.005 122.576 250.335 118.319 252.242 106.811C252.732 103.818 253.118 100.721 253.067 98.1152Z" fill="#FA7659"/>
  <path d="M254.923 97.0317L249.201 98.3477C249.201 108.23 246.057 114.526 244.459 121.777H259.949C260.155 124.28 260.31 126.86 260.361 129.518H271.959C269.33 115.532 263.789 104.695 255.335 97.0317H254.923Z" fill="#FB907D"/>
  <path d="M257.5 107.688C257.887 113.829 257.655 118.525 256.804 121.777H259.949C259.51 116.797 258.737 112.101 257.5 107.688Z" fill="#FA7659"/>
  <path d="M263.942 148.258H137.768V166.566H263.942V148.258Z" fill="#006A6F"/>
  <path d="M278.93 131.023H263.69V166.543H278.93V131.023Z" fill="#009FA7"/>
  <path d="M265.829 143.224H137.927V128.303H279.65L265.829 143.224Z" fill="#419CA4"/>
  <path d="M265.969 143.172H137.768V148.258H265.969V143.172Z" fill="#161616"/>
  <path d="M266.021 148.037V142.983L279.65 128.303V132.611L266.021 148.037Z" fill="#161616"/>
  <path d="M264.098 140.553H145.499V129.723H274.146L264.098 140.553Z" fill="#00BBC3"/>
  <path d="M230.062 138.17C233.832 138.17 236.888 137.039 236.888 135.643C236.888 134.248 233.832 133.116 230.062 133.116C226.292 133.116 223.235 134.248 223.235 135.643C223.235 137.039 226.292 138.17 230.062 138.17Z" fill="#60E0EB"/>
  <path d="M230.062 137.881C233.381 137.881 236.071 136.879 236.071 135.643C236.071 134.407 233.381 133.405 230.062 133.405C226.743 133.405 224.053 134.407 224.053 135.643C224.053 136.879 226.743 137.881 230.062 137.881Z" fill="#006A6F"/>
  <path d="M230.062 137.689C233.102 137.689 235.566 136.773 235.566 135.643C235.566 134.513 233.102 133.598 230.062 133.598C227.022 133.598 224.557 134.513 224.557 135.643C224.557 136.773 227.022 137.689 230.062 137.689Z" fill="#009FA7"/>
  <path d="M230.062 137.52C232.571 137.52 234.605 136.734 234.605 135.764C234.605 134.793 232.571 134.007 230.062 134.007C227.553 134.007 225.519 134.793 225.519 135.764C225.519 136.734 227.553 137.52 230.062 137.52Z" fill="#60E0EB"/>
  <path d="M230.061 136.438C231.654 136.438 232.946 135.953 232.946 135.355C232.946 134.757 231.654 134.272 230.061 134.272C228.468 134.272 227.177 134.757 227.177 135.355C227.177 135.953 228.468 136.438 230.061 136.438Z" fill="#009FA7"/>
  <path d="M231.287 135.234C231.287 135.354 231.167 135.475 230.951 135.547C230.734 135.643 230.422 135.691 230.085 135.691C229.412 135.691 228.859 135.499 228.859 135.234C228.859 134.993 229.412 134.777 230.085 134.777C230.734 134.777 231.287 134.969 231.287 135.234Z" fill="#006A6F"/>
  <path d="M233.451 136.341V136.076L237.128 137.207V137.689C237.128 137.929 236.624 138.074 236.239 137.978L234.196 137.376V137.111L236.191 137.713V137.28L233.451 136.341Z" fill="#006A6F"/>
  <path d="M226.889 136.341V136.076L223.211 137.207V137.689C223.211 137.929 223.716 138.074 224.1 137.978L226.143 137.376V137.111L224.148 137.713V137.28L226.889 136.341Z" fill="#006A6F"/>
  <path d="M232.85 133.742L235.83 132.395V132.924C235.83 133.044 235.734 133.141 235.566 133.213L233.667 134.031V133.766L235.277 133.044V132.876L232.85 133.959V133.742Z" fill="#006A6F"/>
  <path d="M227.129 133.742L224.148 132.395V132.924C224.148 133.044 224.244 133.141 224.412 133.213L226.311 134.031V133.766L224.701 133.044V132.876L227.129 133.959V133.742Z" fill="#006A6F"/>
  <path d="M267.56 118.365C267.464 117.234 262.079 116.344 255.517 116.344C248.955 116.344 243.571 117.258 243.474 118.365C243.426 119.039 243.619 126.884 243.715 130.301C243.739 131.552 244.34 132.732 245.325 133.478C246.984 134.753 250.109 135.716 255.517 135.716C260.877 135.716 264.026 134.729 265.685 133.454C266.694 132.684 267.271 131.504 267.319 130.253C267.415 126.836 267.608 119.039 267.56 118.365Z" fill="#C7F6FC"/>
  <path d="M267.776 118.413C267.776 117.137 262.295 116.103 255.517 116.103C248.762 116.103 243.258 117.137 243.258 118.413C243.258 118.509 243.258 118.846 243.258 118.942C243.258 120.218 248.738 121.252 255.517 121.252C262.271 121.252 267.776 120.218 267.776 118.942C267.776 118.846 267.776 118.509 267.776 118.413Z" fill="#006A6F"/>
  <path opacity="0.7" d="M255.517 120.723C262.287 120.723 267.776 119.689 267.776 118.413C267.776 117.137 262.287 116.103 255.517 116.103C248.746 116.103 243.258 117.137 243.258 118.413C243.258 119.689 248.746 120.723 255.517 120.723Z" fill="#055E5A"/>
  <path d="M255.517 120.386C262.075 120.386 267.391 119.481 267.391 118.365C267.391 117.249 262.075 116.344 255.517 116.344C248.959 116.344 243.643 117.249 243.643 118.365C243.643 119.481 248.959 120.386 255.517 120.386Z" fill="url(#paint2_linear_2857_17824)"/>
  <path d="M255.517 120.386C262.075 120.386 267.391 119.481 267.391 118.365C267.391 117.249 262.075 116.344 255.517 116.344C248.959 116.344 243.643 117.249 243.643 118.365C243.643 119.481 248.959 120.386 255.517 120.386Z" fill="url(#paint3_linear_2857_17824)"/>
  <path d="M269.675 117.33C269.507 117.234 268.281 117.691 267.391 117.859C267.584 118.004 267.68 118.124 267.728 118.269C268.257 118.124 269.435 117.715 269.531 117.787C269.939 118.124 270.156 118.702 269.987 118.846C269.723 119.063 267.007 120.266 266.454 120.531C265.901 120.795 264.891 123.731 265.372 123.755C266.093 123.804 271.213 119.809 271.382 119.496C271.646 119.063 270.156 117.571 269.675 117.33Z" fill="#006A6F"/>
  <path d="M241.359 117.33C241.528 117.234 242.754 117.691 243.643 117.859C243.451 118.004 243.355 118.124 243.306 118.269C242.778 118.124 241.6 117.715 241.504 117.787C241.095 118.124 240.879 118.702 241.047 118.846C241.311 119.063 244.028 120.266 244.58 120.531C245.133 120.795 246.143 123.731 245.662 123.755C244.941 123.804 239.821 119.809 239.653 119.496C239.388 119.063 240.879 117.571 241.359 117.33Z" fill="#006A6F"/>
  <path d="M255.518 120.578C262.129 120.578 267.488 119.544 267.488 118.268C267.488 116.992 262.129 115.958 255.518 115.958C248.907 115.958 243.547 116.992 243.547 118.268C243.547 119.544 248.907 120.578 255.518 120.578Z" fill="#006A6F"/>
  <path d="M258.45 114.105C258.45 113.865 257.152 113.672 255.566 113.672C253.979 113.672 252.681 113.865 252.681 114.105C252.681 114.202 252.849 114.49 253.162 114.827C253.498 115.188 253.619 115.718 253.522 116.223V116.247C253.522 116.416 254.436 116.56 255.566 116.56C256.695 116.56 257.609 116.416 257.609 116.247C257.609 116.247 257.609 116.247 257.609 116.223C257.513 115.718 257.609 115.212 257.969 114.827C258.282 114.49 258.45 114.202 258.45 114.105Z" fill="#009099"/>
  <path d="M237.915 125.411C237.843 124.641 234.189 124.039 229.718 124.039C225.247 124.039 221.593 124.665 221.521 125.411C221.473 125.868 221.617 131.21 221.69 133.545C221.714 134.387 222.122 135.205 222.795 135.711C223.925 136.577 226.04 137.227 229.718 137.227C233.348 137.227 235.511 136.553 236.641 135.686C237.314 135.157 237.722 134.363 237.746 133.497C237.819 131.162 237.963 125.868 237.915 125.411Z" fill="#006A6F"/>
  <path d="M238.059 125.435C238.059 124.569 234.333 123.847 229.718 123.847C225.127 123.847 221.377 124.545 221.377 125.435C221.377 125.507 221.377 125.724 221.377 125.796C221.377 126.662 225.103 127.384 229.718 127.384C234.309 127.384 238.059 126.686 238.059 125.796C238.059 125.748 238.059 125.507 238.059 125.435Z" fill="#4CB4BD"/>
  <path d="M229.718 127.023C234.324 127.023 238.059 126.312 238.059 125.435C238.059 124.558 234.324 123.847 229.718 123.847C225.111 123.847 221.377 124.558 221.377 125.435C221.377 126.312 225.111 127.023 229.718 127.023Z" fill="#60E0EB"/>
  <path d="M229.717 126.782C234.178 126.782 237.794 126.168 237.794 125.411C237.794 124.653 234.178 124.039 229.717 124.039C225.257 124.039 221.641 124.653 221.641 125.411C221.641 126.168 225.257 126.782 229.717 126.782Z" fill="url(#paint4_linear_2857_17824)"/>
  <path d="M229.717 126.782C234.178 126.782 237.794 126.168 237.794 125.411C237.794 124.653 234.178 124.039 229.717 124.039C225.257 124.039 221.641 124.653 221.641 125.411C221.641 126.168 225.257 126.782 229.717 126.782Z" fill="#006A6F"/>
  <path d="M238.925 126.855L237.915 126.951C237.771 127.071 237.434 127.168 237.41 128.25C237.41 129.742 237.843 129.646 237.843 129.646L239.069 129.309C239.333 129.261 239.189 126.807 238.925 126.855Z" fill="#4CB4BD"/>
  <path d="M238.805 129.478C240.175 129.55 244.309 127.384 247.746 127.071C248.251 127.023 248.828 127.12 249.309 127.36C249.669 127.553 251.568 126.037 251.232 125.507C250.847 124.858 250.054 124.424 247.987 124.978C247.434 125.122 246.016 125.531 245.03 125.724C243.636 125.989 240.078 126.422 238.877 126.542C238.66 126.566 238.492 126.735 238.444 126.903C238.348 127.192 238.396 129.454 238.805 129.478Z" fill="#006A6F"/>
  <path d="M195.122 132.646C195.266 133.657 195.386 134.596 195.483 135.245C195.579 135.991 196.252 136.665 197.285 137.098C198.992 137.82 202.165 138.374 207.597 138.374C212.958 138.374 216.155 137.82 217.885 137.074C218.943 136.641 219.616 135.943 219.712 135.197C219.808 134.547 219.928 133.609 220.073 132.622H195.122V132.646Z" fill="#009FA7"/>
  <path d="M220.217 132.334C220.217 131.371 214.568 130.577 207.598 130.577C200.627 130.577 194.978 131.371 194.978 132.334C194.978 132.406 194.978 132.43 194.978 132.502C194.978 133.465 200.627 134.259 207.598 134.259C214.568 134.259 220.217 133.465 220.217 132.502C220.217 132.43 220.217 132.382 220.217 132.334Z" fill="#006A6F"/>
  <path d="M207.598 134.09C214.567 134.09 220.217 133.304 220.217 132.334C220.217 131.363 214.567 130.577 207.598 130.577C200.628 130.577 194.978 131.363 194.978 132.334C194.978 133.304 200.628 134.09 207.598 134.09Z" fill="#64ECF8"/>
  <path d="M207.598 133.801C214.355 133.801 219.833 133.123 219.833 132.285C219.833 131.448 214.355 130.769 207.598 130.769C200.841 130.769 195.363 131.448 195.363 132.285C195.363 133.123 200.841 133.801 207.598 133.801Z" fill="url(#paint5_linear_2857_17824)"/>
  <path d="M207.598 133.801C214.355 133.801 219.833 133.123 219.833 132.285C219.833 131.448 214.355 130.769 207.598 130.769C200.841 130.769 195.363 131.448 195.363 132.285C195.363 133.123 200.841 133.801 207.598 133.801Z" fill="#006A6F"/>
  <path d="M220.458 133.152L219.809 133.224C219.712 133.224 219.616 133.272 219.544 133.321C219.424 133.417 219.28 133.633 219.28 134.259C219.28 135.438 219.616 135.366 219.616 135.366L220.578 135.101C220.794 135.053 220.674 133.128 220.458 133.152Z" fill="#006A6F"/>
  <path d="M220.313 135.366C221.395 135.414 229.086 132.911 231.803 132.671C232.187 132.646 232.668 132.695 233.029 132.887C233.317 133.056 234.807 131.852 234.543 131.419C234.23 130.914 233.629 130.697 231.995 131.01C231.562 131.106 224.736 132.382 220.361 133.032C220.193 133.056 220.048 133.2 220.024 133.32C219.952 133.561 219.976 135.342 220.313 135.366Z" fill="#009FA7"/>
  </g>
  <defs>
  <linearGradient id="paint0_linear_2857_17824" x1="201.956" y1="97.9693" x2="201.956" y2="93.3739" gradientUnits="userSpaceOnUse">
  <stop stop-color="#373C40"/>
  <stop offset="1" stop-color="#212325"/>
  </linearGradient>
  <linearGradient id="paint1_linear_2857_17824" x1="201.956" y1="97.9693" x2="201.956" y2="93.3739" gradientUnits="userSpaceOnUse">
  <stop stop-color="#373C40"/>
  <stop offset="1" stop-color="#212325"/>
  </linearGradient>
  <linearGradient id="paint2_linear_2857_17824" x1="255.514" y1="120.695" x2="255.514" y2="113.85" gradientUnits="userSpaceOnUse">
  <stop stop-color="#373C40"/>
  <stop offset="1" stop-color="#212325"/>
  </linearGradient>
  <linearGradient id="paint3_linear_2857_17824" x1="255.514" y1="120.695" x2="255.514" y2="113.85" gradientUnits="userSpaceOnUse">
  <stop stop-color="#373C40"/>
  <stop offset="1" stop-color="#212325"/>
  </linearGradient>
  <linearGradient id="paint4_linear_2857_17824" x1="229.726" y1="126.992" x2="229.726" y2="122.336" gradientUnits="userSpaceOnUse">
  <stop stop-color="#373C40"/>
  <stop offset="1" stop-color="#212325"/>
  </linearGradient>
  <linearGradient id="paint5_linear_2857_17824" x1="207.592" y1="134.036" x2="207.592" y2="128.877" gradientUnits="userSpaceOnUse">
  <stop stop-color="#373C40"/>
  <stop offset="1" stop-color="#212325"/>
  </linearGradient>
  <clipPath id="clip0_2857_17824">
  <rect width="282" height="158.63" fill="white"/>
  </clipPath>
  </defs>
  </svg>
