<svg fill="none" height="57" viewBox="0 0 57 57" width="57" xmlns="http://www.w3.org/2000/svg"><rect fill="#2d9cdb" height="56" rx="12" width="56" x=".333496" y=".955566"/><path clip-rule="evenodd" d="m27.6667 32.4218 3.7453-3.4667-3.7453-3.4653zm5.9733-1.8949-4.856 4.4934c-.4253.3946-.9786.6013-1.5426.6013-.3107 0-.6267-.064-.924-.1933-.8134-.3547-1.3174-1.1134-1.3174-1.98v-8.9867c0-.8653.504-1.6253 1.3174-1.9787.8346-.3666 1.804-.2066 2.468.408l4.8546 4.4934c.4414.4066.6934.98.6934 1.5706 0 .592-.252 1.164-.6934 1.572zm-5.3067-14.9053c-7.352 0-13.3333 5.9826-13.3333 13.3333 0 7.352 5.9813 13.3333 13.3333 13.3333s13.3334-5.9813 13.3334-13.3333c0-7.3507-5.9814-13.3333-13.3334-13.3333z" fill="#fff" fill-rule="evenodd"/></svg>