<svg fill="none" height="57" viewBox="0 0 56 57" width="56" xmlns="http://www.w3.org/2000/svg" xmlns:xlink="http://www.w3.org/1999/xlink"><linearGradient id="a" gradientUnits="userSpaceOnUse" x1="42.0739" x2="30.175" y1="23.3498" y2="49.8133"><stop offset="0" stop-color="#fff"/><stop offset="1" stop-color="#edebeb"/></linearGradient><linearGradient id="b"><stop offset=".00022927" stop-color="#5ea5ef"/><stop offset="1" stop-color="#1c66dd"/></linearGradient><linearGradient id="c" gradientUnits="userSpaceOnUse" x1="26" x2="26" xlink:href="#b" y1="19.4556" y2="41.9556"/><linearGradient id="d" gradientUnits="userSpaceOnUse" x1="25.9834" x2="25.9834" xlink:href="#b" y1="46.4556" y2="47.4556"/><linearGradient id="e"><stop offset="0" stop-color="#e8a16d"/><stop offset="1" stop-color="#cb7a43"/></linearGradient><linearGradient id="f" gradientUnits="userSpaceOnUse" x1="25.9998" x2="25.9998" xlink:href="#e" y1="36.9561" y2="39.7558"/><linearGradient id="g" gradientUnits="userSpaceOnUse" x1="25.9997" x2="25.9997" xlink:href="#e" y1="28.5557" y2="36.5557"/><linearGradient id="h"><stop offset="0" stop-color="#808080"/><stop offset="1"/></linearGradient><linearGradient id="i" gradientUnits="userSpaceOnUse" x1="25.9999" x2="25.9999" xlink:href="#h" y1="24.5518" y2="34.7052"/><linearGradient id="j" gradientUnits="userSpaceOnUse" x1="25.9998" x2="25.9998" xlink:href="#h" y1="29.3555" y2="37.7555"/><linearGradient id="k" gradientUnits="userSpaceOnUse" x1="40.3333" x2="40.3333" xlink:href="#h" y1="9.95557" y2="30.3722"/><clipPath id="l"><path d="m8 8.95557h40v40h-40z"/></clipPath><rect fill="#f7f7f7" height="56" rx="8" width="56" y=".955566"/><g clip-path="url(#l)"><path d="m41.75 19.4556h-31.5c-.82843 0-1.5.6715-1.5 1.5v19.5c0 .8284.67157 1.5 1.5 1.5h31.5c.8284 0 1.5-.6716 1.5-1.5v-19.5c0-.8285-.6716-1.5-1.5-1.5z" fill="url(#a)"/><path d="m23.75 41.9556h4.5v4.5h-4.5z" fill="#0a54bf"/><path d="m41.75 19.4556h-31.5c-.82843 0-1.5.6715-1.5 1.5v19.5c0 .8284.67157 1.5 1.5 1.5h31.5c.8284 0 1.5-.6716 1.5-1.5v-19.5c0-.8285-.6716-1.5-1.5-1.5z" stroke="url(#c)" stroke-linecap="round" stroke-linejoin="round" stroke-width="1.5"/><path d="m17.7334 46.4556h16.5" stroke="url(#d)" stroke-linecap="round" stroke-linejoin="round" stroke-width="1.5"/><path d="m34.8002 40.4677v.888h-17.6v-.888c-.0011-.2438.0539-.4846.1607-.7037.1068-.2192.2626-.4109.4553-.5603 1.4944-1.067 3.2277-1.7512 5.048-1.9928.1515.7195.5459 1.365 1.1169 1.8283.5709.4632 1.2838.716 2.0191.716s1.4482-.2528 2.0192-.716c.571-.4633.9653-1.1088 1.1168-1.8283 1.8203.2416 3.5536.9258 5.048 1.9928.1927.1494.3485.3411.4553.5603.1068.2191.1618.4599.1607.7037z" fill="#ffbfc5"/><path d="m29.1358 37.2115c-.1516.7195-.5459 1.365-1.1169 1.8282-.571.4633-1.2839.7161-2.0191.7161-.7353 0-1.4482-.2528-2.0192-.7161-.571-.4632-.9653-1.1087-1.1168-1.8282 1.036-.175 2.0852-.2604 3.136-.2552 1.0507-.0052 2.0999.0802 3.136.2552z" fill="url(#f)"/><path d="m30.7997 30.1557v1.6c0 1.273-.5057 2.4939-1.4059 3.3941s-2.1211 1.4059-3.3941 1.4059-2.4939-.5057-3.3941-1.4059-1.4059-2.1211-1.4059-3.3941v-1.6c1.064 0 3.248.272 4.8-1.6 1.552 1.872 3.736 1.6 4.8 1.6z" fill="url(#g)"/><path d="m30.7997 30.1555c-1.064 0-3.248.272-4.8-1.6-1.552 1.872-3.736 1.6-4.8 1.6 0-1.2731.5057-2.494 1.4059-3.3941.9002-.9002 2.1211-1.4059 3.3941-1.4059s2.4939.5057 3.3941 1.4059c.9002.9001 1.4059 2.121 1.4059 3.3941z" fill="#5a483c"/><path d="m27.1997 33.7557c-.3462.2596-.7673.4-1.2.4s-.8538-.1404-1.2-.4m2.8-2.2c.0396 0 .0782.0117.1111.0337.0329.0219.0585.0532.0737.0897.0151.0366.0191.0768.0114.1156-.0078.0388-.0268.0744-.0548.1024-.0279.028-.0636.047-.1024.0547s-.079.0038-.1155-.0114c-.0366-.0151-.0678-.0407-.0898-.0736s-.0337-.0716-.0337-.1111c0-.0531.0211-.104.0586-.1415s.0884-.0585.1414-.0585zm-3.2 0c.0396 0 .0782.0117.1111.0337.0329.0219.0585.0532.0737.0897.0151.0366.0191.0768.0114.1156-.0078.0388-.0268.0744-.0548.1024-.0279.028-.0636.047-.1024.0547s-.079.0038-.1155-.0114c-.0366-.0151-.0678-.0407-.0898-.0736s-.0337-.0716-.0337-.1111c0-.0531.0211-.104.0586-.1415s.0884-.0585.1414-.0585z" stroke="#443023" stroke-linecap="round" stroke-linejoin="round" stroke-width=".8"/><path d="m19.6279 30.3537c.149-1.5868.8847-3.061 2.0632-4.1341s2.715-1.6678 4.3088-1.6678c1.5939 0 3.1304.5947 4.3089 1.6678s1.9142 2.5473 2.0631 4.1341" stroke="url(#i)" stroke-linecap="round" stroke-linejoin="round" stroke-width=".8"/><path d="m31.5998 29.3555c-.2122 0-.4157.0843-.5657.2343s-.2343.3535-.2343.5657v3.2c0 .2121.0843.4156.2343.5657.15.15.3535.2343.5657.2343.4244 0 .8313-.1686 1.1314-.4687.3-.3.4686-.707.4686-1.1313v-1.6c0-.4244-.1686-.8313-.4686-1.1314-.3001-.3001-.707-.4686-1.1314-.4686zm-11.2 0c.2122 0 .4157.0843.5657.2343s.2343.3535.2343.5657v3.2c0 .2121-.0843.4156-.2343.5657-.15.15-.3535.2343-.5657.2343-.4243 0-.8313-.1686-1.1314-.4687-.3-.3-.4686-.707-.4686-1.1313v-1.6c0-.4244.1686-.8313.4686-1.1314.3001-.3001.7071-.4686 1.1314-.4686z" fill="url(#j)"/><path d="m48.6667 11.6222-3.3334.9717v-.9717c0-.442-.1756-.8659-.4881-1.1785-.3126-.3125-.7365-.48813-1.1785-.48813h-10c-.4421 0-.866.17563-1.1785.48813-.3126.3126-.4882.7365-.4882 1.1785v8.3334c0 .442.1756.8659.4882 1.1785.3125.3125.7364.4881 1.1785.4881h10c.442 0 .8659-.1756 1.1785-.4881.3125-.3126.4881-.7365.4881-1.1785v-1.1117l3.3334 1.1117z" fill="url(#k)"/></g></svg>