<svg fill="none" height="305" viewBox="0 0 555 305" width="555" xmlns="http://www.w3.org/2000/svg" xmlns:xlink="http://www.w3.org/1999/xlink"><filter id="a" color-interpolation-filters="sRGB" filterUnits="userSpaceOnUse" height="170" width="378" x="88.5" y="63.9556"><feFlood flood-opacity="0" result="BackgroundImageFix"/><feColorMatrix in="SourceAlpha" result="hardAlpha" type="matrix" values="0 0 0 0 0 0 0 0 0 0 0 0 0 0 0 0 0 0 127 0"/><feOffset dy="4"/><feGaussianBlur stdDeviation="9"/><feComposite in2="hardAlpha" operator="out"/><feColorMatrix type="matrix" values="0 0 0 0 0 0 0 0 0 0 0 0 0 0 0 0 0 0 0.1 0"/><feBlend in2="BackgroundImageFix" mode="normal" result="effect1_dropShadow_21452_423475"/><feBlend in="SourceGraphic" in2="effect1_dropShadow_21452_423475" mode="normal" result="shape"/></filter><linearGradient id="b" gradientUnits="userSpaceOnUse" x1="154.25" x2="154.25" y1="124.956" y2="164.956"><stop offset="0" stop-color="#ffeb3b"/><stop offset="1" stop-color="#fca306"/></linearGradient><linearGradient id="c" gradientUnits="userSpaceOnUse" x1="169.667" x2="185.5" y1="114.956" y2="142.456"><stop offset="0" stop-color="#f24c64"/><stop offset="1" stop-color="#e8140f"/></linearGradient><clipPath id="d"><path d="m125.5 124.956h57.5v40h-57.5z"/></clipPath><clipPath id="e"><path d="m207 96.9556h222.5v96h-222.5z"/></clipPath><mask id="f" height="41" maskUnits="userSpaceOnUse" width="58" x="125" y="124"><path d="m178 124.956h-47.5c-2.761 0-5 2.238-5 5v30c0 2.761 2.239 5 5 5h47.5c2.761 0 5-2.239 5-5v-30c0-2.762-2.239-5-5-5z" fill="#e3e3e3"/></mask><g filter="url(#a)"><rect fill="#f7f7f7" height="128" rx="8" shape-rendering="crispEdges" width="336" x="109.5" y="80.9556"/><g clip-path="url(#d)"><g mask="url(#f)"><path d="m130.5 124.953c-1.326 0-2.598.527-3.536 1.465-.937.937-1.464 2.209-1.464 3.535v30c0 1.326.527 2.598 1.464 3.536.938.937 2.21 1.464 3.536 1.464h1.345l40-40z" fill="#fff"/><path d="m178 124.956h-47.5c-2.761 0-5 2.238-5 5v30c0 2.761 2.239 5 5 5h47.5c2.761 0 5-2.239 5-5v-30c0-2.762-2.239-5-5-5z" fill="url(#b)"/><path d="m183.25 125.07-29 25-29-25" fill="#fca709"/></g></g><rect fill="url(#c)" height="25" rx="12.5" width="25" x="165.5" y="114.956"/><path d="m179.647 134.456v-13.163h-1.747c-.305 1.422-1.564 2.438-3.392 2.478v1.402h3.189v9.283z" fill="#fff"/><g clip-path="url(#e)"><g fill="#212121"><path d="m213.42 108.956v-1.584h-3.792v-6.924h-1.656v8.508zm-.164-7.716c0 .504.336.864.876.864.108 0 .192-.024.252-.06-.024.552-.528.948-.984 1.02v.732c.756-.072 1.86-.66 1.86-2.268 0-.636-.408-1.164-1.044-1.164-.564 0-.96.408-.96.876zm7.045-.696h-1.824l-1.092 1.8h1.284zm-3.48 4.788c.036-.54.492-1.164 1.32-1.164.912 0 1.296.576 1.32 1.164zm2.796 1.536c-.192.528-.6.9-1.344.9-.792 0-1.452-.564-1.488-1.344h4.224c0-.024.024-.264.024-.492 0-1.896-1.092-3.06-2.916-3.06-1.512 0-2.904 1.224-2.904 3.108 0 1.992 1.428 3.156 3.048 3.156 1.452 0 2.388-.852 2.688-1.872zm8.313 4.368v-8.184h-1.524v.684c-.168-.336-.696-.828-1.728-.828-1.716 0-2.832 1.356-2.832 3.084 0 1.776 1.2 3.108 2.88 3.108.78 0 1.368-.288 1.644-.732v2.868zm-4.476-5.244c0-1.056.648-1.656 1.464-1.656s1.464.6 1.464 1.656-.648 1.68-1.464 1.68-1.464-.624-1.464-1.68zm10 2.964h1.524c-.024-.204-.06-.612-.06-1.068v-4.836h-1.596v3.432c0 .684-.408 1.164-1.116 1.164-.744 0-1.08-.528-1.08-1.188v-3.408h-1.596v3.732c0 1.284.816 2.328 2.244 2.328.624 0 1.308-.24 1.632-.792 0 .24.024.516.048.636zm4.764 0v-5.904h-1.596v5.904zm-1.788-7.836c0 .528.444.972.984.972.552 0 .984-.444.984-.972 0-.552-.432-.996-.984-.996-.54 0-.984.444-.984.996zm5.092 10.116v-2.856c.288.396.888.72 1.704.72 1.668 0 2.784-1.32 2.784-3.108 0-1.752-.996-3.072-2.724-3.072-.888 0-1.548.396-1.812.852v-.72h-1.548v8.184zm2.916-5.232c0 1.056-.648 1.668-1.464 1.668s-1.476-.624-1.476-1.668.66-1.656 1.476-1.656 1.464.612 1.464 1.656zm4-.672c.036-.54.492-1.164 1.32-1.164.912 0 1.296.576 1.32 1.164zm2.796 1.536c-.192.528-.6.9-1.344.9-.792 0-1.452-.564-1.488-1.344h4.224c0-.024.024-.264.024-.492 0-1.896-1.092-3.06-2.916-3.06-1.512 0-2.904 1.224-2.904 3.108 0 1.992 1.428 3.156 3.048 3.156 1.452 0 2.388-.852 2.688-1.872zm11.266-6.6h-1.572v3.372c-.168-.312-.648-.732-1.668-.732-1.668 0-2.832 1.356-2.832 3.084 0 1.788 1.2 3.108 2.88 3.108.792 0 1.392-.36 1.656-.828 0 .276.036.564.06.684h1.524c-.024-.24-.048-.672-.048-1.068zm-4.464 5.724c0-1.056.648-1.656 1.464-1.656s1.452.588 1.452 1.644c0 1.068-.636 1.692-1.452 1.692-.84 0-1.464-.624-1.464-1.68zm7.359-.66c.036-.54.492-1.164 1.32-1.164.912 0 1.296.576 1.32 1.164zm2.796 1.536c-.192.528-.6.9-1.344.9-.792 0-1.452-.564-1.488-1.344h4.224c0-.024.024-.264.024-.492 0-1.896-1.092-3.06-2.916-3.06-1.512 0-2.904 1.224-2.904 3.108 0 1.992 1.428 3.156 3.048 3.156 1.452 0 2.388-.852 2.688-1.872zm9.958 2.088h1.848l-1.824-3.48c1.116-.324 1.812-1.224 1.812-2.412 0-1.476-1.056-2.616-2.712-2.616h-3.324v8.508h1.668v-3.276h.864zm-2.532-4.704v-2.364h1.344c.84 0 1.332.468 1.332 1.188 0 .696-.492 1.176-1.332 1.176zm10.192-3.708h-1.824l-1.092 1.8h1.284zm-3.48 4.788c.036-.54.492-1.164 1.32-1.164.912 0 1.296.576 1.32 1.164zm2.796 1.536c-.192.528-.6.9-1.344.9-.792 0-1.452-.564-1.488-1.344h4.224c0-.024.024-.264.024-.492 0-1.896-1.092-3.06-2.916-3.06-1.512 0-2.904 1.224-2.904 3.108 0 1.992 1.428 3.156 3.048 3.156 1.452 0 2.388-.852 2.688-1.872zm5.408-5.28c.264 0 .42.036.504.06v-1.344c-.132-.06-.456-.12-.792-.12-1.308 0-2.148.864-2.148 2.196v.672h-.984v1.368h.984v4.536h1.608v-4.536h1.332v-1.368h-1.332v-.648c0-.66.468-.816.828-.816zm5.382 7.368h1.524c-.024-.204-.06-.612-.06-1.068v-4.836h-1.596v3.432c0 .684-.408 1.164-1.116 1.164-.744 0-1.08-.528-1.08-1.188v-3.408h-1.596v3.732c0 1.284.816 2.328 2.244 2.328.624 0 1.308-.24 1.632-.792 0 .24.024.516.048.636zm2.724.324c.168 1.128 1.248 2.136 2.868 2.136 2.22 0 3.096-1.476 3.096-3.096v-5.268h-1.536v.696c-.204-.396-.744-.804-1.68-.804-1.62 0-2.748 1.32-2.748 2.88 0 1.656 1.176 2.868 2.748 2.868.852 0 1.404-.372 1.644-.756v.432c0 1.14-.564 1.644-1.572 1.644-.756 0-1.272-.468-1.38-1.116zm3.024-1.956c-.828 0-1.416-.576-1.416-1.5 0-.912.624-1.488 1.416-1.488.768 0 1.392.576 1.392 1.488s-.576 1.5-1.392 1.5zm6.152 1.632v-5.904h-1.596v5.904zm-1.788-7.836c0 .528.444.972.984.972.552 0 .984-.444.984-.972 0-.552-.432-.996-.984-.996-.54 0-.984.444-.984.996zm8.141-.576h-1.824l-1.092 1.8h1.284zm-3.48 4.788c.036-.54.492-1.164 1.32-1.164.912 0 1.296.576 1.32 1.164zm2.796 1.536c-.192.528-.6.9-1.344.9-.792 0-1.452-.564-1.488-1.344h4.224c0-.024.024-.264.024-.492 0-1.896-1.092-3.06-2.916-3.06-1.512 0-2.904 1.224-2.904 3.108 0 1.992 1.428 3.156 3.048 3.156 1.452 0 2.388-.852 2.688-1.872zm2.169.444c.072.672.684 1.824 2.46 1.824 1.548 0 2.292-.984 2.292-1.944 0-.864-.588-1.572-1.752-1.812l-.84-.18c-.324-.06-.54-.24-.54-.528 0-.336.336-.588.756-.588.672 0 .924.444.972.792l1.332-.3c-.072-.636-.636-1.704-2.316-1.704-1.272 0-2.208.876-2.208 1.932 0 .828.516 1.512 1.656 1.764l.78.18c.456.096.636.312.636.576 0 .312-.252.588-.78.588-.696 0-1.044-.432-1.08-.9zm5.951.636c0 .6.492 1.092 1.092 1.092.612 0 1.104-.492 1.104-1.092s-.492-1.092-1.104-1.092c-.6 0-1.092.492-1.092 1.092zm5.407 1.008v-5.904h-1.596v5.904zm-1.788-7.836c0 .528.444.972.984.972.552 0 .984-.444.984-.972 0-.552-.432-.996-.984-.996-.54 0-.984.444-.984.996zm5.092 4.44c0-.684.408-1.224 1.104-1.224.768 0 1.092.516 1.092 1.176v3.444h1.596v-3.72c0-1.296-.672-2.34-2.136-2.34-.636 0-1.344.276-1.704.888v-.732h-1.548v5.904h1.596zm8.148-3.972c.264 0 .42.036.504.06v-1.344c-.132-.06-.456-.12-.792-.12-1.308 0-2.148.864-2.148 2.196v.672h-.984v1.368h.984v4.536h1.608v-4.536h1.332v-1.368h-1.332v-.648c0-.66.468-.816.828-.816zm4.064 6.096c-.78 0-1.5-.576-1.5-1.68 0-1.116.72-1.68 1.5-1.68s1.5.564 1.5 1.68-.72 1.68-1.5 1.68zm0-4.812c-1.764 0-3.096 1.308-3.096 3.132 0 1.812 1.332 3.132 3.096 3.132s3.096-1.32 3.096-3.132c0-1.824-1.332-3.132-3.096-3.132z"/><path d="m385.105 107.456h.736v-2.823c0-.643.452-1.162 1.048-1.162.574 0 .946.35.946.891v3.094h.736v-2.929c0-.579.418-1.056 1.052-1.056.642 0 .951.333.951 1.005v2.98h.735v-3.149c0-.955-.52-1.487-1.449-1.487-.63 0-1.15.317-1.395.798h-.068c-.211-.473-.642-.798-1.259-.798-.596 0-1.027.283-1.23.773h-.067v-.693h-.736zm8.73.08c.613 0 1.09-.266 1.378-.752h.067v.672h.735v-3.119c0-.947-.621-1.517-1.732-1.517-.972 0-1.665.482-1.784 1.196l-.004.025h.736l.004-.013c.118-.355.477-.557 1.022-.557.681 0 1.023.304 1.023.866v.414l-1.306.08c-1.06.064-1.66.533-1.66 1.344v.009c0 .828.655 1.352 1.521 1.352zm-.769-1.369v-.009c0-.452.304-.697.997-.739l1.217-.076v.414c0 .651-.545 1.141-1.293 1.141-.528 0-.921-.271-.921-.731zm4.63-4.146c.279 0 .507-.228.507-.507s-.228-.507-.507-.507-.507.228-.507.507.228.507.507.507zm-.372 5.435h.736v-4.556h-.736zm2.07 0h.735v-2.697c0-.798.461-1.288 1.187-1.288.727 0 1.065.393 1.065 1.212v2.773h.736v-2.95c0-1.082-.571-1.686-1.593-1.686-.672 0-1.099.283-1.327.765h-.068v-.685h-.735zm6.62.033c.144 0 .284-.017.427-.042v-.625c-.135.012-.207.017-.338.017-.473 0-.659-.216-.659-.753v-2.577h.997v-.609h-.997v-1.179h-.761v1.179h-.718v.609h.718v2.763c0 .871.393 1.217 1.331 1.217zm3.266.047c1.073 0 1.724-.609 1.88-1.226l.009-.033h-.736l-.016.038c-.123.274-.503.566-1.12.566-.812 0-1.331-.55-1.353-1.492h3.28v-.287c0-1.361-.752-2.282-1.991-2.282-1.238 0-2.041.963-2.041 2.37v.005c0 1.428.786 2.341 2.088 2.341zm-.051-4.061c.672 0 1.171.427 1.247 1.327h-2.519c.08-.867.596-1.327 1.272-1.327zm3.084 3.981h.735v-2.697c0-.798.461-1.288 1.188-1.288.726 0 1.064.393 1.064 1.212v2.773h.736v-2.95c0-1.082-.571-1.686-1.593-1.686-.672 0-1.099.283-1.327.765h-.068v-.685h-.735zm6.253.08c.613 0 1.09-.266 1.377-.752h.068v.672h.735v-3.119c0-.947-.621-1.517-1.732-1.517-.972 0-1.665.482-1.784 1.196l-.004.025h.736l.004-.013c.118-.355.477-.557 1.022-.557.681 0 1.023.304 1.023.866v.414l-1.306.08c-1.06.064-1.66.533-1.66 1.344v.009c0 .828.655 1.352 1.521 1.352zm-.769-1.369v-.009c0-.452.304-.697.997-.739l1.217-.076v.414c0 .651-.545 1.141-1.293 1.141-.528 0-.921-.271-.921-.731zm4.241 1.289h.736v-2.697c0-.798.46-1.288 1.187-1.288s1.065.393 1.065 1.212v2.773h.735v-2.95c0-1.082-.57-1.686-1.593-1.686-.672 0-1.099.283-1.327.765h-.067v-.685h-.736zm6.621.033c.144 0 .283-.017.427-.042v-.625c-.135.012-.207.017-.338.017-.474 0-.659-.216-.659-.753v-2.577h.997v-.609h-.997v-1.179h-.761v1.179h-.719v.609h.719v2.763c0 .871.393 1.217 1.331 1.217z" fill-opacity=".6"/><path d="m210.936 130.444-2.568-6.996h-1.248l3.204 8.508h1.164l3.276-8.508h-1.236zm6.726.684c-.96 0-1.8-.72-1.8-2.064 0-1.332.84-2.052 1.8-2.052s1.8.72 1.8 2.052c0 1.344-.84 2.064-1.8 2.064zm0-5.124c-1.728 0-2.952 1.308-2.952 3.06 0 1.764 1.224 3.072 2.952 3.072s2.952-1.308 2.952-3.072c0-1.752-1.224-3.06-2.952-3.06zm5.849-1.644h-1.032v.936c0 .504-.264.888-.888.888h-.312v1.02h1.104v3.168c0 1.044.624 1.644 1.608 1.644.384 0 .672-.072.768-.108v-.96c-.096.024-.3.048-.444.048-.588 0-.804-.264-.804-.792v-3h1.248v-1.02h-1.248zm5.841 1.764c-.06-.012-.216-.036-.372-.036-.588 0-1.308.216-1.728 1.104v-1.008h-1.104v5.772h1.128v-2.892c0-1.272.636-1.776 1.584-1.776.156 0 .324.012.492.036zm1.875 2.352c.048-.744.624-1.476 1.572-1.476 1.02 0 1.56.648 1.584 1.476zm3.324 1.5c-.216.648-.684 1.164-1.62 1.164-.972 0-1.716-.72-1.74-1.752h4.344c.012-.072.024-.216.024-.36 0-1.8-.996-3.024-2.772-3.024-1.452 0-2.76 1.236-2.76 3.048 0 1.956 1.356 3.084 2.904 3.084 1.344 0 2.268-.804 2.592-1.824zm7.692-6.744c-1.044 0-1.896.696-1.896 1.98v.972h-1.068v1.02h1.068v4.752h1.164v-4.752h2.7v4.752h1.116v-5.772h-3.816v-.924c0-.792.516-.972.912-.972.288 0 .432.048.492.072v-1.008c-.048-.036-.288-.12-.672-.12zm1.716.744c0 .444.36.804.804.804.456 0 .816-.36.816-.804 0-.456-.36-.816-.816-.816-.444 0-.804.36-.804.816zm5.706 3.072c.984 0 1.404.66 1.548 1.224l1.02-.432c-.24-.876-1.032-1.836-2.568-1.836-1.644 0-2.904 1.26-2.904 3.06 0 1.752 1.236 3.072 2.916 3.072 1.5 0 2.328-.972 2.604-1.8l-.996-.432c-.132.456-.528 1.188-1.608 1.188-.936 0-1.764-.708-1.764-2.028 0-1.344.84-2.016 1.752-2.016zm5.068 1.512c.024-.852.48-1.524 1.344-1.524 1.008 0 1.344.648 1.344 1.452v3.468h1.128v-3.66c0-1.284-.684-2.28-2.064-2.28-.66 0-1.332.228-1.752.84v-3.588h-1.128v8.688h1.128zm6.342-.084c.048-.744.624-1.476 1.572-1.476 1.02 0 1.56.648 1.584 1.476zm3.324 1.5c-.216.648-.684 1.164-1.62 1.164-.972 0-1.716-.72-1.74-1.752h4.344c.012-.072.024-.216.024-.36 0-1.8-.996-3.024-2.772-3.024-1.452 0-2.76 1.236-2.76 3.048 0 1.956 1.356 3.084 2.904 3.084 1.344 0 2.268-.804 2.592-1.824zm6.18-1.5c.048-.744.624-1.476 1.572-1.476 1.02 0 1.56.648 1.584 1.476zm3.324 1.5c-.216.648-.684 1.164-1.62 1.164-.972 0-1.716-.72-1.74-1.752h4.344c.012-.072.024-.216.024-.36 0-1.8-.996-3.024-2.772-3.024-1.452 0-2.76 1.236-2.76 3.048 0 1.956 1.356 3.084 2.904 3.084 1.344 0 2.268-.804 2.592-1.824zm1.908.48c.096.66.768 1.68 2.352 1.68 1.428 0 2.112-.972 2.112-1.788 0-.852-.552-1.488-1.596-1.716l-.936-.204c-.444-.096-.66-.348-.66-.696 0-.396.384-.768.96-.768.912 0 1.152.66 1.2.96l.996-.372c-.12-.516-.612-1.548-2.196-1.548-1.128 0-2.052.84-2.052 1.824 0 .816.54 1.428 1.44 1.62l.984.216c.48.108.744.384.744.744 0 .408-.348.768-.984.768-.816 0-1.272-.48-1.344-1.08zm7.477-6.096h-1.032v.936c0 .504-.264.888-.888.888h-.312v1.02h1.104v3.168c0 1.044.624 1.644 1.608 1.644.384 0 .672-.072.768-.108v-.96c-.096.024-.3.048-.444.048-.588 0-.804-.264-.804-.792v-3h1.248v-1.02h-1.248zm5.586 4.644v-.984h-3.252v.984zm2.236-.528c.048-.744.624-1.476 1.572-1.476 1.02 0 1.56.648 1.584 1.476zm3.324 1.5c-.216.648-.684 1.164-1.62 1.164-.972 0-1.716-.72-1.74-1.752h4.344c.012-.072.024-.216.024-.36 0-1.8-.996-3.024-2.772-3.024-1.452 0-2.76 1.236-2.76 3.048 0 1.956 1.356 3.084 2.904 3.084 1.344 0 2.268-.804 2.592-1.824zm3.576 1.98v-8.688h-1.128v8.688zm3.047 0v-8.688h-1.128v8.688zm2.651-3.48c.048-.744.624-1.476 1.572-1.476 1.02 0 1.56.648 1.584 1.476zm3.324 1.5c-.216.648-.684 1.164-1.62 1.164-.972 0-1.716-.72-1.74-1.752h4.344c.012-.072.024-.216.024-.36 0-1.8-.996-3.024-2.772-3.024-1.452 0-2.76 1.236-2.76 3.048 0 1.956 1.356 3.084 2.904 3.084 1.344 0 2.268-.804 2.592-1.824zm5.088.432c0 .912.756 1.728 1.932 1.728 1.032 0 1.608-.552 1.86-.96 0 .42.036.636.06.78h1.104c-.024-.144-.072-.444-.072-.948v-2.892c0-1.128-.672-2.112-2.4-2.112-1.248 0-2.244.768-2.364 1.872l1.08.252c.072-.672.516-1.164 1.308-1.164.876 0 1.248.468 1.248 1.032 0 .204-.096.384-.444.432l-1.56.228c-.996.144-1.752.72-1.752 1.752zm2.088.78c-.576 0-.936-.408-.936-.84 0-.516.36-.792.84-.864l1.764-.264v.264c0 1.26-.744 1.704-1.668 1.704zm.132-5.748h.936l-1.032-1.752h-1.416zm7.421 7.14c0 .528-.192.84-.78.84-.168 0-.3-.024-.36-.036v.948c.072.024.24.084.672.084.996 0 1.596-.744 1.596-1.788v-6.444h-1.128zm-.252-8.604c0 .444.36.804.804.804.456 0 .816-.36.816-.804 0-.456-.36-.816-.816-.816-.444 0-.804.36-.804.816zm5.771 7.152c-.96 0-1.8-.72-1.8-2.064 0-1.332.84-2.052 1.8-2.052s1.8.72 1.8 2.052c0 1.344-.84 2.064-1.8 2.064zm0-5.124c-1.728 0-2.952 1.308-2.952 3.06 0 1.764 1.224 3.072 2.952 3.072s2.952-1.308 2.952-3.072c0-1.752-1.224-3.06-2.952-3.06zm8.14 5.256c0 .24.024.564.048.696h1.08c-.024-.204-.06-.612-.06-1.068v-4.704h-1.128v3.48c0 .876-.456 1.476-1.368 1.476-.948 0-1.308-.696-1.308-1.488v-3.468h-1.128v3.636c0 1.308.816 2.316 2.16 2.316.672 0 1.392-.276 1.704-.876zm6.197-5.136c-.06-.012-.216-.036-.372-.036-.588 0-1.308.216-1.728 1.104v-1.008h-1.104v5.772h1.128v-2.892c0-1.272.636-1.776 1.584-1.776.156 0 .324.012.492.036zm6.65 3.396c-.012-.12-.012-.168-.012-.228 0-.468.156-.9.528-1.152l.552-.372c.696-.468 1.224-1.128 1.224-2.088 0-1.224-.948-2.412-2.628-2.412-1.848 0-2.652 1.356-2.652 2.46 0 .216.024.408.072.576l1.164.144c-.048-.132-.084-.384-.084-.588 0-.756.456-1.536 1.5-1.536.96 0 1.428.66 1.428 1.368 0 .468-.228.9-.636 1.176l-.528.36c-.708.48-.996 1.08-.996 1.872 0 .156 0 .276.012.42zm-1.32 1.716c0 .432.348.78.78.78s.792-.348.792-.78-.36-.792-.792-.792-.78.36-.78.792z"/></g><path d="m207.897 148.956h2.745c1.497 0 2.385-.737 2.385-1.97v-.01c0-.927-.61-1.585-1.57-1.707v-.078c.677-.122 1.214-.785 1.214-1.511v-.01c0-1.073-.79-1.751-2.082-1.751h-2.692zm2.506-6.261c.873 0 1.38.414 1.38 1.126v.01c0 .741-.541 1.121-1.604 1.121h-1.404v-2.257zm.025 3.013c1.121 0 1.697.415 1.697 1.224v.01c0 .809-.556 1.238-1.614 1.238h-1.736v-2.472zm5.925 3.34c1.497 0 2.424-1.034 2.424-2.716v-.009c0-1.688-.927-2.716-2.424-2.716s-2.423 1.028-2.423 2.716v.009c0 1.682.926 2.716 2.423 2.716zm0-.751c-.994 0-1.555-.726-1.555-1.965v-.009c0-1.244.561-1.966 1.555-1.966.995 0 1.556.722 1.556 1.966v.009c0 1.239-.561 1.965-1.556 1.965zm3.58.659h.849v-3.111c0-.922.531-1.488 1.37-1.488s1.229.454 1.229 1.4v3.199h.848v-3.404c0-1.248-.658-1.945-1.838-1.945-.775 0-1.268.326-1.531.882h-.078v-.79h-.849zm6.111-6.271c.322 0 .585-.263.585-.585s-.263-.585-.585-.585-.585.263-.585.585.263.585.585.585zm-1.19 8.075c1.102 0 1.614-.464 1.614-1.546v-5.515h-.848v5.53c0 .58-.215.78-.785.78h-.127v.751zm5.219-1.712c1.497 0 2.423-1.034 2.423-2.716v-.009c0-1.688-.926-2.716-2.423-2.716s-2.423 1.028-2.423 2.716v.009c0 1.682.926 2.716 2.423 2.716zm0-.751c-.995 0-1.556-.726-1.556-1.965v-.009c0-1.244.561-1.966 1.556-1.966s1.555.722 1.555 1.966v.009c0 1.239-.56 1.965-1.555 1.965zm5.34.751c.771 0 1.302-.317 1.561-.877h.078v.785h.848v-5.257h-.848v3.111c0 .922-.493 1.487-1.419 1.487-.839 0-1.18-.453-1.18-1.399v-3.199h-.849v3.404c0 1.243.615 1.945 1.809 1.945zm3.912-.092h.848v-3.258c0-.77.576-1.282 1.385-1.282.185 0 .346.02.522.049v-.824c-.083-.015-.263-.034-.424-.034-.712 0-1.205.321-1.405.872h-.078v-.78h-.848zm6.4 0h.877v-3.204h3.862v3.204h.878v-7.037h-.878v3.043h-3.862v-3.043h-.877zm8.904.092c.771 0 1.302-.317 1.561-.877h.078v.785h.848v-5.257h-.848v3.111c0 .922-.493 1.487-1.419 1.487-.839 0-1.18-.453-1.18-1.399v-3.199h-.849v3.404c0 1.243.615 1.945 1.809 1.945zm6.077 1.76c1.434 0 2.34-.75 2.34-1.926v-5.183h-.848v.868h-.058c-.322-.595-.898-.96-1.639-.96-1.375 0-2.223 1.067-2.223 2.54v.01c0 1.472.843 2.526 2.204 2.526.721 0 1.316-.327 1.648-.907h.078v1.063c0 .775-.561 1.219-1.502 1.219-.756 0-1.224-.283-1.317-.683l-.004-.005h-.878l-.01.005c.132.863.941 1.433 2.209 1.433zm-.039-2.876c-.975 0-1.521-.732-1.521-1.775v-.01c0-1.043.546-1.79 1.521-1.79.97 0 1.56.747 1.56 1.79v.01c0 1.043-.585 1.775-1.56 1.775zm5.96 1.116c1.497 0 2.423-1.034 2.423-2.716v-.009c0-1.688-.926-2.716-2.423-2.716s-2.424 1.028-2.424 2.716v.009c0 1.682.927 2.716 2.424 2.716zm0-.751c-.995 0-1.556-.726-1.556-1.965v-.009c0-1.244.561-1.966 1.556-1.966.994 0 1.555.722 1.555 1.966v.009c0 1.239-.561 1.965-1.555 1.965zm3.575.659h4.554v-.79h-3.335v-.078l1.599-1.653c1.273-1.312 1.619-1.897 1.619-2.702v-.009c0-1.137-.941-1.97-2.17-1.97-1.346 0-2.311.897-2.316 2.145l.01.005.838.005.005-.01c0-.829.561-1.38 1.405-1.38.829 0 1.331.556 1.331 1.297v.01c0 .614-.264.98-1.161 1.95l-2.379 2.575zm8.168-7.202c-1.419 0-2.462 1.019-2.462 2.423v.01c0 1.35.985 2.355 2.306 2.355.951 0 1.614-.512 1.873-1.087h.092c0 .053 0 .112-.005.165-.053 1.468-.575 2.716-1.852 2.716-.712 0-1.205-.365-1.419-.955l-.02-.054h-.882l.014.063c.239 1.039 1.117 1.731 2.297 1.731 1.706 0 2.706-1.404 2.706-3.803v-.01c0-2.647-1.36-3.554-2.648-3.554zm-.005 4.022c-.911 0-1.575-.672-1.575-1.609v-.009c0-.912.707-1.629 1.59-1.629.892 0 1.59.731 1.59 1.658v.005c0 .916-.693 1.584-1.605 1.584zm3.303 4.969h.629l.765-2.774h-.97zm7.155-1.789h.858l1.946-5.257h-.898l-1.438 4.33h-.078l-1.438-4.33h-.898zm5.73.092c1.497 0 2.424-1.034 2.424-2.716v-.009c0-1.688-.927-2.716-2.424-2.716s-2.423 1.028-2.423 2.716v.009c0 1.682.926 2.716 2.423 2.716zm0-.751c-.994 0-1.555-.726-1.555-1.965v-.009c0-1.244.561-1.966 1.555-1.966.995 0 1.556.722 1.556 1.966v.009c0 1.239-.561 1.965-1.556 1.965zm5.448.698c.166 0 .327-.02.493-.049v-.722c-.157.015-.239.02-.391.02-.546 0-.76-.249-.76-.868v-2.975h1.151v-.702h-1.151v-1.36h-.878v1.36h-.829v.702h.829v3.189c0 1.005.454 1.405 1.536 1.405zm1.6-.039h.849v-3.258c0-.77.575-1.282 1.385-1.282.185 0 .346.02.521.049v-.824c-.082-.015-.263-.034-.424-.034-.712 0-1.204.321-1.404.872h-.078v-.78h-.849zm5.643.092c1.239 0 1.99-.702 2.17-1.414l.01-.039h-.849l-.019.044c-.142.317-.58.653-1.292.653-.937 0-1.536-.633-1.561-1.721h3.784v-.331c0-1.57-.868-2.633-2.296-2.633-1.429 0-2.356 1.111-2.356 2.735v.005c0 1.648.907 2.701 2.409 2.701zm-.058-4.686c.775 0 1.35.493 1.438 1.531h-2.906c.093-.999.688-1.531 1.468-1.531zm6.458 4.594h.848v-4.555h1.195v-.702h-1.195v-.561c0-.575.244-.872.849-.872.151 0 .292.005.395.024v-.678c-.176-.034-.361-.048-.566-.048-1 0-1.526.502-1.526 1.55v.585h-.873v.702h.873zm3.556-6.271c.321 0 .585-.263.585-.585s-.264-.585-.585-.585c-.322 0-.586.263-.586.585s.264.585.586.585zm-.43 6.271h.849v-5.257h-.849zm4.439.092c1.263 0 1.97-.678 2.184-1.628l.01-.054-.839.005-.009.029c-.196.585-.644.897-1.351.897-.936 0-1.541-.775-1.541-1.984v-.01c0-1.185.595-1.946 1.541-1.946.756 0 1.224.42 1.355.937l.005.014h.844l-.005-.029c-.156-.936-.922-1.672-2.199-1.672-1.473 0-2.409 1.063-2.409 2.696v.01c0 1.667.941 2.735 2.414 2.735zm3.326-.092h.849v-3.111c0-.922.531-1.488 1.37-1.488s1.229.454 1.229 1.4v3.199h.848v-3.404c0-1.248-.658-1.945-1.838-1.945-.775 0-1.268.326-1.531.882h-.078v-2.877h-.849zm7.818.092c1.238 0 1.989-.702 2.169-1.414l.01-.039h-.848l-.02.044c-.141.317-.58.653-1.292.653-.936 0-1.536-.633-1.56-1.721h3.784v-.331c0-1.57-.868-2.633-2.297-2.633s-2.355 1.111-2.355 2.735v.005c0 1.648.907 2.701 2.409 2.701zm-.059-4.686c.775 0 1.351.493 1.439 1.531h-2.907c.093-.999.688-1.531 1.468-1.531zm6.107 4.594h.849v-3.111c0-.922.531-1.488 1.37-1.488.838 0 1.229.454 1.229 1.4v3.199h.848v-3.404c0-1.248-.658-1.945-1.838-1.945-.776 0-1.268.326-1.531.882h-.078v-.79h-.849zm6.013-4.262h.703l.102-2.775h-.907zm3.907 4.354c.707 0 1.258-.307 1.59-.868h.078v.776h.848v-3.599c0-1.092-.716-1.75-1.999-1.75-1.121 0-1.921.555-2.058 1.379l-.004.03h.848l.005-.015c.136-.409.551-.644 1.18-.644.785 0 1.18.352 1.18 1v.478l-1.507.093c-1.224.073-1.916.614-1.916 1.55v.01c0 .956.756 1.56 1.755 1.56zm-.887-1.58v-.009c0-.522.351-.805 1.151-.854l1.404-.087v.477c0 .751-.629 1.317-1.492 1.317-.61 0-1.063-.312-1.063-.844zm7.443 3.243h.848v-2.584h.078c.288.56.917.921 1.639.921 1.336 0 2.204-1.068 2.204-2.716v-.009c0-1.639-.873-2.716-2.204-2.716-.732 0-1.317.346-1.639.931h-.078v-.839h-.848zm2.37-2.414c-.956 0-1.541-.751-1.541-1.965v-.009c0-1.215.585-1.966 1.541-1.966.96 0 1.531.742 1.531 1.966v.009c0 1.224-.571 1.965-1.531 1.965zm5.008.751c.707 0 1.258-.307 1.59-.868h.078v.776h.848v-3.599c0-1.092-.716-1.75-1.999-1.75-1.121 0-1.921.555-2.057 1.379l-.005.03h.848l.005-.015c.137-.409.551-.644 1.18-.644.785 0 1.18.352 1.18 1v.478l-1.507.093c-1.224.073-1.916.614-1.916 1.55v.01c0 .956.756 1.56 1.755 1.56zm-.887-1.58v-.009c0-.522.351-.805 1.151-.854l1.404-.087v.477c0 .751-.629 1.317-1.492 1.317-.61 0-1.063-.312-1.063-.844zm6.598 1.58c1.195 0 2.107-.648 2.107-1.584v-.01c0-.751-.478-1.18-1.468-1.419l-.809-.195c-.62-.151-.883-.376-.883-.732v-.009c0-.464.458-.785 1.083-.785.634 0 1.043.287 1.155.702h.834c-.117-.858-.883-1.409-1.984-1.409-1.117 0-1.956.658-1.956 1.531v.005c0 .755.444 1.184 1.429 1.418l.814.195c.649.157.917.405.917.761v.01c0 .478-.502.814-1.209.814-.673 0-1.093-.287-1.234-.726h-.868c.098.868.902 1.433 2.072 1.433zm8.341-6.08 1.126-1.658h-1.004l-.864 1.658zm-.283 6.08c1.238 0 1.989-.702 2.17-1.414l.009-.039h-.848l-.02.044c-.141.317-.58.653-1.292.653-.936 0-1.536-.633-1.56-1.721h3.784v-.331c0-1.57-.868-2.633-2.297-2.633s-2.355 1.111-2.355 2.735v.005c0 1.648.907 2.701 2.409 2.701zm-.059-4.686c.776 0 1.351.493 1.439 1.531h-2.906c.092-.999.687-1.531 1.467-1.531zm5.326 4.633c.166 0 .327-.02.492-.049v-.722c-.156.015-.238.02-.39.02-.546 0-.76-.249-.76-.868v-2.975h1.15v-.702h-1.15v-1.36h-.878v1.36h-.829v.702h.829v3.189c0 1.005.454 1.405 1.536 1.405zm3.951-6.027 1.126-1.658h-1.004l-.863 1.658zm-.283 6.08c1.238 0 1.989-.702 2.17-1.414l.009-.039h-.848l-.019.044c-.142.317-.581.653-1.293.653-.936 0-1.536-.633-1.56-1.721h3.784v-.331c0-1.57-.868-2.633-2.297-2.633-1.428 0-2.355 1.111-2.355 2.735v.005c0 1.648.907 2.701 2.409 2.701zm-.059-4.686c.776 0 1.351.493 1.439 1.531h-2.906c.092-.999.687-1.531 1.467-1.531zm-177.11 18.594h.848v-3.258c0-.741.522-1.341 1.21-1.341.663 0 1.092.405 1.092 1.029v3.57h.848v-3.38c0-.668.483-1.219 1.214-1.219.742 0 1.097.386 1.097 1.161v3.438h.849v-3.633c0-1.102-.6-1.716-1.673-1.716-.726 0-1.326.365-1.609.921h-.078c-.243-.546-.741-.921-1.453-.921-.687 0-1.185.326-1.419.892h-.078v-.8h-.848zm10.689.092c1.497 0 2.424-1.034 2.424-2.716v-.009c0-1.688-.927-2.716-2.424-2.716s-2.423 1.028-2.423 2.716v.009c0 1.682.926 2.716 2.423 2.716zm0-.751c-.994 0-1.555-.726-1.555-1.965v-.009c0-1.244.561-1.966 1.555-1.966.995 0 1.556.722 1.556 1.966v.009c0 1.239-.561 1.965-1.556 1.965zm5.521.751c.731 0 1.317-.346 1.638-.931h.078v.839h.849v-7.344h-.849v2.916h-.078c-.287-.561-.916-.921-1.638-.921-1.336 0-2.204 1.067-2.204 2.716v.009c0 1.639.873 2.716 2.204 2.716zm.195-.751c-.96 0-1.531-.741-1.531-1.965v-.009c0-1.224.571-1.966 1.531-1.966.956 0 1.541.751 1.541 1.966v.009c0 1.214-.585 1.965-1.541 1.965zm4.287-5.612c.322 0 .585-.263.585-.585s-.263-.585-.585-.585-.585.263-.585.585.263.585.585.585zm-.429 6.271h.849v-5.257h-.849zm2.639 0h.849v-4.555h1.194v-.702h-1.194v-.561c0-.575.243-.872.848-.872.151 0 .293.005.395.024v-.678c-.176-.034-.361-.048-.566-.048-.999 0-1.526.502-1.526 1.55v.585h-.873v.702h.873zm3.556-6.271c.322 0 .585-.263.585-.585s-.263-.585-.585-.585-.585.263-.585.585.263.585.585.585zm-.429 6.271h.848v-5.257h-.848zm4.716-5.988 1.126-1.658h-1.004l-.863 1.658zm-.283 6.08c1.239 0 1.99-.702 2.17-1.414l.01-.039h-.849l-.019.044c-.141.317-.58.653-1.292.653-.936 0-1.536-.633-1.561-1.721h3.784v-.331c0-1.57-.868-2.633-2.296-2.633-1.429 0-2.355 1.111-2.355 2.735v.005c0 1.648.906 2.701 2.408 2.701zm-.058-4.686c.775 0 1.35.493 1.438 1.531h-2.906c.093-.999.688-1.531 1.468-1.531zm5.603 4.686c1.239 0 1.99-.702 2.17-1.414l.01-.039h-.848l-.02.044c-.141.317-.58.653-1.292.653-.936 0-1.536-.633-1.56-1.721h3.783v-.331c0-1.57-.868-2.633-2.296-2.633-1.429 0-2.355 1.111-2.355 2.735v.005c0 1.648.907 2.701 2.408 2.701zm-.058-4.686c.775 0 1.351.493 1.438 1.531h-2.906c.093-.999.688-1.531 1.468-1.531zm8.048 4.686c.731 0 1.316-.346 1.638-.931h.078v.839h.848v-7.344h-.848v2.916h-.078c-.288-.561-.917-.921-1.638-.921-1.336 0-2.204 1.067-2.204 2.716v.009c0 1.639.872 2.716 2.204 2.716zm.195-.751c-.961 0-1.531-.741-1.531-1.965v-.009c0-1.224.57-1.966 1.531-1.966.955 0 1.54.751 1.54 1.966v.009c0 1.214-.585 1.965-1.54 1.965zm5.984.751c1.238 0 1.989-.702 2.169-1.414l.01-.039h-.848l-.02.044c-.141.317-.58.653-1.292.653-.936 0-1.536-.633-1.56-1.721h3.784v-.331c0-1.57-.868-2.633-2.297-2.633s-2.355 1.111-2.355 2.735v.005c0 1.648.907 2.701 2.409 2.701zm-.059-4.686c.775 0 1.351.493 1.439 1.531h-2.907c.093-.999.688-1.531 1.468-1.531zm3.458 6.349h.849v-2.584h.078c.287.56.916.921 1.638.921 1.336 0 2.204-1.068 2.204-2.716v-.009c0-1.639-.873-2.716-2.204-2.716-.731 0-1.316.346-1.638.931h-.078v-.839h-.849zm2.37-2.414c-.956 0-1.541-.751-1.541-1.965v-.009c0-1.215.585-1.966 1.541-1.966.961 0 1.531.742 1.531 1.966v.009c0 1.224-.57 1.965-1.531 1.965zm5.326.751c.77 0 1.302-.317 1.56-.877h.078v.785h.849v-5.257h-.849v3.111c0 .922-.492 1.487-1.419 1.487-.838 0-1.18-.453-1.18-1.399v-3.199h-.848v3.404c0 1.243.614 1.945 1.809 1.945zm4.36-6.363c.322 0 .585-.263.585-.585s-.263-.585-.585-.585-.585.263-.585.585.263.585.585.585zm-.429 6.271h.848v-5.257h-.848zm4.092.092c1.195 0 2.107-.648 2.107-1.584v-.01c0-.751-.478-1.18-1.468-1.419l-.81-.195c-.619-.151-.882-.376-.882-.732v-.009c0-.464.458-.785 1.082-.785.634 0 1.044.287 1.156.702h.834c-.117-.858-.883-1.409-1.985-1.409-1.116 0-1.955.658-1.955 1.531v.005c0 .755.444 1.184 1.429 1.418l.814.195c.648.157.917.405.917.761v.01c0 .478-.503.814-1.21.814-.673 0-1.092-.287-1.233-.726h-.868c.097.868.902 1.433 2.072 1.433zm5.912 1.663h.849v-2.584h.078c.287.56.916.921 1.638.921 1.336 0 2.204-1.068 2.204-2.716v-.009c0-1.639-.873-2.716-2.204-2.716-.731 0-1.317.346-1.638.931h-.078v-.839h-.849zm2.37-2.414c-.956 0-1.541-.751-1.541-1.965v-.009c0-1.215.585-1.966 1.541-1.966.96 0 1.531.742 1.531 1.966v.009c0 1.224-.571 1.965-1.531 1.965zm3.614.659h.849v-7.344h-.849zm4.078.092c.77 0 1.301-.317 1.56-.877h.078v.785h.848v-5.257h-.848v3.111c0 .922-.493 1.487-1.419 1.487-.839 0-1.18-.453-1.18-1.399v-3.199h-.848v3.404c0 1.243.614 1.945 1.809 1.945zm5.715 0c1.195 0 2.107-.648 2.107-1.584v-.01c0-.751-.478-1.18-1.468-1.419l-.809-.195c-.62-.151-.883-.376-.883-.732v-.009c0-.464.459-.785 1.083-.785.634 0 1.043.287 1.155.702h.834c-.117-.858-.882-1.409-1.984-1.409-1.117 0-1.956.658-1.956 1.531v.005c0 .755.444 1.184 1.429 1.418l.814.195c.649.157.917.405.917.761v.01c0 .478-.502.814-1.209.814-.673 0-1.093-.287-1.234-.726h-.868c.098.868.902 1.433 2.072 1.433zm7.853 0c.731 0 1.317-.346 1.638-.931h.078v.839h.849v-7.344h-.849v2.916h-.078c-.287-.561-.916-.921-1.638-.921-1.336 0-2.204 1.067-2.204 2.716v.009c0 1.639.873 2.716 2.204 2.716zm.195-.751c-.96 0-1.531-.741-1.531-1.965v-.009c0-1.224.571-1.966 1.531-1.966.956 0 1.541.751 1.541 1.966v.009c0 1.214-.585 1.965-1.541 1.965zm5.984.751c1.239 0 1.99-.702 2.17-1.414l.01-.039h-.849l-.019.044c-.142.317-.581.653-1.292.653-.937 0-1.536-.633-1.561-1.721h3.784v-.331c0-1.57-.868-2.633-2.297-2.633-1.428 0-2.355 1.111-2.355 2.735v.005c0 1.648.907 2.701 2.409 2.701zm-.058-4.686c.775 0 1.35.493 1.438 1.531h-2.906c.093-.999.687-1.531 1.468-1.531zm8.403-2.608c-1.419 0-2.462 1.019-2.462 2.423v.01c0 1.35.985 2.355 2.306 2.355.951 0 1.614-.512 1.873-1.087h.092c0 .053 0 .112-.005.165-.053 1.468-.575 2.716-1.853 2.716-.711 0-1.204-.365-1.418-.955l-.02-.054h-.883l.015.063c.239 1.039 1.117 1.731 2.297 1.731 1.706 0 2.706-1.404 2.706-3.803v-.01c0-2.647-1.361-3.554-2.648-3.554zm-.005 4.022c-.911 0-1.575-.672-1.575-1.609v-.009c0-.912.707-1.629 1.59-1.629.892 0 1.59.731 1.59 1.658v.005c0 .916-.693 1.584-1.605 1.584zm6.257 3.345c1.556 0 2.492-1.419 2.492-3.681v-.01c0-2.262-.936-3.676-2.492-3.676-1.555 0-2.482 1.414-2.482 3.676v.01c0 2.262.927 3.681 2.482 3.681zm0-.765c-1.009 0-1.599-1.122-1.599-2.916v-.01c0-1.794.59-2.906 1.599-2.906 1.01 0 1.609 1.112 1.609 2.906v.01c0 1.794-.599 2.916-1.609 2.916zm6.868-5.671c.322 0 .585-.263.585-.585s-.263-.585-.585-.585-.585.263-.585.585.263.585.585.585zm-1.19 8.075c1.102 0 1.614-.464 1.614-1.546v-5.515h-.848v5.53c0 .58-.215.78-.785.78h-.127v.751zm5.219-1.712c1.497 0 2.423-1.034 2.423-2.716v-.009c0-1.688-.926-2.716-2.423-2.716s-2.424 1.028-2.424 2.716v.009c0 1.682.927 2.716 2.424 2.716zm0-.751c-.995 0-1.556-.726-1.556-1.965v-.009c0-1.244.561-1.966 1.556-1.966.994 0 1.555.722 1.555 1.966v.009c0 1.239-.561 1.965-1.555 1.965zm5.34.751c.771 0 1.302-.317 1.56-.877h.078v.785h.849v-5.257h-.849v3.111c0 .922-.492 1.487-1.418 1.487-.839 0-1.18-.453-1.18-1.399v-3.199h-.849v3.404c0 1.243.615 1.945 1.809 1.945zm3.912-.092h.848v-3.258c0-.77.576-1.282 1.385-1.282.185 0 .346.02.522.049v-.824c-.083-.015-.264-.034-.424-.034-.712 0-1.205.321-1.405.872h-.078v-.78h-.848zm5.35.092c1.195 0 2.106-.648 2.106-1.584v-.01c0-.751-.477-1.18-1.467-1.419l-.81-.195c-.619-.151-.882-.376-.882-.732v-.009c0-.464.458-.785 1.082-.785.634 0 1.044.287 1.156.702h.834c-.117-.858-.883-1.409-1.985-1.409-1.117 0-1.955.658-1.955 1.531v.005c0 .755.444 1.184 1.428 1.418l.815.195c.648.157.916.405.916.761v.01c0 .478-.502.814-1.209.814-.673 0-1.092-.287-1.233-.726h-.868c.097.868.902 1.433 2.072 1.433zm3.956-.044c.351 0 .633-.287.633-.634 0-.351-.282-.633-.633-.633-.347 0-.634.282-.634.633 0 .347.287.634.634.634zm6.901-.048h.868l2.594-7.037h-.921l-2.068 5.9h-.078l-2.067-5.9h-.922zm6.37-5.988 1.126-1.658h-1.005l-.863 1.658zm-.283 6.08c1.238 0 1.989-.702 2.17-1.414l.009-.039h-.848l-.02.044c-.141.317-.58.653-1.292.653-.936 0-1.536-.633-1.56-1.721h3.784v-.331c0-1.57-.868-2.633-2.297-2.633s-2.355 1.111-2.355 2.735v.005c0 1.648.907 2.701 2.409 2.701zm-.059-4.686c.776 0 1.351.493 1.439 1.531h-2.906c.092-.999.687-1.531 1.467-1.531zm3.458 4.594h.849v-3.258c0-.77.575-1.282 1.385-1.282.185 0 .346.02.521.049v-.824c-.082-.015-.263-.034-.424-.034-.712 0-1.204.321-1.404.872h-.078v-.78h-.849zm4.093-6.271c.321 0 .585-.263.585-.585s-.264-.585-.585-.585c-.322 0-.586.263-.586.585s.264.585.586.585zm-.43 6.271h.849v-5.257h-.849zm2.64 0h.848v-4.555h1.195v-.702h-1.195v-.561c0-.575.244-.872.848-.872.152 0 .293.005.395.024v-.678c-.175-.034-.36-.048-.565-.048-1 0-1.526.502-1.526 1.55v.585h-.873v.702h.873zm3.555-6.271c.322 0 .585-.263.585-.585s-.263-.585-.585-.585-.585.263-.585.585.263.585.585.585zm-.429 6.271h.849v-5.257h-.849zm4.434.092c1.238 0 1.989-.702 2.169-1.414l.01-.039h-.848l-.02.044c-.141.317-.58.653-1.292.653-.936 0-1.536-.633-1.56-1.721h3.784v-.331c0-1.57-.868-2.633-2.297-2.633s-2.355 1.111-2.355 2.735v.005c0 1.648.907 2.701 2.409 2.701zm-.059-4.686c.775 0 1.351.493 1.439 1.531h-2.907c.093-.999.688-1.531 1.468-1.531zm3.336 4.594h4.048v-.703h-3.033v-.078l3.018-3.847v-.629h-4.028v.702h3.028v.078l-3.033 3.862zm11.661 1.755h.849v-7.012h-.849v.878h-.058c-.337-.6-.956-.97-1.663-.97-1.341 0-2.209 1.067-2.209 2.716v.009c0 1.639.873 2.716 2.209 2.716.751 0 1.356-.326 1.643-.882h.078zm-1.521-2.414c-.966 0-1.541-.741-1.541-1.965v-.009c0-1.224.575-1.966 1.536-1.966.951 0 1.551.756 1.551 1.966v.009c0 1.205-.6 1.965-1.546 1.965zm5.54.751c.771 0 1.302-.317 1.561-.877h.078v.785h.848v-5.257h-.848v3.111c0 .922-.493 1.487-1.419 1.487-.839 0-1.18-.453-1.18-1.399v-3.199h-.849v3.404c0 1.243.615 1.945 1.809 1.945zm6.057 0c1.239 0 1.99-.702 2.17-1.414l.01-.039h-.849l-.019.044c-.141.317-.58.653-1.292.653-.936 0-1.536-.633-1.56-1.721h3.783v-.331c0-1.57-.868-2.633-2.296-2.633-1.429 0-2.355 1.111-2.355 2.735v.005c0 1.648.907 2.701 2.408 2.701zm-.058-4.686c.775 0 1.35.493 1.438 1.531h-2.906c.093-.999.688-1.531 1.468-1.531zm-204.224 17.594h.848v-7.344h-.848zm4.462.092c1.239 0 1.99-.702 2.17-1.414l.01-.039h-.848l-.02.044c-.141.317-.58.653-1.292.653-.936 0-1.536-.633-1.56-1.721h3.783v-.331c0-1.57-.868-2.633-2.296-2.633-1.429 0-2.355 1.111-2.355 2.735v.005c0 1.648.907 2.701 2.408 2.701zm-.058-4.686c.775 0 1.35.493 1.438 1.531h-2.906c.093-.999.688-1.531 1.468-1.531zm5.262 4.686c1.195 0 2.107-.648 2.107-1.584v-.01c0-.751-.478-1.18-1.468-1.419l-.809-.195c-.62-.151-.883-.376-.883-.732v-.009c0-.464.458-.785 1.082-.785.634 0 1.044.287 1.156.702h.834c-.117-.858-.883-1.409-1.985-1.409-1.116 0-1.955.658-1.955 1.531v.005c0 .755.444 1.184 1.429 1.418l.814.195c.649.157.917.405.917.761v.01c0 .478-.503.814-1.21.814-.672 0-1.092-.287-1.233-.726h-.868c.097.868.902 1.433 2.072 1.433zm6.361-6.363c.322 0 .585-.263.585-.585s-.263-.585-.585-.585-.585.263-.585.585.263.585.585.585zm-.429 6.271h.848v-5.257h-.848zm2.288 0h.848v-3.111c0-.922.532-1.488 1.37-1.488.839 0 1.229.454 1.229 1.4v3.199h.848v-3.404c0-1.248-.658-1.945-1.838-1.945-.775 0-1.268.326-1.531.882h-.078v-.79h-.848zm6.023 0h.848v-4.555h1.195v-.702h-1.195v-.561c0-.575.244-.872.849-.872.151 0 .292.005.394.024v-.678c-.175-.034-.36-.048-.565-.048-1 0-1.526.502-1.526 1.55v.585h-.873v.702h.873zm5.043.092c1.497 0 2.423-1.034 2.423-2.716v-.009c0-1.688-.926-2.716-2.423-2.716s-2.424 1.028-2.424 2.716v.009c0 1.682.927 2.716 2.424 2.716zm0-.751c-.995 0-1.556-.726-1.556-1.965v-.009c0-1.244.561-1.966 1.556-1.966.994 0 1.555.722 1.555 1.966v.009c0 1.239-.561 1.965-1.555 1.965zm3.58.659h.848v-3.258c0-.77.576-1.282 1.385-1.282.185 0 .346.02.522.049v-.824c-.083-.015-.264-.034-.425-.034-.711 0-1.204.321-1.404.872h-.078v-.78h-.848zm3.741 0h.848v-3.258c0-.741.522-1.341 1.209-1.341.664 0 1.093.405 1.093 1.029v3.57h.848v-3.38c0-.668.483-1.219 1.214-1.219.741 0 1.097.386 1.097 1.161v3.438h.849v-3.633c0-1.102-.6-1.716-1.673-1.716-.726 0-1.326.365-1.609.921h-.078c-.244-.546-.741-.921-1.453-.921-.687 0-1.185.326-1.419.892h-.078v-.8h-.848zm9.972.092c.707 0 1.258-.307 1.59-.868h.078v.776h.848v-3.599c0-1.092-.716-1.75-1.999-1.75-1.121 0-1.921.555-2.057 1.379l-.005.03h.848l.005-.015c.136-.409.551-.644 1.18-.644.785 0 1.18.352 1.18 1v.478l-1.507.093c-1.224.073-1.916.614-1.916 1.55v.01c0 .956.756 1.56 1.755 1.56zm-.887-1.58v-.009c0-.522.351-.805 1.151-.854l1.404-.087v.477c0 .751-.629 1.317-1.492 1.317-.61 0-1.063-.312-1.063-.844zm6.662 1.527c.165 0 .326-.02.492-.049v-.722c-.156.015-.239.02-.39.02-.546 0-.761-.249-.761-.868v-2.975h1.151v-.702h-1.151v-1.36h-.877v1.36h-.829v.702h.829v3.189c0 1.005.453 1.405 1.536 1.405zm2.049-6.31c.322 0 .585-.263.585-.585s-.263-.585-.585-.585-.585.263-.585.585.263.585.585.585zm-.429 6.271h.848v-5.257h-.848zm4.448.092c1.497 0 2.423-1.034 2.423-2.716v-.009c0-1.688-.926-2.716-2.423-2.716s-2.424 1.028-2.424 2.716v.009c0 1.682.927 2.716 2.424 2.716zm0-.751c-.995 0-1.556-.726-1.556-1.965v-.009c0-1.244.561-1.966 1.556-1.966.994 0 1.555.722 1.555 1.966v.009c0 1.239-.561 1.965-1.555 1.965zm3.58.659h.848v-3.111c0-.922.532-1.488 1.37-1.488.839 0 1.229.454 1.229 1.4v3.199h.849v-3.404c0-1.248-.659-1.945-1.839-1.945-.775 0-1.267.326-1.531.882h-.078v-.79h-.848zm7.476.092c1.194 0 2.106-.648 2.106-1.584v-.01c0-.751-.478-1.18-1.467-1.419l-.81-.195c-.619-.151-.882-.376-.882-.732v-.009c0-.464.458-.785 1.082-.785.634 0 1.044.287 1.156.702h.834c-.117-.858-.883-1.409-1.985-1.409-1.117 0-1.955.658-1.955 1.531v.005c0 .755.443 1.184 1.428 1.418l.815.195c.648.157.916.405.916.761v.01c0 .478-.502.814-1.209.814-.673 0-1.092-.287-1.234-.726h-.867c.097.868.902 1.433 2.072 1.433zm5.912 1.663h.848v-2.584h.078c.288.56.917.921 1.639.921 1.336 0 2.204-1.068 2.204-2.716v-.009c0-1.639-.873-2.716-2.204-2.716-.732 0-1.317.346-1.639.931h-.078v-.839h-.848zm2.37-2.414c-.956 0-1.541-.751-1.541-1.965v-.009c0-1.215.585-1.966 1.541-1.966.96 0 1.531.742 1.531 1.966v.009c0 1.224-.571 1.965-1.531 1.965zm3.565.659h.849v-3.258c0-.77.575-1.282 1.384-1.282.186 0 .347.02.522.049v-.824c-.083-.015-.263-.034-.424-.034-.712 0-1.205.321-1.404.872h-.078v-.78h-.849zm5.657.092c1.497 0 2.424-1.034 2.424-2.716v-.009c0-1.688-.927-2.716-2.424-2.716s-2.423 1.028-2.423 2.716v.009c0 1.682.926 2.716 2.423 2.716zm0-.751c-.994 0-1.555-.726-1.555-1.965v-.009c0-1.244.561-1.966 1.555-1.966.995 0 1.556.722 1.556 1.966v.009c0 1.239-.561 1.965-1.556 1.965zm3.581 2.414h.848v-2.584h.078c.288.56.917.921 1.638.921 1.336 0 2.204-1.068 2.204-2.716v-.009c0-1.639-.873-2.716-2.204-2.716-.731 0-1.316.346-1.638.931h-.078v-.839h-.848zm2.369-2.414c-.955 0-1.541-.751-1.541-1.965v-.009c0-1.215.586-1.966 1.541-1.966.961 0 1.531.742 1.531 1.966v.009c0 1.224-.57 1.965-1.531 1.965zm5.726.751c1.497 0 2.423-1.034 2.423-2.716v-.009c0-1.688-.926-2.716-2.423-2.716s-2.424 1.028-2.424 2.716v.009c0 1.682.927 2.716 2.424 2.716zm0-.751c-.995 0-1.556-.726-1.556-1.965v-.009c0-1.244.561-1.966 1.556-1.966s1.555.722 1.555 1.966v.009c0 1.239-.56 1.965-1.555 1.965zm5.384.751c1.195 0 2.107-.648 2.107-1.584v-.01c0-.751-.478-1.18-1.468-1.419l-.81-.195c-.619-.151-.882-.376-.882-.732v-.009c0-.464.458-.785 1.082-.785.634 0 1.044.287 1.156.702h.834c-.117-.858-.883-1.409-1.985-1.409-1.116 0-1.955.658-1.955 1.531v.005c0 .755.444 1.184 1.429 1.418l.814.195c.648.157.917.405.917.761v.01c0 .478-.503.814-1.21.814-.673 0-1.092-.287-1.233-.726h-.868c.097.868.902 1.433 2.072 1.433zm5.692-6.08 1.126-1.658h-1.005l-.863 1.658zm-.283 6.08c1.238 0 1.989-.702 2.17-1.414l.009-.039h-.848l-.02.044c-.141.317-.58.653-1.292.653-.936 0-1.536-.633-1.56-1.721h3.784v-.331c0-1.57-.868-2.633-2.297-2.633s-2.355 1.111-2.355 2.735v.005c0 1.648.907 2.701 2.409 2.701zm-.059-4.686c.775 0 1.351.493 1.439 1.531h-2.906c.092-.999.687-1.531 1.467-1.531zm5.604 4.686c1.238 0 1.989-.702 2.17-1.414l.009-.039h-.848l-.019.044c-.142.317-.581.653-1.293.653-.936 0-1.536-.633-1.56-1.721h3.784v-.331c0-1.57-.868-2.633-2.297-2.633-1.428 0-2.355 1.111-2.355 2.735v.005c0 1.648.907 2.701 2.409 2.701zm-.059-4.686c.776 0 1.351.493 1.439 1.531h-2.906c.092-.999.687-1.531 1.467-1.531zm5.263 4.686c1.194 0 2.106-.648 2.106-1.584v-.01c0-.751-.478-1.18-1.468-1.419l-.809-.195c-.619-.151-.883-.376-.883-.732v-.009c0-.464.459-.785 1.083-.785.634 0 1.043.287 1.156.702h.833c-.117-.858-.882-1.409-1.984-1.409-1.117 0-1.955.658-1.955 1.531v.005c0 .755.443 1.184 1.428 1.418l.815.195c.648.157.916.405.916.761v.01c0 .478-.502.814-1.209.814-.673 0-1.092-.287-1.234-.726h-.868c.098.868.902 1.433 2.073 1.433zm7.716 0c1.194 0 2.106-.648 2.106-1.584v-.01c0-.751-.478-1.18-1.467-1.419l-.81-.195c-.619-.151-.882-.376-.882-.732v-.009c0-.464.458-.785 1.082-.785.634 0 1.044.287 1.156.702h.833c-.117-.858-.882-1.409-1.984-1.409-1.117 0-1.955.658-1.955 1.531v.005c0 .755.443 1.184 1.428 1.418l.815.195c.648.157.916.405.916.761v.01c0 .478-.502.814-1.209.814-.673 0-1.092-.287-1.234-.726h-.867c.097.868.902 1.433 2.072 1.433zm5.423 0c1.497 0 2.423-1.034 2.423-2.716v-.009c0-1.688-.926-2.716-2.423-2.716s-2.423 1.028-2.423 2.716v.009c0 1.682.926 2.716 2.423 2.716zm0-.751c-.995 0-1.555-.726-1.555-1.965v-.009c0-1.244.56-1.966 1.555-1.966s1.556.722 1.556 1.966v.009c0 1.239-.561 1.965-1.556 1.965zm3.58.659h.849v-3.111c0-.922.531-1.488 1.37-1.488.838 0 1.229.454 1.229 1.4v3.199h.848v-3.404c0-1.248-.658-1.945-1.838-1.945-.776 0-1.268.326-1.531.882h-.078v-.79h-.849zm7.54.039c.165 0 .326-.02.492-.049v-.722c-.156.015-.239.02-.39.02-.546 0-.761-.249-.761-.868v-2.975h1.151v-.702h-1.151v-1.36h-.877v1.36h-.829v.702h.829v3.189c0 1.005.453 1.405 1.536 1.405zm6.116 0c.166 0 .327-.02.493-.049v-.722c-.156.015-.239.02-.39.02-.546 0-.761-.249-.761-.868v-2.975h1.151v-.702h-1.151v-1.36h-.878v1.36h-.828v.702h.828v3.189c0 1.005.454 1.405 1.536 1.405zm3.683.053c1.497 0 2.423-1.034 2.423-2.716v-.009c0-1.688-.926-2.716-2.423-2.716s-2.423 1.028-2.423 2.716v.009c0 1.682.926 2.716 2.423 2.716zm0-.751c-.995 0-1.556-.726-1.556-1.965v-.009c0-1.244.561-1.966 1.556-1.966s1.555.722 1.555 1.966v.009c0 1.239-.56 1.965-1.555 1.965zm5.34.751c.771 0 1.302-.317 1.561-.877h.078v.785h.848v-5.257h-.848v3.111c0 .922-.493 1.487-1.419 1.487-.839 0-1.18-.453-1.18-1.399v-3.199h-.849v3.404c0 1.243.615 1.945 1.809 1.945zm4.351-6.363c.322 0 .585-.263.585-.585s-.263-.585-.585-.585-.585.263-.585.585.263.585.585.585zm-1.19 8.075c1.102 0 1.614-.464 1.614-1.546v-5.515h-.848v5.53c0 .58-.215.78-.785.78h-.127v.751zm5.219-1.712c1.496 0 2.423-1.034 2.423-2.716v-.009c0-1.688-.927-2.716-2.423-2.716-1.497 0-2.424 1.028-2.424 2.716v.009c0 1.682.927 2.716 2.424 2.716zm0-.751c-.995 0-1.556-.726-1.556-1.965v-.009c0-1.244.561-1.966 1.556-1.966.994 0 1.555.722 1.555 1.966v.009c0 1.239-.561 1.965-1.555 1.965zm5.34.751c.77 0 1.302-.317 1.56-.877h.078v.785h.849v-5.257h-.849v3.111c0 .922-.492 1.487-1.419 1.487-.838 0-1.18-.453-1.18-1.399v-3.199h-.848v3.404c0 1.243.614 1.945 1.809 1.945zm3.912-.092h.848v-3.258c0-.77.575-1.282 1.385-1.282.185 0 .346.02.522.049v-.824c-.083-.015-.264-.034-.425-.034-.712 0-1.204.321-1.404.872h-.078v-.78h-.848zm5.35.092c1.194 0 2.106-.648 2.106-1.584v-.01c0-.751-.478-1.18-1.468-1.419l-.809-.195c-.619-.151-.882-.376-.882-.732v-.009c0-.464.458-.785 1.082-.785.634 0 1.043.287 1.156.702h.833c-.117-.858-.882-1.409-1.984-1.409-1.117 0-1.955.658-1.955 1.531v.005c0 .755.443 1.184 1.428 1.418l.815.195c.648.157.916.405.916.761v.01c0 .478-.502.814-1.209.814-.673 0-1.092-.287-1.234-.726h-.868c.098.868.902 1.433 2.073 1.433zm-182.295 14.663h.848v-2.584h.078c.288.56.917.921 1.639.921 1.336 0 2.204-1.068 2.204-2.716v-.009c0-1.639-.873-2.716-2.204-2.716-.732 0-1.317.346-1.639.931h-.078v-.839h-.848zm2.37-2.414c-.956 0-1.541-.751-1.541-1.965v-.009c0-1.215.585-1.966 1.541-1.966.96 0 1.531.742 1.531 1.966v.009c0 1.224-.571 1.965-1.531 1.965zm5.711.751c1.238 0 1.989-.702 2.169-1.414l.01-.039h-.848l-.02.044c-.141.317-.58.653-1.292.653-.936 0-1.536-.633-1.56-1.721h3.784v-.331c0-1.57-.868-2.633-2.297-2.633s-2.355 1.111-2.355 2.735v.005c0 1.648.907 2.701 2.409 2.701zm-.059-4.686c.775 0 1.351.493 1.439 1.531h-2.907c.093-.999.688-1.531 1.468-1.531zm3.458 4.594h.849v-3.258c0-.77.575-1.282 1.385-1.282.185 0 .346.02.521.049v-.824c-.083-.015-.263-.034-.424-.034-.712 0-1.204.321-1.404.872h-.078v-.78h-.849zm5.609.039c.166 0 .327-.02.492-.049v-.722c-.156.015-.239.02-.39.02-.546 0-.76-.249-.76-.868v-2.975h1.15v-.702h-1.15v-1.36h-.878v1.36h-.829v.702h.829v3.189c0 1.005.453 1.405 1.536 1.405zm2.049-6.31c.322 0 .585-.263.585-.585s-.263-.585-.585-.585-.585.263-.585.585.263.585.585.585zm-.429 6.271h.848v-5.257h-.848zm2.288 0h.848v-3.111c0-.922.532-1.488 1.37-1.488.839 0 1.229.454 1.229 1.4v3.199h.849v-3.404c0-1.248-.659-1.945-1.839-1.945-.775 0-1.267.326-1.531.882h-.078v-.79h-.848zm7.817.092c1.239 0 1.99-.702 2.17-1.414l.01-.039h-.849l-.019.044c-.142.317-.58.653-1.292.653-.937 0-1.536-.633-1.561-1.721h3.784v-.331c0-1.57-.868-2.633-2.296-2.633-1.429 0-2.356 1.111-2.356 2.735v.005c0 1.648.907 2.701 2.409 2.701zm-.058-4.686c.775 0 1.35.493 1.438 1.531h-2.906c.093-.999.688-1.531 1.468-1.531zm3.458 4.594h.848v-3.111c0-.922.532-1.488 1.37-1.488.839 0 1.229.454 1.229 1.4v3.199h.849v-3.404c0-1.248-.659-1.945-1.839-1.945-.775 0-1.267.326-1.531.882h-.078v-.79h-.848zm7.539.039c.166 0 .327-.02.493-.049v-.722c-.156.015-.239.02-.39.02-.546 0-.761-.249-.761-.868v-2.975h1.151v-.702h-1.151v-1.36h-.878v1.36h-.829v.702h.829v3.189c0 1.005.454 1.405 1.536 1.405zm3.668.053c1.239 0 1.99-.702 2.17-1.414l.01-.039h-.849l-.019.044c-.142.317-.58.653-1.292.653-.936 0-1.536-.633-1.561-1.721h3.784v-.331c0-1.57-.868-2.633-2.296-2.633-1.429 0-2.356 1.111-2.356 2.735v.005c0 1.648.907 2.701 2.409 2.701zm-.058-4.686c.775 0 1.35.493 1.438 1.531h-2.906c.093-.999.688-1.531 1.468-1.531zm5.262 4.686c1.195 0 2.107-.648 2.107-1.584v-.01c0-.751-.478-1.18-1.468-1.419l-.81-.195c-.619-.151-.882-.376-.882-.732v-.009c0-.464.458-.785 1.082-.785.634 0 1.044.287 1.156.702h.834c-.117-.858-.883-1.409-1.985-1.409-1.116 0-1.955.658-1.955 1.531v.005c0 .755.444 1.184 1.429 1.418l.814.195c.648.157.917.405.917.761v.01c0 .478-.503.814-1.21.814-.673 0-1.092-.287-1.233-.726h-.868c.097.868.902 1.433 2.072 1.433zm6.268-2.433h.809l.083-4.7h-.975zm.41 2.428c.395 0 .672-.282.672-.677 0-.4-.277-.683-.672-.683s-.678.283-.678.683c0 .395.283.677.678.677z" fill="#5e5e5e"/></g><rect height="128" rx="8" shape-rendering="crispEdges" stroke="#fff" stroke-width="6" width="336" x="109.5" y="80.9556"/></g></svg>