<svg height="20" viewBox="0 0 20 20" width="20" xmlns="http://www.w3.org/2000/svg"><g fill="none" fill-rule="evenodd" transform="translate(2 1)"><path d="m4 0h-2c-1.10456727 0-2 .73262678-2 1.63636364v14.72727276c0 .9037487.89543273 1.6363636 2 1.6363636h2c1.10456727 0 2-.7326149 2-1.6363636v-14.72727276c0-.90373686-.89543273-1.63636364-2-1.63636364z" fill="#fff" fill-rule="nonzero"/><path d="m14 0h-2c-1.1045818 0-2 .73262678-2 1.63636364v14.72727276c0 .9037487.8954182 1.6363636 2 1.6363636h2c1.1045818 0 2-.7326149 2-1.6363636v-14.72727276c0-.90373686-.8954182-1.63636364-2-1.63636364z" fill="#fff" fill-rule="nonzero"/><g stroke="#fff" stroke-linecap="round" stroke-linejoin="round"><path d="m4 0h-2c-1.10456727 0-2 .73262678-2 1.63636364v14.72727276c0 .9037487.89543273 1.6363636 2 1.6363636h2c1.10456727 0 2-.7326149 2-1.6363636v-14.72727276c0-.90373686-.89543273-1.63636364-2-1.63636364z"/><path d="m14 0h-2c-1.1045818 0-2 .73262678-2 1.63636364v14.72727276c0 .9037487.8954182 1.6363636 2 1.6363636h2c1.1045818 0 2-.7326149 2-1.6363636v-14.72727276c0-.90373686-.8954182-1.63636364-2-1.63636364z"/></g></g></svg>