<svg fill="none" height="228" viewBox="0 0 278 228" width="278" xmlns="http://www.w3.org/2000/svg" xmlns:xlink="http://www.w3.org/1999/xlink"><filter id="a" color-interpolation-filters="sRGB" filterUnits="userSpaceOnUse" height="66" width="78" x=".5" y="84"><feFlood flood-opacity="0" result="BackgroundImageFix"/><feColorMatrix in="SourceAlpha" result="hardAlpha" type="matrix" values="0 0 0 0 0 0 0 0 0 0 0 0 0 0 0 0 0 0 127 0"/><feOffset dx="1" dy="1"/><feGaussianBlur stdDeviation="4.5"/><feColorMatrix type="matrix" values="0 0 0 0 0.129412 0 0 0 0 0.129412 0 0 0 0 0.129412 0 0 0 0.24 0"/><feBlend in2="BackgroundImageFix" mode="normal" result="effect1_dropShadow_18530_335688"/><feBlend in="SourceGraphic" in2="effect1_dropShadow_18530_335688" mode="normal" result="shape"/></filter><filter id="b" color-interpolation-filters="sRGB" filterUnits="userSpaceOnUse" height="66" width="75" x="202.5" y="84"><feFlood flood-opacity="0" result="BackgroundImageFix"/><feColorMatrix in="SourceAlpha" result="hardAlpha" type="matrix" values="0 0 0 0 0 0 0 0 0 0 0 0 0 0 0 0 0 0 127 0"/><feOffset dx="1" dy="1"/><feGaussianBlur stdDeviation="4.5"/><feColorMatrix type="matrix" values="0 0 0 0 0.129412 0 0 0 0 0.129412 0 0 0 0 0.129412 0 0 0 0.24 0"/><feBlend in2="BackgroundImageFix" mode="normal" result="effect1_dropShadow_18530_335688"/><feBlend in="SourceGraphic" in2="effect1_dropShadow_18530_335688" mode="normal" result="shape"/></filter><path d="m137.5 11.4c0-6.29604 5.117-11.4590668 11.381-10.830511 18.526 1.858761 36.377 8.234751 51.954 18.643011 18.747 12.5265 33.359 30.3308 41.987 51.1616 8.629 20.8308 10.886 43.7519 6.488 65.8659-3.655 18.375-11.769 35.506-23.555 49.92-3.985 4.874-11.254 4.841-15.706.389s-4.386-11.632-.524-16.604c8.661-11.15 14.648-24.204 17.423-38.153 3.519-17.691 1.713-36.0281-5.19-52.6927-6.903-16.6647-18.592-30.9082-33.59-40.9293-11.825-7.9015-25.289-12.8982-39.297-14.6585-6.247-.7849-11.371-5.8155-11.371-12.1115z" fill="#27a8a5"/><path d="m203.985 192.144c4.079 4.796 3.528 12.044-1.651 15.624-11.643 8.051-24.712 13.882-38.551 17.161-17.546 4.157-35.828 4.093-53.344-.187-17.5163-4.281-33.7673-12.655-47.4186-24.436-13.6513-11.78-24.3133-26.631-31.1106-43.333-6.7972-16.701-9.5356-34.777-7.9905-52.742 1.5452-17.9652 7.3299-35.3077 16.8791-50.6033 9.5493-15.2955 22.5906-28.1076 38.0529-37.3842 12.1954-7.31659 25.6227-12.26921 39.5787-14.63716 6.207-1.053209 11.663 3.74982 12.091 10.03126.429 6.2815-4.341 11.6489-10.52 12.8569-10.36 2.0255-20.3186 5.84-29.4199 11.3003-12.3699 7.4213-22.803 17.671-30.4424 29.9074-7.6393 12.2364-12.2671 26.1104-13.5032 40.4828-1.2362 14.372.9546 28.833 6.3924 42.194 5.4377 13.361 13.9674 25.242 24.8884 34.666 10.921 9.425 23.9217 16.124 37.9347 19.548 14.013 3.425 28.639 3.476 42.675.15 10.328-2.447 20.12-6.671 28.95-12.455 5.267-3.45 12.429-2.939 16.509 1.856z" fill="#d64b71"/><g filter="url(#a)"><rect fill="#fff" height="48" rx="8" width="60" x="8.5" y="92"/><path d="m29.85 117.8c.35-.125.775-.25 1.475-.25 1.55 0 2.65.875 2.65 2.4 0 1.35-1.025 2.45-2.75 2.45-1.7 0-2.875-1.2-2.95-2.85l-3.325.65c.2 2.725 2.5 5.175 6.275 5.175 3.925 0 6.225-2.575 6.225-5.375 0-2.975-2.25-4.85-4.7-4.95l4.2-3.5v-2.775h-11.475v2.975h7.1l-4.25 3.65zm12.6225-2.75c-.075-.275-.125-.6-.125-.9 0-1.525.85-2.7 2.575-2.7 1.625 0 2.45 1.05 2.45 2.225 0 1.125-.55 1.975-1.925 2.8l-2.675 1.6c-2.9 1.75-3.8 4.075-3.825 6.925h12v-2.975h-7.775c.25-.625.775-1.075 1.4-1.475l3.125-1.9c2-1.225 3.15-2.925 3.15-5.025 0-2.825-2.225-5.225-5.85-5.225-3.775 0-5.925 2.575-5.925 5.425 0 .4.075.9.125 1.125z" fill="#212121"/></g><g filter="url(#b)"><rect fill="#fff" height="48" rx="8" width="57" x="210.5" y="92"/><path d="m234.6 125v-16.225h-2.975c-.325 1.7-1.975 3.025-4.35 3.05v2.325h3.9v10.85zm3.21-.525c.85.525 2.375.9 3.75.9 5.55 0 8.475-3.45 8.475-9.3 0-5.175-2.95-7.675-6.475-7.675-3.6 0-6.225 2.375-6.225 5.7 0 3.35 2.575 5.45 5.6 5.45 1.7 0 3.075-.725 3.75-1.75-.225 2.975-2.2 4.6-5.15 4.6-1.125 0-2.3-.375-2.875-.7zm8.425-10.475c0 1.6-1.275 2.675-2.8 2.675s-2.775-1.05-2.775-2.675c0-1.6 1.275-2.675 2.775-2.675 1.525 0 2.8 1.075 2.8 2.675z" fill="#212121"/></g></svg>