<svg width="409" height="282" viewBox="0 0 409 282" fill="none" xmlns="http://www.w3.org/2000/svg">
<path d="M311.694 270.414C271.075 287.114 217.095 281.846 195.183 277.124C142.806 272.458 67.4478 239.847 36.9838 216.735C6.51991 193.623 -9.48674 157.376 5.98546 139.943C17.8962 126.523 36.9838 119.068 77.6024 116.458C136.679 112.663 216.561 133.606 247.559 136.215C278.557 138.825 388.655 138.825 402.017 153.736C415.378 168.647 408.43 188.404 388.655 207.042C368.88 225.681 362.467 249.539 311.694 270.414Z" fill="#F9E8E8"/>
<path d="M310.577 123.815L292.967 168.385L281.201 205.942H276.526L294.525 123.815H310.577Z" fill="#F2B3A7"/>
<path d="M314.083 123.815C314.239 139.477 316.966 160.515 317.434 161.45C317.745 162.073 327.797 170.333 347.589 186.229L344.394 189.657C321.018 176.021 308.863 168.307 307.772 166.515C306.135 163.788 300.837 138.697 296.629 123.737H314.083V123.815Z" fill="#F2B3A7"/>
<path d="M348.009 185.139C349.078 185.564 349.827 185.851 350.237 186.218C350.697 186.646 351.358 187.312 352.16 188.267C351.723 188.837 347.34 194.04 339.192 203.725C337.484 203.023 337.002 202.206 337.588 201.206C338.223 200.266 338.739 199.427 339.126 198.797L341.926 188.92C341.995 188.76 342.174 188.61 342.334 188.68L343.842 189.143C344.878 188.681 345.644 188.14 346.072 187.679C346.44 187.269 346.726 186.52 346.973 185.601C347.171 185.231 347.579 184.99 348.009 185.139Z" fill="#9E180A"/>
<path d="M283.071 204.228C283.46 205.319 283.694 206.098 283.694 206.644C283.694 207.267 283.616 208.202 283.383 209.449C282.603 209.449 275.902 209.449 263.201 209.449C262.656 207.734 262.967 206.799 264.136 206.644C265.305 206.488 266.24 206.41 266.941 206.254L276.37 202.046C276.526 201.968 276.759 202.046 276.837 202.202L277.461 203.683C278.474 204.15 279.331 204.384 280.032 204.384C280.577 204.384 281.279 204.15 282.214 203.761C282.447 203.683 282.915 203.838 283.071 204.228Z" fill="#9E180A"/>
<path d="M298.733 202.124L276.604 199.709L293.045 123.815H312.836L298.733 202.124Z" fill="#EF9887"/>
<path d="M342.991 180.774L328.498 197.994C313.226 181.32 304.265 170.411 301.771 165.268C299.278 160.125 296.94 146.334 294.915 123.893H317.278C318.368 143.684 319.148 154.048 319.537 154.983C319.927 155.918 327.641 164.489 342.991 180.774Z" fill="#F2B3A7"/>
<path d="M307.226 78.9328C308.862 76.9848 310.031 74.6472 309.797 71.9979C309.252 64.3617 298.577 65.9981 296.551 69.8941C294.447 73.7901 294.759 83.608 297.408 84.2313C298.499 84.543 300.759 83.8417 303.096 82.4392L301.616 92.7246H310.187L307.226 78.9328Z" fill="#F2B3A7"/>
<path d="M313.615 69.3486C313.927 69.0369 314.083 68.6473 314.161 68.3356C314.317 67.946 314.395 67.5564 314.55 67.1668C314.706 66.3876 314.706 65.4526 314.161 64.8292C313.693 64.3617 312.992 64.128 312.369 64.05C311.979 64.05 311.512 64.05 311.122 64.2059C310.732 64.3617 310.343 64.5955 309.953 64.7513C309.953 63.8942 309.797 62.9592 309.33 62.2579C308.94 61.5566 308.239 61.167 307.46 61.0112C306.681 60.9332 305.901 61.0891 305.2 61.4787C305.044 61.5566 304.81 61.7124 304.655 61.7904C304.499 61.8683 304.343 62.0241 304.187 62.0241C304.031 62.102 303.875 61.9462 303.798 61.7904C303.642 61.6345 303.486 61.4787 303.33 61.4008C302.629 60.8553 301.616 60.6216 300.759 60.9332C300.369 61.0891 299.979 61.3228 299.746 61.7124C299.512 62.0241 299.356 62.4916 299.044 62.7254C298.889 62.8033 298.811 62.7254 298.655 62.5696C298.499 62.4137 298.265 62.2579 298.109 62.18C297.876 62.0241 297.564 61.8683 297.252 61.7904C296.785 61.7124 296.161 61.7124 296.006 62.3358C295.928 62.5696 296.006 62.8033 296.006 63.0371C296.006 63.3488 296.083 63.6604 296.083 63.9721C296.083 64.2059 296.161 64.4396 296.161 64.6734C296.161 64.8292 296.239 65.063 296.239 65.1409C296.161 65.2968 295.85 65.2188 295.772 65.2188C295.538 65.2188 295.226 65.2968 294.993 65.3747C294.837 65.4526 294.603 65.6084 294.525 65.7643C294.447 65.9201 294.525 65.998 294.525 66.1539C294.525 66.3097 294.525 66.3876 294.525 66.5435C294.213 66.3876 292.967 65.998 292.811 66.6214C292.733 66.8552 292.889 67.0889 292.967 67.2448C293.122 67.5564 293.356 67.8681 293.512 68.1019C293.98 68.6473 294.447 69.1148 294.993 69.5824C294.369 69.894 294.135 70.7512 294.759 71.2187C294.993 71.4524 295.304 71.5304 295.616 71.4524C295.694 71.4524 295.928 71.3745 296.006 71.4524C296.083 71.4524 296.083 71.5304 296.161 71.5304C296.629 71.5304 297.096 71.4524 297.564 71.3745C298.343 71.2187 299.044 70.8291 299.668 70.2836C299.824 70.1278 299.979 70.0499 300.135 70.0499C300.291 70.0499 300.525 70.1278 300.681 70.1278C301.148 70.1278 301.616 69.894 302.005 69.7382C302.005 70.3616 302.239 70.9849 302.473 71.5304C302.707 71.9979 303.096 71.9979 303.486 72.0758C304.81 72.2316 306.135 72.0758 307.382 72.0758C306.135 72.3875 304.81 72.4654 303.564 72.855C303.018 73.0108 303.408 73.4004 303.642 73.6342C304.031 74.1017 304.343 74.6472 304.577 75.1926C305.2 74.4134 306.291 73.868 307.226 74.1017C308.317 74.4134 309.018 75.816 308.395 76.9068C308.005 77.5302 307.304 77.764 306.681 77.9977C307.148 78.4652 307.226 79.1665 307.538 79.7899C307.693 80.1016 307.849 80.4132 308.161 80.4912C308.239 80.4912 308.395 80.5691 308.473 80.647C308.551 80.7249 308.629 80.8808 308.784 80.9587C309.33 81.3483 310.265 81.3483 310.732 80.8028C311.2 80.3353 311.044 79.5561 310.654 79.0886C311.278 78.8548 312.369 78.5432 312.135 77.5302C313.46 77.4523 316.654 75.2705 314.862 73.7121C315.797 73.1667 316.732 71.842 316.109 70.6732C315.641 69.8161 314.473 69.4265 313.615 69.3486Z" fill="#EC7D66"/>
<path d="M285.72 123.893L274.421 128.568C271.227 132.308 269.435 133.866 269.045 133.243C268.5 132.308 269.746 131.451 269.435 130.75C269.123 130.048 267.019 130.126 264.993 130.282C262.967 130.438 263.513 129.503 264.058 129.113C266.162 127.867 268.733 126.854 271.85 125.996L283.304 117.581L285.72 123.893ZM331.693 140.801C332.238 141.814 335.978 145.009 338.628 146.801C339.718 147.502 339.251 148.437 338.861 148.671C335.589 150.697 333.485 148.282 330.68 147.035C327.563 145.632 327.875 149.684 325.381 148.593C326.16 146.879 327.875 143.762 327.017 141.736C326.628 140.801 324.134 132.931 319.537 117.971H327.017C329.433 131.763 330.991 139.399 331.693 140.801Z" fill="#F2B3A7"/>
<path d="M305.746 86.5689L302.629 86.0234C291.175 95.9193 286.421 115.01 272.318 125.139L275.746 129.347C300.213 126.308 306.213 103.01 305.746 86.5689Z" fill="#CE310D"/>
<path d="M319.225 125.451C306.836 125.451 297.641 125.451 291.797 125.451C290.551 125.451 290.784 123.659 290.94 122.724C293.044 112.205 301.148 100.828 301.148 85.8677L309.018 84.621C315.719 95.1402 317.978 108.075 319.225 125.451Z" fill="#EF9887"/>
<path d="M319.07 94.9843C320.239 94.6726 321.096 93.8934 321.797 92.6467C324.68 87.426 323.667 84.543 320.55 83.608C317.434 82.6729 314.706 84.6209 309.797 84.6209C309.564 84.6209 309.252 84.6209 309.096 84.6988L306.603 84.8547C299.512 108.932 297.564 124.983 300.759 133.009H322.343C323.589 135.97 324.836 138.464 326.005 140.567H331.849C332.316 122.646 328.109 107.451 319.07 94.9843Z" fill="#FC4E24"/>
<path d="M317.589 120.62C316.888 126.308 315.797 130.438 314.317 133.009H322.342C320.784 129.503 319.226 125.373 317.589 120.62Z" fill="#CE310D"/>
<path d="M295.304 75.5822C295.382 76.9848 293.746 77.9977 293.902 79.4003C294.447 79.5561 295.149 79.5561 295.616 79.712" fill="#F2B3A7"/>
<path d="M296.083 74.8809C296.161 74.6472 296.473 74.4913 296.707 74.4134C296.94 74.3355 297.252 74.3355 297.486 74.4134C297.72 74.4913 297.953 74.5693 298.187 74.7251C298.421 74.8809 298.577 75.0368 298.733 75.2705C298.265 75.0368 297.875 74.8809 297.408 74.803C297.018 74.6472 296.551 74.5693 296.083 74.8809Z" fill="#FC4E24"/>
<path d="M295.849 81.9716C296.161 81.8937 296.473 81.8158 296.784 81.7379C297.096 81.66 297.33 81.5041 297.642 81.3483L297.953 81.1924V81.5041C297.953 81.7379 297.875 81.9716 297.719 82.0496C297.564 82.2054 297.486 82.2833 297.33 82.3612C297.018 82.5171 296.706 82.595 296.395 82.7508C296.629 82.5171 296.94 82.3612 297.174 82.1275C297.408 81.9716 297.642 81.7379 297.564 81.5041L297.875 81.66C297.252 82.1275 296.473 82.1275 295.849 81.9716Z" fill="#FC4E24"/>
<path d="M296.707 76.2835C296.922 76.2835 297.097 76.109 297.097 75.8939C297.097 75.6787 296.922 75.5043 296.707 75.5043C296.492 75.5043 296.317 75.6787 296.317 75.8939C296.317 76.109 296.492 76.2835 296.707 76.2835Z" fill="#FC4E24"/>
<path d="M27.0264 113.951L87.2585 103.977L90.3753 77.3283L90.9987 62.2897L89.2844 31.823L36.6884 33.4593L31.5457 36.8099L28.9744 45.9265L30.6107 61.7443L31.234 76.8607L30.6107 89.1721L29.4419 101.561L27.0264 113.951Z" fill="#EC7D66"/>
<path d="M87.2579 103.977L85.2319 103.509C85.2319 103.431 88.0371 91.7434 88.8163 85.4319C90.3747 73.1205 90.2967 59.2508 88.7383 41.7188V41.4071C88.3487 36.8098 87.8033 31.5892 90.1409 27.2256C91.4655 24.8101 94.1148 22.6284 96.9979 23.4855C100.115 24.4205 101.439 28.5503 102.296 31.2775C102.374 31.5892 102.452 31.9008 102.608 32.1346L100.582 32.8359C100.504 32.6021 100.426 32.2904 100.27 31.9788C99.5692 29.7191 98.4783 26.2127 96.3745 25.5893C94.7382 25.1218 92.946 26.6023 92.011 28.3165C89.9851 32.1346 90.4526 36.7319 90.8422 41.2512V41.5629C92.4785 59.1728 92.4785 73.1984 90.9201 85.6656C90.1409 92.133 87.4137 103.509 87.2579 103.977Z" fill="#F9E8E8"/>
<path d="M34.3506 33.3813L36.5323 32.758L95.1282 23.1738C95.1282 23.1738 100.193 21.6933 102.531 32.1346L42.2984 42.1084C42.2205 42.1084 41.0517 38.2124 40.8179 37.7449C40.1946 36.3423 39.1037 35.0956 37.857 34.1605C36.7661 33.4593 35.5973 33.4593 34.3506 33.3813Z" fill="#F2B3A7"/>
<path d="M102.318 31.3502L42.1084 41.6682L42.2663 42.5897L102.476 32.2717L102.318 31.3502Z" fill="#FC4E24"/>
<path d="M32.1687 184.39C32.0908 184.39 32.0907 184.39 32.0128 184.39C30.9999 184.312 30.2986 183.455 30.3765 182.442L41.2853 49.9004C41.3632 48.8874 42.2203 48.1862 43.2333 48.2641C44.2463 48.342 44.9475 49.1991 44.8696 50.2121L33.9608 182.754C33.8829 183.689 33.1037 184.39 32.1687 184.39Z" fill="#CE310D"/>
<path d="M62.4797 215.325C61.4668 215.325 60.6876 214.545 60.6876 213.532L58.5837 130.703C58.5837 129.69 59.3629 128.833 60.3759 128.833C61.3889 128.833 62.246 129.613 62.246 130.625L64.3498 213.454C64.3498 214.467 63.4927 215.325 62.4797 215.325Z" fill="#CE310D"/>
<path d="M122.556 196.546C121.699 196.546 120.92 195.923 120.764 195.065L107.44 120.73C107.284 119.717 107.907 118.782 108.92 118.626C109.933 118.47 110.868 119.093 111.024 120.106L124.348 194.442C124.504 195.455 123.881 196.39 122.868 196.546C122.712 196.546 122.634 196.546 122.556 196.546Z" fill="#CE310D"/>
<path d="M42.2205 42.1084L55 132L116.634 118.86L102.453 31.823L42.2205 42.1084Z" fill="#F2B3A7"/>
<path d="M42.2203 42.1084C41.519 38.9916 39.9606 34.4722 36.688 33.4593C33.805 32.6022 31.1557 34.8618 29.831 37.1994C27.4934 41.563 27.961 46.7836 28.4285 51.3809V51.6926C30.0648 69.1466 30.0648 83.0943 28.5064 95.4057C27.7272 101.717 25.0779 112.86 25 112.938L26.948 113.951C27.0259 113.483 29.831 102.107 30.6102 95.6394C32.1686 83.1722 32.1686 69.1466 30.5323 51.5367V51.225C30.1427 46.7057 29.6752 42.0305 31.7011 38.2903C32.6362 36.5761 34.4283 35.0956 36.0646 35.5631C40.7398 36.9657 40.8178 46.8615 41.3632 50.9913C42.3762 58.082 43.3891 65.1727 44.4021 72.2634C45.6488 80.9126 46.8955 89.6396 48.1422 98.2887C49.2331 105.769 50.324 113.249 51.337 120.73C51.8045 124.236 52.1162 126.262 52.5837 129.768L52.7395 131.405L55 132C54.6104 129.117 54.4675 126.383 54 123.5C52.987 116.565 52.013 109.435 51 102.5C49.8312 94.0067 48.1688 85.0712 47 76.5C45.9091 68.9417 45.0909 62.0582 44 54.5C43.4546 50.5261 42.9995 46.0823 42.2203 42.1084C42.532 41.9526 42.2203 42.2642 42.2203 42.1084Z" fill="#FC4E24"/>
<path d="M159.412 122.366L145.231 172.313L134.867 209.091H127.309L138.296 122.366H159.412Z" fill="#EC7D66"/>
<path d="M163.23 122.366C163.542 148.08 164.71 162.105 165.022 164.443C165.334 166.78 170.554 181.663 180.684 209.013H172.814C159.957 182.754 152.789 167.871 151.308 164.443C149.828 161.014 145.152 146.989 138.218 122.366H163.23Z" fill="#EF9887"/>
<path d="M181.385 216.104L180.995 207.844H172.736C168.84 210.571 163.697 212.831 157.464 214.545V216.104H172.346L177.411 215.325V216.104H181.385Z" fill="#F2B3A7"/>
<path d="M135.88 216.104L135.49 207.844H127.309C123.413 210.571 118.27 212.831 112.036 214.545V216.104H126.919L131.984 215.325V216.104H135.88Z" fill="#F2B3A7"/>
<path d="M148.893 73.2764C147.101 71.1726 145.854 68.5233 146.088 65.6403C146.711 57.2249 158.399 59.095 160.659 63.3027C162.918 67.5104 162.685 78.2633 159.724 79.0425C158.555 79.3542 156.061 78.575 153.49 77.0945L155.048 88.3929H145.62L148.893 73.2764Z" fill="#EC7D66"/>
<path d="M161.516 65.2507C161.438 64.7052 161.204 64.0819 161.048 63.5364C160.815 62.8352 160.425 62.2897 160.035 61.6664C159.256 60.5755 158.399 59.6404 157.386 58.8612C155.594 57.3808 153.334 56.5236 151.075 56.8353C149.906 56.9912 148.815 57.3808 147.88 58.16C147.023 58.7833 146.244 59.7963 145.153 59.8742C143.984 59.9521 142.893 58.8612 141.88 58.2379C140.789 57.5366 139.62 56.9912 138.374 56.7574C136.27 56.4457 134.244 57.147 132.841 58.8612C131.283 60.7313 130.192 63.3806 131.205 65.874C131.361 66.3416 131.673 66.7312 131.984 67.0428C132.296 67.3545 132.763 67.6662 132.919 68.1337C133.075 68.6012 132.608 69.3025 132.452 69.6921C132.218 70.3155 132.062 71.0168 132.14 71.718C132.218 72.8868 132.997 73.9777 133.699 74.679C134.478 75.4582 135.413 75.8478 136.426 76.0816C137.127 76.2374 137.828 76.3153 138.452 76.2374C138.763 76.2374 139.075 76.0816 139.465 76.0036C139.776 75.9257 139.932 76.0036 140.244 76.1595C141.491 77.0166 142.893 77.3283 144.374 77.1724C145.62 77.0945 147.023 76.7828 148.036 75.9257C149.127 74.9907 149.127 73.666 148.893 72.2635C149.205 72.4193 149.984 72.4972 149.516 71.9518C149.36 71.718 148.971 71.6401 148.737 71.4843C148.425 71.3284 148.192 71.1726 147.958 70.8609C147.101 69.848 147.958 67.9 149.049 67.5104C150.685 67.0428 150.997 69.3025 152.166 69.848C152.789 70.1596 153.49 69.6921 154.036 69.2246C154.659 68.6012 155.127 67.7441 155.516 66.887C155.828 66.1857 156.139 65.4844 156.451 64.7832C156.607 64.4715 157.152 63.5364 156.841 63.1468C158.01 62.9131 159.256 63.3806 160.269 64.004C160.659 64.2377 160.971 64.5494 161.204 65.0169C161.282 65.0948 161.36 65.4065 161.516 65.4065C161.672 65.6403 161.594 65.3286 161.516 65.2507Z" fill="#9E180A"/>
<path d="M161.749 69.6142C161.516 71.1726 163.697 72.1856 163.619 73.8219C162.84 73.8219 162.061 74.2894 161.204 74.2115" fill="#EC7D66"/>
<path d="M159.022 69.4583C159.178 69.3025 159.334 69.1467 159.568 69.0687C159.801 68.9908 160.035 68.9129 160.269 68.9129C160.503 68.9129 160.736 68.9908 160.97 69.1467C161.204 69.3025 161.282 69.5363 161.282 69.77C160.97 69.3804 160.659 69.3804 160.269 69.3804C159.801 69.3025 159.412 69.3804 159.022 69.4583Z" fill="#9E180A"/>
<path d="M161.438 76.0816C160.893 76.2374 160.425 76.3153 159.88 76.1595C159.334 76.0816 158.789 75.7699 158.555 75.3024C158.789 75.3803 159.022 75.5361 159.256 75.6141C159.49 75.692 159.724 75.7699 159.957 75.8478C160.425 75.8478 160.893 75.9257 161.438 76.0816Z" fill="#9E180A"/>
<path d="M160.425 70.9389C160.683 70.9389 160.892 70.7296 160.892 70.4714C160.892 70.2132 160.683 70.0038 160.425 70.0038C160.167 70.0038 159.957 70.2132 159.957 70.4714C159.957 70.7296 160.167 70.9389 160.425 70.9389Z" fill="#9E180A"/>
<path d="M118.894 116.834L108.219 108.652C102.92 107.639 100.427 106.86 100.816 106.159C101.362 105.068 102.842 105.847 103.388 105.146C103.933 104.444 102.609 102.496 101.362 100.626C100.115 98.7562 101.284 98.8342 101.985 99.0679C104.323 100.393 106.738 102.263 109.232 104.756L123.413 110.99L118.894 116.834ZM190.658 136.314C191.437 137.327 196.19 139.898 199.385 141.301C200.71 141.846 200.398 142.937 200.008 143.326C196.97 146.132 194.165 144.028 190.814 143.249C187.23 142.314 188.321 146.677 185.437 145.976C185.905 144.028 187.152 140.288 185.827 138.262C185.204 137.327 180.918 129.379 172.814 114.34L180.84 112.782C186.295 127.041 189.567 134.911 190.658 136.314Z" fill="#EC7D66"/>
<path d="M150.997 82.6269L147.568 82.0814C140.166 89.2501 137.127 106.47 132.218 108.73C127.543 110.912 120.998 108.808 113.128 106.003L110.712 111.379C117.803 119.093 132.997 125.639 139.153 121.899C149.049 115.899 151.308 94.6265 150.997 82.6269Z" fill="#9E180A"/>
<path d="M165.801 125.249C152.165 125.249 142.192 125.249 135.802 125.249C134.4 125.249 134.711 123.301 134.867 122.288C137.127 110.756 146.088 98.2888 146.088 81.9256L154.737 80.601C161.905 92.0552 164.399 106.237 165.801 125.249Z" fill="#F2B3A7"/>
<path d="M168.763 113.561C174.919 124.626 180.061 132.574 184.191 137.405L190.502 136.158C186.451 110.99 174.685 92.4448 155.283 80.523H155.205H151.854C144.062 107.016 141.958 124.704 145.465 133.509H172.503C172.035 127.041 170.633 120.262 168.763 113.561Z" fill="#CE310D"/>
<path d="M265.461 129.096L250.656 180.211L243.644 218.626H236.709L243.644 129.096H265.461Z" fill="#F2B3A7"/>
<path d="M272.162 129.096C271.149 155.666 271.539 170.16 271.773 172.575C272.006 174.991 273.331 191.12 282.292 219.405H275.045C263.202 192.289 258.994 176.082 257.669 172.575C256.345 168.991 252.293 154.498 246.449 129.096H272.162Z" fill="#F2B3A7"/>
<path d="M265.773 129.096C261.877 146.706 255.254 174.757 245.747 213.327H235.54C234.761 173.744 238.033 147.719 243.566 129.096H265.773Z" fill="#9E180A"/>
<path d="M272.24 129.096C271.227 155.666 273.876 181.848 281.98 213.717H271.071C259.149 186.99 250.656 160.965 244.812 129.096H272.24Z" fill="#CE310D"/>
<path d="M283.305 224.704L282.915 218.236C280.578 218.938 277.617 218.626 274.11 217.457C270.292 220.184 265.539 221.976 259.695 222.989C259.227 223.067 258.994 223.457 259.072 223.924V224.002L259.617 225.95H274.11H282.526L283.305 224.704Z" fill="#EF9887"/>
<path d="M245.202 224.704L244.812 218.236C242.475 218.938 239.514 218.626 236.007 217.457C232.189 220.184 227.436 221.976 221.592 222.989C221.125 223.067 220.891 223.457 220.969 223.924V224.002L221.514 225.95H236.007H244.423L245.202 224.704Z" fill="#EF9887"/>
<path d="M260.007 78.0581C261.877 75.8764 263.123 73.1492 262.89 70.1882C262.266 61.5391 250.189 63.4092 247.851 67.7727C245.513 72.1362 245.747 83.2788 248.786 84.058C250.033 84.3697 252.604 83.5905 255.176 82.0321L253.539 93.6421H263.279L260.007 78.0581Z" fill="#F2B3A7"/>
<path d="M254.786 71.1233C254.396 76.3439 253.461 78.9153 251.825 78.9153C249.409 78.9153 247.384 77.3569 246.371 77.3569C245.591 77.3569 245.747 78.2919 246.293 78.9932C246.682 79.6166 248.786 80.162 248.786 81.0191C248.786 81.8762 247.15 81.2529 247.15 81.7983C247.15 82.6554 246.838 84.3697 248.397 84.3697C249.955 84.3697 254.474 83.8242 255.253 81.4866C255.721 80.0061 256.033 76.8893 256.189 72.1362C256.266 72.1362 256.344 72.1362 256.5 72.1362C257.825 72.1362 258.916 73.2271 258.916 74.5518C258.916 75.253 258.604 75.8764 258.214 76.266C258.76 77.0452 259.383 77.9023 260.162 78.7594C262.89 77.1231 265.305 72.37 262.656 67.7727C261.955 65.513 259.851 64.3442 257.903 63.7988C256.344 63.0975 254.63 63.0975 253.305 63.4871C250.578 63.7209 248.163 64.578 247.461 65.0455C247.461 67.6169 247.929 68.3961 252.215 68.3182C253.15 68.8636 253.929 69.8765 254.786 71.1233Z" fill="#9E180A"/>
<path d="M246.605 72.4479C246.371 73.7725 244.657 75.0192 244.735 76.4997C245.124 76.6556 245.436 76.8893 245.825 76.9672C246.215 77.0452 246.527 76.9672 246.916 77.1231" fill="#F2B3A7"/>
<path d="M247.306 70.9675C247.539 70.8116 247.695 70.7337 247.929 70.6558C248.163 70.5779 248.397 70.4999 248.708 70.5779C248.942 70.6558 249.254 70.8116 249.332 71.0454C249.41 71.1233 249.487 71.2791 249.487 71.3571C249.487 71.435 249.487 71.5129 249.565 71.5129V71.5908V71.6687H249.487C249.487 71.5908 249.332 71.5908 249.254 71.5129C249.176 71.435 249.02 71.435 248.942 71.3571C248.786 71.2791 248.63 71.2012 248.474 71.2012C248.319 71.1233 248.163 71.1233 247.929 71.1233C247.773 71.2012 247.539 71.1233 247.306 70.9675Z" fill="#9E180A"/>
<path d="M247.851 72.6037C248.023 72.6037 248.163 72.4642 248.163 72.292C248.163 72.1199 248.023 71.9803 247.851 71.9803C247.679 71.9803 247.54 72.1199 247.54 72.292C247.54 72.4642 247.679 72.6037 247.851 72.6037Z" fill="#9E180A"/>
<path d="M226.969 93.0188L215.047 86.006C209.437 85.6943 206.866 85.1489 207.177 84.3697C207.645 83.2009 209.203 83.7463 209.671 83.045C210.138 82.3438 208.58 80.3957 207.021 78.6815C205.463 76.9673 206.71 76.8894 207.489 77.0452C210.06 78.0582 212.71 79.6945 215.593 81.9542L230.943 86.5514L226.969 93.0188ZM235.073 120.602L222.294 125.901C218.709 130.187 216.683 131.901 216.216 131.2C215.593 130.109 216.995 129.174 216.683 128.394C216.372 127.615 213.956 127.693 211.619 127.849C209.281 128.005 209.982 126.992 210.528 126.524C212.865 125.122 215.826 123.953 219.333 123.018L232.267 113.512L235.073 120.602Z" fill="#F2B3A7"/>
<path d="M252.293 87.954C245.28 101.045 235.072 111.096 220.345 121.615L225.956 127.927C242.397 121.771 251.124 118.109 255.409 105.72C256.5 102.603 257.202 92.7071 257.903 87.4865L252.293 87.954Z" fill="#0981D3"/>
<path d="M271.929 131.667H240.761C247.851 110.083 251.436 95.3564 251.592 87.3306C251.592 86.941 252.371 86.1618 252.682 86.3177C255.098 87.0189 257.747 86.7852 260.552 85.5385C267.955 97.3823 270.526 112.031 271.929 131.667Z" fill="#FFD5D0"/>
<path d="M257.903 85.5385C248.943 85.6164 234.449 87.2527 217.697 81.8762L216.06 90.1357C228.683 98.2394 241.54 104.551 252.683 103.694C247.774 124.576 248.008 141.719 258.76 141.719C263.903 141.719 269.435 141.719 275.357 141.719C278.007 123.953 271.072 99.3303 264.604 86.941C264.371 86.4735 263.825 85.5385 262.579 85.5385C261.643 85.5385 260.007 85.5385 257.903 85.5385Z" fill="#1898FC"/>
<path d="M51.3145 64.7868C50.7457 65.0538 49.9517 65.4061 49.9367 64.531C49.9217 63.656 50.7386 63.0878 51.5097 62.9515C51.9487 62.889 52.3877 62.8264 52.8152 62.8719C53.4564 62.9401 54.4182 63.0425 54.6169 62.1902C54.6284 62.0822 54.6399 61.9742 54.7467 61.9855C54.7582 61.8776 54.8651 61.889 54.972 61.9003C55.4109 61.8378 55.8729 61.5594 56.3004 61.6049C57.0485 61.6844 57.6818 62.8436 58.1587 63.4403L58.9986 62.6562C59.3422 62.4744 59.8765 62.5312 60.0558 62.8779C60.4109 62.5881 60.766 62.2982 61.2164 62.1278C61.182 62.4517 61.4911 62.5938 61.7048 62.6165C62.0254 62.6506 63.0102 62.537 63.0562 62.1052C63.0332 62.3211 62.2586 61.4745 62.2816 61.2586C61.9575 60.2414 62.2631 59.4005 61.5 58.4458C61.2138 58.0879 60.9277 57.7299 60.8667 57.2867C60.8173 56.7355 60.7449 56.4001 60.4587 56.0421C60.5771 55.9455 60.7908 55.9683 61.0046 55.991C61.2183 56.0138 61.4206 56.1445 61.6343 56.1672C62.0733 56.1047 62.4398 55.7071 62.8558 55.8605C63.0696 55.8832 63.1649 56.0025 63.142 56.2184C63.1305 56.3264 63.119 56.4344 63.119 56.4344C63.0845 56.7583 63.2638 57.1048 63.5615 57.3549C63.6569 57.4742 63.7637 57.4856 63.7523 57.5936C63.8591 57.605 63.966 57.6163 64.0729 57.6277C65.2599 57.6448 66.8286 58.1392 67.9777 57.4971C68.2144 57.304 68.6993 56.8096 68.9245 56.7243C68.4855 56.7868 68.2109 56.3209 68.1499 55.8777C68.1959 55.4459 68.4555 55.0368 68.7991 54.8549C69.9827 53.889 71.9523 53.6617 72.6359 52.3151C72.7658 52.1105 72.7887 51.8946 73.0254 51.7014C73.2621 51.5082 73.5827 51.5424 73.6781 51.6617C73.2241 50.8491 72.9954 49.9513 72.8735 49.0648C72.8241 48.5137 72.6792 47.8432 73.0573 47.3375C73.4468 46.7238 74.2179 46.5875 74.8821 46.4398C75.3325 46.2693 76.0427 45.6898 76.5426 46.0705C76.9356 46.4398 76.8587 48.1786 77.9849 47.7525C78.2101 47.6673 78.3514 47.3547 78.5766 47.2695C78.9087 47.1957 79.088 47.5423 79.1604 47.8775C79.2328 48.2128 79.3052 48.548 79.6144 48.69C79.8166 48.8207 80.1602 48.639 80.374 48.6617C80.8014 48.7072 81.183 49.1845 81.137 49.6164C81.7288 49.1334 82.7021 49.1277 83.286 49.7357C83.0607 49.8209 83.0263 50.1449 83.217 50.3835C83.4078 50.6222 83.4803 50.9574 83.2436 51.1506C83.9457 51.662 85.0833 51.1279 85.2821 50.2756C85.2935 50.1676 85.305 50.0597 85.305 50.0597C85.4349 49.8552 85.8508 50.0086 85.9233 50.3438C85.9957 50.6791 85.8659 50.8836 85.9498 51.1109C85.9878 51.77 86.7128 52.0655 87.3426 52.2417C87.9723 52.4179 88.6974 52.7134 88.8538 53.276C88.9951 52.9634 89.3272 52.8896 89.7661 52.8271C90.0867 52.8612 90.4074 52.8953 90.728 52.9294C91.5944 52.9124 92.5183 52.3555 93.1021 52.9635C93.2929 53.2022 93.3768 53.4295 93.5561 53.7762C93.7469 54.0148 94.0445 54.2648 94.2812 54.0716C94.3996 53.975 94.5179 53.8785 94.6363 53.7819C94.9684 53.708 95.2545 54.066 95.5751 54.1001C96.0026 54.1455 96.2853 53.5205 96.7013 53.6739C96.8081 53.6853 97.0104 53.816 97.1058 53.9353C97.9263 54.3501 98.9455 53.9126 99.8844 54.2309C99.0594 55.89 98.5436 57.6913 98.5736 59.4414C98.5886 60.3165 98.5922 61.2995 98.8209 62.1973C98.8818 62.6405 99.0381 63.2031 98.8853 63.6236C98.343 64.6577 97.1984 63.2258 96.9422 64.6179C97.156 64.6406 97.2628 64.652 97.488 64.5668C97.3008 65.3112 96.8883 66.1407 96.3919 66.743C96.1437 67.0442 95.8955 67.3453 95.7427 67.7658C95.7197 67.9817 95.6853 68.3055 95.6623 68.5215C95.4865 69.1579 94.7879 69.6295 94.7075 70.3852C94.734 71.1523 95.3178 71.7604 94.4893 72.4365C94.787 72.6866 95.2489 72.4081 95.3902 72.0956C95.5315 71.7831 95.6843 71.3626 95.8257 71.0501C96.2267 70.3285 97.5091 70.4649 97.8677 71.1582C98.047 71.5048 98.0125 71.8287 98.2987 72.1867C98.4895 72.4253 98.7032 72.448 98.7871 72.6753C98.9894 72.806 99.0617 73.1413 98.9319 73.3459C98.8136 73.4425 98.6953 73.539 98.6838 73.6469C98.3172 74.0447 98.5689 74.7266 98.9734 74.988C99.3664 75.3574 99.8778 75.63 100.153 76.096C100.32 76.5506 100.156 77.0791 99.7895 77.4768C99.4229 77.8745 98.9725 78.045 98.522 78.2155C98.2968 78.3007 100.106 79.5849 100.201 79.7042C100.999 80.335 100.334 80.4827 100.242 81.3464C100.185 81.8862 100.544 82.5795 101.055 82.8523C101.662 83.2444 102.517 83.3353 103.192 83.0796C104.212 82.6421 104.238 83.4092 104.039 84.2616C103.841 85.1139 103.214 85.9207 102.527 86.2844C102.707 86.631 102.329 87.1366 101.901 87.0911C101.974 87.4264 101.737 87.6197 101.607 87.8242C101.37 88.0174 101.134 88.2106 101.004 88.4151C100.992 88.5231 100.874 88.6196 100.969 88.7389C100.958 88.8469 101.065 88.8583 101.16 88.9777C101.244 89.2049 101.114 89.4095 100.877 89.6027C100.641 89.7958 100.427 89.7732 100.202 89.8584C99.9765 89.9436 99.8466 90.1482 99.8236 90.3641C99.6788 89.6936 99.0411 90.6084 99.0182 90.8243C98.6251 90.455 97.961 90.6026 97.7013 91.0117C97.1175 90.4037 96.2739 90.2049 95.4914 90.4492C95.2891 90.3185 95.2053 90.0911 95.2397 89.7672C94.4686 89.9035 93.7205 89.824 93.1023 89.5398C93.0793 89.7558 93.1632 89.9831 93.2701 89.9944C92.8082 90.2729 92.3692 90.3354 91.8463 90.1706C91.8693 89.9547 91.9992 89.7501 92.1175 89.6535C91.4648 89.6933 90.919 89.7443 90.2663 89.7841C90.1594 89.7727 89.9341 89.8579 89.8388 89.7386C89.7434 89.6193 89.648 89.5 89.5411 89.4886C89.4342 89.4773 89.3159 89.5738 89.1976 89.6704C88.1209 90.6477 87.0557 91.5171 85.979 92.4944C85.8491 92.6989 85.6239 92.7842 85.4102 92.7615L85.3033 92.7501C85.185 92.8467 85.2803 92.966 85.3872 92.9773C85.4941 92.9887 85.6009 93 85.6963 93.1194L85.7917 93.2388C85.9251 94.0173 86.0584 94.7957 86.1803 95.6821C86.1688 95.7901 86.2642 95.9095 86.2527 96.0174C86.3481 96.1367 86.5618 96.1594 86.6572 96.2788C86.7526 96.3981 86.8365 96.6254 86.7181 96.722C86.6113 96.7106 86.5044 96.6993 86.3975 96.6879C86.0884 96.5458 85.7564 96.6196 85.4128 96.8015C85.2944 96.898 84.1108 97.864 84.1108 97.864C83.7293 97.3866 82.8744 97.2957 82.4009 97.6821C82.2826 97.7787 82.2711 97.8867 82.1642 97.8753C81.939 97.9606 81.7367 97.8299 81.6413 97.7106C80.8438 97.0798 80.4507 96.7104 79.3935 96.4888C78.2409 96.1478 77.0654 96.0227 75.9013 95.7897C76.092 96.0284 75.9392 96.4489 75.7025 96.6421C75.4658 96.8353 75.1337 96.909 74.8131 96.8749C74.042 97.0113 73.1641 97.1364 72.4505 96.7329C72.2482 96.6022 72.0459 96.4714 71.8322 96.4487C71.4047 96.4032 70.8474 96.5624 70.4199 96.5169C70.2062 96.4942 70.0039 96.3634 69.8017 96.2327C68.8858 95.6985 67.9469 95.3803 66.9736 95.386C66.9391 95.7098 66.4048 95.653 66.4392 95.3291C66.4622 95.1132 66.6874 95.028 66.7104 94.812C66.7563 94.3802 66.2334 94.2154 65.9128 94.1813C64.2868 94.2267 65.5657 93.3801 65.9667 92.6584C66.3907 91.7209 66.4101 90.522 66.4066 89.539C66.5444 88.2435 66.5639 87.0445 66.7017 85.749C66.904 85.8797 67.236 85.8058 67.3659 85.6012C67.282 85.3739 67.0912 85.1353 66.866 85.2206C66.6408 85.3058 66.5109 85.5103 66.488 85.7263C66.4465 84.0841 66.3935 82.5499 66.3521 80.9077C66.375 80.6918 66.4095 80.3678 66.6462 80.1747C67.3139 81.01 68.4436 81.567 68.5425 82.6693C68.5389 81.6863 68.0964 80.7657 67.3943 80.2542C67.0966 80.0042 66.6806 79.8508 66.383 79.6007C65.6808 79.0893 65.3337 78.2882 65.0935 77.4984C65.6279 77.5552 65.9979 78.1405 66.0474 78.6917C66.0818 78.3678 66.4254 78.1859 66.3645 77.7427C66.3036 77.2995 65.9105 76.9302 65.483 76.8847C65.067 76.7313 64.5212 76.7824 64.2465 76.3164C64.5786 76.2426 64.8878 76.3846 65.1969 76.5267C65.5175 76.5608 65.9679 76.3903 65.8955 76.0551C64.7314 75.8221 63.6017 75.2652 62.6134 74.3958C62.125 73.9071 61.5412 73.299 61.6216 72.5433C61.6561 72.2194 61.6906 71.8956 61.6067 71.6683C61.5228 71.441 61.1182 71.1795 60.8815 71.3727C61.0228 71.0602 61.1642 70.7477 61.2101 70.3159C60.8665 70.4977 60.416 70.6681 59.9886 70.6227C59.8817 70.6113 59.7748 70.6 59.7863 70.492C59.6909 70.3727 59.7024 70.2648 59.7024 70.2648C59.7369 69.9409 59.676 69.4977 59.7104 69.1738C59.1416 69.4408 58.5003 69.3726 57.9889 69.0998C58.2142 69.0146 58.4394 68.9293 58.6532 68.952C58.1533 68.5713 57.2524 68.9123 57.0651 69.6566C57.0386 68.8895 56.325 68.4861 55.5884 68.2986C54.8517 68.111 54.1037 68.0314 53.4969 67.6393C53.0924 67.3779 52.6799 68.2075 52.2639 68.0541C51.9433 68.02 51.8823 67.5768 51.6915 67.3381C51.4169 66.8722 50.9055 66.5994 50.4665 66.6619C50.7986 66.588 52.1385 66.1847 52.1844 65.7528C52.2074 65.5369 52.0052 65.4061 51.7914 65.3834C51.5777 65.3607 51.341 65.5539 51.2226 65.6505C51.1387 65.4232 50.9594 65.0766 50.7572 64.9459C51.303 64.8948 51.8374 64.9516 52.3832 64.9004C52.1809 64.7697 51.8718 64.6277 51.6466 64.7129C51.5512 64.5936 51.681 64.389 51.7879 64.4004C51.4328 64.6901 51.326 64.6788 51.3145 64.7868Z" fill="#0981D3"/>
<path d="M408 62.5663C408 76.9926 391.927 88.7587 372.17 88.7587C359.783 88.7587 348.931 84.1546 342.482 77.2996C341.253 75.9695 328.866 75.4579 330.299 74.4348C332.654 72.6954 337.568 69.626 337.056 67.8867C336.544 66.1473 336.339 64.408 336.339 62.6686C336.339 48.2423 352.412 36.4762 372.17 36.4762C391.927 36.4762 408 48.14 408 62.5663Z" fill="#F2B3A7"/>
<path d="M150.235 26.5807C150.235 35.3244 155.835 43.1353 164.352 48.0318C166.336 49.1976 165.052 55.8428 165.403 57.0086C165.753 58.1744 172.986 51.5293 174.27 51.879C177.653 52.6951 181.154 53.1614 184.887 53.1614C204.022 53.1614 219.54 41.27 219.54 26.5807C219.54 11.8914 204.022 0 184.887 0C165.753 0 150.235 11.8914 150.235 26.5807Z" fill="#F2B3A7"/>
</svg>
