<svg width="410" height="301" viewBox="0 0 410 301" fill="none" xmlns="http://www.w3.org/2000/svg">
<path d="M393.107 128.127C393.936 130.796 388.964 134.712 386.538 135.898C384.644 136.848 381.389 137.381 379.259 137.559C362.037 138.627 344.874 138.687 327.652 139.814C310.134 141 292.676 143.255 275.158 144.382C258.054 145.509 240.951 144.797 223.788 144.678C222.664 144.678 221.539 144.678 220.474 144.322L222.25 137.322L387.485 128.601L393.107 128.127Z" fill="#F2B3A7"/>
<path d="M209.94 131.983C210.709 131.924 213.786 135.721 214.556 136.492C216.568 138.509 218.284 141.297 221.125 142.128C222.19 142.424 223.315 142.484 224.439 142.484C241.602 142.602 258.705 143.314 275.809 142.187C293.327 141.06 310.785 138.805 328.303 137.619C345.525 136.492 362.688 136.433 379.909 135.365C382.04 135.246 384.171 135.068 386.064 134.119C388.491 132.932 393.876 130.085 393.048 127.415C391.687 123.025 374.524 122.55 370.618 122.788C370.677 122.728 210.472 131.924 209.94 131.983Z" fill="#F9E8E8"/>
<path d="M361.681 55.6316H364.522L361.03 52.4281L361.681 55.6316Z" fill="#9E180A"/>
<path d="M384.111 129.788L307.411 134.356L307.352 55.0976L335.759 16.3584L362.806 53.1992V73.073L384.111 94.43V129.788Z" fill="#EF9887"/>
<path opacity="0.43" d="M384.111 129.788L307.411 134.356L307.352 55.0976L335.759 16.3584L362.806 53.4365V73.073L384.288 94.6673L384.111 129.788Z" fill="#F2B3A7"/>
<path d="M307.353 55.0977H282.674V129.788H307.353V55.0977Z" fill="#F9E8E8"/>
<path d="M336.292 15.6465H310.844L280.957 55.0976H307.352L336.292 15.6465Z" fill="#1898FC"/>
<path d="M315.59 18.5825L319.851 18.5825L319.851 7.54808L315.59 7.54808L315.59 18.5825Z" fill="#EC7D66"/>
<path d="M319.84 18.6127L321.852 15.6465H323.864V7.57831H319.84V18.6127Z" fill="#FC4E24"/>
<path d="M363.338 55.6315H365.528L336.292 15.6465L335.227 17.1297L363.338 55.6315Z" fill="#0981D3"/>
<path d="M362.805 71.8273L388.727 97.337H384.939L384.111 96.4472V129.788L362.805 131.034V74.9716V71.8273Z" fill="#EC7D66"/>
<path d="M345.773 85.9789L352.994 85.9789L352.994 65.8677L345.773 65.8677L345.773 85.9789Z" fill="#F9E8E8"/>
<path d="M332.017 85.9789L339.238 85.9789L339.238 65.8677L332.017 65.8677L332.017 85.9789Z" fill="#FFD5D0"/>
<path d="M318.263 85.9789L325.483 85.9789L325.483 65.8677L318.263 65.8677L318.263 85.9789Z" fill="#FFD5D0"/>
<path d="M337.052 49.1562C339.916 48.4827 341.693 45.6094 341.021 42.7384C340.349 39.8675 337.483 38.0861 334.619 38.7596C331.755 39.4331 329.978 42.3065 330.649 45.1774C331.321 48.0483 334.188 49.8297 337.052 49.1562Z" fill="#EC7D66" stroke="#CE310D" stroke-width="1.3889" stroke-miterlimit="10"/>
<path d="M299.777 129.788V106.829C299.777 103.388 296.7 100.541 292.912 100.541C289.125 100.541 286.047 103.388 286.047 106.829V129.788H299.777Z" fill="#EC7D66"/>
<path d="M288.77 129.788H297.114V107.363C297.114 105.049 295.22 103.21 292.971 103.21C290.663 103.21 288.829 105.109 288.829 107.363V129.788H288.77Z" fill="#EC7D66"/>
<path d="M317.816 86.924L325.983 86.8826L325.977 85.5181L317.809 85.5595L317.816 86.924Z" fill="#FC4E24"/>
<path d="M317.807 85.6119L325.974 85.5705L325.971 84.9772L317.804 85.0186L317.807 85.6119Z" fill="#EC7D66"/>
<path d="M325.935 65.5983H317.887V66.7254H325.935V65.5983Z" fill="#EC7D66"/>
<path d="M331.497 86.9769L339.664 86.9355L339.657 85.571L331.49 85.6124L331.497 86.9769Z" fill="#FC4E24"/>
<path d="M331.489 85.6647L339.656 85.6234L339.653 85.0301L331.486 85.0715L331.489 85.6647Z" fill="#EC7D66"/>
<path d="M339.607 65.6576H331.558V66.7848H339.607V65.6576Z" fill="#EC7D66"/>
<path d="M345.232 87.03L353.399 86.9886L353.392 85.6242L345.225 85.6656L345.232 87.03Z" fill="#FC4E24"/>
<path d="M345.223 85.7179L353.39 85.6765L353.387 85.0833L345.22 85.1247L345.223 85.7179Z" fill="#EC7D66"/>
<path d="M353.336 65.6576H345.288V66.7848H353.336V65.6576Z" fill="#EC7D66"/>
<path d="M384.762 103.388L362.805 103.981V105.168L384.762 104.634V103.388Z" fill="#FC4E24"/>
<path d="M362.805 71.8273V73.0732L384.111 94.4301V96.4472L384.998 97.337H388.786L362.805 71.8273Z" fill="#FC4E24"/>
<path d="M335.759 66.6068H335.404V85.3534H335.759V66.6068Z" fill="#EC7D66"/>
<path d="M332.327 66.4286H331.972V85.1753H332.327V66.4286Z" fill="#EC7D66"/>
<path d="M339.31 66.4286H338.955V85.1753H339.31V66.4286Z" fill="#EC7D66"/>
<path d="M321.97 67.0813H321.615V85.294H321.97V67.0813Z" fill="#EC7D66"/>
<path d="M318.597 66.9627H318.242V85.1755H318.597V66.9627Z" fill="#EC7D66"/>
<path d="M325.521 66.9627H325.166V85.1755H325.521V66.9627Z" fill="#EC7D66"/>
<path d="M349.431 67.0813H349.075V85.294H349.431V67.0813Z" fill="#EC7D66"/>
<path d="M345.998 66.9627H345.643V85.1755H345.998V66.9627Z" fill="#EC7D66"/>
<path d="M352.981 66.9627H352.626V85.1755H352.981V66.9627Z" fill="#EC7D66"/>
<path opacity="0.16" d="M362.805 73.0731L365.172 75.5648V130.974L362.805 131.034V73.0731Z" fill="#9E180A"/>
<path d="M368.132 130.737V116.499C368.132 113.414 370.736 110.863 373.991 110.863C377.187 110.863 379.85 113.355 379.85 116.499V130.025L368.132 130.737Z" fill="#CE310D"/>
<path d="M378.962 130.084L369.02 130.678V116.736C369.02 114.007 371.269 111.753 373.991 111.753C376.713 111.753 378.962 114.007 378.962 116.736V130.084Z" fill="#FC4E24"/>
<path d="M307.412 134.356L269.595 140.289V65.9545L288.474 28.9951L307.412 39.9702V134.356Z" fill="#FFD5D0"/>
<path d="M218.581 66.429C219.646 66.429 269.595 66.429 269.595 66.429V140.229L218.699 140.704L218.581 66.429Z" fill="#EC7D66"/>
<path d="M288.474 28.9951H237.46L218.581 66.4291H269.595L288.474 28.9951Z" fill="#FC4E24"/>
<path d="M288.474 28.9951L269.595 66.4291H268.648L287.586 28.9951H288.474Z" fill="#FFD5D0"/>
<path d="M283.503 28.9951L264.565 66.4291H263.026L281.964 28.9951H283.503Z" fill="#FFD5D0"/>
<path d="M277.881 28.9951L258.943 66.4291H257.404L276.342 28.9951H277.881Z" fill="#FFD5D0"/>
<path d="M272.258 28.9951L253.32 66.4291H251.841L270.72 28.9951H272.258Z" fill="#FFD5D0"/>
<path d="M266.696 28.9951L247.757 66.4291H246.219L265.157 28.9951H266.696Z" fill="#FFD5D0"/>
<path d="M261.073 28.9951L242.135 66.4291H240.596L259.534 28.9951H261.073Z" fill="#FFD5D0"/>
<path d="M255.451 28.9951L236.513 66.4291H234.974L253.912 28.9951H255.451Z" fill="#FFD5D0"/>
<path d="M249.829 28.9951L230.891 66.4291H229.352L248.29 28.9951H249.829Z" fill="#FFD5D0"/>
<path d="M244.206 28.9951L225.268 66.4291H223.729L242.667 28.9951H244.206Z" fill="#FFD5D0"/>
<path d="M238.584 28.9951L219.646 66.4291H218.581L237.46 28.9951H238.584Z" fill="#FFD5D0"/>
<path d="M307.412 39.9702L288.474 28.9951L287.646 30.5968L307.412 41.3346V39.9702Z" fill="#EC7D66"/>
<path d="M282.792 138.212V117.923C282.792 112.702 286.225 108.431 290.486 108.431C294.688 108.431 298.18 112.702 298.18 117.923V135.78L282.792 138.212Z" fill="#CE310D"/>
<path d="M296.937 136.017L283.917 138.034V118.338C283.917 113.711 286.817 109.914 290.427 109.914C294.037 109.914 296.937 113.652 296.937 118.338V136.017Z" fill="#EC7D66"/>
<path d="M218.543 100.335L269.557 100.335L269.557 97.3687L218.543 97.3687L218.543 100.335Z" fill="#9E180A"/>
<path d="M255.569 97.3374H262.494V84.4046C262.494 82.5062 260.955 80.9044 259.002 80.9044C257.108 80.9044 255.51 82.4469 255.51 84.4046V97.3374H255.569Z" fill="#FFD5D0" stroke="#9E180A" stroke-miterlimit="10"/>
<path d="M245.153 97.3374H252.077V84.4046C252.077 82.5062 250.539 80.9044 248.586 80.9044C246.692 80.9044 245.094 82.4469 245.094 84.4046V97.3374H245.153Z" fill="#FFD5D0" stroke="#9E180A" stroke-miterlimit="10"/>
<path d="M234.856 97.3374H241.78V84.4046C241.78 82.5062 240.241 80.9044 238.288 80.9044C236.394 80.9044 234.796 82.4469 234.796 84.4046V97.3374H234.856Z" fill="#FFD5D0" stroke="#9E180A" stroke-miterlimit="10"/>
<path d="M224.321 97.3374H231.246V84.4045C231.246 82.5061 229.707 80.9044 227.754 80.9044C225.86 80.9044 224.262 82.4468 224.262 84.4045V97.3374H224.321Z" fill="#FFD5D0" stroke="#9E180A" stroke-miterlimit="10"/>
<path d="M248.586 80.9044V97.634" stroke="#9E180A" stroke-miterlimit="10"/>
<path d="M259.002 81.1417V97.812" stroke="#9E180A" stroke-miterlimit="10"/>
<path d="M227.754 81.1417V97.812" stroke="#9E180A" stroke-miterlimit="10"/>
<path d="M238.288 80.9044V97.634" stroke="#9E180A" stroke-miterlimit="10"/>
<path d="M0 214.657C0 214.657 146.373 220.305 168.257 216.083C190.141 211.862 233.082 201.76 236.466 198.368C236.466 198.368 237.218 195.805 237.218 194.523C237.218 193.242 236.842 190.377 236.842 190.377L196.985 198.443L142.162 208.545L0 200.032V214.657Z" fill="#F2B3A7"/>
<path d="M0 211.826C0 211.826 144.267 217.817 166.152 213.596C188.036 209.374 230.977 199.272 234.361 195.88C237.745 192.488 238.572 187.437 231.804 186.608C225.036 185.778 0 186.822 0 186.822V211.826Z" fill="#F9E8E8"/>
<path d="M227.517 31.3895L235.038 38.928H222.328L227.517 31.3895Z" fill="#9E180A"/>
<path d="M227.517 31.3895V193.015L161.79 203.795C161.79 203.795 162.091 60.7143 162.091 58.0005L207.664 11.714L227.517 31.3895Z" fill="#EF9887"/>
<path d="M227.517 31.3895V193.015L161.79 203.795C161.79 203.795 162.091 60.7143 162.091 58.0005L207.664 11.714L227.517 31.3895Z" fill="#F2B3A7"/>
<path d="M162.091 58.0004H107.869V186.231H162.091V58.0004Z" fill="#EF9887"/>
<path d="M207.739 11.714H155.924L107.869 58.0005H162.166L207.739 11.714Z" fill="#1898FC"/>
<path d="M152.916 14.5786H204.881L203.603 15.9355H151.562L152.916 14.5786Z" fill="#0981D3"/>
<path d="M144.418 22.7956H196.834L195.556 24.0771H143.064L144.418 22.7956Z" fill="#0981D3"/>
<path d="M135.92 31.0125H188.713L187.434 32.294H134.566L135.92 31.0125Z" fill="#0981D3"/>
<path d="M127.422 39.1541H180.666L179.387 40.511H126.068L127.422 39.1541Z" fill="#0981D3"/>
<path d="M118.924 47.3712H172.619L171.341 48.6527H117.571L118.924 47.3712Z" fill="#0981D3"/>
<path d="M110.426 55.588H164.497L163.219 56.8696H109.073L110.426 55.588Z" fill="#0981D3"/>
<path d="M180.25 14.5493L186.416 14.5493L186.416 -1.52588e-05L180.25 -1.52591e-05L180.25 14.5493Z" fill="#FC4E24"/>
<path d="M186.381 14.5786L189.314 11.714H192.247V0.0292969H186.381V14.5786Z" fill="#CE310D"/>
<path d="M202.475 46.5419H212.101V33.7264C212.101 31.0879 209.92 28.9017 207.288 28.9017C204.655 28.9017 202.475 31.0879 202.475 33.7264V46.5419Z" fill="#9E180A"/>
<path d="M235.038 38.928L207.739 11.714L206.46 12.9955L232.481 38.928H235.038Z" fill="#9E180A"/>
<path d="M145.784 89.8137L152.326 89.8137L152.326 72.3997L145.784 72.3997L145.784 89.8137Z" fill="#FFD5D0"/>
<path d="M136.375 89.8137L142.918 89.8137L142.918 72.3997L136.375 72.3997L136.375 89.8137Z" fill="#FFD5D0"/>
<path d="M126.893 89.8137L133.436 89.8137L133.436 72.3997L126.893 72.3997L126.893 89.8137Z" fill="#FFD5D0"/>
<path d="M117.485 89.8137L124.028 89.8137L124.028 72.3997L117.485 72.3997L117.485 89.8137Z" fill="#FFD5D0"/>
<path d="M145.784 116.32L152.326 116.32L152.326 98.9063L145.784 98.9063L145.784 116.32Z" fill="#FFD5D0"/>
<path d="M136.375 116.32L142.918 116.32L142.918 98.9063L136.375 98.9063L136.375 116.32Z" fill="#FFD5D0"/>
<path d="M126.893 116.32L133.436 116.32L133.436 98.9063L126.893 98.9063L126.893 116.32Z" fill="#FFD5D0"/>
<path d="M117.485 116.32L124.028 116.32L124.028 98.9063L117.485 98.9063L117.485 116.32Z" fill="#FFD5D0"/>
<path d="M145.784 142.868L152.326 142.868L152.326 125.454L145.784 125.454L145.784 142.868Z" fill="#FFD5D0"/>
<path d="M136.375 142.868L142.918 142.868L142.918 125.454L136.375 125.454L136.375 142.868Z" fill="#FFD5D0"/>
<path d="M126.893 142.868L133.436 142.868L133.436 125.454L126.893 125.454L126.893 142.868Z" fill="#FFD5D0"/>
<path d="M117.485 142.868L124.028 142.868L124.028 125.454L117.485 125.454L117.485 142.868Z" fill="#FFD5D0"/>
<path d="M145.784 167.035L152.326 167.035L152.326 149.621L145.784 149.621L145.784 167.035Z" fill="#FFD5D0"/>
<path d="M136.375 167.035L142.918 167.035L142.918 149.621L136.375 149.621L136.375 167.035Z" fill="#FFD5D0"/>
<path d="M126.893 167.035L133.436 167.035L133.436 149.621L126.893 149.621L126.893 167.035Z" fill="#FFD5D0"/>
<path d="M117.485 167.035L124.028 167.035L124.028 149.621L117.485 149.621L117.485 167.035Z" fill="#FFD5D0"/>
<path d="M208.04 113.333L219.771 113.182V85.4406L208.04 85.8929V113.333Z" fill="#EF9887"/>
<path d="M191.269 113.333L203.076 113.182V85.8929L191.269 86.2699V113.333Z" fill="#EF9887"/>
<path d="M174.8 113.936L186.531 113.635V86.496L174.8 86.873V113.936Z" fill="#EF9887"/>
<path d="M206.611 115.142L221.351 114.69V112.127L206.611 112.579V115.142Z" fill="#9E180A"/>
<path d="M189.765 115.595L204.505 115.218V112.655L189.765 112.956V115.595Z" fill="#9E180A"/>
<path d="M173.146 116.198L187.81 115.67V113.107L173.146 113.559V116.198Z" fill="#9E180A"/>
<path d="M181.267 86.6468H180.891V113.484H181.267V86.6468Z" fill="#9E180A"/>
<path d="M197.361 86.1191H196.985V113.107H197.361V86.1191Z" fill="#9E180A"/>
<path d="M214.206 85.6668H213.83V112.504H214.206V85.6668Z" fill="#9E180A"/>
<path d="M0.027832 203.795H69.2899V78.6559L34.6213 11.0354L0.027832 31.1632V203.795Z" fill="#F2B3A7"/>
<path d="M162.993 79.5605C161.113 79.5605 69.2898 79.5605 69.2898 79.5605V203.795H162.617L162.993 79.5605Z" fill="#FFD5D0"/>
<path d="M34.6213 11.0354H128.024L162.542 79.5605H69.29L34.6213 11.0354Z" fill="#9E180A"/>
<path d="M34.6213 11.0354L69.29 79.5605H70.9444L36.2758 11.0354H34.6213Z" fill="#CE310D"/>
<path d="M43.7961 11.0354L78.3896 79.5605H81.2473L46.5787 11.0354H43.7961Z" fill="#CE310D"/>
<path d="M54.0237 11.0354L88.6923 79.5605H91.4748L56.8814 11.0354H54.0237Z" fill="#CE310D"/>
<path d="M64.3267 11.0354L98.9201 79.5605H101.778L67.1092 11.0354H64.3267Z" fill="#CE310D"/>
<path d="M74.5542 11.0354L109.223 79.5605H112.005L77.4119 11.0354H74.5542Z" fill="#CE310D"/>
<path d="M84.8569 11.0354L119.526 79.5605H122.308L87.6394 11.0354H84.8569Z" fill="#CE310D"/>
<path d="M95.1599 11.0354L129.753 79.5605H132.611L97.9424 11.0354H95.1599Z" fill="#CE310D"/>
<path d="M105.387 11.0354L140.056 79.5605H142.839L108.245 11.0354H105.387Z" fill="#CE310D"/>
<path d="M115.69 11.0354L150.284 79.5605H153.141L118.473 11.0354H115.69Z" fill="#CE310D"/>
<path d="M125.918 11.0354L160.587 79.5605H162.993L128.024 11.0354H125.918Z" fill="#CE310D"/>
<path d="M124.339 203.72V176.883C124.339 171.078 129.227 166.329 135.318 166.329C141.335 166.329 146.298 171.078 146.298 176.883V203.72H124.339Z" fill="#F2B3A7"/>
<path d="M144.643 203.72H125.993V177.335C125.993 172.209 130.129 167.987 135.318 167.987C140.432 167.987 144.643 172.133 144.643 177.335V203.72Z" fill="#9E180A"/>
<path d="M0.027832 31.1632L34.6213 11.0354L36.2005 14.0508L0.027832 33.5756V31.1632Z" fill="#EC7D66"/>
<path d="M21.8367 47.2957H9.8042V61.4681H21.8367V47.2957Z" fill="#CE310D"/>
<path d="M21.8367 70.1373H9.8042V84.3097H21.8367V70.1373Z" fill="#CE310D"/>
<path d="M38.3814 70.1373H26.3489V84.3097H38.3814V70.1373Z" fill="#CE310D"/>
<path d="M97.792 108.563H78.916V132.686H97.792V108.563Z" fill="#F9E8E8"/>
<path d="M98.6191 133.44H78.239V107.809H98.6191V133.44ZM79.6679 131.932H97.115V109.317H79.6679V131.932Z" fill="#F2B3A7"/>
<path d="M88.9179 108.639H87.4138V132.988H88.9179V108.639Z" fill="#F2B3A7"/>
<path d="M99.8977 106.226H76.8103V109.694H99.8977V106.226Z" fill="#FC4E24"/>
<path d="M154.57 108.789H135.694V132.912H154.57V108.789Z" fill="#F9E8E8"/>
<path d="M155.398 133.666H135.018V108.035H155.398V133.666ZM136.446 132.234H153.894V109.618H136.446V132.234Z" fill="#F2B3A7"/>
<path d="M145.696 108.94H144.192V133.289H145.696V108.94Z" fill="#F2B3A7"/>
<path d="M156.676 106.452H133.589V109.92H156.676V106.452Z" fill="#FC4E24"/>
<path d="M126.444 108.337H107.568V132.46H126.444V108.337Z" fill="#F9E8E8"/>
<path d="M127.196 133.214H106.816V107.583H127.196V133.214ZM108.32 131.782H125.767V109.166H108.32V131.782Z" fill="#F2B3A7"/>
<path d="M117.57 108.488H116.066V132.837H117.57V108.488Z" fill="#F2B3A7"/>
<path d="M128.55 106H105.463V109.468H128.55V106Z" fill="#FC4E24"/>
<path d="M298.144 215.659L280.561 260.023L268.783 297.541H264.15L282.18 215.659H298.144Z" fill="#FFD5D0"/>
<path d="M301.717 215.659C301.884 231.245 304.62 252.23 305.066 253.232C305.345 253.9 315.393 262.138 335.154 277.947L331.972 281.342C308.639 267.76 296.414 260.079 295.353 258.242C293.735 255.514 288.432 230.521 284.245 215.603H301.717V215.659Z" fill="#FFD5D0"/>
<path d="M335.611 276.761C336.684 277.171 337.408 277.511 337.816 277.823C338.296 278.221 338.949 278.91 339.775 279.891C339.291 280.442 334.957 285.595 326.815 295.314C325.133 294.614 324.651 293.781 325.248 292.846C325.845 291.91 326.393 291.089 326.805 290.453L329.649 280.586C329.706 280.394 329.913 280.293 330.106 280.35L331.609 280.837C332.643 280.334 333.399 279.847 333.798 279.369C334.111 278.961 334.451 278.24 334.734 277.277C334.768 276.885 335.146 276.641 335.611 276.761C335.532 276.754 335.611 276.761 335.611 276.761Z" fill="#9E180A"/>
<path d="M270.681 295.759C271.071 296.817 271.295 297.652 271.295 298.153C271.295 298.821 271.183 299.711 270.96 300.992C270.234 300.992 263.48 300.992 250.753 300.992C250.25 299.266 250.529 298.32 251.646 298.208C252.762 298.097 253.711 297.93 254.437 297.819L263.815 293.644C263.982 293.588 264.205 293.644 264.261 293.811L264.875 295.258C265.936 295.759 266.773 295.982 267.443 295.982C268.001 295.982 268.727 295.759 269.62 295.314C270.066 295.203 270.513 295.37 270.681 295.759Z" fill="#9E180A"/>
<path d="M286.31 293.644L264.205 291.251L280.617 215.659H300.433L286.31 293.644Z" fill="#FC4E24"/>
<path d="M330.576 272.38L316.063 289.525C300.768 272.881 291.837 262.027 289.325 256.906C286.813 251.841 284.524 238.036 282.459 215.603H304.787C305.903 235.364 306.629 245.662 307.02 246.608C307.411 247.554 315.281 256.127 330.576 272.38Z" fill="#EC7D66"/>
<path d="M295.465 172.186C297.139 170.237 298.256 167.9 298.033 165.228C297.474 157.602 286.813 159.272 284.747 163.112C282.682 166.953 282.905 176.75 285.584 177.418C286.645 177.696 288.934 177.028 291.278 175.637L289.827 185.935H298.423L295.465 172.186Z" fill="#FFD5D0"/>
<path d="M284.524 166.118C284.803 166.007 285.082 165.951 285.361 165.951C285.64 165.951 285.975 166.007 286.254 166.118C286.533 166.23 286.813 166.452 286.98 166.731C287.147 167.009 287.203 167.287 287.148 167.621C286.98 167.399 286.813 167.176 286.645 167.009C286.478 166.842 286.254 166.731 286.031 166.619C285.585 166.452 285.026 166.341 284.524 166.118Z" fill="#FC4E24"/>
<path d="M283.966 174.412C284.357 174.245 284.524 174.134 284.747 173.967C284.859 173.911 285.026 173.8 285.194 173.689C285.361 173.633 285.585 173.577 285.752 173.633C285.529 173.911 285.361 174.134 285.082 174.357C284.915 174.468 284.747 174.579 284.524 174.579C284.301 174.579 284.077 174.524 283.966 174.412Z" fill="#FC4E24"/>
<path d="M284.58 167.621C284.747 167.399 284.971 167.343 285.138 167.343C285.25 167.343 285.361 167.343 285.417 167.454C285.529 167.51 285.64 167.621 285.64 167.733C285.529 167.788 285.417 167.844 285.361 167.9C285.25 167.955 285.194 167.955 285.082 167.955C284.971 167.9 284.803 167.844 284.58 167.621Z" fill="#FC4E24"/>
<path d="M288.599 163.669C289.771 164.337 290.609 165.562 291.613 167.12C291.837 167.009 292.116 166.953 292.395 166.953C293.567 166.953 294.516 167.9 294.516 169.068C294.516 169.681 294.293 170.237 293.846 170.627C294.349 171.351 294.907 172.074 295.521 172.798C297.921 171.351 300.6 167.232 298.368 163.224C296.414 155.208 284.357 160.162 282.235 158.826C281.789 161.777 283.296 164.114 288.599 163.669Z" fill="#FC4E24"/>
<path d="M277.714 169.013C277.714 168.345 276.542 167.287 276.151 166.786C275.202 165.673 273.974 164.615 272.523 164.281C271.406 164.003 269.118 163.78 269.118 165.395C269.118 166.23 270.234 167.065 270.736 167.788C271.239 168.512 271.63 169.903 272.244 170.516C272.858 171.128 275.202 171.239 275.872 170.683" fill="#F2B3A7"/>
<path d="M295.298 178.531C291.613 178.142 287.706 180.98 284.078 179.032C283.073 178.476 282.235 177.585 281.621 176.583C280.449 174.69 279.835 172.464 278.719 170.46C277.881 169.013 277.044 168.512 275.369 168.679C273.806 168.846 272.243 169.068 270.68 169.235C270.011 169.291 274.141 184.821 274.644 186.324C275.202 187.938 275.983 189.553 277.323 190.61C278.942 191.891 281.119 192.336 283.129 192.113C285.361 191.946 287.873 191.278 289.771 190.165C292.395 188.606 293.679 186.157 295.353 183.708" fill="#9E180A"/>
<path d="M304.173 217.329H276.598C282.85 198.348 286.366 187.883 286.478 180.813C286.478 180.479 287.148 179.812 287.427 179.923C289.604 180.535 291.558 177.752 294.07 176.639C300.601 187.103 302.889 199.962 304.173 217.329Z" fill="#F9E8E8"/>
<path d="M291.725 176.583C283.799 176.639 281.678 195.509 276.486 170.349L271.518 171.518C268.336 200.797 276.095 199.628 285.418 201.966C284.803 215.047 283.073 226.068 292.618 226.068C297.14 226.068 302.052 226.068 307.299 226.068C309.644 210.427 303.503 188.718 297.81 177.752C297.586 177.307 297.14 176.527 296.023 176.527C295.074 176.583 293.623 176.583 291.725 176.583Z" fill="#9E180A"/>
<path d="M277.323 168.289C275.704 166.731 274.867 163.892 272.467 163.224C270.066 162.556 267.778 163.391 268.224 166.174C269.341 166.508 269.452 165.061 270.457 165.005C270.401 165.339 270.513 165.951 270.96 166.063C271.741 166.23 271.35 165.395 271.797 165.283C272.523 165.116 273.416 166.842 273.974 165.729C274.476 165.784 274.923 166.564 275.425 166.898C275.984 167.343 276.709 167.621 277.323 168.289Z" fill="#FFD5D0"/>
<path d="M281.119 166.174C281.677 165.673 282.738 165.283 283.519 165.339C284.413 165.395 284.133 166.619 284.078 167.232C284.022 168.122 283.91 169.013 283.91 169.959C283.91 170.349 283.91 170.738 283.966 171.128C283.966 171.295 284.133 171.629 284.022 171.796C283.631 172.631 282.403 172.13 281.956 171.74C281.677 171.518 281.677 171.462 281.621 171.128C281.287 169.681 281.007 168.345 280.952 166.898" fill="#CE310D"/>
<path d="M281.677 171.462L266.773 173.243L265.992 166.341L281.175 166.174L281.677 171.462Z" fill="#FC4E24"/>
<path d="M267.331 173.744L266.55 165.729L260.075 166.174L260.242 167.844L261.861 168.067C261.191 168.512 260.745 169.235 260.8 170.126C260.912 171.017 261.47 171.685 262.252 172.019L260.577 172.464L260.745 174.134L267.331 173.744Z" fill="#FC4E24"/>
<path d="M280.561 166.174L277.435 166.23C275.593 168.122 272.969 169.681 269.955 170.738C267.164 171.685 264.317 172.019 261.861 171.796C262.028 171.907 262.196 172.019 262.363 172.074L260.689 172.52L260.856 174.19L267.387 173.744L267.331 173.132L279.612 171.685C280.003 172.297 280.617 169.514 280.896 169.903" fill="#CE310D"/>
<path d="M266.717 166.452C266.271 167.065 266.773 169.18 266.941 169.959C267.164 170.961 267.387 171.963 267.778 173.021C267.387 172.019 267.443 170.571 267.499 169.514C267.555 168.734 267.666 166.898 268.392 166.452C267.778 166.675 267.164 166.842 266.661 166.452H266.717Z" fill="#CE310D"/>
<path d="M276.486 170.349C276.988 169.569 278.775 169.124 278.719 167.621C278.049 167.677 277.435 168.289 276.765 167.788C276.319 167.454 275.76 166.564 276.263 166.397C277.212 166.118 279.277 166.452 280.561 166.285C279.724 164.281 274.365 163.669 272.913 164.949C271.016 166.564 271.016 170.015 271.853 172.13C272.634 172.074 273.416 171.351 274.197 171.072C275.091 170.794 275.984 170.794 276.486 170.349Z" fill="#FFD5D0"/>
<path d="M312.253 172.337L305.238 174.516C305.238 174.516 308.771 183.958 309.395 185.514C309.395 185.514 325.607 179.704 326.283 179.393C326.958 179.081 321.814 169.691 321.814 169.691L312.253 172.337Z" fill="#F9E8E8"/>
<path d="M357.825 169.328L346.029 209.95L340.469 240.455H334.909L340.469 169.328H357.825Z" fill="#FC4E24"/>
<path d="M363.177 169.328C362.346 190.443 362.658 201.96 362.866 203.88C363.073 205.799 364.113 218.666 371.232 241.13H365.412C355.954 219.548 352.681 206.733 351.589 203.88C350.498 201.027 347.328 189.509 342.652 169.328H363.177Z" fill="#FC4E24"/>
<path d="M358.085 169.328C355.019 183.335 349.719 205.644 342.132 236.305H333.974C333.35 204.814 335.948 184.114 340.365 169.328H358.085Z" fill="#9E180A"/>
<path d="M363.177 169.328C362.346 190.443 364.476 211.247 370.92 236.616H362.242C352.785 215.345 345.977 194.697 341.353 169.328H363.177Z" fill="#CE310D"/>
<path d="M372.011 245.28L371.699 240.144C369.829 240.715 367.49 240.455 364.684 239.521C361.67 241.649 357.825 243.153 353.252 243.931C352.888 243.983 352.681 244.346 352.733 244.658V244.709L353.2 246.266H364.736H371.44L372.011 245.28Z" fill="#EF9887"/>
<path d="M341.716 245.28L341.404 240.144C339.534 240.715 337.195 240.455 334.389 239.521C331.375 241.649 327.53 243.153 322.957 243.931C322.593 243.983 322.386 244.346 322.438 244.658V244.709L322.905 246.266H334.441H341.145L341.716 245.28Z" fill="#EF9887"/>
<path d="M353.304 121.857C354.811 120.093 355.799 117.966 355.643 115.58C355.175 108.68 345.562 110.184 343.691 113.66C341.82 117.136 342.028 125.956 344.47 126.578C345.458 126.838 347.484 126.215 349.563 124.97L348.264 134.205H356.006L353.304 121.857Z" fill="#FC4E24"/>
<path d="M353.876 123.414C354.863 119.108 357.617 116.151 357.202 114.231C356.942 112.934 356.162 112.156 354.967 111.844C354.344 109.302 352.317 108.213 348.887 108.576C343.743 109.147 340.573 111.274 341.924 115.995C343.171 115.995 344.678 115.528 346.757 116.306C347.432 116.566 347.9 117.292 348.16 118.589H349.095C350.031 117.084 350.914 116.514 351.797 116.929C352.681 117.344 352.889 118.329 352.421 119.834L352.889 123.414H353.876Z" fill="#9E180A"/>
<path d="M342.6 119.16C342.392 119.575 342.028 119.938 341.872 120.405C341.716 120.82 341.612 121.39 341.56 121.805C341.508 122.428 342.288 123.206 342.963 123.206" fill="#FC4E24"/>
<path d="M342.911 118.07C343.015 117.863 343.223 117.707 343.431 117.655C343.639 117.603 343.847 117.603 344.055 117.655C344.47 117.759 344.834 118.018 345.042 118.381C344.626 118.33 344.262 118.226 343.951 118.122C343.795 118.07 343.639 118.07 343.483 118.018C343.327 118.07 343.119 118.07 342.911 118.07Z" fill="#CE310D"/>
<path d="M342.911 124.711C343.275 124.607 343.535 124.4 343.795 124.192C344.055 123.985 344.314 123.725 344.73 123.518L345.042 123.362V123.725C345.042 124.036 344.938 124.244 344.782 124.4C344.678 124.555 344.522 124.711 344.366 124.815C344.21 124.918 344.055 125.022 343.899 125.126C343.743 125.23 343.535 125.282 343.379 125.333C343.639 125.074 343.899 124.815 344.107 124.503C344.21 124.348 344.314 124.244 344.418 124.088C344.522 123.933 344.574 123.829 344.522 123.725L344.886 123.933C344.626 124.036 344.314 124.244 344.003 124.451C343.847 124.555 343.639 124.607 343.483 124.659C343.327 124.763 343.119 124.763 342.911 124.711Z" fill="#9E180A"/>
<path d="M343.535 119.678C343.764 119.678 343.951 119.492 343.951 119.263C343.951 119.034 343.764 118.848 343.535 118.848C343.305 118.848 343.119 119.034 343.119 119.263C343.119 119.492 343.305 119.678 343.535 119.678Z" fill="#9E180A"/>
<path d="M331.323 164.088L321.814 169.691C319.424 173.426 318.021 175.034 317.605 174.567C316.981 173.789 317.969 172.907 317.657 172.337C317.345 171.766 315.422 172.077 313.604 172.492C311.785 172.907 312.201 172.025 312.616 171.558C314.331 170.21 316.514 168.964 319.164 167.823L328.31 158.952L331.323 164.088ZM378.611 177.369C379.078 178.303 382.508 181.156 384.846 182.765C385.782 183.439 385.418 184.269 385.054 184.477C382.144 186.292 380.221 184.165 377.675 182.972C374.921 181.675 375.129 185.307 372.947 184.321C373.622 182.816 375.181 180.015 374.454 178.147C374.142 177.317 371.284 168.238 365.879 150.806L372.947 150.755C376.064 167.252 377.987 176.072 378.611 177.369Z" fill="#FC4E24"/>
<path d="M351.434 130.832L348.627 130.366C344.211 145.878 321.658 156.409 320.307 162.22C319.787 164.347 321.346 165.437 320.515 166.059L324.152 168.705C324.776 167.979 326.075 169.276 328.829 168.394C331.531 167.46 351.434 149.198 351.434 130.832Z" fill="#F2B3A7"/>
<path d="M346.705 132.856C347.017 153.4 335.169 158.589 337.767 166.837C339.949 173.634 360.891 180.949 364.476 174.256C365.931 171.559 366.607 168.29 366.659 164.762C367.594 167.512 368.322 169.846 368.841 171.818C369.777 175.19 373.362 175.761 373.362 177.058L378.091 175.761C377.779 173.997 380.014 173.115 379.39 169.172C376.688 151.377 369.465 138.511 357.721 130.521L357.617 128.809C357.565 128.083 356.942 127.564 356.266 127.616L347.588 128.239C346.861 128.291 346.341 128.913 346.393 129.588L346.705 132.856Z" fill="#FFD5D0"/>
<path d="M396.401 224.679L385.851 260.942L380.913 288.223H375.919L380.913 224.679H396.401Z" fill="#F2B3A7"/>
<path d="M401.115 224.679C400.386 243.54 400.666 253.813 400.835 255.553C401.003 257.293 401.957 268.744 408.298 288.84H403.135C394.718 269.586 391.744 258.079 390.79 255.553C389.836 253.027 386.974 242.754 382.821 224.679H401.115Z" fill="#F2B3A7"/>
<path d="M396.626 224.679C393.876 237.197 389.162 257.125 382.428 284.518H375.133C374.572 256.395 376.873 237.927 380.857 224.679H396.626Z" fill="#9E180A"/>
<path d="M401.171 224.679C400.442 243.54 402.294 262.121 408.074 284.799H400.33C391.912 265.825 385.852 247.357 381.699 224.679H401.171Z" fill="#CE310D"/>
<path d="M409.028 292.545L408.747 287.942C407.064 288.447 404.987 288.223 402.462 287.381C399.768 289.289 396.345 290.581 392.249 291.31C391.912 291.366 391.744 291.647 391.8 291.984V292.04L392.193 293.443H402.462H408.467L409.028 292.545Z" fill="#EC7D66"/>
<path d="M382.036 292.545L381.755 287.942C380.071 288.447 377.995 288.223 375.47 287.381C372.776 289.289 369.353 290.581 365.257 291.31C364.92 291.366 364.752 291.647 364.808 291.984V292.04L365.201 293.443H375.47H381.474L382.036 292.545Z" fill="#EC7D66"/>
<path d="M389.667 179.996C391.014 178.425 391.912 176.516 391.744 174.383C391.295 168.208 382.765 169.555 381.082 172.699C379.398 175.786 379.623 183.701 381.755 184.263C382.597 184.487 384.449 183.926 386.3 182.803L385.122 191.055H392.024L389.667 179.996Z" fill="#F2B3A7"/>
<path d="M377.995 168.433C378.164 167.928 378.5 167.478 379.061 167.366C379.174 167.31 379.342 167.31 379.454 167.31C379.51 167.31 379.51 167.31 379.51 167.31C379.51 167.31 379.51 167.254 379.51 167.198C379.51 167.086 379.567 167.029 379.567 166.917C379.679 166.636 379.847 166.356 380.072 166.131C380.464 165.738 381.026 165.458 381.587 165.402C381.923 165.402 382.204 165.402 382.541 165.514C382.709 165.57 382.821 165.626 382.99 165.682C383.046 165.682 383.158 165.794 383.214 165.794C383.27 165.794 383.382 165.682 383.382 165.626C383.887 165.233 384.449 165.121 385.066 165.121C385.739 165.121 386.413 165.177 386.974 165.57C387.086 165.682 387.198 165.738 387.311 165.851C387.367 165.907 387.423 165.963 387.479 166.019C387.535 166.075 387.535 166.075 387.591 166.131C387.647 166.187 387.647 166.187 387.703 166.187C387.984 166.019 388.321 165.963 388.601 165.963C388.77 165.963 388.994 166.019 389.162 166.131C389.219 166.131 389.387 166.244 389.443 166.244C389.499 166.244 389.667 166.131 389.724 166.131C390.06 166.019 390.453 165.963 390.846 166.019C391.239 166.075 391.632 166.244 391.912 166.468C392.08 166.58 392.193 166.693 392.305 166.861C392.361 166.917 392.417 166.973 392.473 167.029C392.529 167.086 392.586 167.086 392.586 167.142C392.586 167.142 392.978 166.973 393.034 166.917C393.259 166.861 393.483 166.861 393.708 166.917C394.101 167.029 394.437 167.366 394.718 167.647C394.886 167.815 394.999 167.984 395.111 168.152C395.167 168.264 395.223 168.32 395.279 168.433C395.279 168.489 395.335 168.545 395.335 168.545C395.391 168.601 395.391 168.601 395.447 168.601C395.784 168.713 396.065 168.882 396.289 169.162C396.514 169.443 396.682 169.724 396.738 170.117V170.229C396.738 170.229 396.794 170.229 396.85 170.229C396.963 170.229 397.019 170.229 397.131 170.285C397.299 170.341 397.412 170.397 397.58 170.454C398.141 170.734 398.534 171.239 398.702 171.801C398.927 172.418 398.927 173.092 398.646 173.709C398.59 173.822 398.534 173.878 398.478 173.99C398.422 174.046 398.422 174.046 398.478 174.102C398.478 174.158 398.534 174.215 398.59 174.271C398.702 174.495 398.758 174.664 398.814 174.888C398.871 175.225 398.927 175.618 398.871 176.011C398.814 176.179 398.758 176.348 398.702 176.516C398.646 176.572 398.59 176.684 398.534 176.741C398.478 176.797 398.478 176.797 398.422 176.853L398.366 176.909C398.309 176.965 398.309 176.909 398.366 176.965C398.366 177.077 398.478 177.19 398.478 177.246C398.534 177.358 398.534 177.47 398.59 177.583C398.646 177.807 398.702 178.032 398.758 178.256C398.814 178.649 398.814 179.098 398.59 179.491C398.478 179.66 398.366 179.828 398.253 179.94C398.197 179.996 398.085 180.053 398.029 180.109C397.973 180.109 397.917 180.165 397.917 180.165C397.917 180.221 397.917 180.277 397.917 180.333C397.973 180.782 398.029 181.231 397.86 181.624C397.748 182.017 397.468 182.354 397.131 182.579C396.458 183.028 395.616 182.971 394.942 182.635C394.774 182.522 394.606 182.41 394.437 182.298C394.045 182.803 393.259 182.803 392.754 182.635C392.08 182.466 391.519 181.961 391.183 181.344C390.734 181.849 389.836 181.68 389.555 181.119C389.499 180.951 389.443 180.838 389.443 180.67C389.443 180.614 389.443 180.502 389.443 180.445C389.443 180.333 389.387 180.221 389.331 180.165C389.275 179.996 389.219 179.772 389.219 179.547C389.219 179.435 389.219 179.323 389.219 179.21C389.219 179.098 389.219 179.042 389.162 178.93C389.331 178.986 389.555 178.93 389.724 178.874C389.892 178.818 390.06 178.705 390.173 178.593C390.453 178.312 390.621 177.919 390.734 177.583C390.958 176.797 390.902 175.786 390.06 175.393C389.667 175.169 388.545 175.169 388.096 175.281C387.647 175.393 387.086 176.404 387.086 176.516C387.086 176.572 387.086 176.628 387.03 176.684C386.918 176.797 386.693 176.628 386.637 176.516C386.469 176.404 386.357 176.235 386.3 176.011C386.076 175.618 385.908 175.225 385.795 174.776C385.683 174.439 385.627 174.102 385.515 173.822C385.403 173.485 385.234 173.204 384.898 173.036C384.561 172.867 384.224 172.755 383.887 172.643C383.551 172.531 383.214 172.362 382.933 172.138C382.877 172.081 382.821 172.025 382.765 171.969C382.709 171.913 382.709 171.801 382.653 171.801C382.541 171.745 382.428 171.857 382.372 171.913C381.98 172.138 381.699 172.474 381.418 172.867C381.138 173.26 380.969 173.597 380.801 173.99C380.689 174.271 380.577 174.664 380.352 174.944C380.24 175.057 379.51 175.113 379.286 175C379.061 174.888 378.781 174.664 378.725 174.495C378.669 174.327 378.613 174.158 378.669 173.99C378.669 173.878 378.725 173.765 378.781 173.709C378.781 173.597 378.837 173.541 378.837 173.485C378.893 173.316 379.061 173.204 379.23 173.204C379.061 173.036 378.893 172.867 378.837 172.643C378.725 172.418 378.669 172.138 378.613 171.913C378.613 171.745 378.613 171.52 378.725 171.352C378.837 171.183 379.005 171.071 379.23 170.959C378.949 170.734 378.725 170.51 378.556 170.229C378.051 169.724 377.827 169.05 377.995 168.433Z" fill="#9E180A"/>
<path d="M380.689 194.76L370.7 189.315C369.017 187.35 367.389 185.834 365.818 184.712C365.313 184.487 364.471 184.375 365.257 185.834C366.042 187.294 366.828 188.809 366.435 189.258C366.042 189.708 364.976 189.09 364.527 189.82C364.191 190.325 365.93 191.055 369.746 192.121L377.041 198.689L380.689 194.76Z" fill="#F2B3A7"/>
<path d="M386.132 193.974C382.653 193.918 377.995 193.188 373.001 190.044L371.037 194.423C374.46 197.847 379.286 200.654 383.494 200.485C386.861 200.373 388.545 196.331 386.132 193.974Z" fill="#0981D3"/>
<path d="M347.917 179.323C352.406 178.312 356.839 177.021 361.329 175.842C361.89 175.674 364.078 174.776 364.471 175C364.471 175 364.864 177.358 364.92 178.032C365.145 180.277 365.481 182.522 365.818 184.712C366.042 186.283 366.267 187.574 366.379 188.304C366.435 188.473 366.435 188.585 366.435 188.697C366.435 188.922 366.435 189.09 366.323 189.202C365.93 189.651 364.864 189.034 364.415 189.764C364.134 190.157 365.201 190.718 367.501 191.448C368.736 194.367 373.001 200.541 373.394 201.047C369.971 202.562 366.547 204.078 363.124 205.537C362.283 205.93 357.232 208.344 356.334 208.063C355.436 207.839 354.09 205.032 353.36 203.517C351.621 199.868 350.274 195.995 349.32 192.065C349.151 190.999 347.019 179.547 347.917 179.323Z" fill="#F9E8E8"/>
<path d="M362.788 207.334C360.88 205.986 359.14 205.032 357.513 204.583C354.426 203.741 353.136 203.067 351.62 201.103C350.779 200.092 350.105 197.959 350.891 197.286C351.396 196.837 354.482 199.082 355.717 199.363C356.952 199.643 355.829 196.668 356.503 196.949C357.344 196.949 358.074 198.128 358.691 200.485L363.068 202.899L362.788 207.334Z" fill="#F2B3A7"/>
<path d="M379.51 204.078C375.807 204.976 369.578 203.909 360.824 200.822C358.635 205.313 357.681 208.512 357.793 210.421C365.313 214.35 371.71 216.091 376.985 216.203C376.817 219.346 377.21 222.321 378.5 225.072C381.138 230.685 396.57 225.465 401.789 226.532C405.043 215.978 398.758 211.656 398.758 204.92C398.758 197.51 392.81 186.115 391.912 186.115H383.944C383.551 191.728 381.362 197.959 379.51 204.078Z" fill="#1898FC"/>
<path d="M380.015 177.246C380.184 178.144 378.949 178.705 378.837 179.491C378.669 180.502 379.903 180.726 380.52 180.895" fill="#F2B3A7"/>
<path d="M380.464 182.298C380.801 182.13 381.026 182.073 381.306 181.905C381.587 181.793 381.867 181.624 382.204 181.568C382.036 181.905 381.811 182.13 381.474 182.298C381.138 182.41 380.745 182.466 380.464 182.298Z" fill="#9E180A"/>
<path d="M380.913 176.46C380.913 176.235 380.969 175.955 381.25 175.842C381.474 175.73 381.755 175.73 381.98 175.786C382.428 175.955 382.821 176.235 383.046 176.628C382.597 176.516 382.204 176.348 381.867 176.235C381.699 176.179 381.531 176.123 381.362 176.179C381.25 176.123 381.082 176.292 380.913 176.46Z" fill="#9E180A"/>
<path d="M381.699 177.302C381.854 177.302 381.979 177.176 381.979 177.021C381.979 176.866 381.854 176.741 381.699 176.741C381.544 176.741 381.418 176.866 381.418 177.021C381.418 177.176 381.544 177.302 381.699 177.302Z" fill="#9E180A"/>
</svg>
