<svg fill="none" height="191" width="186" xmlns="http://www.w3.org/2000/svg"><filter id="a" color-interpolation-filters="sRGB" filterUnits="userSpaceOnUse" height="189.36" width="184.511" x=".933" y=".916"><feFlood flood-opacity="0" result="BackgroundImageFix"/><feColorMatrix in="SourceAlpha" result="hardAlpha" values="0 0 0 0 0 0 0 0 0 0 0 0 0 0 0 0 0 0 127 0"/><feOffset dx="1.084" dy="1.084"/><feGaussianBlur stdDeviation="1.084"/><feColorMatrix values="0 0 0 0 0.129412 0 0 0 0 0.129412 0 0 0 0 0.129412 0 0 0 0.5 0"/><feBlend in2="BackgroundImageFix" result="effect1_dropShadow_17863_419190"/><feBlend in="SourceGraphic" in2="effect1_dropShadow_17863_419190" result="shape"/></filter><g filter="url(#a)"><path d="M151.74 18.839c1.512-1.787 2.543-3.918 2.337-6.323-.481-6.942-10.172-5.43-12.096-1.925-1.856 3.505-1.65 12.44.756 13.059.962.275 3.024-.344 5.154-1.65l-1.305 9.348h7.835z" fill="#ac5419"/><path d="M138.544 5.711a1.671 1.671 0 0 1 1.169-1.168c.137-.069.275-.069.412-.069h.069v-.137c0-.07.069-.206.069-.275.137-.344.343-.619.55-.894a2.885 2.885 0 0 1 1.718-.824c.343 0 .687 0 1.031.137.206.069.343.138.481.206.069 0 .206.138.275.138s.137-.138.206-.206A3.215 3.215 0 0 1 146.448 2c.757 0 1.513.069 2.2.55.137.069.275.206.412.343l.206.207.138.137c.069.069.069.069.137.069.344-.206.688-.275 1.031-.206.207 0 .413.068.619.206.069 0 .206.137.275.137s.206-.137.275-.137c.412-.138.825-.206 1.237-.138.412.07.893.275 1.237.482.206.137.344.274.481.412.069.069.069.137.138.206.068.069.137.069.137.138 0 0 .481-.207.55-.207.275-.068.481-.068.756 0 .481.138.825.482 1.168.825.138.206.275.344.413.55.069.069.137.206.137.275s.069.137.069.137c.069.07.069.07.137.07.344.137.688.343.963.618.275.275.412.687.481 1.03v.138h.137c.069 0 .206 0 .275.069.206.069.344.069.481.206.619.344 1.1.894 1.306 1.58.206.688.206 1.513-.069 2.132-.068.137-.068.206-.137.343-.069.069-.069.069 0 .138 0 .068.069.137.137.206.138.206.207.481.207.687.068.413.137.825.068 1.237-.068.207-.068.344-.206.55-.069.069-.137.138-.137.275 0 .069-.069.069-.138.138l-.068.068c-.069.069-.069 0 0 .069 0 .138.068.206.137.344.069.137.069.206.137.343.069.206.138.481.207.756.068.481.068.963-.138 1.444-.069.206-.206.343-.412.48-.069.07-.138.138-.275.138-.069 0-.138 0-.138.069v.206c.069.481.138.962-.068 1.444a2.143 2.143 0 0 1-.825 1.1 2.453 2.453 0 0 1-2.474.068c-.207-.138-.413-.206-.55-.412-.413.55-1.306.55-1.925.412-.756-.206-1.374-.756-1.787-1.443-.481.618-1.512.412-1.855-.275-.069-.138-.138-.344-.138-.481v-.275c0-.138-.069-.206-.137-.344-.069-.206-.138-.481-.138-.687v-.344c0-.137 0-.206-.069-.344.207 0 .413 0 .619-.068.206-.07.344-.206.481-.344.275-.344.481-.756.619-1.168.275-.894.137-1.994-.756-2.475-.413-.206-1.719-.206-2.2-.137-.55.137-1.168 1.306-1.168 1.443 0 .069 0 .138-.069.206-.137.07-.344-.068-.481-.137-.206-.138-.275-.344-.412-.55a8.088 8.088 0 0 1-.55-1.375c-.138-.343-.138-.756-.275-1.1-.138-.343-.344-.687-.687-.893-.344-.206-.757-.343-1.169-.48s-.756-.276-1.1-.62l-.206-.206c-.069-.069-.069-.206-.137-.206-.069-.069-.275.069-.344.138-.412.275-.756.687-1.1 1.1-.275.412-.549.824-.687 1.305-.137.344-.206.756-.481 1.031-.137.138-.962.206-1.237.069s-.55-.412-.688-.55c-.068-.206-.137-.412-.068-.55 0-.137.068-.206.068-.343 0-.07.069-.207.069-.275.069-.138.275-.275.413-.344-.207-.206-.344-.412-.482-.619a1.836 1.836 0 0 1-.206-.824c0-.207 0-.413.138-.619.137-.206.343-.344.55-.481a2.926 2.926 0 0 1-.756-.825c-.207-.687-.413-1.443-.207-2.13z" fill="#212121"/><path d="M140.948 15.884c0 1.169-1.168 2.131-1.099 3.23l1.443.207" fill="#ac5419"/><path d="M141.227 20.97c.412.137.824.068 1.168-.138s.619-.481.687-.894a6.23 6.23 0 0 1-.962.481c-.206.207-.55.344-.893.55zM142.945 15.333a.782.782 0 0 0-.206-.55c-.138-.137-.344-.206-.55-.206s-.413 0-.619.07a.517.517 0 0 0-.343.48c.206-.069.343-.069.481-.137h.412c.138 0 .275.068.412.068.069.138.207.138.413.275zM141.644 16.434a.344.344 0 1 0-.01-.688.344.344 0 0 0 .01.688z" fill="#212121"/><path d="m141.57 35.54-11.34-6.186c-1.856-2.2-3.712-3.986-5.568-5.223-.549-.207-1.512-.344-.618 1.237.893 1.65 1.787 3.368 1.306 3.849-.481.48-1.65-.206-2.2.618-.343.55 1.581 1.444 5.911 2.612l8.248 7.492z" fill="#ac5419"/><path d="M147.757 34.647c-3.987-.069-9.21-.893-14.915-4.467l-2.199 4.948c3.917 3.85 9.347 7.01 14.158 6.873 3.78-.137 5.705-4.673 2.956-7.354z" fill="#443023"/><path d="M104.457 18.084c5.086-1.169 10.172-2.612 15.189-3.918.619-.137 3.162-1.168 3.574-.962 0 0 .481 2.68.55 3.436.275 2.543.687 5.086 1.031 7.63.275 1.718.481 3.23.619 4.055 0 .206.068.343.068.412 0 .275 0 .412-.137.55-.481.48-1.65-.206-2.2.618-.275.413.894 1.031 3.506 1.925 1.374 3.299 6.185 10.31 6.735 10.86-3.917 1.718-7.766 3.436-11.684 5.085-.962.413-6.667 3.162-7.698 2.887s-2.543-3.436-3.368-5.155c-1.993-4.124-3.505-8.522-4.536-12.99-.275-1.237-2.68-14.227-1.649-14.433z" fill="#fca306"/><path d="M121.984 52.723c-2.337-1.65-4.467-2.818-6.461-3.368-3.849-1.03-5.361-1.856-7.216-4.261-1.031-1.306-1.856-3.85-.894-4.674.619-.55 4.399 2.2 5.911 2.543 1.512.344.137-3.299.962-2.955 1.031 0 1.925 1.443 2.681 4.33l5.361 2.955z" fill="#ac5419"/><path d="M140.266 46.126c-4.193 1.031-11.272-.206-21.17-3.711-2.474 5.086-3.574 8.729-3.436 10.86 8.523 4.467 15.739 6.391 21.788 6.529-.207 3.574.275 6.942 1.718 10.034 3.024 6.392 20.482.482 26.393 1.65 3.711-11.96-3.437-16.84-3.437-24.537 0-8.385-6.736-21.307-7.767-21.307h-9.072c-.481 6.461-2.955 13.472-5.017 20.482zM173.051 149.154H14.901v2.475h158.15z" fill="#443023"/><path d="M173.052 151.561H14.902v7.698h158.15zM5.76 67.363v-7.285h176.432v7.285H11.464z" fill="#5a483c"/><path d="M178.206 122.488H9.814v26.599h168.392zM178.207 70.392H9.817v50.517h168.39z" fill="#eee7e5"/><path d="M178.206 120.908H9.814v1.581h168.392z" fill="#5a483c"/><path d="M178.207 67.365H9.817v3.024h168.39z" fill="#443023"/><path d="m79.232 54.512 14.709 1.787c.343-1.375 3.711-20.688 3.711-20.688l-15.12-1.581s-.757 4.88-1.581 9.897c-.069.55-.206 1.1-.275 1.719-.069.412-.138.893-.206 1.306-.07.206-.07.412-.138.618-.069.344-.137.687-.137 1.031v.344c0 .137.137.275.206.412.481.55 1.787-.206 2.405.687.275.413-.756 1.031-3.161 1.856-.206 1.306-.344 2.268-.413 2.612z" fill="#ea8003"/><path d="M83.15 70.182c2.337-1.718 4.536-2.818 6.53-3.368 3.849-1.1 5.43-1.924 7.354-4.33 1.03-1.306 1.856-3.849.893-4.743-.618-.55-4.398 2.269-5.98 2.544-1.58.343-.137-3.368-.961-2.956-1.031 0-1.994 1.512-2.75 4.399l-5.43 3.024z" fill="#ffe0cb"/><path d="m39.988 86.608 17.183 45.431 12.028 33.472h6.873L59.508 86.608z" fill="#443023"/><path d="M35.795 86.608c-.206 15.602-.068 36.565-.48 37.527-.275.618-9.28 8.041-27.08 22.131l3.505 6.049c21.1-13.609 32.166-21.307 33.197-23.094 1.65-2.749 9.76-27.699 13.952-42.613z" fill="#443023"/><path d="m2.017 150.352 5.956-4.557 4.811 5.743c.401 4.331 1.78 9.188 4.33 14.586l-1.105.929-8.695-10.379-2.476-4.025-.526.442zM68.582 171.903l.344-7.492h7.491c3.574 2.475 8.18 4.537 13.953 6.049v1.443H76.83l-4.674-.687v.687z" fill="#b3a7a1"/><path d="M49.68 34.099c-1.65-1.925-2.75-4.33-2.543-6.942.55-7.629 11.203-5.98 13.265-2.13 2.062 3.848 1.855 13.608-.825 14.364-1.1.275-3.368-.412-5.636-1.787l1.443 10.241h-8.591z" fill="#ffe0cb"/><path d="M56.965 20.834c-1.168-.344-2.887-.481-3.574-.413a5.96 5.96 0 0 0 .413-3.093c-.138-1.03-.62-1.924-1.031-2.818-.207-.412-.413-.824-.757-1.168a2.133 2.133 0 0 0-1.237-.619c-.48-.137-.962-.068-1.374 0-.207.07-.413.138-.55.206-.206.07-.275-.068-.481-.206-.344-.275-.894-.48-1.306-.55a2.9 2.9 0 0 0-1.512.207 2.473 2.473 0 0 0-1.237.824 1.497 1.497 0 0 0-.344.55c-.069.069-.069.138-.138.207-.068 0-.206 0-.274.068a3.056 3.056 0 0 0-1.856 1.719c-.206.48-.344 1.305-.275 2.199 0 .893.893 3.368 1.65 4.192.687.756 1.718 1.306 2.68 1.513-.687.756-1.1 1.718-1.443 2.611-.344 1.031-.55 2.131-.619 3.23-.069 1.032-.069 2.131.138 3.162.206.963.687 1.719 1.512 2.2.343.206.756.412 1.168.55l1.237.412c.756.137 1.718.137 2.337-.481.206-.206.481-.481.619-.756.068-.069.068-.138 0-.275-.07-.138-.207-.206-.344-.275-.619-.55-.962-1.237-1.1-2.062-.068-.825.138-1.924.962-2.268 1.032-.481 2.131.069 3.025.55.412-1.306 1.168-2.543 2.405-3.162 1.375-.687 2.887-.756 4.262-1.375.343-.137.756-.343.962-.618.137-.138.275-.275.275-.481.069-.206-.069-.413-.206-.619-.55-.962-2.75-2.818-3.987-3.161z" fill="#443023"/><path d="M61.636 30.732c-.068 1.306 1.1 2.337 1.306 3.574.138 1.306-1.443.893-2.336 1.168" fill="#ffe0cb"/><path d="M61.09 36.779c-.413.137-.825.068-1.238 0-.412-.138-.687-.275-1.03-.275l.343-.275c0 .137 0 .206.069.344.068.137.206.274.343.48.138.138.275.344.413.482.137.206.275.343.343.618-.343-.275-.756-.412-1.168-.687-.206-.137-.344-.275-.55-.55-.137-.206-.275-.55-.206-.893l.069-.275h.275c.48.068.824.275 1.168.48.481.276.756.482 1.168.55zM60.467 30.939a.412.412 0 1 0 0-.825.412.412 0 0 0 0 .825zM61.226 29.496c-.206-.137-.412-.137-.55-.137H58.82c.069-.276.344-.413.55-.55s.481-.138.688-.138c.274 0 .48.069.756.206.274.07.48.344.412.619z" fill="#443023"/><path d="m62.738 56.23 12.372-6.804c2.062-2.475 4.124-4.33 6.117-5.705.619-.275 1.65-.413.687 1.374-1.03 1.787-1.993 3.712-1.443 4.262.481.55 1.787-.207 2.406.687.412.619-1.787 1.58-6.53 2.887l-9.004 8.247z" fill="#ffe0cb"/><path d="M56.69 54.72c4.33-.07 10.103-.963 16.289-4.88l2.405 5.43c-4.261 4.26-10.24 7.697-15.464 7.56-4.124-.138-6.255-5.155-3.23-8.11z" fill="#443023"/><g fill="#b3a7a1"><path d="M62.53 63.378c4.605 1.169 12.371-.206 23.162-4.055 2.68 5.567 3.918 9.554 3.712 11.89-9.28 4.88-17.252 7.011-23.85 7.149.206 3.917-.275 7.629-1.856 10.997-3.299 6.942-22.475.48-28.936 1.787-4.055-13.128 3.78-18.489 3.78-26.874 0-9.21 7.424-23.369 8.454-23.369h9.898c.618 7.08 3.368 14.846 5.636 22.475zM105.352 119.668c-2.268 1.168-4.673 2.268-7.148 3.093-12.784 4.536-44.469 4.536-57.253.137a56.776 56.776 0 0 1-7.56-3.23l-1.856 2.062c2.475 1.306 5.086 2.405 7.767 3.368 6.667 2.337 22.887 3.574 30.379 3.574 7.629 0 23.231-1.237 30.035-3.712 2.543-.893 5.018-1.993 7.423-3.23z"/><path d="M39.505 185.923c-.756-.756-2.405-1.237-4.33-1.237h-2.13v-65.02H28.44V184.617h-2.131c-1.925 0-3.574.55-4.33 1.237-.275.275-.413.55-.413.894v.275H39.85v-.275c0-.275-.138-.55-.344-.825z"/><path d="M34.418 118.91H32.15v-7.423h-2.818v7.423h-2.2a.616.616 0 0 0-.618.619c0 .343.275.618.618.618h2.2v.894h2.818v-.894h2.268a.616.616 0 0 0 .618-.618.616.616 0 0 0-.618-.619z"/><path d="M32.565 105.371a5.253 5.253 0 0 0-1.856-.343c-1.924 0-3.505 1.099-4.123 2.611-.138.413-.275.825-.275 1.306 0 2.131 1.924 3.849 4.33 3.849s4.33-1.718 4.33-3.849c.068-1.649-.894-2.955-2.406-3.574zM116.277 185.579c-.756-.756-2.406-1.237-4.33-1.237h-2.131v-65.02h-4.605v65.02h-2.131c-1.924 0-3.574.55-4.33 1.237-.275.275-.412.55-.412.894v.274h18.282v-.274c0-.344-.137-.619-.343-.894z"/><path d="M111.189 118.636h-2.268v-7.423h-2.818v7.423h-2.199a.616.616 0 0 0-.619.619c0 .343.275.618.619.618h2.199v.894h2.818v-.894h2.268a.616.616 0 0 0 .619-.618.616.616 0 0 0-.619-.619z"/><path d="M109.339 105.029a5.255 5.255 0 0 0-1.856-.344c-1.925 0-3.506 1.1-4.124 2.612-.138.412-.275.825-.275 1.306 0 2.13 1.924 3.849 4.33 3.849s4.33-1.719 4.33-3.849c.069-1.65-.893-2.956-2.405-3.574z"/></g></g></svg>