<svg fill="none" height="176" width="229" xmlns="http://www.w3.org/2000/svg"><filter id="a" color-interpolation-filters="sRGB" filterUnits="userSpaceOnUse" height="175.808" width="242.047" x="0" y=".184"><feFlood flood-opacity="0" result="BackgroundImageFix"/><feColorMatrix in="SourceAlpha" result="hardAlpha" values="0 0 0 0 0 0 0 0 0 0 0 0 0 0 0 0 0 0 127 0"/><feOffset dx="1" dy="1"/><feGaussianBlur stdDeviation="1"/><feColorMatrix values="0 0 0 0 0.129412 0 0 0 0 0.129412 0 0 0 0 0.129412 0 0 0 0.4 0"/><feBlend in2="BackgroundImageFix" result="effect1_dropShadow_17863_420191"/><feBlend in="SourceGraphic" in2="effect1_dropShadow_17863_420191" result="shape"/></filter><g filter="url(#a)"><path d="M177.298 124.508v-21.212l-24.576-12.059v19.421z" fill="#428edd"/><path d="m177.298 103.296 38.614-7.8v19.62l-38.614 9.392z" fill="#7cc1ef"/><path d="m152.722 91.237 36.144-6.486 27.046 10.745-38.614 7.8z" fill="#c4e8f8"/><path d="M202.286 113.604v4.815l-10.827 2.627v-5.055zM203.026 104.172v-6.09L177.298 86.82l-10.086 1.83 23.629 11.9v6.447z" fill="#fff" opacity=".4"/><path d="M198.005 99.117 172.77 87.655l-.618.12 25.235 11.462z" fill="#fff"/><path d="M187.178 100.47V86.86l15.766-7.721v12.457z" fill="#7cc1ef"/><path d="m187.177 86.86-24.74-4.975v12.576l24.74 6.009z" fill="#428edd"/><path d="M202.944 79.139 179.767 75l-17.33 6.885 24.74 4.975z" fill="#c4e8f8"/><path d="M171.164 93.466v3.104l6.957 1.672v-3.224zM170.711 87.457v-3.9l16.466-7.244 6.463 1.194-15.149 7.602v4.138z" fill="#fff" opacity=".4"/><path d="m173.923 84.193 16.137-7.323.412.04-16.179 7.362z" fill="#fff"/><path d="M126.746 126.02V90.76l17.702-9.074v33.907z" fill="#c4e8f8"/><path d="M126.746 90.76 99 84.91v34.066l27.746 7.044z" fill="#7cc1ef"/><path d="M144.447 81.686 118.43 76.79 99 84.91l27.746 5.85z" fill="#eef8ff"/><path d="M108.839 117.822v3.621l7.78 1.99v-3.82zM108.304 91.436v-4.577l18.442-8.516 7.287 1.392-17.002 8.955v4.855z" fill="#fff" opacity=".4"/><path d="m111.885 87.616 18.113-8.636.494.08-18.154 8.635z" fill="#fff"/><path d="M153.381 127.532v-13.093l14.49-7.442v12.019z" fill="#c4e8f8"/><path d="m153.381 114.439-22.724-4.815v12.138l22.724 5.77z" fill="#7cc1ef"/><path d="m167.871 106.997-21.282-3.98-15.932 6.606 22.724 4.816z" fill="#eef8ff"/><path d="M138.684 120.807v2.984l6.38 1.632v-3.104zM138.272 114.996v-3.741l15.108-6.964 5.969 1.114-13.914 7.363v3.979z" fill="#fff" opacity=".4"/><path d="m141.195 111.852 14.861-7.044.371.04-14.861 7.084z" fill="#fff"/><path d="m200.679 115.474-1.77-6.009 21.695-.955 2.552 5.412z" fill="#eef8ff"/><path d="M200.68 115.434v15.919l22.476-1.751v-15.68z" fill="#073099"/><path d="m207.801 118.38-7.121-2.906v15.919l7.121 3.662z" fill="#7cc1ef"/><path d="m232.789 116.708-9.633-2.786v15.68l9.633 3.264z" fill="#8c694d"/><path d="m207.802 118.34-6.134-5.055-6.957-2.587 5.969 4.776z" fill="#c4e8f8"/><path d="m232.789 116.708 6.257-5.174-9.674-2.029-6.216 4.417z" fill="#eef8ff"/><path d="m207.802 118.34 2.552-4.696 25.77-1.393-3.334 4.457z" fill="#7cc1ef"/><path d="M207.802 118.38v16.675l24.988-2.189v-16.158zM204.384 130.717l2.265-7.721-27.788-1.234-3.252 6.965z" fill="#eef8ff"/><path d="M204.384 130.677V138l-28.775-2.547v-6.726z" fill="#073099"/><path d="m195.246 134.418 9.139-3.701v7.163l-9.139 4.696z" fill="#eef8ff"/><path d="m163.26 132.269 12.35-3.542v6.885l-12.35 4.179z" fill="#8c694d"/><path d="m195.246 134.378 7.863-6.487 8.933-3.303-7.657 6.129z" fill="#7cc1ef"/><path d="m163.26 132.269-7.987-6.606 12.391-2.627 7.945 5.691z" fill="#eef8ff"/><path d="m195.246 134.378-3.252-6.009-33.015-1.791 4.281 5.691z" fill="#c4e8f8"/><g fill="#7cc1ef"><path d="M195.246 134.418v8.158l-31.986-2.825v-7.482zM135.515 90.521c-.165.04-.33.08-.453.239-.124.12-.165.279-.206.438-.041.318.041.676.165.995.123.318.288.597.494.835.205.24.494.478.658.398.206-.04.371-.358.453-.636.082-.319.124-.637.124-.955-.042-.319-.083-.677-.289-.956-.082-.119-.247-.238-.411-.318a.828.828 0 0 0-.535-.04zm0 0c.329-.08.741.04.946.319.247.278.371.597.453.955.083.358.083.716.041 1.074a1.54 1.54 0 0 1-.205.557.889.889 0 0 1-.494.438c-.247.08-.494-.04-.659-.159s-.288-.278-.412-.438a3 3 0 0 1-.411-.995 2.18 2.18 0 0 1 0-1.034c.082-.398.37-.717.741-.717zM137.985 92.75c-.165-.637-.33-1.234-.412-1.87a4.035 4.035 0 0 1 0-.996c.041-.159.041-.358.123-.517.083-.16.206-.358.412-.438s.412-.08.659 0c.206.08.37.24.453.398.205.319.288.637.37.955.165.637.165 1.274.165 1.91-.165-.636-.288-1.273-.494-1.83-.083-.278-.206-.597-.371-.796-.164-.239-.37-.318-.617-.239-.206.08-.288.359-.371.637-.041.279-.041.597-.041.915.041.597.124 1.234.124 1.87zM141.073 88.173c-.124-.08-.247-.159-.412-.159a.377.377 0 0 0-.329.16c-.165.198-.165.477-.124.755 0 .12.041.279.082.319h.083c.041 0 .123 0 .206-.04.288-.04.699-.12 1.029.08.329.238.411.596.494.875.041.318.041.637-.124.955-.123.16-.288.239-.411.319a2.07 2.07 0 0 1-.453.159c-.165.04-.33.04-.494 0-.083 0-.165-.04-.206-.12s-.082-.159-.082-.199c.041.16.164.24.288.24.123 0 .288-.04.411-.08.247-.08.536-.279.659-.438.082-.2.082-.478.041-.756-.041-.24-.164-.518-.329-.637s-.453-.12-.741-.04c-.082 0-.165.04-.247 0a.558.558 0 0 1-.329-.12c-.165-.198-.165-.358-.165-.517 0-.318.082-.636.329-.915.124-.12.33-.199.494-.12.124.08.247.2.33.28zM133.251 92.55c-.206-.079-.453-.158-.618-.118-.206.04-.288.278-.37.477-.165.398-.206.796-.165 1.234.082.398.247.796.535 1.074.124.16.288.279.494.358.165.08.33.08.412 0s.165-.318.206-.477c.041-.199.041-.398.041-.597 0-.398-.124-.836-.247-1.274l-.247-1.313c-.041-.438-.124-.875-.124-1.313.165.875.412 1.711.659 2.547.124.398.288.836.329 1.313.042.239 0 .478-.041.716-.082.24-.123.438-.329.677-.124.12-.288.16-.453.16s-.288-.04-.412-.12c-.247-.12-.411-.279-.576-.438-.329-.358-.494-.836-.535-1.273-.041-.478.041-.956.288-1.354.124-.159.247-.437.494-.477s.453.08.659.199zM220.687 120.449a.69.69 0 0 0-.494.08c-.165.079-.247.238-.329.358-.165.318-.206.637-.206.995 0 .318.082.676.164.955.124.279.289.597.494.597.206.04.453-.199.659-.478.206-.278.329-.557.412-.875.082-.319.123-.677.041-.995a.756.756 0 0 0-.288-.438c-.124-.119-.289-.159-.453-.199zm0 0c.37.04.7.279.823.597.124.318.165.677.124 1.035a3.073 3.073 0 0 1-.33 1.035 1.251 1.251 0 0 1-.37.437c-.165.12-.371.239-.618.239a.953.953 0 0 1-.576-.358c-.123-.159-.165-.358-.247-.517-.082-.359-.082-.717-.041-1.075s.165-.716.329-.995a.87.87 0 0 1 .906-.398zM222.251 123.354c.041-.636.082-1.273.247-1.91.082-.318.165-.637.329-.955.083-.159.165-.318.288-.438.124-.119.33-.278.536-.278a.729.729 0 0 1 .617.199.937.937 0 0 1 .288.517c.083.358.083.677.041 1.035-.082.636-.288 1.273-.494 1.87.042-.637.124-1.273.165-1.91 0-.318 0-.637-.082-.876-.083-.278-.247-.437-.494-.398-.206 0-.412.239-.535.518-.165.278-.247.557-.371.835-.165.558-.329 1.194-.535 1.791zM226.697 120.011c-.082-.119-.205-.238-.329-.278a.41.41 0 0 0-.37.04c-.206.159-.33.398-.371.676-.041.119-.041.279 0 .318 0 0 .041.04.082.04.042 0 .124.04.206.04.288.04.7.08.947.398s.206.677.165.995c-.083.318-.165.637-.453.876-.165.119-.329.159-.494.159h-.494c-.165-.04-.329-.08-.453-.159-.082-.04-.123-.12-.165-.199-.041-.08 0-.16 0-.239 0 .159.083.278.206.318.124.04.288.08.412.04.288 0 .617-.08.741-.199.165-.159.247-.438.288-.716.041-.239 0-.558-.123-.717-.124-.159-.371-.239-.659-.278-.082 0-.165-.04-.247-.08s-.206-.119-.288-.239c-.083-.239 0-.398.041-.557.082-.318.288-.597.576-.756.165-.08.371-.08.494.04.165.199.247.318.288.477zM217.846 121.683c-.164-.12-.37-.279-.576-.279s-.329.159-.494.319c-.288.318-.494.716-.535 1.114s-.041.836.123 1.194c.083.159.206.358.33.477.123.12.288.199.37.12.124-.04.288-.239.371-.398.123-.159.205-.358.247-.557.123-.398.123-.836.205-1.274.042-.438.124-.875.206-1.313.083-.438.206-.876.33-1.274a18.746 18.746 0 0 0-.206 2.627c0 .438-.041.875-.124 1.353-.041.239-.164.438-.288.637-.123.199-.247.398-.535.557a.538.538 0 0 1-.494 0c-.165-.04-.247-.159-.329-.239-.165-.199-.288-.398-.412-.597-.165-.438-.206-.955-.082-1.393.123-.438.37-.875.699-1.194.165-.119.371-.318.659-.278.206.04.371.239.535.398zM45.96 75.448l20.296 51.935 14.243 38.285h8.11l-19.554-90.22z"/></g><path d="M40.937 75.448c-.205 17.829-.04 41.827-.576 42.941-.33.756-10.991 9.193-31.986 25.311l4.158 6.845c24.905-15.521 37.996-24.316 39.272-26.385 1.894-3.105 11.527-31.68 16.508-48.712z" fill="#c4e8f8"/><path d="m1 148.272 7.017-5.17 5.699 6.564c.442 4.947 2.173 10.514 5.138 16.641l-1.287 1.044-10.338-11.905-2.866-4.595-.66.535zM79.758 172.991l.412-8.556h8.85c4.2 2.865 9.715 5.173 16.467 6.925v1.631H89.432l-5.475-.835v.835z" fill="#073099"/><path d="M56.911 16.07c-1.935-2.19-3.252-4.895-3.046-7.96.617-8.755 13.214-6.805 15.643-2.388 2.429 4.418 2.14 15.601-.988 16.397-1.276.318-3.952-.438-6.669-2.03l1.73 11.74H53.411z" fill="#ffcaa7"/><path d="M62.346 9.065c.37 5.214 1.4 7.84 3.087 7.84 2.511 0 4.61-1.552 5.722-1.552.782 0 .618.956.083 1.672-.453.597-2.553 1.154-2.553 2.07s1.688.198 1.688.756c0 .915.288 2.586-1.317 2.586-1.647 0-6.299-.557-7.122-2.905-.535-1.512-.864-4.656-.988-9.392h-.288c-1.4 0-2.552 1.114-2.552 2.467 0 .677.288 1.314.782 1.752a42.41 42.41 0 0 1-1.976 2.507c-2.84-1.632-5.352-6.447-2.594-11.064.782-2.268 2.923-3.462 4.981-4.02 1.647-.676 3.376-.756 4.817-.358 2.84.24 5.393 1.075 6.092 1.592 0 2.587-.535 3.383-4.98 3.303-1.153.518-1.977 1.473-2.882 2.746zM52.343 23.552c.082-.319.205-.637.288-.915l.37.159.165-.16 11.815 1.752c0 6.407 2.717 11.899 6.092 17.073 5.187 8.039 6.216 16.914.288 28.853-5.351 10.785-8.48 13.133-30.998 5.85 0-5.81.288-10.188 2.264-17.55.165-6.726 4.282-28.177 9.716-35.062z" fill="#073099"/><path d="M59.26 61.558c-.083.24-.124.478-.206.717-13.503-8.955-13.503-19.82-9.51-31.997-3.005 11.979-1.77 22.087 9.716 31.28z" fill="#000" fill-opacity=".2"/><path d="M79.677 41.023c-4.776-1.035-11.074-.2-15.15 1.632-1.276.597-2.47 1.432-3.21 2.547-.453.676-.865 1.592-.824 2.427.124 1.91 3.581 1.831 4.981 1.99 3.993.478 8.192.358 12.144-.278 2.1-.359 4.61-.796 6.38-1.99 1.071-.717 2.43-1.91 1.977-3.343-.33-1.075-1.606-1.672-2.594-2.03-.946-.318-2.675-.716-3.705-.955z" fill="#ce3a5e"/><path d="M63.005 39.152c.04.04.082.04.123.04s.082 0 .123.08c0 .08-.04.08-.082.08-.247.079-.247.119-.123.357.123.2.329.359.576.478.33.16.7.318 1.03.517.246.16.452.279.658.478.453.358.823.756 1.029 1.273.124.28.206.597.247.916.082.477.124.915.124 1.393 0 .239 0 .477.04.716 0 .279.124.517.248.756.082.24.206.438.288.677.082.199.206.398.288.597.123.239.206.477.33.716.164.319.329.637.452.995l.37.716c.124.28.248.518.371.796.082.24.206.438.288.677.124.318.288.637.412.955.165.438.33.915.453 1.353.04.239.123.438.164.677.042.199.083.398.124.557.041.239.041.517.041.756 0 .398-.082.756-.33 1.075-.37.437-1.11.676-1.646.398-.123-.08-.123-.08-.206.08-.206.477-.617.755-1.152.795-.288.04-.577 0-.865-.159-.041-.04-.082 0-.123.04a1.232 1.232 0 0 1-.947.557c-.535.08-.906-.12-1.276-.438-.206-.159-.33-.358-.494-.597-.247-.358-.412-.756-.577-1.154a5.548 5.548 0 0 1-.37-1.075c-.124-.437-.247-.835-.33-1.273a8.556 8.556 0 0 1-.205-.995c-.083-.358-.124-.677-.206-1.035-.082-.318-.124-.636-.206-.955-.082-.398-.165-.796-.206-1.234a5.466 5.466 0 0 0-.164-.796c-.042-.199-.083-.358-.083-.557a2.256 2.256 0 0 1-.082-.517c-.041-.279-.124-.557-.288-.756-.083-.16-.206-.319-.288-.438-.247-.358-.494-.677-.66-1.075a3.312 3.312 0 0 1-.37-.875c-.123-.358-.123-.756-.082-1.114.041-.518.206-1.035.412-1.513.123-.318.288-.597.453-.875.123-.2.205-.438.247-.677 0-.12-.042-.239-.083-.358 0-.04-.041-.04-.082-.04s-.124.04-.165.04-.082 0-.123-.04v-.12c.04-.039.123-.039.123-.118h.041c.618-.2 1.277-.398 1.894-.597.247 0 .576-.08.865-.16z" fill="#c4e8f8"/><path d="M63.004 39.152c-.288.08-.577.16-.906.279-.618.199-1.276.398-1.894.597h-.04c-.083.04-.124 0-.165-.08 0-.12-.042-.199-.083-.278.041-.04.124-.04.165-.12-.082.04-.124.04-.165.04-.123-.477-.288-.915-.411-1.353-.042-.16 0-.279.205-.358.783-.239 1.606-.478 2.388-.716.165-.04.33.04.37.199l.371 1.193c0 .04.082.12.082.16-.164.04-.37.119-.535.159v.04c.206-.04.37-.12.535-.16 0 .04.041.12.083.16.04.08.04.119.082.199 0 0-.041 0-.082.04zm-1.482-.04c-.206.04-.412.12-.659.16.247-.04.453-.12.659-.16zm.082-.04c.206-.039.412-.119.659-.198-.247.04-.453.12-.659.199zm-1.44.438c.205-.04.41-.119.617-.159-.206.04-.412.08-.618.16z" fill="#ce3a5e"/><path d="M63.004 54.952c-.165-.597-.33-1.194-.453-1.79l-.618-3.105c-.164-.876-.164-1.87-.535-2.706-.206-.478-.576-.916-.864-1.353-.37-.597-.618-1.274-.659-1.99-.041-.518 0-1.672.535-1.91.206.358.083.875.041 1.313-.04.995.494 1.91 1.03 2.746.576.836.823 1.592 1.029 2.547.164.756.33 1.552.494 2.308.37 1.83.74 3.661 1.235 5.492.04.08.04.16 0 .239-.083.199-.412.08-.494-.04-.33-.557-.535-1.154-.741-1.751z" fill="#fff"/><path d="M82.27 35.013c0 .04.083.04.124.08.041.04.082.04.082.08 0 .079-.041.079-.123.079-.247.04-.288.08-.206.318.082.24.247.438.453.597l.864.717c.206.199.37.398.535.597.37.437.618.915.741 1.472.083.318.042.637.042.955 0 .478-.083.916-.206 1.393-.041.239-.083.438-.124.677-.041.278 0 .557.041.796.042.238.083.477.165.716.041.199.124.438.165.637.04.239.123.517.164.756l.247 1.074c.042.28.124.518.165.796.082.279.123.597.165.876.04.239.082.478.123.716.041.319.124.677.165.995.082.478.123.955.123 1.433v.676c0 .2-.04.398-.04.597 0 .24-.083.518-.124.757-.083.358-.247.716-.577.995-.453.358-1.235.398-1.729.04-.123-.12-.123-.08-.206.04-.329.437-.74.596-1.276.556a1.411 1.411 0 0 1-.782-.358c-.041-.04-.082-.04-.123 0-.289.279-.659.358-1.03.358-.535 0-.864-.318-1.152-.716a3.475 3.475 0 0 1-.33-.677 4.47 4.47 0 0 1-.288-1.233 5.136 5.136 0 0 1-.123-1.115c0-.437-.041-.875-.041-1.313v-1.035c0-.358.04-.716.04-1.034s0-.637.042-.956c.041-.398.041-.835.082-1.233.042-.279.042-.518.042-.796 0-.2 0-.358.04-.557v-.518c0-.278 0-.557-.123-.836-.082-.159-.123-.318-.206-.517-.164-.398-.288-.796-.411-1.194a7.719 7.719 0 0 1-.165-.955c-.041-.398.041-.756.165-1.114.164-.518.411-.955.74-1.393.207-.279.412-.518.66-.756.164-.16.329-.359.411-.597.041-.12 0-.24 0-.359 0-.04-.041-.04-.082-.04h-.165c-.041 0-.082 0-.082-.039s0-.08.04-.12.124-.04.166-.079h.04c.66-.04 1.318-.12 2.018-.16.247-.039.535-.039.864-.079z" fill="#7cc1ef"/><path d="M82.27 35.013c-.33.04-.618.04-.947.08-.659.04-1.317.12-2.017.16h-.041c-.124.039-.124-.04-.124-.12v-.319c.041-.04.124 0 .165-.08H79.1c0-.477-.082-.954-.123-1.392 0-.16.082-.279.247-.318.823-.08 1.687-.12 2.51-.2.165 0 .289.08.33.24.041.397.082.835.082 1.233 0 .08.041.12.041.16-.205 0-.37.039-.576.039v.04c.206 0 .37-.04.576-.04 0 .04 0 .12.042.16 0 .079 0 .119.04.198.083.12.042.16 0 .16zm-1.441-.358c-.206 0-.453 0-.659.04.206 0 .453 0 .659-.04zm.082 0c.206 0 .453-.04.659-.04-.206 0-.412 0-.659.04zm-1.482.12c.206 0 .453-.04.66-.04-.248 0-.454 0-.66.04z" fill="#ce3a5e"/><path d="M78.69 50.455c-.042-.597-.042-1.234-.042-1.831 0-1.035.041-2.11.123-3.144.042-.915.289-1.87.083-2.746-.124-.517-.37-.995-.535-1.512-.206-.677-.33-1.393-.206-2.07.082-.477.37-1.632.947-1.75.123.397-.124.875-.247 1.273-.247.955.04 1.95.37 2.865.37.955.453 1.711.412 2.706-.041.796-.041 1.592-.083 2.348-.04 1.87-.123 3.741-.082 5.612 0 .08 0 .159-.041.239-.124.199-.412 0-.453-.16a13.945 13.945 0 0 1-.247-1.83z" fill="#fff"/><path d="M70.126 37.68c0 .04.082.04.123.08s.083.04.083.08c0 .079-.041.079-.124.079-.247.04-.288.08-.206.318.083.239.247.438.453.597l.865.716c.206.2.37.398.535.597.37.438.617.916.74 1.473.083.318.042.637.042.955 0 .478-.082.915-.206 1.393-.041.239-.082.438-.123.676-.041.28 0 .558.04.796.042.24.083.478.165.717.042.199.124.438.165.637.041.238.124.517.165.756l.247 1.074c.04.279.123.518.164.796.083.279.124.597.165.876l.124.716c.04.319.123.677.164.995.083.478.124.955.124 1.433v.676c0 .2-.041.398-.041.597 0 .239-.083.518-.124.756-.082.359-.247.717-.576.995-.453.359-1.235.398-1.73.04-.123-.12-.123-.08-.205.04-.33.438-.741.597-1.276.557a1.411 1.411 0 0 1-.782-.358c-.042-.04-.083-.04-.124 0-.288.279-.659.358-1.029.358-.535 0-.865-.318-1.153-.716a3.48 3.48 0 0 1-.329-.677 4.47 4.47 0 0 1-.288-1.233 5.132 5.132 0 0 1-.124-1.115c0-.438-.04-.875-.04-1.313v-1.035c0-.358.04-.716.04-1.035 0-.318 0-.636.041-.955.042-.398.042-.835.083-1.233.041-.28.041-.518.041-.796 0-.2 0-.359.041-.558v-.517c0-.279 0-.557-.123-.836-.083-.159-.124-.318-.206-.517-.165-.398-.288-.796-.412-1.194a7.72 7.72 0 0 1-.164-.955c-.042-.398.04-.756.164-1.114.165-.518.412-.956.741-1.393a5.87 5.87 0 0 1 .659-.757c.164-.159.33-.358.411-.596.042-.12 0-.24 0-.359 0-.04-.04-.04-.082-.04h-.165c-.04 0-.082 0-.082-.04s0-.079.041-.119c.041-.04.124-.04.165-.08h.041c.659-.04 1.317-.119 2.017-.158.247-.04.577-.04.865-.08z" fill="#7cc1ef"/><path d="M70.125 37.68c-.329.04-.617.04-.947.08-.658.04-1.317.12-2.017.159h-.04c-.124.04-.124-.04-.124-.12v-.318c.04-.04.123 0 .164-.08h-.206c0-.477-.082-.955-.123-1.392 0-.16.082-.279.247-.319.823-.08 1.688-.12 2.511-.199.165 0 .288.08.33.239.04.398.082.836.082 1.234 0 .08.041.12.041.159-.206 0-.37.04-.576.04v.04c.205 0 .37-.04.576-.04 0 .04 0 .12.041.159 0 .08 0 .12.041.199.083.16.041.16 0 .16zm-1.44-.318c0-.04 0-.04 0 0-.206 0-.453 0-.66.04.248-.04.454-.04.66-.04zm.123-.04c.206 0 .453-.04.659-.04-.247 0-.453.04-.659.04zm-1.523.12c.206 0 .453-.04.659-.04-.206 0-.453.04-.66.04z" fill="#ce3a5e"/><path d="M66.544 53.121c-.042-.597-.042-1.233-.042-1.83 0-1.035.042-2.11.124-3.144.041-.916.288-1.87.082-2.746-.123-.518-.37-.995-.535-1.513-.206-.676-.33-1.392-.206-2.069.083-.478.37-1.632.947-1.751.124.398-.123.875-.247 1.273-.247.955.041 1.95.37 2.866.371.955.453 1.711.412 2.706-.04.796-.04 1.592-.082 2.348-.041 1.87-.124 3.741-.082 5.612 0 .08 0 .159-.042.238-.123.2-.411 0-.452-.159a13.09 13.09 0 0 1-.247-1.83z" fill="#fff"/><path d="M73.995 33.899c.041.04.083.04.124.04.041 0 .082 0 .123.08 0 .079-.04.079-.082.079-.247.08-.288.12-.123.358.123.239.329.358.576.478.33.159.659.318.988.557.247.159.453.318.659.477.452.359.782.796 1.029 1.314.123.318.164.636.247.915.082.478.082.915.082 1.393v.716c0 .279.124.518.206.796.082.239.206.438.288.677.082.199.206.398.288.597.124.239.206.477.33.716.164.318.288.677.452.995.124.239.206.478.33.756.123.279.247.557.37.796.082.239.206.438.288.677l.37.955c.165.438.33.915.412 1.393.042.239.124.438.165.676.041.2.041.398.082.557.042.24.042.518 0 .757-.04.398-.123.756-.37 1.074-.37.438-1.112.637-1.688.358-.123-.08-.123-.08-.206.08-.247.477-.617.716-1.152.796-.288.04-.577-.04-.824-.2-.04-.039-.082 0-.123.04-.206.32-.535.478-.947.558-.535.08-.906-.12-1.276-.478a3.305 3.305 0 0 1-.453-.597c-.206-.358-.412-.756-.535-1.154-.124-.358-.288-.716-.37-1.074a14.15 14.15 0 0 1-.289-1.274c-.082-.318-.123-.676-.206-.995a9.002 9.002 0 0 1-.164-1.035c-.041-.318-.124-.636-.165-.955-.082-.398-.123-.796-.206-1.233-.041-.279-.082-.518-.123-.796-.041-.2-.041-.359-.083-.558-.04-.159-.04-.358-.082-.517a1.866 1.866 0 0 0-.288-.796c-.082-.159-.206-.318-.288-.438-.247-.358-.453-.716-.659-1.074-.123-.279-.247-.597-.37-.876-.124-.358-.124-.756-.083-1.114a4.022 4.022 0 0 1 .453-1.512c.124-.319.288-.597.494-.876.124-.199.247-.438.247-.676 0-.12-.041-.24-.082-.359 0-.04-.042-.04-.083-.04-.04 0-.123.04-.164.04-.041 0-.083 0-.124-.04 0-.04 0-.079.041-.119s.124-.04.124-.12h.041c.659-.198 1.276-.357 1.935-.556.247-.08.535-.16.864-.24z" fill="#c4e8f8"/><path d="M73.996 33.899c-.288.08-.617.16-.906.239-.658.199-1.276.358-1.934.557h-.041c-.083.04-.124 0-.165-.08 0-.12-.041-.199-.082-.278.04-.04.123-.04.164-.12-.082.04-.123.04-.164.04-.083-.477-.247-.915-.412-1.353-.041-.16.041-.279.206-.358.823-.239 1.605-.438 2.428-.677.165-.04.33.04.37.2l.371 1.193c0 .04.083.12.083.16-.165.04-.37.119-.535.159v.04c.205-.04.37-.12.535-.16 0 .04.04.12.082.16.041.079.041.119.082.198 0 .04-.04.04-.082.08zm-1.482-.08c-.206.04-.453.12-.658.16.246-.04.452-.08.658-.16zm.082-.04c.206-.04.412-.119.66-.159-.248.04-.454.12-.66.16zm-1.44.438c.206-.04.411-.12.617-.159-.206.04-.411.08-.617.16z" fill="#ce3a5e"/><path d="M73.666 49.699a28.107 28.107 0 0 1-.411-1.791c-.206-1.035-.371-2.07-.536-3.105-.123-.875-.123-1.91-.494-2.706-.206-.477-.535-.915-.823-1.393-.37-.597-.618-1.313-.618-1.99-.04-.517.042-1.671.577-1.91.206.358.041.915.041 1.313-.041.996.453 1.91.988 2.747.535.835.782 1.592.988 2.586.123.756.288 1.552.412 2.309.329 1.83.658 3.7 1.111 5.492 0 .08.041.159 0 .239-.082.198-.411.08-.494-.08-.33-.517-.535-1.114-.74-1.711z" fill="#fff"/><path d="M85.892 44.008c.164-1.313.782 2.985 1.358 4.417.947 2.508 1.4 5.572 2.635 8.08 3.005 5.969 4.57 15.162-2.882 18.704-3.705 1.751-15.19 1.95-19.019.398-5.475-2.189-4.816-8.795-5.516-13.57-.7-4.896-1.935-9.552-1.976-14.487 0 0 4.94 1.114 8.769 1.074 3.787-.04 8.15-.796 10.373-1.393 2.223-.597 6.134-2.189 6.258-3.223z" fill="#f24c64"/><path d="M59.464 62.275c-.37-4.298.782-6.328 1.605-7.482 6.299 6.885 23.095 16.237 24.083 16.317 1.852.159 6.175.159 6.545.597.659 1.83-1.153 6.447-4.61 7.123-1.647.319-5.229-2.348-6.299-3.502-.412-.437-17.62-10.506-21.324-13.053zM87.58 49.102c1.647 0 2.511.637 3.458 1.95.947 1.313 1.894 7.522.33 7.522s-8.028-2.388-8.028-4.02 4.446-2.308 4.446-3.502-1.852-1.95-.206-1.95zM70.742 10.856c.083.438.494.956.741 1.314.288.477.494.955.782 1.433.248.437.906 1.114.371 1.512-.412.318-2.017.477-2.47.318" fill="#ffcaa7"/><path d="M70.29 9.344c-.288-.04-.494-.08-.658-.08-.165 0-.33 0-.494.04-.165.04-.37.04-.577.08-.206 0-.453.04-.74-.04.123-.239.329-.398.493-.557.206-.12.453-.239.741-.279s.577 0 .824.16c.205.198.37.437.411.676zM69.715 10.857c.25 0 .452-.196.452-.438a.446.446 0 0 0-.453-.438.446.446 0 0 0-.452.438c0 .242.203.438.453.438z" fill="#073099"/></g></svg>