<svg fill="none" height="176" width="213" xmlns="http://www.w3.org/2000/svg"><filter id="a" color-interpolation-filters="sRGB" filterUnits="userSpaceOnUse" height="175.028" width="212.713" x="0" y="0"><feFlood flood-opacity="0" result="BackgroundImageFix"/><feColorMatrix in="SourceAlpha" result="hardAlpha" values="0 0 0 0 0 0 0 0 0 0 0 0 0 0 0 0 0 0 127 0"/><feOffset dx="1" dy="1"/><feGaussianBlur stdDeviation="1"/><feColorMatrix values="0 0 0 0 0.129412 0 0 0 0 0.129412 0 0 0 0 0.129412 0 0 0 0.4 0"/><feBlend in2="BackgroundImageFix" result="effect1_dropShadow_17863_420226"/><feBlend in="SourceGraphic" in2="effect1_dropShadow_17863_420226" result="shape"/></filter><g filter="url(#a)"><path d="M82.403 116.06h-.578v53.595h38.835V116.06z" fill="#ffd5d0"/><path d="m81.825 116.06 4.548-4.954h29.74l4.547 4.954z" fill="#f9e8e8"/><path d="M104.708 112.292c5.775-3.35 10.034-15.213 10.034-20.726 0-5.443-4.115-9.98-9.673-11.375v-6.49h2.238v-1.465H95.685V73.7h2.238v6.49c-5.558 1.396-9.673 6.002-9.673 11.375 0 5.583 4.331 17.376 10.178 20.726-2.887.14-4.909.488-4.909.907 0 .558 3.61.977 8.013.977 4.403 0 8.012-.419 8.012-.977 0-.419-2.021-.767-4.836-.907z" fill="#9e180a"/><path d="M101.604 97.777c4.465 0 8.085-3 8.085-6.7s-3.62-6.7-8.085-6.7c-4.465 0-8.085 3-8.085 6.7s3.62 6.7 8.085 6.7z" fill="#e05a3e"/><g fill="#c54126"><path d="M129.901 130.785c-2.382 1.186-4.909 2.303-7.507 3.14-13.427 4.606-28.658 4.606-42.084.14a60.787 60.787 0 0 1-7.94-3.28l-1.95 2.094c2.6 1.326 5.343 2.442 8.158 3.419 7.002 2.373 14.653 3.629 22.521 3.629 8.013 0 15.736-1.256 22.883-3.768 2.671-.908 5.269-2.024 7.796-3.28z"/><path d="M78.794 170.841c-.794-.767-2.526-1.256-4.547-1.256h-2.238v-38.8h-4.836v38.8h-2.238c-2.021 0-3.754.558-4.548 1.256-.289.279-.433.559-.433.907v.28h19.201v-.28c0-.348-.144-.628-.36-.907z"/><path d="M73.453 130.087H71.07v-7.537h-2.96v7.537H65.8c-.36 0-.65.279-.65.628s.29.628.65.628h2.31v.907h2.96v-.907h2.382c.36 0 .65-.279.65-.628s-.29-.628-.65-.628z"/><path d="M71.503 116.27a5.664 5.664 0 0 0-1.949-.349c-2.02 0-3.681 1.116-4.33 2.652-.145.418-.29.837-.29 1.326 0 2.163 2.022 3.908 4.548 3.908 2.527 0 4.548-1.745 4.548-3.908.072-1.605-.939-3.001-2.527-3.629zM141.378 170.493c-.794-.768-2.526-1.256-4.547-1.256h-2.238v-38.801h-4.836v38.801h-2.238c-2.021 0-3.754.558-4.548 1.256-.289.279-.433.558-.433.907v.279h19.201v-.279c.072-.349-.144-.628-.361-.907z"/><path d="M136.037 129.738h-2.382v-7.536h-2.96v7.536h-2.31c-.361 0-.65.28-.65.628 0 .349.289.629.65.629h2.31v.907h2.96v-.907h2.382c.36 0 .649-.28.649-.629a.637.637 0 0 0-.649-.628z"/><path d="M134.087 115.921a5.685 5.685 0 0 0-1.949-.349c-2.021 0-3.681 1.117-4.331 2.652-.144.419-.288.837-.288 1.326 0 2.163 2.021 3.908 4.547 3.908 2.527 0 4.548-1.745 4.548-3.908.144-1.605-.939-3.001-2.527-3.629z"/></g><path d="m183.461 87.518-12.776 42.429-5.992 31.892h-5.991l5.991-74.32z" fill="#cb7a43"/><path d="M189.164 87.518c-.866 22.052-.505 34.055-.36 36.079.144 2.023 1.299 15.422 9.023 38.87h-6.28c-10.178-22.541-13.715-35.939-14.943-38.87-1.155-2.931-4.619-15.004-9.672-36.079z" fill="#cb7a43"/><path d="M183.75 87.518c-3.321 14.585-9.023 37.893-17.18 69.924h-8.807c-.649-32.868 2.094-54.502 6.93-69.924z" fill="#f2b3a7"/><path d="M189.236 87.518c-.866 22.052 1.372 43.755 8.374 70.273h-9.384c-10.178-22.191-17.541-43.825-22.522-70.273z" fill="#ffd5d0"/><path d="m198.764 166.863-.361-5.373c-2.021.558-4.547.349-7.579-.698-3.249 2.233-7.363 3.768-12.344 4.606-.361.07-.649.418-.577.767v.07l.505 1.605h19.634zM166.065 166.863l-.361-5.373c-2.021.558-4.548.349-7.579-.698-3.249 2.233-7.363 3.768-12.344 4.606-.361.07-.65.418-.577.767v.07l.505 1.605h19.634z" fill="#9e180a"/><path d="M178.768 45.717c1.588-1.814 2.671-4.047 2.527-6.56-.506-7.187-10.9-5.582-12.921-1.953s-1.805 12.84.794 13.468c1.01.28 3.248-.349 5.486-1.675l-1.444 9.7h8.374z" fill="#cb7a43"/><path d="M174.294 39.995c-.289 4.327-1.155 6.42-2.527 6.42-2.021 0-3.825-1.256-4.692-1.256-.649 0-.505.768-.072 1.396.361.488 2.094.977 2.094 1.744 0 .768-1.372.14-1.372.628 0 .768-.216 2.164 1.083 2.164 1.371 0 5.197-.489 5.847-2.373.433-1.256.722-3.838.794-7.746h.216c1.155 0 2.094.907 2.094 2.024 0 .558-.217 1.046-.65 1.465.505.628 1.011 1.326 1.66 2.024 2.31-1.326 4.404-5.304 2.094-9.072-.65-1.884-2.382-2.861-4.115-3.35-1.371-.558-2.743-.628-3.97-.279-2.31.21-4.403.907-5.053 1.326 0 2.163.433 2.791 4.115 2.722 1.082.349 1.732 1.116 2.454 2.163z" fill="#9e180a"/><path d="M167.291 41.251c.217 1.326-1.588 2.303-1.515 3.56.577.139 1.155.278 1.732.348" fill="#cb7a43"/><path d="M167.941 40.414c.361-.419.867-.489 1.372-.419.216.07.505.14.722.349.216.14.361.419.288.698-.216-.14-.433-.21-.577-.21-.144-.07-.361-.07-.505-.14-.433-.139-.794-.139-1.3-.278zM168.663 42.019a.426.426 0 0 0 .433-.419.426.426 0 0 0-.433-.419.426.426 0 0 0-.434.42c0 .23.194.418.434.418z" fill="#9e180a"/><path d="m157.475 85.564-10.251 5.862c-2.598 3.908-4.042 5.583-4.547 5.095-.65-.768.433-1.745 0-2.373s-2.455-.28-4.331.14c-1.949.418-1.516-.49-1.083-.978 1.805-1.395 4.187-2.721 7.074-3.908l9.817-9.28zm44.898 17.307c.505.977 4.187 3.978 6.713 5.652 1.011.698.578 1.536.217 1.815-3.176 1.884-5.197-.349-7.94-1.605-2.96-1.326-2.743 2.442-5.125 1.395.721-1.605 2.454-4.536 1.66-6.42-.361-.837-2.815-8.304-7.291-22.261h7.291c2.31 12.91 3.826 20.098 4.475 21.424z" fill="#cb7a43"/><path d="m177.253 51.928-3.032-.488c-5.197 12.491-14.22 23.866-27.141 34.055l9.745 11.444c12.993-14.585 20.933-29.588 20.428-45.01z" fill="#9e180a"/><path d="M190.391 88.425H163.61c6.208-14.584 9.312-26.936 9.312-37.125l8.085-1.186c6.352 9.84 8.084 21.982 9.384 38.312z" fill="#fff"/><path d="M181.151 50.114h-.505c-.65 0-1.588.07-2.888.14l-1.949 5.373c-.216 6.56-1.443 19.819-3.609 39.707h17.541l-.217 4.187h13.066c-2.021-21.284-9.095-37.753-21.439-49.407z" fill="#9e180a"/><path d="M16.978 27.752H1v9.235h15.978z" fill="#fff"/><path d="M9.795 29.804h-7.11v.44h7.11zM11.041 31.417H2.686v.44h8.355zM5.25 33.03H2.687v.44H5.25zM6.863 34.569H2.686v.44h4.177zM81.843 1H23.72v58.122h58.121z" fill="#0981d3"/><path d="M79.497 3.345h-53.43v53.431h53.43z" fill="#fff"/><path d="M76.712 6.204H28.925V53.99h47.787z" fill="#1898fc"/><path d="M52.818 31.564a1.466 1.466 0 1 0 0-2.932 1.466 1.466 0 0 0 0 2.932z" fill="#0981d3"/><path d="M56.263 31.71a5.067 5.067 0 0 1-5.057-5.057 5.067 5.067 0 0 1 5.057-5.057 5.067 5.067 0 0 1 5.058 5.057 5.067 5.067 0 0 1-5.058 5.057zm0-9.821a4.676 4.676 0 0 0-4.69 4.69 4.676 4.676 0 0 0 4.69 4.691c2.639 0 4.691-2.125 4.691-4.69s-2.125-4.691-4.69-4.691z" fill="#0981d3"/><path d="M60.442 33.909c-5.497 0-9.968-4.47-9.968-9.968s4.47-9.968 9.968-9.968c5.497 0 9.968 4.471 9.968 9.968s-4.471 9.968-9.968 9.968zm0-19.643c-5.278 0-9.602 4.325-9.602 9.602s4.324 9.601 9.602 9.601c5.277 0 9.601-4.324 9.601-9.601 0-5.277-4.324-9.602-9.601-9.602z" fill="#0981d3"/><path d="M61.54 53.918S47.909 52.16 41.459 30.024h-6.01s-4.104-6.083-4.104-13.12h-2.492v36.94c.073.074 33.495.074 32.688.074z" fill="#fff"/><path d="M51.866 44.463s15.099 1.832 18.324-5.277l1.685 11.434s-11.433 3.371-20.009-6.157z" fill="#1898fc"/></g></svg>