<svg fill="none" height="192" width="196" xmlns="http://www.w3.org/2000/svg"><filter id="a" color-interpolation-filters="sRGB" filterUnits="userSpaceOnUse" height="191.904" width="194.541" x=".871" y="0"><feFlood flood-opacity="0" result="BackgroundImageFix"/><feColorMatrix in="SourceAlpha" result="hardAlpha" values="0 0 0 0 0 0 0 0 0 0 0 0 0 0 0 0 0 0 127 0"/><feOffset dx="1" dy="1"/><feGaussianBlur stdDeviation="1"/><feColorMatrix values="0 0 0 0 0.129412 0 0 0 0 0.129412 0 0 0 0 0.129412 0 0 0 0.4 0"/><feBlend in2="BackgroundImageFix" result="effect1_dropShadow_17863_419256"/><feBlend in="SourceGraphic" in2="effect1_dropShadow_17863_419256" result="shape"/></filter><g filter="url(#a)"><path d="m3.693 76.06 54.845-8.21 2.81-22.01.532-12.419-1.519-25.183-47.856 1.38-4.71 2.76-2.279 7.52 1.52 12.971.531 12.557-.531 10.143-1.14 10.28z" fill="#3d2884"/><path d="m58.536 67.85-1.9-.415c0-.069 2.583-9.728 3.267-14.972C61.27 42.321 61.27 30.8 59.827 16.38v-.207c-.38-3.795-.835-8.072 1.292-11.73 1.139-2 3.646-3.794 6.228-3.104 2.81.759 4.026 4.14 4.786 6.417a8.1 8.1 0 0 0 .228.69l-1.823.551a10.461 10.461 0 0 1-.228-.758c-.684-1.863-1.671-4.761-3.494-5.244-1.52-.414-3.115.828-3.95 2.277-1.823 3.104-1.444 6.968-1.064 10.694v.207c1.443 14.558 1.52 26.149.076 36.498-.76 5.313-3.266 14.765-3.342 15.18z" fill="#fff"/><path d="m10.38 9.48 1.976-.484 53.25-7.934S70.162-.18 72.29 8.445l-54.845 8.279s-1.14-3.243-1.367-3.588a7.995 7.995 0 0 0-2.659-2.967c-.835-.62-1.899-.552-3.038-.69z" fill="#d6cde4"/><path d="m72.188 7.865-54.729 8.518.141.749L72.33 8.613z" fill="#564394"/><path d="M8.4 134.291h-.152c-.912-.069-1.596-.828-1.52-1.656L16.68 23.14c.076-.827.912-1.448 1.823-1.38.912.07 1.596.828 1.52 1.656L10.07 132.911c-.152.759-.836 1.38-1.671 1.38z" fill="#efe8f4"/><path d="M7.565 133.187c-.228 0-.456-.207-.38-.414l9.95-105.562c0-.207.229-.345.457-.345s.38.207.38.414L8.02 132.842c0 .207-.227.345-.455.345z" fill="#bcb1d4"/><path d="M35.977 159.819c-.912 0-1.596-.621-1.672-1.449l-1.899-68.442c0-.828.684-1.518 1.596-1.518.911 0 1.67.62 1.67 1.449l1.9 68.442c.076.828-.608 1.518-1.595 1.518z" fill="#efe8f4"/><path d="M35.372 158.785c-.228 0-.38-.138-.38-.345l-2.05-69.133c0-.207.151-.414.38-.414s.455.138.455.345l2.05 69.133c-.075.276-.227.414-.455.414z" fill="#bcb1d4"/><path d="M90.595 144.296c-.76 0-1.52-.483-1.596-1.242L76.846 81.649c-.152-.828.455-1.587 1.367-1.725.911-.138 1.747.414 1.899 1.242l12.154 61.405c.152.828-.456 1.587-1.367 1.725h-.304z" fill="#efe8f4"/><path d="M89.987 143.399c-.227 0-.38-.138-.38-.276L76.163 75.025c-.076-.207.076-.414.304-.414.228-.069.456.07.456.276l13.445 68.098c.076.138-.076.345-.38.414.076 0 .076 0 0 0z" fill="#bcb1d4"/><path d="m17.598 16.724 11.47 74.446 56.136-11.04L72.29 8.17z" fill="#efe8f4"/><path d="M17.52 16.724c-.608-2.622-2.052-6.348-5.014-7.107-2.583-.69-5.09 1.104-6.23 3.105-2.126 3.588-1.67 7.865-1.29 11.73v.206c1.443 14.42 1.519 25.942.075 36.084-.683 5.244-3.114 14.42-3.19 14.49l1.747.827c.076-.414 2.583-9.797 3.343-15.11 1.443-10.28 1.367-21.87-.076-36.498v-.207c-.38-3.726-.76-7.59 1.063-10.694.836-1.449 2.507-2.69 3.95-2.277 4.254 1.173 4.33 9.314 4.862 12.764.911 5.865 1.823 11.73 2.81 17.594 1.14 7.175 2.28 14.35 3.418 21.526.988 6.21 1.975 12.35 2.963 18.56.456 2.898.684 4.554 1.14 7.451l.151 1.311 1.823.69c-.38-2.415-.76-4.76-1.139-7.175-.911-5.727-1.747-11.522-2.659-17.249-1.063-7.037-2.202-14.075-3.266-21.112-.988-6.21-1.9-12.42-2.887-18.629-.531-3.312-.835-6.624-1.519-9.935 0-.07 0-.207-.076-.345z" fill="#564394"/><g fill="#ea931f"><path d="M27.091 24.382c.76 1.104.836 2.484.836 3.726.076-.07.228-.138.304-.207-.684.207-1.443.138-2.127.138-.228 0-.684.276-.304.276.836 0 1.671.069 2.507-.138.076 0 .304-.07.304-.207.076-1.242-.076-2.622-.836-3.726-.152-.207-.76 0-.684.138z"/><path d="M25.726 24.59c1.14 0 2.203-.415 3.342-.484.304 0 .532-.414.076-.345-1.063.07-2.127.483-3.19.483-.228 0-.608.345-.228.345zM29.903 25.97c.835.137 1.823-.208 1.595-1.104 0-.07-.076-.07-.152-.07-.836-.206-1.975 0-1.899 1.035.076.69.608 1.518 1.443 1.45.608-.07 1.064-.484 1.368-.967.151-.276-.532-.207-.608 0-.152.207-.38.69-.76.621-.304-.069-.532-.414-.683-.69s-.228-.62-.076-.966c.151-.345.455-.207.76-.138-.077 0-.077-.069-.153-.069.076.414-.076.69-.531.621-.152 0-.38 0-.456.138.076 0 0 .07.152.138zM27.774 30.453c0 1.311-.076 4.899 2.43 3.726.38-.207.076-.483-.303-.345-1.596.759-1.444-2.76-1.444-3.45-.076-.345-.683-.207-.683.07z"/><path d="M27.928 32.178h1.216c.152 0 .38-.068.456-.137.076-.138-.076-.207-.152-.207h-1.216c-.152 0-.38.069-.455.138-.076.138.075.207.151.207zM30.357 31.558c-.076.966.455 2.691 1.899 2.277 1.519-.483.531-2.139.987-3.105.152-.345-.532-.276-.608-.069-.303.76.076 1.656-.151 2.415-.304.69-.912.276-1.14-.207-.228-.414-.304-.897-.228-1.31-.076-.346-.76-.277-.76 0zM29.678 37.974c.228.76.228 1.587.38 2.346.076.276.683.138.683-.138-.152-.759-.228-1.587-.38-2.346-.076-.344-.76-.137-.683.139zM29.371 36.732v.345c0 .138.684.07.684-.138v-.345c0-.207-.684-.069-.684.138v.345c0 .138.684.07.684-.138v-.345c0-.207-.684-.069-.684.138zM30.509 36.042c-.152 1.311.683 2.484.987 3.795 0 .138.304.138.38.069.304-.069.608-.069.911-.138.38-.069.304-.414-.076-.345-.303.069-.607.069-.911.138.152 0 .228.069.38.069-.304-1.242-1.14-2.346-.988-3.657 0-.276-.684-.207-.684.07zM35.6 34.594c0 2.139-.303 4.347-.303 6.486.228-.07.456-.138.684-.138v-.138c0-.138-.684-.07-.684.138v.138c0 .138.684.069.684-.138 0-2.14.227-4.347.303-6.486-.076-.207-.683-.069-.683.138zM37.347 37.008c.836.138 1.9-.138 1.595-1.104 0-.069-.076-.069-.152-.069a3.162 3.162 0 0 0-1.139 0c-.076 0-.304.07-.304.207-.152.69-.38 1.518.608 1.863.532.207 1.519.138 1.671-.483.076-.207-.608-.069-.684.07-.152.482-.835 0-.987-.277-.228-.414-.076-.897 0-1.31-.076.068-.228.137-.304.206.228-.069.456 0 .684 0-.076 0-.076-.069-.152-.069.076.138.152.414 0 .621-.152.138-.38.07-.532.07-.076-.07-.684.206-.304.275zM38.865 34.179c.228 1.242.76 2.415 1.292 3.588 0 .069.152.138.228.138.227 0 .455.069.76 0 .379 0 .53-.414.075-.414h-.608c.076.069.152.069.228.138-.456-1.173-1.063-2.346-1.291-3.588-.076-.207-.76-.07-.684.138z"/><path d="M40.916 33.765c0 1.45.38 2.76.684 4.14.076.138.38.138.455.069.152-.069.456-.138.684-.207.456-.138.076-.483-.304-.345-.304.138-.38.138-.683.207.152 0 .303.069.455.069-.303-1.38-.683-2.622-.683-4.07.076-.208-.608-.07-.608.137zM43.27 36.111c.835.138 1.67-.207 1.443-1.104 0-.069-.076-.069-.152-.069-.456 0-.988.07-1.291.483-.228.414-.228.897-.152 1.311 0 0 0 .07.076.07.683.206 1.595.275 2.05-.346.077-.069 0-.138-.075-.138h-.38c-.152 0-.76.207-.456.276h.38c0-.069-.076-.069-.076-.138-.152.138-.228.207-.456.207-.076 0-.304 0-.38-.069-.076-.069-.076-.345-.076-.483 0-.207.076-.897.38-.897-.076 0-.076-.069-.152-.069 0 .138.076.345 0 .483-.076.207-.152.207-.38.138-.075.07-.683.345-.303.345zM30.279 45.84c4.178-.276 8.203-1.587 12.381-1.932.228 0 .684-.345.304-.276-4.178.345-8.204 1.656-12.382 1.932-.227 0-.76.276-.303.276zM31.043 50.048c4.785-.345 9.343-2.484 14.053-3.518.38-.07.304-.414-.076-.345-4.558 1.034-9.192 3.104-13.825 3.45-.456.068-.608.482-.152.413zM31.804 54.257c5.09-.276 10.179-.483 14.964-2.345.456-.138 0-.276-.227-.138-4.558 1.793-9.572 2-14.433 2.207-.228 0-.76.276-.304.276zM31.495 59.225c-.152.828.076 2.277 1.291 2.208 1.52-.138 1.443-1.656 1.216-2.622-.077-.207-.684-.07-.684.138.076.414.38 2.277-.608 2.07-.684-.207-.684-1.38-.608-1.863.076-.207-.607-.138-.607.069zM35.067 58.397c-.152.828-.228 1.656-.152 2.484 0 .207.608.069.684-.138.076-.483-.076-.897-.152-1.38-.076-.345 0-1.725.835-1.242.38.207.304.966.304 1.31 0 .415-.076.829 0 1.243 0 .207.684.069.684-.138-.076-.828.532-2.83-1.064-2.83-.683 0-1.291.346-1.367.967-.152.69.228 1.449.152 2.139.228-.07.456-.07.684-.138-.076-.828 0-1.587.152-2.415-.076-.207-.76-.138-.76.138zM39.02 59.777c0 .414-.153.828-.608 1.035.152 0 .228 0 .38-.07v-.137c0-.138-.684 0-.684.138 0 .137-.076.206.152.206s.532-.137.684-.206c.455-.276.683-.69.683-1.173 0-.07-.608.069-.608.207zM43.577 56.948c-1.747-.552-2.355 1.173-2.43 2.415h.076c.911.276 2.05.207 2.278-.828.228-1.173-.303-2.346-.076-3.519 0-.138-.607-.069-.683.138-.228 1.035.228 2.07.152 3.105 0 .345-.304 1.587-.988.966-.456-.345.228-2.346.988-2.07.304.069.76-.207.683-.207zM44.334 57.707c.607.138 1.443.069 1.67-.552.229-.621-.455-.897-1.063-.828-.152 0-.38.069-.455.207-.152.552-.836 1.587 0 2 .683.346 1.747-.068 2.127-.69.152-.206-.532-.137-.608 0-.304.415-1.14.69-1.215 0-.076-.482.227-.965.38-1.379l-.456.207c.303 0 .683.069.683.414 0 .276-.228.483-.532.345-.151-.07-.303 0-.455.069-.076.069-.228.207-.076.207z"/><path d="M46.537 56.258c-.38.897.38 1.863 1.443 1.656 1.14-.207 1.064-1.242 1.064-2.14 0-.068-.684 0-.684.139v.897c0 .207-.076.759-.38.828-.304.069-.684-.414-.76-.621-.152-.276-.152-.621-.076-.966.076 0-.607.069-.607.207zM49.275 55.844c.912.345 1.367 1.173 2.051 1.794.152.138.76-.069.608-.207-.684-.62-1.14-1.449-2.127-1.794-.152-.138-.76.138-.532.207z"/><path d="M51.63 55.5c-1.063.828-2.05 1.725-2.81 2.76-.228.275.455.275.607.068.76-.966 1.671-1.794 2.659-2.552.304-.345-.228-.483-.456-.276zM53.45 57.362c-.077.69-.609 1.173-1.14 1.587-.076.07.076.138.152.138.152 0 .303-.069.455-.138.532-.483 1.064-.966 1.216-1.656 0-.138-.684-.069-.684.07zM55.348 53.36c-.152.898-.684 2.347-.152 3.243.38.552 1.215.552 1.823.621.304.07.684-.345.228-.414-.684-.069-1.367-.069-1.52-.759-.227-.828.153-1.862.304-2.76 0-.275-.607-.206-.683.07z"/><path d="m55.274 54.81 1.14.206c.151 0 .303 0 .455-.068.076 0 .228-.139.076-.139l-1.14-.206c-.151 0-.303 0-.455.068-.076 0-.228.139-.076.139zM57.783 54.464c-.151.76-.151 1.518-.151 2.346 0 .07.607 0 .683-.138.152-.828-.152-1.587.076-2.415-.152.07-.304.138-.456.138.456-.069.836.207.836.621 0 .138-.228.345-.228.414-.076.07-.076.07.152 0-.076 0-.076 0-.152-.069s-.228-.138-.304-.207c-.228.07-.38.138-.607.207.835.07 1.215.76 1.747 1.311.152.138.683-.138.683-.138-.531-.552-.911-1.31-1.823-1.38-.076 0-.683.07-.607.207.455.414 1.367.414 1.747-.138.455-.759-.456-1.035-1.064-.966-.076 0-.456.07-.456.138-.227.828.076 1.656-.075 2.415.227-.069.455-.138.683-.138 0-.759.076-1.518.152-2.346-.228 0-.835 0-.835.138z"/><path d="M61.504 53.982c-.608-.138-1.291.069-1.52.62-.227.484-.227 1.173.077 1.587.455.552 1.215.69 1.823.207.455-.414.531-1.173.607-1.725a2.305 2.305 0 0 1-.987-.69c-.076-.137-.684.139-.608.208.228.276.456.414.76.62.152.139.152.208.152.415 0 .138-.076.207-.076.345l-.228.62c-.076.07-.152.207-.228.276-.076.07.076 0 0 0s-.152-.069-.228-.138c-.456-.276-.608-.62-.608-1.103 0-.207 0-.483.076-.69 0-.07.076-.138.152-.276s.076-.138.228-.138c.228.138.836-.07.608-.138z"/><path d="M62.489 53.774c-.152.828-.152 1.587.076 2.415.076.207.683 0 .683-.138-.228-.828-.152-1.518-.076-2.346.076-.207-.607-.138-.683.069zM64.844 53.43c-.911.138-1.14.69-1.215 1.449 0 0 0 .069.076.069.38.069.684.069 1.063.069.228 0 .38 0 .38.207 0 .138-.076.345-.152.483.152-.07.38-.138.532-.207-.456 0-.836 0-1.216.069-.075 0-.38.069-.455.138-.076.069.076.138.152.138.38-.07.76-.07 1.14-.07.151 0 .455 0 .53-.206a2.28 2.28 0 0 0 .153-.76s0-.068-.076-.068c-.304-.07-1.291 0-1.443-.207-.076-.207.152-.897.38-.966.303.069.607-.138.151-.138zM63.325 52.67c-.38.069-.836.207-.608.62.076.139.684-.068.684-.137s-.076-.07-.076-.138c0-.138 0-.138-.152-.07.304-.068.608-.275.152-.275zM34.994 64.676c-1.14-.207-2.279-.276-2.659.966s.912 1.518 2.051 1.587c.152 0 .456-.07.456-.207.076-.76.836-1.656.152-2.346-.076-.138-.608 0-.608.207.076.62.304 1.173.456 1.794.152.62.152 1.172.152 1.793 0 .207.684.07.684-.138 0-.62 0-1.241-.152-1.793-.152-.621-.456-1.173-.532-1.863-.152.069-.38.138-.608.207.532.62-.076 1.518-.228 2.139l.456-.207c-.683 0-1.595-.07-1.671-.828 0-.345.152-.897.456-1.104.304-.207.76 0 1.14.069.227.138.835-.207.455-.276zM35.676 64.606c-.076.69-.076 1.863.911 1.863.532 0 1.064-.276 1.14-.69.152-.483-.076-.897-.152-1.38-.076-.276-.76-.138-.684.138.076.276.228.621.228.897s-.076.69-.456.552c-.455-.138-.38-1.104-.303-1.449 0-.276-.608-.207-.684.07zM38.412 63.916c0-.069 0-.276.152-.276.076 0 .228.138.304.138l.228.414.227 1.035c0 .138.608 0 .684-.138.076-.483-.456-1.104-.987-1.035-.684 0-1.064.552-1.14 1.104-.152.552.152.966.836.828.532-.069 1.14-.483 1.367-.966.076-.069-.608-.069-.684.138-.076.207-.455.69-.607.621-.38-.069-.228-.69-.152-.897.076-.138.076-.276.228-.414 0-.069.076-.138.152-.207-.228.138-.076.138 0 .207.227.207.455.552.38.828.227-.069.455-.138.683-.138-.152-.483-.152-1.449-.76-1.656-.531-.138-1.443.07-1.443.621-.076.07.532 0 .532-.207z"/><path d="M39.855 62.605c-.076.897 0 3.726 1.747 2.622.38-.207-.152-.414-.456-.276-.532.345-.683-2.139-.683-2.484.075-.207-.608-.069-.608.138z"/><path d="M41.371 63.365c-.076.552.304.966.38 1.517.076.276.684.07.684-.138-.076-.344-.912-1.034-.532-1.38.152-.137.684-.206.76.07.076.345-.684.276-.912.276-.152 0-.456.276-.152.345.532.137.912.551 1.367.827.228.138.76-.138.532-.345-.456-.344-.911-.758-1.52-.896-.075.138-.075.207-.151.345.304-.07.608.069.987-.07a.82.82 0 0 0 .532-.551c.076-.552-.607-.621-1.063-.552-.38.069-1.064.276-1.14.69-.076.552.532.828.608 1.31.228-.069.456-.138.684-.138-.076-.482-.456-.896-.38-1.38.076-.275-.608-.137-.684.07z"/><path d="M39.93 63.502c.228 0 .455.07.683.07.152 0 .76-.208.456-.277-.228 0-.456-.069-.684-.069-.152 0-.76.276-.455.276zM43.727 63.64c.38.07.835.207 1.29.07s.457-.553.457-.966c0-.07-.076-.07-.152-.07-.912-.206-1.975.277-1.671 1.242.304 1.035 1.595.828 2.279.276.303-.207-.38-.207-.532-.069-.228.138-.38.345-.684.207-.228-.138-.38-.345-.38-.552-.076-.207-.076-.414.076-.62.152-.208.38-.139.608-.07-.076 0-.076-.069-.152-.069 0 .138 0 .276-.076.414 0 .07-.076.138 0 .138-.152.07-.456-.069-.684-.138-.152-.207-.683.07-.38.207zM47.297 63.917c0 .207 0 .759-.304.828-.076.069-.228.138-.152.276.076.138.304.069.456 0 .608-.207.608-.621.683-1.173 0-.207-.607-.138-.683.069zM50.566 61.847c-.531-.069-1.139-.069-1.367.414-.152.345-.304.897-.228 1.311.228.897 1.975.69 2.203-.069.076-.276-.607-.138-.683.069s-.38.207-.608.138-.304-.276-.304-.483.076-.483.152-.69c0-.069.076-.207.152-.276.076-.069.38 0 .456 0 .228 0 .683-.414.227-.414z"/><path d="M51.094 61.846c-.076.552 0 1.035.076 1.587 0 .138.684 0 .684-.138-.076-.483-.152-.966-.076-1.449 0-.276-.608-.207-.684 0zM52.993 63.502c0-.207-.304-1.242.076-1.242.228 0 .304.345.38.414.076.207.228.414.38.621.228.207.836-.069.608-.276-.304-.276-.304-.62-.532-.897-.228-.276-.532-.345-.912-.276-.987.207-.683 1.035-.683 1.725.076.276.76.138.683-.069zM55.652 61.364c-.608-.069-1.064.345-1.216.828-.152.69.38 1.035 1.064 1.035.152 0 .38-.07.455-.207.228-.483.456-.897.304-1.449-.076-.276-.683-.069-.683.138.228.966.531 2.07.303 3.105-.075.276.608.207.684-.07.228-1.034-.076-2.207-.304-3.242-.228.069-.455.138-.683.138.152.414-.076.828-.228 1.242l.456-.207c-.38 0-.684-.138-.684-.483 0-.138.076-.621.38-.552.228.138.607-.207.152-.276zM58.464 61.985c0 .276 0 .69-.228.897-.228.276.38.414.532.138.228-.345.304-.76.304-1.104.076-.276-.532-.207-.608.069zM62.335 58.88c-.76-.207-1.823.345-1.443 1.173.304.62 1.14.069 1.595.345.38.344-.076.69-.38.827-.455.138-.76.138-.607-.414.076-.276-.608-.207-.684.07-.152.551.152.827.76.827.531 0 1.14-.276 1.519-.62.38-.345.304-.897-.152-1.104-.304-.139-.684-.07-.988-.07-.151 0-.227 0-.303-.138-.152-.276 0-.69.38-.62.151.207.683-.138.303-.276z"/><path d="M63.476 59.846c-.076.483-.152.897 0 1.38.076.206.76.068.684-.139-.152-.413 0-.827 0-1.241.076-.345-.608-.207-.684 0zM63.629 59.087c0 .345.152.483.608.483.076 0 .455-.07.455-.207 0-.207 0-.276-.152-.414-.152-.138-.76.069-.607.207.076.069.152.138.152.276l.456-.207c-.153 0-.228-.07-.153-.276-.075-.207-.76-.07-.76.138z"/><path d="M64.768 59.57c.608.138 1.063.552 1.595.828.228.138.836-.138.532-.345-.532-.345-1.064-.76-1.671-.897-.38-.07-.836.345-.456.414z"/><path d="M65.986 59.363c-.076.345-.304.62-.532.897s-.456.62-.76.759c-.38.207 0 .483.304.276.38-.207.684-.552.988-.897a3.73 3.73 0 0 0 .683-1.173c.077-.207-.607-.069-.683.138zM34.006 73.507c4.634-.414 9.04-2.277 13.673-2.967 3.494-.552 7.064-1.035 10.559-1.655.38-.07.304-.414-.076-.345-3.722.69-7.445 1.172-11.167 1.793-4.33.69-8.507 2.484-12.913 2.898-.304-.069-.532.345-.076.276zM34.763 77.716c5.09-.345 10.179-1.242 15.192-2.14 4.634-.827 9.647-1.448 14.053-3.173.456-.138 0-.276-.228-.207-4.558 1.794-9.799 2.415-14.66 3.243-4.634.828-9.344 1.656-14.13 2-.151 0-.607.277-.227.277z"/></g><path d="M177.368 146.721h-25.354l-3.364 36.998h37.789z" fill="#d6cde4"/><path d="M177.368 146.721h-7.811l-4.686 36.998h21.568z" fill="#efe8f4"/><path d="M124.979 137.771c1.442 2.182 4.986 8.294 8.711 15.497 2.163 4.202 4.987 11.405 8.351 21.555l-4.326 1.8c-7.81-11.404-13.577-20.19-17.422-26.411.24 1.856.42 3.82.66 5.839.721 6.93 0 21.882-.36 26.193-.24 2.728-4.326 2.019-4.686-.164-.361-2.183-7.63-36.506-7.63-43.709 0-2.728 6.729-4.966 9.432-1.637 2.223-1.473 5.347-1.855 7.27 1.037z" fill="#cb7a43"/><path d="M132.188 172.314c-.841-2.019-14.84-24.229-17.603-31.104-1.202-3.001 8.771-9.277 12.316-4.093l14.839 31.977z" fill="#a396c4"/><path d="M112.663 134.826c5.888-.818 18.144-2.182 36.888-4.256h21.869c-.361 11.951-5.047 18.226-16.341 17.844-7.811-.273-33.945-3.82-34.606-3.547-.3.109.481 9.44 2.343 27.994l-10.574.327c0-2.019-4.385-23.301-4.385-32.359 0-2.51 1.081-5.457 4.806-6.003z" fill="#bcb1d4"/><path d="M121.673 182.736c-.18-.328-.601-.491-1.021-.328-.961.437-1.742.601-2.343.601-.661 0-1.562-.219-2.704-.71l-.661-1.419c-.06-.163-.3-.272-.48-.163l-9.853 3.983c-.781.109-1.802.219-2.944.382-1.202.109-1.502 1.037-.961 2.674h21.208c.24-1.2.36-2.073.36-2.674.06-.545-.12-1.309-.601-2.346zM142.701 173.133c-.361-.163-.841-.054-1.021.273-.481.873-.962 1.474-1.382 1.801-.541.382-1.382.709-2.584.982l-1.442-.709c-.18-.109-.42 0-.48.163l-4.987 8.677c-.54.546-1.261 1.2-2.102 1.964-.842.764-.481 1.637 1.081 2.62 10.454-7.531 15.981-11.514 16.642-11.951-.661-1.037-1.142-1.801-1.562-2.292-.421-.436-1.082-.927-2.163-1.528.06.055 0 0 0 0z" fill="#3d2884"/><path d="M162.41 102.139h-9.012l1.502-9.822c-2.463 1.31-4.806 1.964-5.947 1.692-2.824-.655-3.064-10.041-.902-13.697 2.163-3.71 13.398-5.293 13.939 2.019.18 2.565-.962 4.802-2.704 6.657z" fill="#cb7a43"/><path d="M151.956 80.856c-3.965.055-4.446-.6-4.446-2.782.661-.437 2.884-1.092 5.407-1.31 1.322-.328 2.824-.273 4.326.273 1.802.49 3.064.873 4.205 2.783 2.463 3.874.421 8.512-2.103 9.877a46.54 46.54 0 0 1-1.802-2.074c.421-.382.661-.873.661-1.473 0-1.146-1.021-2.074-2.283-2.074h-.24c-.121 3.983-.421 6.603-.902 7.858-.721 1.964-4.866 2.455-6.368 2.455-1.442 0-1.201-1.418-1.201-2.182 0-.437 1.501.163 1.501-.655s-1.922-1.255-2.282-1.746c-.481-.6-.601-1.419.06-1.419.961 0 2.883 1.31 5.106 1.31 1.502 0 2.403-2.183 2.764-6.549-.661-1.036-1.442-1.855-2.403-2.291z" fill="#3d2884"/><path d="M148.654 83.853c.361.055.541.71.12.819-.48.164-.54-.382-.48-.71.12-.054.24-.054.36-.109z" fill="#3d2884"/><path d="M147.029 84.02c-.12.054-1.261 3.055-1.562 3.765.481.6 1.262.6 1.923.545.06-1.527.12-3-.421-4.31" fill="#cb7a43"/><path d="M150.215 83.64c.12-.217 0-.545-.18-.708s-.42-.273-.661-.382c-.24-.055-.48-.11-.781-.055-.24.055-.541.11-.721.273.241.054.481.109.661.109.24.055.421.11.601.164s.42.109.601.163c.18.11.36.219.48.437z" fill="#3d2884"/><path d="M174.545 140.775h-8.411c1.622-2.456 2.764-6.385 3.484-11.787 1.743 4.529 3.365 8.458 4.927 11.787zM136.154 132.096l-11.896 4.475c-3.364 3.601-5.227 5.074-5.647 4.474-.601-.873.721-1.691.42-2.346-.3-.655-2.523-.6-4.686-.437-2.162.164-1.502-.709-1.021-1.146 2.163-1.2 4.926-2.182 8.171-3.001l12.015-8.021zm48.303 16.152c.541.982 4.506 3.984 7.27 5.73 1.081.709.661 1.582.24 1.801-3.424 1.91-5.647-.328-8.591-1.583-3.244-1.364-2.944 2.51-5.527 1.473.781-1.582 2.643-4.583 1.742-6.548-.361-.873-3.004-8.403-7.87-22.646l7.87-.054c2.523 13.205 4.145 20.463 4.866 21.827z" fill="#cb7a43"/><path d="m125.758 137.282-3.545-3.984c14.78-9.658 19.766-27.83 31.842-37.27l3.244.491c.481 15.661-5.887 37.871-31.541 40.763z" fill="#3d2884"/><path d="m160.847 94.662-8.291 1.2c0 14.297-8.592 25.102-10.754 35.143-.181.873-.421 2.619.901 2.619h28.777c-1.381-16.589-3.784-28.921-10.633-38.962z" fill="#efe8f4"/><path d="M184.577 147.922h-6.188a71.197 71.197 0 0 1-3.845-7.149h-22.65c-3.364-7.694-1.261-22.973 6.189-45.946l2.583-.11c.24-.054.481-.054.781-.054 5.167 0 8.05-1.855 11.295-.928 3.244.873 4.325 3.656 1.321 8.622-.72 1.146-1.682 1.91-2.883 2.183 9.552 11.841 13.998 26.356 13.397 43.382z" fill="#3d2884"/><path d="M157.543 50.244c0 5.73-4.446 10.75-11.295 13.915-1.562.709-.541 5.074-.841 5.838-.3.764-6.068-3.492-7.029-3.328-2.644.545-5.527.818-8.471.818-15.26 0-27.636-7.694-27.636-17.243 0-9.55 12.376-17.244 27.636-17.244s27.636 7.749 27.636 17.244z" fill="#f9aa38"/></g></svg>