<svg fill="none" height="234" width="248" xmlns="http://www.w3.org/2000/svg"><filter id="a" color-interpolation-filters="sRGB" filterUnits="userSpaceOnUse" height="273.336" width="285.488" x="-31" y="-39"><feFlood flood-opacity="0" result="BackgroundImageFix"/><feColorMatrix in="SourceAlpha" result="hardAlpha" values="0 0 0 0 0 0 0 0 0 0 0 0 0 0 0 0 0 0 127 0"/><feOffset dx="1" dy="1"/><feGaussianBlur stdDeviation="1"/><feColorMatrix values="0 0 0 0 0.129412 0 0 0 0 0.129412 0 0 0 0 0.129412 0 0 0 0.4 0"/><feBlend in2="BackgroundImageFix" result="effect1_dropShadow_17863_419846"/><feBlend in="SourceGraphic" in2="effect1_dropShadow_17863_419846" result="shape"/></filter><filter id="b" color-interpolation-filters="sRGB" filterUnits="userSpaceOnUse" height="47.358" width="28.842" x="107.402" y="141.612"><feFlood flood-opacity="0" result="BackgroundImageFix"/><feColorMatrix in="SourceAlpha" result="hardAlpha" values="0 0 0 0 0 0 0 0 0 0 0 0 0 0 0 0 0 0 127 0"/><feOffset dx="1.205" dy="1.205"/><feGaussianBlur stdDeviation="1.205"/><feColorMatrix values="0 0 0 0 0.129412 0 0 0 0 0.129412 0 0 0 0 0.129412 0 0 0 0.5 0"/><feBlend in2="BackgroundImageFix" result="effect1_dropShadow_17863_419846"/><feBlend in="SourceGraphic" in2="effect1_dropShadow_17863_419846" result="shape"/></filter><filter id="c" color-interpolation-filters="sRGB" filterUnits="userSpaceOnUse" height="152.342" width="96.234" x="28.695" y="81.386"><feFlood flood-opacity="0" result="BackgroundImageFix"/><feColorMatrix in="SourceAlpha" result="hardAlpha" values="0 0 0 0 0 0 0 0 0 0 0 0 0 0 0 0 0 0 127 0"/><feOffset dx="1.305" dy="1.305"/><feGaussianBlur stdDeviation="1.305"/><feColorMatrix values="0 0 0 0 0.129412 0 0 0 0 0.129412 0 0 0 0 0.129412 0 0 0 0.5 0"/><feBlend in2="BackgroundImageFix" result="effect1_dropShadow_17863_419846"/><feBlend in="SourceGraphic" in2="effect1_dropShadow_17863_419846" result="shape"/></filter><g filter="url(#a)"><path d="M-.45 137.04c18.105-9.052 51.189-12.124 65.468-12.528 14.549-2.829 48.818-8.244 69.51-7.274 25.864 1.212 94.969 9.699 103.456 12.932 8.486 3.233 19.398 12.932 9.699 26.268s-99.415 40.413-122.046 42.029c-22.631 1.617-48.495-12.528-60.619-18.994s-50.515-8.89-69.51-16.165c-4.4-1.685-18.59-14.952 4.042-26.268z" fill="#ddf2f9"/><path d="M42.361-16.199v164.85l72.577 7.546V13.484L64.385-38z" fill="#c1e3f2"/><path d="M175.17 13.484h-60.231v142.713h60.231z" fill="#6bb8dc"/><path d="M64.385-38h57.394l53.389 51.484h-60.23z" fill="#1174ba"/><path d="M162.987 1.744h-59.729l1.501 1.342h59.73zM172.331 10.8h-60.063l1.501 1.51h60.063z" fill="#06508c"/><path d="M132.957 29.583h-7.174v19.285h7.174zM124.91 156.507v-52.766c0-11.412 9.936-20.75 22.317-20.75 12.229 0 22.318 9.338 22.318 20.75v52.766z" fill="#ddf2f9"/><path d="M165.606 156.507h-36.758v-51.376c0-9.982 8.152-18.202 18.379-18.202 10.078 0 18.379 8.074 18.379 18.202z" fill="#f45f0c"/><path d="M211.554 156.507h-42.009v-53.315c0-10.358 9.316-18.888 21.004-18.888 11.519 0 21.005 8.378 21.005 18.888z" fill="#f77b0b"/><g fill="#ddf2f9"><path d="M143.467 29.583h-7.174v19.285h7.174zM153.979 29.583h-7.174v19.285h7.174zM164.491 29.583h-7.175v19.285h7.175z"/></g><path d="M94.584 74.191h11.846v-32.87H94.584z" fill="#6bb8dc"/><g filter="url(#b)"><path d="M124.744 149.71a8.114 8.114 0 1 1-16.044 2.445 8.114 8.114 0 0 1 16.044-2.445zm-14.795 2.255a6.852 6.852 0 1 0 13.546-2.066 6.852 6.852 0 0 0-13.546 2.066z" fill="#f45f0c"/><path d="M123.431 158.118a4.697 4.697 0 1 1-9.287 1.416 4.697 4.697 0 0 1 9.287-1.416zm-7.624 1.162a3.014 3.014 0 1 0 5.96-.907 3.014 3.014 0 0 0-5.96.907z" fill="#f77b0b"/><path d="M118.099 163.411a.854.854 0 1 1 1.696-.208l2.595 21.195a.854.854 0 0 1-1.696.207z" fill="#f77b0b"/><path d="M121.652 183.827a.64.64 0 0 1 .558-.713l2.755-.338a.641.641 0 0 1 .156 1.272l-2.756.337a.64.64 0 0 1-.713-.558zM121.444 182.132a.641.641 0 0 1 .558-.714l2.755-.337a.64.64 0 1 1 .156 1.271l-2.755.338a.641.641 0 0 1-.714-.558zM121.237 180.436a.64.64 0 0 1 .558-.713l2.755-.338a.64.64 0 0 1 .156 1.272l-2.756.337a.64.64 0 0 1-.713-.558zM121.029 178.741a.641.641 0 0 1 .558-.714l2.755-.337a.64.64 0 1 1 .156 1.271l-2.755.338a.64.64 0 0 1-.714-.558z" fill="#f77b0b"/><g fill="#f45f0c"><path d="M124.519 156.261a3.878 3.878 0 1 1-7.668 1.17 3.878 3.878 0 0 1 7.668-1.17zm-6.295.959a2.49 2.49 0 1 0 4.922-.75 2.49 2.49 0 0 0-4.922.75z"/><path d="M121.571 160.201a.706.706 0 0 1 1.28-.594l7.413 15.998a.705.705 0 0 1-1.279.593z"/><path d="M129.54 175.344a.53.53 0 0 1 .257-.703l2.08-.963a.528.528 0 1 1 .445.959l-2.08.964a.528.528 0 0 1-.702-.257zM128.947 174.064a.528.528 0 0 1 .257-.702l2.08-.964a.528.528 0 1 1 .445.96l-2.08.963a.528.528 0 0 1-.702-.257zM128.354 172.784a.528.528 0 0 1 .257-.702l2.08-.964a.528.528 0 1 1 .445.96l-2.08.964a.53.53 0 0 1-.702-.258zM127.761 171.504a.528.528 0 0 1 .257-.702l2.08-.964a.529.529 0 1 1 .444.96l-2.079.964a.528.528 0 0 1-.702-.258zM121.427 157.544a8.126 8.126 0 0 0 2.811-3.552l-1.17-.476a6.843 6.843 0 0 1-2.373 2.999z"/></g></g><g filter="url(#c)"><path d="m75.822 142.887 11.748 40.222 5.47 30.217h5.519l-5.52-70.439z" fill="#ffcaa7"/><path d="M70.61 142.887c.81 20.92.507 32.289.304 34.209-.202 1.92-1.215 14.603-8.305 36.887h5.723c9.368-21.374 12.608-34.057 13.723-36.887 1.063-2.83 4.253-14.199 8.861-34.209z" fill="#ffcaa7"/><path d="M75.57 142.887c3.039 13.846 8.305 35.927 15.8 66.296h8.101c.608-31.177-1.924-51.642-6.33-66.296z" fill="#1e9ed1"/><path d="M70.558 142.887c.81 20.92-1.266 41.485-7.697 66.649h8.609c9.368-21.02 16.103-41.535 20.71-66.649z" fill="#6bb8dc"/><path d="m61.797 218.127.304-5.104c1.873.556 4.203.354 6.988-.657 2.987 2.122 6.785 3.588 11.343 4.346.354.05.557.404.506.758v.05l-.456 1.567H62.455zM91.824 218.127l.304-5.104c1.874.556 4.203.354 6.988-.657 2.988 2.122 6.786 3.588 11.343 4.346.355.05.557.404.506.758v.05l-.455 1.567H92.483z" fill="#06508c"/><path d="M45.13 159.306c.82.081 1.679.363 2.456-.16v9.778c-.86.041-1.678-.241-2.496-.362 0-3.058.04-6.157.04-9.256z" fill="#88c6e3"/><path d="M46.809 186.349c1.473.081 2.988.121 4.46.202.124.402.492.322.82.362 2.005.241 3.97.442 5.975.724 1.923.282 3.11 1.529 3.274 3.461.409 5.191.49 10.383.613 15.574.123 4.909-.122 9.819-.327 14.729-.04 1.207.082 2.374-.123 3.581-.163 1.006-.695 2.495-1.719 2.938-.368.161-2.946 1.408-3.233 1.046-.082-.121.246-.966.287-1.127.163-.845.245-1.69.286-2.535 0-.241.082-.443.082-.684.164-5.513.123-11.026.246-16.54.04-1.931 0-3.863 0-5.754.04-3.501-.205-7.002-.246-10.504 0-.965-.286-1.971-1.105-2.535-.737-.523-1.596-.925-2.578-.966-2.62-.161-3.52.282-6.14.121-1.145-.08-3.028.282-4.173.201-1.105-.08-3.315.201-4.42.201-.778 0-1.72.403-2.497.443-.737.04-2.906-1.167-3.56-1.69.327-.282 2.455-.805 2.823-.926 3.643-1.126 7.49-.201 11.255-.322z" fill="#1174ba"/><path d="M55.566 186.792c1.31 0 2.374-.885 3.684-.926.9.363 1.841.322 2.742.483 2.824.322 3.847 2.012 3.929 4.427.245 6.439.532 12.878.45 19.316-.082 4.467-.205 8.934-.491 13.401-.082 1.328-.86 2.254-2.047 2.857a7.396 7.396 0 0 1-2.087.644c.368-.764.86-1.449.9-2.334.082-2.857.287-5.755.328-8.612.164-8.29.123-16.539-.45-24.789-.164-2.455-1.269-3.662-3.765-4.024a101.868 101.868 0 0 1-3.193-.443z" fill="#1174ba"/><path d="M55.567 186.792c1.064.161 2.169.322 3.233.483 2.496.362 3.601 1.569 3.765 4.024.573 8.25.614 16.54.45 24.789-.04 2.858-.245 5.755-.327 8.612-.041.886-.532 1.57-.9 2.334-.492.242-.983.604-1.556.564 1.76-1.771 1.269-4.065 1.392-6.198.204-4.909.45-9.819.327-14.728-.123-5.192-.205-10.383-.614-15.574-.164-1.892-1.35-3.139-3.274-3.461-1.964-.282-3.97-.483-5.975-.724-.327-.041-.696.04-.819-.363 1.433-.04 2.865.202 4.298.242zM59.535 161.037c.819.08 1.678.282 2.456-.121v8.25c-.86.04-1.678-.201-2.497-.282.041-2.616.041-5.231.041-7.847z" fill="#88c6e3"/><path d="m43.74 168.602 6.343.363v.281a495.343 495.343 0 0 1-7.694-.402l1.35-.242zM61.5 184.74c-.367.282-.777.523-1.268.443 1.187-.886 1.146-2.174 1.228-3.461.04-.362 0-.765 0-1.127v-4.668c.082-1.127-.082-2.254-.205-3.34-.163-1.57-1.719-2.576-3.478-2.415-.246 0-.532-.04-.778-.04-.573-.604-1.391-.242-2.046-.483-.328-.121-.696.04-1.064-.201.245-.242.532-.161.736-.161 1.72.201 3.438.402 5.157.684 1.35.241 2.25 1.167 2.415 2.535.368 2.656.327 5.312.245 7.968 0 .523-.082 1.047-.082 1.57.041 1.046-.245 1.931-.86 2.696z" fill="#06508c"/><path d="M38.133 186.068c.49-.363 1.146-.282 1.719-.483l6.261.483c.246 0 .573-.081.696.241-2.906.121-5.77-.282-8.676-.241z" fill="#88c6e3"/><g fill="#06508c"><path d="M62.072 159.025a3.089 3.089 0 0 0-1.35-2.294c-.982-.644-2.292-.563-3.438-.644-1.719-.161-3.438-.282-5.157-.443-1.637-.12-3.233-.362-4.87.041-1.596.483-2.578 2.052-2.291 3.662.04.161.04.362.245.442.696.242 1.473.242 2.17.081.654-.161.367-.765.408-1.207.041-.886.369-1.208 1.31-1.127 1.678.121 3.356.282 4.993.402 1.514.121 3.151.081 4.584.523.573.242.654.765.654 1.288.041.443-.163.926.246 1.288.819.08 1.678.282 2.456-.121.204-.603.122-1.247.04-1.891zm-1.923-1.65c.04.161.164.241.286.322a.396.396 0 0 1-.286-.322zm1.023 1.891c.041-.563 0-1.086-.614-1.489-.123-.161-.245-.281-.368-.442.123.161.245.281.368.442.614.403.655.926.614 1.489zM57.45 202.326c.04-3.501-.205-7.002-.246-10.503 0-.966-.287-1.972-1.105-2.536-.737-.523-1.596-.925-2.579-.966-3.11-.201-6.22-.442-9.29-.643-3.11-.161-6.22-.041-9.33-.363-2.538-.241-4.38 1.409-4.462 3.904-.122 3.461-.245 6.881-.368 10.342-.164 4.266 0 8.733.082 13.039.04 2.253.164 4.507.286 6.72.082 1.529-.122 3.34.778 4.668.818 1.167 2.333 1.53 3.683 1.731 3.643.603 7.326 1.086 11.05 1.489 1.883.201 3.765.362 5.648.523 1.678.121 3.233.241 4.747-.644.041-.04.123-.08.164-.121l.123-.241c.327-1.127.45-2.294.532-3.421 0-.241.082-.442.082-.684.163-5.513.122-11.026.245-16.54 0-1.931-.04-3.863-.04-5.754z"/><path d="M30.52 224.338c0 .041.04.081.081.121 0-.04 0-.121-.04-.161z"/></g><path d="M64.775 173.834c0-.684 0-1.368-.123-2.012-.123-.644-.41-1.328-.941-1.771-.573-.523-1.351-.764-2.129-.885-.45-.08-.9-.121-1.391-.161-4.993-.563-10.027-1.006-15.06-.885-.37 0-1.147.241-1.392.483 2.087.12 4.215.241 6.302.362v.282a495.353 495.353 0 0 1-7.694-.403c-.573-.04-1.391.282-1.923.443-.696.201-1.392.443-2.006.805-.982.563-1.391 1.569-1.473 2.696-.246 2.777-.205 5.594-.082 8.37.041.805.123 1.65.41 2.415.49 1.207 1.432 1.61 2.537 2.093l6.261.482c.246 0 .573-.08.696.242 1.474.08 2.988.121 4.461.201 1.433-.04 2.865.161 4.297.242.573.04 1.023-.081 1.515-.242.45-.161.94-.362 1.391-.483.9-.282 1.8-.724 2.333-1.529.41-.644.573-1.368.696-2.133.245-1.771.286-3.581.204-5.392-.04-1.167-.082-2.334-.245-3.501-.164-.886-.369-2.214-1.146-2.777a2.788 2.788 0 0 0-.942-.403 16.356 16.356 0 0 0-3.11-.563c-.246-.04-2.25-.362-2.333-.241.082-.121.328-.161.532-.161 1.678.161 3.315.362 4.993.643.614.121 1.269.242 1.72.604.572.443.818 1.167.94 1.851.614 2.697.328 5.473.287 8.25 0 1.288.04 2.696-.696 3.783-.082.08-.123.201-.082.322.041.04.614-.242.737-.282.491-.161.982-.362 1.391-.684.492-.403.778-1.006.9-1.61.124-.603.124-1.247.124-1.851.04-2.254.04-4.427.04-6.6z" fill="#1e9ed1"/><path d="m37.272 184.579.04.04c0-.04 0-.04-.04-.04 0-.04 0 0 0 0z" fill="#1174ba"/><path d="M51.517 170.413c2.169.242 5.73-.241 6.875 2.173.205.443.246.886.286 1.369.246 3.662.369 7.364-.49 10.905-.41 1.61-1.392 1.972-2.988 1.892-.491-.041-1.269.08-1.76.04-1.269-.081-2.537-.282-3.806-.242-1.31-.08-2.66-.12-3.97-.201-.123-.322-.368-.241-.614-.241l-5.525-.483c-1.023-.483-1.841-.885-2.25-2.093-.287-.764-.328-1.609-.369-2.414-.123-2.777-.123-5.594.082-8.371.082-1.086.41-2.092 1.31-2.696.532-.362 3.028-.201 3.683-.201z" fill="#1e9ed1"/><path d="M80.38 95.946c-1.47-1.718-2.482-3.84-2.28-6.215.456-6.822 9.976-5.306 11.85-1.87 1.874 3.436 1.62 12.178-.76 12.784-.962.253-2.987-.354-5.063-1.617l1.316 9.146h-7.646z" fill="#ffcaa7"/><path d="M79.773 97.461c-.962-4.295-3.696-7.175-3.291-9.095.304-1.263 1.013-2.072 2.228-2.375.608-2.526 2.633-3.588 6.026-3.234 5.114.556 8.254 2.678 6.887 7.327-1.216 0-2.735-.455-4.81.303-.66.253-1.115 1.01-1.419 2.274h-.911c-.912-1.516-1.823-2.072-2.684-1.668-.86.405-1.063 1.365-.608 2.88l-.455 3.538h-.963z" fill="#06508c"/><path d="M90.964 93.217c.202.404.557.808.709 1.213.152.404.253.96.304 1.364.05.606-.71 1.364-1.368 1.364" fill="#ffcaa7"/><path d="M90.611 92.156h-.557c-.152.05-.304.05-.506.1-.355.102-.659.203-1.064.253.203-.404.557-.606.962-.707.203-.05.406-.05.659 0s.455.152.506.354zM90.611 98.724c-.203.05-.405.05-.557 0-.203-.05-.354-.151-.557-.202-.304-.152-.608-.404-.911-.505l.354-.202c0 .05.05.202.152.353.101.152.202.253.304.405.202.252.455.555.709.808a2.479 2.479 0 0 1-.557-.202l-.456-.303c-.152-.101-.304-.253-.405-.405s-.253-.353-.253-.656v-.354l.303.151c.405.152.659.405.962.657.304.152.558.354.912.455zM90.003 93.773a.405.405 0 1 0 0-.81.405.405 0 0 0 0 .81z" fill="#06508c"/><path d="m105.145 132.579 9.064 8.792c2.633 1.112 4.81 2.375 6.482 3.689.354.455.81 1.314-1.013.96-1.773-.404-3.646-.708-4.001-.152-.354.556.659 1.466.051 2.224-.405.505-1.823-1.112-4.152-4.801l-9.419-5.558zm-44.258-7.984 6.988.051c-5.317 17.23-8.153 26.225-8.507 27.033-.76 1.819.81 4.598 1.519 6.114-2.178.96-1.925-2.627-4.71-1.364-2.532 1.162-4.405 3.284-7.292 1.465-.354-.202-.759-1.061.203-1.667 2.33-1.617 5.722-4.447 6.178-5.356.658-1.264 2.532-10.005 5.62-26.276z" fill="#ffcaa7"/><path d="m82.203 104.788 2.785-.455c4.355 15.362 26.687 25.821 28.104 31.531.507 2.122-1.012 3.184-.253 3.79l-3.595 2.627c-.608-.707-1.924.607-4.608-.303-2.684-.909-22.433-18.999-22.433-37.19z" fill="#1174ba"/><path d="M86.863 106.809c-.304 20.313 11.444 25.518 8.811 33.653-2.178 6.72-22.889 13.946-26.484 7.377-1.468-2.678-2.127-5.912-2.177-9.398a138.58 138.58 0 0 0-2.178 6.973c-.911 3.335-4.507 3.891-4.507 5.204l-4.709-1.313c.304-1.769-1.874-2.628-1.316-6.519 2.683-17.584 9.823-30.368 21.47-38.251l.101-1.718c.051-.707.659-1.212 1.368-1.162l8.608.606a1.257 1.257 0 0 1 1.165 1.365z" fill="#1e9ed1"/></g></g></svg>