<svg fill="none" height="194" width="215" xmlns="http://www.w3.org/2000/svg"><filter id="a" color-interpolation-filters="sRGB" filterUnits="userSpaceOnUse" height="193.584" width="214.751" x="0" y="0"><feFlood flood-opacity="0" result="BackgroundImageFix"/><feColorMatrix in="SourceAlpha" result="hardAlpha" values="0 0 0 0 0 0 0 0 0 0 0 0 0 0 0 0 0 0 127 0"/><feOffset dx="1" dy="1"/><feGaussianBlur stdDeviation="1"/><feColorMatrix values="0 0 0 0 0.129412 0 0 0 0 0.129412 0 0 0 0 0.129412 0 0 0 0.4 0"/><feBlend in2="BackgroundImageFix" result="effect1_dropShadow_17863_420199"/><feBlend in="SourceGraphic" in2="effect1_dropShadow_17863_420199" result="shape"/></filter><g filter="url(#a)"><path d="m171.44 96.934-15.169 48.248-7.463 41.016h-5.75l7.83-89.264z" fill="#600566"/><path d="M176.945 96.934c-.978 26.436.123 40.187.367 42.558.245 2.371 3.426 18.019 10.888 47.536l-6.117-2.015c-11.866-27.028-15.903-41.135-17.249-44.691-1.346-3.557-5.016-18.019-10.888-43.27h22.999z" fill="#77057a"/><path d="M188.201 184.894c.489 1.186.734 2.015.734 2.608 0 .711-.123 1.778-.367 3.082h-22.755c-.612-1.896-.245-2.963.979-3.082a83.213 83.213 0 0 0 3.18-.355l10.644-4.624c.244-.118.489 0 .489.237l.612 1.541c1.223.593 2.202.83 2.936.83.611 0 1.468-.237 2.447-.711a.915.915 0 0 1 1.101.474zM150.154 184.894c.489 1.186.734 2.015.734 2.608 0 .711-.123 1.778-.367 3.082h-22.755c-.612-1.896-.244-2.963.979-3.082a83.521 83.521 0 0 0 3.181-.355l10.643-4.624c.245-.118.489 0 .489.237l.734 1.66c1.224.593 2.202.83 2.936.83.612 0 1.468-.237 2.447-.711.245-.238.734-.119.979.355zM173.521 96.934l-6.484 24.539h-19.819l2.936-24.539z" fill="#edc4fc"/><path d="M177.068 96.934c2.08 6.164 2.569 14.344 1.223 24.539h-20.185l-5.505-24.539z" fill="#edc4fc"/><path d="M166.915 46.434c1.835-2.134 3.18-4.742 2.936-7.587-.612-8.417-12.601-6.52-15.048-2.253-2.446 4.268-2.079 14.937.979 15.767 1.223.355 3.793-.474 6.362-2.015l-1.591 11.261h9.665z" fill="#cb7a43"/><path d="M163.612 45.84c1.223 2.253 2.813 3.913 4.526 3.913 3.181 0 5.383-4.15 5.383-8.535v-.475c3.303 2.253 5.872 6.639 10.398 6.639 5.995 0 8.442-11.736 0-11.736-5.749 0-8.563.83-11.01 2.015a8.66 8.66 0 0 0-2.08-3.2c-.244-.238-.489-.475-.978-.712a6.094 6.094 0 0 0-.857-.356c-1.468-.474-3.547-.83-5.994-.948h-1.346c0-2.134-1.835-3.912-4.037-3.912s-4.037 1.778-4.037 3.912 1.713 3.794 3.792 3.912c1.224.356 2.814.593 4.527.711-.122.593-.245 1.304-.245 2.134 0 .711.123 1.423.245 2.134.367-.474.856-.711 1.346-.711 1.468 0 2.446 1.185 2.446 2.37.123 1.66-.856 2.727-2.079 2.846z" fill="#600566"/><path d="M199.823 111.634a.939.939 0 0 0-.367-1.067c-.489-.237-.978-.237-1.223.237-.245.355-.122.948.245 1.304.367.237.856.237 1.101-.119l.856.593.245-.356zM201.536 109.262a.938.938 0 0 0-.367-1.066c-.489-.238-.978-.238-1.223.237-.245.355-.122.948.245 1.304.367.237.856.237 1.101-.119l.856.593.245-.356zM203.493 106.773a.939.939 0 0 0-.367-1.067c-.489-.237-.978-.237-1.223.237-.245.356-.122.948.245 1.304.367.237.856.237 1.101-.118l.856.592.245-.355z" fill="#9e2dad"/><path d="M177.558 156.325c1.835-1.778 5.505-1.66 7.829-5.335 4.037-8.416-4.159-14.936-4.159-14.936s-7.218-7.587-15.659-3.201c-3.671 2.608-3.303 6.046-5.016 7.943-2.325 2.489-9.298.592-15.537 7.112-8.93 9.365 3.059 20.034 4.16 20.983 1.101 1.067 12.722 11.973 21.898 2.845 6.484-6.402 4.037-13.04 6.484-15.411z" fill="#fcbf35"/><path d="M206.674 117.087c-.245-.356-.734-.474-1.101-.237l-.612-.83-.245.237.612.83c-.245.355-.245.711 0 1.067.367.355.856.474 1.346.237.244-.356.367-.949 0-1.304zM208.999 115.19c-.245-.356-.734-.474-1.101-.237l-.612-.83-.245.237.612.83c-.245.355-.245.711 0 1.067.367.355.856.474 1.346.237.245-.356.367-.83 0-1.304zM211.567 113.293c-.244-.356-.734-.474-1.101-.237l-.611-.83-.245.237.612.83c-.245.355-.245.711 0 1.067.367.355.856.474 1.345.237.245-.356.245-.949 0-1.304z" fill="#9e2dad"/><path d="M166.443 151.41c-2.427-2.181-2.644-5.779-.485-8.035s5.878-2.317 8.305-.135c2.427 2.181 2.645 5.779.485 8.035-2.159 2.256-5.877 2.316-8.305.135z" fill="#db8eef"/><path d="m202.882 117.679-3.793-3.438-29.727 28.925 5.26 4.861z" fill="#77057a"/><path d="M167.52 150.268c-1.734-1.558-1.873-4.144-.311-5.776s4.234-1.692 5.968-.134 1.873 4.145.311 5.777-4.234 1.692-5.968.133z" fill="#9e2dad"/><path d="m153.984 155.65 8.712 7.981-1.765 1.809-8.712-7.981zM210.222 111.871l-7.341 5.808-3.792-3.438 5.505-7.349c.734-.949 2.202-1.304 3.303-.712l1.713.949 1.101 1.659c.734.949.489 2.253-.489 3.083zm-7.096.829 3.425-3.912c.245-.355.245-.711-.122-1.067-.367-.237-.734-.237-1.101.119l-3.425 3.912c-.245.356-.245.711.122 1.067.367.237.856.237 1.101-.119zm5.995-1.541c.244-.237.367-.711 0-1.067-.245-.237-.734-.355-1.101 0l-3.915 3.557c-.245.237-.367.711 0 1.067.244.237.734.355 1.101 0z" fill="#db8eef"/><g fill="#fcbf35"><path d="m198.26 115.283 3.556 3.258-.168.172-3.556-3.258zM193.082 120.615l3.556 3.257-.168.173-3.556-3.258zM187.987 125.86l3.556 3.258-.168.172-3.556-3.257zM182.718 131.111l3.556 3.258-.168.172-3.556-3.258zM177.54 136.443l3.556 3.258-.168.172-3.556-3.257zM172.444 141.689l3.556 3.257-.168.173-3.556-3.258z"/></g><path d="m203.493 117.205-3.915-3.556-.489.592 3.792 3.438z" fill="#9e2dad"/><path d="m199.37 114.359.178.163-43.296 44.353-.178-.163zM199.967 114.928l.178.163-43.284 44.366-.177-.163zM200.566 115.487l.178.163-43.27 44.377-.178-.162zM201.182 116.08l.177.163-43.283 44.365-.178-.163zM201.789 116.655l.178.163-43.283 44.365-.178-.162zM202.553 117.308l.177.162-43.295 44.348-.178-.163z" fill="#f9f1fd"/><path d="m154.562 157.34 6.312 5.782-.588.603-6.312-5.782z" fill="#9e2dad"/><path d="m138.288 89.228-11.499 10.788c-3.303 1.423-6.117 2.845-8.197 4.623-.489.593-.978 1.66 1.224 1.186s4.648-.83 5.015-.119c.368.712-.856 1.778 0 2.727.49.593 2.325-1.304 5.261-5.927l11.867-6.758zm50.892 1.542h-8.441c5.261 16.359 8.074 25.013 8.441 25.961.979 2.252-1.101 5.69-1.835 7.468 2.814 1.186 2.447-3.2 5.995-1.659 1.835.829 1.101 1.896 1.346 3.319.244 1.897 3.18.356 3.914-.356.612-.592 3.303-4.03 1.958-4.86-2.936-2.015-5.505-3.912-5.995-4.979-.979-1.422-2.691-9.721-5.383-24.894z" fill="#cb7a43"/><path d="m165.08 56.391-3.548-.593c-5.994 14.581-16.515 27.858-31.563 39.713l11.378 13.395c15.047-16.951 24.345-34.496 23.733-52.515z" fill="#db8eef"/><path d="M180.372 98.95h-31.196c7.218-16.953 10.766-31.415 10.766-43.388l9.42-1.304c7.462 11.499 9.542 25.724 11.01 44.691z" fill="#f9f1fd"/><path d="M169.606 54.258h-.612c-.734 0-1.835.118-3.303.118l-2.324 6.283c-.245 7.706-1.591 23.116-4.16 46.351h20.43c0 1.66-.122 3.201-.244 4.861h15.169c-2.324-24.776-10.643-43.98-24.956-57.613z" fill="#db8eef"/><path d="M178.292 86.502c-.612 9.958-2.08 16.952-4.404 20.627h5.749a103.896 103.896 0 0 0-1.345-20.627z" fill="#c159d8"/><path d="M118.175 61.686c5.589 0 10.12-4.362 10.12-9.743s-4.531-9.743-10.12-9.743-10.12 4.362-10.12 9.743 4.531 9.743 10.12 9.743z" fill="#fca306"/><path d="M37.113 58.235c2.314 7.516 45.685 22.549 45.975 23.105.289.279-1.735 10.022-5.783 29.508l3.47.557C88.87 89.97 92.34 78.278 91.183 76.608c-1.446-2.784-13.59-10.022-35.854-21.992z" fill="#e8a16d"/><path d="m77.304 106.951 5.783.835c8.674-14.754 10.698-26.167 8.963-31.178-1.446-3.34-13.3-10.857-35.854-21.992l-19.373 4.176c4.627 17.816 43.083 23.94 43.661 24.497.579.278-2.313 8.908-3.18 23.662z" fill="#edc4fc"/><path d="M76.148 110.57c-.579.835-.868 1.67-.868 1.949v2.505c.579 0 6.94.835 18.795 2.505.578-1.391.578-2.227-.579-2.505s-2.023-.557-2.602-.557l-8.385-4.732h-.578l-.868 1.113c-1.156.279-1.735.557-2.602.279-.578 0-1.157-.279-2.024-.835.289 0-.29 0-.29.278z" fill="#77057a"/><path d="M39.426 54.34 22.077 94.705l-17.06 33.962h4.049l43.95-74.327z" fill="#e8a16d"/><path d="M4.728 126.993c-.29.835-.579 1.671-.579 2.227 0 .557 0 1.392.29 2.506h18.794c.578-1.671.29-2.506-.867-2.506s-2.024-.278-2.603-.278l-8.674-3.897c-.29 0-.29 0-.578.278l-.579 1.114c-.867.556-1.735.556-2.313.556-.578 0-1.156-.278-2.024-.556-.289 0-.867.278-.867.556z" fill="#77057a"/><path d="m6.463 121.429 8.963 1.67c6.94-9.743 35.855-49.83 39.035-68.759h-19.95c-10.7 13.64-21.398 57.068-28.048 67.089z" fill="#edc4fc"/><path d="M41.45 12.859c-1.445-1.67-2.601-3.897-2.312-6.403.578-6.96 10.409-5.289 12.433-1.948 2.024 3.34 1.735 12.248-.867 13.083-.868.279-3.181-.278-5.205-1.67l1.446 9.187h-8.096z" fill="#e8a16d"/><path d="M51.816 7.118c-.287-.058-.517 0-.747 0-.23.057-.46.057-.632.115-.46.115-.862.23-1.437.287.115-.287.345-.46.517-.632.23-.172.46-.287.747-.345.288-.057.575-.057.863 0 .287.115.517.345.69.575zM51.075 9.15a.575.575 0 1 0 0-1.15.575.575 0 0 0 0 1.15z" fill="#9e2dad"/><path d="M52.502 8.565c.232.356.573.66.767 1.02.19.322.958 1.342 1.043 1.752.103.562-1.133.78-1.703.808" fill="#e8a16d"/><path d="M45.788 7.29c.289 4.176 1.156 6.125 2.313 6.125 2.024 0 3.759-1.113 4.626-1.113.578 0 .578.835 0 1.391-.29.557-2.024.836-2.024 1.67 0 .836 1.446.28 1.446.557 0 .836.289 1.95-1.157 1.95-1.156 0-4.915-.558-5.783-2.228-.289-1.113-.578-3.619-.867-7.516h-.29c-1.156 0-2.023.835-2.023 1.949 0 .556.289 1.113.578 1.391-.578.557-.867 1.392-1.446 1.95-2.313-1.393-4.048-5.012-1.735-8.63.579-1.67 2.024-2.784 3.47-3.063 1.446-.835 2.891-.835 4.048-.557 2.313.279 4.337.836 4.916 1.114 0 1.949-.29 2.784-4.048 2.505-.868.836-1.446 1.392-2.024 2.506z" fill="#9e2dad"/><path d="m66.606 44.037 12.144-5.011c2.024-1.949 4.048-3.619 6.072-4.733.578-.278 1.735-.278.578 1.392-1.156 1.392-2.024 3.063-1.735 3.62.29.556 1.735 0 2.313.834.29.557-1.734 1.392-6.36 1.95l-9.253 6.68zM17.45 45.429l6.94 1.392c-6.94 12.527-10.7 18.93-10.988 19.764-1.157 1.67 0 4.733.289 6.403-2.313.557-1.446-3.062-4.626-2.227-2.892.557-5.205 2.505-7.807 0-.29-.278-.579-1.113.578-1.67 2.602-1.114 6.94-3.34 7.518-4.176.578-1.113 3.47-7.516 8.096-19.486z" fill="#e8a16d"/><path d="m43.185 20.656 2.891-.557c6.361 5.846 8.964 20.043 13.012 21.992 4.048 1.67 9.541 0 16.481-2.227l2.024 4.454c-6.072 6.402-19.084 11.692-24.288 8.63-8.675-4.733-10.41-22.27-10.12-32.292z" fill="#77057a"/><path d="M30.463 55.729h25.734c1.156 0 .867-1.67.867-2.506-2.024-9.465-9.541-19.765-9.541-33.405l-7.518-1.114c-6.362 9.744-8.386 21.435-9.542 37.025z" fill="#f9f1fd"/><path d="M27.86 46.262c-5.204 9.186-9.541 15.59-13.3 19.765l-5.205-1.114c3.47-20.6 13.59-35.91 30.072-45.932h2.891c6.65 21.713 8.385 36.467 5.494 43.705H24.68c.29-5.289 1.446-10.856 3.18-16.424z" fill="#9e2dad"/><path d="M154.22 41.312c-.17 1.612-1.805 2.944-2.04 4.547-.168 1.154 1.031 1.46 2.066 1.546" fill="#cb7a43"/><path d="M154.718 40.6c-.017-.33.36-.668.699-.75.339-.081.724-.025 1.044.022.312.111.623.222.851.452s.457.46.538.799c-.311-.111-.558-.213-.869-.324-.247-.101-.559-.212-.815-.25-.247-.101-.503-.139-.76-.176-.128-.02-.394.007-.688.226zM153.866 49.117c.467-.063.816-.208 1.229-.344.413-.136.825-.272 1.348-.261l1.044.021-.808.602c-.368.274-.671.557-1.102.821-.432.264-.854.465-1.367.39.799-.538 1.287-1.187 2.031-1.799l.172.615c-.33.017-.733.09-1.201.152-.467.062-.989.051-1.346-.197zM155.234 41.984a.454.454 0 1 0 .132-.898.454.454 0 0 0-.132.898z" fill="#600566"/></g></svg>