<svg fill="none" height="217" width="248" xmlns="http://www.w3.org/2000/svg"><filter id="a" color-interpolation-filters="sRGB" filterUnits="userSpaceOnUse" height="83.672" width="291.273" x="111" y="0"><feFlood flood-opacity="0" result="BackgroundImageFix"/><feColorMatrix in="SourceAlpha" result="hardAlpha" values="0 0 0 0 0 0 0 0 0 0 0 0 0 0 0 0 0 0 127 0"/><feOffset dx="1" dy="1"/><feGaussianBlur stdDeviation="1"/><feColorMatrix values="0 0 0 0 0.129412 0 0 0 0 0.129412 0 0 0 0 0.129412 0 0 0 0.4 0"/><feBlend in2="BackgroundImageFix" result="effect1_dropShadow_17863_419925"/><feBlend in="SourceGraphic" in2="effect1_dropShadow_17863_419925" result="shape"/></filter><filter id="b" color-interpolation-filters="sRGB" filterUnits="userSpaceOnUse" height="91.518" width="249.996" x="-29" y="120"><feFlood flood-opacity="0" result="BackgroundImageFix"/><feColorMatrix in="SourceAlpha" result="hardAlpha" values="0 0 0 0 0 0 0 0 0 0 0 0 0 0 0 0 0 0 127 0"/><feOffset dx="1" dy="1"/><feGaussianBlur stdDeviation="1"/><feColorMatrix values="0 0 0 0 0.129412 0 0 0 0 0.129412 0 0 0 0 0.129412 0 0 0 0.4 0"/><feBlend in2="BackgroundImageFix" result="effect1_dropShadow_17863_419925"/><feBlend in="SourceGraphic" in2="effect1_dropShadow_17863_419925" result="shape"/></filter><filter id="c" color-interpolation-filters="sRGB" filterUnits="userSpaceOnUse" height="125.201" width="74.741" x="32.321" y="86.978"><feFlood flood-opacity="0" result="BackgroundImageFix"/><feColorMatrix in="SourceAlpha" result="hardAlpha" values="0 0 0 0 0 0 0 0 0 0 0 0 0 0 0 0 0 0 127 0"/><feOffset dx="1.583" dy="1.583"/><feGaussianBlur stdDeviation="1.583"/><feColorMatrix values="0 0 0 0 0.129412 0 0 0 0 0.129412 0 0 0 0 0.129412 0 0 0 0.5 0"/><feBlend in2="BackgroundImageFix" result="effect1_dropShadow_17863_419925"/><feBlend in="SourceGraphic" in2="effect1_dropShadow_17863_419925" result="shape"/></filter><filter id="d" color-interpolation-filters="sRGB" filterUnits="userSpaceOnUse" height="119.495" width="61.519" x="22.276" y="97.155"><feFlood flood-opacity="0" result="BackgroundImageFix"/><feColorMatrix in="SourceAlpha" result="hardAlpha" values="0 0 0 0 0 0 0 0 0 0 0 0 0 0 0 0 0 0 127 0"/><feOffset dx="1.583" dy="1.583"/><feGaussianBlur stdDeviation="1.583"/><feColorMatrix values="0 0 0 0 0.129412 0 0 0 0 0.129412 0 0 0 0 0.129412 0 0 0 0.5 0"/><feBlend in2="BackgroundImageFix" result="effect1_dropShadow_17863_419925"/><feBlend in="SourceGraphic" in2="effect1_dropShadow_17863_419925" result="shape"/></filter><g filter="url(#a)"><path d="M113.832 60.427h4.625v9.337l30.368 1.57h213.884l31.764-4.973 3.229-.524s1.571 0 1.571-3.927V57.81c-.175-13.351-.698-52.62-.698-52.62s-.001-2.356-3.142-2.356H115.49z" fill="#ea6206"/><path d="M153.8 54.231c4.014-1.222 9.424-1.047 9.424-1.047s5.323-.175 9.425 1.047c0 0 5.148 2.53 5.585 17.104h-30.019c.436-14.573 5.585-17.104 5.585-17.104z" fill="#5435d6"/><path d="M163.222 80.672c7.23 0 13.09-5.86 13.09-13.09s-5.86-13.09-13.09-13.09c-7.229 0-13.089 5.861-13.089 13.09s5.86 13.09 13.089 13.09z" fill="#331fa8"/><path d="M163.223 74.563a6.981 6.981 0 1 0 0-13.962 6.981 6.981 0 0 0 0 13.962z" fill="#5435d6"/><g fill="#feebde"><path d="M163.223 63.481a.437.437 0 1 0 0-.874.437.437 0 0 0 0 .874zM163.223 72.556a.437.437 0 1 0 0-.873.437.437 0 0 0 0 .873zM160.275 64.698a.435.435 0 1 0-.617-.617.437.437 0 0 0 .617.617zM166.72 71.178a.435.435 0 1 0-.617-.617.437.437 0 0 0 .617.617zM158.686 68.02a.437.437 0 1 0 0-.875.437.437 0 0 0 0 .874zM167.762 68.02a.437.437 0 1 0 0-.875.437.437 0 0 0 0 .874zM160.312 71.095a.435.435 0 1 0-.617-.617.437.437 0 0 0 .617.617zM166.648 64.705a.435.435 0 1 0-.617-.617.437.437 0 0 0 .617.617z"/></g><path d="M121.156 69.528h21.99V16.209h-21.99z" fill="#fcaf7b"/><path d="M131.887 69.528h.611V16.209h-.611z" fill="#5435d6"/><path d="M136.084 55.54h3.404c1.134 0 2.094-.96 2.094-2.094V20.46c0-1.134-.96-2.094-2.094-2.094h-3.404c-1.134 0-2.094.96-2.094 2.094v32.986c-.087 1.222.873 2.094 2.094 2.094zM124.915 55.54h3.403c1.134 0 2.094-.96 2.094-2.094V20.46c0-1.135-.96-2.094-2.094-2.094h-3.403c-1.135 0-2.095.96-2.095 2.094v32.986c0 1.221.96 2.094 2.095 2.094z" fill="#feebde"/><path d="M113.397 60.427h5.148v9.599h-2.53s-2.444.262-2.531-2.443c-.262-2.705-.087-7.156-.087-7.156z" fill="#fcaf7b"/><path d="M114.007 55.191h2.444v3.578h-2.531zM115.141 14.439s2.792-.262 2.792 3.229v23.037s.088 2.444-3.578 2.444z" fill="#feebde"/><path d="M121.174 13.703h1.396v-3.229h-1.396z" fill="#cd5605"/><path d="M121.948 11.297 112 14.177v7.592h.436v-7.156l9.512-1.92z" fill="#5435d6"/><path d="M114.182 15.486v10.122h-.611s-1.222-1.483-1.309-4.537v-2.269s0-2.182 1.309-3.316z" fill="#5435d6"/><path d="M225.27 34.684h27.313a3.91 3.91 0 0 0 3.927-3.927V13.129a3.91 3.91 0 0 0-3.927-3.926H225.27a3.91 3.91 0 0 0-3.927 3.927v17.627c-.087 2.094 1.745 3.927 3.927 3.927zM187.92 34.684h27.314a3.911 3.911 0 0 0 3.927-3.927V13.129a3.911 3.911 0 0 0-3.927-3.926H187.92a3.911 3.911 0 0 0-3.927 3.927v17.627c-.087 2.094 1.746 3.927 3.927 3.927zM150.57 34.684h27.314a3.91 3.91 0 0 0 3.927-3.927V13.129a3.91 3.91 0 0 0-3.927-3.926H150.57a3.91 3.91 0 0 0-3.926 3.927v17.627c-.088 2.094 1.745 3.927 3.926 3.927z" fill="#feebde"/><path d="M168.284 1h31.327c.873 0 1.658.698 1.658 1.658v.35h-34.556v-.35c0-.96.698-1.658 1.571-1.658zM178.932 57.373h113.444c.436 0 .698-.35.698-.698v-.262a.688.688 0 0 0-.698-.698H178.932a.688.688 0 0 0-.698.698v.262c0 .349.349.698.698.698z" fill="#5435d6"/></g><g filter="url(#b)"><path d="m-18.21 146.224 17.83-2.284a12.83 12.83 0 0 0 7.11-3.219c6.905-5.918 27.928-19.623 73.17-19.623 0 0 20.612-1.142 39.471 4.361a26.19 26.19 0 0 1 6.081 2.595c7.111 3.946 25.97 14.328 29.783 15.574 4.638 1.454 26.486 2.803 34.009 4.257 7.523 1.453 25.352 7.579 25.352 16.508v9.863c0 .623-1.34 7.164-1.34 7.164l-2.782 1.35c.103 3.115-2.37 5.606-5.462 5.606h-17.417c0-12.562-10.099-22.633-22.466-22.633-12.47 0-22.467 10.174-22.467 22.633H42.182c0-12.562-10.1-22.633-22.467-22.633-12.47 0-22.466 10.174-22.466 22.633l-22.364-3.322v-30.94c-.103-3.945 2.886-7.371 6.905-7.89z" fill="#fdd7bd"/><path d="M165.129 165.743c12.469 0 22.466 10.174 22.466 22.633v7.06h-44.933v-7.06c0-12.459 10.1-22.633 22.467-22.633zM19.715 165.743c12.47 0 22.466 10.174 22.466 22.633v7.06H-2.752v-7.06c0-12.459 9.997-22.633 22.466-22.633z" fill="#331fa8"/><path d="M191.821 155.464c-.825-.623-.412-1.869.515-2.077 2.576-.519 6.802-.103 10.615 1.35 2.473.935 7.626 4.776 8.863 9.448.206.727-.515 1.246-1.134 1.038-3.71-1.453-13.706-5.502-18.859-9.759z" fill="#5435d6"/><path d="M198.828 179.967h4.947c.721 0 1.339-.623 1.339-1.35s-.618-1.35-1.339-1.35h-4.947c-.721 0-1.34.623-1.34 1.35.103.727.619 1.35 1.34 1.35z" fill="#331fa8"/><path d="M165.128 208.518c11.042 0 19.993-9.018 19.993-20.142s-8.951-20.142-19.993-20.142-19.993 9.018-19.993 20.142 8.951 20.142 19.993 20.142z" fill="#5435d6"/><path d="M165.128 202.185c7.57 0 13.707-6.183 13.707-13.809s-6.137-13.808-13.707-13.808c-7.569 0-13.706 6.182-13.706 13.808s6.137 13.809 13.706 13.809z" fill="#331fa8"/><path d="M165.129 192.841c2.447 0 4.431-1.999 4.431-4.464 0-2.466-1.984-4.465-4.431-4.465-2.448 0-4.432 1.999-4.432 4.465 0 2.465 1.984 4.464 4.432 4.464z" fill="#feebde"/><path d="M19.716 208.518c11.042 0 19.993-9.018 19.993-20.142s-8.951-20.142-19.993-20.142c-11.042 0-19.993 9.018-19.993 20.142s8.95 20.142 19.993 20.142z" fill="#5435d6"/><path d="M19.716 202.185c7.57 0 13.707-6.183 13.707-13.809s-6.137-13.808-13.707-13.808c-7.57 0-13.706 6.182-13.706 13.808s6.136 13.809 13.706 13.809z" fill="#331fa8"/><path d="M19.717 192.841c2.447 0 4.431-1.999 4.431-4.464 0-2.466-1.984-4.465-4.431-4.465-2.448 0-4.432 1.999-4.432 4.465 0 2.465 1.984 4.464 4.432 4.464zM120.196 126.186c.412 0 .824.103 1.339.103 1.34.519 2.68 1.142 3.917 1.765 6.801 3.738 24.321 13.394 29.165 15.263-11.337-2.077-29.165-12.771-34.627-16.197-.619-.208-.31-.934.206-.934z" fill="#feebde"/><path d="M42.078 185.781h100.79c-.103.83-.103 1.765-.103 2.595H42.181c0-.83 0-1.765-.103-2.595z" fill="#331fa8"/><path d="M145.032 146.847a.514.514 0 0 0 .309-.935c-5.771-4.257-31.02-20.972-64.41-20.453 0 0-42.254-3.115-61.732 17.65-.412.415 0 1.142.618 1.142z" fill="#5435d6"/><g fill="#feebde"><path d="M90.62 130.027v12.044c0 .83.617 1.453 1.442 1.453h42.459c.516 0 .825-.726.31-1.038-5.359-3.322-23.394-13.393-42.872-13.601-.825-.104-1.34.415-1.34 1.142zM83.199 130.442v11.109a1.854 1.854 0 0 1-1.855 1.869l-38.235-1.038c-1.03 0-1.752-.831-1.752-1.869v-6.229c0-.831.516-1.558 1.34-1.765 4.638-1.35 20.92-5.295 38.956-3.842.824 0 1.546.831 1.546 1.765zM38.678 135.322v6.23c0 .415-.31.726-.722.726l-9.687-.415c-.722 0-.928-.934-.412-1.35 2.164-1.661 6.183-4.464 9.893-5.918.412-.103.928.208.928.727z"/></g><path d="M42.183 188.376s.103 4.465-1.443 7.06c0 .104 103.676 0 103.676 0s-1.958-3.841-1.752-7.06zM187.595 188.376c0-.83-.103-1.765-.103-2.595h7.111a2.4 2.4 0 0 0 2.164-1.35l.515-1.142c.516-1.142 1.649-1.869 2.783-1.869h11.13l1.031-.104c3.195 0 5.771 2.492 5.771 5.711v4.464c0 2.492-2.061 4.568-4.535 4.465l-27.31-.623c0 .103 1.34-2.492 1.443-6.957z" fill="#331fa8"/></g><g filter="url(#c)"><path d="M61.355 140.816 71.4 176.267l7.344 26.116h5.337l-7.785-61.567z" fill="#fb9b5a"/><path d="M58.658 140.816c-.251 18.293-1.005 28.197-1.256 29.9-.25 1.64-3.955 12.238-11.049 31.667h5.525c9.102-18.672 14.124-29.207 15.192-31.667s4.331-12.427 9.228-29.9z" fill="#fcaf7b"/><path d="m45.852 207.429.25-5.867h5.839c2.762 1.956 6.34 3.533 10.797 4.732v1.135H52.192l-3.578-.568v.568zM77.99 207.429l.251-5.867h5.839c2.762 1.956 6.34 3.533 10.797 4.732v1.135H84.331l-3.579-.568v.568z" fill="#feebde"/><path d="M65.752 105.744c-1.255-1.514-2.134-3.344-2.008-5.425.439-5.93 8.663-4.668 10.295-1.64 1.632 3.028 1.444 10.66-.69 11.165-.817.189-2.575-.316-4.395-1.388l1.13 8.011H63.43z" fill="#49220a"/><path d="M71.403 95.398c-.879-.252-2.197-.378-2.762-.315a4.62 4.62 0 0 0 .314-2.46c-.126-.82-.44-1.514-.816-2.208-.126-.315-.314-.63-.565-.883s-.565-.442-.942-.505a3.03 3.03 0 0 0-1.067 0c-.188.063-.314.126-.44.126-.188.064-.25-.063-.376-.189-.251-.252-.69-.378-1.004-.378-.377-.063-.817 0-1.193.126-.377.126-.69.315-1.005.63a1.916 1.916 0 0 0-.313.442c0 .063-.063.126-.126.126s-.126 0-.188.063a2.316 2.316 0 0 0-1.444 1.325c-.189.379-.251 1.01-.251 1.703s.69 2.587 1.255 3.28c.565.631 1.319 1.01 2.072 1.2-.502.567-.88 1.324-1.13 2.08-.251.821-.44 1.641-.502 2.524-.063.82-.063 1.64.125 2.46.189.757.565 1.325 1.193 1.766.314.19.628.316.942.442.313.126.627.252.941.315.628.126 1.319.126 1.82-.378.189-.189.377-.379.503-.631.063-.063.063-.126 0-.189l-.251-.253c-.502-.378-.753-.946-.816-1.577-.063-.63.125-1.513.753-1.766.753-.378 1.632.063 2.323.442.314-1.073.879-1.956 1.82-2.46 1.068-.505 2.26-.568 3.327-1.073.252-.126.565-.252.754-.504.063-.127.188-.253.25-.379.064-.19-.062-.315-.125-.441-.376-.694-2.134-2.145-3.076-2.46z" fill="#fcaf7b"/><path d="M74.79 103.095c0 1.135 1.193 2.081 1.193 3.217-.44.126-.942.189-1.381.252" fill="#49220a"/><g fill="#fcaf7b"><path d="M74.6 108.204a1.406 1.406 0 0 1-1.13-.126c-.314-.19-.628-.505-.753-.883.376.189.628.315.941.504.251.126.565.253.942.505zM72.843 102.59c-.063-.189.062-.442.25-.568.126-.126.377-.189.565-.252.189 0 .377 0 .566.063.188.063.313.252.376.441-.188-.063-.314-.063-.502-.126h-.44c-.125 0-.25.063-.439.063-.063.19-.25.253-.377.379zM74.099 103.662a.314.314 0 0 0 .314-.315.315.315 0 1 0-.628 0c0 .174.14.315.314.315z"/></g><path d="m86.344 131.733 10.044-4.415c1.758-1.767 3.453-3.091 5.085-4.038.502-.126 1.318-.189.439 1.136s-1.757 2.712-1.444 3.217c.377.441 1.381-.063 1.821.694.251.504-1.444 1.072-5.21 1.766l-7.534 5.803z" fill="#49220a"/><path d="m66.821 111.61 2.385-.442c5.21 5.11 7.345 17.284 10.86 18.925 3.265 1.513 7.973.063 13.498-1.956l1.695 3.785c-5.023 5.488-15.757 10.093-20.089 7.443-6.968-4.1-8.6-19.176-8.349-27.755z" fill="#cd5605"/><path d="M56.397 141.888h21.218c.942 0 .816-1.387.628-2.144-1.633-8.201-7.91-17.032-7.91-28.702l-6.09-.946c-5.084 8.2-6.842 18.293-7.846 31.792z" fill="#feebde"/><path d="M54.265 133.624c-4.332 7.822-7.973 13.499-10.923 16.906l-9.438-12.767c2.888-17.852 16.155-19.152 29.84-27.605h2.386c5.461 18.798 7.03 31.351 4.52 37.596H51.565c.439-4.605 1.38-9.399 2.699-14.13z" fill="#ea6206"/></g><g filter="url(#d)"><path d="m43.148 145.414 10.17 35.135 4.771 26.431h4.771l-4.77-61.566z" fill="#ffe0cb"/><path d="M38.566 145.414c.69 18.293.44 28.196.25 29.9-.187 1.64-1.066 12.742-7.218 32.234h4.959c8.098-18.672 10.986-29.774 11.865-32.234.941-2.46 3.704-12.427 7.721-29.9z" fill="#ffe0cb"/><path d="M42.898 145.414c2.637 12.111 7.22 31.414 13.686 57.907h7.03c.503-27.25-1.694-45.165-5.524-57.907z" fill="#cd5605"/><path d="M38.568 145.414c.69 18.293-1.13 36.271-6.654 58.223h7.47c8.161-18.357 14-36.271 17.954-58.223z" fill="#ea6206"/><path d="m30.97 211.143.252-4.479c1.632.505 3.64.316 6.026-.568 2.637 1.83 5.901 3.091 9.856 3.785.314.063.502.316.44.631v.063l-.377 1.325H31.473zM57.025 211.143l.251-4.479c1.633.505 3.641.316 6.027-.568 2.637 1.83 5.901 3.091 9.856 3.785.314.063.502.316.44.631v.063l-.377 1.325H57.528z" fill="#fcaf7b"/><path d="M45.596 110.278c-1.255-1.514-2.134-3.343-2.009-5.425.44-5.93 8.663-4.668 10.296-1.64s1.444 10.661-.69 11.166c-.817.189-2.575-.316-4.395-1.388l1.13 8.011h-6.655z" fill="#ffe0cb"/><path d="M45.092 111.666c-.817-3.722-3.202-6.245-2.825-7.948.25-1.136.878-1.829 1.946-2.082.565-2.208 2.322-3.154 5.273-2.838 4.457.504 7.156 2.334 5.964 6.434-1.068 0-2.386-.379-4.144.252-.565.189-1.004.883-1.192 1.956h-.816c-.816-1.325-1.57-1.767-2.323-1.451-.753.378-.942 1.198-.502 2.523l-.377 3.091h-1.004z" fill="#cd5605"/><path d="M54.76 107.881c.251.82.44 1.703.565 2.523.126.946.063 1.451-1.067 1.325" fill="#ffe0cb"/><g fill="#cd5605"><path d="M53.691 107.25c-.314-.063-.565-.126-.816-.189-.251 0-.565 0-.879-.063a3.05 3.05 0 0 1 .44-.189c.125-.063.313-.063.502-.063.25.063.565.252.753.504zM53.254 108.512a.378.378 0 0 0 0-.757.378.378 0 0 0 0 .757zM54.257 113.054c-.251.126-.565.189-.88.063-.313-.126-.439-.379-.627-.568.126 0 .314.063.44.126l.376.189c.126.064.44.064.69.19z"/></g><path d="m64.744 140.935 8.286 6.119c2.26.631 4.143 1.388 5.65 2.271.377.315.816 1.009-.69.883-1.507-.126-3.077-.189-3.265.315-.188.505.69 1.136.251 1.83-.251.441-1.57-.694-3.892-3.407l-8.224-3.406zm-31.953.189h5.461c-3.39 10.913-5.147 16.717-5.461 17.347-.628 1.514.69 3.785 1.192 5.047-1.757.82-1.57-2.145-3.829-1.136-2.072.947-3.578 2.713-5.964 1.199-.314-.189-.627-.883.189-1.388 1.946-1.325 4.708-3.659 5.084-4.415.503-.947 1.633-6.498 3.328-16.654z" fill="#ffe0cb"/><path d="m48.295 118.163 2.26-.378c8.35 7.254 11.802 21.195 22.035 28.575l-2.449 3.091c-17.828-2.208-22.222-19.24-21.846-31.288z" fill="#fb9b5a"/><path d="M38.44 146.612h19.962c.942 0 .754-1.325.628-2.019-1.506-7.696-7.47-16.022-7.47-26.935l-5.776-.883c-4.77 7.695-6.403 17.158-7.344 29.837z" fill="#feebde"/><path d="M38.63 124.345c-.816-.253-1.506-.82-2.009-1.704-2.071-3.784-1.318-5.929.88-6.623 2.26-.694 4.268.757 7.846.757.189 0 .377 0 .565.063l1.82.126c5.148 17.6 6.592 29.333 4.27 35.199H36.306c-.941 2.208-1.82 4.037-2.699 5.488H29.34c-.44-13.121 2.7-24.223 9.291-33.306z" fill="#fa873a"/></g><path d="M32.02 126.725c2.26-1.262 5.965-2.734 6.906-2.523l-4.394 6.623.628 1.892-4.08 2.524c-1.256-1.262-1.884-6.939.94-8.516z" fill="#ea6206"/><path d="M35.474 140.287c-2.01-1.01-3.348-3.995-3.767-5.362l2.825-2.208c.314.21 1.193.883 2.197 1.892 1.256 1.262 1.256 1.893.942 1.893-.314 0-2.197-.631-1.883 0 .25.505 1.569 2.944 2.197 4.1 0 .315-.503.694-2.511-.315z" fill="#49220a"/></svg>