<svg width="22" height="22" fill="none" xmlns="http://www.w3.org/2000/svg" viewBox="0 0 22 22"><path clip-rule="evenodd" d="m11 20.376-7.315-2.783a1.17 1.17 0 0 1-.81-1.115v-6.102a1.172 1.172 0 0 1 1.534-1.114L11 11.81v8.566ZM18.315 17.593 11 20.376V11.81l6.59-2.548a1.172 1.172 0 0 1 1.535 1.114v6.102c0 .508-.327.958-.81 1.115v0ZM6.625 7.876a3.125 3.125 0 1 0 0-6.25 3.125 3.125 0 0 0 0 6.25ZM15.375 7.876a3.125 3.125 0 1 0 0-6.25 3.125 3.125 0 0 0 0 6.25Z" stroke="#fff" stroke-width="1.5" stroke-linecap="round" stroke-linejoin="round"/><path d="M9.75 4.81a1.25 1.25 0 1 1 2.5 0M20.375 4.75H18.5M3.5 4.75H1.625M14.125 14.126 16 13.5" stroke="#fff" stroke-width="1.5" stroke-linecap="round" stroke-linejoin="round"/></svg>
