<svg fill="none" height="12" viewBox="0 0 12 12" width="12" xmlns="http://www.w3.org/2000/svg" xmlns:xlink="http://www.w3.org/1999/xlink"><mask id="a" height="10" maskUnits="userSpaceOnUse" width="10" x="1" y="1"><path clip-rule="evenodd" d="m4 5c.414 0 .75-.336.75-.75s-.336-.75-.75-.75-.75.336-.75.75.336.75.75.75zm5 4.5h-5.7195l3.5025-2.9225c.123-.1045.346-.104.4665-.0005l2.2505 1.92v.503c0 .276-.224.5-.5.5zm-6-7h6c.276 0 .5.224.5.5v4.182l-1.6015-1.366c-.495-.421-1.2695-.421-1.76-.003l-3.6385 3.036v-5.849c0-.276.224-.5.5-.5zm6-1h-6c-.827 0-1.5.673-1.5 1.5v6c0 .827.673 1.5 1.5 1.5h6c.827 0 1.5-.673 1.5-1.5v-6c0-.827-.673-1.5-1.5-1.5z" fill="#fff" fill-rule="evenodd"/></mask><path clip-rule="evenodd" d="m4 5c.414 0 .75-.336.75-.75s-.336-.75-.75-.75-.75.336-.75.75.336.75.75.75zm5 4.5h-5.7195l3.5025-2.9225c.123-.1045.346-.104.4665-.0005l2.2505 1.92v.503c0 .276-.224.5-.5.5zm-6-7h6c.276 0 .5.224.5.5v4.182l-1.6015-1.366c-.495-.421-1.2695-.421-1.76-.003l-3.6385 3.036v-5.849c0-.276.224-.5.5-.5zm6-1h-6c-.827 0-1.5.673-1.5 1.5v6c0 .827.673 1.5 1.5 1.5h6c.827 0 1.5-.673 1.5-1.5v-6c0-.827-.673-1.5-1.5-1.5z" fill="#212121" fill-rule="evenodd"/><g mask="url(#a)"><path d="m0 0h12v12h-12z" fill="#212121"/></g></svg>