<svg width="868" height="580" viewBox="0 0 868 580" fill="none" xmlns="http://www.w3.org/2000/svg">
<path d="M95.8433 217.956C103.445 216.568 111.597 216.278 119.638 216.64C146.624 218.212 173.633 226.153 196.313 240.058C216.654 252.56 232.253 271.291 253.944 282.348C289.068 301.048 335.287 289.14 371.404 306.333C386.379 313.569 398.376 325.323 405.167 339.542C412.204 354.473 412.74 372.988 402.127 385.589C396.559 392.347 388.404 396.991 380.057 400.597C325.096 427.099 269.828 425.075 209.799 418.557C181.245 415.378 152.634 412.525 125.847 403.282C79.6232 387.05 55.6912 354.508 50.9626 310.825C47.8471 281.486 52.8162 232.752 87.3043 220.524C89.7287 219.261 92.7583 218.771 95.8433 217.956Z" fill="#FEEBDE"/>
<path d="M134.659 28.7386H145.151V71.5369H134.659V28.7386Z" fill="#1174BA"/>
<path d="M136.066 30.1395H143.744V49.7554H136.066V30.1395Z" fill="#C1E3F2"/>
<path d="M139.905 60.2002C138.28 60.2002 136.962 58.8886 136.962 57.2706C136.962 55.6526 138.28 54.3409 139.905 54.3409C141.53 54.3409 142.848 55.6526 142.848 57.2706C142.848 58.8886 141.53 60.2002 139.905 60.2002Z" fill="#C1E3F2"/>
<path d="M139.905 59.5633C138.633 59.5633 137.602 58.5368 137.602 57.2705C137.602 56.0043 138.633 54.9778 139.905 54.9778C141.177 54.9778 142.208 56.0043 142.208 57.2705C142.208 58.5368 141.177 59.5633 139.905 59.5633Z" fill="#C1E3F2"/>
<path d="M147.071 28.7386H157.563V71.5369H147.071V28.7386Z" fill="#1174BA"/>
<path d="M148.35 30.1395H156.027V49.7554H148.35V30.1395Z" fill="#C1E3F2"/>
<path d="M152.317 60.2002C150.691 60.2002 149.374 58.8886 149.374 57.2706C149.374 55.6526 150.691 54.3409 152.317 54.3409C153.942 54.3409 155.26 55.6526 155.26 57.2706C155.26 58.8886 153.942 60.2002 152.317 60.2002Z" fill="#C1E3F2"/>
<path d="M152.317 59.5633C151.045 59.5633 150.013 58.5368 150.013 57.2705C150.013 56.0043 151.045 54.9778 152.317 54.9778C153.589 54.9778 154.62 56.0043 154.62 57.2705C154.62 58.5368 153.589 59.5633 152.317 59.5633Z" fill="#C1E3F2"/>
<path d="M159.354 28.7386H169.847V71.5369H159.354V28.7386Z" fill="#1E9ED1"/>
<path d="M160.762 30.1395H168.439V49.7554H160.762V30.1395Z" fill="#6BB8DC"/>
<path d="M164.6 60.2002C162.975 60.2002 161.657 58.8886 161.657 57.2706C161.657 55.6526 162.975 54.3409 164.6 54.3409C166.226 54.3409 167.543 55.6526 167.543 57.2706C167.543 58.8886 166.226 60.2002 164.6 60.2002Z" fill="#06508C"/>
<path d="M164.601 59.5633C163.328 59.5633 162.297 58.5368 162.297 57.2705C162.297 56.0043 163.328 54.9778 164.601 54.9778C165.873 54.9778 166.904 56.0043 166.904 57.2705C166.904 58.5368 165.873 59.5633 164.601 59.5633Z" fill="#1E9ED1"/>
<path d="M12.3322 75.2307H22.8247V118.029H12.3322V75.2307Z" fill="#1174BA"/>
<path d="M13.7398 76.7592H21.4172V96.375H13.7398V76.7592Z" fill="#C1E3F2"/>
<path d="M14.8911 88.7323H20.1375V89.3692H14.8911V88.7323Z" fill="#CB7A43"/>
<path d="M14.8911 86.567H20.1375V87.2039H14.8911V86.567Z" fill="#CB7A43"/>
<path d="M14.8911 84.2742H20.1375V84.911H14.8911V84.2742Z" fill="#CB7A43"/>
<path d="M14.8911 81.9817H20.1375V82.6186H14.8911V81.9817Z" fill="#CB7A43"/>
<path d="M17.5783 106.82C15.9529 106.82 14.6352 105.508 14.6352 103.89C14.6352 102.272 15.9529 100.961 17.5783 100.961C19.2037 100.961 20.5212 102.272 20.5212 103.89C20.5212 105.508 19.2037 106.82 17.5783 106.82Z" fill="#C1E3F2"/>
<path d="M17.5785 106.183C16.3065 106.183 15.2752 105.156 15.2752 103.89C15.2752 102.624 16.3065 101.597 17.5785 101.597C18.8505 101.597 19.8816 102.624 19.8816 103.89C19.8816 105.156 18.8505 106.183 17.5785 106.183Z" fill="#C1E3F2"/>
<path d="M24.616 75.2307H35.1084V118.029H24.616V75.2307Z" fill="#1174BA"/>
<path d="M26.0235 76.7592H33.7009V96.375H26.0235V76.7592Z" fill="#C1E3F2"/>
<path d="M27.3031 88.7323H32.5493V89.3692H27.3031V88.7323Z" fill="#CB7A43"/>
<path d="M27.3031 86.567H32.5493V87.2039H27.3031V86.567Z" fill="#CB7A43"/>
<path d="M27.3031 84.2742H32.5493V84.911H27.3031V84.2742Z" fill="#CB7A43"/>
<path d="M27.3031 81.9817H32.5493V82.6186H27.3031V81.9817Z" fill="#CB7A43"/>
<path d="M29.8623 106.82C28.2369 106.82 26.9192 105.508 26.9192 103.89C26.9192 102.272 28.2369 100.961 29.8623 100.961C31.4876 100.961 32.8052 102.272 32.8052 103.89C32.8052 105.508 31.4876 106.82 29.8623 106.82Z" fill="#C1E3F2"/>
<path d="M29.8622 106.183C28.5901 106.183 27.5589 105.156 27.5589 103.89C27.5589 102.624 28.5901 101.597 29.8622 101.597C31.1342 101.597 32.1653 102.624 32.1653 103.89C32.1653 105.156 31.1342 106.183 29.8622 106.183Z" fill="#C1E3F2"/>
<path d="M37.0276 75.2307H47.52V118.029H37.0276V75.2307Z" fill="#1174BA"/>
<path d="M38.4352 76.7592H46.1125V96.375H38.4352V76.7592Z" fill="#C1E3F2"/>
<path d="M39.5868 88.7323H44.833V89.3692H39.5868V88.7323Z" fill="#CB7A43"/>
<path d="M39.5868 86.567H44.833V87.2039H39.5868V86.567Z" fill="#CB7A43"/>
<path d="M39.5868 84.2742H44.833V84.911H39.5868V84.2742Z" fill="#CB7A43"/>
<path d="M39.5868 81.9817H44.833V82.6186H39.5868V81.9817Z" fill="#CB7A43"/>
<path d="M42.274 106.82C40.6486 106.82 39.3311 105.508 39.3311 103.89C39.3311 102.272 40.6486 100.961 42.274 100.961C43.8994 100.961 45.217 102.272 45.217 103.89C45.217 105.508 43.8994 106.82 42.274 106.82Z" fill="#C1E3F2"/>
<path d="M42.2739 106.183C41.0018 106.183 39.9707 105.156 39.9707 103.89C39.9707 102.624 41.0018 101.597 42.2739 101.597C43.5459 101.597 44.5771 102.624 44.5771 103.89C44.5771 105.156 43.5459 106.183 42.2739 106.183Z" fill="#C1E3F2"/>
<path d="M181.563 28L192.539 69.3816L182.394 72.0481L171.418 30.6666L181.563 28Z" fill="#1174BA"/>
<path d="M180.561 29.8785L185.59 48.8451L178.166 50.7955L173.138 31.8289L180.561 29.8785Z" fill="#C1E3F2"/>
<path d="M181.077 57.7064C180.662 56.1419 181.6 54.5391 183.171 54.1262C184.743 53.7132 186.353 54.6467 186.768 56.2111C187.183 57.7755 186.245 59.3786 184.673 59.7915C183.102 60.2044 181.491 59.2708 181.077 57.7064Z" fill="#C1E3F2"/>
<path d="M181.724 57.5255C181.399 56.3013 182.132 55.0466 183.362 54.723C184.592 54.3993 185.852 55.1293 186.177 56.3535C186.503 57.5777 185.769 58.8326 184.539 59.1562C183.31 59.4799 182.049 58.7498 181.724 57.5255Z" fill="#C1E3F2"/>
<path d="M221 76.887L62.5898 76.887L62.5898 71.6646L221 71.6646L221 76.887Z" fill="#1174BA"/>
<path d="M158.41 123L0 123L-2.35725e-10 117.778L158.41 117.778L158.41 123Z" fill="#1174BA"/>
<path d="M82.5804 88.3505H90.2578V117.902H82.5804V88.3505Z" fill="#06508C"/>
<path d="M82.5804 92.6812H90.2578V112.934H82.5804V92.6812Z" fill="#06508C"/>
<path d="M82.5804 88.3505H90.2578V112.042H82.5804V88.3505Z" fill="#06508C"/>
<path d="M82.5803 88.3505H85.1394V117.902H82.5803V88.3505Z" fill="#06508C"/>
<path d="M76.0546 88.3505H82.5803V117.902H76.0546V88.3505Z" fill="#1174BA"/>
<path d="M76.0546 89.2421H82.5803V104.018H76.0546V89.2421Z" fill="#1174BA"/>
<path d="M76.0546 88.3505H82.5803V103.126H76.0546V88.3505Z" fill="#1174BA"/>
<path d="M76.0545 88.3505H78.2297V117.902H76.0545V88.3505Z" fill="#06508C"/>
<path d="M53.4063 90.1335H60.4438V117.774H53.4063V90.1335Z" fill="#06508C"/>
<path d="M53.4063 92.1718H60.4438V115.736H53.4063V92.1718Z" fill="#06508C"/>
<path d="M54.174 109.367H59.5481V110.386H54.174V109.367Z" fill="#06508C"/>
<path d="M54.174 107.457H59.5481V108.476H54.174V107.457Z" fill="#06508C"/>
<path d="M54.174 105.673H59.5481V106.692H54.174V105.673Z" fill="#06508C"/>
<path d="M58.1406 90.1335H60.4438V117.774H58.1406V90.1335Z" fill="#06508C"/>
<path d="M66.0738 85.548H76.1824V117.774H66.0738V85.548Z" fill="#06508C"/>
<path d="M66.0738 90.2611H76.1824V113.061H66.0738V90.2611Z" fill="#06508C"/>
<path d="M66.0738 91.2799H76.1824V112.17H66.0738V91.2799Z" fill="#06508C"/>
<path d="M72.7276 85.548H76.1824V117.774H72.7276V85.548Z" fill="#06508C"/>
<path d="M59.5482 88.3505H66.074V117.902H59.5482V88.3505Z" fill="#1174BA"/>
<path d="M59.5482 89.2421H66.074V104.018H59.5482V89.2421Z" fill="#1174BA"/>
<path d="M59.5482 88.3505H66.074V103.126H59.5482V88.3505Z" fill="#1174BA"/>
<path d="M63.8988 88.3505H66.074V117.902H63.8988V88.3505Z" fill="#06508C"/>
<path d="M102.286 107.329H125.574V118.029H102.286V107.329Z" fill="#88C6E3"/>
<path d="M100.622 103.126H127.237V107.202H100.622V103.126Z" fill="#1174BA"/>
<path fill-rule="evenodd" clip-rule="evenodd" d="M109.579 108.221H118.28V109.112C118.28 109.622 117.896 110.004 117.385 110.004H110.475C109.963 110.004 109.579 109.622 109.579 109.112V108.221Z" fill="#1E9ED1"/>
<path d="M77.3341 33.0692H83.8599V71.2819H77.3341V33.0692Z" fill="#1174BA"/>
<path d="M79.7654 38.2917H81.4287V68.7345H79.7654V38.2917Z" fill="#1174BA"/>
<path d="M83.86 40.075H91.6653V71.282H83.86V40.075Z" fill="#88C6E3"/>
<path fill-rule="evenodd" clip-rule="evenodd" d="M105.229 70.0083L95.1201 40.4572L91.6652 41.7309L101.646 71.2821L105.229 70.0083Z" fill="#1174BA"/>
<path d="M93.5246 44.4352C93.3673 43.9683 93.6199 43.4628 94.0889 43.3062C94.5579 43.1496 95.0657 43.4012 95.223 43.8681C95.3803 44.335 95.1276 44.8403 94.6586 44.9969C94.1896 45.1535 93.6819 44.902 93.5246 44.4352Z" fill="#C1E3F2"/>
<path d="M96.3442 46.7335L103.874 69.075L102.055 69.6827L94.5245 47.3412L96.3442 46.7335Z" fill="#1174BA"/>
<path d="M101.441 47.4446L109.053 70.0277L105.535 71.2027L97.9231 48.6196L101.441 47.4446Z" fill="#C1E3F2"/>
<path d="M102.777 44.5985L111.529 70.563L109.466 71.2518L100.715 45.2874L102.777 44.5985Z" fill="#1174BA"/>
<path fill-rule="evenodd" clip-rule="evenodd" d="M108.812 51.7936L114.698 69.4988L112.01 70.3904L106.124 52.6852C105.869 51.921 106.252 51.1567 107.02 50.902C107.788 50.7746 108.556 51.1567 108.812 51.7936Z" fill="#C1E3F2"/>
<path fill-rule="evenodd" clip-rule="evenodd" d="M109.323 51.5386L115.465 70.0081L114.953 70.1355L108.811 51.666C108.556 50.9017 107.788 50.5196 107.02 50.7744C106.252 51.0291 105.869 51.7934 106.124 52.5576L112.266 71.0271L111.755 71.1545L105.613 52.685C105.229 51.666 105.868 50.5196 106.892 50.2649C107.916 50.0101 108.939 50.5196 109.323 51.5386Z" fill="#1174BA"/>
<path d="M130.654 268.648C144.695 268.648 156.077 267.687 156.077 266.502C156.077 265.316 144.695 264.355 130.654 264.355C116.613 264.355 105.23 265.316 105.23 266.502C105.23 267.687 116.613 268.648 130.654 268.648Z" fill="#F45F0C"/>
<path d="M138.248 162.992C137.257 161.836 135.936 160.846 134.616 160.02C134.286 159.855 133.79 160.02 133.625 160.35C132.635 162.331 131.644 164.147 130.489 165.963C130.158 166.624 129.498 167.284 129.003 167.779L128.838 167.944C128.673 167.779 128.673 167.614 128.673 167.449C127.682 164.643 128.838 161.671 128.177 158.864C127.847 157.379 126.857 155.893 125.701 154.737C124.545 153.582 122.895 153.086 122.234 151.436C121.904 150.775 121.244 150.94 120.914 151.436C119.263 153.912 116.951 156.388 116.456 159.36C116.126 162.001 117.447 164.312 119.098 166.293C119.923 167.284 120.583 168.275 121.244 169.43C121.574 170.09 122.069 171.081 121.574 171.741C120.913 172.402 120.088 171.246 119.593 170.751C118.602 169.76 117.777 168.605 116.951 167.449C115.466 165.633 113.319 162.662 110.678 163.322C109.522 163.487 109.027 164.808 109.027 165.798C108.862 167.449 109.687 169.265 110.513 170.751C112.329 173.887 116.126 174.878 118.602 177.519C119.098 178.18 120.748 180.161 119.758 180.986C119.428 181.316 118.767 181.151 118.437 181.151C117.612 180.986 116.621 180.656 115.796 180.161C112.989 178.015 111.999 174.383 109.192 172.402C107.872 171.576 105.891 170.916 104.405 171.411C103.084 171.741 102.589 172.897 102.424 174.218C102.424 175.703 103.084 177.189 103.744 178.51C104.57 179.996 105.725 181.151 107.211 181.977C110.183 183.628 113.815 183.793 115.796 186.929C116.126 187.26 116.291 187.92 116.291 188.415C116.126 188.745 115.631 188.91 115.301 189.076C113.815 189.406 111.834 188.91 110.513 188.085C108.862 187.26 107.707 185.774 106.551 184.453C105.23 183.132 103.909 181.977 102.094 181.482C100.773 181.151 99.1219 181.151 98.2965 182.307C97.4711 183.463 97.6361 184.948 97.9663 186.104C98.2965 187.755 99.287 189.241 100.443 190.561C101.598 191.882 103.579 192.707 105.23 193.368C107.046 194.028 108.862 194.358 110.513 195.019C111.008 195.184 111.338 195.349 111.834 195.349C112.329 195.349 112.989 195.349 113.485 195.514C113.98 195.679 113.65 196.174 113.485 196.504C113.154 197.33 111.999 197.165 111.338 197.33C110.678 197.33 110.018 197.495 109.357 197.495C108.532 197.495 107.706 197.33 107.046 197.165C105.56 197 103.909 196.67 102.424 197.165C100.938 197.66 99.9474 198.981 99.6172 200.467C99.1219 203.603 102.589 205.584 105.23 205.914C106.881 206.245 108.367 205.749 109.853 204.924C111.669 203.933 113.154 202.448 115.135 202.117C115.301 202.943 114.97 203.603 114.31 204.264C113.32 205.089 111.834 205.584 110.678 206.08C108.202 206.905 104.735 207.73 103.414 210.207C103.249 210.537 103.249 210.867 103.579 211.197C104.735 212.353 106.056 213.178 107.707 213.343C109.027 213.509 110.348 212.848 111.504 212.188C113.485 210.867 115.135 208.886 117.282 208.061C116.951 208.556 116.456 209.051 115.796 209.546C114.64 210.372 114.145 211.527 113.815 212.848C113.319 214.829 113.98 216.975 116.456 216.975C117.777 216.975 119.098 216.315 120.088 215.655C121.244 214.994 122.234 213.839 123.06 212.683C124.05 211.197 124.545 209.546 124.876 207.73C126.857 211.527 131.149 215.49 135.111 212.188C138.578 209.381 132.965 207.235 130.654 204.924C131.149 205.089 131.479 205.254 131.974 205.584C133.13 206.245 134.286 206.905 135.441 207.4C137.752 208.391 140.229 208.226 141.549 205.914C142.705 203.933 140.229 202.943 138.743 202.448C137.587 202.117 135.276 201.622 134.451 200.467C137.422 200.797 140.724 201.127 143.365 199.476C144.521 198.651 146.007 197.165 146.172 195.679C146.337 194.523 145.016 194.028 144.026 194.028C141.549 193.698 138.908 194.854 136.432 194.854C135.771 194.854 135.276 194.689 134.616 194.689C134.451 194.689 134.12 194.523 133.955 194.523C133.79 194.523 133.79 194.358 133.79 194.358C133.79 194.358 133.79 194.358 133.79 194.193C133.955 193.863 134.286 193.698 134.616 193.533C135.276 193.038 135.936 192.873 136.762 192.707C138.248 192.542 139.734 192.707 141.219 192.542C142.87 192.212 144.191 191.222 145.346 190.066C146.337 188.91 147.328 187.59 147.493 186.104C147.658 184.618 146.667 183.463 145.346 182.967C141.384 181.482 139.238 185.444 136.432 187.26C135.771 187.755 134.781 188.085 133.955 188.25C133.625 188.415 132.635 188.745 132.305 188.415C132.139 188.25 132.8 187.26 132.965 186.929C133.46 185.939 134.286 185.444 135.111 184.948C137.422 183.628 140.229 183.132 142.045 181.151C143.2 179.831 144.191 177.354 143.035 175.703C141.715 173.887 139.073 174.383 137.422 175.373C135.441 176.694 134.451 179.335 132.139 179.996C131.974 178.84 132.305 177.85 133.13 176.859C134.286 175.373 135.606 174.218 136.927 172.897C138.248 171.741 139.403 170.421 140.064 168.77C139.733 166.128 139.238 164.477 138.248 162.992Z" fill="#F45F0C"/>
<path d="M196.854 217.141C197.184 215.655 197.184 214.004 197.019 212.518C197.019 212.188 196.524 211.858 196.194 211.858C194.047 212.188 191.901 212.683 189.755 212.848C189.095 212.848 188.104 213.013 187.444 212.848C187.444 212.848 187.279 212.848 187.279 212.683C187.279 212.518 187.444 212.353 187.444 212.188C189.095 209.712 192.066 208.721 193.882 206.41C194.873 205.254 195.533 203.438 195.698 201.952C195.863 200.302 195.368 198.816 196.194 197.165C196.524 196.67 195.863 196.009 195.368 196.174C192.397 196.339 188.93 196.009 186.288 197.495C183.977 198.816 182.987 201.292 182.491 203.934C182.161 205.089 181.831 206.41 181.336 207.4C181.006 208.061 180.51 209.051 179.685 209.051C178.859 208.886 179.19 207.565 179.19 206.905C179.355 205.419 179.85 204.099 180.18 202.778C180.84 200.467 181.666 197 179.52 195.184C178.529 194.358 177.374 194.854 176.548 195.349C175.227 196.339 174.237 198.155 173.742 199.641C172.421 203.108 174.072 206.575 173.577 210.207C173.411 211.032 172.751 213.509 171.595 213.344C171.1 213.344 170.77 212.683 170.605 212.353C170.11 211.528 169.78 210.537 169.78 209.712C169.78 206.245 172.091 203.108 171.761 199.641C171.596 198.155 170.935 196.174 169.614 195.184C168.624 194.358 167.303 194.689 166.313 195.349C165.157 196.174 164.332 197.66 163.836 198.981C163.176 200.467 163.011 202.283 163.341 203.934C163.836 207.235 165.983 210.207 164.827 213.674C164.662 214.169 164.497 214.664 164.001 214.829C163.671 214.994 163.176 214.664 162.846 214.499C161.69 213.509 160.865 211.693 160.7 210.207C160.37 208.391 160.865 206.575 161.03 204.924C161.36 203.108 161.195 201.292 160.535 199.476C160.039 198.155 159.049 197 157.563 197C156.242 197.165 155.087 198.155 154.261 199.146C153.271 200.467 152.61 202.118 152.28 203.768C151.95 205.584 152.445 207.565 153.106 209.216C153.766 211.032 154.591 212.683 155.087 214.334C155.252 214.829 155.417 215.159 155.582 215.49C155.912 215.985 156.242 216.315 156.407 216.81C156.573 217.141 156.077 217.306 155.747 217.306C154.922 217.471 154.261 216.645 153.766 215.985C153.271 215.49 152.776 214.994 152.28 214.499C151.785 213.839 151.455 213.178 150.96 212.518C150.134 211.197 149.474 209.712 148.153 208.721C146.832 207.896 145.181 207.896 143.861 208.556C141.054 210.042 141.715 214.004 143.035 216.315C143.861 217.801 145.016 218.791 146.667 219.452C148.648 220.277 150.629 220.442 152.115 221.928C151.62 222.588 150.794 222.754 149.969 222.588C148.648 222.258 147.493 221.433 146.337 220.772C144.191 219.452 141.384 217.141 138.578 217.636C138.248 217.636 137.918 217.966 137.918 218.296C137.753 219.947 137.918 221.433 138.743 222.754C139.403 223.909 140.724 224.569 142.045 224.9C144.191 225.56 146.832 225.725 148.979 226.881C148.318 227.046 147.823 226.881 146.997 226.716C145.677 226.385 144.356 226.716 143.2 227.211C141.384 228.036 140.064 230.017 141.55 231.833C142.375 232.824 143.696 233.484 144.851 233.814C146.172 234.31 147.658 234.475 148.979 234.31C150.794 234.145 152.445 233.484 153.931 232.659C152.115 236.621 151.62 242.399 156.738 243.555C161.03 244.545 159.214 238.767 159.709 235.63C159.874 236.126 159.874 236.621 160.039 236.951C160.37 238.272 160.535 239.592 160.865 240.748C161.525 243.059 163.176 245.04 165.817 244.71C168.129 244.38 167.303 241.904 166.808 240.418C166.313 239.262 165.322 237.281 165.652 235.795C167.303 238.272 168.954 241.243 171.926 242.234C173.246 242.729 175.392 242.894 176.548 242.069C177.539 241.408 177.043 240.088 176.548 239.262C175.227 237.116 172.751 235.795 171.265 233.814C170.935 233.319 170.605 232.824 170.275 232.164C170.11 231.998 170.11 231.668 169.945 231.503C169.945 231.338 169.945 231.338 169.945 231.173H170.11C170.44 231.173 170.77 231.338 171.1 231.338C171.926 231.503 172.421 231.998 173.081 232.494C174.072 233.649 174.897 234.805 176.053 235.795C177.374 236.951 178.859 237.446 180.51 237.446C181.996 237.611 183.647 237.446 184.968 236.621C186.288 235.795 186.453 234.475 186.123 232.989C184.968 229.027 180.345 229.687 177.208 228.697C176.383 228.366 175.558 227.871 174.897 227.376C174.567 227.211 173.742 226.551 173.742 226.22C173.742 225.89 175.062 225.89 175.227 225.89C176.218 225.725 177.208 225.89 178.199 226.385C180.675 227.376 182.821 229.357 185.463 229.522C187.279 229.687 189.755 228.862 190.25 226.881C190.911 224.735 188.765 222.919 186.949 222.258C184.637 221.598 181.996 222.423 180.015 220.938C180.84 220.112 181.831 219.782 183.152 219.782C184.968 219.782 186.784 220.112 188.6 220.442C190.25 220.607 192.231 220.938 193.882 220.442C195.368 220.277 196.524 218.791 196.854 217.141Z" fill="#F45F0C"/>
<path d="M92.6837 174.713C91.1979 174.218 89.547 174.052 88.0613 174.052C87.7311 174.052 87.2358 174.383 87.2358 174.878C87.4009 177.024 87.566 179.17 87.4009 181.316C87.4009 181.977 87.2359 182.967 87.0708 183.462L86.9056 183.628C86.7405 183.628 86.5754 183.462 86.5754 183.297C84.4293 181.316 83.7689 178.18 81.6228 176.199C80.4672 175.043 78.9814 174.218 77.4956 173.887C75.8447 173.557 74.1939 173.887 72.8732 172.897C72.3779 172.567 71.7175 173.062 71.7175 173.557C71.5524 176.529 70.7271 179.831 71.8827 182.637C72.8732 185.113 75.3495 186.269 77.6608 187.259C78.8164 187.755 79.972 188.25 80.9625 188.91C81.6229 189.241 82.6133 189.901 82.4482 190.726C82.2831 191.552 80.9625 191.056 80.1371 190.891C78.8164 190.561 77.4956 189.901 76.1749 189.406C74.0288 188.58 70.562 187.259 68.5809 189.075C67.7555 189.901 67.9205 191.222 68.4158 192.047C69.2412 193.533 70.8922 194.688 72.2129 195.514C75.5146 197.33 79.1465 196.174 82.6134 197.165C83.4388 197.33 85.7501 198.32 85.4199 199.476C85.2548 199.806 84.5944 200.136 84.2643 200.301C83.4388 200.632 82.4483 200.797 81.4578 200.797C77.9909 200.466 75.1844 197.66 71.7175 197.495C70.2317 197.33 68.2507 197.99 67.0951 198.981C66.1046 199.971 66.2696 201.292 66.7649 202.282C67.4253 203.603 68.911 204.594 70.0667 205.254C71.5524 206.079 73.2034 206.41 74.8542 206.41C78.156 206.41 81.4578 204.594 84.7595 206.245C85.2548 206.41 85.7501 206.74 85.9151 207.235C86.0802 207.565 85.585 208.061 85.4199 208.226C84.2643 209.216 82.2831 209.876 80.7974 209.876C78.9814 210.042 77.1655 209.216 75.5146 208.721C73.6987 208.226 71.8826 208.061 70.0667 208.556C68.746 208.886 67.4253 209.711 67.2602 211.197C67.0952 212.518 68.0857 213.839 68.9111 214.664C70.0667 215.82 71.7176 216.645 73.2034 217.305C74.8542 217.801 77.0004 217.636 78.6512 217.14C80.4672 216.81 82.1181 216.15 84.0991 215.82C84.5944 215.655 84.9246 215.655 85.4199 215.489C85.9152 215.324 86.4104 214.994 86.9056 214.829C87.4009 214.664 87.4009 215.324 87.4009 215.655C87.566 216.48 86.4104 217.14 85.9151 217.47C85.4199 217.801 84.9246 218.296 84.2643 218.791C83.6039 219.121 82.7785 219.452 82.1181 219.782C80.6324 220.442 79.1465 220.937 78.156 222.093C77.1655 223.249 77.0003 224.899 77.4956 226.385C78.6512 229.357 82.6134 229.192 85.0897 228.201C86.5755 227.541 87.7311 226.55 88.5565 225.065C89.547 223.249 90.0423 221.268 91.6932 219.947C92.1885 220.607 92.3536 221.268 92.0234 222.258C91.5281 223.579 90.5375 224.569 89.8772 225.725C88.2263 227.706 85.5849 230.182 85.75 232.989C85.75 233.319 85.9151 233.649 86.4104 233.649C87.8962 233.979 89.547 233.979 91.0328 233.319C92.1884 232.659 93.0139 231.503 93.5091 230.347C94.4997 228.201 94.9949 225.725 96.3156 223.744C96.3156 224.404 96.1506 224.899 95.8204 225.725C95.3251 227.046 95.4902 228.366 95.8204 229.522C96.4807 231.503 98.1316 232.989 100.113 231.833C101.268 231.173 101.929 230.017 102.589 228.862C103.249 227.541 103.58 226.22 103.58 224.734C103.58 222.918 103.249 221.268 102.589 219.617C106.221 221.928 111.999 223.083 113.65 218.131C115.136 214.004 109.193 214.994 106.056 214.169C106.551 214.169 107.046 214.004 107.542 214.004C108.862 213.839 110.183 213.839 111.504 213.673C113.98 213.343 116.126 211.858 115.961 209.216C115.961 206.905 113.32 207.4 111.834 207.73C110.678 208.061 108.532 208.886 107.046 208.226C109.853 206.905 112.824 205.584 114.145 202.778C114.805 201.457 115.136 199.476 114.475 198.155C113.98 197 112.659 197.33 111.834 197.825C109.523 198.981 108.037 201.127 105.726 202.448C105.23 202.778 104.57 202.943 104.075 203.273C103.91 203.273 103.579 203.438 103.414 203.438C103.249 203.438 103.249 203.438 103.084 203.438V203.273C103.084 202.943 103.249 202.613 103.414 202.282C103.745 201.622 104.24 200.962 104.9 200.466C106.056 199.641 107.542 198.981 108.532 197.99C109.853 196.835 110.513 195.349 110.843 193.698C111.174 192.212 111.173 190.561 110.513 189.241C109.853 187.755 108.532 187.425 107.046 187.59C102.919 188.25 103.084 192.872 101.598 196.009C101.268 196.835 100.608 197.495 100.113 198.155C99.9476 198.485 99.1221 199.311 98.792 199.146C98.4618 199.146 98.6269 197.825 98.6269 197.66C98.6269 196.669 98.9571 195.679 99.4523 194.688C100.773 192.377 102.919 190.561 103.414 187.755C103.745 185.939 103.414 183.462 101.433 182.637C99.4523 181.812 97.3061 183.628 96.4807 185.278C95.4902 187.425 95.9854 190.231 94.3346 191.882C93.5091 191.056 93.344 189.901 93.5091 188.58C93.6742 186.764 94.3345 184.948 94.8298 183.297C95.3251 181.646 95.6553 179.831 95.4902 178.015C95.4902 176.694 94.3346 175.373 92.6837 174.713Z" fill="#FCA306"/>
<path d="M167.303 196.009C167.138 194.523 166.478 193.038 165.652 191.552C165.487 191.222 164.992 191.057 164.662 191.222C162.846 192.377 161.03 193.533 159.049 194.523C158.389 194.854 157.563 195.184 156.903 195.349H156.738C156.738 195.184 156.738 195.019 156.738 194.854C157.398 192.047 159.874 189.901 160.535 187.094C161.03 185.609 160.865 183.793 160.535 182.307C160.205 180.656 159.049 179.5 159.214 177.685C159.214 177.024 158.554 176.859 158.058 177.024C155.417 178.345 152.115 179.17 150.134 181.647C148.483 183.793 148.648 186.434 148.813 188.91C148.979 190.066 149.144 191.387 148.979 192.542C148.979 193.203 148.814 194.523 148.153 194.689C147.328 194.854 146.998 193.533 146.832 192.873C146.502 191.552 146.337 190.066 146.172 188.58C145.842 186.269 145.347 182.637 142.87 181.812C141.715 181.482 140.724 182.142 140.064 183.132C139.073 184.618 138.908 186.434 138.908 188.085C138.908 191.717 141.715 194.523 142.54 197.99C142.705 198.816 143.035 201.292 141.88 201.622C141.55 201.787 140.889 201.292 140.559 200.962C139.899 200.467 139.238 199.641 138.908 198.816C137.588 195.514 138.578 191.882 137.092 188.745C136.432 187.26 134.946 185.939 133.46 185.444C132.14 185.113 130.984 185.774 130.324 186.929C129.498 188.25 129.333 189.901 129.333 191.222C129.333 192.873 129.828 194.523 130.654 196.009C132.305 198.981 135.441 200.962 135.606 204.594C135.606 205.089 135.606 205.749 135.276 206.08C134.946 206.41 134.451 206.245 134.121 206.08C132.635 205.584 131.314 204.099 130.489 202.943C129.498 201.457 129.333 199.476 128.838 197.825C128.343 196.009 127.682 194.358 126.362 193.038C125.371 192.047 124.05 191.222 122.73 191.882C121.574 192.542 120.914 193.863 120.584 195.019C120.088 196.67 120.088 198.486 120.418 200.136C120.749 201.952 122.069 203.603 123.225 204.924C124.381 206.245 125.866 207.565 127.022 208.886C127.352 209.216 127.517 209.546 128.012 209.877C128.508 210.207 129.003 210.372 129.333 210.867C129.663 211.197 129.168 211.527 128.838 211.693C128.178 212.188 127.187 211.527 126.527 211.197C125.866 210.867 125.206 210.702 124.711 210.372C124.05 210.042 123.39 209.381 122.73 208.886C121.574 207.896 120.253 206.905 118.768 206.41C117.282 206.08 115.631 206.74 114.64 207.896C112.659 210.372 114.64 213.674 116.621 215.325C117.942 216.315 119.428 216.81 121.079 216.81C123.225 216.81 125.041 216.315 127.022 217.14C126.692 217.966 126.197 218.296 125.206 218.461C123.885 218.626 122.399 218.461 121.244 218.131C118.768 217.636 115.301 216.645 112.824 218.131C112.494 218.296 112.329 218.626 112.494 218.956C112.989 220.442 113.65 221.928 114.971 222.753C116.126 223.579 117.447 223.579 118.768 223.579C121.079 223.414 123.555 222.588 125.866 222.919C125.371 223.249 124.711 223.249 123.885 223.414C122.565 223.579 121.409 224.404 120.584 225.395C119.263 226.881 118.768 229.192 120.749 230.347C121.904 231.008 123.225 231.008 124.546 231.008C126.031 231.008 127.352 230.513 128.673 229.852C130.159 229.027 131.479 227.871 132.635 226.385C132.47 230.678 134.121 236.291 139.238 235.465C143.696 234.805 139.899 230.017 139.073 227.046C139.404 227.376 139.569 227.871 139.899 228.201C140.559 229.357 141.22 230.513 142.045 231.503C143.531 233.484 145.842 234.64 148.153 233.319C150.134 232.163 148.483 230.182 147.493 229.027C146.667 228.036 144.851 226.55 144.686 225.065C147.163 226.881 149.804 228.862 152.941 228.697C154.426 228.532 156.408 228.036 157.233 226.716C157.893 225.725 157.068 224.734 156.242 224.074C154.096 222.588 151.455 222.258 149.309 220.937C148.813 220.607 148.318 220.277 147.823 219.782C147.658 219.617 147.493 219.452 147.328 219.287L147.163 219.121C147.163 219.121 147.163 219.121 147.328 219.121C147.658 218.956 147.988 218.956 148.318 218.956C149.144 218.956 149.804 219.122 150.464 219.287C151.785 219.947 153.106 220.772 154.427 221.268C156.077 221.928 157.728 221.763 159.214 221.103C160.7 220.607 162.186 219.947 163.011 218.626C164.002 217.306 163.671 215.985 162.681 214.829C160.039 211.527 156.077 213.839 152.776 214.169C151.95 214.169 150.96 214.004 150.134 213.839C149.804 213.674 148.814 213.509 148.648 213.178C148.483 213.013 149.639 212.353 149.804 212.188C150.795 211.693 151.62 211.527 152.776 211.527C155.417 211.527 158.058 212.683 160.7 211.693C162.351 211.032 164.497 209.546 164.167 207.565C164.002 205.419 161.36 204.429 159.379 204.594C157.068 204.759 154.757 206.575 152.445 205.914C152.776 204.759 153.766 204.099 154.922 203.603C156.573 202.943 158.389 202.613 160.205 202.117C161.855 201.787 163.671 201.127 165.157 200.136C167.138 199.476 167.468 197.66 167.303 196.009Z" fill="#F9AA38"/>
<path d="M155.912 181.151C155.087 184.948 154.262 188.91 153.106 192.707C151.95 196.669 150.299 200.301 148.153 203.603C143.531 210.702 137.588 216.81 132.965 223.744C132.8 224.074 132.8 224.239 132.965 224.569C131.975 226.22 131.479 228.201 131.149 230.182C130.489 233.484 130.324 236.786 130.159 240.253C129.994 244.38 129.994 248.342 130.159 252.469C130.324 257.257 130.654 262.044 130.489 266.832C130.489 267.162 130.489 267.327 130.489 267.657C130.489 268.648 131.975 268.648 131.975 267.657C132.305 263.035 131.975 258.247 131.81 253.625C131.645 249.498 131.479 245.37 131.645 241.078C131.81 237.776 131.975 234.64 132.47 231.503C132.965 228.531 133.791 225.395 135.937 223.249C136.267 222.918 136.267 222.588 136.102 222.258C140.559 216.15 145.677 210.702 149.804 204.429C151.95 201.127 153.601 197.495 154.757 193.533C155.912 189.571 156.738 185.609 157.563 181.646C157.728 180.491 156.243 180.161 155.912 181.151Z" fill="#F9AA38"/>
<path d="M130.819 267.822C129.993 260.394 126.527 253.625 122.895 247.187C119.428 240.748 115.631 234.145 114.475 226.716C114.31 225.725 112.824 226.22 112.989 227.046C115.135 241.739 127.517 252.8 129.168 267.657C129.333 268.648 130.984 268.648 130.819 267.822Z" fill="#F77B0B"/>
<path d="M153.436 232.659C146.832 235.465 140.394 239.923 135.937 245.701C133.46 248.837 132.14 252.304 131.149 256.101C130.819 252.139 130.159 248.342 129.333 244.545C127.682 235.63 126.196 226.716 125.371 217.636C125.041 214.004 124.711 210.372 124.546 206.905C124.546 205.914 122.895 205.914 123.06 206.905C123.555 216.975 124.711 226.881 126.196 236.786C127.187 243.554 129.003 250.158 129.498 256.927C128.838 253.295 128.012 249.663 126.857 246.196C125.206 241.078 123.06 236.291 120.253 231.833C120.253 231.668 120.253 231.503 120.088 231.173C119.923 231.008 119.758 230.678 119.428 230.513C118.768 229.522 117.942 228.366 117.282 227.376C116.952 226.881 116.456 227.046 116.126 227.376C114.971 226.385 113.65 225.725 112.329 224.9C109.192 223.249 105.23 222.258 103.745 218.626C103.414 217.636 102.094 218.461 102.424 219.452C103.91 223.084 107.542 224.404 110.843 225.89C113.65 227.376 116.126 229.027 118.272 231.338C121.409 235.96 123.72 241.243 125.371 246.526C127.352 252.964 128.673 259.733 128.673 266.502C128.673 266.502 128.673 266.502 128.673 266.667C128.508 267.162 129.003 267.492 129.333 267.492C129.498 268.153 130.819 268.153 130.819 267.162C131.314 259.898 132.14 252.304 136.927 246.361C141.219 240.913 147.493 236.621 153.766 233.979C155.087 233.649 154.426 232.329 153.436 232.659Z" fill="#F45F0C"/>
<path d="M107.376 180.986C105.891 180.326 104.405 179.996 102.919 179.831C102.589 179.831 102.094 180.161 102.094 180.491C101.928 182.637 101.928 184.783 101.763 186.929C101.598 187.59 101.598 188.58 101.268 189.076L101.103 189.241C100.938 189.076 100.773 189.076 100.773 188.91C98.7918 186.764 98.4616 183.628 96.6457 181.316C95.6551 180.161 94.1693 179.17 92.6835 178.675C91.1977 178.18 89.5469 178.345 88.0611 177.189C87.5658 176.859 86.9055 177.189 86.9055 177.85C86.4102 180.821 85.4197 183.958 86.2452 186.929C87.0706 189.571 89.3818 190.892 91.5279 192.047C92.6835 192.542 93.6741 193.203 94.6646 194.028C95.1599 194.358 96.1504 195.184 95.9853 196.009C95.6551 196.835 94.3345 196.174 93.6741 196.009C92.3534 195.514 91.0326 194.854 89.877 194.193C87.7309 193.038 84.5942 191.552 82.4481 193.203C81.4575 193.863 81.6226 195.184 81.9528 196.174C82.6132 197.66 84.099 198.981 85.4197 199.971C88.5564 202.117 92.3533 201.292 95.6551 202.613C96.4805 202.943 98.6267 204.099 98.2965 205.254C98.1315 205.584 97.4711 205.914 97.1409 205.914C96.3155 206.245 95.1598 206.245 94.3344 206.08C90.8676 205.419 88.3912 202.448 84.9244 201.787C83.4386 201.457 81.4576 201.952 80.1369 202.943C79.1464 203.768 79.1463 205.089 79.4765 206.245C79.9718 207.565 81.2925 208.721 82.4481 209.546C83.7688 210.537 85.4197 211.032 87.0706 211.197C90.3724 211.362 93.8391 210.042 96.8107 212.023C97.1409 212.353 97.8013 212.683 97.8013 213.178C97.9664 213.509 97.4711 214.004 97.1409 214.169C95.9853 215.159 93.8392 215.49 92.5185 215.324C90.7025 215.159 89.0516 214.334 87.4007 213.674C85.5847 213.013 83.9339 212.683 82.118 212.848C80.7973 213.013 79.3114 213.839 79.1463 215.324C78.9812 216.645 79.6417 217.966 80.4671 218.956C81.6227 220.277 82.9434 221.268 84.5943 221.928C86.2452 222.588 88.2262 222.588 90.0422 222.423C91.8581 222.258 93.6741 221.763 95.49 221.598C95.9853 221.598 96.3155 221.433 96.8107 221.268C97.306 221.103 97.8013 220.772 98.2965 220.772C98.7918 220.607 98.6267 221.268 98.6267 221.598C98.6267 222.423 97.6362 222.918 96.9759 223.249C96.3155 223.579 95.8202 224.074 95.1598 224.404C94.4995 224.734 93.6741 224.9 92.8487 225.23C91.3629 225.725 89.7119 226.22 88.5563 227.211C87.4007 228.201 87.0705 230.017 87.4007 231.338C88.2261 234.475 92.1883 234.64 94.6646 233.814C96.3155 233.319 97.4711 232.329 98.4616 231.008C99.6172 229.357 100.278 227.376 102.094 226.22C102.589 226.881 102.589 227.706 102.259 228.532C101.763 229.687 100.608 230.678 99.7823 231.668C97.9663 233.484 95.1599 235.795 94.9948 238.602C94.9948 238.932 95.1599 239.262 95.49 239.427C96.9758 239.923 98.6267 240.088 100.112 239.592C101.433 239.097 102.259 237.941 102.919 236.951C104.075 234.97 104.735 232.494 106.386 230.678C106.386 231.338 106.056 231.833 105.725 232.494C105.065 233.649 105.065 234.97 105.395 236.291C105.891 238.272 107.376 239.923 109.522 238.932C110.678 238.437 111.504 237.281 112.329 236.291C113.154 235.135 113.485 233.649 113.65 232.328C113.815 230.513 113.65 228.862 113.154 227.046C116.621 229.687 122.069 231.503 124.38 226.716C126.196 222.753 120.253 223.249 117.282 222.093C117.777 222.093 118.272 222.093 118.767 222.093C120.088 222.093 121.409 222.258 122.73 222.093C125.206 221.928 127.517 220.772 127.682 218.131C127.847 215.82 125.206 215.985 123.72 216.315C122.399 216.48 120.253 217.14 118.933 216.48C121.739 215.49 124.876 214.334 126.527 211.693C127.187 210.537 127.847 208.556 127.352 207.07C127.022 205.914 125.536 206.08 124.711 206.41C122.234 207.235 120.583 209.381 118.107 210.372C117.612 210.537 116.951 210.867 116.291 211.032C116.126 211.032 115.796 211.197 115.631 211.197C115.466 211.197 115.466 211.197 115.301 211.197V211.032C115.466 210.702 115.631 210.372 115.796 210.042C116.126 209.381 116.786 208.886 117.447 208.391C118.767 207.565 120.088 207.07 121.409 206.245C122.73 205.254 123.555 203.768 124.05 202.283C124.38 200.797 124.711 199.146 124.215 197.825C123.72 196.339 122.399 195.844 120.914 195.844C116.786 196.174 116.456 200.797 114.64 203.603C114.145 204.429 113.485 205.089 112.824 205.584C112.494 205.749 111.834 206.575 111.338 206.41C111.173 206.41 111.173 205.089 111.173 204.924C111.338 203.933 111.669 202.943 112.329 202.117C113.815 199.971 116.291 198.32 116.951 195.679C117.447 193.863 117.282 191.387 115.466 190.396C113.65 189.241 111.338 190.892 110.348 192.542C109.192 194.523 109.357 197.33 107.541 198.981C106.881 197.99 106.881 197 107.046 195.679C107.376 193.863 108.202 192.212 108.862 190.396C109.522 188.745 110.018 186.929 110.018 185.279C110.018 183.132 109.027 181.647 107.376 180.986Z" fill="#F77B0B"/>
<path d="M130.654 268.648C116.621 268.648 105.23 267.657 105.23 266.502L114.475 303.977C114.475 303.977 119.923 306.288 130.984 306.288C142.045 306.288 147.493 303.977 147.493 303.977L156.077 266.502C156.077 267.657 144.686 268.648 130.654 268.648Z" fill="#F9AA38"/>
<path d="M198.708 149.622L226.96 248.913L247.636 322.101H262.684L240.778 149.622H198.708Z" fill="#1E9ED1"/>
<path d="M191.133 149.622C190.519 200.803 188.267 228.748 187.551 233.354C186.834 237.96 176.495 267.645 156.33 322.101H171.889C197.48 269.794 211.81 240.212 214.779 233.354C217.747 226.496 226.96 198.551 240.778 149.622H191.133Z" fill="#6BB8DC"/>
<path d="M155 336.226L155.819 319.849H172.197C179.976 325.274 190.11 329.778 202.598 333.156V336.329H172.913L162.779 334.793V336.329H155V336.226Z" fill="#06508C"/>
<path d="M245.487 336.226L246.306 319.849H262.684C270.463 325.274 280.597 329.778 293.085 333.156V336.329H263.4L253.266 334.793V336.329H245.487V336.226Z" fill="#06508C"/>
<path d="M249.108 46.8233C246.777 41.8218 245.804 36.1348 247.73 30.7204C253.274 14.943 274.779 24.73 276.876 34.0219C278.974 43.3137 272.764 63.7926 266.731 63.7133C264.299 63.676 259.974 60.8836 255.835 56.6555L252.903 79.1055L234.852 74.1003L249.108 46.8233Z" fill="#CB7A43"/>
<path d="M262.33 36.6804C260.34 46.5385 260.901 51.7929 263.86 52.6134C268.299 53.8442 272.841 52.023 274.813 52.57C276.194 52.9529 275.406 54.6464 274.163 55.6825C273.073 56.5487 269.024 56.5945 268.559 58.2713C268.094 59.9482 271.408 59.4864 271.135 60.4728C270.67 62.1497 270.315 65.3443 267.455 64.5511C264.496 63.7306 256.511 60.3481 256.234 55.5977C256.113 52.5896 257.134 46.6058 259.273 37.7448C259.075 37.6901 258.878 37.6354 258.78 37.608C256.314 36.9243 253.695 38.3227 252.984 40.8873C252.628 42.1697 252.821 43.3914 253.462 44.5253C251.967 45.7041 250.444 46.9815 248.626 48.1768C244.443 43.7241 242.34 33.687 249.651 26.4729C252.181 22.713 256.657 21.5109 260.58 21.5365C263.895 21.0747 266.98 21.824 269.326 23.3242C274.247 25.1136 278.347 27.95 279.383 29.1933C278.043 34.0266 276.772 35.1614 268.81 32.8474C266.536 33.3854 264.564 34.7507 262.33 36.6804Z" fill="#49220A"/>
<path d="M275.723 41.2439C275.856 43.8301 278.684 45.889 279.195 48.2613C279.678 50.7322 276.002 51.7311 274.123 52.3785C274.079 52.1539 274.062 51.8306 274.018 51.606" fill="#CB7A43"/>
<path d="M268.155 39.0393C268.391 38.5734 268.922 38.1896 269.399 38.0031C269.875 37.8166 270.451 37.6574 270.971 37.6955C271.492 37.7336 272.04 37.6731 272.604 37.9359C272.9 38.0179 273.169 38.1986 273.311 38.4506C273.552 38.7299 273.569 39.0532 273.514 39.2505C273.229 38.7465 272.78 38.8344 272.385 38.725C271.963 38.7142 271.541 38.7035 271.092 38.7913C270.67 38.7806 270.221 38.8684 269.7 38.8303C269.153 38.8909 268.731 38.8801 268.155 39.0393Z" fill="#06508C"/>
<path d="M272.118 42.3691C271.628 42.2331 271.341 41.7255 271.477 41.2352C271.613 40.7449 272.12 40.4576 272.611 40.5936C273.101 40.7295 273.388 41.2372 273.252 41.7275C273.116 42.2178 272.608 42.505 272.118 42.3691Z" fill="#06508C"/>
<path d="M270.463 113.08L294.216 100.97C304.944 100.971 310.127 100.284 309.595 98.7551C308.832 96.5254 305.732 97.3651 304.975 95.8806C304.218 94.3961 307.411 90.9262 310.494 87.8509C313.605 84.677 311.353 84.3712 309.808 84.5801C304.773 86.2646 299.41 89.1327 293.648 93.0585L263.542 100.113L270.463 113.08ZM298.659 135.132C304.575 132.948 309.868 131.866 314.438 131.859C323.254 131.86 327.001 130.987 332.342 127.05C335.278 124.89 338.557 119.957 336.978 117.608C335.926 116.041 326.295 119.744 322.848 119.532C319.402 119.32 324.521 112.348 322.626 112.672C320.357 112.043 317.608 114.68 314.235 120.33L301.042 123.471L298.659 135.132Z" fill="#CB7A43"/>
<path d="M251.819 93.3572C261.02 95.8021 273.7 97.1935 288.99 92.6167L290.947 105.481C279.509 111.87 264.832 115.767 253.894 112.309C245.295 109.606 243.783 97.821 251.819 93.3572Z" fill="#EA931F"/>
<path d="M259.09 115.024C268.073 120.171 285.24 121.85 310.296 119.981C312.663 133.278 313.002 142.401 311.24 147.224C288.766 152.04 270.739 151.927 256.749 148.367C254.873 156.663 251.699 164.281 246.376 170.453C235.396 183.236 198.728 158.41 184.377 157.299C183.553 127.327 203.143 120.65 208.067 102.895C213.427 83.5617 237.3 57.9953 239.568 58.6244L260.48 64.4227C257.534 79.6455 258.813 97.6333 259.09 115.024Z" fill="#F9AA38"/>
<path d="M410.956 529.172C404.788 523.959 401.078 518.421 398.986 512.986C392.833 494.76 402.101 476.792 427.415 462.014C450.195 448.761 489.815 438.99 508.594 424.76C540.932 401.752 495.021 369.911 523.343 346.165C535.343 336.324 559.39 328.695 591.331 324.702C624.905 320.571 669.563 321.001 704.008 328.735C722.436 332.799 736.696 338.526 748.514 344.339C833.007 382.731 848.504 420.109 854.871 460.521C857.711 479.741 861.36 499.013 848.856 516.775C826.595 547.413 756.592 562.241 652.51 563.575C582.583 564.429 462.684 558.973 420.331 535.07C416.377 533.373 414.071 531.298 410.956 529.172Z" fill="#DDF2F9"/>
<path d="M597.686 417.091C616.147 417.091 631.113 415.844 631.113 414.306C631.113 412.768 616.147 411.521 597.686 411.521C579.224 411.521 564.258 412.768 564.258 414.306C564.258 415.844 579.224 417.091 597.686 417.091Z" fill="#EA6206"/>
<path d="M662.219 218.43C662.528 232.2 659.897 244.578 655.719 255.563L647.362 251.385L653.862 260.05C648.445 272.427 641.017 282.639 633.898 290.684L631.267 280.473V293.469C619.97 305.383 610.066 311.572 610.066 311.572C620.435 247.672 662.219 218.43 662.219 218.43Z" fill="#1174BA"/>
<path d="M615.018 298.421C615.018 298.421 587.317 368.509 599.542 461.496" stroke="#1174BA" stroke-width="0.86" stroke-miterlimit="10"/>
<path d="M596.912 433.646C596.912 433.646 605.423 313.274 550.794 263.608" stroke="#6BB8DC" stroke-width="0.86" stroke-miterlimit="10"/>
<path d="M468 245.197C468 245.197 566.27 224 579.27 306.621C579.27 306.621 529.283 252.623 468 245.197Z" fill="#1E9ED1"/>
<path d="M541.045 277.843L538.569 288.518C542.438 290.994 546.616 293.469 550.794 295.636L552.806 293.16V296.719C561.163 301.051 569.984 304.609 579.27 306.466C579.27 306.466 565.651 237.615 468 245.042C468 245.042 476.821 260.823 495.392 266.084L501.273 261.288L497.404 266.548C497.868 266.703 498.177 266.703 498.642 266.857C509.32 269.024 521.546 277.688 535.319 286.507L541.045 277.843Z" fill="#6BB8DC"/>
<path d="M595.364 456.081C595.364 456.081 586.853 335.708 641.482 286.043" stroke="#6BB8DC" stroke-width="0.86" stroke-miterlimit="10"/>
<path d="M724.276 267.631C724.276 267.631 626.006 246.434 613.006 329.055C613.006 329.055 662.992 275.058 724.276 267.631Z" fill="#1E9ED1"/>
<path d="M651.231 300.277L653.707 310.953C649.838 313.428 645.66 315.904 641.481 318.07L639.47 315.594V319.153C631.113 323.485 622.292 327.044 613.006 328.901C613.006 328.901 626.625 260.05 724.276 267.476C724.276 267.476 715.455 283.258 696.884 288.518L691.003 283.722L694.872 288.982C694.408 289.137 694.098 289.137 693.634 289.292C682.956 291.458 670.73 300.122 656.957 308.941L651.231 300.277Z" fill="#6BB8DC"/>
<path d="M600.78 263.763C600.78 263.763 593.816 383.826 599.852 424.518" stroke="#6BB8DC" stroke-width="0.86" stroke-miterlimit="10"/>
<path d="M610.685 276.76L617.494 278.462C619.196 273.201 620.28 267.322 621.208 260.978L612.387 255.872L621.518 258.967C622.91 248.136 623.684 236.842 625.851 227.868C626.47 225.238 626.779 222.762 626.934 220.132L618.268 224.774L626.934 215.645C625.541 195.841 610.84 180.059 610.84 180.059C602.018 197.388 596.757 295.636 598.15 295.636C607.28 295.481 612.851 290.22 616.256 282.33L610.685 276.76Z" fill="#1E9ED1"/>
<path d="M587.936 222.298L595.983 222.143L587.781 224.464C587.781 225.702 587.781 226.94 587.936 228.177C588.555 236.223 588.555 244.114 588.4 251.54L594.59 251.385L588.245 255.872C587.936 276.45 587.471 292.077 597.84 295.481L610.53 179.905C610.685 179.905 588.71 193.365 587.936 222.298Z" fill="#6BB8DC"/>
<path d="M532.069 198.007C531.759 211.777 534.39 224.155 538.569 235.14L546.925 230.962L540.426 239.627C545.842 252.004 553.27 262.216 560.389 270.261L563.02 260.05V273.046C574.317 284.96 584.221 291.149 584.221 291.149C574.008 227.094 532.069 198.007 532.069 198.007Z" fill="#6BB8DC"/>
<path d="M579.27 277.843C579.27 277.843 606.971 347.931 594.745 440.918" stroke="#6BB8DC" stroke-width="0.86" stroke-miterlimit="10"/>
<path d="M597.686 417.091C579.27 417.091 564.258 415.853 564.258 414.306L576.484 463.507C576.484 463.507 583.603 466.602 598.15 466.602C612.697 466.602 619.816 463.507 619.816 463.507L631.113 414.306C630.958 415.853 616.102 417.091 597.686 417.091Z" fill="#FCA306"/>
<path d="M727.293 81.1091C732.853 76.3242 736.992 69.9875 737.638 62.3576C739.32 40.2438 708.153 40.5024 700.653 50.7187C693.152 60.9351 689.66 88.9976 697.032 92.1013C700.006 93.3945 706.731 92.3599 713.973 89.3856L705.438 118.095L730.008 121.716L727.293 81.1091Z" fill="#7A380C"/>
<path d="M697.549 55.3745C698.066 53.9519 698.842 52.5294 699.489 51.2362C700.394 49.5551 701.558 48.1325 702.722 46.8393C705.049 44.3822 707.765 42.1838 710.61 40.5026C715.912 37.3989 722.12 36.1057 727.939 37.6576C730.784 38.4335 733.5 39.9853 735.698 42.3131C737.638 44.3822 739.449 47.098 742.294 47.7446C745.397 48.3912 748.63 46.0634 751.346 44.7702C754.45 43.2183 757.683 42.3131 761.045 42.3131C766.735 42.1838 771.649 44.8995 774.753 49.943C778.116 55.3745 779.926 62.875 776.305 68.8238C775.658 69.9877 774.883 70.8929 773.848 71.5395C772.943 72.1861 771.52 72.8327 771.003 73.9966C770.486 75.2898 771.262 77.1003 771.52 78.2642C771.908 80.0747 772.037 81.8852 771.649 83.5663C770.874 86.5407 768.675 89.1271 766.347 90.679C764.02 92.3601 761.433 93.136 758.717 93.2654C756.907 93.3947 755.096 93.2654 753.286 92.8774C752.381 92.6188 751.605 92.3601 750.829 91.9722C750.053 91.7135 749.536 91.8428 748.76 92.1015C745.139 93.7826 741.518 94.0413 737.638 93.136C734.405 92.3601 730.914 91.0669 728.586 88.4805C725.999 85.6355 726.646 82.2731 727.81 78.6521C727.034 78.9108 724.965 78.7815 726.387 77.6176C726.905 77.1003 727.939 76.971 728.586 76.8417C729.362 76.583 730.138 76.1951 730.784 75.5485C733.371 73.35 731.948 67.7892 729.232 66.496C725.223 64.5562 723.413 70.3756 720.18 71.4102C718.369 72.0568 716.688 70.505 715.654 69.2118C714.231 67.2719 713.326 64.9442 712.679 62.6164C712.162 60.6766 711.645 58.7368 710.998 56.797C710.74 55.8918 709.705 53.3053 710.481 52.4001C707.636 51.3655 704.015 52.1415 701.299 53.3053C700.135 53.8226 699.23 54.4692 698.454 55.5038C698.325 55.7624 697.937 56.409 697.549 56.409C697.161 56.409 697.549 55.6331 697.549 55.3745Z" fill="#F9AA38"/>
<path d="M694.704 67.1426C694.186 69.9876 690.565 71.9274 689.66 74.3845C688.626 77.1002 692.635 78.7814 694.574 79.816C694.704 79.5573 694.833 79.2987 694.833 79.0401" fill="#7A380C"/>
<path d="M703.498 65.8491C703.368 65.2025 702.722 64.8145 702.334 64.5558C701.816 64.2972 701.299 64.0386 700.653 63.9092C700.006 63.7799 699.489 63.7799 698.842 63.9092C698.583 64.0386 698.195 64.1679 697.937 64.4265C697.678 64.6852 697.549 65.0731 697.549 65.3318C697.937 64.8145 698.454 64.9438 698.842 64.9438C699.359 64.9438 699.877 65.0731 700.265 65.2025C700.782 65.3318 701.299 65.4611 701.816 65.4611C702.463 65.5904 702.98 65.5904 703.498 65.8491Z" fill="#F9AA38"/>
<path d="M696.902 84.3422C696.773 84.3422 696.643 84.3422 696.514 84.3422C695.35 84.0835 694.445 83.5663 693.281 83.1783C694.316 83.1783 695.221 83.3076 696.255 83.437C698.325 83.6956 700.006 83.3076 701.946 82.9197C701.816 83.6956 700.652 84.6008 700.006 84.7302C697.937 85.2474 695.867 86.0234 693.54 85.7647C694.574 85.3768 695.609 84.9888 696.514 84.6008C696.773 84.3422 696.773 84.3422 696.902 84.3422Z" fill="#F9AA38"/>
<path d="M697.396 68.0546C697.329 67.4873 697.734 66.9726 698.301 66.905C698.869 66.8375 699.383 67.2427 699.451 67.8101C699.518 68.3775 699.113 68.8922 698.546 68.9597C697.979 69.0272 697.464 68.622 697.396 68.0546Z" fill="#F9AA38"/>
<path d="M746.045 231.509L704.921 373.503L685.523 480.063H666.125L685.523 231.509H746.045Z" fill="#7A380C"/>
<path d="M764.537 231.509C761.692 305.222 762.856 345.441 763.502 352.165C764.149 358.89 767.77 403.764 792.729 482.262H772.555C739.449 406.868 727.939 362.123 724.189 352.165C720.439 342.208 709.188 302.118 692.893 231.509H764.537Z" fill="#7A380C"/>
<path d="M746.949 231.509C736.216 280.392 717.723 358.243 691.341 465.321H662.891C660.822 355.398 669.745 283.108 685.134 231.509H746.949Z" fill="#EA931F"/>
<path d="M764.796 231.509C761.951 305.222 769.322 377.9 791.824 466.485H761.433C728.457 392.255 704.791 319.964 688.626 231.509H764.796Z" fill="#F9AA38"/>
<path d="M795.574 496.875L794.41 478.9C787.815 480.839 779.668 480.063 769.839 476.701C759.235 484.202 745.915 489.245 729.879 492.09C728.715 492.349 727.81 493.513 728.069 494.677C728.069 494.806 728.069 494.806 728.069 494.935L729.621 500.367H769.839H793.246L795.574 496.875Z" fill="#06508C"/>
<path d="M689.919 496.875L688.755 478.9C682.159 480.839 674.012 480.063 664.184 476.701C653.58 484.202 640.26 489.245 624.224 492.09C623.06 492.349 622.155 493.513 622.413 494.677C622.413 494.806 622.413 494.806 622.413 494.935L623.965 500.367H664.184H687.591L689.919 496.875Z" fill="#06508C"/>
<path d="M649.959 95.9812L627.457 70.3758C614.784 65.5909 608.965 62.3579 610.258 60.6767C612.198 58.2197 615.431 60.6767 616.982 59.2542C618.534 57.8317 616.336 52.1416 614.137 46.8394C611.939 41.5373 614.784 42.1839 616.336 43.0892C621.509 47.3567 626.552 53.3055 631.596 60.806L663.926 83.0492L649.959 95.9812ZM660.046 125.078C654.485 121.199 646.726 119 640.389 116.285C633.794 113.439 626.94 110.982 620.345 108.267C615.56 106.327 612.844 100.507 608.059 98.9556C606.12 98.309 603.404 96.3692 604.309 99.4729C605.214 102.577 605.99 102.706 603.016 103.352C600.041 103.999 586.592 101.025 582.583 102.059C579.868 102.835 596.291 109.689 612.715 113.827L633.923 130.51C642.459 128.829 652.158 128.053 660.046 125.078Z" fill="#7A380C"/>
<path d="M732.078 142.666C695.868 140.338 663.279 128.052 625.259 106.068L616.982 124.819C647.243 155.08 674.401 177.582 706.213 174.478C714.102 173.573 726.646 158.184 738.802 154.304L732.078 142.666Z" fill="#06508C"/>
<path d="M759.623 233.19H683.712C700.911 180.686 709.705 144.735 710.093 125.208C710.093 124.173 711.904 122.492 712.809 122.621C718.758 124.303 725.094 123.656 731.948 120.682C749.794 149.779 756.002 185.471 759.623 233.19Z" fill="#CD5605"/>
<path d="M723.413 105.292C717.982 103.223 712.162 102.447 706.601 101.025C697.937 98.9558 689.66 93.2657 682.03 88.7395C677.892 86.1531 641.941 61.4528 640.648 62.746L622.155 80.3336C648.148 109.689 677.763 132.579 708.024 160.254C707.377 211.853 701.428 257.503 727.551 257.503C740.095 257.503 753.545 257.503 768.029 257.503C773.848 218.189 763.502 174.738 748.501 138.399C746.82 134.519 745.139 130.51 743.458 126.63C740.354 119.776 736.345 113.052 730.008 108.655C727.939 107.232 725.741 106.198 723.413 105.292Z" fill="#1174BA"/>
<path d="M377.618 164.512L492.132 202.136C494.577 202.939 497.29 201.556 498.099 199.091L548.698 45.0871C549.507 42.623 548.144 39.9002 545.699 39.0968L431.185 1.47283C428.74 0.669475 426.028 2.05335 425.218 4.51742L374.619 158.522C373.81 160.986 375.173 163.709 377.618 164.512Z" fill="#FDD7BD"/>
<path d="M523.365 71.3448C508.421 65.9801 493.07 60.4815 477.992 55.5274C462.913 50.5734 447.428 45.4854 432.079 41.3527C447.023 46.7174 462.374 52.2161 477.452 57.1701C492.531 62.1242 507.744 66.6676 523.365 71.3448Z" fill="#FA873A"/>
<path d="M520.666 79.5582C505.723 74.1935 490.372 68.6949 475.293 63.7408C460.215 58.7868 444.729 53.6988 429.381 49.5661C444.324 54.9308 459.675 60.4295 474.753 65.3835C489.832 70.3376 504.91 75.2916 520.666 79.5582Z" fill="#FA873A"/>
<path d="M517.833 88.1826C502.889 82.8178 487.538 77.3191 472.46 72.3651C457.381 67.411 441.895 62.3231 426.547 58.1904C441.49 63.5552 456.842 69.0538 471.92 74.0078C487.133 78.5512 502.212 83.5053 517.833 88.1826Z" fill="#FA873A"/>
<path d="M515.134 96.3962C500.19 91.0314 484.839 85.5328 469.761 80.5787C454.683 75.6247 439.197 70.5367 423.848 66.4041C438.792 71.7688 454.143 77.2674 469.221 82.2215C484.3 87.1755 499.378 92.1296 515.134 96.3962Z" fill="#FA873A"/>
<path d="M512.436 104.61C497.492 99.2449 482.141 93.7463 467.063 88.7922C451.984 83.8382 436.498 78.7502 421.15 74.6175C436.094 79.9823 451.445 85.4809 466.523 90.435C481.601 95.389 496.68 100.343 512.436 104.61Z" fill="#FA873A"/>
<path d="M509.602 113.234C494.659 107.869 479.308 102.371 464.229 97.4165C449.151 92.4624 433.665 87.3744 418.317 83.2418C433.26 88.6065 448.611 94.1051 463.689 99.0592C478.768 104.013 493.981 108.557 509.602 113.234Z" fill="#FA873A"/>
<path d="M494.804 126.142C495.016 125.929 495.216 125.727 495.404 125.536C495.966 125.096 496.486 124.999 496.889 125.132C497.293 125.264 497.657 125.654 497.848 126.35C499.21 131.781 501.399 145.645 496.563 160.366C495.293 164.229 493.12 167.442 490.523 169.438C487.93 171.432 484.928 172.206 481.968 171.233C479.012 170.262 477.085 167.761 476.194 164.562C475.304 161.361 475.46 157.483 476.661 153.827C481.271 139.797 490.434 130.552 494.804 126.142Z" fill="#CD5605" stroke="#FDD7BD" stroke-width="0.5"/>
<path d="M494.708 132.456L478.111 182.969" stroke="#FDD7BD" stroke-width="0.5" stroke-miterlimit="10"/>
<path d="M490.106 139.589L490.66 144.776" stroke="#FDD7BD" stroke-width="0.5" stroke-miterlimit="10"/>
<path d="M493.105 145.58L489.041 149.704" stroke="#FDD7BD" stroke-width="0.5" stroke-miterlimit="10"/>
<path d="M481.443 152.214L484.993 162.025" stroke="#FDD7BD" stroke-width="0.5" stroke-miterlimit="10"/>
<path d="M415.508 121.45L415.508 121.45L415.51 121.443C419.94 106.593 429.923 96.7313 434.241 93.1665C434.807 92.7194 435.331 92.6212 435.735 92.7541C436.14 92.8871 436.503 93.2767 436.694 93.9727C438.056 99.4036 440.246 113.268 435.409 127.988C434.14 131.852 431.966 135.065 429.37 137.061C426.777 139.055 423.775 139.828 420.814 138.855C417.859 137.884 415.932 135.384 415.041 132.184C414.15 128.983 414.307 125.106 415.508 121.45Z" fill="#EA6206" stroke="#FDD7BD" stroke-width="0.5"/>
<path d="M433.282 99.5339L416.551 150.458" stroke="#FDD7BD" stroke-width="0.5" stroke-miterlimit="10"/>
<path d="M428.546 107.078L429.234 111.854" stroke="#FDD7BD" stroke-width="0.5" stroke-miterlimit="10"/>
<path d="M431.679 112.658L427.615 116.782" stroke="#FDD7BD" stroke-width="0.5" stroke-miterlimit="10"/>
<path d="M420.018 119.292L423.432 129.513" stroke="#FDD7BD" stroke-width="0.5" stroke-miterlimit="10"/>
<path d="M433.857 182.989L443.032 155.063L484.258 134.028L498.978 163.434L486.835 200.395L433.857 182.989Z" fill="#F97319"/>
<path d="M484.258 134.028L432.095 116.889L390.868 137.925L443.031 155.063L484.258 134.028Z" fill="#FCAF7B"/>
<path d="M443.031 155.063L433.721 183.4L381.966 166.396L391.276 138.059C391.276 138.059 443.166 154.653 443.031 155.063Z" fill="#FB9B5A"/>
<path d="M479.714 169.846L466.673 165.561L458.308 191.023L471.348 195.308L479.714 169.846Z" fill="#CD5605"/>
<path d="M406.834 111.32C408.054 110.356 409.277 110.757 409.687 112.257C411.055 117.712 413.255 131.63 408.398 146.414C405.834 154.217 399.6 159.449 393.487 157.441C387.374 155.432 385.593 147.112 388.022 139.72C392.472 124.801 402.362 115.311 406.834 111.32Z" fill="#FEEBDE"/>
<path d="M395.619 137.211L395.079 138.853" stroke="#FEEBDE" stroke-width="0.0350544" stroke-miterlimit="10"/>
<path d="M403.518 150.271L402.979 151.914" stroke="#FEEBDE" stroke-width="0.0350544" stroke-miterlimit="10"/>
<path d="M406.757 140.415L406.217 142.058" stroke="#FEEBDE" stroke-width="0.0350544" stroke-miterlimit="10"/>
<path d="M401.426 122.283L400.886 123.926" stroke="#FEEBDE" stroke-width="0.0350544" stroke-miterlimit="10"/>
<path d="M393.06 147.745L392.521 149.388" stroke="#FEEBDE" stroke-width="0.0350544" stroke-miterlimit="10"/>
<path d="M392.507 142.558L391.967 144.201" stroke="#FEEBDE" stroke-width="0.0350544" stroke-miterlimit="10"/>
<path d="M397.637 128.319L397.097 129.961" stroke="#FEEBDE" stroke-width="0.0350544" stroke-miterlimit="10"/>
<path d="M399.972 141.826L399.432 143.469" stroke="#FEEBDE" stroke-width="0.0350544" stroke-miterlimit="10"/>
<path d="M406.052 127.443L405.512 129.086" stroke="#FEEBDE" stroke-width="0.0350544" stroke-miterlimit="10"/>
<path d="M404.573 134.693L404.034 136.335" stroke="#FEEBDE" stroke-width="0.0350544" stroke-miterlimit="10"/>
<path d="M408.885 118.819L408.346 120.462" stroke="#FEEBDE" stroke-width="0.0350544" stroke-miterlimit="10"/>
<path d="M401.61 146.459L400.935 148.513" stroke="#FEEBDE" stroke-width="0.0350544" stroke-miterlimit="10"/>
<path d="M398.229 152.629L397.689 154.271" stroke="#FEEBDE" stroke-width="0.0350544" stroke-miterlimit="10"/>
<path d="M406.306 118.426L389.709 168.94" stroke="#CD5605" stroke-width="0.5" stroke-miterlimit="10"/>
<path d="M401.704 125.56L402.258 130.747" stroke="#CD5605" stroke-width="0.5" stroke-miterlimit="10"/>
<path d="M404.703 131.55L400.638 135.675" stroke="#CD5605" stroke-width="0.5" stroke-miterlimit="10"/>
<path d="M392.634 138.05L396.59 147.995" stroke="#CD5605" stroke-width="0.5" stroke-miterlimit="10"/>
<path d="M501.458 45.9469C501.323 46.3576 501.188 46.7682 500.78 46.6343L500.373 46.5004C500.373 46.5004 500.373 46.5005 499.965 46.3666L499.558 46.2327C499.558 46.2327 499.558 46.2327 499.15 46.0988C498.743 45.9649 498.743 45.9649 498.743 45.9649C498.608 46.3755 498.473 46.7862 498.338 47.1969C498.068 48.0183 497.391 48.7057 497.256 49.1164C496.578 49.8039 496.444 50.2146 496.036 50.0807C495.628 49.9468 495.491 48.9915 495.896 47.7595C496.03 47.3488 496.165 46.9381 496.3 46.5274C496.435 46.1168 496.57 45.7061 496.435 46.1167C496.435 46.1167 495.62 45.849 494.805 45.5812C493.99 45.3134 493.04 45.4563 492.225 45.1885C492.225 45.1885 492.225 45.1885 491.683 45.4653C491.14 45.7421 491.005 46.1528 491.005 46.1528C490.463 46.4296 489.92 46.7064 489.785 47.117C489.243 47.3938 488.701 47.6706 488.293 47.5367C487.478 47.2689 487.613 46.8583 487.748 46.4476C487.883 46.0369 489.645 44.7958 493.307 43.269C495.342 42.5726 497.512 41.4654 499.139 40.6351C499.139 40.6351 499.682 40.3582 500.089 40.4921C500.497 40.626 500.497 40.626 500.904 40.7599C501.312 40.8938 501.719 41.0278 501.585 41.4384C501.585 41.4384 501.45 41.8491 501.315 42.2598L499.42 45.2774L501.05 45.813C501.458 45.9469 501.458 45.9469 501.458 45.9469ZM497.11 44.0633C497.245 43.6527 497.38 43.242 497.38 43.242C497.515 42.8313 497.65 42.4206 497.242 42.2868C496.7 42.5635 496.292 42.4297 495.615 43.1171C495.072 43.3939 494.53 43.6707 494.395 44.0814L497.11 44.0633Z" fill="#CD5605"/>
<path d="M509.479 51.7673C509.209 52.5886 508.667 52.8654 507.174 53.2851C506.224 53.428 505.274 53.5709 504.052 53.1692C503.237 52.9014 502.287 53.0443 501.879 52.9104C501.879 52.9104 501.472 52.7765 501.064 52.6426C500.657 52.5088 500.384 51.9642 499.977 51.8303L500.112 51.4196C500.246 51.009 500.789 50.7321 501.331 50.4554L504.457 51.9372C505.272 52.205 506.222 52.0621 507.172 51.9192L507.306 51.5085C507.169 50.5533 506.081 49.7409 504.859 49.3392C503.636 48.9375 502.956 48.2591 501.733 47.8574C501.053 47.1789 500.373 46.5005 500.643 45.6791C500.778 45.2684 501.455 44.581 502.54 44.0274C503.49 43.8845 504.575 43.331 505.525 43.1881C506.475 43.0452 507.425 42.9022 507.833 43.0361C508.648 43.3039 508.648 43.3039 509.055 43.4378C509.463 43.5717 509.328 43.9824 509.193 44.3931C509.058 44.8038 508.515 45.0805 507.565 45.2234C506.615 45.3663 505.8 45.0986 504.85 45.2415C503.9 45.3844 503.358 45.6611 503.088 46.4825C503.903 46.7503 504.583 47.4287 505.398 47.6965C506.621 48.0982 507.709 48.9106 507.981 49.4551C509.746 49.58 509.884 50.5352 509.479 51.7673Z" fill="#CD5605"/>
<path d="M518.444 54.713C518.175 55.5343 517.632 55.8111 516.14 56.2308C515.19 56.3737 514.24 56.5165 513.017 56.1149C512.202 55.8471 511.252 55.99 510.845 55.8561C510.845 55.8561 510.437 55.7222 510.03 55.5883C509.622 55.4544 509.349 54.9098 508.942 54.7759L509.077 54.3653C509.212 53.9546 509.754 53.6778 510.297 53.401L513.422 54.8829C514.237 55.1507 515.187 55.0077 516.137 54.8648L516.272 54.4542C516.134 53.499 515.047 52.6866 513.824 52.2849C512.601 51.8832 511.921 51.2047 510.699 50.803C510.019 50.1246 509.338 49.4461 509.608 48.6248C509.743 48.2141 510.421 47.5266 511.505 46.9731C512.455 46.8302 513.54 46.2766 514.49 46.1337C515.44 45.9909 516.39 45.8479 516.798 45.9818C517.613 46.2496 517.613 46.2496 518.021 46.3835C518.428 46.5174 518.293 46.9281 518.158 47.3388C518.023 47.7495 517.481 48.0262 516.531 48.1691C515.581 48.312 514.766 48.0442 513.816 48.1871C512.866 48.33 512.323 48.6068 512.053 49.4282C512.869 49.6959 513.549 50.3744 514.364 50.6422C515.586 51.0439 516.674 51.8562 516.946 52.4008C518.712 52.5257 518.849 53.4809 518.444 54.713Z" fill="#CD5605"/>
<path d="M527.674 54.1052C527.269 55.3373 526.457 56.4355 525.237 57.3997C524.017 58.364 522.525 58.7836 520.895 58.2481C519.672 57.8464 518.992 57.1679 518.312 56.4895C518.174 55.5342 518.037 54.5789 518.307 53.7576C518.442 53.3469 518.711 52.5255 519.524 51.4274C520.336 50.3292 521.148 49.2312 521.826 48.5437C523.046 47.5795 523.588 47.3026 524.403 47.5704C525.626 47.9721 526.713 48.7845 527.259 49.8736C528.211 51.0966 528.214 52.4625 527.674 54.1052ZM525.094 53.7126C525.364 52.8912 525.634 52.0699 525.496 51.1146C525.494 49.7487 525.221 49.2041 524.406 48.9363C523.998 48.8024 523.456 49.0793 522.778 49.7667C522.101 50.4542 521.831 51.2755 521.019 52.3736C520.749 53.195 520.072 53.8825 519.937 54.2932C519.802 54.7039 519.667 55.1145 519.532 55.5252C519.67 56.4805 519.942 57.025 520.35 57.1589C521.165 57.4267 522.115 57.2838 522.792 56.5963C524.012 55.6321 524.689 54.9446 525.094 53.7126Z" fill="#CD5605"/>
</svg>
