<svg height="49" viewBox="0 0 400 49" width="400" xmlns="http://www.w3.org/2000/svg"><path d="m56.2746907.31299453c.53-.461624 1.3338-.406205 1.7955.12379l7.5226 8.63672c.4617.53003.4063 1.33382997-.1237 1.79552997-.53.4616-1.3339.4062-1.7955-.1238l-6.6868-7.67710997-7.6771 6.68681c-.53.46159997-1.3339.40619997-1.7955-.1238-.4617-.52997-.4062-1.33383.1238-1.79546zm-55.17701004 48.82193997c-.696163-.0967-1.1821203-.7394-1.085423-1.4356.096704-.6962.739447-1.1821 1.435613-1.0854zm56.01281004-47.86229997c1.2695.08753 1.2695.08833 1.2695.0892v.00205c0 .00149-.0004.00323-.0005.00522-.0003.00398-.0007.00895-.0011.01491-.001.01191-.0023.02778-.004.04752-.0035.0395-.0087.09452-.0163.16458-.0151.1401-.0395.34032-.0777.59659-.0765.51251-.2085 1.24935-.4325 2.1778-.4481 1.85706-1.2645 4.48064-2.7416 7.60842997-2.9572 6.2619-8.5492 14.5157-19.0831 22.6743l-1.5585-2.0123c10.2083-7.9064 15.5496-15.8399 18.3401-21.7489 1.3968-2.95769997 2.1579-5.41553997 2.5688-7.11853997.2055-.85157.3234-1.51442.3894-1.95658.033-.22107.0531-.38693.0646-.49359.0057-.05332.0093-.09184.0114-.11504.001-.0116.0016-.01938.0019-.02326.0002-.00194.0002-.00290008.0002-.00290008v.00075008c0 .00025-.0001.00081-.0001.00093 0 .00062-.0001.0013 1.2695.08883zm-21.0873 33.38059997c-10.4961 8.1293-19.1422 11.7674-25.22 13.3628-3.03708004.7972-5.42584004 1.0825-7.07531004 1.1655-.82448.0415-1.46353.0324-1.9058.0117-.22111-.0104-.39299-.0237-.5142-.035-.06061-.0057-.10854-.0108-.14364-.0149-.01754-.0021-.03188-.0038-.04298-.0053-.00555-.0007-.0103-.0013-.01423-.0018-.00196-.0003-.00372-.0005-.00528-.0007-.00079-.0001-.0018-.0003-.00233306-.0003-.00082694-.0002-.00173694-.0003.17335306-1.2608.1751-1.2605.17428-1.2606.17352-1.2607-.00019-.0001-.00091-.0002-.00129-.0002-.00075-.0001-.0013-.0002-.00165-.0002-.00071-.0001-.00062-.0001.00026 0 .00178.0002.00674.0009.01485.0018.01624.0019.04511.0051.08646.0089.0827.0078.2153.0183.39643.0268.36222.017.91874.0259 1.65858-.0113 1.47916-.0744 3.69404-.3338 6.55706004-1.0853 5.7222-1.5021 14.0617-4.9777 24.3077-12.9133z" fill="#fff" transform="translate(293)"/></svg>