<svg fill="none" height="160" width="160" xmlns="http://www.w3.org/2000/svg"><clipPath id="a"><path d="M7.06 10h146.175v146.174H7.06z"/></clipPath><clipPath id="b"><path d="M0 0h160v160H0z"/></clipPath><g clip-path="url(#a)"><path d="M80.148 10C39.978 10 7.06 42.918 7.06 83.087c0 40.169 32.918 73.087 73.087 73.087 40.169 0 73.087-32.918 73.087-73.087C153.235 42.918 120.317 10 80.148 10z" fill="#fcbf35"/><path d="M153.236 83.087c0 40.169-32.918 73.087-73.088 73.087V10c40.17 0 73.088 32.918 73.088 73.087z" fill="#f9aa38"/><path d="M80.147 27.416c-30.663 0-55.671 25.008-55.671 55.671 0 30.662 25.008 55.672 55.671 55.672s55.672-25.01 55.672-55.672c0-30.663-25.009-55.671-55.672-55.671z" fill="#ffd400"/><path d="M135.82 83.087c0 30.662-25.009 55.672-55.672 55.672V27.416c30.663 0 55.672 25.008 55.672 55.671z" fill="#fcbf35"/><path d="M105.415 101.073c1.799 1.455 1.969 4.196.428 5.995-5.653 6.595-13.276 10.278-21.412 10.278-1.456 0-2.912-.086-4.283-.428-6.51-.943-12.505-4.454-17.13-9.851-2.827-3.254-4.968-7.023-6.423-11.134H50.17a4.24 4.24 0 0 1-4.282-4.283 4.24 4.24 0 0 1 4.282-4.282h4.625c-.17-1.456-.342-2.826-.342-4.283 0-1.455.171-2.826.342-4.282H50.17a4.24 4.24 0 0 1-4.282-4.283 4.24 4.24 0 0 1 4.282-4.282h6.424c1.455-4.11 3.596-7.88 6.424-11.134 4.624-5.396 10.62-8.908 17.13-9.85 1.37-.342 2.826-.428 4.282-.428 8.136 0 15.759 3.683 21.412 10.278 1.541 1.798 1.371 4.539-.428 5.995-1.799 1.541-4.54 1.37-6.082-.428-5.053-5.91-12.419-8.137-19.185-6.596-3.94.857-7.622 3.084-10.62 6.596-1.456 1.627-2.57 3.596-3.513 5.567h18.416a4.24 4.24 0 0 1 4.282 4.282 4.24 4.24 0 0 1-4.282 4.283H63.36c-.17 1.37-.342 2.826-.342 4.282 0 1.457.171 2.912.342 4.283h21.07a4.24 4.24 0 0 1 4.282 4.282 4.24 4.24 0 0 1-4.282 4.283H66.016c.942 1.97 2.055 3.94 3.512 5.567 2.998 3.513 6.68 5.74 10.62 6.595 6.766 1.543 14.132-.685 19.185-6.595 1.542-1.798 4.283-1.97 6.082-.427z" fill="#f9aa38"/><g fill="#fca306"><path d="M84.43 95.933h-4.283v-8.565h4.283a4.24 4.24 0 0 1 4.282 4.283 4.24 4.24 0 0 1-4.282 4.282zM84.43 78.803h-4.283v-8.565h4.283a4.24 4.24 0 0 1 4.282 4.282 4.24 4.24 0 0 1-4.282 4.283zM105.414 101.072c1.799 1.456 1.969 4.197.428 5.996-5.653 6.595-13.275 10.278-21.412 10.278-1.456 0-2.912-.086-4.283-.428v-8.823c6.767 1.541 14.133-.686 19.186-6.595 1.541-1.798 4.282-1.97 6.081-.428zM80.148 58.077v-8.822c1.371-.342 2.827-.428 4.283-.428 8.136 0 15.759 3.683 21.412 10.278 1.541 1.799 1.371 4.539-.428 5.995-1.799 1.542-4.54 1.371-6.081-.428-5.054-5.91-12.42-8.136-19.186-6.595z"/></g></g><g clip-path="url(#b)" stroke="#ea8003" stroke-linecap="round" stroke-linejoin="round" stroke-width="10"><path d="m5 154.993 150-150M155 154.993 5 4.993"/></g></svg>