<svg width="160" height="160" fill="none" xmlns="http://www.w3.org/2000/svg"><g clip-path="url(#clip0)"><path d="M80.148 10C39.978 10 7.06 42.918 7.06 83.087c0 40.169 32.917 73.087 73.087 73.087 40.169 0 73.087-32.918 73.087-73.087C153.235 42.918 120.317 10 80.148 10z" fill="#FCBF35"/><path d="M153.235 83.087c0 40.169-32.918 73.087-73.087 73.087V10c40.169 0 73.087 32.917 73.087 73.087z" fill="#F9AA38"/><path d="M80.148 27.415c-30.663 0-55.672 25.01-55.672 55.672 0 30.662 25.009 55.672 55.672 55.672 30.663 0 55.672-25.01 55.672-55.672 0-30.663-25.009-55.672-55.672-55.672z" fill="#FFD400"/><path d="M135.82 83.087c0 30.662-25.009 55.672-55.672 55.672V27.415c30.663 0 55.672 25.01 55.672 55.672z" fill="#FCBF35"/><path d="M105.414 101.073c1.799 1.455 1.97 4.196.428 5.995-5.653 6.595-13.275 10.278-21.412 10.278-1.455 0-2.912-.086-4.282-.428-6.51-.943-12.505-4.454-17.13-9.851-2.827-3.254-4.968-7.023-6.424-11.134h-6.423a4.24 4.24 0 01-4.283-4.283 4.24 4.24 0 014.283-4.282h4.624c-.17-1.456-.342-2.826-.342-4.283 0-1.455.172-2.826.342-4.282h-4.624a4.24 4.24 0 01-4.283-4.283 4.24 4.24 0 014.283-4.282h6.423c1.456-4.11 3.597-7.88 6.424-11.134 4.625-5.396 10.62-8.908 17.13-9.85 1.37-.342 2.827-.428 4.282-.428 8.137 0 15.759 3.683 21.412 10.278 1.542 1.798 1.371 4.538-.428 5.995-1.799 1.541-4.54 1.37-6.081-.428-5.053-5.91-12.42-8.137-19.185-6.596-3.94.857-7.623 3.084-10.62 6.596-1.457 1.627-2.57 3.596-3.513 5.567H84.43a4.24 4.24 0 014.283 4.282 4.24 4.24 0 01-4.283 4.283H63.36c-.17 1.37-.342 2.826-.342 4.282 0 1.457.172 2.912.342 4.283h21.07a4.24 4.24 0 014.283 4.282 4.24 4.24 0 01-4.283 4.283H66.016c.942 1.97 2.055 3.94 3.511 5.567 2.998 3.513 6.68 5.74 10.62 6.595 6.767 1.543 14.133-.685 19.186-6.595 1.541-1.798 4.282-1.97 6.081-.427z" fill="#F9AA38"/><path d="M84.43 95.933h-4.282v-8.565h4.282a4.24 4.24 0 014.283 4.282 4.24 4.24 0 01-4.283 4.283zM84.43 78.803h-4.282v-8.565h4.282a4.24 4.24 0 014.283 4.282 4.24 4.24 0 01-4.283 4.283zM105.414 101.072c1.799 1.456 1.97 4.197.429 5.996-5.653 6.595-13.276 10.278-21.413 10.278-1.455 0-2.911-.086-4.282-.429v-8.822c6.766 1.541 14.132-.686 19.185-6.596 1.541-1.797 4.283-1.969 6.081-.427zM80.149 58.077v-8.822c1.37-.342 2.827-.428 4.282-.428 8.137 0 15.76 3.683 21.413 10.278 1.541 1.799 1.37 4.539-.429 5.995-1.798 1.542-4.54 1.371-6.08-.428-5.054-5.91-12.42-8.136-19.186-6.595z" fill="#FCA306"/></g><g clip-path="url(#clip1)" stroke="#EA8003" stroke-width="10" stroke-linecap="round" stroke-linejoin="round"><path d="M5 154.993l150-150M155 154.993L5 4.993"/></g><defs><clipPath id="clip0"><path fill="#fff" transform="translate(7.06 10)" d="M0 0h146.174v146.174H0z"/></clipPath><clipPath id="clip1"><path fill="#fff" d="M0 0h160v160H0z"/></clipPath></defs></svg>