<svg width="480" height="1080" viewBox="0 0 480 1080" fill="none" xmlns="http://www.w3.org/2000/svg">
<g clip-path="url(#clip0)">
<rect width="480" height="1080" fill="#FDD7BD"/>
<path d="M221.736 402.185C241.088 420.149 264.779 424.11 289.056 432.879C328.111 446.741 366.814 478.001 376.079 522.133C384.993 564.85 369.981 604.03 326.117 617.326C308.056 622.843 283.309 621.145 264.779 618.599C240.032 615.205 217.866 613.649 193.002 614.922C160.984 616.336 137.176 595.261 130.725 563.152C127.09 545.33 137.997 529.063 143.978 513.08C155.641 481.281 121.733 309.409 221.736 402.185Z" fill="#FCAF7B"/>
<path d="M297.477 337.816C274.022 334.289 253.882 298.866 258.725 273.718C265.736 237.681 311.116 236.148 334.699 219.28C365.674 197.045 386.579 171.59 427.753 176.65C466.632 181.404 480.781 216.673 496.587 248.722C504.108 264.057 519.022 271.724 527.818 285.832C535.721 298.559 538.016 322.328 534.192 337.049C529.093 356.217 506.148 380.599 485.752 373.852C474.28 370.018 464.082 355.757 452.992 349.623C439.225 341.803 422.017 344.41 407.23 346.096C371.283 350.39 337.375 354.07 297.477 337.816Z" fill="#FB9B5A"/>
<path d="M93.8401 11.9789C70.5553 -11.2467 67.1261 -18.4244 107.118 -29.2395C124.025 -33.6707 144.612 -31.8992 162.152 -30.268C180.879 -28.5265 186.643 -21.8441 199.305 -9.2315C219.392 10.7898 245.663 17.2352 272.146 28.5602C314.771 46.5322 355.38 81.8983 361.687 127.082C367.731 170.812 347.199 208.497 296.636 217.231C275.812 220.869 248.143 216.581 227.543 212.092C200.032 206.103 175.251 202.227 147.173 200.902C111.037 198.971 86.2285 175.366 81.9665 142.522C79.5386 124.286 93.3192 109.13 101.534 93.7413C113.557 70.8282 113.553 31.3242 93.8401 11.9789Z" fill="#F97319"/>
<path d="M-132.24 122.337C-142.298 105.091 -133.958 75.7555 -122.642 58.5605C-107.242 35.1616 -81.7953 16.1163 -57.1855 5.11729C-33.6688 -5.34611 -11.5447 -5.61184 11.2135 -20.1623C34.4292 -35.0053 48.3799 -57.9673 70.0022 -74.4041C82.2362 -83.6955 95.8931 -94.0599 110.541 -91.9948C122.478 -90.1564 127.862 -82.1688 137.287 -77.254C158.72 -65.9749 190.019 -85.4956 213.763 -83.5314C255.602 -79.9099 307.201 -35.3391 290.16 14.7448C280.899 41.7298 253.393 74.665 228.815 89.2356C210.426 100.176 191.413 90.6151 172.186 95.56C133.668 105.327 113.337 158.168 81.2812 180.622C63.595 192.91 45.7144 203.362 24.8988 202.628C13.4856 202.087 2.89109 197.267 -8.39443 196.972C-38.7268 196.117 -75.9965 213.251 -103.708 199.291C-131.164 185.82 -119.686 147.294 -132.24 122.337Z" fill="#EA6206"/>
<path d="M17.5201 275.685C6.40771 267.09 -2.6873 252.808 -14.2043 243.198C-23.4557 235.35 -41.6065 223.306 -44.751 210.944C-52.7322 179.484 0.45746 192.664 16.2502 190.537C46.2526 186.51 57.7007 149.823 84.3465 146.924C96.1877 145.586 109.768 155.715 120.225 160.267C132.885 165.824 143.382 167.295 157.197 167.772C183.777 168.536 185.75 171.825 194.738 194.325C206.027 222.872 235.005 234.726 261.741 247.182C293.946 262.287 322.216 272.733 314.311 313.51C309.265 339.735 287.495 360.123 283.931 386.974C281.627 403.473 294.145 429.617 282.345 444.527C266.173 464.657 202.16 445.776 183.502 435.041C157.957 420.316 144.019 395.778 127.674 373.41C112.239 352.22 96.0297 334.759 74.2464 319.922C62.4372 311.838 50.6145 304.782 40.8957 295.163" fill="#C54126"/>
<path d="M436.036 726.174C447.614 718.217 463.991 713.917 476.659 705.885C486.957 699.472 503.969 685.866 516.701 686.647C549.094 688.654 520.302 735.278 517.505 750.966C512.177 780.765 543.616 802.869 538.24 829.127C535.898 840.812 522.106 850.651 514.578 859.218C505.42 869.576 500.815 879.122 496.141 892.132C487.297 917.209 483.563 918.084 459.393 919.771C428.762 921.803 408.626 945.778 388.6 967.433C364.382 993.487 345.802 1017.22 309.387 997.237C285.955 984.424 273.189 957.468 248.709 945.875C233.702 938.643 204.984 942.58 194.39 926.79C180.159 905.243 217.686 850.053 233.606 835.564C255.428 815.737 283.051 809.958 309.341 801.224C334.232 792.997 355.809 782.894 376.59 766.682C387.893 757.905 398.223 748.802 410.35 742.485" fill="#C54126"/>
<path d="M272.116 504.22C286.156 504.715 301.876 511.004 316.837 512.086C328.929 513.059 350.698 512.247 360.466 520.45C385.307 541.338 334.423 561.678 322.84 572.622C300.828 593.402 312.942 629.874 292.997 647.779C284.163 655.776 267.224 655.477 256.076 657.884C242.552 660.759 233.17 665.691 221.673 673.366C199.643 688.258 196.122 686.739 175.692 673.714C149.865 657.121 119.416 664.408 90.4353 669.896C55.4683 676.426 26.4158 684.443 9.03712 646.717C-2.17109 622.476 3.60799 593.215 -9.16784 569.331C-16.9264 554.589 -42.3498 540.665 -41.4692 521.671C-40.0851 495.886 22.9149 473.86 44.331 471.687C73.6674 468.736 99.3065 480.528 125.634 489.152C150.534 497.351 173.887 502.069 200.235 501.405C214.542 501.077 228.26 499.907 241.766 502.046" fill="#FFCAA7"/>
<path d="M-146.533 853.195C-159.548 830.778 -149.68 793.305 -135.813 771.507C-116.94 741.845 -85.3395 718.038 -54.6212 704.546C-25.2663 691.713 2.55311 691.947 30.8675 673.844C59.751 655.377 76.8102 626.239 103.656 605.683C118.846 594.064 135.802 581.102 154.268 584.136C169.32 586.808 176.261 597.21 188.218 603.769C215.414 618.817 254.363 594.55 284.267 597.691C336.964 603.43 402.804 662.033 382.432 725.937C371.357 760.366 337.46 801.965 306.858 820.046C283.963 833.625 259.847 820.847 235.771 826.701C187.534 838.249 163.084 905.609 123.243 933.625C101.26 948.952 78.9929 961.916 52.798 960.432C38.4324 959.441 25.0059 952.974 10.806 952.301C-27.3604 950.415 -73.8709 971.46 -109.018 952.804C-143.834 934.784 -130.215 885.586 -146.533 853.195Z" fill="#FCAF7B"/>
<path d="M265.214 3.64854C266.622 63.9592 255.952 84.9798 299.15 127.099C313.146 140.957 322.125 164.855 329.123 182.814C341.271 214.631 373.886 214.207 405.576 211.661C431.325 209.54 455.753 197.238 468.033 173.905C477.408 155.946 473.183 133.745 482.69 115.786C568.988 -49.2488 474.88 -24.3129 327.011 -50.9354C292.687 -57.7426 264.392 -31.0084 265.214 3.64854Z" fill="#77057A"/>
<path d="M230.609 163.531C258.065 136.764 283.861 69.8976 328.425 88.1611C351.241 97.5578 340.832 123.421 340.677 144.988C340.354 176.586 361.355 194.625 380.387 215.7C392.752 229.394 421.205 253.945 397.389 275.397C376.319 294.237 339.619 279.247 328.741 316.113C322.451 337.842 339.433 373.169 312.275 385.485C303.776 389.334 292.62 383.501 284.44 383.573C274.021 383.556 263.089 387.103 252.272 388.384C224.594 391.646 190.702 378.896 195.735 342.297C198.708 321.46 210.425 303.349 208.338 282.125C206.526 263.163 191.307 253.484 189.39 235.708C186.209 203.926 218.772 184.77 230.609 163.531Z" fill="#FA873A"/>
<path d="M393.945 150.497C398.114 146.746 402.664 143.012 406.979 139.714C429.776 123.133 452.518 127.695 476.734 118.998C493.44 113.004 498.462 102.59 515.435 116.414C528.11 126.612 536.12 149.102 534.824 166.018C531.657 214.344 491.158 231.513 470.748 269.055C449.252 307.887 438.226 362.1 377.457 349.803C334.94 341.337 317.661 304.863 282.613 285.428C248.395 266.628 223.207 256.813 242.05 216.741C251.628 196.414 266.693 176.418 288.807 170.899C311.303 165.398 332.072 180.517 354.553 176.132C369.694 173.042 381.444 161.38 393.945 150.497Z" fill="#600566"/>
<path d="M162.638 823.541C198.97 835.8 270.249 828.325 274.277 876.318C276.298 900.91 248.532 903.416 229.259 913.098C200.979 927.196 194.479 954.107 184.379 980.647C177.817 997.891 168.911 1034.4 138.969 1022.96C112.602 1012.78 109.24 973.281 71.4638 980.38C49.2534 984.673 25.5315 1015.88 2.20185 997.303C-5.0943 991.488 -4.98033 978.9 -8.76842 971.649C-13.4974 962.366 -21.6319 954.248 -27.6976 945.199C-43.2032 922.042 -47.2817 886.061 -12.4043 873.88C7.50187 867.04 28.9612 869.227 46.9079 857.705C62.9661 847.459 64.6552 829.503 79.6083 819.703C106.458 802.401 138.338 822.672 162.638 823.541Z" fill="#FA873A"/>
<path d="M-14.3909 503.531C13.0655 476.764 38.8615 409.898 83.4255 428.161C106.241 437.558 95.8317 463.421 95.6773 484.988C95.3537 516.586 116.355 534.625 135.387 555.7C147.752 569.394 176.205 593.945 152.389 615.397C131.319 634.237 94.6187 619.247 83.741 656.113C77.4508 677.842 94.4331 713.169 67.2749 725.485C58.7758 729.334 47.6195 723.501 39.4396 723.573C29.0206 723.556 18.0893 727.103 7.27164 728.384C-20.406 731.646 -54.2983 718.896 -49.2649 682.297C-46.2919 661.46 -34.5747 643.349 -36.6623 622.125C-38.4741 603.163 -53.6925 593.484 -55.6101 575.708C-58.7907 543.926 -26.2279 524.77 -14.3909 503.531Z" fill="#FA873A"/>
<path d="M436.468 300.805C413.162 292.709 404.511 278.436 377.674 280.14C320.646 283.762 280.391 346.396 278.096 400.935C275.801 456.327 314.997 478.27 357.194 499.361C383.148 512.144 397.802 526.844 410.161 553.261C421.814 578.4 430.288 604.818 456.242 617.387C566.59 670.648 585.482 543.035 575.771 461.866C559.782 329.731 524.413 332.483 436.468 300.805Z" fill="#A81E63"/>
<path d="M396.091 340.523C395.415 349.522 395.731 358.342 397.237 367.173C402.691 399.678 426.671 422.032 459.501 430.209C482.838 436.049 506.268 431.571 524.642 416.354C546.811 397.983 531.959 374.585 540.296 351.398C551.074 321.292 590.857 284.132 558.047 251.755C497.93 192.49 413.728 231.686 401.381 303.614C398.892 315.785 396.598 328.334 396.091 340.523Z" fill="#9E2DAD"/>
<path d="M446.66 398.401C430.711 398.401 412.104 396.391 396.82 399.693C368.244 405.865 374.491 430.269 370.105 452.519C365.985 473.765 344.853 491.134 346.049 513.815C347.511 542.095 371.833 560.469 401.471 559.608C418.218 559.177 433.901 556.306 451.046 557.168C471.381 558.029 487.861 560.757 504.209 547.263C529.594 526.304 548.069 486.397 561.891 458.118C570.663 440.174 577.574 412.899 558.967 399.693C550.727 393.807 536.904 389.357 527.069 386.63C516.171 383.615 499.956 373.136 488.393 375.289C475.501 377.586 467.527 393.664 446.66 398.401Z" fill="#77057A"/>
<path fill-rule="evenodd" clip-rule="evenodd" d="M412.028 506.002C448.568 505.733 476.447 535.823 505.463 558.043C533.669 579.644 573.266 597.594 577.675 632.855C582.105 668.294 540.039 690.889 526.187 723.807C514.169 752.365 525.2 790.21 502.558 811.355C479.451 832.935 443.554 828.094 412.028 830.417C377.648 832.95 336.678 848.749 311.261 825.45C285.517 801.851 302.802 758.64 296.288 724.321C290.936 696.121 272.553 671.088 276.569 642.667C281.049 610.959 297.049 582.153 319.588 559.413C345.271 533.501 375.553 506.271 412.028 506.002Z" fill="#FC8ECC"/>
<path fill-rule="evenodd" clip-rule="evenodd" d="M299.892 1029.39C309.61 1064.62 287.76 1099.34 273.807 1133.11C260.243 1165.95 253.153 1208.84 220.234 1222.23C187.149 1235.68 154.437 1200.9 119.056 1196.03C88.3599 1191.82 54.6589 1212.27 28.3752 1195.87C1.54972 1179.14 -3.0651 1143.21 -13.4685 1113.36C-24.8137 1080.81 -50.6783 1045.32 -34.7515 1014.74C-18.6193 983.764 27.5929 989.277 59.0569 974.103C84.9103 961.634 104.333 937.398 132.824 933.921C164.612 930.042 196.578 938.042 224.376 953.927C256.052 972.029 290.192 994.231 299.892 1029.39Z" fill="#FC8ECC"/>
<path d="M-63.5153 203.233C-92.5271 195.849 -124.93 223 -119.373 248.106C-116.641 260.489 -100.345 267.532 -96.0123 279.801C-92.5271 289.571 -93.0923 296.16 -97.8962 305.816C-102.983 315.813 -109.765 324.561 -111.083 335.466C-113.344 354.892 -113.25 381.816 -95.2588 396.017C-62.0082 422.372 -13.2156 389.2 20.6002 383.634C41.2287 380.226 54.4159 392.495 72.5012 397.834C92.1878 403.742 110.179 401.469 125.25 388.519C151.059 366.366 153.603 316.154 125.438 295.819C110.65 285.027 95.7672 283.891 77.9645 280.824C60.9153 277.984 46.5036 267.078 34.4467 256.74C19.4698 243.789 10.1446 234.701 -9.91877 227.544C-28.0041 221.069 -45.43 208.004 -63.2327 203.347C-63.2327 203.347 -63.3269 203.347 -63.5153 203.233Z" fill="#9E180A"/>
<path d="M7.4847 673.233C-21.5271 665.849 -53.93 693 -48.3725 718.106C-45.6409 730.489 -29.3453 737.532 -25.0123 749.801C-21.5271 759.571 -22.0923 766.16 -26.8962 775.816C-31.9827 785.813 -38.7647 794.561 -40.0834 805.466C-42.3441 824.892 -42.2499 851.816 -24.2588 866.017C8.99181 892.372 57.7844 859.2 91.6002 853.634C112.229 850.226 125.416 862.495 143.501 867.834C163.188 873.742 181.179 871.469 196.25 858.519C222.059 836.366 224.603 786.154 196.438 765.819C181.65 755.027 166.767 753.891 148.965 750.824C131.915 747.984 117.504 737.078 105.447 726.74C90.4698 713.789 81.1446 704.701 61.0812 697.544C42.9959 691.069 25.57 678.004 7.76727 673.347C7.76727 673.347 7.67309 673.347 7.4847 673.233Z" fill="#9E180A"/>
<path d="M138.477 377.008C134.495 352.012 90.8106 364.439 75.117 358.791C59.6576 353.425 53.9189 343.963 36.1173 345.093C-1.71128 347.493 -28.4138 389.011 -29.9363 425.163C-31.4588 461.879 -5.45897 476.425 22.5318 490.405C39.7479 498.878 49.4685 508.622 57.6667 526.133C65.3963 542.797 71.0179 560.308 88.234 568.64C161.432 603.944 173.963 519.355 167.522 465.551C163.657 433.636 153.351 405.675 138.477 377.008Z" fill="#A81E63"/>
<path d="M45.6593 409.646C49.674 411.822 53.779 414.294 57.4857 416.706C76.4224 429.675 79.1223 448.366 92.3969 464.574C101.551 475.756 110.909 476.769 104.931 493.56C100.563 506.065 85.4929 518.341 72.1615 521.96C34.2226 532.705 10.0091 506.316 -24.3577 500.893C-60.0097 494.989 -104.608 501.311 -111.742 451.336C-116.839 416.409 -93.5669 393.209 -88.2126 361.021C-83.1187 329.644 -82.456 307.644 -46.5752 311.175C-28.3692 312.981 -8.92123 319.086 1.34212 334.548C11.6957 350.307 5.75943 370.362 15.2526 386.414C21.7513 397.188 33.9019 403.023 45.6593 409.646Z" fill="#600566"/>
<path d="M365.198 651.708C366.502 712.084 356.625 733.127 396.609 775.292C409.564 789.165 417.875 813.089 424.353 831.067C435.597 862.918 465.785 862.494 495.118 859.946C518.951 857.822 541.561 845.506 552.928 822.149C561.605 804.17 557.694 781.945 566.494 763.967C646.372 598.754 559.266 623.717 422.397 597.066C390.627 590.251 364.437 617.014 365.198 651.708Z" fill="#FC6EB5"/>
<path d="M237.736 765.185C257.088 783.149 280.779 787.11 305.056 795.879C344.111 809.741 382.814 841.001 392.079 885.133C400.993 927.85 385.981 967.03 342.117 980.326C324.056 985.843 299.309 984.145 280.779 981.599C256.032 978.205 233.866 976.649 209.002 977.922C176.984 979.336 153.176 958.261 146.725 926.152C143.09 908.33 153.997 892.063 159.978 876.08C171.641 844.281 137.733 672.409 237.736 765.185Z" fill="#F97319"/>
<path d="M257.97 936.814C226.566 945.255 248.275 999.947 243.153 1020.93C238.361 1041.58 227.038 1050.23 230.858 1073.04C238.976 1121.5 295.586 1150.45 341.978 1147.63C389.093 1144.74 404.206 1109.28 418.331 1071.34C426.858 1048.02 438.01 1034.19 459.289 1021.3C479.547 1009.13 501.17 999.565 509.516 976.261C544.851 877.196 435.102 872.224 367.22 887.647C326.959 896.852 292.611 913.841 257.97 936.814Z" fill="#A81E63"/>
<path d="M555.659 1071.65C559.674 1073.82 563.779 1076.29 567.486 1078.71C586.422 1091.68 589.122 1110.37 602.397 1126.57C611.551 1137.76 620.909 1138.77 614.931 1155.56C610.563 1168.06 595.493 1180.34 582.161 1183.96C544.223 1194.71 520.009 1168.32 485.642 1162.89C449.99 1156.99 405.392 1163.31 398.258 1113.34C393.161 1078.41 416.433 1055.21 421.787 1023.02C426.881 991.644 427.544 969.644 463.425 973.175C481.631 974.981 501.079 981.086 511.342 996.548C521.696 1012.31 515.759 1032.36 525.253 1048.41C531.751 1059.19 543.902 1065.02 555.659 1071.65Z" fill="#600566"/>
</g>
<defs>
<clipPath id="clip0">
<rect width="480" height="1080" fill="white"/>
</clipPath>
</defs>
</svg>
