<svg fill="none" height="62" viewBox="0 0 60 62" width="60" xmlns="http://www.w3.org/2000/svg" xmlns:xlink="http://www.w3.org/1999/xlink"><filter id="a" color-interpolation-filters="sRGB" filterUnits="userSpaceOnUse" height="68" width="68" x="-4" y="-2"><feFlood flood-opacity="0" result="BackgroundImageFix"/><feColorMatrix in="SourceAlpha" result="hardAlpha" type="matrix" values="0 0 0 0 0 0 0 0 0 0 0 0 0 0 0 0 0 0 127 0"/><feOffset dy="6"/><feGaussianBlur stdDeviation="9"/><feColorMatrix type="matrix" values="0 0 0 0 0 0 0 0 0 0 0 0 0 0 0.0705882 0 0 0 0.16 0"/><feBlend in2="BackgroundImageFix" mode="normal" result="effect1_dropShadow_25341_359046"/><feBlend in="SourceGraphic" in2="effect1_dropShadow_25341_359046" mode="normal" result="shape"/></filter><g filter="url(#a)"><path clip-rule="evenodd" d="m29.9948 20.667c-1.1027 0-2 .8973-2 2s.8973 2 2 2 2-.8973 2-2-.8973-2-2-2zm0 6.6667c-2.5733 0-4.6667-2.0934-4.6667-4.6667s2.0934-4.6667 4.6667-4.6667 4.6667 2.0934 4.6667 4.6667-2.0934 4.6667-4.6667 4.6667zm0-14.6667c-5.8813 0-10.6667 4.7387-10.6667 10.564 0 7.2987 9.3987 15.4387 9.7987 15.7813.2507.2147.5587.3214.868.3214s.6173-.1067.868-.3214c.4-.3426 9.7987-8.4826 9.7987-15.7813 0-5.8253-4.7854-10.564-10.6667-10.564z" fill="#2323ff" fill-rule="evenodd"/><path d="m29.1268 39.0123-.3253.3797.0001.0001zm1.736 0 .3252.3798.0001-.0001zm-.868-18.8453c-1.3788 0-2.5 1.1212-2.5 2.5h1c0-.8265.6735-1.5 1.5-1.5zm-2.5 2.5c0 1.3788 1.1212 2.5 2.5 2.5v-1c-.8265 0-1.5-.6735-1.5-1.5zm2.5 2.5c1.3788 0 2.5-1.1212 2.5-2.5h-1c0 .8265-.6735 1.5-1.5 1.5zm2.5-2.5c0-1.3788-1.1212-2.5-2.5-2.5v1c.8265 0 1.5.6735 1.5 1.5zm-2.5 4.1667c-2.2972 0-4.1667-1.8695-4.1667-4.1667h-1c0 2.8495 2.3172 5.1667 5.1667 5.1667zm-4.1667-4.1667c0-2.2972 1.8695-4.1667 4.1667-4.1667v-1c-2.8495 0-5.1667 2.3172-5.1667 5.1667zm4.1667-4.1667c2.2972 0 4.1667 1.8695 4.1667 4.1667h1c0-2.8495-2.3172-5.1667-5.1667-5.1667zm4.1667 4.1667c0 2.2972-1.8695 4.1667-4.1667 4.1667v1c2.8495 0 5.1667-2.3172 5.1667-5.1667zm-4.1667-10.5c-6.1529 0-11.1667 4.958-11.1667 11.064h1c0-5.5446 4.5569-10.064 10.1667-10.064zm-11.1667 11.064c0 3.8337 2.4511 7.8112 4.8594 10.8121 2.4274 3.0247 4.9032 5.1684 5.114 5.3489l.6506-.7594c-.1893-.1621-2.6127-2.2598-4.9847-5.2154-2.391-2.9794-4.6393-6.7213-4.6393-10.1862zm9.9735 16.1611c.3439.2946.7682.4416 1.1932.4416v-1c-.1937 0-.3854-.0664-.5428-.2011zm1.1932.4416c.425 0 .8492-.147 1.1932-.4416l-.6504-.7595c-.1574.1347-.3491.2011-.5428.2011zm1.1933-.4417c.2108-.1805 2.6866-2.3242 5.114-5.3489 2.4083-3.0009 4.8594-6.9784 4.8594-10.8121h-1c0 3.4649-2.2483 7.2068-4.6393 10.1862-2.372 2.9556-4.7955 5.0533-4.9847 5.2154zm9.9734-16.161c0-6.106-5.0138-11.064-11.1667-11.064v1c5.6098 0 10.1667 4.5194 10.1667 10.064z" fill="#ddd"/></g></svg>