<svg width="244" height="306" viewBox="0 0 244 306" fill="none" xmlns="http://www.w3.org/2000/svg">
<path d="M65.2 96.5999C66.6 94.0999 70 91.9999 72.9 94.8999C74.7 96.6999 79.4 102 84.5 108.3C87.5 112 91.7 118.5 97.3 127.8L93.8 130.5C83.8 120.7 76.3 113.1 71.4 107.8" fill="#B28B67"/>
<path d="M87.6999 127.6C86.4999 125.8 68.5 106.9 64.3 100.7C62.5 97.9999 69.9 89.5999 74.4 93.8999L95.5 122.3L87.6999 127.6Z" fill="#8A0991"/>
<path d="M97.5741 127.081C97.2777 126.795 96.8312 126.768 96.6312 127.114C95.958 127.88 95.3482 128.336 94.8018 128.483C94.2053 128.716 93.3491 128.799 92.2331 128.732L91.1341 127.635C90.9609 127.535 90.7377 127.522 90.6877 127.609L83.6726 134.759C83.0262 135.079 82.2799 135.572 81.2602 136.138C80.2406 136.704 80.3236 137.56 81.4459 139.016C92.9643 134.466 99.0649 132.099 99.7479 131.916C99.5051 130.736 99.2489 129.78 99.0159 129.184C98.8328 128.501 98.3767 127.891 97.5741 127.081Z" fill="#A911BA"/>
<path d="M46.2 125.2C45 124 43.7 123 42.4 122.2L31.1 138.3L32.2 139.4L33.3 140.5L49.4 129.2C48.4 127.7 47.4 126.4 46.2 125.2Z" fill="#E792FC"/>
<path d="M30.8 110.8C14.3 110.8 0.900024 124.2 0.900024 140.7C0.900024 157.2 14.3 170.6 30.8 170.6C47.3 170.6 60.7 157.2 60.7 140.7C60.7 124.2 47.3 110.8 30.8 110.8ZM30.8 165C17.4 165 6.5 154.1 6.5 140.7C6.5 127.3 17.4 116.4 30.8 116.4C44.2001 116.4 55.1 127.3 55.1 140.7C55.1 154.1 44.3 165 30.8 165Z" fill="#77057A"/>
<path d="M15.3 156C16.5 157.2 17.8 158.2 19.1 159L30.4 142.9L29.3 141.8L28.2 140.7L12.1 152C13.2 153.6 14.2 154.8 15.3 156Z" fill="#E792FC"/>
<path d="M30.8 137C28.8 137 27.2 138.6 27.2 140.6C27.2 142.6 28.8 144.2 30.8 144.2C32.8 144.2 34.4 142.6 34.4 140.6C34.4 138.6 32.8 137 30.8 137Z" fill="#77057A"/>
<path d="M143.4 125.2C142.2 124 140.9 123 139.6 122.2L128.3 138.3L129.4 139.4L130.5 140.5L146.6 129.2C145.6 127.7 144.6 126.4 143.4 125.2Z" fill="#E792FC"/>
<path d="M128 110.8C111.5 110.8 98.1 124.2 98.1 140.7C98.1 157.2 111.5 170.6 128 170.6C144.5 170.6 157.9 157.2 157.9 140.7C157.9 124.2 144.5 110.8 128 110.8ZM128 165C114.6 165 103.7 154.1 103.7 140.7C103.7 127.3 114.6 116.4 128 116.4C141.4 116.4 152.3 127.3 152.3 140.7C152.3 154.1 141.4 165 128 165Z" fill="#77057A"/>
<path d="M112.6 156C113.8 157.2 115.1 158.2 116.4 159L127.7 142.9L126.6 141.8L125.5 140.7L109.4 152C110.4 153.6 111.4 154.8 112.6 156Z" fill="#E792FC"/>
<path d="M128 137C126 137 124.4 138.6 124.4 140.6C124.4 142.6 126 144.2 128 144.2C130 144.2 131.6 142.6 131.6 140.6C131.7 138.6 130 137 128 137Z" fill="#77057A"/>
<path d="M127.7 137.5L103.3 99.4998L107.2 88.8998L104.2 87.7999L100.4 97.9998H48.3L54.9 79.4998C55.3 78.2998 54.5 77.0999 53.2 77.0999H44.4C40.4 77.0999 37 80.1998 36.8 84.1998C36.6 87.7998 39 90.7998 42.2 91.6998C43.2 91.9998 44.3 91.1998 44.3 90.1998C44.3 89.4998 43.8 88.7998 43.1 88.6998C41.3 88.1998 39.9 86.3999 40.1 84.2999C40.2 82.0999 42.2 80.3998 44.5 80.3998H51.4L45 97.9998L44.6 99.0999L44.3 99.9998L31.3 137.4C32.6 137.5 33.6 138.3 34 139.4L46.9 102.5L78.5 134C79.1 133.1 79.9 132.4 80.8 131.7L50.1 101.2H99.4L88.8 130.3C89.9 130.6 90.7999 131 91.7 131.7L102.1 103.3L125.1 139.1H95.8C95.8 139.3 95.8 139.5 95.8 139.7C95.8 140.6 95.7 141.5 95.4 142.4H125.5C125.2 141.9 125.1 141.4 125.1 140.8C124.8 139 126.1 137.6 127.7 137.5Z" fill="#3E0444"/>
<path d="M42.1 91.7999C43.1 92.0999 44.2 91.2999 44.2 90.2999C44.2 89.5999 43.7 88.8999 43 88.7999C41.2 88.2999 39.8 86.4998 40 84.3998C40.1 82.3998 41.6 80.8998 43.5 80.4998C43.3 78.7998 42.6 77.9999 42 77.5999C39.1 78.4999 36.9 81.0999 36.7 84.2999C36.5 87.8999 38.8 90.8999 42.1 91.7999Z" fill="#3E0444"/>
<path d="M109.4 93.2998C116.2 93.2998 115.8 88.3998 115.8 88.3998C115.6 87.2998 115 86.2998 113.5 85.9998C111.8 85.5998 110 85.9998 108.2 85.9998C106.2 85.9998 104.2 85.9998 102.2 85.9998H94.5C93.4 85.9998 92.6 86.7998 92.6 87.6998C92.6 88.4998 93.3 89.1998 94.2 89.3998C96 89.5998 97.9 89.9998 99.6 90.6998C102.8 91.6998 105.8 93.0998 109.4 93.2998C109.3 93.2998 109.4 93.2998 109.4 93.2998Z" fill="#77057A"/>
<path d="M127.8 137.5L86.7 130.1L86.6 130.5L126.7 137.8C127.1 137.5 127.5 137.5 127.8 137.5Z" fill="#E792FC"/>
<path d="M126.5 143.4L85.9 148.6V149L127.5 143.7C127.2 143.7 126.9 143.6 126.5 143.4Z" fill="#E792FC"/>
<path d="M86 149.2C80.7 149.2 76.4 144.9 76.4 139.6C76.4 134.3 80.7 130 86 130C91.3 130 95.6 134.3 95.6 139.6C95.6 144.8 91.2 149.2 86 149.2ZM86 131.8C81.7 131.8 78.3 135.3 78.3 139.5C78.3 143.8 81.8 147.2 86 147.2C90.3 147.2 93.7 143.7 93.7 139.5C93.7 135.3 90.2 131.8 86 131.8Z" fill="#E792FC"/>
<path d="M86 137.1C84.6 137.1 83.5 138.2 83.5 139.6C83.5 141 84.6 142.1 86 142.1C87.4 142.1 88.5 141 88.5 139.6C88.5 138.2 87.3 137.1 86 137.1Z" fill="#E792FC"/>
<path d="M86 138.9C85.6 138.9 85.3 139.2 85.3 139.6C85.3 140 85.6 140.3 86 140.3C86.4 140.3 86.7 140 86.7 139.6C86.7 139.2 86.4 138.9 86 138.9Z" fill="#E792FC"/>
<path d="M84.6337 140.152L74.6537 146.994L75.3888 148.067L85.3689 141.224L84.6337 140.152Z" fill="#E792FC"/>
<path d="M78 146.6H72.8C72.3 146.6 71.9 147 71.9 147.5V148C71.9 148.5 72.3 148.9 72.8 148.9H78C78.5 148.9 78.9 148.5 78.9 148V147.5C78.9 147 78.5 146.6 78 146.6Z" fill="#E792FC"/>
<path d="M71.2 108C72.5 110.1 73.9001 112.6 75.3001 115.1C78.8001 121.3 84.4001 135.5 85.8001 139.7C86.7001 142.3 83.0001 143.3 81.8001 141.5C80.6001 139.7 60.3001 110.6 57.3001 103.8C56.3001 101.5 59.8 97.6 63.1 98" fill="#B28B67"/>
<path d="M85.9 137.7C85.6 137.4 85.2 137.5 84.9 137.8C84.2 138.6 83.6999 139 83.1999 139.2C82.5999 139.5 81.7999 139.6 80.5999 139.6L79.5 138.5C79.4 138.4 79.1 138.4 79 138.5L72.3 145.9C71.7 146.3 70.9 146.8 69.9 147.3C68.9 147.9 68.9999 148.8 70.1999 150.2C81.4999 145.2 87.4999 142.5 88.1999 142.2C87.8999 141 87.6 140.1 87.4 139.6C87.2 139.2 86.7 138.5 85.9 137.7Z" fill="#A911BA"/>
<path d="M59.1 98.8999C65.9 94.1999 84.2001 81.2 87.9001 79.1L106.8 70.7C111.4 82 110.2 89.8 100.6 94C94 96.9 70.8001 104.3 70.4001 104.8C70.1001 105.2 74.5 113.9 83.6 130.9L74.9001 134.7C74.1001 132.8 61.3001 114.9 57.5001 106.4C56.5001 104.2 56.1 101 59.1 98.8999Z" fill="#A911BA"/>
<path d="M77.8 52.6999L69.5 53.5999L69.8 43.4999C67.7 45.0999 65.6 45.9999 64.5 45.7999C61.8 45.3999 60.5 35.9999 62.1 31.9999C63.7 27.9999 73.7999 25.2999 75.1999 32.5999C75.6999 35.1999 74.8 37.5999 73.4 39.5999L77.8 52.6999Z" fill="#EEC5FC"/>
<path d="M62 30.2999C61.7 31.3999 62.1 32.5999 64 32.2999C66.2 34.3999 69.1 35.5999 69.4 35.5999C69.4 35.5999 70.5 33.7999 71.7 34.3999C73.1 35.0999 73.1 36.5999 72.5 37.7999C72.2 38.4999 71.7 39.3999 72.7 39.9999C74.4 40.8999 78 37.9999 78.5 35.7999C79.3 31.6999 77 26.5999 72.6 26.2999C72.8 25.4999 73.8 25.0999 74.5 24.8999C76.2 24.3999 78 24.4999 79.7 24.6999C81.8 24.8999 83.9 25.2999 86.1 25.0999C87.2 24.9999 88.2 24.6999 89.2 24.1999C90.2 23.6999 91.0001 22.9999 91.8001 22.2999C92.6001 21.5999 93.6 21.5999 94.6 21.7999C95.6 21.9999 96.6 22.2999 97.6 22.5999C99.7 23.3999 101.6 24.3999 103.8 24.9999C105.4 25.3999 107.1 25.4999 108.8 25.3999C111.7 25.0999 115.1 24.0999 116.7 21.4999C117.8 19.6999 117.6 17.5999 116.6 15.7999C115.7 14.0999 114.3 12.9999 112.6 12.0999C110.8 11.1999 108.9 10.4999 106.8 10.5999C104.6 10.6999 102.6 11.5999 100.9 12.8999C99.2 14.1999 97.8 15.4999 95.7 16.0999C93.6 16.6999 91.5 16.5999 89.4 16.1999C87.2 15.6999 85.1 15.1999 82.9 15.2999C80.8 15.3999 78.6001 15.7999 76.8001 16.7999C75.1001 17.6999 73.9 19.1999 73.1 20.9999C72.7 21.8999 72.4001 22.8999 72.3001 23.8999C72.3001 24.2999 72.2 24.5999 72.2 24.9999C72.2 25.2999 72.3 25.6999 72.2 25.9999C72 26.2999 71.6001 26.2999 71.3001 26.2999C70.8001 26.3999 67.8 26.7999 66.7 27.0999C65 27.5999 62.3 29.1999 62 30.2999Z" fill="#3E0444"/>
<path d="M61.6 37.5999C61.6 38.7999 60.8 39.9999 60.8 41.0999C60.9 41.7999 61.7 41.6998 62.4 41.6998" fill="#EEC5FC"/>
<path d="M62.4 36.5998C62.5 36.2998 62.7 36.0998 62.9 35.9998C63.2 35.8998 63.5 35.7998 63.7 35.7998C64 35.7998 64.3 35.8998 64.5 35.9998C64.7 36.0998 65 36.2998 65.1 36.5998C64.6 36.3998 64.2 36.2998 63.7 36.2998C63.3 36.2998 62.9 36.2998 62.4 36.5998Z" fill="#3E0444"/>
<path d="M62.5 43.3998C62.8 43.1998 63.1 43.0998 63.4 42.9998C63.7 42.8998 64 42.7998 64.4 42.8998C64.1 43.1998 63.9 43.2998 63.6 43.4998C63.2 43.5998 62.8 43.5998 62.5 43.3998Z" fill="#3E0444"/>
<path d="M63.2 37.7998C63.4209 37.7998 63.6 37.6207 63.6 37.3997C63.6 37.1788 63.4209 36.9998 63.2 36.9998C62.979 36.9998 62.8 37.1788 62.8 37.3997C62.8 37.6207 62.979 37.7998 63.2 37.7998Z" fill="#3E0444"/>
<path d="M70.1999 83.5L58.5 81.3C53.9 82.7 51.6 83 51.6 82.3C51.6 81.2 53.0999 81.2 53.1999 80.5C53.2999 79.8 51.6 78.7 49.8 77.7C48.1 76.7 48.9999 76.3 49.6999 76.2C52.0999 76.3 54.6999 76.8 57.6999 77.8L71.5 77.1L70.1999 83.5Z" fill="#EEC5FC"/>
<path d="M56.8001 84.5C54.0001 84.3 51.6 84.5 49.6 85.1C45.8 86.2 44.1001 86.3 41.3001 85.3C39.8001 84.8 37.8 83 38.1 81.8C38.3 81 42.9 81.4 44.4 80.9C45.8 80.4 42.8 78.1 43.7 77.9C44.6 77.4 46.1 78.1 48.2 80.1L54.3001 79.8L56.8001 84.5Z" fill="#EEC5FC"/>
<path d="M75 81.1999C70.7 83.9999 64 84.1999 58.3 82.8999L57.5 77.1999C64.6 77.2999 69.9 75.0999 73.5 72.8999C77.5 73.7999 78.3 78.9999 75 81.1999Z" fill="#DD6FF7"/>
<path d="M67.3 49.5L75.5 44.4C76.4 43.8 89.8 51.8 94.5 59.4C98.8 66.4 108 66.8 111.4 79.7C105.4 82 92.8 97.2 86.5 93.1C83.4 91.1 81.1 88.3 79.3 84.9C73.8 88.2 66 90.5 55.8 91.2C54.4 89.3 53.4 85.4 52.8 79.4C63.8 77 70.9 74.2 74.1 70.9C72.1 63.4 70.4 55.6 67.3 49.5Z" fill="#FCBF35"/>
<path d="M288.7 146.1C288.3 145.7 288 145.3 287.6 144.9C282.6 139.4 271 131 272 123.3C272.9 116.3 277.7 108.9 279.2 101.7C282.3 87 281.2 70.3 269.3 59.7C266 56.7 261.2 54.3 258.8 50.4C256.2 46.3 257.7 44.1 258.4 39.6C259.8 30.2 258.6 19.7 252.4 12.2C240.9 -1.49998 226.2 0.200019 226.2 0.200019C226.2 0.200019 204.9 -0.899982 201.1 19.9C197.3 40.7 201.6 43.4 201.6 43.4C201.6 43.4 179.7 57.6 177.6 82.2C175.5 106.8 182 115 186.3 122.6C186.3 122.6 176.5 138.4 172.6 149.4C168.8 160.3 167.7 178.4 175.3 189.8C184 202.9 200.8 207.4 215.6 208.2C237.1 209.4 262.7 211.5 282.7 201.8C294.5 196.1 304.2 183.9 302.9 170.8C301.8 161.2 295.2 153.3 288.7 146.1Z" fill="#77057A"/>
<path d="M274.4 155.4L244.3 165L252.1 147.9L242.2 165.7L229 169.9V162.4L229.3 18.2L227.8 101.2L218.7 93.8L216.9 77.3999L217.1 92.3999L200.1 78.3999L227.8 103.9L224.3 302.8L228.8 303.4L229 172.6L274.4 155.4Z" fill="#E792FC"/>
<path fill-rule="evenodd" clip-rule="evenodd" d="M151.5 284C192.8 275.7 213 293.7 219.3 303.2C220.2 300 205.4 285.8 188.3 282.1C178.6 279.9 155.6 280.4 151.5 284Z" fill="#A911BA"/>
<path fill-rule="evenodd" clip-rule="evenodd" d="M148.8 285.9C145.6 283.7 138.4 281.9 129.9 294.3C144.7 296.3 148.2 289.7 148.8 285.9Z" fill="#A911BA"/>
<path fill-rule="evenodd" clip-rule="evenodd" d="M156.4 279.8C156.5 275.9 154 268.9 139 268.7C145.5 282.2 152.9 281.5 156.4 279.8Z" fill="#A911BA"/>
<path fill-rule="evenodd" clip-rule="evenodd" d="M161.8 286.6C158 285.6 150.6 286.4 146.9 300.9C161.6 297.8 162.6 290.4 161.8 286.6Z" fill="#A911BA"/>
<path fill-rule="evenodd" clip-rule="evenodd" d="M173 278.4C174.6 274.9 175.1 267.4 161.5 261.3C162.1 276.3 169.1 278.6 173 278.4Z" fill="#A911BA"/>
<path fill-rule="evenodd" clip-rule="evenodd" d="M178.6 285.2C174.9 284 167.5 284.3 162.9 298.6C177.7 296.3 179.2 289 178.6 285.2Z" fill="#A911BA"/>
<path fill-rule="evenodd" clip-rule="evenodd" d="M190.1 278.9C191.7 275.4 192.2 267.9 178.6 261.8C179.2 276.8 186.2 279.1 190.1 278.9Z" fill="#A911BA"/>
<path fill-rule="evenodd" clip-rule="evenodd" d="M196 289.9C192.7 287.8 185.5 286.1 177.3 298.6C192.2 300.4 195.6 293.7 196 289.9Z" fill="#A911BA"/>
<path fill-rule="evenodd" clip-rule="evenodd" d="M207.5 287C209.9 284 212.3 276.9 200.5 267.6C197.4 282.2 203.7 286.2 207.5 287Z" fill="#A911BA"/>
<path fill-rule="evenodd" clip-rule="evenodd" d="M210.3 296.5C207.2 294.2 200 292.1 191.1 304.1C205.8 306.8 209.6 300.4 210.3 296.5Z" fill="#A911BA"/>
<path fill-rule="evenodd" clip-rule="evenodd" d="M221 299C224 296.5 227.6 289.9 217.7 278.6C212 292.5 217.4 297.5 221 299Z" fill="#A911BA"/>
<path fill-rule="evenodd" clip-rule="evenodd" d="M210.1 248.5C228.8 276.6 221.5 297 216.5 304.5C219.1 304.2 225.1 288.9 222.7 275.2C221.4 267.3 214 250.4 210.1 248.5Z" fill="#A911BA"/>
<path fill-rule="evenodd" clip-rule="evenodd" d="M207.9 247C208.6 244 207.7 238.1 196 235.6C199 247.2 204.9 247.8 207.9 247Z" fill="#A911BA"/>
<path fill-rule="evenodd" clip-rule="evenodd" d="M214.7 250.8C217.6 249.7 222 245.7 217.6 234.5C209.6 243.4 212.4 248.7 214.7 250.8Z" fill="#A911BA"/>
<path fill-rule="evenodd" clip-rule="evenodd" d="M211.3 256.9C210.9 253.8 208.1 248.6 196.2 250.2C203 260.1 208.7 258.6 211.3 256.9Z" fill="#A911BA"/>
<path fill-rule="evenodd" clip-rule="evenodd" d="M220.8 262.7C223.9 262.8 229.6 261 230 249C219 253.9 219.5 259.9 220.8 262.7Z" fill="#A911BA"/>
<path fill-rule="evenodd" clip-rule="evenodd" d="M217.5 268.9C217.3 265.8 214.8 260.4 202.8 261.3C209 271.6 214.8 270.5 217.5 268.9Z" fill="#A911BA"/>
<path fill-rule="evenodd" clip-rule="evenodd" d="M225.6 275.5C228.7 275.6 234.4 273.8 234.8 261.8C223.8 266.7 224.3 272.7 225.6 275.5Z" fill="#A911BA"/>
<path fill-rule="evenodd" clip-rule="evenodd" d="M219.3 283.2C219.9 280.1 218.9 274.3 207.1 272C210.4 283.6 216.3 284.1 219.3 283.2Z" fill="#A911BA"/>
<path fill-rule="evenodd" clip-rule="evenodd" d="M224.9 290.8C227.9 291.7 233.8 291.3 237.2 279.7C225.4 281.9 224.4 287.8 224.9 290.8Z" fill="#A911BA"/>
<path fill-rule="evenodd" clip-rule="evenodd" d="M218.7 295.8C219.5 292.8 218.9 286.9 207.2 283.9C209.8 295.6 215.7 296.4 218.7 295.8Z" fill="#A911BA"/>
<path fill-rule="evenodd" clip-rule="evenodd" d="M220.1 304.5C222.9 305.9 228.8 306.6 234.2 295.9C222.2 295.8 220.1 301.4 220.1 304.5Z" fill="#A911BA"/>
<path fill-rule="evenodd" clip-rule="evenodd" d="M160.4 257.1C205.5 266.5 218 293.3 220.4 305.5C222.7 302.7 213.8 282.1 198.4 271C189.4 264.6 166.1 255.3 160.4 257.1Z" fill="#E792FC"/>
<path fill-rule="evenodd" clip-rule="evenodd" d="M156.8 257.8C154.5 254.2 148 249.3 134.2 258.1C148.3 266.6 154.6 261.5 156.8 257.8Z" fill="#E792FC"/>
<path fill-rule="evenodd" clip-rule="evenodd" d="M167.1 255C168.8 251.1 169.3 243 154.3 236.4C155.1 252.7 162.8 255.2 167.1 255Z" fill="#E792FC"/>
<path fill-rule="evenodd" clip-rule="evenodd" d="M169.6 264.2C166.2 261.6 158.5 259.2 148.5 272.2C164.6 275.3 168.8 268.4 169.6 264.2Z" fill="#E792FC"/>
<path fill-rule="evenodd" clip-rule="evenodd" d="M184.4 260.8C187.5 257.9 191.3 250.7 180.2 238.6C174.3 253.9 180.4 259.3 184.4 260.8Z" fill="#E792FC"/>
<path fill-rule="evenodd" clip-rule="evenodd" d="M187.1 269.9C183.9 267.1 176.3 264.2 165.6 276.6C181.5 280.7 186.1 274.1 187.1 269.9Z" fill="#E792FC"/>
<path fill-rule="evenodd" clip-rule="evenodd" d="M201.4 268.6C204.5 265.7 208.3 258.5 197.2 246.4C191.3 261.8 197.4 267.1 201.4 268.6Z" fill="#E792FC"/>
<path fill-rule="evenodd" clip-rule="evenodd" d="M202.6 282.1C200.2 278.6 193.7 273.8 180 282.9C194.3 291.1 200.5 285.8 202.6 282.1Z" fill="#E792FC"/>
<path fill-rule="evenodd" clip-rule="evenodd" d="M215.4 284.2C219.2 282.2 224.5 276.1 216.7 261.7C207.3 275 211.9 281.7 215.4 284.2Z" fill="#E792FC"/>
<path fill-rule="evenodd" clip-rule="evenodd" d="M214.1 295C212 291.3 205.7 286.1 191.5 294.4C205.2 303.4 211.8 298.5 214.1 295Z" fill="#E792FC"/>
<path fill-rule="evenodd" clip-rule="evenodd" d="M223.8 302.1C227.9 300.8 234.3 295.8 229.3 280.2C217.5 291.6 220.8 299.1 223.8 302.1Z" fill="#E792FC"/>
</svg>
