<svg width="336" height="318" viewBox="0 0 336 318" fill="none" xmlns="http://www.w3.org/2000/svg">
<path d="M210.3 155.2H202.5V102.2H196.4V152H196.2V155.2H-51.9V152V102.2H-58V152V155.2H-65.6L-80.8 168.1V175.4H-71.7V244.8H-65.6V234.2L-58 224.4V229.7H-51.9V175.3H196.2V229.5H196.4V229.7H202.5V224.4L209.9 233.9V244.5H216V175.3H225.5V168L210.3 155.2ZM-58 214.6L-65.6 224.4V175.4H-58V214.6ZM209.9 224.2L202.5 214.7V175.4H209.9V224.2Z" fill="#A911BA"/>
<path d="M225.5 167H-83V179.4H225.5V167Z" fill="#E9AAF9"/>
<path d="M210.3 89.2002H-65.6001V102.1H210.3V89.2002Z" fill="#E9AAF9"/>
<path d="M210.3 105.6H-65.6001V118.5H210.3V105.6Z" fill="#E9AAF9"/>
<path d="M210.3 122.4H-65.6001V135.3H210.3V122.4Z" fill="#E9AAF9"/>
<path d="M210.3 139H-65.6001V151.9H210.3V139Z" fill="#E9AAF9"/>
<path d="M225.5 167H-83L-68.2 154.6H208.8L225.5 167Z" fill="#EEC5FC"/>
<path d="M273.8 187.3C273.8 187.3 273.7 212.6 278.3 215.7C284.5 219.9 273 219 270.2 218.9C267.4 218.7 263.8 186 263.8 186H273.7L273.8 187.3Z" fill="#F79F03"/>
<path d="M301.7 187.6C301.7 187.6 299.4 212.8 303 216.3C308 221 298.2 219.2 295.8 218.8C293.4 218.4 293.3 185.6 293.3 185.6L301.7 186.4V187.6Z" fill="#F79F03"/>
<path d="M249.4 157.1C238.9 162.6 245.5 174 248 177.7C248.7 176 249.7 174.3 251.1 172.8C249.2 170.7 246.4 165.8 249.4 157.1Z" fill="#FCBF35"/>
<path d="M310.3 134.1C310.8 134.1 311.4 134.1 312 134.2L309.7 127.4C309.7 127.4 307.6 130.4 305.5 132.8L307.5 134.7C307.7 134.6 307.8 134.6 308 134.5C308.6 134.2 309.3 134.1 310.3 134.1Z" fill="#F48E06"/>
<path d="M296.6 127.3C296.2 128.4 299.5 136.2 301.7 135.9C302.6 135.8 304 134.4 305.4 132.7C307.5 130.3 309.6 127.3 309.6 127.3C309.6 127.3 297 126.3 296.6 127.3Z" fill="#FCBF35"/>
<path d="M320.4 139C321.7 139.7 321.4 141.3 322.3 142.8L325.6 141.5C324.5 138.5 323.6 134.9 323.6 134.9L320.4 139Z" fill="#F48E06"/>
<path d="M323.5 135C323.5 135 324.4 138.5 325.5 141.6C326.2 143.6 327.1 145.4 327.8 145.9C329.7 147 335.6 140.8 335.6 139.7C335.7 138.5 323.5 135 323.5 135Z" fill="#FCBF35"/>
<path d="M290.1 140.9C290.7 140.6 291.5 139.8 291.3 139C291.3 139 291.3 139 291.3 138.9C291.1 138.3 290.2 138 289.7 137.7C289.4 137.5 289 137.3 288.7 137.1C287.7 136.4 286.5 135.7 285.3 135.8C284 136 284.5 137.7 284.9 138.5C285 138.8 285.2 139.1 285.3 139.4C285.5 139.9 285.8 140.3 286.2 140.6C287.2 141.9 288.9 141.6 290.1 140.9Z" fill="#77057A"/>
<path d="M305.9 139.3C306.784 139.3 307.5 138.629 307.5 137.8C307.5 136.972 306.784 136.3 305.9 136.3C305.016 136.3 304.3 136.972 304.3 137.8C304.3 138.629 305.016 139.3 305.9 139.3Z" fill="#77057A"/>
<path d="M288.7 146.8C289 146.9 289.3 147 289.6 147.1C290.5 147.3 291.4 147.5 292.4 147.5C293.1 147.6 293.9 147.6 294.6 147.6C295.2 147.6 295.8 147.6 296.5 147.5V146.8C295.6 146.9 294.6 146.9 293.7 146.8C293 146.8 292.2 146.7 291.5 146.6C291 146.5 290.5 146.4 290 146.3C289.6 146.2 289.3 146.1 289 146C288.9 145.9 288.7 145.9 288.6 145.8C288.5 145.8 288.5 145.7 288.4 145.7H288.3C288.2 145.8 288.2 145.9 288.2 146C288.2 146.2 288.3 146.3 288.3 146.3C288.2 146.7 288.5 146.7 288.7 146.8Z" fill="#77057A"/>
<path d="M314 143.7C315.049 143.7 315.9 142.939 315.9 142C315.9 141.061 315.049 140.3 314 140.3C312.951 140.3 312.1 141.061 312.1 142C312.1 142.939 312.951 143.7 314 143.7Z" fill="#77057A"/>
<path d="M321.8 136.3C320.9 134.8 319.7 133.7 318.4 133C316.8 132.1 314.9 131.7 313.2 131.5C312.6 131.4 312.1 131.4 311.5 131.4C310.6 131.4 309.8 131.5 309.1 131.7C308.9 131.8 308.7 131.8 308.6 131.9C306 133 305.4 135.7 302.9 137.2C302.5 137.5 302 137.6 301.5 137.8C298.1 138.6 292.6 137 288.6 137.2C289 137.4 289.3 137.7 289.6 137.8C290.1 138.1 291 138.3 291.2 139C291.2 139 291.2 139 291.2 139.1C291.4 139.9 290.6 140.6 290 141C288.8 141.6 287.1 141.9 286 140.9C285.6 140.5 285.4 140.1 285.1 139.7C285 141.3 286.3 143.6 288 145.9C288.1 145.9 288.2 145.9 288.2 146C288.3 146.1 288.5 146.2 288.6 146.2C288.9 146.3 289.3 146.4 289.6 146.5C290.1 146.6 290.6 146.7 291.1 146.8C291.8 146.9 292.6 147 293.3 147C294.2 147 295.2 147 296.1 147V147.7C295.4 147.7 294.8 147.8 294.2 147.8C293.5 147.8 292.7 147.8 292 147.7C291.1 147.6 290.1 147.5 289.2 147.3C288.9 147.2 288.6 147.1 288.3 147C288.1 146.9 287.8 146.8 287.7 146.7C287.5 154.4 297.9 152.1 303.1 155.2C303.9 155.7 305.1 156.6 305.1 157.8C305.1 158.2 304.8 158.6 304.6 158.9C302.9 161.2 300.3 162.4 297.4 162.8C276.7 166.2 275.1 161.5 258.6 168C255.1 169.4 252.6 171.1 250.8 173.1C249.4 174.6 248.4 176.3 247.7 178C245.1 184.5 247.1 191.9 247.2 196.2C242.9 201 243.2 215.2 243.6 217.7C244 220.2 253.9 220.1 251.3 216.5C248.7 212.9 252.4 199.8 252.4 199.8C252.4 199.8 265 200.6 266.4 190.2C266.6 190.2 266.7 190.2 266.7 190.3V190C286.2 203.5 302.3 194.3 305.2 192.4C305.3 192.5 305.3 192.6 305.4 192.6L305.7 192.4C305.8 194.7 306.3 209.8 308 218.2C308.5 220.3 317.6 221.7 315.4 216.7C313.2 211.8 311.3 198.6 316.2 177.6C318.5 167.8 321.9 158.3 323 148.3C323.1 147.8 323.1 147.2 323.2 146.7C323.8 141.7 323.1 138.5 321.8 136.3ZM314 140.5C314.9 140.5 315.6 141.2 315.6 142C315.6 142.8 314.9 143.5 314 143.5C313.1 143.5 312.4 142.8 312.4 142C312.4 141.1 313.1 140.5 314 140.5ZM304.3 137.8C304.3 137 305 136.3 305.9 136.3C306.8 136.3 307.5 137 307.5 137.8C307.5 138.6 306.8 139.3 305.9 139.3C305 139.3 304.3 138.6 304.3 137.8Z" fill="#FCBF35"/>
<path d="M250.6 139.8C256.3 136.4 266 140.8 266 145.7C266 160.5 252.5 230 251.8 234.4C251.1 238.8 243.6 240 243.1 234.4C242.4 225.6 241.1 195.1 242.4 180.9C242.9 175.1 243.5 169.5 244.1 164.6C237 177.4 226.1 195.6 211.3 219.4L203.3 215.7C209.6 194.9 214.8 180.3 218.8 171.7C225.7 157.1 232.2 144.5 234.9 140.1C239.2 133.2 246.6 135.6 250.6 139.8Z" fill="#3E0444"/>
<path d="M202.8 204.2L230.4 138.9C237 128.3 255.5 141.1 253.3 147.2C248.2 161.2 222.2 206.4 220.7 210.6L202.8 204.2Z" fill="#CF53E5"/>
<path d="M201.339 211.567C199.597 212.985 198.5 214.084 197.95 215.037C197.3 216.163 196.573 217.822 195.72 220.1C197.019 220.85 208.364 227.4 229.755 239.75C232.321 237.306 232.701 235.447 230.946 234.087C229.19 232.727 227.732 231.654 226.533 230.731L214.734 214.566C214.488 214.193 214.042 214.166 213.755 214.463L211.316 216.287C209.084 216.153 207.411 215.65 206.286 215C205.42 214.5 204.321 213.403 203.212 211.724C202.929 211.214 202.036 211.161 201.339 211.567Z" fill="#77057A"/>
<path d="M240.3 230.9C239.5 233 239.1 234.5 239.1 235.6C239.1 236.9 239.3 238.7 239.7 241.1C241.2 241.1 254.3 241.1 279 241.1C280 237.7 279.4 235.9 277.2 235.6C275 235.3 273.2 235.1 271.7 234.9L253.4 226.8C253 226.6 252.6 226.8 252.5 227.2L251.3 230C249.3 231 247.6 231.4 246.3 231.4C245.3 231.4 243.8 231 242 230.1C241.5 229.8 240.7 230.1 240.3 230.9C240.3 230.8 240.3 230.8 240.3 230.9Z" fill="#77057A"/>
<path d="M266.9 150.7C266.9 169.2 258.1 212.4 258.1 216.5H239.2C242 178 243 158.5 242.1 158.1C240.9 157.5 192.6 162.9 178.1 162.9C157.2 162.9 148.6 149.7 147.9 125.3H189.3C197.7 126.2 241.7 135.1 258 138.1C264.9 139.5 266.9 145.6 266.9 150.7Z" fill="#DD6FF7"/>
<path d="M167.2 24.2001C164 20.4001 161.8 15.8002 162.2 10.6002C163.2 -4.29985 184 -0.999854 188.1 6.50015C192.1 14.0001 191.7 33.1001 186.4 34.5001C184.3 35.0001 179.9 33.7001 175.4 31.0001L178.2 51.0001H161.5L167.2 24.2001Z" fill="#3E0444"/>
<path d="M212.7 71.7002L239.3 79.1002C245.5 78.5002 250.9 78.6002 255.6 79.4002C256.8 79.9002 258.5 81.1002 254.7 82.2002C250.9 83.3002 246.9 84.7002 246.9 86.1002C246.9 87.5002 249.7 88.2002 249.3 90.3002C249 91.7002 244.7 90.1002 236.3 85.4002L212.5 84.6002L212.7 71.7002Z" fill="#3E0444"/>
<path d="M125.4 86.7002L140.7 86.8002C129.1 124.5 122.9 144.2 122.2 146C120.6 150 124 156.1 125.5 159.4C120.7 161.5 121.3 153.6 115.3 156.4C109.8 158.9 105.7 163.6 99.3001 159.7C98.5001 159.2 97.7001 157.4 99.7001 156C104.8 152.5 112.2 146.3 113.2 144.3C114.5 141.4 118.6 122.3 125.4 86.7002Z" fill="#3E0444"/>
<path d="M167.4 57.3002L176 45.5002C204.9 63.7002 224.4 60.9002 233 70.4002C236.2 73.9002 234.4 77.5002 236.6 77.9002L232.5 86.7003C230.6 86.0003 229.5 89.8002 223.3 90.9002C217.2 92.1002 186.4 92.2002 167.4 57.3002Z" fill="#77057A"/>
<path d="M182 47.9003C181.3 92.3003 207 103.7 201.3 121.5C196.6 136.2 151.4 152 143.5 137.6C140.3 131.8 138.9 124.7 138.7 117C136.7 122.9 135.1 128 134 132.2C132 139.5 124.2 140.7 124.2 143.5L113.9 140.7C114.6 136.9 109.8 135 111.1 126.4C116.9 87.9003 132.5 60.0003 157.9 42.7003L158.2 38.9003C158.3 37.4003 159.6 36.2003 161.2 36.3003L180 37.6003C181.5 37.7003 182.7 39.0003 182.6 40.6003L182 47.9003Z" fill="#8A0991"/>
<path d="M190.4 16.7002C190.4 19.8002 192.3 22.3002 192.8 25.2002C193.1 26.8002 193.1 27.4002 191.4 27.7002C190.1 27.9002 188.9 27.7002 188.2 26.7002" fill="#3E0444"/>
<path d="M187.8 15.4001C187.3 15.2001 186.9 15.0001 186.4 14.9001C186 14.8001 185.5 14.8001 185.1 14.9001C184.2 15.0001 183.2 15.3002 182.1 15.3002C182.5 14.9002 182.9 14.6001 183.4 14.4001C183.9 14.2001 184.4 14.0001 185 13.9001C185.6 13.9001 186.2 13.9001 186.7 14.2001C187.2 14.5001 187.6 14.9001 187.8 15.4001Z" fill="#E792FC"/>
<path d="M185.8 18.6003C186.242 18.6003 186.6 18.2421 186.6 17.8002C186.6 17.3584 186.242 17.0002 185.8 17.0002C185.358 17.0002 185 17.3584 185 17.8002C185 18.2421 185.358 18.6003 185.8 18.6003Z" fill="#E792FC"/>
<path d="M189.2 30.4002C188.5 30.8002 187.9 30.9002 187.2 30.7002C186.5 30.6002 185.8 30.2002 185.5 29.5002C186.3 29.5002 186.8 29.6002 187.4 29.7002C188 29.9002 188.6 30.0002 189.2 30.4002Z" fill="#E792FC"/>
<path d="M266.4 70.8001C266.8 70.2001 266.7 69.5001 266.2 68.9001C265.6 68.3001 264.7 68.2001 264.1 68.8001C263.5 69.4001 263.5 70.3001 264.1 70.9001C264.6 71.4001 265.4 71.5001 265.9 71.2001L267 72.4001L267.4 72.0001L266.4 70.8001Z" fill="#3E0444"/>
<path d="M270 67.6001C270.4 67.0001 270.3 66.3001 269.8 65.7001C269.2 65.1001 268.3 65.0001 267.7 65.6001C267.1 66.2001 267.1 67.1001 267.7 67.7001C268.2 68.2001 269 68.3001 269.5 68.0001L270.6 69.2001L271 68.8001L270 67.6001Z" fill="#3E0444"/>
<path d="M274 64.3001C274.4 63.7001 274.3 63.0001 273.8 62.4001C273.2 61.8001 272.3 61.7001 271.7 62.3001C271.1 62.9001 271.1 63.8001 271.7 64.4001C272.2 64.9001 273 65.0001 273.5 64.7001L274.6 65.9001L275 65.5001L274 64.3001Z" fill="#3E0444"/>
<path d="M214.3 135C217.8 132.7 223.5 134.4 228.7 129.4C238.3 117.3 227.9 103.7 227.9 103.7C227.9 103.7 219.5 88.7001 204.6 92.8001C197.9 95.6001 197.2 101.5 193.7 103.8C189 107 178.9 101.2 166.5 109.5C148.8 121.4 163.5 143.1 164.9 145C166.2 147.1 180.2 169.2 198.1 157.7C210.8 149.6 209.5 138.1 214.3 135Z" fill="#EEC5FC"/>
<path d="M275.1 82.2001C274.8 81.5001 274.1 81.2 273.4 81.3L272.7 79.8L272.1 80.0001L272.8 81.5001C272.3 81.9001 272 82.6 272.4 83.3C272.8 84.1 273.6 84.4001 274.4 84.1001C275.1 83.9001 275.4 83.0001 275.1 82.2001Z" fill="#3E0444"/>
<path d="M279.5 80.1002C279.2 79.4002 278.5 79.1002 277.8 79.2002L277.1 77.7002L276.5 77.9002L277.2 79.4002C276.7 79.8002 276.4 80.5002 276.8 81.2002C277.2 82.0002 278 82.3002 278.8 82.0002C279.5 81.7002 279.8 80.9002 279.5 80.1002Z" fill="#3E0444"/>
<path d="M284.1 77.8001C283.8 77.1001 283.1 76.8001 282.4 76.9001L281.7 75.4001L281.1 75.6002L281.8 77.1002C281.3 77.5002 281 78.2001 281.4 78.9001C281.8 79.7001 282.6 80.0002 283.4 79.7002C284.2 79.5002 284.5 78.6001 284.1 77.8001Z" fill="#3E0444"/>
<path d="M211.734 125.739C215.953 122.908 216.979 117.044 214.026 112.641C211.072 108.239 205.257 106.964 201.038 109.795C196.819 112.625 195.793 118.489 198.746 122.892C201.7 127.295 207.515 128.569 211.734 125.739Z" fill="#DD6FF7"/>
<path d="M268.9 81.7001L264.3 74.8L206.4 110.8L212.8 120.5L268.9 81.7001Z" fill="#8A0991"/>
<path d="M210.297 123.59C213.369 121.529 214.114 117.255 211.961 114.045C209.807 110.835 205.57 109.903 202.497 111.965C199.425 114.026 198.68 118.3 200.833 121.51C202.987 124.72 207.224 125.652 210.297 123.59Z" fill="#3E0444"/>
<path d="M177.563 125.231L174.053 127.537L184.651 143.666L188.161 141.36L177.563 125.231Z" fill="#DD6FF7"/>
<path d="M284.6 70.1L283.5 67.1L281.1 64.9C279.6 63.5 277.3 63.5 275.7 64.8L264.2 74.8L268.8 81.8L282.5 75.2C284.4 74.2 285.3 72.1 284.6 70.1ZM269.5 73.7C269.1 73.1 269.2 72.4 269.7 72L276.6 66.9C277.1 66.5 277.9 66.6 278.3 67.1C278.7 67.6 278.6 68.4 278.1 68.8L271.2 73.9C270.7 74.3 269.9 74.2 269.5 73.7ZM273.6 77.9C273 78.2 272.3 78 272 77.5C271.7 76.9 271.9 76.2 272.4 75.9L279.8 71.6C280.4 71.3 281.1 71.5 281.4 72C281.7 72.6 281.5 73.3 281 73.6L273.6 77.9Z" fill="#EEC5FC"/>
<path d="M262.481 76.2274L262.063 76.502L266.346 83.0204L266.764 82.7459L262.481 76.2274Z" fill="#BABABA"/>
<path d="M252.404 82.9059L251.986 83.1804L256.269 89.6989L256.687 89.4243L252.404 82.9059Z" fill="#BABABA"/>
<path d="M242.271 89.5008L241.854 89.7754L246.136 96.2938L246.554 96.0193L242.271 89.5008Z" fill="#BABABA"/>
<path d="M232.194 96.1796L231.776 96.4541L236.059 102.973L236.477 102.698L232.194 96.1796Z" fill="#BABABA"/>
<path d="M222.062 102.775L221.644 103.049L225.927 109.568L226.345 109.293L222.062 102.775Z" fill="#BABABA"/>
<path d="M211.901 109.508L211.483 109.782L215.766 116.301L216.184 116.026L211.901 109.508Z" fill="#BABABA"/>
<path d="M270 81.2L265.2 74L264.3 74.8L268.9 81.7L270 81.2Z" fill="#3E0444"/>
<path d="M264.601 75.2213L179.59 131.044L179.755 131.295L264.766 75.4721L264.601 75.2213Z" fill="white"/>
<path d="M265.321 76.3045L180.331 132.148L180.496 132.399L265.486 76.5552L265.321 76.3045Z" fill="white"/>
<path d="M266.16 77.4722L181.18 133.346L181.345 133.597L266.325 77.7229L266.16 77.4722Z" fill="white"/>
<path d="M266.857 78.719L181.866 134.562L182.031 134.813L267.022 78.9697L266.857 78.719Z" fill="white"/>
<path d="M267.612 79.8152L182.621 135.659L182.786 135.909L267.777 80.0659L267.612 79.8152Z" fill="white"/>
<path d="M268.458 81.0009L183.447 136.824L183.611 137.075L268.622 81.2516L268.458 81.0009Z" fill="white"/>
<path d="M177.71 128.202L176.624 128.916L184.311 140.616L185.398 139.902L177.71 128.202Z" fill="#8A0991"/>
<path d="M253.5 91.7002C252.8 90.2002 252.1 88.1001 252.3 86.4001C252.7 84.0001 255.4 83.8001 257.6 83.6001C259.5 83.5001 261.2 83.8001 261.6 85.9001C261.9 87.8001 260.6 88.8001 259.4 90.1001C258.6 91.2001 254.6 94.6002 253.5 91.7002Z" fill="#3E0444"/>
<path d="M253.1 79.1001C254.1 79.1001 255 79.3001 256 79.6001C257 79.9001 258.1 80.3001 258.7 81.2001C259.1 81.8001 259.3 82.5001 258.4 82.6001C256.8 82.9001 255.3 82.6001 253.7 82.5001C252.2 82.4001 250.8 82.6001 249.5 82.6001" fill="#3E0444"/>
<path d="M238 321H-6.69995C-6.69995 321 0.800049 267.3 35.4 259.6C35.4 259.6 20.3 174.7 56.7 174.1C93.1 173.5 111.3 239.7 111.3 239.7C111.3 239.7 139.5 234.7 152.7 277.9C152.7 277.9 190.7 256.3 238 321Z" fill="#77057A"/>
<path d="M88.8999 194.3L72.8999 279.5L59 206.3L57 206.7L75.8999 305.9L22.4 264.9L21.2 266.5L76.5 308.8L78.8 321.1L80.8 320.8L73.8999 284.9L90.8999 194.7L88.8999 194.3Z" fill="#BC29D6"/>
<path d="M129.618 244.468L125.883 320.876L127.881 320.974L131.615 244.566L129.618 244.468Z" fill="#BC29D6"/>
<path d="M193.832 280.833L184.246 320.698L186.19 321.165L195.776 281.301L193.832 280.833Z" fill="#BC29D6"/>
</svg>
