<svg width="155" height="101" viewBox="0 0 155 101" fill="none" xmlns="http://www.w3.org/2000/svg">
<path d="M154.4 33.0999C154.4 38.5999 148.3 42.9998 140.8 42.9998C136.1 42.9998 132 41.2999 129.5 38.5999C129 38.0999 124.3 37.8998 124.9 37.4998C125.8 36.7998 127.6 35.6998 127.5 34.9998C127.3 34.3998 127.2 33.6998 127.2 32.9998C127.2 27.4998 133.3 23.0999 140.8 23.0999C148.3 23.0999 154.4 27.5999 154.4 33.0999Z" fill="#E9AAF9"/>
<path d="M35.3 15.3999C35.3 20.1999 38.7 24.4999 43.9 27.0999C45.1 27.6999 44.3 31.3999 44.5 31.9999C44.7 32.5999 49.2 28.9999 49.9 29.1999C51.9 29.6999 54.1 29.8999 56.4 29.8999C68.1 29.8999 77.6 23.3999 77.6 15.3999C77.6 7.39989 68.1 0.899902 56.4 0.899902C44.7 0.899902 35.3 7.39989 35.3 15.3999Z" fill="#E9AAF9"/>
<path d="M9.09992 58.1L14.8 57.7C11.5 72.1 9.69994 79.6 9.49994 80.3C8.99994 81.8 10.3999 84 11.0999 85.2C9.39992 86.1 9.39989 83.1999 7.19989 84.3999C5.19989 85.4999 3.79999 87.3 1.29999 86C0.999992 85.8 0.599967 85.2 1.39997 84.6C3.19997 83.2 5.79992 80.6999 6.09992 79.8999C6.49992 78.7999 7.49992 71.5 9.09992 58.1Z" fill="#EEC5FC"/>
<path d="M25.3 40.7L27.5 40.2C31.9 52.5 50.8 59.7 52.2 64.3C52.7 66 51.6 66.8999 52.2 67.3999L49.4 69.7C48.9 69.2 47.9 70.3 45.6 69.7C43.4 69.1 26.3 55.5 25.3 40.7Z" fill="#610466"/>
<path d="M31.8 28C32.7 31.3 33.9 38.7999 32.7 39.8999H25.1C22.3 39.5999 20.1 37.2 20.1 34.3V28.8C20.1 25.7 22.6 23.2 25.7 23.2H26.2C29.1 23.3 31.4 25.3 31.8 28Z" fill="#BC29D6"/>
<path d="M23.1 33.3C21.9 31.9 21.1 30.2 21.2 28.2C21.6 22.6 29.4 23.8 30.9 26.7C32.4 29.5 32.2 36.7 30.3 37.2C29.5 37.4 27.9 36.9 26.2 35.9L27.3 43.4H21L23.1 33.3Z" fill="#EEC5FC"/>
<path d="M24.8001 32.3998C25.1001 35.4998 25 38.9998 24.1 39.8998H16.5C16.1 32.5998 20.2 35.3998 20.2 28.4998C20.5 28.2998 20.7 27.9999 20.9 27.7999V27.5999C22.2 24.8999 23.9 23.5999 25.9 23.5999C28.9 23.5999 29.9 24.9998 30.7 26.1998C30.1 28.2998 27.7 28.5998 25.6 29.8998C25.4 29.6998 25 29.5999 24.7 29.5999C23.9 29.5999 23.3001 30.1998 23.3001 30.9998C23.3001 31.7998 23.9001 32.3998 24.8001 32.3998C24.7001 32.3998 24.8001 32.3998 24.8001 32.3998Z" fill="#BC29D6"/>
<path d="M68.1999 84.0999C62.9999 78.8999 59.4999 75.0999 57.4999 72.4999C54.1999 68.0999 51.4999 64.1999 50.5999 62.6999C48.4999 59.0999 53.9999 56.6999 55.4999 58.3999C57.6999 60.8999 62.6999 68.7999 70.4999 82.2999L68.1999 84.0999Z" fill="#B28B67"/>
<path d="M61 83.1L50.2 62.3C48 58.5 56.6 55 58.1 56.7C61.6 60.6 70.6 76.3 71.6 77.4L61 83.1Z" fill="#F79F03"/>
<path d="M55.7801 85.4011C54.4704 82.4103 50.3638 71.7503 49.1136 66.6203C48.7474 65.1657 48.3812 63.7111 48.0927 62.3194C47.1792 58.3627 54.3931 55.9692 55.0884 59.8777C56.8116 69.5084 58.6674 83.1068 58.8634 84.2949C59.1185 86.0456 56.5497 87.311 55.7801 85.4011Z" fill="#B28B67"/>
<path d="M54.4892 84.306C54.2624 85.0989 54.049 85.6685 54.0722 86.0283C54.0454 86.4747 54.2285 87.1577 54.3981 88.0639C54.9811 88.0541 59.8318 87.8525 69.0734 87.6456C69.4636 86.3697 69.144 85.7233 68.3878 85.6331C67.5449 85.4929 66.8754 85.4527 66.3423 85.3759L59.4337 82.5419C59.3471 82.4919 59.1605 82.6151 59.1105 82.7017L58.7337 83.7544C57.9507 84.1106 57.3543 84.3436 56.9079 84.3168C56.5481 84.34 55.9285 84.2132 55.3222 83.8632C54.8758 83.8364 54.6026 83.9096 54.4892 84.306C54.5392 84.2194 54.5392 84.2194 54.4892 84.306Z" fill="#500456"/>
<path d="M66.1 83.5C65.9 84.2 65.8001 84.8 65.9001 85.1C65.9001 85.5 66.1 86.1 66.3 86.9C66.8 86.8 71.2001 86.4 79.5001 85.5C79.7001 84.3 79.5001 83.7 78.7001 83.7C78.0001 83.7 77.3 83.7 76.8 83.6L70.4001 81.5C70.3001 81.5 70.1 81.5 70.1 81.7L69.8 82.7C69.1 83.1 68.6001 83.3 68.2001 83.4C67.9001 83.4 67.4001 83.3 66.7001 83.1C66.5001 83 66.2 83.2 66.1 83.5C66.1 83.4 66.1 83.4 66.1 83.5Z" fill="#500456"/>
<path d="M47.6 70.8998C44.6 77.0998 42 80.8998 35.4 84.3998C28.1 87.2998 22.2 84.8998 18.6 76.5998L30.7 69.0998C32.6 68.5998 40.2 57.6998 55.2 55.6998C58 55.3998 59.2 58.7998 59.7 59.9998C59.7 60.0998 62.8 67.3998 66.3 81.9998L52.5 81.7998L48.7 70.6998C48.3 70.1998 48 70.1998 47.6 70.8998Z" fill="#FCBF35"/>
<path d="M29.1999 42.0999C30.0999 58.6999 40 62.2999 38.4 69.0999C37 74.6999 20.6 81.7999 17.3 76.6999C16 74.5999 15.2 71.9999 15 69.0999C14.4 71.3999 14 73.2999 13.6 74.8999C13 77.6999 10.1999 78.2999 10.1999 79.3999L6.30002 78.5999C6.50002 77.0999 4.6 76.5999 4.9 73.2999C6 58.7999 11.1 47.8999 20.1 40.7999V39.3999C20.1 38.7999 20.6 38.3999 21.1 38.3999H28.1C28.7 38.3999 29.1 38.8999 29.1 39.3999L29.1999 42.0999Z" fill="#77057A"/>
<path d="M48.3 57.2998C48.3 57.2998 50.5 60.3998 51 60.8998C51.5 61.3998 51.7 61.6998 51.8 61.3998C52.2 60.3998 51.5 59.3998 51.5 59.1998C51.7 58.5998 53.7 59.9998 53.9 60.0998C54.3 60.3998 56 61.4998 55.6 60.1998C55.2 58.8998 53.1 55.3998 51.8 54.7998C50.8 54.3998 48.3 54.7998 47.6 55.6998C47.1 56.2998 46.3 57.7998 46.3 57.9998C46.4 58.1998 48.3 57.2998 48.3 57.2998Z" fill="#EEC5FC"/>
<path d="M30.3001 31.5C30.2001 31.5 30.0001 31.4 29.8001 31.5C29.6001 32.4 30.7001 31.9 30.3001 31.5Z" fill="#BC29D6"/>
<path d="M31.8 32.8999C31.7 33.3999 32.8 35.0999 32.4 35.3999C32.2 35.5999 31.2999 35.2999 31.1999 34.9999C30.8999 34.6999 31.4 33.3999 31.8 32.8999Z" fill="#EEC5FC"/>
<path d="M29 31.3C29.2 31 29.5 30.8 29.8 30.7C30.1 30.6 30.5 30.6 30.8 30.8C30.5 30.9 30.2 31 29.9 31.1C29.6 31.2 29.4 31.2 29 31.3Z" fill="#BC29D6"/>
<path d="M31.4 36C31.1 36.1 30.8 36.1 30.5 36.1C30.2 36.1 29.9 36 29.7 36.1L29.8 35.8C30 36 30.2 36.2 30.4 36.3C30.6 36.5 30.8 36.6 31.1 36.7C30.8 36.7 30.5 36.7 30.3 36.5C30 36.4 29.8 36.2 29.6 36L29.3 35.7H29.8C30.1 35.7 30.4 35.8 30.7 35.8L31.4 36Z" fill="#BC29D6"/>
<path d="M85.2 64.4998L77.2 57.2998C73 56.1998 71.1001 55.3998 71.5001 54.7998C72.0001 53.9998 73.2 54.6998 73.6 54.1998C74 53.6998 73.2001 51.9998 72.3001 50.4998C71.4001 48.8998 72.4001 49.0998 72.9001 49.2998C74.7001 50.4998 76.5001 52.0998 78.3001 54.2998L89.2 60.1998L85.2 64.4998Z" fill="#500456"/>
<path d="M109.9 59.4999C101.7 73.7999 87.2 74.7999 73.8 67.6999L81.2 54.0999C95.3 62.0999 104.7 57.5999 110.1 46.8999L115.2 48.3999C114.1 51.8999 112 55.7999 109.9 59.4999Z" fill="#DD6FF7"/>
<path d="M103.4 75.3999L119.2 85.0999C113.2 94.1999 106.8 97.1999 98.8 92.2999C93.3 88.8999 79.4 77.0999 78.8 76.9999" fill="#8A0991"/>
<path d="M75 67.4999C77 69.0999 78.4 72.2999 75.5 74.4999C73.6 75.8999 68.3 79.2999 62.1 82.9999C58.5 85.1999 52.1 88.0999 43.2 91.7999L41.2 88.3999C51.2 80.7999 58.8 75.0999 64.2 71.3999C73.4 65.3999 75 67.4999 75 67.4999Z" fill="#500456"/>
<path d="M79.9 71.2998C80 71.9998 79.8 72.4998 79.6 72.9998C77.9 77.2998 74.6 80.7998 71.5 83.8998C68.3 87.0998 64.8 89.8998 61.1 92.4998C59.7 93.4998 57.9 90.8998 58.6 89.7998C59.4 88.6998 71 70.3998 74.3 67.4998C75.7 66.1998 79.5 68.9998 79.9 71.0998C79.9 71.1998 79.9 71.1998 79.9 71.2998Z" fill="#500456"/>
<path d="M46.8501 91.3708C46.9135 91.0609 46.8037 90.6511 46.4939 90.5877C45.6145 90.3109 45.0083 89.9609 44.7619 89.5877C44.2922 89.2011 43.9726 88.5547 43.6298 87.5485L44.1566 86.2361C44.2566 86.0628 44.1334 85.8763 43.9602 85.7763L35.6392 82.5887C35.083 82.1521 34.4401 81.6655 33.6241 81.0789C32.8081 80.4923 32.1117 80.8985 31.3117 82.2841C39.1281 90.1456 43.3145 94.2947 43.7841 94.6813C44.7171 94.0652 45.3769 93.5224 45.7135 93.1394C46.0368 92.9796 46.3867 92.3734 46.8501 91.3708C46.8001 91.4574 46.8501 91.3708 46.8501 91.3708Z" fill="#EEC5FC"/>
<path d="M47.5 81.5998C49.3 80.7998 68.8 67.8998 74.9 65.1998C77.6 63.9998 83.8 71.8998 79.3 75.1998L50.9 89.3998L47.5 81.5998Z" fill="#8A0991"/>
<path d="M65 90.5998C64.9 90.2998 64.5 90.1998 64.2 90.2998C63.4 90.6998 62.7 90.8998 62.3 90.8998C61.7 90.8998 61 90.6998 60.1 90.2998L59.6 88.9998C59.5 88.7998 59.3 88.7998 59.2 88.7998L51 92.4998C50.3 92.5998 49.5 92.6998 48.5 92.7998C47.5 92.8998 47.3 93.6998 47.7 95.2998C58.8 95.1998 64.6 95.1998 65.3 95.1998C65.5 94.0998 65.6 93.2998 65.6 92.6998C65.5 92.1998 65.4 91.4998 65 90.5998Z" fill="#EEC5FC"/>
<path d="M78 64.4999C84.9 67.1999 103.8 74.0999 107.2 75.7999L124.4 78.1999C125.5 93.1999 110.6 97.5999 102.6 92.6999C97.1 89.2999 81 78.1999 80.4 78.1999C80 78.1999 77.8 78.7999 67.3 90.5999L59.2 85.8999C60.2 84.2999 65.8 74.0999 71.6 67.1999C73.1 65.3999 75 63.2999 78 64.4999Z" fill="#A911BA"/>
<path d="M117.5 53.0999H110L111.3 44.0999C109.3 45.2999 107.3 45.8999 106.4 45.6999C104.1 45.0999 103.8 36.4999 105.7 33.1999C107.5 29.7999 116.8 28.3999 117.3 34.9999C117.5 37.2999 116.5 39.3999 115.1 41.0999L117.5 53.0999Z" fill="#500456"/>
<path d="M110.4 35.8999L111 34L114.7 33.7V33.3999C110.4 33.3999 107.4 33.2 105.7 32.8C105.8 31.3 107.3 29.7 111.3 29.7C115.8 29.7 118.2 32.3 118.2 35.3C118.2 38.1 116.4 41.4 115.1 41.5C114.8 41.4 114.5 40.9999 114.2 40.3999C114.8 40.0999 115.1 39.5 115.1 38.7C115.1 37.9 114.4 37.1 113.5 37.1C113.2 37.1 112.9 37.1999 112.6 37.3999C112.1 36.4999 111.3 35.8999 110.4 35.8999Z" fill="#FFCB65"/>
<path d="M142.2 93.3998C142.6 94.2998 146 97.0999 148.3 98.5999C149.2 99.1999 148.8 99.9999 148.5 100.3C145.7 102 143.8 99.9999 141.4 98.7999C138.7 97.5998 138.9 101.1 136.8 100.1C137.5 98.5999 139 95.8999 138.3 94.0999C138 93.2999 134.1 84.4999 126.6 67.5999H133.4C138.7 83.5999 141.6 92.1998 142.2 93.3998Z" fill="#500456"/>
<path d="M117.3 44.5H117.8C129.8 55.3 137.6 70.6 141.3 90.4H124.9C124.8 86.7 124.8 86.6 124.5 83.1L103.4 76.8C105.7 66.6 109.1 60.4 109.1 46.5L117.3 44.5Z" fill="#E792FC"/>
<path d="M124.5 83L118.9 81.3C120.1 76.7 121.5 68.2 120.9 59.5C122.6 65.8 123.9 76 124.5 83Z" fill="#DD6FF7"/>
<path d="M104.6 38.0999C104.8 39.2999 101.9 42.0999 104.7 42.0999L104.6 38.0999Z" fill="#500456"/>
<path d="M106.5 37.7999C105.8 37.6999 105.8 38.4999 106.3 38.4999C106.9 38.4999 106.9 37.8999 106.5 37.7999Z" fill="#A911BA"/>
<path d="M105.5 36.9998C105.7 36.8998 105.8 36.7998 106 36.6998C106.2 36.5998 106.4 36.5999 106.7 36.5999C106.8 36.5999 107 36.6998 107.1 36.6998C107.2 36.7998 107.3 36.8998 107.4 36.8998C107.5 37.0998 107.6 37.2998 107.7 37.4998C107.5 37.4998 107.3 37.2999 107.1 37.2999C106.9 37.1999 106.8 37.1998 106.7 37.1998C106.6 37.1998 106.4 37.1998 106.2 37.1998C105.9 37.0998 105.7 37.0998 105.5 36.9998Z" fill="#A911BA"/>
<path d="M104.8 43.4998C105.1 43.3998 105.5 43.2998 105.8 43.1998C106.1 43.0998 106.4 42.9998 106.8 42.9998H106.9L107 43.0998C107.1 43.0998 107.1 43.2997 107.1 43.3997C107 43.5997 106.9 43.5998 106.9 43.5998L106.7 43.6998C106.6 43.7998 106.4 43.8997 106.3 43.8997C106 44.0997 105.6 44.1998 105.3 44.0998C105.6 43.8998 105.9 43.6998 106.1 43.4998C106.2 43.3998 106.4 43.2998 106.5 43.1998L106.7 43.0998C106.7 43.0998 106.7 42.9998 106.7 43.1998C106.7 43.2998 106.7 43.3997 106.7 43.3997L106.8 43.4998C106.8 43.4998 106.8 43.4998 106.9 43.4998C106.6 43.4998 106.2 43.5998 105.9 43.5998C105.5 43.5998 105.1 43.5998 104.8 43.4998Z" fill="#A911BA"/>
</svg>
