<svg width="425" height="176" viewBox="0 0 425 176" fill="none" xmlns="http://www.w3.org/2000/svg">
<path d="M43.2999 82.0999L67.7999 123.2L86.2999 158H90.2L59.3999 82.0999H43.2999Z" fill="#8A0991"/>
<path d="M83.7999 156.4C83.3999 157.4 83.2 158.1 83.2 158.6C83.2 159.2 83.2999 160.1 83.4999 161.2C84.1999 161.2 90.4 161.2 102.2 161.2C102.7 159.6 102.4 158.7 101.4 158.6C100.4 158.5 99.4999 158.4 98.7999 158.3L90.0999 154.4C89.8999 154.3 89.7 154.4 89.7 154.6L89.0999 156C88.0999 156.5 87.3 156.7 86.7 156.7C86.2 156.7 85.5 156.5 84.7 156.1C84.4 155.8 83.9999 156 83.7999 156.4C83.8999 156.3 83.7999 156.3 83.7999 156.4Z" fill="#E792FC"/>
<path d="M81.2 152.4L88.9 150.1C85.5 140.1 81.3999 129 76.5999 117C71.6999 105 66.4999 93.3 60.8999 82.2H39.2999C45.4999 96.4 52.0999 109.2 58.9999 120.8C65.8999 132.3 73.2999 142.9 81.2 152.4Z" fill="#E792FC"/>
<path d="M41.7 82.0999C39.4 96.4999 34.9 115 34.5 115.5C34.2 115.9 24.1 119.3 4.09998 125.7L4.99997 129.2C28.8 125.8 41.4 123.1 42.7 121.2C44.6 118.4 54.2 95.8999 58 82.0999H41.7Z" fill="#8A0991"/>
<path d="M11.1 122.8L12.6 128.4C30.4 130 41.3 128.8 45.4 125C49.5 121.2 54 106.9 59.1 82.0999H38.5C35.2 102.4 33.4 112.9 33 113.8C32.6 114.7 25.3 117.7 11.1 122.8Z" fill="#E9AAF9"/>
<path d="M4.97985 124.283C3.92559 124.063 3.20148 123.987 2.70907 124.074C2.11819 124.178 1.24922 124.433 0.200663 124.821C0.322217 125.511 1.39883 131.616 3.44788 143.237C5.1104 143.452 5.94464 143 5.86947 141.998C5.7943 140.996 5.73652 140.092 5.71345 139.385L8.04345 130.14C8.1072 129.926 7.97398 129.746 7.77702 129.781L6.29411 129.433C5.62805 128.535 5.29216 127.782 5.18797 127.191C5.10115 126.699 5.17656 125.975 5.43157 125.117C5.67491 124.77 5.40851 124.411 4.97985 124.283C5.0957 124.364 5.0957 124.364 4.97985 124.283Z" fill="#E792FC"/>
<path d="M51.1 37.2999C54.9 37.2999 56.3 32.7999 58.4 30.2999C59.9 28.4999 62.6 29.0999 63.3 26.5999C65.3 20.2999 60 15.8999 53.2 15.8999C46.4 15.8999 41.8 19.7999 40.8 25.5999C39.8 31.3999 44.3 37.2999 51.1 37.2999Z" fill="#3E0444"/>
<path d="M51.5001 33.2998C50.0001 31.4998 48.9001 29.2998 49.1001 26.8998C49.6001 19.7998 59.4001 21.3998 61.4001 24.9998C63.3001 28.5998 63.1001 37.5998 60.6001 38.2998C59.6001 38.5998 57.5001 37.8998 55.4001 36.5998L56.7001 46.0998H48.8L51.5001 33.2998Z" fill="#8A0991"/>
<path d="M54.8 28.7C54.5 28.5 54.2 28.5 53.8 28.5C52.7 28.5 51.8 29.4 51.8 30.5C51.8 30.9 52 31.4 52.2 31.7C51.7 32.5 51.4 33.3 51.3 34.2C49.6 34.2 43.5 27.9 49.6 21.9C55.7 15.9 64.5 24.4 61.8 24.9C60.3 25.2 57.3 26.7 54.8 28.7Z" fill="#3E0444"/>
<path d="M76.6 73.5L86 82.6001C88.7 83.8001 91 85 92.7 86.5C93.1 87 93.5 87.9 91.7 87.5C89.9 87.1 87.8999 86.8 87.5999 87.4C87.2999 88 88.2999 88.9 87.5999 89.7C87.1999 90.2 85.6999 88.6 83.2999 84.7L73.6 79L76.6 73.5ZM30.7999 65.3H38C32.5 83.2 29.6 92.5 29.2 93.4C28.4 95.3 30.1 98.2 30.7 99.7C28.4 100.7 28.6999 97 25.7999 98.3C23.1999 99.5 21.2 101.7 18.2 99.8C17.8 99.6 17.3999 98.7 18.3999 98C20.7999 96.3 24.2999 93.4 24.7999 92.5C25.5999 91.2 27.4999 82.1 30.7999 65.3Z" fill="#8A0991"/>
<path d="M52.7999 44.7L55.7 44.2C60.2 60.1 83.2999 70.9999 84.7999 76.8999C85.2999 79.0999 83.6999 80.1999 84.5999 80.8999L80.8999 83.6C80.2999 82.9 78.8999 84.2 76.0999 83.3C73.1999 82.4 52.7999 63.6 52.7999 44.7Z" fill="#3E0444"/>
<path d="M57.6 46.8C57.3 67.9 69.5 73.3 66.7 81.7C64.5 88.7 43 96.2 39.3 89.3C37.8 86.5 37.1 83.2 37 79.5C36.1 82.3 35.3 84.7 34.7 86.7C33.7 90.2 30.1 90.7 30.1 92.1L25.2 90.8C25.5 89 23.2 88.1 23.9 84C26.7 65.7 34.1 52.5 46.1 44.3L46.2 42.5C46.3 41.8 46.9 41.2 47.6 41.3L56.5 41.9C57.2 42 57.8 42.6 57.7 43.3L57.6 46.8Z" fill="#500456"/>
<path d="M334.3 15.4999C335.7 13.7999 336.7 11.7999 336.5 9.4999C336 2.8999 326.8 4.29989 325 7.69989C323.2 10.9999 323.4 19.4999 325.7 20.0999C326.6 20.2999 328.6 19.7999 330.6 18.4999L329.3 27.3999H336.7L334.3 15.4999Z" fill="#77057A"/>
<path d="M332.8 4.69996C329.1 3.39996 324.2 4.89997 324.9 7.99997C325.3 9.89997 327.6 10.9 329.8 12C330.1 11.4 330.7 11 331.5 11C332.6 11 333.4 11.8 333.4 12.9C333.4 13.3 333.3 13.6 333.1 13.9C333.8 14.5 334.4 15.3 334.5 16.3C335.7 16.3 337.6 12.8 337 9.39997C337.2 9.39997 337.3 9.39997 337.5 9.39997C340.1 9.39997 342.1 7.29997 342.1 4.79997C342.1 2.19997 340 0.199964 337.5 0.199964C334.9 0.0999637 332.9 2.19996 332.8 4.69996Z" fill="#3E0444"/>
<path d="M340.6 60.2998L324 102L312.1 136.9L308.5 137.5L325.7 62.6998L340.6 60.2998Z" fill="#77057A"/>
<path d="M313.7 136.5C314 137.4 314.2 138.1 314.2 138.6C314.2 139.2 314.1 140 313.9 141C313.3 141 307.4 140.8 296.4 140.5C296 139 296.3 138.2 297.2 138.1C298.2 138 299 137.9 299.6 137.8L307.8 134.4C308 134.3 308.1 134.4 308.2 134.6L308.7 135.9C309.6 136.3 310.3 136.6 310.9 136.6C311.4 136.6 312 136.4 312.8 136.1C313.2 136 313.5 136.1 313.7 136.5Z" fill="#DA6EF4"/>
<path d="M316 130.9L308.6 129.9C310.2 120.1 312.3 109.3 315 97.3998C317.7 85.4998 320.8 73.9999 324.3 62.7999L344.3 59.5999C340.7 73.5999 336.5 86.4999 331.8 98.2999C327.1 110.1 321.9 121 316 130.9Z" fill="#970CA3"/>
<path d="M339.5 57.5C346.4 69.4 356.5 84 357 84.4C357.4 84.6 367.4 84.2 387 83.1L387.4 86.4C365.4 91.4 353.5 93.2 351.7 92C349.1 90.2 333.1 73.7 325.2 62.9L339.5 57.5Z" fill="#77057A"/>
<path d="M379.9 82.7999L380.5 88.1999C365.4 95.4999 355.5 98.1999 350.7 96.1999C345.9 94.1999 337.1 83.1999 324.3 63.2999L342.3 56.3999C351.9 73.0999 357.1 81.6999 357.7 82.2999C358.3 82.8999 365.7 83.0999 379.9 82.7999Z" fill="#BC29D6"/>
<path d="M385.645 82.1412C386.462 81.591 387.134 81.371 387.609 81.1857C388.2 81.0815 389.005 81.041 390.106 80.9485C390.21 81.5394 391.333 87.3324 393.44 98.1306C392.05 98.8834 391.21 98.7269 390.955 97.858C390.683 96.8905 390.347 96.1374 390.144 95.5639L384.995 88.2468C384.862 88.0672 384.943 87.9513 385.123 87.8181L386.316 87.1C386.554 86.1442 386.612 85.3216 386.525 84.8292C386.438 84.3368 386.137 83.7807 385.604 83.0623C385.338 82.7031 385.384 82.3903 385.645 82.1412Z" fill="#DA6EF4"/>
<path d="M319.6 38.5001L311.8 31.3001C307.7 30.2001 305.8 29.3001 306.2 28.8001C306.7 28.0001 307.8 28.7001 308.3 28.2001C308.7 27.7001 307.9 26.1001 307 24.5001C306.1 22.9001 307.1 23.1001 307.6 23.3001C309.3 24.5001 311.1 26.1001 312.9 28.2001L323.7 34.1001L319.6 38.5001ZM306.4 43.9001C304.4 42.4001 302.5 41.4001 300.7 41.0001C297.3 40.1001 296 39.3001 294.3 37.3001C293.4 36.2001 292.7 33.9001 293.5 33.2001C294.1 32.7001 297.3 35.1001 298.7 35.4001C300 35.7001 298.8 32.5001 299.5 32.8001C300.4 32.8001 301.2 34.1001 301.9 36.6001L306.6 39.2001L306.4 43.9001Z" fill="#77057A"/>
<path d="M328.8 32.8999C325 32.8999 320 32.1 314.6 28.7L312.5 33.3999C316.2 37.0999 321.4 40.1 325.9 40C329.6 39.8 331.4 35.4999 328.8 32.8999Z" fill="#DA6EF4"/>
<path d="M323.7 40.4C319.7 41.4 313 40.2 303.6 36.9C301.3 41.7 300.2 45.2 300.4 47.2C308.5 51.4 315.4 53.3 321.1 53.4C320.9 56.8 321.3 60 322.7 62.9C325.5 68.9 342.2 63.3 347.8 64.4C351.3 53 344.5 48.4001 344.5 41.1001C344.5 33.1001 338.1 20.8 337.1 20.8H328.5C328.1 27.1 325.7 33.8 323.7 40.4Z" fill="#E792FC"/>
<path d="M394.2 96.4001C393.6 104.5 355.2 128.5 355 129.2C354.9 129.5 358.9 138.9 367 157.5L363.6 158.8C351.2 139.1 345.3 128.2 346 126.1C346.9 123.1 356.8 113.2 375.8 96.5002L394.2 96.4001Z" fill="#CF53E5"/>
<path d="M366 153.3L360.5 155.3C348.9 142.3 344.4 131.5 345.2 126C345.8 122.3 355.7 112.5 374.9 96.4001H394.5C393.8 115.2 358.2 129.2 357.8 130C357.3 130.9 362 138.8 366 153.3Z" fill="#DA6EF4"/>
<path d="M368.1 156.873C368.775 157.65 369.167 158.325 369.441 158.744C369.646 159.351 369.876 160.179 370.004 161.29C369.397 161.495 363.519 163.612 352.462 167.676C351.454 166.351 351.48 165.403 352.377 164.984C353.309 164.472 354.078 164.113 354.719 163.815L361.573 157.264C361.735 157.11 361.923 157.178 362.017 157.212L362.999 158.315C364.041 158.375 364.896 158.367 365.408 158.128C365.887 157.983 366.468 157.556 367.152 156.847C367.442 156.633 367.886 156.582 368.1 156.873Z" fill="#500456"/>
<path d="M389.8 96.4001L406.9 137.5L423.7 172.3H419.7L376.3 96.4001H389.8Z" fill="#CF53E5"/>
<path d="M423.9 170.6C424.3 171.6 424.5 172.3 424.5 172.8C424.5 173.4 424.4 174.3 424.2 175.4C423.5 175.4 417.3 175.4 405.5 175.4C405 173.8 405.3 172.9 406.3 172.8C407.3 172.7 408.2 172.6 408.9 172.5L417.6 168.6C417.8 168.5 418 168.6 418 168.8L418.6 170.2C419.6 170.7 420.4 170.9 421 170.9C421.5 170.9 422.2 170.7 423 170.3C423.4 170.1 423.8 170.3 423.9 170.6Z" fill="#500456"/>
<path d="M422.2 165L413.4 166.7C406.6 156.7 378.1 115.6 374.9 96.4001H394.5C404.9 110.3 415.7 154.8 422.2 165Z" fill="#E792FC"/>
<path d="M388 55.3001C389.5 53.5001 390.6 51.3001 390.4 48.9001C389.9 41.8001 380.1 43.4001 378.1 47.0001C376.2 50.6001 376.4 59.6001 378.9 60.3001C379.9 60.6001 382 59.9001 384.1 58.6001L382.8 68.1001H390.7L388 55.3001Z" fill="#CF53E5"/>
<path d="M381.2 43.0001C382.3 42.7001 383.9 42.6001 384.5 42.6001C384.1 41.7001 384 40.7001 384.1 39.7001C384.2 38.7001 384.6 37.9001 385 37.1001C385.2 36.7001 385.4 36.3001 385.7 36.0001C386 35.7001 386.4 35.5001 386.8 35.4001C387.2 35.3001 387.7 35.3001 388.1 35.4001C388.3 35.4001 388.5 35.5001 388.6 35.6001C388.8 35.6001 388.9 35.5001 389 35.4001C389.3 35.1001 389.8 35.0001 390.2 34.9001C390.7 34.8001 391.2 34.9001 391.6 35.1001C392 35.2001 392.5 35.5001 392.8 35.8001C392.9 36.0001 393.1 36.1001 393.1 36.3001C393.1 36.4001 393.1 36.4001 393.2 36.5001C393.3 36.5001 393.4 36.5001 393.4 36.6001C394.1 36.9001 394.8 37.4001 395.1 38.2001C395.3 38.6001 395.4 39.4001 395.4 40.3001C395.4 41.2001 394.6 43.4001 393.9 44.2001C393.3 44.9001 392.3 45.4001 391.4 45.6001C392 46.3001 392.4 47.2001 392.7 48.0001C393 49.0001 393.2 50.0001 393.3 51.0001C393.4 52.0001 393.4 53.0001 393.2 53.9001C393 54.8001 392.5 55.5001 391.8 56.0001C391.5 56.2001 391.1 56.4001 390.7 56.5001C390.3 56.6001 390 56.8001 389.6 56.9001C388.9 57.1001 388 57.0001 387.5 56.4001C387.3 56.2001 387.1 55.9001 386.9 55.7001C386.8 55.6001 386.8 55.5001 386.9 55.5001C387 55.4001 387.1 55.3001 387.2 55.2001C387.8 54.7001 388.1 54.1001 388.2 53.3001C388.3 52.5001 388.1 51.5001 387.3 51.2001C386.4 50.8001 385.3 51.3001 384.5 51.7001C384.1 50.5001 383.4 49.3001 382.3 48.8001C381 48.2001 379.6 48.1001 378.3 47.6001C378 47.5001 377.6 47.3001 377.4 47.0001C377.3 46.9001 377.2 46.7001 377.1 46.6001C377 46.4001 377.2 46.2001 377.3 46.1001C378 45.1001 380.1 43.4001 381.2 43.0001Z" fill="#BC29D6"/>
<path d="M367.6 98.1001L357.2 102.4C354.2 105.9 352.6 107.3 352.2 106.7C351.7 105.8 352.8 105.1 352.6 104.4C352.4 103.7 350.4 103.8 348.5 104C346.6 104.1 347.2 103.3 347.6 102.9C349.5 101.8 351.9 100.8 354.8 100L365.3 92.3L367.6 98.1001ZM410 113.7C410.5 114.7 414 117.6 416.4 119.2C417.4 119.9 417 120.7 416.6 121C413.6 122.9 411.6 120.7 409 119.5C406.2 118.2 406.4 121.9 404.1 120.9C404.8 119.3 406.4 116.5 405.6 114.6C405.3 113.8 403 106.4 398.7 92.7H405.6C408 105.4 409.4 112.4 410 113.7Z" fill="#CF53E5"/>
<path d="M386.1 63.6001L383.2 63.1001C372.6 72.3001 368.2 89.9001 355.2 99.2001L358.3 103.1C381 100.3 386.6 78.8001 386.1 63.6001Z" fill="#5B0460"/>
<path d="M398.6 99.5002C387.1 99.5002 378.7 99.5002 373.3 99.5002C372.1 99.5002 372.4 97.8002 372.5 97.0002C374.4 87.3002 382 76.8002 382 63.0002L389.3 61.9001C395.3 71.5001 397.4 83.5002 398.6 99.5002Z" fill="#F0DCF9"/>
<path d="M398.4 71.4C399.5 71.1 400.3 70.4001 400.9 69.3001C403.6 64.5001 402.6 61.8 399.8 61C396.9 60.1 394.4 61.9 389.9 61.9C389.7 61.9 389.4 61.9 389.2 61.9L386.9 62C380.3 84.2 378.5 99 381.5 106.5H401.4C402.6 109.3 403.7 111.6 404.8 113.4H410.2C410.7 96.9 406.8 82.9 398.4 71.4Z" fill="#77057A"/>
<path d="M397 95.1001C396.4 100.3 395.4 104.1 393.9 106.5H401.3C400 103.3 398.5 99.5001 397 95.1001Z" fill="black" fill-opacity="0.1"/>
<path d="M252.6 75L241.8 75.5C238 77.7 236.1 78.4 235.9 77.8C235.7 76.9 237 76.5 237 75.9C237 75.2 235.2 74.7 233.4 74.2C231.7 73.7 232.4 73.1 233 72.9C235.1 72.5 237.6 72.4 240.4 72.6L252.4 69L252.6 75Z" fill="#BC29D6"/>
<path d="M268.1 82.9001L257.3 160.2L261 159.3L269.9 122.9L283 79.1001L268.1 82.9001Z" fill="#BC29D6"/>
<path d="M262.5 158.8C262.3 158.5 262 158.4 261.6 158.5C260.8 158.9 260.2 159.2 259.7 159.2C259.1 159.2 258.4 159.1 257.4 158.7L256.8 157.4C256.7 157.2 256.5 157.2 256.4 157.3L248.4 161.5C247.7 161.6 246.9 161.8 245.9 162C244.9 162.2 244.7 163 245.3 164.5C256.5 163.8 262.4 163.4 263.1 163.4C263.2 162.3 263.3 161.5 263.2 160.9C263.1 160.4 262.9 159.7 262.5 158.8Z" fill="#E792FC"/>
<path d="M277.5 118.5C281.2 106.2 284.3 92.7 286.7 78.2L266.7 83.3C264.2 95 262 106.9 260.4 119.2C258.7 131.5 257.5 142.6 256.7 152.7L264.3 153C269.4 142.3 273.8 130.8 277.5 118.5Z" fill="#5B0460"/>
<path d="M267.8 83.1C276.8 93.4 294.4 108.7 297.2 110.3C299.1 111.4 311 108.4 332.9 101.4L332.2 98C312.4 100.8 302.3 102.2 301.9 101.9C301.3 101.6 289.8 87.6 281.7 76.2L267.8 83.1Z" fill="#BC29D6"/>
<path d="M302.3 99.9C301.6 99.3 295.6 91 284.4 75L266.7 83.6C281.4 102.7 291.3 113 296.4 114.6C301.4 116.2 311.3 112.6 325.9 103.8L324.8 98.3C310.5 100 303 100.5 302.3 99.9Z" fill="#77057A"/>
<path d="M330.646 97.3225C330.385 97.5715 330.356 97.9828 330.605 98.2435C331.236 98.9445 331.537 99.5007 331.723 99.9757C331.925 100.549 331.85 101.273 331.728 102.31L330.668 103.208C330.488 103.341 330.523 103.538 330.639 103.619L336.425 110.519C336.726 111.076 337.08 111.927 337.433 112.779C337.786 113.63 338.724 113.769 339.982 112.837C336.872 102.114 335.257 96.4078 335.135 95.7185C334.035 95.811 333.247 95.9499 332.673 96.1526C332.082 96.2568 331.445 96.6738 330.646 97.3225C330.628 97.224 330.628 97.224 330.646 97.3225Z" fill="#E792FC"/>
<path d="M279.7 51.3002L272.2 52.1002L272.6 42.9002C270.7 44.3002 268.8 45.1002 267.8 45.0002C265.4 44.6002 264.3 36.1002 265.8 32.5002C267.3 28.9002 276.5 26.5002 277.6 33.2002C278 35.5002 277.2 37.7002 276 39.5002L279.7 51.3002Z" fill="#BC29D6"/>
<path d="M275.6 41.0001L274.8 37.6001C275.1 36.0001 274.8 35.1001 273.9 34.8001C273 34.5001 272.2 35.1001 271.4 36.7001L270.5 36.8001C270.1 35.6001 269.6 34.9001 268.9 34.7001C266.8 34.2001 265.4 34.7001 264.2 34.9001C262.4 30.4001 265.3 28.0001 270.2 27.0001C273.5 26.3001 275.6 27.1001 276.5 29.6001C277.7 29.8001 278.5 30.5001 278.9 31.7001C279.5 33.5001 277.1 36.7001 276.6 41.0001H275.6Z" fill="#F0DCF9"/>
<path d="M301.9 94.2001C302 95.2001 304.1 99.0001 305.8 101.3C306.4 102.2 305.8 102.9 305.4 102.9C302.1 103.5 301.1 100.9 299.2 99.0001C297.1 96.9001 296.1 100.3 294.4 98.6001C295.5 97.4001 298 95.4001 297.9 93.5001C297.9 92.6001 298.3 85.3001 299.1 71.6001L305.3 73.9001C302.9 86.0001 301.8 92.8001 301.9 94.2001Z" fill="#BC29D6"/>
<path d="M244.4 75.7L242.8 71.2C257.5 67 267.1 52.6 279.6 47.8L282 49.2C277.5 63 265.6 80.5 244.4 75.7Z" fill="#DA6EF4"/>
<path d="M278 46.4001L271.2 48.2001C272.5 61.3001 266.4 72.0001 265.5 81.4001C265.4 82.2001 265.4 83.8001 266.5 83.7001C271.6 83.2001 279.6 82.4002 290.5 81.3002C287.8 66.1002 284.7 55.0001 278 46.4001Z" fill="#F0DCF9"/>
<path d="M287.6 54.5C288.6 54.1 289.3 53.4 289.8 52.2C291.9 47.4 290.7 45 287.9 44.4C285.1 43.8 282.9 45.8 278.6 46.2C278.4 46.2 278.2 46.3 278 46.3L275.8 46.6C271.7 68.3 271.4 82.6 274.9 89.3C280.9 88.4 286.9 87.5 292.9 86.6C294.1 86.4 295.3 86.2 296.6 86C296 86.1 294.4 82.1 294.2 81.6C293.5 80.1 293.2 78.4 292.8 76.7C291.9 73.3 292.1 72.8 291.2 69.7C292.5 70.8 294 71.7 295 73.1C296 74.4 296.3 76.2 296.3 77.8C296.4 80.6 296.5 83.4 296.6 86.2C296.7 88.6 296.3 91.5 297.8 93.6L303 93.1C311.4 60.1 298.6 61.8 287.6 54.5Z" fill="#E595F9"/>
<path d="M209.6 151.7C215.509 151.7 220.3 146.909 220.3 141C220.3 135.091 215.509 130.3 209.6 130.3C203.691 130.3 198.9 135.091 198.9 141C198.9 146.909 203.691 151.7 209.6 151.7Z" fill="#F79F03"/>
<path d="M97.7 91.2002C100.2 99.7002 146.3 116.2 146.7 116.8C146.9 117.1 144.8 128 140.6 149.5L144.4 150.1C153 126.4 156.7 113.6 155.5 111.5C153.8 108.5 141.1 100.4 117.2 87.0002L97.7 91.2002Z" fill="#CF53E5"/>
<path d="M140.5 144.8L146.8 145.7C156 129.3 158.3 116.8 156.2 111.2C154.8 107.5 142 99.3002 118 86.7002L97.2999 91.2002C102.3 111 143.2 117.6 143.9 118.3C144.6 119 141.3 128.5 140.5 144.8Z" fill="#5B0460"/>
<path d="M139.057 149.065C138.493 150.03 138.185 150.876 138.108 151.38C137.997 151.978 137.971 152.926 138.031 154.225C138.757 154.276 145.438 155.218 158.013 156.922C158.723 155.264 158.561 154.248 157.493 153.965C156.425 153.683 155.451 153.435 154.794 153.196L146.021 147.768C145.833 147.7 145.611 147.725 145.542 147.913L144.713 149.314C143.628 149.664 142.74 149.766 142.107 149.749C141.603 149.672 140.852 149.398 140.014 148.774C139.767 148.578 139.288 148.723 139.057 149.065Z" fill="#5B0460"/>
<path d="M99.9999 86.8003L81.4999 131.3L63.2999 168.8H67.5999L114.5 86.8003H99.9999Z" fill="#CF53E5"/>
<path d="M62.9999 167.1C62.5999 168.2 62.3999 169 62.3999 169.5C62.3999 170.1 62.4999 171.1 62.6999 172.3C63.3999 172.3 70.1999 172.3 82.8999 172.3C83.3999 170.6 83.0999 169.6 81.9999 169.5C80.8999 169.4 79.8999 169.2 79.1999 169.1L69.7999 164.9C69.5999 164.8 69.3999 164.9 69.2999 165.1L68.6999 166.6C67.6999 167.1 66.7999 167.3 66.1999 167.3C65.6999 167.3 64.8999 167.1 63.9999 166.7C63.6999 166.6 63.1999 166.7 62.9999 167.1C63.0999 167.1 62.9999 167.1 62.9999 167.1Z" fill="#5B0460"/>
<path d="M64.8999 161L74.3999 162.8C81.7999 152 112.6 107.5 116 86.8003H94.7999C83.5999 101.8 71.9999 150 64.8999 161Z" fill="#77057A"/>
<path d="M102.1 40.7001C100.5 38.8001 99.3 36.4001 99.5 33.7001C100 26.0001 110.7 27.7001 112.8 31.6001C114.9 35.5001 114.6 45.3001 111.9 46.0001C110.8 46.3001 108.6 45.6001 106.2 44.2001L107.7 54.5001H99.1L102.1 40.7001Z" fill="#CF53E5"/>
<path d="M106.7 34.6C107 39.2 107.9 41.5 109.3 41.5C111.4 41.5 113.2 40.2 114.1 40.2C114.8 40.2 114.6 41 114.2 41.7C113.8 42.2 112 42.7 112 43.5C112 44.3 113.4 43.7 113.4 44.2C113.4 45 113.7 46.5 112.3 46.5C110.9 46.5 106.9 46 106.3 43.9C105.9 42.6 105.6 39.8 105.4 35.7C105.3 35.7 105.2 35.7 105.1 35.7C103.9 35.7 103 36.7 103 37.8C103 38.4 103.2 38.9 103.6 39.3C103.1 40 102.5 40.7 101.9 41.5C99.5 40.1 97.7 35.9 100.1 31.8C100.7 29.8 102.2 28.8 103.9 28.3C105.3 27.7 106.8 27.6 108 28C110.4 28.2 112.6 28.9 113.2 29.4C113.2 31.7 112.8 32.4 109 32.3C108.1 32.7 107.4 33.5 106.7 34.6Z" fill="#191847"/>
<path d="M129.1 75.4001L142.1 69.7001C144.4 67.4001 146.6 65.7001 148.7 64.5001C149.3 64.3001 150.4 64.2001 149.3 65.9001C148.2 67.6001 147 69.4001 147.5 70.0001C148 70.6001 149.3 69.9001 149.8 70.9001C150.2 71.5001 147.9 72.3001 143.1 73.2001L133.4 80.6001L129.1 75.4001ZM76.7 76.9001L84 78.4001C76.6 92.1001 72.7 99.4001 72.1 100.2C70.9 102.1 72 105.5 72.4 107.2C69.8 107.8 70.8 103.9 67.5 104.7C64.5 105.4 61.9 107.4 59.1 104.8C58.8 104.5 58.5 103.5 59.7 103C62.6 101.7 67 99.4001 67.7 98.4001C68.8 97.2001 71.7 90.0001 76.7 76.9001Z" fill="#CF53E5"/>
<path d="M104 49.5L107.1 49C113.8 55.5 116.6 71.2 121.1 73.3C125.3 75.3 131.4 73.4 138.5 70.8L140.7 75.7C134.2 82.7 120.4 88.7 114.7 85.3C105.7 79.8 103.6 60.5 104 49.5Z" fill="#970CA3"/>
<path d="M90.5 88.4002C102.9 88.4002 112 88.4002 117.9 88.4002C119.2 88.4002 118.9 86.6002 118.7 85.7002C116.6 75.2002 108.5 63.8002 108.5 48.9002L100.6 47.7002C94 58.1002 91.8 71.0002 90.5 88.4002Z" fill="#DDE3E9"/>
<path d="M87.8 77.7001C82.2 87.8001 77.5 95.0001 73.7 99.4001L68 98.3001C71.7 75.4001 82.4 58.5001 100.1 47.6001H100.2H103.2C110.3 71.8001 112.2 87.9001 109.1 95.9001H84.5C84.8 90.0001 86 83.8001 87.8 77.7001Z" fill="#BC29D6"/>
</svg>
