<svg width="290" height="230" viewBox="0 0 290 230" fill="none" xmlns="http://www.w3.org/2000/svg">
<rect y="36.2437" width="265.328" height="166.433" transform="rotate(-7.85002 0 36.2437)" fill="#DFFDAD"/>
<path d="M140.287 84.0027C119.818 86.6886 98.6891 89.4611 78.2201 92.147C76.8995 92.3203 75.0923 93.9039 74.7449 91.2566C74.3976 88.6093 76.5521 89.673 77.8727 89.4997C102.964 86.2074 128.715 82.8283 153.806 79.536C169.653 77.4566 185.5 75.3772 201.347 73.2978C202.007 73.2111 202.668 73.1245 203.328 73.0378C203.988 72.9512 204.075 73.613 204.162 74.2748C204.249 74.9366 203.588 75.0233 202.928 75.1099C202.268 75.1966 200.947 75.3698 200.287 75.4565C181.225 78.6309 160.756 81.3168 140.287 84.0027Z" fill="#204F01"/>
<path d="M143.934 111.799C123.465 114.485 102.996 117.171 82.5274 119.857C81.8671 119.943 80.5465 120.117 79.8862 120.203C79.2259 120.29 78.5657 120.377 78.4788 119.715C78.392 119.053 78.3051 118.391 78.9654 118.305C79.6257 118.218 80.9463 118.045 81.6066 117.958C116.602 113.366 151.597 108.774 186.593 104.182C192.535 103.402 197.818 102.709 203.76 101.929C205.081 101.756 207.548 100.086 207.896 102.733C208.243 105.38 205.428 104.403 204.108 104.577C184.959 107.089 164.403 109.113 143.934 111.799Z" fill="#204F01"/>
<path d="M141.503 93.2684C121.034 95.9543 100.565 98.6401 80.0958 101.326C79.4355 101.413 78.7752 101.499 78.1149 101.586C77.4547 101.673 76.7944 101.759 76.6207 100.436C76.447 99.112 77.1073 99.0253 77.7676 98.9387C78.4279 98.8521 79.0882 98.7654 79.7485 98.6788C108.801 94.8665 137.854 91.0543 166.907 87.2421C179.452 85.5959 191.338 84.0363 203.883 82.3902C204.543 82.3035 206.437 81.3818 206.611 82.7054C206.872 84.6908 205.464 84.2023 204.144 84.3756C183.101 87.81 162.632 90.4958 141.503 93.2684Z" fill="#204F01"/>
<path d="M142.718 102.534C122.249 105.22 101.78 107.906 81.3112 110.592C80.6509 110.679 79.9906 110.765 79.3303 110.852C78.0097 111.025 77.9229 110.363 77.836 109.702C77.7492 109.04 78.3226 108.291 78.9829 108.205C79.6432 108.118 80.9638 107.945 81.6241 107.858C114.639 103.526 148.313 99.1072 181.328 94.7751C189.251 93.7354 197.175 92.6957 205.098 91.656C205.759 91.5694 207.653 90.6476 207.913 92.6331C208.174 94.6185 206.106 94.2167 205.446 94.3033C184.316 97.0758 163.187 99.8484 142.718 102.534Z" fill="#204F01"/>
<path d="M139.224 73.6433C128.659 75.0295 118.755 76.3292 108.19 77.7154C107.53 77.8021 105.636 78.7238 105.376 76.7384C105.115 74.7529 106.522 75.2414 107.843 75.0682C128.312 72.3823 148.781 69.6964 169.91 66.9239C170.571 66.8372 172.465 65.9155 172.725 67.9009C172.986 69.8864 171.578 69.3978 170.258 69.5711C159.693 70.9574 149.789 72.257 139.224 73.6433Z" fill="#204F01"/>
<path d="M147.65 119.602C152.933 118.908 158.215 118.215 162.837 117.609C163.497 117.522 164.731 116.687 164.992 118.672C165.165 119.996 163.845 120.169 163.185 120.256C152.62 121.642 142.055 123.029 131.491 124.415C130.83 124.501 129.597 125.337 129.336 123.351C129.162 122.028 130.483 121.854 131.143 121.768C137.086 120.988 142.368 120.295 147.65 119.602Z" fill="#204F01"/>
<path d="M30.7323 67.9632C31.2875 67.2766 31.9728 67.8334 32.3154 68.1118C36.8845 69.8333 39.4455 73.336 40.8637 77.901C40.9287 78.5226 41.3364 79.4227 41.434 80.3551C42.2017 78.7037 42.6918 77.3955 43.492 76.0549C43.8347 76.3332 44.1773 76.6116 44.7325 75.9251C45.2551 74.9277 45.8103 74.2412 46.643 73.2113C49.3863 69.4678 52.1296 65.7243 54.5303 61.7024C55.6232 63.1592 55.5083 65.0565 55.0507 66.6756C54.0205 71.811 50.9671 75.5869 45.4502 76.7926C44.83 76.8575 44.2098 76.9224 43.9647 77.5765C42.4944 81.5011 40.9915 85.1148 40.484 89.2529C40.5165 89.5637 40.2389 89.9069 40.5815 90.1853C40.6466 90.807 40.3365 90.8394 40.0589 91.1827C39.5688 92.4909 39.0461 93.4882 39.1762 94.7315C39.2413 95.3532 38.9962 96.0073 39.6489 96.2532C40.3017 96.4991 40.5467 95.845 41.1344 95.4693C44.5305 91.9717 47.959 88.7849 51.3551 85.2873C52.4654 83.9143 53.9184 82.8195 55.0612 81.7573C55.6466 87.3521 53.246 91.374 49.1972 94.6257C46.8789 96.4394 43.8755 97.6963 40.7093 97.3991C39.1263 97.2506 39.1913 97.8722 39.2889 98.8047C39.4992 103.81 39.987 108.473 41.1276 113.381C41.3227 115.246 41.5504 117.422 42.3657 119.222C43.116 120.4 43.4261 120.368 44.2264 119.027C44.9941 117.375 45.4191 115.446 46.1543 113.483C47.8372 108.594 49.2425 104.048 50.9254 99.1582C55.7048 105.885 52.7142 116.253 45.2868 120.173C44.0789 120.614 44.1439 121.235 44.5516 122.135C46.5249 126.014 48.4982 129.892 51.6469 133.019C52.0871 134.23 53.0825 134.754 53.8328 135.933C53.8978 136.554 53.9629 137.176 54.5831 137.111C55.2033 137.046 54.8282 136.457 54.7956 136.146C54.6829 132.073 54.9129 128.278 54.8002 124.205C54.6376 122.651 55.4053 121 54.3124 119.543C54.8675 118.856 55.2427 119.445 55.5853 119.724C60.4797 124.553 59.7747 132.797 55.4809 136.703C54.6156 137.422 54.6481 137.733 55.3659 138.6C57.4542 140.581 59.8526 142.53 62.251 144.479C62.9363 145.035 63.589 145.281 64.2743 145.838C64.6169 146.116 64.9595 146.395 65.2371 146.051C65.5147 145.708 65.4822 145.397 65.4496 145.087C65.0094 143.876 64.5692 142.665 64.4391 141.422C63.8689 138.967 63.021 136.857 63.0709 134.338C67.3625 136.402 69.1558 141.557 66.445 145.611C65.6122 146.641 65.9874 147.23 66.9828 147.754C69.9688 149.327 73.265 150.868 76.4962 151.786C76.8388 152.065 77.7366 151.657 77.5241 152.622C77.3115 153.586 76.6263 153.03 76.2837 152.751C72.0571 151.308 67.7981 149.554 63.7516 146.835C63.0664 146.279 62.7562 146.311 62.136 146.376C58.4148 146.765 54.6935 147.155 50.6621 147.577C50.0419 147.641 49.4217 147.706 49.1766 148.36C48.1813 147.836 49.0465 147.117 49.3241 146.774C51.2672 144.371 53.9606 143.146 57.0942 143.133C57.4043 143.1 58.057 143.346 58.3346 143.003C56.9316 141.579 55.2184 140.187 53.8154 138.763C53.4728 138.484 53.1627 138.517 52.8525 138.549C52.4774 137.96 51.5146 137.746 50.5842 137.844C47.3856 137.236 44.2195 136.939 41.0209 136.331C38.1649 136.001 35.5865 135.328 32.763 135.309C32.3553 134.409 33.2856 134.312 33.5632 133.969C38.2322 130.652 43.2264 130.444 48.1707 132.754C46.295 129.808 44.4192 126.862 43.1637 123.852C43.1311 123.541 42.7885 123.262 42.4784 123.295C39.8024 121.689 37.1264 120.084 34.4505 118.479C32.8024 117.708 31.4318 116.595 29.7837 115.825C27.793 114.776 26.39 113.352 24.1217 112.646C26.1623 111.176 28.3331 110.949 30.5689 111.343C33.735 111.641 36.6885 112.903 39.152 115.473C39.4946 115.751 39.5271 116.062 40.1473 115.997C39.1694 112.643 38.5015 109.257 38.1112 105.527C38.0787 105.216 38.0462 104.905 37.7036 104.627C36.6757 103.791 35.6478 102.956 34.93 102.089C32.124 99.2401 29.3179 96.3915 26.5118 93.5428C24.7336 91.5293 22.6594 89.4322 21.1588 87.0754C21.4689 87.0429 21.8179 87.0064 22.128 86.974C22.4511 86.9402 22.4511 86.9402 23.131 87.1956C30.0509 87.4143 33.3841 90.31 38.016 98.6236C38.2784 95.1397 38.5409 91.6557 39.146 88.4502C39.0809 87.8285 38.9834 86.8961 38.6082 86.3069C37.01 83.0176 35.7545 80.0067 34.1563 76.7175C33.1784 73.3633 32.543 70.2875 30.7323 67.9632Z" fill="#9B1558"/>
<path d="M21.1126 86.8807C22.5807 88.9267 24.669 90.9078 26.4472 92.9213C29.2532 95.7699 32.0593 98.6186 34.8654 101.467C35.8933 102.302 36.611 103.17 37.6389 104.005C37.9815 104.283 38.0141 104.594 38.0466 104.905C28.1232 105.943 19.6074 96.465 20.5574 87.5673C20.835 87.224 20.8025 86.9132 21.1126 86.8807Z" fill="#DC3579"/>
<path d="M50.855 99.3189C49.3898 104.045 47.5598 108.937 46.187 113.794C45.7619 115.724 44.9942 117.376 44.259 119.338C43.7689 120.646 43.1487 120.711 42.3984 119.533C41.273 117.765 41.3879 115.868 41.1603 113.692C41.6353 109.243 42.7955 105.351 46.2241 102.164C47.6445 100.759 48.9943 99.5136 50.855 99.3189Z" fill="#DC3579"/>
<path d="M32.7632 135.309C35.5867 135.328 38.1651 136.001 41.0211 136.33C44.1872 136.628 47.4115 136.95 50.6102 137.558C51.573 137.771 52.6577 138.021 53.653 138.546C51.1223 141.324 47.351 142.895 43.5322 142.352C39.0931 141.874 35.4868 140.366 33.1709 136.209C32.7957 135.62 32.7632 135.309 32.7632 135.309Z" fill="#DC3579"/>
<path d="M24.3667 111.993C26.3249 112.73 28.038 114.122 30.0287 115.171C31.6768 115.941 33.0148 116.744 34.6954 117.825C37.3714 119.43 40.2406 121.734 42.9165 123.339C39.3579 125.282 35.6885 124.32 32.0822 122.812C29.4713 121.828 27.383 119.847 25.9149 117.801C25.0996 116.001 24.2842 114.201 24.3667 111.993Z" fill="#DC3579"/>
<path d="M30.7327 67.9631C32.5759 70.5982 33.1787 73.3632 34.7118 76.0308C36.31 79.3201 37.5655 82.3309 39.1637 85.6202C39.2288 86.2418 39.2938 86.8635 39.3914 87.796C35.8826 87.2204 33.4517 84.961 31.8861 81.9825C29.26 77.8581 28.4621 73.2282 30.4876 68.6171C30.4551 68.3063 30.7652 68.2739 30.7327 67.9631Z" fill="#DC3579"/>
<path d="M55.094 82.0682C53.9511 83.1305 52.5307 84.536 51.3878 85.5983C47.9918 89.0959 44.5632 92.2826 41.1672 95.7802C40.8896 96.1235 40.3344 96.81 39.6817 96.5641C39.0289 96.3182 39.2415 95.3533 39.209 95.0424C39.0789 93.7992 39.0814 92.6749 39.604 91.6776C39.8816 91.3343 40.2004 90.5529 40.4042 89.9608C42.0871 85.0713 48.7618 81.4739 53.821 81.8872C54.0986 81.5439 54.7188 81.479 55.094 82.0682Z" fill="#DC3579"/>
<path d="M54.5766 61.8614C52.1759 65.8833 49.4326 69.6269 46.6893 73.3704C46.1667 74.3677 45.6115 75.0543 44.7788 76.0841C44.2236 76.7706 43.881 76.4923 43.5383 76.2139C43.0505 71.5515 44.2107 67.6594 47.9819 64.751C49.9901 62.9698 52.0307 61.4994 54.5766 61.8614Z" fill="#DC3579"/>
<path d="M54.28 119.232C55.3729 120.689 54.6052 122.34 54.7678 123.895C54.8805 127.968 54.6506 131.762 54.7632 135.836C54.7958 136.146 55.4302 137.053 54.81 137.118C54.1898 137.183 53.4495 136.601 53.3844 135.98C52.6667 135.112 52.0873 134.23 51.6471 133.019C49.9838 129.108 49.8712 125.035 52.3044 121.324C52.5819 120.981 53.1046 119.984 54.28 119.232Z" fill="#DC3579"/>
<path d="M49.128 148.366C49.3731 147.711 50.3521 147.609 50.9723 147.544C54.6935 147.155 58.4148 146.765 62.4462 146.344C63.0664 146.279 63.6866 146.214 64.0618 146.803C61.1059 151.511 54.7126 153.298 50.5685 149.647C49.8748 149.229 49.1931 148.987 49.128 148.366Z" fill="#DC3579"/>
<path d="M63.1884 134.748C63.1384 137.267 64.0188 139.689 64.5566 141.832C64.9968 143.043 65.437 144.254 65.5671 145.497C65.5996 145.808 65.6321 146.119 65.3545 146.462C65.077 146.805 64.7343 146.527 64.3917 146.249C63.7064 145.692 63.0537 145.446 62.3684 144.889C61.2105 142.811 60.3626 140.7 60.7552 138.459C60.9352 137.184 61.4253 135.875 62.258 134.846C62.5682 134.813 62.8457 134.47 63.1884 134.748Z" fill="#DC3579"/>
<path d="M245.285 43.2719C244.6 42.7151 244.045 43.4016 243.767 43.7449C239.654 46.3749 237.841 50.0211 237.398 54.7808C237.463 55.4025 237.251 56.3674 237.348 57.2998C236.255 55.8431 235.505 54.6647 234.445 53.5187C234.167 53.862 233.889 54.2053 233.204 53.6485C232.486 52.7809 231.801 52.2242 230.773 51.3891C227.314 48.2945 223.856 45.1999 220.674 41.7621C219.907 43.4135 220.412 45.246 221.195 46.7352C223.266 51.5462 227.035 54.6083 232.681 54.6459C233.302 54.581 233.922 54.5161 234.297 55.1053C236.548 58.6405 238.766 61.8648 240.119 65.8082C240.152 66.119 240.495 66.3974 240.217 66.7407C240.282 67.3623 240.592 67.3299 240.935 67.6082C241.685 68.7866 242.403 69.6542 242.533 70.8975C242.598 71.5191 242.973 72.1083 242.385 72.484C241.798 72.8598 241.423 72.2706 240.77 72.0246C236.723 69.3058 232.709 66.8978 228.663 64.1789C227.292 63.0654 225.644 62.2952 224.306 61.4925C224.892 67.0873 228.073 70.5251 232.707 72.8683C235.351 74.1628 238.549 74.7708 241.585 73.8247C243.103 73.3516 243.168 73.9733 243.266 74.9057C244.096 79.8465 244.584 84.5088 244.484 89.5469C244.679 91.4118 244.907 93.5876 244.482 95.5174C243.992 96.8256 243.682 96.858 242.621 95.7121C241.528 94.2553 240.713 92.4553 239.588 90.6877C236.929 86.2525 234.613 82.0956 231.955 77.6604C228.671 85.2312 233.743 94.7557 241.821 97.0527C243.094 97.2337 243.159 97.8554 242.947 98.8203C241.819 103.023 240.691 107.226 238.258 110.937C238.078 112.213 237.213 112.932 236.723 114.24C236.445 114.583 236.51 115.205 236.2 115.238C235.58 115.302 235.825 114.648 235.792 114.337C235.059 110.329 234.049 106.664 233.316 102.656C233.153 101.102 232.06 99.6451 232.828 97.9937C232.143 97.4369 231.898 98.091 231.62 98.4343C227.832 104.173 230.228 112.092 235.237 115.024C236.232 115.548 236.265 115.859 235.742 116.857C234.109 119.227 232.166 121.63 230.223 124.033C229.668 124.719 229.08 125.095 228.525 125.782C228.248 126.125 227.97 126.468 227.627 126.19C227.285 125.911 227.252 125.601 227.22 125.29C227.4 124.014 227.58 122.738 227.45 121.495C227.5 118.976 227.892 116.735 227.322 114.281C223.551 117.19 222.863 122.603 226.354 126.009C227.382 126.844 227.137 127.498 226.272 128.217C223.399 130.717 220.493 132.907 217.522 134.474C217.244 134.818 216.281 134.604 216.689 135.504C217.097 136.404 217.652 135.718 217.929 135.374C221.766 133.088 225.569 130.49 228.965 126.992C229.52 126.306 229.831 126.273 230.451 126.209C234.172 125.819 237.893 125.43 241.925 125.008C242.545 124.943 243.165 124.878 243.54 125.467C244.406 124.748 243.41 124.224 243.068 123.946C240.669 121.997 237.781 121.357 234.712 121.992C234.402 122.024 233.814 122.4 233.472 122.122C234.55 120.438 235.937 118.721 237.015 117.038C237.293 116.694 237.603 116.662 237.913 116.629C238.468 115.943 239.366 115.535 240.264 115.127C243.267 113.87 246.303 112.923 249.307 111.667C252.033 110.753 254.416 109.561 257.174 108.958C257.387 107.993 256.457 108.09 256.114 107.812C250.86 105.534 245.93 106.364 241.572 109.648L241.294 109.991C241.294 109.991 241.261 109.68 241.572 109.648C242.797 106.377 244.022 103.107 244.627 99.9013C244.595 99.5905 244.872 99.2473 245.182 99.2148C247.468 97.0903 249.754 94.9658 252.04 92.8413C253.493 91.7466 254.603 90.3735 256.056 89.2788C257.786 87.8408 258.864 86.1569 260.937 84.9973C258.636 83.9811 256.466 84.2083 254.36 85.057C251.324 86.0032 248.696 87.8493 246.818 90.8738C246.54 91.2171 246.573 91.5279 245.952 91.5928C246.215 88.1089 246.167 84.6574 245.777 80.9275C245.744 80.6167 245.712 80.3059 245.989 79.9626C246.822 78.9328 247.655 77.903 248.178 76.9056C250.333 73.5378 252.489 70.17 254.644 66.8022C255.967 64.4642 257.633 62.4046 258.613 59.7882C258.303 59.8206 258.303 59.8206 257.993 59.8531C257.715 60.1964 257.405 60.2288 257.063 59.9504C250.338 61.5967 247.252 65.0619 244.441 74.1543C243.463 70.8001 242.485 67.446 241.23 64.4351C241.165 63.8135 241.067 62.881 241.312 62.2269C242.195 58.6781 242.8 55.4725 243.683 51.9236C244.01 49.0613 244.338 46.199 245.285 43.2719Z" fill="#9B1558"/>
<path d="M258.613 59.7882C257.6 62.0938 255.967 64.4642 254.644 66.8022C252.489 70.17 250.333 73.5378 248.178 76.9056C247.345 77.9354 246.822 78.9328 245.989 79.9626C245.712 80.3059 245.744 80.6167 245.777 80.9275C255.7 79.8892 262.07 68.8533 259.298 60.345C258.988 60.3774 258.923 59.7558 258.613 59.7882Z" fill="#DC3579"/>
<path d="M232.02 78.2822C234.646 82.4066 237.305 86.8418 239.653 91.3095C240.468 93.1095 241.561 94.5663 242.687 96.3339C243.437 97.5123 244.057 97.4474 244.548 96.1392C245.283 94.1769 244.777 92.3444 244.55 90.1687C243.164 85.9145 241.223 82.3469 237.209 79.9388C235.529 78.8578 233.881 78.0875 232.02 78.2822Z" fill="#DC3579"/>
<path d="M257.027 109.083C254.269 109.686 251.885 110.878 249.159 111.792C246.123 112.738 243.12 113.995 240.116 115.252C239.219 115.66 238.631 116.035 237.766 116.754C240.817 118.949 244.325 119.525 247.949 118.203C252.193 116.816 255.409 114.594 256.814 110.048C257.059 109.394 257.059 109.394 257.027 109.083Z" fill="#DC3579"/>
<path d="M260.66 85.3404C258.897 86.4675 257.509 88.1839 255.778 89.6219C254.325 90.7166 253.182 91.7788 251.762 93.1844C249.476 95.3089 247.191 97.4334 244.905 99.5579C248.789 100.723 252.135 99.7441 255.351 97.5222C257.702 96.0194 259.335 93.6489 260.347 91.3434C261.05 89.0703 261.165 87.1729 260.66 85.3404Z" fill="#DC3579"/>
<path d="M245.285 43.2717C244.027 46.2314 244.01 49.0612 243.062 51.9884C242.18 55.5373 241.574 58.7429 240.692 62.2917C240.447 62.9458 240.544 63.8783 240.609 64.4999C243.923 63.2105 245.834 60.4968 246.749 57.2588C248.464 52.6801 248.286 47.9853 245.35 43.8934C245.938 43.5177 245.628 43.5501 245.285 43.2717Z" fill="#DC3579"/>
<path d="M224.372 62.1141C225.71 62.9168 227.39 63.9978 228.728 64.8005C232.775 67.5194 236.789 69.9274 240.835 72.6463C241.178 72.9246 241.863 73.4814 242.451 73.1057C243.039 72.7299 242.631 71.8299 242.598 71.5191C242.468 70.2758 241.718 69.0974 241 68.2298C240.658 67.9515 240.315 67.6731 240.282 67.3623C237.624 62.9271 230.444 60.2219 225.58 61.6735C225.237 61.3951 224.927 61.4276 224.372 62.1141Z" fill="#DC3579"/>
<path d="M220.675 41.7619C223.856 45.1998 227.315 48.2944 230.774 51.3889C231.491 52.2565 232.177 52.8133 233.204 53.6484C233.89 54.2051 234.167 53.8619 234.445 53.5186C233.957 48.8563 232.016 45.2886 227.725 43.2239C225.701 41.8644 223.433 41.1591 220.675 41.7619Z" fill="#DC3579"/>
<path d="M232.861 98.3044C232.093 99.9558 233.186 101.413 233.349 102.967C234.081 106.975 235.092 110.64 235.825 114.648C235.857 114.959 235.612 115.613 236.233 115.548C236.853 115.483 236.82 115.173 236.755 114.551C237.278 113.554 238.111 112.524 238.291 111.248C239.108 107.077 238.375 103.069 235.227 99.9422C234.884 99.6638 234.166 98.7962 232.861 98.3044Z" fill="#DC3579"/>
<path d="M243.616 125.486C243.24 124.896 242.62 124.961 242 125.026C238.279 125.415 234.557 125.805 230.526 126.227C229.906 126.292 229.286 126.356 229.041 127.011C232.907 131.005 239.484 130.945 242.783 126.515C243.403 126.45 243.681 126.107 243.616 125.486Z" fill="#DC3579"/>
<path d="M227.044 114.624C227.615 117.078 227.255 119.63 227.172 121.838C226.992 123.114 226.812 124.39 226.942 125.633C226.975 125.944 227.007 126.255 227.35 126.533C227.693 126.811 227.97 126.468 228.248 126.125C228.803 125.438 229.391 125.063 229.946 124.376C230.648 122.103 231.041 119.862 230.193 117.751C229.753 116.54 229.003 115.362 227.975 114.527C227.665 114.559 227.632 114.249 227.044 114.624Z" fill="#DC3579"/>
<path d="M257.062 59.9502C257.405 60.2286 257.715 60.1961 257.993 59.8528C257.683 59.8853 257.373 59.9177 257.062 59.9502Z" fill="#DC3579"/>
<path d="M241.261 109.68C240.951 109.713 240.984 110.024 240.984 110.024C241.326 110.302 241.326 110.302 241.261 109.68C241.604 109.959 241.294 109.991 241.261 109.68Z" fill="#DC3579"/>
<path d="M175.521 175.759L171.538 204.735L181.098 196.436L187.971 207.68L192.046 178.03L175.521 175.759Z" fill="#204F01"/>
<path d="M193.621 176.368L208.647 201.462L210.566 189.213L222.619 193.888L207.244 168.211L193.621 176.368Z" fill="#204F01"/>
<path d="M192.06 182.584C202.126 181.543 209.44 172.52 208.396 162.431C207.352 152.342 198.346 145.007 188.28 146.049C178.215 147.09 170.901 156.113 171.945 166.202C172.988 176.291 181.995 183.626 192.06 182.584Z" fill="#AFE868" stroke="#204F01" stroke-width="2" stroke-miterlimit="10"/>
<path d="M191.57 177.848C198.654 177.116 203.801 170.766 203.066 163.666C202.331 156.567 195.994 151.405 188.91 152.138C181.827 152.871 176.68 159.221 177.415 166.32C178.149 173.42 184.487 178.581 191.57 177.848Z" fill="#AFE868" stroke="#204F01" stroke-width="2" stroke-miterlimit="10"/>
</svg>
