<svg width="389" height="297" viewBox="0 0 389 297" fill="none" xmlns="http://www.w3.org/2000/svg">
<path d="M301.521 286.823C264.968 301.735 216.391 297.031 196.672 292.814C149.538 288.648 81.7234 259.527 54.3088 238.889C26.8942 218.251 12.4898 185.885 26.4133 170.318C37.1318 158.335 54.3088 151.677 90.8616 149.347C144.025 145.958 215.91 164.659 243.806 166.989C271.701 169.32 370.779 169.32 382.803 182.634C394.827 195.949 388.574 213.591 370.779 230.235C352.983 246.878 347.212 268.182 301.521 286.823Z" fill="#F2F9E5"/>
<path d="M318.136 98.3924C320.245 95.8785 321.704 92.8781 321.461 89.3911C320.731 79.4979 307.026 81.6874 304.35 86.634C301.674 91.5806 301.998 104.231 305.486 105.123C306.864 105.447 309.784 104.637 312.784 102.771L310.919 116.071H322.029L318.136 98.3924Z" fill="#307205"/>
<path d="M303.296 88.9046C303.377 88.2559 303.702 87.5261 303.864 86.9584C304.107 86.1475 304.594 85.4987 304.999 84.7689C305.891 83.4714 306.945 82.3361 308.081 81.4441C310.189 79.7412 312.865 78.687 315.541 79.0113C316.839 79.1735 318.136 79.6601 319.272 80.5521C320.245 81.2819 321.218 82.4172 322.516 82.4983C323.894 82.5794 325.192 81.363 326.327 80.5521C327.624 79.6601 328.922 79.0924 330.463 78.8492C332.977 78.4437 335.328 79.2546 337.031 81.2819C338.897 83.4714 340.194 86.634 338.978 89.5533C338.734 90.121 338.491 90.5265 338.086 90.9319C337.68 91.2563 337.113 91.6618 336.95 92.1483C336.788 92.716 337.275 93.4458 337.437 94.0134C337.68 94.7433 337.923 95.5542 337.842 96.3651C337.68 97.7437 336.869 98.9601 335.977 99.8521C335.085 100.744 333.95 101.231 332.733 101.474C331.922 101.636 331.112 101.717 330.301 101.636C329.895 101.636 329.571 101.474 329.165 101.393C328.76 101.312 328.598 101.393 328.273 101.636C326.814 102.609 325.192 103.015 323.489 102.852C322.029 102.771 320.326 102.366 319.191 101.393C317.893 100.258 317.893 98.7979 318.218 97.095C317.893 97.2571 317.001 97.3382 317.488 96.6895C317.731 96.4462 318.137 96.3651 318.38 96.2029C318.704 96.0407 319.029 95.7975 319.272 95.4731C320.245 94.3378 319.272 91.9861 317.974 91.5807C316.109 91.013 315.704 93.6891 314.325 94.3378C313.514 94.7433 312.784 94.1756 312.135 93.608C311.325 92.8781 310.838 91.905 310.351 90.8508C309.946 90.0399 309.622 89.229 309.216 88.4181C309.054 88.0126 308.405 86.9584 308.73 86.5529C307.351 86.3097 305.891 86.8773 304.756 87.6071C304.269 87.9315 303.945 88.2559 303.621 88.7424C303.539 88.8235 303.458 89.229 303.296 89.229C303.134 89.3912 303.215 89.0668 303.296 88.9046Z" fill="#47AA0A"/>
<path d="M339.221 170.565H306.134L301.755 223.761H351.061L339.221 170.565Z" fill="#DFFDAD"/>
<path d="M339.221 170.565H329.085L322.921 223.761H351.061L339.221 170.565Z" fill="#DFFDAD"/>
<path d="M268.344 161.482C264.776 159.374 258.856 162.05 258.856 165.131C258.856 174.214 267.128 216.949 267.615 219.707C268.02 222.383 272.642 223.112 272.967 219.707C273.372 214.273 274.183 195.541 273.372 186.783C273.048 183.215 272.724 179.809 272.318 176.728C276.697 184.594 283.347 195.784 292.511 210.462L297.457 208.191C293.565 195.379 290.402 186.378 287.888 181.107C283.671 172.105 279.617 164.402 277.995 161.644C275.4 157.428 270.777 158.887 268.344 161.482Z" fill="#F2F9E5"/>
<path d="M297.133 201.055L280.184 160.915C276.13 154.346 264.776 162.212 266.155 166.023C269.318 174.619 285.293 202.434 286.185 205.029L297.133 201.055Z" fill="#AFE868"/>
<path d="M298.047 205.611C299.119 206.511 299.77 207.168 300.1 207.733C300.459 208.408 300.977 209.457 301.474 210.867C300.647 211.326 293.719 215.379 280.548 222.945C278.966 221.469 278.71 220.291 279.809 219.521C280.909 218.752 281.787 218.042 282.514 217.431L289.761 207.476C289.882 207.265 290.174 207.246 290.385 207.368L291.878 208.511C293.267 208.376 294.264 208.109 294.94 207.75C295.504 207.421 296.161 206.77 296.839 205.757C297.042 205.406 297.626 205.368 298.047 205.611Z" fill="#AFE868"/>
<path d="M274.021 217.517C274.508 218.815 274.751 219.788 274.751 220.355C274.751 221.166 274.589 222.22 274.345 223.761C273.453 223.761 265.425 223.761 250.179 223.761C249.531 221.653 249.936 220.599 251.234 220.436C252.612 220.274 253.748 220.112 254.64 219.95L265.912 214.922C266.155 214.841 266.398 214.922 266.479 215.165L267.209 216.949C268.426 217.517 269.48 217.841 270.291 217.841C270.939 217.841 271.832 217.598 272.967 217.031C273.291 216.787 273.778 217.031 274.021 217.517C274.021 217.436 274.021 217.517 274.021 217.517Z" fill="#AFE868"/>
<path d="M257.721 168.213C257.721 179.566 263.154 206.164 263.154 208.678H274.832C273.129 184.999 272.561 172.997 273.048 172.754C273.777 172.349 303.539 175.755 312.459 175.755C325.353 175.755 330.624 167.645 331.03 152.643H305.566C300.376 153.211 273.372 158.644 263.316 160.509C258.856 161.239 257.721 165.05 257.721 168.213Z" fill="#AFE868"/>
<path d="M283.996 147.21L271.832 159.05C268.264 160.59 265.425 162.212 263.155 164.077C262.668 164.726 262.101 165.861 264.452 165.375C266.804 164.888 269.399 164.402 269.804 165.213C270.21 166.024 268.912 167.159 269.723 168.213C270.291 168.862 272.156 166.753 275.319 161.726L287.97 154.265L283.996 147.21ZM343.357 136.506H333.95C341.086 159.698 344.898 171.781 345.303 172.916C346.276 175.349 344.168 179.16 343.276 181.107C346.195 182.404 345.871 177.539 349.601 179.323C353.007 180.863 355.521 183.702 359.414 181.35C359.9 181.026 360.387 179.971 359.17 179.079C356.008 176.89 351.466 173.16 350.818 171.862C350.088 170.159 347.574 158.32 343.357 136.506Z" fill="#307205"/>
<path d="M314.731 109.827L311 109.178C305.162 129.856 275.157 143.885 273.292 151.589C272.643 154.427 274.67 155.887 273.616 156.698L278.401 160.266C279.211 159.293 280.995 161.077 284.564 159.861C288.132 158.644 314.731 134.316 314.731 109.827Z" fill="#9B1558"/>
<path d="M308.568 112.584C308.973 139.912 293.16 146.886 296.728 157.833C299.647 166.916 327.463 176.647 332.247 167.726C334.193 164.158 335.085 159.779 335.167 155.076C336.383 158.725 337.356 161.807 338.086 164.483C339.302 169.024 344.087 169.754 344.087 171.457L350.412 169.754C350.007 167.402 352.926 166.267 352.196 160.915C348.628 137.236 339.059 120.044 323.408 109.421L323.246 107.069C323.165 106.096 322.354 105.448 321.381 105.448L309.865 106.258C308.892 106.34 308.243 107.15 308.243 108.124L308.568 112.584Z" fill="#DC3579"/>
<path d="M302.648 94.5811C302.648 95.9596 300.863 97.176 300.945 98.5546C301.026 99.8521 302.729 100.095 303.54 100.501" fill="#307205"/>
<path d="M303.215 93.0404C303.377 92.716 303.62 92.5538 303.945 92.3916C304.188 92.2294 304.512 92.1484 304.837 92.0673C305.161 92.0673 305.486 92.0673 305.81 92.1484C306.134 92.2295 306.459 92.5538 306.459 92.8782C306.134 92.716 305.891 92.716 305.648 92.716C305.404 92.716 305.161 92.7971 304.918 92.7971C304.431 92.9593 303.864 93.0404 303.215 93.0404Z" fill="#204F01"/>
<path d="M303.621 102.69C304.107 102.366 304.432 102.204 304.837 102.041C305.242 101.879 305.648 101.717 306.216 101.636C306.053 102.204 305.648 102.528 305.161 102.771C304.675 102.933 304.107 103.015 303.621 102.69Z" fill="#204F01"/>
<path d="M303.945 94.8244C304.258 94.8244 304.512 94.5703 304.512 94.2567C304.512 93.9432 304.258 93.6891 303.945 93.6891C303.631 93.6891 303.377 93.9432 303.377 94.2567C303.377 94.5703 303.631 94.8244 303.945 94.8244Z" fill="#204F01"/>
<path d="M266.337 204.279H233.25L228.871 257.476H278.176L266.337 204.279Z" fill="#DFFDAD"/>
<path d="M266.337 204.279H256.119L250.037 257.476H278.176L266.337 204.279Z" fill="#DFFDAD"/>
<path d="M197.974 255.043C203.489 242.798 207.543 232.094 209.165 226.417C211.922 216.767 214.031 208.253 214.517 205.09C215.815 197.548 204.786 197.062 203.326 200.873C201.137 206.55 197.325 225.282 192.703 253.502L197.974 255.043ZM262.282 216.524C257.173 214.497 239.413 208.253 230.817 206.469C228.385 205.982 225.952 205.495 223.681 205.09C217.031 203.792 213.544 215.875 219.951 216.767C236.007 219.038 258.714 221.471 260.66 221.714C263.417 222.038 265.445 217.74 262.282 216.524Z" fill="#47AA0A"/>
<path d="M219.545 201.684L247.036 187.655V184.573H243.793C217.194 191.385 203.57 195.683 203.002 197.629V197.71C203.002 197.71 203.002 197.71 203.002 197.792C197.731 205.009 194.568 240.446 193.514 243.122L203.651 244.663C207.543 230.31 219.87 220.335 219.545 203.144C219.545 202.657 219.545 202.171 219.545 201.684Z" fill="#59C114"/>
<path d="M244.765 210.036C247.279 209.55 249.631 209.063 251.577 208.739C264.39 206.468 268.121 199.657 265.931 184.655H242.333C238.44 185.79 218.41 194.142 208.03 198.602C201.137 201.522 203.326 212.226 207.219 214.983C207.219 215.145 207.3 215.307 207.462 215.307C228.384 223.984 245.009 219.443 250.523 220.903L253.118 212.794L244.765 210.036Z" fill="#70CE33"/>
<path d="M260.522 215.198C261.935 215.321 262.84 215.511 263.454 215.844C264.175 216.214 265.112 216.839 266.337 217.686C265.93 218.516 262.376 225.843 255.639 239.594C253.467 239.21 252.641 238.441 253.089 237.139C253.537 235.838 253.91 234.754 254.209 233.886L254.657 221.487C254.624 221.233 254.88 221.018 255.096 221.093L257.054 221.221C258.15 220.325 258.847 219.534 259.217 218.812C259.477 218.234 259.667 217.33 259.68 216.06C259.539 215.588 259.978 215.193 260.522 215.198C260.449 215.234 260.449 215.234 260.522 215.198Z" fill="#307205"/>
<path d="M200.488 252.772C200.975 254.07 201.218 255.043 201.218 255.691C201.218 256.502 201.056 257.638 200.813 259.097C199.921 259.097 191.811 259.097 176.403 259.097C175.755 256.989 176.16 255.854 177.539 255.691C178.917 255.529 180.053 255.367 180.945 255.205L192.298 250.177C192.541 250.096 192.784 250.177 192.865 250.42L193.595 252.204C194.893 252.772 195.866 253.096 196.677 253.096C197.326 253.096 198.218 252.853 199.353 252.286C199.759 252.042 200.245 252.204 200.488 252.772C200.488 252.691 200.488 252.691 200.488 252.772Z" fill="#307205"/>
<path d="M253.038 132.107C255.065 129.755 256.363 126.917 256.12 123.673C255.471 114.429 242.577 116.456 240.063 121.159C237.549 125.863 237.873 137.702 241.117 138.513C242.415 138.837 245.172 138.026 247.929 136.323L246.226 148.731H256.606L253.038 132.107Z" fill="#47AA0A"/>
<path d="M255.308 116.05C255.308 116.05 255.227 116.05 255.308 116.05C254.254 115.726 253.281 115.483 252.227 115.483C252.146 115.483 252.065 115.483 252.065 115.402C251.983 115.402 251.821 115.402 251.74 115.402C251.092 115.402 247.361 115.564 245.983 115.807C244.117 116.132 240.549 117.753 240.063 118.97C239.495 120.267 239.819 121.808 242.171 121.646C244.523 124.484 248.01 126.43 248.415 126.511C248.415 126.511 249.956 124.403 251.416 125.295C253.119 126.349 252.794 128.214 251.902 129.674C251.416 130.404 250.686 131.62 251.902 132.431C253.849 133.81 258.714 130.728 259.606 128.133C260.904 123.673 259.444 117.997 255.308 116.05Z" fill="#9B1558"/>
<path d="M238.278 128.62C237.873 129.593 237.224 130.404 236.9 131.458C236.494 132.918 236.981 132.837 238.278 132.756C239.576 132.674 239.414 131.945 239.333 130.566C239.333 129.674 239.252 128.458 238.846 127.728C238.603 128.052 238.36 128.377 238.278 128.62Z" fill="#47AA0A"/>
<path d="M239.17 126.755C239.252 126.511 239.495 126.268 239.819 126.187C240.062 126.106 240.387 126.106 240.711 126.106C241.279 126.187 241.765 126.511 242.009 127.079C241.441 126.917 241.036 126.836 240.549 126.755C240.306 126.674 240.143 126.674 239.9 126.674C239.657 126.674 239.414 126.674 239.17 126.755Z" fill="#204F01"/>
<path d="M239.089 135.35C239.575 135.269 240.062 135.107 240.549 134.864C240.792 134.783 240.954 134.702 241.197 134.539C241.441 134.377 241.684 134.215 242.008 134.215H242.333V134.458C242.414 134.945 242.17 135.188 241.927 135.431C241.684 135.675 241.522 135.837 241.278 135.999C241.035 136.161 240.792 136.242 240.549 136.405C240.305 136.486 240.062 136.567 239.738 136.648C240.143 136.323 240.549 135.999 240.954 135.675C241.116 135.513 241.36 135.35 241.441 135.188C241.603 135.026 241.684 134.783 241.684 134.702L242.008 134.945C241.846 134.945 241.603 135.026 241.441 135.188C241.197 135.269 240.954 135.431 240.63 135.513C240.386 135.594 240.062 135.594 239.819 135.594C239.575 135.431 239.332 135.431 239.089 135.35Z" fill="#204F01"/>
<path d="M239.82 128.376C240.088 128.376 240.306 128.159 240.306 127.89C240.306 127.621 240.088 127.403 239.82 127.403C239.551 127.403 239.333 127.621 239.333 127.89C239.333 128.159 239.551 128.376 239.82 128.376Z" fill="#204F01"/>
<path d="M220.194 172.815L204.543 165.922C201.786 163.165 199.11 161.138 196.596 159.678C195.866 159.435 194.487 159.354 195.947 161.381C197.407 163.408 198.704 165.598 198.137 166.328C197.569 167.057 195.947 166.247 195.298 167.382C194.893 168.193 197.569 169.085 203.489 170.139L215.247 179.14L220.194 172.815ZM283.61 174.68L274.771 176.464C283.691 193.088 288.476 201.846 289.124 202.9C290.584 205.171 289.205 209.225 288.719 211.415C291.882 212.145 290.665 207.441 294.639 208.415C298.288 209.307 301.369 211.658 304.775 208.496C305.181 208.09 305.505 206.874 304.046 206.306C300.478 204.765 295.287 201.927 294.395 200.792C293.179 199.251 289.611 190.574 283.61 174.68Z" fill="#47AA0A"/>
<path d="M250.686 141.513L246.955 140.865C238.846 148.731 235.521 167.787 230.088 170.301C224.979 172.653 217.68 170.382 209.003 167.301L206.327 173.22C214.193 181.735 230.899 188.871 237.711 184.817C248.496 178.248 251.01 154.813 250.686 141.513Z" fill="#307205"/>
<path d="M266.985 188.547C251.983 188.547 240.954 188.547 233.899 188.547C232.358 188.547 232.682 186.357 232.926 185.222C235.439 172.491 245.333 158.786 245.333 140.702L254.902 139.243C262.687 151.893 265.363 167.544 266.985 188.547Z" fill="#DFFDAD"/>
<path d="M270.23 175.653C276.961 187.817 282.637 196.575 287.26 201.927L294.234 200.549C289.774 172.815 276.799 152.38 255.39 139.162H255.308H251.659C243.063 168.355 240.712 187.817 244.604 197.548H274.366C273.798 190.493 272.338 182.952 270.23 175.653Z" fill="#47AA0A"/>
<path d="M265.466 34.0474C265.466 45.3965 273.469 55.2906 285.692 61.5472C288.456 63.0022 286.71 71.5868 287.147 73.0419C287.729 74.4969 298.059 66.0578 299.806 66.4943C304.607 67.5128 309.7 68.0948 315.084 68.0948C342.584 68.0948 364.701 52.8171 364.701 34.0474C364.701 15.2777 342.438 0 315.084 0C287.729 0 265.466 15.1322 265.466 34.0474Z" fill="#F2F9E5"/>
<path d="M2.10254 131.232L65.3589 120.806L68.6005 92.8585L69.2138 77.0886L67.4616 45.1107L12.2656 46.8629L6.83364 50.3674L4.20526 59.9169L5.95752 76.3877L6.57081 92.3328L5.95752 105.212L4.64333 118.266L2.10254 131.232Z" fill="#47AA0A"/>
<path d="M65.3588 120.806L63.1685 120.281C63.1685 120.193 66.1473 107.928 66.9358 101.269C68.5128 88.3904 68.5128 73.7594 66.8482 55.4488V55.186C66.4101 50.3674 65.8845 44.9355 68.3376 40.2922C69.6518 37.7515 72.543 35.4736 75.5218 36.3497C78.7635 37.3134 80.1653 41.6063 81.0415 44.4975C81.1291 44.8479 81.2167 45.1108 81.3043 45.3736L79.2016 46.0745C79.1139 45.8116 79.0263 45.4612 78.9387 45.1108C78.1502 42.7453 77.0113 39.0656 74.9086 38.4523C73.1563 37.9267 71.3164 39.5037 70.3527 41.3435C68.25 45.286 68.688 50.1922 69.1261 54.9231V55.186C70.7907 73.6718 70.8784 88.3904 69.2138 101.532C68.3376 108.278 65.4464 120.281 65.3588 120.806Z" fill="#DFFDAD"/>
<path d="M9.8125 46.6877L12.0905 46.0745L73.5069 35.9993C73.5069 35.9993 78.7636 34.4223 81.2168 45.3736L17.9605 55.8869C17.9605 55.8869 16.6463 51.7692 16.3834 51.3311C15.6825 49.8417 14.6312 48.5276 13.317 47.5639C12.3533 46.7754 11.1267 46.863 9.8125 46.6877Z" fill="#DFFDAD"/>
<path d="M81.0996 44.6371L17.9771 55.454L18.1398 56.4038L81.2624 45.5869L81.0996 44.6371Z" fill="#59C114"/>
<path d="M7.53472 205.175C7.44711 205.175 7.4471 205.175 7.35949 205.175C6.30814 205.088 5.51962 204.124 5.60724 203.073L17.0845 64.0346C17.1721 62.9833 18.1358 62.1948 19.1872 62.2824C20.2385 62.37 21.0271 63.3337 20.9394 64.3851L9.46221 203.423C9.28699 204.387 8.49846 205.175 7.53472 205.175Z" fill="#59C114"/>
<path d="M6.57097 203.774C6.30813 203.774 6.0453 203.511 6.13291 203.248L17.6101 69.2037C17.6101 68.9408 17.873 68.7656 18.1358 68.7656C18.3986 68.7656 18.5739 69.0285 18.5739 69.2913L7.09663 203.336C7.09663 203.598 6.83381 203.774 6.57097 203.774Z" fill="#70CE33"/>
<path d="M39.338 237.591C38.2867 237.591 37.4981 236.803 37.4105 235.751L35.2202 148.842C35.2202 147.79 36.0088 146.914 37.0601 146.914C38.1115 146.914 38.9876 147.703 38.9876 148.754L41.1779 235.664C41.2655 236.715 40.477 237.591 39.338 237.591Z" fill="#59C114"/>
<path d="M38.6371 236.277C38.3743 236.277 38.199 236.102 38.199 235.839L35.8335 148.053C35.8335 147.79 36.0087 147.528 36.2716 147.528C36.5344 147.528 36.7973 147.703 36.7973 147.966L39.1628 235.751C39.0752 236.102 38.8999 236.277 38.6371 236.277Z" fill="#70CE33"/>
<path d="M102.332 217.879C101.455 217.879 100.579 217.266 100.492 216.302L86.4736 138.328C86.2984 137.277 86.9993 136.313 88.0507 136.138C89.102 135.963 90.0658 136.664 90.241 137.715L104.259 215.689C104.434 216.74 103.733 217.704 102.682 217.879C102.594 217.879 102.419 217.879 102.332 217.879Z" fill="#59C114"/>
<path d="M101.631 216.74C101.368 216.74 101.193 216.565 101.193 216.39L85.6854 129.918C85.5978 129.655 85.773 129.392 86.0358 129.392C86.2986 129.305 86.5615 129.48 86.5615 129.743L102.069 216.214C102.157 216.39 101.981 216.652 101.631 216.74C101.719 216.74 101.719 216.74 101.631 216.74Z" fill="#70CE33"/>
<path d="M18.1357 55.8869L31.3653 150.419L96.111 136.401L81.2168 45.0232L18.1357 55.8869Z" fill="#DFFDAD"/>
<path d="M18.0482 55.8869C17.3473 52.5577 15.6827 47.8267 12.2658 46.863C9.28694 45.9869 6.39571 48.2648 5.08152 50.8055C2.62837 55.3612 3.15403 60.7931 3.5921 65.6993V65.9621C5.25674 84.2727 5.34433 98.9037 3.67969 111.782C2.89117 118.441 0.0876126 130.093 0 130.181L2.01508 131.232C2.10269 130.706 4.99388 118.791 5.87 112.045C7.53464 98.9913 7.44705 84.2727 5.78241 65.6993V65.4364C5.34435 60.7055 4.90631 55.7993 7.00901 51.8568C7.97275 50.017 9.90018 48.44 11.5648 48.9657C16.4711 50.455 16.5588 60.7931 17.1721 65.1736C18.2234 72.6205 19.2748 80.0674 20.4137 87.5143C21.7279 96.6258 23.0421 105.737 24.3563 114.849C25.4953 122.734 26.6342 130.531 27.7732 138.416C28.2988 142.096 28.5617 144.198 29.0873 147.878L29.2626 149.543L31.3653 150.419C30.9272 147.352 30.4892 144.374 30.0511 141.307C28.9998 134.036 28.036 126.676 26.9847 119.405C25.7581 110.468 24.4439 101.532 23.2173 92.5957C22.0784 84.7108 21.027 76.8258 19.888 68.9409C19.2747 64.7356 18.9243 60.5303 18.1358 56.3249C18.1358 56.2373 18.1358 56.0621 18.0482 55.8869Z" fill="#59C114"/>
<path d="M258.327 64.3454C258.327 83.4499 235.794 98.9033 207.922 98.9033C190.547 98.9033 175.254 92.8747 166.204 83.7046C164.394 81.9215 147.11 81.3272 149.101 79.8837C152.449 77.5912 159.236 73.6005 158.603 71.3079C157.969 69.1003 157.607 66.7229 157.607 64.3454C157.607 45.241 180.14 29.7876 208.013 29.7876C235.885 29.7876 258.327 45.3259 258.327 64.3454Z" fill="#F2F9E5"/>
<path d="M114.541 129.691L130.698 186.579L142.501 228.567H151.209L138.631 129.691H114.541Z" fill="#9B1558"/>
<path d="M110.187 129.691C109.8 159.005 108.542 174.969 108.155 177.678C107.768 180.387 101.77 197.318 90.2563 228.567H99.1574C113.863 198.575 121.99 181.644 123.732 177.678C125.473 173.711 130.698 157.748 138.631 129.691H110.187Z" fill="#DC3579"/>
<path d="M89.4824 236.597L89.9662 227.213H99.3509C103.801 230.309 109.606 232.921 116.766 234.856V236.597H99.7379L93.9329 235.726V236.597H89.4824Z" fill="#47AA0A"/>
<path d="M141.341 236.597L141.825 227.213H151.209C155.66 230.309 161.465 232.921 168.624 234.856V236.597H151.596L145.791 235.726V236.597H141.341Z" fill="#47AA0A"/>
<path d="M122.765 77.2531C120.734 74.8344 119.282 71.8352 119.573 68.5458C120.25 58.9678 133.601 61.0962 136.117 65.9336C138.729 70.771 138.439 83.058 135.053 83.832C133.698 84.219 130.892 83.3482 127.99 81.6068L129.828 94.4743H119.089L122.765 77.2531Z" fill="#47AA0A"/>
<path d="M124.894 61.7736C130.312 59.9354 137.278 62.0638 136.311 66.5142C135.73 69.3199 132.441 70.7711 129.248 72.2223C128.764 71.4484 127.893 70.8679 126.829 70.8679C125.281 70.8679 124.12 72.0288 124.12 73.5768C124.12 74.1573 124.313 74.641 124.604 75.028C123.539 75.9955 122.766 77.0597 122.572 78.511C120.831 78.511 118.025 73.3833 118.992 68.5459C118.702 68.5459 118.509 68.5459 118.218 68.5459C114.542 68.5459 111.542 65.5467 111.542 61.8703C111.542 58.1939 114.542 55.1947 118.218 55.1947C121.895 55.1947 124.797 58.0971 124.894 61.7736Z" fill="#204F01"/>
<path d="M137.665 74.0605C137.858 75.8988 139.503 77.1565 139.6 78.9947C138.729 79.2849 137.761 79.0914 136.794 79.0914" fill="#47AA0A"/>
<path d="M134.376 73.3831C134.085 73.5766 133.892 73.9636 133.989 74.3506C134.279 74.4473 134.472 74.544 134.763 74.4473C134.859 74.2538 134.859 73.7701 134.763 73.4798C134.569 73.3831 134.279 73.1896 134.182 73.1896" fill="#204F01"/>
<path d="M137.181 80.4458C136.601 80.5425 136.02 80.5425 135.44 80.4458C134.859 80.4458 134.279 80.349 133.698 80.4458L133.892 80.1555C133.892 80.2523 134.085 80.4457 134.279 80.6392C134.472 80.8327 134.763 80.9295 134.956 81.0262C135.44 81.3165 135.924 81.51 136.407 81.897C135.924 81.7035 135.343 81.6067 134.859 81.4132C134.569 81.3165 134.376 81.2197 134.085 81.0262C133.892 80.8327 133.505 80.6392 133.505 80.2522V80.0587H133.795C134.376 79.962 135.053 80.0588 135.537 80.1555L137.181 80.4458Z" fill="#204F01"/>
<path d="M133.118 72.4156C133.408 72.2222 133.699 72.0287 134.086 71.9319C134.279 71.9319 134.473 71.8352 134.666 71.9319C134.86 71.9319 135.053 72.0287 135.15 72.2222C134.763 72.2222 134.473 72.3189 134.182 72.4156C133.892 72.5124 133.505 72.6091 133.118 72.4156Z" fill="#204F01"/>
<path d="M157.886 118.758L172.205 113.437C176.365 108.89 178.687 107.052 179.171 107.826C179.848 108.987 178.3 109.954 178.59 110.922C178.88 111.792 181.589 111.792 184.105 111.696C186.62 111.599 185.846 112.663 185.266 113.244C182.654 114.695 179.364 115.856 175.397 116.726L160.788 126.691L157.886 118.758ZM97.6104 126.208H106.995C101.19 144.88 98.0941 154.748 97.6104 155.813C96.5461 158.425 98.7714 162.295 99.7389 164.423C96.6429 165.778 97.0299 160.747 93.1599 162.488C89.6768 164.133 86.9679 167.035 82.9044 164.617C82.4206 164.326 81.8401 163.165 83.1946 162.198C86.4841 159.973 91.2249 156.006 91.9021 154.652C92.7729 153.007 94.7079 143.429 97.6104 126.208Z" fill="#47AA0A"/>
<path d="M126.442 86.7344L130.312 86.0571C138.729 94.184 142.212 113.824 147.824 116.436C153.145 118.855 160.691 116.533 169.592 113.34L172.301 119.435C164.174 128.239 146.856 135.689 139.89 131.432C128.667 124.66 126.055 100.473 126.442 86.7344Z" fill="#307205"/>
<path d="M107.382 135.592H141.825C133.891 116.243 129.828 99.6986 129.828 86.1539L119.476 84.606C111.252 97.6669 108.93 113.921 107.382 135.592Z" fill="#DFFDAD"/>
<path d="M119.186 84.606H119.863C120.637 84.606 121.895 84.7027 123.54 84.7995L126.055 91.9588C126.346 100.666 127.894 118.371 130.699 144.88H108.156C108.253 146.718 108.35 148.556 108.447 150.395H91.709C94.2245 122.047 103.416 100.086 119.186 84.606Z" fill="#47AA0A"/>
<path d="M109.704 121.37C110.382 132.786 111.93 140.623 114.542 144.977H108.253C107.963 136.753 108.447 128.917 109.704 121.37Z" fill="#307205"/>
<path d="M113.187 131.142L124.313 125.917V131.142H113.187Z" fill="#F2F9E5"/>
</svg>
