<svg width="356" height="250" viewBox="0 0 356 250" fill="none" xmlns="http://www.w3.org/2000/svg">
<path d="M334.274 225.771C343.053 221.38 347.726 216.336 350.522 211.331C361.233 193.059 349.582 174.038 318.735 158.94C287.888 143.841 238.018 132.714 181.122 128.311C129.694 124.321 65.4406 127.121 32.6327 140.956C-6.7709 157.557 17.7407 179.786 9.112 199.752C5.3651 208.302 -4.50832 217.558 7.75672 224.988C15.8762 229.925 32.1444 232.958 48.3997 235.359C124.372 246.631 275.517 255.192 334.274 225.771Z" fill="#F2F9E5"/>
<path d="M299.623 102.278C301.224 100.37 302.333 98.0917 302.148 95.4442C301.594 87.9326 291.188 89.595 289.156 93.3508C287.125 97.1066 287.371 106.712 290.018 107.389C291.065 107.635 293.282 107.019 295.56 105.603L294.144 115.701H302.579L299.623 102.278Z" fill="#AFE868"/>
<path d="M288.356 95.0747C288.418 94.5821 288.664 94.028 288.787 93.597C288.972 92.9813 289.341 92.4888 289.649 91.9346C290.326 90.9495 291.127 90.0875 291.989 89.4102C293.59 88.1173 295.622 87.3168 297.653 87.5631C298.638 87.6863 299.624 88.0557 300.486 88.733C301.224 89.2871 301.963 90.1491 302.948 90.2107C303.995 90.2722 304.98 89.3487 305.842 88.733C306.827 88.0557 307.812 87.6247 308.982 87.44C310.891 87.1321 312.677 87.7479 313.969 89.2871C315.386 90.9495 316.371 93.3507 315.447 95.5673C315.262 95.9983 315.078 96.3061 314.77 96.614C314.462 96.8603 314.031 97.1681 313.908 97.5375C313.785 97.9685 314.154 98.5226 314.277 98.9536C314.462 99.5078 314.647 100.123 314.585 100.739C314.462 101.786 313.846 102.709 313.169 103.387C312.492 104.064 311.63 104.433 310.706 104.618C310.091 104.741 309.475 104.803 308.859 104.741C308.551 104.741 308.305 104.618 307.997 104.557C307.689 104.495 307.566 104.557 307.32 104.741C306.212 105.48 304.98 105.788 303.687 105.665C302.579 105.603 301.286 105.295 300.424 104.557C299.439 103.695 299.439 102.586 299.685 101.293C299.439 101.416 298.762 101.478 299.131 100.985C299.316 100.801 299.624 100.739 299.808 100.616C300.055 100.493 300.301 100.308 300.486 100.062C301.224 99.1999 300.486 97.4144 299.5 97.1065C298.084 96.6755 297.776 98.7073 296.73 99.1999C296.114 99.5078 295.56 99.0768 295.067 98.6458C294.452 98.0916 294.082 97.3528 293.713 96.5524C293.405 95.9367 293.159 95.321 292.851 94.7053C292.728 94.3974 292.235 93.597 292.481 93.2892C291.435 93.1045 290.326 93.5355 289.464 94.0896C289.095 94.3359 288.849 94.5821 288.602 94.9516C288.541 95.0131 288.479 95.321 288.356 95.321C288.233 95.4441 288.295 95.1979 288.356 95.0747Z" fill="#307205"/>
<path d="M315.631 157.076H290.511L287.186 197.466H324.621L315.631 157.076Z" fill="#AFE868"/>
<path d="M315.631 157.076H307.935L303.256 197.466H324.621L315.631 157.076Z" fill="#DFFDAD"/>
<path d="M261.819 150.18C259.11 148.579 254.616 150.611 254.616 152.951C254.616 159.847 260.896 192.294 261.265 194.388C261.573 196.42 265.083 196.974 265.329 194.388C265.637 190.263 266.253 176.04 265.637 169.39C265.391 166.681 265.144 164.095 264.836 161.755C268.161 167.728 273.21 176.225 280.167 187.369L283.923 185.645C280.968 175.917 278.567 169.082 276.658 165.08C273.456 158.246 270.378 152.397 269.146 150.303C267.176 147.102 263.667 148.21 261.819 150.18Z" fill="#AFE868"/>
<path d="M283.677 180.226L270.809 149.749C267.73 144.762 259.11 150.734 260.157 153.628C262.558 160.154 274.687 181.273 275.365 183.243L283.677 180.226Z" fill="#70CE33"/>
<path d="M284.371 183.686C285.185 184.369 285.679 184.868 285.929 185.297C286.202 185.809 286.595 186.605 286.972 187.676C286.345 188.025 281.084 191.102 271.085 196.846C269.883 195.726 269.689 194.831 270.524 194.247C271.359 193.663 272.026 193.124 272.577 192.66L278.079 185.101C278.171 184.941 278.393 184.927 278.553 185.019L279.687 185.887C280.741 185.785 281.498 185.582 282.011 185.31C282.44 185.06 282.939 184.565 283.454 183.796C283.608 183.53 284.051 183.501 284.371 183.686Z" fill="#70CE33"/>
<path d="M266.129 192.725C266.499 193.71 266.683 194.449 266.683 194.88C266.683 195.496 266.56 196.296 266.375 197.466C265.698 197.466 259.603 197.466 248.027 197.466C247.535 195.865 247.843 195.065 248.828 194.942C249.875 194.819 250.737 194.696 251.414 194.572L259.972 190.755C260.157 190.693 260.342 190.755 260.403 190.94L260.957 192.294C261.881 192.725 262.681 192.972 263.297 192.972C263.789 192.972 264.467 192.787 265.329 192.356C265.575 192.171 265.944 192.356 266.129 192.725C266.129 192.664 266.129 192.725 266.129 192.725Z" fill="#70CE33"/>
<path d="M253.753 155.29C253.753 163.91 257.879 184.105 257.879 186.014H266.745C265.452 168.036 265.021 158.923 265.39 158.738C265.944 158.431 288.541 161.017 295.313 161.017C305.103 161.017 309.105 154.859 309.413 143.469H290.08C286.139 143.9 265.636 148.025 258.002 149.441C254.615 149.995 253.753 152.889 253.753 155.29Z" fill="#204F01"/>
<path d="M273.702 139.344L264.467 148.333C261.758 149.503 259.603 150.734 257.879 152.15C257.509 152.643 257.078 153.505 258.864 153.136C260.65 152.766 262.62 152.397 262.928 153.012C263.235 153.628 262.25 154.49 262.866 155.291C263.297 155.783 264.713 154.182 267.114 150.365L276.719 144.7L273.702 139.344ZM318.772 131.217H311.63C317.048 148.826 319.942 158 320.25 158.862C320.988 160.709 319.388 163.603 318.71 165.08C320.927 166.065 320.681 162.371 323.513 163.726C326.099 164.896 328.007 167.05 330.963 165.265C331.332 165.019 331.702 164.218 330.778 163.541C328.377 161.879 324.929 159.046 324.436 158.061C323.882 156.768 321.974 147.779 318.772 131.217Z" fill="#AFE868"/>
<path d="M297.037 110.96L294.205 110.467C289.772 126.168 266.991 136.819 265.575 142.669C265.082 144.823 266.622 145.932 265.821 146.547L269.454 149.257C270.07 148.518 271.424 149.872 274.133 148.949C276.842 148.025 297.037 129.554 297.037 110.96Z" fill="#59C114"/>
<path d="M292.358 113.053C292.666 133.802 280.66 139.097 283.369 147.409C285.586 154.305 306.704 161.694 310.337 154.921C311.815 152.212 312.492 148.887 312.553 145.316C313.477 148.087 314.216 150.426 314.77 152.458C315.693 155.906 319.326 156.46 319.326 157.753L324.129 156.46C323.821 154.675 326.037 153.813 325.483 149.749C322.774 131.771 315.509 118.718 303.626 110.652L303.503 108.866C303.441 108.128 302.825 107.635 302.086 107.635L293.344 108.251C292.605 108.312 292.112 108.928 292.112 109.667L292.358 113.053Z" fill="#70CE33"/>
<path d="M287.863 99.3845C287.863 100.431 286.509 101.355 286.57 102.401C286.632 103.387 287.925 103.571 288.541 103.879" fill="#AFE868"/>
<path d="M288.294 98.2149C288.418 97.9686 288.602 97.8455 288.849 97.7224C289.033 97.5992 289.28 97.5376 289.526 97.4761C289.772 97.4761 290.018 97.4761 290.265 97.5376C290.511 97.5992 290.757 97.8455 290.757 98.0918C290.511 97.9686 290.326 97.9686 290.142 97.9686C289.957 97.9686 289.772 98.0302 289.587 98.0302C289.218 98.1533 288.787 98.2149 288.294 98.2149Z" fill="#307205"/>
<path d="M288.602 105.542C288.971 105.295 289.218 105.172 289.526 105.049C289.833 104.926 290.141 104.803 290.572 104.741C290.449 105.172 290.141 105.418 289.772 105.603C289.402 105.726 288.971 105.788 288.602 105.542Z" fill="#307205"/>
<path d="M288.848 99.5693C289.086 99.5693 289.279 99.3763 289.279 99.1383C289.279 98.9002 289.086 98.7073 288.848 98.7073C288.61 98.7073 288.417 98.9002 288.417 99.1383C288.417 99.3763 288.61 99.5693 288.848 99.5693Z" fill="#307205"/>
<path d="M146.452 153.182C145.59 153.182 144.913 154.475 144.913 156.075C144.913 156.26 144.913 156.506 144.913 156.691C144.913 157.245 144.913 157.861 144.913 158.415C144.913 159.339 144.913 160.262 144.913 161.124C144.913 162.294 144.913 163.464 144.913 164.695C144.913 166.111 144.913 167.528 144.913 168.944C144.913 170.544 144.913 172.145 144.913 173.685C144.913 175.409 144.913 177.132 144.913 178.856C144.913 180.642 144.913 182.428 144.913 184.213C144.913 185.999 144.913 187.846 144.913 189.631C144.913 191.417 144.913 193.202 144.913 194.988C144.913 196.712 144.913 198.436 144.913 200.16C144.913 201.761 144.913 203.361 144.913 204.962C144.913 206.378 144.913 207.794 144.913 209.211C144.913 210.38 144.913 211.612 144.913 212.782C144.913 213.705 144.913 214.629 144.913 215.552C144.913 216.168 144.913 216.722 144.913 217.338C144.913 217.707 144.913 218.077 144.913 218.446C144.913 218.877 145.282 219.062 145.467 219.123C145.775 219.308 146.144 219.37 146.452 219.37C146.76 219.37 147.006 219.308 147.314 219.185C147.499 219.123 147.868 219 147.93 218.631C147.93 218.569 147.93 218.508 147.991 218.446C148.053 218.077 147.991 217.646 147.991 217.276C147.991 216.722 147.991 216.106 147.991 215.552C147.991 214.69 147.991 213.767 147.991 212.905C147.991 211.735 147.991 210.627 147.991 209.457C147.991 208.102 147.991 206.748 147.991 205.393C147.991 203.854 147.991 202.376 147.991 200.837C147.991 199.175 147.991 197.574 147.991 195.911C147.991 194.187 147.991 192.463 147.991 190.74C147.991 189.016 147.991 187.23 147.991 185.506C147.991 183.782 147.991 181.997 147.991 180.273C147.991 178.61 147.991 176.886 147.991 175.224C147.991 173.623 147.991 172.084 147.991 170.483C147.991 169.067 147.991 167.651 147.991 166.173C147.991 164.942 147.991 163.71 147.991 162.479C147.991 161.494 147.991 160.508 147.991 159.462C147.991 158.723 147.991 158.046 147.991 157.307C147.991 156.937 147.991 156.568 147.991 156.137C147.991 156.075 147.991 156.014 147.991 155.952C147.991 154.475 147.314 153.182 146.452 153.182Z" fill="#47AA0A"/>
<path d="M195.831 143.638C194.969 143.638 194.292 144.931 194.292 146.532C194.292 146.717 194.292 146.963 194.292 147.148C194.292 147.702 194.292 148.318 194.292 148.872C194.292 149.795 194.292 150.719 194.292 151.581C194.292 152.751 194.292 153.921 194.292 155.152C194.292 156.568 194.292 157.984 194.292 159.4C194.292 161.001 194.292 162.602 194.292 164.141C194.292 165.865 194.292 167.589 194.292 169.313C194.292 171.099 194.292 172.884 194.292 174.67C194.292 176.455 194.292 178.302 194.292 180.088C194.292 181.874 194.292 183.659 194.292 185.445C194.292 187.169 194.292 188.893 194.292 190.617C194.292 192.217 194.292 193.818 194.292 195.419C194.292 196.835 194.292 198.251 194.292 199.667C194.292 200.837 194.292 202.069 194.292 203.238C194.292 204.162 194.292 205.086 194.292 206.009C194.292 206.625 194.292 207.179 194.292 207.795C194.292 208.164 194.292 208.534 194.292 208.903C194.292 209.334 194.661 209.519 194.846 209.58C195.154 209.765 195.523 209.826 195.831 209.826C196.139 209.826 196.385 209.765 196.693 209.642C196.877 209.58 197.247 209.457 197.308 209.088C197.308 209.026 197.308 208.965 197.37 208.903C197.432 208.534 197.37 208.103 197.37 207.733C197.37 207.179 197.37 206.563 197.37 206.009C197.37 205.147 197.37 204.224 197.37 203.362C197.37 202.192 197.37 201.084 197.37 199.914C197.37 198.559 197.37 197.205 197.37 195.85C197.37 194.311 197.37 192.833 197.37 191.294C197.37 189.631 197.37 188.031 197.37 186.368C197.37 184.644 197.37 182.92 197.37 181.196C197.37 179.472 197.37 177.687 197.37 175.963C197.37 174.239 197.37 172.453 197.37 170.729C197.37 169.067 197.37 167.343 197.37 165.681C197.37 164.08 197.37 162.541 197.37 160.94C197.37 159.524 197.37 158.107 197.37 156.63C197.37 155.398 197.37 154.167 197.37 152.936C197.37 151.95 197.37 150.965 197.37 149.919C197.37 149.18 197.37 148.502 197.37 147.764C197.37 147.394 197.37 147.025 197.37 146.594C197.37 146.532 197.37 146.471 197.37 146.409C197.37 144.931 196.631 143.638 195.831 143.638Z" fill="#47AA0A"/>
<path d="M244.533 152.812C243.671 152.812 242.994 154.105 242.994 155.644C242.994 155.829 242.994 156.075 242.994 156.26C242.994 156.814 242.994 157.43 242.994 157.984C242.994 158.908 242.994 159.77 242.994 160.693C242.994 161.863 242.994 163.033 242.994 164.264C242.994 165.68 242.994 167.097 242.994 168.513C242.994 170.114 242.994 171.653 242.994 173.254C242.994 174.978 242.994 176.64 242.994 178.364C242.994 180.149 242.994 181.935 242.994 183.721C242.994 185.506 242.994 187.353 242.994 189.139C242.994 190.924 242.994 192.71 242.994 194.495C242.994 196.219 242.994 197.943 242.994 199.606C242.994 201.207 242.994 202.807 242.994 204.347C242.994 205.763 242.994 207.179 242.994 208.595C242.994 209.765 242.994 210.996 242.994 212.166C242.994 213.09 242.994 214.013 242.994 214.937C242.994 215.552 242.994 216.107 242.994 216.722C242.994 217.092 242.994 217.461 242.994 217.83C242.994 218.261 243.363 218.446 243.548 218.508C243.856 218.692 244.225 218.754 244.533 218.754C244.841 218.754 245.087 218.692 245.395 218.569C245.58 218.508 245.949 218.385 246.011 218.015C246.011 217.954 246.011 217.892 246.072 217.83C246.134 217.461 246.072 217.03 246.072 216.661C246.072 216.107 246.072 215.491 246.072 214.937C246.072 214.075 246.072 213.151 246.072 212.289C246.072 211.181 246.072 210.011 246.072 208.903C246.072 207.548 246.072 206.194 246.072 204.839C246.072 203.3 246.072 201.822 246.072 200.283C246.072 198.621 246.072 197.02 246.072 195.357C246.072 193.633 246.072 191.909 246.072 190.185C246.072 188.461 246.072 186.676 246.072 184.952C246.072 183.228 246.072 181.504 246.072 179.718C246.072 178.056 246.072 176.394 246.072 174.67C246.072 173.069 246.072 171.53 246.072 169.929C246.072 168.513 246.072 167.097 246.072 165.68C246.072 164.449 246.072 163.218 246.072 161.986C246.072 161.001 246.072 160.016 246.072 159.031C246.072 158.292 246.072 157.615 246.072 156.876C246.072 156.506 246.072 156.137 246.072 155.706C246.072 155.644 246.072 155.583 246.072 155.521C246.072 154.105 245.395 152.812 244.533 152.812Z" fill="#47AA0A"/>
<path d="M251.49 149.18C251.49 155.768 226.431 161.063 195.523 161.063C164.615 161.063 139.556 155.706 139.556 149.18V150.657C139.556 157.245 164.553 162.54 195.461 162.54C226.37 162.54 250.628 157.492 251.614 151.027L251.49 149.18Z" fill="#47AA0A"/>
<path d="M195.4 161.124C226.31 161.124 251.367 155.804 251.367 149.241C251.367 142.678 226.31 137.358 195.4 137.358C164.49 137.358 139.433 142.678 139.433 149.241C139.433 155.804 164.49 161.124 195.4 161.124Z" fill="#AFE868"/>
<path d="M186.838 128.131C182.22 128.131 178.526 129.116 178.526 130.347C178.526 131.579 182.282 132.564 186.838 132.564C191.394 132.564 195.15 131.579 195.15 130.347C195.15 129.116 191.456 128.131 186.838 128.131Z" fill="#70CE33"/>
<path d="M186.838 128.377C189.054 128.377 191.148 128.623 192.687 128.993C193.426 129.177 194.042 129.424 194.411 129.67C194.657 129.855 194.965 130.101 194.965 130.347C194.965 130.593 194.657 130.84 194.411 131.024C194.042 131.271 193.426 131.517 192.687 131.702C191.148 132.133 189.054 132.317 186.838 132.317C184.621 132.317 182.528 132.071 180.989 131.702C180.25 131.517 179.634 131.271 179.265 131.024C179.018 130.84 178.711 130.593 178.711 130.347C178.711 130.101 179.018 129.855 179.265 129.67C179.634 129.424 180.25 129.177 180.989 128.993C182.528 128.562 184.621 128.377 186.838 128.377ZM186.838 128.131C182.22 128.131 178.526 129.116 178.526 130.347C178.526 131.579 182.282 132.564 186.838 132.564C191.394 132.564 195.15 131.579 195.15 130.347C195.15 129.116 191.456 128.131 186.838 128.131Z" fill="#AFE868"/>
<path d="M178.033 120.258C178.131 120.231 178.197 120.157 178.179 120.091C178.162 120.025 178.067 119.993 177.969 120.02C177.87 120.046 177.805 120.121 177.822 120.187C177.84 120.252 177.934 120.284 178.033 120.258Z" fill="#204F01"/>
<path d="M179.771 124.479L178.522 124.814L183.316 142.652L184.564 142.316L179.771 124.479Z" fill="#307205"/>
<path d="M179.291 125.137L178.815 125.265L183.497 142.686L183.972 142.559L179.291 125.137Z" fill="#307205"/>
<path d="M184.251 143.708C184.313 143.708 184.375 143.708 184.375 143.769L184.621 144.693C184.621 144.754 184.621 144.816 184.559 144.816C184.498 144.816 184.436 144.816 184.436 144.754L184.19 143.831C184.19 143.769 184.19 143.708 184.251 143.708Z" fill="#DFFDAD"/>
<path d="M183.328 142.661L184.252 144.508L184.683 144.385L184.56 142.292L183.328 142.661Z" fill="#204F01"/>
<path d="M178.464 125.36L177.972 123.266C177.972 123.266 177.602 120.619 177.664 120.25C177.664 119.88 178.095 119.88 178.218 119.88C178.341 119.88 179.511 122.589 179.511 122.712C179.511 122.835 180.126 124.806 180.126 124.806C180.126 124.806 181.112 127.823 181.05 128.007C180.988 128.192 180.988 128.192 180.865 128.192C180.804 128.192 180.681 128.131 180.619 127.946C180.557 127.823 179.819 125.237 179.757 125.175C179.757 125.114 179.388 125.36 179.018 125.36C178.834 125.545 178.464 125.36 178.464 125.36Z" fill="#204F01"/>
<path d="M190.532 118.772C190.634 118.772 190.717 118.717 190.717 118.649C190.717 118.581 190.634 118.526 190.532 118.526C190.43 118.526 190.347 118.581 190.347 118.649C190.347 118.717 190.43 118.772 190.532 118.772Z" fill="#204F01"/>
<path d="M191.147 123.328H189.854V141.799H191.147V123.328Z" fill="#47AA0A"/>
<path d="M190.532 123.759H190.04V141.799H190.532V123.759Z" fill="#307205"/>
<path d="M190.47 143.031C190.532 143.031 190.593 143.092 190.593 143.154V144.139C190.593 144.2 190.532 144.262 190.47 144.262C190.409 144.262 190.347 144.2 190.347 144.139V143.154C190.409 143.031 190.47 143.031 190.47 143.031Z" fill="#DFFDAD"/>
<path d="M189.854 141.738L190.285 143.769H190.716L191.147 141.738H189.854Z" fill="#47AA0A"/>
<path d="M189.67 123.82L189.732 121.727C189.732 121.727 190.101 119.08 190.224 118.71C190.347 118.341 190.717 118.464 190.901 118.525C191.086 118.587 191.394 121.481 191.394 121.604C191.394 121.727 191.455 123.759 191.455 123.759C191.455 123.759 191.64 126.961 191.517 127.084C191.394 127.268 191.394 127.268 191.271 127.268C191.209 127.268 191.086 127.145 191.086 127.022C191.086 126.837 191.024 124.19 191.024 124.128C191.024 124.067 190.593 124.19 190.286 124.128C189.916 124.067 189.67 123.82 189.67 123.82Z" fill="#47AA0A"/>
<path d="M196.094 120.406C196.106 120.339 196.034 120.27 195.934 120.252C195.833 120.234 195.742 120.274 195.73 120.341C195.718 120.408 195.79 120.477 195.89 120.495C195.991 120.513 196.082 120.473 196.094 120.406Z" fill="#204F01"/>
<path d="M195.707 124.979L194.435 124.75L191.169 142.929L192.441 143.158L195.707 124.979Z" fill="#204F01"/>
<path d="M195.064 125.342L194.579 125.255L191.39 143.01L191.874 143.097L195.064 125.342Z" fill="#204F01"/>
<path d="M191.64 144.324C191.702 144.324 191.764 144.385 191.702 144.447L191.517 145.37C191.517 145.432 191.456 145.493 191.394 145.432C191.333 145.432 191.271 145.37 191.333 145.309L191.517 144.385C191.517 144.324 191.579 144.262 191.64 144.324Z" fill="#DFFDAD"/>
<path d="M191.209 142.969L191.271 145.001L191.702 145.124L192.502 143.215L191.209 142.969Z" fill="#204F01"/>
<path d="M194.165 125.298L194.596 123.205C194.596 123.205 195.396 120.619 195.581 120.311C195.765 120.003 196.135 120.188 196.258 120.249C196.381 120.311 196.258 123.266 196.196 123.39C196.196 123.513 195.889 125.545 195.889 125.545C195.889 125.545 195.458 128.685 195.334 128.808C195.211 128.931 195.15 128.931 195.088 128.931C195.027 128.931 194.965 128.808 194.965 128.623C194.965 128.438 195.396 125.852 195.396 125.729C195.396 125.668 194.965 125.729 194.657 125.606C194.411 125.545 194.165 125.298 194.165 125.298Z" fill="#204F01"/>
<path d="M193.714 119.188C193.732 119.123 193.666 119.048 193.568 119.022C193.469 118.995 193.375 119.027 193.358 119.093C193.34 119.158 193.406 119.233 193.504 119.259C193.603 119.286 193.697 119.254 193.714 119.188Z" fill="#204F01"/>
<path d="M186.968 141.287L188.217 141.622L193.01 123.785L191.761 123.449L186.968 141.287Z" fill="#307205"/>
<path d="M187.548 141.564L188.023 141.692L192.705 124.271L192.229 124.143L187.548 141.564Z" fill="#307205"/>
<path d="M187.268 142.661C187.207 142.661 187.145 142.661 187.145 142.722L186.899 143.646C186.899 143.708 186.899 143.769 186.961 143.769C187.022 143.769 187.084 143.769 187.084 143.708L187.33 142.784C187.391 142.722 187.33 142.661 187.268 142.661Z" fill="#DFFDAD"/>
<path d="M188.254 141.614L187.268 143.461L186.837 143.338L186.961 141.306L188.254 141.614Z" fill="#204F01"/>
<path d="M193.056 124.313L193.549 122.22C193.549 122.22 193.918 119.572 193.856 119.203C193.795 118.833 193.425 118.833 193.302 118.833C193.179 118.833 192.009 121.542 192.009 121.665C192.009 121.789 191.394 123.759 191.394 123.759C191.394 123.759 190.408 126.776 190.47 126.961C190.532 127.145 190.532 127.145 190.655 127.145C190.716 127.145 190.839 127.084 190.901 126.899C190.963 126.714 191.701 124.19 191.763 124.128C191.763 124.067 192.132 124.313 192.502 124.313C192.748 124.498 193.056 124.313 193.056 124.313Z" fill="#204F01"/>
<path d="M185.367 117.876C185.369 117.808 185.288 117.75 185.186 117.747C185.084 117.744 185 117.797 184.998 117.865C184.996 117.933 185.077 117.99 185.179 117.993C185.281 117.996 185.365 117.944 185.367 117.876Z" fill="#204F01"/>
<path d="M183.883 140.993L185.176 141.031L185.724 122.568L184.431 122.529L183.883 140.993Z" fill="#204F01"/>
<path d="M184.462 141.09L184.954 141.105L185.489 123.072L184.997 123.057L184.462 141.09Z" fill="#204F01"/>
<path d="M184.498 142.23C184.437 142.23 184.375 142.292 184.375 142.353V143.338C184.375 143.4 184.437 143.462 184.498 143.462C184.56 143.462 184.621 143.4 184.621 143.338V142.353C184.621 142.292 184.56 142.23 184.498 142.23Z" fill="#DFFDAD"/>
<path d="M185.175 140.999L184.683 143.031H184.252L183.882 140.999H185.175Z" fill="#204F01"/>
<path d="M185.914 123.082V120.988C185.914 120.988 185.607 118.341 185.545 117.971C185.422 117.602 185.052 117.725 184.868 117.787C184.744 117.848 184.252 120.742 184.252 120.865C184.252 120.988 184.129 123.02 184.129 123.02C184.129 123.02 183.883 126.222 184.006 126.345C184.129 126.53 184.129 126.53 184.252 126.53C184.314 126.53 184.437 126.407 184.437 126.283C184.437 126.099 184.621 123.451 184.621 123.39C184.621 123.328 185.052 123.451 185.36 123.451C185.606 123.328 185.914 123.082 185.914 123.082Z" fill="#204F01"/>
<path d="M180.74 118.78C180.84 118.762 180.912 118.693 180.9 118.626C180.888 118.559 180.797 118.519 180.696 118.537C180.596 118.555 180.524 118.624 180.536 118.691C180.548 118.758 180.64 118.798 180.74 118.78Z" fill="#204F01"/>
<path d="M184.251 141.487L185.524 141.259L182.258 123.079L180.986 123.308L184.251 141.487Z" fill="#47AA0A"/>
<path d="M184.884 141.408L185.369 141.321L182.179 123.566L181.694 123.653L184.884 141.408Z" fill="#47AA0A"/>
<path d="M185.114 142.6C185.052 142.6 184.991 142.661 185.052 142.723L185.237 143.646C185.237 143.708 185.299 143.769 185.36 143.708C185.422 143.708 185.483 143.646 185.422 143.585L185.237 142.661C185.176 142.6 185.176 142.6 185.114 142.6Z" fill="#DFFDAD"/>
<path d="M185.483 141.245L185.422 143.277L184.991 143.4L184.19 141.491L185.483 141.245Z" fill="#307205"/>
<path d="M182.528 123.574L182.097 121.481C182.097 121.481 181.297 118.895 181.112 118.587C180.927 118.279 180.558 118.464 180.435 118.526C180.311 118.587 180.435 121.543 180.496 121.666C180.496 121.789 180.804 123.821 180.804 123.821C180.804 123.821 181.235 126.961 181.358 127.084C181.481 127.207 181.543 127.207 181.604 127.207C181.666 127.207 181.728 127.084 181.728 126.899C181.728 126.714 181.297 124.129 181.297 124.005C181.297 123.944 181.728 124.005 182.035 123.882C182.282 123.821 182.528 123.574 182.528 123.574Z" fill="#307205"/>
<path d="M188.192 119.572C188.13 119.634 187.884 119.634 187.761 119.695C187.761 119.572 187.822 119.449 187.761 119.326C187.638 119.018 187.761 118.71 187.699 118.402C187.761 118.402 187.822 118.341 187.884 118.341C188.069 118.71 188.192 119.203 188.192 119.572Z" fill="#AFE868"/>
<path d="M187.761 118.402C187.823 118.71 187.823 118.957 187.823 119.326C187.823 119.449 187.823 119.634 187.761 119.695C187.7 119.695 187.392 119.695 187.33 119.634C187.392 119.326 187.453 118.895 187.453 118.526C187.453 118.464 187.515 118.341 187.576 118.279C187.638 118.341 187.7 118.402 187.761 118.402Z" fill="#DFFDAD"/>
<path d="M187.761 118.587C187.699 118.587 187.515 118.464 187.515 118.464C187.576 118.218 187.638 117.91 187.761 117.971C187.823 117.971 188.007 118.218 188.007 118.402C187.884 118.402 187.823 118.587 187.761 118.587Z" fill="#204F01"/>
<path d="M188.192 119.51C188.007 119.572 187.884 119.695 187.638 119.634C187.576 119.634 187.453 119.572 187.391 119.572C187.391 119.634 187.391 119.634 187.391 119.695C187.268 120.372 187.084 121.05 187.022 121.727C186.96 122.466 186.96 123.205 186.96 123.944C186.96 125.421 186.96 126.899 186.96 128.377C186.96 129.177 186.96 130.039 186.96 130.839C186.96 130.839 186.96 130.839 186.96 130.901C186.96 130.963 186.96 130.963 187.022 131.024C187.022 132.379 187.022 133.672 187.022 135.026C187.022 135.211 187.022 135.457 187.022 135.642C187.022 136.011 187.022 136.381 187.022 136.75C187.022 137.243 187.022 137.735 187.022 138.228C187.022 138.782 187.022 139.336 187.022 139.89C187.022 140.444 187.022 140.999 187.022 141.614C187.022 142.168 187.022 142.661 187.022 143.215C187.022 143.646 187.022 144.077 187.022 144.508C187.022 144.816 187.022 145.124 187.022 145.432C187.022 145.493 187.022 145.555 187.022 145.616C187.145 146.109 187.822 146.232 188.192 146.17C188.438 146.109 188.746 145.986 188.808 145.739C188.869 145.493 188.869 145.185 188.808 144.939C188.808 144.57 188.808 144.139 188.808 143.769C188.808 143.277 188.808 142.784 188.808 142.292C188.808 141.676 188.808 141.122 188.808 140.506C188.808 139.89 188.808 139.213 188.808 138.597C188.808 137.92 188.808 137.243 188.808 136.627C188.808 136.011 188.808 135.334 188.808 134.718C188.808 134.164 188.808 133.549 188.808 132.994C188.808 132.502 188.808 132.071 188.808 131.578C188.808 131.394 188.808 131.209 188.808 131.024C188.808 130.839 188.808 130.593 188.808 130.47C188.808 128.315 188.746 126.099 188.746 123.944C188.746 123.205 188.684 122.527 188.561 121.789C188.561 121.481 188.192 119.51 188.192 119.51Z" fill="#307205"/>
<path d="M188.808 130.778C188.808 130.839 188.808 130.901 188.746 130.963C188.746 131.024 188.685 131.086 188.685 131.147C188.623 131.27 188.5 131.332 188.377 131.394C188.069 131.517 187.699 131.517 187.392 131.394C187.145 131.332 187.022 131.147 186.961 130.901C186.837 131.147 186.899 131.455 187.084 131.701C187.207 131.825 187.392 131.886 187.515 131.886C187.761 131.948 188.007 131.948 188.254 131.886C188.377 131.886 188.5 131.825 188.623 131.701C188.992 131.455 188.992 131.024 188.808 130.778Z" fill="#70CE33"/>
<path d="M186.284 145.986C186.099 143.092 185.114 130.593 184.929 127.699C184.806 126.222 184.744 124.744 184.621 123.266C184.56 122.589 184.56 121.973 184.498 121.358C184.437 120.68 184.067 119.511 183.759 118.895C183.698 118.833 183.267 118.772 183.205 119.018C182.897 120.188 182.774 121.05 182.836 122.281C183.144 126.406 183.39 130.532 183.698 134.657C183.698 134.903 184.498 145.801 184.56 146.171C184.56 146.171 184.56 146.171 184.56 146.232C184.621 146.478 184.991 146.663 185.422 146.663C185.976 146.54 186.284 146.294 186.284 145.986Z" fill="#47AA0A"/>
<path d="M184.498 121.235V121.358C184.498 121.419 184.437 121.481 184.437 121.481C184.375 121.542 184.314 121.604 184.19 121.666C183.883 121.789 183.575 121.789 183.328 121.727C183.144 121.666 182.959 121.542 182.959 121.296C182.836 121.481 182.898 121.789 183.082 121.912C183.205 121.973 183.328 122.035 183.452 122.097C183.698 122.158 183.883 122.097 184.129 122.097C184.252 122.097 184.375 122.035 184.437 121.973C184.621 121.789 184.621 121.419 184.498 121.235Z" fill="#AFE868"/>
<path d="M183.759 118.895C183.759 118.895 183.759 118.833 183.698 118.833V119.018C183.759 118.956 183.759 118.956 183.759 118.895Z" fill="#204F01"/>
<path d="M183.267 118.956C183.267 119.018 183.328 119.018 183.267 118.956L183.328 118.895L183.267 118.956Z" fill="#204F01"/>
<path d="M183.698 118.833V118.649C183.698 118.525 183.574 118.464 183.513 118.464C183.39 118.464 183.328 118.587 183.328 118.649V118.833V118.956C183.39 118.956 183.451 119.018 183.513 118.956C183.574 118.956 183.636 118.895 183.698 118.895V118.833Z" fill="#204F01"/>
<path d="M193.549 121.666C193.303 121.604 192.995 121.604 192.749 121.543C192.81 121.235 192.81 120.865 192.995 120.557C193.056 120.742 193.18 120.742 193.364 120.742C193.734 120.804 194.103 120.742 194.411 120.865C194.411 121.112 194.349 121.481 194.288 121.727C194.042 121.789 193.795 121.727 193.549 121.666Z" fill="#AFE868"/>
<path d="M194.349 120.988C194.349 121.05 194.288 121.05 194.226 121.05C193.98 120.988 193.734 120.988 193.426 120.927C193.241 120.865 192.81 120.865 192.995 120.619C193.241 120.188 193.549 120.003 193.98 120.188C194.288 120.311 194.411 120.557 194.411 120.865C194.411 120.927 194.411 120.988 194.349 120.988Z" fill="#307205"/>
<path d="M192.441 127.577C192.256 128.685 192.01 129.793 191.825 130.84C191.517 132.564 189.547 142.415 188.993 145.555L189.732 145.678C190.101 143.77 192.194 132.687 192.564 130.778C192.872 129.177 193.179 127.577 193.487 125.976C193.734 124.56 193.98 123.205 194.226 121.789C193.98 121.727 193.734 121.727 193.487 121.666C193.179 123.636 192.872 125.606 192.441 127.577Z" fill="#307205"/>
<path d="M191.825 130.901C192.01 129.793 192.256 128.685 192.441 127.638C192.81 125.668 193.18 123.698 193.549 121.727C193.303 121.666 192.995 121.666 192.749 121.604C192.687 121.727 192.687 121.851 192.687 121.974C192.071 125.175 191.517 128.439 190.901 131.64C190.594 133.241 188.562 143.893 188.254 145.494L188.993 145.617C189.547 142.415 191.579 132.564 191.825 130.901Z" fill="#47AA0A"/>
<path d="M188.993 145.617L188.254 145.432L188.315 147.648L188.87 147.772L189.793 145.74L188.993 145.617Z" fill="#70CE33"/>
<path d="M188.315 147.648C188.315 147.833 188.315 148.141 188.562 148.141C188.746 148.141 188.808 147.71 188.87 147.71C188.685 147.71 188.5 147.71 188.315 147.648Z" fill="#204F01"/>
<path d="M186.837 132.625C182.22 132.625 178.525 131.64 178.525 130.409H178.464L179.695 146.602C179.695 147.217 180.373 147.402 180.804 147.587C181.358 147.772 181.973 147.895 182.589 148.018C183.944 148.264 185.298 148.326 186.653 148.326C188.254 148.326 189.854 148.203 191.455 147.895C191.886 147.772 192.317 147.71 192.748 147.525C193.118 147.402 193.487 147.217 193.549 146.848V146.786C193.549 146.786 193.549 146.786 193.549 146.725L195.149 130.655C194.78 131.702 191.209 132.625 186.837 132.625Z" fill="#70CE33"/>
<path d="M181.604 147.772C181.111 147.587 180.188 147.525 180.188 146.91L179.018 131.148C179.018 131.148 179.018 131.148 179.08 131.148C179.08 131.148 180.619 131.456 180.804 131.825C180.927 132.194 181.604 147.772 181.604 147.772Z" fill="#AFE868"/>
<path d="M178.525 130.347C178.525 131.579 182.281 132.564 186.837 132.564C191.394 132.564 195.149 131.579 195.149 130.347H194.903C194.903 130.593 194.595 130.84 194.349 131.024C193.98 131.271 193.364 131.517 192.625 131.702C191.086 132.133 188.992 132.317 186.776 132.317C184.559 132.317 182.466 132.071 180.927 131.702C180.188 131.517 179.572 131.271 179.203 131.024C178.956 130.84 178.649 130.593 178.649 130.347H178.525Z" fill="#AFE868"/>
<path d="M120.567 18.7789C120.567 24.9975 116.626 30.5389 110.531 33.9252C109.115 34.7256 110.038 39.4666 109.792 40.267C109.545 41.0674 104.374 36.4496 103.573 36.6343C101.172 37.25 98.6476 37.5579 96.0616 37.5579C82.5162 37.5579 71.5566 29.1227 71.5566 18.7789C71.5566 8.43513 82.5162 0 96.0616 0C109.607 0 120.567 8.43513 120.567 18.7789Z" fill="#DFFDAD"/>
<path d="M260.295 182.674H235.174L231.849 223.064H269.284L260.295 182.674Z" fill="#AFE868"/>
<path d="M260.295 182.674H252.537L247.919 223.064H269.284L260.295 182.674Z" fill="#DFFDAD"/>
<path d="M208.391 221.217C212.578 211.92 215.657 203.793 216.888 199.483C218.981 192.156 220.582 185.691 220.952 183.29C221.937 177.564 213.563 177.194 212.455 180.088C210.792 184.398 207.899 198.621 204.389 220.047L208.391 221.217ZM257.217 191.971C253.338 190.432 239.854 185.691 233.327 184.337C231.48 183.967 229.633 183.598 227.909 183.29C222.86 182.305 220.213 191.479 225.077 192.156C237.268 193.88 254.507 195.727 255.985 195.912C258.078 196.158 259.618 192.895 257.217 191.971Z" fill="#47AA0A"/>
<path d="M224.769 180.704L245.641 170.052V167.712H243.178C222.983 172.884 212.64 176.148 212.209 177.625V177.687C212.209 177.687 212.209 177.687 212.209 177.748C208.207 183.228 205.805 210.134 205.005 212.166L212.701 213.336C215.657 202.438 225.015 194.865 224.769 181.812C224.769 181.443 224.769 181.073 224.769 180.704Z" fill="#47AA0A"/>
<path d="M243.917 187.045C245.826 186.676 247.611 186.307 249.089 186.06C258.817 184.336 261.649 179.164 259.987 167.774H242.07C239.115 168.636 223.907 174.978 216.026 178.364C210.792 180.581 212.455 188.708 215.41 190.801C215.41 190.924 215.472 191.048 215.595 191.048C231.48 197.636 244.102 194.188 248.289 195.296L250.259 189.139L243.917 187.045Z" fill="#59C114"/>
<path d="M255.88 190.965C256.953 191.058 257.64 191.202 258.106 191.455C258.654 191.736 259.365 192.211 260.295 192.853C259.986 193.484 257.287 199.047 252.173 209.488C250.523 209.196 249.896 208.612 250.236 207.624C250.576 206.636 250.86 205.812 251.086 205.154L251.427 195.74C251.401 195.547 251.596 195.383 251.76 195.44L253.246 195.537C254.079 194.857 254.608 194.257 254.889 193.709C255.086 193.27 255.231 192.583 255.24 191.619C255.134 191.26 255.467 190.961 255.88 190.965C255.825 190.992 255.825 190.992 255.88 190.965Z" fill="#307205"/>
<path d="M210.3 219.493C210.669 220.478 210.854 221.217 210.854 221.71C210.854 222.325 210.731 223.187 210.546 224.296C209.869 224.296 203.712 224.296 192.013 224.296C191.521 222.695 191.829 221.833 192.875 221.71C193.922 221.586 194.784 221.463 195.461 221.34L204.081 217.523C204.266 217.461 204.451 217.523 204.512 217.708L205.066 219.062C206.051 219.493 206.79 219.739 207.406 219.739C207.898 219.739 208.576 219.555 209.438 219.124C209.746 218.939 210.115 219.062 210.3 219.493C210.3 219.432 210.3 219.432 210.3 219.493Z" fill="#307205"/>
<path d="M250.197 127.876C251.736 126.091 252.721 123.936 252.537 121.473C252.044 114.454 242.254 115.993 240.346 119.564C238.437 123.135 238.683 132.125 241.146 132.74C242.131 132.987 244.225 132.371 246.318 131.078L245.025 140.498H252.906L250.197 127.876Z" fill="#47AA0A"/>
<path d="M251.921 115.685C251.921 115.685 251.859 115.685 251.921 115.685C251.12 115.439 250.382 115.254 249.581 115.254C249.52 115.254 249.458 115.254 249.458 115.193C249.396 115.193 249.273 115.193 249.212 115.193C248.719 115.193 245.887 115.316 244.84 115.501C243.424 115.747 240.715 116.978 240.346 117.902C239.915 118.887 240.161 120.057 241.946 119.934C243.732 122.089 246.379 123.566 246.687 123.628C246.687 123.628 247.857 122.027 248.965 122.704C250.258 123.505 250.012 124.921 249.335 126.029C248.965 126.583 248.411 127.507 249.335 128.123C250.813 129.169 254.507 126.83 255.184 124.859C256.169 121.473 255.061 117.163 251.921 115.685Z" fill="#204F01"/>
<path d="M238.991 125.229C238.683 125.968 238.191 126.583 237.945 127.384C237.637 128.492 238.006 128.43 238.991 128.369C239.976 128.307 239.853 127.753 239.792 126.706C239.792 126.029 239.73 125.106 239.422 124.552C239.238 124.798 239.053 125.044 238.991 125.229Z" fill="#47AA0A"/>
<path d="M239.668 123.813C239.73 123.628 239.915 123.443 240.161 123.382C240.346 123.32 240.592 123.32 240.838 123.32C241.269 123.382 241.639 123.628 241.823 124.059C241.392 123.936 241.085 123.874 240.715 123.813C240.53 123.751 240.407 123.751 240.223 123.751C240.038 123.751 239.853 123.751 239.668 123.813Z" fill="#204F01"/>
<path d="M239.607 130.339C239.976 130.278 240.346 130.155 240.715 129.97C240.9 129.908 241.023 129.847 241.208 129.724C241.393 129.6 241.577 129.477 241.824 129.477H242.07V129.662C242.131 130.031 241.947 130.216 241.762 130.401C241.577 130.586 241.454 130.709 241.269 130.832C241.085 130.955 240.9 131.017 240.715 131.14C240.531 131.201 240.346 131.263 240.1 131.324C240.407 131.078 240.715 130.832 241.023 130.586C241.146 130.462 241.331 130.339 241.392 130.216C241.516 130.093 241.577 129.908 241.577 129.847L241.824 130.031C241.7 130.031 241.516 130.093 241.392 130.216C241.208 130.278 241.023 130.401 240.777 130.462C240.592 130.524 240.346 130.524 240.161 130.524C239.976 130.401 239.792 130.401 239.607 130.339Z" fill="#204F01"/>
<path d="M240.161 125.044C240.365 125.044 240.53 124.879 240.53 124.675C240.53 124.471 240.365 124.305 240.161 124.305C239.957 124.305 239.792 124.471 239.792 124.675C239.792 124.879 239.957 125.044 240.161 125.044Z" fill="#204F01"/>
<path d="M225.262 158.784L213.378 153.551C211.285 151.458 209.253 149.918 207.345 148.81C206.79 148.625 205.744 148.564 206.852 150.103C207.96 151.642 208.945 153.305 208.514 153.859C208.083 154.413 206.852 153.797 206.359 154.659C206.052 155.275 208.083 155.952 212.578 156.753L221.506 163.587L225.262 158.784ZM273.409 160.201L266.698 161.555C273.471 174.177 277.104 180.827 277.596 181.627C278.705 183.351 277.658 186.43 277.288 188.092C279.69 188.646 278.766 185.075 281.783 185.814C284.554 186.491 286.893 188.277 289.479 185.875C289.787 185.568 290.033 184.644 288.925 184.213C286.216 183.043 282.276 180.888 281.598 180.026C280.675 178.856 277.966 172.268 273.409 160.201Z" fill="#47AA0A"/>
<path d="M248.412 135.018L245.58 134.526C239.423 140.498 236.898 154.967 232.773 156.876C228.894 158.661 223.353 156.937 216.765 154.598L214.733 159.092C220.705 165.557 233.389 170.975 238.561 167.897C246.749 162.91 248.658 145.116 248.412 135.018Z" fill="#9B1558"/>
<path d="M260.788 170.729C249.397 170.729 241.024 170.729 235.667 170.729C234.497 170.729 234.743 169.067 234.928 168.205C236.837 158.538 244.348 148.133 244.348 134.403L251.614 133.294C257.524 142.899 259.556 154.782 260.788 170.729Z" fill="#DFFDAD"/>
<path d="M263.251 160.94C268.361 170.175 272.671 176.825 276.18 180.888L281.475 179.842C278.089 158.785 268.238 143.269 251.983 133.233H251.922H249.151C242.624 155.398 240.839 170.175 243.794 177.564H266.391C265.96 172.207 264.851 166.481 263.251 160.94Z" fill="#DC3579"/>
<rect x="165.266" y="12.3911" width="41.0459" height="57.3094" fill="#DFFDAD"/>
<path d="M22.6948 108.543L67.1486 101.217L69.4267 81.5756L69.8577 70.4929L68.6263 48.0198L29.837 49.2512L26.0196 51.714L24.1725 58.4252L25.4039 70.0004L25.8349 81.2062L25.4039 90.257L24.4804 99.431L22.6948 108.543Z" fill="#47AA0A"/>
<path d="M67.1486 101.217L65.6094 100.847C65.6094 100.786 67.7028 92.1658 68.2569 87.4864C69.3652 78.4356 69.3652 68.1533 68.1953 55.2852V55.1004C67.8875 51.7141 67.5181 47.8967 69.242 44.6335C70.1656 42.848 72.1974 41.2471 74.2908 41.8628C76.5689 42.5401 77.554 45.557 78.1697 47.5889C78.2313 47.8351 78.2929 48.0199 78.3544 48.2046L76.8767 48.6971C76.8152 48.5124 76.7536 48.2661 76.692 48.0199C76.1379 46.3575 75.3375 43.7715 73.8598 43.3405C72.6284 42.9711 71.3354 44.0794 70.6581 45.3723C69.1805 48.143 69.4883 51.5909 69.7961 54.9157V55.1004C70.966 68.0918 71.0276 78.4356 69.8577 87.6711C69.242 92.412 67.2102 100.847 67.1486 101.217Z" fill="#AFE868"/>
<path d="M28.1133 49.128L29.7141 48.697L72.8749 41.6164C72.8749 41.6164 76.5691 40.5082 78.2931 48.2045L33.8393 55.5929C33.8393 55.5929 32.9158 52.6991 32.7311 52.3912C32.2385 51.3446 31.4996 50.421 30.5761 49.7437C29.8988 49.1896 29.0368 49.2512 28.1133 49.128Z" fill="#AFE868"/>
<path d="M78.2108 47.687L33.8511 55.2888L33.9655 55.9563L78.3252 48.3545L78.2108 47.687Z" fill="#307205"/>
<path d="M26.5125 160.509C26.451 160.509 26.451 160.509 26.3894 160.509C25.6506 160.447 25.0964 159.77 25.158 159.031L33.2237 61.3188C33.2853 60.58 33.9625 60.0259 34.7014 60.0874C35.4402 60.149 35.9944 60.8263 35.9328 61.5651L27.8671 159.277C27.744 159.954 27.1898 160.509 26.5125 160.509Z" fill="#307205"/>
<path d="M25.8351 159.523C25.6504 159.523 25.4656 159.339 25.5272 159.154L33.5929 64.9514C33.5929 64.7667 33.7776 64.6436 33.9623 64.6436C34.147 64.6436 34.2702 64.8283 34.2702 65.013L26.2045 159.215C26.2045 159.4 26.0198 159.523 25.8351 159.523Z" fill="#70CE33"/>
<path d="M48.8626 183.29C48.1237 183.29 47.5696 182.736 47.508 181.997L45.9688 120.919C45.9688 120.18 46.5229 119.564 47.2617 119.564C48.0006 119.564 48.6163 120.119 48.6163 120.857L50.1556 181.935C50.2171 182.674 49.663 183.29 48.8626 183.29Z" fill="#307205"/>
<path d="M48.3702 182.366C48.1854 182.366 48.0623 182.243 48.0623 182.058L46.3999 120.365C46.3999 120.18 46.523 119.995 46.7078 119.995C46.8925 119.995 47.0772 120.119 47.0772 120.303L48.7396 181.997C48.678 182.243 48.5549 182.366 48.3702 182.366Z" fill="#70CE33"/>
<path d="M93.1314 169.436C92.5157 169.436 91.8999 169.005 91.8384 168.328L81.9871 113.531C81.864 112.792 82.3566 112.114 83.0954 111.991C83.8343 111.868 84.5115 112.361 84.6347 113.1L94.4859 167.897C94.6091 168.636 94.1165 169.313 93.3776 169.436C93.3161 169.436 93.1929 169.436 93.1314 169.436Z" fill="#307205"/>
<path d="M92.6388 168.636C92.4541 168.636 92.331 168.513 92.331 168.39L81.433 107.62C81.3714 107.435 81.4946 107.25 81.6793 107.25C81.864 107.189 82.0487 107.312 82.0487 107.497L92.9467 168.267C93.0082 168.39 92.8851 168.574 92.6388 168.636C92.7004 168.636 92.7004 168.636 92.6388 168.636Z" fill="#70CE33"/>
<path d="M33.9624 55.593L43.2595 122.027L88.76 112.176L78.293 47.9583L33.9624 55.593Z" fill="#AFE868"/>
<path d="M33.9008 55.593C33.4082 53.2533 32.2384 49.9285 29.8371 49.2513C27.7437 48.6356 25.7119 50.2364 24.7884 52.0219C23.0644 55.2236 23.4338 59.0409 23.7417 62.4889V62.6736C24.9115 75.5418 24.973 85.824 23.8032 94.8748C23.2491 99.5542 21.2789 107.743 21.2173 107.805L22.6334 108.543C22.695 108.174 24.7268 99.8005 25.3425 95.0596C26.5123 85.8856 26.4507 75.5418 25.2809 62.4889V62.3042C24.9731 58.9794 24.6652 55.5314 26.1429 52.7608C26.8202 51.4678 28.1747 50.3595 29.3445 50.7289C32.7925 51.7756 32.8541 59.0409 33.285 62.1195C34.0239 67.3529 34.7627 72.5864 35.5632 77.8199C36.4867 84.2232 37.4103 90.6265 38.3338 97.0298C39.1342 102.571 39.9346 108.051 40.735 113.592C41.1045 116.178 41.2892 117.656 41.6586 120.242L41.7817 121.412L43.2594 122.027C42.9516 119.872 42.6437 117.779 42.3359 115.624C41.597 110.514 40.9198 105.342 40.1809 100.231C39.3189 93.9513 38.3954 87.6711 37.5334 81.3909C36.733 75.8496 35.9941 70.3083 35.1937 64.767C34.7627 61.8116 34.5164 58.8562 33.9623 55.9008C33.9623 55.8393 33.9623 55.7161 33.9008 55.593Z" fill="#307205"/>
<path d="M116.292 48.7594C115.802 53.0027 115.706 62.416 117.385 63.6606L126.703 62.2769L126.694 62.216C130.111 61.3351 132.357 58.0138 131.823 54.4206L130.819 47.6604C130.249 43.8236 126.682 41.1788 122.845 41.7485L122.175 41.848C118.765 42.3545 116.282 45.3375 116.292 48.7594Z" fill="#204F01"/>
<path d="M128.04 53.6754C129.239 51.6922 129.958 49.4068 129.422 47.0588C127.913 40.2491 118.578 43.1916 117.205 46.9434C115.833 50.6952 117.388 59.4899 119.914 59.7371C120.925 59.8361 122.537 59.1943 124.479 57.5988L124.882 66.7802L132.616 65.6316L128.04 53.6754Z" fill="#AFE868"/>
<path d="M125.727 52.7738C125.932 56.6649 126.696 60.9709 127.946 61.8434L137.264 60.4597C136.473 51.3647 131.934 55.5868 130.668 47.0605C130.318 46.8012 129.968 46.5419 129.628 46.3435L129.591 46.0999C127.459 43.0554 125.205 41.7094 122.708 42.0802C118.993 42.6319 118.089 44.509 117.28 46.1853C118.39 48.6347 121.368 48.566 124.17 49.8305C124.438 49.5417 124.786 49.3656 125.212 49.3023C126.186 49.1576 127.096 49.8318 127.24 50.8062C127.385 51.7807 126.711 52.69 125.736 52.8347C125.797 52.8256 125.797 52.8256 125.727 52.7738Z" fill="#204F01"/>
<path d="M118.148 52.0319C118.26 51.9529 118.443 51.9257 118.635 51.9595C118.766 52.0023 118.836 52.0542 118.906 52.106C118.994 52.2797 118.96 52.4715 118.786 52.5595C118.673 52.6385 118.5 52.7265 118.369 52.6837C118.116 52.659 118.08 52.4154 118.053 52.2327C117.983 52.1808 118.087 52.0409 118.148 52.0319Z" fill="#204F01"/>
<path d="M117.151 52.8648C117.342 52.8986 118.142 55.7677 118.214 56.2549C117.971 56.2911 117.066 56.4876 116.804 56.402C116.403 56.2127 116.522 55.7592 116.599 55.4366C116.752 54.7914 116.542 52.9553 117.151 52.8648Z" fill="#AFE868"/>
<path d="M119.589 51.2578C119.501 51.0841 119.352 50.9195 119.151 50.8249C118.95 50.7302 118.758 50.6964 118.515 50.7326C118.332 50.7597 118.089 50.7959 117.915 50.8839C117.741 50.972 117.577 51.1209 117.482 51.3217C117.656 51.2337 117.838 51.2065 118.021 51.1794C118.204 51.1523 118.325 51.1342 118.508 51.107C118.691 51.0799 118.822 51.1227 119.004 51.0956C119.205 51.1903 119.388 51.1631 119.589 51.2578Z" fill="#204F01"/>
<path d="M118.558 58.5691C118.732 58.4811 118.966 58.384 119.131 58.2351C119.295 58.0861 119.46 57.9372 119.625 57.7883C119.954 57.4904 120.213 57.1407 120.333 56.6872L119.931 56.4979C119.784 56.7686 119.507 56.9965 119.16 57.1726C118.812 57.3487 118.465 57.5247 118.109 57.6399C118.492 57.7075 118.919 57.6441 119.336 57.5199C119.753 57.3957 120.091 57.1588 120.342 56.7481L119.94 56.5588C119.803 56.8904 119.604 57.2311 119.406 57.5718C119.086 57.9306 118.826 58.2803 118.558 58.5691Z" fill="#204F01"/>
<path d="M127.126 120.893C122.201 120.893 115.92 122.001 108.286 124.279C113.15 127.666 118.383 129.328 124.048 129.328C129.712 129.328 136.423 128.22 144.243 126.065C137.778 122.555 132.052 120.893 127.126 120.893Z" fill="#204F01"/>
<path d="M119.43 148.538C118.506 154.634 115.982 164.854 114.812 168.548C114.073 170.888 109.948 169.534 110.379 167.687C110.81 165.901 112.411 140.78 113.827 132.899C113.95 128.035 116.105 103.284 116.844 99.2819L135.5 96.8191C134.576 102.053 121.954 131.791 121.339 134.439C121.277 134.562 121.277 134.685 121.216 134.808C120.908 137.702 120.292 142.812 119.43 148.538Z" fill="#70CE33"/>
<path d="M115.982 168.056C115.797 167.748 115.366 167.686 115.058 167.871C114.258 168.364 113.642 168.61 113.15 168.672C112.534 168.733 111.795 168.672 110.749 168.364L110.01 167.194C109.887 167.071 109.702 167.009 109.579 167.071L101.636 171.689C100.959 171.873 100.158 172.058 99.1733 172.366C98.1882 172.612 98.0035 173.413 98.6808 174.829C110.133 173.289 116.167 172.489 116.844 172.427C116.906 171.381 116.844 170.58 116.782 170.026C116.782 169.595 116.475 168.979 115.982 168.056C115.982 168.117 115.982 168.117 115.982 168.056Z" fill="#307205"/>
<path d="M131.436 149.277C131.559 155.434 130.82 165.839 130.328 169.657C130.02 172.058 125.648 171.381 125.772 169.472C125.895 167.625 123.186 142.627 123.247 134.623C122.508 129.759 120.477 105.07 120.477 101.006L138.455 95.7725C138.455 101.068 131.067 132.222 130.882 134.993C130.882 135.116 130.82 135.239 130.82 135.362C131.005 138.318 131.251 143.489 131.436 149.277Z" fill="#AFE868"/>
<path d="M131.313 169.041C131.067 168.795 130.636 168.795 130.389 168.98C129.712 169.534 129.096 169.903 128.665 170.026C128.111 170.211 127.311 170.211 126.264 170.088L125.341 169.041C125.217 168.918 125.033 168.918 124.91 169.041L117.829 174.767C117.213 175.075 116.413 175.383 115.489 175.752C114.566 176.122 114.504 176.984 115.428 178.277C126.51 175.075 132.36 173.351 132.975 173.166C132.852 172.12 132.667 171.319 132.483 170.765C132.36 170.457 131.99 169.842 131.313 169.041Z" fill="#307205"/>
<path d="M144.366 126.003C132.975 120.647 119.307 130.067 108.286 124.587C109.271 108.641 114.812 104.515 117.09 94.1716C123.617 92.0782 130.574 92.0782 137.901 94.1716C143.073 100.452 147.629 118.492 144.366 126.003Z" fill="#307205"/>
<path d="M103.976 86.9679L93.5703 82.8427C89.0756 83.2737 86.9207 83.1505 87.0438 82.5348C87.2901 81.5497 88.5831 81.796 88.8909 81.1187C89.1372 80.503 87.6595 79.1484 86.2434 77.9786C84.8273 76.8088 85.7508 76.5625 86.3665 76.5625C88.5215 77.0551 90.8612 78.0402 93.4471 79.4563L106.315 81.1803L103.976 86.9679ZM155.941 110.98C156.434 111.904 159.881 114.798 162.221 116.46C163.206 117.137 162.775 117.938 162.406 118.184C159.45 120.031 157.542 117.876 154.956 116.645C152.185 115.352 152.37 119.046 150.153 117.999C150.831 116.46 152.431 113.628 151.693 111.781C151.385 110.98 147.26 101.745 139.502 84.1972H146.644C152.185 100.76 155.325 109.687 155.941 110.98Z" fill="#AFE868"/>
<path d="M125.895 74.3459C123.062 91.3393 109.332 97.5579 93.6934 95.5876L95.9099 79.5794C112.657 82.2269 120.169 74.4075 121.523 61.9703L127.126 61.6008C127.249 65.3566 126.633 69.9744 125.895 74.3459Z" fill="#47AA0A"/>
<path d="M129.897 59.9385H130.451C142.949 71.2058 151.077 87.1525 154.956 107.779H137.839C137.716 103.9 137.531 100.082 137.223 96.3881H114.381C116.782 85.6749 121.4 76.4393 121.4 61.9087L129.897 59.9385Z" fill="#59C114"/>
<path d="M137.224 96.3881H132.606C133.899 91.6472 134.207 84.6897 133.653 75.6389C135.5 82.1654 136.608 89.0612 137.224 96.3881Z" fill="#47AA0A"/>
<path d="M56.8193 70.8625C56.8511 70.8192 56.8734 70.7775 56.9052 70.7343C56.9811 70.6649 57.0075 70.5271 57.1533 70.5326C57.4075 71.1604 57.7862 71.7208 58.2012 72.2658C58.2339 72.2892 58.2775 72.3205 58.3102 72.3439C58.4598 72.4347 58.6933 72.4454 58.7382 72.6673C58.8325 73.1392 59.0715 73.0631 59.3667 72.8539C59.7561 72.6298 60.1009 72.7946 60.4379 72.9702C60.5101 73.121 60.3707 73.2768 60.4082 73.4522C60.8103 73.3692 61.1961 73.3652 61.5333 73.178C61.6231 73.1351 61.7114 73.0829 61.8012 73.04C61.9806 73.1356 62.149 73.2234 62.2475 73.4178C62.2911 73.4491 62.3268 73.4911 62.3704 73.5224L62.3595 73.5146C62.3802 73.6449 62.3994 73.766 62.4201 73.8963C62.3447 73.9083 62.2738 73.9482 62.2479 74.0287L62.2559 74.0179C61.9578 74.2084 62.2694 74.4071 62.2519 74.6008C62.0138 74.7436 61.6647 74.8563 62.118 75.1566C62.1616 75.1879 62.1873 75.2888 62.1649 75.3306C61.945 75.7091 62.3462 76.0463 62.2314 76.4178C62.1782 76.5694 62.3045 76.6353 62.3788 76.738C62.8274 77.3732 63.1202 78.0617 63.0248 78.8596C62.5196 78.9017 62.147 79.1708 61.8284 79.5364C61.8205 79.5473 61.8046 79.5689 61.8061 79.5782C62.0865 80.2496 61.3757 80.1525 61.1474 80.4178C61.1236 80.4502 61.0998 80.4827 61.068 80.5259C61.0442 80.5583 61.0124 80.6015 60.9886 80.634L60.998 80.6325C60.7872 80.7041 60.5354 80.6391 60.3627 80.8288C59.9408 80.8481 59.516 80.8487 59.1434 81.1179C58.9834 80.9619 58.8609 80.9814 58.7571 81.1792C58.4319 81.2595 58.1051 81.3305 57.7775 81.1534C57.6443 80.9837 57.4997 80.8635 57.292 80.7723C57.0953 80.689 56.913 80.5748 56.8126 80.2471C56.6866 79.8185 56.2527 79.4578 55.9 79.1224C55.7306 78.968 55.5523 79.2445 55.3743 79.3396C55.112 79.3908 54.925 79.43 54.8094 79.0665C54.7501 78.8755 54.4255 78.717 54.124 78.7649C54.0514 78.4901 54.0259 78.2077 54.0772 77.9228C54.0897 77.7585 54.1211 77.5912 54.1039 77.4221C54.0455 76.8109 54.5622 76.7193 54.902 76.4267C55.2166 76.1572 55.5758 75.8042 55.5039 75.2906C55.7251 75.2841 55.7936 75.1683 55.7328 74.9679C55.9352 74.783 55.6345 74.5921 55.7303 74.4051C55.935 73.9908 55.659 73.8341 55.3482 73.7021C55.3455 73.5021 55.3754 73.3255 55.5867 73.1965C55.9384 72.9784 55.8301 72.6614 55.63 72.4355C55.16 71.9087 55.1347 71.9318 55.7602 71.613C55.8579 71.5593 55.9571 71.5149 56.0563 71.4705C56.2016 71.3519 56.384 71.4662 56.5462 71.3927C56.7366 71.3147 56.9474 71.243 56.7508 70.9783C56.7637 70.9381 56.797 70.9042 56.8193 70.8625Z" fill="#DC3579"/>
<path d="M70.0143 89.4814C69.5994 89.4232 69.7843 88.9452 69.5177 88.7871C69.376 88.6855 69.2358 88.5932 69.0941 88.4916C68.8205 88.411 68.577 88.4592 68.3404 88.6113C68.3368 88.8314 68.2346 88.8572 68.0726 88.7493C68.0399 88.7259 67.9978 88.7039 67.9636 88.6712C67.4826 88.8048 67.5474 88.4222 67.498 88.1723C67.4653 88.1489 67.4217 88.1176 67.389 88.0942L67.3905 88.1035C67.2671 88.0563 67.2776 87.9401 67.2519 87.8391C67.1692 87.8045 67.1494 87.7409 67.1282 87.6679C67.0955 87.6444 67.0519 87.6132 67.0192 87.5897C66.8459 87.35 66.8318 87.0181 66.5166 86.8581C66.2639 86.7264 66.0445 86.5608 65.7602 86.7778C65.6054 86.8978 65.4776 86.8227 65.4162 86.6797C65.2174 86.1576 65.0203 86.4371 64.8065 86.6715C64.7573 86.7271 64.6864 86.767 64.6358 86.8132C64.4945 86.8356 64.5196 86.9939 64.4234 87.0569C64.4262 87.2569 64.4289 87.457 64.3237 87.6455C64.3152 87.7137 64.3314 87.8161 64.2234 87.8046C64.1842 87.8013 64.1615 87.719 64.1258 87.6769C63.9653 87.5783 64.0067 87.3522 63.8635 87.2413C63.8511 87.2242 63.8293 87.2085 63.8169 87.1914C63.8169 87.1914 63.8328 87.1698 63.8422 87.1683C63.2512 86.6703 63.3152 86.7079 63.0464 87.266C62.9521 87.4624 62.8889 87.6729 62.8149 87.8756C62.8156 88.1236 62.6658 88.2143 62.4388 88.1835C62.2807 88.1609 62.127 88.1662 61.9792 88.2088C61.9548 88.2985 61.9236 88.2844 61.8835 88.2144C61.8081 87.7395 61.5328 87.3441 61.3756 86.9014C60.901 87.0149 60.4452 87.3069 59.9458 86.8993C59.7576 86.7479 59.4014 86.9381 59.4631 87.2051C59.6019 87.7749 59.2194 88.1029 59.0068 88.5281C58.8533 88.8388 58.4292 89.0875 58.6415 89.512C58.7831 89.795 58.7864 89.9377 58.4284 89.9945C58.2494 90.023 58.3425 90.1227 58.3965 90.2192C58.6028 90.6064 58.1782 91.3993 57.7563 91.4186C57.2199 91.4465 56.8194 91.8442 56.3137 91.9436C56.1456 91.9799 56.1728 92.5769 55.8292 92.116C55.8039 92.1391 55.7786 92.1623 55.7518 92.1761C55.1169 92.4964 55.5016 93.094 55.4094 93.5478C55.3516 93.8528 55.6913 93.7416 55.8713 93.7799C55.9213 93.791 55.9694 93.8502 56.0144 93.8908C56.124 94.3984 55.8241 94.9424 56.1612 95.4234C56.1389 95.4652 56.1057 95.4991 56.0833 95.5408C56.0301 95.6925 55.9175 95.8344 55.9659 96.0177C55.943 96.1168 55.8859 96.1831 55.7976 96.2353C55.842 96.5146 55.7748 96.8212 56.0328 97.0475C56.3689 97.1565 56.6238 97.5455 57.0568 97.3527C57.5051 97.1956 57.9839 97.2913 58.447 97.2273C58.9086 97.154 58.9509 96.9946 58.7505 96.6446C58.8205 96.538 58.7874 96.3905 59.0551 96.4339C59.6201 96.5256 60.1404 96.8821 60.7438 96.7289C60.7721 96.7245 60.8454 96.7605 60.8608 96.7963C61.0334 97.2748 61.2655 97.0947 61.5092 96.8651C61.5585 97.115 61.9697 96.9065 61.961 97.1561C61.9363 97.6087 62.2021 97.5188 62.4674 97.4862C62.5347 97.6664 62.727 97.7218 62.8448 97.8558C62.9984 98.0319 63.2071 98.0083 63.2896 97.7374C63.4518 97.6639 63.6234 97.589 63.7841 97.5062C64.2554 97.7368 64.7233 97.8248 65.1228 97.3604C65.1387 97.3388 65.1793 97.3514 65.217 97.3454C65.2359 97.3424 65.2532 97.3301 65.2582 97.3007C65.5478 97.1783 65.8059 96.9178 66.1691 97.137C66.2439 97.1823 66.3684 97.1148 66.3913 97.0157C66.4092 96.9461 66.3314 96.8821 66.2501 96.8568C65.6763 96.0411 65.4837 95.1934 65.8302 94.2125C66.0926 93.493 66.838 93.2601 67.2306 92.6918C67.2907 92.6441 67.3318 92.5994 67.2997 92.5186C67.5034 92.5244 67.5849 92.3683 67.6896 92.2371C67.8326 92.0426 68.0047 91.9102 68.2526 91.8899C68.4206 92.0351 68.4535 92.364 68.7917 92.2434C68.7808 92.2356 68.759 92.22 68.7669 92.2092C68.86 91.8221 69.2494 91.598 69.3692 91.1971C69.4015 91.0965 69.6526 90.9135 69.7251 90.7015C69.7094 90.5417 69.5871 90.3798 69.7375 90.2318L69.7454 90.221C69.7971 90.06 69.8815 89.9225 70.0685 89.8833C70.0542 89.7328 70.035 89.6118 70.0143 89.4814ZM68.0267 91.7444C68.0173 91.7459 68.0093 91.7568 67.9905 91.7597C68.0079 91.7474 68.0173 91.7459 68.0267 91.7444ZM67.9811 91.7612C67.9463 91.7858 67.9007 91.8026 67.866 91.8272C67.9007 91.8026 67.9369 91.7873 67.9811 91.7612Z" fill="#DC3579"/>
<path d="M75.7353 82.3869C75.6655 82.3121 75.5242 82.3346 75.4955 82.215C75.3559 82.0654 75.5917 81.6652 75.1539 81.7061C74.6555 81.3652 74.666 81.249 75.1646 80.9216C75.1914 80.9078 75.1949 80.8691 75.2202 80.846C75.3131 80.6403 75.519 80.4167 75.13 80.278C75.1514 80.1696 75.0875 80.132 75.0062 80.1067C74.9775 79.9872 74.863 79.9958 74.7817 79.9706C74.2554 79.7582 74.4721 79.237 74.397 78.8861C74.3176 78.5074 74.1921 78.5082 73.911 78.5624C73.7429 78.5986 73.5362 78.5742 73.4052 78.6618C73.1418 78.8277 72.6837 78.8623 72.7314 79.2843C72.78 79.773 72.6147 80.0092 72.0833 80.0077C72.0744 79.9519 72.0735 79.8852 72.0646 79.8293C72.4926 79.6659 72.598 79.2959 72.3202 79.006C72.3157 78.978 72.3034 78.9609 72.2989 78.933C72.1388 78.9584 72.0623 79.0851 72.0047 79.2088C71.8145 79.5922 71.6124 79.9011 71.1184 79.5882C71.0436 79.5428 70.9509 79.5671 70.9017 79.6226C70.5975 79.9573 70.3648 79.7079 70.1785 79.5084C69.9814 79.301 69.689 79.2234 69.5266 78.9914C69.4462 79.0328 69.3674 79.0835 69.295 79.1141C69.2776 79.1264 69.2493 79.1309 69.2305 79.1339C69.2493 79.1309 69.2761 79.1171 69.295 79.1141C69.3768 79.082 69.4557 79.0313 69.5266 78.9914C69.313 78.8631 69.1631 79.1351 68.9599 79.0719C68.8762 78.9706 68.8132 78.9997 68.762 79.1033C68.6161 79.2792 68.6298 79.487 68.6623 79.6919C68.7261 79.9109 68.541 80.0834 68.5562 80.3006C68.4917 80.3204 68.4415 80.4906 68.4202 80.4176C68.2388 79.8832 67.9068 80.1651 67.6113 80.2502C67.4482 80.257 67.4203 80.3855 67.3721 80.5077C67.2692 80.7722 67.049 80.8454 66.7952 80.8284C66.6683 80.8199 66.5603 80.8085 66.4328 80.8573C66.0301 80.9977 65.9152 80.8823 65.9885 80.4315C66.2639 80.1587 66.1268 79.9036 65.9615 79.6531L65.9506 79.6452C65.7662 79.5791 65.5818 79.5129 65.3761 79.5551C65.1775 79.3385 65.1098 79.0342 64.8591 78.8544C64.7828 78.7997 64.6868 78.6814 64.6371 78.7942C64.4528 79.2149 64.1025 78.9555 63.8323 79.0175C63.7857 78.9676 63.7421 78.9364 63.7192 79.0355L63.7098 79.037C63.5873 79.0564 63.4648 79.0759 63.3424 79.0953L63.333 79.0968C63.3003 79.0734 63.2676 79.0499 63.2349 79.0265L63.224 79.0187C63.1913 78.9952 63.1586 78.9718 63.1164 78.9498C63.0837 78.9264 63.051 78.9029 63.0074 78.8717L63.006 78.8624C62.5007 78.9044 62.1282 79.1736 61.8096 79.5392C61.8016 79.55 61.7857 79.5716 61.7872 79.5809C62.0677 80.2523 61.3569 80.1552 61.1286 80.4206C61.1047 80.453 61.0809 80.4854 61.0492 80.5286C61.0253 80.5611 60.9936 80.6043 60.9697 80.6367C60.759 80.7084 60.5072 80.6434 60.3345 80.8331C60.5512 80.7987 60.7693 80.7736 60.986 80.7391C60.9801 80.7019 60.9756 80.674 60.9697 80.6367C60.9756 80.674 60.9801 80.7019 60.986 80.7391C60.989 80.7578 61.0028 80.7842 60.9963 80.8043C61.0518 80.9101 61.1087 81.0251 61.2227 81.0738C61.3361 81.1799 61.4848 81.204 61.6385 81.1987C61.8471 81.3565 61.9073 81.6142 62.0276 81.8242C62.2899 82.2599 62.2048 82.6361 61.9159 83.0066C61.8668 83.0621 61.7547 83.1467 61.8295 83.1921C62.1812 83.4608 62.0579 83.9004 62.2321 84.2069C62.3662 84.4433 62.2793 84.6862 62.346 84.9238C62.387 85.0605 62.106 84.9333 61.9865 84.9713C61.9582 84.9758 61.9156 85.0112 61.9171 85.0206C62.0074 85.4071 61.5229 85.5795 61.58 86C61.6214 86.2607 61.5334 86.6184 61.3645 86.8934C61.5124 87.3377 61.7971 87.7315 61.8725 88.2064C61.9111 88.2671 61.9438 88.2905 61.9682 88.2008C62.1174 88.1675 62.2711 88.1622 62.4278 88.1755C62.6454 88.2078 62.7952 88.1172 62.8038 87.8676C62.8779 87.6649 62.941 87.4544 63.0354 87.2581C63.2947 86.7014 63.2293 86.6545 63.8312 87.1603C63.8233 87.1711 63.8059 87.1834 63.8059 87.1834C63.8183 87.2005 63.8306 87.2177 63.8524 87.2333C63.9956 87.3442 63.9543 87.5703 64.1148 87.6689C64.1505 87.711 64.1747 87.8026 64.2123 87.7966C64.3189 87.7988 64.3041 87.7057 64.3126 87.6375C64.4194 87.4583 64.4151 87.2489 64.4123 87.0489C64.5086 86.9859 64.4834 86.8276 64.6247 86.8052C64.6848 86.7575 64.7463 86.7191 64.7954 86.6635C64.9999 86.4306 65.1984 86.1604 65.4052 86.6717C65.4571 86.8162 65.5958 86.8992 65.7492 86.7698C66.0334 86.5528 66.2529 86.7184 66.5056 86.8501C66.8208 87.0101 66.8269 87.3528 67.0081 87.5817C67.0408 87.6052 67.0844 87.6364 67.1171 87.6599C67.1384 87.7329 67.1596 87.8059 67.2409 87.8311C67.2666 87.9321 67.2655 88.0468 67.3795 88.0955C67.4122 88.1189 67.4449 88.1424 67.4885 88.1737C67.5487 88.4314 67.4824 88.8046 67.954 88.6725C67.9867 88.6959 68.0289 88.7179 68.0615 88.7413C68.233 88.8477 68.3366 88.8313 68.3294 88.6033C68.566 88.4512 68.8109 88.4123 69.0831 88.4836C69.2247 88.5852 69.365 88.6775 69.5067 88.7791C69.5063 88.6551 69.3775 88.5132 69.5541 88.4088C69.625 88.3689 69.7222 88.3726 69.7543 88.4534C69.8938 88.7844 70.0551 88.6443 70.2337 88.4918C70.4282 88.3177 70.6706 88.3842 70.8917 88.3778C70.9233 88.5159 70.9663 88.6046 71.1439 88.5668C71.3199 88.5198 71.481 88.561 71.64 88.6503C71.9145 88.7976 72.3747 88.715 72.4428 88.4751C72.5368 88.1547 72.3 88.0014 72.0576 87.9349C71.6854 87.8412 71.5775 87.6484 71.6953 87.2956C71.7518 87.2866 71.8084 87.2776 71.8649 87.2686L71.8743 87.2671C72.1509 87.3664 72.2659 87.3004 72.1606 87.0021C72.0765 86.7768 72.1064 86.6002 72.3643 86.5211C72.4744 86.4845 72.5112 86.4119 72.4949 86.3094C72.8429 85.8246 73.2542 85.4347 73.876 85.336C73.9523 85.3907 74.0415 85.4052 74.0535 85.2982C74.0805 85.103 74.0524 84.9261 73.8194 84.8581L73.8085 84.8503C73.7898 84.6719 73.703 84.7334 73.6053 84.7871C73.5667 84.7264 73.5296 84.6751 73.4815 84.6159C73.4786 84.5972 73.4836 84.5678 73.4806 84.5492C73.5486 84.4907 73.5462 84.4147 73.5343 84.3402C73.6285 84.3252 73.7133 84.3118 73.8075 84.2968C73.8887 84.5035 73.9892 84.6498 74.214 84.4232L74.2219 84.4124C74.3355 84.3371 74.4476 84.2524 74.5612 84.1771C74.6266 84.224 74.692 84.2709 74.748 84.3193C74.7729 84.1721 74.8069 83.8995 74.9412 83.9545C75.3252 84.1226 75.4054 83.7758 75.6291 83.6639C75.9157 83.5229 75.9541 83.2781 76.0352 82.998C76.1892 82.6299 75.8983 82.5615 75.7353 82.3869ZM62.5157 87.9993C62.5345 87.9963 62.5533 87.9933 62.5737 87.9996C62.5533 87.9933 62.5345 87.9963 62.5157 87.9993ZM65.6541 79.6637C65.6932 79.667 65.7309 79.661 65.7795 79.6629C65.7403 79.6595 65.6918 79.6577 65.6541 79.6637ZM66.0166 80.1216C66.0121 80.0937 66.0171 80.0642 66.0141 80.0456C66.0092 80.075 66.0121 80.0937 66.0166 80.1216ZM65.9949 79.9246C65.9905 79.8966 65.9846 79.8594 65.9801 79.8315C65.9846 79.8594 65.989 79.8873 65.9949 79.9246ZM65.9397 79.6374C65.8926 79.6449 65.8454 79.6524 65.7983 79.6599C65.8454 79.6524 65.8926 79.6449 65.9397 79.6374ZM68.4756 80.5234C68.4598 80.545 68.4518 80.5558 68.433 80.5588C68.4518 80.5558 68.4677 80.5342 68.4756 80.5234ZM68.498 80.4816C68.4901 80.4925 68.4821 80.5033 68.4742 80.5141C68.4915 80.5018 68.4995 80.491 68.498 80.4816ZM69.7039 88.3182C69.7431 88.3215 69.7837 88.3342 69.8164 88.3576C69.7837 88.3342 69.7431 88.3215 69.7039 88.3182ZM73.8743 85.0212C73.9079 85.1114 73.9495 85.1907 73.9172 85.2913C73.9495 85.1907 73.9079 85.1114 73.8743 85.0212C73.8619 85.0041 73.859 84.9855 73.856 84.9669C73.859 84.9855 73.8619 85.0041 73.8743 85.0212ZM72.3448 81.8372C72.3151 81.8323 72.2948 81.826 72.2636 81.8119C72.2948 81.826 72.3151 81.8323 72.3448 81.8372ZM74.2815 84.2406C74.2895 84.2298 74.2959 84.2097 74.3039 84.1989C74.2959 84.2097 74.2895 84.2298 74.2815 84.2406Z" fill="#DC3579"/>
<path d="M74.2239 74.3891L74.2348 74.3969C74.2362 74.4063 74.2268 74.4077 74.2283 74.4171C74.2268 74.4077 74.2362 74.4063 74.2348 74.3969C74.0375 74.371 74.0676 74.4999 74.068 74.6239C74.0214 74.574 73.8399 74.7078 73.9095 74.4772C74.002 74.1475 74.2828 73.9693 74.4545 73.7129C74.241 73.5846 73.9862 73.5009 74.0678 73.1634C74.0957 73.0349 73.9461 72.9441 73.8177 72.9263C73.5892 72.8862 73.4198 72.7317 73.2245 72.6577C72.9777 72.5633 72.7505 72.2271 72.4368 72.5633C72.3798 72.6296 72.2931 72.5097 72.2351 72.5094C71.7413 72.5019 71.2014 72.0817 70.7527 72.6016C70.5244 72.867 70.2178 73.1257 70.1986 73.4915C70.1702 74.1642 69.3144 73.8228 69.1761 74.3507C69.1631 74.391 68.998 74.4458 68.9856 74.4287C68.7434 74.1808 68.3978 74.2548 68.1118 74.157C67.9384 74.0986 67.8493 73.9028 67.8796 73.8502C68.1162 73.2113 67.4305 73.2724 67.2201 72.9813C67.1458 72.8785 66.8905 72.8523 66.7734 72.9663C66.3347 73.4274 65.7067 73.3648 65.1795 73.5727C64.9057 73.6734 64.6936 73.5543 64.5421 73.3302C64.355 73.064 64.2676 72.6961 63.8124 72.7493C63.7276 72.7627 63.6563 72.6786 63.6619 72.5918C63.682 72.2927 63.4387 72.1595 63.2663 71.9864C63.1394 71.9779 63.0125 71.9694 62.8856 71.961C62.7888 72.0813 62.6336 72.0773 62.5017 72.0983C62.2003 72.1462 61.9489 72.2052 62.0045 72.6164C62.0267 72.756 61.8699 72.9241 61.7964 73.0694C61.9757 73.165 62.1442 73.2528 62.2427 73.4472C62.2769 73.48 62.3205 73.5112 62.3547 73.544C62.3739 73.665 62.3946 73.7954 62.4138 73.9164C62.3384 73.9284 62.2769 73.9668 62.2402 74.0394C61.9515 74.2285 62.2631 74.4272 62.2347 74.6131C61.9966 74.7559 61.6475 74.8686 62.1008 75.1689C62.1444 75.2002 62.1701 75.3011 62.1478 75.3428C61.9278 75.7214 62.329 76.0586 62.2142 76.43C62.161 76.5817 62.2873 76.6475 62.3616 76.7503C62.8102 77.3854 63.103 78.074 63.0076 78.8719L63.0091 78.8812C63.0418 78.9046 63.0745 78.9281 63.1181 78.9593C63.1508 78.9828 63.1835 79.0062 63.2256 79.0282L63.2365 79.036C63.2692 79.0594 63.3019 79.0829 63.3346 79.1063L63.344 79.1048C63.4665 79.0854 63.589 79.0659 63.7114 79.0465L63.7209 79.045C63.7438 78.9459 63.7874 78.9771 63.8339 79.027C64.1042 78.965 64.4544 79.2244 64.6387 78.8038C64.6884 78.6909 64.7845 78.8092 64.8608 78.8639C65.102 79.0452 65.1791 79.348 65.3777 79.5646C65.582 79.5131 65.7664 79.5793 65.9522 79.6547C66.1176 79.9053 66.2546 80.1604 65.9793 80.4332C65.9154 80.8825 66.0209 80.9994 66.4236 80.859C66.5525 80.8195 66.6591 80.8216 66.786 80.8301C67.0398 80.8471 67.26 80.7739 67.3628 80.5094C67.4125 80.3965 67.4389 80.2587 67.602 80.2519C67.8976 80.1667 68.228 79.8756 68.411 80.4193C68.4322 80.4923 68.4824 80.3221 68.5469 80.3023C68.5238 80.0959 68.7168 79.9125 68.6531 79.6936C68.6205 79.4887 68.6069 79.2809 68.7528 79.105C68.8039 79.0014 68.8669 78.9723 68.9506 79.0736C69.1523 79.1274 69.3038 78.8647 69.5173 78.9931C69.6891 79.2236 69.9816 79.3012 70.1693 79.5101C70.3555 79.7096 70.5883 79.959 70.8925 79.6243C70.951 79.5673 71.0343 79.5445 71.1092 79.5899C71.6032 79.9028 71.8052 79.5939 71.9954 79.2105C72.0625 79.0853 72.1295 78.9601 72.2897 78.9347C72.2773 78.4307 72.188 77.9294 72.8114 77.6586C73.046 77.5545 73.1424 77.3101 73.0668 77.0166C73.0199 76.8427 72.9511 76.6532 73.108 76.4851C73.1238 76.4634 73.1397 76.4418 73.1541 76.4109C73.2548 76.3758 73.3876 76.4216 73.4314 76.2714C73.4973 76.2609 73.5197 76.2192 73.5108 76.1633C73.7103 75.9598 73.8429 75.7001 73.9363 75.4371C73.9631 75.4233 73.979 75.4017 73.9949 75.3801L74.0028 75.3693C74.1305 75.139 74.2472 74.9009 74.3951 74.6769C74.5133 74.4482 74.374 74.4225 74.2239 74.3891ZM62.2466 74.0193C62.2402 74.0394 62.2431 74.0581 62.2446 74.0674C62.2431 74.0581 62.2496 74.0379 62.2466 74.0193ZM62.249 74.0953C62.2485 74.1527 62.2683 74.2164 62.2866 74.2707C62.2668 74.207 62.2485 74.1527 62.249 74.0953ZM62.3032 74.0104C62.3582 73.9921 62.4009 73.9566 62.4203 73.8963C62.4009 73.9566 62.3582 73.9921 62.3032 74.0104ZM62.4849 73.6951C62.4745 73.6299 62.4359 73.5692 62.3611 73.5239C62.4359 73.5692 62.4745 73.6299 62.4849 73.6951Z" fill="#DC3579"/>
<path d="M64.4661 64.8846C64.428 64.7666 64.1339 64.861 64.2953 64.5394C64.4121 64.3013 64.2345 63.8522 64.0091 63.6494C63.7605 63.4216 63.3947 63.3079 63.0059 63.4746C62.7886 63.5664 62.5343 63.6068 62.4533 63.2187C62.4143 63.034 62.2098 62.7801 61.9499 62.9073C61.3592 63.2016 61.2297 62.8117 61.0878 62.4046C61.0541 62.3145 60.9952 62.2475 60.9427 62.1604C60.7576 61.8461 60.5718 61.7706 60.2834 62.0837C60.1757 62.1963 60.0897 62.5059 59.8652 62.3697C59.5333 62.1647 59.0415 62.1091 59.0188 61.54C59.0052 61.1507 58.6385 60.9703 58.2735 61.1047C57.7716 61.2894 57.2698 61.4741 56.7832 61.6945C56.1077 62.0023 55.8272 62.4859 56.0229 63.1708C56.2902 64.0638 56.3226 64.9369 56.01 65.8266C56.3634 65.9232 56.6686 66.142 56.944 66.356C57.1759 66.5388 57.3571 66.7677 57.2605 67.1935C57.1669 67.6379 57.4069 68.1153 57.5265 68.5641C57.6588 68.6672 57.7731 68.8399 57.7343 68.9606C57.5092 69.55 57.9839 69.2551 58.1143 69.2248C58.9092 69.0604 59.6716 69.178 60.4543 69.3019C60.7908 69.3534 61.1638 69.2083 61.5064 69.1157C61.7375 69.0504 61.8818 69.0465 62.008 69.2938C62.1554 69.614 62.4706 69.774 62.7684 69.9462C62.8507 69.8568 62.9346 69.7767 63.0076 69.6887C63.0955 69.5125 63.3515 69.3 63.2321 69.1566C62.9083 68.7594 63.4218 68.3438 63.14 67.9685C63.092 67.9093 63.1938 67.7595 63.2924 67.7725C63.5665 67.7958 63.6883 67.5282 63.9114 67.4737C64.1405 67.4564 64.1589 67.3294 64.1467 67.1309C64.1365 66.8843 63.9712 66.6337 64.1147 66.3818C64.4348 66.0255 64.5234 65.6105 64.4038 65.1618C64.3846 65.0407 64.4511 64.9729 64.4661 64.8846Z" fill="#DC3579"/>
<path d="M55.7291 74.3956C55.9338 73.9813 55.6578 73.8247 55.347 73.6926C55.3653 73.747 55.4416 73.8017 55.3707 73.8416C55.3171 73.8692 55.2329 73.8253 55.1546 73.8187C54.6726 73.8856 54.3183 73.7224 54.1125 73.2778C53.9403 72.9233 53.7098 72.9312 53.4393 73.1747C53.3461 73.2563 53.2761 73.3629 53.1843 73.4538C52.8453 73.8131 52.7749 73.3088 52.5558 73.2672C52.4091 73.1951 52.3681 73.0584 52.3082 72.9247C52.2467 72.9631 52.1946 73 52.1346 73.0478C51.9237 73.3008 51.5396 73.1327 51.3257 73.3671C51.0727 73.5982 50.8093 73.7642 50.4684 73.5033C50.3727 73.5089 50.2736 73.5533 50.1899 73.4521C50.0475 73.5892 49.8646 73.5324 49.6985 73.5205C49.8009 73.8002 49.9032 74.0799 49.8658 74.3913C49.8588 74.4688 49.8359 74.5679 49.873 74.6192C50.3156 75.2172 49.9954 75.7549 49.7564 76.3178C49.665 76.5328 49.5603 76.664 49.3556 76.5915C49.1321 76.522 48.9163 76.6231 48.8369 76.7311C48.551 77.1202 48.1285 77.1968 47.7273 77.3465C47.4803 77.4334 47.3176 77.5643 47.3649 77.8622C47.4128 78.1028 47.2238 78.1901 47.0289 78.2401C46.779 78.3085 46.5662 78.4282 46.4183 78.6521C46.2411 78.8139 46.1538 78.9328 46.4024 79.1606C46.6387 79.3712 46.8628 79.3834 47.0954 79.3274C47.4207 79.2471 47.4656 79.469 47.3717 79.608C47.2238 79.832 47.3448 79.8032 47.495 79.8367C48.0754 79.964 48.1016 80.0076 47.819 80.5393C47.808 80.7129 47.8063 80.885 47.7953 81.0586C48.1455 81.318 48.5856 81.5344 48.7557 81.937C48.9368 82.3473 49.264 82.4004 49.6079 82.4985C49.7095 82.5301 49.8355 82.4719 49.9177 82.5638C50.2421 82.9037 50.6358 82.8889 51.0385 82.7486C51.1352 82.6282 51.2985 82.44 51.4184 82.526C51.6626 82.7258 51.8716 82.5208 52.0941 82.5237C52.4719 82.5305 52.5822 82.3125 52.4333 81.983C52.3872 81.8757 52.3665 81.7454 52.3567 81.6228C52.3196 81.0846 52.0145 80.6844 51.6574 80.3211C51.5083 80.173 51.4411 79.9927 51.4536 79.8285C51.4632 79.6456 51.6407 79.6078 51.8207 79.6461C51.9005 79.662 52.0309 79.6318 52.088 79.5654C52.481 79.1212 53.0283 79.1011 53.5544 79.008C53.821 78.6793 53.9299 78.2706 54.0621 77.8869C54.0747 77.7226 54.1061 77.5553 54.0889 77.3862C54.0304 76.775 54.5471 76.6834 54.887 76.3908C55.2015 76.1213 55.5608 75.7683 55.4889 75.2547C55.71 75.2482 55.7785 75.1324 55.7192 74.9413C55.9231 74.7657 55.6333 74.5827 55.7291 74.3956ZM55.5302 74.5418C55.5317 74.5511 55.5346 74.5697 55.5361 74.579C55.5346 74.5697 55.5317 74.5511 55.5302 74.5418ZM55.5376 74.5883C55.5391 74.5976 55.542 74.6163 55.5529 74.6241C55.5514 74.6148 55.5485 74.5961 55.5376 74.5883ZM55.5529 74.6241C55.6004 74.7406 55.6747 74.8434 55.7207 74.9506C55.6747 74.8434 55.6004 74.7406 55.5529 74.6241ZM55.6542 75.0185C55.6542 75.0185 55.6448 75.02 55.6542 75.0185C55.6448 75.02 55.6542 75.0185 55.6542 75.0185ZM55.5228 74.4952C55.5243 74.5045 55.5272 74.5231 55.5287 74.5325C55.5272 74.5231 55.5257 74.5138 55.5228 74.4952ZM55.5892 75.0956C55.5812 75.1064 55.5827 75.1157 55.5748 75.1265C55.5733 75.1172 55.5812 75.1064 55.5892 75.0956ZM55.1991 73.9166C55.2268 73.9695 55.261 74.0022 55.322 74.0212C55.261 74.0022 55.2253 73.9602 55.1991 73.9166ZM55.535 75.1806C55.5271 75.1914 55.5206 75.2115 55.5142 75.2316C55.5206 75.2115 55.5271 75.1914 55.535 75.1806ZM55.588 74.2367C55.5641 74.2691 55.5512 74.3093 55.5368 74.3402C55.5512 74.3093 55.5656 74.2784 55.588 74.2367C55.6183 74.1841 55.6109 74.1376 55.5861 74.1033C55.6109 74.1376 55.6183 74.1841 55.588 74.2367ZM55.5213 74.4859C55.5198 74.4766 55.5169 74.458 55.5248 74.4472C55.5278 74.4658 55.5198 74.4766 55.5213 74.4859ZM55.5233 74.4378C55.5204 74.4192 55.5283 74.4084 55.5254 74.3898C55.5283 74.4084 55.5219 74.4285 55.5233 74.4378ZM55.5254 74.3898C55.5318 74.3697 55.5304 74.3604 55.5368 74.3402C55.5398 74.3589 55.5333 74.379 55.5254 74.3898Z" fill="#DC3579"/>
<path d="M57.2499 67.1857C57.3386 66.7707 57.1558 66.5325 56.9334 66.3482C56.658 66.1342 56.3622 65.9139 55.9994 65.8188C55.5494 66.148 55.1643 66.5814 54.5876 66.7208C53.8994 66.8873 53.3918 67.3402 52.8347 67.7246C52.4874 67.9707 52.5104 68.3584 52.4664 68.69C52.4345 68.9146 52.7781 68.8887 52.9987 68.9396C52.8548 69.0674 52.7317 69.1442 52.6429 69.2538C52.2672 69.6857 51.8413 69.8011 51.2509 69.7326C50.5916 69.6559 49.8994 69.7372 49.2217 69.7876C48.9158 69.8075 48.3852 69.3859 48.4742 69.0949C48.5324 68.9138 48.6044 68.7592 48.4221 68.645C48.2506 68.5385 47.9948 68.5696 47.8777 68.6837C47.5452 69.0229 47.1765 68.8905 46.8087 68.8248C46.7289 68.8089 46.657 68.7821 46.5802 68.7847C46.5033 68.7874 46.4186 68.8009 46.3957 68.9C46.3792 68.9789 46.4258 69.0288 46.4867 69.0478C46.7559 69.1005 46.7086 69.2894 46.7288 69.4771C46.7622 69.7486 46.8611 70.067 47.0761 70.2047C47.796 70.6631 47.8658 71.4062 48.0158 72.1078C48.0864 72.4307 48.0975 72.7439 48.4027 72.9628C48.6861 73.166 48.4105 73.1334 48.3019 73.1792C48.4946 73.8455 48.7349 73.96 49.1731 73.5564C49.3328 73.4069 49.529 73.5476 49.7095 73.5284C49.8741 73.5309 50.057 73.5878 50.2009 73.46C50.2737 73.5534 50.3823 73.5075 50.4794 73.5112C50.8109 73.7736 51.0743 73.6076 51.3273 73.3765C51.5506 73.1406 51.9253 73.3102 52.1456 73.0557C52.2071 73.0172 52.2592 72.9803 52.3193 72.9326C52.3791 73.0663 52.4201 73.203 52.5668 73.2751C52.778 73.3275 52.8563 73.821 53.1953 73.4617C53.2762 73.3629 53.3571 73.2642 53.4503 73.1826C53.7208 72.9391 53.9607 72.9297 54.1235 73.2857C54.3387 73.7288 54.6836 73.8935 55.1656 73.8266C55.2345 73.8347 55.3187 73.8786 55.3817 73.8495C55.4541 73.8189 55.3763 73.7549 55.3581 73.7005C55.3553 73.5005 55.3852 73.3239 55.5965 73.1949C55.9482 72.9768 55.8399 72.6599 55.6398 72.4339C55.1698 71.9072 55.1445 71.9303 55.77 71.6114C55.8677 71.5577 55.9669 71.5133 56.0661 71.4689C56.2114 71.3504 56.3938 71.4646 56.556 71.3911C56.7464 71.3131 56.9572 71.2415 56.7606 70.9768C56.7938 70.9429 56.8162 70.9011 56.8494 70.8672C56.8812 70.824 56.9035 70.7822 56.9353 70.739C56.9399 70.5856 56.943 70.4228 56.9382 70.2708C56.9308 70.2243 56.922 70.1684 56.9146 70.1218C56.7562 69.7938 57.0793 69.9429 57.1726 69.8613C57.1914 69.8583 57.2197 69.8538 57.2386 69.8508C57.2703 69.8076 57.3021 69.7644 57.3339 69.7211C57.2187 69.3003 57.6201 68.9693 57.5347 68.5533C57.3948 68.0982 57.1563 67.6302 57.2499 67.1857ZM56.0563 71.3464C56.0836 71.2752 56.156 71.2446 56.2343 71.2513C56.156 71.2446 56.0821 71.2659 56.0563 71.3464Z" fill="#DC3579"/>
<path d="M78.4635 87.9486C78.3739 87.8101 78.5076 87.4357 78.1738 87.5841C77.8748 87.708 77.5896 87.8583 77.2613 87.92C77.0973 87.8601 76.9412 87.7895 76.7801 87.7482C76.2954 87.6152 75.9451 87.3558 75.9347 86.8038C75.911 86.6548 75.7317 86.5592 75.7898 86.3781C75.8464 86.3692 75.8781 86.3259 75.8693 86.2701C76.0067 86.1623 75.9924 86.0119 75.9703 85.8722L75.9847 85.8413C76.065 85.7999 76.2935 85.8399 76.2148 85.7093C76.0836 85.4914 76.1935 85.1494 75.859 85.0498C75.6235 85.0872 75.3056 85.2141 75.2191 84.9128C75.1356 84.6301 74.9676 84.485 74.7526 84.3473C74.6872 84.3004 74.6218 84.2535 74.5658 84.2052C74.4522 84.2805 74.3401 84.3651 74.2265 84.4404L74.2186 84.4512C73.9923 84.6685 73.8933 84.5315 73.8122 84.3248C73.718 84.3398 73.6332 84.3533 73.539 84.3682C73.5508 84.4427 73.5532 84.5187 73.4852 84.5772C73.4882 84.5959 73.4926 84.6238 73.4861 84.6439C73.5248 84.7046 73.5619 84.756 73.6099 84.8152C73.6982 84.763 73.7945 84.6999 73.8131 84.8783L73.824 84.8862C74.057 84.9542 74.0771 85.1419 74.0581 85.3263C74.0461 85.4332 73.9569 85.4187 73.8806 85.364C73.2588 85.4628 72.8475 85.8526 72.4995 86.3375C72.5064 86.4414 72.4805 86.5219 72.3689 86.5491C72.1111 86.6283 72.0812 86.8048 72.1652 87.0301C72.28 87.3269 72.1555 87.3944 71.8789 87.2952L71.8695 87.2967C71.813 87.3056 71.7565 87.3146 71.6999 87.3236C71.5806 87.6671 71.6885 87.86 72.0622 87.9629C72.3031 88.0201 72.5414 88.1827 72.4474 88.5031C72.3793 88.743 71.9192 88.8257 71.6446 88.6783C71.4856 88.589 71.326 88.5571 71.1485 88.5949C70.9724 88.6419 70.9279 88.544 70.8963 88.4058C70.6737 88.403 70.4328 88.3458 70.2383 88.5198C70.0691 88.6708 69.8985 88.8125 69.759 88.4814C69.7268 88.4006 69.6296 88.397 69.5587 88.4369C69.3806 88.532 69.5109 88.6831 69.5113 88.8071C69.7778 88.9653 69.593 89.4433 70.0079 89.5015C70.0271 89.6225 70.0478 89.7529 70.0764 89.8724C69.8895 89.9117 69.8051 90.0492 69.7534 90.2101L69.7455 90.2209C69.5966 90.3782 69.7189 90.5401 69.7331 90.6906C69.6605 90.9026 69.4095 91.0857 69.3772 91.1862C69.2574 91.5871 68.8774 91.8097 68.7749 92.1983C68.7764 92.2076 68.7888 92.2247 68.7997 92.2326C69.0084 92.209 69.2077 92.1868 69.4165 92.1632C69.5498 92.1516 69.6564 92.1538 69.7525 92.2722C70.0654 92.6616 70.351 92.6353 70.581 92.1979C70.6848 92 70.8785 92.0647 70.931 92.1518C71.1627 92.5159 71.4638 92.344 71.7202 92.2556C71.9671 92.1686 72.0876 92.1972 72.1181 92.4501C72.1436 92.7325 72.2988 92.7364 72.5402 92.7363C72.9071 92.7353 73.3057 92.6911 73.5259 93.1048C73.5675 93.1841 73.7301 93.2346 73.7639 93.1433C73.8941 92.8077 74.234 93.0019 74.3982 92.8803C74.6681 92.6943 74.9967 92.7566 75.2963 92.5754C75.7363 92.3051 76.0483 92.141 76.0508 91.5487C76.0596 91.1178 76.6254 90.9706 76.8439 90.5827C77.0689 90.1747 77.4063 89.8061 77.8413 89.5652C78.3109 89.4811 78.1417 89.1452 78.1176 88.8722C78.2438 88.6326 78.5072 88.4667 78.4851 88.1456C78.5596 88.067 78.6623 87.9839 78.4635 87.9486ZM72.2818 90.7441C72.2535 90.7486 72.2253 90.753 72.1955 90.7482C72.2253 90.753 72.2535 90.7486 72.2818 90.7441C72.3557 90.7228 72.4528 90.7264 72.4772 90.6367C72.4528 90.7264 72.3571 90.7321 72.2818 90.7441Z" fill="#DC3579"/>
<path d="M49.8932 74.6255C49.856 74.5742 49.8695 74.4766 49.8859 74.3976C49.9234 74.0862 49.8116 73.808 49.7187 73.5268C49.5382 73.546 49.342 73.4053 49.1822 73.5548C48.7426 73.9491 48.5023 73.8346 48.311 73.1776C48.1176 73.237 47.9257 73.3056 47.7308 73.3557C47.6287 73.3815 47.4606 73.4177 47.424 73.309C47.2812 72.8353 47.1153 73.1289 46.9149 73.2657C46.7239 73.401 46.4986 73.685 46.2682 73.5116C45.9601 73.2742 45.7591 73.4684 45.5681 73.6037C45.3488 73.7435 45.2855 74.1354 45.0158 74.1401C44.7273 74.1477 44.6116 73.7842 44.3921 73.6186C44.3035 73.5468 44.2322 73.4627 44.1544 73.3986C43.8745 73.1567 43.5922 72.8388 43.1463 73.0719C42.9226 73.1838 42.7207 73.3113 42.4451 73.2787C42.337 73.2672 42.1634 73.3903 42.2124 73.5161C42.3835 73.9854 42.1034 73.9248 41.8154 73.8751C41.6871 73.8573 41.5616 73.8581 41.4866 73.9941C41.4196 74.1193 41.2986 74.1481 41.2085 74.067C41.0485 73.911 40.9264 74.0545 40.7865 74.0862C40.5808 74.1285 40.4829 74.3636 40.298 74.3547C39.7527 74.3268 39.4182 74.714 39.0456 74.9832C38.7345 75.214 38.8988 75.5793 39.0106 75.8574C39.1239 76.1449 39.3259 75.836 39.497 75.8184C39.668 75.8008 39.8307 75.6699 40.0009 75.5856C39.9379 76.1015 40.3489 75.5876 40.4439 75.8207C40.2786 76.057 40.01 75.9469 39.7903 75.9627C39.7244 75.9732 39.6422 75.8812 39.5925 75.9941C39.5572 76.0761 39.5219 76.1581 39.6309 76.2362C39.7087 76.3002 39.7547 76.4075 39.8428 76.5367C39.8702 76.4655 39.8925 76.4238 39.9054 76.3835C40.0177 76.1175 40.201 76.2984 40.3497 76.3225C40.4687 76.3418 40.5509 76.4338 40.5418 76.5593C40.5382 76.7794 40.3335 76.7069 40.2154 76.7543C40.0518 76.8185 39.8866 76.8734 39.723 76.9375C39.5955 76.9864 39.3903 76.9713 39.4199 77.1575C39.445 77.3158 39.6369 77.2471 39.7529 77.2478C40.1575 77.2408 40.4017 77.4407 40.5427 77.781C40.6654 78.067 40.9004 78.087 41.1331 77.8495C41.3673 77.6214 41.6392 77.3873 41.9715 77.7164C42.085 77.8225 42.2095 77.755 42.3284 77.7743C43.1314 77.9045 44.0924 77.7519 44.473 78.9324C44.4002 78.3521 44.5564 78.2414 44.9906 78.4206C45.1873 78.5039 45.3334 78.6335 45.5948 78.5156C45.8735 78.3854 46.2277 78.2432 46.4479 78.6569C46.5973 78.4423 46.8086 78.3133 47.0585 78.2449C47.2534 78.1949 47.4424 78.1076 47.3945 77.867C47.3363 77.5612 47.5099 77.4382 47.7569 77.3513C48.1596 77.2109 48.5806 77.125 48.8665 76.7359C48.9459 76.6279 49.1602 76.5175 49.3852 76.5963C49.5993 76.6673 49.6946 76.5376 49.786 76.3226C50.0156 75.7611 50.3358 75.2234 49.8932 74.6255ZM44.956 78.2638C44.9763 78.2701 44.9872 78.278 45.0061 78.275C44.9966 78.2765 44.9763 78.2701 44.956 78.2638ZM45.0234 78.2627C45.0408 78.2504 45.0582 78.2381 45.0755 78.2258C45.0458 78.2209 45.024 78.2053 44.9942 78.2005C45.024 78.2053 45.0458 78.2209 45.0755 78.2258C45.0582 78.2381 45.0423 78.2597 45.0234 78.2627Z" fill="#DC3579"/>
<path d="M62.9685 70.6591C62.9747 70.3335 62.9904 70.0065 62.9951 69.6716C62.9128 69.7611 62.8289 69.8412 62.7559 69.9292C62.4582 69.7569 62.143 69.5969 61.9956 69.2767C61.8788 69.028 61.7345 69.0318 61.494 69.0986C61.1528 69.2005 60.769 69.3378 60.4418 69.2848C59.6606 69.1702 58.8983 69.0526 58.1019 69.2077C57.9715 69.238 57.4968 69.5329 57.7219 68.9435C57.7622 68.8321 57.6463 68.6501 57.5141 68.547C57.5994 68.963 57.1981 69.294 57.3132 69.7148C57.2814 69.7581 57.2497 69.8013 57.2179 69.8445C57.199 69.8475 57.1708 69.852 57.1519 69.855C57.0572 69.9273 56.7356 69.7875 56.8939 70.1155C56.9013 70.1621 56.9102 70.218 56.9176 70.2645C56.913 70.418 56.9098 70.5807 56.9147 70.7327C56.9906 70.6634 57.017 70.5256 57.1627 70.531C57.417 71.1589 57.7972 71.7285 58.2106 72.2642C58.2433 72.2877 58.2869 72.319 58.3196 72.3424C58.4693 72.4332 58.7028 72.4438 58.7477 72.6658C58.8419 73.1377 59.081 73.0615 59.3761 72.8524C59.7655 72.6283 60.1104 72.793 60.4474 72.9686C60.5196 73.1194 60.3802 73.2752 60.4177 73.4506C60.8198 73.3677 61.2055 73.3637 61.5428 73.1765C61.6326 73.1336 61.7209 73.0814 61.8106 73.0385C61.8827 72.8839 62.0315 72.7266 62.0188 72.5854C61.9631 72.1742 62.216 72.1245 62.516 72.0673C62.6479 72.0464 62.8031 72.0504 62.8999 71.93C63.0268 71.9385 63.1537 71.947 63.2806 71.9555C63.0982 71.8412 62.9883 71.6964 63.0768 71.4628C63.1314 71.3205 63.1752 71.1703 63.1407 71.0136C63.2901 70.7989 62.9167 70.82 62.9685 70.6591Z" fill="#DC3579"/>
<path d="M62.2484 84.1853C62.0727 83.8695 62.2055 83.4284 61.8458 83.1705C61.7695 83.1158 61.8831 83.0405 61.9322 82.985C62.2211 82.6145 62.3062 82.2383 62.0439 81.8026C61.9142 81.5941 61.8648 81.3442 61.6548 81.1771C61.5011 81.1825 61.3618 81.1568 61.2389 81.0523C61.1141 80.9957 61.068 80.8885 61.0126 80.7827C61.0097 80.7641 61.0052 80.7362 61.0023 80.7176C60.7856 80.752 60.5674 80.7771 60.3508 80.8115C59.9288 80.8307 59.504 80.8314 59.1314 81.1006C58.9714 80.9446 58.8489 80.9641 58.7452 81.1619C58.4199 81.2422 58.0931 81.3132 57.775 81.1346C57.6418 80.9649 57.4971 80.8446 57.2895 80.7535C57.0927 80.6702 56.9104 80.556 56.8101 80.2283C56.684 79.7996 56.2501 79.439 55.8974 79.1036C55.728 78.9491 55.5498 79.2256 55.3717 79.3207C55.206 79.433 55.0656 79.5221 54.9502 79.4641C55.0751 79.5206 55.2154 79.4315 55.3717 79.3207C55.1094 79.3719 54.9225 79.4112 54.8068 79.0477C54.7475 78.8567 54.4323 78.6967 54.1309 78.7446C54.0582 78.4697 54.0327 78.1874 54.084 77.9024C53.9424 78.2877 53.8429 78.6949 53.5763 79.0236C53.0503 79.1167 52.5029 79.1368 52.1099 79.581C52.0607 79.6366 51.9303 79.6668 51.8426 79.6617C51.6641 79.6327 51.4851 79.6611 51.4755 79.844C51.4645 80.0176 51.5303 80.1885 51.6793 80.3367C52.0365 80.7 52.3509 81.0987 52.3787 81.6384C52.3885 81.761 52.4092 81.8913 52.4552 81.9986C52.6041 82.3281 52.4938 82.5461 52.1161 82.5393C51.8935 82.5364 51.6925 82.7306 51.4403 82.5416C51.3299 82.4541 51.1651 82.633 51.0604 82.7642C51.0752 82.8573 51.09 82.9504 51.1142 83.042C51.0135 83.0771 50.947 83.1449 50.9553 83.2582C50.6601 83.4673 50.3976 83.2131 50.1235 83.1898C50.0452 83.1832 49.9639 83.1579 49.9192 83.2413C49.8904 83.3032 49.932 83.3825 49.99 83.3828C50.3256 83.3677 50.6411 83.6517 50.9849 83.4444C51.3486 83.6062 51.3989 83.9227 51.4145 84.2639C51.4228 84.3772 51.4499 84.4874 51.3131 84.5378C51.203 84.5743 51.1128 84.4932 51.0901 84.4109C50.9877 84.1312 50.7483 84.0833 50.4965 84.0183C50.5147 84.2541 50.5725 84.4358 50.7816 84.5363C50.9689 84.6211 51.1378 84.8329 51.1005 84.9629C50.996 85.3995 51.339 85.431 51.5635 85.5671C51.8642 85.758 52.1729 85.9381 52.4722 86.1197C52.6981 86.2652 52.8075 86.4673 52.8142 86.7527C52.533 86.32 51.9529 86.3167 51.6891 85.8717C51.5589 86.2074 51.6678 89.0825 51.8472 89.665C51.8925 89.5242 51.8915 89.4575 51.9327 89.4128C52.1089 89.1843 52.1945 89.4189 52.2941 89.4986C52.3827 89.5704 52.3658 89.7067 52.2498 89.7061C51.7401 89.7202 51.8885 90.1071 51.8972 90.3444C51.9832 91.6767 51.9141 93.005 51.8355 94.3348C51.8078 94.7687 51.6176 95.1521 51.1381 95.2951C51.1194 95.6035 51.2373 95.7376 51.5522 95.5921C51.6836 96.1153 51.9588 95.5371 52.1412 95.6513C52.1897 95.6531 52.2368 95.6456 52.2854 95.6475C52.2958 95.7126 52.3046 95.7685 52.3244 95.8322C52.4223 96.0839 52.0454 96.3252 52.2861 96.5638C52.5486 96.818 52.7874 96.4364 53.0486 96.4999C53.2245 96.6343 53.4471 96.6371 53.6538 96.6616C53.6662 96.6787 53.6865 96.685 53.7053 96.682C54.0408 96.8483 54.4638 96.7143 54.7684 96.9905C54.8194 97.0683 54.8784 97.1353 54.9864 97.1468L54.9785 97.1576C55.2059 97.3124 55.4885 97.2675 55.7495 97.0256L55.751 97.0349C55.8482 97.0386 55.9468 97.0515 56.0346 97.0567C55.7874 96.8382 55.8437 96.5238 55.7993 96.2445C55.789 96.1793 55.8019 96.1391 55.8337 96.0958C55.8098 96.1283 55.789 96.1793 55.7993 96.2445C55.8782 96.1938 55.9447 96.1259 55.9676 96.0268C55.9192 95.8436 56.0333 95.7109 56.085 95.55C56.1074 95.5082 56.1406 95.4743 56.163 95.4326C55.8258 94.9516 56.1257 94.4076 56.0162 93.8999C55.9711 93.8594 55.923 93.8002 55.873 93.789C55.6916 93.7415 55.3519 93.8527 55.4111 93.5569C55.5018 93.0939 55.1186 92.5056 55.7535 92.1852C55.7803 92.1714 55.8056 92.1483 55.8309 92.1252C56.173 92.5768 56.1379 91.9905 56.3154 91.9528C56.8197 91.8441 57.2216 91.4557 57.7581 91.4278C58.18 91.4085 58.6046 90.6156 58.3982 90.2283C58.3442 90.1319 58.2511 90.0321 58.4301 90.0037C58.7881 89.9468 58.7833 89.7949 58.6433 89.5212C58.431 89.0967 58.8551 88.848 59.0085 88.5372C59.2211 88.1121 59.6037 87.7841 59.4649 87.2143C59.4031 86.9472 59.7593 86.757 59.9475 86.9085C60.4578 87.3238 60.9042 87.0334 61.3788 86.9198C61.5476 86.6448 61.6342 86.2779 61.5943 86.0265C61.5357 85.5967 62.0217 85.4336 61.9313 85.047C61.9298 85.0377 61.9725 85.0023 62.0007 84.9978C62.1297 84.9582 62.4012 85.0869 62.3602 84.9503C62.297 84.6739 62.384 84.431 62.2484 84.1853ZM52.9284 87.1068C52.9239 87.0789 52.9195 87.051 52.9151 87.023C52.9289 87.0495 52.9334 87.0774 52.9284 87.1068ZM53.3178 87.8564C53.3258 87.8456 53.3417 87.8239 53.3496 87.8131C53.3417 87.8239 53.3352 87.8441 53.3178 87.8564ZM59.6064 85.3685C59.6897 85.3457 59.7015 85.4202 59.7198 85.4746C59.7272 85.5212 59.7252 85.5692 59.7123 85.6094C59.7252 85.5692 59.7272 85.5212 59.7198 85.4746C59.7015 85.4202 59.6897 85.3457 59.6064 85.3685Z" fill="#DC3579"/>
<path d="M75.7778 73.4073C75.9499 73.275 75.8598 73.1938 75.7305 73.1094C75.7467 73.2118 75.7615 73.3049 75.7778 73.4073Z" fill="#DC3579"/>
<path d="M76.776 67.2254C76.7379 67.1073 76.5837 67.17 76.485 67.157C76.3661 67.1377 76.2486 67.1278 76.1311 67.1178C76.0395 67.0273 75.9434 66.909 75.8257 67.0804C75.556 67.085 75.3021 67.2494 75.0211 67.1222C74.9365 66.9543 74.7054 67.0197 74.6034 66.864C74.4475 66.612 74.2803 66.7149 74.122 66.8737C74.0937 66.8781 74.0669 66.8919 74.0496 66.9042C73.6816 67.02 73.3177 67.0396 72.9813 66.8066C72.8762 66.8138 72.726 66.7803 72.658 66.8389C72.3102 67.1423 72.1369 66.9025 71.9622 66.6535C71.93 66.5726 71.877 66.5429 71.7937 66.5657C71.6564 66.0052 71.4319 65.869 70.8102 65.9677L70.8116 65.977C70.4089 65.6305 70.2231 66.0419 69.9706 66.2156C69.9096 66.1967 69.8487 66.1777 69.7877 66.1587C69.4484 65.9072 69.0935 65.8012 68.6932 66.0175C68.5151 66.1126 68.3441 66.1303 68.2029 65.9713C67.8937 65.8486 67.6465 65.6301 67.3026 65.532C67.0587 65.4562 66.8298 65.2921 66.5457 65.3276C66.2464 65.1461 66.466 64.6434 66.0358 64.5495C66.1311 64.4198 66.045 64.2426 66.1795 64.1162C66.2554 64.0469 66.2659 63.9307 66.1519 63.8819C66.0801 63.8552 65.9631 63.7878 65.8946 63.9037C65.8196 64.0397 65.5776 64.0972 65.6122 64.254C65.6893 64.5568 65.4428 64.5864 65.3113 64.7314C65.0498 65.0306 64.7139 64.7403 64.4396 64.8984C64.4247 64.9867 64.3676 65.0531 64.3948 65.1633C64.5049 65.6136 64.4163 66.0286 64.1056 66.3834C64.1486 66.472 64.1823 66.5621 64.1971 66.6552C64.1823 66.5621 64.1486 66.472 64.1056 66.3834C63.9621 66.6353 64.118 66.8873 64.1376 67.1324C64.1498 67.3309 64.1314 67.458 63.9023 67.4752C63.6683 67.522 63.556 67.788 63.2833 67.774C63.1862 67.7703 63.0829 67.9108 63.131 67.97C63.4127 68.3453 62.8992 68.761 63.2231 69.1582C63.333 69.303 63.0849 69.5047 62.9985 69.6902C62.9922 70.0158 62.9766 70.3428 62.9718 70.6777C62.9107 70.8401 63.2855 70.8283 63.1252 71.0352C63.1597 71.192 63.1159 71.3421 63.0613 71.4844C62.9728 71.718 63.0827 71.8629 63.2651 71.9771C63.4295 72.161 63.6807 72.2834 63.6606 72.5825C63.6551 72.6693 63.7249 72.7441 63.8112 72.7399C64.2664 72.6867 64.3538 73.0547 64.5409 73.3209C64.7018 73.5435 64.906 73.6734 65.1782 73.5633C65.7069 73.3648 66.3335 73.4181 66.7722 72.957C66.8799 72.8444 67.1446 72.8692 67.2189 72.972C67.4293 73.2631 68.1165 73.2113 67.8784 73.8409C67.859 73.9013 67.9481 74.0971 68.1106 74.1477C68.3966 74.2455 68.7422 74.1715 68.9844 74.4194C69.0062 74.435 69.1713 74.3802 69.1749 74.3414C69.3037 73.815 70.1596 74.1564 70.1974 73.4822C70.2166 73.1164 70.5232 72.8577 70.7515 72.5923C71.2016 72.0817 71.7401 72.4926 72.2339 72.5001C72.2919 72.5004 72.3786 72.6203 72.4356 72.554C72.7493 72.2178 72.9765 72.554 73.2233 72.6484C73.428 72.7209 73.5895 72.8862 73.8165 72.917C73.9449 72.9348 74.0945 73.0256 74.0666 73.1541C73.9865 73.5009 74.2412 73.5845 74.4533 73.7036C74.2721 73.9615 74.0008 74.1382 73.9083 74.4679C73.8386 74.6985 74.0202 74.5647 74.0668 74.6146C74.057 74.492 74.0363 74.3617 74.2336 74.3876L74.2227 74.3798C74.3133 73.9168 74.3778 73.897 74.8296 74.188C74.8422 74.0237 74.7664 73.9116 74.6574 73.8335C74.7585 73.9224 74.8328 74.0252 74.8296 74.188C75.0334 74.1938 75.2248 74.1825 75.3984 74.0594C75.6444 73.9058 75.7111 73.6566 75.7763 73.398C75.76 73.2956 75.7452 73.2025 75.729 73.1001C75.6948 73.0673 75.6497 73.0268 75.6155 72.994C75.5024 72.5251 75.7562 72.0553 75.6148 71.5909C75.5291 71.5377 75.4731 71.4893 75.436 71.4379C75.4731 71.4893 75.5385 71.5362 75.6148 71.5909C75.5184 71.3485 75.5161 71.0911 75.5719 70.834C75.5387 70.8679 75.5148 70.9004 75.491 70.9328C75.5148 70.9004 75.5481 70.8664 75.5719 70.834L75.5581 70.8076C75.5789 70.7565 75.6092 70.704 75.6301 70.653C75.8052 70.5392 75.7047 70.3929 75.6731 70.2547C75.903 69.8173 75.8385 69.3503 75.8335 68.8929C75.8573 68.8604 75.8529 68.8325 75.8296 68.8076L75.8202 68.8091C75.897 68.8064 75.9208 68.774 75.8996 68.701C75.9982 68.714 76.0474 68.6584 76.0717 68.5686C76.1997 68.4624 76.2747 68.3264 76.3061 68.1591L76.2952 68.1513C76.4048 68.1721 76.4306 68.0916 76.4689 68.0283C76.6504 67.8944 76.602 67.7112 76.5833 67.5328C76.7093 67.4746 76.817 67.3621 76.776 67.2254ZM75.7683 73.4088C75.5685 73.4883 75.4543 73.621 75.4135 73.7898C75.4543 73.621 75.5685 73.4883 75.7683 73.4088Z" fill="#DC3579"/>
<rect x="170.35" y="20.2998" width="10.1681" height="18.9804" fill="#307205"/>
<rect x="180.518" y="20.2998" width="10.1681" height="18.9804" fill="#AFE868"/>
<rect x="190.686" y="20.2998" width="10.1681" height="18.9804" fill="#DC3579"/>
<path d="M259.748 26.3313H212.507V88.2874H259.748V26.3313Z" fill="#AFE868"/>
<path d="M250.45 62.1667C250.236 62.1667 250.022 62.1667 249.808 62.1667C249.274 62.1667 248.74 62.2746 248.312 62.4905C247.991 62.5985 247.671 62.7064 247.35 62.5985C247.671 61.8429 247.991 61.0873 248.312 60.3318C248.419 60.1159 248.526 59.7921 248.74 59.5762C249.274 58.7127 250.343 58.3889 251.412 58.3889C250.77 58.3889 250.129 58.281 249.488 58.4968C248.846 58.7127 248.312 59.2524 247.884 59.7921C247.243 60.6556 246.709 61.735 245.854 62.4905C245.106 63.1381 244.144 63.354 243.182 63.2461C242.968 63.2461 242.861 63.1381 242.754 63.0302C242.754 62.9223 242.754 62.9223 242.754 62.8143C242.968 62.2746 243.609 61.8429 243.609 61.3032C243.182 61.735 242.754 62.1667 242.434 62.5985C242.327 62.7064 242.113 62.9223 242.006 62.9223C241.792 62.9223 241.579 62.7064 241.472 62.5985C240.937 61.9508 240.296 61.3032 239.762 60.6556C240.082 61.627 240.617 62.5985 241.365 63.2461C240.723 63.7858 239.655 63.7858 238.906 63.2461C238.158 62.7064 237.731 61.8429 237.517 60.9794C237.303 60.008 237.41 58.9286 237.196 57.9571C237.196 57.7413 237.09 57.6333 236.876 57.5254C236.662 57.4175 236.448 57.4175 236.341 57.6333C236.555 57.4175 235.486 56.2301 236.234 56.2301C235.059 56.3381 233.99 55.4746 233.669 54.3952C235.486 55.1508 237.624 55.0428 239.441 54.2873C240.296 53.8555 241.151 53.3158 242.006 52.8841C242.861 52.4523 243.823 52.0206 244.785 52.0206C245.747 52.0206 246.816 52.3444 247.35 53.2079C246.495 52.6682 245.319 52.5603 244.357 52.7761C243.289 52.992 242.434 53.5317 241.579 54.2873C243.075 54.719 244.571 55.1508 246.068 55.5825C245.319 55.9063 244.464 55.6905 243.716 55.3666C242.968 55.0428 242.113 54.827 241.365 55.0428C242.006 55.2587 242.54 55.5825 243.075 55.9063C241.472 55.5825 239.868 55.5825 238.265 55.9063C240.189 56.1222 242.327 56.446 243.823 57.7413C244.892 58.6048 245.747 59.9 247.35 59.5762C247.884 59.4683 248.419 59.1445 248.953 58.9286C249.06 58.8206 249.274 58.8206 249.381 58.7127C249.595 58.6048 249.701 58.6048 249.915 58.4968C250.022 58.3889 249.915 58.173 249.808 58.173C249.701 58.173 249.488 58.281 249.381 58.3889C248.633 58.9286 247.564 59.1445 246.709 58.8206C246.602 58.7127 246.602 58.7127 246.495 58.6048C246.388 58.4968 246.281 58.3889 246.174 58.173C246.068 57.8492 246.388 57.6333 246.602 57.4175C248.419 55.7984 249.595 53.4238 249.915 50.9412C250.663 45.5443 248.846 41.011 245.106 37.1252C242.006 33.8871 238.265 32.268 233.776 32.6998C232.6 32.8077 231.425 33.0236 230.356 33.5633C229.715 33.995 229.18 34.5347 229.287 35.3982C229.394 35.83 229.501 36.1538 230.035 36.0458C230.677 35.9379 231.425 35.9379 232.066 35.9379C233.456 35.9379 234.845 36.0458 236.128 36.4776C235.914 36.5855 235.807 36.5855 235.593 36.4776C234.204 36.3697 232.814 36.4776 231.318 36.5855C229.501 36.6935 228.005 37.449 226.615 38.5284C225.439 39.3919 224.584 40.4713 223.943 41.7665C223.836 41.9824 223.622 42.3062 224.157 42.3062C226.508 42.0903 228.432 43.0618 230.249 44.465C231.532 45.4364 232.387 46.6237 233.135 48.1348C233.456 48.6745 233.883 49.1063 234.524 48.9983C235.166 48.8904 235.166 48.3507 235.166 47.811L235.273 47.7031C235.593 48.2428 235.807 48.6745 235.486 49.2142C235.059 50.0777 234.204 50.1856 233.349 50.1856C234.204 50.8333 235.059 50.5095 236.021 50.2936C235.807 50.7253 235.593 51.0491 235.273 51.265C234.845 51.373 234.311 51.5888 233.883 51.6968C234.417 51.8047 234.631 51.8047 235.486 51.373C236.555 50.9412 237.517 51.1571 238.372 51.8047C238.586 51.9126 238.906 52.1285 238.693 52.3444C238.586 52.5603 238.158 52.6682 237.838 52.4523C236.876 51.9126 236.021 52.2365 235.059 52.3444C235.166 52.6682 235.379 52.5603 235.486 52.6682C237.303 53.1 238.906 52.6682 240.296 51.373C241.044 50.7253 241.685 50.0777 242.54 49.538C243.395 49.1063 244.251 48.7825 245.212 48.9983C245.961 49.2142 246.388 49.646 246.495 50.4015C245.533 49.538 244.785 49.4301 243.609 50.1856C242.754 50.7253 242.113 51.5888 241.258 52.2365C239.548 53.7476 237.624 54.6111 235.379 54.2873C233.349 53.9635 232.494 53.2079 231.852 51.1571C231.745 50.8333 231.639 50.5095 231.425 50.2936C230.784 49.4301 230.356 48.5666 230.356 47.4872C230.356 47.1634 230.142 47.0555 229.928 46.8396C228.86 46.084 228.218 45.1126 228.218 43.7094C228.218 43.3856 228.005 43.2777 227.684 43.1697C226.508 42.63 225.226 42.4142 223.943 42.4142C223.516 42.4142 223.195 42.63 223.088 43.0618C222.233 45.4364 221.699 47.919 222.554 50.4015C222.767 51.0491 222.661 51.8047 222.34 52.3444C221.912 53.2079 221.378 53.9635 220.844 54.827C220.63 55.0428 220.416 55.3666 220.202 55.6905C219.668 56.446 219.989 57.0936 220.95 57.3095C221.271 57.3095 221.592 57.4175 221.912 57.4175C222.126 57.5254 222.34 57.6333 222.554 57.7413C222.767 58.0651 222.554 58.4968 222.554 58.8206C222.34 59.6841 222.447 59.9 223.302 60.1159C224.05 60.3318 224.691 60.4397 225.546 60.6556C224.905 60.8715 224.371 60.8715 223.836 60.7635C223.516 60.6556 223.088 60.5476 222.874 60.9794C222.661 61.4111 222.874 61.735 223.195 61.9508C223.943 62.4905 224.05 63.1381 223.729 63.8937C223.302 64.9731 223.943 66.0525 225.012 66.2683C225.439 66.3763 225.76 66.3763 226.188 66.3763C227.363 66.3763 228.539 66.0525 229.715 65.7286C231.104 65.2969 232.494 65.9445 233.028 67.1318C234.097 69.5064 235.166 71.8811 236.021 74.2557C236.341 75.2271 236.341 76.0906 235.807 76.9541C235.166 78.1414 234.952 79.5446 234.417 80.7319C234.204 81.1637 234.417 81.4875 234.952 81.3796C236.128 81.2716 237.517 80.8399 237.945 79.4367C238.8 76.9541 240.082 74.5795 241.899 72.6366C242.113 72.4208 242.113 72.3128 242.006 71.989C241.258 70.5858 241.472 69.1826 242.113 67.7795C242.327 67.2398 242.647 66.7001 242.861 66.0524C242.968 65.5128 243.075 64.9731 242.647 64.4334C242.434 64.2175 242.327 64.1096 242.006 64.2175C240.723 64.8651 239.12 64.5413 238.051 63.462C237.945 63.354 237.731 63.2461 237.945 63.0302C239.12 63.8937 240.403 63.7858 241.685 63.1381C241.792 63.0302 242.006 63.0302 242.113 63.1381C243.502 63.8937 244.892 63.5699 246.281 62.9223C247.457 62.4905 248.74 61.8429 250.022 61.9508C250.45 61.9508 250.877 62.1667 251.198 62.3826C251.839 62.9223 252.053 63.7858 251.839 64.5413C252.16 64.1096 252.267 63.462 252.16 62.9223C252.053 62.3826 251.625 61.9508 251.198 61.627C250.984 62.2746 250.77 62.2746 250.45 62.1667ZM238.158 47.7031C236.128 47.7031 234.631 46.192 234.631 44.1412C234.631 42.0903 236.234 40.5792 238.158 40.4713C240.189 40.4713 241.685 42.0903 241.685 44.0332C241.792 46.084 240.189 47.811 238.158 47.7031ZM223.943 48.2428C224.157 48.1348 224.477 48.0269 224.798 48.0269C225.974 48.0269 227.15 48.2428 228.111 48.5666C226.829 48.5666 225.439 48.2428 224.157 48.6745C224.05 48.6745 223.836 48.7825 223.729 48.5666C223.622 48.4586 223.729 48.3507 223.943 48.2428ZM225.226 52.3444C225.012 52.3444 224.478 52.6682 224.691 51.9126C224.798 51.4809 224.798 50.7253 224.05 50.5095C223.943 50.5095 223.729 50.2936 223.729 49.9698C224.264 50.2936 224.798 50.1856 225.226 50.0777C225.653 49.9698 226.081 50.0777 226.508 50.4015C227.15 50.8333 227.791 51.1571 228.646 51.4809C227.47 51.6968 226.401 52.2365 225.226 52.3444Z" fill="#47AA0A"/>
<path d="M244.464 65.8364C244.571 66.4841 244.357 67.0237 244.144 67.4555C243.823 67.9952 243.502 68.5349 243.182 68.9666C242.754 69.6142 242.327 70.2619 242.327 71.0174C242.327 71.4492 242.22 71.9889 242.54 72.2047C242.861 72.4206 243.182 71.8809 243.395 71.6651C243.716 71.4492 244.144 71.3412 244.144 70.8015C244.144 69.8301 244.464 68.8587 244.678 67.8872C244.892 67.2396 244.785 66.4841 244.464 65.8364Z" fill="#47AA0A"/>
<path d="M231.959 67.5637C231.959 68.4272 231.532 69.0748 231.639 69.8304C231.746 70.586 232.173 71.2336 233.028 71.4495C232.494 70.6939 232.387 70.1542 233.028 69.5066C233.135 69.3987 233.135 69.1828 233.028 69.0748C232.814 68.5352 232.601 67.9955 231.959 67.5637Z" fill="#47AA0A"/>
<path d="M246.174 66.8079C246.174 67.7793 246.281 68.6428 246.495 69.3984C246.602 69.7222 246.602 70.046 247.136 69.938C247.671 69.8301 247.778 69.6142 247.671 69.0745C247.457 68.1031 246.709 67.6714 246.174 66.8079Z" fill="#47AA0A"/>
<path d="M245.533 68.1033C245.106 68.8588 244.785 69.6144 244.571 70.37C244.571 70.5858 244.571 70.9096 244.892 70.6938C245.319 70.4779 245.64 70.37 246.068 70.1541C246.281 70.0461 246.388 69.9382 246.175 69.8303C245.854 69.3985 245.854 68.7509 245.533 68.1033Z" fill="#47AA0A"/>
<path d="M233.349 72.4209C233.776 72.7447 234.097 73.1765 234.524 73.5003C234.631 72.6368 233.883 72.6368 233.349 72.4209Z" fill="#47AA0A"/>
<path d="M238.158 41.7661C236.876 41.7661 235.807 42.8455 235.807 44.0328C235.807 45.436 236.876 46.5154 238.158 46.5154C239.441 46.5154 240.51 45.436 240.51 44.1407C240.51 42.8455 239.441 41.7661 238.158 41.7661ZM238.158 45.436C237.41 45.436 236.876 44.8963 236.876 44.1407C236.876 43.3852 237.517 42.7376 238.265 42.8455C239.014 42.8455 239.548 43.4931 239.548 44.2487C239.441 44.8963 238.907 45.436 238.158 45.436Z" fill="#47AA0A"/>
</svg>
