<svg fill="none" height="341" viewBox="0 0 265 341" width="265" xmlns="http://www.w3.org/2000/svg" xmlns:xlink="http://www.w3.org/1999/xlink"><filter id="a" color-interpolation-filters="sRGB" filterUnits="userSpaceOnUse" height="365.845" width="193.014" x="36.9502" y="-12.571"><feFlood flood-opacity="0" result="BackgroundImageFix"/><feBlend in="SourceGraphic" in2="BackgroundImageFix" mode="normal" result="shape"/><feGaussianBlur result="effect1_foregroundBlur" stdDeviation="11.3433"/></filter><mask id="b" height="341" maskUnits="userSpaceOnUse" width="265" x="0" y="0"><path d="m53 0h214.766v308.537h-214.766z" fill="#c4e8f8" transform="matrix(.98556088 .16932147 -.16932147 .98556088 .765274 -8.974038)"/></mask><g mask="url(#b)"><path d="m53 0h214.766v308.537h-214.766z" fill="#6bb8dc" transform="matrix(.98556088 .16932147 -.16932147 .98556088 .765274 -8.974038)"/><g filter="url(#a)"><path d="m111.879 10.1156 95.398 16.3896-52.242 304.0828-95.3983-16.39z" fill="#1e9ed1"/></g><g fill="#1174ba"><g opacity=".3"><path d="m187.506 291.001c-.576-1.168-.469-2.271.333-3.3.688-.883.602-1.966-.192-2.742-.918-.888-1.203-1.953-.804-3.179.352-1.083-.111-2.074-1.141-2.529-1.128-.502-1.753-1.385-1.828-2.617-.08-1.293-.74-1.971-2.032-2.088-1.218-.111-2.073-.755-2.543-1.881-.455-1.08-1.409-1.545-2.526-1.232-1.283.359-2.171-.05-3.169-.823-.844-.664-1.651-1.142-2.643-.417-1.096.805-2.234.888-3.443.244-.905-.486-1.967-.187-2.562.644-.914 1.28-2.027 1.307-3.489 1.387-.905.048-1.601.674-1.826 1.546-.329 1.298-1.151 2.045-2.451 2.326-.751.157-1.276.623-1.457 1.367-.184.767.057 1.515-.233 2.278-.235.622-.7 1.182-1.253 1.501-.992.597-1.27 1.641-.764 2.691.546 1.125.435 2.212-.324 3.203-.72.945-.642 1.982.209 2.821.891.875 1.162 1.93.768 3.127-.347 1.054.093 2.093 1.089 2.528 1.192.521 1.818 1.441 1.883 2.732.055 1.131.734 1.872 1.864 1.968 1.338.117 2.258.772 2.759 2.025.32.815 1.125 1.314 1.973 1.204.694-.091 1.405-.406 2.066-.217.187.055.383.141.577.242.365.198.702.475.957.752.798.882 1.851.988 2.815.295.989-.711 2.054-.806 3.151-.256 1.165.591 2.089.351 2.828-.704.689-.98 1.662-1.422 2.856-1.262 1.209.162 2.083-.403 2.383-1.578.313-1.211 1.089-1.995 2.327-2.219 1.027-.185 1.819-1.283 1.647-2.299-.092-.52-.071-1.036.211-1.537.323-.561.678-1.05 1.24-1.382.927-.563 1.224-1.634.744-2.619zm-19.518 11.157c-8.087-1.389-13.519-9.059-12.132-17.129 1.386-8.071 9.066-13.487 17.153-12.098s13.519 9.059 12.133 17.129c-1.387 8.071-9.067 13.487-17.154 12.098z"/><path d="m173.02 272.797c-8.168-1.403-15.928 4.081-17.331 12.249s4.081 15.928 12.249 17.331 15.928-4.081 17.331-12.249-4.081-15.928-12.249-17.331zm-4.776 28.109c-7.325-1.258-12.245-8.22-10.987-15.545 1.259-7.325 8.221-12.245 15.545-10.987 7.325 1.259 12.246 8.221 10.987 15.545-1.258 7.325-8.22 12.246-15.545 10.987z"/><path d="m179.371 289.366c-.3-.606-.247-1.182.173-1.718.361-.462.313-1.025-.104-1.431-.484-.463-.632-1.02-.423-1.661.18-.562-.058-1.081-.596-1.318-.587-.261-.911-.726-.953-1.365-.044-.676-.387-1.031-1.061-1.094-.638-.056-1.083-.391-1.324-.979-.238-.566-.729-.81-1.312-.651-.672.188-1.137-.029-1.655-.429-.443-.342-.864-.597-1.387-.215-.574.418-1.169.467-1.795.124-.474-.256-1.026-.1-1.338.34-.48.67-1.054.686-1.821.721-.469.026-.837.35-.953.801-.169.678-.602 1.067-1.282 1.216-.395.084-.665.327-.762.713-.099.401.031.795-.12 1.187-.124.321-.365.614-.653.785-.518.314-.665.858-.401 1.405.287.589.228 1.156-.173 1.673-.375.498-.338 1.036.105 1.469.462.459.603 1.008.397 1.634-.179.554.048 1.095.565 1.32.623.275.951.757.98 1.43.028.59.388.979.974 1.026.698.059 1.18.4 1.439 1.061.171.424.59.686 1.035.626.366-.051.73-.217 1.077-.112.101.033.201.073.298.128.187.108.369.245.495.396.416.459.97.516 1.474.155.512-.368 1.077-.423 1.645-.136.609.31 1.087.187 1.479-.369.363-.515.866-.74 1.492-.663.633.086 1.087-.208 1.247-.827.162-.633.567-1.042 1.211-1.159.535-.099.953-.673.862-1.205-.044-.274-.037-.538.115-.801.164-.291.353-.547.65-.724.497-.28.654-.838.4-1.353zm-10.191 5.826c-4.223-.726-7.06-4.731-6.336-8.946s4.735-7.044 8.958-6.319c4.223.726 7.06 4.732 6.336 8.946-.724 4.215-4.735 7.044-8.958 6.319z"/><path d="m171.888 279.904c-4.298-.738-8.383 2.148-9.121 6.447-.739 4.299 2.148 8.383 6.447 9.122 4.298.738 8.383-2.149 9.121-6.447.739-4.299-2.148-8.383-6.447-9.122z"/></g><path d="m66.7014 94.4299h17.393v3.78109h-17.393z" transform="matrix(.98556088 .16932147 -.16932147 .98556088 16.952119 -9.930494)"/><path d="m65.1648 103.374h17.393v3.78109h-17.393z" transform="matrix(.98556088 .16932147 -.16932147 .98556088 18.44436 -9.541169)"/><path d="m63.6282 112.317h43.1045v3.78109h-43.1045z" transform="matrix(.98556088 .16932147 -.16932147 .98556088 19.936415 -9.151861)"/></g><path d="m76.2886 141.348h119.483v7.56219h-119.483z" fill="#fff" opacity=".9" transform="matrix(.98556088 .16932147 -.16932147 .98556088 25.034791 -10.876356)"/><path d="m128.617 69.004h43.1045v3.78109h-43.1045z" fill="#1174ba" transform="matrix(.98556088 .16932147 -.16932147 .98556088 13.540975 -20.781262)"/><path d="m144.438 47.4868 1.061-6.1711 6.148 1.0563.488-2.8396-6.171-1.0602.672-3.9128 6.932 1.1908.503-2.929-10.017-1.7209-2.723 15.8525zm17.273 2.9675 3.444.5915-2.285-7.068c2.183-.2464 3.768-1.7005 4.148-3.9141.473-2.7501-1.13-5.2123-4.215-5.7424l-6.194-1.064-2.723 15.8525 3.108.5339 1.048-6.104 1.61.2766zm-3.212-9.5753.757-4.4047 2.504.4302c1.565.2689 2.332 1.2984 2.102 2.64-.223 1.2968-1.293 2.0336-2.858 1.7647z" fill="#fff"/><path d="m99.8791 306.851 1.0599-6.171 6.149 1.056.488-2.839-6.171-1.06.672-3.913 6.931 1.191.504-2.929-10.0173-1.721-2.7235 15.852zm17.2729 2.968 3.443.591-2.284-7.068c2.183-.246 3.768-1.7 4.148-3.914.472-2.75-1.13-5.212-4.216-5.742l-6.193-1.064-2.724 15.852 3.108.534 1.049-6.104 1.61.277zm-3.212-9.576.757-4.404 2.504.43c1.565.269 2.332 1.298 2.102 2.64-.223 1.297-1.294 2.034-2.859 1.765z" fill="#fff"/><path d="m154.424 253.753h43.1045v3.78109h-43.1045z" fill="#1174ba" transform="matrix(.98556088 .16932147 -.16932147 .98556088 45.195577 -22.483327)"/><path d="m62.0918 121.261h64.2786v3.78109h-64.2786z" fill="#1174ba" transform="matrix(.98556088 .16932147 -.16932147 .98556088 21.428641 -8.762572)"/><path d="m67.8933 154.484h131.582v18.9055h-131.582z" fill="#fff" opacity=".9" transform="matrix(.98556088 .16932147 -.16932147 .98556088 27.137777 -9.26518)"/><path d="m116.902 74.6644h64.2786v3.78109h-64.2786z" fill="#1174ba" transform="matrix(.98556088 .16932147 -.16932147 .98556088 14.330248 -18.71593)"/><path d="m35.8428 274.047h64.2786v3.78109h-64.2786z" fill="#1174ba" transform="matrix(.98556088 .16932147 -.16932147 .98556088 46.919578 -2.111957)"/><path d="m37.123 266.594h38.5672v3.78109h-38.5672z" fill="#1174ba" transform="matrix(.98556088 .16932147 -.16932147 .98556088 45.67611 -2.436337)"/><path d="m60.5552 130.204h27.2239v3.78109h-27.2239z" fill="#1174ba" transform="matrix(.98556088 .16932147 -.16932147 .98556088 22.920696 -8.373264)"/><path d="m40.1794 177.345h178.468v18.9055h-178.468z" fill="#fff" opacity=".9" transform="matrix(.98556088 .16932147 -.16932147 .98556088 30.608471 -4.242529)"/><path d="m134.254 85.3186h27.2239v3.78109h-27.2239z" fill="#1174ba" transform="matrix(.98556088 .16932147 -.16932147 .98556088 16.384781 -21.500158)"/><path d="m34.5623 281.5h27.2239v3.78109h-27.2239z" fill="#1174ba" transform="matrix(.98556088 .16932147 -.16932147 .98556088 48.163042 -1.787526)"/><path d="m0 0h32.612v42.08h-32.612z" fill="#fff" transform="matrix(-.985561 -.169322 -.169322 .985561 228.278 96.8684)"/><path d="m204.106 121.641c-1.544-2.621-2.38-5.664-1.62-8.772 2.192-8.932 14.484-4.781 16.163.218 1.678 4.999-.618 16.518-3.93 16.809-1.333.111-3.882-1.142-6.346-3.287l.221 9.528-10.189-1.751z" fill="#1e9ed1"/><path d="m198.559 109.092c-.274-.387-.37-.879-.449-1.345-.074-.489-.149-.977-.18-1.458-.057-.984.132-2.084.942-2.715.653-.499 1.512-.623 2.272-.561.514.043 1.008.196 1.462.455.458.238.823.617 1.251.895.2-1.03.558-2.056 1.215-2.849.65-.749 1.525-1.097 2.468-1.048.947.027 1.834.405 2.591 1.011.201.148.376.314.552.48.157.14.288.299.479.377.212.081.341-.01.503-.163.207-.146.413-.291.634-.389.99-.487 2.179-.554 3.127-.007.432.256.842.643 1.078 1.114.222.423.322 1.029.672 1.361.158.141.294.005.463-.056.247-.116.497-.254.744-.371.367-.163.724-.26 1.113-.284.573-.037 1.314.135 1.347.866.021.275-.073.553-.14.814-.086.37-.172.74-.277 1.084-.071.283-.16.539-.254.817-.048.151-.181.4-.142.565.058.191.425.163.579.19.305.075.605.172.869.353.201.148.42.321.463.6.039.166-.009.316-.058.466-.056.194-.049.286-.061.488.452-.126 1.962-.342 2.01.436.024.253-.157.516-.301.696-.24.343-.539.632-.834.898-.62.573-1.334 1.039-2.077 1.41.713.462.737 1.508-.025 1.989-.331.214-.739.212-1.109.126-.132-.023-.319-.123-.433-.12-.07.011-.121.048-.209.032-.536-.046-1.107-.28-1.595-.477-.868-.353-1.673-.945-2.264-1.726-.145-.206-.284-.32-.526-.362-.22-.038-.43-.006-.65-.043-.576-.077-1.033-.45-1.509-.713-.143.701-.495 1.433-.891 2.022-.333.486-.828.469-1.32.43-1.567-.111-3.099-.556-4.64-.82 1.44.587 2.976 1.009 4.383 1.659.652.293.044.664-.295.923-.549.426-1.011 1.004-1.392 1.641-.564-1.071-1.753-1.932-2.946-1.843-1.333.111-2.508 1.676-1.906 3.047.342.784 1.151 1.217 1.802 1.646-.648.478-.924 1.291-1.379 1.96-.214.326-.525.68-.921.748-.14.021-.294-.005-.423.086-.155.109-.203.259-.398.339-.762.345-1.814.141-2.303-.577-.455-.644-.15-1.498.385-1.972-.674-.433-1.908-1.03-1.429-2.103-1.544-.378-4.898-3.536-2.49-5.025-1.035-.835-1.819-2.6-.851-3.883.78-.976 2.183-1.233 3.273-1.114z" fill="#06508c"/><path d="m218.192 119.305c.799.363.834 1.343 1.052 1.924.217.581.652 1.743.866 2.346.217.581.217.581.035.98-.745.642-1.543.278-2.501.317-.4-.181-.959.04-1.358-.142" fill="#1e9ed1"/><path d="m216.977 119.39c.242.042.452-.126.494-.368.041-.242-.123-.474-.343-.512-.242-.041-.452.126-.494.368-.041.242.101.471.343.512z" fill="#06508c"/><path d="m215.822 126.507c.436.234.934.365 1.408.378-.502-.245-.956-.504-1.351-.843-.197-.17-.394-.34-.562-.55-.095-.107-.19-.214-.281-.343-.051-.099-.128-.18-.201-.283l-.018-.026c-.095-.107-.253-.111-.36-.017-.129.091-.137.271-.046.4l.019.026c.171.188.309.438.466.714.156.276.353.582.591.781.464.465 1.002.761 1.566 1.039-.208-.239-.42-.457-.632-.674-.241-.178-.431-.392-.599-.602z" fill="#06508c"/><path d="m216.959 117.643c.176.03.374.064.598.08.202.012.43.006.669-.066-.179-.144-.34-.262-.527-.362s-.377-.178-.597-.216c-.437-.098-.981.035-1.251.419l.624.062c.132.023.308.053.484.083z" fill="#06508c"/><g opacity=".9"><path d="m142.195 52.4991h6.80596v12.5007h-6.80596z" fill="#06508c" transform="matrix(.98556088 .16932147 -.16932147 .98556088 10.942396 -23.318625)"/><path d="m148.902 53.6512h6.80596v12.5007h-6.80596z" fill="#fff" transform="matrix(.98556088 .16932147 -.16932147 .98556088 11.234314 -24.437629)"/><path d="m155.61 54.8036h6.80596v12.5007h-6.80596z" fill="#1174ba" transform="matrix(.98556088 .16932147 -.16932147 .98556088 11.526298 -25.556797)"/></g></g></svg>