<svg width="264" height="341" viewBox="0 0 264 341" fill="none" xmlns="http://www.w3.org/2000/svg">
<mask id="mask0" mask-type="alpha" maskUnits="userSpaceOnUse" x="0" y="0" width="264" height="341">
<rect x="52.2422" width="214.766" height="308.537" transform="rotate(9.74837 52.2422 0)" fill="#C4E8F8"/>
</mask>
<g mask="url(#mask0)">
<rect x="52.2422" width="214.766" height="308.537" transform="rotate(9.74837 52.2422 0)" fill="#E0E0E0"/>
<g filter="url(#filter0_f)">
<path d="M111.121 10.1156L206.519 26.5052L154.277 330.588L58.8788 314.198L111.121 10.1156Z" fill="#C6C6C6"/>
</g>
<g opacity="0.3">
<path d="M186.749 291.001C186.172 289.833 186.279 288.73 187.082 287.701C187.769 286.818 187.683 285.735 186.889 284.959C185.971 284.071 185.686 283.006 186.085 281.78C186.437 280.697 185.974 279.706 184.944 279.251C183.816 278.749 183.191 277.866 183.116 276.634C183.036 275.341 182.376 274.663 181.084 274.546C179.866 274.435 179.012 273.791 178.541 272.665C178.086 271.585 177.133 271.12 176.016 271.433C174.732 271.792 173.845 271.383 172.846 270.61C172.003 269.946 171.195 269.468 170.203 270.193C169.107 270.998 167.969 271.081 166.76 270.437C165.856 269.951 164.794 270.25 164.198 271.081C163.285 272.361 162.171 272.388 160.71 272.468C159.804 272.516 159.108 273.142 158.883 274.014C158.555 275.312 157.732 276.059 156.432 276.34C155.681 276.497 155.156 276.963 154.976 277.707C154.791 278.474 155.032 279.222 154.743 279.985C154.508 280.607 154.042 281.167 153.489 281.486C152.497 282.083 152.22 283.127 152.725 284.177C153.271 285.302 153.16 286.389 152.401 287.38C151.681 288.325 151.759 289.362 152.61 290.201C153.501 291.076 153.772 292.131 153.378 293.328C153.031 294.382 153.471 295.421 154.467 295.856C155.659 296.377 156.286 297.297 156.351 298.588C156.405 299.719 157.085 300.46 158.214 300.556C159.552 300.673 160.472 301.328 160.974 302.581C161.294 303.396 162.098 303.895 162.946 303.785C163.641 303.694 164.351 303.379 165.012 303.568C165.199 303.623 165.395 303.709 165.589 303.81C165.955 304.008 166.292 304.285 166.546 304.562C167.344 305.444 168.397 305.55 169.361 304.857C170.35 304.146 171.415 304.051 172.512 304.601C173.677 305.192 174.601 304.952 175.34 303.897C176.029 302.917 177.002 302.475 178.196 302.635C179.405 302.797 180.279 302.232 180.579 301.057C180.893 299.846 181.668 299.062 182.906 298.838C183.933 298.653 184.725 297.555 184.553 296.539C184.461 296.019 184.482 295.503 184.764 295.002C185.087 294.441 185.442 293.952 186.004 293.62C186.931 293.057 187.228 291.986 186.749 291.001ZM167.23 302.158C159.143 300.769 153.711 293.099 155.098 285.029C156.484 276.958 164.164 271.542 172.251 272.931C180.338 274.32 185.77 281.99 184.384 290.06C182.997 298.131 175.317 303.547 167.23 302.158Z" fill="#5E5E5E"/>
<path d="M172.262 272.797C164.094 271.394 156.335 276.878 154.931 285.046C153.528 293.214 159.012 300.974 167.18 302.377C175.348 303.78 183.108 298.296 184.511 290.128C185.915 281.96 180.43 274.2 172.262 272.797ZM167.486 300.906C160.162 299.648 155.241 292.686 156.5 285.361C157.758 278.036 164.72 273.116 172.045 274.374C179.369 275.633 184.29 282.595 183.031 289.919C181.773 297.244 174.811 302.165 167.486 300.906Z" fill="#5E5E5E"/>
<path d="M178.613 289.366C178.313 288.76 178.367 288.184 178.786 287.648C179.147 287.186 179.099 286.623 178.682 286.217C178.198 285.754 178.05 285.197 178.259 284.556C178.439 283.994 178.201 283.475 177.663 283.238C177.076 282.977 176.752 282.512 176.71 281.873C176.666 281.197 176.324 280.842 175.649 280.779C175.012 280.723 174.567 280.388 174.325 279.8C174.087 279.234 173.596 278.99 173.013 279.149C172.341 279.337 171.876 279.12 171.358 278.72C170.915 278.378 170.494 278.123 169.972 278.505C169.397 278.923 168.802 278.972 168.176 278.629C167.702 278.373 167.15 278.529 166.839 278.969C166.358 279.639 165.784 279.655 165.017 279.69C164.548 279.716 164.18 280.04 164.065 280.491C163.895 281.169 163.463 281.558 162.782 281.707C162.387 281.791 162.117 282.034 162.02 282.42C161.921 282.821 162.051 283.215 161.9 283.607C161.776 283.928 161.536 284.221 161.247 284.392C160.729 284.706 160.582 285.25 160.846 285.797C161.133 286.386 161.074 286.953 160.673 287.47C160.298 287.968 160.335 288.506 160.778 288.939C161.24 289.398 161.382 289.947 161.175 290.573C160.996 291.127 161.223 291.668 161.74 291.893C162.363 292.168 162.691 292.65 162.72 293.323C162.748 293.913 163.108 294.302 163.694 294.349C164.392 294.408 164.874 294.749 165.133 295.41C165.304 295.834 165.724 296.096 166.168 296.036C166.535 295.985 166.898 295.819 167.245 295.924C167.346 295.957 167.446 295.997 167.543 296.052C167.73 296.16 167.912 296.297 168.039 296.448C168.455 296.907 169.008 296.964 169.512 296.603C170.024 296.235 170.59 296.18 171.157 296.467C171.766 296.777 172.244 296.654 172.637 296.098C172.999 295.583 173.502 295.358 174.129 295.435C174.761 295.521 175.215 295.227 175.375 294.608C175.537 293.975 175.942 293.566 176.587 293.449C177.121 293.35 177.54 292.776 177.448 292.244C177.404 291.97 177.411 291.706 177.563 291.443C177.727 291.152 177.916 290.896 178.213 290.719C178.71 290.439 178.867 289.881 178.613 289.366ZM168.422 295.192C164.199 294.466 161.362 290.461 162.086 286.246C162.81 282.031 166.821 279.202 171.044 279.927C175.267 280.653 178.104 284.659 177.38 288.873C176.656 293.088 172.645 295.917 168.422 295.192Z" fill="#5E5E5E"/>
<path d="M171.13 279.904C166.832 279.166 162.747 282.052 162.009 286.351C161.27 290.65 164.157 294.734 168.456 295.473C172.754 296.211 176.839 293.324 177.577 289.026C178.316 284.727 175.429 280.643 171.13 279.904Z" fill="#5E5E5E"/>
</g>
<rect x="65.9436" y="94.4299" width="17.393" height="3.78109" transform="rotate(9.74837 65.9436 94.4299)" fill="#5E5E5E"/>
<rect x="64.407" y="103.374" width="17.393" height="3.78109" transform="rotate(9.74837 64.407 103.374)" fill="#5E5E5E"/>
<rect x="62.8704" y="112.317" width="43.1045" height="3.78109" transform="rotate(9.74837 62.8704 112.317)" fill="#5E5E5E"/>
<rect opacity="0.9" x="75.5308" y="141.348" width="119.483" height="7.56219" transform="rotate(9.74837 75.5308 141.348)" fill="white"/>
<rect x="127.859" y="69.004" width="43.1045" height="3.78109" transform="rotate(9.74837 127.859 69.004)" fill="#5E5E5E"/>
<path d="M143.681 47.4868L144.741 41.3157L150.89 42.372L151.377 39.5324L145.206 38.4722L145.879 34.5594L152.81 35.7502L153.313 32.8212L143.296 31.1003L140.573 46.9528L143.681 47.4868ZM160.953 50.4543L164.397 51.0458L162.112 43.9778C164.295 43.7314 165.88 42.2773 166.26 40.0637C166.733 37.3136 165.13 34.8514 162.045 34.3213L155.851 33.2573L153.128 49.1098L156.236 49.6437L157.284 43.5397L158.894 43.8163L160.953 50.4543ZM157.742 40.879L158.498 36.4743L161.002 36.9045C162.568 37.1734 163.334 38.2029 163.104 39.5445C162.881 40.8413 161.811 41.5781 160.246 41.3092L157.742 40.879Z" fill="white"/>
<path d="M99.1213 306.851L100.181 300.68L106.33 301.736L106.818 298.897L100.647 297.837L101.319 293.924L108.251 295.115L108.754 292.186L98.7369 290.465L96.0134 306.317L99.1213 306.851ZM116.394 309.819L119.837 310.41L117.553 303.342C119.736 303.096 121.321 301.642 121.701 299.428C122.174 296.678 120.571 294.216 117.485 293.686L111.292 292.622L108.568 308.474L111.676 309.008L112.725 302.904L114.335 303.181L116.394 309.819ZM113.182 300.243L113.939 295.839L116.443 296.269C118.008 296.538 118.775 297.567 118.545 298.909C118.322 300.206 117.252 300.943 115.686 300.674L113.182 300.243Z" fill="white"/>
<rect x="153.666" y="253.753" width="43.1045" height="3.78109" transform="rotate(9.74837 153.666 253.753)" fill="#5E5E5E"/>
<rect x="61.334" y="121.261" width="64.2786" height="3.78109" transform="rotate(9.74837 61.334 121.261)" fill="#5E5E5E"/>
<rect opacity="0.9" x="67.1355" y="154.484" width="131.582" height="18.9055" transform="rotate(9.74837 67.1355 154.484)" fill="white"/>
<rect x="116.145" y="74.6644" width="64.2786" height="3.78109" transform="rotate(9.74837 116.145 74.6644)" fill="#5E5E5E"/>
<rect x="35.085" y="274.047" width="64.2786" height="3.78109" transform="rotate(9.74837 35.085 274.047)" fill="#5E5E5E"/>
<rect x="36.3652" y="266.594" width="38.5672" height="3.78109" transform="rotate(9.74837 36.3652 266.594)" fill="#5E5E5E"/>
<rect x="59.7974" y="130.204" width="27.2239" height="3.78109" transform="rotate(9.74837 59.7974 130.204)" fill="#5E5E5E"/>
<rect opacity="0.9" x="39.4216" y="177.345" width="178.468" height="18.9055" transform="rotate(9.74837 39.4216 177.345)" fill="white"/>
<rect x="133.497" y="85.3186" width="27.2239" height="3.78109" transform="rotate(9.74837 133.497 85.3186)" fill="#5E5E5E"/>
<rect x="33.8044" y="281.5" width="27.2239" height="3.78109" transform="rotate(9.74837 33.8044 281.5)" fill="#5E5E5E"/>
<rect width="32.612" height="42.08" transform="matrix(-0.985561 -0.169322 -0.169322 0.985561 227.521 96.8684)" fill="white"/>
<path d="M203.348 121.641C201.805 119.02 200.968 115.977 201.729 112.869C203.92 103.937 216.212 108.088 217.891 113.087C219.57 118.086 217.274 129.605 213.961 129.896C212.628 130.007 210.079 128.754 207.615 126.609L207.836 136.137L197.647 134.386L203.348 121.641Z" fill="#C6C6C6"/>
<path d="M197.801 109.092C197.528 108.705 197.431 108.213 197.352 107.747C197.278 107.258 197.203 106.77 197.172 106.289C197.115 105.305 197.304 104.205 198.115 103.574C198.767 103.075 199.626 102.951 200.386 103.013C200.9 103.056 201.395 103.209 201.849 103.468C202.306 103.706 202.671 104.085 203.1 104.363C203.299 103.333 203.657 102.307 204.314 101.514C204.964 100.765 205.839 100.417 206.782 100.466C207.729 100.493 208.616 100.871 209.373 101.477C209.574 101.625 209.749 101.791 209.925 101.957C210.082 102.097 210.213 102.256 210.404 102.334C210.616 102.415 210.745 102.324 210.908 102.171C211.114 102.025 211.32 101.88 211.541 101.782C212.531 101.295 213.721 101.228 214.669 101.775C215.101 102.031 215.51 102.418 215.746 102.889C215.968 103.312 216.068 103.918 216.419 104.25C216.576 104.391 216.712 104.255 216.881 104.194C217.128 104.078 217.378 103.94 217.625 103.823C217.993 103.66 218.349 103.563 218.738 103.539C219.311 103.502 220.052 103.674 220.085 104.405C220.106 104.68 220.013 104.958 219.945 105.219C219.859 105.589 219.773 105.959 219.668 106.303C219.597 106.586 219.508 106.842 219.415 107.12C219.366 107.271 219.233 107.52 219.272 107.685C219.33 107.876 219.697 107.848 219.851 107.875C220.156 107.95 220.456 108.047 220.72 108.228C220.921 108.376 221.14 108.549 221.183 108.828C221.223 108.994 221.174 109.144 221.126 109.294C221.07 109.488 221.076 109.58 221.064 109.782C221.517 109.656 223.027 109.44 223.074 110.218C223.099 110.471 222.917 110.734 222.773 110.914C222.533 111.257 222.234 111.546 221.939 111.812C221.32 112.385 220.605 112.851 219.862 113.222C220.575 113.684 220.6 114.73 219.837 115.211C219.506 115.425 219.098 115.423 218.728 115.337C218.596 115.314 218.409 115.214 218.295 115.217C218.226 115.228 218.174 115.265 218.086 115.249C217.55 115.203 216.979 114.969 216.492 114.772C215.623 114.419 214.819 113.827 214.228 113.046C214.082 112.84 213.943 112.726 213.701 112.684C213.481 112.646 213.271 112.678 213.051 112.641C212.475 112.564 212.018 112.191 211.542 111.928C211.399 112.629 211.047 113.361 210.651 113.95C210.319 114.436 209.823 114.419 209.331 114.38C207.764 114.269 206.232 113.824 204.692 113.56C206.131 114.147 207.667 114.569 209.074 115.219C209.726 115.512 209.118 115.883 208.779 116.142C208.23 116.568 207.768 117.146 207.387 117.783C206.824 116.712 205.635 115.851 204.441 115.94C203.108 116.051 201.933 117.616 202.536 118.987C202.877 119.771 203.686 120.204 204.337 120.633C203.689 121.111 203.413 121.924 202.958 122.593C202.744 122.919 202.434 123.273 202.037 123.341C201.897 123.362 201.743 123.336 201.614 123.427C201.46 123.536 201.411 123.686 201.216 123.766C200.455 124.111 199.402 123.907 198.914 123.189C198.458 122.545 198.763 121.691 199.298 121.217C198.624 120.784 197.39 120.187 197.869 119.114C196.325 118.736 192.971 115.578 195.379 114.089C194.344 113.254 193.56 111.489 194.528 110.206C195.308 109.23 196.711 108.973 197.801 109.092Z" fill="#3A3A3A"/>
<path d="M217.435 119.305C218.233 119.668 218.269 120.648 218.486 121.229C218.703 121.81 219.138 122.972 219.352 123.575C219.569 124.156 219.569 124.156 219.387 124.555C218.643 125.197 217.844 124.833 216.886 124.872C216.487 124.691 215.928 124.912 215.528 124.73" fill="#C6C6C6"/>
<path d="M216.219 119.39C216.461 119.432 216.671 119.264 216.713 119.022C216.754 118.78 216.59 118.548 216.37 118.51C216.128 118.469 215.918 118.636 215.877 118.878C215.835 119.12 215.977 119.349 216.219 119.39Z" fill="#3A3A3A"/>
<path d="M215.064 126.507C215.5 126.741 215.998 126.872 216.472 126.885C215.97 126.64 215.516 126.381 215.122 126.042C214.924 125.872 214.727 125.702 214.559 125.492C214.464 125.385 214.369 125.278 214.278 125.149C214.227 125.05 214.15 124.969 214.077 124.866L214.059 124.84C213.964 124.733 213.806 124.729 213.699 124.823C213.571 124.914 213.562 125.094 213.653 125.223L213.672 125.249C213.843 125.437 213.982 125.687 214.138 125.963C214.295 126.239 214.491 126.545 214.729 126.744C215.193 127.209 215.731 127.505 216.295 127.783C216.087 127.544 215.875 127.326 215.663 127.109C215.422 126.931 215.232 126.717 215.064 126.507Z" fill="#3A3A3A"/>
<path d="M216.202 117.643C216.378 117.673 216.576 117.707 216.8 117.723C217.001 117.735 217.229 117.729 217.468 117.657C217.289 117.513 217.128 117.395 216.941 117.295C216.754 117.195 216.564 117.117 216.344 117.079C215.907 116.981 215.364 117.114 215.094 117.498L215.717 117.56C215.849 117.583 216.025 117.613 216.202 117.643Z" fill="#3A3A3A"/>
<g opacity="0.9">
<rect x="141.437" y="52.4991" width="6.80596" height="12.5007" transform="rotate(9.74837 141.437 52.4991)" fill="#212121"/>
<rect x="148.145" y="53.6512" width="6.80596" height="12.5007" transform="rotate(9.74837 148.145 53.6512)" fill="white"/>
<rect x="154.852" y="54.8036" width="6.80596" height="12.5007" transform="rotate(9.74837 154.852 54.8036)" fill="#5E5E5E"/>
</g>
</g>
<defs>
<filter id="filter0_f" x="36.1923" y="-12.571" width="193.014" height="365.845" filterUnits="userSpaceOnUse" color-interpolation-filters="sRGB">
<feFlood flood-opacity="0" result="BackgroundImageFix"/>
<feBlend mode="normal" in="SourceGraphic" in2="BackgroundImageFix" result="shape"/>
<feGaussianBlur stdDeviation="11.3433" result="effect1_foregroundBlur"/>
</filter>
</defs>
</svg>
