<svg width="20" height="20" viewBox="0 0 20 20" fill="none" xmlns="http://www.w3.org/2000/svg">
<path fill-rule="evenodd" clip-rule="evenodd" d="M11.25 15.0847L6.99917 12.1697C6.86 12.0755 6.69583 12.0238 6.5275 12.0238H2.91667V7.97633H6.5275C6.69583 7.97633 6.86 7.92466 6.99917 7.8305L11.25 4.9155V15.0847ZM12.4717 2.5963C12.1975 2.4513 11.8667 2.47046 11.6125 2.64546L6.26917 6.30963H2.08333C1.62333 6.30963 1.25 6.68213 1.25 7.14296V12.8571C1.25 13.318 1.62333 13.6905 2.08333 13.6905H6.26917L11.6125 17.3546C11.7533 17.4513 11.9183 17.4996 12.0833 17.4996C12.2167 17.4996 12.35 17.468 12.4717 17.4038C12.745 17.2596 12.9167 16.9763 12.9167 16.6663V3.33296C12.9167 3.0238 12.745 2.74046 12.4717 2.5963ZM15.2327 6.97749C14.9436 6.61915 14.4194 6.56332 14.0611 6.85082C13.7027 7.13915 13.6452 7.66332 13.9336 8.02249C14.7969 9.09415 14.7969 10.9058 13.9336 11.9775C13.6452 12.3367 13.7027 12.8608 14.0611 13.1492C14.2152 13.2733 14.3994 13.3333 14.5827 13.3333C14.8261 13.3333 15.0677 13.2267 15.2327 13.0225C16.5961 11.3275 16.5961 8.67249 15.2327 6.97749ZM15.1914 4.46869C15.4848 4.11369 16.0106 4.06452 16.3648 4.35786C18.1714 5.85452 19.1664 7.85869 19.1664 10.0004C19.1664 12.1412 18.1714 14.1454 16.3648 15.642C16.2089 15.7704 16.0206 15.8337 15.8339 15.8337C15.5939 15.8337 15.3564 15.7304 15.1914 15.5312C14.8981 15.177 14.9473 14.652 15.3023 14.3579C16.7189 13.1837 17.4998 11.6362 17.4998 10.0004C17.4998 8.36369 16.7189 6.81619 15.3023 5.64202C14.9473 5.34786 14.8981 4.82286 15.1914 4.46869Z" fill="#231F20"/>
<mask id="mask0" mask-type="alpha" maskUnits="userSpaceOnUse" x="1" y="2" width="19" height="16">
<path fill-rule="evenodd" clip-rule="evenodd" d="M11.25 15.0847L6.99917 12.1697C6.86 12.0755 6.69583 12.0238 6.5275 12.0238H2.91667V7.97633H6.5275C6.69583 7.97633 6.86 7.92466 6.99917 7.8305L11.25 4.9155V15.0847ZM12.4717 2.5963C12.1975 2.4513 11.8667 2.47046 11.6125 2.64546L6.26917 6.30963H2.08333C1.62333 6.30963 1.25 6.68213 1.25 7.14296V12.8571C1.25 13.318 1.62333 13.6905 2.08333 13.6905H6.26917L11.6125 17.3546C11.7533 17.4513 11.9183 17.4996 12.0833 17.4996C12.2167 17.4996 12.35 17.468 12.4717 17.4038C12.745 17.2596 12.9167 16.9763 12.9167 16.6663V3.33296C12.9167 3.0238 12.745 2.74046 12.4717 2.5963ZM15.2327 6.97749C14.9436 6.61915 14.4194 6.56332 14.0611 6.85082C13.7027 7.13915 13.6452 7.66332 13.9336 8.02249C14.7969 9.09415 14.7969 10.9058 13.9336 11.9775C13.6452 12.3367 13.7027 12.8608 14.0611 13.1492C14.2152 13.2733 14.3994 13.3333 14.5827 13.3333C14.8261 13.3333 15.0677 13.2267 15.2327 13.0225C16.5961 11.3275 16.5961 8.67249 15.2327 6.97749ZM15.1914 4.46869C15.4848 4.11369 16.0106 4.06452 16.3648 4.35786C18.1714 5.85452 19.1664 7.85869 19.1664 10.0004C19.1664 12.1412 18.1714 14.1454 16.3648 15.642C16.2089 15.7704 16.0206 15.8337 15.8339 15.8337C15.5939 15.8337 15.3564 15.7304 15.1914 15.5312C14.8981 15.177 14.9473 14.652 15.3023 14.3579C16.7189 13.1837 17.4998 11.6362 17.4998 10.0004C17.4998 8.36369 16.7189 6.81619 15.3023 5.64202C14.9473 5.34786 14.8981 4.82286 15.1914 4.46869Z" fill="white"/>
</mask>
<g mask="url(#mask0)">
<rect width="20" height="20" fill="#0D1C2E"/>
</g>
</svg>
