<svg width="20" height="20" viewBox="0 0 20 20" fill="none" xmlns="http://www.w3.org/2000/svg">
<mask id="mask0" mask-type="alpha" maskUnits="userSpaceOnUse" x="0" y="0" width="20" height="20">
<rect width="20" height="20" fill="#C4C4C4"/>
</mask>
<g mask="url(#mask0)">
<path fill-rule="evenodd" clip-rule="evenodd" d="M14.1184 9.51806C15.1446 10.395 15.7952 11.6996 15.7952 13.1562C15.7952 15.7969 13.6572 17.9375 11.0199 17.9375H6.24463V3.0625H10.4893C12.8336 3.0625 14.734 4.96529 14.734 7.3125C14.734 8.1201 14.509 8.87508 14.1184 9.51806ZM9.42815 11.5625V14.75H11.0199C11.899 14.75 12.6117 14.0365 12.6117 13.1562C12.6117 12.276 11.899 11.5625 11.0199 11.5625H9.42815ZM9.42815 8.375V6.25H10.4893C11.0754 6.25 11.5505 6.7257 11.5505 7.3125C11.5505 7.8993 11.0754 8.375 10.4893 8.375H9.42815Z" fill="white"/>
</g>
</svg>
