<svg width="312" height="334" viewBox="0 0 312 334" fill="none" xmlns="http://www.w3.org/2000/svg">
<path d="M101.6 130L65.8 220.5L41.8 297H32.3L69 130H101.6Z" fill="#0B45B7"/>
<path d="M108.8 130C109.2 161.8 114.7 204.6 115.6 206.6C116.2 207.9 136.6 224.7 176.9 257L170.4 264C122.9 236.3 98.1 220.6 95.9 216.9C92.6 211.4 81.9 160.4 73.3 130H108.8Z" fill="#0B45B7"/>
<path d="M177.682 254.707C179.887 255.468 181.387 256.167 182.248 256.881C183.237 257.748 184.535 259.139 186.282 261.067C185.326 262.261 176.463 272.7 159.821 292.539C156.398 291.103 155.342 289.378 156.577 287.428C157.813 285.478 158.883 283.797 159.698 282.591L165.43 262.508C165.531 262.161 165.979 261.917 166.325 262.018L169.362 262.994C171.51 261.975 173.017 260.971 173.885 259.982C174.599 259.122 175.221 257.686 175.752 255.674C176.031 254.917 176.785 254.415 177.682 254.707C177.618 254.63 177.682 254.707 177.682 254.707Z" fill="#1D67DD"/>
<path d="M45.6999 293.5C46.4999 295.7 46.9 297.3 46.9 298.4C46.9 299.7 46.6999 301.6 46.1999 304.2C44.6999 304.2 31 304.2 5.09997 304.2C3.99997 300.7 4.60002 298.8 6.90002 298.5C9.20002 298.2 11.1 298 12.6 297.7L31.6999 289.2C32.0999 289 32.4999 289.2 32.6999 289.6L33.9 292.6C36 293.6 37.8 294.1 39.1 294.1C40.2 294.1 41.7 293.7 43.6 292.8C44.4 292.3 45.2999 292.6 45.6999 293.5C45.6999 293.4 45.6999 293.4 45.6999 293.5Z" fill="#1D67DD"/>
<path d="M77.5 289.1L32.5 284.2L65.8 130H106.2L77.5 289.1Z" fill="#031F70"/>
<path d="M167.5 245.7L138 280.7C106.9 246.7 88.7 224.5 83.6 214.2C78.4 203.8 73.8 175.8 69.7 130H115.1C117.4 170.3 118.9 191.4 119.7 193.2C120.4 195.1 136.4 212.6 167.5 245.7Z" fill="#073199"/>
<path d="M98.0999 37.6003C101.5 33.7003 103.7 28.8003 103.4 23.4003C102.3 7.80031 80.6 11.2003 76.4 19.1003C72.2 27.0003 72.6999 46.9003 78.0999 48.3003C80.2999 48.9003 84.8999 47.5003 89.5999 44.6003L86.5999 65.6003H104.1L98.0999 37.6003Z" fill="#0B45B7"/>
<path d="M68.6 8.20009C69 6.90009 69.9 5.80009 71.2 5.50009C71.5 5.40009 71.8 5.40009 72.2 5.40009C72.3 5.40009 72.4001 5.40009 72.4001 5.40009C72.4001 5.30009 72.4 5.2001 72.5 5.1001C72.6 4.9001 72.6 4.70009 72.7 4.40009C73 3.70009 73.4 3.00009 74 2.50009C75 1.50009 76.4001 0.800089 77.9001 0.700089C78.7001 0.600089 79.5 0.800092 80.2 1.00009C80.6 1.10009 81.0001 1.30009 81.3001 1.50009C81.4001 1.60009 81.8001 1.80009 81.9001 1.80009C82.0001 1.80009 82.3001 1.50009 82.4001 1.40009C83.6001 0.400085 85.2 0.100098 86.7 0.100098C88.4 0.100098 90.1 0.200095 91.6 1.30009C91.9 1.50009 92.2 1.80009 92.5 2.00009C92.6 2.10009 92.8001 2.30009 92.9001 2.40009C93.0001 2.50009 93.1 2.60009 93.1 2.70009C93.2 2.90009 93.2001 2.90009 93.4001 2.80009C94.1001 2.40009 94.9 2.20009 95.7 2.30009C96.2 2.40009 96.7 2.50009 97.1 2.70009C97.3 2.80009 97.6001 3.00009 97.8001 3.00009C98.0001 3.00009 98.3 2.80009 98.5 2.70009C99.4 2.40009 100.4 2.30009 101.3 2.40009C102.3 2.60009 103.2 2.90009 104.1 3.50009C104.5 3.80009 104.8 4.00009 105.1 4.40009C105.2 4.60009 105.3 4.70009 105.5 4.90009C105.6 5.00009 105.7 5.10009 105.8 5.20009C105.8 5.10009 106.9 4.70009 107 4.70009C107.5 4.60009 108.1 4.60009 108.6 4.80009C109.6 5.10009 110.5 5.9001 111.2 6.6001C111.6 7.0001 111.9 7.40009 112.2 7.90009C112.3 8.10009 112.4 8.3001 112.6 8.6001C112.7 8.7001 112.7 8.90009 112.8 9.00009C112.9 9.10009 113 9.10009 113.1 9.20009C113.9 9.50009 114.7 10.0001 115.3 10.6001C115.9 11.3001 116.3 12.1001 116.4 13.0001C116.4 13.1001 116.4 13.3001 116.4 13.3001C116.4 13.3001 116.6 13.3001 116.7 13.3001C116.9 13.3001 117.1 13.4001 117.3 13.4001C117.7 13.5001 118.1 13.6001 118.4 13.8001C119.8 14.5001 120.8 15.8001 121.3 17.3001C121.8 18.8001 121.8 20.6001 121.2 22.1001C121.1 22.3001 121 22.6001 120.8 22.8001C120.7 22.9001 120.7 22.9001 120.7 23.1001C120.8 23.3001 120.9 23.4001 120.9 23.6001C121.1 24.1001 121.3 24.7001 121.4 25.2001C121.6 26.1001 121.7 27.1001 121.5 28.0001C121.4 28.4001 121.3 28.8001 121.1 29.2001C121 29.4001 120.9 29.6001 120.7 29.7001C120.6 29.8001 120.5 29.9001 120.5 30.0001L120.4 30.1001C120.3 30.2001 120.3 30.1001 120.3 30.3001C120.4 30.6001 120.5 30.8001 120.6 31.1001C120.7 31.4001 120.8 31.6001 120.9 31.9001C121.1 32.4001 121.2 33.0001 121.3 33.5001C121.5 34.6001 121.4 35.7001 120.9 36.7001C120.7 37.1001 120.4 37.5001 120 37.8001C119.8 37.9001 119.6 38.1001 119.4 38.2001C119.3 38.3001 119.2 38.3001 119.1 38.4001C119 38.5001 119.1 38.7001 119.1 38.9001C119.3 40.0001 119.3 41.1001 119 42.2001C118.7 43.2001 118 44.0001 117.2 44.6001C115.6 45.7001 113.3 45.6001 111.6 44.8001C111.1 44.6001 110.7 44.3001 110.4 43.9001C109.4 45.2001 107.5 45.1001 106.1 44.8001C104.4 44.3001 103 43.1001 102.1 41.5001C101 42.8001 98.7001 42.4001 97.9001 41.0001C97.7001 40.6001 97.6 40.3001 97.5 39.9001C97.5 39.7001 97.5 39.5001 97.5 39.3001C97.5 39.0001 97.3 38.8001 97.2 38.5001C97 38.0001 96.9001 37.5001 96.9001 37.0001C96.9001 36.7001 96.9 36.4001 97 36.2001C97 35.9001 97.0001 35.7001 96.9001 35.5001C97.3001 35.6001 97.9001 35.5001 98.3001 35.3001C98.7001 35.2001 99.1001 34.8001 99.4001 34.5001C100.1 33.8001 100.5 32.9001 100.8 31.9001C101.4 29.9001 101.2 27.4001 99.1 26.3001C98.1 25.8001 95.3 25.8001 94.1 26.0001C92.9 26.3001 91.6 28.9001 91.5 29.2001C91.5 29.4001 91.5001 29.5001 91.3001 29.6001C91.0001 29.8001 90.5001 29.4001 90.3001 29.2001C89.9001 28.9001 89.6001 28.4001 89.4001 28.0001C88.9001 27.0001 88.4 26.0001 88.1 24.9001C87.9 24.1001 87.7001 23.2001 87.4001 22.4001C87.1001 21.6001 86.6001 20.9001 85.9001 20.4001C85.1001 19.9001 84.2001 19.6001 83.3001 19.3001C82.4001 19.0001 81.6001 18.6001 80.9001 18.0001C80.8001 17.9001 80.6 17.7001 80.5 17.5001C80.4 17.4001 80.3 17.1001 80.2 17.0001C80 16.9001 79.6 17.2001 79.5 17.3001C78.5 17.9001 77.7 18.8001 77.1 19.7001C76.5 20.6001 75.9 21.5001 75.5 22.6001C75.2 23.4001 75.0001 24.3001 74.4001 25.0001C74.2001 25.3001 72.3 25.5001 71.7 25.2001C71.1 25.0001 70.4 24.3001 70.2 23.9001C70 23.5001 69.9 23.0001 70 22.6001C70.1 22.3001 70.2 22.1001 70.2 21.8001C70.2 21.6001 70.3001 21.4001 70.4001 21.2001C70.6001 20.8001 70.9001 20.6001 71.4001 20.4001C71.0001 20.0001 70.6001 19.5001 70.4001 19.0001C70.1001 18.5001 69.9001 17.8001 69.9001 17.2001C69.9001 16.7001 69.9 16.2001 70.2 15.8001C70.5 15.4001 71.0001 15.1001 71.4001 14.8001C70.7001 14.3001 70.2 13.7001 69.7 13.0001C68.7 11.5001 68.1 9.80009 68.6 8.20009Z" fill="#02184C"/>
<path d="M73.7 30.3C73.8 33.1 71.3 35.7 71.3 38.5C71.3 40.5 73.4 40.7001 75.2 40.6001" fill="#0B45B7"/>
<path d="M74.4 28.9C74.4 28.3 74.8 27.8 75.4 27.5C76 27.3 76.6 27.2 77.1 27.3C77.7 27.4 78.2 27.6 78.7 27.8C79.2 28.1 79.6 28.4 79.9 28.9C79.4 28.7 78.9 28.6 78.4 28.5C77.9 28.4 77.4 28.3 77 28.2C76.5 28.1 76.1 28.1 75.6 28.1C75.2 28.4 74.8 28.5 74.4 28.9Z" fill="#02184C"/>
<path d="M75.1 43.7001C75.8 43.6001 76.5 43.2001 77.1 42.9001C77.7 42.6001 78.4 42.2002 79.3 42.1002L80.8 41.9001L79.7 43.0002C79.2 43.5002 78.6 44.1002 78 44.6002C77.4 45.1002 76.7 45.6001 75.8 45.7001C77 44.7001 77.8 43.4001 78.9 42.2001L79.3 43.0002C78.7 43.1002 78 43.3002 77.3 43.5002C76.6 43.8002 75.8 43.9001 75.1 43.7001Z" fill="#02184C"/>
<path d="M75.6 31.2001C76.0418 31.2001 76.4 30.8419 76.4 30.4001C76.4 29.9583 76.0418 29.6001 75.6 29.6001C75.1581 29.6001 74.8 29.9583 74.8 30.4001C74.8 30.8419 75.1581 31.2001 75.6 31.2001Z" fill="#02184C"/>
<path d="M34.4999 114.9L14.6999 99.7001C4.79989 97.9001 0.199941 96.3001 0.999941 95.0001C2.09994 93.0001 4.79989 94.4001 5.69989 93.2001C6.59989 92.0001 4.29994 88.3001 1.99994 84.9001C-0.300059 81.5001 1.89992 81.6001 3.09992 82.0001C7.39992 84.4001 11.8999 87.9001 16.4999 92.5001L42.9 104.1L34.4999 114.9Z" fill="#0B45B7"/>
<path d="M94.1 51.5002L87.8 50.4001C74.1 63.7001 68.5 95.7001 59.3 99.9001C50.7 103.9 38.4 100 23.8 94.8001L19.3 104.8C32.5 119.1 60.7 131.2 72.2 124.3C90.6 113.3 94.8 73.8002 94.1 51.5002Z" fill="#CE3A5E"/>
<path d="M121.6 130.6C96.2999 130.6 77.8 130.6 65.9 130.6C63.4 130.6 63.7999 126.9 64.1999 125.1C68.3999 103.7 85 80.6001 85 50.1001L101.1 47.6001C114.4 69.0001 119 95.3001 121.6 130.6Z" fill="#7DC1EF"/>
<path d="M121.1 93.0001C135.1 111.2 128.1 117.5 135.9 126.5L153.8 119.3C146.3 72.6001 138.2 69.8001 102.2 47.6001H102H95.8C81.4 96.8001 77.4 129.6 83.9 146H134.1C133.2 134 124.5 105.4 121.1 93.0001Z" fill="#F24C64"/>
<path d="M97.1 91.4001C96 91.7001 94.8001 89.2001 94.3001 88.5001C93.5001 87.2001 93 85.8001 92.6 84.3001C92.1 82.6001 92.6 80.7001 94.5 80.2001C95.2 80.0001 95.9 80.3001 96.5 80.7001C97.5 81.4001 98.5 82.6001 98.5 83.8001C98.5 83.9001 98.5 83.9001 98.5 83.8001C99.7 80.8001 104.3 81.6001 104 84.7001C103.9 87.2001 100.2 90.6001 97.1 91.4001Z" fill="#CE3A5E"/>
<path d="M92.7 333H96.3V169.5L96.5 168.8V168.5C96.5 162.8 101.1 158.2 106.8 158.2C112.5 158.2 117.1 162.8 117.1 168.5H120.7C120.7 160.8 114.5 154.6 106.8 154.6C99.2 154.6 93 160.7 92.9 168.2L92.7 168.9V333Z" fill="#CE3A5E"/>
<path d="M132 119.4L111.7 146.1C105.2 150.1 100 154.2 96.1 158.4C95.3 159.7 94.5 162.2 99.1 160.5C103.7 158.8 108.5 157.2 109.6 158.6C110.7 160 108.5 162.7 110.4 164.5C111.7 165.7 114.7 160.9 119.5 150.2L142.1 132L132 119.4Z" fill="#317FDD"/>
<path d="M233.7 132L199 238L181.7 317.9L167 317.4L188 130.5L233.7 132Z" fill="#317FDD"/>
<path d="M247.6 132.5C243.6 188 243.4 218.4 243.7 223.5C244 228.6 245.6 262.5 262.4 322.3L247.1 321.8C224.1 264.2 216.6 230 214 222.5C211.4 214.9 204 184.3 193.5 130.7L247.6 132.5Z" fill="#317FDD"/>
<path d="M234.3 132C225 168.6 209 226.9 186.5 307L165.1 306.3C166.3 223.4 174.9 169 187.8 130.5L234.3 132Z" fill="#1159CC"/>
<path d="M247.7 132.5C243.7 188 247.4 243 262.2 310.4L239.3 309.6C216.3 252.8 200.3 197.7 190.3 130.5L247.7 132.5Z" fill="#1D67DD"/>
<path d="M264.2 330.5L263.4 316.9C258.5 318.3 252.3 317.8 244.9 315.2C236.9 320.9 226.9 324.7 214.8 326.8C213.9 327 213.3 327.8 213.4 328.8C213.4 328.9 213.4 328.9 213.4 329L214.6 333.1H244.9H262.6L264.2 330.5Z" fill="#0B45B7"/>
<path d="M184.4 330.5L183.6 316.9C178.7 318.3 172.5 317.8 165.1 315.2C157.1 320.9 147.1 324.7 135 326.8C134.1 327 133.5 327.8 133.6 328.8C133.6 328.9 133.6 328.9 133.6 329L134.8 333.1H165.1H182.8L184.4 330.5Z" fill="#0B45B7"/>
<path d="M153.9 38.4002C155.8 32.7002 156.2 26.5002 153.4 20.8002C145.4 4.4002 123.5 17.6002 122.3 27.9002C121.1 38.2002 130.4 59.6002 136.9 58.7002C139.5 58.4002 143.9 54.9002 147.8 49.7002L153.7 73.6002L172.6 66.0002L153.9 38.4002Z" fill="#317FDD"/>
<path d="M138.4 29C141.7 39.4 141.8 45.2 138.7 46.4C134 48.3 128.9 46.9 126.9 47.7C125.4 48.3 126.5 50 128 51C129.3 51.8 133.7 51.3 134.4 53.1C135.1 54.9 131.4 54.8 131.8 55.8C132.5 57.5 133.3 61 136.3 59.8C139.3 58.6 147.6 54 147.3 48.8C147.1 45.5 145.3 39.2 141.9 29.9C142.1 29.8 142.3 29.7 142.4 29.6C145 28.6 148 29.8 149 32.4C149.5 33.7 149.5 35.1 148.9 36.4C150.6 37.5 152.5 38.6 154.6 39.7C158.6 34.4 159.9 23.1 151.2 16.3C148 12.5 142.7 11.9 138.5 12.4C134.9 12.3 131.6 13.5 129.2 15.4C124.1 18 120 21.5 119 23C121 28 122.6 29.1 130.8 25.6C133.4 26 135.8 27.2 138.4 29Z" fill="#D6EEFC"/>
<path d="M123.8 39.5C123.8 40.9 123.8 42.2 123.8 43.6C123.8 44.4 123.5 45.9 123.8 46.7C124.4 48.3 126.9 47.8 127.9 47.1" fill="#317FDD"/>
<path d="M124.2 35.4C124.3 34.9 124.7 34.4 125.1 34.1C125.6 33.8 126.1 33.6 126.6 33.6C127.1 33.5 127.6 33.6 128.1 33.7C128.6 33.8 129.1 33.9 129.6 34.1C128.6 34.5 127.6 34.5 126.7 34.6C126.2 34.6 125.8 34.7 125.4 34.8C125.1 34.9 124.6 35.2 124.2 35.4Z" fill="#D6EEFC"/>
<path d="M125.9 38.2001C126.342 38.2001 126.7 37.8419 126.7 37.4001C126.7 36.9583 126.342 36.6001 125.9 36.6001C125.458 36.6001 125.1 36.9583 125.1 37.4001C125.1 37.8419 125.458 38.2001 125.9 38.2001Z" fill="#0B45B7"/>
<path d="M286.5 119.3C288.9 120.6 300.6 121.7 308.1 121.7C311.1 121.7 311.5 124.1 311.1 125.1C307.4 133.4 300.1 131.6 292.8 132.8C284.9 134.1 290.8 141.7 284.6 142.8C283.8 138.5 283.1 130.1 278.7 127.1C276.8 125.8 257 110.3 219.4 80.4001L234.7 69.8C266 101.1 283.3 117.5 286.5 119.3Z" fill="#317FDD"/>
<path d="M166.7 57.7L159.3 57.5C153.8 99.6 113.2 116.2 111.8 131.8C111.3 137.5 115.7 139.7 113.9 141.7L124.4 147.2C125.7 145.1 129.6 148 136.4 144.6C143.1 141.2 173.8 105.6 166.7 57.7Z" fill="#97D2F2"/>
<path d="M151.1 70C182.4 114.1 164.4 143.2 182.4 157.2C197.3 168.7 253.6 153.5 251.5 133.6C250.7 125.6 247.2 117.5 242.1 109.7C248.2 114.2 253.3 118.3 257.4 121.7C264.5 127.7 273.1 123.5 275 126.4L283.3 116.5C280 113.1 283.5 107.9 276.3 100.2C244 65.6 209.1 48.3 171.7 48.4L168.9 44.8C167.7 43.3 165.6 43.1 164.1 44.3L146.2 58.5C144.7 59.7 144.5 61.8 145.7 63.3L151.1 70Z" fill="#C1E7F7"/>
<path d="M143.7 127C141.1 127 136.4 126 135 128.5C133.2 131.6 136.3 138.8 138.7 140.8C145.1 145.8 154.3 137.7 152.4 130.4C151.3 126.2 147.5 127 143.7 127Z" fill="#0B45B7"/>
</svg>
