<svg width="857" height="425" viewBox="0 0 857 425" fill="none" xmlns="http://www.w3.org/2000/svg">
<path opacity="0.63" d="M41.9991 236C70.0004 212.5 133.4 224.352 163 223.5C309.719 219.238 368.134 198.385 513.939 182.473C583.919 174.801 665.409 156.143 735.479 163.815C852.416 176.506 862.008 346.8 770.195 403.249C740.138 421.718 649.898 425.8 615 424C499.525 418.128 470.792 417.266 355.5 409.5C296.118 405.522 206.5 397 139 391C71.5003 385 -69.7634 329.797 41.9991 236Z" fill="#97D2F2"/>
<g opacity="0.67">
<path opacity="0.67" d="M333.407 0C337.884 1.82734 342.27 3.83741 346.838 5.48201C401.293 25.6741 455.839 45.7748 510.385 65.8755C511.39 66.241 512.395 66.6978 514.222 67.4288C506.639 67.4288 500.061 67.1547 493.391 67.5202C485.99 67.8856 479.229 66.3324 472.285 63.8655C426.784 47.1453 381.192 30.6993 335.692 14.3446C333.59 13.6137 330.849 13.6137 328.748 14.3446C278.953 31.9784 229.249 49.795 179.454 67.4288C177.079 68.2511 174.429 68.7079 171.962 68.7079C164.105 68.8906 156.247 68.7993 147.202 68.7993C148.938 68.0684 149.669 67.6115 150.491 67.3374C209.605 45.5007 268.628 23.5727 327.743 1.73597C328.93 1.27913 329.935 0.639568 331.032 0C331.854 0 332.585 0 333.407 0Z" fill="#4390DD"/>
<path opacity="0.67" d="M510.477 72.2715C508.284 75.6521 506.457 78.5758 504.355 81.865C389.599 81.865 274.294 81.865 159.171 81.865C157.435 78.6672 155.882 75.7434 153.963 72.2715C273.014 72.2715 391.243 72.2715 510.477 72.2715Z" fill="#4390DD"/>
<path opacity="0.67" d="M505.177 86.2505C505.177 89.357 505.177 92.0066 505.177 94.9303C389.872 94.9303 274.75 94.9303 159.354 94.9303C159.354 92.098 159.354 89.357 159.354 86.2505C274.476 86.2505 389.689 86.2505 505.177 86.2505Z" fill="#4390DD"/>
<path opacity="0.67" d="M142.816 221.656C269.725 221.656 396.451 221.656 523.085 221.656C524.547 227.778 524.273 228.143 518.517 228.143C394.806 228.143 271.187 228.143 147.476 228.143C141.811 228.235 141.811 228.143 142.816 221.656Z" fill="#4390DD"/>
<path opacity="0.67" d="M517.238 211.971C517.33 213.159 517.421 214.255 517.421 215.26C517.421 216.174 517.238 216.996 517.147 218.184C394.258 218.184 271.461 218.184 148.481 218.184C148.481 216.174 148.481 214.255 148.481 212.063C271.279 211.971 394.076 211.971 517.238 211.971Z" fill="#4390DD"/>
<path opacity="0.67" d="M152.41 208.408C152.41 206.398 152.41 204.571 152.41 202.378C271.461 202.378 390.42 202.378 509.654 202.378C509.654 204.297 509.654 206.215 509.654 208.408C390.695 208.408 271.643 208.408 152.41 208.408Z" fill="#4390DD"/>
<path opacity="0.67" d="M469.727 67.1549C377.721 67.1549 285.714 67.1549 193.708 67.1549C193.616 66.9722 193.616 66.7895 193.525 66.6068C201.2 63.8658 208.875 61.0334 216.549 58.2924C253.279 45.2269 290.1 32.1614 326.829 19.0046C330.21 17.8168 333.134 17.8168 336.514 19.0046C380.187 34.7197 423.861 50.2521 467.443 65.7844C468.265 66.0585 469.088 66.424 469.818 66.6981C469.818 66.8808 469.818 67.0636 469.727 67.1549ZM452.276 64.2312C452.367 64.0485 452.459 63.7744 452.55 63.5916C451.636 63.2262 450.723 62.8607 449.809 62.5866C411.344 48.8816 372.878 35.1765 334.413 21.5629C332.585 20.9233 330.118 21.1974 328.2 21.837C290.465 35.1765 252.731 48.6075 214.996 62.0384C213.626 62.4953 212.347 63.1348 210.976 63.683C211.067 63.8657 211.067 64.0485 211.159 64.2312C291.562 64.2312 371.873 64.2312 452.276 64.2312Z" fill="#4390DD"/>
<path opacity="0.67" d="M206.956 198.358C212.347 193.789 211.342 187.668 211.616 182.095C212.621 163.456 213.352 144.817 214.265 126.087C214.265 125.356 214.448 124.625 214.631 123.528C219.93 123.528 225.138 123.528 230.986 123.528C231.26 128.279 231.625 133.213 231.717 138.147C232.265 155.689 232.722 173.141 233.361 190.683C233.452 192.602 234.549 194.52 235.463 196.256C236.376 198.084 236.559 199.363 234.183 199.363C225.686 199.454 217.189 199.363 208.692 199.271C208.327 199.363 207.961 198.997 206.956 198.358Z" fill="#4390DD"/>
<path opacity="0.67" d="M401.476 199.089C391.517 199.089 382.106 199.089 372.421 199.089C379.274 188.033 376.442 176.064 377.447 164.643C378.726 151.03 378.908 137.416 379.548 123.528C385.03 123.528 390.238 123.528 396.085 123.528C396.268 126.726 396.634 130.015 396.725 133.213C397.273 151.852 397.73 170.582 398.461 189.221C398.552 191.688 400.106 194.155 400.928 196.622C401.111 197.353 401.293 198.084 401.476 199.089Z" fill="#4390DD"/>
<path opacity="0.67" d="M317.144 199.18C323.997 190.409 321.256 180.633 322.261 171.496C323.266 162.177 323.174 152.674 323.631 143.264C323.905 136.685 324.362 130.198 324.636 123.437C330.209 123.437 335.509 123.437 341.174 123.437C341.356 126.178 341.63 128.828 341.722 131.477C342.27 150.847 342.727 170.126 343.458 189.495C343.549 191.779 344.828 194.064 345.65 196.256C345.925 197.079 346.29 197.81 346.747 199.089C336.971 199.18 327.651 199.18 317.144 199.18Z" fill="#4390DD"/>
<path opacity="0.67" d="M452.185 123.528C452.276 125.447 452.368 127.274 452.459 129.01C453.007 148.837 453.555 168.664 454.286 188.49C454.378 191.231 455.931 193.972 456.753 196.713C456.936 197.444 457.027 198.084 457.301 199.18C447.708 199.18 438.389 199.18 428.886 199.18C428.795 198.632 428.521 197.901 428.795 197.718C432.541 193.789 432.358 188.856 432.632 183.922C433.546 165.009 434.368 146.096 435.191 127.183C435.282 125.995 435.465 124.899 435.647 123.528C441.129 123.528 446.337 123.528 452.185 123.528Z" fill="#4390DD"/>
<path opacity="0.67" d="M261.867 199.454C269.268 190.226 266.435 180.267 267.258 171.039C268.537 156.786 268.72 142.441 269.359 128.188C269.451 126.635 269.725 125.173 269.907 123.437C275.298 123.437 280.597 123.437 286.902 123.437C286.902 129.65 286.81 135.954 286.902 142.167C287.267 157.974 287.724 173.872 288.364 189.678C288.455 191.962 289.734 194.246 290.739 196.348C291.47 197.901 292.018 199.272 289.734 199.363C280.963 199.546 272.1 199.454 261.867 199.454Z" fill="#4390DD"/>
<path opacity="0.67" d="M485.625 123.528C491.016 123.528 496.224 123.528 501.888 123.528C502.162 129.467 502.437 135.406 502.711 141.436C503.259 155.964 503.807 170.582 504.172 185.11C504.264 189.404 503.624 193.607 506.639 197.261C506.822 197.444 505.726 199.454 505.178 199.454C496.315 199.637 487.452 199.546 478.773 199.546C478.498 198.815 478.316 198.449 478.407 198.358C484.529 190.774 482.153 181.638 482.793 173.141C484.072 157.243 484.529 141.253 485.26 125.264C485.351 124.625 485.534 124.168 485.625 123.528Z" fill="#4390DD"/>
<path opacity="0.67" d="M161.729 123.528C167.211 123.528 172.419 123.528 177.901 123.528C178.084 124.077 178.267 124.716 178.267 125.264C178.906 146.37 179.363 167.567 180.186 188.673C180.277 191.323 181.83 193.881 182.47 196.622C182.653 197.444 182.013 199.363 181.739 199.363C172.785 199.546 163.831 199.454 154.968 199.454C154.694 198.723 154.512 198.358 154.603 198.175C160.45 191.048 158.258 182.46 158.897 174.42C160.085 158.613 160.542 142.715 161.364 126.909C161.364 125.904 161.547 124.716 161.729 123.528Z" fill="#4390DD"/>
<path opacity="0.67" d="M344.006 99.4072C343.184 105.255 342.544 110.919 341.631 116.493C341.448 117.406 339.895 118.777 338.89 118.868C334.687 119.142 330.392 119.142 326.098 118.868C325.185 118.777 323.723 117.315 323.631 116.401C322.992 110.919 322.718 105.346 322.169 99.4986C329.387 99.4072 336.331 99.4072 344.006 99.4072Z" fill="#4390DD"/>
<path opacity="0.67" d="M289.643 99.4072C288.821 105.255 288.181 111.011 287.176 116.676C286.993 117.589 285.349 118.777 284.344 118.868C280.232 119.142 276.121 119.142 272.009 118.868C271.004 118.777 269.451 117.315 269.359 116.31C268.628 110.828 268.354 105.346 267.806 99.4986C274.841 99.4072 281.785 99.4072 289.643 99.4072Z" fill="#4390DD"/>
<path opacity="0.67" d="M159.81 99.3159C167.302 99.3159 174.155 99.3159 181.647 99.3159C180.733 105.894 179.911 112.199 178.997 118.686C173.058 118.686 167.485 118.686 161.546 118.686C160.998 112.29 160.358 106.077 159.81 99.3159Z" fill="#4390DD"/>
<path opacity="0.67" d="M234.457 99.3159C233.544 105.529 232.721 111.376 231.808 117.132C231.716 117.772 230.529 118.777 229.798 118.777C224.772 118.96 219.747 118.868 214.357 118.868C213.717 112.29 213.169 105.986 212.529 99.3159C219.747 99.3159 226.691 99.3159 234.457 99.3159Z" fill="#4390DD"/>
<path opacity="0.67" d="M433.637 99.3159C440.855 99.3159 447.89 99.3159 455.474 99.3159C454.652 105.346 454.012 111.011 453.007 116.676C452.824 117.589 451.271 118.777 450.175 118.868C446.063 119.143 441.952 119.143 437.84 118.868C436.835 118.777 435.282 117.315 435.099 116.31C434.459 110.737 434.185 105.255 433.637 99.3159Z" fill="#4390DD"/>
<path opacity="0.67" d="M377.446 99.3159C384.938 99.3159 391.882 99.3159 399.374 99.3159C398.461 105.529 397.73 111.468 396.725 117.315C396.633 117.955 395.354 118.868 394.532 118.868C389.507 119.051 384.573 118.96 379.274 118.96C378.543 112.29 377.994 106.077 377.446 99.3159Z" fill="#4390DD"/>
<path opacity="0.67" d="M505.36 99.4072C504.538 105.437 503.807 111.011 502.802 116.584C502.619 117.498 501.066 118.777 500.061 118.868C495.31 119.142 490.559 118.96 485.259 118.96C484.62 112.381 484.072 106.077 483.432 99.4072C490.924 99.4072 497.868 99.4072 505.36 99.4072Z" fill="#4390DD"/>
</g>
<path d="M599.405 324.992H511.328L517.084 286.435H593.558L599.405 324.992Z" fill="#89130A"/>
<path d="M611.557 328.921H498.445V335.317H611.557V328.921Z" fill="#89130A"/>
<path d="M498.445 328.921L511.328 324.992H599.405L611.557 328.921H498.445Z" fill="#FC7660"/>
<path d="M389.81 256.284V278.76C389.81 282.963 393.282 286.435 397.484 286.435H713.066C717.269 286.435 720.741 282.963 720.741 278.76V256.284H389.81V256.284Z" fill="#FC7660"/>
<path d="M720.832 256.284V64.0484C720.832 59.8455 717.36 56.3735 713.157 56.3735H397.576C393.373 56.3735 389.901 59.8455 389.901 64.0484V256.193H720.832V256.284Z" fill="#89130A"/>
<path d="M710.507 66.3325H399.769V244.681H710.507V66.3325Z" fill="#F9BAB7"/>
<path d="M554.087 276.019C557.014 276.019 559.387 273.647 559.387 270.72C559.387 267.793 557.014 265.421 554.087 265.421C551.161 265.421 548.788 267.793 548.788 270.72C548.788 273.647 551.161 276.019 554.087 276.019Z" fill="#89130A"/>
<path d="M689.858 136.868H420.783C416.58 136.868 413.108 133.396 413.108 129.193V83.3267C413.108 79.1238 416.58 75.6519 420.783 75.6519H689.858C694.061 75.6519 697.533 79.1238 697.533 83.3267V129.193C697.625 133.396 694.153 136.868 689.858 136.868Z" fill="#F9E8E8"/>
<path d="M458.244 230.154H420.326C416.215 230.154 412.926 226.773 412.926 222.753V154.41C412.926 150.299 416.306 147.01 420.326 147.01H458.244C462.355 147.01 465.644 150.39 465.644 154.41V222.753C465.736 226.864 462.355 230.154 458.244 230.154Z" fill="#F9E8E8"/>
<path d="M689.859 229.605H482.273C478.07 229.605 474.598 226.133 474.598 221.93V154.593C474.598 150.39 478.07 146.918 482.273 146.918H689.859C694.061 146.918 697.533 150.39 697.533 154.593V221.93C697.533 226.133 694.061 229.605 689.859 229.605Z" fill="#F9E8E8"/>
<path d="M382.774 306.627L372.267 284.608L349.151 294.293L387.343 190.409L421.057 202.835L382.774 306.627Z" fill="#1159CC"/>
<path d="M420.966 306.627L431.473 284.608L454.589 294.293L416.398 190.409L382.775 202.835L420.966 306.627Z" fill="#1D67DD"/>
<path d="M424.621 231.433C423.798 231.433 422.976 231.433 422.154 231.433C421.788 231.433 421.606 231.524 421.514 231.89C421.057 233.534 420.509 235.087 420.052 236.641C419.961 236.915 419.87 237.006 419.596 236.915C418.773 236.732 417.951 236.549 417.129 236.275C416.215 236.001 415.301 235.818 414.388 235.544C414.114 235.453 414.022 235.727 413.931 235.91C413.108 237.372 412.378 238.742 411.555 240.204C411.373 240.569 411.281 240.661 410.824 240.478C410.002 240.021 409.18 239.564 408.266 239.29C407.626 239.016 407.078 238.742 406.53 238.377C406.165 238.194 405.982 238.194 405.708 238.559C404.703 239.839 403.606 241.026 402.601 242.214C402.327 242.488 402.144 242.58 401.779 242.305C400.5 241.3 399.221 240.295 397.942 239.29C397.576 239.016 397.393 239.108 397.119 239.29C395.931 240.204 394.652 241.209 393.465 242.123C392.916 242.58 392.916 242.58 392.46 242.031C391.455 240.844 390.45 239.656 389.444 238.377C389.17 238.103 389.079 238.011 388.714 238.194C387.252 238.925 385.698 239.656 384.237 240.295C383.871 240.478 383.688 240.478 383.506 240.113C382.775 238.651 382.044 237.189 381.313 235.818C381.13 235.453 380.947 235.362 380.582 235.453C379.029 235.818 377.475 236.184 375.922 236.641C375.557 236.732 375.374 236.732 375.191 236.275C374.734 234.722 374.369 233.26 374.003 231.707C373.912 231.25 373.638 231.067 373.181 231.067C371.902 231.159 370.714 231.067 369.435 231.25C368.978 231.25 368.613 231.25 368.156 231.25C367.882 231.25 367.882 230.976 367.882 230.793C367.79 229.24 367.699 227.778 367.608 226.225C367.516 225.311 367.608 225.311 366.694 225.22C365.141 224.946 363.588 224.672 362.126 224.398C361.76 224.306 361.76 224.123 361.852 223.849C362.126 222.205 362.308 220.651 362.583 219.007C362.674 218.55 362.583 218.367 362.126 218.185C360.664 217.636 359.111 216.905 357.649 216.357C357.192 216.175 357.192 215.992 357.375 215.626C357.923 214.073 358.471 212.611 359.019 211.058C359.111 210.692 359.111 210.51 358.745 210.236C357.375 209.322 356.004 208.317 354.634 207.403C354.268 207.221 354.36 207.038 354.542 206.764C355.456 205.393 356.278 203.931 357.192 202.561C357.375 202.287 357.375 202.104 357.101 201.83C356.004 200.734 354.908 199.546 353.811 198.358C353.355 197.81 353.355 197.81 353.811 197.353C354.908 196.257 356.004 195.069 357.101 193.972C357.375 193.698 357.375 193.424 357.192 193.059C356.37 191.688 355.547 190.318 354.725 189.039C354.451 188.582 354.542 188.399 354.908 188.125C356.278 187.303 357.557 186.298 358.928 185.475C359.202 185.292 359.293 185.11 359.202 184.744C358.654 183.191 358.106 181.638 357.557 180.176C357.375 179.719 357.466 179.628 357.923 179.445C359.476 178.897 360.938 178.257 362.4 177.618C362.765 177.435 362.857 177.252 362.765 176.887C362.583 175.242 362.308 173.689 362.126 172.044C362.034 171.679 362.126 171.496 362.583 171.496C364.136 171.222 365.78 170.948 367.334 170.674C367.791 170.582 367.973 170.4 367.973 169.943C368.065 168.39 368.247 166.836 368.339 165.283C368.43 164.644 368.43 164.644 369.07 164.644C370.714 164.735 372.359 164.735 374.003 164.826C374.278 164.826 374.369 164.735 374.46 164.461C374.734 162.999 375.283 161.628 375.648 160.167C375.922 159.07 375.922 159.07 377.019 159.344C378.48 159.71 379.851 160.075 381.313 160.441C381.678 160.532 381.861 160.441 382.044 160.167C382.775 158.705 383.597 157.334 384.328 155.872C384.511 155.507 384.693 155.416 385.15 155.598C386.612 156.329 388.074 157.06 389.444 157.791C389.81 157.974 389.993 157.974 390.267 157.608C391.363 156.329 392.46 155.141 393.465 153.862C393.739 153.588 393.83 153.588 394.104 153.771C395.383 154.776 396.662 155.781 397.942 156.877C398.216 157.151 398.398 157.151 398.764 156.877C400.043 155.872 401.322 154.867 402.601 153.862C402.875 153.588 403.058 153.588 403.332 153.954C404.337 155.233 405.434 156.421 406.439 157.7C406.713 158.065 406.896 158.065 407.352 157.882C408.814 157.151 410.276 156.421 411.829 155.781C412.195 155.598 412.286 155.69 412.469 156.055C413.2 157.517 414.022 158.979 414.753 160.441C414.936 160.806 415.119 160.898 415.484 160.806C417.037 160.441 418.59 160.075 420.144 159.618C420.601 159.527 420.692 159.618 420.875 159.984C421.24 161.537 421.788 163.09 422.154 164.644C422.245 165.1 422.519 165.283 422.976 165.192C424.529 165.1 426.174 165.1 427.727 165.009C428.184 165.009 428.275 165.1 428.275 165.557C428.367 167.202 428.549 168.755 428.641 170.4C428.641 170.857 428.824 170.948 429.28 171.039C430.834 171.313 432.296 171.587 433.849 171.862C434.397 171.953 434.488 172.227 434.397 172.684C434.123 174.237 433.94 175.79 433.666 177.344C433.575 177.8 433.666 177.983 434.123 178.166C435.676 178.805 437.138 179.445 438.691 179.993C439.057 180.176 439.057 180.267 438.965 180.633C438.417 182.186 437.778 183.739 437.229 185.292C437.138 185.658 437.229 185.841 437.503 186.023C438.874 186.937 440.153 187.851 441.524 188.764C441.889 189.039 441.98 189.13 441.706 189.495C440.793 190.866 439.97 192.236 439.148 193.607C438.874 193.972 438.965 194.155 439.239 194.521C440.336 195.708 441.432 196.896 442.62 197.992C442.894 198.267 442.894 198.449 442.62 198.723C441.432 199.911 440.336 201.099 439.148 202.287C438.874 202.561 438.874 202.744 439.057 203.018C439.879 204.388 440.793 205.85 441.615 207.221C441.889 207.586 441.798 207.769 441.432 207.951C440.062 208.865 438.783 209.779 437.412 210.601C437.138 210.784 437.047 210.967 437.138 211.332C437.686 212.885 438.234 214.439 438.783 215.9C438.965 216.266 438.874 216.449 438.509 216.631C437.047 217.18 435.585 217.819 434.032 218.367C433.575 218.55 433.483 218.733 433.575 219.19C433.849 220.834 434.032 222.387 434.214 224.032C434.214 224.398 434.214 224.489 433.849 224.489C432.113 224.763 430.468 225.037 428.732 225.311C428.367 225.403 428.367 225.585 428.367 225.859C428.275 227.321 428.093 228.783 428.001 230.245C428.001 230.336 428.001 230.428 428.001 230.428C427.91 231.25 427.91 231.25 427.179 231.25C426.448 231.25 425.717 231.25 424.986 231.25C424.621 231.524 424.621 231.433 424.621 231.433ZM372.45 166.562C372.45 166.471 372.45 166.471 372.45 166.38C371.628 166.38 370.897 166.38 370.075 166.38C369.709 166.38 369.618 166.562 369.526 166.836C369.435 168.298 369.252 169.851 369.161 171.313C369.161 171.77 368.978 171.953 368.521 172.044C367.06 172.227 365.689 172.501 364.227 172.775C363.679 172.867 363.588 173.049 363.679 173.598C363.862 174.968 364.044 176.43 364.227 177.8C364.319 178.349 364.136 178.623 363.679 178.805C362.4 179.262 361.029 179.81 359.75 180.359C359.111 180.633 359.111 180.633 359.293 181.272C359.842 182.734 360.298 184.196 360.847 185.567C360.938 185.749 360.938 185.932 360.755 186.023C360.024 186.572 359.385 187.12 358.654 187.577C358.014 187.942 357.375 188.399 356.735 188.764C356.37 189.039 356.37 189.221 356.644 189.587C357.466 190.866 358.197 192.145 359.019 193.424C359.202 193.698 359.202 193.972 358.928 194.246C357.831 195.343 356.826 196.439 355.821 197.444C355.456 197.81 355.456 198.084 355.821 198.358C356.826 199.363 357.832 200.459 358.837 201.464C359.202 201.83 359.202 202.104 358.928 202.561C358.106 203.84 357.375 205.119 356.552 206.307C356.37 206.581 356.37 206.764 356.735 206.946C358.014 207.769 359.202 208.682 360.481 209.505C360.847 209.779 360.938 210.053 360.755 210.418C360.207 211.789 359.75 213.159 359.202 214.53C359.019 214.987 359.111 215.169 359.567 215.352C360.847 215.9 362.126 216.449 363.496 216.997C364.319 217.362 364.319 217.362 364.136 218.276C363.953 219.555 363.77 220.834 363.588 222.205C363.496 223.027 363.496 223.027 364.319 223.118C365.689 223.392 367.06 223.667 368.43 223.849C368.887 223.941 369.07 224.123 369.07 224.58C369.07 226.042 369.344 227.413 369.344 228.874C369.344 229.514 369.435 229.605 370.075 229.605C371.537 229.605 372.998 229.514 374.46 229.514C374.826 229.514 375.008 229.605 375.191 230.062C375.557 231.433 375.922 232.803 376.379 234.174C376.653 234.996 376.653 234.996 377.475 234.813C378.846 234.448 380.216 234.174 381.587 233.808C381.952 233.717 382.135 233.808 382.318 234.082C383.049 235.453 383.78 236.823 384.511 238.194C384.693 238.468 384.785 238.559 385.15 238.468C386.521 237.828 387.891 237.189 389.262 236.549C389.719 236.367 389.993 236.367 390.267 236.732C391.18 237.92 392.094 239.016 393.008 240.113C393.282 240.387 393.465 240.569 393.921 240.295C395.109 239.29 396.388 238.468 397.576 237.463C397.85 237.28 398.033 237.28 398.307 237.463C399.495 238.468 400.774 239.382 401.962 240.295C402.236 240.569 402.419 240.569 402.693 240.204C403.698 239.016 404.703 237.92 405.708 236.732C405.982 236.458 406.165 236.367 406.53 236.549C407.809 237.189 409.18 237.828 410.459 238.468C411.007 238.742 411.19 238.559 411.373 238.194C412.012 237.006 412.652 235.818 413.291 234.631C413.748 233.808 413.748 233.808 414.662 234.082C416.032 234.448 417.311 234.722 418.682 235.087C419.139 235.179 419.321 234.996 419.413 234.631C419.778 233.26 420.235 231.798 420.692 230.428C420.783 229.971 421.057 229.88 421.514 229.88C422.976 229.971 424.438 230.062 425.9 230.062C426.448 230.062 426.631 229.88 426.631 229.423C426.722 227.961 426.905 226.59 426.905 225.128C426.905 224.672 427.088 224.489 427.544 224.398C429.006 224.123 430.56 223.849 432.021 223.575C432.387 223.484 432.478 223.392 432.478 223.027C432.296 221.565 432.113 220.012 431.93 218.55C431.839 218.093 431.93 217.819 432.387 217.636C433.757 217.088 435.219 216.54 436.59 215.992C436.864 215.9 437.047 215.809 436.864 215.352C436.316 213.982 435.859 212.52 435.311 211.058C435.128 210.601 435.219 210.327 435.585 210.053C436.864 209.231 438.052 208.408 439.239 207.586C439.605 207.312 439.696 207.129 439.422 206.672C438.6 205.393 437.869 204.114 437.047 202.835C436.864 202.561 436.773 202.378 437.047 202.013C438.143 200.916 439.148 199.82 440.244 198.723C440.61 198.358 440.61 198.175 440.244 197.81C439.239 196.713 438.234 195.617 437.138 194.612C436.864 194.338 436.864 194.155 437.047 193.79C437.869 192.51 438.6 191.323 439.422 190.044C439.696 189.587 439.696 189.313 439.239 189.039C438.052 188.216 436.864 187.394 435.585 186.572C435.219 186.298 435.219 186.115 435.311 185.749C435.859 184.379 436.316 182.917 436.864 181.546C437.047 181.09 436.955 180.907 436.498 180.724C435.128 180.176 433.757 179.536 432.387 178.988C432.021 178.805 431.93 178.623 431.93 178.257C432.204 176.704 432.387 175.242 432.57 173.689C432.661 173.323 432.478 173.141 432.204 173.141C430.742 172.867 429.372 172.501 427.91 172.41C427.453 172.41 427.088 172.227 427.088 171.679C426.996 170.126 426.905 168.664 426.814 167.202C426.814 166.745 426.631 166.562 426.174 166.654C424.712 166.745 423.25 166.745 421.88 166.836C421.332 166.836 421.057 166.654 420.966 166.197C420.601 164.826 420.235 163.456 419.778 162.085C419.687 161.72 419.596 161.446 419.047 161.628C417.677 161.994 416.215 162.268 414.844 162.633C414.388 162.725 414.022 162.725 413.839 162.177C413.2 160.898 412.469 159.71 411.829 158.431C411.555 157.974 411.373 157.882 410.916 158.065C409.637 158.705 408.266 159.344 406.987 159.984C406.53 160.167 406.347 160.075 406.073 159.801C405.068 158.613 404.155 157.517 403.15 156.329C402.875 155.964 402.693 155.964 402.419 156.238C401.139 157.243 399.952 158.157 398.673 159.162C398.398 159.344 398.307 159.344 398.033 159.162C396.754 158.157 395.566 157.243 394.287 156.238C394.013 155.964 393.83 155.964 393.556 156.329C392.642 157.426 391.637 158.522 390.724 159.71C390.358 160.167 389.993 160.167 389.536 159.892C388.257 159.253 386.886 158.613 385.607 157.974C385.333 157.791 385.15 157.791 384.967 158.157C384.237 159.436 383.506 160.715 382.866 162.085C382.592 162.634 382.318 162.725 381.77 162.542C380.399 162.177 378.937 161.811 377.567 161.446C377.11 161.354 376.927 161.446 376.836 161.903C376.47 163.364 376.014 164.735 375.557 166.197C375.465 166.562 375.283 166.745 374.826 166.745C373.912 166.471 373.181 166.562 372.45 166.562Z" fill="#FBFAF6"/>
<path d="M372.45 166.562C373.181 166.562 374.003 166.562 374.734 166.562C375.191 166.562 375.282 166.471 375.465 166.014C375.83 164.552 376.287 163.181 376.744 161.719C376.835 161.263 377.018 161.171 377.475 161.263C378.845 161.628 380.307 161.994 381.678 162.359C382.226 162.45 382.5 162.45 382.774 161.902C383.414 160.532 384.236 159.253 384.876 157.973C385.058 157.608 385.241 157.608 385.515 157.791C386.794 158.43 388.165 159.07 389.444 159.709C389.901 159.984 390.266 159.984 390.632 159.527C391.546 158.339 392.551 157.334 393.464 156.146C393.738 155.872 393.921 155.872 394.195 156.055C395.383 157.06 396.662 157.973 397.941 158.978C398.215 159.161 398.307 159.161 398.581 158.978C399.86 157.973 401.048 157.06 402.327 156.055C402.601 155.781 402.784 155.781 403.058 156.146C403.971 157.334 404.976 158.43 405.981 159.618C406.256 159.984 406.438 160.075 406.895 159.801C408.174 159.161 409.545 158.522 410.824 157.882C411.281 157.608 411.555 157.699 411.738 158.248C412.377 159.527 413.108 160.714 413.748 161.994C414.022 162.542 414.296 162.542 414.753 162.45C416.123 162.085 417.585 161.811 418.956 161.445C419.504 161.354 419.595 161.537 419.687 161.902C420.052 163.273 420.509 164.643 420.874 166.014C420.966 166.562 421.24 166.745 421.788 166.653C423.25 166.562 424.712 166.562 426.082 166.471C426.539 166.471 426.722 166.562 426.722 167.019C426.813 168.572 426.904 170.034 426.996 171.496C426.996 172.044 427.453 172.135 427.818 172.227C429.28 172.409 430.651 172.775 432.112 172.958C432.478 173.049 432.569 173.232 432.478 173.506C432.204 175.059 432.021 176.521 431.838 178.074C431.747 178.44 431.838 178.714 432.295 178.805C433.666 179.353 435.036 179.993 436.407 180.541C436.863 180.724 436.955 180.907 436.772 181.363C436.224 182.734 435.767 184.196 435.219 185.566C435.036 185.932 435.128 186.114 435.493 186.389C436.681 187.211 437.869 188.125 439.148 188.855C439.604 189.13 439.604 189.404 439.33 189.861C438.508 191.048 437.777 192.327 436.955 193.607C436.772 193.972 436.772 194.155 437.046 194.429C438.051 195.525 439.056 196.622 440.153 197.627C440.518 197.992 440.518 198.175 440.153 198.54C439.056 199.637 438.051 200.733 436.955 201.83C436.681 202.104 436.772 202.378 436.955 202.652C437.777 203.931 438.508 205.21 439.33 206.489C439.604 206.855 439.513 207.129 439.148 207.403C437.869 208.225 436.681 209.048 435.493 209.87C435.036 210.144 435.036 210.418 435.219 210.875C435.767 212.245 436.224 213.707 436.772 215.169C436.955 215.535 436.772 215.626 436.498 215.809C435.128 216.357 433.666 216.996 432.295 217.453C431.838 217.636 431.747 217.819 431.838 218.367C432.021 219.829 432.204 221.382 432.387 222.844C432.478 223.209 432.295 223.301 431.93 223.392C430.468 223.666 428.915 223.94 427.453 224.214C426.996 224.306 426.813 224.489 426.813 224.945C426.722 226.407 426.63 227.778 426.539 229.24C426.539 229.696 426.356 229.971 425.808 229.879C424.346 229.788 422.884 229.788 421.423 229.696C420.966 229.696 420.783 229.788 420.6 230.245C420.235 231.707 419.778 233.077 419.321 234.448C419.23 234.813 419.047 235.087 418.59 234.904C417.311 234.539 415.94 234.265 414.57 233.899C413.656 233.625 413.656 233.625 413.199 234.448C412.56 235.635 411.92 236.823 411.281 238.011C411.098 238.468 410.824 238.559 410.367 238.285C409.088 237.554 407.717 237.006 406.438 236.366C406.073 236.184 405.799 236.184 405.616 236.549C404.611 237.737 403.606 238.833 402.601 240.021C402.327 240.386 402.144 240.295 401.87 240.112C400.682 239.107 399.403 238.194 398.215 237.28C397.941 237.097 397.758 237.006 397.484 237.28C396.297 238.194 395.017 239.107 393.83 240.112C393.373 240.478 393.19 240.295 392.916 239.93C392.002 238.833 390.997 237.737 390.175 236.549C389.81 236.092 389.627 236.184 389.17 236.366C387.799 237.006 386.429 237.645 385.058 238.285C384.693 238.468 384.602 238.376 384.419 238.011C383.688 236.64 382.957 235.27 382.226 233.899C382.043 233.534 381.769 233.534 381.495 233.625C380.125 233.991 378.754 234.265 377.384 234.63C376.561 234.813 376.561 234.813 376.287 233.991C375.922 232.62 375.465 231.25 375.099 229.879C375.008 229.514 374.825 229.331 374.369 229.331C372.907 229.422 371.445 229.422 369.983 229.422C369.343 229.422 369.252 229.422 369.252 228.691C369.252 227.23 369.069 225.859 368.978 224.397C368.978 223.94 368.795 223.666 368.338 223.666C366.968 223.484 365.597 223.209 364.227 222.935C363.404 222.753 363.404 222.753 363.496 222.022C363.679 220.743 363.861 219.372 364.044 218.093C364.227 217.179 364.227 217.179 363.405 216.814C362.125 216.266 360.846 215.717 359.476 215.169C359.019 214.986 359.019 214.712 359.11 214.347C359.658 212.976 360.115 211.606 360.664 210.235C360.755 209.87 360.755 209.596 360.389 209.322C359.11 208.499 357.922 207.586 356.643 206.763C356.369 206.581 356.278 206.398 356.461 206.124C357.283 204.845 358.014 203.566 358.836 202.378C359.11 201.921 359.11 201.647 358.745 201.281C357.74 200.276 356.735 199.18 355.73 198.175C355.364 197.809 355.364 197.627 355.73 197.261C356.826 196.165 357.831 195.16 358.836 194.063C359.11 193.789 359.11 193.515 358.928 193.241C358.105 191.962 357.374 190.683 356.552 189.404C356.369 189.038 356.278 188.855 356.643 188.581C357.283 188.125 357.923 187.759 358.562 187.394C359.293 186.937 360.024 186.389 360.664 185.84C360.846 185.749 360.846 185.566 360.755 185.384C360.207 183.922 359.75 182.46 359.202 181.089C359.019 180.45 359.019 180.45 359.658 180.176C360.938 179.627 362.217 179.079 363.587 178.622C364.135 178.44 364.227 178.166 364.135 177.617C363.953 176.247 363.77 174.785 363.587 173.414C363.496 172.866 363.679 172.684 364.135 172.592C365.597 172.409 366.968 172.044 368.43 171.861C368.887 171.77 369.069 171.678 369.069 171.13C369.161 169.668 369.343 168.115 369.435 166.653C369.435 166.288 369.617 166.196 369.983 166.196C370.805 166.196 371.536 166.196 372.358 166.196C372.45 166.471 372.45 166.471 372.45 166.562Z" fill="#EA3815"/>
<path d="M442.894 199.454C443.534 198.815 443.534 198.175 442.894 197.536C442.346 196.987 441.798 196.439 441.249 195.891C440.701 195.343 440.153 194.703 439.605 194.155C439.97 193.515 440.427 192.876 440.793 192.328C441.249 191.597 441.706 190.866 442.163 190.226C442.437 189.769 442.803 188.947 441.798 188.307C441.067 187.851 440.336 187.302 439.513 186.754C438.965 186.389 438.417 186.023 437.869 185.658C438.143 185.018 438.417 184.287 438.6 183.648C438.874 182.825 439.239 182.003 439.513 181.181C439.787 180.359 439.513 179.81 438.782 179.445C438.052 179.171 437.412 178.897 436.681 178.623C435.859 178.257 435.128 177.983 434.305 177.618C434.488 176.704 434.58 175.79 434.762 174.877C434.854 174.328 434.945 173.689 435.036 173.141C435.219 171.77 434.214 171.405 433.757 171.405C432.935 171.313 432.204 171.13 431.382 170.948C430.651 170.856 430.011 170.674 429.28 170.582C429.28 169.943 429.189 169.303 429.189 168.664C429.098 167.75 429.006 166.745 429.006 165.831C428.915 164.918 428.458 164.461 427.544 164.461C426.813 164.461 426.082 164.552 425.352 164.552C424.529 164.552 423.707 164.643 422.885 164.643C422.702 163.821 422.428 162.999 422.245 162.177C422.062 161.446 421.88 160.715 421.697 160.075C421.423 159.253 420.875 158.887 419.961 159.07C419.047 159.344 418.133 159.527 417.22 159.801C416.672 159.984 416.032 160.075 415.392 160.258C414.936 159.436 414.57 158.613 414.113 157.791C413.839 157.151 413.474 156.603 413.2 155.964C412.652 154.867 411.738 155.233 411.464 155.324C410.824 155.598 410.276 155.872 409.636 156.146C408.814 156.512 407.9 156.969 407.078 157.425C406.621 156.786 406.073 156.238 405.616 155.598C405.068 154.959 404.611 154.319 404.063 153.771C403.515 153.131 402.784 153.04 402.144 153.588C401.505 154.045 400.865 154.593 400.317 155.05C399.677 155.507 399.038 156.055 398.398 156.512C397.759 155.964 397.119 155.507 396.48 154.959C395.84 154.502 395.292 153.954 394.652 153.497C394.013 152.948 393.373 153.04 392.825 153.679C392.277 154.319 391.728 154.959 391.18 155.598C390.723 156.146 390.175 156.786 389.718 157.334C389.079 157.06 388.439 156.695 387.891 156.42C387.16 156.055 386.338 155.69 385.516 155.233C385.059 154.959 384.145 154.776 383.597 155.872C383.231 156.603 382.775 157.334 382.409 158.065C382.044 158.705 381.77 159.344 381.404 159.984C380.49 159.71 379.668 159.527 378.754 159.344C378.298 159.253 377.749 159.07 377.293 158.979C376.653 158.796 376.196 158.705 375.648 158.979C375.191 159.253 375.008 159.801 374.917 160.441C374.734 160.989 374.552 161.628 374.369 162.177C374.186 162.907 373.912 163.638 373.729 164.369C373.181 164.369 372.633 164.369 371.993 164.278C371.08 164.278 370.075 164.187 369.161 164.187C368.704 164.187 368.339 164.187 367.973 164.461C367.608 164.735 367.516 165.283 367.516 165.648C367.516 166.197 367.425 166.654 367.425 167.202C367.333 168.207 367.242 169.212 367.242 170.308C366.42 170.4 365.689 170.582 364.867 170.674C364.136 170.765 363.313 170.948 362.491 171.039C362.034 171.13 361.212 171.405 361.395 172.592C361.486 173.506 361.669 174.328 361.76 175.242C361.852 175.882 361.943 176.613 362.034 177.343C361.303 177.618 360.664 177.892 359.933 178.166C359.202 178.44 358.38 178.805 357.649 179.079C356.826 179.445 356.552 180.084 356.826 180.907C357.1 181.729 357.466 182.643 357.74 183.465C357.923 184.105 358.197 184.744 358.38 185.384C357.74 185.749 357.192 186.206 356.552 186.572C355.913 187.028 355.182 187.485 354.542 187.942C354.268 188.125 353.903 188.399 353.811 188.764C353.628 189.313 353.994 189.769 354.085 189.952C354.542 190.683 354.999 191.414 355.456 192.145C355.821 192.693 356.187 193.333 356.552 193.881C355.821 194.612 354.999 195.434 354.268 196.165C353.994 196.531 353.628 196.805 353.354 197.17C353.08 197.444 352.806 197.81 352.806 198.266C352.806 198.723 353.08 198.997 353.354 199.363C353.72 199.728 354.085 200.185 354.542 200.551C355.182 201.282 355.821 201.921 356.552 202.652C355.913 203.566 355.364 204.479 354.816 205.393C354.542 205.85 354.268 206.307 353.994 206.672C353.354 207.677 353.994 208.225 354.359 208.5C355.09 208.956 355.821 209.505 356.552 209.961C357.1 210.327 357.74 210.784 358.38 211.149C358.105 211.88 357.831 212.611 357.557 213.342C357.283 214.073 357.009 214.804 356.735 215.535C356.278 216.723 357.009 217.179 357.557 217.362C358.38 217.636 359.111 218.002 359.933 218.276C360.572 218.55 361.303 218.824 361.943 219.098C361.76 220.286 361.577 221.382 361.395 222.57C361.303 223.027 361.303 223.484 361.212 223.941C361.029 225.037 361.852 225.311 362.217 225.402C363.039 225.585 363.953 225.677 364.775 225.859C365.415 225.951 366.146 226.133 366.877 226.225C366.968 226.225 366.968 226.225 367.059 226.225C367.059 226.316 367.059 226.316 367.059 226.407C367.151 227.595 367.242 228.783 367.242 229.879C367.242 230.245 367.334 230.61 367.334 230.976C367.334 232.072 368.247 232.164 368.43 232.164C368.521 232.164 368.704 232.164 368.795 232.164C369.161 232.164 369.435 232.255 369.8 232.164C370.44 232.072 371.08 232.072 371.811 232.072C372.359 232.072 372.907 232.072 373.455 231.981C373.821 233.351 374.186 234.813 374.552 236.092L374.643 236.549C374.917 237.463 375.465 237.737 376.379 237.554C377.018 237.371 377.658 237.28 378.206 237.097C379.12 236.915 380.034 236.641 380.947 236.458C381.221 237.097 381.587 237.737 381.952 238.285C382.318 239.016 382.775 239.838 383.14 240.661C383.414 241.209 383.962 241.757 384.967 241.3C385.607 241.026 386.246 240.661 386.886 240.387C387.617 240.021 388.439 239.656 389.262 239.29C390.084 240.204 390.815 241.209 391.637 242.123L392.185 242.762C392.459 243.128 392.734 243.402 393.19 243.493C393.647 243.584 393.921 243.31 394.287 243.036C395.657 241.94 396.845 241.118 397.85 240.295C398.49 240.843 399.221 241.392 399.86 241.848C400.408 242.305 401.048 242.762 401.596 243.128C401.87 243.402 402.236 243.493 402.51 243.493C402.875 243.493 403.241 243.31 403.515 242.945C403.972 242.397 404.52 241.848 404.977 241.3C405.525 240.661 406.073 240.021 406.621 239.382H406.713C407.261 239.656 407.809 240.021 408.449 240.295C409.18 240.569 410.002 240.935 410.916 241.483C411.19 241.666 411.555 241.757 412.012 241.666C412.469 241.483 412.743 241.118 412.834 240.843C413.474 239.656 414.113 238.468 414.753 237.372L415.118 236.732C415.484 236.823 415.758 236.915 416.123 237.006C416.58 237.097 417.037 237.28 417.494 237.372C417.859 237.463 418.316 237.554 418.682 237.646C419.047 237.737 419.504 237.828 419.869 237.92C420.144 238.011 421.057 238.102 421.331 237.006C421.605 236.184 421.788 235.361 422.062 234.539C422.245 233.808 422.519 233.077 422.702 232.346C423.159 232.346 423.707 232.346 424.164 232.346V232.438H424.986C425.169 232.438 425.443 232.438 425.626 232.438C426.082 232.438 426.631 232.438 427.179 232.438C427.636 232.438 428.093 232.438 428.458 232.072C428.823 231.707 428.823 231.341 428.823 230.793V230.702V230.61L428.915 229.788C429.006 228.692 429.098 227.595 429.189 226.407C429.646 226.316 430.194 226.225 430.651 226.133C431.747 225.951 432.844 225.768 433.94 225.585C434.762 225.494 435.128 224.946 435.036 224.123C434.945 223.484 434.854 222.753 434.762 222.113C434.671 221.2 434.488 220.286 434.397 219.372C435.219 219.098 436.041 218.733 436.864 218.367C437.503 218.093 438.143 217.819 438.782 217.545C439.605 217.271 439.879 216.54 439.605 215.809C439.331 215.078 439.057 214.256 438.782 213.525C438.508 212.794 438.234 212.063 437.96 211.332C438.508 210.966 439.148 210.51 439.696 210.144C440.427 209.687 441.158 209.139 441.889 208.682C442.894 208.043 442.62 207.22 442.346 206.764C441.889 206.033 441.432 205.302 440.975 204.571C440.61 204.023 440.244 203.383 439.879 202.743C440.427 202.195 440.884 201.738 441.341 201.19C441.615 200.642 442.254 200.094 442.894 199.454ZM441.249 198.266C441.341 198.358 441.341 198.358 441.432 198.449C441.341 198.541 441.341 198.541 441.249 198.632C441.249 198.541 441.249 198.449 441.249 198.266ZM440.518 189.404C440.427 189.495 440.427 189.587 440.336 189.587C440.336 189.495 440.336 189.313 440.244 189.221C440.427 189.313 440.427 189.404 440.518 189.404ZM355.547 189.13C355.456 189.038 355.456 188.947 355.364 188.856C355.456 188.764 355.547 188.764 355.639 188.673C355.639 188.856 355.639 189.038 355.547 189.13ZM354.633 198.175C354.542 198.084 354.542 198.084 354.451 197.992C354.542 197.901 354.542 197.901 354.633 197.81C354.633 197.901 354.633 198.084 354.633 198.175ZM355.364 207.038C355.364 206.946 355.456 206.855 355.456 206.855C355.456 206.946 355.456 207.129 355.547 207.22C355.456 207.129 355.456 207.129 355.364 207.038ZM437.777 180.724C437.777 180.815 437.686 180.907 437.686 180.998C437.686 180.907 437.595 180.815 437.503 180.633C437.595 180.724 437.686 180.724 437.777 180.724ZM436.133 186.023C436.133 186.023 436.133 186.115 436.133 186.023C436.133 186.115 436.133 186.115 436.133 186.023ZM433.3 172.866C433.3 172.958 433.3 173.049 433.3 173.049C433.209 172.958 433.209 172.866 433.118 172.775C433.118 172.775 433.209 172.866 433.3 172.866ZM432.752 178.348C432.752 178.348 432.752 178.44 432.752 178.348C432.752 178.44 432.752 178.44 432.752 178.348ZM428.001 171.679C427.91 171.679 427.818 171.679 427.818 171.679C427.818 171.587 427.818 171.587 427.818 171.496C427.91 171.496 427.91 171.587 428.001 171.679ZM427.27 166.014C427.27 166.105 427.27 166.197 427.27 166.288C427.179 166.197 427.087 166.105 426.996 166.014C427.087 166.014 427.179 166.014 427.27 166.014ZM421.788 166.014C421.788 166.014 421.697 166.014 421.788 166.014C421.697 166.014 421.697 166.014 421.697 166.014C421.697 166.014 421.697 166.014 421.697 165.923C421.697 165.923 421.697 165.923 421.788 166.014ZM419.961 160.623C419.961 160.715 419.961 160.806 420.052 160.897C419.961 160.806 419.87 160.715 419.778 160.715C419.778 160.715 419.869 160.715 419.961 160.623ZM414.57 161.72C414.479 161.72 414.479 161.72 414.57 161.72C414.479 161.72 414.479 161.72 414.57 161.72C414.479 161.72 414.479 161.72 414.479 161.72C414.479 161.72 414.479 161.72 414.479 161.628C414.479 161.72 414.479 161.72 414.57 161.72ZM411.646 156.877C411.646 156.969 411.738 157.06 411.738 157.151C411.646 157.151 411.646 157.06 411.555 157.06C411.464 157.06 411.464 157.06 411.372 156.969C411.464 156.969 411.555 156.969 411.646 156.877ZM406.621 159.07C406.53 159.07 406.53 159.07 406.621 159.07C406.53 159.07 406.53 159.07 406.53 159.07C406.53 159.07 406.53 159.07 406.621 159.07ZM402.784 154.959C402.875 155.05 402.875 155.05 402.967 155.141C402.875 155.141 402.784 155.141 402.693 155.141C402.601 155.05 402.693 154.959 402.784 154.959ZM398.216 158.156C398.124 158.156 398.124 158.156 398.124 158.156C398.124 158.156 398.216 158.156 398.216 158.156ZM393.647 154.867C393.739 154.959 393.739 154.959 393.83 155.05C393.739 155.05 393.647 155.05 393.464 155.05C393.556 155.05 393.647 154.959 393.647 154.867ZM389.901 158.979C389.81 158.979 389.81 158.979 389.81 158.979H389.901ZM384.785 156.786C384.876 156.786 384.876 156.877 384.967 156.877C384.876 156.877 384.785 156.969 384.693 156.969C384.693 156.877 384.693 156.786 384.785 156.786ZM381.952 161.446C381.952 161.446 381.952 161.537 381.952 161.446C381.861 161.537 381.861 161.537 381.952 161.446C381.861 161.537 381.861 161.537 381.861 161.537C381.861 161.537 381.861 161.537 381.952 161.446ZM376.287 160.623C376.287 160.532 376.379 160.441 376.379 160.349C376.47 160.349 376.562 160.349 376.653 160.441H376.744C376.562 160.532 376.379 160.623 376.287 160.623C376.287 160.715 376.287 160.715 376.287 160.623ZM374.643 165.648C374.643 165.648 374.552 165.648 374.643 165.648C374.552 165.648 374.643 165.648 374.643 165.648ZM368.978 165.74C369.069 165.74 369.161 165.74 369.252 165.74C369.161 165.831 369.069 165.923 368.978 166.014C368.978 165.923 368.978 165.831 368.978 165.74ZM368.339 171.131V171.222H368.247C368.247 171.222 368.339 171.222 368.339 171.131ZM363.405 177.892C363.405 177.892 363.405 177.983 363.405 177.892C363.405 177.983 363.405 177.983 363.405 177.983C363.405 177.983 363.405 177.983 363.313 177.983C363.313 177.983 363.313 177.983 363.222 177.983C363.313 177.983 363.405 177.983 363.405 177.892ZM363.222 172.41C363.131 172.501 363.039 172.592 362.948 172.775C362.948 172.684 362.948 172.592 362.948 172.501C363.039 172.41 363.131 172.41 363.222 172.41ZM359.933 185.566C359.933 185.566 359.933 185.658 359.933 185.566C359.933 185.658 359.933 185.658 359.933 185.566C359.933 185.658 359.933 185.658 359.933 185.566ZM358.562 180.176C358.562 180.176 358.471 180.267 358.471 180.359C358.471 180.45 358.471 180.45 358.38 180.541C358.38 180.45 358.288 180.359 358.288 180.359C358.38 180.267 358.471 180.267 358.562 180.176ZM358.105 215.718C358.105 215.626 358.197 215.535 358.197 215.443C358.197 215.535 358.288 215.718 358.38 215.809C358.288 215.809 358.197 215.718 358.105 215.718ZM359.75 210.51V210.418C359.75 210.418 359.841 210.418 359.75 210.51ZM362.582 223.666C362.582 223.575 362.582 223.484 362.582 223.392C362.582 223.484 362.674 223.575 362.765 223.575C362.765 223.666 362.674 223.666 362.582 223.666ZM363.222 218.184C363.222 218.093 363.131 218.093 363.131 218.002H363.222C363.222 218.093 363.222 218.184 363.222 218.184ZM368.064 224.946C368.064 224.854 367.973 224.854 368.064 224.946C368.064 224.854 368.064 224.854 368.064 224.946C368.064 224.946 368.064 224.854 368.064 224.946ZM368.704 230.428C368.704 230.336 368.704 230.336 368.704 230.245C368.795 230.336 368.887 230.336 368.978 230.428C368.887 230.428 368.795 230.428 368.704 230.428ZM374.186 230.519C374.277 230.519 374.277 230.61 374.277 230.61C374.186 230.519 374.186 230.519 374.186 230.519ZM375.922 235.818L375.831 235.636V235.544C375.922 235.636 376.013 235.636 376.013 235.727C376.013 235.727 376.105 235.727 376.105 235.818C376.105 235.727 376.013 235.818 375.922 235.818ZM381.404 234.722C381.404 234.722 381.495 234.722 381.404 234.722C381.495 234.722 381.495 234.722 381.404 234.722C381.404 234.722 381.495 234.813 381.404 234.722ZM384.236 239.564C384.236 239.473 384.145 239.473 384.145 239.382C384.236 239.473 384.328 239.473 384.419 239.473C384.419 239.473 384.328 239.564 384.236 239.564ZM389.353 237.372C389.444 237.372 389.444 237.372 389.353 237.372C389.444 237.372 389.444 237.372 389.353 237.372C389.353 237.372 389.444 237.372 389.353 237.372ZM393.19 241.483L393.008 241.3C393.099 241.3 393.19 241.3 393.373 241.3C393.282 241.392 393.19 241.392 393.19 241.483ZM397.667 238.377C397.667 238.285 397.667 238.285 397.667 238.377C397.759 238.285 397.759 238.285 397.667 238.377C397.759 238.377 397.759 238.377 397.667 238.377ZM402.236 241.574C402.144 241.574 402.144 241.483 402.053 241.483C402.144 241.483 402.236 241.483 402.327 241.483C402.327 241.392 402.327 241.483 402.236 241.574ZM411.19 239.656C411.098 239.656 411.007 239.564 411.007 239.564C411.098 239.564 411.19 239.473 411.372 239.473C411.19 239.564 411.19 239.656 411.19 239.656ZM419.413 236.092C419.321 236.092 419.23 236.092 419.139 236.001C419.23 236.001 419.321 235.91 419.504 235.818C419.504 235.91 419.504 236.001 419.413 236.092ZM421.331 230.793C421.331 230.702 421.423 230.702 421.423 230.702C421.331 230.793 421.331 230.793 421.331 230.793ZM426.905 230.519C426.905 230.61 426.905 230.61 426.905 230.702V230.793C426.813 230.793 426.722 230.793 426.631 230.793C426.722 230.61 426.813 230.61 426.905 230.519ZM432.478 218.55C432.478 218.55 432.478 218.459 432.478 218.55C432.478 218.459 432.478 218.459 432.57 218.459C432.57 218.459 432.569 218.459 432.478 218.55ZM432.752 224.032C432.844 223.941 432.844 223.849 432.935 223.849C432.935 223.941 432.935 223.941 432.935 224.032C432.935 224.032 432.844 224.032 432.752 224.032ZM435.95 210.875C435.95 210.784 435.95 210.784 435.95 210.875C435.95 210.784 435.95 210.875 435.95 210.875ZM437.412 216.266C437.412 216.174 437.503 216.083 437.503 216.083C437.503 216.174 437.503 216.174 437.595 216.266C437.503 216.174 437.503 216.174 437.412 216.266ZM437.777 200.185C437.321 200.642 436.864 201.19 436.407 201.647C435.859 202.195 435.859 202.743 436.316 203.474C436.59 203.931 436.864 204.388 437.138 204.845C437.595 205.576 438.052 206.398 438.508 207.129C437.96 207.495 437.412 207.86 436.955 208.225C436.316 208.682 435.676 209.048 435.036 209.505C434.762 209.687 433.94 210.236 434.397 211.515C434.671 212.246 434.945 212.885 435.128 213.616C435.311 214.256 435.585 214.804 435.767 215.443C435.311 215.626 434.762 215.809 434.305 215.992C433.483 216.357 432.661 216.631 431.839 216.997C431.016 217.271 430.651 217.91 430.834 218.733C430.925 219.555 431.016 220.377 431.199 221.2C431.29 221.748 431.382 222.296 431.382 222.844C430.925 222.936 430.377 223.027 429.92 223.118C429.006 223.301 428.092 223.484 427.27 223.575C426.448 223.666 425.9 224.215 425.9 225.128C425.808 225.859 425.808 226.682 425.717 227.413C425.626 228.052 425.626 228.692 425.534 229.24C425.26 229.24 424.986 229.24 424.712 229.24C423.616 229.24 422.428 229.148 421.331 229.057C420.235 228.966 419.869 229.605 419.687 230.245C419.504 231.067 419.23 231.889 418.956 232.712C418.773 233.26 418.682 233.717 418.499 234.265C417.859 234.082 417.128 233.9 416.489 233.717C415.941 233.625 415.393 233.443 414.753 233.26H414.662C414.113 233.077 413.748 232.986 413.291 233.169C412.834 233.351 412.651 233.717 412.377 234.174C411.738 235.361 411.098 236.458 410.459 237.646C409.728 237.28 408.997 236.915 408.266 236.549C407.718 236.275 407.169 236.001 406.621 235.727C405.89 235.361 405.251 235.453 404.703 236.092C404.246 236.641 403.789 237.189 403.332 237.646C402.875 238.194 402.327 238.742 401.87 239.382C401.322 238.925 400.682 238.468 400.134 238.011C399.586 237.554 399.038 237.097 398.398 236.641C398.124 236.366 397.759 236.275 397.485 236.275C397.21 236.275 396.845 236.366 396.571 236.641C396.114 237.006 395.566 237.372 395.109 237.737C394.47 238.194 393.739 238.742 393.099 239.29C392.825 239.016 392.642 238.742 392.368 238.468C391.729 237.737 391.089 236.915 390.449 236.092C390.267 235.818 389.627 235.087 388.348 235.636C387.617 236.001 386.886 236.366 386.155 236.732C385.607 237.006 385.15 237.189 384.602 237.463C384.328 236.915 384.054 236.366 383.688 235.818C383.323 235.087 382.957 234.356 382.592 233.625C382.409 233.26 381.861 232.62 380.856 232.895C380.034 233.077 379.211 233.26 378.389 233.534C377.841 233.625 377.292 233.808 376.744 233.9C376.744 233.9 376.744 233.9 376.653 233.9C376.196 232.438 375.831 231.159 375.465 229.788C375.282 228.966 374.734 228.6 373.912 228.6C372.633 228.692 371.262 228.692 369.983 228.692H369.618C369.618 227.961 369.526 227.138 369.526 226.407C369.435 225.768 369.435 225.128 369.435 224.58C369.435 223.484 368.704 223.118 368.064 223.027C367.242 222.936 366.42 222.753 365.689 222.57C365.141 222.479 364.592 222.387 363.953 222.296C363.953 222.296 363.953 222.296 363.862 222.296C364.044 221.017 364.227 219.738 364.41 218.367C364.501 217.819 364.593 217.454 364.318 216.997C364.044 216.54 363.679 216.448 363.222 216.174C362.765 215.992 362.217 215.809 361.76 215.535C361.029 215.261 360.298 214.895 359.567 214.621C360.024 213.525 360.39 212.337 360.846 211.332L361.121 210.692C361.486 209.687 360.938 209.139 360.481 208.865C359.659 208.317 358.928 207.769 358.105 207.22C357.74 206.946 357.374 206.672 356.918 206.398C357.192 205.941 357.557 205.484 357.831 205.028C358.288 204.297 358.745 203.657 359.11 202.926C359.659 202.195 359.567 201.464 358.928 200.825C358.38 200.277 357.74 199.637 357.192 198.997C356.826 198.632 356.461 198.175 356.095 197.81C356.644 197.261 357.192 196.713 357.649 196.165C358.105 195.708 358.562 195.16 359.11 194.703C359.659 194.155 359.75 193.515 359.385 192.876C359.11 192.419 358.836 191.962 358.471 191.414C358.014 190.683 357.557 189.952 357.1 189.13C357.192 189.038 357.283 189.038 357.283 188.947C357.74 188.673 358.197 188.307 358.654 188.033C359.202 187.668 359.75 187.302 360.207 186.937C360.39 186.754 360.572 186.663 360.846 186.48C361.029 186.297 361.577 185.841 361.212 185.018C360.938 184.287 360.755 183.556 360.481 182.917C360.207 182.186 360.024 181.546 359.75 180.815C360.024 180.724 360.298 180.633 360.572 180.45C361.577 180.084 362.582 179.628 363.496 179.262C364.41 178.897 364.775 178.257 364.593 177.343C364.501 176.704 364.41 176.064 364.318 175.425C364.227 174.694 364.136 173.963 364.044 173.232C364.684 173.141 365.232 173.049 365.78 172.958C366.511 172.866 367.334 172.684 368.064 172.592C368.978 172.501 369.435 171.953 369.435 171.131C369.526 170.217 369.618 169.303 369.618 168.481C369.618 168.024 369.709 167.476 369.709 166.928C370.074 166.928 370.531 166.928 370.897 166.928V167.11H371.719C371.902 167.11 372.176 167.11 372.359 167.11C372.907 167.11 373.364 167.11 373.912 167.11C374.46 167.11 375.191 166.928 375.465 166.014C375.648 165.374 375.831 164.643 376.013 164.004C376.196 163.273 376.47 162.633 376.653 161.902C377.293 162.085 378.023 162.268 378.663 162.359C379.303 162.542 379.942 162.725 380.673 162.816C381.587 163.09 382.318 162.725 382.683 161.902C383.049 161.08 383.505 160.349 383.962 159.527C384.145 159.161 384.419 158.705 384.693 158.248C385.15 158.43 385.607 158.705 385.972 158.887C386.703 159.253 387.526 159.618 388.257 159.984C389.17 160.441 389.901 160.258 390.449 159.527C390.998 158.887 391.546 158.248 392.094 157.608C392.459 157.243 392.825 156.786 393.099 156.42C393.739 156.877 394.287 157.334 394.926 157.791C395.475 158.248 396.023 158.705 396.662 159.161C397.393 159.71 397.941 159.436 398.307 159.161C398.946 158.705 399.586 158.156 400.226 157.7C400.774 157.334 401.322 156.877 401.87 156.42C402.418 157.06 402.875 157.7 403.423 158.248C403.789 158.705 404.246 159.161 404.611 159.618C405.159 160.258 405.799 160.441 406.53 160.075C407.17 159.71 407.809 159.436 408.449 159.161C409.088 158.887 409.728 158.613 410.276 158.248C410.55 158.887 410.916 159.436 411.19 159.984C411.555 160.623 411.829 161.263 412.195 161.902C412.56 162.725 413.291 162.999 414.205 162.816C414.844 162.633 415.484 162.542 416.123 162.359C416.763 162.177 417.494 161.994 418.225 161.811C418.316 162.085 418.408 162.268 418.408 162.542C418.682 163.638 419.047 164.735 419.321 165.74C419.595 166.654 420.144 167.11 421.057 167.019C421.88 167.019 422.611 166.928 423.433 166.928C423.981 166.928 424.529 166.928 425.169 166.836C425.169 167.567 425.26 168.298 425.352 169.029C425.443 169.76 425.443 170.4 425.443 171.131C425.443 171.77 425.808 172.501 427.088 172.684C428.001 172.775 428.823 172.958 429.737 173.141C430.194 173.232 430.559 173.323 431.016 173.415C430.925 173.963 430.834 174.602 430.742 175.151C430.651 175.973 430.468 176.795 430.377 177.618C430.194 178.623 430.834 179.079 431.29 179.262C432.021 179.536 432.661 179.81 433.3 180.084C433.94 180.359 434.58 180.633 435.219 180.907C434.945 181.546 434.762 182.186 434.488 182.825C434.214 183.465 434.031 184.196 433.757 184.927C433.483 185.658 433.666 186.297 434.305 186.754C434.854 187.12 435.493 187.577 436.041 187.942C436.681 188.399 437.229 188.764 437.869 189.221C437.412 189.861 437.046 190.592 436.59 191.231C436.224 191.779 435.859 192.328 435.585 192.876C435.128 193.515 435.219 194.155 435.767 194.703C436.224 195.16 436.681 195.708 437.138 196.165C437.686 196.713 438.143 197.261 438.691 197.81C438.874 198.997 438.326 199.637 437.777 200.185ZM358.105 202.104C358.105 202.195 358.105 202.195 358.105 202.104C358.105 202.195 358.105 202.195 358.105 202.104C358.105 202.195 358.105 202.195 358.105 202.104C358.105 202.195 358.105 202.195 358.105 202.195C358.105 202.195 358.105 202.195 358.105 202.104ZM358.105 193.881C358.105 193.789 358.105 193.789 358.105 193.698C358.105 193.789 358.197 193.789 358.105 193.881C358.105 193.881 358.105 193.789 358.105 193.881ZM437.869 194.338C437.777 194.338 437.777 194.246 437.869 194.338C437.777 194.246 437.777 194.246 437.869 194.338C437.869 194.246 437.777 194.246 437.869 194.338ZM440.336 207.312C440.336 207.403 440.427 207.403 440.427 207.495C440.336 207.495 440.336 207.586 440.244 207.586C440.336 207.495 440.336 207.403 440.336 207.312Z" fill="white"/>
<path d="M398.033 230.336C415.694 230.336 430.011 216.019 430.011 198.358C430.011 180.697 415.694 166.379 398.033 166.379C380.371 166.379 366.054 180.697 366.054 198.358C366.054 216.019 380.371 230.336 398.033 230.336Z" fill="white"/>
<path d="M287.753 254.183L298.443 314.668L301.002 365.285L307.763 366.108L311.874 257.107L287.753 254.183Z" fill="#E8AD85"/>
<path d="M285.56 260.853C288.575 293.014 288.027 309.643 287.936 312.658C287.844 315.582 285.103 334.769 278.251 371.133L285.378 368.209C297.529 334.495 301.367 317.135 302.737 312.749C304.108 308.364 307.397 290.547 312.605 259.3L285.56 260.853Z" fill="#F9C4A0"/>
<path d="M278.251 367.752C277.703 369.214 277.429 370.219 277.429 370.95C277.429 371.773 277.52 373.052 277.794 374.696C278.799 374.696 287.753 374.788 304.747 374.879C305.478 372.595 305.022 371.316 303.56 371.133C302.098 370.95 300.819 370.767 299.814 370.585L287.296 364.92C287.022 364.829 286.748 364.92 286.657 365.194L285.834 367.113C284.464 367.752 283.276 368.118 282.454 368.026C281.723 368.026 280.809 367.752 279.53 367.113C279.073 367.021 278.525 367.204 278.251 367.752Z" fill="white"/>
<path d="M299.448 364.554C298.809 365.925 298.535 367.021 298.535 367.752C298.535 368.575 298.626 369.854 298.809 371.498C299.814 371.59 308.768 371.955 325.671 372.777C326.493 370.493 326.127 369.214 324.666 368.94C323.204 368.666 321.925 368.483 320.92 368.3L308.676 362.179C308.402 362.088 308.128 362.179 308.037 362.362L307.123 364.28C305.661 364.829 304.565 365.103 303.651 365.103C302.92 365.103 302.007 364.737 300.727 364.098C300.271 363.823 299.722 364.006 299.448 364.554C299.448 364.554 299.448 364.463 299.448 364.554Z" fill="white"/>
<path d="M317.082 155.507C318.909 161.537 321.011 190.409 318.726 192.602L301.184 190.135L297.438 190.043C292.139 189.586 295.337 172.684 295.245 167.384L295.062 157.334C294.971 151.669 299.631 147.01 305.478 146.918H306.483C311.783 146.827 316.168 150.573 317.082 155.507Z" fill="#031F70"/>
<path d="M300.544 165.374C298.26 162.816 296.798 159.71 296.981 156.146C297.529 145.913 311.782 147.923 314.615 153.04C317.447 158.156 317.356 171.222 313.792 172.227C312.331 172.592 309.315 171.77 306.209 169.943L307.579 176.795L313.061 183.739L305.661 186.389L298.169 185.841L290.128 181.638L297.255 177.252L300.544 165.374Z" fill="#F9C4A0"/>
<path d="M343.761 184.561L361.669 178.531C364.958 175.79 368.064 173.78 370.988 172.409C371.81 172.226 373.272 172.226 371.536 174.328C369.8 176.429 368.064 178.714 368.613 179.536C369.161 180.358 370.988 179.627 371.628 180.998C371.993 181.911 368.978 182.642 362.4 183.282L348.603 192.053L343.761 184.561Z" fill="#F9C4A0"/>
<path d="M272.677 208.225L281.083 209.596C271.672 229.148 266.556 239.473 265.916 240.569C264.363 243.127 266.008 247.604 266.647 249.98C263.175 250.893 264.363 245.594 260.069 246.873C256.049 247.97 252.759 250.711 248.922 247.33C248.465 246.965 248.1 245.594 249.653 244.863C253.49 243.036 259.155 239.655 260.069 238.376C261.257 236.732 265.459 226.681 272.677 208.225Z" fill="#F9C4A0"/>
<path d="M346.41 181.82C347.416 180.175 348.877 178.53 350.887 177.16C351.801 176.429 353.172 176.703 353.903 177.617C354.268 178.165 354.451 178.896 354.268 179.444C354.816 179.261 355.273 179.079 355.821 178.896L360.024 186.571C344.126 195.159 330.421 204.205 315.62 202.195C310.595 201.555 306.94 194.702 302.28 191.779L303.468 186.388C319.457 188.946 328.32 186.571 346.41 181.82Z" fill="#F2F2F2"/>
<path d="M288.575 228.691C288.027 228.234 287.753 227.503 287.936 226.773L288.118 225.402C288.301 224.488 289.032 223.757 289.946 223.575C290.129 222.844 290.22 222.113 290.311 221.473C291.225 215.534 289.398 209.687 289.398 203.931C281.814 210.601 275.144 222.021 269.297 238.193L260.252 235.726C260.617 234.447 260.891 233.168 261.257 231.889C260.252 231.341 258.972 228.6 259.795 228.143C260.708 227.686 261.622 227.321 262.627 227.138C270.485 202.103 275.418 194.885 289.854 181.272C290.129 180.998 293.052 181.911 293.509 182.003C295.611 182.46 297.621 182.825 299.722 183.099C302.098 183.373 304.565 183.556 306.94 183.556C308.493 183.556 312.331 182.734 313.427 183.556C316.259 185.566 317.904 191.048 318.818 194.246C320.097 199.088 320.462 204.57 318.726 209.321C316.442 215.808 312.605 221.382 313.61 228.691C319.549 272.091 316.442 250.071 319.731 276.385C305.57 279.765 289.672 280.953 275.693 272.639C274.139 257.289 278.434 246.873 288.575 228.691Z" fill="white"/>
<path d="M290.22 224.123C291.864 223.575 293.6 223.301 295.245 223.21C296.89 223.118 298.625 223.118 300.27 223.21C301.915 223.301 303.559 223.575 305.204 223.849C306.849 224.123 308.493 224.489 310.138 225.037C308.493 225.677 306.757 225.859 305.113 226.042C303.468 226.133 301.732 226.133 300.087 226.042C298.443 225.951 296.798 225.677 295.154 225.402C293.509 225.037 291.956 224.672 290.22 224.123Z" fill="#E6E6E6"/>
<path d="M290.585 181.912C292.412 184.744 295.062 186.571 297.894 188.216C300.635 189.861 303.65 191.322 306.483 193.332C309.224 195.251 311.873 197.353 314.158 200.002C315.254 201.281 316.259 202.743 316.99 204.388C317.63 205.941 318.086 207.768 317.63 209.413C317.447 207.768 316.716 206.307 315.802 205.027C314.889 203.748 313.792 202.561 312.604 201.464C310.229 199.271 307.579 197.444 304.93 195.525C302.28 193.698 299.356 192.053 296.707 189.952C295.336 188.947 294.057 187.759 292.96 186.389C291.864 185.109 290.95 183.556 290.585 181.912Z" fill="#E6E6E6"/>
<path d="M286.839 190.592C289.672 190.866 292.504 191.505 295.245 192.419C297.986 193.333 300.636 194.429 303.103 195.891C305.57 197.353 307.945 199.089 310.047 201.19C312.057 203.292 313.793 205.759 314.615 208.591C312.788 206.398 310.777 204.48 308.676 202.835C306.483 201.19 304.199 199.728 301.823 198.358C299.448 196.987 296.981 195.708 294.514 194.429C291.956 193.059 289.398 191.871 286.839 190.592Z" fill="#E6E6E6"/>
<path d="M289.854 199.363C292.687 198.723 295.519 198.267 298.534 198.723C299.996 198.906 301.549 199.546 302.829 200.094C304.108 200.734 305.387 201.464 306.575 202.287C307.762 203.109 308.95 204.023 309.955 205.028C310.96 206.033 312.057 207.129 312.879 208.408C314.524 210.967 315.437 213.616 316.351 216.357C314.432 214.164 312.97 211.698 311.234 209.687C310.321 208.682 309.407 207.86 308.311 206.946C307.306 206.124 306.209 205.302 305.021 204.48C303.925 203.749 302.737 203.018 301.549 202.287C300.362 201.556 299.265 201.099 297.986 200.642C295.519 200.003 292.687 199.82 289.854 199.363Z" fill="#E6E6E6"/>
<path d="M306.757 229.514C306.209 233.077 305.295 236.641 304.108 240.021C303.559 241.757 302.829 243.402 302.006 245.138C301.184 246.783 300.27 248.427 299.265 249.98C297.255 253.087 294.697 255.828 291.956 258.203C289.215 260.579 286.2 262.68 283.002 264.416C285.56 261.767 288.119 259.3 290.494 256.741C292.87 254.183 295.062 251.442 296.981 248.518C298.9 245.595 300.544 242.488 302.098 239.29C303.651 236.001 305.113 232.712 306.757 229.514Z" fill="#E6E6E6"/>
<path d="M309.955 230.245C310.595 234.722 309.681 239.29 308.128 243.493C307.397 245.594 306.392 247.696 305.387 249.614C304.382 251.624 303.194 253.543 302.006 255.371C300.818 257.289 299.539 259.117 298.077 260.853C296.616 262.589 294.971 264.233 293.235 265.604C289.763 268.527 285.834 270.812 281.631 272.273C285.377 269.807 288.758 267.065 291.773 264.05C293.235 262.497 294.697 260.944 296.067 259.208C297.438 257.472 298.626 255.736 299.722 253.909C300.91 252.081 302.006 250.163 303.103 248.335C304.199 246.508 305.204 244.498 306.118 242.579C308.036 238.833 309.407 234.722 309.955 230.245Z" fill="#E6E6E6"/>
<path d="M312.24 232.712C312.971 235.91 313.062 239.29 312.422 242.58C311.874 245.869 310.686 249.067 309.224 252.082C308.494 253.544 307.671 255.005 306.849 256.376C306.027 257.746 305.204 259.208 304.291 260.579C302.555 263.32 300.727 266.061 298.717 268.619C299.722 265.513 301.001 262.498 302.372 259.574C303.742 256.65 305.296 253.726 306.666 250.894C308.037 248.062 309.316 245.138 310.229 242.123C311.235 239.108 311.783 236.001 312.24 232.712Z" fill="#E6E6E6"/>
<path d="M305.387 147.375C301.732 147.466 298.717 149.933 296.341 154.867V155.233C295.885 155.598 295.519 156.055 295.062 156.512C295.154 163.364 290.128 169.394 286.291 174.602C283.824 177.983 281.266 181.272 279.347 185.018C277.977 187.759 273.774 195.708 278.89 196.622C284.098 197.535 289.489 196.256 293.875 193.333C295.885 191.962 297.712 190.409 298.717 188.216C299.996 185.384 300.727 182.277 301.458 179.171C302.646 174.237 304.199 168.572 303.651 163.456H303.559C302.098 163.456 300.91 162.359 300.91 160.897C300.91 159.435 302.006 158.248 303.468 158.248C304.108 158.248 304.656 158.43 305.113 158.796C308.95 156.329 313.244 155.689 314.249 151.852C312.696 149.842 310.96 147.375 305.387 147.375Z" fill="#031F70"/>
<path d="M294.88 157.608C295.154 157.517 294.697 154.136 294.697 153.679C294.697 152.309 295.062 151.03 295.61 149.751C296.615 147.284 298.534 145.182 300.727 143.812C303.468 142.167 306.757 141.528 309.955 141.802C312.513 141.984 316.351 142.441 316.899 145.639C317.356 148.289 314.98 149.02 313.062 148.106C313.062 148.015 313.062 148.015 313.062 148.106C313.518 148.745 313.975 149.385 314.249 150.116C313.427 149.202 312.513 150.116 311.874 150.756C309.59 152.857 306.666 153.862 303.742 154.776C300.818 155.598 297.895 157.06 294.88 157.608Z" fill="#B2230B"/>
<path d="M301.144 152.042C302.304 152.024 303.23 151.069 303.212 149.908C303.194 148.748 302.238 147.822 301.078 147.84C299.917 147.858 298.991 148.814 299.01 149.974C299.028 151.135 299.983 152.061 301.144 152.042Z" fill="#191847" stroke="white" stroke-miterlimit="10"/>
<path d="M821.077 256.122L803.705 312.79L795.357 360.942H788.695L797.634 256.122H821.077Z" fill="#997659"/>
<path d="M827.233 256.122C826.052 287.239 827.401 303.261 827.739 306.128C827.992 308.996 831.618 327.295 840.135 361.954L833.136 359.508C819.643 327.717 815.005 311.188 813.487 307.056C811.969 302.924 807.837 285.89 801.175 256.206H827.233V256.122Z" fill="#B28B67"/>
<path d="M840.05 359.424C840.556 360.773 840.809 361.869 840.809 362.544C840.809 363.387 840.641 364.568 840.388 366.17C839.46 366.17 830.774 366.17 814.414 366.17C813.74 363.978 814.161 362.713 815.595 362.544C817.029 362.375 818.294 362.207 819.221 362.038L831.28 356.641C831.533 356.557 831.786 356.641 831.87 356.894L832.629 358.749C833.979 359.34 835.075 359.677 835.918 359.677C836.593 359.677 837.521 359.424 838.785 358.834C839.291 358.749 839.797 358.918 840.05 359.424Z" fill="#0B45B7"/>
<path d="M796.79 359.424C797.296 360.773 797.549 361.869 797.549 362.544C797.549 363.387 797.38 364.568 797.127 366.17C796.2 366.17 787.514 366.17 771.154 366.17C770.48 363.978 770.901 362.713 772.335 362.544C773.768 362.375 775.033 362.207 775.961 362.038L788.02 356.641C788.273 356.557 788.526 356.641 788.61 356.894L789.369 358.749C790.719 359.34 791.815 359.677 792.658 359.677C793.333 359.677 794.26 359.424 795.525 358.834C796.031 358.749 796.537 358.918 796.79 359.424Z" fill="#0B45B7"/>
<path d="M823.354 256.122L815.933 284.962H793.501L796.79 256.122H823.354Z" fill="#1159CC"/>
<path d="M827.486 256.122C829.932 263.374 830.353 272.987 828.835 284.962H805.898L799.573 256.122H827.486V256.122Z" fill="#1D67DD"/>
<path d="M814.921 196.67C817.029 194.14 818.462 191.105 818.209 187.732C817.535 177.865 803.789 180.058 801.175 185.033C798.476 190.008 798.814 202.658 802.271 203.501C803.62 203.838 806.572 202.995 809.523 201.224L807.668 214.464H818.715L814.921 196.67Z" fill="#B28B67"/>
<path d="M800.079 187.225C800.164 186.551 800.417 185.876 800.67 185.286C800.923 184.527 801.344 183.768 801.85 183.093C802.694 181.828 803.79 180.732 804.886 179.72C806.994 178.033 809.693 177.021 812.307 177.359C813.656 177.527 814.921 178.033 816.018 178.877C817.03 179.636 817.957 180.732 819.222 180.816C820.656 180.901 821.921 179.636 823.017 178.877C824.282 178.033 825.631 177.359 827.149 177.106C829.594 176.684 831.956 177.527 833.642 179.551C835.498 181.744 836.762 184.864 835.582 187.816C835.329 188.322 835.076 188.827 834.654 189.165C834.317 189.502 833.727 189.839 833.558 190.43C833.389 191.02 833.895 191.779 834.064 192.285C834.317 193.044 834.57 193.803 834.486 194.646C834.317 195.995 833.474 197.26 832.63 198.188C831.703 199.116 830.606 199.622 829.426 199.875C828.667 200.043 827.824 200.128 826.98 200.043C826.559 200.043 826.221 199.875 825.8 199.79C825.462 199.706 825.209 199.79 824.872 200.043C823.354 200.971 821.752 201.392 820.065 201.224C818.632 201.139 816.945 200.718 815.765 199.79C814.415 198.694 814.5 197.176 814.753 195.574C814.415 195.742 813.488 195.827 814.078 195.152C814.331 194.899 814.668 194.815 815.006 194.646C815.343 194.478 815.68 194.225 815.933 193.972C816.945 192.791 815.933 190.43 814.668 190.092C812.813 189.502 812.391 192.201 811.042 192.875C810.283 193.297 809.44 192.707 808.85 192.201C808.091 191.442 807.585 190.514 807.079 189.502C806.741 188.659 806.32 187.816 805.982 187.057C805.814 186.635 805.224 185.623 805.477 185.201C804.127 184.948 802.609 185.454 801.513 186.213C801.007 186.551 800.67 186.888 800.417 187.394C800.332 187.478 800.248 187.816 800.079 187.9C799.995 187.731 800.079 187.394 800.079 187.225Z" fill="#031F70"/>
<path d="M787.092 253.929L773.515 261.941C770.142 267.338 768.118 269.615 767.528 268.856C766.6 267.759 768.034 266.494 767.612 265.651C767.106 264.808 764.408 265.314 761.878 265.82C759.348 266.41 759.938 265.145 760.444 264.47C762.89 262.531 766.01 260.76 769.805 259.073L782.876 246.34L787.092 253.929ZM846.628 277.626C847.303 278.975 852.194 283.023 855.567 285.384C856.916 286.312 856.326 287.492 855.82 287.83C851.604 290.444 848.905 287.324 845.279 285.637C841.315 283.782 841.653 289.01 838.533 287.577C839.46 285.384 841.737 281.421 840.725 278.722C840.219 277.541 837.015 267.338 831.112 248.195H840.725C843.761 265.988 845.701 275.771 846.628 277.626Z" fill="#B28B67"/>
<path d="M813.318 207.802L809.355 207.127C802.524 224.246 790.549 239.846 773.431 253.845L786.333 269.53C803.452 249.544 813.993 228.968 813.318 207.802Z" fill="#031F70"/>
<path d="M830.69 257.808H795.272C803.452 237.822 807.584 220.872 807.584 206.874L818.294 205.271C826.643 218.848 829.088 235.545 830.69 257.808Z" fill="#C1E7F7"/>
<path d="M818.463 205.356H817.788C816.945 205.356 815.68 205.44 813.993 205.525L811.379 212.946C811.126 221.969 809.524 240.099 806.572 267.422H829.847C829.763 269.277 829.678 271.217 829.51 273.156H846.797C844.267 243.894 834.822 221.294 818.463 205.356Z" fill="#031F70"/>
<path d="M828.329 243.22C827.654 254.941 826.052 263.037 823.354 267.506H829.847C830.1 259.074 829.594 250.978 828.329 243.22Z" fill="black" fill-opacity="0.1"/>
<path d="M824.703 253.255L813.234 247.942V253.255H824.703Z" fill="white" fill-opacity="0.2"/>
<path d="M694.493 264.833L672.146 321.502L657.135 369.401H651.148L674.17 264.833H694.493Z" fill="#997659"/>
<path d="M699.047 264.833C699.3 284.735 702.758 311.552 703.348 312.817C703.685 313.66 716.503 324.201 741.717 344.355L737.67 348.74C707.986 331.369 692.385 321.587 691.036 319.31C689.012 315.852 682.266 283.976 676.869 264.918H699.047V264.833Z" fill="#B28B67"/>
<path d="M742.155 342.905C743.55 343.386 744.469 343.825 744.967 344.288C745.638 344.826 746.462 345.676 747.492 346.903C746.89 347.629 741.405 354.212 730.985 366.588C728.909 365.689 728.225 364.611 728.987 363.421C729.75 362.231 730.438 361.213 730.931 360.359L734.549 347.746C734.57 347.508 734.882 347.356 735.12 347.377L737.044 347.964C738.413 347.366 739.307 346.726 739.844 346.054C740.307 345.556 740.628 344.627 741.034 343.405C741.13 342.994 741.626 342.798 742.155 342.905Z" fill="#317FDD"/>
<path d="M659.581 367.209C660.087 368.558 660.34 369.57 660.34 370.244C660.34 371.088 660.171 372.268 659.918 373.871C658.991 373.871 650.389 373.871 634.198 373.871C633.524 371.678 633.945 370.497 635.379 370.329C636.812 370.16 637.993 369.991 639.005 369.823L650.98 364.51C651.233 364.426 651.486 364.51 651.57 364.763L652.329 366.618C653.678 367.209 654.774 367.546 655.618 367.546C656.292 367.546 657.22 367.293 658.4 366.703C658.738 366.45 659.328 366.618 659.581 367.209C659.497 367.124 659.497 367.124 659.581 367.209Z" fill="#317FDD"/>
<path d="M679.483 364.426L651.317 361.39L672.146 264.833H697.445L679.483 364.426Z" fill="#073199"/>
<path d="M735.814 337.272L717.346 359.197C697.866 337.946 686.482 324.032 683.278 317.539C680.073 311.046 677.122 293.505 674.592 264.833H703.011C704.444 290.048 705.372 303.203 705.878 304.384C706.299 305.564 716.334 316.527 735.814 337.272Z" fill="#0B45B7"/>
<path d="M691.625 201.081C694.24 199.226 696.348 196.611 697.022 193.238C698.709 183.625 685.048 182.36 681.253 186.492C677.458 190.624 674.76 202.852 677.796 204.538C679.06 205.213 682.096 205.129 685.385 204.117L680.41 216.344L691.035 219.043L691.625 201.081Z" fill="#B28B67"/>
<path d="M678.218 178.734C678.639 177.975 679.398 177.469 680.242 177.469C680.41 177.469 680.663 177.469 680.832 177.553C680.916 177.553 680.916 177.637 681.001 177.553C681.001 177.553 681.085 177.469 681.085 177.384C681.169 177.216 681.254 177.131 681.338 177.047C681.591 176.625 682.013 176.288 682.434 176.119C683.193 175.698 684.205 175.445 685.048 175.613C685.554 175.698 685.976 175.866 686.398 176.204C686.651 176.372 686.819 176.541 686.988 176.71C687.072 176.794 687.241 176.963 687.325 176.963C687.41 176.963 687.578 176.794 687.663 176.794C688.59 176.372 689.518 176.372 690.445 176.625C691.542 176.878 692.469 177.216 693.228 178.059C693.397 178.228 693.481 178.396 693.65 178.649C693.734 178.734 693.819 178.902 693.819 178.987C693.819 179.071 693.903 179.155 693.903 179.155C693.987 179.239 693.903 179.324 694.071 179.239C694.577 179.071 695.083 179.071 695.589 179.239C695.842 179.324 696.18 179.492 696.348 179.661C696.433 179.745 696.601 179.914 696.686 179.998C696.77 179.998 697.023 179.914 697.107 179.914C697.698 179.83 698.288 179.914 698.878 180.167C699.469 180.42 699.974 180.757 700.396 181.263C700.565 181.516 700.733 181.685 700.902 182.022C700.986 182.107 700.986 182.275 701.071 182.36C701.071 182.444 701.155 182.528 701.155 182.613C701.155 182.528 701.914 182.444 701.914 182.444C702.251 182.444 702.589 182.528 702.926 182.697C703.516 183.034 703.938 183.625 704.191 184.215C704.36 184.468 704.444 184.805 704.613 185.143C704.697 185.311 704.697 185.48 704.697 185.648C704.697 185.733 704.697 185.817 704.697 185.901C704.697 185.986 704.781 185.986 704.866 186.07C705.287 186.407 705.709 186.745 705.962 187.251C706.215 187.757 706.299 188.263 706.299 188.853V189.022C706.299 189.022 706.384 189.106 706.468 189.106C706.636 189.19 706.721 189.19 706.805 189.275C707.058 189.359 707.227 189.528 707.395 189.696C708.154 190.371 708.576 191.298 708.66 192.226C708.745 193.238 708.492 194.334 707.817 195.178C707.733 195.346 707.648 195.431 707.48 195.515C707.395 195.599 707.395 195.599 707.395 195.684C707.395 195.768 707.48 195.937 707.48 196.021C707.564 196.358 707.564 196.696 707.564 197.117C707.564 197.707 707.395 198.298 707.227 198.804C707.142 199.057 706.974 199.31 706.805 199.478C706.721 199.563 706.636 199.647 706.468 199.731C706.384 199.816 706.383 199.816 706.299 199.816C706.299 199.816 706.215 199.816 706.215 199.9C706.13 199.984 706.131 199.9 706.131 199.984C706.131 200.153 706.215 200.322 706.215 200.49C706.215 200.659 706.215 200.828 706.299 200.996C706.299 201.334 706.299 201.671 706.299 202.093C706.215 202.767 706.046 203.442 705.625 203.948C705.456 204.201 705.203 204.369 704.95 204.454C704.781 204.538 704.697 204.538 704.528 204.622C704.444 204.622 704.36 204.622 704.36 204.707C704.275 204.791 704.36 204.875 704.275 204.96C704.191 205.634 704.107 206.309 703.685 206.899C703.348 207.49 702.842 207.911 702.251 208.08C701.071 208.502 699.721 208.164 698.794 207.321C698.541 207.152 698.372 206.899 698.204 206.646C697.445 207.321 696.264 206.984 695.421 206.478C694.409 205.972 693.734 204.96 693.481 203.863C692.638 204.538 691.289 203.863 691.036 202.852C690.951 202.599 690.951 202.346 691.036 202.093C691.036 201.924 691.12 201.84 691.12 201.671C691.12 201.502 691.036 201.334 691.036 201.165C690.951 200.828 691.036 200.49 691.036 200.153C691.036 199.984 691.12 199.816 691.204 199.647C691.289 199.478 691.289 199.31 691.289 199.225C691.542 199.31 691.879 199.31 692.216 199.31C692.469 199.31 692.807 199.141 692.975 198.972C693.481 198.635 693.903 198.129 694.24 197.623C694.915 196.443 695.168 194.925 694.071 193.997C693.565 193.575 691.795 193.069 691.12 193.069C690.361 193.069 689.096 194.419 689.012 194.587C688.927 194.672 688.927 194.756 688.843 194.84C688.59 194.925 688.337 194.587 688.253 194.503C688.084 194.25 688 193.913 687.916 193.66C687.747 192.985 687.663 192.31 687.663 191.551C687.663 191.046 687.663 190.455 687.663 189.949C687.578 189.443 687.41 188.937 687.072 188.516C686.651 188.094 686.145 187.757 685.639 187.504C685.133 187.166 684.711 186.829 684.374 186.323C684.289 186.239 684.205 186.07 684.205 185.986C684.205 185.901 684.121 185.733 684.036 185.648C683.952 185.564 683.699 185.733 683.53 185.733C682.856 185.986 682.266 186.323 681.675 186.829C681.169 187.251 680.663 187.757 680.242 188.347C679.904 188.769 679.651 189.359 679.23 189.612C679.061 189.781 677.88 189.528 677.543 189.359C677.206 189.19 676.868 188.6 676.868 188.347C676.784 188.094 676.868 187.757 676.953 187.504C677.037 187.335 677.121 187.251 677.206 187.082C677.29 186.998 677.29 186.829 677.459 186.745C677.627 186.576 677.88 186.407 678.133 186.407C677.965 186.07 677.796 185.733 677.712 185.395C677.627 185.058 677.627 184.552 677.627 184.215C677.712 183.878 677.796 183.625 678.049 183.372C678.302 183.119 678.639 183.034 678.977 182.95C678.639 182.528 678.386 182.107 678.218 181.601C677.796 180.757 677.712 179.661 678.218 178.734Z" fill="#660909"/>
<path d="M657.725 196.527L643.895 189.022C640.438 183.793 638.414 181.516 637.739 182.275C636.812 183.372 638.245 184.636 637.739 185.48C637.233 186.323 634.45 185.986 631.836 185.48C629.222 184.974 629.812 186.239 630.403 186.913C632.848 188.769 636.053 190.455 639.932 191.973L653.256 204.285L657.725 196.527ZM645.835 220.56L636.053 212.887C628.463 210.947 620.874 207.743 622.138 207.405C623.994 206.899 630.234 208.248 631.583 207.996C632.932 207.743 632.511 207.658 632.173 206.225C631.836 204.791 633.017 205.634 633.944 205.972C636.137 206.731 637.402 209.345 639.679 210.272C642.799 211.537 645.919 212.718 648.955 213.983C651.822 215.163 655.448 216.26 658.062 218.031C654.183 219.38 649.714 219.717 645.835 220.56Z" fill="#B28B67"/>
<path d="M691.204 226.126C674.506 225.114 659.412 219.38 641.787 209.176L637.992 217.862C651.991 231.86 664.556 242.233 679.229 240.799C682.939 240.462 688.674 233.294 694.324 231.523L691.204 226.126Z" fill="#0B45B7"/>
<path d="M703.937 267.953H668.856C676.783 243.666 680.915 227.053 681.084 218.03C681.084 217.609 681.927 216.765 682.349 216.85C685.132 217.609 688.083 217.356 691.204 216.006C699.383 229.415 702.251 245.859 703.937 267.953Z" fill="#C1E7F7"/>
<path d="M687.156 208.838C684.626 207.911 681.927 207.489 679.398 206.899C675.35 205.887 671.555 203.357 668.013 201.164C666.074 199.984 649.461 188.515 648.871 189.106L640.354 197.285C652.328 210.862 666.074 221.488 680.072 234.221C679.819 258.086 677.036 279.168 689.095 279.168C694.914 279.168 701.154 279.168 707.816 279.168C710.515 260.953 705.708 240.883 698.793 224.102C698.034 222.247 697.275 220.476 696.432 218.705C694.998 215.5 693.143 212.38 690.192 210.441C689.264 209.766 688.252 209.26 687.156 208.838Z" fill="#1159CC"/>
<path d="M760.859 258.93L741.632 324.959L732.693 374.545H723.585L732.609 258.93H760.859Z" fill="#997659"/>
<path d="M769.461 258.93C768.112 293.252 768.618 311.973 768.955 315.093C769.293 318.213 770.979 339.127 782.532 375.641H773.087C757.74 340.56 752.427 319.731 750.656 315.093C748.885 310.455 743.741 291.734 736.151 258.93H769.461Z" fill="#B28B67"/>
<path d="M761.281 258.93C756.306 281.699 747.704 317.96 735.392 367.798H722.152C721.141 316.611 725.357 282.964 732.525 258.93H761.281Z" fill="#660909"/>
<path d="M769.545 258.93C768.196 293.252 771.653 327.068 782.11 368.304H768.027C752.679 333.73 741.632 300.167 734.127 258.93H769.545V258.93Z" fill="#89130A"/>
<path d="M783.881 382.387L783.375 374.038C780.339 374.966 776.544 374.544 771.99 373.026C767.099 376.484 760.859 378.929 753.438 380.194C752.848 380.279 752.511 380.869 752.595 381.375V381.459L753.354 383.989H772.075H782.953L783.881 382.387Z" fill="#FC4E24"/>
<path d="M734.633 382.387L734.127 374.038C731.091 374.966 727.296 374.544 722.742 373.026C717.851 376.484 711.611 378.929 704.19 380.194C703.6 380.279 703.262 380.869 703.347 381.375V381.459L704.106 383.989H722.827H733.705L734.633 382.387Z" fill="#FC4E24"/>
<path d="M752.764 182.95C755.21 180.083 756.812 176.626 756.559 172.747C755.8 161.531 740.199 163.976 737.163 169.626C734.128 175.277 734.465 189.612 738.428 190.624C740.031 191.046 743.319 190.034 746.693 188.01L744.584 203.021H757.149L752.764 182.95Z" fill="#B28B67"/>
<path d="M746.017 174.011C745.511 180.673 744.247 184.046 742.223 184.046C739.102 184.046 736.488 182.106 735.139 182.106C734.127 182.106 734.38 183.371 735.055 184.299C735.561 185.058 738.259 185.817 738.259 186.998C738.259 188.178 736.151 187.25 736.151 187.925C736.151 189.106 735.814 191.214 737.753 191.214C739.777 191.214 745.596 190.455 746.608 187.503C747.282 185.564 747.704 181.516 747.873 175.444C747.957 175.444 748.126 175.444 748.21 175.444C749.981 175.444 751.33 176.878 751.33 178.565C751.33 179.408 750.993 180.251 750.403 180.841C751.162 181.853 751.921 182.95 752.848 184.046C756.39 181.938 759.763 175.782 756.39 169.879C755.462 167.012 752.426 165.409 749.897 164.735C747.873 163.891 745.68 163.807 743.909 164.313C740.367 164.65 737.247 165.662 736.32 166.337C736.32 169.71 736.994 170.638 742.476 170.553C743.909 171.228 745.005 172.409 746.017 174.011Z" fill="#073199"/>
<path d="M715.491 251.931L700.058 261.038C696.179 267.11 693.902 269.724 693.228 268.965C692.216 267.7 693.818 266.266 693.312 265.339C692.806 264.411 689.686 264.917 686.735 265.592C683.783 266.266 684.458 264.833 685.132 264.074C687.915 261.881 691.457 259.858 695.758 258.002L710.599 243.582L715.491 251.931ZM792.314 273.434C793.073 274.952 798.639 279.59 802.433 282.205C803.951 283.301 803.361 284.65 802.771 284.987C798.048 287.939 794.928 284.481 790.796 282.542C786.327 280.434 786.664 286.337 783.122 284.734C784.218 282.289 786.748 277.735 785.568 274.699C785.062 273.35 780.424 258.593 771.653 230.258L783.122 230.174C788.182 256.99 791.218 271.411 792.314 273.434Z" fill="#B28B67"/>
<path d="M748.126 197.791L743.572 197.032C736.404 222.246 699.805 239.365 697.613 248.81C696.77 252.267 699.299 254.038 697.95 255.05L703.853 259.351C704.865 258.17 706.973 260.279 711.443 258.845C715.912 257.412 748.126 227.644 748.126 197.791Z" fill="#CE310D"/>
<path d="M740.536 201.165C741.042 234.559 721.815 242.992 726.032 256.4C729.573 267.447 763.558 279.337 769.377 268.459C771.738 264.074 772.834 258.761 772.918 253.027C774.436 257.496 775.617 261.291 776.46 264.495C777.978 269.977 783.797 270.904 783.797 273.013L791.471 270.904C790.965 268.037 794.591 266.604 793.579 260.195C789.194 231.27 777.472 210.356 758.414 197.37L758.245 194.587C758.161 193.406 757.149 192.563 756.053 192.647L741.97 193.659C740.789 193.744 739.946 194.756 740.03 195.852L740.536 201.165Z" fill="#FC4E24"/>
</svg>
