<svg width="1447" height="650" viewBox="0 0 1447 650" fill="none" xmlns="http://www.w3.org/2000/svg">
<path opacity="0.45" d="M0 2.52889L-1.94907e-05 642.041C0.799815 641.967 1.69963 641.967 2.49946 641.744C9.39803 640.182 16.2966 638.546 23.1952 636.909C40.2916 632.893 57.4881 629.025 74.7845 625.827C89.0815 623.224 103.379 620.843 117.876 618.835C133.072 616.752 148.369 614.967 163.766 613.405C168.065 612.959 172.364 612.438 176.663 612.067C178.963 611.843 181.162 611.695 183.462 611.472C189.661 610.877 195.759 610.356 201.958 609.835C213.456 608.943 225.053 608.273 236.651 607.678C245.849 607.232 255.147 606.786 264.445 606.414C273.043 606.042 281.642 605.893 290.24 605.521C297.238 605.224 304.337 605.224 311.335 605.149C315.135 605.149 318.934 605.149 322.733 605.075C330.531 604.926 338.33 604.926 346.128 604.926C358.126 604.852 370.223 604.852 382.221 605.075C384.12 605.075 386.12 605.075 388.02 605.075C396.018 605.075 404.016 605.075 411.915 605.372C423.112 605.819 434.21 605.967 445.408 606.265C454.106 606.488 462.804 606.786 471.502 607.158C481.4 607.529 491.298 608.05 501.196 608.422C509.794 608.794 518.393 609.315 526.991 609.686C532.59 609.91 538.188 610.207 543.787 610.579C543.887 610.579 543.887 610.579 543.987 610.579C546.587 610.728 549.186 610.877 551.786 611.025C552.385 611.1 552.985 611.1 553.585 611.174C554.985 611.248 556.385 611.323 557.784 611.397C566.982 611.918 576.28 612.513 585.479 613.108C595.976 613.777 606.574 614.447 617.072 615.265C617.772 615.339 618.372 615.339 619.072 615.414C622.671 615.637 626.17 615.86 629.669 616.157C637.968 616.827 646.166 617.571 654.464 618.24C660.663 618.761 666.962 619.133 673.16 619.579C681.059 620.248 688.957 620.992 696.856 621.662C702.454 622.108 707.953 622.554 713.552 623.075C716.052 623.298 718.651 623.521 721.15 623.744C723.35 623.893 725.55 624.116 727.749 624.265C730.349 624.488 732.948 624.711 735.647 625.009C740.147 625.381 744.746 625.752 749.245 626.124C754.344 626.571 759.542 627.017 764.641 627.463C767.641 627.686 770.74 627.909 773.74 628.133C774.739 628.207 775.739 628.281 776.739 628.356C779.738 628.579 782.638 628.802 785.637 629.025C792.436 629.546 799.234 630.141 805.933 630.661C810.332 631.033 814.631 631.256 819.03 631.628C825.729 632.149 832.427 632.744 839.126 633.19C844.025 633.562 849.024 633.785 853.923 634.157C861.521 634.678 869.22 635.273 876.818 635.794C882.117 636.165 887.416 636.389 892.815 636.76C901.013 637.281 909.211 637.876 917.41 638.397C923.309 638.769 929.207 639.066 935.006 639.364C943.804 639.736 952.502 640.479 961.301 640.926C969.399 641.372 977.497 641.67 985.696 642.19C986.495 642.265 987.395 642.265 988.195 642.339C995.194 642.711 1002.09 643.008 1009.09 643.38C1011.69 643.529 1014.29 643.603 1016.89 643.678C1018.49 643.752 1020.09 643.752 1021.69 643.827C1022.29 643.827 1022.89 643.901 1023.49 643.901C1025.79 643.975 1027.99 644.124 1030.29 644.198C1036.69 644.422 1043.08 644.496 1049.58 644.793C1061.38 645.314 1073.18 645.76 1084.97 646.132C1093.67 646.43 1102.37 646.727 1111.07 647.025C1121.67 647.397 1132.27 647.62 1142.86 647.917C1156.06 648.289 1169.36 648.438 1182.55 648.81C1190.35 649.033 1198.15 648.736 1205.95 649.182C1207.25 649.256 1208.55 649.331 1209.85 649.405H1209.95C1219.15 649.702 1228.35 649.405 1237.44 649.554C1244.14 649.703 1250.94 649.777 1257.64 649.851C1273.64 649.926 1289.73 650 1305.73 650C1321.93 650 1338.02 649.851 1354.22 649.851C1361.22 649.777 1368.12 649.702 1375.11 649.479C1385.41 649.256 1395.81 649.405 1406.11 649.182C1419.51 648.884 1433 648.512 1446.4 648.587C1446.6 648.587 1446.8 648.587 1447 648.587L1445.3 0C1426.3 0.223138 1407.31 -0.223138 1388.31 0.297517C1373.82 0.743792 1359.22 0.595034 1344.72 1.26445C1339.12 1.48758 1333.52 1.33883 1327.82 1.63634C1319.03 2.08262 1310.23 2.23138 1301.43 2.52889C1292.93 2.82641 1284.43 3.04955 1275.84 3.42144C1265.84 3.79334 1255.84 4.31399 1245.84 4.68589C1236.34 5.05779 1226.75 5.50406 1217.25 5.95034C1212.65 6.17348 1208.15 6.39661 1203.55 6.61975C1203.05 6.61975 1202.45 6.69413 1201.95 6.69413C1198.55 6.84289 1195.15 7.06603 1191.75 7.21478C1180.86 7.80982 1169.96 8.33047 1158.96 8.92551C1149.06 9.44616 1139.16 10.0412 1129.27 10.6362C1119.37 11.2313 1109.47 11.7519 1099.57 12.347C1090.27 12.942 1080.98 13.4626 1071.58 14.0577C1059.98 14.8015 1048.48 15.3965 1036.89 16.2147C1028.09 16.8097 1019.39 17.4047 1010.59 17.9254C999.393 18.5948 988.195 19.3386 977.097 20.0824C966.2 20.8262 955.302 21.4212 944.404 22.2394C935.206 22.9088 926.008 23.4295 916.71 23.9501C904.812 24.6195 892.815 25.3633 880.917 26.1071C871.019 26.7021 861.121 27.1484 851.224 27.8178C840.326 28.5616 829.428 29.0823 818.43 29.5285C809.732 29.9004 801.034 30.4211 792.336 30.793C780.738 31.2393 769.141 31.5368 757.543 32.1318C748.545 32.5781 739.547 32.6525 730.549 32.95C719.851 33.3219 709.153 33.3963 698.455 33.8425C692.756 34.1401 687.058 33.9913 681.259 34.1401C668.261 34.512 655.164 34.5863 642.167 35.107C633.469 35.4045 624.67 34.9582 615.972 35.4789C606.074 35.9995 596.076 35.5533 586.078 35.9252C567.382 36.5202 548.686 35.9995 529.99 36.2971C508.595 36.5946 487.099 36.7433 465.703 36.0739C465.104 36.0739 464.504 36.0739 463.904 35.9995C452.506 35.9995 441.108 36.1483 429.711 35.9252C426.911 35.9252 424.012 35.8508 421.213 35.7764C414.714 35.7764 408.115 35.8508 401.617 35.4789C399.817 35.4045 398.117 35.3301 396.318 35.2557C396.218 35.2557 396.018 35.2557 395.918 35.2557C390.619 35.1814 385.42 35.3301 380.121 35.107C368.224 34.5863 356.326 34.512 344.429 34.2144C335.33 33.9913 326.232 33.6938 317.134 33.3963C306.136 33.0244 295.039 32.5781 284.041 32.1318C283.741 32.1318 283.441 32.1318 283.241 32.0574C282.941 32.0574 282.741 32.0574 282.441 32.0574C279.242 31.9831 275.943 31.9087 272.643 31.6855C268.144 31.4624 263.645 31.1649 259.146 30.9418C258.746 30.9418 258.246 30.8674 257.846 30.8674C249.148 30.4955 240.45 30.0492 231.752 29.4542C229.852 29.3798 227.853 29.231 225.953 29.1567C221.454 28.8591 216.955 28.5616 212.456 28.2641C208.157 28.041 203.858 27.7434 199.559 27.4459C197.159 27.2972 194.66 27.074 192.26 26.9253C188.361 26.7021 184.562 26.479 180.663 26.1815C172.964 25.5865 165.266 24.7683 157.467 24.0989C154.168 23.8014 150.969 23.5782 147.669 23.2807C147.069 23.2063 146.47 23.1319 145.87 23.1319C139.871 22.6113 133.972 22.165 127.973 21.57C115.676 20.3055 103.379 18.7436 91.1811 17.4047C73.3848 15.3965 55.8884 12.6445 38.392 9.6693C27.9942 7.8842 10.4978 5.13217 0 2.52889C-0.899813 2.30576 5.1989 2.67765 4.59903 2.52889H4.49905" fill="#F9B721"/>
</svg>
