<svg width="1320" height="486" viewBox="0 0 1320 486" fill="none" xmlns="http://www.w3.org/2000/svg">
<path opacity="0.54" d="M519.1 249.3C456.2 247.8 411.4 279.8 358.2 299.3C288.8 324.8 208.4 327.4 136.1 346.9C48.9999 370.5 79.9998 435.1 149.2 459.3C188.5 473 237.4 480.1 281.4 483.3C408.9 492.6 536.6 474.4 663.4 468.4C760 463.8 856.9 465.8 953.7 464.7C1045.2 463.7 1185.7 439.8 1189 362.5C1189.9 341.2 1172.3 320.9 1148.1 306.9C1123.9 292.8 1093.8 284.1 1063.4 277C917.9 242.8 760 240.3 605.7 244.1" fill="#F9B721"/>
<path d="M871.6 353.3H755.8L763.4 302.5H864L871.6 353.3Z" fill="#2F3676"/>
<path d="M887.6 358.3H738.9V366.8H887.6V358.3Z" fill="#2F3676"/>
<path d="M738.9 358.3L755.8 353.3H871.6L887.7 358.3H738.9Z" fill="#AAB2D1"/>
<path d="M596.1 262.8V292.4C596.1 298 600.7 302.5 606.2 302.5H1021.1C1026.7 302.5 1031.2 297.9 1031.2 292.4V262.8H596.1Z" fill="#AAB2D1"/>
<path d="M1031.3 262.8V10.1C1031.3 4.5 1026.7 0 1021.2 0H606.2C600.6 0 596.1 4.6 596.1 10.1V262.8H1031.3Z" fill="#2F3676"/>
<path d="M1017.8 13.1001H609.2V247.6H1017.8V13.1001Z" fill="#DFE3ED"/>
<path d="M812 288.8C815.866 288.8 819 285.666 819 281.8C819 277.934 815.866 274.8 812 274.8C808.134 274.8 805 277.934 805 281.8C805 285.666 808.134 288.8 812 288.8Z" fill="#2F3676"/>
<path d="M280.3 229.9L299 295.5L312.6 343.8H322.6L308.1 229.9H280.3Z" fill="#191847"/>
<path d="M275.4 229.9C275 263.7 273.5 282.1 273 285.2C272.5 288.3 265.7 307.8 252.4 343.8H262.7C279.6 309.3 289 289.8 291 285.2C293 280.6 299 262.2 308.2 229.9H275.4V229.9Z" fill="#2F3676"/>
<path d="M251.5 353L252 342.2H262.8C267.9 345.8 274.6 348.7 282.9 351V353.1H263.3L256.6 352.1V353.1H251.5V353Z" fill="#191847"/>
<path d="M311.2 353L311.7 342.2H322.5C327.6 345.8 334.3 348.7 342.6 351V353.1H323L316.3 352.1V353.1H311.2V353Z" fill="#191847"/>
<path d="M287 168.4C284.6 165.6 283 162.2 283.3 158.4C284.1 147.4 299.4 149.8 302.4 155.4C305.4 161 305 175.1 301.2 176.1C299.7 176.5 296.4 175.5 293.1 173.5L295.2 188.3H282.8L287 168.4Z" fill="#B28B67"/>
<path d="M296.9 156.2C295.2 157.1 294 158.9 292.6 161.2C292.3 161.1 291.9 161 291.5 161C289.8 161 288.4 162.4 288.4 164.1C288.4 165 288.8 165.7 289.3 166.3C288.6 167.3 287.8 168.4 286.9 169.5C283.5 167.4 279.8 161.2 283 155.4C285.8 143.8 302.9 151.3 306 149.3C306.7 153.4 304.5 156.8 296.9 156.2Z" fill="#191847"/>
<path d="M314.399 229.4L325.799 246.3C329.599 248.9 332.599 251.6 334.799 254.3C335.199 255.1 335.599 256.7 332.899 255.5C330.199 254.3 327.299 253.2 326.599 254C325.899 254.8 327.099 256.5 325.899 257.5C325.099 258.2 323.399 255.2 320.899 248.5L307.899 236.6L314.399 229.4Z" fill="#B28B67"/>
<path d="M304 189.3C306.6 208.1 314.3 224.5 327.2 243.5L317.8 248.5C300.9 233.9 292.2 225.7 292.6 209C292.7 204.8 296.2 192.7 297.7 186.2L304 189.3Z" fill="#D65803"/>
<path d="M272.3 237.8H312C303 210.4 298.4 191.6 298.2 181.4C298.2 180.9 297.2 180 296.8 180.1C293.7 181 290.4 180.6 286.8 179.1C277.4 194.2 274.2 212.8 272.3 237.8Z" fill="#F2F2F2"/>
<path d="M416.899 259.2H329.299C323.599 259.2 318.899 254.5 318.899 248.8V189.8C318.899 184.1 323.599 179.4 329.299 179.4H416.899C422.599 179.4 427.299 184.1 427.299 189.8V248.8C427.299 254.5 422.699 259.2 416.899 259.2Z" fill="white"/>
<path d="M420.199 197.7C428.483 197.7 435.199 190.984 435.199 182.7C435.199 174.416 428.483 167.7 420.199 167.7C411.915 167.7 405.199 174.416 405.199 182.7C405.199 190.984 411.915 197.7 420.199 197.7Z" fill="white"/>
<path d="M422.699 180.7H428.599V185.7H422.699V192.5H417.199V185.7H411.199V180.7H417.199V174.1H422.699V180.7Z" fill="#C0B9DB"/>
<path d="M337.499 197.1H398.099" stroke="#C0B9DB" stroke-width="3" stroke-miterlimit="10"/>
<path d="M337.499 207.8H398.099" stroke="#C0B9DB" stroke-width="3" stroke-miterlimit="10"/>
<path d="M337.499 218.5H398.099" stroke="#C0B9DB" stroke-width="3" stroke-miterlimit="10"/>
<path d="M337.499 229.1H398.099" stroke="#C0B9DB" stroke-width="3" stroke-miterlimit="10"/>
<path d="M337.499 239.8H398.099" stroke="#C0B9DB" stroke-width="3" stroke-miterlimit="10"/>
<path d="M324.7 182.9L345.3 176.7C346.9 175.5 348 174.9 349.9 174.2C350.3 174.1 352.4 173.5 353 174.4C353.1 174.6 353.7 175.2 353.8 175.3C354.3 175.7 354.4 175.8 354.5 176.4C354.6 176.9 355.1 177.1 355.4 177.4C356 178.1 356.4 178.5 356.3 179.2C356 180.5 353.7 181.1 352.5 181.4C350.4 181.9 348.2 182.1 346 182.2L330 191.6L324.7 182.9Z" fill="#B28B67"/>
<path d="M290.2 179.1C301.6 179.2 320 181.3 341.3 174.4L343.4 184.9C327.3 195.2 311 203.2 296.8 202.1C303 228.7 302.7 250.4 289 250.4C282.5 250.4 275.4 250.4 267.9 250.4C264.5 227.8 273.4 196.5 281.6 180.8C281.9 180.2 282.6 179.1 284.1 179.1C285.4 179.1 287.5 179.1 290.2 179.1Z" fill="#EA6206"/>
<path d="M56.7998 315.4L88.6998 368.7L112.6 413.7H117.7L77.6998 315.4H56.7998Z" fill="#997659"/>
<path d="M109.4 411.6C108.9 412.9 108.7 413.8 108.7 414.5C108.7 415.3 108.8 416.4 109.1 417.9C110 417.9 118.1 417.9 133.3 417.9C133.9 415.8 133.6 414.7 132.2 414.5C130.8 414.3 129.7 414.2 128.8 414.1L117.6 409.1C117.4 409 117.1 409.1 117 409.3L116.3 411.1C115 411.7 114 412 113.2 412C112.6 412 111.7 411.7 110.6 411.2C110.2 411 109.7 411.2 109.4 411.6C109.4 411.6 109.5 411.6 109.4 411.6Z" fill="#043E75"/>
<path d="M105.9 406.5L115.8 403.5C111.5 390.5 106.1 376.2 99.8 360.6C93.5 345 86.7 329.9 79.5 315.4H51.5C59.6 333.8 68.1 350.5 77.1 365.5C86.1 380.5 95.8 394.1 105.9 406.5Z" fill="#043E75"/>
<path d="M54.7 315.4C51.7 334.1 45.9 358 45.3 358.8C45 359.3 31.9 363.7 6 372L7.1 376.5C38 372 54.3 368.6 55.9 366.1C58.4 362.4 70.9 333.3 75.7 315.4H54.7V315.4Z" fill="#B28B67"/>
<path d="M15.0996 368.1L17.0996 375.4C40.1996 377.4 54.3996 376 59.5996 371C64.7996 366 70.6996 347.5 77.3996 315.4H50.5996C46.3996 341.7 43.9996 355.4 43.4996 356.5C42.9996 357.6 33.4996 361.4 15.0996 368.1Z" fill="#1174BA"/>
<path d="M7.24004 370.053C5.87297 369.787 4.95191 369.746 4.26254 369.867C3.4747 370.006 2.40877 370.296 0.983655 370.852C1.13994 371.738 2.54649 379.715 5.18594 394.684C7.35823 394.91 8.38942 394.424 8.34327 393.01C8.29713 391.597 8.2046 390.496 8.1468 389.593L11.126 377.694C11.1897 377.48 11.0392 377.202 10.8248 377.138L8.93062 376.762C8.11399 375.585 7.6449 374.653 7.50598 373.865C7.40179 373.274 7.54095 372.336 7.84234 371.165C8.06833 370.719 7.78454 370.262 7.24004 370.053C7.24004 370.053 7.25741 370.152 7.24004 370.053Z" fill="#043E75"/>
<path d="M74.8002 259C79.7002 259 81.5002 253.1 84.3002 249.9C86.3002 247.6 89.7002 248.3 90.7002 245.1C93.2002 237 86.5002 231.3 77.6002 231.3C68.7002 231.3 62.8002 236.3 61.5002 243.8C60.2002 251.3 66.0002 259 74.8002 259Z" fill="#191847"/>
<path d="M75.3998 253.8C73.3998 251.5 72.0998 248.6 72.2998 245.5C72.8998 236.3 85.6998 238.3 88.1998 243C90.6998 247.7 90.3998 259.4 87.1998 260.2C85.8998 260.5 83.1998 259.7 80.3998 258L82.0998 270.3H71.7998L75.3998 253.8Z" fill="#B28B67"/>
<path d="M79.7006 247.9C79.3006 247.7 78.9006 247.6 78.4006 247.6C76.9006 247.6 75.8006 248.8 75.8006 250.2C75.8006 250.8 76.0006 251.3 76.3006 251.7C75.7006 252.7 75.2006 253.8 75.1006 254.9C72.9006 254.9 65.0006 246.7 72.9006 239C80.8006 231.3 92.2006 242.3 88.8006 242.9C86.8006 243.3 82.9006 245.2 79.7006 247.9Z" fill="#191847"/>
<path d="M90.3998 293.7L102.8 284.6C108.9 283.6 111.8 282.7 111.3 281.9C110.7 280.7 109 281.5 108.4 280.7C107.8 279.9 109.3 277.7 110.8 275.6C112.3 273.5 110.9 273.6 110.1 273.8C107.4 275.2 104.6 277.3 101.7 280.1L85.2998 287L90.3998 293.7Z" fill="#997659"/>
<path d="M83.5997 293.8C90.0997 294.7 98.0997 291.1 104 286.4L101.7 279.3C93.4997 283.4 86.0997 283.8 80.5997 283.3C76.3997 286.6 78.3997 293.1 83.5997 293.8Z" fill="#D30B3B"/>
<path d="M163.6 300.1H105.8C101.3 300.1 97.5996 296.4 97.5996 291.9V234.1C97.5996 229.6 101.3 225.9 105.8 225.9H163.6C168.1 225.9 171.8 229.6 171.8 234.1V291.9C171.8 296.4 168.1 300.1 163.6 300.1Z" fill="white"/>
<path d="M167 245.6C175.229 245.6 181.9 238.929 181.9 230.7C181.9 222.471 175.229 215.8 167 215.8C158.771 215.8 152.1 222.471 152.1 230.7C152.1 238.929 158.771 245.6 167 245.6Z" fill="white" stroke="white" stroke-width="4" stroke-miterlimit="10"/>
<path d="M169.5 228.7H175.4V233.7H169.5V240.5H164V233.7H158.1V228.7H164V222.1H169.5V228.7Z" fill="#2F1A70"/>
<path d="M142.599 254.8H110.599C109.399 254.8 108.399 253.8 108.399 252.6V245.2C108.399 244 109.399 243 110.599 243H142.599C143.799 243 144.799 244 144.799 245.2V252.6C144.799 253.9 143.799 254.8 142.599 254.8Z" fill="#2F1A70"/>
<path d="M157.299 270.9H111.499C110.099 270.9 108.899 269.7 108.899 268.3V261.7C108.899 260.3 110.099 259.1 111.499 259.1H157.299C158.699 259.1 159.899 260.3 159.899 261.7V268.3C159.899 269.7 158.699 270.9 157.299 270.9Z" fill="#ADA8D4"/>
<path d="M148.099 286.4H111.199C109.899 286.4 108.899 285.4 108.899 284.1V277C108.899 275.7 109.899 274.7 111.199 274.7H148.099C149.399 274.7 150.399 275.7 150.399 277V284.1C150.399 285.4 149.399 286.4 148.099 286.4Z" fill="#ADA8D4"/>
<path d="M115.299 289.8L122.499 286.8C123.799 283.3 125.199 281.6 126.499 281.7C127.599 281.3 125.299 285.7 127.299 285.5C129.299 285.3 134.399 282.3 135.099 283.1C136.199 284.3 134.799 287.4 133.299 288.9C130.599 291.7 128.499 292.5 123.599 293.3C120.999 293.7 118.099 294.9 114.899 296.7L115.299 289.8Z" fill="#997659"/>
<path d="M83.2998 261.9L70.8998 260.6C69.4998 260.5 58.3998 277.2 57.1998 288.7C56.0998 299.2 45.5998 304.8 48.8998 321.8C57.0998 321.1 80.2998 331.7 85.2998 323.4C87.6998 319.4 88.7998 314.8 89.0998 309.9C97.2998 310.6 107.6 308.9 119.9 304.1C120.5 301.2 119.4 296 116.8 288.7C102.7 292.1 92.8998 292.8 87.1998 290.7C85.3998 280.8 82.9998 270.7 83.2998 261.9Z" fill="#FC0E3B"/>
<path d="M1052.1 198.5L1042.5 190.9C1035 189 1027.6 185.9 1028.8 185.5C1030.6 185 1036.7 186.3 1038.1 186.1C1039.5 185.9 1039.1 185.8 1038.7 184.3C1038.3 182.9 1039.5 183.8 1040.4 184.1C1042.6 184.8 1043.8 187.4 1046 188.3C1049 189.5 1052.1 190.7 1055.1 191.9C1057.9 193.1 1061.5 194.1 1064 195.9C1060.3 197.4 1055.9 197.7 1052.1 198.5Z" fill="#B28B67"/>
<path d="M1096.6 203.9C1080.2 202.9 1065.4 197.3 1048.1 187.3L1044.3 195.8C1058 209.5 1070.4 219.7 1084.8 218.3C1088.4 217.9 1094.1 210.9 1099.6 209.2L1096.6 203.9Z" fill="#E23758"/>
<path d="M929.1 187.1H1310.5C1315.4 187.1 1319.4 183.1 1319.4 178.2V137.9H920.2V178.2C920.2 183.1 924.2 187.1 929.1 187.1Z" fill="#2F1A70"/>
<path d="M919.7 137.9H1319.3V74.4C1319.3 69.5 1315.3 65.5 1310.4 65.5H928.7C923.8 65.5 919.8 69.5 919.8 74.4V137.9H919.7Z" fill="#FCAD4F"/>
<path d="M1066.64 96.6814L1081.64 96.6814L1081.64 77.4814L1066.64 77.4814L1066.64 96.6814Z" fill="#F0E8F5"/>
<path d="M1054.09 103.266L1069.09 103.266L1069.09 84.0656L1054.09 84.0656L1054.09 103.266Z" fill="#E4DAEA"/>
<path d="M1287 146.6C1287 146.6 1284.9 141.9 1283.8 141.2C1282.7 140.5 1276.8 141.7 1276.8 141.7C1276.8 141.7 1271.2 129.2 1268.1 126.5C1266.6 125.3 1270.5 126.3 1270.8 126.4C1274.9 127.7 1278.9 129.7 1282.1 132.7C1283.3 133.8 1286.2 136.3 1286.3 137C1286.4 137.6 1284.5 139.6 1284.6 140.6C1284.7 141.6 1286.8 144.7 1287 145.4C1287.3 146.1 1287.5 147 1287.5 147L1287 146.6Z" fill="#8479C9"/>
<path d="M1281.2 134.2C1281.2 129.6 1285.2 112.3 1285.2 112.3C1287.8 117.8 1292.1 135.1 1292.1 135.1C1291 135.7 1288.5 139.6 1288.5 139.6L1289.3 146.8L1288.5 146.9L1287.6 139.6C1287.6 139.7 1281.2 134.8 1281.2 134.2Z" fill="#8479C9"/>
<path d="M1289.4 146.4L1291.4 140.9C1291.4 140.9 1296.5 139.2 1298.4 139C1298.4 139 1299.6 117.5 1299 114.8C1299 114.8 1286.5 133 1286.2 133.7C1285.9 134.4 1290 140.4 1290 140.4L1288.9 146L1289.4 146.4Z" fill="#8479C9"/>
<path d="M1294.9 144.8H1281.5L1285.5 160.9H1290.3L1294.9 144.8Z" fill="#E4DAEA"/>
<path d="M1064.4 126.1C1064.8 126.1 1065.1 126.7 1065.1 127.4C1065.1 127.5 1065.1 127.6 1065.1 127.7C1065.1 128 1065.1 128.2 1065.1 128.5C1065.1 128.9 1065.1 129.3 1065.1 129.8C1065.1 130.3 1065.1 130.9 1065.1 131.4C1065.1 132.1 1065.1 132.7 1065.1 133.4C1065.1 134.1 1065.1 134.9 1065.1 135.6C1065.1 136.4 1065.1 137.2 1065.1 138C1065.1 138.8 1065.1 139.7 1065.1 140.5C1065.1 141.3 1065.1 142.2 1065.1 143C1065.1 143.8 1065.1 144.7 1065.1 145.5C1065.1 146.3 1065.1 147.1 1065.1 147.9C1065.1 148.6 1065.1 149.4 1065.1 150.1C1065.1 150.8 1065.1 151.4 1065.1 152.1C1065.1 152.7 1065.1 153.2 1065.1 153.8C1065.1 154.2 1065.1 154.6 1065.1 155.1C1065.1 155.4 1065.1 155.6 1065.1 155.9C1065.1 156.1 1065.1 156.2 1065.1 156.4C1065.1 156.6 1064.9 156.7 1064.9 156.7C1064.8 156.8 1064.6 156.8 1064.4 156.8C1064.3 156.8 1064.1 156.8 1064 156.7C1063.9 156.7 1063.8 156.6 1063.7 156.5V156.4C1063.7 156.2 1063.7 156 1063.7 155.9C1063.7 155.6 1063.7 155.4 1063.7 155.1C1063.7 154.7 1063.7 154.3 1063.7 153.9C1063.7 153.4 1063.7 152.8 1063.7 152.3C1063.7 151.7 1063.7 151 1063.7 150.4C1063.7 149.7 1063.7 149 1063.7 148.3C1063.7 147.5 1063.7 146.8 1063.7 146C1063.7 145.2 1063.7 144.4 1063.7 143.6C1063.7 142.8 1063.7 142 1063.7 141.2C1063.7 140.4 1063.7 139.6 1063.7 138.8C1063.7 138 1063.7 137.2 1063.7 136.5C1063.7 135.8 1063.7 135 1063.7 134.3C1063.7 133.6 1063.7 133 1063.7 132.3C1063.7 131.7 1063.7 131.2 1063.7 130.6C1063.7 130.1 1063.7 129.7 1063.7 129.2C1063.7 128.9 1063.7 128.5 1063.7 128.2C1063.7 128 1063.7 127.8 1063.7 127.7C1063.7 127.7 1063.7 127.7 1063.7 127.6C1063.7 126.7 1064 126.1 1064.4 126.1Z" fill="#6D61AA"/>
<path d="M1041.6 121.7C1042 121.7 1042.3 122.3 1042.3 123C1042.3 123.1 1042.3 123.2 1042.3 123.3C1042.3 123.6 1042.3 123.8 1042.3 124.1C1042.3 124.5 1042.3 124.9 1042.3 125.4C1042.3 125.9 1042.3 126.5 1042.3 127C1042.3 127.7 1042.3 128.3 1042.3 129C1042.3 129.7 1042.3 130.5 1042.3 131.2C1042.3 132 1042.3 132.8 1042.3 133.6C1042.3 134.4 1042.3 135.3 1042.3 136.1C1042.3 136.9 1042.3 137.8 1042.3 138.6C1042.3 139.4 1042.3 140.3 1042.3 141.1C1042.3 141.9 1042.3 142.7 1042.3 143.5C1042.3 144.2 1042.3 145 1042.3 145.7C1042.3 146.4 1042.3 147 1042.3 147.7C1042.3 148.3 1042.3 148.8 1042.3 149.4C1042.3 149.8 1042.3 150.2 1042.3 150.7C1042.3 151 1042.3 151.2 1042.3 151.5C1042.3 151.7 1042.3 151.8 1042.3 152C1042.3 152.2 1042.1 152.3 1042.1 152.3C1042 152.4 1041.8 152.4 1041.6 152.4C1041.5 152.4 1041.3 152.4 1041.2 152.3C1041.1 152.3 1041 152.2 1040.9 152.1V152C1040.9 151.8 1040.9 151.6 1040.9 151.5C1040.9 151.2 1040.9 151 1040.9 150.7C1040.9 150.3 1040.9 149.9 1040.9 149.5C1040.9 149 1040.9 148.4 1040.9 147.9C1040.9 147.3 1040.9 146.6 1040.9 146C1040.9 145.3 1040.9 144.6 1040.9 143.9C1040.9 143.1 1040.9 142.4 1040.9 141.6C1040.9 140.8 1040.9 140 1040.9 139.2C1040.9 138.4 1040.9 137.6 1040.9 136.8C1040.9 136 1040.9 135.2 1040.9 134.4C1040.9 133.6 1040.9 132.8 1040.9 132.1C1040.9 131.4 1040.9 130.6 1040.9 129.9C1040.9 129.2 1040.9 128.6 1040.9 127.9C1040.9 127.3 1040.9 126.8 1040.9 126.2C1040.9 125.7 1040.9 125.3 1040.9 124.8C1040.9 124.5 1040.9 124.1 1040.9 123.8C1040.9 123.6 1040.9 123.4 1040.9 123.3C1040.9 123.3 1040.9 123.3 1040.9 123.2C1040.9 122.3 1041.2 121.7 1041.6 121.7Z" fill="#6D61AA"/>
<path d="M1019.1 126C1019.5 126 1019.8 126.6 1019.8 127.3C1019.8 127.4 1019.8 127.5 1019.8 127.6C1019.8 127.9 1019.8 128.1 1019.8 128.4C1019.8 128.8 1019.8 129.2 1019.8 129.7C1019.8 130.2 1019.8 130.8 1019.8 131.3C1019.8 131.9 1019.8 132.6 1019.8 133.2C1019.8 133.9 1019.8 134.7 1019.8 135.4C1019.8 136.2 1019.8 137 1019.8 137.8C1019.8 138.6 1019.8 139.4 1019.8 140.3C1019.8 141.1 1019.8 142 1019.8 142.8C1019.8 143.6 1019.8 144.4 1019.8 145.3C1019.8 146.1 1019.8 146.9 1019.8 147.7C1019.8 148.4 1019.8 149.2 1019.8 149.9C1019.8 150.6 1019.8 151.2 1019.8 151.9C1019.8 152.4 1019.8 153 1019.8 153.5C1019.8 153.9 1019.8 154.3 1019.8 154.8C1019.8 155.1 1019.8 155.3 1019.8 155.6C1019.8 155.8 1019.8 155.9 1019.8 156.1C1019.8 156.3 1019.6 156.4 1019.6 156.4C1019.5 156.5 1019.3 156.5 1019.1 156.5C1019 156.5 1018.8 156.5 1018.7 156.4C1018.6 156.4 1018.5 156.3 1018.4 156.2V156.1C1018.4 155.9 1018.4 155.7 1018.4 155.6C1018.4 155.3 1018.4 155.1 1018.4 154.8C1018.4 154.4 1018.4 154 1018.4 153.6C1018.4 153.1 1018.4 152.6 1018.4 152C1018.4 151.4 1018.4 150.8 1018.4 150.1C1018.4 149.4 1018.4 148.7 1018.4 148C1018.4 147.2 1018.4 146.5 1018.4 145.7C1018.4 144.9 1018.4 144.1 1018.4 143.3C1018.4 142.5 1018.4 141.7 1018.4 140.9C1018.4 140.1 1018.4 139.3 1018.4 138.5C1018.4 137.7 1018.4 137 1018.4 136.2C1018.4 135.5 1018.4 134.7 1018.4 134C1018.4 133.3 1018.4 132.7 1018.4 132C1018.4 131.4 1018.4 130.9 1018.4 130.3C1018.4 129.8 1018.4 129.4 1018.4 128.9C1018.4 128.6 1018.4 128.2 1018.4 127.9C1018.4 127.7 1018.4 127.5 1018.4 127.4C1018.4 127.4 1018.4 127.4 1018.4 127.3C1018.4 126.5 1018.7 126 1019.1 126Z" fill="#6D61AA"/>
<path d="M1015.9 124.3C1015.9 127.3 1027.5 129.8 1041.8 129.8C1056.1 129.8 1067.7 127.3 1067.7 124.3V125C1067.7 128 1056.2 130.5 1041.9 130.5C1027.6 130.5 1016.4 128.2 1016 125.2L1015.9 124.3Z" fill="#6D61AA"/>
<path d="M1041.8 129.8C1056.1 129.8 1067.7 127.338 1067.7 124.3C1067.7 121.262 1056.1 118.8 1041.8 118.8C1027.5 118.8 1015.9 121.262 1015.9 124.3C1015.9 127.338 1027.5 129.8 1041.8 129.8Z" fill="#F0E8F5"/>
<path d="M1160.5 118.9L1140 115.5L1138.9 106.4L1138.7 101.3L1139.3 90.9001L1157.2 91.5001L1159 92.6001L1159.9 95.7001L1159.3 101.1L1159.1 106.3L1159.3 110.5L1159.7 114.7L1160.5 118.9Z" fill="#6753A5"/>
<path d="M1140 115.5L1140.7 115.3C1140.7 115.3 1139.7 111.3 1139.5 109.1C1139 104.9 1139 100.2 1139.5 94.2V94.1C1139.6 92.5 1139.8 90.8 1139 89.3C1138.6 88.5 1137.6 87.7 1136.7 88C1135.6 88.3 1135.2 89.7 1134.9 90.6C1134.9 90.7 1134.8 90.8 1134.8 90.9L1135.5 91.1C1135.5 91 1135.6 90.9 1135.6 90.8C1135.8 90 1136.2 88.8 1136.9 88.6C1137.5 88.4 1138.1 88.9 1138.4 89.5C1139.1 90.8 1138.9 92.4 1138.8 93.9V94C1138.2 100 1138.2 104.8 1138.8 109C1139 111.5 1140 115.3 1140 115.5Z" fill="white"/>
<path d="M1158 91.4999L1157.3 91.3L1137.4 87.9999C1137.4 87.9999 1135.7 87.4999 1134.9 91.0999L1155.4 94.4999C1155.4 94.4999 1155.8 93.1999 1155.9 92.9999C1156.1 92.4999 1156.5 92.1 1156.9 91.8C1157.2 91.5 1157.6 91.4999 1158 91.4999Z" fill="#F0E8F5"/>
<path d="M1158.8 142.9C1159.2 142.9 1159.4 142.6 1159.4 142.2L1155.7 97.1C1155.7 96.8 1155.4 96.5 1155 96.5C1154.7 96.5 1154.4 96.8 1154.4 97.2L1158.1 142.3C1158.2 142.7 1158.4 142.9 1158.8 142.9Z" fill="#8479C9"/>
<path d="M1148.4 153.4C1148.7 153.4 1149 153.1 1149 152.8L1149.7 124.6C1149.7 124.3 1149.4 124 1149.1 124C1148.8 124 1148.5 124.3 1148.5 124.6L1147.8 152.8C1147.8 153.2 1148.1 153.4 1148.4 153.4Z" fill="#8479C9"/>
<path d="M1128 147C1128.3 147 1128.6 146.8 1128.6 146.5L1133.1 121.2C1133.2 120.9 1132.9 120.5 1132.6 120.5C1132.3 120.4 1131.9 120.7 1131.9 121L1127.4 146.3C1127.3 146.6 1127.6 147 1127.9 147C1127.9 147 1127.9 147 1128 147Z" fill="#8479C9"/>
<path d="M1155.3 94.4001L1151 125.1L1130 120.6L1134.8 90.9001L1155.3 94.4001Z" fill="#F0E8F5"/>
<path d="M1155.3 94.4C1155.5 93.3 1156.1 91.8 1157.2 91.5C1158.2 91.2 1159.1 92 1159.5 92.8C1160.3 94.3 1160.1 96.1 1160 97.6V97.7C1159.5 103.7 1159.4 108.4 1160 112.6C1160.3 114.8 1161.2 118.5 1161.2 118.6L1160.5 118.9C1160.5 118.7 1159.5 114.9 1159.3 112.7C1158.8 108.5 1158.8 103.7 1159.3 97.7V97.6C1159.4 96.1 1159.6 94.5 1158.9 93.2C1158.6 92.6 1158 92.1 1157.4 92.3C1155.8 92.8 1155.8 96.2 1155.6 97.6C1155.3 100 1154.9 102.4 1154.6 104.8C1154.2 107.8 1153.7 110.7 1153.3 113.7C1152.9 116.2 1152.6 118.8 1152.2 121.3C1152 122.5 1151.9 123.2 1151.8 124.4L1151.7 124.9L1151 125.2C1151.1 124.2 1151.3 123.2 1151.4 122.3C1151.7 119.9 1152.1 117.6 1152.4 115.2C1152.8 112.3 1153.2 109.4 1153.6 106.5C1154 103.9 1154.3 101.4 1154.7 98.8C1154.9 97.4 1155 96.1 1155.3 94.7C1155.3 94.6 1155.3 94.5 1155.3 94.4Z" fill="#8479C9"/>
<path d="M1089.5 93.9001C1089.5 97.9001 1093.9 101.1 1099.4 101.1C1102.8 101.1 1105.8 99.8001 1107.6 97.9001C1107.9 97.5001 1111.3 97.4001 1111 97.1001C1110.3 96.6001 1109 95.8001 1109.1 95.3001C1109.2 94.8001 1109.3 94.3001 1109.3 93.8001C1109.3 89.8001 1104.9 86.6001 1099.4 86.6001C1094 86.7001 1089.5 89.9001 1089.5 93.9001Z" fill="#E4DAEA"/>
<path d="M1116 90.4002C1115.5 92.3002 1114.8 96.6002 1115.5 97.3002H1119.9C1121.5 97.1002 1122.8 95.8002 1122.8 94.1002V90.9002C1122.8 89.1002 1121.4 87.7002 1119.6 87.7002H1119.3C1117.5 87.7002 1116.2 88.9002 1116 90.4002Z" fill="#2F1A70"/>
<path d="M1121 93.5002C1121.7 92.7002 1122.2 91.7001 1122.1 90.6001C1121.9 87.4001 1117.4 88.1002 1116.5 89.7002C1115.6 91.3002 1115.7 95.4001 1116.9 95.7001C1117.3 95.8001 1118.3 95.5002 1119.3 94.9002L1118.7 99.2001H1122.3L1121 93.5002Z" fill="#E4DAEA"/>
<path d="M1120 92.9003C1119.8 94.7003 1119.9 96.7003 1120.4 97.2003H1124.8C1125 93.0003 1122.7 94.6003 1122.7 90.6003C1122.6 90.5003 1122.4 90.3003 1122.3 90.2003V90.1003C1121.5 88.6003 1120.6 87.8003 1119.4 87.8003C1117.7 87.8003 1117.1 88.6003 1116.6 89.3003C1116.9 90.5003 1118.3 90.7003 1119.5 91.4003C1119.6 91.3003 1119.8 91.2003 1120 91.2003C1120.5 91.2003 1120.8 91.6003 1120.8 92.0003C1120.8 92.4003 1120.5 92.9003 1120 92.9003C1120 92.9003 1120.1 92.9003 1120 92.9003Z" fill="#2F1A70"/>
<path d="M1124.6 146.1C1124.7 146 1124.9 145.9 1125 146C1125.4 146.2 1125.7 146.3 1125.9 146.4C1126.2 146.4 1126.5 146.4 1127 146.3L1127.3 145.8C1127.3 145.7 1127.4 145.7 1127.5 145.8L1131.2 147.9C1131.5 148 1131.9 148.1 1132.4 148.2C1132.9 148.3 1132.9 148.7 1132.6 149.3C1127.3 148.6 1124.5 148.2 1124.2 148.2C1124.2 147.7 1124.2 147.3 1124.2 147.1C1124.2 146.8 1124.3 146.5 1124.6 146.1Z" fill="#8479C9"/>
<path d="M1117.7 131C1117.7 130.9 1117.7 130.9 1117.7 130.8C1117.6 129.5 1114.2 115.1 1114.2 112.7L1115.9 113.2L1124.2 114.3C1124.5 116.1 1125.5 127.6 1125.6 129.8C1126.3 133.4 1127 145.1 1127.2 145.9C1127.4 146.8 1125.5 147.4 1125.1 146.3C1124.6 144.6 1123.4 139.9 1123 137.1C1122.6 134.4 1122.3 132.1 1122.2 130.7C1122.2 130.6 1122.2 130.6 1122.1 130.5C1122 130.3 1121.8 129.6 1121.4 128.7C1121.3 129.5 1121.2 130.2 1121.2 130.6C1121.2 134.3 1120 145.9 1120 146.7C1120.1 147.6 1118 147.9 1117.9 146.8C1117.7 145 1117.3 140.2 1117.4 137.4C1117.5 134.7 1117.6 132.3 1117.7 131Z" fill="#F0E8F5"/>
<path d="M1117.5 146.5C1117.6 146.4 1117.8 146.4 1117.9 146.5C1118.2 146.8 1118.5 146.9 1118.7 147C1119 147.1 1119.3 147.1 1119.8 147L1120.2 146.5C1120.3 146.4 1120.3 146.4 1120.4 146.5L1123.7 149.2C1124 149.3 1124.3 149.5 1124.8 149.7C1125.2 149.9 1125.2 150.3 1124.8 150.9C1119.7 149.4 1117 148.6 1116.7 148.6C1116.8 148.1 1116.8 147.7 1116.9 147.5C1117 147.1 1117.2 146.9 1117.5 146.5Z" fill="#8479C9"/>
<path d="M1114.5 111.9C1117.9 110.9 1121.1 110.9 1124.1 111.9C1125.1 116.7 1127.7 118.6 1128.1 125.8V125.9C1127.9 126 1127.7 126.1 1127.5 126.1C1125.4 127.4 1123.2 128 1120.8 128C1118.2 128 1115.1 127.5 1111.5 126.5C1111.6 126.4 1111.7 126.4 1111.8 126.3C1111.7 126.4 1111.5 126.4 1111.4 126.4C1110 123.1 1112.1 114.8 1114.5 111.9Z" fill="#6753A5"/>
<path d="M1129 105.9L1134.9 105.1C1136.1 104.4 1137.2 104 1138.2 103.8C1138.5 103.8 1138.9 103.9 1138.3 104.4C1137.6 105 1137 105.6 1137.1 105.9C1137.2 106.2 1137.8 106.1 1137.9 106.5C1138 106.8 1137 106.9 1134.9 106.6L1130.1 108.5L1129 105.9ZM1110.4 107.3H1113.7C1110.1 115.4 1108.2 119.7 1108.1 120.1C1107.8 121 1108.5 122.3 1108.8 123C1107.8 123.5 1107.9 121.8 1106.6 122.4C1105.4 122.9 1104.5 123.9 1103.2 123.1C1103 123 1102.8 122.6 1103.3 122.3C1104.4 121.5 1106 120.2 1106.2 119.8C1106.4 119.1 1107.8 115 1110.4 107.3Z" fill="#E4DAEA"/>
<path d="M1117.9 96.1001H1118.2L1122.1 97.0001C1122.1 97.2001 1122.1 97.3001 1122.1 97.5001C1122.9 103 1126.3 106.4 1133.9 105.2L1134.9 112.6C1131.1 113.1 1127.5 112.5 1124.7 110.7C1124.9 111.5 1125.1 112.2 1125.3 113H1116.9H1114.8C1114.7 114.7 1114.6 116.5 1114.5 118.3H1106.6C1108.4 108.7 1112.1 101.3 1117.9 96.1001Z" fill="#ADA8D4"/>
<path d="M983.8 133.9H995.5L997 152.6H979.7L983.8 133.9Z" fill="#F0E8F5"/>
<path d="M983.8 133.9H987.4L989.6 152.6H979.7L983.8 133.9Z" fill="#F0E8F5" fill-opacity="0.1"/>
<path d="M1014.3 151.8C1011.1 147.9 1009 145.1 1007.9 143.2C1006 140 1004.4 137.2 1003.9 136.1C1002.7 133.5 1006.6 132.3 1007.5 133.5C1008.8 135.3 1011.7 141.1 1016 150.7L1014.3 151.8Z" fill="#493A87"/>
<path d="M1012.9 151.3C1012.7 151.8 1012.6 152.1 1012.6 152.4C1012.6 152.7 1012.6 153.1 1012.7 153.7C1013 153.7 1016 153.7 1021.7 153.7C1021.9 152.9 1021.8 152.5 1021.3 152.4C1020.8 152.3 1020.4 152.3 1020 152.2L1015.8 150.3C1015.7 150.3 1015.6 150.3 1015.6 150.4L1015.3 151.1C1014.8 151.3 1014.5 151.4 1014.2 151.4C1014 151.4 1013.6 151.3 1013.2 151.1C1013.2 151 1013 151.1 1012.9 151.3C1012.9 151.3 1012.9 151.2 1012.9 151.3Z" fill="#E4E4E4"/>
<path d="M984.7 126.1H993.4C994.6 126.4 999.4 128.5 1007.8 132.3C1008.8 132.8 1009 134 1009 135C1011.4 139.3 1014.8 147 1015.3 147.7L1007.7 150.8L1004.6 143.1C1003.6 144.8 1002.4 146.9 1001 149.3L996.6 146.5C996 147 995.5 147.4 995.1 147.8L995.2 147.7C995.3 147.6 995.4 147.7 995.4 147.7L998.1 151.4C998.4 151.6 998.7 151.9 999.1 152.2C999.5 152.5 999.4 152.9 998.8 153.5C993.9 150.7 991.3 149.2 991 149C991.2 148.5 991.4 148.1 991.5 147.8C991.6 147.6 991.9 147.3 992.3 147C992.4 146.9 992.5 146.9 992.6 147C993 146.4 993.5 145.7 994.1 144.9L993.8 144.7L999.6 137.2C999.8 136.9 999.7 136.7 999.6 136.7C994.7 135.9 991.5 135.4 989.8 135.1C985.3 134.2 983.9 131.7 984.7 126.1Z" fill="#6D61AA"/>
<path d="M989.5 106.7C988.8 105.8 988.3 104.8 988.3 103.6C988.5 100.2 993.3 100.9 994.2 102.7C995.1 104.4 995 108.8 993.8 109.1C993.3 109.2 992.3 108.9 991.3 108.3L991.9 112.9H988.1L989.5 106.7Z" fill="#493A87"/>
<path d="M989.2 107.4C988.7 105.3 987.3 103.8 987.6 102.8C987.7 102.2 988.1 101.8 988.7 101.6C989 100.3 990 99.8001 991.7 100C994.3 100.3 995.8 101.3 995.1 103.7C994.5 103.7 993.7 103.5 992.7 103.9C992.4 104 992.1 104.4 992 105H991.5C991 104.2 990.6 104 990.2 104.2C989.8 104.4 989.7 104.9 989.9 105.7L989.7 107.5H989.2V107.4Z" fill="#8479C9"/>
<path d="M999.3 126.8L1004.4 128.9C1005.8 130.6 1006.6 131.3 1006.8 131C1007.1 130.6 1006.5 130.2 1006.6 129.9C1006.7 129.6 1007.7 129.6 1008.6 129.7C1009.5 129.8 1009.2 129.4 1009 129.2C1008.1 128.6 1006.9 128.2 1005.5 127.8L1000.4 124.1L999.3 126.8ZM978.8 134.4C978.6 134.9 976.9 136.3 975.7 137.1C975.2 137.4 975.4 137.8 975.6 137.9C977.1 138.8 978 137.7 979.3 137.2C980.7 136.6 980.6 138.4 981.7 137.9C981.4 137.1 980.6 135.8 981 134.8C981.2 134.4 982.3 130.9 984.3 124.2H981C979.8 130.4 979.1 133.8 978.8 134.4Z" fill="#915B3C"/>
<path d="M985.1 125.4C985.4 127.9 985.9 129.8 986.6 130.9H983C983.7 129.3 984.4 127.5 985.1 125.4Z" fill="#EA931F"/>
<path d="M990.4 110.2L991.8 110C996.9 114.4 999 122.9 1005.3 127.5L1003.8 129.4C992.9 127.9 990.1 117.5 990.4 110.2Z" fill="#2F1A70"/>
<path d="M984.3 127.5C989.8 127.5 993.9 127.5 996.5 127.5C997.1 127.5 997 126.7 996.9 126.3C996 121.6 992.3 116.5 992.3 109.8L988.8 109.2C985.9 114 984.9 119.8 984.3 127.5Z" fill="#DDE3E9"/>
<path d="M984.4 113.9C983.9 113.8 983.5 113.4 983.2 112.9C981.9 110.6 982.4 109.3 983.8 108.9C985.2 108.5 986.4 109.3 988.6 109.3C988.7 109.3 988.8 109.3 988.9 109.3L990 109.4C993.2 120.1 994 127.3 992.6 130.9H983C982.4 132.2 981.9 133.3 981.4 134.3H978.8C978.5 126.3 980.4 119.5 984.4 113.9Z" fill="#3E2884"/>
<path d="M1242.5 106.2C1242.5 109.2 1240.4 111.8 1237.2 113.4C1236.5 113.8 1236.9 116.1 1236.8 116.4C1236.7 116.8 1233.9 114.6 1233.5 114.7C1232.2 115 1230.9 115.1 1229.5 115.1C1222.3 115.1 1216.4 111.1 1216.4 106.1C1216.4 101.1 1222.3 97.1001 1229.5 97.1001C1236.6 97.2001 1242.5 101.3 1242.5 106.2Z" fill="#E4DAEA"/>
<path d="M1256.6 146H1244.6L1243 165.3H1260.9L1256.6 146Z" fill="#F0E8F5"/>
<path d="M1246.2 127.6H1242.7L1243.3 123.4C1242.4 124 1241.4 124.2 1241 124.1C1239.9 123.8 1239.8 119.8 1240.7 118.2C1241.6 116.6 1245.9 115.9 1246.1 119.1C1246.2 120.2 1245.7 121.2 1245 122L1246.2 127.6Z" fill="#8479C9"/>
<path d="M1240.6 117.4C1240.4 117.8 1240.5 118.4 1241.3 118.3C1242.1 119.3 1243.3 119.9 1243.4 119.9C1243.4 119.9 1243.9 119.2 1244.4 119.5C1245 119.8 1244.9 120.5 1244.6 121C1244.4 121.3 1244.2 121.6 1244.6 121.9C1245.2 122.4 1246.9 121.3 1247.2 120.4C1247.7 118.7 1247 116.5 1245.2 116.2C1245.3 115.9 1245.7 115.8 1246 115.7C1246.7 115.6 1247.5 115.7 1248.2 115.9C1249.1 116.1 1249.9 116.4 1250.8 116.4C1251.3 116.4 1251.7 116.3 1252.1 116.2C1252.5 116 1252.9 115.8 1253.3 115.5C1253.7 115.3 1254.1 115.3 1254.5 115.4C1254.9 115.5 1255.3 115.7 1255.7 115.9C1256.5 116.3 1257.3 116.9 1258.2 117.2C1258.9 117.4 1259.6 117.6 1260.3 117.6C1261.5 117.6 1263 117.4 1263.8 116.3C1264.3 115.6 1264.3 114.7 1264 113.9C1263.7 113.2 1263.1 112.6 1262.5 112.2C1261.8 111.7 1261 111.4 1260.2 111.3C1259.3 111.2 1258.4 111.5 1257.6 112C1256.8 112.5 1256.2 112.9 1255.3 113.1C1254.4 113.2 1253.5 113.1 1252.7 112.8C1251.8 112.5 1251 112.2 1250 112.1C1249.1 112 1248.2 112.1 1247.4 112.5C1246.7 112.8 1246.1 113.4 1245.7 114.1C1245.5 114.5 1245.3 114.9 1245.2 115.3C1245.2 115.4 1245.1 115.6 1245.1 115.7C1245.1 115.8 1245.1 116 1245 116.1C1244.9 116.2 1244.8 116.2 1244.6 116.2C1244.4 116.2 1243.1 116.3 1242.7 116.3C1241.9 116.5 1240.7 117 1240.6 117.4Z" fill="#3E2884"/>
<path d="M1224.5 163.1C1224.7 161.9 1224.9 160.7 1225.1 159.6H1224.8C1225.2 158.7 1226.2 146.7 1228 144.2C1228.2 143.6 1232.2 142.3 1240.1 140.2C1240.7 140 1241.1 139.8 1241.4 139.7H1241.9H1243H1249.4C1250.1 144.8 1248.9 147.1 1244.5 147.9C1243.8 148 1243 148.2 1242.2 148.3L1245 149.3V149.4C1245.9 149.7 1246.7 150 1247.3 150.2C1247.4 150.1 1247.4 150.1 1247.5 150.1C1248 150.1 1248.3 150.2 1248.5 150.3C1248.7 150.4 1249.1 150.6 1249.5 150.9C1249.4 151.2 1248.2 153.7 1245.9 158.3C1245.2 158.2 1244.9 157.9 1245 157.5C1245.2 157.1 1245.3 156.7 1245.4 156.4L1245.5 152.2C1245.5 152.1 1245.6 152.1 1245.7 152.1H1245.8C1245.3 152 1244.8 152 1244.2 151.9V152C1242.6 151.6 1238.3 152.6 1232.6 151.1C1231.3 154.2 1229.1 156.8 1228.3 160L1227.9 159.9C1227.4 161 1226.9 162.2 1226.4 163.5L1224.5 163.1Z" fill="#6753A5"/>
<path d="M1227.1 162.8C1227 162.7 1226.9 162.6 1226.7 162.7C1226.3 162.9 1226 163 1225.8 163C1225.5 163 1225.2 162.9 1224.8 162.7L1224.6 162.1C1224.6 162 1224.5 162 1224.4 162L1220.6 163.7C1220.3 163.7 1219.9 163.8 1219.4 163.9C1218.9 164 1218.8 164.3 1219 165.1C1224.2 165.1 1227 165.1 1227.3 165.1C1227.4 164.6 1227.4 164.2 1227.4 163.9C1227.4 163.6 1227.3 163.3 1227.1 162.8Z" fill="#E4E4E4"/>
<path d="M1233.8 135.7L1228.5 133.4C1227.6 132.5 1226.7 131.8 1225.8 131.3C1225.5 131.2 1225.1 131.2 1225.6 131.9C1226.1 132.6 1226.5 133.3 1226.3 133.6C1226.1 133.8 1225.6 133.6 1225.3 134C1225.2 134.3 1226.1 134.6 1228.1 134.9L1232.1 138L1233.8 135.7ZM1255.3 136.4L1252.3 137C1255.3 142.6 1256.9 145.6 1257.2 146C1257.7 146.8 1257.2 148.2 1257.1 148.9C1258.2 149.1 1257.7 147.5 1259.1 147.9C1260.3 148.2 1261.4 149 1262.5 147.9C1262.6 147.8 1262.7 147.4 1262.3 147.2C1261.1 146.7 1259.3 145.7 1259 145.3C1258.6 144.7 1257.4 141.7 1255.3 136.4Z" fill="#6D61AA"/>
<path d="M1239.8 139.8C1237.5 141.2 1231.8 138.8 1229.2 135.9L1230.1 133.9C1233 135 1235.5 135.7 1237.2 134.9C1239 134 1240.2 127.6 1242.9 124.9L1244.2 125.1C1244.3 129.6 1243.4 137.6 1239.8 139.8Z" fill="#6753A5"/>
<path d="M1245.5 124.3L1242.3 124.8C1242.3 130.9 1239 135.6 1238.1 139.9C1238 140.3 1237.9 141 1238.4 141C1240.8 141 1244.5 141 1249.6 141C1249.2 133.9 1248.2 128.6 1245.5 124.3Z" fill="#DDE3E9"/>
<path d="M1252.2 144.1H1242.1C1240.8 140.8 1241.6 134.2 1244.5 124.3H1245.7C1253 128.8 1257.4 135.7 1258.9 145.1L1256.5 145.6C1254.9 143.8 1253 140.8 1250.7 136.7C1251.5 139.2 1252 141.7 1252.2 144.1Z" fill="#6753A5"/>
<path d="M1254.4 168.4C1254.5 167.6 1254.8 166.9 1255 166.1C1255.1 165 1255 163.9 1255.1 162.8C1255.1 162.1 1255.3 161.3 1255.7 160.7C1256 160.3 1256.3 160 1256.7 159.7C1257 159.5 1257.4 159.3 1257.8 159.2C1258.5 158.8 1259.8 158.5 1260.6 158.3C1260.5 158.6 1260.1 159 1259.9 159.4C1259.8 159.5 1259.9 159.8 1259.5 159.7C1259.4 159.8 1259.1 159.8 1259 159.8C1258.8 159.8 1258.6 159.8 1258.4 159.9C1257.4 160 1256.6 161.1 1256.5 162.2C1256.4 163.2 1256.7 164.2 1256.8 165.1C1256.9 165.6 1256.8 166 1256.9 166.5C1256.9 166.6 1256.9 166.8 1256.9 166.9C1256.9 167.1 1256.8 167.3 1256.8 167.6C1256.7 168.6 1256.7 169.6 1257.5 170.4C1256.9 170.4 1256.3 170.2 1255.6 170C1254.6 169.9 1254.3 169.4 1254.4 168.4Z" fill="#E4DAEA"/>
<path d="M1261.7 158.2C1264.2 158.2 1266.8 158.1 1269.2 158.2C1269.4 158.6 1269.5 159 1269.5 159.5C1269.5 159.6 1269.5 159.8 1269.3 159.8C1268.3 159.9 1267.3 160 1266.3 160.1C1264.9 160.2 1263.5 160 1262.1 159.9C1261.5 159.9 1261.4 159.8 1261.5 159.2C1261.6 158.8 1261.5 158.5 1261.7 158.2Z" fill="#E4DAEA"/>
<path d="M1274.8 160C1275.6 160.7 1276 161.7 1276 162.7C1276.1 163.8 1275.9 165 1276.1 166.1C1276.2 166.3 1276.2 166.6 1276.3 166.8C1276.5 167.4 1276.7 168 1276.7 168.7C1276.7 169.4 1276.5 169.9 1275.9 170.1C1275.1 170.3 1274.4 170.5 1273.6 170.6C1274 170.1 1274.2 169.6 1274.3 169.1C1274.4 168.5 1274.2 167.9 1274.2 167.3C1274.2 167.2 1274.2 167.2 1274.1 167.1C1273.9 165.9 1274.2 164.7 1274.4 163.5C1274.5 162.6 1274.5 161.7 1273.9 160.9C1273.5 160.3 1273 160.1 1272.2 160C1271.6 159.8 1271.6 159.9 1271.3 159.8C1271.2 159.8 1271.1 159.7 1271 159.6C1270.9 159.2 1270.5 158.8 1270.4 158.4C1271.2 158.5 1272.2 158.8 1272.9 159.2C1273.7 159.3 1274.3 159.5 1274.8 160Z" fill="#E4DAEA"/>
<path d="M1256.9 167.7C1256.8 168.7 1256.8 169.7 1257.6 170.5C1258.2 170.9 1258.9 170.9 1259.6 170.9C1262.5 170.8 1265.4 170.7 1268.3 170.8C1269.5 170.8 1270.7 170.8 1271.9 171C1272.5 171.1 1273.1 170.9 1273.6 170.6C1274 170.1 1274.2 169.6 1274.3 169.1C1274.4 168.5 1274.2 167.9 1274.2 167.3C1274.2 167.2 1274.2 167.2 1274.1 167.1C1273.9 165.9 1274.2 164.7 1274.4 163.5C1274.5 162.6 1274.5 161.7 1273.9 160.9C1273.7 160.6 1273.4 160.4 1273.1 160.2C1273.1 160.2 1272.1 159.8 1271.4 159.8C1271.3 159.8 1271.2 159.7 1271.1 159.6C1270.9 159 1270.6 158.5 1270.3 157.9C1270 157.4 1269.6 156.9 1269.3 156.3C1269.1 156 1268.9 155.7 1268.7 155.4C1268.6 155.3 1268.5 155.1 1268.4 155C1268.3 154.9 1268.2 154.6 1268.1 154.6C1268.2 154.1 1268.1 153.9 1267.7 153.6C1267.3 153.4 1266.8 153.3 1266.3 153.3C1265.4 153.3 1264.5 153.2 1263.6 153.6C1263.1 153.8 1262.9 154.1 1263.1 154.6C1261.9 156.1 1260.8 157.7 1260 159.5C1259.9 159.6 1259.9 159.8 1259.7 159.8C1259.3 159.8 1259.2 159.7 1258.4 160C1257.3 160.4 1256.7 161.3 1256.6 162.4C1256.5 163.4 1256.8 164.4 1256.9 165.3C1257 165.8 1256.9 166.2 1257 166.7C1257.1 166.8 1257.2 166.8 1257.3 166.9C1257.2 166.8 1257.1 166.8 1257 166.7V167.1C1256.9 167.2 1256.9 167.4 1256.9 167.7ZM1269.4 159.9C1268.4 160 1267.4 160.1 1266.4 160.2C1265 160.3 1263.6 160.1 1262.2 160C1261.6 160 1261.5 159.9 1261.6 159.3C1261.7 158.7 1261.9 158.1 1262.2 157.5C1262.6 156.7 1263.1 155.9 1263.6 155.1C1264.7 154.5 1265.9 154.3 1267.1 154.9C1267.2 155 1267.3 155 1267.5 155C1267.8 155.5 1268.1 156 1268.4 156.5C1269 157.5 1269.5 158.5 1269.6 159.6C1269.6 159.7 1269.6 159.8 1269.4 159.9ZM1265.4 169.1C1266.2 169.1 1267 169.1 1267.7 169C1266.9 169 1266.1 169.1 1265.4 169.1Z" fill="#8479C9"/>
<path d="M1216.2 152.9H1224.6H1228.2L1232.5 172.1H1222.3H1214.7L1216.2 152.9Z" fill="#F0E8F5"/>
<path d="M1203.5 148.2C1204.2 149.3 1205.9 152.5 1207.6 156.3C1208.6 158.5 1210 162.2 1211.6 167.5L1209.5 168.4C1205.8 162.5 1203.1 157.9 1201.3 154.6C1201.4 155.6 1201.5 156.6 1201.6 157.6C1201.9 161.2 1201.6 169 1201.4 171.3C1201.3 172.7 1199.4 172.3 1199.2 171.2C1199 170.1 1195.6 152.2 1195.6 148.4C1195.6 147 1198.8 145.8 1200.1 147.6C1201 146.9 1202.5 146.7 1203.5 148.2Z" fill="#F0E8F5"/>
<path d="M1206.8 166.2C1206.4 165.1 1199.8 153.6 1198.5 150C1197.9 148.4 1202.7 145.2 1204.3 147.9L1211.3 164.6L1206.8 166.2Z" fill="#ADA8D4"/>
<path d="M1197.6 146.7C1200.4 146.3 1206.2 145.6 1215.1 144.5H1225.5C1225.3 150.7 1223.1 154 1217.8 153.8C1214.1 153.7 1201.7 151.8 1201.4 151.9C1201.3 152 1201.6 156.8 1202.5 166.5L1197.5 166.7C1197.5 165.7 1195.4 154.6 1195.4 149.8C1195.3 148.5 1195.8 146.9 1197.6 146.7Z" fill="#C0B9DB"/>
<path d="M1201.9 171.6C1201.8 171.4 1201.6 171.3 1201.4 171.4C1200.9 171.6 1200.6 171.7 1200.3 171.7C1200 171.7 1199.6 171.6 1199 171.3L1198.7 170.6C1198.7 170.5 1198.6 170.5 1198.5 170.5L1193.8 172.6C1193.4 172.7 1193 172.7 1192.4 172.8C1191.8 172.9 1191.7 173.3 1191.9 174.2C1198.2 174.2 1201.6 174.2 1201.9 174.2C1202 173.6 1202.1 173.1 1202.1 172.8C1202.2 172.6 1202.1 172.2 1201.9 171.6Z" fill="#8479C9"/>
<path d="M1211.8 166.6C1211.6 166.5 1211.4 166.6 1211.3 166.8C1211.1 167.3 1210.8 167.6 1210.6 167.7C1210.3 167.9 1209.9 168.1 1209.4 168.2L1208.7 167.8C1208.6 167.8 1208.5 167.8 1208.5 167.9L1206.1 172.4C1205.8 172.7 1205.5 173 1205.1 173.4C1204.7 173.8 1204.9 174.3 1205.6 174.8C1210.6 170.9 1213.2 168.8 1213.5 168.6C1213.2 168.1 1213 167.7 1212.8 167.4C1212.7 167.2 1212.3 166.9 1211.8 166.6C1211.8 166.6 1211.9 166.6 1211.8 166.6Z" fill="#8479C9"/>
<path d="M1221.2 129.6H1216.9L1217.6 124.5C1216.4 125.2 1215.3 125.5 1214.8 125.4C1213.5 125.1 1213.3 120.2 1214.4 118.3C1215.4 116.4 1220.7 115.5 1221 119.3C1221.1 120.6 1220.5 121.8 1219.7 122.8L1221.2 129.6Z" fill="#F0E8F5"/>
<path d="M1216.2 118.5C1214.3 118.5 1214.1 118.2 1214.1 117.1C1214.4 116.9 1215.5 116.5 1216.7 116.4C1217.3 116.2 1218 116.3 1218.7 116.5C1219.6 116.7 1220.2 117 1220.7 117.9C1221.9 119.9 1220.9 122.3 1219.7 123C1219.4 122.6 1219.1 122.3 1218.9 121.9C1219.1 121.7 1219.2 121.4 1219.2 121.1C1219.2 120.5 1218.7 120 1218.1 120H1218C1217.9 122.1 1217.8 123.4 1217.6 124.1C1217.3 125.1 1215.3 125.4 1214.6 125.4C1213.9 125.4 1214 124.7 1214 124.3C1214 124.1 1214.7 124.4 1214.7 124C1214.7 123.6 1213.8 123.4 1213.6 123.1C1213.4 122.8 1213.3 122.4 1213.6 122.4C1214.1 122.4 1215 123.1 1216 123.1C1216.7 123.1 1217.1 122 1217.3 119.7C1217 119.2 1216.7 118.8 1216.2 118.5Z" fill="#191847"/>
<path d="M1226.9 149.7H1222.9C1223.7 148.4 1224.2 146.4 1224.5 143.6C1225.4 146 1226.2 148 1226.9 149.7Z" fill="black" fill-opacity="0.1"/>
<path d="M1207.5 142.1L1201.8 146.3C1200.3 146.7 1199 147.2 1197.9 147.9C1197.7 148.1 1197.4 148.6 1198.4 148.5C1199.4 148.4 1200.5 148.4 1200.6 148.7C1200.7 149 1200.1 149.5 1200.4 149.9C1200.6 150.2 1201.5 149.4 1203.1 147.6L1208.7 145.3L1207.5 142.1ZM1229.3 142.3H1225.6C1227.9 149.7 1229.1 153.7 1229.3 154.1C1229.7 155.1 1228.8 156.7 1228.5 157.5C1229.7 158 1229.6 156 1231.1 156.7C1232.5 157.4 1233.6 158.5 1235.2 157.5C1235.4 157.4 1235.6 156.9 1235.1 156.6C1233.8 155.7 1231.9 154.1 1231.6 153.6C1231.3 152.9 1230.5 149.1 1229.3 142.3Z" fill="#F0E8F5"/>
<path d="M1203.8 147.9L1202.1 145.8C1209.1 140.8 1211.4 131.3 1217.2 126.4L1218.7 126.7C1219 134.9 1216 146.4 1203.8 147.9Z" fill="#6D61AA"/>
<path d="M1220.4 125.7L1216.5 126.3C1216.5 133.8 1212.4 139.4 1211.4 144.6C1211.3 145.1 1211.2 146 1211.8 146C1214.7 146 1219.2 146 1225.4 146C1224.8 137.4 1223.7 130.9 1220.4 125.7Z" fill="#DDE3E9"/>
<path d="M1231.7 153.5H1228.8C1228.2 152.5 1227.6 151.2 1227 149.8H1216.3C1214.7 145.8 1215.7 137.8 1219.2 125.9L1220.4 125.8C1220.5 125.8 1220.6 125.8 1220.8 125.8C1223.2 125.8 1224.6 124.8 1226.1 125.3C1227.6 125.8 1228.2 127.2 1226.7 129.8C1226.4 130.4 1225.9 130.8 1225.3 130.9C1229.8 137 1231.9 144.6 1231.7 153.5Z" fill="#8479C9"/>
<path d="M953.5 136.6H965.1L966.6 155.3H949.3L953.5 136.6Z" fill="#F0E8F5"/>
<path d="M965.3 130.3C967.1 130.5 976.6 132.4 980.1 133.1C981.6 133.4 982 134.7 982 135.8C982 139.8 980.1 149.1 980.1 150H979.2C979 151.1 978.8 152.1 978.7 152.8L978.9 152.3C978.9 152.2 979 152.2 979.1 152.2L983 154C983.3 154 983.7 154.1 984.2 154.2C984.7 154.3 984.8 154.7 984.6 155.4C979.3 155.4 976.4 155.4 976.1 155.4C976 154.9 976 154.5 976 154.2C976 154 976.1 153.6 976.3 153.2C976.4 153.1 976.5 153 976.6 153C976.6 152.2 976.5 151.2 976.5 150.1H976.1C976.2 148 976.4 146.2 976.5 144.6C976.5 143.8 976.5 143 976.6 142.4C976.6 142.1 976.6 141.9 976.7 141.6C976.7 141 976.8 140.5 976.8 140.1C974.8 143.9 972.4 148.2 972.2 148.8L971.3 148.5C971 148.9 970.8 149.4 970.5 149.8L970.7 149.6C970.8 149.6 970.9 149.6 970.9 149.6L973.4 153.1C973.6 153.3 974 153.5 974.3 153.8C974.7 154.1 974.6 154.5 974 155C969.4 152.3 966.9 150.9 966.7 150.8C966.9 150.3 967 149.9 967.2 149.7C967.3 149.5 967.6 149.3 967.9 149C968 148.9 968.2 148.9 968.3 149.1C968.5 148.6 968.6 148.1 968.8 147.6L968.2 147.4L972.3 137.8C969 138.1 964.7 138.5 962.9 138.5C958.4 138.5 956.5 135.7 956.4 130.4H965.3V130.3Z" fill="#8479C9"/>
<path d="M961.2 112C960.5 111.2 960 110.2 960.1 109.1C960.3 105.9 964.8 106.6 965.7 108.2C966.6 109.8 966.5 113.9 965.3 114.2C964.9 114.3 963.9 114 962.9 113.4L963.5 117.7H960L961.2 112Z" fill="#6D61AA"/>
<path d="M958.6 108C958.5 107.9 958.4 107.7 958.4 107.6C958.3 107.4 958.3 107.3 958.2 107.1C958.1 106.8 958.1 106.4 958.4 106.1C958.6 105.9 958.9 105.8 959.2 105.8C959.4 105.8 959.6 105.8 959.7 105.9C959.9 106 960 106.1 960.2 106.1C960.2 105.7 960.3 105.4 960.5 105C960.7 104.7 961 104.5 961.3 104.5C961.6 104.5 962 104.5 962.3 104.7C962.4 104.7 962.4 104.8 962.5 104.8C962.6 104.8 962.6 104.9 962.7 104.9C962.8 104.9 962.8 104.9 962.9 104.8C963 104.7 963 104.7 963.1 104.6C963.4 104.4 963.8 104.3 964.2 104.4C964.4 104.5 964.5 104.6 964.6 104.7C964.7 104.8 964.8 105 964.9 105.1C965 105.1 965 105.1 965.1 105C965.2 104.9 965.3 104.9 965.3 104.8C965.4 104.7 965.5 104.7 965.7 104.6C965.9 104.6 966.2 104.6 966.2 104.8C966.2 104.9 966.2 105 966.2 105.1C966.2 105.2 966.2 105.4 966.2 105.5C966.2 105.6 966.2 105.7 966.2 105.8C966.2 105.9 966.2 105.9 966.2 106C966.2 106.1 966.4 106 966.4 106C966.5 106 966.6 106 966.7 106.1C966.8 106.1 966.9 106.2 966.9 106.3C966.9 106.4 966.9 106.4 966.9 106.5C966.9 106.6 966.9 106.6 966.9 106.7C967 106.6 967.6 106.5 967.6 106.7C967.6 106.8 967.6 106.9 967.5 107C967.4 107.1 967.4 107.2 967.3 107.4C967.1 107.6 966.9 107.8 966.7 108C967 108.1 967 108.5 966.8 108.7C966.7 108.8 966.6 108.8 966.4 108.8C966.4 108.8 966.3 108.8 966.2 108.8C966.2 108.8 966.2 108.8 966.1 108.8C965.9 108.8 965.7 108.8 965.5 108.7C965.2 108.6 964.9 108.5 964.6 108.2C964.5 108.1 964.5 108.1 964.4 108.1C964.3 108.1 964.3 108.1 964.2 108.1C964 108.1 963.8 108 963.6 107.9C963.6 108.2 963.5 108.4 963.4 108.7C963.3 108.9 963.1 108.9 963 108.9C962.5 109 961.9 108.9 961.4 108.9C961.9 109 962.5 109.1 963 109.2C963.2 109.3 963.1 109.4 963 109.5C962.8 109.7 962.7 109.9 962.6 110.1C962.3 109.8 961.9 109.5 961.5 109.6C961.1 109.7 960.7 110.3 961 110.8C961.2 111.1 961.5 111.2 961.7 111.3C961.5 111.5 961.5 111.8 961.3 112.1C961.2 112.2 961.2 112.4 961 112.4C961 112.4 960.9 112.4 960.9 112.5L960.8 112.6C960.6 112.8 960.2 112.8 960 112.5C959.8 112.3 959.9 112 960 111.8C959.7 111.7 959.3 111.6 959.4 111.2C958.8 111.2 957.5 110.3 958.2 109.6C957.8 109.4 957.4 108.8 957.7 108.3C957.7 108.2 958.2 108.1 958.6 108Z" fill="#191847"/>
<path d="M968.6 123L972.4 119.5C974.4 118.9 975.3 118.5 975.1 118.3C974.8 117.9 974.3 118.2 974.1 118C973.9 117.8 974.3 117 974.7 116.2C975.1 115.5 974.7 115.5 974.4 115.6C973.6 116.2 972.7 117 971.8 118L966.6 120.9L968.6 123ZM975 125.6C976 124.9 976.9 124.4 977.8 124.2C979.4 123.7 980.1 123.4 980.9 122.4C981.3 121.9 981.7 120.8 981.3 120.4C981 120.2 979.4 121.3 978.8 121.5C978.1 121.6 978.7 120.1 978.4 120.2C978 120.2 977.6 120.8 977.2 122L974.9 123.3L975 125.6Z" fill="#6D61AA"/>
<path d="M956.5 124.3C956.5 120.4 959.6 114.5 960.1 114.5H964.3C964.4 116.3 964.9 118.2 965.5 120.2C967.1 120 969 119.5 971 118.2L972 120.5C970.5 122 968.4 123.3 966.5 123.6C966.5 123.7 966.6 123.8 966.6 123.9C968.5 124.4 971.8 123.8 976.4 122.2C977.5 124.5 978.1 126.2 978 127.2C974.1 129.2 970.7 130.2 968 130.2C968.1 131.8 967.9 133.4 967.2 134.8C965.8 137.7 957.7 135 955 135.6C953.3 130.1 956.5 127.9 956.5 124.3Z" fill="#F0E8F5"/>
<path d="M1019.4 100.1C1019.4 103 1021.2 105.5 1024 107.1C1024.6 107.5 1024.2 109.7 1024.3 110C1024.4 110.4 1026.8 108.2 1027.2 108.3C1028.3 108.6 1029.5 108.7 1030.7 108.7C1037 108.7 1042 104.8 1042 100C1042 95.2 1036.9 91.3 1030.7 91.3C1024.5 91.4 1019.4 95.3 1019.4 100.1Z" fill="#E4DAEA"/>
<path d="M1011.8 139.7H1023.4L1025 158.4H1007.7L1011.8 139.7Z" fill="#F0E8F5"/>
<path d="M1013.9 143.6C1014 143.6 1014.1 143.6 1014.2 143.7C1014.8 143.5 1015.7 143.2 1016.6 142.8V142.7L1019.5 141.7C1018.6 141.5 1017.8 141.4 1017.1 141.2C1012.6 140.4 1011.3 138 1012.1 132.8H1018.7H1019.8H1020.3C1020.6 132.9 1021 133 1021.6 133.3C1029.7 135.4 1033.9 136.8 1034.1 137.4C1035.9 139.9 1037.1 152.4 1037.4 153.3H1037.1C1037.2 154.2 1037.4 155.1 1037.6 156L1037.7 155.8C1037.7 155.7 1037.8 155.7 1037.9 155.7L1041.9 157.5C1042.2 157.5 1042.6 157.6 1043.1 157.7C1043.6 157.8 1043.7 158.2 1043.5 158.9C1038.1 158.9 1035.3 158.9 1034.9 158.9C1034.8 158.4 1034.8 158 1034.8 157.7C1034.8 157.5 1034.9 157.1 1035.1 156.7C1035.2 156.5 1035.3 156.5 1035.5 156.6C1035.5 156.6 1035.5 156.6 1035.6 156.6C1035.2 155.6 1034.8 154.7 1034.4 153.8L1034 153.9C1033.1 150.6 1030.9 147.9 1029.5 144.7C1023.7 146.3 1019.2 145.2 1017.5 145.6V145.5C1016.9 145.6 1016.3 145.6 1015.8 145.7H1015.9C1016 145.7 1016.1 145.8 1016.1 145.8L1016.2 150.2C1016.3 150.5 1016.4 150.9 1016.6 151.3C1016.8 151.8 1016.5 152 1015.7 152.2C1013.3 147.4 1012.1 144.8 1011.9 144.5C1012.3 144.2 1012.7 144 1012.9 143.9C1013 143.7 1013.4 143.6 1013.9 143.6Z" fill="#8479C9"/>
<path d="M1016.5 114.4C1015.8 113.6 1015.3 112.6 1015.4 111.4C1015.6 108.2 1020.1 108.9 1021 110.5C1021.9 112.1 1021.8 116.3 1020.6 116.6C1020.1 116.7 1019.2 116.4 1018.2 115.8L1018.8 120.2H1015.2L1016.5 114.4Z" fill="#6D61AA"/>
<path d="M1015.7 108.8C1016.1 108.7 1016.4 108.6 1016.8 108.6C1016.8 108.6 1016.8 108.6 1016.9 108.6H1017C1017.2 108.6 1018.5 108.7 1019 108.7C1019.7 108.8 1020.9 109.4 1021.1 109.8C1021.3 110.2 1021.2 110.8 1020.3 110.7C1019.5 111.7 1018.2 112.4 1018.1 112.4C1018.1 112.4 1017.6 111.7 1017 112C1016.4 112.4 1016.5 113 1016.8 113.5C1017 113.8 1017.2 114.2 1016.8 114.5C1016.1 115 1014.4 113.9 1014.1 113C1013.7 111.5 1014.2 109.5 1015.7 108.8Z" fill="#180B4F"/>
<path d="M1029.7 130.9L1033.8 127.7C1035.9 127.3 1036.8 127 1036.7 126.7C1036.5 126.3 1035.9 126.6 1035.7 126.3C1035.5 126 1036 125.3 1036.5 124.6C1037 123.9 1036.5 123.9 1036.3 124C1035.4 124.5 1034.5 125.2 1033.5 126.2L1028 128.6L1029.7 130.9ZM1002 138.5C1001.7 138.9 999.9 139.9 998.6 140.4C998.1 140.6 998.2 141 998.4 141.2C999.6 142.3 1000.7 141.5 1001.9 141.2C1003.3 140.9 1002.9 142.5 1004 142.3C1003.8 141.5 1003.3 140.1 1003.9 139.3C1004.1 139 1005.8 135.9 1008.9 130L1005.8 129.4C1003.7 134.9 1002.4 138 1002 138.5Z" fill="#6D61AA"/>
<path d="M1017.3 117.7L1018.6 117.5C1021.5 120.3 1022.6 126.9 1024.5 127.8C1026.3 128.6 1028.9 127.8 1031.9 126.7L1032.8 128.8C1030 131.8 1024.2 134.3 1021.8 132.9C1018.1 130.6 1017.2 122.4 1017.3 117.7Z" fill="#5E509B"/>
<path d="M1011.6 134.2C1016.9 134.2 1020.7 134.2 1023.2 134.2C1023.7 134.2 1023.6 133.4 1023.6 133C1022.7 128.5 1019.3 123.7 1019.3 117.4L1016 116.9C1013.1 121.4 1012.1 126.9 1011.6 134.2Z" fill="#DDE3E9"/>
<path d="M1010.4 129.7C1008 134 1006 137 1004.4 138.9L1002 138.4C1003.6 128.7 1008.1 121.5 1015.6 116.9H1016.9C1019.9 127.1 1020.7 134 1019.4 137.4H1009C1009.2 134.9 1009.7 132.3 1010.4 129.7Z" fill="#5E509B"/>
<path d="M924.6 86.7C932.995 86.7 939.8 79.8948 939.8 71.5C939.8 63.1053 932.995 56.3 924.6 56.3C916.205 56.3 909.4 63.1053 909.4 71.5C909.4 79.8948 916.205 86.7 924.6 86.7Z" fill="white" stroke="#FCAD4F" stroke-width="4" stroke-miterlimit="10"/>
<path d="M922.1 62.8H927.7V69.5H933.8V74.6H927.7V81.5H922.1V74.6H916.1V69.5H922.1V62.8Z" fill="#2F1A70"/>
<path d="M1101.3 242.2L1079.3 297.8L1064.6 344.8H1058.8L1081.3 242.2H1101.3Z" fill="#997659"/>
<path d="M1105.7 242.2C1105.9 261.7 1109.3 288 1109.9 289.2C1110.3 290 1122.8 300.3 1147.5 320.2L1143.5 324.5C1114.3 307.5 1099.1 297.9 1097.7 295.6C1095.7 292.2 1089.1 260.9 1083.8 242.2H1105.7V242.2Z" fill="#B28B67"/>
<path d="M1148.02 318.774C1149.33 319.244 1150.28 319.753 1150.82 320.084C1151.41 320.632 1152.25 321.487 1153.22 322.636C1152.66 323.368 1147.2 329.776 1137.05 341.948C1135 341.059 1134.3 340.075 1135.05 338.792C1135.8 337.509 1136.45 336.572 1136.95 335.764L1140.57 323.588C1140.66 323.383 1140.89 323.19 1141.1 323.279L1143.03 323.874C1144.36 323.281 1145.27 322.65 1145.75 321.983C1146.22 321.456 1146.58 320.636 1146.91 319.316C1147.01 318.97 1147.53 318.661 1148.02 318.774Z" fill="#E4E4E4"/>
<path d="M1067 342.6C1067.5 343.9 1067.8 344.9 1067.8 345.6C1067.8 346.4 1067.7 347.6 1067.4 349.1C1066.5 349.1 1058.1 349.1 1042.2 349.1C1041.5 346.9 1041.9 345.8 1043.3 345.6C1044.7 345.4 1045.9 345.3 1046.8 345.1L1058.5 339.9C1058.7 339.8 1059 339.9 1059.1 340.1L1059.9 341.9C1061.2 342.5 1062.3 342.8 1063.1 342.8C1063.8 342.8 1064.7 342.5 1065.9 342C1066.2 341.9 1066.8 342.1 1067 342.6Z" fill="#E4E4E4"/>
<path d="M1086.5 340L1058.9 337L1079.4 242.2H1104.1L1086.5 340Z" fill="#680436"/>
<path d="M1141.8 313.3L1123.7 334.8C1104.6 313.9 1093.5 300.3 1090.3 294C1087.1 287.6 1084.3 270.4 1081.7 242.3H1109.6C1111 267 1111.9 280 1112.4 281.1C1112.9 282.2 1122.7 293 1141.8 313.3Z" fill="#84033E"/>
<path d="M1098.5 179.7C1101.1 177.9 1103.2 175.3 1103.8 172C1105.5 162.6 1092.1 161.3 1088.4 165.4C1084.7 169.5 1082 181.4 1085 183.1C1086.2 183.8 1089.2 183.6 1092.4 182.7L1087.5 194.7L1097.9 197.3L1098.5 179.7Z" fill="#F9C59B"/>
<path d="M1085.3 157.8C1085.7 157.1 1086.5 156.6 1087.3 156.6C1087.5 156.6 1087.7 156.6 1087.9 156.7C1088 156.7 1088 156.7 1088 156.7C1088 156.7 1088.1 156.6 1088.1 156.5C1088.2 156.4 1088.2 156.3 1088.3 156.1C1088.6 155.7 1088.9 155.4 1089.4 155.2C1090.2 154.7 1091.1 154.5 1092 154.7C1092.5 154.8 1092.9 155 1093.4 155.2C1093.6 155.3 1093.8 155.5 1094 155.7C1094.1 155.7 1094.2 156 1094.3 156C1094.4 156 1094.6 155.9 1094.6 155.8C1095.5 155.4 1096.4 155.4 1097.4 155.7C1098.4 156 1099.4 156.3 1100.1 157.1C1100.2 157.3 1100.4 157.5 1100.5 157.7C1100.6 157.8 1100.6 157.9 1100.7 158C1100.7 158.1 1100.8 158.1 1100.8 158.2C1100.9 158.3 1100.8 158.3 1101 158.3C1101.5 158.2 1102 158.2 1102.5 158.3C1102.8 158.4 1103 158.6 1103.3 158.7C1103.4 158.8 1103.6 159 1103.6 159C1103.7 159 1103.9 158.9 1104 158.9C1104.6 158.8 1105.2 158.9 1105.7 159.2C1106.3 159.4 1106.8 159.8 1107.2 160.3C1107.4 160.5 1107.6 160.7 1107.7 161C1107.7 161.1 1107.8 161.2 1107.8 161.3C1107.8 161.4 1107.9 161.4 1107.9 161.5C1107.9 161.5 1108.6 161.4 1108.7 161.4C1109 161.4 1109.4 161.5 1109.7 161.7C1110.3 162 1110.7 162.6 1111 163.2C1111.2 163.5 1111.3 163.8 1111.4 164.1C1111.4 164.3 1111.5 164.4 1111.5 164.6C1111.5 164.7 1111.5 164.8 1111.5 164.8C1111.5 164.9 1111.6 164.9 1111.7 165C1112.1 165.3 1112.5 165.7 1112.8 166.2C1113 166.7 1113.1 167.2 1113.1 167.8V168C1113.1 168 1113.2 168 1113.3 168.1C1113.4 168.1 1113.5 168.2 1113.7 168.3C1113.9 168.4 1114.1 168.6 1114.3 168.7C1115 169.3 1115.4 170.3 1115.5 171.2C1115.6 172.2 1115.3 173.2 1114.7 174.1C1114.6 174.2 1114.5 174.4 1114.4 174.5C1114.3 174.6 1114.3 174.6 1114.3 174.7C1114.3 174.8 1114.4 174.9 1114.4 175C1114.5 175.3 1114.5 175.7 1114.5 176C1114.5 176.6 1114.4 177.2 1114.1 177.7C1114 177.9 1113.8 178.2 1113.7 178.4C1113.6 178.5 1113.5 178.6 1113.4 178.7C1113.3 178.7 1113.3 178.8 1113.2 178.8C1113.2 178.8 1113.1 178.8 1113.1 178.9C1113 179 1113 178.9 1113 179C1113 179.2 1113.1 179.3 1113.1 179.5C1113.1 179.7 1113.1 179.8 1113.1 180C1113.1 180.3 1113.1 180.7 1113.1 181C1113 181.7 1112.9 182.3 1112.4 182.8C1112.2 183 1112 183.2 1111.7 183.3C1111.6 183.4 1111.4 183.4 1111.3 183.4C1111.2 183.4 1111.1 183.4 1111.1 183.5C1111.1 183.6 1111.1 183.7 1111.1 183.8C1111 184.5 1110.9 185.2 1110.6 185.7C1110.3 186.2 1109.8 186.7 1109.2 186.9C1108.1 187.3 1106.7 186.9 1105.8 186.2C1105.6 186 1105.4 185.8 1105.2 185.5C1104.4 186.1 1103.3 185.8 1102.5 185.4C1101.5 184.9 1100.9 183.9 1100.6 182.9C1099.7 183.5 1098.4 182.9 1098.2 181.9C1098.1 181.7 1098.1 181.4 1098.2 181.2C1098.2 181.1 1098.3 180.9 1098.3 180.8C1098.3 180.6 1098.3 180.5 1098.2 180.3C1098.2 180 1098.2 179.6 1098.2 179.3C1098.2 179.1 1098.3 179 1098.4 178.8C1098.5 178.7 1098.4 178.5 1098.5 178.4C1098.8 178.5 1099.1 178.5 1099.4 178.5C1099.7 178.5 1099.9 178.3 1100.2 178.2C1100.7 177.9 1101.1 177.4 1101.4 176.9C1102.1 175.8 1102.3 174.3 1101.2 173.3C1100.7 172.8 1099 172.4 1098.3 172.4C1097.5 172.4 1096.3 173.7 1096.3 173.9C1096.3 174 1096.2 174.1 1096.1 174.1C1095.9 174.2 1095.6 173.9 1095.5 173.7C1095.3 173.4 1095.2 173.1 1095.1 172.8C1094.9 172.1 1094.8 171.5 1094.8 170.8C1094.8 170.3 1094.8 169.7 1094.8 169.2C1094.7 168.7 1094.6 168.2 1094.2 167.8C1093.8 167.4 1093.3 167.1 1092.8 166.8C1092.3 166.5 1091.9 166.1 1091.6 165.6C1091.5 165.5 1091.5 165.4 1091.4 165.3C1091.4 165.2 1091.3 165 1091.3 165C1091.2 164.9 1090.9 165 1090.8 165.1C1090.1 165.3 1089.5 165.7 1089 166.2C1088.5 166.7 1088 167.1 1087.6 167.7C1087.3 168.1 1087 168.7 1086.6 169C1086.4 169.1 1085.3 169 1085 168.7C1084.7 168.5 1084.4 168 1084.3 167.7C1084.2 167.4 1084.3 167.2 1084.4 166.9C1084.5 166.8 1084.6 166.6 1084.6 166.5C1084.7 166.4 1084.7 166.3 1084.8 166.2C1085 166 1085.2 165.9 1085.5 165.9C1085.3 165.6 1085.2 165.3 1085.1 164.9C1085 164.5 1085 164.1 1085.1 163.7C1085.1 163.4 1085.3 163.1 1085.5 162.9C1085.7 162.7 1086.1 162.6 1086.4 162.5C1086.1 162.1 1085.8 161.6 1085.7 161.2C1084.9 159.8 1084.8 158.7 1085.3 157.8Z" fill="#966A45"/>
<path d="M1110.5 245.3H1076.1C1083.9 221.5 1087.9 205.2 1088.1 196.3C1088.1 195.8 1088.9 195.1 1089.3 195.2C1092 196 1094.9 195.7 1098 194.3C1106.1 207.5 1108.9 223.6 1110.5 245.3Z" fill="#F2F2F2"/>
<path d="M1066.3 176.5L1052.7 169.1C1049.3 164 1047.3 161.8 1046.7 162.5C1045.8 163.6 1047.2 164.8 1046.7 165.6C1046.2 166.4 1043.5 166.1 1040.9 165.6C1038.3 165.1 1038.9 166.4 1039.5 167C1041.9 168.8 1045 170.5 1048.9 171.9L1062 183.9L1066.3 176.5Z" fill="#B28B67"/>
<path d="M1094.1 187.3C1091.7 186.4 1089 186 1086.5 185.4C1082.6 184.4 1078.8 181.9 1075.4 179.8C1073.5 178.7 1057.2 167.4 1056.6 168L1048.2 176C1060 189.3 1073.4 199.7 1087.1 212.3C1086.8 235.7 1084.1 256.4 1096 256.4C1101.7 256.4 1107.8 256.4 1114.4 256.4C1117.1 238.5 1112.3 218.8 1105.5 202.4C1104.8 200.6 1104 198.8 1103.2 197.1C1101.8 194 1100 190.9 1097.1 189C1096.1 188.2 1095.1 187.7 1094.1 187.3Z" fill="#F24C64"/>
<path d="M551.3 261.7L570.4 265.1C574.2 267.4 577.7 269 580.8 269.9C581.7 270 583.1 269.7 581.1 267.8C579 265.9 576.9 263.9 577.3 262.9C577.7 261.9 579.7 262.4 580.1 261C580.3 260 577.1 259.7 570.4 260.1L555 253.3L551.3 261.7Z" fill="#B28B67"/>
<path d="M521.2 219.4C532.4 234.8 547 245.7 567.5 256.3L561.5 265.2C539.6 260.4 528 257.2 520.4 242.3C518.5 238.6 515.8 226.1 514.1 219.7L521.2 219.4Z" fill="#680436"/>
<path d="M850.8 241.9L836.9 229.1C829.6 227.1 826.2 225.6 826.8 224.7C827.7 223.3 829.7 224.5 830.5 223.6C831.3 222.8 829.8 219.8 828.2 217C826.7 214.3 828.3 214.5 829.3 214.9C832.4 217 835.5 219.9 838.7 223.7L857.9 234.2L850.8 241.9Z" fill="#997659"/>
<path d="M866.5 231.6C859.8 231.5 850.8 230.1 841.2 224L837.4 232.4C844 238.9 853.3 244.3 861.4 244.1C867.9 243.9 871.1 236.2 866.5 231.6Z" fill="#FF9B21"/>
<path d="M561 266H835.5C839.9 266 843.5 262.4 843.5 258V153.1C843.5 148.7 839.9 145.1 835.5 145.1H561C556.6 145.1 553 148.7 553 153.1V258C553 262.4 556.6 266 561 266Z" fill="white"/>
<path d="M558.7 160.3C566.1 160.3 572.1 154.301 572.1 146.9C572.1 139.499 566.1 133.5 558.7 133.5C551.299 133.5 545.3 139.499 545.3 146.9C545.3 154.301 551.299 160.3 558.7 160.3Z" fill="white" stroke="white" stroke-width="2" stroke-miterlimit="10"/>
<path d="M561 145.1H566.3V149.6H561V155.7H556.1V149.6H550.8V145.1H556.1V139.2H561V145.1Z" fill="#6753A5"/>
<path d="M568.3 202H777.5" stroke="#C0B9DB" stroke-width="3" stroke-miterlimit="10"/>
<path d="M568.3 214H777.5" stroke="#C0B9DB" stroke-width="3" stroke-miterlimit="10"/>
<path d="M568.3 226H777.5" stroke="#C0B9DB" stroke-width="3" stroke-miterlimit="10"/>
<path d="M568.3 238.1H777.5" stroke="#C0B9DB" stroke-width="3" stroke-miterlimit="10"/>
<path d="M568.3 250.1H777.5" stroke="#C0B9DB" stroke-width="3" stroke-miterlimit="10"/>
<path d="M787.1 252.3H785.3V200H787.1L787.2 223.1L789.6 225.7L787.2 228.5L787.1 252.3Z" fill="#8479C9"/>
<path d="M804.6 215.3C807.251 215.3 809.4 213.151 809.4 210.5C809.4 207.849 807.251 205.7 804.6 205.7C801.949 205.7 799.8 207.849 799.8 210.5C799.8 213.151 801.949 215.3 804.6 215.3Z" fill="#C0B9DB"/>
<path d="M806.826 226.484C809.235 225.378 810.291 222.528 809.185 220.119C808.079 217.71 805.229 216.654 802.82 217.76C800.411 218.866 799.354 221.716 800.461 224.125C801.567 226.534 804.417 227.591 806.826 226.484Z" fill="#6753A5"/>
<path d="M818.632 214.881C821.041 213.775 822.097 210.925 820.991 208.516C819.885 206.107 817.035 205.05 814.626 206.157C812.217 207.263 811.16 210.113 812.267 212.522C813.373 214.931 816.223 215.987 818.632 214.881Z" fill="#C0B9DB"/>
<path d="M818.633 226.681C821.043 225.575 822.099 222.725 820.993 220.316C819.886 217.907 817.037 216.85 814.627 217.957C812.218 219.063 811.162 221.913 812.268 224.322C813.374 226.731 816.224 227.787 818.633 226.681Z" fill="#6753A5"/>
<path d="M577.47 168.624V176C577.47 177.226 577.085 178.195 576.316 178.908C575.552 179.62 574.506 179.977 573.178 179.977C571.87 179.977 570.831 179.631 570.062 178.938C569.293 178.246 568.901 177.295 568.885 176.085V168.624H571.193V176.015C571.193 176.749 571.367 177.285 571.716 177.623C572.07 177.956 572.557 178.123 573.178 178.123C574.475 178.123 575.134 177.441 575.154 176.077V168.624H577.47ZM581.262 171.5L581.331 172.462C581.926 171.718 582.723 171.346 583.723 171.346C584.605 171.346 585.262 171.605 585.692 172.123C586.123 172.641 586.344 173.416 586.354 174.446V179.823H584.131V174.5C584.131 174.028 584.028 173.687 583.823 173.477C583.618 173.262 583.277 173.154 582.8 173.154C582.175 173.154 581.705 173.421 581.393 173.954V179.823H579.17V171.5H581.262ZM591.877 179.977C590.656 179.977 589.661 179.602 588.892 178.854C588.128 178.105 587.746 177.108 587.746 175.862V175.646C587.746 174.81 587.908 174.064 588.231 173.408C588.554 172.746 589.01 172.239 589.6 171.885C590.195 171.526 590.872 171.346 591.631 171.346C592.769 171.346 593.664 171.705 594.315 172.423C594.971 173.141 595.3 174.159 595.3 175.477V176.385H590C590.072 176.928 590.287 177.364 590.646 177.692C591.01 178.021 591.469 178.185 592.023 178.185C592.879 178.185 593.548 177.874 594.03 177.254L595.123 178.477C594.789 178.949 594.338 179.318 593.769 179.585C593.2 179.846 592.569 179.977 591.877 179.977ZM591.623 173.146C591.182 173.146 590.823 173.295 590.546 173.593C590.274 173.89 590.1 174.316 590.023 174.869H593.115V174.692C593.105 174.2 592.971 173.821 592.715 173.554C592.459 173.282 592.095 173.146 591.623 173.146ZM607.984 175.739C607.984 177.021 607.691 178.049 607.107 178.823C606.527 179.592 605.743 179.977 604.753 179.977C603.912 179.977 603.233 179.685 602.715 179.1V183.023H600.492V171.5H602.553L602.63 172.316C603.168 171.67 603.871 171.346 604.738 171.346C605.763 171.346 606.561 171.726 607.13 172.485C607.699 173.244 607.984 174.29 607.984 175.623V175.739ZM605.761 175.577C605.761 174.803 605.622 174.205 605.345 173.785C605.073 173.364 604.676 173.154 604.153 173.154C603.456 173.154 602.976 173.421 602.715 173.954V177.362C602.986 177.91 603.471 178.185 604.168 178.185C605.23 178.185 605.761 177.315 605.761 175.577ZM611.714 179.823H609.484V168.008H611.714V179.823ZM618.375 179.823C618.273 179.623 618.198 179.374 618.152 179.077C617.614 179.677 616.914 179.977 616.052 179.977C615.237 179.977 614.56 179.741 614.022 179.269C613.488 178.797 613.222 178.203 613.222 177.485C613.222 176.603 613.547 175.926 614.199 175.454C614.855 174.982 615.801 174.744 617.037 174.739H618.06V174.262C618.06 173.877 617.96 173.569 617.76 173.339C617.565 173.108 617.255 172.993 616.829 172.993C616.455 172.993 616.16 173.082 615.945 173.262C615.734 173.441 615.629 173.687 615.629 174H613.406C613.406 173.518 613.555 173.072 613.853 172.662C614.15 172.252 614.57 171.931 615.114 171.7C615.658 171.464 616.268 171.346 616.945 171.346C617.97 171.346 618.783 171.605 619.383 172.123C619.988 172.636 620.291 173.359 620.291 174.292V177.9C620.296 178.69 620.406 179.287 620.621 179.692V179.823H618.375ZM616.537 178.277C616.865 178.277 617.168 178.205 617.445 178.062C617.722 177.913 617.927 177.715 618.06 177.469V176.039H617.229C616.117 176.039 615.524 176.423 615.452 177.192L615.445 177.323C615.445 177.6 615.542 177.828 615.737 178.008C615.932 178.187 616.199 178.277 616.537 178.277ZM624.66 169.454V171.5H626.083V173.131H624.66V177.285C624.66 177.592 624.719 177.813 624.837 177.946C624.955 178.079 625.18 178.146 625.514 178.146C625.76 178.146 625.978 178.128 626.167 178.092V179.777C625.731 179.91 625.283 179.977 624.821 179.977C623.262 179.977 622.468 179.19 622.437 177.615V173.131H621.221V171.5H622.437V169.454H624.66ZM631.152 179.977C629.931 179.977 628.936 179.602 628.167 178.854C627.403 178.105 627.021 177.108 627.021 175.862V175.646C627.021 174.81 627.183 174.064 627.506 173.408C627.829 172.746 628.285 172.239 628.875 171.885C629.47 171.526 630.147 171.346 630.906 171.346C632.044 171.346 632.939 171.705 633.59 172.423C634.246 173.141 634.575 174.159 634.575 175.477V176.385H629.275C629.347 176.928 629.562 177.364 629.921 177.692C630.285 178.021 630.744 178.185 631.298 178.185C632.154 178.185 632.823 177.874 633.305 177.254L634.398 178.477C634.064 178.949 633.613 179.318 633.044 179.585C632.475 179.846 631.844 179.977 631.152 179.977ZM630.898 173.146C630.457 173.146 630.098 173.295 629.821 173.593C629.549 173.89 629.375 174.316 629.298 174.869H632.39V174.692C632.38 174.2 632.247 173.821 631.99 173.554C631.734 173.282 631.37 173.146 630.898 173.146ZM636.451 179.823V173.131H635.213V171.5H636.451V170.793C636.451 169.859 636.718 169.136 637.251 168.624C637.79 168.106 638.541 167.847 639.505 167.847C639.813 167.847 640.19 167.898 640.636 168L640.613 169.723C640.428 169.677 640.203 169.654 639.936 169.654C639.1 169.654 638.682 170.047 638.682 170.831V171.5H640.336V173.131H638.682V179.823H636.451ZM641.144 175.585C641.144 174.759 641.303 174.023 641.62 173.377C641.938 172.731 642.395 172.231 642.99 171.877C643.59 171.523 644.284 171.346 645.074 171.346C646.197 171.346 647.112 171.69 647.82 172.377C648.533 173.064 648.93 173.998 649.012 175.177L649.028 175.746C649.028 177.023 648.671 178.049 647.959 178.823C647.246 179.592 646.289 179.977 645.09 179.977C643.89 179.977 642.931 179.592 642.213 178.823C641.5 178.054 641.144 177.008 641.144 175.685V175.585ZM643.367 175.746C643.367 176.536 643.515 177.141 643.813 177.562C644.11 177.977 644.536 178.185 645.09 178.185C645.628 178.185 646.048 177.979 646.351 177.569C646.654 177.154 646.805 176.492 646.805 175.585C646.805 174.81 646.654 174.21 646.351 173.785C646.048 173.359 645.623 173.146 645.074 173.146C644.531 173.146 644.11 173.359 643.813 173.785C643.515 174.205 643.367 174.859 643.367 175.746ZM655.074 173.585C654.771 173.544 654.504 173.523 654.274 173.523C653.433 173.523 652.881 173.808 652.62 174.377V179.823H650.397V171.5H652.497L652.558 172.493C653.005 171.729 653.622 171.346 654.412 171.346C654.658 171.346 654.889 171.38 655.104 171.446L655.074 173.585ZM658.235 171.5L658.304 172.431C658.894 171.708 659.691 171.346 660.696 171.346C661.768 171.346 662.504 171.77 662.904 172.616C663.489 171.77 664.322 171.346 665.404 171.346C666.306 171.346 666.978 171.611 667.419 172.139C667.86 172.662 668.081 173.452 668.081 174.508V179.823H665.85V174.516C665.85 174.044 665.758 173.7 665.573 173.485C665.389 173.264 665.063 173.154 664.596 173.154C663.93 173.154 663.468 173.472 663.212 174.108L663.219 179.823H660.996V174.523C660.996 174.041 660.902 173.693 660.712 173.477C660.522 173.262 660.199 173.154 659.743 173.154C659.112 173.154 658.656 173.416 658.373 173.939V179.823H656.151V171.5H658.235ZM673.627 179.977C672.406 179.977 671.411 179.602 670.642 178.854C669.878 178.105 669.496 177.108 669.496 175.862V175.646C669.496 174.81 669.658 174.064 669.981 173.408C670.304 172.746 670.76 172.239 671.35 171.885C671.945 171.526 672.622 171.346 673.38 171.346C674.519 171.346 675.414 171.705 676.065 172.423C676.721 173.141 677.05 174.159 677.05 175.477V176.385H671.75C671.822 176.928 672.037 177.364 672.396 177.692C672.76 178.021 673.219 178.185 673.773 178.185C674.629 178.185 675.298 177.874 675.78 177.254L676.873 178.477C676.539 178.949 676.088 179.318 675.519 179.585C674.95 179.846 674.319 179.977 673.627 179.977ZM673.373 173.146C672.932 173.146 672.573 173.295 672.296 173.593C672.024 173.89 671.85 174.316 671.773 174.869H674.865V174.692C674.855 174.2 674.721 173.821 674.465 173.554C674.209 173.282 673.845 173.146 673.373 173.146ZM685.703 178.185C686.113 178.185 686.447 178.072 686.703 177.846C686.959 177.621 687.093 177.321 687.103 176.946H689.187C689.182 177.51 689.028 178.028 688.726 178.5C688.423 178.967 688.008 179.331 687.48 179.592C686.957 179.849 686.377 179.977 685.741 179.977C684.552 179.977 683.613 179.6 682.926 178.846C682.239 178.087 681.895 177.041 681.895 175.708V175.562C681.895 174.28 682.236 173.257 682.918 172.493C683.601 171.729 684.536 171.346 685.726 171.346C686.767 171.346 687.6 171.644 688.226 172.239C688.857 172.828 689.177 173.616 689.187 174.6H687.103C687.093 174.169 686.959 173.821 686.703 173.554C686.447 173.282 686.108 173.146 685.688 173.146C685.17 173.146 684.777 173.336 684.511 173.716C684.249 174.09 684.118 174.7 684.118 175.546V175.777C684.118 176.633 684.249 177.249 684.511 177.623C684.772 177.997 685.17 178.185 685.703 178.185ZM690.11 175.585C690.11 174.759 690.269 174.023 690.587 173.377C690.905 172.731 691.362 172.231 691.957 171.877C692.556 171.523 693.251 171.346 694.041 171.346C695.164 171.346 696.079 171.69 696.787 172.377C697.5 173.064 697.897 173.998 697.979 175.177L697.995 175.746C697.995 177.023 697.638 178.049 696.926 178.823C696.213 179.592 695.256 179.977 694.056 179.977C692.856 179.977 691.898 179.592 691.18 178.823C690.467 178.054 690.11 177.008 690.11 175.685V175.585ZM692.333 175.746C692.333 176.536 692.482 177.141 692.78 177.562C693.077 177.977 693.503 178.185 694.056 178.185C694.595 178.185 695.015 177.979 695.318 177.569C695.62 177.154 695.772 176.492 695.772 175.585C695.772 174.81 695.62 174.21 695.318 173.785C695.015 173.359 694.59 173.146 694.041 173.146C693.497 173.146 693.077 173.359 692.78 173.785C692.482 174.205 692.333 174.859 692.333 175.746ZM701.71 179.823H699.479V168.008H701.71V179.823ZM705.894 179.823H703.664V168.008H705.894V179.823ZM712.556 179.823C712.453 179.623 712.379 179.374 712.332 179.077C711.794 179.677 711.094 179.977 710.233 179.977C709.417 179.977 708.74 179.741 708.202 179.269C707.669 178.797 707.402 178.203 707.402 177.485C707.402 176.603 707.728 175.926 708.379 175.454C709.035 174.982 709.981 174.744 711.217 174.739H712.24V174.262C712.24 173.877 712.14 173.569 711.94 173.339C711.745 173.108 711.435 172.993 711.009 172.993C710.635 172.993 710.34 173.082 710.125 173.262C709.915 173.441 709.81 173.687 709.81 174H707.587C707.587 173.518 707.735 173.072 708.033 172.662C708.33 172.252 708.751 171.931 709.294 171.7C709.838 171.464 710.448 171.346 711.125 171.346C712.15 171.346 712.963 171.605 713.563 172.123C714.168 172.636 714.471 173.359 714.471 174.292V177.9C714.476 178.69 714.586 179.287 714.802 179.692V179.823H712.556ZM710.717 178.277C711.045 178.277 711.348 178.205 711.625 178.062C711.902 177.913 712.107 177.715 712.24 177.469V176.039H711.409C710.297 176.039 709.704 176.423 709.633 177.192L709.625 177.323C709.625 177.6 709.722 177.828 709.917 178.008C710.112 178.187 710.379 178.277 710.717 178.277ZM723.678 175.739C723.678 177.072 723.393 178.113 722.824 178.862C722.255 179.605 721.46 179.977 720.44 179.977C719.537 179.977 718.817 179.631 718.278 178.938L718.178 179.823H716.178V168.008H718.401V172.246C718.914 171.646 719.589 171.346 720.424 171.346C721.44 171.346 722.235 171.721 722.809 172.47C723.388 173.213 723.678 174.262 723.678 175.616V175.739ZM721.455 175.577C721.455 174.736 721.322 174.123 721.055 173.739C720.788 173.349 720.391 173.154 719.863 173.154C719.155 173.154 718.668 173.444 718.401 174.023V177.308C718.673 177.892 719.165 178.185 719.878 178.185C720.596 178.185 721.068 177.831 721.294 177.123C721.401 176.785 721.455 176.269 721.455 175.577ZM724.709 175.585C724.709 174.759 724.868 174.023 725.186 173.377C725.504 172.731 725.96 172.231 726.555 171.877C727.155 171.523 727.85 171.346 728.639 171.346C729.762 171.346 730.678 171.69 731.385 172.377C732.098 173.064 732.496 173.998 732.578 175.177L732.593 175.746C732.593 177.023 732.237 178.049 731.524 178.823C730.811 179.592 729.855 179.977 728.655 179.977C727.455 179.977 726.496 179.592 725.778 178.823C725.065 178.054 724.709 177.008 724.709 175.685V175.585ZM726.932 175.746C726.932 176.536 727.081 177.141 727.378 177.562C727.675 177.977 728.101 178.185 728.655 178.185C729.193 178.185 729.614 177.979 729.916 177.569C730.219 177.154 730.37 176.492 730.37 175.585C730.37 174.81 730.219 174.21 729.916 173.785C729.614 173.359 729.188 173.146 728.639 173.146C728.096 173.146 727.675 173.359 727.378 173.785C727.081 174.205 726.932 174.859 726.932 175.746ZM738.639 173.585C738.336 173.544 738.07 173.523 737.839 173.523C736.998 173.523 736.447 173.808 736.185 174.377V179.823H733.962V171.5H736.062L736.124 172.493C736.57 171.729 737.188 171.346 737.977 171.346C738.224 171.346 738.454 171.38 738.67 171.446L738.639 173.585ZM744.308 179.823C744.205 179.623 744.131 179.374 744.085 179.077C743.546 179.677 742.846 179.977 741.985 179.977C741.17 179.977 740.493 179.741 739.954 179.269C739.421 178.797 739.154 178.203 739.154 177.485C739.154 176.603 739.48 175.926 740.131 175.454C740.788 174.982 741.734 174.744 742.969 174.739H743.993V174.262C743.993 173.877 743.893 173.569 743.693 173.339C743.498 173.108 743.187 172.993 742.762 172.993C742.387 172.993 742.093 173.082 741.877 173.262C741.667 173.441 741.562 173.687 741.562 174H739.339C739.339 173.518 739.488 173.072 739.785 172.662C740.082 172.252 740.503 171.931 741.047 171.7C741.59 171.464 742.2 171.346 742.877 171.346C743.903 171.346 744.716 171.605 745.316 172.123C745.921 172.636 746.223 173.359 746.223 174.292V177.9C746.228 178.69 746.339 179.287 746.554 179.692V179.823H744.308ZM742.47 178.277C742.798 178.277 743.1 178.205 743.377 178.062C743.654 177.913 743.859 177.715 743.993 177.469V176.039H743.162C742.049 176.039 741.457 176.423 741.385 177.192L741.377 177.323C741.377 177.6 741.475 177.828 741.67 178.008C741.864 178.187 742.131 178.277 742.47 178.277ZM750.592 169.454V171.5H752.015V173.131H750.592V177.285C750.592 177.592 750.651 177.813 750.769 177.946C750.887 178.079 751.113 178.146 751.446 178.146C751.692 178.146 751.91 178.128 752.1 178.092V179.777C751.664 179.91 751.215 179.977 750.754 179.977C749.195 179.977 748.4 179.19 748.369 177.615V173.131H747.154V171.5H748.369V169.454H750.592ZM755.6 179.823H753.369V171.5H755.6V179.823ZM753.238 169.347C753.238 169.013 753.348 168.739 753.569 168.524C753.795 168.308 754.1 168.2 754.484 168.2C754.864 168.2 755.166 168.308 755.392 168.524C755.618 168.739 755.73 169.013 755.73 169.347C755.73 169.685 755.615 169.962 755.384 170.177C755.159 170.393 754.859 170.5 754.484 170.5C754.11 170.5 753.807 170.393 753.577 170.177C753.351 169.962 753.238 169.685 753.238 169.347ZM760.553 177.108L762.099 171.5H764.422L761.615 179.823H759.492L756.684 171.5H759.007L760.553 177.108ZM769.13 179.977C767.909 179.977 766.915 179.602 766.145 178.854C765.381 178.105 764.999 177.108 764.999 175.862V175.646C764.999 174.81 765.161 174.064 765.484 173.408C765.807 172.746 766.263 172.239 766.853 171.885C767.448 171.526 768.125 171.346 768.884 171.346C770.022 171.346 770.917 171.705 771.568 172.423C772.225 173.141 772.553 174.159 772.553 175.477V176.385H767.253C767.325 176.928 767.54 177.364 767.899 177.692C768.263 178.021 768.722 178.185 769.276 178.185C770.132 178.185 770.802 177.874 771.284 177.254L772.376 178.477C772.042 178.949 771.591 179.318 771.022 179.585C770.453 179.846 769.822 179.977 769.13 179.977ZM768.876 173.146C768.435 173.146 768.076 173.295 767.799 173.593C767.527 173.89 767.353 174.316 767.276 174.869H770.368V174.692C770.358 174.2 770.225 173.821 769.968 173.554C769.712 173.282 769.348 173.146 768.876 173.146Z" fill="#6753A5"/>
<path d="M885.7 278.3L865.6 348.7L851 400.5H840.3L855.9 278.3H885.7Z" fill="#D15805"/>
<path d="M891 278.3C891.5 314.6 893 334.3 893.5 337.6C894 340.9 901.3 361.9 915.6 400.5H904.5C886.4 363.4 876.3 342.5 874.1 337.6C872 332.7 865.5 313 855.7 278.3H891Z" fill="#EA6206"/>
<path d="M916.6 410.5L916 398.9H904.4C898.9 402.8 891.7 405.9 882.8 408.3V410.5H903.8L911 409.4V410.5H916.6Z" fill="#191847"/>
<path d="M852.5 410.5L851.9 398.9H840.3C834.8 402.8 827.6 405.9 818.7 408.3V410.5H839.7L846.9 409.4V410.5H852.5Z" fill="#191847"/>
<path d="M872.2 198.6C874.7 195.6 876.5 191.9 876.2 187.8C875.4 176 858.9 178.6 855.7 184.5C852.5 190.5 852.9 205.6 857 206.7C858.7 207.1 862.2 206.1 865.8 203.9L863.6 219.8H876.9L872.2 198.6Z" fill="#6D3815"/>
<path d="M865.1 189.1C864.6 196.2 863.2 199.7 861.1 199.7C857.8 199.7 855.1 197.6 853.6 197.6C852.6 197.6 852.8 198.9 853.5 199.9C854.1 200.7 856.9 201.5 856.9 202.7C856.9 203.9 854.7 203 854.7 203.7C854.7 204.9 854.3 207.2 856.4 207.2C858.5 207.2 864.7 206.4 865.7 203.2C866.4 201.2 866.8 196.9 867 190.5C867.1 190.5 867.3 190.5 867.4 190.5C869.2 190.5 870.7 192 870.7 193.8C870.7 194.7 870.3 195.6 869.7 196.2C870.5 197.3 871.3 198.4 872.3 199.6C876 197.4 878.8 190.9 875.1 184.6C874.1 181.5 871.8 179.9 869.2 179.1C867 178.2 864.8 178.1 862.9 178.6C859.2 178.9 855.9 180.1 854.9 180.7C854.9 184.2 855.6 185.3 861.4 185.2C862.8 186.1 863.9 187.4 865.1 189.1Z" fill="#230C01"/>
<path d="M821.8 250.4C818.2 247.8 814.8 246 811.6 245.1C805.6 243.4 803.2 242.2 800.3 238.4C798.7 236.4 797.4 232.4 798.9 231.1C799.9 230.2 805.8 234.6 808.2 235.1C810.6 235.6 808.4 229.9 809.7 230.5C811.3 230.5 812.8 232.8 813.9 237.3L822.3 241.9L821.8 250.4Z" fill="#6D3815"/>
<path d="M852.6 244.1C845.5 245.9 833.5 243.8 816.7 237.8C812.5 246.4 810.6 252.6 810.9 256.2C825.3 263.7 837.7 267.1 847.8 267.3C847.5 273.3 848.2 279.1 850.7 284.3C855.8 295.1 885.5 285.1 895.5 287.1C901.8 266.8 889.7 258.5 889.6 245.5C889.6 231.3 878.2 209.3 876.5 209.3H861.2C860.4 220.3 856.1 232.3 852.6 244.1Z" fill="#F9B721"/>
<path d="M513.9 207.3C511.5 204.5 509.9 201.1 510.2 197.2C511 186.1 526.4 188.6 529.4 194.2C532.4 199.8 532 214 528.2 215C526.7 215.4 523.4 214.4 520 212.4L522.1 227.3H509.7L513.9 207.3Z" fill="#B28B67"/>
<path d="M522.3 187.8C520.7 187.5 516.3 187.3 515.4 187.3C514.9 187.3 514.3 187.4 514 186.9C513.7 186.5 513.8 185.8 513.8 185.4C513.7 184.9 513.6 184.4 513.5 183.8C513.1 182.3 512.6 180.9 511.8 179.6C510.4 177.1 508.3 175.2 505.7 174.1C502.8 172.9 499.5 172.6 496.4 172.8C493.1 173.1 490.1 174.2 486.9 175.2C483.9 176.2 480.8 176.6 477.6 176.1C474.4 175.6 472.1 173.9 469.4 172.3C466.7 170.6 463.6 169.6 460.3 169.8C457.3 170 454.5 171.3 452 172.9C449.7 174.5 447.8 176.3 446.7 178.9C445.5 181.7 445.5 184.8 447.5 187.3C450.3 190.9 455.4 191.9 459.7 191.8C462.2 191.7 464.6 191.3 467 190.5C470.1 189.4 472.8 187.5 475.8 186C477.2 185.3 478.6 184.7 480.1 184.3C481.5 183.9 483 183.7 484.3 184.6C485.7 185.5 486.9 186.4 488.5 187C490 187.6 491.6 187.9 493.2 187.9C496.3 187.9 499.4 186.9 502.5 186.2C505 185.7 507.7 185.1 510.2 185.6C511.3 185.8 512.8 186.3 513.2 187.4C506.8 188.6 504.2 196.5 506 202.4C507 205.6 512.9 209.2 515.2 207.6C516.7 206.5 515.8 205.2 515.2 204.3C514.1 202.6 513.7 200.3 515.8 199.1C517.5 198.1 519.4 200.5 519.4 200.5C519.9 200.5 524 198.1 526.9 194.7C529.7 194.9 530.1 193 529.5 191.5C528.7 190.1 524.5 188.2 522.3 187.8Z" fill="#191847"/>
<path d="M503.9 272.1C504.8 284.8 564.9 322.3 565.3 323.4C565.5 323.9 559.2 338.6 546.6 367.7L551.9 369.7C571.3 338.9 580.4 321.9 579.5 318.6C578.1 313.9 562.5 298.4 532.9 272.2L503.9 272.1Z" fill="#B28B67"/>
<path d="M548 361.1L556.6 364.2C574.7 343.8 581.8 327 580.5 318.4C579.6 312.7 564.2 297.3 534 272.1H503.3C504.3 301.6 560 323.4 560.8 324.7C561.5 326 554.2 338.3 548 361.1Z" fill="#2F3676"/>
<path d="M544.621 366.729C543.544 367.933 542.852 368.958 542.578 369.71C542.271 370.556 541.98 371.94 541.646 373.734C542.68 374.11 551.795 377.427 569.085 383.721C570.692 381.645 570.701 380.158 569.266 379.423C567.831 378.688 566.584 378.021 565.584 377.551L554.856 367.262C554.609 367.065 554.293 367.056 554.096 367.304L552.532 368.97C550.883 369.114 549.619 369.08 548.679 368.738C547.927 368.464 547.09 367.84 545.98 366.798C545.741 366.285 545.108 366.268 544.621 366.729C544.621 366.729 544.655 366.635 544.621 366.729Z" fill="#E4E4E4"/>
<path d="M510.8 272.1L484.1 336.4L457.8 390.7H464L531.9 272.1H510.8Z" fill="#997659"/>
<path d="M457.4 388.2C456.8 389.7 456.5 390.9 456.5 391.7C456.5 392.6 456.7 394 457 395.8C458.1 395.8 467.8 395.8 486.2 395.8C487 393.3 486.5 391.9 484.9 391.7C483.3 391.5 481.9 391.3 480.8 391.2L467.2 385.2C466.9 385.1 466.6 385.2 466.5 385.5L465.6 387.6C464.1 388.3 462.9 388.7 461.9 388.7C461.1 388.7 460.1 388.4 458.7 387.8C458.3 387.4 457.6 387.6 457.4 388.2Z" fill="#E4E4E4"/>
<path d="M460.1 379.4L473.9 382C484.6 366.3 529.2 302 534.1 272.1H503.4C487.1 293.8 470.3 363.5 460.1 379.4Z" fill="#5C63AB"/>
<path d="M552 217.7L571.6 211.8C575.3 209 578.7 206.9 581.9 205.6C582.8 205.4 582.8 206.6 580.9 208.8C578.9 211 590.9 207.7 591.4 208.6C591.9 209.5 586.1 213.6 584.4 214.4C582.3 215.1 579.3 216.7 572.2 217.1L557 226.1L552 217.7Z" fill="#B28B67"/>
<path d="M499.6 275.4H539.4C530.4 247.9 525.8 229 525.6 218.7C525.6 218.2 524.6 217.3 524.2 217.4C521.1 218.3 517.7 218 514.2 216.4C504.7 231.6 501.4 250.3 499.6 275.4Z" fill="#F2F2F2"/>
<path d="M517.5 216.5C528.9 216.6 547.4 218.7 568.8 211.8L570.9 222.3C554.8 232.7 538.4 240.7 524.1 239.6C530.3 266.3 530 288.1 516.3 288.1C509.7 288.1 502.7 288.1 495.1 288.1C491.7 265.4 500.6 234 508.8 218.2C509.1 217.6 509.8 216.5 511.4 216.5C512.7 216.5 514.8 216.5 517.5 216.5Z" fill="#84033E"/>
<path d="M573.6 63.7001H678.3C681 63.7001 683.1 61.5001 683.1 58.9001V34.4001C683.1 31.7001 680.9 29.6001 678.3 29.6001H573.6C570.9 29.6001 568.8 31.8001 568.8 34.4001V58.9001C568.7 61.6001 570.9 63.7001 573.6 63.7001Z" fill="white"/>
<path d="M679.6 47.3C687.001 47.3 693 41.3006 693 33.9C693 26.4994 687.001 20.5 679.6 20.5C672.2 20.5 666.2 26.4994 666.2 33.9C666.2 41.3006 672.2 47.3 679.6 47.3Z" fill="white"/>
<path d="M677.4 26.2H682.3V32.0999H687.6V36.5999H682.3V42.7H677.4V36.5999H672V32.0999H677.3V26.2H677.4Z" fill="#2F3676"/>
<path d="M593.351 47.9051H589.305L588.535 50.2126H586.082L590.251 39.0132H592.389L596.581 50.2126H594.127L593.351 47.9051ZM589.928 46.0359H592.728L591.32 41.8438L589.928 46.0359ZM606.319 48.7973C605.904 49.2947 605.317 49.6819 604.558 49.9588C603.799 50.2306 602.958 50.3665 602.035 50.3665C601.066 50.3665 600.214 50.1562 599.481 49.7357C598.753 49.3101 598.189 48.6948 597.789 47.8897C597.394 47.0846 597.191 46.1385 597.181 45.0514V44.2898C597.181 43.172 597.368 42.2053 597.743 41.39C598.122 40.5695 598.666 39.9439 599.373 39.5132C600.086 39.0773 600.919 38.8593 601.873 38.8593C603.201 38.8593 604.24 39.1773 604.988 39.8131C605.737 40.4439 606.181 41.3643 606.319 42.5745H604.073C603.971 41.9336 603.742 41.4643 603.389 41.1669C603.04 40.8695 602.558 40.7208 601.942 40.7208C601.158 40.7208 600.56 41.0156 600.15 41.6054C599.74 42.1951 599.532 43.072 599.527 44.236V44.9514C599.527 46.1257 599.75 47.0128 600.196 47.6128C600.643 48.2127 601.296 48.5127 602.158 48.5127C603.024 48.5127 603.642 48.3281 604.012 47.9589V46.0282H601.912V44.3283H606.319V48.7973ZM610.65 50.2126H608.342V39.0132H610.65V50.2126ZM613.288 42.4515L612.242 41.8438C612.683 41.1515 612.911 40.4362 612.927 39.6978V38.3978H614.696V39.5901C614.696 40.0516 614.568 40.5516 614.311 41.09C614.055 41.6284 613.714 42.0823 613.288 42.4515ZM620.557 46.1128H618.719V50.2126H616.411V39.0132H620.572C621.895 39.0132 622.916 39.308 623.634 39.8978C624.352 40.4875 624.711 41.3208 624.711 42.3976C624.711 43.1617 624.544 43.8001 624.211 44.3129C623.882 44.8206 623.382 45.2257 622.711 45.5283L625.134 50.105V50.2126H622.657L620.557 46.1128ZM618.719 44.2437H620.58C621.16 44.2437 621.608 44.0976 621.926 43.8053C622.244 43.5078 622.403 43.1002 622.403 42.5822C622.403 42.0541 622.252 41.6387 621.949 41.3361C621.652 41.0336 621.193 40.8823 620.572 40.8823H618.719V44.2437Z" fill="#2F3676"/>
</svg>
