<svg width="293" height="200" viewBox="0 0 293 200" fill="none" xmlns="http://www.w3.org/2000/svg">
<g clip-path="url(#clip0)">
<path opacity="0.1" d="M239.687 109.755C231.72 119.884 234.815 134.682 239.878 146.533C241.573 150.501 243.49 154.699 242.775 158.954C241.9 164.157 237.256 167.962 232.38 169.979C223.492 173.655 212.856 172.779 204.689 167.698C197.631 163.307 192.576 156.167 185.398 151.976C173.385 144.963 158.094 147.611 145.05 152.442C135.821 155.86 125.731 160.305 116.561 156.733C110.109 154.22 105.648 148.102 103.218 141.618C102.045 138.487 101.193 135.099 98.9526 132.617C97.6205 131.142 95.8821 130.095 94.1013 129.212C77.84 121.149 57.302 125.467 41.5074 116.524C30.8403 110.485 24.0113 99.092 20.9876 87.2126C17.9639 75.3332 18.3161 62.8768 19.0838 50.6427C19.6294 41.9485 20.6082 32.6665 26.1635 25.9563C32.0402 18.8579 42.1259 16.2184 51.242 17.5676C60.3581 18.9167 68.621 23.7255 75.8905 29.3893C84.9757 36.4679 93.4013 45.2825 104.556 48.1499C112.152 50.1026 120.143 49.0344 127.978 48.6645C141.076 48.0462 154.179 49.4213 167.204 50.9271C179.674 52.3687 192.234 53.9552 204.113 58.0117C212.52 60.8823 219.259 66.0931 227.197 69.7335C232.372 72.1065 238.014 72.7617 242.913 75.7841C248.948 79.5072 254.48 85.983 252.934 93.5607C251.464 100.765 243.916 104.379 239.687 109.755Z" fill="#212121"/>
<path opacity="0.1" d="M5.93945 134.661C5.93945 134.661 51.7543 122.644 111.088 153.187C170.422 183.73 235.264 129.153 234.012 120.891C232.761 112.629 277.073 120.891 277.073 120.891V194.746H5.93945V134.661Z" fill="#212121"/>
<path d="M37.8304 24.903C44.7072 24.903 50.2819 19.3283 50.2819 12.4515C50.2819 5.57472 44.7072 0 37.8304 0C30.9536 0 25.3789 5.57472 25.3789 12.4515C25.3789 19.3283 30.9536 24.903 37.8304 24.903Z" fill="#FFDF9C"/>
<path d="M125.167 63.6235L123.139 76.2386C123.139 76.2386 120.604 84.5646 120.858 88.6014C121.111 92.6382 120.858 98.1889 120.858 98.1889C120.858 98.1889 114.774 109.29 119.844 113.832C124.914 118.373 126.435 99.4504 126.435 99.4504C126.435 99.4504 125.674 91.3767 127.449 87.0876C129.223 82.7985 129.477 73.4633 129.477 73.4633L125.167 63.6235Z" fill="#FFCDD3"/>
<path opacity="0.05" d="M125.167 63.6235L123.139 76.2386C123.139 76.2386 120.604 84.5646 120.858 88.6014C121.111 92.6382 120.858 98.1889 120.858 98.1889C120.858 98.1889 114.774 109.29 119.844 113.832C124.914 118.373 126.435 99.4504 126.435 99.4504C126.435 99.4504 125.674 91.3767 127.449 87.0876C129.223 82.7985 129.477 73.4633 129.477 73.4633L125.167 63.6235Z" fill="black"/>
<path d="M154.87 107.003L158.377 120.139L161.673 135.53C161.673 135.53 163.447 138.81 161.673 145.622L167.503 164.544C167.503 164.544 170.799 176.655 172.827 176.907C174.855 177.159 170.799 186.495 170.799 186.495L165.222 183.215C165.222 183.215 163.701 175.646 161.673 173.879C159.644 172.113 153.053 154.452 153.053 154.452L151.025 142.089C151.025 142.089 144.688 125.185 139.11 121.148C133.533 117.112 131.759 110.552 131.759 110.552L154.87 107.003Z" fill="#FFCDD3"/>
<path opacity="0.05" d="M131.759 110.551C131.759 110.551 133.533 117.111 139.11 121.148C144.688 125.185 151.025 142.089 151.025 142.089L153.053 154.452C153.053 154.452 159.645 172.113 161.673 173.879C163.161 175.176 164.377 179.599 164.917 181.859C165.115 182.679 165.222 183.214 165.222 183.214L170.799 186.494C170.799 186.494 174.855 177.159 172.827 176.907C172.512 176.869 172.168 176.543 171.808 176.024C169.856 173.193 167.503 164.544 167.503 164.544L161.673 145.621C163.447 138.809 161.673 135.529 161.673 135.529L158.377 120.139L154.871 107.004L131.759 110.551Z" fill="black"/>
<path d="M99.3096 176.15L101.338 180.944L110.464 179.934C110.183 178.632 110.027 177.306 109.997 175.973C109.916 173.11 110.357 169.244 112.745 166.31C117.055 161.012 123.646 147.892 123.646 147.892C123.646 147.892 130.237 140.828 131.758 138.052L144.449 116.867L144.053 114.967L147.476 111.813H126.181L121.111 131.493L117.055 139.566C117.055 139.566 108.436 146.883 105.14 162.273C105.14 162.273 101.852 172.527 99.7583 175.587C99.6275 175.789 99.4772 175.978 99.3096 176.15Z" fill="#FFCDD3"/>
<path opacity="0.1" d="M164.918 181.86C165.116 182.68 165.222 183.215 165.222 183.215L170.799 186.494C170.799 186.494 174.855 177.159 172.827 176.907C172.513 176.869 172.168 176.544 171.808 176.024C171.545 176.181 171.34 176.419 171.223 176.702C171.106 176.985 171.083 177.299 171.159 177.596C171.239 177.973 171.374 178.336 171.56 178.673C172.32 179.935 169.025 181.953 169.025 181.953C167.914 183.373 166.112 182.624 164.918 181.86Z" fill="black"/>
<path d="M171.412 178.1C171.065 176.644 172.893 175.669 173.92 176.761C174.181 177.034 174.41 177.337 174.602 177.663C175.616 179.43 183.221 180.943 184.742 180.439C186.263 179.934 191.586 179.43 190.319 183.214C189.051 186.999 166.236 192.549 166.236 192.549C166.236 192.549 163.701 189.017 163.954 186.494C164.102 184.815 164.102 183.127 163.954 181.448C163.954 181.448 167.503 184.728 169.278 182.457C169.278 182.457 172.574 180.439 171.813 179.177C171.627 178.84 171.492 178.477 171.412 178.1Z" fill="#DCE6F2"/>
<path opacity="0.1" d="M99.3096 176.15L101.338 180.944L110.464 179.935C110.183 178.632 110.027 177.306 109.997 175.973C109.907 175.793 109.774 175.637 109.61 175.518C109.446 175.4 109.256 175.324 109.056 175.295C108.855 175.267 108.651 175.287 108.461 175.355C108.27 175.422 108.099 175.535 107.962 175.683C107.49 176.188 107.014 176.72 106.661 177.159C105.647 178.421 102.352 177.664 102.352 177.664C101.497 177.946 100.483 176.72 99.7583 175.587C99.6275 175.789 99.4772 175.978 99.3096 176.15Z" fill="black"/>
<path d="M107.708 176.188C107.859 176.024 108.052 175.903 108.266 175.839C108.48 175.775 108.707 175.769 108.924 175.823C109.14 175.876 109.339 175.987 109.498 176.143C109.658 176.3 109.772 176.496 109.83 176.711C110.291 178.505 111.303 180.823 113.507 181.701C117.309 183.214 122.633 185.737 120.858 188.008C119.084 190.279 113 192.297 107.676 190.531C102.352 188.765 94.7471 184.476 94.7471 184.476L98.5497 174.384C98.5497 174.384 100.578 178.673 102.099 178.168C102.099 178.168 105.394 178.925 106.408 177.664C106.761 177.224 107.237 176.694 107.708 176.188Z" fill="#DCE6F2"/>
<path d="M142.152 34.3564C142.152 34.3564 136.068 42.6823 137.589 48.4853C139.11 54.2882 125.421 44.7008 125.421 44.7008C125.421 44.7008 132.519 38.3932 131.252 28.0488L142.152 34.3564Z" fill="#FFCDD3"/>
<path d="M122.126 113.327C132.266 119.382 144.435 116.859 144.435 116.859L144.181 115.093C144.359 115.111 144.536 115.128 144.708 115.143C154.4 115.996 156.603 113.074 156.603 113.074C155.087 108.833 153.898 99.8412 153.158 92.8903C153.051 91.8912 152.955 90.935 152.866 90.0393C152.666 88.0133 152.516 86.3078 152.42 85.1548C152.336 84.1405 152.293 83.5552 152.293 83.5552L151.279 75.9861C151.279 75.9861 148.491 66.9032 149.758 60.848C150.838 55.6907 147.32 53.8278 146.253 53.3887C146.085 53.3243 145.913 53.2734 145.737 53.2363C144.347 52.9083 142.799 51.4935 141.481 49.9763C139.561 47.7873 137.113 46.125 134.37 45.1472C133.095 44.6855 132.013 44.1961 132.013 44.1961C130.238 42.1776 125.422 43.4392 125.422 43.4392C119.591 47.2237 122.633 59.5865 122.633 59.5865L125.057 66.4794C126.408 70.3169 128.332 73.9096 130.553 77.3233C134.279 83.0455 129.224 90.8719 129.224 90.8719C121.366 97.1795 122.126 113.327 122.126 113.327Z" fill="#FF8AA1"/>
<path opacity="0.05" d="M143.801 101.594L144.708 115.143C154.4 115.996 156.603 113.074 156.603 113.074C155.087 108.833 153.898 99.841 153.158 92.8901C153.051 91.8909 152.955 90.9347 152.866 90.0391L143.801 101.594Z" fill="black"/>
<path opacity="0.1" d="M127.702 66.1461C127.702 66.1461 132.265 74.7244 133.787 78.5089C135.308 82.2934 135.308 81.0319 136.068 82.2934C136.829 83.5549 144.941 89.1056 144.941 89.1056L153.157 92.8901C152.81 89.6304 152.559 86.8172 152.419 85.1545L144.687 80.0227C144.687 80.0227 139.364 76.7428 139.11 72.4537C138.857 68.1645 135.561 60.3432 135.561 60.3432C135.561 60.3432 128.97 53.2787 126.181 56.5587C123.393 59.8386 127.702 66.1461 127.702 66.1461Z" fill="black"/>
<path d="M135.561 59.082C135.561 59.082 138.857 66.9033 139.11 71.1925C139.364 75.4816 144.687 78.7615 144.687 78.7615L161.419 89.8628C161.419 89.8628 175.869 94.6565 171.052 100.207C166.235 105.758 158.63 94.1519 158.63 94.1519L144.941 87.8444C144.941 87.8444 136.829 82.2937 136.068 81.0322C135.308 79.7707 135.308 81.0322 133.787 77.2477C132.266 73.4632 127.702 64.8849 127.702 64.8849C127.702 64.8849 123.393 58.5774 126.181 55.2974C128.97 52.0175 135.561 59.082 135.561 59.082Z" fill="#FFCDD3"/>
<path opacity="0.1" d="M137.589 62.362C137.589 62.362 132.519 58.5774 131.505 57.3159C131.058 56.759 130.363 56.8413 129.727 57.107C128.539 57.6134 127.247 57.8257 125.96 57.7259C124.851 57.6313 123.773 57.6944 123.9 58.3251C124.154 59.5866 123.14 51.7653 123.14 51.7653L127.449 50.2515L133.026 53.2791L137.589 62.362Z" fill="black"/>
<path d="M137.589 61.8571C137.589 61.8571 132.519 58.0725 131.505 56.811C131.058 56.2541 130.363 56.3364 129.727 56.6021C128.539 57.1085 127.247 57.3208 125.96 57.221C124.851 57.1264 123.773 57.1895 123.9 57.8202C124.154 59.0817 123.14 51.2604 123.14 51.2604L127.449 49.7466L133.026 52.7742L137.589 61.8571Z" fill="#FF8AA1"/>
<path opacity="0.1" d="M149.528 62.3619C148.613 62.7613 147.615 62.9355 146.619 62.8696C145.622 62.8038 144.656 62.4999 143.801 61.9834" fill="black"/>
<path opacity="0.1" d="M132.899 28.6794C133.089 27.1712 131.213 30.3036 130.998 28.5533L141.899 34.8608C141.899 34.8608 141.277 35.7136 140.481 37.0602C140.068 37.107 139.653 37.1309 139.237 37.1315C135.957 37.1315 134.919 30.9411 132.899 28.6794Z" fill="black"/>
<path d="M139.491 36.627C145.582 36.627 150.519 31.7133 150.519 25.6519C150.519 19.5905 145.582 14.6768 139.491 14.6768C133.401 14.6768 128.464 19.5905 128.464 25.6519C128.464 31.7133 133.401 36.627 139.491 36.627Z" fill="#FFCDD3"/>
<path opacity="0.1" d="M144.438 25.8435C144.355 26.5325 144.371 27.2608 144.042 27.8724C143.581 28.7288 142.586 29.1184 141.755 29.628C138.387 31.6933 137.387 36.3401 138.461 40.1301C138.84 41.4713 139.439 42.8323 139.191 44.2036C138.763 46.5601 136.066 47.7817 133.669 47.991C131.272 48.2002 128.763 47.8136 126.522 48.6839C122.757 50.1455 121.099 54.5399 117.899 56.9957C114.177 59.8521 109.05 59.6752 104.362 60.0057C102.628 60.1279 100.869 60.3356 99.1662 59.9905C97.4634 59.6454 95.7831 58.6237 95.1816 57.001C94.3329 54.7116 95.8786 52.2291 97.674 50.5672C99.4695 48.9052 101.661 47.5031 102.677 45.2824C104.044 42.2972 102.939 38.5269 104.658 35.728C104.97 35.1601 105.462 34.7115 106.056 34.4521C106.813 34.1691 107.653 34.3647 108.461 34.3923C111.592 34.4994 114.262 32.014 115.716 29.2526C117.17 26.4912 117.788 23.3655 119.118 20.5426C120.623 17.348 123.131 14.5287 126.39 13.1422C128.3 12.3298 130.385 12.0315 132.379 11.4535C134.645 10.7965 136.809 9.77386 139.131 9.34804C141.452 8.92222 144.082 9.20328 145.78 10.8361C147.378 12.373 147.843 14.7845 149.371 16.3907C149.948 16.9978 150.689 17.5113 150.967 18.3C151.625 20.1686 148.432 20.3262 147.367 21.0743C146.576 21.6237 145.907 22.3312 145.403 23.152C144.899 23.9729 144.57 24.8893 144.438 25.8435Z" fill="black"/>
<path d="M143.932 25.5911C143.849 26.28 143.864 27.0084 143.535 27.62C143.074 28.4764 142.079 28.866 141.248 29.3756C137.88 31.4409 136.88 36.0876 137.954 39.8777C138.334 41.2188 138.933 42.5799 138.684 43.9511C138.256 46.3076 135.559 47.5292 133.162 47.7385C130.765 47.9478 128.256 47.5611 126.015 48.4314C122.25 49.893 120.592 54.2875 117.392 56.7433C113.67 59.5996 108.543 59.4227 103.855 59.7532C102.121 59.8755 100.362 60.0832 98.6594 59.7381C96.9565 59.3929 95.2763 58.3712 94.6748 56.7486C93.8261 54.4591 95.3718 51.9767 97.1672 50.3147C98.9626 48.6528 101.154 47.2506 102.17 45.0299C103.537 42.0448 102.432 38.2745 104.151 35.4756C104.464 34.9077 104.955 34.4591 105.549 34.1997C106.306 33.9167 107.146 34.1122 107.955 34.1399C111.085 34.247 113.755 31.7615 115.209 29.0001C116.664 26.2387 117.281 23.1131 118.611 20.2902C120.116 17.0956 122.624 14.2763 125.884 12.8897C127.793 12.0774 129.878 11.779 131.872 11.201C134.138 10.5441 136.302 9.52142 138.624 9.0956C140.946 8.66978 143.576 8.95084 145.273 10.5837C146.871 12.1206 147.336 14.532 148.864 16.1383C149.441 16.7454 150.182 17.2588 150.46 18.0476C151.118 19.9162 147.925 20.0738 146.86 20.8219C146.069 21.3713 145.4 22.0787 144.896 22.8996C144.392 23.7204 144.064 24.6369 143.932 25.5911Z" fill="#212121"/>
<path d="M15.0779 194.871C15.0779 194.871 6.8162 180.1 17.0807 168.334C27.3453 156.567 39.3623 163.076 39.3623 163.076C39.3623 163.076 54.3835 170.086 50.8786 186.86C50.8786 186.86 48.8757 195.372 42.8672 194.871H15.0779Z" fill="#212121"/>
<path opacity="0.2" d="M15.0779 194.871C15.0779 194.871 6.8162 180.1 17.0807 168.334C27.3453 156.567 39.3623 163.076 39.3623 163.076C39.3623 163.076 54.3835 170.086 50.8786 186.86C50.8786 186.86 48.8757 195.372 42.8672 194.871H15.0779Z" fill="white"/>
<path d="M28.0547 194.892L37.1092 167.332" stroke="#535461" stroke-miterlimit="10"/>
<path d="M45.3702 171.588C45.3702 171.588 40.7085 169.395 36.0294 170.617C36.0294 170.617 33.6035 164.578 28.0957 163.577" stroke="#535461" stroke-miterlimit="10"/>
<path d="M47.624 181.102C47.624 181.102 39.6968 175.372 33.8966 177.11C33.8966 177.11 27.3452 169.335 22.8389 169.836" stroke="#535461" stroke-miterlimit="10"/>
<path d="M45.871 191.366C45.871 191.366 39.0957 186.466 30.7167 186.788C30.7167 186.788 24.3405 179.098 18.332 178.598" stroke="#535461" stroke-miterlimit="10"/>
<path d="M31.6713 194.893C30.6326 194.402 29.5488 194.014 28.4352 193.733C28.4352 193.733 23.214 186.943 12.7617 189.155" stroke="#535461" stroke-miterlimit="10"/>
<path d="M104.454 194.871C104.454 194.871 112.716 181.352 92.1866 161.324C71.6575 141.295 72.9093 137.54 74.6617 134.536C74.6617 134.536 58.1383 136.538 61.6433 161.324C65.1483 186.109 80.1695 194.871 80.1695 194.871H104.454Z" fill="#212121"/>
<path d="M92.8133 194.871C92.8133 194.871 86.6796 177.096 77.4165 166.331C68.1534 155.565 69.9059 137.79 74.6626 134.536" stroke="#535461" stroke-width="2" stroke-miterlimit="10"/>
<path d="M239.701 34.7422C236.012 38.4862 235.77 44.2294 235.77 44.2294C235.77 44.2294 241.509 43.9025 245.198 40.1585C248.887 36.4146 249.13 30.6714 249.13 30.6714C249.13 30.6714 243.391 30.9983 239.701 34.7422Z" fill="#212121"/>
<path d="M20.1399 91.8228C16.4506 95.5668 16.208 101.31 16.208 101.31C16.208 101.31 21.947 100.983 25.6364 97.2391C29.3257 93.4952 29.5682 87.752 29.5682 87.752C29.5682 87.752 23.8292 88.0789 20.1399 91.8228Z" fill="#FC6681"/>
<path d="M225.681 104.09C221.992 107.834 221.749 113.578 221.749 113.578C221.749 113.578 227.488 113.251 231.177 109.507C234.867 105.763 235.109 100.02 235.109 100.02C235.109 100.02 229.37 100.346 225.681 104.09Z" fill="#212121"/>
<path d="M44.8848 99.9751C40.0233 97.9766 34.6152 99.9251 34.6152 99.9251C34.6152 99.9251 37.0893 105.114 41.9508 107.112C46.8123 109.111 52.2203 107.162 52.2203 107.162C52.2203 107.162 49.7463 101.974 44.8848 99.9751Z" fill="#212121"/>
<path d="M106.012 92.4681C103.202 88.0261 97.6635 86.4878 97.6635 86.4878C97.6635 86.4878 96.6808 92.1515 99.4909 96.5935C102.301 101.036 107.84 102.574 107.84 102.574C107.84 102.574 108.822 96.9101 106.012 92.4681Z" fill="#FFD037"/>
<path d="M173.835 113C175.034 113 176.006 112.028 176.006 110.83C176.006 109.631 175.034 108.659 173.835 108.659C172.637 108.659 171.665 109.631 171.665 110.83C171.665 112.028 172.637 113 173.835 113Z" fill="#FC6681"/>
<path d="M178.899 136.15C180.097 136.15 181.069 135.179 181.069 133.98C181.069 132.781 180.097 131.81 178.899 131.81C177.7 131.81 176.729 132.781 176.729 133.98C176.729 135.179 177.7 136.15 178.899 136.15Z" fill="#FC6681"/>
<path d="M133.12 141.045C133.12 141.045 124.858 131.781 121.854 143.298C118.85 154.814 117.097 156.316 111.089 153.312C105.08 150.308 98.8213 164.578 113.592 174.842C128.363 185.107 120.101 195.246 120.101 195.246H172.926C172.926 195.246 179.936 174.842 164.664 167.832C149.393 160.823 149.894 155.565 150.394 148.555C150.895 141.545 133.12 141.045 133.12 141.045Z" fill="#212121"/>
<path d="M126.11 137.522C126.11 137.522 160.409 182.729 148.642 195.246" stroke="#535461" stroke-width="2" stroke-miterlimit="10"/>
<path d="M117.242 154.04C117.242 154.04 125.359 160.948 138.628 157.443C151.897 153.938 148.625 144.946 148.625 144.946" stroke="#535461" stroke-width="2" stroke-miterlimit="10"/>
<path d="M172.788 175.892C172.788 175.892 155.13 167.328 146.253 170.522C123.14 178.838 105.956 156.441 105.956 156.441" stroke="#535461" stroke-width="2" stroke-miterlimit="10"/>
<path d="M121.478 194.871C121.478 194.871 132.244 186.859 118.724 158.82C118.724 158.82 100.699 136.538 118.724 115.508C118.724 115.508 79.4187 116.51 80.1698 153.061C80.9209 189.613 99.8226 194.871 99.8226 194.871H121.478Z" fill="#212121"/>
<path d="M111.422 194.871C111.422 194.871 108.71 175.593 101.45 163.827C100.017 161.449 98.9861 158.852 98.399 156.139C95.9719 145.466 99.4318 134.306 107.271 126.668L118.724 115.508" stroke="#535461" stroke-width="2" stroke-miterlimit="10"/>
<path opacity="0.1" d="M121.478 194.871C121.478 194.871 132.244 186.859 118.724 158.82C118.724 158.82 100.699 136.538 118.724 115.508C118.724 115.508 79.4187 116.51 80.1698 153.061C80.9209 189.613 99.8226 194.871 99.8226 194.871H121.478Z" fill="black"/>
<path d="M217.974 194.65C217.974 194.65 181.136 186.415 228.008 138.223C228.008 138.223 248.213 157.372 240.8 181.177C237.82 190.748 228.233 196.657 218.523 194.763C218.342 194.728 218.159 194.69 217.974 194.65Z" fill="#212121"/>
<path opacity="0.4" d="M217.975 194.65C217.167 194.469 181.931 185.599 228.009 138.223C228.009 138.223 248.214 157.372 240.801 181.177C237.821 190.748 228.234 196.657 218.524 194.763C218.343 194.728 218.16 194.69 217.975 194.65Z" fill="white"/>
<path d="M218.458 194.924C218.458 194.924 237.915 165.612 228.008 138.223" stroke="#535461" stroke-miterlimit="10"/>
<path d="M65.5085 194.65C65.5085 194.65 28.6705 186.415 75.5419 138.223C75.5419 138.223 95.7467 157.372 88.3345 181.177C85.3543 190.748 75.7674 196.657 66.0575 194.763C65.8757 194.728 65.6927 194.69 65.5085 194.65Z" fill="#212121"/>
<path opacity="0.4" d="M65.5096 194.65C64.7007 194.469 29.4649 185.599 75.543 138.223C75.543 138.223 95.7478 157.372 88.3356 181.177C85.3554 190.748 75.7685 196.657 66.0586 194.763C65.8769 194.728 65.6938 194.69 65.5096 194.65Z" fill="white"/>
<path d="M65.9922 194.924C65.9922 194.924 85.4496 165.612 75.542 138.223" stroke="#535461" stroke-miterlimit="10"/>
<path d="M147.876 194.65C147.876 194.65 111.038 186.415 157.909 138.223C157.909 138.223 178.114 157.372 170.702 181.177C167.722 190.748 158.135 196.657 148.425 194.763C148.243 194.728 148.06 194.69 147.876 194.65Z" fill="#212121"/>
<path opacity="0.4" d="M147.876 194.65C147.067 194.469 111.831 185.599 157.909 138.223C157.909 138.223 178.114 157.372 170.702 181.177C167.722 190.748 158.135 196.657 148.425 194.763C148.243 194.728 148.06 194.69 147.876 194.65Z" fill="white"/>
<path d="M148.359 194.924C148.359 194.924 167.817 165.612 157.909 138.223" stroke="#535461" stroke-miterlimit="10"/>
<path d="M261.036 194.65C261.036 194.65 224.198 186.415 271.069 138.223C271.069 138.223 291.274 157.372 283.862 181.177C280.882 190.748 271.295 196.657 261.585 194.763C261.403 194.728 261.22 194.69 261.036 194.65Z" fill="#212121"/>
<path opacity="0.4" d="M261.036 194.65C260.227 194.469 224.991 185.599 271.069 138.223C271.069 138.223 291.274 157.372 283.862 181.177C280.882 190.748 271.295 196.657 261.585 194.763C261.403 194.728 261.22 194.69 261.036 194.65Z" fill="white"/>
<path d="M261.52 194.924C261.52 194.924 280.977 165.612 271.069 138.223" stroke="#535461" stroke-miterlimit="10"/>
<path d="M192.438 194.65C192.438 194.65 155.6 186.415 202.472 138.223C202.472 138.223 222.676 157.372 215.264 181.177C212.284 190.748 202.697 196.657 192.987 194.763C192.805 194.728 192.622 194.69 192.438 194.65Z" fill="#212121"/>
<path opacity="0.4" d="M192.439 194.65C191.63 194.469 156.395 185.599 202.473 138.223C202.473 138.223 222.677 157.372 215.265 181.177C212.285 190.748 202.698 196.657 192.988 194.763C192.807 194.728 192.624 194.69 192.439 194.65Z" fill="white"/>
<path d="M192.922 194.924C192.922 194.924 212.379 165.612 202.472 138.223" stroke="#535461" stroke-miterlimit="10"/>
<path d="M64.2752 191.772C65.3626 190.947 66.3827 189.975 66.696 188.791C66.8575 188.165 66.772 187.5 66.4571 186.935C66.1422 186.37 65.6221 185.947 65.0044 185.755C63.4508 185.27 61.7907 186.149 60.532 187.036C59.2734 187.923 57.8308 188.936 56.1835 188.748C57.8902 187.516 58.7014 185.513 58.2309 183.693C58.1506 183.301 57.9518 182.942 57.6615 182.667C56.7991 181.914 55.2357 182.237 54.2031 182.83C50.9192 184.715 50.0029 188.354 49.985 191.629C49.6538 190.448 49.9328 189.217 49.9246 188.005C49.9164 186.793 49.5093 185.449 48.2562 184.798C47.5121 184.412 46.5929 184.337 45.7115 184.31C44.2353 184.266 42.5912 184.387 41.5831 185.267C40.3305 186.362 40.6554 188.198 41.7451 189.403C42.8348 190.608 44.4923 191.363 46.0181 192.195C47.1808 192.83 48.3568 193.571 49.0717 194.572C49.1627 194.704 49.2387 194.847 49.298 194.996H58.5522C60.5857 194.162 62.5081 193.079 64.2752 191.772Z" fill="#212121"/>
<path d="M219.245 191.772C220.332 190.947 221.352 189.975 221.666 188.791C221.827 188.165 221.742 187.5 221.427 186.935C221.112 186.37 220.592 185.947 219.974 185.755C218.421 185.27 216.76 186.149 215.502 187.036C214.243 187.923 212.801 188.936 211.153 188.748C212.86 187.516 213.671 185.513 213.201 183.693C213.12 183.301 212.922 182.942 212.631 182.667C211.769 181.914 210.205 182.237 209.173 182.83C205.889 184.715 204.973 188.354 204.955 191.629C204.624 190.448 204.903 189.217 204.894 188.005C204.886 186.793 204.479 185.449 203.226 184.798C202.482 184.412 201.563 184.337 200.681 184.31C199.205 184.266 197.561 184.387 196.553 185.267C195.3 186.362 195.625 188.198 196.715 189.403C197.804 190.608 199.462 191.363 200.988 192.195C202.151 192.83 203.327 193.571 204.041 194.572C204.132 194.704 204.208 194.847 204.268 194.996H213.522C215.555 194.162 217.478 193.079 219.245 191.772Z" fill="#212121"/>
<path d="M169.456 173.755C177.549 188.765 194.727 195.209 194.727 195.209C194.727 195.209 198.782 177.316 190.688 162.306C182.595 147.296 165.417 140.853 165.417 140.853C165.417 140.853 161.362 158.745 169.456 173.755Z" fill="#3F3D56"/>
<path d="M175.018 168.817C189.631 177.608 195.258 195.07 195.258 195.07C195.258 195.07 177.195 198.278 162.583 189.487C147.97 180.696 142.343 163.234 142.343 163.234C142.343 163.234 160.406 160.026 175.018 168.817Z" fill="#212121"/>
<path d="M122.389 173.755C130.483 188.765 147.66 195.209 147.66 195.209C147.66 195.209 151.715 177.316 143.622 162.306C135.528 147.296 118.351 140.853 118.351 140.853C118.351 140.853 114.296 158.745 122.389 173.755Z" fill="#3F3D56"/>
<path d="M127.952 168.817C142.564 177.608 148.192 195.07 148.192 195.07C148.192 195.07 130.128 198.278 115.516 189.487C100.904 180.696 95.2764 163.234 95.2764 163.234C95.2764 163.234 113.34 160.026 127.952 168.817Z" fill="#212121"/>
<path d="M74.2603 123.029C60.2587 143.991 63.734 170.887 63.734 170.887C63.734 170.887 89.9105 163.797 103.912 142.835C117.914 121.874 114.438 94.978 114.438 94.978C114.438 94.978 88.2619 102.068 74.2603 123.029Z" fill="#3F3D56"/>
<path d="M84.5605 126.876C83.1936 152.047 64.2826 171.485 64.2826 171.485C64.2826 171.485 47.5877 150.114 48.9546 124.943C50.3214 99.7721 69.2324 80.334 69.2324 80.334C69.2324 80.334 85.9273 101.706 84.5605 126.876Z" fill="#FC6681"/>
<path d="M273.587 155.437C274.114 183.981 257.328 194.26 236.397 194.646C235.911 194.655 235.427 194.659 234.946 194.657C233.975 194.654 233.014 194.627 232.063 194.577C213.148 193.589 198.276 183.383 197.786 156.836C197.279 129.364 231.75 94.0461 234.336 91.434C234.338 91.4339 234.338 91.4339 234.34 91.4316C234.439 91.332 234.489 91.2822 234.489 91.2822C234.489 91.2822 273.06 126.894 273.587 155.437Z" fill="#212121"/>
<path d="M234.937 190.305L248.441 170.681L234.941 192.432L234.945 194.657C233.975 194.654 233.014 194.627 232.063 194.577L233.029 165.993L233.013 165.773L233.038 165.73L233.13 163.029L218.801 141.739L233.135 161.007L233.18 161.579L233.91 139.982L221.573 117.936L233.987 136.188L234.335 91.4336L234.337 91.2847L234.34 91.4312L234.796 126.711L246.408 112.507L234.801 129.75L234.843 149.075L245.59 130.331L234.852 151.916L234.876 162.662L250.492 136.558L234.882 166.41L234.937 190.305Z" fill="#3F3D56"/>
<path d="M214.753 155.437C215.28 183.981 198.494 194.26 177.563 194.646C177.077 194.655 176.593 194.659 176.112 194.657C175.141 194.654 174.18 194.627 173.229 194.577C154.314 193.589 139.442 183.383 138.952 156.836C138.445 129.364 172.916 94.0461 175.502 91.434C175.504 91.4339 175.504 91.4339 175.506 91.4316C175.605 91.332 175.655 91.2822 175.655 91.2822C175.655 91.2822 214.226 126.894 214.753 155.437Z" fill="#212121"/>
<path d="M176.104 190.305L189.608 170.681L176.108 192.432L176.112 194.657C175.142 194.654 174.181 194.627 173.23 194.577L174.196 165.993L174.18 165.773L174.205 165.73L174.297 163.029L159.968 141.739L174.302 161.007L174.347 161.579L175.077 139.982L162.74 117.936L175.154 136.188L175.502 91.4336L175.504 91.2847L175.507 91.4312L175.963 126.711L187.575 112.507L175.968 129.75L176.01 149.075L186.757 130.331L176.019 151.916L176.043 162.662L191.659 136.558L176.049 166.41L176.104 190.305Z" fill="#3F3D56"/>
<path d="M285.103 155.937C285.63 184.482 268.844 194.76 247.913 195.147C247.427 195.156 246.943 195.159 246.461 195.157C245.491 195.154 244.53 195.128 243.579 195.078C224.663 194.089 209.792 183.883 209.301 157.337C208.794 129.864 243.266 94.5465 245.852 91.9345C245.854 91.9344 245.854 91.9344 245.856 91.932C245.954 91.8325 246.005 91.7827 246.005 91.7827C246.005 91.7827 284.576 127.395 285.103 155.937Z" fill="#3F3D56"/>
<path d="M246.453 190.806L259.957 171.182L246.458 192.933L246.462 195.157C245.491 195.154 244.53 195.128 243.579 195.078L244.545 166.494L244.53 166.273L244.555 166.231L244.647 163.53L230.317 142.24L244.651 161.508L244.697 162.079L245.427 140.483L233.089 118.437L245.503 136.689L245.852 91.9346L245.854 91.7856L245.857 91.9322L246.312 127.212L257.925 113.008L246.317 130.251L246.36 149.576L257.107 130.832L246.368 152.417L246.392 163.163L262.008 137.059L246.399 166.911L246.453 190.806Z" fill="#FC6681"/>
<path d="M75.8067 155.436C76.3337 183.981 59.5482 194.259 38.6171 194.646C38.1309 194.655 37.647 194.658 37.1653 194.656C36.1948 194.653 35.2341 194.627 34.283 194.577C15.3673 193.588 0.495658 183.382 0.00554206 156.836C-0.501676 129.363 33.9697 94.0456 36.5556 91.4335C36.5579 91.4334 36.5579 91.4334 36.5602 91.4311C36.6585 91.3315 36.7088 91.2817 36.7088 91.2817C36.7088 91.2817 75.2797 126.894 75.8067 155.436Z" fill="#212121"/>
<path d="M37.1575 190.305L50.6617 170.681L37.1619 192.432L37.1657 194.657C36.1953 194.654 35.2345 194.627 34.2835 194.577L35.2497 165.993L35.234 165.773L35.2587 165.73L35.3508 163.029L21.0215 141.739L35.3554 161.007L35.4008 161.579L36.1307 139.982L23.7933 117.936L36.2072 136.188L36.5561 91.4336L36.558 91.2847L36.5607 91.4312L37.0166 126.711L48.6289 112.507L37.0215 129.75L37.0642 149.075L47.8108 130.331L37.0724 151.916L37.0963 162.662L52.7124 136.558L37.1027 166.41L37.1575 190.305Z" fill="#3F3D56"/>
<path d="M229.853 198.999C220.844 197.472 212.181 196.162 203.862 195.067L207.151 188.691C206.042 188.305 201.17 191.957 201.17 191.957L205.486 173.449C199.909 174.121 197.073 193.019 197.073 193.019L190.842 186.63L193.859 193.813C168.399 190.815 146.411 189.703 127.917 189.663L130.732 184.206C129.623 183.821 124.751 187.472 124.751 187.472L129.066 168.964C123.489 169.637 120.654 188.534 120.654 188.534L114.423 182.145L117.618 189.753C102.113 190.063 89.4699 191.122 79.7108 192.328C82.5577 183.827 92.2288 175.742 92.2288 175.742C84.8431 177.938 80.9688 181.619 78.9444 185.051C78.7635 167.51 81.6802 150.074 87.5603 133.547C87.5603 133.547 72.2943 166.768 74.2422 189.066L74.4752 193.026C61.5331 194.879 55.0264 196.807 55.0264 196.807L229.853 198.999Z" fill="#3F3D56"/>
<path d="M259.144 197.496C250.135 195.97 241.472 194.659 233.153 193.564L236.442 187.188C235.333 186.803 230.461 190.454 230.461 190.454L234.777 171.946C229.2 172.619 226.364 191.517 226.364 191.517L220.133 185.128L223.15 192.311C197.69 189.312 175.702 188.201 157.208 188.161L160.023 182.703C158.914 182.318 154.042 185.97 154.042 185.97L158.357 167.462C152.78 168.134 149.945 187.032 149.945 187.032L143.714 180.643L146.909 188.251C131.405 188.561 118.761 189.619 109.002 190.826C111.849 182.325 121.52 174.239 121.52 174.239C114.134 176.436 110.26 180.117 108.235 183.548C108.055 166.007 110.971 148.572 116.851 132.045C116.851 132.045 101.585 165.265 103.533 187.564L103.766 191.524C90.8241 193.377 84.3174 195.305 84.3174 195.305L259.144 197.496Z" fill="#3F3D56"/>
<path d="M292.692 200C283.683 198.474 275.02 197.163 266.701 196.068L269.99 189.692C268.881 189.307 264.009 192.958 264.009 192.958L268.324 174.45C262.747 175.123 259.912 194.021 259.912 194.021L253.681 187.631L256.697 194.815C231.238 191.816 209.25 190.705 190.756 190.664L193.57 185.207C192.462 184.822 187.59 188.474 187.59 188.474L191.905 169.966C186.328 170.638 183.493 189.536 183.493 189.536L177.262 183.147L180.457 190.755C164.952 191.065 152.309 192.123 142.55 193.33C145.397 184.828 155.068 176.743 155.068 176.743C147.682 178.94 143.808 182.621 141.783 186.052C141.602 168.511 144.519 151.076 150.399 134.549C150.399 134.549 135.133 167.769 137.081 190.068L137.314 194.027C124.372 195.881 117.865 197.809 117.865 197.809L292.692 200Z" fill="#3F3D56"/>
<path d="M181.784 197.496C172.776 195.97 164.112 194.659 155.794 193.564L159.082 187.188C157.973 186.803 153.102 190.454 153.102 190.454L157.417 171.946C151.84 172.619 149.005 191.517 149.005 191.517L142.774 185.128L145.79 192.311C120.331 189.312 98.3429 188.201 79.8486 188.161L82.6632 182.703C81.5543 182.318 76.6824 185.97 76.6824 185.97L80.9981 167.462C75.4211 168.134 72.5855 187.032 72.5855 187.032L66.3545 180.643L69.5496 188.251C54.0451 188.561 41.4015 189.619 31.6425 190.826C34.4894 182.325 44.1604 174.239 44.1604 174.239C36.7747 176.436 32.9005 180.117 30.8761 183.548C30.6952 166.007 33.6119 148.572 39.492 132.045C39.492 132.045 24.226 165.265 26.1739 187.564L26.4069 191.524C13.4647 193.377 6.95801 195.305 6.95801 195.305L181.784 197.496Z" fill="#3F3D56"/>
</g>
<defs>
<clipPath id="clip0">
<rect width="292.691" height="200" fill="white"/>
</clipPath>
</defs>
</svg>
