<svg width="130" height="212" viewBox="0 0 130 212" fill="none" xmlns="http://www.w3.org/2000/svg">
<path d="M60.2 90.7999L85.1 153.8L101.9 207.1H108.5L82.9 90.7999H60.2Z" fill="#FCD6D6"/>
<path d="M55.1999 90.7999C54.8999 113 51.1 142.8 50.4 144.2C50 145.1 35.8 156.8 7.69995 179.3L12.1999 184.2C45.2999 164.9 62.5999 154 64.0999 151.4C66.3999 147.5 73.9 112 79.9 90.7999H55.1999Z" fill="#FCD6D6"/>
<path d="M7.15987 177.617C5.62513 178.122 4.58965 178.599 3.97682 179.113C3.28738 179.692 2.34347 180.745 1.23403 182.067C1.9411 182.91 8.04761 190.187 19.6178 203.976C21.9828 202.905 22.7216 201.763 21.8463 200.409C20.9711 199.055 20.2886 197.93 19.6582 197.023L15.6287 183.043C15.5125 182.749 15.2431 182.583 14.949 182.699L12.7618 183.36C11.2614 182.661 10.2602 181.934 9.68172 181.245C9.16749 180.632 8.7545 179.673 8.3785 178.291C8.3512 177.792 7.81233 177.461 7.15987 177.617C7.23647 177.553 7.15987 177.617 7.15987 177.617Z" fill="#77100B"/>
<path d="M99.2001 204.6C98.6001 206.1 98.3 207.2 98.3 208C98.3 208.9 98.5 210.3 98.8 212C99.9 212 109.4 212 127.4 212C128.1 209.5 127.7 208.2 126.1 208C124.5 207.8 123.2 207.6 122.1 207.5L108.8 201.6C108.5 201.5 108.2 201.6 108.1 201.9L107.2 204C105.7 204.7 104.5 205 103.6 205C102.8 205 101.8 204.7 100.5 204.1C100 203.8 99.4001 204.1 99.2001 204.6Z" fill="#77100B"/>
<path d="M77 201.6L108.4 198.2L85.1 90.7999H57L77 201.6Z" fill="#0981D3"/>
<path d="M14.3 171.4L34.9 195.8C56.6 172.1 69.2001 156.7 72.8 149.5C76.4 142.3 79.6 122.7 82.5 90.7999H50.9C49.3 118.9 48.2999 133.5 47.7 134.8C47.1 136.1 36 148.3 14.3 171.4Z" fill="#1898FC"/>
<path d="M63.9 26.7C61.6 24 60 20.6 60.2 16.8C61 5.90002 76.0999 8.30001 78.9999 13.8C81.8999 19.3 81.6 33.2 77.8 34.2C76.3 34.6 73.1 33.6 69.8 31.7L71.9 46.3H59.7L63.9 26.7Z" fill="#FCD6D6"/>
<path d="M84.5 6.19991C84.2 5.29991 83.6 4.59991 82.7 4.29991C82.5 4.19991 82.2 4.19991 82 4.19991C81.9 4.19991 81.9001 4.19991 81.9001 4.19991C81.9001 4.19991 81.9001 4.09991 81.9001 3.99991C81.9001 3.79991 81.8001 3.69991 81.8001 3.49991C81.6001 2.99991 81.3001 2.49991 80.9001 2.19991C80.2001 1.49991 79.2 0.999902 78.2 0.899902C77.6 0.899902 77.1 0.899915 76.6 1.09991C76.3 1.19991 76.1001 1.2999 75.8001 1.3999C75.7001 1.3999 75.5001 1.59991 75.4001 1.59991C75.3001 1.59991 75.1 1.39991 75.1 1.29991C74.2 0.599912 73.2 0.399902 72.1 0.399902C70.9 0.399902 69.7 0.499905 68.7 1.19991C68.5 1.39991 68.3 1.49991 68.1 1.69991C68 1.79991 67.9001 1.89991 67.8001 1.99991C67.7001 2.09991 67.7 2.09991 67.6 2.19991C67.5 2.29991 67.5001 2.29991 67.4001 2.29991C66.9001 1.99991 66.3001 1.8999 65.8001 1.8999C65.5001 1.8999 65.1001 1.99991 64.8001 2.19991C64.7001 2.19991 64.4001 2.3999 64.3001 2.3999C64.2001 2.3999 63.9001 2.19991 63.8001 2.19991C63.2001 1.99991 62.5001 1.89991 61.8001 1.99991C61.1001 2.09991 60.5001 2.39991 59.9001 2.79991C59.6001 2.99991 59.4 3.1999 59.2 3.3999C59.1 3.4999 59.0001 3.59991 58.9001 3.69991C58.8001 3.79991 58.7 3.7999 58.7 3.8999C58.7 3.8999 58.0001 3.59991 57.9001 3.49991C57.5001 3.39991 57.1001 3.39991 56.8001 3.49991C56.1001 3.69991 55.5 4.19991 55 4.79991C54.7 5.09991 54.5001 5.39991 54.3001 5.69991C54.2001 5.89991 54.1 5.99991 54.1 6.19991C54.1 6.29991 54 6.3999 54 6.3999C53.9 6.4999 53.9001 6.49991 53.8001 6.49991C53.2001 6.69991 52.7001 6.99991 52.3001 7.49991C51.9001 7.99991 51.6 8.49991 51.5 9.09991V9.29991C51.5 9.29991 51.4001 9.29991 51.3001 9.29991C51.1001 9.29991 51.0001 9.2999 50.8001 9.3999C50.5001 9.4999 50.3 9.59991 50 9.69991C49 10.1999 48.3 11.0999 48 12.0999C47.6 13.1999 47.6 14.3999 48.1 15.4999C48.2 15.6999 48.3001 15.7999 48.3001 15.9999C48.4001 16.0999 48.4001 16.0999 48.3001 16.1999C48.3001 16.2999 48.2 16.3999 48.1 16.4999C47.9 16.8999 47.8 17.1999 47.7 17.5999C47.6 18.1999 47.5 18.8999 47.6 19.4999C47.7 19.7999 47.8001 20.0999 47.9001 20.3999C48.0001 20.4999 48.1 20.6999 48.2 20.7999C48.3 20.8999 48.3001 20.8999 48.4001 20.9999L48.5 21.0999C48.6 21.1999 48.6 21.0999 48.5 21.1999C48.5 21.3999 48.3001 21.5999 48.3001 21.6999C48.2001 21.8999 48.2 22.0999 48.1 22.1999C48 22.5999 47.9001 22.9999 47.8001 23.2999C47.7001 23.9999 47.7 24.7999 48.1 25.4999C48.3 25.7999 48.5 25.9999 48.7 26.1999C48.8 26.2999 49 26.3999 49.1 26.4999C49.2 26.4999 49.3001 26.5999 49.3001 26.5999C49.3001 26.6999 49.3001 26.7999 49.3001 26.8999C49.2001 27.6999 49.1001 28.3999 49.4001 29.1999C49.6001 29.8999 50.1 30.4999 50.7 30.8999C51.8 31.6999 53.4 31.5999 54.6 30.9999C54.9 30.7999 55.2 30.5999 55.5 30.3999C56.2 31.2999 57.5 31.2999 58.5 30.9999C59.7 30.6999 60.7001 29.7999 61.3001 28.6999C62.1001 29.5999 63.7 29.2999 64.2 28.2999C64.3 28.0999 64.4001 27.7999 64.4001 27.4999C64.4001 27.3999 64.4001 27.1999 64.4001 27.0999C64.4001 26.8999 64.5 26.6999 64.6 26.5999C64.7 26.2999 64.8001 25.8999 64.8001 25.4999C64.8001 25.2999 64.8001 25.0999 64.8001 24.8999C64.8001 24.6999 64.8001 24.5999 64.9001 24.3999C64.6001 24.4999 64.2001 24.3999 63.9001 24.2999C63.6001 24.1999 63.3 23.9999 63.1 23.7999C62.6 23.2999 62.3 22.6999 62.1 21.9999C61.7 20.5999 61.8001 18.8999 63.3001 18.0999C64.0001 17.6999 66 17.6999 66.7 17.8999C67.5 18.0999 68.5 19.8999 68.5 20.0999C68.5 20.1999 68.5 20.2999 68.6 20.3999C68.8 20.5999 69.2001 20.2999 69.3001 20.1999C69.6001 19.9999 69.8001 19.6999 69.9001 19.2999C70.3001 18.5999 70.6001 17.8999 70.8001 17.0999C71.0001 16.4999 71.1001 15.8999 71.3001 15.3999C71.5001 14.7999 71.8001 14.2999 72.4001 13.9999C73.0001 13.6999 73.6 13.4999 74.2 13.2999C74.8 13.0999 75.4001 12.7999 75.9001 12.3999C76.0001 12.2999 76.1 12.1999 76.2 12.0999C76.3 11.9999 76.3001 11.7999 76.4001 11.7999C76.6001 11.6999 76.8001 11.8999 76.9001 11.9999C77.6001 12.3999 78.1 12.9999 78.6 13.6999C79 14.2999 79.4 14.9999 79.7 15.6999C79.9 16.1999 80.1 16.8999 80.5 17.3999C80.7 17.5999 82.0001 17.6999 82.4001 17.4999C82.8001 17.2999 83.3001 16.8999 83.4001 16.5999C83.5001 16.2999 83.6 15.9999 83.5 15.6999C83.5 15.4999 83.4001 15.2999 83.3001 15.1999C83.3001 14.9999 83.2 14.8999 83.2 14.7999C83.1 14.4999 82.8 14.2999 82.5 14.2999C82.8 13.9999 83 13.6999 83.2 13.2999C83.4 12.8999 83.5 12.4999 83.6 11.9999C83.6 11.6999 83.6001 11.2999 83.4001 10.9999C83.2001 10.6999 82.9 10.4999 82.6 10.2999C83.1 9.89991 83.5001 9.49991 83.8001 8.99991C84.4001 8.49991 84.8 7.39991 84.5 6.19991Z" fill="#CE310D"/>
<path d="M80.4 21.7998C80.5 23.8998 83.6 25.7998 83.1 27.8998C82.5 28.2998 80.3 28.9998 79.9 28.3998" fill="#FCD6D6"/>
<path d="M80.5 20.7998L79.6 20.8998C79.3 20.8998 79 20.8998 78.8 20.8998C78.5 20.8998 78.2 20.8998 78 20.7998C77.7 20.7998 77.5 20.6998 77.1 20.6998C77.2 20.2998 77.6 20.0998 77.9 19.9998C78.2 19.8998 78.5 19.7998 78.9 19.7998C79.2 19.7998 79.5 19.8998 79.9 19.9998C80 20.1998 80.3 20.3998 80.5 20.7998Z" fill="#CE310D"/>
<path d="M79.7 30.8C79.1 30.9 78.5 30.8999 77.9 30.8999C77.3 30.7999 76.7 30.6 76.1 30.2L74.5 28.7L76.5 29.3C77 29.5 77.6 29.6 78.1 29.8C78.4 29.9 78.7 30 78.9 30.1C79.2 30.2 79.5 30.3 79.7 30.5C79.4 30.4 79.1 30.3999 78.9 30.3999C78.6 30.3999 78.3 30.3999 78.1 30.3999C77.5 30.3999 77 30.3999 76.4 30.3999L76.8 29.5C77.1 29.9 77.5 30.1999 78 30.3999C78.6 30.5999 79.2 30.7 79.7 30.8Z" fill="#CE310D"/>
<path d="M78.9 23.0999C79.2314 23.0999 79.5 22.8313 79.5 22.4999C79.5 22.1685 79.2314 21.8999 78.9 21.8999C78.5687 21.8999 78.3 22.1685 78.3 22.4999C78.3 22.8313 78.5687 23.0999 78.9 23.0999Z" fill="#CE310D"/>
<path d="M101.8 77.8L118 89.7001C122.4 90.9001 126.1 92.4001 129 94.1001C129.7 94.7001 130.5 96 127.7 95.8C124.8 95.6 121.8 95.5 121.4 96.5C121 97.5 122.7 98.7 121.9 100C121.4 100.9 118.8 98.7 114.3 93.3L98.2999 86.7001L101.8 77.8ZM28.5999 72.8L37.4999 74.4C27.0999 95 21.5999 105.9 20.7999 107.1C19.0999 109.8 20.7999 114.6 21.3999 117.1C17.6999 118 19.0999 112.4 14.3999 113.7C10.1999 114.8 6.5999 117.6 2.4999 114C1.9999 113.6 1.59988 112.2 3.29988 111.4C7.39988 109.5 13.4999 106 14.4999 104.7C15.8999 102.9 20.5999 92.3 28.5999 72.8Z" fill="#FCD6D6"/>
<path d="M105.6 79.1001C107.7 79.0001 109.9 79.3001 112.4 80.1001C113.6 80.5001 114.2 81.8001 113.8 83.0001C113.6 83.7001 113 84.2001 112.4 84.4001C112.9 84.7001 113.3 85.1001 113.8 85.4001L109.7 93.7001C92.4998 85.1001 76.3999 78.7001 68.9999 64.5001C66.4999 59.8001 67.3999 43.6001 67.0999 37.8001L72.4999 35.6001C80.0999 51.3001 90.3999 66.3001 105.6 79.1001Z" fill="#CE310D"/>
<path d="M48.0999 92.4C64.0999 94.2 76.5999 94.2 85.7999 92.4C86.8999 92.2 86.8999 87.3 86.3999 86C78.1999 65.2 72.7999 50 72.7999 35.5C71.2999 36.3 68.6999 36.4 64.8999 35.9C54.6999 50.7 50.0999 67.8 48.0999 92.4Z" fill="#77100B"/>
<path d="M45.0999 94.9C44.5999 94.4 44.2999 93.6 44.3999 92.8L44.6998 91.3C44.8998 90.3 45.6998 89.5 46.6998 89.4C46.8998 88.6 46.9999 87.9 47.0999 87.1C48.0999 80.8 46.3999 74.5 46.4999 68.4C38.2999 75.4 30.9999 87.4 24.4999 104.5L14.8999 101.7C15.2999 100.3 15.5999 99 15.9999 97.7C14.8999 97.1 13.5999 94.2 14.4999 93.7C15.4999 93.2 16.4999 92.9 17.5999 92.6C26.3999 66.1 40.7998 46.8 60.6998 34.5H63.3999H66.3999C64.6999 57 88.1999 106 79.9999 147.9C64.8999 151.3 43.3999 140.8 22.4999 149.2C23.3999 132.4 38.9999 112.6 45.0999 94.9Z" fill="#FC4E24"/>
<path d="M62.8999 35.1001L60.1998 43.1001L65.4999 49.2001L60.6998 53.9001L72.2999 73.7001L58.1998 54.0001L62.8999 49.2001L58.1998 43.8001L62.8999 35.1001Z" fill="black" fill-opacity="0.1"/>
<path d="M68.8999 81.3C67.7999 81.3 66.8999 80.4 66.8999 79.3C66.8999 78.2 67.7999 77.3 68.8999 77.3C69.9999 77.3 70.8999 78.2 70.8999 79.3C70.8999 80.4 69.9999 81.3 68.8999 81.3ZM71.3999 92.9001C70.2999 92.9001 69.3999 92.0001 69.3999 90.9001C69.3999 89.8001 70.2999 88.9001 71.3999 88.9001C72.4999 88.9001 73.3999 89.8001 73.3999 90.9001C73.4999 92.0001 72.4999 92.9001 71.3999 92.9001ZM71.8999 104.6C70.7999 104.6 69.8999 103.7 69.8999 102.6C69.8999 101.5 70.7999 100.6 71.8999 100.6C72.9999 100.6 73.8999 101.5 73.8999 102.6C73.8999 103.7 73.0999 104.6 71.8999 104.6Z" fill="black" fill-opacity="0.4"/>
</svg>
