<svg width="209" height="200" viewBox="0 0 209 200" fill="none" xmlns="http://www.w3.org/2000/svg">
<path d="M31.9 119.2H31.1V196H84H84.9V119.2H31.9Z" fill="#FCD6D6"/>
<path d="M31.1 119.2L37.4 112.1H78.6L84.9 119.2H31.1Z" fill="#F9E8E8"/>
<path d="M62.8 113.8C70.8 109 76.7 91.9999 76.7 84.0999C76.7 76.2999 71 69.7999 63.3 67.7999V58.4999H66.4V56.3999H50.3V58.4999H53.4V67.7999C45.7 69.7999 40 76.3999 40 84.0999C40 92.0999 46 109 54.1 113.8C50.1 114 47.3 114.5 47.3 115.1C47.3 115.9 52.3 116.5 58.4 116.5C64.5 116.5 69.5 115.9 69.5 115.1C69.5 114.5 66.7 114 62.8 113.8Z" fill="#CE310D"/>
<path d="M58.5 92.9998C64.6856 92.9998 69.7 88.7017 69.7 83.3998C69.7 78.0979 64.6856 73.7998 58.5 73.7998C52.3144 73.7998 47.3 78.0979 47.3 83.3998C47.3 88.7017 52.3144 92.9998 58.5 92.9998Z" fill="#F96353"/>
<path d="M97.7 140.3C94.3999 142 90.9 143.6 87.3 144.8C68.7001 151.4 47.6 151.4 29 145C25.2 143.7 21.5 142.1 18 140.3L15.3 143.3C18.9 145.2 22.7 146.8 26.6 148.2C36.3 151.6 46.9 153.4 57.8 153.4C68.9 153.4 79.6 151.6 89.5 148C93.2 146.7 96.8 145.1 100.3 143.3L97.7 140.3Z" fill="#EA3815"/>
<path d="M26.9 197.7C25.8 196.6 23.4 195.9 20.6 195.9H17.5V142.2V140.3H14.2H10.8V142.2V195.9H7.69995C4.89995 195.9 2.50002 196.7 1.40002 197.7C1.00002 198.1 0.800049 198.5 0.800049 199V199.4H27.4V199C27.4 198.5 27.2 198.1 26.9 197.7Z" fill="#EA3815"/>
<path d="M19.5 139.3H16.2V128.5H12.1V139.3H8.90002C8.40002 139.3 8 139.7 8 140.2C8 140.7 8.40002 141.1 8.90002 141.1H12.1V142.4H16.2V141.1H19.5C20 141.1 20.4 140.7 20.4 140.2C20.4 139.7 20 139.3 19.5 139.3Z" fill="#EA3815"/>
<path d="M16.8 119.5C16 119.2 15.1 119 14.1 119C11.3 119 8.99998 120.6 8.09998 122.8C7.89998 123.4 7.69995 124 7.69995 124.7C7.69995 127.8 10.5 130.3 14 130.3C17.5 130.3 20.3 127.8 20.3 124.7C20.4 122.4 19 120.4 16.8 119.5Z" fill="#EA3815"/>
<path d="M113.6 197.2C112.5 196.1 110.1 195.4 107.3 195.4H104.2V141.7V139.8H100.9H97.5V141.7V195.4H94.4C91.6 195.4 89.2 196.2 88.1 197.2C87.7 197.6 87.5 198 87.5 198.5V198.9H114.1V198.5C114.2 198 113.9 197.6 113.6 197.2Z" fill="#EA3815"/>
<path d="M106.2 138.8H102.9V128H98.8V138.8H95.6C95.1 138.8 94.7 139.2 94.7 139.7C94.7 140.2 95.1 140.6 95.6 140.6H98.8V141.9H102.9V140.6H106.2C106.7 140.6 107.1 140.2 107.1 139.7C107.1 139.2 106.7 138.8 106.2 138.8Z" fill="#EA3815"/>
<path d="M103.5 119C102.7 118.7 101.8 118.5 100.8 118.5C98 118.5 95.7 120.1 94.8 122.3C94.6 122.9 94.4 123.5 94.4 124.2C94.4 127.3 97.2 129.8 100.7 129.8C104.2 129.8 107 127.3 107 124.2C107.2 121.9 105.7 119.9 103.5 119Z" fill="#EA3815"/>
<path d="M171.9 78.3L154.2 139.1L145.9 184.8H137.6L145.9 78.3H171.9Z" fill="#F96353"/>
<path d="M179.8 78.3C178.6 109.9 179.1 127.1 179.3 130C179.5 132.9 181.1 152.1 191.8 185.7H183.1C169 153.4 164.1 134.2 162.4 130C160.8 125.8 156 108.5 149 78.3H179.8Z" fill="#F96353"/>
<path d="M172.3 78.3C167.7 99.2 159.8 132.6 148.5 178.5H136.3C135.4 131.4 139.2 100.4 145.9 78.3H172.3Z" fill="#B2230B"/>
<path d="M179.9 78.3C178.7 109.9 181.8 141 191.5 179H178.5C164.4 147.2 154.2 116.2 147.3 78.3H179.9Z" fill="#CE310D"/>
<path d="M193.1 192L192.6 184.3C189.8 185.1 186.3 184.8 182.1 183.3C177.6 186.5 171.9 188.7 165 189.9C164.5 190 164.1 190.5 164.2 191V191.1L164.9 193.4H182.1H192.1L193.1 192Z" fill="#B2230B"/>
<path d="M147.8 192L147.3 184.3C144.5 185.1 141 184.8 136.8 183.3C132.3 186.5 126.6 188.7 119.7 189.9C119.2 190 118.8 190.5 118.9 191V191.1L119.6 193.4H136.8H146.8L147.8 192Z" fill="#B2230B"/>
<path d="M165.4 18.3999C167.6 15.7999 169.1 12.5999 168.9 8.99991C168.2 -1.30009 153.8 0.999905 151 6.1999C148.2 11.3999 148.5 24.5999 152.1 25.4999C153.5 25.8999 156.6 24.9999 159.7 23.0999L157.7 36.9999H169.3L165.4 18.3999Z" fill="#F96353"/>
<path d="M159.2 10.2C158.8 16.4 157.6 19.4 155.7 19.4C152.9 19.4 150.4 17.6 149.2 17.6C148.3 17.6 148.5 18.7 149.1 19.6C149.6 20.3 152 21 152 22.1C152 23.2 150.1 22.3 150.1 23C150.1 24.1 149.8 26.1 151.6 26.1C153.5 26.1 158.8 25.4 159.7 22.7C160.3 20.9 160.7 17.2 160.8 11.6C160.9 11.6 161 11.6 161.1 11.6C162.7 11.6 164 12.9 164 14.5C164 15.3 163.7 16 163.1 16.6C163.8 17.5 164.5 18.5 165.4 19.5C168.6 17.6 171.5 11.9 168.3 6.5C167.4 3.8 165 2.4 162.6 1.7C160.7 0.9 158.8 0.800006 157.1 1.30001C153.9 1.60001 151 2.6 150.1 3.2C150.1 6.3 150.7 7.20001 155.8 7.10001C157.3 7.60001 158.2 8.7 159.2 10.2Z" fill="#77100B"/>
<path d="M149.5 12C149.8 13.9 147.3 15.3 147.4 17.1C148.2 17.3 149 17.5 149.8 17.6" fill="#F96353"/>
<path d="M150.4 10.8C150.9 10.2 151.6 10.1 152.3 10.2C152.6 10.3 153 10.4 153.3 10.7C153.6 10.9 153.8 11.3 153.7 11.7C153.4 11.5 153.1 11.4 152.9 11.4C152.7 11.3 152.4 11.3 152.2 11.2C151.6 11 151.1 11 150.4 10.8Z" fill="#77100B"/>
<path d="M151.4 13.0999C151.731 13.0999 152 12.8313 152 12.4999C152 12.1685 151.731 11.8999 151.4 11.8999C151.069 11.8999 150.8 12.1685 150.8 12.4999C150.8 12.8313 151.069 13.0999 151.4 13.0999Z" fill="#77100B"/>
<path d="M135.9 75.5L121.7 83.8999C118.1 89.4999 116.1 91.9 115.4 91.2C114.5 90.1 116 88.7 115.4 87.8C114.8 86.9 112 87.4 109.4 88C106.7 88.6 107.3 87.3 107.9 86.6C110.4 84.6 113.7 82.7 117.7 81L131.3 67.7L135.9 75.5ZM198.1 100.3C198.8 101.7 203.9 106 207.4 108.4C208.8 109.4 208.2 110.6 207.7 111C203.3 113.7 200.5 110.5 196.7 108.7C192.6 106.8 192.9 112.2 189.6 110.7C190.6 108.4 193 104.2 191.9 101.5C191.4 100.3 188 89.6 181.8 69.6H191.9C195.1 88.1 197.2 98.4 198.1 100.3Z" fill="#F96353"/>
<path d="M163.3 27.2999L159.1 26.5999C151.9 44.4999 139.4 60.7998 121.5 75.3998L135 91.7999C153 70.8998 164 49.3999 163.3 27.2999Z" fill="#EA3815"/>
<path d="M181.5 79.6H144.4C153 58.7 157.3 40.9999 157.3 26.3999L168.5 24.7C177.3 38.8 179.7 56.2 181.5 79.6Z" fill="#DDE3E9"/>
<path d="M168.7 24.7H168C167.1 24.7 165.8 24.7999 164 24.8999L161.3 32.6C161 42 159.3 61 156.3 89.5H180.6C180.5 91.5 180.4 93.5 180.3 95.5H198.4C195.6 65 185.8 41.4 168.7 24.7Z" fill="#FC4E24"/>
<path d="M179 64.3C178.3 76.6 176.6 85.1 173.8 89.7H180.6C180.9 80.9 180.3 72.4 179 64.3Z" fill="black" fill-opacity="0.1"/>
<path d="M175.2 74.8L163.2 69.2V74.8H175.2Z" fill="white" fill-opacity="0.2"/>
</svg>
