<svg width="1136" height="504" viewBox="0 0 1136 504" fill="none" xmlns="http://www.w3.org/2000/svg">
<path d="M312.8 58.9L329.6 49.8C332.4 46.5 335.2 43.9 337.9 42.1C338.7 41.8 340.2 41.6 338.8 44C337.4 46.4 336.1 49 336.8 49.7C337.5 50.5 339.2 49.4 340 50.7C340.5 51.5 337.6 52.8 331.2 54.5L319 65.6L312.8 58.9Z" fill="#997659"/>
<path d="M272.8 41.0001L280.7 38.6001C289 55.0001 303.4 62.0001 325.1 49.6001L336.4 70.5001C315.9 81.4001 293.7 79.9001 281 57.9001C277.8 52.3001 274.7 46.3001 272.8 41.0001Z" fill="#680436"/>
<path opacity="0.59" d="M222.7 217.9C203.9 216.6 189.1 226.7 172.5 231.1C130.3 242 85.0999 244.1 55.4999 270.4C39.5999 284.6 30.1999 301.8 24.7999 319.3C14.9999 351 18.3999 386 43.8999 413.2C95.7999 468.7 218.4 477.4 304.8 482.7C416.4 489.6 528.7 484.5 640.4 489.1C758.8 494 877.3 509.8 995.2 500.4C1025.8 498 1056.8 493.6 1083.4 482.9C1110 472.1 1131.7 454 1135.3 432.8C1138.4 414 1126.7 395 1108.2 381C1089.6 367.1 1064.8 357.7 1039.1 351.1C968.1 332.8 889.8 333.9 816.5 320.4C681.9 295.7 564.6 209.9 420 214.9" fill="#B2DD80"/>
<path d="M302.2 398.2H207.2L213.4 356.6H296L302.2 398.2Z" fill="#2F3676"/>
<path d="M315.4 402.3H193.3V409.2H315.4V402.3Z" fill="#2F3676"/>
<path d="M193.3 402.3L207.2 398.2H302.2L315.4 402.3H193.3Z" fill="#AAB2D1"/>
<path d="M76.0996 324V348.3C76.0996 352.9 79.7996 356.6 84.3996 356.6H425C429.6 356.6 433.3 352.9 433.3 348.3V324H76.0996Z" fill="#AAB2D1"/>
<path d="M433.3 324V116.5C433.3 111.9 429.6 108.2 425 108.2H84.3996C79.7996 108.2 76.0996 111.9 76.0996 116.5V324H433.3Z" fill="#2F3676"/>
<path d="M422.1 119H86.7998V311.5H422.1V119Z" fill="#DFE3ED"/>
<path d="M253.3 345.3C256.448 345.3 259 342.748 259 339.6C259 336.452 256.448 333.9 253.3 333.9C250.152 333.9 247.6 336.452 247.6 339.6C247.6 342.748 250.152 345.3 253.3 345.3Z" fill="#2F3676"/>
<path d="M876.7 371.8C876.8 371.7 877 371.5 877.1 371.4C877.2 371.7 877 371.9 876.7 371.8Z" fill="#FEFEFE"/>
<path d="M184.5 272.1H166.2V289.3L144 272.1H23.7C17.6 272.1 12.5 267.1 12.5 260.9V205.4C12.5 199.3 17.5 194.2 23.7 194.2H184.6C190.7 194.2 195.8 199.2 195.8 205.4V260.9C195.7 267.1 190.7 272.1 184.5 272.1Z" fill="white"/>
<path d="M524.6 216H383.6C378.8 216 374.9 210.4 374.9 203.6V188.7L349.3 178.6L374.9 169.3V150.5C374.9 143.7 378.8 138.1 383.6 138.1H524.5C529.3 138.1 533.2 143.7 533.2 150.5V203.6C533.3 210.5 529.3 216 524.6 216Z" fill="white"/>
<path d="M32.4001 266.9C30.2001 265.2 28.5001 262.8 28.2001 259.9C27.2001 251.5 39.0001 251.2 42.1001 254.9C45.2001 258.6 46.9001 269.2 44.1001 270.5C43.0001 271 40.4001 270.8 37.6001 269.7L41.3001 280.5L32.1001 282.3L32.4001 266.9Z" fill="#B28B67"/>
<path d="M32.1 268.9C30 264 26 261.1 26 258.7C26 257.1 26.8 256 28.1 255.3C28.3 252.1 30.5 250.3 34.7 250C41 249.5 45.2 251.4 44.7 257.3C43.2 257.6 41.3 257.4 39 258.8C38.3 259.2 37.9 260.3 37.8 261.9L36.7 262.1C35.3 260.5 34.1 260 33.1 260.7C32.1 261.4 32.1 262.6 33 264.3L33.3 268.7L32.1 268.9Z" fill="#191847"/>
<path d="M25.8999 332.8L42.6999 391.6L54.8999 435H63.7999L50.7999 332.8H25.8999Z" fill="#191847"/>
<path d="M21.3998 332.8C20.9998 363.1 19.6998 379.7 19.2998 382.4C18.8998 385.2 12.6998 402.7 0.799805 435H9.9998C25.1998 404 33.5998 386.5 35.3998 382.4C37.1998 378.3 42.5998 361.8 50.7998 332.8H21.3998Z" fill="#2F3676"/>
<path d="M0 443.3L0.5 433.6H10.2C14.8 436.8 20.8 439.5 28.2 441.5V443.3H10.6L4.6 442.4V443.3H0V443.3Z" fill="#191847"/>
<path d="M53.6001 443.3L54.1001 433.6H63.8001C68.4001 436.8 74.4001 439.5 81.8001 441.5V443.3H64.2001L58.2001 442.4V443.3H53.6001V443.3Z" fill="#191847"/>
<path d="M68.2002 282.5C70.8002 280.7 74.4002 279.6 77.3002 278.4C80.4002 277.1 83.5002 275.9 86.6002 274.7C88.8002 273.8 90.1002 271.1 92.3002 270.4C93.2002 270.1 94.5002 269.2 94.1002 270.6C93.7002 272.1 93.3002 272.1 94.7002 272.4C96.1002 272.7 102.3 271.3 104.2 271.8C105.4 272.1 97.9002 275.4 90.2002 277.3L80.3002 285C76.4002 284.2 71.9002 283.9 68.2002 282.5Z" fill="#B28B67"/>
<path d="M34.7 290.6C51.5 289.5 66.6 283.8 84.3 273.6L88.1 282.3C74.1 296.3 61.4 306.8 46.7 305.3C43 304.9 37.2 297.8 31.5 296L34.7 290.6Z" fill="#E23758"/>
<path d="M20.5 332.9H55.7C47.7 308.6 43.6 291.8 43.5 282.8C43.5 282.3 42.6 281.5 42.3 281.6C39.5 282.4 36.6 282.1 33.4 280.7C25 294.2 22.1 310.7 20.5 332.9Z" fill="#F2F2F2"/>
<path d="M65.8003 262.5L79.7003 254.9C83.2003 249.6 85.2003 247.4 85.8003 248.1C86.7003 249.2 85.3003 250.5 85.8003 251.3C86.3003 252.1 89.1003 251.8 91.7003 251.3C94.3003 250.8 93.7003 252.1 93.2003 252.7C90.7003 254.6 87.5003 256.3 83.6003 257.8L70.2003 270.1L65.8003 262.5Z" fill="#B28B67"/>
<path d="M37.3002 273.6C39.8002 272.7 42.5002 272.3 45.1002 271.6C49.1002 270.6 53.0002 268 56.5002 265.9C58.4002 264.7 75.1002 253.2 75.7002 253.8L84.3002 262C72.2002 275.6 58.5002 286.3 44.5002 299.1C44.8002 323 47.6002 344.2 35.4002 344.2C29.6002 344.2 23.3002 344.2 16.6002 344.2C13.9002 325.9 18.7002 305.8 25.7002 288.9C26.5002 287.1 27.2002 285.3 28.0002 283.4C29.4002 280.2 31.3002 277.1 34.3002 275.1C35.2002 274.5 36.2002 274 37.3002 273.6Z" fill="#F24C64"/>
<path d="M199.8 141H180.1L179.4 156.8L158.1 141H25.0002C18.8002 141 13.7002 135.7 13.7002 129.2V75C13.7002 68.5 18.8002 63.2 25.0002 63.2H199.8C206 63.2 211.1 68.5 211.1 75V129.2C211.1 135.7 206 141 199.8 141Z" fill="white"/>
<path d="M485.5 77.8H456.5L429.2 93.6V77.8H324.6C318.5 77.8 313.4 72.8 313.4 66.6V11.2C313.4 5.1 318.4 0 324.6 0H485.5C491.6 0 496.7 5 496.7 11.2V66.7C496.7 72.8 491.6 77.8 485.5 77.8Z" fill="white"/>
<g opacity="0.35">
<path opacity="0.35" d="M362.7 36.7999C363.4 37.2999 364 37.6999 364.6 38.1999C365.9 39.1999 366.7 40.4999 367.1 42.0999C368.6 48.3999 364.7 53.4999 358.3 53.5999C356 53.5999 353.7 53.5999 351.4 53.5999C350.6 53.5999 350.4 53.2999 350.4 52.5999C350.4 42.8999 350.4 33.1999 350.4 23.5999C350.4 22.8999 350.6 22.5999 351.3 22.6999C353.9 22.6999 356.5 22.6999 359 22.6999C365 22.6999 367.4 27.9999 366.3 32.3999C366 33.7999 365.1 34.8999 364 35.7999C363.7 36.0999 363.2 36.3999 362.7 36.7999ZM354.2 50.4999C355.7 50.4999 357.1 50.5999 358.4 50.4999C360.9 50.1999 362.8 48.9999 363.5 46.4999C364.3 43.9999 363.8 41.5999 361.8 39.6999C359.6 37.4999 356.8 38.1999 354.1 38.0999C354.2 42.1999 354.2 46.2999 354.2 50.4999ZM354.1 34.9999C355.8 34.9999 357.4 34.9999 358.9 34.9999C360.5 34.9999 361.6 34.1999 362.4 32.8999C364.2 30.0999 362.5 25.8999 359.4 25.6999C357.8 25.5999 356.3 25.6999 354.7 25.6999C354.5 25.6999 354 25.9999 354 26.1999C354.1 29.0999 354.1 31.9999 354.1 34.9999Z" fill="#2F3676"/>
<path opacity="0.35" d="M417.9 42.7999C418.2 40.9999 418.4 39.1999 418.9 37.4999C419.9 33.9999 423 31.8999 426.7 31.8999C430.2 31.8999 433.3 33.9999 434.4 37.3999C435.5 40.9999 435.5 44.5999 434.4 48.0999C433.3 51.3999 430.2 53.5999 426.7 53.5999C423.1 53.5999 420 51.3999 419 48.0999C418.4 46.3999 418.2 44.4999 417.9 42.7999ZM431.8 42.7999C431.4 40.8999 431.2 39.0999 430.6 37.4999C430 35.6999 428.5 34.7999 426.6 34.7999C424.7 34.7999 423.2 35.7999 422.5 37.4999C421.2 40.8999 421.2 44.4999 422.5 47.9999C423 49.4999 424.2 50.2999 425.8 50.6999C427.8 51.0999 429.9 50.1999 430.6 48.1999C431.2 46.3999 431.4 44.4999 431.8 42.7999Z" fill="#2F3676"/>
<path opacity="0.35" d="M385.9 42.6C385.5 44.5 385.4 46.3 384.9 48C383.9 51.4 380.7 53.6 377.2 53.6C373.6 53.6 370.4 51.4 369.4 48C368.3 44.4 368.3 40.8 369.5 37.3C370.5 34.2 373.5 32 376.8 31.9C380.3 31.8 383.5 33.6 384.6 36.8C385.3 38.7 385.5 40.7 385.9 42.6ZM382.3 42.7C382 41 381.8 39.4 381.4 37.9C380.8 35.9 379 34.7 377.1 34.7C375.2 34.7 373.4 36 372.8 37.9C371.8 41 371.8 44.2 372.8 47.3C373.4 49.3 375.2 50.6 377.2 50.6C379 50.6 380.8 49.4 381.4 47.4C381.8 46 382 44.3 382.3 42.7Z" fill="#2F3676"/>
<path opacity="0.35" d="M391.301 53.3998C391.101 53.4998 391.101 53.5998 391.101 53.5998C388.101 53.9998 388.101 53.9998 388.101 50.9998C388.101 44.9998 388.101 38.9998 388.101 32.9998C388.101 32.1998 388.301 31.7998 389.201 31.8998C389.901 31.9998 390.501 31.8998 391.301 31.8998C391.301 33.1998 391.301 34.2998 391.301 35.7998C392.001 34.9998 392.501 34.3998 393.001 33.8998C395.001 31.8998 397.401 31.3998 400.001 32.1998C401.901 32.7998 403.101 34.2998 403.501 36.1998C403.601 36.7998 403.701 37.3998 403.701 37.9998C403.701 42.8998 403.701 47.6998 403.701 52.5998C403.701 53.3998 403.501 53.5998 402.701 53.5998C402.001 53.4998 401.301 53.5998 400.401 53.5998C400.401 53.0998 400.401 52.6998 400.401 52.2998C400.401 47.6998 400.401 43.1998 400.401 38.6998C400.401 37.1998 400.101 35.8998 398.701 35.1998C397.201 34.4998 395.801 34.7998 394.501 35.6998C392.301 37.2998 391.301 39.3998 391.301 42.0998C391.301 45.4998 391.301 48.9998 391.301 52.3998C391.301 52.6998 391.301 52.9998 391.301 53.3998Z" fill="#2F3676"/>
<path opacity="0.35" d="M449.4 50.7C449 51 448.8 51.2 448.7 51.3C446.6 53.3 444.1 53.9 441.3 53.3C439.2 52.9 437.7 51.2 437.5 49.1C437.4 48.1 437.4 47.1 437.4 46.2C437.4 41.8 437.4 37.4 437.4 33C437.4 32.1 437.7 31.9 438.6 31.9C440.7 31.9 440.7 31.9 440.7 33.9C440.7 38.3 440.7 42.7 440.7 47C440.7 50.2 442.4 51.5 445.5 50.7C447.8 50.1 449.5 48 449.6 45.4C449.7 43.1 449.6 40.8 449.6 38.5C449.6 36.6 449.6 34.8 449.6 32.9C449.6 32.2 449.7 31.9 450.5 31.9C452.8 31.9 452.8 31.8 452.8 34.2C452.8 40.3 452.8 46.4 452.8 52.4C452.8 53.4 452.6 53.7 451.6 53.7C449.6 53.6 449.6 53.7 449.6 51.7C449.5 51.4 449.4 51.1 449.4 50.7Z" fill="#2F3676"/>
<path opacity="0.35" d="M402.901 55.4998C404.201 55.6998 405.401 55.8998 406.601 55.9998C407.201 56.0998 407.801 56.0998 408.301 55.9998C410.301 55.8998 411.001 55.0998 411.001 53.0998C411.001 46.3998 411.001 39.7998 411.001 33.0998C411.001 32.6998 411.001 32.2998 411.001 31.7998C412.101 31.7998 413.101 31.7998 414.201 31.7998C414.201 32.1998 414.301 32.4998 414.301 32.8998C414.301 39.6998 414.301 46.3998 414.301 53.1998C414.301 56.9998 412.601 58.7998 408.801 58.9998C407.201 59.0998 405.501 58.7998 403.801 58.6998C403.101 58.5998 402.801 58.2998 402.901 57.4998C403.001 56.8998 402.901 56.1998 402.901 55.4998Z" fill="#2F3676"/>
<path opacity="0.35" d="M468.701 35.4998C468.501 35.5998 468.4 35.5998 468.4 35.5998C464.2 35.4998 461.5 37.4998 460.3 41.5998C460.2 41.9998 460.201 42.3998 460.201 42.7998C460.201 45.9998 460.201 49.1998 460.201 52.3998C460.201 52.7998 460.201 53.0998 460.201 53.5998C459.301 53.5998 458.401 53.5998 457.601 53.5998C457.401 53.5998 457.2 53.1998 457 52.9998C456.9 52.7998 457 52.5998 457 52.3998C457 45.9998 457 39.4998 457 33.0998C457 32.1998 457.201 31.8998 458.101 31.8998C460.201 31.9998 460.201 31.8998 460.201 33.9998C460.201 34.6998 460.201 35.2998 460.101 35.6998C461.001 34.9998 461.801 34.2998 462.701 33.5998C464.101 32.3998 465.801 31.7998 467.701 31.7998C468.501 31.7998 468.9 31.9998 468.8 32.8998C468.6 33.6998 468.701 34.5998 468.701 35.4998Z" fill="#2F3676"/>
<path opacity="0.35" d="M411.101 26.7C411.101 25.3 411.101 24 411.101 22.7C412.101 22.7 413.101 22.7 414.201 22.7C414.201 24 414.201 25.3 414.201 26.7C413.101 26.7 412.101 26.7 411.101 26.7Z" fill="#2F3676"/>
</g>
<path d="M799 304.1C801.1 319.5 807.4 333 818 348.6L810.2 352.7C796.3 340.7 789.2 334 789.5 320.3C789.6 316.9 792.5 306.9 793.7 301.6L799 304.1Z" fill="#FC8692"/>
<path d="M1004.8 317.5C998.901 318.9 991.401 316.4 985.601 312.6L987.101 305.9C995.001 308.9 1001.7 308.6 1006.6 307.6C1010.7 310.3 1009.5 316.4 1004.8 317.5Z" fill="#B50437"/>
<path d="M821.301 375.6H924.401L951.701 391.4V375.6H982.201C988.301 375.6 993.401 370.6 993.401 364.4V309C993.401 302.9 988.401 297.8 982.201 297.8H821.301C815.201 297.8 810.101 302.8 810.101 309V364.5C810.201 370.6 815.201 375.6 821.301 375.6Z" fill="white"/>
<path d="M770 346H802.5C795.1 323.5 791.401 308.1 791.201 299.7C791.201 299.3 790.4 298.5 790.1 298.6C787.5 299.3 784.801 299.1 781.901 297.8C774.201 310.2 771.5 325.5 770 346Z" fill="#F2F2F2"/>
<path d="M776.2 344.9L795 394.8L808.3 431.6H815.8L797.6 344.9H776.2Z" fill="#1F28CF"/>
<path d="M771.5 344.9C771.3 362 771.4 385.1 771 386.1C770.7 386.8 760.8 394.9 741.3 410.4L745.2 417C768.3 402.1 780.5 393.6 781.7 391.6C783.5 388.6 792.4 361.2 797 344.8H771.5V344.9Z" fill="#2B44FF"/>
<path d="M734.407 414.901L740.946 409.937L746.216 416.218C746.655 420.941 748.171 426.326 750.919 432.245L749.693 433.274L740.115 421.86L737.45 417.439L736.837 417.953L734.33 414.965L734.407 414.901Z" fill="#191847"/>
<path d="M807.601 438.6L808.001 430.4H816.201C820.101 433.1 825.201 435.4 831.501 437.1V438.7H816.601L811.501 437.9V438.7H807.601V438.6Z" fill="#191847"/>
<path d="M798.5 277.6C799.9 282.6 801.6 293.8 799.8 295.5H788.4C788.4 295.5 788.4 295.5 788.4 295.4C784.2 294.9 780.9 291.4 780.9 287V278.8C780.9 274.1 784.7 270.4 789.3 270.4H790.1C794.4 270.4 797.9 273.5 798.5 277.6Z" fill="#191847"/>
<path d="M785.301 285.5C783.501 283.4 782.301 280.8 782.501 277.9C783.101 269.5 794.801 271.4 797.001 275.6C799.301 279.8 799.001 290.6 796.101 291.3C794.901 291.6 792.401 290.9 789.901 289.3L791.501 300.6H782.101L785.301 285.5Z" fill="#B28B67"/>
<path d="M787.901 284.1C788.301 288.8 788.201 294.1 786.901 295.3H775.501C774.901 284.3 781.001 288.6 781.001 278.2C781.401 277.8 781.7 277.5 782.1 277.1V276.8C784.1 272.8 786.6 270.8 789.6 270.8C794.1 270.8 795.601 272.9 796.801 274.7C795.901 277.8 792.301 278.3 789.201 280.2C788.801 279.9 788.401 279.7 787.801 279.7C786.601 279.7 785.6 280.7 785.6 281.9C785.6 283.1 786.601 284.1 787.901 284.1C787.901 284.1 787.801 284.1 787.901 284.1Z" fill="#191847"/>
<path d="M1051.5 383.5C1040.4 386.6 1030.8 388.2 1022.8 388.2C1014.8 388.2 1007.3 385.8 1000.4 381C1011.3 377.8 1020.2 376.2 1027.2 376.2C1034.2 376.2 1042.4 378.6 1051.5 383.5Z" fill="#1F28CF"/>
<path d="M1013.2 392.6C1013.3 392.4 1013.4 392.3 1013.5 392.1C1015 388.2 1038.7 345.9 1041.1 338.1H1014.4C1012.6 344 1004.5 380.9 1003.4 388.2C999.8 399.8 992.4 437.4 991.5 440C990.5 442.7 996.1 445.6 997.6 442.2C1000 436.8 1005.6 422 1008.1 412.9C1010.4 404.6 1012.3 397 1013.2 392.6Z" fill="#997659"/>
<path d="M1035.1 397.8C1046 400.5 1085.7 405.5 1088.4 406.3C1091.2 407.1 1093.7 401.3 1090.2 400.1C1084.7 398.1 1069.5 393.5 1060.3 391.6C1052.9 390.1 1046.1 388.9 1041.6 388.1C1042 375.3 1043.7 344.7 1042.6 338.1H1018.9C1020 344.4 1029.3 390.7 1031.1 395.3C1031.6 397 1033.3 397.7 1035.1 397.8Z" fill="#B28B67"/>
<path d="M1089.93 398.559C1091.41 398.299 1092.41 398.224 1093.14 398.299C1093.98 398.456 1095.15 398.757 1096.66 399.302C1096.52 400.24 1094.99 408.837 1092.15 424.975C1089.87 425.276 1088.75 424.662 1088.8 423.231C1088.85 421.8 1088.94 420.566 1088.96 419.547L1085.78 406.704C1085.73 406.408 1085.89 406.176 1086.09 406.142L1088.04 405.696C1088.94 404.422 1089.37 403.431 1089.53 402.591C1089.62 401.966 1089.54 400.963 1089.2 399.602C1089.12 399.11 1089.44 398.646 1089.93 398.559Z" fill="#E4E4E4"/>
<path d="M999.2 441.9C999.7 443.3 1000 444.3 1000 445C1000 445.8 999.9 447.1 999.6 448.7C998.6 448.7 989.9 448.7 973.5 448.7C972.8 446.5 973.2 445.2 974.7 445.1C976.2 444.9 977.4 444.8 978.3 444.6L990.4 439.2C990.6 439.1 990.9 439.2 991 439.4L991.8 441.3C993.2 441.9 994.3 442.2 995.1 442.2C995.8 442.2 996.7 441.9 997.9 441.4C998.4 441.2 998.9 441.4 999.2 441.9C999.2 441.9 999.1 441.9 999.2 441.9Z" fill="#E4E4E4"/>
<path d="M1042.5 338.1C1032.1 335.1 1022.2 335.1 1012.9 338.1C1009.7 352.9 1001.8 358.7 1000.4 381.4C1016.1 389.2 1035.5 375.8 1051.7 383.4C1056.4 372.8 1049.9 347.1 1042.5 338.1Z" fill="#2B44FF"/>
<path d="M1012.3 281.2C1014 279.2 1015.2 276.7 1015 273.9C1014.4 265.9 1003.3 267.7 1001.1 271.7C998.9 275.7 999.2 286 1002 286.7C1003.1 287 1005.5 286.3 1007.9 284.8L1006.4 295.5H1015.4L1012.3 281.2Z" fill="#B28B67"/>
<path d="M1009.2 280.6C1010.3 282.7 1011.9 284.3 1013.4 284.3C1016.3 284.3 1018.4 280.4 1018.4 276.2C1018.4 276.1 1018.4 275.9 1018.4 275.8C1021.5 277.9 1023.9 282.1 1028 282.1C1033.6 282.1 1035.8 270.9 1028 270.9C1022.7 270.9 1020.1 271.7 1017.9 272.8C1017.5 271.6 1016.8 270.5 1016 269.8C1015.8 269.6 1015.5 269.4 1015.1 269.2C1014.9 269.1 1014.6 269 1014.4 268.9C1013 268.4 1011.1 268.1 1008.9 268C1008.5 268 1008.1 268 1007.7 268C1007.7 265.9 1006 264.3 1004 264.3C1001.9 264.3 1000.3 266 1000.3 268C1000.3 270 1001.9 271.6 1003.8 271.7C1004.9 272 1006.4 272.3 1008 272.4C1007.8 273 1007.8 273.7 1007.8 274.4C1007.8 275.1 1007.9 275.8 1008 276.5C1008.3 276.1 1008.8 275.8 1009.3 275.8C1010.6 275.8 1011.5 276.9 1011.5 278C1011.3 279.5 1010.5 280.5 1009.2 280.6Z" fill="#191847"/>
<path d="M813 300.9L829.901 295.8C831.201 294.8 832.101 294.3 833.701 293.8C834.101 293.7 835.701 293.2 836.201 293.9C836.301 294.1 836.7 294.6 836.8 294.6C837.2 294.9 837.301 295 837.401 295.5C837.501 295.9 837.901 296.1 838.201 296.3C838.701 296.9 839.101 297.2 838.901 297.8C838.701 298.9 836.8 299.3 835.8 299.6C834.1 300 832.201 300.2 830.401 300.3L817.201 308L813 300.9Z" fill="#B28B67"/>
<path d="M784.7 297.8C794 297.9 809.2 299.6 826.6 294L828.3 302.6C815.1 311.1 801.7 317.7 790 316.7C795.1 338.5 794.8 356.4 783.6 356.4C778.2 356.4 772.5 356.4 766.2 356.4C763.4 337.9 770.7 312.2 777.4 299.2C777.7 298.7 778.2 297.8 779.5 297.8C780.8 297.8 782.4 297.8 784.7 297.8Z" fill="#FDA8AD"/>
<path d="M980.1 325.5C977.1 324.1 974.3 323.4 971.9 323.2C967.3 322.9 965.3 322.3 962.6 320C961.2 318.8 959.6 316.1 960.5 314.9C961.1 314.1 966 316.4 967.8 316.4C969.6 316.4 967.2 312.6 968.2 312.8C969.4 312.6 970.8 314 972.3 317.1L979.1 319.2L980.1 325.5Z" fill="#997659"/>
<path d="M1005.9 290.9L1017.1 288.6C1018.3 288.3 1029.9 302.6 1032.1 312.9C1034.1 322.4 1044.1 326.6 1042.6 342.3C1035 342.4 1014.9 354.1 1009.6 347C1007 343.6 1005.6 339.5 1004.9 335C997.501 336.4 988.001 335.8 976.401 332.5C975.601 329.9 976.1 325.1 977.8 318.2C990.9 320 999.901 319.8 1004.9 317.4C1005.6 308.3 1006.9 299 1005.9 290.9Z" fill="#FC0E3B"/>
<g opacity="0.51">
<path opacity="0.51" d="M903 350.2C905.6 348.5 908.001 346.7 909.901 344.5C910.201 344.1 910.6 343.7 911 343.2C909.9 342.4 908.9 341.7 907.8 341C907.5 341.7 907.3 342.3 907.1 342.9C906.1 342.5 905.2 342.1 904.3 341.7C904.2 341.6 904.101 341.2 904.201 340.9C905.101 337.7 906 334.5 906.8 331.3C907.1 330.3 907.201 329.4 907.401 328.3C906.001 328.3 904.701 328.3 903.401 328.3C903.401 327.2 903.401 326.3 903.401 325.2C904.401 325.2 905.5 325.2 906.5 325.2C907.9 325.2 908.001 325.2 908.201 323.8C908.501 321.7 908.8 319.6 909.1 317.4C910.4 317.6 911.6 317.8 913 318C911.9 320.1 912.1 322.3 911.5 324.3C911.4 324.6 911.401 324.9 911.401 325.2C912.701 325.2 913.8 325.2 915 325.2C915.3 325.2 915.5 324.8 915.8 324.5C916.8 325.1 917.7 325.7 918.5 326.2C918.3 328.1 918.1 329.9 917.8 331.7C917.3 335.1 916.8 338.4 915.5 341.7C915.4 341.9 915.6 342.3 915.8 342.5C917.2 343.7 918.6 344.8 920 346C919.3 347.1 918.601 348.2 917.901 349.3C916.501 348 915.101 346.7 913.701 345.4C911.401 348.6 908.6 351.1 905.3 353.3C904.5 352.2 903.8 351.2 903 350.2ZM912.3 340.1C913.7 336.3 914.401 332.3 914.701 328.3C913.401 328.3 912.3 328.3 911.1 328.3C910.9 328.3 910.6 328.6 910.6 328.8C909.9 331.7 909.301 334.7 908.701 337.6C908.701 337.8 908.8 338.1 909 338.2C910 338.9 911.1 339.5 912.3 340.1Z" fill="#2F3676"/>
<path opacity="0.51" d="M920.3 319.6C920.7 319.6 921 319.6 921.3 319.6C925.4 319.6 929.6 319.6 933.7 319.6C934.3 319.6 934.8 319.4 935.4 319.3C935.4 319.2 935.4 319.1 935.4 319C936.4 320 937.4 321 938.4 322C938.7 322.4 938.4 322.5 938.1 322.7C937.7 322.9 937.2 323.2 936.8 323.5C935 325.2 933.3 327 931.5 328.8C931.2 329.1 931 329.6 931 330C930.9 331.4 931 332.8 931 334.4C931.5 334.4 931.8 334.4 932.2 334.4C934.4 334.4 936.6 334.4 938.8 334.4C939.4 334.4 939.7 334.5 939.7 335.2C939.6 335.9 939.9 336.9 939.5 337.4C939.2 337.8 938.1 337.6 937.4 337.6C935.6 337.6 933.8 337.6 932 337.6C931.3 337.6 931.1 337.8 931.1 338.5C931.1 342.3 931.1 346.1 931.1 349.8C931.1 350 931.1 350.2 931.1 350.4C931 352.6 930.3 353.4 928.2 353.3C927.3 353.2 926.4 353.3 925.5 353.3C925 353.3 924.8 353.2 924.7 352.7C924.5 351.7 924.3 350.8 924 349.7C924.9 349.7 925.7 349.7 926.5 349.7C927.6 349.7 927.7 349.6 927.7 348.5C927.7 345.2 927.7 341.9 927.7 338.6C927.7 338.3 927.7 338 927.7 337.7C924.8 337.7 922 337.7 919.2 337.7C919.2 336.6 919.2 335.7 919.2 334.6C919.5 334.6 919.8 334.6 920 334.6C922.3 334.6 924.6 334.6 926.9 334.6C927.6 334.6 927.8 334.4 927.8 333.7C927.8 331.8 927.8 329.8 927.8 327.7C929.1 328.1 929.5 327.1 930.1 326.3C930.9 325.3 931.7 324.2 932.7 323C928.5 323 924.5 323 920.4 323C920.3 321.7 920.3 320.7 920.3 319.6Z" fill="#2F3676"/>
<path opacity="0.51" d="M886.3 317.8C886.3 318 886.301 318 886.201 318C885.301 318.4 884.9 319 884.5 319.9C884.1 320.7 883.6 321.4 883.1 322.2C883.4 322.2 883.701 322.2 883.901 322.2C887.701 322.2 891.501 322.2 895.201 322.2C895.701 322.2 896.1 321.9 896.6 321.7C896.8 321.6 897.2 321.5 897.3 321.6C898.3 322.2 899.3 322.8 900.3 323.4C901 323.8 901 324.1 900.3 324.6C899.9 324.9 899.701 325.3 899.401 325.7C898.501 327 897.5 328.2 896.6 329.6C895.6 329 894.701 328.5 893.701 328C894.301 327.1 894.9 326.3 895.6 325.4C893.6 325.4 891.7 325.4 889.8 325.4C889.8 325.7 889.8 326 889.8 326.3C889.8 329.5 889.8 332.7 889.8 335.8C889.8 336 889.8 336.2 889.8 336.4C889.8 339.3 888.7 339.4 886.8 339.4C884.7 339.3 884.7 339.4 884.1 337.3C884 337 884 336.7 883.8 336.3C884.4 336.3 885 336.3 885.5 336.3C886.1 336.3 886.401 336 886.401 335.4C886.401 332.3 886.401 329.2 886.401 326C886.401 325.5 886.3 325.3 885.8 325.3C884.4 325.3 883 325.3 881.5 325.3C881.2 325.3 880.8 325.5 880.6 325.8C879.4 326.9 878.301 328.1 877.201 329.3C877.001 329.5 876.8 329.6 876.6 329.9C875.9 328.9 875.2 328 874.5 326.9C874.8 326.6 875.101 326.4 875.401 326.1C878.101 323.5 880.101 320.4 881.701 317.1C882.001 316.5 882.3 316.4 882.8 316.6C883.6 316.9 884.501 317.1 885.401 317.3C885.801 317.5 886 317.7 886.3 317.8Z" fill="#2F3676"/>
<path opacity="0.51" d="M875.9 317.7C874.5 318.7 874.3 320.3 873.5 321.5C872.5 323 872.3 324.6 872.3 326.4C872.4 330.5 872.3 334.6 872.3 338.7C872.3 339.5 872.1 339.7 871.4 339.6C871 339.6 870.5 339.6 870.1 339.6C869.1 339.6 869.1 339.6 869.1 338.5C869.1 335.3 869.1 332.2 869.1 329C869.1 328.7 869.1 328.4 869.1 328C867.8 329.3 866.5 330.5 865.2 331.8C864.6 330.7 864 329.8 863.6 328.9C863.5 328.8 863.8 328.3 864 328.2C866.7 325.8 869 323 870.7 319.7C871.2 318.8 871.6 317.9 872 316.9C872.2 316.5 872.4 316.3 872.8 316.5C873.6 316.7 874.4 316.9 875.1 317.2C875.4 317.3 875.6 317.5 875.9 317.7Z" fill="#2F3676"/>
<path opacity="0.51" d="M893.101 346.6C892.901 348.2 892.701 349.7 892.401 351.1C892.201 352 891.501 352.5 890.701 352.7C890.101 352.9 889.501 352.9 888.801 352.9C885.301 352.9 881.801 352.9 878.301 352.9C877.901 352.9 877.601 352.9 877.201 352.8C875.601 352.6 874.701 351.7 874.601 350.1C874.501 347.4 874.601 344.7 874.601 342.1C874.601 341.9 874.901 341.6 875.001 341.6C875.901 341.6 876.801 341.5 877.701 341.6C878.401 341.6 878.401 341.9 878.101 342.5C878.001 342.7 877.901 342.9 877.901 343.2C877.901 344.9 877.901 346.6 877.901 348.3C877.901 349.4 878.301 349.8 879.401 349.8C882.201 349.8 884.901 349.8 887.701 349.8C889.001 349.8 889.401 349.4 889.501 348.1C889.501 347.8 889.501 347.6 889.601 347.3C889.701 346.1 889.701 346.1 890.901 346.3C891.501 346.4 892.201 346.5 893.101 346.6Z" fill="#2F3676"/>
<path opacity="0.51" d="M901.1 348.9C900.1 349.6 899.2 350.3 898.3 350.9C896.2 348.1 894.1 345.4 891.9 342.5C892.7 342 893.5 341.5 894.4 341C894.5 340.9 894.8 341 895 341.1C896.9 342.7 900 346.8 901.1 348.9Z" fill="#2F3676"/>
<path opacity="0.51" d="M869.4 352.5C868.4 352 867.4 351.6 866.5 351.2C866.4 351.1 866.3 350.8 866.3 350.6C867 347.7 867.7 344.8 868.4 341.8C869.5 342 870.8 342.1 872.2 342.8C871.1 343.4 871.4 344.4 871.2 345.2C870.7 347.3 870.2 349.5 869.7 351.6C869.7 351.9 869.5 352.2 869.4 352.5Z" fill="#2F3676"/>
<path opacity="0.51" d="M876.1 338.1C875.5 337.1 874.9 336.2 874.4 335.3C874.5 335.2 874.6 335.1 874.7 335.1C877.3 333.8 879.4 331.8 881 329.4C881.3 328.9 881.6 328.8 882.1 329.1C882.7 329.4 883.4 329.7 884.1 330C884.3 330.1 884.4 330.3 884.5 330.5C884.5 330.6 884.2 330.7 884.1 330.9C883.9 331.1 883.6 331.3 883.4 331.6C881.6 334.1 879.3 336.1 876.8 337.8C876.5 337.9 876.3 338 876.1 338.1Z" fill="#2F3676"/>
<path opacity="0.51" d="M891.3 331.2C891.8 330.6 892.3 330 892.8 329.5C892.9 329.4 893.3 329.3 893.5 329.4C896.4 330.8 899 332.6 901.3 334.9C900.6 335.8 899.9 336.7 899.2 337.6C896.6 335.4 894 333.3 891.3 331.2Z" fill="#2F3676"/>
<path opacity="0.51" d="M884 346.9C882.6 345.1 881.2 343.4 879.7 341.7C880.5 341.2 881.3 340.7 882.2 340.3C882.3 340.2 882.7 340.4 882.8 340.5C884 341.8 885.1 343.2 886.2 344.6C886.3 344.7 886.3 345.2 886.1 345.3C885.5 345.8 884.7 346.3 884 346.9Z" fill="#2F3676"/>
</g>
<g opacity="0.61">
<path opacity="0.61" d="M413.7 178C413.8 178.1 414 178.2 414.1 178.3C417.4 180.2 418.3 183.2 417.9 186.7C417.5 191.2 413 193.7 409.8 193.7C407.5 193.7 405.2 193.7 402.8 193.7C402.2 193.7 402 193.5 402 192.9C402 183.7 402 174.5 402 165.4C402 164.9 402 164.6 402.7 164.6C405.3 164.6 407.8 164.6 410.4 164.6C415.8 164.7 418.2 169.9 416.9 174.1C416.4 175.6 415.4 176.6 414.2 177.4C414 177.5 413.8 177.6 413.7 177.8C413.7 177.8 413.7 177.9 413.7 178ZM405.7 179.1C405.6 179.2 405.6 179.3 405.6 179.3C405.6 183 405.6 186.7 405.6 190.3C405.6 190.5 405.9 190.8 406.1 190.8C407.1 190.9 408 190.8 409 190.8C411.4 190.8 413.6 189.4 414.4 187.3C415.3 185 414.6 182.3 412.9 180.6C410.7 178.5 408.1 179.2 405.7 179.1ZM405.6 167.5C405.6 170.3 405.6 173 405.6 175.8C405.6 175.9 405.9 176.2 406.1 176.2C407.5 176.2 408.9 176.3 410.3 176.2C412.3 176.1 414 174.3 414.1 172.1C414.3 169.9 413 167.8 411.1 167.6C409.3 167.4 407.5 167.5 405.6 167.5Z" fill="#2F3676"/>
<path opacity="0.61" d="M485 175.2C485 174.8 485 174.5 485 174.2C485 171.3 485 168.4 485 165.4C485 164.7 485.1 164.4 485.9 164.5C488 164.5 488 164.5 488 166.6C488 175.3 488 184 488 192.7C488 193 488 193.3 488 193.7C487.1 193.7 486.3 193.7 485.4 193.7C485.2 193.7 485 193.4 485 193.2C484.9 192.5 485 191.9 485 191C484.7 191.2 484.6 191.3 484.5 191.5C480.4 195.8 475.8 193.4 474.1 189.7C473 187.5 472.9 185.1 472.9 182.7C472.9 180.2 473.5 177.9 475.2 175.9C478.2 172.2 482.3 172.7 484.6 174.9C484.7 175 484.8 175.1 485 175.2ZM475.9 183.6C476.3 185.3 476.4 187.1 477 188.7C477.9 191.1 480.6 191.7 482.5 190.1C483.1 189.6 483.8 188.8 484.1 188.1C485.3 185.1 485.4 182 484.3 179C483.7 177.3 482.6 176 480.6 176C478.7 176 477.5 177.3 476.9 178.9C476.5 180.4 476.3 182 475.9 183.6Z" fill="#2F3676"/>
<path opacity="0.61" d="M437.5 173.2C438.4 173.2 439.2 173.2 439.9 173.2C440.1 173.2 440.4 173.5 440.4 173.7C440.4 174.7 440.4 175.7 440.4 176.8C441.1 176.1 441.6 175.5 442.2 174.9C444 173.1 446.2 172.7 448.6 173.4C450.4 173.9 451.4 175.2 451.8 177C451.9 177.5 452 178 452 178.5C452 183.3 452 188.1 452 192.9C452 193.1 452 193.3 451.9 193.5C450.9 193.5 450 193.5 448.9 193.5C448.9 193.1 448.9 192.8 448.9 192.4C448.9 188.1 448.9 183.7 448.9 179.4C448.9 178.1 448.6 176.9 447.3 176.2C446 175.5 444.6 175.7 443.4 176.5C441.4 177.9 440.3 179.9 440.3 182.3C440.2 185.7 440.3 189 440.3 192.4C440.3 192.7 440.3 193 440.3 193.4C439.3 193.4 438.4 193.4 437.4 193.4C437.5 186.9 437.5 180.1 437.5 173.2Z" fill="#2F3676"/>
<path opacity="0.61" d="M431.2 193.6C431.2 192.7 431.2 191.9 431.2 190.9C430.9 191.2 430.7 191.3 430.6 191.4C428.8 193.2 426.7 193.9 424.2 193.6C421.6 193.3 419.9 191.4 419.8 188.7C419.8 187.2 419.8 185.7 419.8 184.3C419.8 180.9 419.8 177.5 419.8 174.1C419.8 173.4 420 173.2 420.7 173.2C422.8 173.2 422.8 173.2 422.8 175.3C422.8 179.4 422.8 183.5 422.8 187.6C422.8 190 423.5 191.5 426.9 191C429 190.7 430.8 188.9 431.1 186.6C431.2 185.7 431.2 184.9 431.2 184C431.2 180.7 431.2 177.4 431.2 174.2C431.2 173.4 431.5 173.1 432.2 173.2C432.8 173.3 433.4 173.2 434.1 173.2C434.1 180 434.1 186.8 434.1 193.6C433.2 193.6 432.3 193.6 431.2 193.6Z" fill="#2F3676"/>
<path opacity="0.61" d="M496.6 173.2C496.6 180.1 496.6 186.8 496.6 193.7C495.7 193.7 494.9 193.7 494.1 193.7C493.9 193.7 493.8 193.4 493.6 193.2C493.5 193.1 493.6 192.9 493.6 192.8C493.6 186.6 493.6 180.4 493.6 174.2C493.6 173.5 493.8 173.2 494.6 173.2C495.2 173.3 495.9 173.2 496.6 173.2Z" fill="#2F3676"/>
<path opacity="0.61" d="M496.6 168.4C495.5 168.4 494.6 168.4 493.6 168.4C493.6 167.2 493.6 166.1 493.6 165C493.6 164.8 493.9 164.7 494 164.5H494.1C496.6 164.3 496.6 164.3 496.6 166.7C496.6 167.3 496.6 167.8 496.6 168.4Z" fill="#2F3676"/>
</g>
<g opacity="0.3">
<path opacity="0.3" d="M82.6996 246H78.6996V233.1H64.5996V246H60.5996V216.8H64.5996V230H78.7996V216.8H82.7996V246H82.6996Z" fill="#2F3676"/>
<path opacity="0.3" d="M97.9996 246.4C94.8996 246.4 92.4996 245.4 90.6996 243.4C88.9996 241.4 88.0996 238.8 88.0996 235.5V234.6C88.0996 231.5 88.9996 228.9 90.7996 226.9C92.5996 224.9 94.7996 223.8 97.3996 223.8C100.3 223.8 102.5 224.7 103.9 226.5C105.4 228.3 106.1 230.7 106.1 233.7V235.8H92.1996L92.0996 235.9C92.0996 238.1 92.5996 239.8 93.4996 241.2C94.4996 242.6 95.8996 243.2 97.8996 243.2C99.1996 243.2 100.4 243 101.4 242.6C102.4 242.2 103.3 241.7 104 241L105.5 243.6C104.7 244.3 103.7 245 102.4 245.5C101.1 246 99.7996 246.4 97.9996 246.4ZM97.2996 227C95.8996 227 94.7996 227.5 93.8996 228.6C92.9996 229.7 92.3996 231 92.1996 232.7V232.8H102V232.5C102 230.9 101.6 229.6 100.8 228.6C100.2 227.5 98.9996 227 97.2996 227Z" fill="#2F3676"/>
<path opacity="0.3" d="M114.8 246H110.8V214.7H114.8V246Z" fill="#2F3676"/>
<path opacity="0.3" d="M125.1 246H121.1V214.7H125.1V246Z" fill="#2F3676"/>
<path opacity="0.3" d="M129.899 234.9C129.899 231.7 130.799 229 132.499 227C134.199 224.9 136.599 223.9 139.599 223.9C142.599 223.9 144.999 224.9 146.699 227C148.399 229.1 149.299 231.7 149.299 234.9V235.3C149.299 238.5 148.399 241.2 146.699 243.2C144.999 245.3 142.599 246.3 139.599 246.3C136.599 246.3 134.199 245.3 132.499 243.2C130.799 241.1 129.899 238.5 129.899 235.3V234.9ZM133.899 235.4C133.899 237.7 134.399 239.6 135.399 241.1C136.399 242.6 137.799 243.3 139.699 243.3C141.599 243.3 142.999 242.6 143.999 241.1C144.999 239.6 145.499 237.7 145.499 235.4V235C145.499 232.7 144.999 230.8 143.999 229.3C142.999 227.8 141.599 227 139.699 227C137.799 227 136.399 227.8 135.399 229.3C134.399 230.8 133.899 232.7 133.899 235V235.4Z" fill="#2F3676"/>
</g>
<path d="M513.5 365.5L496.9 422.9L489 465.9H481.2L489 365.5H513.5Z" fill="#997659"/>
<path d="M521 365.5C519.8 395.3 520.3 411.5 520.6 414.3C520.9 417 522.3 435.1 532.4 466.9H524.2C510.9 436.5 506.2 418.3 504.7 414.3C503.2 410.3 498.7 394.1 492.1 365.5H521Z" fill="#B28B67"/>
<path d="M513.9 365.5C509.6 385.2 502.1 416.7 491.4 460H479.9C479.1 415.6 482.7 386.4 488.9 365.5H513.9Z" fill="#69A1AC"/>
<path d="M521 365.5C519.9 395.3 522.8 424.6 531.9 460.5H519.6C506.3 430.5 496.7 401.3 490.2 365.5H521Z" fill="#89C5CC"/>
<path d="M533.5 472.7L533 465.4C530.4 466.2 527.1 465.9 523.1 464.5C518.8 467.5 513.4 469.6 507 470.7C506.5 470.8 506.2 471.3 506.3 471.7V471.8L506.9 474H523.1H532.6L533.5 472.7Z" fill="#191847"/>
<path d="M490.8 472.7L490.3 465.4C487.7 466.2 484.4 465.9 480.4 464.5C476.1 467.5 470.7 469.6 464.3 470.7C463.8 470.8 463.5 471.3 463.6 471.7V471.8L464.2 474H480.4H489.9L490.8 472.7Z" fill="#191847"/>
<path d="M504.4 298C506.5 295.5 507.9 292.5 507.7 289.2C507 279.5 493.5 281.6 490.8 286.5C488.2 291.4 488.5 303.9 491.9 304.7C493.3 305 496.1 304.2 499.1 302.4L497.3 315.5H508.2L504.4 298Z" fill="#B28B67"/>
<path d="M501 292.7C501.4 292.5 501.8 292.3 502.2 292.3C503.5 292.3 504.5 293.4 504.5 294.6C504.5 295.8 503.9 296.7 503.1 297.1C503.5 297.9 504 298.6 504.5 298.7C506.5 298.5 509 293.6 509 289.6C509 285.2 505.5 281.4 499 281.4C493.2 281.4 490.9 283.8 490.8 285.9C493.3 286.6 497.7 286.9 504 286.8V287.3L498.5 287.8L497.6 290.5C499.2 290.4 500.2 291.3 501 292.7Z" fill="#191847"/>
<path d="M495.8 325.9C490.3 325.8 482.9 324.7 475 319.7L471.9 326.6C477.3 332 484.9 336.4 491.6 336.2C496.9 336.1 499.6 329.7 495.8 325.9Z" fill="#FF9B21"/>
<path d="M467.2 345.1H306.3C300.2 345.1 295.1 340.1 295.1 333.9V316.3L274.3 306.2L295.1 296.1V278.3C295.1 272.2 300.1 267.1 306.3 267.1H467.2C473.3 267.1 478.4 272.1 478.4 278.3V334C478.3 340.1 473.3 345.1 467.2 345.1Z" fill="white"/>
<path d="M463.7 342.1C460.7 339.9 457.9 338.5 455.4 337.8C450.5 336.4 448.5 335.4 446.1 332.3C444.8 330.7 443.7 327.4 444.9 326.3C445.7 325.6 450.5 329.1 452.5 329.6C454.5 330 452.7 325.3 453.7 325.8C455.1 325.8 456.2 327.7 457.2 331.4L464.1 335.2L463.7 342.1Z" fill="#997659"/>
<path d="M489.1 337C483.2 338.5 473.4 336.7 459.6 331.8C456.2 338.9 454.6 343.9 454.9 347C466.7 353.2 476.9 355.9 485.3 356.1C485 361.1 485.6 365.8 487.7 370.1C491.9 379 516.3 370.8 524.5 372.4C529.6 355.7 519.7 348.9 519.7 338.2C519.7 326.5 510.3 308.5 508.9 308.5H496.3C495.4 317.4 491.9 327.2 489.1 337Z" fill="#F9B721"/>
<g opacity="0.61">
<path opacity="0.61" d="M333.3 295.8C331.5 298 329.9 300 328.2 302C327.1 303.3 327.1 303.3 328 304.7C330.3 308.3 332.6 311.9 334.9 315.5C335.1 315.8 335.2 316 335.5 316.5C334.5 316.5 333.7 316.5 332.9 316.5C332.7 316.5 332.4 316.2 332.3 315.9C330.3 312.6 328.2 309.2 326.2 305.9C326.1 305.7 325.9 305.4 325.7 305.1C324.9 306.1 324.2 307.1 323.3 308C322.3 309 321.9 310.1 322 311.5C322.1 312.9 322 314.3 322 315.8C322 316.4 321.8 316.6 321.2 316.6C319.6 316.6 319.8 316.7 319.8 315.3C319.8 309.2 319.8 303.1 319.8 296.9C319.8 296.6 319.8 296.3 319.8 295.9C320.6 295.9 321.2 295.9 321.9 295.9C321.9 299.3 321.9 302.6 321.9 306.1C322.2 305.8 322.3 305.7 322.4 305.6C324.7 302.7 327.1 299.8 329.4 296.8C330 296.1 330.6 295.7 331.5 295.8C332.2 295.9 332.6 295.8 333.3 295.8Z" fill="#2F3676"/>
<path opacity="0.61" d="M458.2 309.2C459.5 307.4 460.4 305.4 461 303.3C461.5 301.8 461.8 301.7 463.6 302.1C463.2 303.2 462.9 304.4 462.5 305.5C461.6 307.8 460.4 309.9 458.9 311.8C458.3 312.6 458.5 313.3 458.7 314.1C458.8 314.7 459.3 314.6 459.7 314.4C460.2 314.1 460.6 313.7 461.1 313.3C461.3 313.9 461.5 314.4 461.7 315C461.7 315.2 461.7 315.4 461.5 315.6C460.7 316.3 459.8 316.8 458.7 316.7C457.8 316.6 457.3 316.1 457 315.3C456.9 315 456.7 314.6 456.6 314.2C456.1 314.6 455.6 315.1 455.1 315.5C454.1 316.3 452.9 316.7 451.6 316.7C449.4 316.7 448 315.7 447.6 313.5C446.8 309.5 447.7 305.9 450.9 303.1C451.9 302.2 453.2 301.7 454.5 301.6C456.8 301.5 458.2 302.7 458.3 305C458.2 306.5 458.2 307.9 458.2 309.2ZM456.4 308.5C456.4 307.5 456.4 306.5 456.4 305.5C456.3 304 455.3 303.2 453.9 303.6C453.1 303.9 452.3 304.4 451.7 305C449.7 307.2 449.2 309.9 449.6 312.7C449.8 314.5 451.2 315.3 452.9 314.6C453.9 314.2 454.8 313.3 455.7 312.7C456.2 312.3 456.4 311.8 456.4 311.1C456.4 310.2 456.4 309.4 456.4 308.5Z" fill="#2F3676"/>
<path opacity="0.61" d="M355.6 302C355.2 304.4 354.4 306.4 353.3 308.3C352.6 309.5 351.8 310.7 351 311.9C350.4 312.7 350.5 313.4 350.7 314.2C350.9 314.8 351.4 314.7 351.8 314.5C352.3 314.2 352.6 313.8 353.1 313.4C353.3 314 353.5 314.6 353.7 315.1C353.7 315.3 353.6 315.6 353.5 315.7C352.9 316.1 352.3 316.6 351.6 316.7C350.4 317 349.5 316.5 349 315.3C348.9 315 348.8 314.7 348.7 314.3C348.2 314.7 347.7 315.2 347.2 315.5C346 316.4 344.8 316.8 343.3 316.7C341.6 316.6 340.4 315.7 339.8 314.1C338.5 310.3 340.1 305.2 343.3 302.8C344.5 301.9 345.9 301.5 347.5 301.7C349.1 301.9 350 302.7 350.2 304.3C350.4 305.6 350.3 307 350.3 308.3C350.3 308.6 350.3 308.9 350.3 309.2C350.4 309.2 350.4 309.2 350.5 309.3C350.8 308.8 351.1 308.4 351.3 307.8C352 306.2 352.6 304.6 353.2 302.9C353.4 302.2 353.7 301.9 354.4 302C354.8 302 355.2 302 355.6 302ZM348.5 308.5C348.4 307.4 348.5 306.2 348.4 305.1C348.3 304 347.6 303.5 346.5 303.5C345.5 303.5 344.7 304 344 304.8C341.8 307.1 341.3 310 341.9 313C342.2 314.5 343.3 315.2 344.7 314.7C345.8 314.3 346.7 313.6 347.7 312.9C348.4 312.4 348.7 311.7 348.6 310.8C348.5 310 348.5 309.3 348.5 308.5Z" fill="#2F3676"/>
<path opacity="0.61" d="M410.8 314.2C410.8 314.6 410.8 314.9 410.8 315.1C410.8 316.5 410.7 316.6 409.7 316.9C408.6 317.1 407.7 316.7 407.3 315.7C407.2 315.5 407.1 315.3 407 315C406.1 316 405.1 316.7 403.8 316.9C402.4 317.1 401.3 316.7 400.3 315.5C399.9 316.6 399.5 317.6 399.2 318.6C398.5 320.5 398.5 320.5 396.4 320.1C396.5 319.8 396.6 319.5 396.7 319.2C397.4 317.3 398.2 315.5 398.9 313.6C399.1 313.2 399.1 312.6 399.1 312.2C399 309.4 399.6 306.8 400.7 304.3C401.1 303.5 401.6 302.8 402.2 302.1C402.4 301.9 402.9 301.8 403.1 301.9C403.3 302 403.5 302.4 403.5 302.7C403.3 304.2 403.1 305.6 402.7 307C402.3 308.7 401.8 310.4 401.3 312.1C400.8 314 402.2 315.4 404.1 315C405.4 314.7 406.9 313 407 311.6C407.2 308.8 407.8 306.1 409.1 303.6C409.3 303.1 409.6 302.6 410 302.2C410.2 302 410.6 301.8 410.9 301.8C411.1 301.9 411.4 302.3 411.4 302.6C411.4 303.5 411.4 304.5 411.2 305.4C410.6 307.5 409.8 309.5 409.2 311.6C409 312.3 408.9 313.1 408.9 313.9C408.9 314.8 409.3 315 410.2 314.6C410.3 314.4 410.5 314.3 410.8 314.2Z" fill="#2F3676"/>
<path opacity="0.61" d="M429.9 313.9C429.5 315.6 429.1 317.1 428.7 318.7C428.3 320.4 428.1 320.5 426.2 320.1C426.7 318.3 427.2 316.5 427.7 314.7C428.3 312.6 428.9 310.5 429.5 308.4C430.1 306.4 431 304.6 432.5 303.1C434 301.7 435.9 301.2 437.9 301.7C439.9 302.2 441.2 303.6 441.5 305.6C442.1 309.2 441.2 312.5 438.5 315.2C437.5 316.2 436.2 316.8 434.8 316.8C433 316.9 431.5 316.3 430.5 314.7C430.3 314.5 430.2 314.3 429.9 313.9ZM439.6 307.5C439.6 307.3 439.6 306.8 439.5 306.3C439.2 304.1 437.5 303 435.4 303.6C434.7 303.8 434.1 304.2 433.6 304.6C431.4 306.8 430.9 309.6 431.6 312.5C432.1 314.6 433.7 315.4 435.7 314.6C436.3 314.4 437 313.9 437.4 313.4C439 311.9 439.5 309.9 439.6 307.5Z" fill="#2F3676"/>
<path opacity="0.61" d="M379.8 316.6C380.3 314.9 380.7 313.3 381.2 311.7C381.8 309.5 382.4 307.4 383 305.2C383.1 304.8 383.1 304.1 382.9 304C382.3 303.7 382.1 304.4 381.8 304.7C381.5 305.1 381.3 305.5 381 306C380.5 305.6 380 305.3 379.4 304.9C380 304.1 380.4 303.4 381.1 302.7C382.7 301 384.6 301.5 385.3 303.7C385.8 303.3 386.2 302.9 386.7 302.6C387.6 301.9 388.7 301.7 389.8 301.8C391.6 302 392.8 303.2 392.6 305C392.4 306.9 391.9 308.9 391.4 310.8C390.7 313.7 389.9 316.5 389.2 319.4C389 320.2 388.7 320.5 388 320.4C387.7 320.3 387.3 320.4 386.8 320.4C387 319.6 387.1 319 387.3 318.3C388.3 314.4 389.3 310.5 390.3 306.6C390.4 306.3 390.5 305.9 390.5 305.6C390.6 304.5 389.8 303.6 388.6 303.7C387.8 303.8 387 304.2 386.4 304.7C385.2 305.6 384.5 306.9 384.1 308.3C383.4 310.8 382.7 313.2 382 315.7C381.8 316.5 381.4 316.9 380.6 316.7C380.5 316.5 380.2 316.6 379.8 316.6Z" fill="#2F3676"/>
<path opacity="0.61" d="M364.4 298.7C364.1 298.2 363.7 297.7 363.4 297.1C364.7 296.3 366 295.7 367.5 296C368.6 296.2 369.2 297.1 369.3 298.5C369.4 300 369.5 301.5 369.6 303C369.8 306.2 370 309.4 370.2 312.6C370.3 314.3 370.8 314.7 372.4 314.7C372.8 314.7 373.2 314.7 373.7 314.7C373.6 315.4 373.5 316 373.4 316.8C372.4 316.7 371.3 316.8 370.3 316.5C369.1 316.2 368.6 315.3 368.5 314.1C368.3 312.1 368.2 310.1 368.1 308.1C368.1 307.7 368.1 307.4 367.9 306.9C367.7 307.1 367.6 307.4 367.4 307.6C365.7 310.3 364 313 362.4 315.7C362 316.4 361.5 316.7 360.8 316.6C360.4 316.5 360 316.6 359.4 316.6C359.7 316.2 359.8 315.9 360 315.7C362.4 312.1 364.8 308.5 367.3 304.9C367.7 304.3 367.9 303.7 367.8 302.9C367.7 301.7 367.6 300.5 367.5 299.3C367.4 298.2 366.9 297.8 365.8 298.2C365.3 298.3 364.9 298.5 364.4 298.7Z" fill="#2F3676"/>
<path opacity="0.61" d="M422.9 312.9C423.1 313.6 423.3 314.2 423.4 314.8C423.4 315 423.3 315.3 423.1 315.4C421.8 316.2 420.5 316.7 418.9 316.6C417 316.5 415.7 315.5 415.2 313.9C414.6 311.9 415.2 309.9 416.7 308.8C416.9 308.7 417.1 308.5 417.3 308.4C416.6 307.5 416.3 306.4 416.4 305.3C416.5 303.6 417.6 302.4 419.3 302.1C421.1 301.8 422.8 302.3 424.3 303.2C424.7 303.4 424.8 303.7 424.6 304.1C424.4 304.6 424.2 305 423.9 305.6C423.5 305.4 423.3 305.2 422.9 305.1C421.9 304.8 420.9 304.4 419.8 304.4C418.4 304.4 417.8 305.7 418.5 306.8C418.8 307.2 419.1 307.5 419.7 307.3C420.1 307.2 420.6 307.2 421 307.3C421.8 307.4 422 308 422.1 308.6C422.2 309.3 421.8 309.7 421.1 309.8C420.6 309.9 420 309.8 419.5 309.8C418.3 309.6 417.2 310.5 416.9 311.9C416.7 313.2 417.4 314.3 418.7 314.4C419.9 314.6 421.1 314.2 422.1 313.5C422.3 313.2 422.6 313.1 422.9 312.9Z" fill="#2F3676"/>
<path opacity="0.61" d="M417.6 301.2C418.6 300 419.5 299 420.5 297.9C420.6 297.8 420.8 297.7 421 297.7C421.8 297.7 422.7 297.7 423.6 297.9C423.4 298.1 423.2 298.2 423 298.4C422.1 299.1 421.2 299.8 420.3 300.5C419.6 301.2 418.8 301.4 417.6 301.2Z" fill="#2F3676"/>
</g>
<path d="M336.7 85.8C335.8 85.9 314.5 104 306 109.3C293.8 116.8 284 112.3 274.7 98.2L298.9 83.3" fill="#F2800F"/>
<path d="M359.1 77.2001C367.4 82.9001 379.1 91.5001 394.4 103.2L391.4 108.4C377.6 102.7 367.9 98.2001 362.3 94.9001C352.7 89.2001 344.6 84.0001 341.7 81.8001C337.2 78.4001 339.4 73.5001 342.5 71.0001C342.6 71.1001 345 67.8001 359.1 77.2001Z" fill="#B28B67"/>
<path d="M335.1 76.6C335.7 73.4 341.5 69.1 343.6 71.1C348.6 75.7 366.5 103.7 367.7 105.4C368.9 107.1 366 111.1 363.9 109.6C358.3 105.5 352.9 101.2 348 96.3C343.2 91.5 338.2 86.2 335.6 79.5C335.3 78.7 335 77.8 335.1 76.8C335.1 76.8 335.1 76.7 335.1 76.6Z" fill="#B28B67"/>
<path d="M385.826 107.786C386.416 109.165 387.032 110.098 387.538 110.621C388.131 111.194 389.157 112.018 390.529 113.041C391.289 112.325 397.631 105.94 409.641 93.9375C408.472 91.7617 407.297 91.1983 406.164 92.1607C404.944 93.0731 403.911 93.8624 403.114 94.4418L390.23 99.3583C389.957 99.4315 389.893 99.7413 389.967 100.014L390.789 101.99C390.299 103.439 389.699 104.479 389.075 105.158C388.552 105.664 387.669 106.194 386.39 106.61C385.843 106.756 385.543 107.276 385.826 107.786C385.826 107.786 385.74 107.736 385.826 107.786Z" fill="#E4E4E4"/>
<path d="M379.5 104.7L335.9 83C328.9 78 338.5 65.9 342.6 67.7C352 71.8 381.9 91.6 384.7 92.8L379.5 104.7Z" fill="#F2800F"/>
<path d="M357.9 106.5C357.4 107.9 357.1 109 357.1 109.7C357.1 110.6 357.2 111.8 357.5 113.5C358.5 113.5 367.5 113.6 384.5 113.7C385.2 111.4 384.8 110.1 383.3 109.9C381.8 109.7 380.5 109.5 379.5 109.4L367 103.7C366.8 103.6 366.5 103.7 366.4 103.9L365.6 105.9C364.2 106.5 363.1 106.9 362.2 106.9C361.5 106.9 360.5 106.6 359.3 106C358.7 105.8 358.1 106 357.9 106.5Z" fill="#E4E4E4"/>
<path d="M347.7 70.5002C356.7 81.1002 365.3 96.8002 366.8 99.1002L354.4 106.3C338.2 88.2002 331.5 86.1001 330.9 86.2001C330 86.3001 308.7 104.4 300.2 109.7C288 117.2 265.1 110.4 266.8 87.4002L293.1 83.7001C298.4 81.2001 327.3 70.5002 337.9 66.4002C342.5 64.6002 345.5 67.9002 347.7 70.5002Z" fill="#F49B0C"/>
<path d="M281.2 30.5001C279 27.9001 277.5 24.7001 277.7 21.2001C278.4 10.9001 292.7 13.2001 295.5 18.4001C298.3 23.6001 297.9 36.7001 294.4 37.6001C293 38.0001 289.9 37.1001 286.8 35.2001L288.7 49.0001H277.2L281.2 30.5001Z" fill="#B28B67"/>
<path d="M284.8 24.9001C284.4 24.6001 284 24.5001 283.5 24.5001C282.2 24.5001 281.1 25.7001 281.1 26.9001C281.1 28.2001 281.7 29.1001 282.5 29.6001C282 30.5001 281.6 31.1001 281.1 31.3001C279 31.1001 276.3 25.9001 276.3 21.7001C276.3 17.1001 280 13.1001 286.8 13.1001C293 13.1001 295.3 15.6001 295.4 17.9001C292.8 18.6001 288.1 18.9001 281.5 18.9001V19.4001L287.2 19.9001L288.2 22.8001C286.8 22.5001 285.7 23.5001 284.8 24.9001Z" fill="#191847"/>
<path d="M253 71.4001H263.5C252 97.3001 246 110.8 245.5 112.1C244.4 114.8 246.7 119 247.7 121.3C244.4 122.8 244.8 117.3 240.7 119.3C236.9 121 234.1 124.2 229.7 121.5C229.2 121.2 228.6 119.9 230 119C233.5 116.6 238.6 112.4 239.3 111C240.3 109 244.8 95.8001 253 71.4001Z" fill="#997659"/>
<path d="M277.7 35.7002L290.1 38.5002C290.1 59.9002 295.4 69.3002 298.9 85.1002L266.6 94.8002C266.1 100.2 266.1 100.3 265.9 106.1H240.7C246.4 75.8002 258.4 52.3002 276.8 35.7002H277.7Z" fill="#84033E"/>
<path d="M272.1 58.8C271.2 72.1 273.3 85.2 275.2 92.2L266.6 94.8001C267.5 84.1001 269.4 68.4 272.1 58.8Z" fill="black" fill-opacity="0.1"/>
<g opacity="0.46">
<path opacity="0.46" d="M106.6 101.8C103.9 101 101.2 100.1 98.3996 99.4C96.9996 99 95.5996 99.3 94.3996 100.2C94.2996 100.3 94.0996 100.3 93.6996 100.5C93.6996 100 93.5996 99.6 93.6996 99.3C94.1996 97.4 96.0996 95.9 98.0996 96.1C100.1 96.3 102 96.9 103.9 97.5C106.6 98.3 109.2 99.3 111.9 100.1C112.9 100.4 114 100.4 115.4 100.5C114.9 101.5 114.5 102.5 114 103.4C113.9 103.6 113.4 103.7 113.2 103.6C110 102.8 107.2 104.3 104.5 105.6C101.7 107 98.8996 108.3 95.7996 108.7C94.0996 108.9 92.2996 109 90.5996 109C88.3996 108.9 86.6996 107.9 85.9996 105.6C85.8996 105.7 85.7996 105.7 85.6996 105.8C83.7996 108.5 80.7996 109.6 77.5996 108.9C75.4996 108.4 74.2996 107 73.8996 105C73.4996 102.8 73.2996 100.5 73.0996 98.2C72.7996 94.7 72.4996 91.1 72.2996 87.6C72.1996 85.9 73.0996 84.7 74.2996 83.3C74.4996 83.9 74.5996 84.2 74.6996 84.5C74.8996 87.1 75.0996 89.6 75.2996 92.2C75.4996 95.4 75.5996 98.7 75.8996 101.9C76.0996 104.7 77.9996 106 80.6996 105.6C82.7996 105.3 84.2996 104.2 84.8996 102.1C85.0996 101.3 85.3996 100.5 85.5996 99.7C85.7996 98.8 86.3996 98.5 87.2996 98.7C88.0996 98.9 87.6996 99.6 87.5996 100C87.4996 100.9 87.0996 101.8 87.1996 102.6C87.3996 104.5 88.8996 105.5 91.1996 105.6C95.3996 105.7 99.4996 105.1 103.4 103.4C104.5 102.9 105.6 102.6 106.7 102.2C106.6 102 106.6 101.9 106.6 101.8Z" fill="#2F3676"/>
<path opacity="0.46" d="M133.8 105.4C131.4 108.9 128.6 109.9 125.4 108.3C125.3 108.7 125.2 109.1 125.2 109.5C124.7 112.2 123.6 114.7 121.7 116.8C119.1 119.7 115.8 120.3 111.9 118.4C111.4 118.2 110.8 118 110.5 117.6C110.1 117.2 109.9 116.6 109.8 116.1C109.7 115.6 110.1 115.3 110.6 115.6C114.3 117.8 117.4 116.3 120.3 113.8C121.7 112.6 122.8 111.1 123.5 109.4C123.8 108.7 123.7 108.1 123.3 107.5C122.5 106.3 121.6 105.1 120.9 103.9C120.2 102.9 120.6 100.6 121.6 99.9001C121.7 99.8001 122.2 100 122.3 100.2C122.8 101 123.2 101.9 123.7 102.8C124.7 104.6 126.3 105.5 128.4 105.7C130.7 105.8 132 105 133 102.9C133.8 101.2 134.7 99.5001 135.8 98.1001C137.8 95.6001 140.7 96.0001 142.2 98.9001C143.3 101.1 144 103.5 143 105.9C142.8 106.4 142.6 106.9 142.3 107.3C141.8 108.2 141 108.7 140 108.3C138.5 107.7 137 107.1 135.5 106.4C134.8 106.1 134.3 105.8 133.8 105.4ZM140.9 103.8C140.6 103 140.5 102.1 140.1 101.4C139.6 100.3 138.8 99.5001 137.6 99.6001C136.4 99.7001 135.7 100.6 135.4 101.7C135.3 102 135.4 102.6 135.6 102.7C136.9 103.5 138.2 104.2 139.6 104.9C140.5 105.1 140.8 104.8 140.9 103.8Z" fill="#2F3676"/>
<path opacity="0.46" d="M83.5995 114.5C83.5995 115.5 82.2995 117.1 81.4995 117.1C80.5995 117.1 78.9995 115.7 78.9995 114.8C78.9995 113.8 80.1995 112.2 81.0995 112.2C81.9995 112.2 83.5995 113.6 83.5995 114.5Z" fill="#2F3676"/>
</g>
</svg>
