<svg width="340" height="520" viewBox="0 0 340 520" fill="none" xmlns="http://www.w3.org/2000/svg">
<rect width="2582" height="1450" transform="translate(-829 -465)" fill="white"/>
<path d="M340.514 340.6H-0.986328V520.4H340.514V340.6Z" fill="#F99506"/>
<path d="M341.014 -1H-0.786133V341.4H341.014V-1Z" fill="#F9C041"/>
<path opacity="0.27" d="M262.913 114.7L-1.08691 251.4L-0.786915 341.4H255.313H341.013L340.913 134.4L312.413 114.7H262.913Z" fill="#F2F2F2"/>
<path d="M253.913 261.8C253.913 268.2 249.913 273.8 243.613 277.4C242.213 278.2 243.113 283.1 242.813 283.9C242.513 284.7 237.313 280 236.413 280.2C234.013 280.8 231.413 281.1 228.713 281.1C214.813 281.1 203.513 272.5 203.513 261.8C203.513 251.1 214.813 242.5 228.713 242.5C242.613 242.6 253.913 251.2 253.913 261.8Z" fill="white"/>
<path d="M224.813 332C223.813 332 223.013 333.1 223.013 334.6C223.013 334.8 223.013 335 223.013 335.1C223.013 335.6 223.013 336.1 223.013 336.7C223.013 337.5 223.013 338.3 223.013 339.1C223.013 340.2 223.013 341.2 223.013 342.3C223.013 343.6 223.013 344.8 223.013 346.1C223.013 347.5 223.013 348.9 223.013 350.3C223.013 351.8 223.013 353.4 223.013 354.9C223.013 356.5 223.013 358.1 223.013 359.7C223.013 361.3 223.013 362.9 223.013 364.5C223.013 366.1 223.013 367.7 223.013 369.3C223.013 370.8 223.013 372.4 223.013 373.9C223.013 375.3 223.013 376.7 223.013 378.2C223.013 379.5 223.013 380.7 223.013 382C223.013 383.1 223.013 384.1 223.013 385.2C223.013 386 223.013 386.8 223.013 387.7C223.013 388.2 223.013 388.8 223.013 389.3C223.013 389.6 223.013 390 223.013 390.3C223.013 390.7 223.413 390.8 223.613 390.9C224.013 391.1 224.413 391.1 224.813 391.1C225.113 391.1 225.513 391.1 225.813 391C226.013 390.9 226.413 390.8 226.513 390.5C226.513 390.4 226.513 390.4 226.513 390.3C226.513 390 226.513 389.6 226.513 389.3C226.513 388.8 226.513 388.3 226.513 387.8C226.513 387 226.513 386.2 226.513 385.4C226.513 384.4 226.513 383.4 226.513 382.4C226.513 381.2 226.513 380 226.513 378.8C226.513 377.4 226.513 376.1 226.513 374.7C226.513 373.2 226.513 371.8 226.513 370.3C226.513 368.8 226.513 367.2 226.513 365.7C226.513 364.1 226.513 362.6 226.513 361C226.513 359.5 226.513 357.9 226.513 356.4C226.513 354.9 226.513 353.4 226.513 351.9C226.513 350.5 226.513 349.1 226.513 347.7C226.513 346.4 226.513 345.2 226.513 343.9C226.513 342.8 226.513 341.7 226.513 340.6C226.513 339.7 226.513 338.8 226.513 337.9C226.513 337.3 226.513 336.6 226.513 336C226.513 335.7 226.513 335.3 226.513 335V334.9C226.613 333.2 225.813 332 224.813 332Z" fill="#B3B3B3"/>
<path d="M97.4131 320.9L112.013 370L118.913 406.9H125.813L118.913 320.9H97.4131Z" fill="#997659"/>
<path d="M90.9131 320.9C91.9131 346.4 91.5131 360.3 91.3131 362.6C91.1131 364.9 89.8131 380.4 80.9131 407.6H88.1131C99.8131 381.5 103.913 366 105.213 362.6C106.513 359.2 110.513 345.3 116.313 320.9H90.9131Z" fill="#997659"/>
<path d="M97.1133 320.9C100.913 337.8 107.513 364.8 116.813 401.8H126.913C127.613 363.8 124.513 338.7 119.013 320.9H97.1133Z" fill="#2D3C87"/>
<path d="M90.8129 320.9C91.8129 346.4 89.2129 371.5 81.2129 402.2H92.0129C103.713 376.5 112.113 351.5 117.813 320.9H90.8129Z" fill="#4D58AA"/>
<path d="M79.9131 412.7L80.3131 406.5C82.6131 407.2 85.5131 406.9 89.0131 405.7C92.8131 408.3 97.5131 410.1 103.213 411C103.613 411.1 103.913 411.5 103.913 411.9V412L103.413 413.9H89.0131H80.7131L79.9131 412.7Z" fill="#191847"/>
<path d="M117.413 412.7L117.813 406.5C120.113 407.2 123.013 406.9 126.513 405.7C130.313 408.3 135.013 410.1 140.713 411C141.113 411.1 141.413 411.5 141.413 411.9V412L140.913 413.9H126.613H118.313L117.413 412.7Z" fill="#191847"/>
<path d="M106.313 263.6C104.513 261.5 103.213 258.9 103.413 256C104.013 247.7 115.913 249.5 118.213 253.7C120.513 257.9 120.213 268.6 117.213 269.3C116.013 269.6 113.513 268.9 110.913 267.3L112.513 278.5H102.913L106.313 263.6Z" fill="#997659"/>
<path d="M99.2128 253.2C98.9128 252.9 98.7128 252.5 98.6128 252.1C98.4128 251.7 98.3128 251.3 98.2128 250.8C98.0128 249.9 98.0128 248.9 98.6128 248.2C99.1128 247.7 99.9128 247.4 100.613 247.4C101.113 247.4 101.613 247.4 102.013 247.6C102.513 247.7 102.813 248 103.313 248.2C103.313 247.3 103.513 246.3 104.013 245.5C104.513 244.7 105.213 244.3 106.113 244.2C107.013 244.1 107.813 244.3 108.613 244.7C108.813 244.8 109.013 244.9 109.213 245C109.413 245.1 109.513 245.2 109.713 245.3C109.913 245.3 110.013 245.2 110.113 245.1C110.313 244.9 110.413 244.8 110.613 244.6C111.413 244 112.513 243.8 113.513 244.1C113.913 244.3 114.413 244.5 114.713 244.9C115.013 245.2 115.213 245.8 115.513 246C115.713 246.1 115.813 246 115.913 245.9C116.113 245.8 116.313 245.6 116.513 245.4C116.813 245.2 117.113 245 117.513 245C118.013 244.9 118.713 244.9 118.913 245.6C119.013 245.8 118.913 246.1 118.913 246.4C118.913 246.7 118.913 247.1 118.813 247.4C118.813 247.7 118.713 247.9 118.713 248.2C118.713 248.3 118.613 248.6 118.613 248.7C118.713 248.9 119.013 248.8 119.213 248.8C119.513 248.8 119.813 248.9 120.013 249C120.213 249.1 120.413 249.2 120.513 249.5C120.613 249.6 120.513 249.8 120.513 249.9C120.513 250.1 120.513 250.2 120.513 250.3C120.913 250.1 122.213 249.7 122.413 250.4C122.513 250.6 122.313 250.9 122.213 251.1C122.013 251.4 121.813 251.7 121.613 252C121.113 252.6 120.513 253.1 119.913 253.6C120.613 253.9 120.813 254.8 120.213 255.4C119.913 255.6 119.613 255.7 119.213 255.7C119.113 255.7 118.913 255.6 118.813 255.7C118.713 255.7 118.713 255.8 118.613 255.8C118.113 255.8 117.613 255.7 117.113 255.6C116.213 255.4 115.413 255 114.813 254.4C114.613 254.2 114.513 254.2 114.313 254.2C114.113 254.2 113.913 254.3 113.713 254.3C113.213 254.3 112.713 254.1 112.213 253.9C112.213 254.5 112.013 255.3 111.713 255.8C111.513 256.3 111.013 256.3 110.613 256.4C109.113 256.5 107.713 256.4 106.213 256.4C107.613 256.7 109.113 256.8 110.513 257.2C111.113 257.4 110.613 257.8 110.413 258.1C110.013 258.6 109.613 259.2 109.413 259.8C108.713 258.9 107.513 258.3 106.413 258.6C105.213 258.9 104.413 260.5 105.113 261.6C105.513 262.3 106.313 262.5 107.013 262.8C106.513 263.3 106.413 264.1 106.013 264.8C105.813 265.1 105.613 265.5 105.313 265.6C105.213 265.6 105.013 265.6 104.913 265.7C104.813 265.8 104.713 266 104.613 266.1C104.013 266.5 103.013 266.5 102.413 265.9C101.913 265.4 102.013 264.6 102.413 264.1C101.713 263.8 100.513 263.5 100.813 262.4C99.3128 262.3 95.8128 260 97.7128 258.3C96.6128 257.7 95.6128 256.2 96.3128 255C97.0128 253.7 98.2128 253.3 99.2128 253.2Z" fill="#191847"/>
<path d="M120.513 281.7L135.113 274.9C137.613 272.3 140.113 270.3 142.413 268.9C143.113 268.7 144.413 268.5 143.113 270.5C141.813 272.5 140.613 274.5 141.213 275.1C141.713 275.7 143.313 275 143.913 276C144.313 276.7 141.813 277.6 136.313 278.8L125.513 287.5L120.513 281.7Z" fill="#997659"/>
<path d="M112.013 281C117.013 280.9 123.613 279.9 130.713 275.5L133.513 281.6C128.613 286.3 121.713 290.2 115.713 290.1C111.013 289.9 108.613 284.3 112.013 281Z" fill="#6D0321"/>
<path d="M164.913 268.9C159.013 267.2 153.213 265.1 147.413 263.1C146.713 262.9 143.813 261.4 143.313 261.7C143.313 261.7 142.613 264.9 142.413 265.9C141.913 269 142.313 265.9 141.713 269C141.313 271.1 140.913 273 140.713 273.9C140.613 274.1 140.613 274.3 140.613 274.4C140.613 274.7 140.613 274.9 140.713 275.1C141.213 275.7 142.613 275 143.213 276C143.513 276.5 142.113 277.2 139.013 278.1C137.213 282.1 131.013 290.3 130.413 291C134.813 293.3 139.313 295.7 143.713 298C144.813 298.6 151.313 302.3 152.513 302C153.713 301.7 155.713 297.9 156.813 295.9C159.413 291 161.513 285.7 163.013 280.3C163.413 278.8 166.113 269.2 164.913 268.9Z" fill="#AFBBEF"/>
<path d="M145.013 293.5L151.213 290.2C152.113 286.9 153.113 285.3 154.313 285.3C155.213 284.9 153.613 289 155.413 288.6C157.213 288.2 161.513 285.1 162.313 285.7C163.413 286.6 162.413 289.5 161.313 291C159.113 293.7 157.313 294.6 152.913 295.8C150.613 296.4 148.113 297.7 145.413 299.6L145.013 293.5Z" fill="#997659"/>
<path d="M121.413 295.1C126.713 296.4 135.613 294.9 148.013 290.5C151.113 296.7 152.513 301.2 152.313 303.8C141.613 309.2 132.513 311.7 124.913 311.8C125.113 316.2 124.613 320.3 122.813 324.1C119.013 331.9 97.0129 324.7 89.6129 326.1C85.0129 311.4 93.9129 305.4 93.9129 296C93.9129 285.7 102.413 269.9 103.613 269.9H115.013C115.713 277.9 118.813 286.6 121.413 295.1Z" fill="#930527"/>
<path d="M285.413 360.9H254.413L250.313 409.6H296.613L285.413 360.9Z" fill="#C5CFD6"/>
<path d="M285.414 360.9H275.914L270.214 409.6H296.614L285.414 360.9Z" fill="black" fill-opacity="0.1"/>
<path d="M209.613 409.8C217.513 400.3 222.913 393.3 225.713 388.8C230.513 381 234.413 374 235.713 371.4C238.713 365.1 228.913 362.1 226.713 365.1C223.413 369.6 216.213 383.6 205.313 407.3L209.613 409.8Z" fill="#B28B67"/>
<path d="M225.913 407.1L240.713 370.8C243.913 364.2 228.613 359.8 226.313 362.9C221.013 369.9 208.513 397.4 206.913 399.5L225.913 407.1Z" fill="#2F3676"/>
<path d="M265.237 399.788C262.388 395.679 251.912 381.92 246.199 376.264C244.537 374.661 243.016 373.043 241.447 371.644C237.006 367.276 227.967 374.625 232.504 378.556C243.706 388.4 259.963 401.693 261.299 402.903C263.179 404.554 267.002 402.375 265.237 399.788Z" fill="#B28B67"/>
<path d="M264.583 397.924C265.609 398.747 266.202 399.32 266.485 399.83C266.855 400.39 267.284 401.446 267.75 402.639C267.054 403.045 260.426 406.725 248.091 413.69C246.559 412.344 246.353 411.301 247.386 410.512C248.419 409.722 249.215 409.143 249.875 408.6L256.651 399.464C256.751 399.291 257.024 399.218 257.197 399.318L258.656 400.391C259.958 400.335 260.915 400.078 261.611 399.672C262.121 399.389 262.694 398.796 263.381 397.807C263.654 397.734 264.15 397.674 264.583 397.924C264.497 397.874 264.497 397.874 264.583 397.924Z" fill="#E4E4E4"/>
<path d="M213.014 408.4C213.514 409.6 213.714 410.4 213.714 411C213.714 411.7 213.614 412.7 213.314 414.1C212.514 414.1 204.914 414.1 190.614 414.1C190.014 412.2 190.414 411.2 191.614 411C192.914 410.8 193.914 410.7 194.814 410.6L205.314 406C205.514 405.9 205.714 406 205.814 406.2L206.514 407.8C207.714 408.3 208.614 408.6 209.414 408.6C210.014 408.6 210.814 408.4 211.914 407.9C212.314 407.8 212.814 407.9 213.014 408.4Z" fill="#E4E4E4"/>
<path d="M245.914 372.6C258.214 370.6 266.414 369.3 270.614 368.6C282.514 366.6 285.914 360.3 283.914 346.7H262.014C259.114 347.5 247.014 352.6 225.714 361.8C221.914 363.7 222.614 369.1 223.314 370.9C223.314 371 229.814 381.8 242.714 403.3L260.614 392.2L245.914 373.8C245.514 373.2 245.514 372.7 245.914 372.6Z" fill="#5C63AB"/>
<path d="M277.314 298C279.214 295.9 280.414 293.3 280.214 290.4C279.614 282 267.614 283.8 265.314 288.1C263.014 292.4 263.214 303.1 266.314 303.9C267.514 304.2 270.114 303.5 272.714 301.9L271.114 313.2H280.814L277.314 298Z" fill="#B28B67"/>
<path d="M264.314 290C264.414 289.5 264.614 288.8 264.814 288.3C265.014 287.6 265.414 287 265.814 286.5C266.614 285.4 267.514 284.5 268.514 283.7C270.314 282.2 272.714 281.4 275.014 281.7C276.214 281.8 277.314 282.3 278.314 283C279.214 283.7 280.014 284.6 281.114 284.7C282.314 284.8 283.514 283.7 284.414 283.1C285.514 282.4 286.714 281.8 288.014 281.6C290.214 281.3 292.214 282 293.714 283.7C295.314 285.5 296.514 288.3 295.414 290.7C295.214 291.2 295.014 291.5 294.614 291.9C294.314 292.2 293.814 292.5 293.614 293C293.514 293.5 293.914 294.1 294.014 294.6C294.214 295.2 294.414 295.9 294.414 296.6C294.314 297.7 293.614 298.8 292.814 299.6C292.014 300.4 291.014 300.8 290.014 301C289.314 301.1 288.614 301.2 287.914 301.2C287.514 301.2 287.214 301.1 286.914 301C286.614 300.9 286.414 301 286.114 301.2C284.814 302 283.414 302.3 281.914 302.2C280.614 302.1 279.214 301.8 278.114 300.9C277.014 300 277.014 298.7 277.214 297.3C276.914 297.4 276.114 297.5 276.614 297C276.814 296.8 277.114 296.7 277.414 296.6C277.714 296.5 278.014 296.3 278.214 296C279.114 295 278.214 293 277.114 292.7C275.514 292.2 275.114 294.5 273.914 295.1C273.214 295.4 272.514 295 272.014 294.5C271.314 293.9 270.914 293 270.514 292.2C270.214 291.5 269.914 290.8 269.514 290.1C269.314 289.8 268.814 288.9 269.114 288.5C267.914 288.3 266.614 288.7 265.614 289.4C265.214 289.7 264.914 289.9 264.614 290.4C264.614 290.5 264.414 290.8 264.314 290.8C264.214 290.4 264.314 290.1 264.314 290Z" fill="#191847"/>
<path d="M242.913 340.4L232.013 332.2C226.513 331.2 224.013 330.4 224.413 329.7C225.013 328.6 226.513 329.4 227.013 328.7C227.513 328.1 226.213 326.1 224.913 324.2C223.613 322.4 224.813 322.4 225.513 322.6C227.913 323.9 230.313 325.8 232.913 328.3L247.513 334.5L242.913 340.4ZM316.513 360C317.313 361 322.213 363.6 325.413 365C326.713 365.6 326.413 366.6 326.113 367C322.913 369.8 320.113 367.7 316.713 366.9C313.013 366 314.113 370.3 311.213 369.6C311.713 367.6 312.913 363.9 311.613 361.9C311.013 361 306.613 353 298.313 337.9L306.513 336.3C312.113 350.7 315.413 358.6 316.513 360Z" fill="#B28B67"/>
<path d="M275.814 306.2L272.314 305.6C264.714 312.8 261.614 330 256.614 332.3C251.814 334.5 245.114 332.4 237.014 329.6L234.514 335C241.814 342.7 257.414 349.2 263.714 345.5C273.814 339.5 276.214 318.3 275.814 306.2Z" fill="#930527"/>
<path d="M291.014 348.9C277.014 348.9 266.813 348.9 260.213 348.9C258.813 348.9 259.114 346.9 259.314 345.9C261.614 334.4 270.814 321.9 270.814 305.5L279.713 304.1C287.014 315.7 289.514 329.9 291.014 348.9Z" fill="#DDE3E9"/>
<path d="M294.013 337.2C300.313 348.2 305.613 356.2 309.813 361.1L316.313 359.9C312.113 334.8 300.113 316.2 280.213 304.2H280.113H276.713C268.713 330.7 266.513 348.4 270.113 357.2H297.813C297.413 350.7 296.013 343.9 294.013 337.2Z" fill="#CE1B35"/>
<path d="M140.313 334C139.313 334 138.513 335.1 138.513 336.5C138.513 336.7 138.513 336.9 138.513 337C138.513 337.5 138.513 338 138.513 338.5C138.513 339.3 138.513 340.1 138.513 340.9C138.513 341.9 138.513 343 138.513 344C138.513 345.2 138.513 346.5 138.513 347.7C138.513 349.1 138.513 350.5 138.513 351.9C138.513 353.4 138.513 354.9 138.513 356.4C138.513 358 138.513 359.5 138.513 361.1C138.513 362.7 138.513 364.3 138.513 365.8C138.513 367.4 138.513 368.9 138.513 370.5C138.513 372 138.513 373.5 138.513 375C138.513 376.4 138.513 377.8 138.513 379.2C138.513 380.4 138.513 381.7 138.513 382.9C138.513 383.9 138.513 385 138.513 386C138.513 386.8 138.513 387.6 138.513 388.4C138.513 388.9 138.513 389.4 138.513 390C138.513 390.3 138.513 390.6 138.513 391C138.513 391.4 138.913 391.5 139.113 391.6C139.513 391.8 139.913 391.8 140.313 391.8C140.613 391.8 141.013 391.8 141.313 391.7C141.513 391.6 141.913 391.5 142.013 391.2C142.013 391.1 142.013 391.1 142.013 391C142.013 390.7 142.013 390.3 142.013 390C142.013 389.5 142.013 389 142.013 388.5C142.013 387.7 142.013 387 142.013 386.2C142.013 385.2 142.013 384.2 142.013 383.2C142.013 382 142.013 380.8 142.013 379.7C142.013 378.4 142.013 377 142.013 375.7C142.013 374.3 142.013 372.8 142.013 371.4C142.013 369.9 142.013 368.4 142.013 366.9C142.013 365.4 142.013 363.8 142.013 362.3C142.013 360.8 142.013 359.3 142.013 357.7C142.013 356.2 142.013 354.8 142.013 353.3C142.013 351.9 142.013 350.5 142.013 349.2C142.013 348 142.013 346.7 142.013 345.5C142.013 344.4 142.013 343.3 142.013 342.3C142.013 341.4 142.013 340.6 142.013 339.7C142.013 339.1 142.013 338.5 142.013 337.8C142.013 337.5 142.013 337.1 142.013 336.8V336.7C142.113 335.1 141.313 334 140.313 334Z" fill="#B3B3B3"/>
<path d="M117.813 349.7C116.813 349.7 116.013 351.1 116.013 352.9C116.013 353.1 116.013 353.4 116.013 353.6C116.013 354.2 116.013 354.9 116.013 355.5C116.013 356.5 116.013 357.5 116.013 358.5C116.013 359.8 116.013 361.1 116.013 362.5C116.013 364.1 116.013 365.6 116.013 367.2C116.013 369 116.013 370.7 116.013 372.5C116.013 374.4 116.013 376.3 116.013 378.2C116.013 380.2 116.013 382.2 116.013 384.2C116.013 386.2 116.013 388.3 116.013 390.3C116.013 392.3 116.013 394.3 116.013 396.3C116.013 398.2 116.013 400.1 116.013 402C116.013 403.8 116.013 405.6 116.013 407.3C116.013 408.9 116.013 410.5 116.013 412C116.013 413.3 116.013 414.7 116.013 416C116.013 417 116.013 418 116.013 419.1C116.013 419.8 116.013 420.4 116.013 421.1C116.013 421.5 116.013 421.9 116.013 422.3C116.013 422.8 116.413 423 116.613 423.1C117.013 423.3 117.413 423.4 117.813 423.4C118.113 423.4 118.513 423.3 118.813 423.2C119.013 423.1 119.413 423 119.513 422.6C119.513 422.5 119.513 422.5 119.513 422.4C119.513 422 119.513 421.5 119.513 421.1C119.513 420.5 119.513 419.8 119.513 419.2C119.513 418.2 119.513 417.2 119.513 416.2C119.513 414.9 119.513 413.7 119.513 412.4C119.513 410.9 119.513 409.4 119.513 407.9C119.513 406.2 119.513 404.5 119.513 402.8C119.513 401 119.513 399.1 119.513 397.3C119.513 395.4 119.513 393.5 119.513 391.5C119.513 389.5 119.513 387.6 119.513 385.6C119.513 383.7 119.513 381.7 119.513 379.8C119.513 377.9 119.513 376 119.513 374.2C119.513 372.4 119.513 370.7 119.513 368.9C119.513 367.3 119.513 365.7 119.513 364.1C119.513 362.7 119.513 361.3 119.513 360C119.513 358.9 119.513 357.8 119.513 356.7C119.513 355.9 119.513 355.1 119.513 354.3C119.513 353.9 119.513 353.4 119.513 353C119.513 352.9 119.513 352.9 119.513 352.8C119.613 351.2 118.813 349.7 117.813 349.7Z" fill="#B3B3B3"/>
<path d="M244.413 351.7C243.413 351.7 242.613 353.1 242.613 354.9C242.613 355.1 242.613 355.4 242.613 355.6C242.613 356.2 242.613 356.9 242.613 357.5C242.613 358.5 242.613 359.5 242.613 360.5C242.613 361.8 242.613 363.1 242.613 364.5C242.613 366.1 242.613 367.6 242.613 369.2C242.613 371 242.613 372.7 242.613 374.5C242.613 376.4 242.613 378.3 242.613 380.2C242.613 382.2 242.613 384.2 242.613 386.2C242.613 388.2 242.613 390.3 242.613 392.3C242.613 394.3 242.613 396.3 242.613 398.3C242.613 400.2 242.613 402.1 242.613 404C242.613 405.8 242.613 407.6 242.613 409.3C242.613 410.9 242.613 412.5 242.613 414C242.613 415.3 242.613 416.7 242.613 418C242.613 419 242.613 420 242.613 421.1C242.613 421.8 242.613 422.4 242.613 423.1C242.613 423.5 242.613 423.9 242.613 424.3C242.613 424.8 243.013 425 243.213 425.1C243.613 425.3 244.013 425.4 244.413 425.4C244.713 425.4 245.113 425.3 245.413 425.2C245.613 425.1 246.013 425 246.113 424.6C246.113 424.5 246.113 424.5 246.113 424.4C246.113 424 246.113 423.5 246.113 423.1C246.113 422.5 246.113 421.8 246.113 421.2C246.113 420.2 246.113 419.2 246.113 418.2C246.113 416.9 246.113 415.7 246.113 414.4C246.113 412.9 246.113 411.4 246.113 409.9C246.113 408.2 246.113 406.5 246.113 404.8C246.113 403 246.113 401.1 246.113 399.3C246.113 397.4 246.113 395.5 246.113 393.5C246.113 391.5 246.113 389.6 246.113 387.6C246.113 385.7 246.113 383.7 246.113 381.8C246.113 379.9 246.113 378 246.113 376.2C246.113 374.4 246.113 372.7 246.113 370.9C246.113 369.3 246.113 367.7 246.113 366.1C246.113 364.7 246.113 363.3 246.113 362C246.113 360.9 246.113 359.8 246.113 358.7C246.113 357.9 246.113 357.1 246.113 356.3C246.113 355.9 246.113 355.4 246.113 355C246.113 354.9 246.113 354.9 246.113 354.8C246.213 353.2 245.413 351.7 244.413 351.7Z" fill="#B3B3B3"/>
<path d="M107.713 353.2L137.513 330.1H224.713L254.513 353.2H107.713Z" fill="#E6E6E6"/>
<path d="M254.513 353.2H107.713V356H254.513V353.2Z" fill="#CCCCCC"/>
<path d="M182.314 312.8C177.314 312.8 173.214 313.9 173.214 315.2C173.214 316.5 177.314 317.6 182.314 317.6C187.314 317.6 191.414 316.5 191.414 315.2C191.414 313.9 187.314 312.8 182.314 312.8Z" fill="#999999"/>
<path d="M182.314 313C184.714 313 186.914 313.2 188.614 313.7C189.414 313.9 190.014 314.2 190.514 314.4C190.814 314.6 191.114 314.8 191.114 315.1C191.114 315.4 190.814 315.7 190.514 315.8C190.114 316.1 189.414 316.3 188.614 316.5C186.914 316.9 184.714 317.2 182.314 317.2C179.914 317.2 177.714 317 176.014 316.5C175.214 316.3 174.614 316 174.114 315.8C173.814 315.6 173.514 315.4 173.514 315.1C173.514 314.8 173.814 314.5 174.114 314.4C174.514 314.1 175.214 313.9 176.014 313.7C177.614 313.3 179.914 313 182.314 313ZM182.314 312.8C177.314 312.8 173.214 313.9 173.214 315.2C173.214 316.5 177.314 317.6 182.314 317.6C187.314 317.6 191.414 316.5 191.414 315.2C191.414 313.9 187.314 312.8 182.314 312.8Z" fill="#F2F2F2"/>
<path d="M172.756 304.481C172.863 304.453 172.938 304.387 172.924 304.334C172.91 304.28 172.812 304.26 172.705 304.288C172.598 304.316 172.523 304.382 172.537 304.435C172.551 304.489 172.649 304.509 172.756 304.481Z" fill="black"/>
<path d="M179.813 327.8L178.513 328.2L173.313 309.3L174.613 308.9L179.813 327.8Z" fill="#2E3192"/>
<path d="M179.213 328.1L178.713 328.2L173.613 309.7L174.113 309.6L179.213 328.1Z" fill="#35519E"/>
<path d="M179.513 329.3C179.613 329.3 179.613 329.3 179.613 329.4L179.913 330.4C179.913 330.5 179.913 330.5 179.813 330.5C179.713 330.5 179.713 330.5 179.713 330.4L179.413 329.4C179.413 329.3 179.413 329.3 179.513 329.3Z" fill="#CCCCCC"/>
<path d="M178.514 328.2L179.514 330.1L180.014 330L179.814 327.8L178.514 328.2Z" fill="#1B1464"/>
<path d="M173.213 309.9L172.713 307.7C172.713 307.7 172.314 304.9 172.414 304.5C172.414 304.1 172.914 304.1 173.014 304.1C173.214 304.1 174.414 307 174.414 307.1C174.414 307.2 175.114 309.3 175.114 309.3C175.114 309.3 176.214 312.5 176.114 312.7C176.014 312.9 176.014 312.9 175.914 312.9C175.814 312.9 175.713 312.8 175.713 312.7C175.713 312.6 174.814 309.8 174.814 309.7C174.814 309.6 174.414 309.9 174.014 309.9C173.614 310 173.213 309.9 173.213 309.9Z" fill="#1B1464"/>
<path d="M186.313 302.9C186.424 302.9 186.513 302.855 186.513 302.8C186.513 302.745 186.424 302.7 186.313 302.7C186.203 302.7 186.113 302.745 186.113 302.8C186.113 302.855 186.203 302.9 186.313 302.9Z" fill="black"/>
<path d="M187.013 307.7H185.613V327.2H187.013V307.7Z" fill="#0071BC"/>
<path d="M186.313 308.2H185.813V327.3H186.313V308.2Z" fill="#0287D1"/>
<path d="M186.313 328.5C186.413 328.5 186.413 328.6 186.413 328.6V329.6C186.413 329.7 186.313 329.7 186.313 329.7C186.213 329.7 186.213 329.6 186.213 329.6V328.6C186.113 328.6 186.213 328.5 186.313 328.5Z" fill="#CCCCCC"/>
<path d="M185.613 327.2L186.013 329.4H186.513L187.013 327.2H185.613Z" fill="#096191"/>
<path d="M185.413 308.2L185.513 306C185.513 306 185.913 303.2 186.013 302.8C186.113 302.4 186.613 302.5 186.713 302.6C186.813 302.7 187.313 305.7 187.313 305.8C187.313 305.9 187.413 308.1 187.413 308.1C187.413 308.1 187.613 311.5 187.413 311.6C187.313 311.8 187.313 311.8 187.213 311.8C187.113 311.8 187.013 311.7 187.013 311.5C187.013 311.3 186.913 308.5 186.913 308.4C186.913 308.3 186.513 308.5 186.113 308.4C185.713 308.5 185.413 308.2 185.413 308.2Z" fill="#096191"/>
<path d="M192.447 304.58C192.457 304.526 192.376 304.466 192.268 304.447C192.159 304.428 192.063 304.457 192.053 304.511C192.044 304.566 192.124 304.625 192.233 304.644C192.342 304.663 192.438 304.635 192.447 304.58Z" fill="black"/>
<path d="M188.414 328.7L187.014 328.5L190.514 309.3L191.914 309.5L188.414 328.7Z" fill="#05C6B3"/>
<path d="M187.714 328.7L187.214 328.6L190.714 309.8L191.214 309.9L187.714 328.7Z" fill="#40E2CF"/>
<path d="M187.514 329.9C187.614 329.9 187.614 330 187.614 330L187.414 331C187.414 331.1 187.314 331.1 187.314 331.1C187.214 331.1 187.214 331 187.214 331L187.414 330C187.314 330 187.414 329.9 187.514 329.9Z" fill="#CCCCCC"/>
<path d="M187.014 328.5L187.114 330.7L187.614 330.8L188.414 328.7L187.014 328.5Z" fill="#00A99D"/>
<path d="M190.313 309.8L190.813 307.6C190.813 307.6 191.713 304.9 191.913 304.6C192.113 304.3 192.513 304.4 192.613 304.5C192.713 304.6 192.613 307.7 192.613 307.8C192.613 307.9 192.313 310.1 192.313 310.1C192.313 310.1 191.913 313.4 191.713 313.6C191.513 313.8 191.513 313.7 191.413 313.7C191.313 313.7 191.313 313.6 191.313 313.4C191.313 313.2 191.713 310.4 191.813 310.4C191.913 310.4 191.413 310.4 191.013 310.3C190.513 310.1 190.313 309.8 190.313 309.8Z" fill="#00A99D"/>
<path d="M189.813 303.301C189.827 303.248 189.751 303.182 189.645 303.154C189.538 303.126 189.44 303.146 189.426 303.2C189.412 303.253 189.487 303.319 189.594 303.347C189.701 303.375 189.799 303.355 189.813 303.301Z" fill="black"/>
<path d="M182.413 326.7L183.813 327.1L189.013 308.2L187.613 307.9L182.413 326.7Z" fill="#2E3192"/>
<path d="M183.014 327L183.514 327.1L188.614 308.6L188.114 308.5L183.014 327Z" fill="#35519E"/>
<path d="M182.813 328.2C182.713 328.2 182.713 328.2 182.713 328.3L182.413 329.3C182.413 329.4 182.413 329.4 182.513 329.4C182.613 329.4 182.613 329.4 182.613 329.3L182.913 328.3L182.813 328.2Z" fill="#CCCCCC"/>
<path d="M183.813 327.1L182.813 329L182.313 328.9L182.413 326.7L183.813 327.1Z" fill="#1B1464"/>
<path d="M189.014 308.8L189.514 306.6C189.514 306.6 189.914 303.8 189.814 303.4C189.814 303 189.314 303 189.214 303C189.014 303 187.814 305.9 187.814 306C187.814 306.1 187.114 308.2 187.114 308.2C187.114 308.2 186.014 311.4 186.114 311.6C186.214 311.8 186.214 311.8 186.314 311.8C186.414 311.8 186.514 311.7 186.514 311.6C186.514 311.4 187.414 308.7 187.414 308.6C187.414 308.5 187.814 308.8 188.214 308.8C188.714 308.9 189.014 308.8 189.014 308.8Z" fill="#1B1464"/>
<path d="M180.715 301.941C180.717 301.886 180.629 301.838 180.518 301.835C180.408 301.832 180.317 301.874 180.315 301.929C180.314 301.985 180.402 302.032 180.512 302.035C180.623 302.038 180.714 301.996 180.715 301.941Z" fill="black"/>
<path d="M179.113 326.4H180.513L181.113 306.9H179.713L179.113 326.4Z" fill="#0071BC"/>
<path d="M179.713 326.5H180.313L180.813 307.4H180.313L179.713 326.5Z" fill="#0287D1"/>
<path d="M179.713 327.7C179.613 327.7 179.613 327.7 179.613 327.8V328.8C179.613 328.9 179.613 328.9 179.713 328.9C179.813 328.9 179.813 328.9 179.813 328.8V327.8C179.913 327.8 179.813 327.7 179.713 327.7Z" fill="#CCCCCC"/>
<path d="M180.513 326.4L180.013 328.6H179.513L179.113 326.4H180.513Z" fill="#096191"/>
<path d="M181.314 307.5V305.3C181.314 305.3 181.014 302.5 180.914 302.1C180.814 301.7 180.314 301.8 180.214 301.9C180.114 302 179.514 305 179.514 305.1C179.514 305.2 179.414 307.4 179.414 307.4C179.414 307.4 179.114 310.8 179.214 310.9C179.314 311.1 179.314 311.1 179.414 311.1C179.514 311.1 179.614 311 179.614 310.8C179.614 310.6 179.814 307.8 179.814 307.7C179.814 307.6 180.214 307.8 180.614 307.7C181.014 307.7 181.314 307.5 181.314 307.5Z" fill="#096191"/>
<path d="M175.624 302.813C175.733 302.794 175.813 302.734 175.804 302.68C175.794 302.625 175.698 302.597 175.59 302.616C175.481 302.635 175.4 302.694 175.41 302.749C175.419 302.803 175.515 302.832 175.624 302.813Z" fill="black"/>
<path d="M179.414 326.9L180.814 326.7L177.314 307.5L175.914 307.7L179.414 326.9Z" fill="#05C6B3"/>
<path d="M180.114 326.9L180.614 326.8L177.214 308L176.614 308.1L180.114 326.9Z" fill="#40E2CF"/>
<path d="M180.414 328.1C180.314 328.1 180.314 328.2 180.314 328.2L180.514 329.2C180.514 329.3 180.614 329.3 180.614 329.3C180.714 329.3 180.714 329.2 180.714 329.2L180.514 328.2C180.514 328.1 180.414 328.1 180.414 328.1Z" fill="#CCCCCC"/>
<path d="M180.814 326.7V328.9L180.314 329L179.414 326.9L180.814 326.7Z" fill="#00A99D"/>
<path d="M177.614 308L177.114 305.8C177.114 305.8 176.214 303.1 176.014 302.8C175.814 302.5 175.414 302.6 175.314 302.7C175.214 302.8 175.314 305.9 175.314 306C175.314 306.1 175.614 308.3 175.614 308.3C175.614 308.3 176.014 311.6 176.214 311.8C176.414 311.9 176.414 311.9 176.514 311.9C176.614 311.9 176.614 311.8 176.614 311.6C176.614 311.4 176.214 308.6 176.114 308.6C176.014 308.6 176.514 308.6 176.914 308.5C177.314 308.2 177.614 308 177.614 308Z" fill="#00A99D"/>
<path d="M182.314 317.5C177.314 317.5 173.214 316.4 173.214 315.1L174.514 332.2C174.514 332.9 175.214 333.1 175.714 333.2C176.314 333.4 177.014 333.5 177.614 333.6C179.114 333.8 180.514 333.9 182.014 333.9C183.714 333.9 185.514 333.8 187.214 333.4C187.714 333.3 188.214 333.2 188.614 333C189.014 332.8 189.414 332.7 189.514 332.3V332.2L191.214 315.2C190.914 316.6 187.014 317.5 182.314 317.5Z" fill="#CCCCCC"/>
<path d="M176.614 333.6C176.114 333.4 175.014 333.3 175.014 332.7L173.714 316C173.714 316 175.414 316.3 175.614 316.7C175.914 317.1 176.614 333.6 176.614 333.6Z" fill="#D4D6D6"/>
<path d="M173.214 315.2C173.214 316.5 177.314 317.6 182.314 317.6C187.314 317.6 191.414 316.5 191.414 315.2H191.214C191.214 315.5 190.914 315.8 190.614 315.9C190.214 316.2 189.514 316.4 188.714 316.6C187.014 317 184.814 317.3 182.414 317.3C180.014 317.3 177.814 317.1 176.114 316.6C175.314 316.4 174.714 316.1 174.214 315.9C173.914 315.7 173.614 315.5 173.614 315.2H173.214Z" fill="#F2F2F2"/>
<path d="M156.913 334.9C154.913 335.8 135.213 339.8 135.213 339.8C135.213 339.8 145.713 346.7 147.513 347.7C149.313 348.8 170.113 342.6 170.113 342.6L156.913 334.9Z" fill="#AFBBEF"/>
<path d="M220.613 334.4C218.613 335.3 198.913 339.3 198.913 339.3C198.913 339.3 209.413 346.2 211.213 347.2C213.013 348.3 233.813 342.1 233.813 342.1L220.613 334.4Z" fill="#8B96D8"/>
<path d="M164.613 336.5C162.613 337.4 142.913 341.4 142.913 341.4C142.913 341.4 153.413 348.3 155.213 349.3C157.013 350.3 177.813 344.2 177.813 344.2L164.613 336.5Z" fill="#8B96D8"/>
<path d="M200.213 334.9C202.313 335.6 222.413 337.4 222.413 337.4C222.413 337.4 212.813 345.4 211.113 346.7C209.413 348 188.013 344.2 188.013 344.2L200.213 334.9Z" fill="#AFBBEF"/>
<path d="M286.914 121.6C290.172 121.6 292.814 119.048 292.814 115.9C292.814 112.752 290.172 110.2 286.914 110.2C283.655 110.2 281.014 112.752 281.014 115.9C281.014 119.048 283.655 121.6 286.914 121.6Z" fill="#F99506"/>
<path d="M260.214 116L287.114 95L314.014 116H260.214Z" fill="black"/>
<path d="M287.114 96.4001C286.714 96.4001 286.414 96.0001 286.414 95.6001V0.900098C286.414 0.500098 286.714 0.100098 287.114 0.100098C287.514 0.100098 287.814 0.400098 287.814 0.900098V95.6001C287.814 96.0001 287.514 96.4001 287.114 96.4001Z" fill="black"/>
<path d="M30.8132 253.8C30.1132 252.9 29.1132 252.2 28.1132 251.6C27.8132 251.4 27.5132 251.5 27.3132 251.8C26.5132 253.2 25.8132 254.7 25.0132 256C24.7132 256.4 24.3132 257 23.9132 257.3C23.9132 257.3 23.8132 257.4 23.7132 257.4C23.6132 257.3 23.6132 257.2 23.6132 257.1C22.9132 255 23.7132 252.8 23.2132 250.7C22.9132 249.6 22.2132 248.4 21.4132 247.6C20.5132 246.7 19.4132 246.3 18.8132 245.1C18.6132 244.7 18.0132 244.8 17.8132 245.1C16.6132 246.9 14.8132 248.8 14.5132 251C14.2132 253 15.3132 254.7 16.4132 256.2C17.0132 256.9 17.5132 257.7 17.9132 258.5C18.1132 259 18.6132 259.8 18.1132 260.2C17.6132 260.7 17.0132 259.8 16.6132 259.5C15.9132 258.7 15.3132 257.9 14.6132 257C13.5132 255.6 11.9132 253.5 9.91316 253.9C9.01316 254.1 8.71316 255 8.61316 255.8C8.51316 257 9.11316 258.4 9.71316 259.4C11.1132 261.8 13.9132 262.5 15.7132 264.4C16.1132 264.8 17.3132 266.3 16.6132 267C16.4132 267.2 15.8132 267.1 15.6132 267.1C14.9132 267 14.2132 266.8 13.7132 266.3C11.7132 264.7 10.9132 262 8.81316 260.5C7.91316 259.8 6.41316 259.4 5.31316 259.7C4.31316 259.9 3.91316 260.8 3.91316 261.7C3.81316 262.8 4.41316 263.9 4.91316 264.9C5.51316 266 6.41316 266.9 7.51316 267.5C9.71316 268.7 12.4132 268.9 13.8132 271.1C14.0132 271.4 14.2132 271.8 14.1132 272.2C14.0132 272.5 13.6132 272.6 13.4132 272.6C12.3132 272.8 10.8132 272.4 9.91316 271.9C8.71316 271.3 7.91316 270.1 7.01316 269.2C6.11316 268.2 5.01316 267.4 3.71316 267C2.71316 266.7 1.51316 266.8 0.913162 267.7C0.313162 268.5 0.413162 269.6 0.713162 270.6C1.01316 271.8 1.71316 273 2.51316 273.9C3.41316 274.9 4.81316 275.5 6.01316 275.9C7.31316 276.3 8.71316 276.6 9.91316 277.1C10.2132 277.2 10.5132 277.3 10.9132 277.3C11.3132 277.3 11.7132 277.3 12.1132 277.4C12.4132 277.5 12.2132 277.8 12.1132 278.1C11.8132 278.7 11.0132 278.6 10.4132 278.7C9.91316 278.7 9.41316 278.9 8.91316 278.9C8.31316 278.9 7.71316 278.8 7.21316 278.7C6.11316 278.5 4.91316 278.3 3.71316 278.7C2.61316 279 1.81316 280.1 1.61316 281.2C1.21316 283.5 3.81316 284.9 5.71316 285.2C6.91316 285.4 8.01316 285.1 9.11316 284.5C10.4132 283.7 11.5132 282.7 13.0132 282.5C13.1132 283.1 12.9132 283.6 12.3132 284.1C11.5132 284.7 10.5132 285.1 9.61316 285.4C7.81316 286.1 5.21316 286.7 4.21316 288.5C4.11316 288.7 4.11316 289 4.31316 289.2C5.21316 290 6.11316 290.7 7.31316 290.7C8.31316 290.8 9.31316 290.3 10.1132 289.8C11.5132 288.8 12.8132 287.4 14.4132 286.7C14.2132 287.1 13.8132 287.4 13.3132 287.7C12.5132 288.3 12.1132 289.2 11.9132 290.2C11.6132 291.7 12.1132 293.3 13.8132 293.3C14.7132 293.3 15.7132 292.8 16.5132 292.4C17.4132 291.9 18.1132 291.1 18.7132 290.2C19.4132 289.1 19.8132 287.8 20.0132 286.5C21.5132 289.3 24.6132 292.3 27.6132 289.8C30.1132 287.7 25.9132 286.1 24.3132 284.5C24.6132 284.6 24.9132 284.8 25.2132 285C26.1132 285.4 26.9132 285.9 27.8132 286.3C29.5132 287 31.4132 286.9 32.4132 285.2C33.3132 283.7 31.5132 283 30.4132 282.7C29.5132 282.4 27.8132 282.1 27.2132 281.2C29.4132 281.4 31.9132 281.7 33.8132 280.4C34.7132 279.8 35.7132 278.7 35.8132 277.6C35.9132 276.7 34.9132 276.4 34.2132 276.3C32.3132 276.1 30.5132 277 28.6132 276.9C28.1132 276.9 27.7132 276.8 27.2132 276.7C27.0132 276.7 26.9132 276.6 26.7132 276.5C26.6132 276.5 26.6132 276.4 26.5132 276.4C26.5132 276.4 26.5132 276.3 26.6132 276.3C26.8132 276.1 27.0132 276 27.2132 275.8C27.7132 275.5 28.2132 275.3 28.8132 275.2C29.9132 275.1 31.0132 275.2 32.1132 275C33.3132 274.8 34.3132 274.1 35.2132 273.1C35.9132 272.3 36.6132 271.2 36.7132 270.1C36.8132 268.9 36.1132 268.2 35.1132 267.8C32.2132 266.7 30.5132 269.7 28.5132 271C28.0132 271.4 27.3132 271.6 26.7132 271.8C26.4132 271.9 25.7132 272.1 25.5132 271.9C25.4132 271.8 25.8132 271 25.9132 270.8C26.3132 270.1 26.8132 269.7 27.5132 269.3C29.2132 268.3 31.3132 268 32.7132 266.4C33.6132 265.4 34.3132 263.6 33.4132 262.4C32.5132 261.1 30.4132 261.4 29.3132 262.2C27.8132 263.2 27.1132 265.1 25.3132 265.6C25.1132 264.8 25.5132 264 26.0132 263.3C26.8132 262.2 27.9132 261.3 28.9132 260.4C29.8132 259.5 30.8132 258.5 31.3132 257.3C31.9132 256.1 31.6132 254.9 30.8132 253.8Z" fill="#16593C"/>
<path d="M74.3129 294C74.6129 292.9 74.5129 291.7 74.4129 290.5C74.4129 290.2 74.0129 290 73.7129 290C72.1129 290.3 70.6129 290.6 69.0129 290.8C68.5129 290.9 67.8129 290.9 67.3129 290.8C67.3129 290.8 67.2129 290.7 67.1129 290.7C67.1129 290.6 67.2129 290.5 67.3129 290.4C68.5129 288.6 70.8129 287.9 72.1129 286.1C72.8129 285.2 73.3129 283.9 73.4129 282.8C73.6129 281.6 73.2129 280.4 73.7129 279.3C73.9129 278.9 73.5129 278.5 73.1129 278.5C70.9129 278.6 68.4129 278.4 66.4129 279.5C64.7129 280.5 64.0129 282.4 63.5129 284.2C63.3129 285.1 63.0129 286 62.6129 286.8C62.4129 287.3 62.0129 288.1 61.4129 288C60.8129 287.9 61.0129 286.9 61.0129 286.4C61.1129 285.4 61.4129 284.3 61.7129 283.3C62.1129 281.6 62.8129 279 61.2129 277.7C60.5129 277.1 59.6129 277.4 59.0129 277.8C58.0129 278.5 57.3129 279.8 56.9129 280.9C55.9129 283.5 57.1129 286.1 56.7129 288.7C56.6129 289.3 56.1129 291.1 55.2129 291C54.9129 291 54.6129 290.5 54.5129 290.3C54.2129 289.7 53.9129 289 53.9129 288.3C53.9129 285.7 55.6129 283.4 55.4129 280.8C55.3129 279.7 54.7129 278.3 53.8129 277.5C53.0129 276.9 52.1129 277.1 51.3129 277.6C50.4129 278.2 49.8129 279.3 49.4129 280.3C49.0129 281.5 48.8129 282.7 49.0129 283.9C49.4129 286.4 50.9129 288.6 50.1129 291.1C50.0129 291.4 49.8129 291.9 49.4129 292C49.1129 292.1 48.8129 291.9 48.6129 291.7C47.7129 291 47.1129 289.6 46.9129 288.5C46.7129 287.2 47.0129 285.8 47.2129 284.5C47.4129 283.1 47.4129 281.8 46.9129 280.5C46.5129 279.6 45.8129 278.6 44.7129 278.7C43.7129 278.8 42.9129 279.6 42.3129 280.3C41.5129 281.3 41.1129 282.5 40.8129 283.8C40.5129 285.1 40.9129 286.6 41.4129 287.8C41.9129 289.1 42.5129 290.3 42.9129 291.6C43.0129 291.9 43.1129 292.2 43.3129 292.5C43.5129 292.8 43.8129 293.1 44.0129 293.5C44.1129 293.8 43.7129 293.8 43.5129 293.9C42.9129 294 42.4129 293.4 42.0129 293C41.7129 292.6 41.2129 292.3 40.9129 291.9C40.5129 291.4 40.3129 290.9 40.0129 290.4C39.4129 289.4 38.8129 288.3 37.9129 287.6C37.0129 286.9 35.7129 287 34.7129 287.5C32.6129 288.6 33.1129 291.5 34.1129 293.2C34.7129 294.3 35.6129 295 36.8129 295.5C38.2129 296.1 39.7129 296.2 40.8129 297.3C40.4129 297.8 39.9129 297.9 39.1129 297.8C38.1129 297.6 37.2129 297 36.4129 296.5C34.8129 295.5 32.7129 293.8 30.6129 294.2C30.3129 294.3 30.1129 294.4 30.1129 294.7C30.0129 295.9 30.1129 297 30.8129 298C31.3129 298.8 32.3129 299.3 33.2129 299.6C34.8129 300.1 36.8129 300.2 38.3129 301.1C37.8129 301.2 37.4129 301.1 36.8129 300.9C35.8129 300.7 34.9129 300.9 34.0129 301.3C32.6129 302 31.7129 303.4 32.8129 304.7C33.4129 305.4 34.3129 305.9 35.2129 306.2C36.2129 306.6 37.3129 306.7 38.3129 306.5C39.6129 306.4 40.8129 305.9 42.0129 305.3C40.7129 308.2 40.3129 312.5 44.1129 313.3C47.3129 314 46.0129 309.7 46.3129 307.4C46.4129 307.7 46.5129 308.1 46.5129 308.4C46.7129 309.4 46.8129 310.3 47.1129 311.3C47.6129 313 48.8129 314.5 50.8129 314.2C52.5129 314 51.9129 312.1 51.5129 311C51.2129 310.1 50.3129 308.6 50.6129 307.5C51.8129 309.4 53.1129 311.5 55.3129 312.2C56.3129 312.5 57.8129 312.7 58.8129 312.1C59.6129 311.6 59.2129 310.7 58.8129 310.1C57.8129 308.5 56.0129 307.6 54.8129 306C54.5129 305.6 54.3129 305.2 54.1129 304.8C54.0129 304.6 54.0129 304.5 53.9129 304.3C53.9129 304.2 53.9129 304.2 53.9129 304.1H54.0129C54.3129 304.1 54.5129 304.2 54.8129 304.3C55.4129 304.5 55.8129 304.8 56.2129 305.2C57.0129 306 57.5129 306.9 58.4129 307.7C59.3129 308.5 60.5129 308.9 61.8129 309C62.9129 309.1 64.1129 309 65.1129 308.4C66.1129 307.8 66.3129 306.7 65.9129 305.7C65.0129 302.8 61.6129 303.3 59.3129 302.5C58.7129 302.3 58.1129 301.9 57.6129 301.6C57.4129 301.5 56.7129 301 56.7129 300.7C56.7129 300.5 57.6129 300.4 57.8129 300.4C58.6129 300.3 59.3129 300.4 60.0129 300.7C61.8129 301.4 63.4129 302.9 65.4129 303C66.8129 303.1 68.5129 302.5 69.0129 301.1C69.5129 299.6 67.9129 298.2 66.6129 297.7C64.9129 297.2 62.9129 297.8 61.5129 296.7C62.1129 296.1 62.9129 295.8 63.8129 295.8C65.2129 295.8 66.5129 296.1 67.9129 296.2C69.2129 296.4 70.6129 296.5 71.8129 296.1C73.2129 296.3 74.0129 295.2 74.3129 294Z" fill="#16593C"/>
<path d="M-2.98664 262.6C-4.08664 262.2 -5.28664 262.1 -6.38664 262.1C-6.68664 262.1 -6.98664 262.4 -6.98664 262.7C-6.88664 264.3 -6.78664 265.9 -6.78664 267.5C-6.78664 268 -6.88664 268.7 -6.98664 269.2L-7.08664 269.3C-7.18664 269.2 -7.28664 269.2 -7.38664 269.1C-8.98664 267.7 -9.48664 265.3 -10.9866 263.8C-11.7866 263 -12.9866 262.4 -14.0866 262.1C-15.2866 261.8 -16.4866 262 -17.5866 261.3C-17.9866 261 -18.3866 261.4 -18.4866 261.8C-18.5866 264 -19.1866 266.5 -18.2866 268.6C-17.4866 270.5 -15.7866 271.3 -13.9866 272C-13.0866 272.3 -12.2866 272.7 -11.4866 273.2C-11.0866 273.5 -10.2866 273.9 -10.3866 274.5C-10.4866 275.1 -11.5866 274.8 -12.0866 274.6C-13.0866 274.3 -14.0866 273.9 -15.0866 273.5C-16.6866 272.9 -19.1866 271.9 -20.6866 273.2C-21.3866 273.8 -21.1866 274.7 -20.7866 275.4C-20.1866 276.5 -18.9866 277.3 -17.8866 277.9C-15.4866 279.2 -12.6866 278.4 -10.1866 279.1C-9.58664 279.3 -7.88664 280 -8.08664 280.8C-8.18664 281.1 -8.68664 281.3 -8.88664 281.4C-9.48664 281.7 -10.2866 281.8 -10.8866 281.7C-13.4866 281.4 -15.4866 279.4 -18.0866 279.2C-19.1866 279.1 -20.6866 279.5 -21.4866 280.3C-22.1866 281 -22.0866 282 -21.6866 282.8C-21.1866 283.8 -20.1866 284.5 -19.1866 285C-18.0866 285.6 -16.8866 285.9 -15.6866 285.9C-13.1866 285.8 -10.7866 284.6 -8.38664 285.8C-8.08664 286 -7.68664 286.2 -7.58664 286.6C-7.48664 286.9 -7.78664 287.2 -7.98664 287.4C-8.78664 288.2 -10.2866 288.6 -11.3866 288.6C-12.6866 288.7 -13.9866 288.1 -15.2866 287.8C-16.5866 287.4 -17.9866 287.3 -19.2866 287.6C-20.2866 287.8 -21.2866 288.5 -21.3866 289.6C-21.4866 290.6 -20.7866 291.5 -20.0866 292.2C-19.1866 293.1 -17.9866 293.7 -16.8866 294.1C-15.5866 294.5 -14.0866 294.3 -12.7866 294C-11.4866 293.7 -10.1866 293.2 -8.78664 293C-8.38664 292.9 -8.18664 292.9 -7.78664 292.7C-7.38664 292.5 -7.08664 292.3 -6.68664 292.2C-6.38664 292.1 -6.38664 292.5 -6.38664 292.8C-6.28664 293.4 -7.08664 293.8 -7.48664 294.2C-7.88664 294.5 -8.28664 294.9 -8.68664 295.1C-9.18664 295.4 -9.78664 295.6 -10.2866 295.8C-11.3866 296.2 -12.4866 296.7 -13.2866 297.6C-14.0866 298.4 -14.1866 299.7 -13.7866 300.8C-12.9866 303 -9.98664 302.9 -8.18664 302.1C-6.98664 301.6 -6.18664 300.8 -5.58664 299.7C-4.78664 298.4 -4.48664 296.9 -3.28664 295.9C-2.88664 296.4 -2.78664 296.9 -3.08664 297.6C-3.38664 298.5 -4.08664 299.4 -4.68664 300.1C-5.88664 301.6 -7.78664 303.4 -7.68664 305.5C-7.68664 305.8 -7.48664 306 -7.28664 306C-6.18664 306.3 -4.98664 306.3 -3.88664 305.8C-2.98664 305.4 -2.38664 304.5 -1.98664 303.6C-1.28664 302 -0.986643 300.1 0.113358 298.7C0.113358 299.2 -0.0866413 299.6 -0.286642 300.1C-0.686642 301 -0.586641 302 -0.286642 303C0.213358 304.4 1.41336 305.6 2.91336 304.7C3.71336 304.2 4.31336 303.3 4.71336 302.5C5.21336 301.6 5.41336 300.5 5.41336 299.5C5.41336 298.2 5.11336 296.9 4.61336 295.7C7.31336 297.4 11.5134 298.3 12.8134 294.7C13.9134 291.6 9.51336 292.4 7.21336 291.8C7.51336 291.7 7.91336 291.7 8.21336 291.7C9.21336 291.6 10.1134 291.6 11.1134 291.5C12.9134 291.2 14.5134 290.2 14.5134 288.2C14.5134 286.5 12.6134 286.8 11.5134 287.1C10.6134 287.3 9.01336 288 8.01336 287.5C10.0134 286.6 12.3134 285.5 13.3134 283.4C13.7134 282.5 14.1134 281 13.6134 280C13.2134 279.2 12.2134 279.4 11.6134 279.7C9.91336 280.5 8.71336 282.2 7.11336 283.1C6.71336 283.3 6.31336 283.5 5.81336 283.7C5.61336 283.8 5.51336 283.8 5.31336 283.8C5.21336 283.8 5.21336 283.8 5.11336 283.8V283.7C5.11336 283.4 5.31336 283.2 5.41336 283C5.71336 282.5 6.01336 282.1 6.51336 281.7C7.41336 281 8.41336 280.6 9.21336 279.8C10.1134 279 10.6134 277.8 10.9134 276.6C11.1134 275.5 11.2134 274.3 10.7134 273.3C10.2134 272.2 9.21336 271.9 8.11336 272.1C5.11336 272.6 5.11336 276.1 4.11336 278.3C3.81336 278.9 3.41336 279.4 3.01336 279.9C2.81336 280.1 2.31336 280.7 2.01336 280.7C1.81336 280.7 1.81336 279.8 1.81336 279.6C1.81336 278.8 2.01336 278.1 2.41336 277.5C3.41336 275.8 5.01336 274.4 5.41336 272.4C5.61336 271.1 5.31336 269.2 4.01336 268.6C2.51336 267.9 0.913359 269.3 0.313358 270.6C-0.486641 272.2 -0.0866432 274.2 -1.38664 275.5C-1.98664 274.9 -2.08664 274 -1.98664 273.1C-1.88664 271.8 -1.38664 270.4 -1.08664 269.1C-0.786642 267.8 -0.386642 266.5 -0.686642 265.2C-0.786642 264 -1.78664 263 -2.98664 262.6Z" fill="#16593C"/>
<path d="M42.1131 305.5C37.2131 307.6 32.4131 310.9 29.1131 315.1C27.3131 317.4 26.3131 320.1 25.6131 322.8C25.3131 319.9 24.8131 317.1 24.3131 314.2C23.0131 307.6 22.0131 300.9 21.4131 294.2C21.2131 291.5 21.0131 288.9 20.8131 286.2C20.8131 285.5 19.6131 285.5 19.7131 286.2C20.0131 293.6 20.9131 301 22.0131 308.3C22.8131 313.3 24.1131 318.2 24.5131 323.2C24.1131 320.5 23.4131 317.8 22.6131 315.2C21.4131 311.5 19.8131 307.8 17.7131 304.5C17.7131 304.4 17.7131 304.2 17.6131 304.1C17.5131 303.9 17.3131 303.8 17.2131 303.6C16.7131 302.8 16.1131 302.1 15.6131 301.3C15.3131 301 15.0131 301.1 14.8131 301.4C13.9131 300.7 13.0131 300.1 12.0131 299.6C9.71312 298.4 6.71311 297.6 5.61311 294.9C5.31311 294.2 4.31311 294.8 4.61311 295.5C5.71311 298.1 8.51311 299.1 10.8131 300.3C12.9131 301.3 14.7131 302.7 16.4131 304.4C18.7131 307.9 20.4131 311.7 21.6131 315.7C23.1131 320.5 24.0131 325.5 24.0131 330.6V330.7C23.9131 331.1 24.2131 331.3 24.5131 331.3C24.6131 331.8 25.6131 331.7 25.6131 331.1C26.0131 325.7 26.6131 320 30.1131 315.6C33.3131 311.5 37.9131 308.4 42.6131 306.4C43.4131 306.2 42.8131 305.2 42.1131 305.5Z" fill="#16593C"/>
<path d="M25.3134 331.5C24.7134 325.9 22.1134 321 19.5134 316.1C16.9134 311.3 14.1134 306.5 13.3134 301C13.2134 300.3 12.1135 300.6 12.2135 301.3C13.8135 312.2 22.9135 320.4 24.2135 331.5C24.3135 332.2 25.4134 332.2 25.3134 331.5Z" fill="#0D7F4B"/>
<path d="M7.91333 267.1C6.91333 266.6 5.71333 266.4 4.51333 266.2C4.21333 266.2 3.91333 266.4 3.91333 266.7C3.81333 268.3 3.81333 269.9 3.61333 271.5C3.51333 272 3.41333 272.7 3.21333 273.1L3.11333 273.2C3.01333 273.1 2.91333 273.1 2.81333 273C1.31333 271.4 1.11333 269.1 -0.286673 267.4C-0.986672 266.5 -2.18667 265.8 -3.18667 265.4C-4.38667 265 -5.58667 265.1 -6.58667 264.3C-6.98667 264 -7.38667 264.4 -7.48667 264.7C-7.88667 266.9 -8.58667 269.3 -7.98667 271.4C-7.38667 273.3 -5.68667 274.4 -3.98667 275.2C-3.18667 275.6 -2.38667 276.1 -1.58667 276.6C-1.18667 276.9 -0.486672 277.5 -0.686672 278C-0.886672 278.6 -1.88667 278.2 -2.38667 278C-3.38667 277.6 -4.28667 277.1 -5.28667 276.6C-6.78667 275.8 -9.18667 274.6 -10.8867 275.8C-11.5867 276.3 -11.5867 277.3 -11.1867 278C-10.6867 279.2 -9.58667 280.1 -8.58667 280.8C-6.28667 282.3 -3.48667 281.8 -0.986671 282.7C-0.386671 282.9 1.21333 283.8 0.913328 284.6C0.813328 284.9 0.313329 285.1 0.0133286 285.1C-0.586672 285.3 -1.38667 285.4 -2.08667 285.2C-4.58667 284.7 -6.48667 282.5 -8.98667 282.1C-10.0867 281.9 -11.5867 282.2 -12.4867 282.9C-13.2867 283.5 -13.2867 284.5 -12.8867 285.4C-12.4867 286.4 -11.4867 287.2 -10.5867 287.8C-9.58667 288.5 -8.38667 288.9 -7.08667 289C-4.58667 289.2 -2.08667 288.1 0.213327 289.6C0.513328 289.8 0.913328 290.1 0.913328 290.5C1.01333 290.8 0.613328 291.1 0.413328 291.2C-0.486671 291.9 -1.98667 292.1 -3.08667 292.1C-4.38667 292 -5.68667 291.4 -6.88667 290.9C-8.18667 290.4 -9.48667 290.1 -10.8867 290.3C-11.8867 290.4 -12.9867 291 -13.0867 292.1C-13.2867 293.1 -12.6867 294.1 -12.0867 294.8C-11.2867 295.8 -10.1867 296.5 -9.08667 297C-7.88667 297.5 -6.38667 297.5 -4.98667 297.3C-3.58667 297.1 -2.28667 296.8 -0.886673 296.7C-0.486673 296.7 -0.286673 296.6 0.113327 296.5C0.513327 296.4 0.813328 296.2 1.21333 296.1C1.51333 296 1.51333 296.4 1.51333 296.7C1.51333 297.3 0.713327 297.7 0.313328 297.9C-0.0866718 298.2 -0.486671 298.5 -0.986671 298.7C-1.48667 299 -2.08667 299.1 -2.68667 299.3C-3.78667 299.6 -4.98667 300 -5.88667 300.8C-6.68667 301.6 -6.98667 302.8 -6.68667 303.9C-6.08667 306.2 -3.08667 306.3 -1.28667 305.8C-0.0866728 305.4 0.813329 304.7 1.51333 303.7C2.41333 302.4 2.91333 301 4.21333 300.2C4.61333 300.7 4.61333 301.3 4.31333 301.9C3.91333 302.8 3.11333 303.6 2.41333 304.3C1.11333 305.7 -1.08667 307.3 -1.08667 309.4C-1.08667 309.7 -0.986672 309.9 -0.686672 310C0.413328 310.4 1.61333 310.5 2.71333 310.1C3.61333 309.7 4.31333 308.9 4.81333 308.1C5.71333 306.6 6.21333 304.8 7.31333 303.5C7.31333 304 7.11333 304.4 6.81333 304.9C6.31333 305.8 6.31333 306.8 6.61333 307.8C6.91333 309.3 8.11333 310.5 9.71333 309.8C10.6133 309.4 11.2133 308.6 11.7133 307.8C12.3133 306.9 12.6133 305.9 12.7133 304.9C12.9133 303.6 12.7133 302.3 12.3133 301C14.8133 302.9 18.9133 304.3 20.6133 300.8C22.0133 297.8 17.5133 298.2 15.3133 297.4C15.7133 297.4 16.0133 297.4 16.4133 297.4C17.4133 297.4 18.3133 297.5 19.3133 297.5C21.1133 297.4 22.8133 296.5 23.0133 294.5C23.1133 292.8 21.2133 292.9 20.1133 293.1C19.2133 293.2 17.5133 293.7 16.5133 293.2C18.6133 292.5 21.0133 291.7 22.1133 289.7C22.6133 288.8 23.1133 287.3 22.7133 286.3C22.4133 285.5 21.4133 285.6 20.7133 285.8C18.9133 286.4 17.6133 288 15.8133 288.8C15.4133 289 14.9133 289.1 14.5133 289.2C14.3133 289.2 14.2133 289.3 14.0133 289.3C13.9133 289.3 13.9133 289.3 13.8133 289.3V289.2C13.9133 288.9 14.0133 288.7 14.1133 288.5C14.4133 288 14.8133 287.6 15.3133 287.3C16.2133 286.7 17.3133 286.4 18.2133 285.7C19.2133 285 19.8133 283.9 20.2133 282.7C20.5133 281.6 20.7133 280.4 20.3133 279.3C19.9133 278.2 18.9133 277.8 17.8133 277.9C14.7133 278.1 14.5133 281.6 13.2133 283.7C12.9133 284.3 12.4133 284.8 11.9133 285.2C11.7133 285.4 11.1133 285.9 10.8133 285.9C10.6133 285.9 10.7133 284.9 10.7133 284.8C10.8133 284 11.1133 283.4 11.5133 282.7C12.6133 281.1 14.4133 279.9 15.0133 277.9C15.4133 276.6 15.3133 274.7 13.9133 274C12.5133 273.2 10.8133 274.4 10.1133 275.6C9.21333 277.1 9.41333 279.2 8.01333 280.4C7.51333 279.7 7.51333 278.9 7.71333 278C8.01333 276.7 8.61333 275.4 9.01333 274.1C9.51333 272.9 9.91333 271.6 9.81333 270.3C10.0133 268.7 9.11333 267.7 7.91333 267.1Z" fill="#0D7F4B"/>
<path d="M52.4137 278.3C52.2137 277.2 51.7137 276.1 51.2137 275C51.1137 274.7 50.7137 274.6 50.4137 274.8C49.0137 275.6 47.7137 276.5 46.3137 277.3C45.8137 277.5 45.2137 277.8 44.7137 277.9C44.7137 277.9 44.6137 277.9 44.5137 277.9C44.5137 277.8 44.5137 277.7 44.5137 277.5C45.0137 275.4 46.8137 273.9 47.4137 271.8C47.7137 270.7 47.7137 269.4 47.4137 268.3C47.1137 267.1 46.3137 266.2 46.4137 264.9C46.4137 264.4 45.9137 264.2 45.5137 264.4C43.5137 265.3 41.1137 266.1 39.7137 267.8C38.4137 269.4 38.5137 271.3 38.8137 273.2C38.9137 274.1 39.0137 275 39.0137 275.9C39.0137 276.4 38.9137 277.3 38.3137 277.5C37.7137 277.7 37.5137 276.6 37.4137 276.1C37.1137 275.1 37.0137 274 36.9137 273C36.7137 271.3 36.3137 268.6 34.4137 268C33.6137 267.7 32.8137 268.3 32.4137 269C31.7137 270 31.6137 271.5 31.6137 272.7C31.6137 275.4 33.7137 277.5 34.3137 280C34.4137 280.6 34.7137 282.5 33.8137 282.7C33.5137 282.8 33.1137 282.4 32.9137 282.3C32.4137 281.9 31.9137 281.3 31.6137 280.7C30.6137 278.3 31.4137 275.6 30.3137 273.2C29.8137 272.2 28.8137 271.1 27.6137 270.8C26.7137 270.5 25.8137 271.1 25.3137 271.8C24.7137 272.7 24.6137 274 24.6137 275C24.6137 276.2 24.9137 277.5 25.6137 278.5C26.9137 280.6 29.1137 282.2 29.3137 284.8C29.3137 285.2 29.3137 285.6 29.0137 285.9C28.8137 286.1 28.4137 286 28.1137 285.9C27.0137 285.6 26.0137 284.5 25.4137 283.5C24.7137 282.4 24.5137 281 24.2137 279.7C23.9137 278.4 23.4137 277.1 22.4137 276.1C21.7137 275.4 20.7137 274.8 19.7137 275.3C18.8137 275.7 18.3137 276.8 18.1137 277.7C17.8137 278.9 17.8137 280.2 18.0137 281.5C18.3137 282.8 19.2137 284 20.0137 285C20.9137 286 21.9137 286.9 22.8137 288C23.0137 288.3 23.2137 288.5 23.5137 288.7C23.8137 288.9 24.2137 289.1 24.5137 289.4C24.7137 289.6 24.4137 289.8 24.2137 290C23.7137 290.4 23.0137 289.9 22.5137 289.7C22.0137 289.5 21.5137 289.3 21.1137 289.1C20.6137 288.8 20.1137 288.4 19.7137 288.1C18.8137 287.4 17.9137 286.6 16.7137 286.3C15.6137 286 14.4137 286.5 13.7137 287.4C12.2137 289.2 13.7137 291.7 15.2137 292.9C16.2137 293.7 17.3137 294 18.5137 294C20.0137 294 21.5137 293.6 22.9137 294.2C22.7137 294.8 22.2137 295.1 21.5137 295.2C20.5137 295.4 19.5137 295.1 18.5137 295C16.6137 294.7 14.0137 293.9 12.3137 295C12.1137 295.1 12.0137 295.4 12.0137 295.6C12.3137 296.7 12.9137 297.8 13.8137 298.5C14.6137 299.1 15.7137 299.2 16.7137 299.1C18.4137 299 20.2137 298.3 22.0137 298.6C21.6137 298.8 21.1137 298.9 20.6137 299C19.6137 299.1 18.8137 299.7 18.1137 300.4C17.1137 301.5 16.7137 303.2 18.2137 304C19.0137 304.5 20.1137 304.5 21.0137 304.5C22.1137 304.5 23.1137 304.2 24.0137 303.7C25.2137 303.1 26.1137 302.2 27.0137 301.2C26.8137 304.4 28.1137 308.5 31.9137 307.9C35.2137 307.4 32.3137 303.9 31.7137 301.6C31.9137 301.9 32.1137 302.2 32.3137 302.5C32.8137 303.3 33.3137 304.2 33.9137 304.9C35.0137 306.3 36.7137 307.2 38.4137 306.2C39.9137 305.3 38.7137 303.8 37.9137 303C37.3137 302.3 35.9137 301.2 35.8137 300.1C37.6137 301.4 39.6137 302.9 41.9137 302.8C42.9137 302.7 44.4137 302.3 45.0137 301.4C45.5137 300.7 44.8137 299.9 44.3137 299.5C42.8137 298.4 40.7137 298.2 39.1137 297.2C38.7137 297 38.3137 296.7 38.0137 296.4C37.9137 296.3 37.7137 296.2 37.7137 296C37.7137 295.9 37.6137 295.9 37.6137 295.8C37.6137 295.8 37.7137 295.8 37.7137 295.7C37.9137 295.6 38.2137 295.6 38.5137 295.6C39.1137 295.6 39.6137 295.7 40.2137 295.9C41.2137 296.4 42.1137 297 43.1137 297.4C44.3137 297.8 45.5137 297.7 46.7137 297.3C47.7137 297 48.9137 296.4 49.5137 295.5C50.2137 294.6 50.0137 293.5 49.3137 292.7C47.4137 290.3 44.4137 292 41.9137 292.2C41.2137 292.2 40.6137 292.1 39.9137 292C39.6137 291.9 38.9137 291.8 38.8137 291.5C38.7137 291.3 39.5137 290.9 39.7137 290.8C40.4137 290.4 41.1137 290.3 41.9137 290.3C43.9137 290.3 45.9137 291.1 47.8137 290.4C49.1137 290 50.6137 288.8 50.4137 287.3C50.3137 285.7 48.3137 285 46.9137 285C45.2137 285.1 43.5137 286.4 41.8137 285.9C42.1137 285.1 42.7137 284.6 43.6137 284.2C44.9137 283.7 46.2137 283.4 47.5137 283.1C48.8137 282.8 50.1137 282.4 51.1137 281.6C52.2137 280.8 52.6137 279.6 52.4137 278.3Z" fill="#1BA865"/>
<path d="M44.0133 267.2C43.3133 270.1 42.8133 273 41.9133 275.8C41.1133 278.7 39.8133 281.4 38.2133 283.9C34.8133 289.1 30.4133 293.7 26.9133 298.8C26.8133 299 26.8133 299.2 26.9133 299.4C26.2133 300.7 25.8133 302.1 25.5133 303.5C25.0133 305.9 24.9133 308.4 24.8133 310.9C24.7133 313.9 24.7133 316.9 24.8133 320C25.0133 323.6 25.2133 327.1 25.1133 330.7C25.1133 330.9 25.1133 331.1 25.1133 331.3C25.1133 332 26.2133 332 26.2133 331.3C26.4133 327.8 26.2133 324.3 26.0133 320.9C25.9133 317.8 25.8133 314.7 25.9133 311.6C26.0133 309.2 26.1133 306.8 26.5133 304.4C26.9133 302.3 27.5133 299.8 29.1133 298.2C29.3133 298 29.3133 297.7 29.2133 297.5C32.5133 293 36.3133 288.9 39.3133 284.2C40.9133 281.7 42.1133 279 43.0133 276.2C43.9133 273.3 44.4133 270.4 45.1133 267.4C45.2133 266.8 44.1133 266.5 44.0133 267.2Z" fill="#1BA865"/>
<path d="M25.4131 330.2H5.41309L13.4131 362H25.4131H38.0131L45.5131 330.2H25.4131Z" fill="#CE1B35"/>
<path d="M340.514 352H-0.986328V520.3H340.514V352Z" fill="url(#paint0_linear)"/>
<path d="M147.413 270.8C147.213 271.2 147.013 271.5 146.613 271.7C146.213 271.9 145.813 271.9 145.413 271.8C145.013 271.6 144.713 271.4 144.513 271C144.313 270.6 144.313 270.2 144.513 269.8L144.713 269.2C144.813 268.8 145.113 268.5 145.513 268.3C145.913 268.1 146.313 268.1 146.713 268.2C147.113 268.4 147.413 268.6 147.613 269C147.813 269.4 147.813 269.8 147.613 270.2L147.413 270.8ZM147.013 269.9C147.113 269.6 147.113 269.4 147.013 269.2C146.913 269 146.813 268.8 146.513 268.7C146.313 268.6 146.013 268.6 145.913 268.8C145.813 269 145.613 269.1 145.513 269.4L145.313 270C145.213 270.3 145.213 270.5 145.313 270.8C145.413 271 145.513 271.2 145.813 271.3C146.013 271.4 146.313 271.4 146.513 271.2C146.713 271.1 146.813 270.9 146.913 270.6L147.013 269.9Z" fill="#1B1464"/>
<path d="M150.113 271.7L148.813 271.2L148.313 272.7L147.613 272.5L148.813 269L151.113 269.8L150.913 270.3L149.313 269.7L149.013 270.7L150.313 271.2L150.113 271.7Z" fill="#1B1464"/>
<path d="M151.413 272.4L151.013 273.7L150.313 273.5L151.513 270L152.813 270.5C153.213 270.6 153.513 270.9 153.613 271.1C153.813 271.4 153.813 271.7 153.713 272C153.613 272.3 153.413 272.6 153.113 272.7C152.813 272.8 152.413 272.8 152.013 272.7L151.413 272.4ZM151.613 271.8L152.213 272C152.413 272.1 152.613 272.1 152.713 272C152.813 271.9 152.913 271.8 153.013 271.6C153.113 271.4 153.113 271.3 153.013 271.1C152.913 271 152.813 270.8 152.613 270.8L152.013 270.6L151.613 271.8Z" fill="#1B1464"/>
<path d="M154.613 273.3L154.113 274.7L153.413 274.5L154.613 271L155.813 271.4C156.213 271.5 156.513 271.7 156.613 272C156.713 272.3 156.813 272.6 156.713 272.9C156.613 273.1 156.513 273.2 156.413 273.3C156.313 273.4 156.113 273.5 155.913 273.5C156.113 273.6 156.213 273.8 156.213 274C156.213 274.2 156.213 274.4 156.213 274.6L156.113 274.9C156.113 275 156.013 275.1 156.013 275.2C156.013 275.3 156.013 275.4 156.113 275.5V275.6L155.413 275.3C155.413 275.2 155.313 275.1 155.413 275C155.413 274.9 155.513 274.8 155.513 274.6L155.613 274.4C155.713 274.2 155.713 274.1 155.613 273.9C155.513 273.8 155.413 273.7 155.213 273.6L154.613 273.3ZM154.813 272.8L155.313 273C155.513 273.1 155.713 273.1 155.813 273C155.913 272.9 156.013 272.8 156.113 272.7C156.213 272.5 156.213 272.4 156.113 272.3C156.013 272.2 155.913 272.1 155.713 272L155.213 271.8L154.813 272.8Z" fill="#1B1464"/>
<path d="M158.713 275.5L157.613 275.1L157.113 275.8L156.413 275.5L158.813 272.4L159.513 272.7V276.6L158.813 276.3L158.713 275.5ZM157.913 274.6L158.713 274.9V273.5L157.913 274.6Z" fill="#1B1464"/>
<defs>
<linearGradient id="paint0_linear" x1="168.03" y1="545.48" x2="170.842" y2="371.149" gradientUnits="userSpaceOnUse">
<stop stop-color="white"/>
<stop offset="1" stop-color="white" stop-opacity="0"/>
</linearGradient>
</defs>
</svg>
