<svg width="340" height="520" viewBox="0 0 340 520" fill="none" xmlns="http://www.w3.org/2000/svg">
<rect width="2614" height="1450" transform="translate(-789 -466)" fill="white"/>
<path d="M340 340H0V520H340V340Z" fill="#F7931E"/>
<path d="M340 0H0V340H340V0Z" fill="#F15A24"/>
<path opacity="0.39" d="M279.6 121.014L147 389.114C147 389.114 183.4 466.914 346.9 466.914L348 128L336.4 121.014H279.6Z" fill="url(#paint0_linear)"/>
<path d="M307.2 129.514C311.618 129.514 315.2 125.932 315.2 121.514C315.2 117.095 311.618 113.514 307.2 113.514C302.782 113.514 299.2 117.095 299.2 121.514C299.2 125.932 302.782 129.514 307.2 129.514Z" fill="#F9D45F"/>
<path d="M310.3 64.2138C325.7 65.1138 339.1 72.7138 347.7 84.2138V80.6138C338.7 69.8138 325.4 62.8138 310.2 62.0138C306.8 61.8138 307.1 63.8138 307.1 66.5138C307.1 69.3138 306.7 99.7138 307.3 99.7138C292.2 102.014 281.6 110.214 279.7 121.114C298.6 121.114 317.3 121.114 336.4 121.114C331.5 107.714 322.2 100.814 308.7 99.7138C308.7 87.8138 308.7 76.1138 308.7 64.2138C309.1 64.2138 309.7 64.1138 310.3 64.2138Z" fill="black"/>
<path d="M144.399 193.3C144.399 203.4 150.799 212.3 160.599 217.8C162.899 219.1 161.399 226.8 161.799 228.1C162.199 229.4 170.499 221.9 171.899 222.2C175.699 223.1 179.799 223.7 184.099 223.7C205.999 223.7 223.799 210.1 223.799 193.3C223.799 176.5 205.999 162.9 184.099 162.9C162.199 162.9 144.399 176.5 144.399 193.3Z" fill="#FFF1CF"/>
<path d="M296.9 260.9C296.9 275.1 281.2 286.5 261.8 286.5C249.7 286.5 239 282 232.7 275.2C231.5 273.9 219.4 273.4 220.8 272.4C223.1 270.7 227.9 267.7 227.4 266C226.9 264.3 226.7 262.6 226.7 260.8C226.7 246.6 242.4 235.2 261.8 235.2C281.2 235.2 296.9 246.8 296.9 260.9Z" fill="#FFF1CF"/>
<path d="M55 216.6C55 224.8 61.5 232.1 71.5 236.6C73.8 237.6 72.3 243.9 72.7 245C73.1 246.1 81.6 239.9 83 240.2C86.9 241 91.1 241.4 95.4 241.4C117.7 241.4 135.7 230.3 135.7 216.5C135.7 202.8 117.6 191.6 95.4 191.6C73.2 191.6 55 202.8 55 216.6Z" fill="#FFF1CF"/>
<path d="M283.2 271.9V255.4L274.1 246.3L264.8 255.7V271.9H283.2Z" fill="#043E75"/>
<path d="M239.5 255.7L248.9 246.3H274.2L264.8 255.7H239.5Z" fill="#F77B0B"/>
<path d="M261.3 251H252.2L256.8 255.6L261.3 251Z" fill="#043E75"/>
<path d="M239.5 255.6H247.7L252.2 251L256.8 255.6H264.9V271.9H239.5V255.6Z" fill="#1174BA"/>
<path d="M243.1 257.3H241.9V260.5H243.1V257.3Z" fill="white"/>
<path d="M247.9 257.2H246.7V260.4H247.9V257.2Z" fill="white"/>
<path d="M252.7 257.3H251.5V260.5H252.7V257.3Z" fill="white"/>
<path d="M257.6 257.3H256.4V260.5H257.6V257.3Z" fill="white"/>
<path d="M262.3 257.2H261.1V260.4H262.3V257.2Z" fill="white"/>
<path d="M243.1 263H241.9V266.2H243.1V263Z" fill="white"/>
<path d="M247.9 263H246.7V266.2H247.9V263Z" fill="white"/>
<path d="M252.6 263H251.4V266.2H252.6V263Z" fill="white"/>
<path d="M257.5 263H256.3V266.2H257.5V263Z" fill="white"/>
<path d="M262.3 263H261.1V266.2H262.3V263Z" fill="white"/>
<path d="M210.599 200.6C210.699 200.9 210.999 201 211.299 200.8C211.499 200.6 211.799 200.3 211.799 199.8C211.799 198.8 212.299 192.8 211.999 192.1C211.599 191.2 202.799 189.8 199.399 189.6C199.099 189.6 198.799 189.4 198.699 189.2C197.799 187.7 194.699 182.7 193.699 182.4C192.499 182.1 185.699 181.4 181.999 181.4C178.299 181.4 168.599 181.5 167.799 182.3C166.999 183.1 159.899 191.6 159.499 192.6C159.099 193.6 158.399 196.4 158.399 197.7C158.399 198.7 159.699 199.7 160.499 200.1C160.699 200.2 161.099 200.1 161.099 199.8C161.299 198.5 162.299 195.1 165.799 195.1C170.299 195.1 171.499 198.8 171.999 199.9C172.599 201 172.899 200.8 176.999 200.8C181.099 200.8 198.299 200.8 198.299 200.8C198.299 200.8 199.299 200.8 199.699 199.5C200.099 198.2 200.899 195.3 204.299 195.3C206.799 195.4 209.299 195.9 210.599 200.6Z" fill="#F15A24"/>
<path d="M210.6 200.6C209.4 196 206.8 195.5 204.4 195.5C200.9 195.5 200.2 198.4 199.8 199.7C199.4 201 198.4 201 198.4 201C198.4 201 198.3 201 198.1 201C198.1 201.1 198.1 201.1 198.1 201.2L202.4 201.8L210.7 200.8C210.7 200.8 210.6 200.7 210.6 200.6Z" fill="#49381B"/>
<path d="M171.999 200C171.399 198.9 170.199 195.2 165.799 195.2C162.199 195.2 161.299 198.6 161.099 199.9C161.099 200 160.999 200.1 160.899 200.2L166.599 201.5L173.399 200.8C172.599 200.8 172.299 200.6 171.999 200Z" fill="#49381B"/>
<path d="M198.499 189.2C197.699 187.9 195.599 184.5 194.299 183.1C193.999 183.1 193.499 183.1 193.499 183.3C193.499 183.6 196.799 189.2 197.399 189.5C197.899 189.7 198.299 189.4 198.499 189.2Z" fill="#CDD8F3"/>
<path d="M196.1 190C196.4 190 196.6 189.7 196.4 189.4C195.4 187.8 192.5 183.4 192 183.3C191.3 183.2 182.1 183.3 182.1 183.3C182.1 183.3 180.8 183.3 180.8 185.2C180.8 186.6 180.9 188.6 180.9 189.5C180.9 189.8 181.1 190 181.4 190H196.1Z" fill="#CDD8F3"/>
<path d="M179.999 184.4V189.2C179.999 189.6 179.699 190 179.199 190H167.299C167.299 190 166.399 189.7 166.299 188.7C166.199 187.9 168.399 185.2 169.499 184C169.899 183.6 170.399 183.3 170.999 183.3H178.899C179.599 183.3 179.999 183.8 179.999 184.4Z" fill="#CDD8F3"/>
<path d="M166.199 184.1C164.999 185.5 163.399 187.5 161.999 189.2L162.199 189.3C162.499 189.4 162.899 189.3 163.099 189.1L166.399 184.7C166.499 184.5 166.399 184.2 166.199 184.1Z" fill="#CDD8F3"/>
<path d="M159.199 193.3C158.899 194.4 158.499 196.2 158.399 197.4C158.799 197.7 159.199 197.9 159.299 197.4C159.499 196.6 160.299 193.7 160.199 193.5C160.099 193.4 159.599 193.3 159.199 193.3Z" fill="#B7211F"/>
<path d="M211.999 192.3C211.999 192.3 212.499 192.3 212.499 193.2C212.499 194.1 212.499 195.2 211.899 195.4C211.899 195.4 211.999 192.6 211.999 192.3Z" fill="#C6C7C2"/>
<path d="M204.999 205.8C207.65 205.8 209.799 203.651 209.799 201C209.799 198.349 207.65 196.2 204.999 196.2C202.348 196.2 200.199 198.349 200.199 201C200.199 203.651 202.348 205.8 204.999 205.8Z" fill="#121214"/>
<path d="M204.999 204.1C206.712 204.1 208.099 202.712 208.099 201C208.099 199.288 206.712 197.9 204.999 197.9C203.287 197.9 201.899 199.288 201.899 201C201.899 202.712 203.287 204.1 204.999 204.1Z" fill="#F7D19A"/>
<path d="M204.999 202C205.551 202 205.999 201.553 205.999 201C205.999 200.448 205.551 200 204.999 200C204.447 200 203.999 200.448 203.999 201C203.999 201.553 204.447 202 204.999 202Z" fill="#B19E9E"/>
<path d="M166.4 205.8C169.051 205.8 171.2 203.651 171.2 201C171.2 198.349 169.051 196.2 166.4 196.2C163.749 196.2 161.6 198.349 161.6 201C161.6 203.651 163.749 205.8 166.4 205.8Z" fill="#121214"/>
<path d="M166.4 204.1C168.112 204.1 169.5 202.712 169.5 201C169.5 199.288 168.112 197.9 166.4 197.9C164.688 197.9 163.3 199.288 163.3 201C163.3 202.712 164.688 204.1 166.4 204.1Z" fill="#F7D19A"/>
<path d="M166.399 202C166.952 202 167.399 201.553 167.399 201C167.399 200.448 166.952 200 166.399 200C165.847 200 165.399 200.448 165.399 201C165.399 201.553 165.847 202 166.399 202Z" fill="#B19E9E"/>
<path d="M184.1 192.6H181.7C181.5 192.6 181.3 192.4 181.3 192.2C181.3 192 181.5 191.8 181.7 191.8H184.1C184.3 191.8 184.5 192 184.5 192.2C184.5 192.5 184.3 192.6 184.1 192.6Z" fill="#CDD8F3"/>
<path d="M31.2002 316.2L46.8002 370.2L54.2002 410.8H61.6002L54.2002 316.2H31.2002Z" fill="#997659"/>
<path d="M24.0994 316.2C25.1994 344.3 24.7994 359.6 24.4994 362.1C24.2994 364.7 22.8994 381.7 13.3994 411.6H21.0994C33.5994 382.9 37.9994 365.8 39.4994 362.1C40.9994 358.4 45.1994 343 51.3994 316.2H24.0994Z" fill="#B28B67"/>
<path d="M30.7998 316.2C34.8998 334.8 41.8998 364.5 51.9998 405.2H62.7998C63.5998 363.4 60.1998 335.8 54.2998 316.2H30.7998Z" fill="#69A1AC"/>
<path d="M24.0998 316.2C25.1998 344.3 22.3998 371.9 13.7998 405.7H25.3998C37.9998 377.4 46.9998 349.9 53.0998 316.2H24.0998Z" fill="#89C5CC"/>
<path d="M12.2998 417.2L12.6998 410.4C15.1998 411.1 18.2998 410.8 21.9998 409.5C25.9998 412.4 31.0998 414.3 37.1998 415.3C37.6998 415.4 37.9998 415.8 37.8998 416.3V416.4L37.2998 418.5H21.9998H13.0998L12.2998 417.2Z" fill="#C1DEE2"/>
<path d="M52.5996 417.2L52.9996 410.4C55.4996 411.1 58.5996 410.8 62.2996 409.5C66.2996 412.4 71.3996 414.3 77.4996 415.3C77.9996 415.4 78.2996 415.8 78.1996 416.3V416.4L77.5996 418.5H62.2996H53.3996L52.5996 417.2Z" fill="#C1DEE2"/>
<path d="M41.8994 248.9C39.8994 246.6 38.5994 243.7 38.7994 240.6C39.3994 231.4 52.1994 233.5 54.6994 238.1C57.1994 242.7 56.8994 254.5 53.6994 255.3C52.3994 255.6 49.6994 254.8 46.8994 253.2L48.5994 265.5H38.3994L41.8994 248.9Z" fill="#B28B67"/>
<path d="M47.3998 241.6C47.7998 247.1 48.7998 249.8 50.4998 249.8C52.9998 249.8 55.1998 248.2 56.2998 248.2C57.0998 248.2 56.8998 249.2 56.3998 250C55.9998 250.6 53.7998 251.2 53.7998 252.2C53.7998 253.2 55.4998 252.4 55.4998 253C55.4998 253.9 55.7998 255.7 54.1998 255.7C52.4998 255.7 47.7998 255.1 46.9998 252.6C46.4998 251 46.0998 247.7 45.9998 242.7C45.8998 242.7 45.7998 242.7 45.6998 242.7C44.2998 242.7 43.0998 243.8 43.0998 245.3C43.0998 246 43.3998 246.7 43.8998 247.1C43.2998 247.9 42.5998 248.8 41.8998 249.7C38.9998 248 36.3998 242.5 39.1998 237.7C39.9998 235.3 42.1998 234.5 44.2998 233.9C45.9998 233.2 47.6998 233.1 49.1998 233.5C52.0998 233.7 54.6998 234.6 55.3998 235.1C55.3998 237.8 54.8998 238.6 50.3998 238.6C49.1998 239.3 48.2998 240.3 47.3998 241.6Z" fill="#191847"/>
<path d="M57.2002 275.4L72.1002 267.3C74.6002 264.4 77.0002 262.1 79.4002 260.5C80.1002 260.2 81.4002 260 80.2002 262.1C79.0002 264.2 77.8002 266.5 78.4002 267.2C79.0002 267.9 80.5002 266.9 81.3002 268C81.8002 268.7 79.2002 269.9 73.5002 271.4L62.7002 281.3L57.2002 275.4ZM80.4002 282.2L86.9002 278.6C87.8002 275.1 88.9002 273.4 90.2002 273.3C91.2002 272.8 89.5002 277.2 91.3002 276.9C93.2002 276.5 97.7002 273.2 98.5002 273.8C99.7002 274.8 98.6002 277.9 97.4002 279.5C95.1002 282.4 93.3002 283.4 88.6002 284.7C86.2002 285.4 83.6002 286.7 80.7002 288.8L80.4002 282.2Z" fill="#997659"/>
<path d="M49.9 273.6C55.1 273.5 62 272.4 69.4 267.7L72.3 274.2C67.2 279.3 60 283.4 53.7 283.3C48.9 283.1 46.4 277.1 49.9 273.6Z" fill="#043156"/>
<path d="M56.9002 284C62.4002 285.4 71.7002 283.8 84.7002 279.1C87.9002 285.8 89.4001 290.5 89.2001 293.4C78.0001 299.2 68.5002 301.8 60.6002 302C60.9002 306.7 60.3002 311.1 58.4002 315.2C54.5002 323.6 31.5002 315.8 23.7002 317.3C18.9002 301.6 28.2002 295.2 28.2002 285.1C28.2002 274.1 37.1002 257.1 38.4002 257.1H50.3002C50.9002 265.5 54.2002 274.8 56.9002 284Z" fill="#043E75"/>
<path d="M164.7 320.8L148.6 373.5L140.8 418.3H134.6L142.9 320.8H164.7Z" fill="#F7C39C"/>
<path d="M170.4 320.8C169.3 349.7 170.6 364.6 170.8 367.3C171 369.9 174.4 387 182.3 419.2L175.8 417C163.3 387.5 159 372.1 157.5 368.2C156.1 364.3 152.2 348.6 146 320.9H170.4V320.8Z" fill="#F9D2B2"/>
<path d="M182.4 416.9C182.9 418.2 183.1 419.1 183.1 419.8C183.1 420.6 183 421.7 182.7 423.2C181.8 423.2 173.8 423.2 158.6 423.2C158 421.1 158.3 420 159.7 419.8C161.1 419.6 162.2 419.5 163.1 419.4L174.3 414.4C174.5 414.3 174.8 414.4 174.9 414.6L175.6 416.3C176.9 416.9 177.9 417.2 178.7 417.2C179.3 417.2 180.2 416.9 181.3 416.4C181.6 416.2 182.1 416.4 182.4 416.9C182.3 416.8 182.4 416.8 182.4 416.9Z" fill="#191847"/>
<path d="M142.1 416.9C142.6 418.2 142.8 419.1 142.8 419.8C142.8 420.6 142.7 421.7 142.4 423.2C141.5 423.2 133.5 423.2 118.3 423.2C117.7 421.1 118 420 119.4 419.8C120.8 419.6 121.9 419.5 122.8 419.4L134 414.4C134.2 414.3 134.5 414.4 134.6 414.6L135.3 416.3C136.6 416.9 137.6 417.2 138.4 417.2C139 417.2 139.9 416.9 141 416.4C141.4 416.2 141.9 416.4 142.1 416.9C142.1 416.8 142.1 416.8 142.1 416.9Z" fill="#191847"/>
<path d="M166.8 320.8L160 347.6H139L142.2 320.8H166.8Z" fill="#69A1AC"/>
<path d="M170.7 320.8C173 327.6 173.4 336.5 172 347.6H150.7L144.8 320.8H170.7Z" fill="#89C5CC"/>
<path d="M160.099 266.4C162.099 264.1 163.399 261.2 163.199 258.1C162.599 248.9 149.799 251 147.299 255.6C144.799 260.2 145.099 272 148.299 272.8C149.599 273.1 152.299 272.3 155.099 270.7L153.399 283H163.699L160.099 266.4Z" fill="#F9D2B2"/>
<path d="M153.199 250.3C154.599 250.1 158.199 249.9 158.899 249.9C159.299 249.9 159.799 250 159.999 249.6C160.199 249.3 160.099 248.7 160.199 248.4C160.299 248 160.399 247.5 160.499 247.1C160.799 245.9 161.199 244.7 161.899 243.6C163.099 241.6 164.799 240 166.999 239C169.399 238 172.099 237.7 174.699 237.9C177.499 238.1 179.899 239 182.599 239.9C185.099 240.7 187.699 241 190.299 240.6C192.899 240.2 194.899 238.8 197.099 237.4C199.399 236 201.899 235.1 204.599 235.3C207.099 235.5 209.399 236.5 211.399 237.9C213.299 239.2 214.899 240.7 215.799 242.9C216.799 245.2 216.799 247.8 215.199 249.9C212.899 252.9 208.599 253.7 205.099 253.6C202.999 253.6 200.999 253.2 199.099 252.5C196.499 251.6 194.299 250 191.899 248.8C190.799 248.2 189.599 247.7 188.399 247.4C187.199 247.1 185.999 246.9 184.899 247.6C183.799 248.4 182.699 249.1 181.399 249.6C180.099 250.1 178.799 250.3 177.499 250.3C174.899 250.3 172.299 249.5 169.799 248.9C167.699 248.5 165.499 248 163.399 248.4C162.499 248.6 161.199 248.9 160.899 249.9C166.199 250.9 168.299 257.5 166.799 262.3C165.999 264.9 161.099 268 159.199 266.6C157.999 265.7 158.699 264.6 159.199 263.8C160.099 262.4 160.399 260.5 158.699 259.5C157.299 258.6 155.699 260.7 155.699 260.7C155.299 260.7 151.899 258.7 149.499 255.9C147.199 256 146.799 254.5 147.399 253.2C147.899 252.1 151.299 250.6 153.199 250.3Z" fill="#191847"/>
<path d="M123.999 312.7L112.399 303.8C106.599 302.7 103.899 301.8 104.299 301.1C104.899 300 106.499 300.7 107.099 300C107.699 299.3 106.299 297.1 104.899 295.1C103.499 293.1 104.799 293.2 105.599 293.4C108.099 294.8 110.799 296.9 113.499 299.6L128.999 306.4L123.999 312.7ZM202.299 334C203.099 335.1 208.299 337.9 211.799 339.5C213.199 340.1 212.899 341.3 212.499 341.7C209.099 344.8 206.099 342.5 202.499 341.6C198.599 340.6 199.799 345.3 196.699 344.6C197.199 342.5 198.499 338.4 197.099 336.2C196.499 335.2 191.699 326.5 182.899 310.1L191.699 308.4C197.599 324 201.199 332.5 202.299 334Z" fill="#F9D2B2"/>
<path d="M159.1 275.5L155.4 274.9C147.3 282.7 144 301.5 138.7 304C133.6 306.4 126.4 304.1 117.9 301L115.3 306.9C123.1 315.3 139.6 322.4 146.4 318.4C157 311.8 159.5 288.6 159.1 275.5Z" fill="#07629B"/>
<path d="M175.199 322C160.399 322 149.399 322 142.399 322C140.899 322 141.199 319.8 141.399 318.7C143.899 306.1 153.6 292.5 153.6 274.6L162.999 273.1C170.999 285.7 173.699 301.2 175.199 322Z" fill="#DDE3E9"/>
<path d="M178.499 309.2C185.199 321.2 190.799 329.9 195.299 335.2L202.199 333.9C197.799 306.5 184.999 286.2 163.799 273.2H163.699H159.999C151.499 302.1 149.199 321.4 152.999 331H182.499C181.999 323.9 180.499 316.5 178.499 309.2Z" fill="#1174BA"/>
<path d="M282.4 360.3C282.4 343.4 268.4 329.8 251.1 329.8C240.3 329.8 230.8 335.1 225.2 343.2C224.1 344.8 213.3 345.3 214.6 346.5C216.7 348.5 220.9 352.1 220.5 354.1C220.1 356.1 219.9 358.1 219.9 360.3C219.9 377.2 233.9 390.8 251.2 390.8C268.5 390.8 282.4 377.2 282.4 360.3Z" fill="#FFF1CF"/>
<path d="M318.2 192.9C318.2 210.9 299.5 225.4 276.5 225.4C262.1 225.4 249.5 219.7 242 211.1C240.5 209.4 226.2 208.8 227.9 207.5C230.6 205.4 236.3 201.6 235.7 199.4C235.1 197.3 234.9 195.1 234.9 192.8C234.9 174.8 253.6 160.3 276.6 160.3C299.5 160.3 318.2 174.9 318.2 192.9Z" fill="#FFF1CF"/>
<path d="M336.399 317C334.799 332 316.799 342.4 296.199 340.2C283.299 338.8 272.499 332.9 266.599 324.9C265.399 323.3 252.699 321.5 254.299 320.6C256.899 319.1 262.399 316.4 261.999 314.6C261.699 312.8 261.599 310.9 261.799 309C263.399 294 281.399 283.6 301.999 285.8C322.599 287.9 337.999 301.9 336.399 317Z" fill="#FFF1CF"/>
<path d="M249.299 348.2C248.299 347 247.599 345.6 247.699 344C247.999 339.4 254.499 340.4 255.699 342.7C256.999 345 256.799 351 255.199 351.4C254.599 351.6 253.199 351.2 251.799 350.3L252.699 356.5H247.499L249.299 348.2Z" fill="#B28B67"/>
<path d="M251.099 347.9C250.499 349.1 249.599 350.1 248.699 350.1C246.999 350.1 245.799 347.8 245.799 345.4C245.799 345.3 245.799 345.2 245.799 345.1C243.999 346.3 242.599 348.7 240.299 348.7C237.099 348.7 235.799 342.2 240.299 342.2C243.399 342.2 244.899 342.6 246.199 343.3C246.499 342.6 246.799 342 247.299 341.6C247.399 341.5 247.599 341.3 247.799 341.2C247.899 341.1 248.099 341.1 248.199 341C248.999 340.7 250.099 340.5 251.399 340.5C251.599 340.5 251.899 340.5 252.099 340.5C252.099 339.3 253.099 338.3 254.299 338.3C255.499 338.3 256.499 339.3 256.499 340.5C256.499 341.7 255.599 342.6 254.499 342.7C253.799 342.9 252.999 343 252.099 343.1C252.199 343.4 252.199 343.8 252.199 344.3C252.199 344.7 252.199 345.1 252.099 345.5C251.899 345.3 251.599 345.1 251.399 345.1C250.599 345.1 250.099 345.7 250.099 346.4C249.899 347.2 250.299 347.9 251.099 347.9Z" fill="#191847"/>
<path d="M246.899 352.6C246.999 352.4 246.999 352.3 247.099 352.1L247.299 352.2L247.399 352.1L253.499 353C253.499 356.4 256.199 359.6 257.899 362.3C260.599 366.6 265.299 371.3 262.299 377.6C259.599 383.3 252.399 384.2 240.899 380.4C240.899 377.3 243.399 374.2 243.499 370.5C243.499 367 244.099 356.2 246.899 352.6Z" fill="#1D67DD"/>
<path d="M254.399 376C254.799 373.9 255.099 372.5 255.199 371.8C258.399 375.4 260.299 377.3 260.799 377.3C261.699 377.4 262.399 376.5 262.599 376.8C262.899 377.8 261.999 380.2 260.199 380.6C259.399 380.8 257.999 379 257.499 378.4C257.399 378.2 256.299 377.4 254.399 376ZM259.999 364.9C260.799 364.9 261.299 365.2 261.799 365.9C262.299 366.6 262.799 369.9 261.999 369.9C261.199 369.9 257.899 368.6 257.899 367.8C257.899 367 260.199 366.6 260.199 365.9C260.199 365.2 259.099 364.9 259.999 364.9Z" fill="#B28B67"/>
<path d="M252.7 379.2C252.7 379.4 252.6 379.6 252.5 379.7C243 373.1 243 365.1 245.8 356.1C243.8 365 244.7 372.4 252.7 379.2Z" fill="black" fill-opacity="0.2"/>
<path d="M240.8 380.4C240.8 380.4 239.9 388.2 240.9 389.1C241.9 390 244.6 390.6 247.7 390.9C250.8 391.2 255.8 391.7 259.3 389.9C262.8 388.1 260.3 380.5 260.3 380.5L240.8 380.4Z" fill="#F24C64"/>
<path d="M291.499 311.3C291.099 310.9 290.699 310.6 290.199 310.3L286.399 315.7L286.799 316.1L287.199 316.5L292.599 312.7C292.299 312.2 291.899 311.8 291.499 311.3Z" fill="#E9E9E9"/>
<path d="M286.3 306.5C280.8 306.5 276.3 311 276.3 316.5C276.3 322 280.8 326.5 286.3 326.5C291.8 326.5 296.3 322 296.3 316.5C296.4 311 291.9 306.5 286.3 306.5ZM286.3 324.7C281.8 324.7 278.1 321 278.1 316.5C278.1 312 281.8 308.3 286.3 308.3C290.8 308.3 294.5 312 294.5 316.5C294.5 321.1 290.9 324.7 286.3 324.7Z" fill="#696969"/>
<path d="M281.2 321.7C281.6 322.1 282 322.4 282.5 322.7L286.3 317.3L285.9 316.9L285.5 316.5L280.1 320.3C280.4 320.9 280.8 321.3 281.2 321.7Z" fill="#E9E9E9"/>
<path d="M287.6 316.5C287.6 317.2 287 317.7 286.4 317.7C285.8 317.7 285.2 317.1 285.2 316.5C285.2 315.8 285.8 315.3 286.4 315.3C287 315.3 287.6 315.8 287.6 316.5Z" fill="#DD7332"/>
<path d="M286.699 316.5C286.699 316.7 286.499 316.9 286.299 316.9C286.099 316.9 285.899 316.7 285.899 316.5C285.899 316.3 286.099 316.1 286.299 316.1C286.499 316.1 286.699 316.3 286.699 316.5Z" fill="#F3B23C"/>
<path d="M324.2 311.3C323.8 310.9 323.4 310.6 322.9 310.3L319.1 315.7L319.5 316.1L319.9 316.5L325.3 312.7C324.9 312.2 324.6 311.8 324.2 311.3Z" fill="#E9E9E9"/>
<path d="M319 306.5C313.5 306.5 309 311 309 316.5C309 322 313.5 326.5 319 326.5C324.5 326.5 329 322 329 316.5C329.1 311 324.6 306.5 319 306.5ZM319 324.7C314.5 324.7 310.8 321 310.8 316.5C310.8 312 314.5 308.3 319 308.3C323.5 308.3 327.2 312 327.2 316.5C327.2 321.1 323.6 324.7 319 324.7Z" fill="#696969"/>
<path d="M313.8 321.7C314.2 322.1 314.6 322.4 315.1 322.7L318.9 317.3L318.5 316.9L318.1 316.5L312.7 320.3C313.1 320.9 313.4 321.3 313.8 321.7Z" fill="#E9E9E9"/>
<path d="M320.3 316.5C320.3 317.2 319.7 317.7 319.1 317.7C318.4 317.7 317.9 317.1 317.9 316.5C317.9 315.8 318.5 315.3 319.1 315.3C319.7 315.3 320.3 315.8 320.3 316.5Z" fill="#DD7332"/>
<path d="M319.4 316.5C319.4 316.7 319.2 316.9 319 316.9C318.8 316.9 318.6 316.7 318.6 316.5C318.6 316.3 318.8 316.1 319 316.1C319.2 316.1 319.4 316.3 319.4 316.5Z" fill="#F3B23C"/>
<path d="M290.399 297.4C290.099 296.8 289.899 295.9 290.599 295.4C291.099 295 291.799 295 292.499 295C293.399 295.1 294.299 295.3 294.999 295.5C295.599 295.7 296.199 295.8 296.799 296.1C296.899 296.1 296.999 296.1 296.999 296.2L296.599 297.2C296.499 297.2 296.499 297.2 296.399 297.1C295.799 296.9 295.199 296.7 294.599 296.6C293.899 296.4 293.099 296.2 292.299 296.2C291.999 296.2 291.399 296.2 291.199 296.3C291.099 296.4 291.099 296.8 291.299 297.1C291.499 297.5 291.899 297.8 292.199 298.2C292.599 298.5 292.899 298.8 293.299 299L293.199 299.2L291.299 304.6C290.999 304.5 290.599 304.4 290.299 304.4L291.999 299.4C291.799 299.3 291.599 299.1 291.399 298.9C291.199 298.4 290.699 297.9 290.399 297.4Z" fill="#F3B23C"/>
<path d="M309.499 303.6L310.899 299.5L311.599 299.7L310.199 303.7C309.999 303.7 309.699 303.6 309.499 303.6Z" fill="#B7B9B9"/>
<path d="M295.399 295.4L298.399 296.2C298.599 296.3 298.799 296.5 298.699 296.7L298.599 297.2C298.499 297.4 298.299 297.6 298.099 297.5L295.099 296.7C294.899 296.6 294.699 296.4 294.799 296.2L294.899 295.7C294.899 295.4 295.099 295.3 295.399 295.4Z" fill="#DD7332"/>
<path d="M308.099 316H317.899C317.799 316.2 317.799 316.3 317.799 316.5C317.799 316.7 317.799 316.9 317.899 317H307.999C308.099 316.7 308.099 316.4 308.099 316.1V316Z" fill="#8BA73D"/>
<path d="M308 307.2L310 301.6L310.2 301L310.3 300.8C310.3 300.7 310.5 300.6 310.6 300.7L311.2 300.9C311.3 300.9 311.4 301.1 311.3 301.2L311.2 301.5L310.8 302.7L318.9 315.3C318.5 315.4 318.2 315.6 318 315.9L310.3 303.9L306.8 313.5C306.5 313.3 306.2 313.1 305.8 313L308 307.2Z" fill="#F3B23C"/>
<path d="M292 302.5L292.7 303.3L303 313.6C302.7 313.8 302.4 314.1 302.2 314.4L291.6 303.8L292 302.5Z" fill="#F3B23C"/>
<path d="M292.404 301.391L291.946 302.391L307.772 309.625L308.229 308.624L292.404 301.391Z" fill="#F3B23C"/>
<path d="M286.399 315.3L291.799 300.3C291.899 300 292.199 299.9 292.499 300C292.799 300.1 292.899 300.4 292.799 300.7L287.399 315.9C287.199 315.6 286.799 315.3 286.399 315.3Z" fill="#F3B23C"/>
<path d="M291.899 300.6H290.499V301.7H291.899V300.6Z" fill="#F3B23C"/>
<path d="M290.8 301.2C290.8 302.7 289.1 303.3 289.1 303.3V301.2V299.1C289 299.1 290.8 299.6 290.8 301.2Z" fill="#B7B9B9"/>
<path d="M312.8 300.6C315.1 300.6 315 298.9 315 298.9C314.9 298.5 314.7 298.2 314.2 298.1C313.6 298 313 298.1 312.4 298.1C311.7 298.1 311.1 298.1 310.4 298.1H307.8C307.4 298.1 307.1 298.4 307.1 298.7C307.1 299 307.3 299.2 307.6 299.3C308.2 299.4 308.8 299.5 309.4 299.7C310.5 300.1 311.6 300.6 312.8 300.6Z" fill="#DD7332"/>
<path d="M305.701 316.2C305.701 316.7 305.301 317 304.901 317C304.401 317 304.101 316.6 304.101 316.2C304.101 315.7 304.501 315.4 304.901 315.4C305.401 315.3 305.701 315.7 305.701 316.2Z" fill="#ADADAD"/>
<path d="M305.1 316.2C305.1 316.3 305 316.4 304.9 316.4C304.8 316.4 304.7 316.3 304.7 316.2C304.7 316.1 304.8 316 304.9 316C305 315.9 305.1 316 305.1 316.2Z" fill="#696969"/>
<path d="M301.7 316.2C301.7 318 303.1 319.4 304.9 319.4C305.1 319.4 305.4 319.4 305.6 319.3L319 317.7C318.3 317.7 317.8 317.1 317.8 316.5C317.8 315.9 318.3 315.3 319 315.3L305.5 313H305.4H305.3C305.1 313 305 313 304.8 313C303.1 313 301.7 314.4 301.7 316.2ZM302.3 316.2C302.3 314.8 303.5 313.6 304.9 313.6C306.3 313.6 307.5 314.8 307.5 316.2C307.5 317.6 306.3 318.8 304.9 318.8C303.5 318.8 302.3 317.6 302.3 316.2Z" fill="#DD7332"/>
<path d="M304.45 316.393L301.068 318.711L301.295 319.041L304.676 316.723L304.45 316.393Z" fill="#ADADAD"/>
<path d="M302.2 318.5H300.5C300.3 318.5 300.2 318.6 300.2 318.8V319C300.2 319.2 300.3 319.3 300.5 319.3H302.2C302.4 319.3 302.5 319.2 302.5 319V318.8C302.5 318.7 302.4 318.5 302.2 318.5Z" fill="#4F5050"/>
<path d="M295.3 199.9C296.7 199.6 297.8 198.7 299 198.2C299.3 198.1 299.5 198 299.8 197.9C300.2 199.6 300.8 201.3 301 203C301.3 205.3 300.5 206.4 298.2 206.9C296.8 207.2 295.5 207.6 294 207.7C295.8 205.9 295.6 203.6 295.5 201.4C295.6 200.8 295.4 200.3 295.3 199.9Z" fill="#F2AB55"/>
<path d="M252.8 197.8C253.9 198.1 254.8 198.9 255.8 199.3C256.3 199.5 256.8 199.8 257.3 199.9C257.2 200 257.2 200.2 257.1 200.3C257 201.6 256.8 202.9 256.9 204.2C257 205.5 257.6 206.6 258.4 207.6C256.7 207.4 254.9 207 253.3 206.5C252 206.1 251.5 205 251.5 203.4C251.6 202 252 200.6 252.4 199.3C252.5 198.8 252.6 198.3 252.8 197.8Z" fill="#F2AB55"/>
<path d="M263.3 183.6C262.5 183 261.6 182.6 260.6 182.7C260.3 182.7 260 182.8 259.7 182.5C261.3 181.6 263.4 180.9 265.2 180.6C264.9 181.4 264.2 182.4 263.9 183.2C263.8 183.5 263.6 183.6 263.3 183.6Z" fill="#F2AB55"/>
<path d="M293.5 182.5C292.4 182.7 291.4 182.8 290.3 183.2C289.9 183.3 289.9 183.4 289.6 183.7C288.6 183.8 288.8 183.3 288.7 183C288.4 182.3 287.6 181.4 287.3 180.6C289 180.9 291.9 181.6 293.5 182.5Z" fill="#F2AB55"/>
<path d="M268.1 180.4C273.6 180.1 279.4 180.4 284.8 180.4C285.2 181 285 181.7 285.1 182.4C285.4 183.9 285.3 184 283.8 184.1C280.7 184.3 277.6 184.9 274.4 184.6C272.2 184.5 269.9 184.2 267.7 184C267.2 184 267.2 183.6 267.2 183.3C267.5 182.3 267.6 181.3 268.1 180.4Z" fill="#F2AB55"/>
<path d="M294.2 207.6C292.8 208.5 291.2 208.5 289.6 208.4C283.2 208.1 276.8 208 270.3 208.2C267.6 208.3 264.9 208.3 262.3 208.5C260.9 208.6 259.6 208.2 258.4 207.6C257.6 206.6 257 205.5 256.9 204.2C256.8 202.9 257 201.6 257.1 200.3C257.2 200.3 257.3 200.3 257.5 200.4C262 202.5 266.6 204 271.5 204.3C275 204.5 278.4 204.6 281.8 204.2C285.3 203.8 288.7 202.8 291.8 201C293 200.3 294 199.5 295.3 198.9L295.4 199.8C295.5 200.3 295.6 200.8 295.7 201.3C295.8 203.6 295.9 205.8 294.2 207.6Z" fill="#5B6D71"/>
<path d="M263.3 183.6C262.7 183.7 262.6 183.6 261.4 184C259.7 184.4 258.6 184.8 257.7 186.1C256.4 187.9 256.4 189.9 256.6 192C256.9 194.6 257.7 197.3 257.3 200C256.8 199.9 256.3 199.6 255.8 199.4C254.8 199 253.9 198.2 252.8 197.9C253.1 195.4 252.8 192.9 253 190.4C253.2 188 253.9 185.9 255.7 184.3C256.9 183.3 258.2 182.9 259.7 182.6C259.9 182.9 260.3 182.8 260.6 182.8C261.6 182.6 262.5 183 263.3 183.6Z" fill="#F97248"/>
<path d="M291.9 184.1C291.6 183.8 291.1 183.8 290.7 183.8C290.3 183.8 289.7 183.8 289.4 183.5C289.6 183.1 290.1 183 290.5 182.9C291.4 182.7 292.6 182.4 293.5 182.5C294.4 182.6 295.3 183 296 183.5C296.9 184 297.7 184.8 298.2 185.7C299.1 187.1 299.5 188.7 299.6 190.3C299.7 192.8 299.5 195.3 299.8 197.7C299.5 197.8 299.3 197.9 299 198C297.8 198.6 296.7 199.5 295.3 199.7C295.3 199.4 295.3 199.1 295.2 198.8C295.3 197.8 295.2 196.7 295.3 195.7C295.6 193.5 296.1 191.4 296 189.2C295.9 186.8 294.2 184.5 291.9 184.1Z" fill="#F97248"/>
<path d="M259.5 184.5C258.8 184.9 258.2 185.4 257.7 186.1C256.4 187.9 256.4 189.9 256.6 192C256.9 194.6 257.7 197.3 257.3 200C257.2 200.1 257.2 200.3 257.1 200.4C257.2 200.4 257.3 200.4 257.5 200.5C262 202.6 266.6 204.1 271.5 204.4C275 204.6 278.4 204.7 281.9 204.3C285.4 203.9 288.8 202.9 291.9 201.1C293.1 200.4 294.1 199.6 295.4 199C295.5 198 295.4 196.9 295.5 195.9C295.8 193.7 296.3 191.6 296.2 189.4C296.1 186.8 294.7 185 292.3 184C290.4 183.5 290.3 183.7 289.4 183.6C289 183.6 288.9 183.3 288.8 183C287.1 179.1 284.6 175.5 282 172.1C281.3 172.1 281 172.5 280.8 173.1C281.8 174.9 282.8 176.6 283.8 178.4C284.5 179.6 285 181 285.2 182.3C285.5 183.8 285.4 183.9 283.9 184C280.8 184.2 277.7 184.8 274.5 184.5C272.3 184.4 270 184.1 267.8 183.9C267.3 183.9 267.3 183.5 267.3 183.2C267.7 180.6 268.8 178.4 270.1 176.2C270.8 175.1 271.4 173.9 272.1 172.8C271.6 172.6 271.4 171.9 270.8 172C270.6 172 270.2 172.8 270.1 172.9C269.9 173.2 269.6 173.6 269.4 173.9C268.9 174.6 268.5 175.2 268 175.9C267.2 177 266.5 178.2 265.7 179.4C265 180.6 264.4 181.8 263.9 183.2C263.8 183.5 263.6 183.6 263.3 183.6C261.6 183.6 259.5 184.5 259.5 184.5ZM267.8 184.3C268.2 184.3 268.6 184.4 269 184.4C268.5 184.4 268.1 184.4 267.8 184.3Z" fill="#6C838B"/>
<path d="M281.9 172.1C281.2 172.1 280.9 172.5 280.7 173.1C278.2 171.7 275.6 171.3 272.9 172.7C272.6 172.8 272.4 172.9 272.1 172.9C271.6 172.7 271.4 172 270.8 172.1C270.5 171.1 270.8 170.5 271.7 169.9C272.7 169.4 273.7 169.2 274.8 169.1C276.8 169 278.8 168.9 280.7 169.7C281.9 170.3 282.1 170.9 281.9 172.1Z" fill="#5B6D71"/>
<path d="M279.2 191.2H273.3C272.8 191.2 272.4 190.8 272.4 190.3V188.4C272.4 187.8 272.9 187.4 273.4 187.4H279.3C279.8 187.4 280.2 187.8 280.2 188.3V190.2C280.2 190.8 279.8 191.2 279.2 191.2Z" fill="#5B6D71"/>
<path d="M91.3998 204.5H80.7998V227.9H91.3998V204.5Z" fill="#1414E0"/>
<path d="M101.499 204.5H90.8994V227.9H101.499V204.5Z" fill="white"/>
<path d="M112.1 204.5H101.5V227.9H112.1V204.5Z" fill="#F72806"/>
<path d="M340 340H0V520H340V340Z" fill="url(#paint1_linear)"/>
<defs>
<linearGradient id="paint0_linear" x1="344.62" y1="153.176" x2="260.657" y2="454.918" gradientUnits="userSpaceOnUse">
<stop stop-color="white"/>
<stop offset="1" stop-color="white" stop-opacity="0"/>
</linearGradient>
<linearGradient id="paint1_linear" x1="168.063" y1="546.608" x2="171.05" y2="360.602" gradientUnits="userSpaceOnUse">
<stop stop-color="white"/>
<stop offset="1" stop-color="white" stop-opacity="0"/>
</linearGradient>
</defs>
</svg>
