<svg width="358" height="248" viewBox="0 0 358 248" fill="none" xmlns="http://www.w3.org/2000/svg">
<path d="M158.4 32V67H65.4V101H0.5V179H370.5V32H158.4Z" fill="#137F3A"/>
<path d="M0.5 101L11 90.5H65.5V101H2H0.5Z" fill="#25B759"/>
<path d="M65.4 67L75.7 56.7H158.5V67H65.4Z" fill="#25B759"/>
<path d="M158.4 32L168.7 21.7H366V32.5L158.4 32Z" fill="#25B759"/>
<path d="M354.8 175.6C355 173.8 355.4 171.9 355.8 169.9C360.6 169.9 365.4 169.9 370.1 169.9V155.7C365.3 155.6 360.4 155.4 355.4 155.2C355.4 151.8 355.4 149.2 355.4 146C360.3 146 365.2 146 370.1 146V131.2C365.1 131.2 360 131.2 354.8 131.2C354.8 128.6 354.6 126.1 354.9 123.6C355 122.8 356.6 121.8 357.6 121.7C359.6 121.4 361.7 121.6 363.8 121.6C365.9 121.6 368 121.7 370.1 121.7V118.3C369 119.6 366.5 119.8 361.6 119.7C355.2 119.6 348.9 119.7 342.5 119.7C338.1 119.7 337.3 118.7 337.7 114.3C337.8 112.9 337.9 111.5 338.1 110.1C349 109.8 359.2 109.4 369.1 109.1C369.6 109.6 369.7 109.7 369.8 109.8C370 110.5 370.1 111.1 370.2 111.6V107.1C365.3 107.1 360.5 107.1 355.6 107C355.1 107 354.5 105.9 354 105.4C350.5 108.4 346.2 107.3 342.2 107.9C339.8 108.3 337.2 107.9 334.7 107.9C329.6 107.7 324.6 107.5 319.1 107.3C319.1 104.3 319.1 101.6 319.1 98.0999C323.9 97.7999 328.7 97.5999 334.4 97.2999C333.2 96.4999 332.7 95.9999 332.2 95.9999C321.8 95.9999 311.3 95.9999 300.7 96.6999C301.4 96.9999 302.1 97.6999 302.8 97.6999C305.7 97.7999 308.6 97.4999 311.4 97.6999C315.2 97.8999 315.6 98.4999 315.8 102.4C315.9 103.8 315.8 105.2 315.8 107.3C305 107 294.3 108.3 283.3 106.9C283.3 103.9 283.3 101.2 283.3 98.3999C288.3 96.1999 293.8 100.3 298.6 97.1999C298.8 95.2999 297.6 94.6999 296.2 95.1999C292.6 96.5999 289 95.8999 285.3 95.6999C281.6 95.4999 278 95.7999 274.3 95.7999C265.1 95.7999 255.8 95.6999 246.6 95.6999C240.5 95.6999 234.4 95.6999 227.6 95.6999C230.1 98.7999 233 97.3999 235.4 97.5999C237.9 97.7999 240.4 97.5999 242.7 97.5999C245 101 243.3 103.9 243.1 107.5C238 107.7 233 107.8 228 108C225.8 108.1 223.6 108.1 221.4 108.1C218 108.1 214.5 108.1 210.7 108.1C210.9 104.4 211.1 101.5 211.2 98.4999C216.2 96.2999 221.8 100.2 227.1 96.2999C215.3 95.8999 204.4 95.4999 193.3 95.0999C193.2 93.1999 193 91.9999 193 90.7999C193 89.4999 193.1 88.2999 193.2 86.3999C197.4 86.2999 201.5 86.1999 205.5 86.1999C210.6 86.1999 215.7 86.3999 220.8 86.4999C223 86.5999 225.3 86.4999 226 89.4999C226.1 89.7999 227.1 89.9999 227.9 90.2999C228.6 88.9999 229.2 87.7999 230.1 86.1999C240 86.1999 250.1 86.1999 260.5 86.1999C260.9 88.4999 261.3 90.3999 261.7 92.3999C266.2 92.6999 264.6 88.8999 265.4 86.2999C275.7 86.2999 285.9 86.2999 296.6 86.2999C296.8 88.4999 296.9 90.8999 297.1 93.3999C298.3 93.4999 299.3 93.4999 300.8 93.5999C301.1 91.4999 301.3 89.4999 301.6 86.8999C311.8 84.2999 322.3 87.1999 333.1 86.1999C333.7 87.9999 334.3 89.6999 334.9 91.6999C337.4 90.8999 336.4 88.4999 337.3 86.4999C347.6 85.2999 358.2 86.5999 368.7 86.2999C368.9 87.8999 369.1 89.2999 369.4 90.6999C369.7 90.5999 369.9 90.4999 370.1 90.3999V84.1999C365.4 84.2999 360.6 84.1999 355.5 84.1999C355.5 80.8999 355.5 78.1999 355.5 74.6999C360.3 74.6999 365.2 74.6999 370.1 74.6999V59.5999C365.1 59.7999 360.2 59.5999 355.1 59.5999C353.2 50.5999 353.9 49.8999 362.1 50.5999C364.7 50.7999 367.4 50.6999 370.1 50.4999V36.5999C353.1 36.5999 336.2 35.8999 319.2 36.0999C319.2 34.7999 319.2 33.5999 319.2 32.4999H316C316.3 33.5999 316.6 34.7999 316.9 36.0999C305.7 34.9999 294.8 37.0999 283.3 35.9999C283.2 34.7999 283.2 33.5999 283.1 32.4999H279.7C279.6 33.7999 279.5 35.0999 279.4 36.6999C274.2 37.9999 269 36.3999 263.9 36.3999C258.7 36.3999 253.5 36.3999 247.9 36.3999C247.9 35.0999 247.9 33.7999 247.9 32.4999H244.7C244.9 33.4999 245.1 34.4999 245.3 35.5999C240.2 35.7999 235.4 35.9999 230.5 36.1999C226 36.3999 221.4 36.4999 216.9 36.9999C212.4 37.4999 210.8 36.4999 211 32.3999H207.3C207.3 33.6999 207.3 34.8999 207.3 36.2999C196.6 36.2999 185.9 36.2999 174.9 36.2999C175 34.8999 175 33.6999 175.1 32.3999H171.9C171.8 33.1999 171.8 33.8999 171.6 34.6999C171.4 35.4999 169.9 36.6999 169 36.6999C165.3 36.6999 161.7 36.4999 158 36.2999V39.8999C159 38.7999 160.6 38.1999 162.9 38.1999C170.1 38.0999 177.2 38.0999 184.4 38.1999C186.1 38.1999 187.8 38.6999 189.8 38.8999C189.8 42.1999 189.8 44.7999 189.8 47.3999C186.9 49.1999 184.1 48.4999 181.2 48.2999C178.4 48.0999 175.6 48.2999 172.8 48.3999C168.7 48.4999 164.6 48.7999 160.4 48.5999C159.3 48.5999 158.5 48.2999 158 47.7999V50.3999C162.5 50.3999 167.1 50.3999 171.8 50.3999C171.8 53.4999 171.8 56.4999 171.8 59.3999C169.4 60.1999 161.8 60.2999 158 59.8999V62.6999C159.2 61.7999 161.5 61.7999 165.3 61.8999C172.3 62.0999 179.3 61.8999 186.3 61.8999C187.1 61.8999 187.9 61.9999 189.2 62.0999C189.6 65.0999 190 67.9999 190.4 71.5999C179 71.5999 168.2 71.5999 157.1 71.5999C156.9 69.7999 156.8 68.3999 156.8 67.1999H154.1C154.1 68.4999 154.1 69.6999 154.1 70.9999C152.8 71.2999 151.6 71.6999 150.4 71.6999C142.1 71.6999 133.8 71.6999 125.5 71.5999C121.8 71.4999 121.7 71.3999 121.7 67.8999C121.7 67.6999 121.7 67.3999 121.7 67.1999H117.7C117.5 68.5999 117.3 69.9999 117.2 71.4999C111.9 71.4999 106.7 71.3999 101.4 71.4999C96.2 71.5999 91.1 73.4999 85.5 71.8999C85.5 70.1999 85.5 68.6999 85.5 67.0999H81.7C81.7999 68.4999 81.8 69.7999 81.9 71.2999C79.2 71.4999 77.1 71.7999 74.9 71.6999C71.6 71.5999 68.3 71.3999 65 71.3999V85.6999C70.2 85.7999 75.4 85.8999 80.4 86.0999C82.5 87.7999 80.1 91.7999 84.6 91.5999C84.9 89.8999 85.3 88.1999 85.8 85.8999C95.9 85.8999 106 85.8999 116.3 85.8999C116.5 86.1999 116.8 86.4999 117.1 86.8999C117.8 87.7999 118.5 88.6999 119.2 89.6999C119.8 88.8999 120.7 88.1999 121.1 87.2999C121.7 85.8999 122.5 85.2999 124 85.3999C133.2 85.5999 142.4 85.7999 151.6 86.0999C152.1 86.0999 152.5 86.2999 153.3 86.3999C153.9 88.9999 154.5 91.6999 155.1 94.3999C155.5 94.3999 155.8 94.3999 156.2 94.3999C156.5 92.0999 156.9 89.6999 157.3 86.8999C167.6 85.8999 178.3 86.7999 189.2 86.5999C189.2 89.3999 189.2 91.7999 189.2 94.3999C185.5 96.6999 181.3 95.4999 177.2 95.5999C170.4 95.7999 163.6 95.7999 156.8 95.7999C156.6 95.7999 156.4 96.1999 155.8 96.5999C160.9 99.4999 166.4 95.9999 171.5 98.7999C171.5 101 171.5 103.8 171.5 106.8C160.5 109.2 149.5 106.8 137.9 107.4C138.2 105.2 138.6 103.7 138.7 102.2C138.7 100.7 138.3 99.1999 138 97.1999C142.9 97.1999 147.5 97.1999 152.1 97.1999C141.8 94.1999 131.4 96.4999 120.7 94.9999C120.5 94.4999 120.1 93.4999 119.7 92.3999C119.2 92.4999 118.5 92.4999 118.4 92.7999C117.1 94.8999 115.6 95.3999 113 95.1999C105.9 94.8999 98.7999 95.3999 91.7 95.5999C90.2999 95.5999 88.9 95.1999 87.5 95.0999C86.3 94.9999 85.1 95.0999 83.9 95.4999C85.9 97.4999 88.5 96.5999 90.8 97.0999C93.3 97.5999 95.8 97.8999 98.9 98.3999C99.1 101.1 99.3 103.8 99.5 107C88.6 107 78.3 107 68 107C67.5 105.8 67.1 104.8 66.7 103.8C66.3999 103.9 65.9 103.8 65.8 104C63.4 108.3 59 107.6 55.3 107.8C51 108.1 46.7 107.5 42.4 107.5C38.8 107.4 35.2 107.5 31.1 107.5C31.1 105.3 31.1 103.3 31.1 101.3H28.2C28.2 101.4 28.2 101.4 28.2 101.5C28.1 102.1 28.2 102.8 28.2 103.4C28.4 107.3 27.7 107.8 24 107.6C16.8 107.3 9.6 107.2 2.5 107.1C1.7 107.1 0.899976 107.1 0.0999756 107.1V110C4.09998 110 7.79995 110.2 10.2 110.5C12 121.6 10.5 119.6 2.69995 119.8C1.79995 119.8 0.999976 119.8 0.0999756 119.8V121.8C0.699976 121.7 1.20005 121.7 1.80005 121.7C9.00005 121.6 16.1 121.7 23.3 121.7C26.1 121.7 29.9 126.2 29.3 128.9C28.9 130.6 27.7 131.5 25.8 131.6C22.6 131.7 19.4 131.8 16.2 131.9C10.8 132 5.49998 132 0.0999756 132.1V134.1C3.79998 134.1 7.50005 134.1 11.3 134.1C11.3 137.1 11.3 139.8 11.3 143C8.80005 143.3 6.30002 143.8 3.90002 143.8C2.70002 143.8 1.39995 143.9 0.199951 143.9V146.4C9.19995 146.4 18.1 146.4 27.5 146.4C27.4 149.4 27.2 152.1 27.1 155.3C18 154.7 9.19995 156 0.199951 155.7V158.2C3.39995 158.3 6.60002 158.6 9.90002 159.2C9.90002 162.1 9.90002 164.8 9.90002 168.2C6.70002 168.2 3.39995 168.1 0.199951 168.1V170.2C9.49995 169.1 18.7 170 28.2 169.5C28.2 173 28.2 175.9 28.2 179.3H32C32 176.2 32 173.3 32 170.2C36.8 168.9 41.7 170.4 46 168.5C40.4 165.6 34.7999 168.8 29.2 168.3C23.5 167.8 17.8 168.2 11.7 168.2C11.7 164.7 11.7 161.6 11.7 158.4C22.4 158.4 32.9 158.4 43 158.4C44.3 160.1 45.5 161.5 46.5 163C47 163.7 47 164.8 47.1 165.7C47.5 169.4 47.7 169.6 51.5 169.6C54.8 169.6 58.2 169.6 61.5 169.6C62.3 169.6 63 169.8 64 169.9C64 173.1 64 176 64 179.3H67.7C67.7 175.7 67.7 172.9 67.7 170C78.5 170 88.9 170 99.4 170C99.8 172.8 100.2 175.6 100.7 178.6C100.1 178.8 99.6 179.1 99 179.3H103.5C102.8 178.8 102.6 177.8 102.5 175.7C102.5 174.4 102.5 173.2 102.5 171.9C102.5 171.3 102.7 170.7 102.9 169.8C113.8 169.8 124.6 169.8 135.6 169.8C135.6 173 135.6 175.9 135.6 179.1C135.4 179.2 135.3 179.2 135.1 179.3H139.9C139.6 178.1 139.1 176.8 139 175.4C138.4 170.5 139.4 169.6 144.4 170.2C146 170.4 147.6 170.3 149.2 170.3C156.4 170.3 163.6 170.3 171.4 170.3C171.4 173.6 171.4 176.2 171.4 179.3H175.7C175.4 176.5 175.1 173.9 174.8 171.1C175.9 169 178 169.6 179.8 169.7C184.7 169.9 189.7 170.3 194.6 170.4C197.6 170.4 200.6 170 203.7 169.9C204.8 169.9 205.9 170.1 207 170.3C208.4 173.4 207.6 176.3 207.1 179.4H210.6C210.4 178.7 210.5 177.6 210.7 175.8C210.9 174.1 210.9 172.3 211 170C218.8 170 226 170 233.3 170C235.6 170 238 169.8 240.3 169.8C243.2 169.8 243.5 170.1 243.7 173C244.2 179.2 244.2 179.2 237.8 179.5H249.1C248.3 179.4 247.5 179.4 246.7 179.3C246.5 176.4 246.4 173.5 246.2 170.4C257.4 170.4 268.1 170.4 279.1 170.4C279.1 173.6 279.1 176.1 279.1 179C278 179.2 277 179.3 275.9 179.4H319.8C319.8 176.4 319.8 173.5 319.8 170.5C324.2 169.1 328.7 170.7 332.8 168.9C329.3 166.5 325.6 168.7 322 168.3C318.4 167.9 314.7 168.4 311 168.4C307.2 168.4 303.5 168.4 299.4 168.4C299.2 165.1 299.1 162.5 298.9 159.1C309.7 158.8 320.4 158.5 331.3 158.2C331.7 160.7 332 162.6 332.4 164.9C333.9 163.9 335 163.2 336.2 162.4C336.4 161.1 336.6 159.7 336.8 157.6C347.6 158.5 358.3 157.4 369.3 158.6C368.9 161.7 368.6 164.4 368.3 167.2C364.7 169.1 360.9 167.7 357.2 167.6C351.3 167.5 345.5 167.1 339.6 167C338.1 167 336.6 167.4 334.4 167.8C337.4 170.9 340.3 169.5 342.9 169.7C345.7 170 348.6 169.8 351.8 169.8C351.8 173 351.8 176 351.8 179.4H355.8C355.1 178.6 354.7 177.4 354.8 175.6ZM67.8 84.3999C67.8 80.4999 67.8 77.7999 67.8 74.5999C78.5 74.5999 88.8 74.5999 99.6 74.5999C99.8 77.5999 100 80.3999 100.2 83.6999C89.2999 84.2999 78.6001 83.6999 67.8 84.3999ZM351.3 122.2C351.5 123.3 351.7 124 351.7 124.8C351.9 131.4 350.7 132.4 344 132.2C338.3 132 332.6 132.2 326.9 132.1C322.5 132 318.1 131.8 313.6 131.7C304.9 131.6 296.2 131.5 287.5 131.4C283 131.3 282.5 130.6 282.9 126.3C283 125.1 283.3 123.8 283.6 122.3C294.2 120.8 304.6 121.8 314.8 122.4C315.6 124 316.2 125.2 317.1 127.1C318.1 125.1 318.7 123.7 319.6 121.9C329.9 121 340.5 122.1 351.3 122.2ZM333.8 134.4C333.6 137.7 333.5 140.5 333.4 143.2C322.6 143.2 312 143.2 301.1 143.2C301 141.3 300.8 140 300.8 138.6C300.7 137.3 300.8 136.1 300.8 134.4C311.6 134.4 322.3 134.4 333.8 134.4ZM261.5 134C262.4 137.4 263.1 140.2 263.9 143.5C252.1 143.5 240.9 143.5 229.7 143.5C228.1 140.4 228.8 137.5 229.2 134C240.1 134 250.8 134 261.5 134ZM246.5 122.4C248.3 122.2 249.5 122 250.7 122C257.1 122 263.6 122.2 270 122.2C271.5 122.2 273.1 121.7 274.6 121.6C279 121.4 280.1 122.4 279.9 126.7C279.9 128.1 279.7 129.5 279.6 131.4C268.9 132.8 258 131.6 246.8 132.1C246.8 128.5 246.6 125.6 246.5 122.4ZM247.2 146.5C257.7 146.4 268.3 146.1 279.1 146.7C279.3 148.5 279.4 149.9 279.5 151.3C279.7 155.6 279 156.5 274.9 156.5C270.3 156.5 265.8 156.3 261.2 156.2C257.4 156.1 253.6 156.2 249.8 156.1C249 156.1 248.3 155.8 247.2 155.5C247.2 152.4 247.2 149.8 247.2 146.5ZM265.5 143.6C265.5 140.5 265.5 137.7 265.5 134.3C276.3 134.3 287 134.3 298.1 134.3C298.1 136.9 298.1 139.5 298.1 142.7C287.1 144.2 276.5 143.5 265.5 143.6ZM301 109.9C304.8 109.8 308.4 109.7 312.1 109.7C315.6 109.7 319.1 109.9 322.6 109.8C326.2 109.7 329.7 109.3 333.5 109.1C333.7 111.7 333.9 113.6 334 115.5C334.2 118.7 333.6 119.6 330.4 119.6C325.9 119.7 321.5 119.5 317 119.5C311.4 119.5 305.9 120.1 300.3 118.4C300.5 115.7 300.7 113.1 301 109.9ZM297.1 110.1C297.2 110.3 297.5 110.7 297.5 111.1C298.2 121.2 297.9 119.3 289.7 119.5C282.7 119.7 275.6 119.5 268.6 119.4C267.7 119.4 266.7 119.2 265.4 119.1C265.4 115.9 265.4 113.3 265.4 110C276 110.1 286.5 110.1 297.1 110.1ZM247.6 98.2999C255.7 98.0999 263.7 97.7999 271.6 97.5999C271.8 97.5999 271.9 97.5999 272.1 97.5999C280 96.9999 281.3 98.6999 279.2 106.9C268.7 106.9 258.1 106.9 247.1 106.9C247.3 103.7 247.5 100.9 247.6 98.2999ZM261.8 110.5C262 113.2 262.1 115.9 262.3 119.2C251.3 119.2 240.7 119.2 229.4 119.2C229.2 116.6 229.1 113.9 228.9 110.5C240.2 110.5 250.9 110.5 261.8 110.5ZM243.5 121.6C244.3 125.3 244.9 128.3 245.6 131.8C233.7 131.8 222.3 131.8 211 131.8C210.7 129.8 210.4 128.2 210.3 126.5C210.2 124.9 210.5 123.4 210.6 121.6C221.6 119.6 232.4 123.4 243.5 121.6ZM121.4 144.7C121.1 143.3 120.9 142.6 120.9 141.8C121 133.7 121.8 134.3 127.9 134.2C136.3 134 144.8 134.2 153.5 134.2C154.6 136.6 155.5 138.7 156.4 140.8C156.7 140.7 157 140.7 157.3 140.6C157.2 138.7 157.1 136.8 156.9 134.3C167.9 133.2 178.7 134.8 189.5 134.8C191.1 137.9 190.3 140.9 190.2 144.5C167.2 144.6 144.4 143.9 121.4 144.7ZM172 155.7C160.9 155.7 150.2 155.7 139 155.7C138.8 152.8 138.7 149.9 138.5 146.4C149.8 146.4 160.3 146.4 171.4 146.4C171.7 149.6 171.8 152.4 172 155.7ZM50.1 134.2C60.4 134.2 70.6 134.2 81.4 134.2C81.8 137.2 82.2 140 82.6 143.1C71.7 143.8 61.1 143.8 50.3 142.9C48.8 140.2 49.5 137.5 50.1 134.2ZM31.6 131.3C31.6 128.4 31.6 125.6 31.6 122.7C42.2 120.6 52.6 122.4 63.3 122.3C63.3 125.4 63.3 128.2 63.3 131.3C52.6 131.3 42.1 131.3 31.6 131.3ZM67.7 146.2C78.2999 146.2 88.8999 146.2 99.7 146.2C99.7 149.1 99.7 151.7 99.7 155C89.2999 155.8 78.7999 154.9 67.7 155.8C67.7 152.2 67.7 149.5 67.7 146.2ZM87.9 143.2C87.3 143.2 86.7 143 85.4 142.8C85.4 139.8 85.4 137.2 85.4 134.1C92.8 134.1 100 134.1 107.2 134.1C109.4 134.1 111.7 134.1 113.9 134.2C117.2 134.3 118.4 135.6 118.3 139C118.2 142.5 117.6 143.4 114.2 143.5C111 143.6 107.8 143.3 104.7 143.3C99 143.2 93.4 143.2 87.9 143.2ZM103.5 131.3C103.5 128 103.5 125 103.5 122C114.3 122 124.7 122 135.3 122C135.3 125.4 135.3 128.1 135.3 131.3C124.6 131.3 114.2 131.3 103.5 131.3ZM103.9 146.5C114.4 146.5 124.7 146.5 135.3 146.5C135.7 149.7 136 152.6 136.4 156.3C125.4 155.9 115 155.5 103.9 155.1C103.9 152.1 103.9 149.5 103.9 146.5ZM138.8 122.3C149.7 121.5 160.3 122.1 170.4 121.6C173 122.5 171.1 126.2 174.1 126.3C175.9 121.5 176.3 121.4 181.7 121.4C190.1 121.5 198.5 121.4 206.7 121.4C208.1 124.9 210.8 128.1 206.6 132C184.5 131.7 162.2 131.5 139.4 131.2C139.2 128.4 139 125.6 138.8 122.3ZM175.6 147.1C178.8 145.3 182.3 147 185.7 146.6C189.3 146.2 193 146.1 196.6 146C200.1 146 203.5 146.2 207.4 146.4C207.4 149.6 207.4 152.6 207.4 155.6C196.7 155.6 186.3 155.6 175.6 155.6C175.6 152.6 175.6 150 175.6 147.1ZM193.8 143.4C191.2 140.4 193.7 137.5 193.1 134.3C204.4 132.9 215.5 134.6 226.5 133.7C226.2 137.2 225.9 139.8 225.6 143.1C215.4 144 204.5 142.9 193.8 143.4ZM216.4 110.1C218.1 109.8 219.8 109.8 221.5 109.5C223.8 109.1 225.3 109.9 225.5 112.1C225.6 114.1 225.5 116.2 225.5 119.3C214.8 119.5 204.4 119.4 194 119.3C192.4 116.3 192.9 113.5 193.4 110.3C194.5 110.2 195.5 110 196.5 110C198.2 110 200.1 110.6 201.7 110.1C206.6 108.8 211.5 110.9 216.4 110.1ZM243.9 83.2999C233.3 83.5999 222.9 83.7999 212.3 84.0999C211.9 80.9999 211.6 78.2999 211.3 75.2999C222.4 74.9999 233.1 73.4999 243.9 74.3999C243.9 77.2999 243.9 79.9999 243.9 83.2999ZM193.5 71.4999C193.5 68.6999 193.5 65.7999 193.5 62.1999C204.4 62.0999 215.1 61.2999 225.9 62.0999C225.7 65.4999 225.6 68.3999 225.4 71.4999C214.8 71.4999 204.4 71.4999 193.5 71.4999ZM229.9 71.4999C228.4 68.4999 229 65.3999 229.3 61.7999C234.8 61.7999 240.2 61.2999 245.4 61.8999C250.7 62.4999 256.1 60.8999 261.6 62.8999C261.6 65.3999 261.6 68.1999 261.6 71.1999C256.1 72.7999 250.9 71.5999 245.7 71.3999C240.6 71.3999 235.4 71.4999 229.9 71.4999ZM271.9 83.9999C267.3 83.8999 262.7 83.4999 258.1 83.3999C254.8 83.2999 251.5 83.3999 247.8 83.3999C247.2 80.6999 246.5 77.7999 248.3 74.2999C258.8 74.2999 269.1 74.2999 279.3 74.2999C279.6 74.6999 280 74.8999 280 75.0999C281 84.0999 281 84.1999 271.9 83.9999ZM333.5 61.7999C333.7 65.1999 333.9 68.0999 334.1 71.7999C329.3 71.7999 324.9 71.6999 320.5 71.7999C316.4 71.8999 312.3 72.2999 308.2 72.4999C305.9 72.5999 303.6 72.4999 301 72.4999C301 68.5999 301 65.3999 301 61.6999C311.6 61.7999 322.2 61.7999 333.5 61.7999ZM319.1 59.5999C319.3 55.9999 319.4 53.4999 319.5 50.5999C330.2 50.5999 340.5 50.5999 351.1 50.5999C352.1 53.5999 352 56.4999 351.1 59.6999C340.4 60.0999 329.9 60.0999 319.1 59.5999ZM314.9 60.0999C304.3 60.0999 294.1 60.0999 283.5 60.0999C283.2 57.0999 282.8 54.1999 282.4 50.6999C293.4 50.6999 303.9 50.6999 314.9 50.6999C314.9 54.0999 314.9 56.8999 314.9 60.0999ZM297.4 62.8999C297.4 65.4999 297.4 68.0999 297.4 71.3999C286.9 71.8999 276.4 70.8999 265.4 71.8999C265.4 68.1999 265.4 65.0999 265.4 62.0999C280.1 61.1999 293.4 61.4999 297.4 62.8999ZM315.7 83.0999C305.4 85.5999 295 81.6999 284.4 84.1999C284.2 80.6999 284 77.7999 283.8 74.5999C294.7 73.5999 305 74.0999 315.8 74.3999C315.7 77.3999 315.7 79.9999 315.7 83.0999ZM320.1 83.4999C320.1 80.1999 320.1 77.4999 320.1 74.2999C330.9 74.2999 341.4 74.2999 352.3 74.2999C352.4 77.5999 352.6 80.6999 352.7 83.4999C341.4 83.4999 330.8 83.4999 320.1 83.4999ZM369.6 61.7999C369.6 65.3999 369.6 68.2999 369.6 71.8999C358.7 70.6999 347.9 72.9999 337 71.8999C337 68.4999 337 65.5999 337 62.3999C347.9 60.7999 358.6 62.0999 369.6 61.7999ZM337.8 37.8999C348.6 38.7999 359.2 37.2999 370 38.6999C370 41.7999 370 44.4999 370 47.4999C359.2 47.4999 348.5 47.4999 337 47.4999C337.3 43.9999 337.5 41.0999 337.8 37.8999ZM301.1 38.4999C312 38.4999 322.2 38.4999 332.9 38.4999C334.2 41.1999 334 44.1999 333.2 47.5999C322.3 47.5999 311.7 47.5999 300.7 47.5999C300.8 44.2999 301 41.3999 301.1 38.4999ZM297.2 37.9999C297.6 41.4999 297.9 44.3999 298.3 47.6999C287.2 47.9999 276.6 48.2999 265.4 48.4999C265.2 45.0999 265.1 42.0999 265 38.6999C275.8 38.4999 286.3 38.2999 297.2 37.9999ZM271.4 50.0999C271.6 50.0999 271.7 50.0999 271.9 49.9999C279.2 48.9999 280.9 50.7999 279.6 57.8999C279.3 59.2999 278.7 60.1999 277.1 60.1999C268.9 60.1999 260.6 60.2999 252.4 60.2999C250.8 60.2999 249.3 60.0999 247.3 59.9999C247.3 56.5999 247.3 53.8999 247.3 50.9999C251.7 49.0999 256.4 50.3999 261 50.4999C264.5 50.4999 268 50.1999 271.4 50.0999ZM229.4 38.3999C239.9 37.1999 250.5 38.9999 261.2 38.6999C261.2 40.2999 261.2 41.4999 261.2 42.7999C261.2 44.0999 261.4 45.2999 261.5 47.1999C250.6 48.5999 239.8 47.2999 228.7 47.5999C229 44.0999 229.2 41.4999 229.4 38.3999ZM243.7 49.9999C243.7 53.0999 243.7 55.6999 243.7 58.8999C238.7 60.5999 233.4 59.8999 228.1 59.4999C222.8 59.0999 217.4 59.3999 211.6 59.3999C211.6 55.9999 211.6 53.6999 211.6 50.6999C216.9 49.6999 222.4 51.0999 227.5 50.1999C233 49.3999 238.2 49.7999 243.7 49.9999ZM193.2 38.4999C204 38.4999 214.5 38.4999 225.5 38.4999C225.5 41.3999 225.5 44.3999 225.5 47.5999C215 49.2999 204.4 46.6999 193.2 47.7999C193.2 44.2999 193.2 41.6999 193.2 38.4999ZM174.7 60.4999C175 56.8999 175.2 53.7999 175.5 50.4999C186.6 50.4999 197.3 50.4999 208.3 50.4999C208.1 53.6999 208 56.2999 207.8 59.2999C196.7 59.6999 185.8 60.0999 174.7 60.4999ZM135.5 83.6999C124.9 83.3999 114.6 84.8999 104 83.0999C103.8 80.2999 103.5 77.5999 103.2 74.4999C114.7 74.4999 125.2 74.4999 136.3 74.4999C135.9 77.9999 135.7 80.7999 135.5 83.6999ZM156 83.5999C150.7 84.2999 145.6 83.6999 140.3 83.1999C138.9 74.4999 139.3 74.2999 147.4 74.3999C154.7 74.4999 162 75.8999 169.3 74.0999C169.9 73.9999 170.5 74.1999 171.7 74.3999C171.9 77.1999 172 79.8999 172.2 82.7999C166.6 85.3999 161.2 82.8999 156 83.5999ZM176.4 83.8999C174.3 80.7999 176 77.6999 175.5 74.3999C186.2 74.3999 196.8 74.3999 207.4 74.3999C209.1 76.9999 208.6 79.7999 208 82.8999C197.3 84.1999 186.8 84.1999 176.4 83.8999ZM175.5 97.5999C179.4 97.5999 183 97.8999 186.6 97.4999C190.9 97.0999 190.9 96.8999 191.6 91.4999C191.9 93.8999 192.1 95.4999 192.3 97.4999C197.1 97.4999 201.8 97.4999 206.7 97.4999C208.1 100.6 208.7 103.5 207.2 107.1C196.9 107.6 186.4 107.7 175.5 107C175.5 103.5 175.5 100.7 175.5 97.5999ZM154.1 109.9C154.6 112.1 155 113.5 155.4 115C155.7 115 155.9 115 156.2 115C156.4 113.5 156.5 111.9 156.7 110.2C167.5 110.2 178.2 110.2 188.9 110.2C189.5 113.6 190 116.3 190.6 119.3C167.9 119.3 145.2 119.3 122.2 119.3C122.2 116.1 122.2 113.2 122.2 109.8C133 109.9 143.6 109.9 154.1 109.9ZM103.4 98.0999C109 97.8999 114.3 98.0999 119.6 97.4999C124.8 96.8999 130 97.0999 135.4 96.9999C135.4 100.6 135.4 103.6 135.4 107.1C124.7 107.8 114.1 107.3 103 107.4C103.1 104.2 103.3 101.4 103.4 98.0999ZM86.3 109.2C96.7001 109.5 106.9 109.8 117.4 110.2C117.7 113.1 118 115.9 118.3 119.2C107.6 120.1 97.1001 119.3 86.3 119.6C86.3 115.8 86.3 112.8 86.3 109.2ZM95.2 122.2C98.7999 122.1 99.9 122.9 99.9 126.4C99.9 127.8 99.4 129.2 99.1 131.1C88.3 131.1 78 131.1 67.4 131.1C67.4 128 67.4 125 67.4 122C73.1 122 78.3 122 83.5 122C87.4 122 91.2999 122.3 95.2 122.2ZM50.4 110.4C55.5 108.6 60.9 110.5 66.2 110.1C71.3999 109.7 76.5 109.5 82.4 109.1C82.4 112.7 82.4 115.8 82.4 118.8C76.8 120 54.9 119.9 50.4 118.7C50.4 116.1 50.4 113.5 50.4 110.4ZM14.5 118.9C13.7 118.9 13 119.1 12.6 119.1C12.9 116.2 13.3 113.3 13.6 109.9C24.2 109.9 34.6 109.9 45.4 109.9C46.7 119.6 46.7001 119.7 37.3 119.6C29.7 119.6 22.1 119.2 14.5 118.9ZM13.9 142.9C13.6 140 13.3 137.4 12.9 134.1C23.9 133.2 34.8 134.5 46 134.1C46 136.1 46 137.5 46 138.9C46 140.1 46 141.3 46 142.9C35.2 143.7 24.6 144.1 13.9 142.9ZM37.8 155.9C35.8 156 33.7999 155.8 31.7 155.8C31.7 152.3 31.7 149.5 31.7 146.4C42.2999 146.4 52.7 146.4 63.4 146.4C63.4 149.6 63.4 152.4 63.4 155.3C59.8 155.7 56.6 156.1 53 155.6C48.1 154.9 42.9 155.7 37.8 155.9ZM80.7 167C77.6 168.7 74.3 168.6 71.3 167.9C68.1001 167.1 65.1 167.2 61.9 167.2C57.8 167.2 53.7001 166.9 49.3 166.7C49.3 163.4 49.3 160.9 49.3 158.2C60.1 158.2 70.7 158.2 81.9 158.2C81.4 161.5 81.1 164.2 80.7 167ZM117.5 167.7C106.4 168.9 95.5 167.8 84.9 167.2C85.1 164.1 85.2 161.8 85.4 158.9C95.9 157.1 106.7 157.6 117.5 157.9C117.5 161.1 117.5 164.1 117.5 167.7ZM154 167.3C153.3 167.6 153 167.9 152.7 167.9C145.2 167.9 137.8 167.8 130.3 167.8C128.6 167.8 126.8 168 125.1 168.1C122.4 168.3 121.5 167.4 121.6 164.5C121.6 162.6 121.8 160.8 122 158.3C132.8 159.4 143.3 156.7 154.1 158.1C154 161.5 154 164.3 154 167.3ZM189.4 167.4C179 167.9 168.6 168.3 157.6 167.5C157.6 164.3 157.6 161.5 157.6 158.4C168.2 157 178.6 159.2 189.4 158.5C189.4 161.3 189.4 164.1 189.4 167.4ZM225.1 167.6C214.3 167.6 204 167.6 193.1 167.6C193.1 164.8 193.1 162.1 193.1 159.4C198.8 158.3 220.7 157.9 225.5 158.9C225.4 161.5 225.3 164.3 225.1 167.6ZM213.6 156.1C211.9 156.1 210.7 155.4 210.6 153.7C210.5 151.4 210.7 149.1 210.7 146.5C221.9 146.5 232.5 146.5 243.6 146.5C243.6 149.3 243.6 152.1 243.6 155.2C241.9 155.5 240.4 156 238.9 156C230.4 156.2 222 156.1 213.6 156.1ZM256.8 168.1C250.6 168.1 244.4 167.8 238.3 167.8C235.2 167.8 231.9 168.8 228.8 166.3C228.8 164 228.8 161.8 228.8 159.4C229.8 159.2 230.7 158.8 231.6 158.8C238.4 158.7 245.3 158.7 252.1 158.6C253 158.6 254 158.3 254.9 158.2C259.7 157.7 260.6 158.2 262.5 162.6C263.2 161.9 263.9 161.3 264.4 160.5C264.8 159.9 265.1 159.1 265.4 158.4C275.8 158.4 286 158.4 296.3 158.4C297.9 162.5 297.9 162.5 296.6 167.4C292.7 167.6 288.6 167.9 284.5 168C275.2 168.2 266 168.2 256.8 168.1ZM315.9 170.2C315.9 173 315.9 176 315.9 179.1C305.1 179.1 294.5 179.1 283.4 179.1C283.4 175.8 283.4 173.3 283.4 170.2C294.3 170.2 304.9 170.2 315.9 170.2ZM282.6 155.1C282.9 152 283.1 149.5 283.3 146.5C293.9 146.5 304.5 146.5 315.3 146.5C315.4 149.6 315.6 152.3 315.7 155.1C304.5 155.1 293.6 155.1 282.6 155.1ZM351.4 156C348 156 344.7 156 341.4 156C336.8 156 332.3 156 327.7 155.9C324.9 155.9 322.1 155.7 318.8 155.7C318.8 152.3 318.8 149.4 318.8 146.1C329.9 146.1 340.5 146.1 351.3 146.1C351.4 149.5 351.4 152.5 351.4 156ZM349.9 143.6C346.7 143.6 343.6 143.6 340.4 143.2C337.5 142.9 336.9 142 337.2 139.2C337.4 137.6 337.8 136.1 338.2 134.4C348.6 134.4 359 134.4 369.8 134.4C369.8 137.4 369.8 140 369.8 142.8C363.2 144.2 356.5 143.5 349.9 143.6Z" fill="#0F6D2C"/>
<path d="M224 223L235 211.8H175.8L164.5 223H223.9" fill="#25B759"/>
<path d="M224 223H164.5V239H224V223Z" fill="#137F3A"/>
<path d="M235 227.2V211.8L224 223V239L235 227.2Z" fill="#095411"/>
<path d="M232.7 204.3L243.7 193.1H184.5L173.2 204.3H232.6" fill="#25B759"/>
<path d="M232.7 204.3H173.2V220.3H232.7V204.3Z" fill="#137F3A"/>
<path d="M243.7 208.5V193.1L232.7 204.3V220.3L243.7 208.5Z" fill="#095411"/>
<path d="M366.7 197.9H307.5C303.9 197.9 301.1 200.8 301.1 204.3V205.1H373.2V204.3C373.1 200.8 370.2 197.9 366.7 197.9Z" fill="#D83252"/>
<path d="M332.9 117.9L308.1 197.9H366.1L341.3 117.9C339.9 113.8 334.1 113.8 332.9 117.9Z" fill="#4ED875"/>
<path d="M364.4 192.7H318.1C318.1 192.7 324.8 159.4 329.2 140.7C333.6 122 334.8 116.3 336.9 114.8C335.2 114.8 333.5 115.9 332.8 117.9L308 197.9H365.8L364.4 192.7Z" fill="#4ED875"/>
<path d="M313.2 181.3H360.9L355.7 164.6H318.4L313.2 181.3Z" fill="#D83252"/>
<path d="M320.5 181.3C321.5 176.5 322.7 170.7 324 164.7H318.4L313.2 181.3H320.5Z" fill="#D83252"/>
<path d="M323.5 148H350.6L345.4 131.4H328.7L323.5 148Z" fill="#D83252"/>
<path d="M328.7 131.4L323.5 148H327.6C328.2 145.4 328.7 142.9 329.3 140.7C330.1 137.2 330.8 134.1 331.5 131.4H328.7Z" fill="#D83252"/>
<path d="M337 197.9H308.2C304.2 197.9 300.9 201.2 300.9 205.2H336.9V197.9H337Z" fill="#D83252"/>
<path d="M326.9 221C326.8 223.1 322.4 224.2 320.9 224.5C312.2 226.4 303.1 227.6 294.2 227C290 226.8 285.9 226.2 281.8 225.3C279.8 224.9 277.7 224.4 275.7 223.8C274.4 223.4 272.1 222.8 271.6 221.4C271.6 221.3 271.5 221.1 271.5 221L270.7 165.6H328.2C328.3 165.6 326.9 220.9 326.9 221Z" fill="#83E59C"/>
<path d="M299.6 157.9C283.8 157.9 270.9 161.3 270.9 165.6C270.9 169.9 283.7 173.3 299.6 173.3C315.4 173.3 328.3 169.9 328.3 165.6C328.3 161.3 315.4 157.9 299.6 157.9Z" fill="#137F3A"/>
<path d="M299.6 158.6C307.2 158.6 314.3 159.4 319.7 160.8C322.2 161.5 324.3 162.3 325.6 163.1C326.5 163.6 327.5 164.5 327.5 165.4C327.5 166.3 326.5 167.2 325.6 167.7C324.2 168.6 322.2 169.4 319.7 170C314.3 171.4 307.2 172.2 299.6 172.2C292 172.2 284.9 171.4 279.5 170C277 169.3 274.9 168.5 273.6 167.7C272.7 167.2 271.7 166.3 271.7 165.4C271.7 164.5 272.7 163.6 273.6 163.1C275 162.2 277 161.4 279.5 160.8C284.9 159.4 292 158.6 299.6 158.6ZM299.6 157.9C283.8 157.9 270.9 161.3 270.9 165.6C270.9 169.9 283.7 173.3 299.6 173.3C315.4 173.3 328.3 169.9 328.3 165.6C328.3 161.3 315.4 157.9 299.6 157.9Z" fill="#095411"/>
<path d="M299.8 197C283.9 197 270.7 183.9 270.2 167.4C270.2 166.8 270.6 166.4 271.2 166.4C271.7 166.4 272.2 166.8 272.2 167.4C272.6 183.1 285.3 195.5 300.5 195.1C307.8 194.9 314.7 191.8 319.7 186.3C324.8 180.8 327.4 173.6 327.2 166C327.2 165.4 327.6 165 328.2 165C328.7 165 329.2 165.4 329.2 166C329.4 174.1 326.5 181.8 321.1 187.7C315.7 193.6 308.3 197 300.4 197.2C300.3 197 300.1 197 299.8 197Z" fill="#16994A"/>
<path d="M289.6 232.4L302.9 224.1L258.4 213.4L244.8 221.7L289.4 232.4" fill="#25B759"/>
<path d="M289.6 248L245 236.8L244.8 221.7L289.6 232.4V248Z" fill="#137F3A"/>
<path d="M303 239L302.9 224.1L289.6 232.4V248L303 239Z" fill="#095411"/>
<path d="M292.399 26.4164L291.802 26.3673L291.687 27.7626L292.285 27.8117L292.399 26.4164Z" fill="#FECB2F"/>
<path d="M334.3 29.8L293.2 26.4H292.7C292.3 26.4 291.9 26.7 291.8 27.1L291.7 27.7C291.7 28.1 291.9 28.4 292.2 28.5L311.8 35C312.6 35.3 313.5 35.4 314.4 35.2L334.8 31.9C335.2 31.8 335.4 31.5 335.5 31.2L335.6 30.6C335.6 30.2 335.3 29.8 334.9 29.7L334.3 29.8Z" fill="#0C4C0D"/>
<path d="M334.3 28.9L293.2 25.5H292.7C292.3 25.5 291.9 25.8 291.8 26.2L291.7 26.8C291.7 27.2 291.9 27.5 292.2 27.6L311.8 34.1C312.6 34.4 313.5 34.5 314.4 34.3L334.8 31C335.2 30.9 335.4 30.6 335.5 30.3L335.6 29.7C335.6 29.3 335.3 28.9 334.9 28.8L334.3 28.9Z" fill="#095411"/>
<path d="M316.036 15.9877C316.493 10.4286 312.669 5.57729 307.495 5.15216C302.321 4.72703 297.757 8.88905 297.3 14.4482C296.843 20.0073 300.667 24.8584 305.841 25.2836C311.015 25.7087 315.579 21.5468 316.036 15.9877Z" fill="#095411"/>
<path d="M300.2 8C300.2 8 304.7 13 305.1 13.3C305.5 13.6 305.6 12.5 305.6 12.5L306.2 14.2L304.4 14.7L299.8 8.39999L300.2 8Z" fill="#0C4C0D"/>
<path d="M332.595 17.3669C333.052 11.8078 329.228 6.95656 324.054 6.53143C318.88 6.10631 314.316 10.2683 313.859 15.8274C313.402 21.3865 317.226 26.2377 322.4 26.6628C327.574 27.088 332.138 22.9261 332.595 17.3669Z" fill="#095411"/>
<path d="M330.8 10.5C330.8 10.5 325.6 14.7 325.1 14.9C324.6 15.1 324.8 14.1 324.8 14.1L323.9 15.6L325.6 16.4L331.2 11L330.8 10.5Z" fill="#0C4C0D"/>
<path d="M334.9 18.8C334.4 14.4 331.7 10.6 331.7 10.6L325.6 15.4C325.1 15.8 324.5 15.3 324.7 14.7L327.3 6.6C324.7 4.6 320.2 2.69999 316.5 2.39999C316.4 2.39999 316.3 2.39999 316.2 2.39999C316.1 2.39999 316 2.39999 315.9 2.39999C312.1 2.19999 307.5 3.2 304.6 4.8L305.8 13.3C305.9 13.9 305.2 14.3 304.8 13.9L299.6 8.1C299.6 8.1 296.3 11.4 295.1 15.7C293.9 20 293.7 23.7 293.5 25.7L314.1 28.4L314.5 24.1L314.2 28.4L335 29.1C335 26.9 335.4 23.2 334.9 18.8Z" fill="#4ED875"/>
<path d="M315.9 17.2L315 2.19995C313.4 2.19995 311.7 2.39995 310.1 2.69995L308.2 25.3999L293.4 24.2C293.4 24.7 293.3 25.1 293.3 25.5L313.9 28.2L314.3 23.8999L314 28.2H315.5C315.7 22.4 315.9 17.2 315.9 17.2Z" fill="#4ED875"/>
<path d="M313.4 17L316.8 2.30005C318.4 2.50005 320 3.00005 321.6 3.60005L319.7 26.3L335 27.6001C335 28.1001 334.9 28.5 334.9 28.9L313.6 28.2L313.9 23.9L313.5 28.2L312 28C312.7 22.2 313.4 17 313.4 17Z" fill="#4ED875"/>
<path d="M317.8 29.2C314.9 30.3 312.1 30.1 309.5 28.5L311.6 3.00001C311.7 1.50001 312.9 0.500015 314.3 0.600015L317.8 0.900003C319.1 1 320.1 2.30001 320 3.70001L317.8 29.2Z" fill="#83E59C"/>
<path d="M335.2 20.3999L314 18.7L313.6 23L335.4 24.8C335.4 23.4 335.4 21.9999 335.2 20.3999Z" fill="#0C4C0D"/>
<path d="M321.5 21.4C321.6 20.6 321.5 19.9 321.3 19.2L313.9 18.6L313.5 22.9L320.9 23.5C321.3 22.9 321.5 22.2 321.5 21.4Z" fill="#0C4C0D"/>
<path d="M294 17L315 18.7L314.6 23L293 21.2C293.3 20 293.6 18.5 294 17Z" fill="#0C4C0D"/>
<path d="M307.1 20.2C307.2 19.4 307.4 18.7 307.7 18.1L315.1 18.7L314.7 23L307.3 22.4C307.1 21.7 307 21 307.1 20.2Z" fill="#0C4C0D"/>
<path d="M320.856 21.454C321.154 17.8213 318.451 14.6345 314.819 14.336C311.186 14.0375 307.999 16.7403 307.701 20.373C307.402 24.0057 310.105 27.1927 313.738 27.4912C317.37 27.7896 320.557 25.0866 320.856 21.454Z" fill="#0C4C0D"/>
<path d="M319.062 21.3066C319.279 18.6647 317.313 16.347 314.671 16.1299C312.029 15.9128 309.712 17.8785 309.495 20.5205C309.277 23.1624 311.243 25.4802 313.885 25.6973C316.527 25.9144 318.845 23.9486 319.062 21.3066Z" fill="#B7F9C1"/>
</svg>
