<svg width="426" height="316" viewBox="0 0 426 316" fill="none" xmlns="http://www.w3.org/2000/svg">
<path d="M29.7999 250.8L35.3999 264.4L85.1999 273.2L65.8999 291.3L14.0999 275.1L11.5999 266.3L26.5999 247.8L29.7999 250.8Z" fill="#093509"/>
<path d="M47.7999 272L51.6999 273.5C51.9999 273.6 52.1999 274 51.9999 274.3C51.3999 275.8 49.7999 279.9 50.3999 283.5C50.8999 286.5 52.1999 289.3 53.0999 290.8C53.4999 291.5 53.2999 292.5 52.5999 293C51.7999 293.6 50.5999 293.3 50.0999 292.4C48.6999 289.6 46.5999 283.6 48.4999 275.9C48.6999 274.9 48.4999 273.9 47.6999 273.1L47.2999 272.7C47.1999 272.6 47.0999 272.4 47.1999 272.3C47.1999 272.1 47.4999 271.9 47.7999 272Z" fill="#095411"/>
<path d="M54.6999 268.1C54.7999 267.8 54.7999 267.5 54.6999 267.3C54.5999 267 54.4999 266.6 54.2999 266.4L54.5999 263.8C54.6999 262.7 54.4999 261.7 53.8999 260.8L51.6999 257.3L51.0999 257.4C51.0999 257.4 51.2999 258.8 51.6999 260.7C52.2999 260.7 52.7999 261.2 52.8999 261.8C52.9999 262.4 52.6999 263 52.0999 263.2C52.1999 263.9 52.3999 264.7 52.4999 265.5C52.3999 265.5 52.2999 265.5 52.1999 265.5C52.0999 265.5 51.9999 265.6 51.8999 265.6C51.7999 264.8 51.5999 264.1 51.4999 263.3C50.8999 263.2 50.3999 262.8 50.2999 262.2C50.1999 261.6 50.4999 261 51.0999 260.8C50.7999 258.9 50.4999 257.5 50.4999 257.5L49.8999 257.6L48.9999 261.7C48.7999 262.7 48.8999 263.8 49.2999 264.8L50.4999 267.2C50.3999 267.5 50.3999 267.9 50.3999 268.2C50.3999 268.5 50.5999 268.8 50.6999 269L49.4999 272.8L51.6999 273.7L52.6999 270.2V270.1C52.7999 270.1 52.8999 270.1 52.9999 270.1C53.0999 270.1 53.1999 270 53.2999 270V270.1L55.3999 273.1L57.1999 271.5L54.6999 268.1Z" fill="#25B759"/>
<path d="M58.4998 270.2L55.3998 273C55.0998 273.2 55.0998 273.6 55.3998 273.9C56.4998 275.1 59.2998 278.4 59.9998 282.1C60.4998 285.1 60.1998 288.2 59.8998 289.9C59.7998 290.7 60.2998 291.5 61.0998 291.8C62.0998 292.1 63.0998 291.4 63.1998 290.4C63.5998 287.3 63.5998 280.9 59.1998 274.3C58.5998 273.4 58.5998 272.4 58.9998 271.4L59.2998 270.8C59.3998 270.7 59.3998 270.5 59.2998 270.4C59.0998 270 58.6998 270 58.4998 270.2Z" fill="#095411"/>
<path d="M52.7236 268.877C53.4311 268.755 53.906 268.083 53.7843 267.375C53.6625 266.668 52.9902 266.193 52.2826 266.315C51.5751 266.437 51.1002 267.109 51.2219 267.816C51.3437 268.524 52.016 268.999 52.7236 268.877Z" fill="#095411"/>
<path d="M107.2 254.6L93.3999 259.5C92.7999 259.7 92.4999 260.4 92.6999 260.9L95.2999 268.1H95.3999C95.9999 268.4 99.5999 270.3 100.7 271L103.9 272.8C104.2 273 104.5 273 104.8 272.9L112.7 270.1C113.8 269.7 114.4 268.5 114 267.4L109.9 255.9C109.6 254.8 108.3 254.2 107.2 254.6ZM111.6 267.3L107.7 268.7C106.4 269.1 105.1 268.5 104.6 267.2L102.5 261.3C102.1 260 102.7 258.7 104 258.2L107.9 256.8L111.6 267.3Z" fill="#137F3A"/>
<path d="M47.5 277.1L92.8 261L95.4 268.2C95.4 268.2 101.3 271.3 101 271.4C100.7 271.5 99 276.1 99 276.1L97.7 274.5L96.7 276.4L95.3 274.9L94.6 276.9L93.1 275.3L92.2 277.4L90.8 275.8L89.9 277.7L88.4 276.2L87.6 278.3L86.3 276.5L85.5 278.7L84 276.9L83.2 279L81.7 277.4L80.9 279.3L79.4 277.7L78.5 279.8L77.2 278.1L76.4 280L75 278.6L74 280.5L72.6 279L71.8 280.9L70.4 279.3L69.3 281.4L68.1 279.8L67.3 282L65.7 280.4L64.9 282.4L63.4 280.8L62.5 282.9L61.1 281.3L60.1 283.4L58.8 281.8L58 283.7L56.5 282.2L55.7 284.1L54.3 282.6L53.5 284.5L52.1 283L51 284.7L49.8 283.6L47.5 277.1Z" fill="#25B759"/>
<path d="M96.1819 261.936C96.5981 261.788 96.8153 261.33 96.667 260.914C96.5188 260.498 96.0611 260.281 95.6449 260.429C95.2287 260.577 95.0116 261.035 95.1598 261.451C95.3081 261.867 95.7657 262.085 96.1819 261.936Z" fill="#093509"/>
<path d="M97.7898 266.659C98.206 266.511 98.4232 266.053 98.2749 265.637C98.1267 265.221 97.6691 265.004 97.2529 265.152C96.8367 265.3 96.6195 265.758 96.7677 266.174C96.916 266.59 97.3736 266.807 97.7898 266.659Z" fill="#093509"/>
<path d="M26.5999 247.8L8.19995 269.6L72.7 282L86.5999 258.1L26.5999 247.8ZM69.9 277.9L14.7 267.5L27.5 252L79.8999 261.3L69.9 277.9Z" fill="#137F3A"/>
<path d="M8.19995 269.6L12.0999 289.6L75.2 302.5L72.7 281.9L8.19995 269.6Z" fill="#14662A"/>
<path d="M86.6 258.1L72.7 281.9L75.2 302.5L92.2 296.2L97 278.6L86.6 258.1Z" fill="#095411"/>
<path d="M1.29995 263.5C-0.500049 256.5 5.09995 252.1 5.09995 252.1L7.99995 250C8.19995 249.9 8.39995 249.9 8.59995 250C9.39995 250.4 10.4 250.3 11.2 249.8C12 249.2 12.4 248.3 12.2 247.4C12.2 247.2 12.3 247 12.4 246.8L15 244.9C15.2 244.8 15.4 244.8 15.5 245L18.5 249.2C18.6 249.4 18.6 249.6 18.4 249.7L15.8 251.6C15.6 251.7 15.4 251.7 15.2 251.6C14.4 251.2 13.4 251.3 12.6 251.8C12.5 251.8 12.5 251.9 12.4 251.9C11.5 252.7 11.4 254.2 12.1 255.2L12.7 256L22 268.8L16.3 267.7L9.49995 258.2L8.49995 256.8C4.79995 255.7 2.69995 261 1.89995 263.4C1.89995 263.9 1.39995 263.9 1.29995 263.5Z" fill="#4ED875"/>
<path d="M64.4 277.2L65.9 276.2L66.8 277.6L68.2 276.8L67.1 274.9L65.9 273L64.5 273.9L65.4 275.3L62.7 276.9" fill="#4ED875"/>
<path d="M68.6999 271.2L65.8999 272.9L68.2999 276.7L71.0999 274.9H72.2999C72.8999 274.9 73.4999 274.7 74.0999 274.4L81.9999 269.5C82.4999 269.2 82.6999 268.5 82.2999 268L81.0999 266.1L79.8999 264.2C79.5999 263.7 78.8999 263.5 78.3999 263.9L70.4999 268.8C69.9999 269.1 69.4999 269.6 69.2999 270.2L68.6999 271.2Z" fill="#062806"/>
<path d="M80.2471 267.47L72.0996 272.546L72.7871 273.65L80.9346 268.573L80.2471 267.47Z" fill="#4ED875"/>
<path d="M78.8548 265.282L70.7073 270.358L71.3947 271.461L79.5422 266.385L78.8548 265.282Z" fill="#4ED875"/>
<path d="M368.9 112.9L346.4 170L331.2 218.3H325.3L348.4 112.9H368.9Z" fill="#83E59C"/>
<path d="M373.5 112.9C373.7 133 377.2 160 377.8 161.2C378.2 162 391.1 172.6 416.5 193L412.4 197.4C382.4 179.9 366.8 170 365.4 167.7C363.3 164.2 356.5 132 351.1 112.8H373.5V112.9Z" fill="#83E59C"/>
<path d="M416.985 191.528C418.357 192.074 419.318 192.442 419.845 192.914C420.436 193.463 421.284 194.317 422.312 195.543C421.751 196.275 416.128 202.952 405.671 215.381C403.478 214.48 402.86 213.432 403.611 212.149C404.426 210.943 405.089 209.865 405.585 209.057L409.178 196.382C409.267 196.176 409.497 195.984 409.702 196.072L411.638 196.668C412.967 196.074 413.951 195.379 414.499 194.789C414.971 194.262 415.339 193.301 415.655 192.122C415.974 191.724 416.421 191.479 416.985 191.528C416.908 191.592 416.985 191.528 416.985 191.528Z" fill="#0C420C"/>
<path d="M333.7 216.1C334.2 217.5 334.5 218.5 334.5 219.2C334.5 220 334.4 221.2 334.1 222.8C333.1 222.8 324.5 222.8 308.2 222.8C307.5 220.6 307.9 219.4 309.4 219.2C310.9 219 312.1 218.9 313 218.7L325.1 213.3C325.3 213.2 325.6 213.3 325.7 213.5L326.5 215.4C327.8 216 328.9 216.3 329.8 216.3C330.5 216.3 331.4 216 332.6 215.5C332.9 215.3 333.4 215.5 333.7 216.1C333.7 216 333.7 216 333.7 216.1Z" fill="#0C420C"/>
<path d="M353.8 213.3L325.3 210.2L346.4 112.9H371.8L353.8 213.3Z" fill="#4ED875"/>
<path d="M410.6 185.9L391.9 208C372.3 186.6 360.8 172.6 357.6 166C354.3 159.5 351.4 141.7 348.8 112.9H377.5C378.9 138.3 379.9 151.6 380.4 152.8C380.9 154 390.9 165 410.6 185.9Z" fill="#83E59C"/>
<path d="M364.7 55.2C366.8 52.7 368.3 49.7 368 46.3C367.3 36.5 353.6 38.6 351 43.6C348.3 48.6 348.7 61.2 352.1 62C353.5 62.4 356.4 61.5 359.4 59.7L357.5 72.9H368.5L364.7 55.2Z" fill="#83E59C"/>
<path d="M372.8 43C373.2 42.6 373.4 42.1 373.5 41.7C373.7 41.2 373.8 40.7 374 40.2C374.2 39.2 374.2 38 373.5 37.2C372.9 36.6 372 36.3 371.2 36.2C370.7 36.2 370.1 36.2 369.6 36.4C369.1 36.6 368.6 36.9 368.1 37.1C368.1 36 367.9 34.8 367.3 33.9C366.8 33 365.9 32.5 364.9 32.3C363.9 32.2 362.9 32.4 362 32.9C361.8 33 361.5 33.2 361.3 33.3C361.1 33.4 360.9 33.6 360.7 33.6C360.5 33.7 360.3 33.5 360.2 33.3C360 33.1 359.8 32.9 359.6 32.8C358.7 32.1 357.4 31.8 356.3 32.2C355.8 32.4 355.3 32.7 355 33.2C354.7 33.6 354.5 34.2 354.1 34.5C353.9 34.6 353.8 34.5 353.6 34.3C353.4 34.1 353.1 33.9 352.9 33.8C352.6 33.6 352.2 33.4 351.8 33.3C351.2 33.2 350.4 33.2 350.2 34C350.1 34.3 350.2 34.6 350.2 34.9C350.2 35.3 350.3 35.7 350.3 36.1C350.3 36.4 350.4 36.7 350.4 37C350.4 37.2 350.5 37.5 350.5 37.6C350.4 37.8 350 37.7 349.9 37.7C349.6 37.7 349.2 37.8 348.9 37.9C348.7 38 348.4 38.2 348.3 38.4C348.2 38.6 348.3 38.7 348.3 38.9C348.3 39.1 348.3 39.2 348.3 39.4C347.9 39.2 346.3 38.7 346.1 39.5C346 39.8 346.2 40.1 346.3 40.3C346.5 40.7 346.8 41.1 347 41.4C347.6 42.1 348.2 42.7 348.9 43.3C348.1 43.7 347.8 44.8 348.6 45.4C348.9 45.7 349.3 45.8 349.7 45.7C349.8 45.7 350.1 45.6 350.2 45.7C350.3 45.7 350.3 45.8 350.4 45.8C351 45.8 351.6 45.7 352.2 45.6C353.2 45.4 354.1 44.9 354.9 44.2C355.1 44 355.3 43.9 355.5 43.9C355.7 43.9 356 44 356.2 44C356.8 44 357.4 43.7 357.9 43.5C357.9 44.3 358.2 45.1 358.5 45.8C358.8 46.4 359.3 46.4 359.8 46.5C361.5 46.7 363.2 46.5 364.8 46.5C363.2 46.9 361.5 47 359.9 47.5C359.2 47.7 359.7 48.2 360 48.5C360.5 49.1 360.9 49.8 361.2 50.5C362 49.5 363.4 48.8 364.6 49.1C366 49.5 366.9 51.3 366.1 52.7C365.6 53.5 364.7 53.8 363.9 54.1C364.5 54.7 364.6 55.6 365 56.4C365.2 56.8 365.4 57.2 365.8 57.3C365.9 57.3 366.1 57.4 366.2 57.5C366.3 57.6 366.4 57.8 366.6 57.9C367.3 58.4 368.5 58.4 369.1 57.7C369.7 57.1 369.5 56.1 369 55.5C369.8 55.2 371.2 54.8 370.9 53.5C372.6 53.4 376.7 50.6 374.4 48.6C375.6 47.9 376.8 46.2 376 44.7C375.4 43.6 374 43.1 372.8 43Z" fill="#DBFCDF"/>
<path d="M337 113L322.5 119C318.4 123.8 316.1 125.8 315.6 125C314.9 123.8 316.5 122.7 316.1 121.8C315.7 120.9 313 121 310.4 121.2C307.8 121.4 308.5 120.2 309.2 119.7C311.9 118.1 315.2 116.8 319.2 115.7L333.9 104.9L337 113ZM396 134.7C396.7 136 401.5 140.1 404.9 142.4C406.3 143.3 405.7 144.5 405.2 144.8C401 147.4 398.3 144.3 394.7 142.7C390.7 140.9 391.1 146.1 387.9 144.7C388.9 142.5 391.1 138.5 390 135.9C389.5 134.7 386.3 124.6 380.4 105.4H390C393.1 123.1 395.1 132.9 396 134.7Z" fill="#83E59C"/>
<path d="M362.8 65L358.8 64.3C344.1 77 338 101.5 319.9 114.5L324.3 119.9C355.6 116 363.4 86.2 362.8 65Z" fill="#14662A"/>
<path d="M380.1 115C364.2 115 352.4 115 344.9 115C343.3 115 343.6 112.7 343.8 111.5C346.5 98.0001 356.9 83.4001 356.9 64.2001L367 62.6001C375.5 76.0001 378.4 92.7001 380.1 115Z" fill="#4ED875"/>
<path d="M379.8 75.8001C381.3 75.4001 382.4 74.4001 383.3 72.8001C387 66.1001 385.7 62.4001 381.7 61.2001C377.7 60.0001 374.2 62.5001 367.9 62.5001C367.6 62.5001 367.2 62.5001 367 62.6001L363.8 62.8001C354.7 93.7001 352.2 114.3 356.3 124.6H384C385.6 128.4 387.2 131.6 388.7 134.3H396.2C396.9 111.3 391.4 91.8001 379.8 75.8001Z" fill="#137F3A"/>
<path d="M377.9 108.8C377 116.1 375.6 121.4 373.7 124.7H384C382 120.2 380 114.9 377.9 108.8Z" fill="black" fill-opacity="0.1"/>
<path d="M349.4 50.9C349.5 52.7 347.4 54 347.6 55.8C348.3 56 349.2 56 349.8 56.2" fill="#83E59C"/>
<path d="M350.4 50.0001C350.5 49.7001 350.9 49.5001 351.2 49.4001C351.5 49.3001 351.9 49.3001 352.2 49.4001C352.5 49.5001 352.8 49.6001 353.1 49.8001C353.4 50.0001 353.6 50.2001 353.8 50.5001C353.2 50.2001 352.7 50.0001 352.1 49.9001C351.5 49.7001 351 49.7001 350.4 50.0001Z" fill="#137F3A"/>
<path d="M350 59.2001C350.4 59.1001 350.8 59.0001 351.2 58.9001C351.6 58.8001 351.9 58.6001 352.3 58.4001L352.7 58.2001V58.6001C352.7 58.9001 352.6 59.2001 352.4 59.3001C352.2 59.5001 352.1 59.6001 351.9 59.7001C351.5 59.9001 351.1 60.0001 350.7 60.2001C351 59.9001 351.4 59.7001 351.7 59.4001C352 59.2001 352.3 58.9001 352.2 58.6001L352.6 58.8001C351.8 59.3001 350.9 59.4001 350 59.2001Z" fill="#137F3A"/>
<path d="M351.2 51.8C351.476 51.8 351.7 51.5762 351.7 51.3C351.7 51.0239 351.476 50.8 351.2 50.8C350.924 50.8 350.7 51.0239 350.7 51.3C350.7 51.5762 350.924 51.8 351.2 51.8Z" fill="#137F3A"/>
<path d="M5 116.7L82.4 103.8L86.3 69.6001L87.1 50.4L85 11.3L17.4 13.4L10.8 17.7L7.5 29.4L9.7 49.6001L10.4 69.1001L9.7 84.8L8.1 100.8L5 116.7Z" fill="#16994A"/>
<path d="M82.3998 103.8L79.7998 103.2C79.7998 103.1 83.3998 88.1 84.3998 80C86.3998 64.2 86.2998 46.4 84.2998 23.9V23.5C83.7998 17.6 83.0998 10.9 86.0998 5.30003C87.7998 2.20003 91.1998 -0.59997 94.8998 0.50003C98.8998 1.70003 100.6 7.00003 101.7 10.5C101.8 10.9 101.9 11.3 102.1 11.6L99.4998 12.5C99.3998 12.2 99.2998 11.8 99.0998 11.4C98.1998 8.50003 96.7998 4.00003 94.0998 3.20003C91.9998 2.60003 89.6998 4.50003 88.4998 6.70003C85.8998 11.6 86.4998 17.5 86.9998 23.3V23.7C89.0998 46.3 89.0998 64.3 87.0998 80.3C85.9998 88.6 82.4998 103.2 82.3998 103.8Z" fill="white"/>
<path d="M14.5 13.2001L17.3 12.4001L92.5 0.100063C92.5 0.100063 99 -1.79994 102 11.6001L24.7 24.4001C24.6 24.4001 23.1 19.4001 22.8 18.8001C22 17.0001 20.6 15.4001 19 14.2001C17.5 13.3001 16.1 13.4001 14.5 13.2001Z" fill="#83E59C"/>
<path d="M101.721 10.5839L24.4502 23.8257L24.6529 25.0084L101.924 11.7666L101.721 10.5839Z" fill="#137F3A"/>
<path d="M11.5998 207.1C11.4998 207.1 11.4998 207.1 11.3998 207.1C10.0998 207 9.19981 205.9 9.29981 204.6L23.2998 34.5C23.3998 33.2 24.4998 32.3 25.7998 32.4C27.0998 32.5 27.9998 33.6 27.8998 34.9L13.8998 205C13.7998 206.1 12.7998 207.1 11.5998 207.1Z" fill="#14662A"/>
<path d="M50.5 246.8C49.2 246.8 48.2 245.8 48.2 244.5L45.5 138.2C45.5 136.9 46.5 135.8 47.8 135.8C49.1 135.8 50.2 136.8 50.2 138.1L52.9 244.4C52.9 245.7 51.9 246.7 50.5 246.8C50.6 246.8 50.6 246.8 50.5 246.8Z" fill="#14662A"/>
<path d="M127.6 222.6C126.5 222.6 125.5 221.8 125.3 220.7L108.2 125.3C108 124 108.8 122.8 110.1 122.6C111.4 122.4 112.6 123.2 112.8 124.5L129.9 219.9C130.1 221.2 129.3 222.4 128 222.6C127.9 222.6 127.7 222.6 127.6 222.6Z" fill="#14662A"/>
<path d="M24.5999 24.4001L40.7999 140.1L120 123L101.8 11.2001L24.5999 24.4001Z" fill="#83E59C"/>
<path d="M24.4999 24.5001C23.5999 20.5001 21.5999 14.7001 17.3999 13.4001C13.6999 12.3001 10.2999 15.2001 8.5999 18.2001C5.5999 23.8001 6.1999 30.5001 6.7999 36.4001V36.8001C8.8999 59.2001 8.8999 77.1001 6.8999 92.9001C5.8999 101 2.4999 115.3 2.3999 115.4L4.8999 116.7C4.9999 116.1 8.5999 101.5 9.5999 93.2001C11.5999 77.2001 11.5999 59.2001 9.4999 36.6001V36.2001C8.9999 30.4001 8.3999 24.4001 10.9999 19.6001C12.1999 17.4001 14.4999 15.5001 16.5999 16.1001C22.5999 17.9001 22.6999 30.6001 23.3999 35.9001C24.6999 45.0001 25.9999 54.1001 27.2999 63.2001C28.8999 74.3001 30.4999 85.5001 32.0999 96.6001C33.4999 106.2 34.8999 115.8 36.1999 125.4C36.7999 129.9 37.1999 132.5 37.7999 137L37.9999 139.1L40.4999 140.2C39.9999 136.5 39.4999 132.8 38.8999 129.1C37.5999 120.2 36.3999 111.2 35.0999 102.3C33.5999 91.4001 31.9999 80.5001 30.4999 69.5001C29.0999 59.8001 27.7999 50.2001 26.3999 40.5001C25.6999 35.4001 25.1999 30.2001 24.1999 25.1001C24.5999 24.9001 24.5999 24.7001 24.4999 24.5001Z" fill="#137F3A"/>
<path d="M34 57.6C34.2 57.4 34.4 57.4 34.6 57.4C34.7 57.4 34.7 57.5 34.7 57.5L34.6 57.7C34.4 57.7 34.2 57.7 34 57.6Z" fill="#16994A"/>
<path d="M70.1999 60.5C69.8999 60.7 69.5999 60.9 69.3999 61C68.7999 61.4 68.1999 61.8 67.5999 62.2C66.5999 62.9 65.5999 63.6 64.4999 64.3C64.3999 64.4 64.2999 64.5 64.1999 64.6C64.0999 64.7 63.9999 64.8 63.8999 64.8C63.7999 64.8 63.7999 64.6 63.6999 64.5C63.4999 63.4 63.2999 62.4 63.0999 61.3C63.0999 61.1 62.9999 61 62.9999 60.8H62.8999C62.8999 61 62.8999 61.2 62.8999 61.3C63.1999 62.9 63.4999 64.6 63.7999 66.2C63.9999 67.1 64.1999 67.9 64.2999 68.8C64.4999 69.7 64.6999 70.6 64.7999 71.5C64.8999 72 64.9999 72.5 65.0999 73.1C65.0999 73.3 64.9999 73.4 64.7999 73.4C64.5999 73.4 64.4999 73.5 64.5999 73.7C64.6999 74.5 64.8999 75.4 64.9999 76.2C64.9999 76.4 64.9999 76.6 64.9999 76.8C64.8999 76.4 64.7999 76.1 64.6999 75.7C64.5999 75.1 64.4999 74.6 64.3999 74C64.3999 73.9 64.3999 73.8 64.3999 73.7C64.3999 73.5 64.2999 73.4 64.0999 73.5C63.7999 73.6 63.6999 73.5 63.5999 73.1C63.4999 72.3 63.2999 71.4 63.1999 70.6C62.8999 69.2 62.6999 67.8 62.3999 66.5C62.1999 65.4 61.8999 64.2 61.6999 63.1C61.5999 62.4 61.3999 61.8 61.2999 61.1C61.2999 61 61.1999 60.8 61.0999 60.7H60.9999C60.9999 60.8 60.9999 61 60.9999 61.1C61.1999 62.2 61.3999 63.2 61.6999 64.3C61.7999 64.6 61.5999 64.9 61.1999 65C60.1999 65.2 59.1999 65.4 58.1999 65.6C57.9999 65.6 57.7999 65.7 57.4999 65.8C57.4999 66 57.4999 66.2 57.5999 66.4C57.8999 67.9 58.1999 69.5 58.4999 71C58.6999 72 58.8999 73 59.0999 74C59.1999 74.4 59.0999 74.5 58.6999 74.5C58.1999 74.6 58.1999 74.6 58.2999 75.1C58.3999 75.5 58.3999 75.8 58.3999 76.2C58.4999 76.6 58.5999 77 58.6999 77.4C58.7999 77.7 58.7999 78 58.8999 78.4H58.7999C58.6999 78.2 58.6999 78.1 58.5999 77.9C58.4999 77 58.2999 76.2 58.1999 75.3C58.0999 74.6 58.0999 74.6 57.2999 74.7C56.7999 74.8 56.6999 74.7 56.6999 74.3C56.4999 73.2 56.2999 72 56.0999 70.9C55.8999 69.8 55.6999 68.8 55.4999 67.7C55.2999 66.9 55.0999 66.1 54.9999 65.3C54.7999 64.1 54.4999 63 54.5999 61.8C54.6999 60.9 54.5999 60.1 54.4999 59.2C54.4999 59 54.3999 58.9 54.1999 59C53.2999 59.2 52.3999 59.4 51.4999 59.5C51.1999 59.6 51.0999 59.7 51.1999 60C51.3999 60.6 51.6999 61.2 51.8999 61.8C51.9999 62.3 52.0999 62.8 52.1999 63.3C52.4999 65 52.8999 66.7 53.1999 68.4C53.4999 69.8 53.7999 71.3 53.9999 72.7C54.0999 73.4 54.2999 74.1 54.4999 74.8C54.5999 75.3 54.3999 75.4 53.9999 75.5C53.4999 75.5 53.4999 75.5 53.5999 76C53.5999 76.1 53.5999 76.3 53.5999 76.4C53.4999 76.2 53.4999 76.1 53.4999 76C53.3999 75.5 53.3999 75.5 52.7999 75.6C52.5999 75.6 52.2999 75.8 52.0999 75.6C51.9999 75.5 51.8999 75.4 51.8999 75.3C51.5999 73.8 51.2999 72.2 50.9999 70.7C50.5999 68.8 50.2999 66.8 49.8999 64.9C49.7999 64.3 49.6999 63.7 49.4999 63.2C49.1999 62.4 49.1999 61.6 49.0999 60.8C49.0999 60.3 48.8999 60.2 48.3999 60.3C47.5999 60.4 46.7999 60.6 45.9999 60.7C45.7999 60.7 45.6999 60.7 45.4999 60.8C45.3999 60.8 45.3999 60.9 45.3999 60.9L45.4999 61C45.5999 61.1 45.6999 61.2 45.6999 61.3C45.8999 62.4 46.0999 63.5 46.2999 64.6C46.4999 65.7 46.7999 66.8 46.9999 67.8C47.2999 69.3 47.5999 70.8 47.8999 72.3C48.0999 73.3 48.2999 74.3 48.4999 75.3C48.5999 75.6 48.5999 75.8 48.6999 76.1C48.7999 76.3 48.6999 76.5 48.4999 76.5C48.2999 76.5 48.0999 76.6 47.7999 76.6C47.8999 77.8 48.1999 79.1 48.3999 80.3C48.2999 80.3 48.2999 80.3 48.1999 80.3C48.0999 79.6 47.8999 79 47.7999 78.3C47.6999 77.8 47.5999 77.4 47.5999 76.9C47.5999 76.7 47.4999 76.5 47.1999 76.6C47.0999 76.6 46.9999 76.7 46.8999 76.7C46.3999 76.8 46.1999 76.8 46.0999 76.2C45.9999 75.4 45.7999 74.5 45.6999 73.7C45.5999 72.9 45.3999 72.2 45.1999 71.4C44.8999 69.8 44.5999 68.1 44.1999 66.5C43.8999 65.2 43.6999 63.9 43.3999 62.6C43.1999 61.8 43.0999 61 42.8999 60.1C42.8999 59.9 42.8999 59.8 43.0999 59.7C43.3999 59.6 43.3999 59.5 43.3999 59.2C43.2999 58.5 43.2999 58.5 42.5999 58.7C41.7999 58.8 41.0999 59 40.2999 59.1C39.8999 59.2 39.7999 59.1 39.6999 58.7C39.5999 58.1 39.4999 57.4 39.3999 56.8C39.2999 56.5 39.1999 56.4 38.7999 56.5C37.9999 56.7 37.0999 56.9 36.1999 57C35.9999 57 35.5999 57.2 35.5999 56.9C35.4999 56.6 35.8999 56.6 36.1999 56.6C37.0999 56.4 37.9999 56.3 38.8999 56.1C39.0999 56.1 39.1999 55.9 39.1999 55.7C39.0999 55 38.8999 54.3 38.7999 53.6C38.7999 53.4 38.7999 53.2 38.7999 53C38.7999 53 38.8999 52.9 38.9999 52.9C39.9999 52.7 40.8999 52.5 41.8999 52.4C42.1999 52.4 42.2999 52.2 42.1999 52C42.0999 51.7 42.0999 51.5 41.9999 51.2C41.8999 50.8 41.9999 50.4 42.1999 50.1C42.0999 50 41.9999 50 41.7999 49.9C42.0999 49.9 42.1999 49.7 42.3999 49.9H42.4999C43.7999 49.6 45.1999 49.4 46.4999 49.1C46.7999 49 47.0999 48.9 47.2999 49.3C47.3999 49.4 47.6999 49.5 47.7999 49.4C47.9999 49.3 48.1999 49.1 48.2999 49C48.3999 48.8 48.4999 48.6 48.6999 48.6C49.1999 48.5 49.6999 48.4 50.1999 48.3C50.8999 48.2 51.5999 48 52.2999 47.9C52.4999 47.9 52.6999 48 52.7999 48.1C52.9999 48.3 53.2999 48.5 53.5999 48.3C53.7999 48.2 53.9999 48.1 53.8999 47.8C53.6999 47 53.5999 46.3 53.4999 45.5C53.2999 44.3 53.0999 43.1 52.8999 41.9C52.7999 41.6 52.7999 41.2 52.6999 40.9C52.5999 40.6 52.6999 40.5 52.9999 40.4C53.8999 40.2 54.8999 40 55.7999 39.8C56.2999 39.7 56.5999 39.8 56.6999 40.4C56.8999 41.4 57.0999 42.4 57.2999 43.4C57.3999 43.9 57.4999 44.3 57.5999 44.7C57.5999 44.8 57.6999 44.9 57.7999 44.9C58.1999 44.9 58.1999 44.8 58.2999 44.6C58.5999 44.8 58.8999 44.7 59.0999 44.6C59.1999 44.6 59.1999 44.4 59.1999 44.4C59.0999 43.8 58.9999 43.3 58.8999 42.7C58.6999 41.7 58.4999 40.8 58.2999 39.8C58.1999 39.5 58.2999 39.4 58.5999 39.5C59.3999 39.7 60.1999 39.8 60.9999 40C61.5999 40.1 62.1999 40.2 62.8999 40.3C63.5999 40.4 64.3999 40.5 65.0999 40.7C65.3999 40.8 65.6999 40.9 65.9999 41C66.2999 41.1 66.6999 41.1 66.9999 41.1C68.0999 41.3 69.1999 41.5 70.2999 41.7H70.3999C71.1999 41.8 71.1999 41.8 71.2999 42.6C71.2999 42.9 71.2999 43.2 71.3999 43.5C71.4999 43.9 71.5999 44.3 71.7999 44.6C71.9999 44.8 72.1999 45.1 72.6999 45C73.2999 44.8 73.8999 44.8 74.4999 44.7C74.7999 44.7 75.0999 44.5 75.2999 44.3C75.3999 44.1 75.3999 43.9 75.3999 43.7C75.3999 43.2 75.2999 43.2 75.7999 43.1C76.8999 42.9 77.8999 42.7 78.9999 42.5C79.5999 42.4 80.1999 42.2 80.7999 42.1C81.3999 42 81.8999 41.9 82.4999 41.8C82.7999 41.7 83.0999 41.7 83.3999 41.6C83.4999 41.6 83.6999 41.6 83.7999 41.7C84.0999 41.9 84.4999 42.1 84.7999 42.4C84.8999 42.4 84.8999 42.5 84.9999 42.6C85.1999 43.9 85.3999 45.2 85.6999 46.5C85.6999 46.8 85.8999 46.9 86.1999 46.8C86.3999 46.7 86.6999 46.7 86.8999 46.7C87.1999 46.7 87.3999 46.5 87.5999 46.2C87.7999 45.9 87.8999 45.6 88.1999 45.4C88.4999 45.2 88.7999 45.2 89.0999 45.1C89.6999 45 90.1999 44.9 90.7999 44.8C91.0999 44.7 91.3999 44.5 91.5999 44.3C91.8999 43.8 92.1999 43.6 92.7999 43.5C94.1999 43.3 95.5999 43 96.9999 42.7C97.1999 42.7 97.2999 42.6 97.3999 42.6C97.5999 42.6 97.6999 42.7 97.7999 42.8C97.6999 42.9 97.5999 43 97.4999 43.1C96.9999 43.2 96.3999 43.3 95.8999 43.4C95.0999 43.6 94.1999 43.7 93.3999 43.9C93.3999 43.9 93.3999 43.9 93.2999 44C93.3999 44.1 93.3999 44.1 93.4999 44.2C93.5999 44.3 93.7999 44.4 93.8999 44.5C93.9999 44.6 93.8999 44.7 93.9999 44.8C93.8999 44.8 93.7999 44.8 93.6999 44.8C93.3999 44.7 92.9999 44.5 92.6999 44.4C92.3999 44.3 92.1999 44.3 91.9999 44.6C91.8999 44.8 91.6999 45 91.4999 45.2C91.3999 45.3 91.2999 45.3 91.1999 45.3C90.4999 45.4 89.8999 45.6 89.1999 45.7C89.3999 46.1 89.5999 46.3 89.9999 46.2C90.1999 46.2 90.3999 46.1 90.5999 46.1C90.6999 46.1 90.9999 46.2 90.9999 46.3C91.0999 46.5 90.8999 46.6 90.7999 46.6C90.7999 46.6 90.6999 46.6 90.6999 46.7C90.9999 46.8 91.1999 47 91.4999 47.1C92.0999 47.3 92.5999 47.5 93.1999 47.6C93.2999 47.6 93.4999 47.6 93.5999 47.6C94.9999 47.3 96.4999 47.1 97.8999 46.8C98.2999 46.7 98.7999 46.6 99.1999 46.6C99.2999 46.6 99.5999 46.7 99.5999 46.7C99.6999 46.9 99.4999 47 99.2999 47C97.5999 47.3 95.9999 47.6 94.2999 48C94.1999 48 94.0999 48 93.9999 48.1C93.5999 48.2 93.1999 48.3 92.7999 48C92.1999 47.6 91.4999 47.6 90.6999 47.9C90.2999 48 89.7999 48.1 89.2999 48.2C89.0999 48.2 88.8999 48.2 88.7999 48.1C88.4999 47.9 88.1999 47.6 87.8999 47.5C87.6999 47.4 87.4999 47.4 87.1999 47.4C86.9999 47.4 86.6999 47.5 86.4999 47.5C86.0999 47.6 86.0999 47.6 86.0999 48C86.2999 48.8 86.3999 49.6 86.5999 50.5C86.5999 50.6 86.5999 50.7 86.5999 50.8C86.5999 51 86.6999 51.2 86.9999 51.1C87.2999 51 87.3999 51.1 87.3999 51.4C87.5999 52.7 87.8999 53.9 88.0999 55.2C88.2999 56.1 88.3999 56.9 88.5999 57.8C88.6999 58.4 88.8999 59.1 88.9999 59.7C89.1999 60.7 89.3999 61.6 89.4999 62.6C89.5999 63.3 89.7999 64 89.8999 64.7C90.0999 65.8 90.3999 66.9 90.5999 68C90.5999 68.2 90.5999 68.3 90.3999 68.3C90.1999 68.4 89.8999 68.4 89.5999 68.5C89.8999 69.8 90.0999 71.2 90.3999 72.5C90.2999 72.6 90.0999 72.7 90.0999 72.4C89.9999 71.6 89.7999 70.7 89.6999 69.9C89.5999 69.5 89.4999 69 89.3999 68.6C89.3999 68.5 89.2999 68.5 89.1999 68.5C88.9999 68.5 88.6999 68.6 88.4999 68.6C87.9999 68.2 88.0999 67.6 87.9999 67C87.7999 65.9 87.5999 64.8 87.3999 63.7C87.0999 62.1 86.7999 60.6 86.4999 59C86.3999 58.3 86.1999 57.5 85.9999 56.8C85.8999 56.2 85.7999 55.7 85.6999 55.1C85.5999 54.7 85.4999 54.2 85.3999 53.8C85.3999 53.6 85.3999 53.5 85.3999 53.2C84.9999 53.3 84.4999 53.3 84.0999 53.4C83.6999 53.5 83.1999 53.6 82.7999 53.7C82.4999 53.7 82.3999 53.9 82.5999 54.1C82.8999 54.5 82.8999 54.9 82.9999 55.4C83.1999 56.5 83.3999 57.6 83.5999 58.6C83.7999 59.7 83.9999 60.8 84.1999 61.9C84.3999 63.1 84.6999 64.3 84.9999 65.4C85.1999 66.4 85.3999 67.5 85.5999 68.5C85.6999 68.8 85.3999 69.3 85.0999 69.3C84.8999 69.4 84.8999 69.5 84.8999 69.7C85.0999 70.8 85.2999 72 85.4999 73.1C85.4999 73.2 85.4999 73.3 85.4999 73.4C85.4999 73.3 85.3999 73.3 85.3999 73.2C85.1999 72.4 85.0999 71.5 84.9999 70.7C84.8999 70.3 84.8999 69.9 84.7999 69.5C84.7999 69.4 84.5999 69.4 84.4999 69.4C84.1999 69.4 83.8999 69.5 83.6999 69.3C83.5999 69.2 83.5999 69.1 83.5999 69C83.4999 68.4 83.3999 67.9 83.2999 67.3C83.0999 66.5 82.9999 65.7 82.7999 64.9C82.6999 64.4 82.5999 63.9 82.5999 63.5C82.4999 62.8 82.2999 62.1 82.1999 61.4C81.9999 60.4 81.7999 59.4 81.5999 58.4C81.3999 57.5 81.1999 56.6 81.0999 55.7C80.9999 55.3 81.0999 54.8 81.0999 54.3C81.0999 54.2 81.0999 54.1 81.0999 53.9C80.2999 54.1 79.4999 54.2 78.6999 54.4C77.9999 54.5 77.8999 54.5 77.7999 53.7C77.6999 53 77.4999 52.9 76.7999 53C76.5999 53 76.3999 53 76.1999 53.1C75.5999 53.2 75.0999 53.4 74.4999 53.4C74.0999 53.5 74.0999 53.8 73.9999 54.1C73.9999 54.3 73.9999 54.4 74.0999 54.6C74.0999 54.7 74.1999 54.7 74.2999 54.7C74.5999 54.7 74.8999 54.7 75.0999 54.7C75.3999 54.7 75.4999 54.8 75.5999 55.1C75.7999 55.6 75.9999 56.1 76.2999 56.6C76.5999 57.1 76.6999 57.7 76.7999 58.3C77.0999 59.6 77.2999 60.8 77.4999 62.1C77.7999 63.7 78.0999 65.2 78.3999 66.8C78.5999 67.9 78.7999 68.9 78.9999 70C79.0999 70.4 78.8999 70.6 78.5999 70.6C78.4999 70.6 78.3999 70.7 78.2999 70.8C78.0999 70.8 77.8999 70.7 77.7999 70.7C77.4999 70.7 77.2999 70.6 77.2999 70.3C76.9999 68.7 76.5999 67 76.2999 65.4C75.8999 63.4 75.4999 61.3 75.0999 59.3C74.9999 58.7 74.8999 58.2 74.6999 57.7C74.6999 57.5 74.5999 57.5 74.3999 57.6C73.8999 57.9 73.2999 58.2 72.7999 58.6C72.1999 59 71.4999 59.5 70.8999 59.9C70.6999 60 70.6999 60.2 70.8999 60.3C71.0999 60.4 71.3999 60.5 71.5999 60.6C71.6999 60.6 71.6999 60.7 71.7999 60.8C71.9999 62 72.1999 63.2 72.3999 64.4C72.5999 65.4 72.6999 66.5 72.8999 67.5C73.0999 68.3 73.1999 69.1 73.3999 69.9C73.4999 70.4 73.5999 70.9 73.6999 71.4C73.6999 71.6 73.5999 71.8 73.3999 71.8C72.7999 71.9 72.1999 72 71.5999 72.1C71.1999 72.2 71.1999 72.1 71.0999 71.7C70.8999 70.4 70.5999 69.2 70.3999 67.9C70.1999 66.8 69.9999 65.7 69.6999 64.7C69.5999 64 69.3999 63.4 69.2999 62.7C69.2999 62.6 69.2999 62.5 69.3999 62.5C69.5999 62 69.8999 61.4 70.0999 60.9C70.2999 60.7 70.2999 60.6 70.1999 60.5ZM60.0999 40.8C60.0999 40.9 60.0999 40.9 60.0999 41C60.1999 41.8 60.3999 42.5 60.4999 43.3C60.5999 44 60.7999 44.6 60.8999 45.3C60.8999 45.4 60.7999 45.6 60.6999 45.6C60.3999 45.7 60.3999 45.9 60.4999 46.1C60.4999 46.3 60.5999 46.5 60.5999 46.8C60.6999 47.5 60.8999 48.2 60.9999 48.9C61.1999 49.9 61.3999 50.9 61.4999 51.9C61.4999 52 61.6999 52.1 61.7999 52.1C61.9999 52.1 62.2999 52 62.4999 52C62.5999 52 62.6999 52 62.7999 52.1C62.6999 52.2 62.6999 52.3 62.5999 52.4C62.4999 52.5 62.2999 52.4 62.1999 52.5C61.6999 52.6 61.6999 52.6 61.7999 53.1C61.8999 53.7 61.9999 54.4 62.1999 55C62.2999 55.7 62.4999 56.4 62.6999 57.1C62.8999 58.1 62.9999 59.1 63.1999 60C63.3999 61.3 63.6999 62.5 63.9999 63.8C64.0999 64.1 64.1999 64.2 64.3999 64C65.0999 63.6 65.6999 63.1 66.3999 62.7C66.9999 62.3 67.5999 61.9 68.1999 61.5C68.6999 61.2 69.0999 60.8 69.5999 60.5C70.4999 59.9 71.4999 59.3 72.3999 58.6C72.8999 58.3 73.2999 57.9 73.7999 57.6C74.1999 57.4 74.2999 57.1 74.1999 56.7C73.8999 55.2 73.5999 53.7 73.2999 52.2C73.1999 51.6 73.0999 51 72.8999 50.3C72.1999 50.4 71.4999 50.6 70.7999 50.7C69.9999 50.9 69.1999 51 68.2999 51.2C68.1999 51.2 68.0999 51.1 67.9999 51.1C68.0999 51 68.0999 50.9 68.1999 50.9C68.3999 50.8 68.5999 50.8 68.6999 50.8C69.5999 50.6 70.4999 50.5 71.3999 50.3C71.7999 50.2 72.1999 50.1 72.5999 50.1C72.3999 49 72.1999 47.9 71.9999 46.8C71.9999 46.7 71.8999 46.6 71.6999 46.5C71.2999 46.3 71.1999 46 71.0999 45.7C70.9999 45.5 70.9999 45.2 70.9999 44.9C70.8999 44.3 70.7999 43.7 70.6999 43.2C70.6999 43.1 70.5999 43 70.4999 42.9C69.5999 42.7 68.7999 42.6 67.8999 42.4C66.9999 42.2 66.0999 42.1 65.1999 41.9C64.2999 41.7 63.2999 41.6 62.3999 41.4C61.9999 41.3 61.6999 41.3 61.2999 41.2C61.0999 40.9 60.5999 40.9 60.0999 40.8ZM78.8999 43.8C78.9999 43.9 79.1999 44.1 79.2999 44.2C79.0999 44.3 78.9999 44.4 78.7999 44.4C78.0999 44.6 77.3999 44.8 76.7999 44.9C76.6999 44.9 76.6999 45 76.6999 45.1C76.7999 45.6 76.7999 46.1 76.8999 46.6C76.9999 47.3 77.1999 47.9 77.2999 48.6C77.2999 48.8 77.3999 48.9 77.5999 48.8C77.8999 48.7 78.2999 48.7 78.5999 48.6C78.6999 48.6 78.7999 48.6 78.8999 48.7C78.8999 48.8 78.8999 48.9 78.7999 49C78.6999 49.1 78.5999 49.1 78.4999 49.1C78.0999 49.1 77.7999 49.2 77.3999 49.2C77.4999 49.6 77.4999 49.9 77.5999 50.3C77.7999 51.2 77.9999 52.2 78.1999 53.1C78.1999 53.4 78.2999 53.4 78.4999 53.3C78.8999 53.2 79.1999 53.1 79.5999 53.1C79.8999 53 80.1999 53 80.3999 52.9C80.4999 52.9 80.5999 53 80.5999 53.1C80.5999 53.2 80.4999 53.3 80.3999 53.3C79.7999 53.4 79.1999 53.5 78.5999 53.7C78.4999 53.7 78.3999 53.7 78.3999 53.8C78.3999 53.8 78.2999 53.9 78.2999 54C78.2999 54 78.3999 54.1 78.4999 54.1C79.4999 53.9 80.4999 53.7 81.3999 53.5C81.4999 53.5 81.4999 53.4 81.4999 53.3C81.4999 53.2 81.3999 53.2 81.3999 53.1C81.2999 53 81.1999 52.9 81.1999 52.8C81.1999 52.7 81.2999 52.6 81.3999 52.6C82.3999 52.4 83.2999 52.2 84.2999 52C84.3999 52 84.5999 52.1 84.6999 52.2C84.5999 52.3 84.4999 52.4 84.3999 52.4C83.8999 52.5 83.2999 52.6 82.6999 52.7C82.4999 52.7 82.2999 52.8 82.0999 52.8C82.1999 53.1 82.2999 53.2 82.5999 53.1C83.2999 53 83.8999 52.8 84.5999 52.7C84.8999 52.6 85.1999 52.5 85.6999 52.4C85.5999 52.2 85.4999 52.1 85.3999 52C85.3999 51.9 85.2999 51.9 85.1999 51.9C85.1999 51.8 85.2999 51.8 85.2999 51.7C85.3999 51.6 85.3999 51.4 85.3999 51.3C85.3999 51 85.2999 50.7 85.1999 50.4C85.0999 49.9 84.9999 49.5 84.9999 49C84.9999 48.8 84.8999 48.6 84.5999 48.7C84.4999 48.7 84.3999 48.7 84.2999 48.6C84.3999 48.5 84.4999 48.5 84.5999 48.4C84.6999 48.3 84.7999 48.3 84.7999 48.2C84.7999 48 84.6999 47.7 84.6999 47.5C84.2999 47.6 83.8999 47.7 83.4999 47.7C83.3999 47.7 83.3999 47.8 83.3999 47.8C83.3999 47.8 83.2999 47.9 83.2999 48C83.2999 47.9 83.1999 47.9 83.1999 47.8C83.1999 47.7 83.0999 47.5 83.0999 47.4C83.0999 47.3 83.1999 47.3 83.2999 47.2C83.6999 47.2 84.1999 47.1 84.5999 47.1C84.5999 46.9 84.5999 46.7 84.4999 46.5C84.4999 46.3 84.4999 46.1 84.1999 46.1C84.1999 46.1 84.0999 45.9 84.1999 45.9C84.3999 45.8 84.3999 45.5 84.3999 45.4C84.2999 44.8 84.1999 44.2 83.9999 43.6C83.8999 43.3 83.8999 43.1 83.7999 42.8C83.5999 42.9 83.4999 42.9 83.2999 43C82.8999 43.1 82.3999 43.2 81.9999 43.3C81.3999 43.4 80.7999 43.6 80.1999 43.7C79.8999 43.8 79.8999 43.6 79.8999 43.4C79.8999 43.3 79.8999 43.3 79.8999 43.2C79.7999 43.6 79.2999 43.7 78.8999 43.8ZM43.4999 56C43.5999 56.4 43.5999 56.7 43.6999 57C43.8999 58 44.0999 59.1 44.3999 60.1C44.4999 60.5 44.7999 60.7 45.0999 60.6C46.2999 60.3 47.5999 60.1 48.7999 59.8C48.9999 59.8 49.0999 59.6 49.0999 59.4C48.9999 58.8 48.8999 58.2 48.7999 57.7C48.6999 56.9 48.4999 56.2 48.2999 55.4C48.2999 55.2 48.0999 55.1 47.8999 55.2C47.7999 55.2 47.6999 55.1 47.5999 55.1C47.6999 55 47.7999 54.9 47.7999 54.9C48.0999 54.8 48.0999 54.7 48.0999 54.4C47.9999 53.9 47.8999 53.4 47.7999 52.9C47.5999 52.1 47.4999 51.3 47.2999 50.5C47.2999 50.3 47.1999 50.2 46.9999 50.3C46.4999 50.4 45.9999 50.5 45.4999 50.6C44.8999 50.7 44.2999 50.9 43.6999 51C43.1999 51.1 42.9999 51.3 43.0999 51.8C43.1999 52.2 43.2999 52.7 43.3999 53.1C43.4999 53.5 43.3999 53.6 43.0999 53.8C42.9999 53.9 42.9999 54 42.9999 54.1C43.0999 54.5 43.1999 55 43.1999 55.4C43.1999 55.7 43.3999 55.8 43.6999 55.7C44.0999 55.6 44.5999 55.5 44.9999 55.4C45.1999 55.4 45.3999 55.4 45.3999 55.6C45.3999 55.7 45.1999 55.8 45.0999 55.8C44.6999 55.8 44.0999 55.9 43.4999 56ZM59.6999 64.9C59.6999 64.9 59.6999 65 59.6999 64.9C60.1999 64.8 60.5999 64.7 61.0999 64.6C61.2999 64.6 61.2999 64.5 61.2999 64.3C61.1999 63.7 61.0999 63.1 60.9999 62.5C60.7999 61.6 60.6999 60.8 60.4999 59.9C60.1999 58.4 59.8999 57 59.6999 55.5C59.5999 54.7 59.3999 54 59.1999 53.2C59.1999 53 59.0999 52.9 58.8999 52.9C57.9999 53.1 57.0999 53.3 56.1999 53.4C55.8999 53.4 55.8999 53.6 55.8999 53.8C55.9999 54.5 56.0999 55.2 56.2999 56C56.4999 57.1 56.6999 58.2 56.8999 59.3C57.0999 60.2 57.1999 61 57.3999 61.9C57.5999 62.9 57.7999 64 57.9999 65C57.9999 65.2 58.1999 65.3 58.3999 65.3C58.7999 65.1 59.1999 65 59.6999 64.9ZM51.1999 59.3C52.2999 59.1 53.3999 58.9 54.4999 58.7C54.6999 58.7 54.6999 58.5 54.6999 58.3C54.4999 57 54.1999 55.7 53.9999 54.3C53.8999 53.9 53.8999 53.9 53.4999 54C52.7999 54.1 52.0999 54.3 51.3999 54.4C51.2999 54.4 51.1999 54.3 51.0999 54.3C51.1999 54.2 51.2999 54.1 51.3999 54.1C51.4999 54.1 51.5999 54.1 51.5999 54.1C52.1999 54 52.8999 53.9 53.4999 53.7C53.6999 53.7 53.7999 53.6 53.7999 53.3C53.6999 52.6 53.5999 52 53.3999 51.3C53.2999 50.6 53.0999 49.9 52.9999 49.2C52.9999 49.1 52.7999 49 52.7999 49C51.8999 49.1 50.8999 49.3 49.9999 49.5C49.6999 49.6 49.4999 49.8 49.5999 50.1C49.5999 50.5 49.6999 50.8 49.7999 51.2C49.9999 52.2 50.1999 53.2 50.3999 54.3C50.5999 55.4 50.7999 56.6 50.9999 57.7C50.8999 58.2 51.0999 58.7 51.1999 59.3ZM57.4999 52.9C57.9999 52.8 58.3999 52.8 58.8999 52.7C58.9999 52.7 59.0999 52.5 59.0999 52.5C58.8999 51.7 58.7999 50.8 58.5999 50C58.3999 49.1 58.2999 48.3 58.0999 47.4C57.9999 46.9 58.0999 46.2 57.3999 46C57.3999 46 57.2999 45.9 57.2999 45.8C57.0999 44.8 56.9999 43.8 56.7999 42.8C56.6999 42.3 56.5999 41.8 56.4999 41.3C56.4999 41.2 56.2999 41.1 56.2999 41.1C55.7999 41.2 55.2999 41.3 54.7999 41.3C54.0999 41.4 54.0999 41.5 54.1999 42.2C54.1999 42.4 54.1999 42.6 54.2999 42.7C54.5999 44.3 54.8999 46 55.1999 47.6C55.1999 47.8 55.2999 48.1 55.2999 48.4C55.1999 48.8 55.1999 49.1 55.2999 49.5C55.5999 50.7 55.6999 52 55.8999 53.2C55.8999 53.4 55.9999 53.5 56.1999 53.4C56.4999 53.1 56.9999 53 57.4999 52.9ZM54.1999 75.1C53.9999 73.9 53.7999 72.8 53.5999 71.6C53.3999 70.5 53.1999 69.4 52.9999 68.3C52.8999 67.6 52.6999 66.8 52.5999 66.1C52.3999 65.2 52.1999 64.2 51.9999 63.3C51.7999 62.6 51.5999 61.8 51.2999 61.1C51.2999 61 51.1999 61 51.0999 61C50.6999 61.1 50.2999 61.1 49.8999 61.2C49.7999 61.2 49.6999 61.4 49.6999 61.4C49.7999 62 49.7999 62.6 49.8999 63.1C50.0999 64.4 50.3999 65.7 50.6999 67.1C50.8999 68.3 51.1999 69.5 51.3999 70.7C51.5999 71.6 51.7999 72.5 51.9999 73.4C52.0999 73.9 52.1999 74.4 52.2999 74.9C52.3999 75.3 52.3999 75.3 52.8999 75.2C52.9999 75.2 53.1999 75 53.1999 75C53.1999 74.7 53.0999 74.5 52.8999 74.2C52.7999 74 52.6999 73.9 52.7999 73.7C52.8999 73.6 53.0999 73.6 53.1999 73.6C53.3999 73.7 53.3999 73.9 53.2999 74.1C53.1999 74.3 53.2999 74.6 53.2999 74.9C53.5999 75.2 53.8999 75.2 54.1999 75.1C54.0999 75.2 54.0999 75.1 54.1999 75.1ZM46.4999 74.8C46.5999 75.4 46.7999 75.9 46.8999 76.4C46.8999 76.5 46.9999 76.6 47.0999 76.5C47.2999 76.5 47.4999 76.4 47.6999 76.3C47.6999 76.3 47.5999 76 47.5999 75.9V75.8C47.4999 75.7 47.4999 75.6 47.3999 75.5C47.0999 75.4 47.1999 75.2 47.1999 75.1C47.2999 74.8 47.5999 74.9 47.6999 75C47.8999 75 47.9999 75.3 47.8999 75.4C47.6999 75.7 47.7999 75.9 47.7999 76.2C47.7999 76.4 47.8999 76.5 48.0999 76.4C48.2999 76.4 48.2999 76.3 48.2999 76.1C48.1999 75.3 48.0999 74.5 47.8999 73.7C47.6999 72.6 47.4999 71.5 47.1999 70.4C46.9999 69.2 46.7999 68 46.4999 66.8C46.3999 66 46.1999 65.2 45.9999 64.4C45.7999 63.6 45.6999 62.8 45.4999 62C45.4999 61.9 45.3999 61.8 45.2999 61.8C44.8999 61.8 44.4999 61.9 44.0999 61.9C43.8999 61.9 43.7999 62 43.7999 62.3C43.8999 62.9 43.9999 63.6 44.0999 64.2C44.3999 65.8 44.6999 67.4 45.0999 69C45.2999 70.1 45.4999 71.2 45.6999 72.3C46.1999 73.2 46.2999 74 46.4999 74.8ZM87.7999 52.9C87.6999 52.9 87.6999 52.9 87.5999 52.9C87.1999 53.4 86.8999 54 86.4999 54.5C86.4999 54.5 86.4999 54.6 86.4999 54.7C86.4999 54.9 86.5999 55.2 86.6999 55.4C86.8999 56.3 87.0999 57.3 87.1999 58.2C87.3999 59.2 87.5999 60.3 87.7999 61.3C88.0999 62.7 88.2999 64.1 88.5999 65.5C88.7999 66.3 88.8999 67.1 89.0999 67.8C89.0999 67.9 89.1999 68 89.2999 68C89.4999 68 89.6999 67.9 89.6999 67.8C89.6999 67.5 89.8999 67.2 89.4999 66.9C89.3999 66.8 89.4999 66.6 89.4999 66.5C89.5999 66.5 89.7999 66.4 89.8999 66.5C89.9999 66.5 89.9999 66.7 89.9999 66.9C89.9999 67.2 89.9999 67.5 89.9999 67.8C90.6999 67.8 90.6999 67.8 90.5999 67.3C90.3999 66.3 90.1999 65.3 89.9999 64.3C89.8999 63.6 89.6999 62.9 89.5999 62.2C89.3999 61.1 89.1999 60.1 88.9999 59C88.6999 57.7 88.4999 56.3 88.1999 55C87.9999 54.3 87.8999 53.6 87.7999 52.9ZM58.4999 73C58.3999 72.6 58.3999 72.3 58.2999 72C58.1999 71.3 58.0999 70.6 57.8999 69.8C57.6999 68.7 57.4999 67.6 57.2999 66.6C57.0999 65.4 56.8999 64.1 56.5999 62.9C56.4999 62.2 56.2999 61.5 56.0999 60.8C55.9999 60.1 55.9999 60.1 55.2999 60.2C55.0999 60.2 55.0999 60.3 55.0999 60.5C55.0999 60.8 55.0999 61.2 55.0999 61.5C55.0999 62.4 55.0999 63.2 55.1999 64.1C55.3999 65.4 55.6999 66.7 55.9999 68C56.1999 68.9 56.3999 69.9 56.4999 70.8C56.6999 71.9 56.8999 73 57.1999 74.2C57.1999 74.4 57.3999 74.5 57.5999 74.4C57.6999 74.4 57.8999 74.3 58.0999 74.2C57.9999 73.9 57.7999 73.7 57.6999 73.4C57.6999 73.3 57.6999 73.1 57.6999 73C57.8999 72.8 58.1999 72.8 58.4999 73ZM81.6999 56.1C81.7999 56.6 81.8999 57.1 81.9999 57.6C82.3999 59.4 82.6999 61.2 83.0999 63.1C83.3999 64.7 83.6999 66.3 83.9999 68C84.0999 68.3 84.0999 68.6 84.1999 68.9C84.1999 69 84.3999 69.1 84.4999 69.1C84.6999 69.1 84.8999 69 84.8999 68.9C84.9999 68.7 84.7999 68.3 84.5999 68.1C84.4999 68 84.3999 67.8 84.3999 67.7C84.4999 67.6 84.5999 67.4 84.7999 67.4C84.8999 67.4 85.0999 67.5 85.1999 67.6C85.1999 67.6 85.2999 67.8 85.1999 67.8C84.8999 68 84.9999 68.3 85.0999 68.6C85.0999 68.7 85.1999 68.8 85.2999 68.8C85.4999 68.8 85.5999 68.7 85.4999 68.5C85.3999 68 85.2999 67.4 85.1999 66.8C84.9999 65.6 84.6999 64.5 84.4999 63.3C84.3999 62.7 84.2999 62.1 84.0999 61.4C83.9999 60.8 83.8999 60.2 83.6999 59.6C83.3999 58.4 83.1999 57.2 82.8999 56C82.8999 55.8 82.7999 55.8 82.5999 55.8C82.4999 55.9 82.0999 56 81.6999 56.1ZM71.2999 70.2C71.3999 70.6 71.4999 70.9 71.5999 71.3C71.6999 71.5 71.7999 71.7 72.0999 71.6C72.4999 71.5 72.7999 71.4 73.1999 71.4C73.4999 71.3 73.4999 71.2 73.4999 70.9C73.3999 70.5 73.3999 70.2 73.2999 69.8C73.0999 68.9 72.9999 68 72.7999 67.2C72.6999 66.9 72.6999 66.6 72.6999 66.3C72.5999 65.9 72.5999 65.5 72.4999 65.1C72.3999 64.5 72.1999 63.8 72.0999 63.2C71.9999 62.6 71.7999 62 71.6999 61.4C71.6999 61.3 71.5999 61.2 71.5999 61.2C71.4999 61.3 71.3999 61.3 71.3999 61.4C71.2999 61.5 71.2999 61.6 71.2999 61.7C71.0999 62.4 70.7999 63 70.5999 63.7C70.5999 63.8 70.4999 63.8 70.4999 63.9C70.3999 64 70.2999 64.2 70.3999 64.3C70.4999 65.1 70.6999 65.8 70.7999 66.6C70.7999 67.7 70.9999 68.9 71.2999 70.2ZM60.4999 52.3C60.5999 52.3 60.6999 52.3 60.7999 52.3C60.8999 52.3 60.9999 52.3 61.0999 52.3C61.4999 52.2 61.4999 52.2 61.4999 51.8C61.2999 50.9 61.0999 50.1 60.9999 49.2C60.8999 48.6 60.7999 47.9 60.6999 47.3C60.5999 46.9 60.4999 46.4 60.3999 46C60.3999 45.8 60.2999 45.7 59.9999 45.7C59.4999 45.8 58.9999 45.9 58.4999 46C58.3999 46 58.2999 46.2 58.2999 46.2C58.3999 46.7 58.4999 47.2 58.5999 47.7C58.7999 48.7 58.9999 49.7 59.1999 50.6C59.2999 51.1 59.3999 51.7 59.4999 52.2C59.4999 52.4 59.5999 52.5 59.7999 52.4C59.9999 52.4 60.1999 52.4 60.4999 52.3ZM78.5999 68.9C78.5999 68.8 78.5999 68.7 78.5999 68.7C78.4999 68.1 78.3999 67.6 78.2999 67C78.0999 65.9 77.8999 64.8 77.6999 63.6C77.4999 62.4 77.1999 61.2 76.9999 60C76.8999 59.4 76.7999 58.8 76.5999 58.2C76.5999 58.1 76.3999 58 76.2999 58C76.0999 58 75.8999 58 75.6999 57.9C75.4999 57.9 75.3999 57.9 75.3999 58.2C75.5999 59.4 75.8999 60.5 76.0999 61.7C76.1999 62.1 76.2999 62.4 76.2999 62.8C76.3999 63.5 76.4999 64.3 76.6999 65C76.8999 65.8 76.9999 66.6 77.1999 67.4C77.3999 68.3 77.5999 69.2 77.7999 70.1C77.7999 70.2 77.9999 70.3 78.0999 70.3C78.1999 70.3 78.2999 70.2 78.2999 70.1C78.2999 69.9 78.2999 69.6 77.9999 69.4C77.7999 69.3 77.7999 69 77.9999 68.9C78.0999 68.9 78.2999 68.9 78.5999 68.9ZM61.6999 59.1C61.6999 59.1 61.6999 59 61.6999 59.1C61.8999 59 62.0999 59 62.3999 59C62.6999 59 62.7999 58.8 62.6999 58.5C62.5999 58 62.4999 57.4 62.2999 56.9C62.1999 56.3 62.0999 55.6 61.8999 55C61.7999 54.3 61.5999 53.6 61.4999 52.9C61.4999 52.8 61.2999 52.6 61.1999 52.6C60.6999 52.7 60.1999 52.8 59.5999 52.9C59.4999 52.9 59.3999 53.1 59.3999 53.2C59.4999 53.8 59.5999 54.3 59.6999 54.9C59.9999 56.3 60.1999 57.7 60.4999 59.1C60.4999 59.3 60.6999 59.4 60.8999 59.3C61.1999 59.1 61.4999 59.1 61.6999 59.1ZM76.3999 45.8C75.7999 45.9 75.1999 45.9 74.6999 46C74.0999 46.1 73.4999 46.3 72.7999 46.4C72.6999 46.4 72.5999 46.5 72.5999 46.6C72.5999 46.8 72.5999 46.9 72.6999 47.1C72.8999 47.9 72.9999 48.6 73.1999 49.4C73.2999 49.7 73.3999 49.8 73.5999 49.7C74.3999 49.5 75.1999 49.4 75.9999 49.2C76.2999 49.1 76.5999 49.1 76.9999 49C76.7999 47.9 76.5999 46.9 76.3999 45.8ZM77.7999 52.7C77.6999 52.4 77.6999 52.2 77.6999 51.9C77.4999 51.1 77.3999 50.4 77.2999 49.6C77.2999 49.4 77.1999 49.4 76.9999 49.4C75.8999 49.6 74.7999 49.9 73.6999 50.1C73.4999 50.1 73.4999 50.2 73.4999 50.4C73.6999 51.3 73.7999 52.2 73.9999 53.1C73.9999 53.2 74.0999 53.2 74.0999 53.3C74.2999 53.2 74.3999 53.2 74.4999 53.2C75.0999 53.1 75.6999 53 76.2999 53C76.7999 52.8 77.1999 52.4 77.7999 52.7ZM48.9999 57.1C49.0999 57.6 49.1999 58.1 49.2999 58.6C49.2999 58.8 49.3999 58.9 49.6999 58.8C49.8999 58.7 50.0999 58.7 50.2999 58.8C50.4999 58.8 50.5999 58.8 50.5999 58.6C50.5999 58.3 50.4999 57.9 50.4999 57.6C50.3999 56.8 50.1999 56 50.0999 55.2C49.9999 54.5 49.7999 53.7 49.6999 53C49.4999 52.2 49.3999 51.4 49.1999 50.6C49.0999 50.3 49.0999 50.2 48.7999 50.4C48.5999 50.5 48.4999 50.5 48.2999 50.5C47.9999 50.5 47.8999 50.6 47.9999 50.9C47.9999 51 47.9999 51 47.9999 51.1C48.0999 51.8 48.2999 52.6 48.3999 53.3C48.4999 54.6 48.7999 55.9 48.9999 57.1ZM64.5999 72C63.9999 68.3 63.1999 64.6 62.3999 60.9C62.2999 60.9 62.0999 60.9 61.9999 60.9C61.5999 60.9 61.4999 61 61.5999 61.4C61.8999 62.7 62.0999 63.9 62.3999 65.2C62.5999 66.3 62.7999 67.3 63.0999 68.4C63.2999 69.3 63.3999 70.1 63.5999 71C63.6999 71.4 63.7999 71.7 63.8999 72C64.1999 71.9 64.3999 71.9 64.5999 72ZM41.5999 56.3C41.1999 56.4 40.7999 56.5 40.3999 56.5C40.1999 56.5 40.0999 56.6 40.1999 56.8C40.2999 57.4 40.4999 58.1 40.5999 58.7C40.5999 58.9 40.6999 59 40.8999 58.9C41.6999 58.7 42.4999 58.6 43.2999 58.4C43.3999 58.4 43.4999 58.2 43.4999 58.2C43.3999 57.5 43.2999 56.9 43.0999 56.2C43.0999 56.1 42.8999 56 42.7999 56C42.3999 56.2 41.9999 56.2 41.5999 56.3ZM41.1999 53.9C41.1999 54 41.1999 54 41.1999 53.9C40.7999 54 40.3999 54.1 39.9999 54.2C39.8999 54.2 39.7999 54.4 39.7999 54.5C39.8999 55 39.9999 55.5 40.0999 56C40.0999 56.1 40.2999 56.2 40.3999 56.2C41.1999 56.1 41.9999 55.9 42.7999 55.7C42.9999 55.7 43.0999 55.6 43.0999 55.3C42.9999 54.8 42.8999 54.4 42.7999 53.9C42.7999 53.6 42.5999 53.6 42.3999 53.7C41.8999 53.8 41.4999 53.9 41.1999 53.9ZM53.4999 49.4C53.4999 49.5 53.4999 49.5 53.4999 49.6C53.6999 50.6 53.8999 51.7 54.0999 52.7C54.2999 53.6 54.2999 53.5 55.0999 53.4C55.3999 53.4 55.3999 53.2 55.3999 53C55.2999 52.2 55.0999 51.5 54.9999 50.7C54.8999 50.3 54.7999 49.8 54.7999 49.4C54.2999 49.4 53.8999 49.4 53.4999 49.4ZM54.5999 55.8C54.6999 56.3 54.7999 56.9 54.8999 57.4C54.8999 57.5 54.9999 57.7 55.1999 57.6C55.3999 57.5 55.6999 57.5 55.8999 57.5C56.1999 57.5 56.1999 57.4 56.1999 57.2C56.0999 56.8 55.9999 56.4 55.9999 56C55.8999 55.3 55.6999 54.5 55.5999 53.8C55.5999 53.6 55.4999 53.6 55.2999 53.6C55.0999 53.7 54.8999 53.7 54.6999 53.7C54.3999 53.7 54.3999 53.8 54.3999 54.1C54.3999 54.7 54.4999 55.3 54.5999 55.8ZM86.2999 52.1C86.3999 52.1 86.3999 52.1 86.4999 52.1C86.5999 51.9 86.7999 51.8 86.7999 51.6C86.6999 50.9 86.5999 50.1 86.3999 49.4C86.3999 49.3 86.2999 49.2 86.1999 49.1C86.0999 48.7 86.0999 48.2 86.0999 47.8C86.0999 47.7 85.8999 47.6 85.7999 47.7C85.6999 47.7 85.3999 47.7 85.4999 48C85.5999 48.3 85.5999 48.7 85.9999 48.9C86.1999 49 86.1999 49.1 85.9999 49.2C85.6999 49.2 85.7999 49.4 85.7999 49.6C85.8999 50 85.8999 50.3 85.9999 50.7C85.9999 51 86.0999 51.5 86.2999 52.1ZM85.6999 45.9C85.4999 45.9 85.3999 45.8 85.2999 45.8C85.2999 45.7 85.3999 45.6 85.3999 45.5C85.3999 45.4 85.4999 45.2 85.4999 45.1C85.3999 44.6 85.2999 44.1 85.1999 43.6C85.0999 43.2 84.8999 43.1 84.4999 43.1C84.5999 43.4 84.5999 43.7 84.6999 44C84.8999 44.7 84.7999 45.5 85.1999 46.1V46.2C85.1999 46.5 85.1999 46.8 85.2999 47.1C85.3999 47.3 85.5999 47.2 85.6999 47.2C85.7999 47.2 85.8999 47.1 85.8999 47C85.7999 46.7 85.6999 46.2 85.6999 45.9ZM90.8999 47.4C90.6999 46.8 89.3999 46.6 88.9999 47.1C89.4999 47.9 90.1999 47.6 90.8999 47.4ZM81.8999 55.1C81.8999 55 81.8999 54.9 81.9999 54.8C81.5999 54.9 81.4999 55 81.6999 55.5C81.9999 55.4 82.2999 55.4 82.6999 55.3C82.7999 55.3 82.8999 55.2 82.8999 55.1C82.7999 54.8 82.8999 54.5 82.5999 54.4C82.3999 54.6 82.2999 54.7 82.0999 54.8C82.2999 54.8 82.4999 54.9 82.5999 54.9V55C82.3999 55 82.0999 55.1 81.8999 55.1ZM49.5999 59.8C49.5999 60.1 49.5999 60.3 49.6999 60.5C49.6999 60.6 49.7999 60.7 49.7999 60.8C49.8999 60.7 50.0999 60.7 50.0999 60.6C50.1999 60.4 50.3999 60.3 50.5999 60.4C50.6999 60.4 50.7999 60.5 50.7999 60.5C50.7999 60.5 50.7999 60.5 50.8999 60.4C50.7999 60.3 50.7999 60.1 50.6999 60C50.6999 60 50.4999 60.1 50.3999 60.2C50.1999 60.3 50.0999 60.3 49.7999 60.3C49.9999 60.1 50.0999 59.9 49.5999 59.8ZM75.5999 56.9C75.5999 56.8 75.5999 56.7 75.5999 56.7C75.4999 56.7 75.3999 56.7 75.2999 56.7C75.1999 56.8 75.1999 56.9 75.1999 57C75.1999 57.2 75.2999 57.4 75.3999 57.4C75.6999 57.5 75.9999 57.6 76.2999 57.4C76.1999 57 75.8999 57.3 75.5999 57.2C75.7999 57.1 75.8999 57 76.0999 56.9C75.7999 56.9 75.6999 56.9 75.5999 56.9ZM58.5999 73.2C58.1999 73.5 58.0999 73.8 58.2999 74.1C58.2999 74.2 58.4999 74.2 58.4999 74.2C58.5999 74.2 58.6999 74.1 58.6999 74C58.6999 73.8 58.5999 73.5 58.5999 73.2ZM78.6999 69.6C78.5999 69.5 78.5999 69.4 78.4999 69.3C78.3999 69.4 78.2999 69.5 78.2999 69.6C78.2999 69.7 78.2999 69.9 78.3999 70.1C78.3999 70.2 78.5999 70.2 78.5999 70.2C78.6999 70.2 78.6999 70.1 78.7999 70C78.7999 69.9 78.7999 69.8 78.6999 69.6ZM81.4999 43.3C81.5999 43.3 81.5999 43.3 81.4999 43.3C81.8999 43.3 82.3999 43.2 82.7999 43.1V43C82.3999 43.1 81.9999 43.2 81.4999 43.3ZM44.4999 60.9C44.2999 60.8 44.1999 60.8 44.0999 60.8C43.9999 60.8 43.8999 61 43.7999 61.1C43.8999 61.2 43.9999 61.3 44.0999 61.2C44.1999 61.2 44.2999 61.1 44.4999 60.9ZM86.6999 53.3C86.6999 53.3 86.5999 53.3 86.6999 53.3C86.4999 53.3 86.3999 53.4 86.2999 53.5C86.2999 53.6 86.2999 53.7 86.3999 53.8C86.4999 53.7 86.5999 53.7 86.5999 53.6C86.6999 53.5 86.6999 53.4 86.6999 53.3ZM69.8999 63.1C69.9999 63.1 69.9999 63.1 70.0999 63.1C69.7999 62.7 70.2999 62.6 70.2999 62.3C70.0999 62.4 69.8999 62.4 69.8999 62.5C69.8999 62.6 69.8999 62.8 69.8999 63.1ZM56.0999 58.7C55.7999 58.5 55.3999 58.6 55.2999 59C55.4999 58.9 55.7999 58.8 56.0999 58.7ZM74.8999 55.4L74.7999 55.5C74.8999 55.6 74.8999 55.7 74.9999 55.7C75.0999 55.7 75.1999 55.6 75.2999 55.5C75.1999 55.5 75.0999 55.5 74.8999 55.4ZM75.1999 56.5C75.3999 56.4 75.5999 56.4 75.7999 56.3C75.7999 56.2 75.7999 56.2 75.6999 56.1C75.4999 56.2 75.3999 56.2 75.1999 56.3C75.1999 56.4 75.1999 56.4 75.1999 56.5ZM89.3999 46.5V46.4C89.2999 46.4 89.1999 46.3 89.0999 46.3C88.9999 46.3 88.8999 46.5 88.8999 46.5C88.8999 46.5 88.8999 46.6 88.9999 46.6C89.0999 46.6 89.2999 46.6 89.3999 46.5ZM62.8999 60.1C62.5999 60.3 62.7999 60.5 62.8999 60.7H62.9999C62.9999 60.5 62.8999 60.3 62.8999 60.1ZM45.2999 61.4C45.2999 61.3 45.2999 61.3 45.2999 61.2C45.1999 61.2 44.9999 61.1 44.8999 61.1C44.8999 61.1 44.8999 61.2 44.7999 61.3C44.9999 61.4 45.0999 61.4 45.2999 61.4Z" fill="#16994A"/>
<path d="M101.6 44.6C99.4 45 97.0999 45.5 94.8999 45.9C94.7999 45.9 94.8 45.9 94.7 45.9V45.8C95 45.7 95.3 45.6 95.6 45.6C97 45.3 98.4 45.1 99.7 44.8C100.2 44.7 100.8 44.5 101.3 44.4C101.4 44.4 101.5 44.5 101.6 44.5V44.6Z" fill="#16994A"/>
<path d="M90.4 73.5001C90.2 73.3001 90 73.1001 90.2 72.9001C90.4 72.7001 90.8 72.6001 91 72.8001C91.2 73.0001 91.3 73.2001 91.1 73.4001C91.4 73.7001 91.5 74.0001 91.3 74.3001C91.1 74.5001 90.7 74.6001 90.5 74.5001C90.2 74.2001 90.2 74.0001 90.4 73.5001ZM90.5 74.0001C90.7 74.1001 90.8 74.2001 90.9 74.2001C91 74.1001 91.1 74.0001 91.1 73.9001C91.1 73.8001 90.9 73.7001 90.8 73.6001C90.7 73.7001 90.6 73.8001 90.5 74.0001ZM91 73.1001C90.8 73.0001 90.7 73.0001 90.7 73.0001C90.6 73.0001 90.6 73.1001 90.5 73.2001C90.6 73.2001 90.7 73.3001 90.8 73.3001C90.8 73.3001 90.9 73.2001 91 73.1001Z" fill="#16994A"/>
<path d="M79.9999 75.2C79.8999 75.2 79.7999 75.3 79.6999 75.2C79.2999 75.1 79.1999 75.1001 79.2999 75.6001C79.4999 75.4001 79.7999 75.4001 79.9999 75.6001C80.1999 75.8001 80.2999 76.1001 80.1999 76.3001C80.0999 76.5001 79.8999 76.6 79.6999 76.7C79.2999 76.7 79.0999 76.4001 78.9999 75.8001C78.8999 75.3001 79.0999 75 79.3999 75C79.5999 74.8 79.7999 74.9 79.9999 75.2ZM79.1999 76.1001C79.3999 76.2001 79.4999 76.3 79.6999 76.4C79.6999 76.3 79.7999 76.1 79.7999 76C79.7999 75.9 79.5999 75.8 79.4999 75.7C79.3999 75.8 79.2999 75.9001 79.1999 76.1001Z" fill="#16994A"/>
<path d="M73 77.3C73.2 77.3 73.3 77.4 73.4 77.4C73.5 77.4 73.6 77.4 73.8 77.4C73.8 77.2 73.9 77.1 73.8 76.9C73.8 76.8 73.6 76.8 73.4 76.8C73.3 76.8 73.2 76.9001 73 77.1001C73 76.7001 73 76.4 73 76C73.3 75.9 73.6 75.9 73.9 75.8C73.9 75.9 73.9 76.0001 74 76.1001C73.8 76.3001 73.4 76.1 73.4 76.5C74 76.4 74.2 76.6 74.3 77C74.4 77.3 74.2 77.6 73.9 77.7C73.4 77.9 73.2 77.8 73 77.3Z" fill="#16994A"/>
<path d="M54.2 81.2C54.5 81.1 54.7 81.1 54.9 81.1C54.9 81.2 54.9 81.3 55 81.4C54.6 81.5 54.2 81.5 53.8 81.6C53.9 81.3 54 81.1 54.2 80.8C54.3 80.6 54.4 80.5 54.5 80.3C54.5 80.2 54.4 80.1 54.4 79.9C54.3 80 54.2 80 54.1 80.1C54 80.2 53.9 80.2 53.8 80.3C53.7 79.9 53.9 79.8 54.1 79.7C54.3 79.6 54.6 79.6 54.8 79.8C55 80 55 80.2 54.9 80.4C54.6 80.7 54.4 80.9 54.2 81.2Z" fill="#16994A"/>
<path d="M66 79.3C65.9 79.2 65.8 79.1 65.7 79.1V79C65.5 79 65.3 79.1 65.1 79.1C64.9 78.7 65.4 77.5 65.8 77.5C65.9 77.8 65.9 78 66 78.3C66 78.4 66 78.7 66.2 78.7C66.2 78.7 66.3 78.9 66.2 78.9C66.2 79 66.1 79.1 66 79.2V79.3ZM65.3 78.8C65.5 78.8 65.6 78.7 65.7 78.7C65.7 78.5 65.6 78.4 65.6 78.1C65.4 78.4 65.4 78.6 65.3 78.8Z" fill="#16994A"/>
<path d="M58.8999 79.1001C58.9999 79.0001 59.1999 78.8001 59.2999 78.7001C59.4999 78.7001 59.6999 78.7001 59.8999 78.8001C59.9999 78.9001 59.9999 79.1001 59.9999 79.2001C60.0999 79.5001 60.2999 79.7001 60.2999 79.9001C60.2999 80.1001 60.0999 80.3001 59.8999 80.3001C59.6999 80.4001 59.4999 80.2001 59.2999 80.2001C59.2999 80.2001 59.2999 80.1001 59.1999 80.0001C59.2999 80.0001 59.3999 79.9001 59.4999 79.9001C59.5999 79.9001 59.7999 80.0001 59.8999 80.0001C59.8999 79.9001 59.9999 79.7001 59.9999 79.7001C59.8999 79.6001 59.7999 79.5001 59.5999 79.4001C59.5999 79.4001 59.6999 79.3001 59.6999 79.2001C59.6999 79.1001 59.6999 79.0001 59.6999 78.9001C59.5999 78.9001 59.4999 79.0001 59.3999 79.0001C59.2999 79.0001 59.1999 79.1001 59.0999 79.1001C58.9999 79.2001 58.8999 79.2001 58.8999 79.1001Z" fill="#16994A"/>
<path d="M86.1 75.4C86.1 75.4 86 75.4 85.8 75.4C85.9 74.9 86 74.4 86 73.9C85.8 73.9 85.6 74 85.4 74C85.4 73.9 85.4 73.8 85.3 73.7C85.7 73.6 86 73.6 86.4 73.5C86.4 73.6 86.4 73.7 86.4 73.8C86.4 74.3 86.3 74.8 86.1 75.4Z" fill="#16994A"/>
<path d="M47.8 81.7C47.8 81.4 48.1 80.9 48.4 80.9C48.5 81.5 48.6 82 48.7 82.6C48.6 82.6 48.5 82.7 48.4 82.7C48.3 82.3 48.2 81.9 48.2 81.5C48 81.5 47.9 81.6 47.8 81.7Z" fill="#16994A"/>
<path d="M92.6001 46.3C92.5001 46.1 92.5001 46 92.7001 45.9C93.1001 45.8 93.5001 45.8 93.9001 45.8C94.0001 45.8 94.1001 45.9 94.2001 45.9C94.1001 46 94.0001 46.1001 93.9001 46.1001C93.4001 46.2001 93.0001 46.2 92.6001 46.3Z" fill="#16994A"/>
<path d="M73.2999 75.8C73.1999 75.1 72.9999 74.4 72.8999 73.8C72.8999 73.8 72.8999 73.8 72.9999 73.8C73.0999 74.4 73.1999 75.1 73.2999 75.8C73.3999 75.8 73.2999 75.8 73.2999 75.8Z" fill="#16994A"/>
<path d="M54.1 78.6001C54.2 78.9001 54.3 79.1001 54.4 79.4001C54.1 79.5001 54 79.3001 54.1 78.6001Z" fill="#16994A"/>
<path d="M102.5 44.2001C102.7 44.2001 102.8 44.1001 103 44.1001C103 44.1001 103.1 44.1001 103.2 44.2001C103.2 44.3001 103.1 44.3001 103.1 44.3001C102.9 44.3001 102.8 44.3001 102.6 44.4001C102.5 44.3001 102.5 44.2001 102.5 44.2001Z" fill="#16994A"/>
<path d="M65.8999 51.5C65.7999 51.6 65.6999 51.7 65.5999 51.7C65.3999 51.8 65.2999 51.8 65.0999 51.8C64.9999 51.8 64.8999 51.7 64.8999 51.7C64.9999 51.6 64.9999 51.5 65.0999 51.5C65.3999 51.4 65.6999 51.4 65.8999 51.3C65.8999 51.4 65.8999 51.4 65.8999 51.5Z" fill="#16994A"/>
<path d="M83.1001 46.5C83.4001 46.6 83.7001 46.9 83.6001 47.2C83.5001 47.3 83.2001 47.4 83.1001 47.4C82.9001 47.4 83.0001 47.2 83.1001 47.1C83.0001 46.9 83.0001 46.7 83.1001 46.5Z" fill="#16994A"/>
<path d="M83.2 48.7001C83.4 48.7001 83.5 48.6001 83.6 48.6001C83.8 48.7001 84 48.8001 84.3 48.9001C84.1 49.0001 84 49.1001 83.9 49.1001C83.7 49.2001 83.5 49.0001 83.2 48.7001Z" fill="#16994A"/>
<path d="M81.3 48.6001C81.2 48.6001 81.2 48.6001 81.1 48.6001C81 48.5001 80.9 48.5001 80.8 48.4001C80.9 48.3001 81 48.3001 81.1 48.2001C81.1 48.2001 81.2 48.2001 81.3 48.2001C81.4 48.2001 81.7 48.1001 81.6 48.4001C81.5 48.5001 81.4 48.6001 81.3 48.6001C81.3 48.7001 81.3 48.6001 81.3 48.6001Z" fill="#16994A"/>
<path d="M83.0001 47.9001C83.0001 48.0001 83.1001 48.0001 83.1001 48.1001C83.1001 48.2001 83.1001 48.3001 83.1001 48.4001C83.0001 48.3001 82.9001 48.3001 82.8001 48.2001C82.8001 48.2001 82.7001 48.0001 82.8001 48.0001C82.8001 47.9001 82.9001 47.8001 82.9001 47.7001C83.0001 47.7001 83.0001 47.8001 83.0001 47.9001C83.1001 47.9001 83.1001 47.9001 83.0001 47.9001Z" fill="#16994A"/>
<path d="M72.8001 70.1C72.6001 70.3 72.5001 70.4 72.4001 70.6C72.3001 70.5 72.1001 70.4 72.1001 70.3C72.1001 70.2 72.2001 70 72.3001 69.9C72.4001 69.9 72.6001 70 72.8001 70.1Z" fill="#16994A"/>
<path d="M175 127.5L156.7 191.5L143.4 238.7H133.7L147.9 127.5H175Z" fill="#25B759"/>
<path d="M179.9 127.5C180.3 160.5 181.8 178.5 182.2 181.5C182.6 184.5 189.3 203.6 202.3 238.7H192.2C175.7 205 166.5 185.9 164.6 181.5C162.7 177.1 156.7 159.1 147.8 127.5H179.9Z" fill="#4ED875"/>
<path d="M203.2 247.8L202.7 237.2H192.1C187.1 240.7 180.5 243.6 172.5 245.8V247.8H191.6L198.1 246.8V247.8H203.2Z" fill="#9CEFAD"/>
<path d="M144.8 247.8L144.3 237.2H133.7C128.7 240.7 122.1 243.6 114.1 245.8V247.8H133.2L139.7 246.8V247.8H144.8Z" fill="#9CEFAD"/>
<path d="M161.5 64.4C159.2 61.7 157.6 58.3 157.9 54.6C158.7 43.8 173.7 46.2 176.6 51.6C179.5 57 179.2 70.8 175.4 71.8C173.9 72.2 170.7 71.2 167.4 69.3L169.4 83.8H157.3L161.5 64.4Z" fill="#25B759"/>
<path d="M177.7 54.1001C177.6 53.4001 177.3 52.6001 177.1 51.9001C176.8 51.0001 176.3 50.3001 175.8 49.5001C174.8 48.1001 173.7 46.9001 172.4 45.9001C170.1 44.0001 167.2 42.9001 164.3 43.3001C162.8 43.5001 161.4 44.0001 160.2 45.0001C159.1 45.8001 158.1 47.1001 156.7 47.2001C155.2 47.3001 153.8 45.9001 152.5 45.1001C151.1 44.2001 149.6 43.5001 148 43.2001C145.3 42.8001 142.7 43.7001 140.9 45.9001C138.9 48.3001 137.5 51.7001 138.8 54.9001C139 55.5001 139.4 56.0001 139.8 56.4001C140.2 56.8001 140.8 57.2001 141 57.8001C141.2 58.4001 140.6 59.3001 140.4 59.8001C140.1 60.6001 139.9 61.5001 140 62.4001C140.1 63.9001 141.1 65.3001 142 66.2001C143 67.2001 144.2 67.7001 145.5 68.0001C146.4 68.2001 147.3 68.3001 148.1 68.2001C148.5 68.2001 148.9 68.0001 149.4 67.9001C149.8 67.8001 150 67.9001 150.4 68.1001C152 69.2001 153.8 69.6001 155.7 69.4001C157.3 69.3001 159.1 68.9001 160.4 67.8001C161.8 66.6001 161.8 64.9001 161.5 63.1001C161.9 63.3001 162.9 63.4001 162.3 62.7001C162.1 62.4001 161.6 62.3001 161.3 62.1001C160.9 61.9001 160.6 61.7001 160.3 61.3001C159.2 60.0001 160.3 57.5001 161.7 57.0001C163.8 56.4001 164.2 59.3001 165.7 60.0001C166.5 60.4001 167.4 59.8001 168.1 59.2001C168.9 58.4001 169.5 57.3001 170 56.2001C170.4 55.3001 170.8 54.4001 171.2 53.5001C171.4 53.1001 172.1 51.9001 171.7 51.4001C173.2 51.1001 174.8 51.7001 176.1 52.5001C176.6 52.8001 177 53.2001 177.3 53.8001C177.4 53.9001 177.5 54.3001 177.7 54.3001C177.8 54.7001 177.7 54.3001 177.7 54.1001Z" fill="#093509"/>
<path d="M177.9 59.8C177.6 61.8 180.4 63.1 180.3 65.2C179.3 65.2 178.3 65.8 177.2 65.7" fill="#25B759"/>
<path d="M174.4 59.5C174.6 59.3 174.8 59.1 175.1 59C175.4 58.9 175.7 58.8 176 58.8C176.3 58.8 176.6 58.9001 176.9 59.1001C177.2 59.3001 177.3 59.6 177.3 59.9C176.9 59.4 176.5 59.4 176 59.4C175.5 59.3 175 59.4 174.4 59.5Z" fill="#093509"/>
<path d="M177.5 68.0001C176.8 68.2001 176.2 68.3001 175.5 68.1001C174.8 68.0001 174.1 67.6001 173.8 67.0001C174.1 67.1001 174.4 67.3001 174.7 67.4001C175 67.5001 175.3 67.6001 175.6 67.7001C176.2 67.8001 176.9 67.8001 177.5 68.0001Z" fill="#093509"/>
<path d="M176.2 61.4001C176.531 61.4001 176.8 61.1315 176.8 60.8001C176.8 60.4687 176.531 60.2001 176.2 60.2001C175.868 60.2001 175.6 60.4687 175.6 60.8001C175.6 61.1315 175.868 61.4001 176.2 61.4001Z" fill="#093509"/>
<path d="M122.9 120.3L109.2 109.8C102.4 108.5 99.1999 107.5 99.6999 106.6C100.4 105.2 102.3 106.2 103 105.3C103.6 104.5 102 101.9 100.4 99.5C98.7999 97.1 100.3 97.2 101.2 97.5C104.2 99.2 107.3 101.6 110.5 104.8L128.7 112.8L122.9 120.3ZM215 145.4C216 146.7 222.1 150 226.2 151.8C227.9 152.5 227.5 153.9 227 154.4C223.1 158 219.5 155.3 215.2 154.3C210.6 153.1 212 158.7 208.3 157.8C208.9 155.3 210.5 150.5 208.8 147.9C208 146.7 202.5 136.5 192.1 117.2L202.4 115.2C209.5 133.5 213.7 143.6 215 145.4Z" fill="#25B759"/>
<path d="M164.1 76.4001L159.7 75.7001C150.2 84.9001 146.3 107 140 109.9C134 112.7 125.6 110 115.5 106.4L112.4 113.3C121.5 123.2 141 131.6 148.9 126.8C161.7 119.1 164.6 91.9001 164.1 76.4001Z" fill="#095411"/>
<path d="M183.1 131.2C165.6 131.2 152.8 131.2 144.6 131.2C142.8 131.2 143.2 128.7 143.4 127.4C146.3 112.6 157.8 96.6 157.8 75.6L168.9 73.9C178.1 88.5 181.3 106.7 183.1 131.2Z" fill="#4ED875"/>
<path d="M187 116.2C194.9 130.4 201.5 140.6 206.8 146.8L214.9 145.2C209.7 112.9 194.6 89.1 169.7 73.8H169.6H165.3C155.3 107.8 152.6 130.5 157.1 141.8H191.8C191.1 133.4 189.4 124.7 187 116.2Z" fill="#14662A"/>
<path d="M311.1 123.8L292 189.4L283.1 238.6H274.1L283.1 123.8H311.1Z" fill="#83E59C"/>
<path d="M319.6 123.8C318.3 157.9 318.8 176.5 319.1 179.6C319.4 182.7 321.1 203.4 332.6 239.7H323.3C308.1 204.9 302.7 184.1 301 179.6C299.3 175 294.1 156.4 286.6 123.8H319.6Z" fill="#83E59C"/>
<path d="M311.5 123.8C306.5 146.4 298 182.4 285.8 231.9H272.7C271.7 181.1 275.9 147.7 283 123.8H311.5Z" fill="#0C420C"/>
<path d="M319.7 123.8C318.4 157.9 321.8 191.5 332.2 232.4H318.2C302.9 198.1 292 164.7 284.5 123.8H319.7Z" fill="#0C4C0D"/>
<path d="M334 246.4L333.5 238.1C330.5 239 326.7 238.6 322.2 237.1C317.3 240.6 311.2 242.9 303.7 244.2C303.1 244.3 302.8 244.8 302.9 245.4V245.5L303.6 248H322.2H333L334 246.4Z" fill="#4ED875"/>
<path d="M285.1 246.4L284.6 238.1C281.6 239 277.8 238.6 273.3 237.1C268.4 240.6 262.3 242.9 254.8 244.2C254.2 244.3 253.9 244.8 254 245.4V245.5L254.7 248H273.3H284.1L285.1 246.4Z" fill="#4ED875"/>
<path d="M304 58.2001C306.4 55.4001 308 51.9001 307.7 48.1001C306.9 37.0001 291.4 39.4001 288.4 45.0001C285.4 50.6001 285.7 64.9 289.6 65.9C291.2 66.3 294.5 65.3001 297.8 63.3001L295.7 78.2001H308.2L304 58.2001Z" fill="#83E59C"/>
<path d="M297.3 49.3001C296.8 56.0001 295.6 59.3001 293.5 59.3001C290.4 59.3001 287.8 57.3001 286.5 57.3001C285.5 57.3001 285.7 58.5 286.4 59.4C286.9 60.2 289.6 60.9001 289.6 62.0001C289.6 63.2001 287.5 62.3001 287.5 63.0001C287.5 64.1001 287.1 66.3001 289.1 66.3001C291.1 66.3001 296.9 65.6001 297.9 62.6001C298.5 60.7001 298.9 56.7001 299.1 50.6001C299.2 50.6001 299.3 50.6001 299.5 50.6001C301.2 50.6001 302.6 52 302.6 53.7C302.6 54.6 302.2 55.4 301.7 55.9C302.4 56.9 303.2 58.0001 304.2 59.1001C307.7 57.0001 310.8 50.9001 307.4 45.0001C306.5 42.1001 303.8 40.6 301.3 39.9C299.3 39 297.1 39.0001 295.4 39.5001C291.9 39.8001 288.8 40.9001 287.9 41.5001C287.9 44.8001 288.5 45.8 294 45.7C295.2 46.5 296.3 47.7001 297.3 49.3001Z" fill="#062806"/>
<path d="M286.9 51.1001C286.6 52.8001 284.4 54.4001 284.5 56.3001C285 56.5001 285.4 56.8001 285.9 56.9001C286.4 57.0001 286.8 56.9001 287.3 57.1001" fill="#83E59C"/>
<path d="M287.8 49.2C288.1 49 288.3 48.9 288.6 48.8C288.9 48.7 289.2 48.6 289.6 48.7C289.9 48.8 290.3 49 290.4 49.3C290.5 49.4 290.6 49.6 290.6 49.7C290.6 49.8 290.6 49.9 290.7 49.9V50V50.1H290.6C290.6 50 290.4 50 290.3 49.9C290.2 49.8 290 49.8 289.9 49.7C289.7 49.6 289.5 49.5 289.3 49.5C289.1 49.4 288.9 49.4 288.6 49.4C288.4 49.5 288.1 49.4 287.8 49.2Z" fill="#062806"/>
<path d="M288.5 51.2C288.721 51.2 288.9 51.0209 288.9 50.8C288.9 50.5791 288.721 50.4 288.5 50.4C288.279 50.4 288.1 50.5791 288.1 50.8C288.1 51.0209 288.279 51.2 288.5 51.2Z" fill="#062806"/>
<path d="M261.6 77.4L246.3 68.4C239.1 68 235.8 67.3 236.2 66.3C236.8 64.8 238.8 65.5 239.4 64.6C240 63.7 238 61.2 236 59C234 56.8 235.6 56.7 236.6 56.9C239.9 58.2 243.3 60.3 247 63.2L266.7 69.1L261.6 77.4ZM272 112.8L255.6 119.6C251 125.1 248.4 127.3 247.8 126.4C247 125 248.8 123.8 248.4 122.8C248 121.8 244.9 121.9 241.9 122.1C238.9 122.3 239.8 121 240.5 120.4C243.5 118.6 247.3 117.1 251.8 115.9L268.4 103.7L272 112.8Z" fill="#83E59C"/>
<path d="M294.1 71C285.1 87.8 272 100.7 253.1 114.2L260.3 122.3C281.4 114.4 292.6 109.7 298.1 93.8C299.5 89.8 300.4 77.1 301.3 70.4L294.1 71Z" fill="#D83252"/>
<path d="M319.4 127.1H279.4C288.5 99.4 293.1 80.5 293.3 70.2C293.3 69.7 294.3 68.7 294.7 68.9C297.8 69.8 301.2 69.5 304.8 67.9C314.2 83.1 317.5 101.9 319.4 127.1Z" fill="#DBFCDF"/>
<path d="M301.3 67.8999C289.8 67.9999 271.2 70.1 249.7 63.2L247.6 73.8C263.8 84.2 280.3 92.3 294.6 91.2C288.3 118 288.6 140 302.4 140C309 140 316.1 140 323.7 140C327.1 117.2 318.2 85.6 309.9 69.7C309.6 69.1 308.9 67.8999 307.3 67.8999C306.1 67.7999 304.1 67.7999 301.3 67.8999C301.3 67.7999 301.3 67.7999 301.3 67.8999Z" fill="#F24C64"/>
<path d="M164 218.3C162.8 218.3 161.7 220.2 161.7 222.5C161.7 222.8 161.7 223.1 161.7 223.4C161.7 224.3 161.7 225.1 161.7 226C161.7 227.3 161.7 228.7 161.7 230C161.7 231.7 161.7 233.5 161.7 235.2C161.7 237.3 161.7 239.4 161.7 241.4C161.7 243.7 161.7 246.1 161.7 248.4C161.7 250.9 161.7 253.5 161.7 256C161.7 258.6 161.7 261.3 161.7 263.9C161.7 266.6 161.7 269.3 161.7 271.9C161.7 274.5 161.7 277.2 161.7 279.8C161.7 282.3 161.7 284.9 161.7 287.4C161.7 289.8 161.7 292.1 161.7 294.5C161.7 296.6 161.7 298.7 161.7 300.8C161.7 302.6 161.7 304.3 161.7 306.1C161.7 307.5 161.7 308.8 161.7 310.2C161.7 311.1 161.7 312 161.7 312.8C161.7 313.3 161.7 313.9 161.7 314.4C161.7 315 162.2 315.3 162.5 315.4C163 315.7 163.5 315.7 164 315.7C164.4 315.7 164.9 315.6 165.3 315.5C165.6 315.4 166.1 315.2 166.2 314.7C166.2 314.6 166.2 314.5 166.2 314.4C166.2 313.8 166.2 313.3 166.2 312.7C166.2 311.8 166.2 311 166.2 310.1C166.2 308.8 166.2 307.5 166.2 306.2C166.2 304.5 166.2 302.8 166.2 301.2C166.2 299.2 166.2 297.2 166.2 295.2C166.2 293 166.2 290.7 166.2 288.5C166.2 286.1 166.2 283.6 166.2 281.2C166.2 278.7 166.2 276.1 166.2 273.6C166.2 271 166.2 268.4 166.2 265.8C166.2 263.2 166.2 260.7 166.2 258.1C166.2 255.6 166.2 253.1 166.2 250.7C166.2 248.4 166.2 246 166.2 243.7C166.2 241.6 166.2 239.5 166.2 237.4C166.2 235.6 166.2 233.8 166.2 231.9C166.2 230.4 166.2 229 166.2 227.5C166.2 226.4 166.2 225.4 166.2 224.3C166.2 223.7 166.2 223.2 166.2 222.6C166.2 222.5 166.2 222.4 166.2 222.4C166.2 220.2 165.2 218.3 164 218.3Z" fill="#25B759"/>
<path d="M236.8 204.2C235.6 204.2 234.5 206.1 234.5 208.4C234.5 208.7 234.5 209 234.5 209.3C234.5 210.2 234.5 211 234.5 211.9C234.5 213.2 234.5 214.6 234.5 215.9C234.5 217.6 234.5 219.4 234.5 221.1C234.5 223.2 234.5 225.3 234.5 227.3C234.5 229.6 234.5 232 234.5 234.3C234.5 236.8 234.5 239.4 234.5 241.9C234.5 244.5 234.5 247.2 234.5 249.8C234.5 252.5 234.5 255.2 234.5 257.8C234.5 260.4 234.5 263.1 234.5 265.7C234.5 268.2 234.5 270.8 234.5 273.3C234.5 275.7 234.5 278 234.5 280.4C234.5 282.5 234.5 284.6 234.5 286.7C234.5 288.5 234.5 290.2 234.5 292C234.5 293.4 234.5 294.7 234.5 296.1C234.5 297 234.5 297.9 234.5 298.7C234.5 299.2 234.5 299.8 234.5 300.3C234.5 300.9 235 301.2 235.3 301.3C235.8 301.6 236.3 301.6 236.8 301.6C237.2 301.6 237.7 301.5 238.1 301.4C238.4 301.3 238.9 301.1 239 300.6C239 300.5 239 300.4 239 300.3C239 299.7 239 299.2 239 298.6C239 297.7 239 296.9 239 296C239 294.7 239 293.4 239 292.1C239 290.4 239 288.7 239 287.1C239 285.1 239 283.1 239 281.1C239 278.9 239 276.6 239 274.4C239 272 239 269.5 239 267.1C239 264.6 239 262 239 259.5C239 256.9 239 254.3 239 251.7C239 249.1 239 246.6 239 244C239 241.5 239 239 239 236.6C239 234.3 239 231.9 239 229.6C239 227.5 239 225.4 239 223.3C239 221.5 239 219.7 239 217.8C239 216.3 239 214.9 239 213.4C239 212.3 239 211.3 239 210.2C239 209.6 239 209.1 239 208.5C239 208.4 239 208.3 239 208.3C239.1 206.1 238.1 204.2 236.8 204.2Z" fill="#25B759"/>
<path d="M308.8 217.7C307.6 217.7 306.5 219.6 306.5 221.9C306.5 222.2 306.5 222.5 306.5 222.8C306.5 223.7 306.5 224.5 306.5 225.4C306.5 226.7 306.5 228.1 306.5 229.4C306.5 231.1 306.5 232.9 306.5 234.6C306.5 236.7 306.5 238.8 306.5 240.8C306.5 243.1 306.5 245.5 306.5 247.8C306.5 250.3 306.5 252.8 306.5 255.4C306.5 258 306.5 260.7 306.5 263.3C306.5 266 306.5 268.6 306.5 271.3C306.5 273.9 306.5 276.6 306.5 279.2C306.5 281.7 306.5 284.2 306.5 286.8C306.5 289.1 306.5 291.5 306.5 293.8C306.5 295.9 306.5 298 306.5 300.1C306.5 301.9 306.5 303.6 306.5 305.4C306.5 306.8 306.5 308.1 306.5 309.5C306.5 310.4 306.5 311.2 306.5 312.1C306.5 312.6 306.5 313.2 306.5 313.7C306.5 314.3 307 314.6 307.3 314.7C307.8 315 308.3 315 308.8 315C309.2 315 309.7 314.9 310.1 314.8C310.4 314.7 310.9 314.5 311 314C311 313.9 311 313.8 311 313.7C311 313.1 311 312.6 311 312C311 311.2 311 310.3 311 309.5C311 308.2 311 306.9 311 305.6C311 303.9 311 302.2 311 300.6C311 298.6 311 296.6 311 294.6C311 292.4 311 290.1 311 287.9C311 285.5 311 283.1 311 280.6C311 278.1 311 275.5 311 273C311 270.4 311 267.8 311 265.3C311 262.7 311 260.2 311 257.6C311 255.1 311 252.7 311 250.2C311 247.9 311 245.6 311 243.2C311 241.1 311 239 311 236.9C311 235.1 311 233.3 311 231.4C311 229.9 311 228.5 311 227C311 226 311 224.9 311 223.9C311 223.3 311 222.8 311 222.2C311 222.1 311 222 311 222C311 219.6 310 217.7 308.8 217.7Z" fill="#25B759"/>
<path d="M319 212.3C319 222 282 229.9 236.4 229.9C190.8 229.9 153.8 222 153.8 212.3V214.4C153.8 224.1 190.7 232 236.3 232C281.9 232 317.7 224.5 319.1 215L319 212.3Z" fill="#4ED875"/>
<path d="M236.3 230.1C281.919 230.1 318.9 222.22 318.9 212.5C318.9 202.78 281.919 194.9 236.3 194.9C190.681 194.9 153.7 202.78 153.7 212.5C153.7 222.22 190.681 230.1 236.3 230.1Z" fill="#9CEFAD"/>
<path d="M281.3 209.8L270.6 206.4L270.4 205.9L268.1 205.1L267.8 205.9L267.5 206.7L269.9 207.5L270.3 207.2L281.1 210.6L280.7 211.9L281.9 212.3L282.5 210.7L283 209L281.8 208.6L281.3 209.8Z" fill="#16994A"/>
<path d="M285.5 209.8L283 209L281.9 212.4L284.4 213.2L285 213.9C285.3 214.3 285.7 214.6 286.2 214.7L293.2 217C293.6 217.1 294.1 216.9 294.3 216.5L294.9 214.8L295.5 213.1C295.6 212.7 295.4 212.2 295 212L288 209.7C287.5 209.5 287 209.5 286.6 209.7L285.5 209.8Z" fill="#0C4C0D"/>
<path d="M286.517 212.559L286.208 213.51L293.436 215.858L293.745 214.907L286.517 212.559Z" fill="#16994A"/>
<path d="M287.126 210.529L286.817 211.48L294.046 213.828L294.355 212.877L287.126 210.529Z" fill="#16994A"/>
<path d="M229.4 201.9L228.9 204.8C228.9 205 228.6 205.2 228.4 205.1C227.3 204.9 224.2 204.3 221.7 205.3C219.6 206.1 217.9 207.4 216.9 208.2C216.4 208.6 215.7 208.6 215.3 208.2C214.8 207.7 214.8 206.8 215.4 206.4C217.2 205 221.1 202.7 226.8 202.9C227.5 202.9 228.2 202.6 228.6 202L228.8 201.6C228.9 201.5 229 201.5 229.1 201.4C229.3 201.4 229.4 201.6 229.4 201.9Z" fill="#16994A"/>
<path d="M233.1 206.2C233.3 206.2 233.5 206.2 233.7 206.1C233.9 206 234.1 205.9 234.3 205.7L236.2 205.5C237 205.4 237.7 205.1 238.2 204.6L240.4 202.5L240.2 202.1C240.2 202.1 239.3 202.5 238 203C238 203.4 237.8 203.8 237.4 204C237 204.2 236.5 204 236.3 203.7C235.8 203.9 235.3 204.1 234.7 204.3C234.7 204.2 234.7 204.1 234.6 204.1C234.6 204 234.5 203.9 234.5 203.9C235 203.7 235.6 203.5 236.1 203.3C236.1 202.9 236.3 202.5 236.7 202.3C237.1 202.1 237.6 202.3 237.8 202.6C239.1 202.1 240 201.7 240 201.7L239.8 201.3L236.8 201.2C236 201.2 235.3 201.4 234.7 201.9L233.2 203C233 203 232.7 203 232.5 203.1C232.3 203.2 232.1 203.3 232 203.4L229.1 203.1L228.8 204.8L231.4 205C231.4 205 231.4 205 231.5 205C231.5 205.1 231.5 205.2 231.6 205.2C231.6 205.3 231.7 205.4 231.7 205.4C231.7 205.4 231.7 205.4 231.6 205.4L229.8 207.3L231.2 208.4L233.1 206.2Z" fill="#0C4C0D"/>
<path d="M232.2 209.2L229.8 207.4C229.6 207.2 229.3 207.3 229.2 207.5C228.5 208.4 226.6 210.9 224.1 211.9C222 212.7 219.8 212.9 218.6 213C218 213 217.5 213.5 217.4 214.1C217.3 214.8 218 215.4 218.7 215.4C220.9 215.2 225.4 214.3 229.5 210.3C230 209.8 230.8 209.6 231.5 209.8L231.9 209.9C232 209.9 232.1 209.9 232.2 209.8C232.4 209.5 232.4 209.3 232.2 209.2Z" fill="#16994A"/>
<path d="M233.549 205.436C234.013 205.257 234.244 204.736 234.065 204.272C233.887 203.808 233.366 203.577 232.902 203.756C232.438 203.934 232.207 204.455 232.386 204.919C232.564 205.383 233.085 205.614 233.549 205.436Z" fill="#9CEFAD"/>
<path d="M184.7 217.9C181.1 213.7 183.4 208.8 183.4 208.8L184.7 206.4C184.8 206.2 184.9 206.2 185.1 206.2C185.8 206.2 186.5 205.8 186.8 205.2C187.1 204.5 187.1 203.8 186.7 203.2C186.6 203.1 186.6 202.9 186.7 202.7L187.9 200.5C188 200.4 188.1 200.3 188.3 200.4L191.8 202.3C191.9 202.4 192 202.5 191.9 202.7L190.7 204.9C190.6 205.1 190.5 205.1 190.3 205.1C189.6 205.1 188.9 205.5 188.6 206.1C188.6 206.2 188.5 206.2 188.5 206.3C188.1 207.2 188.5 208.2 189.4 208.7L190.1 209L209.7 219.4L208.3 222.1L188.7 211.7L187.5 211.1C184.6 211.6 184.9 216 185.2 217.9C185.2 217.9 184.9 218.1 184.7 217.9Z" fill="#25B759"/>
<path d="M211.3 223.7L203 219.3L204.6 216.2L212.9 220.6C213.2 220.4 213.5 220.4 213.8 220.5C214.2 220.7 214.4 221.2 214.2 221.7L212.9 224.2C212.7 224.6 212.2 224.8 211.7 224.6C211.4 224.4 211.3 224 211.3 223.7Z" fill="#0C420C"/>
</svg>
