<svg width="93" height="132" viewBox="0 0 93 132" fill="none" xmlns="http://www.w3.org/2000/svg">
<path fill-rule="evenodd" clip-rule="evenodd" d="M48.3399 23.3151C50.3473 24.5245 52.3197 25.1089 53.2456 24.8703C55.5673 24.2722 55.7808 15.7827 53.9844 12.4358C52.188 9.089 42.953 7.63023 42.4875 14.2614C42.326 16.5628 43.2928 18.6167 44.7212 20.2927L42.1599 32.2253H49.5999L48.3399 23.3151Z" fill="#684B2F"/>
<path fill-rule="evenodd" clip-rule="evenodd" d="M44.9498 12.7043C49.2431 12.735 52.2303 12.5542 53.9398 12.0846C53.8619 10.6301 52.3492 8.98596 48.3598 8.98596C43.9212 8.98596 41.5398 11.5719 41.5398 14.5634C41.5398 17.2965 43.3 20.6251 44.6398 20.7606C44.987 20.6847 45.2834 20.2667 45.5781 19.6907C45.0262 19.4224 44.6398 18.7899 44.6398 17.9719C44.6398 17.1856 45.3337 16.4226 46.1898 16.4226C46.502 16.4226 46.7927 16.5241 47.036 16.6913C47.5985 15.7858 48.3034 15.1095 49.2898 15.1831L48.6698 13.324L44.9498 13.0141V12.7043Z" fill="#191847"/>
<path fill-rule="evenodd" clip-rule="evenodd" d="M39.6799 57.9437L50.919 97.3661L59.1191 126.423H65.0999L56.3861 57.9437H39.6799Z" fill="#191847"/>
<path fill-rule="evenodd" clip-rule="evenodd" d="M36.6743 57.9437C36.4144 78.2625 35.5279 89.3449 35.255 91.191C34.982 93.037 30.855 104.781 22.8738 126.423H29.0695C39.2302 105.661 44.9022 93.9172 46.0854 91.191C47.2686 88.4647 50.9201 77.3823 56.42 57.9437H36.6743Z" fill="#2F3676"/>
<path fill-rule="evenodd" clip-rule="evenodd" d="M22.3201 132L22.6301 125.493L29.1401 125.493C33.7704 128.747 41.2301 130.761 41.2301 130.761V132H29.4501L25.4201 131.38V132H22.3201Z" fill="#191847"/>
<path fill-rule="evenodd" clip-rule="evenodd" d="M58.28 132L58.59 125.493L65.1 125.493C69.7303 128.747 77.19 130.761 77.19 130.761V132H65.41L61.38 131.38V132H58.28Z" fill="#191847"/>
<path fill-rule="evenodd" clip-rule="evenodd" d="M77.9217 22.6081L66.1715 26.1338L69.1715 31.1293L78.3075 25.7551C82.5722 25.5012 84.5872 25.0808 84.3526 24.4938C84.1547 23.9988 83.6838 23.9145 83.25 23.8368C82.912 23.7763 82.5967 23.7199 82.4505 23.4765C82.1167 22.9206 83.2868 21.4737 84.456 20.148C85.6251 18.8224 84.6895 18.7606 84.1244 18.8669C82.1813 19.6554 80.1137 20.9025 77.9217 22.6081ZM75.0217 54.0989L65.1332 46.8409L62.9473 52.2421L72.7394 56.3008C75.5088 59.5524 77.0574 60.9079 77.3852 60.3673C77.6616 59.9115 77.4456 59.4848 77.2466 59.0918C77.0915 58.7856 76.9469 58.4999 77.0534 58.2367C77.2966 57.6357 79.1569 57.699 80.9197 57.8345C82.6825 57.97 82.1688 57.186 81.7437 56.7989C79.9443 55.7223 77.7036 54.8223 75.0217 54.0989Z" fill="#B28B67"/>
<path fill-rule="evenodd" clip-rule="evenodd" d="M49.774 27.2946C55.1589 37.3308 62.9457 45.0242 74.2345 53.0219L69.9601 57.8392C57.3557 53.1573 50.7035 50.3324 47.4367 40.8503C46.6168 38.4705 46.0437 30.884 45.5522 26.8924L49.774 27.2946Z" fill="#E55039"/>
<path fill-rule="evenodd" clip-rule="evenodd" d="M34.7202 60.7324H58.5902C58.5902 60.7324 50.4798 36.0081 50.304 26.794C50.298 26.4808 49.7194 25.929 49.4634 26.0013C46.6552 26.794 43.4535 25.4084 43.4535 25.4084C37.7946 34.5054 35.8377 45.7056 34.7202 60.7324Z" fill="#F2F2F2"/>
<path fill-rule="evenodd" clip-rule="evenodd" d="M49.4407 39.2873C53.1688 55.2718 52.9969 68.3568 44.7663 68.3568H32.0388C30.0174 54.7782 35.3301 35.951 40.2553 26.4548C40.4434 26.0921 40.8438 25.4085 41.787 25.4085H45.4852C45.4869 25.4134 45.4885 25.4183 45.4901 25.4232C46.603 25.4323 47.8286 25.4729 49.1558 25.517C55.9885 25.7437 65.5157 26.0598 76.236 22.6198L77.4999 28.9327C67.8238 35.153 58.026 39.9716 49.4407 39.2873Z" fill="#E55039"/>
</svg>
