<svg width="337" height="432" viewBox="0 0 337 432" fill="none" xmlns="http://www.w3.org/2000/svg">
<g filter="url(#filter0_d)">
<path fill-rule="evenodd" clip-rule="evenodd" d="M121.352 91.9721C115.83 97.1363 109.998 100.304 106.917 100.172C99.1899 99.8406 92.8201 73.1845 96.2426 61.4146C99.6651 49.6447 127.825 38.846 133.744 59.4666C135.798 66.6234 134.125 73.7555 130.742 80.0041L146.831 115.955L123.355 120.944L121.352 91.9721Z" fill="#B28B67"/>
<path fill-rule="evenodd" clip-rule="evenodd" d="M133.548 84.3327C133.708 70.5982 140.203 59.8786 137.675 54.2923C135.148 48.706 129.293 48.458 129.293 48.458C129.293 48.458 123.953 37.4529 108.672 42.5137C93.3916 47.5745 85.2215 56.1037 92.386 69.5276C96.1777 68.7217 100.464 66.3775 107.292 67.3815C110.543 67.8594 113.076 73.4007 113.076 73.4007L115.936 72.7927C115.936 72.7927 118.633 65.0045 123.069 65.9739C127.506 66.9432 126.799 74.4715 126.799 74.4715L130.505 84.9795L133.548 84.3327Z" fill="#191847"/>
<path fill-rule="evenodd" clip-rule="evenodd" d="M199 182L124.694 306.227L68.9852 411.25H56.9861L150.326 182L199 182Z" fill="#997659"/>
<path fill-rule="evenodd" clip-rule="evenodd" d="M73.5504 405.284C74.6221 404.813 75.8957 405.29 76.2949 406.391C77.023 408.398 78 411.409 78 413.106C78 415.811 77.0988 421 77.0988 421C73.9608 421 20.6969 421 20.6969 421C20.6969 421 18.4984 413.732 23.2352 413.152C27.9719 412.573 31.105 412.106 31.105 412.106L57.32 400.419C57.8346 400.189 58.437 400.43 58.6517 400.951L60.3368 405.039C60.3368 405.039 64.7218 407.085 67.4633 407.085C69.1323 407.085 71.7543 406.074 73.5504 405.284Z" fill="#E4E4E4"/>
<path fill-rule="evenodd" clip-rule="evenodd" d="M84.457 394.433L61.3169 387.433C61.3169 387.433 76.5244 341.971 98.5947 287.374C120.665 232.778 146 182 146 182H211.356C211.356 182 183.189 246.232 151.634 298.725C120.079 351.219 84.457 394.433 84.457 394.433Z" fill="#DB2721"/>
<path fill-rule="evenodd" clip-rule="evenodd" d="M203.883 182C210.896 225.654 224.423 281.427 225.699 283.149C226.55 284.296 257.187 294.562 317.61 313.947L315.018 324.528C242.964 314.132 204.998 306.066 201.119 300.331C195.301 291.728 166.251 223.763 155 182H203.883Z" fill="#B28B67"/>
<path fill-rule="evenodd" clip-rule="evenodd" d="M296.37 304.8L291.805 321.842C237.913 326.569 204.892 323.153 192.742 311.596C180.593 300.039 166.745 256.84 151.201 182H213.522C223.37 243.284 228.876 275.212 230.04 277.785C231.203 280.357 253.313 289.363 296.37 304.8Z" fill="#FF4133"/>
<path fill-rule="evenodd" clip-rule="evenodd" d="M313.069 312.074C312.791 310.937 313.482 309.765 314.635 309.563C316.739 309.195 319.873 308.756 321.544 309.05C324.208 309.52 329.162 311.309 329.162 311.309C328.617 314.399 319.368 366.854 319.368 366.854C319.368 366.854 311.829 367.757 312.08 362.991C312.332 358.226 312.416 355.059 312.416 355.059L305.459 327.213C305.323 326.666 305.664 326.115 306.215 325.994L310.533 325.044C310.533 325.044 313.309 321.081 313.785 318.381C314.075 316.738 313.535 313.98 313.069 312.074Z" fill="#E4E4E4"/>
<path fill-rule="evenodd" clip-rule="evenodd" d="M51.3639 188.901L90.1544 179.78L89.8803 198.832L55.4194 198.456C43.0159 204.676 36.6647 206.763 36.3656 204.716C36.1134 202.99 37.2996 201.984 38.3921 201.058C39.2433 200.337 40.0376 199.663 40.0509 198.735C40.0814 196.615 34.4287 194.414 28.9768 192.557C23.5249 190.699 26.0541 189.001 27.8164 188.383C34.5668 187.457 42.416 187.63 51.3639 188.901ZM265.446 210.605C260.58 206.105 209.222 143.863 209.222 143.863L188.808 151.787C188.808 151.787 251.479 214.547 254.289 217.563C257.939 221.482 257.347 229.438 256.946 234.833C256.884 235.667 256.826 236.441 256.79 237.128C260.293 237.318 261.109 235.15 261.968 232.864C262.939 230.282 263.967 227.549 268.988 227.896C270.928 228.03 272.833 228.337 274.694 228.638C281.123 229.675 287.028 230.628 292.041 224.054C292.836 223.012 293.048 220.154 289.565 219.322C280.888 217.249 267.825 212.805 265.446 210.605Z" fill="#997659"/>
<path fill-rule="evenodd" clip-rule="evenodd" d="M128.337 100.521L112.741 107.732C122.489 144.909 109.664 175.678 58.6621 186.506L69.9049 234.884C117.067 223.443 149.568 190.328 138.947 138.521C136.198 125.11 132.812 111.355 128.337 100.521Z" fill="#AFB9C5"/>
<path fill-rule="evenodd" clip-rule="evenodd" d="M259.091 202.432C225.281 147.568 184.265 110.827 136.043 92.207L134.507 92.7967L134.455 92.8167L134.448 92.8365L112.329 107.7C123.511 136.831 125.386 161.086 127.188 184.404C127.966 194.475 128.731 204.37 130.226 214.408L195.722 189.267C200.713 199.509 205.46 210.184 210.05 221.257L259.091 202.432Z" fill="#C5CFD6"/>
<path fill-rule="evenodd" clip-rule="evenodd" d="M195.722 189.267C185.562 168.413 174.396 149.348 161.507 132.346C170.576 152.338 180.655 177.589 182.411 194.377L195.722 189.267Z" fill="black" fill-opacity="0.1"/>
</g>
<defs>
<filter id="filter0_d" x="0" y="0" width="336.492" height="432" filterUnits="userSpaceOnUse" color-interpolation-filters="sRGB">
<feFlood flood-opacity="0" result="BackgroundImageFix"/>
<feColorMatrix in="SourceAlpha" type="matrix" values="0 0 0 0 0 0 0 0 0 0 0 0 0 0 0 0 0 0 127 0"/>
<feOffset dy="4"/>
<feGaussianBlur stdDeviation="3.5"/>
<feColorMatrix type="matrix" values="0 0 0 0 0 0 0 0 0 0 0 0 0 0 0 0 0 0 0.2 0"/>
<feBlend mode="normal" in2="BackgroundImageFix" result="effect1_dropShadow"/>
<feBlend mode="normal" in="SourceGraphic" in2="effect1_dropShadow" result="shape"/>
</filter>
</defs>
</svg>
