<svg width="314" height="440" viewBox="0 0 314 440" fill="none" xmlns="http://www.w3.org/2000/svg">
<g filter="url(#filter0_d)">
<path fill-rule="evenodd" clip-rule="evenodd" d="M150 80.7069C161.429 80.7069 165.586 67.0241 172.079 59.5153C176.724 54.143 184.653 55.7449 187 48.2238C192.902 29.3111 177.106 16 156.5 16C135.894 16 122 27.6743 119 45.2238C116 62.7733 129.394 80.7069 150 80.7069Z" fill="#191847"/>
<path fill-rule="evenodd" clip-rule="evenodd" d="M162.935 78.2443C169.411 82.1475 175.774 84.0333 178.76 83.2635C186.25 81.333 186.938 53.9351 181.143 43.1339C175.349 32.3328 145.558 27.625 144.057 49.0255C143.536 56.4529 146.654 63.0814 151.262 68.4901L143 107H167L162.935 78.2443Z" fill="#B28B67"/>
<path fill-rule="evenodd" clip-rule="evenodd" d="M145.617 34.0002C127.234 52.0002 145.687 71.132 150.743 71.132C151.07 68.5349 152.065 66.0086 153.524 63.6041C152.749 62.6006 152.29 61.3527 152.29 60.0002C152.29 56.6865 155.046 54.0002 158.447 54.0002C159.509 54.0002 160.508 54.2622 161.38 54.7236C168.75 48.4381 177.993 44.0563 182.583 43.1947C190.566 41.6961 164 16.0002 145.617 34.0002Z" fill="#191847"/>
<path fill-rule="evenodd" clip-rule="evenodd" d="M135 190L172.631 313.024L190.86 417.648H205.153L185.891 190H135Z" fill="#997659"/>
<path fill-rule="evenodd" clip-rule="evenodd" d="M121.538 190C124.094 257.547 121.086 292.389 120.514 298.526C119.942 304.663 112.108 344.455 93.5637 419.708L108.794 414.478C138.102 345.459 148.089 309.589 151.45 300.526C154.812 291.463 163.739 254.621 178.233 190H121.538Z" fill="#B28B67"/>
<path fill-rule="evenodd" clip-rule="evenodd" d="M96.4496 413.284C95.3779 412.813 94.1043 413.29 93.7051 414.391C92.977 416.398 92 419.409 92 421.106C92 423.811 92.9012 429 92.9012 429C96.0392 429 149.303 429 149.303 429C149.303 429 151.502 421.732 146.765 421.152C142.028 420.573 138.895 420.106 138.895 420.106L112.68 408.419C112.165 408.189 111.563 408.43 111.348 408.951L109.663 413.039C109.663 413.039 105.278 415.085 102.537 415.085C100.868 415.085 98.2457 414.074 96.4496 413.284Z" fill="#E4E4E4"/>
<path fill-rule="evenodd" clip-rule="evenodd" d="M190.45 413.284C189.378 412.813 188.104 413.29 187.705 414.391C186.977 416.398 186 419.409 186 421.106C186 423.811 186.901 429 186.901 429C190.039 429 243.303 429 243.303 429C243.303 429 245.502 421.732 240.765 421.152C236.028 420.573 232.895 420.106 232.895 420.106L206.68 408.419C206.165 408.189 205.563 408.43 205.348 408.951L203.663 413.039C203.663 413.039 199.278 415.085 196.537 415.085C194.868 415.085 192.246 414.074 190.45 413.284Z" fill="#E4E4E4"/>
<path fill-rule="evenodd" clip-rule="evenodd" d="M130 190L146 252.68H194.87L187.584 190H130Z" fill="#69A1AC"/>
<path fill-rule="evenodd" clip-rule="evenodd" d="M121 190C113.103 213.671 118 252.68 118 252.68H167.87L181.584 190H121Z" fill="#89C5CC"/>
<path fill-rule="evenodd" clip-rule="evenodd" d="M210.729 203.264C191.738 242.816 111.791 216.11 111.791 216.11C111.791 209.256 114.51 202.385 117.365 195.169C120.426 187.431 123.644 179.296 123.837 170.361C124.191 153.921 127.265 104.113 140.093 87.2869C140.327 86.5268 140.564 85.7645 140.804 85L141.692 85.4178C141.831 85.2748 141.97 85.1355 142.111 85L170.101 89.328C170.101 101.988 178.203 113.993 185.497 124.8C187.271 127.43 188.998 129.988 190.549 132.468C192.58 135.716 194.871 139.022 197.22 142.41C209.115 159.569 222.464 178.825 210.729 203.264Z" fill="#C1DEE2"/>
<path fill-rule="evenodd" clip-rule="evenodd" d="M174.863 195.787C176.735 186.127 177.949 179.678 178.506 176.439C193.418 193.29 202.033 201.813 204.35 202.009C208.709 202.376 211.93 198.511 212.847 199.598C214.362 204.098 210.081 215.362 201.898 217C197.991 217.782 191.944 209.724 189.453 206.869C188.473 205.746 183.61 202.052 174.863 195.787ZM200.621 144.282C204.487 144.282 206.563 145.88 208.849 149.105C211.134 152.329 213.297 167.535 209.628 167.535C205.958 167.535 190.583 161.657 190.583 157.705C190.583 153.753 201.074 152.08 201.074 149.105C201.074 146.13 196.756 144.282 200.621 144.282Z" fill="#B28B67"/>
<path fill-rule="evenodd" clip-rule="evenodd" d="M135.565 103.719C125.748 144.651 129.747 179.173 167.058 210.487C166.62 212.06 166.357 213 166.357 213C122.561 182.391 122.54 145.297 135.565 103.719Z" fill="black" fill-opacity="0.2"/>
</g>
<defs>
<filter id="filter0_d" x="0" y="0" width="314" height="440" filterUnits="userSpaceOnUse" color-interpolation-filters="sRGB">
<feFlood flood-opacity="0" result="BackgroundImageFix"/>
<feColorMatrix in="SourceAlpha" type="matrix" values="0 0 0 0 0 0 0 0 0 0 0 0 0 0 0 0 0 0 127 0"/>
<feOffset dy="4"/>
<feGaussianBlur stdDeviation="3.5"/>
<feColorMatrix type="matrix" values="0 0 0 0 0 0 0 0 0 0 0 0 0 0 0 0 0 0 0.2 0"/>
<feBlend mode="normal" in2="BackgroundImageFix" result="effect1_dropShadow"/>
<feBlend mode="normal" in="SourceGraphic" in2="effect1_dropShadow" result="shape"/>
</filter>
</defs>
</svg>
