<svg width="385" height="520" viewBox="0 0 385 520" fill="none" xmlns="http://www.w3.org/2000/svg">
<mask id="mask0" mask-type="alpha" maskUnits="userSpaceOnUse" x="0" y="0" width="385" height="520">
<rect width="385" height="520" rx="12" fill="#C4C4C4"/>
</mask>
<g mask="url(#mask0)">
<path d="M387 108H0V555H387V108Z" fill="#9C9C9C"/>
<path d="M387 -35H0V108H387V-35Z" fill="#E0E0E0"/>
<path d="M381.127 35.8799C381.127 35.8799 373.596 34.713 369.973 33.9351C370.029 33.9351 370.086 33.8796 370.142 33.8796C370.086 32.9905 369.35 32.4905 368.274 32.1571C367.991 31.4903 367.594 30.8235 367.142 30.6013C366.179 30.0456 364.594 30.4901 364.084 31.1013C364.084 31.1013 363.971 28.3231 362.838 27.4897C361.706 26.6562 360.8 26.4339 359.837 26.5451C358.932 26.6562 357.29 27.4341 357.29 27.4341C357.29 27.4341 356.837 25.4893 355.308 24.4892C353.779 23.4334 352.76 24.0447 352.25 24.378C351.741 24.7114 350.722 25.4893 350.722 25.4893C350.722 25.4893 347.155 20.4885 343.644 19.2661C340.134 18.0437 332.773 18.3771 330.112 20.1551C327.451 21.8776 326.035 23.0445 326.035 23.0445C326.035 23.0445 325.582 21.7109 324.11 21.2664C322.185 20.6552 320.6 23.3223 320.6 23.3223C320.6 23.3223 316.579 18.9883 314.315 18.4882C312.05 17.9881 309.219 17.4325 306.161 19.2661C303.217 20.9886 303.33 25.8227 303.387 26.2672C303.16 26.2117 302.538 26.1005 300.612 25.9338C296.989 25.5449 295.12 32.3238 295.12 32.3238C292.742 33.1017 282.72 34.5463 282.72 34.5463C281.531 34.8242 271 35.9354 271 35.9354H284.306C287.646 36.6578 290.874 37.7135 294.554 37.5468C294.554 37.269 294.611 37.0467 294.667 36.7689C296.479 40.1583 301.518 37.1579 304.236 37.3246C306.614 37.4357 308.653 38.4914 311.257 38.4358C313.295 38.4358 315.164 37.8802 317.089 37.8802C320.713 37.8246 324.506 38.9359 328.243 38.4358C330.338 38.158 331.697 37.1579 333.452 37.1579C337.246 37.269 341.04 38.158 345.003 37.8802C347.041 37.7135 348.683 36.8245 350.325 35.9354H381.127V35.8799Z" fill="#FBFBFB"/>
<path d="M375 40.0911C375 40.0911 368.206 39.3688 363.733 38.8131C362.544 38.2019 360.845 37.9241 359.26 37.7019C358.75 37.0351 358.637 35.9794 357.335 35.5348C355.523 34.8681 354.277 35.0903 353.654 35.257C353.031 35.4237 352.692 30.4229 348.615 29.8673C344.482 29.3116 344.538 29.7561 341.934 29.8117C341.934 29.8117 340.575 26.0333 337.8 25.7555C335.026 25.4777 333.327 27.3113 332.988 27.4224C332.988 27.4224 332.591 25.4777 331.402 25.3665C330.213 25.2554 328.458 26.2 328.458 26.2C326.986 25.0887 327.269 24.922 325.287 24.5331C323.306 24.1441 322.23 26.3111 322.23 26.3111C322.23 26.3111 321.777 25.9222 321.154 25.1999C320.531 24.4775 319.002 23.8663 317.36 23.6996C315.718 23.5329 314.982 25.2554 314.926 25.0887C314.869 24.922 314.303 24.1441 313.454 22.9217C312.604 21.6993 309.547 21.0325 307.678 21.4215C305.753 21.8104 305.244 23.6996 305.244 23.6996C305.244 23.6996 303.432 22.2549 300.091 20.0324C296.694 17.8098 287.352 17.3653 282.935 18.9211C278.519 20.4769 273.989 26.8112 273.989 26.8112C273.989 26.8112 272.744 25.8666 272.064 25.4221C271.385 24.9776 270.082 24.1997 268.157 25.5332C266.232 26.8668 265.666 29.3116 265.666 29.3116C265.666 29.3116 263.628 28.2559 262.439 28.1448C261.25 28.0336 260.117 28.3115 258.645 29.3672C257.173 30.4229 257.06 33.9235 257.06 33.9235C256.38 33.2011 254.399 32.5899 253.153 33.3123C251.907 34.0346 251.001 37.2018 251.001 37.2018C247.434 38.2019 235.487 40.0356 235.487 40.0356H242.791C245.113 40.4245 247.491 40.8135 249.812 41.1469C252.36 41.5358 254.512 40.9802 256.946 40.9802C258.815 40.9802 260.287 41.5914 262.439 41.8136C266.742 42.2581 271.158 42.8694 275.461 42.6471C277.839 42.536 279.368 41.5358 281.463 41.0357C283.388 40.5912 284.181 41.0357 286.502 41.5358C289.56 42.147 292.674 42.0915 295.845 42.0915C297.147 42.0915 298.506 42.2026 299.808 42.0359C300.714 41.9248 300.884 40.9802 302.016 41.0357C304.055 41.0913 305.64 44.0918 308.018 41.8136C309.603 43.0916 310.736 41.7581 312.095 41.6469C315.775 41.3135 319.795 42.6471 323.589 42.7027C326.816 42.7582 329.817 42.6471 332.931 41.9248C334.8 41.5358 337.008 40.3134 338.876 40.2023C341.424 40.0356 344.991 41.5358 347.822 41.5914C350.314 41.6469 352.692 41.5358 355.183 41.0913C357.278 40.7023 359.486 40.5356 361.581 40.1467H375V40.0911Z" fill="#F2F2F2"/>
<path d="M333.7 13.7002C339.499 13.7002 344.2 8.99919 344.2 3.2002C344.2 -2.59879 339.499 -7.2998 333.7 -7.2998C327.901 -7.2998 323.2 -2.59879 323.2 3.2002C323.2 8.99919 327.901 13.7002 333.7 13.7002Z" fill="#F9F9F9"/>
<path d="M319.2 63.5H306.9V111.7H319.2V63.5Z" fill="#C6C6C6"/>
<path d="M324.601 63.5H319.201V111.7H324.601V63.5Z" fill="#5E5E5E"/>
<path d="M317.3 66.7H316V65.5H317.3V66.7Z" fill="#F0F0F0"/>
<path d="M316 69.2998H317.3V70.3998H316V69.2998Z" fill="#F0F0F0"/>
<path d="M316 73H317.3V74.2H316V73Z" fill="#F0F0F0"/>
<path d="M316 76.7998H317.3V77.8998H316V76.7998Z" fill="#F0F0F0"/>
<path d="M316 80.5H317.3V81.7H316V80.5Z" fill="#F0F0F0"/>
<path d="M316 84.2998H317.201L317.3 85.4998H316V84.2998Z" fill="#F0F0F0"/>
<path d="M316 88H317.201L317.3 89.2H316V88Z" fill="#F0F0F0"/>
<path d="M316 91.7998H317.201L317.3 92.9998H316V91.7998Z" fill="#F0F0F0"/>
<path d="M316 95.5H317.201L317.3 96.7H316V95.5Z" fill="#F0F0F0"/>
<path d="M316 99.2998H317.201L317.3 100.5H316V99.2998Z" fill="#F0F0F0"/>
<path d="M317.3 104.2H316V103H317.201L317.3 104.2Z" fill="#F0F0F0"/>
<path d="M310.001 66.7H308.701V65.5H310.001V66.7Z" fill="#F0F0F0"/>
<path d="M308.701 69.2998H310.001V70.3998H308.701V69.2998Z" fill="#F0F0F0"/>
<path d="M308.701 73H310.001V74.2H308.701V73Z" fill="#F0F0F0"/>
<path d="M308.701 76.7998H310.001V77.8998H308.701V76.7998Z" fill="#F0F0F0"/>
<path d="M308.701 80.5H310.001V81.7H308.701V80.5Z" fill="#F0F0F0"/>
<path d="M308.701 84.2998H310.001V85.4998H308.701V84.2998Z" fill="#F0F0F0"/>
<path d="M308.701 88H310.001V89.2H308.701V88Z" fill="#F0F0F0"/>
<path d="M308.701 91.7998H310.001V92.9998H308.701V91.7998Z" fill="#F0F0F0"/>
<path d="M308.701 95.5H310.001V96.7H308.701V95.5Z" fill="#F0F0F0"/>
<path d="M308.701 99.2998H309.901L310.001 100.5H308.701V99.2998Z" fill="#F0F0F0"/>
<path d="M310.001 104.2H308.701V103H309.901L310.001 104.2Z" fill="#F0F0F0"/>
<path d="M313.7 66.6H312.4V65.5H313.7V66.6Z" fill="#F0F0F0"/>
<path d="M312.4 69.2002H313.7V70.4002H312.4V69.2002Z" fill="#F0F0F0"/>
<path d="M312.4 73H313.7V74.2H312.4V73Z" fill="#F0F0F0"/>
<path d="M312.4 76.7002H313.7V77.9002H312.4V76.7002Z" fill="#F0F0F0"/>
<path d="M312.4 80.5H313.7V81.7H312.4V80.5Z" fill="#F0F0F0"/>
<path d="M312.4 84.2002H313.7V85.4002H312.4V84.2002Z" fill="#F0F0F0"/>
<path d="M312.4 88H313.7V89.2H312.4V88Z" fill="#F0F0F0"/>
<path d="M312.4 91.7002H313.7V92.9002H312.4V91.7002Z" fill="#F0F0F0"/>
<path d="M312.4 95.5H313.7V96.7H312.4V95.5Z" fill="#F0F0F0"/>
<path d="M312.4 99.2998H313.7V100.4H312.4V99.2998Z" fill="#F0F0F0"/>
<path d="M313.7 104.2H312.4V103H313.6L313.7 104.2Z" fill="#F0F0F0"/>
<path d="M307.4 92.8999H286.3V115.1H307.7L307.4 92.8999Z" fill="#C6C6C6"/>
<path d="M314.7 85.6001L307.4 92.9001L307.7 115.1H321.8V92.7001L314.7 85.6001Z" fill="#545354"/>
<path d="M314.7 85.6001H293.6L286.3 92.9001H307.4L314.7 85.6001Z" fill="#3A3A3A"/>
<path d="M292.1 95.3999H288.9V100.8H292.1V95.3999Z" fill="white"/>
<path d="M304.901 95.3999H301.701V100.8H304.901V95.3999Z" fill="white"/>
<path d="M300.6 95.3999H297.4V100.8H300.6V95.3999Z" fill="white"/>
<path d="M296.301 95.3999H293.101V100.8H296.301V95.3999Z" fill="white"/>
<path d="M258.9 154.6V146.7L250.2 138L244 144.3V154.6H258.9Z" fill="#C6C6C6"/>
<path d="M250.2 138H264.8L273.5 146.7H258.9L250.2 138Z" fill="#3A3A3A"/>
<path d="M258.9 146.7V154.6H273.5V146.8C273.5 146.7 258.9 146.7 258.9 146.7Z" fill="#5E5E5E"/>
<path d="M252 147.4H248.4V154.5H252V147.4Z" fill="#F0F0F0"/>
<path d="M302.3 141.9H281.1V155.1H302.3V141.9Z" fill="#5E5E5E"/>
<path d="M296 135.6H274.8L281.1 141.9H302.3L296 135.6Z" fill="#282828"/>
<path d="M272 155V138.3L274.8 135.6L281.1 141.9V155.1L272 155Z" fill="#545354"/>
<path d="M285.9 143.7H284.1V146.6H285.9V143.7Z" fill="#F0F0F0"/>
<path d="M288.6 143.7H286.8V146.6H288.6V143.7Z" fill="#F0F0F0"/>
<path d="M291.3 143.7H289.5V146.6H291.3V143.7Z" fill="#F0F0F0"/>
<path d="M294 143.7H292.2V146.6H294V143.7Z" fill="#F0F0F0"/>
<path d="M278.8 134L280.4 135.6H283.6L282 134H278.8Z" fill="#282828"/>
<path d="M278.8 134V136.4L280.4 138.1V135.6L278.8 134Z" fill="#545354"/>
<path d="M283.6 135.6H280.4V138.1H283.6V135.6Z" fill="#5E5E5E"/>
<path d="M378.901 56.3999H366.601V114.9H378.901V56.3999Z" fill="#C6C6C6"/>
<path d="M386.4 56.3999H378.9V114.9H386.4V56.3999Z" fill="#5E5E5E"/>
<path d="M377.401 60.1002H368.701V58.7002H377.301L377.401 60.1002Z" fill="#F0F0F0"/>
<path d="M368.701 63.3003H377.301L377.401 64.7003H368.701V63.3003Z" fill="#F0F0F0"/>
<path d="M368.601 67.8003H377.301L377.401 69.3003H368.601V67.8003Z" fill="#F0F0F0"/>
<path d="M368.601 72.4004H377.301L377.401 73.8004H368.601V72.4004Z" fill="#F0F0F0"/>
<path d="M368.601 76.9004H377.301L377.401 78.4004H368.601V76.9004Z" fill="#F0F0F0"/>
<path d="M368.601 81.5H377.301L377.401 82.9H368.601V81.5Z" fill="#F0F0F0"/>
<path d="M368.601 86H377.301L377.401 87.5H368.601V86Z" fill="#F0F0F0"/>
<path d="M368.601 90.6001H377.201L377.401 92.0001H368.601V90.6001Z" fill="#F0F0F0"/>
<path d="M368.601 95.2001L377.201 95.1001L377.301 96.6001H368.601V95.2001Z" fill="#F0F0F0"/>
<path d="M368.601 99.7002H377.201L377.301 101.1H368.601V99.7002Z" fill="#F0F0F0"/>
<path d="M377.301 105.7H368.601V104.3H377.201L377.301 105.7Z" fill="#F0F0F0"/>
<path d="M383.201 60.1998H381V58.7998H383.201V60.1998Z" fill="#F0F0F0"/>
<path d="M381 63.3999H383.201V64.7999H381V63.3999Z" fill="#F0F0F0"/>
<path d="M381 67.8999H383.201V69.2999H381V67.8999Z" fill="#F0F0F0"/>
<path d="M381 72.5H383.201V73.9H381V72.5Z" fill="#F0F0F0"/>
<path d="M381 77H383.201V78.4H381V77Z" fill="#F0F0F0"/>
<path d="M381 81.5996H383.201V82.9996H381V81.5996Z" fill="#F0F0F0"/>
<path d="M381 86.0996H383.201V87.5996H381V86.0996Z" fill="#F0F0F0"/>
<path d="M381 90.6997H383.201V92.0997H381V90.6997Z" fill="#F0F0F0"/>
<path d="M381 95.1997H383.201V96.6997H381V95.1997Z" fill="#F0F0F0"/>
<path d="M381 99.7998H383.201V101.2H381V99.7998Z" fill="#F0F0F0"/>
<path d="M383.201 105.8H381V104.3H383.201V105.8Z" fill="#F0F0F0"/>
<path d="M314.601 91.7998V115.4L341.301 115.5V102.9H336.701V98.8998H332.501V91.7998H314.601Z" fill="#C6C6C6"/>
<path d="M320.1 93.7002H316.5V95.9002H320.1V93.7002Z" fill="#F0F0F0"/>
<path d="M330.6 93.7002H327V95.9002H330.6V93.7002Z" fill="#F0F0F0"/>
<path d="M325.301 93.7002H321.701V95.9002H325.301V93.7002Z" fill="#F0F0F0"/>
<path d="M338.601 85.7002H320.701L314.601 91.8002L332.501 91.9002L338.601 85.8002" fill="#282828"/>
<path d="M341.3 88.3998L338.6 85.7998L332.5 91.8998V98.8998H336.701V102.9H341.3V93.7998V88.3998Z" fill="#5E5E5E"/>
<path d="M275.701 91.2998C274.801 90.0998 274.701 88.1998 275.101 87.1998C275.501 86.1998 277.401 86.1998 277.401 86.1998C277.401 86.1998 277.101 81.9998 279.701 82.4998C282.301 82.8998 281.001 88.8998 281.001 88.8998C281.001 88.8998 283.601 89.5998 283.501 92.5998C283.401 95.5998 281.701 96.0998 281.701 96.0998C281.701 96.0998 284.601 97.4998 283.701 101C283.101 103.3 281.801 105.6 279.201 105.8C277.601 105.9 275.901 105.2 274.901 103.9C273.901 102.8 273.201 101.2 273.301 99.6998C273.401 98.1998 274.301 97.0998 275.201 95.9998L275.301 95.8998C275.301 95.7998 275.301 95.7998 275.201 95.7998C274.801 95.2998 274.001 95.1998 274.001 93.8998C274.201 91.7998 275.801 91.3998 275.701 91.2998Z" fill="#3A3A3A"/>
<path d="M282.501 97.8996L280.501 99.9996L280.401 100.1V97.8996L280.201 100.3L279.301 101.3L279.101 94.4996L281.701 91.3996L280.401 92.6996V91.3996L280.201 92.8996L279.101 94.0996L278.901 87.5996V93.1996V96.2996L277.701 94.9996L277.501 92.9996L277.601 94.7996L276.101 93.1996L278.901 96.7996V114.5L279.501 114.6L279.301 101.6L282.501 97.8996Z" fill="#C6C6C6"/>
<path d="M254.801 100.9C254.401 98.4999 254.501 96.8999 256.401 95.0999C257.601 93.9999 259.201 94.0999 260.401 95.1999C260.501 92.6999 262.501 89.8999 265.201 90.1999C267.401 90.3999 268.401 92.9999 268.701 94.8999C270.501 94.1999 271.701 94.7999 272.001 96.6999C275.201 95.8999 278.201 98.8999 277.401 102.1C277.101 103.7 275.701 104.6 274.201 104.7C273.001 104.8 272.901 104.5 272.101 103.9C272.501 105.5 267.301 105.8 266.401 104.3C264.601 105.2 262.701 106.5 260.601 105.9C259.901 105.7 259.201 105.3 258.701 104.8C258.601 104.7 257.201 103.3 257.201 103.3C256.301 103.7 255.501 103.7 254.701 103C254.101 102.5 254.001 101.5 254.801 100.9Z" fill="#5E5E5E"/>
<path d="M269.501 102.2L273.701 101.7L269.701 102L272.901 98.5999L268.701 102.8L268.501 99.8999V103L264.801 106.6L264.601 96.6999L266.401 94.4999L264.601 96.4999V93.3999V103.3L259.301 98.9999L260.801 100.3L258.701 101.5L260.901 100.4L264.601 103.7V123.6L265.101 123.7L264.801 107.2L269.501 102.2Z" fill="#C6C6C6"/>
<path d="M386.2 265.2C377.7 262.2 367.2 259.7 358.2 258C342.7 255.1 326.3 256 311.2 260.4C300.5 250.6 306 233.6 316.4 223.6C325.3 215.1 337.2 210.5 346.1 202.1C363.7 185.3 371.4 160.2 370.5 136.3C370.2 127.4 367.4 113.7 359.1 108.4C358.1 107.8 350.2 108.2 345.3 108.3C352.3 112.6 353.2 122.9 353.6 130.2C354.1 140.9 351.9 153 347.6 162.8C345.3 167.9 342.3 172.7 338.7 176.9C335 181.2 330.7 184.2 326.4 187.7C318.7 193.8 310 199.2 301.2 203.7C289.3 209.7 277.7 218.2 274.7 230C271.5 242.6 278.9 256.4 273.8 268.5C270.7 276 266.4 277.1 258.5 280.4C256.2 271.5 251.5 262.7 243.4 255.6C235.3 248.5 224.5 244.2 213.7 240.9C192 234.1 169.2 230.1 146.2 229.2C130.7 228.6 114.4 229.1 100.9 222.5C89.7004 217 82.1004 207.4 72.7004 199.8C52.6004 183.5 26.5998 176.4 -0.000188589 182C-0.000188589 186.6 -0.000188589 191.4 -0.000188589 196C20.6998 194.2 41.7004 193.8 54.3004 208.4C58.2004 212.9 60.3004 218.3 63.3004 223.3C69.9004 234.2 81.1004 242.9 94.1004 247.5C108.9 252.7 125.3 252.5 141.1 254.2C163.3 256.5 184.9 262.6 204.4 272.1C209.3 274.5 212.3 279.4 212.6 284.3C213.2 292.7 203 294.1 194.4 297.8C182.2 303.1 175.1 315.2 173.6 327.1C172.1 339.1 175.3 351.1 179.2 362.6C181.5 369.5 184 377.3 180.1 383.6C175.5 391.2 164.3 393 154.6 393.8C102.3 398.2 52.5998 398.3 -0.000188589 398C-0.600189 411.6 -0.099592 426.4 -0.699592 440C-0.999592 446.8 -0.399592 452.3 -0.699592 459.2C-0.799592 462.4 -1.39959 462.8 -1.09959 466C-0.699592 470.4 -5.00032 472.2 -0.000319958 472C29.9997 471 60.8004 469.6 90.7004 467.2C128.2 464.1 165.6 459.2 202 450.4C216.5 446.9 231.4 442.5 242.3 433.3C261.2 417.3 262.6 389.7 250.8 369C244.8 358.5 235.6 346.9 241.1 336.1C246.9 324.7 264.4 323.6 277.1 318.1C293.6 310.9 303 295 318.4 286.1C331.1 278.8 347.1 276.9 362.2 278.2C377.3 279.5 371.6 278.3 386 282.6" fill="#CDCDCD"/>
<path d="M385 318H-1V520H385V318Z" fill="url(#paint0_linear)"/>
<path d="M61.7002 336.6C62.6002 348.7 119.5 384.1 119.8 385.1C119.9 385.5 114 399.5 102.1 427.1L107.1 429C125.4 399.8 134.1 383.7 133.2 380.6C131.9 376.2 117.1 361.5 89.1002 336.7L61.7002 336.6Z" fill="#F9F9F9"/>
<path d="M103.4 420.9L111.5 423.9C128.6 404.6 135.3 388.6 134.1 380.5C133.3 375.1 118.6 360.5 90.1001 336.7H61.1001C62.1001 364.6 114.8 385.3 115.5 386.5C116.2 387.6 109.3 399.3 103.4 420.9Z" fill="#282828"/>
<path d="M100.207 426.151C99.2241 427.389 98.5659 428.32 98.3265 428.978C98.0187 429.824 97.6681 431.079 97.3685 432.78C98.3082 433.122 106.953 436.268 123.304 442.219C124.783 440.203 124.851 438.845 123.476 438.238C122.101 437.631 120.982 436.905 119.982 436.434L109.904 426.7C109.75 426.538 109.434 426.529 109.272 426.683L107.836 428.289C106.281 428.468 105.051 428.339 104.205 428.031C103.547 427.792 102.71 427.168 101.694 426.16C101.326 425.707 100.694 425.689 100.207 426.151C100.301 426.185 100.301 426.185 100.207 426.151Z" fill="#5E5E5E"/>
<path d="M68.2005 336.6L42.9005 397.5L18.0005 448.9H23.9005L88.1005 336.6H68.2005Z" fill="#F9F9F9"/>
<path d="M17.6003 446.5C17.1003 448 16.8003 449.1 16.8003 449.8C16.8003 450.7 16.9003 452 17.2003 453.7C18.2003 453.7 27.4003 453.7 44.8003 453.7C45.5003 451.3 45.1003 450 43.6003 449.9C42.1003 449.8 40.8003 449.5 39.7003 449.4L26.9003 443.7C26.7003 443.6 26.4003 443.7 26.3003 443.9L25.5003 445.9C24.1003 446.6 22.9003 446.9 22.0003 446.9C21.3003 446.9 20.3003 446.6 19.0003 446C18.5003 445.7 17.9003 446 17.6003 446.5Z" fill="#5E5E5E"/>
<path d="M20.2002 438.2L33.3002 440.6C43.4002 425.8 85.6002 364.9 90.3002 336.6H61.2002C45.7002 357.1 29.8002 423.1 20.2002 438.2Z" fill="#3A3A3A"/>
<path d="M73.7002 277.9C71.4002 275.3 69.9002 272 70.2002 268.4C70.9002 257.9 85.5002 260.2 88.4002 265.5C91.2002 270.8 90.9002 284.2 87.2002 285.2C85.7002 285.6 82.6002 284.7 79.4002 282.7L81.4002 296.8H69.7002L73.7002 277.9Z" fill="#F9F9F9"/>
<path d="M81.7003 259.4C80.2003 259.1 76.0003 259 75.2003 259C74.7003 259 74.2003 259.1 73.9003 258.7C73.7003 258.3 73.7003 257.7 73.7003 257.3C73.6003 256.8 73.5003 256.3 73.4003 255.8C73.1003 254.4 72.6003 253.1 71.8003 251.8C70.5003 249.5 68.5003 247.6 66.0003 246.6C63.3003 245.4 60.2003 245.2 57.2003 245.4C54.0003 245.7 51.2003 246.7 48.2003 247.7C45.4003 248.6 42.4003 249 39.4003 248.5C36.4003 248 34.2003 246.4 31.6003 244.9C29.0003 243.3 26.1003 242.3 23.0003 242.5C20.2003 242.7 17.5003 243.9 15.2003 245.5C13.0003 247 11.2003 248.7 10.2003 251.2C9.10028 253.9 9.10028 256.8 10.9003 259.2C13.5003 262.6 18.4003 263.5 22.5003 263.4C24.9003 263.3 27.2003 262.9 29.4003 262.1C32.4003 261.1 34.9003 259.3 37.7003 257.9C39.0003 257.2 40.3003 256.7 41.8003 256.3C43.2003 255.9 44.5003 255.7 45.8003 256.6C47.1003 257.5 48.3003 258.3 49.8003 258.9C51.2003 259.4 52.8003 259.7 54.3003 259.7C57.3003 259.7 60.2003 258.7 63.1003 258.1C65.5003 257.6 68.0003 257.1 70.4003 257.6C71.4003 257.8 72.9003 258.2 73.2003 259.3C67.1003 260.4 64.7003 267.9 66.4003 273.5C67.3003 276.5 72.9003 280 75.1003 278.4C76.5003 277.4 75.6003 276.1 75.1003 275.2C74.1003 273.5 73.7003 271.4 75.6003 270.3C77.3003 269.3 79.0003 271.7 79.0003 271.7C79.5003 271.7 83.4003 269.4 86.1003 266.2C88.8003 266.4 89.2003 264.6 88.5003 263.2C87.8003 261.5 83.8003 259.7 81.7003 259.4Z" fill="#3A3A3A"/>
<path d="M105.8 317.4L125.1 314.8C129 312.6 132.5 311.2 135.8 310.4C136.7 310.4 138.2 310.7 136 312.5C133.8 314.3 131.6 316.3 132 317.3C132.4 318.3 134.4 317.9 134.7 319.4C134.9 320.4 131.7 320.5 124.9 319.9L109.2 326.1L105.8 317.4ZM45.0001 321.8H55.7001C43.9001 348.3 37.8001 362.1 37.3001 363.4C36.2001 366.2 38.6001 370.5 39.6001 372.8C36.3001 374.3 36.6001 368.8 32.4001 370.7C28.6001 372.5 25.6001 375.7 21.2001 373C20.7001 372.7 20.1001 371.4 21.5001 370.4C25.1001 367.9 30.3001 363.6 31.0001 362.2C32.0001 360.3 36.6001 346.8 45.0001 321.8Z" fill="#F9F9F9"/>
<path d="M74.4 287.8L82.8 288.4C84.9 307.1 96.1 318.9 121.4 314.9L124.8 339C101.2 342 80.6 332.6 76.3 307.1C75.1 300.4 74.2 293.6 74.4 287.8Z" fill="#545354"/>
<path d="M70.2 285.4L82.9 288.3C82.9 310.2 89.9 324.1 93.4 340.2H59.2C58.7 345.8 58.4 351.5 58.3 357.3H32.5C38.3 326.3 50.6 302.3 69.4 285.3L70.2 285.4Z" fill="#5E5E5E"/>
<path d="M64.6002 309C63.7002 322.6 64.2002 333 66.2002 340.2H59.2002C60.1002 329.2 61.8002 318.8 64.6002 309Z" fill="black" fill-opacity="0.1"/>
<path d="M312.8 314.4C311.8 314.4 311 315.5 311 316.9C311 317.1 311 317.3 311 317.4C311 317.9 311 318.4 311 319C311 319.8 311 320.6 311 321.4C311 322.5 311 323.5 311 324.6C311 325.9 311 327.1 311 328.4C311 329.8 311 331.2 311 332.6C311 334.1 311 335.7 311 337.2C311 338.8 311 340.4 311 342C311 343.6 311 345.2 311 346.9C311 348.5 311 350.1 311 351.7C311 353.2 311 354.8 311 356.3C311 357.7 311 359.1 311 360.6C311 361.9 311 363.1 311 364.4C311 365.5 311 366.5 311 367.6C311 368.4 311 369.2 311 370.1C311 370.6 311 371.2 311 371.7C311 372 311 372.4 311 372.7C311 373.1 311.4 373.2 311.6 373.3C312 373.5 312.4 373.5 312.8 373.5C313.1 373.5 313.5 373.5 313.8 373.4C314 373.3 314.4 373.2 314.5 372.9C314.5 372.8 314.5 372.8 314.5 372.7C314.5 372.4 314.5 372 314.5 371.7C314.5 371.2 314.5 370.7 314.5 370.2C314.5 369.4 314.5 368.6 314.5 367.8C314.5 366.8 314.5 365.8 314.5 364.8C314.5 363.6 314.5 362.4 314.5 361.2C314.5 359.8 314.5 358.5 314.5 357.1C314.5 355.6 314.5 354.2 314.5 352.7C314.5 351.2 314.5 349.6 314.5 348.1C314.5 346.5 314.5 345 314.5 343.4C314.5 341.8 314.5 340.3 314.5 338.7C314.5 337.2 314.5 335.7 314.5 334.2C314.5 332.8 314.5 331.4 314.5 330C314.5 328.7 314.5 327.5 314.5 326.2C314.5 325.1 314.5 324 314.5 322.9C314.5 322 314.5 321.1 314.5 320.2C314.5 319.6 314.5 318.9 314.5 318.3C314.5 318 314.5 317.6 314.5 317.3V317.2C314.6 315.6 313.8 314.4 312.8 314.4Z" fill="#5E5E5E"/>
<path d="M268.901 296L348.901 293.3L366.501 306.9L351.601 324.1L270.701 328.9L268.901 296Z" fill="#F9F9F9"/>
<path d="M348.901 293.3L268.901 296L270.701 328.9L269.401 327.2L267.701 294.3L347.601 292L348.901 293.3Z" fill="#5E5E5E"/>
<path d="M238.101 217C238.601 217 239.101 217.6 239.101 218.3C239.101 218.4 239.101 218.5 239.101 218.6C239.101 218.9 239.101 219.1 239.101 219.4C239.101 219.8 239.101 220.2 239.101 220.7C239.101 221.3 239.101 221.8 239.101 222.4C239.101 223.1 239.101 223.7 239.101 224.4C239.101 225.1 239.101 225.9 239.101 226.6C239.101 227.4 239.101 228.2 239.101 229C239.101 229.8 239.101 230.7 239.101 231.5C239.101 232.3 239.101 233.2 239.101 234C239.101 234.8 239.101 235.7 239.101 236.5C239.101 237.3 239.101 238.1 239.101 238.9C239.101 239.6 239.101 240.4 239.101 241.1C239.101 241.8 239.101 242.4 239.101 243.1C239.101 243.7 239.101 244.2 239.101 244.8C239.101 245.2 239.101 245.7 239.101 246.1C239.101 246.4 239.101 246.7 239.101 246.9C239.101 247.1 239.101 247.2 239.101 247.4C239.101 247.6 238.901 247.7 238.801 247.7C238.601 247.8 238.401 247.8 238.201 247.8C238.001 247.8 237.801 247.8 237.701 247.7C237.601 247.7 237.401 247.6 237.301 247.4V247.3C237.301 247.1 237.301 246.9 237.301 246.8C237.301 246.5 237.301 246.3 237.301 246C237.301 245.6 237.301 245.2 237.301 244.8C237.301 244.3 237.301 243.7 237.301 243.2C237.301 242.6 237.301 241.9 237.301 241.3C237.301 240.6 237.301 239.9 237.301 239.2C237.301 238.4 237.301 237.7 237.301 236.9C237.301 236.1 237.301 235.3 237.301 234.5C237.301 233.7 237.301 232.9 237.301 232C237.301 231.2 237.301 230.4 237.301 229.6C237.301 228.8 237.301 228 237.301 227.2C237.301 226.5 237.301 225.7 237.301 225C237.301 224.3 237.301 223.7 237.301 223C237.301 222.4 237.301 221.8 237.301 221.3C237.301 220.8 237.301 220.4 237.301 219.9C237.301 219.6 237.301 219.2 237.301 218.9C237.301 218.7 237.301 218.5 237.301 218.4V218.3C237.101 217.6 237.601 217 238.101 217Z" fill="#5E5E5E"/>
<path d="M261.201 207.7L219.3 205.7L210 212.8L217.7 221.9L260.1 224.9L261.201 207.7Z" fill="#C6C6C6"/>
<path d="M219.3 205.7L261.2 207.7L260.1 224.9L260.8 224.1L261.9 206.8L219.9 205.1L219.3 205.7Z" fill="#5E5E5E"/>
<path d="M329.9 248.6V231.9L339.2 222.7L348.6 232.2V248.6H330" fill="#C6C6C6"/>
<path d="M374.401 232.2L364.801 222.7H339.101L348.601 232.2H374.401Z" fill="#3A3A3A"/>
<path d="M352.2 227.5H361.4L356.8 232.2L352.2 227.5Z" fill="#C6C6C6"/>
<path d="M374.401 232.2H366.001L361.401 227.5L356.801 232.2H348.601V248.6H374.401V232.2Z" fill="#5E5E5E"/>
<path d="M358.7 233.3V240.7H364.1V233.3H358.7ZM361.5 237.1H363.8V240.3H361.5V237.1ZM361.5 233.6H363.8V236.8H361.5V233.6ZM359 237.1H361.3V240.3H359V237.1ZM359 233.6H361.3V236.8H359V233.6Z" fill="white"/>
<path d="M358.46 241.223L364.36 241.223L364.36 240.623L358.46 240.623L358.46 241.223Z" fill="white"/>
<path d="M316.101 209.1C315.701 209.2 315.201 209.4 314.701 209.8C312.001 212 310.901 216.2 310.001 219.2C309.001 222.7 308.6 226.3 309.3 229.8C310 232.7 311.9 235.3 315.8 235.4C321.3 235.6 323.201 231.2 323.501 227.4C323.801 223.6 323.2 219.9 321.9 216.3C321.3 214.6 319.301 208.5 316.101 209.1Z" fill="#3A3A3A"/>
<path d="M319.301 226.8L316.701 228.9L316.601 218.8L318.201 217.1L316.601 218.6L316.501 212.5L316.401 223.5L313.701 220L316.401 224.2L316.201 249.7H317.001L316.701 229.5L319.301 226.8Z" fill="#C6C6C6"/>
<path d="M82.9002 182V165.3L73.7002 156.1L64.2002 165.5V182H82.8002" fill="#5E5E5E"/>
<path d="M38.5005 165.6L48.0005 156.1H73.7005L64.2005 165.6H38.5005Z" fill="#3A3A3A"/>
<path d="M60.6004 160.8H51.4004L56.0004 165.5L60.6004 160.8Z" fill="#5E5E5E"/>
<path d="M38.5005 165.5H46.9005L51.4005 160.8L56.0005 165.5H64.3005V182H38.5005V165.5Z" fill="#C6C6C6"/>
<path d="M47.0003 167.1H45.8003V170.3H47.0003V167.1Z" fill="white"/>
<path d="M51.9002 167.2H50.7002V170.4H51.9002V167.2Z" fill="white"/>
<path d="M56.8006 167.2H55.6006V170.4H56.8006V167.2Z" fill="white"/>
<path d="M61.7005 167.1H60.5005V170.3H61.7005V167.1Z" fill="white"/>
<path d="M47.0003 173H45.8003V176.2H47.0003V173Z" fill="white"/>
<path d="M51.8006 173H50.6006V176.2H51.8006V173Z" fill="white"/>
<path d="M56.8006 173H55.6006V176.2H56.8006V173Z" fill="white"/>
<path d="M61.6004 173H60.4004V176.2H61.6004V173Z" fill="white"/>
<path d="M90.1006 186.1V169.4L99.3006 160.2L108.801 169.7V186.1H90.2006" fill="#C6C6C6"/>
<path d="M134.5 169.7L125 160.2H99.3003L108.8 169.7H134.5Z" fill="#545354"/>
<path d="M112.4 165H121.6L117 169.7L112.4 165Z" fill="#C6C6C6"/>
<path d="M134.5 169.7H126.1L121.6 165L117 169.7H108.8V186.1H134.5V169.7Z" fill="#5E5E5E"/>
<path d="M118.9 170.8V178.2H124.3V170.8H118.9ZM121.7 174.6H124V177.8H121.7V174.6ZM121.7 171.1H124V174.3H121.7V171.1ZM119.1 174.6H121.4V177.8H119.1V174.6ZM119.1 171.1H121.4V174.3H119.1V171.1Z" fill="white"/>
<path d="M118.676 178.75L124.576 178.75L124.576 178.15L118.676 178.15L118.676 178.75Z" fill="white"/>
<path d="M20.5004 131.6C20.1004 131.7 19.6004 131.9 19.1004 132.3C16.4004 134.5 15.3004 138.7 14.4004 141.7C13.4004 145.2 13.0004 148.8 13.7004 152.3C14.4004 155.2 16.3004 157.8 20.2004 157.9C25.7004 158.1 27.6004 153.7 27.9004 149.9C28.2004 146.1 27.6004 142.4 26.3004 138.8C25.8004 137.1 23.7004 131 20.5004 131.6Z" fill="#5E5E5E"/>
<path d="M23.7002 149.3L21.2002 151.4L21.0002 141.3L22.7002 139.6L21.0002 141.1L20.9002 135V146L18.2002 142.5L20.9002 146.7L20.7002 172.2H21.5002L21.2002 152L23.7002 149.3Z" fill="#C6C6C6"/>
<path d="M109.401 184.9H86.1006V199.4H109.401V184.9Z" fill="#5E5E5E"/>
<path d="M102.5 177.9H79.2002L86.1002 184.9H109.5L102.5 177.9Z" fill="#3A3A3A"/>
<path d="M76.2002 199.3V180.9L79.2002 177.9L86.1002 184.9V199.3H76.2002Z" fill="#C6C6C6"/>
<path d="M92.5005 186.8H88.5005V189.9H92.5005V186.8Z" fill="#F0F0F0"/>
</g>
<defs>
<linearGradient id="paint0_linear" x1="190.041" y1="550.222" x2="193.624" y2="340.99" gradientUnits="userSpaceOnUse">
<stop stop-color="white"/>
<stop offset="1" stop-color="white" stop-opacity="0"/>
</linearGradient>
</defs>
</svg>
