<svg width="385" height="520" viewBox="0 0 385 520" fill="none" xmlns="http://www.w3.org/2000/svg">
<mask id="mask0" mask-type="alpha" maskUnits="userSpaceOnUse" x="0" y="0" width="385" height="520">
<rect width="385" height="520" rx="12" fill="#C4C4C4"/>
</mask>
<g mask="url(#mask0)">
<path d="M385 346H0V548H385V346Z" fill="#F99506"/>
<path d="M385 -40H0V346H385V-40Z" fill="#F9BB4E"/>
<path d="M385 346H0V548H385V346Z" fill="url(#paint0_linear)"/>
<path opacity="0.27" d="M294 90L0 243.608L0.00020884 346H288.625H385V111L354 90H294Z" fill="#F2F2F2"/>
<path d="M324.03 96.2359C327.674 96.2359 330.627 93.3698 330.627 89.8343C330.627 86.2987 327.674 83.4326 324.03 83.4326C320.387 83.4326 317.434 86.2987 317.434 89.8343C317.434 93.3698 320.387 96.2359 324.03 96.2359Z" fill="#F99506"/>
<path d="M294 90L324.23 66.228L354 90H294Z" fill="#043054"/>
<path d="M324.231 67.7283C323.731 67.7283 323.431 67.3282 323.431 66.8281V-39.8996C323.431 -40.3997 323.831 -40.7998 324.231 -40.7998C324.731 -40.7998 325.031 -40.3997 325.031 -39.8996V66.8281C325.131 67.4282 324.731 67.7283 324.231 67.7283Z" fill="#043054"/>
<path d="M287.088 256.2C287.088 263.4 282.488 269.8 275.488 273.7C273.888 274.6 274.888 280.1 274.588 281.1C274.288 282 268.388 276.7 267.388 276.9C264.688 277.6 261.688 277.9 258.688 277.9C242.988 277.9 230.288 268.2 230.288 256.2C230.288 244.2 242.988 234.5 258.688 234.5C274.388 234.5 287.088 244.2 287.088 256.2Z" fill="#D6F5FC"/>
<path d="M254.288 335.3C253.188 335.3 252.288 336.6 252.288 338.2C252.288 338.4 252.288 338.6 252.288 338.8C252.288 339.4 252.288 340 252.288 340.6C252.288 341.5 252.288 342.4 252.288 343.3C252.288 344.5 252.288 345.7 252.288 346.9C252.288 348.3 252.288 349.7 252.288 351.1C252.288 352.7 252.288 354.3 252.288 355.9C252.288 357.6 252.288 359.3 252.288 361.1C252.288 362.9 252.288 364.7 252.288 366.5C252.288 368.3 252.288 370.1 252.288 372C252.288 373.8 252.288 375.6 252.288 377.4C252.288 379.1 252.288 380.8 252.288 382.6C252.288 384.2 252.288 385.8 252.288 387.4C252.288 388.8 252.288 390.2 252.288 391.7C252.288 392.9 252.288 394.1 252.288 395.3C252.288 396.2 252.288 397.1 252.288 398.1C252.288 398.7 252.288 399.3 252.288 399.9C252.288 400.3 252.288 400.6 252.288 401C252.288 401.4 252.688 401.6 252.988 401.7C253.388 401.9 253.888 401.9 254.288 401.9C254.688 401.9 255.088 401.9 255.388 401.7C255.588 401.6 256.088 401.5 256.188 401.2C256.188 401.1 256.188 401.1 256.188 401C256.188 400.6 256.188 400.2 256.188 399.8C256.188 399.2 256.188 398.6 256.188 398.1C256.188 397.2 256.188 396.3 256.188 395.4C256.188 394.3 256.188 393.1 256.188 392C256.188 390.6 256.188 389.3 256.188 387.9C256.188 386.4 256.188 384.8 256.188 383.3C256.188 381.7 256.188 380 256.188 378.4C256.188 376.7 256.188 374.9 256.188 373.2C256.188 371.4 256.188 369.7 256.188 367.9C256.188 366.2 256.188 364.4 256.188 362.7C256.188 361 256.188 359.3 256.188 357.6C256.188 356 256.188 354.4 256.188 352.8C256.188 351.4 256.188 349.9 256.188 348.5C256.188 347.3 256.188 346 256.188 344.8C256.188 343.8 256.188 342.8 256.188 341.8C256.188 341.1 256.188 340.4 256.188 339.7C256.188 339.3 256.188 338.9 256.188 338.5C256.188 338.4 256.188 338.4 256.188 338.3C256.288 336.6 255.388 335.3 254.288 335.3Z" fill="#5FB2D3"/>
<path d="M110.688 322.8L127.188 378.1L134.888 419.7H142.688L134.988 322.8H110.688Z" fill="#997659"/>
<path d="M103.288 322.8C104.388 351.6 103.988 367.2 103.688 369.8C103.388 372.4 101.988 389.9 91.9883 420.5H100.088C113.288 391.1 117.888 373.6 119.388 369.8C120.888 366 125.388 350.3 131.888 322.8H103.288Z" fill="#997659"/>
<path d="M110.389 322.8C114.689 341.8 122.089 372.2 132.589 414H143.989C144.789 371.1 141.289 342.9 135.089 322.8H110.389Z" fill="#302072"/>
<path d="M103.288 322.8C104.388 351.6 101.488 379.9 92.4883 414.4H104.588C117.788 385.5 127.288 357.3 133.688 322.8H103.288V322.8Z" fill="#3E2884"/>
<path d="M90.9883 426.3L91.3883 419.3C93.9883 420 97.2883 419.8 101.188 418.4C105.388 421.3 110.688 423.3 117.188 424.4C117.688 424.5 117.988 424.9 117.888 425.4V425.5L117.288 427.6H101.188H91.7883L90.9883 426.3Z" fill="#201160"/>
<path d="M133.188 426.3L133.588 419.3C136.188 420 139.488 419.8 143.388 418.4C147.588 421.3 152.888 423.3 159.388 424.4C159.888 424.5 160.188 424.9 160.088 425.4V425.5L159.488 427.6H143.388H133.988L133.188 426.3Z" fill="#201160"/>
<path d="M120.688 258.2C118.588 255.8 117.188 252.9 117.488 249.7C118.188 240.3 131.588 242.4 134.188 247.1C136.788 251.8 136.488 263.8 133.088 264.7C131.788 265 128.888 264.2 125.988 262.5L127.788 275.1H116.988L120.688 258.2Z" fill="#997659"/>
<path d="M112.788 246.5C112.488 246.2 112.288 245.7 112.088 245.2C111.888 244.7 111.788 244.2 111.588 243.8C111.388 242.8 111.388 241.7 112.088 240.9C112.688 240.3 113.488 240 114.288 240C114.788 240 115.388 240 115.888 240.2C116.388 240.4 116.788 240.7 117.288 240.9C117.288 239.8 117.488 238.7 118.088 237.8C118.588 236.9 119.488 236.4 120.388 236.3C121.388 236.2 122.388 236.4 123.288 236.9C123.488 237 123.688 237.1 123.988 237.3C124.188 237.4 124.388 237.6 124.588 237.6C124.788 237.7 124.888 237.5 125.088 237.4C125.288 237.2 125.488 237 125.688 236.9C126.588 236.2 127.788 236 128.888 236.4C129.388 236.6 129.888 236.9 130.188 237.3C130.488 237.7 130.688 238.3 131.088 238.6C131.288 238.7 131.388 238.6 131.588 238.5C131.788 238.3 132.088 238.1 132.288 238C132.588 237.8 132.988 237.6 133.388 237.5C133.988 237.4 134.788 237.4 134.888 238.1C134.988 238.4 134.888 238.7 134.888 239C134.888 239.4 134.788 239.8 134.788 240.2C134.788 240.5 134.688 240.8 134.688 241.1C134.688 241.3 134.588 241.5 134.588 241.7C134.688 241.9 135.088 241.8 135.188 241.8C135.488 241.8 135.888 241.9 136.188 242C136.388 242.1 136.688 242.3 136.788 242.5C136.888 242.7 136.788 242.8 136.788 243C136.788 243.2 136.788 243.3 136.788 243.5C137.188 243.3 138.788 242.8 138.888 243.6C138.988 243.9 138.788 244.1 138.688 244.4C138.488 244.8 138.288 245.1 137.988 245.5C137.488 246.2 136.788 246.8 136.088 247.3C136.888 247.7 137.088 248.7 136.388 249.3C136.088 249.6 135.688 249.6 135.288 249.6C135.188 249.6 134.888 249.5 134.788 249.6C134.688 249.6 134.688 249.7 134.588 249.7C133.988 249.7 133.388 249.6 132.888 249.5C131.888 249.3 130.988 248.8 130.288 248.2C130.088 248 129.988 247.9 129.688 247.9C129.488 247.9 129.288 248 128.988 248C128.388 248 127.888 247.7 127.288 247.5C127.288 248.2 127.088 249 126.688 249.7C126.488 250.2 125.888 250.3 125.388 250.4C123.788 250.6 122.088 250.4 120.488 250.4C122.088 250.8 123.688 250.9 125.288 251.3C125.988 251.5 125.488 252 125.188 252.3C124.688 252.8 124.288 253.5 124.088 254.2C123.288 253.2 121.888 252.6 120.688 252.9C119.388 253.2 118.388 255 119.288 256.3C119.788 257 120.688 257.3 121.488 257.6C120.888 258.2 120.788 259.1 120.388 259.8C120.188 260.2 119.988 260.6 119.588 260.7C119.488 260.7 119.288 260.8 119.188 260.9C119.088 261 118.988 261.2 118.788 261.3C118.088 261.8 116.988 261.7 116.288 261.1C115.688 260.5 115.888 259.6 116.388 259C115.588 258.7 114.188 258.3 114.488 257.1C112.788 257 108.788 254.4 111.088 252.5C109.888 251.8 108.788 250.2 109.488 248.7C110.188 247.1 111.588 246.6 112.788 246.5Z" fill="#201160"/>
<path d="M136.688 278.6L153.188 270.9C155.988 268 158.788 265.7 161.488 264.1C162.288 263.8 163.688 263.7 162.288 265.9C160.888 268.1 159.488 270.4 160.088 271.1C160.688 271.8 162.388 270.9 163.088 272.1C163.588 272.9 160.688 273.9 154.488 275.3L142.288 285.1L136.688 278.6Z" fill="#997659"/>
<path d="M127.088 277.8C132.688 277.7 140.188 276.6 148.188 271.6L151.288 278.4C145.788 283.7 137.988 288.1 131.288 287.9C125.988 287.9 123.288 281.6 127.088 277.8Z" fill="#3E2884"/>
<path d="M186.688 264.2C179.988 262.3 173.488 259.9 166.888 257.7C166.088 257.4 162.788 255.8 162.188 256.1C162.188 256.1 161.388 259.7 161.188 260.8C160.688 264.3 161.088 260.8 160.488 264.3C159.988 266.7 159.588 268.8 159.288 269.9C159.188 270.1 159.188 270.3 159.188 270.5C159.088 270.8 159.188 271.1 159.288 271.3C159.888 272 161.488 271.1 162.088 272.3C162.388 272.9 160.888 273.7 157.388 274.7C155.288 279.2 148.388 288.5 147.688 289.2C152.688 291.8 157.688 294.5 162.688 297.1C163.888 297.7 171.288 302 172.588 301.6C173.988 301.3 176.188 297 177.388 294.7C180.288 289.1 182.688 283.2 184.388 277.1C185.088 275.3 188.088 264.5 186.688 264.2Z" fill="#ADA8D4"/>
<path d="M164.288 291.9L171.288 288.1C172.288 284.4 173.488 282.6 174.788 282.6C175.888 282.1 173.988 286.8 175.988 286.4C177.988 286 182.888 282.5 183.688 283.2C184.888 284.3 183.788 287.5 182.488 289.2C180.088 292.2 177.988 293.3 172.988 294.6C170.388 295.3 167.588 296.7 164.488 298.9L164.288 291.9Z" fill="#997659"/>
<path d="M137.788 293.7C143.788 295.2 153.788 293.4 167.788 288.6C171.288 295.6 172.888 300.6 172.588 303.6C160.588 309.7 150.188 312.5 141.688 312.6C141.988 317.5 141.388 322.2 139.288 326.5C135.088 335.3 110.188 327.1 101.888 328.8C96.6883 312.2 106.788 305.5 106.788 294.9C106.788 283.3 116.388 265.4 117.788 265.4H130.588C131.288 274.3 134.888 284.1 137.788 293.7Z" fill="#583F93"/>
<path d="M322.588 367.9H287.588L282.988 422.7H335.088L322.588 367.9Z" fill="#AAE1F2"/>
<path d="M322.589 367.9H311.789L305.389 422.7H335.089L322.589 367.9Z" fill="#81CFE2"/>
<path d="M237.089 423C245.989 412.3 252.088 404.5 255.288 399.3C260.688 390.5 265.088 382.7 266.488 379.7C269.788 372.6 258.788 369.2 256.288 372.6C252.488 377.6 244.488 393.5 232.188 420.2L237.089 423Z" fill="#B28B67"/>
<path d="M255.488 419.9L272.088 379C275.688 371.6 258.488 366.7 255.888 370.1C249.988 378 235.788 409 234.088 411.4L255.488 419.9Z" fill="#043E75"/>
<path d="M299.805 411.699C296.552 407.135 284.822 391.589 278.316 385.162C276.484 383.293 274.667 381.564 272.928 379.898C267.866 375.027 257.775 383.197 262.871 387.71C275.486 398.827 293.842 413.819 295.333 415.156C297.524 417.058 301.818 414.616 299.805 411.699Z" fill="#B28B67"/>
<path d="M298.998 409.581C300.11 410.454 300.826 411.214 301.196 411.774C301.602 412.47 302.118 413.576 302.658 415.042C301.825 415.485 294.451 419.657 280.536 427.558C278.881 426.025 278.638 424.846 279.721 423.97C280.89 423.144 281.787 422.391 282.583 421.812L290.232 411.564C290.332 411.39 290.692 411.367 290.865 411.467L292.497 412.64C293.937 412.548 295.029 412.255 295.726 411.848C296.286 411.479 296.995 410.849 297.732 409.774C297.982 409.341 298.565 409.331 298.998 409.581Z" fill="#5FB2D3"/>
<path d="M240.988 421.4C241.488 422.7 241.788 423.7 241.788 424.4C241.788 425.2 241.688 426.4 241.388 427.9C240.488 427.9 231.888 427.9 215.788 427.9C215.088 425.8 215.488 424.6 216.988 424.4C218.388 424.2 219.588 424.1 220.588 423.9L232.488 418.7C232.688 418.6 232.988 418.7 233.088 418.9L233.888 420.7C235.188 421.3 236.288 421.6 237.088 421.6C237.788 421.6 238.688 421.3 239.888 420.8C240.188 420.7 240.688 420.9 240.988 421.4C240.988 421.4 240.988 421.3 240.988 421.4Z" fill="#5FB2D3"/>
<path d="M278.088 381.1C291.888 378.9 301.188 377.4 305.888 376.6C319.288 374.3 323.188 367.3 320.888 351.9H296.188C292.888 352.8 279.288 358.5 255.288 369C250.988 371.1 251.788 377.3 252.588 379.3C252.588 379.4 259.888 391.6 274.488 415.8L294.688 403.3L278.188 382.6C277.588 381.7 277.588 381.2 278.088 381.1Z" fill="#06508C"/>
<path d="M313.388 297C315.488 294.6 316.888 291.7 316.688 288.4C315.988 278.9 302.488 281 299.888 285.8C297.288 290.6 297.588 302.7 300.988 303.6C302.388 303.9 305.188 303.1 308.188 301.4L306.388 314.1H317.288L313.388 297Z" fill="#B28B67"/>
<path d="M298.788 287.9C298.888 287.3 299.188 286.6 299.388 286C299.688 285.2 300.088 284.6 300.488 283.9C301.388 282.7 302.388 281.6 303.488 280.7C305.588 279 308.188 278.1 310.788 278.4C312.088 278.6 313.388 279 314.488 279.9C315.488 280.6 316.388 281.7 317.688 281.8C319.088 281.9 320.288 280.7 321.488 280C322.688 279.2 324.088 278.6 325.488 278.3C327.888 277.9 330.188 278.7 331.888 280.7C333.688 282.8 334.988 285.8 333.788 288.6C333.588 289.1 333.288 289.5 332.888 289.9C332.488 290.2 331.988 290.6 331.788 291.1C331.588 291.7 332.088 292.4 332.288 292.9C332.588 293.6 332.788 294.4 332.688 295.2C332.588 296.5 331.688 297.7 330.888 298.6C329.988 299.5 328.888 300 327.688 300.2C326.888 300.4 326.088 300.4 325.288 300.4C324.888 300.4 324.588 300.3 324.188 300.2C323.788 300.1 323.588 300.2 323.288 300.4C321.788 301.3 320.288 301.7 318.588 301.5C317.188 301.4 315.488 301 314.388 300.1C313.088 299 313.088 297.6 313.388 296C313.088 296.2 312.188 296.3 312.688 295.6C312.888 295.4 313.288 295.3 313.588 295.1C313.888 294.9 314.188 294.7 314.488 294.4C315.488 293.3 314.488 291 313.188 290.7C311.288 290.1 310.888 292.7 309.588 293.4C308.788 293.8 307.988 293.3 307.488 292.7C306.688 292 306.188 291 305.788 290.1C305.388 289.3 305.088 288.5 304.688 287.7C304.488 287.3 303.888 286.3 304.188 285.9C302.888 285.6 301.388 286.2 300.288 286.9C299.788 287.2 299.488 287.5 299.188 288C299.088 288.1 298.988 288.4 298.888 288.5C298.688 288.4 298.788 288.1 298.788 287.9Z" fill="#043054"/>
<path d="M274.588 344.8L262.288 335.6C256.188 334.5 253.288 333.6 253.688 332.8C254.388 331.6 256.088 332.4 256.588 331.7C257.088 331 255.688 328.7 254.288 326.6C252.788 324.5 254.188 324.6 254.988 324.8C257.688 326.3 260.488 328.4 263.288 331.2L279.688 338.2L274.588 344.8ZM357.588 366.8C358.488 367.9 363.988 370.9 367.688 372.4C369.188 373 368.888 374.3 368.388 374.7C364.788 377.9 361.588 375.5 357.788 374.6C353.588 373.6 354.888 378.4 351.588 377.7C352.088 375.5 353.488 371.3 351.988 369C351.288 368 346.288 359 336.988 342L346.288 340.2C352.588 356.4 356.388 365.3 357.588 366.8Z" fill="#B28B67"/>
<path d="M311.688 306.3L307.788 305.6C299.288 313.7 295.788 333.1 290.088 335.7C284.688 338.1 277.088 335.8 267.988 332.6L265.188 338.7C273.387 347.4 290.988 354.7 298.088 350.5C309.488 343.8 312.188 319.8 311.688 306.3Z" fill="#1174BA"/>
<path d="M328.788 354.3C313.088 354.3 301.488 354.3 294.088 354.3C292.488 354.3 292.788 352.1 292.988 350.9C295.588 337.9 305.988 323.9 305.988 305.4L315.988 303.9C324.288 316.9 327.188 332.9 328.788 354.3Z" fill="#AAE1F2"/>
<path d="M332.288 341.2C339.388 353.6 345.288 362.6 350.088 368.1L357.388 366.7C352.688 338.4 339.088 317.4 316.688 303.9H316.588H312.788C303.788 333.8 301.288 353.7 305.388 363.6H336.588C336.088 356.3 334.488 348.7 332.288 341.2Z" fill="#188CC6"/>
<path d="M158.988 337.6C157.888 337.6 156.988 338.9 156.988 340.4C156.988 340.6 156.988 340.8 156.988 341C156.988 341.6 156.988 342.1 156.988 342.7C156.988 343.6 156.988 344.5 156.988 345.4C156.988 346.6 156.988 347.7 156.988 348.9C156.988 350.3 156.988 351.7 156.988 353.1C156.988 354.7 156.988 356.2 156.988 357.8C156.988 359.5 156.988 361.2 156.988 362.9C156.988 364.7 156.988 366.4 156.988 368.2C156.988 370 156.988 371.8 156.988 373.6C156.988 375.4 156.988 377.1 156.988 378.9C156.988 380.6 156.988 382.3 156.988 384C156.988 385.6 156.988 387.1 156.988 388.7C156.988 390.1 156.988 391.5 156.988 392.9C156.988 394.1 156.988 395.2 156.988 396.4C156.988 397.3 156.988 398.2 156.988 399.1C156.988 399.7 156.988 400.3 156.988 400.8C156.988 401.2 156.988 401.5 156.988 401.9C156.988 402.3 157.388 402.5 157.688 402.6C158.088 402.8 158.588 402.8 158.988 402.8C159.388 402.8 159.788 402.8 160.088 402.6C160.288 402.5 160.788 402.4 160.888 402.1C160.888 402 160.888 402 160.888 401.9C160.888 401.5 160.888 401.1 160.888 400.8C160.888 400.2 160.888 399.7 160.888 399.1C160.888 398.2 160.888 397.4 160.888 396.5C160.888 395.4 160.888 394.3 160.888 393.1C160.888 391.8 160.888 390.4 160.888 389.1C160.888 387.6 160.888 386.1 160.888 384.6C160.888 383 160.888 381.4 160.888 379.8C160.888 378.1 160.888 376.4 160.888 374.7C160.888 373 160.888 371.3 160.888 369.5C160.888 367.8 160.888 366.1 160.888 364.4C160.888 362.7 160.888 361.1 160.888 359.4C160.888 357.8 160.888 356.3 160.888 354.7C160.888 353.3 160.888 351.9 160.888 350.5C160.888 349.3 160.888 348.1 160.888 346.9C160.888 345.9 160.888 344.9 160.888 344C160.888 343.3 160.888 342.6 160.888 341.9C160.888 341.5 160.888 341.1 160.888 340.8C160.888 340.7 160.888 340.7 160.888 340.6C160.988 338.8 160.088 337.6 158.988 337.6Z" fill="#5FB2D3"/>
<path d="M133.688 355.3C132.588 355.3 131.688 356.9 131.688 358.9C131.688 359.2 131.688 359.4 131.688 359.7C131.688 360.4 131.688 361.2 131.688 361.9C131.688 363 131.688 364.2 131.688 365.3C131.688 366.8 131.688 368.3 131.688 369.8C131.688 371.6 131.688 373.3 131.688 375.1C131.688 377.1 131.688 379.1 131.688 381.1C131.688 383.3 131.688 385.4 131.688 387.6C131.688 389.8 131.688 392.1 131.688 394.3C131.688 396.6 131.688 398.9 131.688 401.1C131.688 403.4 131.688 405.6 131.688 407.9C131.688 410.1 131.688 412.2 131.688 414.4C131.688 416.4 131.688 418.4 131.688 420.4C131.688 422.2 131.688 424 131.688 425.7C131.688 427.2 131.688 428.7 131.688 430.2C131.688 431.4 131.688 432.5 131.688 433.7C131.688 434.4 131.688 435.2 131.688 435.9C131.688 436.4 131.688 436.8 131.688 437.3C131.688 437.8 132.088 438 132.388 438.2C132.788 438.4 133.288 438.5 133.688 438.5C134.088 438.5 134.488 438.4 134.788 438.3C134.988 438.2 135.488 438 135.588 437.6C135.588 437.5 135.588 437.4 135.588 437.3C135.588 436.8 135.588 436.3 135.588 435.8C135.588 435.1 135.588 434.3 135.588 433.6C135.588 432.5 135.588 431.4 135.588 430.3C135.588 428.9 135.588 427.4 135.588 426C135.588 424.3 135.588 422.6 135.588 420.9C135.588 419 135.588 417.1 135.588 415.2C135.588 413.1 135.588 411.1 135.588 409C135.588 406.8 135.588 404.7 135.588 402.5C135.588 400.3 135.588 398.1 135.588 395.9C135.588 393.7 135.588 391.5 135.588 389.3C135.588 387.2 135.588 385.1 135.588 383C135.588 381 135.588 379 135.588 377C135.588 375.2 135.588 373.4 135.588 371.6C135.588 370 135.588 368.5 135.588 366.9C135.588 365.6 135.588 364.4 135.588 363.1C135.588 362.2 135.588 361.3 135.588 360.4C135.588 359.9 135.588 359.4 135.588 359C135.588 358.9 135.588 358.9 135.588 358.8C135.688 356.9 134.788 355.3 133.688 355.3Z" fill="#5FB2D3"/>
<path d="M276.388 357.5C275.288 357.5 274.388 359.1 274.388 361.1C274.388 361.4 274.388 361.6 274.388 361.9C274.388 362.6 274.388 363.4 274.388 364.1C274.388 365.2 274.388 366.4 274.388 367.5C274.388 369 274.388 370.5 274.388 372C274.388 373.8 274.388 375.5 274.388 377.3C274.388 379.3 274.388 381.3 274.388 383.3C274.388 385.5 274.388 387.6 274.388 389.8C274.388 392 274.388 394.3 274.388 396.5C274.388 398.8 274.388 401.1 274.388 403.3C274.388 405.6 274.388 407.8 274.388 410.1C274.388 412.3 274.388 414.4 274.388 416.6C274.388 418.6 274.388 420.6 274.388 422.6C274.388 424.4 274.388 426.2 274.388 427.9C274.388 429.4 274.388 430.9 274.388 432.4C274.388 433.6 274.388 434.7 274.388 435.9C274.388 436.6 274.388 437.4 274.388 438.1C274.388 438.6 274.388 439 274.388 439.5C274.388 440 274.788 440.2 275.088 440.4C275.488 440.6 275.988 440.7 276.388 440.7C276.788 440.7 277.188 440.6 277.488 440.5C277.688 440.4 278.188 440.2 278.288 439.8C278.288 439.7 278.288 439.6 278.288 439.5C278.288 439 278.288 438.5 278.288 438C278.288 437.3 278.288 436.5 278.288 435.8C278.288 434.7 278.288 433.6 278.288 432.5C278.288 431.1 278.288 429.6 278.288 428.2C278.288 426.5 278.288 424.8 278.288 423.1C278.288 421.2 278.288 419.3 278.288 417.4C278.288 415.3 278.288 413.3 278.288 411.2C278.288 409 278.288 406.9 278.288 404.7C278.288 402.5 278.288 400.3 278.288 398.1C278.288 395.9 278.288 393.7 278.288 391.5C278.288 389.4 278.288 387.3 278.288 385.2C278.288 383.2 278.288 381.2 278.288 379.2C278.288 377.4 278.288 375.6 278.288 373.8C278.288 372.2 278.288 370.7 278.288 369.1C278.288 367.8 278.288 366.6 278.288 365.3C278.288 364.4 278.288 363.5 278.288 362.6C278.288 362.1 278.288 361.6 278.288 361.2C278.288 361.1 278.288 361.1 278.288 361C278.388 359.2 277.488 357.5 276.388 357.5Z" fill="#5FB2D3"/>
<path d="M122.288 359.2L155.888 333.2H254.188L287.688 359.2H122.288Z" fill="#D6F5FC"/>
<path d="M287.688 359.2H122.288V362.3H287.688V359.2Z" fill="#81CFE2"/>
<path d="M206.288 313.7C200.688 313.7 196.088 314.9 196.088 316.4C196.088 317.9 200.688 319.1 206.288 319.1C211.888 319.1 216.488 317.9 216.488 316.4C216.488 314.9 211.988 313.7 206.288 313.7Z" fill="#5FB2D3"/>
<path d="M206.288 313.9C208.988 313.9 211.488 314.2 213.388 314.7C214.288 314.9 214.988 315.2 215.488 315.5C215.788 315.7 216.188 316 216.188 316.3C216.188 316.6 215.788 316.9 215.488 317.1C214.988 317.4 214.288 317.7 213.388 317.9C211.488 318.4 208.988 318.7 206.288 318.7C203.588 318.7 201.088 318.4 199.188 317.9C198.288 317.7 197.588 317.4 197.088 317.1C196.788 316.9 196.388 316.6 196.388 316.3C196.388 316 196.788 315.7 197.088 315.5C197.588 315.2 198.288 314.9 199.188 314.7C201.088 314.2 203.588 313.9 206.288 313.9ZM206.288 313.7C200.688 313.7 196.088 314.9 196.088 316.4C196.088 317.9 200.688 319.1 206.288 319.1C211.888 319.1 216.488 317.9 216.488 316.4C216.488 314.9 211.988 313.7 206.288 313.7Z" fill="#F2F2F2"/>
<path d="M195.514 304.194C195.674 304.152 195.793 304.075 195.779 304.021C195.765 303.968 195.623 303.959 195.463 304.001C195.303 304.043 195.184 304.12 195.198 304.174C195.212 304.227 195.354 304.236 195.514 304.194Z" fill="black"/>
<path d="M203.587 330.6L201.988 331L196.188 309.7L197.688 309.3L203.587 330.6Z" fill="#2E3192"/>
<path d="M202.888 330.9L202.288 331L196.588 310.2L197.188 310L202.888 330.9Z" fill="#35519E"/>
<path d="M203.188 332.2C203.288 332.2 203.288 332.2 203.388 332.3L203.688 333.4C203.688 333.5 203.688 333.5 203.588 333.6C203.488 333.6 203.488 333.6 203.388 333.5L203.088 332.4C203.088 332.3 203.088 332.2 203.188 332.2Z" fill="#CCCCCC"/>
<path d="M201.988 331L203.188 333.2L203.688 333L203.588 330.6L201.988 331Z" fill="#1B1464"/>
<path d="M196.088 310.4L195.488 307.9C195.488 307.9 195.088 304.7 195.088 304.3C195.088 303.9 195.588 303.9 195.788 303.9C195.988 303.9 197.388 307.1 197.388 307.3C197.388 307.4 198.188 309.8 198.188 309.8C198.188 309.8 199.388 313.4 199.288 313.6C199.188 313.8 199.188 313.8 199.088 313.9C198.988 313.9 198.888 313.8 198.788 313.6C198.688 313.4 197.788 310.4 197.788 310.3C197.788 310.2 197.288 310.5 196.888 310.6C196.488 310.5 196.088 310.4 196.088 310.4Z" fill="#1B1464"/>
<path d="M210.888 302.4C211.054 302.4 211.188 302.355 211.188 302.3C211.188 302.244 211.054 302.2 210.888 302.2C210.722 302.2 210.588 302.244 210.588 302.3C210.588 302.355 210.722 302.4 210.888 302.4Z" fill="black"/>
<path d="M211.588 307.9H209.988V329.9H211.588V307.9Z" fill="#0071BC"/>
<path d="M210.888 308.5H210.288V330.1H210.888V308.5Z" fill="#0287D1"/>
<path d="M210.788 331.4C210.888 331.4 210.888 331.5 210.888 331.5V332.6C210.888 332.7 210.788 332.7 210.788 332.7C210.688 332.7 210.688 332.6 210.688 332.6V331.5L210.788 331.4Z" fill="#CCCCCC"/>
<path d="M209.988 329.9L210.588 332.3H211.088L211.588 329.9H209.988Z" fill="#096191"/>
<path d="M209.788 308.5L209.888 306C209.888 306 210.288 302.8 210.488 302.4C210.688 302 211.088 302.1 211.288 302.2C211.488 302.3 211.888 305.7 211.888 305.9C211.888 306 211.988 308.5 211.988 308.5C211.988 308.5 212.188 312.3 212.088 312.5C211.988 312.7 211.888 312.7 211.788 312.7C211.688 312.7 211.588 312.6 211.588 312.4C211.588 312.2 211.488 309 211.488 308.9C211.488 308.8 210.988 309 210.588 308.9C210.088 308.8 209.788 308.5 209.788 308.5Z" fill="#096191"/>
<path d="M217.84 304.42C217.849 304.366 217.725 304.298 217.561 304.27C217.398 304.241 217.258 304.262 217.249 304.317C217.239 304.371 217.364 304.438 217.527 304.467C217.69 304.495 217.83 304.474 217.84 304.42Z" fill="black"/>
<path d="M213.188 331.6L211.688 331.3L215.688 309.7L217.188 309.9L213.188 331.6Z" fill="#05C6B3"/>
<path d="M212.488 331.6L211.888 331.5L215.788 310.3L216.388 310.4L212.488 331.6Z" fill="#40E2CF"/>
<path d="M212.188 332.9C212.288 332.9 212.288 333 212.288 333L212.088 334.1C212.088 334.2 211.988 334.2 211.988 334.2C211.888 334.2 211.888 334.1 211.888 334.1L212.088 333C211.988 333 212.088 332.9 212.188 332.9Z" fill="#CCCCCC"/>
<path d="M211.688 331.3L211.787 333.8L212.287 333.9L213.188 331.6L211.688 331.3Z" fill="#00A99D"/>
<path d="M215.287 310.2L215.787 307.7C215.787 307.7 216.787 304.7 216.987 304.3C217.187 303.9 217.687 304.1 217.787 304.2C217.887 304.3 217.787 307.8 217.787 307.9C217.787 308 217.387 310.5 217.387 310.5C217.387 310.5 216.887 314.3 216.687 314.4C216.487 314.5 216.487 314.6 216.387 314.5C216.287 314.4 216.187 314.3 216.287 314.1C216.387 313.9 216.787 310.8 216.787 310.7C216.787 310.6 216.287 310.7 215.887 310.6C215.587 310.6 215.287 310.2 215.287 310.2Z" fill="#00A99D"/>
<path d="M214.841 302.945C214.855 302.892 214.737 302.814 214.576 302.772C214.416 302.73 214.275 302.74 214.261 302.793C214.247 302.846 214.365 302.924 214.526 302.966C214.686 303.008 214.827 302.999 214.841 302.945Z" fill="black"/>
<path d="M206.487 329.3L207.987 329.7L213.887 308.5L212.387 308.1L206.487 329.3Z" fill="#2E3192"/>
<path d="M207.188 329.6L207.787 329.8L213.488 309L212.887 308.8L207.188 329.6Z" fill="#35519E"/>
<path d="M206.888 331C206.788 331 206.788 331 206.688 331.1L206.388 332.2C206.388 332.3 206.388 332.3 206.488 332.4C206.588 332.4 206.588 332.4 206.688 332.3L206.988 331.2C206.988 331.1 206.988 331 206.888 331Z" fill="#CCCCCC"/>
<path d="M207.988 329.7L206.888 331.9L206.388 331.8L206.488 329.3L207.988 329.7Z" fill="#1B1464"/>
<path d="M213.988 309.1L214.588 306.6C214.588 306.6 214.988 303.4 214.988 303C214.988 302.6 214.488 302.6 214.288 302.6C214.088 302.6 212.688 305.8 212.688 306C212.688 306.1 211.888 308.5 211.888 308.5C211.888 308.5 210.688 312.1 210.788 312.3C210.888 312.5 210.888 312.5 210.988 312.6C211.088 312.6 211.188 312.5 211.288 312.3C211.388 312.1 212.288 309.1 212.288 309C212.288 308.9 212.788 309.2 213.188 309.3C213.588 309.3 213.988 309.1 213.988 309.1Z" fill="#1B1464"/>
<path d="M204.552 301.448C204.553 301.393 204.42 301.344 204.255 301.339C204.089 301.334 203.954 301.375 203.952 301.431C203.951 301.486 204.083 301.534 204.249 301.539C204.415 301.544 204.55 301.503 204.552 301.448Z" fill="black"/>
<path d="M202.688 329H204.287L204.988 307H203.387L202.688 329Z" fill="#0071BC"/>
<path d="M203.487 329.1H204.087L204.687 307.6H204.087L203.487 329.1Z" fill="#0287D1"/>
<path d="M203.488 330.5C203.388 330.5 203.388 330.6 203.388 330.6V331.7C203.388 331.8 203.488 331.8 203.488 331.8C203.588 331.8 203.588 331.7 203.588 331.7V330.6C203.588 330.5 203.588 330.5 203.488 330.5Z" fill="#CCCCCC"/>
<path d="M204.287 329L203.688 331.4H203.188L202.688 329H204.287Z" fill="#096191"/>
<path d="M205.188 307.6V305.1C205.188 305.1 204.888 301.9 204.688 301.5C204.588 301.1 204.088 301.2 203.888 301.3C203.688 301.4 203.188 304.8 203.188 304.9C203.188 305 202.988 307.5 202.988 307.5C202.988 307.5 202.688 311.3 202.788 311.5C202.888 311.7 202.988 311.7 203.088 311.7C203.188 311.7 203.288 311.6 203.288 311.4C203.288 311.2 203.488 308 203.488 307.9C203.488 307.8 203.988 308 204.388 308C204.888 307.9 205.188 307.6 205.188 307.6Z" fill="#096191"/>
<path d="M198.902 302.399C199.065 302.371 199.19 302.303 199.181 302.249C199.171 302.195 199.031 302.174 198.868 302.202C198.705 302.231 198.58 302.298 198.59 302.353C198.599 302.407 198.739 302.428 198.902 302.399Z" fill="black"/>
<path d="M203.088 329.6L204.688 329.3L200.688 307.6L199.088 307.9L203.088 329.6Z" fill="#05C6B3"/>
<path d="M203.888 329.5L204.488 329.4L200.588 308.2L199.988 308.3L203.888 329.5Z" fill="#40E2CF"/>
<path d="M204.188 330.9C204.088 330.9 204.088 331 204.088 331L204.288 332.1C204.288 332.2 204.388 332.2 204.388 332.2C204.488 332.2 204.488 332.1 204.488 332.1L204.288 331C204.288 330.9 204.288 330.9 204.188 330.9Z" fill="#CCCCCC"/>
<path d="M204.688 329.3L204.588 331.8L204.088 331.9L203.088 329.6L204.688 329.3Z" fill="#00A99D"/>
<path d="M200.988 308.2L200.488 305.7C200.488 305.7 199.488 302.7 199.288 302.3C199.088 301.9 198.588 302.1 198.488 302.2C198.388 302.3 198.488 305.8 198.488 305.9C198.488 306 198.888 308.5 198.888 308.5C198.888 308.5 199.388 312.3 199.588 312.4C199.788 312.6 199.788 312.6 199.888 312.5C199.988 312.4 200.088 312.3 199.988 312.1C199.988 311.9 199.488 308.8 199.488 308.7C199.488 308.6 199.988 308.7 200.388 308.6C200.788 308.5 200.988 308.2 200.988 308.2Z" fill="#00A99D"/>
<path d="M206.388 319C200.788 319 196.188 317.8 196.188 316.3H196.088L197.588 335.6C197.588 336.3 198.388 336.6 198.988 336.8C199.688 337 200.388 337.2 201.188 337.3C202.788 337.6 204.488 337.6 206.188 337.6C208.188 337.6 210.088 337.5 212.088 337.1C212.588 337 213.188 336.9 213.688 336.6C214.088 336.4 214.588 336.2 214.688 335.8V335.7L216.588 316.5C215.988 317.9 211.688 319 206.388 319Z" fill="#81CFE2"/>
<path d="M199.887 337.1C199.287 336.9 198.087 336.8 198.087 336.1L196.688 317.3C196.688 317.3 196.687 317.3 196.787 317.3C196.787 317.3 198.687 317.7 198.887 318.1C199.087 318.5 199.887 337.1 199.887 337.1Z" fill="#AAE1F2"/>
<path d="M196.088 316.3C196.088 317.8 200.688 319 206.288 319C211.888 319 216.488 317.8 216.488 316.3H216.188C216.188 316.6 215.788 316.9 215.488 317.1C214.988 317.4 214.288 317.7 213.388 317.9C211.488 318.4 208.988 318.7 206.288 318.7C203.588 318.7 201.088 318.4 199.188 317.9C198.288 317.7 197.588 317.4 197.088 317.1C196.788 316.9 196.388 316.6 196.388 316.3H196.088Z" fill="#F2F2F2"/>
<path d="M177.688 338.6C175.488 339.6 153.188 344.2 153.188 344.2C153.188 344.2 164.988 352 167.088 353.1C169.188 354.2 192.588 347.3 192.588 347.3L177.688 338.6Z" fill="#C7C5ED"/>
<path d="M249.488 337.9C247.288 338.9 224.988 343.5 224.988 343.5C224.988 343.5 236.788 351.3 238.888 352.4C240.888 353.6 264.388 346.6 264.388 346.6L249.488 337.9Z" fill="#A6A3D1"/>
<path d="M186.389 340.3C184.189 341.3 161.889 345.9 161.889 345.9C161.889 345.9 173.689 353.7 175.789 354.8C177.889 355.9 201.289 349 201.289 349L186.389 340.3Z" fill="#A6A3D1"/>
<path d="M226.589 338.5C228.889 339.2 251.589 341.3 251.589 341.3C251.589 341.3 240.789 350.3 238.889 351.8C236.989 353.2 212.889 349 212.889 349L226.589 338.5Z" fill="#C7C5ED"/>
<path d="M35.6883 247.2C34.8883 246.2 33.7883 245.4 32.6883 244.7C32.3883 244.5 31.9883 244.6 31.7883 244.9C30.8883 246.5 30.1883 248.1 29.1883 249.6C28.8883 250.1 28.3883 250.8 27.9883 251.1C27.9883 251.1 27.8883 251.2 27.7883 251.2C27.6883 251.1 27.6883 251 27.5883 250.8C26.7883 248.5 27.7883 246 27.1883 243.6C26.8883 242.4 26.0883 241.1 25.1883 240.1C24.1883 239.1 22.8883 238.7 22.2883 237.3C22.0883 236.8 21.3883 236.9 21.1883 237.3C19.7883 239.3 17.7883 241.4 17.4883 243.9C17.1883 246.1 18.3883 248 19.6883 249.7C20.2883 250.5 20.8883 251.4 21.3883 252.3C21.6883 252.8 22.0883 253.7 21.5883 254.2C21.0883 254.7 20.2883 253.8 19.8883 253.4C19.0883 252.5 18.3883 251.6 17.6883 250.6C16.4883 249 14.5883 246.7 12.3883 247.1C11.3883 247.3 10.9883 248.3 10.9883 249.2C10.8883 250.6 11.5883 252.1 12.2883 253.3C13.8883 256 16.9883 256.8 19.0883 258.9C19.5883 259.4 20.8883 261.1 20.0883 261.8C19.7883 262 19.1883 262 18.8883 261.9C18.1883 261.8 17.2883 261.5 16.6883 261C14.3883 259.2 13.5883 256.1 11.1883 254.5C10.0883 253.8 8.48828 253.3 7.18828 253.6C6.08828 253.9 5.58828 254.9 5.58828 255.9C5.48828 257.1 6.08828 258.4 6.68828 259.5C7.38828 260.7 8.38828 261.7 9.58828 262.4C11.9883 263.8 15.0883 264 16.6883 266.5C16.8883 266.8 17.1883 267.3 17.0883 267.7C16.9883 268 16.5883 268.1 16.2883 268.2C15.0883 268.5 13.3883 268 12.2883 267.4C10.9883 266.7 9.98828 265.4 8.98828 264.4C7.88828 263.3 6.68828 262.4 5.18828 261.9C4.08828 261.6 2.78828 261.6 2.08828 262.6C1.38828 263.5 1.58828 264.8 1.88828 265.8C2.18828 267.2 2.98828 268.5 3.88828 269.5C4.88828 270.7 6.48828 271.3 7.88828 271.8C9.38828 272.3 10.8883 272.6 12.2883 273.1C12.6883 273.2 12.9883 273.3 13.3883 273.4C13.8883 273.4 14.2883 273.4 14.6883 273.5C15.0883 273.6 14.7883 274 14.6883 274.3C14.3883 274.9 13.3883 274.9 12.7883 275C12.1883 275 11.6883 275.2 11.0883 275.2C10.3883 275.2 9.78828 275.1 9.08828 275C7.78828 274.8 6.48828 274.6 5.18828 275C3.98828 275.4 3.08828 276.5 2.88828 277.8C2.38828 280.4 5.38828 282 7.48828 282.3C8.88828 282.5 10.0883 282.2 11.3883 281.5C12.8883 280.6 14.0883 279.4 15.7883 279.2C15.8883 279.9 15.6883 280.4 15.0883 281C14.1883 281.7 13.0883 282.1 12.0883 282.5C10.0883 283.2 7.08828 283.9 5.98828 286C5.88828 286.2 5.88828 286.6 6.08828 286.8C7.08828 287.7 8.18828 288.4 9.48828 288.5C10.5883 288.6 11.6883 288.1 12.5883 287.5C14.1883 286.4 15.5883 284.8 17.3883 284C17.1883 284.5 16.6883 284.8 16.1883 285.2C15.2883 285.9 14.7883 286.9 14.5883 288C14.1883 289.7 14.7883 291.5 16.7883 291.5C17.8883 291.5 18.8883 291 19.7883 290.4C20.7883 289.8 21.5883 288.9 22.2883 287.9C23.0883 286.7 23.4883 285.2 23.7883 283.8C25.3883 287 28.9883 290.3 32.3883 287.6C35.2883 285.2 30.4883 283.4 28.6883 281.6C29.0883 281.8 29.3883 281.9 29.7883 282.1C30.7883 282.6 31.6883 283.2 32.6883 283.6C34.5883 284.4 36.6883 284.3 37.8883 282.3C38.8883 280.6 36.8883 279.8 35.5883 279.5C34.5883 279.2 32.6883 278.9 31.8883 277.8C34.3883 278.1 37.1883 278.4 39.3883 276.9C40.3883 276.2 41.5883 275 41.6883 273.7C41.7883 272.7 40.6883 272.3 39.8883 272.3C37.7883 272.1 35.6883 273 33.4883 273C32.9883 273 32.4883 272.9 31.9883 272.8C31.7883 272.8 31.5883 272.7 31.3883 272.6C31.2883 272.6 31.2883 272.5 31.1883 272.5C31.1883 272.5 31.1883 272.4 31.2883 272.4C31.4883 272.2 31.6883 272 31.9883 271.9C32.4883 271.5 33.0883 271.3 33.7883 271.3C34.9883 271.2 36.2883 271.3 37.4883 271.1C38.8883 270.9 39.9883 270 40.9883 269C41.7883 268.1 42.5883 266.9 42.6883 265.6C42.7883 264.3 41.9883 263.4 40.8883 263C37.6883 261.8 35.6883 265.1 33.3883 266.6C32.7883 267 32.0883 267.3 31.3883 267.5C31.0883 267.6 30.2883 267.9 29.9883 267.7C29.7883 267.6 30.3883 266.7 30.4883 266.5C30.9883 265.7 31.5883 265.2 32.2883 264.8C34.1883 263.7 36.5883 263.3 38.0883 261.6C39.0883 260.4 39.8883 258.5 38.8883 257.1C37.8883 255.6 35.4883 256 34.1883 256.9C32.5883 258 31.6883 260.2 29.6883 260.7C29.4883 259.8 29.8883 258.9 30.4883 258.1C31.3883 256.9 32.5883 255.9 33.6883 254.8C34.7883 253.8 35.7883 252.7 36.3883 251.3C36.8883 249.8 36.5883 248.4 35.6883 247.2Z" fill="#149295"/>
<path d="M84.6881 292.4C84.9881 291.1 84.8881 289.8 84.7881 288.5C84.7881 288.2 84.3881 287.9 84.0881 288C82.2881 288.3 80.5881 288.7 78.7881 288.9C78.1881 289 77.3881 289 76.8881 288.9C76.8881 288.9 76.7881 288.8 76.6881 288.8C76.6881 288.7 76.7881 288.6 76.8881 288.4C78.2881 286.4 80.7881 285.5 82.2881 283.6C83.0881 282.6 83.5881 281.2 83.7881 279.9C83.9881 278.5 83.4881 277.2 84.1881 275.9C84.3881 275.4 83.8881 275 83.4881 275C80.9881 275.1 78.1881 274.9 75.9881 276.2C73.9881 277.3 73.2881 279.4 72.7881 281.5C72.4881 282.5 72.2881 283.5 71.7881 284.5C71.5881 285 71.0881 285.9 70.3881 285.9C69.6881 285.8 69.8881 284.6 69.9881 284.1C70.1881 282.9 70.4881 281.8 70.7881 280.6C71.2881 278.7 71.9881 275.8 70.2881 274.3C69.4881 273.6 68.4881 274 67.7881 274.5C66.5881 275.3 65.8881 276.8 65.3881 278C64.2881 280.9 65.5881 283.9 65.1881 286.8C65.0881 287.5 64.5881 289.5 63.5881 289.4C63.1881 289.4 62.8881 288.8 62.7881 288.6C62.3881 287.9 62.0881 287.1 62.0881 286.4C62.0881 283.5 63.9881 280.9 63.7881 278C63.6881 276.7 63.0881 275.2 61.9881 274.3C61.0881 273.6 59.9881 273.8 59.1881 274.4C58.1881 275.1 57.4881 276.4 57.0881 277.5C56.5881 278.8 56.3881 280.2 56.5881 281.6C56.9881 284.4 58.7881 286.9 57.7881 289.7C57.6881 290.1 57.4881 290.6 57.0881 290.7C56.7881 290.8 56.3881 290.5 56.1881 290.4C55.1881 289.6 54.5881 288 54.2881 286.8C53.9881 285.3 54.3881 283.8 54.5881 282.3C54.7881 280.8 54.7881 279.3 54.1881 277.8C53.7881 276.7 52.8881 275.7 51.6881 275.8C50.5881 275.9 49.6881 276.8 48.9881 277.6C48.0881 278.7 47.5881 280.1 47.2881 281.5C46.9881 283 47.4881 284.6 47.9881 286C48.4881 287.5 49.1881 288.8 49.6881 290.3C49.7881 290.7 49.8881 291 50.1881 291.3C50.3881 291.7 50.6881 292 50.8881 292.4C51.0881 292.7 50.5881 292.8 50.2881 292.9C49.5881 293.1 48.9881 292.3 48.5881 291.8C48.1881 291.4 47.6881 291 47.3881 290.6C46.9881 290.1 46.6881 289.5 46.3881 288.9C45.7881 287.8 45.0881 286.6 43.9881 285.8C42.8881 285.1 41.4881 285.1 40.3881 285.7C38.0881 287 38.5881 290.2 39.6881 292.1C40.3881 293.3 41.3881 294.1 42.6881 294.7C44.2881 295.4 45.9881 295.5 47.1881 296.8C46.6881 297.3 46.0881 297.5 45.2881 297.3C44.1881 297.1 43.1881 296.4 42.1881 295.8C40.3881 294.7 37.9881 292.8 35.6881 293.2C35.3881 293.3 35.1881 293.5 35.1881 293.8C35.0881 295.1 35.1881 296.4 35.8881 297.6C36.4881 298.5 37.5881 299.1 38.5881 299.4C40.3881 300 42.5881 300.1 44.2881 301C43.7881 301.1 43.2881 301 42.6881 300.8C41.5881 300.5 40.4881 300.8 39.4881 301.3C37.8881 302 36.8881 303.6 38.0881 305.2C38.7881 306 39.7881 306.6 40.7881 306.9C41.8881 307.3 43.0881 307.4 44.2881 307.3C45.7881 307.2 47.0881 306.6 48.4881 305.9C46.9881 309.2 46.5881 314 50.7881 315C54.3881 315.8 52.8881 311 53.1881 308.3C53.2881 308.7 53.3881 309.1 53.4881 309.5C53.6881 310.6 53.8881 311.7 54.1881 312.7C54.7881 314.7 56.0881 316.3 58.3881 316C60.2881 315.7 59.6881 313.7 59.1881 312.4C58.7881 311.4 57.8881 309.7 58.1881 308.5C59.4881 310.6 60.9881 313 63.4881 313.8C64.5881 314.2 66.2881 314.3 67.3881 313.6C68.2881 313.1 67.8881 312 67.3881 311.3C66.1881 309.5 64.1881 308.4 62.8881 306.7C62.5881 306.3 62.2881 305.8 62.0881 305.4C61.9881 305.2 61.8881 305 61.8881 304.9C61.8881 304.8 61.8881 304.7 61.8881 304.7H61.9881C62.2881 304.7 62.5881 304.8 62.8881 304.9C63.4881 305.1 64.0881 305.4 64.4881 305.9C65.3881 306.8 65.9881 307.9 66.9881 308.7C68.0881 309.6 69.3881 310 70.7881 310.1C71.9881 310.2 73.3881 310.1 74.4881 309.4C75.5881 308.7 75.7881 307.5 75.3881 306.3C74.3881 303 70.5881 303.6 67.8881 302.7C67.1881 302.5 66.4881 302.1 65.8881 301.6C65.6881 301.4 64.8881 300.9 64.8881 300.6C64.8881 300.4 65.8881 300.3 66.0881 300.3C66.9881 300.2 67.7881 300.3 68.5881 300.7C70.6881 301.5 72.3881 303.2 74.6881 303.3C76.1881 303.4 78.1881 302.8 78.6881 301.2C79.1881 299.5 77.4881 297.9 75.9881 297.4C74.0881 296.8 71.8881 297.5 70.1881 296.3C70.7881 295.6 71.6881 295.3 72.7881 295.3C74.2881 295.3 75.8881 295.6 77.3881 295.8C78.7881 296 80.3881 296.2 81.7881 295.7C83.3881 295 84.2881 293.9 84.6881 292.4Z" fill="#149295"/>
<path d="M-2.41177 257C-3.61177 256.5 -5.01178 256.4 -6.31178 256.4C-6.61178 256.4 -6.91177 256.7 -6.91177 257.1C-6.81177 258.9 -6.71177 260.7 -6.71177 262.5C-6.71177 263.1 -6.81177 263.9 -7.01177 264.4C-7.01177 264.4 -7.11177 264.5 -7.11177 264.6C-7.21177 264.5 -7.31177 264.5 -7.41177 264.4C-9.21177 262.8 -9.71178 260.2 -11.5118 258.5C-12.4118 257.6 -13.8118 256.9 -15.0118 256.6C-16.3118 256.3 -17.7118 256.5 -18.9118 255.7C-19.3118 255.4 -19.8118 255.8 -19.9118 256.3C-20.1118 258.8 -20.7118 261.6 -19.7118 263.9C-18.8118 266 -16.8118 267 -14.8118 267.8C-13.8118 268.2 -12.9118 268.6 -12.0118 269.1C-11.5118 269.4 -10.6118 269.9 -10.8118 270.6C-11.0118 271.3 -12.1118 270.9 -12.7118 270.8C-13.9118 270.5 -14.9118 270 -16.0118 269.6C-17.8118 268.9 -20.6118 267.8 -22.3118 269.3C-23.0118 270 -22.9118 271 -22.5118 271.8C-21.8118 273 -20.5118 274 -19.3118 274.6C-16.6118 276.1 -13.5118 275.1 -10.6118 275.9C-9.91178 276.1 -8.01178 276.9 -8.21178 277.9C-8.31178 278.2 -8.91178 278.5 -9.11178 278.6C-9.81178 278.9 -10.7118 279.1 -11.4118 279C-14.3118 278.7 -16.6118 276.4 -19.5118 276.2C-20.8118 276.1 -22.4118 276.6 -23.4118 277.5C-24.2118 278.3 -24.1118 279.4 -23.6118 280.3C-23.0118 281.4 -21.9118 282.2 -20.8118 282.8C-19.6118 283.5 -18.2118 283.8 -16.8118 283.8C-14.0118 283.7 -11.3118 282.3 -8.61178 283.7C-8.21178 283.9 -7.81177 284.2 -7.71177 284.6C-7.61177 284.9 -7.91178 285.3 -8.21178 285.5C-9.11178 286.4 -10.8118 286.8 -12.0118 286.9C-13.5118 287 -15.0118 286.4 -16.4118 286C-17.9118 285.6 -19.4118 285.4 -20.9118 285.8C-22.0118 286.1 -23.1118 286.8 -23.2118 288.1C-23.3118 289.2 -22.5118 290.2 -21.8118 291C-20.8118 292 -19.5118 292.7 -18.1118 293.1C-16.7118 293.6 -15.0118 293.3 -13.5118 293C-12.0118 292.7 -10.5118 292.1 -9.01178 291.9C-8.61178 291.8 -8.31177 291.8 -7.91177 291.6C-7.51177 291.4 -7.11177 291.1 -6.71177 291C-6.31177 290.9 -6.31178 291.4 -6.31178 291.7C-6.21178 292.4 -7.11177 292.9 -7.61177 293.2C-8.11177 293.5 -8.51178 293.9 -9.01178 294.2C-9.61178 294.5 -10.2118 294.8 -10.8118 295C-12.0118 295.5 -13.3118 296 -14.2118 297C-15.1118 297.9 -15.2118 299.4 -14.8118 300.6C-13.9118 303.1 -10.5118 302.9 -8.51178 302.1C-7.21178 301.6 -6.31177 300.7 -5.61177 299.4C-4.71177 297.9 -4.41177 296.2 -3.01177 295.2C-2.51177 295.7 -2.51177 296.3 -2.71177 297.1C-3.11177 298.2 -3.91177 299.1 -4.51177 299.9C-5.91177 301.6 -8.01177 303.7 -7.91177 306C-7.91177 306.3 -7.71177 306.5 -7.41177 306.6C-6.11177 306.9 -4.81177 306.9 -3.61177 306.3C-2.61177 305.8 -1.91177 304.8 -1.51177 303.8C-0.711774 302 -0.311775 299.9 0.788225 298.3C0.788225 298.8 0.588226 299.3 0.388226 299.9C-0.0117745 301 0.0882255 302 0.388226 303.1C0.888226 304.7 2.38823 306 3.98823 305C4.88823 304.5 5.58823 303.4 6.08823 302.5C6.68823 301.4 6.88823 300.3 6.88823 299.1C6.88823 297.6 6.58823 296.2 5.98823 294.8C8.98823 296.7 13.7882 297.7 15.2882 293.6C16.4882 290.1 11.5882 291 8.98822 290.4C9.38822 290.3 9.78822 290.3 10.1882 290.3C11.2882 290.2 12.3882 290.2 13.4882 290.1C15.4882 289.8 17.2882 288.6 17.2882 286.4C17.2882 284.5 15.0882 284.8 13.8882 285.1C12.8882 285.4 11.0882 286.1 9.88823 285.6C12.1882 284.5 14.6882 283.4 15.8882 281C16.3882 279.9 16.7882 278.2 16.1882 277.1C15.7882 276.2 14.5882 276.4 13.8882 276.8C11.9882 277.7 10.6882 279.6 8.78823 280.6C8.28823 280.8 7.88823 281.1 7.38823 281.2C7.18823 281.3 6.98823 281.3 6.78823 281.3C6.68823 281.3 6.58823 281.3 6.58823 281.3V281.2C6.58823 280.9 6.78823 280.6 6.88823 280.4C7.18823 279.8 7.58823 279.3 8.08823 278.9C9.08823 278.2 10.1882 277.6 11.1882 276.8C12.2882 275.9 12.7882 274.6 13.0882 273.2C13.2882 272 13.3882 270.6 12.8882 269.4C12.2882 268.2 11.1882 267.9 9.98822 268.1C6.58822 268.7 6.68823 272.6 5.48823 275.1C5.18823 275.8 4.68822 276.4 4.18822 276.9C3.98822 277.1 3.38823 277.8 3.08823 277.8C2.88823 277.8 2.88823 276.7 2.88823 276.5C2.88823 275.6 3.08823 274.9 3.58823 274.1C4.68823 272.2 6.48823 270.6 6.98823 268.3C7.28823 266.8 6.88823 264.7 5.38823 264C3.68823 263.3 1.98823 264.8 1.28823 266.2C0.388225 268 0.888226 270.3 -0.611774 271.8C-1.21177 271.1 -1.41178 270.2 -1.31178 269.1C-1.11178 267.6 -0.611775 266.1 -0.211775 264.6C0.188225 263.2 0.488225 261.7 0.288225 260.2C-0.0117748 258.6 -1.11177 257.6 -2.41177 257Z" fill="#149295"/>
<path d="M48.3879 305.4C42.8879 307.8 37.4879 311.5 33.7879 316.3C31.7879 318.9 30.5879 321.9 29.8879 325C29.5879 321.8 28.9879 318.5 28.3879 315.3C26.9879 307.8 25.7879 300.3 25.0879 292.8C24.7879 289.8 24.5879 286.8 24.4879 283.8C24.4879 283 23.1879 283 23.1879 283.8C23.5879 292.2 24.5879 300.5 25.7879 308.8C26.6879 314.4 28.1879 319.9 28.5879 325.6C28.0879 322.5 27.3879 319.5 26.3879 316.6C25.0879 312.4 23.2879 308.3 20.8879 304.6C20.8879 304.4 20.8879 304.3 20.6879 304.1C20.4879 303.9 20.3879 303.7 20.1879 303.6C19.5879 302.7 18.9879 301.9 18.3879 301C18.0879 300.6 17.6879 300.8 17.4879 301.1C16.4879 300.3 15.4879 299.7 14.2879 299.1C11.6879 297.7 8.38786 296.8 7.08786 293.8C6.78786 293 5.68786 293.7 5.98786 294.5C7.28786 297.5 10.2879 298.6 12.9879 299.9C15.3879 301.1 17.3879 302.6 19.2879 304.5C21.8879 308.4 23.7879 312.8 25.1879 317.2C26.8879 322.6 27.8879 328.3 27.8879 333.9V334C27.7879 334.4 28.0879 334.7 28.4879 334.7C28.6879 335.3 29.6879 335.2 29.7879 334.5C30.2879 328.4 30.9879 322 34.8879 317.1C38.4879 312.5 43.6879 309 48.9879 306.7C49.7879 306.2 49.0879 305 48.3879 305.4Z" fill="#149295"/>
<path d="M29.4879 334.7C28.7879 328.4 25.8879 322.8 22.8879 317.4C19.8879 312 16.7879 306.5 15.8879 300.4C15.7879 299.6 14.4879 299.9 14.6879 300.7C16.4879 313 26.7879 322.2 28.1879 334.7C28.2879 335.5 29.5879 335.5 29.4879 334.7Z" fill="#055E5A"/>
<path d="M9.888 262.2C8.688 261.6 7.38801 261.4 6.08801 261.2C5.78801 261.2 5.388 261.5 5.388 261.8C5.288 263.6 5.28801 265.4 5.08801 267.2C4.98801 267.8 4.88801 268.6 4.58801 269C4.58801 269 4.488 269.1 4.488 269.2C4.388 269.1 4.288 269 4.188 268.9C2.488 267.1 2.288 264.5 0.688004 262.6C-0.111996 261.6 -1.412 260.8 -2.612 260.3C-3.912 259.8 -5.31199 260 -6.41199 259C-6.81199 258.7 -7.31199 259.1 -7.41199 259.5C-7.81199 261.9 -8.71199 264.7 -7.91199 267.1C-7.21199 269.3 -5.31199 270.4 -3.41199 271.4C-2.51199 271.9 -1.612 272.4 -0.711996 273C-0.211996 273.3 0.588004 274 0.288004 274.6C0.0880039 275.3 -1.012 274.8 -1.612 274.6C-2.712 274.2 -3.812 273.6 -4.812 273.1C-6.512 272.2 -9.212 270.9 -11.112 272.2C-11.912 272.8 -11.812 273.9 -11.512 274.7C-11.012 276 -9.712 277.1 -8.612 277.8C-6.012 279.5 -2.812 278.9 -0.111996 279.9C0.488004 280.1 2.38801 281.1 2.08801 282.1C1.98801 282.4 1.38801 282.6 1.08801 282.7C0.388005 282.9 -0.511996 283 -1.212 282.9C-4.012 282.3 -6.112 279.9 -9.012 279.4C-10.312 279.2 -11.912 279.5 -13.012 280.3C-13.912 281 -13.912 282.1 -13.512 283.1C-13.012 284.3 -12.012 285.2 -11.012 285.8C-9.812 286.6 -8.512 287 -7.112 287.2C-4.312 287.4 -1.51199 286.2 1.08801 287.9C1.38801 288.1 1.888 288.4 1.888 288.9C1.988 289.2 1.588 289.5 1.388 289.7C0.388004 290.5 -1.312 290.8 -2.512 290.7C-4.012 290.6 -5.412 289.9 -6.812 289.4C-8.312 288.8 -9.712 288.5 -11.312 288.8C-12.412 289 -13.612 289.6 -13.812 290.8C-14.012 291.9 -13.312 293 -12.612 293.8C-11.712 294.9 -10.512 295.7 -9.212 296.3C-7.812 296.9 -6.112 296.8 -4.612 296.7C-3.112 296.5 -1.612 296.1 -0.0119953 296C0.388005 296 0.688005 295.9 1.08801 295.8C1.48801 295.6 1.888 295.4 2.388 295.3C2.788 295.2 2.688 295.7 2.688 296C2.688 296.7 1.788 297.1 1.288 297.4C0.788004 297.7 0.388004 298.1 -0.211996 298.3C-0.811996 298.6 -1.412 298.8 -2.112 299C-3.312 299.4 -4.712 299.8 -5.712 300.6C-6.612 301.5 -6.912 302.9 -6.612 304.1C-5.912 306.7 -2.612 306.8 -0.511995 306.2C0.888005 305.8 1.788 305 2.688 303.8C3.688 302.4 4.188 300.8 5.688 299.8C6.088 300.4 6.088 301 5.788 301.7C5.288 302.7 4.388 303.6 3.688 304.4C2.188 305.9 -0.211996 307.8 -0.311996 310.2C-0.311996 310.5 -0.111995 310.8 0.0880051 310.9C1.38801 311.3 2.688 311.5 3.888 311C4.888 310.6 5.688 309.7 6.288 308.7C7.288 307 7.788 304.9 9.188 303.5C9.188 304 8.88801 304.5 8.58801 305.1C8.08801 306.1 8.08801 307.2 8.28801 308.3C8.68801 310 9.98801 311.4 11.788 310.5C12.788 310 13.488 309.1 14.088 308.2C14.788 307.2 15.088 306.1 15.288 304.9C15.488 303.4 15.288 302 14.788 300.5C17.588 302.7 22.288 304.2 24.088 300.2C25.688 296.8 20.588 297.2 18.088 296.4C18.488 296.4 18.888 296.4 19.288 296.4C20.388 296.4 21.488 296.5 22.588 296.5C24.588 296.4 26.488 295.4 26.688 293.2C26.888 291.3 24.688 291.4 23.388 291.6C22.388 291.8 20.488 292.3 19.388 291.7C21.788 290.9 24.388 290 25.788 287.7C26.388 286.7 26.888 285 26.488 283.9C26.188 283 24.988 283.1 24.288 283.4C22.288 284.1 20.788 285.9 18.788 286.7C18.288 286.9 17.788 287.1 17.288 287.2C17.088 287.2 16.888 287.3 16.688 287.3C16.588 287.3 16.488 287.3 16.488 287.3V287.2C16.588 286.9 16.688 286.7 16.888 286.4C17.188 285.8 17.688 285.4 18.188 285.1C19.288 284.4 20.488 284.1 21.488 283.3C22.688 282.5 23.288 281.3 23.688 279.9C23.988 278.7 24.288 277.3 23.788 276.1C23.388 274.9 22.288 274.4 20.988 274.5C17.488 274.8 17.288 278.6 15.788 281C15.388 281.6 14.888 282.2 14.288 282.7C14.088 282.9 13.388 283.5 13.088 283.4C12.888 283.4 12.988 282.3 12.988 282.1C13.088 281.2 13.388 280.5 13.888 279.8C15.188 278 17.188 276.6 17.788 274.4C18.188 272.9 18.088 270.8 16.588 270C14.988 269.1 13.088 270.5 12.288 271.8C11.288 273.5 11.488 275.8 9.888 277.2C9.288 276.4 9.288 275.5 9.488 274.5C9.788 273 10.488 271.6 10.988 270.1C11.488 268.7 11.988 267.3 11.888 265.8C12.088 264 11.188 262.8 9.888 262.2Z" fill="#055E5A"/>
<path d="M59.9881 274.7C59.7881 273.4 59.2881 272.2 58.6881 271C58.4881 270.7 58.0881 270.6 57.7881 270.8C56.2881 271.7 54.7881 272.8 53.1881 273.6C52.6881 273.9 51.8881 274.2 51.3881 274.3C51.3881 274.3 51.2881 274.3 51.1881 274.3C51.1881 274.2 51.1881 274 51.1881 273.9C51.6881 271.5 53.7881 269.8 54.3881 267.5C54.7881 266.3 54.6881 264.7 54.3881 263.5C54.0881 262.2 53.1881 261.1 53.2881 259.6C53.2881 259.1 52.6881 258.9 52.2881 259C50.0881 260 47.2881 260.9 45.6881 262.9C44.2881 264.7 44.3881 266.9 44.6881 269C44.7881 270 44.8881 271.1 44.8881 272.1C44.8881 272.7 44.7881 273.7 44.1881 273.9C43.4881 274.1 43.2881 272.9 43.1881 272.3C42.8881 271.1 42.7881 270 42.6881 268.8C42.4881 266.9 41.9881 263.9 39.8881 263.1C38.9881 262.8 38.0881 263.4 37.5881 264.2C36.7881 265.4 36.6881 267 36.6881 268.4C36.6881 271.5 39.0881 273.8 39.7881 276.7C39.9881 277.4 40.1881 279.5 39.1881 279.7C38.8881 279.8 38.3881 279.4 38.0881 279.2C37.4881 278.7 36.8881 278.1 36.6881 277.4C35.5881 274.7 36.3881 271.6 35.1881 269C34.6881 267.8 33.4881 266.6 32.1881 266.2C31.0881 265.9 30.1881 266.5 29.5881 267.4C28.8881 268.4 28.7881 269.8 28.7881 271C28.7881 272.4 29.1881 273.8 29.8881 275C31.2881 277.4 33.8881 279.1 33.9881 282.1C33.9881 282.5 33.9881 283 33.6881 283.3C33.4881 283.5 32.9881 283.4 32.6881 283.3C31.4881 282.9 30.2881 281.7 29.5881 280.6C28.7881 279.3 28.5881 277.7 28.2881 276.3C27.8881 274.8 27.3881 273.4 26.2881 272.2C25.4881 271.4 24.2881 270.7 23.1881 271.3C22.1881 271.8 21.5881 272.9 21.3881 274C20.9881 275.4 20.9881 276.8 21.2881 278.2C21.5881 279.7 22.5881 281.1 23.5881 282.2C24.5881 283.4 25.7881 284.4 26.7881 285.6C27.0881 285.9 27.2881 286.2 27.5881 286.4C27.9881 286.6 28.3881 286.9 28.6881 287.2C28.9881 287.5 28.5881 287.7 28.2881 287.9C27.6881 288.3 26.8881 287.8 26.3881 287.5C25.8881 287.3 25.2881 287.1 24.7881 286.8C24.1881 286.5 23.6881 286 23.1881 285.6C22.1881 284.8 21.0881 283.9 19.7881 283.6C18.4881 283.3 17.1881 283.9 16.3881 284.8C14.6881 286.8 16.3881 289.7 18.0881 291C19.1881 291.9 20.3881 292.2 21.7881 292.3C23.4881 292.3 25.1881 291.8 26.7881 292.5C26.5881 293.2 26.0881 293.5 25.2881 293.7C24.1881 293.9 22.9881 293.6 21.8881 293.5C19.7881 293.1 16.8881 292.2 14.8881 293.5C14.6881 293.7 14.4881 293.9 14.5881 294.2C14.9881 295.5 15.5881 296.6 16.6881 297.4C17.5881 298 18.7881 298.1 19.8881 298.1C21.7881 298 23.8881 297.2 25.7881 297.5C25.2881 297.8 24.7881 297.8 24.1881 297.9C23.0881 298.1 22.1881 298.7 21.3881 299.5C20.1881 300.8 19.7881 302.6 21.4881 303.6C22.3881 304.1 23.5881 304.2 24.6881 304.2C25.8881 304.2 26.9881 303.8 28.0881 303.3C29.3881 302.6 30.4881 301.6 31.3881 300.5C31.1881 304.1 32.5881 308.8 36.8881 308.1C40.5881 307.5 37.3881 303.6 36.6881 301C36.8881 301.3 37.1881 301.7 37.3881 302C37.9881 302.9 38.4881 303.9 39.1881 304.7C40.4881 306.3 42.2881 307.3 44.2881 306.2C45.9881 305.2 44.5881 303.5 43.6881 302.6C42.9881 301.8 41.4881 300.6 41.3881 299.3C43.3881 300.8 45.6881 302.5 48.2881 302.3C49.4881 302.2 51.0881 301.7 51.7881 300.7C52.3881 299.9 51.5881 299 50.9881 298.6C49.2881 297.3 46.9881 297.1 45.1881 296C44.7881 295.7 44.2881 295.4 43.9881 295.1C43.8881 295 43.6881 294.8 43.5881 294.7C43.5881 294.6 43.4881 294.6 43.4881 294.5C43.4881 294.5 43.5881 294.5 43.5881 294.4C43.8881 294.3 44.1881 294.3 44.4881 294.3C45.1881 294.3 45.7881 294.4 46.3881 294.6C47.4881 295.1 48.4881 295.9 49.6881 296.3C50.9881 296.8 52.3881 296.7 53.6881 296.2C54.8881 295.8 56.0881 295.2 56.8881 294.2C57.6881 293.1 57.3881 292 56.6881 291C54.4881 288.3 51.1881 290.2 48.3881 290.4C47.6881 290.4 46.8881 290.3 46.1881 290.1C45.8881 290 44.9881 289.9 44.8881 289.5C44.7881 289.3 45.6881 288.8 45.8881 288.7C46.6881 288.3 47.4881 288.1 48.2881 288.1C50.4881 288.1 52.7881 289 54.9881 288.3C56.3881 287.8 58.0881 286.5 57.9881 284.8C57.7881 283 55.5881 282.2 54.0881 282.3C52.0881 282.4 50.2881 283.9 48.2881 283.4C48.5881 282.5 49.3881 281.9 50.2881 281.5C51.6881 280.9 53.2881 280.6 54.6881 280.3C56.0881 280 57.5881 279.5 58.7881 278.6C59.7881 277.6 60.1881 276.2 59.9881 274.7Z" fill="#4FD3BD"/>
<path d="M50.4881 262.3C49.7881 265.5 49.0881 268.8 48.1881 272C47.2881 275.3 45.8881 278.3 43.9881 281.2C40.0881 287.1 35.1881 292.2 31.2881 298C31.0881 298.2 31.1881 298.5 31.2881 298.7C30.4881 300.1 30.0881 301.8 29.7881 303.4C29.1881 306.1 29.0881 308.9 28.9881 311.7C28.8881 315.1 28.8881 318.5 28.9881 321.9C29.1881 325.9 29.4881 329.9 29.2881 333.9C29.2881 334.1 29.2881 334.4 29.2881 334.6C29.2881 335.4 30.4881 335.4 30.5881 334.6C30.7881 330.7 30.5881 326.8 30.3881 322.9C30.1881 319.4 30.1881 315.9 30.2881 312.5C30.3881 309.8 30.4881 307.1 30.9881 304.4C31.3881 302 32.0881 299.2 33.8881 297.5C34.1881 297.3 34.0881 296.9 33.9881 296.7C37.6881 291.6 41.9881 287 45.3881 281.8C47.1881 279 48.5881 276 49.4881 272.7C50.4881 269.5 51.0881 266.1 51.8881 262.8C51.8881 261.8 50.5881 261.5 50.4881 262.3Z" fill="#4FD3BD"/>
<path d="M29.5883 333.2H6.98828L15.9883 369.1H29.5883H43.7883L52.1883 333.2H29.5883Z" fill="#CE1B35"/>
</g>
<defs>
<linearGradient id="paint0_linear" x1="190.546" y1="578.222" x2="194.138" y2="368.99" gradientUnits="userSpaceOnUse">
<stop stop-color="white"/>
<stop offset="1" stop-color="white" stop-opacity="0"/>
</linearGradient>
</defs>
</svg>
