<svg width="643" height="210" viewBox="0 0 643 210" fill="none" xmlns="http://www.w3.org/2000/svg">
<g filter="url(#filter0_d)">
<circle cx="523" cy="78" r="25" fill="#F2F2F2"/>
<path fill-rule="evenodd" clip-rule="evenodd" d="M517.709 77.9158C517.709 77.3408 518.175 76.8741 518.75 76.8741C519.325 76.8741 519.792 77.3408 519.792 77.9158C519.792 78.4908 519.325 78.9574 518.75 78.9574C518.175 78.9574 517.709 78.4908 517.709 77.9158ZM522.917 76.8741C522.342 76.8741 521.875 77.3408 521.875 77.9158C521.875 78.4908 522.342 78.9574 522.917 78.9574C523.492 78.9574 523.959 78.4908 523.959 77.9158C523.959 77.3408 523.492 76.8741 522.917 76.8741ZM527.084 76.8741C526.509 76.8741 526.042 77.3408 526.042 77.9158C526.042 78.4908 526.509 78.9574 527.084 78.9574C527.659 78.9574 528.125 78.4908 528.125 77.9158C528.125 77.3408 527.659 76.8741 527.084 76.8741ZM531.144 79.2648C530.616 82.6543 527.884 85.4658 524.5 86.1002C522.865 86.4085 521.201 86.2325 519.69 85.5929C519.262 85.4116 518.819 85.32 518.385 85.32C518.187 85.32 517.991 85.3387 517.799 85.3773L514.869 85.9627L515.456 83.0283C515.579 82.4189 515.504 81.7668 515.24 81.1429C514.601 79.6325 514.426 77.9689 514.733 76.3335C515.367 72.9491 518.178 70.2168 521.568 69.6887C524.266 69.2689 526.905 70.1189 528.809 72.0231C530.714 73.9283 531.565 76.5679 531.144 79.2648ZM530.283 70.5502C527.903 68.171 524.611 67.1096 521.247 67.6293C517.001 68.2918 513.48 71.7127 512.685 75.9491C512.302 77.9887 512.523 80.0658 513.321 81.9543C513.423 82.195 513.454 82.4189 513.414 82.62L512.52 87.0866C512.452 87.4283 512.559 87.7814 512.806 88.0273C513.003 88.2252 513.268 88.3325 513.542 88.3325C513.61 88.3325 513.678 88.3262 513.746 88.3127L518.208 87.42C518.464 87.371 518.712 87.4429 518.878 87.5116C520.768 88.3106 522.845 88.5304 524.883 88.1481C529.12 87.3533 532.541 83.8325 533.204 79.5856C533.727 76.2241 532.663 72.9304 530.283 70.5502Z" fill="#212121"/>
<mask id="mask0" mask-type="alpha" maskUnits="userSpaceOnUse" x="512" y="67" width="22" height="22">
<path fill-rule="evenodd" clip-rule="evenodd" d="M517.709 77.9158C517.709 77.3408 518.175 76.8741 518.75 76.8741C519.325 76.8741 519.792 77.3408 519.792 77.9158C519.792 78.4908 519.325 78.9574 518.75 78.9574C518.175 78.9574 517.709 78.4908 517.709 77.9158ZM522.917 76.8741C522.342 76.8741 521.875 77.3408 521.875 77.9158C521.875 78.4908 522.342 78.9574 522.917 78.9574C523.492 78.9574 523.959 78.4908 523.959 77.9158C523.959 77.3408 523.492 76.8741 522.917 76.8741ZM527.084 76.8741C526.509 76.8741 526.042 77.3408 526.042 77.9158C526.042 78.4908 526.509 78.9574 527.084 78.9574C527.659 78.9574 528.125 78.4908 528.125 77.9158C528.125 77.3408 527.659 76.8741 527.084 76.8741ZM531.144 79.2648C530.616 82.6543 527.884 85.4658 524.5 86.1002C522.865 86.4085 521.201 86.2325 519.69 85.5929C519.262 85.4116 518.819 85.32 518.385 85.32C518.187 85.32 517.991 85.3387 517.799 85.3773L514.869 85.9627L515.456 83.0283C515.579 82.4189 515.504 81.7668 515.24 81.1429C514.601 79.6325 514.426 77.9689 514.733 76.3335C515.367 72.9491 518.178 70.2168 521.568 69.6887C524.266 69.2689 526.905 70.1189 528.809 72.0231C530.714 73.9283 531.565 76.5679 531.144 79.2648ZM530.283 70.5502C527.903 68.171 524.611 67.1096 521.247 67.6293C517.001 68.2918 513.48 71.7127 512.685 75.9491C512.302 77.9887 512.523 80.0658 513.321 81.9543C513.423 82.195 513.454 82.4189 513.414 82.62L512.52 87.0866C512.452 87.4283 512.559 87.7814 512.806 88.0273C513.003 88.2252 513.268 88.3325 513.542 88.3325C513.61 88.3325 513.678 88.3262 513.746 88.3127L518.208 87.42C518.464 87.371 518.712 87.4429 518.878 87.5116C520.768 88.3106 522.845 88.5304 524.883 88.1481C529.12 87.3533 532.541 83.8325 533.204 79.5856C533.727 76.2241 532.663 72.9304 530.283 70.5502Z" fill="white"/>
</mask>
<g mask="url(#mask0)">
<rect x="510" y="65" width="25" height="25" fill="#212121"/>
</g>
<circle cx="578" cy="78" r="25" fill="#F2F2F2"/>
<path fill-rule="evenodd" clip-rule="evenodd" d="M579.75 83.231L574.436 79.5872C574.262 79.4695 574.057 79.4049 573.847 79.4049H569.333V74.3455H573.847C574.057 74.3455 574.262 74.281 574.436 74.1633L579.75 70.5195V83.231ZM581.277 67.6205C580.934 67.4392 580.521 67.4632 580.203 67.6819L573.524 72.2622H568.292C567.717 72.2622 567.25 72.7278 567.25 73.3038V80.4465C567.25 81.0226 567.717 81.4882 568.292 81.4882H573.524L580.203 86.0684C580.379 86.1892 580.585 86.2497 580.792 86.2497C580.958 86.2497 581.125 86.2101 581.277 86.1299C581.619 85.9497 581.833 85.5955 581.833 85.208V68.5413C581.833 68.1549 581.619 67.8007 581.277 67.6205ZM585.041 73.7221C584.679 73.2741 584.024 73.2044 583.576 73.5637C583.128 73.9241 583.057 74.5794 583.417 75.0283C584.496 76.3679 584.496 78.6325 583.417 79.9721C583.057 80.421 583.128 81.0762 583.576 81.4366C583.769 81.5919 583.999 81.6669 584.228 81.6669C584.533 81.6669 584.835 81.5335 585.041 81.2783C586.745 79.1596 586.745 75.8408 585.041 73.7221ZM584.989 70.586C585.356 70.1422 586.013 70.0808 586.456 70.4475C588.714 72.3183 589.958 74.8235 589.958 77.5006C589.958 80.1766 588.714 82.6818 586.456 84.5527C586.261 84.7131 586.026 84.7922 585.792 84.7922C585.492 84.7922 585.196 84.6631 584.989 84.4141C584.623 83.9714 584.684 83.3152 585.128 82.9475C586.899 81.4797 587.875 79.5454 587.875 77.5006C587.875 75.4547 586.899 73.5204 585.128 72.0527C584.684 71.685 584.623 71.0287 584.989 70.586Z" fill="#212121"/>
<mask id="mask1" mask-type="alpha" maskUnits="userSpaceOnUse" x="567" y="67" width="23" height="20">
<path fill-rule="evenodd" clip-rule="evenodd" d="M579.75 83.231L574.436 79.5872C574.262 79.4695 574.057 79.4049 573.847 79.4049H569.333V74.3455H573.847C574.057 74.3455 574.262 74.281 574.436 74.1633L579.75 70.5195V83.231ZM581.277 67.6205C580.934 67.4392 580.521 67.4632 580.203 67.6819L573.524 72.2622H568.292C567.717 72.2622 567.25 72.7278 567.25 73.3038V80.4465C567.25 81.0226 567.717 81.4882 568.292 81.4882H573.524L580.203 86.0684C580.379 86.1892 580.585 86.2497 580.792 86.2497C580.958 86.2497 581.125 86.2101 581.277 86.1299C581.619 85.9497 581.833 85.5955 581.833 85.208V68.5413C581.833 68.1549 581.619 67.8007 581.277 67.6205ZM585.041 73.7221C584.679 73.2741 584.024 73.2044 583.576 73.5637C583.128 73.9241 583.057 74.5794 583.417 75.0283C584.496 76.3679 584.496 78.6325 583.417 79.9721C583.057 80.421 583.128 81.0762 583.576 81.4366C583.769 81.5919 583.999 81.6669 584.228 81.6669C584.533 81.6669 584.835 81.5335 585.041 81.2783C586.745 79.1596 586.745 75.8408 585.041 73.7221ZM584.989 70.586C585.356 70.1422 586.013 70.0808 586.456 70.4475C588.714 72.3183 589.958 74.8235 589.958 77.5006C589.958 80.1766 588.714 82.6818 586.456 84.5527C586.261 84.7131 586.026 84.7922 585.792 84.7922C585.492 84.7922 585.196 84.6631 584.989 84.4141C584.623 83.9714 584.684 83.3152 585.128 82.9475C586.899 81.4797 587.875 79.5454 587.875 77.5006C587.875 75.4547 586.899 73.5204 585.128 72.0527C584.684 71.685 584.623 71.0287 584.989 70.586Z" fill="white"/>
</mask>
<g mask="url(#mask1)">
<rect x="566" y="65" width="25" height="25" fill="#212121"/>
</g>
<circle cx="523" cy="133" r="25" fill="#212121"/>
<path fill-rule="evenodd" clip-rule="evenodd" d="M521.649 128.207L515.798 134.058L515.523 137.137L518.624 136.855L524.458 131.015L521.649 128.207ZM527.881 127.588L525.074 124.782L523.045 126.811L525.852 129.619L527.881 127.588ZM514.47 139.324C514.438 139.328 514.406 139.329 514.375 139.329C514.1 139.329 513.835 139.22 513.639 139.023C513.42 138.805 513.31 138.501 513.338 138.193L513.733 133.848C513.776 133.372 513.987 132.923 514.325 132.585L523.696 123.213C524.427 122.48 525.754 122.516 526.525 123.286L529.377 126.138H529.378C530.176 126.937 530.208 128.205 529.449 128.965L520.077 138.337C519.739 138.677 519.291 138.886 518.814 138.93L514.47 139.324ZM515.208 141.833H529.792C530.365 141.833 530.833 142.302 530.833 142.875C530.833 143.448 530.365 143.917 529.792 143.917H515.208C514.635 143.917 514.167 143.448 514.167 142.875C514.167 142.302 514.635 141.833 515.208 141.833Z" fill="white"/>
<mask id="mask2" mask-type="alpha" maskUnits="userSpaceOnUse" x="513" y="122" width="18" height="22">
<path fill-rule="evenodd" clip-rule="evenodd" d="M521.649 128.207L515.798 134.058L515.523 137.137L518.624 136.855L524.458 131.015L521.649 128.207ZM527.881 127.588L525.074 124.782L523.045 126.811L525.852 129.619L527.881 127.588ZM514.47 139.324C514.438 139.328 514.406 139.329 514.375 139.329C514.1 139.329 513.835 139.22 513.639 139.023C513.42 138.805 513.31 138.501 513.338 138.193L513.733 133.848C513.776 133.372 513.987 132.923 514.325 132.585L523.696 123.213C524.427 122.48 525.754 122.516 526.525 123.286L529.377 126.138H529.378C530.176 126.937 530.208 128.205 529.449 128.965L520.077 138.337C519.739 138.677 519.291 138.886 518.814 138.93L514.47 139.324ZM515.208 141.833H529.792C530.365 141.833 530.833 142.302 530.833 142.875C530.833 143.448 530.365 143.917 529.792 143.917H515.208C514.635 143.917 514.167 143.448 514.167 142.875C514.167 142.302 514.635 141.833 515.208 141.833Z" fill="white"/>
</mask>
<g mask="url(#mask2)">
<rect x="510" y="121" width="25" height="25" fill="white"/>
</g>
<circle cx="578" cy="133" r="25" fill="#212121"/>
<path d="M578.055 134.384C576.62 132.984 575.356 131.755 574.638 128.919H579.659V126.801H574.673V124H572.521V126.835H567.5V128.952H572.624C572.624 128.952 572.589 129.362 572.521 129.669C571.804 132.47 570.949 134.246 567.5 135.988L568.217 138.105C571.497 136.363 573.204 134.177 573.956 131.752C574.673 133.597 575.903 135.099 577.303 136.466L578.055 134.384Z" fill="white"/>
<path d="M584.682 127.519H581.813L576.792 141.625H578.944L580.379 137.389H586.117L587.552 141.625H589.703L584.682 127.519ZM581.096 135.272L583.247 129.636L585.399 135.306L581.096 135.272Z" fill="white"/>
</g>
<rect width="320" height="20" rx="6" fill="#F2F2F2"/>
<rect y="40" width="440" height="10" rx="5" fill="#F2F2F2"/>
<rect y="60" width="440" height="10" rx="5" fill="#F2F2F2"/>
<rect y="80" width="440" height="10" rx="5" fill="#F2F2F2"/>
<rect y="100" width="112" height="10" rx="5" fill="#F2F2F2"/>
<rect y="120" width="440" height="10" rx="5" fill="#F2F2F2"/>
<rect y="140" width="440" height="10" rx="5" fill="#F2F2F2"/>
<rect y="160" width="420" height="10" rx="5" fill="#F2F2F2"/>
<rect y="180" width="440" height="10" rx="5" fill="#F2F2F2"/>
<rect y="200" width="180" height="10" rx="5" fill="#F2F2F2"/>
<line x1="476" y1="1" x2="476" y2="209" stroke="#212121" stroke-width="2" stroke-linecap="round" stroke-linejoin="round"/>
<path d="M480.25 104.067C480.583 104.259 480.583 104.741 480.25 104.933L476.5 107.098C476.167 107.291 475.75 107.05 475.75 106.665L475.75 102.335C475.75 101.95 476.167 101.709 476.5 101.902L480.25 104.067Z" fill="#212121"/>
<defs>
<filter id="filter0_d" x="458" y="17" width="185" height="185" filterUnits="userSpaceOnUse" color-interpolation-filters="sRGB">
<feFlood flood-opacity="0" result="BackgroundImageFix"/>
<feColorMatrix in="SourceAlpha" type="matrix" values="0 0 0 0 0 0 0 0 0 0 0 0 0 0 0 0 0 0 127 0"/>
<feOffset dy="4"/>
<feGaussianBlur stdDeviation="20"/>
<feColorMatrix type="matrix" values="0 0 0 0 0 0 0 0 0 0 0 0 0 0 0 0 0 0 0.25 0"/>
<feBlend mode="normal" in2="BackgroundImageFix" result="effect1_dropShadow"/>
<feBlend mode="normal" in="SourceGraphic" in2="effect1_dropShadow" result="shape"/>
</filter>
</defs>
</svg>
