<svg width="331" height="250" viewBox="0 0 331 250" fill="none" xmlns="http://www.w3.org/2000/svg">
<g clip-path="url(#clip0)">
<path d="M86.1341 165.247C87.3591 165.247 88.3521 164.254 88.3521 163.029C88.3521 161.804 87.3591 160.811 86.1341 160.811C84.9091 160.811 83.916 161.804 83.916 163.029C83.916 164.254 84.9091 165.247 86.1341 165.247Z" fill="#212121"/>
<path d="M330.436 249.172H34.75V250H330.436V249.172Z" fill="#2F2E41"/>
<path d="M217.815 122.238C217.815 122.238 206.239 135.737 208.672 136.619C211.105 137.5 222.464 127.854 221.734 124.444L217.815 122.238Z" fill="#A0616A"/>
<path d="M285.946 134.749C285.946 134.749 292.231 151.384 289.643 151.384C287.055 151.384 279.662 138.445 281.51 135.488L285.946 134.749Z" fill="#A0616A"/>
<path d="M297.885 236.205C302.257 230.044 304.18 223.9 302.182 222.482C300.184 221.065 295.02 224.91 290.649 231.071C286.278 237.232 284.354 243.376 286.352 244.794C288.351 246.211 293.514 242.366 297.885 236.205Z" fill="#2F2E41"/>
<path d="M251.309 243.664C257.051 238.756 260.415 233.267 258.824 231.404C257.232 229.542 251.286 232.011 245.544 236.92C239.802 241.828 236.437 247.317 238.029 249.179C239.621 251.042 245.566 248.572 251.309 243.664Z" fill="#2F2E41"/>
<path d="M289.857 34.0548C288.82 32.5874 287.543 31.3051 286.448 29.88C283.924 26.5944 283.05 22.2164 279.662 19.6968C276.31 17.2037 270.99 14.7498 266.795 14.9464C261.266 15.2055 256.88 19.4945 253.069 23.508C250.157 26.575 247.244 29.642 244.332 32.7091C242.225 34.9278 240.04 37.2834 239.28 40.2475C238.55 43.0963 239.263 46.1567 240.599 48.7764C241.987 51.4338 243.935 53.7588 246.308 55.5916C249.233 51.5641 253.33 46.0031 253.33 46.0031L254.284 59.8355C259.24 61.4777 264.562 61.8006 269.784 61.4375L271.331 55.7662L272.955 61.1235C279.195 60.2962 285.464 58.1415 289.327 53.2719C293.598 47.8881 293.825 39.6659 289.857 34.0548Z" fill="#2F2E41"/>
<path d="M265.985 46.395C272.315 46.395 277.446 41.2641 277.446 34.9349C277.446 28.6057 272.315 23.4749 265.985 23.4749C259.656 23.4749 254.525 28.6057 254.525 34.9349C254.525 41.2641 259.656 46.395 265.985 46.395Z" fill="#A0616A"/>
<path d="M258.589 40.4802C258.589 40.4802 259.328 49.3525 254.522 50.0919C249.717 50.8313 244.541 50.0919 244.541 53.0493C244.541 56.0068 248.238 82.9934 248.238 82.9934L257.48 82.2541L270.419 69.6849L277.443 56.0068C277.443 56.0068 268.94 52.31 272.637 41.2196L258.589 40.4802Z" fill="#A0616A"/>
<path d="M253.047 77.8181L249.35 67.8367L250.089 54.1585C250.089 54.1585 258.206 53.0495 258.029 46.3953L251.937 48.983L237.89 51.2011V64.1399C237.89 64.1399 233.084 71.9032 238.629 79.6665L241.217 95.9324L267.834 94.084L276.336 82.9936L287.057 61.9218L275.967 53.7889L277.445 51.5708L271.789 47.8816L272.64 54.8979L270.052 59.3341C270.052 59.3341 258.222 61.5522 253.047 77.8181Z" fill="#D0CDE1"/>
<path d="M240.108 51.94L237.89 51.2007C237.89 51.2007 233.454 53.0491 233.454 58.964C233.454 64.8788 215.709 123.288 215.709 123.288L223.842 125.506L234.932 98.5197L241.587 75.9692L240.108 51.94Z" fill="#D0CDE1"/>
<path d="M284.101 61.9217H287.059C287.059 61.9217 288.907 60.4429 288.537 71.1637C288.168 81.8844 289.646 138.445 289.646 138.445L278.926 137.706L276.338 76.7089L284.101 61.9217Z" fill="#D0CDE1"/>
<path d="M269.97 91.2968C269.97 91.2968 244.913 86.6902 239.368 91.1264C239.882 91.7479 240.145 92.5388 240.107 93.3445C240.107 94.8232 240.846 92.9748 240.107 94.8232C239.368 96.6716 237.889 95.1929 239.368 96.6716C240.846 98.1503 241.216 97.7806 240.477 98.8897C239.737 99.9987 240.477 101.847 240.477 101.847C240.477 101.847 236.41 121.07 240.107 134.749C243.804 148.427 274.487 244.913 282.62 242.326C290.753 239.738 311.086 227.908 309.977 223.842C308.868 219.775 271.53 163.584 271.53 163.584C271.53 163.584 287.056 115.156 268.572 99.629C268.572 99.629 269.681 98.1503 269.312 97.0413C268.942 95.9322 268.572 97.0413 268.942 95.9322C269.312 94.8232 271.16 94.8232 270.051 93.7142C268.942 92.6051 269.97 91.2968 269.97 91.2968Z" fill="#2F2E41"/>
<path d="M253.044 131.052C253.044 131.052 227.905 243.435 233.081 245.283C238.256 247.131 258.219 247.501 259.698 245.283C261.177 243.065 271.528 163.584 271.528 163.584L253.044 131.052Z" fill="#2F2E41"/>
<path d="M253.6 26.6169C253.6 26.6169 262.842 37.7073 281.326 31.4227L276.15 22.1807L263.951 18.4839L253.6 26.6169Z" fill="#2F2E41"/>
<path d="M94.2316 166.611C93.5108 166.413 92.7902 166.198 92.0898 165.97L92.3187 165.267C93.0079 165.491 93.7173 165.704 94.4269 165.898L94.2316 166.611Z" fill="#3F3D56"/>
<path d="M116.259 169.068L116.243 168.328C117.724 168.296 119.203 168.222 120.641 168.108L120.7 168.845C119.248 168.96 117.754 169.035 116.259 169.068ZM111.815 169.045C110.352 168.999 108.86 168.913 107.378 168.791L107.439 168.053C108.908 168.175 110.388 168.26 111.838 168.306L111.815 169.045ZM125.122 168.359L125.018 167.627C126.486 167.419 127.944 167.164 129.353 166.868L129.505 167.592C128.08 167.891 126.605 168.149 125.122 168.359H125.122ZM102.961 168.316C101.427 168.115 99.9496 167.879 98.5703 167.614L98.7097 166.887C100.075 167.15 101.537 167.384 103.057 167.583L102.961 168.316ZM133.826 166.522L133.622 165.812C135.044 165.404 136.448 164.941 137.797 164.437L138.056 165.13C136.689 165.641 135.266 166.109 133.826 166.522ZM142.16 163.395L141.843 162.727C143.173 162.096 144.478 161.404 145.72 160.67L146.097 161.307C144.835 162.052 143.51 162.755 142.16 163.395ZM149.821 158.858L149.386 158.261C149.903 157.884 150.419 157.49 150.92 157.091C151.532 156.602 152.166 156.069 152.803 155.507L153.292 156.062C152.646 156.632 152.003 157.172 151.381 157.669C150.872 158.075 150.347 158.475 149.821 158.858ZM156.528 153.012L156.007 152.488C157.086 151.415 158.166 150.294 159.093 149.328L159.627 149.84C158.697 150.81 157.613 151.934 156.528 153.012ZM162.699 146.66L162.172 146.141C163.371 144.922 164.382 143.936 165.354 143.04L165.855 143.583C164.893 144.471 163.89 145.449 162.699 146.66ZM169.2 140.737L168.748 140.152C169.923 139.236 171.155 138.395 172.436 137.634L172.812 138.271C171.558 139.016 170.351 139.84 169.2 140.737ZM176.725 136.331L176.445 135.646C177.827 135.085 179.244 134.614 180.687 134.236L180.875 134.951C179.463 135.321 178.077 135.782 176.725 136.331ZM185.169 134.071L185.058 133.34C186.453 133.128 187.943 132.967 189.487 132.863L189.536 133.6C188.013 133.704 186.544 133.862 185.169 134.071ZM198.345 133.514C196.968 133.466 195.717 133.443 194.519 133.443L193.936 133.445L193.931 132.706L194.519 132.704C195.725 132.704 196.985 132.727 198.37 132.775L198.345 133.514Z" fill="#3F3D56"/>
<path d="M204.986 133.858C204.251 133.812 203.514 133.768 202.773 133.725L202.816 132.987C203.557 133.029 204.295 133.074 205.032 133.12L204.986 133.858Z" fill="#3F3D56"/>
<path d="M58.4551 122.481C58.1753 121.798 57.8928 121.116 57.6074 120.435L58.289 120.149C58.5757 120.832 58.8591 121.516 59.1392 122.201L58.4551 122.481Z" fill="#3F3D56"/>
<path d="M76.4432 156.065C75.3421 154.898 74.3009 153.676 73.3236 152.403L73.9096 151.952C74.8714 153.205 75.8962 154.408 76.98 155.557L76.4432 156.065ZM70.559 148.473C69.7292 147.186 68.9016 145.8 68.0992 144.351L68.7461 143.993C69.5404 145.427 70.3593 146.799 71.1803 148.072L70.559 148.473ZM65.8912 140.095C65.2203 138.718 64.5634 137.296 63.8829 135.747L64.5598 135.45C65.2363 136.989 65.8892 138.403 66.5558 139.771L65.8912 140.095ZM62.0227 131.339C61.4764 129.997 60.9336 128.648 60.3944 127.292L60.2402 126.907L60.9267 126.632L61.0809 127.017C61.6218 128.37 62.1641 129.717 62.7076 131.06L62.0227 131.339Z" fill="#3F3D56"/>
<path d="M81.7171 160.741C81.1189 160.303 80.5248 159.84 79.9512 159.363L80.4237 158.794C80.9856 159.262 81.5678 159.716 82.1539 160.145L81.7171 160.741Z" fill="#3F3D56"/>
<path d="M8.41602 92.2229L7.94922 91.6496C8.53397 91.1738 9.14564 90.7321 9.78119 90.3267L10.1787 90.9501C9.56721 91.3402 8.97868 91.7652 8.41602 92.2229Z" fill="#3F3D56"/>
<path d="M50.4026 106.059C49.5273 104.67 48.6129 103.345 47.6845 102.12L48.2737 101.673C49.2149 102.915 50.1416 104.258 51.0282 105.665L50.4026 106.059ZM44.6126 98.4576C44.2449 98.0627 43.8661 97.671 43.4864 97.2933C42.7538 96.5637 41.9664 95.8554 41.1463 95.1883L41.6131 94.6146C42.4521 95.2975 43.2579 96.0224 44.0081 96.7693C44.3942 97.1535 44.7796 97.552 45.1538 97.9536L44.6126 98.4576ZM37.2454 92.4548C35.882 91.6367 34.4631 90.9148 32.9991 90.2943L33.2872 89.6135C34.7831 90.2473 36.2329 90.9849 37.6259 91.8209L37.2454 92.4548ZM14.4426 88.9279L14.209 88.2264C15.7622 87.7145 17.3673 87.3759 18.995 87.2167L19.0686 87.9524C17.4954 88.1061 15.9439 88.4332 14.4426 88.9279ZM28.4917 88.7613C26.9558 88.361 25.3899 88.0867 23.8095 87.9411L23.8759 87.2046C25.4964 87.354 27.102 87.6352 28.6769 88.0454L28.4917 88.7613Z" fill="#3F3D56"/>
<path d="M53.8391 112.169C53.5001 111.498 53.1568 110.839 52.8184 110.211L53.4696 109.86C53.8108 110.495 54.1572 111.159 54.4991 111.836L53.8391 112.169Z" fill="#3F3D56"/>
<path d="M2.95744 99.4439C2.37252 99.4439 1.80073 99.2705 1.31438 98.9455C0.828032 98.6205 0.448965 98.1586 0.225123 97.6182C0.0012814 97.0778 -0.0572858 96.4832 0.0568277 95.9095C0.170941 95.3358 0.452614 94.8089 0.866219 94.3953C1.27982 93.9817 1.80679 93.7 2.38048 93.5859C2.95416 93.4718 3.54881 93.5303 4.08921 93.7542C4.62961 93.978 5.0915 94.3571 5.41647 94.8434C5.74143 95.3298 5.91488 95.9016 5.91488 96.4865C5.91398 97.2706 5.60211 98.0223 5.04768 98.5767C4.49324 99.1311 3.74153 99.443 2.95744 99.4439ZM2.95744 94.2684C2.51875 94.2684 2.0899 94.3985 1.72514 94.6422C1.36038 94.886 1.07609 95.2324 0.908204 95.6377C0.740323 96.043 0.696399 96.489 0.781984 96.9192C0.867569 97.3495 1.07882 97.7447 1.38903 98.0549C1.69923 98.3651 2.09445 98.5764 2.52472 98.6619C2.95498 98.7475 3.40097 98.7036 3.80627 98.5357C4.21157 98.3678 4.55799 98.0835 4.80171 97.7188C5.04544 97.354 5.17552 96.9252 5.17552 96.4865C5.17488 95.8984 4.94098 95.3346 4.52515 94.9188C4.10932 94.5029 3.54552 94.2691 2.95744 94.2684Z" fill="#3F3D56"/>
<path d="M56.1899 119.407C55.6049 119.407 55.0331 119.233 54.5468 118.908C54.0605 118.583 53.6814 118.122 53.4575 117.581C53.2337 117.041 53.1751 116.446 53.2892 115.872C53.4034 115.299 53.685 114.772 54.0986 114.358C54.5122 113.945 55.0392 113.663 55.6129 113.549C56.1866 113.435 56.7812 113.493 57.3216 113.717C57.862 113.941 58.3239 114.32 58.6489 114.806C58.9738 115.293 59.1473 115.864 59.1473 116.449C59.1464 117.233 58.8345 117.985 58.2801 118.54C57.7257 119.094 56.9739 119.406 56.1899 119.407ZM56.1899 114.231C55.7512 114.231 55.3223 114.361 54.9576 114.605C54.5928 114.849 54.3085 115.195 54.1406 115.601C53.9727 116.006 53.9288 116.452 54.0144 116.882C54.1 117.312 54.3112 117.708 54.6214 118.018C54.9316 118.328 55.3269 118.539 55.7571 118.625C56.1874 118.71 56.6334 118.667 57.0387 118.499C57.444 118.331 57.7904 118.046 58.0341 117.682C58.2779 117.317 58.4079 116.888 58.4079 116.449C58.4073 115.861 58.1734 115.298 57.7576 114.882C57.3417 114.466 56.7779 114.232 56.1899 114.231Z" fill="#3F3D56"/>
<path d="M86.1352 165.986C85.5502 165.986 84.9785 165.813 84.4921 165.488C84.0058 165.163 83.6267 164.701 83.4029 164.161C83.179 163.62 83.1204 163.026 83.2346 162.452C83.3487 161.878 83.6303 161.351 84.0439 160.938C84.4575 160.524 84.9845 160.242 85.5582 160.128C86.1319 160.014 86.7265 160.073 87.2669 160.297C87.8073 160.52 88.2692 160.9 88.5942 161.386C88.9191 161.872 89.0926 162.444 89.0926 163.029C89.0917 163.813 88.7798 164.565 88.2254 165.119C87.671 165.674 86.9192 165.985 86.1352 165.986ZM86.1352 160.811C85.6965 160.811 85.2676 160.941 84.9029 161.185C84.5381 161.428 84.2538 161.775 84.0859 162.18C83.9181 162.585 83.8741 163.031 83.9597 163.462C84.0453 163.892 84.2565 164.287 84.5667 164.597C84.877 164.908 85.2722 165.119 85.7024 165.204C86.1327 165.29 86.5787 165.246 86.984 165.078C87.3893 164.91 87.7357 164.626 87.9794 164.261C88.2232 163.896 88.3532 163.468 88.3532 163.029C88.3526 162.441 88.1187 161.877 87.7029 161.461C87.287 161.045 86.7232 160.812 86.1352 160.811Z" fill="#3F3D56"/>
<path d="M87.2433 153.787H86.5039V156.005H87.2433V153.787Z" fill="#3F3D56"/>
<path d="M87.2433 149.508H86.5039V145.229H87.2433V149.508ZM87.2433 140.95H86.5039V136.671H87.2433V140.95ZM87.2433 132.392H86.5039V128.112H87.2433V132.392ZM87.2433 123.833H86.5039V119.554H87.2433V123.833ZM87.2433 115.275H86.5039V110.996H87.2433V115.275ZM87.2433 106.717H86.5039V102.438H87.2433V106.717ZM87.2433 98.1585H86.5039V93.8793H87.2433V98.1585ZM87.2433 89.6002H86.5039V85.3209H87.2433V89.6002ZM87.2433 81.0418H86.5039V76.7627H87.2433V81.0418Z" fill="#3F3D56"/>
<path d="M87.2433 70.2649H86.5039V72.483H87.2433V70.2649Z" fill="#3F3D56"/>
<path d="M86.875 65.8032C87.654 67.9029 88.9833 70.508 90.3913 72.1228L86.875 70.8509L83.3594 72.1228C84.7673 70.508 86.0966 67.9029 86.875 65.8032Z" fill="#3F3D56"/>
<path d="M112.752 59.1488H60.627V0H112.752V59.1488ZM61.3663 58.4094H112.012V0.73936H61.3663V58.4094Z" fill="#3F3D56"/>
<path d="M75.0455 9.98169H63.9551V21.0721H75.0455V9.98169Z" fill="#212121"/>
<path d="M77.2634 18.8537H65.4336V7.02393H77.2634V18.8537ZM66.173 18.1143H76.524V7.76329H66.173V18.1143Z" fill="#3F3D56"/>
<path d="M103.51 11.46H88.3535V12.1993H103.51V11.46Z" fill="#3F3D56"/>
<path d="M103.51 14.4177H88.3535V15.1571H103.51V14.4177Z" fill="#3F3D56"/>
<path d="M103.508 26.9866H65.8008V27.7259H103.508V26.9866Z" fill="#3F3D56"/>
<path d="M103.508 30.6836H65.8008V31.423H103.508V30.6836Z" fill="#3F3D56"/>
<path d="M103.508 34.3804H65.8008V35.1197H103.508V34.3804Z" fill="#3F3D56"/>
<path d="M103.508 38.0769H65.8008V38.8163H103.508V38.0769Z" fill="#3F3D56"/>
<path d="M103.508 41.7737H65.8008V42.5131H103.508V41.7737Z" fill="#3F3D56"/>
<path d="M103.508 45.4707H65.8008V46.2101H103.508V45.4707Z" fill="#3F3D56"/>
</g>
<defs>
<clipPath id="clip0">
<rect width="330.436" height="250" fill="white"/>
</clipPath>
</defs>
</svg>
