<svg width="544" height="266" viewBox="0 0 544 266" fill="none" xmlns="http://www.w3.org/2000/svg">
<rect y="46" width="269.091" height="20" rx="6" fill="#F2F2F2"/>
<rect y="86" width="370" height="10" rx="5" fill="#F2F2F2"/>
<rect y="106" width="370" height="10" rx="5" fill="#F2F2F2"/>
<rect y="126" width="370" height="10" rx="5" fill="#F2F2F2"/>
<rect y="146" width="94.1818" height="10" rx="5" fill="#F2F2F2"/>
<rect y="176" width="269.091" height="20" rx="6" fill="#F2F2F2"/>
<rect y="216" width="370" height="10" rx="5" fill="#F2F2F2"/>
<rect y="236" width="370" height="10" rx="5" fill="#F2F2F2"/>
<rect y="256" width="370" height="10" rx="5" fill="#F2F2F2"/>
<g filter="url(#filter0_d)">
<path d="M396 43.2C396 39.2235 399.224 36 403.2 36H496.8C500.776 36 504 39.2236 504 43.2V132H396V43.2Z" fill="#F2F2F2"/>
<path d="M396 132H504V148.8C504 152.776 500.776 156 496.8 156H403.2C399.224 156 396 152.776 396 148.8V132Z" fill="#FFCECB"/>
<rect x="408" y="72" width="70.2" height="24" rx="7.2" fill="white"/>
<path d="M432.778 80.1936V87H435.408C436.685 87 437.51 86.2032 437.51 85.0992C437.51 84.2544 436.973 83.6496 436.31 83.4864C436.877 83.2944 437.299 82.728 437.299 82.0272C437.299 80.9712 436.55 80.1936 435.226 80.1936H432.778ZM434.083 83.0064V81.3072H435.014C435.658 81.3072 435.994 81.6336 435.994 82.152C435.994 82.6704 435.629 83.0064 435.024 83.0064H434.083ZM434.083 85.896V84.1008H435.178C435.84 84.1008 436.186 84.4752 436.186 85.0128C436.186 85.56 435.802 85.896 435.158 85.896H434.083ZM441.402 82.2576C441.306 82.248 441.21 82.2384 441.105 82.2384C440.701 82.2384 440.049 82.3536 439.761 82.9776V82.2768H438.522V87H439.799V84.84C439.799 83.8224 440.365 83.5056 441.018 83.5056C441.133 83.5056 441.258 83.5152 441.402 83.544V82.2576ZM444.375 85.9824C443.751 85.9824 443.175 85.5216 443.175 84.6384C443.175 83.7456 443.751 83.2944 444.375 83.2944C444.999 83.2944 445.575 83.7456 445.575 84.6384C445.575 85.5312 444.999 85.9824 444.375 85.9824ZM444.375 82.1328C442.964 82.1328 441.898 83.1792 441.898 84.6384C441.898 86.088 442.964 87.144 444.375 87.144C445.786 87.144 446.852 86.088 446.852 84.6384C446.852 83.1792 445.786 82.1328 444.375 82.1328ZM450.932 87H452.151C452.132 86.8368 452.103 86.5104 452.103 86.1456V82.2768H450.827V85.0224C450.827 85.5696 450.5 85.9536 449.934 85.9536C449.339 85.9536 449.07 85.5312 449.07 85.0032V82.2768H447.793V85.2624C447.793 86.2896 448.446 87.1248 449.588 87.1248C450.087 87.1248 450.635 86.9328 450.894 86.4912C450.894 86.6832 450.913 86.904 450.932 87ZM454.743 87V82.2768H453.466V87H454.743ZM453.312 80.7312C453.312 81.1536 453.668 81.5088 454.1 81.5088C454.541 81.5088 454.887 81.1536 454.887 80.7312C454.887 80.2896 454.541 79.9344 454.1 79.9344C453.668 79.9344 453.312 80.2896 453.312 80.7312ZM457.387 87V80.0496H456.11V87H457.387ZM460.03 87V80.0496H458.753V87H460.03ZM463.519 85.9824C462.895 85.9824 462.319 85.5216 462.319 84.6384C462.319 83.7456 462.895 83.2944 463.519 83.2944C464.143 83.2944 464.719 83.7456 464.719 84.6384C464.719 85.5312 464.143 85.9824 463.519 85.9824ZM463.519 82.1328C462.108 82.1328 461.042 83.1792 461.042 84.6384C461.042 86.088 462.108 87.144 463.519 87.144C464.93 87.144 465.996 86.088 465.996 84.6384C465.996 83.1792 464.93 82.1328 463.519 82.1328ZM468.28 84.2832C468.28 83.736 468.607 83.304 469.163 83.304C469.778 83.304 470.037 83.7168 470.037 84.2448V87H471.314V84.024C471.314 82.9872 470.776 82.152 469.605 82.152C469.096 82.152 468.53 82.3728 468.242 82.8624V82.2768H467.003V87H468.28V84.2832Z" fill="#212121"/>
<path fill-rule="evenodd" clip-rule="evenodd" d="M423.5 86.9999C423.5 87.2754 423.276 87.4999 423 87.4999H422V85.9999C422 85.7239 421.776 85.4999 421.5 85.4999H418.5C418.223 85.4999 418 85.7239 418 85.9999V87.4999H417C416.724 87.4999 416.5 87.2754 416.5 86.9999V80.9999C416.5 80.7244 416.724 80.4999 417 80.4999H418V82.9999C418 83.2759 418.223 83.4999 418.5 83.4999H420.5C420.776 83.4999 421 83.2759 421 82.9999C421 82.7239 420.776 82.4999 420.5 82.4999H419V80.4999H420.586C420.717 80.4999 420.846 80.5534 420.939 80.6464L423.353 83.0604C423.448 83.1549 423.5 83.2809 423.5 83.4144V86.9999ZM419 87.4999H421V86.4999H419V87.4999ZM424.061 82.3535L421.647 79.9395C421.364 79.656 420.986 79.5 420.586 79.5H417C416.173 79.5 415.5 80.173 415.5 81V87C415.5 87.827 416.173 88.5 417 88.5H418.5H421.5H423C423.827 88.5 424.5 87.827 424.5 87V83.4145C424.5 83.0135 424.344 82.6365 424.061 82.3535Z" fill="#212121"/>
<mask id="mask0" mask-type="alpha" maskUnits="userSpaceOnUse" x="415" y="79" width="10" height="10">
<path fill-rule="evenodd" clip-rule="evenodd" d="M423.5 86.9999C423.5 87.2754 423.276 87.4999 423 87.4999H422V85.9999C422 85.7239 421.776 85.4999 421.5 85.4999H418.5C418.223 85.4999 418 85.7239 418 85.9999V87.4999H417C416.724 87.4999 416.5 87.2754 416.5 86.9999V80.9999C416.5 80.7244 416.724 80.4999 417 80.4999H418V82.9999C418 83.2759 418.223 83.4999 418.5 83.4999H420.5C420.776 83.4999 421 83.2759 421 82.9999C421 82.7239 420.776 82.4999 420.5 82.4999H419V80.4999H420.586C420.717 80.4999 420.846 80.5534 420.939 80.6464L423.353 83.0604C423.448 83.1549 423.5 83.2809 423.5 83.4144V86.9999ZM419 87.4999H421V86.4999H419V87.4999ZM424.061 82.3535L421.647 79.9395C421.364 79.656 420.986 79.5 420.586 79.5H417C416.173 79.5 415.5 80.173 415.5 81V87C415.5 87.827 416.173 88.5 417 88.5H418.5H421.5H423C423.827 88.5 424.5 87.827 424.5 87V83.4145C424.5 83.0135 424.344 82.6365 424.061 82.3535Z" fill="white"/>
</mask>
<g mask="url(#mask0)">
<rect x="414" y="78" width="12" height="12" fill="#212121"/>
</g>
<rect x="408" y="102" width="61.8" height="24" rx="7.2" fill="#8BC34A"/>
<path d="M434.112 113.294V111.346H435.158C435.821 111.346 436.224 111.72 436.224 112.325C436.224 112.91 435.821 113.294 435.158 113.294H434.112ZM435.322 114.437C436.666 114.437 437.558 113.554 437.558 112.315C437.558 111.086 436.666 110.194 435.322 110.194H432.778V117H434.102V114.437H435.322ZM441.407 117H442.626C442.607 116.837 442.578 116.51 442.578 116.146V112.277H441.302V115.022C441.302 115.57 440.975 115.954 440.409 115.954C439.814 115.954 439.545 115.531 439.545 115.003V112.277H438.268V115.262C438.268 116.29 438.921 117.125 440.063 117.125C440.562 117.125 441.11 116.933 441.369 116.491C441.369 116.683 441.388 116.904 441.407 117ZM445.179 117V116.424C445.429 116.827 445.928 117.115 446.581 117.115C447.925 117.115 448.808 116.05 448.808 114.619C448.808 113.218 448.011 112.152 446.629 112.152C445.928 112.152 445.41 112.459 445.199 112.795V110.05H443.941V117H445.179ZM447.531 114.629C447.531 115.493 447.013 115.973 446.36 115.973C445.717 115.973 445.179 115.483 445.179 114.629C445.179 113.765 445.717 113.294 446.36 113.294C447.013 113.294 447.531 113.765 447.531 114.629ZM451.096 117V110.05H449.819V117H451.096ZM453.74 117V112.277H452.463V117H453.74ZM452.309 110.731C452.309 111.154 452.664 111.509 453.096 111.509C453.538 111.509 453.884 111.154 453.884 110.731C453.884 110.29 453.538 109.934 453.096 109.934C452.664 109.934 452.309 110.29 452.309 110.731ZM456.038 114.101C456.067 113.669 456.431 113.17 457.094 113.17C457.823 113.17 458.131 113.63 458.15 114.101H456.038ZM458.275 115.33C458.121 115.752 457.795 116.05 457.199 116.05C456.566 116.05 456.038 115.598 456.009 114.974H459.388C459.388 114.955 459.407 114.763 459.407 114.581C459.407 113.064 458.534 112.133 457.075 112.133C455.865 112.133 454.751 113.112 454.751 114.619C454.751 116.213 455.894 117.144 457.19 117.144C458.351 117.144 459.1 116.462 459.34 115.646L458.275 115.33ZM463.293 112.258C463.197 112.248 463.101 112.238 462.995 112.238C462.592 112.238 461.939 112.354 461.651 112.978V112.277H460.413V117H461.69V114.84C461.69 113.822 462.256 113.506 462.909 113.506C463.024 113.506 463.149 113.515 463.293 113.544V112.258Z" fill="white"/>
<path fill-rule="evenodd" clip-rule="evenodd" d="M424.499 113.487H424.5C424.776 113.487 425 113.71 425 113.985C425.004 115.321 424.488 116.579 423.546 117.526C422.604 118.472 421.35 118.996 420.015 119H420C418.67 119 417.418 118.484 416.475 117.545C415.528 116.604 415.004 115.35 415 114.015C414.996 112.679 415.513 111.421 416.455 110.474C417.396 109.527 418.65 109.004 419.986 109C420.383 109.006 420.788 109.046 421.176 109.139C421.444 109.204 421.61 109.474 421.545 109.743C421.48 110.01 421.209 110.176 420.942 110.112C420.631 110.036 420.302 110.005 419.989 110C418.92 110.003 417.917 110.422 417.164 111.18C416.41 111.937 415.997 112.943 416 114.011C416.003 115.08 416.422 116.083 417.18 116.837C417.935 117.587 418.936 118 420 118H420.012C421.08 117.997 422.084 117.578 422.837 116.82C423.59 116.062 424.003 115.057 424 113.989C424 113.713 424.223 113.488 424.499 113.487ZM418.146 113.647C418.342 113.451 418.658 113.451 418.853 113.647L419.975 114.769L423.124 111.171C423.306 110.964 423.621 110.942 423.829 111.124C424.037 111.306 424.058 111.622 423.876 111.83L420.376 115.83C420.285 115.934 420.155 115.995 420.016 116H420C419.867 116 419.74 115.948 419.646 115.854L418.146 114.354C417.951 114.158 417.951 113.842 418.146 113.647Z" fill="white"/>
<mask id="mask1" mask-type="alpha" maskUnits="userSpaceOnUse" x="415" y="109" width="10" height="10">
<path fill-rule="evenodd" clip-rule="evenodd" d="M424.499 113.487H424.5C424.776 113.487 425 113.71 425 113.985C425.004 115.321 424.488 116.579 423.546 117.526C422.604 118.472 421.35 118.996 420.015 119H420C418.67 119 417.418 118.484 416.475 117.545C415.528 116.604 415.004 115.35 415 114.015C414.996 112.679 415.513 111.421 416.455 110.474C417.396 109.527 418.65 109.004 419.986 109C420.383 109.006 420.788 109.046 421.176 109.139C421.444 109.204 421.61 109.474 421.545 109.743C421.48 110.01 421.209 110.176 420.942 110.112C420.631 110.036 420.302 110.005 419.989 110C418.92 110.003 417.917 110.422 417.164 111.18C416.41 111.937 415.997 112.943 416 114.011C416.003 115.08 416.422 116.083 417.18 116.837C417.935 117.587 418.936 118 420 118H420.012C421.08 117.997 422.084 117.578 422.837 116.82C423.59 116.062 424.003 115.057 424 113.989C424 113.713 424.223 113.488 424.499 113.487ZM418.146 113.647C418.342 113.451 418.658 113.451 418.853 113.647L419.975 114.769L423.124 111.171C423.306 110.964 423.621 110.942 423.829 111.124C424.037 111.306 424.058 111.622 423.876 111.83L420.376 115.83C420.285 115.934 420.155 115.995 420.016 116H420C419.867 116 419.74 115.948 419.646 115.854L418.146 114.354C417.951 114.158 417.951 113.842 418.146 113.647Z" fill="white"/>
</mask>
<g mask="url(#mask1)">
<rect x="414" y="108" width="12" height="12" fill="white"/>
</g>
<rect x="408.6" y="48" width="30" height="18" rx="9" fill="white"/>
<path d="M429.652 64.8002C433.959 64.8002 437.452 61.308 437.452 57.0002C437.452 52.6924 433.959 49.2002 429.652 49.2002C425.344 49.2002 421.852 52.6924 421.852 57.0002C421.852 61.308 425.344 64.8002 429.652 64.8002Z" fill="#4CAF50"/>
<path d="M448.459 60.144C450.369 60.144 451.348 58.8768 451.608 57.8304L450.369 57.456C450.187 58.0896 449.62 58.848 448.459 58.848C447.364 58.848 446.347 58.0512 446.347 56.6016C446.347 55.056 447.422 54.3264 448.44 54.3264C449.62 54.3264 450.148 55.0464 450.312 55.6992L451.56 55.3056C451.291 54.2016 450.321 53.0496 448.44 53.0496C446.616 53.0496 444.974 54.432 444.974 56.6016C444.974 58.7712 446.558 60.144 448.459 60.144ZM454.575 58.9824C453.951 58.9824 453.375 58.5216 453.375 57.6384C453.375 56.7456 453.951 56.2944 454.575 56.2944C455.199 56.2944 455.775 56.7456 455.775 57.6384C455.775 58.5312 455.199 58.9824 454.575 58.9824ZM454.575 55.1328C453.163 55.1328 452.098 56.1792 452.098 57.6384C452.098 59.088 453.163 60.144 454.575 60.144C455.986 60.144 457.051 59.088 457.051 57.6384C457.051 56.1792 455.986 55.1328 454.575 55.1328ZM459.336 57.2832C459.336 56.736 459.663 56.304 460.219 56.304C460.834 56.304 461.093 56.7168 461.093 57.2448V60H462.37V57.024C462.37 55.9872 461.832 55.152 460.661 55.152C460.152 55.152 459.586 55.3728 459.298 55.8624V55.2768H458.059V60H459.336V57.2832ZM463.262 58.6848C463.32 59.2224 463.81 60.144 465.23 60.144C466.469 60.144 467.064 59.3568 467.064 58.5888C467.064 57.8976 466.594 57.3312 465.662 57.1392L464.99 56.9952C464.731 56.9472 464.558 56.8032 464.558 56.5728C464.558 56.304 464.827 56.1024 465.163 56.1024C465.701 56.1024 465.902 56.4576 465.941 56.736L467.006 56.496C466.949 55.9872 466.498 55.1328 465.154 55.1328C464.136 55.1328 463.387 55.8336 463.387 56.6784C463.387 57.3408 463.8 57.888 464.712 58.0896L465.336 58.2336C465.701 58.3104 465.845 58.4832 465.845 58.6944C465.845 58.944 465.643 59.1648 465.221 59.1648C464.664 59.1648 464.386 58.8192 464.357 58.4448L463.262 58.6848ZM469.367 60V55.2768H468.091V60H469.367ZM467.937 53.7312C467.937 54.1536 468.292 54.5088 468.724 54.5088C469.166 54.5088 469.511 54.1536 469.511 53.7312C469.511 53.2896 469.166 52.9344 468.724 52.9344C468.292 52.9344 467.937 53.2896 467.937 53.7312ZM470.398 60.2592C470.533 61.1616 471.397 61.968 472.693 61.968C474.469 61.968 475.17 60.7872 475.17 59.4912V55.2768H473.941V55.8336C473.778 55.5168 473.346 55.1904 472.597 55.1904C471.301 55.1904 470.398 56.2464 470.398 57.4944C470.398 58.8192 471.339 59.7888 472.597 59.7888C473.278 59.7888 473.72 59.4912 473.912 59.184V59.5296C473.912 60.4416 473.461 60.8448 472.654 60.8448C472.05 60.8448 471.637 60.4704 471.55 59.952L470.398 60.2592ZM472.818 58.6944C472.155 58.6944 471.685 58.2336 471.685 57.4944C471.685 56.7648 472.184 56.304 472.818 56.304C473.432 56.304 473.931 56.7648 473.931 57.4944C473.931 58.224 473.47 58.6944 472.818 58.6944ZM477.739 57.2832C477.739 56.736 478.066 56.304 478.622 56.304C479.237 56.304 479.496 56.7168 479.496 57.2448V60H480.773V57.024C480.773 55.9872 480.235 55.152 479.064 55.152C478.555 55.152 477.989 55.3728 477.701 55.8624V55.2768H476.462V60H477.739V57.2832ZM483 57.1008C483.029 56.6688 483.394 56.1696 484.056 56.1696C484.786 56.1696 485.093 56.6304 485.112 57.1008H483ZM485.237 58.3296C485.083 58.752 484.757 59.0496 484.162 59.0496C483.528 59.0496 483 58.5984 482.971 57.9744H486.35C486.35 57.9552 486.37 57.7632 486.37 57.5808C486.37 56.064 485.496 55.1328 484.037 55.1328C482.827 55.1328 481.714 56.112 481.714 57.6192C481.714 59.2128 482.856 60.144 484.152 60.144C485.314 60.144 486.062 59.4624 486.302 58.6464L485.237 58.3296ZM486.972 58.6848C487.029 59.2224 487.519 60.144 488.94 60.144C490.178 60.144 490.773 59.3568 490.773 58.5888C490.773 57.8976 490.303 57.3312 489.372 57.1392L488.7 56.9952C488.441 56.9472 488.268 56.8032 488.268 56.5728C488.268 56.304 488.537 56.1024 488.873 56.1024C489.41 56.1024 489.612 56.4576 489.65 56.736L490.716 56.496C490.658 55.9872 490.207 55.1328 488.863 55.1328C487.845 55.1328 487.097 55.8336 487.097 56.6784C487.097 57.3408 487.509 57.888 488.421 58.0896L489.045 58.2336C489.41 58.3104 489.554 58.4832 489.554 58.6944C489.554 58.944 489.353 59.1648 488.93 59.1648C488.373 59.1648 488.095 58.8192 488.066 58.4448L486.972 58.6848Z" fill="#212121"/>
<path fill-rule="evenodd" clip-rule="evenodd" d="M414 145.5C413.173 145.5 412.5 144.827 412.5 144C412.5 143.173 413.173 142.5 414 142.5C414.827 142.5 415.5 143.173 415.5 144C415.5 144.827 414.827 145.5 414 145.5ZM413.999 141.5C412.621 141.5 411.499 142.621 411.499 144C411.499 145.378 412.621 146.5 413.999 146.5C415.378 146.5 416.499 145.378 416.499 144C416.499 142.621 415.378 141.5 413.999 141.5ZM413.999 148C411.794 148 409.999 146.205 409.999 144C409.999 141.794 411.794 140 413.999 140C416.205 140 417.999 141.794 417.999 144C417.999 146.205 416.205 148 413.999 148ZM414 139C411.243 139 409 141.243 409 144C409 146.757 411.243 149 414 149C416.757 149 419 146.757 419 144C419 141.243 416.757 139 414 139Z" fill="#F44336"/>
<mask id="mask2" mask-type="alpha" maskUnits="userSpaceOnUse" x="409" y="139" width="10" height="10">
<path fill-rule="evenodd" clip-rule="evenodd" d="M413.4 139.8V142.05H414.6V139.8H413.4ZM413.4 145.8V148.05H414.6V145.8H413.4ZM412.05 143.325H409.8V144.525H412.05V143.325ZM418.65 143.325H416.4V144.525H418.65V143.325ZM414 145.5C413.173 145.5 412.5 144.827 412.5 144C412.5 143.173 413.173 142.5 414 142.5C414.827 142.5 415.5 143.173 415.5 144C415.5 144.827 414.827 145.5 414 145.5ZM413.999 141.5C412.621 141.5 411.499 142.621 411.499 144C411.499 145.378 412.621 146.5 413.999 146.5C415.378 146.5 416.499 145.378 416.499 144C416.499 142.621 415.378 141.5 413.999 141.5ZM413.999 148C411.794 148 409.999 146.205 409.999 144C409.999 141.794 411.794 140 413.999 140C416.205 140 417.999 141.794 417.999 144C417.999 146.205 416.205 148 413.999 148ZM414 139C411.243 139 409 141.243 409 144C409 146.757 411.243 149 414 149C416.757 149 419 146.757 419 144C419 141.243 416.757 139 414 139Z" fill="white"/>
</mask>
<g mask="url(#mask2)">
<path d="M408 138H420V150H408V138Z" fill="#F44336" stroke="#F44336" stroke-width="3"/>
</g>
<path d="M427.246 140.194V147H429.877C431.154 147 431.979 146.203 431.979 145.099C431.979 144.254 431.442 143.65 430.779 143.486C431.346 143.294 431.768 142.728 431.768 142.027C431.768 140.971 431.019 140.194 429.694 140.194H427.246ZM428.552 143.006V141.307H429.483C430.126 141.307 430.462 141.634 430.462 142.152C430.462 142.67 430.098 143.006 429.493 143.006H428.552ZM428.552 145.896V144.101H429.646C430.309 144.101 430.654 144.475 430.654 145.013C430.654 145.56 430.27 145.896 429.627 145.896H428.552ZM433.988 144.101C434.017 143.669 434.381 143.17 435.044 143.17C435.773 143.17 436.081 143.63 436.1 144.101H433.988ZM436.225 145.33C436.071 145.752 435.745 146.05 435.149 146.05C434.516 146.05 433.988 145.598 433.959 144.974H437.338C437.338 144.955 437.357 144.763 437.357 144.581C437.357 143.064 436.484 142.133 435.025 142.133C433.815 142.133 432.701 143.112 432.701 144.619C432.701 146.213 433.844 147.144 435.14 147.144C436.301 147.144 437.05 146.462 437.29 145.646L436.225 145.33ZM437.96 145.685C438.017 146.222 438.507 147.144 439.928 147.144C441.166 147.144 441.761 146.357 441.761 145.589C441.761 144.898 441.291 144.331 440.36 144.139L439.688 143.995C439.428 143.947 439.256 143.803 439.256 143.573C439.256 143.304 439.524 143.102 439.86 143.102C440.398 143.102 440.6 143.458 440.638 143.736L441.704 143.496C441.646 142.987 441.195 142.133 439.851 142.133C438.833 142.133 438.084 142.834 438.084 143.678C438.084 144.341 438.497 144.888 439.409 145.09L440.033 145.234C440.398 145.31 440.542 145.483 440.542 145.694C440.542 145.944 440.34 146.165 439.918 146.165C439.361 146.165 439.083 145.819 439.054 145.445L437.96 145.685ZM444.891 145.982C444.267 145.982 443.691 145.522 443.691 144.638C443.691 143.746 444.267 143.294 444.891 143.294C445.515 143.294 446.091 143.746 446.091 144.638C446.091 145.531 445.515 145.982 444.891 145.982ZM444.891 142.133C443.479 142.133 442.414 143.179 442.414 144.638C442.414 146.088 443.479 147.144 444.891 147.144C446.302 147.144 447.367 146.088 447.367 144.638C447.367 143.179 446.302 142.133 444.891 142.133ZM449.652 147V142.277H448.375V147H449.652ZM448.222 140.731C448.222 141.154 448.577 141.509 449.009 141.509C449.451 141.509 449.796 141.154 449.796 140.731C449.796 140.29 449.451 139.934 449.009 139.934C448.577 139.934 448.222 140.29 448.222 140.731ZM452.296 144.283C452.296 143.736 452.622 143.304 453.179 143.304C453.794 143.304 454.053 143.717 454.053 144.245V147H455.33V144.024C455.33 142.987 454.792 142.152 453.621 142.152C453.112 142.152 452.546 142.373 452.258 142.862V142.277H451.019V147H452.296V144.283ZM463.5 140.05H462.242V142.747C462.108 142.498 461.724 142.162 460.908 142.162C459.573 142.162 458.642 143.246 458.642 144.629C458.642 146.059 459.602 147.115 460.946 147.115C461.58 147.115 462.06 146.827 462.271 146.453C462.271 146.674 462.3 146.904 462.319 147H463.538C463.519 146.808 463.5 146.462 463.5 146.146V140.05ZM459.928 144.629C459.928 143.784 460.447 143.304 461.1 143.304C461.752 143.304 462.261 143.774 462.261 144.619C462.261 145.474 461.752 145.973 461.1 145.973C460.428 145.973 459.928 145.474 459.928 144.629ZM464.53 140.827C464.53 141.23 464.798 141.518 465.23 141.518C465.317 141.518 465.384 141.499 465.432 141.47C465.413 141.912 465.01 142.229 464.645 142.286V142.872C465.25 142.814 466.133 142.344 466.133 141.058C466.133 140.549 465.806 140.126 465.298 140.126C464.846 140.126 464.53 140.453 464.53 140.827ZM466.528 145.714C466.528 146.453 467.142 147.134 468.15 147.134C468.851 147.134 469.302 146.808 469.542 146.434C469.542 146.616 469.562 146.875 469.59 147H470.762C470.733 146.837 470.704 146.501 470.704 146.251V143.928C470.704 142.978 470.147 142.133 468.65 142.133C467.382 142.133 466.701 142.949 466.624 143.688L467.757 143.928C467.795 143.515 468.102 143.16 468.659 143.16C469.197 143.16 469.456 143.438 469.456 143.774C469.456 143.938 469.37 144.072 469.101 144.11L467.939 144.283C467.152 144.398 466.528 144.869 466.528 145.714ZM468.419 146.184C468.006 146.184 467.805 145.915 467.805 145.637C467.805 145.272 468.064 145.09 468.39 145.042L469.456 144.878V145.09C469.456 145.925 468.957 146.184 468.419 146.184ZM473.268 147V142.277H471.991V147H473.268ZM471.837 140.731C471.837 141.154 472.193 141.509 472.625 141.509C473.066 141.509 473.412 141.154 473.412 140.731C473.412 140.29 473.066 139.934 472.625 139.934C472.193 139.934 471.837 140.29 471.837 140.731ZM479.137 140.05H477.88V142.747C477.745 142.498 477.361 142.162 476.545 142.162C475.211 142.162 474.28 143.246 474.28 144.629C474.28 146.059 475.24 147.115 476.584 147.115C477.217 147.115 477.697 146.827 477.908 146.453C477.908 146.674 477.937 146.904 477.956 147H479.176C479.156 146.808 479.137 146.462 479.137 146.146V140.05ZM475.566 144.629C475.566 143.784 476.084 143.304 476.737 143.304C477.39 143.304 477.899 143.774 477.899 144.619C477.899 145.474 477.39 145.973 476.737 145.973C476.065 145.973 475.566 145.474 475.566 144.629ZM481.453 144.101C481.482 143.669 481.847 143.17 482.509 143.17C483.239 143.17 483.546 143.63 483.565 144.101H481.453ZM483.69 145.33C483.537 145.752 483.21 146.05 482.615 146.05C481.981 146.05 481.453 145.598 481.425 144.974H484.804C484.804 144.955 484.823 144.763 484.823 144.581C484.823 143.064 483.949 142.133 482.49 142.133C481.281 142.133 480.167 143.112 480.167 144.619C480.167 146.213 481.309 147.144 482.605 147.144C483.767 147.144 484.516 146.462 484.756 145.646L483.69 145.33ZM490.428 144.926V144.869C490.428 144.475 490.61 144.178 490.946 143.938L491.34 143.659C491.906 143.256 492.29 142.718 492.29 141.96C492.29 140.99 491.512 140.05 490.024 140.05C488.604 140.05 487.826 141.048 487.826 142.085C487.826 142.229 487.836 142.382 487.874 142.517L489.084 142.565C489.055 142.478 489.045 142.373 489.045 142.258C489.045 141.72 489.343 141.173 490.024 141.173C490.668 141.173 490.984 141.595 490.984 142.037C490.984 142.325 490.86 142.584 490.572 142.795L490.111 143.141C489.564 143.554 489.352 144.024 489.352 144.533C489.352 144.677 489.372 144.802 489.391 144.926H490.428ZM489.17 146.318C489.17 146.741 489.506 147.077 489.928 147.077C490.351 147.077 490.696 146.741 490.696 146.318C490.696 145.896 490.351 145.55 489.928 145.55C489.506 145.55 489.17 145.896 489.17 146.318Z" fill="#F44336"/>
</g>
<defs>
<filter id="filter0_d" x="356" y="0" width="188" height="200" filterUnits="userSpaceOnUse" color-interpolation-filters="sRGB">
<feFlood flood-opacity="0" result="BackgroundImageFix"/>
<feColorMatrix in="SourceAlpha" type="matrix" values="0 0 0 0 0 0 0 0 0 0 0 0 0 0 0 0 0 0 127 0"/>
<feOffset dy="4"/>
<feGaussianBlur stdDeviation="20"/>
<feColorMatrix type="matrix" values="0 0 0 0 0 0 0 0 0 0 0 0 0 0 0 0 0 0 0.25 0"/>
<feBlend mode="normal" in2="BackgroundImageFix" result="effect1_dropShadow"/>
<feBlend mode="normal" in="SourceGraphic" in2="effect1_dropShadow" result="shape"/>
</filter>
</defs>
</svg>
