<svg width="503" height="221" viewBox="0 0 503 221" fill="none" xmlns="http://www.w3.org/2000/svg">
<rect x="22" y="30" width="460" height="90" fill="#F9EF99"/>
<rect x="32" width="320" height="20" rx="6" fill="#F2F2F2"/>
<rect x="32" y="40" width="440" height="10" rx="5" fill="#F2F2F2"/>
<rect x="32" y="60" width="440" height="10" rx="5" fill="#F2F2F2"/>
<rect x="32" y="80" width="440" height="10" rx="5" fill="#F2F2F2"/>
<rect x="32" y="100" width="112" height="10" rx="5" fill="#F2F2F2"/>
<g filter="url(#filter0_d)">
<rect x="22" y="130.429" width="459" height="65.5714" rx="6.55714" fill="#212121"/>
<g filter="url(#filter1_d)">
<rect x="412.15" y="163.214" width="57.9214" height="21.8571" rx="6.55714" fill="white"/>
<path d="M421.971 172.958C421.831 172.258 421.254 171.349 419.75 171.349C418.578 171.349 417.59 172.188 417.59 173.29C417.59 174.225 418.229 174.864 419.217 175.065L420.082 175.239C420.563 175.336 420.834 175.615 420.834 175.974C420.834 176.411 420.476 176.734 419.829 176.734C418.954 176.734 418.526 176.184 418.473 175.572L417.354 175.869C417.451 176.752 418.176 177.81 419.82 177.81C421.262 177.81 422.058 176.848 422.058 175.895C422.058 175.021 421.455 174.286 420.327 174.068L419.461 173.902C419.007 173.814 418.788 173.543 418.788 173.202C418.788 172.791 419.173 172.416 419.759 172.416C420.546 172.416 420.825 172.949 420.886 173.29L421.971 172.958ZM425.693 177.679H426.804C426.786 177.53 426.76 177.233 426.76 176.901V173.377H425.597V175.878C425.597 176.376 425.3 176.726 424.784 176.726C424.242 176.726 423.997 176.341 423.997 175.86V173.377H422.835V176.096C422.835 177.032 423.429 177.792 424.469 177.792C424.924 177.792 425.422 177.618 425.659 177.215C425.659 177.39 425.676 177.591 425.693 177.679ZM429.164 177.679V173.377H428.001V177.679H429.164ZM427.861 171.97C427.861 172.354 428.185 172.678 428.578 172.678C428.98 172.678 429.295 172.354 429.295 171.97C429.295 171.567 428.98 171.244 428.578 171.244C428.185 171.244 427.861 171.567 427.861 171.97ZM434.465 173.377H433.241L432.219 176.262L431.152 173.377H429.875L431.633 177.679H432.796L434.465 173.377ZM434.894 176.507C434.894 177.18 435.453 177.801 436.371 177.801C437.009 177.801 437.42 177.504 437.639 177.163C437.639 177.329 437.656 177.565 437.683 177.679H438.749C438.723 177.53 438.697 177.224 438.697 176.997V174.881C438.697 174.015 438.19 173.246 436.826 173.246C435.672 173.246 435.051 173.989 434.981 174.662L436.013 174.881C436.048 174.505 436.327 174.182 436.834 174.182C437.324 174.182 437.56 174.435 437.56 174.741C437.56 174.89 437.481 175.012 437.237 175.047L436.179 175.204C435.462 175.309 434.894 175.738 434.894 176.507ZM436.616 176.936C436.24 176.936 436.056 176.691 436.056 176.437C436.056 176.105 436.292 175.939 436.59 175.895L437.56 175.747V175.939C437.56 176.7 437.105 176.936 436.616 176.936ZM441.032 175.204C441.032 174.706 441.329 174.313 441.836 174.313C442.395 174.313 442.632 174.689 442.632 175.17V177.679H443.794V174.968C443.794 174.024 443.305 173.264 442.238 173.264C441.775 173.264 441.259 173.465 440.997 173.911V173.377H439.869V177.679H441.032V175.204ZM446.408 172.092H445.359V172.695C445.359 173.08 445.149 173.377 444.695 173.377H444.476V174.409H445.254V176.411C445.254 177.242 445.779 177.74 446.618 177.74C446.959 177.74 447.169 177.679 447.274 177.635V176.673C447.213 176.691 447.055 176.708 446.915 176.708C446.583 176.708 446.408 176.586 446.408 176.21V174.409H447.274V173.377H446.408V172.092Z" fill="#212121"/>
<path fill-rule="evenodd" clip-rule="evenodd" d="M455.955 174.598H461.358L459.704 176.584C459.543 176.777 459.569 177.064 459.762 177.225C459.956 177.386 460.243 177.36 460.404 177.167L462.681 174.434C462.698 174.413 462.707 174.388 462.72 174.364C462.731 174.345 462.744 174.329 462.752 174.308C462.773 174.256 462.785 174.2 462.785 174.145C462.785 174.144 462.786 174.144 462.786 174.143C462.786 174.143 462.785 174.142 462.785 174.141C462.785 174.086 462.773 174.031 462.752 173.978C462.744 173.957 462.731 173.941 462.72 173.922C462.707 173.898 462.698 173.873 462.681 173.852L460.404 171.119C460.313 171.012 460.184 170.956 460.054 170.956C459.951 170.956 459.847 170.99 459.762 171.061C459.569 171.222 459.543 171.509 459.704 171.702L461.358 173.688H455.955C455.704 173.688 455.5 173.892 455.5 174.143C455.5 174.394 455.704 174.598 455.955 174.598" fill="#212121"/>
<mask id="mask0" mask-type="alpha" maskUnits="userSpaceOnUse" x="455" y="170" width="8" height="8">
<path fill-rule="evenodd" clip-rule="evenodd" d="M455.955 174.598H461.358L459.704 176.584C459.543 176.777 459.569 177.064 459.762 177.225C459.956 177.386 460.243 177.36 460.404 177.167L462.681 174.434C462.698 174.413 462.707 174.388 462.72 174.364C462.731 174.345 462.744 174.329 462.752 174.308C462.773 174.256 462.785 174.2 462.785 174.145C462.785 174.144 462.786 174.144 462.786 174.143C462.786 174.143 462.785 174.142 462.785 174.141C462.785 174.086 462.773 174.031 462.752 173.978C462.744 173.957 462.731 173.941 462.72 173.922C462.707 173.898 462.698 173.873 462.681 173.852L460.404 171.119C460.313 171.012 460.184 170.956 460.054 170.956C459.951 170.956 459.847 170.99 459.762 171.061C459.569 171.222 459.543 171.509 459.704 171.702L461.358 173.688H455.955C455.704 173.688 455.5 173.892 455.5 174.143C455.5 174.394 455.704 174.598 455.955 174.598" fill="white"/>
</mask>
<g mask="url(#mask0)">
<rect x="453.678" y="168.679" width="10.9286" height="10.9286" fill="#212121"/>
</g>
</g>
<path fill-rule="evenodd" clip-rule="evenodd" d="M398.946 173.688H393.543L395.197 171.702C395.358 171.509 395.332 171.222 395.139 171.061C394.945 170.9 394.658 170.926 394.498 171.119L392.221 173.852C392.203 173.873 392.194 173.898 392.181 173.922C392.17 173.941 392.157 173.957 392.148 173.978C392.128 174.031 392.116 174.086 392.116 174.141C392.116 174.142 392.115 174.143 392.115 174.143C392.115 174.143 392.116 174.144 392.116 174.145C392.116 174.2 392.128 174.255 392.148 174.308C392.157 174.329 392.17 174.345 392.181 174.364C392.194 174.388 392.203 174.413 392.221 174.434L394.498 177.167C394.588 177.275 394.717 177.331 394.847 177.331C394.95 177.331 395.054 177.296 395.139 177.225C395.332 177.064 395.358 176.777 395.197 176.584L393.543 174.598H398.946C399.197 174.598 399.401 174.394 399.401 174.143C399.401 173.892 399.197 173.688 398.946 173.688" fill="white"/>
<mask id="mask1" mask-type="alpha" maskUnits="userSpaceOnUse" x="392" y="170" width="8" height="8">
<path fill-rule="evenodd" clip-rule="evenodd" d="M398.946 173.688H393.543L395.197 171.702C395.358 171.509 395.332 171.222 395.139 171.061C394.945 170.9 394.658 170.926 394.498 171.119L392.221 173.852C392.203 173.873 392.194 173.898 392.181 173.922C392.17 173.941 392.157 173.957 392.148 173.978C392.128 174.031 392.116 174.086 392.116 174.141C392.116 174.142 392.115 174.143 392.115 174.143C392.115 174.143 392.116 174.144 392.116 174.145C392.116 174.2 392.128 174.255 392.148 174.308C392.157 174.329 392.17 174.345 392.181 174.364C392.194 174.388 392.203 174.413 392.221 174.434L394.498 177.167C394.588 177.275 394.717 177.331 394.847 177.331C394.95 177.331 395.054 177.296 395.139 177.225C395.332 177.064 395.358 176.777 395.197 176.584L393.543 174.598H398.946C399.197 174.598 399.401 174.394 399.401 174.143C399.401 173.892 399.197 173.688 398.946 173.688" fill="white"/>
</mask>
<g mask="url(#mask1)">
<rect x="390.293" y="168.679" width="10.9286" height="10.9286" fill="white"/>
</g>
<path d="M38.58 154.357H40.5996L38.6062 150.554C39.8258 150.2 40.5865 149.217 40.5865 147.918C40.5865 146.305 39.4324 145.059 37.6226 145.059H33.99V154.357H35.8129V150.777H36.7571L38.58 154.357ZM35.8129 149.217V146.633H37.2817C38.1997 146.633 38.7374 147.145 38.7374 147.931C38.7374 148.692 38.1997 149.217 37.2817 149.217H35.8129ZM46.9512 145.164H44.9578L43.7644 147.131H45.1677L46.9512 145.164ZM43.1481 150.397C43.1874 149.807 43.6858 149.125 44.5906 149.125C45.5873 149.125 46.007 149.754 46.0332 150.397H43.1481ZM46.2037 152.076C45.9939 152.653 45.548 153.059 44.7349 153.059C43.8694 153.059 43.1481 152.443 43.1087 151.59H47.725C47.725 151.564 47.7512 151.302 47.7512 151.053C47.7512 148.981 46.5578 147.708 44.5644 147.708C42.912 147.708 41.3908 149.046 41.3908 151.105C41.3908 153.282 42.9514 154.554 44.7218 154.554C46.3086 154.554 47.3315 153.623 47.6594 152.508L46.2037 152.076ZM48.5739 152.561C48.6526 153.295 49.3214 154.554 51.2623 154.554C52.9541 154.554 53.7672 153.479 53.7672 152.43C53.7672 151.485 53.1246 150.712 51.8525 150.449L50.9345 150.253C50.5804 150.187 50.3443 149.99 50.3443 149.676C50.3443 149.308 50.7115 149.033 51.1705 149.033C51.9049 149.033 52.1803 149.518 52.2328 149.899L53.6885 149.571C53.6098 148.876 52.9934 147.708 51.1574 147.708C49.7673 147.708 48.7444 148.666 48.7444 149.82C48.7444 150.725 49.3083 151.472 50.5542 151.748L51.4066 151.944C51.9049 152.049 52.1016 152.285 52.1016 152.574C52.1016 152.915 51.8262 153.216 51.2492 153.216C50.4886 153.216 50.1083 152.744 50.0689 152.233L48.5739 152.561ZM59.3411 154.357H61.0067C60.9804 154.134 60.9411 153.689 60.9411 153.19V147.905H59.1969V151.656C59.1969 152.403 58.751 152.928 57.9773 152.928C57.1642 152.928 56.797 152.351 56.797 151.63V147.905H55.0528V151.984C55.0528 153.387 55.9445 154.528 57.5051 154.528C58.1871 154.528 58.9346 154.266 59.2887 153.662C59.2887 153.925 59.3149 154.226 59.3411 154.357ZM64.5467 154.357V150.581C64.5467 149.872 64.9926 149.308 65.7532 149.308C66.5401 149.308 66.8941 149.833 66.8941 150.528V154.357H68.6252V150.581C68.6252 149.885 69.0711 149.308 69.8186 149.308C70.6186 149.308 70.9596 149.833 70.9596 150.528V154.357H72.6513V150.174C72.6513 148.443 71.5104 147.722 70.317 147.722C69.4645 147.722 68.7826 148.01 68.2711 148.797C67.9433 148.102 67.2351 147.722 66.3565 147.722C65.6483 147.722 64.8221 148.063 64.468 148.692V147.905H62.8025V154.357H64.5467ZM79.4936 145.164H77.5002L76.3068 147.131H77.7101L79.4936 145.164ZM75.6905 150.397C75.7298 149.807 76.2281 149.125 77.133 149.125C78.1297 149.125 78.5494 149.754 78.5756 150.397H75.6905ZM78.7461 152.076C78.5363 152.653 78.0904 153.059 77.2773 153.059C76.4117 153.059 75.6905 152.443 75.6511 151.59H80.2673C80.2673 151.564 80.2936 151.302 80.2936 151.053C80.2936 148.981 79.1002 147.708 77.1068 147.708C75.4544 147.708 73.9331 149.046 73.9331 151.105C73.9331 153.282 75.4937 154.554 77.2642 154.554C78.851 154.554 79.8739 153.623 80.2018 152.508L78.7461 152.076Z" fill="white"/>
<path d="M33.7146 176.666V182.864H35.8828C37.0194 182.864 37.7975 182.156 37.7975 181.177C37.7975 180.486 37.3866 179.857 36.6784 179.682C37.2205 179.481 37.6052 179.009 37.6052 178.344C37.6052 177.365 36.9145 176.666 35.7342 176.666H33.7146ZM34.5714 179.376V177.417H35.603C36.3112 177.417 36.7396 177.802 36.7396 178.388C36.7396 178.965 36.3287 179.376 35.638 179.376H34.5714ZM34.5714 182.112V180.11H35.7954C36.5473 180.11 36.9232 180.53 36.9232 181.124C36.9232 181.728 36.4511 182.112 35.7604 182.112H34.5714ZM41.1782 178.615C41.1345 178.606 41.0208 178.589 40.9072 178.589C40.4788 178.589 39.9542 178.746 39.6482 179.393V178.659H38.8438V182.864H39.6657V180.757C39.6657 179.83 40.129 179.463 40.8197 179.463C40.9334 179.463 41.0558 179.472 41.1782 179.49V178.615ZM42.5447 180.329C42.5797 179.787 42.9994 179.253 43.6901 179.253C44.4332 179.253 44.8266 179.726 44.8441 180.329H42.5447ZM44.9665 181.422C44.8091 181.894 44.4682 182.27 43.7862 182.27C43.0781 182.27 42.536 181.745 42.5185 180.993H45.6834C45.6922 180.941 45.7009 180.836 45.7009 180.731C45.7009 179.42 44.9753 178.528 43.6813 178.528C42.6234 178.528 41.6705 179.428 41.6705 180.748C41.6705 182.174 42.6584 182.995 43.7862 182.995C44.7654 182.995 45.4386 182.41 45.6747 181.666L44.9665 181.422ZM48.8658 179.402V178.659H47.8516V177.994C47.8516 177.417 48.2275 177.278 48.516 177.278C48.7259 177.278 48.8308 177.313 48.8745 177.33V176.596C48.8395 176.569 48.6647 176.508 48.3849 176.508C47.6243 176.508 47.0035 177.015 47.0035 177.951V178.659H46.2254V179.402H47.0035V182.864H47.8516V179.402H48.8658ZM54.2669 178.615C54.2232 178.606 54.1095 178.589 53.9958 178.589C53.5674 178.589 53.0429 178.746 52.7369 179.393V178.659H51.9325V182.864H52.7544V180.757C52.7544 179.83 53.2177 179.463 53.9084 179.463C54.0221 179.463 54.1445 179.472 54.2669 179.49V178.615ZM55.6334 180.329C55.6684 179.787 56.088 179.253 56.7787 179.253C57.5219 179.253 57.9153 179.726 57.9328 180.329H55.6334ZM58.0552 181.422C57.8978 181.894 57.5568 182.27 56.8749 182.27C56.1667 182.27 55.6247 181.745 55.6072 180.993H58.7721C58.7808 180.941 58.7896 180.836 58.7896 180.731C58.7896 179.42 58.0639 178.528 56.77 178.528C55.7121 178.528 54.7591 179.428 54.7591 180.748C54.7591 182.174 55.7471 182.995 56.8749 182.995C57.8541 182.995 58.5273 182.41 58.7634 181.666L58.0552 181.422ZM58.2038 176.84H57.1722L56.4115 178.117H57.1022L58.2038 176.84ZM59.4452 181.771C59.5152 182.252 60.0048 182.995 61.1588 182.995C62.1992 182.995 62.6976 182.287 62.6976 181.693C62.6976 181.072 62.2954 180.609 61.5348 180.442L60.8528 180.294C60.5293 180.224 60.372 180.04 60.372 179.787C60.372 179.498 60.6517 179.227 61.0714 179.227C61.7359 179.227 61.9107 179.708 61.9457 179.927L62.6713 179.656C62.5839 179.28 62.2255 178.528 61.0714 178.528C60.2496 178.528 59.5764 179.14 59.5764 179.857C59.5764 180.451 59.9698 180.897 60.6255 181.037L61.3424 181.194C61.6921 181.273 61.8845 181.474 61.8845 181.736C61.8845 182.034 61.6309 182.296 61.1676 182.296C60.5731 182.296 60.2408 181.946 60.1884 181.509L59.4452 181.771ZM66.5205 182.357C66.5205 182.532 66.538 182.768 66.5555 182.864H67.3424C67.3249 182.716 67.2986 182.418 67.2986 182.086V178.659H66.4768V181.194C66.4768 181.833 66.1446 182.27 65.4801 182.27C64.7894 182.27 64.5272 181.763 64.5272 181.186V178.659H63.7053V181.308C63.7053 182.261 64.2998 182.995 65.279 182.995C65.7686 182.995 66.2932 182.794 66.5205 182.357ZM69.5141 182.864V180.329C69.5141 179.699 69.9076 179.262 70.4933 179.262C71.1228 179.262 71.3851 179.682 71.3851 180.224V182.864H72.2069V180.32C72.2069 179.717 72.6004 179.262 73.1774 179.262C73.7981 179.262 74.0692 179.673 74.0692 180.224V182.864H74.8823V180.136C74.8823 179.035 74.1653 178.537 73.4309 178.537C72.8976 178.537 72.3556 178.729 72.0233 179.332C71.796 178.79 71.2889 178.537 70.7644 178.537C70.2748 178.537 69.7502 178.755 69.4879 179.218V178.659H68.701V182.864H69.5141ZM76.7307 180.329C76.7657 179.787 77.1853 179.253 77.876 179.253C78.6191 179.253 79.0126 179.726 79.0301 180.329H76.7307ZM79.1525 181.422C78.9951 181.894 78.6541 182.27 77.9722 182.27C77.264 182.27 76.7219 181.745 76.7045 180.993H79.8694C79.8781 180.941 79.8869 180.836 79.8869 180.731C79.8869 179.42 79.1612 178.528 77.8673 178.528C76.8094 178.528 75.8564 179.428 75.8564 180.748C75.8564 182.174 76.8443 182.995 77.9722 182.995C78.9514 182.995 79.6246 182.41 79.8606 181.666L79.1525 181.422ZM79.3011 176.84H78.2694L77.5088 178.117H78.1995L79.3011 176.84ZM83.6112 180.748C83.6112 179.883 84.1008 179.271 84.8527 179.271C85.6046 179.271 86.0592 179.865 86.0592 180.731C86.0592 181.597 85.5959 182.252 84.844 182.252C84.0571 182.252 83.6112 181.614 83.6112 180.748ZM86.068 182.296C86.068 182.55 86.0942 182.768 86.1117 182.864H86.9073C86.8986 182.794 86.8636 182.488 86.8636 182.086V176.534H86.0505V179.253C85.9106 178.912 85.5084 178.545 84.7653 178.545C83.5763 178.545 82.7719 179.559 82.7719 180.748C82.7719 181.999 83.5326 182.978 84.7653 182.978C85.421 182.978 85.8669 182.628 86.068 182.226V182.296ZM88.7948 180.329C88.8298 179.787 89.2494 179.253 89.9401 179.253C90.6833 179.253 91.0767 179.726 91.0942 180.329H88.7948ZM91.2166 181.422C91.0592 181.894 90.7182 182.27 90.0363 182.27C89.3281 182.27 88.7861 181.745 88.7686 180.993H91.9335C91.9422 180.941 91.951 180.836 91.951 180.731C91.951 179.42 91.2253 178.528 89.9314 178.528C88.8735 178.528 87.9205 179.428 87.9205 180.748C87.9205 182.174 88.9085 182.995 90.0363 182.995C91.0155 182.995 91.6887 182.41 91.9247 181.666L91.2166 181.422ZM96.0076 182.864V176.534H95.1858V182.864H96.0076ZM97.1433 181.736C97.1433 182.401 97.6941 182.995 98.5509 182.995C99.3028 182.995 99.7225 182.593 99.9061 182.296C99.9061 182.602 99.9323 182.759 99.9498 182.864H100.754C100.737 182.759 100.702 182.541 100.702 182.174V180.067C100.702 179.245 100.212 178.528 98.9531 178.528C98.0439 178.528 97.3182 179.087 97.2308 179.892L98.0176 180.075C98.0701 179.586 98.3936 179.227 98.9706 179.227C99.6088 179.227 99.8799 179.568 99.8799 179.979C99.8799 180.128 99.8099 180.259 99.5564 180.294L98.4198 180.46C97.6941 180.565 97.1433 180.985 97.1433 181.736ZM98.6646 182.305C98.2449 182.305 97.9827 182.007 97.9827 181.693C97.9827 181.317 98.2449 181.116 98.5947 181.063L99.8799 180.871V181.063C99.8799 181.981 99.3378 182.305 98.6646 182.305ZM105.803 176.508C105.042 176.508 104.421 177.015 104.421 177.951V178.659H103.643V179.402H104.421V182.864H105.269V179.402H107.236V182.864H108.05V178.659H105.269V177.986C105.269 177.409 105.645 177.278 105.934 177.278C106.144 177.278 106.248 177.313 106.292 177.33V176.596C106.257 176.569 106.082 176.508 105.803 176.508ZM107.053 177.05C107.053 177.374 107.315 177.636 107.639 177.636C107.971 177.636 108.233 177.374 108.233 177.05C108.233 176.718 107.971 176.456 107.639 176.456C107.315 176.456 107.053 176.718 107.053 177.05ZM111.21 179.288C111.927 179.288 112.233 179.769 112.338 180.18L113.081 179.865C112.906 179.227 112.329 178.528 111.21 178.528C110.012 178.528 109.094 179.446 109.094 180.757C109.094 182.034 109.995 182.995 111.219 182.995C112.312 182.995 112.915 182.287 113.116 181.684L112.39 181.369C112.294 181.701 112.006 182.235 111.219 182.235C110.537 182.235 109.934 181.719 109.934 180.757C109.934 179.778 110.546 179.288 111.21 179.288ZM114.902 180.39C114.92 179.769 115.252 179.28 115.881 179.28C116.616 179.28 116.86 179.752 116.86 180.338V182.864H117.682V180.198C117.682 179.262 117.184 178.537 116.179 178.537C115.698 178.537 115.208 178.703 114.902 179.149V176.534H114.08V182.864H114.902V180.39ZM119.523 180.329C119.558 179.787 119.978 179.253 120.668 179.253C121.411 179.253 121.805 179.726 121.822 180.329H119.523ZM121.945 181.422C121.787 181.894 121.446 182.27 120.764 182.27C120.056 182.27 119.514 181.745 119.497 180.993H122.662C122.67 180.941 122.679 180.836 122.679 180.731C122.679 179.42 121.953 178.528 120.659 178.528C119.602 178.528 118.649 179.428 118.649 180.748C118.649 182.174 119.637 182.995 120.764 182.995C121.744 182.995 122.417 182.41 122.653 181.666L121.945 181.422ZM123.513 182.305C123.513 182.646 123.775 182.908 124.116 182.908C124.457 182.908 124.728 182.646 124.728 182.305C124.728 181.964 124.457 181.693 124.116 181.693C123.775 181.693 123.513 181.964 123.513 182.305ZM133.412 182.864V176.666H132.555V181.422L129.46 176.666H128.315V182.864H129.172V177.811L132.52 182.864H133.412ZM136.697 182.261C135.997 182.261 135.385 181.736 135.385 180.757C135.385 179.787 135.997 179.262 136.697 179.262C137.396 179.262 138.008 179.787 138.008 180.757C138.008 181.736 137.396 182.261 136.697 182.261ZM136.697 178.528C135.438 178.528 134.546 179.481 134.546 180.757C134.546 182.042 135.438 182.995 136.697 182.995C137.956 182.995 138.848 182.042 138.848 180.757C138.848 179.481 137.956 178.528 136.697 178.528ZM142.628 182.357C142.628 182.532 142.645 182.768 142.663 182.864H143.45C143.432 182.716 143.406 182.418 143.406 182.086V178.659H142.584V181.194C142.584 181.833 142.252 182.27 141.587 182.27C140.897 182.27 140.634 181.763 140.634 181.186V178.659H139.813V181.308C139.813 182.261 140.407 182.995 141.386 182.995C141.876 182.995 142.4 182.794 142.628 182.357ZM144.415 181.771C144.485 182.252 144.974 182.995 146.128 182.995C147.169 182.995 147.667 182.287 147.667 181.693C147.667 181.072 147.265 180.609 146.504 180.442L145.822 180.294C145.499 180.224 145.342 180.04 145.342 179.787C145.342 179.498 145.621 179.227 146.041 179.227C146.706 179.227 146.88 179.708 146.915 179.927L147.641 179.656C147.554 179.28 147.195 178.528 146.041 178.528C145.219 178.528 144.546 179.14 144.546 179.857C144.546 180.451 144.939 180.897 145.595 181.037L146.312 181.194C146.662 181.273 146.854 181.474 146.854 181.736C146.854 182.034 146.601 182.296 146.137 182.296C145.543 182.296 145.21 181.946 145.158 181.509L144.415 181.771ZM154.549 178.659H153.666L152.46 181.903L151.262 178.659H150.335L152.04 182.864H152.871L154.549 178.659ZM157.009 182.261C156.309 182.261 155.697 181.736 155.697 180.757C155.697 179.787 156.309 179.262 157.009 179.262C157.708 179.262 158.32 179.787 158.32 180.757C158.32 181.736 157.708 182.261 157.009 182.261ZM157.009 178.528C155.75 178.528 154.858 179.481 154.858 180.757C154.858 182.042 155.75 182.995 157.009 182.995C158.268 182.995 159.159 182.042 159.159 180.757C159.159 179.481 158.268 178.528 157.009 178.528ZM162.94 182.357C162.94 182.532 162.957 182.768 162.975 182.864H163.761C163.744 182.716 163.718 182.418 163.718 182.086V178.659H162.896V181.194C162.896 181.833 162.564 182.27 161.899 182.27C161.208 182.27 160.946 181.763 160.946 181.186V178.659H160.124V181.308C160.124 182.261 160.719 182.995 161.698 182.995C162.188 182.995 162.712 182.794 162.94 182.357ZM164.727 181.771C164.797 182.252 165.286 182.995 166.44 182.995C167.481 182.995 167.979 182.287 167.979 181.693C167.979 181.072 167.577 180.609 166.816 180.442L166.134 180.294C165.811 180.224 165.653 180.04 165.653 179.787C165.653 179.498 165.933 179.227 166.353 179.227C167.017 179.227 167.192 179.708 167.227 179.927L167.953 179.656C167.865 179.28 167.507 178.528 166.353 178.528C165.531 178.528 164.858 179.14 164.858 179.857C164.858 180.451 165.251 180.897 165.907 181.037L166.624 181.194C166.974 181.273 167.166 181.474 167.166 181.736C167.166 182.034 166.912 182.296 166.449 182.296C165.854 182.296 165.522 181.946 165.47 181.509L164.727 181.771ZM173.025 179.288C173.742 179.288 174.048 179.769 174.153 180.18L174.896 179.865C174.721 179.227 174.144 178.528 173.025 178.528C171.827 178.528 170.909 179.446 170.909 180.757C170.909 182.034 171.81 182.995 173.034 182.995C174.127 182.995 174.73 182.287 174.931 181.684L174.205 181.369C174.109 181.701 173.821 182.235 173.034 182.235C172.352 182.235 171.748 181.719 171.748 180.757C171.748 179.778 172.36 179.288 173.025 179.288ZM177.653 182.261C176.954 182.261 176.342 181.736 176.342 180.757C176.342 179.787 176.954 179.262 177.653 179.262C178.353 179.262 178.965 179.787 178.965 180.757C178.965 181.736 178.353 182.261 177.653 182.261ZM177.653 178.528C176.394 178.528 175.503 179.481 175.503 180.757C175.503 182.042 176.394 182.995 177.653 182.995C178.912 182.995 179.804 182.042 179.804 180.757C179.804 179.481 178.912 178.528 177.653 178.528ZM181.677 180.434C181.677 179.796 182.01 179.28 182.657 179.28C183.391 179.28 183.636 179.752 183.636 180.338V182.864H184.458V180.198C184.458 179.262 183.959 178.537 182.954 178.537C182.464 178.537 181.966 178.738 181.66 179.262V178.659H180.856V182.864H181.677V180.434ZM185.371 181.771C185.441 182.252 185.931 182.995 187.085 182.995C188.125 182.995 188.624 182.287 188.624 181.693C188.624 181.072 188.222 180.609 187.461 180.442L186.779 180.294C186.456 180.224 186.298 180.04 186.298 179.787C186.298 179.498 186.578 179.227 186.998 179.227C187.662 179.227 187.837 179.708 187.872 179.927L188.598 179.656C188.51 179.28 188.152 178.528 186.998 178.528C186.176 178.528 185.503 179.14 185.503 179.857C185.503 180.451 185.896 180.897 186.552 181.037L187.269 181.194C187.618 181.273 187.811 181.474 187.811 181.736C187.811 182.034 187.557 182.296 187.094 182.296C186.499 182.296 186.167 181.946 186.115 181.509L185.371 181.771ZM190.209 180.329C190.244 179.787 190.663 179.253 191.354 179.253C192.097 179.253 192.49 179.726 192.508 180.329H190.209ZM192.63 181.422C192.473 181.894 192.132 182.27 191.45 182.27C190.742 182.27 190.2 181.745 190.182 180.993H193.347C193.356 180.941 193.365 180.836 193.365 180.731C193.365 179.42 192.639 178.528 191.345 178.528C190.287 178.528 189.334 179.428 189.334 180.748C189.334 182.174 190.322 182.995 191.45 182.995C192.429 182.995 193.102 182.41 193.338 181.666L192.63 181.422ZM195.227 182.864V178.659H194.414V182.864H195.227ZM194.23 177.068C194.23 177.391 194.492 177.654 194.816 177.654C195.148 177.654 195.41 177.391 195.41 177.068C195.41 176.736 195.148 176.473 194.816 176.473C194.492 176.473 194.23 176.736 194.23 177.068ZM197.447 182.864V176.534H196.625V182.864H197.447ZM199.667 182.864V176.534H198.845V182.864H199.667ZM202.866 182.261C202.166 182.261 201.554 181.736 201.554 180.757C201.554 179.787 202.166 179.262 202.866 179.262C203.565 179.262 204.177 179.787 204.177 180.757C204.177 181.736 203.565 182.261 202.866 182.261ZM202.866 178.528C201.607 178.528 200.715 179.481 200.715 180.757C200.715 182.042 201.607 182.995 202.866 182.995C204.125 182.995 205.017 182.042 205.017 180.757C205.017 179.481 204.125 178.528 202.866 178.528ZM206.89 180.434C206.89 179.796 207.222 179.28 207.869 179.28C208.604 179.28 208.848 179.752 208.848 180.338V182.864H209.67V180.198C209.67 179.262 209.172 178.537 208.166 178.537C207.677 178.537 207.178 178.738 206.872 179.262V178.659H206.068V182.864H206.89V180.434ZM210.584 181.771C210.654 182.252 211.144 182.995 212.298 182.995C213.338 182.995 213.836 182.287 213.836 181.693C213.836 181.072 213.434 180.609 212.674 180.442L211.992 180.294C211.668 180.224 211.511 180.04 211.511 179.787C211.511 179.498 211.79 179.227 212.21 179.227C212.875 179.227 213.049 179.708 213.084 179.927L213.81 179.656C213.723 179.28 213.364 178.528 212.21 178.528C211.388 178.528 210.715 179.14 210.715 179.857C210.715 180.451 211.109 180.897 211.764 181.037L212.481 181.194C212.831 181.273 213.023 181.474 213.023 181.736C213.023 182.034 212.77 182.296 212.306 182.296C211.712 182.296 211.38 181.946 211.327 181.509L210.584 181.771ZM217.606 180.748C217.606 179.883 218.095 179.271 218.847 179.271C219.599 179.271 220.054 179.865 220.054 180.731C220.054 181.597 219.59 182.252 218.839 182.252C218.052 182.252 217.606 181.614 217.606 180.748ZM220.063 182.296C220.063 182.55 220.089 182.768 220.106 182.864H220.902C220.893 182.794 220.858 182.488 220.858 182.086V176.534H220.045V179.253C219.905 178.912 219.503 178.545 218.76 178.545C217.571 178.545 216.766 179.559 216.766 180.748C216.766 181.999 217.527 182.978 218.76 182.978C219.416 182.978 219.861 182.628 220.063 182.226V182.296ZM222.789 180.329C222.824 179.787 223.244 179.253 223.935 179.253C224.678 179.253 225.071 179.726 225.089 180.329H222.789ZM225.211 181.422C225.054 181.894 224.713 182.27 224.031 182.27C223.323 182.27 222.781 181.745 222.763 180.993H225.928C225.937 180.941 225.946 180.836 225.946 180.731C225.946 179.42 225.22 178.528 223.926 178.528C222.868 178.528 221.915 179.428 221.915 180.748C221.915 182.174 222.903 182.995 224.031 182.995C225.01 182.995 225.683 182.41 225.919 181.666L225.211 181.422ZM231.515 178.615C231.471 178.606 231.357 178.589 231.244 178.589C230.815 178.589 230.291 178.746 229.985 179.393V178.659H229.18V182.864H230.002V180.757C230.002 179.83 230.466 179.463 231.156 179.463C231.27 179.463 231.392 179.472 231.515 179.49V178.615ZM232.881 180.329C232.916 179.787 233.336 179.253 234.027 179.253C234.77 179.253 235.163 179.726 235.181 180.329H232.881ZM235.303 181.422C235.146 181.894 234.805 182.27 234.123 182.27C233.415 182.27 232.872 181.745 232.855 180.993H236.02C236.029 180.941 236.037 180.836 236.037 180.731C236.037 179.42 235.312 178.528 234.018 178.528C232.96 178.528 232.007 179.428 232.007 180.748C232.007 182.174 232.995 182.995 234.123 182.995C235.102 182.995 235.775 182.41 236.011 181.666L235.303 181.422ZM235.452 176.84H234.42L233.659 178.117H234.35L235.452 176.84ZM237.576 180.748C237.576 179.883 238.066 179.271 238.818 179.271C239.569 179.271 240.024 179.865 240.024 180.731C240.024 181.597 239.561 182.252 238.809 182.252C238.022 182.252 237.576 181.614 237.576 180.748ZM240.033 182.296C240.033 182.55 240.059 182.768 240.077 182.864H240.872C240.863 182.794 240.828 182.488 240.828 182.086V176.534H240.015V179.253C239.875 178.912 239.473 178.545 238.73 178.545C237.541 178.545 236.737 179.559 236.737 180.748C236.737 181.999 237.497 182.978 238.73 182.978C239.386 182.978 239.832 182.628 240.033 182.226V182.296ZM243.039 182.864V178.659H242.226V182.864H243.039ZM242.043 177.068C242.043 177.391 242.305 177.654 242.628 177.654C242.961 177.654 243.223 177.391 243.223 177.068C243.223 176.736 242.961 176.473 242.628 176.473C242.305 176.473 242.043 176.736 242.043 177.068ZM244.132 183.092C244.237 183.992 245.023 184.657 246.073 184.657C247.655 184.657 248.18 183.616 248.18 182.55V178.659H247.366V179.245C247.157 178.825 246.72 178.58 246.073 178.58C244.918 178.58 244.14 179.49 244.14 180.626C244.14 181.815 244.953 182.663 246.073 182.663C246.702 182.663 247.157 182.357 247.358 181.972V182.576C247.358 183.485 246.956 183.94 246.073 183.94C245.434 183.94 244.988 183.494 244.927 182.908L244.132 183.092ZM246.195 181.972C245.452 181.972 244.98 181.448 244.98 180.626C244.98 179.813 245.469 179.28 246.195 179.28C246.903 179.28 247.393 179.813 247.393 180.626C247.393 181.439 246.903 181.972 246.195 181.972ZM250.025 180.329C250.06 179.787 250.48 179.253 251.171 179.253C251.914 179.253 252.307 179.726 252.325 180.329H250.025ZM252.447 181.422C252.29 181.894 251.949 182.27 251.267 182.27C250.559 182.27 250.017 181.745 249.999 180.993H253.164C253.173 180.941 253.182 180.836 253.182 180.731C253.182 179.42 252.456 178.528 251.162 178.528C250.104 178.528 249.151 179.428 249.151 180.748C249.151 182.174 250.139 182.995 251.267 182.995C252.246 182.995 252.919 182.41 253.155 181.666L252.447 181.422ZM256.565 178.615C256.521 178.606 256.408 178.589 256.294 178.589C255.866 178.589 255.341 178.746 255.035 179.393V178.659H254.231V182.864H255.052V180.757C255.052 179.83 255.516 179.463 256.207 179.463C256.32 179.463 256.443 179.472 256.565 179.49V178.615ZM261.393 179.288C262.11 179.288 262.416 179.769 262.521 180.18L263.264 179.865C263.089 179.227 262.512 178.528 261.393 178.528C260.195 178.528 259.277 179.446 259.277 180.757C259.277 182.034 260.177 182.995 261.401 182.995C262.494 182.995 263.098 182.287 263.299 181.684L262.573 181.369C262.477 181.701 262.188 182.235 261.401 182.235C260.719 182.235 260.116 181.719 260.116 180.757C260.116 179.778 260.728 179.288 261.393 179.288ZM264.753 180.329C264.788 179.787 265.208 179.253 265.899 179.253C266.642 179.253 267.035 179.726 267.053 180.329H264.753ZM267.175 181.422C267.018 181.894 266.677 182.27 265.995 182.27C265.287 182.27 264.745 181.745 264.727 180.993H267.892C267.901 180.941 267.91 180.836 267.91 180.731C267.91 179.42 267.184 178.528 265.89 178.528C264.832 178.528 263.879 179.428 263.879 180.748C263.879 182.174 264.867 182.995 265.995 182.995C266.974 182.995 267.647 182.41 267.883 181.666L267.175 181.422ZM270.06 177.33H269.308V178.012C269.308 178.379 269.116 178.659 268.661 178.659H268.434V179.402H269.238V181.71C269.238 182.471 269.693 182.908 270.41 182.908C270.69 182.908 270.9 182.856 270.969 182.829V182.13C270.9 182.147 270.751 182.165 270.646 182.165C270.218 182.165 270.06 181.972 270.06 181.588V179.402H270.969V178.659H270.06V177.33ZM273.168 177.33H272.416V178.012C272.416 178.379 272.224 178.659 271.769 178.659H271.542V179.402H272.346V181.71C272.346 182.471 272.801 182.908 273.518 182.908C273.798 182.908 274.007 182.856 274.077 182.829V182.13C274.007 182.147 273.859 182.165 273.754 182.165C273.325 182.165 273.168 181.972 273.168 181.588V179.402H274.077V178.659H273.168V177.33ZM275.665 180.329C275.7 179.787 276.119 179.253 276.81 179.253C277.553 179.253 277.947 179.726 277.964 180.329H275.665ZM278.087 181.422C277.929 181.894 277.588 182.27 276.906 182.27C276.198 182.27 275.656 181.745 275.639 180.993H278.804C278.812 180.941 278.821 180.836 278.821 180.731C278.821 179.42 278.095 178.528 276.801 178.528C275.744 178.528 274.791 179.428 274.791 180.748C274.791 182.174 275.779 182.995 276.906 182.995C277.886 182.995 278.559 182.41 278.795 181.666L278.087 181.422ZM281.662 181.771C281.732 182.252 282.222 182.995 283.376 182.995C284.416 182.995 284.915 182.287 284.915 181.693C284.915 181.072 284.513 180.609 283.752 180.442L283.07 180.294C282.746 180.224 282.589 180.04 282.589 179.787C282.589 179.498 282.869 179.227 283.289 179.227C283.953 179.227 284.128 179.708 284.163 179.927L284.888 179.656C284.801 179.28 284.443 178.528 283.289 178.528C282.467 178.528 281.794 179.14 281.794 179.857C281.794 180.451 282.187 180.897 282.843 181.037L283.56 181.194C283.909 181.273 284.102 181.474 284.102 181.736C284.102 182.034 283.848 182.296 283.385 182.296C282.79 182.296 282.458 181.946 282.406 181.509L281.662 181.771ZM286.5 180.329C286.534 179.787 286.954 179.253 287.645 179.253C288.388 179.253 288.781 179.726 288.799 180.329H286.5ZM288.921 181.422C288.764 181.894 288.423 182.27 287.741 182.27C287.033 182.27 286.491 181.745 286.473 180.993H289.638C289.647 180.941 289.656 180.836 289.656 180.731C289.656 179.42 288.93 178.528 287.636 178.528C286.578 178.528 285.625 179.428 285.625 180.748C285.625 182.174 286.613 182.995 287.741 182.995C288.72 182.995 289.393 182.41 289.629 181.666L288.921 181.422ZM292.471 179.288C293.188 179.288 293.494 179.769 293.599 180.18L294.342 179.865C294.167 179.227 293.59 178.528 292.471 178.528C291.273 178.528 290.355 179.446 290.355 180.757C290.355 182.034 291.256 182.995 292.48 182.995C293.572 182.995 294.176 182.287 294.377 181.684L293.651 181.369C293.555 181.701 293.266 182.235 292.48 182.235C291.798 182.235 291.194 181.719 291.194 180.757C291.194 179.778 291.806 179.288 292.471 179.288ZM296.442 177.33H295.691V178.012C295.691 178.379 295.498 178.659 295.044 178.659H294.816V179.402H295.621V181.71C295.621 182.471 296.075 182.908 296.792 182.908C297.072 182.908 297.282 182.856 297.352 182.829V182.13C297.282 182.147 297.133 182.165 297.028 182.165C296.6 182.165 296.442 181.972 296.442 181.588V179.402H297.352V178.659H296.442V177.33ZM299.262 182.864V178.659H298.449V182.864H299.262ZM298.265 177.068C298.265 177.391 298.527 177.654 298.851 177.654C299.183 177.654 299.445 177.391 299.445 177.068C299.445 176.736 299.183 176.473 298.851 176.473C298.527 176.473 298.265 176.736 298.265 177.068ZM302.461 182.261C301.762 182.261 301.15 181.736 301.15 180.757C301.15 179.787 301.762 179.262 302.461 179.262C303.16 179.262 303.772 179.787 303.772 180.757C303.772 181.736 303.16 182.261 302.461 182.261ZM302.461 178.528C301.202 178.528 300.31 179.481 300.31 180.757C300.31 182.042 301.202 182.995 302.461 182.995C303.72 182.995 304.612 182.042 304.612 180.757C304.612 179.481 303.72 178.528 302.461 178.528ZM306.485 180.434C306.485 179.796 306.817 179.28 307.464 179.28C308.199 179.28 308.443 179.752 308.443 180.338V182.864H309.265V180.198C309.265 179.262 308.767 178.537 307.762 178.537C307.272 178.537 306.774 178.738 306.468 179.262V178.659H305.663V182.864H306.485V180.434ZM313.292 180.329C313.327 179.787 313.746 179.253 314.437 179.253C315.18 179.253 315.573 179.726 315.591 180.329H313.292ZM315.713 181.422C315.556 181.894 315.215 182.27 314.533 182.27C313.825 182.27 313.283 181.745 313.265 180.993H316.43C316.439 180.941 316.448 180.836 316.448 180.731C316.448 179.42 315.722 178.528 314.428 178.528C313.37 178.528 312.417 179.428 312.417 180.748C312.417 182.174 313.405 182.995 314.533 182.995C315.512 182.995 316.185 182.41 316.422 181.666L315.713 181.422ZM318.319 180.434C318.319 179.796 318.651 179.28 319.298 179.28C320.032 179.28 320.277 179.752 320.277 180.338V182.864H321.099V180.198C321.099 179.262 320.601 178.537 319.595 178.537C319.106 178.537 318.607 178.738 318.301 179.262V178.659H317.497V182.864H318.319V180.434ZM325.081 180.748C325.081 179.883 325.571 179.271 326.323 179.271C327.075 179.271 327.529 179.865 327.529 180.731C327.529 181.597 327.066 182.252 326.314 182.252C325.527 182.252 325.081 181.614 325.081 180.748ZM327.538 182.296C327.538 182.55 327.564 182.768 327.582 182.864H328.378C328.369 182.794 328.334 182.488 328.334 182.086V176.534H327.521V179.253C327.381 178.912 326.979 178.545 326.236 178.545C325.046 178.545 324.242 179.559 324.242 180.748C324.242 181.999 325.003 182.978 326.236 182.978C326.891 182.978 327.337 182.628 327.538 182.226V182.296ZM330.265 180.329C330.3 179.787 330.72 179.253 331.41 179.253C332.153 179.253 332.547 179.726 332.564 180.329H330.265ZM332.687 181.422C332.529 181.894 332.188 182.27 331.507 182.27C330.798 182.27 330.256 181.745 330.239 180.993H333.404C333.412 180.941 333.421 180.836 333.421 180.731C333.421 179.42 332.696 178.528 331.402 178.528C330.344 178.528 329.391 179.428 329.391 180.748C329.391 182.174 330.379 182.995 331.507 182.995C332.486 182.995 333.159 182.41 333.395 181.666L332.687 181.422ZM336.805 178.615C336.761 178.606 336.647 178.589 336.534 178.589C336.105 178.589 335.581 178.746 335.275 179.393V178.659H334.47V182.864H335.292V180.757C335.292 179.83 335.755 179.463 336.446 179.463C336.56 179.463 336.682 179.472 336.805 179.49V178.615ZM338.502 180.434C338.502 179.796 338.835 179.28 339.482 179.28C340.216 179.28 340.461 179.752 340.461 180.338V182.864H341.283V180.198C341.283 179.262 340.784 178.537 339.779 178.537C339.289 178.537 338.791 178.738 338.485 179.262V178.659H337.681V182.864H338.502V180.434ZM343.403 182.864V178.659H342.59V182.864H343.403ZM342.406 177.068C342.406 177.391 342.669 177.654 342.992 177.654C343.324 177.654 343.587 177.391 343.587 177.068C343.587 176.736 343.324 176.473 342.992 176.473C342.669 176.473 342.406 176.736 342.406 177.068ZM345.335 180.329C345.369 179.787 345.789 179.253 346.48 179.253C347.223 179.253 347.616 179.726 347.634 180.329H345.335ZM347.756 181.422C347.599 181.894 347.258 182.27 346.576 182.27C345.868 182.27 345.326 181.745 345.308 180.993H348.473C348.482 180.941 348.491 180.836 348.491 180.731C348.491 179.42 347.765 178.528 346.471 178.528C345.413 178.528 344.46 179.428 344.46 180.748C344.46 182.174 345.448 182.995 346.576 182.995C347.555 182.995 348.228 182.41 348.464 181.666L347.756 181.422ZM351.874 178.615C351.83 178.606 351.717 178.589 351.603 178.589C351.175 178.589 350.65 178.746 350.344 179.393V178.659H349.54V182.864H350.362V180.757C350.362 179.83 350.825 179.463 351.516 179.463C351.629 179.463 351.752 179.472 351.874 179.49V178.615ZM351.877 182.305C351.877 182.646 352.139 182.908 352.48 182.908C352.821 182.908 353.092 182.646 353.092 182.305C353.092 181.964 352.821 181.693 352.48 181.693C352.139 181.693 351.877 181.964 351.877 182.305Z" fill="white"/>
<path fill-rule="evenodd" clip-rule="evenodd" d="M470.716 141.357L472.671 139.402C472.849 139.224 472.849 138.937 472.671 138.759C472.493 138.58 472.205 138.58 472.027 138.759L470.072 140.713L468.117 138.759C467.939 138.58 467.651 138.58 467.473 138.759C467.295 138.937 467.295 139.224 467.473 139.402L469.428 141.357L467.473 143.312C467.295 143.49 467.295 143.778 467.473 143.956C467.562 144.045 467.679 144.089 467.795 144.089C467.912 144.089 468.028 144.045 468.117 143.956L470.072 142.001L472.027 143.956C472.116 144.045 472.232 144.089 472.349 144.089C472.465 144.089 472.582 144.045 472.671 143.956C472.849 143.778 472.849 143.49 472.671 143.312L470.716 141.357Z" fill="white"/>
<mask id="mask2" mask-type="alpha" maskUnits="userSpaceOnUse" x="467" y="138" width="6" height="7">
<path fill-rule="evenodd" clip-rule="evenodd" d="M470.716 141.357L472.671 139.402C472.849 139.224 472.849 138.937 472.671 138.759C472.493 138.58 472.205 138.58 472.027 138.759L470.072 140.713L468.117 138.759C467.939 138.58 467.651 138.58 467.473 138.759C467.295 138.937 467.295 139.224 467.473 139.402L469.428 141.357L467.473 143.312C467.295 143.49 467.295 143.778 467.473 143.956C467.562 144.045 467.679 144.089 467.795 144.089C467.912 144.089 468.028 144.045 468.117 143.956L470.072 142.001L472.027 143.956C472.116 144.045 472.232 144.089 472.349 144.089C472.465 144.089 472.582 144.045 472.671 143.956C472.849 143.778 472.849 143.49 472.671 143.312L470.716 141.357Z" fill="white"/>
</mask>
<g mask="url(#mask2)">
<rect x="464.607" y="135.893" width="10.9286" height="10.9286" fill="white"/>
</g>
<path d="M251.289 125.22C251.398 125.087 251.601 125.087 251.71 125.22L255.863 130.255C256.01 130.433 255.883 130.702 255.652 130.702H247.347C247.116 130.702 246.989 130.433 247.136 130.255L251.289 125.22Z" fill="#362772"/>
<rect x="93.0352" y="149.007" width="5.32768" height="5.32768" rx="2.66384" fill="white"/>
<rect x="101.027" y="149.007" width="5.32768" height="5.32768" rx="2.66384" fill="white"/>
<rect x="109.02" y="149.007" width="5.32768" height="5.32768" rx="2.66384" fill="white"/>
<rect x="117.146" y="149.144" width="5.05446" height="5.05446" rx="2.52723" fill="white" stroke="white" stroke-width="0.273214"/>
<rect x="125.139" y="149.144" width="5.05446" height="5.05446" rx="2.52723" stroke="white" stroke-width="0.273214"/>
<rect x="133.131" y="149.144" width="5.05446" height="5.05446" rx="2.52723" stroke="white" stroke-width="0.273214"/>
<rect x="141.121" y="149.144" width="5.05446" height="5.05446" rx="2.52723" stroke="white" stroke-width="0.273214"/>
<rect x="149.113" y="149.144" width="5.05446" height="5.05446" rx="2.52723" stroke="white" stroke-width="0.273214"/>
<rect x="157.105" y="149.144" width="5.05446" height="5.05446" rx="2.52723" stroke="white" stroke-width="0.273214"/>
<rect x="165.096" y="149.144" width="5.05446" height="5.05446" rx="2.52723" stroke="white" stroke-width="0.273214"/>
<rect x="173.088" y="149.144" width="5.05446" height="5.05446" rx="2.52723" stroke="white" stroke-width="0.273214"/>
<rect x="385.101" y="163.488" width="21.3107" height="21.3107" rx="6.28393" stroke="white" stroke-width="0.546429"/>
</g>
<defs>
<filter id="filter0_d" x="0.142855" y="105.293" width="502.714" height="114.75" filterUnits="userSpaceOnUse" color-interpolation-filters="sRGB">
<feFlood flood-opacity="0" result="BackgroundImageFix"/>
<feColorMatrix in="SourceAlpha" type="matrix" values="0 0 0 0 0 0 0 0 0 0 0 0 0 0 0 0 0 0 127 0"/>
<feOffset dy="2.18571"/>
<feGaussianBlur stdDeviation="10.9286"/>
<feColorMatrix type="matrix" values="0 0 0 0 0 0 0 0 0 0 0 0 0 0 0 0 0 0 0.25 0"/>
<feBlend mode="normal" in2="BackgroundImageFix" result="effect1_dropShadow"/>
<feBlend mode="normal" in="SourceGraphic" in2="effect1_dropShadow" result="shape"/>
</filter>
<filter id="filter1_d" x="403.954" y="160.482" width="74.3143" height="38.25" filterUnits="userSpaceOnUse" color-interpolation-filters="sRGB">
<feFlood flood-opacity="0" result="BackgroundImageFix"/>
<feColorMatrix in="SourceAlpha" type="matrix" values="0 0 0 0 0 0 0 0 0 0 0 0 0 0 0 0 0 0 127 0"/>
<feOffset dy="5.46429"/>
<feGaussianBlur stdDeviation="4.09821"/>
<feColorMatrix type="matrix" values="0 0 0 0 0 0 0 0 0 0 0 0 0 0 0 0 0 0 0.25 0"/>
<feBlend mode="normal" in2="BackgroundImageFix" result="effect1_dropShadow"/>
<feBlend mode="normal" in="SourceGraphic" in2="effect1_dropShadow" result="shape"/>
</filter>
</defs>
</svg>
