<svg width="399" height="223" viewBox="0 0 399 223" fill="none" xmlns="http://www.w3.org/2000/svg">
<path d="M316.3 153.8C328.229 153.8 337.9 152.994 337.9 152C337.9 151.006 328.229 150.2 316.3 150.2C304.371 150.2 294.7 151.006 294.7 152C294.7 152.994 304.371 153.8 316.3 153.8Z" fill="#188CC6"/>
<path d="M358 25.5C358.2 34.4 356.5 42.4 353.8 49.5L348.4 46.8L352.6 52.4C349.1 60.4 344.3 67 339.7 72.2L338 65.6V74C330.7 81.7 324.3 85.7 324.3 85.7C330.9 44.3 358 25.5 358 25.5Z" fill="#1E9ED1"/>
<path d="M327.5 77.1001C327.5 77.1001 309.6 122.4 317.5 182.5" stroke="#1E9ED1" stroke-miterlimit="10"/>
<path d="M315.8 164.5C315.8 164.5 321.3 86.6999 286 54.5999" stroke="#5FB2D3" stroke-miterlimit="10"/>
<path d="M232.5 42.6999C232.5 42.6999 296 28.9999 304.4 82.3999C304.4 82.3999 272.1 47.4999 232.5 42.6999Z" fill="#5FB2D3"/>
<path d="M279.7 63.9L278.1 70.8001C280.6 72.4001 283.3 74 286 75.4L287.3 73.8001V76.1001C292.7 78.9001 298.4 81.2 304.4 82.4C304.4 82.4 295.6 37.9 232.5 42.7C232.5 42.7 238.2 52.9001 250.2 56.3001L254 53.2L251.5 56.6001C251.8 56.7001 252 56.7001 252.3 56.8001C259.2 58.2001 267.1 63.8001 276 69.5001L279.7 63.9Z" fill="#AAE1F2"/>
<path d="M314.8 179C314.8 179 309.3 101.2 344.6 69.0999" stroke="#5FB2D3" stroke-miterlimit="10"/>
<path d="M398.1 57.1999C398.1 57.1999 334.6 43.4999 326.2 96.8999C326.2 96.8999 358.5 62.0999 398.1 57.1999Z" fill="#5FB2D3"/>
<path d="M350.9 78.4L352.5 85.3001C350 86.9001 347.3 88.5 344.6 89.9L343.3 88.3001V90.6001C337.9 93.4001 332.2 95.7 326.2 96.9C326.2 96.9 335 52.4 398.1 57.2C398.1 57.2 392.4 67.4001 380.4 70.8001L376.6 67.7L379.1 71.1001C378.8 71.2001 378.6 71.2001 378.3 71.3001C371.4 72.7001 363.5 78.3001 354.6 84.0001L350.9 78.4Z" fill="#AAE1F2"/>
<path d="M318.3 54.7C318.3 54.7 313.8 132.3 317.7 158.6" stroke="#5FB2D3" stroke-miterlimit="10"/>
<path d="M324.7 63.2L329.1 64.3C330.2 60.9 330.9 57.1 331.5 53L325.8 49.7L331.7 51.7C332.6 44.7 333.1 37.4 334.5 31.6C334.9 29.9 335.1 28.3 335.2 26.6L329.6 29.6L335.2 23.7C334.3 10.9 324.8 0.699951 324.8 0.699951C319.1 11.9 315.7 75.3999 316.6 75.3999C322.5 75.2999 326.1 71.9 328.3 66.8L324.7 63.2Z" fill="#5FB2D3"/>
<path d="M310 28L315.2 27.9L309.9 29.4C309.9 30.2 309.9 31 310 31.8C310.4 37 310.4 42.1 310.3 46.9L314.3 46.8L310.2 49.7C310 63 309.7 73.1 316.4 75.3L324.6 0.599973C324.7 0.499973 310.5 9.19998 310 28Z" fill="#AAE1F2"/>
<path d="M304.4 63.8C304.4 63.8 322.3 109.1 314.4 169.2" stroke="#5FB2D3" stroke-miterlimit="10"/>
<path d="M273.9 12.2C273.7 21.1 275.4 29.1 278.1 36.2L283.5 33.5L279.3 39.1C282.8 47.1 287.6 53.6999 292.2 58.8999L293.9 52.3V60.7C301.2 68.4 307.6 72.3999 307.6 72.3999C301 30.9999 273.9 12.2 273.9 12.2Z" fill="#AAE1F2"/>
<path d="M316.3 153.8C304.4 153.8 294.7 153 294.7 152L302.6 183.8C302.6 183.8 307.2 185.8 316.6 185.8C326 185.8 330.6 183.8 330.6 183.8L337.9 152C337.8 153 328.2 153.8 316.3 153.8Z" fill="#AAE1F2"/>
<path d="M223.8 73.3999H149.3C148.5 73.3999 147.8 73.4999 147 73.4999C146.3 73.3999 145.5 73.3999 144.7 73.3999L41.2002 69.8999C31.7002 69.8999 25.8002 70.5999 25.8002 82.2999L24.2002 158.2C24.2002 165.8 31.9002 171.9 41.5002 171.9H144.8C145.6 171.9 146.3 171.8 147.1 171.8C147.8 171.9 148.6 171.9 149.4 171.9H223.9C233.4 171.9 241.2 165.8 241.2 158.2V87.0999C241.1 75.8999 233.3 73.3999 223.8 73.3999Z" fill="#1E9ED1"/>
<path d="M27.0001 217.4H23.6001C20.2001 217.4 17.4001 214.6 17.4001 211.2C17.4001 207.8 20.2001 205 23.6001 205H27.0001C30.4001 205 33.2001 207.8 33.2001 211.2C33.2001 214.6 30.4001 217.4 27.0001 217.4Z" fill="#043054"/>
<path d="M234.4 217.4H237.8C241.2 217.4 244 214.6 244 211.2C244 207.8 241.2 205 237.8 205H234.4C231 205 228.2 207.8 228.2 211.2C228.2 214.6 231 217.4 234.4 217.4Z" fill="#043054"/>
<path d="M163.7 159.6H132.8H33.2002V208.7H132.8H163.7H233.7V159.6H163.7Z" fill="#1E9ED1"/>
<path d="M163.7 159.6H132.8H33.2002V165.3H132.8H163.7H233.7V159.6H163.7Z" fill="#5FB2D3"/>
<path d="M10.2001 152.9C10.2001 165.7 10.2001 208.7 10.2001 208.7H40.0001C40.0001 208.7 40.0001 156.1 40.0001 142.4C40.0001 128.7 22.4 97.3999 4.60004 116.3C-6.99996 128.8 10.2001 140.1 10.2001 152.9Z" fill="#188CC6"/>
<path d="M185.8 119.5C185.8 119.5 181.6 116.9 180.9 118.1C180.2 119.3 183.3 122.3 183.3 122.3C183.3 122.3 175.4 140.9 181.2 155C181.2 155 177.8 160.2 179.9 159.8C182 159.4 184.2 158.1 184.2 158.1C184.2 158.1 199.5 163.7 221.5 161.9C221.5 161.9 223.6 163.5 225.3 162.8C227 162.1 223.4 159.8 223.4 159.8C223.4 159.8 228.2 143.8 222.2 123.7C222.2 123.7 224.8 120.9 223.9 119.7C223 118.5 219.5 120.9 219.5 120.9C219.5 120.9 202 113.3 185.8 119.5Z" fill="#AAE1F2"/>
<path d="M251.2 152.9C251.2 165.7 251.2 208.7 251.2 208.7H221.4C221.4 208.7 221.4 156.1 221.4 142.4C221.4 128.7 239 97.3999 256.8 116.3C268.4 128.8 251.2 140.1 251.2 152.9Z" fill="#188CC6"/>
<path d="M150.3 201.4C137.9 191.8 129.4 184.5 124.7 179.5C116.6 171 109.9 163.4 107.6 160.4C102.2 153.3 113.3 146.9 116.8 150C122.2 154.7 134.9 170.3 154.9 196.9L150.3 201.4Z" fill="#0A6EA5"/>
<path d="M129.6 202.5L101.3 161.2C95.5999 153.8 113 144.1 116.7 147.3C125.1 154.6 148.2 185.6 150.7 187.8L129.6 202.5Z" fill="#06508C"/>
<path d="M79.5685 204.187C81.9308 198.25 90.7649 178.125 96.1737 169.38C97.6879 166.874 99.2168 164.51 100.683 162.223C104.955 155.517 117.956 162.185 113.562 168.406C102.741 183.834 86.5599 205.087 85.2531 206.86C83.3318 209.55 78.0467 207.973 79.5685 204.187Z" fill="#0A6EA5"/>
<path d="M79.841 201.763C78.8678 203.049 78.2679 204.088 78.0045 204.744C77.7277 205.624 77.4741 206.863 77.2303 208.685C78.1963 209.012 87.3004 211.843 104.369 217.079C105.792 215.014 105.786 213.625 104.351 212.911C102.915 212.198 101.689 211.721 100.686 211.258L89.7889 201.733C89.5791 201.496 89.3058 201.57 89.0692 201.779L87.6228 203.485C85.997 203.701 84.7444 203.67 83.865 203.394C83.1587 203.217 82.2561 202.58 81.1937 201.62C80.8607 201.197 80.2776 201.207 79.841 201.763C79.891 201.677 79.891 201.677 79.841 201.763Z" fill="#E4E4E4"/>
<path d="M145.7 200.6C145.5 202.2 145.5 203.4 145.6 204.1C145.8 205 146.2 206.2 146.9 207.9C147.9 207.7 157.2 205.6 174.6 201.6C174.8 199.1 174.1 197.9 172.5 198C170.9 198.2 169.6 198.3 168.5 198.4L154.3 195.6C154 195.5 153.8 195.7 153.7 196L153.3 198.2C152 199.2 150.9 199.8 150 200C149.3 200.2 148.2 200.1 146.8 199.8C146.4 199.6 145.8 200 145.7 200.6C145.7 200.5 145.7 200.6 145.7 200.6Z" fill="#E4E4E4"/>
<path d="M95.4 164.9C79.9 165.8 69.3999 166.5 64.0999 166.7C48.9999 167.4 43 160.6 41.7 143L68.4 136.9C72.2 137.1 88.3999 140.1 117.1 145.8C122.3 147.1 123 154.1 122.6 156.6C122.6 156.7 117.7 172 108.1 202.6L83.0999 193.6L95.7999 166.5C95.9999 165.4 95.9 164.9 95.4 164.9Z" fill="#085F9B"/>
<path d="M61.4 51.9999C58.9 45.5999 52.5 43.4999 47.2 44.6999L46.2 44.8999C40.4 46.1999 36.7 51.9999 38 57.8999L38.2 58.8999C38.1 58.2999 38 57.6999 37.8 57.0999C38.2 56.4999 38.5 55.9999 38.9 55.4999L38.8 55.0999C40.1 49.4999 42.7 46.2999 46.5 45.3999C52.2 44.0999 54.6 46.3999 56.6 48.2999C56.3 52.4999 52 54.0999 48.6 57.3999C48 57.0999 47.4 56.9999 46.8 57.1999C45.3 57.4999 44.4 58.9999 44.7 60.4999C45 61.9999 46.5 62.8999 48 62.5999H48.1C49.9 68.0999 51.2 74.4999 50.1 76.6999C50.7 76.6999 53 83.1999 53.6 83.0999L55.8 82.5999L65.2 91.2999C67.2 88.4999 67.3 64.2999 61.4 51.9999Z" fill="#022035"/>
<path d="M45.4999 65C42.5999 62.9 40.3999 59.9 39.7999 56.2C38.1999 45.5 53.2999 44.5 57.3999 49.2C61.4999 53.9 64.1999 67.4 60.6999 69.2C59.2999 69.9 55.9999 69.7 52.3999 68.5L57.5998 82.2L45.7999 84.9L45.4999 65Z" fill="#0A6EA5"/>
<path d="M48.3 62.4999H48.2C46.7 62.7999 45.2 61.8999 44.9 60.3999C44.6 58.8999 45.5 57.3999 47 57.0999C47.6 56.9999 48.3 56.9999 48.8 57.2999C52.2 53.9999 56.5 52.3999 56.8 48.1999C54.8 46.2999 52.4 44.0999 46.7 45.2999C42.9 46.1999 40.3 49.3999 39 54.9999L39.1 55.3999C38.7 55.8999 38.4 56.4999 38 56.9999C38.1 57.6999 38.3 58.2999 38.4 58.7999L40.5 68.0999C41.6 72.8999 42.6 73.2999 45.7 75.1999C46.6 73.0999 50.1 67.9999 48.3 62.4999Z" fill="#022035"/>
<path d="M60.3999 56C61.3999 57 63.1999 58.6 63.5999 60.1C63.8999 61.2 62.2999 61.8 61.6999 62.5" fill="#0A6EA5"/>
<path d="M59.4999 54.8999C58.8999 55.1999 58.2999 55.2999 57.7999 55.4999C57.2999 55.6999 56.8999 55.8999 56.4999 56.4999C56.3999 56.1999 56.4999 55.7999 56.6999 55.4999C56.8999 55.1999 57.1999 54.9999 57.4999 54.7999C58.0999 54.5999 58.7999 54.6999 59.4999 54.8999Z" fill="#022035"/>
<path d="M59 64.9998C59.5 64.6998 60.1 64.6999 60.6 64.5999C61.1 64.5999 61.6 64.5998 62.2 64.6998C61.8 65.1998 61.2 65.2999 60.6 65.2999C60 65.3999 59.5 65.2998 59 64.9998Z" fill="#022035"/>
<path d="M58.9999 57.3999C59.3312 57.3999 59.5999 57.1313 59.5999 56.8C59.5999 56.4686 59.3312 56.2 58.9999 56.2C58.6685 56.2 58.3999 56.4686 58.3999 56.8C58.3999 57.1313 58.6685 57.3999 58.9999 57.3999Z" fill="#022035"/>
<path d="M70.2 92.6999L85.2 79.4999C87.3 75.4999 89.4999 72.1999 91.7999 69.6999C92.5999 69.1999 94 68.5999 93.2 71.3999C92.4 74.1999 91.5999 77.0999 92.4999 77.6999C93.3999 78.2999 94.8999 76.7999 95.9999 77.8999C96.6999 78.5999 94.1 80.5999 87.9 83.8999L77.9999 97.9999L70.2 92.6999Z" fill="#0A6EA5"/>
<path d="M61.4 92.4997C67.4 91.0997 75 87.9997 82.3 80.6997L87.3 87.3997C82.8 94.4997 75.6 101.2 68.3 102.6C62.6 103.7 58.2 97.4997 61.4 92.4997Z" fill="#5FB2D3"/>
<path d="M85.7 86.3998C89.2 87.3998 97.4999 91.8998 97.4999 91.8998L106.3 70.0998C104.1 68.0998 93.5999 66.2998 93.5999 66.2998L85.7 86.3998Z" fill="#DEF4F9"/>
<path d="M120.7 73.9997C120.7 73.9997 116.3 70.1997 107.2 70.1997L98.3999 91.8997C98.3999 91.8997 108.7 93.1997 111.2 95.8997L120.7 73.9997Z" fill="#5FB2D3"/>
<path d="M119.9 73.9998C119.9 73.9998 115.6 69.9998 106.4 69.9998L97.5999 91.7998C97.5999 91.7998 107.9 93.0998 110.4 95.7998L119.9 73.9998Z" fill="#AAE1F2"/>
<path d="M94.8999 70.2997C96.1999 70.0997 97.4999 70.1997 98.6999 70.5997C99.8999 70.9997 101.1 71.5997 102 72.4997C100.8 71.8997 99.6999 71.3997 98.4999 71.0997C97.3999 70.6997 96.1999 70.4997 94.8999 70.2997Z" fill="#AAE1F2"/>
<path d="M97.9998 72.7996C96.7998 72.3996 95.5998 72.1996 94.2998 71.9996C95.5998 71.7996 96.8998 71.9996 98.0998 72.3996C99.2998 72.7996 100.5 73.3996 101.4 74.2996C100.3 73.6996 99.0998 73.0996 97.9998 72.7996Z" fill="#AAE1F2"/>
<path d="M97.2999 74.3996C96.0999 73.9996 94.8999 73.6996 93.5999 73.4996C94.8999 73.2996 96.1999 73.4996 97.3999 73.8996C98.5999 74.2996 99.7999 74.9996 100.7 75.8996C99.5999 75.2996 98.4999 74.7996 97.2999 74.3996Z" fill="#AAE1F2"/>
<path d="M96.6999 76.0997C95.4999 75.6997 94.2999 75.3996 93.0999 75.1996C94.3999 75.0996 95.6999 75.1996 96.8999 75.6996C98.0999 76.0996 99.2999 76.7996 100.2 77.6996C98.9999 76.9996 97.8999 76.4997 96.6999 76.0997Z" fill="#AAE1F2"/>
<path d="M96.0999 77.6998C94.8999 77.2998 93.6999 76.9998 92.4999 76.6998C93.7999 76.5998 95.0999 76.7998 96.2999 77.1998C97.4999 77.5998 98.5999 78.2998 99.4999 79.2998C98.2999 78.6998 97.1999 78.1998 96.0999 77.6998Z" fill="#AAE1F2"/>
<path d="M95.3998 79.3998C94.1998 78.8998 92.9998 78.5998 91.7998 78.3998C93.0998 78.2998 94.3998 78.4998 95.5998 78.9998C96.7998 79.4998 97.8998 80.1998 98.7998 81.0998C97.6998 80.3998 96.5998 79.7998 95.3998 79.3998Z" fill="#AAE1F2"/>
<path d="M94.7999 81.0996C93.5999 80.5996 92.4 80.2996 91.2 79.9996C92.5 79.8996 93.7999 80.1996 94.9999 80.5996C96.1999 81.0996 97.3 81.7996 98.2 82.7996C97.1 82.0996 95.9999 81.4996 94.7999 81.0996Z" fill="#AAE1F2"/>
<path d="M94.1999 82.6997C93.0999 82.1997 91.8999 81.8997 90.5999 81.5997C91.8999 81.4997 93.1999 81.7997 94.3999 82.2997C95.5999 82.7997 96.6999 83.4997 97.4999 84.4997C96.3999 83.7997 95.2999 83.1997 94.1999 82.6997Z" fill="#AAE1F2"/>
<path d="M93.5999 84.3998C92.4999 83.8998 91.2999 83.4998 89.9999 83.1998C91.2999 83.0998 92.5999 83.3998 93.7999 83.8998C94.9999 84.3998 96.0999 85.1998 96.8999 86.1998C95.7999 85.4998 94.6999 84.8998 93.5999 84.3998Z" fill="#AAE1F2"/>
<path d="M89.3999 84.7998C90.6999 84.7998 91.9999 85.0998 93.1999 85.5998C94.3999 86.0998 95.4999 86.8998 96.2999 87.8998C95.1999 87.1998 94.1999 86.5998 92.9999 86.0998C91.7999 85.4998 90.5999 85.1998 89.3999 84.7998Z" fill="#AAE1F2"/>
<path d="M97.8999 99.5999L104.5 93.7999C104.6 89.5999 105.4 87.2999 106.9 86.8999C107.9 86.0999 107.1 91.5999 109.1 90.6999C111.1 89.7999 115.5 84.6999 116.5 85.2999C118.1 86.1999 117.7 89.9999 116.7 92.0999C114.8 95.9999 112.9 97.5999 108 100.3C105.4 101.7 102.7 103.9 99.9999 107L97.8999 99.5999Z" fill="#0A6EA5"/>
<path d="M72.0999 102.6C78.7999 102.7 88.9999 98.4999 102.8 89.7999C108.2 96.5999 111.2 101.7 111.6 105C100.3 114.6 89.9999 120.1 80.9999 122.3C82.4999 127.6 83 132.9 81.9 138C79.6 148.6 51.0999 145.7 42.5999 149.5C32.8999 132.7 42 122.9 39.4 111.3C36.5 98.5999 42.2999 76.7999 43.7999 76.4999L57.4 73.3999C60.4 82.9999 66.5999 92.7999 72.0999 102.6Z" fill="#84D1EF"/>
</svg>
