<svg width="135" height="180" viewBox="0 0 135 180" fill="none" xmlns="http://www.w3.org/2000/svg">
<path d="M75.7001 79.2002L44.5001 131.3L21.1001 175.4H16.1001L55.3001 79.2002H75.7001Z" fill="#0A6EA5"/>
<path d="M24.2001 173.3C24.7001 174.6 24.9001 175.5 24.9001 176.1C24.9001 176.9 24.8001 178 24.5001 179.4C23.6001 179.4 15.7 179.4 0.800047 179.4C0.200047 177.4 0.500084 176.3 1.90008 176.1C3.20008 175.9 4.30007 175.8 5.20007 175.7L16.2001 170.8C16.4001 170.7 16.7 170.8 16.8 171L17.5001 172.7C18.7001 173.3 19.7001 173.6 20.5001 173.6C21.1001 173.6 22 173.3 23.1 172.8C23.5 172.7 24.0001 172.9 24.2001 173.3Z" fill="#5FB2D3"/>
<path d="M27.6001 168.3L17.9001 165.4C22.2001 152.7 27.4001 138.7 33.5001 123.4C39.7001 108.1 46.3001 93.4002 53.4001 79.2002H80.8001C72.9001 97.2002 64.6001 113.5 55.7001 128.2C47.0001 142.8 37.6001 156.2 27.6001 168.3Z" fill="#022035"/>
<path d="M77.7001 79.2001C80.6001 97.5001 86.3001 120.9 86.9001 121.7C87.3001 122.2 100.1 126.5 125.5 134.6L124.4 139C94.2001 134.6 78.2 131.3 76.6 128.8C74.2 125.2 62.0001 96.7001 57.2001 79.1001H77.7001V79.2001Z" fill="#0A6EA5"/>
<path d="M116.6 130.7L114.7 137.9C92.1 139.9 78.2 138.5 73.1 133.6C68 128.7 62.2001 110.6 55.7001 79.2002H81.9001C86.0001 104.9 88.3001 118.3 88.8001 119.4C89.2001 120.4 98.5 124.2 116.6 130.7Z" fill="#043054"/>
<path d="M124.212 132.681C125.492 132.455 126.494 132.38 127.12 132.473C127.861 132.647 128.933 132.966 130.335 133.429C130.178 134.269 128.804 142.026 126.213 156.698C124.127 156.965 123.119 156.432 123.189 155.099C123.259 153.767 123.265 152.649 123.306 151.728L120.434 140.049C120.399 139.852 120.561 139.62 120.758 139.586L122.612 139.157C123.423 137.999 123.875 137.107 123.951 136.383C124.043 135.757 123.986 134.853 123.679 133.689C123.511 133.312 123.719 132.768 124.212 132.681Z" fill="#5FB2D3"/>
<path d="M67.7002 33.1C69.8002 30.7 71.2001 27.7 71.0001 24.3C70.3001 14.6 56.8002 16.7 54.2002 21.6C51.6002 26.5 51.9001 38.9 55.3001 39.8C56.7001 40.1 59.5001 39.3 62.5001 37.5L60.7002 50.5H71.6001L67.7002 33.1Z" fill="#0A6EA5"/>
<path d="M52.5001 28.5C52.0001 30.2 50.8 31.4 50.8 33.2C51.5 33.5 52.5 34 53.3 34" fill="#0A6EA5"/>
<path d="M53.3 27.3C53.4 27 53.7001 26.7 54.0001 26.6C54.3001 26.5 54.7001 26.5 55.0001 26.5C55.3001 26.6 55.7001 26.7 55.9001 26.9C56.2001 27.1 56.4 27.5 56.3 27.8C56.1 27.5 55.9 27.3 55.6 27.2C55.3 27.1 55.1 27 54.8 26.9C54.4 27 53.8 27 53.3 27.3Z" fill="#043054"/>
<path d="M53.3 36.3C53.8 36.2 54.2 36.1 54.6 36C55 35.9 55.5001 35.7 56.0001 35.7H56.4001L56.2001 36.1C56.0001 36.5 55.8001 36.5 55.7001 36.7C55.5001 36.9 55.3 37 55.1 37.2L54.5001 37.6C54.3001 37.7 54.1 37.9 53.8 37.9C54 37.8 54.2 37.6 54.3 37.4L54.8 36.9L55.3 36.4C55.5 36.3 55.7001 36 55.7001 35.9L55.9001 36.2C55.1001 36.1 54.2 36.5 53.3 36.3Z" fill="#043054"/>
<path d="M54.1 28.9001C54.321 28.9001 54.5001 28.721 54.5001 28.5001C54.5001 28.2792 54.321 28.1001 54.1 28.1001C53.8791 28.1001 53.7001 28.2792 53.7001 28.5001C53.7001 28.721 53.8791 28.9001 54.1 28.9001Z" fill="#043054"/>
<path d="M60.4001 16C61.8001 15.8 65.7001 15.6 66.4001 15.6C66.9001 15.6 67.3 15.7 67.6 15.3C67.8 15 67.7001 14.4 67.8001 14C67.9001 13.5 68 13.1 68.1 12.6C68.4 11.3 68.9001 10.1 69.5001 8.89997C70.7001 6.69998 72.6001 4.99997 74.8001 4.09997C77.3001 2.99997 80.2001 2.79997 82.9001 2.99997C85.8001 3.19997 88.4 4.19997 91.2 5.09997C93.8 5.99997 96.6001 6.29997 99.3001 5.89997C102.1 5.49997 104.1 3.99997 106.5 2.59997C108.9 1.09997 111.6 0.199975 114.4 0.399975C117 0.599975 119.5 1.69997 121.6 3.09997C123.6 4.49997 125.3 6.09997 126.3 8.39997C127.3 10.9 127.3 13.6 125.6 15.8C123.2 19 118.7 19.8 114.9 19.7C112.7 19.7 110.6 19.3 108.5 18.5C105.8 17.5 103.4 15.9 100.8 14.6C99.6001 14 98.4 13.5 97.1 13.1C95.8 12.7 94.6001 12.6 93.5001 13.3C92.3001 14.1 91.2001 14.9 89.8001 15.4C88.5001 15.9 87.1001 16.2 85.7001 16.1C82.9001 16.1 80.2 15.2 77.6 14.6C75.4 14.1 73.1001 13.7 70.9001 14.1C70.0001 14.3 68.6001 14.7 68.3001 15.6C73.9001 16.6 76.1 23.6 74.6 28.7C73.7 31.5 68.6 34.7 66.6 33.2C65.3 32.3 66.1 31.1 66.6 30.3C67.6 28.8 67.9 26.8 66.1 25.8C64.6 24.9 63.0001 27.1 62.9001 27.1C62.5001 27.1 58.9001 25 56.4001 22C53.9001 22.1 53.6001 20.5 54.2001 19.2C54.7001 18 58.4001 16.3 60.4001 16Z" fill="#043054"/>
<path d="M35.9001 74.9L22.5001 69.6C16.7001 70.2 13.9001 70 14.1001 69.2C14.4001 67.9 16.1001 68.2 16.4001 67.4C16.7001 66.6 14.8001 64.9 13.0001 63.3C11.1001 61.8 12.4001 61.5 13.2001 61.5C16.0001 62.2 19.0001 63.4 22.3001 65.2L38.9001 67.5L35.9001 74.9ZM103 106C103.6 107.2 108.1 110.9 111.1 113C112.3 113.8 111.8 114.9 111.4 115.2C107.6 117.5 105.1 114.8 101.8 113.2C98.2002 111.5 98.5001 116.3 95.6001 115C96.5001 113 98.5001 109.4 97.6001 107C97.2001 105.9 91.9001 94.1 81.8001 71.4H91.0001C98.1001 92.7 102.1 104.3 103 106Z" fill="#0A6EA5"/>
<path d="M65.8002 42.2002L58.6002 42.7002C56.8002 58.7002 47.2002 68.9002 25.6002 65.4002L22.7002 86.0002C42.9002 88.6002 60.6002 80.5002 64.3002 58.6002C65.2002 53.0002 65.9002 47.1002 65.8002 42.2002Z" fill="#F45F0C"/>
<path d="M69.3001 40.1001L58.4001 42.6001C58.4001 61.4001 52.4001 73.3001 49.4001 87.1001H78.8001C79.2001 91.9001 79.5001 96.8001 79.6001 101.8H101.6C96.6001 75.2001 86.1001 54.6001 70.0001 40.1001H69.3001Z" fill="#F77B0B"/>
<path d="M74.2001 60.3C75.0001 72 74.5001 80.9001 72.9001 87.1001H78.9001C78.0001 77.7001 76.6001 68.7 74.2001 60.3Z" fill="black" fill-opacity="0.1"/>
</svg>
