<svg width="636" height="94" viewBox="0 0 636 94" fill="none" xmlns="http://www.w3.org/2000/svg">
<g clip-path="url(#clip0)">
<path d="M50.3062 22.4811C50.3062 22.4811 50.4398 22.5561 50.5585 22.616C50.9741 22.7771 51.4007 22.9073 51.8351 23.0057C53.4827 23.4703 55.1452 23.845 56.7929 24.2796H56.8968L60.7562 25.2987L62.7898 25.8383C64.0813 26.168 64.1109 26.3628 64.2742 25.8383C64.4375 25.3137 64.7641 24.4894 64.9719 23.8C65.8395 21.2799 67.1354 18.9317 68.8016 16.8609C69.6922 15.6769 69.7665 16.1715 68.0297 14.6578C67.0946 13.8485 66.1891 13.0092 65.2688 12.1849L59.732 7.23911C58.5445 6.17501 58.9156 6.08509 57.5351 7.80862C55.8024 10.019 54.3095 12.4107 53.082 14.9426C52.4498 16.2204 51.885 17.5312 51.3898 18.8692C50.8836 20.0239 50.5197 21.2369 50.3062 22.4811V22.4811Z" fill="#0B24FA"/>
<path d="M46.9809 33.7217C46.9809 33.8865 46.8918 34.0814 46.8324 34.2462C46.1496 36.3444 46.1941 36.2995 45.5559 38.4127C44.9176 40.5259 44.2496 42.6391 43.6707 44.7823C43.6707 45.037 43.1363 46.4309 43.0621 46.7006C42.4832 48.9337 42.1863 49.6981 41.5777 51.9911C40.9725 54.2859 40.5212 56.6192 40.2269 58.9752C39.9748 60.817 39.8755 62.6769 39.93 64.5355C39.9965 65.5434 40.1354 66.5452 40.3457 67.5329C40.6214 69.0285 41.1539 70.4639 41.9191 71.7743C44.0418 75.1764 47.5004 77.2746 50.7067 76.6901C51.6943 76.4801 52.6553 76.1583 53.5715 75.7309C52.7127 72.2649 52.4565 68.6745 52.8145 65.12C53.5003 58.402 54.9957 51.7937 57.2677 45.4417C57.4903 44.7373 59.613 38.8623 59.5833 38.8473L46.9809 33.7217Z" fill="#0B24FA"/>
<path d="M73.388 82.5797L70.8943 80.3016C70.6568 80.0768 70.4044 79.912 70.1669 79.7021C68.7651 81.2206 67.2783 82.6567 65.7138 84.0035C63.8648 85.4899 61.8761 86.79 59.7762 87.8852C57.645 88.9361 55.3755 89.673 53.0371 90.0733H52.7254C49.0524 90.6703 45.289 90.2986 41.8003 88.9942L45.5113 91.0775C49.9631 93.4846 55.0551 94.4079 60.0582 93.7152C64.6987 93.1325 69.0875 91.2593 72.7349 88.3048C73.9132 87.2699 75.0332 86.1691 76.0896 85.0076L73.388 82.5797Z" fill="#0B24FA"/>
<path d="M41.563 17.5797C41.563 17.5797 41.6966 17.6547 41.8153 17.7146C42.2309 17.8757 42.6576 18.0059 43.0919 18.1043C44.7396 18.5689 46.4021 18.9436 48.0498 19.3782H48.1537L52.0131 20.3973L54.0318 20.9818C55.3232 21.3116 55.3529 21.5064 55.5162 20.9818C55.6795 20.4573 56.0061 19.633 56.2139 18.9436C57.0814 16.4234 58.3774 14.0753 60.0436 12.0045C60.9342 10.8205 61.0084 11.3151 59.2717 9.80135C58.3366 8.99204 57.4311 8.15275 56.5108 7.32845L50.974 2.38266C49.7865 1.31857 50.1576 1.22865 48.7771 2.95218C47.0444 5.1626 45.5515 7.55425 44.3239 10.0861C43.6918 11.364 43.127 12.6747 42.6317 14.0128C42.1341 15.1538 41.7753 16.3515 41.563 17.5797V17.5797Z" fill="#13108E"/>
<path d="M61.0083 68.492L60.563 68.9866C58.928 70.7002 57.1336 72.2511 55.2044 73.6176C52.8887 75.1164 52.4434 76.1205 49.6528 75.521C43.1363 74.1272 43.1957 66.5287 43.7152 60.9534C44.345 55.3393 45.5793 49.8113 47.3965 44.4675C48.7028 40.1661 49.92 36.9738 51.2411 32.7175C51.2411 32.7175 40.0488 28.4011 38.9207 27.9365C38.9207 27.9365 36.1448 35.8948 35.9519 36.5992C34.9573 39.8364 33.9628 43.0587 33.1167 46.3409C32.2533 49.6345 31.5596 52.9712 31.0386 56.3374C30.5248 59.6642 30.2717 63.0268 30.2815 66.3938C30.3027 68.7513 30.4812 71.1046 30.8159 73.4378C31.5761 78.9286 34.4446 83.8972 38.8019 87.271C44.1457 91.3176 51.7161 91.1827 57.7427 88.7697C60.9294 87.4614 63.8789 85.628 66.4709 83.3444C67.7921 82.2057 69.0508 80.9949 70.2412 79.7175C70.731 79.2079 71.4881 78.5335 71.9631 77.934L61.0083 68.492Z" fill="#13108E"/>
<path d="M1.57369 53.3246C1.88541 53.6843 2.21198 54.029 2.53854 54.3737L11.7566 63.8756C12.3574 64.5647 13.0641 65.1517 13.8496 65.6141C14.2443 65.842 14.6872 65.9718 15.1415 65.9926C15.5958 66.0135 16.0485 65.9248 16.4621 65.734C16.8659 65.4829 17.1977 65.1295 17.4242 64.7088C17.6508 64.2881 17.7643 63.8148 17.7535 63.3361C17.7206 62.3775 17.4446 61.4435 16.9519 60.6234C15.0816 57.1613 11.6824 54.8533 9.36672 51.631C8.77617 50.9726 8.46679 50.1055 8.50577 49.2181C8.66371 48.5767 8.9922 47.9911 9.45578 47.5245C12.324 44.1208 15.5104 41.0041 18.9707 38.2174C19.9652 37.4231 21.0934 36.3291 20.7816 35.0851C20.6303 34.6526 20.3514 34.2772 19.9826 34.0093C19.6138 33.7414 19.1726 33.5938 18.7183 33.5864C15.4379 33.3466 11.7863 35.8345 9.58938 38.0826C8.10499 39.5813 6.82842 41.08 5.41825 42.5787C4.00809 44.0775 2.59792 44.9617 1.39557 46.4604C0.461885 47.4703 -0.0395164 48.8113 0.000243182 50.1923C0.185772 51.3773 0.736305 52.4733 1.57369 53.3246V53.3246Z" fill="#13108E"/>
<path d="M95.9653 46.3409C95.6535 45.9812 95.327 45.6365 95.0004 45.2918L85.7824 35.7899C85.1816 35.1008 84.4749 34.5138 83.6894 34.0514C83.2946 33.8235 82.8518 33.6938 82.3975 33.6729C81.9432 33.6521 81.4905 33.7407 81.0769 33.9315C80.673 34.1826 80.3413 34.5361 80.1147 34.9568C79.8882 35.3775 79.7746 35.8507 79.7855 36.3295C79.8263 37.2611 80.0967 38.1677 80.5722 38.9672C82.4425 42.4293 85.8417 44.7373 88.1574 47.9596C88.4596 48.2839 88.6952 48.6654 88.8506 49.0821C89.0061 49.4988 89.0782 49.9425 89.0629 50.3875C88.9049 51.0289 88.5764 51.6145 88.1129 52.0811C85.2288 55.5085 82.0224 58.6455 78.5386 61.4481C77.544 62.2424 76.4159 63.3365 76.7276 64.5804C76.879 65.0129 77.1578 65.3883 77.5266 65.6562C77.8955 65.9241 78.3366 66.0717 78.7909 66.0791C82.0714 66.3189 85.723 63.8311 87.9199 61.583C89.4043 60.0842 90.6809 58.5855 92.091 57.0868C93.5012 55.5881 95.0004 54.6589 96.1434 53.2051C97.0753 52.1891 97.5716 50.8422 97.5239 49.4583C97.3395 48.2803 96.7945 47.1902 95.9653 46.3409V46.3409Z" fill="#0B24FA"/>
<path d="M166.756 19.9932C164.915 20.5327 163.431 18.7642 163.372 16.9957C163.347 16.4702 163.476 15.949 163.743 15.497C164.458 14.5881 165.467 13.9621 166.593 13.7285C169.057 12.9492 171.447 11.93 174.015 11.2256C174.524 11.0084 175.072 10.8965 175.625 10.8965C176.178 10.8965 176.726 11.0084 177.236 11.2256C177.675 11.467 178.049 11.8129 178.326 12.2334C178.603 12.6539 178.774 13.1362 178.824 13.6386C179.062 15.9466 176.642 16.8009 174.89 17.3854C172.1 18.2247 169.443 19.1839 166.756 19.9932Z" fill="#13108E"/>
<path d="M315.521 20.8174C313.68 21.3569 312.196 19.5884 312.137 17.8199C312.112 17.2944 312.241 16.7732 312.508 16.3212C313.223 15.4123 314.232 14.7863 315.358 14.5527C317.822 13.7734 320.212 12.7542 322.78 12.0498C323.289 11.8326 323.837 11.7207 324.39 11.7207C324.944 11.7207 325.491 11.8326 326.001 12.0498C326.44 12.2912 326.814 12.6371 327.091 13.0576C327.368 13.4781 327.539 13.9605 327.589 14.4628C327.827 16.7708 325.407 17.6251 323.656 18.2096C320.88 19.0639 318.223 20.0231 315.521 20.8174Z" fill="#13108E"/>
<path d="M132.036 61.8526C131.754 64.6702 131.799 72.4785 129.067 73.6625C125.668 75.1612 123.501 73.3028 123.575 70.3953C123.758 63.5536 124.482 56.7376 125.742 50.0126C127.004 43.2534 127.954 36.0145 129.587 28.9406C131.22 21.8666 134.04 22.7808 140.096 25.5235C144.891 27.6667 146.687 33.3918 146.553 38.1577C146.712 41.1067 146.204 44.0536 145.069 46.7754C144.142 48.5441 142.994 50.186 141.655 51.6612C140.497 52.8003 139.859 53.4147 138.686 54.5238C135.97 56.9517 136.474 55.6179 139.532 61.4479C140.883 63.9957 143.585 67.7425 143.273 70.8749C143.021 73.4377 140.631 73.9772 138.671 73.1679C136.133 72.0888 133.758 65.1647 132.036 61.8526ZM135.658 32.9721C134.901 37.1836 134.055 43.673 133.283 47.8844C141.017 45.1268 140.809 34.4709 135.658 32.9721Z" fill="#13108E"/>
<path d="M166.801 31.4734C165.566 35.3843 164.832 39.4389 164.618 43.5381C164.262 48.364 167.29 45.5014 170.556 46.8803C172.916 47.8844 173.525 50.2074 170.868 51.916C167.172 54.284 164.529 50.8669 163.683 56.3222C163.283 58.8701 162.407 65.1647 164.233 67.0681C166.058 68.9715 171.343 66.4236 173.243 68.9415C177.696 74.8465 162.006 74.3519 159.675 73.093C153.946 69.9756 155.356 60.6385 155.712 54.7186C156.304 46.7589 157.45 38.8511 159.141 31.0537C159.928 27.202 160.937 25.4635 165.079 24.849C168.047 24.3994 173.109 23.68 175.915 24.5193C177.963 25.1338 180.101 27.5167 177.993 29.7349C175.885 31.953 169.517 30.8139 166.801 31.4734Z" fill="#13108E"/>
<path d="M196.919 44.7068C199.056 44.8866 202.53 44.7817 203.465 46.76C204.712 49.3978 201.283 50.4319 199.012 50.8516C197.275 51.1663 196.043 50.4769 195.598 51.2262C195.146 52.818 194.882 54.4579 194.811 56.1121C194.366 59.4692 193.95 62.8114 193.727 66.1685C193.564 68.6714 194.202 72.628 190.877 73.887C182.283 77.1242 186.32 59.724 186.691 56.6067C187.493 50.0123 188.482 43.4479 189.66 36.9134C190.18 34.1108 190.447 31.1883 191.144 28.4456C191.336 27.3955 191.864 26.4379 192.647 25.7203C193.43 25.0027 194.425 24.5648 195.479 24.474C199.464 24.0444 203.487 24.1048 207.458 24.6539C209.67 24.9086 213.262 25.5231 212.698 28.2208C211.985 31.6229 207.042 30.7986 204.623 30.7687C201.194 30.7687 199.784 30.4239 198.848 33.7661C197.883 37.3475 197.237 41.009 196.919 44.7068V44.7068Z" fill="#13108E"/>
<path d="M463.129 44.017C465.251 44.1968 468.695 44.0919 469.615 46.0852C470.847 48.753 467.448 49.7871 465.162 50.2067C463.44 50.5214 462.193 49.832 461.778 50.5814C461.333 52.1844 461.074 53.834 461.006 55.4972C460.575 58.8843 460.145 62.2565 459.937 65.6286C459.774 68.1465 460.412 72.1331 457.102 73.392C448.582 76.6592 452.649 59.1241 452.946 55.9918C453.737 49.3574 454.727 42.7431 455.914 36.1487C456.434 33.3311 456.701 30.3786 457.399 27.6209C457.581 26.5688 458.101 25.6065 458.879 24.8831C459.657 24.1597 460.65 23.7155 461.704 23.6193C465.654 23.186 469.643 23.2464 473.579 23.7992C475.776 24.054 479.323 24.6684 478.774 27.3961C478.062 30.8282 473.178 30.0039 470.773 29.9589C467.374 29.9589 465.979 29.6142 465.058 32.9564C464.093 36.5785 463.447 40.2798 463.129 44.017V44.017Z" fill="#E8140F"/>
<path d="M226.25 62.7215C228.195 63.5608 229.917 63.0063 231.104 56.9814C232.025 52.2754 233.865 38.1424 234.756 33.4215C235.32 30.424 235.335 25.6431 238.422 24.6389C239.497 24.4374 240.607 24.6745 241.508 25.2983C242.41 25.922 243.03 26.8815 243.232 27.9661C243.543 30.6188 241.747 42.0241 241.346 44.9766C240.782 48.7684 239.298 57.491 238.378 61.2378C236.893 66.9779 232.44 74.1568 225.924 74.1568C213.677 74.1568 217.121 40.0158 219.496 31.0385C220.09 28.7904 220.788 25.0436 223.163 24.3092C225.79 23.5299 227.423 26.1676 227.408 28.5656C227.319 36.5988 222.762 61.2378 226.25 62.7215Z" fill="#13108E"/>
<path d="M261.252 65.8538C263.449 65.5241 265.23 62.3767 266.106 60.4584C266.516 59.6503 266.739 58.7586 266.759 57.8506C266.771 57.271 266.592 56.7036 266.251 56.2372C265.91 55.7708 265.426 55.4317 264.874 55.2728C264.063 55.1279 263.29 54.8168 262.602 54.3586C262.179 53.9093 261.925 53.3245 261.884 52.7057C261.844 52.0869 262.019 51.4733 262.38 50.9715C263.119 49.9947 264.166 49.302 265.349 49.0081C267.791 48.2942 270.399 48.41 272.77 49.3378C273.512 49.5795 274.198 49.9694 274.787 50.4844C275.376 50.9994 275.856 51.6288 276.199 52.3353C276.59 53.5893 276.626 54.9285 276.303 56.202C275.383 61.4176 273.335 66.6931 269.312 70.0952C265.289 73.4973 259.277 74.8911 254.705 72.2833C244.018 66.1985 250.579 49.7125 254.364 41.3946C256.631 36.1165 260.081 31.4424 264.443 27.7412C266.433 25.9998 268.837 24.8118 271.42 24.2942C272.561 24.0789 273.735 24.1007 274.868 24.3584C276.001 24.6161 277.07 25.1042 278.01 25.7929C278.4 26.0461 278.718 26.3979 278.931 26.8133C279.145 27.2287 279.247 27.6933 279.228 28.1609C279.049 29.195 277.966 29.7795 277.001 30.1692C275.517 30.7836 273.854 31.2782 272.355 32.0126C268.712 33.9601 265.703 36.9259 263.686 40.5553C261.623 43.9935 259.889 47.6217 258.506 51.3911C257.786 53.3866 257.245 55.4431 256.888 57.5359C256.472 59.9788 256.635 63.0512 258.565 64.8496C258.898 65.2248 259.317 65.5123 259.785 65.6872C260.253 65.8622 260.757 65.9193 261.252 65.8538Z" fill="#13108E"/>
<path d="M290.806 70.9795C290.183 73.1077 289.01 74.8163 286.234 74.2467C283.087 73.6023 283.132 70.1402 283.562 67.5624C285.047 58.4352 286.724 49.3379 288.357 40.2257C288.743 38.0525 289.351 34.9502 290.91 33.3166C291.405 32.8708 292.008 32.5647 292.657 32.4293C293.307 32.2938 293.98 32.3338 294.61 32.5451C295.239 32.7564 295.802 33.1316 296.242 33.6328C296.682 34.134 296.983 34.7435 297.115 35.3998C297.456 37.8127 296.239 40.975 295.809 43.373L294.072 53.0548L291.593 66.8131C291.403 68.2148 291.141 69.6056 290.806 70.9795V70.9795Z" fill="#13108E"/>
<path d="M344.125 56.4717C344.125 56.2919 344.125 56.112 344.125 55.9322C344.125 53.0546 342.106 50.6417 340.488 48.4386C339.415 47.208 338.633 45.7461 338.203 44.1644C337.774 42.5827 337.708 40.9228 338.01 39.3113C338.647 36.7373 339.805 34.3239 341.409 32.2224C344.096 28.4006 347.688 25.1634 352.393 24.429C354.768 24.0543 361.3 23.4099 359.978 27.7112C359.355 29.7045 356.906 30.2141 355.288 31.1133C352.983 32.2852 350.891 33.8407 349.098 35.7144C347.982 36.8505 347.166 38.2512 346.725 39.7882C346.284 41.3253 346.232 42.9494 346.574 44.5119C347.495 47.6742 350.36 49.6825 351.814 52.56C352.519 54.1438 352.849 55.8712 352.78 57.6059C352.71 59.3407 352.242 61.0354 351.414 62.5565C349.995 65.2293 348.115 67.6249 345.862 69.6305C342.299 72.9877 335.842 75.5055 330.944 74.3065C330.354 74.2475 329.797 74.0021 329.353 73.6053C328.909 73.2086 328.6 72.6806 328.47 72.0964C328.34 71.5123 328.396 70.9016 328.63 70.3513C328.863 69.801 329.263 69.339 329.771 69.031C330.649 68.4155 331.615 67.9403 332.636 67.6222C335.507 66.6695 338.171 65.1742 340.488 63.216C342.459 61.4777 343.748 59.0857 344.125 56.4717V56.4717Z" fill="#13108E"/>
<path d="M423.05 52.8148C422.384 55.5383 421.888 58.3014 421.566 61.0878C421.076 63.7255 420.586 66.3633 420.081 69.016C419.577 71.6688 417.543 75.0109 414.322 73.4073C409.869 71.2641 413.446 61.8521 414.099 58.0304C415.227 51.421 416.637 44.8716 418.404 38.4121C419.473 34.5004 422.159 29.7944 424.727 34.0958C426.398 36.7984 427.824 39.6475 428.988 42.6085C430.131 45.606 430.932 48.9181 431.956 51.9605C431.956 51.8706 432.817 47.3595 432.877 47.0747C433.545 43.4328 433.663 42.8933 434.153 39.3263C434.643 35.7593 435.281 32.2823 435.979 28.8352C436.365 26.8419 436.929 23.7096 439.378 23.3799C440.141 23.3617 440.888 23.6009 441.501 24.0596C442.114 24.5184 442.558 25.1705 442.763 25.9127C443.109 27.4164 443.109 28.9801 442.763 30.4838C441.278 41.1997 439.794 51.9156 437.953 62.5715C437.844 64.2605 437.228 65.8759 436.187 67.2026C431.852 71.5639 425.366 57.7606 424.015 54.913C423.659 54.2086 423.347 53.5192 423.05 52.8148Z" fill="#E8140F"/>
<path d="M509.887 43.3283C509.006 49.3917 507.462 55.3379 505.285 61.0582C503.519 65.2396 500.001 71.7441 495.147 73.048C482.232 76.6299 481.535 58.8701 482.396 50.8369C483.023 44.9229 484.333 39.1033 486.3 33.4967C488.526 27.262 491.243 24.5043 497.655 23.4402C499.738 23.02 501.896 23.1896 503.889 23.9302C505.883 24.6708 507.635 25.9535 508.951 27.6366C511.104 30.739 510.762 35.0403 510.436 38.6673C510.334 40.2296 510.151 41.7855 509.887 43.3283V43.3283ZM492.326 63.9208C495.295 65.4195 499.422 54.4938 500.669 46.7454C501.262 43.0435 504.068 31.953 499.333 30.754C491.465 28.7757 488.363 63.5611 492.326 63.9208Z" fill="#E8140F"/>
<path d="M315.625 31.9078C314.419 35.7984 313.701 39.8264 313.488 43.8976C313.146 48.7085 316.085 45.8459 319.247 47.2247C321.548 48.2289 322.216 50.5519 319.544 52.2455C315.937 54.5985 313.354 51.2114 312.538 56.6367C312.152 59.1846 311.291 65.4342 313.072 67.3376C314.853 69.241 320.019 66.6932 321.859 69.196C326.194 75.071 310.89 74.5915 308.619 73.3325C303.023 70.2302 304.403 60.9231 304.744 55.0181C305.326 47.1013 306.446 39.2343 308.099 31.4732C308.871 27.6364 309.851 25.9129 313.903 25.2984C316.872 24.8488 321.741 24.1444 324.487 24.9687C326.476 25.5682 328.569 27.9661 326.52 30.1693C324.472 32.3724 318.282 31.2184 315.625 31.9078Z" fill="#13108E"/>
<path d="M297.427 28.7758C296.649 29.1021 295.798 29.2102 294.965 29.0889C294.132 28.9675 293.346 28.6212 292.691 28.0864C291.979 27.4985 291.487 26.6825 291.296 25.7736C291.106 24.8647 291.229 23.9174 291.644 23.0886C292.06 22.2598 292.744 21.5991 293.582 21.2161C294.42 20.8331 295.363 20.7507 296.254 20.9824C297.342 21.2517 298.297 21.9105 298.942 22.8365C299.586 23.7625 299.875 24.8929 299.757 26.0182C299.65 26.6467 299.377 27.2345 298.966 27.7198C298.556 28.205 298.024 28.5698 297.427 28.7758V28.7758Z" fill="#13108E"/>
<path d="M397.919 70.4404C397.296 72.5686 396.123 74.2772 393.347 73.7077C390.201 73.0632 390.245 69.6012 390.676 67.0234C392.16 57.8961 393.837 48.7989 395.47 39.6866C395.856 37.5135 396.465 34.4111 398.023 32.7775C398.518 32.3317 399.121 32.0257 399.77 31.8902C400.42 31.7548 401.093 31.7947 401.723 32.006C402.352 32.2173 402.915 32.5925 403.355 33.0937C403.795 33.595 404.096 34.2045 404.228 34.8607C404.569 37.2737 403.352 40.436 402.922 42.8339L401.17 52.4558L398.706 66.244C398.517 67.6559 398.255 69.0566 397.919 70.4404V70.4404Z" fill="#E8140F"/>
<path d="M404.54 28.2062C403.762 28.5324 402.912 28.6406 402.078 28.5193C401.245 28.3979 400.459 28.0516 399.805 27.5168C399.121 26.9218 398.655 26.1126 398.48 25.2186C398.305 24.3245 398.432 23.3971 398.84 22.5844C399.249 21.7717 399.915 21.1207 400.733 20.7352C401.551 20.3497 402.473 20.252 403.352 20.4578C404.441 20.7237 405.397 21.3789 406.044 22.302C406.691 23.2251 406.984 24.3536 406.87 25.4785C406.758 26.1017 406.483 26.6832 406.073 27.1628C405.663 27.6424 405.134 28.0026 404.54 28.2062V28.2062Z" fill="#E8140F"/>
<path d="M374.347 72.9872C373.079 73.5166 371.693 73.6915 370.335 73.4937C368.977 73.296 367.697 72.7327 366.629 71.8632C365.517 70.8898 364.76 69.5688 364.478 68.1106C364.196 66.6524 364.406 65.1409 365.073 63.8169C365.741 62.4929 366.828 61.4326 368.162 60.8048C369.496 60.1771 370.999 60.018 372.433 60.353C374.213 60.7895 375.777 61.8648 376.831 63.3785C377.885 64.8922 378.358 66.7411 378.162 68.581C377.972 69.5915 377.518 70.5326 376.847 71.3071C376.177 72.0816 375.314 72.6616 374.347 72.9872V72.9872Z" fill="#E8140F"/>
<path d="M526.438 42.7436V0H531.885V18.3594C532.856 16.7809 534.229 15.4956 535.862 14.6385C537.494 13.7814 539.326 13.3841 541.163 13.4885C549.698 13.4885 554.092 20.0979 554.092 28.3559C554.092 36.6138 549.356 43.463 540.999 43.463C539.18 43.5596 537.37 43.1544 535.762 42.2911C534.153 41.4277 532.808 40.1387 531.87 38.5622V42.6987L526.438 42.7436ZM540.183 18.4193C535.329 18.4193 531.811 22.2561 531.811 28.4008C531.811 34.5456 535.314 38.5622 540.183 38.5622C545.052 38.5622 548.481 34.5456 548.481 28.4008C548.481 22.2561 545.26 18.4193 540.183 18.4193V18.4193Z" fill="black"/>
<path d="M585.62 34.6503C584.782 37.3402 583.092 39.6775 580.809 41.3023C578.527 42.9272 575.779 43.7495 572.988 43.6426C565.447 43.6426 558.842 38.0973 558.842 28.4755C558.842 19.5581 565.21 13.4883 572.29 13.4883C580.944 13.4883 585.798 19.4832 585.798 28.3706C585.799 28.9622 585.759 29.5531 585.679 30.1391H564.527C564.507 31.2673 564.711 32.3881 565.128 33.4352C565.545 34.4822 566.165 35.4343 566.953 36.235C567.74 37.0357 568.679 37.6688 569.713 38.0968C570.747 38.5248 571.856 38.739 572.973 38.7268C574.751 38.8484 576.515 38.3401 577.962 37.2897C579.409 36.2392 580.448 34.7122 580.9 32.9717L585.62 34.6503ZM580.068 25.6579C579.95 21.5814 577.322 18.4041 572.35 18.4041C570.391 18.3745 568.497 19.1145 567.068 20.4678C565.639 21.8212 564.786 23.6821 564.69 25.6579H580.068Z" fill="black"/>
<path d="M600.197 14.3426H606.283V19.3633H600.197V34.1258C600.197 36.7186 601.251 38.0224 604.115 38.0224C604.844 38.0143 605.57 37.934 606.283 37.7826V42.5036C605.071 42.8754 603.808 43.0524 602.542 43.0282C597.747 43.0282 594.704 40.0307 594.704 34.9351V19.3633H589.301V14.3426H590.786C591.378 14.4259 591.982 14.3716 592.55 14.184C593.119 13.9963 593.637 13.6802 594.067 13.2597C594.496 12.8392 594.825 12.3253 595.028 11.7572C595.231 11.1891 595.303 10.5818 595.239 9.98131V5.36523H600.271L600.197 14.3426Z" fill="black"/>
<path d="M620.385 26.4972L627.985 25.3732C629.677 25.1334 630.152 24.2491 630.152 23.245C630.152 20.4723 628.341 18.1643 624.066 18.1643C623.265 18.1053 622.462 18.2106 621.703 18.4741C620.944 18.7375 620.246 19.1536 619.65 19.6971C619.055 20.2406 618.575 20.9003 618.24 21.6363C617.904 22.3723 617.72 23.1694 617.698 23.9794L612.443 22.7354C613.052 17.2351 617.876 13.4883 623.947 13.4883C632.364 13.4883 635.644 18.3292 635.644 23.8744V38.0973C635.625 39.658 635.739 41.2175 635.985 42.7584H630.612C630.397 41.4913 630.298 40.207 630.315 38.9216C629.344 40.4403 627.995 41.6753 626.404 42.5037C624.813 43.332 623.034 43.7247 621.245 43.6426C615.516 43.6426 611.834 39.626 611.834 35.1449C611.849 29.9743 615.531 27.2166 620.385 26.4972ZM630.152 30.5737V29.2699L621.557 30.5737C619.212 30.9334 617.46 32.2823 617.46 34.8301C617.481 35.4017 617.615 35.9634 617.853 36.4823C618.091 37.0012 618.43 37.4668 618.849 37.852C619.268 38.2372 619.758 38.5341 620.292 38.7255C620.826 38.9169 621.392 38.9989 621.958 38.9666C626.53 38.9666 630.152 36.7785 630.152 30.5737Z" fill="black"/>
</g>
<defs>
<clipPath id="clip0">
<rect width="636" height="94" fill="white"/>
</clipPath>
</defs>
</svg>
