<svg width="513" height="75" viewBox="0 0 513 75" fill="none" xmlns="http://www.w3.org/2000/svg">
<path d="M43.756 19.9932C41.9154 20.5327 40.431 18.7642 40.3716 16.9957C40.3471 16.4702 40.4761 15.949 40.7427 15.497C41.4577 14.5881 42.4666 13.9621 43.5927 13.7285C46.0568 12.9492 48.4467 11.93 51.0146 11.2256C51.5243 11.0084 52.072 10.8965 52.6252 10.8965C53.1784 10.8965 53.7261 11.0084 54.2358 11.2256C54.675 11.467 55.0492 11.8129 55.326 12.2334C55.6028 12.6539 55.7738 13.1362 55.8241 13.6386C56.0616 15.9466 53.642 16.8009 51.8904 17.3854C49.0998 18.2247 46.4427 19.1839 43.756 19.9932Z" fill="#13108E"/>
<path d="M192.521 20.8174C190.68 21.3569 189.196 19.5884 189.137 17.8199C189.112 17.2944 189.241 16.7732 189.508 16.3212C190.223 15.4123 191.232 14.7863 192.358 14.5527C194.822 13.7734 197.212 12.7542 199.78 12.0498C200.289 11.8326 200.837 11.7207 201.39 11.7207C201.944 11.7207 202.491 11.8326 203.001 12.0498C203.44 12.2912 203.814 12.6371 204.091 13.0576C204.368 13.4781 204.539 13.9605 204.589 14.4628C204.827 16.7708 202.407 17.6251 200.656 18.2096C197.88 19.0639 195.223 20.0231 192.521 20.8174Z" fill="#13108E"/>
<path d="M9.03609 61.8526C8.75405 64.6702 8.79858 72.4785 6.06731 73.6625C2.66807 75.1612 0.500871 73.3028 0.57509 70.3953C0.757585 63.5536 1.4823 56.7376 2.74229 50.0126C4.00402 43.2534 4.95403 36.0145 6.58686 28.9406C8.21968 21.8666 11.04 22.7808 17.0963 25.5235C21.8909 27.6667 23.687 33.3918 23.5534 38.1577C23.7119 41.1067 23.2043 44.0536 22.069 46.7754C21.1417 48.5441 19.9943 50.186 18.6549 51.6612C17.4971 52.8003 16.8588 53.4147 15.6861 54.5238C12.9697 56.9517 13.4744 55.6179 16.5322 61.4479C17.883 63.9957 20.5846 67.7425 20.2729 70.8749C20.0205 73.4377 17.6307 73.9772 15.6713 73.1679C13.133 72.0888 10.758 65.1647 9.03609 61.8526ZM12.658 32.9721C11.901 37.1836 11.0549 43.673 10.283 47.8844C18.0166 45.1268 17.8088 34.4709 12.658 32.9721Z" fill="#13108E"/>
<path d="M43.8005 31.4734C42.5657 35.3843 41.8324 39.4389 41.6185 43.5381C41.2622 48.364 44.2904 45.5014 47.556 46.8803C49.9162 47.8844 50.5248 50.2074 47.8677 51.916C44.1716 54.284 41.5294 50.8669 40.6833 56.3222C40.2825 58.8701 39.4067 65.1647 41.2325 67.0681C43.0583 68.9715 48.3427 66.4236 50.2427 68.9415C54.6959 74.8465 39.0059 74.3519 36.6755 73.093C30.9457 69.9756 32.3559 60.6385 32.7121 54.7186C33.304 46.7589 34.4498 38.8511 36.1411 31.0537C36.9278 27.202 37.9372 25.4635 42.0786 24.849C45.0474 24.3994 50.1091 23.68 52.9146 24.5193C54.9631 25.1338 57.1006 27.5167 54.9928 29.7349C52.8849 31.953 46.5169 30.8139 43.8005 31.4734Z" fill="#13108E"/>
<path d="M73.9187 44.7068C76.0562 44.8866 79.5297 44.7817 80.4648 46.76C81.7117 49.3978 78.2828 50.4319 76.0117 50.8516C74.2749 51.1663 73.0429 50.4769 72.5976 51.2262C72.1461 52.818 71.8821 54.4579 71.8109 56.1121C71.3655 59.4692 70.9499 62.8114 70.7272 66.1685C70.564 68.6714 71.2023 72.628 67.8772 73.887C59.2826 77.1242 63.3202 59.724 63.6913 56.6067C64.4928 50.0123 65.4824 43.4479 66.66 36.9134C67.1796 34.1108 67.4468 31.1883 68.1444 28.4456C68.3358 27.3955 68.8638 26.4379 69.6469 25.7203C70.4301 25.0027 71.4251 24.5648 72.4788 24.474C76.4643 24.0444 80.4867 24.1048 84.4578 24.6539C86.6696 24.9086 90.2618 25.5231 89.6977 28.2208C88.9852 31.6229 84.0422 30.7986 81.6227 30.7687C78.1937 30.7687 76.7836 30.4239 75.8484 33.7661C74.8829 37.3475 74.2371 41.009 73.9187 44.7068V44.7068Z" fill="#13108E"/>
<path d="M340.129 44.017C342.251 44.1968 345.695 44.0919 346.615 46.0852C347.847 48.753 344.448 49.7871 342.162 50.2067C340.44 50.5214 339.193 49.832 338.778 50.5814C338.333 52.1844 338.074 53.834 338.006 55.4972C337.575 58.8843 337.145 62.2565 336.937 65.6286C336.774 68.1465 337.412 72.1331 334.102 73.392C325.582 76.6592 329.649 59.1241 329.946 55.9918C330.737 49.3574 331.727 42.7431 332.914 36.1487C333.434 33.3311 333.701 30.3786 334.399 27.6209C334.581 26.5688 335.101 25.6065 335.879 24.8831C336.657 24.1597 337.65 23.7155 338.704 23.6193C342.654 23.186 346.643 23.2464 350.579 23.7992C352.776 24.054 356.323 24.6684 355.774 27.3961C355.062 30.8282 350.178 30.0039 347.773 29.9589C344.374 29.9589 342.979 29.6142 342.058 32.9564C341.093 36.5785 340.447 40.2798 340.129 44.017V44.017Z" fill="#E8140F"/>
<path d="M103.25 62.7215C105.195 63.5608 106.917 63.0063 108.104 56.9814C109.025 52.2754 110.865 38.1424 111.756 33.4215C112.32 30.424 112.335 25.6431 115.422 24.6389C116.497 24.4374 117.607 24.6745 118.508 25.2983C119.41 25.922 120.03 26.8815 120.232 27.9661C120.543 30.6188 118.747 42.0241 118.346 44.9766C117.782 48.7684 116.298 57.491 115.378 61.2378C113.893 66.9779 109.44 74.1568 102.924 74.1568C90.6775 74.1568 94.1212 40.0158 96.4963 31.0385C97.09 28.7904 97.7877 25.0436 100.163 24.3092C102.79 23.5299 104.423 26.1676 104.408 28.5656C104.319 36.5988 99.7619 61.2378 103.25 62.7215Z" fill="#13108E"/>
<path d="M138.252 65.8538C140.449 65.5241 142.23 62.3767 143.106 60.4584C143.516 59.6503 143.739 58.7586 143.759 57.8506C143.771 57.271 143.592 56.7036 143.251 56.2372C142.91 55.7708 142.426 55.4317 141.874 55.2728C141.063 55.1279 140.29 54.8168 139.602 54.3586C139.179 53.9093 138.925 53.3245 138.884 52.7057C138.844 52.0869 139.019 51.4733 139.38 50.9715C140.119 49.9947 141.166 49.302 142.349 49.0081C144.791 48.2942 147.399 48.41 149.77 49.3378C150.512 49.5795 151.198 49.9694 151.787 50.4844C152.376 50.9994 152.856 51.6288 153.199 52.3353C153.59 53.5893 153.626 54.9285 153.303 56.202C152.383 61.4176 150.335 66.6931 146.312 70.0952C142.289 73.4973 136.277 74.8911 131.705 72.2833C121.018 66.1985 127.579 49.7125 131.364 41.3946C133.631 36.1165 137.081 31.4424 141.443 27.7412C143.433 25.9998 145.837 24.8118 148.42 24.2942C149.561 24.0789 150.735 24.1007 151.868 24.3584C153.001 24.6161 154.07 25.1042 155.01 25.7929C155.4 26.0461 155.718 26.3979 155.931 26.8133C156.145 27.2287 156.247 27.6933 156.228 28.1609C156.049 29.195 154.966 29.7795 154.001 30.1692C152.517 30.7836 150.854 31.2782 149.355 32.0126C145.712 33.9601 142.703 36.9259 140.686 40.5553C138.623 43.9935 136.889 47.6217 135.506 51.3911C134.786 53.3866 134.245 55.4431 133.888 57.5359C133.472 59.9788 133.635 63.0512 135.565 64.8496C135.898 65.2248 136.317 65.5123 136.785 65.6872C137.253 65.8622 137.757 65.9193 138.252 65.8538Z" fill="#13108E"/>
<path d="M167.806 70.9795C167.183 73.1077 166.01 74.8163 163.234 74.2467C160.087 73.6023 160.132 70.1402 160.562 67.5624C162.047 58.4352 163.724 49.3379 165.357 40.2257C165.743 38.0525 166.351 34.9502 167.91 33.3166C168.405 32.8708 169.008 32.5647 169.657 32.4293C170.307 32.2938 170.98 32.3338 171.61 32.5451C172.239 32.7564 172.802 33.1316 173.242 33.6328C173.682 34.134 173.983 34.7435 174.115 35.3998C174.456 37.8127 173.239 40.975 172.809 43.373L171.072 53.0548L168.593 66.8131C168.403 68.2148 168.141 69.6056 167.806 70.9795V70.9795Z" fill="#13108E"/>
<path d="M221.125 56.4717C221.125 56.2919 221.125 56.112 221.125 55.9322C221.125 53.0546 219.106 50.6417 217.488 48.4386C216.415 47.208 215.633 45.7461 215.203 44.1644C214.774 42.5827 214.708 40.9228 215.01 39.3113C215.647 36.7373 216.805 34.3239 218.409 32.2224C221.096 28.4006 224.688 25.1634 229.393 24.429C231.768 24.0543 238.3 23.4099 236.978 27.7112C236.355 29.7045 233.906 30.2141 232.288 31.1133C229.983 32.2852 227.891 33.8407 226.098 35.7144C224.982 36.8505 224.166 38.2512 223.725 39.7882C223.284 41.3253 223.232 42.9494 223.574 44.5119C224.495 47.6742 227.36 49.6825 228.814 52.56C229.519 54.1438 229.849 55.8712 229.78 57.6059C229.71 59.3407 229.242 61.0354 228.414 62.5565C226.995 65.2293 225.115 67.6249 222.862 69.6305C219.299 72.9877 212.842 75.5055 207.944 74.3065C207.354 74.2475 206.797 74.0021 206.353 73.6053C205.909 73.2086 205.6 72.6806 205.47 72.0964C205.34 71.5123 205.396 70.9016 205.63 70.3513C205.863 69.801 206.263 69.339 206.771 69.031C207.649 68.4155 208.615 67.9403 209.636 67.6222C212.507 66.6695 215.171 65.1742 217.488 63.216C219.459 61.4777 220.748 59.0857 221.125 56.4717V56.4717Z" fill="#13108E"/>
<path d="M300.05 52.8148C299.384 55.5383 298.888 58.3014 298.566 61.0878C298.076 63.7255 297.586 66.3633 297.081 69.016C296.577 71.6688 294.543 75.0109 291.322 73.4073C286.869 71.2641 290.446 61.8521 291.099 58.0304C292.227 51.421 293.637 44.8716 295.404 38.4121C296.473 34.5004 299.159 29.7944 301.727 34.0958C303.398 36.7984 304.824 39.6475 305.988 42.6085C307.131 45.606 307.932 48.9181 308.956 51.9605C308.956 51.8706 309.817 47.3595 309.877 47.0747C310.545 43.4328 310.663 42.8933 311.153 39.3263C311.643 35.7593 312.281 32.2823 312.979 28.8352C313.365 26.8419 313.929 23.7096 316.378 23.3799C317.141 23.3617 317.888 23.6009 318.501 24.0596C319.114 24.5184 319.558 25.1705 319.763 25.9127C320.109 27.4164 320.109 28.9801 319.763 30.4838C318.278 41.1997 316.794 51.9156 314.953 62.5715C314.844 64.2605 314.228 65.8759 313.187 67.2026C308.852 71.5639 302.366 57.7606 301.015 54.913C300.659 54.2086 300.347 53.5192 300.05 52.8148Z" fill="#E8140F"/>
<path d="M386.887 43.3283C386.006 49.3917 384.462 55.3379 382.285 61.0582C380.519 65.2396 377.001 71.7441 372.147 73.048C359.232 76.6299 358.535 58.8701 359.396 50.8369C360.023 44.9229 361.333 39.1033 363.3 33.4967C365.526 27.262 368.243 24.5043 374.655 23.4402C376.738 23.02 378.896 23.1896 380.889 23.9302C382.883 24.6708 384.635 25.9535 385.951 27.6366C388.104 30.739 387.762 35.0403 387.436 38.6673C387.334 40.2296 387.151 41.7855 386.887 43.3283V43.3283ZM369.326 63.9208C372.295 65.4195 376.422 54.4938 377.669 46.7454C378.262 43.0435 381.068 31.953 376.333 30.754C368.465 28.7757 365.363 63.5611 369.326 63.9208Z" fill="#E8140F"/>
<path d="M192.625 31.9078C191.419 35.7984 190.701 39.8264 190.488 43.8976C190.146 48.7085 193.085 45.8459 196.247 47.2247C198.548 48.2289 199.216 50.5519 196.544 52.2455C192.937 54.5985 190.354 51.2114 189.538 56.6367C189.152 59.1846 188.291 65.4342 190.072 67.3376C191.853 69.241 197.019 66.6932 198.859 69.196C203.194 75.071 187.89 74.5915 185.619 73.3325C180.023 70.2302 181.403 60.9231 181.744 55.0181C182.326 47.1013 183.446 39.2343 185.099 31.4732C185.871 27.6364 186.851 25.9129 190.903 25.2984C193.872 24.8488 198.741 24.1444 201.487 24.9687C203.476 25.5682 205.569 27.9661 203.52 30.1693C201.472 32.3724 195.282 31.2184 192.625 31.9078Z" fill="#13108E"/>
<path d="M174.427 28.7758C173.649 29.1021 172.798 29.2102 171.965 29.0889C171.132 28.9675 170.346 28.6212 169.691 28.0864C168.979 27.4985 168.487 26.6825 168.296 25.7736C168.106 24.8647 168.229 23.9174 168.644 23.0886C169.06 22.2598 169.744 21.5991 170.582 21.2161C171.42 20.8331 172.363 20.7507 173.254 20.9824C174.342 21.2517 175.297 21.9105 175.942 22.8365C176.586 23.7625 176.875 24.8929 176.757 26.0182C176.65 26.6467 176.377 27.2345 175.966 27.7198C175.556 28.205 175.024 28.5698 174.427 28.7758V28.7758Z" fill="#13108E"/>
<path d="M274.919 70.4404C274.296 72.5686 273.123 74.2772 270.347 73.7077C267.201 73.0632 267.245 69.6012 267.676 67.0234C269.16 57.8961 270.837 48.7989 272.47 39.6866C272.856 37.5135 273.465 34.4111 275.023 32.7775C275.518 32.3317 276.121 32.0257 276.77 31.8902C277.42 31.7548 278.093 31.7947 278.723 32.006C279.352 32.2173 279.915 32.5925 280.355 33.0937C280.795 33.595 281.096 34.2045 281.228 34.8607C281.569 37.2737 280.352 40.436 279.922 42.8339L278.17 52.4558L275.706 66.244C275.517 67.6559 275.255 69.0566 274.919 70.4404V70.4404Z" fill="#E8140F"/>
<path d="M281.54 28.2062C280.762 28.5324 279.912 28.6406 279.078 28.5193C278.245 28.3979 277.459 28.0516 276.805 27.5168C276.121 26.9218 275.655 26.1126 275.48 25.2186C275.305 24.3245 275.432 23.3971 275.84 22.5844C276.249 21.7717 276.915 21.1207 277.733 20.7352C278.551 20.3497 279.473 20.252 280.352 20.4578C281.441 20.7237 282.397 21.3789 283.044 22.302C283.691 23.2251 283.984 24.3536 283.87 25.4785C283.758 26.1017 283.483 26.6832 283.073 27.1628C282.663 27.6424 282.134 28.0026 281.54 28.2062V28.2062Z" fill="#E8140F"/>
<path d="M251.347 72.9872C250.079 73.5166 248.693 73.6915 247.335 73.4937C245.977 73.296 244.697 72.7327 243.629 71.8632C242.517 70.8898 241.76 69.5688 241.478 68.1106C241.196 66.6524 241.406 65.1409 242.073 63.8169C242.741 62.4929 243.828 61.4326 245.162 60.8048C246.496 60.1771 247.999 60.018 249.433 60.353C251.213 60.7895 252.777 61.8648 253.831 63.3785C254.885 64.8922 255.358 66.7411 255.162 68.581C254.972 69.5915 254.518 70.5326 253.847 71.3071C253.177 72.0816 252.314 72.6616 251.347 72.9872V72.9872Z" fill="#E8140F"/>
<path d="M403.438 42.7436V0H408.885V18.3594C409.856 16.7809 411.229 15.4956 412.862 14.6385C414.494 13.7814 416.326 13.3841 418.163 13.4885C426.698 13.4885 431.092 20.0979 431.092 28.3559C431.092 36.6138 426.356 43.463 417.999 43.463C416.18 43.5596 414.37 43.1544 412.762 42.2911C411.153 41.4277 409.808 40.1387 408.87 38.5622V42.6987L403.438 42.7436ZM417.183 18.4193C412.329 18.4193 408.811 22.2561 408.811 28.4008C408.811 34.5456 412.314 38.5622 417.183 38.5622C422.052 38.5622 425.481 34.5456 425.481 28.4008C425.481 22.2561 422.26 18.4193 417.183 18.4193V18.4193Z" fill="black"/>
<path d="M462.62 34.6503C461.782 37.3402 460.092 39.6775 457.809 41.3023C455.527 42.9272 452.779 43.7495 449.988 43.6426C442.447 43.6426 435.842 38.0973 435.842 28.4755C435.842 19.5581 442.21 13.4883 449.29 13.4883C457.944 13.4883 462.798 19.4832 462.798 28.3706C462.799 28.9622 462.759 29.5531 462.679 30.1391H441.527C441.507 31.2673 441.711 32.3881 442.128 33.4352C442.545 34.4822 443.165 35.4343 443.953 36.235C444.74 37.0357 445.679 37.6688 446.713 38.0968C447.747 38.5248 448.856 38.739 449.973 38.7268C451.751 38.8484 453.515 38.3401 454.962 37.2897C456.409 36.2392 457.448 34.7122 457.9 32.9717L462.62 34.6503ZM457.068 25.6579C456.95 21.5814 454.322 18.4041 449.35 18.4041C447.391 18.3745 445.497 19.1145 444.068 20.4678C442.639 21.8212 441.786 23.6821 441.69 25.6579H457.068Z" fill="black"/>
<path d="M477.197 14.3426H483.283V19.3633H477.197V34.1258C477.197 36.7186 478.251 38.0224 481.115 38.0224C481.844 38.0143 482.57 37.934 483.283 37.7826V42.5036C482.071 42.8754 480.808 43.0524 479.542 43.0282C474.747 43.0282 471.704 40.0307 471.704 34.9351V19.3633H466.301V14.3426H467.786C468.378 14.4259 468.982 14.3716 469.55 14.184C470.119 13.9963 470.637 13.6802 471.067 13.2597C471.496 12.8392 471.825 12.3253 472.028 11.7572C472.231 11.1891 472.303 10.5818 472.239 9.98131V5.36523H477.271L477.197 14.3426Z" fill="black"/>
<path d="M497.385 26.4972L504.985 25.3732C506.677 25.1334 507.152 24.2491 507.152 23.245C507.152 20.4723 505.341 18.1643 501.066 18.1643C500.265 18.1053 499.462 18.2106 498.703 18.4741C497.944 18.7375 497.246 19.1536 496.65 19.6971C496.055 20.2406 495.575 20.9003 495.24 21.6363C494.904 22.3723 494.72 23.1694 494.698 23.9794L489.443 22.7354C490.052 17.2351 494.876 13.4883 500.947 13.4883C509.364 13.4883 512.644 18.3292 512.644 23.8744V38.0973C512.625 39.658 512.739 41.2175 512.985 42.7584H507.612C507.397 41.4913 507.298 40.207 507.315 38.9216C506.344 40.4403 504.995 41.6753 503.404 42.5037C501.813 43.332 500.034 43.7247 498.245 43.6426C492.516 43.6426 488.834 39.626 488.834 35.1449C488.849 29.9743 492.531 27.2166 497.385 26.4972ZM507.152 30.5737V29.2699L498.557 30.5737C496.212 30.9334 494.46 32.2823 494.46 34.8301C494.481 35.4017 494.615 35.9634 494.853 36.4823C495.091 37.0012 495.43 37.4668 495.849 37.852C496.268 38.2372 496.758 38.5341 497.292 38.7255C497.826 38.9169 498.392 38.9989 498.958 38.9666C503.53 38.9666 507.152 36.7785 507.152 30.5737Z" fill="black"/>
</svg>
