<svg width="247" height="94" viewBox="0 0 247 94" fill="none" xmlns="http://www.w3.org/2000/svg">
<path d="M3.59996 69.8999L3.7 37.7999C3.7 36.6999 3.89998 35.5999 4.29998 34.5999C6.09998 30.1999 11.7 17.2999 21.2 4.19992C22.7 2.09992 25.2 0.899902 27.8 0.899902H126.2C126.2 0.899902 153 5.09991 185.1 28.9999C186.8 30.2999 188.9 31.0999 191.1 31.2999C202.8 32.4999 241.6 37.5999 242.2 55.1999L242.8 55.3999C245.3 56.2999 246.8 58.6999 246.7 61.3999C246.4 66.4999 245.5 74.3999 242.7 75.6999C240.2 76.7999 233.5 78.5999 228.4 79.9999C226.3 80.4999 224.2 78.8999 224.2 76.6999V72.9999C224.2 60.1999 213.7 49.3999 200.9 49.6999C188.5 49.8999 178.5 60.0999 178.5 72.4999V79.0999C178.5 80.4999 177.4 81.5999 176 81.5999H70.3C68.5 81.5999 67.1 80.1999 67.1 78.3999V73.0999C67.1 60.2999 56.6 49.4999 43.8 49.7999C31.4 49.9999 21.4 60.1999 21.4 72.5999V78.7999C21.4 80.3999 20.1 81.5999 18.6 81.5999H5.59997C4.19997 81.5999 2.80001 80.9999 1.90001 79.8999C0.100014 77.7999 -1.50004 72.4999 3.59996 69.8999Z" fill="#EA6206"/>
<path d="M21.4001 78.8999V72.6999C21.4001 60.1999 31.4 50.0999 43.8 49.8999C44.2 49.8999 44.5001 49.8999 44.9001 49.8999L46.3 49.9999C57.9 51.0999 67.1 61.2999 67.1 73.1999V78.4999C67.1 79.9999 68.1001 81.1999 69.5001 81.5999H19.3C20.5 81.3999 21.4001 80.1999 21.4001 78.8999Z" fill="#0D0D0D"/>
<path d="M178.5 79.1999V72.5999C178.5 60.0999 188.5 49.9999 200.9 49.7999C213.7 49.5999 224.2 60.2999 224.2 73.0999V76.7999C224.2 78.3999 225.2 79.5999 226.6 79.9999L176 81.6999C177.4 81.6999 178.5 80.5999 178.5 79.1999Z" fill="#0D0D0D"/>
<path d="M201 93.0999C212.267 93.0999 221.4 83.9666 221.4 72.7C221.4 61.4333 212.267 52.2999 201 52.2999C189.734 52.2999 180.6 61.4333 180.6 72.7C180.6 83.9666 189.734 93.0999 201 93.0999Z" fill="#490202"/>
<path d="M201 85.5999C208.125 85.5999 213.9 79.8244 213.9 72.7C213.9 65.5755 208.125 59.7999 201 59.7999C193.876 59.7999 188.1 65.5755 188.1 72.7C188.1 79.8244 193.876 85.5999 201 85.5999Z" fill="#EA6206"/>
<path d="M44.4 93.0999C55.6666 93.0999 64.8 83.9666 64.8 72.7C64.8 61.4333 55.6666 52.2999 44.4 52.2999C33.1334 52.2999 24 61.4333 24 72.7C24 83.9666 33.1334 93.0999 44.4 93.0999Z" fill="#490202"/>
<path d="M44.4 85.5999C51.5245 85.5999 57.3 79.8244 57.3 72.7C57.3 65.5755 51.5245 59.7999 44.4 59.7999C37.2756 59.7999 31.5 65.5755 31.5 72.7C31.5 79.8244 37.2756 85.5999 44.4 85.5999Z" fill="#EA6206"/>
<path d="M57.2 6.99994V27.5999C57.2 29.0999 56 30.1999 54.6 30.2999L27.5 30.8999C25.7 30.8999 24.4001 29.1999 24.9001 27.4999L30.9001 6.19995C31.2001 4.99995 32.3 4.19995 33.5 4.19995H54.6C56 4.29995 57.2 5.49994 57.2 6.99994Z" fill="#F9D1B7"/>
<path d="M224 42.4999C228.5 42.5999 235.6 43.7999 238.5 50.0999C239 51.1999 238.1 52.3999 237 52.2999C233.1 52.0999 225.4 51.0999 221.9 46.5999C220.6 44.8999 221.9 42.4999 224 42.4999Z" fill="#F9D1B7"/>
<path d="M243.7 66.5999L242.6 71.9999C242.3 73.4999 241 74.5999 239.4 74.5999C238.1 74.5999 237.1 73.6999 236.8 72.4999L235.4 66.5999C235.2 65.5999 235.9 64.7 236.9 64.7H242.3C243.2 64.7 243.9 65.5999 243.7 66.5999Z" fill="#2B4371"/>
<path d="M8.30005 39.4999V49.1999C8.30005 50.8999 6.90005 52.1999 5.30005 52.1999H3.70007V37.7999C3.70007 37.3999 3.70005 36.8999 3.80005 36.4999H5.30005C6.90005 36.4999 8.30005 37.8999 8.30005 39.4999Z" fill="#F9D1B7"/>
<path d="M177.5 28.3999C168.2 22.8999 149.1 10.7999 131.7 4.79993C130.9 4.49993 126.9 4.29993 126.1 4.29993H120C117.7 4.29993 115.8 6.19994 115.8 8.49994V26.5999C115.8 28.5999 117.4 30.2 119.4 30.2H177C178 30.2 178.4 28.8999 177.5 28.3999Z" fill="#F9D1B7"/>
<path d="M110.6 7.79993V26.7C110.6 28.6 109 30.2 107.1 30.2H66.2001C64.3001 30.2 62.7001 28.6 62.7001 26.7V7.79993C62.7001 5.89993 64.3001 4.29993 66.2001 4.29993H107.1C109 4.29993 110.6 5.89993 110.6 7.79993Z" fill="#F9D1B7"/>
<path d="M176 81.7H70.3001C68.5001 81.7 67.1001 80.2999 67.1001 78.4999V73.2C67.1001 68.3 65.5001 63.5999 62.9001 59.7999H182.6C180.1 63.4999 178.6 67.9 178.6 72.7V79.2999C178.5 80.5999 177.4 81.7 176 81.7Z" fill="#E83D0F"/>
<path d="M21.4001 72.7V78.8999C21.4001 80.4999 20.1 81.7 18.6 81.7H5.60001C4.20001 81.7 2.80006 81.0999 1.90006 79.9999C5.87702e-05 77.7999 -1.59999 72.4999 3.60001 69.8999V59.7999H25.4001C22.9001 63.3999 21.4001 67.9 21.4001 72.7Z" fill="#E83D0F"/>
<path d="M242.7 75.7999C240.2 76.8999 233.5 78.6999 228.4 80.0999C226.3 80.5999 224.2 78.9999 224.2 76.7999V73.0999C224.2 67.9999 222.5 63.1999 219.7 59.2999L243.8 55.8999C245.7 56.9999 246.9 59.0999 246.7 61.3999C246.4 66.6999 245.6 74.5999 242.7 75.7999Z" fill="#E83D0F"/>
</svg>
