<svg width="80" height="80" viewBox="0 0 80 80" fill="none" xmlns="http://www.w3.org/2000/svg">
<g clip-path="url(#clip0)">
<path fill-rule="evenodd" clip-rule="evenodd" d="M37.647 47.0591H41.1752V52.806C40.6502 53.181 40.0814 53.6497 39.5127 54.2185C37.6346 56.0966 36.4721 58.4247 36.4721 61.1747C36.4721 63.9278 37.6346 66.256 39.5127 68.1341C40.0815 68.7028 40.6502 69.1716 41.1752 69.5465V79.9993H21.1752C15.9814 79.9993 11.7656 75.7868 11.7656 70.5961V49.4121C11.7656 48.1121 12.8187 47.059 14.1187 47.059H23.5283C24.4221 47.059 25.2346 46.5559 25.6346 45.759C25.6658 45.6934 25.7658 45.5215 25.9283 45.2746C26.2158 44.8465 26.5596 44.4153 26.9596 44.0153C28.0221 42.9528 29.2221 42.3528 30.5877 42.3528C31.9534 42.3528 33.1565 42.9528 34.219 44.0153C34.6159 44.4153 34.9628 44.8466 35.2472 45.2746C35.4128 45.5215 35.5097 45.6934 35.5441 45.759C35.9409 46.5559 36.7565 47.059 37.6472 47.059L37.647 47.0591ZM45.8814 79.9999H70.591C75.7942 79.9999 80.0006 75.7905 80.0006 70.5903V47.0591H69.5478C69.1728 47.5841 68.7041 48.1529 68.1354 48.7216C66.2572 50.5997 63.9291 51.7653 61.176 51.7653C58.426 51.7653 56.0978 50.5997 54.2198 48.7216C53.651 48.1528 53.1822 47.5841 52.8073 47.0591H45.8823V54.1185C45.8823 55.0091 45.3792 55.8247 44.5823 56.2216C44.5198 56.2528 44.3448 56.3528 44.1011 56.5153C43.6698 56.8028 43.2386 57.1466 42.8417 57.5466C41.7792 58.6091 41.1761 59.8091 41.1761 61.1748C41.1761 62.5435 41.7792 63.7435 42.8417 64.806C43.2386 65.2029 43.6699 65.5498 44.1011 65.8373C44.3448 65.9998 44.5198 66.0998 44.5823 66.1311C45.3792 66.5279 45.8823 67.3436 45.8823 68.2342L45.8814 79.9999ZM79.9998 42.3527V21.1743C79.9998 15.9712 75.7936 11.7647 70.5966 11.7647H48.2342C46.9342 11.7647 45.8811 12.8178 45.8811 14.1178V23.5274C45.8811 24.4212 46.3842 25.2337 47.1842 25.6337C47.2467 25.6649 47.4217 25.7649 47.6655 25.9274C48.0936 26.2149 48.528 26.5587 48.9248 26.9587C49.9873 28.0212 50.5873 29.2212 50.5873 30.5868C50.5873 31.9525 49.9873 33.1556 48.9248 34.2181C48.528 34.615 48.0936 34.9619 47.6655 35.2463C47.4217 35.4119 47.2467 35.5088 47.1842 35.5432C46.3842 35.94 45.8811 36.7556 45.8811 37.6463V42.3525H54.1187C55.0094 42.3525 55.825 42.8556 56.2218 43.6525C56.2531 43.7181 56.3531 43.89 56.5156 44.1369C56.8031 44.565 57.1468 44.9963 57.5469 45.3931C58.6093 46.4587 59.8093 47.0587 61.175 47.0587C62.5437 47.0587 63.7437 46.4587 64.8063 45.3931C65.2032 44.9963 65.5501 44.565 65.8376 44.1369C66.0001 43.89 66.1001 43.7181 66.1313 43.6525C66.5282 42.8556 67.3438 42.3525 68.2345 42.3525L79.9998 42.3527ZM36.4718 11.7655V2.35269C36.4718 1.05269 35.4156 -0.000427246 34.1187 -0.000427246H9.40271C4.21207 -0.000427246 -0.000488281 4.21205 -0.000488281 9.40277V34.1188C-0.000488281 35.4157 1.05263 36.4719 2.35263 36.4719H11.7654C12.6561 36.4719 13.4717 35.9656 13.8686 35.1688C13.8998 35.1063 13.9998 34.9313 14.1623 34.6875C14.4498 34.2594 14.7967 33.825 15.1936 33.4282C16.2561 32.3657 17.4561 31.7657 18.8249 31.7657C20.1905 31.7657 21.3905 32.3657 22.453 33.4282C22.853 33.825 23.1968 34.2594 23.4843 34.6875C23.6468 34.9313 23.7468 35.1063 23.7781 35.1688C24.1749 35.9656 24.9905 36.4719 25.8812 36.4719H34.1188C35.4157 36.4719 36.4719 35.4157 36.4719 34.1188V25.8812C36.4719 24.9905 36.975 24.1749 37.7719 23.7781C37.8344 23.7468 38.0094 23.6468 38.2531 23.4843C38.6844 23.1968 39.1156 22.8531 39.5125 22.453C40.575 21.3905 41.175 20.1905 41.175 18.8249C41.175 17.4561 40.575 16.2561 39.5125 15.1936C39.1156 14.7967 38.6843 14.4498 38.2531 14.1623C38.0094 13.9998 37.8344 13.8998 37.7719 13.8685C36.975 13.4717 36.4719 12.6561 36.4719 11.7654L36.4718 11.7655Z" fill="white"/>
</g>
<defs>
<clipPath id="clip0">
<rect width="80" height="80" fill="white"/>
</clipPath>
</defs>
</svg>
