<svg width="317" height="300" viewBox="0 0 317 300" fill="none" xmlns="http://www.w3.org/2000/svg">
<path d="M251 209C249.3 209 247.9 207.3 247.9 205.3V38.7C247.9 36.6 249.3 35 251 35C252.7 35 254.1 36.7 254.1 38.7V205.3C254 207.3 252.6 209 251 209Z" fill="#680436"/>
<path d="M251 0V50.7H206.8C206.8 50.8 250.2 0.9 251 0Z" fill="#8E1B5A"/>
<path d="M162.8 50.6L251 0L206.8 50.8L162.8 50.6Z" fill="#A81E63"/>
<path d="M128.9 48.5C128.9 48.5 215.8 1.3 251 0L162.8 50.5L128.7 50.7C128.7 50.8 126.2 51 128.9 48.5Z" fill="#8E1B5A"/>
<path d="M251 50.7998C251 53.3998 249.6 55.5998 247.9 55.5998H210.3C208.6 55.5998 206.8 53.3998 206.8 50.7998" fill="#770649"/>
<path d="M207 50.7001C207 53.3001 205.6 55.4001 203.9 55.4001H166.3C164.6 55.4001 162.8 53.2001 162.8 50.6001" fill="#8E1B5A"/>
<path d="M162.8 50.5C162.8 53.1 161.7 55.2 160.3 55.2H130C128.6 55.2 127.5 53.1 127.5 50.5" fill="#770649"/>
<path d="M251 0V50.7H295.2C295.3 50.8 251.9 0.9 251 0Z" fill="#A81E63"/>
<path d="M339.3 50.6L251 0L295.3 50.8L339.3 50.6Z" fill="#8E1B5A"/>
<path d="M373.2 48.5C373.2 48.5 286.3 1.3 251.1 0L339.3 50.5L373.4 50.7C373.4 50.8 375.9 51 373.2 48.5Z" fill="#A81E63"/>
<path d="M251 50.7998C251 53.3998 252.4 55.5998 254.1 55.5998H291.7C293.4 55.5998 295.2 53.3998 295.2 50.7998" fill="#8E1B5A"/>
<path d="M295.1 50.7001C295.1 53.3001 296.5 55.4001 298.2 55.4001H335.8C337.5 55.4001 339.3 53.2001 339.3 50.6001" fill="#770649"/>
<path d="M62.4 125.8C62.4 133.7 57.4 140.7 49.7 145C47.9 146 49.1 152 48.8 153.1C48.5 154.1 42 148.2 40.9 148.5C37.9 149.2 34.7 149.6 31.4 149.6C14.3 149.6 0.300049 138.9 0.300049 125.8C0.300049 112.7 14.2 102 31.4 102C48.6 102 62.4 112.7 62.4 125.8Z" fill="#F9D2E1"/>
<path d="M286.7 177.2C286.7 187.1 275.8 195 262.3 195C253.9 195 246.5 191.9 242.1 187.2C241.2 186.3 232.8 186 233.8 185.2C235.4 184 238.7 181.9 238.4 180.8C238.1 179.6 237.9 178.4 237.9 177.2C237.9 167.3 248.8 159.4 262.3 159.4C275.8 159.4 286.7 167.3 286.7 177.2Z" fill="#F9D2E1"/>
<path d="M73.1 145.5C73.1 154.1 79.2 161.8 88.6 166.5C90.8 167.6 89.3 174.2 89.8 175.3C90.2 176.4 98.1 170 99.5 170.3C103.2 171.1 107.1 171.6 111.2 171.6C132.2 171.6 149.2 159.9 149.2 145.5C149.2 131.1 132.2 119.4 111.2 119.4C90.2 119.4 73.1 131.1 73.1 145.5Z" fill="#F9D2E1"/>
<path d="M25.9 222L36.0999 221.3C30.0999 247.1 26.9 260.6 26.5 261.8C25.6 264.6 28.2 268.5 29.3 270.6C26.2 272.3 26.2 266.9 22.3 269.1C18.8 271.1 16.2 274.4 11.8 272C11.3 271.7 10.6 270.5 11.9 269.5C15.2 266.9 19.8 262.4 20.4 261C21.2 259.2 23.1 246.2 25.9 222Z" fill="#F980AF"/>
<path d="M55 190.8L59 189.8C67 211.8 100.8 224.8 103.4 233.1C104.4 236.1 102.2 237.8 103.5 238.7L98.5 242.9C97.5 241.9 95.7999 244 91.7 242.9C87.6 241.9 56.9 217.4 55 190.8Z" fill="#BC0C5C"/>
<path d="M66.8 168.2C68.4 174.1 70.5 187.5 68.4 189.6H54.8C54.8 189.6 54.8 189.6 54.8 189.5C49.8 188.9 45.9 184.7 45.9 179.5V169.7C45.9 164.1 50.4 159.6 56 159.6H56.9C61.9 159.6 66.1 163.3 66.8 168.2Z" fill="#F9D2E1"/>
<path d="M51.1 177.6C48.9 175.1 47.5 172 47.7 168.5C48.4 158.5 62.4 160.7 65.1 165.7C67.8 170.7 67.5 183.6 64 184.5C62.6 184.9 59.6 184 56.6 182.1L58.5 195.6H47.3L51.1 177.6Z" fill="#F980AF"/>
<path d="M54.1999 175.9C54.6999 181.5 54.4999 187.8 52.9999 189.3H39.4C38.6 176.2 45.9999 181.2 45.9999 168.9C46.4999 168.5 46.9 168 47.3 167.6V167.2C49.7 162.4 52.6 160 56.3 160C61.7 160 63.4 162.5 64.9 164.7C63.8 168.4 59.6 169 55.8 171.3C55.4 170.9 54.7999 170.7 54.1999 170.7C52.7999 170.7 51.5999 171.9 51.5999 173.3C51.5999 174.7 52.7999 175.9 54.1999 175.9C54.0999 175.9 54.0999 175.9 54.1999 175.9Z" fill="#F9D2E1"/>
<path d="M132.1 268.8C122.8 259.5 116.4 252.6 113 248C107.1 240.1 102.3 233.1 100.7 230.4C96.8999 223.9 106.8 219.7 109.4 222.6C113.4 227 122.4 241.3 136.4 265.5L132.1 268.8Z" fill="#B28B67"/>
<path d="M119.1 266.9L99.6999 229.6C95.6999 222.9 111.1 216.6 113.9 219.6C120.2 226.5 136.3 254.7 138.1 256.8L119.1 266.9Z" fill="#F980AF"/>
<path d="M109.677 271.136C107.335 265.765 99.8576 246.714 97.6013 237.424C96.9614 234.718 96.3363 232.153 95.8037 229.792C94.1911 222.567 107.053 218.442 108.355 225.415C111.454 242.723 114.807 267.184 115.169 269.279C115.761 272.203 111.171 274.534 109.677 271.136Z" fill="#B28B67"/>
<path d="M107.388 269.067C106.898 270.516 106.658 271.532 106.704 272.252C106.701 273.058 106.893 274.324 107.246 275.914C108.189 275.881 116.984 275.647 133.682 275.126C134.312 272.834 133.846 271.641 132.42 271.511C130.908 271.33 129.705 271.213 128.726 271.11L116.307 266.019C116.048 265.869 115.811 266.078 115.711 266.252L114.971 268.134C113.628 268.859 112.535 269.152 111.679 269.235C110.959 269.282 109.993 268.955 108.768 268.478C108.198 268.265 107.688 268.548 107.388 269.067C107.438 268.981 107.438 268.981 107.388 269.067Z" fill="#E4E4E4"/>
<path d="M128.3 267.6C128 268.9 127.8 269.9 127.9 270.5C128 271.3 128.2 272.4 128.6 273.8C129.5 273.7 137.4 272.9 152.3 271.4C152.7 269.3 152.2 268.2 150.9 268.2C149.6 268.2 148.4 268.1 147.5 268.1L136 264.3C135.8 264.2 135.5 264.3 135.5 264.6L135 266.4C133.8 267.1 132.9 267.5 132.1 267.6C131.5 267.7 130.6 267.5 129.4 267.1C129 266.9 128.5 267.1 128.3 267.6Z" fill="#E4E4E4"/>
<path d="M95 245.1C89.6 256.1 84.9 263.1 73.1 269.4C60.1 274.6 49.4 270.4 42.9 255.3L64.6 241.9C68 241 81.6 221.5 108.5 217.9C113.5 217.4 115.6 223.4 116.6 225.7C116.6 225.8 122.1 239 128.5 265.2L103.8 264.9L97.1 245C96.4 243.8 95.8 243.9 95 245.1Z" fill="#FDA5C4"/>
<path d="M62 193.3C63.7 223.1 81.4 229.5 78.4 241.7C75.9 251.8 46.4 264.6 40.5 255.3C38.1 251.5 36.8 246.9 36.3 241.7C35.2 245.7 34.4 249.2 33.8 252.1C32.8 257.1 27.6 258.3 27.8 260.2L20.8 258.8C21.1 256.2 17.7999 255.2 18.1999 249.3C20.2999 223.2 29.4 203.8 45.6 191V188.5C45.6 187.5 46.4 186.6 47.5 186.6H60.1C61.1 186.6 62 187.4 62 188.5V193.3Z" fill="#DD1D69"/>
<path d="M96.4 220.7C96.4 220.7 100.4 226.3 101.2 227.1C102 227.9 102.5 228.5 102.7 228C103.5 226.3 102.1 224.5 102.2 224C102.6 222.9 106.1 225.4 106.5 225.7C107.2 226.3 110.2 228.2 109.6 226C109 223.6 105.2 217.4 102.8 216.3C101 215.5 96.6 216.3 95.2 217.8C94.3 218.9 92.9 221.6 92.9 221.9C92.9 222.4 96.4 220.7 96.4 220.7Z" fill="#F980AF"/>
<path d="M63.9999 174.5C63.6999 174.4 63.3999 174.4 63.1999 174.4C62.7999 176 64.9 175.1 63.9 174.5" fill="#BC0C5C"/>
<path d="M66.7 175.9C66.6 176.8 68.5 179.9 67.7 180.5C67.3 180.8 65.8 180.2 65.6 179.9C65.2 179 66.1 176.7 66.7 175.9Z" fill="#F980AF"/>
<path d="M61.7 174C62 173.4 62.6 173.1 63.2 172.9C63.8 172.7 64.5 172.7 65 173C64.4 173.3 63.9 173.4 63.4 173.6C62.9 173.8 62.3 173.9 61.7 174Z" fill="#BC0C5C"/>
<path d="M65.9 182.4C65.4 182.5 64.8 182.5 64.3 182.5C63.8 182.5 63.3 182.4 62.8 182.4L63 181.8C63.3 182.1 63.7 182.5 64 182.8C64.4 183.1 64.7 183.4 65.2 183.6C64.7 183.7 64.2 183.5 63.7 183.3C63.2 183.1 62.8 182.7 62.5 182.4L61.9 181.8H62.7C63.3 181.8 63.8 181.9 64.3 182L65.9 182.4Z" fill="#BC0C5C"/>
<path d="M162.6 233.6L148.3 220.6C140.8 218.6 137.4 217.1 138 216.1C139 214.6 141 215.8 141.8 215C142.6 214.1 141 211.1 139.5 208.3C137.9 205.5 139.6 205.7 140.6 206.1C143.8 208.2 147 211.2 150.3 215.1L169.9 225.7L162.6 233.6Z" fill="#FC54A0"/>
<path d="M206.9 224.6C192.1 250.3 166.2 252 142.2 239.3L155.5 214.9C180.9 229.3 197.7 221.2 207.4 202L216.6 204.8C214.4 211 210.7 218 206.9 224.6Z" fill="#680436"/>
<path d="M195.3 253.2L223.6 270.7C212.8 287.1 201.3 292.4 187.1 283.6C177.2 277.5 152.3 256.2 151.2 256.2" fill="#3581EF"/>
<path d="M144.3 239C148 241.8 150.5 247.6 145.3 251.6C142 254.1 132.4 260.3 121.3 266.9C114.8 270.8 103.4 276 87.3 282.7L83.7 276.6C101.6 262.9 115.3 252.8 125 246.2C141.4 235.2 144.3 239 144.3 239Z" fill="#FC54A0"/>
<path d="M153.1 245.8C153.2 247 152.9 248 152.5 248.9C149.4 256.7 143.6 262.9 138 268.5C132.3 274.2 125.9 279.3 119.4 284C117 285.8 113.6 281.1 115 279.1C116.4 277.1 137.3 244.3 143.2 239C145.7 236.7 152.5 241.7 153.2 245.5C153 245.6 153.1 245.7 153.1 245.8Z" fill="#FC54A0"/>
<path d="M93.7571 281.91C93.9705 281.34 93.651 280.694 93.0814 280.481C91.5457 279.94 90.5064 279.34 89.9136 278.767C89.1976 278.007 88.5084 276.801 87.8459 275.148L88.8362 272.833C88.9862 272.574 88.8263 272.25 88.5665 272.1L73.5468 266.316C72.5575 265.629 71.4451 264.756 70.0362 263.596C68.5774 262.523 67.2846 263.162 65.9212 265.723C79.9988 279.74 87.4823 287.178 88.2849 287.988C89.8778 286.829 91.0973 285.917 91.7206 285.237C92.3804 284.695 93.0304 283.569 93.7571 281.91Z" fill="#E4E4E4"/>
<path d="M95 264.4C98.3 263 133.2 239.8 144.2 235C149 232.9 160.2 247.1 152 252.9L101.1 278.3L95 264.4Z" fill="#3581EF"/>
<path d="M126.3 280.4C126 279.8 125.4 279.6 124.8 279.9C123.3 280.6 122.2 280.9 121.4 280.9C120.4 280.9 119 280.5 117.4 279.8L116.4 277.5C116.3 277.2 115.9 277.1 115.7 277.2L101.1 283.9C99.8999 284.1 98.4999 284.3 96.6999 284.5C94.8999 284.7 94.5 286.2 95.3 288.9C115.2 288.7 125.7 288.7 126.9 288.7C127.2 286.8 127.4 285.3 127.4 284.3C127.3 283.4 127 282.1 126.3 280.4Z" fill="#E4E4E4"/>
<path d="M149.6 233.5C162 238.3 195.8 250.8 202 253.7L232.8 258.1C234.8 285 208 293 193.8 284.1C183.9 278 155 258.1 153.9 258C153.2 257.9 149.3 259 130.4 280.2L115.9 271.8C117.6 269 127.7 250.7 138.2 238.3C140.9 235.3 144.3 231.5 149.6 233.5Z" fill="#5EA7EF"/>
<path d="M220.6 213.1H207.2L209.5 197C205.9 199.2 202.3 200.2 200.6 199.8C196.4 198.7 196 183.4 199.3 177.3C202.5 171.3 219.2 168.6 220.1 180.6C220.4 184.8 218.6 188.5 216.1 191.5L220.6 213.1Z" fill="#FC54A0"/>
<path d="M207.7 182.3L208.8 178.9L215.5 178.3V177.7C207.7 177.8 202.3 177.4 199.3 176.6C199.4 174 202.2 171 209.4 171C217.4 171 221.7 175.7 221.7 181.1C221.7 186 218.5 192.1 216.1 192.3C215.5 192.2 214.9 191.4 214.4 190.4C215.4 189.9 216.1 188.8 216.1 187.3C216.1 185.9 214.8 184.5 213.3 184.5C212.7 184.5 212.2 184.7 211.8 185C210.8 183.4 209.5 182.2 207.7 182.3Z" fill="#770649"/>
<path d="M265 285.5C265.8 287.1 271.7 292.1 275.9 294.9C277.6 296 276.9 297.5 276.2 297.9C271.1 301 267.8 297.3 263.4 295.3C258.6 293.1 259 299.4 255.2 297.7C256.4 295.1 259.1 290.2 257.8 287C257.2 285.6 250.2 269.7 236.8 239.5H249.1C258.6 267.9 263.9 283.3 265 285.5Z" fill="#FC54A0"/>
<path d="M220.1 197.7H221.1C242.6 217.1 256.6 244.6 263.3 280H233.9C233.7 273.3 233.7 273.2 233.1 266.8L195.3 255.4C199.4 237 205.6 226 205.6 200.9L220.1 197.7Z" fill="#84033E"/>
<path d="M233.1 266.8L223 263.7C225.2 255.5 227.6 240.2 226.6 224.7C229.8 235.9 232 254.2 233.1 266.8Z" fill="#680436"/>
<path d="M197.3 186.1C197.6 188.2 192.5 193.3 197.6 193.3L197.3 186.1Z" fill="#FC54A0"/>
<path d="M200.8 185.6C199.6 185.4 199.5 186.8 200.5 186.9C201.6 187 201.5 185.9 200.8 185.6Z" fill="#770649"/>
<path d="M199 184.2C199.3 184 199.6 183.8 200 183.6C200.3 183.4 200.7 183.3 201.2 183.4C201.4 183.4 201.7 183.5 201.9 183.6C202.1 183.7 202.3 183.9 202.4 184C202.7 184.3 202.8 184.6 203 185C202.6 185 202.2 184.7 202 184.6C201.7 184.4 201.5 184.4 201.3 184.3C201 184.3 200.7 184.3 200.4 184.3C199.8 184.3 199.3 184.3 199 184.2Z" fill="#770649"/>
<path d="M197.8 195.9C198.4 195.7 199 195.5 199.6 195.4C200.2 195.2 200.7 195.1 201.4 195C201.5 195 201.5 195 201.6 195C201.7 195 201.8 195.1 201.9 195.2C202 195.3 202.1 195.6 202 195.8C201.8 196.2 201.7 196.1 201.6 196.2L201.2 196.4C200.9 196.5 200.7 196.7 200.4 196.8C199.8 197.1 199.2 197.3 198.5 197.2C199.1 196.9 199.5 196.5 200 196.1C200.2 195.9 200.5 195.7 200.7 195.5L201.1 195.2C201.1 195.2 201.2 195.1 201 195.3C200.9 195.5 201 195.7 201.1 195.7C201.1 195.7 201.2 195.8 201.3 195.8C201.4 195.8 201.4 195.8 201.4 195.8C200.9 195.9 200.2 196 199.6 196C199 196.1 198.4 196.1 197.8 195.9Z" fill="#770649"/>
</svg>
