<svg width="441" height="195" viewBox="0 0 441 195" fill="none" xmlns="http://www.w3.org/2000/svg">
<path d="M186.8 116C187 109 188.5 96.6998 179.9 94.1998C173.7 92.3998 172.7 98.2998 168.3 102.4C163 94.3998 154.4 82.2998 143.2 86.4998C135 89.5998 132.4 102.7 128.8 110.2C113.1 87.7998 101.2 96.4998 98.2001 120C98.1001 119.3 98.1001 118 98.1001 117.3C75.8001 106 69.3 125.9 68.8 145.2C76.6 149.4 91.5001 155.2 96.4001 143.2C103 147.9 111.1 152.8 119.5 154C129.4 155.5 132 149.6 139.9 147.4C150.5 144.5 164.7 158.8 177.8 157.2C189.4 155.8 198.5 148.4 201.2 135.5C215.7 141.4 232.1 150.8 230.4 124.6C224.9 123 219.2 121.9 213.4 122.2C213.7 112.3 210 110 202.1 107.2C196.8 105.5 185.1 101.5 186.8 116Z" fill="#5B0434"/>
<path d="M290.1 53.6999C290.1 62.9999 279.8 70.4999 267.2 70.4999C259.3 70.4999 252.3 67.5999 248.2 63.0999C247.4 62.1999 239.5 61.8999 240.4 61.2999C241.9 60.1999 245 58.1999 244.7 57.0999C244.4 55.9999 244.2 54.8999 244.2 53.6999C244.2 44.3999 254.5 36.8999 267.1 36.8999C279.8 36.9999 290.1 44.4999 290.1 53.6999Z" fill="#FFEBF5"/>
<path d="M206.6 75.2998C205.1 73.5998 204.2 71.4998 204.3 69.1998C204.8 62.4998 214.2 63.8998 216 67.2998C217.8 70.6998 217.6 79.2998 215.2 79.9998C214.3 80.1998 212.3 79.5998 210.2 78.3998L211.5 87.4998H204L206.6 75.2998Z" fill="#3D0220"/>
<path d="M212.7 67.6997C211.7 68.2997 210.9 69.3997 210.1 70.7997C209.9 70.6997 209.7 70.6997 209.4 70.6997C208.4 70.6997 207.5 71.4997 207.5 72.5997C207.5 73.0997 207.7 73.5997 208.1 73.9997C207.7 74.5997 207.2 75.2997 206.6 75.8997C204.5 74.5997 202.9 70.9997 204.9 67.3997C206.6 60.2997 216.4 64.6997 218.3 63.4997C218.6 66.0997 217.3 68.0997 212.7 67.6997Z" fill="#770649"/>
<path d="M199.7 129.4H224.1L227.3 168.5H191L199.7 129.4Z" fill="#F9BDD4"/>
<path d="M199.7 129.4H207.2L211.7 168.5H191L199.7 129.4Z" fill="#FDA5C4"/>
<path d="M261.9 168.8C255.7 161.2 251.5 155.6 249.3 151.9C245.5 145.6 242.5 140 241.5 137.9C239.2 132.8 246.8 130.4 248.6 132.8C251.2 136.4 256.8 147.7 265.4 166.7L261.9 168.8Z" fill="#3D0220"/>
<path d="M249.1 166.6L237.5 137.5C235 132.2 247 128.7 248.8 131.2C252.9 136.8 262.7 158.9 264 160.6L249.1 166.6Z" fill="#770649"/>
<path d="M218.347 160.699C220.631 157.402 228.787 146.377 233.281 141.781C234.569 140.508 235.779 139.172 237.005 137.977C240.477 134.484 247.564 140.351 244.062 143.563C235.3 151.523 222.555 162.177 221.519 163.139C219.886 164.519 216.929 162.768 218.347 160.699Z" fill="#3D0220"/>
<path d="M218.876 159.301C218.08 159.881 217.643 160.437 217.393 160.87C217.093 161.39 216.78 162.133 216.403 163.185C217.009 163.535 222.119 166.485 231.819 172.085C233.002 171.036 233.192 170.107 232.376 169.52C231.56 168.934 230.917 168.447 230.361 168.01L225.023 160.656C224.899 160.469 224.763 160.506 224.576 160.629L223.493 161.505C222.514 161.401 221.721 161.175 221.288 160.925C220.855 160.675 220.435 160.201 219.943 159.455C219.559 159.118 219.163 159.005 218.876 159.301C218.926 159.215 218.876 159.301 218.876 159.301Z" fill="#E4E4E4"/>
<path d="M259.2 167.7C258.8 168.6 258.7 169.3 258.7 169.8C258.7 170.4 258.8 171.2 259 172.3C259.7 172.3 265.6 172.3 276.8 172.3C277.3 170.8 277 169.9 276 169.8C275 169.7 274.2 169.6 273.5 169.5L265.2 165.8C265 165.7 264.9 165.8 264.8 166L264.3 167.3C263.4 167.7 262.6 167.9 262.1 167.9C261.6 167.9 261 167.7 260.2 167.3C259.8 167.2 259.4 167.3 259.2 167.7C259.2 167.6 259.2 167.6 259.2 167.7Z" fill="#E4E4E4"/>
<path d="M233.4 138.9C223.8 137.3 217.3 136.3 214.1 135.7C204.8 134.1 202.1 129 203.7 118.1H220.9C223.2 118.8 232.7 122.8 249.4 130.3C252.4 131.8 251.8 136.2 251.3 137.6C251.3 137.7 246.2 146.3 236.1 163.6L222.1 154.7L233.6 139.9C233.7 139.3 233.7 139 233.4 138.9Z" fill="#8E1B5A"/>
<path d="M229 83.0997L241 79.4997C243.2 77.7997 245.3 76.4997 247.3 75.6997C247.9 75.5997 248.8 75.6997 247.6 76.9997C246.4 78.2997 245.2 79.7997 245.6 80.3997C245.9 80.9997 247.2 80.4997 247.5 81.3997C247.7 81.9997 245.7 82.3997 241.3 82.6997L232 88.1997L229 83.0997ZM228 104.1L238.1 111.5C240.8 112.2 243.1 113.2 244.9 114.2C245.3 114.6 245.9 115.4 244.1 115.3C242.3 115.2 240.4 115.1 240.2 115.7C240 116.3 241 117 240.5 117.9C240.2 118.5 238.6 117.1 235.8 113.8L225.8 109.7L228 104.1Z" fill="#3D0220"/>
<path d="M212.3 84.1998C217.8 94.3998 225.7 102.2 237.2 110.4L232.9 115.3C220.1 110.5 213.3 107.7 210 97.9998C209.2 95.5998 208.6 87.8998 208.1 83.7998L212.3 84.1998Z" fill="#A81E63"/>
<path d="M197 118.299H221.3C215.8 101.499 213 89.9994 212.9 83.7994C212.9 83.4994 212.3 82.8994 212 82.9994C210.1 83.4994 208.1 83.2994 205.9 82.3994C200.2 91.5994 198.2 102.999 197 118.299Z" fill="#F2F2F2"/>
<path d="M208 82.2994C215 82.3994 226.3 83.5994 239.3 79.3994L240.6 85.7994C230.8 92.0994 220.8 96.9994 212.1 96.2994C215.9 112.599 215.7 125.899 207.3 125.899C203.3 125.899 199 125.899 194.4 125.899C192.3 112.099 197.7 92.8994 202.8 83.2994C203 82.8994 203.4 82.1994 204.4 82.1994C205 82.2994 206.3 82.2994 208 82.2994Z" fill="#C41C60"/>
<path d="M352.8 67.1001C352.8 72.7001 349.2 77.7001 343.7 80.8001C342.4 81.5001 343.3 85.8001 343 86.6001C342.8 87.3001 338.1 83.1001 337.3 83.3001C335.2 83.8001 332.9 84.1001 330.5 84.1001C318.2 84.1001 308.3 76.5001 308.3 67.1001C308.3 57.7001 318.2 50.1001 330.5 50.1001C342.8 50.1001 352.8 57.7001 352.8 67.1001Z" fill="#FFEBF5"/>
<path d="M375.5 151.8H353.5L350.6 187.1H383.3L375.5 151.8Z" fill="#F9BDD4"/>
<path d="M375.5 151.8H368.7L364.7 187.1H383.3L375.5 151.8Z" fill="#FDA5C4"/>
<path d="M329.3 183.3C332.3 164.7 334.9 152.4 336.3 148.7C337.3 146.2 344.5 146.5 343.7 151.5C343.4 153.6 342 159.2 340.2 165.5C339.1 169.2 336.5 176.2 332.9 184.3L329.3 183.3ZM374.1 162.4C372.8 162.2 357.8 160.7 347.3 159.1C343.1 158.5 345.3 150.5 349.7 151.4C351.2 151.7 352.8 152 354.4 152.3C360.1 153.5 371.8 157.6 375.1 158.9C377.2 159.8 375.9 162.6 374.1 162.4Z" fill="#8E1B5A"/>
<path d="M347 149.2L365.1 140V138H363C345.5 142.5 336.5 145.3 336.1 146.6C332.6 151.4 330.5 174.7 329.9 176.4L336.6 177.4C339.1 168 347.3 161.4 347.1 150.1C347 149.8 347 149.5 347 149.2Z" fill="#8E1B5A"/>
<path d="M363.6 154.7C365.3 154.4 366.8 154.1 368.1 153.8C376.5 152.3 379 147.8 377.5 138H362C359.5 138.7 346.3 144.3 339.4 147.2C334.9 149.1 336.3 156.2 338.9 158C338.9 158.1 339 158.2 339 158.2C352.8 163.9 363.7 160.9 367.4 161.9L369.1 156.6L363.6 154.7Z" fill="#C41C60"/>
<path d="M373.966 158.111C374.904 158.21 375.529 158.35 375.93 158.488C376.375 158.716 376.997 159.08 377.841 159.67C377.567 160.248 375.239 165.056 370.766 174.135C369.337 173.942 368.807 173.311 369.083 172.508C369.359 171.706 369.635 170.904 369.82 170.369L370.079 162.232C370.125 162.098 370.171 161.964 370.394 161.967L371.646 162.024C372.367 161.449 372.775 160.917 373.093 160.428C373.231 160.027 373.372 159.402 373.424 158.597C373.426 158.374 373.652 158.152 373.966 158.111Z" fill="#E4E4E4"/>
<path d="M334.5 182.8C334.8 183.7 335 184.3 335 184.7C335 185.2 334.9 186 334.7 186.9C334.1 186.9 328.7 186.9 318.6 186.9C318.2 185.5 318.4 184.8 319.3 184.7C320.2 184.6 320.9 184.5 321.5 184.4L329 181.1C329.1 181 329.3 181.1 329.4 181.2L329.9 182.4C330.7 182.8 331.4 183 331.9 183C332.3 183 332.9 182.8 333.7 182.5C334 182.4 334.3 182.5 334.5 182.8Z" fill="#E4E4E4"/>
<path d="M367 96.7001C368.3 95.2001 369.2 93.3001 369.1 91.2001C368.7 85.1001 360.2 86.4001 358.5 89.5001C356.8 92.6001 357 100.4 359.2 100.9C360.1 101.1 361.9 100.6 363.7 99.5001L362.5 107.7H369.3L367 96.7001Z" fill="#8E1B5A"/>
<path d="M357.9 90.8999C358 90.4999 358.1 90.0999 358.3 89.6999C358.5 89.1999 358.7 88.7999 359 88.3999C359.5 87.5999 360.2 86.8999 360.9 86.2999C362.2 85.1999 363.9 84.5999 365.5 84.7999C366.3 84.8999 367.1 85.1999 367.8 85.6999C368.4 86.1999 369 86.8999 369.8 86.8999C370.7 86.9999 371.5 86.1999 372.2 85.6999C373 85.1999 373.8 84.7999 374.7 84.5999C376.2 84.2999 377.7 84.8999 378.7 86.0999C379.8 87.3999 380.6 89.3999 379.9 91.1999C379.8 91.4999 379.6 91.7999 379.3 91.9999C379.1 92.1999 378.7 92.3999 378.6 92.7999C378.5 93.1999 378.8 93.5999 378.9 93.8999C379.1 94.3999 379.2 94.8999 379.2 95.3999C379.1 96.1999 378.6 96.9999 378 97.5999C377.4 98.1999 376.7 98.4999 376 98.5999C375.5 98.6999 375 98.7999 374.5 98.6999C374.3 98.6999 374 98.5999 373.8 98.5999C373.6 98.4999 373.4 98.5999 373.2 98.6999C372.3 99.2999 371.3 99.4999 370.2 99.3999C369.3 99.2999 368.3 99.0999 367.5 98.4999C366.7 97.7999 366.7 96.8999 366.9 95.8999C366.7 95.9999 366.1 96.0999 366.5 95.6999C366.6 95.4999 366.9 95.4999 367.1 95.3999C367.3 95.2999 367.5 95.1999 367.7 94.9999C368.3 94.2999 367.7 92.7999 366.9 92.5999C365.7 92.1999 365.5 93.8999 364.6 94.2999C364.1 94.4999 363.6 94.1999 363.3 93.8999C362.8 93.3999 362.5 92.7999 362.2 92.1999C362 91.6999 361.8 91.1999 361.5 90.6999C361.4 90.4999 361 89.7999 361.2 89.4999C360.4 89.2999 359.4 89.6999 358.7 90.0999C358.4 90.2999 358.2 90.4999 358 90.7999C358 90.8999 357.9 91.0999 357.8 91.0999C357.8 91.1999 357.8 90.9999 357.9 90.8999Z" fill="#3D0220"/>
<path d="M370.6 102.7C370.5 102.5 370.5 102.3 370.4 102L370.1 102.1L370 102L362 103.2C362 107.7 358.4 111.9 356.2 115.5C352.7 121.1 346.4 127.3 350.5 135.7C354.1 143.2 363.5 144.4 378.7 139.4C378.7 135.4 375.4 131.3 375.3 126.4C375.1 121.7 374.2 107.5 370.6 102.7Z" fill="#5B0434"/>
<path d="M356.5 136.8C355.8 137.6 354.1 139.9 353 139.7C350.7 139.2 349.4 136 349.9 134.7C350.2 134.4 351.1 135.5 352.3 135.4C353 135.3 355.4 132.9 359.7 128.1C359.9 129 360.2 130.9 360.7 133.6C358.2 135.4 356.8 136.5 356.5 136.8ZM353.2 120.3C353.2 121.1 356.2 121.6 356.2 122.8C356.2 123.9 351.8 125.6 350.8 125.6C349.8 125.6 350.4 121.3 351 120.3C351.6 119.3 352.2 118.9 353.3 118.9C354.4 118.9 353.2 119.5 353.2 120.3Z" fill="#8E1B5A"/>
<path d="M362.9 137.8C363 138 363 138.3 363.1 138.5C375.6 129.8 375.6 119.2 371.9 107.4C374.7 119 373.5 128.9 362.9 137.8Z" fill="black" fill-opacity="0.2"/>
<path d="M151.8 65.9C151.8 71.3 148 76.1 142 79.1C140.6 79.8 141.5 83.9 141.3 84.7C141 85.4 136 81.4 135.2 81.5C132.9 82 130.4 82.3 127.9 82.3C114.7 82.3 104 75 104 65.9C104 56.8 114.7 49.5 127.9 49.5C141.1 49.5 151.8 56.9 151.8 65.9Z" fill="#FFEBF5"/>
<path d="M149 151.7H171.4L174.3 187.6H141L149 151.7Z" fill="#F9BDD4"/>
<path d="M149 151.7H155.9L160 187.6H141L149 151.7Z" fill="#FDA5C4"/>
<path d="M196.9 145.5C199.3 144.1 203.3 145.9 203.3 148C203.3 154.1 197.7 183 197.4 184.8C197.1 186.6 194 187.1 193.8 184.8C193.5 181.1 193 168.5 193.5 162.6C193.7 160.2 194 157.9 194.2 155.8C191.3 161.1 186.7 168.7 180.6 178.6L177.3 177.1C179.9 168.5 182.1 162.4 183.7 158.8C186.6 152.7 189.3 147.5 190.4 145.7C192.1 142.8 195.2 143.8 196.9 145.5Z" fill="#F9D2E1"/>
<path d="M177.5 172.3L188.9 145.2C191.6 140.8 199.3 146.1 198.4 148.7C196.3 154.5 185.5 173.3 184.9 175L177.5 172.3Z" fill="#5B0434"/>
<path d="M176.827 175.367C176.117 175.997 175.644 176.416 175.444 176.763C175.194 177.196 174.881 177.938 174.554 178.904C175.073 179.204 179.75 181.904 188.67 187.054C189.716 186.042 189.943 185.249 189.214 184.713C188.484 184.176 187.842 183.689 187.372 183.303L182.49 176.558C182.454 176.422 182.23 176.408 182.094 176.445L181.061 177.234C180.168 177.181 179.462 177.004 178.942 176.704C178.596 176.504 178.176 176.031 177.633 175.371C177.51 175.184 177.114 175.071 176.827 175.367C176.877 175.281 176.827 175.367 176.827 175.367Z" fill="#5B0434"/>
<path d="M193 183.3C192.7 184.2 192.5 184.8 192.5 185.2C192.5 185.7 192.6 186.5 192.8 187.5C193.4 187.5 198.8 187.5 209.1 187.5C209.5 186.1 209.3 185.3 208.4 185.2C207.5 185.1 206.7 185 206.1 184.9L198.5 181.5C198.4 181.4 198.2 181.5 198.1 181.6L197.6 182.8C196.8 183.2 196.1 183.4 195.5 183.4C195.1 183.4 194.5 183.2 193.7 182.9C193.5 182.9 193.2 183 193 183.3C193.1 183.3 193 183.3 193 183.3Z" fill="#5B0434"/>
<path d="M204.1 150.1C204.1 157.8 200.4 175.7 200.4 177.4H192.5C193.6 161.4 194.1 153.3 193.7 153.1C193.2 152.8 173.1 155.1 167.1 155.1C158.4 155.1 154.8 149.6 154.5 139.5H171.7C175.2 139.9 193.5 143.6 200.2 144.8C203.3 145.4 204.1 147.9 204.1 150.1Z" fill="#770649"/>
<path d="M163.1 103.1C161.8 101.5 160.9 99.6 161 97.5C161.4 91.3 170.1 92.7 171.7 95.8C173.4 98.9 173.2 106.9 171 107.4C170.1 107.6 168.3 107.1 166.4 105.9L167.6 114.2H160.7L163.1 103.1Z" fill="#F9D2E1"/>
<path d="M165.5 102.7C164.6 104.4 163.4 105.6 162.3 105.6C160 105.6 158.4 102.6 158.4 99.3001C158.4 99.2001 158.4 99.1001 158.4 99.0001C156 100.6 154.2 103.9 151 103.9C146.7 103.9 145 95.2001 151 95.2001C155.1 95.2001 157.1 95.8001 158.8 96.7001C159.1 95.7001 159.7 94.9001 160.3 94.4001C160.5 94.2001 160.7 94.1001 161 93.9001C161.2 93.8001 161.4 93.7001 161.6 93.7001C162.6 93.3001 164.2 93.0001 165.9 93.0001C166.2 93.0001 166.5 93.0001 166.8 93.0001C166.8 91.4001 168.1 90.1001 169.7 90.1001C171.3 90.1001 172.6 91.4001 172.6 93.0001C172.6 94.5001 171.4 95.8001 169.9 95.9001C169 96.2001 167.9 96.4001 166.7 96.5001C166.8 97.0001 166.9 97.5001 166.9 98.1001C166.9 98.6001 166.8 99.2001 166.7 99.7001C166.4 99.4001 166.1 99.2001 165.7 99.2001C164.7 99.2001 164 100 164 100.9C163.9 101.8 164.6 102.6 165.5 102.7Z" fill="#DD1D69"/>
<path d="M183.9 131.4L194.4 126.8C196.2 125 198 123.6 199.7 122.6C200.2 122.4 201.1 122.4 200.2 123.7C199.3 125.1 198.3 126.5 198.7 127C199.1 127.5 200.2 127 200.6 127.7C200.9 128.2 199.1 128.8 195.1 129.6L187.2 135.6L183.9 131.4ZM141.5 132.6L147.4 133.8C141.4 144.9 138.2 150.8 137.8 151.5C136.8 153 137.7 155.8 138.1 157.2C136 157.7 136.8 154.5 134.2 155.2C131.8 155.8 129.7 157.4 127.4 155.3C127.1 155 126.9 154.2 127.9 153.8C130.3 152.8 133.8 150.9 134.3 150.1C135 149 137.4 143.2 141.5 132.6Z" fill="#F9D2E1"/>
<path d="M163.5 110.5L166 110.1C171.5 115.4 173.7 128.1 177.3 129.8C180.7 131.4 185.6 129.9 191.4 127.8L193.2 131.8C187.9 137.5 176.7 142.3 172.2 139.6C164.9 135 163.3 119.3 163.5 110.5Z" fill="#FC90CC"/>
<path d="M152.6 141.9C162.6 141.9 170 141.9 174.7 141.9C175.7 141.9 175.5 140.4 175.4 139.7C173.7 131.2 167.1 122 167.1 109.9L160.7 108.9C155.5 117.4 153.7 127.9 152.6 141.9Z" fill="#DDE3E9"/>
<path d="M150.4 133.3C145.9 141.4 142.1 147.3 139 150.9L134.4 150C137.4 131.5 146 117.8 160.4 108.9H160.5H163C168.7 128.4 170.3 141.5 167.7 148H147.8C148 143.2 149 138.2 150.4 133.3Z" fill="#FDA5C4"/>
<path d="M417.6 166.9C411.8 168.4 406.7 169.2 402.5 169.2C398.3 169.2 394.3 168 390.7 165.7C396.4 164.2 401.1 163.4 404.8 163.4C408.5 163.4 412.8 164.6 417.6 166.9Z" fill="#3581EF"/>
<path d="M397.9 169C398 168.9 398 168.8 398.1 168.8C398.9 167 412.3 147.7 413.6 144.2H398.5C397.5 146.9 392.9 163.7 392.3 167.1C390.3 172.4 386.1 189.6 385.6 190.7C385 192 388.2 193.3 389 191.7C390.3 189.3 393.5 182.5 394.9 178.4C396.3 174.4 397.4 171 397.9 169Z" fill="#8E1B5A"/>
<path d="M409 172.6C414.3 173.9 433.5 176.3 434.8 176.6C436.2 177 437.3 174.2 435.7 173.6C433 172.7 425.7 170.5 421.2 169.6C417.6 168.9 414.3 168.3 412.1 167.9C412.3 161.8 413.1 147.2 412.6 144.1H401.1C401.6 147.1 406.2 169.2 407 171.4C407.3 172.2 408.1 172.5 409 172.6Z" fill="#8E1B5A"/>
<path d="M435.53 172.93C436.219 172.809 436.712 172.722 437.042 172.867C437.453 172.896 437.998 173.105 438.756 173.377C438.629 173.806 437.927 177.889 436.553 185.646C435.453 185.738 434.908 185.53 434.885 184.823C434.961 184.099 434.955 183.491 434.984 183.079L433.398 176.962C433.38 176.863 433.461 176.748 433.56 176.73L434.545 176.557C434.95 175.977 435.176 175.531 435.304 175.103C435.35 174.79 435.263 174.297 435.159 173.707C435.072 173.214 435.234 172.982 435.53 172.93Z" fill="#E4E4E4"/>
<path d="M390 191.5C390.3 192.1 390.4 192.6 390.4 192.9C390.4 193.3 390.3 193.8 390.2 194.6C389.7 194.6 384.8 194.6 375.5 194.6C375.1 193.6 375.3 193 376.2 192.9C377 192.8 377.7 192.7 378.2 192.7L385 190.2C385.1 190.2 385.3 190.2 385.3 190.3L385.7 191.2C386.5 191.5 387.1 191.6 387.6 191.6C388 191.6 388.5 191.5 389.2 191.2C389.6 191.1 389.9 191.2 390 191.5C390 191.4 390 191.5 390 191.5Z" fill="#E4E4E4"/>
<path d="M412.8 145C407.3 143.6 402.1 143.6 397.2 145C395.5 152.2 391.4 155 390.6 166C398.9 169.8 409.1 163.3 417.6 167C420.1 161.8 416.7 149.3 412.8 145Z" fill="#5EA7EF"/>
<path d="M406.4 119.6C407.6 118.1 408.5 116.4 408.3 114.4C407.9 108.6 399.9 109.9 398.3 112.8C396.7 115.7 396.9 123.1 398.9 123.6C399.7 123.8 401.4 123.3 403.2 122.2L402.1 129.9H408.6L406.4 119.6Z" fill="#8E1B5A"/>
<path d="M400.9 109.6C401.8 109.3 403.1 109.2 403.6 109.3C403.3 108.6 403.2 107.7 403.3 106.9C403.4 106.1 403.7 105.5 404.1 104.8C404.2 104.5 404.4 104.2 404.7 103.9C405 103.7 405.3 103.5 405.6 103.4C405.9 103.3 406.3 103.3 406.7 103.4C406.9 103.4 407 103.5 407.1 103.5C407.3 103.5 407.3 103.4 407.4 103.3C407.7 103.1 408.1 103 408.4 102.9C408.8 102.9 409.2 102.9 409.5 103C409.9 103.1 410.2 103.3 410.4 103.6C410.5 103.7 410.6 103.9 410.7 104C410.7 104.1 410.7 104.1 410.8 104.1C410.9 104.1 410.9 104.1 411 104.1C411.6 104.3 412.1 104.8 412.4 105.4C412.6 105.8 412.6 106.4 412.6 107.1C412.6 107.8 411.9 109.6 411.4 110.3C410.9 110.9 410.1 111.3 409.4 111.5C409.9 112.1 410.2 112.8 410.5 113.5C410.8 114.3 410.9 115.1 411 115.9C411.1 116.7 411.1 117.5 410.9 118.3C410.7 119 410.4 119.6 409.7 120C409.4 120.2 409.1 120.3 408.8 120.4C408.5 120.5 408.2 120.6 407.9 120.7C407.3 120.8 406.6 120.8 406.2 120.3C406 120.1 405.9 119.9 405.7 119.7C405.7 119.6 405.6 119.6 405.7 119.5C405.8 119.4 405.9 119.3 405.9 119.3C406.4 118.9 406.6 118.4 406.7 117.8C406.8 117.2 406.6 116.4 406 116.1C405.2 115.8 404.4 116.2 403.7 116.5C403.4 115.5 402.8 114.6 401.9 114.1C400.9 113.6 399.7 113.5 398.7 113.1C398.4 113 398.1 112.9 397.9 112.6C397.8 112.5 397.7 112.4 397.7 112.2C397.7 112 397.8 111.9 397.8 111.8C398.3 111.3 400 109.9 400.9 109.6Z" fill="#3D0220"/>
<path d="M388.5 141.6L380.7 139C377.4 139.3 375.7 139.2 375.9 138.8C376.1 138.2 377.1 138.3 377.3 137.9C377.5 137.5 376.4 136.7 375.3 135.9C374.2 135.1 374.9 135 375.4 135C377 135.3 378.8 135.9 380.7 136.8L390.3 137.9L388.5 141.6ZM427.1 156.7C427.4 157.3 430 159.1 431.8 160.1C432.5 160.5 432.2 161 431.9 161.2C429.7 162.3 428.3 161 426.4 160.2C424.3 159.4 424.5 161.7 422.8 161.1C423.3 160.1 424.5 158.4 423.9 157.2C423.7 156.7 420.6 150.9 414.8 139.8H420.1C424.3 150.3 426.7 155.9 427.1 156.7Z" fill="#8E1B5A"/>
<path d="M405.7 125.6L401.6 125.8C400.6 133.6 395 138.6 382.6 136.9L380.9 147C392.5 148.3 402.8 144.3 404.9 133.7C405.3 130.9 405.8 128 405.7 125.6Z" fill="#FC90CC"/>
<path d="M407.7 124.6L401.4 125.8C401.4 134.9 398 140.8 396.2 147.5H413.2C413.4 149.8 413.6 152.2 413.7 154.7H426.4C423.5 141.7 417.4 131.7 408.2 124.6H407.7Z" fill="#FDA5C4"/>
<path d="M410.5 134.5C410.9 140.2 410.7 144.5 409.7 147.5H413.2C412.8 142.9 411.9 138.6 410.5 134.5Z" fill="black" fill-opacity="0.1"/>
<path d="M93.8 158.5C92.5 158.5 91.5 157.2 91.5 155.7V29.5998C91.5 27.9998 92.5 26.7998 93.8 26.7998C95.1 26.7998 96.1 28.0998 96.1 29.5998V155.7C96.2 157.2 95.1 158.5 93.8 158.5Z" fill="#C41C60"/>
<path d="M93.9 0.399902V38.7999H60.4C60.4 38.7999 93.2 0.999902 93.9 0.399902Z" fill="#8E1B5A"/>
<path d="M27.1 38.5999L93.9 0.399902L60.4 38.7999L27.1 38.5999Z" fill="#A81E63"/>
<path d="M1.50001 37.0999C1.50001 37.0999 67.3 1.3999 93.9 0.399902L27.1 38.5999L1.3 38.7999C1.3 38.7999 -0.599991 38.8999 1.50001 37.0999Z" fill="#8E1B5A"/>
<path d="M93.9 38.7998C93.9 40.7998 92.8 42.3998 91.6 42.3998H63.1C61.8 42.3998 60.4 40.7998 60.4 38.7998" fill="#770649"/>
<path d="M60.6 38.7001C60.6 40.7001 59.5 42.3001 58.3 42.3001H29.8C28.5 42.3001 27.1 40.6001 27.1 38.6001" fill="#8E1B5A"/>
<path d="M27.1 38.5C27.1 40.5 26.3 42.1 25.2 42.1H2.30002C1.30002 42.1 0.400024 40.5 0.400024 38.5" fill="#770649"/>
<path d="M93.9 0.399902V38.7999H127.4C127.4 38.7999 94.6 0.999902 93.9 0.399902Z" fill="#A81E63"/>
<path d="M160.7 38.5999L93.9 0.399902L127.4 38.7999L160.7 38.5999Z" fill="#8E1B5A"/>
<path d="M186.3 37.0999C186.3 37.0999 120.5 1.3999 93.9 0.399902L160.7 38.5999L186.5 38.7999C186.5 38.7999 188.4 38.8999 186.3 37.0999Z" fill="#A81E63"/>
<path d="M93.9 38.7998C93.9 40.7998 95 42.3998 96.2 42.3998H124.7C126 42.3998 127.4 40.7998 127.4 38.7998" fill="#8E1B5A"/>
<path d="M127.2 38.7001C127.2 40.7001 128.3 42.3001 129.5 42.3001H158C159.3 42.3001 160.7 40.6001 160.7 38.6001" fill="#770649"/>
<path d="M160.7 38.5C160.7 40.5 161.5 42.1 162.6 42.1H185.5C186.5 42.1 187.4 40.5 187.4 38.5" fill="#8E1B5A"/>
<path d="M236.9 116.3C236.1 116.3 235.4 117.6 235.4 119.1C235.4 119.3 235.4 119.5 235.4 119.7C235.4 120.3 235.4 120.8 235.4 121.4C235.4 122.3 235.4 123.2 235.4 124.1C235.4 125.3 235.4 126.4 235.4 127.6C235.4 129 235.4 130.4 235.4 131.7C235.4 133.3 235.4 134.8 235.4 136.4C235.4 138.1 235.4 139.8 235.4 141.4C235.4 143.2 235.4 144.9 235.4 146.7C235.4 148.5 235.4 150.3 235.4 152C235.4 153.8 235.4 155.5 235.4 157.3C235.4 159 235.4 160.7 235.4 162.3C235.4 163.9 235.4 165.4 235.4 167C235.4 168.4 235.4 169.8 235.4 171.2C235.4 172.4 235.4 173.5 235.4 174.7C235.4 175.6 235.4 176.5 235.4 177.4C235.4 178 235.4 178.6 235.4 179.1C235.4 179.5 235.4 179.8 235.4 180.2C235.4 180.6 235.7 180.8 235.9 180.9C236.2 181.1 236.5 181.1 236.9 181.1C237.2 181.1 237.5 181.1 237.7 180.9C237.9 180.8 238.2 180.7 238.3 180.4C238.3 180.3 238.3 180.3 238.3 180.2C238.3 179.8 238.3 179.4 238.3 179.1C238.3 178.5 238.3 178 238.3 177.4C238.3 176.5 238.3 175.7 238.3 174.8C238.3 173.7 238.3 172.6 238.3 171.4C238.3 170.1 238.3 168.7 238.3 167.4C238.3 165.9 238.3 164.4 238.3 162.9C238.3 161.3 238.3 159.7 238.3 158.1C238.3 156.4 238.3 154.7 238.3 153C238.3 151.3 238.3 149.6 238.3 147.8C238.3 146.1 238.3 144.4 238.3 142.7C238.3 141.1 238.3 139.4 238.3 137.8C238.3 136.3 238.3 134.7 238.3 133.2C238.3 131.8 238.3 130.4 238.3 129C238.3 127.8 238.3 126.6 238.3 125.4C238.3 124.4 238.3 123.4 238.3 122.5C238.3 121.8 238.3 121.1 238.3 120.4C238.3 120 238.3 119.6 238.3 119.3C238.3 119.2 238.3 119.2 238.3 119.1C238.4 117.6 237.8 116.3 236.9 116.3Z" fill="#F9BDD4"/>
<path d="M285.3 107C284.5 107 283.8 108.3 283.8 109.8C283.8 110 283.8 110.2 283.8 110.4C283.8 111 283.8 111.5 283.8 112.1C283.8 113 283.8 113.9 283.8 114.8C283.8 116 283.8 117.1 283.8 118.3C283.8 119.7 283.8 121.1 283.8 122.4C283.8 124 283.8 125.5 283.8 127.1C283.8 128.8 283.8 130.5 283.8 132.1C283.8 133.9 283.8 135.6 283.8 137.4C283.8 139.2 283.8 141 283.8 142.7C283.8 144.5 283.8 146.2 283.8 148C283.8 149.7 283.8 151.4 283.8 153C283.8 154.6 283.8 156.1 283.8 157.7C283.8 159.1 283.8 160.5 283.8 161.9C283.8 163.1 283.8 164.2 283.8 165.4C283.8 166.3 283.8 167.2 283.8 168.1C283.8 168.7 283.8 169.3 283.8 169.8C283.8 170.2 283.8 170.5 283.8 170.9C283.8 171.3 284.1 171.5 284.3 171.6C284.6 171.8 284.9 171.8 285.3 171.8C285.6 171.8 285.9 171.8 286.1 171.6C286.3 171.5 286.6 171.4 286.7 171.1C286.7 171 286.7 171 286.7 170.9C286.7 170.5 286.7 170.1 286.7 169.8C286.7 169.2 286.7 168.7 286.7 168.1C286.7 167.2 286.7 166.4 286.7 165.5C286.7 164.4 286.7 163.3 286.7 162.1C286.7 160.8 286.7 159.4 286.7 158.1C286.7 156.6 286.7 155.1 286.7 153.6C286.7 152 286.7 150.4 286.7 148.8C286.7 147.1 286.7 145.4 286.7 143.7C286.7 142 286.7 140.3 286.7 138.5C286.7 136.8 286.7 135.1 286.7 133.4C286.7 131.8 286.7 130.1 286.7 128.5C286.7 127 286.7 125.4 286.7 123.9C286.7 122.5 286.7 121.1 286.7 119.7C286.7 118.5 286.7 117.3 286.7 116.1C286.7 115.1 286.7 114.1 286.7 113.2C286.7 112.5 286.7 111.8 286.7 111.1C286.7 110.7 286.7 110.3 286.7 110C286.7 109.9 286.7 109.9 286.7 109.8C286.8 108.2 286.2 107 285.3 107Z" fill="#F9BDD4"/>
<path d="M333.1 116C332.3 116 331.6 117.3 331.6 118.8C331.6 119 331.6 119.2 331.6 119.4C331.6 120 331.6 120.5 331.6 121.1C331.6 122 331.6 122.9 331.6 123.8C331.6 125 331.6 126.1 331.6 127.3C331.6 128.7 331.6 130.1 331.6 131.4C331.6 133 331.6 134.5 331.6 136.1C331.6 137.8 331.6 139.4 331.6 141.1C331.6 142.8 331.6 144.6 331.6 146.3C331.6 148.1 331.6 149.8 331.6 151.6C331.6 153.3 331.6 155.1 331.6 156.8C331.6 158.5 331.6 160.2 331.6 161.8C331.6 163.4 331.6 164.9 331.6 166.5C331.6 167.9 331.6 169.3 331.6 170.7C331.6 171.9 331.6 173 331.6 174.2C331.6 175.1 331.6 176 331.6 176.9C331.6 177.5 331.6 178.1 331.6 178.6C331.6 179 331.6 179.3 331.6 179.7C331.6 180.1 331.9 180.3 332.1 180.4C332.4 180.6 332.7 180.6 333.1 180.6C333.4 180.6 333.7 180.6 333.9 180.4C334.1 180.3 334.4 180.2 334.5 179.9C334.5 179.8 334.5 179.8 334.5 179.7C334.5 179.3 334.5 178.9 334.5 178.6C334.5 178 334.5 177.5 334.5 176.9C334.5 176 334.5 175.2 334.5 174.3C334.5 173.2 334.5 172.1 334.5 171C334.5 169.7 334.5 168.4 334.5 167C334.5 165.5 334.5 164 334.5 162.5C334.5 160.9 334.5 159.3 334.5 157.7C334.5 156 334.5 154.3 334.5 152.7C334.5 151 334.5 149.3 334.5 147.6C334.5 145.9 334.5 144.2 334.5 142.5C334.5 140.9 334.5 139.2 334.5 137.6C334.5 136.1 334.5 134.5 334.5 133C334.5 131.6 334.5 130.2 334.5 128.8C334.5 127.6 334.5 126.4 334.5 125.2C334.5 124.2 334.5 123.3 334.5 122.3C334.5 121.6 334.5 120.9 334.5 120.2C334.5 119.8 334.5 119.5 334.5 119.1C334.5 119 334.5 119 334.5 118.9C334.6 117.2 333.9 116 333.1 116Z" fill="#F9BDD4"/>
<path d="M339.9 112.4C339.9 118.8 315.3 124.1 285.1 124.1C254.8 124.1 230.3 118.9 230.3 112.4V113.8C230.3 120.2 254.8 125.5 285.1 125.5C315.4 125.5 339.2 120.5 340.1 114.2L339.9 112.4Z" fill="#F9BDD4"/>
<path d="M285 124.2C315.265 124.2 339.8 118.962 339.8 112.5C339.8 106.038 315.265 100.8 285 100.8C254.735 100.8 230.2 106.038 230.2 112.5C230.2 118.962 254.735 124.2 285 124.2Z" fill="#FFEBF5"/>
<path d="M261.7 114.2C261.7 114.3 261.7 114.3 261.7 114.2C261.6 114.5 261.4 114.6 261.2 114.6C261 114.7 260.7 114.8 260.5 114.8C259.7 115 258.8 115 258 115C257.3 115 256.6 115 255.8 114.8C255.5 114.7 255.2 114.7 254.9 114.6C254.7 114.5 254.3 114.4 254.3 114.1L253.6 105.5H262.5L261.7 114.2Z" fill="#FDA5C4"/>
<path d="M258.1 104.4C255.7 104.4 253.7 104.9 253.7 105.6C253.7 106.3 255.7 106.8 258.1 106.8C260.5 106.8 262.5 106.3 262.5 105.6C262.5 104.9 260.6 104.4 258.1 104.4Z" fill="#C41C60"/>
<path d="M258.1 104.5C259.3 104.5 260.4 104.6 261.2 104.8C261.6 104.9 261.9 105 262.1 105.2C262.2 105.3 262.4 105.4 262.4 105.6C262.4 105.7 262.2 105.9 262.1 106C261.9 106.1 261.6 106.3 261.2 106.4C260.4 106.6 259.3 106.7 258.1 106.7C256.9 106.7 255.8 106.6 255 106.4C254.6 106.3 254.3 106.2 254.1 106C254 105.9 253.8 105.8 253.8 105.6C253.8 105.5 254 105.3 254.1 105.2C254.3 105.1 254.6 104.9 255 104.8C255.8 104.6 256.9 104.5 258.1 104.5ZM258.1 104.4C255.7 104.4 253.7 104.9 253.7 105.6C253.7 106.3 255.7 106.8 258.1 106.8C260.5 106.8 262.5 106.3 262.5 105.6C262.5 104.9 260.6 104.4 258.1 104.4Z" fill="#F2F2F2"/>
<path d="M323.3 115.4C323.2 115.7 323 115.8 322.8 115.8C322.6 115.9 322.3 116 322.1 116C321.3 116.2 320.4 116.2 319.6 116.2C318.9 116.2 318.2 116.2 317.4 116C317.1 115.9 316.8 115.9 316.5 115.8C316.3 115.7 315.9 115.6 315.9 115.3L315.2 106.7H324.1L323.3 115.4Z" fill="#FDA5C4"/>
<path d="M319.7 105.6C317.3 105.6 315.3 106.1 315.3 106.8C315.3 107.5 317.3 108 319.7 108C322.1 108 324.1 107.5 324.1 106.8C324.1 106.1 322.1 105.6 319.7 105.6Z" fill="#C41C60"/>
<path d="M319.7 105.7C320.9 105.7 322 105.8 322.8 106C323.2 106.1 323.5 106.2 323.7 106.4C323.8 106.5 324 106.6 324 106.8C324 107 323.8 107.1 323.7 107.2C323.5 107.3 323.2 107.5 322.8 107.6C322 107.8 320.9 107.9 319.7 107.9C318.5 107.9 317.4 107.8 316.6 107.6C316.2 107.5 315.9 107.4 315.7 107.2C315.6 107.1 315.4 107 315.4 106.8C315.4 106.6 315.6 106.5 315.7 106.4C315.9 106.3 316.2 106.1 316.6 106C317.4 105.8 318.5 105.7 319.7 105.7ZM319.7 105.6C317.3 105.6 315.3 106.1 315.3 106.8C315.3 107.5 317.3 108 319.7 108C322.1 108 324.1 107.5 324.1 106.8C324.1 106.1 322.1 105.6 319.7 105.6Z" fill="#F2F2F2"/>
<path d="M318.2 118.6C318.1 118.9 317.9 119 317.7 119C317.5 119.1 317.2 119.2 317 119.2C316.2 119.4 315.3 119.4 314.5 119.4C313.8 119.4 313.1 119.4 312.3 119.2C312 119.1 311.7 119.1 311.4 119C311.2 118.9 310.8 118.8 310.8 118.5L310.1 109.9H319L318.2 118.6Z" fill="#F9BDD4"/>
<path d="M314.6 108.7C312.2 108.7 310.2 109.2 310.2 109.9C310.2 110.6 312.2 111.1 314.6 111.1C317 111.1 319 110.6 319 109.9C319.1 109.3 317.1 108.7 314.6 108.7Z" fill="#C41C60"/>
<path d="M314.6 108.9C315.8 108.9 316.9 109 317.7 109.2C318.1 109.3 318.4 109.4 318.6 109.6C318.7 109.7 318.9 109.8 318.9 110C318.9 110.1 318.7 110.3 318.6 110.4C318.4 110.5 318.1 110.7 317.7 110.8C316.9 111 315.8 111.1 314.6 111.1C313.4 111.1 312.3 111 311.5 110.8C311.1 110.7 310.8 110.6 310.6 110.4C310.5 110.3 310.3 110.2 310.3 110C310.3 109.9 310.5 109.7 310.6 109.6C310.8 109.5 311.1 109.3 311.5 109.2C312.3 109 313.4 108.9 314.6 108.9ZM314.6 108.7C312.2 108.7 310.2 109.2 310.2 109.9C310.2 110.6 312.2 111.1 314.6 111.1C317 111.1 319 110.6 319 109.9C319.1 109.3 317.1 108.7 314.6 108.7Z" fill="#F2F2F2"/>
</svg>
