<svg width="640" height="480" viewBox="0 0 640 480" xmlns="http://www.w3.org/2000/svg" id="flag-icon-css-sa">
  <g clip-path="url(#clip0)">
    <path fill-rule="evenodd" clip-rule="evenodd" d="M-40 0H680V480H-40V0Z" fill="#199D00"/>
    <path d="M169.028 149.334L158.861 166.525L145.736 159.131L138.342 173.735L121.15 164.307L130.762 148.04L144.442 154.879L152.483 140.738L169.028 149.334ZM190.379 278.918H178.271C176.052 278.918 174.019 278.456 172.17 277.532C168.597 275.745 165.577 272.479 163.112 267.735C159.785 261.203 157.628 252.268 156.642 240.93C152.452 246.106 149.187 249.773 146.845 251.929C143.456 255.072 140.622 256.643 138.342 256.643C137.171 256.643 135.692 256.458 133.905 256.089L122.629 253.87C117.822 252.884 114.865 252.176 113.756 251.744C112.646 251.313 112.092 250.543 112.092 249.434C112.092 247.77 114.218 242.532 118.469 233.721C122.783 224.848 125.895 219.364 127.805 217.269C129.345 215.605 132.087 213.448 136.031 210.799C138.372 209.196 141.7 207.132 146.013 204.606L150.912 201.741C150.727 200.878 150.573 200.015 150.45 199.153C150.388 198.228 150.357 197.366 150.357 196.565C150.357 194.223 150.881 191.296 151.929 187.784C153.038 184.21 154.979 179.804 157.752 174.567L166.625 232.242C168.042 241.3 169.891 247.431 172.17 250.635C173.649 252.73 175.683 253.778 178.271 253.778H190.379V278.918ZM154.424 226.696L152.576 215.605C150.604 216.529 149.063 217.269 147.954 217.823C144.565 219.61 141.854 221.274 139.82 222.814C138.342 224.047 137.109 225.187 136.123 226.234C134.891 227.59 134.275 228.606 134.275 229.284C134.275 230.147 135.353 230.825 137.51 231.318C139.666 231.811 141.792 232.057 143.887 232.057C145.243 232.057 146.66 231.687 148.139 230.948C149.618 230.147 151.713 228.73 154.424 226.696ZM241.769 278.918H183.909V253.778H232.526C231.849 249.588 230.616 246.045 228.829 243.149C227.905 241.546 225.748 238.774 222.359 234.83L229.753 212.832C234.375 218.07 237.517 223.554 239.181 229.284C240.907 235.015 241.769 243.518 241.769 254.795V278.918ZM240.29 295.186L230.123 314.041L216.998 306.647L209.604 321.251L192.412 311.823L202.025 293.892L215.704 300.732L223.468 285.758L240.29 295.186ZM293.16 278.918H235.299V253.778H283.917C283.239 249.588 282.006 246.045 280.22 243.149C279.295 241.546 277.139 238.774 273.749 234.83L281.144 212.832C285.765 218.07 288.908 223.554 290.572 229.284C292.297 235.015 293.16 243.518 293.16 254.795V278.918ZM283.732 298.421L272.64 319.125L251.197 307.479L262.288 286.405L283.732 298.421ZM375.051 281.044C375.051 284.803 372.895 289.794 368.581 296.018C364.268 302.18 359.215 307.54 353.423 312.1C347.015 317.153 341.53 319.679 336.971 319.679C331.548 319.679 325.725 318.139 319.502 315.058C314.079 312.408 305.607 307.109 294.084 299.16L297.966 293.43C303.512 297.127 307.979 299.622 311.368 300.916C314.757 302.21 318.423 302.857 322.367 302.857C326.619 302.857 330.87 301.656 335.122 299.253C339.374 296.85 345.166 292.382 352.499 285.851C362.727 276.731 367.842 269.706 367.842 264.777C367.842 262.312 366.856 259.077 364.884 255.072C362.666 250.512 359.955 246.722 356.75 243.703L361.926 218.747C366.116 223.061 369.351 228.021 371.631 233.628C373.911 239.236 375.051 245.613 375.051 252.761V281.044ZM443.264 278.918H429.584C424.716 278.918 420.434 277.933 416.736 275.961C413.039 273.989 410.051 270.816 407.771 266.441C403.766 271.37 398.559 274.852 392.15 276.885C387.899 278.241 383.277 278.918 378.286 278.918H368.581V253.778H378.286C383.401 253.778 386.974 253.531 389.008 253.038C391.103 252.484 393.907 251.282 397.419 249.434C395.57 245.798 393.968 243.179 392.613 241.577C390.949 239.667 389.224 238.712 387.437 238.712C386.759 238.712 386.112 238.958 385.496 239.451C384.941 239.883 384.294 240.745 383.555 242.039L379.488 241.485C379.488 230.332 381.398 222.383 385.218 217.638C389.1 212.832 395.201 210.429 403.519 210.429C412.084 210.429 418.801 212.123 423.669 215.512C428.598 218.84 431.063 223.43 431.063 229.284C431.063 232.427 430.416 235.446 429.122 238.342C427.828 241.177 425.394 245.059 421.82 249.988C422.683 251.159 423.853 252.083 425.332 252.761C426.811 253.439 428.228 253.778 429.584 253.778H443.264V278.918ZM487.629 278.918H436.793V253.778H476.538L465.354 191.019L459.438 187.137C459.438 183.501 459.993 179.835 461.102 176.138C462.519 171.455 464.923 165.878 468.312 159.408L472.563 161.627C472.563 161.996 472.44 162.982 472.194 164.584C472.194 166.618 473.488 168.59 476.076 170.5C478.356 172.225 481.991 174.135 486.982 176.23C486.428 180.174 485.596 184.025 484.487 187.784C483.439 191.543 482.238 194.901 480.882 197.859L477.554 196.565L487.629 253.778V278.918ZM521.828 252.022C521.828 257.506 521.181 262.528 519.887 267.088C518.593 271.586 516.097 277.655 512.4 285.296L506.854 283.078C508.333 275.19 509.073 268.782 509.073 263.853C509.073 260.094 508.765 254.579 508.148 247.308C507.532 240.037 506.762 232.858 505.838 225.772C504.913 218.624 503.404 210.121 501.309 200.262C500.569 196.811 500.199 194.439 500.199 193.145C500.199 191.235 501.155 188 503.065 183.44C504.975 178.818 507.655 173.242 511.106 166.71L516.652 199.43C518.685 211.877 520.102 222.66 520.904 231.78C521.52 238.804 521.828 245.552 521.828 252.022Z" fill="white"/>
  </g>
  <defs>
    <clipPath id="clip0">
      <rect width="640" height="480" fill="white"/>
    </clipPath>
  </defs>
</svg>
