<svg width="395" height="340" viewBox="0 0 395 340" fill="none" xmlns="http://www.w3.org/2000/svg">
<path d="M141 181.6L162.9 258.3L178.9 314.8H190.5L173.5 181.6H141Z" fill="#191847"/>
<path d="M135.2 181.6C134.7 221.1 133 242.7 132.4 246.3C131.9 249.9 123.8 272.7 108.3 314.9H120.4C140.2 274.5 151.2 251.6 153.5 246.3C155.8 241 162.9 219.4 173.6 181.6H135.2Z" fill="#2F3676"/>
<path d="M107.3 325.7L107.9 313H120.6C126.6 317.2 134.4 320.6 144.1 323.3V325.7H121.1L113.3 324.5V325.7H107.3Z" fill="#191847"/>
<path d="M177.2 325.7L177.8 313H190.5C196.5 317.2 204.3 320.6 214 323.3V325.7H191.1L183.3 324.5V325.7H177.2Z" fill="#191847"/>
<path d="M152.1 109.6C149.3 106.3 147.4 102.3 147.8 97.9C148.7 85 166.7 87.8 170.2 94.3C173.7 100.8 173.3 117.3 168.8 118.5C167 119 163.2 117.8 159.3 115.5L161.8 132.8H147.3L152.1 109.6Z" fill="#F7698E"/>
<path d="M159.9 99.3C160.5 107 161.9 110.9 164.3 110.9C167.9 110.9 170.9 108.6 172.5 108.6C173.6 108.6 173.4 110 172.6 111.1C172 112 168.9 112.8 168.9 114.2C168.9 115.6 171.3 114.5 171.3 115.3C171.3 116.6 171.7 119.1 169.4 119.1C167.1 119.1 160.4 118.3 159.2 114.8C158.5 112.6 158 107.9 157.8 100.9C157.7 100.9 157.5 100.9 157.4 100.9C155.4 100.9 153.8 102.5 153.8 104.5C153.8 105.5 154.2 106.4 154.9 107.1C154.1 108.3 153.1 109.5 152 110.8C148 108.4 144.4 101.3 148.3 94.5C149.4 91.2 152.5 89.4 155.4 88.6C157.8 87.6 160.2 87.5 162.3 88.1C166.4 88.4 170 89.7 171 90.4C171 94.2 170.3 95.4 163.9 95.3C162.3 96 161.1 97.4 159.9 99.3Z" fill="#910940"/>
<path d="M172.2 101.6C172.1 102.6 173.5 103.6 174 104.4C174.4 104.9 174.8 105.5 174.9 106.1C175.3 108.1 173 108 171.7 108.5C171.7 108.4 171.5 108.1 171.5 108" fill="#F7698E"/>
<path d="M167.4 101C167.3 100.6 167.5 100.2 167.8 99.9C168.1 99.6 168.5 99.5 168.9 99.5C169.3 99.5 169.6 99.5 170 99.6C170.3 99.7 170.7 99.9 170.9 100.2L169.9 100.4L169 100.5C168.7 100.5 168.4 100.6 168.2 100.6C167.9 100.7 167.7 100.7 167.4 101Z" fill="#910940"/>
<path d="M170.3 102.5C170.631 102.5 170.9 102.231 170.9 101.9C170.9 101.569 170.631 101.3 170.3 101.3C169.969 101.3 169.7 101.569 169.7 101.9C169.7 102.231 169.969 102.5 170.3 102.5Z" fill="#910940"/>
<path d="M191 157.1L214.8 153.9C219.6 151.3 223.9 149.5 227.9 148.5C229 148.5 230.8 148.9 228.1 151.1C225.4 153.3 222.7 155.8 223.2 157C223.7 158.2 226.2 157.7 226.6 159.6C226.9 160.8 222.8 161 214.5 160.2L195.2 167.9L191 157.1ZM116.2 162.6H129.4C114.9 195.2 107.4 212.2 106.8 213.8C105.4 217.3 108.4 222.5 109.6 225.4C105.5 227.2 105.9 220.4 100.7 222.8C96 225 92.4 229 86.9 225.6C86.2 225.2 85.5 223.6 87.3 222.4C91.7 219.4 98.1 214 99 212.3C100.2 210 105.9 193.4 116.2 162.6Z" fill="#F7698E"/>
<path d="M152.4 120.8L162.7 121.5C165.2 144.5 179.1 159.1 210.2 154.2L214.3 183.9C185.3 187.7 159.8 176 154.6 144.6C153.3 136.3 152.2 127.8 152.4 120.8Z" fill="#FFEEEE"/>
<path d="M147.3 117.7L163 121.3C163 148.2 171.6 165.4 176 185.2H133.7C133.1 192 132.7 199.1 132.5 206.3H100.8C108 168.1 123.1 138.6 146.3 117.7H147.3Z" fill="white"/>
<path d="M140.3 146.8C139.2 163.6 139.9 176.4 142.2 185.2H133.6C134.8 171.7 136.9 158.9 140.3 146.8Z" fill="#FFEEEE"/>
<path d="M67.1 183.2H49L50.2 175.3H65.9L67.1 183.2Z" fill="#F93A70"/>
<path d="M90.5 128H25.6C24.7 128 24 128.7 24 129.6V169.1V173.7C24 174.6 24.7 175.3 25.6 175.3H90.5C91.4 175.3 92.1 174.6 92.1 173.7V169.1V129.6C92.1 128.7 91.4 128 90.5 128Z" fill="#F7C1C9"/>
<path d="M259.6 102.6C259.6 116.7 243.9 128.2 224.6 128.2C212.5 128.2 201.9 123.7 195.6 117C194.4 115.7 182.3 115.2 183.7 114.2C186 112.5 190.8 109.5 190.3 107.8C189.8 106.1 189.6 104.4 189.6 102.7C189.6 88.6 205.3 77.1 224.6 77.1C243.9 77.1 259.6 88.5 259.6 102.6Z" fill="#F7C1C9"/>
<path d="M59.6 90.5C62.748 90.5 65.3 88.0376 65.3 85C65.3 81.9624 62.748 79.5 59.6 79.5C56.452 79.5 53.9 81.9624 53.9 85C53.9 88.0376 56.452 90.5 59.6 90.5Z" fill="white"/>
<path d="M33.9 85L59.8 64.8L85.8 85H33.9Z" fill="#910940"/>
<path d="M59.8 66.1C59.4 66.1 59.1 65.8 59.1 65.4V-7.59999C59.1 -7.99999 59.4 -8.29999 59.8 -8.29999C60.2 -8.29999 60.5 -7.99999 60.5 -7.59999V65.4C60.5 65.8 60.2 66.1 59.8 66.1Z" fill="#B50437"/>
<path d="M248.3 323.7H-1.59998V327.6H248.3V323.7Z" fill="#51052F"/>
<path d="M248.3 327.6H-1.59998V339.8H248.3V327.6Z" fill="#910940"/>
<path d="M-16 194.5V183.1H262.7V194.5H253.8H-7H-16Z" fill="#910940"/>
<path d="M256.4 281.7H-9.59998V323.7H256.4V281.7Z" fill="#E50C4A"/>
<path d="M256.4 199.3H-9.59998V279.2H256.4V199.3Z" fill="#E50C4A"/>
<path d="M256.4 279.2H-9.59998V281.7H256.4V279.2Z" fill="#F985A6"/>
<path d="M256.4 194.5H-9.59998V199.3H256.4V194.5Z" fill="#F985A6"/>
<path d="M133.3 233.3V216.5H114.7V233.3H97.8V251.9H114.7V268.8H133.3V251.9H150.1V233.3H133.3Z" fill="#F7C1C9"/>
<path d="M280 161.6C276.6 160.5 275.1 159.6 275.5 158.9C276.4 157.6 278.2 158.7 278.9 157.9C279.1 157.7 279.2 157.5 279.2 157.3C279.2 157.1 279.2 157 279.2 156.8C279.1 156.3 279.1 155.8 279 155.4C279 155.1 278.9 154.8 278.9 154.5C278.8 153.9 278.7 153.2 278.6 152.6C278.5 151.8 278.3 151 278.2 150.2C277.1 143.1 275.9 136.1 275.9 136.1L254.4 138.3C254.4 138.3 259.2 165.8 259.6 167.8L280.6 165.3C280.5 164.9 280.3 163.5 280 161.6Z" fill="#F2F2F2"/>
<path d="M321.8 79.8C321.8 87.3 317 94 309.7 98.2C308 99.2 309.1 104.9 308.8 105.9C308.5 106.9 302.3 101.2 301.2 101.5C298.3 102.2 295.3 102.6 292.1 102.6C275.7 102.6 262.4 92.4 262.4 79.8C262.4 67.2 275.7 57 292.1 57C308.5 57 321.8 67.2 321.8 79.8Z" fill="#F7C1C9"/>
<path d="M275 187.7C271.7 185.3 268.5 183.7 265.7 182.9C260.2 181.4 258 180.2 255.3 176.8C253.9 175 252.6 171.3 254 170.1C254.9 169.3 260.3 173.3 262.5 173.7C264.7 174.2 262.7 168.9 263.8 169.5C265.3 169.5 266.6 171.6 267.7 175.8L275.5 180.1L275 187.7Z" fill="#F7698E"/>
<path d="M336.5 211L312 275.8L294.9 323.5H285.1L308.6 211H336.5Z" fill="#51052F"/>
<path d="M342.5 211C342.8 233.2 342.6 263.1 343.2 264.5C343.6 265.4 356.5 275.9 381.7 296.1L376.7 304.7C346.7 285.3 330.9 274.4 329.4 271.8C327.1 267.9 315.5 232.3 309.5 211.1H342.5V211Z" fill="#6B0533"/>
<path d="M390.605 301.874L382.081 295.45L375.259 303.654C374.717 309.853 372.691 316.774 369.184 324.417L370.776 325.692L383.145 310.875L386.557 305.14L387.353 305.777L390.605 301.874Z" fill="#FFEEEE"/>
<path d="M295.8 332.6L295.3 321.9H284.6C279.5 325.5 272.9 328.3 264.8 330.6V332.6H284.1L290.7 331.6V332.6H295.8Z" fill="#FFEEEE"/>
<path d="M322.6 136.2C324.9 133.4 326.5 130.1 326.3 126.3C325.5 115.4 310.4 117.8 307.4 123.3C304.5 128.8 304.8 142.7 308.6 143.7C310.1 144.1 313.4 143.1 316.7 141.1L314.6 155.7H326.8L322.6 136.2Z" fill="#F7698E"/>
<path d="M312.3 117.3C314 116.8 316.4 116.6 317.4 116.7C316.8 115.3 316.6 113.8 316.8 112.3C317 110.8 317.6 109.6 318.2 108.3C318.5 107.7 318.8 107.1 319.3 106.6C319.8 106.1 320.4 105.8 321 105.7C321.7 105.5 322.3 105.6 323 105.7C323.3 105.8 323.5 105.9 323.8 106C324.1 106.1 324.2 105.9 324.4 105.7C324.9 105.3 325.7 105 326.3 105C327 104.9 327.8 105 328.5 105.3C329.2 105.5 329.8 105.9 330.3 106.5C330.5 106.7 330.7 107 330.8 107.3C330.9 107.4 330.9 107.5 331 107.5C331.1 107.5 331.3 107.5 331.4 107.6C332.6 108 333.5 108.9 334.1 110C334.4 110.7 334.6 111.8 334.5 113.2C334.5 114.5 333.3 118 332.2 119.2C331.2 120.3 329.7 121.1 328.3 121.4C329.2 122.5 329.9 123.8 330.3 125.2C330.8 126.7 331.1 128.2 331.2 129.8C331.3 131.3 331.3 132.9 331 134.3C330.7 135.7 330 136.8 328.8 137.5C328.3 137.8 327.7 138.1 327.1 138.3C326.5 138.5 326 138.7 325.4 138.9C324.3 139.1 323 139.1 322.1 138.2C321.8 137.9 321.4 137.5 321.2 137.1C321.1 137 321.1 136.9 321.2 136.7C321.3 136.5 321.5 136.4 321.7 136.3C322.6 135.6 323.1 134.6 323.3 133.4C323.4 132.2 323.1 130.7 322 130.1C320.6 129.5 319 130.2 317.7 130.9C317.2 129 316.1 127.3 314.3 126.4C312.4 125.4 310.2 125.3 308.2 124.5C307.7 124.3 307.2 124 306.8 123.6C306.6 123.4 306.5 123.2 306.4 122.9C306.3 122.6 306.5 122.3 306.7 122.1C307.4 120.5 310.6 117.8 312.3 117.3Z" fill="#51052F"/>
<path d="M305.6 131.4C305.7 133.3 304 134.7 303.8 136.5C303.6 138.3 305.9 137.8 307.1 138.2" fill="#F7698E"/>
<path d="M306.5 140.1C307.1 140 307.5 139.7 308 139.5C308.5 139.2 309 138.9 309.6 138.9H309.9L310 139.2C310.1 139.6 310 140.1 309.8 140.4C309.6 140.7 309.3 140.9 309.1 141.1C308.6 141.5 308 141.7 307.5 142.1C307.6 141.8 307.8 141.5 308 141.3L308.6 140.6C308.8 140.4 309 140.2 309.1 139.9C309.2 139.7 309.3 139.5 309.2 139.3L309.6 139.6C309.1 139.6 308.7 139.8 308.1 140C307.6 140.2 307 140.3 306.5 140.1Z" fill="#51052F"/>
<path d="M307.3 131.7C307.631 131.7 307.9 131.431 307.9 131.1C307.9 130.769 307.631 130.5 307.3 130.5C306.969 130.5 306.7 130.769 306.7 131.1C306.7 131.431 306.969 131.7 307.3 131.7Z" fill="#51052F"/>
<path d="M306.2 129.7C306.2 129.4 306.5 129.1 306.8 128.9C307.1 128.7 307.5 128.7 307.8 128.7C308.1 128.7 308.5 128.8 308.8 128.9C309.1 129 309.4 129.2 309.6 129.4C309.3 129.3 309 129.3 308.7 129.2C308.4 129.2 308.1 129.1 307.8 129.2C307.5 129.2 307.2 129.2 306.9 129.3C306.7 129.3 306.4 129.4 306.2 129.7Z" fill="#51052F"/>
<path d="M297.6 174.7L284.8 163C278 161.1 274.9 159.8 275.5 158.9C276.4 157.6 278.2 158.7 278.9 157.9C279.6 157.1 278.2 154.4 276.8 151.9C275.4 149.4 276.9 149.6 277.8 150C280.7 151.9 283.5 154.6 286.5 158.1L304.2 167.8L297.6 174.7Z" fill="#F7698E"/>
<path d="M312.7 165.6C306.5 165.5 298.3 164.2 289.5 158.6L286 166.3C292.1 172.3 300.6 177.3 308.1 177.1C314 176.9 317 169.8 312.7 165.6Z" fill="#16C1B8"/>
<path d="M304.4 178C297.8 179.6 286.8 177.7 271.4 172.2C267.6 180.1 265.8 185.8 266.1 189.2C279.4 196.1 290.7 199.2 300.1 199.4C299.8 205 300.5 210.2 302.8 215.1C307.5 225 334.8 215.8 344 217.6C349.8 198.9 338.6 191.3 338.6 179.3C338.6 166.2 328.1 146 326.5 146H312.4C311.5 156 307.6 167.1 304.4 178Z" fill="#1CD3CA"/>
</svg>
