<svg width="80" height="80" viewBox="0 0 80 80" fill="none" xmlns="http://www.w3.org/2000/svg">
  <path d="M73.031 40.4C72.7435 58.8184 58.0494 73.5128 39.631 73.8C21.2126 74.0875 6.51263 58.3872 6.23103 40.4C5.94353 21.9816 21.6438 7.2816 39.631 7C58.0494 6.7125 72.7494 22.4128 73.031 40.4C73.0685 42.7187 76.6685 42.7218 76.631 40.4C76.3623 23.116 64.5902 8.284 47.731 4.2904C30.8782 0.299759 13.415 9.43104 6.06863 24.8248C-1.22513 40.1088 3.53111 59.3464 16.9406 69.6064C30.8566 80.2536 49.9902 79.6504 63.4934 68.6689C71.9278 61.8126 76.4622 51.1281 76.631 40.4001C76.6685 38.0782 73.0686 38.0814 73.031 40.4001V40.4Z" fill="white"/>
  <path d="M49.5309 33.6656C50.1996 32.5718 51.1059 31.5437 52.1309 30.7718C55.1027 28.5405 57.3746 31.0593 58.9558 33.6656C60.159 35.6469 63.2714 33.8406 62.0652 31.85C59.8621 28.225 56.2902 24.85 51.8092 26.8313C49.5654 27.8219 47.6936 29.7719 46.4248 31.85C45.2123 33.8375 48.3248 35.6437 49.531 33.6656H49.5309Z" fill="white"/>
  <path d="M20.5936 33.6656C21.2623 32.5718 22.1686 31.5437 23.1936 30.7718C26.1654 28.5405 28.4373 31.0593 30.0154 33.6656C31.2185 35.6469 34.331 33.8406 33.1248 31.85C30.9216 28.225 27.3497 24.85 22.8688 26.8313C20.625 27.8219 18.7532 29.7719 17.4844 31.85C16.2719 33.8375 19.3844 35.6437 20.5937 33.6656H20.5936Z" fill="white"/>
  <path d="M23.6684 52.5504C26.684 55.466 30.5402 57.5691 34.4932 58.8942C42.662 61.6286 50.4964 58.4067 56.3308 52.5504C57.4246 51.4535 55.7277 49.7566 54.6339 50.8535C48.9308 56.5754 42.0811 58.9031 34.3123 56.3035C31.0842 55.2222 27.8248 53.2254 25.3651 50.8535C24.2526 49.7754 22.5558 51.4723 23.6682 52.5504H23.6684Z" fill="white"/>
</svg>
