<svg width="20" height="20" viewBox="0 0 20 20" fill="none" xmlns="http://www.w3.org/2000/svg">
<path fill-rule="evenodd" clip-rule="evenodd" d="M16.6668 12.166L14.3259 9.99937L16.6668 7.83354V12.166ZM12.5001 13.3327C12.5001 13.7927 12.1267 14.166 11.6667 14.166H4.16675C3.70675 14.166 3.33341 13.7927 3.33341 13.3327V6.66602C3.33341 6.20685 3.70675 5.83268 4.16675 5.83268H11.6667C12.1267 5.83268 12.5001 6.20685 12.5001 6.66602V13.3327ZM17.5101 5.95435C16.9884 5.72685 16.3834 5.82602 15.9676 6.20935L14.1667 7.87602V6.66602C14.1667 5.28768 13.0451 4.16602 11.6667 4.16602H4.16675C2.78841 4.16602 1.66675 5.28768 1.66675 6.66602V13.3327C1.66675 14.7118 2.78841 15.8327 4.16675 15.8327H11.6667C13.0451 15.8327 14.1667 14.7118 14.1667 13.3327V12.1235L15.9676 13.7893C16.2342 14.0368 16.5801 14.166 16.9326 14.166C17.1276 14.166 17.3234 14.1268 17.5101 14.0452C18.0176 13.8235 18.3334 13.3493 18.3334 12.8085V7.19102C18.3334 6.65018 18.0176 6.17602 17.5101 5.95435Z" fill="white"/>
<mask id="mask0" mask-type="alpha" maskUnits="userSpaceOnUse" x="1" y="4" width="18" height="12">
<path fill-rule="evenodd" clip-rule="evenodd" d="M16.6668 12.166L14.3259 9.99937L16.6668 7.83354V12.166ZM12.5001 13.3327C12.5001 13.7927 12.1267 14.166 11.6667 14.166H4.16675C3.70675 14.166 3.33341 13.7927 3.33341 13.3327V6.66602C3.33341 6.20685 3.70675 5.83268 4.16675 5.83268H11.6667C12.1267 5.83268 12.5001 6.20685 12.5001 6.66602V13.3327ZM17.5101 5.95435C16.9884 5.72685 16.3834 5.82602 15.9676 6.20935L14.1667 7.87602V6.66602C14.1667 5.28768 13.0451 4.16602 11.6667 4.16602H4.16675C2.78841 4.16602 1.66675 5.28768 1.66675 6.66602V13.3327C1.66675 14.7118 2.78841 15.8327 4.16675 15.8327H11.6667C13.0451 15.8327 14.1667 14.7118 14.1667 13.3327V12.1235L15.9676 13.7893C16.2342 14.0368 16.5801 14.166 16.9326 14.166C17.1276 14.166 17.3234 14.1268 17.5101 14.0452C18.0176 13.8235 18.3334 13.3493 18.3334 12.8085V7.19102C18.3334 6.65018 18.0176 6.17602 17.5101 5.95435Z" fill="white"/>
</mask>
<g mask="url(#mask0)">
<rect width="20" height="20" fill="white"/>
</g>
</svg>
