<svg width="969" height="427" viewBox="0 0 969 427" fill="none" xmlns="http://www.w3.org/2000/svg">
<path d="M322.4 103C326.376 103 329.6 99.866 329.6 96C329.6 92.134 326.376 89 322.4 89C318.423 89 315.2 92.134 315.2 96C315.2 99.866 318.423 103 322.4 103Z" fill="#307205"/>
<path d="M289.5 96.0997L322.6 70.1997L355.7 96.0997H289.5Z" fill="#153301"/>
<path d="M322.6 71.8998C322.1 71.8998 321.7 71.0998 321.7 69.9998L322.7 -15.8002C322.7 -16.8002 323.1 -17.7002 323.6 -17.7002C324.1 -17.7002 324.5 -16.9002 324.5 -15.8002L323.5 69.9998C323.6 71.0998 323.1 71.8998 322.6 71.8998Z" fill="#153301"/>
<path opacity="0.3" d="M-8 347.6L289.6 96.1997H355.8L652 373.1C653 423.1 85 472.6 -8 347.6Z" fill="url(#paint0_linear)"/>
<path d="M681.4 106C685.376 106 688.6 102.866 688.6 99C688.6 95.134 685.376 92 681.4 92C677.424 92 674.2 95.134 674.2 99C674.2 102.866 677.424 106 681.4 106Z" fill="#307205"/>
<path d="M648.5 99.0997L681.6 73.1997L714.8 99.0997H648.5Z" fill="#153301"/>
<path d="M681.6 74.8998C681.1 74.8998 680.7 73.9998 680.7 72.7998L682 -23.6002C682 -24.8002 682.4 -25.7002 682.9 -25.7002C683.4 -25.7002 683.8 -24.8002 683.8 -23.6002L682.5 72.7998C682.6 73.9998 682.1 74.8998 681.6 74.8998Z" fill="#153301"/>
<path opacity="0.3" d="M374.3 333.8L648.1 99.1997H714.3L968.5 344.6C969.5 394.6 467.3 458.8 374.3 333.8Z" fill="url(#paint1_linear)"/>
<defs>
<linearGradient id="paint0_linear" x1="324.202" y1="93.1328" x2="321.325" y2="446.022" gradientUnits="userSpaceOnUse">
<stop stop-color="white"/>
<stop offset="0.8752" stop-color="white" stop-opacity="0"/>
</linearGradient>
<linearGradient id="paint1_linear" x1="673.352" y1="96.25" x2="670.673" y2="424.879" gradientUnits="userSpaceOnUse">
<stop stop-color="white"/>
<stop offset="0.8752" stop-color="white" stop-opacity="0"/>
</linearGradient>
</defs>
</svg>
