<svg width="501" height="500" viewBox="0 0 501 500" fill="none" xmlns="http://www.w3.org/2000/svg">
<path d="M213 -1.3999H-2.59985V499.6H213V-1.3999Z" fill="#204F01"/>
<path d="M214 232.1H406.4L180 500.1L-0.5 499.6L-1 409.6L214 232.1Z" fill="#93D14A"/>
<path d="M180 500.1L406.5 232.7V292.6L252.5 500.6L180 500.1Z" fill="#276002"/>
<path d="M22.9001 355.1L135.4 278.9L228.9 280.7L140 355.1H22.9001Z" fill="#F25F78"/>
<path d="M140 355.1V454.9L228.9 361.4V280.7L140 355.1Z" fill="#CC364B"/>
<path d="M23.8 453.1V355.1H140V454.9L23.8 453.1Z" fill="#7C0139"/>
<path d="M123.9 309.6C115.7 309.6 109 311.4 109 313.6C109 315.8 115.7 317.6 123.9 317.6C132.1 317.6 138.8 315.8 138.8 313.6C138.7 311.4 132.1 309.6 123.9 309.6Z" fill="#204F01"/>
<path d="M123.9 310C127.8 310 131.5 310.4 134.3 311.2C135.6 311.5 136.7 312 137.4 312.4C137.8 312.7 138.4 313.1 138.4 313.6C138.4 314.1 137.9 314.5 137.4 314.8C136.7 315.2 135.6 315.7 134.3 316C131.5 316.7 127.8 317.2 123.9 317.2C120 317.2 116.3 316.8 113.5 316C112.2 315.7 111.1 315.2 110.4 314.8C110 314.5 109.4 314.1 109.4 313.6C109.4 313.1 109.9 312.7 110.4 312.4C111.1 312 112.2 311.5 113.5 311.2C116.3 310.4 120 310 123.9 310ZM123.9 309.6C115.7 309.6 109 311.4 109 313.6C109 315.8 115.7 317.6 123.9 317.6C132.1 317.6 138.8 315.8 138.8 313.6C138.7 311.4 132.1 309.6 123.9 309.6Z" fill="#D0F792"/>
<path d="M108.23 295.576C108.444 295.519 108.593 295.386 108.565 295.279C108.536 295.172 108.34 295.132 108.127 295.19C107.913 295.247 107.763 295.38 107.792 295.487C107.821 295.593 108.017 295.633 108.23 295.576Z" fill="black"/>
<path d="M111.286 303.17L109.065 303.766L117.602 335.538L119.823 334.941L111.286 303.17Z" fill="#93D14A"/>
<path d="M110.492 304.236L109.623 304.469L117.979 335.565L118.848 335.331L110.492 304.236Z" fill="#48AA09"/>
<path d="M119.3 337.3C119.4 337.3 119.5 337.3 119.5 337.4L119.9 339.1C119.9 339.2 119.9 339.3 119.8 339.3C119.7 339.3 119.6 339.3 119.6 339.2L119.2 337.5C119.2 337.5 119.2 337.4 119.3 337.3Z" fill="#CCCCCC"/>
<path d="M117.6 335.5L119.3 338.8L120.1 338.5L119.9 334.9L117.6 335.5Z" fill="#48AA09"/>
<path d="M109 304.7L108.1 301C108.1 301 107.5 296.3 107.5 295.6C107.5 295 108.3 294.9 108.5 295C108.7 295.1 110.8 299.8 110.8 300C110.9 300.2 111.9 303.7 111.9 303.7C111.9 303.7 113.6 309.1 113.5 309.4C113.4 309.7 113.3 309.7 113.2 309.8C113 309.8 112.9 309.7 112.8 309.4C112.7 309.1 111.3 304.6 111.3 304.4C111.3 304.2 110.6 304.7 110 304.8C109.6 305 109 304.7 109 304.7Z" fill="#48AA09"/>
<path d="M121.335 291.42C121.338 291.31 121.162 291.215 120.941 291.208C120.72 291.202 120.539 291.286 120.535 291.396C120.532 291.507 120.708 291.602 120.929 291.608C121.15 291.615 121.332 291.53 121.335 291.42Z" fill="black"/>
<path d="M118.636 332.467L120.936 332.535L121.912 299.649L119.613 299.58L118.636 332.467Z" fill="#93D14A"/>
<path d="M119.635 332.718L120.535 332.744L121.49 300.557L120.591 300.531L119.635 332.718Z" fill="#B1E869"/>
<path d="M119.7 334.8C119.6 334.8 119.5 334.9 119.5 335L119.4 336.7C119.4 336.8 119.5 336.9 119.6 336.9C119.7 336.9 119.8 336.8 119.8 336.7L119.9 335C119.9 334.9 119.8 334.8 119.7 334.8Z" fill="#CCCCCC"/>
<path d="M120.9 332.6L120.1 336.2L119.3 336.1L118.6 332.5L120.9 332.6Z" fill="#D0F792"/>
<path d="M122.2 300.6V296.8C122.2 296.8 121.7 292 121.5 291.4C121.3 290.8 120.6 290.9 120.3 291C120.1 291.1 119.2 296.2 119.2 296.4C119.2 296.6 119 300.3 119 300.3C119 300.3 118.6 306 118.7 306.2C118.9 306.5 118.9 306.5 119.1 306.5C119.3 306.5 119.4 306.3 119.4 306C119.4 305.7 119.7 301 119.7 300.8C119.7 300.6 120.4 300.9 121 300.9C121.7 301 122.2 300.6 122.2 300.6Z" fill="#D0F792"/>
<path d="M113.022 292.889C113.24 292.85 113.4 292.73 113.381 292.622C113.361 292.513 113.169 292.456 112.952 292.495C112.734 292.535 112.574 292.654 112.593 292.763C112.613 292.872 112.805 292.928 113.022 292.889Z" fill="black"/>
<path d="M119.262 333.359L121.525 332.953L115.709 300.572L113.445 300.979L119.262 333.359Z" fill="#378E04"/>
<path d="M120.292 333.417L121.178 333.258L115.485 301.566L114.599 301.725L120.292 333.417Z" fill="#58C114"/>
<path d="M120.8 335.4C120.7 335.4 120.6 335.5 120.6 335.6L120.9 337.3C120.9 337.4 121 337.5 121.1 337.5C121.2 337.5 121.3 337.4 121.3 337.3L121 335.6C121 335.4 120.9 335.3 120.8 335.4Z" fill="#CCCCCC"/>
<path d="M121.5 333L121.4 336.7L120.6 336.8L119.2 333.4L121.5 333Z" fill="#307205"/>
<path d="M116.2 301.5L115.4 297.8C115.4 297.8 113.9 293.2 113.6 292.7C113.3 292.1 112.6 292.4 112.4 292.6C112.2 292.8 112.4 297.9 112.5 298.1C112.6 298.3 113.1 301.9 113.1 301.9C113.1 301.9 113.8 307.5 114.1 307.8C114.3 308 114.4 308 114.5 308C114.6 308 114.7 307.8 114.7 307.5C114.7 307.2 114 302.5 113.9 302.4C113.9 302.2 114.6 302.4 115.2 302.2C115.8 302 116.2 301.5 116.2 301.5Z" fill="#307205"/>
<path d="M139.059 294.167C139.071 294.057 138.902 293.949 138.682 293.926C138.462 293.903 138.275 293.974 138.263 294.084C138.252 294.194 138.421 294.301 138.641 294.324C138.86 294.347 139.048 294.277 139.059 294.167Z" fill="black"/>
<path d="M133.409 334.976L135.696 335.215L139.115 302.492L136.827 302.253L133.409 334.976Z" fill="#378E04"/>
<path d="M134.355 335.22L135.25 335.314L138.596 303.288L137.7 303.194L134.355 335.22Z" fill="#58C114"/>
<path d="M134.3 337.3C134.2 337.3 134.1 337.4 134.1 337.5L133.9 339.2C133.9 339.3 134 339.4 134.1 339.4C134.2 339.4 134.3 339.3 134.3 339.2L134.5 337.5C134.5 337.4 134.4 337.3 134.3 337.3Z" fill="#CCCCCC"/>
<path d="M135.7 335.2L134.5 338.7L133.7 338.6L133.3 335L135.7 335.2Z" fill="#307205"/>
<path d="M139.3 303.5L139.6 299.7C139.6 299.7 139.5 294.9 139.3 294.3C139.2 293.7 138.4 293.8 138.2 293.9C138 294 136.7 299 136.7 299.2C136.7 299.4 136.2 303 136.2 303C136.2 303 135.3 308.6 135.5 308.9C135.7 309.2 135.7 309.2 135.9 309.2C136.1 309.2 136.2 309 136.2 308.7C136.2 308.4 136.9 303.7 136.9 303.6C136.9 303.5 137.6 303.8 138.2 303.8C138.8 303.8 139.3 303.5 139.3 303.5Z" fill="#307205"/>
<path d="M129.644 292.344C129.647 292.233 129.471 292.138 129.25 292.132C129.029 292.125 128.848 292.209 128.844 292.32C128.841 292.43 129.017 292.525 129.238 292.532C129.459 292.538 129.641 292.454 129.644 292.344Z" fill="black"/>
<path d="M126.97 333.382L129.269 333.45L130.245 300.564L127.946 300.495L126.97 333.382Z" fill="#93D14A"/>
<path d="M127.969 333.633L128.868 333.659L129.824 301.472L128.924 301.446L127.969 333.633Z" fill="#B1E869"/>
<path d="M128 335.7C127.9 335.7 127.8 335.8 127.8 335.9L127.7 337.6C127.7 337.7 127.8 337.8 127.9 337.8C128 337.8 128.1 337.7 128.1 337.6L128.2 335.9C128.2 335.8 128.1 335.7 128 335.7Z" fill="#CCCCCC"/>
<path d="M129.3 333.5L128.4 337.1L127.6 337L126.9 333.4L129.3 333.5Z" fill="#D0F792"/>
<path d="M130.5 301.5V297.7C130.5 297.7 130 292.9 129.8 292.3C129.6 291.7 128.9 291.8 128.6 291.9C128.4 292 127.5 297.1 127.5 297.3C127.5 297.5 127.3 301.2 127.3 301.2C127.3 301.2 126.9 306.9 127 307.1C127.2 307.4 127.2 307.4 127.4 307.4C127.6 307.4 127.7 307.2 127.7 306.9C127.7 306.6 128 301.9 128 301.7C128 301.5 128.7 301.8 129.3 301.8C129.9 301.8 130.5 301.5 130.5 301.5Z" fill="#D0F792"/>
<path d="M136.226 293.719C136.254 293.612 136.105 293.479 135.891 293.422C135.678 293.365 135.482 293.405 135.453 293.511C135.424 293.618 135.574 293.751 135.787 293.808C136.001 293.866 136.197 293.826 136.226 293.719Z" fill="black"/>
<path d="M124.163 333.112L126.384 333.709L134.922 301.937L132.7 301.341L124.163 333.112Z" fill="#93D14A"/>
<path d="M125.084 333.449L125.954 333.683L134.31 302.587L133.44 302.354L125.084 333.449Z" fill="#48AA09"/>
<path d="M124.7 335.5C124.6 335.5 124.5 335.5 124.5 335.6L124.1 337.3C124.1 337.4 124.1 337.5 124.2 337.5C124.3 337.5 124.4 337.5 124.4 337.4L124.8 335.7C124.8 335.6 124.8 335.5 124.7 335.5Z" fill="#CCCCCC"/>
<path d="M126.4 333.6L124.7 336.9L123.9 336.7L124.1 333L126.4 333.6Z" fill="#48AA09"/>
<path d="M135 302.9L135.9 299.2C135.9 299.2 136.5 294.5 136.5 293.8C136.5 293.2 135.7 293.1 135.5 293.2C135.3 293.3 133.2 298 133.2 298.2C133.1 298.4 132.1 301.9 132.1 301.9C132.1 301.9 130.4 307.3 130.5 307.6C130.6 307.9 130.7 307.9 130.8 308C131 308 131.1 307.9 131.2 307.6C131.3 307.3 132.7 302.8 132.7 302.6C132.7 302.4 133.4 302.9 134 303C134.6 303.1 135 302.9 135 302.9Z" fill="#48AA09"/>
<path d="M123.9 317.6C115.7 317.6 109 315.8 109 313.6C108.9 313.6 108.9 313.6 108.9 313.6L111.1 342.4C111.1 343.5 112.3 343.9 113.1 344.2C114.1 344.6 115.2 344.8 116.3 344.9C118.7 345.3 121.1 345.4 123.5 345.4C126.3 345.4 129.2 345.2 132 344.6C132.8 344.4 133.6 344.2 134.3 343.9C134.9 343.6 135.6 343.4 135.8 342.6C135.8 342.5 135.8 342.5 135.8 342.4C135.8 342.4 135.8 342.4 135.8 342.3L138.6 313.7C138 316 131.6 317.6 123.9 317.6Z" fill="#B1E869"/>
<path d="M114.5 344.6C113.7 344.3 111.9 344.2 111.9 343.1L109.8 315C109.8 315 109.8 315 109.9 315C109.9 315 112.7 315.6 113 316.2C113.4 316.9 114.5 344.6 114.5 344.6Z" fill="#D0F792"/>
<path d="M109 313.6C109 315.8 115.7 317.6 123.9 317.6C132.1 317.6 138.8 315.8 138.8 313.6H138.4C138.4 314.1 137.9 314.5 137.4 314.8C136.7 315.2 135.6 315.7 134.3 316C131.5 316.7 127.8 317.2 123.9 317.2C120 317.2 116.3 316.8 113.5 316C112.2 315.7 111.1 315.2 110.4 314.8C110 314.5 109.4 314.1 109.4 313.6H109Z" fill="#93D14A"/>
<path d="M36.1001 334.5C35.2001 333.3 33.9001 332.4 32.7001 331.6C32.4001 331.4 31.9001 331.5 31.7001 331.9C30.7001 333.7 29.8001 335.6 28.7001 337.3C28.3001 337.9 27.8001 338.6 27.3001 339C27.3001 339 27.2001 339.1 27.1001 339.1C27.0001 339 27.0001 338.8 26.9001 338.7C26.0001 336 27.1001 333.2 26.4001 330.5C26.0001 329.1 25.1001 327.6 24.1001 326.6C23.0001 325.5 21.5001 325 20.8001 323.4C20.5001 322.8 19.8001 323 19.5001 323.4C17.9001 325.7 15.7001 328.1 15.2001 331C14.8001 333.6 16.2001 335.7 17.7001 337.6C18.4001 338.5 19.1001 339.5 19.7001 340.5C20.0001 341.1 20.5001 342.1 20.0001 342.7C19.4001 343.3 18.5001 342.2 18.1001 341.8C17.2001 340.8 16.4001 339.7 15.5001 338.7C14.1001 336.9 12.0001 334.2 9.50007 334.7C8.40007 334.9 7.90007 336.1 7.90007 337.1C7.80007 338.7 8.60007 340.4 9.40007 341.8C11.2001 344.8 14.8001 345.7 17.1001 348.2C17.6001 348.8 19.1001 350.7 18.3001 351.5C18.0001 351.8 17.3001 351.7 17.0001 351.6C16.1001 351.5 15.2001 351.2 14.5001 350.6C11.9001 348.6 10.9001 345.1 8.20007 343.1C7.00007 342.3 5.10007 341.7 3.70007 342.1C2.50007 342.4 1.90007 343.5 1.80007 344.7C1.70007 346.1 2.40007 347.6 3.10007 348.8C3.90007 350.2 5.10007 351.3 6.40007 352.1C9.20007 353.7 12.7001 353.9 14.5001 356.8C14.8001 357.2 15.0001 357.7 14.9001 358.2C14.8001 358.6 14.3001 358.7 14.0001 358.8C12.6001 359.1 10.7001 358.6 9.50007 357.9C8.00007 357.1 6.90007 355.6 5.70007 354.4C4.50007 353.1 3.10007 352.1 1.40007 351.5C0.200071 351.1 -1.39993 351.2 -2.19993 352.4C-2.89993 353.5 -2.79993 354.9 -2.49993 356.1C-2.09993 357.7 -1.19993 359.1 -0.199932 360.3C0.900068 361.6 2.70007 362.4 4.30007 362.9C6.00007 363.5 7.70007 363.8 9.40007 364.4C9.80007 364.6 10.2001 364.7 10.7001 364.7C11.2001 364.7 11.7001 364.7 12.2001 364.8C12.6001 364.9 12.3001 365.4 12.2001 365.7C11.9001 366.4 10.8001 366.4 10.1001 366.5C9.50007 366.6 8.80007 366.7 8.10007 366.7C7.30007 366.7 6.60007 366.6 5.90007 366.5C4.40007 366.3 2.90007 366 1.40007 366.5C7.05719e-05 366.9 -0.999932 368.2 -1.19993 369.7C-1.69993 372.7 1.60007 374.5 4.10007 374.9C5.70007 375.1 7.10007 374.8 8.50007 374C10.2001 373 11.6001 371.6 13.5001 371.4C13.6001 372.2 13.4001 372.8 12.6001 373.4C11.6001 374.2 10.3001 374.7 9.10007 375.1C6.80007 376 3.40007 376.7 2.20007 379.1C2.10007 379.4 2.10007 379.7 2.30007 380C3.40007 381 4.70007 381.9 6.20007 382C7.50007 382.1 8.70007 381.5 9.70007 380.8C11.6001 379.6 13.1001 377.7 15.2001 376.8C14.9001 377.3 14.4001 377.7 13.8001 378.1C12.8001 378.9 12.2001 380 11.9001 381.3C11.5001 383.2 12.1001 385.3 14.4001 385.3C15.6001 385.3 16.8001 384.7 17.9001 384.1C19.1001 383.4 20.0001 382.4 20.7001 381.2C21.6001 379.8 22.1001 378.2 22.4001 376.5C24.3001 380.1 28.3001 383.9 32.2001 380.8C35.5001 378.1 30.1001 376.1 28.0001 373.9C28.4001 374.1 28.8001 374.3 29.2001 374.5C30.3001 375.1 31.4001 375.7 32.5001 376.2C34.7001 377.1 37.1001 377 38.4001 374.8C39.5001 372.9 37.2001 372 35.8001 371.6C34.6001 371.2 32.5001 370.9 31.6001 369.7C34.5001 370 37.6001 370.4 40.1001 368.7C41.2001 368 42.6001 366.5 42.7001 365.1C42.8001 364 41.6001 363.5 40.7001 363.5C38.3001 363.3 35.9001 364.3 33.5001 364.3C32.9001 364.3 32.3001 364.2 31.8001 364.1C31.6001 364 31.4001 364 31.2001 363.9C31.1001 363.9 31.1001 363.8 31.0001 363.8C31.0001 363.8 31.0001 363.7 31.1001 363.7C31.3001 363.4 31.6001 363.3 31.9001 363.1C32.5001 362.7 33.2001 362.5 33.9001 362.4C35.3001 362.3 36.7001 362.4 38.2001 362.2C39.8001 361.9 41.1001 361 42.1001 359.8C43.0001 358.7 43.9001 357.4 44.1001 356C44.2001 354.5 43.4001 353.5 42.0001 353C38.3001 351.6 36.1001 355.4 33.5001 357.1C32.8001 357.6 32.0001 357.9 31.2001 358.1C30.9001 358.2 29.9001 358.5 29.6001 358.3C29.4001 358.2 30.0001 357.1 30.2001 356.9C30.7001 356 31.4001 355.4 32.3001 354.9C34.5001 353.6 37.2001 353.2 38.9001 351.2C40.0001 349.9 40.9001 347.7 39.8001 346.1C38.6001 344.4 36.0001 344.9 34.5001 345.8C32.6001 347 31.7001 349.6 29.4001 350.1C29.2001 349 29.6001 348 30.3001 347.1C31.4001 345.7 32.7001 344.6 34.0001 343.4C35.2001 342.2 36.4001 341 37.1001 339.4C37.5001 337.4 37.1001 335.8 36.1001 334.5Z" fill="#153301"/>
<path d="M91.9001 386C92.3001 384.6 92.2001 383 92.0001 381.6C92.0001 381.2 91.5001 380.9 91.2001 381C89.2001 381.4 87.2001 381.8 85.1001 382C84.4001 382.1 83.5001 382.1 83.0001 382C83.0001 382 82.9001 381.9 82.8001 381.9C82.9001 381.8 82.9001 381.6 83.0001 381.5C84.6001 379.2 87.4001 378.2 89.1001 376C90.0001 374.8 90.6001 373.2 90.8001 371.8C91.0001 370.2 90.5001 368.7 91.2001 367.3C91.5001 366.8 90.9001 366.3 90.4001 366.3C87.6001 366.5 84.3001 366.2 81.8001 367.6C79.6001 368.9 78.7001 371.3 78.1001 373.7C77.8001 374.8 77.5001 376 77.0001 377.1C76.7001 377.7 76.2001 378.7 75.5001 378.7C74.7001 378.6 75.0001 377.3 75.0001 376.6C75.2001 375.3 75.6001 374 75.9001 372.6C76.5001 370.4 77.3001 367.1 75.3001 365.4C74.4001 364.7 73.2001 365 72.4001 365.6C71.1001 366.5 70.2001 368.2 69.7001 369.6C68.4001 372.9 70.0001 376.3 69.5001 379.6C69.4001 380.4 68.8001 382.7 67.6001 382.5C67.2001 382.4 66.8001 381.9 66.7001 381.5C66.3001 380.7 65.9001 379.8 65.9001 378.9C65.9001 375.6 68.0001 372.7 67.8001 369.3C67.7001 367.8 67.0001 366.1 65.8001 365.1C64.8001 364.3 63.6001 364.6 62.6001 365.3C61.5001 366.1 60.7001 367.5 60.2001 368.8C59.6001 370.3 59.4001 371.9 59.7001 373.5C60.2001 376.7 62.2001 379.5 61.1001 382.8C61.0001 383.2 60.7001 383.8 60.2001 384C59.8001 384.2 59.4001 383.8 59.2001 383.6C58.1001 382.7 57.3001 380.9 57.1001 379.5C56.8001 377.8 57.3001 376.1 57.5001 374.4C57.8001 372.6 57.7001 370.9 57.1001 369.3C56.6001 368.1 55.6001 366.9 54.2001 367C52.9001 367.1 51.9001 368.1 51.1001 369.1C50.1001 370.4 49.5001 372 49.2001 373.5C48.9001 375.2 49.4001 377.1 50.0001 378.7C50.6001 380.4 51.4001 381.9 51.9001 383.6C52.0001 384 52.2001 384.4 52.4001 384.8C52.7001 385.2 53.0001 385.6 53.2001 386.1C53.4001 386.5 52.8001 386.5 52.5001 386.6C51.7001 386.8 51.1001 385.9 50.6001 385.4C50.2001 384.9 49.6001 384.5 49.2001 384C48.7001 383.4 48.4001 382.7 48.0001 382.1C47.3001 380.8 46.5001 379.4 45.3001 378.6C44.1001 377.8 42.4001 377.8 41.2001 378.5C38.5001 379.9 39.2001 383.7 40.4001 385.8C41.2001 387.2 42.3001 388.1 43.8001 388.7C45.6001 389.4 47.6001 389.6 49.0001 391.1C48.5001 391.7 47.8001 391.9 46.9001 391.7C45.7001 391.4 44.5001 390.7 43.4001 390C41.3001 388.7 38.6001 386.5 36.0001 387.1C35.7001 387.2 35.4001 387.4 35.4001 387.7C35.3001 389.2 35.4001 390.7 36.3001 392C37.0001 393.1 38.2001 393.7 39.4001 394.1C41.5001 394.8 44.0001 394.9 45.9001 396C45.3001 396.1 44.7001 395.9 44.0001 395.8C42.7001 395.5 41.5001 395.8 40.4001 396.3C38.6001 397.1 37.4001 398.9 38.8001 400.7C39.6001 401.7 40.8001 402.2 41.9001 402.7C43.2001 403.2 44.5001 403.3 45.9001 403.1C47.6001 402.9 49.1001 402.3 50.6001 401.5C48.9001 405.2 48.4001 410.8 53.3001 411.8C57.4001 412.7 55.7001 407.2 56.1001 404.2C56.2001 404.6 56.3001 405.1 56.4001 405.5C56.6001 406.7 56.8001 408 57.2001 409.2C57.8001 411.4 59.4001 413.3 62.0001 412.9C64.2001 412.6 63.5001 410.2 62.9001 408.8C62.5001 407.7 61.4001 405.7 61.8001 404.4C63.3001 406.8 65.0001 409.5 67.8001 410.5C69.1001 410.9 71.0001 411.1 72.2001 410.3C73.2001 409.7 72.7001 408.4 72.2001 407.7C70.9001 405.6 68.6001 404.4 67.1001 402.5C66.7001 402 66.4001 401.5 66.2001 401C66.1001 400.8 66.0001 400.6 66.0001 400.4C66.0001 400.3 66.0001 400.2 66.0001 400.1H66.1001C66.4001 400.1 66.8001 400.2 67.1001 400.3C67.8001 400.5 68.4001 400.9 68.9001 401.4C69.9001 402.4 70.6001 403.6 71.7001 404.6C72.9001 405.7 74.4001 406.1 76.0001 406.2C77.4001 406.3 79.0001 406.2 80.2001 405.4C81.5001 404.6 81.7001 403.3 81.3001 401.9C80.1001 398.1 75.8001 398.8 72.8001 397.8C72.0001 397.5 71.2001 397.1 70.6001 396.6C70.3001 396.4 69.5001 395.9 69.5001 395.5C69.5001 395.3 70.7001 395.1 70.9001 395.1C71.9001 395 72.8001 395.1 73.7001 395.5C76.1001 396.5 78.0001 398.3 80.7001 398.5C82.4001 398.6 84.7001 397.9 85.3001 396.1C85.9001 394.1 83.9001 392.3 82.2001 391.8C80.1001 391.1 77.5001 391.9 75.6001 390.5C76.3001 389.7 77.4001 389.4 78.5001 389.4C80.2001 389.4 82.0001 389.7 83.7001 390C85.3001 390.2 87.1001 390.4 88.7001 389.9C90.5001 388.9 91.5001 387.6 91.9001 386Z" fill="#153301"/>
<path d="M-7.29991 345.7C-8.69991 345.2 -10.1999 345 -11.6999 345C-12.0999 345 -12.3999 345.4 -12.3999 345.8C-12.2999 347.9 -12.0999 349.9 -12.1999 352C-12.1999 352.7 -12.2999 353.6 -12.4999 354.1C-12.4999 354.1 -12.5999 354.2 -12.5999 354.3C-12.6999 354.2 -12.8999 354.1 -12.9999 354C-15.0999 352.2 -15.6999 349.2 -17.5999 347.2C-18.5999 346.2 -20.1999 345.4 -21.5999 345C-23.0999 344.6 -24.6999 344.9 -25.9999 344C-26.4999 343.6 -27.0999 344.2 -27.0999 344.7C-27.2999 347.5 -27.9999 350.7 -26.8999 353.4C-25.8999 355.8 -23.5999 356.9 -21.3999 357.8C-20.2999 358.2 -19.1999 358.7 -18.1999 359.3C-17.5999 359.6 -16.6999 360.3 -16.7999 361C-16.9999 361.8 -18.2999 361.4 -18.8999 361.2C-20.1999 360.8 -21.4999 360.3 -22.6999 359.8C-24.7999 359 -27.9999 357.7 -29.8999 359.5C-30.7999 360.3 -30.4999 361.5 -30.0999 362.4C-29.3999 363.8 -27.7999 364.9 -26.3999 365.6C-23.2999 367.3 -19.6999 366.2 -16.4999 367.1C-15.6999 367.3 -13.4999 368.2 -13.7999 369.3C-13.8999 369.7 -14.4999 370 -14.8999 370.1C-15.6999 370.4 -16.6999 370.6 -17.4999 370.5C-20.7999 370.1 -23.3999 367.6 -26.7999 367.4C-28.2999 367.3 -30.0999 367.8 -31.1999 368.9C-32.0999 369.8 -31.9999 371.1 -31.3999 372.1C-30.6999 373.3 -29.3999 374.3 -28.1999 374.9C-26.7999 375.6 -25.1999 376 -23.5999 376C-20.3999 375.9 -17.2999 374.3 -14.1999 375.8C-13.7999 376 -13.2999 376.3 -13.0999 376.8C-12.9999 377.2 -13.3999 377.5 -13.5999 377.8C-14.6999 378.8 -16.4999 379.3 -17.8999 379.4C-19.5999 379.5 -21.2999 378.8 -22.8999 378.4C-24.5999 377.9 -26.2999 377.7 -27.9999 378.2C-29.2999 378.5 -30.4999 379.4 -30.5999 380.8C-30.6999 382.1 -29.7999 383.2 -28.9999 384.1C-27.8999 385.2 -26.3999 386 -24.7999 386.5C-23.1999 387 -21.1999 386.8 -19.5999 386.4C-17.8999 386 -16.1999 385.4 -14.4999 385.1C-13.9999 385 -13.6999 384.9 -13.2999 384.7C-12.7999 384.5 -12.3999 384.2 -11.8999 384C-11.4999 383.9 -11.4999 384.4 -11.4999 384.7C-11.3999 385.5 -12.3999 386 -12.8999 386.4C-13.3999 386.8 -13.8999 387.3 -14.4999 387.6C-15.0999 388 -15.8999 388.3 -16.5999 388.5C-17.9999 389.1 -19.3999 389.6 -20.3999 390.8C-21.3999 391.9 -21.4999 393.5 -20.9999 394.9C-19.8999 397.7 -16.0999 397.6 -13.7999 396.6C-12.2999 396 -11.2999 395 -10.4999 393.6C-9.49991 391.9 -9.09991 390 -7.49991 388.8C-6.99991 389.4 -6.89991 390.1 -7.19991 391C-7.59991 392.2 -8.49991 393.3 -9.29991 394.2C-10.7999 396.1 -13.2999 398.5 -13.1999 401.2C-13.1999 401.5 -12.9999 401.8 -12.5999 401.9C-11.0999 402.2 -9.59991 402.3 -8.29991 401.6C-7.19991 401 -6.39991 399.9 -5.89991 398.8C-4.99991 396.8 -4.59991 394.4 -3.19991 392.5C-3.19991 393.1 -3.39991 393.6 -3.69991 394.3C-4.19991 395.5 -4.09991 396.7 -3.69991 398C-3.09991 399.9 -1.49991 401.3 0.400093 400.1C1.50009 399.5 2.20009 398.3 2.70009 397.3C3.30009 396.1 3.60009 394.7 3.60009 393.4C3.60009 391.7 3.20009 390.1 2.60009 388.5C6.10009 390.7 11.5001 391.8 13.2001 387.2C14.6001 383.2 8.90009 384.2 6.00009 383.5C6.40009 383.4 6.90009 383.4 7.30009 383.4C8.50009 383.3 9.80009 383.3 11.0001 383.1C13.3001 382.7 15.3001 381.4 15.3001 378.9C15.3001 376.7 12.8001 377.1 11.4001 377.5C10.2001 377.8 8.20009 378.6 6.90009 378C9.50009 376.8 12.4001 375.5 13.7001 372.8C14.3001 371.6 14.7001 369.7 14.1001 368.4C13.6001 367.4 12.3001 367.6 11.5001 368C9.30009 369.1 7.80009 371.2 5.70009 372.4C5.20009 372.7 4.70009 372.9 4.10009 373.1C3.90009 373.2 3.70009 373.2 3.50009 373.3C3.40009 373.3 3.30009 373.3 3.20009 373.3V373.2C3.30009 372.9 3.40009 372.6 3.50009 372.3C3.80009 371.6 4.30009 371.1 4.90009 370.6C6.00009 369.7 7.30009 369.2 8.40009 368.2C9.60009 367.1 10.3001 365.7 10.5001 364.1C10.8001 362.7 10.8001 361.1 10.2001 359.8C9.60009 358.4 8.30009 358 6.90009 358.3C3.00009 359 3.10009 363.4 1.70009 366.2C1.30009 367 0.800091 367.6 0.200092 368.3C9.15527e-05 368.6 -0.699911 369.3 -1.09991 369.3C-1.29991 369.3 -1.29991 368.1 -1.29991 367.9C-1.29991 366.9 -0.99991 366 -0.49991 365.1C0.700089 362.9 2.80009 361.2 3.30009 358.5C3.60009 356.8 3.20009 354.4 1.40009 353.6C-0.499907 352.8 -2.49991 354.5 -3.29991 356.1C-4.29991 358.1 -3.79991 360.8 -5.39991 362.4C-6.09991 361.6 -6.29991 360.5 -6.09991 359.3C-5.89991 357.6 -5.29991 355.9 -4.89991 354.2C-4.49991 352.6 -4.09991 350.9 -4.29991 349.2C-4.59991 347.5 -5.69991 346.3 -7.29991 345.7Z" fill="#153301"/>
<path d="M63.7 365.8C63.5 364.3 62.9 362.9 62.2 361.6C62 361.2 61.5 361.1 61.2 361.3C59.5 362.4 57.7 363.5 55.9 364.5C55.3 364.8 54.5 365.2 53.9 365.3H53.7C53.7 365.1 53.7 365 53.8 364.8C54.4 362.1 56.7 360.1 57.5 357.5C57.9 356.1 57.9 354.4 57.5 353C57.1 351.5 56.1 350.3 56.2 348.6C56.3 348 55.6 347.8 55.1 348C52.6 349.2 49.4 350.1 47.6 352.4C46 354.4 46.1 357 46.4 359.4C46.5 360.6 46.7 361.8 46.6 362.9C46.6 363.5 46.5 364.7 45.7 364.9C44.9 365.1 44.7 363.8 44.5 363.1C44.2 361.8 44 360.4 43.9 359.1C43.6 356.9 43.1 353.5 40.7 352.6C39.6 352.2 38.6 353 38.1 353.8C37.2 355.1 37 357 37 358.6C37 362.1 39.7 364.7 40.5 368C40.7 368.8 41 371.2 39.9 371.4C39.5 371.5 39 371.1 38.7 370.8C38 370.3 37.4 369.5 37.1 368.7C35.8 365.6 36.8 362.1 35.4 359.1C34.8 357.8 33.4 356.4 32 356C30.8 355.6 29.7 356.4 29.1 357.3C28.3 358.5 28.2 360.1 28.2 361.4C28.2 363 28.6 364.5 29.4 365.9C31 368.7 33.9 370.6 34.1 374C34.1 374.5 34.1 375.1 33.7 375.4C33.4 375.7 32.9 375.5 32.6 375.4C31.2 375 29.9 373.6 29.1 372.4C28.2 371 28 369.1 27.6 367.5C27.2 365.8 26.5 364.2 25.3 362.9C24.4 362 23.1 361.2 21.8 361.8C20.6 362.4 20 363.7 19.7 364.9C19.3 366.5 19.3 368.1 19.6 369.7C19.9 371.4 21.1 373 22.2 374.2C23.4 375.5 24.7 376.7 25.8 378C26.1 378.4 26.3 378.6 26.7 378.9C27.1 379.2 27.6 379.4 27.9 379.8C28.2 380.1 27.8 380.4 27.5 380.5C26.8 381 25.9 380.4 25.3 380.1C24.7 379.8 24.1 379.6 23.5 379.3C22.9 378.9 22.3 378.4 21.7 378C20.5 377.1 19.3 376.1 17.9 375.7C16.5 375.4 15 376 14 377.1C12.1 379.4 14 382.7 16 384.2C17.2 385.2 18.7 385.6 20.3 385.6C22.3 385.6 24.1 385.1 26 385.9C25.7 386.6 25.1 387.1 24.2 387.2C23 387.4 21.6 387.1 20.4 386.9C18 386.5 14.7 385.5 12.4 386.9C12.1 387.1 12 387.4 12.1 387.7C12.5 389.1 13.2 390.5 14.5 391.4C15.6 392.1 16.9 392.2 18.2 392.2C20.4 392.1 22.7 391.2 25 391.5C24.5 391.8 23.9 391.9 23.2 392C21.9 392.2 20.9 392.9 20 393.8C18.7 395.2 18.2 397.3 20.1 398.5C21.2 399.1 22.5 399.2 23.7 399.2C25.1 399.2 26.4 398.8 27.6 398.1C29.1 397.3 30.3 396.2 31.4 394.9C31.2 399 32.8 404.3 37.7 403.5C41.9 402.8 38.3 398.3 37.5 395.4C37.8 395.8 38 396.1 38.3 396.5C39 397.6 39.6 398.6 40.4 399.6C41.8 401.5 44 402.6 46.2 401.3C48.1 400.2 46.6 398.3 45.6 397.2C44.8 396.3 43.1 394.9 42.9 393.5C45.2 395.2 47.8 397.1 50.7 396.9C52 396.8 53.9 396.2 54.7 395.1C55.4 394.2 54.5 393.2 53.8 392.7C51.8 391.3 49.2 391 47.2 389.7C46.7 389.4 46.2 389 45.8 388.6C45.6 388.5 45.5 388.3 45.4 388.1C45.3 388 45.3 387.9 45.3 387.9C45.3 387.9 45.4 387.9 45.4 387.8C45.7 387.7 46 387.7 46.4 387.7C47.1 387.7 47.8 387.8 48.5 388.1C49.8 388.7 50.9 389.5 52.3 390C53.8 390.6 55.4 390.4 56.9 389.9C58.2 389.5 59.7 388.8 60.5 387.6C61.4 386.4 61.1 385.1 60.2 384C57.7 380.9 53.9 383.1 50.8 383.3C50 383.3 49.1 383.2 48.3 383C48 382.9 47 382.7 46.8 382.4C46.7 382.2 47.8 381.6 48 381.5C48.9 381 49.8 380.8 50.8 380.9C53.3 380.9 55.9 381.9 58.4 381.1C60 380.5 61.9 379.1 61.8 377.1C61.6 375 59.1 374.1 57.3 374.2C55.1 374.3 53 376 50.7 375.4C51.1 374.4 51.9 373.7 53 373.3C54.6 372.6 56.4 372.3 58.1 371.9C59.7 371.5 61.4 371 62.7 370C63.5 369.1 64 367.5 63.7 365.8Z" fill="#276002"/>
<path d="M52.9001 351.7C52.0001 355.4 51.3001 359.1 50.3001 362.7C49.2001 366.4 47.7001 369.9 45.5001 373.1C41.1001 379.8 35.5001 385.6 31.0001 392.2C30.8001 392.5 30.9001 392.7 31.0001 392.9C30.1001 394.5 29.6001 396.4 29.3001 398.2C28.7001 401.3 28.5001 404.5 28.3001 407.7C28.2001 411.6 28.2001 415.4 28.4001 419.3C28.6001 423.9 28.9001 428.4 28.7001 433C28.7001 433.3 28.7001 433.5 28.7001 433.8C28.6001 434.7 30.1001 434.7 30.2001 433.8C30.5001 429.3 30.2001 424.9 30.0001 420.4C29.8001 416.4 29.7001 412.5 29.9001 408.5C30.0001 405.4 30.2001 402.3 30.7001 399.3C31.2001 396.5 31.9001 393.4 34.0001 391.4C34.3001 391.1 34.3001 390.8 34.1001 390.5C38.3001 384.7 43.2001 379.5 47.1001 373.5C49.2001 370.3 50.7001 366.8 51.8001 363.2C52.9001 359.5 53.7001 355.7 54.5001 351.9C54.6001 351.1 53.1001 350.7 52.9001 351.7Z" fill="#276002"/>
<path d="M29 434.1C28.2 427 24.9 420.6 21.5 414.4C18.1 408.3 14.6 402 13.6 395C13.5 394.1 12 394.5 12.2 395.4C14.3 409.4 26 419.9 27.6 434.1C27.7 435.1 29.1 435.1 29 434.1Z" fill="#58C114"/>
<path d="M50.6001 400.7C44.3001 403.4 38.2001 407.6 34.0001 413.1C31.7001 416.1 30.4001 419.5 29.5001 423C29.2001 419.3 28.5001 415.6 27.8001 412C26.2001 403.5 24.9001 395 24.1001 386.3C23.8001 382.9 23.5001 379.5 23.4001 376C23.4001 375.1 21.9001 375.1 21.9001 376C22.3001 385.5 23.4001 395 24.9001 404.4C25.9001 410.8 27.6001 417.1 28.1001 423.5C27.5001 420 26.7001 416.6 25.6001 413.2C24.1001 408.4 22.0001 403.8 19.3001 399.5C19.3001 399.3 19.3001 399.1 19.1001 398.9C18.9001 398.7 18.7001 398.5 18.5001 398.3C17.8001 397.3 17.1001 396.3 16.4001 395.4C16.1001 395 15.6001 395.1 15.4001 395.5C14.3001 394.6 13.1001 393.9 11.8001 393.2C8.80006 391.6 5.00005 390.6 3.60005 387.2C3.20005 386.3 2.00006 387.1 2.30006 387.9C3.70006 391.3 7.20006 392.6 10.3001 394C13.0001 395.3 15.4001 397.1 17.4001 399.2C20.3001 403.7 22.5001 408.6 24.1001 413.7C26.1001 419.8 27.2001 426.3 27.2001 432.8V432.9C27.1001 433.4 27.5001 433.7 27.9001 433.7C28.1001 434.4 29.3001 434.3 29.3001 433.4C29.8001 426.5 30.6001 419.2 35.1001 413.5C39.2001 408.3 45.1001 404.3 51.2001 401.7C52.2001 401.6 51.4001 400.4 50.6001 400.7Z" fill="#153301"/>
<path d="M6.70015 351.5C5.40015 350.8 3.90015 350.6 2.40015 350.4C2.00015 350.4 1.60014 350.7 1.60014 351.1C1.50014 353.2 1.50014 355.2 1.20015 357.2C1.10015 357.9 1.00014 358.8 0.700146 359.3C0.700146 359.3 0.600143 359.4 0.600143 359.5C0.500143 359.4 0.300146 359.3 0.200146 359.2C-1.69985 357.2 -1.99986 354.1 -3.79985 352C-4.69985 350.9 -6.19985 349.9 -7.49985 349.4C-8.99985 348.9 -10.5999 349 -11.7999 348C-12.2999 347.6 -12.8999 348.1 -12.8999 348.6C-13.3999 351.4 -14.3999 354.5 -13.4999 357.3C-12.6999 359.8 -10.5999 361.1 -8.39985 362.2C-7.29985 362.7 -6.29985 363.3 -5.39985 364C-4.89985 364.4 -3.99986 365.1 -4.19986 365.9C-4.49986 366.7 -5.69985 366.1 -6.29985 365.9C-7.59985 365.4 -8.79985 364.8 -9.99985 364.1C-11.9999 363.1 -15.0999 361.5 -17.0999 363.1C-17.9999 363.8 -17.8999 365 -17.4999 366C-16.8999 367.5 -15.3999 368.7 -14.1999 369.6C-11.2999 371.6 -7.59985 370.8 -4.49985 372C-3.79985 372.3 -1.59986 373.4 -1.99986 374.5C-2.09986 374.9 -2.79986 375.1 -3.09986 375.2C-3.89985 375.4 -4.89985 375.6 -5.79985 375.4C-8.99985 374.7 -11.3999 371.9 -14.6999 371.4C-16.0999 371.2 -17.9999 371.5 -19.1999 372.4C-20.1999 373.2 -20.1999 374.5 -19.7999 375.6C-19.2999 376.9 -17.9999 378 -16.8999 378.7C-15.5999 379.6 -14.0999 380.1 -12.4999 380.2C-9.29985 380.4 -6.09986 379.1 -3.19986 380.9C-2.79986 381.1 -2.29986 381.5 -2.19986 382C-2.09986 382.4 -2.59985 382.7 -2.79985 382.9C-3.89985 383.8 -5.89985 384.1 -7.29985 384.1C-8.99985 384 -10.5999 383.2 -12.1999 382.6C-13.8999 382 -15.4999 381.6 -17.2999 381.9C-18.5999 382.1 -19.8999 382.8 -20.1999 384.2C-20.3999 385.5 -19.6999 386.7 -18.8999 387.7C-17.8999 388.9 -16.4999 389.9 -14.9999 390.5C-13.3999 391.2 -11.4999 391.1 -9.79985 390.9C-8.09985 390.7 -6.29985 390.3 -4.59985 390.1C-4.09985 390.1 -3.79985 390 -3.29985 389.8C-2.79985 389.6 -2.39985 389.4 -1.89985 389.3C-1.49986 389.2 -1.49986 389.7 -1.49986 390.1C-1.49986 390.9 -2.49986 391.4 -3.09986 391.7C-3.69986 392 -4.19985 392.5 -4.79985 392.7C-5.49985 393 -6.19985 393.2 -6.89985 393.4C-8.29985 393.8 -9.79985 394.3 -10.9999 395.3C-12.0999 396.3 -12.3999 397.9 -11.9999 399.3C-11.1999 402.2 -7.39985 402.4 -4.99985 401.7C-3.49986 401.2 -2.29985 400.3 -1.39985 399C-0.299854 397.4 0.300144 395.5 2.00014 394.5C2.50014 395.2 2.50014 395.9 2.10014 396.7C1.60014 397.8 0.600145 398.8 -0.299854 399.7C-1.99986 401.5 -4.69985 403.6 -4.79985 406.3C-4.79985 406.6 -4.59985 406.9 -4.29985 407C-2.89985 407.5 -1.39986 407.7 0.100143 407.1C1.30014 406.6 2.20014 405.6 2.80014 404.5C3.90014 402.6 4.60014 400.2 6.10014 398.5C6.10014 399.1 5.80014 399.6 5.50014 400.3C4.90014 401.5 4.90015 402.7 5.20015 404C5.60015 405.9 7.10014 407.5 9.10014 406.5C10.2001 406 11.0001 404.9 11.7001 403.9C12.5001 402.8 12.9001 401.5 13.0001 400.1C13.2001 398.4 13.0001 396.8 12.5001 395.1C15.7001 397.6 21.0001 399.3 23.1001 394.8C24.9001 391 19.2001 391.4 16.3001 390.4C16.8001 390.4 17.2001 390.4 17.7001 390.4C18.9001 390.4 20.2001 390.5 21.4001 390.5C23.7001 390.4 25.9001 389.2 26.1001 386.7C26.3001 384.5 23.8001 384.7 22.3001 384.9C21.1001 385.1 19.0001 385.7 17.7001 385C20.4001 384.1 23.4001 383 25.0001 380.5C25.7001 379.4 26.3001 377.5 25.8001 376.1C25.4001 375 24.1001 375.2 23.3001 375.5C21.0001 376.3 19.3001 378.3 17.1001 379.3C16.6001 379.5 16.0001 379.7 15.4001 379.9C15.2001 380 15.0001 380 14.7001 380C14.6001 380 14.5001 380 14.5001 380V379.9C14.6001 379.6 14.8001 379.3 14.9001 379C15.3001 378.4 15.8001 377.9 16.4001 377.5C17.6001 376.8 19.0001 376.3 20.1001 375.5C21.4001 374.6 22.2001 373.2 22.6001 371.7C23.0001 370.3 23.2001 368.8 22.7001 367.4C22.2001 366 21.0001 365.5 19.5001 365.6C15.5001 365.9 15.2001 370.3 13.6001 373C13.2001 373.7 12.5001 374.4 11.9001 374.9C11.6001 375.1 10.9001 375.8 10.5001 375.7C10.3001 375.6 10.4001 374.5 10.4001 374.2C10.5001 373.2 10.9001 372.4 11.4001 371.5C12.9001 369.4 15.1001 367.9 15.8001 365.3C16.3001 363.6 16.1001 361.2 14.4001 360.3C12.6001 359.3 10.4001 360.8 9.50014 362.4C8.30014 364.3 8.60014 367 6.80014 368.5C6.20014 367.6 6.10015 366.6 6.40015 365.4C6.80015 363.7 7.50014 362.1 8.10014 360.4C8.70014 358.8 9.30015 357.2 9.20015 355.5C9.30015 353.6 8.20015 352.3 6.70015 351.5Z" fill="#58C114"/>
<path d="M28.8 432.3H3L13.4 473.2H28.8H45L54.6 432.3H28.8Z" fill="#CC364B"/>
<path d="M181.7 418H165.4L171.9 443.9H181.7H192L198.1 418H181.7Z" fill="#F25F78"/>
<path d="M180.6 383.8C179.1 385.5 177.8 387.3 176.8 389.3C175.9 391.2 175.3 393.3 175.1 395.4C174.5 400.9 176.4 406.2 177.7 411.5C177.8 411.9 177.9 412.3 177.9 412.6C177.5 411.5 177 410.5 176.6 409.4C175.5 406.6 174.3 403.9 173 401.2C171.7 398.5 170.4 395.8 169.3 393C168.2 390.4 167.3 387.6 166.1 385C165 382.6 163.7 379.9 164.1 377.1C164.2 376.5 163.4 376.3 163.2 376.9C162.3 379.4 161.9 382.1 162 384.8C162.1 387.3 162.6 389.7 163.4 392.1C164.2 394.5 165.3 396.9 166.5 399.2C167.7 401.6 169 404 170.5 406.3C171.3 407.5 172.2 408.7 173.2 409.7C172.6 409.3 172 409 171.3 408.7C170.4 408.3 169.4 407.8 168.4 407.6C165.3 406.9 161.2 408.2 159.5 411.1C158.8 412.3 158.7 413.7 159 415C159.1 415.3 159.5 415.4 159.8 415.2C162.7 412.3 166.7 411.6 170.6 412.1C172 412.3 173.4 412.9 174.7 413.5C175.4 413.8 176.1 414.2 176.7 414.7C176.9 414.9 177.2 415 177.4 415.3C177.3 415.6 177.6 415.8 177.8 415.9V416C177.9 416.3 178.3 416.4 178.5 416.3C178.6 416.3 178.7 416.2 178.7 416.1L178.8 416C179 415.9 179.1 415.7 179 415.5C179 415.4 178.9 415.2 178.8 415.1C178.9 415 179 414.9 179 414.7C178.9 414.1 178.8 413.6 178.7 413C179.3 408.6 179.4 404.2 179.2 399.8C179 395.5 178.6 390.8 180.1 386.7C180.4 386 180.8 385.3 181.2 384.6C181.7 384 181 383.5 180.6 383.8Z" fill="#153301"/>
<path d="M218.6 391.7C217.3 391.7 216 391.2 214.6 391.2C213.2 391.2 211.8 391.4 210.4 391.6C207.7 392 205.1 392.8 202.6 394C198.4 396 194.6 399 191.3 402.4C192.1 400.9 192.8 399.3 193.5 397.7C194 396.5 194.5 395.2 195 394C195.5 392.6 196.2 391.3 196.9 390C197.6 388.7 198.2 387.4 198.7 386.1C199.2 384.7 199.6 383.3 200.1 382C200.8 380.1 201.7 378.3 202.7 376.6C203.7 374.9 204.9 373.3 206.4 372C206.8 371.7 206.3 371 205.8 371.3C201.8 373.6 198.5 376.8 195.9 380.6C193.3 384.4 191.6 388.8 190.2 393.1C190.1 393.5 190 393.8 189.9 394.2C189.9 393.1 189.8 392.1 189.5 391.1C189.2 390 188.9 389 188.7 387.9C188.6 387.4 187.9 387.5 187.8 387.9C186.2 391.9 186.5 396.2 186.2 400.4C186 403.9 185 407.3 184.4 410.8C184.4 410.9 184.3 411 184.4 411.1C184.3 411.5 184.3 411.8 184.2 412.2V412.3C184.2 412.4 184.2 412.5 184.2 412.6C184.2 412.8 184.2 412.9 184.1 413.1C184 413.2 184 413.3 184.1 413.4C184.1 413.5 184.1 413.5 184.1 413.6C184 414.2 185 414.2 185 413.6C185 413.5 185 413.5 185 413.4C185 413.6 185 413.8 185 414C185 414.6 185.9 414.6 185.9 414C185.9 413.3 186 412.6 186.1 411.9C186.5 411.4 186.9 411 187.3 410.6C188.1 409.6 189 408.7 189.9 407.7C191.7 405.9 193.7 404.3 195.9 402.8C198 401.4 200.3 400.1 202.6 398.9C205.2 397.6 207.9 396.3 210.6 395.4C211.9 395 213.1 394.3 214.4 393.8C215.6 393.3 217 392.7 218.4 392.8C219.2 392.6 219.2 391.7 218.6 391.7Z" fill="#153301"/>
<path d="M207.8 417.7C205.7 415 202.1 413.7 198.9 413C195.5 412.3 191.7 412.1 188.3 413.3C186.5 414 184.9 415.1 184 416.9C184 417 183.9 417 183.9 417.1C183.7 417.1 183.6 417.2 183.4 417.2C184.1 415.1 184.7 412.9 185.4 410.7C186.1 408.3 187 406 188.1 403.8C190.3 399.2 193.3 395 195.1 390.2C195.3 389.7 194.6 389.5 194.3 389.7C191 392.5 188 395.7 185.8 399.5C183.8 403 182.6 406.9 182.1 410.9C181.9 412.6 181.8 414.3 181.7 416.1C181.3 416 180.9 416.5 181.3 416.9C181.5 417.1 181.7 417.3 181.7 417.5C181.8 418 182.6 417.9 182.6 417.4C182.7 417.5 182.9 417.6 183.1 417.5C183 417.8 183.3 418.2 183.7 418.1C183.8 418.1 183.9 418.1 184 418V418.1H184.8C184.9 418 185 417.8 185.1 417.7C186.7 417.3 188.3 416.9 190 416.6C190.2 416.6 190.4 416.5 190.6 416.5C191.5 416.5 192.5 416.5 193.4 416.6C194.9 416.7 196.5 416.9 197.9 417.5C199.9 418.3 201.7 419.6 203.2 421.1C205 423 206.2 425.5 206.5 428.2C206.8 431 206.1 433.9 204.9 436.4C204.8 436.7 204.9 436.9 205.1 437.1C205 437.4 204.9 437.7 204.8 437.9C204.6 438.4 205.4 438.7 205.6 438.3C207.3 435.1 208.9 431.6 209.5 428C210.3 424.4 210.1 420.6 207.8 417.7Z" fill="#276002"/>
<path d="M186.6 389.8C187.2 387.4 187.6 384.8 187.4 382.3C187.3 379.6 186.5 377.1 185.2 374.8C185 374.3 184.2 374.7 184.4 375.2C185.2 377.4 185.5 379.7 185.1 382C184.7 384.1 183.8 386 182.8 387.9C181.8 389.9 180.6 391.8 179.7 393.8C178.6 396.3 178 398.9 178 401.5C178 406.3 179.8 410.8 181.2 415.3C181.3 415.6 181.7 415.7 181.9 415.6C182.4 415.6 182.8 415.2 183.1 414.8C183.2 414.6 183.1 414.3 182.9 414.2C180.2 405.8 184.7 397.7 186.6 389.8Z" fill="#153301"/>
<path d="M177.8 414.4C177.1 413 176.1 411.7 174.6 411.1C174.4 409.4 173.9 407.8 173.1 406.3C172.3 404.8 171.3 403.5 170.2 402.2C168 399.7 165.6 397.3 164.2 394.3C164.2 394.2 164.1 394.1 164.1 394C163.8 393.5 163.1 393.9 163.3 394.5C163.3 394.6 163.4 394.7 163.4 394.8C164.6 397.7 164.7 400.9 165.7 403.8C166.7 406.5 169.1 408.4 170.3 411C169.5 411.2 168.6 411.6 167.9 411.9C166 412.8 164.3 413.9 162.6 415.1C160.9 416.4 159.4 417.9 158.2 419.7C157.3 421.1 156.7 422.7 156.8 424.4C156.8 424.8 157.5 425.1 157.7 424.6C158.7 422.7 160.3 421 161.9 419.6C163.5 418.2 165.3 416.9 167.3 416C168.7 415.4 170.3 415.1 171.8 414.8C172.6 414.7 173.5 414.5 174.3 414.6C174.7 414.6 175.4 414.7 175.6 415C175.7 415.1 175.8 415.2 175.9 415.2C176 415.3 176 415.3 176.1 415.4C176.3 415.6 176.6 415.6 176.8 415.4C176.9 415.3 176.9 415.2 176.9 415.1C177.3 415.3 178 414.9 177.8 414.4Z" fill="#153301"/>
<path d="M212.2 405.2C210.2 402.4 207.1 400.9 203.7 400.8C201.6 400.7 199.4 401.2 197.3 401.8C195.3 402.4 193.5 403.2 191.8 404.4C188.5 406.6 186.1 409.8 184.4 413.2C183.6 414.7 183 416.2 182.4 417.8C181.1 408.6 176.9 399.6 170.7 392.6C169 390.7 167.1 388.9 165 387.4C164.5 387.1 164.1 387.8 164.4 388.1C167.7 392.1 170.3 396.5 172.5 401.1C174.6 405.6 176.3 410.3 177.5 415.1C177.4 415 177.2 414.8 177 414.7C175.9 414.1 174.6 414.3 173.4 414.6C171.9 415 170.6 415.8 169.3 416.7C168.1 417.5 167 418.5 166.1 419.6C165.3 420.6 164.9 421.7 164.6 422.9C164.1 424.7 163.8 426.5 163.6 428.3C163.2 432 163.2 435.9 162 439.5C161.9 439.9 162.5 440.3 162.8 440C163.3 439.5 163.5 438.8 163.8 438.1C164.2 437.1 164.6 436.1 164.9 435.1C165.8 432.4 166.7 429.7 167.7 427.1C168.6 424.6 169.7 422 171.2 419.8C171.7 419 172.4 418.3 173.2 417.8C173.9 417.4 174.5 417.3 175.3 417.5C175.7 417.6 176.1 417.9 176.5 418.2H183.6C185.1 416.3 187 414.6 188.9 413.1C191.4 411.1 194.2 409.5 197.1 408.3C199.8 407.2 202.7 406.4 205.6 406.7C208.3 406.9 210.7 408.2 212.2 410.4C213.4 412 214 414 214.4 415.9C214.5 416.4 215.3 416.3 215.3 415.8C215.1 412.1 214.3 408.3 212.2 405.2Z" fill="#58C114"/>
<path d="M61 28.7999L61.9 281L176.3 217.5L175.3 22.3999L61 28.7999Z" fill="#E8F7CD"/>
<path d="M118 76.5001V199L163.3 179.1V66.6001L118 76.5001Z" fill="#D0F792"/>
<path d="M70.8 86.9999L109.4 78.3999V82.3999L71 91.4999L70.8 86.9999Z" fill="#D0F792"/>
<path d="M70.8 94.4998L109.4 85.7998V89.8998L71 98.9998L70.8 94.4998Z" fill="#D0F792"/>
<path d="M70.8 102.2L109.4 93.6001V97.6001L71 106.7L70.8 102.2Z" fill="#D0F792"/>
<path d="M71.3 110.1L109.8 101.5V105.6L71.5 114.6L71.3 110.1Z" fill="#D0F792"/>
<path d="M71.3 117.6L109.8 109V113.1L71.5 122.1L71.3 117.6Z" fill="#D0F792"/>
<path d="M71.3 125.3L93.5 120.5V124.6L71.5 129.8L71.3 125.3Z" fill="#D0F792"/>
<path d="M469.6 202C465.9 202.4 462.1 202.6 458.4 202.8C454.7 203 450.9 203 447.2 203C443.5 203 439.7 202.9 436 202.8C434.1 202.7 432.3 202.6 430.4 202.5L427.6 202.3L426.2 202.2L425.5 202.1H425.2H425C425 202.1 424.9 202.1 425 202.1H425.1H425C424.9 202.1 425 202.1 425 202.1H425.2H425.5L426.2 202L427.6 201.9L430.4 201.7C432.3 201.6 434.1 201.5 436 201.4C439.7 201.2 443.5 201.2 447.2 201.2C450.9 201.2 454.7 201.3 458.4 201.4C462.2 201.4 465.9 201.6 469.6 202Z" fill="#D0F792"/>
<path d="M477.4 195.2C471.7 195.6 466 195.8 460.3 196C454.6 196.2 448.9 196.2 443.2 196.2C437.5 196.2 431.8 196.1 426.1 196C423.3 195.9 420.4 195.8 417.6 195.7L413.3 195.5L411.2 195.4L410.1 195.3H409.6H409.3H409.2H409.3H409.2H409.3H409.6H410.1L411.2 195.2L413.3 195.1L417.6 194.9C420.4 194.8 423.3 194.7 426.1 194.6C431.8 194.4 437.5 194.4 443.2 194.4C448.9 194.4 454.6 194.5 460.3 194.6C466 194.5 471.7 194.8 477.4 195.2Z" fill="#D0F792"/>
<path d="M262.4 200L279.1 258.8L291.3 302.2H300.3L287.3 200H262.4Z" fill="#153301"/>
<path d="M257.9 200C257.5 230.3 256.2 246.8 255.8 249.6C255.4 252.4 249.2 269.9 237.3 302.2H246.5C261.7 271.2 270.1 253.7 271.9 249.6C273.7 245.5 279.1 229 287.3 200H257.9Z" fill="#204F01"/>
<path d="M236.5 310.5L237 300.8H246.7C251.3 304 257.3 306.7 264.7 308.7V310.5H247.1L241.1 309.6V310.5H236.5Z" fill="#48AA09"/>
<path d="M290.1 310.5L290.6 300.8H300.3C304.9 304 310.9 306.7 318.3 308.7V310.5H300.7L294.7 309.6V310.5H290.1Z" fill="#48AA09"/>
<path d="M270.9 145.8C268.8 143.3 267.3 140.2 267.6 136.8C268.3 126.9 282.1 129.1 284.7 134.1C287.4 139.1 287.1 151.8 283.6 152.6C282.2 153 279.3 152.1 276.3 150.3L278.2 163.6H267.1L270.9 145.8Z" fill="#58C114"/>
<path d="M273.1 129.8C278.7 127.9 285.9 130.1 284.9 134.7C284.3 137.6 280.9 139.1 277.6 140.6C277.1 139.8 276.2 139.2 275.1 139.2C273.5 139.2 272.3 140.4 272.3 142C272.3 142.6 272.5 143.1 272.8 143.5C271.7 144.5 270.9 145.6 270.7 147.1C268.9 147.1 266 141.8 267 136.8C266.7 136.8 266.5 136.8 266.2 136.8C262.4 136.8 259.3 133.7 259.3 129.9C259.3 126.1 262.4 123 266.2 123C270 123 273 126 273.1 129.8Z" fill="#153301"/>
<path d="M307.2 188.7L322 183.2C326.3 178.5 328.7 176.6 329.2 177.4C329.9 178.6 328.3 179.6 328.6 180.6C328.9 181.5 331.7 181.5 334.3 181.4C336.9 181.3 336.1 182.4 335.5 183C332.8 184.5 329.4 185.7 325.3 186.6L310.2 196.9L307.2 188.7ZM244.9 196.4H254.6C248.6 215.7 245.4 225.9 244.9 227C243.8 229.7 246.1 233.7 247.1 235.9C243.9 237.3 244.3 232.1 240.3 233.9C236.7 235.6 233.9 238.6 229.7 236.1C229.2 235.8 228.6 234.6 230 233.6C233.4 231.3 238.3 227.2 239 225.8C239.9 224.1 241.9 214.2 244.9 196.4Z" fill="#58C114"/>
<path d="M274.7 155.6L278.7 154.9C287.4 163.3 291 183.6 296.8 186.3C302.3 188.8 310.1 186.4 319.3 183.1L322.1 189.4C313.7 198.5 295.8 206.2 288.6 201.8C277 194.8 274.3 169.8 274.7 155.6Z" fill="#276002"/>
<path d="M255 206.1H290.6C282.4 186.1 278.2 169 278.2 155L267.5 153.4C259 166.9 256.6 183.7 255 206.1Z" fill="#DDE3E9"/>
<path d="M267.2 153.4H267.9C268.7 153.4 270 153.5 271.7 153.6L274.3 161C274.6 170 276.2 188.3 279.1 215.7H255.8C255.9 217.6 256 219.5 256.1 221.4H238.8C241.4 192.1 250.9 169.4 267.2 153.4Z" fill="#378E04"/>
<path d="M257.4 191.4C258.1 203.2 259.7 211.3 262.4 215.8H255.9C255.6 207.3 256.1 199.2 257.4 191.4Z" fill="black" fill-opacity="0.1"/>
<path d="M261 201.5L272.5 196.1V201.5H261Z" fill="white" fill-opacity="0.2"/>
<path d="M286.3 142.5C286.5 144.4 288.2 145.7 288.3 147.6C287.4 147.9 286.4 147.7 285.4 147.7" fill="#58C114"/>
<path d="M282.9 141.8C282.6 142 282.4 142.4 282.5 142.8C282.8 142.9 283 143 283.3 142.9C283.4 142.7 283.4 142.2 283.3 141.9C283.1 141.8 282.8 141.6 282.7 141.6" fill="#153301"/>
<path d="M285.8 149.1C285.2 149.2 284.6 149.2 284 149.1C283.4 149.1 282.8 149 282.2 149.1L282.4 148.8C282.4 148.9 282.6 149.1 282.8 149.3C283 149.5 283.3 149.6 283.5 149.7C284 150 284.5 150.2 285 150.6C284.5 150.4 283.9 150.3 283.4 150.1C283.1 150 282.9 149.9 282.6 149.7C282.4 149.5 282 149.3 282 148.9V148.7H282.3C282.9 148.6 283.6 148.7 284.1 148.8L285.8 149.1Z" fill="#153301"/>
<path d="M281.6 140.8C281.9 140.6 282.2 140.4 282.6 140.3C282.8 140.3 283 140.2 283.2 140.3C283.4 140.3 283.6 140.4 283.7 140.6C283.3 140.6 283 140.7 282.7 140.8C282.4 140.9 282 141 281.6 140.8Z" fill="#153301"/>
<path d="M500.8 177.6C500.8 200.1 475.9 218.3 445.1 218.3C425.9 218.3 409 211.2 399 200.4C397 198.3 377.9 197.6 380.1 195.9C383.8 193.2 391.3 188.5 390.6 185.8C389.9 183.2 389.5 180.4 389.5 177.6C389.5 155.1 414.4 136.9 445.2 136.9C476 136.9 500.8 155.2 500.8 177.6Z" fill="#F3F9E5"/>
<path d="M321.3 144.5C321.3 152.3 326.8 159.1 335.2 163.4C337.1 164.4 335.9 170.3 336.2 171.3C336.6 172.3 343.7 166.5 344.9 166.8C348.2 167.5 351.7 167.9 355.4 167.9C374.3 167.9 389.5 157.4 389.5 144.5C389.5 131.6 374.2 121.1 355.4 121.1C336.6 121.1 321.3 131.5 321.3 144.5Z" fill="#F3F9E5"/>
<path d="M335.5 135.6C338.4 135.2 341.3 135 344.2 134.8C347.1 134.6 350 134.6 352.9 134.6C355.8 134.6 358.7 134.7 361.6 134.8C363 134.9 364.5 135 365.9 135.1L368.1 135.3L369.2 135.4L369.7 135.5H370H370.1C370.1 135.5 370.2 135.5 370.1 135.5H370H370.1H370H369.7L369.2 135.6L368.1 135.7L365.9 135.9C364.5 136 363 136.1 361.6 136.2C358.7 136.4 355.8 136.4 352.9 136.4C350 136.4 347.1 136.3 344.2 136.2C341.3 136.2 338.4 136 335.5 135.6Z" fill="#D0F792"/>
<path d="M329.5 142.4C333.9 142 338.3 141.8 342.7 141.6C347.1 141.4 351.5 141.4 355.9 141.4C360.3 141.4 364.7 141.5 369.1 141.6C371.3 141.7 373.5 141.8 375.7 141.9L379 142.1L380.7 142.2L381.5 142.3H381.9H382.1H382.2H382.1H382.2C382.3 142.3 382.2 142.3 382.1 142.3H381.9H381.5L380.7 142.4L379 142.5L375.7 142.7C373.5 142.8 371.3 142.9 369.1 143C364.7 143.2 360.3 143.2 355.9 143.2C351.5 143.2 347.1 143.1 342.7 143C338.4 143.1 334 142.8 329.5 142.4Z" fill="#D0F792"/>
<path d="M334.4 148.9C338.4 148.5 342.4 148.3 346.3 148.1C350.3 147.9 354.3 147.9 358.2 147.9C362.2 147.9 366.2 148 370.1 148.1C372.1 148.2 374.1 148.3 376.1 148.4L379.1 148.6L380.6 148.7L381.3 148.8H381.7H381.9C381.9 148.8 382 148.8 381.9 148.8H381.8H381.9C382 148.8 381.9 148.8 381.9 148.8H381.7H381.3L380.6 148.9L379.1 149L376.1 149.2C374.1 149.3 372.1 149.4 370.1 149.5C366.1 149.7 362.1 149.7 358.2 149.7C354.2 149.7 350.2 149.6 346.3 149.5C342.3 149.6 338.4 149.3 334.4 148.9Z" fill="#D0F792"/>
<path d="M419.9 153.9C423.6 153.5 427.4 153.3 431.1 153.1C434.8 152.9 438.6 152.9 442.3 152.9C446 152.9 449.8 153 453.5 153.1C455.4 153.2 457.2 153.3 459.1 153.4L461.9 153.6L463.3 153.7L464 153.8H464.3H464.5C464.5 153.8 464.6 153.8 464.5 153.8H464.4H464.5C464.6 153.8 464.5 153.8 464.5 153.8H464.3H464L463.3 153.9L461.9 154L459.1 154.2C457.2 154.3 455.4 154.4 453.5 154.5C449.8 154.7 446 154.7 442.3 154.7C438.6 154.7 434.8 154.6 431.1 154.5C427.4 154.6 423.7 154.3 419.9 153.9Z" fill="#D0F792"/>
<path d="M412.2 160.8C417.9 160.4 423.6 160.2 429.3 160C435 159.8 440.7 159.8 446.4 159.8C452.1 159.8 457.8 159.9 463.5 160C466.3 160.1 469.2 160.2 472 160.3L476.3 160.5L478.4 160.6L479.5 160.7H480H480.3H480.4H480.3H480.4H480.3H480H479.5L478.4 160.8L476.3 160.9L472 161.1C469.2 161.2 466.3 161.3 463.5 161.4C457.8 161.6 452.1 161.6 446.4 161.6C440.7 161.6 435 161.5 429.3 161.4C423.6 161.4 417.9 161.2 412.2 160.8Z" fill="#D0F792"/>
<path d="M418.4 167.3C423.5 166.9 428.7 166.7 433.8 166.5C438.9 166.3 444.1 166.3 449.2 166.3C454.3 166.3 459.5 166.4 464.6 166.5C467.2 166.6 469.7 166.7 472.3 166.8L476.2 167L478.1 167.1L479.1 167.2H479.6H479.8H479.9H479.8H479.9C480 167.2 479.9 167.2 479.8 167.2H479.6H479.1L478.1 167.3L476.2 167.4L472.3 167.6C469.7 167.7 467.2 167.8 464.6 167.9C459.5 168.1 454.3 168.1 449.2 168.1C444.1 168.1 438.9 168 433.8 167.9C428.7 167.9 423.6 167.7 418.4 167.3Z" fill="#D0F792"/>
<path d="M469.6 188.8C465.9 189.2 462.1 189.4 458.4 189.6C454.7 189.8 450.9 189.8 447.2 189.8C443.5 189.8 439.7 189.7 436 189.6C434.1 189.5 432.3 189.4 430.4 189.3L427.6 189.1L426.2 189L425.5 188.9H425.2H425C425 188.9 424.9 188.9 425 188.9H425.1H425C424.9 188.9 425 188.9 425 188.9H425.2H425.5L426.2 188.8L427.6 188.7L430.4 188.5C432.3 188.4 434.1 188.3 436 188.2C439.7 188 443.5 188 447.2 188C450.9 188 454.7 188.1 458.4 188.2C462.2 188.1 465.9 188.4 469.6 188.8Z" fill="#D0F792"/>
<path d="M477.4 181.9C471.7 182.3 466 182.5 460.3 182.7C454.6 182.9 448.9 182.9 443.2 182.9C437.5 182.9 431.8 182.8 426.1 182.7C423.3 182.6 420.4 182.5 417.6 182.4L413.3 182.2L411.2 182.1L410.1 182H409.6H409.3H409.2H409.3H409.2H409.3H409.6H410.1L411.2 181.9L413.3 181.8L417.6 181.6C420.4 181.5 423.3 181.4 426.1 181.3C431.8 181.1 437.5 181.1 443.2 181.1C448.9 181.1 454.6 181.2 460.3 181.3C466 181.3 471.7 181.5 477.4 181.9Z" fill="#D0F792"/>
<path d="M471.1 175.4C466 175.8 460.8 176 455.7 176.2C450.6 176.4 445.4 176.4 440.3 176.4C435.2 176.4 430 176.3 424.9 176.2C422.3 176.1 419.8 176 417.2 175.9L413.3 175.7L411.4 175.6L410.4 175.5H409.9H409.7H409.6H409.7H409.6C409.5 175.5 409.6 175.5 409.7 175.5H409.9H410.4L411.4 175.4L413.3 175.3L417.2 175.1C419.8 175 422.3 174.9 424.9 174.8C430 174.6 435.2 174.6 440.3 174.6C445.4 174.6 450.6 174.7 455.7 174.8C460.9 174.8 466 175 471.1 175.4Z" fill="#D0F792"/>
</svg>
