<svg width="296" height="343" viewBox="0 0 296 343" fill="none" xmlns="http://www.w3.org/2000/svg">
<path d="M61.8 33.3999C59.6 32.7999 56.4 31.6999 55.5 29.4999C54.5 27.0999 56 23.7999 57.3 21.9999C59.3 19.2999 61.5 16.6999 62.4 13.4999C63.8 8.89988 62 3.79987 57.1 1.99987C55.2 1.29987 53.3 0.999876 51.2 0.899876C48.8 0.799876 47.3 1.19987 45.8 2.49987L46.6 1.49987C41.8 3.09987 41.4 9.09987 40.6 12.9999C40.2 14.9999 38.8 17.4999 39.4 19.6999C40 22.0999 44.4 22.4999 44.1 24.6999C40.9 24.8999 38.6 24.4999 37.4 27.8999C36.9 29.1999 36.8 30.5999 36.3 31.9999C35.7 33.6999 34.8 35.2999 34.1 36.8999C32.8 39.5999 31.3 41.8999 29.4 44.1999C27.4 46.4999 27.2 47.8999 27.2 50.8999C27.2 53.6999 27.4 55.7999 28.3 58.3999C29 60.4999 30 62.4999 30.5 64.5999C31.5 69.1999 30.3 73.3999 29.7 77.7999C29.9 77.5999 30.1 77.3999 30.3 77.1999C29.8 78.7999 29.6 80.4999 29.6 82.2999C29.6 86.9999 29.6 91.6999 30 96.3999C30.4 101.4 32.5 106.4 34.7 111C36.6 114.9 39.6 119.2 42.6 122.4C45.4 125.3 49.6 125.4 53.1 123.3C55.1 122.1 55.6 121.6 55.1 119.6C54.6 117.4 54.3 115.6 54.3 113.3C54.3 109.8 54.3 106.1 56.8 103.4C58.7 101.4 61.1 99.6999 62.5 97.2999C64.7 93.4999 65.2 88.7999 64 84.5999C62.5 79.4999 58.3 77.0999 54.6 73.5999C52 71.1999 52.4 68.1999 52.8 65.0999V64.9999C53.1 64.7999 53.3 64.6999 53.1 64.6999L53 64.2999C53.2 63.5999 53.5 62.7999 53.7 62.0999C55 57.7999 56.2 53.3999 59.2 49.8999C61.7 46.8999 64.4 44.2999 65.4 40.3999C66.1 37.1999 65.3 34.2999 61.8 33.3999Z" fill="#F9E8E8"/>
<path d="M37.7 79.6998C36.7 75.2998 36.4 70.8998 36.1 66.4998C35.8 61.7998 35.3 57.0998 35.6 52.2999C35.9 47.3999 37.2 42.4999 37.5 37.5999C37.7 33.5999 37.8 29.5999 38.5 25.5999C38 25.9999 37.6 26.6998 37.3 27.4998C36.8 28.7998 36.7 30.1999 36.2 31.5999C35.6 33.2999 34.7 34.8998 34 36.4998C32.7 39.1998 31.2 41.4999 29.3 43.7999C27.3 46.0998 27.1 47.4998 27.1 50.4998C27.1 53.2998 27.3 55.3998 28.2 57.9998C28.9 60.0998 29.9 62.0998 30.4 64.1998C31.4 68.7998 30.2 72.9998 29.6 77.3998C29.8 77.1998 30 76.9999 30.2 76.7999C29.7 78.3998 29.5 80.0998 29.5 81.8998C29.5 86.5998 29.5 91.2999 29.9 95.9998C30.3 101 32.4 106 34.6 110.6C36.5 114.5 39.5 118.8 42.5 122C45.3 124.9 49.5 125 53 122.9C55 121.7 55.5 121.2 55 119.2C54.5 117 54.2 115.1 54.2 112.9C54.2 110.1 54.2 107.2 55.5 104.8C46.7 98.9998 39.8 89.3998 37.7 79.6998Z" fill="#F9897D"/>
<path d="M45.7 27.5999C45.7 28.4999 44.2 29.8999 43.6 30.8999C42.8 32.2999 42.2 33.7999 41.6 35.2999C40.2 39.3999 37.7 45.3999 39.1 49.6999C41.2 55.8999 48 47.7999 48.9 44.7999C50.8 38.3999 47.8 33.2999 46.1 27.3999L45.7 27.5999Z" fill="#F9897D"/>
<path d="M36.6 27.3999C36.8 27.2999 36.9 27.1999 37.1 26.9999C37.3 26.7999 37.4 26.4999 37.6 26.3999L36.6 27.3999Z" fill="#F9F4CD"/>
<path d="M37.1 26.9999C35.3 29.2999 34.7 34.4999 33.9 36.9999C32.5 41.0999 32 45.4999 30.6 49.5999C30.4 49.6999 30.2 49.5999 30 49.6999C25 56.8999 20.9 64.7999 15.6 71.7999C16.8 72.6999 18.4 74.3999 19.9 74.2999C21.7 71.2999 25 68.6999 27.6 66.1999C29.3 64.5999 30.9 62.8999 32.7 61.6999C34.4 60.4999 35.5 60.2999 36.2 58.4999C37.7 54.5999 38.6 50.3999 40.4 46.4999C42.3 42.3999 43.8 38.0999 44.7 33.7999C45.2 31.3999 46.3 27.9999 43.9 26.0999C41.4 24.2999 39.1 25.4999 37.1 26.9999Z" fill="#F9E8E8"/>
<path d="M91.3 87.8C90.4 84.4 90.2 81.3 88.9 77.9C86.1 71.1 82.3 64.7 79.6 58.2C76.9 51.8 74.5 44.5 70.8 38.6C69.4 36.3 66.3 33 63.1 34C59.5 35.2 56.9 41.1 58.6 44.3C59 45.1 60.6 47.1 60.9 47.1L60.5 47.5C64 47.4 67.6 54.5 69 57C71 60.4 72 63.8 73.4 67.3C76.3 74.1 82.6 78.8 84.2 86.2C85.1 90.5 84.4 95.6 87 99.5C88.2 98.7 87.1 94.5 89.1 95.1C89.7 95.3 91.5 98.1 91.9 98.7C92.8 99.9 93.7 102.4 95 100.6C95.8 99.4 95.2 96.7 95.3 95.3C95.9 95.7 96.7 96.5 97.5 96.6C97.6 92.8 92.1 91 91.3 87.8Z" fill="#F9E8E8"/>
<path d="M79.5 144.4C77.1 139.9 74.1 135.1 71.2 130.9C68.8 127.5 65.6 125 62.7 122C61.2 120.5 59.2 118.6 59.2 116.5C59.2 115.1 60.2 114.2 60.7 113C61.3 111.3 61.1 110.3 60.5 108.7C59.6 106.6 59 105.4 59.6 103C59.9 102.1 60.2 101.4 60.7 100.5C61 99.9998 60.7 99.4998 60.9 99.9998L61.3 99.5998C61.3 99.2998 61.3 99.0998 61.3 98.7998C58.2 99.0998 54.4 102 52.4 104.3C50.2 106.9 49.2 110.2 47.3 113C46.4 114.3 45.6 115.5 44.6 116.7C43.8 117.6 42.1 118.7 41.7 119.8C40.9 121.9 44.1 126.7 45.1 128.7C46.2 130.9 46.5 132.4 45 134.5C42.9 137.6 43.2 140.3 44 144C44.7 147.1 47.2 149.7 47.3 152.7C47.5 156.4 45.8 160.3 44.4 163.6C42.7 167.6 40.7 171.9 38.4 175.6C36.5 178.6 33.3 181 31.5 183.9C33 184 34.3 185.1 35.8 185.4C37.6 185.8 39.5 185.6 41.4 185.7C46.5 186.2 51.4 186.9 56.4 187.9C62.7 189.2 70.4 189.6 76.8 188.7C80.3 188.2 83.1 186.7 86.6 186.5C86.4 183.8 87.1 180.8 87.3 178C87.6 172.7 87.4 167.6 86 162.4C84.2 156.1 82.6 150.2 79.5 144.4Z" fill="#F9E8E8"/>
<path d="M61.5 122.3C59.7 120.4 58.3 118.1 58.9 115.3C59.4 113 62.1 110.6 59.5 108.4L59.3 108.2C59.3 111.2 58.4 113.2 56.4 115.6C54.4 118 51.4 119.2 49.4 121.5C47.4 123.7 48.7 125 51.4 124.3C53.4 123.7 54.6 121.8 56.8 121.9C61.7 122.1 56.9 130.1 55.6 132.2C54 134.8 52 137.1 50.4 139.6C49.1 141.6 48.7 144.6 52.1 143.2C54.5 142.2 56.6 138.8 58.3 136.9C59.5 135.6 60.7 132.8 62.4 132.2C67.1 130.4 64.2 138.8 64.4 140.4C66.3 140.6 66.4 138.2 67.7 137.5C68.9 136.7 70.2 137.3 71.5 137.5C71.9 135.3 68.8 131.3 67.6 129.5C65.9 126.7 63.7 124.7 61.5 122.3Z" fill="#F9897D"/>
<path d="M16.2 71.5999L16.4 71.3999C12.9 72.1999 10 73.0999 7.3 75.2999C6 76.3999 4.5 76.3999 3.3 77.3999C2.6 77.9999 0.8 81.0999 0.5 81.9999C2 81.7999 3 80.2999 4.3 79.7999C4.4 80.8999 4 82.6999 4.3 83.6999C5 85.5999 5.2 84.4999 6.2 83.0999C7.4 81.3999 9.8 76.0999 9.5 81.0999C10.8 80.9999 9.8 79.7999 10.6 79.2999C11.1 78.8999 12.4 79.1999 13.1 79.1999C12.2 79.9999 7.2 82.4999 7.8 83.9999C8.2 84.8999 13.5 81.9999 14.4 81.4999C16.5 80.3999 18.6 78.4999 19.5 76.2999C20.6 73.8999 19.1 71.3999 16.2 71.5999Z" fill="#F9E8E8"/>
<path d="M73.7 175.3C66.4 173.7 58.3 173.4 50.8 173.7C47.9 173.8 41.2 173.6 39.4 175.8L40.3 174.3C33.2 174.3 16.1 180.7 21.7 190.2C25 195.8 34.1 194 39.3 193.5C48 192.7 56.8 193.2 65.5 193.2C71.2 193.2 92.6 196 91.9 186.7C91.3 178.9 80.3 176.8 73.7 175.3Z" fill="#F9E8E8"/>
<path d="M87 179.7C87.1 179.1 87.1 178.5 87.2 177.9C87.5 172.6 87.3 167.5 85.9 162.3C84.9 158.5 83.9 154.8 82.6 151.2C79.8 159.8 74.5 167.3 66.6 173.3C54 182.8 36.8 189.3 20.6 186.9C20.7 188 21 189.1 21.7 190.3C25 195.9 34.1 194.1 39.4 193.6C48.1 192.8 56.9 193.3 65.6 193.3C71.3 193.3 92.7 196.1 92 186.8C91.7 183.6 89.7 181.3 87 179.7Z" fill="#F9897D"/>
<path d="M106 192.7H5.40002V209.5H106V192.7Z" fill="#F9BAB7"/>
<path d="M106 201.1H5.40002V209.5H106V201.1Z" fill="#F9E8E8"/>
<path d="M89.2 209.5H20.9V323.5H89.2V209.5Z" fill="#F9BAB7"/>
<path d="M96.9 316H13V326.8H96.9V316Z" fill="#F9BAB7"/>
<path d="M96.9 316H13V317.8H96.9V316Z" fill="#F9E8E8"/>
<path d="M27.3 212.1C26 212.1 25 213.1 25 214.3V311.3C25 312.5 26.1 313.5 27.3 313.5C28.6 313.5 29.6 312.5 29.6 311.3V214.3C29.6 213.1 28.6 212.1 27.3 212.1Z" fill="#F9E8E8"/>
<path d="M36.8 212.1C35.5 212.1 34.5 213.1 34.5 214.3V311.3C34.5 312.5 35.5 313.5 36.8 313.5C38.1 313.5 39.1 312.5 39.1 311.3V214.3C39.2 213.1 38.1 212.1 36.8 212.1Z" fill="#F9E8E8"/>
<path d="M46.2 212.1C44.9 212.1 43.9 213.1 43.9 214.3V311.3C43.9 312.5 44.9 313.5 46.2 313.5C47.5 313.5 48.5 312.5 48.5 311.3V214.3C48.5 213.1 47.4 212.1 46.2 212.1Z" fill="#F9E8E8"/>
<path d="M55.7 212.1C54.4 212.1 53.4 213.1 53.4 214.3V311.3C53.4 312.5 54.4 313.5 55.7 313.5C57 313.5 58 312.5 58 311.3V214.3C58 213.1 57 212.1 55.7 212.1Z" fill="#F9E8E8"/>
<path d="M64.1 212.1C62.8 212.1 61.8 213.1 61.8 214.3V311.3C61.8 312.5 62.8 313.5 64.1 313.5C65.4 313.5 66.4 312.5 66.4 311.3V214.3C66.5 213.1 65.4 212.1 64.1 212.1Z" fill="#F9E8E8"/>
<path d="M72.7 212.1C71.4 212.1 70.4 213.1 70.4 214.3V311.3C70.4 312.5 71.5 313.5 72.7 313.5C74 313.5 75 312.5 75 311.3V214.3C75 213.1 74 212.1 72.7 212.1Z" fill="#F9E8E8"/>
<path d="M82 212.1C80.7 212.1 79.7 213.1 79.7 214.3V311.3C79.7 312.5 80.7 313.5 82 313.5C83.3 313.5 84.3 312.5 84.3 311.3V214.3C84.4 213.1 83.3 212.1 82 212.1Z" fill="#F9E8E8"/>
<path d="M265 206.9L245.3 276L231 326.9H220.5L235.7 206.9H265Z" fill="#660909"/>
<path d="M270.3 206.9C270.8 242.5 272.3 261.9 272.8 265.2C273.3 268.4 280.5 289 294.5 326.9H283.6C265.8 290.5 255.9 269.9 253.8 265.2C251.7 260.5 245.3 241 235.7 206.9H270.3Z" fill="#77100B"/>
<path d="M295.4 336.7L294.9 325.3H283.5C278.1 329.1 271 332.2 262.3 334.5V336.7H282.9L290 335.6V336.7H295.4Z" fill="#CE310D"/>
<path d="M232.4 336.7L231.9 325.3H220.5C215.1 329.1 208 332.2 199.3 334.5V336.7H219.9L227 335.6V336.7H232.4Z" fill="#CE310D"/>
<path d="M255.4 128.9C257.9 126 259.6 122.4 259.3 118.3C258.5 106.7 242.3 109.2 239.2 115.1C236.1 121 236.4 135.8 240.5 136.9C242.1 137.3 245.6 136.3 249.1 134.2L246.9 149.8H259.9L255.4 128.9Z" fill="#9E180A"/>
<path d="M237.9 117.7C238 116.9 238.3 116.1 238.6 115.4C238.9 114.5 239.4 113.6 240 112.8C241 111.3 242.3 110 243.6 108.9C246.1 106.9 249.3 105.7 252.4 106.1C254 106.3 255.5 106.9 256.8 107.9C258 108.8 259.1 110.1 260.6 110.2C262.3 110.3 263.8 108.8 265.1 107.9C266.6 106.9 268.2 106.1 269.9 105.9C272.8 105.4 275.6 106.4 277.6 108.8C279.7 111.4 281.3 115.1 279.9 118.5C279.6 119.1 279.3 119.7 278.8 120.1C278.4 120.5 277.7 120.9 277.5 121.6C277.3 122.3 277.9 123.2 278.1 123.8C278.4 124.7 278.7 125.6 278.6 126.6C278.4 128.2 277.5 129.7 276.4 130.7C275.3 131.8 274 132.4 272.6 132.6C271.7 132.8 270.7 132.9 269.8 132.8C269.3 132.8 268.9 132.6 268.5 132.5C268.1 132.4 267.8 132.5 267.4 132.8C265.6 133.9 263.8 134.4 261.7 134.2C260 134.1 258 133.6 256.6 132.5C255 131.2 255.1 129.4 255.4 127.5C255 127.7 253.9 127.8 254.6 127C254.9 126.7 255.3 126.6 255.7 126.4C256.1 126.2 256.5 125.9 256.8 125.6C258 124.2 256.8 121.5 255.3 121C253.1 120.3 252.6 123.5 251 124.3C250.1 124.8 249.1 124.1 248.5 123.5C247.6 122.6 247 121.5 246.4 120.3C246 119.3 245.5 118.4 245.1 117.4C244.9 117 244.2 115.7 244.5 115.2C242.9 114.9 241.1 115.5 239.8 116.4C239.2 116.8 238.8 117.2 238.5 117.8C238.4 117.9 238.3 118.3 238.1 118.4C237.8 118.3 237.9 117.9 237.9 117.7Z" fill="#440707"/>
<path d="M237.2 124.4C236.5 126 234.7 126.9 235.1 129C235.9 129.4 236.7 129.9 237.6 130" fill="#9E180A"/>
<path d="M237.9 122.3C238.1 121.9 238.5 121.6 238.8 121.5C239.2 121.3 239.6 121.2 240 121.1C240.4 121.1 240.9 121.1 241.3 121.4C241.7 121.6 242 122.1 242 122.5C241.6 122.3 241.3 122.2 241 122.1C240.7 122.1 240.4 122.1 240 122.1C239.4 122.1 238.8 122.2 237.9 122.3Z" fill="#440707"/>
<path d="M238.4 133.3C239 132.9 239.6 132.8 240.1 132.6C240.6 132.5 241.2 132.3 241.9 132.3C241.6 133 241 133.4 240.4 133.6C239.7 133.7 239 133.7 238.4 133.3Z" fill="#440707"/>
<path d="M239.3 124.3C239.687 124.3 240 123.987 240 123.6C240 123.213 239.687 122.9 239.3 122.9C238.913 122.9 238.6 123.213 238.6 123.6C238.6 123.987 238.913 124.3 239.3 124.3Z" fill="#440707"/>
<path d="M260.3 137.4C260.2 137 260 136.6 259.9 136.2L259.4 136.4C259.3 136.3 259.2 136.2 259.2 136.2L244 138.5C244 147 237.2 155 232.9 161.9C226.2 172.6 214.3 184.4 221.9 200.3C228.8 214.6 246.7 216.9 275.6 207.3C275.6 199.6 269.3 191.8 269.1 182.5C268.9 173.5 267.2 146.5 260.3 137.4Z" fill="#FC4E24"/>
<path d="M233.5 202.3C232.1 203.9 228.9 208.2 226.7 207.8C222.3 206.9 219.9 200.8 220.8 198.4C221.3 197.8 223 199.9 225.4 199.7C226.7 199.6 231.3 195 239.4 185.8C239.7 187.6 240.4 191.1 241.4 196.3C236.6 199.7 234 201.7 233.5 202.3ZM227.1 170.9C227.1 172.5 232.8 173.4 232.8 175.6C232.8 177.7 224.5 180.9 222.5 180.9C220.5 180.9 221.7 172.6 222.9 170.9C224.1 169.1 225.3 168.3 227.4 168.3C229.5 168.3 227.1 169.3 227.1 170.9Z" fill="#9E180A"/>
<path d="M245.6 204.2C245.7 204.6 245.9 205.1 246 205.6C269.8 189 269.8 168.8 262.7 146.3C268 168.5 265.9 187.2 245.6 204.2Z" fill="#EA3815"/>
<path d="M188.5 189.4L157 269.1L135.9 336.5H127.5L159.8 189.4H188.5Z" fill="#FCD6D6"/>
<path d="M194.8 189.4C195.1 217.4 200 255.1 200.8 256.9C201.3 258.1 219.3 272.9 254.7 301.3L249 307.4C207.2 283 185.3 269.2 183.4 265.9C180.5 261 171 216.1 163.5 189.3H194.8V189.4Z" fill="#FCD6D6"/>
<path d="M255.511 299.197C257.434 299.933 258.729 300.543 259.461 301.104C260.321 301.818 261.49 303.056 262.969 304.818C262.101 305.807 254.335 315.065 239.747 332.528C236.734 331.27 235.871 329.775 236.941 328.094C238.087 326.349 238.991 324.938 239.73 323.796L244.83 306.071C244.931 305.725 245.302 305.544 245.648 305.645L248.34 306.52C250.193 305.617 251.547 304.742 252.261 303.882C252.822 303.15 253.433 301.855 253.939 300.124C254.077 299.356 254.818 298.995 255.511 299.197Z" fill="#9E180A"/>
<path d="M139.3 333.3C140 335.2 140.4 336.7 140.4 337.6C140.4 338.8 140.2 340.4 139.8 342.7C138.5 342.7 126.4 342.7 103.6 342.7C102.7 339.6 103.2 337.9 105.2 337.7C107.2 337.5 108.9 337.2 110.2 337L127 329.5C127.3 329.4 127.7 329.5 127.8 329.8L128.9 332.4C130.8 333.3 132.3 333.7 133.5 333.7C134.5 333.7 135.8 333.3 137.4 332.5C138.2 332.3 139 332.6 139.3 333.3Z" fill="#9E180A"/>
<path d="M167.3 329.5L127.7 325.2L157 189.4H192.6L167.3 329.5Z" fill="#0981D3"/>
<path d="M246.6 291.3L220.6 322.1C193.2 292.2 177.2 272.7 172.7 263.5C168.2 254.4 164.1 229.6 160.4 189.3H200.4C202.4 224.8 203.7 243.3 204.4 245C205.1 246.7 219.1 262.1 246.6 291.3Z" fill="#1898FC"/>
<path d="M183.7 111.3C186.7 107.8 188.7 103.6 188.3 98.8C187.3 85.1 168.2 88.1 164.5 95C160.8 101.9 161.2 119.5 166 120.7C167.9 121.2 172 120 176.2 117.5L173.6 136H189L183.7 111.3Z" fill="#FCD6D6"/>
<path d="M164 100.4C164.5 100.2 165 100.1 165.5 100.1C166 100.1 166.6 100.2 167.1 100.4C167.6 100.6 168.1 101 168.4 101.5C168.7 102 168.8 102.5 168.7 103.1C168.4 102.7 168.1 102.3 167.8 102C167.5 101.7 167.1 101.5 166.7 101.3C165.9 101 165 100.8 164 100.4Z" fill="#F96353"/>
<path d="M163 115.3C163.7 115 164 114.8 164.4 114.5C164.6 114.4 164.9 114.2 165.2 114C165.5 113.9 165.9 113.8 166.2 113.9C165.8 114.4 165.5 114.8 165 115.2C164.7 115.4 164.4 115.6 164 115.6C163.6 115.6 163.3 115.5 163 115.3Z" fill="#F96353"/>
<path d="M164.2 103.1C164.5 102.7 164.9 102.6 165.2 102.6C165.4 102.6 165.6 102.6 165.7 102.8C165.9 102.9 166.1 103.1 166.1 103.3C165.9 103.4 165.7 103.5 165.6 103.6C165.4 103.7 165.3 103.7 165.1 103.7C164.9 103.6 164.5 103.5 164.2 103.1Z" fill="#F96353"/>
<path d="M171.3 96C173.4 97.2 174.9 99.4 176.7 102.2C177.1 102 177.6 101.9 178.1 101.9C180.2 101.9 181.9 103.6 181.9 105.7C181.9 106.8 181.5 107.8 180.7 108.5C181.6 109.8 182.6 111.1 183.7 112.4C188 109.8 192.8 102.4 188.8 95.2C185.3 80.8 163.7 89.7 159.9 87.3C159.2 92.6 161.9 96.8 171.3 96Z" fill="#F96353"/>
<path d="M151.8 105.6C151.8 104.4 149.7 102.5 149 101.6C147.3 99.6 145.1 97.7 142.5 97.1C140.5 96.6 136.4 96.2 136.4 99.1C136.4 100.6 138.4 102.1 139.3 103.4C140.2 104.7 140.9 107.2 142 108.3C143.1 109.4 147.3 109.6 148.5 108.6" fill="#FCA19A"/>
<path d="M183.4 122.7C176.8 122 169.8 127.1 163.3 123.6C161.5 122.6 160 121 158.9 119.2C156.8 115.8 155.7 111.8 153.7 108.2C152.2 105.6 150.7 104.7 147.7 105C144.9 105.3 142.1 105.7 139.3 106C138.1 106.1 145.5 134 146.4 136.7C147.4 139.6 148.8 142.5 151.2 144.4C154.1 146.7 158 147.5 161.6 147.1C165.6 146.8 170.1 145.6 173.5 143.6C178.2 140.8 180.5 136.4 183.5 132" fill="#89130A"/>
<path d="M199.3 192.4H149.9C161.1 158.3 167.4 139.5 167.6 126.8C167.6 126.2 168.8 125 169.3 125.2C173.2 126.3 176.7 121.3 181.2 119.3C192.9 138.1 196.9 161.3 199.3 192.4Z" fill="#F2F2F2"/>
<path d="M177 119.2C162.8 119.3 159 153.2 149.7 108L140.8 110.1C135.1 162.7 149 160.6 165.7 164.8C164.6 188.3 161.5 208.1 178.6 208.1C186.7 208.1 195.5 208.1 204.9 208.1C209.1 180 198.1 141 187.9 121.3C187.5 120.5 186.7 119.1 184.7 119.1C182.9 119.2 180.4 119.2 177 119.2Z" fill="#9E180A"/>
<path d="M151.2 104.3C148.3 101.5 146.8 96.4 142.5 95.2C138.2 94 134.1 95.5 134.9 100.5C136.9 101.1 137.1 98.5 138.9 98.4C138.8 99 139 100.1 139.8 100.3C141.2 100.6 140.5 99.1 141.3 98.9C142.6 98.6 144.2 101.7 145.2 99.7C146.1 99.8 146.9 101.2 147.8 101.8C148.8 102.6 150.1 103.1 151.2 104.3Z" fill="#FCD6D6"/>
<path d="M157.9 100.5C158.9 99.6 160.8 98.9 162.2 99C163.8 99.1 163.3 101.3 163.2 102.4C163.1 104 162.9 105.6 162.9 107.3C162.9 108 162.9 108.7 163 109.4C163 109.7 163.3 110.3 163.1 110.6C162.4 112.1 160.2 111.2 159.4 110.5C158.9 110.1 158.9 110 158.8 109.4C158.2 106.8 157.7 104.4 157.6 101.8" fill="#CE310D"/>
<path d="M159 110L132.3 113.2L130.8 100.8L158.1 100.5L159 110Z" fill="#FC4E24"/>
<path d="M133.3 114.1L131.9 99.7L120.3 100.5L120.6 103.5L123.5 103.9C122.3 104.7 121.5 106 121.6 107.6C121.8 109.2 122.8 110.4 124.2 111L121.2 111.8L121.5 114.8L133.3 114.1Z" fill="#FC4E24"/>
<path d="M156.9 100.5L151.3 100.6C148 104 143.3 106.8 137.9 108.7C132.9 110.4 127.8 111 123.4 110.6C123.7 110.8 124 111 124.3 111.1L121.3 111.9L121.6 114.9L133.3 114.1L133.2 113L155.2 110.4C155.9 111.5 157 106.5 157.5 107.2" fill="#CE310D"/>
<path d="M132.2 101C131.4 102.1 132.3 105.9 132.6 107.3C133 109.1 133.4 110.9 134.1 112.8C133.4 111 133.5 108.4 133.6 106.5C133.7 105.1 133.9 101.8 135.2 101C134.1 101.4 133 101.7 132.1 101H132.2Z" fill="#CE310D"/>
<path d="M149.6 108C150.5 106.6 153.7 105.8 153.6 103.1C152.4 103.2 151.3 104.3 150.1 103.4C149.3 102.8 148.3 101.2 149.2 100.9C150.9 100.4 154.6 101 156.9 100.7C155.4 97.1 145.8 96 143.2 98.3C139.8 101.2 139.8 107.4 141.3 111.2C142.7 111.1 144.1 109.8 145.5 109.3C147.2 108.8 148.7 108.8 149.6 108Z" fill="#FCD6D6"/>
</svg>
