<svg width="167" height="222" viewBox="0 0 167 222" fill="none" xmlns="http://www.w3.org/2000/svg">
<path d="M288.2 153H66.7999C63.9999 153 61.7999 150.7 61.7999 148V146.9C61.7999 144.1 63.9999 141.9 66.7999 141.9H288.2C291 141.9 293.2 144.1 293.2 146.9V148C293.3 150.8 291 153 288.2 153Z" fill="#FCA19A"/>
<path d="M297.2 148.4H57.7999V161.6H297.2V148.4Z" fill="#FCD6D6"/>
<path d="M71.0541 207.071L71.0541 161.671H57.8541L57.8541 207.071H71.0541Z" fill="#FCD6D6"/>
<path d="M27.3999 124.3C22.2999 121.2 13.6999 125.2 13.7999 129.6C13.7999 142.7 25.7999 204.5 26.3999 208.4C26.9999 212.3 33.6999 213.3 34.0999 208.4C34.6999 200.6 35.8998 173.5 34.6998 160.9C34.1998 155.7 33.6998 150.8 33.1998 146.4C39.4998 157.7 49.1999 174 62.2999 195.1L69.3999 191.8C63.7999 173.4 59.1999 160.3 55.5999 152.7C49.4999 139.7 43.6999 128.5 41.2999 124.6C37.4999 118.4 30.8999 120.5 27.3999 124.3Z" fill="#660909"/>
<path d="M68.8999 181.5L44.3999 123.5C38.4999 114.1 22.0999 125.4 24.0999 130.9C28.5999 143.3 51.6999 183.5 53.0999 187.2L68.8999 181.5Z" fill="#EA3815"/>
<path d="M70.2836 188.056C71.779 189.266 72.7914 190.312 73.2343 191.145C73.8003 192.165 74.4761 193.594 75.2484 195.656C74.1788 196.309 64.0192 202.106 44.9929 213.06C42.6583 210.904 42.3557 209.228 43.9485 208.07C45.5413 206.911 46.8109 205.912 47.8439 205.122L58.2528 190.694C58.4028 190.434 58.8125 190.324 59.159 190.524L61.2973 192.221C63.2329 192.068 64.7355 191.665 65.7551 191.099C66.5881 190.656 67.498 189.681 68.4846 188.172C68.8712 187.702 69.6408 187.569 70.2836 188.056C70.197 188.006 70.197 188.006 70.2836 188.056Z" fill="#CE310D"/>
<path d="M35.5999 205.2C36.2999 207 36.5999 208.4 36.5999 209.4C36.5999 210.5 36.3999 212.1 35.9999 214.3C34.6999 214.3 23.0999 214.3 1.09986 214.3C0.199859 211.3 0.699834 209.7 2.69983 209.4C4.69983 209.1 6.29986 208.9 7.59986 208.8L23.7999 201.6C24.0999 201.5 24.4999 201.6 24.5999 201.9L25.5999 204.4C27.3999 205.2 28.8999 205.7 29.9999 205.7C30.8999 205.7 32.1999 205.3 33.7999 204.6C34.5999 204.2 35.2999 204.4 35.5999 205.2C35.5999 205.1 35.5999 205.1 35.5999 205.2Z" fill="#CE310D"/>
<path d="M11.9999 134C11.9999 150.4 19.7999 188.8 19.7999 192.4H36.5999C34.0999 158.2 33.2999 140.9 33.9999 140.5C35.0999 139.9 77.9999 144.8 90.8999 144.8C109.5 144.8 117.1 133.1 117.8 111.4H80.9999C73.4999 112.2 34.4999 120.1 19.9999 122.8C13.6999 124 11.9999 129.4 11.9999 134Z" fill="#FC4E24"/>
<path d="M100.5 21.5999C103.4 18.2999 105.3 14.0999 105 9.49993C104.1 -3.70007 85.5999 -0.800079 81.9999 5.89992C78.3999 12.5999 78.7999 29.4999 83.4999 30.6999C85.2999 31.1999 89.2999 29.9999 93.2999 27.5999L90.7999 45.3999H105.7L100.5 21.5999Z" fill="#660909"/>
<path d="M57.7999 102.7L39.5998 113.5C34.9998 120.7 32.2998 123.8 31.4998 122.8C30.2998 121.3 32.1998 119.6 31.5998 118.5C30.9998 117.4 27.2999 118 23.7999 118.8C20.3999 119.6 21.0999 117.9 21.8999 117C25.1999 114.4 29.2999 112 34.3999 109.8L51.8999 92.7L57.7999 102.7ZM148.6 128.2C149.5 130 156.1 135.5 160.6 138.6C162.4 139.9 161.7 141.5 161 141.9C155.4 145.4 151.7 141.3 146.8 139C141.5 136.5 141.9 143.5 137.7 141.6C139 138.7 142 133.3 140.6 129.7C140 128.1 134.5 110.6 124.2 77.2L137.8 77.1C143.7 108.7 147.4 125.7 148.6 128.2Z" fill="#660909"/>
<path d="M96.4 38.7L90.9999 37.7999C82.5999 67.5999 39.1999 87.8999 36.5999 99.0999C35.5999 103.2 38.5999 105.3 36.9999 106.5L43.9999 111.6C45.1999 110.2 47.7 112.7 52.9 111C58.2 109.1 96.4 74 96.4 38.7Z" fill="#38B1F4"/>
<path d="M87.3999 42.5999C87.9999 82.0999 65.1999 92.0999 70.2999 108C74.4999 121.1 114.7 135.1 121.6 122.3C124.4 117.1 125.7 110.8 125.8 104C127.6 109.2 129 113.8 130 117.5C131.8 124 138.7 125.1 138.7 127.6L147.8 125.1C147.2 121.7 151.5 120 150.3 112.4C145.1 78.1999 131.3 53.3999 108.7 38.0999L108.5 34.7999C108.4 33.3999 107.2 32.3999 105.9 32.4999L89.1998 33.6999C87.7998 33.7999 86.7999 34.9999 86.8999 36.2999L87.3999 42.5999Z" fill="#69BFF9"/>
<path d="M80.8998 13.3999C79.8998 14.9999 75.0998 21.4999 79.8998 21.9999L80.8998 13.3999Z" fill="#660909"/>
<path d="M81.0999 12.0998C81.5999 11.8998 81.9999 11.6998 82.4999 11.5998C82.9999 11.3998 83.4999 11.2998 83.9999 11.2998C84.4999 11.2998 85.0999 11.2998 85.5999 11.4998C85.8999 11.5998 86.1999 11.6998 86.2999 11.9998C86.4999 12.1998 86.5999 12.5998 86.4999 12.7998C86.1999 12.2998 85.7999 12.2998 85.3999 12.2998C84.9999 12.2998 84.4999 12.2998 83.9999 12.3998C83.4999 12.3998 82.9999 12.4998 82.4999 12.4998C82.1999 12.3998 81.5999 12.2998 81.0999 12.0998Z" fill="#EA3815"/>
<path d="M80.6998 26.0999C81.3998 25.6999 81.8999 25.4999 82.4999 25.1999C83.0999 24.8999 83.7999 24.4999 84.5999 24.5999C84.3999 24.8999 84.0999 25.1999 83.8999 25.3999C83.5999 25.5999 83.3999 25.8999 82.9999 25.9999C82.6999 26.1999 82.2999 26.2999 81.8999 26.2999C81.4999 26.3999 81.0998 26.2999 80.6998 26.0999Z" fill="#EA3815"/>
<path d="M82.7999 14.8999C83.1313 14.8999 83.3999 14.6313 83.3999 14.3C83.3999 13.9686 83.1313 13.7 82.7999 13.7C82.4686 13.7 82.1998 13.9686 82.1998 14.3C82.1998 14.6313 82.4686 14.8999 82.7999 14.8999Z" fill="#EA3815"/>
</svg>
