<svg width="20" height="20" viewBox="0 0 20 20" fill="none" xmlns="http://www.w3.org/2000/svg">
<path fill-rule="evenodd" clip-rule="evenodd" d="M7.49988 13.3333H6.00821C4.25322 13.3333 2.66988 12.0542 2.51405 10.305C2.33655 8.33 3.89405 6.66667 5.83322 6.66667H7.49988C7.95988 6.66667 8.33321 6.29417 8.33321 5.83333C8.33321 5.3725 7.95988 5 7.49988 5H6.00738C3.46655 5 1.19905 6.8225 0.875715 9.3425C0.484882 12.3908 2.85988 15 5.83322 15H7.49988C7.95988 15 8.33321 14.6275 8.33321 14.1667C8.33321 13.7058 7.95988 13.3333 7.49988 13.3333ZM6.66657 10C6.66657 10.4608 7.03991 10.8333 7.49991 10.8333H12.4999C12.9599 10.8333 13.3332 10.4608 13.3332 10C13.3332 9.53917 12.9599 9.16667 12.4999 9.16667H7.49991C7.03991 9.16667 6.66657 9.53917 6.66657 10ZM13.9658 5.0002C16.5216 5.0002 18.8149 6.83103 19.1274 9.36853C19.5016 12.4069 17.1316 15.0002 14.1666 15.0002H12.4999C12.0399 15.0002 11.6666 14.6277 11.6666 14.1669C11.6666 13.706 12.0399 13.3335 12.4999 13.3335H14.1666C16.1058 13.3335 17.6633 11.6702 17.4858 9.6952C17.3299 7.94603 15.7466 6.66687 13.9908 6.66687H12.4999C12.0399 6.66687 11.6666 6.29437 11.6666 5.83353C11.6666 5.3727 12.0358 5.0002 12.7074 5.0002H13.9658Z" fill="white"/>
<mask id="mask0" mask-type="alpha" maskUnits="userSpaceOnUse" x="0" y="5" width="20" height="11">
<path fill-rule="evenodd" clip-rule="evenodd" d="M7.49988 13.3333H6.00821C4.25322 13.3333 2.66988 12.0542 2.51405 10.305C2.33655 8.33 3.89405 6.66667 5.83322 6.66667H7.49988C7.95988 6.66667 8.33321 6.29417 8.33321 5.83333C8.33321 5.3725 7.95988 5 7.49988 5H6.00738C3.46655 5 1.19905 6.8225 0.875715 9.3425C0.484882 12.3908 2.85988 15 5.83322 15H7.49988C7.95988 15 8.33321 14.6275 8.33321 14.1667C8.33321 13.7058 7.95988 13.3333 7.49988 13.3333ZM6.66657 10C6.66657 10.4608 7.03991 10.8333 7.49991 10.8333H12.4999C12.9599 10.8333 13.3332 10.4608 13.3332 10C13.3332 9.53917 12.9599 9.16667 12.4999 9.16667H7.49991C7.03991 9.16667 6.66657 9.53917 6.66657 10ZM13.9658 5.0002C16.5216 5.0002 18.8149 6.83103 19.1274 9.36853C19.5016 12.4069 17.1316 15.0002 14.1666 15.0002H12.4999C12.0399 15.0002 11.6666 14.6277 11.6666 14.1669C11.6666 13.706 12.0399 13.3335 12.4999 13.3335H14.1666C16.1058 13.3335 17.6633 11.6702 17.4858 9.6952C17.3299 7.94603 15.7466 6.66687 13.9908 6.66687H12.4999C12.0399 6.66687 11.6666 6.29437 11.6666 5.83353C11.6666 5.3727 12.0358 5.0002 12.7074 5.0002H13.9658Z" fill="white"/>
</mask>
<g mask="url(#mask0)">
<rect width="20" height="20" fill="white"/>
</g>
</svg>
