<svg fill="none" height="80" viewBox="0 0 80 80" width="80" xmlns="http://www.w3.org/2000/svg"><path clip-rule="evenodd" d="m56 77c-.5514 0-1-.4486-1-1s.4486-1 1-1 1 .4486 1 1-.4486 1-1 1z" fill="#cacafb" fill-rule="evenodd"/><path clip-rule="evenodd" d="m8 65c-.5514 0-1-.4486-1-1s.4486-1 1-1 1 .4486 1 1-.4486 1-1 1z" fill="#cacafb" fill-rule="evenodd"/><path clip-rule="evenodd" d="m76 58c-.5514 0-1-.4486-1-1s.4486-1 1-1 1 .4486 1 1-.4486 1-1 1z" fill="#cacafb" fill-rule="evenodd"/><path clip-rule="evenodd" d="m65 10c-.5514 0-1-.4486-1-1 0-.55145.4486-1 1-1s1 .44855 1 1c0 .5514-.4486 1-1 1z" fill="#cacafb" fill-rule="evenodd"/><path clip-rule="evenodd" d="m24 4c-.5514 0-1-.4486-1-1 0-.55145.4486-1 1-1s1 .44855 1 1c0 .5514-.4486 1-1 1z" fill="#cacafb" fill-rule="evenodd"/><g fill="#e1000f"><path d="m37.0955 15.6808c.4168 1.1385.0341 2.4755-.7201 3.1083-.3212.2696-.6045.4287-1.0866.5753l-.315.0872c-.0571.0145-.1166.0291-.1789.0439l-.4078.0915-1.9234.3932-.2416.0515.1349.0706.2453.1331.4684.2636c.4783.2761.6422.8877.366 1.366-.2761.4783-.8877.6421-1.366.366l-.2135-.1217-.4461-.2448-1.5338-.8022-.6858-.3656c-.1134-.0613-.2269-.123-.3413-.1857l-.7043-.3917-.7666-.4376c-.4783-.2761-.6422-.8877-.3661-1.366.2762-.4783.8878-.6422 1.3661-.3661l.7466.4263c.1183.0667.2339.1314.3478.1948l.1349.0739c.1012-.071.2174-.1243.3451-.1543l.5468-.1269 1.044-.2322.7692-.1627 1.5816-.3216.4465-.0991.2218-.0564.1724-.0517c.0251-.0083.0486-.0166.0707-.0249l.1164-.0497.0912-.0517.0756-.0564c.1197-.1004.2498-.5548.1275-.8887-.2057-.5621-1.0179-1.0444-2.7299-1.2377l-3.3832-.3474-1.8647-.1846-2.079-.1971-2.1252-.1872-.959-.0762-.1555.0025-.1162.0116-.1977.0339-.15.0345-.1667.0448-.2853.088-.4557.1596-.5551.2125-.6689.2709-1.2483.5269-2.2716.9865-.1081.0375-.0732.0178-.0768.0112c-.0132.0013-.0267.0022-.0404.0028l-.086-.0003-.095-.0089-.1059-.0184-.1192-.0286-.2081-.0638-.1614-.0577-.2817-.111-.2172-.0916-.5147-.229-.8162-.38-2.3357-1.1198c-.4975-.2398-.70634-.8376-.4665-1.335.2398-.4975.8376-.7064 1.3351-.4666l1.7527.8364.7114.3321.7769.3533.4714.2053.2601.1054 2.0202-.8773 1.1375-.4818.5755-.2355.6593-.2568.2887-.1057.3887-.1323.3425-.1031.2068-.0539.1923-.0429.1802-.0327.1704-.0232.1632-.0146c.0267-.0018.0532-.0032.0796-.0043l.2344-.002.2324.012 1.2477.1017 2.2056.1974 2.6056.2509 3.5442.3603.5506.0574c2.564.2357 4.1379 1.1312 4.6632 2.5663z"/><path d="m25.7924 36.048c.4596.1987 1.0052.0256 1.2616-.4185.2762-.4783.1123-1.0899-.366-1.366l-2.9386-1.6966-.1044-.0525c-.4595-.1987-1.0052-.0256-1.2616.4185-.2762.4783-.1123 1.0899.366 1.366l2.9386 1.6966z"/><path d="m20.4843 38.2483c-.2564.4441-.802.6172-1.2616.4185l-.1044-.0525-4.4759-2.5841c-.1512-.0873-.3568-.2899-.6006-.5847l-.218-.2746c-.0378-.0493-.0762-.1004-.1153-.1532l-.242-.3362-.2551-.3733-.266-.407-.2746-.4375c-.0464-.0753-.093-.1517-.1399-.2292l-.2835-.4773-.2865-.4996-.2874-.5189c-.0478-.0879-.0956-.1764-.1433-.2656l-.2844-.5415c-.0471-.0913-.094-.183-.1406-.2751l-.2764-.5569-.2683-.5631-.2579-.5661-.2453-.5659c-.07947-.1882-.15641-.3758-.23051-.5623l-.12376-.3189-.95722-.7271-2.01452-1.5069-.36465-.282-.20732-.1692-.08996-.081-.08799-.087-.03229-.0421-.07348-.1291-.08779-.166c-.1839-.5208.08918-1.092.60995-1.2759.36053-.1273.74526-.0356 1.0089.2057l.06182.063.27947.2228 2.93625 2.2052.3185.2491.1646.1382.1282.123.0319.0408.0431.0712.1184.2161c.7187 1.9407 1.682 3.8555 2.74 5.5747l.1711.275.3358.5212c.1648.25.3243.4828.4744.6936l.2468.3378.1755.2269.0876.1079c.0043.0078-.0001.0103-.0337-.0068l4.4319 2.5599c.4783.2761.6422.8877.366 1.366z"/><path d="m22.9994 39.9999c.5523 0 1-.4477 1-1s-.4477-1-1-1-1 .4477-1 1 .4477 1 1 1z"/><path d="m54.4179 42.6614c-.2762-.4783-.1123-1.0899.366-1.366l.2122-.1241.435-.2639 1.7925-1.1347c.1096-.0684.2189-.1361.3287-.2037l.6707-.4073.7219-.4267c.1267-.074.2573-.1498.3925-.2279.4783-.2761 1.0899-.1122 1.366.3661.2762.4783.1123 1.0898-.366 1.366l-.7425.4335-.3882.2325c-.0064.0322-.0143.0644-.024.0965-.1102.3658-.2177.7147-.3245 1.0542l-.3203.9973-.6477 1.9448-.0853.2751-.0621.2203-.0414.1751-.0063.0317c-.0027.0144-.0052.0284-.0075.042l-.0152.1256-.0008.1048.011.0937c.0272.154.3556.4938.7059.5549.5897.1028 1.4134-.3594 2.4369-1.7453l2.2758-3.1504 1.7908-2.5079 1.0723-1.5229.7338-1.0571c.0565-.0821.1119-.1628.1662-.2419.1597-.2331.3182-.6109.4721-1.1283l.1019-.3656.1003-.4067.0986-.4474.0965-.4878.0942-.5279.0918-.5676.0892-.607c.0146-.1045.0291-.2105.0435-.3182l.0847-.6655.0816-.7041c.0042-.0387.009-.0756.0151-.1114l.0237-.1051.0234-.0693.0508-.1065.047-.075.0594-.08.1162-.1327.0981-.0992.1825-.1689.3181-.2706.6659-.5287 1.3127-.9988 1.3639-1.0239c.442-.3312 1.0687-.2415 1.4.2004.3312.4419.2415 1.0687-.2004 1.3999l-1.7903 1.3542-.9368.7257-.4379.349-.3615.3018-.1018.8334c-.0162.1267-.0327.2514-.0493.3743l-.102.7147c-.3479 2.3079-.7749 3.871-1.3219 4.7514l-.0797.1222-.712 1.0297-.8217 1.1721-1.438 2.0246-2.3 3.1958-.6433.8873c-1.4861 2.1027-3.0485 3.018-4.554 2.7554-1.1944-.2083-2.1609-1.2082-2.3319-2.1778-.0801-.4542-.0674-.802.0828-1.3811l.0958-.3408.1247-.3989.5871-1.7605-.1191.0754-.4698.2849c-.0768.0455-.1534.0903-.2306.1349-.4783.2761-1.0899.1122-1.366-.3661z"/><path d="m64.3265 19.8271-2.5431 1.1221-.4839.201-.1963.0709c-.1799.0578-.2702.0809-.4322.0638l-.1071-.0151c-2.0343-.3442-4.1665-.4653-6.1755-.4081l-.3224.0108-.6166.0302-.5699.0405c-.0905.0075-.1786.0153-.2641.0235l-.4139.0447-.2829.0385-.1362.0217c-.0086-.0002-.0084-.0053.0233-.0258l-6.3063 3.6398c-.4783.2761-1.0899.1122-1.366-.3661-.2565-.4441-.1335-1.0032.2683-1.3019l.0977-.0641 6.3493-3.6658c.1984-.1145.6165-.2109 1.1901-.2838l.4048-.045c.0711-.0069.144-.0135.2184-.0198l.4662-.034.5017-.0262.5331-.018c.0912-.0023.1836-.0043.277-.0059l.5724-.0052.5932.0038.61.0132.6224.0229.6307.0328.6347.0433.6347.0539.6303.065c.3133.0353.6235.0749.9281.119l.351.0537.2165-.0903 2.7645-1.2169.2705-.1142.2109-.0848.1373-.0507.06-.0199c.2191-.0692.3095-.0887.5508-.0438.5429.1012.9011.6233.8 1.1662-.1012.543-.6233.9012-1.1662.8.0674.0126.1094.0247.1378.0345l.0557.021c.0191.0053.0337.0015.0833-.0176z"/><path d="m48.9994 27.9999c.5523 0 1-.4477 1-1s-.4477-1-1-1-1 .4477-1 1 .4477 1 1 1z"/></g><path d="m41.9942 27.308c-.0997-1.8437-1.6263-3.308-3.4948-3.308-1.933 0-3.5 1.567-3.5 3.5v1.8368c-.4547-.216-.9632-.3368-1.5-.3368-1.933 0-3.5 1.567-3.5 3.5v14.885l-.6084-.7143-1.222-1.4585-.621-.7295-.3752-.4244-.215-.232-.192-.1959c-.0303-.0299-.0598-.0584-.0887-.0857l-.1655-.1493c-.0793-.0678-.1541-.1258-.2266-.1763l-.143-.0915c-.0708-.0414-.141-.0768-.2131-.1084l-.1474-.0588c-.9251-.3368-2.2743.0003-3.0519.9305-.9802 1.1725-.9688 2.9833.1092 5.3216l1.4898 3.3219 1.4473 3.1759.7659 1.648.5358 1.1315.0704.1392c.3399.6387.9716 1.4004 1.9037 2.3033l.4516.4268c.3153.2913.6592.5962 1.0319.9153l.5807.4893c.2008.1667.4089.337.6242.511l.2586.2079.0002 3.5176.0078.1254c.0617.4931.4824.8746.9922.8746.5523 0 1-.4478 1-1v-4.4846l-.6677-.5284-.8107-.6579-.4973-.416-.4624-.3974-.4276-.3787-.3924-.3596-.3573-.3401c-.1132-.1101-.2205-.2169-.3218-.3204l-.2864-.3003-.2506-.28-.2149-.2594c-.1969-.2489-.3398-.4663-.4281-.6508l-.3921-.826-.7396-1.5857-1.2163-2.6586-1.9766-4.3996c-.6886-1.5793-.677-2.5238-.2931-2.9831.2281-.2728.6866-.3873.8335-.3339.0133.0049.0302.0145.051.0292l.0742.0597.0992.0925.2799.2913.3998.4472.5331.6196 1.3341 1.5888.5346.6301.4851.5618.4579.5185.4531.5001.4708.5066c.2468.2625.6018.362.9306.2946.0244-.005.0485-.0109.0722-.0176.4192-.1191.7263-.5047.7263-.9621v-17.5l.0068-.1445c.0727-.7606.7135-1.3555 1.4932-1.3555.8284 0 1.5.6716 1.5 1.5v12.5l.0067.1166c.0578.4974.4804.8834.9933.8834.5522 0 1-.4477 1-1v-17.5l.0068-.1445c.0727-.7606.7135-1.3555 1.4932-1.3555.8284 0 1.5.6716 1.5 1.5v17.5l.0067.1166c.0578.4974.4804.8834.9933.8834.5522 0 1-.4477 1-1v-14.5294l.0068-.1412c.0724-.7438.711-1.3294 1.4932-1.3294.831 0 1.5.6611 1.5 1.4706v14.5294l.0067.1166c.0578.4974.4804.8834.9933.8834.5522 0 1-.4477 1-1v-10.5294l.0068-.1412c.0724-.7438.711-1.3294 1.4932-1.3294.831 0 1.5.6611 1.5 1.4706v18.5294l-.0034.291c-.0429 1.8163-.5054 3.1493-1.8312 5.1582-.1437.2175-.39.5062-.7367.8666l-.3218.3265-.3706.3618-.3701.3511-1.3677 1.2646-.5099.4809-.4886.4851v4.4142l.0067.1166c.0578.4974.4804.8834.9933.8834l.1166-.0067c.4973-.0578.8834-.4805.8834-.9933v-3.578l.0993-.0936 1.6361-1.5154.4031-.3826.4206-.4111c.5913-.5895 1.0064-1.0608 1.2755-1.4685 1.6045-2.431 2.1654-4.1761 2.1654-6.5508v-18.5294l-.0052-.1907c-.0999-1.8304-1.6288-3.2799-3.4948-3.2799-.5366 0-1.0452.1198-1.5.3341v-.8635l-.0052-.1907c-.0999-1.8304-1.6288-3.2799-3.4948-3.2799-.5383 0-1.0485.1206-1.5045.3362z" fill="#000091"/></svg>