<svg fill="none" height="290" viewBox="0 0 401 290" width="401" xmlns="http://www.w3.org/2000/svg" xmlns:xlink="http://www.w3.org/1999/xlink"><mask id="a" height="14" maskUnits="userSpaceOnUse" width="18" x="221" y="21"><path clip-rule="evenodd" d="m228.03 34.0544c-.29 0-.567-.1199-.766-.3311l-5.111-5.4434c-.398-.4225-.376-1.0878.046-1.4851.424-.3973 1.089-.3763 1.485.0462l4.336 4.6152 8.837-9.6718c.393-.4299 1.057-.4583 1.486-.0673.428.391.458 1.0563.067 1.4841l-9.604 10.5105c-.196.2165-.476.3406-.768.3427z" fill="#fff" fill-rule="evenodd"/></mask><path d="m28.5971 186.103c3.3726-.615 6.9892-.744 10.5567-.583 11.973.697 23.9559 4.22 34.0184 10.39 9.0246 5.546 15.9454 13.857 25.5691 18.762 15.5837 8.297 36.0897 3.014 52.1127 10.642 6.644 3.21 11.967 8.425 14.98 14.733 3.122 6.625 3.36 14.839-1.349 20.43-2.47 2.998-6.088 5.059-9.792 6.659-24.384 11.758-48.905 10.86-75.5373 7.968-12.6689-1.411-25.3623-2.676-37.247-6.777-20.508-7.202-31.1258-21.64-33.22376-41.02-1.38224-13.017.82238-34.639 16.12366-40.064 1.0756-.56 2.4198-.778 3.7885-1.14z" fill="#feebde"/><path d="m198.221 228.1c-2.737-2.312-4.383-4.769-5.311-7.181-2.73-8.086 1.382-16.058 12.613-22.615 10.107-5.879 27.685-10.215 36.017-16.528 14.347-10.208-6.022-24.335 6.543-34.87 5.324-4.366 15.993-7.751 30.164-9.523 14.896-1.832 34.709-1.641 49.991 1.79 8.176 1.803 14.503 4.344 19.746 6.923 37.487 17.033 44.363 33.616 47.187 51.546 1.26 8.527 2.879 17.078-2.668 24.958-9.877 13.593-40.935 20.172-87.112 20.764-31.025.379-84.22-2.042-103.011-12.647-1.754-.753-2.777-1.673-4.159-2.617z" fill="#eef8ff"/><path d="m266.799 191.907c7.231 0 13.093-.488 13.093-1.091 0-.602-5.862-1.09-13.093-1.09-7.232 0-13.094.488-13.094 1.09 0 .603 5.862 1.091 13.094 1.091z" fill="#ea6206"/><path d="m292.076 114.091c.122 5.394-.909 10.242-2.546 14.545l-3.273-1.636 2.546 3.394c-2.122 4.848-5.031 8.848-7.82 11.999l-1.03-4v5.091c-4.425 4.667-8.305 7.091-8.305 7.091 4.061-25.03 20.428-36.484 20.428-36.484z" fill="#1174ba"/><path d="m273.588 145.423s-10.851 27.454-6.062 63.878" stroke="#1174ba" stroke-miterlimit="10" stroke-width=".336867"/><path d="m266.496 198.392s3.334-47.15-18.065-66.604" stroke="#6bb8dc" stroke-miterlimit="10" stroke-width=".336867"/><path d="m216 124.575s38.493-8.302 43.585 24.061c0 0-19.58-21.152-43.585-24.061z" fill="#1e9ed1"/><path d="m244.612 137.363-.97 4.182c1.516.97 3.152 1.939 4.789 2.788l.788-.97v1.394c3.274 1.697 6.729 3.091 10.366 3.818 0 0-5.334-26.969-43.585-24.06 0 0 3.455 6.182 10.73 8.242l2.303-1.879-1.515 2.061c.181.061.303.061.485.121 4.182.849 8.971 4.243 14.366 7.697z" fill="#6bb8dc"/><path d="m265.889 207.18s-3.334-47.151 18.065-66.605" stroke="#6bb8dc" stroke-miterlimit="10" stroke-width=".336867"/><path d="m316.385 133.363s-38.493-8.303-43.585 24.06c0 0 19.58-21.151 43.585-24.06z" fill="#1e9ed1"/><path d="m287.773 146.151.97 4.182c-1.516.969-3.153 1.939-4.789 2.787l-.788-.969v1.394c-3.274 1.697-6.729 3.09-10.366 3.818 0 0 5.334-26.97 43.585-24.061 0 0-3.456 6.182-10.73 8.243l-2.303-1.879 1.515 2.061c-.182.06-.303.06-.485.121-4.183.848-8.971 4.242-14.366 7.697z" fill="#6bb8dc"/><path d="m268.011 131.848s-2.728 47.029-.364 62.968" stroke="#6bb8dc" stroke-miterlimit="10" stroke-width=".336867"/><path d="m271.891 136.939 2.667.666c.667-2.06 1.091-4.363 1.455-6.848l-3.455-2 3.576 1.212c.546-4.242.849-8.666 1.697-12.182.243-1.03.364-1.999.425-3.03l-3.395 1.818 3.395-3.575c-.546-7.758-6.305-13.9395-6.305-13.9395-3.455 6.7875-5.516 45.2725-4.97 45.2725 3.576-.061 5.758-2.122 7.092-5.213z" fill="#1e9ed1"/><path d="m262.98 115.606 3.152-.061-3.213.909c0 .485 0 .97.061 1.455.242 3.151.242 6.242.181 9.151l2.425-.06-2.485 1.757c-.121 8.061-.303 14.182 3.758 15.515l4.971-45.272c.061 0-8.547 5.273-8.85 16.606z" fill="#6bb8dc"/><path d="m241.096 106.091c-.121 5.394.909 10.242 2.546 14.545l3.273-1.636-2.545 3.394c2.121 4.848 5.031 8.848 7.819 11.999l1.031-4v5.091c4.425 4.667 8.305 7.091 8.305 7.091-4.001-25.09-20.429-36.484-20.429-36.484z" fill="#6bb8dc"/><path d="m259.585 137.363s10.851 27.454 6.062 63.878" stroke="#6bb8dc" stroke-miterlimit="10" stroke-width=".336867"/><path d="m266.799 191.907c-7.214 0-13.094-.485-13.094-1.091l4.789 19.273s2.788 1.212 8.487 1.212c5.698 0 8.486-1.212 8.486-1.212l4.425-19.273c-.06.606-5.88 1.091-13.093 1.091z" fill="#fca306"/><path d="m132.629 73.9307c1.523-.9647 3.097-1.8787 4.671-2.7418 1.574-.8632 3.148-1.6755 4.773-2.4879 1.625-.7616 3.249-1.574 4.874-2.2848s3.3-1.4217 4.976-2.0309c-1.523.9646-3.097 1.8786-4.671 2.7417-1.574.8632-3.148 1.6755-4.773 2.4879-1.625.7616-3.25 1.574-4.874 2.2848-1.625.7108-3.301 1.4217-4.976 2.031z" fill="#0a54bf"/><path d="m135.32 81.6992c1.523-.9647 3.097-1.8786 4.671-2.7418 1.574-.8631 3.148-1.6755 4.773-2.4879 1.624-.7616 3.249-1.5739 4.874-2.2848 1.625-.7108 3.3-1.4216 4.976-2.0309-1.523.9647-3.097 1.8786-4.671 2.7418-1.574.8631-3.148 1.6755-4.773 2.4879-1.625.7616-3.25 1.5739-4.874 2.2848-1.625.7616-3.25 1.4216-4.976 2.0309z" fill="#0a54bf"/><path d="m139.738 88.6558c1.523-.9647 3.097-1.8787 4.671-2.7418 1.574-.8632 3.148-1.6755 4.773-2.4879 1.624-.7616 3.249-1.574 4.874-2.2848s3.3-1.4217 4.976-2.0309c-1.524.9646-3.097 1.8786-4.671 2.7417-1.574.8632-3.148 1.6755-4.773 2.4879-1.625.7616-3.25 1.574-4.874 2.2848-1.625.7108-3.301 1.4217-4.976 2.031z" fill="#0a54bf"/><path d="m127.372 173.048c.762-.102 1.574-.051 2.234.253 1.473.61 1.93 2.387 1.879 3.808 0 1.524-.356 3.199.812 4.468.559.559 1.219 1.016 1.726 1.574.559.61 1.016 1.321 1.321 2.082.609 1.422.913 3.047.355 4.519-.508 1.269-1.726 2.437-1.422 3.91.254 1.523 1.828 2.691 2.793 3.858 1.117 1.27 2.082 2.945 2.285 4.621.152 1.624-.559 3.249-1.625 4.519-2.183 2.437-5.433 3.655-8.733 3.655-1.371 0-2.996-.051-4.164-.812-.355-.254-.558-.508-.812-.863-.203-.305-.457-.559-.762-.762-.66-.508-1.167-1.168-1.472-1.929-1.168-2.945-.254-6.601 1.422-9.241.406-.609.711-1.219.507-1.98-.203-.762-.71-1.473-1.117-2.133-.406-.66-.914-1.269-1.269-1.98-.355-.761-.457-1.523-.406-2.335.101-1.524.761-2.945 1.726-4.164.914-1.168 1.98-2.335 1.98-3.859 0-1.624-1.117-3.097-.609-4.772.203-.711.559-1.422 1.219-1.828.66-.356 1.421-.508 2.132-.609z" fill="#137f3a"/><path d="m126.865 175.689c0-.204.253-.356.456-.305.254.051.254.305.254.558 0 .711.102 1.371.254 2.031.356 1.422.965 2.691 1.473 4.062.507 1.32.761 2.742.457 4.164-.305 1.32-.711 2.64-1.016 4.011-.254 1.167-.508 2.437-.152 3.605.355 1.117 1.168 2.081 1.777 3.097 1.218 2.132 1.777 4.468 1.828 6.905.05 1.117 0 2.285-.254 3.351-.152.66-.356 1.472-.914 1.929-.254.203-.66.254-.914-.05-.203-.305 0-.711.051-1.016.254-1.32.304-2.64.254-3.96-.051-1.27-.203-2.539-.61-3.757-.355-1.117-.964-2.133-1.624-3.148-.66-1.016-1.371-2.031-1.676-3.199-.305-1.219-.051-2.437.254-3.656.305-1.269.762-2.488 1.219-3.706.456-1.219.609-2.336.355-3.554-.355-2.488-1.625-4.773-1.472-7.362z" fill="#82e59b"/><path d="m147.275 176.044c.914.305 1.878.762 2.539 1.472 1.421 1.524.964 3.808.203 5.484-.864 1.828-2.133 3.605-1.371 5.687.304.964.863 1.827 1.218 2.792.356 1.016.457 2.082.457 3.148-.05 1.98-.558 4.062-1.98 5.534-1.269 1.27-3.3 2.031-3.757 3.91-.508 1.98.711 4.163 1.218 5.991.61 2.082.914 4.57.204 6.651-.661 1.981-2.387 3.555-4.316 4.469-3.859 1.777-8.276 1.523-12.135-.204-1.625-.71-3.453-1.624-4.468-3.148-.305-.456-.406-.863-.457-1.421-.051-.508-.254-.863-.508-1.32-.508-.965-.711-1.98-.66-3.047.152-4.112 3.199-7.92 6.55-10.154.812-.508 1.472-1.067 1.675-2.031.153-1.016-.05-2.082-.203-3.097-.152-1.016-.406-1.981-.406-2.996 0-1.066.254-2.031.762-2.945.964-1.726 2.488-3.046 4.214-4.062 1.675-.914 3.503-1.726 4.366-3.554.864-1.929.356-4.265 1.778-5.991.609-.711 1.421-1.371 2.386-1.523.812-.153 1.777.101 2.691.355z" fill="#82e59b"/><path d="m145.345 179.293c.153-.254.508-.254.711-.102.254.254.153.508 0 .813-.406.812-.609 1.675-.761 2.538-.305 1.828-.254 3.707-.356 5.585-.101 1.879-.558 3.605-1.675 5.179-1.016 1.422-2.234 2.742-3.25 4.215-.914 1.269-1.878 2.589-2.031 4.214-.152 1.523.305 3.046.457 4.569.305 3.148-.304 6.245-1.472 9.14-.559 1.37-1.168 2.691-2.082 3.858-.508.66-1.218 1.574-2.082 1.828-.406.102-.964-.051-1.015-.508-.102-.457.355-.863.558-1.167 1.016-1.371 1.778-2.945 2.387-4.519.609-1.523 1.066-3.148 1.269-4.773.152-1.523.051-3.046-.254-4.569-.254-1.574-.558-3.098-.254-4.672.305-1.574 1.219-2.944 2.184-4.163 1.066-1.32 2.183-2.539 3.351-3.757 1.117-1.168 1.878-2.437 2.284-4.062.762-3.3.508-6.702 2.031-9.647z" fill="#137f3a"/><path d="m118.436 187.721c1.574 0 2.894.813 3.859 1.98 1.117 1.371 1.32 3.047 1.777 4.672.203.812.609 1.624 1.269 2.183.609.507 1.371.609 2.133.863 1.472.508 2.64 1.675 3.097 3.097.558 1.726-.051 3.503.051 5.281.101 1.624 1.675 2.64 2.995 3.401 1.27.762 2.437 1.473 2.793 2.996.406 1.574.558 3.351 0 4.925-.914 2.64-3.707 3.757-6.347 3.96-2.386.153-5.433-.101-7.261-1.828-1.066-1.066-1.472-2.487-1.421-3.96.051-.914.203-1.777.457-2.691.152-.609.406-1.218.457-1.878.152-1.727-1.422-2.031-2.742-2.488-1.726-.61-2.894-1.727-3.706-3.301-.762-1.472-1.117-3.097-.61-4.671.254-.812.66-1.574 1.27-2.183.253-.254.609-.508.863-.812.203-.254.152-.61.101-.965-.355-1.473-1.421-2.691-1.777-4.164-.355-1.32-.152-2.995 1.066-3.858.407-.406 1.067-.559 1.676-.559z" fill="#82e59b"/><path d="m120.569 191.58c1.624 1.726 2.081 4.113 2.234 6.398.05 1.269 0 2.64.355 3.909.305 1.066 1.066 1.879 1.879 2.64 1.574 1.574 3.351 3.148 3.808 5.382.253 1.32.101 2.691.457 4.011.355 1.168.913 2.336 1.675 3.351.609.813 1.371 1.422 1.98 2.184.203.254.457.558.406.914-.101.355-.558.507-.914.457-.812-.153-1.472-.914-1.98-1.473-.761-.812-1.421-1.675-1.929-2.691-.609-1.066-1.066-2.234-1.269-3.452-.204-1.27-.102-2.59-.61-3.808-.812-2.031-2.741-3.25-4.163-4.875-1.777-1.98-1.523-4.468-1.32-6.905.101-1.32.203-2.843-.457-4.112-.254-.457-.813-.914-.965-1.422-.152-.457.406-.965.813-.508z" fill="#137f3a"/><path d="m122.294 220.318c0 10.002 1.625 15.232 10.257 15.232 8.631 0 10.256-5.23 10.256-15.232z" fill="#0a54bf"/><path d="m335.621 122.927-14.013 49.25-10.257 36.303h-7.463l10.865-85.553z" fill="#137f3a"/><path d="m339.379 122.927c.304 25.387 1.421 39.248 1.777 41.533.355 2.285 5.483 17.009 15.485 44.02h-7.717c-12.693-25.945-19.802-40.618-21.274-44.02-1.473-3.402-6.042-17.263-12.897-41.533z" fill="#82e59b"/><path d="m357.301 215.487-.406-8.124h-8.124c-3.859 2.691-8.885 4.925-15.08 6.601v1.574h14.725l5.026-.762v.762h3.859z" fill="#073099"/><path d="m312.418 215.487-.406-8.124h-8.124c-3.859 2.691-8.886 4.925-15.08 6.601v1.574h14.724l5.027-.762v.762h3.859z" fill="#073099"/><path d="m325.923 65.8584c1.777-2.0817 2.995-4.6711 2.792-7.5145-.558-8.276-12.134-6.4482-14.368-2.2848-2.235 4.1635-1.981 14.7751.913 15.5367 1.168.3046 3.605-.457 6.144-1.9294l-1.574 11.1194h9.292z" fill="#e8a16d"/><path d="m320.947 59.2581c-.355 4.9758-1.32 7.4129-2.843 7.4129-2.285 0-4.214-1.4724-5.23-1.4724-.711 0-.558.9139-.101 1.5739.406.5585 2.335 1.1171 2.335 1.9802s-1.523.2031-1.523.7108c0 .8632-.254 2.4372 1.219 2.4372 1.523 0 5.788-.5586 6.549-2.7926.457-1.4216.762-4.4173.914-8.9361h.254c1.269 0 2.336 1.0155 2.336 2.3356 0 .66-.254 1.2185-.711 1.6755.558.7616 1.117 1.574 1.828 2.3863 2.589-1.5739 4.925-6.0928 2.386-10.51-.711-2.1325-2.691-3.3003-4.57-3.8081-1.523-.66-3.097-.7108-4.417-.3046-2.589.2031-4.925 1.0155-5.585 1.4724 0 2.4879.457 3.1988 4.57 3.148 1.015.5585 1.777 1.4724 2.589 2.691z" fill="#0421b1"/><path d="m313.94 59.6636c-.406 1.2185-2.031 1.8278-2.589 2.8941-.559 1.117 1.066 2.0817 1.878 2.6402.051-.1016.102-.2539.153-.3554" fill="#e8a16d"/><path d="m317.85 59.6138c-.051-.2539-.254-.5078-.457-.6601s-.457-.3046-.711-.3554-.508-.1523-.812-.1016c-.153 0-.305.0508-.407.1524-.152.1015-.203.2538-.203.3554.203-.2031.406-.1016.61-.1016.203.0508.406.1016.609.2031.203.0508.406.1523.66.2031.254.1016.457.1523.711.3047z" fill="#0421b1"/><path d="m315.515 60.68c.252 0 .457-.2046.457-.4569 0-.2524-.205-.457-.457-.457-.253 0-.457.2046-.457.457 0 .2523.204.4569.457.4569z" fill="#0421b1"/><path d="m306.935 94.6972-9.749-8.9361c-5.128-1.4217-7.514-2.4371-7.057-3.0972.66-.9647 2.03-.1523 2.589-.7616.558-.6093-.508-2.691-1.574-4.5696-1.066-1.9294.051-1.7771.762-1.4724 2.183 1.4724 4.366 3.5541 6.6 6.1943l13.455 7.3622zm-16.4 6.8038c-2.539-1.828-4.925-3.0466-7.109-3.6559-4.214-1.1677-5.889-2.0817-7.92-4.6711-1.117-1.4217-2.031-4.2142-.965-5.1281.711-.6093 4.824 2.4371 6.499 2.7925 1.676.3554.152-3.6557 1.016-3.2495 1.167 0 2.132 1.6248 2.995 4.7727l5.89 3.2495z" fill="#e8a16d"/><path d="m318.46 87.7419c-4.722-.0508-10.967-1.0663-17.669-5.2805l-2.64 5.8897c4.62 4.5696 11.119 8.3776 16.806 8.1746 4.468-.1524 6.753-5.5851 3.503-8.7838z" fill="#0a54bf"/><path d="m312.113 97.1344c-4.976 1.2693-13.404-.2031-25.133-4.4173-2.894 6.0421-4.264 10.3579-4.061 12.8969 10.103 5.28 18.735 7.616 25.894 7.768-.203 4.214.305 8.276 2.031 11.932 3.554 7.565 24.371.558 31.378 1.929 4.366-14.217-4.113-20.005-4.113-29.1439 0-9.9516-8.022-25.3359-9.19-25.3359h-10.764c-.609 7.6668-3.605 16.0952-6.042 24.3712z" fill="#428edd"/><path d="m76.9313 90.991c-2.1832-1.8786-3.808-4.3665-4.0618-7.3621-.6601-8.6823 11.5763-8.5807 14.5212-4.5696 2.9448 4.0111 4.3157 15.0289 1.4216 16.2474-1.1678.5078-3.808.1016-6.6513-1.0662l3.351 11.2715-9.6469 1.422z" fill="#e8a16d"/><path d="m88.6089 80.8865c-.2031-.5585-.5077-1.117-.7616-1.6248-.3554-.66-.8124-1.2185-1.2693-1.7263-.914-.9646-1.9802-1.8278-3.0972-2.4879-2.0817-1.2185-4.5188-1.7262-6.8036-1.117-1.1171.3047-2.1833.914-3.0464 1.8279-.7616.8124-1.4725 1.8786-2.5895 2.1325-1.2185.2538-2.4879-.6601-3.5541-1.1678-1.2186-.6093-2.4879-.9647-3.808-.9647-2.2341-.0508-4.1634 1.0154-5.382 2.9956-1.3201 2.1325-2.0309 5.0773-.6093 7.4129.2539.457.5585.8124.9647 1.0663.3554.2538.9139.5077 1.117.9647.2031.5077-.1015 1.2185-.2031 1.6755-.1523.7108-.2031 1.4216-.0507 2.0817.3046 1.1678 1.1677 2.1832 2.0817 2.7925.9139.6601 1.9294.9647 2.9956 1.0155.7108.0508 1.4217 0 2.1325-.1523.3554-.1016.66-.2031.9647-.3554.3046-.1016.5077-.0508.8123.0507 1.4217.6601 2.8434.7616 4.3666.4062 1.2693-.3046 2.6402-.8123 3.5541-1.8278 1.0155-1.117.7616-2.4371.3046-3.8588.3047.1015 1.117.0508.5585-.4062-.2031-.2031-.6092-.2539-.8631-.3046-.3046-.1016-.6093-.2539-.8632-.5078-1.0154-.8631-.4569-3.0464.6093-3.5541 1.574-.7616 2.2848 1.5232 3.5542 1.9294.7108.2539 1.3708-.3554 1.777-.8632.5585-.7616.914-1.6755 1.1678-2.5894.2031-.7616.4062-1.5232.6601-2.2848.1015-.3554.5077-1.3709.2031-1.7263 1.117-.4062 2.5386-.1015 3.6049.3554.4569.2031.8124.457 1.117.8632.0508.1015.2031.3554.3554.3554s0-.3047 0-.4062z" fill="#0421b1"/><path d="m89.7261 85.5078c.2031 1.117 1.6247 1.8786 1.9801 2.8433.4062 1.0663-1.1678 1.7263-1.9294 2.1325-.0507-.1015-.1015-.2031-.1015-.3046" fill="#e8a16d"/><path d="m86.2734 84.9999c.0508-.2539.3047-.4062.457-.5078.2031-.1015.4062-.2031.6601-.2538.2538-.0508.4569-.0508.7108 0 .1015.0507.2538.1015.3554.2031.1015.1015.1523.2538.1523.3554-.1523-.2031-.3554-.1523-.5077-.1523-.2031 0-.4062.0507-.5585.1015-.2031.0508-.4062.1016-.6093.1016-.2539.0507-.457.0507-.6601.1523z" fill="#0421b1"/><path d="m88.863 92.2607h.1523c.457-.1016.8124-.3047 1.2693-.457-.4062 0-.7616.0508-1.1678.1015-.8123.1016-1.4724-.0507-2.234-.2031.0508.3047.5077.6601.7616.7109.8124.2031 1.6248.5077 2.5387.4062-.4062-.1524-.8124-.3047-1.1678-.457-.1016-.1015-.1016-.1015-.1523-.1015z" fill="#0421b1"/><path d="m88.6687 85.866c.0265-.2227-.1326-.4248-.3554-.4513-.2227-.0266-.4248.1325-.4513.3553s.1325.4248.3553.4514c.2228.0265.4249-.1326.4514-.3554z" fill="#0421b1"/><path d="m69.5684 150.041 16.1459 55.749 7.616 41.837h7.6157l-7.6157-97.586z" fill="#e8a16d"/><path d="m62.3083 150.041c1.1171 28.94.6601 44.731.4062 47.371-.2538 2.64-1.6755 20.259-11.4748 51.078h7.9207c12.998-29.601 17.5168-47.168 18.9892-51.078 1.4725-3.909 5.8897-19.649 12.2872-47.371z" fill="#e8a16d"/><path d="m69.2129 150.041c4.2142 19.192 11.4748 49.757 21.8325 91.798h11.1706c.812-43.158-2.6914-71.54-8.7334-91.798z" fill="#fcbf35"/><path d="m62.2064 150.041c1.117 28.94-1.7771 57.475-10.6117 92.255h11.9318c12.9472-29.144 22.2387-57.526 28.5854-92.255z" fill="#fcbf35"/><path d="m50.1226 254.228.4569-7.058c2.5895.762 5.7882.457 9.647-.863 4.1634 2.945 9.393 4.925 15.6889 6.042.457.102.8124.559.7109 1.016v.101l-.6093 2.133h-15.7905-9.19z" fill="#073099"/><path d="m91.6045 254.228.457-7.058c2.5894.762 5.7881.457 9.6465-.863 4.164 2.945 9.393 4.925 15.689 6.042.457.102.813.559.711 1.016v.101l-.609 2.133h-15.791-9.1896z" fill="#073099"/><path d="m107.294 96.8307 8.834-10.0531c4.976-1.8786 7.261-3.148 6.753-3.808-.762-.9647-2.031 0-2.64-.5585s.254-2.7926 1.117-4.8743-.254-1.8278-.863-1.4724c-2.031 1.6755-4.011 4.0111-5.992 6.9559l-12.693 8.7331zm-3.961 11.4243c2.184-1.523 5.23-2.387 7.718-3.453 2.589-1.117 5.28-2.082 7.87-3.148 1.878-.761 2.945-3.0462 4.823-3.6555.762-.2539 1.828-1.0155 1.473.2031-.356 1.2186-.66 1.2693.507 1.5232 1.168.2539 6.449-.9139 8.023-.5077 1.066.3046-5.382 2.9959-11.831 4.6199l-8.327 6.55c-3.351-.66-7.159-.964-10.256-2.132z" fill="#e8a16d"/><path d="m75.0528 115.16c14.2166-.914 27.0112-5.738 41.9392-14.369l3.249 7.362c-11.881 11.881-22.5433 20.716-35.0335 19.497-3.0972-.355-8.0222-6.397-12.7949-7.921z" fill="#073099"/><path d="m64.2373 150.701h29.804c-6.7529-20.614-10.2055-34.729-10.3578-42.396 0-.406-.7108-1.066-1.0662-1.015-2.3356.66-4.8235.406-7.5145-.762-7.0067 11.424-9.4438 25.438-10.8655 44.173z" fill="#f97319"/><path d="m78.4545 100.487c2.1325-.8125 4.4173-1.1171 6.6005-1.6756 3.4018-.8124 6.6513-3.0464 9.647-4.8235 1.6247-1.0155 15.74-10.7132 16.247-10.2055l7.261 6.9052c-10.205 11.5254-21.8325 20.5124-33.7135 31.3784.2539 20.258 2.5895 38.181-7.6668 38.181-4.925 0-10.2054 0-15.892 0-2.2848-15.435 1.777-32.495 7.6667-46.762.6601-1.523 1.3202-3.097 1.9802-4.621 1.2186-2.69 2.7925-5.331 5.2804-7.057.8124-.559 1.6756-.965 2.5895-1.32z" fill="#073099"/><path d="m173.172 79.0849h55.547c1.186 0 2.174-.996 2.174-2.1913v-74.70235c0-1.195236-.988-2.19125-2.174-2.19125h-55.547c-1.187 0-2.175.996014-2.175 2.19125v74.70235c0 1.1953.988 2.1913 2.175 2.1913z" fill="#fdd7bd"/><path d="m223.579 17.3318c-7.314-.1993-14.826-.3985-22.14-.3985s-14.826 0-22.14.3985c7.314.1992 14.826.3984 22.14.3984s14.628-.1992 22.14-.3984z" fill="#fa873a"/><path d="m223.579 21.3159c-7.314-.1992-14.826-.3984-22.14-.3984s-14.826 0-22.14.3984c7.314.1992 14.826.3984 22.14.3984s14.628 0 22.14-.3984z" fill="#fa873a"/><path d="m223.579 25.4985c-7.314-.1992-14.826-.3984-22.14-.3984s-14.826 0-22.14.3984c7.314.1992 14.826.3984 22.14.3984 7.314-.1992 14.628-.1992 22.14-.3984z" fill="#fa873a"/><path d="m223.579 29.4834c-7.314-.1992-14.826-.3984-22.14-.3984s-14.826 0-22.14.3984c7.314.1992 14.826.3984 22.14.3984s14.628 0 22.14-.3984z" fill="#fa873a"/><path d="m223.579 33.4673c-7.314-.1992-14.826-.3985-22.14-.3985s-14.826.0001-22.14.3985c7.314.1992 14.826.3984 22.14.3984s14.628 0 22.14-.3984z" fill="#fa873a"/><path d="m223.579 37.6504c-7.314-.1992-14.826-.3984-22.14-.3984s-14.826-.0001-22.14.3984c7.314.1992 14.826.3984 22.14.3984s14.628-.1992 22.14-.3984z" fill="#fa873a"/><path d="m218.979 45.4408c.062-.1231.12-.2397.174-.3497.18-.2684.387-.3785.571-.3785.185 0 .394.1117.574.3844 1.377 2.1797 4.327 7.9297 4.327 15.0637 0 1.8699-.489 3.5841-1.335 4.8267-.845 1.2407-2.041 2.0056-3.467 2.0056-1.423 0-2.62-.8113-3.467-2.0793-.847-1.2687-1.335-2.9839-1.335-4.753 0-6.7998 2.679-12.1607 3.958-14.7199z" fill="#cd5605" stroke="#fdd7bd" stroke-width=".27979"/><path d="m219.823 48.208v24.5024" stroke="#fdd7bd" stroke-miterlimit="10" stroke-width=".27979"/><path d="m218.834 51.9937.989 2.1912" stroke="#fdd7bd" stroke-miterlimit="10" stroke-width=".27979"/><path d="m221.009 54.1841-1.186 2.3905" stroke="#fdd7bd" stroke-miterlimit="10" stroke-width=".27979"/><path d="m216.858 58.7661 2.965 3.7849" stroke="#fdd7bd" stroke-miterlimit="10" stroke-width=".27979"/><path d="m183.591 54.7822v-.0038c-.197-7.1317 2.752-12.8802 4.129-15.0599.18-.2726.389-.3843.574-.3843s.394.1117.574.3843c1.377 2.1798 4.327 7.9298 4.327 15.0637 0 1.8699-.489 3.5842-1.335 4.8268-.845 1.2407-2.041 2.0056-3.467 2.0056-1.423 0-2.62-.8114-3.467-2.0793-.847-1.2688-1.335-2.9839-1.335-4.7531z" fill="#ea6206" stroke="#fdd7bd" stroke-width=".27979"/><path d="m188.195 42.6309v24.7016" stroke="#fdd7bd" stroke-miterlimit="10" stroke-width=".27979"/><path d="m187.207 46.6147.988 1.9921" stroke="#fdd7bd" stroke-miterlimit="10" stroke-width=".27979"/><path d="m189.38 48.6074-1.186 2.3905" stroke="#fdd7bd" stroke-miterlimit="10" stroke-width=".27979"/><path d="m185.23 53.189 2.965 3.9841" stroke="#fdd7bd" stroke-miterlimit="10" stroke-width=".27979"/><path d="m200.451 79.0851v-13.546l15.024-15.1397 10.674 10.7571v17.9286z" fill="#f97319"/><path d="m215.475 50.3994h-25.303l-15.023 15.1397h25.302z" fill="#fcaf7b"/><path d="m200.451 65.5397v13.7453h-25.105v-13.7453s25.105-.1992 25.105 0z" fill="#fb9b5a"/><path d="m218.637 66.7344h-6.326v12.3508h6.326z" fill="#cd5605"/><path d="m178.311 51.5952c.395-.5976.988-.5976 1.384 0 1.383 2.1913 4.349 7.9683 4.349 15.1397 0 3.7849-1.977 6.9722-4.942 6.9722s-4.942-3.3865-4.942-6.9722c-.198-7.1714 2.767-12.7492 4.151-15.1397z" fill="#feebde"/><g stroke-miterlimit="10"><path d="m177.125 64.5435v.7968" stroke="#feebde" stroke-width=".019616"/><path d="m182.462 69.126v.7968" stroke="#feebde" stroke-width=".019616"/><path d="m182.462 64.3442v.7969" stroke="#feebde" stroke-width=".019616"/><path d="m177.521 57.1729v.7968" stroke="#feebde" stroke-width=".019616"/><path d="m177.521 69.5234v.7969" stroke="#feebde" stroke-width=".019616"/><path d="m176.532 67.3325v.7968" stroke="#feebde" stroke-width=".019616"/><path d="m176.729 60.3604v.7968" stroke="#feebde" stroke-width=".019616"/><path d="m179.695 65.938v.7968" stroke="#feebde" stroke-width=".019616"/><path d="m180.288 58.7666v.7968" stroke="#feebde" stroke-width=".019616"/><path d="m180.684 62.1533v.7968" stroke="#feebde" stroke-width=".019616"/><path d="m180.288 54.583v.7968" stroke="#feebde" stroke-width=".019616"/><path d="m181.078 67.731v.996" stroke="#feebde" stroke-width=".019616"/><path d="m180.486 70.918v.7968" stroke="#feebde" stroke-width=".019616"/><path d="m179.102 54.7832v24.5024" stroke="#cd5605" stroke-width=".27979"/><path d="m178.113 58.5674.989 2.1913" stroke="#cd5605" stroke-width=".27979"/><path d="m180.288 60.7593-1.186 2.3904" stroke="#cd5605" stroke-width=".27979"/><path d="m175.939 65.3413 3.163 3.7849" stroke="#cd5605" stroke-width=".27979"/></g><path d="m210.335 9.3634c0 .19921 0 .39841-.198.39841h-.198s0 0-.197 0h-.198s0 0-.198 0c-.197 0-.197 0-.197 0v.59759c0 .3984-.198.7969-.198.9961-.198.3984-.198.5976-.395.5976-.198 0-.396-.3984-.396-.996 0-.1992 0-.3985 0-.5977s0-.39839 0-.1992c0 0-.395 0-.791 0-.395 0-.79.1992-1.186.1992 0 0 0 0-.197.1993-.198.1992-.198.3984-.198.3984-.198.1992-.395.3984-.395.5976-.198.1992-.396.3984-.593.3984-.396 0-.396-.1992-.396-.3984s.593-.9961 1.977-2.1913c.791-.59762 1.581-1.39444 2.175-1.99206 0 0 .197-.19922.395-.19922h.395c.198 0 .396.00001.396.19922v.3984l-.396 1.59366h.791zm-2.175-.19922c0-.1992 0-.3984 0-.3984 0-.19921 0-.39841-.198-.39841-.197.19921-.395.19921-.593.59763-.197.1992-.395.39841-.395.59762z" fill="#cd5605"/><path d="m214.684 10.7576c0 .3984-.198.5976-.791.996-.395.1992-.791.3984-1.384.3984-.395 0-.79.1993-.988.1993 0 0-.198 0-.395 0-.198 0-.396-.1993-.593-.1993v-.1992c0-.1992.197-.3984.395-.5976l1.581.1992c.396 0 .791-.1992 1.186-.3984v-.1992c-.197-.3984-.79-.5976-1.383-.5976s-.989-.1992-1.582-.1992c-.395-.19923-.791-.39843-.791-.79684 0-.19921.198-.59762.594-.99603.395-.19921.79-.59761 1.186-.79682.395-.1992.79-.39843.988-.39843h.593c.198 0 .198.19923.198.39843 0 .19921-.198.39839-.593.5976-.396.1992-.791.19923-1.186.39843-.396.19921-.593.39841-.593.79682.395 0 .79.19922 1.186.19922.593 0 1.186.1992 1.383.3984.791-.1992.989.19922.989.79682z" fill="#cd5605"/><path d="m219.033 10.7578c0 .3985-.198.5977-.791.9961-.395.1992-.791.3984-1.384.3984-.395 0-.79.1992-.988.1992 0 0-.198 0-.395 0-.198 0-.396-.1992-.593-.1992v-.1992c0-.1992.197-.3984.395-.5976l1.581.1992c.396 0 .791-.1992 1.186-.3985v-.1991c-.197-.3985-.79-.5977-1.383-.5977s-.989-.1992-1.582-.1992c-.395-.19919-.79-.39838-.79-.7968 0-.1992.197-.59762.593-.99603.395-.19921.79-.59761 1.186-.79681.395-.19921.79-.39844.988-.39844h.593c.198 0 .198.19923.198.39844 0 .1992-.198.39838-.593.59759-.396.19921-.791.19923-1.186.39844-.396.1992-.593.3984-.593.79681.395 0 .79.19922 1.186.19922.593 0 1.186.1992 1.383.39841.791-.19921.989.19917.989.79677z" fill="#cd5605"/><path d="m222.986 9.1639c0 .59762-.198 1.1953-.593 1.7929-.396.5976-.989.996-1.779.996-.593 0-.989-.1992-1.384-.3984-.198-.3984-.396-.7968-.396-1.1952 0-.1993 0-.59768.198-1.1953.198-.59761.396-1.19521.593-1.59362.396-.59762.593-.79684.989-.79684.593 0 1.186.19921 1.581.59762.593.39841.791.99602.791 1.79284zm-1.186.19922c0-.39841 0-.79683-.198-1.19525-.198-.59761-.395-.79681-.791-.79681-.197 0-.395.19921-.593.59763-.197.39841-.197.79681-.395 1.39443 0 .39842-.198.79678-.198.99608v.5976c.198.3984.396.5976.593.5976.396 0 .791-.1992.989-.5976.395-.5976.593-.99606.593-1.59368z" fill="#cd5605"/><ellipse cx="230.276" cy="27.7477" fill="#008205" rx="15.1351" ry="15.1351"/><path clip-rule="evenodd" d="m228.03 34.0544c-.29 0-.567-.1199-.766-.3311l-5.111-5.4434c-.398-.4225-.376-1.0878.046-1.4851.424-.3973 1.089-.3763 1.485.0462l4.336 4.6152 8.837-9.6718c.393-.4299 1.057-.4583 1.486-.0673.428.391.458 1.0563.067 1.4841l-9.604 10.5105c-.196.2165-.476.3406-.768.3427z" fill="#fff" fill-rule="evenodd"/><g mask="url(#a)"><path d="m217.664 15.135h25.2252v25.2252h-25.2252z" fill="#fff"/></g></svg>