<svg width="20" height="21" viewBox="0 0 20 21" fill="none" xmlns="http://www.w3.org/2000/svg">
<path d="M16.1109 16.71L11.71 17.59" stroke="white" stroke-width="1.90263" stroke-linecap="round" stroke-linejoin="round"/>
<path d="M12.2224 12.6517L10.1666 13.4992C9.50371 13.7617 8.75158 13.4563 8.4594 12.8059C8.16723 12.1555 8.43841 11.3904 9.07494 11.0692L11.1341 10.0692C11.5866 9.84327 12.1121 9.81314 12.5874 9.98583L16.3458 11.4242" stroke="white" stroke-width="1.90263" stroke-linecap="round" stroke-linejoin="round"/>
<path d="M3.88916 17.6515H5.44249L8.03166 19.6198C8.30217 19.9243 8.76477 19.9611 9.07999 19.7031L12.9642 16.5823C13.2833 16.3208 13.3351 15.8522 13.0808 15.5273L10.9458 13.1748" stroke="white" stroke-width="1.90263" stroke-linecap="round" stroke-linejoin="round"/>
<path d="M3.88916 12.096L7.04999 10.7485C7.57363 10.539 8.16831 10.615 8.62249 10.9493L8.89333 11.1718" stroke="white" stroke-width="1.90263" stroke-linecap="round" stroke-linejoin="round"/>
<path d="M1.11084 18.7637H2.77751C3.07234 18.7637 3.3551 18.6466 3.56357 18.4381C3.77205 18.2296 3.88917 17.9469 3.88917 17.652V12.097C3.88917 11.4831 3.39146 10.9854 2.77751 10.9854H1.11084" stroke="white" stroke-width="1.90263" stroke-linecap="round" stroke-linejoin="round"/>
<path d="M18.8892 18.7637H17.2225C16.9277 18.7637 16.6449 18.6466 16.4364 18.4381C16.228 18.2296 16.1108 17.9469 16.1108 17.652V12.097C16.1108 11.4831 16.6086 10.9854 17.2225 10.9854H18.8892" stroke="white" stroke-width="1.90263" stroke-linecap="round" stroke-linejoin="round"/>
<path fill-rule="evenodd" clip-rule="evenodd" d="M8.24174 6.04753C8.24174 6.04753 7.23507 7.77087 5.77507 7.52753C2.8159 7.0342 3.3084 3.08753 2.32257 1.61087C4.26015 0.819315 6.4595 1.0027 8.23924 2.1042C9.72174 3.08753 9.72174 4.56753 8.24174 6.04753Z" stroke="white" stroke-width="1.90263" stroke-linecap="round" stroke-linejoin="round"/>
<path fill-rule="evenodd" clip-rule="evenodd" d="M12.6249 6.41526C12.6249 6.41526 13.3241 7.61193 14.3383 7.44276C16.3933 7.10026 16.0508 4.35943 16.7358 3.33193C15.3896 2.78174 13.8615 2.90906 12.6249 3.67443C11.5974 4.36193 11.5974 5.39026 12.6249 6.41526Z" stroke="white" stroke-width="1.90263" stroke-linecap="round" stroke-linejoin="round"/>
<path d="M6.26831 3.625C6.26831 3.625 9.30831 5.78083 9.80164 10.7133C10.4063 9.07916 11.3281 7.58069 12.5141 6.30417" stroke="white" stroke-width="1.90263" stroke-linecap="round" stroke-linejoin="round"/>
</svg>
