<svg width="22" height="21" viewBox="0 0 22 21" fill="none" xmlns="http://www.w3.org/2000/svg">
<path d="M2.875 4.25V18C2.875 18.6904 3.43464 19.25 4.125 19.25H6.625C7.31536 19.25 7.875 18.6904 7.875 18V12.375C7.875 10.6491 9.27411 9.25 11 9.25C12.7259 9.25 14.125 10.6491 14.125 12.375V18C14.125 18.6904 14.6846 19.25 15.375 19.25H17.875C18.5654 19.25 19.125 18.6904 19.125 18V4.25" stroke="white" stroke-width="1.90263" stroke-linecap="round" stroke-linejoin="round"/>
<path d="M1.625 6.75H20.375" stroke="white" stroke-width="1.90263" stroke-linecap="round" stroke-linejoin="round"/>
<path d="M1.625 13H9.125" stroke="white" stroke-width="1.90263" stroke-linecap="round" stroke-linejoin="round"/>
<path d="M12.875 13H20.375" stroke="white" stroke-width="1.90263" stroke-linecap="round" stroke-linejoin="round"/>
<path d="M4.75 9.25H6" stroke="white" stroke-width="1.90263" stroke-linecap="round" stroke-linejoin="round"/>
<path d="M16 9.25H17.25" stroke="white" stroke-width="1.90263" stroke-linecap="round" stroke-linejoin="round"/>
<path d="M5.37497 15.499V16.749" stroke="white" stroke-width="1.90263" stroke-linecap="round" stroke-linejoin="round"/>
<path d="M16.625 15.499V16.749" stroke="white" stroke-width="1.90263" stroke-linecap="round" stroke-linejoin="round"/>
<rect x="1.625" y="1.75" width="18.75" height="2.5" rx="0.634211" stroke="white" stroke-width="1.90263" stroke-linecap="round" stroke-linejoin="round"/>
</svg>
