<svg width="22" height="21" viewBox="0 0 22 21" fill="none" xmlns="http://www.w3.org/2000/svg">
<path d="M4.74992 3.625C3.63775 3.62488 2.65923 4.35949 2.34893 5.42749C2.03863 6.49549 2.47117 7.64007 3.41025 8.23592C4.34933 8.83178 5.56913 8.73563 6.40325 8" stroke="white" stroke-width="1.90263" stroke-linecap="round" stroke-linejoin="round"/>
<path fill-rule="evenodd" clip-rule="evenodd" d="M1.625 14.875V13C1.625 11.2741 3.02411 9.875 4.75 9.875C6.47589 9.875 7.875 11.2741 7.875 13V14.875H6.625L6 19.875H3.5L2.875 14.875H1.625Z" stroke="white" stroke-width="1.90263" stroke-linecap="round" stroke-linejoin="round"/>
<path fill-rule="evenodd" clip-rule="evenodd" d="M15.3749 19.875L14.7499 16.125H12.8749L13.8199 12.68C14.3808 10.9975 15.0758 9.875 16.6249 9.875C18.1741 9.875 18.8691 10.9975 19.4299 12.68L20.3749 16.125H18.4999L17.8749 19.875H15.3749Z" stroke="white" stroke-width="1.90263" stroke-linecap="round" stroke-linejoin="round"/>
<path fill-rule="evenodd" clip-rule="evenodd" d="M16.6249 8.625C18.0057 8.625 19.1249 7.50571 19.1249 6.125C19.1249 4.74429 18.0057 3.625 16.6249 3.625C15.2442 3.625 14.1249 4.74429 14.1249 6.125C14.1249 7.50571 15.2442 8.625 16.6249 8.625Z" stroke="white" stroke-width="1.90263" stroke-linecap="round" stroke-linejoin="round"/>
<path fill-rule="evenodd" clip-rule="evenodd" d="M8.50006 6.125C9.19042 6.125 9.75006 5.56536 9.75006 4.875C9.75006 4.18464 9.19042 3.625 8.50006 3.625C7.80971 3.625 7.25006 4.18464 7.25006 4.875C7.25006 5.56536 7.80971 6.125 8.50006 6.125Z" stroke="white" stroke-width="1.90263" stroke-linecap="round" stroke-linejoin="round"/>
<path d="M9.75006 4.875V1.125" stroke="white" stroke-width="1.90263" stroke-linecap="round" stroke-linejoin="round"/>
<path fill-rule="evenodd" clip-rule="evenodd" d="M11.0001 11.75C11.6904 11.75 12.2501 11.1904 12.2501 10.5C12.2501 9.80964 11.6904 9.25 11.0001 9.25C10.3097 9.25 9.75006 9.80964 9.75006 10.5C9.75006 11.1904 10.3097 11.75 11.0001 11.75Z" stroke="white" stroke-width="1.90263" stroke-linecap="round" stroke-linejoin="round"/>
<path d="M12.2501 10.5V6.75" stroke="white" stroke-width="1.90263" stroke-linecap="round" stroke-linejoin="round"/>
</svg>
