<svg width="22" height="19" viewBox="0 0 22 19" fill="none" xmlns="http://www.w3.org/2000/svg">
<path fill-rule="evenodd" clip-rule="evenodd" d="M19.8758 3.96509C19.1862 2.61603 17.8944 1.67685 16.3985 1.43694C14.9025 1.19702 13.3818 1.68515 12.305 2.75092L11 3.94176L9.69495 2.75092C8.61774 1.68534 7.0968 1.19761 5.60078 1.43802C4.10477 1.67844 2.81322 2.61815 2.12412 3.96759C1.21417 5.77043 1.57212 7.95453 3.00995 9.37259L11 17.6259L18.99 9.37009C20.4278 7.95203 20.7857 5.76793 19.8758 3.96509Z" stroke="white" stroke-width="1.90263" stroke-linecap="round" stroke-linejoin="round"/>
<path d="M5.37497 8.25006H7.68164C7.80007 8.25002 7.9084 8.31676 7.96164 8.42256L9.43914 11.3776C9.49422 11.4874 9.60852 11.5547 9.73125 11.5497C9.85399 11.5446 9.96239 11.4682 10.0083 11.3542L11.9916 6.39589C12.0375 6.28196 12.146 6.20549 12.2687 6.20046C12.3914 6.19543 12.5057 6.26277 12.5608 6.37256L13.4166 8.07756C13.4699 8.18336 13.5782 8.2501 13.6966 8.25006H16.625" stroke="white" stroke-width="1.90263" stroke-linecap="round" stroke-linejoin="round"/>
</svg>
