<svg viewBox="0 0 140 140" height="140" width="140" xmlns="http://www.w3.org/2000/svg"><g transform="matrix(5.833333333333333,0,0,5.833333333333333,0,0)"><path d="M23.286,12.433a1,1,0,0,0-.979-1.193H10.479a1,1,0,0,1-.978-.8L9.224,9.049a1,1,0,0,0-.978-.8H1.8A1,1,0,0,0,.825,9.442L3.418,22.447a1,1,0,0,0,.978.8H20.313a1,1,0,0,0,.978-.8C21.7,20.39,22.8,14.868,23.286,12.433Z" fill="none" stroke="#ffffff" stroke-linecap="round" stroke-linejoin="round" stroke-width="1.5"></path><path d="M4.556,5.248l.02-3.5a1,1,0,0,1,1-1H18.538a1,1,0,0,1,1,1l.021,6.5" fill="none" stroke="#ffffff" stroke-linecap="round" stroke-linejoin="round" stroke-width="1.5"></path><path d="M7.568 3.74L15.806 3.748" fill="none" stroke="#ffffff" stroke-linecap="round" stroke-linejoin="round" stroke-width="1.5"></path><path d="M12.056 6.748L15.806 6.748" fill="none" stroke="#ffffff" stroke-linecap="round" stroke-linejoin="round" stroke-width="1.5"></path></g></svg>