<svg width="23" height="23" viewBox="0 0 23 23" fill="none" xmlns="http://www.w3.org/2000/svg">
<path fill-rule="evenodd" clip-rule="evenodd" d="M11.625 1.12598C6.10215 1.12598 1.625 5.60313 1.625 11.126C1.625 16.6488 6.10215 21.126 11.625 21.126C17.1478 21.126 21.625 16.6488 21.625 11.126C21.625 8.47381 20.5714 5.93027 18.6961 4.05491C16.8207 2.17954 14.2772 1.12598 11.625 1.12598Z" stroke="white" stroke-width="1.90263" stroke-linecap="round" stroke-linejoin="round"/>
<path fill-rule="evenodd" clip-rule="evenodd" d="M8.86501 15.3525L7.16724 10.1081L11.625 6.86719L16.0828 10.1081L14.385 15.3525H8.86501V15.3525Z" stroke="white" stroke-width="1.90263" stroke-linecap="round" stroke-linejoin="round"/>
<path d="M15.4481 1.88281L11.6249 4.4597L7.80183 1.88281" stroke="white" stroke-width="1.90263" stroke-linecap="round" stroke-linejoin="round"/>
<path d="M13.9352 20.8571L15.8365 16.9762L20.1778 16.3096" stroke="white" stroke-width="1.90263" stroke-linecap="round" stroke-linejoin="round"/>
<path d="M21.5931 11.9337L18.5469 8.89997L19.2002 4.59863" stroke="white" stroke-width="1.90263" stroke-linecap="round" stroke-linejoin="round"/>
<path d="M11.625 4.45898V6.8661" stroke="white" stroke-width="1.90263" stroke-linecap="round" stroke-linejoin="round"/>
<path d="M16.0828 10.1065L18.5468 8.89941" stroke="white" stroke-width="1.90263" stroke-linecap="round" stroke-linejoin="round"/>
<path d="M1.65697 11.9337L4.70319 8.89997L4.04986 4.59863" stroke="white" stroke-width="1.90263" stroke-linecap="round" stroke-linejoin="round"/>
<path d="M7.16713 10.1065L4.70313 8.89941" stroke="white" stroke-width="1.90263" stroke-linecap="round" stroke-linejoin="round"/>
<path d="M14.3849 15.3516L15.8365 16.9765" stroke="white" stroke-width="1.90263" stroke-linecap="round" stroke-linejoin="round"/>
<path d="M9.31476 20.8571L7.41343 16.9762L3.0721 16.3096" stroke="white" stroke-width="1.90263" stroke-linecap="round" stroke-linejoin="round"/>
<path d="M8.86508 15.3516L7.41352 16.9765" stroke="white" stroke-width="1.90263" stroke-linecap="round" stroke-linejoin="round"/>
</svg>
