<svg fill="none" height="224" viewBox="0 0 304 224" width="304" xmlns="http://www.w3.org/2000/svg"><path d="m29.1107 192.635c.3462-.6.9945-1.004 1.7372-1.004h43.1102c.7427 0 1.391.404 1.7372 1.004z" fill="#ececfe" stroke="#e3e3fd" stroke-width="1.50206"/><path d="m39.6608 218.669v-1.461l2.874-2.826c.6466-.659 1.0538-1.114 1.0538-1.796 0-.695-.479-1.102-1.1377-1.102-.8023 0-1.2933.491-1.7363 1.233l-1.3173-.802c.7065-1.15 1.7484-1.868 3.2093-1.868 1.461 0 2.6345.934 2.6345 2.371 0 1.15-.7544 2.036-1.5807 2.838l-2.0238 1.952h3.8201v1.461zm10.0782-8.622c2.2034 0 3.2333 1.916 3.2333 4.431 0 2.514-1.0299 4.43-3.2333 4.43s-3.2332-1.916-3.2332-4.43c0-2.515 1.0298-4.431 3.2332-4.431zm0 1.497c-1.0657 0-1.5807 1.173-1.5807 2.934 0 1.772.515 2.934 1.5807 2.934 1.0538 0 1.5687-1.174 1.5687-2.934 0-1.773-.5149-2.934-1.5687-2.934zm4.259 7.125v-1.461l2.874-2.826c.6467-.659 1.0538-1.114 1.0538-1.796 0-.695-.479-1.102-1.1376-1.102-.8023 0-1.2933.491-1.7364 1.233l-1.3172-.802c.7065-1.15 1.7483-1.868 3.2093-1.868 1.4609 0 2.6345.934 2.6345 2.371 0 1.15-.7545 2.036-1.5807 2.838l-2.0238 1.952h3.82v1.461zm8.873-.012v-6.718l-1.7364.982-.8023-1.15 2.5866-1.497h1.5687v8.383z" fill="#f5f5fe"/><path d="m91.9961 169.194c0-1.657 1.3431-3 3-3h41.1189c1.656 0 3 1.343 3 3v23.441h-47.1189z" fill="#c1c1fb" stroke="#e3e3fd" stroke-width="2"/><path d="m101.971 218.669v-1.461l2.874-2.826c.647-.659 1.054-1.114 1.054-1.796 0-.695-.479-1.102-1.138-1.102-.802 0-1.293.491-1.736 1.233l-1.317-.802c.706-1.15 1.748-1.868 3.209-1.868s2.634.934 2.634 2.371c0 1.15-.754 2.036-1.58 2.838l-2.024 1.952h3.82v1.461zm10.078-8.622c2.204 0 3.234 1.916 3.234 4.431 0 2.514-1.03 4.43-3.234 4.43-2.203 0-3.233-1.916-3.233-4.43 0-2.515 1.03-4.431 3.233-4.431zm0 1.497c-1.065 0-1.58 1.173-1.58 2.934 0 1.772.515 2.934 1.58 2.934 1.054 0 1.569-1.174 1.569-2.934 0-1.773-.515-2.934-1.569-2.934zm4.259 7.125v-1.461l2.874-2.826c.647-.659 1.054-1.114 1.054-1.796 0-.695-.479-1.102-1.137-1.102-.803 0-1.294.491-1.737 1.233l-1.317-.802c.706-1.15 1.748-1.868 3.209-1.868s2.635.934 2.635 2.371c0 1.15-.755 2.036-1.581 2.838l-2.024 1.952h3.82v1.461zm7.04 0v-1.461l2.874-2.826c.647-.659 1.054-1.114 1.054-1.796 0-.695-.479-1.102-1.137-1.102-.803 0-1.294.491-1.737 1.233l-1.317-.802c.706-1.15 1.748-1.868 3.209-1.868s2.635.934 2.635 2.371c0 1.15-.755 2.036-1.581 2.838l-2.024 1.952h3.82v1.461z" fill="#f5f5fe"/><path d="m155.148 142.245c0-1.657 1.344-3 3-3h41.119c1.657 0 3 1.343 3 3v50.39h-47.119z" fill="#adadf9" stroke="#e3e3fd" stroke-width="2"/><path d="m165.141 218.669v-1.461l2.874-2.826c.647-.659 1.054-1.114 1.054-1.796 0-.695-.479-1.102-1.138-1.102-.802 0-1.293.491-1.736 1.233l-1.317-.802c.706-1.15 1.748-1.868 3.209-1.868s2.634.934 2.634 2.371c0 1.15-.754 2.036-1.58 2.838l-2.024 1.952h3.82v1.461zm10.078-8.622c2.204 0 3.234 1.916 3.234 4.431 0 2.514-1.03 4.43-3.234 4.43-2.203 0-3.233-1.916-3.233-4.43 0-2.515 1.03-4.431 3.233-4.431zm0 1.497c-1.066 0-1.58 1.173-1.58 2.934 0 1.772.514 2.934 1.58 2.934 1.054 0 1.569-1.174 1.569-2.934 0-1.773-.515-2.934-1.569-2.934zm4.259 7.125v-1.461l2.874-2.826c.647-.659 1.054-1.114 1.054-1.796 0-.695-.479-1.102-1.138-1.102-.802 0-1.293.491-1.736 1.233l-1.317-.802c.706-1.15 1.748-1.868 3.209-1.868s2.635.934 2.635 2.371c0 1.15-.755 2.036-1.581 2.838l-2.024 1.952h3.82v1.461zm12.909-2.395c0 1.593-1.305 2.634-3.054 2.634-1.581 0-2.598-.694-3.281-1.892l1.413-.874c.467.922 1.03 1.329 1.856 1.329.815 0 1.425-.491 1.425-1.269 0-.766-.599-1.245-1.485-1.245h-1.377v-1.437h1.27c.706 0 1.221-.395 1.221-1.042 0-.635-.479-.994-1.138-.994-.67 0-1.125.359-1.473.958l-1.317-.814c.611-.994 1.557-1.581 2.91-1.581 1.533 0 2.671.874 2.671 2.251 0 .779-.336 1.437-.958 1.868.85.431 1.317 1.186 1.317 2.108z" fill="#f5f5fe"/><path d="m218.301 76.3955c0-1.6568 1.343-3 3-3h41.118c1.657 0 3 1.3432 3 3v116.2395h-47.118z" fill="#8b8bf6" stroke="#e3e3fd" stroke-width="2"/><path d="m228.504 218.669v-1.461l2.874-2.826c.646-.659 1.054-1.114 1.054-1.796 0-.695-.479-1.102-1.138-1.102-.802 0-1.293.491-1.736 1.233l-1.318-.802c.707-1.15 1.749-1.868 3.21-1.868s2.634.934 2.634 2.371c0 1.15-.754 2.036-1.581 2.838l-2.023 1.952h3.82v1.461zm10.078-8.622c2.204 0 3.233 1.916 3.233 4.431 0 2.514-1.029 4.43-3.233 4.43-2.203 0-3.233-1.916-3.233-4.43 0-2.515 1.03-4.431 3.233-4.431zm0 1.497c-1.066 0-1.581 1.173-1.581 2.934 0 1.772.515 2.934 1.581 2.934 1.054 0 1.569-1.174 1.569-2.934 0-1.773-.515-2.934-1.569-2.934zm4.259 7.125v-1.461l2.874-2.826c.647-.659 1.054-1.114 1.054-1.796 0-.695-.479-1.102-1.138-1.102-.802 0-1.293.491-1.736 1.233l-1.317-.802c.706-1.15 1.748-1.868 3.209-1.868s2.634.934 2.634 2.371c0 1.15-.754 2.036-1.58 2.838l-2.024 1.952h3.82v1.461zm6.321-2.227v-1.461l3.592-4.695h1.892v4.695h.85v1.461h-.85v2.227h-1.617v-2.227zm1.664-1.461h2.203v-2.862z" fill="#f5f5fe"/><path d="m28.5986 191.048c177.6284-24.122 228.6564-144.8242 239.9044-186.04782" stroke="#ce0500" stroke-linecap="round" stroke-width="2.63135"/></svg>