<svg fill="none" height="60" viewBox="0 0 60 60" width="60" xmlns="http://www.w3.org/2000/svg" xmlns:xlink="http://www.w3.org/1999/xlink"><filter id="a" color-interpolation-filters="sRGB" filterUnits="userSpaceOnUse" height="61.4062" width="59.8373" x=".653763" y="-.351608"><feFlood flood-opacity="0" result="BackgroundImageFix"/><feColorMatrix in="SourceAlpha" result="hardAlpha" type="matrix" values="0 0 0 0 0 0 0 0 0 0 0 0 0 0 0 0 0 0 127 0"/><feOffset dx=".351608" dy=".351608"/><feGaussianBlur stdDeviation=".351608"/><feColorMatrix type="matrix" values="0 0 0 0 0.129412 0 0 0 0 0.129412 0 0 0 0 0.129412 0 0 0 0.5 0"/><feBlend in2="BackgroundImageFix" mode="normal" result="effect1_dropShadow_172_61674"/><feBlend in="SourceGraphic" in2="effect1_dropShadow_172_61674" mode="normal" result="shape"/></filter><clipPath id="b"><path d="m0 0h60v60h-60z"/></clipPath><g clip-path="url(#b)"><g filter="url(#a)"><path d="m49.5585 5.46023c.4903-.57951.8246-1.27047.7578-2.05057-.156-2.25117-3.2988-1.76081-3.9229-.62409-.6017 1.13673-.5349 4.03427.2452 4.23487.3121.08915.9807-.11145 1.6717-.53493l-.4235 3.03127h2.5409z" fill="#ac5419"/><path d="m45.2797 1.20359c.0445-.17831.2005-.334329.3789-.378907.0445-.022288.0891-.022288.1337-.022288h.0223s0-.02229 0-.044579c0-.022288.0223-.066864.0223-.089153.0445-.111444.1114-.2006.1783-.289755.156-.156021.3566-.245175.5572-.267464.1114 0 .2229-.000001.3343.044577.0669.022288.1115.044578.1561.066867.0222 0 .0668.044576.0891.044576s.0446-.044578.0669-.066867c.1783-.1337321.4012-.200597.6241-.200597.2451 0 .4903.0222877.7132.178309.0446.022289.0892.066866.1337.111444.0223.022289.0446.044578.0669.066867s.0223.022288.0446.044577c.0223.022288.0223.022288.0446.022288.1114-.066866.2228-.089154.3343-.066865.0668 0 .1337.022288.2006.066865.0223 0 .0668.044579.0891.044579s.0669-.044579.0892-.044579c.1337-.044577.2675-.066866.4012-.044577s.2897.089155.4012.156021c.0669.044577.1114.089156.156.133734.0223.022289.0223.044576.0446.066865s.0446.02229.0446.044579c0 0 .156-.066867.1783-.066867.0891-.022289.156-.022289.2451 0 .1561.044577.2675.15602.379.267464.0445.066866.0891.111446.1337.178306.0223.02229.0446.06687.0446.08916s.0223.04458.0223.04458c.0222.02229.0222.02229.0445.02229.1115.04457.2229.11144.3121.20059.0891.08916.1337.22289.156.33434v.04457h.0446c.0223 0 .0668 0 .0891.02229.0669.02229.1115.02229.1561.06687.2006.11144.3566.28975.4234.51264.0669.22289.0669.49035-.0223.69095-.0222.04458-.0222.06687-.0445.11145-.0223.02228-.0223.02229 0 .04457 0 .02229.0223.04458.0445.06687.0446.06687.0669.15602.0669.22289.0223.13373.0446.26746.0223.4012-.0223.06686-.0223.11144-.0669.1783-.0223.02229-.0445.04458-.0445.08916 0 .02229-.0223.02229-.0446.04458l-.0223.02229c-.0223.02229-.0223 0 0 .02229 0 .04457.0223.06686.0446.11144s.0223.06687.0445.11144c.0223.06687.0446.15602.0669.24518.0223.15602.0223.31204-.0446.46806-.0223.06687-.0668.11145-.1337.15602-.0223.02229-.0446.04458-.0891.04458-.0223 0-.0446 0-.0446.02229v.06687c.0223.15602.0445.31204-.0223.46806-.0446.13373-.1337.26747-.2675.35662-.2452.15602-.5572.15602-.8024.02229-.0668-.04458-.1337-.06687-.1783-.13373-.1337.17831-.4235.17831-.6241.13373-.2452-.06687-.4458-.24518-.5795-.46806-.156.20059-.4903.13373-.6018-.08916-.0223-.04458-.0446-.11144-.0446-.15602 0-.02229 0-.06687 0-.08916 0-.04457-.0222-.06686-.0445-.11144-.0223-.06687-.0446-.15602-.0446-.22289 0-.04458 0-.08915 0-.11144 0-.04458 0-.06687-.0223-.11144.0669 0 .1337 0 .2006-.02229s.1114-.06687.156-.11145c.0892-.11144.156-.24517.2006-.37891.0892-.28975.0446-.64637-.2452-.80239-.1337-.06687-.5572-.06687-.7132-.04458-.1783.04458-.3789.42349-.3789.46806 0 .02229 0 .04458-.0223.06687-.0446.02229-.1114-.02229-.156-.04458-.0669-.04457-.0892-.11144-.1337-.17831-.0669-.13373-.1338-.28975-.1784-.44577-.0445-.11145-.0445-.24518-.0891-.35662-.0446-.11145-.1115-.22289-.2229-.28976-.1114-.06686-.2452-.11144-.3789-.15602-.1337-.04457-.2452-.08915-.3566-.2006-.0223-.02228-.0446-.04457-.0669-.06686s-.0223-.06687-.0446-.06687c-.0223-.02229-.0891.02229-.1114.04458-.1337.08915-.2452.22289-.3566.35662-.0892.13373-.1783.26746-.2229.42349-.0446.11144-.0669.24517-.156.33433-.0446.04457-.3121.06686-.4012.02229-.0892-.04458-.1784-.13374-.2229-.17831-.0223-.06687-.0446-.13374-.0223-.17831 0-.04458.0223-.06687.0223-.11145 0-.02229.0223-.06686.0223-.08915.0222-.04458.0891-.08916.1337-.11145-.0669-.06686-.1115-.13373-.156-.20059-.0446-.08916-.0669-.17832-.0669-.26747 0-.06687 0-.13373.0446-.2006s.1114-.11144.1783-.15602c-.0892-.06687-.1783-.15602-.2452-.26747-.0669-.22288-.1337-.46806-.0668-.69095z" fill="#212121"/><path d="m46.0592 4.50269c0 .3789-.3789.69095-.3566 1.04757.156.02229.3121.04457.4681.06686" fill="#ac5419"/><path d="m46.1499 6.15171c.1337.04458.2675.02229.3789-.04457.1115-.06687.2006-.15602.2229-.28976-.1114.06687-.2006.11145-.312.15602-.0669.06687-.1784.11145-.2898.17831z" fill="#212121"/><path d="m46.7071 4.32428c0-.06687-.0223-.13373-.0668-.17831-.0446-.04458-.1115-.06687-.1784-.06687-.0668 0-.1337 0-.2006.02229-.0668.02229-.1114.08916-.1114.15602.0669-.02229.1114-.02229.156-.04458h.1338c.0445 0 .0891.02229.1337.02229.0223.04458.0669.04458.1337.08916z" fill="#212121"/><path d="m46.2843 4.68035c.0616-.00082.1108-.05138.11-.11292-.0008-.06155-.0514-.11077-.1129-.10994-.0616.00083-.1108.05138-.11.11293.0008.06154.0514.11076.1129.10993z" fill="#212121"/><path d="m46.2609 10.8762-3.6776-2.00594c-.6018-.71324-1.2036-1.29275-1.8054-1.69395-.1783-.06687-.4904-.11144-.2006.4012.2898.53493.5795 1.09214.4235 1.24817-.156.15602-.5349-.06687-.7133.2006-.1114.17831.5127.46806 1.9169.84697l2.6746 2.42945z" fill="#ac5419"/><path d="m48.2662 10.5865c-1.2927-.0223-2.9867-.2898-4.8367-1.4488l-.7132 1.6048c1.2705 1.2482 3.0313 2.2734 4.5915 2.2289 1.2259-.0446 1.85-1.5157.9584-2.3849z" fill="#443023"/><path d="m34.2249 5.21558c1.6494-.37891 3.2987-.84697 4.9258-1.27046.2006-.04458 1.0253-.37891 1.159-.31204 0 0 .1561.86926.1783 1.11443.0892.82469.2229 1.64937.3344 2.47406.0891.55721.156 1.04757.2006 1.31503 0 .06687.0223.11145.0223.13373 0 .08916 0 .13374-.0446.17832-.156.15602-.5349-.06687-.7133.20059-.0891.13374.2898.33434 1.1368.62409.4457 1.06987 2.006 3.34327 2.1843 3.52167-1.2705.5572-2.5187 1.1144-3.7891 1.6493-.3121.1338-2.162 1.0253-2.4964.9362-.3343-.0892-.8246-1.1145-1.0921-1.6717-.6464-1.3373-1.1367-2.7638-1.4711-4.21258-.0891-.4012-.8692-4.61378-.5349-4.68064z" fill="#fca306"/><path d="m39.9088 16.4485c-.7578-.535-1.4488-.9139-2.0952-1.0922-1.2481-.3343-1.7385-.6018-2.3403-1.3819-.3343-.4235-.6018-1.2482-.2897-1.5156.2006-.1783 1.4265.7132 1.9168.8247.4904.1114.0446-1.0699.312-.9584.3344 0 .6241.468.8693 1.4041l1.7385.9585z" fill="#ac5419"/><path d="m45.8378 14.309c-1.3596.3344-3.6553-.0668-6.8649-1.2035-.8024 1.6493-1.159 2.8306-1.1145 3.5216 2.7638 1.4487 5.1042 2.0728 7.0656 2.1174-.0669 1.159.0891 2.2512.5572 3.2542.9807 2.0728 6.642.156 8.5589.5349 1.2036-3.8783-1.1145-5.4608-1.1145-7.9571 0-2.7192-2.1843-6.90951-2.5186-6.90951h-2.9421c-.156 2.09515-.9584 4.36861-1.6271 6.64201z" fill="#443023"/><path d="m56.4717 47.7214h-51.2864v.8024h51.2864z" fill="#443023"/><path d="m56.4722 48.502h-51.28641v2.4963h51.28641z" fill="#5a483c"/><path d="m2.22095 21.1968v-2.3626h57.21525v2.3626h-1.8277-53.53759z" fill="#5a483c"/><path d="m58.1419 39.0728h-54.60748v8.6257h54.60748z" fill="#eee7e5"/><path d="m58.1424 22.178h-54.60749v16.3822h54.60749z" fill="#eee7e5"/><path d="m58.1419 38.5596h-54.60748v.5126h54.60748z" fill="#5a483c"/><path d="m58.1426 21.1968h-54.60744v.9807h54.60744z" fill="#443023"/><path d="m26.0454 17.028 4.7698.5795c.1115-.4457 1.2036-6.7089 1.2036-6.7089l-4.9035-.5126s-.2452 1.5825-.5127 3.2096c-.0223.1783-.0668.3566-.0891.5572-.0223.1337-.0446.2897-.0669.4235-.0223.0668-.0223.1337-.0446.2006-.0223.1114-.0445.2229-.0445.3343v.1114c0 .0446.0445.0892.0668.1338.156.1783.5795-.0669.7801.2229.0892.1337-.2451.3343-1.0253.6018-.0668.4234-.1114.7355-.1337.8469z" fill="#ea8003"/><path d="m27.3168 22.1093c.7578-.5572 1.471-.9138 2.1174-1.0922 1.2482-.3566 1.7608-.624 2.3849-1.4041.3343-.4235.6018-1.2482.2897-1.538-.2006-.1783-1.4264.7356-1.9391.8247-.5126.1115-.0446-1.0921-.312-.9584-.3343 0-.6464.4903-.8916 1.4265l-1.7608.9807z" fill="#ffe0cb"/><path d="m13.3201 27.437 5.5722 14.7329 3.9005 10.8546h2.2289l-5.3716-25.5875z" fill="#443023"/><path d="m11.9598 27.437c-.0669 5.0596-.0223 11.8576-.1561 12.1697-.0891.2006-3.00894 2.6078-8.78173 7.177l1.13673 1.9614c6.8426-4.4132 10.4311-6.9095 10.7655-7.4891.5349-.8915 3.165-8.9823 4.5246-13.819z" fill="#443023"/><path d="m1.00534 48.1087 1.93147-1.4776 1.56027 1.8622c.13008 1.4046.57725 2.9795 1.40428 4.7301l-.35833.3011-2.81995-3.3656-.80275-1.3052-.17063.1434z" fill="#b3a7a1"/><path d="m22.592 55.097.1115-2.4295h2.4295c1.159.8024 2.6523 1.471 4.5246 1.9614v.4681h-4.3909l-1.5156-.2229v.2229z" fill="#b3a7a1"/><path d="m16.4627 10.4076c-.5349-.62405-.8915-1.40415-.8246-2.25112.1783-2.47406 3.633-1.93913 4.3017-.69096.6686 1.24817.6018 4.41318-.2675 4.65838-.3566.0891-1.0921-.1338-1.8277-.5795l.4681 3.321h-2.7861z" fill="#ffe0cb"/><path d="m18.825 6.10605c-.3789-.11145-.9361-.15602-1.159-.13373.1338-.31205.1783-.66867.1338-1.003-.0446-.33433-.2006-.62408-.3344-.91384-.0668-.13373-.1337-.26746-.2452-.37891-.1114-.11144-.2451-.17831-.4011-.20059-.1561-.04458-.3121-.02229-.4458 0-.0669.02228-.1338.04457-.1783.06686-.0669.02229-.0892-.02229-.1561-.06686-.1114-.08916-.2897-.15603-.4234-.17832-.1561-.02228-.3344.00001-.4904.06687-.156.04458-.2897.13373-.4012.26747-.0446.04457-.0891.11144-.1114.17831-.0223.02229-.0223.04457-.0446.06686-.0223 0-.0669 0-.0892.02229-.2674.08916-.4903.28976-.6018.55722-.0668.15602-.1114.42349-.0891.71324 0 .28975.2897 1.09215.5349 1.35961.2229.24518.5572.42349.8693.49036-.2229.24517-.3566.55722-.4681.84697-.1114.33433-.1783.69095-.2006 1.04757-.0223.33433-.0223.69095.0446 1.02528.0669.31209.2229.55719.4903.71329.1115.0668.2452.1337.3789.1783.1338.0445.2675.0891.4012.1337.2452.0446.5573.0446.7579-.156.0668-.0669.156-.156.2006-.2452.0222-.0223.0222-.0446 0-.0892-.0223-.0445-.0669-.0668-.1115-.0891-.2006-.1783-.312-.40121-.3566-.66867-.0223-.26747.0446-.62409.312-.73553.3344-.15602.691.02229.9807.17831.1338-.42349.379-.82468.7802-1.02528.4457-.22289.9361-.24518 1.3819-.44578.1114-.04458.2451-.11144.312-.2006.0446-.04458.0892-.08915.0892-.15602.0222-.06687-.0223-.13373-.0669-.2006-.1783-.31204-.8916-.91384-1.2928-1.02528z" fill="#443023"/><path d="m20.3397 9.31592c-.0223.42348.3566.75778.4235 1.15898.0446.4235-.4681.2898-.7578.3789" fill="#ffe0cb"/><path d="m20.1628 11.2765c-.1337.0445-.2675.0223-.4012 0-.1337-.0446-.2229-.0892-.3343-.0892l.1114-.0891c0 .0445 0 .0668.0223.1114s.0669.0892.1114.156c.0446.0446.0892.1115.1338.156.0445.0669.0891.1115.1114.2006-.1114-.0891-.2452-.1337-.3789-.2228-.0669-.0446-.1114-.0892-.1783-.1783-.0446-.0669-.0892-.1784-.0669-.2898l.0223-.0892h.0892c.156.0223.2674.0892.3789.1561.156.0891.2452.156.3789.1783z" fill="#443023"/><path d="m19.9614 9.38294c.0738 0 .1337-.05987.1337-.13373s-.0599-.13373-.1337-.13373c-.0739 0-.1338.05987-.1338.13373s.0599.13373.1338.13373z" fill="#443023"/><path d="m20.2071 8.91468c-.0669-.04458-.1337-.04458-.1783-.04458-.0669 0-.1114 0-.1783 0h-.2006c-.0669 0-.1337 0-.2229 0 .0223-.08915.1114-.13373.1783-.17831.0669-.04457.156-.04457.2229-.04457.0892 0 .156.02228.2452.06686.0891.02229.156.11145.1337.2006z" fill="#443023"/><path d="m20.6978 17.5848 4.0119-2.2066c.6687-.8024 1.3374-1.4042 1.9837-1.8499.2006-.0892.535-.1338.2229.4457-.3343.5795-.6464 1.2036-.468 1.3819.156.1783.5795-.0668.7801.2229.1337.2006-.5795.5127-2.1175.9361l-2.9198 2.6747z" fill="#ffe0cb"/><path d="m18.7359 17.0954c1.4041-.0222 3.2764-.312 5.2824-1.5825l.7801 1.7609c-1.3819 1.3819-3.321 2.4963-5.015 2.4517-1.3373-.0446-2.0283-1.6716-1.0475-2.6301z" fill="#443023"/><g fill="#b3a7a1"><path d="m20.6302 19.9034c1.4933.3789 4.012-.0669 7.5113-1.315.8693 1.8054 1.2705 3.0981 1.2036 3.8559-3.009 1.5825-5.5945 2.2735-7.7342 2.3181.0669 1.2704-.0892 2.474-.6018 3.5662-1.0699 2.2511-7.2884.156-9.3836.5795-1.315-4.2572 1.2259-5.9957 1.2259-8.7149 0-2.9867 2.4072-7.5782 2.7415-7.5782h3.2096c.2006 2.2957 1.0922 4.8144 1.8277 7.2884z"/><path d="m34.5155 38.1582c-.7355.3789-1.5156.7355-2.318 1.003-4.1457 1.4711-14.4208 1.4711-18.5665.0446-.847-.2898-1.6717-.6464-2.4518-1.0476l-.6018.6687c.8024.4235 1.6494.7801 2.5186 1.0921 2.162.7578 7.4222 1.159 9.8517 1.159 2.474 0 7.5336-.4012 9.7401-1.2036.8247-.2897 1.6271-.6463 2.4072-1.0475z"/><path d="m13.1626 59.6431c-.2452-.2452-.7801-.4012-1.4042-.4012h-.691v-20.6617-.4235h-.7355-.75781v.4235 20.6394h-.69095c-.62409 0-1.15902.1783-1.40419.4012-.08916.0892-.13374.1783-.13374.2898v.0891h5.92879v-.0891c0-.0892-.0446-.1783-.1114-.2675z"/><path d="m11.5124 37.9116h-.7355v-2.4072h-.91384v2.4072h-.71324c-.11145 0-.2006.0891-.2006.2006 0 .1114.08915.2006.2006.2006h.71324v.2897h.91384v-.2897h.7355c.1115 0 .2006-.0892.2006-.2006 0-.1115-.0891-.2006-.2006-.2006z"/><path d="m10.9118 33.5214c-.1783-.0669-.3789-.1115-.6018-.1115-.62406 0-1.1367.3566-1.3373.847-.04458.1337-.08916.2674-.08916.4235 0 .6909.62409 1.2481 1.40416 1.2481.7801 0 1.4042-.5572 1.4042-1.2481.0223-.535-.2897-.9584-.7801-1.159z"/><path d="m38.0583 59.5318c-.2451-.2452-.7801-.4012-1.4042-.4012h-.6909v-20.6617-.4235h-.7355-.7579v.4235 20.6617h-.6909c-.6241 0-1.159.1783-1.4042.4012-.0892.0891-.1337.1783-.1337.2897v.0892h5.9288v-.0892c0-.1114-.0446-.2006-.1115-.2897z"/><path d="m36.4082 37.8232h-.7355v-2.4072h-.9139v2.4072h-.7132c-.1115 0-.2006.0892-.2006.2006s.0891.2006.2006.2006h.7132v.2898h.9139v-.2898h.7355c.1114 0 .2006-.0892.2006-.2006s-.0892-.2006-.2006-.2006z"/><path d="m35.809 33.41c-.1783-.0668-.3789-.1114-.6018-.1114-.624 0-1.1367.3566-1.3373.847-.0446.1337-.0891.2674-.0891.4234 0 .691.624 1.2482 1.4042 1.2482.7801 0 1.4041-.5572 1.4041-1.2482.0223-.5349-.2897-.9584-.7801-1.159z"/></g></g></g></svg>