<svg height="320" viewBox="0 0 248 320" width="248" xmlns="http://www.w3.org/2000/svg"><g fill="none" transform="translate(32 29)"><path d="m153.256413 17.3399734c1.548321-1.8085752 2.603389-3.9650001 2.391556-6.399644-.492228-7.02561135-10.40946-5.49525511-12.378375-1.94763409-1.899328 3.54751979-1.688519 12.59049719.773648 13.21656579.984458.278219 3.094594-.3478496 5.275341-1.6695163l-1.336488 9.4602552h8.017905z" fill="#ac5419"/><path d="m141.086701 3.85215727c.139205-.57073994.628961-1.07007252 1.186796-1.21278345.14022-.07130357.279425-.07130357.419646-.07130357h.07011s0-.07130357 0-.14260714c0-.07140737.069094-.21401451.069094-.28542187.140221-.35662164.349536-.64193972.558851-.92736158.48874-.49933258 1.117701-.78465065 1.745646-.85595422.349535 0 .699071 0 1.047591.14260714.210331.07130357.349535.14271093.48874.2140145.07011 0 .210331.14271093.279425.14271093.07011 0 .140221-.14271093.210331-.2140145.557835-.42802901 1.256906-.64204351 1.954961-.64204351.768166 0 1.536331.07130357 2.234386.57063615.140221.07140736.279426.2140145.419646.35672543.070111.07130358.139205.14271094.209315.21401451.070111.07130357.070111.07130357.139205.14271093.07011.07130357.07011.07130357.140221.07130357.349535-.2140145.698055-.28531807 1.047591-.2140145.209314 0 .418629.07130357.627944.2140145.070111 0 .210331.14271093.279426.14271093.07011 0 .210331-.14271093.279425-.14271093.419646-.14271093.838276-.2140145 1.256906-.14271093.419646.07140736.908386.28531807 1.257922.49933258.209315.14271093.348519.28542186.48874.428029.069094.07140736.069094.14271093.139204.2140145.070111.07140737.140221.07140737.140221.14271094 0 0 .48874-.21401451.558851-.21401451.278409-.07130357.48874-.07130357.768165 0 .488741.14271094.83726.49933258 1.186796.85605802.139204.2140145.279425.35662164.41863.57063614.07011.07130358.14022.21401451.14022.28531808 0 .07140736.070111.14271093.070111.14271093.069094.07130357.069094.07130357.139204.07130357.349536.14271093.698055.35672544.977481.64204351.279425.28531808.419646.71334708.48874 1.07007252v.14260714h.140221c.07011 0 .209315 0 .279425.07140736.209315.07130357.34852.07130357.48874.2140145.627945.35662165 1.117701.92736159 1.327016 1.64070867s.209315 1.56940509-.07011 2.21134479c-.07011.142711-.07011.2140145-.139205.3567255-.07011.0713035-.07011.0713035 0 .1427109 0 .0713036.069095.1426071.139205.2139107.140221.2140145.209315.4994364.209315.7134509.07011.4279252.140221.8559542.07011 1.2839832-.07011.2140145-.07011.3567254-.209315.5707399-.07011.0713036-.14022.1426072-.14022.2853181 0 .0713036-.069095.0713036-.139205.1427109l-.07011.0713036c-.070111.0713036-.070111 0 0 .0713036 0 .1427109.07011.2140145.14022.3567254.069095.1426072.069095.2140145.139205.3566217.07011.2140145.140221.4993325.209315.7847544.07011.4993326.07011.9986652-.139205 1.4979977-.07011.2140145-.209315.3567255-.419646.4993326-.069094.0714074-.139204.142711-.279425.142711-.069094 0-.139204 0-.139204.0713035v.2140145c.07011.4993326.139204.998769-.070111 1.4981015-.139204.4280291-.41863.8559543-.83726 1.1413761-.769181.4993326-1.746662.4993326-2.514827.0713036-.209315-.1427109-.41863-.2140145-.558851-.428029-.41863.5707399-1.327016.5707399-1.954961.428029-.768165-.2140145-1.397126-.7846506-1.815756-1.4981015-.488741.6420435-1.536331.428029-1.885867-.2853181-.07011-.1426071-.139205-.3566216-.139205-.4993326 0-.0713035 0-.2140145 0-.285318 0-.142711-.07011-.2140145-.14022-.3567255-.070111-.2140145-.139205-.4993326-.139205-.7133471 0-.1426071 0-.285318 0-.3566216 0-.1427109 0-.2140145-.07011-.3567254.209315 0 .41863 0 .628961-.0713036.209315-.0714074.348519-.2140145.48874-.3567254.279425-.3566217.48874-.7846507.627945-1.2126797.279425-.9273616.14022-2.0687377-.768166-2.5680703-.41863-.2140145-1.745646-.2140145-2.234386-.1427109-.558851.1427109-1.187812 1.3553906-1.187812 1.4981015 0 .0713036 0 .1426072-.069094.2140145-.140221.0713036-.349535-.0714073-.48874-.1427109-.210331-.1427109-.279425-.3567254-.419646-.5706361-.209315-.428029-.41863-.9274654-.558851-1.426798-.139204-.3566216-.139204-.7846506-.279425-1.1413761-.139205-.3566216-.348519-.71334706-.698055-.92736156s-.768166-.35662165-1.186796-.49933258c-.419646-.14271093-.768165-.28531807-1.117701-.64204351-.07011-.07130357-.139204-.14260714-.209315-.2140145-.07011-.07130357-.07011-.2140145-.14022-.2140145-.069095-.07130357-.279426.07140736-.34852.14271093-.419646.28531807-.768166.71334708-1.117701 1.14137609-.279425.428029-.558851.85605803-.698055 1.35539063-.140221.3566216-.210331.7846506-.488741 1.0700725-.14022.1426071-.978496.2140145-1.257921.0713035-.279426-.1427109-.557835-.428029-.698056-.5707399-.07011-.2139107-.139204-.4279252-.07011-.5706361 0-.142711.07011-.2140145.07011-.3567255 0-.0713036.070111-.21401448.070111-.28531805.07011-.14260715.279425-.28531808.41863-.35662165-.209315-.2140145-.34852-.42802901-.488741-.64204351-.139204-.28531807-.209315-.57073994-.209315-.85605801 0-.2140145 0-.42802901.139205-.64204351.140221-.2140145.349536-.35662165.558851-.49933258-.279426-.2140145-.558851-.49933258-.768166-.85605801-.209315-.71334708-.41863-1.49799773-.209315-2.21134481z" fill="#212121"/><path d="m142.524185 14c0 1.3599884-1.615557 2.4799651-1.520117 3.7599884.665311.0800814 1.330621.1600465 1.995932.2400116" fill="#ac5419"/><g fill="#212121"><path d="m143 19.9351651c.445043.1246282.889009.0623141 1.259698-.1247189.369612-.1870331.665949-.4363802.740302-.8104462-.37069.187033-.667026.3116612-1.036638.4363801-.221983.187033-.592672.311752-.963362.498785z"/><path d="m145 13.87805c0-.2062-.080279-.4124-.240838-.5499-.159395-.1374-.399069-.2062-.638743-.2062-.240838 0-.480512 0-.720186.0688-.239675.0687-.400233.2749-.400233.4811.240838-.0687.400233-.0687.559628-.1375h.480512c.159395 0 .319953.0688.479348.0688.080279.1374.239674.1374.480512.2749z"/><path d="m143.505 14.8436c.189-.0025.341-.1584.339-.3482-.003-.1898-.159-.3416-.349-.339-.189.0025-.341.1584-.339.3482.003.1898.159.3416.349.339z"/></g><path d="m143 34.582143-11.673349-6.2125988c-1.909361-2.2089285-3.819751-4.0036703-5.730141-5.2462303-.566118-.2069928-1.556309-.3450885-.63714 1.24256.920199 1.6567466 1.839368 3.3823903 1.344272 3.8655746-.495095.4832847-1.697324-.2069929-2.263441.62128-.354081.5522823 1.627331 1.4496532 6.084222 2.6231151l8.489708 7.5241564z" fill="#ac5419"/><path d="m149.661812 33.5332234c-4.11359-.0697106-9.504808-.9066447-15.391391-4.5332234l-2.270421 5.0214011c4.043414 3.9056244 9.647226 7.1137362 14.612224 6.9742133 3.900996-.1394213 5.887615-4.7424569 3.049588-7.462391z" fill="#443023"/><path d="m105.262507 17.1026739c5.227057-1.2149759 10.454114-2.7158101 15.610257-4.0737672.636167-.1429812 3.249696-1.2150799 3.673122-1.0006601 0 0 .494341 2.7873527.565254 3.5735931.282627 2.6443715.706054 5.288847 1.059594 7.9332186.282627 1.7867965.494341 3.3591733.636168 4.2168523 0 .2144197.069886.3572969.069886.4287355 0 .2859623 0 .4288395-.1408.5718207-.49434.500278-1.695761-.2144198-2.261015.6432592-.281599.4288395.918794 1.0719947 3.603236 2.0011123 1.412107 3.4306119 6.357565 10.7206753 6.921791 11.2924959-4.025635 1.7866926-7.981385 3.5734891-12.008048 5.2887431-.98868.4288395-6.851905 3.2877348-7.911499 3.0018765-1.059594-.2859624-2.613528-3.5735931-3.461409-5.3603897-2.048275-4.2881869-3.602209-8.8623362-4.661803-13.507924-.282627-1.2865185-2.754328-14.7945465-1.694734-15.0089662z" fill="#fca306"/><path d="m122.66462 52c-2.28508-1.8129065-4.368736-3.097163-6.317459-3.7014286-3.763488-1.1331352-5.241897-2.0396434-7.056663-4.6834424-1.008095-1.435268-1.813788-4.2302983-.87316-5.1368065.60427-.6042655 4.301269 2.4172819 5.779678 2.7950303 1.478408.3776385.133956-3.6259229.940627-3.2481745 1.008095 0 1.881256 1.5862794 2.62046 4.7589482l5.241897 3.2482844z" fill="#ac5419"/><path d="m142.110605 45.2546205c-4.276986 1.0698965-11.497779-.2139793-21.594037-3.8515238-2.523555 5.2779833-3.645588 9.0582152-3.504824 11.2691963 8.692697 4.6360453 16.054254 6.6332547 22.224416 6.7754233-.211146 3.7088363.279488 7.2039008 1.752412 10.4135904 3.084571 6.6331509 20.892256.4991467 26.921654 1.7122495 3.785332-12.4112148-3.505844-17.4746999-3.505844-25.4630185 0-8.7015484-6.870922-22.1105377-7.922573-22.1105377h-9.253713c-.490635 6.7045465-3.015209 13.9795316-5.117491 21.2546205z" fill="#443023"/><path d="m176 151h-162v3h162z" fill="#443023"/><path d="m176 153h-162v8h162z" fill="#5a483c"/><path d="m4 67v-7h181v7h-5.781905-169.36581382z" fill="#5a483c"/><path d="m181 124h-173v27h173z" fill="#eee7e5"/><path d="m181 70h-173v52h173z" fill="#eee7e5"/><path d="m181 122h-173v2h173z" fill="#5a483c"/><path d="m181 67h-173v3h173z" fill="#443023"/><path d="m79 54.1542285 15.1711183 1.8457715c.3548318-1.4198321 3.8288817-21.3673015 3.8288817-21.3673015l-15.5971227-1.6326985s-.7798046 5.0401097-1.6307818 10.2222337c-.0711726.5678502-.2124864 1.1358037-.283659 1.7746094-.0711727.4259393-.1413138.9228341-.2124864 1.3487734-.0711727.2129697-.0711727.4259393-.1423453.638909-.0701412.3549839-.1413138.7098644-.1413138 1.0648483v.3548806c0 .1420142.1413138.2839251.2124864.4259393.4961455.5679535 1.8432682-.2129697 2.481759.7098644.283659.4259393-.7798046 1.0648483-3.2615635 1.9167269-.2124865 1.3486701-.3548317 2.342563-.4249729 2.6974435z" fill="#ea8003"/><path d="m83.3540046 70c2.4049674-1.8677332 4.6679213-3.0618221 6.718884-3.6594098 3.9609412-1.1951754 5.5879217-2.091557 7.5689068-4.7046451 1.0609847-1.4189992 1.9089493-4.1820274.9189712-5.1530531-.6359734-.5974791-4.5269368 2.4639084-6.1528882 2.7627023-1.6269805.3737639-.1420135-3.6588666-.9910071-3.2107844-1.0609848 0-2.0509628 1.6429316-2.8289497 4.7797238l-5.5879216 3.2856458z" fill="#ffe0cb"/><path d="m39 86 17.619033 46.638852 12.3334358 34.361148h7.0475312l-16.9847244-81z" fill="#443023"/><path d="m34.2930186 86c-.2116759 16.146468-.0705244 37.841022-.4938762 38.837628-.2822003.639566-9.5251072 8.321609-27.7991424 22.903313l3.59838752 6.259059c21.66074688-14.082883 33.02030998-22.049523 34.07868948-23.898884 1.6933045-2.845968 10.0189834-28.665622 14.322923-44.101116z" fill="#443023"/><path d="m0 151.716282 5.91749682-4.716282 4.78019688 5.943736c.398507 4.482382 1.7685923 9.508115 4.3023063 15.095827l-1.0977573.960437-8.63958506-10.740744-2.45939752-4.165687-.52279832.457449z" fill="#b3a7a1"/><path d="m68 175 .3631357-8h7.9077015c3.7728107 2.641751 8.6339728 4.843566 14.7291628 6.458089v1.541911h-14.2931889l-4.9340004-.733582v.733582z" fill="#b3a7a1"/><path d="m48.8875029 32.7577128c-1.6500588-1.9939534-2.7500647-4.4863692-2.5438073-7.192323.5500529-7.9045305 11.2063158-6.195398 13.2687893-2.2075949 2.0625735 3.9878031 1.8563162 14.0999286-.8249294 14.8832119-1.1000058.2848209-3.3688367-.4272831-5.6375675-1.8514911l1.4438015 10.6104843h-8.5937895z" fill="#ffe0cb"/><path d="m56.5252892 19.779784c-1.2415967-.3473155-3.067543-.4863023-3.7979003-.4167583.4382356-.9727057.5843496-2.0842971.4382356-3.1263446-.1460077-1.0421485-.6573534-1.9453102-1.095589-2.8484719-.2190116-.4168595-.4381294-.8337189-.8033612-1.1810343-.3651255-.3474166-.8033611-.5558463-1.3146005-.6252892-.5113458-.1389868-1.0225852-.0694428-1.4608209 0-.2191178.0694429-.4382356.1388858-.5842433.2084298-.2191178.0694428-.2921216-.069544-.5112394-.2084298-.3652318-.2778725-.9494751-.4863022-1.3877107-.5558462-.5112395-.0694429-1.0955891 0-1.6068285.2084297-.5112395.1389868-.9494751.4168594-1.3147069.8337188-.1460077.1389869-.2921216.3474166-.3651255.5558463-.0730038.0694429-.0731101.1388857-.146114.2083286-.0730038 0-.2191178 0-.2921216.069544-.8764712.2778726-1.6068285.9031617-1.971954 1.7368805-.2191178.4863023-.3652318 1.3199201-.2922279 2.2230818 0 .9031617.949475 3.4043182 1.7529424 4.2379359.7303573.764276 1.8258401 1.3200211 2.8484253 1.5284509-.7303573.7642759-1.1685929 1.7368805-1.5338247 2.6400422-.3651255 1.0421485-.5842433 2.15374-.6572472 3.2653314-.0731101 1.0420474-.0731101 2.1536388.1460077 3.1957874.2191179.9726046.7303573 1.7368805 1.6068286 2.2231828.3652317.2084297.8033611.4168594 1.2415967.5557452.4382356.1389868.8764712.2779737 1.3147068.4168594.8033612.1389868 1.8259464.1389868 2.4831935-.4863023.2191178-.2084297.5113457-.4863023.6573534-.7641749.0730039-.0695439.0730039-.1389868 0-.2779736-.0730038-.1388858-.2191178-.2084297-.3651255-.2778726-.6573534-.5557452-1.0225852-1.2505783-1.1685929-2.084196-.0731101-.8337188.1460077-1.9453103 1.022479-2.2926257 1.095589-.4864034 2.2641819.0694429 3.213657.5557451.4382356-1.3200211 1.2415967-2.5704982 2.5563036-3.1957874 1.4607145-.694732 3.067543-.7642759 4.5282576-1.389464.3651255-.1389868.8033611-.3474165 1.0224789-.6252891.146114-.1389868.2921217-.2779737.2921217-.4863023.0731101-.2084297-.0730039-.4168594-.2190116-.6252891-.5843496-.9727057-2.9215353-2.848472-4.2362422-3.1958885z" fill="#443023"/><path d="m61.3187288 29c-.0878812 1.3768055 1.4067378 2.4637849 1.6705091 3.7681603.1758902 1.3767-1.8462714.9420137-2.9892379 1.2318397" fill="#ffe0cb"/><path d="m60 35.2856787c-.4584306.171482-.9168612.0858033-1.3752918 0-.4584307-.1713574-.764014-.3428394-1.1459654-.3428394l.3819514-.3428393c0 .1713573 0 .2571607.0764792.428518.076368.171482.2291041.342964.3819514.6001247.1528473.1713573.3055834.428518.4584306.6.1528473.2571607.3055834.428518.3819514.7713573-.3819514-.3428393-.840382-.5141966-1.2988126-.8571607-.2292153-.1713573-.3819514-.3428393-.6111667-.6856786-.1528473-.2571607-.3055834-.6858034-.2292153-1.1143214l.076368-.3428393h.3055834c.5349098.0856787.9168612.3428393 1.2989238.6.5347986.3428393.840382.6 1.2988126.6856787z" fill="#443023"/><path d="m59.50005 29.91235c.2277 0 .4123-.1846.4123-.4123 0-.2278-.1846-.4124-.4123-.4124-.2278 0-.4124.1846-.4124.4124 0 .2277.1846.4123.4124.4123z" fill="#443023"/><path d="m60.9834924 27.9124c-.255735-.1375-.51147-.1375-.6820013-.1375-.2557351 0-.4261424 0-.6818774 0h-.767205c-.255735 0-.51147 0-.8524087 0 .0852037-.2749.4261423-.4124.6818773-.5498.255735-.1375.5966737-.1375.8524087-.1375.3410627 0 .5967977.0687.9377364.2062.3409387.0687.5966737.3436.51147.6186z" fill="#443023"/><path d="m62 54.945186 12.870187-6.9509056c2.1450659-2.5277134 4.2901317-4.4233964 6.363418-5.8276135.6428955-.280823 1.7154285-.4212856.7146751 1.4042171-1.0725329 1.8255028-2.0732862 3.7914681-1.5011299 4.3531141.5003766.5617481 1.8589877-.2106428 2.5018833.7021086.4296373.6319283-1.8589878 1.6148599-6.792015 2.9488968l-9.3667182 8.4249965z" fill="#ffe0cb"/><path d="m56.4860484 53.2574777c4.5199291-.0741233 10.5464316-1.0367571 17.0035178-5.2574777l2.5104338 5.8498179c-4.4477998 4.5905832-10.6894375 8.2935178-16.1419327 8.1459176-4.3046894-.1486776-6.5286937-5.5541865-3.3720189-8.7382578z" fill="#443023"/><g fill="#b3a7a1" transform="translate(20 40)"><path d="m41.8007876 23.0716876c4.6989799 1.2000517 12.6250071-.2114719 23.6369498-4.1627115 2.7348722 5.7148742 3.9971994 9.8077795 3.7869817 12.2068564-9.468985 5.0096258-17.6042095 7.1962042-24.3379139 7.3378699.2104218 4.0210459-.2805285 7.8316464-1.893695 11.2891094-3.3666481 7.126398-22.9352714.4937767-29.5282524 1.8344675-4.13812704-13.4767145 3.8575985-18.9801169 3.8575985-27.5878447 0-9.4547447 7.5749839-23.9894346 8.6270933-23.9894346h10.0998424c.6312657 7.26734497 3.4368568 15.2402465 5.7513956 23.0716876z"/><path d="m85.5012908 80.8568992c-2.3144366 1.1990252-4.7696988 2.3282441-7.2943533 3.1751583-13.0457488 4.6564882-45.3795924 4.6564882-58.4253412.1406391-2.6652759-.9167205-5.2603431-2.0459394-7.7151971-3.3157974l-1.8937969 2.1167722c2.5250626 1.3406908 5.1902364 2.4688832 7.9256189 3.457463 6.803505 2.3990769 23.3561152 3.6689349 31.0006954 3.6689349 7.7862221 0 23.7076687-1.269858 30.6509787-3.8106005 2.5950672-.9167205 5.1197217-2.0459394 7.5749839-3.3157974z"/><path d="m18.3060919 148.871808c-.7715809-.776082-2.454854-1.269858-4.4187576-1.269858h-2.1742234v-65.4064131-1.3406908h-2.31464077-2.38464533v1.3406908 65.3355801h-2.17432548c-1.9639036 0-3.64717666.564609-4.41865554 1.269858-.28063055.282305-.42084378.564609-.42084378.917747v.281278h18.656727v-.281278c0-.282305-.1402132-.56461-.3506351-.846914z"/><path d="m13.1140186 80.0787647h-2.3145387v-7.6201745h-2.87569779v7.6201745h-2.2444321c-.35073716 0-.63126566.2823048-.63126566.6354423 0 .352111.2805285.6344157.63126566.6344157h2.2444321v.917747h2.87569779v-.917747h2.3145387c.3506351 0 .6312656-.2823047.6312656-.6344157 0-.3531375-.2806305-.6354423-.6312656-.6354423z"/><path d="m11.2239974 66.180133c-.5611591-.2114719-1.1923227-.352111-1.89369498-.352111-1.9639036 0-3.57707004 1.1292189-4.2083357 2.6813817-.14031528.4229438-.2805285.8458876-.2805285 1.3396642 0 2.187605 1.96380155 3.9512397 4.41865554 3.9512397 2.45485394 0 4.41875754-1.7636347 4.41875754-3.9512397.0701067-1.6928018-.9117941-3.0334926-2.4548539-3.6689349z"/><path d="m96.6489567 148.51867c-.7714789-.776081-2.4542417-1.269858-4.4186555-1.269858h-2.1736112v-65.4064126-1.3406909h-2.3144367-2.3848494v1.3406909 65.4064126h-2.1746316c-1.9633934 0-3.6471767.56461-4.4186556 1.269858-.2806305.282305-.4204355.56461-.4204355.917747v.281278h18.6563188v-.281278c0-.353137-.139805-.635442-.3510433-.917747z"/><path d="m91.4567813 79.7974866h-2.3144366v-7.6201746h-2.8756978v7.6201746h-2.2440239c-.3510433 0-.6316739.2823047-.6316739.6354422 0 .3531376.2806306.6344158.6316739.6344158h2.2440239v.917747h2.8756978v-.917747h2.3144366c.3510433 0 .6316739-.2812782.6316739-.6344158 0-.3531375-.2806306-.6354422-.6316739-.6354422z"/><path d="m89.5699236 65.8290486c-.5612611-.2114719-1.192935-.3531376-1.8940011-.3531376-1.9644139 0-3.5767639 1.1292189-4.2084378 2.6813817-.1408255.4229438-.2806305.8469142-.2806305 1.3406908 0 2.1865784 1.9633933 3.9512396 4.4186555 3.9512396s4.4186556-1.7646612 4.4186556-3.9512396c.0704127-1.6938284-.911284-3.0345192-2.4542417-3.6689349z"/></g></g></svg>