<svg height="320" viewBox="0 0 248 320" width="248" xmlns="http://www.w3.org/2000/svg"><g fill="none" transform="translate(34.0159 43)"><path d="m149.7231 16.8385c1.513-1.787 2.544-3.9177 2.337-6.3233-.481-6.9418-10.172-5.4297-12.096-1.9244-1.856 3.5052-1.65 12.4403.756 13.0589.962.2749 3.024-.3437 5.155-1.6496l-1.306 9.3474h7.835z" fill="#ac5419"/><path d="m136.5281 3.7115c.137-.5499.619-1.031 1.168-1.1685.138-.0687.275-.0687.413-.0687h.069s0-.0687 0-.1374c0-.0688.068-.2062.068-.275.138-.3436.344-.6185.55-.8935.481-.4811 1.1-.756 1.718-.8247.344 0 .688 0 1.031.1374.207.0687.344.1375.481.2062.069 0 .207.1375.275.1375.069 0 .138-.1375.207-.2062.549-.4124 1.237-.6186 1.924-.6186.756 0 1.512.0687 2.199.5498.138.0688.275.2062.413.3437.069.0687.137.1375.206.2062s.069.0687.137.1375c.069.0687.069.0687.138.0687.344-.2062.687-.2749 1.031-.2062.206 0 .412.0687.618.2062.069 0 .207.1375.275.1375.069 0 .207-.1375.275-.1375.413-.1375.825-.2062 1.237-.1375.413.0688.894.2749 1.238.4811.206.1375.343.275.481.4124.068.0688.068.1375.137.2062.069.0688.138.0688.138.1375 0 0 .481-.2062.55-.2062.274-.0687.481-.0687.756 0 .481.1375.824.4811 1.168.8248.137.2062.275.3436.412.5498.069.0687.138.2062.138.2749 0 .0688.069.1375.069.1375.068.0687.068.0687.137.0687.344.1375.687.3437.962.6186s.413.6873.481 1.031v.1374h.138c.069 0 .206 0 .275.0688.206.0687.343.0687.481.2062.618.3436 1.1.8935 1.306 1.5808s.206 1.5121-.069 2.1306c-.069.1375-.069.2062-.137.3437-.069.0687-.069.0687 0 .1375 0 .0687.068.1374.137.2061.138.2062.206.4812.206.6874.069.4123.138.8247.069 1.2371-.069.2062-.069.3437-.206.5499-.069.0687-.138.1374-.138.2749 0 .0687-.068.0687-.137.1375l-.069.0687c-.069.0687-.069 0 0 .0687 0 .1375.069.2062.138.3437.068.1374.068.2062.137.3436.069.2062.138.4811.206.7561.069.4811.069.9622-.137 1.4433-.069.2062-.206.3437-.413.4811-.068.0688-.137.1375-.275.1375-.068 0-.137 0-.137.0687v.2062c.069.4811.137.9623-.069 1.4434-.137.4124-.412.8247-.824 1.0997-.757.4811-1.719.4811-2.475.0687-.206-.1375-.412-.2062-.55-.4124-.412.5499-1.306.5499-1.924.4124-.756-.2062-1.375-.756-1.787-1.4434-.481.6186-1.512.4124-1.856-.2749-.069-.1374-.137-.3436-.137-.4811 0-.0687 0-.2062 0-.2749 0-.1375-.069-.2062-.138-.3437-.069-.2062-.137-.4811-.137-.6873 0-.1374 0-.2749 0-.3436 0-.1375 0-.2062-.069-.3437.206 0 .412 0 .619-.0687.206-.0688.343-.2062.481-.3437.275-.3436.481-.756.618-1.1684.275-.8935.138-1.9932-.756-2.4743-.412-.2062-1.718-.2062-2.199-.1375-.55.1375-1.169 1.3059-1.169 1.4434 0 .0687 0 .1374-.068.2062-.138.0687-.344-.0688-.481-.1375-.207-.1375-.275-.3437-.413-.5498-.206-.4124-.412-.8936-.55-1.3747-.137-.3436-.137-.756-.275-1.0997-.137-.3436-.343-.6873-.687-.8935s-.756-.3436-1.168-.4811c-.413-.1375-.756-.2749-1.1-.6186-.069-.0687-.137-.1374-.206-.2062-.069-.0687-.069-.2062-.138-.2062-.068-.0687-.275.0688-.343.1375-.413.2749-.756.6873-1.1 1.0997-.275.4124-.55.8248-.687 1.3059-.138.3436-.207.756-.481 1.031-.138.1374-.963.2062-1.238.0687s-.549-.4124-.687-.5499c-.069-.2061-.137-.4123-.069-.5498 0-.1375.069-.2062.069-.3437 0-.0687.069-.2062.069-.2749.069-.1374.275-.2749.412-.3436-.206-.2062-.343-.4124-.481-.6186-.137-.2749-.206-.5499-.206-.8248 0-.2062 0-.4124.137-.6186.138-.2062.344-.3436.55-.4811-.275-.2062-.55-.4811-.756-.8248-.206-.6873-.412-1.4433-.206-2.1306z" fill="#212121"/><path d="m138.9321 13.8843c0 1.1684-1.168 2.1306-1.099 3.2303.481.0688.962.1375 1.443.2062" fill="#ac5419"/><path d="m139.2101 18.969c.413.1374.825.0687 1.169-.1375.343-.2062.618-.4811.687-.8935-.344.2062-.619.3436-.962.4811-.206.2062-.55.3437-.894.5499z" fill="#212121"/><path d="m140.9291 13.3332c0-.2062-.069-.4124-.207-.5499-.137-.1374-.343-.2062-.549-.2062-.207 0-.413 0-.619.0688-.206.0687-.344.2749-.344.4811.207-.0687.344-.0687.481-.1375h.413c.137 0 .275.0688.412.0688.069.1374.206.1374.413.2749z" fill="#212121"/><path d="m139.6271 14.4336c.189-.0025.341-.1584.339-.3482-.003-.1898-.159-.3416-.349-.339-.189.0025-.341.1584-.339.3482.003.1898.159.3416.349.339z" fill="#212121"/><path d="m139.5541 33.54-11.341-6.1858c-1.855-2.1994-3.711-3.9864-5.567-5.2236-.55-.2061-1.512-.3436-.619 1.2372.894 1.6496 1.787 3.3678 1.306 3.8489-.481.4812-1.649-.2061-2.199.6186-.344.5499 1.581 1.4434 5.911 2.6118l8.248 7.4917z" fill="#ac5419"/><path d="m145.7391 32.6472c-3.986-.0687-9.21-.8935-14.914-4.4675l-2.2 4.9486c3.918 3.849 9.348 7.0106 14.159 6.8731 3.78-.1374 5.705-4.6737 2.955-7.3542z" fill="#443023"/><path d="m102.4401 16.0833c5.086-1.1684 10.172-2.6117 15.189-3.9176.619-.1375 3.162-1.1685 3.574-.9623 0 0 .481 2.6805.55 3.4366.275 2.543.687 5.0861 1.031 7.6291.275 1.7183.481 3.2304.619 4.0552 0 .2062.068.3436.068.4123 0 .275 0 .4124-.137.5499-.481.4811-1.65-.2062-2.2.6186-.274.4124.894 1.0309 3.506 1.9244 1.374 3.2991 6.186 10.3097 6.735 10.8596-3.917 1.7182-7.766 3.4365-11.684 5.086-.962.4124-6.667 3.1617-7.698 2.8868-1.031-.275-2.543-3.4366-3.368-5.1549-1.993-4.1238-3.505-8.5226-4.536-12.9901-.275-1.2372-2.68-14.2274-1.649-14.4336z" fill="#fca306"/><path d="m119.9671 50.723c-2.337-1.6495-4.468-2.818-6.461-3.3678-3.849-1.031-5.361-1.8558-7.217-4.2613-1.031-1.3059-1.855-3.849-.893-4.6738.618-.5498 4.399 2.1994 5.911 2.5431 1.512.3436.137-3.2991.962-2.9554 1.031 0 1.924 1.4433 2.68 4.33l5.361 2.9555z" fill="#ac5419"/><path d="m138.2501 44.1259c-4.193 1.031-11.272-.2062-21.17-3.7115-2.474 5.0861-3.574 8.7289-3.436 10.8595 8.522 4.4675 15.739 6.3921 21.788 6.5291-.207 3.574.274 6.942 1.718 10.035 3.024 6.392 20.482.481 26.393 1.65 3.711-11.96-3.437-16.8394-3.437-24.5373 0-8.3852-6.736-21.3067-7.767-21.3067h-9.072c-.481 6.4608-2.956 13.4713-5.017 20.4819z" fill="#443023"/><path d="m171.0351 147.154h-158.1505v2.475h158.1505z" fill="#443023"/><path d="m171.0371 149.561h-158.15v7.698h158.15z" fill="#5a483c"/><path d="m3.7436 65.364v-7.286h176.4325v7.286h-5.636-165.0919z" fill="#5a483c"/><path d="m176.1901 120.489h-168.3912v26.599h168.3912z" fill="#eee7e5"/><path d="m176.1921 68.392h-168.3911v50.517h168.3911z" fill="#eee7e5"/><path d="m176.1901 118.908h-168.3912v1.581h168.3912z" fill="#5a483c"/><path d="m176.1921 65.366h-168.3908v3.024h168.3908z" fill="#443023"/><path d="m77.2171 52.5116 14.708 1.7871c.344-1.3747 3.712-20.6881 3.712-20.6881l-15.121-1.5808s-.756 4.8799-1.581 9.8973c-.069.5498-.206 1.0997-.275 1.7182-.069.4124-.137.8935-.206 1.3059-.069.2062-.069.4124-.138.6186-.068.3437-.137.6873-.137 1.031v.3436c0 .1375.137.2749.206.4124.481.5499 1.787-.2062 2.406.6873.275.4124-.756 1.031-3.162 1.8558-.206 1.3058-.344 2.2681-.412 2.6117z" fill="#ea8003"/><path d="m81.1351 68.182c2.337-1.719 4.536-2.818 6.529-3.368 3.849-1.1 5.43-1.925 7.355-4.33 1.031-1.306 1.855-3.849.893-4.7427-.618-.5499-4.399 2.2677-5.979 2.5427-1.581.344-.138-3.3675-.963-2.9551-1.031 0-1.993 1.5121-2.749 4.3991l-5.43 3.024z" fill="#ffe0cb"/><path d="m37.9724 84.607 17.1827 45.432 12.028 33.472h6.873l-16.5641-78.904z" fill="#443023"/><path d="m33.7792 84.607c-.2062 15.602-.0687 36.565-.4811 37.528-.2749.618-9.2787 8.041-27.08 22.131l3.5053 6.048c21.1004-13.608 32.1661-21.306 33.1971-23.093 1.6495-2.75 9.7598-27.699 13.9524-42.614z" fill="#443023"/><path d="m0 148.352 5.956-4.557 4.8113 5.743c.4011 4.331 1.7801 9.187 4.3303 14.586l-1.1049.928-8.6958-10.378-2.4754-4.025-.5262.442z" fill="#b3a7a1"/><path d="m66.5661 169.903.344-7.492h7.491c3.574 2.474 8.179 4.536 13.953 6.048v1.444h-13.54l-4.674-.687v.687z" fill="#b3a7a1"/><path d="m47.6629 32.0985c-1.6496-1.9245-2.7493-4.3301-2.5431-6.9418.5499-7.6292 11.2032-5.9796 13.2651-2.1307 2.062 3.8489 1.8558 13.6088-.8247 14.3648-1.0997.2749-3.3679-.4124-5.636-1.787l1.4434 10.2409h-8.5914z" fill="#ffe0cb"/><path d="m54.9486 18.8333c-1.1684-.3436-2.8867-.4811-3.574-.4123.4124-.9623.5499-2.062.4124-3.0929-.1374-1.031-.6186-1.9245-1.031-2.818-.2061-.4124-.4123-.8248-.756-1.1684-.3436-.3437-.756-.5499-1.2371-.6186-.4812-.1375-.9623-.0687-1.3747 0-.2062.0687-.4124.1374-.5498.2062-.2062.0687-.2749-.0688-.4811-.2062-.3437-.2749-.8935-.4811-1.3059-.5499-.4811-.0687-1.031 0-1.5121.2062-.4811.1375-.8935.4124-1.2372.8248-.1374.1375-.2749.3437-.3436.5499-.0687.0687-.0688.1374-.1375.2061-.0687 0-.2062 0-.2749.0688-.8248.2749-1.5121.8935-1.8557 1.7183-.2062.4811-.3437 1.3058-.275 2.1993 0 .8935.8935 3.3679 1.6496 4.1926.6873.7561 1.7182 1.3059 2.6805 1.5121-.6873.7561-1.0997 1.7183-1.4434 2.6118-.3436 1.031-.5498 2.1307-.6185 3.2304-.0688 1.0309-.0688 2.1306.1374 3.1616.2062.9622.6873 1.7183 1.5121 2.1994.3437.2062.756.4124 1.1684.5498.4124.1375.8248.275 1.2372.4124.756.1375 1.7183.1375 2.3368-.4811.2062-.2062.4812-.4811.6186-.756.0687-.0688.0687-.1375 0-.275-.0687-.1374-.2062-.2062-.3436-.2749-.6186-.5498-.9623-1.2372-1.0997-2.0619-.0688-.8248.1374-1.9245.9622-2.2681 1.031-.4812 2.1307.0687 3.0242.5498.4124-1.3059 1.1684-2.543 2.4056-3.1616 1.3746-.6873 2.8867-.7561 4.2613-1.3746.3436-.1375.756-.3437.9622-.6186.1375-.1375.2749-.275.2749-.4811.0688-.2062-.0687-.4124-.2061-.6186-.5499-.9623-2.7493-2.818-3.9865-3.1617z" fill="#443023"/><path d="m59.6206 28.7314c-.0687 1.3059 1.0997 2.3369 1.3059 3.5741.1375 1.3058-1.4433.8935-2.3368 1.1684" fill="#ffe0cb"/><path d="m59.0734 34.7785c-.4124.1375-.8248.0688-1.2372 0-.4124-.1374-.6873-.2749-1.0309-.2749l.3436-.2749c0 .1374 0 .2062.0688.3436.0687.1375.2061.275.3436.4812.1375.1374.2749.3436.4124.4811.1375.2062.2749.3436.3436.6185-.3436-.2749-.756-.4123-1.1684-.6873-.2062-.1374-.3436-.2749-.5498-.5498-.1375-.2062-.2749-.5499-.2062-.8935l.0687-.2749h.2749c.4812.0687.8248.2749 1.1685.4811.4811.2749.756.4811 1.1684.5498z" fill="#443023"/><path d="m58.4515 28.9385c.2277 0 .4123-.1846.4123-.4123 0-.2278-.1846-.4124-.4123-.4124-.2278 0-.4124.1846-.4124.4124 0 .2277.1846.4123.4124.4123z" fill="#443023"/><path d="m59.2101 27.4957c-.2062-.1375-.4124-.1375-.5499-.1375-.2062 0-.3436 0-.5498 0h-.6186c-.2062 0-.4124 0-.6873 0 .0687-.2749.3436-.4124.5498-.5498.2062-.1375.4811-.1375.6873-.1375.275 0 .4812.0687.7561.2062.2749.0687.4811.3436.4124.6186z" fill="#443023"/><path d="m60.7223 54.2298 12.3718-6.8043c2.062-2.4744 4.124-4.3301 6.117-5.7047.618-.2749 1.649-.4124.687 1.3746-1.031 1.787-1.993 3.7115-1.443 4.2613.481.5499 1.787-.2062 2.405.6873.413.6186-1.787 1.5808-6.529 2.8867l-9.004 8.2473z" fill="#ffe0cb"/><path d="m54.6727 52.7193c4.3301-.0688 10.1035-.9623 16.2894-4.8799l2.405 5.4297c-4.261 4.2609-10.2405 7.6979-15.464 7.5609-4.1239-.138-6.2545-5.1553-3.2304-8.1107z" fill="#443023"/><g fill="#b3a7a1"><path d="m60.5134 61.378c4.6047 1.169 12.3717-.206 23.1627-4.055 2.68 5.567 3.917 9.554 3.711 11.891-9.279 4.88-17.251 7.01-23.8496 7.148.2062 3.917-.2749 7.629-1.8557 10.997-3.2991 6.942-22.4751.481-28.9358 1.787-4.0551-13.128 3.7802-18.489 3.7802-26.874 0-9.2101 7.423-23.3687 8.454-23.3687h9.8972c.6186 7.0793 3.3679 14.8459 5.636 22.4747z"/><path d="m103.3371 117.668c-2.268 1.168-4.674 2.268-7.148 3.093-12.784 4.536-44.4691 4.536-57.2531.137-2.6118-.893-5.1548-1.993-7.5604-3.23l-1.8558 2.062c2.4744 1.306 5.0861 2.405 7.7666 3.368 6.667 2.337 22.8875 3.574 30.3787 3.574 7.63 0 23.232-1.237 30.036-3.712 2.543-.893 5.017-1.993 7.423-3.23z"/><path d="m37.4901 183.923c-.7561-.756-2.4056-1.237-4.3301-1.237h-2.1306v-63.714-1.306h-2.2682-2.3368v1.306 63.645h-2.1307c-1.9245 0-3.574.55-4.33 1.237-.275.275-.4124.55-.4124.894v.274h18.2824v-.274c0-.275-.1374-.55-.3436-.825z"/><path d="m32.4022 116.91h-2.2681v-7.423h-2.818v7.423h-2.1994c-.3437 0-.6186.275-.6186.619 0 .343.2749.618.6186.618h2.1994v.894h2.818v-.894h2.2681c.3436 0 .6186-.275.6186-.618 0-.344-.275-.619-.6186-.619z"/><path d="m30.5501 103.371c-.5499-.206-1.1684-.343-1.8557-.343-1.9245 0-3.5053 1.1-4.1239 2.612-.1375.412-.2749.824-.2749 1.305 0 2.131 1.9244 3.849 4.33 3.849s4.3301-1.718 4.3301-3.849c.0687-1.649-.8935-2.955-2.4056-3.574z"/><path d="m114.2611 183.579c-.756-.756-2.405-1.237-4.33-1.237h-2.13v-63.714-1.306h-2.268-2.337v1.306 63.714h-2.131c-1.924 0-3.574.55-4.33 1.237-.275.275-.412.55-.412.894v.274h18.282v-.274c0-.344-.137-.619-.344-.894z"/><path d="m109.1731 116.636h-2.268v-7.423h-2.818v7.423h-2.199c-.344 0-.619.275-.619.619s.275.618.619.618h2.199v.894h2.818v-.894h2.268c.344 0 .619-.274.619-.618s-.275-.619-.619-.619z"/><path d="m107.3241 103.029c-.55-.206-1.169-.344-1.856-.344-1.925 0-3.505 1.1-4.124 2.612-.138.412-.275.825-.275 1.306 0 2.13 1.924 3.849 4.33 3.849s4.33-1.719 4.33-3.849c.069-1.65-.893-2.956-2.405-3.574z"/></g></g></svg>