<svg height="320" viewBox="0 0 248 320" width="248" xmlns="http://www.w3.org/2000/svg"><g fill="none" transform="translate(13 44)"><path d="m165 116v-19.7644792l-23-11.2355208v18.095911z" fill="#428edd"/><path d="m164 96.2591287 36-7.2591287v18.259266l-36 8.740734z" fill="#7cc1ef"/><path d="m141 83.9466295 34.319279-5.9466295 25.680721 9.850016-36.664098 7.149984z" fill="#c4e8f8"/><g fill="#fff"><path d="m188 105v4.528642l-10 2.471358v-4.753906z" opacity=".4"/><path d="m188 96.1994287v-6.0355613l-24.425206-11.1638674-9.574794 1.8145102 22.431754 11.7953011v6.3901887z" opacity=".4"/><path d="m184 90.8970311-24.403206-9.8970311-.596794.103827 24.403206 9.896173z"/></g><path d="m174 93v-12.7612392l14-7.2387608v11.6794782z" fill="#7cc1ef"/><path d="m174 79.5504224-23-4.5504224v11.5033152l23 5.4966848z" fill="#428edd"/><path d="m188 73.1880342-21.742254-4.1880342-16.257746 6.9663147 23.209637 5.0336853z" fill="#c4e8f8"/><path d="m158 86v2.5997919l7 1.4002081v-2.7005203z" fill="#fff" opacity=".4"/><path d="m158 80.3377382v-3.6177013l15.798735-6.7200369 6.201265 1.1081746-14.534454 7.051936v3.8398894z" fill="#fff" opacity=".4"/><path d="m161 76.9238824 15.602234-6.9238824.397766.0375889-15.641626 6.9624111z" fill="#fff"/><path d="m117 117v-33.4045548l17-8.5954452v32.122299z" fill="#c4e8f8"/><path d="m117 83.5498803-26-5.5498803v32.317895l26 6.682105z" fill="#7cc1ef"/><path d="m134 74.5555951-24.616024-4.5555951-18.383976 7.5556662 26.252077 5.4443338z" fill="#eef8ff"/><path d="m100 109v3.227063l8 1.772937v-3.40418z" fill="#fff" opacity=".4"/><path d="m100 84.0571317v-4.2142764l17.920046-7.8428553 7.079954 1.2821284-16.519892 8.2464374v4.4714342z" fill="#fff" opacity=".4"/><path d="m104 80.9270239 16.548761-7.9270239.451239.0729761-16.586894 7.9270239z" fill="#fff"/><path d="m143 119v-12.751645l13-7.248355v11.705381z" fill="#c4e8f8"/><path d="m141 105.571444-21-4.571444v11.522002l21 5.477998z" fill="#7cc1ef"/><path d="m156 98.4844267-20.016022-3.4844267-14.983978 5.783887 21.372169 4.216113z" fill="#eef8ff"/><path d="m128 112v2.586006l7 1.413994v-2.689343z" fill="#fff" opacity=".4"/><path d="m128 106.313203v-3.604308l14.336367-6.708895 5.663633 1.0731552-13.202886 7.0927798v3.834065z" fill="#fff" opacity=".4"/><path d="m131 102.920909 13.659294-6.920909.340706.0390571-13.659294 6.9609429z" fill="#fff"/><path d="m185.605885 107-1.605885-6.040097 19.683594-.959903 2.316406 5.439783z" fill="#eef8ff"/><path d="m187 106.474173v15.525827l21-1.707754v-15.292246z" fill="#073099"/><path d="m192 109.670355-7-2.670355v14.633508l7 3.366492z" fill="#7cc1ef"/><path d="m192 109-5.622836-5.291715-6.377164-2.708285 5.471606 4.99935z" fill="#c4e8f8"/><path d="m216.48721 108 5.51279-5.02787-8.52311-1.97213-5.47689 4.292908z" fill="#eef8ff"/><path d="m193 109 2.342737-3.85607 23.657263-1.14393-3.061614 3.660248z" fill="#7cc1ef"/><path d="m194 109.548887v15.451113l23-2.027734v-14.972266z" fill="#eef8ff"/><path d="m189.884865 121 2.115135-6.898113-25.961931-1.101887-3.038069 6.22242z" fill="#eef8ff"/><path d="m189 119.893366v7.106634l-27-2.472082v-6.527918z" fill="#073099"/><path d="m180 124.744595 9-3.744595v7.247863l-9 4.752137z" fill="#eef8ff"/><path d="m181 125 7.490208-5.963459 8.509792-3.036541-7.294243 5.634592z" fill="#7cc1ef"/><path d="m151.853792 122-7.853792-6.438812 12.186278-2.561188 7.813722 5.547627z" fill="#eef8ff"/><path d="m180 125-3.048308-6.163567-30.951692-1.836433 4.014413 5.836433z" fill="#c4e8f8"/><g fill="#7cc1ef" transform="translate(41 69)"><path d="m139.25901 55.9098215v7.7348954l-29.904367-2.6794205v-7.0933043z"/><path d="m83.4146687 14.2940114c-.1542277.0376852-.3075262.0753704-.4236615.2261114-.1152062.1139978-.1532986.2647388-.19232.4154798-.0380924.3014819.0390214.6415912.1542276.9430731s.2694339.5662207.4617539.7923321c.19232.2261115.4617538.453165.6159814.3777946.19232-.0386274.3465477-.3401093.4236615-.603906.0761847-.302424.1152062-.603906.1152062-.9053879-.0390215-.302424-.0771138-.6415912-.2694338-.90633-.0771139-.1130557-.2313415-.2261114-.3846401-.3014819-.1542276-.0753705-.3465476-.0753705-.5007752-.0376852zm0 0c.3075262-.0753705.6930953.0376852.8854153.3014819.2304123.2647388.3465476.5662207.4227323.90633.0771139.3391671.0771139.6783343.0390215 1.0184436-.0380924.1884262-.0771138.3391671-.19232.5285355-.0771138.1507409-.2313415.3391671-.4617538.4145376-.2313415.0753705-.4617539-.0376852-.6159815-.150741-.1542277-.1130557-.2694338-.2637966-.38464-.4154797-.19232-.3014819-.3084553-.6029639-.3855691-.9430731-.0761848-.3391672-.0761848-.6792765 0-.9807584.0771138-.3777945.3465476-.6792764.6930953-.6792764z"/><path d="m85.7243669 16.4072112c-.1542276-.603906-.3084553-1.1691846-.38464-1.7730906-.0390215-.3014819-.0390215-.6039059 0-.9430731.0380924-.1507409.0380924-.3401093.1152062-.4908502.0771138-.150741.19232-.3391672.38464-.4145377.19232-.0763126.38464-.0763126.6159815 0 .19232.0753705.3465476.2261115.4227324.3768524.193249.301482.2694338.603906.3465476.9053879.1542276.603906.1542276 1.2078119.1542276 1.8107758-.1542276-.6029639-.2694338-1.2068698-.4617538-1.7354053-.0771138-.2637967-.19232-.5652786-.3465476-.7546469-.1542277-.2261115-.3465477-.3014819-.5769601-.2261115-.19232.0753705-.2694338.3391672-.3465476.603906-.0390215.2637967-.0390215.5662207-.0390215.8677026.0390215.5662208.1161353 1.1691846.1161353 1.7730906z"/><path d="m88.6100961 12.0677558c-.1152062-.0753704-.2304124-.1507409-.38464-.1507409-.1152062 0-.2304124.0376852-.3075262.1507409-.1542276.1884262-.1542276.4522229-.1152062.7169617 0 .1130557.0380924.2637967.0761847.3014819h.0771139c.0390214 0 .1152061 0 .19232-.0376852.2694338-.0376852.6550029-.1130557.9625291.0753705.3075262.2270535.38464.5662207.4617538.8300174.0380924.302424.0380924.6039059-.1152062.9053878-.1161352.1516831-.2694338.2270536-.38464.3024241-.1542276.0753705-.2694338.1130557-.4236615.150741-.1542276.0376852-.3084552.0376852-.4617538 0-.0771138 0-.1542276-.0376853-.19232-.1130558-.0390214-.0753704-.0771138-.1507409-.0771138-.1884262.0380924.150741.1532985.2261115.2694338.2261115.1152062 0 .2694338-.0376853.38464-.0753705.2313415-.0753705.5007753-.2647388.6159815-.4154798.0771138-.1884262.0771138-.4522228.0380924-.7169617-.0380924-.2261114-.1532986-.4899081-.3075262-.6029638-.1542277-.1139978-.4236615-.1139978-.6930953-.0376852-.0771138 0-.1542277.0376852-.2304124 0-.0771138 0-.2313414-.0376853-.3084553-.1139979-.1532985-.1884262-.1532985-.3391671-.1532985-.4899081 0-.302424.0761847-.603906.3075262-.8677026.1152062-.1130557.3075262-.1884262.4617538-.1130557.1152062.0753704.2313415.1884262.3075262.2637966z"/><path d="m81.2982195 16.218785c-.19232-.0763126-.4236615-.1516831-.57696-.1139979-.1932491.0376853-.2694338.2647388-.3465477.453165-.1542276.3768524-.19232.7546469-.1542276 1.1691846.0771138.3777945.2313415.7546469.5007753 1.0193857.1152062.150741.2694338.2637967.4617538.3391672.1532986.0753704.3075262.0753704.38464 0 .0771138-.0753705.1542277-.301482.19232-.4522229.0380924-.1893683.0380924-.3777945.0380924-.5662207 0-.3777946-.1152062-.7923322-.2304124-1.207812-.0771138-.4145376-.1542276-.8300174-.2313414-1.244555-.0380924-.4154798-.1152062-.8300174-.1152062-1.2454972.1542276.8300174.38464 1.6223496.6159815 2.4146818.1152061.3777945.2694338.7923321.3075261 1.2454971.0390215.2261115 0 .4522229-.0380923.6792765-.0771138.2261114-.1152062.4145376-.3084553.640649-.1152062.1139979-.2694338.1516831-.4227324.1516831-.1542276 0-.2694338-.0376852-.38464-.1139978-.2313415-.1130557-.3855691-.2637967-.5388676-.4145377-.3084553-.3391671-.462683-.7923321-.5007753-1.2078119-.0380924-.4522229.0380923-.9053879.2694338-1.2822403.1152062-.1507409.2313415-.4154797.4617538-.453165.2313415-.0376852.4236615.0753705.6159815.1893684z"/><path d="m163.044442 42.6662862c-.154227-.0376853-.346547 0-.461753.0753704-.154228.0753705-.231342.2261115-.308456.3391672-.154227.302424-.19232.603906-.19232.9430731 0 .3024241.077114.6415912.154228.9053879.115206.2647388.269434.5662207.461754.5662207.19232.0376853.422732-.1884262.615981-.4522228.19232-.2647389.307526-.5285355.38464-.8300175.077114-.302424.115206-.6415912.038093-.9440152-.038093-.150741-.115207-.3014819-.269434-.4145376-.115206-.1130558-.269434-.150741-.422733-.1884262zm0 0c.345619.0376852.654074.2637966.76928.5652786.115207.302424.154228.6415912.115207.9817004-.038093.3391672-.153299.6783344-.307527.9807584-.077113.150741-.19232.3014819-.346547.4145376-.154228.1130558-.346548.2270536-.57696.2270536-.231342-.0376852-.423662-.1893683-.538868-.3401093-.115206-.1507409-.154228-.3391671-.231341-.4899081-.077114-.3401093-.077114-.6792764-.038093-1.0193857.038093-.3391672.154228-.6792765.307526-.9430731.154228-.2637967.500776-.4522229.847323-.3768524z"/><path d="m164.505889 45.4191929c.039021-.6029638.077113-1.2068698.231341-1.8107757.077114-.301482.154228-.603906.307526-.9053879.077114-.150741.154228-.3014819.269434-.4145377.116135-.1139978.308455-.2647388.500775-.2647388.19232-.0376852.423662.0376853.57696.1884262.154228.1516831.231342.3024241.269434.4908503.077114.3391671.077114.6415912.039022.9807583-.077114.603906-.269434 1.207812-.461754 1.7730906.038092-.6029639.115206-1.2068698.153298-1.8107758 0-.3014819 0-.603906-.077113-.8300174-.076185-.2637967-.230413-.4145376-.461754-.3768524-.19232 0-.38464.2261114-.499846.4899081-.154228.2647388-.231342.5285355-.346548.7923322-.154228.5285355-.307526 1.1324414-.500775 1.69772z"/><path d="m168.662602 42.2508064c-.077114-.1130557-.19232-.2261114-.307526-.2637967-.115206-.0376852-.231341-.0376852-.346548.0376853-.19232.1507409-.307526.3768524-.346547.6415912-.038093.1130557-.038093.2637966 0 .3014819 0 0 .039021.0376852.077114.0376852.038092 0 .115206.0376853.19232.0376853.269433.0376852.654073.0753704.885415.3777945.231341.3014819.19232.6415912.154228.9430731-.077114.3014819-.154228.603906-.423662.8300174-.154228.1130557-.307526.150741-.461754.150741-.154227 0-.308455 0-.461754 0-.154227-.0376853-.308455-.0753705-.423661-.150741-.077114-.0376852-.115206-.1130557-.154228-.1884262-.038092-.0753705 0-.1516831 0-.2270536 0 .1516831.077114.2647389.193249.3024241.115207.0376852.269434.0753705.38464.0376852.269434 0 .57696-.0753704.692167-.1884262.154227-.1516831.231341-.4154797.269433-.6792764.039022-.2270536 0-.5285355-.115206-.6792765-.115206-.1507409-.346547-.2261114-.615981-.2637966-.077114 0-.153299-.0376853-.230413-.0763126-.077113-.0376853-.19232-.1130558-.269433-.2261115-.077114-.2261114 0-.3768524.038092-.5275933.077114-.3024241.269434-.5662208.538868-.7169617.154227-.0753705.346547-.0753705.461753.0376852.154228.1884262.231342.3014819.269434.4522229z"/><path d="m160.388197 43.8354707c-.154228-.1130557-.346548-.2637967-.538868-.2637967s-.307526.150741-.461754.301482c-.269434.3014819-.461754.6792764-.500775 1.0561288-.038093.3777945-.038093.7923322.116135 1.1324414.077114.150741.19232.3391672.307526.4522229.115206.1139979.269434.1893684.346548.1139979.115206-.0386274.269434-.2270536.346548-.3777946.115206-.1507409.19232-.3391671.230412-.5285354.116135-.3768524.116135-.7923322.19232-1.2068698.039021-.4154798.116135-.8300174.193249-1.2454972.076185-.4145376.19232-.8300174.307526-1.2068698-.115206.8300174-.19232 1.6600348-.19232 2.4900522 0 .4145376-.039021.8300174-.115206 1.2831824-.039021.2261114-.154228.4145376-.269434.6029638-.116135.1893684-.231341.3777946-.500775.5285355-.154228.0753705-.307526.0753705-.461754 0-.154228-.0376852-.231341-.1507409-.307526-.2261114-.154228-.1893683-.269434-.3777945-.385569-.5662207-.153299-.4154798-.19232-.9053879-.076185-1.3208677.115206-.4145376.345619-.8300174.654074-1.1314993.153298-.1130557.346547-.302424.615052-.2637967.193249.0376853.346548.2261115.500776.3768524z"/><path d="m0 0 18.8556295 48.9305151 13.2337534 36.0694849h7.5339272l-18.1669009-85z"/></g><path d="m36.423112 69c-.1923728 16.619617-.0384933 38.98759-.5385317 40.026898-.3076656.704679-10.2691923 8.568937-29.8845803 23.592772l3.88464041 6.38033c23.26925579-14.467363 35.50001499-22.665317 36.69227769-24.594796 1.7692875-2.893286 10.7692307-29.5275508 15.4230819-45.405204z" fill="#c4e8f8"/><path d="m0 137.690503 6.68130212-4.690503 5.42624298 5.954307c.4214318 4.489093 2.0690718 9.539775 4.8924549 15.09852l-1.2260178.947173-9.84299233-10.800858-2.72873714-4.168831-.62795804.48538z" fill="#073099"/><path d="m74 160 .3676846-8h7.9124155c3.7537265 2.678822 8.6847946 4.83684 14.7198999 6.474053v1.525947h-14.3515895l-4.8944159-.781674v.781674z" fill="#073099"/><path d="m51.3581707 13.7470503c-1.8568742-1.9796115-3.1212148-4.4270622-2.9236076-7.19846407.5926296-7.91835564 12.6820827-6.15471161 15.0130607-2.15958442 2.330978 3.99512718 2.0543855 14.10897139-.9482075 14.82886299-1.2247039.2879567-3.7927338-.3959403-6.4003043-1.8356332l1.6593631 10.6177684h-9.7584751z" fill="#ffcaa7"/><path d="m56.4430498 7.41685312c.3391591 4.90594048 1.2815525 7.37758978 2.826997 7.37758978 2.2993044 0 4.2217246-1.4605372 5.2394765-1.4605372.7162262 0 .5654177.89885.0753585 1.5728934-.4146092.5617812-2.3370294 1.0861104-2.3370294 1.9474142s1.5454446.1872604 1.5454446.7114954c0 .8613979.2638921 2.4342913-1.206194 2.4342913-1.5077195 0-5.7671691-.5243292-6.5210288-2.7338138-.4900592-1.423085-.7915848-4.3816113-.9046684-8.83812686-.0753585 0-.188442 0-.2638921 0-1.2815524 0-2.3370293 1.04856423-2.3370293 2.32184096 0 .6366854.2638921 1.2358246.7162262 1.6477975-.5276926.7489475-1.1308354 1.5354413-1.8093366 2.359293-2.6008299-1.5354413-4.9002258-6.06686098-2.3746629-10.41102023.7161348-2.13458049 2.67628-3.25814296 4.5609752-3.78237801 1.5077195-.6366854 3.0908891-.71158957 4.4101666-.33706874 2.6009215.22471249 4.9379508 1.01111212 5.5787271 1.49798919 0 2.43419715-.4900593 3.1832388-4.5609752 3.10833463-1.0554769.48687707-1.8093367 1.38563295-2.638555 2.58400548z" fill="#073099"/><path d="m47.2829692 21.8404742c.0775161-.2923389.1938373-.5846777.2714475-.8404742l.3489637.1461694c.0387109-.0365423.1163212-.109627.1550321-.1461694l11.1279371 1.6077718c0 5.8829518 2.5590666 10.9255214 5.7384503 15.6756602 4.8853967 7.3810966 5.8547716 15.5296744.2713534 26.4914627-5.0404289 9.9022436-7.9872643 12.0580589-29.1961533 5.3711753 0-5.3344493.2713534-9.3541083 2.1324928-16.1135258.1551263-6.1754743 4.0324373-25.8707017 9.1504764-32.19207z" fill="#073099"/><path d="m54 56.3286913c-.0821748.2231445-.1231624.4472266-.2053372.6713087-13.4654919-8.3951096-13.4654919-18.5819384-9.4833068-30-2.9969855 11.2314828-1.7653613 20.708562 9.688644 29.3286913z" fill="#073099"/><path d="m73.2549586 36.4336722c-4.2945301-.9973684-9.9589355-.1918016-13.6241972 1.5722912-1.1476482.5754049-2.2213707 1.3811644-2.887692 2.4548679-.4073112.6525109-.7774797 1.5344128-.7405168 2.3401723.1110685 1.8409099 3.2209875 1.7647676 4.4797043 1.9180161 3.591246.4597456 7.3674862.3450501 10.9215894-.2689078 1.8881651-.3450501 4.1469484-.7672064 5.7387809-1.9180161.9622942-.6901002 2.1835984-1.8409099 1.7770965-3.2220742-.2967823-1.0351504-1.4443406-1.6105552-2.3328889-1.9557981-.8516753-.3068826-2.4066348-.6904858-3.3318762-.9205513z" fill="#ce3a5e"/><path d="m57.2252571 35c.0368494.0370053.0736988.0370053.1104587.0370053.0368494 0 .0736988 0 .1104587.0740105 0 .0740106-.0367599.0740106-.0736093.0740106-.2209175.0740105-.2209175.1110158-.1104587.3330474.1104587.1850264.2945268.3330474.5154443.4440632.2945268.1480211.625903.2960422.9205193.4809756.2209174.1480211.4049855.2590369.5890536.4440632.4049855.3330475.7363618.7031002.9205193 1.1845406.1104587.2584791.1840681.5550791.2209175.8507494.0736093.4435053.1104587.8507493.1104587 1.2951844 0 .2222176 0 .4435054.0367599.665723 0 .2594088.1104588.4816264.2209175.7029142.0736988.2222176.1841575.407244.2577669.6294615.0736093.1850264.1840681.3700527.2577669.5550791.1104587.2222176.184068.4435054.2945268.665723.1473081.2966.2945268.5922703.4049855.9251317.1104588.2222176.2209175.4444352.3313762.665723.1104588.2594088.2209175.4816264.3313763.7401054.0736093.2222176.184068.407244.2577668.6294616.1104588.2956702.2576774.5922703.3681362.8879405.1473081.4072439.2946162.8507493.405075 1.2579933.0367599.2222176.1104587.4072439.1472187.6294615.0368494.1850263.0736093.3700527.1104587.5178878.0368494.2222176.0368494.4806966.0368494.7029142 0 .3700527-.0736988.7029142-.2945268.9995143-.3313762.4063141-.9941287.6285317-1.472813.3700527-.1104587-.0743825-.1104587-.0743825-.1840681.0734526-.1841575.4444352-.5522937.7029142-1.030978.7401055-.2576774.0371912-.5154443 0-.7732112-.1478352-.0367599-.0371912-.0736093 0-.1104587.0371913-.1840681.2956702-.4785949.4806966-.8468205.5178878-.4785949.0743825-.8099711-.1106439-1.1413473-.4072439-.1841576-.1478352-.2946163-.3328615-.441835-.5550791-.2209175-.3328615-.3682256-.7029142-.5154443-1.0729669-.1473081-.3328615-.2577668-.665723-.3313762-.9985845-.1104587-.4072439-.2209175-.7772966-.2946163-1.1845405-.0736093-.2956703-.1472186-.6294616-.184068-.9251318-.0736094-.3328615-.1104588-.6285318-.1840681-.962323-.0736988-.2956703-.1104588-.5913405-.1841575-.8879406-.0736094-.3700527-.1472187-.7401054-.1840681-1.1473493-.0368494-.2584791-.0736094-.4806967-.1473081-.7391757-.03676-.1850263-.0736094-.3337912-.0736094-.5188176-.0368494-.1478351-.0736093-.3328615-.0736093-.4806966-.0368494-.2594088-.1104588-.5178879-.2577669-.7029142-.0736093-.1478351-.1840681-.2966-.2576774-.4072439-.2209175-.3328615-.441835-.6285318-.5891431-.9985845-.1473081-.2594088-.2577669-.5188176-.3313762-.8144879-.1104588-.3328615-.1104588-.7029142-.0736094-1.0357757.03676-.4816263.1840681-.962323.3681362-1.4067581.1104587-.2956703.2577669-.5547072.405075-.8137441.1104587-.1850263.1840681-.407058.2209175-.6289966 0-.1110158-.0368494-.2220316-.0736988-.3330475 0-.0370052-.03676-.0370052-.0736094-.0370052s-.1104587.0370052-.1473081.0370052c-.0367599 0-.0736093 0-.1104587-.0370052 0-.0370053 0-.0740106 0-.1110158.0368494-.0370053.1104587-.0370053.1104587-.1110158h.0368494c.5522937-.1850264 1.1413473-.3700528 1.693641-.5550791.2209175 0 .5155337-.0740106.7732112-.1480211z" fill="#c4e8f8"/><path d="m57.9084492 36.0753383c-.3205947.0825968-.6411894.1651935-1.0075039.2889848-.6869091.2064918-1.419538.4129836-2.1064472.6194754h-.045831c-.0915508.0412983-.1373819 0-.1832129-.0825968 0-.123895-.0457198-.2064918-.0915508-.2890885.045831-.0412983.1373818-.0412983.1832129-.123895-.0916621.0412983-.1373819.0412983-.1832129.0412983-.1373818-.4954765-.3205947-.9497584-.4579765-1.4040404-.0457198-.1651934 0-.2890885.2290439-.3716852.8700107-.2476864 1.7858525-.4954765 2.6559745-.7432667.1832129-.0412983.3663145.0412984.4121455.2064918.1373819.4128798.2747637.8258634.4121455 1.238847 0 .0412983.0915508.1238951.0915508.1651934-.1831016.0412984-.4121454.1238951-.5952471.1651934v.0412984c.2289327-.0412984.4121455-.1238951.5952471-.1651934 0 .0412983.0458311.123895.0916621.1651934.0457198.0825967.0457198.1238951.0915508.2064918 0 0-.045831 0-.0915508.0412983zm-1.648582-.0412983c-.2290439.0412983-.4579765.1238951-.7327402.1651934.2747637-.0412983.5036963-.1238951.7327402-.1651934zm.0915508-.0412984c.2289327-.0412983.4579765-.123895.7327402-.2064918-.2747637.0412984-.5038075.1238951-.7327402.2064918zm-1.6027509.4541782c.2289326-.0412984.4579765-.1238951.6869091-.1651934-.2289326.0412983-.4579765.0825967-.6869091.1651934z" fill="#ce3a5e"/><path d="m56.8508414 50.1991386c-.1495113-.5665852-.2989319-1.1331703-.4110427-1.6997555-.1868211-.9813217-.373733-1.9635925-.5605541-2.9458632-.1495114-.8304222-.1495114-1.7747308-.4858438-2.5681399-.1868211-.4536477-.5231536-.8683843-.7847758-1.2840699-.3362416-.5665851-.5604633-1.2090946-.5978638-1.8886172-.0374005-.4906608 0-1.5868181.485753-1.8126929.1869119.3397613.0748011.8304221.0374006 1.2461077-.0374006.9443087.4484432 1.812693.934287 2.606102.5231536.7934091.7473752 1.5108938.9341963 2.4172403.1495114.7174847.298932 1.4729316.4484433 2.1904163.3363325 1.7377177.6726649 3.4754353 1.1211082 5.2122039.0374005.0759244.0374005.1518487 0 .2268239-.0747103.1888617-.373733.0759243-.4484433-.0379621-.2989319-.528623-.4858438-1.0952082-.6726649-1.6617934z" fill="#fff"/><path d="m75.5092936 31c0 .036877.0772572.036877.1158858.073754.0395707.036877.0781993.036877.0781993.0737539 0 .073754-.0386286.073754-.1168279.073754-.2327138.036877-.2713424.073754-.1940852.2949232.0781993.2212619.2327138.4056468.4267989.5531548.2713424.2212619.5436269.4425238.8149693.6637857.1940851.1843849.3485995.3686772.5040561.5530621.3485996.4056468.5813133.8481706.6981413 1.3643558.0772572.2950158.0386286.5900317.0386286.8850476 0 .4424311-.0772572.848078-.1940852 1.2906018-.0386286.2212619-.0772572.4056468-.1158858.626816-.0395707.257861 0 .5163705.0386286.7378177.0386286.2205207.0772572.4419679.1545144.6634151.0395708.1843849.116828.4058321.1554566.590217.0386286.2214473.1168279.4790302.1554565.7004774.0772572.3317076.1545144.6634151.2327138.9951227.0386286.2585095.1158858.4799567.1545144.7375397.0781994.2585095.116828.5531547.1554566.8116642.0386286.2214472.0772572.4428945.1168279.6634151.0386286.2955718.1158858.6272794.1545144.9219246.0781994.4428945.116828.8848623.116828 1.3277568v.6272793c0 .1843849-.0386286.3687699-.0386286.5531548 0 .2205206-.0781994.4790302-.116828.7004774-.0772572.3317075-.2327137.6634151-.5426847.9219246-.4267989.3317075-1.1635688.3687698-1.6289963.0361357-.116828-.1102603-.116828-.073198-.1940852.0370623-.309971.4058321-.6981413.5531548-1.2021974.5160925-.2713424-.0361358-.5426847-.1473227-.7367699-.3317076-.0386286-.0370623-.0781994-.0370623-.116828 0-.2713423.2585095-.6199419.3317076-.9694836.3317076-.5041504 0-.814404-.2946453-1.0859348-.6634151-.1163569-.1843849-.2327137-.4058322-.3102536-.6272794-.1551739-.3687698-.2327137-.7736754-.2715308-1.1424452-.0775398-.3317076-.1163569-.7004774-.1163569-1.0331115 0-.4049056-.038817-.8107377-.038817-1.2165699 0-.3317075 0-.6263528 0-.9589869 0-.3317075.038817-.6634151.038817-.9580603 0-.2955718 0-.5902171.0388171-.8857889.038817-.3687698.038817-.7736754.0775398-1.1424452.0388171-.2585096.0388171-.4799568.0388171-.7375397 0-.184385 0-.3317076.0387228-.5160925 0-.1482492 0-.3326341 0-.4799567 0-.257583 0-.5160925-.1163569-.7736754-.0775399-.1482492-.1162627-.2955719-.1938967-.4798641-.1550797-.3686772-.2714366-.737447-.3877935-1.1062169-.0776341-.2950159-.1163569-.5899391-.1551739-.884955-.0388171-.3687698.038817-.7006627.1551739-1.0324629.1550797-.4794007.3877935-.8850476.6980471-1.2906944.1939909-.2580462.3878876-.4793081.6206014-.70057.1551739-.147508.3102536-.3318929.3878877-.5531548.0387228-.110631 0-.2212619 0-.3318929 0-.0368769-.038817-.0367843-.0776341-.0367843-.0387228 0-.1163569 0-.1550797 0-.038817 0-.077634 0-.077634-.036877s0-.0737539.038817-.1106309.1163569-.036877.1551739-.073754h.0387228c.6206957-.036877 1.2415798-.1106309 1.9001503-.1475079.2327138-.036877.5049983-.036877.8149693-.073754z" fill="#7cc1ef"/><path d="m74.9574861 32.693162c-.2954433.0489689-.5549665.0489689-.8504097.0979377-.5917846.0489688-1.1826712.1469064-1.8113637.1958753h-.0369978c-.1109035.0489688-.1109035-.0489689-.1109035-.1469065 0-.1469065 0-.2448441 0-.3917506.0369978-.0489688.1109035 0 .1479013-.0979376-.0739057 0-.1109035 0-.1848092 0 0-.5876258-.0739955-1.1751286-.1109035-1.7137856 0-.1958753.0739057-.3427818.221807-.3917506.7394164-.0979376 1.5152917-.1469065 2.255247-.2448441.1472726 0 .2586251.0979376.2954432.2938129.0368182.4896882.0736364 1.0283452.0736364 1.5179104 0 .0979376.0377161.1469065.0377161.1958753-.1849888 0-.3331594.0489688-.5181482.0489688v.0489688c.1849888 0 .3331594-.0489688.5181482-.0489688 0 .0489688 0 .1469064.0368182.1958753 0 .0979376 0 .1469064.0368182.2448441.0736363.1469064.0368181.1958752 0 .1958752zm-1.2940237-.4407193c-.1849888 0-.4067957 0-.5917845.0489688.1849888 0 .4067957 0 .5917845-.0489688zm.0736363 0c.1849889 0 .4067958-.0489689.5917846-.0489689-.1849888 0-.3699776 0-.5917846.0489689zm-1.3304825.1469064c.1848092 0 .4066161-.0489688.5914253-.0489688-.2217171 0-.4066161 0-.5914253.0489688z" fill="#ce3a5e"/><path d="m71.4059755 46.0809571c-.0266724-.5525378-.0266724-1.1411711-.0266724-1.6937089 0-.9579173.0266724-1.9519301.080147-2.9098474.0266724-.84778.1869666-1.7316554.0534098-2.5414888-.0801471-.4794215-.2404412-.9210815-.3473256-1.3999476-.1335568-.626117-.2137039-1.2891624-.1335568-1.9152794.0534746-.4420302.2404412-1.5101774.6144392-1.620685.080147.3683585-.0801471.8102962-.1602942 1.1786548-.1602941.883968.0267374 1.8048643.2404412 2.6519964.2404412.8840605.2939159 1.5837567.2671785 2.504653-.0267373.7367171-.0267373 1.4734342-.0534097 2.1731303-.0267373 1.7316554-.0801471 3.4623853-.0534746 5.1940406 0 .0731164 0 .1471583-.0266725.2202747-.080147.1841793-.2671785 0-.2939158-.1471583-.0801471-.5525378-.1335568-1.1420966-.1602941-1.6946344z" fill="#fff"/><path d="m63.5092147 34c0 .036877.0775416.036877.1163596.073754.0388179.036877.0775416.036877.0775416.0737539 0 .073754-.0387237.073754-.1162653.073754-.2327191.0367843-.271537.073754-.1939954.2949232.0776359.2212619.2327191.4056468.4266202.5531548.2715369.2212619.5430738.4425238.8145165.6637857.1939953.1842923.3490785.3686772.504256.5530621.3490785.4056468.5817975.8481706.698157 1.3643558.0775416.2950158.0387237.5901244.0387237.8847696 0 .4428944-.0775416.8487266-.1939011 1.2906945-.0387237.2214472-.0775416.4058321-.1163595.6272793-.0387237.257583 0 .5160925.0388179.7375397.0388179.2205207.0775416.4419679.1550832.6634151.0388179.1843849.1164537.4058321.1551774.590217.0388179.2214473.1163595.4790302.1551774.7004774.0775416.3317076.1550832.6634151.232719.9951227.0387237.2585095.1163596.4799567.1550832.7375397.0776359.2585095.1163596.5531547.1551775.8116642.0388179.2214472.0775416.4428945.1163595.6634151.0388179.2955718.1163595.6272794.1551774.9219246.0775416.4428945.1163595.8848623.1163595 1.3277568v.6272793c0 .1843849-.0388179.3687699-.0388179.5531548 0 .2205206-.0775416.4790302-.1163595.7004774-.0775416.3317075-.232719.6634151-.5429797.9219246-.4266201.3317075-1.163595.3687698-1.6290331.0361357-.1163595-.1102603-.1163595-.073198-.1939011.0370623-.3103548.4058321-.698157.5531548-1.202413.5160925-.2714427-.0361358-.5429796-.1473227-.7368807-.3317076-.0388179-.0370623-.0776358-.0370623-.1163595 0-.2715369.2585095-.6206155.3317076-.969694.3317076-.5041617 0-.8145166-.2946453-1.0859593-.6634151-.1163595-.1843849-.232719-.4058322-.3103548-.6272794-.1550832-.3687698-.232719-.7736754-.2714427-1.1424452-.0776358-.3317076-.1163595-.7004774-.1163595-1.0331115 0-.4049056-.0388179-.8107377-.0388179-1.2165699 0-.3317075 0-.6263528 0-.9589869 0-.3317075.0388179-.6634151.0388179-.9580603 0-.2955718 0-.5902171.0387237-.8857889.0388179-.3687698.0388179-.7736754.0776358-1.1424452.0387237-.2585096.0387237-.4799568.0387237-.7375397 0-.184385 0-.3317076.0388179-.5160925 0-.1482492 0-.3326341 0-.4799567 0-.257583 0-.5160925-.1163595-.7736754-.0775416-.1482492-.1163595-.2955719-.1939011-.4799568-.1551774-.3687698-.271537-.7375397-.3878965-1.1063095-.0775416-.2946453-.1163595-.5902171-.1550832-.8848623-.0388179-.3687699.0387237-.7005701.1550832-1.0324629.1551775-.4793081.3878965-.884955.6981571-1.2906018.1939011-.2581389.3878964-.4793081.6206154-.70057.1550832-.147508.3102607-.3318929.3878023-.5531548.0388179-.110631 0-.2212619 0-.3318929 0-.0368769-.0387237-.0368769-.0775416-.0368769-.038818 0-.1163596 0-.1551775 0-.0387237 0-.0775416 0-.0775416-.036877s0-.073754.0388179-.1105383c.0387237-.036877.1163596-.0369697.1550832-.073754h.038818c.6205212-.036877 1.2411366-.1106309 1.9004758-.1475079.232719-.036877.5430738-.036877.8145165-.073754z" fill="#7cc1ef"/><path d="m63.9573178 33.6932627c-.2957049.0489707-.5545027.0489707-.8502076.0979413-.5914994.0489707-1.1829091.146912-1.8114054.1957596h-.0369069c-.1109006.0489706-.1109006-.0488476-.1109006-.1467889 0-.146912 0-.2448533 0-.3917652.0369968-.0489707.1109006 0 .1478075-.0979413-.0739037 0-.1108107 0-.1848043 0 0-.5876478-.0739037-1.1752956-.1109005-1.7138498 0-.1958826.0739936-.3427945.2218011-.3917652.739307-.0979413 1.5156107-.1469119 2.2550075-.2448532.1478075 0 .2587081.0979413.2957049.2938239.0369069.4897065.0739037 1.0282606.0739037 1.5179671 0 .0979413.0369968.146912.0369968.1958826-.1848941 0-.3327016.0489707-.5175059.0489707v.0489706c.1848043 0 .3326118-.0489706.5175059-.0489706 0 .0489706 0 .1469119.036907.1958826 0 .0979413 0 .1469119.0369968.2448532.0739037.1958826.0369967.1958826 0 .1958826zm-1.2938097-.3917652c0-.0489706 0-.0489706 0 0-.1848043 0-.4066054 0-.5914995.0489707.2218011-.0489707.4066952-.0489707.5914995-.0489707zm.1109005-.0489706c.1848043 0 .4066054-.0489707.5914995-.0489707-.2218011 0-.4066952.0489707-.5914995.0489707zm-1.3678032.1469119c.1848941 0 .4066951-.0489706.5914994-.0489706-.1848043 0-.4066053.0489706-.5914994.0489706z" fill="#ce3a5e"/><path d="m61.4060002 49.0809571c-.026739-.5525378-.026739-1.1411711-.026739-1.6937089 0-.9579173.026739-1.9528556.080152-2.9098474.0267389-.84778.1870428-1.7316554.0534779-2.5414888-.080152-.4794215-.2404558-.9208964-.3473467-1.4003178-.133565-.6256542-.2137169-1.2883294-.133565-1.9149092.053413-.4420302.2404559-1.5101774.6144766-1.620685.080152.368266-.0801519.8102962-.1603039 1.1786548-.1603038.8844307.026739 1.8044016.2404559 2.6521815.2404558.8838754.2938688 1.5835716.2671298 2.5044679-.026674.7367171-.026674 1.4734342-.053413 2.1731303-.026674 1.7316554-.0801519 3.4623853-.053413 5.1940406 0 .0731164 0 .1471583-.0267389.2202747-.0801519.1841793-.2671299 0-.2938688-.1471583-.080152-.5525378-.133565-1.1050756-.1603039-1.6946344z" fill="#fff"/><path d="m67.4260832 30c.0373433.0367793.0747774.0367793.1122115.0367793.0373433 0 .0747775 0 .1122116.0735586 0 .0735586-.0374341.0735586-.0748683.0735586-.2244231.0735586-.2617664.1103379-.1122115.3310136.1122115.2206758.2992914.3310137.5237145.4413516.2992006.1470247.5984011.2941419.8976017.5148177.2244231.1471172.4115029.2942344.5984919.4413515.4114121.3310137.7107036.7354935.9351267 1.2136244.1122116.2942343.1495548.5884687.2244231.8459238.0747774.4412591.0747774.8458313.0747774 1.2871829v.6619349c0 .2574551.1122116.4781308.186989.7355859.0748683.2205834.1870799.4044798.2618573.6251556.0747774.1838965.186989.3679778.2617664.5518742.1122116.2208606.1870799.4407971.2992914.6616577.1495549.2947888.2617665.6256177.4114122.9194824.1122115.2208606.1869889.4417212.2992005.6986218.1122116.2578247.2244231.5147253.3366347.7355859.0748683.2208606.186989.4047571.2614938.6256177.1126659.2938647.2244232.5877294.337089.8825182.1499183.4047571.298928.8455542.3743415 1.2872754.0372524.2208605.1117572.404757.1490096.6246935.0372525.1838965.0372525.367793.0754135.5156494.0372524.2199365.0372524.4777612 0 .6986218-.038161.367793-.1126659.6986218-.337089.9924865-.3361804.4047571-1.0098132.5886536-1.5335278.3308289-.1122115-.0730042-.1122115-.0730042-.186989.0739282-.2244231.4417212-.5610578.6616577-1.0472473.7355859-.2618573.0369641-.5237146-.0369641-.7481377-.1838965-.0373433-.0369641-.0747774 0-.1122116.0369641-.186989.2938648-.4861895.4407971-.8602584.5147253-.4861895.0730042-.8228242-.1099682-1.1594589-.4417211-.1496457-.1469324-.2992914-.367793-.411503-.5516895-.186989-.3308288-.373978-.6986218-.4861895-1.0664147-.1122116-.3308288-.2618573-.6616577-.3366347-.9924865-.1122116-.4047571-.186989-.77255-.2618573-1.1773071-.0747774-.2938647-.1122116-.6246936-.186989-.9194824-.0747774-.3308288-.1122115-.6246935-.1496457-.9555224-.0373433-.2947888-.1122116-.5886535-.1495548-.8834423-.0748683-.367793-.1122116-.7355859-.1870799-1.1394189-.0373433-.2578247-.0747774-.4786853-.1122116-.7355859-.0373432-.1838965-.0373432-.3308289-.0747774-.5147253-.0374341-.1478565-.0374341-.331753-.0747774-.4786853-.0374341-.2569006-.1122116-.5147253-.2618573-.7354011-.0747774-.1471172-.186989-.2942344-.2618572-.4044799-.2244232-.3310136-.4114122-.6620273-.5984012-.9930409-.1122115-.2574551-.2244231-.5516894-.3366346-.8090521-.1122116-.3310137-.1122116-.6988066-.0747775-1.0298203.0373433-.4780384.186989-.9561692.4114121-1.3975208.1122116-.2941419.2617665-.551597.4488463-.8090521.1122116-.1838964.2244231-.4045722.2244231-.625248 0-.1103379-.0374341-.2206758-.0748682-.3309212 0-.0367793-.0373433-.0367793-.0747775-.0367793-.0374341 0-.1122115.0367793-.1496457.0367793-.0373433 0-.0747774-.0000924-.1122115-.0367793 0-.0367793 0-.0735586.0374341-.1103379s.1122116-.0367793.1122116-.1103379h.0374341c.5984011-.1838965 1.1594589-.3310137 1.7579509-.5149101.2244231-.0735586.4861896-.1471172.785481-.2206758z" fill="#c4e8f8"/><path d="m68.9093889 30.1461813c-.3173042.0837496-.6798588.1674992-.9971629.2512489-.7252194.209374-1.4049681.3768733-2.1301875.5861421h-.0453606c-.0906111.0418748-.1359718 0-.1812223-.0837496 0-.1255192-.0453606-.2092689-.0907212-.2930185.0453606-.0418748.1359717-.0418748.1813324-.1256244-.0906112.0418748-.1359718.0418748-.1813324.0418748-.0906112-.5024977-.2719435-.9631207-.4531658-1.4236384-.0453606-.1674992.0452505-.2931237.2265829-.3768733.9064417-.2512488 1.7676328-.4606229 2.6740745-.7118718.1813323-.0418748.3625546.0418748.4079152.2093741.1359718.4187481.2719435.8374962.4079153 1.2561391 0 .0418748.0906111.1256244.0906111.1674993-.1812222.0418748-.4079152.1256244-.5891375.1674992v.0418748c.2265829-.0418748.4079153-.1256244.5891375-.1674992 0 .0418748.0453606.1256244.0907213.1674992.0452505.0837496.0452505.1256244.0906111.2093741 0 .0418748-.0453606.0418748-.0906111.0837496zm-1.6316611-.0837496c-.226693.0418748-.4985264.1256244-.7252194.1674992.2719435-.0418748.4985264-.0837496.7252194-.1674992zm.0906111-.0418748c.2265829-.0418749.4532759-.1256245.7252194-.1674993-.2719435.0418748-.4986365.1256244-.7252194.1674993zm-1.5863004.4606229c.2265829-.0418748.4532759-.1256244.6798588-.1674993-.2265829.0418749-.4532759.0837497-.6798588.1674993z" fill="#ce3a5e"/><path d="m67.7902532 45.2067083c-.1588786-.5651429-.2780858-1.1302858-.397293-1.6954287-.1986465-.9797704-.3576217-1.9595408-.5165968-2.9383645-.1192072-.829255-.1192072-1.8090254-.4768288-2.5625492-.1986466-.4518304-.5165003-.8662685-.7946826-1.3182882-.3576217-.5651429-.5960361-1.2433144-.5960361-1.883715-.0397679-.4897906.0397679-1.5823055.5562682-1.8083627.198743.3390857.0397679.8664578.0397679 1.2432197-.0397679.9419049.4370609 1.8083627.9536577 2.5995628.5165002.7911054.7549147 1.5064798.9536577 2.4483846.1192072.716605.2780858 1.4691823.397293 2.1857873.3179503 1.7323476.635804 3.5035074 1.072865 5.1989362 0 .0747844.0397679.1505154 0 .2252998-.0794393.188381-.3972931.0757311-.4768289-.0747844-.3178537-.4894119-.5165002-1.0545548-.7152433-1.6196977z" fill="#fff"/><path d="m78.8945998 39.2323507c.1552263-1.2382932.7366194 2.8120752 1.2785004 4.1625122.890905 2.3625579 1.3170719 5.2509663 2.4789174 7.6135241 2.8270006 5.6260353 4.2983581 14.2893757-2.7112865 17.6273015-3.4855366 1.6501152-14.2906059 1.8376498-17.892327.3750691-5.1506917-2.0628796-4.5311035-8.2882715-5.1894513-12.7890997-.6583477-4.612972-1.8201933-9.0016564-1.8589528-13.6513814 0 0 4.6473821 1.0498163 8.2490092 1.0121209 3.5629615-.0376954 7.6680864-.750138 9.7594083-1.3127416 2.0911338-.5626035 5.7704681-2.0628796 5.8861823-3.0373051z" fill="#f24c64"/><path d="m54.065254 55.9536039c-.3387834-3.9010509.7151485-5.7422307 1.4680615-6.7894075 5.7592269 6.2476705 21.1168604 14.7339761 22.0202828 14.8065706 1.6943744.1442818 5.6463905.1442818 5.9856312.541737.601672 1.6606009-1.0542977 5.8502152-4.2162764 6.4636393-1.5050945.2894709-4.7804582-2.1306507-5.7588611-3.1778274-.3767308-.3974553-16.1110951-9.5334823-19.498838-11.844712zm25.7094103-11.9536039c1.506009 0 2.2960464.5771269 3.1619787 1.7694927.8659323 1.1914584 1.7318645 6.8247973.300836 6.8247973-1.4301141 0-7.3398504-2.1660406-7.3398504-3.6469698 0-1.4809293 4.0654011-2.0943535 4.0654011-3.1778275s-1.6934599-1.7694927-.1883654-1.7694927z" fill="#ffcaa7"/><path d="m63.6465678 9c.0923348.37747793.5542331.82358818.8313496 1.1324337.3232278.4117079.5542331.823502.8774609 1.2352961.2771165.3774779 1.0161313.9607666.4156748 1.3039283-.4617861.2745294-2.2630435.4117079-2.7710531.2745294" fill="#ffcaa7"/><path d="m65 7.90015253c-.3500405-.0398-.6-.0796-.8000405-.0796-.199919 0-.3999595 0-.6.0398-.199919.0398-.4498785.0398-.6999595.0796-.2499595 0-.5499595.0398-.9-.0398.15-.2387.400081-.3979.6-.5571.250081-.1194.550081-.2388.9-.2786.3500405-.0398.6999595 0 .9999595.1592.250081.199.45.4378.5000405.6765z" fill="#073099"/><path d="m63.50005 8.93775c.25 0 .4528-.196.4528-.4378 0-.2417-.2028-.4377-.4528-.4377-.2501 0-.4529.196-.4529.4377 0 .2418.2028.4378.4529.4378z" fill="#073099"/></g></svg>