<svg height="320" viewBox="0 0 248 320" width="248" xmlns="http://www.w3.org/2000/svg"><g fill="none" transform="translate(20 58.183575)"><path d="m176.789 123.635425v-21.345l-24.731-12.1340001v19.5430001z" fill="#428edd"/><path d="m176.789 102.290425 38.856-7.8490001v19.7430001l-38.856 9.451z" fill="#7cc1ef"/><path d="m152.058 90.1564249 36.371-6.528 27.216 10.813-38.856 7.8490001z" fill="#c4e8f8"/><path d="m201.933 112.662425v4.845l-10.895 2.644v-5.086z" fill="#fff" opacity=".4"/><path d="m202.679 103.170425v-6.1270001l-25.89-11.333-10.149 1.842 23.777 11.974v6.4870001z" fill="#fff" opacity=".4"/><path d="m197.625 98.0854249-25.393-11.534-.621.121 25.393 11.533z" fill="#fff"/><path d="m186.73 99.4454249v-13.696l15.866-7.769v12.535z" fill="#7cc1ef"/><path d="m186.731 85.7514249-24.896-5.006v12.655l24.896 6.047z" fill="#428edd"/><path d="m202.596 77.9814249-23.322-4.165-17.439 6.928 24.896 5.006z" fill="#c4e8f8"/><path d="m170.616 92.3994249v3.123l7.001 1.682v-3.244z" fill="#fff" opacity=".4"/><path d="m170.16 86.3514249v-3.924l16.57-7.289 6.504 1.202-15.244 7.649v4.165z" fill="#fff" opacity=".4"/><path d="m173.391 83.0684249 16.239-7.368.414.04-16.28 7.409z" fill="#fff"/><path d="m125.92 125.156425v-35.4820001l17.812-9.13v34.1200001z" fill="#c4e8f8"/><path d="m125.92 89.6754249-27.92-5.887v34.2810001l27.92 7.088z" fill="#7cc1ef"/><path d="m143.732 80.5444249-26.18-4.926-19.552 8.17 27.92 5.887z" fill="#eef8ff"/><path d="m107.9 116.907425v3.644l7.83 2.002v-3.844z" fill="#fff" opacity=".4"/><path d="m107.362 90.3554249v-4.605l18.558-8.57 7.332 1.401-17.108 9.011v4.886z" fill="#fff" opacity=".4"/><path d="m110.966 86.5104249 18.227-8.69.497.08-18.269 8.69z" fill="#fff"/><path d="m152.721 126.678425v-13.175l14.582-7.489v12.094z" fill="#c4e8f8"/><path d="m152.722 113.504425-22.867-4.846v12.214l22.867 5.807z" fill="#7cc1ef"/><path d="m167.303 106.014425-21.416-4.005-16.032 6.648 22.867 4.846z" fill="#eef8ff"/><path d="m137.933 119.911425v3.003l6.421 1.642v-3.123z" fill="#fff" opacity=".4"/><path d="m137.519 114.063425v-3.765l15.203-7.008 6.006 1.121-14.001 7.409v4.005z" fill="#fff" opacity=".4"/><path d="m140.46 110.898425 14.954-7.088.373.04-14.954 7.129z" fill="#fff"/><path d="m200.318 114.544425-1.781-6.047 21.83-.961 2.569 5.446z" fill="#eef8ff"/><path d="m200.318 114.504425v16.019l22.618-1.762v-15.778z" fill="#073099"/><path d="m207.484 117.467425-7.166-2.923v16.018l7.166 3.685z" fill="#7cc1ef"/><path d="m207.484 117.428425-6.172-5.086-7-2.603 6.006 4.805z" fill="#c4e8f8"/><path d="m232.629 115.786425 6.296-5.206-9.734-2.042-6.255 4.445z" fill="#eef8ff"/><path d="m207.485 117.428425 2.568-4.726 25.932-1.402-3.356 4.486z" fill="#7cc1ef"/><path d="m207.485 117.467425v16.779l25.144-2.202v-16.259z" fill="#eef8ff"/><path d="m204.046 129.882425 2.278-7.769-27.961-1.241-3.272 7.008z" fill="#eef8ff"/><path d="m204.046 129.842425v7.368l-28.955-2.563v-6.768z" fill="#073099"/><path d="m194.85 133.606425 9.196-3.724v7.208l-9.196 4.726z" fill="#eef8ff"/><path d="m194.85 133.567425 7.912-6.528 8.989-3.324-7.705 6.168z" fill="#7cc1ef"/><path d="m162.663 131.443425-8.036-6.647 12.469-2.644 7.995 5.727z" fill="#eef8ff"/><path d="m194.85 133.567425-3.272-6.048-33.223-1.802 4.309 5.727z" fill="#c4e8f8"/><g fill="#7cc1ef"><path d="m194.85 133.607425v8.21l-32.187-2.844v-7.529z"/><path d="m134.743 89.4354249c-.166.04-.331.08-.456.24-.124.121-.165.281-.207.441-.041.32.042.681.166 1.001s.29.601.497.841.497.481.663.401c.207-.041.373-.361.456-.641.082-.321.124-.641.124-.961-.042-.321-.083-.681-.29-.962-.083-.12-.249-.24-.414-.32-.166-.08-.373-.08-.539-.04zm0 0c.331-.08.746.04.953.32.248.281.373.601.455.962.083.36.083.72.042 1.081-.041.2-.083.36-.207.561-.083.16-.249.36-.497.44-.249.08-.497-.04-.663-.16s-.29-.28-.414-.441c-.207-.32-.332-.64-.415-1.001-.082-.36-.082-.721 0-1.041.083-.401.373-.721.746-.721z"/><path d="m137.229 91.6784249c-.166-.641-.332-1.241-.414-1.882-.042-.32-.042-.641 0-1.001.041-.16.041-.361.124-.521s.207-.36.414-.44c.207-.081.414-.081.663 0 .207.08.373.24.455.4.208.32.29.641.373.961.166.641.166 1.282.166 1.922-.166-.64-.29-1.281-.497-1.842-.083-.28-.207-.6-.373-.801-.166-.24-.373-.32-.621-.24-.207.08-.29.36-.373.641-.042.28-.042.601-.042.921.042.601.125 1.241.125 1.882z"/><path d="m140.335 87.0724249c-.124-.08-.248-.16-.414-.16-.124 0-.248.04-.331.16-.166.2-.166.48-.124.761 0 .12.041.28.082.32h.083c.042 0 .124 0 .207-.04.29-.04.705-.12 1.036.08.331.241.414.601.497.881.041.321.041.641-.124.961-.125.161-.29.241-.414.321-.166.08-.29.12-.456.16s-.332.04-.497 0c-.083 0-.166-.04-.207-.12-.042-.08-.083-.16-.083-.2.041.16.165.24.29.24.124 0 .29-.04.414-.08.249-.08.539-.281.663-.441.083-.2.083-.48.041-.761-.041-.24-.165-.52-.331-.64-.166-.121-.456-.121-.746-.04-.083 0-.166.04-.248 0-.083 0-.249-.04-.332-.121-.165-.2-.165-.36-.165-.52 0-.321.082-.641.331-.921.124-.12.331-.2.497-.12.124.08.249.2.331.28z"/><path d="m132.465 91.4784249c-.207-.081-.456-.161-.621-.121-.208.04-.29.281-.373.481-.166.4-.207.801-.166 1.241.083.401.249.801.539 1.082.124.16.29.28.497.36.165.08.331.08.414 0s.166-.32.207-.48c.041-.201.041-.401.041-.601 0-.401-.124-.841-.248-1.282-.083-.44-.166-.881-.249-1.321-.041-.441-.124-.881-.124-1.322.166.881.414 1.722.663 2.563.124.401.29.841.331 1.322.042.24 0 .48-.041.721-.083.24-.124.44-.332.68-.124.121-.29.161-.455.161-.166 0-.29-.04-.414-.121-.249-.12-.415-.28-.58-.44-.332-.36-.498-.841-.539-1.282-.041-.48.041-.961.29-1.361.124-.16.249-.441.497-.481.249-.04.456.08.663.201z"/><path d="m220.451 119.550425c-.166-.04-.373 0-.497.08-.166.08-.249.24-.332.36-.166.321-.207.641-.207 1.001 0 .321.083.681.166.961.124.281.29.601.497.601.207.04.455-.2.663-.48.207-.281.331-.561.414-.881.083-.321.124-.681.041-1.002-.041-.16-.124-.32-.29-.44-.124-.12-.29-.16-.455-.2zm0 0c.372.04.704.28.828.6.124.321.166.681.124 1.042-.041.36-.165.72-.331 1.041-.083.16-.207.32-.373.44s-.373.241-.621.241c-.249-.04-.456-.201-.58-.361s-.166-.36-.249-.52c-.083-.361-.083-.721-.041-1.082.041-.36.166-.721.331-1.001.166-.28.539-.48.912-.4z"/><path d="m222.024 122.472425c.042-.64.083-1.281.249-1.922.083-.32.166-.641.331-.961.083-.16.166-.32.29-.44.125-.121.332-.281.539-.281.207-.04.456.04.621.2.166.161.249.321.29.521.083.36.083.681.042 1.041-.083.641-.29 1.282-.497 1.882.041-.64.124-1.281.165-1.922 0-.32 0-.641-.083-.881-.082-.28-.248-.44-.497-.4-.207 0-.414.24-.538.52-.166.281-.249.561-.373.841-.166.561-.331 1.202-.539 1.802z"/><path d="m226.498 119.109425c-.083-.12-.207-.24-.331-.28s-.249-.04-.373.04c-.207.16-.331.4-.373.681-.041.12-.041.28 0 .32 0 0 .042.04.083.04s.124.04.207.04c.29.04.704.08.953.401.249.32.207.681.166 1.001-.083.32-.166.641-.456.881-.166.12-.331.16-.497.16s-.332 0-.497 0c-.166-.04-.332-.08-.456-.16-.083-.04-.124-.12-.166-.2-.041-.08 0-.161 0-.241 0 .161.083.281.208.321.124.04.29.08.414.04.29 0 .621-.08.745-.2.166-.161.249-.441.29-.721.042-.241 0-.561-.124-.721s-.373-.24-.663-.28c-.083 0-.165-.04-.248-.081-.083-.04-.207-.12-.29-.24-.083-.24 0-.4.041-.56.083-.321.29-.601.58-.761.166-.08.373-.08.497.04.166.2.249.32.29.48z"/><path d="m217.592 120.791425c-.166-.12-.373-.28-.58-.28s-.331.16-.497.32c-.29.32-.497.721-.539 1.121-.041.401-.041.841.125 1.202.083.16.207.36.331.48.124.121.29.201.373.121.124-.041.29-.241.373-.401.124-.16.207-.36.248-.561.125-.4.125-.841.207-1.281.042-.441.125-.881.208-1.322.082-.44.207-.881.331-1.281-.124.881-.207 1.762-.207 2.643 0 .44-.042.881-.124 1.362-.042.24-.166.44-.29.64-.125.201-.249.401-.539.561-.166.08-.331.08-.497 0-.166-.04-.249-.16-.331-.24-.166-.201-.29-.401-.415-.601-.165-.441-.207-.961-.082-1.402.124-.44.372-.881.704-1.201.165-.12.373-.321.662-.28.208.04.373.24.539.4z"/><path d="m44.9612 74.2634249 20.2949 51.9360001 14.2439 38.285h8.109l-19.5536-90.2210001z"/></g><path d="m39.939 74.2634249c-.2059 17.83-.0412 41.8270001-.5764 42.9420001-.3293.756-10.9913 9.193-31.986 25.311l4.1578 6.845c24.9055-15.521 37.9963-24.316 39.2724-26.386 1.8937-3.104 11.5265-31.6780001 16.5076-48.7120001z" fill="#c4e8f8"/><path d="m0 147.088425 7.0169-5.17 5.6988 6.563c.4426 4.948 2.173 10.515 5.1382 16.642l-1.2876 1.044-10.3374-11.905-2.8658-4.595-.6595.535z" fill="#073099"/><path d="m78.7587 171.807425.4113-8.556h8.851c4.199 2.865 9.715 5.173 16.466 6.924v1.632h-16.054l-5.475-.836v.836z" fill="#073099"/><path d="m55.9115 14.8862249c-1.9348-2.1889-3.2522-4.89510002-3.0463-7.95950002.6175-8.7555 13.2143-6.8054 15.6431-2.3879s2.1406 15.60060002-.988 16.39660002c-1.2761.3184-3.9519-.4378-6.6689-2.0297l1.729 11.7403h-10.168z" fill="#ffcaa7"/><path d="m61.3454 7.88182488c.3704 5.21350002 1.3996 7.84010002 3.0874 7.84010002 2.5111 0 4.6106-1.5521 5.7221-1.5521.7822 0 .6175.9552.0823 1.6715-.4528.597-2.5523 1.1542-2.5523 2.0695s1.6878.199 1.6878.7561c0 .9154.2882 2.5869-1.3173 2.5869-1.6466 0-6.2984-.5572-7.1217-2.9052-.5352-1.5123-.8645-4.6563-.988-9.39220002-.0823 0-.2058 0-.2882 0-1.3996 0-2.5523 1.11430002-2.5523 2.46740002 0 .6766.2882 1.3133.7822 1.7511-.5763.7959-1.235 1.6317-1.976 2.5072-2.8404-1.6317-5.3516-6.44720002-2.5934-11.06370002.7821-2.2684 2.9228-3.4624 4.9811-4.0195 1.6466-.6766 3.3756-.7562 4.8164-.3582 2.8405.2388 5.3928 1.0745 6.0926 1.5919 0 2.5868-.5352 3.3828-4.9811 3.3032-1.1527.5174-1.976 1.4725-2.8816 2.746z" fill="#073099"/><path d="m51.342 22.3685249c.0823-.3184.2058-.6368.2882-.9154l.3705.1592c.0411-.0398.1235-.1194.1646-.1592l11.8147 1.7511c0 6.4074 2.717 11.8995 6.0926 17.0731 5.1869 8.0391 6.2161 16.9141.2881 28.8531-5.3515 10.785-8.4802 13.133-30.998 5.85 0-5.81.2881-10.188 2.2641-17.55.1647-6.726 4.2813-28.177 9.7152-35.0619z" fill="#073099"/><path d="m58.2579 60.3754249c-.0824.238-.1235.477-.2059.716-13.5024-8.954-13.5024-19.819-9.5093-31.9972-3.0052 11.9792-1.7702 22.0872 9.7152 31.2812z" fill="#073099"/><path d="m78.6762 39.8391249c-4.7752-1.0348-11.0736-.199-15.1491 1.6313-1.2761.597-2.47 1.433-3.2109 2.547-.4529.677-.8645 1.592-.8234 2.428.1235 1.91 3.5815 1.831 4.9811 1.99 3.9932.477 8.1921.358 12.144-.279 2.0995-.358 4.6111-.796 6.3811-1.99 1.07-.716 2.428-1.91 1.976-3.343-.33-1.074-1.606-1.671-2.594-2.0292-.947-.3184-2.676-.7164-3.7048-.9551z" fill="#ce3a5e"/><path d="m62.004 37.9687249c.0412.0398.0824.0398.1235.0398.0412 0 .0824 0 .1235.0796 0 .0796-.0411.0796-.0823.0796-.247.0796-.247.1194-.1235.3582.1235.199.3293.3582.5763.4776.3293.1592.6998.3184 1.0292.5173.247.1592.4528.2786.6586.4776.4528.3582.8233.7562 1.0292 1.274.1235.278.2058.597.247.915.0823.477.1235.915.1235 1.393 0 .239 0 .477.0411.716 0 .279.1235.518.247.756.0824.239.2059.438.2882.677.0823.199.2058.398.2882.597.1235.239.2058.477.3293.716.1647.319.3293.637.4528.995.1235.239.247.478.3705.716.1235.279.247.518.3705.796.0823.239.2058.438.2882.677.1235.318.2881.637.4116.955.1647.438.3294.915.4529 1.353.0411.239.1235.438.1646.677.0412.199.0823.398.1235.557.0412.239.0412.517.0412.756 0 .398-.0824.756-.3293 1.075-.3705.437-1.1115.676-1.6467.398-.1235-.08-.1235-.08-.2058.079-.2059.478-.6175.756-1.1527.796-.2881.04-.5763 0-.8645-.159-.0411-.04-.0823 0-.1235.04-.2058.318-.5351.517-.9468.557-.5351.08-.9056-.119-1.2761-.438-.2059-.159-.3294-.358-.494-.597-.247-.358-.4117-.756-.5763-1.154-.1647-.358-.2882-.716-.3705-1.074-.1235-.438-.247-.836-.3294-1.274-.0823-.318-.1646-.677-.2058-.995-.0823-.358-.1235-.676-.2058-1.035-.0824-.318-.1235-.636-.2059-.955-.0823-.398-.1646-.796-.2058-1.234-.0412-.278-.0823-.517-.1647-.795-.0411-.199-.0823-.359-.0823-.558-.0412-.159-.0823-.358-.0823-.517-.0412-.279-.1235-.557-.2882-.756-.0823-.159-.2058-.319-.2881-.438-.247-.358-.494-.676-.6587-1.074-.1647-.279-.2882-.558-.3705-.876-.1235-.358-.1235-.756-.0823-1.114.0411-.518.2058-1.035.4116-1.513.1235-.318.2882-.5966.4529-.8752.1235-.199.2058-.4378.247-.6765 0-.1194-.0412-.2388-.0824-.3582 0-.0398-.0411-.0398-.0823-.0398s-.1235.0398-.1647.0398c-.0411 0-.0823 0-.1235-.0398 0-.0398 0-.0796 0-.1194.0412-.0398.1235-.0398.1235-.1194h.0412c.6175-.199 1.2761-.398 1.8936-.597.247 0 .5764-.0796.8645-.1592z" fill="#c4e8f8"/><path d="m62.0041 37.9688249c-.2882.0796-.5764.1592-.9057.2785-.6175.199-1.2761.398-1.8936.597h-.0412c-.0823.0398-.1235 0-.1647-.0796 0-.1194-.0411-.199-.0823-.2786.0412-.0398.1235-.0398.1647-.1194-.0824.0398-.1235.0398-.1647.0398-.1235-.4775-.2882-.9153-.4117-1.3531-.0411-.1592 0-.2786.2059-.3582.7821-.2387 1.6054-.4775 2.3876-.7163.1647-.0398.3293.0398.3705.199.1235.3979.247.7959.3705 1.1939 0 .0398.0823.1194.0823.1592-.1646.0398-.3705.1194-.5351.1592v.0398c.2058-.0398.3705-.1194.5351-.1592 0 .0398.0412.1194.0824.1592.0411.0796.0411.1194.0823.199 0 0-.0412 0-.0823.0398zm-1.482-.0398c-.2059.0398-.4117.1194-.6587.1592.247-.0398.4528-.1194.6587-.1592zm.0823-.0398c.2058-.0398.4117-.1194.6587-.199-.247.0398-.4529.1194-.6587.199zm-1.4408.4377c.2058-.0398.4117-.1194.6175-.1592-.2058.0398-.4117.0796-.6175.1592z" fill="#ce3a5e"/><path d="m62.0041 53.7684249c-.1647-.597-.3293-1.194-.4528-1.791-.2058-1.034-.4117-2.069-.6175-3.104-.1647-.875-.1647-1.87-.5352-2.706-.2058-.478-.5763-.915-.8645-1.353-.3704-.597-.6174-1.274-.6586-1.99-.0412-.517 0-1.672.5351-1.91.2059.358.0824.875.0412 1.313-.0412.995.494 1.91 1.0292 2.746.5763.836.8233 1.592 1.0291 2.547.1647.756.3293 1.552.494 2.308.3705 1.831.741 3.662 1.235 5.492.0412.08.0412.16 0 .239-.0823.199-.4117.08-.494-.04-.3293-.557-.5352-1.154-.741-1.751z" fill="#fff"/><path d="m81.27 33.8296249c0 .0398.082.0398.123.0796.042.0398.083.0398.083.0796 0 .0796-.041.0796-.124.0796-.247.0398-.288.0796-.206.3183.083.2388.247.4378.453.597.288.2388.577.4776.865.7164.206.199.37.3979.535.5969.37.4378.617.9154.741 1.4725.082.3184.041.6368.041.9552 0 .4775-.082.9153-.206 1.3929-.041.2388-.082.4378-.123.6765-.042.2783 0 .5573.041.7963.041.238.082.477.164.716.042.199.124.438.165.637.041.239.124.517.165.756.082.358.164.716.247 1.074.041.279.123.518.164.796.083.279.124.597.165.876.041.239.082.478.124.716.041.319.123.677.164.995.083.478.124.955.124 1.433v.677c0 .199-.041.398-.041.597 0 .238-.083.517-.124.756-.082.358-.247.716-.576.995-.453.358-1.235.398-1.729.039-.124-.119-.124-.079-.206.04-.329.438-.741.597-1.276.557-.288-.039-.576-.159-.782-.358-.041-.04-.083-.04-.124 0-.288.279-.658.358-1.029.358-.5351 0-.8644-.318-1.1526-.716-.1235-.199-.247-.438-.3293-.677-.1647-.398-.247-.835-.2882-1.233-.0823-.358-.1235-.756-.1235-1.115 0-.437-.0412-.875-.0412-1.313 0-.358 0-.676 0-1.035 0-.358.0412-.716.0412-1.034 0-.319 0-.637.0412-.956.0412-.398.0412-.835.0823-1.233.0412-.279.0412-.518.0412-.796 0-.199 0-.358.0411-.557 0-.16 0-.359 0-.518 0-.278 0-.557-.1235-.835-.0823-.16-.1234-.319-.2058-.5179-.1646-.3979-.2881-.7959-.4116-1.1939-.0824-.3184-.1235-.6367-.1647-.9551-.0412-.398.0412-.7562.1647-1.1143.1646-.5174.4116-.9552.7409-1.393.2059-.2785.4117-.5173.6587-.7561.1647-.1592.3293-.3582.4117-.597.0411-.1194 0-.2388 0-.3582 0-.0398-.0412-.0397-.0824-.0397-.0411 0-.1235 0-.1646 0-.0412 0-.0824 0-.0824-.0398s0-.0796.0412-.1194.1235-.0398.1647-.0796h.0411c.6588-.0398 1.3178-.1194 2.0168-.1592.247-.0398.536-.0398.865-.0796z" fill="#7cc1ef"/><path d="m81.27 33.8295249c-.329.0398-.618.0398-.947.0796-.659.0398-1.317.1194-2.0171.1592h-.0412c-.1235.0398-.1235-.0398-.1235-.1194 0-.1194 0-.199 0-.3184.0412-.0398.1235 0 .1647-.0796-.0823 0-.1235 0-.2058 0 0-.4776-.0824-.9551-.1235-1.3929 0-.1592.0823-.2786.247-.3184.8234-.0796 1.6874-.1194 2.5114-.199.164 0 .288.0796.329.2388.041.398.082.8358.082 1.2337 0 .0796.042.1194.042.1592-.206 0-.371.0398-.577.0398v.0398c.206 0 .371-.0398.577-.0398 0 .0398 0 .1194.041.1592 0 .0796 0 .1194.041.199.082.1194.041.1592 0 .1592zm-1.441-.3582c-.206 0-.453 0-.659.0398.206 0 .453 0 .659-.0398zm.082 0c.206 0 .453-.0398.659-.0398-.206 0-.412 0-.659.0398zm-1.4816.1194c.2058 0 .4528-.0398.6586-.0398-.2469 0-.4528 0-.6586.0398z" fill="#ce3a5e"/><path d="m77.6883 49.2704249c-.0411-.597-.0411-1.233-.0411-1.83 0-1.035.0411-2.109.1235-3.144.0411-.916.2881-1.871.0823-2.746-.1235-.518-.3705-.9952-.5352-1.5126-.2058-.6765-.3293-1.3929-.2058-2.0694.0824-.4776.3705-1.6317.9468-1.7511.1235.398-.1235.8755-.247 1.2735-.247.9551.0412 1.9501.3705 2.8654.3705.9552.4529 1.7112.4117 2.7062-.0412.796-.0412 1.592-.0823 2.348-.0412 1.871-.1235 3.741-.0824 5.612 0 .079 0 .159-.0411.238-.1235.199-.4117 0-.4529-.159-.1235-.597-.2058-1.234-.247-1.831z" fill="#fff"/><path d="m69.1258 36.4966249c0 .0398.0823.0398.1235.0796s.0823.0398.0823.0796c0 .0796-.0411.0796-.1234.0796-.247.0397-.2882.0796-.2059.3183.0824.2388.247.4378.4528.597.2882.2388.5764.4776.8645.7164.2059.1989.3705.3979.5352.5969.3705.4378.6175.9154.741 1.4725.0823.3184.0411.6369.0411.9549 0 .478-.0823.916-.2058 1.393-.0411.239-.0823.438-.1235.677-.0411.278 0 .557.0412.796.0412.238.0823.477.1646.716.0412.199.1236.438.1647.637.0412.239.1235.517.1647.756.0823.358.1646.716.247 1.074.0411.279.1235.518.1646.796.0824.279.1235.597.1647.876.0412.239.0823.478.1235.716.0412.319.1235.677.1647.995.0823.478.1235.955.1235 1.433v.677c0 .199-.0412.398-.0412.597 0 .238-.0823.517-.1235.756-.0823.358-.247.716-.5763.995-.4528.358-1.235.398-1.729.039-.1235-.119-.1235-.079-.2058.04-.3294.438-.741.597-1.2762.557-.2881-.039-.5763-.159-.7821-.358-.0412-.04-.0824-.04-.1235 0-.2882.279-.6587.358-1.0292.358-.5351 0-.8645-.318-1.1526-.716-.1235-.199-.247-.438-.3294-.677-.1646-.398-.247-.835-.2881-1.233-.0824-.358-.1235-.756-.1235-1.115 0-.437-.0412-.875-.0412-1.313 0-.358 0-.676 0-1.035 0-.358.0412-.716.0412-1.034 0-.319 0-.637.0411-.956.0412-.398.0412-.835.0824-1.233.0411-.279.0411-.518.0411-.796 0-.199 0-.358.0412-.557 0-.16 0-.359 0-.518 0-.278 0-.557-.1235-.835-.0823-.16-.1235-.319-.2058-.518-.1647-.398-.2882-.796-.4117-1.194-.0823-.318-.1235-.637-.1646-.955-.0412-.398.0411-.7561.1646-1.1143.1647-.5173.4117-.9551.741-1.3929.2058-.2786.4117-.5173.6587-.7561.1646-.1592.3293-.3582.4116-.597.0412-.1194 0-.2388 0-.3582 0-.0398-.0411-.0398-.0823-.0398s-.1235 0-.1647 0c-.0411 0-.0823 0-.0823-.0398s0-.0796.0412-.1193c.0411-.0398.1235-.0399.1646-.0796h.0412c.6586-.0398 1.3173-.1194 2.0171-.1592.247-.0398.5764-.0398.8645-.0796z" fill="#7cc1ef"/><path d="m69.1258 36.4965249c-.3293.0398-.6175.0398-.9468.0796-.6587.0398-1.3173.1194-2.0172.1591h-.0411c-.1235.0398-.1235-.0397-.1235-.1193 0-.1194 0-.199 0-.3184.0412-.0398.1235 0 .1646-.0796-.0823 0-.1234 0-.2058 0 0-.4776-.0823-.9552-.1235-1.3929 0-.1592.0824-.2786.247-.3184.8233-.0796 1.6878-.1194 2.5112-.199.1646 0 .2881.0796.3293.2388.0411.398.0823.8357.0823 1.2337 0 .0796.0412.1194.0412.1592-.2059 0-.3705.0398-.5763.0398v.0398c.2058 0 .3704-.0398.5763-.0398 0 .0398 0 .1194.0411.1592 0 .0796 0 .1194.0412.199.0823.1592.0412.1592 0 .1592zm-1.4408-.3184c0-.0398 0-.0398 0 0-.2058 0-.4528 0-.6587.0398.247-.0398.4529-.0398.6587-.0398zm.1235-.0398c.2058 0 .4528-.0398.6587-.0398-.247 0-.4529.0398-.6587.0398zm-1.5232.1194c.2059 0 .4529-.0398.6587-.0398-.2058 0-.4528.0398-.6587.0398z" fill="#ce3a5e"/><path d="m65.5443 51.9374249c-.0412-.597-.0412-1.233-.0412-1.83 0-1.035.0412-2.11.1235-3.144.0412-.916.2882-1.871.0824-2.746-.1235-.518-.3705-.995-.5352-1.513-.2058-.676-.3293-1.392-.2058-2.069.0823-.4776.3705-1.6317.9468-1.7511.1235.3979-.1235.8755-.247 1.2735-.247.9556.0412 1.9496.3705 2.8656.3705.955.4528 1.711.4116 2.706-.0411.796-.0411 1.592-.0823 2.348-.0411 1.871-.1235 3.741-.0823 5.612 0 .079 0 .159-.0412.238-.1235.199-.4116 0-.4528-.159-.1235-.597-.2058-1.194-.247-1.831z" fill="#fff"/><path d="m72.9955 32.7153249c.0411.0398.0823.0398.1235.0398.0411 0 .0823 0 .1235.0796 0 .0796-.0412.0796-.0824.0796-.247.0796-.2881.1194-.1235.3582.1235.2388.3294.3582.5764.4776.3293.1591.6586.3183.9879.5571.247.1592.4529.3184.6587.4776.4528.3582.7822.7959 1.0292 1.3133.1235.3184.1646.6368.247.9154.0823.4775.0823.9153.0823 1.3929v.7163c0 .2786.1235.5174.2058.796.0824.2387.2059.4377.2882.6765.0823.199.2058.3982.2881.5972.1235.239.2059.477.3294.716.1646.319.2881.677.4528.995.1235.239.2058.478.3293.756.1235.279.247.557.3705.796.0824.239.2058.438.2878.677.124.318.247.636.371.955.165.438.329.915.412 1.393.041.239.123.438.164.676.041.199.041.398.083.558.041.238.041.517 0 .756-.042.398-.124.756-.371 1.074-.37.438-1.1114.637-1.6878.358-.1235-.079-.1235-.079-.2058.08-.247.478-.6175.716-1.1526.796-.2882.04-.5764-.04-.8234-.199-.0411-.04-.0823 0-.1235.04-.2058.318-.5351.477-.9468.557-.5351.079-.9056-.119-1.2761-.478-.1647-.159-.3294-.398-.4529-.597-.2058-.358-.4116-.756-.5351-1.154-.1235-.358-.2882-.716-.3705-1.074-.1235-.438-.2058-.836-.2882-1.274-.0823-.318-.1235-.676-.2058-.995-.0823-.358-.1235-.676-.1647-1.034-.0411-.319-.1235-.637-.1646-.956-.0824-.398-.1235-.796-.2059-1.233-.0411-.279-.0823-.518-.1235-.796-.0411-.199-.0411-.358-.0823-.557-.0412-.16-.0412-.359-.0823-.518-.0412-.278-.1235-.557-.2882-.7958-.0823-.1592-.2058-.3184-.2882-.4377-.247-.3582-.4528-.7164-.6586-1.0746-.1235-.2786-.247-.597-.3705-.8755-.1235-.3582-.1235-.7562-.0823-1.1144.0411-.5173.2058-1.0347.4528-1.5123.1235-.3183.2881-.5969.494-.8755.1235-.199.247-.4378.247-.6766 0-.1194-.0412-.2388-.0824-.3581 0-.0398-.0411-.0398-.0823-.0398s-.1235.0398-.1647.0398c-.0411 0-.0823-.0001-.1235-.0398 0-.0398 0-.0796.0412-.1194s.1235-.0398.1235-.1194h.0412c.6586-.199 1.2761-.3582 1.9348-.5572.247-.0796.5351-.1592.8645-.2388z" fill="#c4e8f8"/><path d="m72.9954 32.7156249c-.2882.0796-.6175.1592-.9057.2388-.6587.199-1.2761.3582-1.9348.5571h-.0412c-.0823.0398-.1235 0-.1646-.0796 0-.1193-.0412-.1989-.0824-.2785.0412-.0398.1235-.0398.1647-.1194-.0823.0398-.1235.0398-.1647.0398-.0823-.4776-.247-.9154-.4116-1.3531-.0412-.1592.0411-.2786.2058-.3582.8233-.2388 1.6055-.4378 2.4288-.6766.1647-.0398.3293.0398.3705.199.1235.398.247.796.3705 1.1939 0 .0398.0823.1194.0823.1592-.1646.0398-.3705.1194-.5351.1592v.0398c.2058-.0398.3705-.1194.5351-.1592 0 .0398.0412.1194.0824.1592.0411.0796.0411.1194.0823.199 0 .0398-.0412.0398-.0823.0796zm-1.482-.0796c-.2059.0398-.4528.1194-.6587.1592.247-.0398.4528-.0796.6587-.1592zm.0823-.0398c.2058-.0398.4117-.1194.6587-.1592-.247.0398-.4529.1194-.6587.1592zm-1.4408.4378c.2058-.0398.4117-.1194.6175-.1592-.2058.0398-.4117.0796-.6175.1592z" fill="#ce3a5e"/><path d="m72.6661 48.5154249c-.1646-.597-.2881-1.194-.4116-1.791-.2058-1.035-.3705-2.07-.5352-3.104-.1235-.876-.1235-1.911-.494-2.707-.2058-.4773-.5351-.9151-.8233-1.3926-.3705-.597-.6175-1.3134-.6175-1.9899-.0412-.5174.0412-1.6715.5763-1.9103.2059.3582.0412.9153.0412 1.3133-.0412.995.4528 1.9103.988 2.7461.5351.8357.7821 1.5914.988 2.5864.1235.757.2881 1.552.4116 2.309.3294 1.83.6587 3.701 1.1115 5.492 0 .079.0412.159 0 .238-.0823.199-.4116.08-.494-.079-.3293-.517-.5351-1.114-.741-1.711z" fill="#fff"/><path d="m84.892 42.8244249c.165-1.314.783 2.984 1.359 4.417.947 2.507 1.4 5.572 2.635 8.079 3.005 5.97 4.569 15.163-2.882 18.705-3.705 1.751-15.1904 1.95-19.0189.398-5.475-2.189-4.8164-8.795-5.5162-13.571-.6998-4.895-1.9348-9.552-1.976-14.486 0 0 4.94 1.114 8.7684 1.074 3.7873-.04 8.1509-.796 10.3739-1.393 2.2228-.597 6.1338-2.189 6.2568-3.223z" fill="#f24c64"/><path d="m58.4637 61.0914249c-.3705-4.299.7821-6.328 1.6055-7.482 6.2984 6.885 23.0938 16.237 24.0818 16.317 1.853.159 6.175.159 6.546.597.658 1.83-1.153 6.447-4.611 7.123-1.646.319-5.228-2.348-6.298-3.502-.412-.438-17.6194-10.506-21.3243-13.053zm28.1163-13.173c1.647 0 2.511.636 3.458 1.95.947 1.313 1.894 7.521.329 7.521-1.564 0-8.027-2.387-8.027-4.019s4.446-2.308 4.446-3.502-1.852-1.95-.206-1.95z" fill="#ffcaa7"/><path d="m69.7432 9.67282488c.0823.43780002.494.95520002.741 1.31340002.2881.4775.494.9551.7821 1.4327.247.4378.9057 1.1143.3705 1.5123-.4116.3184-2.0171.4775-2.4699.3184" fill="#ffcaa7"/><path d="m69.2904 8.16062488c-.2882-.0398-.494-.0796-.6587-.0796-.1646 0-.3293 0-.494.0398-.1646.0398-.3704.0398-.5763.0796-.2058 0-.4528.0398-.741-.0398.1235-.2387.3294-.3979.494-.5571.2059-.1194.4529-.2388.741-.2786.2882-.0398.5763 0 .8233.1592.2059.199.3705.4378.4117.6765z" fill="#073099"/><path d="m68.7141 9.67292488c.25 0 .4528-.196.4528-.4378 0-.2417-.2028-.4377-.4528-.4377-.2501 0-.4529.196-.4529.4377 0 .2418.2028.4378.4529.4378z" fill="#073099"/></g></svg>