<svg height="320" viewBox="0 0 248 320" width="248" xmlns="http://www.w3.org/2000/svg"><g fill="none" transform="translate(8 29)"><path d="m90.6388825 128h-.6388825v59h42.280288.719712v-59z" fill="#ffd5d0"/><path d="m90 128 5.0357667-5h32.9295743l5.034659 5z" fill="#f9e8e8"/><path d="m114.017175 124.888748c6.320625-3.754083 10.982825-17.048019 10.982825-23.226007 0-6.1006657-4.503473-11.1838063-10.588744-12.7470738v-7.2728356h2.449872v-1.6428316h-12.721161v1.6428316h2.448777v7.2728356c-6.084177 1.5632675-10.588744 6.7248516-10.588744 12.7470738 0 6.255311 4.742111 19.471924 11.141552 23.226007-3.160312.155767-5.372641.546864-5.372641 1.016404 0 .625307 3.950665 1.094848 8.770497 1.094848 4.820927 0 8.771592-.469541 8.771592-1.094848 0-.46954-2.212329-.860637-5.293825-1.016404z" fill="#9e180a"/><path d="m110.999443 107c4.970623 0 9.000557-3.35846 9.000557-7.5005597 0-4.1421002-4.029934-7.4994403-9.000557-7.4994403-4.970622 0-8.999443 3.3573401-8.999443 7.4994403 0 4.1420997 4.028821 7.5005597 8.999443 7.5005597z" fill="#e05a3e"/><g fill="#c54126" transform="translate(65 128)"><path d="m77.8147202 16.9763887c-2.6499339 1.3234731-5.4611778 2.5699483-8.351408 3.5039677-14.937306 5.1398965-31.8815309 5.1398965-46.8176132.1562278-3.0515402-1.0121333-6.0227591-2.2586084-8.8334468-3.6601955l-2.1681177 2.3367224c2.8908977 1.479701 5.9424379 2.7250602 9.0742994 3.8153075 7.789938 2.6480622 16.3015436 4.0496493 25.0545579 4.0496493 8.9143244 0 17.5060287-1.4015871 25.456943-4.2047613 2.9714414-1.0132492 5.8616716-2.2586084 8.6729156-3.6601955z"/><path d="m20.9592864 61.6765269c-.8833113-.8570214-2.8106877-1.402703-5.0591266-1.402703h-2.4894026v-41.8177342-1.479701h-2.6501565-2.73025516v1.479701 41.8177342h-2.48940267c-2.24855015 0-4.17581528.6237955-5.05912659 1.402703-.32117377.3113398-.48181628.6226796-.48181628 1.0121333v.3113398h21.3607814v-.3113398c0-.3894537-.1605312-.7007935-.401495-1.0121333z"/><path d="m15.0168485 16.1974812h-2.6500452v-8.41063835h-3.29250394v8.41063835h-2.56972392c-.40149503 0-.7226688.3113398-.7226688.7007936 0 .3894537.32117377.7007935.7226688.7007935h2.56972392v1.0121333h3.29250394v-1.0121333h2.6500452c.401495 0 .7226688-.3113398.7226688-.7007935 0-.3894538-.3211738-.7007936-.7226688-.7007936z"/><path d="m12.8487309.77890747c-.6424588-.23434179-1.3652389-.38945374-2.1683402-.38945374-2.24843888 0-4.09549401 1.24535922-4.81816281 2.95940202-.16064251.46645175-.32128502.93401941-.32128502 1.479701 0 2.41372042 2.24855015 4.36098909 5.05923783 4.36098909 2.8105765 0 5.0591266-1.94726867 5.0591266-4.36098909.0803213-1.79104081-1.0439538-3.34885574-2.8105764-4.04964928z"/><path d="m90.5826848 61.2859572c-.8833113-.8559055-2.8101314-1.4015871-5.0595716-1.4015871h-2.4886239v-41.8177341-1.479701h-2.6499339-2.7311452v1.479701 41.8177341h-2.4886239c-2.2494401 0-4.1762603.6237956-5.0595716 1.4015871-.3215075.3124557-.481705.6237955-.481705 1.0132493v.3113398h21.3607814v-.3113398c.0800988-.3894538-.1601975-.7007936-.4016063-1.0132493z"/><path d="m84.6398019 15.8080275h-2.6499339v-8.41063838h-3.2918365v8.41063838h-2.5698351c-.4016063 0-.7231138.3113398-.7231138.7007935 0 .3894538.3215075.7007936.7231138.7007936h2.5698351v1.0121333h3.2918365v-1.0121333h2.6499339c.4016063 0 .7231138-.3113398.7231138-.7007936 0-.3894537-.3215075-.7007935-.7231138-.7007935z"/><path d="m82.471573.38945373c-.6419025-.23434178-1.3650163-.38945373-2.1682289-.38945373-2.2483276 0-4.095049 1.24535922-4.8181628 2.95940201-.1601975.46645175-.320395.93401942-.320395 1.4785851 0 2.41483633 2.2483276 4.36098908 5.0584591 4.36098908 2.8112439 0 5.0595716-1.94615275 5.0595716-4.36098908.1601975-1.79104082-1.0446213-3.34773984-2.811244-4.04853338z"/></g><path d="m202 96-14.448403 46.812852-6.776364 35.187148h-6.775233l6.775233-82z" fill="#cb7a43"/><path d="m207.467454 96c-.953034 24.420819-.555753 37.713178-.397281 39.954596.158472 2.24031 1.429552 17.078627 9.929827 43.045404h-6.911151c-11.200906-24.962348-15.09338-39.799557-16.443696-43.045404-1.27108-3.245847-5.084318-16.615726-10.645153-39.954596z" fill="#cb7a43"/><path d="m202 96c-3.691638 16.060938-10.033026 41.727604-19.103113 77h-9.791735c-.722761-36.194096 2.327288-60.017362 7.704625-77z" fill="#f2b3a7"/><path d="m207.813953 96c-.949978 24.476769 1.505047 48.566163 9.186047 78h-10.293989c-11.164984-24.631053-19.241992-48.64386-24.706011-78z" fill="#ffd5d0"/><path d="m219 184.891033-.397785-6.098752c-2.228038.633372-5.011432.396141-8.352387-.792281-3.578965 2.53462-8.113275 4.276958-13.600727 5.22815-.397785.079455-.716234.474461-.636897.870601v.079456l.55756 1.821793h13.680064 7.954602z" fill="#9e180a"/><path d="m182 184.891033-.397804-6.098752c-2.227039.633372-5.010563.396141-8.351673-.792281-3.580233 2.53462-8.113652 4.276958-13.60246 5.22815-.397804.079455-.715165.474461-.635825.870601v.079456l.556484 1.821793h13.681801 7.95387z" fill="#9e180a"/><path d="m196.907915 50.211214c1.744309-2.0678549 2.932812-4.6123374 2.774638-7.4749514-.554708-8.1900636-11.972904-6.3612631-14.192834-2.2264649-2.21993 4.1347983-1.982669 14.6306318.872155 15.3461999 1.110514.3179036 3.567706-.3976644 6.025995-1.9085613l-1.586135 11.0525637h9.198266z" fill="#cb7a43"/><path d="m192.046595 43.9666855c-.303538 4.6920394-1.213102 6.9623636-2.654121 6.9623636-2.122667 0-4.017418-1.3620861-4.928032-1.3620861-.681648 0-.530404.8328679-.075622 1.513911.37916.5292181 2.199339 1.0595207 2.199339 1.8913042 0 .8328679-1.441019.1518248-1.441019.681043 0 .8328679-.226866 2.3467788 1.137481 2.3467788 1.439968 0 5.458436-.5303026 6.141134-2.5734317.454783-1.362086.758321-4.1623874.833943-8.400362h.226866c1.213102 0 2.199339.9838252 2.199339 2.1946286 0 .6054559-.227916 1.1352163-.682698 1.5892811.530404.6809346 1.061858 1.4378901 1.743506 2.1948455 2.426205-1.4379985 4.625545-5.751777 2.199339-9.8383605-.682698-2.043346-2.501827-3.1028667-4.322006-3.6326271-1.439968-.6054559-2.880987-.681043-4.169711-.3026737-2.426206.2269782-4.624494.9838252-5.307193 1.43789 0 2.3460197.454782 3.0271712 4.322006 2.9514756 1.13643.3783693 1.819129 1.2108034 2.577449 2.3460197z" fill="#9e180a"/><path d="m184.624805 45c.375195 1.3571136-2.745663 2.3571136-2.621175 3.642784.999367.1428864 1.997004.2855681 2.99637.357216" fill="#cb7a43"/><path d="m184 43.4132387c.451114-.3912053 1.082174-.4564218 1.713233-.3912053.271169.065123.63231.1303395.902228.3259888.271168.1303395.451114.3912054.361141.6519778-.271168-.1303395-.541086-.195556-.722282-.195556-.179946-.0652164-.449864-.0652164-.63106-.1304329-.541086-.1304329-.9922-.1304329-1.62326-.2607724z" fill="#9e180a"/><path d="m185.5005 44.9187c.239 0 .433-.1875.433-.4187 0-.2313-.194-.4187-.433-.4187-.24 0-.434.1874-.434.4187 0 .2312.194.4187.434.4187z" fill="#9e180a"/><path d="m173.893628 94.9806998-11.401639 6.4410922c-2.89101 4.294061-4.496138 6.13453-5.05899 5.597223-.721918-.84277.48165-1.916286 0-2.606324-.48165-.690039-2.729719-.306562-4.817609.152731-2.16798.460392-1.686331-.536208-1.204681-1.073515 2.007801-1.532808 4.65743-2.9898 7.868799-4.2940611l10.921101-10.1978459zm49.943626 19.0167132c.561739 1.073516 4.656317 4.370977 7.467239 6.210347 1.123478.766953.641828 1.687737.240268 1.994299-3.532839 2.070115-5.780909-.383477-8.832098-1.763554-3.291459-1.456992-3.05119 2.683239-5.70082 1.532809.803121-1.763554 2.72972-4.9841 1.84651-7.054216-.40156-.919685-3.131279-9.12433-8.109068-24.4601059h8.109068c2.56954 14.1853449 4.25587 22.0834289 4.978901 23.5404209z" fill="#cb7a43"/><path d="m194.975055 55.5481099-3.312478-.5481099c-5.680719 14.002022-15.541651 26.752022-29.662577 38.1715385l10.649982 12.8284615c14.199612-16.348022 22.878063-33.1656923 22.325073-50.4518901z" fill="#9e180a"/><path d="m210 97h-29c6.721546-16.3696753 10.08286-30.2331123 10.08286-41.6688766l8.755228-1.3311234c6.878566 11.0429369 8.755228 24.6718 10.161912 43z" fill="#fff"/><path d="m200.013492 56h-.565007c-.726118 0-1.776696.0765074-3.230051.1519218l-2.180591 5.8735807c-.242786 7.1698342-1.615585 21.6614245-4.037843 43.3982635h19.624206c-.080555 1.525776-.161111 3.051551-.241666 4.576234h14.61746c-2.261147-23.2626146-10.175721-41.2626146-23.986508-54z" fill="#9e180a"/><path d="m18 30h-18v10h18z" fill="#fff"/><g fill="#0981d3"><path d="m9 32.2801h-8v.4398h8z"/><path d="m10 34.2801h-9v.4398h9z"/><path d="m4 36.28015h-3v.4397h3z"/><path d="m6 37.28015h-5v.4397h5z"/><path d="m90 0h-65v65h65z"/></g><path d="m87 3h-59v59h59z" fill="#fff"/><path d="m83 6h-53v53h53z" fill="#1898fc"/><path d="m58.0000682 34c1.1044786 0 1.9999318-.8954226 1.9999318-2s-.8954532-2-1.9999318-2c-1.104615 0-2.0000682.8954226-2.0000682 2s.8954532 2 2.0000682 2z" fill="#0981d3"/><path d="m61.4999456 34c-3.0289287 0-5.4999456-2.4710169-5.4999456-5.4999456 0-3.0290375 2.4710169-5.5000544 5.4999456-5.5000544 3.0290375 0 5.5000544 2.4710169 5.5000544 5.5000544 0 3.0289287-2.4710169 5.4999456-5.5000544 5.4999456zm0-10.681131c-2.869603 0-5.1014682 2.3115823-5.1014682 5.1014681 0 2.8696031 2.3115824 5.1014682 5.1014682 5.1014682 2.8696031 0 5.1014682-2.3115824 5.1014682-5.1014682s-2.3115824-5.1014681-5.1014682-5.1014681z" fill="#0981d3"/><path d="m65.0000552 37c-6.066142 0-11.0000552-4.9338028-11.0000552-10.9999448s4.9339132-11.0000552 11.0000552-11.0000552 10.9999448 4.9339132 10.9999448 11.0000552-4.9338028 10.9999448-10.9999448 10.9999448zm0-21.676443c-5.8235846 0-10.5956089 4.7720243-10.5956089 10.5956089 0 5.8234743 4.7720243 10.5954986 10.5956089 10.5954986 5.8234742 0 10.5954985-4.7720243 10.5954985-10.5954986 0-5.8235846-4.7720243-10.5956089-10.5954985-10.5956089z" fill="#0981d3"/><path d="m66.9837599 58s-15.4237312-1.9009434-22.7209438-25.8218149h-6.7997423s-4.6437733-6.5741952-4.6437733-14.1781851h-2.8193005v39.9211092c.0829306.0788908 37.8958832.0788908 36.9837599.0788908z" fill="#fff"/><path d="m56 49.1501436s17.3552916 2.135978 21.0622214-6.1501436l1.9377786 13.3253888s-13.1428243 3.9286239-23-7.1752452z" fill="#1898fc"/></g></svg>