<svg height="320" viewBox="0 0 248 320" width="248" xmlns="http://www.w3.org/2000/svg"><g fill="none" transform="translate(14.2727 -31)"><path d="m340.7423 55.7962-102.325-49.1687h-9.316l-22.419 27.50961h-24.162l-24.874 26.38429h-28.427l-27.846 20.5072h-27.2637l-35.0815 23.4457h-25.4551l44.5141 147.364h62.8622l.776-3.439 38.053-3.501.194-23.883h42.059v-14.63h39.216v-21.258h47.163v-19.131h33.919v-24.634h18.413z" fill="#212121"/><g transform="translate(200.0253)"><path d="m0 34.57465v-34.57465l140.713 72.713-.323 51.8932z" fill="#307205"/><path d="m0 0h26.682l114.031 53.6438v19.0692z" fill="#afe868"/></g><path d="m196.1493 52.1435c-1.809-1.0628-4.845.3127-4.845 1.8132 0 4.5016 4.264 25.6965 4.457 27.0094.194 1.313 2.585 1.6881 2.714 0 .194-2.6884.646-12.0042.194-16.2556-.194-1.7507-.323-3.4388-.517-5.0018 2.197 3.8764 5.685 9.4408 10.337 16.6933l2.52-1.1253c-2.003-6.3148-3.618-10.8163-4.91-13.3797-2.197-4.4391-4.2-8.2529-5.04-9.6284-1.292-2.1883-3.682-1.438-4.91-.1251z" fill="#ac5419"/><path d="m226.9033 110.164c4.781-5.6895 8.012-9.8785 9.756-12.567 2.907-4.6891 5.298-8.8155 6.008-10.4411 1.809-3.8139-4.134-5.5645-5.427-3.8139-2.002 2.6885-6.331 11.1289-12.921 25.2589z" fill="#ac5419"/><g transform="translate(150.9893 25.19632)"><path d="m0 37.45108.646-37.4506 136.773 101.9107v58.0208z" fill="#307205"/><path d="m.65 0h25.391l153.764 101.91068h-42.382z" fill="#afe868"/></g><path d="m198.8593 134.4843c-2.067-1.188-5.491.313-5.491 2.063 0 5.127 4.845 29.198 5.104 30.699.258 1.5 2.972 1.938 3.101 0 .258-3.064.71-13.63.258-18.507-.194-2-.387-3.939-.581-5.627 2.519 4.439 6.46 10.754 11.694 18.944l2.842-1.25c-2.261-7.19-4.134-12.254-5.556-15.255-2.455-5.065-4.781-9.441-5.75-10.942-1.55-2.376-4.199-1.563-5.621-.125z" fill="#ac5419"/><path d="m156.6823 108.1359c0 6.4398 3.166 21.3826 3.166 22.7584h6.784c-.969-13.3175-1.357-20.0699-1.034-20.2575.452-.1876 17.702 1.6881 22.871 1.6881 7.494 0 10.596-4.5641 10.789-13.0046h-14.795c-3.036.3126-18.736 3.3762-24.55 4.4391-2.52.5002-3.231 2.6259-3.231 4.3765z" fill="#204f01"/><path d="m206.8903 145.3053 19.317-9.504v-2.063h-2.326c-18.736 4.627-28.233 7.565-28.685 8.878v.063.062c-3.683 4.939-5.944 29.01-6.655 30.823l7.107 1.001c2.714-9.754 11.436-16.569 11.177-28.198.065-.437.065-.75.065-1.062z" fill="#204f01"/><path d="m224.5943 150.9943c1.744-.313 3.424-.626 4.781-.876 8.98-1.5 11.629-6.189 10.078-16.38h-16.604c-2.713.75-16.797 6.439-24.098 9.503-4.845 2.001-3.295 9.253-.581 11.129 0 .125.064.187.129.25 14.73 5.939 26.359 2.813 30.3 3.814l1.809-5.502z" fill="#307205"/><g transform="translate(98.3343 50.3921)"><path d="m0 33.3867v-33.3867l107.183 117.1662v55.019z" fill="#307205"/><path d="m0 0h27.846l124.109 117.1662h-44.772z" fill="#afe868"/></g><g transform="translate(95.0953 140.2933)"><path d="m0 46.017c3.166-18.882 5.815-31.386 7.366-35.2 1.033-2.501 8.592-2.188 7.688 2.813-.388 2.126-1.809 7.816-3.747 14.255-1.099 3.752-3.877 10.942-7.689 19.132zm46.97-21.258c-1.357-.187-17.057-1.75-28.169-3.313-4.458-.626-2.067-8.691 2.584-7.816 1.551.313 3.231.626 4.91.938 5.944 1.188 18.219 5.377 21.773 6.753 2.196.812.775 3.688-1.098 3.438z" fill="#e8a16d"/><path d="m35.985 16.944c1.744-.313 3.359-.626 4.716-.876 8.851-1.5 11.435-6.064 9.885-16.068h-16.346c-2.649.75-16.539 6.377-23.71 9.378-4.781 2.001-3.231 9.129-.582 10.942 0 .125.065.187.129.25 14.472 5.814 25.972 2.751 29.784 3.751l1.744-5.377z" fill="#204f01"/><path d="m46.835 20.4458555c.979.1011445 1.613.2241445 2.016.4561445.49.26 1.181.637 1.987 1.24-.29.556-2.662 5.45-7.263 14.68-1.469-.222-2.102-.766-1.783-1.686.289-.836.55-1.588.753-2.174l.218-8.296c0-.14.144-.278.288-.275l1.326.079c.779-.576 1.213-1.129 1.473-1.601.174-.362.29-.977.292-1.818.029-.364.26-.612.693-.6051445-.058.0271445-.058.0271445 0 0z" fill="#dffdad"/></g><g transform="translate(47.4891 68.524)"><path d="m0 0h25.4551l95.0361 136.4853h-41.154z" fill="#afe868"/><path d="m79.3372 183.3143v-46.829l-79.3372-136.4853v36.8879l72.8762 146.4264z" fill="#307205"/></g><path d="m52.4644 176.1253c7.7528-1.25 12.9213-2.063 15.5702-2.501 7.4944-1.25 9.691-5.189 8.3989-13.692h-13.8259c-1.809.5-9.4972 3.689-22.9354 9.503-2.3905 1.188-1.9382 4.564-1.5506 5.752 0 .063 4.0703 6.815 12.2107 20.32l11.3062-6.94-9.2388-11.504c-.1938-.563-.1938-.813.0647-.938z" fill="#47aa0a"/><g transform="translate(0 95.7837)"><path d="m0 0h24.163l64.2193 151.7406h-43.6098z" fill="#afe868"/><path d="m44.7726 155.7426v-4.627l-44.7726-151.1156v25.1963l34.8877 130.5463z" fill="#307205"/></g><g transform="translate(21.1016 138.6253)"><path d="m8.7865 10.316c0-.188 0-.375 0-.563 0-.25 0-.437 0-.688 0-.625 0-1.25 0-1.875 0-.75 0-1.438 0-2.188 0-.688 0-1.376 0-2.001 0-.438 0-.938 0-1.376v-.312h-8.7865v.687 1.751 2.251 2.188 1.688.5c0 .438.3876.563.7107.688.3876.125.7106.188 1.0983.313.8399.125 1.6798.187 2.5843.187 1.0337 0 2.0673-.062 3.0364-.312.2585-.063.5815-.125.84-.25.2584-.25.5168-.376.5168-.688z" fill="#dffdad"/><path d="m4.3933 2.501c2.4263 0 4.3932-.56 4.3932-1.251 0-.69-1.9669-1.25-4.3932-1.25-2.4264 0-4.3933.56-4.3933 1.25 0 .691 1.9669 1.251 4.3933 1.251z" fill="#47aa0a"/><path d="m4.3933.375c1.0983 0 2.132.125 2.9073.312.8398.251 1.0337.501 1.0337.563 0 .063-.1939.313-1.0337.563-.7753.187-1.809.312-2.9073.312-1.0984 0-2.1321-.125-2.9073-.312-.8399-.25-1.0338-.5-1.0338-.563 0-.062.1939-.312 1.0338-.563.7752-.187 1.8089-.312 2.9073-.312zm0-.375c-2.3905 0-4.3933.562-4.3933 1.25s1.9382 1.251 4.3933 1.251c2.455 0 4.3932-.563 4.3932-1.251s-1.9382-1.25-4.3932-1.25z" fill="#f2f9e5"/><path d="m.9685 2.376c-.1938-.063-.3876-.125-.5168-.063-.0646.063 0 .313 0 .438v.563 2.688 3.876c0 .125 0 .188.0646.313.0646.188.4522.313.646.375.0646-.312 0-.625 0-.938 0-.312 0-.625 0-.938 0-.687 0-1.312 0-2 0-1.313 0-2.626 0-3.939-.0646-.25-.1292-.313-.1938-.375z" fill="#f2f9e5"/><path d="m8.268 3.188c.1292-.063.1938-.188.2584-.25.646-.751 1.9382-1.001 2.5842-.125.2584.375.3231.75.3231 1.188v1.25c0 .688-.1939 1.313-.5169 1.938-.2584.5-.646 1.063-1.1629 1.313-.5168.313-1.0337.625-1.4859 1.063-.0646.063-.1293.125-.1939.125-.323.125-.3876-.375-.3876-.563-.0646-.25 0-.562 0-.812 0-.188.0646-.313.1292-.501 0-.062.0647-.187.1293-.25.0646-.062.0646 0 .1938 0 .3876.063.646-.062.9691-.25.3876-.187.9044-.563.969-1 .1939-.813.1939-1.626.1939-2.439 0-.437-.7753-.437-1.0337-.187-.2584.187-.5169.5-.6461.813-.0646.187 0 .375-.1938.5-.0646 0-.0646.062-.1292.062s-.1293-.062-.1939-.125c-.1938-.187-.2584-.375-.323-.625-.0646-.187-.0646-.375-.0646-.5 0-.188 0-.5.1938-.625.1938.062.2585.062.3877 0z" fill="#59c114"/></g><g transform="translate(41.879131 116.644096)"><path d="m.0571693 6.21140382c.06460001 3.2512.9692 10.25379998 2.3905 11.00379998l7.1067-2.001s0 0 0-.062c2.5197-1 3.9411-3.7514 3.1658-6.37739998l-1.4859-4.9392c-.8399-2.8135-3.8765-4.439-6.7838-3.6262l-.5168.125c-2.6489.8128-4.2641 3.3136-3.8765 5.877z" fill="#204f01"/><path d="m9.6198693 8.64950382c.7107-1.563 1.0337-3.3762.3877-5.0643-1.8736-4.9392-8.7866-1.8131-9.49719999 1.1254-.64610001 2.9386 1.48589999 9.37859998 3.42409999 9.31559998.7753 0 2.1967-.875 3.4888-2.2506l1.0337 7.0646 5.8792-1.625z" fill="#cb7a43"/><path d="m7.8110693 8.27410382c.5814 2.87599998 1.6151 6.06409998 2.6488 6.56509998l7.1068-2.001c-1.6152-6.75239998-4.6517-3.12609998-6.5253-9.31579998-.323-.1876-.5815-.3126-.9045-.4377l-.0646-.1875c-1.9382-2.0632-3.8764-2.876-5.75-2.3133-2.8427.8127-3.35949999 2.3133-3.74719999 3.6262 1.16289999 1.7507 3.42419999 1.3755 5.74999999 2.0007.1939-.2501.4523-.4376.7753-.5001.7107-.1876 1.4859.1875 1.7444.9378.2584.7503-.2584 1.3755-1.0337 1.6256.0646-.0626 0 0 0 0z" fill="#204f01"/><path d="m1.1569693 9.39990382c.0646.75019998-.19379999 1.50049998-.38769999 2.25079998v.25c.0646.0626.0647.0626.1293.0626.45219999.0625.90449999-.0626 1.22749999-.3752" fill="#cb7a43"/><g fill="#204f01"><path d="m2.1875693 8.02390382c-.8398 0 .5814 1.0628.2584.0625-.0646-.0625-.1292-.0625-.2584-.0625z"/><path d="m2.5744693 12.9632038c.323-.1255.5168-.2505.7106-.5006.1939-.1876.3877-.4377.6461-.6252-.0646.3126-.1938.6252-.4522.8753-.1293.125-.2585.2505-.4523.2505-.1292.062-.323.062-.4522 0z"/><path d="m1.2823693 7.58750382c.2584-.1251.4522-.1876.7107-.2501.2584-.0625.5814 0 .7752.1875-.2584.0626-.5168.0626-.7107.1251-.1938 0-.5168.0625-.7752-.0625z"/></g></g><g transform="translate(22.204112 129.910747)"><path d="m23.9303881 27.8315531-8.5281-3.063c-3.618.437-5.42699997.375-5.2978-.125.1938-.751 1.2275-.626 1.4214-1.126.1938-.5-1.0337-1.5-2.19659997-2.438-1.163-.938-.3877-1.126.0645-1.126 1.74439997.376 3.68259997 1.063 5.81459997 2.126l10.4664 1.126z" fill="#cb7a43"/><path d="m13.7860881 26.9565531c-2.132-.5-3.94099997-.625-5.49149997-.5-2.9719.313-4.2641.188-6.2669-.875-1.0337-.563-2.3904-2.064-1.9382-2.876.2584-.563 3.6826.312 4.8455.062s-.8399-2.251-.1938-2.251c.7107-.25 1.809.438 3.1011 2.189l4.58709997.5z" fill="#cb7a43"/><path d="m27.8720881 26.7685531c-3.5534 1.501-8.6573.813-12.7921-.813l.1292-4.251c5.3624.938 9.6264-.063 12.5983-1.188 2.9073 1.125 2.8427 5.064.0646 6.252z" fill="#47aa0a"/><path d="m26.0593881 2.69755311 6.8484-2.688c.7752-.313 9.8202 7.127 12.4044 13.25499999 2.3905 5.627 9.2389 7.065 10.1434 16.88-4.7809.938-16.2164 10.442-20.4805 6.69-2.0674-1.813-3.4241-4.189-4.3932-6.815-4.5871 1.689-10.6601 2.439-18.4775 1.688-.8399-1.5-1.0984-4.501-.7753-8.94 8.5927-.375 14.2781-1.563 17.1208-3.626-.5169-5.69-.7753-11.62899999-2.3905-16.44399999z" fill="#59c114"/></g><g transform="translate(127.200253 84.14209)"><path d="m11.5720468 19.3258096c1.357-1.5631 2.326-3.5012 2.132-5.627-.452-6.18969999-9.368-4.81419999-11.112-1.6881-1.745 3.1261-1.551 11.0664.71 11.6291.905.2501 2.778-.3126 4.717-1.438l-1.228 8.3154h7.171z" fill="#e8a16d"/><path d="m31.1440468 6.50830961c-.84-.2501-1.68-.3126-2.39.125-.776.5002-1.486 1.0004-2.455 1.3755-.905.3126-1.809.5002-2.714.5002-1.809 0-3.618-.5627-5.362-.9379-1.422-.3126-2.972-.6252-4.458-.3126-.582.1251-1.486.3752-1.744 1.0004 3.747.6252 5.168 5.12679999 4.134 8.37789999-.581 1.7506-3.941 3.8138-5.297 2.876-.84-.5627-.323-1.3755 0-1.8756.646-1.0004.839-2.2508-.323-2.9386-1.034-.5627-2.068.8128-2.068.8128-.258 0-2.649-1.3129-4.329-3.2511-1.615.0625-1.873-.9378-1.485-1.8132.387-.87529999 2.842-1.93809999 4.134-2.12569999.969-.125 3.489-.2501 3.941-.2501.323 0 .646.0625.776-.1876.129-.1875.064-.5626.129-.8127.065-.3126.129-.5627.194-.8754.193-.8127.517-1.6255.969-2.3758.84-1.3755 2.003-2.4383 3.553-3.0635 1.68-.6878 3.554-.8754 5.363-.6878 2.067.1876 4.07.6878 5.879 1.6881 1.68.9378 3.747 2.5634 3.553 4.7517z" fill="#204f01"/><path d="m1.6840468 16.2617096c-.129.5002-.71.8753-1.033 1.3755-.129.2501-.711.8753-.646 1.1879.129.6878 1.679.8128 2.067.8753" fill="#e8a16d"/><g fill="#204f01"><path d="m3.8180468 15.6980096c-.452-.125-.452.2501-.388.5627.582.2501.776-.5001.388-.5627z"/><path d="m2.7830468 15.3234096c.258-.3126.71-.4377 1.163-.3751.452.125.775.4376.904.8127-.323-.2501-.646-.4376-.969-.5001-.323-.0626-.711-.0626-1.098.0625z"/><path d="m1.8770468 21.4519096c.452-.125.84-.1875 1.227-.3126.388-.125.775-.3126 1.163-.4376-.258.3751-.646.6252-1.098.7502-.388.1251-.84.1251-1.292 0z"/></g></g><g transform="translate(100.132633 102.922873)"><path d="m15.2496675 11.4862272-8.78600005-5.00180004c-4.135-.25-6.073-.6252-5.815-1.1879.323-.8128 1.486-.4376 1.809-.9378s-.775-1.8757-1.938-3.1261c-1.098-1.25040001-.194-1.31300001.323-1.1879 1.874.7502 3.877 1.8756 6.009 3.5012l11.30600005 3.3137zm6.009 19.6942-9.433 3.814c-2.64900005 3.064-4.13400005 4.314-4.45700005 3.814-.453-.75.581-1.438.323-2.001-.259-.563-2.003-.5-3.748-.375-1.679.125-1.227-.625-.775-.938 1.744-1 3.876-1.875 6.461-2.501l9.56100005-6.752z" fill="#e8a16d"/><path d="m33.9226675 7.92302716c-5.169 9.37820004-12.728 16.56830004-23.582 24.00840004l4.135 4.502c12.146-4.377 18.542-7.003 21.708-15.881.775-2.2508 1.357-9.3158 1.809-13.00460004z" fill="#307205"/><path d="m48.4596675 39.1214272h-23c5.234-15.3809 7.882-25.9471 8.012-31.69910004 0-.3126.581-.8128.839-.7503 1.809.5002 3.748.3127 5.815-.5626 5.362 8.50290004 7.236 19.00660004 8.334 33.01200004z" fill="#f7f7f7"/><path d="m38.0556675 6.17282716c-6.589.0625-17.314 1.1879-29.65400005-2.6259l-1.228 5.877c9.30400005 5.81450004 18.80100005 10.31610004 27.07100005 9.69090004-3.618 14.9426-3.425 27.1346 4.522 27.1346h12.275c1.939-12.692-3.165-30.2607-7.946-39.13880004-.194-.3126-.582-1.0003-1.486-1.0003-.775.0625-1.938.0625-3.554.0625z" fill="#47aa0a"/></g><g transform="translate(177.985489 51.342815)"><path d="m10.0948112 12.0900846c1.163-1.313 1.938-2.87599996 1.809-4.68909996-.388-5.1894-7.81699995-4.0014-9.23899995-1.438-1.421 2.5634-1.292 9.19069996.582 9.69089996.775.1875 2.325-.2501 3.941-1.188l-1.034 6.94h6.00899995z" fill="#e8a16d"/><path d="m14.4898112 5.71308464c.193-.1875.323-.4376.387-.6877.065-.2501.194-.5002.259-.8128.129-.5627.129-1.1879-.259-1.563-.323-.3126-.775-.5002-1.227-.5002-.323 0-.582 0-.905.125-.258.0626-.517.2501-.775.3752 0-.5627-.129-1.1879-.452-1.6881s-.776-.7503-1.293-.8128c-.58099995-.0625-1.09799995.0625-1.61499995.3126-.129.0625-.258.125-.387.1876-.13.0625-.194.125-.323.1875-.13 0-.194-.0625-.259-.125-.129-.1251-.194-.1876-.323-.3126-.517-.3751-1.163-.5002-1.809-.3126-.258.125-.517.2501-.711.5001-.193.1876-.258.5627-.516.6878-.13.0625-.194 0-.259-.0625-.129-.0626-.258-.1876-.387-.3126-.194-.1251-.388-.2501-.582-.2501-.323-.0626-.775-.0626-.84.3751-.064.125 0 .3126 0 .5002 0 .1875 0 .4376.065.6252 0 .1876.064.3126.064.5002 0 .0625.065.2501 0 .3126-.064.125-.258.0625-.323.0625-.193 0-.387.0625-.516.125-.13.0626-.259.1251-.323.3127-.065.0625 0 .1875 0 .25v.2501c-.259-.125-1.099-.3751-1.163.0625-.065.1251.064.3127.129.4377.129.1876.258.3751.387.5627.323.3751.646.6877 1.034 1.0004-.452.1875-.581.7502-.194 1.1253.194.1251.388.1876.646.1876.065 0 .194-.0625.259 0 .064 0 .064.0625.129.0625.323 0 .646-.0625.969-.125.517-.1251 1.034-.3751 1.486-.7503.129-.125.194-.125.323-.125s.259.0625.388.0625c.323 0 .646-.125.969-.2501 0 .3751.129.8753.323 1.1879.129.3126.452.3126.711.3752.904.0625 1.809 0 2.71299995 0-.90399995.1875-1.80899995.2501-2.64899995.5001-.387.1251-.064.3752.065.5627.258.3126.517.6878.646 1.0629.452-.5627 1.163-.8753 1.87299995-.7503.776.1876 1.293 1.18799996.776 1.87569996-.259.4377-.776.5627-1.16299995.7503.32299995.3126.38699995.8128.58099995 1.1879.065.1876.259.4376.453.5002.064 0 .193 0 .258.0625s.065.1875.194.2501c.387.2501 1.033.25 1.356-.1251.324-.3126.259-.8128 0-1.1254.453-.1875 1.163-.3751 1.034-1.0003.905-.0626 3.166-1.5006 1.938-2.56339996.646-.3752 1.293-1.2505.84-2.0632-.581-.8754-1.356-1.188-2.002-1.188z" fill="#212121"/><path d="m1.76081125 10.2772846c-.194.8128-1.034 1.6881-.84 2.6259.388.1876.905.0626 1.357.0626" fill="#e8a16d"/><g fill="#212121"><path d="m2.01781125 13.9669846c.775.0625 1.227-.6252 1.873-.6252.13.5002-1.162 1.1879-1.55 1.3755"/><path d="m3.37581125 9.90188464c-.065.18749996-.129.43759996-.065.62519996.517.125.711-.1876.646-.62519996-.258-.1251-.516-.1251-.646 0"/><path d="m2.79681125 9.15158464c0-.2501.258-.4377.452-.5002.194-.125.452-.125.711-.125.258 0 .452.0625.646.1875.194.1251.388.3126.388.5627-.194-.0625-.388-.125-.582-.125s-.323-.0626-.517-.0626-.323 0-.517 0c-.193 0-.323.0001-.581.0626z"/></g></g><g transform="translate(151.135335 58.340826)"><path d="m29.386965 17.0336736-8.915-4.6891c-1.486-1.6881-2.908-3.001-4.394-3.9389-.452-.1875-1.227-.3126-.517.9379.711 1.2504 1.422 2.5634 1.034 2.9385s-1.292-.1251-1.744.5002c-.259.4376 1.292 1.0628 4.651 2.0007l6.461 5.752z" fill="#e8a16d"/><path d="m34.233965 16.3463736c-3.101-.0625-7.3-.6877-11.694-3.3761l-1.744 3.7513c3.037 2.9385 7.365 5.3768 11.112 5.2518 2.972-.0625 4.458-3.5638 2.326-5.627z" fill="#59c114"/><path d="m.186965 3.7792736c4.005-.8753 7.946-2.0007 11.952-3.001.517-.1251 2.455-.9379 2.843-.7503 0 0 .323 2.0007.387 2.6259.194 1.9382.517 3.8764.84 5.8146.194 1.3129.388 2.5008.517 3.0635 0 .1251.065.2501.065.3127 0 .1875 0 .3126-.065.4376-.388.3751-1.292-.125-1.744.5002-.259.3126.71.8128 2.713 1.438 1.098 2.5009 4.91 7.8152 5.298 8.2529-3.037 1.3129-6.138 2.6259-9.174 3.8763-.776.3126-5.233 2.4384-6.073 2.1883-.776-.1876-2.003-2.6259-2.649-3.9389-1.551-3.1261-2.778-6.4397-3.554-9.8784-.258-.9379-2.132-10.7538-1.356-10.9414z" fill="#dc3579"/><path d="m13.429965 27.9123736c-1.68-1.1879-3.23-1.9381-4.716-2.3758-2.778-.7502-3.877-1.3129-5.234-3.001-.71-.8753-1.356-2.6885-.646-3.2512.453-.3751 3.166 1.5631 4.264 1.7506 1.099.2501.065-2.3132.647-2.0632.775 0 1.421 1.0004 1.938 3.0636l3.876 2.0632z" fill="#e8a16d"/><path d="m28.352965 25.0991736c-3.295.8128-8.851-.125-16.669-2.8135-1.938 3.8764-2.842 6.6274-2.649 8.2529 6.655 3.3762 12.405 4.8767 17.121 5.0018-.129 2.6884.194 5.3144 1.357 7.6277 2.326 4.8142 16.152.3751 20.739 1.2504 2.907-9.1282-2.714-12.817-2.714-18.6315 0-6.3773-5.297-16.1932-6.073-16.1932h-7.107c-.452 4.8142-2.39 10.1911-4.005 15.5054z" fill="#70ce33"/></g><path d="m215.6163 147.8743c-1.422.625-15.7 3.439-15.7 3.439s7.559 4.814 8.916 5.564c1.292.751 16.345-3.563 16.345-3.563z" fill="#9b1558"/><path d="m200.8883 145.7483c1.485.438 16.022 1.688 16.022 1.688s-6.978 5.627-8.14 6.503c-1.228.875-16.669-1.751-16.669-1.751z" fill="#dc3579"/><g transform="translate(79.3318 107.9087)"><path d="m7.7505 7.7527 7.171 12.3169-6.783-7.3151-7.5593-12.7545z" fill="#9b1558"/><path d="m7.7515 7.7525 9.174.125 8.722 12.5669-10.724-.3751z" fill="#dc3579"/><path d="m.5815.001 7.559 12.7545 6.784 7.3151 10.724.3751-.129.5627-10.854-.3126-6.977-7.7527-7.6885-12.7545z" fill="#212121"/><g fill="#9b1558"><path d="m8.9795 8.4414h.517l.581.8128-.711-.0625z"/><path d="m11.1085 9.2537-.71-.0625-.453-.7503h.582z"/><path d="m12.0775 9.2537h-.646l-.452-.8128h.581z"/><path d="m13.1125 9.2537h-.646l-.517-.7503h.582z"/><path d="m14.1465 9.2537h-.711l-.452-.7503h.581z"/><path d="m15.1795 9.2537h-.711l-.452-.7503h.581z"/><path d="m9.6245 9.6289h.582l.516.7503h-.646z"/><path d="m10.6555 9.6289h.581l.517.7503h-.646z"/><path d="m11.6915 9.6289h.581l.517.7503h-.646z"/><path d="m12.7245 9.6289h.581l.517.8128-.646-.0625z"/><path d="m13.6925 9.6289h.646l.517.8128h-.646z"/><path d="m14.7285 9.6289h.646l.517.8128h-.646z"/><path d="m10.3345 10.7539h.581l.517.8128-.646-.0625z"/><path d="m11.3655 10.7539h.581l.517.8128-.646-.0625z"/><path d="m12.4035 10.7539.581.0626.581.7502h-.71z"/><path d="m13.4365 10.8169h.581l.582.7503h-.711z"/><path d="m14.4695 10.8169h.581l.582.7503h-.711z"/><path d="m15.5025 10.8169h.582l.581.8128-.711-.0625z"/><path d="m11.0435 11.9429h.582l.517.7502h-.646z"/><path d="m12.0795 11.9429h.581l.517.7502h-.646z"/><path d="m13.1105 11.9429h.581l.582.8127-.711-.0625z"/><path d="m14.1455 11.9429h.582l.581.8127h-.646z"/><path d="m15.1815 12.0054h.646l.517.7502h-.646z"/><path d="m16.2795 12.0054h.581l.582.7502h-.711z"/><path d="m11.6915 13.0674h.581l.581.8128-.71-.0625z"/><path d="m13.3705 13.0674.517.8128h-.646l-.452-.8128z"/><path d="m14.4065 13.1299.581.7503h-.711l-.452-.7503z"/><path d="m15.5015 13.1299.517.7503h-.646l-.452-.7503z"/><path d="m16.5375 13.1299.581.8128-.711-.0625-.452-.7503z"/><path d="m17.6355 13.1299.581.8128h-.711l-.516-.8128z"/><path d="m13.1105 15.3809h.581l.517.8128-.646-.0625z"/><path d="m14.2105 15.3809h.582l.516.8128h-.646z"/><path d="m15.2435 15.4429h.582l.581.7503h-.646z"/><path d="m16.3415 15.4429h.582l.581.8128-.711-.0626z"/><path d="m17.4395 15.4429h.582l.581.8128h-.711z"/><path d="m18.5375 15.5059h.582l.581.7502h-.711z"/><path d="m12.4655 14.1934h.581l.517.8127-.646-.0625z"/><path d="m13.5655 14.2554h.517l.582.7502h-.647z"/><path d="m14.5965 14.2554h.581l.582.7502h-.711z"/><path d="m15.6965 14.2554h.582l.581.8127h-.71z"/><path d="m16.7925 14.3179h.581l.582.7503h-.711z"/><path d="m17.8925 14.3179h.582l.581.7503h-.711z"/><path d="m13.8245 16.5064.582.0625.516.7502h-.646z"/><path d="m14.9205 16.5689h.581l.517.7502h-.646z"/><path d="m16.0185 16.5689h.581l.517.8128-.646-.0625z"/><path d="m17.0515 16.5689.581.0625.582.7503h-.646z"/><path d="m18.1515 16.6319h.582l.581.7502h-.711z"/><path d="m19.2495 16.6319h.582l.581.8127-.711-.0625z"/><path d="m14.5965 17.6939h.517l.581.8127h-.71z"/><path d="m15.6325 17.7569h.581l.582.7502h-.711z"/><path d="m16.7305 17.7569h.581l.582.8128-.711-.0626z"/><path d="m17.8255 17.7569h.582l.581.8128h-.711z"/><path d="m18.9265 17.8194h.581l.581.7502h-.71z"/><path d="m19.9595 17.8194h.646l.581.7502h-.71z"/><path d="m15.3105 18.8823h.582l.517.7503h-.647z"/><path d="m16.3415 18.8823h.582l.581.8128-.711-.0625z"/><path d="m17.4395 18.8823.582.0626.581.7502h-.711z"/><path d="m18.5375 18.9448h.582l.581.7503h-.711z"/><path d="m19.6375 18.9448h.582l.581.8128-.71-.0625z"/><path d="m20.6715 18.9448h.646l.581.8128h-.71z"/><path d="m17.3795 12.0049 2.778 4.189h1.873l-2.972-4.2515z"/></g></g><path d="m88.3853 246.8983h-43.6099v4.939h43.6099z" fill="#204f01"/><path d="m341.0613 141.3623h-10.272v-14.2553h-42.382v57.9573h-37.924v32.637h-.065v-50.143h-44.902v50.143h-36.826v-12.692h-41.865v46.829h214.236z" fill="#204f01"/><g transform="translate(194.227701 86.968773)"><path d="m18.9265993 48.082527-9.62600005 3.876c-2.714 3.064-4.264 4.377-4.587 3.877-.453-.751.581-1.438.323-2.001-.259-.563-2.068-.5-3.812-.375-1.745.125-1.228-.626-.84-1.001 1.744-1 3.941-1.875 6.59-2.563l9.69100005-6.877zm39.022 13.942c.453.876 3.683 3.439 5.88 4.939.904.626.517 1.376.194 1.563-2.779 1.626-4.588-.312-6.978-1.375-2.584-1.188-2.391 2.126-4.458 1.25.646-1.375 2.132-3.938 1.421-5.627-.323-.75-2.455-7.252-6.331-19.506h6.331c2.003 11.316 3.295 17.568 3.941 18.756z" fill="#ac5419"/><path d="m35.9165993 17.383927-2.649-.4376c-9.756 8.1278-13.761 23.8208-25.71400005 32.1362l2.90800005 3.439c20.738-2.501 25.907-21.5703 25.455-35.1376z" fill="#307205"/><path d="m38.5035993 10.757427c1.422-1.56310001 2.326-3.56380001 2.197-5.75200001-.452-6.3147-9.497-4.9393-11.306-1.7506-1.745 3.1886-1.551 11.25390001.71 11.81660001.905.2501 2.843-.3126 4.781-1.5005l-1.227 8.4404h7.3z" fill="#ac5419"/><path d="m34.5625993 5.75552699c-.258 3.7513-1.033 5.62700001-2.196 5.62700001-1.809 0-3.295-1.1254-4.135-1.1254-.582 0-.452.6877-.065 1.1879.323.4376 1.874.8128 1.874 1.5005s-1.228.125-1.228.5627c0 .6252-.193 1.8757.97 1.8757 1.162 0 4.522-.4377 5.103-2.1258.388-1.0629.647-3.37620001.711-6.75240001h.194c1.034 0 1.809.8128 1.809 1.7507 0 .5001-.194.9378-.582 1.2504.453.56270001.905 1.18790001 1.422 1.81310001 2.067-1.1879 4.458-4.68910001 2.455-8.00280001-.582-1.6255-2.714-2.5008-4.2-2.876-1.163-.5001-2.455-.5627-3.488-.25-2.068.1875-3.877.7502-4.394 1.1253 0 1.8757.388 2.4384 3.554 2.3759.969.4376 1.55 1.1254 2.196 2.0632z" fill="#212121"/><path d="m28.4225993 6.75582699c-.517.8128-1.099 1.6256-1.68 2.4384-.905 1.18790001 1.421 1.12540001 2.067 1.00030001" fill="#ac5419"/><g fill="#212121"><path d="m28.5515993 12.695427c.259-.1251.582-.1251.84-.1251.259 0 .517 0 .776-.0625-.13.2501-.453.3751-.776.3751-.258 0-.517-.0625-.84-.1875z"/><path d="m30.6835993 6.56842699c-1.099-.125.516 1.6257.452.1876-.194-.0625-.388-.125-.582-.1876"/><path d="m29.7165993 6.00602699c.13-.1876.323-.3126.517-.3751.194-.0626.388-.0626.582-.0626.193 0 .387.0626.581.1251s.388.2501.452.4376l-.517.0625c-.193 0-.323 0-.452 0s-.323 0-.452-.0625c-.323-.0625-.517-.125-.711-.125z"/></g><path d="m47.4175993 49.395527c-10.531 0-18.284 0-23.258 0-1.034 0-.84-1.501-.711-2.251 1.745-8.6278 8.722-18.0061 8.722-30.2604l6.719-1.0003c5.492 8.5655 7.43 19.1942 8.528 33.5117z" fill="#f2f9e5"/><path d="m47.2255993 24.324627c.969-.2501 1.744-.8753 2.326-1.8757 2.455-4.2515 1.551-6.6273-1.034-7.4401-2.584-.8128-4.974.8128-9.109.8128-.259 0-.453 0-.646.0625l-2.132.1251c-6.009 19.7569-7.689 32.9493-4.975 39.5763h18.284c1.098 2.438 2.132 4.502 3.101 6.19h4.974c.517-14.755-3.101-27.1973-10.789-37.4509z" fill="#47aa0a"/></g></g></svg>