<svg fill="none" height="60" viewBox="0 0 60 60" width="60" xmlns="http://www.w3.org/2000/svg" xmlns:xlink="http://www.w3.org/1999/xlink"><filter id="a" color-interpolation-filters="sRGB" filterUnits="userSpaceOnUse" height="28.2375" width="31.7226" x="43.0201" y="4.75916"><feFlood flood-opacity="0" result="BackgroundImageFix"/><feColorMatrix in="SourceAlpha" result="hardAlpha" type="matrix" values="0 0 0 0 0 0 0 0 0 0 0 0 0 0 0 0 0 0 127 0"/><feOffset dx=".318966" dy=".318966"/><feGaussianBlur stdDeviation=".318966"/><feColorMatrix type="matrix" values="0 0 0 0 0.129412 0 0 0 0 0.129412 0 0 0 0 0.129412 0 0 0 0.4 0"/><feBlend in2="BackgroundImageFix" mode="normal" result="effect1_dropShadow_172_62503"/><feBlend in="SourceGraphic" in2="effect1_dropShadow_172_62503" mode="normal" result="shape"/></filter><filter id="b" color-interpolation-filters="sRGB" filterUnits="userSpaceOnUse" height="35.8808" width="40.1809" x="32.41" y="10.2116"><feFlood flood-opacity="0" result="BackgroundImageFix"/><feColorMatrix in="SourceAlpha" result="hardAlpha" type="matrix" values="0 0 0 0 0 0 0 0 0 0 0 0 0 0 0 0 0 0 127 0"/><feOffset dx=".318966" dy=".318966"/><feGaussianBlur stdDeviation=".318966"/><feColorMatrix type="matrix" values="0 0 0 0 0.129412 0 0 0 0 0.129412 0 0 0 0 0.129412 0 0 0 0.4 0"/><feBlend in2="BackgroundImageFix" mode="normal" result="effect1_dropShadow_172_62503"/><feBlend in="SourceGraphic" in2="effect1_dropShadow_172_62503" mode="normal" result="shape"/></filter><filter id="c" color-interpolation-filters="sRGB" filterUnits="userSpaceOnUse" height="8.10765" width="10.4883" x="33.6422" y="26.2496"><feFlood flood-opacity="0" result="BackgroundImageFix"/><feColorMatrix in="SourceAlpha" result="hardAlpha" type="matrix" values="0 0 0 0 0 0 0 0 0 0 0 0 0 0 0 0 0 0 127 0"/><feOffset dx=".318966" dy=".318966"/><feGaussianBlur stdDeviation=".318966"/><feColorMatrix type="matrix" values="0 0 0 0 0.129412 0 0 0 0 0.129412 0 0 0 0 0.129412 0 0 0 0.4 0"/><feBlend in2="BackgroundImageFix" mode="normal" result="effect1_dropShadow_172_62503"/><feBlend in="SourceGraphic" in2="effect1_dropShadow_172_62503" mode="normal" result="shape"/></filter><filter id="d" color-interpolation-filters="sRGB" filterUnits="userSpaceOnUse" height="38.5325" width="34.155" x="21.017" y="15.6635"><feFlood flood-opacity="0" result="BackgroundImageFix"/><feColorMatrix in="SourceAlpha" result="hardAlpha" type="matrix" values="0 0 0 0 0 0 0 0 0 0 0 0 0 0 0 0 0 0 127 0"/><feOffset dx=".318966" dy=".318966"/><feGaussianBlur stdDeviation=".318966"/><feColorMatrix type="matrix" values="0 0 0 0 0.129412 0 0 0 0 0.129412 0 0 0 0 0.129412 0 0 0 0.4 0"/><feBlend in2="BackgroundImageFix" mode="normal" result="effect1_dropShadow_172_62503"/><feBlend in="SourceGraphic" in2="effect1_dropShadow_172_62503" mode="normal" result="shape"/></filter><filter id="e" color-interpolation-filters="sRGB" filterUnits="userSpaceOnUse" height="11.4626" width="12.313" x="20.3158" y="35.1019"><feFlood flood-opacity="0" result="BackgroundImageFix"/><feColorMatrix in="SourceAlpha" result="hardAlpha" type="matrix" values="0 0 0 0 0 0 0 0 0 0 0 0 0 0 0 0 0 0 127 0"/><feOffset dx=".318966" dy=".318966"/><feGaussianBlur stdDeviation=".318966"/><feColorMatrix type="matrix" values="0 0 0 0 0.129412 0 0 0 0 0.129412 0 0 0 0 0.129412 0 0 0 0.4 0"/><feBlend in2="BackgroundImageFix" mode="normal" result="effect1_dropShadow_172_62503"/><feBlend in="SourceGraphic" in2="effect1_dropShadow_172_62503" mode="normal" result="shape"/></filter><filter id="f" color-interpolation-filters="sRGB" filterUnits="userSpaceOnUse" height="40.9404" width="27.3472" x="10.0155" y="19.5858"><feFlood flood-opacity="0" result="BackgroundImageFix"/><feColorMatrix in="SourceAlpha" result="hardAlpha" type="matrix" values="0 0 0 0 0 0 0 0 0 0 0 0 0 0 0 0 0 0 127 0"/><feOffset dx=".318966" dy=".318966"/><feGaussianBlur stdDeviation=".318966"/><feColorMatrix type="matrix" values="0 0 0 0 0.129412 0 0 0 0 0.129412 0 0 0 0 0.129412 0 0 0 0.4 0"/><feBlend in2="BackgroundImageFix" mode="normal" result="effect1_dropShadow_172_62503"/><feBlend in="SourceGraphic" in2="effect1_dropShadow_172_62503" mode="normal" result="shape"/></filter><filter id="g" color-interpolation-filters="sRGB" filterUnits="userSpaceOnUse" height="8.97337" width="9.70799" x="7.92127" y="39.3646"><feFlood flood-opacity="0" result="BackgroundImageFix"/><feColorMatrix in="SourceAlpha" result="hardAlpha" type="matrix" values="0 0 0 0 0 0 0 0 0 0 0 0 0 0 0 0 0 0 127 0"/><feOffset dx=".318966" dy=".318966"/><feGaussianBlur stdDeviation=".318966"/><feColorMatrix type="matrix" values="0 0 0 0 0.129412 0 0 0 0 0.129412 0 0 0 0 0.129412 0 0 0 0.4 0"/><feBlend in2="BackgroundImageFix" mode="normal" result="effect1_dropShadow_172_62503"/><feBlend in="SourceGraphic" in2="effect1_dropShadow_172_62503" mode="normal" result="shape"/></filter><filter id="h" color-interpolation-filters="sRGB" filterUnits="userSpaceOnUse" height="34.9743" width="20.3994" x="-.259639" y="25.4845"><feFlood flood-opacity="0" result="BackgroundImageFix"/><feColorMatrix in="SourceAlpha" result="hardAlpha" type="matrix" values="0 0 0 0 0 0 0 0 0 0 0 0 0 0 0 0 0 0 127 0"/><feOffset dx=".318966" dy=".318966"/><feGaussianBlur stdDeviation=".318966"/><feColorMatrix type="matrix" values="0 0 0 0 0.129412 0 0 0 0 0.129412 0 0 0 0 0.129412 0 0 0 0.4 0"/><feBlend in2="BackgroundImageFix" mode="normal" result="effect1_dropShadow_172_62503"/><feBlend in="SourceGraphic" in2="effect1_dropShadow_172_62503" mode="normal" result="shape"/></filter><filter id="i" color-interpolation-filters="sRGB" filterUnits="userSpaceOnUse" height="3.77855" width="3.74974" x="4.30603" y="34.7543"><feFlood flood-opacity="0" result="BackgroundImageFix"/><feColorMatrix in="SourceAlpha" result="hardAlpha" type="matrix" values="0 0 0 0 0 0 0 0 0 0 0 0 0 0 0 0 0 0 127 0"/><feOffset dx=".318966" dy=".318966"/><feGaussianBlur stdDeviation=".318966"/><feColorMatrix type="matrix" values="0 0 0 0 0.129412 0 0 0 0 0.129412 0 0 0 0 0.129412 0 0 0 0.4 0"/><feBlend in2="BackgroundImageFix" mode="normal" result="effect1_dropShadow_172_62503"/><feBlend in="SourceGraphic" in2="effect1_dropShadow_172_62503" mode="normal" result="shape"/></filter><filter id="j" color-interpolation-filters="sRGB" filterUnits="userSpaceOnUse" height="5.35252" width="5.07689" x="8.80213" y="29.9984"><feFlood flood-opacity="0" result="BackgroundImageFix"/><feColorMatrix in="SourceAlpha" result="hardAlpha" type="matrix" values="0 0 0 0 0 0 0 0 0 0 0 0 0 0 0 0 0 0 127 0"/><feOffset dx=".318966" dy=".318966"/><feGaussianBlur stdDeviation=".318966"/><feColorMatrix type="matrix" values="0 0 0 0 0.129412 0 0 0 0 0.129412 0 0 0 0 0.129412 0 0 0 0.4 0"/><feBlend in2="BackgroundImageFix" mode="normal" result="effect1_dropShadow_172_62503"/><feBlend in="SourceGraphic" in2="effect1_dropShadow_172_62503" mode="normal" result="shape"/></filter><filter id="k" color-interpolation-filters="sRGB" filterUnits="userSpaceOnUse" height="9.4348" width="13.2751" x="4.5448" y="32.8685"><feFlood flood-opacity="0" result="BackgroundImageFix"/><feColorMatrix in="SourceAlpha" result="hardAlpha" type="matrix" values="0 0 0 0 0 0 0 0 0 0 0 0 0 0 0 0 0 0 127 0"/><feOffset dx=".318966" dy=".318966"/><feGaussianBlur stdDeviation=".318966"/><feColorMatrix type="matrix" values="0 0 0 0 0.129412 0 0 0 0 0.129412 0 0 0 0 0.129412 0 0 0 0.4 0"/><feBlend in2="BackgroundImageFix" mode="normal" result="effect1_dropShadow_172_62503"/><feBlend in="SourceGraphic" in2="effect1_dropShadow_172_62503" mode="normal" result="shape"/></filter><filter id="l" color-interpolation-filters="sRGB" filterUnits="userSpaceOnUse" height="7.87913" width="8.01756" x="27.2628" y="22.9659"><feFlood flood-opacity="0" result="BackgroundImageFix"/><feColorMatrix in="SourceAlpha" result="hardAlpha" type="matrix" values="0 0 0 0 0 0 0 0 0 0 0 0 0 0 0 0 0 0 127 0"/><feOffset dx=".318966" dy=".318966"/><feGaussianBlur stdDeviation=".318966"/><feColorMatrix type="matrix" values="0 0 0 0 0.129412 0 0 0 0 0.129412 0 0 0 0 0.129412 0 0 0 0.4 0"/><feBlend in2="BackgroundImageFix" mode="normal" result="effect1_dropShadow_172_62503"/><feBlend in="SourceGraphic" in2="effect1_dropShadow_172_62503" mode="normal" result="shape"/></filter><filter id="m" color-interpolation-filters="sRGB" filterUnits="userSpaceOnUse" height="11.2829" width="12.4114" x="21.4061" y="27.0292"><feFlood flood-opacity="0" result="BackgroundImageFix"/><feColorMatrix in="SourceAlpha" result="hardAlpha" type="matrix" values="0 0 0 0 0 0 0 0 0 0 0 0 0 0 0 0 0 0 127 0"/><feOffset dx=".318966" dy=".318966"/><feGaussianBlur stdDeviation=".318966"/><feColorMatrix type="matrix" values="0 0 0 0 0.129412 0 0 0 0 0.129412 0 0 0 0 0.129412 0 0 0 0.4 0"/><feBlend in2="BackgroundImageFix" mode="normal" result="effect1_dropShadow_172_62503"/><feBlend in="SourceGraphic" in2="effect1_dropShadow_172_62503" mode="normal" result="shape"/></filter><filter id="n" color-interpolation-filters="sRGB" filterUnits="userSpaceOnUse" height="5.90745" width="4.87718" x="38.2511" y="15.8688"><feFlood flood-opacity="0" result="BackgroundImageFix"/><feColorMatrix in="SourceAlpha" result="hardAlpha" type="matrix" values="0 0 0 0 0 0 0 0 0 0 0 0 0 0 0 0 0 0 127 0"/><feOffset dx=".318966" dy=".318966"/><feGaussianBlur stdDeviation=".318966"/><feColorMatrix type="matrix" values="0 0 0 0 0.129412 0 0 0 0 0.129412 0 0 0 0 0.129412 0 0 0 0.4 0"/><feBlend in2="BackgroundImageFix" mode="normal" result="effect1_dropShadow_172_62503"/><feBlend in="SourceGraphic" in2="effect1_dropShadow_172_62503" mode="normal" result="shape"/></filter><filter id="o" color-interpolation-filters="sRGB" filterUnits="userSpaceOnUse" height="11.1101" width="11.897" x="32.442" y="17.3827"><feFlood flood-opacity="0" result="BackgroundImageFix"/><feColorMatrix in="SourceAlpha" result="hardAlpha" type="matrix" values="0 0 0 0 0 0 0 0 0 0 0 0 0 0 0 0 0 0 127 0"/><feOffset dx=".318966" dy=".318966"/><feGaussianBlur stdDeviation=".318966"/><feColorMatrix type="matrix" values="0 0 0 0 0.129412 0 0 0 0 0.129412 0 0 0 0 0.129412 0 0 0 0.4 0"/><feBlend in2="BackgroundImageFix" mode="normal" result="effect1_dropShadow_172_62503"/><feBlend in="SourceGraphic" in2="effect1_dropShadow_172_62503" mode="normal" result="shape"/></filter><filter id="p" color-interpolation-filters="sRGB" filterUnits="userSpaceOnUse" height="5.84837" width="5.09422" x="55.0013" y="11.7396"><feFlood flood-opacity="0" result="BackgroundImageFix"/><feColorMatrix in="SourceAlpha" result="hardAlpha" type="matrix" values="0 0 0 0 0 0 0 0 0 0 0 0 0 0 0 0 0 0 127 0"/><feOffset dx=".318966" dy=".318966"/><feGaussianBlur stdDeviation=".318966"/><feColorMatrix type="matrix" values="0 0 0 0 0.129412 0 0 0 0 0.129412 0 0 0 0 0.129412 0 0 0 0.4 0"/><feBlend in2="BackgroundImageFix" mode="normal" result="effect1_dropShadow_172_62503"/><feBlend in="SourceGraphic" in2="effect1_dropShadow_172_62503" mode="normal" result="shape"/></filter><filter id="q" color-interpolation-filters="sRGB" filterUnits="userSpaceOnUse" height="3.2429" width="6.74168" x="42.997" y="36.7555"><feFlood flood-opacity="0" result="BackgroundImageFix"/><feColorMatrix in="SourceAlpha" result="hardAlpha" type="matrix" values="0 0 0 0 0 0 0 0 0 0 0 0 0 0 0 0 0 0 127 0"/><feOffset dx=".318966" dy=".318966"/><feGaussianBlur stdDeviation=".318966"/><feColorMatrix type="matrix" values="0 0 0 0 0.129412 0 0 0 0 0.129412 0 0 0 0 0.129412 0 0 0 0.4 0"/><feBlend in2="BackgroundImageFix" mode="normal" result="effect1_dropShadow_172_62503"/><feBlend in="SourceGraphic" in2="effect1_dropShadow_172_62503" mode="normal" result="shape"/></filter><filter id="r" color-interpolation-filters="sRGB" filterUnits="userSpaceOnUse" height="3.08665" width="6.64378" x="41.306" y="36.2958"><feFlood flood-opacity="0" result="BackgroundImageFix"/><feColorMatrix in="SourceAlpha" result="hardAlpha" type="matrix" values="0 0 0 0 0 0 0 0 0 0 0 0 0 0 0 0 0 0 127 0"/><feOffset dx=".318966" dy=".318966"/><feGaussianBlur stdDeviation=".318966"/><feColorMatrix type="matrix" values="0 0 0 0 0.129412 0 0 0 0 0.129412 0 0 0 0 0.129412 0 0 0 0.4 0"/><feBlend in2="BackgroundImageFix" mode="normal" result="effect1_dropShadow_172_62503"/><feBlend in="SourceGraphic" in2="effect1_dropShadow_172_62503" mode="normal" result="shape"/></filter><filter id="s" color-interpolation-filters="sRGB" filterUnits="userSpaceOnUse" height="2.96239" width="6.44823" x="54.036" y="24.267"><feFlood flood-opacity="0" result="BackgroundImageFix"/><feColorMatrix in="SourceAlpha" result="hardAlpha" type="matrix" values="0 0 0 0 0 0 0 0 0 0 0 0 0 0 0 0 0 0 127 0"/><feOffset dx=".318966" dy=".318966"/><feGaussianBlur stdDeviation=".318966"/><feColorMatrix type="matrix" values="0 0 0 0 0.129412 0 0 0 0 0.129412 0 0 0 0 0.129412 0 0 0 0.4 0"/><feBlend in2="BackgroundImageFix" mode="normal" result="effect1_dropShadow_172_62503"/><feBlend in="SourceGraphic" in2="effect1_dropShadow_172_62503" mode="normal" result="shape"/></filter><filter id="t" color-interpolation-filters="sRGB" filterUnits="userSpaceOnUse" height="5.82152" width="6.82567" x="16.9056" y="28.108"><feFlood flood-opacity="0" result="BackgroundImageFix"/><feColorMatrix in="SourceAlpha" result="hardAlpha" type="matrix" values="0 0 0 0 0 0 0 0 0 0 0 0 0 0 0 0 0 0 127 0"/><feOffset dx=".318966" dy=".318966"/><feGaussianBlur stdDeviation=".318966"/><feColorMatrix type="matrix" values="0 0 0 0 0.129412 0 0 0 0 0.129412 0 0 0 0 0.129412 0 0 0 0.4 0"/><feBlend in2="BackgroundImageFix" mode="normal" result="effect1_dropShadow_172_62503"/><feBlend in="SourceGraphic" in2="effect1_dropShadow_172_62503" mode="normal" result="shape"/></filter><filter id="u" color-interpolation-filters="sRGB" filterUnits="userSpaceOnUse" height="16.2388" width="15.2077" x="41.7662" y="23.5775"><feFlood flood-opacity="0" result="BackgroundImageFix"/><feColorMatrix in="SourceAlpha" result="hardAlpha" type="matrix" values="0 0 0 0 0 0 0 0 0 0 0 0 0 0 0 0 0 0 127 0"/><feOffset dx=".318966" dy=".318966"/><feGaussianBlur stdDeviation=".318966"/><feColorMatrix type="matrix" values="0 0 0 0 0.129412 0 0 0 0 0.129412 0 0 0 0 0.129412 0 0 0 0.4 0"/><feBlend in2="BackgroundImageFix" mode="normal" result="effect1_dropShadow_172_62503"/><feBlend in="SourceGraphic" in2="effect1_dropShadow_172_62503" mode="normal" result="shape"/></filter><clipPath id="v"><path d="m0 0h60v60h-60z"/></clipPath><g clip-path="url(#v)"><path d="m73.787 17.1511-22.1403-10.63889h-2.0158l-4.8508 5.95239h-5.2283l-5.382 5.7089h-6.1508l-6.0251 4.4372h-5.8992l-7.59078 5.073h-5.50783l9.63171 31.8858h13.6018l.1678-.744 8.2337-.7576.042-5.1677h9.1005v-3.1656h8.4854v-4.5996h10.2048v-4.1396h7.3391v-5.3301h3.9841z" fill="#212121"/><g filter="url(#a)"><path d="m43.3391 12.5592v-7.48108l30.4468 15.73318-.0699 11.2284z" fill="#307205"/><path d="m43.3391 5.07812h5.7734l24.6734 11.60718v4.126z" fill="#afe868"/></g><path d="m42.5008 16.3609c-.3914-.23-1.0484.0677-1.0484.3923 0 .9741.9226 5.5601.9646 5.8442.0419.2841.5591.3652.5871 0 .0419-.5817.1398-2.5974.0419-3.5173-.0419-.3788-.0699-.7441-.1118-1.0823.4753.8388 1.2302 2.0428 2.2367 3.612l.5452-.2435c-.4334-1.3663-.7829-2.3403-1.0625-2.895-.4752-.9605-.9086-1.7857-1.0903-2.0833-.2796-.4735-.7969-.3112-1.0625-.0271z" fill="#b28b67"/><path d="m45.6884 20.5952-1.8733-4.302c-.4473-.7035-1.7054.1488-1.5517.5547.3495.9199 2.1109 3.9096 2.2227 4.1802z" fill="#1f28cf"/><path d="m49.1551 28.915c1.0345-1.2311 1.7335-2.1374 2.1109-2.7191.6291-1.0147 1.1463-1.9075 1.3001-2.2592.3914-.8253-.8947-1.2041-1.1743-.8253-.4333.5817-1.37 2.408-2.7959 5.4654z" fill="#b28b67"/><path d="m51.2798 28.5632 1.9292-4.6943c.4193-.8522-1.5797-1.4204-1.8872-1.0146-.685.9064-2.3206 4.4778-2.5303 4.7484z" fill="#2f3676"/><path d="m56.416 27.6187c-.3753-.5389-1.7377-2.3234-2.4807-3.0454-.2122-.2186-.4224-.4182-.6217-.6093-.5871-.5648-1.7615.3873-1.1696.9034 1.4592 1.2829 3.581 2.9973 3.7566 3.1523.2515.2146.7593-.07.5154-.401z" fill="#b28b67"/><path d="m53.9079 24.0989c1.6076-.2571 2.684-.4194 3.2292-.5141 1.5517-.2706 1.999-1.0687 1.7334-2.8409h-2.8657c-.3775.1082-1.9571.7576-4.739 1.9616-.5033.2435-.4054.9469-.3215 1.1905 0 .0135.8527 1.4069 2.5302 4.2072l2.3345-1.4475-1.9151-2.381c-.042-.1082-.042-.1623.014-.1758z" fill="#276002"/><g filter="url(#b)"><path d="m32.729 18.6339.1398-8.1034 29.5941 22.0509v12.5541z" fill="#307205"/><path d="m32.8696 10.5305h5.4939l33.2706 22.0509h-9.1704z" fill="#afe868"/></g><path d="m43.0872 34.1775c-.4474-.257-1.1883.0677-1.1883.4465 0 1.1093 1.0485 6.3176 1.1044 6.6423s.643.4194.671 0c.0559-.6629.1538-2.9491.0559-4.0043-.0419-.4329-.0839-.8523-.1258-1.2176.5452.9605 1.3979 2.3269 2.5302 4.0991l.6151-.2706c-.4892-1.5557-.8946-2.6515-1.2022-3.3009-.5312-1.0958-1.0345-2.0427-1.2441-2.3674-.3355-.5141-.9087-.3382-1.2162-.0271z" fill="#b28b67"/><path d="m46.7083 39.007-2.1388-4.8836c-.5172-.7982-1.9431.1623-1.7753.6223.3914 1.0416 2.4044 4.4372 2.5302 4.7483z" fill="#1f28cf"/><g filter="url(#c)"><path d="m33.9612 28.4761c0 1.3934.685 4.6266.685 4.9242h1.4678c-.2097-2.8815-.2936-4.3425-.2237-4.3831.0979-.0406 3.8303.3653 4.9487.3653 1.6216 0 2.2926-.9876 2.3345-2.8139h-3.2012c-.6571.0676-4.054.7305-5.3122.9605-.5451.1082-.6989.5682-.6989.947z" fill="#204f01"/></g><path d="m44.8246 36.5183 4.1798-2.0562v-.4465h-.5033c-4.0539 1.0011-6.1089 1.6369-6.2067 1.921v.0135.0136c-.7969 1.0687-1.2861 6.277-1.4399 6.6693l1.5377.2165c.5871-2.1104 2.4743-3.585 2.4184-6.1012.014-.0947.014-.1623.014-.23z" fill="#204f01"/><path d="m48.6552 37.7494c.3774-.0677.7409-.1353 1.0344-.1894 1.9431-.3247 2.5163-1.3393 2.1808-3.5444h-3.5927c-.5871.1624-3.6346 1.3934-5.2142 2.0563-1.0484.4329-.7129 2.0022-.1258 2.408 0 .0271.014.0406.0279.0541 3.1873 1.2852 5.7036.6088 6.5563.8252l.3914-1.1904z" fill="#276002"/><g filter="url(#d)"><path d="m21.3359 23.2064v-7.224l23.1916 25.3517v11.9048z" fill="#307205"/><path d="m21.3359 15.9824h6.0251l26.8541 25.3518h-9.6876z" fill="#afe868"/></g><g filter="url(#e)"><path d="m20.6348 45.3912c.6849-4.0855 1.2581-6.7911 1.5936-7.6163.2237-.5411 1.8592-.4735 1.6635.6088-.0838.4599-.3914 1.691-.8108 3.0844-.2376.8116-.8387 2.3674-1.6635 4.1396zm10.1629-4.5995c-.2936-.0406-3.6906-.3788-6.095-.717-.9645-.1353-.4473-1.8804.5592-1.691.3355.0676.699.1352 1.0624.2029 1.2861.257 3.9422 1.1634 4.711 1.461.4753.1759.1678.7982-.2376.7441z" fill="#e8a16d"/><path d="m24.646 37.8965 4.1099-2.0292v-.4464h-.4893c-3.9841.9876-6.0111 1.6098-6.0949 1.8804v.0135.0136c-.7829 1.0552-1.2582 6.1688-1.4119 6.5611l1.5097.2165c.5732-2.0698 2.4324-3.5174 2.3765-6.0065 0-.0677.014-.1353 0-.203z" fill="#1f28cf"/><path d="m28.421 39.1004c.3774-.0676.7269-.1352 1.0205-.1893 1.9151-.3247 2.4743-1.3123 2.1388-3.4768h-3.5368c-.5731.1624-3.5786 1.3799-5.1303 2.0292-1.0345.4329-.699 1.9752-.1259 2.3675 0 .027.014.0406.028.0541 3.1313 1.2581 5.6197.5952 6.4444.8117l.3775-1.1635z" fill="#204f01"/><path d="m30.7685 39.8585c.212.0218.3492.0485.4364.0985.1059.0565.2554.1379.4298.2683-.0626.1203-.576 1.1793-1.5714 3.1764-.318-.0479-.4549-.1656-.3859-.3646.0627-.181.1191-.3438.163-.4705l.0471-1.7951c0-.0303.0313-.0601.0625-.0596l.2868.0171c.1686-.1245.2624-.2442.3187-.3464.0376-.0782.0628-.2112.0631-.3932.0064-.0788.0564-.1326.1499-.1309-.0124.0058-.0124.0058 0 0z" fill="#c6f25a"/></g><g filter="url(#f)"><path d="m10.3345 19.9048h5.5078l20.5635 29.5319h-8.9048z" fill="#afe868"/><path d="m27.501 59.5693v-10.1326l-17.1665-29.5319v7.9816l15.7686 31.6829z" fill="#307205"/></g><g filter="url(#g)"><path d="m11.4108 43.1874c1.6775-.2706 2.7959-.4464 3.369-.5411 1.6216-.2706 2.0969-1.1229 1.8173-2.9627h-2.9915c-.3914.1082-2.055.7982-4.96266 2.0563-.51723.257-.41938.9875-.33551 1.2446 0 .0135.8807 1.4745 2.64207 4.3966l2.4464-1.5016-1.9991-2.4892c-.0419-.1217-.0419-.1759.014-.2029z" fill="#47aa0a"/></g><g filter="url(#h)"><path d="m.0593262 25.8035h5.2282438l13.89533 32.8328h-9.43595z" fill="#afe868"/><path d="m9.74695 59.5021v-1.0011l-9.6876238-32.6975v5.4518l7.5487938 28.2468z" fill="#307205"/></g><g filter="url(#i)"><path d="m6.52618 37.3055c0-.0406 0-.0812 0-.1218 0-.0541 0-.0947 0-.1488 0-.1353 0-.2706 0-.4058 0-.1624 0-.3112 0-.4735 0-.1488 0-.2976 0-.4329 0-.0947 0-.2029 0-.2976v-.0677h-1.90118v.1488.3788.487.4735.3653.1082c0 .0947.08388.1218.15378.1488.08387.0271.15377.0406.23765.0677.18173.027.36346.0405.55916.0405.22367 0 .44733-.0135.65702-.0676.05592-.0135.12582-.0271.18174-.0541.05592-.0541.11183-.0812.11183-.1488z" fill="#dffdad"/><path d="m5.57559 35.6144c.525 0 .95059-.1212.95059-.2706s-.42559-.2706-.95059-.2706c-.52499 0-.95059.1212-.95059.2706s.4256.2706.95059.2706z" fill="#47aa0a"/><path d="m5.57559 35.1544c.23765 0 .46132.0271.62907.0677.18173.0541.22366.1082.22366.1217s-.04193.0676-.22366.1218c-.16775.0405-.39142.0676-.62907.0676-.23764 0-.46131-.0271-.62906-.0676-.18173-.0542-.22367-.1083-.22367-.1218s.04194-.0676.22367-.1217c.16775-.0406.39142-.0677.62906-.0677zm0-.0812c-.51723 0-.95059.1218-.95059.2706s.41938.2706.95059.2706c.53122 0 .95059-.1218.95059-.2706s-.41937-.2706-.95059-.2706z" fill="#f2f9e5"/><path d="m4.83459 35.5875c-.04194-.0135-.08387-.0271-.11182-.0135-.01398.0135 0 .0676 0 .0947v.1217.5817.8388c0 .027 0 .0406.01398.0676.01398.0406.09785.0677.13978.0812.01398-.0677 0-.1353 0-.2029 0-.0677 0-.1353 0-.203 0-.1488 0-.2841 0-.4329 0-.2841 0-.5681 0-.8522-.01398-.0542-.02796-.0677-.04194-.0812z" fill="#f2f9e5"/><path d="m6.41401 35.7633c.02796-.0135.04193-.0406.05591-.0541.13979-.1624.41937-.2165.55916-.0271.05592.0812.0699.1624.0699.2571v.2705c0 .1488-.04194.2841-.11183.4194-.05592.1082-.13979.23-.25162.2841-.11184.0676-.22367.1353-.32152.23-.01398.0135-.02796.027-.04194.027-.0699.0271-.08387-.0812-.08387-.1217-.01398-.0542 0-.1218 0-.1759 0-.0406.01398-.0677.02796-.1082 0-.0136.01398-.0406.02795-.0541.01398-.0136.01398 0 .04194 0 .08387.0135.13979-.0136.20969-.0542.08387-.0405.1957-.1217.20968-.2164.04194-.1759.04194-.3517.04194-.5276 0-.0947-.16775-.0947-.22366-.0406-.05592.0406-.11184.1082-.13979.1759-.01398.0406-.00001.0811-.04195.1082-.01398 0-.01397.0135-.02795.0135s-.02796-.0135-.04194-.027c-.04194-.0406-.05592-.0812-.0699-.1353-.01398-.0406-.01397-.0812-.01397-.1082 0-.0406-.00001-.1083.04193-.1353.04194.0135.05592.0135.08388 0z" fill="#59c114"/></g><g filter="url(#j)"><path d="m9.13347 31.6614c.01398.7034.20969 2.2186.51723 2.3809l1.5377-.4329s0 0 0-.0135c.5452-.2164.8528-.8117.685-1.3799l-.3215-1.0687c-.1817-.6087-.8388-.9605-1.4678-.7846l-.11188.027c-.57315.1759-.92263.717-.83875 1.2717z" fill="#204f01"/><path d="m11.2024 32.1891c.1538-.3382.2237-.7305.0839-1.0958-.4054-1.0687-1.90122-.3923-2.05499.2435-.13979.6358.32152 2.0292.7409 2.0157.16779 0 .47529-.1894.75489-.487l.2237 1.5287 1.2721-.3518z" fill="#cb7a43"/><path d="m10.8113 32.1076c.1258.6223.3495 1.3122.5731 1.4204l1.5377-.4329c-.3494-1.461-1.0065-.6764-1.4119-2.0157-.0699-.0406-.1258-.0676-.1957-.0947l-.0139-.0406c-.4194-.4464-.8388-.6223-1.2442-.5005-.61509.1759-.72692.5005-.81079.7846.25162.3788.7409.2976 1.24419.4329.0419-.0541.0978-.0947.1677-.1082.1538-.0406.3215.0406.3774.2029.056.1624-.0559.2976-.2236.3518 0 0 .014-.0136 0 0z" fill="#204f01"/><path d="m9.37123 32.3511c.01398.1623-.04194.3246-.08388.487v.0541c.01398.0135.01398.0135.02796.0135.09786.0136.19572-.0135.26561-.0811" fill="#cb7a43"/><g fill="#204f01"><path d="m9.59443 32.0535c-.1817 0 .1258.2299.05592.0135-.01398-.0135-.02796-.0135-.05592-.0135z"/><path d="m9.67798 33.1227c.06989-.0271.11182-.0542.15376-.1083.04194-.0406.08387-.0947.13979-.1352-.01398.0676-.04194.1352-.09786.1893-.02795.0271-.05591.0542-.09785.0542-.02795.0135-.06988.0135-.09784 0z"/><path d="m9.39844 31.9591c.05591-.0271.09785-.0406.15376-.0541.05592-.0136.12582 0 .16775.0406-.05591.0135-.11183.0135-.15377.027-.04194 0-.11183.0135-.16774-.0135z"/></g></g><g filter="url(#k)"><path d="m10.0416 39.2094-1.84524-.6629c-.78284.0947-1.17426.0812-1.1463-.027.04193-.1623.2656-.1353.30754-.2435s-.22366-.3247-.47529-.5276c-.25162-.2029-.08388-.2435.01398-.2435.37744.0812.79682.23 1.25813.4599l2.26468.2435z" fill="#cb7a43"/><path d="m7.84673 39.0204c-.46131-.1083-.85273-.1353-1.18823-.1083-.64305.0677-.92263.0406-1.35599-.1893-.22367-.1218-.51723-.4465-.41937-.6223.05591-.1218.79681.0676 1.04844.0135.25162-.0541-.18173-.487-.04194-.487.15377-.0541.39142.0947.671.4735l.99253.1082z" fill="#cb7a43"/><path d="m10.8944 38.9795c-.7689.3247-1.87326.1759-2.76794-.1758l.02797-.92c1.16027.203 2.08287-.0135 2.72597-.257.629.2435.6151 1.0958.014 1.3528z" fill="#47aa0a"/><path d="m10.5025 33.7713 1.4818-.5817c.1678-.0677 2.1249 1.5422 2.684 2.8679.5173 1.2176 1.9991 1.5287 2.1948 3.6526-1.0345.2029-3.5088 2.2592-4.4314 1.4475-.4474-.3923-.7409-.9064-.9506-1.4745-.9925.3652-2.3066.5276-3.99809.3652-.18173-.3247-.23765-.974-.16775-1.9345 1.85924-.0812 3.08944-.3382 3.70454-.7846-.1119-1.2311-.1678-2.5163-.5173-3.5579z" fill="#59c114"/></g><g filter="url(#l)"><path d="m30.0857 27.4666c.2936-.3382.5033-.7576.4614-1.2176-.0979-1.3393-2.027-1.0416-2.4044-.3652-.3775.6764-.3355 2.3945.1537 2.5162.1957.0541.6011-.0676 1.0205-.3111l-.2656 1.7992h1.5517z" fill="#e8a16d"/><path d="m34.3208 24.6931c-.1817-.0541-.3635-.0676-.5172.0271-.1678.1082-.3216.2164-.5312.2976-.1958.0676-.3915.1082-.5872.1082-.3914 0-.7828-.1217-1.1603-.2029-.3075-.0676-.643-.1353-.9645-.0676-.1258.027-.3215.0811-.3775.2164.8108.1353 1.1184 1.1093.8947 1.8128-.1258.3788-.8527.8252-1.1463.6223-.1817-.1218-.0699-.2976 0-.4059.1398-.2164.1817-.487-.0699-.6358-.2237-.1217-.4473.1759-.4473.1759-.0559 0-.5732-.2841-.9366-.7035-.3495.0135-.4054-.2029-.3215-.3923.0838-.1894.615-.4194.8946-.46.2097-.027.7549-.0541.8528-.0541.0699 0 .1397.0136.1677-.0406.028-.0405.014-.1217.028-.1758.014-.0677.0279-.1218.0419-.1894.0419-.1759.1118-.3517.2097-.5141.1817-.2976.4333-.5276.7688-.6629.3635-.1488.7689-.1894 1.1603-.1488.4474.0406.8807.1488 1.2721.3653.3635.2029.8108.5546.7689 1.0281z" fill="#204f01"/><path d="m27.9463 26.8037c-.0279.1082-.1537.1894-.2236.2976-.028.0541-.1538.1894-.1398.2571.0279.1488.3634.1758.4473.1894" fill="#e8a16d"/><g fill="#204f01"><path d="m28.4081 26.6814c-.0978-.0271-.0978.0541-.0839.1217.1259.0541.1678-.1082.0839-.1217z"/><path d="m28.1841 26.6004c.0559-.0676.1538-.0947.2516-.0811.0979.027.1678.0946.1957.1758-.0699-.0541-.1398-.0947-.2097-.1082s-.1537-.0135-.2376.0135z"/><path d="m27.988 27.9263c.0979-.0271.1818-.0406.2656-.0677.0839-.027.1678-.0676.2517-.0947-.0559.0812-.1398.1353-.2377.1624-.0839.027-.1817.027-.2796 0z"/></g></g><g filter="url(#m)"><path d="m25.0248 29.8335-1.9011-1.0823c-.8947-.0541-1.3141-.1353-1.2582-.257.0699-.1759.3215-.0947.3914-.2029.0699-.1083-.1677-.4059-.4193-.6764-.2377-.2706-.042-.2841.0699-.2571.4054.1624.8387.4059 1.3.7576l2.4464.717zm1.3001 4.2613-2.041.8253c-.5731.6628-.8946.9334-.9645.8252-.0979-.1624.1258-.3112.0699-.4329-.056-.1218-.4334-.1083-.8108-.0812-.3635.0271-.2656-.1353-.1678-.2029.3775-.2165.8388-.4059 1.3979-.5411l2.0689-1.4611z" fill="#e8a16d"/><path d="m29.0648 29.0626c-1.1183 2.0292-2.7539 3.585-5.1024 5.1948l.8947.974c2.6281-.9469 4.012-1.5151 4.697-3.4361.1678-.487.2936-2.0157.3914-2.8139z" fill="#307205"/><path d="m32.2105 35.813h-4.9766c1.1323-3.3279 1.7054-5.6142 1.7334-6.8587 0-.0677.1258-.1759.1817-.1624.3915.1082.8108.0677 1.2582-.1217 1.1603 1.8398 1.5657 4.1125 1.8033 7.1428z" fill="#f2f2f2"/><path d="m29.9594 28.6837c-1.4258.0135-3.7464.257-6.4164-.5682l-.2657 1.2716c2.0131 1.2581 4.068 2.2322 5.8574 2.0969-.7829 3.2332-.7409 5.8712.9785 5.8712h2.6561c.4194-2.7462-.685-6.5476-1.7195-8.4686-.0419-.0677-.1258-.2165-.3215-.2165-.1677.0136-.4194.0136-.7689.0136z" fill="#47aa0a"/></g><g filter="url(#n)"><path d="m40.7547 18.8036c.2516-.2841.4193-.6223.3914-1.0147-.0839-1.1228-1.6915-.8658-1.9991-.3111-.3075.5547-.2796 1.9886.1258 2.0969.1678.0405.5033-.0541.8528-.2571l-.2237 1.5017h1.3001z" fill="#e8a16d"/><path d="m41.7052 17.4239c.042-.0406.0699-.0947.0839-.1488s.042-.1082.0559-.1759c.028-.1217.028-.257-.0559-.3382-.0699-.0676-.1677-.1082-.2656-.1082-.0699 0-.1258 0-.1957.0271-.0559.0135-.1118.0541-.1678.0811 0-.1217-.0279-.257-.0978-.3652s-.1678-.1624-.2796-.1759c-.1258-.0135-.2376.0135-.3495.0677-.0279.0135-.0559.027-.0839.0405-.0279.0136-.0419.0271-.0699.0406-.0279 0-.0419-.0135-.0559-.027-.0279-.0271-.0419-.0406-.0699-.0677-.1118-.0811-.2516-.1082-.3914-.0676-.0559.027-.1118.0541-.1538.1082-.0419.0406-.0559.1218-.1118.1488-.028.0136-.0419 0-.0559-.0135-.028-.0135-.0559-.0406-.0839-.0676-.0419-.0271-.0839-.0542-.1258-.0542-.0699-.0135-.1677-.0135-.1817.0812-.014.0271 0 .0677 0 .1082 0 .0406 0 .0947.014.1353 0 .0406.0139.0677.0139.1082 0 .0136.014.0542 0 .0677-.0139.027-.0559.0135-.0699.0135-.0419 0-.0838.0135-.1118.0271-.0279.0135-.0559.027-.0699.0676-.014.0135 0 .0406 0 .0541v.0541c-.0559-.027-.2376-.0811-.2516.0136-.014.027.014.0676.0279.0947.028.0405.056.0811.0839.1217.0699.0812.1398.1488.2237.2165-.0979.0405-.1258.1623-.042.2435.042.027.0839.0406.1398.0406.014 0 .042-.0136.056 0 .0139 0 .0139.0135.0279.0135.0699 0 .1398-.0135.2097-.0271.1118-.027.2237-.0811.3215-.1623.028-.0271.042-.0271.0699-.0271.028 0 .0559.0136.0839.0136.0699 0 .1398-.0271.2097-.0542 0 .0812.0279.1894.0699.2571.0279.0676.0978.0676.1537.0811.1958.0136.3915 0 .5872 0-.1957.0406-.3914.0542-.5732.1083-.0838.027-.0139.0811.014.1217.0559.0677.1119.1488.1398.23.0979-.1217.2516-.1894.4054-.1623.1678.0406.2796.257.1678.4058-.056.0947-.1678.1218-.2517.1623.0699.0677.0839.1759.1258.2571.014.0406.056.0947.0979.1082.014 0 .0419 0 .0559.0135.014.0136.014.0406.042.0541.0838.0542.2236.0542.2935-.027.0699-.0676.0559-.1759 0-.2435.0979-.0406.2516-.0812.2237-.2165.1957-.0135.685-.3246.4194-.5546.1398-.0812.2795-.2706.1817-.4464-.1258-.1894-.2936-.2571-.4334-.2571z" fill="#212121"/><path d="m38.9512 18.4116c-.042.1759-.2237.3653-.1818.5682.0839.0406.1957.0135.2936.0135" fill="#e8a16d"/><g fill="#212121"><path d="m39.0066 19.21c.1677.0135.2656-.1353.4054-.1353.0279.1082-.2516.257-.3355.2976"/><path d="m39.3005 18.3301c-.014.0406-.0279.0947-.0139.1353.1118.027.1537-.0406.1398-.1353-.056-.027-.1119-.027-.1398 0"/><path d="m39.1755 18.168c0-.0541.0559-.0947.0979-.1082.0419-.0271.0978-.0271.1538-.0271.0559 0 .0978.0135.1397.0406.042.0271.0839.0676.0839.1217-.0419-.0135-.0838-.027-.1258-.027-.0419 0-.0699-.0135-.1118-.0135-.042 0-.0699 0-.1119 0-.0419 0-.0698 0-.1258.0135z"/></g></g><g filter="url(#o)"><path d="m39.1198 21.3873-1.9291-1.0146c-.3215-.3653-.6291-.6494-.9506-.8523-.0978-.0406-.2656-.0676-.1118.2029.1537.2706.3075.5547.2236.6359-.0838.0811-.2795-.0271-.3774.1082-.0559.0947.2796.23 1.0065.4329l1.3979 1.2446z" fill="#e8a16d"/><path d="m40.1684 21.2386c-.671-.0136-1.5796-.1488-2.5302-.7305l-.3775.8116c.6571.6359 1.5937 1.1635 2.4045 1.1364.643-.0135.9646-.7711.5032-1.2175z" fill="#59c114"/><path d="m32.8014 18.5194c.8667-.1894 1.7194-.4329 2.5861-.6494.1119-.027.5313-.2029.6151-.1623 0 0 .0699.4329.0839.5682.0419.4194.1118.8387.1817 1.2581.042.2841.0839.5411.1119.6629 0 .027.014.0541.014.0676 0 .0406 0 .0677-.014.0947-.0839.0812-.2796-.027-.3775.1083-.0559.0676.1538.1758.5872.3111.2376.5411 1.0624 1.691 1.1463 1.7857-.6571.2841-1.3281.5682-1.9851.8388-.1677.0676-1.1323.5276-1.314.4734-.1678-.0405-.4334-.5681-.5732-.8522-.3355-.6764-.6011-1.3934-.7688-2.1375-.056-.2029-.4614-2.3268-.2936-2.3674z" fill="#dc3579"/><path d="m35.6669 23.7412c-.3634-.257-.6989-.4194-1.0205-.514-.6011-.1624-.8387-.2841-1.1323-.6494-.1538-.1894-.2935-.5817-.1398-.7035.0979-.0811.685.3382.9227.3788.2376.0541.0139-.5005.1398-.4464.1677 0 .3075.2164.4193.6629l.8388.4464z" fill="#e8a16d"/><path d="m38.8958 23.1326c-.7129.1758-1.9152-.0271-3.6066-.6088-.4194.8387-.6151 1.434-.5732 1.7857 1.4399.7305 2.684 1.0552 3.7045 1.0823-.0279.5817.0419 1.1499.2936 1.6504.5032 1.0417 3.4948.0812 4.4873.2706.6291-1.9751-.5871-2.7733-.5871-4.0314 0-1.3799-1.1463-3.5038-1.3141-3.5038h-1.5377c-.0978 1.0417-.5172 2.2051-.8667 3.355z" fill="#70ce33"/></g><g filter="url(#p)"><path d="m57.5011 14.6694c.2376-.2706.4054-.6088.3774-.9875-.0839-1.0823-1.6495-.8523-1.9431-.2977-.3075.5547-.2656 1.9481.1258 2.0428.1538.0406.4893-.0541.8388-.257l-.2097 1.461h1.2581z" fill="#7a380c"/><path d="m55.3622 12.6132c.028-.0946.0979-.1623.1958-.1893.0279 0 .0419-.0136.0698-.0136h.014v-.0135c0-.0135.014-.0271.014-.0406.014-.0541.0559-.0947.0979-.1353.0699-.0676.1817-.1217.2796-.1352.0559 0 .1118 0 .1677.027.028.0135.0559.0271.0839.0406.014 0 .0279.027.0419.027s.028-.027.028-.027c.0839-.0676.1957-.0947.3075-.0947.1258 0 .2516.0135.3495.0812.028.0135.0419.027.0699.0541.014.0135.014.0135.028.027l.0139.0136c.014.0135.014.0135.028.0135.0559-.0271.1118-.0406.1677-.0406.042 0 .0699.0135.0979.0271.014 0 .0419.027.0419.027.014 0 .042-.0135.042-.027.0699-.0271.1398-.0271.1957-.0136.0699.0136.1398.0406.1957.0812.028.0135.0559.0406.0699.0676.014.0136.014.0271.028.0406 0 0 .0139.0136.0139.0271 0 0 .0699-.0406.0839-.0406.0419-.0135.0839-.0135.1118 0 .0699.0271.1398.0812.1818.1218.0279.027.0559.0541.0699.0946.014.0136.0139.0271.0279.0542 0 .0135 0 .0135.014.027 0 .0135.014.0135.028.0135.0559.0136.1118.0542.1537.0947.042.0406.0699.1083.0839.1624v.0135h.014c.014 0 .028 0 .0419.0135.028 0 .0559.0136.0839.0271.0979.0541.1678.1353.2097.2435s.0419.23-.014.3382c-.014.0135-.014.0271-.028.0541 0 .0135-.0139.0135 0 .0135 0 .0136.014.0271.014.0271.014.0406.028.0676.042.1082.0139.0677.0139.1353 0 .1894 0 .0271-.014.0541-.028.0812-.014.0135-.014.027-.028.0406l-.0139.0135s-.014 0-.014.0135c-.014.0136-.014 0 0 .0136 0 .0135.014.0405.0279.0541.014.0135.014.0406.014.0541.014.0406.028.0812.028.1082.014.0812.014.1488-.028.2165-.0139.027-.0419.0541-.0699.0811-.0139.0136-.0279.0136-.0419.0271-.014 0-.014 0-.028.0135v.0271c.014.0811.014.1488 0 .2299-.0279.0677-.0699.1353-.1258.1624-.1118.0812-.2796.0676-.4054.0135-.0279-.0135-.0699-.0406-.0838-.0541-.0699.0947-.2097.0812-.3076.0676-.1258-.027-.2237-.1217-.2796-.2299-.0839.0947-.2516.0676-.3075-.0406-.014-.0271-.028-.0541-.028-.0812 0-.0135 0-.027 0-.0406 0-.0135-.014-.0406-.0279-.0541-.014-.0406-.028-.0676-.028-.1082 0-.0135 0-.0406 0-.0541 0-.0136 0-.0271 0-.0541.028 0 .0699 0 .0979-.0136.0279-.0135.0559-.027.0838-.0541.0559-.0541.0839-.1082.0979-.1758.0419-.1489.0279-.3112-.1258-.3924-.0699-.0405-.2796-.0405-.3635-.0135-.0839.0135-.1817.2029-.1957.2165 0 .0135 0 .027-.014.027-.0279.0135-.0559-.0135-.0699-.027-.0279-.0271-.0419-.0541-.0699-.0812-.0419-.0676-.0699-.1353-.0978-.2165-.014-.0541-.028-.1217-.0559-.1758-.028-.0541-.056-.1082-.1119-.1353-.0559-.0406-.1258-.0541-.1957-.0676-.0699-.0271-.1258-.0542-.1817-.0947-.014-.0136-.028-.0271-.028-.0271 0-.0135-.0139-.0271-.0279-.0271-.014-.0135-.042.0136-.0559.0271-.0699.0406-.1259.1082-.1678.1623-.0419.0677-.0839.1218-.1118.203-.028.0541-.042.1217-.0839.1623-.014.0135-.1538.0271-.1957.0135-.042-.0135-.0979-.0676-.1119-.0947-.0139-.027-.0139-.0541-.0139-.0947 0-.0135.0139-.0406.0139-.0541s.0001-.027.014-.0406c.014-.027.042-.0405.0699-.0541-.0279-.027-.0559-.0541-.0699-.0947-.0139-.0406-.0279-.0811-.0419-.1217 0-.0406 0-.0677.0279-.0947.014-.0271.056-.0541.0839-.0677-.0419-.0405-.0838-.0811-.1258-.1217.0559-.1218.014-.2435.0419-.3518z" fill="#212121"/><path d="m55.7403 14.2231c-.0139.1489-.3075.3518-.2376.5006.0419.0947.2796.1082.3634.1082" fill="#7a380c"/><g fill="#212121"><path d="m56.0619 14.0203c-.1118 0-.1537.1082-.1258.2029.028.0135.1119.0135.1398 0 .014-.0406.014-.1218 0-.1624-.0279 0-.0419-.0135-.0559-.027"/><path d="m55.8232 15.1431c.0699-.0406.1398-.0677.1958-.1083.0698-.0405.1258-.0811.1957-.1217-.028.0812-.0839.1353-.1538.1759-.0699.0405-.1538.0676-.2377.0541z"/><path d="m55.894 13.8715c.0699-.0271.1398-.0406.2097-.0271.042.0135.0699.0271.0979.0541.028.0271.0419.0677.0419.0947-.0279-.027-.0419-.0406-.0699-.0676-.0279-.0135-.0559-.0271-.0838-.0271-.056 0-.1259 0-.1958-.027z"/></g></g><g filter="url(#q)"><path d="m46.7129 37.0745c-.3076.1352-3.397.744-3.397.744s1.6356 1.0417 1.9292 1.204c.2795.1623 3.5367-.7711 3.5367-.7711z" fill="#9b1558"/></g><g filter="url(#r)"><path d="m43.5262 36.6147c.3215.0947 3.4668.3653 3.4668.3653s-1.5097 1.2175-1.7614 1.4069c-.2656.1894-3.6066-.3788-3.6066-.3788z" fill="#dc3579"/></g><g filter="url(#s)"><path d="m57.8079 24.613c-.3356.0541-3.4529-.0271-3.4529-.0271s1.342 1.3664 1.5796 1.5828c.2377.2165 3.5927.0271 3.5927.0271z" fill="#9b1558"/></g><g filter="url(#t)"><path d="m18.9018 30.1045 1.5517 2.665-1.4678-1.5828-1.6356-2.7597z" fill="#9b1558"/><path d="m18.9021 30.1045 1.9851.0271 1.8871 2.7191-2.3205-.0812z" fill="#dc3579"/><path d="m17.3504 28.4272 1.6356 2.7598 1.4678 1.5828 2.3206.0812-.028.1217-2.3485-.0676-1.5098-1.6775-1.6635-2.7598z" fill="#212121"/><g fill="#9b1558"><path d="m19.1675 30.2534h.1118l.1258.1759-.1537-.0135z"/><path d="m19.6284 30.4293-.1538-.0135-.0979-.1624h.1258z"/><path d="m19.8378 30.4293h-.1398l-.0979-.1759h.1258z"/><path d="m20.0617 30.4292h-.1398l-.1118-.1624h.1258z"/><path d="m20.2856 30.4292h-.1538l-.0979-.1624h.1258z"/><path d="m20.509 30.4292h-.1538l-.0979-.1624h.1258z"/><path d="m19.3071 30.5105h.1258l.1119.1623h-.1398z"/><path d="m19.53 30.5105h.1258l.1119.1623h-.1398z"/><path d="m19.7542 30.5105h.1258l.1118.1623h-.1398z"/><path d="m19.978 30.5105h.1258l.1119.1759-.1398-.0136z"/><path d="m20.1875 30.5105h.1398l.1118.1759h-.1398z"/><path d="m20.4116 30.5105h.1398l.1119.1759h-.1398z"/><path d="m19.4607 30.7539h.1258l.1119.1759-.1398-.0136z"/><path d="m19.6838 30.7539h.1258l.1119.1759-.1398-.0136z"/><path d="m19.9084 30.7539.1259.0135.1258.1624h-.1538z"/><path d="m20.1318 30.7676h.1259l.1258.1623h-.1538z"/><path d="m20.3552 30.7676h.1258l.1259.1623h-.1538z"/><path d="m20.5791 30.7676h.1258l.1258.1758-.1537-.0135z"/><path d="m19.6143 31.0112h.1258l.1118.1624h-.1398z"/><path d="m19.8384 31.0112h.1258l.1118.1624h-.1398z"/><path d="m20.0615 31.0112h.1258l.1259.1759-.1538-.0135z"/><path d="m20.2852 31.0112h.1258l.1258.1759h-.1398z"/><path d="m20.5095 31.0247h.1398l.1119.1623h-.1398z"/><path d="m20.7471 31.0247h.1258l.1258.1623h-.1538z"/><path d="m19.7542 31.2544h.1258l.1258.1759-.1538-.0136z"/><path d="m20.1175 31.2544.1118.1759h-.1398l-.0978-.1759z"/><path d="m20.3416 31.2681.1258.1623h-.1537l-.0979-.1623z"/><path d="m20.5789 31.2681.1119.1623h-.1398l-.0979-.1623z"/><path d="m20.8028 31.2681.1258.1758-.1538-.0135-.0978-.1623z"/><path d="m21.0404 31.2681.1259.1758h-.1538l-.1119-.1758z"/><path d="m20.0615 31.7549h.1258l.1119.1759-.1398-.0136z"/><path d="m20.2993 31.7549h.1258l.1119.1759h-.1398z"/><path d="m20.5232 31.7686h.1258l.1258.1623h-.1398z"/><path d="m20.7607 31.7686h.1259l.1258.1758-.1538-.0135z"/><path d="m20.998 31.7686h.1259l.1258.1758h-.1538z"/><path d="m21.2358 31.782h.1259l.1258.1623h-.1538z"/><path d="m19.9216 31.498h.1258l.1119.1759-.1398-.0135z"/><path d="m20.1599 31.5117h.1119l.1258.1623h-.1398z"/><path d="m20.3831 31.5117h.1258l.1258.1623h-.1538z"/><path d="m20.6211 31.5117h.1258l.1258.1759h-.1538z"/><path d="m20.8582 31.5251h.1258l.1258.1624h-.1538z"/><path d="m21.0962 31.5251h.1258l.1258.1624h-.1538z"/><path d="m20.2158 31.9985.1258.0136.1119.1623h-.1398z"/><path d="m20.4531 32.012h.1258l.1119.1623h-.1398z"/><path d="m20.6907 32.012h.1258l.1118.1758-.1398-.0135z"/><path d="m20.9141 32.012.1258.0135.1258.1623h-.1398z"/><path d="m21.1523 32.0259h.1258l.1259.1623h-.1538z"/><path d="m21.3899 32.0259h.1258l.1258.1758-.1538-.0135z"/><path d="m20.3831 32.2556h.1118l.1258.1759h-.1538z"/><path d="m20.6069 32.269h.1259l.1258.1624h-.1538z"/><path d="m20.8445 32.269h.1258l.1258.1759-.1538-.0135z"/><path d="m21.0815 32.269h.1258l.1259.1759h-.1538z"/><path d="m21.3198 32.2827h.1258l.1259.1624h-.1538z"/><path d="m21.5432 32.2827h.1398l.1258.1624h-.1538z"/><path d="m20.5376 32.5127h.1258l.1118.1623h-.1398z"/><path d="m20.7607 32.5127h.1259l.1258.1759-.1538-.0136z"/><path d="m20.998 32.5127.1259.0135.1258.1624h-.1538z"/><path d="m21.2358 32.5264h.1259l.1258.1623h-.1538z"/><path d="m21.4736 32.5264h.1259l.1258.1758-.1538-.0135z"/><path d="m21.6975 32.5264h.1398l.1258.1758h-.1537z"/><path d="m20.9851 31.0245.6011.9064h.4054l-.643-.9199z"/></g></g><path d="m19.1833 58.5007h-9.43599v1.0687h9.43599z" fill="#204f01"/><path d="m73.8559 35.6655h-2.2227v-3.0844h-9.1704v12.5405h-8.2058v7.0617h-.014v-10.8495h-9.7156v10.8495h-7.9681v-2.7462h-9.0586v10.1326h46.3552z" fill="#204f01"/><g filter="url(#u)"><path d="m46.1804 34.3004-2.0829.8387c-.5871.6629-.9226.947-.9925.8388-.0979-.1624.1258-.3112.0699-.4329-.056-.1218-.4474-.1083-.8248-.0812-.3775.027-.2656-.1353-.1817-.2165.3774-.2164.8527-.4058 1.4258-.5546l2.0969-1.4881zm8.4434 3.0167c.0979.1894.7969.7441 1.2722 1.0688.1957.1352.1118.2976.0419.3382-.6011.3517-.9925-.0677-1.5098-.2977-.5591-.257-.5172.46-.9645.2706.1398-.2976.4613-.8523.3075-1.2175-.0699-.1624-.5312-1.5693-1.37-4.2208h1.37c.4334 2.4486.713 3.8014.8527 4.0584z" fill="#ac5419"/><path d="m49.8566 27.6582-.5732-.0947c-2.1108 1.7586-2.9775 5.1542-5.5637 6.9534l.6291.7441c4.4873-.5411 5.6056-4.6672 5.5078-7.6028z" fill="#307205"/><path d="m52.024 33.719c-.1259 1.0146-.3216 1.7451-.6011 2.1916h1.4678c-.2796-.6088-.5592-1.3393-.8667-2.1916z" fill="#212121"/><path d="m50.4165 26.2242c.3075-.3382.5032-.7711.4753-1.2446-.0979-1.3663-2.055-1.0687-2.4464-.3788-.3774.6899-.3355 2.4351.1538 2.5568.1957.0541.6151-.0676 1.0344-.3246l-.2656 1.8263h1.5797z" fill="#ac5419"/><path d="m49.5638 25.1418c-.0559.8117-.2236 1.2176-.4753 1.2176-.3914 0-.7129-.2435-.8946-.2435-.1259 0-.0979.1488-.014.257.0699.0947.4054.1759.4054.3247s-.2656.027-.2656.1217c0 .1353-.042.4059.2097.4059.2516 0 .9785-.0947 1.1043-.46.0839-.23.1398-.7305.1538-1.461h.0419c.2237 0 .3915.1758.3915.3788 0 .1082-.042.2029-.1259.2705.0979.1218.1958.2571.3076.3923.4473-.257.9645-1.0146.5312-1.7316-.1258-.3517-.5871-.5411-.9087-.6223-.2516-.1082-.5312-.1217-.7548-.0541-.4474.0406-.8388.1624-.9506.2435 0 .4059.0839.5276.7688.5141.2097.0947.3355.2435.4753.4464z" fill="#212121"/><path d="m48.235 25.3584c-.1118.1759-.2377.3517-.3635.5276-.1957.257.3076.2435.4474.2164" fill="#ac5419"/><g fill="#212121"><path d="m48.2629 26.6436c.056-.027.1259-.027.1818-.027s.1118 0 .1677-.0136c-.0279.0541-.0978.0812-.1677.0812-.0559 0-.1119-.0135-.1818-.0406z"/><path d="m48.7244 25.3178c-.2377-.0271.1118.3517.0978.0406-.0419-.0135-.0838-.0271-.1258-.0406"/><path d="m48.5149 25.1955c.028-.0406.0699-.0676.1118-.0811.042-.0136.0839-.0136.1258-.0136.042 0 .0839.0136.1259.0271.0419.0135.0838.0541.0978.0947l-.1118.0135c-.042 0-.0699 0-.0979 0-.0279 0-.0699 0-.0978-.0135-.0699-.0135-.1119-.0271-.1538-.0271z"/></g><path d="m52.3451 34.5843c-2.2786 0-3.9561 0-5.0325 0-.2237 0-.1817-.3247-.1538-.487.3775-1.8669 1.8872-3.8961 1.8872-6.5476l1.4539-.2164c1.1882 1.8533 1.6076 4.1531 1.8452 7.251z" fill="#f2f9e5"/><path d="m52.3035 29.1594c.2097-.0541.3774-.1894.5032-.4058.5313-.9199.3356-1.434-.2236-1.6099-.5592-.1758-1.0764.1759-1.9711.1759-.0559 0-.0978 0-.1398.0135l-.4613.0271c-1.3001 4.2749-1.6635 7.1293-1.0764 8.5633h3.9561c.2377.5276.4613.974.671 1.3393h1.0764c.1119-3.1927-.671-5.8848-2.3345-8.1034z" fill="#47aa0a"/></g></g></svg>