<svg fill="none" height="226" width="236" xmlns="http://www.w3.org/2000/svg"><filter id="a" color-interpolation-filters="sRGB" filterUnits="userSpaceOnUse" height="130.503" width="146.609" x="200.823" y="-32.004"><feFlood flood-opacity="0" result="BackgroundImageFix"/><feColorMatrix in="SourceAlpha" result="hardAlpha" values="0 0 0 0 0 0 0 0 0 0 0 0 0 0 0 0 0 0 127 0"/><feOffset dx="1.474" dy="1.474"/><feGaussianBlur stdDeviation="1.474"/><feColorMatrix values="0 0 0 0 0.129412 0 0 0 0 0.129412 0 0 0 0 0.129412 0 0 0 0.4 0"/><feBlend in2="BackgroundImageFix" result="effect1_dropShadow_17863_419991"/><feBlend in="SourceGraphic" in2="effect1_dropShadow_17863_419991" result="shape"/></filter><filter id="b" color-interpolation-filters="sRGB" filterUnits="userSpaceOnUse" height="165.828" width="185.701" x="151.788" y="-6.808"><feFlood flood-opacity="0" result="BackgroundImageFix"/><feColorMatrix in="SourceAlpha" result="hardAlpha" values="0 0 0 0 0 0 0 0 0 0 0 0 0 0 0 0 0 0 127 0"/><feOffset dx="1.474" dy="1.474"/><feGaussianBlur stdDeviation="1.474"/><feColorMatrix values="0 0 0 0 0.129412 0 0 0 0 0.129412 0 0 0 0 0.129412 0 0 0 0.4 0"/><feBlend in2="BackgroundImageFix" result="effect1_dropShadow_17863_419991"/><feBlend in="SourceGraphic" in2="effect1_dropShadow_17863_419991" result="shape"/></filter><filter id="c" color-interpolation-filters="sRGB" filterUnits="userSpaceOnUse" height="37.47" width="48.473" x="157.481" y="67.316"><feFlood flood-opacity="0" result="BackgroundImageFix"/><feColorMatrix in="SourceAlpha" result="hardAlpha" values="0 0 0 0 0 0 0 0 0 0 0 0 0 0 0 0 0 0 127 0"/><feOffset dx="1.474" dy="1.474"/><feGaussianBlur stdDeviation="1.474"/><feColorMatrix values="0 0 0 0 0.129412 0 0 0 0 0.129412 0 0 0 0 0.129412 0 0 0 0.4 0"/><feBlend in2="BackgroundImageFix" result="effect1_dropShadow_17863_419991"/><feBlend in="SourceGraphic" in2="effect1_dropShadow_17863_419991" result="shape"/></filter><filter id="d" color-interpolation-filters="sRGB" filterUnits="userSpaceOnUse" height="178.082" width="157.852" x="99.133" y="18.388"><feFlood flood-opacity="0" result="BackgroundImageFix"/><feColorMatrix in="SourceAlpha" result="hardAlpha" values="0 0 0 0 0 0 0 0 0 0 0 0 0 0 0 0 0 0 127 0"/><feOffset dx="1.474" dy="1.474"/><feGaussianBlur stdDeviation="1.474"/><feColorMatrix values="0 0 0 0 0.129412 0 0 0 0 0.129412 0 0 0 0 0.129412 0 0 0 0.4 0"/><feBlend in2="BackgroundImageFix" result="effect1_dropShadow_17863_419991"/><feBlend in="SourceGraphic" in2="effect1_dropShadow_17863_419991" result="shape"/></filter><filter id="e" color-interpolation-filters="sRGB" filterUnits="userSpaceOnUse" height="52.976" width="56.906" x="95.895" y="108.227"><feFlood flood-opacity="0" result="BackgroundImageFix"/><feColorMatrix in="SourceAlpha" result="hardAlpha" values="0 0 0 0 0 0 0 0 0 0 0 0 0 0 0 0 0 0 127 0"/><feOffset dx="1.474" dy="1.474"/><feGaussianBlur stdDeviation="1.474"/><feColorMatrix values="0 0 0 0 0.129412 0 0 0 0 0.129412 0 0 0 0 0.129412 0 0 0 0.4 0"/><feBlend in2="BackgroundImageFix" result="effect1_dropShadow_17863_419991"/><feBlend in="SourceGraphic" in2="effect1_dropShadow_17863_419991" result="shape"/></filter><filter id="f" color-interpolation-filters="sRGB" filterUnits="userSpaceOnUse" height="189.211" width="126.389" x="48.288" y="36.52"><feFlood flood-opacity="0" result="BackgroundImageFix"/><feColorMatrix in="SourceAlpha" result="hardAlpha" values="0 0 0 0 0 0 0 0 0 0 0 0 0 0 0 0 0 0 127 0"/><feOffset dx="1.474" dy="1.474"/><feGaussianBlur stdDeviation="1.474"/><feColorMatrix values="0 0 0 0 0.129412 0 0 0 0 0.129412 0 0 0 0 0.129412 0 0 0 0.4 0"/><feBlend in2="BackgroundImageFix" result="effect1_dropShadow_17863_419991"/><feBlend in="SourceGraphic" in2="effect1_dropShadow_17863_419991" result="shape"/></filter><filter id="g" color-interpolation-filters="sRGB" filterUnits="userSpaceOnUse" height="41.471" width="44.867" x="38.61" y="127.927"><feFlood flood-opacity="0" result="BackgroundImageFix"/><feColorMatrix in="SourceAlpha" result="hardAlpha" values="0 0 0 0 0 0 0 0 0 0 0 0 0 0 0 0 0 0 127 0"/><feOffset dx="1.474" dy="1.474"/><feGaussianBlur stdDeviation="1.474"/><feColorMatrix values="0 0 0 0 0.129412 0 0 0 0 0.129412 0 0 0 0 0.129412 0 0 0 0.4 0"/><feBlend in2="BackgroundImageFix" result="effect1_dropShadow_17863_419991"/><feBlend in="SourceGraphic" in2="effect1_dropShadow_17863_419991" result="shape"/></filter><filter id="h" color-interpolation-filters="sRGB" filterUnits="userSpaceOnUse" height="161.639" width="94.279" x=".799" y="63.779"><feFlood flood-opacity="0" result="BackgroundImageFix"/><feColorMatrix in="SourceAlpha" result="hardAlpha" values="0 0 0 0 0 0 0 0 0 0 0 0 0 0 0 0 0 0 127 0"/><feOffset dx="1.474" dy="1.474"/><feGaussianBlur stdDeviation="1.474"/><feColorMatrix values="0 0 0 0 0.129412 0 0 0 0 0.129412 0 0 0 0 0.129412 0 0 0 0.4 0"/><feBlend in2="BackgroundImageFix" result="effect1_dropShadow_17863_419991"/><feBlend in="SourceGraphic" in2="effect1_dropShadow_17863_419991" result="shape"/></filter><filter id="i" color-interpolation-filters="sRGB" filterUnits="userSpaceOnUse" height="17.463" width="17.33" x="21.901" y="106.621"><feFlood flood-opacity="0" result="BackgroundImageFix"/><feColorMatrix in="SourceAlpha" result="hardAlpha" values="0 0 0 0 0 0 0 0 0 0 0 0 0 0 0 0 0 0 127 0"/><feOffset dx="1.474" dy="1.474"/><feGaussianBlur stdDeviation="1.474"/><feColorMatrix values="0 0 0 0 0.129412 0 0 0 0 0.129412 0 0 0 0 0.129412 0 0 0 0.4 0"/><feBlend in2="BackgroundImageFix" result="effect1_dropShadow_17863_419991"/><feBlend in="SourceGraphic" in2="effect1_dropShadow_17863_419991" result="shape"/></filter><filter id="j" color-interpolation-filters="sRGB" filterUnits="userSpaceOnUse" height="24.737" width="23.463" x="42.678" y="84.64"><feFlood flood-opacity="0" result="BackgroundImageFix"/><feColorMatrix in="SourceAlpha" result="hardAlpha" values="0 0 0 0 0 0 0 0 0 0 0 0 0 0 0 0 0 0 127 0"/><feOffset dx="1.474" dy="1.474"/><feGaussianBlur stdDeviation="1.474"/><feColorMatrix values="0 0 0 0 0.129412 0 0 0 0 0.129412 0 0 0 0 0.129412 0 0 0 0.4 0"/><feBlend in2="BackgroundImageFix" result="effect1_dropShadow_17863_419991"/><feBlend in="SourceGraphic" in2="effect1_dropShadow_17863_419991" result="shape"/></filter><filter id="k" color-interpolation-filters="sRGB" filterUnits="userSpaceOnUse" height="43.604" width="61.354" x="23.002" y="97.906"><feFlood flood-opacity="0" result="BackgroundImageFix"/><feColorMatrix in="SourceAlpha" result="hardAlpha" values="0 0 0 0 0 0 0 0 0 0 0 0 0 0 0 0 0 0 127 0"/><feOffset dx="1.474" dy="1.474"/><feGaussianBlur stdDeviation="1.474"/><feColorMatrix values="0 0 0 0 0.129412 0 0 0 0 0.129412 0 0 0 0 0.129412 0 0 0 0.4 0"/><feBlend in2="BackgroundImageFix" result="effect1_dropShadow_17863_419991"/><feBlend in="SourceGraphic" in2="effect1_dropShadow_17863_419991" result="shape"/></filter><filter id="l" color-interpolation-filters="sRGB" filterUnits="userSpaceOnUse" height="36.414" width="37.055" x="127.999" y="52.138"><feFlood flood-opacity="0" result="BackgroundImageFix"/><feColorMatrix in="SourceAlpha" result="hardAlpha" values="0 0 0 0 0 0 0 0 0 0 0 0 0 0 0 0 0 0 127 0"/><feOffset dx="1.474" dy="1.474"/><feGaussianBlur stdDeviation="1.474"/><feColorMatrix values="0 0 0 0 0.129412 0 0 0 0 0.129412 0 0 0 0 0.129412 0 0 0 0.4 0"/><feBlend in2="BackgroundImageFix" result="effect1_dropShadow_17863_419991"/><feBlend in="SourceGraphic" in2="effect1_dropShadow_17863_419991" result="shape"/></filter><filter id="m" color-interpolation-filters="sRGB" filterUnits="userSpaceOnUse" height="52.146" width="57.359" x="100.932" y="70.919"><feFlood flood-opacity="0" result="BackgroundImageFix"/><feColorMatrix in="SourceAlpha" result="hardAlpha" values="0 0 0 0 0 0 0 0 0 0 0 0 0 0 0 0 0 0 127 0"/><feOffset dx="1.474" dy="1.474"/><feGaussianBlur stdDeviation="1.474"/><feColorMatrix values="0 0 0 0 0.129412 0 0 0 0 0.129412 0 0 0 0 0.129412 0 0 0 0.4 0"/><feBlend in2="BackgroundImageFix" result="effect1_dropShadow_17863_419991"/><feBlend in="SourceGraphic" in2="effect1_dropShadow_17863_419991" result="shape"/></filter><filter id="n" color-interpolation-filters="sRGB" filterUnits="userSpaceOnUse" height="27.303" width="22.539" x="178.784" y="19.338"><feFlood flood-opacity="0" result="BackgroundImageFix"/><feColorMatrix in="SourceAlpha" result="hardAlpha" values="0 0 0 0 0 0 0 0 0 0 0 0 0 0 0 0 0 0 127 0"/><feOffset dx="1.474" dy="1.474"/><feGaussianBlur stdDeviation="1.474"/><feColorMatrix values="0 0 0 0 0.129412 0 0 0 0 0.129412 0 0 0 0 0.129412 0 0 0 0.4 0"/><feBlend in2="BackgroundImageFix" result="effect1_dropShadow_17863_419991"/><feBlend in="SourceGraphic" in2="effect1_dropShadow_17863_419991" result="shape"/></filter><filter id="o" color-interpolation-filters="sRGB" filterUnits="userSpaceOnUse" height="51.346" width="54.983" x="151.934" y="26.336"><feFlood flood-opacity="0" result="BackgroundImageFix"/><feColorMatrix in="SourceAlpha" result="hardAlpha" values="0 0 0 0 0 0 0 0 0 0 0 0 0 0 0 0 0 0 127 0"/><feOffset dx="1.474" dy="1.474"/><feGaussianBlur stdDeviation="1.474"/><feColorMatrix values="0 0 0 0 0.129412 0 0 0 0 0.129412 0 0 0 0 0.129412 0 0 0 0.4 0"/><feBlend in2="BackgroundImageFix" result="effect1_dropShadow_17863_419991"/><feBlend in="SourceGraphic" in2="effect1_dropShadow_17863_419991" result="shape"/></filter><filter id="p" color-interpolation-filters="sRGB" filterUnits="userSpaceOnUse" height="14.987" width="31.158" x="200.715" y="115.87"><feFlood flood-opacity="0" result="BackgroundImageFix"/><feColorMatrix in="SourceAlpha" result="hardAlpha" values="0 0 0 0 0 0 0 0 0 0 0 0 0 0 0 0 0 0 127 0"/><feOffset dx="1.474" dy="1.474"/><feGaussianBlur stdDeviation="1.474"/><feColorMatrix values="0 0 0 0 0.129412 0 0 0 0 0.129412 0 0 0 0 0.129412 0 0 0 0.4 0"/><feBlend in2="BackgroundImageFix" result="effect1_dropShadow_17863_419991"/><feBlend in="SourceGraphic" in2="effect1_dropShadow_17863_419991" result="shape"/></filter><filter id="q" color-interpolation-filters="sRGB" filterUnits="userSpaceOnUse" height="14.266" width="30.705" x="192.899" y="113.744"><feFlood flood-opacity="0" result="BackgroundImageFix"/><feColorMatrix in="SourceAlpha" result="hardAlpha" values="0 0 0 0 0 0 0 0 0 0 0 0 0 0 0 0 0 0 127 0"/><feOffset dx="1.474" dy="1.474"/><feGaussianBlur stdDeviation="1.474"/><feColorMatrix values="0 0 0 0 0.129412 0 0 0 0 0.129412 0 0 0 0 0.129412 0 0 0 0.4 0"/><feBlend in2="BackgroundImageFix" result="effect1_dropShadow_17863_419991"/><feBlend in="SourceGraphic" in2="effect1_dropShadow_17863_419991" result="shape"/></filter><filter id="r" color-interpolation-filters="sRGB" filterUnits="userSpaceOnUse" height="26.905" width="31.545" x="80.131" y="75.904"><feFlood flood-opacity="0" result="BackgroundImageFix"/><feColorMatrix in="SourceAlpha" result="hardAlpha" values="0 0 0 0 0 0 0 0 0 0 0 0 0 0 0 0 0 0 127 0"/><feOffset dx="1.474" dy="1.474"/><feGaussianBlur stdDeviation="1.474"/><feColorMatrix values="0 0 0 0 0.129412 0 0 0 0 0.129412 0 0 0 0 0.129412 0 0 0 0.4 0"/><feBlend in2="BackgroundImageFix" result="effect1_dropShadow_17863_419991"/><feBlend in="SourceGraphic" in2="effect1_dropShadow_17863_419991" result="shape"/></filter><filter id="s" color-interpolation-filters="sRGB" filterUnits="userSpaceOnUse" height="75.048" width="70.285" x="195.026" y="54.964"><feFlood flood-opacity="0" result="BackgroundImageFix"/><feColorMatrix in="SourceAlpha" result="hardAlpha" values="0 0 0 0 0 0 0 0 0 0 0 0 0 0 0 0 0 0 127 0"/><feOffset dx="1.474" dy="1.474"/><feGaussianBlur stdDeviation="1.474"/><feColorMatrix values="0 0 0 0 0.129412 0 0 0 0 0.129412 0 0 0 0 0.129412 0 0 0 0.4 0"/><feBlend in2="BackgroundImageFix" result="effect1_dropShadow_17863_419991"/><feBlend in="SourceGraphic" in2="effect1_dropShadow_17863_419991" result="shape"/></filter><path d="M343.015 25.266 240.69-23.903h-9.316l-22.419 27.51h-24.162L159.919 29.99h-28.427l-27.846 20.507H76.382L41.301 73.944H15.846L60.36 221.308h62.862l.776-3.439 38.053-3.501.194-23.883h42.059v-14.63h39.216v-21.258h47.163v-19.131h33.919v-24.634h18.413z" fill="#212121"/><g filter="url(#a)"><path d="M202.297 4.044V-30.53L343.01 42.183l-.323 51.893z" fill="#307205"/><path d="M202.297-30.53h26.683l114.03 53.644v19.069z" fill="#afe868"/></g><path d="M198.422 21.613c-1.809-1.063-4.846.313-4.846 1.813 0 4.502 4.264 25.697 4.458 27.01.194 1.313 2.584 1.688 2.714 0 .193-2.689.646-12.004.193-16.256-.193-1.75-.323-3.439-.516-5.002 2.196 3.877 5.685 9.441 10.337 16.694l2.519-1.126c-2.003-6.314-3.618-10.816-4.91-13.38-2.196-4.438-4.199-8.252-5.039-9.628-1.292-2.188-3.683-1.438-4.91-.125z" fill="#b28b67"/><path d="M213.154 41.182 204.497 21.3c-2.068-3.251-7.882.688-7.172 2.563 1.616 4.252 9.756 18.07 10.273 19.32z" fill="#1f28cf"/><path d="M229.176 79.633c4.781-5.69 8.011-9.878 9.756-12.567 2.907-4.689 5.297-8.815 6.008-10.44 1.809-3.815-4.135-5.565-5.427-3.815-2.003 2.689-6.331 11.13-12.921 25.26z" fill="#b28b67"/><path d="m238.996 78.008 8.916-21.695c1.938-3.939-7.301-6.565-8.722-4.69-3.166 4.19-10.725 20.696-11.694 21.946z" fill="#2f3676"/><g filter="url(#b)"><path d="m153.262 32.117.646-37.45L290.68 96.576v58.021z" fill="#307205"/><path d="M153.912-5.334h25.391l153.764 101.91h-42.382z" fill="#afe868"/></g><path d="M201.132 103.955c-2.067-1.188-5.491.312-5.491 2.063 0 5.127 4.845 29.198 5.104 30.698.258 1.501 2.971 1.938 3.101 0 .258-3.064.71-13.63.258-18.506a341.833 341.833 0 0 0-.581-5.627c2.519 4.439 6.46 10.753 11.694 18.944l2.842-1.251c-2.261-7.19-4.135-12.254-5.556-15.255-2.455-5.064-4.781-9.441-5.75-10.941-1.551-2.376-4.199-1.564-5.621-.125z" fill="#b28b67"/><path d="m217.868 126.274-9.885-22.57c-2.391-3.689-8.98.75-8.205 2.876 1.809 4.814 11.112 20.507 11.694 21.945z" fill="#1f28cf"/><g filter="url(#c)"><path d="M158.955 77.605c0 6.44 3.166 21.383 3.166 22.758h6.784c-.97-13.317-1.357-20.07-1.034-20.257.452-.187 17.702 1.688 22.871 1.688 7.494 0 10.595-4.564 10.789-13.004h-14.795c-3.037.312-18.736 3.376-24.551 4.439-2.519.5-3.23 2.626-3.23 4.376z" fill="#204f01"/></g><path d="m209.163 114.775 19.317-9.504v-2.063h-2.326c-18.736 4.627-28.233 7.565-28.685 8.878v.125c-3.683 4.939-5.944 29.01-6.655 30.823l7.107 1.001c2.714-9.754 11.436-16.569 11.177-28.198.065-.437.065-.75.065-1.062z" fill="#204f01"/><path d="M226.866 120.464c1.745-.313 3.424-.626 4.781-.876 8.98-1.5 11.629-6.189 10.079-16.38h-16.604c-2.714.75-16.798 6.439-24.098 9.503-4.846 2.001-3.295 9.253-.582 11.129 0 .125.065.187.129.25 14.731 5.939 26.36 2.813 30.301 3.814l1.809-5.502z" fill="#276002"/><g filter="url(#d)"><path d="M100.607 53.248V19.862L207.79 137.028v55.019z" fill="#307205"/><path d="M100.607 19.862h27.846l124.11 117.166H207.79z" fill="#afe868"/></g><g filter="url(#e)"><path d="M97.37 155.78c3.165-18.882 5.814-31.386 7.364-35.2 1.034-2.501 8.593-2.188 7.689 2.814-.388 2.125-1.809 7.815-3.748 14.255-1.098 3.751-3.876 10.941-7.688 19.131zm46.968-21.257c-1.356-.188-17.056-1.751-28.168-3.314-4.458-.625-2.068-8.691 2.584-7.815 1.551.312 3.23.625 4.91.937 5.944 1.188 18.219 5.377 21.773 6.753 2.196.813.775 3.689-1.099 3.439z" fill="#e8a16d"/><path d="m115.908 121.142 18.994-9.378v-2.063h-2.261c-18.413 4.564-27.781 7.44-28.168 8.69v.126c-3.618 4.876-5.815 28.51-6.526 30.323l6.978 1c2.649-9.566 11.241-16.256 10.983-27.76 0-.312.065-.625 0-.938z" fill="#1f28cf"/><path d="M133.354 126.707c1.745-.313 3.36-.625 4.716-.875 8.852-1.501 11.436-6.065 9.885-16.069H131.61c-2.649.751-16.54 6.378-23.711 9.379-4.781 2-3.23 9.128-.581 10.941 0 .125.064.188.129.25 14.472 5.815 25.972 2.751 29.784 3.751l1.744-5.376z" fill="#204f01"/><path d="M144.203 130.209c.98.101 1.614.225 2.017.456.489.261 1.18.637 1.986 1.24-.289.556-2.662 5.45-7.262 14.68-1.47-.222-2.103-.765-1.784-1.685l.753-2.174.218-8.297c0-.14.145-.278.289-.275l1.325.079c.78-.576 1.213-1.129 1.473-1.601.174-.362.291-.976.292-1.818.03-.364.261-.612.693-.605-.058.027-.058.027 0 0z" fill="#c6f25a"/></g><g filter="url(#f)"><path d="M49.762 37.994h25.455l95.036 136.485h-41.154z" fill="#afe868"/><path d="M129.099 221.308v-46.829L49.762 37.994v36.888l72.876 146.426z" fill="#307205"/></g><g filter="url(#g)"><path d="M54.737 145.595c7.753-1.251 12.922-2.063 15.57-2.501 7.495-1.251 9.692-5.189 8.4-13.692H64.88c-1.81.5-9.498 3.688-22.936 9.503-2.39 1.188-1.938 4.564-1.55 5.752 0 .062 4.07 6.815 12.21 20.32l11.306-6.94-9.238-11.504c-.194-.563-.194-.813.064-.938z" fill="#47aa0a"/></g><g filter="url(#h)"><path d="M2.273 65.253h24.163l64.22 151.741h-43.61z" fill="#afe868"/><path d="M47.046 220.995v-4.626L2.273 65.253V90.45l34.888 130.546z" fill="#307205"/></g><g filter="url(#i)"><path d="M32.161 118.411V109.408h-8.786V118.473c0 .438.388.563.71.688.388.125.711.188 1.099.313.84.125 1.68.187 2.584.187 1.034 0 2.068-.062 3.037-.312.258-.063.581-.125.84-.25.258-.25.516-.376.516-.688z" fill="#dffdad"/><path d="M27.768 110.596c2.427 0 4.393-.56 4.393-1.251 0-.69-1.966-1.25-4.393-1.25s-4.393.56-4.393 1.25c0 .691 1.967 1.251 4.393 1.251z" fill="#47aa0a"/><path d="M27.768 108.47c1.099 0 2.132.125 2.908.312.84.251 1.033.501 1.033.563 0 .063-.194.313-1.033.563-.776.187-1.81.312-2.908.312s-2.132-.125-2.907-.312c-.84-.25-1.034-.5-1.034-.563 0-.062.194-.312 1.034-.563.775-.187 1.809-.312 2.907-.312zm0-.375c-2.39 0-4.393.562-4.393 1.25s1.938 1.251 4.393 1.251 4.393-.563 4.393-1.251-1.938-1.25-4.393-1.25zM24.344 110.471c-.194-.063-.387-.125-.517-.063-.064.063 0 .313 0 .438v7.128c0 .125 0 .187.065.312.065.188.452.313.646.375.065-.312 0-.625 0-.937v-6.878c-.064-.25-.129-.312-.194-.375z" fill="#f2f9e5"/><path d="M31.643 111.283c.13-.063.194-.188.259-.25.646-.751 1.938-1.001 2.584-.125.258.375.323.75.323 1.188v1.25c0 .688-.194 1.313-.517 1.938-.258.5-.646 1.063-1.163 1.313-.516.313-1.033.625-1.486 1.063-.064.063-.129.125-.194.125-.323.125-.387-.375-.387-.563-.065-.25 0-.562 0-.812 0-.188.065-.313.13-.501 0-.062.064-.187.128-.25.065-.062.065 0 .194 0 .388.063.646-.062.97-.25.387-.187.904-.563.968-1 .194-.813.194-1.626.194-2.439 0-.437-.775-.437-1.034-.187-.258.187-.516.5-.646.813-.064.187 0 .375-.193.5-.065 0-.065.062-.13.062s-.129-.062-.194-.125c-.193-.187-.258-.375-.323-.625-.064-.187-.064-.375-.064-.5 0-.188 0-.5.194-.625.193.062.258.062.387 0z" fill="#59c114"/></g><g filter="url(#j)"><path d="M44.21 92.325c.064 3.251.969 10.254 2.39 11.004l7.107-2.001v-.062c2.52-1 3.94-3.751 3.165-6.377l-1.485-4.94c-.84-2.813-3.877-4.439-6.784-3.626l-.517.125c-2.649.813-4.264 3.314-3.877 5.877z" fill="#204f01"/><path d="M53.772 94.763c.711-1.563 1.034-3.376.388-5.064-1.874-4.94-8.786-1.813-9.497 1.125-.646 2.939 1.486 9.379 3.424 9.316.775 0 2.197-.875 3.489-2.25l1.033 7.064 5.88-1.625z" fill="#cb7a43"/><path d="M51.962 94.388c.582 2.876 1.616 6.064 2.65 6.565l7.106-2.001c-1.615-6.752-4.652-3.126-6.525-9.316a5.986 5.986 0 0 0-.905-.437l-.064-.188c-1.939-2.063-3.877-2.876-5.75-2.313-2.843.812-3.36 2.313-3.747 3.626 1.162 1.75 3.424 1.375 5.75 2 .193-.25.452-.437.775-.5.71-.187 1.486.188 1.744.938s-.258 1.376-1.034 1.626c.065-.063 0 0 0 0z" fill="#204f01"/><path d="M45.31 95.514c.064.75-.194 1.5-.388 2.25v.25c.065.063.065.063.13.063.451.063.904-.062 1.227-.375" fill="#cb7a43"/><g fill="#204f01"><path d="M46.34 94.138c-.84 0 .581 1.063.258.062-.064-.062-.13-.062-.258-.062zM46.727 99.077c.323-.125.516-.25.71-.5.194-.188.388-.438.646-.626-.064.313-.194.625-.452.875-.13.125-.258.25-.452.25a.569.569 0 0 1-.452 0zM45.435 93.701c.259-.125.453-.187.711-.25s.582 0 .775.188c-.258.062-.516.062-.71.125-.194 0-.517.062-.775-.063z"/></g></g><g filter="url(#k)"><path d="m48.407 127.212-8.528-3.063c-3.618.438-5.427.375-5.298-.125.194-.75 1.227-.625 1.421-1.126.194-.5-1.033-1.5-2.196-2.438s-.388-1.125.064-1.125c1.745.375 3.683 1.063 5.815 2.125l10.466 1.126z" fill="#cb7a43"/><path d="M38.263 126.337c-2.132-.5-3.941-.625-5.492-.5-2.972.313-4.264.188-6.267-.875-1.033-.563-2.39-2.063-1.938-2.876.259-.563 3.683.313 4.846.062 1.163-.25-.84-2.25-.194-2.25.71-.25 1.809.437 3.1 2.188l4.588.5z" fill="#cb7a43"/><path d="M52.349 126.149c-3.554 1.501-8.657.813-12.792-.813l.129-4.251c5.362.938 9.626-.063 12.598-1.188 2.907 1.125 2.843 5.064.065 6.252z" fill="#47aa0a"/><path d="m50.537 102.078 6.848-2.688c.775-.313 9.82 7.127 12.405 13.255 2.39 5.627 9.238 7.065 10.143 16.88-4.78.938-16.216 10.442-20.48 6.69-2.068-1.813-3.425-4.189-4.394-6.815-4.587 1.689-10.66 2.439-18.477 1.688-.84-1.5-1.099-4.501-.776-8.94 8.593-.375 14.279-1.563 17.121-3.626-.517-5.69-.775-11.629-2.39-16.444z" fill="#59c114"/></g><g filter="url(#l)"><path d="M141.045 72.938c1.356-1.563 2.325-3.501 2.132-5.627-.453-6.19-9.368-4.814-11.113-1.688-1.744 3.126-1.55 11.066.711 11.629.905.25 2.778-.313 4.716-1.438l-1.227 8.315h7.171z" fill="#e8a16d"/><path d="M160.617 60.12c-.84-.25-1.68-.312-2.39.125-.775.5-1.486 1-2.455 1.376-.905.313-1.809.5-2.714.5-1.809 0-3.618-.563-5.362-.938-1.421-.312-2.972-.625-4.458-.312-.581.125-1.486.375-1.744 1 3.747.625 5.168 5.127 4.134 8.378-.581 1.75-3.941 3.814-5.297 2.876-.84-.563-.323-1.376 0-1.876.646-1 .84-2.25-.323-2.938-1.034-.563-2.068.812-2.068.812-.258 0-2.649-1.313-4.328-3.25-1.616.062-1.874-.939-1.486-1.814.387-.875 2.842-1.938 4.135-2.126.969-.125 3.488-.25 3.941-.25.323 0 .646.063.775-.187.129-.188.064-.563.129-.813.065-.313.129-.563.194-.875a8.407 8.407 0 0 1 .969-2.376c.84-1.376 2.003-2.439 3.553-3.064 1.68-.687 3.554-.875 5.363-.687 2.067.187 4.07.687 5.879 1.688 1.68.937 3.747 2.563 3.553 4.751z" fill="#204f01"/><path d="M131.157 69.874c-.129.5-.71.875-1.033 1.375-.129.25-.711.876-.646 1.188.129.688 1.679.813 2.067.876" fill="#e8a16d"/><g fill="#204f01"><path d="M133.291 69.31c-.452-.125-.452.25-.387.563.581.25.775-.5.387-.563zM132.256 68.935c.258-.312.711-.437 1.163-.375.452.125.775.438.904.813-.323-.25-.646-.438-.969-.5s-.711-.063-1.098.062zM131.35 75.064c.452-.125.84-.188 1.227-.313.388-.125.775-.313 1.163-.438-.258.376-.646.626-1.098.75-.388.126-.84.126-1.292 0z"/></g></g><g filter="url(#m)"><path d="m117.656 83.879-8.786-5.002c-4.135-.25-6.073-.625-5.815-1.188.323-.812 1.486-.437 1.809-.937.323-.5-.775-1.876-1.938-3.127-1.098-1.25-.194-1.312.323-1.187 1.874.75 3.876 1.875 6.008 3.5l11.307 3.314zm6.009 19.694-9.433 3.814c-2.649 3.064-4.135 4.314-4.458 3.814-.452-.75.582-1.438.323-2.001-.258-.562-2.002-.5-3.747-.375-1.68.125-1.227-.625-.775-.938 1.744-1 3.876-1.875 6.461-2.5l9.561-6.753z" fill="#e8a16d"/><path d="M136.328 80.316c-5.169 9.378-12.728 16.568-23.582 24.008l4.135 4.502c12.146-4.377 18.542-7.003 21.708-15.88.775-2.252 1.357-9.316 1.809-13.005z" fill="#307205"/><path d="M150.867 111.514h-23c5.233-15.38 7.882-25.947 8.011-31.699 0-.312.582-.812.84-.75 1.809.5 3.747.313 5.815-.563 5.362 8.503 7.236 19.007 8.334 33.012z" fill="#f2f2f2"/><path d="M140.462 78.565c-6.59.063-17.314 1.188-29.654-2.626l-1.228 5.878c9.303 5.814 18.801 10.316 27.07 9.69-3.618 14.943-3.424 27.135 4.523 27.135h12.275c1.938-12.692-3.166-30.26-7.946-39.139-.194-.312-.582-1-1.486-1-.776.062-1.939.062-3.554.062z" fill="#47aa0a"/></g><g filter="url(#n)"><path d="M190.352 32.903c1.163-1.313 1.938-2.876 1.809-4.69-.388-5.189-7.817-4-9.239-1.438-1.421 2.564-1.292 9.191.582 9.691.775.188 2.326-.25 3.941-1.188l-1.034 6.94h6.009z" fill="#e8a16d"/><path d="M194.747 26.526c.194-.188.323-.438.388-.688s.194-.5.258-.813c.13-.563.13-1.188-.258-1.563a1.795 1.795 0 0 0-1.228-.5c-.323 0-.581 0-.904.125-.258.063-.517.25-.775.375 0-.563-.129-1.188-.453-1.688-.323-.5-.775-.75-1.292-.813-.581-.062-1.098.063-1.615.313l-.388.187c-.129.063-.193.125-.323.188-.129 0-.193-.063-.258-.125l-.323-.313a2.057 2.057 0 0 0-1.809-.312c-.258.125-.517.25-.711.5-.193.187-.258.563-.517.688-.129.062-.193 0-.258-.063-.129-.062-.258-.187-.388-.312-.193-.126-.387-.25-.581-.25-.323-.063-.775-.063-.84.375-.065.125 0 .312 0 .5 0 .187 0 .437.065.625 0 .188.064.313.064.5 0 .063.065.25 0 .313-.064.125-.258.062-.323.062-.194 0-.387.063-.517.125-.129.063-.258.125-.323.313-.064.062 0 .187 0 .25v.25c-.258-.125-1.098-.375-1.163.063-.064.125.065.312.13.437l.387.563a7.68 7.68 0 0 0 1.034 1c-.452.188-.581.75-.194 1.126.194.125.388.187.646.187.065 0 .194-.062.259 0 .064 0 .064.063.129.063.323 0 .646-.063.969-.125a3.703 3.703 0 0 0 1.486-.75c.129-.126.194-.126.323-.126s.258.063.388.063c.323 0 .646-.125.969-.25 0 .375.129.875.323 1.188.129.312.452.312.71.375.905.062 1.809 0 2.714 0-.905.187-1.809.25-2.649.5-.388.125-.065.375.065.563.258.312.517.687.646 1.063.452-.563 1.163-.876 1.873-.75.776.187 1.292 1.187.776 1.875-.259.438-.776.563-1.163.75.323.313.387.813.581 1.188.065.188.259.438.452.5.065 0 .194 0 .259.063.064.062.064.187.194.25.387.25 1.033.25 1.356-.125.323-.313.259-.813 0-1.126.453-.187 1.163-.375 1.034-1 .905-.062 3.166-1.5 1.938-2.563.646-.375 1.292-1.25.84-2.063-.581-.876-1.357-1.188-2.003-1.188z" fill="#212121"/><path d="M182.019 31.09c-.194.813-1.034 1.688-.84 2.626.388.187.905.062 1.357.062" fill="#e8a16d"/><g fill="#212121"><path d="M182.275 34.78c.776.062 1.228-.626 1.874-.626.129.5-1.163 1.188-1.551 1.376M183.634 30.714c-.064.188-.129.438-.064.626.517.125.71-.188.646-.626-.259-.125-.517-.125-.646 0M183.055 29.964c0-.25.258-.438.452-.5.194-.125.452-.125.711-.125.258 0 .452.062.646.187.193.125.387.313.387.563-.194-.062-.387-.125-.581-.125s-.323-.063-.517-.063h-.517c-.194 0-.323 0-.581.063z"/></g></g><g filter="url(#o)"><path d="m182.795 44.844-8.916-4.689c-1.486-1.688-2.907-3-4.393-3.939-.453-.187-1.228-.312-.517.938.71 1.25 1.421 2.564 1.034 2.939-.388.375-1.293-.125-1.745.5-.258.437 1.292 1.063 4.652 2l6.461 5.753z" fill="#e8a16d"/><path d="M187.643 44.157c-3.101-.063-7.3-.688-11.693-3.376l-1.745 3.751c3.037 2.939 7.365 5.377 11.113 5.252 2.971-.063 4.457-3.564 2.325-5.627z" fill="#59c114"/><path d="M153.595 31.59c4.006-.875 7.947-2 11.952-3.001.517-.125 2.455-.938 2.843-.75 0 0 .323 2 .387 2.625.194 1.939.517 3.877.84 5.815.194 1.313.388 2.5.517 3.063 0 .126.065.25.065.313 0 .188 0 .313-.065.438-.387.375-1.292-.125-1.744.5-.259.313.711.813 2.713 1.438 1.099 2.5 4.91 7.815 5.298 8.253a570.44 570.44 0 0 1-9.174 3.876c-.775.313-5.233 2.439-6.073 2.189-.775-.188-2.003-2.626-2.649-3.94-1.55-3.125-2.778-6.44-3.553-9.878-.259-.938-2.132-10.754-1.357-10.941z" fill="#dc3579"/><path d="M166.837 55.723c-1.679-1.188-3.23-1.938-4.716-2.376-2.778-.75-3.876-1.313-5.233-3-.711-.876-1.357-2.69-.646-3.252.452-.375 3.166 1.563 4.264 1.75 1.098.25.065-2.313.646-2.063.775 0 1.421 1 1.938 3.064l3.877 2.063z" fill="#e8a16d"/><path d="M181.761 52.91c-3.295.812-8.851-.126-16.668-2.814-1.939 3.876-2.843 6.627-2.649 8.253 6.654 3.376 12.404 4.877 17.12 5.002-.129 2.688.194 5.314 1.357 7.627 2.326 4.815 16.152.376 20.739 1.25 2.907-9.127-2.713-12.816-2.713-18.63 0-6.378-5.298-16.194-6.074-16.194h-7.106c-.453 4.814-2.391 10.191-4.006 15.506z" fill="#70ce33"/></g><g filter="url(#p)"><path d="M217.889 117.344c-1.421.626-15.7 3.439-15.7 3.439s7.559 4.814 8.916 5.565c1.292.75 16.346-3.564 16.346-3.564z" fill="#9b1558"/></g><g filter="url(#q)"><path d="M203.16 115.219c1.485.437 16.022 1.688 16.022 1.688s-6.977 5.627-8.14 6.502c-1.228.875-16.669-1.751-16.669-1.751z" fill="#dc3579"/></g><g filter="url(#r)"><path d="m89.357 85.13 7.171 12.318-6.783-7.315-7.56-12.755z" fill="#9b1558"/><path d="m89.357 85.13 9.175.126 8.721 12.567-10.724-.375z" fill="#dc3579"/><path d="m82.187 77.38 7.559 12.754 6.784 7.315 10.724.375-.129.563-10.854-.313-6.977-7.753-7.689-12.754z" fill="#212121"/><g fill="#9b1558"><path d="M90.584 85.82h.517l.581.812-.71-.062zM92.714 86.632l-.71-.063-.453-.75h.581zM93.682 86.632h-.646l-.452-.813h.582zM94.718 86.632h-.646l-.517-.75h.581zM95.75 86.632h-.71l-.452-.75h.581zM96.784 86.632h-.71l-.453-.75h.582zM91.23 87.007h.582l.517.75h-.646zM92.26 87.007h.581l.517.75h-.646zM93.297 87.007h.581l.517.75h-.646zM94.33 87.007h.582l.516.813-.646-.063zM95.297 87.007h.646l.517.813h-.646zM96.334 87.007h.646l.517.813h-.646zM91.94 88.132h.58l.518.813-.646-.062zM92.97 88.132h.582l.517.813-.646-.062zM94.008 88.132l.581.063.582.75h-.711zM95.041 88.195h.582l.581.75h-.71zM96.074 88.195h.582l.581.75h-.71zM97.107 88.195h.582l.581.813-.71-.062zM92.648 89.321h.582l.517.75H93.1zM93.684 89.321h.581l.517.75h-.646zM94.715 89.321h.581l.582.813-.71-.063zM95.75 89.321h.582l.58.813h-.645zM96.787 89.383h.646l.517.75h-.646zM97.885 89.383h.581l.582.75h-.711zM93.297 90.446h.581l.582.812-.71-.062zM94.976 90.446l.517.812h-.646l-.452-.812zM96.011 90.508l.582.75h-.711l-.452-.75zM97.107 90.508l.517.75h-.646l-.453-.75zM98.142 90.508l.581.813-.71-.063-.453-.75zM99.24 90.508l.581.813h-.71l-.517-.813zM94.715 92.76h.581l.517.812-.646-.062zM95.816 92.76h.582l.517.812h-.646zM96.85 92.821h.581l.582.75h-.647zM97.947 92.821h.582l.581.813-.71-.063zM99.045 92.821h.581l.582.813h-.71zM100.143 92.884h.581l.582.75h-.711zM94.07 91.572h.582l.517.812-.646-.062zM95.17 91.633h.517l.581.75h-.646zM96.201 91.633h.582l.581.75h-.71zM97.3 91.633h.582l.582.813h-.711zM98.397 91.696h.581l.581.75h-.71zM99.498 91.696h.581l.582.75h-.71zM95.43 93.884l.581.063.517.75h-.646zM96.525 93.947h.582l.517.75h-.646zM97.623 93.947h.582l.516.813-.646-.063zM98.656 93.947l.582.062.581.75h-.646zM99.756 94.01h.581l.582.75h-.711zM100.854 94.01h.581l.581.812-.71-.062zM96.201 95.072h.517l.582.813h-.711zM97.236 95.135h.582l.581.75h-.71zM98.334 95.135h.582l.58.813-.71-.063zM99.43 95.135h.581l.582.813h-.711zM100.531 95.197h.582l.581.75h-.711zM101.564 95.197h.646l.582.75h-.711zM96.916 96.26h.582l.516.75h-.646zM97.947 96.26h.582l.581.813-.71-.062zM99.045 96.26l.581.063.582.75h-.71zM100.143 96.323h.581l.582.75h-.711zM101.242 96.323h.582l.581.813-.71-.063zM102.275 96.323h.646l.582.813h-.711zM98.984 89.383l2.779 4.189h1.873l-2.972-4.252z"/></g></g><path d="M90.658 216.368h-43.61v4.939h43.61zM343.334 110.831h-10.273V96.576h-42.382v57.958h-37.924v32.637h-.065v-50.143h-44.901v50.143h-36.826v-12.692h-41.865v46.829h214.236z" fill="#204f01"/><g filter="url(#s)"><path d="m215.426 104.521-9.626 3.876c-2.713 3.064-4.264 4.376-4.587 3.876-.452-.75.581-1.438.323-2-.258-.563-2.067-.501-3.812-.376-1.744.125-1.227-.625-.84-1 1.745-1 3.941-1.876 6.59-2.563l9.691-6.878zm39.023 13.942c.452.875 3.682 3.439 5.879 4.939.905.625.517 1.376.194 1.563-2.778 1.626-4.587-.312-6.978-1.375-2.584-1.188-2.39 2.126-4.458 1.25.647-1.375 2.133-3.939 1.422-5.627-.323-.75-2.455-7.252-6.332-19.507h6.332c2.003 11.317 3.295 17.569 3.941 18.757z" fill="#ac5419"/><path d="m232.417 73.822-2.649-.437c-9.755 8.128-13.761 23.82-25.713 32.136l2.907 3.439c20.739-2.501 25.907-21.57 25.455-35.138z" fill="#307205"/><path d="M235.004 67.196c1.421-1.563 2.326-3.564 2.197-5.752-.453-6.315-9.498-4.94-11.307-1.75-1.744 3.188-1.55 11.253.711 11.816.905.25 2.843-.313 4.781-1.5l-1.227 8.44h7.3z" fill="#ac5419"/><path d="M231.064 62.194c-.259 3.751-1.034 5.627-2.197 5.627-1.809 0-3.295-1.125-4.135-1.125-.581 0-.452.687-.065 1.188.323.437 1.874.812 1.874 1.5s-1.227.125-1.227.563c0 .625-.194 1.875.969 1.875s4.522-.437 5.104-2.125c.387-1.063.646-3.377.71-6.753h.194c1.034 0 1.809.813 1.809 1.75 0 .501-.194.939-.581 1.251.452.563.904 1.188 1.421 1.813 2.067-1.187 4.458-4.689 2.455-8.002-.582-1.626-2.714-2.501-4.199-2.876-1.163-.5-2.456-.563-3.489-.25-2.068.187-3.877.75-4.393 1.125 0 1.876.387 2.438 3.553 2.376.969.437 1.55 1.125 2.197 2.063z" fill="#212121"/><path d="M224.923 63.194c-.517.813-1.098 1.626-1.68 2.439-.904 1.188 1.422 1.125 2.068 1" fill="#ac5419"/><g fill="#212121"><path d="M225.053 69.134c.258-.125.581-.125.84-.125.258 0 .516 0 .775-.063-.129.25-.452.375-.775.375-.259 0-.517-.062-.84-.187zM227.185 63.007c-1.099-.125.516 1.626.452.188l-.582-.188M226.217 62.444c.129-.187.323-.312.517-.375.193-.062.387-.062.581-.062s.388.062.582.125c.193.062.387.25.452.437l-.517.063h-.452c-.13 0-.323 0-.453-.063-.323-.062-.516-.125-.71-.125z"/></g><path d="M243.917 105.834h-23.258c-1.034 0-.84-1.501-.711-2.251 1.745-8.628 8.722-18.006 8.722-30.26l6.719-1c5.492 8.565 7.43 19.194 8.528 33.511z" fill="#f2f9e5"/><path d="M243.726 80.763c.969-.25 1.744-.875 2.325-1.876 2.455-4.251 1.551-6.627-1.033-7.44-2.585-.813-4.975.813-9.11.813-.258 0-.452 0-.646.063l-2.132.125c-6.008 19.757-7.688 32.949-4.975 39.576h18.284c1.098 2.438 2.132 4.502 3.101 6.19h4.975c.517-14.755-3.101-27.197-10.789-37.45z" fill="#47aa0a"/></g></svg>