<svg height="320" viewBox="0 0 248 320" width="248" xmlns="http://www.w3.org/2000/svg"><g fill="none" transform="translate(29.8712 36.000007)"><path d="m1.8231 75.0599927 54.8446-8.21 2.8106-22.0095.5318-12.4191-1.5193-25.18310003-47.856 1.3799-4.7097 2.75980003-2.2789 7.5204 1.5193 12.9711.5317 12.557-.5317 10.1423-1.1394 10.2802z" fill="#3d2884"/><path d="m56.6646 66.8489927-1.8991-.414c0-.069 2.5827-9.7282 3.2664-14.9718 1.3673-10.1422 1.3673-21.6644-.076-36.0843v-.207c-.3798-3.7947-.8355-8.07240003 1.2914-11.72910003 1.1394-2.0009 3.6462-3.7947 6.2289-3.1048 2.8106.759 4.0256 4.1397 4.7856 6.4165.076.276.152.483.228.69l-1.8232.5519c-.076-.2069-.1519-.4829-.2279-.7589-.6837-1.8629-1.6711-4.7606-3.4942-5.2436-1.5193-.414-3.1145.8279-3.9501 2.2768-1.8231 3.1048-1.4433 6.96850003-1.0635 10.69420003v.207c1.4433 14.5579 1.5193 26.1491.076 36.4983-.7596 5.3126-3.2664 14.7648-3.3423 15.1788z" fill="#fff"/><path d="m8.5088 8.47949267 1.975-.483 53.2493-7.9344s4.5578-1.2419 6.6847 7.3824l-54.8445 8.27940003s-1.1395-3.2427-1.3674-3.5877c-.6077-1.1729-1.5192-2.20780003-2.6587-2.96680003-.8355-.6209-1.899-.5519-3.0384-.6899z" fill="#d6cde4"/><path d="m70.3158 6.86529267-54.7285 8.51850003.1411.748 54.7284-8.51850003z" fill="#564394"/><path d="m6.529 133.290993c-.076 0-.076 0-.152 0-.9115-.069-1.5952-.828-1.5192-1.656l9.9511-109.4945003c.0759-.8279.9115-1.4489 1.823-1.3799.9116.069 1.5952.8279 1.5193 1.6559l-9.9511 109.4945003c-.1519.759-.8355 1.38-1.6711 1.38z" fill="#efe8f4"/><path d="m5.6937 132.186993c-.2279 0-.4558-.207-.3798-.414l9.951-105.5618003c0-.207.2279-.345.4558-.345.2278 0 .3798.207.3798.414l-9.951 105.5618003c0 .207-.2279.345-.4558.345z" fill="#bcb1d4"/><path d="m34.1045 158.818993c-.9115 0-1.5952-.621-1.6712-1.449l-1.899-68.4420003c0-.828.6837-1.518 1.5952-1.518.9116 0 1.6712.621 1.6712 1.449l1.899 68.4420003c.076.828-.6077 1.518-1.5952 1.518z" fill="#efe8f4"/><path d="m33.4993 157.783993c-.2278 0-.3798-.138-.3798-.345l-2.0509-69.1320003c0-.207.1519-.414.3798-.414s.4558.138.4558.345l2.0509 69.1320003c-.076.276-.2279.414-.4558.414z" fill="#bcb1d4"/><path d="m88.7238 143.295993c-.76 0-1.519-.483-1.595-1.242l-12.154-61.4060003c-.152-.828.456-1.587 1.367-1.725.912-.138 1.747.414 1.899 1.242l12.154 61.4060003c.152.828-.456 1.587-1.367 1.725-.076 0-.228 0-.304 0z" fill="#efe8f4"/><path d="m88.1168 142.398993c-.228 0-.38-.138-.38-.276l-13.446-68.0980003c-.075-.207.076-.414.304-.414.228-.069.456.069.456.276l13.445 68.0980003c.076.138-.076.345-.379.414.076 0 .076 0 0 0z" fill="#bcb1d4"/><path d="m15.7266 15.7242927 11.4703 74.4457 56.1359-11.039-12.914-71.96210003z" fill="#efe8f4"/><path d="m15.6481 15.7237927c-.6077-2.6218-2.0509-6.34760003-5.0134-7.10650003-2.5828-.6899-5.0895 1.1039-6.2289 3.10480003-2.127 3.5877-1.6712 7.8654-1.2914 11.7291v.207c1.4433 14.4199 1.5192 25.9421.0759 36.0843-.6836 5.2435-3.1144 14.4195-3.1903 14.4885l1.7471.828c.0759-.414 2.5827-9.797 3.3423-15.1095 1.4433-10.2802 1.3673-21.8714-.076-36.4983v-.207c-.3798-3.7257-.7596-7.5894 1.0635-10.6942.8356-1.4489 2.5067-2.69080003 3.95-2.2768 4.2539 1.1729 4.3299 9.3143 4.8616 12.764.9116 5.8646 1.8231 11.7292 2.8106 17.5937 1.1394 7.1755 2.2789 14.351 3.4183 21.5264.9875 6.2097 1.975 12.3497 2.9625 18.5597.4558 2.898.6837 4.554 1.1394 7.451l.152 1.311 1.8231.69c-.3798-2.415-.7597-4.76-1.1395-7.175-.9115-5.727-1.7471-11.522-2.6586-17.249-1.0635-7.0374-2.2029-14.0749-3.2664-21.1124-.9875-6.2095-1.8991-12.419-2.8866-18.6286-.5317-3.3117-.8356-6.6235-1.5192-9.9352 0-.069 0-.207-.076-.345z" fill="#564394"/><g fill="#ea931f"><path d="m25.219 23.3817927c.7596 1.1039.8356 2.4838.8356 3.7257.0759-.069.2278-.138.3038-.207-.6837.207-1.4433.138-2.1269.138-.2279 0-.6837.276-.3039.276.8356 0 1.6712.069 2.5068-.138.0759 0 .3038-.069.3038-.207.076-1.2419-.0759-2.6218-.8356-3.7257-.1519-.207-.7596 0-.6836.138z"/><path d="m23.8542 23.5890927c1.1394 0 2.2029-.414 3.3423-.4829.3039 0 .5317-.414.076-.345-1.0635.069-2.127.4829-3.1905.4829-.2278 0-.6076.345-.2278.345z"/><path d="m28.0313 24.9695927c.8356.138 1.8231-.2069 1.5952-1.1039 0-.069-.076-.069-.1519-.069-.8356-.2069-1.975 0-1.8991 1.035.076.6899.6077 1.5179 1.4433 1.4489.6077-.069 1.0635-.483 1.3673-.966.152-.276-.5317-.207-.6077 0-.1519.207-.3798.69-.7596.621-.3039-.069-.5317-.414-.6837-.69-.1519-.2759-.2279-.6209-.0759-.9659.1519-.345.4557-.207.7596-.138-.076 0-.0759-.069-.1519-.069.076.414-.076.69-.5318.621-.1519 0-.3798 0-.4558.138.076 0 .0001.069.152.1379z"/><path d="m25.9029 29.4532927c0 1.3109-.076 4.8987 2.4307 3.7258.3798-.207.076-.483-.3038-.345-1.5952.7589-1.4433-2.7598-1.4433-3.4498-.0759-.3449-.6836-.207-.6836.069z"/><path d="m26.0565 31.1784927h1.2154c.1519 0 .3798-.069.4558-.138.076-.138-.076-.207-.1519-.207-.3798 0-.8356 0-1.2154 0-.152 0-.3798.069-.4558.138-.076.138.076.207.1519.207z"/><path d="m28.4854 30.5581927c-.076.9659.4557 2.6908 1.899 2.2768 1.5193-.4829.5317-2.1388.9875-3.1047.1519-.345-.5317-.276-.6077-.069-.3038.7589.076 1.6558-.1519 2.4148-.3038.6899-.9115.276-1.1394-.207-.2279-.414-.3039-.8969-.2279-1.3109-.076-.345-.7596-.276-.7596 0z"/><path d="m27.8065 36.9744927c.2279.7589.2279 1.5868.3798 2.3458.076.276.6837.138.6837-.138-.152-.759-.2279-1.5869-.3798-2.3458-.076-.345-.7597-.138-.6837.138z"/><path d="m27.4992 35.7325927v.3449c0 .138.6836.069.6836-.1379 0-.138 0-.207 0-.345 0-.207-.6836-.069-.6836.138v.3449c0 .138.6836.069.6836-.1379 0-.138 0-.207 0-.345 0-.207-.6836-.069-.6836.138z"/><path d="m28.6359 35.0424927c-.1519 1.3109.6837 2.4838.9875 3.7947 0 .138.3039.138.3798.069.3039-.069.6077-.069.9115-.138.3798-.0689.3039-.4139-.0759-.3449-.3039.069-.6077.069-.9116.138.152 0 .2279.069.3798.069-.3038-1.2419-1.1394-2.3459-.9874-3.6568 0-.2759-.6837-.2069-.6837.069z"/><path d="m33.7298 33.5938927c0 2.1388-.3038 4.3467-.3038 6.4855.2279-.069.4557-.138.6836-.138 0-.069 0-.069 0-.138 0-.138-.6836-.069-.6836.138v.138c0 .138.6836.069.6836-.138 0-2.1388.2279-4.3467.3039-6.4855-.076-.207-.6837-.069-.6837.138z"/><path d="m35.4747 36.0078927c.8356.1379 1.8991-.138 1.5953-1.104 0-.0689-.076-.069-.152-.069-.3798-.0689-.7596-.0689-1.1394 0-.076 0-.3039.069-.3039.207-.1519.69-.3797 1.5179.6078 1.8629.5317.207 1.5192.138 1.6711-.483.0759-.207-.6077-.069-.6836.069-.152.483-.8356 0-.9875-.276-.2279-.4139-.076-.8969 0-1.3109-.076.069-.2279.138-.3039.207.2279-.069.4558 0 .6837 0-.076 0-.076-.069-.152-.069.076.138.152.414 0 .621-.1519.138-.3798.069-.5317.069-.076-.069-.6837.207-.3039.276z"/><path d="m36.993 33.1788927c.2278 1.2419.7596 2.4148 1.2913 3.5877 0 .069.1519.138.2279.138.2279 0 .4558.069.7596 0 .3798 0 .5318-.414.076-.414-.2279 0-.3798 0-.6077 0 .076.069.1519.069.2279.138-.4558-1.1729-1.0635-2.3458-1.2914-3.5877-.0759-.207-.7596-.069-.6836.138z"/><path d="m39.0452 32.7652927c0 1.4489.3798 2.7598.6836 4.1397.076.138.3798.138.4558.069.1519-.069.4558-.138.6837-.207.4557-.138.0759-.483-.3039-.345-.3038.138-.3798.138-.6836.207.1519 0 .3038.069.4557.069-.3038-1.3799-.6836-2.6218-.6836-4.0707.0759-.207-.6077-.069-.6077.138z"/><path d="m41.3983 35.1113927c.8356.138 1.6712-.207 1.4433-1.1039 0-.069-.076-.069-.152-.069-.4557 0-.9874.069-1.2913.4829-.2279.414-.2279.897-.1519 1.3109 0 0 0 .069.0759.069.6837.207 1.5952.276 2.051-.3449.076-.069 0-.138-.0759-.138-.152 0-.3039 0-.3798 0-.152 0-.7597.207-.4558.276h.3798c0-.069-.076-.069-.076-.138-.1519.138-.2279.2069-.4558.2069-.0759 0-.3038.0001-.3798-.0689-.0759-.069-.0759-.345-.0759-.483 0-.207.0759-.8969.3798-.8969-.076 0-.076-.069-.1519-.069 0 .138.0759.3449 0 .4829-.076.207-.152.207-.3799.138-.0759.069-.6836.345-.3038.345z"/><path d="m28.4078 44.8399927c4.1779-.276 8.2039-1.5869 12.3818-1.9319.2279 0 .6837-.3449.3039-.2759-4.178.3449-8.2039 1.6558-12.3818 1.9318-.2279 0-.7597.276-.3039.276z"/><path d="m29.1714 49.0485927c4.7856-.345 9.3433-2.4838 14.0529-3.5188.3798-.069.3039-.4139-.0759-.3449-4.5577 1.0349-9.1914 3.1047-13.8251 3.4497-.4558.069-.6077.483-.1519.414z"/><path d="m29.9316 53.2572927c5.0894-.276 10.1789-.483 14.9645-2.3458.4558-.138 0-.276-.2279-.138-4.5577 1.7938-9.5712 2.0008-14.4327 2.2078-.2279 0-.7597.276-.3039.276z"/><path d="m29.6238 58.2248927c-.1519.8279.0759 2.2768 1.2913 2.2078 1.5192-.138 1.4433-1.6559 1.2154-2.6218-.0759-.207-.6836-.069-.6836.138.0759.4139.3798 2.2768-.6077 2.0698-.6837-.207-.6837-1.3799-.6077-1.8628.0759-.207-.6077-.138-.6077.069z"/><path d="m33.1954 57.3969927c-.152.8279-.2279 1.6559-.1519 2.4838 0 .207.6076.069.6836-.138.076-.4829-.076-.8969-.1519-1.3799-.076-.345 0-1.7249.8356-1.2419.3798.207.3038.9659.3038 1.3109 0 .414-.076.828 0 1.2419 0 .207.6837.069.6837-.138-.076-.8279.5317-2.8288-1.0635-2.8288-.6837 0-1.2914.345-1.3673.966-.1519.6899.2279 1.4489.1519 2.1388.2279-.069.4558-.069.6837-.138-.076-.8279 0-1.5869.1519-2.4148-.076-.207-.7596-.138-.7596.138z"/><path d="m37.1478 58.7765927c0 .414-.1519.8279-.6076 1.0349.1519 0 .2278 0 .3798-.069v-.1379c0-.138-.6837 0-.6837.1379 0 .138-.076.207.1519.207s.5318-.138.6837-.207c.4558-.2759.6836-.6899.6836-1.1729 0-.069-.6077.069-.6077.207z"/><path d="m41.7046 55.9479927c-1.7471-.552-2.3548 1.1729-2.4308 2.4148h.076c.9116.276 2.051.207 2.2789-.8279.2279-1.1729-.3039-2.3459-.076-3.5188 0-.138-.6077-.069-.6836.138-.2279 1.0349.2279 2.0699.1519 3.1048 0 .345-.3039 1.5869-.9875.9659-.4558-.345.2279-2.3458.9875-2.0698.3038.069.7596-.207.6836-.207z"/><path d="m42.4627 56.7065927c.6077.138 1.4433.0691 1.6712-.5519.2278-.621-.4558-.8969-1.0635-.8279-.1519 0-.3798.069-.4558.2069-.1519.552-.8355 1.5869 0 2.0009.6837.345 1.7471-.069 2.1269-.69.152-.2069-.5317-.1379-.6076 0-.3039.414-1.1394.69-1.2154 0-.076-.4829.2279-.9659.3798-1.3798-.1519.0689-.3039.1379-.4558.2069.3039 0 .6837.069.6837.414 0 .276-.2279.483-.5318.345-.1519-.069-.3038 0-.4557.069-.076.069-.2279.2069-.076.2069z"/><path d="m44.6658 55.2580927c-.3798.8969.3798 1.8628 1.4433 1.6559 1.1394-.207 1.0635-1.242 1.0635-2.1389 0-.069-.6837 0-.6837.138v.8969c0 .207-.076.759-.3798.828-.3039.069-.6837-.414-.7596-.621-.1519-.276-.1519-.6209-.076-.9659.076 0-.6077.069-.6077.207z"/><path d="m47.4028 54.8441927c.9116.345 1.3674 1.1729 2.051 1.7939.152.138.7596-.069.6077-.207-.6836-.621-1.1394-1.4489-2.1269-1.7939-.1519-.138-.7596.138-.5318.207z"/><path d="m49.7579 54.4995927c-1.0635.8279-2.051 1.7249-2.8106 2.7598-.2279.276.4557.276.6076.069.7597-.9659 1.6712-1.7939 2.6587-2.5528.3039-.345-.2279-.483-.4557-.276z"/><path d="m51.5767 56.3619927c-.076.6899-.6077 1.1729-1.1394 1.5869-.076.069.0759.138.1519.138.1519 0 .3038-.069.4557-.138.5318-.483 1.0636-.966 1.2155-1.6559 0-.138-.6837-.069-.6837.069z"/><path d="m53.4771 52.3608927c-.1519.8969-.6837 2.3458-.1519 3.2427.3798.552 1.2154.552 1.8231.621.3038.069.6836-.345.2279-.414-.6837-.069-1.3674-.069-1.5193-.7589-.2279-.828.1519-1.8629.3039-2.7598 0-.276-.6077-.207-.6837.069z"/><path d="m53.4024 53.8094927 1.1394.207c.1519 0 .3038 0 .4557-.069.076 0 .2279-.138.076-.138-.3798-.069-.7596-.138-1.1394-.207-.1519 0-.3039 0-.4558.069-.076 0-.2279.138-.0759.138z"/><path d="m55.9115 53.4642927c-.1519.7589-.152 1.5179-.152 2.3458 0 .069.6078 0 .6837-.138.1519-.8279-.1519-1.5869.076-2.4148-.152.069-.3039.138-.4558.138.4558-.069.8356.207.8356.6209 0 .138-.2279.345-.2279.414-.076.069-.076.069.1519 0-.0759 0-.076 0-.1519-.069-.076-.069-.2279-.138-.3039-.207-.2279.069-.3798.138-.6077.207.8356.069 1.2154.7589 1.7471 1.3109.152.138.6837-.138.6837-.138-.5317-.5519-.9115-1.3109-1.8231-1.3799-.0759 0-.6836.069-.6077.207.4558.414 1.3673.414 1.7471-.138.4558-.7589-.4557-1.0349-1.0634-.9659-.0759 0-.4558.069-.4558.138-.2279.8279.076 1.6559-.0759 2.4148.2279-.069.4558-.138.6836-.138 0-.7589.076-1.5179.1519-2.3458-.2279 0-.8355 0-.8355.138z"/><path d="m59.632 52.9817927c-.6077-.138-1.2913.069-1.5192.621-.2279.4829-.2279 1.1729.0759 1.5869.4558.5519 1.2155.6899 1.8232.207.4557-.414.5317-1.173.6076-1.7249-.3798-.138-.6836-.345-.9875-.69-.0759-.138-.6837.138-.6077.207.2279.276.4558.414.7596.621.152.138.152.207.152.4139 0 .138-.076.207-.076.345-.0759.207-.1519.414-.2279.621-.0759.069-.1519.207-.2279.2759-.0759.069.076 0 0 0-.0759 0-.1519-.069-.2279-.1379-.4557-.276-.6076-.621-.6076-1.104 0-.2069-.0001-.4829.0759-.6899 0-.069.076-.138.1519-.276.076-.138.076-.138.2279-.138.2279.138.8356-.069.6077-.138z"/><path d="m60.6174 52.7739927c-.1519.828-.152 1.5869.0759 2.4149.076.2069.6837 0 .6837-.138-.2279-.828-.152-1.5179-.076-2.3458.076-.207-.6077-.138-.6836.0689z"/><path d="m62.9721 52.4296927c-.9115.138-1.1394.6899-1.2154 1.4489 0 0 0 .069.076.069.3798.069.6837.069 1.0635.069.2279 0 .3798 0 .3798.207 0 .138-.076.3449-.152.4829.152-.069.3799-.138.5318-.207-.4558 0-.8356 0-1.2154.069-.076 0-.3798.069-.4558.138-.0759.069.076.138.152.138.3798-.069.7596-.069 1.1394-.069.1519 0 .4558 0 .5317-.207.076-.2069.1519-.4829.1519-.7589 0 0 0-.069-.0759-.069-.3039-.069-1.2914 0-1.4433-.207-.076-.207.1519-.8969.3798-.9659.3038.069.6077-.138.1519-.138z"/><path d="m61.4526 51.6698927c-.3798.069-.8355.207-.6077.621.076.138.6837-.069.6837-.138s-.076-.069-.076-.138c0-.138 0-.138-.1519-.069.3038-.069.6077-.276.1519-.276z"/><path d="m33.1214 63.6759927c-1.1394-.207-2.2789-.276-2.6587.965-.3798 1.242.9116 1.518 2.051 1.587.1519 0 .4558-.069.4558-.207.0759-.759.8355-1.656.1519-2.345-.076-.138-.6077 0-.6077.206.076.621.3038 1.173.4558 1.794.1519.621.1519 1.173.1519 1.794 0 .207.6837.069.6837-.138 0-.621 0-1.242-.152-1.794-.1519-.621-.4557-1.173-.5317-1.862-.1519.068-.3798.137-.6077.206.5317.621-.076 1.518-.2279 2.139.1519-.069.3039-.138.4558-.207-.6837 0-1.5952-.069-1.6712-.828 0-.345.152-.897.4558-1.104.3039-.206.7596 0 1.1394.069.2279.138.8356-.207.4558-.275z"/><path d="m33.8047 63.6059927c-.076.69-.076 1.863.9115 1.863.5317 0 1.0634-.276 1.1394-.69.1519-.483-.0759-.897-.1519-1.38-.0759-.276-.7596-.138-.6837.138.076.276.2279.621.2279.897s-.0759.69-.4557.552c-.4558-.138-.3799-1.104-.3039-1.449 0-.276-.6077-.207-.6836.069z"/><path d="m36.5406 62.9162927c0-.069 0-.276.1519-.276.076 0 .2279.138.3039.138.0759.138.1519.2757.2279.4137.0759.345.1519.69.2279 1.035 0 .138.6076 0 .6836-.138.0759-.483-.4558-1.1037-.9875-1.035-.6837 0-1.0635.552-1.1394 1.104-.152.552.1519.966.8356.828.5317-.069 1.1394-.483 1.3673-.966.0759-.069-.6077-.069-.6837.138s-.4558.69-.6077.621c-.3798-.069-.2279-.69-.1519-.897.0759-.138.0759-.276.2279-.414 0-.069.0759-.138.1519-.207-.2279.138-.076.138 0 .207.2279.207.4558.552.3798.828.2279-.069.4558-.138.6837-.138-.152-.483-.152-1.4487-.7596-1.6557-.5318-.138-1.4433.069-1.4433.6207-.076.069.5317 0 .5317-.2067z"/><path d="m37.983 61.6050927c-.076.897 0 3.7259 1.7471 2.6219.3798-.207-.1519-.414-.4558-.276-.5317.345-.6836-2.1389-.6836-2.4839.076-.2069-.6077-.069-.6077.138z"/><path d="m39.5 62.3645927c-.0759.5519.3039.9654.3798 1.5174.076.276.6837.069.6837-.138-.076-.345-.9116-1.0345-.5318-1.3794.1519-.138.6837-.207.7596.069.076.3449-.6836.2759-.9115.2759-.1519 0-.4558.276-.1519.3455.5317.138.9115.551 1.3673.827.2279.138.7596-.138.5317-.345-.4557-.344-.9115-.7585-1.5192-.8965-.076.138-.076.207-.1519.345.3038-.069.6077.0695.9875-.069.2278-.069.4557-.276.5317-.5519.076-.552-.6077-.621-1.0635-.552-.3798.069-1.0634.276-1.1394.69-.076.5524.5318.8274.6077 1.3104.2279-.069.4558-.138.6837-.138-.076-.483-.4558-.8965-.3799-1.3794.076-.276-.6076-.138-.6836.069z"/><path d="m38.0585 62.5025927c.2279 0 .4558.0689.6836.0689.152 0 .7596-.2069.4558-.2759-.2279 0-.4558-.069-.6837-.069-.1519 0-.7596.276-.4557.276z"/><path d="m41.8558 62.6401927c.3798.069.8356.207 1.2914.069.4557-.138.4557-.552.4557-.966 0-.069-.076-.069-.1519-.069-.9116-.2069-1.975.276-1.6712 1.2419.3039 1.0349 1.5953.8279 2.2789.2759.3039-.2069-.3798-.2069-.5317-.069-.2279.138-.3799.345-.6837.207-.2279-.138-.3798-.3449-.3798-.5518-.076-.207-.076-.414.076-.621.1519-.207.3798-.138.6077-.069-.076 0-.076-.069-.152-.069 0 .138 0 .276-.0759.414 0 .069-.076.138 0 .138-.1519.069-.4558-.069-.6837-.138-.1519-.207-.6837.069-.3798.207z"/><path d="m45.4257 62.9165927c0 .2074-.0001.7594-.3039.8284-.076.069-.2279.138-.1519.276.0759.138.3038.069.4558 0 .6077-.207.6076-.621.6836-1.1734 0-.2069-.6077-.138-.6836.069z"/><path d="m48.6953 60.8470927c-.5317-.069-1.1394-.069-1.3673.414-.1519.345-.3038.8969-.2278 1.3109.2278.897 1.9749.69 2.2028-.069.076-.276-.6077-.138-.6836.069-.076.207-.3799.207-.6077.138-.2279-.069-.3039-.276-.3039-.483s.076-.483.152-.6899c0-.069.0759-.207.1519-.276.0759-.069.3798 0 .4558 0 .2278 0 .6836-.414.2278-.414z"/><path d="m49.2215 60.8460927c-.076.5519 0 1.0349.0759 1.5869 0 .138.6837 0 .6837-.138-.0759-.483-.1519-.9659-.076-1.4489 0-.276-.6076-.207-.6836 0z"/><path d="m51.1214 62.5020927c0-.207-.3038-1.242.076-1.242.2279 0 .3038.345.3798.414.0759.207.2279.414.3798.621.2279.207.8356-.069.6077-.276-.3039-.276-.3038-.621-.5317-.8969-.2279-.276-.5318-.345-.9116-.276-.9875.207-.6836 1.0349-.6836 1.7248.0759.276.7596.138.6836-.0689z"/><path d="m53.7806 60.3639927c-.6077-.069-1.0635.345-1.2154.8279-.1519.69.3798 1.035 1.0635 1.035.1519 0 .3798-.069.4557-.207.2279-.483.4558-.897.3039-1.4489-.076-.276-.6837-.069-.6837.138.2279.9659.5318 2.0698.3039 3.105-.076.276.6077.207.6836-.069.2279-1.0352-.0759-2.2081-.3038-3.243-.2279.069-.4558.138-.6837.138.1519.414-.0759.8279-.2279 1.2419.152-.069.3039-.138.4558-.207-.3798 0-.6836-.138-.6836-.483 0-.138.0759-.6209.3798-.5519.2278.138.6077-.207.1519-.276z"/><path d="m56.5927 60.9848927c0 .276 0 .69-.2279.897-.2279.2759.3798.4139.5318.138.2278-.345.3038-.759.3038-1.104.076-.276-.5317-.207-.6077.069z"/><path d="m60.4646 57.8795927c-.7597-.207-1.8231.345-1.4433 1.1729.3038.621 1.1394.069 1.5952.345.3798.345-.076.6899-.3798.8279-.4558.138-.7596.138-.6077-.414.076-.2759-.6077-.2069-.6837.069-.1519.552.1519.828.7596.828.5318 0 1.1395-.276 1.5193-.621.3798-.3449.3038-.8969-.152-1.1039-.3038-.138-.6836-.069-.9875-.069-.1519 0-.2279 0-.3038-.138-.1519-.276 0-.6899.3798-.6209.1519.2069.6837-.138.3039-.276z"/><path d="m61.6054 58.8458927c-.076.4829-.1519.8969 0 1.3799.0759.207.7596.069.6837-.138-.1519-.414 0-.828 0-1.2419.0759-.345-.6078-.207-.6837 0z"/><path d="m61.7567 58.0870927c0 .3449.152.4829.6077.4829.076 0 .4558-.069.4558-.207 0-.2069 0-.2759-.1519-.4139s-.7597.069-.6077.207c.0759.0689.1519.1379.1519.2759.1519-.069.3039-.138.4558-.2069-.1519 0-.2279-.069-.1519-.276-.076-.207-.7597-.069-.7597.138z"/><path d="m62.8954 58.5700927c.6077.138 1.0635.552 1.5952.828.2279.138.8356-.138.5317-.345-.5317-.345-1.0634-.7589-1.6711-.8969-.3798-.069-.8356.3449-.4558.4139z"/><path d="m64.1138 58.3628927c-.076.345-.3039.621-.5318.897s-.4558.6209-.7596.7589c-.3798.207 0 .483.3039.276.3798-.207.6836-.552.9875-.8969.3038-.345.5317-.759.6836-1.173.076-.2069-.6077-.0689-.6836.138z"/><path d="m32.135 72.5069927c4.6337-.414 9.0395-2.277 13.6732-2.967 3.4942-.552 7.0644-1.035 10.5586-1.656.3799-.069.3039-.414-.0759-.345-3.7221.69-7.4443 1.173-11.1664 1.794-4.3299.69-8.5078 2.484-12.9136 2.898-.3038-.069-.5317.345-.0759.276z"/><path d="m32.8917 76.7159927c5.0894-.345 10.1789-1.242 15.1924-2.139 4.6336-.828 9.6471-1.449 14.0529-3.174.4558-.138 0-.276-.2278-.207-4.5578 1.794-9.7992 2.415-14.6608 3.243-4.6336.828-9.3433 1.656-14.1289 2.001-.1519 0-.6077.276-.2278.276z"/></g><path d="m175.4958 145.721993h-25.353l-3.365 36.997h37.79z" fill="#d6cde4"/><path d="m175.4958 145.721993h-7.81l-4.686 36.997h21.568z" fill="#efe8f4"/><path d="m123.1068 136.770993c1.442 2.183 4.987 8.294 8.712 15.497 2.162 4.202 4.986 11.405 8.351 21.555l-4.326 1.801c-7.81-11.405-13.578-20.191-17.423-26.411.24 1.855.421 3.819.661 5.838.721 6.931 0 21.882-.361 26.193-.24 2.729-4.325 2.019-4.686-.164-.36-2.182-7.63-36.506-7.63-43.709 0-2.728 6.729-4.965 9.433-1.637 2.223-1.473 5.347-1.855 7.269 1.037z" fill="#cb7a43"/><path d="m130.3158 171.313993c-.841-2.019-14.84-24.229-17.603-31.104-1.202-3.001 8.771-9.277 12.316-4.093l14.839 31.977z" fill="#a396c4"/><path d="m110.7908 133.826993c5.888-.819 18.144-2.183 36.888-4.257h21.869c-.36 11.951-5.047 18.226-16.341 17.844-7.811-.273-33.945-3.82-34.606-3.547-.3.109.481 9.441 2.343 27.994l-10.574.327c0-2.019-4.385-23.3-4.385-32.359 0-2.51 1.081-5.457 4.806-6.002z" fill="#bcb1d4"/><path d="m119.8018 181.735993c-.18-.328-.601-.491-1.021-.328-.961.437-1.742.601-2.343.601-.661 0-1.562-.219-2.704-.71l-.661-1.419c-.06-.163-.3-.272-.48-.163l-9.853 3.983c-.781.109-1.803.219-2.944.382-1.202.109-1.502 1.037-.961 2.674h21.207c.241-1.2.361-2.073.361-2.674.06-.545-.12-1.309-.601-2.346z" fill="#3d2884"/><path d="m140.8288 172.133993c-.36-.164-.841-.055-1.021.273-.481.873-.962 1.473-1.382 1.8-.541.382-1.382.71-2.584.983l-1.441-.71c-.181-.109-.421 0-.481.164l-4.987 8.676c-.54.546-1.261 1.201-2.102 1.965s-.481 1.637 1.081 2.619c10.454-7.53 15.981-11.514 16.642-11.95-.661-1.037-1.142-1.801-1.562-2.292-.421-.437-1.082-.928-2.163-1.528.06.054 0 0 0 0z" fill="#3d2884"/><path d="m160.5378 101.139993h-9.012l1.502-9.8230003c-2.463 1.31-4.806 1.965-5.947 1.692-2.824-.655-3.064-10.041-.902-13.697 2.163-3.71 13.398-5.293 13.939 2.019.18 2.565-.962 4.802-2.704 6.658z" fill="#cb7a43"/><path d="m150.0828 79.8569927c-3.965.054-4.446-.601-4.446-2.783.661-.437 2.884-1.092 5.407-1.31 1.322-.327 2.824-.273 4.326.273 1.802.491 3.064.873 4.206 2.783 2.463 3.874.42 8.513-2.103 9.877-.661-.71-1.262-1.419-1.803-2.074.421-.382.661-.873.661-1.473 0-1.146-1.021-2.074-2.283-2.074-.12 0-.18 0-.24 0-.12 3.984-.421 6.603-.901 7.858-.721 1.965-4.867 2.456-6.369 2.456-1.441 0-1.201-1.419-1.201-2.183 0-.437 1.502.164 1.502-.655 0-.818-1.923-1.255-2.283-1.746-.481-.6-.601-1.419.06-1.419.961 0 2.884 1.31 5.107 1.31 1.502 0 2.403-2.183 2.763-6.548-.661-1.037-1.442-1.856-2.403-2.292z" fill="#3d2884"/><path d="m146.7808 82.8539927c.36.054.54.709.12.818-.481.164-.541-.382-.481-.709.12-.055.24-.055.361-.109z" fill="#3d2884"/><path d="m145.1568 83.0199927c-.12.054-1.261 3.055-1.562 3.765.481.6 1.262.6 1.923.546.06-1.528.12-3.002-.421-4.311" fill="#cb7a43"/><path d="m148.3428 82.6409927c.12-.218 0-.545-.18-.709s-.421-.273-.661-.382c-.24-.055-.481-.109-.781-.055-.24.055-.541.109-.721.273.24.055.481.109.661.109.24.055.42.109.601.164.18.055.42.109.6.164.181.109.361.218.481.436z" fill="#3d2884"/><path d="m172.6728 139.774993h-8.411c1.622-2.455 2.763-6.384 3.484-11.787 1.742 4.529 3.365 8.458 4.927 11.787z" fill="#cb7a43"/><path d="m134.2818 131.095993-11.895 4.474c-3.365 3.602-5.227 5.075-5.648 4.475-.601-.873.721-1.692.421-2.346-.301-.655-2.524-.601-4.686-.437-2.163.164-1.502-.709-1.022-1.146 2.163-1.2 4.927-2.183 8.171-3.001l12.016-8.022zm48.303 16.152c.541.982 4.506 3.983 7.27 5.73 1.081.709.661 1.582.24 1.8-3.424 1.91-5.647-.327-8.591-1.582-3.244-1.364-2.944 2.51-5.527 1.473.781-1.582 2.643-4.583 1.742-6.548-.36-.873-3.004-8.403-7.87-22.646l7.87-.054c2.523 13.205 4.146 20.463 4.866 21.827z" fill="#cb7a43"/><path d="m123.8868 136.281993-3.544-3.984c14.779-9.658 19.765-27.829 31.841-37.2700003l3.245.491c.48 15.6620003-5.888 37.8710003-31.542 40.7630003z" fill="#3d2884"/><path d="m158.9738 93.6619927-8.29 1.201c0 14.2960003-8.592 25.1010003-10.755 35.1420003-.18.873-.42 2.619.902 2.619h28.777c-1.381-16.589-3.785-28.921-10.634-38.9620003z" fill="#efe8f4"/><path d="m182.7058 146.921993h-6.189c-1.201-1.965-2.523-4.311-3.845-7.149h-22.649c-3.365-7.694-1.262-22.973 6.188-45.9460003l2.583-.109c.241-.055.481-.055.781-.055 5.167 0 8.051-1.855 11.295-.928 3.244.873 4.326 3.656 1.322 8.6220003-.721 1.146-1.682 1.91-2.884 2.183 9.553 11.841 13.998 26.356 13.398 43.382z" fill="#3d2884"/><path d="m155.6718 49.2435927c0 5.7297-4.446 10.75-11.295 13.9154-1.562.709-.541 5.074-.841 5.838-.301.764-6.068-3.492-7.029-3.328-2.644.545-5.528.818-8.472.818-15.26 0-27.636-7.694-27.636-17.2434 0-9.5495 12.376-17.2436 27.636-17.2436s27.637 7.7487 27.637 17.2436z" fill="#f9aa38"/></g></svg>