<svg fill="none" height="60" viewBox="0 0 60 60" width="60" xmlns="http://www.w3.org/2000/svg" xmlns:xlink="http://www.w3.org/1999/xlink"><filter id="a" color-interpolation-filters="sRGB" filterUnits="userSpaceOnUse" height="61.2775" width="62.1193" x="-.319313" y="-.319313"><feFlood flood-opacity="0" result="BackgroundImageFix"/><feColorMatrix in="SourceAlpha" result="hardAlpha" type="matrix" values="0 0 0 0 0 0 0 0 0 0 0 0 0 0 0 0 0 0 127 0"/><feOffset dx=".319313" dy=".319313"/><feGaussianBlur stdDeviation=".319313"/><feColorMatrix type="matrix" values="0 0 0 0 0.129412 0 0 0 0 0.129412 0 0 0 0 0.129412 0 0 0 0.4 0"/><feBlend in2="BackgroundImageFix" mode="normal" result="effect1_dropShadow_172_61676"/><feBlend in="SourceGraphic" in2="effect1_dropShadow_172_61676" mode="normal" result="shape"/></filter><clipPath id="b"><path d="m0 0h60v60h-60z"/></clipPath><g clip-path="url(#b)"><g filter="url(#a)"><path d="m.582275 23.9677 17.512525-2.6217.8975-7.0279.1698-3.9655-.4851-8.04132-15.28106.44062-1.50385.88124-.72767 2.40137.48511 4.14179.16979 4.0097-.16979 3.2385-.36384 3.2826z" fill="#3d2884"/><path d="m18.0937 21.3457-.6064-.1322c0-.022.8247-3.1063 1.043-4.7807.4366-3.2385.4366-6.91771-.0243-11.52218v-.06609c-.1212-1.2117-.2668-2.57762.4124-3.74526.3638-.638901 1.1643-1.211706 1.9889-.991396.8975.24234 1.2856 1.321856 1.5282 2.048876.0242.08813.0485.15422.0727.22031l-.5821.17625c-.0243-.06609-.0485-.15422-.0728-.24234-.2183-.59484-.5336-1.520136-1.1157-1.674353-.4851-.132186-.9945.264372-1.2613.727023-.5822.99139-.4609 2.22512-.3396 3.41479v.0661c.4608 4.64853.4851 8.34977.0243 11.65437-.2426 1.6964-1.043 4.7146-1.0673 4.8468z" fill="#fff"/><path d="m2.71704 2.7076.63066-.15421 17.0032-2.5335628s1.4553-.3965572 2.1345 2.3573128l-17.51257 2.64371s-.36385-1.03545-.43662-1.14561c-.19404-.37452-.48511-.70499-.84894-.94733-.26682-.19828-.60639-.17625-.97023-.22031z" fill="#d6cde4"/><path d="m22.4528 2.19228-17.47551 2.72007.04507.23885 17.47554-2.72007z" fill="#564394"/><path d="m2.08478 42.5616c-.02425 0-.02425 0-.04851 0-.29107-.022-.50937-.2644-.48511-.5288l3.17749-34.96307c.02426-.26437.29106-.46265.58213-.44062s.50937.26437.48511.52874l-3.17748 34.96315c-.04851.2423-.26681.4406-.53363.4406z" fill="#efe8f4"/><path d="m1.81793 42.2092c-.07277 0-.14553-.0661-.12128-.1322l3.17749-33.70732c0-.0661.07276-.11016.14552-.11016.07277 0 .12128.0661.12128.13219l-3.17748 33.70739c0 .066-.07276.1101-.14553.1101z" fill="#bcb1d4"/><path d="m10.89 50.7129c-.291 0-.5094-.1983-.5336-.4626l-.6064-21.8547c0-.2644.21831-.4847.5094-.4847.291 0 .5336.1983.5336.4626l.6064 21.8547c.0243.2644-.1941.4847-.5094.4847z" fill="#efe8f4"/><path d="m10.6968 50.3825c-.0727 0-.1212-.044-.1212-.1101l-.65495-22.075c0-.0661.04852-.1322.12125-.1322.0728 0 .1456.044.1456.1101l.6549 22.075c-.0243.0882-.0728.1322-.1456.1322z" fill="#bcb1d4"/><path d="m28.3306 45.756c-.2426 0-.4852-.1543-.5094-.3966l-3.8809-19.6075c-.0485-.2644.1455-.5068.4366-.5508.2911-.0441.5579.1322.6064.3965l3.8809 19.6076c.0485.2643-.1455.5067-.4366.5508-.0243 0-.0728 0-.097 0z" fill="#efe8f4"/><path d="m28.1367 45.4696c-.0728 0-.1213-.044-.1213-.0881l-4.2933-21.7446c-.0242-.0661.0243-.1321.097-.1321.0728-.0221.1456.022.1456.0881l4.2932 21.7445c.0243.0441-.0242.1102-.1212.1322.0242 0 .0242 0 0 0z" fill="#bcb1d4"/><path d="m5.02173 5.0209 3.66261 23.7714 17.92486-3.525-4.1234-22.97824z" fill="#efe8f4"/><path d="m4.99666 5.02086c-.19405-.83718-.6549-2.02685-1.60087-2.26919-.82469-.22031-1.62513.3525-1.98897.9914-.679154 1.1456-.533623 2.51152-.412344 3.74526v.06609c.460854 4.60448.485104 8.28368.024254 11.52218-.218305 1.6744-.9944744 4.6045-1.01873 4.6265l.557877.2644c.024256-.1322.824683-3.1284 1.067243-4.8248.46085-3.2826.4366-6.9838-.02425-11.65437v-.0661c-.12128-1.18967-.24255-2.4234.33958-3.41479.26681-.46265.80043-.85921 1.26128-.72702 1.35832.37452 1.38258 2.97418 1.55237 4.07572.29107 1.87263.58214 3.74526.89746 5.61786.36384 2.2913.72767 4.5825 1.09151 6.8737.31532 1.9828.63063 3.9435.94596 5.9263.14553.9253.2183 1.4541.36383 2.3794l.04852.4185.58214.2204c-.12128-.7711-.24256-1.5202-.36384-2.2913-.29106-1.8285-.55788-3.6791-.84894-5.5077-.33958-2.2472-.70341-4.4943-1.04299-6.7415-.31533-1.9828-.60641-3.9655-.92173-5.94833-.16979-1.05748-.26681-2.11497-.48511-3.17245 0-.02204 0-.0661-.02425-.11016z" fill="#564394"/><g fill="#ea931f"><path d="m8.05267 7.46582c.24256.3525.26682.79312.26682 1.18967.02426-.02203.07276-.04406.09702-.06609-.21831.06609-.46086.04406-.67916.04406-.07277 0-.21829.08813-.09701.08813.26681 0 .53362.02203.80043-.04406.02426 0 .09701-.02203.09701-.0661.02426-.39655-.02425-.83718-.2668-1.18967-.04851-.06609-.24257 0-.21831.04406z"/><path d="m7.61697 7.53199c.36383 0 .70342-.13219 1.06725-.15422.09702 0 .16979-.13219.02425-.11016-.33958.02203-.67916.15422-1.01874.15422-.07277 0-.19404.11016-.07276.11016z"/><path d="m8.95088 7.97275c.26681.04406.58215-.06609.50938-.35249 0-.02203-.02426-.02203-.04852-.02203-.26681-.0661-.63064 0-.60639.33046.02426.22031.19404.48468.46085.46265.19405-.02203.33959-.15422.43661-.30843.04852-.08813-.1698-.0661-.19405 0-.04851.06609-.12128.22031-.24256.19828-.09702-.02203-.16978-.13219-.21829-.22031-.04851-.08813-.07278-.19828-.02427-.30844.04852-.11015.14554-.06609.24256-.04406-.02426 0-.02424-.02203-.0485-.02203.02426.13219-.02426.22031-.16979.19828-.04851 0-.12129 0-.14554.04406.02425 0 0 .02203.04851.04406z"/><path d="m8.27108 9.40451c0 .41859-.02426 1.56419.77618 1.18969.12127-.0661.02425-.1542-.09703-.1102-.50937.2424-.46085-.88121-.46085-1.10152-.02425-.11015-.2183-.06609-.2183.02203z"/><path d="m8.32026 9.95537h.38809c.04851 0 .12128-.02203.14554-.04406.02425-.04406-.02426-.0661-.04852-.0661-.12127 0-.26682 0-.3881 0-.04851 0-.12127.02204-.14552.04407-.02426.04406.02426.06609.04851.06609z"/><path d="m9.09576 9.75725c-.02426.30845.14553.85925.60639.72705.48515-.1542.16979-.68299.31535-.99142.0485-.11015-.16982-.08812-.19407-.02203-.09702.24234.02425.52874-.04852.77105-.09702.2203-.29106.0882-.36383-.0661-.07277-.1321-.09702-.28636-.07277-.41855-.02425-.11015-.24255-.08812-.24255 0z"/><path d="m8.87908 11.8061c.07276.2424.07276.5067.12127.7491.02426.0881.21831.044.21831-.0441-.04851-.2423-.07277-.5067-.12128-.7491-.02425-.1101-.24256-.044-.2183.0441z"/><path d="m8.78076 11.4095v.1102c0 .044.21831.022.21831-.0441 0-.044 0-.0661 0-.1101 0-.0661-.21831-.0221-.21831.044v.1102c0 .044.21831.022.21831-.0441 0-.044 0-.0661 0-.1101 0-.0661-.21831-.0221-.21831.044z"/><path d="m9.14378 11.1892c-.04851.4186.21831.7931.31533 1.2117 0 .0441.09703.0441.12128.022.09703-.022.19404-.022.29106-.044.12128-.022.09703-.1322-.02425-.1102-.09702.0221-.19405.0221-.29107.0441.04851 0 .07277.022.12128.022-.09703-.3965-.36383-.749-.31532-1.1676 0-.0881-.21831-.0661-.21831.022z"/><path d="m10.7704 10.7267c0 .6829-.0971 1.3879-.0971 2.0709.0728-.0221.1456-.0441.2183-.0441 0-.022 0-.022 0-.0441 0-.044-.2183-.022-.2183.0441v.0441c0 .044.2183.022.2183-.0441 0-.683.0728-1.3879.0971-2.0709-.0243-.0661-.2183-.022-.2183.0441z"/><path d="m11.3277 11.4975c.2668.0441.6064-.0441.5093-.3525 0-.022-.0242-.022-.0485-.022-.1213-.0221-.2425-.0221-.3638 0-.0243 0-.097.022-.097.0661-.0485.2203-.1213.4846.194.5948.1698.0661.4851.0441.5336-.1542.0243-.0661-.194-.022-.2183.022-.0485.1542-.2668 0-.3153-.0881-.0727-.1322-.0242-.2864 0-.4186-.0242.022-.0728.0441-.097.0661.0728-.022.1455 0 .2183 0-.0243 0-.0243-.022-.0485-.022.0242.044.0485.1321 0 .1982-.0485.0441-.1213.0221-.1698.0221-.0243-.0221-.2183.0661-.097.0881z"/><path d="m11.8124 10.5941c.0728.3965.2426.7711.4124 1.1456 0 .022.0485.0441.0727.0441.0728 0 .1456.022.2426 0 .1213 0 .1698-.1322.0243-.1322-.0728 0-.1213 0-.1941 0 .0243.022.0485.022.0728.044-.1456-.3745-.3396-.749-.4124-1.1456-.0242-.0661-.2425-.022-.2183.0441z"/><path d="m12.4678 10.462c0 .4627.1213.8812.2183 1.3219.0242.044.1213.044.1455.022.0485-.022.1455-.0441.2183-.0661.1455-.0441.0243-.1542-.097-.1101-.097.044-.1213.044-.2183.066.0485 0 .097.0221.1455.0221-.097-.4406-.2183-.8372-.2183-1.2999.0243-.066-.194-.022-.194.0441z"/><path d="m13.219 11.2112c.2668.0441.5336-.0661.4609-.3525 0-.022-.0243-.022-.0485-.022-.1456 0-.3154.022-.4124.1542-.0727.1322-.0727.2864-.0485.4186 0 0 0 .022.0243.022.2183.0661.5093.0881.6549-.1101.0242-.0221 0-.0441-.0243-.0441-.0485 0-.097 0-.1213 0-.0485 0-.2425.0661-.1455.0881h.1213c0-.022-.0243-.022-.0243-.044-.0485.044-.0728.066-.1455.066-.0243 0-.097 0-.1213-.022s-.0242-.1101-.0242-.1542c0-.0661.0242-.2864.1212-.2864-.0242 0-.0242-.022-.0485-.022 0 .044.0243.1101 0 .1542-.0242.0661-.0485.0661-.1213.044-.0242.0221-.2183.1102-.097.1102z"/><path d="m9.07106 14.3178c1.33404-.0882 2.61964-.5067 3.95364-.6169.0728 0 .2183-.1102.0971-.0881-1.3341.1101-2.6197.5287-3.95371.6168-.07277 0-.24257.0882-.09703.0882z"/><path d="m9.31492 15.6614c1.52808-.1101 2.98348-.7931 4.48728-1.1235.1213-.0221.097-.1322-.0242-.1102-1.4554.3305-2.935.9914-4.41456 1.1016-.14554.022-.19405.1542-.04852.1321z"/><path d="m9.55763 17.0055c1.62517-.0882 3.25027-.1543 4.77837-.7491.1455-.0441 0-.0881-.0728-.0441-1.4553.5728-3.0562.6389-4.60854.705-.07277 0-.24256.0882-.09703.0882z"/><path d="m9.45933 18.5919c-.04851.2644.02425.727.41233.705.48514-.0441.46084-.5288.38814-.8372-.0243-.0661-.2183-.022-.2183.0441.0242.1321.1212.727-.19408.6609-.2183-.0661-.2183-.4406-.19405-.5948.02426-.0661-.19404-.0441-.19404.022z"/><path d="m10.5997 18.3275c-.0485.2644-.0727.5287-.0485.7931 0 .0661.1941.022.2183-.0441.0243-.1542-.0243-.2864-.0485-.4406-.0243-.1101 0-.5508.2668-.3965.1213.0661.097.3084.097.4186 0 .1321-.0242.2643 0 .3965 0 .0661.2183.022.2183-.044-.0242-.2644.1698-.9033-.3396-.9033-.2183 0-.4123.1101-.4366.3084-.0485.2203.0728.4627.0486.683.0727-.0221.1455-.0221.2183-.0441-.0243-.2644 0-.5067.0485-.7711-.0243-.0661-.2426-.044-.2426.0441z"/><path d="m11.8618 18.768c0 .1322-.0485.2644-.194.3305.0485 0 .0728 0 .1213-.0221v-.044c0-.0441-.2183 0-.2183.044 0 .0441-.0243.0661.0485.0661s.1698-.044.2183-.0661c.1455-.0881.2183-.2203.2183-.3745 0-.022-.1941.022-.1941.0661z"/><path d="m13.317 17.8646c-.5579-.1762-.752.3746-.7762.7711h.0242c.2911.0882.6549.0661.7277-.2643.0728-.3746-.097-.7491-.0243-1.1236 0-.0441-.194-.0221-.2183.044-.0727.3305.0728.661.0486.9914 0 .1102-.0971.5067-.3154.3085-.1455-.1102.0728-.7491.3154-.661.097.0221.2425-.0661.2183-.0661z"/><path d="m13.5589 18.107c.194.0441.4609.022.5336-.1762.0728-.1983-.1455-.2864-.3396-.2644-.0485 0-.1212.022-.1455.0661-.0485.1762-.2668.5067 0 .6389.2183.1101.5579-.022.6792-.2203.0485-.0661-.1698-.0441-.1941 0-.097.1322-.3638.2203-.3881 0-.0242-.1542.0728-.3085.1213-.4406-.0485.022-.097.044-.1455.066.097 0 .2183.0221.2183.1322 0 .0882-.0728.1542-.1698.1102-.0485-.022-.097 0-.1455.022-.0243.022-.0728.0661-.0243.0661z"/><path d="m14.2624 17.6445c-.1213.2865.1213.5949.4608.5288.3639-.0661.3396-.3966.3396-.683 0-.022-.2183 0-.2183.0441v.2864c0 .0661-.0242.2423-.1213.2644-.097.022-.2183-.1322-.2425-.1983-.0485-.0881-.0485-.1983-.0243-.3084.0243 0-.194.022-.194.066z"/><path d="m15.1365 17.5123c.2911.1102.4366.3746.6549.5728.0485.0441.2426-.022.194-.066-.2183-.1983-.3638-.4627-.6791-.5729-.0485-.044-.2426.0441-.1698.0661z"/><path d="m15.8882 17.4021c-.3395.2644-.6549.5508-.8974.8813-.0728.0881.1455.0881.194.022.2426-.3084.5337-.5728.849-.8151.097-.1102-.0728-.1542-.1456-.0882z"/><path d="m16.4691 17.997c-.0243.2203-.1941.3745-.3639.5067-.0242.022.0243.044.0486.044.0485 0 .097-.022.1455-.044.1698-.1542.3396-.3084.3881-.5288 0-.044-.2183-.022-.2183.0221z"/><path d="m17.0759 16.7192c-.0485.2864-.2183.7491-.0485 1.0355.1213.1762.3881.1762.5821.1983.0971.022.2183-.1102.0728-.1322-.2183-.022-.4366-.022-.4851-.2424-.0728-.2643.0485-.5948.097-.8812 0-.0881-.194-.0661-.2183.022z"/><path d="m17.052 17.1818c.1213.022.2426.0441.3638.0661.0485 0 .0971 0 .1456-.022.0242 0 .0727-.0441.0242-.0441-.1212-.022-.2425-.044-.3638-.0661-.0485 0-.097 0-.1455.0221-.0243 0-.0728.044-.0243.044z"/><path d="m17.8531 17.0716c-.0485.2423-.0485.4846-.0485.749 0 .022.194 0 .2183-.0441.0485-.2643-.0485-.5067.0242-.771-.0485.022-.097.044-.1455.044.1455-.022.2668.0661.2668.1983 0 .0441-.0727.1102-.0727.1322-.0243.022-.0243.022.0485 0-.0243 0-.0243 0-.0485-.022-.0243-.0221-.0728-.0441-.0971-.0661-.0727.022-.1213.044-.194.0661.2668.022.3881.2423.5579.4185.0485.0441.2183-.044.2183-.044-.1698-.1763-.2911-.4186-.5822-.4406-.0242 0-.2183.022-.194.0661.1455.1321.4366.1321.5579-.0441.1455-.2423-.1456-.3305-.3396-.3084-.0243 0-.1456.022-.1456.044-.0727.2644.0243.5288-.0242.7711.0728-.022.1455-.0441.2183-.0441 0-.2423.0242-.4846.0485-.749-.0728 0-.2668 0-.2668.0441z"/><path d="m19.0414 16.9175c-.1941-.044-.4124.022-.4851.1983-.0728.1542-.0728.3745.0242.5067.1456.1763.3881.2203.5822.0661.1455-.1322.1697-.3745.194-.5508-.1213-.044-.2183-.1101-.3153-.2203-.0243-.044-.2183.0441-.1941.0661.0728.0881.1456.1322.2426.1983.0485.044.0485.0661.0485.1322 0 .044-.0243.0661-.0243.1101-.0242.0661-.0485.1322-.0727.1983-.0243.022-.0485.0661-.0728.0881-.0243.0221.0243 0 0 0s-.0485-.022-.0728-.044c-.1455-.0882-.194-.1983-.194-.3525 0-.0661 0-.1542.0242-.2203 0-.0221.0243-.0441.0486-.0882.0242-.044.0242-.044.0727-.044.0728.044.2668-.0221.1941-.0441z"/><path d="m19.3561 16.8512c-.0485.2644-.0485.5068.0242.7711.0243.0661.2183 0 .2183-.044-.0727-.2644-.0485-.4847-.0242-.7491.0242-.0661-.1941-.044-.2183.022z"/><path d="m20.1078 16.7412c-.2911.0441-.3638.2203-.3881.4627 0 0 0 .022.0243.022.1213.022.2183.022.3396.022.0727 0 .1212 0 .1212.0661 0 .0441-.0242.1102-.0485.1542.0485-.022.1213-.044.1698-.0661-.1455 0-.2668 0-.3881.0221-.0242 0-.1213.022-.1455.044-.0243.0221.0242.0441.0485.0441.1213-.022.2426-.022.3638-.022.0485 0 .1456 0 .1698-.0661.0243-.0661.0485-.1542.0485-.2424 0 0 0-.022-.0242-.022-.097-.022-.4124 0-.4609-.0661-.0242-.0661.0485-.2864.1213-.3084.097.022.194-.0441.0485-.0441z"/><path d="m19.6227 16.4988c-.1212.022-.2668.0661-.194.1983.0242.044.2183-.0221.2183-.0441s-.0243-.022-.0243-.0441c0-.044 0-.044-.0485-.022.097-.022.1941-.0881.0485-.0881z"/><path d="m10.5761 20.3323c-.3638-.0661-.72764-.0881-.84892.3085-.12127.3965.29112.4846.65492.5067.0485 0 .1455-.0221.1455-.0661.0243-.2424.2668-.5288.0485-.7491-.0242-.044-.194 0-.194.0661.0242.1983.097.3745.1455.5728s.0485.3745.0485.5728c0 .0661.2183.0221.2183-.044 0-.1983 0-.3966-.0485-.5728-.0485-.1983-.1455-.3746-.1698-.5949-.0485.0221-.1212.0441-.194.0661.1698.1983-.0243.4847-.0728.683.0485-.0221.097-.0441.1456-.0661-.2183 0-.50942-.0221-.53367-.2644 0-.1101.04852-.2864.14557-.3525.097-.0661.2425 0 .3638.022.0728.0441.2668-.066.1455-.0881z"/><path d="m10.7943 20.3102c-.0243.2203-.0243.5948.2911.5948.1697 0 .3395-.0881.3638-.2203.0485-.1542-.0242-.2864-.0485-.4406-.0243-.0881-.2426-.0441-.2183.044.0242.0882.0728.1983.0728.2864 0 .0882-.0243.2204-.1456.1763-.1455-.0441-.1213-.3525-.097-.4627 0-.0881-.194-.0661-.2183.0221z"/><path d="m11.6679 20.0897c0-.022 0-.0881.0485-.0881.0242 0 .0727.0441.097.0441.0243.044.0485.0881.0728.1322.0242.1101.0485.2203.0727.3304 0 .0441.1941 0 .2183-.044.0243-.1542-.1455-.3525-.3153-.3305-.2183 0-.3396.1762-.3638.3525-.0485.1762.0485.3084.2668.2644.1698-.0221.3638-.1542.4366-.3085.0243-.022-.1941-.022-.2183.0441-.0243.0661-.1455.2203-.194.1983-.1213-.0221-.0728-.2203-.0486-.2864.0243-.0441.0243-.0882.0728-.1322 0-.022.0243-.0441.0485-.0661-.0728.0441-.0242.0441 0 .0661.0728.0661.1455.1762.1213.2644.0728-.0221.1455-.0441.2183-.0441-.0485-.1542-.0485-.4627-.2426-.5287-.1697-.0441-.4608.022-.4608.1982-.0243.0221.1698 0 .1698-.0661z"/><path d="m12.1286 19.6712c-.0243.2864 0 1.1897.5578.8372.1213-.0661-.0485-.1322-.1455-.0881-.1698.1101-.2183-.683-.2183-.7931.0243-.0661-.194-.0221-.194.044z"/><path d="m12.613 19.9138c-.0243.1762.097.3084.1212.4846.0243.0882.2183.0221.2183-.044-.0242-.1102-.291-.3305-.1698-.4406.0485-.0441.2183-.0661.2426.022.0242.1101-.2183.0881-.2911.0881-.0485 0-.1455.0881-.0485.1102.1698.044.2911.1762.4366.2643.0728.0441.2426-.044.1698-.1101-.1455-.1102-.2911-.2423-.4851-.2864-.0243.0441-.0243.0661-.0485.1101.097-.022.194.0221.3153-.022.0728-.022.1455-.0881.1698-.1762.0243-.1763-.1941-.1983-.3396-.1763-.1213.022-.3396.0881-.3638.2203-.0243.1763.1698.2644.194.4186.0728-.022.1456-.044.2183-.044-.0242-.1543-.1455-.2864-.1213-.4407.0243-.0881-.194-.044-.2182.0221z"/><path d="m12.1525 19.9578c.0728 0 .1456.022.2183.022.0485 0 .2426-.0661.1456-.0881-.0728 0-.1456-.0221-.2183-.0221-.0486 0-.2426.0882-.1456.0882z"/><path d="m13.3651 20.0018c.1213.022.2668.066.4124.022.1455-.0441.1455-.1763.1455-.3084 0-.0221-.0242-.0221-.0485-.0221-.2911-.0661-.6306.0881-.5336.3966.097.3304.5094.2644.7277.0881.097-.0661-.1213-.0661-.1698-.022-.0728.044-.1213.1101-.2183.0661-.0728-.0441-.1213-.1102-.1213-.1763-.0243-.0661-.0243-.1322.0242-.1983.0486-.0661.1213-.044.1941-.022-.0243 0-.0243-.022-.0485-.022 0 .044 0 .0881-.0243.1322 0 .022-.0242.044 0 .044-.0485.0221-.1455-.022-.2183-.044-.0485-.0661-.2183.022-.1213.0661z"/><path d="m14.5049 20.09c0 .0661 0 .2424-.097.2644-.0242.022-.0728.044-.0485.0881.0242.0441.097.022.1455 0 .1941-.0661.1941-.1983.2183-.3745 0-.0661-.194-.0441-.2183.022z"/><path d="m15.549 19.4291c-.1698-.022-.3638-.022-.4366.1322-.0485.1102-.097.2864-.0727.4186.0727.2864.6306.2203.7034-.022.0242-.0881-.1941-.0441-.2183.022-.0243.0661-.1213.0661-.1941.0441-.0728-.0221-.097-.0882-.097-.1543 0-.066.0243-.1542.0485-.2203 0-.022.0243-.0661.0485-.0881.0243-.022.1213 0 .1455 0 .0728 0 .2183-.1322.0728-.1322z"/><path d="m15.7171 19.4287c-.0243.1763 0 .3305.0242.5067 0 .0441.2183 0 .2183-.044-.0242-.1542-.0485-.3085-.0242-.4627 0-.0881-.1941-.0661-.2183 0z"/><path d="m16.3237 19.9576c0-.0661-.097-.3966.0242-.3966.0728 0 .0971.1102.1213.1322.0243.0661.0728.1322.1213.1983.0728.0661.2668-.022.194-.0881-.097-.0882-.097-.1983-.1697-.2864-.0728-.0882-.1698-.1102-.2911-.0882-.3153.0661-.2183.3305-.2183.5508.0242.0881.2425.0441.2183-.022z"/><path d="m17.1728 19.2749c-.194-.0221-.3396.1101-.3881.2643-.0485.2204.1213.3305.3396.3305.0485 0 .1213-.022.1455-.0661.0728-.1542.1456-.2864.097-.4626-.0242-.0882-.2183-.0221-.2183.044.0728.3085.1698.661.0971.9914-.0243.0881.194.0661.2183-.022.0727-.3305-.0243-.705-.0971-1.0355-.0727.0221-.1455.0441-.2183.0441.0485.1322-.0242.2644-.0727.3966.0485-.0221.097-.0441.1455-.0661-.1213 0-.2183-.0441-.2183-.1543 0-.044.0243-.1982.1213-.1762.0728.0441.194-.0661.0485-.0881z"/><path d="m18.0709 19.4732c0 .0881-.0001.2203-.0728.2864-.0728.0881.1213.1321.1698.044.0727-.1101.097-.2423.097-.3525.0243-.0881-.1698-.0661-.194.0221z"/><path d="m19.307 18.4815c-.2425-.0661-.5821.1101-.4608.3745.097.1983.3638.022.5094.1101.1212.1102-.0243.2204-.1213.2644-.1456.0441-.2426.0441-.1941-.1322.0243-.0881-.194-.0661-.2183.0221-.0485.1762.0485.2643.2426.2643.1698 0 .3638-.0881.4851-.1982.1213-.1102.097-.2864-.0485-.3525-.097-.0441-.2183-.0221-.3153-.0221-.0485 0-.0728 0-.0971-.044-.0485-.0882 0-.2203.1213-.1983.0485.0661.2183-.0441.097-.0881z"/><path d="m19.6713 18.79c-.0242.1542-.0485.2864 0 .4406.0243.0661.2426.0221.2183-.044-.0485-.1322 0-.2644 0-.3966.0243-.1102-.194-.0661-.2183 0z"/><path d="m19.7197 18.5477c0 .1102.0485.1542.1941.1542.0242 0 .1455-.022.1455-.0661 0-.0661 0-.0881-.0485-.1322-.0485-.044-.2426.0221-.1941.0661.0243.0221.0486.0441.0486.0882.0485-.0221.097-.0441.1455-.0661-.0485 0-.0728-.0221-.0485-.0882-.0243-.0661-.2426-.022-.2426.0441z"/><path d="m20.0832 18.702c.1941.0441.3396.1763.5094.2644.0728.0441.2668-.0441.1698-.1101-.1698-.1102-.3396-.2424-.5337-.2865-.1212-.022-.2668.1102-.1455.1322z"/><path d="m20.4722 18.6358c-.0242.1102-.097.1983-.1697.2864-.0728.0882-.1456.1983-.2426.2424-.1213.0661 0 .1542.097.0881.1213-.0661.2183-.1762.3153-.2864.0971-.1102.1698-.2423.2184-.3745.0242-.0661-.1941-.0221-.2184.044z"/><path d="m10.2613 23.1524c1.4795-.1322 2.8864-.7271 4.366-.9474 1.1157-.1762 2.2557-.3304 3.3715-.5287.1213-.022.097-.1322-.0243-.1102-1.1885.2203-2.377.3746-3.5655.5728-1.3826.2203-2.7167.7931-4.1235.9253-.097-.022-.1698.1102-.0242.0882z"/><path d="m10.5027 24.4961c1.6251-.1101 3.2502-.3965 4.8511-.6829 1.4796-.2644 3.0805-.4627 4.4873-1.0135.1455-.044 0-.0881-.0728-.0661-1.4553.5728-3.129.7711-4.6813 1.0355-1.4796.2644-2.9835.5287-4.5116.6389-.0485 0-.194.0881-.0727.0881z"/></g><path d="m56.0383 46.531h-8.0956l-1.0743 11.8137h12.0667z" fill="#d6cde4"/><path d="m56.0383 46.531h-2.4939l-1.4964 11.8137h6.8871z" fill="#efe8f4"/><path d="m39.3098 43.6727c.4604.697 1.5923 2.6485 2.7817 4.9485.6906 1.3417 1.5923 3.6417 2.6666 6.8826l-1.3813.575c-2.4939-3.6417-4.3355-6.447-5.5633-8.4334.0767.5925.1343 1.2197.211 1.8644.2302 2.2129 0 6.9872-.1151 8.3637-.0767.8713-1.3812.6447-1.4963-.0522-.1151-.697-2.4364-11.6569-2.4364-13.9569 0-.8713 2.1486-1.5857 3.0119-.5228.7098-.4704 1.7073-.5924 2.3212.3311z" fill="#cb7a43"/><path d="m41.6116 54.7028c-.2685-.6447-4.7384-7.7364-5.6209-9.9318-.3836-.9584 2.8009-2.9622 3.9327-1.3069l4.7385 10.2107z" fill="#a396c4"/><path d="m35.3771 42.7326c1.88-.2613 5.7935-.6969 11.7789-1.3591h6.9829c-.1151 3.816-1.6114 5.8198-5.218 5.6978-2.4939-.0871-10.8389-1.2197-11.0499-1.1326-.096.0349.1534 3.0144.7481 8.9387l-3.3763.1046c0-.6447-1.4005-7.4402-1.4005-10.3327 0-.8015.3454-1.7424 1.5348-1.9167z" fill="#bcb1d4"/><path d="m38.2546 58.0303c-.0576-.1045-.1919-.1568-.3262-.1045-.3069.1394-.5563.1916-.7481.1916-.2111 0-.4988-.0697-.8633-.2265l-.211-.453c-.0192-.0523-.096-.0871-.1535-.0523l-3.1462 1.272c-.2494.0349-.5755.0697-.94.122-.3837.0348-.4796.331-.3069.8538h6.7719c.0767-.3834.1151-.6622.1151-.8538.0192-.1743-.0384-.4182-.1918-.7493 0 0 .0191 0 0 0z" fill="#3d2884"/><path d="m44.9688 54.9647c-.1151-.0523-.2686-.0174-.3261.0871-.1535.2788-.307.4705-.4413.575-.1726.122-.4412.2265-.8249.3137l-.4604-.2266c-.0575-.0348-.1343 0-.1534.0523l-1.5923 2.7705c-.1727.1742-.4029.3833-.6715.6273-.2685.2439-.1534.5227.3454.8363 3.338-2.4045 5.1029-3.6765 5.3139-3.8159-.211-.3311-.3645-.575-.4988-.7318-.1343-.1394-.3453-.2962-.6906-.4879 0 0 .0192.0174 0 0z" fill="#3d2884"/><path d="m51.2617 32.2952h-2.8776l.4796-3.1364c-.7865.4182-1.5347.6273-1.8992.5402-.9016-.2091-.9784-3.2061-.2877-4.3735.6906-1.1849 4.278-1.6902 4.4506.6447.0576.8189-.3069 1.5333-.8632 2.1257z" fill="#cb7a43"/><path d="m47.9233 25.4992c-1.2661.0174-1.4196-.1917-1.4196-.8886.211-.1394.9208-.3485 1.7266-.4182.422-.1046.9016-.0871 1.3812.0871.5755.1568.9784.2788 1.3429.8886.7865 1.2372.1343 2.7182-.6715 3.1539-.211-.2266-.4028-.4531-.5755-.6622.1343-.1219.211-.2788.211-.4704 0-.3659-.3261-.6622-.729-.6622-.0383 0-.0575 0-.0767 0-.0384 1.272-.1343 2.1084-.2877 2.5092-.2302.6272-1.5539.7841-2.0335.7841-.4604 0-.3837-.4531-.3837-.697 0-.1394.4796.0523.4796-.2091s-.6139-.4008-.729-.5576c-.1535-.1917-.1918-.453.0192-.453.3069 0 .9208.4182 1.6306.4182.4796 0 .7674-.697.8825-2.091-.2111-.331-.4604-.5924-.7674-.7318z" fill="#3d2884"/><path d="m46.8688 26.4563c.1151.0174.1727.2265.0384.2614-.1535.0522-.1727-.122-.1535-.2266.0384-.0174.0767-.0174.1151-.0348z" fill="#3d2884"/><path d="m46.3505 26.5093c-.0383.0174-.4028.9758-.4987 1.2023.1534.1917.4028.1917.6139.1742.0191-.4879.0383-.9583-.1343-1.3765" fill="#cb7a43"/><path d="m47.3676 26.3885c.0384-.0697 0-.1742-.0575-.2265-.0576-.0523-.1343-.0871-.2111-.122-.0767-.0174-.1534-.0348-.2494-.0174-.0767.0174-.1726.0348-.2302.0871.0768.0174.1535.0349.2111.0349.0767.0174.1342.0348.1918.0522.0576.0175.1343.0349.1918.0523.0576.0349.1151.0697.1535.1394z" fill="#3d2884"/><path d="m55.1367 44.6321h-2.6857c.5179-.7841.8824-2.0387 1.1126-3.7637.5564 1.4462 1.0743 2.7008 1.5731 3.7637z" fill="#cb7a43"/><path d="m42.8781 41.8608-3.7984 1.4288c-1.0743 1.15-1.669 1.6204-1.8033 1.4288-.1919-.2788.2302-.5402.1343-.7493s-.8057-.1917-1.4964-.1394c-.6906.0523-.4796-.2265-.3261-.3659.6906-.3833 1.5731-.697 2.609-.9583l3.8368-2.5614zm15.4238 5.1576c.1727.3136 1.4388 1.2719 2.3213 1.8295.3453.2265.211.5053.0767.575-1.0935.6099-1.8033-.1045-2.7433-.5053-1.0359-.4356-.94.8015-1.7649.4705.2494-.5053.8441-1.4637.5563-2.0909-.1151-.2788-.9592-2.6834-2.513-7.2311l2.513-.0175c.8058 4.2167 1.3237 6.5342 1.5539 6.9698z" fill="#cb7a43"/><path d="m39.559 43.5168-1.1319-1.272c4.7192-3.0841 6.3115-8.8864 10.1675-11.9008l1.0359.1568c.1535 5.0008-1.88 12.0925-10.0715 13.016z" fill="#3d2884"/><path d="m50.7627 29.9077-2.6474.3833c0 4.5652-2.7433 8.0152-3.4339 11.2213-.0576.2788-.1343.8364.2877.8364h9.1891c-.4412-5.297-1.2086-9.2349-3.3955-12.441z" fill="#efe8f4"/><path d="m58.3403 46.9141h-1.9759c-.3837-.6272-.8058-1.3765-1.2278-2.2825h-7.2323c-1.0743-2.4569-.4029-7.3357 1.9759-14.6714l.8249-.0348c.0767-.0174.1535-.0174.2494-.0174 1.6498 0 2.5706-.5925 3.6066-.2963 1.0359.2788 1.3812 1.1675.422 2.7531-.2302.3659-.5371.6099-.9208.697 3.0502 3.7811 4.4698 8.4159 4.278 13.8523z" fill="#3d2884"/><path d="m49.708 15.7244c0 1.8295-1.4196 3.4326-3.6066 4.4432-.4987.2265-.1726 1.6204-.2685 1.8644-.096.2439-1.9376-1.1152-2.2446-1.0629-.844.1742-1.7649.2614-2.7049.2614-4.8727 0-8.8246-2.4569-8.8246-5.5061 0-3.0493 3.9519-5.5061 8.8246-5.5061s8.8246 2.4742 8.8246 5.5061z" fill="#f9aa38"/></g></g></svg>