<svg fill="none" height="60" viewBox="0 0 60 60" width="60" xmlns="http://www.w3.org/2000/svg" xmlns:xlink="http://www.w3.org/1999/xlink"><filter id="a" color-interpolation-filters="sRGB" filterUnits="userSpaceOnUse" height="61.1755" width="63.8952" x="-4.22381" y="-.223811"><feFlood flood-opacity="0" result="BackgroundImageFix"/><feColorMatrix in="SourceAlpha" result="hardAlpha" type="matrix" values="0 0 0 0 0 0 0 0 0 0 0 0 0 0 0 0 0 0 127 0"/><feOffset dx=".223811" dy=".223811"/><feGaussianBlur stdDeviation=".223811"/><feColorMatrix type="matrix" values="0 0 0 0 0.129412 0 0 0 0 0.129412 0 0 0 0 0.129412 0 0 0 0.4 0"/><feBlend in2="BackgroundImageFix" mode="normal" result="effect1_dropShadow_172_62122"/><feBlend in="SourceGraphic" in2="effect1_dropShadow_172_62122" mode="normal" result="shape"/></filter><filter id="b" color-interpolation-filters="sRGB" filterUnits="userSpaceOnUse" height="10.5988" width="6.45455" x="26.7518" y="40.2005"><feFlood flood-opacity="0" result="BackgroundImageFix"/><feColorMatrix in="SourceAlpha" result="hardAlpha" type="matrix" values="0 0 0 0 0 0 0 0 0 0 0 0 0 0 0 0 0 0 127 0"/><feOffset dx=".269703" dy=".269703"/><feGaussianBlur stdDeviation=".269703"/><feColorMatrix type="matrix" values="0 0 0 0 0.129412 0 0 0 0 0.129412 0 0 0 0 0.129412 0 0 0 0.5 0"/><feBlend in2="BackgroundImageFix" mode="normal" result="effect1_dropShadow_172_62122"/><feBlend in="SourceGraphic" in2="effect1_dropShadow_172_62122" mode="normal" result="shape"/></filter><filter id="c" color-interpolation-filters="sRGB" filterUnits="userSpaceOnUse" height="34.096" width="21.5386" x="9.13599" y="26.7217"><feFlood flood-opacity="0" result="BackgroundImageFix"/><feColorMatrix in="SourceAlpha" result="hardAlpha" type="matrix" values="0 0 0 0 0 0 0 0 0 0 0 0 0 0 0 0 0 0 127 0"/><feOffset dx=".291993" dy=".291993"/><feGaussianBlur stdDeviation=".291993"/><feColorMatrix type="matrix" values="0 0 0 0 0.129412 0 0 0 0 0.129412 0 0 0 0 0.129412 0 0 0 0.5 0"/><feBlend in2="BackgroundImageFix" mode="normal" result="effect1_dropShadow_172_62122"/><feBlend in="SourceGraphic" in2="effect1_dropShadow_172_62122" mode="normal" result="shape"/></filter><clipPath id="d"><path d="m0 0h60v60h-60z"/></clipPath><g clip-path="url(#d)"><g filter="url(#a)"><path d="m2.6135 39.1759c4.05205-2.026 11.4567-2.7134 14.6525-2.8039 3.2561-.6331 10.9261-1.8451 15.557-1.628 5.7886.2713 21.2552 2.1707 23.1546 2.8943s4.3414 2.8943 2.1707 5.8791c-2.1707 2.9847-22.2501 9.0447-27.3152 9.4065-5.065.3618-10.8537-2.8039-13.5671-4.251-2.7134-1.4472-11.30592-1.9899-15.55697-3.6179-.985029-.3773-4.16059-3.3466.90447-5.8791z" fill="#ddf2f9"/><path d="m12.1956 4.87931v36.89509l16.2433 1.689s0-31.2651 0-31.9407l-11.3143-11.5227z" fill="#c1e3f2"/><path d="m41.9196 11.5229h-13.4801v31.9408h13.4801z" fill="#6bb8dc"/><path d="m17.1245 0h12.8454l11.9491 11.5227h-13.4801z" fill="#1174ba"/><g fill="#06508c"><path d="m30.7167.712891h-12.8827l.2987.337799h12.92z"/><path d="m32.8453 2.77686h-13.0321l.3361.30026h13.0321z"/><path d="m34.9737 4.8042h-13.1441l.3361.3378h13.144z"/><path d="m37.0647 6.83105h-13.2188l.2988.33781h13.2561z"/><path d="m39.1933 8.89502h-13.3681l.3361.30027h13.3681z"/><path d="m41.2844 10.9219h-13.4428l.336.3378h13.4428z"/></g><path d="m32.4719 15.1262h-1.6057v4.3163h1.6057z" fill="#ddf2f9"/><path d="m30.6702 43.5325v-11.8095c0-2.5543 2.2237-4.6441 4.9948-4.6441 2.7369 0 4.9949 2.0898 4.9949 4.6441v11.8095z" fill="#ddf2f9"/><path d="m39.7791 43.5324h-8.2269v-11.4985c0-2.2339 1.8245-4.0737 4.1135-4.0737 2.2557 0 4.1134 1.8069 4.1134 4.0737z" fill="#f45f0c"/><path d="m50.0627 43.5327h-9.4021v-11.9324c0-2.3183 2.0852-4.2275 4.7011-4.2275 2.578 0 4.701 1.8751 4.701 4.2275z" fill="#f77b0b"/><path d="m34.8244 15.1262h-1.6056v4.3163h1.6056z" fill="#ddf2f9"/><path d="m37.1767 15.1262h-1.6057v4.3163h1.6057z" fill="#ddf2f9"/><path d="m39.5295 15.1262h-1.6057v4.3163h1.6057z" fill="#ddf2f9"/><path d="m23.8833 25.1094h2.6512v-7.3565h-2.6512z" fill="#6bb8dc"/><g filter="url(#b)"><path d="m30.633 42.0128c.151.9916-.5303 1.9178-1.5218 2.0689s-1.9178-.5302-2.0688-1.5218c-.1511-.9915.5302-1.9177 1.5217-2.0688s1.9178.5302 2.0689 1.5217zm-3.3113.5046c.1275.8373.9097 1.4126 1.747 1.285.8372-.1276 1.4125-.9097 1.285-1.747-.1276-.8373-.9098-1.4126-1.747-1.285-.8373.1276-1.4126.9097-1.285 1.747z" fill="#f45f0c"/><path d="m30.3392 43.8943c.0875.574-.307 1.1103-.881 1.1977-.5741.0875-1.1103-.307-1.1978-.881-.0874-.574.307-1.1103.881-1.1977.5741-.0875 1.1103.3069 1.1978.881zm-1.7064.26c.0561.3683.4003.6215.7686.5653.3684-.0561.6215-.4002.5654-.7686s-.4003-.6215-.7686-.5654c-.3684.0562-.6215.4003-.5654.7687z" fill="#f77b0b"/><path d="m29.1458 45.0788c-.0128-.1048.0617-.2002.1665-.213s.2002.0617.213.1665l.5808 4.7436c.0128.1048-.0617.2001-.1665.213-.1048.0128-.2001-.0618-.213-.1665z" fill="#f77b0b"/><path d="m29.9409 49.6483c-.0096-.0786.0463-.1501.1249-.1598l.6167-.0755c.0786-.0096.1501.0463.1597.1249s-.0463.1501-.1249.1597l-.6166.0755c-.0786.0097-.1502-.0462-.1598-.1248z" fill="#f77b0b"/><path d="m29.8945 49.2688c-.0097-.0786.0462-.1501.1248-.1598l.6167-.0755c.0786-.0096.1501.0463.1597.1249.0097.0786-.0463.1501-.1248.1598l-.6167.0755c-.0786.0096-.1501-.0463-.1597-.1249z" fill="#f77b0b"/><path d="m29.848 48.8893c-.0096-.0786.0463-.1501.1249-.1597l.6166-.0755c.0786-.0097.1501.0462.1598.1248.0096.0786-.0463.1501-.1249.1598l-.6167.0755c-.0786.0096-.1501-.0463-.1597-.1249z" fill="#f77b0b"/><path d="m29.8015 48.5098c-.0096-.0786.0463-.1501.1249-.1597l.6167-.0755c.0786-.0097.1501.0463.1597.1249.0096.0785-.0463.1501-.1249.1597l-.6166.0755c-.0786.0096-.1502-.0463-.1598-.1249z" fill="#f77b0b"/><g fill="#f45f0c"><path d="m30.5823 43.4785c.0723.474-.2534.9168-.7274.989-.474.0723-.9168-.2534-.989-.7274s.2535-.9168.7274-.989c.474-.0723.9168.2534.989.7274zm-1.4089.2147c.0463.3042.3305.5132.6346.4668.3042-.0463.5132-.3305.4669-.6346-.0464-.3042-.3305-.5132-.6347-.4668-.3042.0463-.5132.3304-.4668.6346z"/><path d="m29.9225 44.3602c-.0366-.0791-.0022-.1729.0769-.2095.0791-.0367.1729-.0023.2096.0768l1.6592 3.5803c.0366.0791.0022.1729-.0769.2096-.0791.0366-.1729.0022-.2096-.0769z"/><path d="m31.706 47.7494c-.0275-.0593-.0017-.1297.0576-.1572l.4655-.2157c.0593-.0275.1297-.0017.1572.0577.0275.0593.0017.1297-.0577.1571l-.4654.2157c-.0593.0275-.1297.0017-.1572-.0576z"/><path d="m31.5733 47.463c-.0275-.0593-.0017-.1297.0576-.1572l.4654-.2157c.0594-.0275.1297-.0017.1572.0576.0275.0594.0017.1297-.0576.1572l-.4654.2157c-.0594.0275-.1297.0017-.1572-.0576z"/><path d="m31.4405 47.1766c-.0275-.0594-.0017-.1297.0577-.1572l.4654-.2157c.0593-.0275.1297-.0017.1572.0576s.0017.1297-.0576.1572l-.4655.2157c-.0593.0275-.1297.0017-.1572-.0576z"/><path d="m31.3078 46.8901c-.0275-.0593-.0017-.1297.0576-.1572l.4655-.2156c.0593-.0275.1297-.0017.1572.0576.0274.0593.0016.1297-.0577.1572l-.4654.2157c-.0593.0275-.1297.0017-.1572-.0577z"/><path d="m29.8906 43.766c.2809-.1999.4991-.4756.6291-.795l-.2617-.1065c-.1098.2697-.294.5025-.5312.6713z"/></g></g><g filter="url(#c)"><path d="m19.6833 40.4866 2.6294 9.002 1.224 6.7629h1.2353l-1.2353-15.7649z" fill="#ffcaa7"/><path d="m18.5167 40.4866c.1814 4.682.1134 7.2265.0681 7.6563-.0454.4297-.2721 3.2683-1.8587 8.2556h1.2806c2.0967-4.7838 2.8221-7.6223 3.0714-8.2556.238-.6334.952-3.1779 1.9833-7.6563z" fill="#ffcaa7"/><path d="m19.6274 40.4866c.68 3.0987 1.8587 8.0408 3.5361 14.8375h1.8133c.136-6.9777-.4307-11.5579-1.4167-14.8375z" fill="#1e9ed1"/><path d="m18.5056 40.4866c.1814 4.6819-.2833 9.2848-1.7226 14.9167h1.9266c2.0967-4.7046 3.604-9.2961 4.6354-14.9167z" fill="#6bb8dc"/><path d="m16.5447 57.3254.068-1.1422c.4193.1244.9406.0791 1.564-.1471.6687.475 1.5187.803 2.5387.9726.0793.0113.1246.0905.1133.1697v.0113l-.102.3505h-2.55-1.4847z" fill="#06508c"/><path d="m23.2646 57.3254.068-1.1422c.4194.1244.9407.0791 1.5641-.1471.6686.475 1.5186.803 2.5386.9726.0794.0113.1247.0905.1134.1697v.0113l-.102.3505h-2.55-1.4847z" fill="#06508c"/><path d="m12.8143 44.1613c.1832.018.3756.081.5496-.0361v2.1887c-.1923.009-.3755-.0541-.5587-.0811 0-.6845.0091-1.378.0091-2.0715z" fill="#88c6e3"/><path d="m13.1902 50.2135c.3298.018.6687.027.9984.045.0275.0901.1099.0721.1832.0811.4488.054.8885.099 1.3373.1621.4305.063.6961.3423.7328.7746.0916 1.1618.1099 2.3237.1374 3.4856.0274 1.0988-.0275 2.1976-.0733 3.2964-.0092.2702.0183.5314-.0275.8016-.0366.2252-.1557.5584-.3847.6575-.0824.036-.6595.3152-.7236.2342-.0183-.027.055-.2162.0641-.2522.0367-.1892.055-.3783.0641-.5674 0-.0541.0184-.0991.0184-.1531.0366-1.234.0274-2.4679.0549-3.7018.0092-.4323 0-.8646 0-1.288.0092-.7835-.0458-1.5671-.0549-2.3507 0-.2162-.0642-.4413-.2473-.5674-.1649-.1171-.3573-.2072-.5771-.2162-.5862-.036-.7877.0631-1.374.027-.2564-.018-.6778.0631-.9342.0451-.2473-.018-.742.045-.9893.045-.174 0-.3847.0901-.5587.0991-.1649.009-.6503-.2612-.7969-.3783.0733-.0631.5496-.1801.632-.2072.8152-.2521 1.6762-.045 2.5189-.072z" fill="#1174ba"/><path d="m15.1504 50.3126c.2931 0 .5312-.1981.8244-.2071.2015.081.4121.072.6136.108.6321.0721.8611.4504.8794.9908.0549 1.4411.1191 2.8821.1007 4.3232-.0183.9997-.0458 1.9995-.1099 2.9992-.0183.2972-.1923.5044-.458.6395-.1465.0721-.3022.1171-.4671.1441.0824-.1711.1924-.3242.2015-.5224.0183-.6395.0641-1.2879.0733-1.9274.0366-1.8554.0275-3.7018-.1008-5.5481-.0366-.5494-.2839-.8196-.8427-.9007-.2289-.027-.4763-.0631-.7144-.0991z" fill="#1174ba"/><path d="m15.15 50.3129c.2381.036.4855.072.7236.108.5587.0811.806.3513.8427.9007.1282 1.8464.1374 3.7018.1007 5.5481-.0091.6395-.0549 1.288-.0732 1.9275-.0092.1981-.1191.3512-.2016.5224-.1099.054-.2198.1351-.348.1261.3939-.3963.2839-.9097.3114-1.3871.0458-1.0988.1008-2.1976.0733-3.2964-.0275-1.1619-.0458-2.3238-.1374-3.4856-.0366-.4233-.3023-.7025-.7328-.7746-.4396-.063-.8885-.1081-1.3373-.1621-.0733-.009-.1557.009-.1832-.0811.3206-.009.6412.0451.9618.0541z" fill="#88c6e3"/><path d="m16.0387 44.5485c.1832.018.3755.0631.5496-.027v1.8464c-.1924.009-.3756-.0451-.5588-.0631.0092-.5854.0092-1.1709.0092-1.7563z" fill="#88c6e3"/><path d="m12.5029 46.2417c.4763.027.9435.054 1.4198.0811v.063c-.5771-.027-1.145-.054-1.722-.0901.1007-.018.2015-.036.3022-.054z" fill="#06508c"/><path d="m16.4781 49.8535c-.0824.0631-.174.1171-.2839.0991.2656-.1981.2564-.4863.2747-.7746.0092-.081 0-.1711 0-.2521 0-.3513 0-.6936 0-1.0448.0184-.2522-.0183-.5044-.0458-.7476-.0366-.3512-.3847-.5764-.7785-.5404-.055 0-.1191-.009-.1741-.009-.1282-.1351-.3114-.054-.4579-.1081-.0733-.027-.1557.009-.2382-.045.055-.054.1191-.036.1649-.036.3847.045.7694.09 1.1541.1531.3023.054.5038.2612.5404.5674.0824.5945.0733 1.1889.055 1.7833 0 .1171-.0183.2342-.0183.3513.0091.2342-.055.4323-.1924.6034z" fill="#06508c"/><path d="m11.248 50.1508c.11-.0811.2565-.063.3847-.1081.4672.0361.9343.0721 1.4015.1081.0549 0 .1282-.018.1557.054-.6504.0271-1.2915-.063-1.9419-.054z" fill="#88c6e3"/><g fill="#06508c"><path d="m16.6064 44.0982c-.0183-.2071-.1282-.3962-.3023-.5133-.2198-.1441-.5129-.1261-.7694-.1441-.3847-.0361-.7694-.0631-1.1541-.0991-.3664-.027-.7236-.0811-1.09.009-.3572.1081-.577.4593-.5129.8196.0091.036.0091.0811.0549.0991.1557.054.3298.054.4855.018.1466-.036.0824-.1711.0916-.2702.0092-.1982.0824-.2702.2931-.2522.3755.027.7511.063 1.1175.0901.3389.027.7053.018 1.0258.1171.1283.054.1466.1711.1466.2882.0092.099-.0366.2071.055.2882.1832.018.3755.063.5495-.027.0458-.1351.0275-.2792.0092-.4234zm-.4305-.3692c.0092.036.0366.054.0641.072-.0275-.009-.0549-.027-.0641-.072zm.229.4233c.0091-.1261 0-.2432-.1374-.3333-.0275-.036-.055-.063-.0824-.099.0274.036.0549.063.0824.099.1374.0901.1465.2072.1374.3333z"/><path d="m15.5714 53.7893c.0092-.7836-.0458-1.5672-.0549-2.3508 0-.2161-.0641-.4413-.2473-.5674-.1649-.1171-.3573-.2071-.5771-.2161-.6961-.0451-1.3922-.0991-2.0792-.1441-.6961-.0361-1.3923-.009-2.0884-.0811-.5679-.054-.98009.3152-.99841.8736-.02748.7746-.05496 1.5402-.08244 2.3148-.03663.9547.00001 1.9544.01833 2.9181.00916.5044.03663 1.0088.06411 1.5041.01832.3423-.02747.7476.17404 1.0448.18319.2612.52207.3423.82437.3873.8152.1351 1.6396.2432 2.4731.3333.4213.045.8427.081 1.264.117.3756.0271.7236.0541 1.0625-.1441.0092-.009.0275-.018.0367-.027.0091-.018.0183-.036.0274-.054.0733-.2522.1008-.5134.1191-.7656 0-.054.0183-.0991.0183-.1531.0367-1.2339.0275-2.4678.055-3.7018 0-.4323-.0092-.8646-.0092-1.2879z"/><path d="m9.54443 58.716c0 .009.00916.018.01833.0271 0-.0091 0-.0271-.00917-.0361z"/></g><path d="m17.2111 47.4128c0-.1531 0-.3062-.0275-.4503s-.0916-.2972-.2107-.3963c-.1282-.1171-.3022-.1711-.4763-.1982-.1007-.018-.2015-.027-.3114-.036-1.1175-.1261-2.2441-.2252-3.3707-.1981-.0825 0-.2565.054-.3115.108.4672.0271.9435.0541 1.4106.0811v.0631c-.577-.0271-1.1449-.0541-1.722-.0901-.1282-.009-.3114.063-.4305.0991-.1557.045-.3114.099-.4488.1801-.2198.1261-.3114.3513-.3297.6034-.055.6215-.0458 1.252-.0184 1.8734.0092.1802.0275.3693.0916.5404.1099.2702.3206.3603.5679.4684.4672.036.9343.072 1.4014.1081.055 0 .1283-.0181.1558.054.3297.018.6686.027.9984.045.3205-.009.6411.0361.9617.0541.1282.009.229-.018.3389-.0541.1008-.036.2107-.081.3114-.108.2016-.0631.4031-.1622.5221-.3423.0916-.1441.1283-.3062.1558-.4774.0549-.3962.0641-.8015.0458-1.2068-.0092-.2612-.0184-.5224-.055-.7836-.0366-.1982-.0824-.4954-.2565-.6215-.0641-.045-.1374-.072-.2107-.0901-.2289-.063-.4579-.108-.6961-.1261-.0549-.009-.5038-.081-.5221-.054.0183-.027.0733-.036.1191-.036.3755.036.7419.081 1.1175.1441.1374.027.2839.054.3847.1351.1282.0991.1832.2612.2106.4143.1374.6034.0733 1.2249.0642 1.8464 0 .2882.0091.6034-.1557.8466-.0184.018-.0275.045-.0184.072.0092.0091.1374-.054.1649-.063.1099-.036.2198-.0811.3114-.1531.1099-.0901.1741-.2252.2015-.3603.0275-.1351.0275-.2792.0275-.4143.0092-.5044.0092-.9907.0092-1.4771z" fill="#1e9ed1"/><path d="m11.0557 49.8175.0091.009c0-.009 0-.009-.0091-.009 0-.009 0 0 0 0z" fill="#1174ba"/><path d="m14.2433 46.6473c.4855.054 1.2824-.0541 1.5388.4863.0458.0991.055.1982.0641.3062.055.8197.0825 1.6483-.1099 2.4409-.0916.3602-.3114.4413-.6686.4233-.1099-.009-.284.018-.3939.009-.2839-.018-.5679-.0631-.8518-.0541-.2931-.018-.5954-.027-.8885-.045-.0275-.072-.0824-.054-.1374-.054-.4122-.0361-.8244-.0721-1.2365-.1081-.229-.1081-.4122-.1982-.5038-.4684-.0641-.1711-.0733-.3602-.0825-.5404-.0274-.6214-.0274-1.2519.0184-1.8734.0183-.2431.0916-.4683.2931-.6034.119-.0811.6778-.045.8243-.045z" fill="#1e9ed1"/><path d="m20.7032 29.9802c-.3286-.3845-.5553-.8595-.51-1.391.102-1.5268 2.2327-1.1875 2.6521-.4185.4193.7691.3626 2.7255-.17 2.8613-.2154.0565-.6687-.0792-1.1334-.3619l.2947 2.0469h-1.7114z" fill="#ffcaa7"/><path d="m20.5673 30.3194c-.2153-.9612-.8273-1.6058-.7367-2.0356.068-.2827.2267-.4637.4987-.5315.136-.5655.5893-.803 1.3487-.7238 1.1446.1244 1.8473.5994 1.5413 1.6398-.272 0-.612-.1018-1.0767.0679-.1473.0565-.2493.2262-.3173.5089h-.204c-.204-.3393-.408-.4637-.6007-.3732-.1926.0905-.238.3053-.136.6446l-.102.7916h-.2153z" fill="#06508c"/><path d="m23.0732 29.3696c.0454.0905.1247.181.1587.2714.034.0905.0567.2149.068.3054.0113.1357-.1587.3053-.306.3053" fill="#ffcaa7"/><path d="m22.9933 29.1321c-.0453 0-.0906 0-.1246 0-.034.0113-.068.0113-.1134.0226-.0793.0226-.1473.0452-.238.0565.0454-.0904.1247-.1357.2154-.1583.0453-.0113.0906-.0113.1473 0s.102.0339.1133.0792z" fill="#06508c"/><path d="m22.9932 30.6018c-.0453.0113-.0907.0113-.1247 0-.0453-.0113-.0793-.0339-.1246-.0452-.068-.0339-.136-.0905-.204-.1131l.0793-.0452c0 .0113.0113.0452.034.0791s.0453.0566.068.0905c.0453.0565.102.1244.1587.1809-.0454-.0113-.0794-.0226-.1247-.0452-.034-.0226-.068-.0452-.102-.0679-.034-.0226-.068-.0565-.0907-.0904-.0226-.034-.0566-.0792-.0566-.147v-.0792l.068.0339c.0906.0339.1473.0905.2153.147.068.034.1247.0792.204.1018z" fill="#06508c"/><path d="m22.857 29.4942c.0501 0 .0907-.0405.0907-.0905s-.0406-.0905-.0907-.0905-.0906.0405-.0906.0905.0405.0905.0906.0905z" fill="#06508c"/><path d="m26.2467 38.1789 2.0287 1.9678c.5894.2488 1.0767.5315 1.4507.8256.0793.1018.1813.294-.2267.2149-.3966-.0905-.816-.1584-.8953-.034s.1473.328.0113.4976c-.0906.1131-.408-.2488-.9293-1.0743l-2.108-1.244zm-9.9053-1.7868 1.564.0113c-1.19 3.8564-1.8247 5.8694-1.904 6.0504-.17.4071.1813 1.0291.34 1.3684-.4874.2149-.4307-.5881-1.054-.3054-.5667.2601-.986.7351-1.632.328-.0794-.0452-.17-.2375.0453-.3732.5213-.3619 1.2807-.9952 1.3827-1.1988.1473-.2827.5666-2.2392 1.258-5.8807z" fill="#ffcaa7"/><path d="m21.1116 31.9594.6233-.1017c.9747 3.4379 5.9727 5.7789 6.29 7.0569.1134.4749-.2266.7124-.0566.8481l-.8047.5881c-.136-.1583-.4307.1357-1.0313-.0678-.6007-.2036-5.0207-4.2523-5.0207-8.3236z" fill="#1174ba"/><path d="m22.155 32.4119c-.068 4.5462 2.5614 5.7111 1.972 7.5319-.4873 1.5041-5.1226 3.1213-5.9273 1.6511-.3287-.5994-.476-1.3232-.4873-2.1035-.2041.5994-.3627 1.1196-.4874 1.5606-.204.7464-1.0087.8708-1.0087 1.1649l-1.054-.294c.068-.3959-.4193-.5881-.2946-1.4589.6006-3.9356 2.1986-6.7968 4.8053-8.561l.0227-.3845c.0113-.1584.1473-.2715.306-.2602l1.9267.1358c.1586.0113.272.147.2606.3053z" fill="#1e9ed1"/></g></g></g></svg>