<svg height="320" viewBox="0 0 248 320" width="248" xmlns="http://www.w3.org/2000/svg"><g fill="none" transform="translate(-13 -38)"><path d="m12.4834173 175.04c18.104766-9.052 51.189166-12.124 65.468266-12.528 14.5485-2.829 48.8177997-8.244 69.5097997-7.274 25.864 1.212 94.969 9.699 103.456 12.932 8.486 3.233 19.398 12.932 9.699 26.268s-99.415 40.412-122.046 42.029c-22.631 1.616-48.4950997-12.528-60.6187997-18.994s-50.5156-8.891-69.50951996-16.165c-4.40115-1.685-18.58978004-14.953 4.04125396-26.268z" fill="#ddf2f9"/><path d="m55.2952833 21.8011v164.8499l72.5761997 7.546s0-139.6944 0-142.713l-50.5530997-51.484z" fill="#c1e3f2"/><path d="m188.103483 51.4844h-60.23v142.7126h60.23z" fill="#6bb8dc"/><path d="m77.3185833 0h57.3938997l53.389 51.484h-60.23z" fill="#1174bb"/><path d="m175.921483 39.74463h-59.729l1.501 1.3416h59.73z" fill="#06508c"/><path d="m185.265483 48.7998h-60.063l1.501 1.5093h60.063z" fill="#06508c"/><path d="m145.890483 67.583h-7.174v19.2855h7.174z" fill="#ddf2f9"/><path d="m137.843483 194.507v-52.766c0-11.4126 9.935-20.7503 22.317-20.7503 12.229 0 22.317 9.3377 22.317 20.7503v52.766z" fill="#ddf2f9"/><path d="m178.540483 194.507h-36.758v-51.376c0-9.9817 8.152-18.2018 18.379-18.2018 10.079 0 18.379 8.0733 18.379 18.2018z" fill="#f45f0c"/><path d="m224.488483 194.507h-42.01v-53.315c0-10.358 9.317-18.8883 21.005-18.8883 11.519 0 21.005 8.378 21.005 18.8883z" fill="#f77b0b"/><g fill="#ddf2f9"><path d="m156.402483 67.583h-7.175v19.2855h7.175z"/><path d="m166.913483 67.583h-7.174v19.2855h7.174z"/><path d="m177.424483 67.583h-7.174v19.2855h7.174z"/></g><path d="m107.518483 112.1911h11.846v-32.8693h-11.846z" fill="#6bb8dc"/><g transform="translate(121.540776 180.817293)"><path d="m16.1367072 6.89270721c.675 4.42999999-2.369 8.56899999-6.79899999 9.24399999-4.43.675-8.569-2.369-9.244-6.79899999-.675-4.43 2.369-8.569 6.799-9.244 4.42999999-.675 8.56899999 2.369 9.24399999 6.799zm-14.79499999 2.255c.57 3.74099999 4.065 6.31099999 7.806 5.74099999 3.73999999-.57 6.31099999-4.065 5.74099999-7.80599999-.57-3.741-4.065-6.311-7.80599999-5.741-3.741.57-6.311 4.065-5.741 7.806z" fill="#f45f0c"/><path d="m14.8237072 15.3007072c.391 2.565-1.371 4.961-3.936 5.352-2.56499999.391-4.96099999-1.371-5.35199999-3.936-.39-2.565 1.372-4.961 3.937-5.352 2.56499999-.391 4.96099999 1.372 5.35099999 3.936zm-7.62399999 1.162c.251 1.646 1.789 2.777 3.43399999 2.526 1.646-.251 2.777-1.788 2.527-3.434-.251-1.646-1.789-2.777-3.43499999-2.526-1.646.251-2.777 1.788-2.526 3.434z" fill="#f77b0b"/><path d="m9.49170721 20.5937072c-.057-.468.276-.894.74399999-.952.468-.057.895.276.952.744l2.595 21.195c.057.468-.276.894-.744.951-.468.058-.894-.275-.952-.744z" fill="#f77b0b"/><path d="m13.0447072 41.0107072c-.043-.352.207-.671.558-.714l2.755-.337c.351-.043.671.206.714.558.043.351-.207.67-.558.713l-2.755.338c-.352.043-.671-.207-.714-.558z" fill="#f77b0b"/><path d="m12.8367072 39.3147072c-.043-.351.207-.671.558-.714l2.756-.337c.351-.043.67.207.713.558s-.207.671-.558.714l-2.755.337c-.351.043-.671-.207-.714-.558z" fill="#f77b0b"/><path d="m12.6297072 37.6197072c-.043-.352.207-.671.558-.714l2.755-.338c.351-.043.671.207.714.558.043.352-.207.671-.558.714l-2.756.337c-.351.043-.67-.206-.713-.557z" fill="#f77b0b"/><path d="m12.4217072 35.9237072c-.043-.351.207-.671.558-.714l2.755-.337c.352-.043.671.207.714.558s-.207.671-.558.714l-2.755.337c-.351.043-.671-.207-.714-.558z" fill="#f77b0b"/><g fill="#f45f0c"><path d="m15.9107072 13.4437072c.323 2.118-1.132 4.096-3.25 4.419-2.118.322-4.09599999-1.133-4.41899999-3.251-.323-2.117 1.133-4.096 3.24999999-4.419 2.118-.32199999 4.097 1.133 4.419 3.251zm-6.29499999.959c.207 1.359 1.47699999 2.293 2.83599999 2.086s2.293-1.477 2.085-2.836c-.207-1.359-1.476-2.293-2.835-2.086s-2.29299999 1.477-2.08599999 2.836z"/><path d="m12.9627072 17.3827072c-.164-.353-.01-.772.344-.936.353-.164.772-.01.936.343l7.414 15.997c.163.354.01.773-.344.937-.353.163-.772.01-.936-.344z"/><path d="m20.9317072 32.5257072c-.123-.265-.008-.579.257-.702l2.08-.964c.265-.123.58-.007.702.258.123.265.008.579-.257.702l-2.08.964c-.265.123-.579.007-.702-.258z"/><path d="m20.3387072 31.2467072c-.123-.265-.008-.58.257-.703l2.08-.963c.265-.123.579-.008.702.257s.008.579-.257.702l-2.08.964c-.265.123-.579.008-.702-.257z"/><path d="m19.7457072 29.9667072c-.123-.265-.008-.58.257-.703l2.08-.963c.265-.123.579-.008.702.257s.008.58-.257.703l-2.08.963c-.265.123-.579.008-.702-.257z"/><path d="m19.1527072 28.6867072c-.123-.265-.008-.579.257-.702l2.08-.964c.265-.123.579-.008.702.257.123.266.008.58-.257.703l-2.08.964c-.265.122-.579.007-.702-.258z"/><path d="m12.8197072 14.7267072c1.255-.894 2.23-2.126 2.811-3.552l-1.169-.476c-.491 1.205-1.314 2.245-2.374 2.999z"/></g></g><g transform="translate(42.933461 120.690884)"><path d="m45.8225222 60.1971162 11.7481 40.2209998 5.4689 30.217h5.5195l-5.5195-70.4379998z" fill="#ffcaa7"/><path d="m40.6102222 60.1971162c.8102 20.919.5063 32.288.3038 34.208-.2026 1.921-1.2153 14.6039998-8.3047 36.8869998h5.7221c9.3681-21.374 12.6089-34.0569998 13.723-36.8869998 1.0634-2.829 4.2536-14.198 8.8617-34.208z" fill="#ffcaa7"/><path d="m45.5707222 60.1971162c3.0383 13.845 8.3046 35.926 15.7991 66.2949998h8.1022c.608-31.1769998-1.9244-51.6419998-6.3299-66.2949998z" fill="#1e9ed1"/><path d="m40.5582222 60.1971162c.8102 20.919-1.266 41.4849998-7.6971 66.6489998h8.6085c9.3681-21.021 16.103-41.5359998 20.7111-66.6489998z" fill="#6bb8dc"/><path d="m31.7973222 135.436116.3038-5.104c1.8736.556 4.203.354 6.9881-.657 2.9877 2.122 6.7855 3.588 11.343 4.346.3544.05.557.404.5063.758v.05l-.4557 1.567h-11.3936-6.6336z" fill="#06508c"/><path d="m61.8248222 135.436116.3038-5.104c1.8736.556 4.203.354 6.9884-.657 2.987 2.122 6.785 3.588 11.343 4.346.354.05.557.404.506.758v.05l-.456 1.567h-11.393-6.6339z" fill="#06508c"/><path d="m15.1307222 76.6161162c.8185.08 1.6779.362 2.4555-.161v9.779c-.8594.04-1.6779-.242-2.4964-.362 0-3.059.0409-6.157.0409-9.256z" fill="#88c6e3"/><path d="m16.8087222 103.659116c1.4733.08 2.9876.12 4.4609.201.1228.402.4911.322.8185.362 2.0054.242 3.9698.443 5.9752.724 1.9235.282 3.1103 1.53 3.274 3.461.4093 5.192.4911 10.383.6139 15.574.1228 4.91-.1227 9.819-.3274 14.729-.0409 1.207.0819 2.374-.1228 3.581-.1637 1.006-.6957 2.495-1.7188 2.938-.3683.161-2.9467 1.409-3.2332 1.046-.0818-.12.2456-.965.2865-1.126.1637-.845.2456-1.691.2865-2.536 0-.241.0818-.442.0818-.684.1638-5.513.1228-11.026.2456-16.539.0409-1.932 0-3.864 0-5.755.0409-3.501-.2046-7.002-.2456-10.503 0-.966-.2864-1.972-1.1049-2.536-.7367-.523-1.5961-.925-2.5784-.965-2.6192-.161-3.5196.281-6.1388.12-1.1459-.08-3.0285.282-4.1744.201-1.105-.08-3.31500004.202-4.42000004.202-.7776 0-1.7189.402-2.4965.442-.7366.041-2.9057-1.167-3.5605-1.69.3274-.281 2.4555-.805 2.8239-.925 3.6423-1.127 7.48940004-.202 11.25450004-.322z" fill="#1174bb"/><path d="m25.5668222 104.102116c1.3096 0 2.3737-.886 3.6833-.926.9004.362 1.8416.322 2.742.483 2.8239.322 3.8471 2.012 3.9289 4.427.2456 6.439.532 12.877.4502 19.316-.0819 4.467-.2047 8.934-.4911 13.401-.0819 1.328-.8595 2.253-2.0463 2.857-.6548.322-1.3506.523-2.0872.644.3683-.765.8594-1.449.9004-2.334.0818-2.857.2864-5.755.3273-8.612.1637-8.29.1228-16.54-.4501-24.789-.1637-2.455-1.2687-3.662-3.7652-4.025-1.0231-.12-2.1282-.281-3.1922-.442z" fill="#1174bb"/><path d="m25.5667222 104.101116c1.0641.161 2.1691.322 3.2332.483 2.4964.362 3.6014 1.57 3.7651 4.025.573 8.249.6139 16.539.4502 24.789-.041 2.857-.2456 5.755-.3274 8.612-.0409.885-.5321 1.569-.9004 2.334-.4911.241-.9822.603-1.5551.563 1.7598-1.77 1.2687-4.064 1.3914-6.197.2047-4.91.4502-9.819.3274-14.729-.1228-5.191-.2046-10.382-.6139-15.574-.1637-1.891-1.3505-3.139-3.274-3.461-1.9645-.281-3.9698-.482-5.9752-.724-.3274-.04-.6957.04-.8185-.362 1.4324-.04 2.8648.201 4.2972.241z" fill="#88c6e3"/><path d="m29.5365222 78.3461162c.8185.08 1.6779.281 2.4555-.121v8.25c-.8594.04-1.6779-.202-2.4965-.282.041-2.616.041-5.232.041-7.847z" fill="#88c6e3"/><path d="m13.7391222 85.9121162c2.1282.12 4.2154.241 6.3435.362v.281c-2.5783-.12-5.1157-.241-7.694-.402.4502-.08.9003-.161 1.3505-.241z" fill="#06508c"/><path d="m31.5010222 102.049116c-.3684.282-.7776.523-1.2687.443 1.1868-.886 1.1459-2.174 1.2278-3.4609998.0409-.362 0-.765 0-1.127 0-1.57 0-3.099 0-4.668.0818-1.127-.0819-2.254-.2047-3.34-.1637-1.57-1.7189-2.576-3.4787-2.415-.2455 0-.532-.04-.7776-.04-.5729-.604-1.3914-.242-2.0462-.483-.3275-.121-.6958.04-1.0641-.201.2455-.242.532-.161.7366-.161 1.7189.201 3.4378.402 5.1567.684 1.3506.241 2.2509 1.167 2.4146 2.535.3683 2.656.3274 5.312.2456 7.968 0 .523-.0819 1.047-.0819 1.57.0409 1.0459998-.2455 1.9309998-.8594 2.6959998z" fill="#06508c"/><path d="m8.13242216 103.377116c.4912-.362 1.1459-.281 1.7189-.483 2.08720004.161 4.17440004.322 6.26160004.483.2456 0 .573-.08.6957.242-2.9057.121-5.7704-.282-8.67620004-.242z" fill="#88c6e3"/><g fill="#06508c"><path d="m32.0739222 76.3341162c-.0818-.926-.573-1.771-1.3505-2.294-.9823-.644-2.2919-.563-3.4378-.644-1.7189-.161-3.4378-.281-5.1566-.442-1.6371-.121-3.2332-.363-4.8702.04-1.5961.483-2.5783 2.052-2.2918 3.662.0409.161.0409.362.2455.443.6958.241 1.4734.241 2.1691.08.6548-.161.3683-.764.4093-1.207.0409-.885.3683-1.207 1.3096-1.127 1.6779.121 3.3559.282 4.9929.402 1.5143.121 3.1513.081 4.5837.524.5729.241.6548.764.6548 1.287.0409.443-.1637.926.2456 1.288.8185.081 1.6779.282 2.4555-.121.2046-.603.1228-1.247.0409-1.891zm-1.9235-1.65c.0409.161.1637.242.2865.322-.1228-.04-.2456-.121-.2865-.322zm1.0231 1.891c.041-.563 0-1.086-.6139-1.488-.1227-.161-.2455-.282-.3682-.443.1227.161.2455.282.3682.443.6139.402.6549.925.6139 1.488z"/><path d="m27.4493222 119.635116c.0409-3.501-.2046-7.002-.2456-10.503 0-.966-.2864-1.972-1.1049-2.536-.7367-.523-1.5962-.925-2.5784-.966-3.1103-.201-6.2206-.442-9.2901-.643-3.1103-.161-6.22070004-.041-9.33100004-.363-2.5374-.241-4.3791 1.409-4.46089999 3.904-.1228 3.461-.2456 6.881-.36840001 10.342-.1637 4.266.0001 8.733.08190001 13.039.0409 2.253.1637 4.507.2865 6.72.08179999 1.529-.1228 3.34.77759999 4.668.8185 1.167 2.3327 1.53 3.6833 1.731 3.6424.603 7.32570004 1.086 11.04990004 1.489 1.8826.201 3.7652.362 5.6477.523 1.678.121 3.2332.241 4.7474-.644.0409-.04.1228-.08.1637-.121.0409-.08.0818-.161.1228-.241.3274-1.127.4502-2.294.532-3.421 0-.241.0819-.442.0819-.684.1637-5.513.1227-11.026.2455-16.54 0-1.931-.0409-3.863-.0409-5.754z"/><path d="m.52022216 141.648116c0 .04.04090001.08.08190001.12 0-.04 0-.12-.041-.161z"/></g><path d="m34.7750222 91.1441162c0-.685 0-1.369-.1228-2.013-.1228-.643-.4093-1.328-.9413-1.77-.573-.523-1.3506-.765-2.1282-.886-.4501-.08-.9003-.12-1.3914-.161-4.9929-.563-10.0268-1.006-15.0607-.885-.3683 0-1.1459.242-1.3914.483 2.0872.121 4.2153.241 6.3025.362v.282c-2.5783-.121-5.1157-.242-7.694-.403-.573-.04-1.3915.282-1.9235.443-.69570004.201-1.39150004.443-2.00540004.805-.9822.563-1.3914 1.569-1.4733 2.696-.2455 2.777-.2046 5.594-.0818 8.371.0409.804.1228 1.6499998.4092 2.4139998.4912 1.207 1.4324 1.61 2.5374 2.093 2.08720004.161 4.17450004.322 6.26170004.483.2455 0 .5729-.081.6957.241 1.4733.081 2.9876.121 4.4609.201 1.4324-.04 2.8648.161 4.2972.242.5729.04 1.0231-.081 1.5142-.242.4502-.161.9413-.362 1.3915-.483.9003-.281 1.8007-.724 2.3327-1.529.4093-.644.573-1.368.6958-2.1329998.2455-1.77.2865-3.581.2046-5.392-.0409-1.167-.0818-2.334-.2455-3.501-.1637-.886-.3684-2.214-1.146-2.777-.2864-.201-.6139-.322-.9413-.402-1.0231-.282-2.0462-.483-3.1103-.564-.2456-.04-2.2509-.362-2.3328-.241.0819-.121.3274-.161.532-.161 1.678.161 3.3151.362 4.993.644.6139.12 1.2687.241 1.7189.603.5729.443.8185 1.167.9413 1.852.6139 2.696.3274 5.472.2864 8.249 0 1.288.041 2.6959998-.6957 3.7829998-.0818.08-.1228.201-.0819.322.041.04.6139-.242.7367-.282.4911-.161.9822-.362 1.3915-.684.4911-.402.7776-1.006.9003-1.6099998.1228-.603.1228-1.247.1228-1.851.041-2.253.041-4.426.041-6.599z" fill="#1e9ed1"/><path d="m7.27292216 101.887116.041.041c0-.041 0-.041-.041-.041 0-.04 0 0 0 0z" fill="#1174bb"/><path d="m21.5151222 87.7231162c2.169.241 5.7296-.241 6.8755 2.173.2046.443.2455.885.2865 1.368.2455 3.662.3683 7.365-.4911 10.9059998-.4093 1.61-1.3915 1.972-2.9876 1.891-.4911-.04-1.2687.081-1.7598.041-1.2687-.081-2.5374-.282-3.8061-.242-1.3096-.08-2.6601-.12-3.9697-.201-.1228-.322-.3684-.241-.6139-.241-1.8417-.161-3.6833-.322-5.52500004-.483-1.0231-.483-1.8416-.886-2.2509-2.093-.2865-.765-.3274-1.6099998-.3683-2.4149998-.1228-2.776-.1228-5.593.0818-8.37.0818-1.086.4093-2.093 1.3096-2.696.5321-.362 3.02850004-.201 3.68330004-.201z" fill="#1e9ed1"/><path d="m50.3797222 13.2550162c-1.4685-1.718-2.4812-3.84020003-2.2787-6.21510003.4557-6.8216 9.9757-5.3057 11.8493-1.8696 1.8737 3.436 1.6205 12.17780003-.7595 12.78380003-.9622.253-2.9877-.353-5.0638-1.617l1.3165 9.146h-7.6463z" fill="#ffcaa7"/><path d="m49.7736222 14.7704162c-.9621-4.295-3.6965-7.17520003-3.2914-9.09530003.3038-1.2633 1.0127-2.0718 2.228-2.375.6077-2.5264 2.6332-3.5876 6.026-3.2339 5.1144.5559 8.254 2.6781 6.8868 7.3269-1.2153 0-2.7345-.4548-4.8107.3031-.6582.2527-1.114 1.0106-1.4178 2.2739h-.9115c-.9115-1.5159-1.823-2.0717-2.6838-1.6675-.8609.4042-1.0634 1.3643-.6077 2.88020003l-.4557 3.5371h-.9622z" fill="#06508c"/><path d="m60.9647222 10.5259162c.2026.4042.5571.8085.709 1.2127.1519.4043.2532.9601.3038 1.3643.0506.6064-.7089 1.3643-1.3672 1.3643" fill="#ffcaa7"/><path d="m60.6118222 9.46491617c-.2026 0-.4051 0-.557 0-.1519.0505-.3039.0505-.5064.101-.3545.1011-.6583.2021-1.0634.2527.2025-.4043.557-.6064.9621-.7074.2026-.0506.4051-.0506.6583 0 .2532.0505.4558.1515.5064.3537z" fill="#06508c"/><path d="m60.6106222 16.0333162c-.2025.0505-.4051.0505-.557 0-.2026-.0505-.3545-.1516-.557-.2021-.3039-.1516-.6077-.4043-.9115-.5053l.3544-.2022c0 .0506.0507.2022.152.3538.1012.1515.2025.2526.3038.4042.2026.2526.4557.5554.7089.8084-.2025-.05-.3544-.101-.557-.202-.1519-.101-.3038-.2022-.4557-.3032-.1519-.1011-.3039-.2527-.4051-.4043-.1013-.1516-.2532-.3537-.2532-.6569v-.3537l.3038.1516c.4051.1516.6583.4043.9621.6569.3039.1516.5571.3537.9115.4548z" fill="#06508c"/><path d="m60.0033222 11.0819162c.2237 0 .4051-.1809.4051-.4042s-.1814-.4042-.4051-.4042-.4051.1809-.4051.4042.1814.4042.4051.4042z" fill="#06508c"/><path d="m75.1440222 49.8881162 9.065 8.792c2.633 1.112 4.81 2.375 6.481 3.689.355.455.81 1.314-1.013.96-1.772-.404-3.645-.708-4-.152-.354.556.658 1.466.051 2.224-.405.505-1.823-1.112-4.153-4.801l-9.418-5.558zm-44.2575-7.984 6.9881.051c-5.317 17.23-8.1527 26.225-8.5072 27.033-.7596 1.819.8102 4.598 1.5191 6.114-2.1774.96-1.9242-2.627-4.7093-1.364-2.5319 1.162-4.4055 3.284-7.2919 1.465-.3545-.202-.7596-1.061.2025-1.667 2.3294-1.617 5.7222-4.447 6.1779-5.356.6583-1.264 2.5319-10.005 5.6208-26.276z" fill="#ffcaa7"/><path d="m52.2032222 22.0971162 2.7851-.455c4.3549 15.362 26.6867 25.821 28.1037 31.531.507 2.122-1.012 3.184-.253 3.79l-3.595 2.627c-.608-.707-1.924.607-4.608-.303-2.684-.909-22.4328-18.999-22.4328-37.19z" fill="#1174bb"/><path d="m56.8636222 24.1181162c-.3038 20.313 11.4442 25.518 8.811 33.653-2.1774 6.721-22.8884 13.946-26.4838 7.378-1.4685-2.678-2.1268-5.912-2.1774-9.399-.9115 2.678-1.6204 5.003-2.1774 6.973-.9115 3.335-4.5068 3.891-4.5068 5.205l-4.7094-1.314c.3039-1.769-1.8736-2.628-1.3166-6.518 2.6838-17.585 9.8238-30.369 21.4706-38.251l.1013-1.718c.0506-.708.6583-1.213 1.3672-1.163l8.6085.607c.709.05 1.2153.657 1.1647 1.364z" fill="#1e9ed1"/></g></g></svg>