<svg height="320" viewBox="0 0 248 320" width="248" xmlns="http://www.w3.org/2000/svg"><g fill="none" transform="translate(12 11)"><path d="m10.5278874 147.623529c15.2686507-7.555237 43.1703725-10.119277 55.2126486-10.456475 12.2694744-2.36122 41.170481-6.880841 58.621075-6.071232 21.812399 1.011594 80.092087 8.095255 87.249596 10.793673 7.156667 2.698418 16.3593 10.793672 8.17965 21.924543-8.17965 11.13087-83.84162 33.729809-102.927469 35.079435-19.085849 1.348792-40.8983321-10.456474-51.122852-15.85331-10.2245199-5.396837-42.6023208-7.420859-58.62083928-13.492091-3.71170894-1.406382-15.67768714-12.480497 3.40819068-21.924543z" fill="#ddf2f9"/><path d="m46 18.4111001v139.2162779l62 6.372622s0-117.9723765 0-120.5215941l-43.1862263-43.4784059z" fill="#c1e3f2"/><path d="m159 44h-51v120h51z" fill="#6bb8dc"/><path d="m65 0h48.699092l45.300908 43h-51.105541z" fill="#1174bb"/><path d="m148.724437 34h-50.724437l1.2747138 1h50.7252862z" fill="#06508c"/><path d="m156.732181 42h-50.732181l1.267819 1h50.732181z" fill="#06508c"/><path d="m124 57h-6v17h6z" fill="#ddf2f9"/><path d="m117 164v-44.500226c0-9.624821 8.235762-17.499774 18.5-17.499774 10.137406 0 18.5 7.874953 18.5 17.499774v44.500226z" fill="#ddf2f9"/><path d="m151 164h-31v-42.826994c0-8.320737 6.87502-15.173006 15.5-15.173006 8.500163 0 15.5 6.729897 15.5 15.173006z" fill="#f45f0c"/><path d="m189 164h-35v-45.04247c0-8.750819 7.762318-15.95753 17.5-15.95753 9.596882 0 17.5 7.078042 17.5 15.95753z" fill="#f77b0b"/><g fill="#ddf2f9" transform="translate(126 57)"><path d="m6.10703266 0h-6.10703266v17h6.10703266z"/><path d="m15.0535163 0h-6.10618148v17h6.10618148z"/><path d="m24 0h-6.1061815v17h6.1061815z"/></g><path d="m90 95h10v-28h-10z" fill="#6bb8dc"/><g transform="translate(102 152)"><path d="m13.4360473 5.83327606c.5620311 3.74909481-1.9725212 7.25191724-5.66111071 7.82316764-3.68858953.5712503-7.1348812-2.0048772-7.69691234-5.75397197-.56203113-3.74909482 1.97252113-7.25191728 5.66111067-7.82316762 3.68858953-.57125034 7.13488118 2.00487712 7.69691238 5.75397195zm-12.31888992 1.90839928c.47460407 3.16599636 3.3846764 5.34097906 6.49957786 4.85858996 3.11406876-.4823892 5.25478296-3.44019653 4.78017886-6.60619285-.474604-3.16599633-3.38467637-5.3409791-6.49957782-4.85858993-3.11490146.48238918-5.25478297 3.44019649-4.7801789 6.60619282z" fill="#f45f0c"/><g fill="#f77b0b"><path d="m12.3427926 12.9489395c.3255618 2.1707513-1.1415477 4.1984785-3.277266 4.5293805-2.13571831.3309021-4.13072068-1.1602729-4.45628242-3.3310242-.32472911-2.1707513 1.14238032-4.19847841 3.27809864-4.52938046 2.13571828-.33090205 4.13072068 1.16111916 4.45544978 3.33102416zm-6.34803759.9833969c.20899232 1.3930046 1.48959067 2.3501662 2.85928136 2.1377457 1.37052333-.2124205 2.31223773-1.5131786 2.10407803-2.9061832-.2089923-1.3930045-1.48959065-2.3501662-2.86011398-2.1377457-1.37052334.2124205-2.31223773 1.5131787-2.10324541 2.9061832z"/><path d="m7.90316296 17.4283885c-.04746041-.3960669.22980828-.7565893.6194832-.8056745.38967492-.048239.74521165.2335779.79267206.6296448l2.16069748 17.9372606c.0474604.396067-.2298083.7565894-.6194832.8048283-.3896749.0490852-.744379-.2327316-.7926721-.6296448z"/><path d="m10.8615283 34.7072303c-.0358034-.2978965.1723562-.5678652.4646124-.6042559l2.2939197-.2852021c.2922562-.0363907.5587006.1743372.5945041.4722337.0358034.2970501-.1723563.5670188-.4646124.6034096l-2.2939197.2860483c-.2930889.0363907-.5587006-.1751835-.5945041-.4722336z"/><path d="m10.6883395 33.2719109c-.0358035-.2970502.1723562-.5678652.4646124-.6042559l2.2947523-.285202c.2922562-.0363908.5578679.1751834.5936714.4722336s-.1723562.5678651-.4646124.6042559l-2.2939197.285202c-.2922562.0363908-.5587006-.1751834-.594504-.4722336z"/><path d="m10.5159833 31.8374378c-.0358035-.2978964.1723562-.5678651.4646124-.6042559l2.2939196-.2860483c.2922562-.0363908.5587006.1751834.5945041.4722336.0358035.2978965-.1723562.5678652-.4646124.6042559l-2.2947523.285202c-.2922562.0363908-.557868-.1743371-.5936714-.4713873z"/><path d="m10.3427944 30.4021185c-.0358035-.2970502.1723562-.5678652.4646124-.604256l2.2939197-.285202c.2930888-.0363907.5587006.1751835.594504.4722336.0358035.2970502-.1723562.5678652-.4646124.6042559l-2.2939197.2852021c-.2922561.0363907-.5587005-.1751835-.594504-.4722336z"/></g><g fill="#f45f0c" transform="translate(6.825014 8.588288)"><path d="m6.42285683 2.7890784c.26894231 1.79245663-.94254703 3.4664317-2.70607585 3.73978556-1.76352881.27250757-3.41048819-.95885427-3.6794305-2.75131089-.2689423-1.79161033.94337967-3.4664317 2.70607584-3.73978556 1.76352881-.27250756 3.41132084.95885427 3.67943051 2.75131089zm-5.24146074.81159864c.17235621 1.15011735 1.22980738 1.94055856 2.3613634 1.76537512s1.90924059-1.24998037 1.73605174-2.40009772c-.17235622-1.15011736-1.22897476-1.94055857-2.36053078-1.76537513s-1.90924058 1.24998037-1.73688436 2.40009773z"/><path d="m3.96823788 6.1226415c-.13655275-.29874277-.00832639-.65334113.28642772-.79213381.29392147-.13879267.64279709-.00846296.77934984.29027981l6.17318346 13.5382099c.1357201.2995891.0083264.6541874-.2864277.7929801-.2939215.1379464-.6427971.008463-.7793498-.2911261z"/><path d="m10.6035358 18.9381139c-.1024145-.2242686-.0066611-.4900058.2139882-.5941003l1.7318885-.8158301c.2206493-.1040945.4829305-.0059241.5845124.2183445.1024146.2242687.0066611.4900059-.2139881.5941004l-1.7318886.8158301c-.2206492.1040945-.4820978.0059241-.5845124-.2183446z"/><path d="m10.1097811 17.8557003c-.1024146-.2242686-.0066611-.4908521.2139881-.5949466l1.7318886-.8149838c.2206492-.1040945.4820978-.0067704.5845124.2174982.1024145.2242687.0066611.4900059-.2139882.5941004l-1.7318885.8158301c-.2206493.1040945-.4820979.0067704-.5845124-.2174983z"/><path d="m9.61602633 16.7724404c-.10241457-.2242686-.00666111-.4908521.21398815-.5949466l1.73188852-.8149838c.2206493-.1040945.4820978-.0067704.5845124.2174982.1024146.2242687.0066611.4908522-.2139882.5949467l-1.7318885.8149838c-.22064925.1040945-.48209781.0067704-.58451237-.2174983z"/><path d="m9.12227156 15.6891805c-.10241456-.2242686-.00666111-.4900058.21398815-.5941003l1.73188859-.8158301c.2206492-.1040945.4820978-.0067704.5845123.2174982.1024146.225115.0066611.4908522-.2139881.5949467l-1.73188855.8158301c-.22064927.1032482-.48209782.0059241-.58451239-.2183446z"/><path d="m3.84917054 3.8748772c1.0449616-.75658934 1.85678435-1.799227 2.34054745-3.00604623l-.97335467-.40283728c-.40882561 1.01978764-1.09408728 1.89993631-1.97668432 2.5380441z"/></g></g><g transform="translate(36 101)"><path d="m38.7667791 51.1449622 9.9391299 34.1727585 4.6267998 25.6731123h4.6696085l-4.6696085-59.8458708z" fill="#ffcaa7"/><path d="m34.3570681 51.1449622c.6854455 17.773301.42834 27.4326852.2570209 29.0639648-.1714037 1.6321292-1.0281683 12.4079203-7.0259439 31.340109h4.8410122c7.9256017-18.1598798 10.667384-28.9356708 11.6099351-31.340109.8996578-2.4035885 3.5986315-12.0629728 7.4971771-29.0639648z" fill="#ffcaa7"/><path d="m38.5537512 51.1449622c2.5704632 11.7630552 7.0258593 30.5236202 13.3663577 56.3258748h6.8546248c.5143803-26.4887514-1.6280813-43.8763228-5.3552232-56.3258748z" fill="#1e9ed1"/><path d="m34.313075 51.1449622c.6854456 17.773301-1.0710615 35.2466842-6.511902 56.6266428h7.2829648c7.9256018-17.8599631 13.6234632-35.2900155 17.5220089-56.6266428z" fill="#6bb8dc"/><path d="m26.9011767 115.069882.2570209-4.336485c1.5851035.472391 3.5558229.300767 5.9120738-.558204 2.5276545 1.802904 5.74067 3.048454 9.596407 3.69247.2998296.042481.4712333.343248.42834.644015v.042481l-.3855314 1.331362h-9.6392156-5.6121596z" fill="#06508c"/><path d="m52.3050481 115.069882.2570209-4.336485c1.5851034.472391 3.5558229.300767 5.9123275-.558204 2.5270624 1.802904 5.7402471 3.048454 9.5964071 3.69247.2994911.042481.4712332.343248.4280862.644015v.042481l-.3857852 1.331362h-9.6387081-5.6124133z" fill="#06508c"/><path d="m12.8008965 65.0949516c.6924676.06797 1.4195373.3075642 2.0774026-.1367896v8.3084808c-.7270697.033985-1.4195373-.2056091-2.1120048-.3075641 0-2.5990023.0346022-5.2311399.0346022-7.8641271z" fill="#88c6e3"/><path d="m14.2205184 88.0713546c1.2464416.06797 2.52757.101955 3.7740115.1707746.1038913.3415492.4154805.2735792.6924675.3075642 1.6966089.2056092 3.358531.3763838 5.0551399.6151283 1.6273198.2395942 2.6313766 1.299926 2.7698701 2.9405514.3462761 4.411252.4154805 8.8216539.5193718 13.2320569.1038913 4.171657-.1038067 8.342465-.276987 12.514123-.0346022 1.025497.0692891 2.017009-.1038913 3.042507-.1384935.854722-.5885762 2.119813-1.4541395 2.496197-.3115892.13679-2.4929677 1.197121-2.7353525.888708-.0692044-.101955.2077826-.819888.2423848-.956678.1384935-.717933.2077826-1.436715.2423848-2.154648 0-.20476.0692044-.375534.0692044-.581144.1385781-4.683981.1038913-9.367963.2077826-14.051944.0346022-1.641475 0-3.28295 0-4.889591.0346022-2.9745361-.1730957-5.9490725-.2077826-8.9236089 0-.8207375-.2423001-1.6754601-.9347677-2.1546485-.623263-.4443537-1.3503328-.7859029-2.1813784-.8198879-2.2158961-.1367896-2.9776527.2387446-5.1935488.101955-.9694545-.06797-2.5621722.2395942-3.5316267.1707746-.9348523-.06797-2.80455698.1716242-3.7394093.1716242-.6578653 0-1.45422411.3415492-2.11208941.3755341-.62317848.0348347-2.45828088-.9915121-3.0122549-1.4358658.27698701-.2387446 2.07740258-.683948 2.38907642-.785903 3.08145936-.9575271 6.33618369-.1716242 9.52153429-.2735792z" fill="#1174bb"/><path d="m21.6300479 88.4477384c1.107948 0 2.0081981-.7527675 3.1161462-.7867525.7617565.3075641 1.5580308.2735792 2.3197873.4103687 2.3890765.2735792 3.2547243 1.7094451 3.3239288 3.761289.2077825 5.470734.4500827 10.9406184.3808783 16.4113524-.0692891 3.795274-.1731804 7.590548-.4154806 11.385822-.069289 1.128302-.7271543 1.914204-1.7312111 2.427378-.553974.273579-1.1426348.444354-1.7658133.547158.3115892-.649963.7270697-1.231106.7617566-1.983024.0692044-2.427378.2423001-4.889591.2769024-7.316969.1384935-7.043389.1038912-14.0527937-.3807937-21.0613486-.1384935-2.0858289-1.0733458-3.111326-3.1854353-3.4197398-.8655632-.101955-1.8005001-.2387446-2.7006656-.3755342z" fill="#1174bb"/><path d="m21.6299633 88.4468888c.9002501.1367896 1.8351024.2735792 2.7353525.4103688 2.1120048.3075641 3.0468571 1.3339109 3.1853506 3.4197398.4847696 7.0085548.5193718 14.0519446.3808783 21.0613486-.0346868 2.427378-.2077826 4.889591-.276987 7.316969-.0346022.751918-.4501674 1.333061-.7617566 1.983024-.4154805.20476-.830961.512324-1.315646.478339 1.4888263-1.503836 1.0733458-3.452875 1.1771525-5.265125.1731803-4.171658.3808783-8.342466.276987-12.514123-.1038913-4.410403-.1730957-8.8208049-.5193718-13.2320569-.1384935-1.6066404-1.1425503-2.6669722-2.7698701-2.9405514-1.6620067-.2387445-3.358531-.4095191-5.0551399-.6151283-.276987-.033985-.5885762.033985-.6924675-.3075642 1.2118393-.033985 2.4236787.1707746 3.635518.2047596z" fill="#88c6e3"/><path d="m24.9884942 66.5648025c.6924676.06797 1.4195373.2387446 2.0774026-.1028046v7.0094045c-.7270697.033985-1.4195373-.1716242-2.1120894-.2395942.0346868-2.2226184.0346868-4.4452369.0346868-6.6670057z" fill="#88c6e3"/><path d="m11.6235748 72.9930637c1.8005002.1019549 3.5663136.2047595 5.3667291.3075641v.2387446c-2.1812938-.101955-4.3279855-.2047596-6.5092793-.3415492.3808783-.0679699.7616719-.1367895 1.1425502-.2047595z" fill="#06508c"/><path d="m26.6505009 86.7034587c-.3116738.2395942-.6578653.4443538-1.0733458.3763838 1.0040568-.7527676.9694545-1.8470843 1.0387436-2.9405512.0346022-.3075642 0-.649963 0-.9575272 0-1.3339109 0-2.6329872 0-3.9660485.0692044-.9575271-.0692891-1.9150542-.1731803-2.8377468-.1384935-1.3339109-1.4542242-2.1886334-2.9430505-2.0518438-.2076979 0-.4500827-.033985-.6578653-.033985-.484685-.5131734-1.1771525-.2056092-1.7311265-.4103688-.2770716-.1028046-.5886609.033985-.9002501-.1707746.207698-.2056092.4500827-.1367896.6231785-.1367896 1.4542241.1707746 2.9084482.3415492 4.3626723.5811434 1.1426349.2047596 1.9043069.9915121 2.0428004 2.1537988.3115892 2.2566035.276987 4.5132069.2077825 6.7698103 0 .4443538-.069289.8895572-.069289 1.333911.0346022.8887073-.207698 1.6406253-.7270698 2.2905882z" fill="#06508c"/><path d="m6.88019338 87.8317605c.41556512-.3075642.96945454-.2387446 1.45422411-.4103688 1.76581341.1367896 3.53162671.2735792 5.29744011.4103688.2077825 0 .4847695-.06797.5885762.2056092-2.4582809.1028045-4.88187491-.2395942-7.34024042-.2056092z" fill="#88c6e3"/><g fill="#06508c" transform="translate(0 61.82795)"><path d="m27.1351859 3.02740739c-.0692045-.78675256-.4847696-1.5046855-1.1425503-1.94903927-.8310456-.54715836-1.9389937-.47833876-2.9084482-.54715836-1.4542241-.13678959-2.9084482-.23874457-4.3625877-.37553416-1.3850197-.1028046-2.7353525-.3084138-4.1202876.03398499-1.3503328.41036877-2.1812939 1.74343007-1.9389091 3.11132598.0346023.13678959.0346023.30756418.207698.37638378.5886608.20475958 1.2465261.20475958 1.8351024.06796999.553974-.13678959.3115892-.64911334.3462761-1.02549712.0346022-.75191794.3115892-1.02549713 1.107948-.95752714 1.4195373.1028046 2.8391592.23959419 4.2240942.34154916 1.2811284.1028046 2.6660635.06881961 3.8779028.44520339.484685.20475958.553974.64911334.553974 1.09346711.0346022.37638378-.1384935.78675255.2077826 1.09431673.6924675.0688196 1.4195373.23959419 2.0774026-.1028046.1730957-.51232375.1038912-1.05948212.0346022-1.60664048zm-1.6273199-1.4018809c.0346023.13678959.1384935.20560919.2423848.27357918-.1038913-.03398499-.2077825-.1028046-.2423848-.27357918zm.8655633 1.60664047c.0346868-.47833875 0-.92269252-.5193718-1.26424168-.1038067-.1367896-.207698-.23959419-.3115046-.37638379.1038066.1367896.2076979.23959419.3115046.37638379.5193718.34154916.5540586.78590293.5193718 1.26424168z"/><path d="m23.2226809 39.8170102c.0346022-2.9745363-.1730957-5.9490727-.2077826-8.9236091 0-.8207376-.2423001-1.6754601-.9347677-2.1546485-.6232631-.4443538-1.3504174-.7859029-2.1813784-.8207375-2.6313767-.1707746-5.2627533-.3755342-7.8596122-.5463088-2.63137666-.1367896-5.2628379-.0348346-7.89421451-.3084138-2.14669164-.2047596-3.70480703 1.1971214-3.77401148 3.3169352-.10389128 2.9405514-.20778256 5.8462682-.31167384 8.7868196-.13849351 3.6244993.0000846 7.4197733.06928906 11.0782576.03460222 1.9142047.1384935 3.8292589.24238478 5.7094786.06920445 1.2990763-.10389128 2.8377468.6578653 3.9660485.69246753.9915121 1.9735113 1.2999259 3.11614618 1.4707005 3.08154395.5123238 6.19769021.9226926 9.34843861 1.2650913 1.5927176.1707746 3.1854352.3075642 4.7780682.4443538 1.4196219.1028046 2.7353525.2047596 4.0163963-.5471584.0346022-.0339849.1038913-.0679699.1384935-.1028046.0346022-.0679699.0692044-.1367895.1038913-.2047595.276987-.9575272.3808783-1.9490393.4500827-2.9065664 0-.2047596.0692891-.3755342.0692891-.5811434.1384935-4.6839815.1038066-9.3679629.2076979-14.052794 0-1.6406255-.0346022-3.2821006-.0346022-4.8887411z"/><path d="m.44011846 58.5198007c0 .033985.03460223.06797.06928906.101955 0-.033985 0-.101955-.03468683-.1367896z"/></g><path d="m29.420371 77.4383006c0-.581993 0-1.1631364-.1038912-1.7102947-.1038913-.5463088-.3462761-1.1283018-.7963589-1.5038359-.4847695-.4443538-1.1426348-.649963-1.8005001-.7527676-.3807937-.06797-.761672-.101955-1.1771525-.1367896-4.2240943-.4783387-8.4828753-.8547225-12.7416564-.7519179-.3115892 0-.9694545.2056092-1.1771525.4103688 1.7658134.1028046 3.566229.2047595 5.3320423.3075641v.2395942c-2.1812939-.1028046-4.3279855-.2056092-6.5092794-.3423988-.48476954-.033985-1.17723706.2395942-1.62731981.3763838-.58857628.1707746-1.17723713.3763838-1.69660893.683948-.83096103.4783387-1.1771525 1.3330613-1.24644155 2.2905884-.20769796 2.3594081-.17309573 4.7528011-.06920445 7.1122091.03460222.6830984.10389128 1.4018808.34619146 2.0509941.41556512 1.0254971 1.21183933 1.3678959 2.14669164 1.7782647 1.76581334.1367896 3.53171134.2735792 5.29752464.4103688.207698 0 .484685-.0688196.5885763.2047595 1.2464415.0688196 2.5275699.1028046 3.7740115.1707746 1.2118393-.033985 2.4236786.1367896 3.635518.2056092.4846849.033985.8655632-.0688196 1.2810437-.2056092.3808783-.1367896.7963588-.3075642 1.1772371-.4103688.761672-.2387445 1.5234286-.6151283 1.9735113-1.2990763.3462761-.5471583.4847696-1.1622867.5886609-1.8122495.2076979-1.5038358.2423848-3.0425063.1730957-4.5811768-.0346022-.9915122-.0692044-1.9830243-.2076979-2.9745364-.1384935-.7527676-.3116739-1.8810693-.9695392-2.3594081-.2423002-.1707745-.5193718-.2735791-.7963588-.3415491-.8655632-.2395942-1.7311265-.4103688-2.6313766-.4791884-.2077826-.033985-1.9043069-.3075642-1.9735959-.2047596.069289-.1028046.276987-.1367896.4500827-.1367896 1.4196219.1367896 2.8046416.3075642 4.2241789.5471584.5193718.101955 1.0733458.2047596 1.4542241.5123237.4846849.3763838.6924675.9915122.7963588 1.5735051.5193718 2.2905885.276987 4.6491469.2423002 7.0085549 0 1.0943168.0346868 2.2905883-.5885763 3.2141304-.0692044.06797-.1038913.1707746-.069289.2735792.0346868.033985.5193718-.2056092.623263-.2395942.4154806-.1367896.8309611-.3075641 1.1772371-.5811433.4154806-.3415492.6578653-.8547226.761672-1.3678958.1038913-.5123237.1038913-1.0594821.1038913-1.5726554.0346868-1.9142047.0346868-3.7604394.0346868-5.606674z" fill="#1e9ed1"/><path d="m6.15303902 86.5658195.03468683.0348346c0-.0348346 0-.0348346-.03468683-.0348346 0-.033985 0 0 0 0z" fill="#1174bb"/><path d="m18.2022279 74.5317342c1.8350178.2047595 4.8473573-.2047596 5.8168118 1.8462346.1730957.3763838.207698.751918.2423848 1.1622867.2076979 3.111326.3115892 6.2574866-.4154805 9.2660078-.3462761 1.3678959-1.1772371 1.6754601-2.52757 1.6066405-.4154805-.033985-1.0733458.0688196-1.4888263.0348346-1.0733458-.0688196-2.1466916-.2395942-3.2200375-.2056092-1.107948-.06797-2.2504983-.101955-3.3584463-.1707746-.1038913-.2735791-.3116739-.2047595-.5193718-.2047595-1.5581154-.1367896-3.1161462-.2735792-4.67426162-.4103688-.86556326-.4103688-1.55803079-.7527676-1.90430686-1.7782647-.24238478-.649963-.27698701-1.3678957-.31158923-2.0518437-.10389128-2.3585584-.10389128-4.7519514.06920445-7.1113595.06920445-.9226925.34627606-1.7782647 1.10794804-2.2905884.45016735-.3075642 2.56217219-.1707746 3.11614622-.1707746z" fill="#1e9ed1"/><path d="m42.6222624 11.2617904c-1.2423807-1.45965544-2.0991454-3.26272919-1.9278263-5.28050311.3855314-5.79580046 8.4396437-4.50785424 10.0247471-1.5884585 1.5851881 2.91931077 1.3709757 10.34656081-.6425523 10.86143341-.8140406.2149551-2.5276545-.2999176-4.2840771-1.3738433l1.1137856 7.7706683h-6.4689242z" fill="#ffcaa7"/><path d="m42.1094895 12.5493118c-.813956-3.64913852-3.1273136-6.09622786-2.7845909-7.72759242.257021-1.073331.8567647-1.76025264 1.884933-2.01785887.5141265-2.14649207 2.2277404-3.0481139 5.0981177-2.74760161 4.3268857.47230642 6.9830507 2.27538015 5.8263719 6.22511587-1.0281683 0-2.3134422-.38640935-4.0699493.25752127-.5568505.21470019-.9424665.85863082-1.1994875 1.93196181h-.7711474c-.7711474-1.28794622-1.5422948-1.76016767-2.270549-1.41674933-.7283388.34341834-.8996579 1.1591431-.5141265 2.44708934l-.3855314 3.00520784h-.8140406z" fill="#06508c"/><path d="m51.5773861 8.94307934c.1714037.34341834.4713179.68692164.5998283 1.03033998.1285105.34350328.2142123.81572478.257021 1.15914308.0428086.5152125-.5997438 1.1591431-1.1566788 1.1591431" fill="#ffcaa7"/><g fill="#06508c"><path d="m51.2788256 8.04162741c-.1714037 0-.3427228 0-.4712333 0-.1285104.04290605-.2571055.04290605-.4284246.0858121-.2999142.08589707-.5569351.17170917-.8996579.21470019.1713191-.34350331.4712333-.51521248.8139561-.60102458.1714037-.04299101.3427227-.04299101.5569351 0 .2142123.04290605.385616.12871816.4284246.30051229z"/><path d="m51.2778104 13.6223029c-.1713191.0429061-.3427228.0429061-.4712333 0-.1714037-.042906-.2999141-.1288031-.4712332-.1717092-.2571056-.1288031-.5141265-.3435033-.7711474-.4293154l.2998295-.1717941c0 .042991.0428932.1717941.1285951.3005972.0856172.1287182.1713191.2146153.2570209.3434184.1714037.2146152.3855314.4718816.5997437.6868367-.1713191-.0424813-.2998295-.0858121-.4712332-.1716242-.1285105-.0858121-.257021-.1717942-.3855314-.2576063-.1285105-.085897-.2571056-.2147002-.3427228-.3435033-.0857018-.1288031-.2142123-.3005123-.2142123-.5581185v-.3005123l.2570209.1288031c.3427228.1288031.5569351.3435033.8139561.5581185.2571055.1288032.4713178.3005123.7711474.3864094z"/><path d="m50.7640223 9.41547072c.1892547 0 .3427228-.15369712.3427228-.34341834s-.1534681-.34341834-.3427228-.34341834-.3427228.15369712-.3427228.34341834.1534681.34341834.3427228.34341834z"/></g><path d="m63.5733602 42.3861802 7.6691731 7.4699012c2.2275712.9447828 4.0693571 2.0178589 5.4830569 3.1342658.3003372.3865793.6852763 1.116407-.8570185.8156398-1.4991478-.3432484-3.0837436-.6015343-3.3840807-.1291429-.2994912.4723914.5566812 1.2455499.043147 1.8895655-.3426382.4290605-1.5422948-.9447828-3.5135219-4.0790486l-7.9678182-4.7222146zm-37.4427387-6.7834043 5.9120737.0433309c-4.4982893 14.6390351-6.8973488 22.2814101-7.197263 22.9679069-.6426369 1.5454675.6854456 3.9065748 1.2851893 5.194606-1.8421244.8156398-1.627912-2.2319643-3.9841629-1.1588882-2.1420385.987264-3.727142 2.7901678-6.1690946 1.2447003-.2999142-.1716242-.642637-.9014519.171319-1.4163245 1.9707195-1.3738433 4.8410968-3.7782815 5.2266282-4.5505904.5569351-1.0739257 2.1420385-8.500496 4.7553103-22.324741z" fill="#ffcaa7"/><path d="m44.1649802 18.7742577 2.3562508-.3865793c3.6843334 13.051936 22.5774871 21.9381617 23.7762977 26.7895193.4289323 1.8029038-.8561724 2.7052053-.2140431 3.2200779l-3.0414426 2.2319643c-.5143802-.6006847-1.6277428.5157223-3.898461-.2574363-2.2707182-.7723089-18.9786018-16.1420213-18.9786018-31.5975459z" fill="#1174bb"/><path d="m48.1077727 20.4913494c-.2570209 17.2584284 9.6820243 21.6807254 7.4542839 28.5924231-1.8421243 5.7103282-19.3640486 11.8488673-22.4058296 6.2685317-1.2423806-2.2752952-1.7993157-5.0229818-1.8421244-7.9856234-.7711474 2.2752951-1.3708911 4.2506728-1.8421243 5.9244336-.7711474 2.8334987-3.8128438 3.3058901-3.8128438 4.422297l-3.9842475-1.1164069c.2571055-1.5029863-1.5851035-2.232814-1.1138702-5.5378544 2.270549-14.9406519 8.3111331-25.8022552 18.1645611-32.4989978l.0857019-1.4596554c.0428086-.6015344.5569351-1.0305949 1.1566788-.9881137l7.2829648.5157223c.5998284.0424812 1.0281684.5582035.9853598 1.1588882z" fill="#1e9ed1"/></g></g></svg>