<svg height="320" viewBox="0 0 248 320" width="248" xmlns="http://www.w3.org/2000/svg"><g fill="none" transform="translate(13 48)"><path d="m193 81-11.758527 36.753769-5.784242 31.246231h-4.457231l6.069304-68z" fill="#600566"/><path d="m196.785274 81c-.713699 19.952268.089469 30.330935.268408 32.120801.17791 1.788802 2.5 13.6 7.946318 35.879199l-4.464212-1.521864c-8.661045-20.4-11.607363-31.046669-12.58947-33.730936-.982106-2.684266-3.661044-13.599999-7.946318-32.6578662h16.785274z" fill="#77057a"/><path d="m205.435605 147.788603c.375902.877939.564395 1.491037.564395 1.930006 0 .526555-.094246 1.315866-.282739 2.281391-.657558 0-6.488917 0-17.494078 0-.470148-1.404494-.187409-2.193805.752888-2.281391.940297-.087585 1.787431-.175171 2.444989-.262756l8.183186-3.421044c.188493-.088628.375902 0 .375902.175171l.470149 1.140696c.94138.437927 1.693185.613097 2.25758.613097.470148 0 1.128789-.17517 1.881677-.525512.281656-.087585.657558 0 .846051.350342z" fill="#edc4fc"/><path d="m176.435579 147.788603c.377003.877939.564421 1.491037.564421 1.930006 0 .526555-.094251 1.315866-.281669 2.281391-.658671 0-6.490297 0-17.494877 0-.470171-1.404494-.188502-2.193805.751838-2.281391.941424-.087585 1.787513-.175171 2.446185-.262756l8.182476-3.421044c.188502-.088628.377003 0 .377003.175171l.563338 1.228281c.941423.437927 1.693262.61414 2.257683.61414.47017 0 1.128841-.176213 1.881763-.526555.187418-.17517.564421-.087585.751839.262757z" fill="#edc4fc"/><path d="m194 81-4.683077 18h-14.316923l2.121176-18z" fill="#edc4fc"/><path d="m196.580386 81c1.494307 4.5209302 1.845611 10.5219638.878766 18h-14.503692l-3.95546-18z" fill="#edc4fc"/><path d="m189.477377 42.3458998c1.401218-1.638775 2.428993-3.6418184 2.241734-5.826996-.467073-6.4643034-9.62342-5.0075544-11.492787-1.7298962-1.868291 3.2777664-1.588477 11.471966.747962 12.1092734.934146.2731472 2.896066-.3641602 4.859063-1.547762l-1.215035 8.649481h7.381686z" fill="#cb7a43"/><path d="m187.567113 43.0503138c.9237 1.6983299 2.122704 2.9496862 3.415246 2.9496862 2.399069 0 4.060454-3.128497 4.060454-6.4356984 0-.0894585 0-.2681629 0-.3576214 2.491546 1.6983299 4.429296 5.0056376 7.844542 5.0056376 4.521773 0 6.36811-8.849165 0-8.849165-4.337883 0-6.460586.6256782-8.30586 1.5195193-.368843-.9831934-.922638-1.7876822-1.568909-2.4133604-.184953-.1788107-.368842-.3575152-.738747-.5363259-.18389-.0893522-.368843-.1788107-.645209-.2681629-1.10759-.3575152-2.676498-.6256782-4.522835-.7151367-.368843 0-.645209 0-1.015114 0 0-1.6088714-1.383956-2.9496862-3.04534-2.9496862-1.661385 0-3.045341 1.3408148-3.045341 2.9496862 0 1.6089778 1.29148 2.8603341 2.860388 2.9497925.9237.268163 2.122703.4468675 3.415246.5363259-.092477.4468675-.184953.9831934-.184953 1.6088715 0 .5363259.092476 1.0726518.184953 1.6089777.276366-.3575151.646271-.5363259 1.015113-.5363259 1.10759 0 1.845275.8938411 1.845275 1.7876822.092476 1.2514626-.645209 2.0559514-1.568909 2.1453037z" fill="#600566"/><path d="m214.334619 92.5632931c.095211-.1641706 0-.3821996-.285632-.4912141-.379748-.1096633-.759497-.1096633-.949918.1090145-.190422.1635218-.095211.4367069.190421.6002286.284538.1096634.665381.1096634.854708-.0545072l.665381.2731851.190421-.1641706z" fill="#9e2dad"/><path d="m215.334271 89.5633501c.095261-.1641492 0-.3821498-.284686-.4917989-.379948-.1090002-.76099-.1090002-.950416.1096491-.190521.1635004-.09526.4366499.189426.6001503.285782.1090003.665729.1090003.85625-.0545001l.665729.2731495.189426-.1641492z" fill="#9e2dad"/><path d="m216.33535 88.5633501c.094168-.1641492 0-.3821498-.285789-.4917989-.379956-.1090002-.761008-.1090002-.950438.1096491-.190526.1635004-.095263.4366499.190525.6001503.284694.1090003.664651.1090003.855176-.0545001l.665745.2731495.189431-.1641492z" fill="#9e2dad"/><path d="m197.205207 125.68536c1.394214-1.33782 4.180504-1.247713 5.94601-4.013459 3.065561-6.331853-3.158651-11.23684-3.158651-11.23684s-5.481629-5.707466-11.890951-2.4085c-2.787359 1.962207-2.508088 4.5488-3.809213 5.975667-1.765506 1.87316-7.059884.446293-11.79786 5.351279-6.781683 7.045287 2.321908 15.072206 3.158651 15.785639.835673.80354 9.661063 9.008553 16.628927 2.1403 4.923087-4.815939 3.06556-9.809972 4.923087-11.594086z" fill="#fcbf35"/><path d="m218.894215 96.8556556c-.112018-.2859721-.335411-.3809194-.503439-.1910249l-.279401-.6646307-.111375.1898945.279402.6657611c-.112018.2848417-.112018.5708138 0 .8556555.167384.2848418.39142.379789.614813.1898945.112018-.2848417.167384-.7607083 0-1.04555z" fill="#9e2dad"/><path d="m220.894476 94.8563019c-.11197-.2858105-.335268-.3807041-.503223-.1909169l-.279283-.665385-.11197.1909169.279926.665385c-.11197.2846809-.11197.5693618 0 .8551723.167312.2846809.390609.3795745.61455.1897872.111327-.2846808.167312-.665385 0-1.0449595z" fill="#9e2dad"/><path d="m222.914568 93.8551723c-.114568-.2846809-.343045-.3795745-.514897-.1897873l-.285762-.665385-.113909.1897872.285761.6653851c-.114568.2858105-.114568.5704914 0 .8563019.171194.2846809.399671.3795745.628807.1897872.113909-.2858105.113909-.7602786 0-1.0460891z" fill="#9e2dad"/><path d="m189.341663 121.87581c-1.650862-1.535352-1.798414-4.068485-.330556-5.656405 1.468817-1.587919 3.997327-1.630568 5.64723-.095215 1.650862 1.536344 1.798414 4.068485.330556 5.656405-1.468817 1.587919-3.997327 1.630568-5.64723.095215z" fill="#db8eef"/><path d="m216 96.5439987-2.827988-2.5439987-22.172012 21.402953 3.923032 3.597047z" fill="#77057a"/><path d="m189.991547 121.169931c-1.23043-1.144298-1.329465-3.042839-.220077-4.241971 1.108388-1.198099 3.005052-1.241553 4.236482-.09829 1.231431 1.144298 1.329465 3.043873.221078 4.241971-1.109388 1.198098-3.006052 1.242587-4.237483.09829z" fill="#9e2dad"/><path d="m180.348037 126 6.651963 5.706576-1.348037 1.293424-6.651963-5.706576z" fill="#db8eef"/><path d="m221.391124 92.0584709-4.873464 3.9415291-2.51766-2.333171 3.655332-4.9876311c.48744-.6435345 1.461384-.8845014 2.193011-.4828899l1.136737.6435344.731627 1.1264244c.48744.6435344.324648 1.528992-.325583 2.0922041zm-4.710672.562256 2.274408-2.6544601c.161856-.2409669.161856-.4828899-.081396-.7238568-.243253-.1606445-.48744-.1606445-.730692.0803223l-2.274408 2.6544601c-.162792.2419231-.162792.4828899.08046.724813.244188.1606446.568836.1606446.731628-.0812785zm3.979979-1.0451459c.162792-.1616007.244188-.4828899 0-.7238567-.162791-.1616008-.487439-.2419231-.730692 0l-2.599991 2.4125371c-.161856.1616008-.243252.4828899 0 .7248129.162792.1606446.48744.2409669.731628 0z" fill="#db8eef"/><g fill="#fcbf35" transform="translate(193 95)"><path d="m19.3515215 0 2.6484785 2.51126332-.1259182.13251476-2.6474291-2.51126332z"/><path d="m15.4942288 4.11012993 2.6484784 2.51126332-.1248688.13251476-2.6484785-2.51126332z"/><path d="m11.6998951 8.15400248 2.6484785 2.51126332-.1248689.1325148-2.6484785-2.51126336z"/><path d="m7.77649528 12.2022194 2.64847852 2.5112634-.1248689.1325147-2.64847846-2.5112633z"/><path d="m3.92025184 16.3112632 2.64847849 2.5112633-.12591816.1325148-2.64742917-2.5101772z"/><path d="m.12591815 20.3551357 2.64742917 2.5112634-.12486883.1336009-2.64847849-2.5112633z"/></g><path d="m217 96.5288361-3.55584-3.5288361-.44416.5886054 3.44448 3.4113946z" fill="#9e2dad"/><g fill="#f9f1fd"><path d="m213.865232 94 .134768.1248338-32.865232 33.8751662-.134768-.124834z"/><path d="m214.865193 94 .134807.1237263-32.865193 33.8762737-.134807-.124802z"/><path d="m214.865153 95 .134847.123695-32.865153 33.876305-.134847-.123695z"/><path d="m214.865193 95 .134807.1237303-32.865193 33.8762697-.134807-.12373z"/><path d="m215.865193 95 .134807.1237263-32.865193 33.8762737-.134807-.124802z"/><path d="m215.865232 96 .134768.1237773-32.865232 33.8762227-.134768-.124854z"/></g><path d="m180.425771 127 4.574229 4.527802-.425771.472198-4.574229-4.527802z" fill="#9e2dad"/><path d="m167.311688 76-8.754166 8.0457858c-2.514369 1.0603707-4.656517 2.1217923-6.239797 3.4480439-.372221.4424341-.745514 1.2379748.931089.8838173 1.676604-.3531066 3.538781-.6189874 3.818752-.0882766.278897.5307108-.652192 1.3262515 0 2.0335156.372221.4424342 1.768854-.972094 4.004325-4.4201378l9.034136-5.0401762zm38.743165 1.1496982h-6.425371c4.004325 12.2010938 6.146473 18.6547472 6.425371 19.3620113.745514 1.6804091-.837766 4.2446355-1.396634 5.5708875 2.142148.883817 1.862178-2.3876736 4.563194-1.237975 1.397706.618987.838838 1.414528 1.024412 2.475949.186647 1.414529 2.422118.26483 2.980986-.26588.465545-.442435 2.514369-3.00561 1.489957-3.6245975-2.235471-1.5038558-4.190973-2.918384-4.564266-3.7139247-.744442-1.0603707-2.048825-7.2502451-4.097649-18.5664706z" fill="#cb7a43"/><path d="m187.978155 51.4463641-2.726182-.4463641c-4.605709 10.982086-12.690061 20.9822983-24.251973 29.9106423l8.74262 10.0893577c11.561912-12.7679671 18.705417-25.9822983 18.235535-39.5536359z" fill="#db8eef"/><path d="m199 83h-23c5.321198-12.8965887 7.937125-23.8992622 7.937125-33.0079135l6.944983-.9920865c5.501965 8.7479412 7.035368 19.5705278 8.117892 34z" fill="#f9f1fd"/><path d="m190.941493 50h-.46702c-.560639 0-1.402136.0885492-2.523415.0885492l-1.774461 4.6892169c-.187238 5.7510712-1.214898 17.2533188-3.176597 34.5950817h15.602128c0 1.2377959-.093619 2.3883046-.186162 3.6271522h11.584034c-1.774461-18.4922716-8.127655-32.825044-19.058507-43z" fill="#db8eef"/><path d="m197.789163 73c-.52607 7.7240249-1.789125 13.1495321-3.789163 16h4.946761c.210913-5.5173168-.210913-10.8510144-1.157598-16z" fill="#c159d8"/><path d="m124.000543 65c6.0747 0 10.999457-4.7009247 10.999457-10.5 0-5.7989675-4.924757-10.5-10.999457-10.5-6.075786 0-11.000543 4.7010325-11.000543 10.5 0 5.7990753 4.924757 10.5 11.000543 10.5z" fill="#fca306"/><path d="m37 61.8235356c2.4713968 7.9408969 48.8090182 23.8239584 49.1188509 24.4113982.3087644.2947764-1.8536544 10.5887077-6.1789193 31.1776262l3.7070952.58744c8.6492477-22.6470711 12.3565566-35.0002112 11.1214992-36.7646436-1.5448901-2.9414251-14.5196164-10.5887077-38.3065434-23.2353564z" fill="#e8a16d"/><path d="m79.8053359 113.104849 6.1151235.895151c9.1721565-15.8168356 11.3123969-28.0519955 9.4777541-33.4239736-1.5279878-3.5806041-14.0641496-11.6391073-37.9128141-23.5760264l-20.4853994 4.4765055c4.8919931 19.0995209 45.5570886 25.6646763 46.1686009 26.261801.6116181.2990984-2.4460494 9.5497068-3.363265 25.3665425z" fill="#edc4fc"/><path d="m78.9499908 116.85707c-.6333637.857069-.9499908 1.714139-.9499908 2.000513v2.571208c.6333637 0 7.6004741.85707 20.584266 2.571209.6330351-1.427765.6330351-2.285861-.6341304-2.571209-1.2660703-.285347-2.2167182-.571721-2.8497534-.571721l-9.1833905-4.85707c-.3165176 0-.3165176 0-.6330352 0l-.9506479 1.142417c-1.2665084.286374-1.8998721.571722-2.8498629.286374-.6333637 0-1.2667275-.286374-2.2167183-.857069.3166271 0-.3167366 0-.3167366.285348z" fill="#77057a"/><path d="m41.5602198 57-18.4336466 42.3595641-18.1265732 35.6404359h4.30125859l46.69874141-78z" fill="#e8a16d"/><path d="m3.62687523 134.04206c-.31349182.874869-.62687523 1.749738-.62687523 2.333333 0 .582547 0 1.457416.31338341 2.624607h20.37317379c.6268753-1.749738.3134428-2.624607-.9402586-2.624607-1.2537504 0-2.1940091-.292322-2.8208843-.292322l-9.40302-4.083071c-.3133834 0-.3133834 0-.62687521.291274l-.62687523 1.16719c-.94025864.583596-1.88062568.583596-2.5073925.583596-.62687523 0-1.25375045-.292322-2.19411749-.583596-.31338342 0-.94025864.291274-.94025864.583596z" fill="#77057a"/><path d="m6 128.250254 9.5240759 1.749746c7.3734952-10.203186 38.0964099-52.178238 41.4759241-72h-21.1987325c-11.3674762 14.2835179-22.7349525 59.757015-29.8012675 70.250254z" fill="#edc4fc"/><path d="m42.5929162 12.9633932c-1.4404869-1.7777578-2.5929162-4.14803054-2.3048587-6.81461404.5762147-7.4072355 10.3717644-5.6294777 12.3884659-2.07406851 2.0167016 3.55551561 1.7286441 13.03671315-.8642721 13.92553885-.8643719.2963107-3.1691309-.2963107-5.1859321-1.7777578l1.4405865 9.7775083h-8.0669057z" fill="#e8a16d"/><path d="m53 6.60567522c-.2040338-.05636012-.3673035 0-.5305731 0-.1632697.0562621-.3265393.0562621-.4489738.11262221-.3265393.11262222-.6123145.22534245-1.0204531.28170257.0815993-.28170257.244869-.4506849.3673745-.61976525.1632696-.16898233.3265393-.28160455.5305731-.33796466.2041048-.05636012.4082096-.05636012.6123145 0 .2040338.11272023.3673034.33806268.4897379.56340513z" fill="#c159d8"/><path d="m52.4999565 10c.276207 0 .5000435-.22383645.5000435-.5000435 0-.27612005-.2238365-.4999565-.5000435-.4999565-.27612 0-.4999565.22383645-.4999565.4999565 0 .27620705.2238365.5000435.4999565.5000435z" fill="#c159d8"/><path d="m54 8c.2555377.39707279.6308622.73738898.8448929 1.13937769.2092965.35975644 1.0541894 1.49913411 1.1484334 1.95776771.113401.6272275-1.2474116.8720183-1.8750809.9028546" fill="#e8a16d"/><path d="m48.0433375 6.71250002c.3120842 4.45560898 1.2481209 6.53482908 2.4962417 6.53482908 2.1841575 0 4.0563388-1.188141 4.9923755-1.188141.6240604 0 .6240604.8910791 0 1.4852029-.3119763.5941239-2.1841575.8910792-2.1841575 1.782265 0 .8910791 1.5600971.2969552 1.5600971.5940171 0 .8911859.3120841 2.0793269-1.2481209 2.0793269-1.2480129 0-5.3043517-.5941239-6.2404963-2.3763888-.3119762-1.188141-.6240604-3.8614851-.9360367-8.02003207h-.3120841c-1.2481209 0-2.1841576.89118581-2.1841576 2.07932686 0 .59401721.3120842 1.18814101.6240605 1.48520301-.6240605.5940171-.9360367 1.4852029-1.5600971 2.0792201-2.4962417-1.485203-4.368423-5.34668803-1.8721813-9.20817311.6240604-1.78226492 2.1841575-2.97040597 3.7442546-3.26746791 1.560205-.89107911 3.1203021-.89107911 4.368423-.59401717 2.4962417.29706194 4.6803992.89107911 5.3044596 1.18814105 0 2.07922015-.3120842 2.97040597-4.3684229 2.67334403-.9360367.89107911-1.5600971 1.48520298-2.1841576 2.67334403z" fill="#9e2dad"/><path d="m69.4605147 46.4169816 12.8577795-5.2824862c2.142928-2.0542533 4.2860677-3.8151172 6.4289957-4.9889913.6119626-.2934948 1.8369466-.2934948.6119626 1.467369-1.2239252 1.467369-2.1429279 3.2281275-1.8369466 3.8151172.3059813.5868844 1.8369466 0 2.4489093.8803792.30704.5869898-1.8358879 1.467369-6.7345535 2.0543588l-9.7963783 7.0432446zm-52.0430809 1.467369 7.3472573 1.467369c-7.3472573 13.2062154-11.327026 19.9560705-11.6331132 20.8363443-1.2245605 1.7605476 0 4.9896238.3060872 6.7501714-2.4491211.5872006-1.5306477-3.228022-4.89813619-2.3477482-3.0614013.5872006-5.51052233 2.6408214-8.26573056 0-.30608719-.2941274-.61228026-1.1744012.61228026-1.7605476 2.75520823-1.1744012 7.34725723-3.5221494 7.95953749-4.4024232.61228026-1.1740849 3.6736815-7.9238346 8.5718177-20.5431657z" fill="#e8a16d"/><path d="m45.0307312 21.5940666 3.0225626-.5940666c6.6497632 6.237273 9.3702159 21.3846922 13.6018454 23.4638188 4.2317341 1.7820932 9.9746449 0 17.2289415-2.3760532l2.1159193 4.7521064c-6.3475488 6.8312329-19.9493942 12.4744393-25.3900906 9.2072861-9.0678969-5.0491397-10.8814972-23.7607454-10.5791782-34.4530915z" fill="#77057a"/><path d="m31 58h27.0543336c1.2158318 0 .9119001-1.759431.9119001-2.6390938-2.127837-9.9699684-10.0313219-20.8195995-10.0313219-35.1879873l-7.9034848-1.1729189c-6.6875479 10.2631191-8.8154901 22.5789252-10.031427 39z" fill="#f9f1fd"/><path d="m28.5266877 48.4140841c-5.4918645 9.5679463-10.0684533 16.2365748-14.0348233 20.5859159l-5.4918644-1.1602687c3.6612078-21.4552842 14.3398799-37.401896 31.7309598-47.8397313h3.0509889c7.0174644 22.6152404 8.8481211 37.9820304 5.7970266 45.520548h-24.4084387c.3051622-5.5088807 1.5254944-11.3077244 3.3561511-17.1064639z" fill="#c159d8"/><path d="m179.975022 36c-.163315 1.587349-1.734026 2.8992581-1.959786 4.4774488-.161394 1.1362264.990461 1.4379596 1.984764 1.5225512" fill="#cb7a43"/><path d="m182.000708 35.6015556c-.021707-.2511402.459689-.5082944.892562-.570185.432874-.0618905.924485-.0191076 1.333098.0165955.398397.0845001.795517.1690001 1.086653.3439381.291136.1749379.583549.3498758.686979.6080958-.39712-.0844239-.712518-.1617681-1.109638-.2462682-.315397-.0773441-.713794-.1618442-1.040684-.1903915-.315397-.0773442-.642287-.1058915-.970454-.1344388-.163445-.0143117-.503103.0059378-.878516.1726541z" fill="#600566"/><path d="m180 44.654819c.51588-.0676527.901408-.2247883 1.357636-.3718734.456228-.1469769.91135-.2940619 1.489091-.2822822l1.153273.0235596-.892571.6505891c-.406518.2956831-.741232.6015248-1.217343.8871573-.477217.2856324-.943386.501883-1.51008.4208296.882629-.5813155 1.421706-1.282482 2.243579-1.9432299l.190002.66399c-.36454.0185883-.809721.0963996-1.326705.1640522-.51588.0675446-1.092516.0557648-1.486882-.2127923z" fill="#600566"/><path d="m182.433989 37.9486877c.248.0363.479-.1352.515-.3831.036-.2478-.135-.478-.383-.5143-.248-.0362-.478.1353-.515.3831-.036.2478.136.4781.383.5143z" fill="#600566"/></g></svg>