<svg fill="none" height="60" viewBox="0 0 60 60" width="60" xmlns="http://www.w3.org/2000/svg" xmlns:xlink="http://www.w3.org/1999/xlink"><filter id="a" color-interpolation-filters="sRGB" filterUnits="userSpaceOnUse" height="62.2771" width="91.2905" x="-30.3227" y="-.322689"><feFlood flood-opacity="0" result="BackgroundImageFix"/><feColorMatrix in="SourceAlpha" result="hardAlpha" type="matrix" values="0 0 0 0 0 0 0 0 0 0 0 0 0 0 0 0 0 0 127 0"/><feOffset dx=".322689" dy=".322689"/><feGaussianBlur stdDeviation=".322689"/><feColorMatrix type="matrix" values="0 0 0 0 0.129412 0 0 0 0 0.129412 0 0 0 0 0.129412 0 0 0 0.4 0"/><feBlend in2="BackgroundImageFix" mode="normal" result="effect1_dropShadow_172_61868"/><feBlend in="SourceGraphic" in2="effect1_dropShadow_172_61868" mode="normal" result="shape"/></filter><filter id="b" color-interpolation-filters="sRGB" filterUnits="userSpaceOnUse" height="46.1423" width="25.2749" x="6.14118" y="15.8121"><feFlood flood-opacity="0" result="BackgroundImageFix"/><feColorMatrix in="SourceAlpha" result="hardAlpha" type="matrix" values="0 0 0 0 0 0 0 0 0 0 0 0 0 0 0 0 0 0 127 0"/><feOffset dx=".322689" dy=".322689"/><feGaussianBlur stdDeviation=".322689"/><feColorMatrix type="matrix" values="0 0 0 0 0.129412 0 0 0 0 0.129412 0 0 0 0 0.129412 0 0 0 0.4 0"/><feBlend in2="BackgroundImageFix" mode="normal" result="effect1_dropShadow_172_61868"/><feBlend in="SourceGraphic" in2="effect1_dropShadow_172_61868" mode="normal" result="shape"/></filter><clipPath id="c"><path d="m0 0h60v60h-60z"/></clipPath><g clip-path="url(#c)"><g filter="url(#a)"><path d="m33.9895 0h-63.9895v1.54355h63.9895z" fill="#095411"/><path d="m33.9895 1.54346h-63.9895v23.66774h63.9895z" fill="#d4f4d7"/><g fill="#095411"><path d="m.274966 4.63099c.134602 0 .243716-.10911.243716-.24371 0-.13461-.109114-.24373-.243716-.24373-.134601 0-.243716.10912-.243716.24373 0 .1346.109115.24371.243716.24371z"/><path d="m3.82233 4.63099c.1346 0 .24372-.10911.24372-.24371 0-.13461-.10912-.24373-.24372-.24373s-.24372.10912-.24372.24373c0 .1346.10912.24371.24372.24371z"/><path d="m7.39752 4.63099c.13461 0 .24373-.10911.24373-.24371 0-.13461-.10912-.24373-.24373-.24373-.1346 0-.24371.10912-.24371.24373 0 .1346.10911.24371.24371.24371z"/><path d="m10.9449 4.63099c.1346 0 .2437-.10911.2437-.24371 0-.13461-.1091-.24373-.2437-.24373s-.2437.10912-.2437.24373c0 .1346.1091.24371.2437.24371z"/><path d="m14.4918 4.63099c.1346 0 .2437-.10911.2437-.24371 0-.13461-.1091-.24373-.2437-.24373s-.2438.10912-.2438.24373c0 .1346.1092.24371.2438.24371z"/><path d="m18.0391 4.63099c.1346 0 .2437-.10911.2437-.24371 0-.13461-.1091-.24373-.2437-.24373s-.2437.10912-.2437.24373c0 .1346.1091.24371.2437.24371z"/><path d="m21.6143 4.63099c.1346 0 .2437-.10911.2437-.24371 0-.13461-.1091-.24373-.2437-.24373s-.2437.10912-.2437.24373c0 .1346.1091.24371.2437.24371z"/><path d="m25.1617 4.63099c.1346 0 .2437-.10911.2437-.24371 0-.13461-.1091-.24373-.2437-.24373s-.2437.10912-.2437.24373c0 .1346.1091.24371.2437.24371z"/><path d="m28.7091 4.63099c.1346 0 .2437-.10911.2437-.24371 0-.13461-.1091-.24373-.2437-.24373s-.2438.10912-.2438.24373c0 .1346.1092.24371.2438.24371z"/><path d="m32.2564 4.60364c.1346 0 .2437-.10911.2437-.24371s-.1091-.24372-.2437-.24372-.2437.10912-.2437.24372.1091.24371.2437.24371z"/><path d="m.274966 7.58265c.134602 0 .243716-.10912.243716-.24372s-.109114-.24372-.243716-.24372c-.134601 0-.243716.10912-.243716.24372s.109115.24372.243716.24372z"/><path d="m3.82233 7.58265c.1346 0 .24372-.10912.24372-.24372s-.10912-.24372-.24372-.24372-.24372.10912-.24372.24372.10912.24372.24372.24372z"/><path d="m7.39752 7.55531c.13461 0 .24373-.10912.24373-.24372s-.10912-.24372-.24373-.24372c-.1346 0-.24371.10912-.24371.24372s.10911.24372.24371.24372z"/><path d="m10.9449 7.55531c.1346 0 .2437-.10912.2437-.24372s-.1091-.24372-.2437-.24372-.2437.10912-.2437.24372.1091.24372.2437.24372z"/><path d="m14.4918 7.55531c.1346 0 .2437-.10912.2437-.24372s-.1091-.24372-.2437-.24372-.2438.10912-.2438.24372.1092.24372.2438.24372z"/><path d="m18.0391 7.55531c.1346 0 .2437-.10912.2437-.24372s-.1091-.24372-.2437-.24372-.2437.10912-.2437.24372.1091.24372.2437.24372z"/><path d="m21.6143 7.55531c.1346 0 .2437-.10912.2437-.24372s-.1091-.24372-.2437-.24372-.2437.10912-.2437.24372.1091.24372.2437.24372z"/><path d="m25.1617 7.55531c.1346 0 .2437-.10912.2437-.24372s-.1091-.24372-.2437-.24372-.2437.10912-.2437.24372.1091.24372.2437.24372z"/><path d="m28.7091 7.55531c.1346 0 .2437-.10912.2437-.24372s-.1091-.24372-.2437-.24372-.2438.10912-.2438.24372.1092.24372.2438.24372z"/><path d="m32.2564 7.55531c.1346 0 .2437-.10912.2437-.24372s-.1091-.24372-.2437-.24372-.2437.10912-.2437.24372.1091.24372.2437.24372z"/><path d="m.274966 10.507c.134602 0 .243716-.1091.243716-.2437 0-.1347-.109114-.2438-.243716-.2438-.134601 0-.243716.1091-.243716.2438 0 .1346.109115.2437.243716.2437z"/><path d="m3.82233 10.507c.1346 0 .24372-.1091.24372-.2437 0-.1347-.10912-.2438-.24372-.2438s-.24372.1091-.24372.2438c0 .1346.10912.2437.24372.2437z"/><path d="m7.39752 10.507c.13461 0 .24373-.1091.24373-.2437 0-.1347-.10912-.2438-.24373-.2438-.1346 0-.24371.1091-.24371.2438 0 .1346.10911.2437.24371.2437z"/><path d="m10.9449 10.507c.1346 0 .2437-.1091.2437-.2437 0-.1347-.1091-.2438-.2437-.2438s-.2437.1091-.2437.2438c0 .1346.1091.2437.2437.2437z"/><path d="m14.4918 10.507c.1346 0 .2437-.1091.2437-.2437 0-.1347-.1091-.2438-.2437-.2438s-.2438.1091-.2438.2438c0 .1346.1092.2437.2438.2437z"/><path d="m18.0391 10.4796c.1346 0 .2437-.1091.2437-.2437s-.1091-.24371-.2437-.24371-.2437.10911-.2437.24371.1091.2437.2437.2437z"/><path d="m21.6143 10.4796c.1346 0 .2437-.1091.2437-.2437s-.1091-.24371-.2437-.24371-.2437.10911-.2437.24371.1091.2437.2437.2437z"/><path d="m25.1617 10.4796c.1346 0 .2437-.1091.2437-.2437s-.1091-.24371-.2437-.24371-.2437.10911-.2437.24371.1091.2437.2437.2437z"/><path d="m28.7091 10.4796c.1346 0 .2437-.1091.2437-.2437s-.1091-.24371-.2437-.24371-.2438.10911-.2438.24371.1092.2437.2438.2437z"/><path d="m32.2564 10.4796c.1346 0 .2437-.1091.2437-.2437s-.1091-.24371-.2437-.24371-.2437.10911-.2437.24371.1091.2437.2437.2437z"/><path d="m.274966 13.4318c.134602 0 .243716-.1091.243716-.2437s-.109114-.2438-.243716-.2438c-.134601 0-.243716.1092-.243716.2438s.109115.2437.243716.2437z"/><path d="m3.82233 13.4318c.1346 0 .24372-.1091.24372-.2437s-.10912-.2438-.24372-.2438-.24372.1092-.24372.2438.10912.2437.24372.2437z"/><path d="m7.39752 13.4318c.13461 0 .24373-.1091.24373-.2437s-.10912-.2438-.24373-.2438c-.1346 0-.24371.1092-.24371.2438s.10911.2437.24371.2437z"/><path d="m10.9449 13.4318c.1346 0 .2437-.1091.2437-.2437s-.1091-.2438-.2437-.2438-.2437.1092-.2437.2438.1091.2437.2437.2437z"/><path d="m14.4918 13.4318c.1346 0 .2437-.1091.2437-.2437s-.1091-.2438-.2437-.2438-.2438.1092-.2438.2438.1092.2437.2438.2437z"/><path d="m18.0391 13.4318c.1346 0 .2437-.1091.2437-.2437s-.1091-.2438-.2437-.2438-.2437.1092-.2437.2438.1091.2437.2437.2437z"/><path d="m21.6143 13.4318c.1346 0 .2437-.1091.2437-.2437s-.1091-.2438-.2437-.2438-.2437.1092-.2437.2438.1091.2437.2437.2437z"/><path d="m25.1617 13.4318c.1346 0 .2437-.1091.2437-.2437s-.1091-.2438-.2437-.2438-.2437.1092-.2437.2438.1091.2437.2437.2437z"/><path d="m28.7091 13.4044c.1346 0 .2437-.1091.2437-.2437s-.1091-.2437-.2437-.2437-.2438.1091-.2438.2437.1092.2437.2438.2437z"/><path d="m32.2564 13.4044c.1346 0 .2437-.1091.2437-.2437s-.1091-.2437-.2437-.2437-.2437.1091-.2437.2437.1091.2437.2437.2437z"/><path d="m.274966 16.3839c.134602 0 .243716-.1091.243716-.2437s-.109114-.2437-.243716-.2437c-.134601 0-.243716.1091-.243716.2437s.109115.2437.243716.2437z"/><path d="m3.82233 16.3566c.1346 0 .24372-.1091.24372-.2437s-.10912-.2438-.24372-.2438-.24372.1092-.24372.2438.10912.2437.24372.2437z"/><path d="m7.39752 16.3566c.13461 0 .24373-.1091.24373-.2437s-.10912-.2438-.24373-.2438c-.1346 0-.24371.1092-.24371.2438s.10911.2437.24371.2437z"/><path d="m10.9449 16.3566c.1346 0 .2437-.1091.2437-.2437s-.1091-.2438-.2437-.2438-.2437.1092-.2437.2438.1091.2437.2437.2437z"/><path d="m14.4918 16.3566c.1346 0 .2437-.1091.2437-.2437s-.1091-.2438-.2437-.2438-.2438.1092-.2438.2438.1092.2437.2438.2437z"/><path d="m18.0391 16.3566c.1346 0 .2437-.1091.2437-.2437s-.1091-.2438-.2437-.2438-.2437.1092-.2437.2438.1091.2437.2437.2437z"/><path d="m21.6143 16.3566c.1346 0 .2437-.1091.2437-.2437s-.1091-.2438-.2437-.2438-.2437.1092-.2437.2438.1091.2437.2437.2437z"/><path d="m25.1617 16.3566c.1346 0 .2437-.1091.2437-.2437s-.1091-.2438-.2437-.2438-.2437.1092-.2437.2438.1091.2437.2437.2437z"/><path d="m28.7091 16.3566c.1346 0 .2437-.1091.2437-.2437s-.1091-.2438-.2437-.2438-.2438.1092-.2438.2438.1092.2437.2438.2437z"/><path d="m32.2564 16.3566c.1346 0 .2437-.1091.2437-.2437s-.1091-.2438-.2437-.2438-.2437.1092-.2437.2438.1091.2437.2437.2437z"/><path d="m.356509 19.3077c.134602 0 .243725-.1091.243725-.2437s-.109123-.2437-.243725-.2437c-.134601 0-.243716.1091-.243716.2437s.109115.2437.243716.2437z"/><path d="m3.90387 19.3077c.1346 0 .24372-.1091.24372-.2437s-.10912-.2437-.24372-.2437-.24371.1091-.24371.2437.10911.2437.24371.2437z"/><path d="m7.45124 19.3077c.1346 0 .24371-.1091.24371-.2437s-.10911-.2437-.24371-.2437c-.13461 0-.24372.1091-.24372.2437s.10911.2437.24372.2437z"/><path d="m11.0264 19.2804c.1346 0 .2437-.1091.2437-.2437s-.1091-.2437-.2437-.2437-.2437.1091-.2437.2437.1091.2437.2437.2437z"/><path d="m14.5733 19.2804c.1346 0 .2437-.1091.2437-.2437s-.1091-.2437-.2437-.2437-.2437.1091-.2437.2437.1091.2437.2437.2437z"/><path d="m18.1207 19.2804c.1346 0 .2437-.1091.2437-.2437s-.1091-.2437-.2437-.2437-.2437.1091-.2437.2437.1091.2437.2437.2437z"/><path d="m21.668 19.2804c.1346 0 .2438-.1091.2438-.2437s-.1092-.2437-.2438-.2437-.2437.1091-.2437.2437.1091.2437.2437.2437z"/><path d="m25.2432 19.2804c.1346 0 .2437-.1091.2437-.2437s-.1091-.2437-.2437-.2437-.2437.1091-.2437.2437.1091.2437.2437.2437z"/><path d="m28.7906 19.2804c.1346 0 .2437-.1091.2437-.2437s-.1091-.2437-.2437-.2437-.2437.1091-.2437.2437.1091.2437.2437.2437z"/><path d="m32.338 19.2804c.1346 0 .2437-.1091.2437-.2437s-.1091-.2437-.2437-.2437-.2438.1091-.2438.2437.1092.2437.2438.2437z"/><path d="m.356509 22.233c.134602 0 .243725-.1091.243725-.2437s-.109123-.2437-.243725-.2437c-.134601 0-.243716.1091-.243716.2437s.109115.2437.243716.2437z"/><path d="m3.90387 22.233c.1346 0 .24372-.1091.24372-.2437s-.10912-.2437-.24372-.2437-.24371.1091-.24371.2437.10911.2437.24371.2437z"/><path d="m7.45124 22.233c.1346 0 .24371-.1091.24371-.2437s-.10911-.2437-.24371-.2437c-.13461 0-.24372.1091-.24372.2437s.10911.2437.24372.2437z"/><path d="m11.0264 22.233c.1346 0 .2437-.1091.2437-.2437s-.1091-.2437-.2437-.2437-.2437.1091-.2437.2437.1091.2437.2437.2437z"/><path d="m14.5733 22.233c.1346 0 .2437-.1091.2437-.2437s-.1091-.2437-.2437-.2437-.2437.1091-.2437.2437.1091.2437.2437.2437z"/><path d="m18.1207 22.233c.1346 0 .2437-.1091.2437-.2437s-.1091-.2437-.2437-.2437-.2437.1091-.2437.2437.1091.2437.2437.2437z"/><path d="m21.668 22.2057c.1346 0 .2438-.1091.2438-.2437s-.1092-.2437-.2438-.2437-.2437.1091-.2437.2437.1091.2437.2437.2437z"/><path d="m25.2432 22.2057c.1346 0 .2437-.1091.2437-.2437s-.1091-.2437-.2437-.2437-.2437.1091-.2437.2437.1091.2437.2437.2437z"/><path d="m28.7906 22.2057c.1346 0 .2437-.1091.2437-.2437s-.1091-.2437-.2437-.2437-.2437.1091-.2437.2437.1091.2437.2437.2437z"/><path d="m32.338 22.2057c.1346 0 .2437-.1091.2437-.2437s-.1091-.2437-.2437-.2437-.2438.1091-.2438.2437.1092.2437.2438.2437z"/></g><path d="m27.0303 4.14334v4.14321c0 .18956.1354.32495.3249.32495h2.1664l.0271-.02707c.1354-.1354 1.0019-.92072 1.2727-1.13736l.7854-.70407c.0812-.05416.1083-.1354.1083-.24372v-2.38301c0-.32496-.2708-.59576-.5958-.59576h-3.4391c-.3791.02708-.6499.29788-.6499.62283zm3.8182.05416v1.19151c0 .37912-.2978.677-.677.677h-1.7601c-.3792 0-.677-.29788-.677-.677v-1.19151z" fill="#ce2951"/><path d="m27.3555 22.2055v-13.6211h2.1663s1.3811-1.27275 1.3811-1.19151 1.0561.97487 1.0561.97487l-.5686.18956.4332.43328-.5416.24371.4875.37912-.5687.24372.4604.43325-.5687.2167.4333.4332-.5416.2708.4874.4062-.5958.1896.4875.4333-.6229.2437.4875.4333-.5687.2708.4333.4062-.5687.2437.4874.4333-.5686.1895.4332.4062-.4874.2437.4333.4604-.5416.2166.4333.4062-.5687.2167.4333.4874-.5416.1895.4874.4333-.5687.2708.4604.4062-.5687.2437.4604.4333-.5687.2166.4603.4604-.5686.1896.4332.4062-.5416.2708.4333.4062-.5416.2437.4333.4062-.5416.2166.352.4333-.4061.2166h-1.8956z" fill="#26b759"/><path d="m27.7344 8.04261c.1346 0 .2438-.10912.2438-.24372s-.1092-.24371-.2438-.24371-.2437.10911-.2437.24371.1091.24372.2437.24372z" fill="#f24c64"/><path d="m29.1426 8.04261c.1346 0 .2438-.10912.2438-.24372s-.1092-.24371-.2438-.24371-.2437.10911-.2437.24371.1091.24372.2437.24372z" fill="#f24c64"/><path d="m22.9952 9.77597v4.76603l-.1625.1083v1.0561h.3521.352v-1.0561l-.1896-.1083v-4.76603h.5687v-.54159h-.7311-.7312v.54159z" fill="#26b759"/><path d="m22.4536 8.12378v1.08319h1.4894v-1.08319l.2166-.32496c.1084-.16248.1625-.37911.1625-.59575v-3.06002c0-.18955-.1625-.35203-.352-.35203h-.7583-.7582c-.1895 0-.352.16248-.352.35203v3.06002c0 .21664.0541.40619.1625.59575z" fill="#f24c64"/><path d="m23.8076 4.19727h-.4062v3.19541h.4062z" fill="#ce2951"/><path d="m22.9409 4.19727h-.4062v3.19541h.4062z" fill="#ce2951"/><path d="m2.73934 7.74543 1.08319.677c.08124.05416.10831.16248.05415.2708-.27079.40619-.94779 1.57067-.94779 2.70797 0 .9478.24372 1.8414.43328 2.3559.08124.2438-.02708.5146-.2708.6229-.2708.1354-.62283-.0271-.70407-.325-.2708-.9207-.62283-2.8434.35204-5.0639.1354-.29787.08123-.62283-.08125-.86655l-.10831-.16248c-.02708-.02708-.02708-.08124-.02708-.1354.02707-.08124.1354-.1354.21664-.08124z" fill="#f24c64"/><path d="m5.04087 6.93278c.02707-.08124.05415-.16248.05415-.24372 0-.10831-.02708-.21663-.08124-.29787l.21664-.78532c.08124-.32495.08124-.64991-.05416-.94779l-.48744-1.16443h-.18955v1.02903c.16248.05416.29788.21664.29788.4062s-.1354.35204-.29788.37912v.70407c-.02708 0-.08124 0-.10832 0s-.08124 0-.10832 0c0-.24372 0-.48744 0-.70407-.16248-.05416-.29787-.21664-.29787-.37912 0-.18956.13539-.35204.29787-.4062 0-.59575 0-1.02903 0-1.02903h-.18956l-.48744 1.16443c-.1354.29788-.13539.62284-.05415.94779l.21663.78532c-.05416.08124-.08123.18956-.08123.29787 0 .08124.02707.16248.05415.24372l-.56867 1.08319.62283.37912.48744-1.00195v-.02708h.10832.10832v.02708l.48743 1.00195.62284-.37912z" fill="#26b759"/><path d="m6.07031 7.74543-1.08319.677c-.08124.05416-.10832.16248-.05416.2708.2708.40619.9478 1.57067.9478 2.70797 0 .9478-.24372 1.8414-.43328 2.3559-.08124.2438.02708.5146.27079.6229.2708.1354.62284-.0271.70408-.325.2708-.9207.62283-2.8434-.35204-5.0639-.1354-.29787-.08124-.62283.08124-.86655l.10832-.16248c.02708-.02708.02708-.08124.02708-.1354-.02708-.08124-.1354-.1354-.21664-.08124z" fill="#f24c64"/><path d="m4.41792 7.06825c.22433 0 .40619-.18186.40619-.40619 0-.22434-.18186-.4062-.40619-.4062-.22434 0-.4062.18186-.4062.4062 0 .22433.18186.40619.4062.40619z" fill="#ce2951"/><path d="m14.3837 5.71349c.704-1.78726 2.5725-1.84142 2.5725-1.84142h.9478c.0542 0 .1084.02708.1354.08124.1084.21664.325.35204.5958.35204s.4874-.1354.5958-.35204c.027-.05416.0812-.08124.1354-.08124h.8665c.0542 0 .0812.05416.0812.08124v1.38107c0 .05416-.0541.08124-.0812.08124h-.8665c-.0542 0-.1084-.02708-.1354-.08124-.1084-.21664-.325-.35204-.5958-.35204-.0271 0-.0271 0-.0542 0-.3249.02708-.5686.32496-.5686.64991v.24373 7.63652h-1.0562v-7.63652-.46036c-.6228-.8124-1.8955 0-2.4371.40619-.0542.05416-.1625 0-.1354-.10832z" fill="#f24c64"/><path d="m16.8746 14.7581v-3.2225h1.2186v3.2225c.1083.0542.1625.1354.1625.2708 0 .1625-.1354.2979-.2979.2979h-.9749c-.1624 0-.2978-.1354-.2978-.2979.027-.1083.1083-.2166.1895-.2708z" fill="#ce2951"/><g filter="url(#b)"><path d="m6.95264 37.3319 14.53736-2.3272.7522-6.2179.1505-3.509-.4137-7.1089-12.69437.3818-1.24122.7818-.62061 2.1272.39493 3.6908.15045 3.5272-.15045 2.8726-.2821 2.8908z" fill="#095411"/><path d="m21.4904 35.0057-.4889-.1091c0-.0182.677-2.7454.8651-4.218.3761-2.8727.3573-6.1089-.0188-10.1997v-.0727c-.0941-1.0727-.2257-2.2908.3385-3.309.3197-.5636.9591-1.0727 1.6549-.8727.7523.2182 1.072 1.1818 1.2789 1.8181.0188.0728.0376.1455.0752.2l-.489.1637c-.0188-.0546-.0376-.1273-.0752-.2-.1693-.5273-.4325-1.3454-.9403-1.4909-.395-.1091-.8275.2364-1.0532.6364-.4889.8908-.3761 1.9635-.2821 3.018v.0728c.395 4.1089.395 7.3815.0188 10.2905-.188 1.509-.8463 4.1635-.8839 4.2726z" fill="#fff"/><path d="m8.7207 18.5334.52658-.1455 14.14242-2.2363s1.2224-.3454 1.7866 2.0909l-14.5373 2.3272c-.0188 0-.3009-.9091-.3574-1.0182-.1504-.3273-.41371-.6182-.71461-.8363-.26329-.1637-.54538-.1637-.84629-.1818z" fill="#4fd875"/><path d="m25.1247 18.0593-14.5319 2.4075.0381.215 14.5319-2.4075z" fill="#4fd875"/><path d="m8.19374 53.7688c-.01881 0-.01881 0-.03762 0-.24448-.0182-.41374-.2182-.39493-.4546l2.63291-30.9261c.0188-.2364.2257-.4.4701-.3818.2445.0181.4138.2181.395.4545l-2.63291 30.9262c-.01881.2181-.20687.3818-.43255.3818z" fill="#095411"/><path d="m15.5097 60.9863c-.2445 0-.4326-.1818-.4326-.4182l-.5078-19.3266c0-.2363.1881-.4363.4326-.4363s.4513.1818.4513.4181l.5078 19.3266c0 .2364-.2069.4364-.4513.4364z" fill="#095411"/><path d="m30.0097 56.6057c-.2069 0-.395-.1455-.4326-.3455l-3.2159-17.3448c-.0376-.2364.1128-.4545.3573-.4909s.4702.1091.5078.3454l3.2159 17.3449c.0376.2363-.1128.4545-.3573.4909-.0376 0-.0564 0-.0752 0z" fill="#095411"/><path d="m10.6201 20.5689 3.0655 21.0356 14.8946-3.1272-3.4227-20.3084z" fill="#e8f4e8"/><path d="m10.6201 20.5697c-.1693-.7272-.5454-1.7817-1.33527-2.0181-.69584-.2-1.33526.3273-1.65496.8727-.5642 1.0182-.45136 2.2363-.33852 3.309v.0727c.39493 4.0726.39493 7.327.01881 10.1996-.18807 1.4727-.82749 4.0726-.84629 4.0908l.47016.2364c.0188-.1091.69584-2.7636.8839-4.2726.37613-2.909.37613-6.1816-.01881-10.2906v-.0727c-.09403-1.0545-.20687-2.1454.2821-3.0181.22568-.3999.65822-.7454 1.05316-.6363 1.12842.3273 1.14722 2.6363 1.27882 3.5999.2445 1.6545.489 3.3089.7335 4.9634.3009 2.0181.6018 4.0544.9027 6.0725.2633 1.7454.5266 3.4908.771 5.2362.1129.8182.1881 1.2909.3009 2.109l.0376.3818.4702.2c-.094-.6727-.1881-1.3454-.3009-2.0181-.2445-1.6181-.4702-3.2544-.7146-4.8725-.2821-1.9818-.583-3.9635-.8651-5.9635-.2633-1.7635-.5078-3.5089-.7711-5.2725-.1316-.9272-.2257-1.8727-.4137-2.7999.0752-.0364.0564-.0727.0564-.1091z" fill="#4fd875"/><path d="m12.3882 26.5877c.0377-.0364.0754-.0364.1131-.0364.0189 0 .0189.0182.0189.0182l-.0189.0365c-.0188 0-.0565 0-.1131-.0183 0 0 0 .0183 0 0z" fill="#f24c64"/><path d="m19.1965 27.1149c-.0564.0364-.1129.0727-.1505.0909-.1128.0727-.2256.1455-.3385.2182-.188.1273-.3761.2545-.583.3818-.0188.0182-.0376.0363-.0564.0545s-.0376.0364-.0564.0364-.0188-.0364-.0376-.0545c-.0376-.2-.0753-.3819-.1129-.5818 0-.0364-.0188-.0546-.0188-.091h-.0188v.091c.0564.2909.1129.5999.1693.8908.0376.1637.0752.3091.094.4727.0376.1637.0752.3273.094.4909.0188.0909.0377.1818.0565.2909 0 .0364-.0188.0546-.0565.0546-.0376 0-.0564.0182-.0376.0545.0188.1455.0564.3091.0753.4545v.1091c-.0189-.0727-.0377-.1272-.0565-.2-.0188-.109-.0376-.2-.0564-.309 0-.0182 0-.0364 0-.0546 0-.0363-.0188-.0545-.0564-.0363-.0564.0181-.0752 0-.094-.0728-.0188-.1454-.0565-.3091-.0753-.4545-.0564-.2545-.094-.5091-.1504-.7454-.0376-.2-.094-.4182-.1317-.6182-.0188-.1273-.0564-.2363-.0752-.3636 0-.0182-.0188-.0546-.0376-.0727h-.0188v.0727c.0376.2.0752.3818.1316.5818.0188.0545-.0188.1091-.094.1273-.1881.0363-.3761.0727-.5642.109-.0376 0-.0752.0182-.1316.0364 0 .0364 0 .0727.0188.1091.0564.2727.1128.5636.1692.8363.0376.1818.0753.3636.1129.5455.0188.0727 0 .0909-.0753.0909-.094.0181-.094.0181-.0752.1091.0188.0727.0188.1272.0188.1999.0188.0728.0376.1455.0564.2182.0189.0546.0189.1091.0377.1818h-.0188c-.0189-.0363-.0189-.0545-.0377-.0909-.0188-.1636-.0564-.3091-.0752-.4727-.0188-.1273-.0188-.1273-.1692-.1091-.0941.0182-.1129 0-.1129-.0727-.0376-.2-.0752-.4182-.1128-.6182-.0376-.1999-.0752-.3818-.1129-.5818-.0376-.1454-.0752-.2909-.094-.4363-.0376-.2182-.094-.4182-.0752-.6363.0188-.1637 0-.3091-.0188-.4728 0-.0363-.0188-.0545-.0564-.0363-.1693.0363-.3386.0727-.5078.0909-.0564.0182-.0752.0364-.0564.0909.0376.1091.094.2182.1316.3273.0188.0909.0376.1818.0564.2727.0564.3091.1317.6181.1881.9272.0564.2546.1128.5273.1504.7818.0189.1273.0565.2545.0941.3818.0188.0909-.0188.1091-.0941.1273-.094 0-.094 0-.0752.0909v.0727c-.0188-.0364-.0188-.0545-.0188-.0727-.0188-.0909-.0188-.0909-.1316-.0727-.0376 0-.0941.0363-.1317 0-.0188-.0182-.0376-.0364-.0376-.0546-.0564-.2727-.1128-.5636-.1692-.8363-.0753-.3455-.1317-.7091-.2069-1.0545-.0188-.1091-.0376-.2182-.0752-.3091-.0565-.1455-.0565-.2909-.0753-.4364 0-.0909-.0376-.109-.1316-.0909-.1505.0182-.3009.0546-.4514.0728-.0376 0-.0564 0-.094.0181-.0188 0-.0188.0182-.0188.0182l.0188.0182c.0188.0182.0376.0364.0376.0546.0376.1999.0752.3999.1129.5999.0376.2.094.4.1316.5818.0564.2727.1128.5455.1693.8182.0376.1818.0752.3636.1128.5454.0188.0546.0188.0909.0376.1455.0188.0363 0 .0727-.0376.0727s-.0752.0182-.1316.0182c.0188.2181.0752.4545.1128.6727-.0188 0-.0188 0-.0376 0-.0188-.1273-.0564-.2364-.0752-.3636-.0189-.091-.0377-.1637-.0377-.2546 0-.0363-.0188-.0727-.0752-.0545-.0188 0-.0376.0182-.0564.0182-.094.0181-.1317.0181-.1505-.091-.0188-.1454-.0564-.309-.0752-.4545-.0188-.1454-.0564-.2727-.094-.4181-.0564-.2909-.1129-.6-.1881-.8909-.0564-.2364-.094-.4727-.1504-.7091-.0376-.1454-.0564-.2909-.0941-.4545 0-.0364 0-.0546.0376-.0727.0565-.0182.0565-.0364.0565-.091-.0188-.1272-.0188-.1272-.1505-.0909-.1504.0182-.2821.0546-.4325.0728-.0753.0181-.0941 0-.1129-.0728-.0188-.109-.0376-.2363-.0564-.3454-.0188-.0545-.0376-.0727-.1128-.0545-.1505.0363-.3197.0727-.489.0909-.0376 0-.1128.0363-.1128-.0182-.0188-.0546.0564-.0546.1128-.0546.1693-.0363.3385-.0545.5078-.0909.0376 0 .0564-.0363.0564-.0727-.0188-.1273-.0564-.2545-.0752-.3818 0-.0364 0-.0727 0-.1091 0 0 .0188-.0182.0376-.0182.188-.0363.3573-.0727.5454-.0909.0564 0 .0752-.0363.0564-.0727-.0188-.0545-.0188-.0909-.0376-.1454-.0188-.0728 0-.1455.0376-.2-.0188-.0182-.0376-.0182-.0752-.0364.0564 0 .0752-.0364.1128 0h.0188c.2445-.0545.5078-.0909.7523-.1455.0564-.0181.1128-.0363.1504.0364.0188.0182.0752.0364.0941.0182.0376-.0182.0752-.0546.094-.0727.0188-.0364.0376-.0728.0752-.0728.094-.0181.1881-.0363.2821-.0545.1316-.0182.2633-.0545.3949-.0727.0377 0 .0753.0182.0941.0363.0376.0364.094.0728.1504.0364.0376-.0182.0752-.0364.0564-.0909-.0376-.1455-.0564-.2727-.0752-.4182-.0376-.2181-.0752-.4363-.1128-.6545-.0188-.0545-.0188-.1273-.0376-.1818-.0188-.0546 0-.0727.0564-.0909.1692-.0364.3573-.0727.5266-.1091.094-.0182.1504 0 .1692.1091.0376.1818.0752.3636.1129.5454.0188.0909.0376.1637.0564.2364 0 .0182.0188.0363.0376.0363.0752 0 .0752-.0181.094-.0545.0564.0364.1129.0182.1505 0 .0188 0 .0188-.0364.0188-.0364-.0188-.1091-.0376-.2-.0564-.309-.0377-.1819-.0753-.3455-.1129-.5273-.0188-.0545 0-.0727.0564-.0545.1505.0363.3009.0545.4514.0909.1128.0181.2257.0363.3573.0545.1317.0182.2821.0364.4138.0727l.1692.0546c.0564.0182.1317.0182.1881.0182.2069.0363.4137.0727.6206.109h.0188c.1505.0182.1505.0182.1693.1637 0 .0545 0 .1091.0188.1636.0188.0727.0376.1455.0752.2.0376.0364.0752.0909.1692.0727.1129-.0363.2257-.0363.3386-.0545.0564 0 .1128-.0364.1504-.0727.0188-.0364.0188-.0728.0188-.1091 0-.0909-.0188-.0909.0752-.1091.2069-.0364.395-.0727.6018-.1091.1129-.0182.2257-.0546.3386-.0727.1128-.0182.2068-.0364.3197-.0546.0564-.0182.1128-.0182.1692-.0363.0188 0 .0565 0 .0753.0181.0564.0364.1316.0728.188.1273.0188 0 .0188.0182.0376.0364.0376.2363.0753.4727.1317.709 0 .0546.0376.0728.094.0546.0376-.0182.094-.0182.1317-.0182.0564 0 .094-.0364.1316-.0909s.0564-.1091.1128-.1455c.0565-.0363.1129-.0363.1693-.0545.1128-.0182.2069-.0364.3197-.0545.0564-.0182.1128-.0546.1505-.0909.0564-.091.1128-.1273.2256-.1455.2633-.0364.5266-.0909.7899-.1454.0376 0 .0564-.0182.0752-.0182.0376 0 .0564.0182.0753.0363-.0189.0182-.0377.0364-.0565.0546-.094.0182-.2068.0363-.3009.0545-.1504.0364-.3197.0546-.4701.0909 0 0 0 0-.0188.0182l.0376.0364c.0188.0182.0564.0363.0752.0545s0 .0364.0188.0546c-.0188 0-.0376 0-.0564 0-.0564-.0182-.1317-.0546-.1881-.0728-.0564-.0181-.094-.0181-.1316.0364-.0188.0364-.0564.0727-.094.1091-.0189.0182-.0377.0182-.0565.0182-.1316.0181-.2445.0545-.3761.0727.0376.0727.0752.1091.1505.0909.0376 0 .0752-.0182.1128-.0182.0188 0 .0752.0182.0752.0364.0188.0363-.0188.0545-.0376.0545 0 0-.0188 0-.0188.0182.0564.0182.094.0545.1505.0727.1128.0364.2068.0727.3197.0909h.0752c.2633-.0545.5454-.0909.8087-.1454.0752-.0182.1692-.0364.2444-.0364.0188 0 .0753.0182.0753.0182.0188.0364-.0188.0545-.0564.0545-.3198.0546-.6207.1091-.9404.1819-.0188 0-.0376 0-.0564.0181-.0752.0182-.1504.0364-.2257-.0181-.1128-.0728-.2445-.0728-.3949-.0182-.0752.0182-.1693.0363-.2633.0545-.0376 0-.0752 0-.094-.0182-.0564-.0363-.1129-.0909-.1693-.109-.0376-.0182-.0752-.0182-.1316-.0182-.0376 0-.0941.0182-.1317.0182-.0752.0181-.0752.0181-.0752.0909.0376.1454.0564.2909.094.4545v.0545c0 .0364.0188.0728.0753.0546.0564-.0182.0752 0 .0752.0545.0376.2364.094.4545.1316.6909.0376.1636.0565.3091.0941.4727.0188.1091.0564.2364.0752.3455.0376.1818.0752.3454.094.5272.0188.1273.0564.2545.0752.3818.0377.2.0941.4.1317.6 0 .0364 0 .0545-.0376.0545-.0376.0182-.0941.0182-.1505.0364.0564.2364.0941.4909.1505.7272-.0188.0182-.0564.0364-.0564-.0181-.0188-.1455-.0565-.3091-.0753-.4546-.0188-.0727-.0376-.1636-.0564-.2363 0-.0182-.0188-.0182-.0376-.0182-.0376 0-.094.0182-.1316.0182-.0941-.0727-.0753-.1818-.0941-.2909-.0376-.2-.0752-.4-.1128-.6-.0564-.2909-.1129-.5636-.1693-.8545-.0188-.1273-.0564-.2727-.094-.4-.0188-.1091-.0376-.2-.0564-.3091-.0188-.0727-.0376-.1636-.0564-.2363 0-.0364 0-.0546 0-.1091-.0753.0182-.1693.0182-.2445.0363-.0752.0182-.1693.0364-.2445.0546-.0564 0-.0752.0363-.0376.0727.0564.0727.0564.1455.0752.2364.0376.2.0752.3999.1128.5818.0377.2.0753.3999.1129.5999.0376.2182.094.4364.1504.6364.0376.1818.0753.3818.1129.5636.0188.0545-.0376.1454-.0941.1454-.0376.0182-.0376.0364-.0376.0728.0376.2.0753.4181.1129.6181v.0546c0-.0182-.0188-.0182-.0188-.0364-.0377-.1454-.0565-.3091-.0753-.4545-.0188-.0727-.0188-.1455-.0376-.2182 0-.0182-.0376-.0182-.0564-.0182-.0564 0-.1128.0182-.1505-.0182-.0188-.0181-.0188-.0363-.0188-.0545-.0188-.1091-.0376-.2-.0564-.3091-.0376-.1454-.0564-.2909-.094-.4363-.0188-.0909-.0376-.1818-.0376-.2546-.0188-.1272-.0564-.2545-.0752-.3818-.0377-.1818-.0753-.3636-.1129-.5454-.0376-.1636-.0752-.3273-.094-.4909-.0188-.0727 0-.1636 0-.2545 0-.0182 0-.0364 0-.0728-.1505.0364-.3009.0546-.4514.091-.1316.0181-.1504.0181-.1692-.1273-.0188-.1273-.0564-.1455-.1881-.1273-.0376 0-.0752 0-.1128.0182-.1129.0182-.2069.0545-.3197.0545-.0753.0182-.0753.0728-.0941.1273 0 .0364 0 .0546.0188.0909 0 .0182.0188.0182.0376.0182h.1505c.0564 0 .0752.0182.094.0727.0376.0909.0753.1818.1317.2727s.0752.2.094.3091c.0564.2364.094.4545.1317.6909.0564.2909.1128.5636.1692.8545.0376.2.0752.3818.1128.5818.0189.0727-.0188.1091-.0752.1091-.0188 0-.0376.0182-.0564.0364-.0376 0-.0752-.0182-.094-.0182-.0564 0-.0941-.0182-.0941-.0727-.0564-.2909-.1316-.6-.188-.8909-.0752-.3636-.1505-.7454-.2257-1.1091-.0188-.1091-.0376-.2-.0752-.2909 0-.0363-.0188-.0363-.0564-.0182-.0941.0546-.2069.1091-.3009.1819-.1129.0727-.2445.1636-.3574.2363-.0376.0182-.0376.0546 0 .0727.0376.0182.0941.0364.1317.0546.0188 0 .0188.0182.0376.0363.0376.2182.0752.4364.1128.6546.0376.1818.0564.3818.0941.5636.0376.1454.0564.2909.094.4363.0188.0909.0376.1818.0564.2728 0 .0363-.0188.0727-.0564.0727-.1128.0182-.2257.0363-.3385.0545-.0752.0182-.0752 0-.0941-.0727-.0376-.2364-.094-.4545-.1316-.6909-.0376-.2-.0752-.4-.1316-.5818-.0189-.1273-.0565-.2363-.0753-.3636 0-.0182 0-.0364.0188-.0364.0376-.0909.0941-.2.1317-.2909.0376-.0182.0376-.0363.0188-.0727.0188 0 .0188.0182 0 0zm-1.8807-3.5817v.0364c.0189.1454.0565.2727.0753.4181.0188.1273.0564.2364.0752.3637 0 .0181-.0188.0545-.0376.0545-.0564.0182-.0564.0546-.0376.0909 0 .0364.0188.0727.0188.1273.0188.1273.0564.2545.0752.3818.0376.1818.0752.3636.094.5454 0 .0182.0376.0364.0565.0364.0376 0 .094-.0182.1316-.0182.0188 0 .0376 0 .0564.0182-.0188.0182-.0188.0363-.0376.0545s-.0564 0-.0752.0182c-.0941.0182-.0941.0182-.0752.1091.0188.1091.0376.2364.0752.3454.0188.1273.0564.2546.094.3818.0376.1819.0564.3637.094.5273.0377.2364.0941.4545.1505.6909.0188.0545.0376.0727.0752.0363.1317-.0727.2445-.1636.3761-.2363.1129-.0727.2257-.1455.3386-.2182.094-.0545.1692-.1273.2633-.1818.1692-.1091.3573-.2182.5265-.3454.0941-.0546.1693-.1273.2633-.1819.0752-.0363.0941-.0909.0752-.1636-.0564-.2727-.1128-.5454-.1692-.8181-.0188-.1091-.0376-.2182-.0752-.3455-.1317.0182-.2633.0546-.395.0727-.1504.0364-.3009.0546-.4701.091-.0188 0-.0376-.0182-.0564-.0182.0188-.0182.0188-.0364.0376-.0364.0376-.0182.0752-.0182.094-.0182.1693-.0363.3385-.0545.5078-.0909.0752-.0182.1504-.0363.2256-.0363-.0376-.2-.0752-.4-.1128-.6 0-.0182-.0188-.0364-.0564-.0546-.0752-.0363-.094-.0909-.1129-.1454-.0188-.0364-.0188-.0909-.0188-.1455-.0188-.109-.0376-.2181-.0564-.309 0-.0182-.0188-.0364-.0376-.0546-.1692-.0363-.3197-.0545-.489-.0909-.1692-.0364-.3385-.0545-.5077-.0909-.1693-.0364-.3574-.0545-.5266-.0909-.0752-.0182-.1317-.0182-.2069-.0364-.0564-.0363-.1316-.0545-.2257-.0727zm3.5356.5636c.0189.0182.0565.0546.0753.0728-.0376.0181-.0564.0363-.0941.0363-.1316.0364-.2632.0727-.3761.0909-.0188 0-.0188.0182-.0188.0364.0188.0909.0188.1818.0376.2727.0188.1273.0564.2364.0752.3636 0 .0364.0189.0546.0565.0364.0564-.0182.1316-.0182.188-.0364.0188 0 .0376 0 .0564.0182 0 .0182.0001.0364-.0188.0545-.0188.0182-.0376.0182-.0564.0182-.0752 0-.1316.0182-.2068.0182.0188.0727.0188.1273.0376.2.0376.1636.0752.3454.1128.5091 0 .0545.0188.0545.0564.0363.0752-.0181.1317-.0363.2069-.0363.0564-.0182.1128-.0182.1504-.0364.0189 0 .0377.0182.0377.0364s-.0188.0363-.0377.0363c-.1128.0182-.2256.0364-.3385.0728-.0188 0-.0376 0-.0376.0181 0 0-.0188.0182-.0188.0364 0 0 .0188.0182.0376.0182.1881-.0364.3762-.0727.5454-.1091.0188 0 .0188-.0182.0188-.0364 0-.0181-.0188-.0181-.0188-.0363-.0188-.0182-.0376-.0364-.0376-.0546 0-.0181.0188-.0363.0376-.0363.1881-.0364.3573-.0728.5454-.1091.0188 0 .0564.0182.0752.0363-.0188.0182-.0376.0364-.0564.0364-.094.0182-.2069.0364-.3197.0546-.0376 0-.0752.0181-.1128.0181.0188.0546.0376.0728.094.0546.1316-.0182.2445-.0546.3761-.0727.0564-.0182.1129-.0364.2069-.0546-.0188-.0364-.0376-.0545-.0564-.0727 0-.0182-.0188-.0182-.0376-.0182 0-.0182.0188-.0182.0188-.0364.0188-.0181.0188-.0545.0188-.0727 0-.0545-.0188-.1091-.0376-.1636-.0189-.0909-.0377-.1636-.0377-.2546 0-.0363-.0188-.0727-.0752-.0545-.0188 0-.0376 0-.0564-.0182.0188-.0182.0376-.0182.0564-.0363.0188-.0182.0376-.0182.0376-.0364 0-.0364-.0188-.0909-.0188-.1273-.0752.0182-.1504.0364-.2257.0364-.0188 0-.0188.0182-.0188.0182s-.0188.0182-.0188.0363c0-.0181-.0188-.0181-.0188-.0363s-.0188-.0546-.0188-.0727c0-.0182.0188-.0182.0376-.0364.0753 0 .1693-.0182.2445-.0182 0-.0364 0-.0727-.0188-.1091 0-.0363 0-.0727-.0564-.0727 0 0-.0188-.0364 0-.0364.0376-.0181.0376-.0727.0376-.0909-.0188-.1091-.0376-.2181-.0752-.3272-.0188-.0546-.0188-.0909-.0376-.1455-.0376.0182-.0565.0182-.0941.0364-.0752.0182-.1692.0363-.2445.0545-.1128.0182-.2256.0546-.3385.0727-.0564.0182-.0564-.0181-.0564-.0545 0-.0182 0-.0182 0-.0364-.0188.0728-.1128.0909-.1881.1091zm-6.6762 2.2c.0188.0727.0188.1272.0376.1818.0376.1818.0752.3818.1316.5636.0188.0727.0753.1091.1317.0909.2257-.0546.4701-.0909.6958-.1455.0376 0 .0564-.0363.0564-.0727-.0188-.1091-.0376-.2182-.0564-.3091-.0188-.1454-.0564-.2727-.094-.4181 0-.0364-.0376-.0546-.0752-.0364-.0188 0-.0377-.0182-.0565-.0182.0188-.0182.0377-.0363.0377-.0363.0564-.0182.0564-.0364.0564-.0909-.0188-.091-.0376-.1819-.0564-.2728-.0377-.1454-.0565-.2909-.0941-.4363 0-.0364-.0188-.0546-.0564-.0364-.094.0182-.1881.0364-.2821.0546-.1128.0181-.2257.0545-.3385.0727-.094.0182-.1317.0545-.1129.1454.0189.0728.0377.1637.0565.2364s0 .0909-.0565.1273c-.0188.0181-.0188.0363-.0188.0545.0188.0727.0377.1636.0377.2364 0 .0545.0376.0727.094.0545.0752-.0182.1692-.0364.2445-.0545.0376 0 .0752 0 .0752.0363 0 .0182-.0376.0364-.0564.0364-.0752 0-.1881.0182-.3009.0364zm3.0466 1.6363c.094-.0182.1693-.0364.2633-.0546.0376 0 .0376-.0182.0376-.0545-.0188-.1091-.0376-.2182-.0564-.3273-.0376-.1636-.0564-.3091-.094-.4727-.0565-.2727-.1129-.5273-.1505-.8-.0188-.1454-.0564-.2727-.094-.4181 0-.0364-.0188-.0546-.0564-.0546-.1693.0364-.3386.0727-.5078.0909-.0564 0-.0564.0364-.0564.0727.0188.1273.0376.2546.0752.4.0376.2.0752.4.1128.6.0376.1636.0565.3091.0941.4727.0376.1818.0752.3818.1128.5636 0 .0364.0376.0546.0752.0546.0941-.0364.1693-.0546.2445-.0727zm-1.5797-1.0182c.2068-.0364.4137-.0727.6206-.1091.0376 0 .0376-.0363.0376-.0727-.0376-.2364-.094-.4727-.1316-.7272-.0189-.0728-.0189-.0728-.0941-.0546-.1316.0182-.2633.0546-.3949.0727-.0188 0-.0376-.0181-.0564-.0181.0188-.0182.0376-.0364.0564-.0364h.0376c.1128-.0182.2445-.0364.3573-.0727.0376 0 .0564-.0182.0564-.0728-.0188-.1272-.0376-.2363-.0752-.3636-.0188-.1273-.0564-.2545-.0752-.3818 0-.0182-.0376-.0364-.0376-.0364-.1693.0182-.3573.0546-.5266.091-.0564.0181-.094.0545-.0752.109 0 .0728.0188.1273.0376.2.0376.1818.0752.3637.1128.5637.0376.1999.0752.4181.1129.6181-.0188.0727 0 .1818.0376.2909zm1.166-1.1636c.094-.0182.1692-.0182.2633-.0363.0188 0 .0376-.0364.0376-.0364-.0376-.1455-.0564-.3091-.0941-.4545-.0376-.1637-.0564-.3091-.094-.4727-.0188-.091 0-.2182-.1316-.2546 0 0-.0188-.0182-.0188-.0363-.0377-.1819-.0565-.3637-.0941-.5455-.0188-.0909-.0376-.1818-.0564-.2727 0-.0182-.0376-.0364-.0376-.0364-.094.0182-.1881.0364-.2821.0364-.1316.0182-.1316.0364-.1128.1636 0 .0364 0 .0728.0188.0909.0564.2909.1128.6.1692.8909 0 .0364.0188.0909.0188.1455-.0188.0727-.0188.1272 0 .2.0564.2181.0753.4545.1129.6727 0 .0363.0188.0545.0564.0363.0752-.0727.1692-.0909.2445-.0909zm-.6018 4.0362c-.0376-.2181-.0753-.4181-.1129-.6363-.0376-.2-.0752-.4-.1128-.6-.0188-.1273-.0564-.2727-.0752-.4-.0377-.1636-.0753-.3454-.1129-.509-.0376-.1273-.0752-.2728-.1316-.4 0-.0182-.0188-.0182-.0376-.0182-.0753.0182-.1505.0182-.2257.0364-.0188 0-.0376.0363-.0376.0363.0188.1091.0188.2182.0376.3091.0376.2363.094.4727.1504.7272.0377.2182.0941.4364.1317.6546.0376.1636.0752.3272.1128.4909.0188.0909.0376.1818.0564.2727.0189.0727.0189.0727.1129.0545.0188 0 .0564-.0363.0564-.0363 0-.0546-.0188-.091-.0564-.1455-.0188-.0364-.0376-.0545-.0188-.0909.0188-.0182.0564-.0182.0752-.0182.0376.0182.0376.0546.0188.0909-.0188.0364 0 .0909 0 .1455.0564.0363.1128.0363.1693.0363-.0188 0-.0188 0 0 0zm-1.4669-.0545c.0188.1091.0564.2.0752.2909 0 .0182.0188.0364.0376.0182.0376 0 .0752-.0182.1128-.0364 0 0-.0188-.0545-.0188-.0727v-.0182c-.0188-.0182-.0188-.0364-.0376-.0545-.0564-.0182-.0376-.0546-.0376-.0728.0188-.0545.0752-.0363.094-.0181.0377 0 .0565.0545.0377.0727-.0377.0545-.0188.0909-.0188.1454 0 .0364.0188.0546.0564.0364.0376 0 .0376-.0182.0376-.0546-.0188-.1454-.0376-.2909-.0752-.4363-.0377-.2-.0753-.4-.1317-.6-.0376-.2182-.0752-.4363-.1316-.6545-.0188-.1455-.0565-.2909-.0941-.4363-.0376-.1455-.0564-.291-.094-.4364 0-.0182-.0188-.0364-.0376-.0364-.0752 0-.1505.0182-.2257.0182-.0376 0-.0564.0182-.0564.0727.0188.1091.0376.2364.0564.3455.0564.2909.1129.5818.1881.8727.0376.2.0752.4.1128.6.094.1636.1317.309.1505.4545zm7.767-3.9817c-.0188 0-.0188 0-.0376 0-.0752.0909-.1316.2-.2069.2909v.0364c0 .0363.0188.0909.0376.1272.0377.1637.0753.3455.0941.5091.0376.1818.0752.3818.1128.5636.0564.2546.094.5091.1505.7636.0376.1455.0564.2909.094.4182 0 .0182.0188.0364.0376.0364.0376 0 .0752-.0182.0752-.0364 0-.0545.0376-.1091-.0376-.1636-.0188-.0182 0-.0546 0-.0727.0188 0 .0564-.0182.0752 0 .0189 0 .0189.0363.0189.0727v.1636c.1316 0 .1316 0 .1128-.0909-.0376-.1818-.0752-.3636-.1128-.5454-.0189-.1273-.0565-.2546-.0753-.3818-.0376-.2-.0752-.3818-.1128-.5818-.0564-.2364-.094-.4909-.1505-.7273-.0188-.1272-.0376-.2545-.0752-.3818zm-5.4915 3.6362c-.0188-.0727-.0188-.1272-.0376-.1818-.0188-.1272-.0376-.2545-.0752-.3999-.0376-.2-.0752-.4-.1128-.5818-.0376-.2182-.0753-.4546-.1317-.6727-.0188-.1273-.0564-.2546-.094-.3819-.0188-.1272-.0188-.1272-.1505-.109-.0376 0-.0376.0181-.0376.0545v.1818c0 .1636 0 .3091.0188.4727.0376.2364.0941.4727.1505.7091.0376.1636.0752.3454.094.5091.0376.2.0752.3999.1317.6181 0 .0364.0376.0546.0752.0364.0188 0 .0564-.0182.094-.0364-.0188-.0545-.0564-.0909-.0752-.1454 0-.0182 0-.0546 0-.0728.0376-.0181.0752-.0181.1504 0zm4.3631-3.0544c.0188.0909.0376.1818.0564.2727.0753.3273.1317.6546.2069 1 .0564.2909.1129.5818.1693.8909.0188.0545.0188.1091.0376.1636 0 .0182.0376.0364.0564.0364.0376 0 .0752-.0182.0752-.0364.0188-.0364-.0188-.1091-.0564-.1454-.0188-.0182-.0376-.0546-.0376-.0728.0188-.0182.0376-.0545.0752-.0545.0188 0 .0564.0182.0753.0363 0 0 .0188.0364 0 .0364-.0565.0364-.0377.0909-.0189.1455 0 .0181.0189.0363.0377.0363.0376 0 .0564-.0182.0376-.0545-.0188-.0909-.0376-.2-.0564-.3091-.0377-.2182-.0941-.4182-.1317-.6363-.0188-.1091-.0376-.2182-.0752-.3455-.0188-.1091-.0376-.2182-.0752-.3272-.0565-.2182-.0941-.4364-.1505-.6546 0-.0363-.0188-.0363-.0564-.0363-.0376.0181-.094.0363-.1693.0545zm-1.9746 2.5454s.0188 0 0 0c.0188.0727.0376.1272.0564.2.0188.0363.0376.0727.094.0545.0752-.0182.1317-.0363.2069-.0363.0564-.0182.0564-.0364.0564-.091-.0188-.0727-.0188-.1272-.0376-.1999-.0376-.1637-.0564-.3273-.094-.4728-.0189-.0545-.0189-.109-.0189-.1636-.0188-.0727-.0188-.1454-.0376-.2182-.0188-.1091-.0564-.2363-.0752-.3454s-.0564-.2182-.0752-.3273c0-.0181-.0188-.0363-.0188-.0363-.0188.0182-.0376.0182-.0376.0363-.0188.0182-.0188.0364-.0188.0546-.0377.1272-.0941.2363-.1317.3636 0 .0182-.0188.0182-.0188.0364-.0188.0181-.0376.0545-.0188.0727.0188.1454.0564.2727.0752.4182.0188.2181.0564.4363.0941.6545zm-2.0311-3.2363h.0564.0564c.0752-.0182.0752-.0182.0752-.0909-.0376-.1636-.0752-.3091-.094-.4727-.0188-.1091-.0376-.2363-.0564-.3454-.0188-.0728-.0376-.1637-.0564-.2364 0-.0363-.0188-.0545-.0753-.0545-.094.0182-.188.0363-.2821.0545-.0188 0-.0376.0364-.0376.0364.0188.0909.0376.1818.0564.2727.0377.1818.0753.3636.1129.5272.0188.091.0376.2.0564.2909 0 .0364.0188.0546.0564.0364.0376 0 .0941-.0182.1317-.0182zm3.4039 2.9999c0-.0182 0-.0363 0-.0363-.0188-.1091-.0376-.2-.0564-.3091-.0376-.2-.0752-.4-.1128-.6182s-.0941-.4363-.1317-.6545c-.0188-.1091-.0376-.2182-.0752-.3273 0-.0181-.0376-.0363-.0564-.0363-.0376 0-.0753 0-.1129-.0182-.0376 0-.0564 0-.0564.0545.0376.2182.0941.4182.1317.6364.0188.0727.0376.1272.0376.2.0188.1272.0376.2727.0752.4.0376.1454.0564.2909.094.4363.0376.1636.0753.3273.1129.4909 0 .0182.0376.0364.0564.0364s.0376-.0182.0376-.0364c0-.0364 0-.0909-.0564-.1273-.0376-.0182-.0376-.0727 0-.0909.0376 0 .0752.0182.1128 0zm-3.1783-1.7817c.0377-.0182.0753-.0182.1317-.0182s.0752-.0364.0564-.0909c-.0188-.0909-.0376-.2-.0752-.2909-.0188-.1091-.0376-.2364-.0752-.3455-.0189-.1272-.0565-.2545-.0753-.3818 0-.0181-.0376-.0545-.0564-.0545-.094.0182-.1881.0364-.3009.0545-.0188 0-.0376.0364-.0376.0546.0188.1091.0376.2.0564.3091.0564.2545.094.509.1505.7636 0 .0363.0376.0545.0752.0363.0752-.0182.1128-.0182.1504-.0363zm2.7834-2.3999c-.1128.0181-.2257.0181-.3197.0363-.1129.0182-.2257.0546-.3573.0727-.0188 0-.0377.0182-.0377.0364 0 .0364 0 .0545.0189.0909.0376.1455.0564.2727.094.4182.0188.0545.0376.0727.0752.0545.1505-.0363.3009-.0545.4514-.0909.0564-.0182.1128-.0182.188-.0364-.0376-.1999-.0752-.3999-.1128-.5817zm.2445 1.2363c-.0188-.0546-.0188-.0909-.0188-.1455-.0376-.1454-.0565-.2727-.0753-.4181 0-.0364-.0188-.0364-.0564-.0364-.2068.0364-.4137.0909-.6206.1273-.0376 0-.0376.0181-.0376.0545.0376.1636.0564.3273.094.4909 0 .0182.0188.0182.0188.0364.0376-.0182.0565-.0182.0753-.0182.1128-.0182.2256-.0364.3385-.0364.094-.0363.1692-.0909.2821-.0545zm-5.3975.7999c.0188.0909.0376.1819.0565.2728 0 .0363.0188.0545.0752.0363.0376-.0182.0752-.0182.1128 0 .0376 0 .0564 0 .0564-.0363 0-.0546-.0188-.1273-.0188-.1819-.0188-.1454-.0564-.2908-.0752-.4363-.0188-.1273-.0564-.2727-.0752-.4-.0376-.1454-.0564-.2909-.0941-.4363-.0188-.0546-.0188-.0728-.0752-.0364-.0376.0182-.0564.0182-.094.0182-.0564 0-.0752.0182-.0564.0727v.0364c.0188.1272.0564.2727.0752.4.0188.2545.0564.4727.1128.6908zm2.9338 2.709c-.1128-.6727-.2633-1.3454-.4137-2.0181-.0188 0-.0564 0-.0752 0-.0753 0-.0941.0182-.0753.0909.0565.2364.0941.4546.1505.6909.0376.2.0752.3818.1316.5818.0376.1636.0565.3091.0941.4727.0188.0728.0376.1273.0564.1818.0376-.0181.0752 0 .1316 0zm-4.3442-2.8362c-.0753.0182-.1505.0363-.2257.0363-.0376 0-.0564.0182-.0376.0546.0188.1091.0564.2363.0752.3454 0 .0364.0188.0546.0564.0364.1505-.0364.3009-.0546.4514-.0909.0188 0 .0376-.0364.0376-.0364-.0188-.1272-.0376-.2363-.0753-.3636 0-.0182-.0376-.0364-.0564-.0364-.0564.0182-.1316.0364-.2256.0546zm-.0753-.4364c-.0752.0182-.1504.0364-.2257.0546-.0188 0-.0376.0363-.0376.0545.0188.0909.0377.1818.0565.2727 0 .0182.0376.0364.0564.0364.1504-.0182.3009-.0545.4513-.0909.0376 0 .0564-.0182.0564-.0727-.0188-.0909-.0376-.1637-.0564-.2546 0-.0545-.0376-.0545-.0752-.0363-.0752.0181-.1504.0181-.2257.0363zm2.3132-.8363v.0364c.0376.1818.0752.3818.1129.5636.0376.1636.0376.1454.188.1272.0564 0 .0564-.0363.0564-.0727-.0188-.1454-.0564-.2727-.0752-.4182-.0188-.0727-.0376-.1636-.0376-.2363-.094.0182-.1693 0-.2445 0zm.2257 1.1818c.0188.0909.0376.2.0564.2909 0 .0181.0188.0545.0564.0363s.0941-.0182.1317-.0182c.0564 0 .0564-.0181.0564-.0545-.0188-.0727-.0376-.1454-.0376-.2182-.0188-.1272-.0564-.2727-.0752-.4 0-.0363-.0188-.0363-.0565-.0363-.0376.0182-.0752.0182-.1128.0182-.0564 0-.0564.0181-.0564.0727 0 .1091.0188.2.0376.3091zm5.9428-.6909h.0376c.0188-.0364.0564-.0546.0564-.0909-.0188-.1273-.0376-.2727-.0752-.4 0-.0182-.0188-.0364-.0376-.0546-.0188-.0727-.0188-.1636-.0188-.2363 0-.0182-.0376-.0364-.0564-.0182-.0188 0-.0752 0-.0564.0546.0188.0545.0188.1272.094.1636.0376.0182.0376.0363 0 .0545-.0564 0-.0376.0364-.0376.0728.0188.0727.0188.1272.0376.1999.0188.0728.0376.1637.0564.2546zm-.1128-1.1272c-.0376 0-.0564-.0182-.0752-.0182 0-.0182.0188-.0364.0188-.0546s.0188-.0545.0188-.0727c-.0188-.0909-.0376-.1818-.0565-.2727-.0188-.0727-.0564-.0909-.1316-.0909.0188.0545.0188.1091.0376.1636.0376.1273.0188.2727.094.3818v.0182c0 .0545 0 .1091.0189.1636.0188.0364.0564.0182.0752.0182s.0376-.0182.0376-.0364c0-.0545-.0188-.1272-.0376-.1999zm.9779.2909c-.0376-.1091-.2821-.1455-.3573-.0546.094.1273.2257.0909.3573.0546zm-1.6926 1.3999c0-.0182 0-.0364.0188-.0545-.0752.0181-.094.0363-.0564.1272.0564-.0182.1129-.0182.1881-.0363.0188 0 .0376-.0182.0376-.0364-.0188-.0545 0-.1091-.0564-.1273-.0376.0364-.0564.0546-.0941.0728.0377 0 .0753.0181.0941.0181v.0182c-.0376 0-.0752 0-.1317.0182zm-6.0556.8545c0 .0546 0 .0909.0188.1273 0 .0182.0188.0363.0188.0545.0188-.0182.0564-.0182.0564-.0363.0188-.0364.0564-.0546.094-.0364.0188 0 .0376.0182.0376.0182s0 0 .0189-.0182c-.0189-.0182-.0189-.0545-.0377-.0727 0 0-.0376.0182-.0564.0363-.0376.0182-.0564.0182-.1128.0182.0188-.0363.0564-.0909-.0376-.0909zm4.8896-.5272c0-.0182 0-.0364 0-.0364-.0188 0-.0376 0-.0564 0-.0188.0182-.0188.0364-.0188.0545 0 .0364.0188.0728.0376.0728.0564.0181.1129.0363.1693 0-.0188-.0728-.0752-.0182-.1317-.0364.0376-.0182.0565-.0364.0941-.0545-.0565 0-.0753 0-.0941 0zm-3.2159 2.9635c-.0752.0545-.094.1091-.0564.1636 0 .0182.0376.0182.0376.0182.0188 0 .0376-.0182.0376-.0364 0-.0545 0-.0909-.0188-.1454zm3.7989-.6727c-.0188-.0182-.0188-.0364-.0376-.0546-.0188.0182-.0376.0364-.0376.0546s0 .0545.0188.0909c0 .0182.0376.0182.0376.0182.0188 0 .0188-.0182.0376-.0364 0-.0182-.0188-.0363-.0188-.0727zm.5266-4.7817c0 .0182 0 .0182 0 0 .0752 0 .1693-.0181.2445-.0363v-.0182c-.094.0364-.1693.0545-.2445.0545zm-6.9584 3.2181c-.0376-.0182-.0564-.0182-.0752-.0182s-.0376.0364-.0564.0546c.0188.0182.0376.0363.0564.0182.0188 0 .0376-.0364.0752-.0546zm7.9175-1.3818c0-.0181 0-.0181 0 0-.0376 0-.0564.0182-.0752.0364 0 .0182 0 .0364.0188.0545.0188-.0181.0376-.0181.0376-.0363.0188-.0182.0188-.0364.0188-.0546zm-3.1406 1.7636h.0376c-.0564-.0727.0376-.0909.0376-.1454-.0376.0181-.0752.0181-.0752.0363-.0188.0364 0 .0727 0 .1091zm-2.6141-.7818c-.0564-.0363-.1317-.0182-.1505.0546.0564-.0364.0941-.0364.1505-.0546zm3.5544-.6-.0188.0182c.0188.0182.0188.0364.0376.0364s.0376-.0182.0564-.0364c-.0188 0-.0564-.0182-.0752-.0182zm.0376.2c.0376-.0181.0752-.0181.1128-.0363 0-.0182 0-.0182-.0188-.0364-.0376.0182-.0564.0182-.094.0364zm2.6893-1.8181v-.0182c-.0188 0-.0376-.0181-.0564-.0181s-.0376.0363-.0376.0363 0 .0182.0188.0182.0376-.0182.0752-.0182zm-4.9837 2.4545c-.0564.0363-.0188.0727 0 .1091h.0188c-.0188-.0364-.0188-.0728-.0188-.1091zm-3.3287.2545c0-.0182 0-.0182 0-.0363-.0188 0-.0564-.0182-.0752-.0182 0 0 0 .0182-.0188.0363.0376.0182.0752.0182.094.0182z" fill="#ce2951"/><g fill="#f24c64"><path d="m25.1009 24.2429c-.4138.0727-.8463.1636-1.2601.2364-.0188 0-.0188 0-.0376 0v-.0182c.0564-.0182.1129-.0364.1693-.0364.2633-.0545.5266-.0909.771-.1454.0941-.0182.2069-.0546.3009-.0728.0189 0 .0377.0182.0565.0182s0 0 0 .0182z"/><path d="m22.9946 29.4961c-.0376-.0363-.0752-.0727-.0376-.109s.1127-.0545.1503-.0182c.0376.0364.0564.0727.0188.1091.0564.0545.0752.109.0376.1635-.0376.0363-.1127.0545-.1503.0363-.0376-.0545-.0564-.109-.0188-.1817zm.0188.0727c.0376.0182.0563.0363.0751.0363.0188-.0181.0376-.0363.0376-.0545 0-.0181-.0376-.0363-.0564-.0545-.0187.0364-.0187.0545-.0563.0727zm.0939-.1454c-.0376-.0181-.0563-.0181-.0563-.0181-.0188 0-.0188.0181-.0376.0363.0188 0 .0376.0182.0563.0182 0 0 .0188-.0182.0376-.0364z"/><path d="m21.039 29.8052c-.0188 0-.0376.0182-.0564 0-.0751-.0181-.0939-.0181-.0751.0727.0376-.0363.0939-.0363.1315 0 .0376.0364.0564.0909.0376.1272-.0188.0364-.0564.0545-.094.0727-.0751 0-.1127-.0545-.1315-.1635-.0188-.0909.0188-.1454.0752-.1454.0376-.0363.0751-.0182.1127.0363zm-.1503.1636c.0376.0182.0564.0363.0939.0545 0-.0182.0188-.0545.0188-.0727s-.0375-.0363-.0563-.0545c0 .0182-.0188.0363-.0564.0727z"/><path d="m19.7227 30.1876c.0375 0 .0563.0182.0751.0182h.0752c0-.0364.0188-.0545 0-.0909 0-.0182-.0376-.0182-.0752-.0182-.0188 0-.0376.0182-.0751.0546 0-.0727 0-.1272 0-.1999.0563-.0182.1127-.0182.1691-.0364 0 .0182 0 .0364.0188.0546-.0376.0363-.1128-.0001-.1128.0726.1128-.0181.1504.0182.1692.0909.0188.0545-.0188.109-.0752.1272-.094.0181-.1316 0-.1691-.0727z"/><path d="m16.2057 30.8968c.0564-.0182.0939-.0182.1315-.0182 0 .0182 0 .0364.0188.0545-.0752.0182-.1503.0182-.2255.0364.0188-.0545.0376-.0909.0752-.1454.0188-.0363.0376-.0545.0564-.0908 0-.0182-.0188-.0364-.0188-.0727-.0188.0182-.0376.0181-.0564.0363s-.0376.0182-.0564.0364c-.0188-.0727.0188-.0909.0564-.1091.0376-.0181.0939-.0181.1315.0182s.0376.0727.0188.109c-.0751.0545-.0939.0909-.1315.1454z"/><path d="m18.4248 30.5507c-.0188-.0182-.0376-.0363-.0564-.0363v-.0182c-.0376 0-.0752.0182-.1128.0182-.0376-.0727.0564-.2908.1316-.2908.0188.0545.0188.0909.0376.1454 0 .0182 0 .0727.0376.0727 0 0 .0188.0363 0 .0363 0 .0182-.0188.0364-.0376.0545zm-.1504-.109c.0376 0 .0564-.0182.0752-.0182 0-.0363-.0188-.0545-.0188-.109-.0188.0545-.0376.0908-.0564.1272z"/><path d="m17.0708 30.5146c.0188-.0182.0564-.0545.0752-.0727.0376 0 .0752 0 .1128.0182.0187.0181.0187.0545.0187.0726.0188.0546.0564.0909.0564.1272 0 .0364-.0376.0727-.0751.0727-.0376.0182-.0752-.0182-.1128-.0182 0 0 0-.0181-.0188-.0363.0188 0 .0376-.0182.0564-.0182s.0564.0182.0752.0182c0-.0182.0187-.0545.0187-.0545-.0188-.0182-.0375-.0363-.0751-.0545 0 0 .0188-.0182.0188-.0364 0-.0181 0-.0363 0-.0545-.0188 0-.0376.0182-.0564.0182s-.0376.0182-.0564.0182c-.0188.0181-.0188 0-.0376 0z"/><path d="m22.2046 29.8413s-.0188 0-.0564 0c.0188-.0908.0376-.1817.0376-.2725-.0376 0-.0752.0181-.1128.0181 0-.0181 0-.0363-.0188-.0545.0752-.0181.1316-.0181.2067-.0363v.0545c-.0188.0909-.0375.1817-.0563.2907z"/><path d="m14.9834 30.9681c0-.0545.0564-.1453.1128-.1453.0188.109.0376.1998.0564.3088-.0188 0-.0376.0182-.0564.0182-.0188-.0727-.0376-.1453-.0376-.218-.0188.0181-.0376.0181-.0752.0363z"/><path d="m23.4088 24.5508c-.0188-.0363-.0188-.0545.0188-.0727.0752-.0181.1504-.0181.2256-.0181.0188 0 .0376.0181.0563.0181-.0187.0182-.0375.0364-.0563.0364-.0752 0-.1504.0181-.2444.0363z"/><path d="m19.7978 29.9147c-.0188-.1272-.0563-.2544-.0751-.3634h.0188c.0187.109.0375.2362.0563.3634z"/><path d="m16.1685 30.4238c.0188.0546.0376.0909.0564.1455-.0376 0-.0564-.0364-.0564-.1455z"/><path d="m25.2705 24.152c.0377 0 .0566-.0182.0943-.0182 0 0 .0189 0 .0377.0182 0 .0183-.0188.0183-.0188.0183-.0378 0-.0566 0-.0943.0182-.0189-.0182-.0189-.0182-.0189-.0365z"/><path d="m18.4059 25.4792c-.0188.0182-.0376.0364-.0564.0364-.0377.0182-.0565.0182-.0941.0182-.0188 0-.0376-.0182-.0376-.0182.0188-.0182.0188-.0364.0376-.0364.0564-.0181.1129-.0181.1505-.0363-.0188.0182 0 .0363 0 .0363z"/><path d="m21.6223 24.5703c.0564.0182.1128.0727.094.1273-.0188.0181-.0752.0363-.094.0363-.0376 0-.0188-.0363 0-.0545 0-.0364 0-.0727 0-.1091z"/><path d="m21.6602 24.9879c.0376 0 .0564-.0182.0752-.0182.0376.0182.0753.0364.1317.0546-.0376.0182-.0564.0364-.0752.0364-.0565.0182-.0941-.0182-.1317-.0728z"/><path d="m21.284 24.9687c-.0188 0-.0188 0-.0376 0-.0189-.0182-.0377-.0182-.0565-.0364.0188-.0181.0376-.0181.0565-.0363h.0376c.0188 0 .0752-.0182.0564.0363 0 0-.0188.0182-.0564.0364 0 0 .0188 0 0 0z"/><path d="m21.6218 24.8426c0 .0182.0188.0182.0188.0365v.0547c-.0188-.0183-.0377-.0183-.0565-.0365 0 0-.0189-.0365 0-.0365 0-.0182.0188-.0364.0188-.0546 0 0 .0189 0 .0189.0364 0-.0182 0-.0182 0 0z"/><path d="m19.6852 28.8788c-.0377.0364-.0565.0546-.0754.0911-.0189-.0182-.0566-.0365-.0566-.0547s.0189-.0547.0377-.0729c.0378 0 .0566.0182.0943.0365z"/></g></g><path d="m55.0729 32.4233-4.0874 13.6431-1.9361 10.253h-1.9146l1.9146-23.8961z" fill="#e8a16d"/><path d="m56.9229 32.4233c-.2797 7.0919-.1721 10.9602-.1076 11.6049.0645.6448.4302 4.9498 2.9042 12.4992h-2.0007c-3.2699-7.2374-4.4316-11.5633-4.7973-12.4992-.3657-.9566-1.4843-4.8249-3.0978-11.6049z" fill="#e8a16d"/><path d="m55.1591 32.4233c-1.0756 4.7002-2.9042 12.1873-5.5287 22.4819h-2.8182c-.2151-10.565.6884-17.5113 2.2158-22.4819z" fill="#095411"/><path d="m56.945 32.4233c-.2797 7.0919.4517 14.0798 2.689 22.5859h-3.0117c-3.2914-7.1335-5.6363-14.0798-7.2497-22.5859z" fill="#137f3a"/><path d="m59.9996 57.9415-.1075-1.7262c-.6454.1872-1.4629.104-2.4309-.208-1.0541.7279-2.3664 1.2063-3.9798 1.4766-.1291.0208-.1937.1248-.1721.2496v.0208l.1505.5199h4.0014 2.3233z" fill="#82e59b"/><path d="m49.4796 57.9415-.1075-1.7262c-.6454.1872-1.4629.104-2.431-.208-1.0541.7279-2.3663 1.2063-3.9798 1.4766-.129.0208-.1936.1248-.1721.2496v.0208l.1506.5199h4.0013 2.3234z" fill="#82e59b"/><path d="m53.567 18.8026c.5163-.5824.8605-1.3103.7959-2.1006-.1721-2.3085-3.5065-1.8093-4.1519-.6447-.6454 1.1647-.5808 4.1387.2582 4.3466.3442.0832 1.0541-.1247 1.764-.5407l-.4518 3.0988h2.6891z" fill="#e8a16d"/><path d="m52.1262 16.9517c-.1076 1.3935-.3658 2.0798-.8175 2.0798-.6669 0-1.2262-.416-1.5059-.416-.2151 0-.1721.2496-.0215.4368.1076.1663.6884.3119.6884.5407s-.4518.0624-.4518.208c0 .2287-.086.6863.3442.6863.4303 0 1.678-.1456 1.8931-.7695.1291-.3952.2152-1.2271.2582-2.4957h.086c.3657 0 .6669.2912.6669.6447 0 .1872-.086.3536-.1936.4576.1506.2079.3227.4367.5378.6655.753-.4368 1.4198-1.7054.6884-2.9324-.1936-.6032-.7744-.9151-1.3122-1.0607-.4303-.1872-.9036-.1872-1.2693-.0832-.7529.0624-1.4198.2912-1.6134.4159 0 .6864.129.8943 1.3122.8735.2582.1456.4733.416.71.7487z" fill="#095411"/><path d="m49.8666 17.3047c-.0645.3535-.5378.6863-.5163 1.0814.1076.0416.1936.104.3012.1248s.1936 0 .3012.0416" fill="#e8a16d"/><path d="m50.0596 16.9099c.0645-.0416.1075-.0624.172-.0831.0645-.0208.129-.0416.215-.0208.0645.0208.1505.0623.172.1247.0215.0208.043.0623.043.0831s0 .0416.0215.0416v.0208.0208h-.0215c0-.0208-.043-.0208-.0645-.0416s-.0645-.0208-.086-.0416c-.043-.0208-.086-.0415-.129-.0415-.043-.0208-.086-.0208-.1505-.0208-.043.0208-.1075 0-.172-.0416z" fill="#095411"/><path d="m50.211 17.347c.0476 0 .0861-.0372.0861-.0832 0-.0459-.0385-.0831-.0861-.0831-.0475 0-.086.0372-.086.0831 0 .046.0385.0832.086.0832z" fill="#095411"/><path d="m44.4455 22.7941-3.2914-1.8718c-1.5489-.0832-2.2588-.2288-2.1728-.4368.1291-.3119.5594-.1663.6884-.3535.1291-.1872-.3011-.7071-.7314-1.1647-.4302-.4575-.086-.4783.1291-.4367.7099.2704 1.4413.7071 2.2373 1.3102l4.238 1.2271zm2.2373 7.3622-3.528 1.4142c-.9896 1.1439-1.5489 1.6014-1.678 1.4142-.1721-.2911.2151-.5407.1291-.7487-.0861-.2079-.753-.1871-1.3983-.1455-.6454.0415-.4518-.2288-.3012-.3536.6454-.3744 1.4628-.6863 2.4309-.9359l3.5711-2.5373z" fill="#e8a16d"/><path d="m51.4368 21.4427c-1.9361 3.4939-4.7542 6.1768-8.8201 8.9844l1.5489 1.6846c4.5391-1.643 6.9485-2.6205 8.1317-5.9273.3012-.8318.4948-3.4731.6884-4.8665z" fill="#82e59b"/><path d="m56.8584 33.1103h-8.605c1.9577-5.7608 2.9472-9.6915 2.9903-11.8336 0-.104.2151-.312.3011-.2704.6669.1872 1.3983.1248 2.1728-.208 2.0437 3.1612 2.7536 7.0711 3.1408 12.312z" fill="#b7f9c1"/><path d="m52.9858 20.7983c-2.4739.0208-6.4753.4575-11.1004-.9775l-.4518 2.2045c3.485 2.1629 7.0346 3.8475 10.1109 3.6187-1.3553 5.5737-1.2908 10.1491 1.678 10.1491h4.5821c.7314-4.7418-1.1832-11.3137-2.9687-14.6205-.0645-.1248-.2151-.3743-.5593-.3743-.2582 0-.7099 0-1.2908 0z" fill="#b7f9c1"/></g></g></svg>