<svg height="320" viewBox="0 0 248 320" width="248" xmlns="http://www.w3.org/2000/svg"><g fill="none" transform="translate(-81 30)"><path d="m198.3008 0h-198.3008v4.7834h198.3008z" fill="#095411"/><path d="m198.3008 4.7837h-198.3008v73.3453h198.3008z" fill="#d4f4d7"/><g fill="#095411"><path d="m82.82916 14.3504c.41713 0 .75527-.3382.75527-.7553s-.33814-.7553-.75527-.7553c-.41712 0-.75526.3382-.75526.7553s.33814.7553.75526.7553z"/><path d="m93.8222 14.3504c.4172 0 .7553-.3382.7553-.7553s-.3381-.7553-.7553-.7553c-.4171 0-.7552.3382-.7552.7553s.3381.7553.7552.7553z"/><path d="m104.8153 14.3504c.4171 0 .7553-.3382.7553-.7553s-.3382-.7553-.7553-.7553-.7553.3382-.7553.7553.3382.7553.7553.7553z"/><path d="m115.8936 14.3504c.4171 0 .7553-.3382.7553-.7553s-.3382-.7553-.7553-.7553-.7553.3382-.7553.7553.3382.7553.7553.7553z"/><path d="m126.8867 14.3504c.4171 0 .7552-.3382.7552-.7553s-.3381-.7553-.7552-.7553-.7553.3382-.7553.7553.3382.7553.7553.7553z"/><path d="m137.8798 14.3504c.4171 0 .7553-.3382.7553-.7553s-.3382-.7553-.7553-.7553-.7553.3382-.7553.7553.3382.7553.7553.7553z"/><path d="m148.8728 14.3504c.4171 0 .7553-.3382.7553-.7553s-.3382-.7553-.7553-.7553-.7552.3382-.7552.7553.3381.7553.7552.7553z"/><path d="m159.9511 14.3504c.4171 0 .7553-.3382.7553-.7553s-.3382-.7553-.7553-.7553-.7552.3382-.7552.7553.3381.7553.7552.7553z"/><path d="m170.9442 14.3504c.4172 0 .7553-.3382.7553-.7553s-.3381-.7553-.7553-.7553c-.4171 0-.7553.3382-.7553.7553s.3382.7553.7553.7553z"/><path d="m181.9378 14.3504c.417 0 .755-.3382.755-.7553s-.338-.7553-.755-.7553c-.418 0-.756.3382-.756.7553s.338.7553.756.7553z"/><path d="m192.9308 14.2664c.417 0 .755-.3381.755-.7553 0-.4171-.338-.7552-.755-.7552-.418 0-.756.3381-.756.7552 0 .4172.338.7553.756.7553z"/><path d="m82.82916 23.4978c.41713 0 .75527-.3381.75527-.7552 0-.4172-.33814-.7553-.75527-.7553-.41712 0-.75526.3381-.75526.7553 0 .4171.33814.7552.75526.7552z"/><path d="m93.8222 23.4978c.4172 0 .7553-.3381.7553-.7552 0-.4172-.3381-.7553-.7553-.7553-.4171 0-.7552.3381-.7552.7553 0 .4171.3381.7552.7552.7552z"/><path d="m104.8153 23.4978c.4171 0 .7553-.3381.7553-.7552 0-.4172-.3382-.7553-.7553-.7553s-.7553.3381-.7553.7553c0 .4171.3382.7552.7553.7552z"/><path d="m115.8936 23.4139c.4171 0 .7553-.3382.7553-.7553s-.3382-.7553-.7553-.7553-.7553.3382-.7553.7553.3382.7553.7553.7553z"/><path d="m126.8867 23.4139c.4171 0 .7552-.3382.7552-.7553s-.3381-.7553-.7552-.7553-.7553.3382-.7553.7553.3382.7553.7553.7553z"/><path d="m137.8798 23.4139c.4171 0 .7553-.3382.7553-.7553s-.3382-.7553-.7553-.7553-.7553.3382-.7553.7553.3382.7553.7553.7553z"/><path d="m148.8728 23.4139c.4171 0 .7553-.3382.7553-.7553s-.3382-.7553-.7553-.7553-.7552.3382-.7552.7553.3381.7553.7552.7553z"/><path d="m159.9511 23.4139c.4171 0 .7553-.3382.7553-.7553s-.3382-.7553-.7553-.7553-.7552.3382-.7552.7553.3381.7553.7552.7553z"/><path d="m170.9442 23.4139c.4172 0 .7553-.3382.7553-.7553s-.3381-.7553-.7553-.7553c-.4171 0-.7553.3382-.7553.7553s.3382.7553.7553.7553z"/><path d="m181.9378 23.4139c.417 0 .755-.3382.755-.7553s-.338-.7553-.755-.7553c-.418 0-.756.3382-.756.7553s.338.7553.756.7553z"/><path d="m192.9308 23.4139c.417 0 .755-.3382.755-.7553s-.338-.7553-.755-.7553c-.418 0-.756.3382-.756.7553s.338.7553.756.7553z"/><path d="m82.82916 32.5608c.41713 0 .75527-.3381.75527-.7552 0-.4172-.33814-.7553-.75527-.7553-.41712 0-.75526.3381-.75526.7553 0 .4171.33814.7552.75526.7552z"/><path d="m93.8222 32.5608c.4172 0 .7553-.3381.7553-.7552 0-.4172-.3381-.7553-.7553-.7553-.4171 0-.7552.3381-.7552.7553 0 .4171.3381.7552.7552.7552z"/><path d="m104.8153 32.5608c.4171 0 .7553-.3381.7553-.7552 0-.4172-.3382-.7553-.7553-.7553s-.7553.3381-.7553.7553c0 .4171.3382.7552.7553.7552z"/><path d="m115.8936 32.5608c.4171 0 .7553-.3381.7553-.7552 0-.4172-.3382-.7553-.7553-.7553s-.7553.3381-.7553.7553c0 .4171.3382.7552.7553.7552z"/><path d="m126.8867 32.5608c.4171 0 .7552-.3381.7552-.7552 0-.4172-.3381-.7553-.7552-.7553s-.7553.3381-.7553.7553c0 .4171.3382.7552.7553.7552z"/><path d="m137.8798 32.5608c.4171 0 .7553-.3381.7553-.7552 0-.4172-.3382-.7553-.7553-.7553s-.7553.3381-.7553.7553c0 .4171.3382.7552.7553.7552z"/><path d="m148.8728 32.4769c.4171 0 .7553-.3382.7553-.7553s-.3382-.7553-.7553-.7553-.7552.3382-.7552.7553.3381.7553.7552.7553z"/><path d="m159.9511 32.4769c.4171 0 .7553-.3382.7553-.7553s-.3382-.7553-.7553-.7553-.7552.3382-.7552.7553.3381.7553.7552.7553z"/><path d="m170.9442 32.4769c.4172 0 .7553-.3382.7553-.7553s-.3381-.7553-.7553-.7553c-.4171 0-.7553.3382-.7553.7553s.3382.7553.7553.7553z"/><path d="m181.9378 32.4769c.417 0 .755-.3382.755-.7553s-.338-.7553-.755-.7553c-.418 0-.756.3382-.756.7553s.338.7553.756.7553z"/><path d="m192.9308 32.4769c.417 0 .755-.3382.755-.7553s-.338-.7553-.755-.7553c-.418 0-.756.3382-.756.7553s.338.7553.756.7553z"/><path d="m82.82916 41.6238c.41713 0 .75527-.3381.75527-.7552 0-.4172-.33814-.7553-.75527-.7553-.41712 0-.75526.3381-.75526.7553 0 .4171.33814.7552.75526.7552z"/><path d="m93.8222 41.6238c.4172 0 .7553-.3381.7553-.7552 0-.4172-.3381-.7553-.7553-.7553-.4171 0-.7552.3381-.7552.7553 0 .4171.3381.7552.7552.7552z"/><path d="m104.8153 41.6238c.4171 0 .7553-.3381.7553-.7552 0-.4172-.3382-.7553-.7553-.7553s-.7553.3381-.7553.7553c0 .4171.3382.7552.7553.7552z"/><path d="m115.8936 41.6238c.4171 0 .7553-.3381.7553-.7552 0-.4172-.3382-.7553-.7553-.7553s-.7553.3381-.7553.7553c0 .4171.3382.7552.7553.7552z"/><path d="m126.8867 41.6238c.4171 0 .7552-.3381.7552-.7552 0-.4172-.3381-.7553-.7552-.7553s-.7553.3381-.7553.7553c0 .4171.3382.7552.7553.7552z"/><path d="m137.8798 41.6238c.4171 0 .7553-.3381.7553-.7552 0-.4172-.3382-.7553-.7553-.7553s-.7553.3381-.7553.7553c0 .4171.3382.7552.7553.7552z"/><path d="m148.8728 41.6238c.4171 0 .7553-.3381.7553-.7552 0-.4172-.3382-.7553-.7553-.7553s-.7552.3381-.7552.7553c0 .4171.3381.7552.7552.7552z"/><path d="m159.9511 41.6238c.4171 0 .7553-.3381.7553-.7552 0-.4172-.3382-.7553-.7553-.7553s-.7552.3381-.7552.7553c0 .4171.3381.7552.7552.7552z"/><path d="m170.9442 41.6238c.4172 0 .7553-.3381.7553-.7552 0-.4172-.3381-.7553-.7553-.7553-.4171 0-.7553.3381-.7553.7553 0 .4171.3382.7552.7553.7552z"/><path d="m181.9378 41.5398c.417 0 .755-.3381.755-.7552 0-.4172-.338-.7553-.755-.7553-.418 0-.756.3381-.756.7553 0 .4171.338.7552.756.7552z"/><path d="m192.9308 41.5398c.417 0 .755-.3381.755-.7552 0-.4172-.338-.7553-.755-.7553-.418 0-.756.3381-.756.7553 0 .4171.338.7552.756.7552z"/><path d="m82.82916 50.7713c.41713 0 .75527-.3382.75527-.7553s-.33814-.7553-.75527-.7553c-.41712 0-.75526.3382-.75526.7553s.33814.7553.75526.7553z"/><path d="m93.8222 50.7713c.4172 0 .7553-.3382.7553-.7553s-.3381-.7553-.7553-.7553c-.4171 0-.7552.3382-.7552.7553s.3381.7553.7552.7553z"/><path d="m104.8153 50.6873c.4171 0 .7553-.3382.7553-.7553s-.3382-.7552-.7553-.7552-.7553.3381-.7553.7552.3382.7553.7553.7553z"/><path d="m115.8936 50.6873c.4171 0 .7553-.3382.7553-.7553s-.3382-.7552-.7553-.7552-.7553.3381-.7553.7552.3382.7553.7553.7553z"/><path d="m126.8867 50.6873c.4171 0 .7552-.3382.7552-.7553s-.3381-.7552-.7552-.7552-.7553.3381-.7553.7552.3382.7553.7553.7553z"/><path d="m137.8798 50.6873c.4171 0 .7553-.3382.7553-.7553s-.3382-.7552-.7553-.7552-.7553.3381-.7553.7552.3382.7553.7553.7553z"/><path d="m148.8728 50.6873c.4171 0 .7553-.3382.7553-.7553s-.3382-.7552-.7553-.7552-.7552.3381-.7552.7552.3381.7553.7552.7553z"/><path d="m159.9511 50.6873c.4171 0 .7553-.3382.7553-.7553s-.3382-.7552-.7553-.7552-.7552.3381-.7552.7552.3381.7553.7552.7553z"/><path d="m170.9442 50.6873c.4172 0 .7553-.3382.7553-.7553s-.3381-.7552-.7553-.7552c-.4171 0-.7553.3381-.7553.7552s.3382.7553.7553.7553z"/><path d="m181.9378 50.6873c.417 0 .755-.3382.755-.7553s-.338-.7552-.755-.7552c-.418 0-.756.3381-.756.7552s.338.7553.756.7553z"/><path d="m192.9308 50.6873c.417 0 .755-.3382.755-.7553s-.338-.7552-.755-.7552c-.418 0-.756.3381-.756.7552s.338.7553.756.7553z"/><path d="m82.99632 59.8343c.41713 0 .75527-.3382.75527-.7553s-.33814-.7553-.75527-.7553c-.41712 0-.75526.3382-.75526.7553s.33814.7553.75526.7553z"/><path d="m94.073 59.8343c.4171 0 .7553-.3382.7553-.7553s-.3382-.7553-.7553-.7553-.7553.3382-.7553.7553.3382.7553.7553.7553z"/><path d="m105.0661 59.8343c.4171 0 .7552-.3382.7552-.7553s-.3381-.7553-.7552-.7553c-.4172 0-.7553.3382-.7553.7553s.3381.7553.7553.7553z"/><path d="m116.0591 59.8343c.4172 0 .7553-.3382.7553-.7553s-.3381-.7553-.7553-.7553c-.4171 0-.7552.3382-.7552.7553s.3381.7553.7552.7553z"/><path d="m127.1375 59.7503c.4171 0 .7552-.3382.7552-.7553s-.3381-.7553-.7552-.7553c-.4172 0-.7553.3382-.7553.7553s.3381.7553.7553.7553z"/><path d="m138.1305 59.7503c.4171 0 .7553-.3382.7553-.7553s-.3382-.7553-.7553-.7553c-.4172 0-.7553.3382-.7553.7553s.3381.7553.7553.7553z"/><path d="m149.1236 59.7503c.4171 0 .7552-.3382.7552-.7553s-.3381-.7553-.7552-.7553-.7553.3382-.7553.7553.3382.7553.7553.7553z"/><path d="m160.1167 59.7503c.4171 0 .7553-.3382.7553-.7553s-.3382-.7553-.7553-.7553c-.4172 0-.7553.3382-.7553.7553s.3381.7553.7553.7553z"/><path d="m171.195 59.7503c.4171 0 .7552-.3382.7552-.7553s-.3381-.7553-.7552-.7553-.7553.3382-.7553.7553.3382.7553.7553.7553z"/><path d="m182.1878 59.7503c.417 0 .755-.3382.755-.7553s-.338-.7553-.755-.7553-.755.3382-.755.7553.338.7553.755.7553z"/><path d="m193.1808 59.7503c.417 0 .756-.3382.756-.7553s-.339-.7553-.756-.7553-.755.3382-.755.7553.338.7553.755.7553z"/><path d="m82.99632 68.8978c.41713 0 .75527-.3382.75527-.7553s-.33814-.7553-.75527-.7553c-.41712 0-.75526.3382-.75526.7553s.33814.7553.75526.7553z"/><path d="m94.073 68.8978c.4171 0 .7553-.3382.7553-.7553s-.3382-.7553-.7553-.7553-.7553.3382-.7553.7553.3382.7553.7553.7553z"/><path d="m105.0661 68.8978c.4171 0 .7552-.3382.7552-.7553s-.3381-.7553-.7552-.7553c-.4172 0-.7553.3382-.7553.7553s.3381.7553.7553.7553z"/><path d="m116.0591 68.8978c.4172 0 .7553-.3382.7553-.7553s-.3381-.7553-.7553-.7553c-.4171 0-.7552.3382-.7552.7553s.3381.7553.7552.7553z"/><path d="m127.1375 68.8978c.4171 0 .7552-.3382.7552-.7553s-.3381-.7553-.7552-.7553c-.4172 0-.7553.3382-.7553.7553s.3381.7553.7553.7553z"/><path d="m138.1305 68.8978c.4171 0 .7553-.3382.7553-.7553s-.3382-.7553-.7553-.7553c-.4172 0-.7553.3382-.7553.7553s.3381.7553.7553.7553z"/><path d="m149.1236 68.8978c.4171 0 .7552-.3382.7552-.7553s-.3381-.7553-.7552-.7553-.7553.3382-.7553.7553.3382.7553.7553.7553z"/><path d="m160.1167 68.8138c.4171 0 .7553-.3382.7553-.7553s-.3382-.7553-.7553-.7553c-.4172 0-.7553.3382-.7553.7553s.3381.7553.7553.7553z"/><path d="m171.195 68.8138c.4171 0 .7552-.3382.7552-.7553s-.3381-.7553-.7552-.7553-.7553.3382-.7553.7553.3382.7553.7553.7553z"/><path d="m182.1878 68.8138c.417 0 .755-.3382.755-.7553s-.338-.7553-.755-.7553-.755.3382-.755.7553.338.7553.755.7553z"/><path d="m193.1808 68.8138c.417 0 .756-.3382.756-.7553s-.339-.7553-.756-.7553-.755.3382-.755.7553.338.7553.755.7553z"/></g><path d="m176.7333 12.8398v12.8396c0 .5875.4196 1.0071 1.007 1.0071h6.7135l.084-.084c.42-.4195 3.105-2.8532 3.944-3.5246l2.434-2.1819c.252-.1678.335-.4196.335-.7552v-7.3849c0-1.007-.839-1.8462-1.846-1.8462h-10.6575c-1.1748.0839-2.014.9231-2.014 1.9301zm11.8325.1678v3.6925c0 1.1749-.923 2.098-2.098 2.098h-5.455c-1.1745 0-2.0976-.9231-2.0976-2.098v-3.6925z" fill="#ce2951"/><path d="m177.7405 68.8137v-42.2113h6.7133s4.28-3.9442 4.28-3.6924 3.273 3.0211 3.273 3.0211l-1.762.5874 1.342 1.3427-1.678.7553 1.51 1.1749-1.762.7552 1.427 1.3427-1.763.6714 1.343 1.3427-1.678.8392 1.51 1.2588-1.846.5874 1.511 1.3427-1.93.7553 1.51 1.3427-1.762.8392 1.342 1.2588-1.762.7552 1.511 1.3428-1.763.5874 1.343 1.2588-1.51.7552 1.342 1.4267-1.678.6713 1.343 1.2588-1.763.6714 1.343 1.5105-1.678.5874 1.51 1.3427-1.762.8392 1.427 1.2588-1.763.7553 1.427 1.3427-1.762.6713 1.426 1.4267-1.762.5874 1.343 1.2588-1.679.8392 1.343 1.2588-1.679.7552 1.343 1.2588-1.678.6714 1.091 1.3427-1.259.671h-5.8743z" fill="#26b759"/><path d="m178.9153 24.9241c.4172 0 .7553-.3381.7553-.7553 0-.4171-.3381-.7552-.7553-.7552-.4171 0-.7552.3381-.7552.7552 0 .4172.3381.7553.7552.7553z" fill="#f24c64"/><path d="m183.2798 24.9241c.417 0 .756-.3381.756-.7553 0-.4171-.339-.7552-.756-.7552s-.755.3381-.755.7552c0 .4172.338.7553.755.7553z" fill="#f24c64"/><path d="m164.2303 30.2951v14.7697l-.5035.3357v3.2729h1.0909 1.091v-3.2729l-.5874-.3357v-14.7697h1.7622v-1.6784h-2.2658-2.2658v1.6784z" fill="#26b759"/><path d="m162.5516 25.1756v3.3568h4.6156v-3.3568l.6713-1.007c.3357-.5036.5035-1.1749.5035-1.8463v-9.4828c0-.5874-.5035-1.091-1.0909-1.091h-2.3497-2.3498c-.5874 0-1.091.5036-1.091 1.091v9.4828c0 .6714.1679 1.2588.5036 1.8463z" fill="#f24c64"/><path d="m166.7479 13.0073h-1.2588v9.9025h1.2588z" fill="#ce2951"/><path d="m164.0615 13.0073h-1.2588v9.9025h1.2588z" fill="#ce2951"/><path d="m101.4577 24.0012 3.3568 2.0979c.2517.1679.3356.5035.1678.8392-.8392 1.2588-2.9372 4.8673-2.9372 8.3919 0 2.9372.7553 5.7065 1.3427 7.301.2518.7553-.0839 1.5945-.8391 1.9301-.8392.4196-1.9302-.0839-2.1819-1.007-.8392-2.8532-1.9302-8.8115 1.0909-15.6929.4196-.9231.2518-1.9301-.2518-2.6854l-.3356-.5035c-.0839-.0839-.084-.2517-.084-.4196.084-.2517.4197-.4196.6714-.2517z" fill="#f24c64"/><path d="m108.5905 21.4834c.0839-.2518.1678-.5035.1678-.7553 0-.3356-.0839-.6713-.2517-.9231l.6713-2.4336c.2518-1.0071.2518-2.0141-.1678-2.9372l-1.5106-3.6085h-.5874v3.1889c.5035.1678.9231.6714.9231 1.2588s-.4196 1.0909-.9231 1.1749v2.1819c-.0839 0-.2517 0-.3357 0-.0839 0-.2517 0-.3357 0 0-.7553 0-1.5106 0-2.1819-.5035-.1679-.923-.6714-.923-1.1749 0-.5874.4195-1.091.923-1.2588 0-1.8462 0-3.1889 0-3.1889h-.5874l-1.5105 3.6085c-.4196.9231-.4196 1.9301-.1679 2.9372l.6714 2.4336c-.1678.2518-.2518.5875-.2518.9231 0 .2518.0839.5035.1679.7553l-1.7623 3.3568 1.9301 1.1748 1.5105-3.105v-.0839h.3357.3357v.0839l1.5105 3.105 1.9302-1.1748z" fill="#26b759"/><path d="m111.7799 24.0012-3.3568 2.0979c-.2518.1679-.3357.5035-.1678.8392.8392 1.2588 2.9372 4.8673 2.9372 8.3919 0 2.9372-.7553 5.7065-1.3428 7.301-.2517.7553.084 1.5945.8392 1.9301.8392.4196 1.9302-.0839 2.1819-1.007.8392-2.8532 1.9302-8.8115-1.0909-15.6929-.4196-.9231-.2518-1.9301.2517-2.6854l.3357-.5035c.0839-.0839.0839-.2517.0839-.4196-.0839-.2517-.4196-.4196-.6713-.2517z" fill="#f24c64"/><path d="m106.66 21.9033c.6952 0 1.2588-.5636 1.2588-1.2588s-.5636-1.2588-1.2588-1.2588-1.2587.5636-1.2587 1.2588.5635 1.2588 1.2587 1.2588z" fill="#ce2951"/><path d="m137.5438 17.707c2.1819-5.5387 7.9724-5.7065 7.9724-5.7065h2.9371c.1679 0 .3357.0839.4196.2517.3357.6714 1.0071 1.091 1.8462 1.091.8392 0 1.5106-.4196 1.8463-1.091.0839-.1678.2517-.2517.4196-.2517h2.6854c.1678 0 .2517.1678.2517.2517v4.2799c0 .1679-.1678.2518-.2517.2518h-2.6854c-.1679 0-.3357-.0839-.4196-.2518-.3357-.6713-1.0071-1.0909-1.8463-1.0909-.0839 0-.0839 0-.1678 0-1.007.0839-1.7623 1.007-1.7623 2.014v.7553 23.6652h-3.2728v-23.6652-1.4266c-1.9302-2.5176-5.8744 0-7.5528 1.2588-.1678.1678-.5035 0-.4196-.3357z" fill="#f24c64"/><path d="m145.2636 45.7354v-9.9864h3.7764v9.9864c.3356.1678.5035.4196.5035.8392 0 .5035-.4196.9231-.9231.9231h-3.0211c-.5035 0-.9231-.4196-.9231-.9231.0839-.3357.3357-.6714.5874-.8392z" fill="#ce2951"/><g transform="translate(113 50.000038)"><path d="m1.5145 65.6879621 45.0507-7.211 2.3312-19.27.4662-10.874-1.2822-22.02980003-39.3392 1.1832-3.8465 2.4228-1.9232 6.59210003 1.2239 11.4377.4662 10.93-.4662 8.902-.8742 8.959z" fill="#095411"/><path d="m46.566 58.4799621-1.5153-.338c0-.056 2.0981-8.508 2.6809-13.071 1.1656-8.903 1.1073-18.932-.0583-31.6087v-.2254c-.2914-3.32420003-.6993-7.09920003 1.0491-10.25440003.9908-1.7466 2.9723-3.3242 5.1287-2.7044 2.3312.6761 3.3219 3.6622 3.963 5.6342.0583.2254.1166.4508.2331.6198l-1.5153.5071c-.0582-.169-.1165-.3944-.2331-.6198-.5245-1.6339-1.3404-4.1693-2.914-4.6201-1.2239-.338-2.5643.7325-3.2637 1.972-1.5153 2.7608-1.1656 6.085-.8742 9.35290003v.2254c1.2239 12.7334 1.2239 22.8754.0583 31.8904-.5828 4.676-2.6226 12.902-2.7392 13.24z" fill="#fff"/><path d="m6.9937 7.43306207 1.6318-.4507 43.8268-6.9301s3.7882-1.0706 5.5366 6.4794l-45.0506 7.21180003c-.0583 0-.9325-2.8171-1.1074-3.1552-.4662-1.01410003-1.2821-1.91560003-2.2146-2.59170003-.816-.5071-1.6902-.5071-2.6226-.5635z" fill="#4fd875"/><path d="m57.8293 5.96356207-45.0338 7.46070003.1182.6664 45.0337-7.46080003z" fill="#4fd875"/><path d="m5.3608 116.626962c-.0583 0-.0583 0-.1166 0-.7577-.056-1.2822-.676-1.2239-1.409l8.1593-95.8389999c.0582-.7321.6993-1.2392 1.457-1.1828.7576.0563 1.2821.6761 1.2238 1.4088l-8.1592 95.8389999c-.0583.676-.6411 1.183-1.3404 1.183z" fill="#095411"/><path d="m28.0321 138.992962c-.7576 0-1.3404-.564-1.3404-1.296l-1.5736-59.8929999c0-.732.5828-1.352 1.3405-1.352.7576 0 1.3987.564 1.3987 1.296l1.5735 59.8919999c0 .733-.641 1.353-1.3987 1.353z" fill="#095411"/><path d="m72.9678 125.417962c-.641 0-1.224-.451-1.34-1.071l-9.9664-53.7499999c-.1166-.733.3497-1.409 1.1073-1.522.7577-.112 1.457.338 1.5736 1.071l9.9655 53.7509999c.117.732-.349 1.408-1.107 1.521-.116 0-.175 0-.233 0z" fill="#095411"/><path d="m12.8792 13.7404621 9.4997 65.1885 46.1579-9.691-10.6069-62.93480003z" fill="#e8f4e8"/><path d="m12.8799 13.7436621c-.5245-2.2537-1.6901-5.52160003-4.1379-6.25400003-2.1563-.6198-4.1379 1.0141-5.1286 2.70440003-1.7484 3.1552-1.3987 6.9302-1.0491 10.2539v.226c1.2239 12.621 1.2239 22.706.0583 31.608-.5828 4.564-2.5643 12.621-2.6226 12.677l1.457.733c.0583-.338 2.1564-8.564 2.7392-13.241 1.1656-9.015 1.1656-19.156-.0583-31.89v-.225c-.2914-3.2681-.6411-6.6486.8742-9.3531.6994-1.23950003 2.0398-2.31000003 3.2637-1.97200003 3.4968 1.01420003 3.5551 8.16970003 3.9631 11.15610003.7576 5.127 1.5152 10.254 2.2729 15.381.9325 6.254 1.865 12.565 2.7974 18.819.816 5.409 1.6319 10.818 2.3895 16.227.3497 2.535.5828 4 .9325 6.535l.1166 1.183 1.457.62c-.2914-2.084-.5828-4.169-.9325-6.254-.7576-5.014-1.457-10.085-2.2146-15.1-.8742-6.141-1.8067-12.282-2.6809-18.48-.816-5.465-1.5736-10.874-2.3895-16.339-.408-2.874-.6994-5.8038-1.2822-8.6772.2331-.1127.1748-.2254.1748-.3381z" fill="#4fd875"/><path d="m18.3595 32.3929621c.1169-.113.2338-.113.3507-.113.0584 0 .0584.056.0584.056l-.0584.113c-.0585 0-.1753 0-.3507-.056z" fill="#f24c64"/><path d="m39.4591 34.0269621c-.1749.113-.3497.225-.4663.282-.3497.225-.6993.45-1.049.676-.5828.394-1.1656.789-1.8067 1.183-.0583.056-.1166.113-.1749.169-.0582.056-.1165.113-.1748.113s-.0583-.113-.1166-.169c-.1165-.62-.2331-1.184-.3496-1.803 0-.113-.0583-.169-.0583-.282h-.0583v.282c.1748.901.3497 1.859.5245 2.76.1166.508.2331.958.2914 1.465.1166.507.2331 1.015.2914 1.522.0583.281.1166.563.1749.901 0 .113-.0583.169-.1749.169-.1165 0-.1748.056-.1165.169.0582.451.1748.958.2331 1.409v.338c-.0583-.226-.1166-.395-.1749-.62-.0582-.338-.1165-.62-.1748-.958 0-.056 0-.112 0-.169 0-.113-.0583-.169-.1748-.113-.1749.057-.2332 0-.2914-.225-.0583-.451-.1749-.958-.2332-1.408-.1748-.789-.2914-1.578-.4662-2.311-.1166-.619-.2914-1.295-.408-1.915-.0583-.395-.1748-.733-.2331-1.127 0-.056-.0583-.169-.1165-.225h-.0583v.225c.1165.62.2331 1.183.4079 1.803.0583.169-.0583.338-.2914.394-.5828.113-1.1656.226-1.7484.338-.1165 0-.2331.057-.4079.113 0 .113 0 .225.0582.338.1749.845.3497 1.747.5246 2.592.1165.563.2331 1.127.3496 1.69.0583.226 0 .282-.2331.282-.2914.056-.2914.056-.2331.338.0583.225.0583.394.0583.62.0583.225.1165.45.1748.676.0583.169.0583.338.1166.563h-.0583c-.0583-.112-.0583-.169-.1166-.281-.0582-.508-.1748-.958-.2331-1.465-.0583-.395-.0583-.395-.5245-.338-.2914.056-.3497 0-.3497-.226-.1165-.62-.2331-1.296-.3497-1.915-.1165-.62-.2331-1.184-.3496-1.803-.1166-.451-.2332-.902-.2914-1.353-.1166-.676-.2914-1.296-.2332-1.972.0583-.507 0-.957-.0583-1.465 0-.112-.0582-.169-.1748-.112-.5245.112-1.049.225-1.5736.282-.1748.056-.2331.112-.1748.281.1166.338.2914.676.408 1.014.0582.282.1165.564.1748.846.1748.957.408 1.915.5828 2.873.1748.789.3497 1.634.4662 2.423.0583.394.1749.789.2914 1.183.0583.282-.0582.338-.2914.394-.2914 0-.2914 0-.2331.282v.225c-.0583-.112-.0583-.169-.0583-.225-.0582-.282-.0582-.282-.4079-.225-.1166 0-.2914.112-.408 0-.0583-.057-.1165-.113-.1165-.169-.1749-.845-.3497-1.747-.5246-2.592-.2331-1.071-.4079-2.197-.641-3.268-.0583-.338-.1166-.676-.2332-.958-.1748-.451-.1748-.901-.2331-1.352 0-.282-.1165-.338-.4079-.282-.4663.057-.9325.169-1.3988.226-.1165 0-.1748 0-.2914.056-.0583 0-.0583.056-.0583.056l.0583.057c.0583.056.1166.112.1166.169.1165.619.2331 1.239.3497 1.859.1165.62.2914 1.24.4079 1.803.1749.845.3497 1.69.5246 2.535.1165.564.2331 1.127.3496 1.691.0583.169.0583.281.1166.45.0583.113 0 .226-.1166.226-.1165 0-.2331.056-.4079.056.0583.676.2331 1.409.3497 2.085-.0583 0-.0583 0-.1166 0-.0583-.395-.1748-.733-.2331-1.127-.0583-.282-.1166-.507-.1166-.789 0-.113-.0583-.225-.2331-.169-.0583 0-.1166.056-.1748.056-.2914.057-.408.057-.4663-.281-.0583-.451-.1748-.958-.2331-1.409s-.1749-.845-.2914-1.296c-.1749-.901-.3497-1.859-.5828-2.761-.1749-.732-.2914-1.464-.4663-2.197-.1165-.451-.1748-.901-.2914-1.408 0-.113 0-.169.1166-.226.1748-.056.1748-.113.1748-.282-.0582-.394-.0582-.394-.4662-.281-.4662.056-.8742.169-1.3405.225-.2331.056-.2914 0-.3496-.225-.0583-.338-.1166-.733-.1749-1.071-.0583-.169-.1165-.225-.3497-.169-.4662.113-.9907.226-1.5152.282-.1166 0-.3497.113-.3497-.056-.0583-.169.1748-.169.3497-.169.5245-.113 1.049-.169 1.5735-.282.1166 0 .1749-.113.1749-.226-.0583-.394-.1749-.788-.2332-1.183 0-.112 0-.225 0-.338 0 0 .0583-.056.1166-.056.5828-.113 1.1073-.225 1.6901-.282.1749 0 .2332-.113.1749-.225-.0583-.169-.0583-.282-.1166-.451-.0583-.225 0-.451.1166-.62-.0583-.056-.1166-.056-.2331-.112.1748 0 .2331-.113.3496 0h.0583c.7577-.169 1.5736-.282 2.3312-.451.1749-.056.3497-.113.4663.113.0582.056.2331.112.2914.056.1165-.056.2331-.169.2914-.225.0583-.113.1165-.226.2331-.226.2914-.056.5828-.113.8742-.169.408-.056.8159-.169 1.2239-.225.1165 0 .2331.056.2914.112.1165.113.2914.226.4662.113.1166-.056.2332-.113.1749-.282-.1166-.45-.1749-.845-.2332-1.295-.1165-.677-.2331-1.353-.3496-2.029-.0583-.169-.0583-.394-.1166-.563s0-.226.1748-.282c.5246-.113 1.1074-.225 1.6319-.338.2914-.056.4662 0 .5245.338.1166.563.2331 1.127.3497 1.69.0583.282.1166.507.1748.733 0 .056.0583.112.1166.112.2331 0 .2331-.056.2914-.169.1748.113.3497.057.4662 0 .0583 0 .0583-.112.0583-.112-.0583-.338-.1165-.62-.1748-.958-.1166-.564-.2331-1.071-.3497-1.634-.0583-.169 0-.225.1748-.169.4663.113.9325.169 1.3988.282.3496.056.6993.112 1.1073.169.408.056.8742.112 1.2822.225.1748.056.3496.113.5245.169.1748.056.4079.056.5828.056.6411.113 1.2822.226 1.9232.338h.0583c.4663.057.4663.057.5245.508 0 .169 0 .338.0583.507.0583.225.1166.45.2331.619.1166.113.2332.282.5246.226.3496-.113.6993-.113 1.049-.169.1749 0 .3497-.113.4663-.226.0582-.112.0582-.225.0582-.338 0-.281-.0582-.281.2332-.338.641-.112 1.2238-.225 1.8649-.338.3497-.056.6994-.169 1.0491-.225s.6411-.113.9907-.169c.1749-.057.3497-.057.5246-.113.0582 0 .1748 0 .2331.056.1748.113.4079.226.5828.395.0583 0 .0583.056.1165.113.1166.732.2332 1.464.408 2.197 0 .169.1166.225.2914.169.1166-.056.2914-.056.408-.056.1748 0 .2914-.113.4079-.282.1166-.169.1749-.338.3497-.451s.3497-.113.5245-.169c.3497-.056.6411-.113.9908-.169.1748-.056.3497-.169.4662-.282.1749-.281.3497-.394.6994-.45.8159-.113 1.6319-.282 2.4478-.451.1165 0 .1748-.056.2331-.056.1166 0 .1748.056.2331.112-.0583.057-.1165.113-.1748.169-.2914.057-.6411.113-.9325.169-.4662.113-.9908.169-1.457.282 0 0 0 0-.0583.056.0583.057.0583.057.1166.113.0582.056.1748.113.2331.169s0 .113.0583.169c-.0583 0-.1166 0-.1749 0-.1748-.056-.4079-.169-.5828-.225-.1748-.057-.2914-.057-.4079.112-.0583.113-.1749.226-.2914.338-.0583.057-.1166.057-.1749.057-.4079.056-.7576.169-1.1656.225.1166.226.2331.338.4663.282.1165 0 .2331-.056.3496-.056.0583 0 .2332.056.2332.112.0582.113-.0583.169-.1166.169 0 0-.0583 0-.0583.057.1749.056.2914.169.4663.225.3496.113.641.225.9907.282h.2331c.816-.169 1.6902-.282 2.5061-.451.2331-.056.5245-.113.7576-.113.0583 0 .2332.057.2332.057.0582.112-.0583.169-.1749.169-.9907.169-1.9232.338-2.914.563-.0583 0-.1166 0-.1748.056-.2332.057-.4663.113-.6994-.056-.3497-.225-.7576-.225-1.2239-.056-.2331.056-.5245.112-.8159.169-.1166 0-.2331 0-.2914-.057-.1748-.112-.3497-.281-.5245-.338-.1166-.056-.2332-.056-.408-.056-.1166 0-.2914.056-.408.056-.2331.057-.2331.057-.2331.282.1166.451.1749.902.2914 1.409v.169c0 .112.0583.225.2331.169.1749-.057.2332 0 .2332.169.1165.732.2914 1.408.4079 2.141.1166.507.1749.958.2914 1.465.0583.338.1749.732.2332 1.07.1165.564.2331 1.071.2914 1.634.0582.395.1748.789.2331 1.183.1165.62.2914 1.24.4079 1.86 0 .112 0 .169-.1165.169-.1166.056-.2914.056-.4663.112.1749.733.2914 1.522.4663 2.254-.0583.056-.1749.113-.1749-.056-.0582-.451-.1748-.958-.2331-1.409-.0583-.225-.1165-.507-.1748-.732 0-.057-.0583-.057-.1166-.057-.1166 0-.2914.057-.4079.057-.2915-.226-.2332-.564-.2915-.902-.1165-.62-.2331-1.239-.3496-1.859-.1749-.902-.3497-1.747-.5246-2.648-.0582-.395-.1748-.845-.2914-1.24-.0582-.338-.1165-.62-.1748-.958-.0583-.225-.1166-.507-.1748-.732 0-.113 0-.169 0-.338-.2332.056-.5246.056-.7577.113-.2331.056-.5245.112-.7576.169-.1749 0-.2331.112-.1166.225.1749.225.1749.451.2331.732.1166.62.2332 1.24.3497 1.803.1166.62.2331 1.24.3497 1.86.1166.676.2914 1.352.4662 1.972.1166.563.2332 1.183.3497 1.746.0583.169-.1165.451-.2914.451-.1165.056-.1165.113-.1165.225.1165.62.2331 1.296.3496 1.916v.169c0-.056-.0582-.056-.0582-.113-.1166-.45-.1749-.957-.2332-1.408-.0582-.225-.0582-.451-.1165-.676 0-.057-.1166-.057-.1749-.057-.1748 0-.3496.057-.4662-.056-.0583-.056-.0583-.113-.0583-.169-.0583-.338-.1165-.62-.1748-.958-.1166-.451-.1749-.901-.2914-1.352-.0583-.282-.1166-.563-.1166-.789-.0583-.394-.1748-.789-.2331-1.183-.1166-.563-.2331-1.127-.3497-1.69-.1165-.507-.2331-1.014-.2914-1.522-.0583-.225 0-.507 0-.788 0-.057 0-.113 0-.226-.4662.113-.9325.169-1.3987.282-.408.056-.4663.056-.5245-.394-.0583-.395-.1749-.451-.5828-.395-.1166 0-.2332 0-.3497.057-.3497.056-.6411.169-.9908.169-.2331.056-.2331.225-.2914.394 0 .113 0 .169.0583.282 0 .056.0583.056.1165.056h.4663c.1748 0 .2331.056.2914.225.1166.282.2331.564.408.846.1748.281.2331.619.2914.957.1748.733.2914 1.409.4079 2.141.1749.902.3497 1.747.5245 2.649.1166.619.2332 1.183.3497 1.802.0583.226-.0583.339-.2331.339-.0583 0-.1166.056-.1748.112-.1166 0-.2332-.056-.2914-.056-.1749 0-.2914-.056-.2914-.225-.1749-.902-.408-1.86-.5828-2.761-.2332-1.127-.4663-2.31-.6994-3.437-.0583-.338-.1166-.62-.2331-.902 0-.112-.0583-.112-.1749-.056-.2914.169-.6411.338-.9325.563-.3496.226-.7576.507-1.1073.733-.1165.056-.1165.169 0 .225.1166.057.2914.113.408.169.0583 0 .0583.057.1165.113.1166.676.2332 1.352.3497 2.028.1166.564.1749 1.183.2914 1.747.1166.451.1749.901.2914 1.352.0583.282.1166.564.1749.845 0 .113-.0583.226-.1749.226-.3497.056-.6993.112-1.049.169-.2331.056-.2331 0-.2914-.226-.1166-.732-.2914-1.408-.408-2.141-.1165-.619-.2331-1.239-.4079-1.803-.0583-.394-.1749-.732-.2332-1.127 0-.056 0-.112.0583-.112.1166-.282.2914-.62.408-.902.1165-.056.1165-.112.0583-.225.0582.056.0582 0 0 0zm-5.8281-11.1v.113c.0583.451.1749.845.2331 1.296.0583.394.1749.732.2332 1.127 0 .056-.0583.169-.1166.169-.1748.056-.1748.169-.1166.282 0 .112.0583.225.0583.394.0583.394.1749.789.2332 1.183.1165.564.2331 1.127.2914 1.69 0 .057.1165.113.1748.113.1166 0 .2914-.056.408-.056.0582 0 .1165 0 .1748.056-.0583.056-.0583.113-.1166.169-.0582.057-.1748 0-.2331.057-.2914.056-.2914.056-.2331.338.0583.338.1166.732.2331 1.07.0583.394.1749.789.2914 1.183.1166.564.1749 1.127.2914 1.634.1166.733.2914 1.409.4663 2.141.0582.169.1165.226.2331.113.4079-.225.7576-.507 1.1656-.733.3497-.225.6994-.45 1.049-.676.2914-.169.5246-.394.816-.563.5245-.338 1.1073-.676 1.6318-1.071.2914-.169.5245-.394.8159-.563.2332-.113.2914-.282.2331-.507-.1748-.845-.3496-1.69-.5245-2.536-.0583-.338-.1165-.676-.2331-1.07-.408.056-.8159.169-1.2239.225-.4662.113-.9325.169-1.457.282-.0583 0-.1165-.056-.1748-.056.0583-.057.0583-.113.1165-.113.1166-.056.2332-.056.2914-.056.5246-.113 1.0491-.169 1.5736-.282.2331-.056.4662-.113.6994-.113-.1166-.619-.2332-1.239-.3497-1.859 0-.056-.0583-.113-.1749-.169-.2331-.113-.2914-.282-.3496-.451-.0583-.112-.0583-.282-.0583-.451-.0583-.338-.1166-.676-.1749-.957 0-.057-.0582-.113-.1165-.169-.5245-.113-.9908-.169-1.5153-.282s-1.0491-.169-1.5736-.282-1.1073-.169-1.6318-.282c-.2331-.056-.408-.056-.6411-.112-.1748-.113-.408-.169-.6994-.226zm10.9567 1.747c.0583.056.1749.169.2331.225-.1165.057-.1748.113-.2914.113-.4079.113-.8159.225-1.1656.282-.0582 0-.0582.056-.0582.112.0582.282.0582.564.1165.846.0583.394.1749.732.2331 1.126 0 .113.0583.17.1749.113.1748-.056.4079-.056.5828-.113.0583 0 .1165 0 .1748.057 0 .056 0 .113-.0583.169-.0582.056-.1165.056-.1748.056-.2331 0-.408.057-.6411.057.0583.225.0583.394.1166.619.1165.507.2331 1.071.3497 1.578 0 .169.0582.169.1748.113.2331-.057.408-.113.6411-.113.1748-.056.3497-.056.4662-.113.0583 0 .1166.057.1166.113s-.0583.113-.1166.113c-.3497.056-.6993.112-1.049.225-.0583 0-.1166 0-.1166.056 0 0-.0583.057-.0583.113 0 0 .0583.056.1166.056.5828-.112 1.1656-.225 1.6901-.338.0583 0 .0583-.056.0583-.112 0-.057-.0583-.057-.0583-.113-.0583-.056-.1165-.113-.1165-.169s.0582-.113.1165-.113c.5828-.112 1.1074-.225 1.6902-.338.0582 0 .1748.056.2331.113-.0583.056-.1166.113-.1749.113-.2914.056-.641.112-.9907.169-.1166 0-.2331.056-.3497.056.0583.169.1166.225.2914.169.408-.056.7576-.169 1.1656-.225.1748-.057.3497-.113.6411-.169-.0583-.113-.1166-.17-.1749-.226 0-.056-.0582-.056-.1165-.056 0-.057.0583-.057.0583-.113.0582-.056.0582-.169.0582-.225 0-.169-.0582-.338-.1165-.507-.0583-.282-.1166-.507-.1166-.789 0-.113-.0583-.226-.2331-.169-.0583 0-.1166 0-.1748-.057.0582-.056.1165-.056.1748-.112.0583-.057.1166-.057.1166-.113 0-.113-.0583-.282-.0583-.394-.2331.056-.4663.112-.6994.112-.0583 0-.0583.057-.0583.057s-.0582.056-.0582.112c0-.056-.0583-.056-.0583-.112 0-.057-.0583-.169-.0583-.226 0-.056.0583-.056.1166-.112.2331 0 .5245-.057.7576-.057 0-.112 0-.225-.0583-.338 0-.112 0-.225-.1748-.225 0 0-.0583-.113 0-.113.1165-.056.1165-.225.1165-.281-.0582-.339-.1165-.677-.2331-1.015-.0583-.169-.0583-.281-.1165-.45-.1166.056-.1749.056-.2914.112-.2332.057-.5246.113-.7577.169-.3497.057-.6993.169-1.049.226-.1749.056-.1749-.057-.1749-.169 0-.057 0-.057 0-.113-.0583.225-.3497.282-.5828.338zm-20.6895 6.818c.0583.225.0583.394.1166.563.1165.563.2331 1.183.4079 1.747.0583.225.2332.338.408.281.6994-.169 1.457-.281 2.1564-.45.1165 0 .1748-.113.1748-.226-.0583-.338-.1165-.676-.1748-.958-.0583-.45-.1749-.845-.2914-1.296 0-.112-.1166-.169-.2331-.112-.0583 0-.1166-.057-.1749-.057.0583-.056.1166-.112.1166-.112.1748-.057.1748-.113.1748-.282-.0583-.282-.1165-.563-.1748-.845-.1166-.451-.1749-.902-.2914-1.352 0-.113-.0583-.169-.1749-.113-.2914.056-.5828.113-.8742.169-.3497.056-.6993.169-1.049.225-.2914.057-.408.169-.3497.451.0583.225.1166.507.1748.733.0583.225 0 .281-.1748.394-.0583.056-.0583.113-.0583.169.0583.225.1166.507.1166.732 0 .169.1165.226.2914.169.2331-.056.5245-.112.7576-.169.1166 0 .2331 0 .2331.113 0 .056-.1165.113-.1748.113-.2331 0-.5828.056-.9325.113zm9.4414 5.07c.2914-.056.5245-.112.816-.169.1165 0 .1165-.056.1165-.169-.0583-.338-.1166-.676-.1748-1.014-.1166-.507-.1749-.958-.2914-1.465-.1749-.845-.3497-1.634-.4663-2.479-.0583-.451-.1748-.845-.2914-1.296 0-.112-.0583-.169-.1748-.169-.5245.113-1.0491.226-1.5736.282-.1748 0-.1748.113-.1748.225.0583.395.1165.789.2331 1.24.1166.62.2331 1.239.3497 1.859.1165.507.1748.958.2914 1.465.1165.563.2331 1.183.3497 1.747 0 .112.1165.169.2331.169.2914-.113.5245-.169.7576-.226zm-4.8955-3.155c.6411-.113 1.2821-.225 1.9232-.338.1166 0 .1166-.113.1166-.225-.1166-.733-.2914-1.465-.408-2.254-.0582-.225-.0582-.225-.2914-.169-.4079.056-.8159.169-1.2239.225-.0582 0-.1165-.056-.1748-.056.0583-.056.1166-.113.1748-.113h.1166c.3497-.056.7576-.112 1.1073-.225.1166 0 .1749-.056.1749-.225-.0583-.395-.1166-.733-.2332-1.127-.0582-.395-.1748-.789-.2331-1.183 0-.057-.1165-.113-.1165-.113-.5246.056-1.1074.169-1.6319.282-.1748.056-.2914.169-.2331.338 0 .225.0583.394.1166.619.1165.564.2331 1.127.3496 1.747.1166.62.2332 1.296.3497 1.916-.0583.225 0 .563.1166.901zm3.6134-3.606c.2914-.056.5245-.056.8159-.112.0583 0 .1165-.113.1165-.113-.1165-.451-.1748-.958-.2914-1.409-.1165-.507-.1748-.958-.2914-1.465-.0582-.281 0-.676-.4079-.788 0 0-.0583-.057-.0583-.113-.1166-.564-.1748-1.127-.2914-1.69-.0583-.282-.1166-.564-.1748-.846 0-.056-.1166-.112-.1166-.112-.2914.056-.5828.112-.8742.112-.408.057-.408.113-.3497.508 0 .112 0 .225.0583.281.1748.902.3497 1.86.5245 2.761 0 .113.0583.282.0583.451-.0583.225-.0583.394 0 .62.1748.676.2331 1.408.3497 2.084 0 .113.0583.169.1748.113.2331-.225.5245-.282.7577-.282zm-1.865 12.508c-.1166-.676-.2331-1.296-.3497-1.972-.1166-.619-.2331-1.239-.3497-1.859-.0583-.394-.1748-.845-.2331-1.24-.1166-.507-.2331-1.07-.3497-1.577-.1165-.395-.2331-.845-.4079-1.24 0-.056-.0583-.056-.1166-.056-.2331.056-.4662.056-.6994.113-.0582 0-.1165.112-.1165.112.0583.338.0583.676.1165.958.1166.733.2914 1.465.4663 2.254.1165.676.2914 1.352.4079 2.028.1166.507.2332 1.014.3497 1.521.0583.282.1166.564.1749.846.0582.225.0582.225.3496.169.0583 0 .1749-.113.1749-.113 0-.169-.0583-.282-.1749-.451-.0582-.112-.1165-.169-.0582-.281.0582-.057.1748-.057.2331-.057.1165.057.1166.169.0583.282s0 .282 0 .451c.1748.112.3496.112.5245.112-.0583 0-.0583 0 0 0zm-4.5459-.169c.0583.338.1749.62.2332.902 0 .056.0582.112.1165.056.1166 0 .2331-.056.3497-.113 0 0-.0583-.169-.0583-.225v-.056c-.0583-.057-.0583-.113-.1165-.169-.1749-.057-.1166-.169-.1166-.226.0583-.169.2331-.112.2914-.056.1165 0 .1748.169.1166.225-.1166.169-.0583.282-.0583.451 0 .113.0583.169.1748.113.1166 0 .1166-.057.1166-.169-.0583-.451-.1166-.902-.2331-1.352-.1166-.62-.2332-1.24-.408-1.86-.1166-.676-.2331-1.352-.408-2.028-.0583-.451-.1748-.902-.2914-1.352-.1165-.451-.1748-.902-.2914-1.353 0-.056-.0583-.112-.1165-.112-.2332 0-.4663.056-.6994.056-.1166 0-.1748.056-.1748.225.0582.338.1165.733.1748 1.071.1748.901.3497 1.803.5828 2.704.1166.62.2331 1.24.3497 1.86.2914.507.4079.958.4662 1.408zm24.0698-12.339c-.0583 0-.0583 0-.1166 0-.2331.282-.4079.62-.6411.902v.112c0 .113.0583.282.1166.395.1166.507.2331 1.07.2914 1.577.1166.564.2331 1.184.3497 1.747.1748.789.2914 1.578.4662 2.366.1166.451.1749.902.2914 1.296 0 .057.0583.113.1166.113.1166 0 .2331-.056.2331-.113 0-.169.1166-.338-.1165-.507-.0583-.056 0-.169 0-.225.0582 0 .1748-.057.2331 0 .0583 0 .0583.113.0583.225v.507c.4079 0 .4079 0 .3496-.281-.1165-.564-.2331-1.127-.3496-1.691-.0583-.394-.1749-.789-.2332-1.183-.1165-.62-.2331-1.183-.3496-1.803-.1749-.732-.2915-1.521-.4663-2.254-.0583-.394-.1165-.788-.2331-1.183zm-17.0179 11.269c-.0582-.226-.0582-.395-.1165-.564-.0583-.394-.1166-.788-.2331-1.239-.1166-.62-.2332-1.24-.3497-1.803-.1166-.676-.2331-1.409-.408-2.085-.0583-.394-.1748-.789-.2914-1.183-.0583-.394-.0583-.394-.4662-.338-.1166 0-.1166.056-.1166.169v.563c0 .507 0 .958.0583 1.465.1166.733.2914 1.465.4662 2.198.1166.507.2332 1.07.2914 1.577.1166.62.2332 1.24.408 1.916 0 .113.1166.169.2331.113.0583 0 .1749-.057.2914-.113-.0583-.169-.1748-.282-.2331-.451 0-.056 0-.169 0-.225.1166-.057.2331-.057.4662 0zm13.5211-9.466c.0583.282.1165.564.1748.845.2331 1.014.408 2.029.6411 3.099.1748.902.3497 1.803.5245 2.761.0583.169.0583.338.1166.507 0 .056.1165.113.1748.113.1166 0 .2331-.057.2331-.113.0583-.113-.0582-.338-.1748-.451-.0583-.056-.1166-.169-.1166-.225.0583-.056.1166-.169.2332-.169.0582 0 .1748.056.2331.113 0 0 .0583.112 0 .112-.1749.113-.1166.282-.0583.451 0 .056.0583.113.1166.113.1165 0 .1748-.057.1165-.169-.0583-.282-.1165-.62-.1748-.958-.1166-.676-.2914-1.296-.408-1.972-.0583-.338-.1165-.676-.2331-1.071-.0583-.338-.1166-.676-.2331-1.014-.1749-.676-.2914-1.352-.4663-2.028 0-.113-.0582-.113-.1748-.113-.1166.057-.2914.113-.5245.169zm-6.1195 7.888s.0583 0 0 0c.0583.226.1166.395.1749.62.0583.113.1165.225.2914.169.2331-.056.4079-.113.6411-.113.1748-.056.1748-.112.1748-.281-.0583-.226-.0583-.395-.1166-.62-.1165-.507-.1748-1.014-.2914-1.465-.0582-.169-.0582-.338-.0582-.507-.0583-.226-.0583-.451-.1166-.676-.0583-.338-.1748-.733-.2331-1.071s-.1749-.676-.2331-1.014c0-.056-.0583-.113-.0583-.113-.0583.057-.1166.057-.1166.113-.0583.056-.0583.113-.0583.169-.1165.394-.2914.732-.4079 1.127 0 .056-.0583.056-.0583.113-.0583.056-.1166.169-.0583.225.0583.451.1749.845.2331 1.296.0583.676.1749 1.352.2914 2.028zm-6.2942-10.029h.1748.1749c.2331-.056.2331-.056.2331-.282-.1166-.507-.2332-.957-.2914-1.464-.0583-.339-.1166-.733-.1749-1.071-.0583-.225-.1165-.507-.1748-.732 0-.113-.0583-.169-.2331-.169-.2914.056-.5828.112-.8742.169-.0583 0-.1166.112-.1166.112.0583.282.1166.564.1748.845.1166.564.2332 1.127.3497 1.634.0583.282.1166.62.1749.902 0 .113.0582.169.1748.113.1166 0 .2914-.057.408-.057zm10.5487 9.297c0-.057 0-.113 0-.113-.0583-.338-.1166-.62-.1748-.958-.1166-.62-.2332-1.239-.3497-1.915-.1166-.677-.2914-1.353-.408-2.029-.0583-.338-.1165-.676-.2331-1.014 0-.056-.1166-.113-.1748-.113-.1166 0-.2332 0-.3497-.056-.1166 0-.1749 0-.1749.169.1166.676.2914 1.296.408 1.972.0583.225.1166.394.1166.62.0582.394.1165.845.2331 1.239.1165.451.1748.902.2914 1.353.1165.507.2331 1.014.3497 1.521 0 .056.1165.113.1748.113s.1166-.057.1166-.113c0-.113 0-.282-.1749-.395-.1165-.056-.1165-.225 0-.281.1166 0 .2331.056.3497 0zm-9.8494-5.522c.1166-.056.2332-.056.408-.056s.2331-.113.1748-.282c-.0582-.282-.1165-.62-.2331-.901-.0583-.338-.1165-.733-.2331-1.071-.0583-.394-.1749-.789-.2331-1.183 0-.056-.1166-.169-.1749-.169-.2914.056-.5828.113-.9325.169-.0582 0-.1165.113-.1165.169.0583.338.1165.62.1748.958.1749.789.2914 1.577.4663 2.366 0 .113.1165.169.2331.113.2331-.057.3497-.057.4662-.113zm8.6255-7.437c-.3497.056-.6993.056-.9907.113-.3497.056-.6994.169-1.1074.225-.0583 0-.1165.056-.1165.113 0 .112 0 .169.0582.281.1166.451.1749.845.2914 1.296.0583.169.1166.226.2332.169.4662-.112.9325-.169 1.3987-.281.1748-.057.3497-.057.5828-.113-.1166-.62-.2331-1.24-.3497-1.803zm.7577 3.831c-.0583-.169-.0583-.282-.0583-.451-.1166-.45-.1749-.845-.2331-1.295 0-.113-.0583-.113-.1749-.113-.6411.113-1.2822.282-1.9232.394-.1166 0-.1166.057-.1166.169.1166.507.1748 1.014.2914 1.522 0 .056.0583.056.0583.112.1166-.056.1748-.056.2331-.056.3497-.056.6994-.113 1.0491-.113.2914-.112.5245-.281.8742-.169zm-16.7265 2.479c.0583.282.1166.564.1749.845 0 .113.0582.169.2331.113.1165-.056.2331-.056.3497 0 .1165 0 .1748 0 .1748-.113 0-.169-.0583-.394-.0583-.563-.0583-.451-.1748-.901-.2331-1.352-.0583-.395-.1748-.845-.2331-1.24-.1166-.451-.1749-.901-.2914-1.352-.0583-.169-.0583-.225-.2331-.113-.1166.057-.1749.057-.2914.057-.1749 0-.2332.056-.1749.225v.113c.0583.394.1749.845.2331 1.239.0583.789.1749 1.465.3497 2.141zm9.0917 8.395c-.3496-2.084-.8159-4.169-1.2821-6.254-.0583 0-.1749 0-.2331 0-.2332 0-.2915.057-.2332.282.1749.732.2914 1.409.4663 2.141.1165.62.2331 1.183.4079 1.803.1166.507.1749.958.2914 1.465.0583.225.1166.394.1749.563.1165-.056.2331 0 .4079 0zm-13.4627-8.789c-.2331.056-.4662.113-.6994.113-.1165 0-.1748.056-.1165.169.0582.338.1748.732.2331 1.07 0 .113.0583.169.1748.113.4663-.113.9325-.169 1.3988-.282.0582 0 .1165-.113.1165-.113-.0583-.394-.1165-.732-.2331-1.126 0-.057-.1166-.113-.1748-.113-.1749.056-.408.113-.6994.169zm-.2331-1.352c-.2332.056-.4663.112-.6994.169-.0583 0-.1166.112-.1166.169.0583.281.1166.563.1749.845 0 .056.1166.113.1748.113.4663-.057.9325-.169 1.3988-.282.1165 0 .1748-.057.1748-.226-.0583-.281-.1166-.507-.1748-.788 0-.169-.1166-.169-.2332-.113-.2331.056-.4662.056-.6993.113zm7.1684-2.592v.113c.1166.563.2332 1.183.3497 1.746.1166.507.1166.451.5828.395.1749 0 .1749-.113.1749-.226-.0583-.451-.1749-.845-.2331-1.296-.0583-.225-.1166-.507-.1166-.732-.2914.056-.5245 0-.7577 0zm.6994 3.662c.0583.282.1166.62.1749.902 0 .056.0582.169.1748.112.1166-.056.2914-.056.408-.056.1748 0 .1748-.056.1748-.169-.0583-.225-.1166-.451-.1166-.676-.0582-.395-.1748-.845-.2331-1.24 0-.112-.0583-.112-.1748-.112-.1166.056-.2331.056-.3497.056-.1748 0-.1749.056-.1749.225 0 .338.0583.62.1166.958zm18.4166-2.141h.1165c.0583-.113.1749-.169.1749-.282-.0583-.394-.1166-.845-.2331-1.239 0-.056-.0583-.113-.1166-.169-.0583-.226-.0583-.507-.0583-.733 0-.056-.1165-.112-.1748-.056-.0583 0-.2331 0-.1749.169.0583.169.0583.394.2914.507.1166.057.1166.113 0 .169-.1748 0-.1165.113-.1165.226.0583.225.0583.394.1165.619.0583.226.1166.507.1749.789zm-.3497-3.493c-.1166 0-.1748-.056-.2331-.056 0-.057.0583-.113.0583-.169 0-.057.0582-.17.0582-.226-.0582-.282-.1165-.563-.1748-.845-.0583-.225-.1748-.282-.408-.282.0583.169.0583.338.1166.507.1166.395.0583.846.2914 1.184v.056c0 .169 0 .338.0583.507.0583.113.1748.056.2331.056s.1166-.056.1166-.112c0-.169-.0583-.395-.1166-.62zm3.0306.901c-.1166-.338-.8742-.45-1.1073-.169.2914.395.6993.282 1.1073.169zm-5.2452 4.339c0-.057 0-.113.0582-.169-.2331.056-.2914.112-.1748.394.1748-.056.3497-.056.5828-.113.0583 0 .1166-.056.1166-.112-.0583-.169 0-.338-.1749-.395-.1165.113-.1748.169-.2914.226.1166 0 .2331.056.2914.056v.056c-.1165 0-.2331 0-.4079.057zm-18.7663 2.648c0 .169 0 .282.0583.394 0 .057.0583.113.0583.169.0582-.056.1748-.056.1748-.112.0583-.113.1748-.169.2914-.113.0583 0 .1166.056.1166.056s0 0 .0582-.056c-.0582-.056-.0582-.169-.1165-.225 0 0-.1166.056-.1749.112-.1165.057-.1748.057-.3496.057.0582-.113.1748-.282-.1166-.282zm15.1529-1.634c0-.056 0-.113 0-.113-.0583 0-.1166 0-.1749 0-.0582.057-.0582.113-.0582.169 0 .113.0582.226.1165.226.1749.056.3497.112.5245 0-.0582-.226-.2331-.057-.4079-.113.1165-.056.1748-.113.2914-.169-.1749 0-.2331 0-.2914 0zm-9.966 9.184c-.2331.169-.2914.338-.1748.507 0 .056.1166.056.1166.056.0582 0 .1165-.056.1165-.112 0-.169 0-.282-.0583-.451zm11.7727-2.085c-.0583-.056-.0583-.113-.1166-.169-.0583.056-.1166.113-.1166.169s0 .169.0583.282c0 .056.1166.056.1166.056.0583 0 .0583-.056.1165-.113 0-.056-.0582-.112-.0582-.225zm1.6318-14.818c0 .056 0 .056 0 0 .2331 0 .5245-.056.7577-.113v-.056c-.2914.113-.5246.169-.7577.169zm-21.5637 9.973c-.1166-.057-.1748-.057-.2331-.057s-.1166.113-.1749.169c.0583.057.1166.113.1749.057.0583 0 .1165-.113.2331-.169zm24.536-4.282c0-.057 0-.057 0 0-.1166 0-.1748.056-.2331.112 0 .057 0 .113.0583.169.0583-.056.1165-.056.1165-.112.0583-.057.0583-.113.0583-.169zm-9.7328 5.465h.1166c-.1749-.226.1165-.282.1165-.451-.1165.056-.2331.056-.2331.113-.0583.112 0 .225 0 .338zm-8.101-2.423c-.1748-.113-.4079-.056-.4662.169.1748-.113.2914-.113.4662-.169zm11.015-1.859-.0583.056c.0583.056.0583.113.1166.113s.1166-.057.1748-.113c-.0582 0-.1748-.056-.2331-.056zm.1166.62c.1165-.057.2331-.057.3497-.113 0-.056 0-.056-.0583-.113-.1166.057-.1749.057-.2914.113zm8.3341-5.635v-.056c-.0583 0-.1166-.056-.1749-.056s-.1165.112-.1165.112 0 .057.0582.057c.0583 0 .1166-.057.2332-.057zm-15.4443 7.607c-.1749.112-.0583.225 0 .338h.0583c-.0583-.113-.0583-.226-.0583-.338zm-10.3156.788c0-.056 0-.056 0-.112-.0583 0-.1749-.057-.2332-.057 0 0 0 .057-.0582.113.1165.056.2331.056.2914.056z" fill="#ce2951"/><g fill="#f24c64"><path d="m57.7555 25.1259621c-1.2821.226-2.6226.507-3.9047.733-.0583 0-.0583 0-.1166 0v-.057c.1748-.056.3497-.112.5245-.112.816-.169 1.6319-.282 2.3895-.451.2914-.056.6411-.169.9325-.225.0583 0 .1166.056.1748.056.0583 0 0 0 0 .056z"/><path d="m51.2285 41.4069621c-.1165-.113-.233-.226-.1165-.338.1165-.113.3495-.169.466-.056.1165.112.1747.225.0582.337.1748.169.233.338.1165.507-.1165.113-.3494.169-.4659.113-.1165-.169-.1748-.338-.0583-.563zm.0583.225c.1165.056.1747.113.2329.113.0583-.057.1165-.113.1165-.169 0-.057-.1165-.113-.1747-.169-.0582.112-.0582.169-.1747.225zm.2912-.451c-.1165-.056-.1748-.056-.1748-.056-.0582 0-.0582.056-.1164.113.0582 0 .1165.056.1747.056 0 0 .0582-.056.1165-.113z"/><path d="m45.168 42.3639621c-.0582 0-.1165.056-.1747 0-.233-.057-.2913-.057-.233.225.1165-.113.2912-.113.4077 0 .1165.112.1747.281.1165.394-.0583.113-.1747.169-.2912.225-.233 0-.3495-.169-.4078-.507-.0582-.281.0583-.45.233-.45.1165-.113.233-.056.3495.113zm-.466.506c.1165.057.1748.113.2913.169 0-.056.0582-.169.0582-.225s-.1165-.113-.1747-.169c0 .056-.0583.113-.1748.225z"/><path d="m41.0889 43.5499621c.1165 0 .1748.056.233.056h.233c0-.113.0582-.169 0-.282 0-.056-.1165-.056-.233-.056-.0582 0-.1165.056-.233.169 0-.225 0-.394 0-.619.1748-.057.3495-.057.5242-.113 0 .056 0 .113.0583.169-.1165.113-.3495 0-.3495.225.3495-.056.466.057.5242.282.0583.169-.0582.338-.233.394-.2912.056-.4077 0-.5242-.225z"/><path d="m30.1895 45.7469621c.1748-.056.2913-.056.4078-.056 0 .056 0 .112.0582.168-.233.057-.466.057-.6989.113.0582-.169.1164-.281.2329-.45.0583-.113.1165-.169.1748-.282 0-.056-.0583-.113-.0583-.225-.0582.056-.1165.056-.1747.112-.0583.057-.1165.057-.1747.113-.0583-.225.0582-.281.1747-.338.1165-.056.2912-.056.4077.057.1165.112.1165.225.0583.337-.233.169-.2913.282-.4078.451z"/><path d="m37.0671 44.6739621c-.0582-.057-.1164-.113-.1747-.113v-.056c-.1165 0-.233.056-.3495.056-.1165-.225.1748-.901.4078-.901.0582.169.0582.282.1164.451 0 .056 0 .225.1165.225 0 0 .0583.112 0 .112 0 .057-.0582.113-.1165.169zm-.4659-.338c.1165 0 .1747-.056.233-.056 0-.113-.0583-.169-.0583-.338-.0582.169-.1165.281-.1747.394z"/><path d="m32.871 44.5629621c.0583-.056.1748-.169.233-.225.1165 0 .233 0 .3495.056.0582.057.0582.169.0582.225.0583.169.1748.282.1748.395 0 .112-.1165.225-.233.225-.1165.056-.233-.056-.3495-.056 0 0 0-.057-.0582-.113.0582 0 .1165-.056.1747-.056s.1747.056.233.056c0-.056.0582-.169.0582-.169-.0582-.056-.1165-.113-.233-.169 0 0 .0583-.056.0583-.113 0-.056 0-.112 0-.168-.0583 0-.1165.056-.1747.056-.0583 0-.1165.056-.1748.056-.0582.056-.0582 0-.1165 0z"/><path d="m48.7808 42.4759621s-.0583 0-.1748 0c.0583-.281.1165-.563.1165-.845-.1165 0-.233.057-.3495.057 0-.057 0-.113-.0582-.169.233-.056.4077-.056.6407-.113v.169c-.0583.282-.1165.563-.1747.901z"/><path d="m26.4015 45.9689621c0-.169.1748-.451.3495-.451.0583.338.1165.619.1748.957-.0583 0-.1165.057-.1748.057-.0582-.226-.1165-.451-.1165-.676-.0582.056-.1165.056-.233.113z"/><path d="m52.5124 26.0809621c-.0583-.112-.0583-.169.0582-.225.233-.056.466-.056.699-.056.0582 0 .1164.056.1747.056-.0583.056-.1165.113-.1747.113-.233 0-.466.056-.7572.112z"/><path d="m41.3219 42.7039621c-.0582-.394-.1747-.789-.233-1.126h.0583c.0582.337.1165.732.1747 1.126 0-.056 0 0 0 0z"/><path d="m30.0742 44.2819621c.0583.169.1166.281.1749.45-.1166 0-.1749-.112-.1749-.45z"/><path d="m58.2811 24.8449621c.1169 0 .1753-.056.2922-.056 0 0 .0585 0 .1169.056 0 .057-.0584.057-.0584.057-.1169 0-.1754 0-.2922.056-.0585-.056-.0585-.056-.0585-.113z"/><path d="m37.009 28.9569621c-.0583.057-.1167.113-.175.113-.1166.057-.1749.057-.2915.057-.0583 0-.1166-.057-.1166-.057.0583-.056.0583-.113.1166-.113.1749-.056.3498-.056.4665-.112-.0583.056 0 .112 0 .112z"/><path d="m46.9752 26.1409621c.1748.056.3496.225.2913.394-.0583.056-.2331.113-.2913.113-.1166 0-.0583-.113 0-.169 0-.113 0-.226 0-.338z"/><path d="m47.0923 27.4359621c.1166 0 .1749-.057.2332-.057.1166.057.2332.113.4081.169-.1166.057-.1749.113-.2332.113-.1749.057-.2915-.056-.4081-.225z"/><path d="m45.9272 27.3759621c-.0583 0-.0583 0-.1166 0-.0582-.056-.1165-.056-.1748-.112.0583-.057.1166-.057.1748-.113h.1166c.0582 0 .2331-.056.1748.113 0 0-.0583.056-.1748.112z"/><path d="m46.9739 26.9849621c0 .056.0584.056.0584.113v.169c-.0584-.056-.1168-.056-.1753-.113 0 0-.0584-.113 0-.113 0-.056.0584-.113.0584-.169 0 0 .0585 0 .0585.113 0-.057 0-.057 0 0z"/><path d="m40.9721 39.4919621c-.1168.113-.1753.17-.2337.283-.0585-.057-.1754-.113-.1754-.17 0-.056.0585-.169.1169-.226.1169 0 .1754.057.2922.113z"/></g></g><path d="m263.6378 100.479-12.666 42.28-6 31.774h-5.934l5.934-74.054z" fill="#e8a16d"/><path d="m269.3718 100.479c-.867 21.978-.534 33.966-.334 35.964s1.334 15.339 9 38.734h-6.2c-10.133-22.429-13.733-35.834-14.866-38.734-1.134-2.965-4.6-14.953-9.6-35.964z" fill="#e8a16d"/><path d="m263.9058 100.479c-3.334 14.566-9 37.768-17.133 69.671h-8.734c-.666-32.741 2.134-54.267 6.867-69.671z" fill="#095411"/><path d="m269.4408 100.479c-.867 21.978 1.4 43.633 8.333 69.993h-9.333c-10.2-22.106-17.467-43.632-22.467-69.993z" fill="#137f3a"/><path d="m278.9068 179.559-.334-5.35c-2 .58-4.533.323-7.533-.644-3.267 2.256-7.333 3.738-12.333 4.576-.4.064-.6.387-.534.773v.065l.467 1.611h12.4 7.2z" fill="#82e59b"/><path d="m246.3058 179.559-.333-5.35c-2 .58-4.534.323-7.534-.644-3.266 2.256-7.333 3.738-12.333 4.576-.4.064-.6.387-.533.773v.065l.466 1.611h12.4 7.2z" fill="#82e59b"/><path d="m258.9708 58.2676c1.6-1.8046 2.667-4.0604 2.467-6.5095-.534-7.1539-10.867-5.6071-12.867-1.9979s-1.8 12.8255.8 13.47c1.067.2578 3.267-.3867 5.467-1.6757l-1.4 9.6035h8.333z" fill="#e8a16d"/><path d="m254.5048 52.5326c-.333 4.3181-1.133 6.445-2.533 6.445-2.067 0-3.8-1.289-4.667-1.289-.667 0-.533.7734-.067 1.3534.334.5156 2.134.9668 2.134 1.6757 0 .709-1.4.1934-1.4.6445 0 .709-.267 2.1269 1.066 2.1269 1.334 0 5.2-.4512 5.867-2.3847.4-1.2245.667-3.8025.8-7.734h.267c1.133 0 2.066.9023 2.066 1.998 0 .58-.266 1.0956-.6 1.4179.467.6445 1 1.3534 1.667 2.0624 2.333-1.3535 4.4-5.2849 2.133-9.0875-.6-1.869-2.4-2.8358-4.066-3.2869-1.334-.5801-2.8-.5801-3.934-.2578-2.333.1933-4.4.9023-5 1.289 0 2.1268.4 2.7713 4.067 2.7069.8.4511 1.467 1.289 2.2 2.3202z" fill="#095411"/><path d="m247.5038 53.6265c-.2 1.0956-1.667 2.1268-1.6 3.3514.333.1289.6.3222.933.3867.333.0644.6 0 .933.1289" fill="#e8a16d"/><path d="m248.1008 52.4034c.199-.1288.333-.1932.533-.2576.199-.0644.399-.1288.666-.0644.2.0644.466.1932.533.3864.067.0645.133.1933.133.2577s0 .1288.067.1288v.0644.0644h-.067c0-.0644-.133-.0644-.2-.1288-.066-.0644-.2-.0644-.266-.1288-.133-.0644-.267-.1288-.4-.1288-.133-.0644-.267-.0645-.466-.0645-.134.0645-.334.0001-.533-.1288z" fill="#095411"/><path d="m248.5708 53.7577c.148 0 .267-.1154.267-.2578 0-.1423-.119-.2577-.267-.2577-.147 0-.266.1154-.266.2577 0 .1424.119.2578.266.2578z" fill="#095411"/><path d="m230.7048 70.638-10.2-5.8005c-4.8-.2578-7-.7089-6.733-1.3534.4-.9668 1.733-.5156 2.133-1.0957.4-.58-.933-2.1913-2.267-3.6092-1.333-1.4179-.266-1.4823.4-1.3534 2.2.8378 4.467 2.1913 6.934 4.0603l13.133 3.8026zm6.933 22.815-10.933 4.383c-3.067 3.545-4.8 4.963-5.2 4.383-.533-.903.667-1.676.4-2.321-.267-.644-2.333-.58-4.333-.451s-1.4-.709-.934-1.095c2-1.161 4.534-2.127 7.534-2.901l11.066-7.863z" fill="#e8a16d"/><path d="m252.3698 66.4502c-6 10.8278-14.733 19.1418-27.333 27.8428l4.8 5.22c14.066-5.092 21.533-8.121 25.2-18.368.933-2.578 1.533-10.763 2.133-15.0815z" fill="#82e59b"/><path d="m269.1718 102.608h-26.667c6.067-17.853 9.134-30.034 9.267-36.6725 0-.3223.667-.9668.933-.8379 2.067.5801 4.334.3867 6.734-.6445 6.333 9.7969 8.533 21.9129 9.733 38.1549z" fill="#b7f9c1"/><path d="m257.1698 64.4525c-7.666.0644-20.066 1.4179-34.4-3.0292l-1.4 6.8317c10.8 6.703 21.8 11.923 31.334 11.214-4.2 17.273-4 31.452 5.2 31.452h14.2c2.266-14.695-3.667-35.061-9.2-45.3084-.2-.3867-.667-1.1601-1.734-1.1601-.8 0-2.2 0-4 0z" fill="#b7f9c1"/></g></svg>