<svg fill="none" height="193" width="201" xmlns="http://www.w3.org/2000/svg"><filter id="a" color-interpolation-filters="sRGB" filterUnits="userSpaceOnUse" height="192.992" width="282.908" x="-82" y="0"><feFlood flood-opacity="0" result="BackgroundImageFix"/><feColorMatrix in="SourceAlpha" result="hardAlpha" values="0 0 0 0 0 0 0 0 0 0 0 0 0 0 0 0 0 0 127 0"/><feOffset dx="1" dy="1"/><feGaussianBlur stdDeviation="1"/><feColorMatrix values="0 0 0 0 0.129412 0 0 0 0 0.129412 0 0 0 0 0.129412 0 0 0 0.4 0"/><feBlend in2="BackgroundImageFix" result="effect1_dropShadow_17863_419389"/><feBlend in="SourceGraphic" in2="effect1_dropShadow_17863_419389" result="shape"/></filter><filter id="b" color-interpolation-filters="sRGB" filterUnits="userSpaceOnUse" height="142.992" width="78.326" x="31" y="50"><feFlood flood-opacity="0" result="BackgroundImageFix"/><feColorMatrix in="SourceAlpha" result="hardAlpha" values="0 0 0 0 0 0 0 0 0 0 0 0 0 0 0 0 0 0 127 0"/><feOffset dx="1" dy="1"/><feGaussianBlur stdDeviation="1"/><feColorMatrix values="0 0 0 0 0.129412 0 0 0 0 0.129412 0 0 0 0 0.129412 0 0 0 0.4 0"/><feBlend in2="BackgroundImageFix" result="effect1_dropShadow_17863_419389"/><feBlend in="SourceGraphic" in2="effect1_dropShadow_17863_419389" result="shape"/></filter><g filter="url(#a)"><path d="M117.301 1H-81v4.783h198.301z" fill="#095411"/><path d="M117.301 5.783H-81V79.13h198.301z" fill="#d4f4d7"/><g fill="#095411"><path d="M1.828 15.35a.755.755 0 1 0 0-1.51.755.755 0 0 0 0 1.51zM12.822 15.35a.755.755 0 1 0 0-1.51.755.755 0 0 0 0 1.51zM23.814 15.35a.755.755 0 1 0 0-1.51.755.755 0 0 0 0 1.51zM34.892 15.35a.755.755 0 1 0 0-1.51.755.755 0 0 0 0 1.51zM45.886 15.35a.755.755 0 1 0 0-1.51.755.755 0 0 0 0 1.51zM56.878 15.35a.755.755 0 1 0 0-1.51.755.755 0 0 0 0 1.51zM67.872 15.35a.755.755 0 1 0 0-1.51.755.755 0 0 0 0 1.51zM78.95 15.35a.755.755 0 1 0 0-1.51.755.755 0 0 0 0 1.51zM89.943 15.35a.755.755 0 1 0 0-1.51.755.755 0 0 0 0 1.51zM100.937 15.35a.755.755 0 1 0 0-1.51.755.755 0 0 0 0 1.51zM111.929 15.266a.755.755 0 1 0 0-1.51.755.755 0 0 0 0 1.51zM1.828 24.498a.755.755 0 1 0 0-1.51.755.755 0 0 0 0 1.51zM12.822 24.498a.755.755 0 1 0 0-1.51.755.755 0 0 0 0 1.51zM23.814 24.498a.755.755 0 1 0 0-1.51.755.755 0 0 0 0 1.51zM34.892 24.414a.755.755 0 1 0 0-1.511.755.755 0 0 0 0 1.51zM45.886 24.414a.755.755 0 1 0 0-1.51.755.755 0 0 0 0 1.51zM56.878 24.414a.755.755 0 1 0 0-1.51.755.755 0 0 0 0 1.51zM67.872 24.414a.755.755 0 1 0 0-1.51.755.755 0 0 0 0 1.51zM78.95 24.414a.755.755 0 1 0 0-1.51.755.755 0 0 0 0 1.51zM89.943 24.414a.755.755 0 1 0 0-1.51.755.755 0 0 0 0 1.51zM100.937 24.414a.755.755 0 1 0 0-1.51.755.755 0 0 0 0 1.51zM111.929 24.414a.755.755 0 1 0 0-1.51.755.755 0 0 0 0 1.51zM1.828 33.56a.755.755 0 1 0 0-1.51.755.755 0 0 0 0 1.51zM12.822 33.56a.755.755 0 1 0 0-1.51.755.755 0 0 0 0 1.51zM23.814 33.56a.755.755 0 1 0 0-1.51.755.755 0 0 0 0 1.51zM34.892 33.56a.755.755 0 1 0 0-1.51.755.755 0 0 0 0 1.51zM45.886 33.56a.755.755 0 1 0 0-1.51.755.755 0 0 0 0 1.51zM56.878 33.56a.755.755 0 1 0 0-1.51.755.755 0 0 0 0 1.51zM67.872 33.477a.755.755 0 1 0 0-1.51.755.755 0 0 0 0 1.51zM78.95 33.477a.755.755 0 1 0 0-1.51.755.755 0 0 0 0 1.51zM89.943 33.477a.755.755 0 1 0 0-1.51.755.755 0 0 0 0 1.51zM100.937 33.477a.755.755 0 1 0 0-1.51.755.755 0 0 0 0 1.51zM111.929 33.477a.755.755 0 1 0 0-1.51.755.755 0 0 0 0 1.51zM1.828 42.624a.755.755 0 1 0 0-1.51.755.755 0 0 0 0 1.51zM12.822 42.624a.755.755 0 1 0 0-1.51.755.755 0 0 0 0 1.51zM23.814 42.624a.755.755 0 1 0 0-1.51.755.755 0 0 0 0 1.51zM34.892 42.624a.755.755 0 1 0 0-1.51.755.755 0 0 0 0 1.51zM45.886 42.624a.755.755 0 1 0 0-1.51.755.755 0 0 0 0 1.51zM56.878 42.624a.755.755 0 1 0 0-1.51.755.755 0 0 0 0 1.51zM67.872 42.624a.755.755 0 1 0 0-1.51.755.755 0 0 0 0 1.51zM78.95 42.624a.755.755 0 1 0 0-1.51.755.755 0 0 0 0 1.51zM89.943 42.624a.755.755 0 1 0 0-1.51.755.755 0 0 0 0 1.51zM100.937 42.54a.755.755 0 1 0 0-1.51.755.755 0 0 0 0 1.51zM111.929 42.54a.755.755 0 1 0 0-1.51.755.755 0 0 0 0 1.51zM1.828 51.771a.755.755 0 1 0 0-1.51.755.755 0 0 0 0 1.51zM12.822 51.771a.755.755 0 1 0 0-1.51.755.755 0 0 0 0 1.51zM23.814 51.687a.755.755 0 1 0 0-1.51.755.755 0 0 0 0 1.51zM34.892 51.687a.755.755 0 1 0 0-1.51.755.755 0 0 0 0 1.51zM45.886 51.687a.755.755 0 1 0 0-1.51.755.755 0 0 0 0 1.51zM56.878 51.687a.755.755 0 1 0 0-1.51.755.755 0 0 0 0 1.51zM67.872 51.687a.755.755 0 1 0 0-1.51.755.755 0 0 0 0 1.51zM78.95 51.687a.755.755 0 1 0 0-1.51.755.755 0 0 0 0 1.51zM89.943 51.687a.755.755 0 1 0 0-1.51.755.755 0 0 0 0 1.51zM100.937 51.687a.755.755 0 1 0 0-1.51.755.755 0 0 0 0 1.51zM111.929 51.687a.755.755 0 1 0 0-1.51.755.755 0 0 0 0 1.51zM1.997 60.834a.755.755 0 1 0 0-1.51.755.755 0 0 0 0 1.51zM13.074 60.834a.755.755 0 1 0 0-1.51.755.755 0 0 0 0 1.51zM24.066 60.834a.755.755 0 1 0 0-1.51.755.755 0 0 0 0 1.51zM35.06 60.834a.755.755 0 1 0 0-1.51.755.755 0 0 0 0 1.51zM46.138 60.75a.755.755 0 1 0 0-1.51.755.755 0 0 0 0 1.51zM57.13 60.75a.755.755 0 1 0 0-1.51.755.755 0 0 0 0 1.51zM68.124 60.75a.755.755 0 1 0 0-1.51.755.755 0 0 0 0 1.51zM79.117 60.75a.755.755 0 1 0 0-1.51.755.755 0 0 0 0 1.51zM90.195 60.75a.755.755 0 1 0 0-1.51.755.755 0 0 0 0 1.51zM101.189 60.75a.755.755 0 1 0 0-1.51.755.755 0 0 0 0 1.51zM112.181 60.75a.755.755 0 1 0 0-1.51.755.755 0 0 0 0 1.51zM1.997 69.898a.755.755 0 1 0 0-1.51.755.755 0 0 0 0 1.51zM13.074 69.898a.755.755 0 1 0 0-1.51.755.755 0 0 0 0 1.51zM24.066 69.898a.755.755 0 1 0 0-1.51.755.755 0 0 0 0 1.51zM35.06 69.898a.755.755 0 1 0 0-1.51.755.755 0 0 0 0 1.51zM46.138 69.898a.755.755 0 1 0 0-1.51.755.755 0 0 0 0 1.51zM57.13 69.898a.755.755 0 1 0 0-1.51.755.755 0 0 0 0 1.51zM68.124 69.898a.755.755 0 1 0 0-1.51.755.755 0 0 0 0 1.51zM79.117 69.814a.755.755 0 1 0 0-1.51.755.755 0 0 0 0 1.51zM90.195 69.814a.755.755 0 1 0 0-1.51.755.755 0 0 0 0 1.51zM101.189 69.814a.755.755 0 1 0 0-1.51.755.755 0 0 0 0 1.51zM112.181 69.814a.755.755 0 1 0 0-1.51.755.755 0 0 0 0 1.51z"/></g><path d="M95.732 13.84v12.84c0 .587.42 1.006 1.007 1.006h6.714l.084-.084c.419-.42 3.105-2.853 3.944-3.524l2.434-2.182c.252-.168.335-.42.335-.755v-7.385a1.862 1.862 0 0 0-1.846-1.847H97.746c-1.174.084-2.014.924-2.014 1.93zm11.833.167V17.7a2.078 2.078 0 0 1-2.098 2.098h-5.455a2.078 2.078 0 0 1-2.098-2.098v-3.693z" fill="#ce2951"/><path d="M96.74 69.813V27.602h6.714s4.28-3.944 4.28-3.693c0 .252 3.272 3.022 3.272 3.022l-1.762.587 1.343 1.343-1.678.755 1.51 1.175-1.762.755 1.426 1.343-1.762.671 1.343 1.343-1.679.84L109.496 37l-1.846.587 1.51 1.343-1.93.755 1.511 1.343-1.763.84 1.343 1.258-1.762.755 1.51 1.343-1.762.587 1.343 1.26-1.511.754 1.343 1.427-1.679.671 1.343 1.26-1.762.67 1.343 1.511-1.679.587 1.511 1.343-1.763.84 1.427 1.258-1.762.755 1.426 1.343-1.762.672 1.427 1.426-1.763.588 1.343 1.258-1.678.84 1.342 1.258-1.678.756 1.343 1.258-1.679.672 1.091 1.343-1.258.67H96.74z" fill="#26b759"/><path d="M97.915 25.924a.755.755 0 1 0 0-1.51.755.755 0 0 0 0 1.51zM102.279 25.924a.755.755 0 1 0 0-1.51.755.755 0 0 0 0 1.51z" fill="#f24c64"/><path d="M83.231 31.295v14.77l-.503.336v3.272H84.91v-3.272l-.588-.336v-14.77h1.762v-1.678H81.553v1.678z" fill="#26b759"/><path d="M81.552 26.176v3.357h4.615v-3.357l.672-1.007c.336-.504.503-1.175.503-1.846V13.84a1.11 1.11 0 0 0-1.09-1.091h-4.7a1.11 1.11 0 0 0-1.091 1.09v9.484c0 .67.168 1.258.504 1.846z" fill="#f24c64"/><path d="M85.749 14.008H84.49v9.902h1.259zM83.061 14.008h-1.258v9.902h1.259z" fill="#ce2951"/><path d="m20.458 25 3.357 2.099c.251.168.335.503.167.84-.839 1.258-2.937 4.866-2.937 8.391 0 2.937.756 5.707 1.343 7.3a1.558 1.558 0 0 1-.84 1.931c-.838.42-1.93-.084-2.181-1.007-.84-2.853-1.93-8.811 1.09-15.693.42-.923.253-1.93-.25-2.685l-.337-.504c-.083-.084-.083-.252-.083-.42.084-.251.42-.419.67-.251z" fill="#f24c64"/><path d="M27.591 22.483c.084-.252.168-.503.168-.755 0-.336-.084-.671-.252-.923l.672-2.434c.251-1.007.251-2.014-.168-2.937l-1.51-3.609h-.588v3.19c.503.167.923.67.923 1.258s-.42 1.091-.923 1.175v2.182h-.672v-2.182c-.503-.168-.923-.671-.923-1.175 0-.587.42-1.09.923-1.259v-3.189h-.587l-1.51 3.609c-.42.923-.42 1.93-.168 2.937l.671 2.434c-.168.252-.252.587-.252.923 0 .252.084.503.168.755l-1.762 3.357 1.93 1.175 1.51-3.105v-.084h.672v.084l1.51 3.105 1.93-1.175z" fill="#26b759"/><path d="M30.78 25 27.423 27.1c-.252.168-.335.503-.168.84.84 1.258 2.938 4.866 2.938 8.391 0 2.937-.756 5.707-1.343 7.3a1.558 1.558 0 0 0 .839 1.931c.84.42 1.93-.084 2.182-1.007.839-2.853 1.93-8.811-1.091-15.693-.42-.923-.252-1.93.252-2.685l.335-.504c.084-.084.084-.252.084-.42-.084-.251-.42-.419-.671-.251z" fill="#f24c64"/><path d="M25.661 22.903a1.259 1.259 0 1 0 0-2.518 1.259 1.259 0 0 0 0 2.518z" fill="#ce2951"/><path d="M56.544 18.707C58.727 13.168 64.517 13 64.517 13h2.937c.168 0 .336.084.42.252.335.671 1.007 1.091 1.846 1.091s1.51-.42 1.846-1.091a.462.462 0 0 1 .42-.252h2.685c.168 0 .252.168.252.252v4.28c0 .168-.168.252-.252.252h-2.685a.462.462 0 0 1-.42-.252c-.336-.671-1.007-1.091-1.846-1.091h-.168c-1.007.084-1.762 1.007-1.762 2.014V42.875h-3.273V17.784c-1.93-2.518-5.874 0-7.553 1.258-.168.168-.503 0-.42-.335z" fill="#f24c64"/><path d="M64.265 46.735V36.75h3.776v9.986c.336.168.504.42.504.84 0 .503-.42.923-.923.923H64.6a.931.931 0 0 1-.923-.923c.084-.336.335-.672.587-.84z" fill="#ce2951"/><g filter="url(#b)"><path d="m33.514 116.689 45.05-7.212 2.332-19.27.466-10.874-1.282-22.03-39.34 1.184-3.846 2.422-1.923 6.592 1.224 11.438.466 10.93-.466 8.903-.875 8.958z" fill="#095411"/><path d="m78.566 109.48-1.515-.338c0-.057 2.098-8.508 2.68-13.072 1.166-8.902 1.108-18.93-.058-31.608v-.225c-.291-3.325-.699-7.1 1.05-10.255.99-1.746 2.972-3.324 5.128-2.704 2.331.676 3.322 3.662 3.963 5.634.058.226.117.45.233.62l-1.515.507c-.058-.17-.117-.394-.233-.62-.525-1.634-1.34-4.17-2.914-4.62-1.224-.338-2.565.733-3.264 1.972-1.515 2.76-1.165 6.085-.874 9.353v.225c1.224 12.734 1.224 22.876.058 31.89-.583 4.677-2.622 12.903-2.739 13.241z" fill="#fff"/><path d="m38.994 58.433 1.632-.45 43.827-6.93s3.788-1.071 5.536 6.479l-45.05 7.212c-.059 0-.933-2.818-1.108-3.156-.466-1.014-1.282-1.915-2.214-2.591-.816-.508-1.69-.508-2.623-.564z" fill="#4fd875"/><path d="m89.829 56.964-45.034 7.46.118.667 45.034-7.461z" fill="#4fd875"/><path d="M37.36 167.627h-.116c-.758-.056-1.282-.676-1.224-1.409l8.16-95.839c.058-.732.699-1.24 1.456-1.183.758.057 1.283.676 1.224 1.409l-8.16 95.839c-.057.676-.64 1.183-1.34 1.183zM60.031 189.993c-.757 0-1.34-.564-1.34-1.296l-1.574-59.893c0-.732.583-1.352 1.34-1.352.758 0 1.4.564 1.4 1.296l1.573 59.892c0 .733-.641 1.353-1.399 1.353zM104.969 176.418c-.641 0-1.224-.451-1.341-1.071l-9.966-53.75c-.116-.733.35-1.409 1.108-1.522.757-.112 1.457.338 1.573 1.071l9.966 53.751c.117.732-.35 1.408-1.107 1.521h-.233z" fill="#095411"/><path d="m44.879 64.74 9.5 65.189 46.158-9.691L89.93 57.304z" fill="#e8f4e8"/><path d="M44.88 64.744c-.525-2.254-1.69-5.522-4.138-6.254-2.156-.62-4.138 1.014-5.129 2.704-1.748 3.156-1.398 6.93-1.049 10.255v.225c1.224 12.62 1.224 22.706.059 31.608-.583 4.564-2.565 12.621-2.623 12.677l1.457.733c.058-.338 2.156-8.564 2.74-13.241 1.165-9.014 1.165-19.156-.06-31.89v-.225c-.29-3.268-.64-6.648.875-9.353.7-1.24 2.04-2.31 3.264-1.972 3.497 1.014 3.555 8.17 3.963 11.156l2.273 15.382c.932 6.254 1.865 12.564 2.797 18.818.816 5.409 1.632 10.818 2.39 16.227.35 2.535.582 4 .932 6.536l.117 1.183 1.457.619c-.292-2.084-.583-4.169-.933-6.254-.757-5.014-1.457-10.085-2.214-15.099-.875-6.142-1.807-12.283-2.681-18.48-.816-5.466-1.574-10.875-2.39-16.34-.408-2.874-.7-5.804-1.282-8.677.233-.113.175-.225.175-.338z" fill="#4fd875"/><path d="M50.36 83.393c.116-.113.233-.113.35-.113.059 0 .059.056.059.056l-.059.113c-.058 0-.175 0-.35-.056z" fill="#f24c64"/><path d="M71.46 85.027c-.176.113-.35.225-.467.282l-1.049.676c-.583.394-1.166.789-1.807 1.183l-.175.169c-.058.056-.116.113-.174.113s-.059-.113-.117-.17c-.117-.62-.233-1.183-.35-1.802 0-.113-.058-.17-.058-.282h-.058v.282c.175.901.35 1.859.524 2.76.117.508.233.958.292 1.465.116.507.233 1.014.291 1.522.058.281.117.563.175.901 0 .113-.058.17-.175.17-.116 0-.175.055-.116.168.058.45.174.958.233 1.409v.338c-.059-.226-.117-.395-.175-.62-.058-.338-.117-.62-.175-.958v-.169c0-.113-.058-.169-.175-.113-.175.057-.233 0-.291-.225-.059-.45-.175-.958-.233-1.409-.175-.788-.292-1.577-.467-2.31-.116-.62-.291-1.295-.408-1.915-.058-.395-.174-.733-.233-1.127a.422.422 0 0 0-.116-.225h-.059v.225c.117.62.234 1.183.408 1.803.059.169-.058.338-.291.394l-1.748.338c-.117 0-.234.057-.408.113 0 .113 0 .225.058.338.175.845.35 1.747.524 2.592l.35 1.69c.058.226 0 .282-.233.282-.291.056-.291.056-.233.338.058.225.058.394.058.62l.175.676c.058.169.058.338.117.563h-.059c-.058-.112-.058-.169-.116-.281-.059-.508-.175-.958-.233-1.465-.059-.395-.059-.395-.525-.338-.291.056-.35 0-.35-.226-.116-.62-.233-1.296-.35-1.915-.116-.62-.232-1.184-.349-1.803-.117-.451-.233-.902-.291-1.353-.117-.676-.292-1.296-.234-1.972.059-.507 0-.957-.058-1.465 0-.112-.058-.169-.175-.112-.524.112-1.049.225-1.573.281-.175.057-.233.113-.175.282.117.338.291.676.408 1.014l.175.845c.175.958.408 1.916.583 2.874.174.789.35 1.634.466 2.423.058.394.175.789.291 1.183.058.282-.058.338-.291.394-.292 0-.292 0-.233.282v.225c-.059-.112-.059-.169-.059-.225-.058-.282-.058-.282-.408-.225-.116 0-.29.112-.408 0-.058-.057-.116-.113-.116-.17-.175-.844-.35-1.746-.525-2.591-.233-1.07-.408-2.197-.64-3.268-.059-.338-.117-.676-.234-.958-.175-.45-.175-.901-.233-1.352 0-.282-.116-.338-.408-.282-.466.057-.932.17-1.399.226a.54.54 0 0 0-.291.056c-.058 0-.058.056-.058.056l.058.057c.058.056.117.112.117.169l.35 1.859c.116.62.29 1.24.407 1.803l.525 2.535.35 1.69c.058.17.058.282.116.451.058.113 0 .226-.117.226-.116 0-.233.056-.408.056.059.676.234 1.409.35 2.085h-.116c-.059-.395-.175-.733-.234-1.127-.058-.282-.116-.507-.116-.789 0-.113-.058-.225-.233-.169-.059 0-.117.056-.175.056-.291.057-.408.057-.466-.281-.059-.451-.175-.958-.233-1.409-.059-.45-.175-.845-.292-1.296-.175-.901-.35-1.859-.583-2.76-.175-.733-.291-1.465-.466-2.198-.116-.45-.175-.901-.291-1.408 0-.113 0-.17.116-.226.175-.056.175-.113.175-.282-.058-.394-.058-.394-.466-.281-.466.056-.874.169-1.34.225-.234.056-.292 0-.35-.225-.059-.338-.117-.733-.175-1.07-.058-.17-.117-.226-.35-.17-.466.113-.99.226-1.515.282-.117 0-.35.113-.35-.056-.058-.17.175-.17.35-.17.524-.112 1.049-.169 1.573-.281.117 0 .175-.113.175-.226-.058-.394-.175-.788-.233-1.183v-.338s.058-.056.117-.056c.583-.113 1.107-.226 1.69-.282.175 0 .233-.113.175-.225-.059-.17-.059-.282-.117-.45a.76.76 0 0 1 .117-.62c-.059-.057-.117-.057-.233-.113.174 0 .233-.113.35 0h.058c.757-.17 1.573-.282 2.33-.451.176-.057.35-.113.467.112.058.057.233.113.291.057.117-.057.234-.17.292-.226.058-.112.116-.225.233-.225l.874-.169c.408-.056.816-.169 1.224-.225.117 0 .233.056.292.112.116.113.29.226.466.113.116-.056.233-.113.175-.282-.117-.45-.175-.845-.233-1.296l-.35-2.028c-.058-.169-.058-.394-.117-.563-.058-.17 0-.226.175-.282.525-.113 1.107-.225 1.632-.338.291-.056.466 0 .524.338l.35 1.69c.058.282.117.507.175.733 0 .056.058.112.117.112.233 0 .233-.056.29-.169.176.113.35.057.467 0 .058 0 .058-.112.058-.112-.058-.338-.116-.62-.174-.958-.117-.564-.233-1.07-.35-1.634-.058-.169 0-.225.175-.169.466.113.932.169 1.399.282.35.056.699.112 1.107.169s.874.112 1.282.225l.525.17c.174.055.408.055.582.055l1.924.338h.058c.466.057.466.057.524.508 0 .169 0 .338.059.507.058.225.116.45.233.62.116.112.233.281.524.225.35-.113.7-.113 1.05-.17.174 0 .349-.112.466-.225.058-.112.058-.225.058-.338 0-.281-.058-.281.233-.338.641-.112 1.224-.225 1.865-.338.35-.056.7-.169 1.049-.225.35-.057.641-.113.99-.17.176-.056.35-.056.525-.112.059 0 .175 0 .233.056.175.113.408.226.583.395.059 0 .059.056.117.113.116.732.233 1.464.408 2.197 0 .169.116.225.291.169.117-.056.292-.056.408-.056.175 0 .292-.113.408-.282.117-.17.175-.338.35-.45.175-.114.35-.114.524-.17.35-.056.641-.113.991-.169.175-.056.35-.169.466-.282.175-.281.35-.394.7-.45.816-.113 1.632-.282 2.447-.451.117 0 .175-.056.234-.056.116 0 .174.056.233.112l-.175.17c-.292.056-.641.112-.933.168-.466.113-.99.17-1.457.282l-.058.056.117.113c.058.056.174.113.233.17.058.055 0 .112.058.168h-.175c-.175-.056-.408-.169-.583-.225-.174-.057-.291-.057-.408.112-.058.113-.174.226-.291.338-.058.057-.117.057-.175.057-.408.056-.757.169-1.165.225.116.226.233.338.466.282.116 0 .233-.056.35-.056.058 0 .233.056.233.112.058.113-.059.17-.117.17 0 0-.058 0-.058.056.175.056.291.169.466.225.35.113.641.225.99.282h.234c.816-.17 1.69-.282 2.506-.451.233-.056.524-.113.758-.113.058 0 .233.057.233.057.058.112-.059.169-.175.169-.99.169-1.923.338-2.914.563-.058 0-.117 0-.175.056-.233.057-.466.113-.7-.056-.35-.225-.757-.225-1.223-.056-.233.056-.525.112-.816.169-.117 0-.233 0-.292-.057-.174-.112-.35-.281-.524-.338-.117-.056-.233-.056-.408-.056-.117 0-.291.056-.408.056-.233.057-.233.057-.233.282.116.45.175.902.291 1.409v.169c0 .112.059.225.233.169.175-.057.234 0 .234.169.116.732.29 1.408.407 2.14.117.508.175.959.292 1.466.058.338.175.732.233 1.07.117.564.233 1.07.291 1.634.059.394.175.789.233 1.183.117.62.292 1.24.408 1.86 0 .112 0 .169-.116.169-.117.056-.292.056-.466.112.174.733.291 1.522.466 2.254-.058.056-.175.113-.175-.056-.058-.451-.175-.958-.233-1.409-.058-.225-.117-.507-.175-.732 0-.057-.058-.057-.117-.057-.116 0-.29.057-.407.057-.292-.226-.234-.564-.292-.902l-.35-1.86c-.174-.9-.35-1.746-.524-2.647a9.534 9.534 0 0 0-.292-1.24c-.058-.338-.116-.62-.174-.958-.059-.225-.117-.507-.175-.732v-.338c-.233.056-.525.056-.758.113-.233.056-.524.112-.757.169-.175 0-.234.112-.117.225.175.225.175.45.233.732.117.62.233 1.24.35 1.803l.35 1.86c.116.676.29 1.352.466 1.972.116.563.233 1.183.35 1.746.058.17-.117.451-.292.451-.117.056-.117.113-.117.225.117.62.234 1.296.35 1.916v.17c0-.057-.058-.057-.058-.114-.117-.45-.175-.957-.233-1.408-.059-.226-.059-.45-.117-.676 0-.057-.116-.057-.175-.057-.175 0-.35.057-.466-.056-.058-.056-.058-.113-.058-.169-.059-.338-.117-.62-.175-.958-.117-.45-.175-.901-.291-1.352-.059-.282-.117-.563-.117-.789-.058-.394-.175-.789-.233-1.183l-.35-1.69c-.116-.507-.233-1.014-.291-1.522-.059-.225 0-.507 0-.788v-.226c-.466.113-.933.17-1.399.282-.408.056-.466.056-.524-.394-.059-.395-.175-.451-.583-.395-.117 0-.233 0-.35.057-.35.056-.641.169-.99.169-.234.056-.234.225-.292.394 0 .113 0 .169.058.282 0 .056.058.056.117.056h.466c.175 0 .233.056.291.225.117.282.233.564.408.846.175.281.233.62.292.957.175.733.291 1.409.408 2.141.175.902.35 1.747.524 2.648.117.62.233 1.184.35 1.803.058.226-.058.338-.233.338-.059 0-.117.057-.175.113-.117 0-.233-.056-.291-.056-.175 0-.292-.057-.292-.226-.175-.901-.408-1.859-.583-2.76-.233-1.127-.466-2.31-.699-3.437-.058-.338-.117-.62-.233-.902 0-.112-.058-.112-.175-.056-.291.169-.641.338-.932.563-.35.226-.758.507-1.108.733-.116.056-.116.169 0 .225.117.057.292.113.408.17.058 0 .058.056.117.112l.35 2.028c.116.564.174 1.183.29 1.747.117.45.176.901.292 1.352l.175.845c0 .113-.058.226-.175.226l-1.049.169c-.233.056-.233 0-.291-.226-.117-.732-.292-1.408-.408-2.14-.117-.62-.233-1.24-.408-1.804-.058-.394-.175-.732-.233-1.127 0-.056 0-.112.058-.112.117-.282.291-.62.408-.902.117-.056.117-.112.058-.225.058.056.058 0 0 0zm-5.829-11.1v.113c.058.45.175.845.233 1.296.059.394.175.732.233 1.127 0 .056-.058.169-.116.169-.175.056-.175.169-.117.282 0 .112.059.225.059.394.058.394.174.789.233 1.183.116.564.233 1.127.291 1.69 0 .057.117.113.175.113.117 0 .291-.056.408-.056.058 0 .116 0 .175.056-.059.057-.059.113-.117.17-.058.056-.175 0-.233.056-.291.056-.291.056-.233.338.058.338.117.732.233 1.07.058.394.175.789.291 1.183.117.564.175 1.127.292 1.634.116.733.291 1.409.466 2.141.058.17.117.226.233.113.408-.225.758-.507 1.166-.733l1.049-.676c.291-.169.524-.394.816-.563.524-.338 1.107-.676 1.632-1.07.291-.17.524-.395.816-.564.233-.113.291-.282.233-.507l-.525-2.536a8.864 8.864 0 0 0-.233-1.07c-.408.056-.816.169-1.224.225-.466.113-.932.17-1.457.282-.058 0-.116-.056-.175-.056.059-.057.059-.113.117-.113.116-.056.233-.056.291-.056.525-.113 1.05-.17 1.574-.282.233-.056.466-.113.7-.113l-.35-1.859c0-.056-.059-.113-.175-.17-.233-.112-.292-.28-.35-.45-.058-.112-.058-.281-.058-.45-.059-.339-.117-.677-.175-.958 0-.057-.058-.113-.117-.17-.524-.112-.99-.168-1.515-.281s-1.049-.17-1.574-.282c-.524-.112-1.107-.169-1.631-.281-.233-.057-.408-.057-.641-.113-.175-.113-.408-.17-.7-.226zm10.957 1.747.233.225c-.117.057-.175.113-.291.113-.408.113-.816.225-1.166.282-.058 0-.058.056-.058.112.058.282.058.564.116.846.059.394.175.732.233 1.127 0 .112.059.168.175.112.175-.056.408-.056.583-.112.058 0 .117 0 .175.056 0 .056 0 .112-.058.169-.059.056-.117.056-.175.056-.233 0-.408.056-.641.056.058.226.058.395.116.62.117.507.233 1.07.35 1.578 0 .169.058.169.175.113.233-.057.408-.113.64-.113.176-.056.35-.056.467-.113.058 0 .117.057.117.113s-.059.113-.117.113c-.35.056-.7.112-1.049.225-.058 0-.116 0-.116.056 0 0-.059.057-.059.113 0 0 .059.056.117.056.583-.112 1.165-.225 1.69-.338.058 0 .058-.056.058-.112 0-.057-.058-.057-.058-.113-.058-.056-.117-.113-.117-.17 0-.056.059-.112.117-.112.583-.113 1.107-.225 1.69-.338.058 0 .175.056.233.113-.058.056-.116.112-.175.112a33.94 33.94 0 0 1-.99.17c-.117 0-.233.056-.35.056.058.169.117.225.291.169.408-.056.758-.17 1.166-.226.175-.056.35-.112.641-.169-.058-.112-.117-.169-.175-.225 0-.056-.058-.056-.116-.056 0-.057.058-.057.058-.113.058-.056.058-.169.058-.225 0-.17-.058-.338-.116-.507-.059-.282-.117-.507-.117-.79 0-.112-.058-.224-.233-.168-.058 0-.117 0-.175-.057.058-.056.117-.056.175-.112s.117-.057.117-.113c0-.113-.059-.282-.059-.394-.233.056-.466.112-.7.112-.057 0-.057.057-.057.057s-.059.056-.059.112c0-.056-.058-.056-.058-.112 0-.057-.058-.17-.058-.226 0-.056.058-.056.116-.112.233 0 .525-.057.758-.057 0-.112 0-.225-.058-.338 0-.112 0-.225-.175-.225 0 0-.059-.113 0-.113.116-.056.116-.225.116-.282-.058-.338-.116-.676-.233-1.014-.058-.169-.058-.281-.116-.45-.117.056-.175.056-.292.112-.233.057-.524.113-.757.17-.35.056-.7.168-1.05.225-.174.056-.174-.057-.174-.17v-.112c-.058.225-.35.282-.583.338zm-20.69 6.817c.059.226.059.395.117.564.116.563.233 1.183.408 1.747.058.225.233.338.408.281.7-.169 1.457-.281 2.156-.45.117 0 .175-.113.175-.226-.058-.338-.116-.676-.175-.958-.058-.45-.175-.845-.291-1.296 0-.112-.117-.169-.233-.112-.059 0-.117-.057-.175-.057l.116-.112c.175-.057.175-.113.175-.282l-.175-.845c-.116-.45-.174-.902-.29-1.352 0-.113-.06-.17-.176-.113l-.874.169c-.35.056-.7.169-1.049.225-.291.057-.408.17-.35.451.059.225.117.507.175.733.058.225 0 .281-.175.394-.058.056-.058.113-.058.169.058.225.117.507.117.732 0 .17.116.226.291.17.233-.057.524-.113.758-.17.116 0 .233 0 .233.113 0 .056-.117.113-.175.113-.233 0-.583.056-.933.112zm9.442 5.071c.291-.056.524-.112.816-.169.116 0 .116-.056.116-.169l-.175-1.014c-.116-.507-.174-.958-.29-1.465-.176-.845-.35-1.634-.467-2.479-.059-.45-.175-.845-.292-1.296 0-.112-.058-.169-.174-.169-.525.113-1.05.226-1.574.282-.175 0-.175.113-.175.225.058.395.117.79.233 1.24l.35 1.86c.117.506.175.957.291 1.464.117.563.233 1.183.35 1.747 0 .112.117.169.233.169.292-.113.525-.17.758-.226zm-4.896-3.155 1.923-.338c.117 0 .117-.113.117-.225-.117-.733-.291-1.465-.408-2.254-.058-.225-.058-.225-.291-.169-.408.056-.816.169-1.224.225-.058 0-.117-.056-.175-.056.058-.056.117-.113.175-.113h.116c.35-.056.758-.112 1.108-.225.116 0 .175-.056.175-.225a7.755 7.755 0 0 0-.234-1.127c-.058-.395-.174-.79-.233-1.184 0-.056-.116-.112-.116-.112-.525.056-1.108.169-1.632.282-.175.056-.292.169-.233.338 0 .225.058.394.116.62.117.563.233 1.126.35 1.746.117.62.233 1.296.35 1.916-.059.225 0 .563.116.901zm3.614-3.606c.291-.056.524-.056.816-.113.058 0 .116-.112.116-.112-.116-.45-.175-.958-.291-1.409-.117-.507-.175-.958-.292-1.465-.058-.281 0-.676-.408-.788 0 0-.058-.057-.058-.113-.116-.564-.175-1.127-.291-1.69l-.175-.846c0-.056-.117-.112-.117-.112-.291.056-.582.112-.874.112-.408.057-.408.113-.35.508 0 .112 0 .225.059.281.175.902.35 1.86.524 2.761 0 .113.059.282.059.45a1.12 1.12 0 0 0 0 .62c.174.677.233 1.41.35 2.085 0 .113.058.17.174.113.233-.225.525-.282.758-.282zM62.193 93.31c-.117-.676-.233-1.296-.35-1.972l-.35-1.859c-.058-.394-.175-.845-.233-1.24-.116-.507-.233-1.07-.35-1.577-.116-.395-.233-.845-.407-1.24 0-.056-.059-.056-.117-.056-.233.056-.466.056-.7.113-.058 0-.116.112-.116.112.058.338.058.676.117.958.116.733.291 1.465.466 2.254.116.676.291 1.352.408 2.028l.35 1.522.174.845c.059.225.059.225.35.169.058 0 .175-.113.175-.113 0-.17-.058-.282-.175-.45-.058-.113-.117-.17-.058-.282.058-.057.175-.057.233-.057.116.057.116.17.058.282s0 .282 0 .45c.175.113.35.113.525.113-.059 0-.059 0 0 0zm-4.546-.169c.058.338.175.62.233.902 0 .056.058.112.116.056.117 0 .234-.056.35-.113 0 0-.058-.169-.058-.225v-.056c-.058-.057-.058-.113-.117-.17-.175-.056-.116-.168-.116-.225.058-.169.233-.112.291-.056.117 0 .175.169.117.225-.117.17-.059.282-.059.451 0 .113.059.17.175.113.117 0 .117-.057.117-.17-.058-.45-.117-.9-.233-1.351-.117-.62-.233-1.24-.408-1.86-.117-.676-.233-1.352-.408-2.028-.058-.45-.175-.902-.292-1.352-.116-.451-.174-.902-.291-1.353 0-.056-.058-.112-.117-.112-.233 0-.466.056-.699.056-.117 0-.175.056-.175.225.058.339.117.733.175 1.071.175.901.35 1.803.583 2.704l.35 1.86c.291.507.408.958.466 1.408zm24.07-12.339H81.6c-.233.282-.408.62-.641.902v.112c0 .113.058.282.116.395.117.507.234 1.07.292 1.577.116.564.233 1.184.35 1.747.174.789.291 1.578.466 2.366.116.451.175.902.291 1.296 0 .057.058.113.117.113.116 0 .233-.056.233-.113 0-.169.116-.338-.117-.507-.058-.056 0-.169 0-.225.059 0 .175-.056.233 0 .059 0 .059.113.059.225v.507c.408 0 .408 0 .35-.281l-.35-1.69c-.059-.395-.175-.79-.233-1.184-.117-.62-.234-1.183-.35-1.803-.175-.732-.291-1.521-.466-2.254-.059-.394-.117-.788-.233-1.183zM64.699 92.07c-.058-.226-.058-.395-.117-.564-.058-.394-.116-.789-.233-1.24-.116-.619-.233-1.239-.35-1.802-.116-.676-.233-1.409-.408-2.085-.058-.394-.174-.789-.291-1.183-.058-.394-.058-.394-.466-.338-.117 0-.117.056-.117.169v.563c0 .507 0 .958.059 1.465.116.733.29 1.465.466 2.198.116.507.233 1.07.291 1.577.117.62.233 1.24.408 1.916 0 .113.117.169.233.113.059 0 .175-.057.292-.113-.059-.17-.175-.282-.233-.45v-.226c.116-.057.233-.057.466 0zm13.52-9.466c.06.282.117.564.176.845.233 1.014.408 2.029.64 3.1.176.9.35 1.802.525 2.76.059.169.059.338.117.507 0 .056.116.113.175.113.116 0 .233-.057.233-.113.058-.113-.058-.338-.175-.45a.421.421 0 0 1-.117-.226c.059-.056.117-.17.233-.17.059 0 .175.057.234.114 0 0 .058.112 0 .112-.175.113-.117.282-.059.451 0 .056.059.113.117.113.116 0 .175-.057.116-.17-.058-.281-.116-.62-.174-.957-.117-.676-.292-1.296-.408-1.972-.059-.338-.117-.676-.234-1.07-.058-.339-.116-.677-.233-1.015-.175-.676-.291-1.352-.466-2.028 0-.113-.058-.113-.175-.113a2.783 2.783 0 0 1-.524.17zM72.1 90.492s.059 0 0 0c.059.225.117.395.175.62.058.113.117.225.292.169.233-.056.408-.113.64-.113.175-.056.175-.112.175-.281-.058-.226-.058-.395-.116-.62-.117-.507-.175-1.014-.291-1.465-.059-.17-.059-.338-.059-.507-.058-.226-.058-.45-.116-.676-.059-.338-.175-.733-.233-1.07-.059-.339-.175-.677-.233-1.015 0-.056-.059-.113-.059-.113-.058.057-.116.057-.116.113-.059.056-.059.113-.059.169-.116.394-.291.732-.408 1.127 0 .056-.058.056-.058.113-.058.056-.117.169-.058.225.058.45.175.845.233 1.296.058.676.175 1.352.291 2.028zm-6.294-10.029h.35c.233-.056.233-.056.233-.281-.117-.508-.233-.958-.292-1.466-.058-.337-.116-.732-.174-1.07-.059-.225-.117-.507-.175-.732 0-.113-.059-.17-.233-.17l-.874.17c-.059 0-.117.112-.117.112l.175.845c.116.564.233 1.127.35 1.634.058.282.116.62.174.902 0 .113.059.169.175.113.117 0 .291-.057.408-.057zm10.549 9.297v-.113c-.059-.338-.117-.62-.175-.958-.117-.62-.233-1.24-.35-1.916-.116-.676-.291-1.352-.408-2.028-.058-.338-.116-.676-.233-1.014 0-.056-.116-.113-.175-.113-.116 0-.233 0-.35-.056-.116 0-.174 0-.174.169.116.676.291 1.296.408 1.972.058.225.116.394.116.62.059.394.117.845.234 1.24.116.45.174.9.29 1.352l.35 1.52c0 .057.117.113.175.113s.117-.056.117-.112c0-.113 0-.282-.175-.395a.157.157 0 0 1 0-.281c.117 0 .233.056.35 0zm-9.85-5.522c.117-.056.234-.056.408-.056s.233-.113.175-.282c-.058-.282-.116-.62-.233-.901-.058-.338-.116-.733-.233-1.07-.058-.395-.175-.79-.233-1.184 0-.057-.117-.17-.175-.17-.291.057-.583.113-.932.17-.059 0-.117.113-.117.169.058.338.117.62.175.958.175.789.291 1.577.466 2.366 0 .113.117.17.233.113.233-.056.35-.056.466-.113zm8.626-7.437c-.35.056-.7.056-.99.113-.35.056-.7.169-1.108.225-.058 0-.117.056-.117.113 0 .112 0 .169.059.281.116.451.174.845.291 1.296.058.17.116.226.233.17.466-.113.933-.17 1.399-.282.175-.057.35-.057.583-.113-.117-.62-.233-1.24-.35-1.803zm.758 3.831c-.059-.169-.059-.282-.059-.45-.116-.451-.175-.846-.233-1.296 0-.113-.058-.113-.175-.113-.64.113-1.282.282-1.923.394-.116 0-.116.057-.116.17.116.506.174 1.013.29 1.52 0 .057.06.057.06.113.116-.056.174-.056.232-.056.35-.056.7-.113 1.05-.113.29-.113.524-.282.874-.169zm-16.727 2.48.175.844c0 .113.058.17.233.113a.383.383 0 0 1 .35 0c.116 0 .175 0 .175-.113 0-.169-.059-.394-.059-.563-.058-.45-.175-.902-.233-1.352-.058-.395-.175-.845-.233-1.24-.117-.45-.175-.901-.291-1.352-.059-.169-.059-.225-.233-.113-.117.057-.175.057-.292.057-.175 0-.233.056-.175.225v.113c.059.394.175.845.233 1.24.059.788.175 1.464.35 2.14zm9.092 8.394c-.35-2.084-.816-4.169-1.282-6.254h-.233c-.234 0-.292.057-.234.282.175.732.292 1.409.467 2.141.116.62.233 1.183.408 1.803.116.507.175.958.291 1.465.058.225.117.394.175.563.116-.056.233 0 .408 0zm-13.463-8.79c-.233.057-.466.114-.7.114-.116 0-.174.056-.116.169.058.338.175.732.233 1.07 0 .113.059.17.175.113.466-.113.933-.17 1.399-.282.058 0 .116-.113.116-.113a7.742 7.742 0 0 0-.233-1.127c0-.056-.116-.112-.174-.112a6.221 6.221 0 0 1-.7.169zm-.233-1.351-.7.169c-.058 0-.116.112-.116.169l.175.845c0 .056.116.112.175.112.466-.056.932-.169 1.398-.281.117 0 .175-.057.175-.226-.058-.281-.116-.507-.175-.788 0-.17-.116-.17-.233-.113-.233.056-.466.056-.699.113zm7.168-2.592v.113c.117.563.234 1.183.35 1.746.117.507.117.45.583.395.175 0 .175-.113.175-.226-.058-.45-.175-.845-.233-1.296a3.194 3.194 0 0 1-.117-.732c-.291.056-.524 0-.757 0zm.7 3.662c.058.282.116.62.175.902 0 .056.058.169.175.112.116-.056.29-.056.407-.056.175 0 .175-.056.175-.169-.058-.225-.116-.45-.116-.676-.058-.395-.175-.845-.233-1.24 0-.112-.059-.112-.175-.112-.117.056-.233.056-.35.056-.175 0-.175.056-.175.225 0 .338.059.62.117.958zm18.416-2.14h.117c.058-.114.175-.17.175-.283-.058-.394-.117-.845-.233-1.24 0-.056-.059-.112-.117-.168-.058-.226-.058-.507-.058-.733 0-.056-.117-.112-.175-.056-.058 0-.233 0-.175.17.058.168.058.393.292.506.116.056.116.113 0 .17-.175 0-.117.112-.117.225.058.225.058.394.117.62.058.225.116.506.174.788zm-.35-3.494c-.116 0-.174-.057-.232-.057 0-.056.058-.112.058-.169 0-.056.058-.169.058-.225l-.175-.845c-.058-.225-.174-.282-.408-.282.059.17.059.338.117.507.117.395.058.845.291 1.184v.056c0 .169 0 .338.059.507.058.113.174.056.233.056s.116-.056.116-.112c0-.17-.058-.395-.116-.62zm3.031.901c-.116-.338-.874-.45-1.107-.169.291.395.7.282 1.107.17zm-5.245 4.339c0-.057 0-.113.058-.17-.233.057-.291.113-.174.395.174-.056.35-.056.582-.113.059 0 .117-.056.117-.112-.058-.17 0-.338-.175-.395-.116.113-.175.17-.291.226.116 0 .233.056.291.056v.056c-.116 0-.233 0-.408.057zm-18.766 2.648c0 .169 0 .282.058.394 0 .057.058.113.058.17.059-.057.175-.057.175-.113.059-.113.175-.17.292-.113.058 0 .116.056.116.056l.058-.056c-.058-.056-.058-.17-.116-.225 0 0-.117.056-.175.112-.116.057-.175.057-.35.057.059-.113.175-.282-.116-.282zm15.153-1.634v-.113h-.175c-.058.057-.058.113-.058.17 0 .112.058.225.116.225.175.056.35.112.525 0-.059-.226-.233-.057-.408-.113.116-.056.175-.113.291-.17h-.291zm-9.966 9.184c-.233.169-.292.338-.175.507 0 .056.117.056.117.056.058 0 .116-.056.116-.113 0-.169 0-.281-.058-.45zm11.772-2.085c-.058-.056-.058-.113-.116-.169-.059.056-.117.113-.117.17 0 .055 0 .168.058.28 0 .057.117.057.117.057.058 0 .058-.056.117-.113 0-.056-.059-.112-.059-.225zm1.632-14.818c0 .056 0 .056 0 0 .233 0 .525-.056.758-.113v-.056c-.292.113-.525.169-.758.169zM56.54 85.309c-.117-.057-.175-.057-.234-.057s-.116.113-.174.17c.058.056.116.112.174.056.059 0 .117-.113.234-.17zm24.536-4.282c0-.057 0-.057 0 0-.117 0-.175.056-.234.112 0 .057 0 .113.059.17.058-.057.116-.057.116-.113.059-.057.059-.113.059-.17zm-9.733 5.465h.116c-.175-.226.117-.282.117-.45-.117.055-.233.055-.233.112-.059.112 0 .225 0 .338zm-8.101-2.423c-.175-.113-.408-.056-.466.17.174-.114.29-.114.466-.17zm11.015-1.86-.059.057c.059.056.059.113.117.113s.117-.057.175-.113c-.058 0-.175-.056-.233-.056zm.116.62c.117-.056.233-.056.35-.112 0-.057 0-.057-.058-.113-.117.056-.175.056-.292.113zm8.334-5.634v-.056c-.058 0-.116-.056-.174-.056s-.117.112-.117.112 0 .057.058.057c.059 0 .117-.057.233-.057zm-15.444 7.607c-.175.112-.058.225 0 .338h.058c-.058-.113-.058-.226-.058-.338zm-10.315.788v-.112c-.059 0-.175-.057-.234-.057 0 0 0 .057-.058.113.117.056.233.056.292.056z" fill="#ce2951"/><g fill="#f24c64"><path d="M89.756 76.126c-1.282.226-2.623.507-3.905.733h-.117v-.056c.175-.057.35-.113.525-.113.816-.17 1.632-.282 2.39-.451.29-.056.64-.169.932-.225.058 0 .116.056.175.056s0 0 0 .056zM83.23 92.406c-.117-.112-.234-.225-.117-.337s.35-.17.466-.057.174.226.058.338c.175.17.233.338.116.507-.116.113-.35.169-.466.113-.116-.17-.174-.338-.058-.563zm.057.226c.117.056.175.112.233.112.059-.056.117-.112.117-.169s-.117-.112-.175-.169c-.058.113-.058.17-.175.226zm.292-.45c-.117-.057-.175-.057-.175-.057-.058 0-.058.056-.117.113.059 0 .117.056.175.056l.117-.113zM77.168 93.363c-.058 0-.117.057-.175 0-.233-.056-.291-.056-.233.226.117-.113.291-.113.408 0s.175.281.116.394c-.058.112-.174.169-.29.225-.234 0-.35-.169-.408-.507-.059-.281.058-.45.232-.45.117-.113.233-.057.35.112zm-.466.507c.116.056.175.113.291.17 0-.057.058-.17.058-.226s-.116-.113-.174-.17c0 .057-.059.113-.175.226zM73.088 94.55c.116 0 .175.056.233.056h.233c0-.113.058-.17 0-.282 0-.056-.117-.056-.233-.056-.058 0-.117.056-.233.169v-.62c.175-.056.35-.056.524-.112 0 .056 0 .112.058.169-.116.112-.35 0-.35.225.35-.056.467.056.525.281.058.17-.058.338-.233.395-.291.056-.408 0-.524-.226zM62.19 96.747c.175-.057.291-.057.408-.057 0 .057 0 .113.058.17-.233.056-.466.056-.7.112.06-.169.117-.281.234-.45.058-.113.116-.17.175-.282 0-.056-.059-.112-.059-.225-.058.056-.116.056-.174.112-.059.057-.117.057-.175.113-.058-.225.058-.281.175-.338s.29-.056.407.056c.117.113.117.226.059.338-.233.17-.292.282-.408.45zM69.066 95.674c-.058-.057-.116-.113-.174-.113v-.056c-.117 0-.233.056-.35.056-.116-.225.175-.9.408-.9.058.168.058.28.116.45 0 .056 0 .225.117.225 0 0 .058.113 0 .113 0 .056-.058.112-.117.168zm-.466-.338c.117 0 .175-.056.233-.056 0-.113-.058-.17-.058-.338-.058.169-.116.281-.175.394zM64.871 95.563l.233-.225c.117 0 .233 0 .35.056.058.057.058.17.058.226.058.169.175.281.175.394 0 .112-.117.225-.233.225-.117.056-.233-.056-.35-.056 0 0 0-.057-.058-.113.058 0 .116-.056.175-.056.058 0 .174.056.233.056 0-.056.058-.169.058-.169-.058-.056-.117-.112-.233-.169 0 0 .058-.056.058-.112v-.17c-.058 0-.116.057-.175.057-.058 0-.116.056-.174.056-.059.057-.059 0-.117 0zM80.78 93.476h-.174c.058-.281.116-.563.116-.844-.116 0-.233.056-.35.056 0-.056 0-.113-.058-.169.233-.056.408-.056.641-.113v.17c-.058.281-.116.562-.175.9zM58.402 96.968c0-.169.175-.45.35-.45.058.338.116.62.174.957-.058 0-.116.056-.174.056-.058-.225-.117-.45-.117-.675-.058.056-.116.056-.233.112zM84.513 77.081c-.058-.112-.058-.169.058-.225.233-.056.466-.056.7-.056.057 0 .115.056.174.056-.058.056-.117.113-.175.113-.233 0-.466.056-.757.112zM73.32 93.704c-.057-.394-.174-.788-.232-1.126h.058c.058.338.117.732.175 1.126 0-.056 0 0 0 0zM62.074 95.282c.058.169.117.281.175.45-.117 0-.175-.112-.175-.45zM90.281 75.845c.117 0 .176-.056.292-.056 0 0 .059 0 .117.056 0 .057-.058.057-.058.057-.117 0-.175 0-.292.056-.059-.056-.059-.056-.059-.113zM69.009 79.957c-.059.057-.117.113-.175.113-.117.057-.175.057-.292.057-.058 0-.116-.057-.116-.057.058-.056.058-.112.116-.112.175-.057.35-.057.467-.113-.059.056 0 .113 0 .113zM78.975 77.14c.175.057.35.226.292.395a.626.626 0 0 1-.291.113c-.117 0-.059-.113 0-.17v-.337zM79.092 78.436c.116 0 .175-.057.233-.057.117.057.233.113.408.17-.117.056-.175.112-.233.112-.175.057-.292-.056-.408-.225zM77.926 78.376h-.116c-.059-.056-.117-.056-.175-.112.058-.057.116-.057.175-.113h.116c.058 0 .233-.056.175.113 0 0-.058.056-.175.112zM78.973 77.984c0 .057.058.057.058.113v.17c-.058-.057-.117-.057-.175-.113 0 0-.058-.113 0-.113 0-.057.059-.113.059-.17 0 0 .058 0 .058.113 0-.056 0-.056 0 0zM72.972 90.492c-.117.113-.176.17-.234.283-.059-.057-.176-.113-.176-.17s.059-.17.117-.226c.117 0 .176.057.293.113z"/></g></g><path d="m182.639 101.48-12.667 42.279-6 31.774h-5.933l5.933-74.053z" fill="#e8a16d"/><path d="M188.373 101.48c-.867 21.977-.533 33.965-.333 35.963s1.333 15.339 9 38.734h-6.2c-10.134-22.428-13.734-35.834-14.867-38.734-1.133-2.965-4.6-14.953-9.6-35.963z" fill="#e8a16d"/><path d="M182.906 101.48c-3.334 14.565-9 37.767-17.134 69.67h-8.733c-.667-32.74 2.133-54.267 6.867-69.67z" fill="#095411"/><path d="M188.441 101.48c-.866 21.977 1.4 43.632 8.333 69.992h-9.333c-10.2-22.106-17.466-43.632-22.466-69.992z" fill="#137f3a"/><path d="m197.908 180.559-.333-5.349c-2 .58-4.534.322-7.534-.645-3.266 2.256-7.333 3.739-12.333 4.576-.4.065-.6.387-.533.774v.064l.466 1.611h19.6zM165.306 180.559l-.333-5.349c-2 .58-4.533.322-7.533-.645-3.267 2.256-7.334 3.739-12.333 4.576-.4.065-.6.387-.534.774v.064l.467 1.611h19.6z" fill="#82e59b"/><path d="M177.97 59.268c1.6-1.805 2.667-4.06 2.467-6.51-.534-7.154-10.867-5.607-12.867-1.998s-1.8 12.826.8 13.47c1.067.258 3.267-.387 5.467-1.676l-1.4 9.604h8.333z" fill="#e8a16d"/><path d="M173.504 53.533c-.333 4.318-1.133 6.445-2.533 6.445-2.067 0-3.8-1.29-4.667-1.29-.666 0-.533.774-.066 1.354.333.516 2.133.967 2.133 1.676s-1.4.193-1.4.644c0 .71-.267 2.127 1.067 2.127 1.333 0 5.2-.451 5.866-2.385.4-1.224.667-3.802.8-7.734h.267c1.133 0 2.067.903 2.067 1.998 0 .58-.267 1.096-.6 1.418.466.645 1 1.354 1.666 2.063 2.334-1.354 4.4-5.285 2.134-9.088-.6-1.869-2.4-2.836-4.067-3.287-1.333-.58-2.8-.58-3.933-.257-2.334.193-4.4.902-5 1.288 0 2.127.4 2.772 4.066 2.707.8.451 1.467 1.29 2.2 2.32z" fill="#095411"/><path d="M166.503 54.627c-.2 1.095-1.667 2.127-1.6 3.351.333.129.6.322.933.387.333.064.6 0 .933.129" fill="#e8a16d"/><path d="M167.1 53.403c.199-.129.333-.193.533-.258.199-.064.399-.128.666-.064.2.064.466.193.533.387a.479.479 0 0 1 .133.257c0 .065 0 .13.067.13v.128h-.067c0-.065-.133-.065-.2-.129-.066-.064-.2-.064-.266-.129-.133-.064-.267-.129-.4-.129-.133-.064-.267-.064-.466-.064-.134.064-.334 0-.533-.129zM167.571 54.758a.262.262 0 0 0 .267-.258.262.262 0 0 0-.267-.258.262.262 0 0 0-.266.258c0 .142.119.258.266.258z" fill="#095411"/><path d="m149.705 71.638-10.2-5.8c-4.8-.258-7-.71-6.734-1.354.4-.967 1.734-.516 2.134-1.096.4-.58-.934-2.191-2.267-3.609s-.267-1.482.4-1.353c2.2.837 4.467 2.19 6.933 4.06l13.134 3.802zm6.933 22.815-10.933 4.383c-3.067 3.544-4.8 4.962-5.2 4.382-.534-.902.666-1.675.4-2.32-.267-.644-2.334-.58-4.334-.451s-1.4-.709-.933-1.096c2-1.16 4.533-2.127 7.533-2.9l11.067-7.863z" fill="#e8a16d"/><path d="M171.37 67.45c-6 10.827-14.733 19.142-27.333 27.842l4.8 5.221c14.067-5.092 21.533-8.12 25.2-18.369.933-2.578 1.533-10.763 2.133-15.08z" fill="#82e59b"/><path d="M188.172 103.608h-26.666c6.067-17.853 9.133-30.034 9.266-36.672 0-.323.667-.967.934-.838 2.066.58 4.333.386 6.733-.645 6.333 9.797 8.533 21.913 9.733 38.155z" fill="#b7f9c1"/><path d="M176.171 65.453c-7.667.064-20.067 1.417-34.4-3.03l-1.4 6.832c10.8 6.703 21.8 11.923 31.333 11.214-4.2 17.273-4 31.452 5.2 31.452h14.2c2.267-14.695-3.666-35.06-9.2-45.308-.2-.387-.666-1.16-1.733-1.16h-4z" fill="#b7f9c1"/></g></svg>