<svg height="320" viewBox="0 0 248 320" width="248" xmlns="http://www.w3.org/2000/svg"><g fill="none" transform="translate(0 64.6733)"><g fill="#5ea7ef"><path d="m55.2135 20.4573c0 6.7904-4.4456 12.8072-11.2917 16.5034-1.6004.859-.5334 6.017-.8001 6.962-.2668.86-6.046-4.212-7.024-3.954-2.6673.602-5.5125.946-8.4465.946-15.2037 0-27.6512-9.1974-27.6512-20.4574 0-11.2601 12.3586-20.4573 27.6512-20.4573s27.5623 9.1972 27.5623 20.4573z"/><path d="m254.64 64.6377c0 8.51-9.691 15.3-21.694 15.3-7.469 0-14.048-2.664-17.96-6.704-.8-.774-8.269-1.032-7.38-1.719 1.423-1.032 4.357-2.837 4.09-3.782-.267-1.032-.444-2.063-.444-3.095 0-8.509 9.691-15.3 21.694-15.3s21.694 6.791 21.694 15.3z"/><path d="m64.7268 37.3907c0 7.392 5.4236 14.01 13.7812 18.05 1.956.946.6224 6.619 1.0669 7.564.3557.946 7.3796-4.556 8.6243-4.298 3.2897.688 6.7572 1.118 10.4025 1.118 18.6713 0 33.7863-10.057 33.7863-22.434 0-12.3779-15.115-22.4346-33.7863-22.4346-18.6712 0-33.8749 10.0567-33.8749 22.4346z"/></g><path d="m22.7611 103.1457 9.0688-.602c-5.3346 22.177-8.1797 33.78-8.5354 34.812-.8002 2.407 1.5116 5.759 2.4896 7.564-2.7563 1.461-2.7563-3.18-6.2238-1.289-3.1118 1.719-5.4235 4.555-9.3356 2.492-.4445-.258-1.0669-1.289.0889-2.149 2.934-2.234 7.0239-6.102 7.5574-7.306.7113-1.547 2.4006-12.721 4.8901-33.522z" fill="#ac5419"/><path d="m48.634 76.3277 3.5565-.859c7.1128 18.91 37.1646 30.084 39.4763 37.218.8891 2.579-1.0669 4.04.0889 4.813l-4.4455 3.611c-.8891-.86-2.4007.945-6.046 0-3.6453-.86-30.9409-21.919-32.6302-44.783z" fill="#fc6eb5"/><path d="m59.1256 56.9017c1.4225 5.072 3.2896 16.589 1.4225 18.395h-12.0918s0 0 0-.086c-4.4456-.516-7.9131-4.126-7.9131-8.596v-8.423c0-4.814 4.001-8.682 8.98-8.682h.8002c4.4455 0 8.1798 3.18 8.8022 7.392z" fill="#ffeaf4"/><path d="m45.1666 64.9817c-1.956-2.149-3.2008-4.813-3.023-7.822.6224-8.595 13.0699-6.704 15.4705-2.407 2.4006 4.298 2.1339 15.386-.978 16.16-1.2447.344-3.9121-.43-6.5794-2.063l1.6893 11.604h-9.9579z" fill="#ac5419"/><path d="m47.9227 63.5207c.4445 4.813.2668 10.228-1.0669 11.518h-12.0918c-.7113-11.26 5.8681-6.963 5.8681-17.535.4445-.344.8002-.774 1.1558-1.118v-.343c2.1339-4.126 4.7123-6.189 8.002-6.189 4.8012 0 6.3126 2.149 7.6463 4.04-.978 3.18-4.7122 3.696-8.0909 5.673-.3556-.344-.8891-.516-1.4226-.516-1.2448 0-2.3117 1.031-2.3117 2.235 0 1.203 1.0669 2.235 2.3117 2.235-.0889 0-.0889 0 0 0z" fill="#ffeaf4"/><path d="m117.184 143.3727c-8.269-7.994-13.959-13.925-16.982-17.879-5.2455-6.79-9.5133-12.807-10.9358-15.128-3.3786-5.587 5.4236-9.197 7.7352-6.704 3.5566 3.782 11.5586 16.073 24.0056 36.874z" fill="#ffeaf4"/><path d="m105.626 141.7397-17.249-32.061c-3.5565-5.759 10.1359-11.175 12.625-8.596 5.602 5.931 19.916 30.17 21.517 31.975z" fill="#a81e63"/><path d="m97.1717 145.3877c-2.0657-4.613-8.6549-20.977-10.6325-28.961-.5606-2.325-1.1085-4.53-1.5748-6.559-1.4116-6.21 10.0362-9.795 11.1722-3.802 2.7021 14.877 5.6084 35.907 5.9244 37.708.517 2.513-3.5708 4.532-4.8893 1.614z" fill="#ffeaf4"/><path d="m95.2457 143.6657c-.4452 1.253-.6653 2.131-.6287 2.752-.0085.695.1546 1.786.4577 3.155.8382-.034 8.6563-.291 23.5013-.846.575-1.981.168-3.007-1.098-3.111-1.343-.146-2.411-.239-3.281-.322l-11.004-4.315c-.23-.128-.442.055-.532.205l-.67 1.628c-1.198.635-2.171.895-2.933.972-.6396.044-1.4961-.232-2.5825-.635-.5048-.181-.9598.066-1.2298.517.045-.075.045-.075 0 0z" fill="#ffeaf4"/><path d="m113.806 142.3417c-.267 1.117-.445 1.977-.356 2.492.089.688.267 1.634.622 2.837.801-.086 7.825-.774 21.072-2.063.356-1.805-.089-2.751-1.245-2.751-1.155 0-2.222-.085-3.023-.085l-10.224-3.267c-.178-.086-.445 0-.445.258l-.444 1.547c-1.067.602-1.868.946-2.579 1.032-.533.086-1.333-.086-2.4-.43-.356-.172-.801 0-.978.43z" fill="#ffeaf4"/><path d="m84.1983 123.0017c-4.8012 9.455-8.98 15.471-19.4715 20.887-11.5584 4.469-21.0718.859-26.8509-12.12l19.2935-11.518c3.023-.774 15.1148-17.535 39.0318-20.629 4.4458-.43 6.3128 4.727 7.2018 6.704 0 .086 4.89 11.432 10.58 33.952l-21.9606-.257-5.957-17.105c-.6224-1.032-1.1558-.946-1.8671.086z" fill="#770649"/><path d="m54.8577 78.4767c1.5115 25.615 17.2487 31.116 14.5814 41.602-2.2228 8.682-28.4514 19.684-33.6971 11.69-2.1339-3.266-3.2897-7.22-3.7343-11.69-.978 3.438-1.6893 6.447-2.2227 8.939-.8891 4.298-5.5125 5.33-5.3347 6.963l-6.2237-1.204c.2667-2.234-2.6674-3.094-2.3118-8.165 1.8672-22.434 9.9581-39.11 24.3616-50.112v-2.149c0-.859.7113-1.633 1.6893-1.633h11.2027c.8891 0 1.6893.688 1.6893 1.633z" fill="#fc6eb5"/><path d="m85.443 102.0277s3.5564 4.814 4.2677 5.502c.7113.687 1.1558 1.203 1.3337.773.7112-1.461-.5335-3.008-.4446-3.438.3556-.946 3.4676 1.203 3.8232 1.461.6224.516 3.2897 2.149 2.7562.258-.5335-2.063-3.912-7.392-6.0459-8.338-1.6003-.687-5.5125 0-6.7572 1.29-.8002.945-2.0449 3.266-2.0449 3.524 0 .43 3.1118-1.032 3.1118-1.032z" fill="#ac5419"/><path d="m56.636 62.3167c-.2667-.086-.5335-.086-.7113-.086-.3557 1.375 1.5115.601.6224.086" fill="#ffeaf4"/><path d="m59.0366 63.5207c-.0889.773 1.6004 3.438.8891 3.954-.3556.258-1.6893-.258-1.8671-.516-.3556-.774.4446-2.751.978-3.438z" fill="#ac5419"/><path d="m54.5911 61.8867c.2667-.515.8002-.773 1.3336-.945.5335-.172 1.1559-.172 1.6005.086-.5335.258-.978.344-1.4226.516-.4445.172-.9781.257-1.5115.343z" fill="#ffeaf4"/><path d="m58.3253 69.1067c-.4445.086-.978.086-1.4225.086-.4446 0-.8891-.086-1.3337-.086l.1778-.515c.2667.258.6224.601.8891.859.3557.258.6224.516 1.0669.688-.4445.086-.8891-.086-1.3337-.258-.4445-.172-.8001-.516-1.0668-.774l-.5335-.515h.7112c.5335 0 .9781.086 1.4227.172z" fill="#ffeaf4"/><path d="m144.302 113.1167-12.714-11.174c-6.669-1.72-9.692-3.009-9.158-3.868.889-1.29 2.667-.258 3.378-.946.712-.773-.711-3.352-2.044-5.759-1.423-2.407.088-2.235.978-1.891 2.845 1.805 5.69 4.384 8.624 7.736l17.426 9.111z" fill="#ffcaa7"/><path d="m183.689 105.3807c-13.158 22.09-36.186 23.551-57.525 12.635l11.825-20.973c22.584 12.378 37.521 5.415 46.145-11.088l8.18 2.407c-1.956 5.329-5.246 11.346-8.625 17.019z" fill="#770649"/><path d="m173.376 129.9637 25.161 15.042c-9.602 14.096-19.827 18.652-32.452 11.088-8.802-5.243-30.941-23.552-31.919-23.552" fill="#fc8ecc"/><path d="m128.031 117.7587c3.29 2.406 5.513 7.392.889 10.83-2.934 2.149-11.469 7.478-21.338 13.151-5.779 3.352-15.9152 7.822-30.2298 13.581l-3.2008-5.243c15.915-11.776 28.0956-20.458 36.7206-26.131 14.581-9.455 17.159-6.188 17.159-6.188z" fill="#ffcaa7"/><path d="m135.855 123.6027c.089 1.032-.177 1.891-.533 2.665-2.756 6.704-7.913 12.033-12.892 16.847-5.068 4.899-10.758 9.283-16.537 13.323-2.134 1.547-5.157-2.493-3.913-4.212 1.245-1.719 19.827-29.912 25.073-34.468 2.223-1.977 8.269 2.321 8.891 5.587-.178.086-.089.172-.089.258z" fill="#ffcaa7"/><path d="m83.0578 154.5837c.1936-.493-.0865-1.05-.592-1.231-1.363-.457-2.2839-.969-2.8077-1.461-.6322-.652-1.2377-1.69-1.8163-3.114l.8963-2.007c.1352-.225-.005-.504-.2352-.632l-13.3279-4.905c-.8758-.587-1.8601-1.335-3.1062-2.328-1.2911-.918-2.4458-.358-3.6758 1.864 12.4358 12.026 19.0465 18.407 19.7555 19.102 1.425-1.012 2.5162-1.808 3.0752-2.399.5907-.473 1.1765-1.45 1.8341-2.889z" fill="#ffeaf4"/><path d="m84.1984 139.5907c2.934-1.204 33.9636-21.145 43.7436-25.271 4.268-1.805 14.226 10.401 6.935 15.386l-45.2551 21.832z" fill="#ffc2e5"/><path d="m112.027 153.3427c-.266-.516-.8-.687-1.333-.43-1.334.602-2.312.86-3.023.86-.889 0-2.134-.344-3.557-.946l-.889-1.977c-.089-.257-.444-.343-.622-.257l-12.9812 5.759c-1.0669.171-2.3117.343-3.9121.515s-1.9559 1.462-1.2446 3.782c17.6929-.172 27.0289-.172 28.0959-.172.267-1.633.444-2.922.444-3.782-.089-.773-.355-1.891-.978-3.352z" fill="#ffeaf4"/><path d="m132.744 113.0307c11.025 4.125 41.076 14.87 46.589 17.363l27.384 3.782c1.779 23.121-22.05 29.998-34.675 22.348-8.802-5.243-34.497-22.348-35.475-22.434-.623-.086-4.09.859-20.894 19.082l-12.892-7.221c1.511-2.406 10.491-18.136 19.827-28.795 2.4-2.578 5.423-5.844 10.136-4.125z" fill="#ffeaf4"/><path d="m195.87 95.4957h-11.914l2.045-13.838c-3.201 1.891-6.402 2.75-7.913 2.406-3.734-.945-4.09-14.096-1.156-19.339 2.845-5.158 17.693-7.479 18.493 2.836.267 3.61-1.333 6.79-3.556 9.369z" fill="#ffcaa7"/><path d="m184.401 69.0217.978-2.923 5.957-.515v-.516c-6.935.086-11.737-.258-14.404-.946.089-2.234 2.579-4.813 8.98-4.813 7.113 0 10.936 4.04 10.936 8.681 0 4.212-2.845 9.455-4.979 9.627-.533-.086-1.067-.773-1.511-1.633.889-.43 1.511-1.375 1.511-2.664 0-1.204-1.156-2.407-2.489-2.407-.534 0-.978.172-1.334.43-.889-1.376-2.045-2.407-3.645-2.321z" fill="#770649"/><path d="m235.346 157.7277c.712 1.375 5.957 5.673 9.692 8.079 1.511.946.889 2.235.266 2.579-4.534 2.664-7.468-.516-11.38-2.235-4.268-1.891-3.912 3.524-7.291 2.063 1.067-2.235 3.468-6.447 2.312-9.197-.534-1.204-6.757-14.87-18.671-40.829h10.935c8.447 24.411 13.159 37.649 14.137 39.54z" fill="#ffcaa7"/><path d="m195.426 82.2587h.889c19.115 16.675 31.563 40.313 37.52 70.741h-26.14c-.178-5.759-.178-5.845-.711-11.346l-33.608-9.799c3.645-15.816 9.157-25.271 9.157-46.845z" fill="#a81e63"/><path d="m206.984 141.6537-8.98-2.665c1.956-7.048 4.09-20.199 3.201-33.522 2.845 9.627 4.801 25.356 5.779 36.187z" fill="#770649"/><path d="m175.154 72.2877c.267 1.805-4.268 6.189.267 6.189z" fill="#ffcaa7"/><path d="m178.266 71.8577c-1.067-.171-1.156 1.032-.267 1.118.978.086.889-.86.267-1.118z" fill="#770649"/><path d="m176.665 70.6547c.267-.172.534-.344.89-.516.266-.172.622-.258 1.066-.172.178 0 .445.086.623.172s.355.258.444.344c.267.258.356.516.534.859-.356 0-.711-.257-.889-.343-.267-.172-.445-.172-.623-.258-.266 0-.533 0-.8 0-.533 0-.978 0-1.245-.086z" fill="#770649"/><path d="m175.599 80.7107c.533-.171 1.066-.343 1.6-.429.533-.172.978-.258 1.6-.344h.178c.089 0 .178.086.267.172s.178.344.089.515c-.178.344-.267.258-.356.344l-.356.172c-.266.086-.444.258-.711.344-.533.258-1.067.43-1.689.344.533-.258.889-.602 1.334-.946.177-.172.444-.343.622-.515l.355-.258s.089-.086-.088.086c-.089.172 0 .344.088.344 0 0 .089.085.178.085h.089c-.444.086-1.067.172-1.6.172-.534.086-1.067.086-1.6-.086z" fill="#770649"/></g></svg>