<svg fill="none" height="238" width="248" xmlns="http://www.w3.org/2000/svg"><filter id="a" color-interpolation-filters="sRGB" filterUnits="userSpaceOnUse" height="261.083" width="336.793" x="-1" y="-24"><feFlood flood-opacity="0" result="BackgroundImageFix"/><feColorMatrix in="SourceAlpha" result="hardAlpha" values="0 0 0 0 0 0 0 0 0 0 0 0 0 0 0 0 0 0 127 0"/><feOffset dx="1" dy="1"/><feGaussianBlur stdDeviation="1"/><feColorMatrix values="0 0 0 0 0.129412 0 0 0 0 0.129412 0 0 0 0 0.129412 0 0 0 0.4 0"/><feBlend in2="BackgroundImageFix" result="effect1_dropShadow_17863_419986"/><feBlend in="SourceGraphic" in2="effect1_dropShadow_17863_419986" result="shape"/></filter><g filter="url(#a)"><g fill="#5ea7ef"><path d="M55.214 85.13c0 6.791-4.446 12.808-11.292 16.504-1.6.86-.534 6.017-.8 6.962-.267.86-6.046-4.211-7.024-3.953a38.514 38.514 0 0 1-8.447.945C12.448 105.588 0 96.391 0 85.131s12.359-20.457 27.651-20.457S55.214 73.87 55.214 85.13zM254.64 129.311c0 8.51-9.691 15.3-21.694 15.3-7.468 0-14.048-2.664-17.96-6.704-.8-.774-8.269-1.032-7.379-1.719 1.422-1.032 4.356-2.837 4.089-3.782-.266-1.032-.444-2.063-.444-3.095 0-8.509 9.691-15.3 21.694-15.3s21.694 6.791 21.694 15.3zM64.727 102.064c0 7.392 5.423 14.01 13.78 18.05 1.957.946.623 6.619 1.068 7.564.355.946 7.38-4.556 8.624-4.298 3.29.688 6.757 1.118 10.402 1.118 18.672 0 33.787-10.057 33.787-22.434 0-12.378-15.115-22.435-33.786-22.435-18.672 0-33.875 10.057-33.875 22.435z"/></g><path d="m22.762 167.819 9.069-.601c-5.335 22.176-8.18 33.78-8.535 34.811-.8 2.407 1.511 5.759 2.489 7.564-2.756 1.461-2.756-3.18-6.224-1.289-3.112 1.719-5.423 4.556-9.335 2.493-.445-.258-1.067-1.29.089-2.149 2.934-2.235 7.024-6.103 7.557-7.306.711-1.548 2.4-12.722 4.89-33.523z" fill="#ac5419"/><path d="m48.635 141.001 3.556-.859c7.113 18.91 37.165 30.084 39.476 37.218.89 2.579-1.066 4.04.09 4.813l-4.446 3.611c-.89-.86-2.4.945-6.046 0-3.645-.86-30.94-21.919-32.63-44.783z" fill="#fc6eb5"/><path d="M59.123 121.575c1.423 5.072 3.29 16.59 1.423 18.395H48.454v-.086c-4.445-.516-7.913-4.126-7.913-8.596v-8.423c0-4.814 4.001-8.682 8.98-8.682h.8c4.446 0 8.18 3.181 8.802 7.392z" fill="#ffeaf4"/><path d="M45.166 129.655c-1.956-2.149-3.201-4.813-3.023-7.822.622-8.595 13.07-6.704 15.47-2.407 2.4 4.298 2.134 15.386-.978 16.16-1.245.344-3.912-.43-6.58-2.063l1.69 11.604h-9.958z" fill="#ac5419"/><path d="M47.922 128.194c.444 4.813.266 10.228-1.067 11.518H34.763c-.711-11.26 5.868-6.963 5.868-17.535.444-.344.8-.774 1.156-1.117v-.344c2.134-4.126 4.712-6.189 8.002-6.189 4.8 0 6.312 2.149 7.646 4.04-.978 3.18-4.712 3.696-8.09 5.673-.356-.344-.89-.516-1.423-.516-1.245 0-2.312 1.032-2.312 2.235s1.067 2.235 2.312 2.235c-.09 0-.09 0 0 0zM117.185 208.046c-8.269-7.994-13.959-13.925-16.982-17.879-5.246-6.79-9.514-12.807-10.936-15.128-3.379-5.587 5.423-9.197 7.735-6.704 3.556 3.782 11.558 16.073 24.006 36.874z" fill="#ffeaf4"/><path d="m105.626 206.413-17.249-32.061c-3.556-5.759 10.136-11.175 12.625-8.596 5.602 5.931 19.916 30.17 21.517 31.975z" fill="#a81e63"/><path d="M97.171 210.061c-2.066-4.613-8.655-20.977-10.633-28.961-.56-2.325-1.108-4.529-1.574-6.559-1.412-6.209 10.036-9.795 11.172-3.801 2.702 14.877 5.608 35.907 5.924 37.707.517 2.514-3.57 4.532-4.889 1.614z" fill="#ffeaf4"/><path d="M95.243 208.339c-.445 1.253-.665 2.131-.629 2.752-.008.695.155 1.786.458 3.155.838-.034 8.657-.291 23.501-.846.575-1.981.169-3.007-1.098-3.111-1.343-.146-2.411-.239-3.281-.322l-11.004-4.315c-.23-.128-.441.055-.531.205l-.671 1.628c-1.198.635-2.17.895-2.933.972-.64.044-1.496-.232-2.582-.635-.505-.181-.96.066-1.23.517.045-.075.045-.075 0 0z" fill="#ffeaf4"/><path d="M113.805 207.015c-.267 1.117-.445 1.977-.356 2.492.089.688.267 1.634.622 2.837.8-.086 7.824-.774 21.072-2.063.356-1.805-.089-2.751-1.245-2.751-1.155 0-2.222-.085-3.023-.085l-10.224-3.267c-.178-.086-.445 0-.445.258l-.444 1.547c-1.067.602-1.868.946-2.579 1.032-.533.086-1.334-.086-2.4-.43-.356-.172-.801 0-.978.43z" fill="#ffeaf4"/><path d="M84.2 187.675c-4.802 9.455-8.98 15.472-19.472 20.887-11.558 4.469-21.072.859-26.851-12.12l19.294-11.518c3.023-.773 15.114-17.535 39.031-20.629 4.446-.43 6.313 4.728 7.202 6.705 0 .086 4.89 11.432 10.58 33.952l-21.96-.258-5.957-17.105c-.623-1.032-1.156-.946-1.868.086z" fill="#770649"/><path d="M54.858 143.15c1.511 25.615 17.248 31.116 14.581 41.602-2.223 8.682-28.451 19.684-33.697 11.69-2.134-3.266-3.29-7.22-3.734-11.69a138.26 138.26 0 0 0-2.223 8.939c-.89 4.298-5.513 5.33-5.335 6.963l-6.224-1.204c.267-2.234-2.667-3.094-2.311-8.165 1.867-22.434 9.958-39.11 24.361-50.112v-2.149c0-.859.712-1.633 1.69-1.633h11.202c.89 0 1.69.688 1.69 1.633z" fill="#fc6eb5"/><path d="M85.442 166.702s3.556 4.813 4.268 5.501c.71.687 1.155 1.203 1.333.773.711-1.461-.533-3.008-.444-3.438.355-.945 3.467 1.204 3.823 1.461.622.516 3.29 2.149 2.756.258-.533-2.063-3.912-7.392-6.046-8.337-1.6-.688-5.512 0-6.757 1.289-.8.945-2.045 3.266-2.045 3.524 0 .43 3.112-1.031 3.112-1.031z" fill="#ac5419"/><path d="M56.636 126.99c-.267-.086-.534-.086-.711-.086-.356 1.376 1.511.602.622.086" fill="#ffeaf4"/><path d="M59.037 128.194c-.089.774 1.6 3.438.889 3.954-.356.258-1.69-.258-1.867-.516-.356-.773.444-2.75.978-3.438z" fill="#ac5419"/><path d="M54.592 126.561c.267-.516.8-.774 1.334-.946.533-.171 1.155-.171 1.6.086-.534.258-.978.344-1.423.516-.444.172-.978.258-1.511.344zM58.324 133.781c-.445.086-.978.086-1.423.086-.444 0-.889-.086-1.333-.086l.178-.516.889.86c.355.258.622.515 1.067.687-.445.086-.89-.086-1.334-.258-.445-.171-.8-.515-1.067-.773l-.533-.516h.71c.534 0 .979.086 1.423.172z" fill="#ffeaf4"/><path d="m144.301 177.79-12.714-11.174c-6.668-1.72-9.691-3.009-9.158-3.868.889-1.29 2.667-.258 3.379-.946.711-.773-.712-3.352-2.045-5.759-1.423-2.407.089-2.235.978-1.891 2.845 1.805 5.69 4.384 8.624 7.736l17.427 9.111z" fill="#ffcaa7"/><path d="M183.689 170.054c-13.158 22.09-36.186 23.552-57.525 12.635l11.825-20.973c22.584 12.378 37.521 5.415 46.145-11.088l8.18 2.407c-1.956 5.329-5.246 11.346-8.625 17.019z" fill="#770649"/><path d="m173.376 194.637 25.161 15.042c-9.602 14.097-19.827 18.652-32.452 11.088-8.802-5.243-30.941-23.551-31.919-23.551" fill="#fc8ecc"/><path d="M128.032 182.432c3.29 2.406 5.513 7.392.889 10.83-2.934 2.149-11.469 7.478-21.338 13.151-5.779 3.352-15.915 7.822-30.23 13.581l-3.2-5.243c15.914-11.776 28.095-20.458 36.719-26.131 14.582-9.455 17.16-6.188 17.16-6.188z" fill="#ffcaa7"/><path d="M135.855 188.276c.089 1.032-.178 1.891-.533 2.665-2.756 6.704-7.913 12.034-12.892 16.847-5.068 4.9-10.758 9.283-16.538 13.323-2.133 1.547-5.156-2.493-3.912-4.212 1.245-1.719 19.827-29.912 25.073-34.468 2.223-1.976 8.269 2.321 8.891 5.588-.178.085-.089.171-.089.257z" fill="#ffcaa7"/><path d="M83.06 219.258c.193-.494-.087-1.051-.592-1.231-1.363-.458-2.284-.97-2.808-1.461-.632-.653-1.238-1.691-1.816-3.115l.896-2.007c.135-.225-.005-.504-.235-.632l-13.328-4.905c-.876-.587-1.86-1.334-3.106-2.328-1.291-.918-2.446-.358-3.676 1.865C70.83 217.469 77.44 223.85 78.15 224.545c1.425-1.011 2.516-1.808 3.076-2.399.59-.473 1.176-1.45 1.834-2.888z" fill="#ffeaf4"/><path d="M84.197 204.264c2.934-1.203 33.964-21.145 43.744-25.271 4.268-1.805 14.226 10.401 6.935 15.386l-45.255 21.833z" fill="#ffc2e5"/><path d="M112.029 218.016c-.267-.515-.8-.687-1.334-.429-1.333.601-2.312.859-3.023.859-.889 0-2.134-.344-3.556-.945l-.889-1.977c-.089-.258-.445-.344-.623-.258l-12.98 5.759a73.66 73.66 0 0 1-3.913.516c-1.6.171-1.956 1.461-1.244 3.782 17.693-.172 27.028-.172 28.095-.172.267-1.633.445-2.923.445-3.782-.089-.774-.356-1.891-.978-3.353zM132.744 177.704c11.025 4.126 41.077 14.87 46.589 17.363l27.385 3.782c1.778 23.122-22.05 29.998-34.675 22.348-8.802-5.243-34.498-22.348-35.476-22.434-.622-.086-4.09.859-20.894 19.082l-12.892-7.22c1.512-2.407 10.492-18.137 19.827-28.795 2.401-2.579 5.424-5.845 10.136-4.126z" fill="#ffeaf4"/><path d="M195.871 160.169h-11.914l2.045-13.838c-3.201 1.891-6.401 2.75-7.913 2.406-3.734-.945-4.09-14.096-1.156-19.339 2.846-5.158 17.694-7.479 18.494 2.836.266 3.61-1.334 6.79-3.557 9.369z" fill="#ffcaa7"/><path d="m184.402 133.695.978-2.922 5.957-.516v-.516c-6.935.086-11.736-.258-14.403-.945.089-2.235 2.578-4.814 8.98-4.814 7.112 0 10.935 4.04 10.935 8.682 0 4.211-2.845 9.455-4.978 9.627-.534-.086-1.067-.774-1.512-1.634.889-.429 1.512-1.375 1.512-2.664 0-1.204-1.156-2.407-2.49-2.407-.533 0-.978.172-1.334.43-.889-1.375-2.045-2.407-3.645-2.321z" fill="#770649"/><path d="M235.346 222.401c.711 1.375 5.957 5.673 9.691 8.079 1.512.946.889 2.235.267 2.579-4.534 2.664-7.468-.516-11.38-2.235-4.268-1.891-3.913 3.524-7.291 2.063 1.067-2.235 3.467-6.447 2.312-9.197-.534-1.204-6.758-14.87-18.672-40.829h10.936c8.447 24.411 13.159 37.649 14.137 39.54z" fill="#ffcaa7"/><path d="M195.427 146.932h.889c19.116 16.675 31.563 40.313 37.52 70.741h-26.14c-.177-5.759-.177-5.845-.711-11.346l-33.608-9.799c3.645-15.816 9.158-25.271 9.158-46.845z" fill="#a81e63"/><path d="m206.984 206.327-8.98-2.665c1.956-7.048 4.09-20.199 3.201-33.522 2.845 9.627 4.801 25.357 5.779 36.187z" fill="#770649"/><path d="M175.153 136.961c.267 1.805-4.268 6.189.267 6.189z" fill="#ffcaa7"/><path d="M178.264 136.531c-1.067-.171-1.156 1.032-.267 1.118.978.086.889-.86.267-1.118zM176.664 135.328c.267-.172.534-.344.889-.516.267-.172.623-.258 1.067-.172.178 0 .445.086.622.172.178.086.356.258.445.344.267.258.356.516.533.86-.355 0-.711-.258-.889-.344-.266-.172-.444-.172-.622-.258h-.8c-.534 0-.978 0-1.245-.086zM175.598 145.385c.533-.172 1.067-.344 1.6-.43.533-.172.978-.258 1.6-.344h.178c.089 0 .178.086.267.172s.178.344.089.516c-.178.344-.267.258-.356.344l-.355.171c-.267.086-.445.258-.712.344-.533.258-1.067.43-1.689.344.533-.258.889-.602 1.334-.945.177-.172.444-.344.622-.516l.356-.258-.089.086c-.089.172 0 .344.089.344 0 0 .089.086.178.086h.088a9.09 9.09 0 0 1-1.6.172c-.533.086-1.067.086-1.6-.086z" fill="#770649"/></g></svg>