<svg height="320" viewBox="0 0 248 320" width="248" xmlns="http://www.w3.org/2000/svg"><g fill="none" fill-rule="evenodd" transform="translate(15.2249 72.3828)"><g fill-rule="nonzero"><rect fill="#f7cdd4" height="123.567" rx="5.37247" transform="matrix(.97172742 .23610555 -.23610555 .97172742 21.357556 -34.702708)" width="99.8778" x="105.641771" y="10.044072"/><rect fill="#ffeded" height="7.70515" rx="3.852575" transform="matrix(.97172742 .23610555 -.23610555 .97172742 14.296217 -39.175535)" width="69.3464" x="136.053184" y="36.253813"/><rect fill="#ffeded" height="7.70515" rx="3.852575" transform="matrix(.97172742 .23610555 -.23610555 .97172742 17.385703 -38.021968)" width="69.3464" x="132.781184" y="49.730813"/><rect fill="#ffeded" height="7.70515" rx="3.852575" transform="matrix(.97172742 .23610555 -.23610555 .97172742 20.475077 -36.867457)" width="69.3464" x="129.505184" y="63.207813"/><rect fill="#ffeded" height="7.70515" rx="3.852575" transform="matrix(.97172742 .23610555 -.23610555 .97172742 23.564535 -35.713654)" width="69.3464" x="126.232184" y="76.684813"/><rect fill="#ffeded" height="7.70515" rx="3.852575" transform="matrix(.97172742 .23610555 -.23610555 .97172742 26.653909 -34.559142)" width="69.3464" x="122.956184" y="90.161813"/><rect fill="#ffeded" height="7.70515" rx="3.852575" transform="matrix(.97172742 .23610555 -.23610555 .97172742 29.743367 -33.405339)" width="69.3464" x="119.683184" y="103.638813"/><rect fill="#ffeded" height="7.70515" rx="3.852575" transform="matrix(.97172742 .23610555 -.23610555 .97172742 10.705405 -29.564558)" width="7.70515" x="124.947563" y="26.065792"/><rect fill="#ffeded" height="7.70515" rx="3.852575" transform="matrix(.97172742 .23610555 -.23610555 .97172742 13.794831 -28.410279)" width="7.70515" x="121.672563" y="39.542892"/><rect fill="#ffeded" height="7.70515" rx="3.852575" transform="matrix(.97172742 .23610555 -.23610555 .97172742 16.884204 -27.255768)" width="7.70515" x="118.396563" y="53.019892"/><rect fill="#ffeded" height="7.70515" rx="3.852575" transform="matrix(.97172742 .23610555 -.23610555 .97172742 19.973662 -26.101965)" width="7.70515" x="115.123563" y="66.496892"/><rect fill="#ffeded" height="7.70515" rx="3.852575" transform="matrix(.97172742 .23610555 -.23610555 .97172742 23.063036 -24.947454)" width="7.70515" x="111.847563" y="79.973892"/><rect fill="#ffeded" height="7.70515" rx="3.852575" transform="matrix(.97172742 .23610555 -.23610555 .97172742 26.15273 -23.793622)" width="7.70515" x="108.574563" y="93.451892"/></g><path d="m125.5951 26.0752 2.872 4.1 5.165-4.8414" stroke="#910940" stroke-width="1.79082"/><path d="m122.3541 39.5932 2.872 4.099 5.165-4.841" stroke="#910940" stroke-width="1.79082"/><path d="m115.8691 66.6272 2.872 4.099 5.165-4.841" stroke="#910940" stroke-width="1.79082"/><path d="m120.1241 53.1142 5.152 6.367" stroke="#910940" stroke-width="1.79082"/><path d="m125.8831 53.7212-6.367 5.152" stroke="#910940" stroke-width="1.79082"/><path d="m61.3546995 95.2252c-.3114.397-.625.469-.9618.017-.0805-.116-.1757-.219-.2719-.294-.3723-.255-.5545-1.069-1.1179-.738-.578.344-3.7756 1.203-4.6631 1.506-3.8644 1.313-7.8517 1.348-11.8727.76-8.3242-1.188-15.8662-4.436-23.0156-8.757-3.775-2.289-7.2239-4.988-10.44719998-8.06-3.3048-3.16-6.1456-6.641-7.8128-10.908-1.9915-5.057-1.6024-9.89 2.0454-14.166.6391.69 1.2917 1.396 1.9308 2.086-1.322 1.36-1.9904 3.015-2.2416 4.857-.5358 3.823.8863 7.062 2.8226 10.152 1.5619 2.509 3.5752 4.656 5.67839998 6.664 2.1984 2.111 4.6475 3.936 7.1719 5.636 3.5586 2.407 7.3292 4.427 11.2963 6.102 4.5097 1.909 9.1353 3.355 14.0344 3.895 2.7455.295 6.4935.618 8.9779-.836 2.036-1.175 3.7268-2.958 5.425-4.557 1.6397-1.544 3.1726-3.263 4.0133-5.378 1.1823-2.948 1.2614-6.267.9664-9.404-.1208-1.334-.3126-2.656-.5463-3.995-1.2489-6.808-3.6309-13.168-6.9714-19.213-1.6959-3.095-3.6824-5.975-5.857-8.736-2.4978-3.198-5.425-5.862-8.9447-7.786-3.4225-1.879-7.0232-2.365-10.6678-.492-.3889.196-.7641.407-1.0452.749-.639-.691-1.2781-1.381-1.9171-2.072 3.4876-2.6 7.3272-3.235 11.4666-2.02 3.7054 1.098 6.7485 3.301 9.5503 5.917 4.8255 4.481 8.2442 9.936 11.1842 15.724 2.7548 5.442 4.8072 11.153 5.8729 17.176.6905 3.916 1.1103 7.891.4836 11.881-.2743 1.699-.6332 3.395-1.355 4.963-.3373.721-1.4692 4.224-1.7857 4.762-.2716.47.3454.99.6486 1.2.9652.661.4427 1.036-.1248 1.479-.6322.667-1.2906 1.276-1.949 1.886z" fill="#1fc2c1" fill-rule="nonzero"/><path d="m61.3925995 95.3772c.6651-.615 1.3302-1.231 1.9952-1.846 3.8767 4.189 7.6782 8.474 11.6435 12.581 8.3533 8.611 22.0228 10.1 32.2768005 3.628 10.779-6.794 15.119-20.545 10.13-32.161-1.134-2.648-2.631-5.096-4.57-7.191-9.838-10.69-19.7070005-21.324-29.5748005-31.987-.6433-.873-.6162-.843.7128-2.046.739-.684.993.006 1.332.372 9.557 10.297 19.0850005 20.622 28.6270005 30.933.271.293.557.572.843.851 5.768 6.381 8.153 13.909 7.23 22.458-.62 5.794-2.871 10.951-6.71 15.4-4.287 4.974-9.593 8.253-16.0180005 9.523-8.758 1.714-16.7542-.048-23.8071-5.594-1.2075-.949-2.2512-2.077-3.2814-3.19-3.6043-3.924-7.2234-7.835-10.829-11.731z" fill="#0eaaa6" fill-rule="nonzero"/><path d="m84.6720995 37.3442c-1.3452 1.218-1.8751 1.655-2.6161 2.071-4.5923 2.605-9.2616 2.694-13.6972-.021-6.6333-4.051-8.231-12.8708-3.2459-19.2366 3.7503-4.7917 10.1989-6.3115 15.346-4.2816 5.3692 2.1213 8.5852 7.2589 8.0912 13.1352-.226 2.635-1.129 4.953-2.728 7.053-.345.4-.411.596-1.15 1.28zm-4.3871-3.731c3.1229-2.62 3.4542-7.4557.6227-10.6043-2.6164-2.9163-7.3785-2.9572-10.418-.306-2.9951 2.6101-3.3736 7.5433-.6442 10.4623 2.9431 3.181 7.6232 3.163 10.4395.448z" fill="#1fc2c1" fill-rule="nonzero"/><path d="m5.64879952 56.9562c-.6529-.705-1.3197-1.426-1.9725-2.131-.6295-.532-.573-.975.0601-1.505 1.0301-.842 1.9638-1.817 2.9521-2.704.8998-.805 1.9314-.757 2.7962.059 1.18509998 1.133 1.45239998 2.251.57779998 3.172-1.09699998 1.154-2.33379998 2.187-3.50109998 3.296-.4142.411-.6339.085-.9126-.187z" fill="#0eaaa6" fill-rule="nonzero"/><path d="m27.9251995 32.2072c.579.625 1.158 1.251 1.7369 1.877.2957.319.3098.602-.0912.973-1.1261 1.018-2.2153 2.075-3.3389 3.066-1.0197.894-1.901.746-2.9035-.427-.7833-.906-.7146-1.785.2087-2.664.953-.906 1.9676-1.747 2.8688-2.679.5893-.645 1.0316-.733 1.5192-.146z" fill="#0eaaa6" fill-rule="nonzero"/><path d="m80.5575995 33.8742c-2.7482 2.68-7.4286 2.657-10.4279-.554-2.7551-2.948-2.435-7.8709.5209-10.4432 2.9996-2.6128 7.7479-2.5166 10.3903.4265 2.8592 3.1776 2.5998 7.9897-.4833 10.5707z" fill="#0eaaa6" fill-rule="nonzero"/></g></svg>