<svg height="320" viewBox="0 0 248 320" width="248" xmlns="http://www.w3.org/2000/svg"><g fill="none" transform="translate(-25 14)"><g transform="translate(137.119888)"><path d="m1.832 59.4268h4.625v9.3372l30.368 1.5708h213.885l31.764-4.9741 3.228-.5236s1.571 0 1.571-3.9269c0-.5235 0-2.007 0-4.1013-.174-13.3514-.698-52.6203-.698-52.6203s0-2.3561-3.142-2.3561c-3.141 0-279.942 0-279.942 0z" fill="#ea6206"/><path d="m41.799 53.2311c4.015-1.2217 9.425-1.0472 9.425-1.0472s5.323-.1745 9.425 1.0472c0 0 5.148 2.5306 5.584 17.1037h-15.009-15.009c.436-14.5731 5.584-17.1037 5.584-17.1037z" fill="#5435d6"/><path d="m51.224 79.6719c7.229 0 13.089-5.8604 13.089-13.0896s-5.86-13.0896-13.089-13.0896-13.09 5.8604-13.09 13.0896 5.861 13.0896 13.09 13.0896z" fill="#331fa8"/><path d="m51.224 73.5633c3.855 0 6.981-3.1255 6.981-6.9811s-3.126-6.9811-6.981-6.9811c-3.856 0-6.981 3.1255-6.981 6.9811s3.125 6.9811 6.981 6.9811z" fill="#5435d6"/><g fill="#feebde"><path d="m51.224 62.481c.241 0 .436-.1953.436-.4363s-.195-.4363-.436-.4363-.436.1953-.436.4363.195.4363.436.4363z"/><path d="m51.224 71.5567c.241 0 .436-.1953.436-.4363s-.195-.4363-.436-.4363-.436.1953-.436.4363.195.4363.436.4363z"/><path d="m48.276 63.6982c.17-.1704.17-.4467 0-.6171s-.447-.1704-.617 0-.17.4467 0 .6171.447.1704.617 0z"/><path d="m54.721 70.1786c.17-.1704.17-.4466 0-.617s-.447-.1704-.617 0-.17.4466 0 .617.447.1704.617 0z"/><path d="m46.686 67.0191c.241 0 .436-.1953.436-.4363s-.195-.4363-.436-.4363-.436.1953-.436.4363.195.4363.436.4363z"/><path d="m55.762 67.0191c.241 0 .436-.1953.436-.4363s-.195-.4363-.436-.4363-.437.1953-.437.4363.196.4363.437.4363z"/><path d="m48.313 70.0956c.17-.1704.17-.4466 0-.617-.171-.1704-.447-.1704-.617 0-.171.1704-.171.4466 0 .617.17.1704.446.1704.617 0z"/><path d="m54.649 63.7055c.171-.1704.171-.4467 0-.617-.17-.1704-.446-.1704-.617 0-.17.1703-.17.4466 0 .617.171.1704.447.1704.617 0z"/></g><path d="m9.155 68.5278h21.99v-53.3183h-21.99z" fill="#fcaf7b"/><path d="m19.888 68.5278h.611v-53.3183h-.611z" fill="#5435d6"/><path d="m24.085 54.5402h3.403c1.135 0 2.094-.9599 2.094-2.0943v-32.9858c0-1.1345-.959-2.0944-2.094-2.0944h-3.403c-1.135 0-2.095.9599-2.095 2.0944v32.9858c-.087 1.2217.873 2.0943 2.095 2.0943z" fill="#feebde"/><path d="m12.915 54.5402h3.403c1.135 0 2.095-.9599 2.095-2.0943v-32.9858c0-1.1345-.96-2.0944-2.095-2.0944h-3.403c-1.134 0-2.094.9599-2.094 2.0944v32.9858c0 1.2217.96 2.0943 2.094 2.0943z" fill="#feebde"/><path d="m1.396 59.4268h5.149v9.599h-2.531s-2.443.2618-2.531-2.4434c-.261-2.7052-.087-7.1556-.087-7.1556z" fill="#fcaf7b"/><path d="m2.007 54.1909h2.443v3.5778h-2.53z" fill="#feebde"/><path d="m3.141 13.4385s2.793-.2617 2.793 3.2288v23.0377s.087 2.4434-3.578 2.4434z" fill="#feebde"/><path d="m9.175 12.7031h1.396v-3.2287h-1.396z" fill="#cd5605"/><path d="m9.948 10.2969-9.948 2.8797v7.592h.436v-7.1557l9.512-1.9198z" fill="#5435d6"/><path d="m2.182 14.4858v10.1227h-.611s-1.222-1.4835-1.309-4.5378v-1.7452-.5236s0-2.1816 1.309-3.3161z" fill="#5435d6"/><path d="m113.269 33.6837h27.313c2.182 0 3.927-1.7452 3.927-3.9268v-17.6274c0-2.1816-1.745-3.9269-3.927-3.9269h-27.313c-2.182 0-3.927 1.7453-3.927 3.9269v17.6274c-.087 2.0943 1.745 3.9268 3.927 3.9268z" fill="#feebde"/><path d="m75.92 33.6837h27.313c2.182 0 3.927-1.7452 3.927-3.9268v-17.6274c0-2.1816-1.745-3.9269-3.927-3.9269h-27.313c-2.182 0-3.927 1.7453-3.927 3.9269v17.6274c-.087 2.0943 1.745 3.9268 3.927 3.9268z" fill="#feebde"/><path d="m38.571 33.6837h27.313c2.182 0 3.927-1.7452 3.927-3.9268v-17.6274c0-2.1816-1.745-3.9269-3.927-3.9269h-27.313c-2.182 0-3.927 1.7453-3.927 3.9269v17.6274c-.088 2.0943 1.745 3.9268 3.927 3.9268z" fill="#feebde"/><path d="m56.285 0h31.328c.873 0 1.658.6981 1.658 1.658v.3491h-34.557v-.3491c0-.9599.699-1.658 1.571-1.658z" fill="#5435d6"/><path d="m66.931 56.3729h113.444c.436 0 .698-.3491.698-.6982v-.2618c0-.4363-.349-.6981-.698-.6981h-113.444c-.436 0-.698.3491-.698.6981v.2618c0 .3491.349.6982.698.6982z" fill="#5435d6"/></g><g transform="translate(0 119.999753)"><path d="m6.90738814 25.2242467 17.82888596-2.284c2.679484-.312 5.152844-1.454 7.110934-3.219 6.90478-5.918 27.92848-19.623 73.1704799-19.623 0 0 20.6112-1.142 39.4712 4.361 2.164.623 4.122 1.453 6.08 2.595 7.111 3.946 25.97 14.328 29.784 15.574 4.637 1.454 26.485 2.803 34.008 4.257 7.524 1.453 25.352 7.579 25.352 16.508v9.863c0 .623-1.339 7.164-1.339 7.164l-2.783 1.35c.103 3.115-2.37 5.606-5.462 5.606h-17.417c0-12.562-10.099-22.633-22.466-22.633-12.47 0-22.466 10.174-22.466 22.633h-100.4810999c0-12.562-10.0995-22.633-22.4664-22.633-12.46989 0-22.46645 10.174-22.46645 22.633l-22.36334996-3.322v-30.94c-.10310001-3.945 2.8856-7.371 6.9048-7.89z" fill="#fdd7bd"/><path d="m190.245888 44.7432467c12.47 0 22.466 10.174 22.466 22.633v7.06h-44.933v-7.06c0-12.459 10.1-22.633 22.467-22.633z" fill="#331fa8"/><path d="m44.8322881 44.7432467c12.4699 0 22.4664 10.174 22.4664 22.633v7.06h-44.93285v-7.06c0-12.459 9.99653-22.633 22.46645-22.633z" fill="#331fa8"/><path d="m216.937888 34.4642467c-.825-.623-.413-1.869.515-2.077 2.576-.519 6.802-.103 10.615 1.35 2.473.935 7.626 4.776 8.863 9.448.206.727-.516 1.246-1.134 1.038-3.71-1.453-13.707-5.502-18.859-9.759z" fill="#5435d6"/><path d="m223.945888 58.9672467h4.946c.722 0 1.34-.623 1.34-1.35s-.618-1.35-1.34-1.35h-4.946c-.722 0-1.34.623-1.34 1.35.103.727.618 1.35 1.34 1.35z" fill="#331fa8"/><path d="m190.245888 87.5182467c11.042 0 19.993-9.018 19.993-20.142s-8.951-20.142-19.993-20.142-19.993 9.018-19.993 20.142 8.951 20.142 19.993 20.142z" fill="#5435d6"/><path d="m190.245888 81.1852467c7.57 0 13.706-6.183 13.706-13.809s-6.136-13.809-13.706-13.809-13.707 6.183-13.707 13.809 6.137 13.809 13.707 13.809z" fill="#331fa8"/><path d="m190.245888 71.8412467c2.447 0 4.431-1.999 4.431-4.464 0-2.466-1.984-4.465-4.431-4.465-2.448 0-4.432 1.999-4.432 4.465 0 2.465 1.984 4.464 4.432 4.464z" fill="#feebde"/><path d="m44.8324881 87.5182467c11.0418 0 19.993-9.018 19.993-20.142s-8.9512-20.142-19.993-20.142c-11.04191 0-19.993141 9.018-19.993141 20.142s8.951231 20.142 19.993141 20.142z" fill="#5435d6"/><path d="m44.8322881 81.1852467c7.57 0 13.7066-6.183 13.7066-13.809s-6.1366-13.809-13.7066-13.809c-7.5699 0-13.70656 6.183-13.70656 13.809s6.13666 13.809 13.70656 13.809z" fill="#331fa8"/><path d="m44.8323881 71.8412467c2.4474 0 4.4314-1.999 4.4314-4.464 0-2.466-1.984-4.465-4.4314-4.465-2.4475 0-4.4315 1.999-4.4315 4.465 0 2.465 1.984 4.464 4.4315 4.464z" fill="#feebde"/><path d="m145.312888 5.1862467c.412 0 .825.103 1.34.103 1.34.519 2.679 1.142 3.916 1.765 6.802 3.738 24.322 13.394 29.165 15.263-11.336-2.077-29.165-12.771-34.627-16.197-.618-.208-.309-.934.206-.934z" fill="#feebde"/><path d="m67.1957881 64.7812467h100.7900999c-.103.83-.103 1.765-.103 2.595h-100.5839999c0-.83 0-1.765-.1031-2.595z" fill="#331fa8"/><path d="m170.149888 25.8472467c.515 0 .721-.623.309-.935-5.771-4.257-31.02-20.972-64.4108-20.453 0 0-42.2533999-3.115-61.7311999 17.65-.4122.415 0 1.142.6184 1.142z" fill="#5435d6"/><g fill="#feebde"><path d="m115.735488 9.0272467v12.044c0 .83.6183 1.453 1.4428 1.453h42.4596c.515 0 .824-.727.309-1.038-5.359-3.323-23.394-13.394-42.8717-13.601-.8245-.104-1.3397.415-1.3397 1.142z"/><path d="m108.315388 9.4432467v11.109c0 1.038-.8245 1.869-1.855 1.869l-38.2341999-1.039c-1.0306 0-1.752-.83-1.752-1.869v-6.229c0-.831.5153-1.557 1.3398-1.765 4.6375-1.35 20.9205-5.295 38.9554999-3.841.8245 0 1.5459.83 1.5459 1.765z"/><path d="m63.7946881 14.3222467v6.229c0 .416-.3091.727-.7214.727l-9.6873-.415c-.7214 0-.9275-.935-.4123-1.35 2.1642-1.661 6.1835-4.464 9.8935-5.918.4123-.104.9275.208.9275.727z"/></g><path d="m67.2987881 67.3762467s.103 4.465-1.4428 7.061c0 .103 103.6748999 0 103.6748999 0s-1.958-3.842-1.752-7.061z" fill="#331fa8"/><path d="m212.711888 67.3762467c0-.83-.103-1.765-.103-2.595h7.111c.928 0 1.752-.519 2.164-1.35l.516-1.142c.515-1.142 1.649-1.869 2.782-1.869h11.13l1.031-.104c3.195 0 5.771 2.492 5.771 5.711v4.464c0 2.492-2.061 4.568-4.534 4.465l-27.31-.623c0 .103 1.339-2.492 1.442-6.957z" fill="#331fa8"/></g><g transform="translate(59.019988 87.561285)"><path d="m27.4519 52.2547152 10.0442 35.452 7.3449 26.1149998h5.336l-7.7843-61.5669998z" fill="#fb9b5a"/><path d="m24.7529 52.2547152c-.2511 18.294-1.0044 28.197-1.2555 29.9-.2511 1.641-3.9549 12.238-11.0486 31.6669998h5.5243c9.1025-18.6719998 14.1246-29.2059998 15.1918-31.6669998 1.0672-2.46 4.3316-12.426 9.2281-29.9z" fill="#fcaf7b"/><path d="m11.9477 118.867715.2511-5.867h5.8381c2.7622 1.956 6.3405 3.533 10.7976 4.732v1.135h-10.5465l-3.5782-.568v.568z" fill="#feebde"/><path d="m44.0861 118.867715.2511-5.867h5.8382c2.7622 1.956 6.3404 3.533 10.7975 4.732v1.135h-10.5464l-3.5783-.568v.568z" fill="#feebde"/><path d="m31.8473 17.1827152c-1.2556-1.514-2.1344-3.344-2.0089-5.425.4395-5.92999999 8.6632-4.66799999 10.2954-1.64 1.6322 3.028 1.4438 10.66-.6906 11.165-.8161.189-2.5739-.316-4.3944-1.388l1.13 8.011h-6.6542z" fill="#49220a"/><path d="m37.4982 6.83671521c-.8789-.252-2.1972-.378-2.7622-.315.3139-.757.4395-1.577.3139-2.46-.1255-.82-.4394-1.514-.816-2.208-.1256-.315-.3139-.631-.565-.883s-.565-.442-.9417-.505c-.3766-.063-.7532-.063-1.0671 0-.1884.063-.314.127-.4395.127-.1883.063-.2511-.064-.3767-.19-.2511-.252-.6905-.378-1.0044-.378-.3766-.063-.8161 0-1.1927.126-.3767.126-.6905.315-1.0044.631-.1256.126-.2511.315-.3139.441 0 .063-.0628.126-.1256.126s-.1255 0-.1883.064c-.6278.189-1.1928.693-1.4439 1.324-.1883.379-.2511 1.01-.2511 1.703 0 .694.6905 2.587 1.2555 3.281.565.63 1.3184 1.009 2.0717 1.198-.5022.568-.8789 1.32499999-1.13 2.08199999-.2511.82-.4394 1.64-.5022 2.523-.0628.82-.0628 1.64.1255 2.46.1884.757.565 1.325 1.1928 1.766.3139.19.6278.316.9416.442.3139.126.6278.252.9417.315.6277.126 1.3183.126 1.8205-.378.1883-.189.3766-.379.5022-.631.0628-.063.0628-.126 0-.189s-.1883-.189-.2511-.253c-.5022-.378-.7533-.946-.8161-1.577-.0628-.63.1255-1.513.7533-1.766.7533-.378 1.6322.063 2.3228.442.3138-1.073.8788-1.956 1.8205-2.46 1.0672-.505 2.2599-.568 3.3271-1.073.2511-.126.565-.252.7533-.504.0628-.12699999.1883-.25299999.2511-.37899999.0628-.189-.0628-.315-.1255-.441-.3767-.694-2.1344-2.145-3.0761-2.461z" fill="#fcaf7b"/><path d="m40.8856 14.5337152c0 1.135 1.1928 2.081 1.1928 3.217-.4394.126-.9417.189-1.3811.252" fill="#49220a"/><g fill="#fcaf7b"><path d="m40.6958 19.6427152c-.3766.126-.816.063-1.1299-.126s-.6278-.505-.7534-.883c.3767.189.6278.315.9417.504.2511.127.565.253.9416.505z"/><path d="m38.9379 14.0287152c-.0628-.19.0628-.442.2511-.568.1255-.126.3766-.189.5649-.252.1883 0 .3767 0 .565.063s.3139.252.3767.441c-.1884-.063-.3139-.063-.5022-.126-.1256 0-.3139 0-.4395 0-.1255 0-.2511.063-.4394.063-.0628.189-.2511.252-.3766.379z"/><path d="m40.1935 15.1007152c.1734 0 .3139-.141.3139-.315 0-.175-.1405-.316-.3139-.316-.1733 0-.3138.141-.3138.316 0 .174.1405.315.3138.315z"/></g><path d="m52.4397 43.1717152 10.0442-4.416c1.7577-1.766 3.453-3.091 5.085-4.037.502-.126 1.318-.189.439 1.136-.879 1.324-1.757 2.712-1.444 3.217.377.441 1.382-.063 1.821.694.251.504-1.444 1.072-5.2105 1.766l-7.5331 5.803z" fill="#49220a"/><path d="m32.9174 23.0487152 2.3854-.442c5.2105 5.109 7.3449 17.284 10.8604 18.924 3.2643 1.514 7.9725.063 13.4969-1.955l1.6949 3.784c-5.0221 5.488-15.7569 10.093-20.0884 7.444-6.9682-4.1-8.6003-19.177-8.3492-27.755z" fill="#cd5605"/><path d="m22.4921 53.3267152h21.2184c.9416 0 .816-1.388.6277-2.145-1.6322-8.2-7.9098-17.031-7.9098-28.701l-6.0893-.946c-5.0849 8.2-6.8426 18.293-7.847 31.792z" fill="#feebde"/><path d="m20.3606 45.0627152c-4.3316 7.822-7.9726 13.499-10.9231 16.906l-9.4375-12.767c2.8877-17.852 16.1546-19.152 29.8398-27.605h.0627 2.3227c5.4616 18.798 7.031 31.351 4.52 37.596h-19.084c.4394-4.605 1.3811-9.399 2.6994-14.13z" fill="#ea6206"/></g><g transform="translate(48.975703 97.737986)"><path d="m19.2886855 46.6750137 10.1697 35.136 4.7711 26.4300003h4.7709l-4.7709-61.5660003z" fill="#ffe0cb"/><path d="m14.7067855 46.6750137c.6905 18.293.4395 28.197.2511 29.9-.1883 1.64-1.0672 12.742-7.21919999 32.2340003h4.95929999c8.0981-18.6720003 10.9859-29.7740003 11.8647-32.2340003.9417-2.46 3.7038-12.427 7.7215-29.9z" fill="#ffe0cb"/><path d="m19.0392855 46.6750137c2.6366 12.112 7.2193 31.414 13.6853 57.9080003h7.0309c.5022-27.2510003-1.695-45.1660003-5.5243-57.9080003z" fill="#cd5605"/><path d="m14.7095855 46.6750137c.6905 18.293-1.13 36.271-6.65429999 58.2230003h7.47039999c8.1609-18.3560003 13.9991-36.2710003 17.954-58.2230003z" fill="#ea6206"/><path d="m7.11178551 112.405014.2511-4.479c1.6322.505 3.64109999.315 6.02649999-.568 2.6366 1.83 5.9011 3.091 9.856 3.785.3138.063.5021.315.4394.631v.063l-.3767 1.325h-9.9187-5.77529999z" fill="#fcaf7b"/><path d="m33.1659855 112.405014.2511-4.479c1.6322.505 3.6411.315 6.0265-.568 2.6366 1.83 5.901 3.091 9.8559 3.785.3139.063.5022.315.4395.631v.063l-.3767 1.325h-9.9187-5.7753z" fill="#fcaf7b"/><path d="m21.7367855 11.5400137c-1.2555-1.514-2.1344-3.34299999-2.0088-5.42499999.4394-5.929 8.6631-4.668 10.2953-1.64 1.6321 3.028 1.4438 10.66099999-.6906 11.16599999-.816.189-2.5738-.316-4.3943-1.388l1.13 8.011h-6.6543z" fill="#ffe0cb"/><path d="m21.2324855 12.9280137c-.8161-3.72199999-3.2016-6.24499999-2.8249-7.94799999.2511-1.136.8788-1.83 1.946-2.082.565-2.208 2.3228-3.154 5.2733-2.839 4.4571.505 7.1565 2.334 5.9637 6.435-1.0672 0-2.3855-.379-4.1432.252-.565.189-1.0045.883-1.1928 1.955h-.816c-.8161-1.324-1.5695-1.766-2.3228-1.45-.7533.378-.9416 1.198-.5022 2.523l-.3767 3.09099999h-1.0044z" fill="#cd5605"/><path d="m30.9002855 9.14301371c.2511.82.4395 1.70299999.565 2.52299999.1256.946.0628 1.451-1.0672 1.325" fill="#ffe0cb"/><g fill="#cd5605"><path d="m29.8329855 8.51201371c-.3139-.063-.5651-.126-.8162-.189-.2511 0-.565 0-.8788-.063.1255-.063.2511-.126.4394-.189.1256-.063.3139-.063.5022-.063.2511.063.565.252.7534.504z"/><path d="m29.3951855 9.77401371c.208 0 .3766-.17.3766-.379s-.1686-.378-.3766-.378-.3766.169-.3766.378.1686.379.3766.379z"/><path d="m30.3971855 14.3150137c-.2511.127-.5649.19-.8788.064-.3139-.127-.4394-.379-.6278-.568.1256 0 .3139.063.4394.126.1256.063.2511.126.3767.189.1255.063.4394.063.6905.189z"/></g><path d="m40.8842855 42.1970137 8.2864 6.118c2.26.631 4.1433 1.388 5.6499 2.271.3767.316.8161 1.01-.6905.883-1.5067-.126-3.076-.189-3.2644.316-.1883.504.6905 1.135.2511 1.829-.2511.442-1.5694-.694-3.8921-3.406l-8.2237-3.407zm-31.95309999.189h5.46149999c-3.3899 10.913-5.14759999 16.716-5.46149999 17.347-.6278 1.514.6906 3.785 1.19279999 5.046-1.75779999.82-1.56939999-2.144-3.82939999-1.135-2.0716.946-3.5782 2.712-5.9637 1.198-.3139-.189-.6278-.883.1883-1.387 1.946-1.325 4.7082-3.659 5.0848-4.416.5022-.946 1.6322-6.497 3.3272-16.653z" fill="#ffe0cb"/><path d="m24.4364855 19.4250137 2.26-.379c8.3492 7.254 11.8019 21.195 22.0344 28.576l-2.4482 3.091c-17.8285-2.208-22.2229-19.24-21.8462-31.288z" fill="#fb9b5a"/><path d="m14.5795855 47.8730137h19.9629c.9416 0 .7533-1.325.6277-2.019-1.5066-7.695-7.4704-16.022-7.4704-26.935l-5.7754-.883c-4.771 7.696-6.4032 17.158-7.3448 29.837z" fill="#feebde"/><path d="m14.7698855 25.6060137c-.8161-.252-1.5067-.82-2.0089-1.703-2.0716-3.785-1.3183-5.93.8789-6.623 2.2599-.694 4.2688.756 7.847.756.1884 0 .3767 0 .565.064l1.8206.126c5.1476 17.599 6.5914 29.332 4.2687 35.199h-15.6941c-.9416 2.207-1.8204 4.037-2.69929999 5.488h-4.2688c-.4394-13.121 2.6994-24.223 9.29089999-33.307z" fill="#fa873a"/></g><path d="m57.1381881 125.725c2.2599-1.262 5.9637-2.733 6.9054-2.523l-4.3944 6.623.6278 1.893-4.0805 2.523c-1.2555-1.262-1.8832-6.939.9417-8.516z" fill="#ea6206"/><path d="m60.5891881 139.287c-2.0088-1.009-3.3481-3.995-3.7666-5.362l2.8249-2.208c.3139.211 1.1928.883 2.1972 1.893 1.2555 1.261 1.2555 1.892.9416 1.892-.3138 0-2.1971-.631-1.8832 0 .2511.505 1.5694 2.944 2.1971 4.1 0 .316-.5022.694-2.511-.315z" fill="#49220a"/></g></svg>