<svg fill="none" height="60" viewBox="0 0 60 60" width="60" xmlns="http://www.w3.org/2000/svg" xmlns:xlink="http://www.w3.org/1999/xlink"><filter id="a" color-interpolation-filters="sRGB" filterUnits="userSpaceOnUse" height="26.749" width="86.0256" x="24.9744" y="-1"><feFlood flood-opacity="0" result="BackgroundImageFix"/><feColorMatrix in="SourceAlpha" result="hardAlpha" type="matrix" values="0 0 0 0 0 0 0 0 0 0 0 0 0 0 0 0 0 0 127 0"/><feOffset dx="1" dy="1"/><feGaussianBlur stdDeviation="1"/><feColorMatrix type="matrix" values="0 0 0 0 0.129412 0 0 0 0 0.129412 0 0 0 0 0.129412 0 0 0 0.4 0"/><feBlend in2="BackgroundImageFix" mode="normal" result="effect1_dropShadow_172_62376"/><feBlend in="SourceGraphic" in2="effect1_dropShadow_172_62376" mode="normal" result="shape"/></filter><filter id="b" color-interpolation-filters="sRGB" filterUnits="userSpaceOnUse" height="28.9893" width="74.24" x="-15.0002" y="33.2637"><feFlood flood-opacity="0" result="BackgroundImageFix"/><feColorMatrix in="SourceAlpha" result="hardAlpha" type="matrix" values="0 0 0 0 0 0 0 0 0 0 0 0 0 0 0 0 0 0 127 0"/><feOffset dx="1" dy="1"/><feGaussianBlur stdDeviation="1"/><feColorMatrix type="matrix" values="0 0 0 0 0.129412 0 0 0 0 0.129412 0 0 0 0 0.129412 0 0 0 0.4 0"/><feBlend in2="BackgroundImageFix" mode="normal" result="effect1_dropShadow_172_62376"/><feBlend in="SourceGraphic" in2="effect1_dropShadow_172_62376" mode="normal" result="shape"/></filter><filter id="c" color-interpolation-filters="sRGB" filterUnits="userSpaceOnUse" height="35.749" width="21.3415" x="3.22248" y="24.5491"><feFlood flood-opacity="0" result="BackgroundImageFix"/><feColorMatrix in="SourceAlpha" result="hardAlpha" type="matrix" values="0 0 0 0 0 0 0 0 0 0 0 0 0 0 0 0 0 0 127 0"/><feOffset dx=".452083" dy=".452083"/><feGaussianBlur stdDeviation=".452083"/><feColorMatrix type="matrix" values="0 0 0 0 0.129412 0 0 0 0 0.129412 0 0 0 0 0.129412 0 0 0 0.5 0"/><feBlend in2="BackgroundImageFix" mode="normal" result="effect1_dropShadow_172_62376"/><feBlend in="SourceGraphic" in2="effect1_dropShadow_172_62376" mode="normal" result="shape"/></filter><filter id="d" color-interpolation-filters="sRGB" filterUnits="userSpaceOnUse" height="34.1196" width="17.5654" x=".354069" y="27.4554"><feFlood flood-opacity="0" result="BackgroundImageFix"/><feColorMatrix in="SourceAlpha" result="hardAlpha" type="matrix" values="0 0 0 0 0 0 0 0 0 0 0 0 0 0 0 0 0 0 127 0"/><feOffset dx=".452083" dy=".452083"/><feGaussianBlur stdDeviation=".452083"/><feColorMatrix type="matrix" values="0 0 0 0 0.129412 0 0 0 0 0.129412 0 0 0 0 0.129412 0 0 0 0.5 0"/><feBlend in2="BackgroundImageFix" mode="normal" result="effect1_dropShadow_172_62376"/><feBlend in="SourceGraphic" in2="effect1_dropShadow_172_62376" mode="normal" result="shape"/></filter><clipPath id="e"><path d="m0 0h60v60h-60z"/></clipPath><g clip-path="url(#e)"><g filter="url(#a)"><path d="m26.4976 16.9682h1.3205v2.6661l8.671.4485h61.0707l9.0692-1.4203.922-.1495s.449 0 .449-1.1212c0-.1495 0-.5731 0-1.1711-.05-3.8123-.199-15.02476-.199-15.02476s0-.672747-.897-.672747-79.933 0-79.933 0z" fill="#ea6206"/><path d="m37.9094 15.1992c1.1461-.3489 2.6909-.299 2.6909-.299s1.52-.0499 2.6911.299c0 0 1.47.7226 1.5946 4.8836h-4.2857-4.2856c.1246-4.161 1.5947-4.8836 1.5947-4.8836z" fill="#5435d6"/><path d="m40.6003 22.7489c2.0642 0 3.7375-1.6733 3.7375-3.7375 0-2.0641-1.6733-3.7375-3.7375-3.7375s-3.7375 1.6734-3.7375 3.7375c0 2.0642 1.6733 3.7375 3.7375 3.7375z" fill="#331fa8"/><path d="m40.6003 21.0047c1.1009 0 1.9933-.8924 1.9933-1.9933s-.8924-1.9933-1.9933-1.9933-1.9934.8924-1.9934 1.9933.8925 1.9933 1.9934 1.9933z" fill="#5435d6"/><g fill="#feebde"><path d="m40.5999 17.84c.0688 0 .1246-.0558.1246-.1246s-.0558-.1246-.1246-.1246-.1246.0558-.1246.1246.0558.1246.1246.1246z"/><path d="m40.5999 20.4313c.0688 0 .1246-.0558.1246-.1246s-.0558-.1246-.1246-.1246-.1246.0558-.1246.1246.0558.1246.1246.1246z"/><path d="m39.7584 18.1877c.0487-.0487.0487-.1275 0-.1762-.0486-.0486-.1275-.0486-.1762 0-.0486.0487-.0486.1275 0 .1762.0487.0487.1276.0487.1762 0z"/><path d="m41.5988 20.038c.0486-.0486.0486-.1275 0-.1761-.0487-.0487-.1276-.0487-.1762 0-.0487.0486-.0487.1275 0 .1761.0486.0487.1275.0487.1762 0z"/><path d="m39.3043 19.1359c.0688 0 .1246-.0558.1246-.1246s-.0558-.1246-.1246-.1246-.1246.0558-.1246.1246.0558.1246.1246.1246z"/><path d="m41.8956 19.1359c.0688 0 .1246-.0558.1246-.1246s-.0558-.1246-.1246-.1246-.1246.0558-.1246.1246.0558.1246.1246.1246z"/><path d="m39.7687 20.0141c.0486-.0486.0486-.1275 0-.1762-.0487-.0486-.1276-.0486-.1762 0-.0487.0487-.0487.1276 0 .1762.0486.0487.1275.0487.1762 0z"/><path d="m41.578 18.1897c.0487-.0487.0487-.1276 0-.1762-.0487-.0487-.1275-.0487-.1762 0-.0486.0486-.0486.1275 0 .1762.0487.0486.1275.0486.1762 0z"/></g><path d="m28.5884 19.5669h6.279v-15.22407h-6.279z" fill="#fcaf7b"/><path d="m31.653 19.5669h.1744v-15.22407h-.1744z" fill="#5435d6"/><path d="m32.851 15.5727h.9718c.3239 0 .598-.274.598-.598v-9.41845c0-.32391-.2741-.598-.598-.598h-.9718c-.3239 0-.598.27409-.598.598v9.41845c-.0249.3489.2492.598.598.598z" fill="#feebde"/><path d="m29.6617 15.5727h.9718c.3239 0 .598-.274.598-.598v-9.41845c0-.32391-.2741-.598-.598-.598h-.9718c-.3239 0-.598.27409-.598.598v9.41845c0 .3489.2741.598.598.598z" fill="#feebde"/><path d="m26.373 16.9683h1.4701v2.7408h-.7226s-.6977.0747-.7226-.6977c-.0748-.7724-.0249-2.0431-.0249-2.0431z" fill="#fcaf7b"/><path d="m26.5474 15.4731h.6976v1.0216h-.7225z" fill="#feebde"/><path d="m26.8712 3.83721s.7974-.07475.7974.92192v6.57797s.0249.6977-1.0216.6977z" fill="#feebde"/><path d="m28.594 3.6272h.3987v-.92192h-.3987z" fill="#cd5605"/><path d="m28.8149 2.94019-2.8405.82225v2.16774h.1245v-2.04316l2.716-.54817z" fill="#5435d6"/><path d="m26.5972 4.13623v2.89033h-.1744s-.3488-.42358-.3737-1.29567v-.49833-.1495s0-.62291.3737-.94683z" fill="#5435d6"/><path d="m58.3162 9.6177h7.7989c.6229 0 1.1212-.49833 1.1212-1.12125v-5.03316c0-.62292-.4983-1.12125-1.1212-1.12125h-7.7989c-.6229 0-1.1213.49833-1.1213 1.12125v5.03316c-.0249.598.4984 1.12125 1.1213 1.12125z" fill="#feebde"/><path d="m47.6519 9.6177h7.7989c.6229 0 1.1212-.49833 1.1212-1.12125v-5.03316c0-.62292-.4983-1.12125-1.1212-1.12125h-7.7989c-.6229 0-1.1213.49833-1.1213 1.12125v5.03316c-.0249.598.4984 1.12125 1.1213 1.12125z" fill="#feebde"/><path d="m36.9876 9.6177h7.7989c.6229 0 1.1213-.49833 1.1213-1.12125v-5.03316c0-.62292-.4984-1.12125-1.1213-1.12125h-7.7989c-.6229 0-1.1213.49833-1.1213 1.12125v5.03316c-.0249.598.4984 1.12125 1.1213 1.12125z" fill="#feebde"/><path d="m42.0454 0h8.9451c.2492 0 .4734.199332.4734.473415v.099668h-9.867v-.099668c0-.274083.1994-.473415.4485-.473415z" fill="#5435d6"/><path d="m45.0853 16.0962h32.3916c.1246 0 .1994-.0997.1994-.1993v-.0748c0-.1246-.0997-.1993-.1994-.1993h-32.3916c-.1246 0-.1993.0997-.1993.1993v.0748c0 .0996.0996.1993.1993.1993z" fill="#5435d6"/></g><g filter="url(#b)"><path d="m-11.2047 41.4658 5.09069-.6522c.76508-.0889 1.4713-.415 2.03039-.9189 1.97155-1.6898 7.97446-5.603 20.89252-5.603 0 0 5.8852-.3261 11.2702 1.2451.6179.1779 1.177.4151 1.7361.7412 2.0304 1.1265 7.4154 4.091 8.5041 4.4467 1.3242.415 7.5625.8004 9.7106 1.2155 2.1481.415 7.2388 2.1641 7.2388 4.7135v2.8163c0 .1779-.3825 2.0455-.3825 2.0455l-.7945.3854c.0294.8894-.6768 1.6008-1.5596 1.6008h-4.973c0-3.587-2.8838-6.4626-6.4149-6.4626-3.5605 0-6.4149 2.9052-6.4149 6.4626h-28.69036c0-3.587-2.88374-6.4626-6.414872-6.4626-3.560548 0-6.414888 2.9052-6.414888 6.4626l-6.38548-.9486v-8.8342c-.0294-1.1265.824-2.1048 1.9716-2.2531z" fill="#fdd7bd"/><path d="m41.1441 47.0391c3.5606 0 6.4149 2.9052 6.4149 6.4626v2.0159h-12.8298v-2.0159c0-3.5574 2.8838-6.4626 6.4149-6.4626z" fill="#331fa8"/><path d="m-.375898 47.0391c3.560548 0 6.414868 2.9052 6.414868 6.4626v2.0159h-12.82974v-2.0159c0-3.5574 2.85433-6.4626 6.414872-6.4626z" fill="#331fa8"/><path d="m48.7656 44.1042c-.2354-.1778-.1177-.5336.1472-.5929.7356-.1482 1.9421-.0296 3.0308.3854.7063.2668 2.1776 1.3637 2.5307 2.6977.0588.2075-.1471.3558-.3237.2965-1.0593-.4151-3.9137-1.5712-5.385-2.7867z" fill="#5435d6"/><path d="m50.7666 51.1004h1.4124c.206 0 .3825-.1779.3825-.3854s-.1765-.3854-.3825-.3854h-1.4124c-.206 0-.3826.1779-.3826.3854.0295.2075.1766.3854.3826.3854z" fill="#331fa8"/><path d="m41.1442 59.2528c3.1528 0 5.7086-2.5749 5.7086-5.7512 0-3.1762-2.5558-5.7511-5.7086-5.7511s-5.7087 2.5749-5.7087 5.7511c0 3.1763 2.5559 5.7512 5.7087 5.7512z" fill="#5435d6"/><path d="m41.1441 57.4444c2.1615 0 3.9137-1.7652 3.9137-3.9428 0-2.1775-1.7522-3.9428-3.9137-3.9428-2.1614 0-3.9136 1.7653-3.9136 3.9428 0 2.1776 1.7522 3.9428 3.9136 3.9428z" fill="#331fa8"/><path d="m41.144 54.7765c.6988 0 1.2653-.5707 1.2653-1.2747s-.5665-1.2747-1.2653-1.2747-1.2653.5707-1.2653 1.2747.5665 1.2747 1.2653 1.2747z" fill="#feebde"/><path d="m-.376054 59.2528c3.152804 0 5.708654-2.5749 5.708654-5.7512 0-3.1762-2.55585-5.7511-5.708654-5.7511-3.152806 0-5.708666 2.5749-5.708666 5.7511 0 3.1763 2.55586 5.7512 5.708666 5.7512z" fill="#5435d6"/><path d="m-.376126 57.4444c2.161456 0 3.913656-1.7652 3.913656-3.9428 0-2.1775-1.7522-3.9428-3.913656-3.9428-2.161454 0-3.913664 1.7653-3.913664 3.9428 0 2.1776 1.75221 3.9428 3.913664 3.9428z" fill="#331fa8"/><path d="m-.376032 54.7765c.698817 0 1.265316-.5707 1.265316-1.2747s-.566499-1.2747-1.265316-1.2747c-.698818 0-1.265328.5707-1.265328 1.2747s.56651 1.2747 1.265328 1.2747z" fill="#feebde"/><path d="m28.3145 35.7444c.1177 0 .2354.0296.3826.0296.3825.1482.765.3261 1.1181.504 1.9422 1.0672 6.9446 3.8242 8.3276 4.3578-3.2369-.5929-8.3276-3.6463-9.8871-4.6246-.1766-.0593-.0883-.2668.0588-.2668z" fill="#feebde"/><path d="m6.00952 52.7605h28.77868c-.0294.2372-.0294.504-.0294.7411h-28.71985c0-.2371 0-.5039-.02943-.7411z" fill="#331fa8"/><path d="m35.406 41.6437c.1471 0 .206-.1778.0883-.2667-1.6479-1.2155-8.8572-5.9884-18.3913-5.8401 0 0-12.06466-.8894-17.626176 5.0396-.117704.1186-.000007.3261.176549.3261z" fill="#5435d6"/><g fill="#feebde"><path d="m19.8691 36.8411v3.4388c0 .2372.1766.4151.412.4151h12.1235c.1472 0 .2354-.2075.0883-.2965-1.5301-.9486-6.6797-3.8242-12.2412-3.8835-.2354-.0296-.3826.1186-.3826.3261z"/><path d="m17.7504 36.9599v3.172c0 .2964-.2354.5336-.5296.5336l-10.9171-.2965c-.29426 0-.50023-.2371-.50023-.5336v-1.7787c0-.2371.14712-.4446.38253-.5039 1.32417-.3854 5.9735-1.5119 11.123-1.0969.2355 0 .4414.2372.4414.504z"/><path d="m5.03841 38.3531v1.7787c0 .1186-.08828.2075-.20598.2075l-2.76605-.1186c-.20599 0-.26484-.2668-.11771-.3853.61795-.4744 1.76557-1.2748 2.82491-1.6898.1177-.0297.26483.0593.26483.2075z"/></g><path d="m6.03892 53.5017s.02942 1.2748-.41197 2.0159c0 .0296 29.60265 0 29.60265 0s-.5591-1.0969-.5003-2.0159z" fill="#331fa8"/><path d="m47.5589 53.5017c0-.2372-.0294-.504-.0294-.7411h2.0304c.2648 0 .5002-.1483.618-.3854l.1471-.3261c.1471-.3261.4708-.5336.7945-.5336h3.178l.2943-.0297c.9122 0 1.6478.7115 1.6478 1.6305v1.2747c0 .7115-.5885 1.3044-1.2947 1.2748l-7.7979-.1779c0 .0297.3825-.7115.4119-1.9862z" fill="#331fa8"/></g><g filter="url(#c)"><path d="m11.5127 39.9219 2.8679 10.1224 2.0972 7.4567h1.5236l-2.2226-17.5791z" fill="#fb9b5a"/><path d="m10.742 39.9219c-.0717 5.2233-.2868 8.0511-.3585 8.5374-.0717.4683-1.12926 3.4942-3.15474 9.0417h1.57737c2.59907-5.3314 4.03307-8.3393 4.33777-9.0417.3047-.7025 1.2368-3.5483 2.6349-8.5374z" fill="#fcaf7b"/><path d="m7.08569 58.9419.07171-1.6751h1.66697c.78868.5584 1.81043 1.0087 3.08303 1.3509v.3242h-3.01133l-1.02169-.1621v.1621z" fill="#feebde"/><path d="m16.2617 58.9414.0717-1.675h1.667c.7887.5583 1.8104 1.0086 3.083 1.3508v.3242h-3.0113l-1.0217-.1621v.1621z" fill="#feebde"/><path d="m12.7679 29.9075c-.3585-.4323-.6094-.9546-.5735-1.549.1254-1.6931 2.4736-1.3329 2.9396-.4683.466.8645.4123 3.0439-.1972 3.188-.233.054-.7349-.0901-1.2547-.3962l.3226 2.2874h-1.9z" fill="#49220a"/><path d="m14.3817 26.9535c-.251-.072-.6274-.108-.7887-.09.0896-.2162.1255-.4503.0896-.7025-.0358-.2341-.1254-.4323-.233-.6304-.0358-.09-.0896-.1801-.1613-.2521-.0717-.0721-.1613-.1261-.2689-.1441-.1075-.018-.2151-.018-.3047 0-.0538.018-.0896.036-.1255.036-.0538.018-.0717-.018-.1075-.054-.0717-.0721-.1972-.1081-.2868-.1081-.1076-.018-.233 0-.3406.036-.1075.036-.1972.0901-.2868.1801-.0358.036-.0717.0901-.0896.1261 0 .018-.0179.036-.0359.036-.0179 0-.0358 0-.0537.018-.1793.0541-.3406.1982-.4123.3783-.0538.108-.0717.2882-.0717.4863s.1972.7385.3585.9366c.1613.1801.3764.2882.5915.3422-.1434.1621-.2509.3782-.3226.5944-.0717.2341-.1255.4683-.1434.7204-.0179.2342-.018.4683.0358.7025.0538.2161.1613.3782.3406.5043.0896.054.1792.0901.2689.1261.0896.036.1792.072.2688.09.1793.0361.3764.0361.5198-.108.0538-.0541.1076-.1081.1434-.1801.018-.0181.018-.0361 0-.0541-.0179-.018-.0537-.054-.0717-.072-.1434-.1081-.2151-.2702-.233-.4503s.0359-.4323.2151-.5043c.2151-.1081.4661.018.6632.126.0897-.3061.251-.5583.5198-.7024.3048-.1441.6453-.1621.95-.3062.0717-.036.1614-.072.2151-.1441.018-.036.0538-.072.0717-.1081.018-.054-.0179-.09-.0358-.126-.1076-.1982-.6095-.6124-.8783-.7025z" fill="#fcaf7b"/><path d="m15.3487 29.1514c0 .3242.3406.5943.3406.9186-.1255.036-.2689.054-.3944.072" fill="#49220a"/><g fill="#fcaf7b"><path d="m15.2943 30.6097c-.1075.036-.233.018-.3226-.036s-.1793-.1441-.2151-.2522c.1075.0541.1792.0901.2689.1441.0717.036.1613.0721.2688.1441z"/><path d="m14.7923 29.0069c-.018-.0541.0179-.1261.0717-.1621.0358-.0361.1075-.0541.1613-.0721.0537 0 .1075 0 .1613.018s.0896.0721.1075.1261c-.0537-.018-.0896-.018-.1433-.036-.0359 0-.0897 0-.1255 0-.0359 0-.0717.018-.1255.018-.0179.054-.0717.072-.1075.1081z"/><path d="m15.1514 29.3132c.0495 0 .0896-.0403.0896-.0901 0-.0497-.0401-.09-.0896-.09s-.0896.0403-.0896.09c0 .0498.0401.0901.0896.0901z"/></g><path d="m18.6479 37.3281 2.868-1.2608c.5019-.5044.9858-.8826 1.4519-1.1528.1434-.036.3764-.054.1254.3242-.2509.3783-.5018.7745-.4122.9186.1075.1261.3943-.018.5198.1981.0717.1441-.4123.3062-1.4878.5044l-2.1509 1.657z" fill="#49220a"/><path d="m13.0733 31.5824.6811-.1261c1.4878 1.4589 2.0972 4.9351 3.101 5.4034.9321.4323 2.2764.018 3.8538-.5583l.4839 1.0807c-1.4339 1.567-4.499 2.8818-5.7358 2.1253-1.9897-1.1707-2.4557-5.4755-2.384-7.925z" fill="#cd5605"/><path d="m10.0969 40.2277h6.0585c.2689 0 .2331-.3963.1793-.6124-.4661-2.3415-2.2585-4.8631-2.2585-8.1952l-1.7387-.2702c-1.4519 2.3415-1.9538 5.2233-2.2406 9.0778z" fill="#feebde"/><path d="m9.48815 37.8677c-1.2368 2.2334-2.27643 3.8545-3.11888 4.8271l-2.69471-3.6454c.82453-5.0972 4.61264-5.4684 8.52024-7.8819h.0179.6632c1.5594 5.3674 2.0075 8.9517 1.2906 10.7348h-5.44912c.12547-1.3148.39435-2.6837.77077-4.0346z" fill="#ea6206"/></g><g filter="url(#d)"><path d="m6.31421 41.2346 2.90377 10.0324 1.36232 7.5468h1.3622l-1.3622-17.5792z" fill="#ffe0cb"/><path d="m5.00574 41.2346c.19717 5.2233.12548 8.0511.0717 8.5374-.05377.4683-.30472 3.6383-2.06133 9.2039h1.41605c2.31228-5.3314 3.13681-8.5014 3.38776-9.2039.26887-.7024 1.05754-3.5482 2.20468-8.5374z" fill="#ffe0cb"/><path d="m6.24268 41.2346c.75283 3.4582 2.06133 8.9697 3.90752 16.5345h2.0076c.1434-7.7809-.484-12.8962-1.5774-16.5345z" fill="#cd5605"/><path d="m5.00645 41.2346c.19717 5.2233-.32264 10.3566-1.9 16.6246h2.13303c2.3302-5.2414 3.99718-10.3566 5.12642-16.6246z" fill="#ea6206"/><path d="m2.83765 60.0022.0717-1.2788c.46604.1441 1.03962.09 1.72076-.1621.75283.5223 1.68492.8825 2.81417 1.0807.08962.018.14339.09.12546.1801v.018l-.10754.3782h-2.83209-1.64906z" fill="#fcaf7b"/><path d="m10.2766 60.0027.0717-1.2788c.4661.1441 1.0396.09 1.7208-.1621.7528.5223 1.6849.8825 2.8141 1.0807.0897.018.1434.09.1255.1801v.018l-.1075.3782h-2.8321-1.6491z" fill="#fcaf7b"/><path d="m7.01259 31.2029c-.35849-.4323-.60945-.9546-.5736-1.549.12547-1.6931 2.4736-1.3329 2.93964-.4683.46603.8645.41226 3.0439-.19717 3.188-.23302.0541-.73491-.09-1.25472-.3962l.32265 2.2874h-1.90002z" fill="#ffe0cb"/><path d="m6.86906 31.5987c-.23302-1.0627-.91416-1.7831-.80661-2.2695.0717-.3242.25094-.5223.55566-.5943.16132-.6304.66322-.9006 1.50567-.8105 1.27265.144 2.04342.6664 1.70284 1.8371-.30472 0-.68113-.108-1.18302.0721-.16132.054-.2868.2521-.34057.5583h-.23301c-.23302-.3782-.44813-.5043-.66322-.4142-.2151.108-.26886.3422-.14339.7204l-.10756.8826h-.28679z" fill="#cd5605"/><path d="m9.62974 30.5178c.07169.2342.12547.4863.16132.7205.03585.2702.01791.4142-.30473.3782" fill="#ffe0cb"/><g fill="#cd5605"><path d="m9.32504 30.3379c-.08962-.018-.16133-.036-.23303-.054-.07169 0-.16132 0-.25095-.018.03585-.018.07172-.036.12549-.054.03585-.0181.08961-.0181.14338-.0181.0717.0181.16134.0721.21511.1441z"/><path d="m9.19958 30.6983c.0594 0 .10755-.0484.10755-.1081 0-.0596-.04815-.108-.10755-.108-.05939 0-.10754.0484-.10754.108 0 .0597.04815.1081.10754.1081z"/><path d="m9.48584 31.9952c-.0717.036-.16131.054-.25093.018s-.12547-.1081-.17925-.1621c.03585 0 .08962.018.12547.036s.07169.036.10754.054.12547.018.19717.0541z"/></g><path d="m12.4799 39.9561 2.366 1.7471c.6453.1801 1.1831.3962 1.6133.6484.1075.09.233.2882-.1972.2521-.4302-.036-.8783-.054-.9321.0901-.0537.1441.1972.3242.0717.5223-.0717.1261-.4481-.1981-1.1113-.9726l-2.3481-.9726zm-9.12361.054h1.55943c-.96793 3.116-1.46981 4.773-1.55943 4.9531-.17925.4323.19718 1.0807.34057 1.4409-.50189.2342-.44811-.6123-1.09339-.3242-.59151.2702-1.02171.7745-1.70284.3423-.089623-.0541-.179259-.2522.053761-.3963.555659-.3782 1.344339-1.0447 1.451889-1.2608.1434-.2702.46605-1.8552.95001-4.755z" fill="#ffe0cb"/><path d="m7.78332 33.454.64531-.1081c2.38397 2.0714 3.36977 6.0519 6.29157 8.1592l-.6991.8826c-5.09059-.6304-6.34532-5.4935-6.23778-8.9337z" fill="#fb9b5a"/><path d="m4.96924 41.5765h5.70006c.2688 0 .2151-.3782.1792-.5763-.4302-2.1974-2.13302-4.5749-2.13302-7.6909l-1.64907-.2522c-1.36227 2.1974-1.8283 4.8991-2.09717 8.5194z" fill="#feebde"/><path d="m5.0233 35.2188c-.23302-.0721-.4302-.2342-.5736-.4863-.59151-1.0807-.37641-1.6931.25095-1.8912.64528-.1982 1.21887.2161 2.24057.2161.05378 0 .10756 0 .16133.018l.51982.036c1.46981 5.0252 1.88207 8.3753 1.21886 10.0504h-4.48115c-.26887.6304-.5198 1.1527-.77075 1.567h-1.21888c-.12547-3.7464.77077-6.9164 2.65285-9.51z" fill="#fa873a"/></g><path d="m3.13743 35.8986c.64529-.3602 1.70284-.7805 1.97171-.7205l-1.25472 1.8912.17924.5404-1.16511.7204c-.35849-.3602-.53772-1.9812.26888-2.4315z" fill="#ea6206"/><path d="m4.12259 39.771c-.57359-.2882-.95597-1.1407-1.07547-1.531l.8066-.6304c.08962.0601.34057.2522.62736.5404.35849.3602.35849.5403.26887.5403-.08963 0-.62736-.1801-.53774 0 .0717.1441.44811.8405.62736 1.1707 0 .0901-.1434.1982-.71698-.09z" fill="#49220a"/></g></svg>