<svg fill="none" height="218" width="188" xmlns="http://www.w3.org/2000/svg"><filter id="a" color-interpolation-filters="sRGB" filterUnits="userSpaceOnUse" height="240.018" width="189.058" x="-.441" y="-22.441"><feFlood flood-opacity="0" result="BackgroundImageFix"/><feColorMatrix in="SourceAlpha" result="hardAlpha" values="0 0 0 0 0 0 0 0 0 0 0 0 0 0 0 0 0 0 127 0"/><feOffset dx=".441" dy=".441"/><feGaussianBlur stdDeviation=".441"/><feColorMatrix values="0 0 0 0 0.129412 0 0 0 0 0.129412 0 0 0 0 0.129412 0 0 0 0.5 0"/><feBlend in2="BackgroundImageFix" result="effect1_dropShadow_17863_419645"/><feBlend in="SourceGraphic" in2="effect1_dropShadow_17863_419645" result="shape"/></filter><filter id="b" color-interpolation-filters="sRGB" filterUnits="userSpaceOnUse" height="37.542" width="52.262" x="60.49" y="96.999"><feFlood flood-opacity="0" result="BackgroundImageFix"/><feColorMatrix in="SourceAlpha" result="hardAlpha" values="0 0 0 0 0 0 0 0 0 0 0 0 0 0 0 0 0 0 127 0"/><feOffset dx="1" dy="1"/><feGaussianBlur stdDeviation="1"/><feColorMatrix values="0 0 0 0 0.129412 0 0 0 0 0.129412 0 0 0 0 0.129412 0 0 0 0.4 0"/><feBlend in2="BackgroundImageFix" result="effect1_dropShadow_17863_419645"/><feBlend in="SourceGraphic" in2="effect1_dropShadow_17863_419645" result="shape"/></filter><filter id="c" color-interpolation-filters="sRGB" filterUnits="userSpaceOnUse" height="18.507" width="29.254" x="100.906" y="114.403"><feFlood flood-opacity="0" result="BackgroundImageFix"/><feColorMatrix in="SourceAlpha" result="hardAlpha" values="0 0 0 0 0 0 0 0 0 0 0 0 0 0 0 0 0 0 127 0"/><feOffset dx="1" dy="1"/><feGaussianBlur stdDeviation="1"/><feColorMatrix values="0 0 0 0 0.129412 0 0 0 0 0.129412 0 0 0 0 0.129412 0 0 0 0.4 0"/><feBlend in2="BackgroundImageFix" result="effect1_dropShadow_17863_419645"/><feBlend in="SourceGraphic" in2="effect1_dropShadow_17863_419645" result="shape"/></filter><filter id="d" color-interpolation-filters="sRGB" filterUnits="userSpaceOnUse" height="15.46" width="24.277" x="82.393" y="119.742"><feFlood flood-opacity="0" result="BackgroundImageFix"/><feColorMatrix in="SourceAlpha" result="hardAlpha" values="0 0 0 0 0 0 0 0 0 0 0 0 0 0 0 0 0 0 127 0"/><feOffset dx="1" dy="1"/><feGaussianBlur stdDeviation="1"/><feColorMatrix values="0 0 0 0 0.129412 0 0 0 0 0.129412 0 0 0 0 0.129412 0 0 0 0.4 0"/><feBlend in2="BackgroundImageFix" result="effect1_dropShadow_17863_419645"/><feBlend in="SourceGraphic" in2="effect1_dropShadow_17863_419645" result="shape"/></filter><g filter="url(#a)"><g fill="#055e5a"><path d="M40.598 121.757c-1.057 0-1.895 1.322-1.895 2.953V187.429c0 .397 0 .749.044 1.146.044.441.44.617.661.705.397.177.838.221 1.234.221.353 0 .706-.044 1.058-.177.22-.088.661-.22.794-.573.044-.044.044-.132.044-.22.044-.397 0-.793 0-1.19V124.754c0-1.675-.882-2.997-1.94-2.997zM101.114 121.404c-1.058 0-1.895 1.323-1.895 2.953v62.72c0 .396 0 .749.044 1.146.044.44.44.617.66.705.398.176.838.22 1.235.22.353 0 .705-.044 1.058-.176.22-.088.661-.221.793-.573.044-.044.044-.132.044-.221.044-.396 0-.793 0-1.19V124.401c0-1.719-.881-2.997-1.939-2.997zM24.468 141.282c-1.058 0-1.896 1.455-1.896 3.262v69.375c0 .44 0 .837.044 1.278.044.485.441.661.662.793.396.176.837.265 1.234.265.352 0 .705-.044 1.057-.177.22-.088.662-.22.794-.617.044-.088.044-.132.044-.22.044-.441 0-.882 0-1.322v-69.375c-.044-1.807-.882-3.262-1.94-3.262z"/></g><path d="m16.445 140.797 21.95-28.913h64.218l21.949 28.913z" fill="#187f73"/><path d="M124.562 140.798H16.445v2.644h108.117z" fill="#055e5a"/><path d="M168.107 158.824h-29.839l-3.922 47.91h44.472z" fill="#187f73"/><path d="M168.107 158.824h-9.168l-5.509 47.91h25.387z" fill="#055e5a"/><path d="M104.2 150.626c-3.174-1.895-8.507.529-8.507 3.262 0 8.198 7.493 46.72 7.846 49.188.396 2.424 4.584 3.085 4.804 0 .397-4.893 1.102-21.817.397-29.663a619.62 619.62 0 0 0-.926-9.079c3.923 7.096 9.961 17.189 18.159 30.368l4.452-2.028c-3.482-11.504-6.347-19.658-8.595-24.374-3.835-8.109-7.405-15.073-8.947-17.542-2.336-3.834-6.479-2.468-8.683-.132z" fill="#cb7a43"/><path d="m130.116 186.327-15.295-36.186c-3.658-5.906-13.927 1.191-12.693 4.628 2.82 7.758 17.233 32.837 18.071 35.173z" fill="#d7faf2"/><path d="M130.98 190.429c.958.808 1.573 1.417 1.839 1.927.358.614.737 1.545 1.234 2.799-.696.412-7.016 4.041-18.86 10.893-1.421-1.329-1.635-2.369-.642-3.119s1.799-1.353 2.441-1.847l6.502-8.97a.43.43 0 0 1 .558-.085l1.34 1.028c1.23-.104 2.172-.324 2.786-.682.509-.265 1.058-.864 1.708-1.813.258-.359.718-.45 1.078-.192-.022.039.016.061.016.061zM109.356 201.092c.44 1.146.661 2.028.661 2.601 0 .705-.132 1.719-.353 3.041H87.847c-.573-1.851-.22-2.865.97-3.041a54.348 54.348 0 0 0 3.04-.397l10.138-4.496a.424.424 0 0 1 .529.177l.661 1.586c1.146.529 2.028.794 2.733.794.573 0 1.366-.221 2.38-.705a.759.759 0 0 1 1.014.396c0 .044.044.044.044.044z" fill="#187f73"/><path d="M94.635 156.665c0 10.269 4.892 34.202 4.892 36.494h10.49c-1.543-21.377-2.072-32.175-1.631-32.395.661-.353 27.459 2.688 35.481 2.688 11.592 0 16.396-7.316 16.749-20.848h-22.964c-4.672.485-29.045 5.422-38.125 7.097-3.834.705-4.892 4.143-4.892 6.964z" fill="#d7faf2"/><g filter="url(#b)"><path d="m109.621 117.305-19.702 13.046-19.966-5.112 21.112-11.504z" fill="#d7faf2"/><g fill="#dd0539"><path d="M91.064 113.735 86.04 98.661 62.9 107.52l7.052 17.718z"/><path d="m62.9 107.52 23.14-8.859L85.5 98l-24.01 9.257 7.405 18.644 21.024 5.641 19.834-13.046-.132-1.19-19.702 13.046-19.966-5.112z"/><path d="m101.598 121.536-4.099-.926-5.42 3.306L96 124.93zM93.005 115.057l-1.41-.353-1.896 1.102 1.323.353zM95.605 115.542l-1.543-.353-1.851 1.102 1.498.353zM98.249 116.027l-1.675-.397-1.851 1.19 1.674.309zM100.85 116.468l-1.762-.353-1.852 1.19 1.807.353zM90.624 116.379l-1.41-.352-1.896 1.057 1.367.397zM93.224 116.864l-1.543-.352-1.85 1.102 1.498.396zM95.826 117.393l-1.631-.352-1.851 1.101 1.63.353zM98.47 117.878l-1.763-.353-1.851 1.19 1.806.309zM88.244 117.701l-1.454-.352-1.895 1.058 1.41.396zM90.845 118.231l-1.543-.353-1.85 1.102 1.498.353zM93.445 118.759l-1.631-.352-1.851 1.102 1.63.396zM96.046 119.288l-1.72-.352-1.806 1.146 1.718.352zM85.863 119.024l-1.454-.353-1.895 1.058 1.454.397zM88.464 119.597l-1.542-.397-1.852 1.102 1.499.397zM91.064 120.126l-1.63-.353-1.852 1.102 1.63.397zM93.665 120.699l-1.675-.397-1.851 1.146 1.719.397zM83.484 120.346l-1.455-.353-1.94 1.058 1.5.397zM86.084 120.919l-1.542-.353-1.895 1.058 1.586.397zM88.684 121.492l-1.587-.352-1.85 1.102 1.586.396zM91.285 122.109l-1.675-.397-1.807 1.102 1.675.397zM81.105 121.668l-1.455-.352-1.94 1.013 1.5.441zM83.705 122.285l-1.542-.396-1.895 1.057 1.586.441zM86.305 122.903l-1.587-.397-1.85 1.102 1.586.397zM88.906 123.52l-1.675-.397-1.807 1.102 1.63.397zM78.724 122.99l-1.455-.396-1.939 1.058 1.543.396zM81.325 123.607l-1.543-.352-1.895 1.058 1.586.396zM83.924 124.269l-1.587-.397-1.85 1.058 1.586.44zM86.48 124.886l-1.63-.353-1.807 1.058 1.63.396zM76.344 124.313l-1.454-.397-1.984 1.058 1.587.396zM78.944 124.974l-1.543-.397-1.895 1.058 1.587.441zM81.545 125.635l-1.586-.353-1.852 1.014 1.587.441zM84.1 126.296l-1.586-.352-1.807 1.013 1.587.441z"/></g><path d="m89.92 113.382-4.451-13.355-20.76 7.846 6.215 15.47z" fill="#d7faf2"/></g><path d="M131.615 87.29c1.014-2.6 1.366-5.466.22-8.154-3.261-7.757-13.751-2.248-14.545 2.468-.793 4.76 2.909 14.853 5.951 14.633 1.19-.088 3.349-1.587 5.245-3.879l2.115 11.196 8.903-3.042z" fill="#cb7a43"/><path d="M125.487 74.993c-5.024-.044-10.225 3.746-8.198 7.14 1.279 2.16 4.408 2.424 7.493 2.777.176-.794.749-1.543 1.631-1.807 1.278-.441 2.644.22 3.041 1.454.132.44.176.882.044 1.322 1.146.485 2.116 1.19 2.689 2.38 1.454-.484 2.336-5.509.22-9.3a3.23 3.23 0 0 0 .617-.176c3.086-1.057 4.716-4.407 3.703-7.448-1.058-3.086-4.408-4.716-7.449-3.703-3.13 1.014-4.76 4.276-3.791 7.36z" fill="#187f73"/><path d="M118.216 88.524c.264.97-.661 2.512-.177 3.482.309.617 1.323.529 1.984.485" fill="#cb7a43"/><path d="M118.305 86.673c.176-.177.352-.353.573-.441.22-.088.44-.176.705-.22.264-.045.529-.045.749.088.265.088.485.308.485.573a.79.79 0 0 0-.573-.22c-.22 0-.397 0-.617.043-.441 0-.837.088-1.322.177zM121.125 94.606c.132-.308.309-.485.485-.705.176-.176.352-.353.617-.529.088.353-.088.661-.309.838-.22.22-.484.396-.793.396zM119.495 88.117a.485.485 0 1 0-.31-.918.485.485 0 0 0 .31.918z" fill="#187f73"/><g filter="url(#c)"><path d="m123.767 129.911-12.43-6.083c-5.597.089-8.242-.264-8.021-1.057.352-1.19 1.983-.75 2.38-1.499.396-.749-1.279-2.512-2.953-4.143-1.675-1.631-.441-1.763.308-1.719 2.601.837 5.421 2.248 8.463 4.275l15.646 3.438z" fill="#cb7a43"/></g><path d="M129.851 128.853c-5.642 1.851-13.267-.044-19.261-3.262l.925-6.655c7.978 2.292 14.589 1.455 19.305.088 4.188 2.292 3.482 8.375-.969 9.829z" fill="#b30436"/><g filter="url(#d)"><path d="M103.669 132.203c-3.085-1.102-5.862-1.631-8.242-1.587-4.54.044-6.523-.352-9.344-2.336-1.498-1.058-3.261-3.614-2.512-4.848.529-.838 5.553 1.014 7.316.881 1.807-.132-.925-3.702.088-3.526 1.146-.308 2.645.97 4.364 3.879l6.876 1.499z" fill="#cb7a43"/></g><path d="m126.191 96.237 10.798-3.173c1.19-.353 13.752 12.694 16.661 22.699 2.688 9.123 12.914 12.429 12.693 28.032-7.448.661-26.269 13.839-32.042 7.272-2.821-3.173-4.54-7.052-5.554-11.371-7.184 1.939-16.572 2.115-28.252-.177-.97-2.512-.882-7.228.264-14.148 13.047.749 21.862-.264 26.534-2.997.044-9.035.573-18.335-1.102-26.137z" fill="#dd0539"/><path d="M117.246 141.723c-1.058 0-1.939 1.41-1.939 3.085V211.097c0 .397 0 .794.044 1.191.044.484.44.661.661.749.397.176.837.264 1.278.264.353 0 .749-.044 1.102-.176.22-.088.661-.22.793-.573.044-.044.044-.132.044-.22.044-.441 0-.838 0-1.279V144.852c-.044-1.719-.925-3.129-1.983-3.129z" fill="#055e5a"/></g></svg>