<svg height="320" viewBox="0 0 248 320" width="248" xmlns="http://www.w3.org/2000/svg"><g fill="none" transform="translate(41.4444 67.332047)"><g fill="#055e5a"><path d="m24.1539 54.4249528c-1.0578 0-1.8953 1.323-1.8953 2.953v.617 1.808 2.776 3.659 4.319 4.892 5.245 5.51 5.553 5.51 5.2890002 4.892 4.363 3.659 2.821 1.807c0 .396 0 .749.0441 1.146.044.44.4407.617.6611.705.3967.176.8375.22 1.2341.22.3526 0 .7052-.044 1.0578-.176.2204-.088.6611-.221.7934-.573.044-.044.044-.132.044-.221.0441-.396 0-.793 0-1.19 0-.573 0-1.19 0-1.763 0-.881 0-1.807 0-2.688 0-1.146 0-2.336 0-3.482 0-1.366 0-2.777 0-4.143 0-1.543 0-3.13 0-4.672 0-1.675 0-3.3500002 0-5.0250002 0-1.763 0-3.526 0-5.289 0-1.807 0-3.57 0-5.377 0-1.763 0-3.57 0-5.333 0-1.719 0-3.438 0-5.157 0-1.631 0-3.217 0-4.848 0-1.455 0-2.909 0-4.408 0-1.278 0-2.512 0-3.79 0-1.014 0-2.028 0-3.041 0-.75 0-1.455 0-2.204 0-.397 0-.794 0-1.19 0-.044 0-.132 0-.177 0-1.674-.8814-2.997-1.9392-2.997z"/><path d="m84.6696 54.0729528c-1.058 0-1.895 1.322-1.895 2.953v.617 1.807 2.777 3.658 4.319 4.893 5.245 5.509 5.554 5.509 5.2890002 4.892 4.364 3.658 2.821 1.807c0 .397 0 .749.044 1.146.044.441.441.617.661.705.397.177.837.221 1.234.221.353 0 .705-.044 1.058-.177.22-.088.661-.22.793-.573.044-.044.044-.132.044-.22.044-.397 0-.793 0-1.19 0-.573 0-1.19 0-1.763 0-.882 0-1.807 0-2.689 0-1.146 0-2.336 0-3.482 0-1.366 0-2.776 0-4.143 0-1.542 0-3.129 0-4.672 0-1.675 0-3.3490002 0-5.0240002 0-1.763 0-3.526 0-5.289 0-1.807 0-3.57 0-5.378 0-1.763 0-3.57 0-5.333 0-1.719 0-3.438 0-5.156 0-1.631 0-3.218 0-4.849 0-1.454 0-2.909 0-4.407 0-1.278 0-2.513 0-3.791 0-1.014 0-2.027 0-3.041 0-.749 0-1.454 0-2.204 0-.396 0-.793 0-1.19 0-.044 0-.132 0-.176 0-1.719-.881-2.997-1.939-2.997z"/><path d="m8.0224 73.9509528c-1.0578 0-1.8952 1.454-1.8952 3.261v.705 1.984 3.085 4.011 4.804 5.377 5.8180002 6.083 6.17 6.083 5.818 5.421 4.804 4.055 3.129 2.028c0 .441 0 .837.0441 1.278.044.485.4407.661.6611.793.3967.177.8374.265 1.2341.265.3526 0 .7052-.044 1.0578-.176.2204-.089.6611-.221.7934-.617.044-.089.044-.133.044-.221.0441-.441 0-.881 0-1.322 0-.661 0-1.322 0-1.983 0-1.014 0-1.984 0-2.998 0-1.278 0-2.6 0-3.878 0-1.543 0-3.086 0-4.584 0-1.719 0-3.438 0-5.157 0-1.851 0-3.746 0-5.597 0-1.94 0-3.923 0-5.862 0-1.984 0-3.967 0-5.951 0-1.983 0-3.966 0-5.906 0-1.895 0-3.834 0-5.7300002 0-1.807 0-3.57 0-5.377 0-1.631 0-3.261 0-4.848 0-1.41 0-2.821 0-4.187 0-1.146 0-2.248 0-3.394 0-.793 0-1.631 0-2.424 0-.441 0-.882 0-1.322 0-.044 0-.133 0-.177-.044-1.807-.8815-3.261-1.9393-3.261z"/></g><path d="m0 73.4659528 21.9496-28.914h64.218l21.949 28.914z" fill="#187f73"/><path d="m108.1176 73.4659528h-108.1171v2.644h108.1171z" fill="#055e5a"/><path d="m151.6626 91.4929528h-29.839l-3.923 47.9100002h44.473z" fill="#187f73"/><path d="m151.6626 91.4929528h-9.167l-5.51 47.9100002h25.388z" fill="#055e5a"/><path d="m87.7536 83.2949528c-3.173-1.895-8.506.529-8.506 3.262 0 8.198 7.493 46.7190002 7.845 49.1880002.397 2.424 4.584 3.085 4.804 0 .397-4.893 1.102-21.818.397-29.663-.308-3.218-.617-6.3030002-.926-9.0800002 3.923 7.0960002 9.961 17.1900002 18.16 30.3680002l4.451-2.027c-3.482-11.504-6.347-19.658-8.595-24.374-3.834-8.1100002-7.404-15.0740002-8.947-17.5420002-2.336-3.834-6.479-2.468-8.683-.132z" fill="#cb7a43"/><path d="m113.6696 118.995953-15.294-36.1860002c-3.658-5.906-13.928 1.19-12.694 4.628 2.821 7.757 17.234 32.8360002 18.071 35.1720002z" fill="#d7faf2"/><path d="m114.5336 123.096953c.959.808 1.574 1.417 1.84 1.927.358.614.736 1.545 1.234 2.799-.697.412-7.016 4.042-18.861 10.894-1.421-1.33-1.635-2.369-.642-3.119s1.799-1.354 2.441-1.848l6.502-8.97c.149-.169.367-.195.558-.085l1.34 1.028c1.231-.103 2.172-.323 2.786-.681.51-.266 1.059-.865 1.708-1.813.259-.36.719-.451 1.078-.192-.022.038.016.06.016.06z" fill="#187f73"/><path d="m92.9106 133.760953c.441 1.146.661 2.028.661 2.601 0 .705-.132 1.718-.353 3.041-.793 0-8.065 0-21.817 0-.573-1.851-.22-2.865.97-3.041 1.234-.133 2.248-.265 3.041-.397l10.137-4.496c.177-.088.441 0 .529.176l.661 1.587c1.146.529 2.028.794 2.733.794.573 0 1.366-.221 2.38-.706.397-.176.837 0 1.014.397 0 .044.044.044.044.044z" fill="#187f73"/><path d="m78.1896 89.3329528c0 10.27 4.892 34.2020002 4.892 36.4940002h10.49c-1.543-21.376-2.071-32.1750002-1.631-32.3950002.661-.353 27.459 2.689 35.481 2.689 11.592 0 16.396-7.317 16.749-20.848h-22.964c-4.672.485-29.045 5.421-38.125 7.096-3.834.705-4.892 4.143-4.892 6.964z" fill="#d7faf2"/><g transform="translate(45.0449 30.667953)"><path d="m48.1307 19.305-19.702 13.047-19.9662-5.113 21.1122-11.504z" fill="#d7faf2"/><g fill="#dd0539"><path d="m29.5747 15.735-5.025-15.0734-23.1393 8.8594 7.052 17.718z"/><path d="m1.4105 9.521 23.1392-8.8594-.54-.6616-24.0097 9.256 7.4047 18.644 21.024 5.642 19.834-13.046-.132-1.19-19.702 13.046-19.9662-5.113z"/><path d="m40.1087 23.536-4.099-.925-5.421 3.305 3.923 1.014z"/><path d="m31.5137 17.057-1.41-.352-1.895 1.101 1.322.353z"/><path d="m34.1137 17.542-1.543-.353-1.851 1.102 1.499.353z"/><path d="m36.7587 18.027-1.675-.397-1.851 1.19 1.675.309z"/><path d="m39.3587 18.468-1.763-.353-1.851 1.19 1.807.353z"/><path d="m29.1337 18.379-1.41-.352-1.895 1.058 1.366.396z"/><path d="m31.7337 18.864-1.542-.352-1.851 1.102 1.498.396z"/><path d="m34.3347 19.393-1.63-.352-1.852 1.101 1.631.353z"/><path d="m36.9797 19.878-1.763-.353-1.852 1.19 1.808.309z"/><path d="m26.7537 19.702-1.454-.353-1.896 1.058 1.411.397z"/><path d="m29.3547 20.231-1.543-.353-1.851 1.102 1.499.353z"/><path d="m31.9547 20.76-1.631-.353-1.851 1.102 1.631.397z"/><path d="m34.5557 21.289-1.719-.353-1.807 1.146 1.719.353z"/><path d="m24.3737 21.024-1.455-.353-1.895 1.058 1.455.397z"/><path d="m26.9747 21.597-1.542-.396-1.852 1.102 1.499.396z"/><path d="m29.5747 22.126-1.631-.353-1.851 1.102 1.631.397z"/><path d="m32.1757 22.699-1.675-.397-1.851 1.146 1.719.397z"/><path d="m21.9937 22.346-1.455-.352-1.939 1.057 1.499.397z"/><path d="m24.5947 22.919-1.543-.352-1.895 1.058 1.587.396z"/><path d="m27.1947 23.492-1.587-.352-1.851 1.102 1.586.396z"/><path d="m29.7947 24.11-1.675-.397-1.807 1.102 1.675.396z"/><path d="m19.6137 23.669-1.454-.353-1.939 1.014 1.498.44z"/><path d="m22.2147 24.286-1.543-.397-1.895 1.058 1.587.441z"/><path d="m24.8147 24.903-1.587-.397-1.851 1.102 1.587.397z"/><path d="m27.4147 25.52-1.674-.397-1.807 1.102 1.63.397z"/><path d="m17.2337 24.991-1.454-.397-1.94 1.058 1.543.397z"/><path d="m19.8347 25.608-1.542-.353-1.896 1.058 1.587.397z"/><path d="m22.4347 26.269-1.587-.396-1.851 1.057 1.587.441z"/><path d="m24.9917 26.886-1.631-.352-1.807 1.057 1.631.397z"/><path d="m14.8537 26.313-1.4543-.396-1.9834 1.057 1.5867.397z"/><path d="m17.4547 26.974-1.543-.396-1.895 1.057 1.587.441z"/><path d="m20.0547 27.635-1.586-.352-1.852 1.013 1.587.441z"/><path d="m22.6107 28.296-1.587-.352-1.807 1.014 1.587.44z"/></g><path d="m28.4297 15.383-4.452-13.355-20.7595 7.845 6.2146 15.471z" fill="#d7faf2"/></g><path d="m115.1696 19.9579528c1.014-2.6004 1.366-5.4653.22-8.1539-3.261-7.75730004-13.751-2.24790004-14.545 2.4682-.793 4.7601 2.909 14.8534 5.951 14.633 1.19-.0882 3.349-1.5867 5.245-3.8786l2.115 11.1953 8.903-3.041z" fill="#cb7a43"/><path d="m109.0426 7.66095276c-5.025-.044-10.226 3.74640004-8.198 7.14020004 1.278 2.1597 4.407 2.4242 7.493 2.7768.176-.7934.749-1.5426 1.63-1.8071 1.278-.4408 2.645.2204 3.042 1.4545.132.4407.176.8815.044 1.3222 1.146.4849 2.115 1.1901 2.688 2.3801 1.455-.4848 2.336-5.5094.221-9.2999.22-.0441.396-.0881.617-.1763 3.085-1.0578 4.716-4.40750004 3.702-7.44870004-1.058-3.0853-4.408-4.7161-7.449-3.7023-3.129 1.0137-4.76 4.2753-3.79 7.3605z" fill="#187f73"/><path d="m101.7706 21.1918528c.265.9697-.661 2.5123-.176 3.482.308.617 1.322.5289 1.983.4848" fill="#cb7a43"/><path d="m101.8586 19.3407528c.176-.1763.353-.3526.573-.4407.221-.0882.441-.1763.705-.2204.265-.0441.529-.0441.75.0882.264.0881.484.3085.484.5729-.176-.1763-.396-.2203-.573-.2203-.22 0-.396 0-.617.044-.44 0-.837.0882-1.322.1763z" fill="#187f73"/><path d="m104.6796 27.2746528c.132-.3086.309-.4849.485-.7052.176-.1763.353-.3526.617-.5289.088.3526-.088.6611-.308.8374-.221.2204-.485.3967-.794.3967z" fill="#187f73"/><path d="m103.0496 20.7850528c.253-.086.389-.3613.303-.6148-.086-.2536-.361-.3895-.615-.3035-.253.086-.389.3613-.303.6148.086.2536.361.3895.615.3035z" fill="#187f73"/><path d="m107.3226 62.5789528-12.43-6.082c-5.597.088-8.242-.265-8.021-1.058.352-1.19 1.983-.749 2.38-1.499.396-.749-1.278-2.512-2.953-4.143-1.675-1.63-.441-1.763.308-1.719 2.601.838 5.421 2.248 8.463 4.276l15.646 3.438z" fill="#cb7a43"/><path d="m113.4056 61.5209528c-5.642 1.852-13.267-.044-19.261-3.261l.925-6.655c7.978 2.291 14.589 1.454 19.305.088 4.188 2.292 3.482 8.374-.969 9.828z" fill="#ce2951"/><path d="m87.2246 64.8709528c-3.086-1.102-5.862-1.631-8.243-1.587-4.539.045-6.523-.352-9.343-2.336-1.499-1.057-3.262-3.614-2.513-4.848.529-.837 5.554 1.014 7.317.882 1.807-.133-.926-3.703.088-3.526 1.146-.309 2.644.969 4.363 3.878l6.876 1.499z" fill="#cb7a43"/><path d="m109.7466 28.9054528 10.798-3.1734c1.19-.3526 13.752 12.6939 16.661 22.6989 2.688 9.124 12.914 12.429 12.693 28.032-7.448.661-26.268 13.839-32.042 7.272-2.821-3.173-4.54-7.052-5.554-11.371-7.184 1.939-16.572 2.115-28.252-.176-.97-2.513-.882-7.229.264-14.149 13.047.75 21.862-.264 26.534-2.997.044-9.035.573-18.335-1.102-26.1365z" fill="#dd0539"/><path d="m100.8006 74.3909528c-1.058 0-1.939 1.411-1.939 3.085v.662 1.895 2.953 3.834 4.584 5.157 5.5540002 5.817 5.907 5.818 5.553 5.157 4.584 3.878 2.997 1.94c0 .396 0 .793.044 1.19.044.485.441.661.661.749.397.176.837.265 1.278.265.353 0 .749-.045 1.102-.177.22-.088.661-.22.793-.573.044-.044.044-.132.044-.22.045-.441 0-.838 0-1.278 0-.617 0-1.234 0-1.896 0-.969 0-1.895 0-2.864 0-1.235 0-2.469 0-3.703 0-1.454 0-2.909 0-4.407 0-1.631 0-3.306 0-4.937 0-1.763 0-3.57 0-5.333 0-1.851 0-3.702 0-5.597 0-1.896 0-3.791 0-5.686s0-3.747 0-5.642c0-1.807 0-3.6580002 0-5.4650002 0-1.719 0-3.394 0-5.113 0-1.543 0-3.085 0-4.628 0-1.322 0-2.688 0-4.011 0-1.057 0-2.159 0-3.217 0-.749 0-1.543 0-2.292 0-.397 0-.838 0-1.234 0-.044 0-.132 0-.177-.044-1.718-.925-3.129-1.983-3.129z" fill="#055e5a"/></g></svg>