<svg fill="none" height="60" viewBox="0 0 60 60" width="60" xmlns="http://www.w3.org/2000/svg" xmlns:xlink="http://www.w3.org/1999/xlink"><filter id="a" color-interpolation-filters="sRGB" filterUnits="userSpaceOnUse" height="77.5698" width="61.1003" x="-.142444" y="-23.1424"><feFlood flood-opacity="0" result="BackgroundImageFix"/><feColorMatrix in="SourceAlpha" result="hardAlpha" type="matrix" values="0 0 0 0 0 0 0 0 0 0 0 0 0 0 0 0 0 0 127 0"/><feOffset dx=".142444" dy=".142444"/><feGaussianBlur stdDeviation=".142444"/><feColorMatrix type="matrix" values="0 0 0 0 0.129412 0 0 0 0 0.129412 0 0 0 0 0.129412 0 0 0 0.5 0"/><feBlend in2="BackgroundImageFix" mode="normal" result="effect1_dropShadow_172_61995"/><feBlend in="SourceGraphic" in2="effect1_dropShadow_172_61995" mode="normal" result="shape"/></filter><filter id="b" color-interpolation-filters="sRGB" filterUnits="userSpaceOnUse" height="12.1328" width="16.8904" x="19.5494" y="15.4583"><feFlood flood-opacity="0" result="BackgroundImageFix"/><feColorMatrix in="SourceAlpha" result="hardAlpha" type="matrix" values="0 0 0 0 0 0 0 0 0 0 0 0 0 0 0 0 0 0 127 0"/><feOffset dx=".323184" dy=".323184"/><feGaussianBlur stdDeviation=".323184"/><feColorMatrix type="matrix" values="0 0 0 0 0.129412 0 0 0 0 0.129412 0 0 0 0 0.129412 0 0 0 0.4 0"/><feBlend in2="BackgroundImageFix" mode="normal" result="effect1_dropShadow_172_61995"/><feBlend in="SourceGraphic" in2="effect1_dropShadow_172_61995" mode="normal" result="shape"/></filter><filter id="c" color-interpolation-filters="sRGB" filterUnits="userSpaceOnUse" height="5.98121" width="9.45436" x="32.6116" y="21.0833"><feFlood flood-opacity="0" result="BackgroundImageFix"/><feColorMatrix in="SourceAlpha" result="hardAlpha" type="matrix" values="0 0 0 0 0 0 0 0 0 0 0 0 0 0 0 0 0 0 127 0"/><feOffset dx=".323184" dy=".323184"/><feGaussianBlur stdDeviation=".323184"/><feColorMatrix type="matrix" values="0 0 0 0 0.129412 0 0 0 0 0.129412 0 0 0 0 0.129412 0 0 0 0.4 0"/><feBlend in2="BackgroundImageFix" mode="normal" result="effect1_dropShadow_172_61995"/><feBlend in="SourceGraphic" in2="effect1_dropShadow_172_61995" mode="normal" result="shape"/></filter><filter id="d" color-interpolation-filters="sRGB" filterUnits="userSpaceOnUse" height="4.99659" width="7.84571" x="26.628" y="22.8089"><feFlood flood-opacity="0" result="BackgroundImageFix"/><feColorMatrix in="SourceAlpha" result="hardAlpha" type="matrix" values="0 0 0 0 0 0 0 0 0 0 0 0 0 0 0 0 0 0 127 0"/><feOffset dx=".323184" dy=".323184"/><feGaussianBlur stdDeviation=".323184"/><feColorMatrix type="matrix" values="0 0 0 0 0.129412 0 0 0 0 0.129412 0 0 0 0 0.129412 0 0 0 0.4 0"/><feBlend in2="BackgroundImageFix" mode="normal" result="effect1_dropShadow_172_61995"/><feBlend in="SourceGraphic" in2="effect1_dropShadow_172_61995" mode="normal" result="shape"/></filter><clipPath id="e"><path d="m0 0h60v60h-60z"/></clipPath><g clip-path="url(#e)"><g filter="url(#a)"><g fill="#055e5a"><path d="m13.1203 23.4602c-.3418 0-.6125.4273-.6125.9544v.1994.584.8974 1.1823 1.396 1.5811 1.6951 1.7805 1.7948 1.7806 1.7093 1.5812 1.4102 1.1822.9117.584c0 .1282 0 .2422.0143.3704.0142.1424.1424.1994.2136.2279.1282.057.2707.0712.3989.0712.1139 0 .2279-.0142.3418-.057.0713-.0285.2137-.0712.2564-.1852.0143-.0142.0143-.0427.0143-.0712.0142-.1282 0-.2564 0-.3846 0-.1852 0-.3846 0-.5698 0-.2848 0-.584 0-.8689 0-.3703 0-.7549 0-1.1253 0-.4415 0-.8974 0-1.3389 0-.4986 0-1.0114 0-1.51 0-.5412 0-1.0825 0-1.6238 0-.5698 0-1.1396 0-1.7094 0-.584 0-1.1538 0-1.7378 0-.5698 0-1.1538 0-1.7236 0-.5555 0-1.111 0-1.6666 0-.527 0-1.0398 0-1.5668 0-.4701 0-.9402 0-1.4245 0-.4131 0-.8119 0-1.225 0-.3276 0-.6552 0-.9829 0-.2421 0-.47 0-.7122 0-.1282 0-.2564 0-.3846 0-.0142 0-.0427 0-.057 0-.5413-.2849-.9686-.6268-.9686z"/><path d="m32.6777 23.3464c-.3419 0-.6125.4274-.6125.9544v.1994.5841.8974 1.1822 1.396 1.5811 1.6951 1.7806 1.7948 1.7805 1.7094 1.5811 1.4102 1.1823.9116.584c0 .1282 0 .2422.0142.3704.0143.1424.1425.1994.2137.2279.1282.057.2706.0712.3988.0712.114 0 .2279-.0142.3419-.0569.0712-.0285.2137-.0713.2564-.1852.0142-.0143.0142-.0428.0142-.0712.0143-.1282 0-.2564 0-.3846 0-.1852 0-.3846 0-.5698 0-.2849 0-.584 0-.8689 0-.3704 0-.755 0-1.1253 0-.4416 0-.8974 0-1.339 0-.4986 0-1.0114 0-1.5099 0-.5413 0-1.0826 0-1.6239 0-.5698 0-1.1396 0-1.7093 0-.5841 0-1.1538 0-1.7378 0-.5698 0-1.1538 0-1.7236 0-.5556 0-1.1111 0-1.6666 0-.5271 0-1.0399 0-1.5669 0-.4701 0-.9401 0-1.4245 0-.413 0-.8119 0-1.225 0-.3276 0-.6552 0-.9828 0-.2422 0-.4701 0-.7123 0-.1282 0-.2564 0-.3846 0-.0142 0-.0427 0-.0569 0-.5556-.2848-.9687-.6267-.9687z"/><path d="m7.90645 29.7703c-.34187 0-.6125.47-.6125 1.0541v.2279.641.9971 1.2962 1.5527 1.7378 1.8802 1.9658 1.9942 1.9657 1.8803 1.7521 1.5526 1.3105 1.0113.6553c0 .1424-.00001.2706.01424.4131.01424.1567.14244.2136.21366.2564.1282.057.27065.0854.39885.0854.11396 0 .2279-.0142.34186-.0569.07122-.0285.21367-.0713.2564-.1995.01425-.0284.01424-.0427.01424-.0712.01425-.1424 0-.2849 0-.4273 0-.2137 0-.4273 0-.641 0-.3276 0-.641 0-.9686 0-.4131 0-.8405 0-1.2535 0-.4986 0-.9971 0-1.4815 0-.5555 0-1.111 0-1.6666 0-.5982 0-1.2107 0-1.809 0-.6268 0-1.2678 0-1.8945 0-.641 0-1.282 0-1.923s0-1.282 0-1.9088c0-.6125 0-1.2392 0-1.8517 0-.5841 0-1.1538 0-1.7379 0-.527 0-1.0541 0-1.5669 0-.4558 0-.9116 0-1.3532 0-.3703 0-.7264 0-1.0968 0-.2564 0-.527 0-.7834 0-.1425 0-.2849 0-.4274 0-.0142 0-.0427 0-.0569-.01424-.5841-.28489-1.0541-.62675-1.0541z"/></g><path d="m5.31396 29.6136 7.09374-9.3443h20.7541l7.0938 9.3443z" fill="#187f73"/><path d="m40.2556 29.6135h-34.94164v.8547h34.94164z" fill="#055e5a"/><path d="m54.3292 35.4385h-9.6435l-1.2677 15.4837h14.3726z" fill="#187f73"/><path d="m54.3291 35.4385h-2.9629l-1.7805 15.4837h8.2048z" fill="#055e5a"/><path d="m33.6754 32.7897c-1.0256-.6125-2.7491.1709-2.7491 1.0541 0 2.6494 2.4215 15.0991 2.5355 15.8968.1282.7834 1.4814.9971 1.5526 0 .1282-1.5812.3561-7.051.1282-9.5865-.0997-1.0399-.1994-2.037-.2991-2.9344 1.2677 2.2934 3.2192 5.5553 5.8687 9.8144l1.4387-.6552c-1.1253-3.7178-2.0512-6.353-2.7777-7.8772-1.2393-2.621-2.393-4.8716-2.8916-5.6693-.755-1.2392-2.0939-.7977-2.8062-.0427z" fill="#cb7a43"/><path d="m42.0509 44.3274-4.9428-11.6946c-1.1823-1.9088-4.5012.3846-4.1024 1.4956.9117 2.5071 5.5696 10.6121 5.8402 11.3671z" fill="#d7faf2"/><path d="m42.3297 45.6532c.3098.2611.5086.4581.5944.6228.1158.1984.2381.4993.3988.9047-.2249.1332-2.2673 1.3061-6.0953 3.5206-.4592-.4296-.5284-.7656-.2075-1.008s.5815-.4374.7889-.5972l2.1013-2.8989c.0479-.0545.1186-.063.1803-.0274l.4332.3323c.3977-.0336.7019-.1047.9003-.2204.1647-.0858.3422-.2794.5521-.5859.0835-.1162.2321-.1456.3483-.062-.0071.0123.0052.0194.0052.0194z" fill="#187f73"/><path d="m35.3416 49.0995c.1424.3704.2137.6553.2137.8405 0 .2279-.0428.5555-.114.9828-.2564 0-2.6067 0-7.051 0-.1852-.5982-.0712-.9259.3134-.9828.3988-.0428.7264-.0855.9828-.1282l3.2763-1.453c.0569-.0285.1424 0 .1709.057l.2137.5128c.3703.1709.6552.2564.8831.2564.1852 0 .4416-.0712.7692-.2279.1282-.057.2707 0 .3276.1282 0 .0142.0143.0142.0143.0142z" fill="#187f73"/><path d="m30.584 34.741c0 3.3189 1.5811 11.0537 1.5811 11.7944h3.3902c-.4986-6.9086-.6695-10.3985-.5271-10.4697.2137-.1139 8.8743.8689 11.4668.8689 3.7463 0 5.2989-2.3645 5.4129-6.7376h-7.4214c-1.5099.1567-9.387 1.7521-12.3214 2.2934-1.2393.2279-1.5811 1.339-1.5811 2.2506z" fill="#d7faf2"/><g filter="url(#b)"><path d="m35.4274 22.0207-6.3673 4.2164-6.4527-1.6524 6.8231-3.7178z" fill="#d7faf2"/><g fill="#dd0539"><path d="m29.4306 20.8672-1.6239-4.8716-7.4783 2.8631 2.2791 5.7263z"/><path d="m20.3284 18.8585 7.4783-2.8632-.1746-.2138-7.7595 2.9915 2.393 6.0254 6.7946 1.8233 6.41-4.2164-.0427-.3846-6.3673 4.2164-6.4527-1.6524z"/><path d="m32.8351 23.388-1.3247-.2991-1.7521 1.0683 1.2678.3276z"/><path d="m30.0576 21.2944-.4558-.114-.6125.3561.4273.114z"/><path d="m30.8978 21.4511-.4985-.1139-.5983.3561.4843.1139z"/><path d="m31.7526 21.6077-.5413-.1282-.5983.3846.5413.0997z"/><path d="m32.5926 21.7502-.5698-.114-.5982.3846.584.114z"/><path d="m29.2881 21.7211-.4559-.1139-.6125.3418.4416.1282z"/><path d="m30.1286 21.8779-.4986-.114-.5983.3561.4844.1282z"/><path d="m30.9691 22.0485-.5271-.1139-.5982.3561.527.1139z"/><path d="m31.8236 22.2053-.5698-.114-.5983.3846.584.0997z"/><path d="m28.5191 22.1491-.4701-.1139-.6125.3418.4558.1282z"/><path d="m29.3595 22.3203-.4985-.114-.5983.3561.4843.114z"/><path d="m30.2 22.4909-.527-.1139-.5983.3561.527.1282z"/><path d="m31.0402 22.6621-.5555-.114-.5841.3704.5556.1139z"/><path d="m27.7498 22.5764-.4701-.114-.6125.3419.4701.1282z"/><path d="m28.5905 22.7617-.4986-.1282-.5982.3562.4843.1282z"/><path d="m29.431 22.9326-.5271-.114-.5982.3561.527.1282z"/><path d="m30.2714 23.1177-.5413-.1282-.5983.3704.5556.1282z"/><path d="m26.9804 23.0039-.4701-.114-.6268.3419.4844.1282z"/><path d="m27.8208 23.1889-.4986-.1139-.6125.3418.5128.1282z"/><path d="m28.6611 23.3742-.5128-.1139-.5983.3561.5128.1282z"/><path d="m29.5015 23.5735-.5413-.1282-.584.3561.5413.1282z"/><path d="m26.2111 23.4306-.4701-.1139-.6267.3276.4843.1424z"/><path d="m27.0515 23.6299-.4986-.1282-.6125.3419.5128.1424z"/><path d="m27.8916 23.8296-.5128-.1282-.5983.3561.5128.1282z"/><path d="m28.7322 24.0288-.5412-.1282-.5841.3561.5271.1282z"/><path d="m25.4425 23.8582-.47-.1282-.6268.3418.4986.1282z"/><path d="m26.2832 24.0576-.4986-.114-.6125.3419.5128.1282z"/><path d="m27.1233 24.2715-.5128-.1282-.5983.3419.5128.1424z"/><path d="m27.9495 24.4709-.5271-.114-.584.3419.527.1282z"/><path d="m24.6728 24.2854-.47-.1282-.641.3419.5128.1282z"/><path d="m25.5134 24.499-.4985-.1282-.6126.3419.5128.1425z"/><path d="m26.3537 24.7128-.5128-.1139-.5982.3276.5128.1424z"/><path d="m27.1798 24.9265-.5128-.114-.584.3276.5128.1425z"/></g><path d="m29.0604 20.7528-1.4387-4.316-6.7091 2.5355 2.0085 4.9998z" fill="#d7faf2"/></g><path d="m42.5355 12.3199c.3276-.8404.4415-1.7663.0712-2.63517-1.0541-2.50702-4.4443-.72647-4.7007.79767-.2564 1.5384.9402 4.8004 1.923 4.7292.3846-.0285 1.0826-.5128 1.6951-1.2535l.6837 3.618 2.8774-.9828z" fill="#cb7a43"/><path d="m40.5552 8.34578c-1.6238-.01424-3.3047 1.21078-2.6494 2.30762.4131.698 1.4244.7834 2.4215.8974.057-.2564.2422-.4986.5271-.584.4131-.1425.8546.0712.9828.47.0428.1425.057.2849.0143.4274.3703.1566.6837.3846.8689.7692.47-.1567.7549-1.7806.0712-3.00561.0712-.01425.1282-.0285.1994-.05699.9971-.34186 1.5242-1.42444 1.1966-2.4073-.3419-.99711-1.4245-1.52416-2.4073-1.19654-1.0114.32763-1.5384 1.38171-1.2251 2.37882z" fill="#187f73"/><path d="m38.2052 12.7185c.0855.3134-.2136.8119-.0569 1.1253.0997.1994.4273.1709.641.1567" fill="#cb7a43"/><path d="m38.2334 12.1209c.057-.057.114-.114.1852-.1425s.1424-.057.2279-.0712.1709-.0142.2421.0285c.0855.0285.1567.0997.1567.1852-.0569-.057-.1282-.0713-.1851-.0713-.0713 0-.1282 0-.1995.0143-.1424 0-.2706.0285-.4273.057z" fill="#187f73"/><path d="m39.1455 14.6842c.0427-.0997.0997-.1566.1567-.2279.057-.0569.114-.1139.1994-.1709.0285.114-.0285.2137-.0997.2706-.0712.0713-.1567.1282-.2564.1282z" fill="#187f73"/><path d="m38.6184 12.5873c.0819-.0278.1258-.1168.0981-.1987-.0278-.082-.1168-.1259-.1987-.0981-.082.0278-.1259.1168-.0981.1987.0278.082.1167.1259.1987.0981z" fill="#187f73"/><g filter="url(#c)"><path d="m39.9997 26.0951-4.0169-1.9658c-1.8091.0285-2.6637-.0854-2.5925-.3418.1139-.3846.641-.2422.7692-.4843.1282-.2422-.4131-.812-.9544-1.339-.5413-.5271-.1424-.5698.0997-.5556.8404.2707 1.7521.7265 2.7349 1.3818l5.0568 1.111z" fill="#cb7a43"/></g><path d="m41.9653 25.7536c-1.8233.5982-4.2876-.0143-6.2248-1.0541l.2991-2.1509c2.5783.7407 4.7149.4701 6.2391.0285 1.3532.7407 1.1253 2.7064-.3134 3.1765z" fill="#b30436"/><g filter="url(#d)"><path d="m33.5042 26.8359c-.9971-.3561-1.8945-.527-2.6637-.5128-1.4672.0143-2.1082-.1139-3.0198-.7549-.4843-.3419-1.0541-1.1681-.8119-1.5669.1709-.2707 1.7948.3276 2.3645.2849.5841-.0428-.2991-1.1966.0285-1.1396.3704-.0997.8547.3134 1.4102 1.2535l2.2221.4843z" fill="#cb7a43"/></g><path d="m40.7829 15.2124 3.4899-1.0256c.3846-.1139 4.4443 4.1024 5.3844 7.3359.8689 2.9486 4.1736 4.0169 4.1024 9.0595-2.4073.2136-8.4897 4.4727-10.3557 2.3503-.9117-1.0256-1.4672-2.2791-1.7948-3.6751-2.3219.6268-5.3559.6838-9.1307-.0569-.3134-.812-.2849-2.3361.0855-4.5725 4.2163.2422 7.0652-.0855 8.5751-.9686.0142-2.9201.1852-5.9257-.3561-8.447z" fill="#dd0539"/><path d="m37.8911 29.9124c-.3418 0-.6267.4558-.6267.9971v.2136.6125.9544 1.2393 1.4814 1.6666 1.7948 1.8803 1.9087 1.8803 1.7948 1.6666 1.4814 1.2535.9686.6268c0 .1282 0 .2564.0142.3846.0143.1567.1425.2137.2137.2422.1282.0569.2707.0854.4131.0854.114 0 .2422-.0142.3561-.057.0712-.0285.2137-.0712.2564-.1851.0142-.0143.0142-.0428.0142-.0713.0143-.1424 0-.2706 0-.413 0-.1995 0-.3989 0-.6126 0-.3133 0-.6125 0-.9259 0-.3988 0-.7976 0-1.1965 0-.47 0-.9401 0-1.4244 0-.5271 0-1.0684 0-1.5954 0-.5698 0-1.1538 0-1.7236 0-.5982 0-1.1965 0-1.809s0-1.225 0-1.8376c0-.6125 0-1.2107 0-1.8232 0-.5841 0-1.1823 0-1.7664 0-.5555 0-1.0968 0-1.6523 0-.4986 0-.9971 0-1.4957 0-.4273 0-.8689 0-1.2962 0-.3419 0-.698 0-1.0399 0-.2421 0-.4985 0-.7407 0-.1282 0-.2706 0-.3988 0-.0143 0-.0427 0-.057-.0142-.5555-.2991-1.0113-.641-1.0113z" fill="#055e5a"/></g></g></svg>