<svg width="20" height="20" viewBox="0 0 20 20" fill="none" xmlns="http://www.w3.org/2000/svg">
  <path d="M15.8333 16.6666H4.16663V17.5C4.16663 17.9602 3.79353 18.3333 3.33329 18.3333H2.49996C2.03973 18.3333 1.66663 17.9602 1.66663 17.5V9.16665L3.73371 4.34345C3.99634 3.73064 4.59891 3.33331 5.26562 3.33331H14.7343C15.401 3.33331 16.0035 3.73064 16.2662 4.34345L18.3333 9.16665V17.5C18.3333 17.9602 17.9602 18.3333 17.5 18.3333H16.6666C16.2064 18.3333 15.8333 17.9602 15.8333 17.5V16.6666ZM16.6666 10.8333H3.33329V15H16.6666V10.8333ZM3.47991 9.16665H16.52L14.7343 4.99998H5.26562L3.47991 9.16665ZM5.41663 14.1666C4.72627 14.1666 4.16663 13.607 4.16663 12.9166C4.16663 12.2263 4.72627 11.6666 5.41663 11.6666C6.10698 11.6666 6.66663 12.2263 6.66663 12.9166C6.66663 13.607 6.10698 14.1666 5.41663 14.1666ZM14.5833 14.1666C13.893 14.1666 13.3333 13.607 13.3333 12.9166C13.3333 12.2263 13.893 11.6666 14.5833 11.6666C15.2736 11.6666 15.8333 12.2263 15.8333 12.9166C15.8333 13.607 15.2736 14.1666 14.5833 14.1666Z" fill="#161616"/>
  </svg>
