<svg width="20" height="20" viewBox="0 0 20 20" fill="none" xmlns="http://www.w3.org/2000/svg">
  <path d="M3.33333 9.44444L0 7.50002L10 1.66669L20 7.50002V14.5834H18.3333V8.47227L16.6667 9.44444V15.0094L16.4812 15.2387C14.9547 17.1249 12.6182 18.3334 10 18.3334C7.38181 18.3334 5.04524 17.1249 3.51886 15.2387L3.33333 15.0094V9.44444ZM5 10.4167V14.4098C6.22267 15.795 8.00927 16.6667 10 16.6667C11.9907 16.6667 13.7773 15.795 15 14.4098V10.4167L10 13.3334L5 10.4167ZM3.30772 7.50002L10 11.4039L16.6922 7.50002L10 3.5962L3.30772 7.50002Z" fill="#161616"/>
  </svg>
