<svg width="293" height="240" viewBox="0 0 293 240" fill="none" xmlns="http://www.w3.org/2000/svg">
<mask id="mask0" mask-type="alpha" maskUnits="userSpaceOnUse" x="3" y="3" width="286" height="233">
<rect y="90.0981" width="251.821" height="159.562" rx="11.3433" transform="rotate(-20.9643 0 90.0981)" fill="#F7CDD4"/>
</mask>
<g mask="url(#mask0)">
<rect y="90.0981" width="251.821" height="159.562" rx="11.3433" transform="rotate(-20.9643 0 90.0981)" fill="#EDC4FC"/>
<g filter="url(#filter0_f)">
<rect x="64.2605" y="65.4767" width="113.433" height="159.562" transform="rotate(-20.9643 64.2605 65.4767)" fill="#DB8EEF"/>
</g>
<rect x="95.7271" y="84.1937" width="17.393" height="3.78109" transform="rotate(-20.9643 95.7271 84.1937)" fill="#77057A"/>
<rect x="100.326" y="96.1985" width="17.393" height="3.78109" transform="rotate(-20.9643 100.326 96.1985)" fill="#77057A"/>
<rect x="103.844" y="105.379" width="43.1045" height="3.78109" transform="rotate(-20.9643 103.844 105.379)" fill="#77057A"/>
<rect x="108.443" y="117.383" width="64.2786" height="3.78109" transform="rotate(-20.9643 108.443 117.383)" fill="#77057A"/>
<rect x="116.831" y="139.274" width="38.5672" height="3.78109" transform="rotate(-20.9643 116.831 139.274)" fill="#77057A"/>
<rect x="121.972" y="152.691" width="27.2239" height="3.78109" transform="rotate(-20.9643 121.972 152.691)" fill="#77057A"/>
<rect x="124.677" y="159.753" width="72.597" height="5.29353" transform="rotate(-20.9643 124.677 159.753)" fill="#DB8EEF"/>
<rect x="119.266" y="145.63" width="71.0846" height="5.29353" transform="rotate(-20.9643 119.266 145.63)" fill="#DB8EEF"/>
<rect x="110.608" y="123.033" width="38.5672" height="5.29353" transform="rotate(-20.9643 110.608 123.033)" fill="#DB8EEF"/>
<rect x="105.738" y="110.322" width="34.7861" height="5.29353" transform="rotate(-20.9643 105.738 110.322)" fill="#DB8EEF"/>
<rect x="113.314" y="130.094" width="44.6169" height="5.29353" transform="rotate(-20.9643 113.314 130.094)" fill="#DB8EEF"/>
<rect x="128.195" y="168.933" width="66.5473" height="5.29353" transform="rotate(-20.9643 128.195 168.933)" fill="#DB8EEF"/>
<rect x="131.712" y="178.113" width="83.9403" height="5.29353" transform="rotate(-20.9643 131.712 178.113)" fill="#DB8EEF"/>
<rect x="135.229" y="187.293" width="31.7612" height="5.29353" transform="rotate(-20.9643 135.229 187.293)" fill="#DB8EEF"/>
<path d="M4.05847 100.691C1.81704 94.8405 4.74238 88.2811 10.5924 86.0397L224.559 4.05851C230.409 1.81707 236.968 4.74241 239.21 10.5924L241.104 15.5356L5.95243 105.634L4.05847 100.691Z" fill="#F9F1FD"/>
<path d="M288.723 139.82C290.666 144.89 288.13 150.575 283.06 152.517L66.2693 235.581C61.1993 237.523 55.5145 234.988 53.5719 229.918L288.723 139.82Z" fill="#F9F1FD"/>
<path d="M85.279 64.6334L84.7292 63.1985L78.2996 65.662L78.8494 67.0969L81.3029 66.1568L83.7286 72.4878L85.2511 71.9045L82.8254 65.5735L85.279 64.6334ZM90.3022 69.9692L87.3267 62.2033L85.7932 62.7908L88.7687 70.5567L90.3022 69.9692ZM95.3659 60.7686L94.8161 59.3337L88.3865 61.7972L88.9363 63.2321L91.3898 62.292L93.8155 68.6231L95.338 68.0397L92.9123 61.7087L95.3659 60.7686ZM102.689 65.2231L104.376 64.5768L101.494 62.0382C102.399 61.3522 102.72 60.2873 102.305 59.2029C101.788 57.8556 100.426 57.1844 98.9142 57.7635L95.8801 58.926L98.8556 66.692L100.378 66.1086L99.2324 63.1183L100.021 62.8162L102.689 65.2231ZM98.733 61.8149L97.9062 59.6571L99.133 59.1871C99.8997 58.8933 100.512 59.1484 100.764 59.8056C101.008 60.4409 100.726 61.0511 99.9598 61.3449L98.733 61.8149ZM110.565 62.2056L110.019 60.7817L106.667 62.0659L105.979 60.2695L109.013 59.107L108.497 57.7598L105.463 58.9223L104.783 57.1479L108.135 55.8636L107.589 54.4397L102.726 56.3031L105.701 64.069L110.565 62.2056ZM115.757 58.6083L113.856 53.6464L115.072 53.1806C116.342 52.6937 117.7 53.0904 118.347 54.7773C118.993 56.4641 118.233 57.6598 116.962 58.1466L115.757 58.6083ZM117.554 59.5277C119.767 58.6799 120.853 56.6307 119.913 54.1771C118.973 51.7236 116.802 50.9098 114.589 51.7576L111.807 52.8235L114.783 60.5894L117.554 59.5277ZM127.572 55.6892L127.027 54.2652L123.675 55.5494L122.987 53.7531L126.021 52.5906L125.505 51.2433L122.471 52.4058L121.791 50.6314L125.142 49.3472L124.597 47.9233L119.734 49.7866L122.709 57.5525L127.572 55.6892ZM134.749 46.1563C134.238 45.3472 133.079 44.4851 131.195 45.2069C129.727 45.7693 128.892 47.295 129.421 48.6751C129.87 49.8471 130.976 50.3404 132.31 50.1181L133.478 49.9216C134.127 49.8113 134.601 50.0317 134.773 50.4808C134.983 51.0285 134.689 51.6058 133.878 51.9164C132.783 52.336 131.982 51.8516 131.622 51.1101L130.363 52.0197C130.907 53.0798 132.324 54.0568 134.384 53.2678C136.191 52.5754 136.726 50.9886 136.269 49.7947C135.849 48.6993 134.741 48.0688 133.223 48.3364L132.059 48.5438C131.447 48.6525 131.043 48.4178 130.879 47.9906C130.682 47.4758 130.984 46.8202 131.718 46.539C132.703 46.1613 133.31 46.6952 133.55 47.093L134.749 46.1563ZM139.173 40.1149L137.377 40.8031L136.782 42.6265L138.118 42.1145L139.173 40.1149ZM143.264 49.6768L142.719 48.2529L139.367 49.5371L138.679 47.7407L141.713 46.5782L141.197 45.231L138.162 46.3935L137.483 44.619L140.834 43.3348L140.289 41.9109L135.425 43.7743L138.401 51.5402L143.264 49.6768ZM143.03 47.0532C143.614 48.5757 145.007 49.1973 146.541 48.6098C148.053 48.0306 148.626 46.4792 148.089 45.0772L146.033 39.7101L144.521 40.2892L146.578 45.6564C146.838 46.3355 146.616 46.9356 145.98 47.1791C145.367 47.4141 144.779 47.2247 144.462 46.4293L144.189 45.7173L142.833 46.5384L143.03 47.0532ZM150.318 42.5147C149.647 40.7622 150.555 39.4597 151.749 39.0022C152.954 38.5406 154.499 38.903 155.171 40.6555C155.842 42.4081 154.934 43.7106 153.73 44.1722C152.536 44.6297 150.99 44.2672 150.318 42.5147ZM148.756 43.1258C149.713 45.6232 152.189 46.4457 154.292 45.64C156.406 44.83 157.698 42.5637 156.741 40.0664C155.78 37.558 153.305 36.7355 151.191 37.5454C149.088 38.3512 147.795 40.6175 148.756 43.1258ZM162.507 42.5048C164.172 41.8669 165.107 40.3405 164.377 38.4346L162.455 33.418L160.943 33.9971L162.823 38.9042C163.214 39.9229 162.861 40.6736 161.941 41.0261C161.042 41.3703 160.267 41.0518 159.877 40.0331L157.997 35.126L156.485 35.7052L158.407 40.7218C159.138 42.6277 160.853 43.1386 162.507 42.5048ZM170.966 39.063L172.652 38.4167L169.771 35.8781C170.676 35.1921 170.996 34.1272 170.581 33.0428C170.065 31.6956 168.702 31.0243 167.191 31.6035L164.157 32.766L167.132 40.5319L168.655 39.9485L167.509 36.9583L168.297 36.6561L170.966 39.063ZM167.009 35.6548L166.183 33.497L167.409 33.027C168.176 32.7332 168.789 32.9883 169.041 33.6455C169.284 34.2808 169.003 34.891 168.236 35.1848L167.009 35.6548Z" fill="#77057A"/>
</g>
<g opacity="0.5" clip-path="url(#clip0)">
<path d="M244.404 88.6133L209.237 102.087C211.239 107.313 218.707 109.473 226.935 107.697L230.561 117.159L232.891 116.266C232.684 116.994 232.645 117.738 232.943 118.514C233.619 120.28 235.67 121.194 237.435 120.518C239.201 119.842 240.116 117.79 239.439 116.025C239.169 115.319 238.616 114.721 237.975 114.318L240.306 113.426L236.545 103.61C242.87 99.4048 246.244 93.4152 244.404 88.6133Z" fill="#DB8EEF"/>
<path d="M226.027 74.6798L223.186 67.2651L220.785 68.1851C220.992 67.4578 221.031 66.714 220.734 65.9372C220.057 64.1718 218.006 63.2571 216.241 63.9335C214.475 64.6099 213.561 66.661 214.237 68.4264C214.508 69.1326 215.061 69.7305 215.701 70.1331L213.37 71.026L216.022 77.9464C207.741 83.3868 206.382 92.7344 206.215 96.5239L206.332 98.0985C208.597 101.685 213.644 103.233 218.305 101.447C222.895 99.6888 225.626 95.4031 225.012 91.2652L225.365 91.1299C227.674 94.6185 232.64 95.955 237.159 94.2234C242.385 92.2212 245.188 86.8552 243.429 82.2651C243.5 82.2381 233.824 74.5269 226.027 74.6798Z" fill="#DB8EEF"/>
<g opacity="0.5">
<path d="M220.405 106.716C220.971 105.447 221.168 104.48 221.168 104.48C221.168 104.48 219.246 104.326 217.117 104.899C217.275 104.676 217.318 104.579 217.318 104.579C217.318 104.579 215.463 103.751 213.09 103.688C212.342 103.003 209.928 100.932 206.926 100.705C203.224 100.342 200.055 102.852 200.055 102.852C200.055 102.852 202.82 105.842 206.496 106.134C206.593 106.178 206.735 106.123 206.832 106.167C205.452 107.425 204.674 108.776 204.674 108.776C204.674 108.776 208.287 110.387 211.688 109.328C210.779 110.972 210.489 112.54 210.489 112.54C210.489 112.54 214.36 112.92 217.213 110.855C216.433 113.259 216.609 115.621 216.609 115.621C216.609 115.621 220.596 114.823 222.787 111.877C224.979 108.932 224.561 104.881 224.561 104.881C224.561 104.881 222.405 105.383 220.405 106.716Z" fill="#77057A"/>
<path d="M211.963 80.8782C211.256 77.3428 208.186 75.0368 208.186 75.0368C208.186 75.0368 207.381 76.3171 206.89 78.2059C205.124 75.0764 201.379 73.7577 201.379 73.7577C201.379 73.7577 200.872 75.8148 201.287 78.1662C201.135 77.9814 200.94 77.8943 200.717 77.7365C197.728 75.6424 193.704 76.1314 193.704 76.1314C193.704 76.1314 194.574 80.0905 197.562 82.1846C197.66 82.2281 197.758 82.2717 197.883 82.3859C196.009 82.7798 194.678 83.5328 194.678 83.5328C194.678 83.5328 196.976 86.7825 200.433 87.5633C198.776 88.5222 197.775 89.7153 197.775 89.7153C197.775 89.7153 200.916 91.9942 204.446 91.6947C202.413 93.3644 201.455 95.5131 201.455 95.5131C201.455 95.5131 205.297 96.8754 208.632 95.4354C212.038 93.9684 213.721 90.3275 213.721 90.3275C213.721 90.3275 211.653 89.581 209.22 89.7843C210.356 88.9442 210.971 88.2228 210.971 88.2228C210.971 88.2228 210.846 88.1087 210.526 87.9074C210.657 87.6144 211.103 86.8765 211.441 85.8563C211.953 88.2512 213.205 90.0391 213.205 90.0391C213.205 90.0391 216.249 87.4152 216.71 83.7564C217.1 80.1247 214.775 76.8044 214.775 76.8044C214.775 76.8044 213.008 78.5341 211.963 80.8782ZM207.286 86.6382C207.498 86.557 207.612 86.4323 207.612 86.4323C207.612 86.4323 206.951 85.5519 205.855 84.5949C206.886 85.1718 207.641 85.4496 207.641 85.4496C207.641 85.4496 207.657 85.2813 207.744 85.086C208.443 86.2759 209.273 87.1728 209.869 87.6731C209.256 87.3411 208.35 86.8784 207.286 86.6382Z" fill="#77057A"/>
<path d="M251.624 89.4909C251.667 89.3932 251.809 89.3391 251.852 89.2414C254.391 86.568 254.451 82.4961 254.451 82.4961C254.451 82.4961 250.416 82.7461 247.904 85.4901C245.822 87.6646 245.411 90.8186 245.312 91.8283C243.589 93.4603 242.761 95.3161 242.761 95.3161C242.761 95.3161 242.859 95.3597 243.125 95.4197C241.158 96.4162 239.832 97.8153 239.832 97.8153C239.832 97.8153 240.624 98.4027 241.893 98.9689C239.488 99.2428 237.575 100.38 237.575 100.38C237.575 100.38 239.971 103.674 243.569 104.4C247.168 105.127 250.667 103.058 250.667 103.058C250.667 103.058 249.291 101.156 246.963 99.9418C250.509 99.474 253.091 96.7029 253.091 96.7029C253.091 96.7029 251.855 95.8001 250.053 95.1137C253.361 93.6031 254.903 90.0163 254.903 90.0163C254.903 90.0163 253.519 89.5747 251.624 89.4909Z" fill="#77057A"/>
<path d="M236.187 81.9624C236.187 81.9624 235.924 79.7958 234.705 77.6713C235.638 78.2046 236.463 78.4554 236.756 78.5861C236.652 78.9497 236.636 79.118 236.636 79.118C236.636 79.118 237.646 79.217 238.981 79.1101C237.036 80.5844 235.996 82.5214 235.996 82.5214C235.996 82.5214 239.681 84.106 243.195 82.9215C246.709 81.737 248.587 78.1831 248.587 78.1831C248.587 78.1831 246.368 77.2519 243.81 77.3409C246.636 75.2054 247.45 71.4113 247.45 71.4113C247.45 71.4113 245.908 71.1921 244.035 71.5861C246.058 68.6243 245.623 64.7417 245.623 64.7417C245.623 64.7417 244.13 65.071 242.473 66.0299C242.516 65.9322 242.56 65.8345 242.576 65.6663C243.401 62.1111 241.402 58.5849 241.402 58.5849C241.402 58.5849 238.082 60.9098 237.257 64.465C237.197 64.731 237.181 64.8993 237.121 65.1652C235.858 63.1385 234.106 61.9472 234.106 61.9472C234.106 61.9472 232.174 65.3598 232.979 68.9387C231.378 67.9323 229.897 67.4472 229.897 67.4472C229.897 67.4472 229.18 71.2848 230.99 74.3167C228.619 73.2006 226.23 73.3062 226.23 73.3062C226.23 73.3062 226.648 77.357 229.436 79.7712C232.169 82.0441 236.187 81.9624 236.187 81.9624ZM237.963 72.8597C237.788 74.3036 237.884 75.4005 237.884 75.4005C237.884 75.4005 238.025 75.3464 238.264 75.3358C237.633 76.2254 237.268 77.1751 237.034 77.8318C237.073 77.088 237.161 75.8393 236.886 74.4871C237.108 74.6448 237.206 74.6884 237.206 74.6884C237.206 74.6884 237.582 73.9776 237.963 72.8597Z" fill="#77057A"/>
</g>
<path opacity="0.5" d="M231.191 103.799C237.236 101.482 240.259 94.7043 237.943 88.6593C235.627 82.6143 228.849 79.5914 222.804 81.9076C216.759 84.2237 213.736 91.0018 216.052 97.0468C218.368 103.092 225.146 106.115 231.191 103.799Z" fill="#77057A"/>
</g>
<path d="M273.582 112.985L274.989 116.657L274.283 116.927L271.727 115.963C271.336 115.789 271 115.756 270.734 115.696C270.468 115.636 270.256 115.717 270.115 115.771C269.903 115.852 269.718 116.004 269.604 116.129C269.517 116.324 269.5 116.492 269.582 116.704C269.663 116.916 269.815 117.101 270.081 117.161C270.276 117.248 270.585 117.21 270.797 117.129L271.203 118.189C270.709 118.378 270.231 118.399 269.813 118.154C269.325 117.936 269.021 117.567 268.805 117.002C268.588 116.437 268.567 115.959 268.714 115.498C268.889 115.107 269.231 114.733 269.655 114.571C270.008 114.435 270.318 114.398 270.681 114.501C271.018 114.534 271.506 114.752 272.163 114.986L273.574 115.499L272.708 113.239L273.555 112.914L273.582 112.985Z" fill="#600566"/>
<path d="M270.813 113.155L267.668 114.036L266.505 111L267.352 110.675L268.164 112.793L269.489 112.448C269.391 112.404 269.267 112.29 269.142 112.176C269.017 112.062 268.936 111.85 268.882 111.708C268.692 111.214 268.671 110.736 268.916 110.319C269.161 109.901 269.531 109.597 270.096 109.381C270.66 109.164 271.138 109.143 271.6 109.29C272.061 109.438 272.392 109.878 272.635 110.513C272.824 111.008 272.846 111.485 272.698 111.947C272.551 112.408 272.279 112.755 271.758 112.874L271.281 111.842C271.493 111.761 271.678 111.609 271.765 111.414C271.852 111.218 271.842 110.979 271.761 110.767C271.652 110.485 271.528 110.371 271.262 110.311C270.996 110.251 270.757 110.261 270.474 110.369C270.192 110.478 269.936 110.657 269.779 110.879C269.621 111.101 269.632 111.34 269.713 111.552C269.794 111.764 269.919 111.878 270.043 111.992C270.168 112.106 270.336 112.123 270.407 112.096L270.813 113.155Z" fill="#600566"/>
<path d="M265.244 107.919C265.163 107.708 265.081 107.496 265.098 107.328C265.114 107.159 265.033 106.947 265.023 106.708L265.881 106.623C265.864 106.791 265.945 107.003 265.902 107.1C265.956 107.242 265.939 107.41 266.02 107.622C266.156 107.975 266.378 108.133 266.671 108.263C266.964 108.394 267.344 108.329 267.839 108.14L267.98 108.086C267.785 107.999 267.562 107.841 267.437 107.727C267.313 107.613 267.134 107.357 267.026 107.075C266.836 106.58 266.842 106.173 267.087 105.756C267.332 105.338 267.701 105.034 268.196 104.845C268.761 104.628 269.239 104.607 269.727 104.825C270.215 105.043 270.519 105.412 270.735 105.977C270.952 106.542 270.929 107.118 270.711 107.606C270.423 108.122 270.01 108.523 269.304 108.793L268.315 109.172C267.609 109.443 266.963 109.447 266.377 109.186C265.791 108.925 265.487 108.555 265.244 107.919ZM268.15 107.049C268.231 107.261 268.285 107.402 268.41 107.516C268.534 107.631 268.659 107.745 268.827 107.761L269.11 107.653C269.533 107.491 269.859 107.285 270.017 107.062C270.175 106.84 270.235 106.574 270.127 106.291C270.046 106.08 269.894 105.895 269.628 105.835C269.362 105.775 269.123 105.785 268.841 105.894C268.558 106.002 268.303 106.181 268.216 106.376C268.058 106.598 268.068 106.837 268.15 107.049Z" fill="#600566"/>
<path d="M266.005 102.931C265.896 102.649 265.772 102.534 265.576 102.447C265.381 102.36 265.142 102.371 264.93 102.452C264.718 102.533 264.604 102.658 264.517 102.853C264.43 103.048 264.44 103.287 264.522 103.499C264.603 103.711 264.728 103.825 264.923 103.912C265.118 103.999 265.287 104.016 265.498 103.935L265.904 104.994C265.481 105.156 265.073 105.15 264.656 104.906C264.238 104.661 263.934 104.291 263.745 103.797C263.528 103.232 263.507 102.754 263.654 102.293C263.802 101.831 264.101 101.555 264.595 101.366C264.877 101.257 265.116 101.247 265.382 101.307C265.648 101.367 265.871 101.525 266.093 101.682C266.126 101.346 266.186 101.08 266.344 100.857C266.502 100.635 266.757 100.456 267.039 100.348C267.534 100.159 268.039 100.208 268.456 100.453C268.874 100.698 269.205 101.138 269.421 101.703C269.611 102.197 269.632 102.675 269.512 103.207C269.364 103.668 269.092 104.015 268.598 104.205L268.192 103.146C268.404 103.064 268.518 102.94 268.605 102.744C268.693 102.549 268.682 102.31 268.601 102.098C268.493 101.816 268.368 101.702 268.146 101.544C267.923 101.386 267.711 101.467 267.499 101.548C267.217 101.657 267.032 101.808 266.945 102.004C266.858 102.199 266.868 102.438 266.977 102.72L267.22 103.356L266.373 103.681L266.075 102.904L266.005 102.931Z" fill="#600566"/>
<path d="M262.804 97.1121C263.086 97.0038 263.325 96.9933 263.591 97.0533C263.857 97.1134 264.079 97.2711 264.302 97.4289C264.335 97.0923 264.368 96.7557 264.525 96.5333C264.683 96.3109 264.911 96.0615 265.194 95.9532C265.688 95.7638 266.166 95.7427 266.584 95.9876C267.002 96.2324 267.305 96.602 267.522 97.1669C267.738 97.7319 267.786 98.2803 267.639 98.7416C267.492 99.2029 267.149 99.5771 266.655 99.7665C266.373 99.8747 266.063 99.9123 265.77 99.7817C265.477 99.651 265.184 99.5203 265.005 99.2649C264.972 99.6015 264.912 99.8674 264.754 100.09C264.597 100.312 264.412 100.464 264.129 100.572C263.635 100.762 263.228 100.756 262.81 100.511C262.392 100.266 262.089 99.8964 261.899 99.4021C261.71 98.9078 261.689 98.43 261.863 98.0393C262.01 97.578 262.309 97.3015 262.804 97.1121ZM265.6 97.0125C265.388 97.0936 265.203 97.2454 265.116 97.4408C265.029 97.6361 265.039 97.875 265.121 98.0869C265.202 98.2987 265.354 98.4835 265.576 98.6412C265.771 98.7284 266.01 98.7178 266.222 98.6366C266.505 98.5284 266.619 98.4037 266.706 98.2083C266.793 98.013 266.782 97.7741 266.674 97.4916C266.593 97.2798 266.441 97.095 266.246 97.0079C266.051 96.9208 265.882 96.9043 265.6 97.0125ZM263.28 98.1442C263.068 98.2254 262.954 98.3501 262.84 98.4749C262.753 98.6702 262.736 98.8385 262.79 98.9797C262.871 99.1916 262.996 99.3058 263.192 99.3929C263.387 99.48 263.555 99.4965 263.767 99.4153C263.979 99.3342 264.164 99.1824 264.251 98.987C264.338 98.7917 264.354 98.6234 264.273 98.4115C264.192 98.1997 264.067 98.0855 263.899 98.069C263.731 98.0525 263.492 98.0631 263.28 98.1442Z" fill="#600566"/>
<path d="M265.14 90.9527L266.547 94.6248L265.841 94.8953L263.285 93.9311C262.895 93.7568 262.558 93.7238 262.292 93.6638C262.026 93.6037 261.814 93.6849 261.673 93.739C261.461 93.8202 261.276 93.9719 261.162 94.0967C261.075 94.292 261.059 94.4603 261.14 94.6722C261.221 94.884 261.373 95.0688 261.639 95.1289C261.834 95.216 262.144 95.1784 262.355 95.0972L262.761 96.1564C262.267 96.3458 261.789 96.3669 261.371 96.1221C260.883 95.9043 260.579 95.5347 260.363 94.9698C260.146 94.4048 260.125 93.927 260.273 93.4657C260.42 93.0044 260.789 92.7008 261.213 92.5385C261.566 92.4032 261.876 92.3656 262.239 92.4693C262.576 92.5023 263.064 92.72 263.721 92.9543L265.132 93.4665L264.266 91.2068L265.113 90.8821L265.14 90.9527Z" fill="#600566"/>
<path d="M258.48 90.2654C258.399 90.0536 258.317 89.8417 258.334 89.6734C258.323 89.4345 258.269 89.2933 258.259 89.0544L259.117 88.9686C259.1 89.1369 259.181 89.3488 259.138 89.4464C259.192 89.5877 259.175 89.756 259.257 89.9678C259.392 90.3209 259.614 90.4786 259.907 90.6093C260.2 90.74 260.58 90.6753 261.075 90.4859L261.216 90.4318C261.021 90.3447 260.798 90.1869 260.674 90.0728C260.549 89.9586 260.37 89.7032 260.262 89.4207C260.072 88.9264 260.078 88.5192 260.323 88.1015C260.568 87.6837 260.938 87.3802 261.432 87.1908C261.997 86.9743 262.475 86.9532 262.963 87.171C263.451 87.3888 263.755 87.7584 263.971 88.3233C264.188 88.8882 264.165 89.4637 263.948 89.9521C263.659 90.4675 263.246 90.8688 262.54 91.1393L261.551 91.5181C260.845 91.7887 260.199 91.7933 259.613 91.5319C259.125 91.3141 258.723 90.901 258.48 90.2654ZM261.386 89.395C261.467 89.6069 261.521 89.7481 261.646 89.8623C261.77 89.9765 261.895 90.0906 262.063 90.1071L262.346 89.9989C262.77 89.8366 263.096 89.6307 263.253 89.4083C263.411 89.1859 263.471 88.9199 263.363 88.6374C263.282 88.4256 263.13 88.2408 262.864 88.1807C262.598 88.1207 262.359 88.1312 262.077 88.2395C261.794 88.3477 261.539 88.5265 261.452 88.7219C261.321 89.0149 261.304 89.1832 261.386 89.395Z" fill="#600566"/>
<path d="M257.098 83.9115C258.047 84.2764 258.845 84.4566 259.562 84.425C260.208 84.4204 260.968 84.291 261.675 84.0205L262.381 83.7499L262.814 84.8798L262.107 85.1503C261.331 85.4479 260.57 85.5773 259.897 85.5113C259.224 85.4452 258.356 85.2921 257.601 85.0143L258.684 87.8389L257.836 88.1636L256.375 84.3503L257.152 84.0527L257.098 83.9115Z" fill="#600566"/>
<path d="M260.089 80.0931C259.981 79.8107 259.829 79.6259 259.563 79.5658C259.297 79.5058 258.96 79.4728 258.607 79.608L258.254 79.7433C258.449 79.8304 258.645 79.9176 258.77 80.0317C258.894 80.1459 259.046 80.3307 259.127 80.5425C259.317 81.0369 259.338 81.5147 259.093 81.9324C258.848 82.3502 258.478 82.6537 257.913 82.8702C257.349 83.0866 256.871 83.1077 256.382 82.8899C255.894 82.6721 255.52 82.3296 255.303 81.7647C255.087 81.1998 255.136 80.6949 255.354 80.2065C255.572 79.7182 256.083 79.3605 256.718 79.117L258.201 78.5488C258.837 78.3053 259.412 78.3277 259.901 78.5455C260.389 78.7633 260.79 79.1765 261.007 79.7414C261.088 79.9533 261.142 80.0945 261.153 80.3334C261.163 80.5723 261.244 80.7841 261.228 80.9524L260.37 81.0382C260.386 80.8699 260.403 80.7016 260.322 80.4898C260.251 80.5168 260.17 80.305 260.089 80.0931ZM258.226 80.726C258.145 80.5141 258.02 80.4 257.895 80.2858C257.77 80.1716 257.673 80.1281 257.477 80.0409L256.842 80.2844C256.489 80.4197 256.233 80.5986 256.146 80.7939C255.988 81.0163 255.999 81.2552 256.08 81.4671C256.161 81.6789 256.313 81.8637 256.579 81.9238C256.845 81.9838 257.084 81.9733 257.437 81.838C257.719 81.7298 257.975 81.5509 258.133 81.3285C258.22 81.1332 258.307 80.9378 258.226 80.726Z" fill="#600566"/>
<path d="M258.809 74.4284L259.215 75.4877L254.696 77.2193L255.129 78.3492L254.281 78.6738L253.231 76.5659L258.809 74.4284Z" fill="#600566"/>
<path d="M252.038 70.7061C252.988 71.0711 253.786 71.2513 254.502 71.2196C255.219 71.188 255.909 71.0857 256.615 70.8151L257.321 70.5446L257.754 71.6744L257.048 71.945C256.271 72.2426 255.511 72.3719 254.838 72.3059C254.165 72.2399 253.296 72.0868 252.542 71.8089L253.624 74.6336L252.777 74.9583L251.316 71.145L252.092 70.8474L252.038 70.7061Z" fill="#600566"/>
<path d="M250.334 66.2575C251.283 66.6225 252.081 66.8027 252.798 66.771C253.515 66.7394 254.204 66.6371 254.91 66.3665L255.617 66.096L256.049 67.2258L255.343 67.4964C254.567 67.794 253.806 67.9233 253.133 67.8573C252.46 67.7913 251.591 67.6382 250.837 67.3603L251.919 70.185L251.072 70.5096L249.611 66.6964L250.388 66.3988L250.334 66.2575Z" fill="#600566"/>
<path d="M250.799 63.2448C250.691 62.9624 250.566 62.8482 250.37 62.7611C250.175 62.674 249.936 62.6845 249.724 62.7657C249.513 62.8469 249.398 62.9716 249.311 63.1669C249.224 63.3623 249.235 63.6012 249.316 63.813C249.397 64.0249 249.522 64.139 249.717 64.2262C249.912 64.3133 250.081 64.3298 250.293 64.2486L250.698 65.3079C250.275 65.4702 249.868 65.4642 249.45 65.2194C249.032 64.9745 248.728 64.605 248.539 64.1107C248.323 63.5457 248.301 63.0679 248.449 62.6066C248.596 62.1453 248.895 61.8688 249.389 61.6794C249.672 61.5712 249.911 61.5606 250.176 61.6207C250.442 61.6807 250.665 61.8385 250.887 61.9962C250.92 61.6596 250.98 61.3937 251.138 61.1713C251.296 60.9489 251.551 60.77 251.834 60.6618C252.328 60.4724 252.833 60.5219 253.251 60.7668C253.668 61.0116 253.999 61.4518 254.215 62.0167C254.405 62.5111 254.426 62.9889 254.306 63.5208C254.159 63.9821 253.887 64.3292 253.392 64.5186L252.987 63.4594C253.198 63.3782 253.313 63.2535 253.4 63.0581C253.487 62.8628 253.476 62.6239 253.395 62.412C253.287 62.1296 253.162 62.0154 252.94 61.8577C252.717 61.6999 252.505 61.7811 252.294 61.8623C252.011 61.9705 251.826 62.1223 251.739 62.3176C251.652 62.513 251.663 62.7519 251.771 63.0343L251.96 63.5286L251.113 63.8533L250.869 63.2178L250.799 63.2448Z" fill="#600566"/>
<path d="M251.647 58.0608C251.539 57.7783 251.387 57.5935 251.121 57.5335C250.855 57.4734 250.519 57.4404 250.166 57.5757L249.812 57.711C250.008 57.7981 250.203 57.8852 250.328 57.9994C250.453 58.1136 250.604 58.2983 250.686 58.5102C250.875 59.0045 250.896 59.4823 250.651 59.9001C250.406 60.3178 250.037 60.6214 249.472 60.8378C248.907 61.0543 248.429 61.0754 247.941 60.8576C247.452 60.6398 247.078 60.2973 246.862 59.7323C246.645 59.1674 246.695 58.6625 246.913 58.1742C247.13 57.6858 247.641 57.3281 248.277 57.0846L249.76 56.5164C250.395 56.2729 250.971 56.2954 251.459 56.5132C251.947 56.731 252.349 57.1441 252.565 57.7091C252.646 57.9209 252.7 58.0621 252.711 58.301C252.722 58.5399 252.803 58.7518 252.786 58.9201L251.928 59.0058C251.945 58.8376 251.961 58.6693 251.88 58.4574C251.782 58.4139 251.728 58.2726 251.647 58.0608ZM249.757 58.623C249.676 58.4112 249.551 58.297 249.426 58.1828C249.302 58.0686 249.204 58.0251 249.009 57.938L248.373 58.1815C248.02 58.3168 247.765 58.4956 247.677 58.691C247.52 58.9134 247.53 59.1523 247.611 59.3641C247.693 59.576 247.844 59.7608 248.11 59.8208C248.376 59.8809 248.615 59.8703 248.968 59.735C249.251 59.6268 249.506 59.448 249.664 59.2256C249.778 59.1008 249.865 58.9055 249.757 58.623Z" fill="#600566"/>
<path d="M250.368 52.3963L250.774 53.4556L246.254 55.1872L246.687 56.3171L245.84 56.6417L244.789 54.5338L250.368 52.3963Z" fill="#600566"/>
<path d="M243.569 48.6035C244.519 48.9685 245.317 49.1486 246.034 49.117C246.75 49.0853 247.44 48.983 248.146 48.7125L248.852 48.4419L249.285 49.5718L248.579 49.8423C247.802 50.14 247.042 50.2693 246.369 50.2033C245.696 50.1373 244.827 49.9841 244.073 49.7063L245.155 52.5309L244.308 52.8556L242.847 49.0423L243.624 48.7447L243.569 48.6035Z" fill="#600566"/>
<rect width="69.1566" height="89.2343" transform="matrix(-0.933803 0.357786 0.357786 0.933803 92.698 111.269)" fill="white"/>
<path d="M75.4585 182.613C69.8061 179.507 64.9852 174.865 63.0056 168.375C57.3274 149.717 84.2326 143.971 92.7076 151.267C101.183 158.563 109.472 182.05 103.748 186.17C101.437 187.815 95.4331 188.291 88.6187 187.049L99.3406 204.18L78.8677 212.025L75.4585 182.613Z" fill="#DB8EEF"/>
<path d="M51.7534 165.742C50.8361 165.333 50.1267 164.541 49.4785 163.775C48.8133 162.965 48.1482 162.156 47.5714 161.312C46.401 159.581 45.5542 157.371 46.3492 155.343C46.9974 153.726 48.4302 152.569 49.8828 151.86C50.8659 151.382 51.9338 151.125 53.042 151.106C54.1334 151.043 55.2106 151.339 56.2916 151.382C55.5399 149.287 55.0807 147.03 55.4203 144.872C55.7937 142.803 57.013 141.221 58.7855 140.288C60.541 139.311 62.5675 139.042 64.6034 139.326C65.1303 139.378 65.6299 139.49 66.1294 139.603C66.5679 139.689 66.979 139.835 67.4108 139.771C67.8869 139.69 68.0233 139.384 68.1531 138.929C68.3714 138.44 68.5896 137.951 68.886 137.533C70.1636 135.574 72.2597 134.162 74.5816 134.134C75.6456 134.132 76.8113 134.395 77.7521 134.998C78.6149 135.529 79.4532 136.526 80.4523 136.751C80.8907 136.837 80.9933 136.443 81.2351 136.147C81.5587 135.668 81.8654 135.145 82.189 134.666C82.6829 133.97 83.2276 133.407 83.9116 132.942C84.9154 132.253 86.4527 131.766 87.3042 133.061C87.6401 133.541 87.7718 134.15 87.9308 134.697C88.1745 135.465 88.4182 136.234 88.6007 136.975C88.7766 137.566 88.8914 138.131 89.0232 138.739C89.0975 139.065 89.1239 139.664 89.3751 139.922C89.6874 140.208 90.3272 139.76 90.6367 139.642C91.2727 139.449 91.9256 139.3 92.602 139.345C93.1289 139.396 93.7169 139.475 94.097 139.938C94.3482 140.196 94.4225 140.523 94.4969 140.849C94.6051 141.264 94.717 141.424 94.9137 141.805C95.6014 141.085 98.1199 139.055 99.0495 140.423C99.3684 140.858 99.3232 141.534 99.2546 142.017C99.1887 142.904 98.9564 143.753 98.7071 144.558C98.1981 146.274 97.4004 147.898 96.4464 149.378C98.2481 149.448 99.4251 151.329 98.5558 153.031C98.1842 153.782 97.4391 154.219 96.6704 154.463C96.4051 154.565 95.9564 154.584 95.7522 154.713C95.6365 154.808 95.5819 154.931 95.4051 154.998C94.3777 155.493 93.0822 155.686 91.9805 155.854C90.0152 156.151 87.9077 155.945 85.9847 155.161C85.4955 154.943 85.1182 154.885 84.6318 155.071C84.1896 155.24 83.8425 155.525 83.4003 155.695C82.2676 156.18 81.0304 155.995 79.8779 156.031C80.3756 157.462 80.5262 159.179 80.4425 160.681C80.3625 161.928 79.4406 162.433 78.5016 162.894C75.5249 164.39 72.25 165.239 69.1547 166.425C72.4156 165.936 75.6736 165.042 78.941 164.703C80.4473 164.531 79.7417 165.866 79.404 166.705C78.8649 168.078 78.6486 169.63 78.6429 171.204C76.4555 169.862 73.3555 169.58 71.2764 171.036C68.9658 172.681 68.518 176.807 71.1025 178.655C72.573 179.714 74.5177 179.628 76.1697 179.704C75.5046 181.277 75.8829 183.058 75.7785 184.771C75.7399 185.597 75.5584 186.579 74.9083 187.132C74.6768 187.322 74.3673 187.441 74.2309 187.747C74.0672 188.113 74.1415 188.44 73.8725 188.796C72.8574 190.25 70.718 191.019 69.0499 190.239C67.5211 189.557 67.1532 187.67 67.6141 186.227C65.9178 186.167 63.0211 186.415 62.7322 183.941C59.508 184.922 49.9719 182.798 52.75 177.475C49.9596 177.074 46.6177 174.705 46.993 171.317C47.3571 168.694 49.6376 166.705 51.7534 165.742Z" fill="#600566"/>
<path d="M98.6096 163.098C100.459 162.896 101.585 164.644 102.611 165.468C103.636 166.291 105.687 167.938 106.73 168.806C107.755 169.63 107.755 169.63 107.856 170.554C107.194 172.532 105.344 172.733 103.639 173.843C102.715 173.944 101.935 174.952 101.01 175.053" fill="#DB8EEF"/>
<path d="M96.4861 164.57C96.9725 164.384 97.1738 163.85 96.9875 163.364C96.8012 162.878 96.2508 162.633 95.8086 162.802C95.3222 162.988 95.1209 163.522 95.3072 164.008C95.4935 164.494 95.9997 164.756 96.4861 164.57Z" fill="#600566"/>
<path d="M102.089 178.796C103.136 178.75 104.187 178.449 105.065 177.96C103.885 178.057 102.777 178.076 101.689 177.885C101.146 177.789 100.602 177.693 100.068 177.492C99.7795 177.4 99.4906 177.308 99.1849 177.172C98.9845 177.046 98.7568 176.981 98.5122 176.872L98.451 176.845C98.1622 176.752 97.8696 176.915 97.7774 177.204C97.641 177.51 97.8207 177.846 98.1265 177.983L98.1876 178.01C98.7042 178.167 99.2272 178.473 99.8115 178.807C100.396 179.141 101.085 179.485 101.735 179.591C103.084 179.936 104.386 179.893 105.715 179.789C105.076 179.578 104.454 179.411 103.833 179.243C103.2 179.181 102.623 178.997 102.089 178.796Z" fill="#600566"/>
<path d="M94.563 161.404C94.9168 161.268 95.3147 161.116 95.74 160.902C96.121 160.705 96.5293 160.448 96.8868 160.057C96.4042 159.989 95.9827 159.947 95.5339 159.967C95.0851 159.987 94.6533 160.051 94.2111 160.221C93.3098 160.515 92.4622 161.347 92.386 162.339L93.5902 161.776C93.8555 161.675 94.2093 161.539 94.563 161.404Z" fill="#600566"/>
<g opacity="0.3">
<path d="M153.928 112.187C148.58 109.248 144.018 104.856 142.145 98.7146C136.772 81.0592 162.231 75.6213 170.251 82.5256C178.27 89.4298 186.114 111.655 180.698 115.553C178.511 117.11 172.83 117.56 166.382 116.385L176.527 132.596L157.155 140.019L153.928 112.187Z" fill="#F9F1FD"/>
<path d="M131.497 96.2228C130.629 95.8359 129.958 95.0858 129.345 94.3615C128.715 93.5954 128.086 92.8293 127.54 92.0311C126.432 90.3929 125.631 88.3015 126.383 86.3825C126.997 84.8524 128.353 83.7573 129.727 83.0867C130.658 82.6343 131.668 82.3911 132.717 82.373C133.749 82.3131 134.769 82.594 135.792 82.6338C135.08 80.6519 134.646 78.516 134.967 76.4743C135.321 74.5161 136.474 73.0188 138.152 72.1364C139.813 71.2121 141.73 70.957 143.657 71.2261C144.155 71.2749 144.628 71.3816 145.101 71.4883C145.516 71.5692 145.905 71.7079 146.313 71.6473C146.764 71.5706 146.893 71.2813 147.016 70.8505C147.222 70.3876 147.429 69.9248 147.709 69.5295C148.918 67.6753 150.902 66.3397 153.099 66.3133C154.106 66.3113 155.209 66.5602 156.099 67.1304C156.916 67.6331 157.709 68.5762 158.654 68.7896C159.069 68.8705 159.166 68.4975 159.395 68.218C159.701 67.7649 159.991 67.27 160.298 66.8169C160.765 66.1581 161.28 65.6249 161.928 65.185C162.878 64.5333 164.332 64.0718 165.138 65.2981C165.456 65.7519 165.58 66.3277 165.731 66.8456C165.962 67.5727 166.192 68.2998 166.365 69.0011C166.531 69.5608 166.64 70.0948 166.765 70.6706C166.835 70.9794 166.86 71.5455 167.098 71.7902C167.393 72.0606 167.999 71.6368 168.291 71.5246C168.893 71.342 169.511 71.2012 170.151 71.2437C170.65 71.2926 171.206 71.3672 171.566 71.8049C171.804 72.0496 171.874 72.3584 171.944 72.6673C172.047 73.0597 172.153 73.211 172.339 73.5714C172.989 72.8904 175.373 70.97 176.252 72.2638C176.554 72.6758 176.511 73.3157 176.446 73.7723C176.384 74.6116 176.164 75.4153 175.928 76.1773C175.447 77.8008 174.692 79.3371 173.789 80.7383C175.494 80.8046 176.608 82.5843 175.785 84.1945C175.433 84.9049 174.728 85.3189 174.001 85.5496C173.75 85.6458 173.325 85.6646 173.132 85.7866C173.023 85.8765 172.971 85.9922 172.804 86.0564C171.831 86.5248 170.606 86.7067 169.563 86.8663C167.703 87.1472 165.709 86.9519 163.889 86.2101C163.426 86.0038 163.069 85.9487 162.609 86.1251C162.191 86.2854 161.862 86.5551 161.444 86.7154C160.372 87.1741 159.201 86.9991 158.111 87.0332C158.582 88.3877 158.724 90.0119 158.645 91.4333C158.569 92.6135 157.697 93.0916 156.808 93.528C153.992 94.943 150.893 95.7466 147.964 96.8689C151.049 96.4061 154.132 95.5606 157.224 95.2394C158.649 95.077 157.982 96.3401 157.662 97.1341C157.152 98.4328 156.947 99.9022 156.942 101.391C154.872 100.122 151.939 99.8547 149.971 101.232C147.785 102.789 147.361 106.693 149.807 108.442C151.198 109.444 153.038 109.362 154.602 109.435C153.972 110.923 154.33 112.609 154.232 114.23C154.195 115.011 154.023 115.94 153.408 116.464C153.189 116.644 152.896 116.756 152.767 117.045C152.612 117.392 152.683 117.701 152.428 118.038C151.467 119.414 149.443 120.141 147.864 119.403C146.418 118.758 146.07 116.973 146.506 115.607C144.901 115.55 142.16 115.785 141.886 113.443C138.835 114.373 129.812 112.362 132.44 107.325C129.8 106.946 126.638 104.704 126.993 101.498C127.337 99.0159 129.495 97.1339 131.497 96.2228Z" fill="#77057A"/>
<path d="M175.836 93.7203C177.586 93.5294 178.652 95.1836 179.622 95.963C180.593 96.7424 182.534 98.3011 183.52 99.1223C184.49 99.9017 184.49 99.9017 184.586 100.777C183.959 102.648 182.209 102.838 180.596 103.888C179.721 103.984 178.983 104.938 178.107 105.034" fill="#F9F1FD"/>
<path d="M173.827 95.1137C174.287 94.9373 174.477 94.4327 174.301 93.9726C174.125 93.5125 173.604 93.2803 173.186 93.4406C172.725 93.617 172.535 94.1217 172.711 94.5818C172.887 95.0419 173.366 95.29 173.827 95.1137Z" fill="#77057A"/>
<path d="M179.128 108.576C180.119 108.532 181.114 108.247 181.944 107.785C180.828 107.877 179.779 107.895 178.75 107.713C178.235 107.623 177.721 107.532 177.216 107.342C176.943 107.255 176.669 107.167 176.38 107.038C176.19 106.919 175.975 106.858 175.744 106.755L175.686 106.729C175.412 106.642 175.136 106.796 175.048 107.069C174.919 107.358 175.089 107.677 175.379 107.806L175.436 107.832C175.925 107.98 176.42 108.27 176.973 108.586C177.526 108.902 178.178 109.227 178.793 109.328C180.069 109.654 181.302 109.614 182.559 109.515C181.955 109.315 181.367 109.157 180.778 108.999C180.18 108.94 179.633 108.766 179.128 108.576Z" fill="#77057A"/>
<path d="M172.006 92.1177C172.341 91.9895 172.718 91.8452 173.12 91.643C173.481 91.4569 173.867 91.213 174.205 90.8435C173.749 90.7787 173.35 90.7396 172.925 90.7584C172.501 90.7772 172.092 90.8379 171.673 90.9982C170.821 91.277 170.018 92.064 169.946 93.003L171.086 92.4704C171.337 92.3742 171.672 92.246 172.006 92.1177Z" fill="#77057A"/>
</g>
<defs>
<filter id="filter0_f" x="41.5739" y="2.2054" width="208.386" height="234.958" filterUnits="userSpaceOnUse" color-interpolation-filters="sRGB">
<feFlood flood-opacity="0" result="BackgroundImageFix"/>
<feBlend mode="normal" in="SourceGraphic" in2="BackgroundImageFix" result="shape"/>
<feGaussianBlur stdDeviation="11.3433" result="effect1_foregroundBlur"/>
</filter>
<clipPath id="clip0">
<rect width="58.0776" height="60.2706" fill="white" transform="translate(189.124 74.3232) rotate(-20.9643)"/>
</clipPath>
</defs>
</svg>
