<svg width="293" height="240" viewBox="0 0 293 240" fill="none" xmlns="http://www.w3.org/2000/svg">
<mask id="mask0" mask-type="alpha" maskUnits="userSpaceOnUse" x="3" y="4" width="286" height="233">
<rect y="91" width="251.821" height="159.562" rx="11.3433" transform="rotate(-20.9643 0 91)" fill="#F7CDD4"/>
</mask>
<g mask="url(#mask0)">
<rect y="91" width="251.821" height="159.562" rx="11.3433" transform="rotate(-20.9643 0 91)" fill="#6BB8DC"/>
<g filter="url(#filter0_f)">
<rect x="64.2605" y="66.3786" width="113.433" height="159.562" transform="rotate(-20.9643 64.2605 66.3786)" fill="#1E9ED1"/>
</g>
<rect x="95.7271" y="85.0956" width="17.393" height="3.78109" transform="rotate(-20.9643 95.7271 85.0956)" fill="#1174BA"/>
<rect x="100.326" y="97.1004" width="17.393" height="3.78109" transform="rotate(-20.9643 100.326 97.1004)" fill="#1174BA"/>
<rect x="103.844" y="106.28" width="43.1045" height="3.78109" transform="rotate(-20.9643 103.844 106.28)" fill="#1174BA"/>
<rect x="108.443" y="118.285" width="64.2786" height="3.78109" transform="rotate(-20.9643 108.443 118.285)" fill="#1174BA"/>
<rect x="116.831" y="140.176" width="38.5672" height="3.78109" transform="rotate(-20.9643 116.831 140.176)" fill="#1174BA"/>
<rect x="121.972" y="153.593" width="27.2239" height="3.78109" transform="rotate(-20.9643 121.972 153.593)" fill="#1174BA"/>
<rect x="124.677" y="160.655" width="72.597" height="5.29353" transform="rotate(-20.9643 124.677 160.655)" fill="#1E9ED1"/>
<rect x="119.266" y="146.532" width="71.0846" height="5.29353" transform="rotate(-20.9643 119.266 146.532)" fill="#1E9ED1"/>
<rect x="110.608" y="123.935" width="38.5672" height="5.29353" transform="rotate(-20.9643 110.608 123.935)" fill="#1E9ED1"/>
<rect x="105.738" y="111.224" width="34.7861" height="5.29353" transform="rotate(-20.9643 105.738 111.224)" fill="#1E9ED1"/>
<rect x="113.314" y="130.996" width="44.6169" height="5.29353" transform="rotate(-20.9643 113.314 130.996)" fill="#1E9ED1"/>
<rect x="128.195" y="169.835" width="66.5473" height="5.29353" transform="rotate(-20.9643 128.195 169.835)" fill="#1E9ED1"/>
<rect x="131.712" y="179.015" width="83.9403" height="5.29353" transform="rotate(-20.9643 131.712 179.015)" fill="#1E9ED1"/>
<rect x="135.229" y="188.195" width="31.7612" height="5.29353" transform="rotate(-20.9643 135.229 188.195)" fill="#1E9ED1"/>
<path d="M4.05847 101.592C1.81704 95.7424 4.74238 89.183 10.5924 86.9415L224.559 4.96036C230.409 2.71893 236.968 5.64427 239.21 11.4943L241.104 16.4374L5.95243 106.536L4.05847 101.592Z" fill="#88C6E3"/>
<path d="M288.723 140.722C290.666 145.792 288.13 151.476 283.06 153.419L66.2693 236.482C61.1993 238.425 55.5145 235.89 53.5719 230.82L288.723 140.722Z" fill="#88C6E3"/>
<path d="M85.279 65.5353L84.7292 64.1004L78.2996 66.5639L78.8494 67.9988L81.3029 67.0587L83.7286 73.3897L85.2511 72.8064L82.8254 66.4753L85.279 65.5353ZM90.3022 70.8711L87.3267 63.1051L85.7932 63.6927L88.7687 71.4586L90.3022 70.8711ZM95.3659 61.6705L94.8161 60.2356L88.3865 62.6991L88.9363 64.134L91.3898 63.1939L93.8155 69.5249L95.338 68.9416L92.9123 62.6105L95.3659 61.6705ZM102.689 66.1249L104.376 65.4786L101.494 62.9401C102.399 62.254 102.72 61.1891 102.305 60.1048C101.788 58.7575 100.426 58.0862 98.9142 58.6654L95.8801 59.8279L98.8556 67.5938L100.378 67.0105L99.2324 64.0202L100.021 63.718L102.689 66.1249ZM98.733 62.7168L97.9062 60.559L99.133 60.0889C99.8997 59.7951 100.512 60.0503 100.764 60.7075C101.008 61.3427 100.726 61.9529 99.9598 62.2467L98.733 62.7168ZM110.565 63.1075L110.019 61.6835L106.667 62.9677L105.979 61.1714L109.013 60.0089L108.497 58.6616L105.463 59.8241L104.783 58.0497L108.135 56.7655L107.589 55.3416L102.726 57.2049L105.701 64.9708L110.565 63.1075ZM115.757 59.5101L113.856 54.5483L115.072 54.0824C116.342 53.5956 117.7 53.9923 118.347 55.6791C118.993 57.3659 118.233 58.5616 116.962 59.0485L115.757 59.5101ZM117.554 60.4295C119.767 59.5818 120.853 57.5325 119.913 55.079C118.973 52.6254 116.802 51.8117 114.589 52.6594L111.807 53.7254L114.783 61.4913L117.554 60.4295ZM127.572 56.591L127.027 55.1671L123.675 56.4513L122.987 54.6549L126.021 53.4924L125.505 52.1452L122.471 53.3077L121.791 51.5333L125.142 50.249L124.597 48.8251L119.734 50.6885L122.709 58.4544L127.572 56.591ZM134.749 47.0582C134.238 46.2491 133.079 45.3869 131.195 46.1088C129.727 46.6711 128.892 48.1969 129.421 49.577C129.87 50.749 130.976 51.2422 132.31 51.0199L133.478 50.8235C134.127 50.7132 134.601 50.9336 134.773 51.3827C134.983 51.9303 134.689 52.5077 133.878 52.8182C132.783 53.2379 131.982 52.7535 131.622 52.0119L130.363 52.9215C130.907 53.9817 132.324 54.9587 134.384 54.1697C136.191 53.4772 136.726 51.8904 136.269 50.6965C135.849 49.6012 134.741 48.9707 133.223 49.2383L132.059 49.4456C131.447 49.5543 131.043 49.3197 130.879 48.8925C130.682 48.3777 130.984 47.722 131.718 47.4409C132.703 47.0632 133.31 47.597 133.55 47.9948L134.749 47.0582ZM139.173 41.0167L137.377 41.705L136.782 43.5283L138.118 43.0163L139.173 41.0167ZM143.264 50.5787L142.719 49.1547L139.367 50.4389L138.679 48.6426L141.713 47.4801L141.197 46.1328L138.162 47.2953L137.483 45.5209L140.834 44.2367L140.289 42.8128L135.425 44.6761L138.401 52.442L143.264 50.5787ZM143.03 47.955C143.614 49.4775 145.007 50.0992 146.541 49.5116C148.053 48.9325 148.626 47.3811 148.089 45.9791L146.033 40.6119L144.521 41.1911L146.578 46.5582C146.838 47.2373 146.616 47.8375 145.98 48.0809C145.367 48.3159 144.779 48.1265 144.462 47.3311L144.189 46.6192L142.833 47.4402L143.03 47.955ZM150.318 43.4166C149.647 41.664 150.555 40.3615 151.749 39.9041C152.954 39.4424 154.499 39.8049 155.171 41.5574C155.842 43.3099 154.934 44.6124 153.73 45.0741C152.536 45.5315 150.99 45.1691 150.318 43.4166ZM148.756 44.0277C149.713 46.525 152.189 47.3476 154.292 46.5418C156.406 45.7318 157.698 43.4656 156.741 40.9682C155.78 38.4599 153.305 37.6373 151.191 38.4473C149.088 39.2531 147.795 41.5193 148.756 44.0277ZM162.507 43.4067C164.172 42.7688 165.107 41.2423 164.377 39.3364L162.455 34.3198L160.943 34.899L162.823 39.8061C163.214 40.8247 162.861 41.5755 161.941 41.928C161.042 42.2721 160.267 41.9537 159.877 40.935L157.997 36.0279L156.485 36.6071L158.407 41.6237C159.138 43.5296 160.853 44.0404 162.507 43.4067ZM170.966 39.9649L172.652 39.3186L169.771 36.78C170.676 36.094 170.996 35.029 170.581 33.9447C170.065 32.5974 168.702 31.9262 167.191 32.5053L164.157 33.6678L167.132 41.4337L168.655 40.8504L167.509 37.8601L168.297 37.5579L170.966 39.9649ZM167.009 36.5567L166.183 34.3989L167.409 33.9288C168.176 33.6351 168.789 33.8902 169.041 34.5474C169.284 35.1827 169.003 35.7929 168.236 36.0866L167.009 36.5567Z" fill="#1174BA"/>
</g>
<g opacity="0.5" clip-path="url(#clip0)">
<path d="M244.404 89.515L209.237 102.989C211.239 108.215 218.707 110.374 226.935 108.599L230.561 118.061L232.891 117.168C232.684 117.895 232.645 118.639 232.943 119.416C233.619 121.181 235.67 122.096 237.435 121.42C239.201 120.743 240.116 118.692 239.439 116.927C239.169 116.221 238.616 115.623 237.975 115.22L240.306 114.327L236.545 104.512C242.87 100.307 246.244 94.3169 244.404 89.515Z" fill="#1E9ED1"/>
<path d="M226.027 75.5816L223.186 68.1669L220.785 69.0869C220.992 68.3596 221.031 67.6158 220.734 66.839C220.057 65.0736 218.006 64.1589 216.241 64.8353C214.475 65.5117 213.561 67.5628 214.237 69.3282C214.508 70.0344 215.061 70.6323 215.701 71.0349L213.37 71.9278L216.022 78.8482C207.741 84.2886 206.382 93.6362 206.215 97.4257L206.332 99.0003C208.597 102.587 213.644 104.135 218.305 102.349C222.895 100.591 225.626 96.3049 225.012 92.167L225.365 92.0317C227.674 95.5203 232.64 96.8568 237.159 95.1252C242.385 93.123 245.188 87.757 243.429 83.1669C243.5 83.1399 233.824 75.4287 226.027 75.5816Z" fill="#1E9ED1"/>
<g opacity="0.5">
<path d="M220.405 107.618C220.971 106.348 221.168 105.382 221.168 105.382C221.168 105.382 219.246 105.228 217.117 105.801C217.275 105.578 217.318 105.481 217.318 105.481C217.318 105.481 215.463 104.653 213.09 104.59C212.342 103.905 209.928 101.833 206.926 101.607C203.224 101.244 200.055 103.754 200.055 103.754C200.055 103.754 202.82 106.743 206.496 107.036C206.593 107.079 206.735 107.025 206.832 107.069C205.452 108.327 204.674 109.678 204.674 109.678C204.674 109.678 208.287 111.289 211.688 110.229C210.779 111.873 210.489 113.442 210.489 113.442C210.489 113.442 214.36 113.822 217.213 111.757C216.433 114.161 216.609 116.523 216.609 116.523C216.609 116.523 220.596 115.724 222.787 112.779C224.979 109.834 224.561 105.783 224.561 105.783C224.561 105.783 222.405 106.285 220.405 107.618Z" fill="#1174BA"/>
<path d="M211.963 81.78C211.256 78.2446 208.186 75.9386 208.186 75.9386C208.186 75.9386 207.381 77.2189 206.89 79.1077C205.124 75.9782 201.379 74.6595 201.379 74.6595C201.379 74.6595 200.872 76.7166 201.287 79.068C201.135 78.8832 200.94 78.7961 200.717 78.6383C197.728 76.5442 193.704 77.0332 193.704 77.0332C193.704 77.0332 194.574 80.9923 197.562 83.0864C197.66 83.1299 197.758 83.1735 197.883 83.2877C196.009 83.6816 194.678 84.4346 194.678 84.4346C194.678 84.4346 196.976 87.6843 200.433 88.4651C198.776 89.424 197.775 90.6171 197.775 90.6171C197.775 90.6171 200.916 92.896 204.446 92.5965C202.413 94.2661 201.455 96.4149 201.455 96.4149C201.455 96.4149 205.297 97.7772 208.632 96.3372C212.038 94.8702 213.721 91.2293 213.721 91.2293C213.721 91.2293 211.653 90.4828 209.22 90.6861C210.356 89.846 210.971 89.1246 210.971 89.1246C210.971 89.1246 210.846 89.0105 210.526 88.8092C210.657 88.5161 211.103 87.7783 211.441 86.758C211.953 89.153 213.205 90.9409 213.205 90.9409C213.205 90.9409 216.249 88.317 216.71 84.6582C217.1 81.0265 214.775 77.7062 214.775 77.7062C214.775 77.7062 213.008 79.4359 211.963 81.78ZM207.286 87.54C207.498 87.4588 207.612 87.3341 207.612 87.3341C207.612 87.3341 206.951 86.4537 205.855 85.4967C206.886 86.0736 207.641 86.3514 207.641 86.3514C207.641 86.3514 207.657 86.1831 207.744 85.9878C208.443 87.1777 209.273 88.0746 209.869 88.5749C209.256 88.2429 208.35 87.7802 207.286 87.54Z" fill="#1174BA"/>
<path d="M251.624 90.3927C251.667 90.295 251.809 90.2409 251.852 90.1432C254.391 87.4698 254.451 83.3979 254.451 83.3979C254.451 83.3979 250.416 83.6479 247.904 86.3919C245.822 88.5664 245.411 91.7204 245.312 92.7301C243.589 94.3621 242.761 96.2179 242.761 96.2179C242.761 96.2179 242.859 96.2615 243.125 96.3215C241.158 97.318 239.832 98.7171 239.832 98.7171C239.832 98.7171 240.624 99.3045 241.893 99.8707C239.488 100.145 237.575 101.282 237.575 101.282C237.575 101.282 239.971 104.576 243.569 105.302C247.168 106.029 250.667 103.959 250.667 103.959C250.667 103.959 249.291 102.057 246.963 100.844C250.509 100.376 253.091 97.6047 253.091 97.6047C253.091 97.6047 251.855 96.7019 250.053 96.0155C253.361 94.5049 254.903 90.9181 254.903 90.9181C254.903 90.9181 253.519 90.4765 251.624 90.3927Z" fill="#1174BA"/>
<path d="M236.187 82.8642C236.187 82.8642 235.924 80.6976 234.705 78.5731C235.638 79.1064 236.463 79.3572 236.756 79.4879C236.652 79.8515 236.636 80.0198 236.636 80.0198C236.636 80.0198 237.646 80.1188 238.981 80.0119C237.036 81.4862 235.996 83.4232 235.996 83.4232C235.996 83.4232 239.681 85.0078 243.195 83.8233C246.709 82.6387 248.587 79.0849 248.587 79.0849C248.587 79.0849 246.368 78.1537 243.81 78.2427C246.636 76.1072 247.45 72.3131 247.45 72.3131C247.45 72.3131 245.908 72.0939 244.035 72.4879C246.058 69.5261 245.623 65.6435 245.623 65.6435C245.623 65.6435 244.13 65.9728 242.473 66.9317C242.516 66.834 242.56 66.7363 242.576 66.568C243.401 63.0129 241.402 59.4867 241.402 59.4867C241.402 59.4867 238.082 61.8116 237.257 65.3668C237.197 65.6328 237.181 65.801 237.121 66.067C235.858 64.0403 234.106 62.849 234.106 62.849C234.106 62.849 232.174 66.2616 232.979 69.8405C231.378 68.8341 229.897 68.349 229.897 68.349C229.897 68.349 229.18 72.1866 230.99 75.2185C228.619 74.1024 226.23 74.208 226.23 74.208C226.23 74.208 226.648 78.2588 229.436 80.673C232.169 82.9459 236.187 82.8642 236.187 82.8642ZM237.963 73.7615C237.788 75.2054 237.884 76.3023 237.884 76.3023C237.884 76.3023 238.025 76.2482 238.264 76.2376C237.633 77.1272 237.268 78.0769 237.034 78.7335C237.073 77.9898 237.161 76.7411 236.886 75.3889C237.108 75.5466 237.206 75.5902 237.206 75.5902C237.206 75.5902 237.582 74.8794 237.963 73.7615Z" fill="#1174BA"/>
</g>
<path opacity="0.5" d="M231.191 104.7C237.236 102.384 240.259 95.6062 237.943 89.5611C235.627 83.5161 228.849 80.4933 222.804 82.8094C216.759 85.1256 213.736 91.9036 216.052 97.9487C218.368 103.994 225.146 107.017 231.191 104.7Z" fill="#1174BA"/>
</g>
<path d="M273.582 113.887L274.989 117.559L274.283 117.829L271.727 116.865C271.336 116.691 271 116.658 270.734 116.598C270.468 116.538 270.256 116.619 270.115 116.673C269.903 116.754 269.718 116.906 269.604 117.031C269.517 117.226 269.5 117.394 269.582 117.606C269.663 117.818 269.815 118.003 270.081 118.063C270.276 118.15 270.585 118.112 270.797 118.031L271.203 119.09C270.709 119.28 270.231 119.301 269.813 119.056C269.325 118.838 269.021 118.469 268.805 117.904C268.588 117.339 268.567 116.861 268.714 116.4C268.889 116.009 269.231 115.635 269.655 115.472C270.008 115.337 270.318 115.3 270.681 115.403C271.018 115.436 271.506 115.654 272.163 115.888L273.574 116.4L272.708 114.141L273.555 113.816L273.582 113.887Z" fill="#06508C"/>
<path d="M270.813 114.057L267.668 114.938L266.505 111.902L267.352 111.577L268.164 113.695L269.489 113.35C269.391 113.306 269.267 113.192 269.142 113.078C269.017 112.963 268.936 112.752 268.882 112.61C268.692 112.116 268.671 111.638 268.916 111.221C269.161 110.803 269.531 110.499 270.096 110.283C270.66 110.066 271.138 110.045 271.6 110.192C272.061 110.34 272.392 110.78 272.635 111.415C272.824 111.91 272.846 112.387 272.698 112.849C272.551 113.31 272.279 113.657 271.758 113.776L271.281 112.744C271.493 112.663 271.678 112.511 271.765 112.315C271.852 112.12 271.842 111.881 271.761 111.669C271.652 111.387 271.528 111.273 271.262 111.213C270.996 111.153 270.757 111.163 270.474 111.271C270.192 111.38 269.936 111.558 269.779 111.781C269.621 112.003 269.632 112.242 269.713 112.454C269.794 112.666 269.919 112.78 270.043 112.894C270.168 113.008 270.336 113.025 270.407 112.998L270.813 114.057Z" fill="#06508C"/>
<path d="M265.244 108.821C265.163 108.609 265.081 108.398 265.098 108.229C265.114 108.061 265.033 107.849 265.023 107.61L265.881 107.524C265.864 107.693 265.945 107.905 265.902 108.002C265.956 108.144 265.939 108.312 266.02 108.524C266.156 108.877 266.378 109.034 266.671 109.165C266.964 109.296 267.344 109.231 267.839 109.042L267.98 108.988C267.785 108.901 267.562 108.743 267.437 108.629C267.313 108.514 267.134 108.259 267.026 107.977C266.836 107.482 266.842 107.075 267.087 106.657C267.332 106.24 267.701 105.936 268.196 105.747C268.761 105.53 269.239 105.509 269.727 105.727C270.215 105.945 270.519 106.314 270.735 106.879C270.952 107.444 270.929 108.02 270.711 108.508C270.423 109.023 270.01 109.425 269.304 109.695L268.315 110.074C267.609 110.345 266.963 110.349 266.377 110.088C265.791 109.826 265.487 109.457 265.244 108.821ZM268.15 107.951C268.231 108.163 268.285 108.304 268.41 108.418C268.534 108.532 268.659 108.646 268.827 108.663L269.11 108.555C269.533 108.392 269.859 108.187 270.017 107.964C270.175 107.742 270.235 107.476 270.127 107.193C270.046 106.981 269.894 106.797 269.628 106.737C269.362 106.677 269.123 106.687 268.841 106.795C268.558 106.904 268.303 107.082 268.216 107.278C268.058 107.5 268.068 107.739 268.15 107.951Z" fill="#06508C"/>
<path d="M266.005 103.833C265.896 103.55 265.772 103.436 265.576 103.349C265.381 103.262 265.142 103.272 264.93 103.354C264.718 103.435 264.604 103.56 264.517 103.755C264.43 103.95 264.44 104.189 264.522 104.401C264.603 104.613 264.728 104.727 264.923 104.814C265.118 104.901 265.287 104.918 265.498 104.837L265.904 105.896C265.481 106.058 265.073 106.052 264.656 105.807C264.238 105.562 263.934 105.193 263.745 104.699C263.528 104.134 263.507 103.656 263.654 103.195C263.802 102.733 264.101 102.457 264.595 102.267C264.877 102.159 265.116 102.149 265.382 102.209C265.648 102.269 265.871 102.426 266.093 102.584C266.126 102.248 266.186 101.982 266.344 101.759C266.502 101.537 266.757 101.358 267.039 101.25C267.534 101.06 268.039 101.11 268.456 101.355C268.874 101.6 269.205 102.04 269.421 102.605C269.611 103.099 269.632 103.577 269.512 104.109C269.364 104.57 269.092 104.917 268.598 105.107L268.192 104.047C268.404 103.966 268.518 103.841 268.605 103.646C268.693 103.451 268.682 103.212 268.601 103C268.493 102.718 268.368 102.603 268.146 102.446C267.923 102.288 267.711 102.369 267.499 102.45C267.217 102.558 267.032 102.71 266.945 102.906C266.858 103.101 266.868 103.34 266.977 103.622L267.22 104.258L266.373 104.583L266.075 103.806L266.005 103.833Z" fill="#06508C"/>
<path d="M262.804 98.0139C263.086 97.9057 263.325 97.8951 263.591 97.9552C263.857 98.0153 264.079 98.173 264.302 98.3307C264.335 97.9941 264.368 97.6576 264.525 97.4352C264.683 97.2128 264.911 96.9633 265.194 96.8551C265.688 96.6657 266.166 96.6446 266.584 96.8894C267.002 97.1343 267.305 97.5039 267.522 98.0688C267.738 98.6337 267.786 99.1822 267.639 99.6435C267.492 100.105 267.149 100.479 266.655 100.668C266.373 100.777 266.063 100.814 265.77 100.684C265.477 100.553 265.184 100.422 265.005 100.167C264.972 100.503 264.912 100.769 264.754 100.992C264.597 101.214 264.412 101.366 264.129 101.474C263.635 101.663 263.228 101.658 262.81 101.413C262.392 101.168 262.089 100.798 261.899 100.304C261.71 99.8096 261.689 99.3318 261.863 98.9411C262.01 98.4798 262.309 98.2033 262.804 98.0139ZM265.6 97.9143C265.388 97.9955 265.203 98.1473 265.116 98.3426C265.029 98.538 265.039 98.7769 265.121 98.9887C265.202 99.2006 265.354 99.3854 265.576 99.5431C265.771 99.6302 266.01 99.6197 266.222 99.5385C266.505 99.4303 266.619 99.3055 266.706 99.1102C266.793 98.9149 266.782 98.6759 266.674 98.3935C266.593 98.1816 266.441 97.9968 266.246 97.9097C266.051 97.8226 265.882 97.8061 265.6 97.9143ZM263.28 99.0461C263.068 99.1273 262.954 99.252 262.84 99.3767C262.753 99.5721 262.736 99.7404 262.79 99.8816C262.871 100.093 262.996 100.208 263.192 100.295C263.387 100.382 263.555 100.398 263.767 100.317C263.979 100.236 264.164 100.084 264.251 99.8889C264.338 99.6935 264.354 99.5252 264.273 99.3134C264.192 99.1016 264.067 98.9874 263.899 98.9709C263.731 98.9544 263.492 98.9649 263.28 99.0461Z" fill="#06508C"/>
<path d="M265.14 91.8546L266.547 95.5266L265.841 95.7972L263.285 94.8329C262.895 94.6587 262.558 94.6257 262.292 94.5656C262.026 94.5056 261.814 94.5867 261.673 94.6408C261.461 94.722 261.276 94.8738 261.162 94.9985C261.075 95.1939 261.059 95.3622 261.14 95.574C261.221 95.7859 261.373 95.9707 261.639 96.0307C261.834 96.1178 262.144 96.0802 262.355 95.999L262.761 97.0583C262.267 97.2477 261.789 97.2688 261.371 97.0239C260.883 96.8061 260.579 96.4366 260.363 95.8716C260.146 95.3067 260.125 94.8289 260.273 94.3676C260.42 93.9063 260.789 93.6027 261.213 93.4404C261.566 93.3051 261.876 93.2675 262.239 93.3711C262.576 93.4041 263.064 93.6219 263.721 93.8562L265.132 94.3684L264.266 92.1087L265.113 91.784L265.14 91.8546Z" fill="#06508C"/>
<path d="M258.48 91.1673C258.399 90.9554 258.317 90.7436 258.334 90.5753C258.323 90.3364 258.269 90.1952 258.259 89.9563L259.117 89.8705C259.1 90.0388 259.181 90.2506 259.138 90.3483C259.192 90.4895 259.175 90.6578 259.257 90.8697C259.392 91.2227 259.614 91.3805 259.907 91.5112C260.2 91.6418 260.58 91.5772 261.075 91.3878L261.216 91.3337C261.021 91.2465 260.798 91.0888 260.674 90.9746C260.549 90.8604 260.37 90.605 260.262 90.3226C260.072 89.8283 260.078 89.4211 260.323 89.0033C260.568 88.5856 260.938 88.282 261.432 88.0926C261.997 87.8762 262.475 87.8551 262.963 88.0729C263.451 88.2906 263.755 88.6602 263.971 89.2252C264.188 89.7901 264.165 90.3656 263.948 90.8539C263.659 91.3694 263.246 91.7706 262.54 92.0412L261.551 92.42C260.845 92.6905 260.199 92.6951 259.613 92.4338C259.125 92.216 258.723 91.8028 258.48 91.1673ZM261.386 90.2969C261.467 90.5087 261.521 90.65 261.646 90.7641C261.77 90.8783 261.895 90.9925 262.063 91.009L262.346 90.9008C262.77 90.7384 263.096 90.5325 263.253 90.3101C263.411 90.0877 263.471 89.8217 263.363 89.5393C263.282 89.3274 263.13 89.1427 262.864 89.0826C262.598 89.0225 262.359 89.0331 262.077 89.1413C261.794 89.2495 261.539 89.4284 261.452 89.6237C261.321 89.9167 261.304 90.085 261.386 90.2969Z" fill="#06508C"/>
<path d="M257.098 84.8134C258.047 85.1784 258.845 85.3585 259.562 85.3269C260.208 85.3223 260.968 85.1929 261.675 84.9224L262.381 84.6518L262.814 85.7817L262.107 86.0522C261.331 86.3499 260.57 86.4792 259.897 86.4132C259.224 86.3472 258.356 86.194 257.601 85.9162L258.684 88.7408L257.836 89.0655L256.375 85.2522L257.152 84.9546L257.098 84.8134Z" fill="#06508C"/>
<path d="M260.089 80.9949C259.981 80.7125 259.829 80.5277 259.563 80.4676C259.297 80.4076 258.96 80.3745 258.607 80.5098L258.254 80.6451C258.449 80.7322 258.645 80.8194 258.77 80.9335C258.894 81.0477 259.046 81.2325 259.127 81.4443C259.317 81.9386 259.338 82.4165 259.093 82.8342C258.848 83.252 258.478 83.5555 257.913 83.772C257.349 83.9884 256.871 84.0095 256.382 83.7917C255.894 83.5739 255.52 83.2314 255.303 82.6665C255.087 82.1016 255.136 81.5967 255.354 81.1083C255.572 80.62 256.083 80.2623 256.718 80.0188L258.201 79.4506C258.837 79.2071 259.412 79.2295 259.901 79.4473C260.389 79.6651 260.79 80.0783 261.007 80.6432C261.088 80.8551 261.142 80.9963 261.153 81.2352C261.163 81.4741 261.244 81.6859 261.228 81.8542L260.37 81.94C260.386 81.7717 260.403 81.6034 260.322 81.3916C260.251 81.4186 260.17 81.2068 260.089 80.9949ZM258.226 81.6278C258.145 81.4159 258.02 81.3018 257.895 81.1876C257.77 81.0734 257.673 81.0299 257.477 80.9427L256.842 81.1862C256.489 81.3215 256.233 81.5004 256.146 81.6957C255.988 81.9181 255.999 82.157 256.08 82.3689C256.161 82.5807 256.313 82.7655 256.579 82.8256C256.845 82.8856 257.084 82.8751 257.437 82.7398C257.719 82.6316 257.975 82.4527 258.133 82.2303C258.22 82.035 258.307 81.8396 258.226 81.6278Z" fill="#06508C"/>
<path d="M258.809 75.3303L259.215 76.3895L254.696 78.1212L255.129 79.251L254.281 79.5757L253.231 77.4678L258.809 75.3303Z" fill="#06508C"/>
<path d="M252.038 71.608C252.988 71.973 253.786 72.1532 254.502 72.1216C255.219 72.0899 255.909 71.9876 256.615 71.7171L257.321 71.4465L257.754 72.5763L257.048 72.8469C256.271 73.1445 255.511 73.2739 254.838 73.2079C254.165 73.1418 253.296 72.9887 252.542 72.7109L253.624 75.5355L252.777 75.8602L251.316 72.0469L252.092 71.7493L252.038 71.608Z" fill="#06508C"/>
<path d="M250.334 67.1594C251.283 67.5244 252.081 67.7045 252.798 67.6729C253.515 67.6412 254.204 67.539 254.91 67.2684L255.617 66.9978L256.049 68.1277L255.343 68.3982C254.567 68.6959 253.806 68.8252 253.133 68.7592C252.46 68.6932 251.591 68.54 250.837 68.2622L251.919 71.0868L251.072 71.4115L249.611 67.5982L250.388 67.3006L250.334 67.1594Z" fill="#06508C"/>
<path d="M250.799 64.1466C250.691 63.8642 250.566 63.75 250.37 63.6629C250.175 63.5758 249.936 63.5863 249.724 63.6675C249.513 63.7486 249.398 63.8734 249.311 64.0687C249.224 64.2641 249.235 64.503 249.316 64.7148C249.397 64.9267 249.522 65.0408 249.717 65.128C249.912 65.2151 250.081 65.2316 250.293 65.1504L250.698 66.2097C250.275 66.372 249.868 66.366 249.45 66.1212C249.032 65.8763 248.728 65.5068 248.539 65.0124C248.323 64.4475 248.301 63.9697 248.449 63.5084C248.596 63.0471 248.895 62.7706 249.389 62.5812C249.672 62.473 249.911 62.4624 250.176 62.5225C250.442 62.5825 250.665 62.7403 250.887 62.898C250.92 62.5614 250.98 62.2955 251.138 62.0731C251.296 61.8507 251.551 61.6718 251.834 61.5636C252.328 61.3742 252.833 61.4237 253.251 61.6686C253.668 61.9134 253.999 62.3536 254.215 62.9185C254.405 63.4128 254.426 63.8907 254.306 64.4226C254.159 64.8839 253.887 65.231 253.392 65.4204L252.987 64.3612C253.198 64.28 253.313 64.1553 253.4 63.9599C253.487 63.7646 253.476 63.5257 253.395 63.3138C253.287 63.0314 253.162 62.9172 252.94 62.7595C252.717 62.6017 252.505 62.6829 252.294 62.7641C252.011 62.8723 251.826 63.0241 251.739 63.2194C251.652 63.4148 251.663 63.6537 251.771 63.9361L251.96 64.4304L251.113 64.7551L250.869 64.1196L250.799 64.1466Z" fill="#06508C"/>
<path d="M251.647 58.9626C251.539 58.6802 251.387 58.4954 251.121 58.4353C250.855 58.3753 250.519 58.3423 250.166 58.4775L249.812 58.6128C250.008 58.6999 250.203 58.7871 250.328 58.9012C250.453 59.0154 250.604 59.2002 250.686 59.4121C250.875 59.9064 250.896 60.3842 250.651 60.8019C250.406 61.2197 250.037 61.5232 249.472 61.7397C248.907 61.9561 248.429 61.9772 247.941 61.7595C247.452 61.5417 247.078 61.1991 246.862 60.6342C246.645 60.0693 246.695 59.5644 246.913 59.076C247.13 58.5877 247.641 58.23 248.277 57.9865L249.76 57.4183C250.395 57.1748 250.971 57.1972 251.459 57.415C251.947 57.6328 252.349 58.046 252.565 58.6109C252.646 58.8228 252.7 58.964 252.711 59.2029C252.722 59.4418 252.803 59.6536 252.786 59.8219L251.928 59.9077C251.945 59.7394 251.961 59.5711 251.88 59.3593C251.782 59.3157 251.728 59.1745 251.647 58.9626ZM249.757 59.5249C249.676 59.313 249.551 59.1989 249.426 59.0847C249.302 58.9705 249.204 58.9269 249.009 58.8398L248.373 59.0833C248.02 59.2186 247.765 59.3975 247.677 59.5928C247.52 59.8152 247.53 60.0541 247.611 60.266C247.693 60.4778 247.844 60.6626 248.11 60.7227C248.376 60.7827 248.615 60.7722 248.968 60.6369C249.251 60.5287 249.506 60.3498 249.664 60.1274C249.778 60.0027 249.865 59.8073 249.757 59.5249Z" fill="#06508C"/>
<path d="M250.368 53.2981L250.774 54.3574L246.254 56.089L246.687 57.2188L245.84 57.5435L244.789 55.4356L250.368 53.2981Z" fill="#06508C"/>
<path d="M243.569 49.5054C244.519 49.8704 245.317 50.0506 246.034 50.0189C246.75 49.9872 247.44 49.885 248.146 49.6144L248.852 49.3438L249.285 50.4737L248.579 50.7443C247.802 51.0419 247.042 51.1712 246.369 51.1052C245.696 51.0392 244.827 50.8861 244.073 50.6082L245.155 53.4328L244.308 53.7575L242.847 49.9442L243.624 49.6466L243.569 49.5054Z" fill="#06508C"/>
<rect width="69.1566" height="89.2343" transform="matrix(-0.933803 0.357786 0.357786 0.933803 92.698 112.171)" fill="white"/>
<path d="M75.4585 183.515C69.8061 180.409 64.9852 175.767 63.0056 169.277C57.3274 150.619 84.2326 144.873 92.7076 152.169C101.183 159.465 109.472 182.952 103.748 187.071C101.437 188.717 95.4331 189.193 88.6187 187.951L99.3406 205.082L78.8677 212.926L75.4585 183.515Z" fill="#1E9ED1"/>
<path d="M51.7534 166.644C50.8361 166.235 50.1267 165.442 49.4785 164.677C48.8133 163.867 48.1482 163.058 47.5714 162.214C46.401 160.483 45.5542 158.273 46.3492 156.245C46.9974 154.628 48.4302 153.471 49.8828 152.762C50.8659 152.284 51.9338 152.027 53.042 152.008C54.1334 151.944 55.2106 152.241 56.2916 152.283C55.5399 150.189 55.0807 147.932 55.4203 145.774C55.7937 143.705 57.013 142.122 58.7855 141.19C60.541 140.213 62.5675 139.944 64.6034 140.228C65.1303 140.28 65.6299 140.392 66.1294 140.505C66.5679 140.59 66.979 140.737 67.4108 140.673C67.8869 140.592 68.0233 140.286 68.1531 139.831C68.3714 139.342 68.5896 138.853 68.886 138.435C70.1636 136.476 72.2597 135.064 74.5816 135.036C75.6456 135.034 76.8113 135.297 77.7521 135.9C78.6149 136.431 79.4532 137.428 80.4523 137.653C80.8907 137.739 80.9933 137.344 81.2351 137.049C81.5587 136.57 81.8654 136.047 82.189 135.568C82.6829 134.872 83.2276 134.309 83.9116 133.844C84.9154 133.155 86.4527 132.667 87.3042 133.963C87.6401 134.443 87.7718 135.051 87.9308 135.599C88.1745 136.367 88.4182 137.135 88.6007 137.877C88.7766 138.468 88.8914 139.032 89.0232 139.641C89.0975 139.967 89.1239 140.565 89.3751 140.824C89.6874 141.11 90.3272 140.662 90.6367 140.543C91.2727 140.35 91.9256 140.202 92.602 140.247C93.1289 140.298 93.7169 140.377 94.097 140.84C94.3482 141.098 94.4225 141.425 94.4969 141.751C94.6051 142.166 94.717 142.326 94.9137 142.706C95.6014 141.987 98.1199 139.957 99.0495 141.325C99.3684 141.76 99.3232 142.436 99.2546 142.919C99.1887 143.806 98.9564 144.655 98.7071 145.46C98.1981 147.176 97.4004 148.8 96.4464 150.28C98.2481 150.35 99.4251 152.231 98.5558 153.933C98.1842 154.683 97.4391 155.121 96.6704 155.365C96.4051 155.466 95.9564 155.486 95.7522 155.615C95.6365 155.71 95.5819 155.833 95.4051 155.9C94.3777 156.395 93.0822 156.588 91.9805 156.756C90.0152 157.053 87.9077 156.847 85.9847 156.063C85.4955 155.845 85.1182 155.786 84.6318 155.973C84.1896 156.142 83.8425 156.427 83.4003 156.597C82.2676 157.081 81.0304 156.897 79.8779 156.933C80.3756 158.364 80.5262 160.08 80.4425 161.582C80.3625 162.83 79.4406 163.335 78.5016 163.796C75.5249 165.291 72.25 166.141 69.1547 167.327C72.4156 166.838 75.6736 165.944 78.941 165.605C80.4473 165.433 79.7417 166.768 79.404 167.607C78.8649 168.979 78.6486 170.532 78.6429 172.106C76.4555 170.764 73.3555 170.482 71.2764 171.938C68.9658 173.583 68.518 177.709 71.1025 179.557C72.573 180.616 74.5177 180.53 76.1697 180.606C75.5046 182.179 75.8829 183.96 75.7785 185.673C75.7399 186.499 75.5584 187.481 74.9083 188.034C74.6768 188.224 74.3673 188.343 74.2309 188.648C74.0672 189.015 74.1415 189.342 73.8725 189.698C72.8574 191.152 70.718 191.921 69.0499 191.14C67.5211 190.459 67.1532 188.572 67.6141 187.128C65.9178 187.069 63.0211 187.317 62.7322 184.842C59.508 185.824 49.9719 183.699 52.75 178.377C49.9596 177.976 46.6177 175.607 46.993 172.219C47.3571 169.596 49.6376 167.607 51.7534 166.644Z" fill="#06508C"/>
<path d="M98.6096 163.999C100.459 163.798 101.585 165.546 102.611 166.369C103.636 167.193 105.687 168.84 106.73 169.708C107.755 170.532 107.755 170.532 107.856 171.456C107.194 173.434 105.344 173.635 103.639 174.745C102.715 174.846 101.935 175.854 101.01 175.955" fill="#1E9ED1"/>
<path d="M96.4861 165.472C96.9725 165.285 97.1738 164.752 96.9875 164.266C96.8012 163.78 96.2508 163.534 95.8086 163.704C95.3222 163.89 95.1209 164.424 95.3072 164.91C95.4935 165.396 95.9997 165.658 96.4861 165.472Z" fill="#06508C"/>
<path d="M102.089 179.698C103.136 179.652 104.187 179.35 105.065 178.862C103.885 178.959 102.777 178.978 101.689 178.787C101.146 178.691 100.602 178.595 100.068 178.394C99.7795 178.302 99.4906 178.21 99.1849 178.074C98.9845 177.948 98.7568 177.883 98.5122 177.774L98.451 177.746C98.1622 177.654 97.8696 177.817 97.7774 178.106C97.641 178.412 97.8207 178.748 98.1265 178.885L98.1876 178.912C98.7042 179.069 99.2272 179.375 99.8115 179.709C100.396 180.043 101.085 180.387 101.735 180.493C103.084 180.838 104.386 180.795 105.715 180.691C105.076 180.48 104.454 180.312 103.833 180.145C103.2 180.083 102.623 179.899 102.089 179.698Z" fill="#06508C"/>
<path d="M94.563 162.306C94.9168 162.17 95.3147 162.018 95.74 161.804C96.121 161.607 96.5293 161.35 96.8868 160.959C96.4042 160.891 95.9827 160.849 95.5339 160.869C95.0851 160.889 94.6533 160.953 94.2111 161.123C93.3098 161.417 92.4622 162.249 92.386 163.241L93.5902 162.678C93.8555 162.577 94.2093 162.441 94.563 162.306Z" fill="#06508C"/>
<g opacity="0.3">
<path d="M153.928 113.089C148.58 110.15 144.018 105.758 142.145 99.6165C136.772 81.961 162.231 76.5231 170.251 83.4274C178.27 90.3317 186.114 112.557 180.698 116.455C178.511 118.012 172.83 118.462 166.382 117.287L176.527 133.498L157.155 140.92L153.928 113.089Z" fill="#88C6E3"/>
<path d="M131.497 97.1247C130.629 96.7378 129.958 95.9877 129.345 95.2634C128.715 94.4972 128.086 93.7311 127.54 92.9329C126.432 91.2947 125.631 89.2034 126.383 87.2843C126.997 85.7542 128.353 84.6591 129.727 83.9886C130.658 83.5362 131.668 83.2929 132.717 83.2749C133.749 83.2149 134.769 83.4959 135.792 83.5357C135.08 81.5538 134.646 79.4179 134.967 77.3761C135.321 75.418 136.474 73.9207 138.152 73.0382C139.813 72.1139 141.73 71.8588 143.657 72.128C144.155 72.1768 144.628 72.2835 145.101 72.3901C145.516 72.471 145.905 72.6097 146.313 72.5491C146.764 72.4725 146.893 72.1832 147.016 71.7524C147.222 71.2895 147.429 70.8266 147.709 70.4314C148.918 68.5772 150.902 67.2416 153.099 67.2152C154.106 67.2131 155.209 67.462 156.099 68.0323C156.916 68.5349 157.709 69.4781 158.654 69.6914C159.069 69.7723 159.166 69.3994 159.395 69.1198C159.701 68.6667 159.991 68.1718 160.298 67.7187C160.765 67.06 161.28 66.5267 161.928 66.0869C162.878 65.4351 164.332 64.9737 165.138 66.1999C165.456 66.6537 165.58 67.2295 165.731 67.7475C165.962 68.4746 166.192 69.2016 166.365 69.9029C166.531 70.4627 166.64 70.9967 166.765 71.5725C166.835 71.8813 166.86 72.4473 167.098 72.692C167.393 72.9625 167.999 72.5387 168.291 72.4265C168.893 72.2438 169.511 72.103 170.151 72.1456C170.65 72.1944 171.206 72.269 171.566 72.7068C171.804 72.9515 171.874 73.2603 171.944 73.5691C172.047 73.9616 172.153 74.1129 172.339 74.4733C172.989 73.7922 175.373 71.8718 176.252 73.1656C176.554 73.5776 176.511 74.2176 176.446 74.6742C176.384 75.5135 176.164 76.3172 175.928 77.0791C175.447 78.7026 174.692 80.239 173.789 81.6401C175.494 81.7064 176.608 83.4861 175.785 85.0964C175.433 85.8067 174.728 86.2208 174.001 86.4515C173.75 86.5477 173.325 86.5665 173.132 86.6885C173.023 86.7784 172.971 86.8941 172.804 86.9582C171.831 87.4266 170.606 87.6085 169.563 87.7681C167.703 88.049 165.709 87.8538 163.889 87.112C163.426 86.9056 163.069 86.8506 162.609 87.0269C162.191 87.1872 161.862 87.457 161.444 87.6173C160.372 88.076 159.201 87.9009 158.111 87.9351C158.582 89.2895 158.724 90.9138 158.645 92.3351C158.569 93.5153 157.697 93.9935 156.808 94.4298C153.992 95.8449 150.893 96.6485 147.964 97.7707C151.049 97.308 154.132 96.4625 157.224 96.1412C158.649 95.9789 157.982 97.242 157.662 98.036C157.152 99.3346 156.947 100.804 156.942 102.293C154.872 101.024 151.939 100.757 149.971 102.134C147.785 103.691 147.361 107.595 149.807 109.344C151.198 110.346 153.038 110.264 154.602 110.337C153.972 111.825 154.33 113.511 154.232 115.131C154.195 115.913 154.023 116.842 153.408 117.366C153.189 117.545 152.896 117.658 152.767 117.947C152.612 118.294 152.683 118.603 152.428 118.94C151.467 120.316 149.443 121.043 147.864 120.305C146.418 119.66 146.07 117.875 146.506 116.509C144.901 116.452 142.16 116.687 141.886 114.345C138.835 115.274 129.812 113.264 132.44 108.227C129.8 107.848 126.638 105.606 126.993 102.4C127.337 99.9178 129.495 98.0357 131.497 97.1247Z" fill="#1174BA"/>
<path d="M175.836 94.6221C177.586 94.4311 178.652 96.0854 179.622 96.8648C180.593 97.6442 182.534 99.2029 183.52 100.024C184.49 100.804 184.49 100.804 184.586 101.678C183.959 103.549 182.209 103.74 180.596 104.79C179.721 104.886 178.983 105.84 178.107 105.935" fill="#88C6E3"/>
<path d="M173.827 96.0155C174.287 95.8392 174.477 95.3345 174.301 94.8744C174.125 94.4143 173.604 94.1822 173.186 94.3425C172.725 94.5188 172.535 95.0235 172.711 95.4836C172.887 95.9437 173.366 96.1919 173.827 96.0155Z" fill="#1174BA"/>
<path d="M179.128 109.477C180.119 109.434 181.114 109.149 181.944 108.686C180.828 108.778 179.779 108.796 178.75 108.615C178.235 108.525 177.721 108.434 177.216 108.244C176.943 108.156 176.669 108.069 176.38 107.94C176.19 107.821 175.975 107.76 175.744 107.657L175.686 107.631C175.412 107.544 175.136 107.698 175.048 107.971C174.919 108.26 175.089 108.579 175.379 108.708L175.436 108.734C175.925 108.882 176.42 109.172 176.973 109.488C177.526 109.804 178.178 110.129 178.793 110.23C180.069 110.556 181.302 110.516 182.559 110.417C181.955 110.217 181.367 110.059 180.778 109.901C180.18 109.842 179.633 109.668 179.128 109.477Z" fill="#1174BA"/>
<path d="M172.006 93.0196C172.341 92.8914 172.718 92.7471 173.12 92.545C173.481 92.3588 173.867 92.1149 174.205 91.7454C173.749 91.6806 173.35 91.6415 172.925 91.6603C172.501 91.6792 172.092 91.7398 171.673 91.9001C170.821 92.1789 170.018 92.9659 169.946 93.9049L171.086 93.3723C171.337 93.2761 171.672 93.1479 172.006 93.0196Z" fill="#1174BA"/>
</g>
<defs>
<filter id="filter0_f" x="41.5739" y="3.10732" width="208.386" height="234.958" filterUnits="userSpaceOnUse" color-interpolation-filters="sRGB">
<feFlood flood-opacity="0" result="BackgroundImageFix"/>
<feBlend mode="normal" in="SourceGraphic" in2="BackgroundImageFix" result="shape"/>
<feGaussianBlur stdDeviation="11.3433" result="effect1_foregroundBlur"/>
</filter>
<clipPath id="clip0">
<rect width="58.0776" height="60.2706" fill="white" transform="translate(189.124 75.225) rotate(-20.9643)"/>
</clipPath>
</defs>
</svg>
