<svg width="25" height="24" viewBox="0 0 25 24" fill="none" xmlns="http://www.w3.org/2000/svg">
<path fill-rule="evenodd" clip-rule="evenodd" d="M12.5 22C6.977 22 2.5 17.523 2.5 12C2.5 6.477 6.977 2 12.5 2C18.023 2 22.5 6.477 22.5 12C22.5 17.523 18.023 22 12.5 22ZM11.122 8.415C10.9994 8.33319 10.8417 8.32545 10.7116 8.39486C10.5816 8.46428 10.5003 8.59959 10.5 8.747V15.253C10.5003 15.4004 10.5816 15.5357 10.7116 15.6051C10.8417 15.6746 10.9994 15.6668 11.122 15.585L16.001 12.333C16.1124 12.2588 16.1794 12.1339 16.1794 12C16.1794 11.8661 16.1124 11.7412 16.001 11.667L11.122 8.415Z" fill="#929292"/>
<line x1="1.03033" y1="0.96967" x2="8.45495" y2="8.39429" stroke="#929292" stroke-width="1.5"/>
<line x1="16.0303" y1="15.9697" x2="23.455" y2="23.3943" stroke="#929292" stroke-width="1.5"/>
</svg>
