<svg width="157" height="115" viewBox="0 0 157 115" fill="none" xmlns="http://www.w3.org/2000/svg">
<path d="M84.8322 38.8281L77.1125 65.926L73.4969 86.2244H69.8813L73.4969 38.8281H84.8322Z" fill="#77057A"/>
<path d="M88.2521 38.8281C87.7635 52.927 87.959 60.6264 88.0567 61.8263C88.1544 63.1262 88.8384 71.6256 93.5289 86.6244H89.7179C83.5617 72.2255 81.4119 63.7262 80.7278 61.8263C80.0438 59.9265 77.894 52.2271 74.8647 38.8281H88.2521Z" fill="#77057A"/>
<path d="M85.0279 38.8281C83.0735 48.1274 79.5556 63.0262 74.6697 83.4246H69.393C69.0021 62.4263 70.6633 48.6274 73.5948 38.8281H85.0279Z" fill="#9E2DAD"/>
<path d="M88.3503 38.8281C87.8617 52.927 89.2297 66.726 93.4316 83.7246H87.764C81.6077 69.5257 77.2104 55.7268 74.1812 38.8281H88.3503Z" fill="#C159D8"/>
<path d="M94.0178 89.5246L93.8223 86.1246C92.6497 86.5246 91.0862 86.3246 89.2296 85.7246C87.2752 87.1246 84.7345 88.1246 81.803 88.6246C81.6075 88.6246 81.4121 88.9246 81.4121 89.1246L81.7053 90.1246H89.2296H93.6269L94.0178 89.5246Z" fill="#600566"/>
<path d="M74.3761 89.5246L74.1807 86.1246C73.0081 86.5246 71.4446 86.3246 69.588 85.7246C67.6336 87.1246 65.0929 88.1246 62.1614 88.6246C61.9659 88.6246 61.7705 88.9246 61.7705 89.1246L62.0637 90.1246H69.588H73.9853L74.3761 89.5246Z" fill="#600566"/>
<path d="M81.6076 7.73063C82.5848 6.53072 83.2688 5.13083 83.0734 3.53095C82.7802 -1.06869 76.5263 -0.0687607 75.256 2.23106C74.0833 4.53088 74.1811 10.4304 75.7445 10.8304C76.3309 11.0304 77.6989 10.6304 79.067 9.73047L78.1875 15.93H83.2688L81.6076 7.73063Z" fill="#77057A"/>
<path d="M78.8714 4.03138C78.676 6.73138 78.1874 8.13137 77.3079 8.13137C76.0376 8.13137 75.0604 7.33137 74.4741 7.33137C74.0832 7.33137 74.181 7.83138 74.4741 8.23138C74.6696 8.53138 75.7445 8.83137 75.7445 9.33137C75.7445 9.83137 74.865 9.43138 74.865 9.73138C74.865 10.2314 74.6696 11.1314 75.549 11.1314C76.3308 11.1314 78.676 10.8314 79.0669 9.63137C79.36 8.83137 79.4577 7.23138 79.5555 4.73138C79.6532 4.73138 79.6532 4.73138 79.7509 4.73138C80.4349 4.73138 81.0212 5.33138 81.0212 6.03138C81.0212 6.43138 80.9235 6.73137 80.6304 6.93137C80.9235 7.33137 81.2167 7.83138 81.6075 8.23138C82.9756 7.33138 84.3436 4.83137 82.9756 2.43137C82.5847 1.23137 81.4121 0.631374 80.4349 0.331374C79.6532 -0.0686263 78.7737 -0.0686309 77.992 0.131369C76.6239 0.231369 75.3536 0.731372 74.9627 0.931372C74.9627 2.33137 75.2559 2.73137 77.4057 2.63137C78.0897 2.83137 78.4806 3.33138 78.8714 4.03138Z" fill="#C159D8"/>
<path d="M66.6567 35.9287L60.5004 39.6284C58.9369 42.1282 58.0575 43.2281 57.7643 42.8282C57.3734 42.3282 57.9597 41.7283 57.7643 41.3283C57.5689 40.9283 56.2985 41.1283 55.1259 41.4283C53.9533 41.7283 54.2465 41.1283 54.4419 40.8283C55.5168 39.9284 56.9826 39.1285 58.6438 38.3285L64.6046 32.429L66.6567 35.9287ZM97.4379 44.828C97.731 45.428 99.9786 47.3278 101.542 48.4277C102.128 48.8277 101.933 49.4277 101.64 49.5277C99.7831 50.7276 98.5128 49.3277 96.8516 48.5277C95.0927 47.6278 95.1904 50.1276 93.7246 49.4277C94.1155 48.4277 95.1904 46.5279 94.7018 45.328C94.5063 44.828 92.6497 38.7285 89.1318 27.1294H93.7246C95.7767 38.0285 97.047 43.9281 97.4379 44.828Z" fill="#77057A"/>
<path d="M79.751 13.7302L77.8944 13.4302C75.0605 23.7294 60.4028 30.8288 59.4256 34.6285C59.1325 36.0284 60.1097 36.7284 59.6211 37.2283L61.9663 39.0282C62.3572 38.5282 63.2366 39.4281 64.9956 38.8282C66.7545 38.2282 79.751 26.0292 79.751 13.7302Z" fill="#C159D8"/>
<path d="M76.7215 15.1311C76.917 28.83 69.1972 32.3297 70.9562 37.8293C72.4219 42.3289 86.0048 47.2286 88.35 42.8289C89.3272 41.0291 89.718 38.8292 89.8158 36.5294C90.4021 38.3293 90.8907 39.9291 91.2815 41.229C91.8678 43.5289 94.2131 43.8288 94.2131 44.7288L97.3401 43.8288C97.1446 42.6289 98.6104 42.029 98.2195 39.4292C96.4606 27.5301 91.7701 19.0308 84.1481 13.6312L84.0504 12.4313C84.0504 11.9313 83.6595 11.6313 83.1709 11.6313L77.5033 12.0313C77.0147 12.0313 76.7215 12.4313 76.7215 12.9312V15.1311Z" fill="#D16DEA"/>
<path d="M91.0864 25.9299L85.0279 22.0299C82.1941 21.7299 80.826 21.4299 80.9237 21.0299C81.2169 20.4299 81.9986 20.7299 82.1941 20.3299C82.3895 19.9299 81.7055 18.9299 80.9237 18.0299C80.142 17.1299 80.826 17.0299 81.2169 17.1299C82.4872 17.7299 83.8553 18.6299 85.3211 19.8299L93.2362 22.5299L91.0864 25.9299Z" fill="#9E2DAD"/>
<path d="M96.2655 22.4299C93.8225 22.4299 90.5978 21.8299 87.08 19.6299L85.7119 22.7299C88.1549 25.1299 91.4773 27.1299 94.4088 27.1299C96.7541 27.0299 97.9267 24.1299 96.2655 22.4299Z" fill="#600566"/>
<path d="M104.083 40.3281L96.7539 66.3261L93.2361 85.8246H89.8159L93.2361 40.3281H104.083Z" fill="#9E2DAD"/>
<path d="M107.405 40.3281C106.916 53.8271 107.112 61.1265 107.21 62.4264C107.307 63.7263 107.991 71.8257 112.389 86.2245H108.773C102.91 72.4256 100.858 64.2263 100.174 62.4264C99.4899 60.6265 97.5355 53.2271 94.604 40.3281H107.405Z" fill="#9E2DAD"/>
<path d="M104.278 40.3281C102.324 49.2274 99.0014 63.5263 94.3109 83.1248H89.2296C88.8387 63.0264 90.4999 49.8274 93.236 40.3281H104.278Z" fill="#C159D8"/>
<path d="M107.405 40.3281C106.916 53.8271 108.187 67.126 112.291 83.3248H106.819C100.956 69.7258 96.6561 56.5269 93.8223 40.3281H107.405Z" fill="#D16DEA"/>
<path d="M112.975 88.8245L112.78 85.5245C111.607 85.8245 110.141 85.7245 108.382 85.1245C106.526 86.5245 104.083 87.4245 101.249 87.9245C101.053 87.9245 100.858 88.2245 100.956 88.4245L101.249 89.4245H108.382H112.584L112.975 88.8245Z" fill="#600566"/>
<path d="M94.018 88.8245L93.8225 85.5245C92.6499 85.8245 91.1841 85.7245 89.4252 85.1245C87.5686 86.5245 85.1256 87.4245 82.2918 87.9245C82.0964 87.9245 81.9009 88.2245 81.9986 88.4245L82.2918 89.4245H89.4252H93.6271L94.018 88.8245Z" fill="#600566"/>
<path d="M100.076 9.73078C100.956 8.63087 101.64 7.23098 101.542 5.73109C101.249 1.33144 95.288 2.33135 94.1153 4.53118C92.9427 6.73101 93.0404 12.4306 94.6039 12.8305C95.1902 13.0305 96.4606 12.6306 97.8286 11.8306L97.0469 17.7302H101.835L100.076 9.73078Z" fill="#9E2DAD"/>
<path d="M98.5126 7.33134C98.708 7.23134 98.9034 7.13135 99.0989 7.13135C99.6852 7.13135 100.076 7.63135 100.076 8.13135C100.076 8.63135 99.7829 9.13135 99.4897 9.23135C99.6852 9.63135 99.8806 9.93135 100.076 9.93135C100.956 9.83135 102.128 7.63134 102.128 5.83134C102.128 3.83134 100.565 2.13135 97.7308 2.13135C95.1901 2.13135 94.1152 3.23135 94.1152 4.23135C95.1901 4.53135 97.1445 4.63135 99.9783 4.63135V4.83134L97.5354 5.03136L97.1445 6.23135C97.7308 6.33135 98.2194 6.73134 98.5126 7.33134Z" fill="#C159D8"/>
<path d="M82.0961 29.7299C80.728 28.7299 79.5554 28.1299 78.3828 27.7299C76.233 27.1299 75.3536 26.6299 74.2787 25.2299C73.6923 24.5299 73.2038 23.0299 73.7901 22.5299C74.1809 22.2299 76.3307 23.8299 77.1125 24.0299C77.9919 24.2299 77.2102 22.1299 77.6011 22.3299C78.1874 22.3299 78.676 23.2299 79.1646 24.8299L82.1938 26.5299L82.0961 29.7299Z" fill="#9E2DAD"/>
<path d="M93.236 27.4292C92.8451 27.5292 92.4543 27.6291 92.0634 27.6291C89.425 27.8291 85.4186 27.0292 80.1418 25.1293C78.5783 28.3291 77.8943 30.6289 78.0897 32.0288C83.3665 34.8286 87.8615 36.0285 91.4771 36.1285C91.3794 38.3283 91.6725 40.5281 92.552 42.428C94.4086 46.4277 105.158 42.728 108.871 43.4279C111.118 35.8285 106.721 32.8287 106.721 27.9291C106.721 22.6295 102.519 14.4302 101.933 14.4302H96.363C96.0698 18.5299 94.5063 23.0295 93.236 27.4292Z" fill="#77057A"/>
<path d="M135.157 73.3257H118.74L116.59 99.7236H141.118L135.157 73.3257Z" fill="#D16DEA"/>
<path d="M135.157 73.3257H130.173L127.144 99.7236H141.118L135.157 73.3257Z" fill="#D16DEA" fill-opacity="0.1"/>
<path d="M94.9946 99.8239C99.1965 94.7243 102.03 90.9246 103.496 88.4248C106.037 84.2251 108.089 80.4254 108.773 79.0255C110.336 75.6258 105.157 74.0259 103.985 75.6258C102.226 78.0256 98.4148 85.625 92.6494 98.524L94.9946 99.8239Z" fill="#9E2DAD"/>
<path d="M103.594 98.3241L111.411 78.6256C113.072 75.0259 104.962 72.7261 103.789 74.326C100.955 78.1257 94.4083 93.0245 93.5288 94.1244L103.594 98.3241Z" fill="#9E2DAD"/>
<path d="M124.427 94.3655C122.88 92.1854 117.372 84.671 114.272 81.5891C113.422 80.7556 112.495 79.8592 111.72 79.0887C109.319 76.7143 104.595 80.6186 106.98 82.8526C112.953 88.1882 121.557 95.4481 122.317 96.0781C123.381 96.9602 125.413 95.8237 124.427 94.3655Z" fill="#9E2DAD"/>
<path d="M124.06 93.3631C124.608 93.8024 124.984 94.1408 125.057 94.4143C125.216 94.7383 125.495 95.2494 125.763 95.9836C125.399 96.2281 121.912 98.1909 115.388 101.923C114.549 101.195 114.451 100.562 114.998 100.195C115.545 99.8284 116.006 99.4112 116.371 99.1667L119.929 94.2533C119.977 94.167 120.111 94.1311 120.196 94.1815L120.914 94.7216C121.618 94.6788 122.153 94.5351 122.469 94.377C122.785 94.2188 123.064 93.9239 123.356 93.4059C123.623 93.3341 123.89 93.2623 124.06 93.3631Z" fill="#600566"/>
<path d="M96.8513 99.0241C97.0468 99.6241 97.2422 100.124 97.2422 100.424C97.2422 100.824 97.1445 101.324 97.0468 102.124C96.5582 102.124 92.5517 102.124 85.0274 102.124C84.7343 101.124 84.9297 100.524 85.6137 100.424C86.2978 100.324 86.8841 100.224 87.2749 100.224L92.8449 97.7241C92.9426 97.7241 93.0403 97.7241 93.138 97.8241L93.5289 98.7241C94.1152 99.0241 94.7015 99.1241 95.0924 99.1241C95.3856 99.1241 95.8742 99.0241 96.3627 98.7241C96.4605 98.7241 96.7536 98.8241 96.8513 99.0241Z" fill="#600566"/>
<path d="M114.245 79.6253C120.792 78.5253 125.092 77.8254 127.339 77.4254C133.593 76.3255 135.45 72.9258 134.375 65.5264H122.747C121.183 65.9263 114.831 68.7261 103.496 73.7257C101.444 74.7256 101.835 77.7254 102.226 78.7253C102.226 78.7253 105.646 84.6249 112.486 96.324L121.965 90.3244L114.147 80.3252C114.05 79.9252 114.05 79.7253 114.245 79.6253Z" fill="#C159D8"/>
<path d="M130.857 39.2288C131.835 38.0289 132.519 36.629 132.421 35.1291C132.128 30.5295 125.776 31.5294 124.506 33.8292C123.235 36.129 123.431 41.9286 124.994 42.3285C125.678 42.5285 126.949 42.1286 128.414 41.2286L127.535 47.3281H132.616L130.857 39.2288Z" fill="#9E2DAD"/>
<path d="M124.017 34.8292C124.115 34.5292 124.213 34.2292 124.31 33.9292C124.408 33.5292 124.604 33.2292 124.897 32.9292C125.288 32.3292 125.776 31.8292 126.362 31.4292C127.34 30.6292 128.61 30.1292 129.783 30.3292C130.369 30.4292 130.955 30.6292 131.542 31.0292C132.03 31.4292 132.421 31.9292 133.007 31.9292C133.691 31.9292 134.278 31.4292 134.766 31.0292C135.353 30.6292 135.939 30.3292 136.623 30.2292C137.795 30.0292 138.87 30.4292 139.652 31.3292C140.532 32.3292 141.118 33.8292 140.532 35.1292C140.434 35.3292 140.336 35.6292 140.141 35.7292C139.945 35.9292 139.652 36.0292 139.652 36.3292C139.554 36.6292 139.848 36.9292 139.848 37.2292C139.945 37.5292 140.043 37.9292 140.043 38.3292C139.945 38.9292 139.554 39.5292 139.164 39.9292C138.773 40.3292 138.186 40.6292 137.698 40.7292C137.307 40.8292 136.916 40.8292 136.623 40.8292C136.427 40.8292 136.232 40.7292 136.134 40.7292C135.939 40.7292 135.841 40.7292 135.743 40.8292C135.059 41.2292 134.278 41.4292 133.496 41.4292C132.812 41.3292 132.03 41.2292 131.542 40.7292C130.955 40.2292 130.955 39.5292 131.053 38.7292C130.857 38.8292 130.467 38.8292 130.76 38.5292C130.857 38.4292 131.053 38.3292 131.151 38.3292C131.346 38.2292 131.444 38.1292 131.542 38.0292C132.03 37.5292 131.542 36.4292 130.955 36.2292C130.076 35.9292 129.88 37.2292 129.294 37.5292C128.903 37.7292 128.61 37.4292 128.317 37.2292C127.926 36.9292 127.73 36.4292 127.535 35.9292C127.34 35.5292 127.242 35.1292 127.046 34.8292C126.949 34.6292 126.656 34.1292 126.851 33.9292C126.265 33.8292 125.581 34.0292 124.994 34.4292C124.799 34.5292 124.604 34.7292 124.506 34.9292C124.506 35.0292 124.408 35.1292 124.31 35.1292C123.919 35.1292 124.017 34.9292 124.017 34.8292Z" fill="#600566"/>
<path d="M112.584 62.2268L106.818 57.8271C103.887 57.3272 102.617 56.8272 102.812 56.4273C103.105 55.8273 103.887 56.2273 104.18 55.9273C104.473 55.5273 103.789 54.5274 103.105 53.5275C102.421 52.5276 103.105 52.5276 103.398 52.7275C104.669 53.4275 105.939 54.4274 107.307 55.8273L115.027 59.227L112.584 62.2268ZM151.671 72.826C152.062 73.3259 154.7 74.8258 156.459 75.5258C157.143 75.8257 157.046 76.4257 156.85 76.6257C155.189 78.1256 153.625 77.0256 151.866 76.6257C149.912 76.1257 150.498 78.4255 148.935 78.1256C149.228 77.0256 149.814 75.0258 149.13 73.9259C148.837 73.4259 146.492 69.1263 142.095 60.9269L146.492 60.027C149.326 67.7264 151.085 72.026 151.671 72.826Z" fill="#9E2DAD"/>
<path d="M130.075 43.6281L128.219 43.3281C124.212 47.2278 122.551 56.5271 119.913 57.827C117.372 59.0269 113.756 57.827 109.555 56.3271L108.284 59.2269C112.193 63.4266 120.401 66.9263 123.724 64.9264C129 61.7267 130.271 50.2276 130.075 43.6281Z" fill="#600566"/>
<path d="M138.088 66.8275C130.662 66.8275 125.287 66.8275 121.77 66.8275C120.988 66.8275 121.183 65.7276 121.281 65.2276C122.551 58.9281 127.339 52.2286 127.339 43.3293L132.03 42.6294C136.036 48.7289 137.404 56.4283 138.088 66.8275Z" fill="#D16DEA"/>
<path d="M139.75 60.4278C143.072 66.4273 145.906 70.727 148.154 73.3268L151.574 72.6268C149.326 59.0279 142.974 48.9287 132.421 42.4292H132.323H130.467C126.265 56.8281 125.092 66.4273 126.949 71.127H141.606C141.509 67.7272 140.727 64.0275 139.75 60.4278Z" fill="#77057A"/>
<path d="M10.0776 56.627L17.8951 83.5249L21.5107 103.723H25.2239L21.5107 56.627H10.0776Z" fill="#D16DEA"/>
<path d="M6.56004 56.627C7.14635 70.6259 6.8532 78.2253 6.75548 79.4252C6.65776 80.7251 5.97374 89.2244 1.18555 104.023H4.99655C11.2505 89.7244 13.4003 81.225 14.1821 79.4252C14.8661 77.5253 17.0159 69.9259 20.1429 56.627H6.56004Z" fill="#D16DEA"/>
<path d="M9.88232 56.627C11.9344 65.8262 15.4523 80.6251 20.4359 100.923H25.8104C26.2013 80.1251 24.54 66.4262 21.6085 56.627H9.88232Z" fill="#9E2DAD"/>
<path d="M6.55992 56.627C7.04851 70.6259 5.68046 84.3248 1.38086 101.123H7.14623C13.4002 87.0246 17.8952 73.4256 20.9245 56.627H6.55992Z" fill="#C159D8"/>
<path d="M0.696777 106.924L0.892214 103.524C2.16255 103.924 3.72604 103.724 5.58268 103.124C7.63477 104.524 10.0777 105.524 13.2047 106.024C13.4001 106.024 13.5956 106.324 13.5956 106.524L13.3024 107.524H5.6804H1.18537L0.696777 106.924Z" fill="#77057A"/>
<path d="M20.729 106.924L20.9244 103.524C22.1948 103.924 23.7583 103.724 25.6149 103.124C27.667 104.524 30.11 105.524 33.2369 106.024C33.4324 106.024 33.6278 106.324 33.6278 106.524L33.3346 107.524H25.7126H21.2176L20.729 106.924Z" fill="#77057A"/>
<path d="M14.7682 25.2298C13.791 24.0299 13.107 22.63 13.2047 21.1301C13.4979 16.5304 19.8495 17.5304 21.1199 19.8302C22.3902 22.13 22.1948 27.9295 20.6313 28.3295C19.9473 28.5295 18.6769 28.1295 17.2112 27.2296L18.0906 33.3291H13.0093L14.7682 25.2298Z" fill="#D16DEA"/>
<path d="M11.055 19.6303C10.8596 19.4303 10.7618 19.2303 10.7618 19.0303C10.6641 18.8303 10.5664 18.5303 10.5664 18.3303C10.4687 17.8303 10.4687 17.3303 10.7618 16.9303C11.055 16.6303 11.4459 16.5303 11.8367 16.4303C12.1299 16.4303 12.3253 16.4303 12.6185 16.5303C12.8139 16.6303 13.1071 16.7303 13.3025 16.8303C13.3025 16.3303 13.4002 15.7303 13.6934 15.3303C13.9865 14.9303 14.3774 14.6303 14.7683 14.6303C15.2569 14.5303 15.7455 14.6303 16.1363 14.9303C16.234 15.0303 16.3318 15.0303 16.4295 15.1303C16.5272 15.2303 16.6249 15.2303 16.7226 15.2303C16.8204 15.2303 16.9181 15.2303 16.9181 15.1303C17.0158 15.0303 17.1135 14.9303 17.2112 14.9303C17.6998 14.6303 18.1884 14.4303 18.7747 14.6303C18.9702 14.7303 19.2633 14.8303 19.361 15.0303C19.4587 15.2303 19.5565 15.5303 19.7519 15.6303C19.8496 15.7303 19.8496 15.6303 19.9473 15.5303C20.0451 15.4303 20.1428 15.3303 20.2405 15.3303C20.4359 15.2303 20.5336 15.1303 20.7291 15.1303C21.0222 15.0303 21.4131 15.1303 21.4131 15.4303C21.4131 15.5303 21.4131 15.7303 21.4131 15.8303C21.4131 16.0303 21.4131 16.2303 21.4131 16.4303C21.4131 16.5303 21.4131 16.7303 21.3154 16.8303C21.3154 16.9303 21.2177 17.0303 21.3154 17.1303C21.3154 17.2303 21.5108 17.1303 21.6085 17.1303C21.804 17.1303 21.9017 17.1303 22.0971 17.2303C22.1949 17.3303 22.2926 17.3303 22.3903 17.5303C22.3903 17.6303 22.3903 17.7303 22.3903 17.7303C22.3903 17.8303 22.3903 17.8303 22.3903 17.9303C22.5857 17.8303 23.2698 17.6303 23.3675 17.9303C23.3675 18.0303 23.3675 18.2303 23.2698 18.3303C23.172 18.5303 23.0743 18.7303 22.9766 18.8303C22.6834 19.1303 22.3903 19.4303 22.0971 19.7303C22.488 19.9303 22.5857 20.4303 22.2926 20.7303C22.0971 20.8303 21.9017 20.9303 21.804 20.9303C21.7063 20.9303 21.6085 20.9303 21.6085 20.9303H21.5108C21.2177 20.9303 20.9245 20.9303 20.7291 20.8303C20.2405 20.7303 19.8496 20.5303 19.4587 20.1303C19.361 20.0303 19.2633 20.0303 19.1656 20.0303C19.0679 20.0303 18.9702 20.0303 18.8724 20.0303C18.5793 20.0303 18.2861 19.9303 18.0907 19.8303C18.0907 20.2303 17.993 20.5303 17.7975 20.9303C17.6998 21.2303 17.4067 21.2303 17.2112 21.2303C16.4295 21.3303 15.6477 21.2303 14.866 21.2303C15.6477 21.4303 16.4295 21.4303 17.1135 21.6303C17.4067 21.7303 17.2112 21.9303 17.0158 22.1303C16.8204 22.4303 16.6249 22.7303 16.4295 23.0303C16.0386 22.5303 15.4523 22.2303 14.866 22.4303C14.182 22.6303 13.7911 23.4303 14.182 24.0303C14.3774 24.4303 14.866 24.5303 15.1591 24.7303C14.866 25.0303 14.7683 25.4303 14.6706 25.8303C14.5728 26.0303 14.4751 26.2303 14.2797 26.2303C14.182 26.2303 14.0843 26.2303 14.0843 26.3303C13.9865 26.4303 13.9865 26.4303 13.8888 26.5303C13.5957 26.7303 13.0094 26.7303 12.7162 26.4303C12.423 26.1303 12.5208 25.7303 12.7162 25.4303C12.3253 25.2303 11.739 25.1303 11.8367 24.5303C11.055 24.4303 9.10062 23.2303 10.1755 22.2303C9.58921 21.9303 9.10062 21.1303 9.39378 20.4303C9.78465 19.8303 10.4687 19.6303 11.055 19.6303Z" fill="#9E2DAD"/>
<path d="M22.3901 35.129L30.2076 31.429C31.5756 30.029 32.846 28.929 34.1163 28.129C34.5072 28.029 35.1912 27.929 34.5072 29.029C33.8232 30.129 33.1391 31.229 33.4323 31.529C33.7254 31.929 34.5072 31.429 34.8981 32.029C35.0935 32.429 33.7254 32.929 30.7939 33.529L25.0285 38.229L22.3901 35.129Z" fill="#D16DEA"/>
<path d="M17.7974 34.8291C20.4358 34.8291 24.0513 34.2291 27.7646 31.8291L29.2304 35.1291C26.592 37.7291 22.9764 39.8291 19.7517 39.7291C17.3088 39.6291 16.0384 36.6291 17.7974 34.8291Z" fill="#600566"/>
<path d="M46.1358 28.1299C43.0088 27.23 39.8818 26.0301 36.7548 24.9302C36.364 24.8302 34.8005 24.0302 34.5073 24.1302C34.5073 24.1302 34.1165 25.9301 34.0187 26.43C33.7256 28.1299 34.0187 26.43 33.6279 28.1299C33.4324 29.3298 33.237 30.3297 33.0416 30.8297C33.0416 30.9297 32.9438 31.0297 32.9438 31.1297C32.9438 31.3296 32.9438 31.4297 33.0416 31.5296C33.3347 31.9296 34.0187 31.4297 34.4096 32.0296C34.605 32.3296 33.8233 32.7295 32.1621 33.1295C31.1849 35.3293 27.8625 39.829 27.5693 40.229C29.9146 41.5289 32.3575 42.8288 34.7028 44.0287C35.2891 44.3286 38.8069 46.4285 39.3932 46.2285C40.0773 46.0285 41.1522 44.0287 41.7385 42.8288C43.1065 40.129 44.2791 37.2292 45.0609 34.3294C45.354 33.5295 46.7221 28.3299 46.1358 28.1299Z" fill="#C159D8"/>
<path d="M35.4844 41.6286L38.8068 39.8286C39.2954 38.0286 39.8817 37.1286 40.468 37.1286C40.9566 36.9286 40.0771 39.1286 41.0543 38.9286C42.0315 38.7286 44.279 37.0286 44.7676 37.3286C45.3539 37.8286 44.8653 39.4286 44.1813 40.2286C43.0087 41.7286 42.0315 42.2286 39.6863 42.8286C38.4159 43.1286 37.1456 43.8286 35.6798 44.9286L35.4844 41.6286Z" fill="#D16DEA"/>
<path d="M22.879 42.5279C25.7128 43.2279 30.501 42.4279 37.1458 40.0281C38.8071 43.4279 39.5888 45.8277 39.3934 47.3275C33.7257 50.3273 28.7421 51.6272 24.7356 51.7272C24.8334 54.127 24.5402 56.4268 23.563 58.4267C21.5109 62.7263 9.78477 58.7267 5.77833 59.5266C3.33537 51.5272 8.12356 48.2275 8.12356 43.0279C8.12356 37.4283 12.6186 28.729 13.3026 28.729H19.3611C19.8497 33.1287 21.5109 37.8283 22.879 42.5279Z" fill="#77057A"/>
<path d="M84.3437 61.627C83.9528 61.627 83.6597 62.2269 83.6597 63.0269C83.6597 63.1268 83.6597 63.2268 83.6597 63.3268C83.6597 63.6268 83.6597 63.9268 83.6597 64.2268C83.6597 64.7267 83.6597 65.1267 83.6597 65.6266C83.6597 66.2266 83.6597 66.8266 83.6597 67.4265C83.6597 68.1264 83.6597 68.8264 83.6597 69.5263C83.6597 70.3263 83.6597 71.1262 83.6597 71.9262C83.6597 72.8261 83.6597 73.626 83.6597 74.526C83.6597 75.4259 83.6597 76.3258 83.6597 77.2257C83.6597 78.1257 83.6597 79.0256 83.6597 79.9255C83.6597 80.8255 83.6597 81.7254 83.6597 82.6253C83.6597 83.5252 83.6597 84.3252 83.6597 85.2251C83.6597 86.0251 83.6597 86.825 83.6597 87.6249C83.6597 88.3249 83.6597 89.0248 83.6597 89.7248C83.6597 90.3247 83.6597 90.9247 83.6597 91.5246C83.6597 92.0246 83.6597 92.4245 83.6597 92.9245C83.6597 93.2245 83.6597 93.5245 83.6597 93.8244C83.6597 94.0244 83.6597 94.2244 83.6597 94.4244C83.6597 94.6244 83.7574 94.7244 83.8551 94.7244C83.9528 94.8244 84.1483 94.8244 84.246 94.8244C84.3437 94.8244 84.5391 94.8244 84.6368 94.7244C84.7346 94.7244 84.8323 94.6244 84.93 94.4244V94.3244C84.93 94.1244 84.93 93.9244 84.93 93.7244C84.93 93.4245 84.93 93.1245 84.93 92.8245C84.93 92.4245 84.93 91.9246 84.93 91.5246C84.93 90.9247 84.93 90.4247 84.93 89.8247C84.93 89.1248 84.93 88.4249 84.93 87.8249C84.93 87.025 84.93 86.325 84.93 85.5251C84.93 84.7252 84.93 83.8252 84.93 83.0253C84.93 82.1254 84.93 81.3254 84.93 80.4255C84.93 79.5256 84.93 78.6256 84.93 77.8257C84.93 76.9258 84.93 76.1258 84.93 75.2259C84.93 74.426 84.93 73.526 84.93 72.7261C84.93 71.9262 84.93 71.1262 84.93 70.3263C84.93 69.6263 84.93 68.9264 84.93 68.1264C84.93 67.5265 84.93 66.9265 84.93 66.2266C84.93 65.7266 84.93 65.2267 84.93 64.7267C84.93 64.3267 84.93 64.0268 84.93 63.6268C84.93 63.4268 84.93 63.2268 84.93 63.0269V62.9269C84.93 62.2269 84.6368 61.627 84.3437 61.627Z" fill="#C159D8"/>
<path d="M53.5625 62.5269C53.0739 62.5269 52.7808 63.1268 52.7808 63.9267C52.7808 64.0267 52.7808 64.1267 52.7808 64.2267C52.7808 64.5267 52.7808 64.8267 52.7808 65.1266C52.7808 65.5266 52.7808 66.0266 52.7808 66.4265C52.7808 67.0265 52.7808 67.6264 52.7808 68.1264C52.7808 68.8264 52.7808 69.5263 52.7808 70.2263C52.7808 71.0262 52.7808 71.8261 52.7808 72.5261C52.7808 73.326 52.7808 74.2259 52.7808 75.0259C52.7808 75.9258 52.7808 76.8257 52.7808 77.6257C52.7808 78.5256 52.7808 79.4255 52.7808 80.3255C52.7808 81.2254 52.7808 82.1253 52.7808 82.9253C52.7808 83.7252 52.7808 84.6251 52.7808 85.4251C52.7808 86.225 52.7808 87.0249 52.7808 87.7249C52.7808 88.4248 52.7808 89.1248 52.7808 89.8247C52.7808 90.4247 52.7808 91.0246 52.7808 91.6246C52.7808 92.1245 52.7808 92.5245 52.7808 93.0245C52.7808 93.3244 52.7808 93.6244 52.7808 93.9244C52.7808 94.1244 52.7808 94.3244 52.7808 94.4244C52.7808 94.6243 52.9762 94.7243 53.0739 94.7243C53.2694 94.8243 53.4648 94.8243 53.5625 94.8243C53.7579 94.8243 53.8557 94.8243 54.0511 94.7243C54.1488 94.7243 54.3442 94.6243 54.3442 94.4244V94.3244C54.3442 94.1244 54.3442 93.9244 54.3442 93.7244C54.3442 93.4244 54.3442 93.1245 54.3442 92.8245C54.3442 92.4245 54.3442 91.9246 54.3442 91.5246C54.3442 90.9246 54.3442 90.4247 54.3442 89.8247C54.3442 89.1248 54.3442 88.5248 54.3442 87.8249C54.3442 87.1249 54.3442 86.325 54.3442 85.625C54.3442 84.8251 54.3442 84.0252 54.3442 83.2252C54.3442 82.4253 54.3442 81.5254 54.3442 80.7254C54.3442 79.8255 54.3442 79.0256 54.3442 78.1256C54.3442 77.2257 54.3442 76.4258 54.3442 75.5258C54.3442 74.7259 54.3442 73.826 54.3442 73.026C54.3442 72.2261 54.3442 71.4262 54.3442 70.7262C54.3442 70.0263 54.3442 69.3263 54.3442 68.6264C54.3442 68.0264 54.3442 67.4265 54.3442 66.8265C54.3442 66.3265 54.3442 65.8266 54.3442 65.3266C54.3442 64.9267 54.3442 64.6267 54.3442 64.2267C54.3442 64.0267 54.3442 63.8267 54.3442 63.6268V63.5268C54.3442 63.1268 53.9534 62.5269 53.5625 62.5269Z" fill="#C159D8"/>
<path d="M43.4976 71.3257C43.009 71.3257 42.7158 72.1256 42.7158 73.1255C42.7158 73.2255 42.7158 73.4255 42.7158 73.5255C42.7158 73.9255 42.7158 74.2255 42.7158 74.6254C42.7158 75.2254 42.7158 75.7253 42.7158 76.3253C42.7158 77.0252 42.7158 77.8252 42.7158 78.5251C42.7158 79.4251 42.7158 80.325 42.7158 81.2249C42.7158 82.2248 42.7158 83.2248 42.7158 84.2247C42.7158 85.3246 42.7158 86.4245 42.7158 87.4244C42.7158 88.5243 42.7158 89.7242 42.7158 90.8242C42.7158 91.9241 42.7158 93.124 42.7158 94.2239C42.7158 95.3238 42.7158 96.5237 42.7158 97.6236C42.7158 98.7236 42.7158 99.8235 42.7158 100.823C42.7158 101.823 42.7158 102.823 42.7158 103.823C42.7158 104.723 42.7158 105.623 42.7158 106.523C42.7158 107.323 42.7158 108.023 42.7158 108.823C42.7158 109.423 42.7158 110.023 42.7158 110.523C42.7158 110.923 42.7158 111.223 42.7158 111.623C42.7158 111.823 42.7158 112.123 42.7158 112.322C42.7158 112.622 42.9113 112.722 43.009 112.722C43.2044 112.822 43.3999 112.822 43.4976 112.822C43.693 112.822 43.7907 112.822 43.9862 112.722C44.0839 112.722 44.2793 112.622 44.2793 112.422V112.322C44.2793 112.123 44.2793 111.823 44.2793 111.623C44.2793 111.223 44.2793 110.923 44.2793 110.523C44.2793 109.923 44.2793 109.423 44.2793 108.823C44.2793 108.123 44.2793 107.423 44.2793 106.623C44.2793 105.723 44.2793 104.923 44.2793 104.023C44.2793 103.023 44.2793 102.123 44.2793 101.123C44.2793 100.123 44.2793 99.0235 44.2793 98.0236C44.2793 96.9237 44.2793 95.8238 44.2793 94.8239C44.2793 93.7239 44.2793 92.624 44.2793 91.5241C44.2793 90.4242 44.2793 89.3243 44.2793 88.2244C44.2793 87.1245 44.2793 86.1245 44.2793 85.0246C44.2793 84.0247 44.2793 83.0248 44.2793 82.0249C44.2793 81.1249 44.2793 80.225 44.2793 79.3251C44.2793 78.5251 44.2793 77.7252 44.2793 77.0253C44.2793 76.4253 44.2793 75.7253 44.2793 75.1254C44.2793 74.7254 44.2793 74.2255 44.2793 73.8255C44.2793 73.6255 44.2793 73.3255 44.2793 73.1255V73.0256C44.2793 72.1256 43.8884 71.3257 43.4976 71.3257Z" fill="#C159D8"/>
<path d="M100.272 72.5254C99.7834 72.5254 99.4902 73.3253 99.4902 74.3252C99.4902 74.4252 99.4902 74.6252 99.4902 74.7252C99.4902 75.1252 99.4902 75.4252 99.4902 75.8251C99.4902 76.4251 99.4902 76.925 99.4902 77.525C99.4902 78.2249 99.4902 79.0249 99.4902 79.7248C99.4902 80.6248 99.4902 81.5247 99.4902 82.4246C99.4902 83.4245 99.4902 84.4245 99.4902 85.4244C99.4902 86.5243 99.4902 87.6242 99.4902 88.6241C99.4902 89.724 99.4902 90.924 99.4902 92.0239C99.4902 93.1238 99.4902 94.3237 99.4902 95.4236C99.4902 96.5235 99.4902 97.7234 99.4902 98.8233C99.4902 99.9232 99.4902 101.023 99.4902 102.023C99.4902 103.023 99.4902 104.023 99.4902 105.023C99.4902 105.923 99.4902 106.823 99.4902 107.723C99.4902 108.523 99.4902 109.223 99.4902 110.022C99.4902 110.622 99.4902 111.222 99.4902 111.722C99.4902 112.122 99.4902 112.422 99.4902 112.822C99.4902 113.022 99.4902 113.322 99.4902 113.522C99.4902 113.822 99.6857 113.922 99.7834 113.922C99.9788 114.022 100.174 114.022 100.272 114.022C100.467 114.022 100.565 114.022 100.761 113.922C100.858 113.922 101.054 113.822 101.054 113.622V113.522C101.054 113.322 101.054 113.022 101.054 112.822C101.054 112.422 101.054 112.122 101.054 111.722C101.054 111.122 101.054 110.622 101.054 110.022C101.054 109.323 101.054 108.623 101.054 107.823C101.054 106.923 101.054 106.123 101.054 105.223C101.054 104.223 101.054 103.323 101.054 102.323C101.054 101.323 101.054 100.223 101.054 99.2233C101.054 98.1234 101.054 97.0235 101.054 96.0236C101.054 94.9236 101.054 93.8237 101.054 92.7238C101.054 91.6239 101.054 90.524 101.054 89.4241C101.054 88.3242 101.054 87.3242 101.054 86.2243C101.054 85.2244 101.054 84.2245 101.054 83.2246C101.054 82.3246 101.054 81.4247 101.054 80.5248C101.054 79.7248 101.054 78.9249 101.054 78.2249C101.054 77.625 101.054 76.925 101.054 76.3251C101.054 75.9251 101.054 75.4252 101.054 75.0252C101.054 74.8252 101.054 74.5252 101.054 74.3252V74.2253C101.151 73.3253 100.761 72.5254 100.272 72.5254Z" fill="#C159D8"/>
<path d="M38.9048 73.3257L52.2922 60.3267H91.4772L104.865 73.3257H38.9048Z" fill="#D16DEA"/>
<path d="M104.767 73.3252H38.9048V74.9252H104.767V73.3252Z" fill="#9E2DAD"/>
<path d="M59.9143 63.0269C58.8394 63.5269 47.9927 65.8268 47.9927 65.8268C47.9927 65.8268 53.758 69.7268 54.7352 70.3268C55.7124 70.9268 67.2432 67.4268 67.2432 67.4268L59.9143 63.0269Z" fill="#C159D8"/>
<path d="M64.2136 63.9268C63.1387 64.4268 52.292 66.7268 52.292 66.7268C52.292 66.7268 58.0574 70.6268 59.0345 71.2268C60.0117 71.8268 71.5425 68.3268 71.5425 68.3268L64.2136 63.9268Z" fill="#9E2DAD"/>
<path d="M76.8197 61.8268L82.7805 69.7268L77.1128 65.0268L70.8589 56.9268L76.8197 61.8268Z" fill="#9E2DAD"/>
<path d="M76.8193 61.8267L84.4413 61.9267L91.5748 70.0267L82.7801 69.7267L76.8193 61.8267Z" fill="#C159D8"/>
<path d="M70.8587 56.9268L77.1127 65.0261L82.7803 69.7258L91.575 70.0257L91.4772 70.6257L82.3895 70.3257L76.6241 65.6261L70.3701 57.3267L70.8587 56.9268Z" fill="#600566"/>
<path d="M77.7969 62.3267H78.2855L78.6763 62.8267H78.1877L77.7969 62.3267Z" fill="#D16DEA"/>
<path d="M79.5557 62.8267H78.9694L78.6763 62.3267H79.0671L79.5557 62.8267Z" fill="#D16DEA"/>
<path d="M80.4352 62.8267H79.8489L79.458 62.3267H79.9466L80.4352 62.8267Z" fill="#D16DEA"/>
<path d="M81.2169 62.8267H80.7283L80.3374 62.3267H80.826L81.2169 62.8267Z" fill="#D16DEA"/>
<path d="M82.0963 62.8267H81.51L81.1191 62.3267H81.6077L82.0963 62.8267Z" fill="#D16DEA"/>
<path d="M82.9757 62.8267H82.3894L81.9985 62.3267H82.4871L82.9757 62.8267Z" fill="#D16DEA"/>
<path d="M78.3833 63.0269H78.8719L79.2628 63.5269H78.7742L78.3833 63.0269Z" fill="#D16DEA"/>
<path d="M79.165 63.0269H79.6536L80.1422 63.5269H79.5559L79.165 63.0269Z" fill="#D16DEA"/>
<path d="M80.0444 63.0269H80.533L81.0216 63.5269H80.4353L80.0444 63.0269Z" fill="#D16DEA"/>
<path d="M80.9238 63.0269H81.4124L81.901 63.5269H81.3147L80.9238 63.0269Z" fill="#D16DEA"/>
<path d="M81.7056 63.0269H82.1942L82.6827 63.5269H82.0964L81.7056 63.0269Z" fill="#D16DEA"/>
<path d="M82.585 63.0269H83.0736L83.5621 63.5269H82.9758L82.585 63.0269Z" fill="#D16DEA"/>
<path d="M78.9697 63.7266H79.4583L79.8492 64.2266H79.2629L78.9697 63.7266Z" fill="#D16DEA"/>
<path d="M79.7515 63.8267H80.2401L80.7286 64.3267L80.1423 64.2267L79.7515 63.8267Z" fill="#D16DEA"/>
<path d="M80.6309 63.8267H81.1194L81.608 64.3267L81.0217 64.2267L80.6309 63.8267Z" fill="#D16DEA"/>
<path d="M81.5103 63.8267H81.9988L82.4874 64.3267H81.9011L81.5103 63.8267Z" fill="#D16DEA"/>
<path d="M82.3896 63.8267H82.8782L83.3668 64.3267H82.7805L82.3896 63.8267Z" fill="#D16DEA"/>
<path d="M83.269 63.8267H83.7576L84.1485 64.3267H83.6599L83.269 63.8267Z" fill="#D16DEA"/>
<path d="M79.5557 64.5269H79.9465L80.4351 65.0269H79.8488L79.5557 64.5269Z" fill="#D16DEA"/>
<path d="M80.3374 64.5269H80.826L81.3146 65.0269H80.7283L80.3374 64.5269Z" fill="#D16DEA"/>
<path d="M81.2168 64.5269H81.7054L82.194 65.0269H81.6077L81.2168 64.5269Z" fill="#D16DEA"/>
<path d="M82.0967 64.5269H82.5853L83.0739 65.0269H82.4876L82.0967 64.5269Z" fill="#D16DEA"/>
<path d="M82.9761 64.5269H83.4647L83.9533 65.0269H83.3669L82.9761 64.5269Z" fill="#D16DEA"/>
<path d="M83.8555 64.5269H84.3441L84.8326 65.0269H84.2463L83.8555 64.5269Z" fill="#D16DEA"/>
<path d="M80.0444 65.2266H80.533L81.0216 65.7266H80.4353L80.0444 65.2266Z" fill="#D16DEA"/>
<path d="M81.4124 65.2266L81.901 65.7266H81.3147L80.9238 65.2266H81.4124Z" fill="#D16DEA"/>
<path d="M82.2918 65.2266L82.7804 65.7266H82.1941L81.8032 65.2266H82.2918Z" fill="#D16DEA"/>
<path d="M83.1712 65.3267L83.6598 65.8267L83.0735 65.7267L82.6826 65.3267H83.1712Z" fill="#D16DEA"/>
<path d="M84.0506 65.3267L84.5392 65.8267H83.9529L83.562 65.3267H84.0506Z" fill="#D16DEA"/>
<path d="M84.9305 65.3267L85.4191 65.8267H84.8328L84.4419 65.3267H84.9305Z" fill="#D16DEA"/>
<path d="M81.2168 66.7266H81.7054L82.194 67.2266H81.6077L81.2168 66.7266Z" fill="#D16DEA"/>
<path d="M82.0967 66.7266H82.5853L83.0739 67.2266H82.4876L82.0967 66.7266Z" fill="#D16DEA"/>
<path d="M83.0737 66.7266H83.4646L83.9532 67.2266H83.3669L83.0737 66.7266Z" fill="#D16DEA"/>
<path d="M83.9531 66.7266H84.4417L84.8326 67.2266H84.344L83.9531 66.7266Z" fill="#D16DEA"/>
<path d="M84.8325 66.8267H85.3211L85.8097 67.3267L85.2234 67.2267L84.8325 66.8267Z" fill="#D16DEA"/>
<path d="M85.7119 66.8267H86.2005L86.6891 67.3267H86.1028L85.7119 66.8267Z" fill="#D16DEA"/>
<path d="M80.7285 66.0269H81.1194L81.608 66.5269L81.0217 66.4268L80.7285 66.0269Z" fill="#D16DEA"/>
<path d="M81.6079 66.0269H82.0965L82.4874 66.5269H81.9988L81.6079 66.0269Z" fill="#D16DEA"/>
<path d="M82.4873 66.0269H82.9759L83.4645 66.5269H82.8782L82.4873 66.0269Z" fill="#D16DEA"/>
<path d="M83.3667 66.0269H83.8553L84.3439 66.5269H83.7576L83.3667 66.0269Z" fill="#D16DEA"/>
<path d="M84.2461 66.0269H84.7347L85.2233 66.5269H84.637L84.2461 66.0269Z" fill="#D16DEA"/>
<path d="M85.2236 66.0269H85.7122L86.2008 66.5269H85.6145L85.2236 66.0269Z" fill="#D16DEA"/>
<path d="M81.8032 67.4268H82.2918L82.7804 67.9268H82.1941L81.8032 67.4268Z" fill="#D16DEA"/>
<path d="M82.6826 67.5269H83.1712L83.6598 68.0269L83.0735 67.9268L82.6826 67.5269Z" fill="#D16DEA"/>
<path d="M83.6602 67.5269H84.1487L84.5396 68.0269H84.051L83.6602 67.5269Z" fill="#D16DEA"/>
<path d="M84.5396 67.5269H85.0281L85.5167 68.0269H84.9304L84.5396 67.5269Z" fill="#D16DEA"/>
<path d="M85.4189 67.5269H85.9075L86.3961 68.0269H85.8098L85.4189 67.5269Z" fill="#D16DEA"/>
<path d="M86.2983 67.5269H86.7869L87.2755 68.0269H86.6892L86.2983 67.5269Z" fill="#D16DEA"/>
<path d="M82.4873 68.2266H82.8782L83.3668 68.7266H82.7805L82.4873 68.2266Z" fill="#D16DEA"/>
<path d="M83.3667 68.2266H83.8553L84.2462 68.7266H83.7576L83.3667 68.2266Z" fill="#D16DEA"/>
<path d="M84.2461 68.2266H84.7347L85.2233 68.7266H84.637L84.2461 68.2266Z" fill="#D16DEA"/>
<path d="M85.126 68.2266H85.6146L86.1032 68.7266H85.5169L85.126 68.2266Z" fill="#D16DEA"/>
<path d="M86.0054 68.3266L86.494 68.2266L86.9826 68.7266H86.3962L86.0054 68.3266Z" fill="#D16DEA"/>
<path d="M86.9824 68.3267H87.471L87.8619 68.8267H87.3733L86.9824 68.3267Z" fill="#D16DEA"/>
<path d="M83.0737 68.9268H83.5623L83.9532 69.4268H83.3669L83.0737 68.9268Z" fill="#D16DEA"/>
<path d="M83.9531 68.9268H84.4417L84.8326 69.4268H84.344L83.9531 68.9268Z" fill="#D16DEA"/>
<path d="M84.8325 69.0269H85.3211L85.8097 69.5269L85.2234 69.4268L84.8325 69.0269Z" fill="#D16DEA"/>
<path d="M85.7119 69.0269H86.2005L86.6891 69.5269H86.1028L85.7119 69.0269Z" fill="#D16DEA"/>
<path d="M86.5913 69.0269H87.0799L87.5685 69.5269H86.9822L86.5913 69.0269Z" fill="#D16DEA"/>
<path d="M87.5688 69.0269H88.0574L88.546 69.5269H87.9597L87.5688 69.0269Z" fill="#D16DEA"/>
<path d="M84.7349 64.5269L87.0801 67.2269H88.6436L86.2006 64.5269H84.7349Z" fill="#D16DEA"/>
</svg>
