<svg fill="none" height="80" viewBox="0 0 80 80" width="80" xmlns="http://www.w3.org/2000/svg"><path clip-rule="evenodd" d="m70 69.0002c-.5514 0-1-.4486-1-1s.4486-1 1-1 1 .4486 1 1-.4486 1-1 1z" fill="#cacafb" fill-rule="evenodd"/><path clip-rule="evenodd" d="m68 13.0002c-.5514 0-1-.4486-1-1s.4486-1 1-1 1 .4486 1 1-.4486 1-1 1z" fill="#cacafb" fill-rule="evenodd"/><path clip-rule="evenodd" d="m14 69.0002c-.5514 0-1-.4486-1-1s.4486-1 1-1 1 .4486 1 1-.4486 1-1 1z" fill="#cacafb" fill-rule="evenodd"/><g fill="#e1000f"><path clip-rule="evenodd" d="m19.3966 12.0065c.199-.0042.4002-.0063.6034-.0063l.3032.0016c.1006.001.2007.0026.3002.0047l.5903.0187.5757.0313c.284.0187.562.0421.8332.0701l.5329.0624c2.8785.377 4.8645 1.3178 4.8645 2.8112v6c0 .5523-.4477 1-1 1-.5128 0-.9355-.386-.9933-.8833l-.0067-.1167v-3.8739c-.7811.3115-1.7567.5401-2.8645.6852l-.5329.0624c-.2712.028-.5492.0514-.8332.0701l-.5757.0313-.5903.0187c-.199.0042-.4002.0062-.6034.0062s-.4044-.002-.6034-.0062l-.5903-.0187-.5757-.0313c-.284-.0187-.562-.0421-.8332-.0701l-.5329-.0624c-2.8785-.377-4.8645-1.3178-4.8645-2.8113 0-1.4934 1.986-2.4342 4.8645-2.8112l.5329-.0624c.2712-.028.5492-.0514.8332-.0701l.5757-.0313zm6.6034 2.9937-.0218-.0139c-.2271-.1287-.5475-.259-.9445-.3794l-.2049-.0593c-1.2477-.3452-2.9752-.5474-4.8283-.5474s-3.5806.2022-4.8283.5474c-.4221.1167-.7704.2453-1.0281.3742l-.1441.0784.1702.0913c.2109.1031.4795.2058.7972.3021l.2048.0593c1.2477.3452 2.9752.5473 4.8283.5473s3.5806-.2021 4.8283-.5473c.4221-.1167.7704-.2453 1.0281-.3742z" fill-rule="evenodd"/><path d="m59.7317 49.8042c-1.0594-1.1447-2.509-1.804-4.0566-1.804-2.4749 0-4.5737 1.6723-5.352 4h-1.3231l-.1166.0068c-.4974.0577-.8834.4804-.8834.9932 0 .5523.4477 1 1 1h1c0 .3407.0269.6747.0785 1h-1.0785l-.1166.0068c-.4974.0577-.8834.4804-.8834.9932 0 .5523.4477 1 1 1h1.7594c.9802 1.7919 2.8121 3 4.9157 3 1.4119 0 2.7448-.5483 3.7761-1.5208.3948-.3722.4228-1.0047.0626-1.4127-.3603-.408-.9724-.4369-1.3672-.0647-.6793.6405-1.5487.9982-2.4715.9982-.9467 0-1.8133-.3771-2.4734-1h1.7983l.1166-.0067c.4974-.0577.8834-.4804.8834-.9933 0-.5522-.4477-1-1-1h-2.9468c-.0768-.3194-.1177-.6544-.1177-1h3.0645l.1166-.0067c.4974-.0577.8834-.4804.8834-.9933 0-.5522-.4477-1-1-1h-2.5644c.6476-1.1971 1.8583-2 3.2395-2 1.0116 0 1.9584.4306 2.6578 1.1863.3694.3991.9819.4132 1.3682.0315s.4-1.0147.0306-1.4138z"/><path d="m13 20.0002c.5128 0 .9355.351.9933.8031l.0067.106v18.1819c0 .502-.4477.909-1 .909-.5128 0-.9355-.3509-.9933-.803l-.0067-.106v-18.1819c0-.502.4477-.9091 1-.9091z"/><path d="m13 44.0002c.5523 0 1-.4477 1-1 0-.5522-.4477-1-1-1s-1 .4478-1 1c0 .5523.4477 1 1 1z"/><path clip-rule="evenodd" d="m60 28.0002c-.2032 0-.4044.0021-.6034.0063l-.5903.0187-.5757.0312c-.284.0188-.562.0422-.8332.0702l-.5329.0624c-2.8785.377-4.8645 1.3178-4.8645 2.8112 0 1.4935 1.986 2.4343 4.8645 2.8113l.5329.0624c.2712.028.5492.0514.8332.0701l.5757.0313.5903.0187c.199.0042.4002.0062.6034.0062s.4044-.002.6034-.0062l.5903-.0187.5757-.0313c.284-.0187.562-.0421.8332-.0701l.5329-.0624c1.1078-.1451 2.0834-.3737 2.8645-.6852v3.8739l.0067.1167c.0578.4973.4805.8833.9933.8833.5523 0 1-.4477 1-1v-6c0-1.4934-1.986-2.4342-4.8645-2.8112l-.5329-.0624c-.2712-.028-.5492-.0514-.8332-.0702l-.5757-.0312-.5903-.0187c-.0995-.0021-.1996-.0037-.3002-.0047zm5.8569 3.0785.1431-.0785-.0218-.0139c-.2271-.1287-.5475-.259-.9445-.3794l-.2049-.0593c-1.2477-.3452-2.9752-.5474-4.8283-.5474s-3.5806.2022-4.8283.5474c-.4221.1167-.7704.2453-1.0281.3742l-.1441.0784.1702.0913c.2109.1031.4795.2058.7972.3021l.2048.0593c1.2477.3452 2.9752.5473 4.8283.5473s3.5806-.2021 4.8283-.5473c.4221-.1167.7704-.2453 1.0281-.3742z" fill-rule="evenodd"/><path d="m53.9933 34.8836c-.0578-.4973-.4805-.8834-.9933-.8834-.5523 0-1 .4478-1 1v4l.0067.1167c.0578.4973.4805.8833.9933.8833.5523 0 1-.4477 1-1v-4z"/></g><path clip-rule="evenodd" d="m36.662 22.0002-.668.0121c-.1104.003-.2203.0065-.3297.0104l-.6501.0299-.6367.0415c-.3148.0237-.6242.0517-.9275.084l-.5984.0703c-.0983.0126-.1959.0257-.2928.0393l-.572.0872c-3.564.5873-5.9868 1.8423-5.9868 3.6246v4.5724l.0049.1482c.0024.0363.0057.0724.0098.1084-.0097.0558-.0147.1132-.0147.1718v4.5716l.0049.1482c.0024.0363.0057.0724.0098.1084-.0097.0558-.0147.1132-.0147.1718v4.5716l.0049.1482c.0024.0361.0056.0721.0097.1078-.0096.0557-.0146.113-.0146.1715v4.5716l.0049.1482c.0092.1402.0316.2775.0666.4119-.1484-.0133-.2981-.0257-.449-.037l-.6367-.0415-.6501-.0299c-.1094-.0039-.2193-.0074-.3297-.0104l-.668-.0121h-.676l-.668.0121c-.1104.003-.2203.0065-.3297.0104l-.6501.0299-.6367.0415c-.3148.0237-.6242.0517-.9275.084l-.5984.0703c-.0983.0126-.1959.0257-.2928.0393l-.572.0872c-3.564.5873-5.9868 1.8423-5.9868 3.6246v4.5718l.0049.1482c.0024.0364.0057.0725.0098.1085-.0097.0558-.0147.1133-.0147.1719v4.5716l.0049.1482c.1296 1.9624 2.8331 3.3662 6.6463 3.9622l.5801.0833c.196.0258.3946.0494.5956.071l.6101.0586c.8227.0696 1.6809.1054 2.563.1054s1.7403-.0358 2.563-.1054l.6101-.0586c.201-.0216.3996-.0452.5956-.071l.5801-.0833c3.7378-.5842 6.4094-1.9446 6.6356-3.8465.9539.1088 1.9499.1648 2.9655.1648 2.4902 0 5.5408-.3183 7.2341-.7963 1.9383 4.0214 6.0531 6.7963 10.816 6.7963 6.6274 0 12-5.3727 12-12.0004 0-6.6276-5.3726-12.0004-12-12.0004-2.6124 0-5.0298.8348-7 2.2522v-3.2522l-.0067-.1166c-.0011-.0093-.0023-.0186-.0037-.0278-.0013-.0091-.0027-.0181-.0042-.0271.0097-.0843.0146-.1696.0146-.256v-4.5716l-.0067-.1166c-.0022-.0186-.0048-.037-.008-.0552.0098-.0845.0147-.17.0147-.2566v-4.5716l-.0067-.1166c-.0022-.0186-.0048-.037-.008-.0552.0098-.0845.0147-.17.0147-.2566v-4.5716c0-1.7354-2.297-2.9717-5.7078-3.5777l-.5627-.0927c-.1907-.029-.3845-.0562-.5811-.0815l-.5984-.0703c-.3033-.0323-.6127-.0603-.9275-.084l-.6367-.0415-.6501-.0299c-.1094-.0039-.2193-.0074-.3297-.0104l-.668-.0121zm7.3981 27.0608c-.8126.258-1.7248.4663-2.7113.6204l-.5801.0834c-.196.0257-.3946.0494-.5956.071l-.6101.0585c-.8227.0696-1.6809.1054-2.563.1054s-1.7403-.0358-2.563-.1054l-.4426-.0425c.0037.0488.0056.0981.0056.1477v2.5937c.9538.1187 1.96.1803 2.99.1803 2.0354 0 4.4611-.2336 6.147-.5928.1666-1.0956.4813-2.1425.9231-3.1197zm-1.0511 5.4068c-1.774.3303-4.0585.5324-6.019.5324-1.0292 0-2.0384-.0575-3.0042-.1691l.0031.0193.0027.0193.0017.0135.0067.1167v2.6055c.9418.1156 1.9342.1755 2.9499.1755 2.2012 0 4.898-.2682 6.4616-.6538-.2295-.8526-.3674-1.7428-.4025-2.6593zm-15.009-23.8959v-2.1261c.9631.4878 2.2311.8682 3.7078 1.1305l.5627.0928c.1907.029.3845.0562.5811.0815l.5984.0703c.3033.0323.6127.0603.9275.084l.6367.0415.6501.0298c.1094.004.2193.0075.3297.0105l.668.012c.1122.001.2249.0015.338.0015l.338-.0015.668-.012c.1104-.003.2203-.0065.3297-.0105l.6501-.0298.6367-.0415c.3148-.0237.6242-.0517.9275-.084l.5984-.0703c.0983-.0126.1959-.0258.2928-.0394l.572-.0871c1.5962-.263 2.9635-.66 3.9868-1.1783v2.1261l-.007.0611c-.0792.3591-.8317.9323-2.2463 1.4173-1.7513.6005-4.1627.9502-6.7467.9502s-4.9954-.3497-6.7467-.9502c-1.4978-.5135-2.2533-1.1259-2.2533-1.4784zm.7727-3.8997c-.4963-.234-.7727-.4677-.7727-.6716s.2764-.4375.7727-.6715l.2662-.1169c.0947-.0389.1952-.0777.3013-.1162l.3347-.1145c.117-.0379.2394-.0753.3668-.1122l.397-.109c.0686-.0178.1385-.0355.2094-.053l.4397-.1026c.1511-.0334.3065-.0659.4661-.0974l.491-.0913.5142-.0844c.0876-.0134.1761-.0266.2654-.0394l.5463-.0725.5656-.0637.5834-.0539c.1973-.0162.3972-.0307.5996-.0433l.6143-.032.6274-.0198c.1056-.0022.2116-.0039.3181-.005l.3208-.0018c.2147 0 .4278.0023.6389.0068l.6274.0198.6143.032c.2024.0126.4023.0271.5996.0433l.5834.0539.5656.0637.5463.0725.5253.0807c.0857.0141.1705.0285.2543.0431l.491.0913c.0798.0158.1585.0318.2362.048l.4531.1001c.1466.0342.2886.0692.4259.1049l.397.109c.0637.0185.1262.037.1873.0557l.3509.1135c.1675.0573.3226.1153.4646.1737l.2662.1169c.4963.234.7727.4676.7727.6715s-.2764.4376-.7727.6716l-.2662.1169c-.0947.0389-.1952.0776-.3013.1161l-.3347.1146c-.117.0378-.2394.0752-.3668.1121l-.397.109c-.0686.0178-.1385.0355-.2094.053l-.4397.1026c-.1511.0334-.3065.0659-.4661.0974l-.491.0913-.5142.0844c-.0876.0135-.1761.0266-.2654.0394l-.5463.0726-.5656.0636-.5834.0539c-.1973.0163-.3972.0308-.5996.0434l-.6143.0319-.6274.0198c-.2111.0045-.4242.0068-.6389.0068s-.4278-.0023-.6389-.0068l-.6274-.0198-.6143-.0319c-.2024-.0126-.4023-.0271-.5996-.0434l-.5834-.0539-.5656-.0636-.5463-.0726-.5253-.0807c-.0857-.014-.1705-.0284-.2543-.0431l-.491-.0913c-.0798-.0157-.1585-.0317-.2362-.048l-.4531-.1001c-.1466-.0342-.2886-.0692-.4259-.1049l-.397-.109c-.0637-.0184-.1262-.037-.1873-.0557l-.3509-.1135c-.1675-.0573-.3226-.1153-.4646-.1736zm-.7727 8.8997v-2.328c1.1647.6555 2.7734 1.1449 4.6512 1.4384l.5801.0833c.196.0258.3946.0495.5956.0711l.6101.0585c.8227.0696 1.6809.1054 2.563.1054s1.7403-.0358 2.563-.1054l.6101-.0585c.201-.0216.3996-.0453.5956-.0711l.5801-.0833c1.8778-.2935 3.4865-.7829 4.6512-1.4384v2.328l-.007.0611c-.0792.3591-.8317.9323-2.2463 1.4173-1.7513.6005-4.1627.9502-6.7467.9502s-4.9954-.3497-6.7467-.9502c-1.4978-.5135-2.2533-1.1259-2.2533-1.4784zm4 21.6714c-1.1647.6556-2.7734 1.145-4.6512 1.4385l-.5801.0833c-.196.0257-.3946.0494-.5956.071l-.6101.0585c-.8227.0696-1.6809.1054-2.563.1054s-1.7403-.0358-2.563-.1054l-.6101-.0585c-.201-.0216-.3996-.0453-.5956-.071l-.5801-.0833c-1.8778-.2935-3.4865-.7829-4.6512-1.4385v2.3282c0 .3525.7555.9649 2.2533 1.4784 1.7513.6005 4.1627.9502 6.7467.9502s4.9954-.3497 6.7467-.9502c1.4146-.485 2.1671-1.0582 2.2463-1.4174l.007-.061zm-4-18.9994c1.1647.6555 2.7734 1.1449 4.6512 1.4384l.5801.0833c.196.0258.3946.0495.5956.0711l.6101.0585c.8227.0696 1.6809.1054 2.563.1054s1.7403-.0358 2.563-.1054l.6101-.0585c.201-.0216.3996-.0453.5956-.0711l.5801-.0833c1.8778-.2935 3.4865-.7829 4.6512-1.4384v2.328l-.007.0611c-.0792.3591-.8317.9323-2.2463 1.4173-1.7513.6005-4.1627.9502-6.7467.9502s-4.9954-.3497-6.7467-.9502c-1.4978-.5135-2.2533-1.1259-2.2533-1.4784zm18 7.3271v-2.3271c-1.1647.6555-2.7734 1.1449-4.6512 1.4384l-.5801.0833c-.196.0258-.3946.0495-.5956.0711l-.6101.0585c-.8227.0696-1.6809.1054-2.563.1054s-1.7403-.0358-2.563-.1054l-.6101-.0585c-.201-.0216-.3996-.0453-.5956-.0711l-.5801-.0833c-1.8778-.2935-3.4865-.7829-4.6512-1.4384v2.3271c0 .252.386.6368 1.1534 1.0233 1.0565.2352 1.9811.5373 2.7317.9019 1.4961.3234 3.2611.5034 5.1149.5034 2.584 0 4.9954-.3497 6.7467-.9502 1.4146-.485 2.1671-1.0582 2.2463-1.4173zm-14.5012 3.8985c-1.1182-.2387-2.1124-.5543-2.9373-.9391-.0382-.0077-.0767-.0154-.1154-.0231l-.491-.0913c-.0838-.0146-.1686-.029-.2543-.0431l-.5253-.0807-.5463-.0725-.5656-.0637-.5834-.0539c-.1973-.0162-.3972-.0307-.5996-.0433l-.6143-.032-.6274-.0198c-.2111-.0045-.4242-.0068-.6389-.0068l-.3208.0018c-.1065.0011-.2125.0028-.3181.005l-.6274.0198-.6143.032c-.2024.0126-.4023.0271-.5996.0433l-.5834.0539-.5656.0637-.5463.0725c-.0893.0128-.1778.026-.2654.0394l-.5142.0844-.491.0913c-.1596.0315-.315.064-.4661.0974l-.4397.1026c-.0709.0175-.1408.0352-.2094.053l-.397.109c-.1274.0369-.2498.0743-.3668.1122l-.3347.1145c-.1061.0385-.2066.0773-.3013.1162l-.2662.1169c-.4963.234-.7727.4676-.7727.6715s.2764.4376.7727.6716l.2662.1169c.142.0583.2971.1163.4646.1736l.3509.1135c.0611.0187.1236.0373.1873.0557l.397.109c.1373.0357.2793.0707.4259.1049l.4531.1001c.0777.0163.1564.0323.2362.048l.491.0913c.0838.0147.1686.0291.2543.0431l.5253.0807.5463.0726.5656.0636.5834.0539c.1973.0163.3972.0308.5996.0434l.6143.0319.6274.0198c.2111.0045.4242.0068.6389.0068s.4278-.0023.6389-.0068l.6274-.0198.6143-.0319c.2024-.0126.4023-.0271.5996-.0434l.5834-.0539.5656-.0636.5463-.0726c.0893-.0128.1778-.0259.2654-.0394l.5142-.0844.491-.0913c.1596-.0315.315-.064.4661-.0974l.4397-.1026c.0709-.0175.1408-.0352.2094-.053l.397-.109c.1274-.0369.2498-.0743.3668-.1121l.3347-.1146c.1061-.0385.2066-.0772.3013-.1161l.2662-.1169c.4963-.234.7727-.4677.7727-.6716 0-.163-.1767-.3451-.5012-.5311zm.5012 5.1018v-2.1255c-1.0233.5183-2.3906.9153-3.9868 1.1783l-.572.0871c-.0969.0136-.1945.0268-.2928.0394l-.5984.0703c-.3033.0323-.6127.0603-.9275.084l-.6367.0415-.6501.0298c-.1094.004-.2193.0075-.3297.0105l-.668.012-.338.0015c-.1131 0-.2258-.0005-.338-.0015l-.668-.012c-.1104-.003-.2203-.0065-.3297-.0105l-.6501-.0298-.6367-.0415c-.3148-.0237-.6242-.0517-.9275-.084l-.5984-.0703c-.1966-.0253-.3904-.0525-.5811-.0815l-.5627-.0928c-1.4767-.2623-2.7447-.6427-3.7078-1.1305v2.1255c0 .3525.7555.9649 2.2533 1.4785 1.7513.6004 4.1627.9501 6.7467.9501s4.9954-.3497 6.7467-.9501c1.4146-.4851 2.1671-1.0583 2.2463-1.4174zm23-10.5718c5.5229 0 10 4.4773 10 10.0003 0 5.5231-4.4771 10.0004-10 10.0004-5.5228 0-10-4.4773-10-10.0004 0-5.523 4.4772-10.0003 10-10.0003z" fill="#000091" fill-rule="evenodd"/><path d="m61.4214 40.0935c-.5009-.2326-1.0955-.0151-1.3281.4858-.2327.5009-.0152 1.0956.4858 1.3282 4.4844 2.0826 7.4211 6.4477 7.4211 11.0934 0 .5523.4478 1.0001 1 1.0001.5523 0 1-.4478 1-1.0001 0-5.4437-3.4048-10.5046-8.5788-12.9074z" fill="#000091"/></svg>