<svg fill="none" height="80" viewBox="0 0 80 80" width="80" xmlns="http://www.w3.org/2000/svg"><g clip-rule="evenodd" fill-rule="evenodd"><path d="m68 13.0002c-.5514 0-1-.4486-1-1s.4486-1 1-1 1 .4486 1 1-.4486 1-1 1zm-27 63c-.5514 0-1-.4486-1-1s.4486-1 1-1 1 .4486 1 1-.4486 1-1 1zm-26-66c-.5514 0-1-.44856-1-.99996 0-.55144.4486-1 1-1s1 .44856 1 1c0 .5514-.4486.99996-1 .99996z" fill="#cacafb"/><path d="m53 44.0002c.5523 0 1 .4478 1 1v10c0 .5523-.4477 1-1 1h-10c-.5523 0-1-.4477-1-1v-10c0-.5522.4477-1 1-1zm-6 7h-3v3h3zm5 0h-3v3h3zm-5-5h-3v3h3zm5 0h-3v3h3zm-7-14c.5523 0 1 .4478 1 1 0 .5523-.4477 1-1 1h-10c-.5523 0-1-.4477-1-1 0-.5522.4477-1 1-1z" fill="#e1000f"/><path d="m29 18.0002c.5523 0 1 .4478 1 1 0 .5523-.4477 1-1 1h-7v2h3c.5128 0 .9355.3861.9933.8834l.0067.1166c0 .5523-.4477 1-1 1h-1v2.722l15.5601-7.62.1077-.0453c.0168-.0056.0254-.0085.034-.0112.0987-.031.1989-.0457.298-.0457.0995 0 .1997.0147.2976.0453l.0136.0045.0212.0071.1077.0453 24.5 12c.4859.238.6944.8193.4705 1.3118l-2.5 5.5c-.2375.5225-.865.7383-1.3737.4725l-1.5367-.8033v4.8876c0 .5523-.4477 1-1 1s-1-.4477-1-1v-5.8216l-18-9.518-18 9.517v23.352h4v-15c0-.5522.4477-1 1-1h10c.5523 0 1 .4478 1 1v15h11c.5523 0 1 .4478 1 1 0 .5523-.4477 1-1 1h-40c-.55228 0-1-.4477-1-1 0-.5522.44772-1 1-1h3l.0003-2.0628c-2.58591-.342-4.0003-2.0686-4.0003-4.9372 0-2.8612 1.37478-6.9856 4.1056-12.4472l.0134-.0268.027-.047.036-.0544c.0113-.0163.0233-.0322.0357-.0479.0124-.0155.0252-.0306.0384-.0453.0115-.0129.0238-.0258.0364-.0384.013-.0131.026-.0253.0392-.0372.0143-.0128.0295-.0257.0451-.038l.0478-.0358.0534-.036.0748-.0404.0118-.0058c.0214-.0104.0434-.02.0656-.0289l.0203-.0079.0206-.0074c.0162-.0056.0322-.0107.0482-.0154.0219-.0066.0441-.0123.0663-.0171l.0197-.004c.0621-.0125.1244-.0188.1863-.0192h.0168c.037.0002.074.0026.1111.007l.0752.0122.0198.0042c.0221.0046.0443.0103.0663.0168l.0239.0075.0237.0079c.0143.0049.0279.01.0416.0154.022.0089.044.0185.0656.029l.0116.0057.0728.0404.0555.0361c.0162.0113.0322.0232.0478.0357.0155.0123.0307.0252.0454.0383.0128.0116.0258.0238.0384.0364.013.0131.0253.026.0371.0392.0129.0144.0257.0295.0381.0451l.0358.0478.0349.0534.027.048.0144.0268c2.7308 5.4616 4.1056 9.586 4.1056 12.4472 0 2.8682-1.414 4.5948-3.9993 4.937l-.0007 2.063h6v-22.417l-1.5367.8033c-.5087.2658-1.1362.05-1.3737-.4725l-2.5-5.5c-.2239-.4925-.0154-1.0738.4705-1.3118l7.1421-3.4989c-.1269-.1676-.2022-.3766-.2022-.6031v-3h-1c-.5523 0-1-.4477-1-1v-4c0-.5522.4477-1 1-1zm36.059 28.0018c.2359.0138.4679.1109.6481.2911 1.5416 1.5416 2.2929 3.7955 2.2929 6.7071 0 2.5869-.6252 4.2985-1.9989 4.8266l-.0011 2.1734h3c.5523 0 1 .4478 1 1 0 .5523-.4477 1-1 1h-14c-.5523 0-1-.4477-1-1 0-.5522.4477-1 1-1h3v-11c0-.5522.4477-1 1-1s1 .4478 1 1v11h4l-.0001-2.173c-1.3744-.5276-1.9999-2.2395-1.9999-4.827 0-2.9116.7513-5.1655 2.2929-6.7071.1802-.1802.4122-.2773.6481-.2911zm-29.059-.0018h-8v14h8zm29.0007 2.6123-.035.0559c-.6383 1.0793-.9657 2.5156-.9657 4.3318 0 2.1012.3766 2.9353.9325 2.9964l.0675.0036.0675-.0036c.5559-.0611.9325-.8952.9325-2.9964 0-1.8478-.3389-3.3023-.9993-4.3877zm-52.0008-5.3189-.1982.428c-1.8716 4.0732-2.8017 7.1812-2.8017 9.2786 0 2.1144.8856 3 3 3l.2074-.0029c1.965-.0575 2.7926-.9532 2.7926-2.9971 0-2.1703-.9958-5.4226-3.0001-9.7066zm20.0001 6.7066c.5523 0 1 .4478 1 1v2c0 .5523-.4477 1-1 1s-1-.4477-1-1v-2c0-.5522.4477-1 1-1zm6.999-28.887-23.187 11.357 1.66 3.653 21.0647-11.0092.038-.0189.0163-.0079.0128-.0052.0102-.0048.058-.0218c.0179-.006.0356-.0116.0535-.0167.0086-.0027.0176-.0052.0267-.0075l.0339-.0078c.0159-.0035.0318-.0066.0479-.0093.0132-.0025.0259-.0044.0386-.006l.0233-.0025c.0153-.0016.0307-.0029.0461-.0038l.016-.0009.0684-.0005.0236.0009c.0191.001.0381.0025.0571.0046.0039.0005.0085.001.0131.0016.0192.0022.0323.0041.0454.0063.0094.0018.0183.0034.0272.0052l.018.0035.014.0031c.0044.0012.0094.0024.0143.0036.0181.0044.0275.007.0369.0097.0074.0023.0153.0047.0231.0071l.0289.0094.0682.0266.0178.0082.0173.0078.032.016 21.0647 11.0092 1.66-3.653z" fill="#000091"/></g></svg>