<svg fill="none" height="80" viewBox="0 0 80 80" width="80" xmlns="http://www.w3.org/2000/svg"><path clip-rule="evenodd" d="m17 8.00024c-.5514 0-1-.4486-1-1 0-.55144.4486-1 1-1s1 .44856 1 1c0 .5514-.4486 1-1 1z" fill="#cacafb" fill-rule="evenodd"/><path clip-rule="evenodd" d="m15 72.0002c-.5514 0-1-.4486-1-1s.4486-1 1-1 1 .4486 1 1-.4486 1-1 1z" fill="#cacafb" fill-rule="evenodd"/><path clip-rule="evenodd" d="m65 72.0002c-.5514 0-1-.4486-1-1s.4486-1 1-1 1 .4486 1 1-.4486 1-1 1z" fill="#cacafb" fill-rule="evenodd"/><path clip-rule="evenodd" d="m65 10.0002c-.5514 0-1-.44856-1-.99996 0-.55144.4486-1 1-1s1 .44856 1 1c0 .5514-.4486.99996-1 .99996z" fill="#cacafb" fill-rule="evenodd"/><path clip-rule="evenodd" d="m31.4036 38.663c2.6328 1.0825 4.4933 3.3848 4.5923 6.1086l.0041.2286h-2c0-2.7242-2.655-5-6-5-3.2653 0-5.8732 2.1687-5.9955 4.8062l-.0045.1938h-2c0-2.8231 1.8902-5.2245 4.5964-6.3372-.982-.913-1.5964-2.2161-1.5964-3.6628 0-2.7614 2.2386-5 5-5s5 2.2386 5 5c0 1.4467-.6144 2.7498-1.5964 3.6628zm-3.4036-.6628c1.6569 0 3-1.3431 3-3 0-1.6568-1.3431-3-3-3s-3 1.3432-3 3c0 1.6569 1.3431 3 3 3z" fill="#e1000f" fill-rule="evenodd"/><path clip-rule="evenodd" d="m19 24.0002h18c1.6569 0 3 1.3432 3 3v20c0 1.6569-1.3431 3-3 3h-18c-1.6569 0-3-1.3431-3-3v-20c0-1.6568 1.3431-3 3-3zm18 2h-18c-.5523 0-1 .4478-1 1v20c0 .5523.4477 1 1 1h18c.5523 0 1-.4477 1-1v-20c0-.5522-.4477-1-1-1z" fill="#e1000f" fill-rule="evenodd"/><g fill="#000091"><path d="m8.0046 59.2219c.11014 2.6464 2.1824 4.7783 4.753 4.7783h2.2424l.1166-.0067c.4974-.0578.8834-.4804.8834-.9933l-.0067-.1166c-.0578-.4973-.4805-.8834-.9933-.8834h-2.2424l-.1606-.005c-1.4356-.0904-2.597-1.3843-2.597-2.995v-38l.0047-.1776c.0849-1.586 1.2982-2.8224 2.7529-2.8224h44.2424l.1166-.0067c.4974-.0577.8834-.4804.8834-.9933 0-.5522-.4477-1-1-1h-44.2424l-.2131.0049c-2.5417.1172-4.5445 2.3215-4.5445 4.9951v38z"/><path d="m71.9954 20.7786c-.1101-2.6464-2.1824-4.7784-4.753-4.7784h-4.2424l-.1166.0068c-.4974.0577-.8834.4804-.8834.9932 0 .5523.4477 1 1 1h4.2424l.1606.0051c1.4356.0904 2.597 1.3843 2.597 2.9949v38l-.0047.1777c-.0849 1.586-1.2982 2.8223-2.7529 2.8223h-28.2424l-.1166.0068c-.4974.0577-.8834.4804-.8834.9932 0 .5523.4477 1 1 1h28.2424l.2131-.0049c2.5417-.1172 4.5445-2.3214 4.5445-4.9951v-38z"/><path d="m35 56.0002c.5523 0 1 .4478 1 1 0 .5129-.386.9356-.8834.9933l-.1166.0067h-20c-.5523 0-1-.4477-1-1 0-.5128.386-.9355.8834-.9932l.1166-.0068z"/><path d="m56 57.0002c0-.5522-.4477-1-1-1h-2l-.1166.0068c-.4974.0577-.8834.4804-.8834.9932 0 .5523.4477 1 1 1h2l.1166-.0067c.4974-.0577.8834-.4804.8834-.9933z"/><path d="m65 56.0002c.5523 0 1 .4478 1 1 0 .5129-.386.9356-.8834.9933l-.1166.0067h-6c-.5523 0-1-.4477-1-1 0-.5128.386-.9355.8834-.9932l.1166-.0068z"/><path d="m38 57.0002c0 .5514.4486 1 1 1s1-.4486 1-1-.4486-1-1-1-1 .4486-1 1z"/><path d="m43 58.0002c-.5514 0-1-.4486-1-1s.4486-1 1-1 1 .4486 1 1-.4486 1-1 1z"/><path d="m64 25.0002c0-.5522-.4477-1-1-1h-18l-.1166.0068c-.4974.0577-.8834.4804-.8834.9932 0 .5523.4477 1 1 1h18l.1166-.0067c.4974-.0577.8834-.4804.8834-.9933z"/><path d="m53 28.0002c.5523 0 1 .4478 1 1 0 .5129-.386.9356-.8834.9933l-.1166.0067h-8c-.5523 0-1-.4477-1-1 0-.5128.386-.9355.8834-.9932l.1166-.0068z"/><path d="m56 29.0002c0 .5514.4486 1 1 1s1-.4486 1-1-.4486-1-1-1-1 .4486-1 1z"/><path d="m57 32.0002c.5523 0 1 .4478 1 1 0 .5129-.386.9356-.8834.9933l-.1166.0067h-12c-.5523 0-1-.4477-1-1 0-.5128.386-.9355.8834-.9932l.1166-.0068z"/><path clip-rule="evenodd" d="m47.5 38.0002c-1.933 0-3.5 1.567-3.5 3.5s1.567 3.5 3.5 3.5 3.5-1.567 3.5-3.5-1.567-3.5-3.5-3.5zm0 2c.8284 0 1.5.6716 1.5 1.5 0 .8285-.6716 1.5-1.5 1.5s-1.5-.6715-1.5-1.5c0-.8284.6716-1.5 1.5-1.5z" fill-rule="evenodd"/><path d="m63 48.0002c.5523 0 1 .4478 1 1 0 .5129-.386.9356-.8834.9933l-.1166.0067h-18c-.5523 0-1-.4477-1-1 0-.5128.386-.9355.8834-.9932l.1166-.0068z"/><path d="m50 57.0002c0-.5522-.4477-1-1-1h-2l-.1166.0068c-.4974.0577-.8834.4804-.8834.9932 0 .5523.4477 1 1 1h2l.1166-.0067c.4974-.0577.8834-.4804.8834-.9933z"/></g></svg>