<svg height="320" viewBox="0 0 248 320" width="248" xmlns="http://www.w3.org/2000/svg"><g fill="none" transform="translate(15 38)"><path d="m233 38.4861796-70.057918-33.4861796h-6.3783l-15.349411 18.7353284h-16.542775l-17.030253 17.968933h-19.4628528l-19.0650651 13.9663604h-18.6663871l-24.0189285 15.967616h-17.4281095l30.47706 100.3617622h43.0392852l.5312968-2.34212 26.053398-2.384344.132824-16.265438h28.79615v-9.963713h26.849658v-14.47769h32.290658v-13.029104h23.22301v-16.7769035h12.60666z" fill="#212121"/><g transform="translate(136)"><path d="m0 23.8625357v-23.8625357l96 50.1846457-.2203634 35.8153543z" fill="#307205"/><path d="m0 0h18.2035206l77.7964794 37.0235735v13.1610722z" fill="#afe868"/></g><path d="m134.196397 35.8885584c-1.193454-.7490972-3.196397.2204015-3.196397 1.2780044 0 3.1728792 2.813093 18.1117583 2.940421 19.0371344.127988.9254466 1.705405 1.1898297 1.79051 0 .127988-1.8948748.426186-8.4609643.127988-11.4574941-.127988-1.2339523-.213093-2.423782-.341081-3.525437 1.449429 2.7322172 3.750571 6.6541936 6.81964 11.7659998l1.662522-.7931493c-1.321441-4.4508837-2.386907-7.6236924-3.239279-9.430463-1.449429-3.1288272-2.770871-5.8169218-3.325045-6.7864205-.852372-1.5423875-2.429129-1.0135508-3.239279-.0881747z" fill="#ac5419"/><path d="m154.797543 75c3.325872-3.9305164 5.573496-6.8244321 6.786698-8.6817471 2.022236-3.2394032 3.68552-6.0900725 4.179427-7.2130969 1.258419-2.6347828-2.875791-3.8441619-3.775258-2.6347828-1.392678 1.8573149-4.404119 7.6882545-8.98841 17.4497797z" fill="#ac5419"/><g transform="translate(103 17)"><path d="m0 25.5243993.44191207-25.52407216 93.56290983 69.45619196v39.5434809z" fill="#307205"/><path d="m.44464837 0h17.36933343l105.1860182 69.4561783h-28.9924418z" fill="#afe868"/></g><path d="m135.674057 91.9340843c-1.383041-.8046145-3.674057.2119903-3.674057 1.397239 0 3.4724402 3.241815 19.7753677 3.415113 20.7919717.172629 1.015928 1.98858 1.312579 2.074895 0 .172629-2.075201.475065-9.231394.172629-12.534513-.129806-1.35457-.258944-2.6678256-.38875-3.8110827 1.685476 3.0064677 4.32242 7.2835227 7.824516 12.8304867l1.901597-.846606c-1.512847-4.869679-2.766081-8.29945-3.717548-10.3319826-1.642654-3.4304485-3.198992-6.3942476-3.847355-7.4108524-1.037113-1.6092292-2.809573-1.0585965-3.76104-.0846607z" fill="#ac5419"/><path d="m107 73.142497c0 4.487097 2.156473 14.8988788 2.156473 15.857503h4.620819c-.660019-9.2793121-.9243-13.9842212-.704293-14.1149363.307873-.1307152 12.05745 1.1762272 15.578236 1.1762272 5.104425 0 7.217306-3.1801545 7.348765-9.0612909h-10.077391c-2.067926.2178121-12.761744 2.3524546-16.721862 3.0930576-1.71646.3485272-2.200747 1.8296636-2.200747 3.0494394z" fill="#204f01"/><path d="m141.178755 98.9328875 12.821245-6.5180395v-1.414848h-1.543833c-12.435618 3.1732922-18.739048 5.1882333-19.039053 6.0887158v.0432067.0425209c-2.444513 3.3872686-3.945203 19.8956576-4.417114 21.1390506l4.717119.686506c1.801359-6.689495 7.5904-11.363362 7.418494-19.3387709.043142-.2997036.043142-.5143655.043142-.7283416z" fill="#204f01"/><path d="m152.644692 102.878523c1.182223-.21546 2.321061-.43092 3.240944-.603013 6.087362-1.032556 7.883066-4.2603254 6.831675-11.27551h-11.255519c-1.839088.5162779-11.38635 4.4324182-16.335551 6.5415857-3.284329 1.3774295-2.233615 6.3694933-.393848 7.6608763 0 .086046.043384.128725.087446.172093 9.985172 4.088232 17.868238 1.936386 20.539763 2.625445l1.226284-3.787415z" fill="#307205"/><g transform="translate(68 35)"><path d="m0 22.686293v-22.686293l72.6520944 79.6145395v37.3854605z" fill="#307205"/><path d="m0 0h18.8749169l84.1250831 79.6145395h-30.3479056z" fill="#afe868"/></g><g transform="translate(65 96)"><path d="m0 31.3193951c2.17237262-12.8511815 3.99000214-21.36146499 5.05423144-23.95729203.70880003-1.70219282 5.89545976-1.48916349 5.27517396 1.91454155-.2662289 1.44696598-1.24125778 5.31960778-2.57102978 9.70202268-.75408639 2.5536295-2.66023015 7.4471787-5.2758601 13.0213327zm32.2287877-14.4682987c-.9311148-.1272731-11.7037775-1.1910585-19.3283526-2.254844-3.05888725-.4260586-1.4182862-5.91513706 1.7730294-5.31960778 1.0642293.21302933 2.2169728.42605866 3.3690302.63840738 4.0785163.8085586 12.5010918 3.6596125 14.9396933 4.5961248 1.5068004.5526512.5317715 2.5100708-.7534003 2.3399196z" fill="#e8a16d"/><path d="m24.6913546 11.5321692c1.1966576-.2130293 2.3048009-.4260586 3.2359158-.5962099 6.0731744-1.0209073 7.8462037-4.127188 6.7826606-10.9359593h-11.2159201c-1.8176295.51045367-11.3483483 4.34021737-16.26877916 6.38271264-3.28051595 1.36189038-2.21697281 6.21324206-.39934329 7.44717866 0 .0850756.0446002.1272731.08851423.1701512 9.93006212 3.9570369 17.82086602 1.8723441 20.43649592 2.552949l1.1966576-3.6596125z" fill="#204f01"/><path d="m32.1361566 13.9154548c.6717475.0689338 1.106771.1526482 1.3832922.3105486.3362169.1769572.8103513.4335453 1.3633937.84395-.1989855.3784163-1.8265496 3.7092967-4.9835573 9.9912798-1.0079644-.1510943-1.4423017-.5213434-1.2234177-1.1474999.1982994-.5689857.3773863-1.0808005.5166761-1.479635l.1495822-5.6462981c0-.0952847.0988066-.1892082.1976132-.1871664l.909844.0537678c.5345162-.3920284.8323083-.7684029 1.0107091-1.0896484.1193913-.246379.1989855-.664951.2003578-1.2373397.0198985-.2477402.1784007-.4165302.4755067-.4119587-.0397971.0185691-.0397971.0185691 0 0z" fill="#dffdad"/></g><g transform="translate(32 47)"><path d="m0 0h17.5346689l65.4653311 93.0678212h-28.3488089z" fill="#afe868"/><path d="m54.6511911 125v-31.9321788l-54.6511911-93.0678212v25.1534523l50.2005507 99.8465477z" fill="#307205"/></g><path d="m35.7762649 119.924301c5.1724276-.843289 8.6206904-1.391764 10.3879542-1.687253 5.0000311-.843288 6.4655345-3.50066 5.6034855-9.237048h-9.2242114c-1.2069087.337316-6.3362371 2.488714-15.3017871 6.411019-1.5948675.801462-1.2931069 3.079016-1.0345122 3.880478 0 .042502 2.7155778 4.597611 8.1466001 13.708503l7.5431457-4.68194-6.1638406-7.760955c-.1292974-.379818-.1292974-.548475.0431658-.632804z" fill="#47aa0a"/><g transform="translate(0 66)"><path d="m0 0h16.4035107l43.5964893 103.276198h-29.6053395z" fill="#afe868"/><path d="m30.3947284 106v-3.149183l-30.3947284-102.850817v17.1488584l23.6841766 88.8511416z" fill="#307205"/></g><g transform="translate(14 95)"><path d="m6.14779118 7.13539685c0-.13003631 0-.25938094 0-.38941725 0-.17292063 0-.30226526 0-.47587758 0-.43230157 0-.86460314 0-1.29690472 0-.51876189 0-.99463946 0-1.51340135 0-.47587757 0-.95175514 0-1.38405671 0-.30295695 0-.64879821 0-.95175515v-.21580494h-6.14779118v.47518589 1.21113608 1.55697735 1.51340135 1.16756009.34584126c0 .30295694.2711983.38941726.49726685.47587757.2711983.08646032.49719688.13003631.76846515.21649663.58766629.08646031 1.17533257.12934463 1.80819857.12934463.72326544 0 1.4464609-.04288432 2.12452662-.21580495.18086884-.04357599.40686742-.08646031.58773626-.17292062.18079886-.17292063.36159773-.26007263.36159773-.47587758z" fill="#dffdad"/><path d="m3.07393057 1.72989798c1.69764818 0 3.07386061-.38734221 3.07386061-.86529483 0-.47726094-1.37621243-.86460315-3.07386061-.86460315-1.69771815 0-3.07393057.38734221-3.07393057.86460315 0 .47795262 1.37621242.86529483 3.07393057.86529483z" fill="#47aa0a"/><path d="m3.07393057.25938094c.76846515 0 1.49173059.08646032 2.03419716.21580495.58759631.17361231.72326543.34653294.72326543.38941726 0 .043576-.13566912.21649663-.72326543.38941725-.54246657.12934464-1.26573201.21580495-2.03419716.21580495-.76853512 0-1.49180055-.08646031-2.03419715-.21580495-.58766628-.17292062-.7233354-.34584125-.7233354-.38941725 0-.04288432.13566912-.21580495.7233354-.38941726.5423966-.12934463 1.26566203-.21580495 2.03419715-.21580495zm0-.25938094c-1.67259942 0-3.07393057.38872558-3.07393057.86460315s1.35613144.86529483 3.07393057.86529483c1.71772917 0 3.07386061-.38941726 3.07386061-.86529483s-1.35613144-.86460315-3.07386061-.86460315z" fill="#f2f9e5"/><path d="m.67764591 1.64343766c-.13559915-.043576-.2711983-.08646031-.36159774-.043576-.04519971.043576 0 .21649663 0 .30295695v.38941725 1.85924261 2.68096144c0 .08646031 0 .13003631.04519972.21649663.04519972.13003631.31639802.21649663.45199717.25938094.04519971-.21580494 0-.43230157 0-.6487982 0-.21580494 0-.43230157 0-.6487982 0-.47518589 0-.90748746 0-1.38336504 0-.90817914 0-1.81635829 0-2.72453743-.04519972-.17292063-.09039944-.21649663-.13559915-.25938095z" fill="#f2f9e5"/><path d="m5.78500398 2.20508387c.09039943-.043576.13559915-.13003632.18079887-.17292063.45199716-.51945357 1.35613143-.6923742 1.8081286-.08646032.18079886.25938095.22606855.51876189.22606855.82171883v.86460315c0 .47587757-.13566912.90817915-.3616677 1.34048072-.18079887.34584126-.45199717.73525852-.81366487.90817915-.36159773.21649662-.72326543.43230157-1.03966345.73525851-.04519972.043576-.0904694.08646032-.13566912.08646032-.22599858.08646031-.2711983-.25938095-.2711983-.38941726-.04519972-.17292063 0-.38872558 0-.56164621 0-.13003631.04519972-.21649662.09039943-.34653294 0-.04288431.04526969-.12934463.09046941-.17292063.04519971-.04288431.04519971 0 .13559915 0 .2711983.043576.45199716-.04288431.67806571-.17292063.2711983-.12934463.63279604-.38941725.67799575-.69168251.13566912-.56233789.13566912-1.12467578.13566912-1.68701366 0-.30226526-.54246657-.30226526-.72326543-.12934463-.18079887.12934463-.3616677.34584125-.45206714.56233788-.04519971.12934463 0 .25938095-.13559915.34584126-.04519971 0-.04519971.04288432-.09039943.04288432s-.0904694-.04288432-.13566912-.08646032c-.13559915-.12934463-.18079887-.25938094-.22599858-.43230157-.04519972-.12934463-.04519972-.25938095-.04519972-.34584126 0-.13003631 0-.34584126.13559915-.43230157.13559915.04288431.18086884.04288431.27126827 0z" fill="#59c114"/></g><g transform="translate(28 80)"><path d="m.03905303 4.28595415c.04412903 2.24337276.66207201 7.07526315 1.63297888 7.59277345l4.854671-1.3807175s0 0 0-.0427809c1.72123693-.69001374 2.69221212-2.58851762 2.1625955-4.40049376l-1.0150359-3.408116c-.57374565-1.94135373-2.64808309-3.06297111-4.63409418-2.50212792l-.35303221.08625172c-1.80949498.56084319-2.91285724 2.28642962-2.64808309 4.05521091z" fill="#204f01"/><path d="m6.57144674 5.96827672c.48548759-1.07849152.70613272-2.32962448.26484246-3.49443672-1.27987837-3.408116-6.0022306-1.25106396-6.48764987.77654149-.44135858 2.02767446 1.01503589 6.4713631 2.33904328 6.42789224.52961662 0 1.50059181-.60376205 2.38324063-1.55294499l.70613272 4.87467126 4.0161512-1.1212724z" fill="#cb7a43"/><path d="m5.33583402 5.70924555c.39716123 1.98447958 1.10329395 4.18431247 1.80942667 4.53000935l4.85473931-1.38071753c-1.1033623-4.65924895-3.1776314-2.15705202-4.45750977-6.42803024-.22064513-.12944658-.39722954-.2156983-.61787467-.30201902l-.04412902-.12937759c-1.32400739-1.4236364-2.64801479-1.98447959-3.92789315-1.59620884-1.94188206.56077419-2.29491426 1.59620884-2.55975673 2.50212792.79439077 1.2080071 2.3391116.94911394 3.92789315 1.38051054.13245538-.17257244.30897149-.30195002.52961661-.34507588.4854876-.12944658 1.01503591.12937758 1.19162032.64709491.1765161.51771733-.1765161.94911394-.70613272 1.12168638.04412902-.04319486 0 0 0 0z" fill="#204f01"/><path d="m.79033944 6.48606305c.04412903.51764831-.13238707 1.03536564-.26484245 1.55308297v.17250344c.04412902.04319486.04419733.04319486.08832636.04319486.30890317.04312587.61787466-.04319486.83851979-.25889316" fill="#cb7a43"/><g fill="#204f01" transform="translate(.876002 4.823057)"><path d="m.61835285.71354755c-.57367733 0 .39716123.73334663.1765161.04312586-.04412902-.04312586-.08825805-.04312586-.1765161-.04312586z"/><path d="m.88264882 4.12173254c.22064513-.08659673.35303221-.17284845.48541929-.3454209.13245538-.12944658.26484246-.30201902.44135856-.4313966-.04412902.2156983-.13238707.4313966-.30890318.60396905-.08832636.08625172-.17658441.17284845-.30897149.17284845-.08825805.04278085-.22064512.04278085-.30890318 0z"/><path d="m0 .41242554c.1765161-.08632072.30890318-.12944658.48548759-.17257244.17651611-.04312586.39716123 0 .52954831.12937758-.1765161.04319486-.3530322.04319486-.48548759.08632072-.13238708 0-.35303221.04312586-.52954831-.04312586z"/></g></g><g transform="translate(15 89)"><path d="m16.3978921 18.4524135-5.8437357-2.0307793c-2.4791731.2897325-3.71875961.2486263-3.63022752-.0828754.13279816-.4979156.84112353-.4150401.97399021-.7465418.13279816-.3315017-.70832537-.9945051-1.50518283-1.6164022-.796926-.6218972-.26566484-.7465418.04419753-.7465418 1.19532046.2492892 2.52343909.7047726 3.98435591 1.4095451l7.1719228.7465418z" fill="#cb7a43"/><path d="m9.44668276 17.8722856c-1.4609168-.3315017-2.70050331-.4143771-3.7629571-.3315017-2.03644401.20752-2.92190211.1246446-4.2942868-.580128-.70832537-.3732709-1.63798101-1.3684389-1.32811864-1.9067977.17706422-.3732709 2.52343911.2068571 3.32029659.0411063.79685748-.1657509-.57552721-1.4924206-.13279816-1.4924206.48699511-.1657509 1.23958653.2903954 2.12497611 1.4513143l3.14323236.3315017z" fill="#cb7a43"/><path d="m19.098875 17.7476409c-2.434907.9951681-5.9322678.5390218-8.7655692-.5390217l.0885321-2.8184273c3.6744935.6218971 6.5963271-.0417692 8.6327711-.787648 1.9921779.7458788 1.9479119 3.357449.044266 4.145097z" fill="#47aa0a"/><path d="m17.8567532 1.78848681 4.6927498-1.78215306c.5311926-.20752006 6.7291252 4.72522502 8.4999044 8.78810967 1.6380495 3.73071998 6.3307993 4.68411878 6.9505926 11.19149688-3.2760305.6218972-11.1120127 6.9230812-14.0339148 4.4354926-1.4166508-1.2020251-2.3463064-2.7773211-3.0103657-4.518368-3.1432324 1.1198127-7.3046525 1.6170652-12.66139311 1.1191497-.57552721-.9945051-.75265995-2.9841782-.53126116-5.9272501 5.88800177-.2486263 9.78382557-1.0362743 11.73173747-2.4040503-.354197-3.77248915-.5312612-7.71006616-1.6380495-10.90242739z" fill="#59c114"/></g><g transform="translate(86 57)"><path d="m8.17110392 13.2987913c.95818728-1.0756259 1.64240501-2.4093028 1.50542025-3.87214301-.31916039-4.25935731-6.61481092-3.31282582-7.84626163-1.16164291-1.23215681 2.15118292-1.09517204 7.61519162.50133601 8.00240592.63902689.1721029 1.96156541-.2151114 3.33070699-.98954l-.86709946 5.7221287h5.06349371z" fill="#e8a16d"/><path d="m21.9910312 4.47860416c-.5931299-.17210289-1.1862598-.21511141-1.6875958.08601704-.5479391.34420578-1.0492751.68841156-1.7334928.94653149-.6390269.21511141-1.2773477.34420578-1.9163746.34420578-1.2773477 0-2.5546953-.3872143-3.786146-.64540304-1.0040843-.21511141-2.0985502-.43022282-3.1478253-.21511141-.41095431.08608585-1.04927509.25818874-1.23145071.68841156 2.64578311.43022282 3.64916131 3.52793723 2.91904661 5.76513722-.4102482 1.2046514-2.78276795 2.6244142-3.74024912 1.97908-.59312993-.3872143-.22807258-.9465315 0-1.2906685.45614516-.6884115.59242382-1.5488572-.22807258-2.0221573-.7301147-.38721433-1.4602294.5593172-1.4602294.5593172-.18217562 0-1.87047759-.9034542-3.05673745-2.23719999-1.1403629.04300852-1.32253852-.64533424-1.04856898-1.24772876.27326343-.60232571 2.00675626-1.33367698 2.91904658-1.46277135.68421774-.08601704 2.46360752-.17210289 2.78276791-.17210289.22807258 0 .45614516.04300852.54793908-.12909437.09108781-.12902556.04519085-.38714549.09108781-.55924838.04589696-.21511141.09108781-.3872143.13698477-.60239453.13627866-.55924837.36505735-1.11856557.68421774-1.63487424.59312993-.94653149 1.41433244-1.67788276 2.50879834-2.10810558 1.1862599-.47330016 2.5095045-.60239453 3.7868522-.47330016 1.4595233.12909437 2.8738557.47330016 4.1512034 1.16164291 1.1862598.64533423 2.6457831 1.76396861 2.5087983 3.2698173z" fill="#204f01"/><path d="m1.18911733 11.1902728c-.09108781.3442058-.50133601.6023257-.72940859.9465315-.09108781.1721029-.50204211.6023257-.45614516.8174372.09108781.4733001 1.18555375.5593171 1.45952329.6023257" fill="#e8a16d"/><g fill="#204f01" transform="translate(1.325396 10.216643)"><path d="m1.3705538.58572761c-.31916039-.08601704-.31916039.17210289-.27396954.3872143.41095431.17210289.54793908-.34413697.27396954-.3872143z"/><path d="m.63973299.32795175c.18217563-.21511141.50133601-.30119726.82120251-.25811993.31916039.08601704.54723297.30112845.63832078.55924838-.22807258-.17210289-.45614516-.30112845-.68421774-.34413697-.22807258-.04307733-.50204211-.04307733-.77530555.04300852z"/><path d="m0 4.54519512c.31916039-.08601703.59312993-.12902555.86639336-.21511141.27396954-.08601703.54723297-.21511141.82120251-.30112845-.18217562.25811993-.45614516.43022283-.77530555.51623986-.27396954.08608586-.59312993.08608586-.91229032 0z"/></g></g><g transform="translate(68 70)"><path d="m10.3711651 7.94732589-5.97528154-3.46074775c-2.81217725-.17297511-4.13019405-.43257617-3.95473051-.82190856.21966946-.56237669 1.01061557-.30277564 1.23028503-.64886425.21966947-.34608861-.5270707-1.29779769-1.3180168-2.16295003-.74674018-.86515234-.1319377-.90846531.21966946-.82190856 1.27449097.51906373 2.63671371 1.29772851 4.08666821 2.4224819l7.68911155 2.29275055zm4.0866683 13.62642611-6.41530063 2.6389083c-1.8015617 2.119983-2.81149718 2.9848586-3.03116665 2.6389084-.30808133-.5189254.39513301-.9949529.21966947-1.3844929-.17614363-.3895399-1.36222274-.3459502-2.54898194-.2594626-1.14187317.0864875-.83447194-.4324378-.5270707-.6490027 1.18607911-.6919004 2.63603361-1.2973133 4.39406944-1.730443l6.50235231-4.6717119z" fill="#e8a16d"/><path d="m23.0705087 5.48194614c-3.5153916 6.48878096-8.6562012 11.46361446-16.03791141 16.61142306l2.81217725 3.1149359c8.26038806-3.0284483 12.61025156-4.845379 14.76342046-10.9880712.5270707-1.5573296.9228838-6.44560636 1.230285-8.99788881z" fill="#307205"/><path d="m32.9569949 27.0681335h-15.6420983c3.5595975-10.6420518 5.3604791-17.95281044 5.448891-21.93262192 0-.21628808.395133-.56237669.5705965-.51913291 1.230285.34608861 2.5489819.21635727 3.9547305-.3892632 3.6466492 5.88316043 4.9211402 13.15067533 5.6678803 22.84101803z" fill="#f7f7f7"/><path d="m25.8813258 4.27098196c-4.4811212.04324378-11.7750996.82190856-20.16742544-1.81686142l-.83515203 4.06629901c6.32756887 4.02305525 12.78639527 7.13771435 18.41074977 6.70513825-2.4605701 10.3387918-2.3293125 18.7744422 3.0753725 18.7744422h8.3481199c1.3186969-8.7816007-2.1524887-20.9373923-5.4040049-27.08015379-.1319377-.21628808-.3958131-.69210803-1.0106156-.69210803-.5270707.04324378-1.3180168.04324378-2.4170442.04324378z" fill="#47aa0a"/></g><g transform="translate(121 35)"><path d="m6.67195692 8.47202872c.76866082-.9200741 1.28088106-2.01533365 1.19562118-3.28584876-.25644059-3.63642996-5.16648463-2.8039486-6.10632616-1.00766684-.93918059 1.79628176-.85392071 6.44030848.38466088 6.79081958.51222024.1313891 1.53666072-.1752556 2.60472254-.8324814l-.68340094 4.8631487h3.97152438z" fill="#e8a16d"/><path d="m9.57674137 4.00339772c.12755937-.1313891.21348018-.30664465.25577966-.48190019.04296041-.17525555.12822029-.3505111.17118067-.56956301.0852599-.39430746.0852599-.83241129-.17118067-1.09525957-.21348018-.21905192-.51222024-.3505111-.8109603-.3505111-.21348018 0-.38466088 0-.59814106.08759274-.17051977.04386644-.34170047.17525555-.51222024.26291836 0-.39430746-.08525988-.83241129-.29874006-1.18292238-.21348018-.3505111-.51288117-.52576664-.85458164-.56956301-.38399991-.04379637-.72570038.04379637-1.06740085.21905191-.08525989.04379637-.17051977.08759274-.25577966.13145918-.08592081.04379637-.12822029.08759274-.21348017.13138911-.08592082 0-.1282203-.04379637-.1711807-.08759274-.08525989-.08766281-.1282203-.13145918-.21348018-.21905192-.34170047-.26284828-.76866082-.35051109-1.19562118-.21905191-.17051977.08759274-.34170047.17525555-.46992076.35044102-.12755936.13145918-.17051977.39430746-.34103954.48197027-.08592082.04379637-.12822029 0-.1711807-.04379637-.08525989-.04386644-.17051977-.13145918-.25577966-.21905191-.12822029-.08766281-.25644058-.17525555-.38466087-.17525555-.21348018-.04386644-.51222024-.04386644-.55518065.26284828-.04229948.08759274 0 .21905192 0 .3505111 0 .1313891 0 .30664465.04296041.43810382 0 .13145918.04229948.21905192.04229948.3505111 0 .04379636.0429604.17525554 0 .21905191-.04229948.08759274-.17051977.04379637-.21348018.04379637-.12755936 0-.25577966.04379637-.34103954.08759274-.08592082.04386644-.1711807.08766281-.21348018.21912198-.04296041.04379637 0 .13138911 0 .17518548v.17525554c-.1711807-.08759273-.72636135-.26284828-.76866082.04379637-.04296041.08766281.04229947.21912199.08525988.30671472.08525989.13145918.17051977.26284829.25577966.39430747.21348017.26284828.42696035.48190019.68340094.70102218-.29874007.1313891-.38399995.52569656-.1282203.78854485.1282203.08766281.25644059.13145918.42696036.13145918.04296041 0 .12822029-.04379637.1711807 0 .04229948 0 .04229948.04379636.08525988.04379636.21348018 0 .42696036-.04379636.64044053-.08759273.34170047-.08766281.68340094-.26284828.98214101-.52576664.08525988-.08759274.12822029-.08759274.21348017-.08759274.08525989 0 .1711807.04379637.25644059.04379637.21348018 0 .42696035-.08759274.64044053-.17525555 0 .26284829.08525989.61335938.21348018.83241129.08525988.21905192.29874006.21905192.46992076.26291836.59748012.04379637 1.19562118 0 1.79310127 0-.59748009.1313891-1.19562115.17525555-1.75080179.35044102-.25577966.08766281-.04229948.26291836.0429604.39430746.17051977.21905191.34170047.48197027.42696036.74481855.29874006-.39430746.76866082-.61335937 1.23792062-.52576664.51288117.13145918.85458164.83248134.51288117 1.31438154-.1711807.30671472-.51288117.39430746-.76866079.52576663.21348014.21905192.25577962.56956301.38399992.83241129.0429604.13145918.17118069.30664465.29940099.3505111.04229947 0 .12755936 0 .17051977.04379636.0429604.04379637.0429604.13138911.12822029.17525555.25577965.17525555.68274001.17518547.89622019-.08766281.2141411-.21905191.1711807-.56956301 0-.78861492.29940099-.13138911.76866082-.26284828.68340094-.70095211.59814105-.04386644 2.09250229-1.05153328 1.28088109-1.79628173.4269603-.26291836.8545816-.87627773.5551806-1.44577066-.3839999-.61342945-.8962202-.83248137-1.32318053-.83248137z" fill="#212121"/><path d="m1.16377182 7.20172382c-.12822029.56956301-.68340094 1.18292238-.55518065 1.84007813.25644059.13145917.59814106.04386644.89688112.04386644" fill="#e8a16d"/><g fill="#212121" transform="translate(1.333631 5.887272)"><path d="m0 3.89997895c.51222024.04379637.8109603-.43810383 1.23792066-.43810383.08592081.3505111-.7679999.83241129-1.02444048.96387047"/><path d="m.89754205 1.05139313c-.04296041.13138908-.08525989.30664462-.04296041.4381038.34170047.08759274.46992076-.13145918.42696035-.4381038-.17051977-.08766281-.34103954-.08766281-.42696035 0"/><path d="m.51486396.52562649c0-.17525555.17051977-.30671472.29874006-.35051109.12822029-.08759274.29874006-.08759274.46992076-.08759274.17051977 0 .29874006.04379637.42696036.13138911.12822029.08766281.25644058.21905191.25644058.39430746-.12822029-.04379637-.25644058-.08759274-.38466088-.08759274-.12822029 0-.21348017-.04386644-.34170047-.04386644-.12822029 0-.21348017 0-.34170046 0-.12755937 0-.21348018.00007007-.38399995.04386644z"/></g></g><g transform="translate(103 39)"><path d="m20.3550219 11.6182051-6.1750174-3.19830747c-1.029285-1.15140706-2.0142401-2.04690041-3.0435251-2.68661647-.31308-.12788865-.8498874-.21321595-.3581025.63971606.4924775.8528638.9849551 1.74842536.716205 2.00427086-.26875.2558455-.89491-.08532731-1.2079899.3411728-.1793976.29847505.8949099.72490695 3.2215374 1.36462302l4.4752425 3.9232826z" fill="#e8a16d"/><path d="m23.7123197 11.1494165c-2.1479225-.0426296-5.05638-.4690615-8.0999051-2.30274593l-1.2079899 2.55865963c2.1035925 2.0042708 5.1014024 3.6673689 7.6967799 3.5821098 2.05857-.0426295 3.0878551-2.430771 1.6111151-3.8380235z" fill="#59c114"/><path d="m.1295022 2.57773965c2.77408241-.5970183 5.50383492-1.36462301 8.27860999-2.04690041.35810252-.08532731 1.70046751-.63971606 1.96921751-.51175921 0 0 .2237275 1.36462301.2680574 1.79105491.1343751 1.32199346.3581026 2.64398693.5818301 3.96598039.134375.89549335.26875 1.7057276.3581025 2.08952996 0 .0853273.0450225.1705864.0450225.21328416 0 .12788864 0 .21321595-.0450225.29847504-.2687501.2558455-.89491-.08525909-1.20799.34117281-.1793975.21321595.4917849.55438875 1.8791725.98082066.7605349 1.70579584 3.400935 5.33053514 3.669685 5.62907844-2.1035926.8954934-4.251515 1.7910549-6.35441497 2.6439187-.53750012.213216-3.62466249 1.6631663-4.20649251 1.4925799-.53750011-.1279569-1.38738753-1.7910549-1.83484252-2.6866165-1.07430758-2.1322277-1.924195-4.3923441-2.46169511-6.7377877-.17870493-.6397161-1.47674-7.3348743-.93923989-7.46283115z" fill="#dc3579"/><path d="m9.30232952 19.0382702c-1.16366004-.8102342-2.23727496-1.3219252-3.26655997-1.6204685-1.92419499-.511691-2.6854226-.8954933-3.62535514-2.0469004-.4917849-.5970183-.93923989-1.8337526-.44745499-2.217555.31377261-.2558455 2.19294505 1.066148 2.95348 1.1940366.76122761.1705864.04502256-1.5777707.44814764-1.4072525.53680746 0 .98426245.6823456 1.34236498 2.0895981l2.68472994 1.4072526z" fill="#e8a16d"/><path d="m19.6388169 17.1194631c-2.2822975.5543888-6.1306875-.0852591-11.54586264-1.9190118-1.34236497 2.643987-1.9685249 4.5203692-1.83484252 5.6290785 4.60961756 2.3028141 8.59238256 3.3262643 11.85894256 3.4115916-.0893525 1.8336845.134375 3.6248076.9399325 5.2026466 1.6111151 3.2836347 11.1877601.2558454 14.3649676.8528638 2.0135475-6.2260968-1.8798651-8.7421269-1.8798651-12.708039 0-4.3497828-3.6689924-11.04494097-4.2064925-11.04494097h-4.9226975c-.31308 3.28363477-1.655445 6.95107187-2.7740824 10.57581127z" fill="#70ce33"/></g><path d="m146.565694 100c-.956969.481256-10.565694 2.648063-10.565694 2.648063s5.087012 3.706827 6.000238 4.284335c.869482.578277 10.999762-2.743545 10.999762-2.743545z" fill="#9b1558"/><path d="m137.021162 99c1.017574.3139966 10.978838 1.210106 10.978838 1.210106s-4.781571 4.033925-5.577815 4.661918c-.841468.627277-11.422185-1.25527-11.422185-1.25527z" fill="#dc3579"/><g transform="translate(53 74)"><path d="m5.43926545 5.16640011 5.03257505 8.20798349-4.76027842-4.87478344-5.30508217-8.49960016z" fill="#9b1558"/><path d="m5.43996725 5.16626683 6.43827125.08330001 6.1210597 8.37458346-7.5260542-.2499666z" fill="#dc3579"/><path d="m.40809404.0006664 5.30487163 8.49960016 4.76098013 4.87478344 7.5260542.2499667-.0905316.3749833-7.6172876-.2083167-4.89642666-5.16640008-5.39575414-8.49960016z" fill="#212121"/><g fill="#9b1558" transform="translate(6.301772 5.562642)"><path d="m0 .06270825h.36282824l.40774314.54165001-.49897655-.04165001z"/><path d="m1.49412246.60402506-.49827475-.04165001-.31791333-.5h.40844494z"/><path d="m2.17416223.60402506h-.45335984l-.31721154-.54165001h.40774315z"/><path d="m2.9005205.60402506h-.45335985l-.36282823-.5h.40844494z"/><path d="m3.62617697.60402506h-.49897655l-.31721153-.5h.40774314z"/><path d="m4.35113165.60402506h-.49897655l-.31721154-.5h.40774315z"/><path d="m.45265805.85405838h.40844494l.36212644.5h-.45335985z"/><path d="m1.17620914.85405838h.40774314l.36282823.5h-.45335984z"/><path d="m1.9032692.85405838h.40774314l.36282824.5h-.45335985z"/><path d="m2.62822387.85405838h.40774315l.36282823.54165-.45335984-.04165z"/><path d="m3.30756185.85405838h.45335984l.36282824.54165h-.45335985z"/><path d="m4.03462191.85405838h.45335984l.36282824.54165h-.45335985z"/><path d="m.9509328 1.6037585h.40774315l.36282823.54165-.45335984-.04165z"/><path d="m1.67448389 1.6037585h.40774314l.36282824.54165-.45335985-.04165z"/><path d="m2.40294754 1.6037585.40774314.04171664.40774315.49993336h-.49827476z"/><path d="m3.12790222 1.6457417h.40774314l.40844494.5h-.49897655z"/><path d="m3.85285689 1.6457417h.40774315l.40844493.5h-.49897654z"/><path d="m4.57781157 1.6457417h.40844494l.40774314.54165001-.49897655-.04165001z"/><path d="m1.44850576 2.39610822h.40844494l.36282823.49993336h-.45335984z"/><path d="m2.17556582 2.39610822h.40774315l.36282823.49993336h-.45335984z"/><path d="m2.89911691 2.39610822h.40774314l.40844494.54158337-.49897655-.04165001z"/><path d="m3.62547517 2.39610822h.40844494l.40774315.54158337h-.45335985z"/><path d="m4.35253524 2.43775823h.45335984l.36282824.49993336h-.45335985z"/><path d="m5.12310661 2.43775823h.40774315l.40844494.49993336h-.49897655z"/><path d="m1.9032692 3.14547514h.40774314l.40774314.54165001-.49827475-.04165001z"/><path d="m3.08158372 3.14547514.36282823.54165001h-.45335984l-.31721153-.54165001z"/><path d="m3.80864378 3.18712515.40774314.5h-.49897655l-.31721153-.5z"/><path d="m4.57710977 3.18712515.36282824.5h-.45335985l-.31721153-.5z"/><path d="m5.30416983 3.18712515.40774315.54165001-.49897655-.04165001-.31721153-.5z"/><path d="m6.07474121 3.18712515.40774315.54165001h-.49897655l-.36212644-.54165001z"/><path d="m2.89911691 4.68719179h.40774314l.36282824.54165001-.45335985-.04165001z"/><path d="m3.67109188 4.68719179h.40844494l.36212644.54165001h-.45335985z"/><path d="m4.39604655 4.7285086h.40844494l.40774314.5h-.45335984z"/><path d="m5.16661793 4.7285086h.40844494l.40774314.54165-.49897655-.04171664z"/><path d="m5.93718931 4.7285086h.40844494l.40774314.54165h-.49897655z"/><path d="m6.70776069 4.7704918h.40844494l.40774314.49993336h-.49897655z"/><path d="m2.44645886 3.89584166h.40774314l.36282824.54158337-.45335985-.04165001z"/><path d="m3.21843383 3.93715847h.36282823l.40844494.49993336h-.45406164z"/><path d="m3.94198491 3.93715847h.40774314l.40844494.49993336h-.49897655z"/><path d="m4.71395988 3.93715847h.40844494l.40774314.54158337h-.49827475z"/><path d="m5.48312767 3.97880848h.40774314l.40844494.5h-.49897655z"/><path d="m6.25510264 3.97880848h.40844494l.40774314.5h-.49897655z"/><path d="m3.40019884 5.43722511.40844494.04165001.36212644.49993336h-.45335985z"/><path d="m4.16936663 5.47887512h.40774314l.36282824.49993336h-.45335985z"/><path d="m4.93993801 5.47887512h.40774314l.36282824.54165-.45335985-.04165z"/><path d="m5.66489268 5.47887512.40774315.04165.40844493.5h-.45335984z"/><path d="m6.43686765 5.52085832h.40844494l.40774314.49993336h-.49897654z"/><path d="m7.20743903 5.52085832h.40844494l.40774314.54158337-.49897655-.04165001z"/><path d="m3.94198491 6.22857524h.36282824l.40774314.54158336h-.49827475z"/><path d="m4.66904497 6.27055844h.40774315l.40844493.49993336h-.49897654z"/><path d="m5.43961635 6.27055844h.40774314l.40844494.54165001-.49897655-.04171665z"/><path d="m6.20808234 6.27055844h.40844494l.40774315.54165001h-.49897655z"/><path d="m6.98075911 6.31220845h.40774314l.40774314.49993336h-.49827475z"/><path d="m7.70571378 6.31220845h.45335985l.40774314.49993336h-.49827475z"/><path d="m4.44306685 7.02052512h.40844493l.36282824.5h-.45406164z"/><path d="m5.16661793 7.02052512h.40844494l.40774314.54165001-.49897655-.04165001z"/><path d="m5.93718931 7.02052512.40844494.04171665.40774314.49993336h-.49897655z"/><path d="m6.70776069 7.06217513h.40844494l.40774314.5h-.49897655z"/><path d="m7.47973566 7.06217513h.40844494l.40774314.54165001-.49827475-.04165001z"/><path d="m8.20539213 7.06217513h.45335984l.40774315.54165001h-.49827476z"/><path d="m5.89508158 2.43742503 1.9495877 2.79155005h1.31446283l-2.085736-2.83320006z"/></g></g><path d="m60 168h-30v4h30z" fill="#204f01"/><path d="m233 95.8287743h-7.048227v-9.8287743h-29.080799v39.960522h-26.021901v22.502627h-.0446v-34.572701h-30.80992v34.572701h-25.268499v-8.750907h-28.726054v32.287758h147z" fill="#204f01"/><g transform="translate(133 59)"><path d="m12.9335279 32.6800116-6.57794558 2.6343816c-1.8546171 2.0824936-2.91381257 2.9748938-3.13453524 2.6350613-.30955842-.5104284.39702746-.9773583.22072267-1.3600097-.17698815-.3826514-1.41317176-.3398325-2.6049375-.2548744-1.1924491.0849581-.83915616-.4254703-.57401561-.6803447 1.19176574-.679665 2.6930899-1.2743719 4.50328912-1.7419814l6.62236344-4.6740563zm26.6657585 9.4758897c.3095584.5953866 2.5167851 2.337368 4.0181092 3.3568655.6177502.4254703.353293.9352191.1325703 1.0623165-1.899035 1.1051353-3.1352186-.2120555-4.7684297-.9345394-1.7657813-.8074421-1.6338944 1.4449678-3.0463828.8495812.4414453-.9345394 1.4569063-2.6765208.9710431-3.824475-.2207227-.5097488-1.677629-4.9289308-4.326301-13.2575459h4.326301c1.3687539 7.6910894 2.2516445 11.9403551 2.6930899 12.7477971z" fill="#ac5419"/><path d="m24.543677 11.8152471-1.8101993-.2974214c-6.6667813 5.5241813-9.4036057 16.1901644-17.57171118 21.8418509l1.98718741 2.337368c14.17135207-1.6998422 17.70359807-14.6605783 17.39472307-23.8817975z" fill="#307205"/><path d="m26.3115084 7.31144682c.9717264-1.0623844 1.5894765-2.4221902 1.5013241-3.90943319-.308875-4.2918807-6.4897931-3.35706943-7.7259767-1.18982159-1.1924491 2.16717988-1.0598789 7.64888217.4851798 8.03132966.6184335.1699842 1.9427695-.2124633 3.2671055-1.01983735l-.8384728 5.73664465h4.988469z" fill="#ac5419"/><path d="m23.6184185 3.91183036c-.1763048 2.54962738-.7059026 3.82447506-1.5006408 3.82447506-1.2361837 0-2.2516446-.76489501-2.8256602-.76489501-.3977108 0-.3088751.46740564-.0444179.80737408.2207227.29742141 1.2806015.55243172 1.2806015 1.01983736 0 .46740563-.8391562.08495813-.8391562.3824475 0 .42492657-.1318869 1.27484765.6628514 1.27484765.7940549 0 3.0901174-.2974893 3.4871448-1.44483187.2651406-.72241595.4421287-2.29468504.4858632-4.58937008h.1325703c.7065859 0 1.2361836.55243173 1.2361836 1.18988955 0 .33990048-.1325702.63738986-.3977108.84985314.3095584.38244751.6184335.80737408.9717264 1.23230065 1.4124885-.80737407 3.0463829-3.18701724 1.677629-5.43922321-.3977108-1.10479549-1.8546171-1.69970628-2.8700781-1.9547166-.7947382-.33990047-1.6776289-.3824475-2.3835314-.16991625-1.4131718.12743719-2.6493554.50988469-3.0026484.76482704 0 1.27484768.2651406 1.65729518 2.4286328 1.61481612.662168.29742141 1.0591954.76489501 1.5006408 1.40228487z" fill="#212121"/><path d="m19.4226377 4.59169928c-.3532929.55243172-.7510038 1.10486345-1.1480312 1.65729518-.6184335.80737408.9710431.76489502 1.4124884.67986892" fill="#ac5419"/><g fill="#212121" transform="translate(19.51079 3.657228)"><path d="m0 4.97140979c.17698815-.0850261.39771082-.0850261.57401561-.0850261.17698815 0 .35329294 0 .53028109-.04247906-.08883575.16998422-.30955842.25494235-.53028109.25494235-.17630479 0-.35329294-.04247907-.57401561-.12743719z"/><path d="m1.45690629.80710221c-.75100376-.08495813.35260958 1.10493142.30887506.12750516-.13257027-.04247907-.26514054-.08495813-.39771081-.12750516"/><path d="m.79610498.4248586c.08883575-.12750515.22072267-.21246328.35329294-.25494234.13257027-.04254703.26514055-.04254703.39771082-.04254703.13188692 0 .26445719.04254703.39702746.08502609s.26514055.16998422.30887507.29742141l-.35329294.04247906c-.13188692 0-.22072267 0-.30887507 0s-.22072267 0-.30887507-.04247906c-.22072266-.04247906-.35329294-.08495813-.48586321-.08495813z"/></g><path d="m32.4029073 33.5724118c-7.196379 0-12.4944064 0-15.8933988 0-.7065859 0-.5740156-1.0201772-.4858632-1.529926 1.1924491-5.8640138 5.9601954-12.2381163 5.9601954-20.5669353l4.5914415-.6798689c3.7529687 5.8216707 5.0773047 13.0456263 5.8276251 22.7767302z" fill="#f2f9e5"/><path d="m32.2717038 16.5325981c.662168-.1699843 1.1917657-.5949108 1.5894765-1.2748477 1.677629-2.8895958 1.0598789-4.504344-.7065858-5.0567757-1.7657814-.55243175-3.3989925.5524317-6.2246527.5524317-.1769881 0-.3095584 0-.4414453.0424791l-1.4569063.0850261c-4.1062616 13.4280738-5.2542929 22.3944866-3.3996758 26.8986266h12.4944065c.7503204 1.6570234 1.4569063 3.059852 2.1190743 4.2071265h3.3989924c.3532929-10.0284573-2.1190743-18.4850534-7.3726838-25.4540666z" fill="#47aa0a"/></g></g></svg>