<svg height="320" viewBox="0 0 248 320" width="248" xmlns="http://www.w3.org/2000/svg"><g fill="none" transform="translate(17 19)"><path d="m3 83 61.266245-9.0789526 3.1396876-24.3390021.5940674-13.7335469-1.6971918-27.8484984-53.4593638 1.52594966-5.26114939 3.05189934-2.54573186 8.3163648 1.69719181 14.343971.5939557 13.8860424-.5939557 11.2157687-1.27281008 11.3682641z" fill="#3d2884"/><path d="m63.1739473 74-2.1739473-.4595757c0-.0765959 2.9564814-10.7991398 3.7391299-16.6199874 1.5651825-11.2587155 1.5651825-24.0493499-.0869991-40.0566808v-.2297878c-.4347666-4.2124438-.9564178-8.96105929 1.4782979-13.02031122 1.3042997-2.22117133 4.1738965-4.21244382 7.1303778-3.4465954 3.2173642.84255536 4.6082052 4.59542353 5.4781962 7.12286762.0869991.30638377.1739982.5361716.2609973.76595943l-2.0870627.61265653c-.0869991-.22967682-.1738837-.53606059-.2608828-.84244436-.7826485-2.06797944-1.9129501-5.28467601-3.9998983-5.82084761-1.7391807-.45957566-3.5652461.9190403-4.5217784 2.52744409-2.0869482 3.4465954-1.6521816 7.73563522-1.2174151 11.87148312v.2297878c1.6521817 16.1605228 1.7391808 29.0277531.0869991 40.5162564-.8695331 5.8974436-3.7391298 16.3901996-3.8260145 16.8497753z" fill="#fff"/><path d="m11 9.70693905 2.2331163-.55291652 60.2085481-9.08294166s5.1534672-1.42167086 7.5583356 8.45103707l-62.0122276 9.47788206s-1.2884234-3.7120961-1.546108-4.1070364c-.6871214-1.3426828-1.717747-2.5273895-3.0061704-3.3962583-.944693-.71077818-2.1471837-.6317901-3.435494-.78976625z" fill="#d6cde4"/><path d="m79.8432462 8-60.8432462 9.1927912.1568649.8072088 60.8431351-9.19279124z" fill="#564394"/><path d="m7.89061981 149c-.08568254 0-.08568254 0-.17136509 0-1.02762679-.076642-1.79843144-.919709-1.7127489-1.839417l11.21888868-121.6220292c.0855698-.9195976 1.0276268-1.6093791 2.0552536-1.5327367 1.0277395.0766424 1.7984314.9195976 1.7128616 1.8393062l-11.21888864 121.6220287c-.17125235.843067-.94194426 1.532848-1.88400125 1.532848z" fill="#efe8f4"/><path d="m6.47505064 148c-.27428566 0-.54857132-.231686-.45710265-.463371l11.97637801-118.1504863c0-.2316856.2742857-.3861427.5485714-.3861427.2741653 0 .4571026.2316856.4571026.4633712l-11.97637805 118.1504858c0 .231686-.27428566.386143-.54857131.386143z" fill="#bcb1d4"/><path d="m39.1424356 178c-1.0575962 0-1.8508804-.695711-1.9390618-1.623325l-2.2033738-76.676049c0-.9276142.7932842-1.700626 1.8508804-1.700626 1.0577123 0 1.9390618.6957106 1.9390618 1.6233248l2.2033738 76.6760492c.0881814.927614-.7051028 1.700626-1.8508804 1.700626z" fill="#efe8f4"/><path d="m37.5262775 177c-.2367573 0-.3947341-.154011-.3947341-.385028l-2.1315434-77.1529383c0-.2310168.1578729-.4620337.3947341-.4620337.2368613 0 .4737225.1540112.4737225.3850281l2.1315434 77.1529379c-.0789884.308023-.2368613.462034-.4737225.462034z" fill="#bcb1d4"/><path d="m99.1377406 161c-.8353507 0-1.6696022-.540049-1.7531373-1.388698l-13.3590164-68.6589249c-.1670701-.9257986.5012105-1.7744473 1.5025322-1.9287471 1.0024208-.1542997 1.9202074.4628993 2.0872776 1.388698l13.3590163 68.658925c.16707.925799-.50121 1.774447-1.5025321 1.928747-.083535 0-.2506052 0-.3341403 0z" fill="#efe8f4"/><path d="m99.5525094 160c-.2561117 0-.4268529-.154434-.4268529-.308869l-15.1038526-76.2077416c-.0842473-.2316515.0853706-.4633029.3414823-.4633029.2561117-.0772172.5122235.0772171.5122235.3088686l15.1027293 76.2077419c.085371.154434-.0853706.386086-.4257296.463303.0853706 0 .0853706 0 0 0z" fill="#bcb1d4"/><path d="m19 17.4829683 12.7247575 82.5170317 62.2752425-12.2358378-14.3263488-79.7641622z" fill="#efe8f4"/><path d="m17.8379041 17.0828488c-.6927419-2.9201639-2.3379041-7.0699643-5.7149781-7.91522803-2.94423848-.76841143-5.80172752 1.22952513-7.10057581 3.45812993-2.42465361 3.9959845-1.90506869 8.7604917-1.47211926 13.0638853v.2305569c1.64527623 16.0609015 1.73179772 28.8943414.08652149 40.1907357-.77926338 5.8402164-3.55023093 16.060456-3.63675242 16.1373083l1.99159018.9222274c.08652149-.4611137 2.94412453-10.9119101 3.81002339-16.8289789 1.64527623-11.4500988 1.55864075-24.360391-.08663549-40.6518494v-.2305568c-.43294943-4.149689-.86589886-8.4530826 1.21232681-11.9112125.95253434-1.6137865 2.85748904-2.9970163 4.50276531-2.5359025 4.8491932 1.3063774 4.9358287 10.3742782 5.5419351 14.2165582 1.0391698 6.5319983 2.0782256 13.0639967 3.2039169 19.5958837 1.2988483 7.9920803 2.5978106 15.9841606 3.8966589 23.9761296 1.1256913 6.9163711 2.2513827 13.7551103 3.377074 20.6718156.5195849 3.2277958.7793773 5.0722506 1.2988483 8.2989326l.1732709 1.4601933 2.0782257.7685228c-.4329494-2.6898298-.8660129-5.3016936-1.2989623-7.9915234-1.0390558-6.3787393-1.9915902-12.8332171-3.030646-19.2119565-1.2123268-7.8382644-2.5111751-15.6766401-3.7235019-23.5150159-1.1256913-6.9161484-2.1648611-13.8322968-3.2905525-20.7485565-.6061064-3.6885754-.9525343-7.3772621-1.7317977-11.0658374 0-.0768523 0-.2305569-.0866355-.3842615z" fill="#564394"/><g fill="#ea931f" transform="translate(27 26)"><path d="m1.69524906.77567589c.84373767 1.20511476.92815587 2.71153549.92815587 4.06730324.08430712-.07532649.25303244-.15065299.33745063-.22597949-.75943054.22597949-1.60316821.150653-2.36248768.150653-.25314351 0-.75943054.30130598-.33756171.30130598.92815586 0 1.85631173.07532649 2.78446759-.15065299.08430712 0 .33745064-.0753265.33745064-.22597949.08441819-1.35576775-.08430712-2.86218848-.92815587-4.06730324-.16872532-.22597948-.84373766 0-.75931947.15065299z"/><path d="m.17927596 1.00198289c1.2656065 0 2.44690588-.45195898 3.71251238-.5271763.33756171 0 .59059415-.45195897.0844182-.37663248-1.18129938.0753265-2.36259876.5271763-3.54389814.5271763-.25303244 0-.67490127.37663248-.25303244.37663248z"/><path d="m4.81905559 2.50905863c.92815586.150653 2.02503705-.22587031 1.77189353-1.20511475 0-.0753265-.0844182-.0753265-.16872532-.0753265-.92815586-.22587031-2.19376236 0-2.10945524 1.12989743.0844182.75315579.67501235 1.65707373 1.60316821 1.58174723.67501235-.07532649 1.18129938-.52728546 1.51875002-1.05457093.16883639-.30130598-.59059415-.22597948-.67501235 0-.16872532.22597949-.42186883.75326495-.84373767.67793846-.33756171-.0753265-.59059415-.45195897-.75943054-.75326495-.16872532-.30119682-.25314352-.67782929-.08430712-1.05446177.16872531-.37663248.50617595-.22597948.84373766-.15065299-.08441819 0-.08430712-.07532649-.16872532-.07532649.0844182.45195897-.08441819.75326495-.59070522.67793845-.16872532 0-.42186884 0-.50628703.15065299.08441819 0 .00011107.0753265.16883639.15054382z"/><path d="m2.45490176 7.40386163c0 1.43109424-.0844182 5.34785367 2.69993832 4.06741237.42186883-.2259794.0844182-.5272854-.33745064-.3766324-1.77189353.8284822-1.60316821-3.01284151-1.60316821-3.76610646-.08430712-.37652331-.75931947-.22597949-.75931947.07532649z"/><path d="m2.62551538 9.28724235h1.3500247c.16872532 0 .42186883-.07532649.50628703-.15065299.0844182-.15065299-.0844182-.22597949-.16872532-.22597949-.42186883 0-.92815586 0-1.3500247 0-.16883639 0-.42186883.0753265-.50628703.15065299-.08441819.150653.0844182.22597949.16872532.22597949z"/><path d="m5.32345432 8.61006808c-.0844182 1.05446176.50617595 2.93751502 2.10934417 2.48555602 1.6875864-.5271763.59059415-2.33490303 1.09688118-3.3893648.16872531-.37663248-.59059415-.30130598-.67501235-.07532649-.33745064.82848227.0844182 1.80761754-.16872532 2.63620899-.33745064.7531558-1.01246298.301306-1.2656065-.2259795-.25314351-.45195896-.33756171-.97913525-.25314351-1.43109422-.0844182-.37663248-.84373767-.30130599-.84373767 0z"/><path d="m4.56935545 15.614668c.25314352.8284822.25314352 1.732291.42186883 2.5608825.0844182.3013059.75943055.1506529.75943055-.150653-.1688364-.8285915-.25314352-1.7324003-.42186883-2.5608825-.0844182-.3766325-.84384875-.150653-.75943055.150653z"/><path d="m4.22801713 14.2589002v.3765233c0 .150653.75931947.0753265.75931947-.1505438 0-.150653 0-.2259795 0-.3766325 0-.2259795-.75931947-.0753265-.75931947.150653v.3765233c0 .150653.75931947.0753265.75931947-.1505438 0-.150653 0-.2259795 0-.3766325 0-.2259795-.75931947-.0753265-.75931947.150653z"/><path d="m5.49062457 13.5055261c-.16872532 1.4310942.75943054 2.7115355 1.09688118 4.1426297 0 .150653.33756171.150653.42186883.0753265.33756171-.0753265.67501235-.0753265 1.01246298-.150653.42186884-.0752173.33756172-.4518498-.08430712-.3765233-.33756171.0753265-.67501234.0753265-1.01257406.150653.1688364 0 .25314352.0753265.42186884.0753265-.33745064-1.3557677-1.2656065-2.5609917-1.09677011-3.9920859 0-.3011968-.75943054-.2258703-.75943054.0753265z"/><path d="m11.1487542 11.9241064c0 2.334903-.3374506 4.7452417-.3374506 7.0801447.2531435-.0753265.506176-.150653.7593195-.150653 0-.0753265 0-.0753265 0-.150653 0-.150653-.7593195-.0753265-.7593195.150653v.150653c0 .150653.7593195.0753265.7593195-.150653 0-2.334903.2531435-4.7452417.3375617-7.0801447-.0844182-.2259795-.7594306-.0753265-.7594306.150653z"/><path d="m13.0869294 14.559442c.9281559.1505438 2.1094552-.150653 1.7720046-1.2052239 0-.0752173-.0844182-.0753265-.1688364-.0753265-.4218688-.0752173-.8437377-.0752173-1.2656065 0-.0844182 0-.3375617.0753265-.3375617.2259795-.1687253.7532649-.4217578 1.6570737.6751234 2.0337062.5905942.2259795 1.6874754.150653 1.8562007-.5272855.0843071-.2259795-.6750124-.0753265-.7593195.0753265-.1688364.5272855-.9281559 0-1.0968812-.301306-.2531435-.4518498-.0844182-.9791352 0-1.4310942-.0844182.0753265-.2531435.150653-.3375617.2259795.2531435-.0753265.506287 0 .7594306 0-.0844182 0-.0844182-.0753265-.1688364-.0753265.0844182.150653.1688364.4519589 0 .6779384-.1687254.150653-.4218689.0753265-.5905942.0753265-.0844182-.0753265-.7594305.2259795-.3375617.301306z"/><path d="m14.773405 11.4710557c.2530325 1.3557677.8437377 2.636209 1.4343319 3.9166502 0 .0753265.1687253.150653.2531435.150653.2531435 0 .506287.0753265.8437376 0 .4218689 0 .5907053-.4519589.0844182-.4519589-.2531435 0-.4218688 0-.6750123 0 .0844182.0753265.1687253.0753265.2531435.150653-.506287-1.2804413-1.1812994-2.5608825-1.4344429-3.9166503-.0843071-.2259795-.8437377-.0753265-.7593195.150653z"/><path d="m17.0529185 11.0195334c0 1.5817472.4218689 3.0128415.7593195 4.5192622.0844182.150653.4218688.150653.506287.0753265.1687253-.0753265.5062871-.150653.7594306-.2259795.5061759-.150653.0843071-.5272854-.3375617-.3766325-.3374507.150653-.4218689.150653-.7593195.2259795.1687253 0 .3374506.0753265.5061759.0753265-.3374506-1.5064207-.7593194-2.8621885-.7593194-4.4439357.0843071-.2259795-.6750124-.0753265-.6750124.150653z"/><path d="m19.6666614 13.5807434c.9281559.150653 1.8563117-.2259795 1.6031682-1.2051147 0-.0753265-.0844182-.0753265-.1688364-.0753265-.5061759 0-1.0967701.0753265-1.4343318.5271763-.2531435.4519589-.2531435.9792444-.1687253 1.4310942 0 0 0 .0753265.0843071.0753265.7594306.2259795 1.7718935.301306 2.2781806-.3765233.0844182-.0753265 0-.150653-.0843071-.150653-.1688364 0-.3375618 0-.4218689 0-.1688364 0-.8438487.2259795-.506287.301306h.4218688c0-.0753265-.0844182-.0753265-.0844182-.150653-.1687253.150653-.2531435.2258703-.506287.2258703-.0843071 0-.3374506.0001092-.4218688-.0752173-.0843072-.0753265-.0843072-.3766325-.0843072-.5272855 0-.2259795.0843072-.9791353.4218689-.9791353-.0844182 0-.0844182-.0753265-.1687253-.0753265 0 .150653.0843071.3765234 0 .5271763-.0844182.2259795-.1688364.2259795-.4219799.150653-.0843072.0753265-.7593195.3766325-.3374507.3766325z"/><path d="m5.2372589 24.2013426c4.64066824-.301306 9.1126112-1.7324003 13.7532794-2.1090327.2531435 0 .7594305-.3765233.3375617-.3011968-4.6407793.3765233-9.1126111 1.8076175-13.75327939 2.1089235-.25314352 0-.84384874.301306-.33756171.301306z"/><path d="m6.08543963 28.7958221c5.31568057-.3766325 10.37821767-2.7115355 15.60948007-3.8414329.4218688-.0753265.3375617-.4518498-.0843071-.3765233-5.0625371 1.1297882-10.2094924 3.3893648-15.35644766 3.7659972-.50628703.0753265-.67501234.5272855-.16872531.451959z"/><path d="m6.92984375 33.3904108c5.65313125-.301306 11.30637355-.5272855 16.62205415-2.5608825.506287-.150653 0-.301306-.2531435-.150653-5.0625371 1.9582706-10.6313612 2.18425-16.03134894 2.4102295-.25314351 0-.84384874.301306-.33756171.301306z"/><path d="m6.58795005 38.8134818c-.16872531.9038088.08430712 2.485556 1.43433182 2.4102295 1.68747533-.150653 1.60316821-1.8077267 1.3500247-2.8621885-.08430712-.2259795-.75931947-.0753265-.75931947.150653.08430712.4518498.42186883 2.485556-.67501235 2.2595765-.75943055-.2259795-.75943055-1.5064207-.67501235-2.033597.08430712-.2259795-.67501235-.150653-.67501235.0753265z"/><path d="m10.555161 37.909673c-.1688364.9038088-.2531435 1.8077267-.1687253 2.7115355 0 .2259795.6749013.0753265.7593195-.150653.0844182-.5271763-.0844182-.9791353-.1687253-1.5064207-.0844182-.3766325 0-1.8830532.9281558-1.3557678.4218688.2259795.3374507 1.0544618.3374507 1.4310943 0 .4519589-.0844182.9039179 0 1.3557677 0 .2259795.7594305.0753265.7594305-.150653-.0844182-.9038087.5905941-3.0881679-1.1812994-3.0881679-.7594305 0-1.4344429.3766324-1.51875 1.0545709-.1687253.7531558.2531435 1.5817472.1687253 2.334903.2531435-.0753265.5062871-.0753265.7594306-.150653-.0844182-.9038088 0-1.7324002.1687253-2.636209-.0844182-.2259795-.8437377-.150653-.8437377.150653z"/><path d="m14.9453516 39.4157662c0 .451959-.1687253.9038088-.6749013 1.1297883.1687253 0 .2530324 0 .4218688-.0753265v-.1505438c0-.150653-.7594305 0-.7594305.1505438 0 .150653-.0844182.2259795.1687253.2259795s.5907052-.150653.7594306-.2259795c.506287-.3011968.7593194-.7531558.7593194-1.2804412 0-.0753265-.6750123.0753265-.6750123.2259794z"/><path d="m20.006889 36.3278166c-1.9406189-.6026119-2.6156312 1.2804413-2.7000494 2.636209h.0844182c1.012574.301306 2.2781805.2259795 2.531324-.9038088.2531436-1.2804412-.3375617-2.5609916-.0844182-3.8414329 0-.150653-.6750123-.0753265-.7593194.150653-.2531435 1.1297883.2531435 2.2596857.1687253 3.389474 0 .3766324-.3375617 1.7324002-1.0968812 1.0544617-.506287-.3766325.2531435-2.5608825 1.0968812-2.2595765.3374506.0753265.8437377-.2259795.7593195-.2259795z"/><path d="m20.8489605 37.1559714c.6750123.150653 1.6031682.0754357 1.8563117-.6025028.2530324-.6779385-.506287-.9791353-1.1812994-.9038088-.1687253 0-.4218688.0753265-.506287.2258703-.1687253.602612-.9280448 1.7324003 0 2.1843592.7594305.3766325 1.9406188-.0753265 2.3624877-.7532649.1688364-.2258703-.5905942-.1505438-.6749013 0-.3375617.451959-1.2656065.7532649-1.3500247 0-.0844182-.5271763.2531435-1.0544618.4218688-1.5063116-.1687253.0752173-.3375617.1505438-.506287.2258703.3375617 0 .7594306.0753265.7594306.451959 0 .301306-.2531436.5272855-.5907053.3766325-.1687253-.0753265-.3374506 0-.5061759.0753265-.0844182.0753265-.2531435.2258703-.0844182.2258703z"/><path d="m23.2960885 35.5746608c-.4218688.9791353.4218688 2.0335971 1.6031682 1.8077267 1.2656065-.2259794 1.1812994-1.3558769 1.1812994-2.3350121 0-.0753265-.7594305 0-.7594305.150653v.9791352c0 .2259795-.0844182.8285915-.4218689.903918-.3375617.0753265-.7594305-.451959-.8437376-.6779385-.1687254-.301306-.1687254-.6778293-.0844182-1.0544618.0844182 0-.6750124.0753265-.6750124.2259795z"/><path d="m26.3362544 35.122811c1.012574.3766325 1.5188611 1.2804413 2.2781805 1.9583797.1688364.150653.8437377-.0753265.6750124-.2259794-.7593195-.6779385-1.2656065-1.5817473-2.3624877-1.9583798-.1687253-.1506529-.8437377.150653-.5907052.2259795z"/><path d="m28.9522188 34.7466152c-1.1812994.9038088-2.2781806 1.8830532-3.1219182 3.0128415-.2531435.301306.5061759.301306.6749013.0753265.8438487-1.0544618 1.8563117-1.9583797 2.9531929-2.786862.3375617-.3766325-.2531436-.5272855-.506176-.301306z"/><path d="m30.9724796 36.7797756c-.0844182.7531558-.6750124 1.2804412-1.2656065 1.7324002-.0844182.0753265.0843071.150653.1687253.150653.1687253 0 .3374506-.0753265.5061759-.150653.5907053-.5272855 1.1814105-1.0545709 1.3501358-1.8077267 0-.150653-.7594305-.0753265-.7594305.0753265z"/><path d="m33.0833788 32.4118214c-.1687253.9791353-.7594305 2.5608825-.1687253 3.5400178.4218688.6026119 1.3500247.6026119 2.025037.6779384.3374507.0753265.7593195-.3766325.2531435-.451959-.7594305-.0753265-1.5188611-.0753265-1.6875864-.8284822-.2531435-.903918.1687253-2.0337062.3375617-3.0128415 0-.301306-.6750123-.2259795-.7594305.0753265z"/><path d="m33.0004046 33.9932411 1.2656065.2259795c.1687253 0 .3374506 0 .5061759-.0753265.0844182 0 .2531436-.150653.0844182-.150653-.4218688-.0753265-.8437376-.150653-1.2656065-.2259795-.1687253 0-.3375617 0-.506287.0753265-.0844182 0-.2531435.150653-.0843071.150653z"/><path d="m35.7874269 33.6163903c-.1687253.8284823-.1688363 1.6570737-.1688363 2.5608825 0 .0753265.6751234 0 .7594305-.150653.1687253-.9038088-.1687253-1.7324002.0844182-2.636209-.1688364.0753265-.3375617.150653-.506287.150653.506287-.0753265.9281558.2259795.9281558.6778293 0 .150653-.2531435.3766325-.2531435.451959-.0844182.0753265-.0844182.0753265.1687253 0-.0843071 0-.0844182 0-.1687253-.0753265-.0844182-.0753265-.2531435-.150653-.3375617-.2259795-.2531435.0753265-.4218688.150653-.6750123.2259795.9281558.0753265 1.3500246.8284822 1.9406188 1.4310942.1688364.150653.7594305-.150653.7594305-.150653-.5905941-.6025028-1.0124629-1.4310942-2.025037-1.5064207-.0843071 0-.7593195.0753265-.6750123.2259795.506287.4519589 1.51875.4519589 1.9406188-.150653.506287-.8284823-.506176-1.1297883-1.1811883-1.0544618-.0843071 0-.506287.0753265-.506287.150653-.2531435.9038088.0844182 1.8077267-.0843072 2.636209.2531436-.0753265.5062871-.150653.7593195-.150653 0-.8284823.0844182-1.6570737.1687253-2.5608825-.2531435 0-.9280448 0-.9280448.150653z"/><path d="m39.9200309 33.0896507c-.6750123-.150653-1.4343318.0753265-1.6874753.6779384-.2531435.5271763-.2531435 1.2804413.0843071 1.7324002.506287.6025028 1.3501358.7531558 2.0251481.2259795.506176-.4519589.5905942-1.2805504.6749013-1.8830532-.4218688-.150653-.7593195-.3766325-1.0968812-.7532649-.0843071-.150653-.7594305.150653-.6750123.2259795.2531435.3013059.506287.4519589.8437376.6779384.1688364.150653.1688364.2259795.1688364.4518498 0 .150653-.0844182.2259795-.0844182.3766325-.0843071.2259795-.1687253.451959-.2531435.6779384-.0843071.0753265-.1687253.2259795-.2531435.3011969-.0843071.0753265.0844182 0 0 0-.0843071 0-.1687253-.0753265-.2531435-.1505439-.506176-.3013059-.6749013-.6779384-.6749013-1.2052239 0-.2258703-.000111-.5271763.0843071-.7531558 0-.0753265.0844182-.150653.1687254-.3013059.0844182-.150653.0844182-.150653.2531435-.150653.2531435.150653.9281558-.0753265.6750123-.150653z"/><path d="m41.0145795 32.8627978c-.1687253.903918-.1688364 1.7324003.0843071 2.6363182.0844182.2258703.7594306 0 .7594306-.150653-.2531435-.9039179-.1688364-1.6570737-.0844182-2.5608825.0844182-.2259795-.6750124-.150653-.7593195.0752173z"/><path d="m43.6300996 32.4869295c-1.012463.150653-1.2656065.7531558-1.3500247 1.5817473 0 0 0 .0753265.0844182.0753265.4218689.0753265.7594306.0753265 1.1812994.0753265.2531435 0 .4218688 0 .4218688.2259794 0 .150653-.0844182.3765234-.1688364.5271763.1688364-.0753265.42198-.1506529.5907053-.2259794-.5062871 0-.9281559 0-1.3500247.0753265-.0844182 0-.4218689.0753264-.5062871.1506529-.0843071.0753265.0844182.150653.1688364.150653.4218689-.0753265.8437377-.0753265 1.2656065-.0753265.1687254 0 .5062871 0 .5905942-.2259794.0844182-.2258704.1687253-.5271763.1687253-.8284823 0 0 0-.0753265-.0843071-.0753265-.3375617-.0753265-1.4344429 0-1.6031682-.2259795-.0844182-.2259795.1687253-.9791353.4218688-1.0544618.3374506.0753265.6750124-.150653.1687253-.150653z"/><path d="m41.9422911 31.6574647c-.4218689.0753265-.9280448.2259795-.6750124.6779385.0844182.150653.7594306-.0753265.7594306-.150653s-.0844182-.0753265-.0844182-.150653c0-.150653 0-.150653-.1687254-.0753265.3374507-.0753265.6750124-.301306.1687254-.301306z"/><path d="m10.4729644 44.7643841c-1.26560655-.2259795-2.53132412-.301306-2.95319296 1.0534792-.42186883 1.3558769 1.01257406 1.6571829 2.27818056 1.7325094.16872532 0 .506287-.0753265.506287-.2259795.0843072-.8285914.9280448-1.8078359.1687254-2.5600091-.0844182-.150653-.6750124 0-.6750124.2248878.0844182.6779384.3374506 1.2805504.506287 1.9584889.1687254.6779384.1687254 1.2805504.1687254 1.9584888 0 .2259795.7594305.0753265.7594305-.150653 0-.6779384 0-1.3558769-.1688364-1.9584888-.1687253-.6779385-.506176-1.2805505-.5905941-2.0327237-.1687254.0742348-.4218689.1495613-.6750124.2248878.5905942.6779384-.08441819 1.6571829-.25314351 2.3351213.16872532-.0753265.33756171-.150653.50628701-.2259795-.75943053 0-1.77189351-.0753264-1.85631171-.9039179 0-.3766325.1688364-.9792444.50628703-1.2052239.33756171-.2248878.84373767 0 1.2656065.0753265.25314348.150653.92815588-.2259795.50628708-.3002143z"/><path d="m11.2319506 44.6879659c-.0844182.753265-.0844182 2.0338154 1.012463 2.0338154.5905941 0 1.1811883-.301306 1.2656065-.753265.1687253-.5272854-.0843071-.9792444-.1687253-1.5065299-.0843072-.301306-.8437377-.150653-.7594306.150653.0844182.301306.2531435.6779385.2531435.9792444 0 .301306-.0843071.753265-.5061759.602612-.5062871-.150653-.4219799-1.2052239-.3375617-1.5818564 0-.301306-.6750124-.2259795-.7593195.0753265z"/><path d="m14.2708946 43.9350285c0-.0753265 0-.301306.1687253-.301306.0844182 0 .2531435.150653.3375617.150653.0843072.150653.1687254.3009784.2531436.4516314.0843071.3766325.1687253.753265.2531435 1.1298975 0 .1506529.6749012 0 .7593194-.150653.0843072-.5272855-.506287-1.2048964-1.0968811-1.1298975-.7594306 0-1.1812994.602612-1.2656065 1.205224-.1688364.6026119.1687253 1.0545709.9281558.9039179.5905942-.0753265 1.2656065-.5272855 1.51875-1.0545709.0843072-.0753265-.6750123-.0753265-.7594305.150653-.0844182.2259794-.506287.7532649-.6750124.6779384-.4218688-.0753265-.2531435-.7532649-.1687253-.9792444.0843072-.150653.0843072-.301306.2531435-.451959 0-.0753265.0843072-.150653.1687254-.2259795-.2531436.150653-.0844182.150653 0 .2259795.2531435.2259795.506287.602612.4218688.903918.2531435-.0753265.506287-.150653.7594305-.150653-.1688364-.5272855-.1688364-1.5815289-.8437376-1.8075084-.5907053-.150653-1.6031682.0753265-1.6031682.6776109-.0844182.0753265.5905941 0 .5905941-.2256519z"/><path d="m15.8730631 42.5036067c-.0844182.9792444 0 4.0675216 1.9406189 2.8622977.4218688-.2259795-.1687253-.451959-.506287-.301306-.5905942.3766325-.7593195-2.3350122-.7593195-2.7116447.0844182-.2258703-.6750124-.0753265-.6750124.150653z"/><path d="m17.5580948 43.332744c-.0843071.6025028.3375617 1.0539159.4218688 1.6565279.0844182.301306.7594306.0753265.7594306-.150653-.0844182-.3766325-1.0125741-1.1293516-.5907053-1.5058749.1687254-.150653.7594306-.2259795.8437377.0753265.0844182.3765233-.7593195.3011968-1.012463.3011968-.1687253 0-.506287.301306-.1687253.3771783.5905942.150653 1.012463.6015203 1.51875.9028263.2531435.150653.8437377-.150653.5905942-.3766325-.506176-.3755408-1.012463-.8280456-1.6874754-.9786986-.0844182.150653-.0844182.2259795-.1687253.3766325.3374507-.0753265.6750124.0758723 1.0968812-.0753265.2530324-.0753265.506176-.301306.5905941-.6025028.0844182-.602612-.6750123-.6779385-1.1812993-.602612-.4218689.0753265-1.1811883.301306-1.2656065.753265-.0844182.6030486.5907052.9032629.6750123 1.4305484.2531435-.0753265.506287-.150653.7594306-.150653-.0844182-.5272855-.5062871-.9786986-.4219799-1.5058749.0844182-.301306-.6749013-.150653-.7593195.0753265z"/><path d="m15.956926 43.483397c.2531435 0 .506287.0752173.7593194.0752173.1688364 0 .8437377-.2258703.5062871-.3011968-.2531436 0-.5062871-.0753265-.7594306-.0753265-.1687253 0-.8437377.301306-.5061759.301306z"/><path d="m20.1748367 43.6336133c.4218689.0753265.9281559.2259795 1.4344429.0753265.506176-.150653.506176-.602612.506176-1.0545709 0-.0753265-.0844182-.0753265-.1687253-.0753265-1.0125741-.2258703-2.1937624.301306-1.8563117 1.3557677.3375617 1.1297883 1.7720046.9038088 2.531324.3011968.3375617-.2258703-.4218688-.2258703-.5905941-.0753265-.2531435.150653-.4219799.3766325-.7594306.2259795-.2531435-.150653-.4218688-.3765233-.4218688-.6023936-.0844182-.2259795-.0844182-.451959.0844182-.6779385.1687253-.2259794.4218688-.150653.6750123-.0753265-.0844182 0-.0844182-.0753265-.1688364-.0753265 0 .150653 0 .301306-.0843071.451959 0 .0753265-.0844182.150653 0 .150653-.1687253.0753265-.506287-.0753265-.7594305-.150653-.1687253-.2259795-.7594306.0753265-.4218689.2259795z"/><path d="m24.1401594 43.935356c0 .2264161-.0001111.8290281-.3375617.9043546-.0844182.0753265-.2531435.150653-.1687253.301306.0843071.150653.3374506.0753265.506287 0 .6750124-.2259795.6749013-.6779385.7593195-1.2809871 0-.2258704-.6750124-.150653-.7593195.0753265z"/><path d="m27.7719191 41.6761069c-.5905941-.0753264-1.2656065-.0753264-1.51875.451959-.1687253.3766325-.3374506.9791353-.2530324 1.4310943.2530324.9792444 2.1936512.7532649 2.4467948-.0753265.0844182-.301306-.6750124-.150653-.7593195.0753265-.0844182.2259794-.4219799.2259794-.6750124.150653-.2531435-.0753265-.3375617-.301306-.3375617-.5272855s.0844182-.5272855.1688364-.7531558c0-.0753265.0843072-.2259795.1687253-.301306.0843072-.0753265.4218689 0 .5062871 0 .2530324 0 .7593194-.451959.2530324-.451959z"/><path d="m28.3564041 41.6750153c-.0844182.6025028 0 1.1297882.0843071 1.7324002 0 .150653.7594305 0 .7594305-.150653-.0843071-.5272855-.1687253-1.0544618-.0844182-1.5817472 0-.301306-.6749012-.2259795-.7593194 0z"/><path d="m30.4667479 43.4828511c0-.2259794-.3374506-1.3558769.0844182-1.3558769.2531435 0 .3374506.3766325.4218688.451959.0843072.2259795.2531436.451959.4218689.6779385.2531435.2259794.9281558-.0753265.6750123-.301306-.3375617-.301306-.3374506-.6779385-.5905941-.9791353-.2531435-.301306-.5907053-.3766325-1.0125741-.301306-1.0968812.2259795-.7593195 1.1297883-.7593195 1.8829441.0843072.301306.8437377.150653.7593195-.0752174z"/><path d="m33.4204962 41.1487123c-.6750123-.0753265-1.1812994.3766325-1.3500247.9038088-.1687253.7532649.4218688 1.1298974 1.1812994 1.1298974.1687253 0 .4218688-.0753265.5061759-.2259795.2531436-.5272854.5062871-.9792444.3375618-1.5817472-.0844182-.301306-.7594306-.0753265-.7594306.150653.2531435 1.0544618.5907052 2.2595765.3375617 3.3896923-.0844182.301306.6750124.2259795.7593195-.0753265.2531435-1.1301158-.0843071-2.410557-.3374506-3.5403453-.2531436.0753265-.5062871.150653-.7594306.150653.1687253.451959-.0843071.9038088-.2531435 1.3557677.1688364-.0753265.3375617-.150653.506287-.2259794-.4218688 0-.7593194-.150653-.7593194-.5272855 0-.150653.0843071-.6778293.4218688-.6025028.2530324.150653.6750123-.2259795.1687253-.301306z"/><path d="m36.5440806 41.8265416c0 .301306 0 .753265-.2531435.9792444-.2531436.3011969.4218688.4518498.5907052.150653.2530324-.3766324.3374506-.8285914.3374506-1.2052239.0844182-.301306-.5905941-.2259795-.6750123.0753265z"/><path d="m40.8448545 38.4365218c-.8438487-.2259795-2.025037.3766325-1.6031682 1.2804413.3374506.6779384 1.2656065.0753265 1.7718935.3766324.4218688.3766325-.0844182.7531558-.4218688.9038088-.506287.150653-.8437377.150653-.6750124-.451959.0844182-.3011968-.6750123-.2258703-.7594305.0753265-.1687253.602612.1687253.903918.8437377.903918.5907052 0 1.2657175-.301306 1.6875864-.6779385.4218688-.3765233.3374506-.9791353-.1688364-1.2051147-.3374507-.150653-.7593195-.0753265-1.0968812-.0753265-.1687253 0-.2531435 0-.3374506-.150653-.1687254-.301306 0-.7531558.4218688-.6778293.1687253.2258703.7594305-.150653.3375617-.301306z"/><path d="m42.1120161 39.4914202c-.0844182.5271763-.1687253.9791353 0 1.5064208.0843071.2259795.8437376.0753265.7594305-.150653-.1687253-.451959 0-.9039179 0-1.3557678.0843071-.3766324-.6751234-.2259794-.7594305 0z"/><path d="m42.2800749 38.6630471c0 .3765233.1688364.5271763.6750124.5271763.0844182 0 .506287-.0753265.506287-.2259795 0-.2258703 0-.3011968-.1687253-.4518498-.1687253-.1506529-.8438488.0753265-.6750124.2259795.0843072.0752174.1687254.1505439.1687254.3011968.1687253-.0753265.3375617-.1506529.506287-.2258703-.1687253 0-.2531435-.0753265-.1687253-.301306-.0844182-.2259794-.8438488-.0753264-.8438488.150653z"/><path d="m43.5449039 39.1903326c.6750123.150653 1.1812994.602612 1.7718935.9039179.2531435.150653.9281559-.1506529.5905942-.3766324-.5905942-.3766325-1.1811883-.8284823-1.8562007-.9791353-.4218688-.0753265-.9281558.3765233-.506287.4518498z"/><path d="m44.8982609 38.9641348c-.0844182.3766325-.3375617.6779384-.5907052.9792444-.2531436.301306-.5062871.6778293-.8437377.8284823-.4218688.2259795 0 .5272855.3375617.301306.4218688-.2259795.7593195-.602612 1.0968812-.9791353.3374506-.3766325.5905941-.8285914.7593195-1.2805504.0844181-.2258703-.6750124-.0752173-.7593195.150653z"/><path d="m9.37730501 54.4050838c5.14695529-.451959 10.04076699-2.4857744 15.18772229-3.2390393 3.8812377-.602612 7.8468936-1.1298974 11.7281313-1.8078359.4219799-.0753265.3375617-.451959-.0843071-.3766325-4.1343812.753265-8.2688735 1.2805505-12.4032547 1.9584889-4.8095047.753265-9.4501729 2.7117538-14.34398467 3.1637128-.33745063-.0753265-.59059415.3766325-.08430712.301306z"/><path d="m10.2178215 59c5.6531312-.3766325 11.3063735-1.3558769 16.8751976-2.3351214 5.1468442-.9039179 10.7156683-1.5818564 15.60948-3.4650187.5062871-.150653 0-.301306-.2530324-.2259795-5.0626481 1.9584889-10.8846158 2.6364273-16.2847146 3.5403453-5.1468441.9039179-10.3782176 1.8078358-15.6938982 2.1844683-.1687253 0-.67501235.301306-.2530324.301306z"/></g><path d="m195.917333 163h-28.177455l-3.739878 42h42z" fill="#d6cde4"/><path d="m196.905045 163h-8.690653l-5.214392 42h24z" fill="#efe8f4"/><path d="m138.796861 153.038529c1.622864 2.452719 5.612498 9.318759 9.804709 17.411719 2.43317 4.721175 5.611372 12.814135 9.39843 24.21821l-4.868592 2.023521c-8.789575-12.814135-15.28103-22.685682-19.608292-29.674189.270102 2.084193.473804 4.290854.743906 6.559309.811432 7.787354 0 24.585613-.406279 29.429254-.270102 3.06618-4.867466 2.268456-5.273745-.184262-.405153-2.451596-8.586998-41.016469-8.586998-49.109429 0-3.065056 7.57299-5.578447 10.616141-1.839258 2.501821-1.654996 6.017651-2.084193 8.18072 1.165125z" fill="#cb7a43"/><path d="m145.135456 192c-.956562-2.280727-16.879169-27.369849-20.021834-35.136067-1.367167-3.390025 9.976226-10.479594 14.008346-4.623583l16.878032 36.122236z" fill="#a396c4"/><path d="m124.443922 149.694706c6.66954-.903209 20.552334-2.407456 41.784308-4.694706h24.77177c-.407784 13.179807-5.716911 20.100005-18.510014 19.678727-8.847788-.30107-38.450671-4.212774-39.199408-3.911704-.33982.120208.544845 10.411728 2.653997 30.872355l-11.977534.360622c0-2.226594-4.967041-25.695715-4.967041-35.686165 0-2.76808 1.224486-6.018091 5.443922-6.619129z" fill="#bcb1d4"/><path d="m134.299238 203.329995c-.206061-.37047-.688016-.554576-1.168826-.37047-1.100139.493584-1.994216.678819-2.682233.678819-.756703 0-1.788155-.247356-3.0955-.801933l-.756703-1.602736c-.068687-.184106-.343436-.307219-.549497-.184106l-11.279573 4.498731c-.894077.123114-2.064048.247357-3.370249.431463-1.376032.123113-1.719468 1.171273-1.100139 3.020237h24.277469c.275893-1.35538.413267-2.341418.413267-3.020237.068688-.615569-.137374-1.478494-.688016-2.649768z" fill="#3d2884"/><path d="m157.898625 192.085678c-.396375-.186299-.925975-.062478-1.124162.310122-.529601.991705-1.059201 1.67329-1.521638 2.044754-.595663.433942-1.521638.806542-2.845088 1.116663l-1.586599-.806542c-.199288-.123821-.463538 0-.5296.1863l-5.490888 9.855717c-.594562.620242-1.388412 1.364305-2.314387 2.23219s-.5296 1.859591 1.190225 2.975118c11.510275-8.55389 17.595724-13.079613 18.323512-13.574898-.727788-1.178006-1.257388-2.045891-1.719825-2.603654-.463538-.496421-1.191326-1.054185-2.38155-1.73577.066062.061343 0 0 0 0z" fill="#3d2884"/><path d="m180 113h-10.265337l1.710889-11.022317c-2.80554 1.469941-5.474391 2.204912-6.774074 1.89858-3.216746-.73497-3.490124-11.2669329-1.027445-15.369304 2.463817-4.1629642 15.261317-5.939237 15.877556 2.2655053.205033 2.8781679-1.09579 5.3882894-3.080057 7.4708935z" fill="#cb7a43"/><path d="m168.452217 89.8186472c-4.317416.0605774-4.841168-.6742033-4.841168-3.1219762.719751-.4902277 3.140335-1.2250083 5.887583-1.4695613 1.439501-.3668294 3.075002-.306252 4.710502.3062521 1.962164.550805 3.336333.9793336 4.579836 3.1219763 2.681915 4.3458627.45733 9.5499044-2.289918 11.0800429-.719751-.7964797-1.374169-1.5918377-1.963254-2.3266183.458419-.4285285.719751-.9793335.719751-1.652415 0-1.2855856-1.111748-2.3266183-2.485917-2.3266183-.130666 0-.195998 0-.261331 0-.130666 4.469261-.458419 7.4072616-.981083 8.8151236-.785083 2.204342-5.299587 2.755147-6.935087 2.755147-1.569078 0-1.307747-1.591838-1.307747-2.448895 0-.490227 1.635501.183976 1.635501-.73478 0-.917635-2.09392-1.407862-2.485917-1.9586675-.523752-.6730815-.654418-1.5918377.065333-1.5918377 1.046415 0 3.140334 1.4695612 5.560918 1.4695612 1.6355 0 2.616583-2.4488948 3.00858-7.3455625-.719751-1.1633092-1.570167-2.0820654-2.616582-2.5711713z" fill="#3d2884"/><path d="m164.508611 93.0759827c.36.054.54.709.12.818-.481.164-.541-.382-.481-.709.12-.055.24-.055.361-.109z" fill="#3d2884"/><path d="m163.593133 92c-.122392.0623118-1.286134 3.5252327-1.593133 4.3445175.490587.6923534 1.287154.6923534 1.961329.6300416.061195-1.7631933.122391-3.4640748-.429392-4.9745591" fill="#cb7a43"/><path d="m165.959601 92c.100363-.1865891 0-.4664728-.150546-.6068426-.150545-.1403698-.352109-.2336644-.552836-.3269589-.200728-.0470753-.402291-.0932946-.653201-.0470753-.200727.0470753-.452473.0932946-.603018.2336644.200727.0470752.402291.0932946.552837.0932946.200727.0470752.351272.0932945.502654.1403698.150546.0470752.351273.0932945.501819.1403698.151381.0932945.301927.1865891.402291.3731782z" fill="#3d2884"/><path d="m193 158h-9c1.735584-2.915924 2.956486-7.582591 3.727975-14 1.863988 5.379316 3.600642 10.045983 5.272025 14z" fill="#cb7a43"/><path d="m151.076949 146.510708-13.304181 4.852391c-3.763646 3.906642-5.846234 5.504222-6.317109 4.853476-.672199-.946834.806416-1.835102.470875-2.544414-.336659-.710397-2.823014-.65183-5.241142-.47396-2.419247.177871-1.67994-.768964-1.143075-1.242923 2.419247-1.301491 5.510693-2.367629 9.139005-3.254812l13.439515-8.700466zm54.025374 17.518066c.605092 1.065053 5.039818 4.319865 8.131265 6.214618 1.209064.768965.739307 1.715799.268432 1.952237-3.829635 2.071539-6.31599-.354657-9.608761-1.715799-3.628311-1.479361-3.292771 2.722285-6.181774 1.59758.873523-1.715799 2.956111-4.97061 1.948371-7.101802-.402648-.946834-3.359878-9.113689-8.802345-24.5613l8.802345-.058567c2.821896 14.321821 4.63717 22.193672 5.442467 23.673033z" fill="#cb7a43"/><path d="m139.037513 152-4.037513-4.442333c16.837022-10.769089 22.517338-31.030542 36.274959-41.557667l3.696876.547486c.546842 17.46381-6.707922 42.227809-35.934322 45.452514z" fill="#3d2884"/><path d="m178.232501 105-9.173647 1.356296c0 16.144551-9.507838 28.346697-11.901397 39.686053-.199186.985884-.464768 2.957651.998146 2.957651h31.844397c-1.528203-18.734048-4.188451-32.660643-11.767499-44z" fill="#efe8f4"/><path d="m204.939151 163h-7.038459c-1.365841-2.201521-2.869289-4.829901-4.372737-8.009502h-25.757644c-3.826856-8.620102-1.435213-25.738186 7.037322-51.476372l2.937524-.12212c.274078-.06162.547019-.06162.888195-.06162 5.876186 0 9.156024-2.07828 12.845273-1.0397 3.689248.97808 4.919756 4.096061 1.503448 9.659802-.819959 1.283941-1.912859 2.139901-3.279838 2.445761 10.864178 13.266263 15.919268 29.528387 15.236916 48.603751z" fill="#3d2884"/><path d="m175 55.5269049c0 6.4883961-4.9871 12.1734573-12.669658 15.7580025-1.752103.802882-.606842 5.7458718-.943354 6.6110366-.337633.8651648-6.806506-3.9543919-7.884464-3.7686759-2.965788.617166-6.200785.9263152-9.503085.9263152-17.117218 0-30.999439-8.7127981-30.999439-19.5266784 0-10.8139935 13.882221-19.5269049 30.999439-19.5269049s31.000561 8.7747412 31.000561 19.5269049z" fill="#f9aa38"/></g></svg>