<svg height="320" viewBox="0 0 248 320" width="248" xmlns="http://www.w3.org/2000/svg"><g fill="none" transform="translate(-89 16)"><path d="m225 0h-225v6h225z" fill="#095411"/><path d="m225 6h-225v84h225z" fill="#d4f4d7"/><g fill="#095411" transform="translate(94 16)"><path d="m.85070886 1.81767984c.46984639 0 .85072012-.38553736.85072012-.86101824s-.38087373-.86101824-.85072012-.86101824c-.46983513 0-.85070886.38553736-.85070886.86101824s.38087373.86101824.85070886.86101824z"/><path d="m13.2330362 1.81767984c.4699252 0 .8507539-.38553736.8507539-.86101824s-.3808287-.86101824-.8507539-.86101824c-.4698126 0-.8506413.38553736-.8506413.86101824s.3808287.86101824.8506413.86101824z"/><path d="m25.615431 1.81767984c.4698126 0 .8507539-.38553736.8507539-.86101824s-.3809413-.86101824-.8507539-.86101824-.8507539.38553736-.8507539.86101824.3809413.86101824.8507539.86101824z"/><path d="m38.0937934 1.81767984c.4698126 0 .8507539-.38553736.8507539-.86101824s-.3809413-.86101824-.8507539-.86101824-.8507539.38553736-.8507539.86101824.3809413.86101824.8507539.86101824z"/><path d="m50.4761883 1.81767984c.4698126 0 .8506412-.38553736.8506412-.86101824s-.3808286-.86101824-.8506412-.86101824-.850754.38553736-.850754.86101824.3809414.86101824.850754.86101824z"/><path d="m62.8585831 1.81767984c.4698126 0 .850754-.38553736.850754-.86101824s-.3809414-.86101824-.850754-.86101824-.8507539.38553736-.8507539.86101824.3809413.86101824.8507539.86101824z"/><path d="m75.2408654 1.81767984c.4698126 0 .8507539-.38553736.8507539-.86101824s-.3809413-.86101824-.8507539-.86101824-.8506413.38553736-.8506413.86101824.3808287.86101824.8506413.86101824z"/><path d="m87.7192277 1.81767984c.4698126 0 .8507539-.38553736.8507539-.86101824s-.3809413-.86101824-.8507539-.86101824-.8506412.38553736-.8506412.86101824.3808286.86101824.8506412.86101824z"/><path d="m100.101623 1.81767984c.469925 0 .850754-.38553736.850754-.86101824s-.380829-.86101824-.850754-.86101824c-.469813 0-.8507543.38553736-.8507543.86101824s.3809413.86101824.8507543.86101824z"/><path d="m112.484581 1.81767984c.4697 0 .850416-.38553736.850416-.86101824s-.380716-.86101824-.850416-.86101824c-.470827 0-.851543.38553736-.851543.86101824s.380716.86101824.851543.86101824z"/><path d="m124.866863 1.72192249c.4697 0 .850416-.38542337.850416-.86101825 0-.47548087-.380716-.86090424-.850416-.86090424-.470826 0-.851542.38542337-.851542.86090424 0 .47559488.380716.86101825.851542.86101825z"/><path d="m.85070886 12.2454281c.46984639 0 .85072012-.3854234.85072012-.8609042 0-.4755949-.38087373-.8610183-.85072012-.8610183-.46983513 0-.85070886.3854234-.85070886.8610183 0 .4754808.38087373.8609042.85070886.8609042z"/><path d="m13.2330362 12.2454281c.4699252 0 .8507539-.3854234.8507539-.8609042 0-.4755949-.3808287-.8610183-.8507539-.8610183-.4698126 0-.8506413.3854234-.8506413.8610183 0 .4754808.3808287.8609042.8506413.8609042z"/><path d="m25.615431 12.2454281c.4698126 0 .8507539-.3854234.8507539-.8609042 0-.4755949-.3809413-.8610183-.8507539-.8610183s-.8507539.3854234-.8507539.8610183c0 .4754808.3809413.8609042.8507539.8609042z"/><path d="m38.0937934 12.1497847c.4698126 0 .8507539-.3855373.8507539-.8610182s-.3809413-.8610182-.8507539-.8610182-.8507539.3855373-.8507539.8610182.3809413.8610182.8507539.8610182z"/><path d="m50.4761883 12.1497847c.4698126 0 .8506412-.3855373.8506412-.8610182s-.3808286-.8610182-.8506412-.8610182-.850754.3855373-.850754.8610182.3809414.8610182.850754.8610182z"/><path d="m62.8585831 12.1497847c.4698126 0 .850754-.3855373.850754-.8610182s-.3809414-.8610182-.850754-.8610182-.8507539.3855373-.8507539.8610182.3809413.8610182.8507539.8610182z"/><path d="m75.2408654 12.1497847c.4698126 0 .8507539-.3855373.8507539-.8610182s-.3809413-.8610182-.8507539-.8610182-.8506413.3855373-.8506413.8610182.3808287.8610182.8506413.8610182z"/><path d="m87.7192277 12.1497847c.4698126 0 .8507539-.3855373.8507539-.8610182s-.3809413-.8610182-.8507539-.8610182-.8506412.3855373-.8506412.8610182.3808286.8610182.8506412.8610182z"/><path d="m100.101623 12.1497847c.469925 0 .850754-.3855373.850754-.8610182s-.380829-.8610182-.850754-.8610182c-.469813 0-.8507543.3855373-.8507543.8610182s.3809413.8610182.8507543.8610182z"/><path d="m112.484581 12.1497847c.4697 0 .850416-.3855373.850416-.8610182s-.380716-.8610182-.850416-.8610182c-.470827 0-.851543.3855373-.851543.8610182s.380716.8610182.851543.8610182z"/><path d="m124.866863 12.1497847c.4697 0 .850416-.3855373.850416-.8610182s-.380716-.8610182-.850416-.8610182c-.470826 0-.851542.3855373-.851542.8610182s.380716.8610182.851542.8610182z"/><path d="m.85070886 22.576963c.46984639 0 .85072012-.3854233.85072012-.8609042 0-.4755949-.38087373-.8610183-.85072012-.8610183-.46983513 0-.85070886.3854234-.85070886.8610183 0 .4754809.38087373.8609042.85070886.8609042z"/><path d="m13.2330362 22.576963c.4699252 0 .8507539-.3854233.8507539-.8609042 0-.4755949-.3808287-.8610183-.8507539-.8610183-.4698126 0-.8506413.3854234-.8506413.8610183 0 .4754809.3808287.8609042.8506413.8609042z"/><path d="m25.615431 22.576963c.4698126 0 .8507539-.3854233.8507539-.8609042 0-.4755949-.3809413-.8610183-.8507539-.8610183s-.8507539.3854234-.8507539.8610183c0 .4754809.3809413.8609042.8507539.8609042z"/><path d="m38.0937934 22.576963c.4698126 0 .8507539-.3854233.8507539-.8609042 0-.4755949-.3809413-.8610183-.8507539-.8610183s-.8507539.3854234-.8507539.8610183c0 .4754809.3809413.8609042.8507539.8609042z"/><path d="m50.4761883 22.576963c.4698126 0 .8506412-.3854233.8506412-.8609042 0-.4755949-.3808286-.8610183-.8506412-.8610183s-.850754.3854234-.850754.8610183c0 .4754809.3809414.8609042.850754.8609042z"/><path d="m62.8585831 22.576963c.4698126 0 .850754-.3854233.850754-.8609042 0-.4755949-.3809414-.8610183-.850754-.8610183s-.8507539.3854234-.8507539.8610183c0 .4754809.3809413.8609042.8507539.8609042z"/><path d="m75.2408654 22.4813197c.4698126 0 .8507539-.3855374.8507539-.8610183s-.3809413-.8610182-.8507539-.8610182-.8506413.3855373-.8506413.8610182.3808287.8610183.8506413.8610183z"/><path d="m87.7192277 22.4813197c.4698126 0 .8507539-.3855374.8507539-.8610183s-.3809413-.8610182-.8507539-.8610182-.8506412.3855373-.8506412.8610182.3808286.8610183.8506412.8610183z"/><path d="m100.101623 22.4813197c.469925 0 .850754-.3855374.850754-.8610183s-.380829-.8610182-.850754-.8610182c-.469813 0-.8507543.3855373-.8507543.8610182s.3809413.8610183.8507543.8610183z"/><path d="m112.484581 22.4813197c.4697 0 .850416-.3855374.850416-.8610183s-.380716-.8610182-.850416-.8610182c-.470827 0-.851543.3855373-.851543.8610182s.380716.8610183.851543.8610183z"/><path d="m124.866863 22.4813197c.4697 0 .850416-.3855374.850416-.8610183s-.380716-.8610182-.850416-.8610182c-.470826 0-.851542.3855373-.851542.8610182s.380716.8610183.851542.8610183z"/><path d="m.85070886 32.9084979c.46984639 0 .85072012-.3854233.85072012-.8609042 0-.4755949-.38087373-.8610183-.85072012-.8610183-.46983513 0-.85070886.3854234-.85070886.8610183 0 .4754809.38087373.8609042.85070886.8609042z"/><path d="m13.2330362 32.9084979c.4699252 0 .8507539-.3854233.8507539-.8609042 0-.4755949-.3808287-.8610183-.8507539-.8610183-.4698126 0-.8506413.3854234-.8506413.8610183 0 .4754809.3808287.8609042.8506413.8609042z"/><path d="m25.615431 32.9084979c.4698126 0 .8507539-.3854233.8507539-.8609042 0-.4755949-.3809413-.8610183-.8507539-.8610183s-.8507539.3854234-.8507539.8610183c0 .4754809.3809413.8609042.8507539.8609042z"/><path d="m38.0937934 32.9084979c.4698126 0 .8507539-.3854233.8507539-.8609042 0-.4755949-.3809413-.8610183-.8507539-.8610183s-.8507539.3854234-.8507539.8610183c0 .4754809.3809413.8609042.8507539.8609042z"/><path d="m50.4761883 32.9084979c.4698126 0 .8506412-.3854233.8506412-.8609042 0-.4755949-.3808286-.8610183-.8506412-.8610183s-.850754.3854234-.850754.8610183c0 .4754809.3809414.8609042.850754.8609042z"/><path d="m62.8585831 32.9084979c.4698126 0 .850754-.3854233.850754-.8609042 0-.4755949-.3809414-.8610183-.850754-.8610183s-.8507539.3854234-.8507539.8610183c0 .4754809.3809413.8609042.8507539.8609042z"/><path d="m75.2408654 32.9084979c.4698126 0 .8507539-.3854233.8507539-.8609042 0-.4755949-.3809413-.8610183-.8507539-.8610183s-.8506413.3854234-.8506413.8610183c0 .4754809.3808287.8609042.8506413.8609042z"/><path d="m87.7192277 32.9084979c.4698126 0 .8507539-.3854233.8507539-.8609042 0-.4755949-.3809413-.8610183-.8507539-.8610183s-.8506412.3854234-.8506412.8610183c0 .4754809.3808286.8609042.8506412.8609042z"/><path d="m100.101623 32.9084979c.469925 0 .850754-.3854233.850754-.8609042 0-.4755949-.380829-.8610183-.850754-.8610183-.469813 0-.8507543.3854234-.8507543.8610183 0 .4754809.3809413.8609042.8507543.8609042z"/><path d="m112.484581 32.8127406c.4697 0 .850416-.3854234.850416-.8609043 0-.4755948-.380716-.8610182-.850416-.8610182-.470827 0-.851543.3854234-.851543.8610182 0 .4754809.380716.8609043.851543.8609043z"/><path d="m124.866863 32.8127406c.4697 0 .850416-.3854234.850416-.8609043 0-.4755948-.380716-.8610182-.850416-.8610182-.470826 0-.851542.3854234-.851542.8610182 0 .4754809.380716.8609043.851542.8609043z"/><path d="m.85070886 43.3363602c.46984639 0 .85072012-.3855374.85072012-.8610183 0-.4754808-.38087373-.8610182-.85072012-.8610182-.46983513 0-.85070886.3855374-.85070886.8610182 0 .4754809.38087373.8610183.85070886.8610183z"/><path d="m13.2330362 43.3363602c.4699252 0 .8507539-.3855374.8507539-.8610183 0-.4754808-.3808287-.8610182-.8507539-.8610182-.4698126 0-.8506413.3855374-.8506413.8610182 0 .4754809.3808287.8610183.8506413.8610183z"/><path d="m25.615431 43.2406028c.4698126 0 .8507539-.3855373.8507539-.8610182s-.3809413-.8609043-.8507539-.8609043-.8507539.3854234-.8507539.8609043.3809413.8610182.8507539.8610182z"/><path d="m38.0937934 43.2406028c.4698126 0 .8507539-.3855373.8507539-.8610182s-.3809413-.8609043-.8507539-.8609043-.8507539.3854234-.8507539.8609043.3809413.8610182.8507539.8610182z"/><path d="m50.4761883 43.2406028c.4698126 0 .8506412-.3855373.8506412-.8610182s-.3808286-.8609043-.8506412-.8609043-.850754.3854234-.850754.8609043.3809414.8610182.850754.8610182z"/><path d="m62.8585831 43.2406028c.4698126 0 .850754-.3855373.850754-.8610182s-.3809414-.8609043-.850754-.8609043-.8507539.3854234-.8507539.8609043.3809413.8610182.8507539.8610182z"/><path d="m75.2408654 43.2406028c.4698126 0 .8507539-.3855373.8507539-.8610182s-.3809413-.8609043-.8507539-.8609043-.8506413.3854234-.8506413.8609043.3808287.8610182.8506413.8610182z"/><path d="m87.7192277 43.2406028c.4698126 0 .8507539-.3855373.8507539-.8610182s-.3809413-.8609043-.8507539-.8609043-.8506412.3854234-.8506412.8609043.3808286.8610182.8506412.8610182z"/><path d="m100.101623 43.2406028c.469925 0 .850754-.3855373.850754-.8610182s-.380829-.8609043-.850754-.8609043c-.469813 0-.8507543.3854234-.8507543.8609043s.3809413.8610182.8507543.8610182z"/><path d="m112.484581 43.2406028c.4697 0 .850416-.3855373.850416-.8610182s-.380716-.8609043-.850416-.8609043c-.470827 0-.851543.3854234-.851543.8609043s.380716.8610182.851543.8610182z"/><path d="m124.866863 43.2406028c.4697 0 .850416-.3855373.850416-.8610182s-.380716-.8609043-.850416-.8609043c-.470826 0-.851542.3854234-.851542.8609043s.380716.8610182.851542.8610182z"/><path d="m1.03899434 53.6678951c.46984639 0 .85072012-.3855374.85072012-.8610182 0-.4754809-.38087373-.8610183-.85072012-.8610183-.46983513 0-.85070886.3855374-.85070886.8610183 0 .4754808.38087373.8610182.85070886.8610182z"/><path d="m13.515532 53.6678951c.4698126 0 .8507539-.3855374.8507539-.8610182 0-.4754809-.3809413-.8610183-.8507539-.8610183s-.850754.3855374-.850754.8610183c0 .4754808.3809414.8610182.850754.8610182z"/><path d="m25.8979268 53.6678951c.4698126 0 .8506413-.3855374.8506413-.8610182 0-.4754809-.3808287-.8610183-.8506413-.8610183-.4699252 0-.8507539.3855374-.8507539.8610183 0 .4754808.3808287.8610182.8507539.8610182z"/><path d="m38.2802091 53.6678951c.4699252 0 .8507539-.3855374.8507539-.8610182 0-.4754809-.3808287-.8610183-.8507539-.8610183-.4698126 0-.8506413.3855374-.8506413.8610183 0 .4754808.3808287.8610182.8506413.8610182z"/><path d="m50.7586841 53.5721377c.4698126 0 .8506412-.3855373.8506412-.8610182s-.3808286-.8610182-.8506412-.8610182c-.4699253 0-.8507539.3855373-.8507539.8610182s.3808286.8610182.8507539.8610182z"/><path d="m63.1409663 53.5721377c.4698126 0 .8507539-.3855373.8507539-.8610182s-.3809413-.8610182-.8507539-.8610182c-.4699252 0-.8507539.3855373-.8507539.8610182s.3808287.8610182.8507539.8610182z"/><path d="m75.5233612 53.5721377c.4698126 0 .8506413-.3855373.8506413-.8610182s-.3808287-.8610182-.8506413-.8610182-.8507539.3855373-.8507539.8610182.3809413.8610182.8507539.8610182z"/><path d="m87.9057561 53.5721377c.4698126 0 .8507539-.3855373.8507539-.8610182s-.3809413-.8610182-.8507539-.8610182c-.4699253 0-.850754.3855373-.850754.8610182s.3808287.8610182.850754.8610182z"/><path d="m100.384118 53.5721377c.469813 0 .850642-.3855373.850642-.8610182s-.380829-.8610182-.850642-.8610182c-.4698122 0-.8507535.3855373-.8507535.8610182s.3809413.8610182.8507535.8610182z"/><path d="m112.766175 53.5721377c.4697 0 .850416-.3855373.850416-.8610182s-.380716-.8610182-.850416-.8610182-.850416.3855373-.850416.8610182.380716.8610182.850416.8610182z"/><path d="m125.148458 53.5721377c.4697 0 .851542-.3855373.851542-.8610182s-.381842-.8610182-.851542-.8610182-.850416.3855373-.850416.8610182.380716.8610182.850416.8610182z"/><path d="m1.03899434 64c.46984639 0 .85072012-.3855374.85072012-.8610182 0-.4754809-.38087373-.8610183-.85072012-.8610183-.46983513 0-.85070886.3855374-.85070886.8610183 0 .4754808.38087373.8610182.85070886.8610182z"/><path d="m13.515532 64c.4698126 0 .8507539-.3855374.8507539-.8610182 0-.4754809-.3809413-.8610183-.8507539-.8610183s-.850754.3855374-.850754.8610183c0 .4754808.3809414.8610182.850754.8610182z"/><path d="m25.8979268 64c.4698126 0 .8506413-.3855374.8506413-.8610182 0-.4754809-.3808287-.8610183-.8506413-.8610183-.4699252 0-.8507539.3855374-.8507539.8610183 0 .4754808.3808287.8610182.8507539.8610182z"/><path d="m38.2802091 64c.4699252 0 .8507539-.3855374.8507539-.8610182 0-.4754809-.3808287-.8610183-.8507539-.8610183-.4698126 0-.8506413.3855374-.8506413.8610183 0 .4754808.3808287.8610182.8506413.8610182z"/><path d="m50.7586841 64c.4698126 0 .8506412-.3855374.8506412-.8610182 0-.4754809-.3808286-.8610183-.8506412-.8610183-.4699253 0-.8507539.3855374-.8507539.8610183 0 .4754808.3808286.8610182.8507539.8610182z"/><path d="m63.1409663 64c.4698126 0 .8507539-.3855374.8507539-.8610182 0-.4754809-.3809413-.8610183-.8507539-.8610183-.4699252 0-.8507539.3855374-.8507539.8610183 0 .4754808.3808287.8610182.8507539.8610182z"/><path d="m75.5233612 64c.4698126 0 .8506413-.3855374.8506413-.8610182 0-.4754809-.3808287-.8610183-.8506413-.8610183s-.8507539.3855374-.8507539.8610183c0 .4754808.3809413.8610182.8507539.8610182z"/><path d="m87.9057561 63.9042426c.4698126 0 .8507539-.3855373.8507539-.8610182s-.3809413-.8610182-.8507539-.8610182c-.4699253 0-.850754.3855373-.850754.8610182s.3808287.8610182.850754.8610182z"/><path d="m100.384118 63.9042426c.469813 0 .850642-.3855373.850642-.8610182s-.380829-.8610182-.850642-.8610182c-.4698122 0-.8507535.3855373-.8507535.8610182s.3809413.8610182.8507535.8610182z"/><path d="m112.766175 63.9042426c.4697 0 .850416-.3855373.850416-.8610182s-.380716-.8610182-.850416-.8610182-.850416.3855373-.850416.8610182.380716.8610182.850416.8610182z"/><path d="m125.148458 63.9042426c.4697 0 .851542-.3855373.851542-.8610182s-.381842-.8610182-.851542-.8610182-.850416.3855373-.850416.8610182.380716.8610182.850416.8610182z"/></g><path d="m200 15.2020815v14.6489022c0 .670288.491352 1.1490163 1.179198 1.1490163h7.861511l.098365-.0958369c.49182-.4786142 3.635956-3.2552609 4.618426-4.0212718l2.850215-2.4893641c.295092-.1914457.392285-.4787283.392285-.8616196v-8.4255489c0-1.1489022-.982469-2.1063587-2.161667-2.1063587h-12.479938c-1.375691.0957228-2.358395 1.0531794-2.358395 2.2020815zm13.855864.1914457v4.2128315c0 1.3404619-1.080834 2.3936413-2.456759 2.3936413h-6.387808c-1.37534 0-2.456291-1.0531794-2.456291-2.3936413v-4.2128315z" fill="#ce2951"/><path d="m201 78.5203818v-48.283587h7.999699s5.100131-4.5115911 5.100131-4.2235685c0 .2880225 3.90017 3.4556989 3.90017 3.4556989l-2.099633.6719002 1.599153 1.5358534-1.999538.8639534 1.799346 1.3439147-2.099634.8638389 1.700441 1.5358535-2.100825.7679839 1.600345 1.5358535-1.999537.9599228 1.799345 1.4398841-2.199729.6719001 1.800537 1.5358535-2.299826.8639533 1.799345 1.5358535-2.099633.9599227 1.599153 1.4398841-2.099633.863839 1.800537 1.5359679-2.100825.6719001 1.600345 1.4398841-1.799346.8638389 1.599154 1.6319373-1.999538.7678696 1.600345 1.4398841-2.100825.7679839 1.600345 1.7277923-1.999537.6719001 1.799345 1.5358535-2.099634.9599227 1.700441 1.4398841-2.100825.8639534 1.700441 1.5358535-2.099633.7678695 1.699249 1.6319373-2.099633.6719001 1.600345 1.4398841-2.000729.9599228 1.600344 1.439884-2.000729.863839 1.600345 1.4398841-1.999537.7679839 1.300057 1.5358535-1.500249.7675264h-6.99993z" fill="#26b759"/><path d="m203.499967 28c.2762 0 .500033-.2238332.500033-.5000331 0-.2761337-.223833-.4999669-.500033-.4999669-.276134 0-.499967.2238332-.499967.4999669 0 .2761999.223833.5000331.499967.5000331z" fill="#f24c64"/><path d="m208.499669 28c.275976 0 .500331-.2238332.500331-.5000331 0-.2761337-.224355-.4999669-.500331-.4999669s-.499669.2238332-.499669.4999669c0 .2761999.223693.5000331.499669.5000331z" fill="#f24c64"/><path d="m186.851885 34.9247035v16.9371382l-.555544.3849636v3.7531947h1.203659 1.203769v-3.7531947l-.648115-.3849636v-16.9371382h1.944346v-1.9247035h-2.5-2.5v1.9247035z" fill="#26b759"/><path d="m184.268347 29.1999774v3.8000226h5.365884v-3.8000226l.780423-1.1399616c.390269-.5700939.585346-1.3300305.585346-2.0900803v-10.7348829c0-.6649586-.585346-1.2350526-1.26823-1.2350526h-2.731654-2.731769c-.682885 0-1.268347.570094-1.268347 1.2350526v10.7348829c0 .7600498.195193 1.4250085.585462 2.0900803z" fill="#f24c64"/><path d="m188 15h-1v11h1z" fill="#ce2951"/><path d="m186 15h-1v11h1z" fill="#ce2951"/><path d="m116.133534 27.0780716 3.593387 2.4233012c.26944.1939426.359253.5815969.179627.9693667-.898347 1.45405-3.144214 5.6222573-3.144214 9.6935511 0 3.3927833.808533 6.591624 1.437333 8.4334438.269547.8724531-.089813 1.8418197-.89824 2.229474-.898346.4846833-2.06624-.0969136-2.33568-1.1631938-.898347-3.2957543-2.066241-10.1782345 1.167787-18.1269949.449173-1.0662802.269547-2.229474-.269547-3.1019271l-.359253-.5815969c-.089814-.0969136-.089921-.2907407-.089921-.4846834.089921-.2907407.449281-.4846833.718721-.2907407z" fill="#f24c64"/><path d="m123.13333 23.6298513c.088869-.2983943.177738-.59667.177738-.8950643 0-.397701-.088869-.7955205-.266607-1.0939148l.711057-2.8839249c.266712-1.1934585.266712-2.3867986-.177738-3.4807134l-1.600063-4.2762339h-.622189v3.7789892c.53332.1988505.97777.795639.97777 1.4917343 0 .6960952-.44445 1.2927653-.97777 1.392309v2.5856491c-.088868 0-.266606 0-.355581 0-.088869 0-.266607 0-.355581 0 0-.8950643 0-1.7901285 0-2.5856491-.53332-.198969-.977664-.795639-.977664-1.392309 0-.6960953.444344-1.2928838.977664-1.4917343 0-2.1878296 0-3.7789892 0-3.7789892h-.622189l-1.599957 4.2762339c-.44445 1.0939148-.44445 2.2872549-.177844 3.4807134l.711163 2.8839249c-.177738.2983943-.266712.6962138-.266712 1.0939148 0 .2983943.088868.59667.177843.8950643l-1.86667 3.9779581 2.044408 1.3921906 1.599958-3.6795639v-.0994253h.355581.355581v.0994253l1.599958 3.6795639 2.044514-1.3921906z" fill="#26b759"/><path d="m126.866492 27.0780716-3.593343 2.4233012c-.269544.1939426-.359356.5815969-.179624.9693667.898336 1.45405 3.144175 5.6222573 3.144175 9.6935511 0 3.3927833-.808523 6.591624-1.437423 8.4334438-.269436.8724531.089919 1.8418197.898336 2.229474.898336.4846833 2.066215-.0969136 2.335652-1.1631938.898336-3.2957543 2.066215-10.1782345-1.167773-18.1269949-.449167-1.0662802-.269543-2.229474.269437-3.1019271l.359356-.5815969c.089812-.0969136.089812-.2907407.089812-.4846834-.089812-.2907407-.449168-.4846833-.718605-.2907407z" fill="#f24c64"/><path d="m120.99996 25c.552294 0 1.00004-.447728 1.00004-1s-.447746-1-1.00004-1-.99996.447728-.99996 1 .447666 1 .99996 1z" fill="#ce2951"/><path d="m156.015119 21.4943833c2.491357-6.3034155 9.10312-6.4943833 9.10312-6.4943833h3.353667c.191713 0 .383312.0954839.479111.2864516.383312.7640987 1.149936 1.2416319 2.108045 1.2416319.958223 0 1.724848-.4775332 2.10816-1.2416319.095799-.1909677.287398-.2864516.479111-.2864516h3.066269c.191599 0 .287398.1909678.287398.2864516v4.870816c0 .1910815-.191599.2865654-.287398.2865654h-3.066269c-.191713 0-.383312-.0954839-.479111-.2865654-.383312-.7639849-1.149937-1.2415181-2.10816-1.2415181-.095799 0-.095799 0-.191599 0-1.149822.0954839-2.012245 1.1460342-2.012245 2.2920684v.8595825 26.9325996h-3.736979v-26.9325996-1.6235674c-2.203959-2.8651992-6.707562 0-8.624008 1.4325996-.191599.1909678-.574911 0-.479112-.3820493z" fill="#f24c64"/><path d="m164.724098 53.0500055v-11.0500055h4.655229v11.0500055c.4137.1856716.620673.4642897.620673.9285794 0 .5571254-.517248 1.0214151-1.13792 1.0214151h-3.72416c-.620672 0-1.13792-.4642897-1.13792-1.0214151.103425-.3714539.413823-.7429078.724098-.9285794z" fill="#ce2951"/><g transform="translate(127 57)"><path d="m1.73200485 75.1432722 51.52065415-8.2489717 2.6659952-22.043778.5331533-12.4392341-1.4663431-25.20083145-44.98889738 1.35351314-4.39891491 2.77154461-2.19940028 7.5409855 1.39967034 13.0840747.53315329 12.503295-.53315329 10.1833789-.99974819 10.2485837z" fill="#095411"/><path d="m53.2535739 66.8977324-1.7329198-.3866527c0-.0640608 2.3994186-9.7326655 3.0659174-14.9524765 1.3329976-10.1845229 1.2663248-21.6571254-.0666728-36.1585452v-.2578447c-.3332494-3.8026948-.7997299-8.12107889 1.1997665-11.73044725 1.1330937-1.99801052 3.3991667-3.8026947 5.865258-3.09367895 2.6659952.77341974 3.7989745 4.18934738 4.532146 6.4452026.0666728.25784471.1333455.51568943.2665767.70901576l-1.7329198.5800934c-.0665584-.19332633-.1332311-.45117104-.2665766-.70901575-.599826-1.86908817-1.5329015-4.76944078-3.332494-5.2851302-1.3996703-.38665267-2.9325718.83793811-3.7324161 2.25585523-1.7329197 3.15819732-1.3329976 6.96089206-.9997482 10.69918276v.2578447c1.3996703 14.5662814 1.3996703 26.1681495.0666728 36.4807939-.6664988 5.3490766-2.9992446 14.7591502-3.1325901 15.1458029z" fill="#fff"/><path d="m7.99809989 8.50299794 1.86615088-.51557503 50.12098383-7.92763809s4.3322421-1.22470518 6.3317385 7.41206306l-51.5205398 8.24988682c-.0666727 0-1.0664209-3.2226013-1.2664392-3.6093684-.5331532-1.1600724-1.4662287-2.19133685-2.5326496-2.96475659-.9331898-.5800934-1.93293802-.5800934-2.99924461-.64461177z" fill="#4fd875"/><path d="m66.1344522 6.82197397-51.5013271 8.53461423.1351753.7623234 51.5012127-8.53472853z" fill="#4fd875"/><g fill="#095411"><path d="m6.13069104 133.414575c-.06667275 0-.06667275 0-.13334551 0-.86651705-.064061-1.46634309-.773305-1.39967034-1.611815l9.33109751-109.6343356c.0665584-.8374805.7997299-1.4175739 1.666247-1.3530555.8664027.0644039 1.4662287.7734197 1.3995559 1.6115866l-9.33098308 109.6343355c-.06667275.773305-.73317155 1.353284-1.53290148 1.353284z"/><path d="m32.0579287 159c-.8664027 0-1.5329015-.645184-1.5329015-1.48255l-1.7995925-68.5141667c0-.8373661.6664988-1.5466107 1.5330159-1.5466107.8664027 0 1.5995742.6451838 1.5995742 1.4825499l1.7994781 68.5130225c0 .83851-.7330571 1.547755-1.5995742 1.547755z"/><path d="m83.4470671 143.470976c-.7330571 0-1.3997847-.515918-1.532444-1.225162l-11.3977241-61.4869266c-.1333455-.83851.3999222-1.6118154 1.2663249-1.7410809.866517-.1281216 1.666247.3866527 1.7995925 1.2251627l11.3966948 61.4880698c.1338029.837366-.3991216 1.610672-1.2659818 1.739937-.1326593 0-.2001326 0-.2664623 0z"/></g><path d="m14.7288457 15.7183029 10.863999 74.5719161 52.7868646-11.0859498-12.1302095-71.99381225z" fill="#e8f4e8"/><path d="m14.7296462 15.7219635c-.599826-2.5781039-1.9328236-6.31639468-4.73216428-7.1542184-2.46597693-.70901576-4.73216432 1.16007241-5.86514365 3.093679-1.99949638 3.6093683-1.59957423 7.9277525-1.19976645 11.7298752v.2585311c1.39967034 14.4377022 1.39967034 25.9743655.06667275 36.1577444-.66649879 5.220955-2.93257182 14.4377023-2.99924457 14.5017631l1.66624699.83851c.06667275-.3866526 2.46609128-9.7967262 3.13259007-15.1469467 1.33299759-10.3126445 1.33299759-21.9133686-.06667275-36.4803364v-.2573871c-.33324939-3.7385195-.73317154-7.6056182.99974819-10.6994115.7998443-1.4179172 2.33274578-2.64250796 3.73241612-2.2558553 3.99899278 1.1601868 4.06566548 9.3456696 4.53226038 12.7619405.8664027 5.8649948 1.7328054 11.7299896 2.5993225 17.5949844 1.0664209 7.1542183 2.1328419 14.3736414 3.1991484 21.5278598.9331898 6.1875867 1.8662653 12.3751733 2.732668 18.56276.3999221 2.899895.6664988 4.5757713 1.0664209 7.4756663l.1333455 1.3532844 1.666247.7092445c-.3332494-2.3839768-.6664988-4.7690976-1.0664209-7.1542184-.8664027-5.7357292-1.666247-11.5366632-2.5326497-17.2735364-.9997482-7.0249529-2.0661692-14.0499057-3.0659173-21.1400632-.9331898-6.2516475-1.7995925-12.4392342-2.732668-18.6908817-.4665949-3.2876916-.7998443-6.6392153-1.4663431-9.9262205.2665767-.1289224.1999039-.2578448.1999039-.3867671z" fill="#4fd875"/><path d="m20.9961987 37.0556962c.1336886-.1292655.2673772-.1292655.4010658-.1292655.0667871 0 .0667871.0640608.0667871.0640608l-.0667871.1292655c-.0669015 0-.2004757 0-.4010658-.0640608z" fill="#f24c64"/><path d="m45.1260168 38.9248988c-.2000183.1292655-.3999222.2573871-.5332677.3225918-.3999221.2573872-.7997299.5147743-1.1996521.7733054-.6664988.4507134-1.3329976.9025709-2.0661691 1.3532843-.0666727.0640608-.1333455.1292656-.2000183.1933264-.0665583.0640608-.1332311.1292655-.1999038.1292655-.0666728 0-.0666728-.1292655-.1333455-.1933263-.1332312-.7092446-.2665767-1.3544283-.3998078-2.0625289 0-.1292656-.0666728-.1933264-.0666728-.3225919h-.0666727v.3225919c.1999039 1.0306924.3999221 2.1265897.599826 3.1572821.1333455.581123.2665766 1.0958972.3332494 1.6758763.1333455.579979.2665766 1.1611019.3332494 1.7410809.0666727.3214479.1333455.6440398.2000183 1.0306925 0 .1292655-.0666728.1933263-.2000183.1933263-.1332311 0-.1999039.0640608-.1332311.1933264.0665583.5159182.1999038 1.0958972.2665766 1.6118154v.3866527c-.0666728-.2585311-.1333455-.4518575-.2000183-.7092446-.0665583-.3866527-.1332311-.7092445-.1999038-1.0958972 0-.0640608 0-.1281216 0-.1933263 0-.1292656-.0666728-.1933264-.1999039-.1292656-.2000183.0652048-.266691 0-.3332494-.2573871-.0666728-.5159182-.2000183-1.0958972-.266691-1.6106715-.1999039-.9025709-.3332494-1.8051418-.5331533-2.6436518-.1333455-.7081006-.3332494-1.481406-.4665949-2.1906505-.0666728-.4518574-.1999039-.8385101-.2665767-1.2892236 0-.0640608-.0666727-.1933263-.1332311-.2573871h-.0666728v.2573871c.1332312.7092446.2665767 1.3532844.4664806 2.0625289.0666727.1933264-.0666728.3866527-.3332494.4507135-.6664988.1292655-1.3329976.2585311-1.9994964.3866527-.1332312 0-.2665767.0652047-.4664806.1292655 0 .1292655 0 .2573871.0665584.3866527.2000183.9666316.3999222 1.9984681.5999404 2.9650997.1332312.6440398.2665767 1.2892236.3998078 1.9332634.0666728.2585311 0 .3225919-.2665766.3225919-.3332494.0640608-.3332494.0640608-.2665767.3866526.0666728.2573872.0666728.4507135.0666728.7092446.0666727.2573871.1332311.5147743.1999039.7733053.0666727.1933264.0666727.3866527.1333455.6440398h-.0666728c-.0666727-.1281216-.0666727-.1933263-.1333455-.3214479-.0665584-.5811229-.1999039-1.0958972-.2665766-1.6758762-.0666728-.4518574-.0666728-.4518574-.5998261-.3866527-.3332494.0640608-.3999221 0-.3999221-.2585311-.1332312-.7092445-.2665767-1.4825499-.3999222-2.1906505-.1332311-.7092445-.2665766-1.3544282-.3998077-2.0625288-.1333455-.5159183-.2666911-1.0318365-.3332494-1.5477547-.1333455-.7733053-.3332494-1.4825499-.2666911-2.2558552.0666728-.579979 0-1.0947533-.0666727-1.6758762 0-.1281216-.0665584-.1933264-.1999039-.1281216-.599826.1281216-1.1996521.2573871-1.7995925.3225919-.1999039.0640608-.2665766.1281215-.1999039.3214479.1333455.3866527.3332494.7733053.4665949 1.159958.0665584.3225919.1332312.6451837.1999039.9677756.1999039 1.0947533.4665949 2.1906505.6664988 3.2865477.1999039.9025709.3999222 1.8692026.5331533 2.7717735.0666728.4507134.2000183.9025708.3332494 1.3532843.0666727.3225919-.0665584.3866527-.3332494.4507135-.3332494 0-.3332494 0-.2665766.3225918v.2573872c-.0666728-.1281216-.0666728-.1933264-.0666728-.2573872-.0665584-.3225918-.0665584-.3225918-.4664805-.2573871-.1333455 0-.3332494.1281216-.4665949 0-.0666728-.0652047-.1332312-.1292655-.1332312-.1933263-.2000182-.9666317-.3999221-1.9984681-.5999404-2.9650998-.2665766-1.2251627-.4664805-2.5132424-.7330572-3.7384051-.0666727-.3866527-.1333455-.7733054-.266691-1.0958972-.1999039-.5159182-.1999039-1.0306925-.2665766-1.5466107 0-.3225919-.1332312-.3866527-.4664806-.3225919-.5332676.0652048-1.0664209.1933264-1.5996886.2585311-.1332311 0-.1999038 0-.3332494.0640608-.0666727 0-.0666727.0640608-.0666727.0640608l.0666727.0652047c.0666728.0640608.1333456.1281216.1333456.1933264.1332311.7081006.2665766 1.4173451.3999221 2.1265897.1332311.7092445.3332494 1.418489.4664805 2.0625288.2000183.9666317.3999222 1.9332634.5999404 2.8998951.1332312.6451837.2665767 1.2892235.3998078 1.9344073.0666728.1933263.0666728.3214479.1333455.5147742.0666728.1292656 0 .2585311-.1333455.2585311-.1332311 0-.2665766.0640608-.4664805.0640608.0666727.7733054.2665766 1.6118154.3999221 2.3851208-.0666727 0-.0666727 0-.1333455 0-.0666727-.4518574-.1999039-.8385101-.2665766-1.2892236-.0666728-.3225918-.1333455-.579979-.1333455-.9025708 0-.1292656-.0666728-.2573872-.2665767-.1933264-.0666727 0-.1333455.0640608-.1999038.0640608-.3332494.0652048-.466595.0652048-.5332677-.3214479-.0666728-.5159182-.1999039-1.0958972-.2665766-1.6118154-.0666728-.5159182-.2000183-.9666317-.3332494-1.4825499-.2000183-1.0306925-.3999222-2.1265897-.6664988-3.1584261-.2000183-.8373662-.3332494-1.6747323-.5332677-2.5132424-.1332311-.5159182-.1999039-1.0306925-.3332494-1.6106715 0-.1292655 0-.1933263.1333455-.2585311.1999039-.0640607.1999039-.1292655.1999039-.3225918-.0665584-.4507135-.0665584-.4507135-.5331533-.321448-.5331533.0640608-.9997482.1933264-1.5330158.2573872-.2665767.0640608-.3332494 0-.3998078-.2573872-.0666728-.3866526-.1333455-.83851-.2000183-1.2251627-.0666727-.1933263-.1332311-.2573871-.3999221-.1933263-.5331533.1292655-1.1329794.258531-1.7328054.3225918-.1333455 0-.3999221.1292656-.3999221-.0640608-.0666728-.1933263.1999039-.1933263.3999221-.1933263.599826-.1292655 1.1996521-.1933263 1.7994781-.3225919.1333455 0 .2000183-.1292655.2000183-.2585311-.0666728-.4507134-.2000183-.9014269-.266691-1.3532843 0-.1281216 0-.2573871 0-.3866527 0 0 .0666727-.0640608.1333455-.0640608.6664988-.1292655 1.2663248-.2573871 1.9328236-.3225918.2000183 0 .266691-.1292656.2000183-.2573872-.0666728-.1933263-.0666728-.3225919-.1333455-.5159182-.0666728-.2573871 0-.5159182.1333455-.7092445-.0666728-.0640608-.1333455-.0640608-.2665767-.1281216.1999039 0 .2665767-.1292656.3998078 0h.0666728c.866517-.1933264 1.7995925-.3225919 2.6659951-.5159182.2000183-.0640608.3999222-.1292656.5332677.1292655.0665584.0640608.2665766.1281216.3332494.0640608.1332311-.0640608.2665766-.1933263.3332494-.2573871.0666727-.1292656.1332311-.2585311.2665766-.2585311.3332494-.0640608.6664988-.1292655.9997482-.1933263.4665949-.0640608.9330755-.1933264 1.3996704-.2573872.1332311 0 .2665766.0640608.3332494.1281216.1332311.1292656.3332494.2585311.5331533.1292656.1333455-.0640608.266691-.1292656.2000182-.3225919-.1333455-.5147743-.2000182-.9666317-.266691-1.481406-.1332311-.7744492-.2665766-1.5477546-.3998078-2.3210599-.0666727-.1933264-.0666727-.4507135-.1333455-.6440398-.0666727-.1933264 0-.2585311.1999039-.3225919.5999404-.1292655 1.2664392-.2573871 1.8662652-.3866527.3332494-.0640608.5331533 0 .5998261.3866527.1333455.6440398.2665766 1.2892235.3999221 1.9332633.0666728.3225919.1333455.5799791.1999039.8385101 0 .0640608.0666728.1281216.1333455.1281216.2665767 0 .2665767-.0640608.3332494-.1933263.1999039.1292655.3999222.0652047.5331533 0 .0666728 0 .0666728-.1281216.0666728-.1281216-.0666728-.3866527-.1332312-.7092445-.1999039-1.0958972-.1333455-.6451838-.2665767-1.2251628-.3999222-1.8692026-.0666727-.1933263 0-.2573871.1999039-.1933263.5332677.1292655 1.066421.1933263 1.5996886.3225919.3998078.0640608.79973.1281216 1.2663249.1933263.4665949.0640608.9997482.1281216 1.4663431.2573871.1999038.0640608.3998077.1292656.599826.1933264.1999039.0640608.4664805.0640608.6664988.0640608.7331715.1292655 1.4663431.258531 2.1994003.3866526h.0666727c.5332677.0652048.5332677.0652048.5998261.581123 0 .1933263 0 .3866527.0666727.579979.0666728.2573871.1333455.5147743.2665767.7081006.1333455.1292655.266691.3225919.5999404.2585311.3998077-.1292656.7997299-.1292656 1.199652-.1933264.2000183 0 .3999222-.1292655.5332677-.258531.0665584-.1281216.0665584-.2573872.0665584-.3866527 0-.3214479-.0665584-.3214479.266691-.3866527.7330572-.1281216 1.399556-.2573871 2.1327275-.3866527.3999222-.0640608.7998443-.1933263 1.1997665-.2573871.3999221-.0640608.7331715-.1292655 1.1329793-.1933263.2000183-.0652048.3999222-.0652048.5999404-.1292656.0665584 0 .1999039 0 .2665767.0640608.1999038.1292656.4664805.2585311.6664987.4518574.0666728 0 .0666728.0640608.1332312.1292656.1333455.8373661.266691 1.6747323.4665949 2.5132423 0 .1933264.1333455.2573872.3332494.1933264.1333455-.0640608.3332494-.0640608.4665949-.0640608.1999039 0 .3332494-.1292656.4664805-.3225919.1333455-.1933263.2000183-.3866527.3999222-.5159182s.3999221-.1292655.599826-.1933263c.3999222-.0640608.7331716-.1292656 1.1330937-.1933264.1999039-.0640608.3999222-.1933263.5331533-.3225918.2000183-.321448.3999222-.4507135.7998443-.5147743.9330754-.1292655 1.8662652-.3225919 2.7993407-.5159182.1332311 0 .1999039-.0640608.2665766-.0640608.1333455 0 .1999039.0640608.2665767.1281216-.0666728.0652047-.1332312.1292655-.1999039.1933263-.3332494.0652048-.7331716.1292656-1.066421.1933263-.5331533.1292656-1.1330937.1933264-1.666247.3225919 0 0 0 0-.0666727.0640608.0666727.0652048.0666727.0652048.1333455.1292656.0665584.0640608.1999039.1292655.2665766.1933263.0666728.0640608 0 .1292655.0666728.1933263-.0666728 0-.1333455 0-.2000183 0-.1999039-.0640608-.4664805-.1933263-.6664988-.2573871-.1999038-.0652047-.3332493-.0652047-.4664805.1281216-.0666727.1292655-.2000182.2585311-.3332494.3866527-.0666727.0652047-.1333455.0652047-.2000182.0652047-.4664806.0640608-.8664027.1933263-1.3329976.2573871.1333455.2585311.2665766.3866527.5332676.3225919.1332312 0 .2665767-.0640608.3998078-.0640608.0666728 0 .266691.0640608.266691.1281216.0665584.1292655-.0666727.1933263-.1333455.1933263 0 0-.0666727 0-.0666727.0652048.2000182.0640608.3332494.1933263.5332676.2573871.3998078.1292656.7330572.2573871 1.1329793.3225919h.2665767c.9331898-.1933263 1.932938-.3225919 2.8660134-.5159182.2665767-.0640608.5998261-.1292656.8664027-.1292656.0666728 0 .266691.0652048.266691.0652048.0665584.1281216-.0666727.1933263-.2000182.1933263-1.1329794.1933264-2.1994003.3866527-3.332494.6440398-.0666728 0-.1333455 0-.1999039.0640608-.266691.0652048-.5332677.1292656-.7998443-.0640608-.3999221-.2573871-.8664027-.2573871-1.3996703-.0640608-.2665767.0640608-.5998261.1281216-.9330755.1933264-.1333455 0-.2665766 0-.3332494-.0652048-.1999039-.1281216-.3999221-.3214479-.599826-.3866527-.1333455-.0640607-.266691-.0640607-.4665949-.0640607-.1333455 0-.3332494.0640607-.4665949.0640607-.2665767.0652048-.2665767.0652048-.2665767.3225919.1333455.5159182.2000183 1.0318364.3332494 1.6118154v.1933264c0 .1281216.0666728.2573871.2665767.1933263.2000182-.0652047.266691 0 .266691.1933264.1332311.8373661.3332494 1.6106714.4664805 2.4491815.1333455.579979.2000183 1.0958972.3332494 1.6758762.0666728.3866527.2000183.8373662.266691 1.2240188.1332312.6451838.2665767 1.2251628.3332494 1.8692026.0665584.4518574.1999039.9025709.2665767 1.3532844.1332311.7092445.3332494 1.418489.4664805 2.1277336 0 .1281216 0 .1933263-.1332311.1933263-.1333455.0640608-.3332494.0640608-.5332677.1281216.2000183.8385101.3332494 1.741081.5332677 2.5784471-.0666728.0640608-.2000183.1292656-.2000183-.0640608-.0665584-.5159182-.1999039-1.0958972-.2665766-1.6118154-.0666728-.2573871-.1332312-.579979-.1999039-.8373661 0-.0652048-.0666728-.0652048-.1333455-.0652048-.1333455 0-.3332494.0652048-.4664806.0652048-.3333637-.2585311-.266691-.6451838-.3333637-1.0318365-.1332312-.7092445-.2665767-1.4173451-.3998078-2.1265897-.2000183-1.0318364-.3999222-1.998468-.5999404-3.0291605-.0665584-.4518574-.1999039-.9666317-.3332494-1.4184891-.0665584-.3866527-.1332312-.7092446-.1999039-1.0958972-.0666728-.2573872-.1333455-.579979-.1999039-.8373662 0-.1292655 0-.1933263 0-.3866526-.266691.0640608-.5999404.0640608-.8665171.1292655-.2665766.0640608-.599826.1281216-.8664026.1933263-.2000183 0-.2665767.1281216-.1333455.2573872.2000182.2573871.2000182.5159182.2665766.8373661.1333455.7092446.266691 1.4184891.3999221 2.0625289.1333456.7092445.2665767 1.4184891.3999222 2.1277336.1333455.7733054.3332494 1.5466107.5331533 2.2558553.1333455.6440398.266691 1.3532843.3999221 1.9973241.0666728.1933264-.1332311.5159182-.3332494.5159182-.1332311.0640608-.1332311.1292656-.1332311.2573872.1332311.7092445.2665766 1.4825498.3998078 2.1917944v.1933263c0-.0640608-.0665584-.0640608-.0665584-.1292655-.1333455-.5147743-.2000183-1.0947533-.266691-1.6106715-.0665584-.2573871-.0665584-.5159182-.1332312-.7733053 0-.0652048-.1333455-.0652048-.2000182-.0652048-.1999039 0-.3998078.0652048-.5331533-.0640608-.0666728-.0640608-.0666728-.1292655-.0666728-.1933263-.0666727-.3866527-.1332311-.7092446-.1999038-1.0958972-.1333455-.5159182-.2000183-1.0306925-.3332494-1.5466107-.0666728-.3225919-.1333455-.6440398-.1333455-.9025709-.0666728-.4507135-.1999039-.9025709-.2665767-1.3532843-.1333455-.6440398-.2665766-1.2892236-.3999221-1.9332634-.1332312-.579979-.2665767-1.159958-.3332494-1.741081-.0666728-.2573871 0-.579979 0-.9014269 0-.0652047 0-.1292655 0-.2585311-.5331533.1292656-1.066421.1933264-1.5995743.3225919-.4665949.0640608-.5332676.0640608-.599826-.4507135-.0666728-.4518574-.2000183-.5159182-.6664988-.4518574-.1333455 0-.266691 0-.3999222.0652048-.3999221.0640608-.7331715.1933263-1.1330937.1933263-.2665766.0640608-.2665766.2573871-.3332494.4507135 0 .1292655 0 .1933263.0666728.3225918 0 .0640608.0666728.0640608.1332311.0640608h.5332677c.1999039 0 .2665766.0640608.3332494.2573872.1333455.3225918.2665766.6451837.4665949.9677756.1999039.3214479.2665766.7081006.3332494 1.0947533.1999039.8385101.3332494 1.6118154.4664805 2.4491815.2000183 1.0318364.3999222 1.9984681.5998261 3.0303045.1333455.7081006.266691 1.3532844.3999221 2.061385.0666728.2585311-.0666727.3877966-.2665766.3877966-.0666728 0-.1333455.0640608-.1999039.1281216-.1333455 0-.266691-.0640608-.3332494-.0640608-.2000183 0-.3332494-.0640608-.3332494-.2573871-.2000183-1.0318364-.4665949-2.1277337-.6664988-3.1584261-.266691-1.2892236-.5332677-2.6425079-.7998443-3.9317315-.0666728-.3866527-.1333455-.7092445-.2665766-1.0318364 0-.1281216-.0666728-.1281216-.2000183-.0640608-.3332494.1933263-.7331716.3866527-1.0664209.6440398-.3998078.2585311-.8664027.579979-1.2663249.8385101-.1332311.0640608-.1332311.1933263 0 .2573871.1333455.0652048.3332494.1292656.4665949.1933264.0666728 0 .0666728.0652047.1332312.1292655.1333455.7733053.266691 1.5466107.3999221 2.319916.1333455.6451838.2000183 1.3532844.3332494 1.9984681.1333455.5159182.2000183 1.0306925.3332494 1.5466107.0666728.3225919.1333455.6451837.2000183.9666317 0 .1292655-.0666728.258531-.2000183.258531-.3999221.0640608-.7997299.1281216-1.1996521.1933264-.2665766.0640608-.2665766 0-.3332494-.2585311-.1333455-.8373661-.3332494-1.6106715-.4665949-2.4491816-.1332311-.7081006-.2665766-1.4173451-.4664805-2.0625288-.0666728-.4507135-.2000183-.8373662-.266691-1.2892236 0-.0640608 0-.1281216.0666727-.1281216.1333455-.3225919.3332494-.7092445.4665949-1.0318364.1332312-.0640608.1332312-.1281216.0666728-.2573871.0665584.0640608.0665584 0 0 0zm-6.6651023-12.6977653v.1292656c.0666727.5159182.2000182.9666316.2665766 1.4825499.0666728.4507134.2000183.8373661.266691 1.2892235 0 .0640608-.0666727.1933263-.1333455.1933263-.1999039.0640608-.1999039.1933264-.1333455.3225919 0 .1281216.0666728.2573871.0666728.4507135.0666727.4507134.2000182.9025709.266691 1.3532843.1332311.6451838.2665766 1.2892236.3332494 1.9332634 0 .0652047.1332311.1292655.1999039.1292655.1333455 0 .3332494-.0640608.4665949-.0640608.0665584 0 .1332311 0 .1999039.0640608-.0666728.0640608-.0666728.1292656-.1333455.1933264-.0665584.0652047-.1999039 0-.2665767.0652047-.3332494.0640608-.3332494.0640608-.2665766.3866527.0666727.3866526.1333455.8373661.2665766 1.2240188.0666728.4507134.2000183.9025709.3332494 1.3532843.1333455.6451838.2000183 1.2892236.3332494 1.8692026.1333455.8385101.3332494 1.6118154.5332677 2.4491815.0665583.1933264.1332311.2585311.2665766.1292656.4664805-.2573871.8664027-.579979 1.3329976-.8385101.3999221-.2573871.7998443-.5147743 1.1996521-.7733053.3332494-.1933264.5999404-.4507135.9331898-.6440398.599826-.3866527 1.2663248-.7733054 1.8661509-1.2251628.3332494-.1933263.599826-.4507135.9330754-.6440398.266691-.1292655.3332494-.3225919.2665766-.579979-.1999039-.9666317-.3998077-1.9332634-.599826-2.901039-.0666728-.3866527-.1332311-.7733053-.2665766-1.2240188-.4665949.0640608-.9330755.1933263-1.3996704.2573871-.5331533.1292656-1.0664209.1933264-1.666247.3225919-.0666727 0-.1332311-.0640608-.1999039-.0640608.0666728-.0652047.0666728-.1292655.1332312-.1292655.1333455-.0640608.266691-.0640608.3332494-.0640608.5999404-.1292656 1.1997664-.1933264 1.7995925-.3225919.2665766-.0640608.5331533-.1292655.7998443-.1292655-.1333455-.7081006-.266691-1.4173452-.3999222-2.1265897 0-.0640608-.0666727-.1292656-.2000182-.1933264-.2665767-.1292655-.3332494-.3225918-.3998078-.5159182-.0666728-.1281216-.0666728-.3225918-.0666728-.5159182-.0666727-.3866526-.1333455-.7733053-.2000182-1.0947532 0-.0652048-.0665584-.1292656-.1332312-.1933264-.599826-.1292655-1.1330937-.1933263-1.7329197-.3225919-.5998261-.1292655-1.1997665-.1933263-1.7995925-.3225918-.599826-.1292656-1.2663248-.1933264-1.8661509-.3225919-.2665766-.0640608-.4665949-.0640608-.7331715-.1281216-.1999039-.1292655-.4665949-.1933263-.7998443-.2585311zm12.5302459 1.9984681c.0666728.0640608.2000183.1933264.2665767.2573872-.1332312.0652047-.1999039.1292655-.3332494.1292655-.4664806.1292655-.9330755.2573871-1.3329976.3225919-.0665584 0-.0665584.0640608-.0665584.1281216.0665584.3225918.0665584.6451837.1332311.9677756.0666728.4507135.2000183.8373661.2665767 1.2880796 0 .1292655.0666727.1944703.2000182.1292655.1999039-.0640608.4664806-.0640608.6664988-.1292655.0666728 0 .1332312 0 .1999039.0652047 0 .0640608 0 .1292656-.0666727.1933264-.0665584.0640608-.1332312.0640608-.1999039.0640608-.2665767 0-.4665949.0652047-.7331716.0652047.0666728.2573871.0666728.4507135.1333455.7081006.1332312.579979.2665767 1.2251628.3999222 1.8051418 0 .1933263.0665584.1933263.1999039.1292655.2665766-.0652047.4665949-.1292655.7331715-.1292655.1999039-.0640608.3999222-.0640608.5331533-.1292656.0666728 0 .1333455.0652048.1333455.1292656s-.0666727.1292655-.1333455.1292655c-.3999221.0640608-.7997299.1281216-1.1996521.2573871-.0666727 0-.1333455 0-.1333455.0640608 0 0-.0666727.0652048-.0666727.1292656 0 0 .0666727.0640608.1333455.0640608.6664988-.1281216 1.3329976-.2573872 1.9328236-.3866527.0666728 0 .0666728-.0640608.0666728-.1281216 0-.0652047-.0666728-.0652047-.0666728-.1292655-.0666727-.0640608-.1332311-.1292656-.1332311-.1933264s.0665584-.1292655.1332311-.1292655c.6664988-.1281216 1.2664392-.2573871 1.932938-.3866527.0665584 0 .1999039.0640608.2665766.1292656-.0666727.0640608-.1333455.1292655-.2000182.1292655-.3332494.0640608-.7330572.1281216-1.1329793.1933263-.1333455 0-.2665767.0640608-.3999222.0640608.0666728.1933264.1333455.2573872.3332494.1933264.4665949-.0640608.8664027-.1933264 1.3329976-.2573872.1999039-.0652047.3999221-.1292655.7331715-.1933263-.0666727-.1292655-.1333455-.1944703-.2000182-.2585311 0-.0640608-.0665584-.0640608-.1332312-.0640608 0-.0652047.0666728-.0652047.0666728-.1292655.0665584-.0640608.0665584-.1933264.0665584-.2573871 0-.1933264-.0665584-.3866527-.1332312-.5799791-.0666727-.3225918-.1333455-.579979-.1333455-.9025708 0-.1292656-.0666727-.2585311-.2665766-.1933264-.0666728 0-.1333455 0-.1999039-.0652047.0665584-.0640608.1332311-.0640608.1999039-.1281216.0666727-.0652047.1333455-.0652047.1333455-.1292655 0-.1292656-.0666728-.3225919-.0666728-.4507135-.2665766.0640608-.5332676.1281216-.7998443.1281216-.0666727 0-.0666727.0652047-.0666727.0652047s-.0665584.0640608-.0665584.1281216c0-.0640608-.0666727-.0640608-.0666727-.1281216 0-.0652047-.0666728-.1933263-.0666728-.2585311 0-.0640607.0666728-.0640607.1333455-.1281215.2665767 0 .599826-.0652048.8664027-.0652048 0-.1281216 0-.2573871-.0666728-.3866527 0-.1281216 0-.2573871-.1999039-.2573871 0 0-.0666727-.1292655 0-.1292655.1332312-.0640608.1332312-.2573872.1332312-.321448-.0665584-.3877966-.1332312-.7744492-.2665767-1.1611019-.0666727-.1933264-.0666727-.3214479-.1332311-.5147743-.1333455.0640608-.2000183.0640608-.3332494.1281216-.266691.0652048-.5999404.1292656-.866517.1933263-.3999222.0652048-.79973.1933264-1.1996521.2585311-.2000183.0640608-.2000183-.0652047-.2000183-.1933263 0-.0652048 0-.0652048 0-.1292655-.0666727.2573871-.3999221.3225918-.6664988.3866526zm-23.6608215 7.7994021c.0666727.2573872.0666727.4507135.1333455.6440398.1332311.6440398.2665766 1.3532844.4664805 1.9984681.0666728.2573872.266691.3866527.4665949.321448.7998443-.1933264 1.666247-.321448 2.4660913-.5147743.1332311 0 .1999039-.1292655.1999039-.2585311-.0666728-.3866527-.1332312-.7733053-.1999039-1.0958972-.0666728-.5147743-.2000183-.9666317-.3332494-1.4825499 0-.1281216-.1333455-.1933263-.2665767-.1281216-.0666727 0-.1333455-.0652047-.2000182-.0652047.0666727-.0640608.1333455-.1281216.1333455-.1281216.1999039-.0652048.1999039-.1292656.1999039-.3225919-.0666728-.3225919-.1332312-.6440398-.1999039-.9666317-.1333455-.5159182-.2000183-1.0318364-.3332494-1.5466107 0-.1292655-.0666728-.1933263-.2000183-.1292655-.3332494.0640608-.6664988.1292655-.9997482.1933263-.3999221.0640608-.7997299.1933264-1.199652.2573872-.3332494.0652047-.4665949.1933263-.3999222.5159182.0666728.2573871.1333455.579979.1999039.8385101.0666728.2573871 0 .3214479-.1999039.4507134-.0666727.0640608-.0666727.1292656-.0666727.1933264.0666727.2573871.1333455.579979.1333455.8373661 0 .1933263.1332311.2585311.3332494.1933263.2665766-.0640608.599826-.1281215.8664027-.1933263.1333455 0 .2665766 0 .2665766.1292655 0 .0640608-.1332311.1292656-.1999039.1292656-.2665766 0-.6664988.0640608-1.0664209.1292655zm10.7973262 5.7997901c.3332494-.0640608.599826-.1281216.9331898-.1933263.1332311 0 .1332311-.0640608.1332311-.1933264-.0666727-.3866527-.1333455-.7733053-.1999039-1.159958-.1333455-.579979-.2000182-1.0958972-.3332494-1.6758762-.2000182-.9666317-.3999221-1.8692026-.5332676-2.8358343-.0666728-.5159182-.1999039-.9666316-.3332494-1.4825498 0-.1281216-.0666728-.1933264-.1999039-.1933264-.5998261.1292656-1.1997665.2585311-1.7995925.3225919-.1999039 0-.1999039.1292655-.1999039.2573871.0666728.4518574.1332311.9025709.2665766 1.4184891.1333455.7092446.2665767 1.4173452.3999222 2.1265897.1332311.579979.1999039 1.0958972.3332494 1.6758762.1332311.6440398.2665766 1.3532844.3999221 1.9984681 0 .1281216.1332312.1933264.2665767.1933264.3332494-.1292656.599826-.1933264.8664027-.2585311zm-5.598567-3.6091396c.7331715-.1292655 1.4662287-.2573871 2.1994002-.3866527.1333456 0 .1333456-.1292655.1333456-.2573871-.1333456-.8385101-.3332494-1.6758762-.4665949-2.5784471-.0665584-.2573871-.0665584-.2573871-.3332494-.1933263-.4664806.0640608-.9330755.1933263-1.3996704.2573871-.0665584 0-.1332311-.0640608-.1999039-.0640608.0666728-.0640608.1333455-.1292655.1999039-.1292655h.1333455c.3999222-.0640608.8664027-.1281216 1.2663249-.2573872.1333455 0 .2000182-.0640608.2000182-.2573871-.0666727-.4518574-.1333455-.8385101-.266691-1.2892235-.0665584-.4518575-.1999039-.9025709-.2665766-1.3532844 0-.0652047-.1332312-.1292655-.1332312-.1292655-.5999404.0640608-1.2664392.1933263-1.8662652.3225918-.1999039.0640608-.3332494.1933264-.2665767.3866527 0 .2573871.0666728.4507135.1333455.7081006.1332312.6451838.2665767 1.2892236.3998078 1.9984681.1333455.7092446.266691 1.4825499.3999222 2.1917944-.0666728.2573872 0 .6440398.1333455 1.0306925zm4.1323382-4.1250578c.3332494-.0640608.5998261-.0640608.9330755-.1281216.0666727 0 .1332311-.1292655.1332311-.1292655-.1332311-.5159182-.1999039-1.0958972-.3332494-1.6118154-.1332311-.579979-.1999039-1.0958972-.3332494-1.6758763-.0665584-.3214479 0-.7733053-.4664805-.9014269 0 0-.0666728-.0652047-.0666728-.1292655-.1333455-.6451838-.1999039-1.2892236-.3332494-1.9332634-.0666727-.3225919-.1333455-.6451837-.1999039-.9677756 0-.0640608-.1333455-.1281216-.1333455-.1281216-.3332494.0640608-.6664987.1281216-.9997481.1281216-.4665949.0652047-.4665949.1292655-.3999222.5811229 0 .1281216 0 .2573872.0666728.321448.1999038 1.0318364.3999221 2.1277336.599826 3.1584261 0 .1292655.0666728.3225919.0666728.5159182-.0666728.2573871-.0666728.4507135 0 .7092445.1999038.7733054.2665766 1.6106715.3999221 2.3839769 0 .1292655.0666728.1933263.1999039.1292655.2665766-.2573871.599826-.3225919.866517-.3225919zm-2.1328418 14.3084367c-.1333455-.7733053-.2665767-1.4825498-.3999222-2.2558552-.1333455-.7081006-.2665766-1.4173451-.3999221-2.1265897-.0666728-.4507134-.1999039-.9666317-.2665767-1.4184891-.1333455-.579979-.2665766-1.2240188-.3999221-1.8039978-.1332312-.4518574-.2665767-.9666317-.4664806-1.4184891 0-.0640608-.0666727-.0640608-.1333455-.0640608-.2665766.0640608-.5331533.0640608-.7998443.1292656-.0665584 0-.1332311.1281216-.1332311.1281216.0666727.3866526.0666727.7733053.1332311 1.0958972.1333455.8385101.3332494 1.6758762.5332677 2.5784471.1332311.7733053.3332494 1.5466107.4664805 2.319916.1333455.579979.266691 1.159958.3999222 1.739937.0666727.3225919.1333455.6451838.2000182.9677756.0665584.2573872.0665584.2573872.3998078.1933264.0666728 0 .2000183-.1292656.2000183-.1292656 0-.1933263-.0666728-.3225918-.2000183-.5159182-.0665584-.1281216-.1332311-.1933263-.0665584-.3214479.0665584-.0652047.1999039-.0652047.2665767-.0652047.1332311.0652047.1333455.1933263.0666727.3225918-.0666727.1292656 0 .3225919 0 .5159182.1999039.1281216.3998078.1281216.5998261.1281216-.0666728 0-.0666728 0 0 0zm-5.1987593-.1933263c.0666728.3866527.2000183.7092445.2666911 1.0318364 0 .0640608.0665583.1281216.1332311.0640608.1333455 0 .2665766-.0640608.3999221-.1292655 0 0-.0666727-.1933264-.0666727-.2573872v-.0640608c-.0666728-.0652047-.0666728-.1292655-.1332312-.1933263-.2000182-.0652047-.1333455-.1933263-.1333455-.2585311.0666728-.1933263.2665767-.1281216.3332494-.0640608.1332312 0 .1999039.1933264.1333455.2573872-.1333455.1933263-.0666727.3225918-.0666727.5159182 0 .1292655.0666727.1933263.1999039.1292655.1333455 0 .1333455-.0652047.1333455-.1933263-.0666728-.5159182-.1333455-1.0318364-.2665767-1.5466107-.1333455-.7092445-.266691-1.4184891-.4665949-2.1277336-.1333455-.7733054-.2665766-1.5466107-.4665949-2.3199161-.0666727-.5159182-.1999039-1.0318364-.3332494-1.5466106-.1332311-.5159183-.1999038-1.0318365-.3332494-1.5477547 0-.0640608-.0666727-.1281216-.1332311-.1281216-.266691 0-.5332676.0640608-.7998443.0640608-.1333455 0-.1999039.0640608-.1999039.2573872.0665584.3866526.1332312.83851.1999039 1.2251627.1999039 1.0306925.3999222 2.0625289.6664988 3.0932214.1333455.7092445.2665766 1.4184891.3999222 2.1277336.3332493.579979.4664805 1.0958972.5331532 1.6106715zm27.5265832-14.1151104c-.0666727 0-.0666727 0-.1333455 0-.2665766.3225919-.4664805.7092446-.7331715 1.0318364v.1281216c0 .1292656.0666727.3225919.1333455.4518575.1333455.579979.2665766 1.2240188.3332494 1.8039978.1333455.6451837.2665766 1.3544283.3999221 1.9984681.1999039.9025708.3332494 1.8051417.5331533 2.7065687.1333455.5159182.2000183 1.0318364.3332494 1.4825498 0 .0652048.0666728.1292656.1333455.1292656.1333455 0 .2665767-.0640608.2665767-.1292656 0-.1933263.1333455-.3866526-.1332312-.579979-.0666727-.0640608 0-.1933263 0-.2573871.0665584 0 .1999039-.0652047.2665767 0 .0666727 0 .0666727.1292655.0666727.2573871v.579979c.4664806 0 .4664806 0 .3998078-.3214479-.1332311-.6451837-.2665766-1.2892235-.3998078-1.9344073-.0666727-.4507135-.2000182-.9025709-.266691-1.3532843-.1332311-.7092446-.2665766-1.3532844-.3998078-2.0625289-.2000182-.8373662-.3333637-1.739937-.5332676-2.5784471-.0666728-.4507135-.1332312-.901427-.2665767-1.3532844zm-19.4619249 12.8910916c-.0665584-.2585311-.0665584-.4518574-.1332311-.6451838-.0666728-.4507134-.1333455-.9014269-.2665767-1.4173451-.1333455-.7092445-.266691-1.4184891-.3999221-2.0625289-.1333455-.7733053-.2665767-1.6118154-.4665949-2.3851208-.0666728-.4507134-.1999039-.9025708-.3332494-1.3532843-.0666728-.4507135-.0666728-.4507135-.5331533-.3866527-.1333455 0-.1333455.0640608-.1333455.1933264v.6440398c0 .579979 0 1.0958972.0666728 1.6758762.1333455.8385101.3332493 1.6758762.5331532 2.5143863.1333455.579979.266691 1.2240188.3332494 1.8039978.1333455.7092445.266691 1.4184891.4665949 2.1917944 0 .1292656.1333455.1933264.2665767.1292656.0666727 0 .2000182-.0652048.3332494-.1292656-.0666728-.1933263-.1999039-.3225918-.2665767-.5159182 0-.0640608 0-.1933263 0-.2573871.1333455-.0652047.2665767-.0652047.5331533 0zm15.4629322-10.8285627c.0666727.3225919.1332311.6451838.1999039.9666317.2665766 1.159958.4665949 2.32106.7331715 3.5450788.1999039 1.0318364.3999222 2.0625289.599826 3.1584261.0666728.1933263.0666728.3866527.1333455.579979 0 .0640608.1332312.1292655.1999039.1292655.1333455 0 .2665767-.0652047.2665767-.1292655.0666727-.1292655-.0665584-.3866527-.1999039-.5159182-.0666728-.0640608-.1333455-.1933264-.1333455-.2573872.0666727-.0640607.1333455-.1933263.266691-.1933263.0665584 0 .1999039.0640608.2665766.1292656 0 0 .0666728.1281215 0 .1281215-.2000182.1292656-.1333455.3225919-.0666727.5159183 0 .0640608.0666727.1292655.1333455.1292655.1332311 0 .1999039-.0652047.1332311-.1933263-.0666727-.3225919-.1332311-.7092446-.1999039-1.0958973-.1333455-.7733053-.3332494-1.4825498-.4665949-2.2558552-.0666727-.3866527-.1332311-.7733053-.2665766-1.2251627-.0666728-.3866527-.1333455-.7733054-.2665766-1.1599581-.2000183-.7733053-.3332494-1.5466106-.5332677-2.319916 0-.1292655-.0665584-.1292655-.1999039-.1292655-.1333455.0652047-.3332494.1292655-.599826.1933263zm-6.9983517 9.0234209s.0666727 0 0 0c.0666727.2585311.1333455.4518574.2000182.7092446.0666728.1292655.1332312.2573871.3332494.1933263.2665767-.0640608.4664806-.1292655.7331716-.1292655.1999039-.0640608.1999039-.1281216.1999039-.321448-.0666728-.258531-.0666728-.4518574-.1333456-.7092445-.1332311-.579979-.1999038-1.159958-.3332493-1.6758762-.0665584-.1933264-.0665584-.3866527-.0665584-.579979-.0666728-.2585311-.0666728-.5159182-.1333455-.7733054-.0666728-.3866526-.1999039-.8385101-.2665767-1.2251627-.0666727-.3866527-.2000182-.7733054-.2665766-1.159958 0-.0640608-.0666728-.1292656-.0666728-.1292656-.0666727.0652048-.1333455.0652048-.1333455.1292656-.0666727.0640608-.0666727.1292655-.0666727.1933263-.1332312.4507135-.3332494.8373661-.4664806 1.2892235 0 .0640608-.0666727.0640608-.0666727.1292656-.0666728.0640608-.1333455.1933263-.0666728.2573871.0666728.5159182.2000183.9666317.2665767 1.4825499.0666727.7733053.2000182 1.5466107.3332494 2.319916zm-7.1981413-11.4726024h.1999039.2000183c.2665766-.0640608.2665766-.0640608.2665766-.3225919-.1333455-.579979-.266691-1.0947533-.3332494-1.6747323-.0666727-.3877966-.1333455-.8385101-.2000182-1.2251627-.0666728-.2573872-.1332312-.5799791-.1999039-.8373662 0-.1292655-.0666728-.1933263-.2665767-.1933263-.3332494.0640608-.6664988.1281216-.9997482.1933263-.0666727 0-.1333455.1281216-.1333455.1281216.0666728.3225919.1333455.6451838.1999039.9666317.1333455.6451837.266691 1.2892235.3999222 1.8692025.0666727.3225919.1333455.7092446.2000182 1.0318365 0 .1292655.0665584.1933263.1999039.1292655.1333455 0 .3332494-.0652047.4665949-.0652047zm12.0636511 10.6352363c0-.0652047 0-.1292655 0-.1292655-.0666728-.3866527-.1333455-.7092446-.1999039-1.0958973-.1333455-.7092445-.266691-1.4173451-.3999222-2.1906504-.1333455-.7744493-.3332494-1.5477547-.4665949-2.32106-.0666727-.3866527-.1332311-.7733054-.2665766-1.159958 0-.0640608-.1333455-.1292656-.1999039-.1292656-.1333455 0-.266691 0-.3999222-.0640608-.1333455 0-.2000182 0-.2000182.1933264.1333455.7733053.3332494 1.4825499.4665949 2.2558552.0666727.2573871.1333455.4507135.1333455.7092445.0665584.4507135.1332311.9666317.2665766 1.4173452.1332312.5159182.1999039 1.0318364.3332494 1.5477546.1332312.579979.2665767 1.159958.3999222 1.739937 0 .0640608.1332311.1292656.1999039.1292656.0666727 0 .1333455-.0652048.1333455-.1292656 0-.1292655 0-.3225918-.2000183-.4518574-.1332311-.0640608-.1332311-.2573871 0-.3214479.1333455 0 .2665767.0640608.3999222 0zm-11.2639211-6.3168522c.1333455-.0640608.266691-.0640608.4665949-.0640608s.2665766-.1292656.1999039-.3225919c-.0665584-.3225919-.1332312-.7092445-.2665767-1.0306925-.0666727-.3866526-.1332311-.8385101-.2665766-1.2251627-.0666728-.4507135-.2000183-.9025709-.2665767-1.3532844 0-.0640608-.1333455-.1933263-.2000182-.1933263-.3332494.0640608-.6664988.1292655-1.066421.1933263-.0665584 0-.1332311.1292656-.1332311.1933264.0666727.3866526.1332311.7092445.1999039 1.0958972.2000182.9025709.3332494 1.8039978.5332676 2.7065687 0 .1292655.1332312.1933263.2665767.1292655.2665766-.0652047.3999221-.0652047.5331533-.1292655zm9.8642507-8.5075027c-.3999221.0640608-.7997299.0640608-1.1329793.1292655-.3999221.0640608-.7998443.1933263-1.2664392.2573871-.0666727 0-.1332311.0640608-.1332311.1292656 0 .1281216 0 .1933263.0665584.3214479.1333455.5159182.2000182.9666317.3332493 1.4825499.0666728.1933263.1333456.2585311.2666911.1933263.5331532-.1281216 1.0664209-.1933263 1.5995742-.3214479.1999039-.0652047.3999221-.0652047.6664988-.1292655-.1333455-.7092446-.2665767-1.4184891-.3999222-2.0625289zm.8665171 4.3824449c-.0666728-.1933263-.0666728-.3225919-.0666728-.5159182-.1333455-.5147743-.2000182-.9666317-.2665766-1.481406 0-.1292655-.0666728-.1292655-.2000183-.1292655-.7331715.1292655-1.4663431.3225919-2.1994002.4507135-.1333455 0-.1333455.0652047-.1333455.1933263.1333455.579979.1999038 1.159958.3332493 1.741081 0 .0640608.0666728.0640608.0666728.1281216.1333455-.0640608.1999039-.0640608.2665766-.0640608.3999222-.0640608.7998443-.1292656 1.1997665-.1292656.3332494-.1281216.599826-.3214479.9997482-.1933263zm-19.1286755 2.8358342c.0666727.3225919.1333455.6451838.2000182.9666317 0 .1292655.0665584.1933263.2665767.1292655.1332311-.0640608.2665766-.0640608.3999221 0 .1332312 0 .1999039 0 .1999039-.1292655 0-.1933263-.0666727-.4507135-.0666727-.6440398-.0666728-.5159182-.1999039-1.0306925-.2665767-1.5466107-.0666727-.4518574-.1999039-.9666317-.2665766-1.4184891-.1333455-.5159182-.2000183-1.0306924-.3332494-1.5466107-.0666728-.1933263-.0666728-.2573871-.2665767-.1292655-.1333455.0652047-.2000182.0652047-.3332494.0652047-.2000182 0-.266691.0640608-.2000182.2573872v.1292655c.0666727.4507135.2000182.9666317.2665766 1.4173452.0666728.9025708.2000183 1.6758762.3999222 2.4491815zm10.397404 9.6033999c-.3998077-2.3839768-.9330754-4.7690975-1.4662287-7.1542183-.0666727 0-.2000182 0-.2665766 0-.266691 0-.3333638.0652047-.266691.3225919.2000182.8373661.3332494 1.6118154.5332676 2.4491815.1332312.7092446.2665767 1.3532844.4664806 2.0625289.1333455.579979.2000182 1.0958972.3332494 1.6758762.0666727.2573872.1333455.4507135.2000182.6440398.1332311-.0640608.2665767 0 .4664805 0zm-15.396145-10.0541133c-.2665766.0640608-.5331533.1292655-.7998443.1292655-.1332311 0-.1999039.0640608-.1332311.1933263.0665584.3866527.1999039.8373662.2665766 1.2240188 0 .1292656.0666728.1933264.1999039.1292656.5332677-.1292656 1.066421-.1933264 1.5996886-.3225919.0665584 0 .1332312-.1292655.1332312-.1292655-.0666728-.4507135-.1332312-.8373662-.2665767-1.2880796 0-.0652048-.1333455-.1292656-.1999039-.1292656-.2000182.0640608-.4665949.1292656-.7998443.1933264zm-.2665766-1.5466107c-.266691.0640608-.5332677.1281216-.7998443.1933263-.0666728 0-.1333455.1281216-.1333455.1933263.0666727.321448.1333455.6440398.2000182.9666317 0 .0640608.1333455.1292656.1999039.1292656.5332677-.0652048 1.066421-.1933264 1.5996886-.3225919.1332312 0 .1999039-.0652048.1999039-.2585311-.0666727-.3214479-.1333455-.579979-.1999039-.9014269 0-.1933264-.1333455-.1933264-.266691-.1292656-.2665766.0640608-.5331533.0640608-.7997299.1292656zm8.1978894-2.9650998v.1292655c.1333455.6440398.266691 1.3532844.3999222 1.9973242.1333455.579979.1333455.5159182.6664987.4518574.2000183 0 .2000183-.1292655.2000183-.2585311-.0666727-.5159182-.2000183-.9666317-.2665766-1.4825499-.0666728-.2573871-.1333455-.579979-.1333455-.8373661-.3332494.0640608-.5998261 0-.8665171 0zm.7998443 4.1891186c.0666728.3225919.1333455.7092445.2000183 1.0318364 0 .0640608.0665583.1933263.1999039.1281216.1333455-.0640608.3332493-.0640608.4665949-.0640608.1999038 0 .1999038-.0640608.1999038-.1933263-.0666727-.2573872-.1333455-.5159182-.1333455-.7733054-.0665583-.4518574-.1999039-.9666317-.2665766-1.4184891 0-.1281216-.0666728-.1281216-.1999039-.1281216-.1333455.0640608-.2665766.0640608-.3999221.0640608-.1999039 0-.2000183.0640608-.2000183.2573872 0 .3866526.0666727.7092445.1333455 1.0958972zm21.0614991-2.4491816h.1332312c.0666727-.1292655.2000182-.1933263.2000182-.3225919-.0666727-.4507134-.1333455-.9666316-.2665766-1.4173451 0-.0640608-.0666728-.1292655-.1333455-.1933263-.0666728-.2585311-.0666728-.579979-.0666728-.8385101 0-.0640608-.1332311-.1281216-.1999039-.0640608-.0666727 0-.2665766 0-.2000182.1933263.0666727.1933264.0666727.4507135.3332494.579979.1333455.0652048.1333455.1292656 0 .1933264-.1999039 0-.1332312.1292655-.1332312.258531.0666728.2573872.0666728.4507135.1332312.7081006.0666727.2585311.1333455.579979.2000182.9025709zm-.3999221-3.9957922c-.1333455 0-.1999039-.0640608-.2665767-.0640608 0-.0652048.0666728-.1292656.0666728-.1933264 0-.0652047.0665584-.1944702.0665584-.258531-.0665584-.3225919-.1332312-.6440398-.1999039-.9666317-.0666728-.2573871-.1999039-.3225919-.4665949-.3225919.0666727.1933263.0666727.3866527.1333455.579979.1333455.4518574.0666727.9677756.3332494 1.3544283v.0640608c0 .1933263 0 .3866527.0666727.579979.0666728.1292656.1999039.0640608.2665767.0640608.0666727 0 .1333455-.0640608.1333455-.1281216 0-.1933263-.0666728-.4518574-.1333455-.7092445zm3.4658395 1.0306924c-.1333455-.3866526-.9997482-.5147742-1.2663249-.1933263.3332494.4518574.79973.3225919 1.2663249.1933263zm-5.9984892 4.9635679c0-.0652047 0-.1292655.0665584-.1933263-.2665766.0640608-.3332494.1281216-.1999039.4507134.1999039-.0640607.3999222-.0640607.6664988-.1292655.0666728 0 .1333455-.0640608.1333455-.1281216-.0666727-.1933263 0-.3866527-.2000182-.4518574-.1332312.1292655-.1999039.1933263-.3332494.2585311.1333455 0 .2665766.0640608.3332494.0640608v.0640608c-.1332312 0-.2665767 0-.4664806.0652047zm-21.4614213 3.0291606c0 .1933263 0 .3225919.0666728.4507135 0 .0652047.0666727.1292655.0666727.1933263.0665584-.0640608.1999039-.0640608.1999039-.1281216.0666728-.1292655.1999039-.1933263.3332494-.1292655.0666728 0 .1333455.0640608.1333455.0640608s0 0 .0665584-.0640608c-.0665584-.0640608-.0665584-.1933264-.1332311-.2573872 0 0-.1333455.0640608-.2000183.1281216-.1332311.0652048-.1999039.0652048-.3998078.0652048.0665584-.1292656.1999039-.3225919-.1333455-.3225919zm17.329083-1.8692026c0-.0640608 0-.1292655 0-.1292655-.0666727 0-.1333455 0-.2000182 0-.0665584.0652047-.0665584.1292655-.0665584.1933263 0 .1292656.0665584.2585311.1332311.2585311.2000183.0640608.3999222.1281216.5998261 0-.0665584-.2585311-.2665767-.0652047-.4664806-.1292655.1332312-.0640608.1999039-.1292656.3332494-.1933264-.2000182 0-.2665766 0-.3332494 0zm-11.3972666 10.5059708c-.2665766.1933264-.3332494.3866527-.1999039.579979 0 .0640608.1333455.0640608.1333455.0640608.0665584 0 .1332312-.0640608.1332312-.1281216 0-.1933263 0-.3225918-.0666728-.5159182zm13.4634358-2.3851207c-.0666728-.0640608-.0666728-.1292656-.1333455-.1933264-.0666728.0640608-.1333455.1292656-.1333455.1933264s0 .1933263.0666727.3225918c0 .0640608.1333455.0640608.1333455.0640608.0666728 0 .0666728-.0640608.1332312-.1292655 0-.0640608-.0665584-.1281216-.0665584-.2573871zm1.8661509-16.9509446c0 .0640607 0 .0640607 0 0 .2665766 0 .599826-.0640608.866517-.1292656v-.0640608c-.3332494.1292656-.5999404.1933264-.866517.1933264zm-24.6605698 11.4085416c-.1333455-.0652047-.1999039-.0652047-.2665766-.0652047-.0666728 0-.1333455.1292655-.2000183.1933263.0666728.0652048.1333455.1292656.2000183.0652048.0666727 0 .1332311-.1292656.2665766-.1933264zm28.0597365-4.8983631c0-.0652047 0-.0652047 0 0-.1333455 0-.1999039.0640608-.2665767.1281216 0 .0652047 0 .1292655.0666728.1933263.0666727-.0640608.1332311-.0640608.1332311-.1281216.0666728-.0652047.0666728-.1292655.0666728-.1933263zm-11.1305756 6.2516475h.1333455c-.2000183-.2585311.1332311-.3225919.1332311-.5159182-.1332311.0640608-.2665766.0640608-.2665766.1292655-.0666728.1281216 0 .2573871 0 .3866527zm-9.2644248-2.7717735c-.1999039-.1292655-.4664805-.0640608-.5331532.1933264.1999038-.1292656.3332493-.1292656.5331532-.1933264zm12.5969187-2.1265896-.0666727.0640607c.0666727.0640608.0666727.1292656.1333455.1292656.0666727 0 .1333455-.0652048.1999039-.1292656-.0665584 0-.1999039-.0640607-.2665767-.0640607zm.1333455.7092445c.1332312-.0652047.2665767-.0652047.3999222-.1292655 0-.0640608 0-.0640608-.0666728-.1292656-.1333455.0652048-.2000182.0652048-.3332494.1292656zm9.5310014-6.4461178v-.0640608c-.0666727 0-.1333455-.0640608-.2000182-.0640608-.0666728 0-.1332312.1281216-.1332312.1281216s0 .0652048.0665584.0652048c.0666728 0 .1333455-.0652048.266691-.0652048zm-17.6623324 8.701973c-.2000182.1281216-.0666727.2573872 0 .3866527h.0666728c-.0666728-.1292655-.0666728-.2585311-.0666728-.3866527zm-11.7970744.901427c0-.0640608 0-.0640608 0-.1281216-.0666727 0-.2000182-.0652048-.266691-.0652048 0 0 0 .0652048-.0665584.1292656.1332312.0640608.2665767.0640608.3332494.0640608z" fill="#ce2951"/><g fill="#f24c64" transform="translate(29.921141 27.881847)"><path d="m36.128912.86081697c-1.4662287.25853107-2.9992445.579979-4.4654733.83851008-.0666727 0-.0666727 0-.1333455 0v-.06520474c.1999039-.0640608.3999222-.1281216.5998261-.1281216.9331898-.19332633 1.8662652-.32259187 2.7326679-.5159182.3332494-.0640608.7331715-.19332634 1.0664209-.25738714.0666728 0 .1333455.0640608.1999039.0640608.0666728 0 0 0 0 .0640608z"/><path d="m28.8410971 19.9343975c-.2580778-.2406018-.5161556-.4812035-.2580778-.719676.2580778-.2406018.7742334-.3598381 1.0323112-.1192363.2580778.2384725.3870059.4790743.1289281.7175468.3872274.359838.5161556.719676.2580778 1.0795141-.2580778.2406017-.7740119.359838-1.0320897.2406017-.2580778-.359838-.3872274-.719676-.1291496-1.1987503zm.1291496.4790743c.2580778.1192362.387006.2406017.5159341.2406017.1291497-.1213655.2580778-.2406017.2580778-.359838 0-.1213655-.2580778-.2406017-.3870059-.359838-.1289282.2384725-.1289282.359838-.387006.4790743zm.6450838-.9602778c-.2580778-.1192363-.3872275-.1192363-.3872275-.1192363-.1289281 0-.1289281.1192363-.2578563.2406018.1289282 0 .2580778.1192362.387006.1192362 0 0 .1289281-.1192362.2580778-.2406017z"/><path d="m22.3741068 20.7582549c-.1289281 0-.2580778.1221759-.3870059 0-.5161556-.1243576-.6453053-.1243576-.5161556.4908852.2580778-.2465334.6450837-.2465334.9031615 0 .2580778.2443518.3870059.6130612.2580778.8595947-.1291496.2465335-.3870059.3687094-.6450837.4908853-.5161556 0-.7742334-.3687094-.9033831-1.1061282-.1289281-.6130611.1291497-.9817705.5161556-.9817705.2580778-.2465335.5161556-.1221759.7742334.2465335zm-1.0323112 1.1039464c.2580778.1243576.3872275.2465335.6453053.3687094 0-.1221759.1289281-.3687094.1289281-.4908853s-.2580778-.2465335-.3870059-.3687094c0 .1221759-.1291497.2465335-.3872275.4908853z"/><path d="m17.0687391 21.9368194c.1332311 0 .1999039.0640608.2664623.0640608h.2664622c0-.1292656.0665584-.1933264 0-.3225919 0-.0640608-.1332311-.0640608-.2664622-.0640608-.0665584 0-.1332312.0640608-.2664623.1933263 0-.2573871 0-.4507134 0-.7081006.1999039-.0652047.3996934-.0652047.5994829-.1292655 0 .0640608 0 .1292655.0666728.1933263-.1332312.1292656-.3996934 0-.3996934.2573872.3996934-.0640608.5329245.0652047.5994829.3225918.0666728.1933264-.0665584.3866527-.2664623.4507135-.3330206.0640608-.4662518 0-.5994829-.2573871z"/><path d="m4.60402226 24.4500617c.19990389-.0640608.33313503-.0640608.46636617-.0640608 0 .0640608 0 .1281216.06655839.1921824-.26646228.0652048-.53292456.0652048-.79927249.1292656.06655839-.1933264.13311678-.321448.26634793-.5147743.06667275-.1292655.13323114-.1933263.19990389-.3225919 0-.0640608-.06667275-.1292655-.06667275-.2573871-.06655839.0640608-.13323114.0640608-.19978953.1281216-.06667276.0652047-.13323115.0652047-.19978954.1292655-.06667275-.2573871.06655839-.3214479.19978954-.3866527.13323114-.0640608.33302067-.0640608.46625181.0652048.13323114.1281216.13323114.2573871.06667275.3855087-.26646228.1933264-.33313503.3225919-.46636617.5159182z"/><path d="m13.0595245 24.2785482c-.1289281-.1245622-.2578563-.246939-.3870059-.246939v-.1223769c-.2580778 0-.5161556.1223769-.7742334.1223769-.2580778-.4916927.3872274-1.9689561.903383-1.9689561.1289282.3693158.1289282.6162548.2578563.9855707 0 .1223768 0 .4916927.2580778.4916927 0 0 .1291496.2447537 0 .2447537 0 .1245621-.1289281.246939-.2580778.3693158zm-1.0320897-.7386317c.2580778 0 .387006-.1223769.5161556-.1223769 0-.246939-.1291496-.3693158-.1291496-.7386317-.1289282.3693159-.2580778.6140696-.387006.8610086z"/><path d="m7.67062575 23.0956334c.06667275-.0640608.1999039-.1933263.26646229-.2573871.13323114 0 .26646228 0 .39969342.0640608.06655839.0652047.06655839.1933263.06655839.2573871.06667275.1933264.1999039.3225919.1999039.4518574 0 .1281216-.13323115.2573872-.26646229.2573872-.13323114.0640608-.26646228-.0640608-.39969342-.0640608 0 0 0-.0652048-.06655839-.1292656.06655839 0 .13323114-.0640608.19978953-.0640608s.19978953.0640608.26646228.0640608c0-.0640608.06655839-.1933263.06655839-.1933263-.06655839-.0640608-.13323114-.1292655-.26646228-.1933263 0 0 .06667275-.0640608.06667275-.1292656 0-.0640608 0-.1281216 0-.1921824-.06667275 0-.13323114.0640608-.19978953.0640608-.06667275 0-.13323114.0640608-.1999039.0640608-.06655839.0640608-.06655839 0-.13323114 0z"/><path d="m25.8653109 20.7082248s-.0666727 0-.1999039 0c.0666728-.3214479.1332312-.6440398.1332312-.9666317-.1332312 0-.2664623.0652047-.3996935.0652047 0-.0652047 0-.1292655-.0665583-.1933263.2664622-.0640608.4662518-.0640608.7327141-.1292655v.1933263c-.0666728.3225919-.1332312.6440398-.1997896 1.0306925z"/><path d="m.27200882 24.704017c0-.1933263.19990389-.5159182.39969342-.5159182.06667275.3866527.13323114.7081006.1999039 1.0947533-.06667276 0-.13323115.0652047-.1999039.0652047-.06655839-.258531-.13323114-.5159182-.13323114-.7733053-.06655839.0640608-.13323114.0640608-.26646228.1292655z"/><path d="m30.1328245 1.95328235c-.0666728-.12812159-.0666728-.19332633.0665584-.25738713.2664623-.0640608.5329245-.0640608.7993868-.0640608.0665584 0 .1331168.0640608.1997896.0640608-.0666728.0640608-.1332312.12926554-.1997896.12926554-.2664623 0-.5329245.0640608-.8659452.12812159z"/><path d="m17.3352014 20.9690437c-.0665584-.4507134-.1997896-.9025708-.2664623-1.2880796h.0666727c.0665584.3855088.1332312.8373662.1997896 1.2880796 0-.0640608 0 0 0 0z"/><path d="m4.47216345 22.7741855c.06667275.1933263.13334551.3214479.20001826.5147743-.13334551 0-.20001826-.1281216-.20001826-.5147743z"/><path d="m36.7299961.53936904c.1336885 0 .2004757-.0640608.3341642-.0640608 0 0 .0669015 0 .1336886.0640608 0 .06520474-.0667871.06520474-.0667871.06520474-.1336886 0-.20059 0-.3341643.06406079-.0669014-.06406079-.0669014-.06406079-.0669014-.12926553z"/><path d="m12.4029044 5.24326189c-.0666727.06520474-.1334598.12926553-.2001326.12926553-.1333455.06520474-.2000182.06520474-.3333637.06520474-.0666728 0-.1333456-.06520474-.1333456-.06520474.0666728-.06406079.0666728-.12926553.1333456-.12926553.2000182-.0640608.4000365-.0640608.5334963-.1281216-.0666727.0640608 0 .1281216 0 .1281216z"/><path d="m23.8003998 2.02191892c.1999039.0640608.3998078.25738714.333135.45071347-.0666727.0640608-.2665766.12926554-.333135.12926554-.1333455 0-.0666728-.12926554 0-.19332634 0-.12926553 0-.25853107 0-.38665267z"/><path d="m23.9343171 3.50332487c.1333455 0 .2000182-.06520474.266691-.06520474.1333455.06520474.266691.12926553.4667092.19332633-.1333455.06520474-.2000182.12926554-.266691.12926554-.2000182.06520474-.3333637-.0640608-.4667092-.25738713z"/><path d="m22.6018913 3.4346883c-.0666728 0-.0666728 0-.1333455 0-.0665584-.0640608-.1332311-.0640608-.1999039-.1281216.0666728-.06520474.1333455-.06520474.1999039-.12926554h.1333455c.0665584 0 .2665766-.06406079.1999039.12926554 0 0-.0666728.0640608-.1999039.1281216z"/><path d="m23.7989131 2.98740666c0 .06406079.0667871.06406079.0667871.12926554v.19332633c-.0667871-.0640608-.1335742-.0640608-.2004757-.12926554 0 0-.0667871-.12926554 0-.12926554 0-.06406079.0667871-.12926553.0667871-.19332633 0 0 .0669015 0 .0669015.12926554 0-.06520474 0-.06520474 0 0z"/><path d="m16.9351648 17.2946994c-.1335742.1292656-.2004757.1944703-.2672628.3237358-.0669014-.0652047-.20059-.1292655-.20059-.1944702 0-.0640608.0669014-.1933264.1336886-.2585311.1336885 0 .20059.0652047.3341642.1292655z"/></g></g><path d="m299 115-14.416585 48.529451-6.829269 36.470549h-6.754146l6.754146-85z" fill="#e8a16d"/><path d="m305.109242 115c-.989533 25.009103-.60947 38.650432-.381204 40.923987.228265 2.273555 1.522533 17.454484 10.271962 44.076013h-7.076241c-11.565088-25.522303-15.673873-40.776058-16.966999-44.076013-1.294267-3.373919-5.250114-17.015248-10.95676-40.923987z" fill="#e8a16d"/><path d="m299 116c-3.723793 16.725467-10.052231 43.367255-19.136097 80h-9.755132c-.743866-37.594982 2.383495-62.312296 7.669852-80z" fill="#095411"/><path d="m305.566415 115c-.981509 25.434229 1.584906 50.494664 9.433585 81h-10.56566c-11.54717-25.582358-19.773963-50.493506-25.43434-81z" fill="#137f3a"/><path d="m316 205.825907-.38638-6.092526c-2.313653.660498-5.243895.367829-8.714375-.733381-3.779352 2.56911-8.483009 4.256797-14.267142 5.211103-.462731.072883-.694096.440712-.617746.880285v.074021l.540238 1.834591h14.34465 8.329152z" fill="#82e59b"/><path d="m279 205.825907-.385236-6.092526c-2.313727.660498-5.24522.367829-8.715811-.733381-3.778317 2.56911-8.483282 4.256797-14.2676 5.211103-.462746.072883-.694119.440712-.616609.880285v.074021l.539099 1.834591h14.34511 8.329419z" fill="#82e59b"/><path d="m293.727491 67.2300093c1.870005-2.0677345 3.117065-4.65246 2.883314-7.4586711-.624114-8.1970332-12.700843-6.4246893-15.038349-2.2892202-2.337507 4.135469-2.103756 14.6956274.935002 15.434104 1.24706.2953906 3.818318-.443086 6.389575-1.9200392l-1.636255 11.0038172h9.739222z" fill="#e8a16d"/><path d="m288.968109 61.4704827c-.389931 4.9380467-1.326701 7.3703043-2.96605 7.3703043-2.420381 0-4.44966-1.4740609-5.464886-1.4740609-.781032 0-.624123.8844365-.078454 1.5477068.391102.5896243 2.498836 1.1056028 2.498836 1.9162791 0 .8107906-1.639349.2211663-1.639349.7370304 0 .8107907-.312647 2.4322576 1.248247 2.4322576 1.562065 0 6.089009-.5159785 6.870041-2.7270698.468386-1.4003006.781033-4.3484223.936771-8.8443651h.312647c1.326702 0 2.41921 1.0318426 2.41921 2.2848515 0 .6632702-.311476 1.2528945-.702578 1.6214669.54684.7370305 1.170964 1.5477068 1.951996 2.3584974 2.731857-1.5478211 5.152239-6.0436495 2.497665-10.3921862-.702578-2.1373311-2.810312-3.2429339-4.761137-3.758798-1.562065-.6633846-3.278697-.6633846-4.606569-.2948122-2.731858.2210519-5.152239 1.0318426-5.854817 1.4740608 0 2.4321433.468386 3.1691737 4.762308 3.0955278.93677.5158642 1.717803 1.4740609 2.576119 2.6533096z" fill="#095411"/><path d="m280.715238 61c-.214107 1.416602-1.784582 2.7499354-1.712856 4.3333333.356488.1666667.642321.4166021.998809.5.356488.0832687.642321 0 .998809.1666667" fill="#e8a16d"/><path d="m281 59.3844877c.206004-.1288.34472-.1932.55176-.2576.206004-.0644.413043-.1288.689441-.0644.207039.0644.482401.1932.55176.3864.069358.0645.137681.1933.137681.2577s0 .1288.069358.1288v.0644.0644h-.069358c0-.0644-.137681-.0644-.20704-.1288-.068322-.0644-.207039-.0644-.275362-.1288-.137681-.0644-.276397-.1288-.414079-.1288-.137681-.0644-.276397-.0645-.482401-.0645-.138717.0645-.345756.0001-.55176-.1288z" fill="#095411"/><path d="m281.4995 60.75775c.148 0 .267-.1154.267-.2578 0-.1423-.119-.2577-.267-.2577-.147 0-.266.1154-.266.2577 0 .1424.119.2578.266.2578z" fill="#095411"/><path d="m262.120872 80.3315937-11.591968-6.7081675c-5.455043-.2981407-7.955271-.8198293-7.651834-1.5651812.454587-1.1180858 1.969498-.5962816 2.424085-1.2671561.454586-.670759-1.060325-2.5341966-2.576372-4.1739709-1.514911-1.6397743-.3023-1.7142516.454587-1.5651812 2.500228.9688997 5.0766 2.5341965 7.880265 4.6956593l14.925226 4.3976343zm7.879128 26.3851113-12.424998 5.068856c-3.485545 4.099725-5.455043 5.739615-5.90963 5.068856-.605737-1.044302.758024-1.938262.454587-2.684192-.303437-.744774-2.651379-.670759-4.924313-.521573-2.272935.149186-1.591055-.819945-1.061461-1.266347 2.272935-1.342674 5.152743-2.459835 8.562145-3.354951l12.576148-9.0934091z" fill="#e8a16d"/><path d="m285.622351 76.439307c-6.722062 12.3008236-16.506022 21.7458677-30.622351 31.63056l5.377649 5.930133c15.758753-5.78472 24.124358-9.225788 28.232658-20.8667992 1.045281-2.9287134 1.717487-12.2272082 2.389693-17.1332008z" fill="#82e59b"/><g fill="#b7f9c1"><path d="m306 117h-30c6.82529-20.1200632 10.275622-33.8478675 10.425245-41.3293574 0-.3632273.750365-1.0895691 1.049612-.9443008 2.325345.653764 4.875689.4358051 7.575655-.7263418 7.124536 11.0409594 9.599505 24.6955096 10.949488 43z"/><path d="m291.23032 72.4883318c-8.828816.074161-23.109709 1.6328092-39.617961-3.4883318l-1.612359 7.8671716c12.438197 7.7189647 25.106731 13.7301531 36.086895 12.9136909-4.837076 19.8910455-4.606739 36.2191375 5.988762 36.2191375h16.353926c2.609718-16.922301-4.223229-40.3751487-10.595501-52.1757334-.230337-.4453116-.768174-1.3359348-1.997022-1.3359348-.921348 0-2.533707 0-4.60674 0z"/></g></g></svg>