<svg height="320" viewBox="0 0 248 320" width="248" xmlns="http://www.w3.org/2000/svg"><g fill="none" transform="translate(9 44)"><g fill="#5ea7ef"><path d="m52.4727733 19.4495814c0 6.4559075-4.2249261 12.1763223-10.7311946 15.6904489-1.5209582.816686-.5069227 5.7206049-.7603841 6.6190546-.2535564.8176367-5.7458844-4.0045185-6.6753377-3.7592275-2.5348987.5723457-5.2388666.8994004-8.0272267.8994004-14.449008 0-26.2786302-8.7443397-26.2786302-19.4496764 0-10.70543189 11.7451351-19.4495814 26.2786302-19.4495814 14.5334952 0 26.1941431 8.74414951 26.1941431 19.4495814z"/><path d="m242 61.453672c0 8.0908008-9.209951 14.546328-20.617138 14.546328-7.098248 0-13.350675-2.5327724-17.068489-6.3737636-.760289-.735873-7.858537-.981164-7.013666-1.6343227 1.352364-.9811641 4.140724-2.6972505 3.886978-3.5957001-.253747-.9811641-.421961-1.9613775-.421961-2.9425416 0-8.0898499 9.209951-14.5463279 20.617138-14.5463279s20.617138 6.456478 20.617138 14.5463279z"/><path d="m61.5138454 35.5488487c0 7.0278729 5.1543795 13.3198728 13.0971191 17.160864 1.8589067.8994004.5915049 6.2929506 1.0139405 7.1914003.3380435.8994004 7.0132862-4.3315732 8.1962009-4.0862822 3.1264035.6541094 6.4217813 1.0629278 9.8861333 1.0629278 17.7444808 0 32.1091918-9.5615961 32.1091918-21.3289099 0-11.7681695-14.364711-21.3294804-32.1091918-21.3294804-17.7443858 0-32.1933938 9.5613109-32.1933938 21.3294804z"/></g><path d="m23.0033971 97.5707229 8.9966029-.5707229c-5.292131 21.024786-8.114581 32.024948-8.4674493 33.00333-.7938296 2.281943 1.4995661 5.459789 2.4697802 7.171009-2.734357 1.385093-2.734357-3.014782-6.1742521-1.222029-3.0870268 1.629688-5.3803232 4.318343-9.2612788 2.362527-.4409614-.244596-1.05840641-1.22203.0881922-2.037348 2.9106423-2.117932 6.9679824-5.784968 7.4972352-6.926414.7056373-1.466625 2.3814887-12.060076 4.8511697-31.7803521z" fill="#ac5419"/><path d="m47 71.804306 3.3697225-.804306c6.7392554 17.7059682 35.2128182 28.1685007 37.4031142 34.848267.8424069 2.41479-1.0108694 3.782766.0842312 4.506548l-4.2120347 3.381081c-.8424069-.805242-2.2746219.884831-5.7284808 0-3.453859-.805242-29.3159698-20.5233797-30.9165524-41.93159z" fill="#fc6eb5"/><path d="m55.9825657 53.1664017c1.3000312 4.9172063 3.0063849 16.0827161 1.3000312 17.8335983h-11.0507678s0 0 0-.0833753c-4.0628603-.5002521-7.2318291-4.0000776-7.2318291-8.3336565v-8.1659364c0-4.6670803 3.6565376-8.4170318 8.2068753-8.4170318h.7313075c4.0627689 0 7.4755678 3.0829488 8.0443829 7.1664017z" fill="#ffeaf4"/><path d="m43.1012185 61.2315804c-1.7954664-2.0512755-2.9381028-4.5941316-2.7748952-7.466299.5713181-8.2041473 11.9972224-6.3991395 14.2007995-2.2975431 2.2035771 4.1025509 1.9587658 14.6863304-.8977332 15.4251332-1.1425445.3283568-3.5910247-.410446-6.0394131-1.9691862l1.5506551 11.0763147h-9.1406316z" fill="#ac5419"/><path d="m45.7904086 59.0239428c.4303004 4.5865396.2582771 9.746754-1.0328179 10.9760572h-11.7055277c-.6885775-10.7301965 5.6806437-6.6353782 5.6806437-16.7099464.4303004-.3278142.7746376-.7375819 1.1188779-1.0653961v-.3268612c2.0657327-3.9318642 4.5617657-5.8977963 7.7463763-5.8977963 4.6478258 0 6.1109441 2.0478856 7.4020391 3.8499107-.9467578 3.0303752-4.5616689 3.5220964-7.8324364 5.406075-.3442403-.3278142-.8606977-.4917213-1.377155-.4917213-1.2050349 0-2.2378528.9824896-2.2378528 2.1298392 0 1.1463967 1.0328179 2.1298392 2.2378528 2.1298392-.0860601 0-.0860601 0 0 0z" fill="#ffeaf4"/><path d="m112.353857 136c-7.886466-7.695234-13.3132398-13.404571-16.1963921-17.210795-5.0028367-6.536232-9.073203-12.328354-10.4298964-14.56261-3.2223018-5.3781929 5.1726976-8.8532737 7.3773601-6.4534464 3.3920673 3.6406524 11.0238854 15.4722914 22.8950714 35.4958804z" fill="#ffeaf4"/><path d="m100.461116 134-16.8874211-30.262719c-3.4819476-5.4359818 9.9234282-10.5482019 12.3603509-8.1138563 5.4845692 5.5983343 19.4985152 28.4777843 21.0659542 30.1815433z" fill="#a81e63"/><g fill="#ffeaf4"><path d="m92.4264723 137.620227c-1.914691-4.419896-8.0222-20.098885-9.8552313-27.748669-.5196184-2.227673-1.0274652-4.34037-1.4596773-6.284434-1.3084076-5.9500446 9.3025227-9.3849735 10.3554776-3.6428455 2.5045681 14.2542365 5.1984086 34.4039035 5.491308 36.1295115.4792057 2.407804-3.3097635 4.342287-4.531877 1.546437z"/><path d="m91.6007933 135.844867c-.4227987 1.305634-.6318239 2.220516-.5970655 2.867602-.0080723.724195.146821 1.861024.4346698 3.287531.7960241-.035428 8.2207388-.303224 22.3187794-.881538.546067-2.064215.159546-3.133313-1.042752-3.241682-1.275424-.152133-2.289685-.24904-3.115909-.335526l-10.4503089-4.496258c-.2184271-.133377-.4197598.05731-.5052313.213611l-.6362874 1.696387c-1.1377199.661674-2.0617613.932596-2.7854195 1.01283-.6074171.045848-1.4208204-.241746-2.4525557-.661674-.4793999-.188603-.9115055.068772-1.1679199.538717.0427358-.07815.0427358-.07815 0 0z"/><path d="m108.364622 134.799866c-.256768 1.089989-.427947 1.929192-.342358 2.431738.08559.671363.256768 1.594487.598164 2.768396.770305-.08392 7.525133-.755283 20.264485-2.013113.342357-1.761351-.08559-2.684475-1.19729-2.684475-1.110738 0-2.136849-.082944-2.907153-.082944l-9.832199-3.187998c-.171178-.08392-.427947 0-.427947.251761l-.426985 1.509591c-1.02611.587442-1.796415.923123-2.480168 1.007044-.512575.08392-1.281917-.083921-2.308028-.419602-.342357-.167841-.770304 0-.940521.419602z"/></g><path d="m80.8226236 116.32948c-4.5421044 9.020386-8.4953966 14.75985-18.4207255 19.926895-10.9346539 4.263575-19.9346657.819515-25.4018981-11.562884l18.2523313-10.988557c2.8598645-.738422 14.2991337-16.728975 36.9254589-19.6807543 4.2058836-.4102343 5.9721314 4.5097158 6.8131568 6.3958393 0 .082047 4.626112 10.90651 10.009053 32.391342l-20.7755019-.245187-5.635532-16.318741c-.5888124-.984562-1.0934276-.902515-1.7663425.082047z" fill="#770649"/><path d="m52.9047601 73.5529931c1.4312926 24.698718 16.3334015 30.0029399 13.8076412 40.1138419-2.1048476 8.371434-26.9416327 18.979878-31.9089708 11.271834-2.0206651-3.149171-3.1151328-6.961731-3.5361402-11.271834-.9261026 3.315019-1.5996576 6.216383-2.1047529 8.619241-.8419201 4.144255-5.2199804 5.139339-5.0516153 6.713924l-5.8934407-1.160931c.2525476-2.154087-2.525855-2.983324-2.1891249-7.872928 1.7681175-21.6315062 9.4296756-37.710984 23.0688571-48.3194281v-2.0721274c0-.8282725.673555-1.5745855 1.5996576-1.5745855h10.6082312c.8419201 0 1.5996577.6633893 1.5996577 1.5745855z" fill="#fc6eb5"/><path d="m81.9202935 96.8655143s3.3375319 4.5911387 4.005057 5.2472877c.6675252.655196 1.0846697 1.147308 1.2516214.737215.6674313-1.393364-.5006673-2.8687467-.4172384-3.2788401.3337156-.9022054 3.2541968 1.1473081 3.5879125 1.3933641.5840962.492112 3.0872451 2.049513 2.5865778.246056-.5006673-1.9674948-3.6712476-7.0497916-5.673823-7.9519971-1.5018143-.6551957-5.1732495 0-6.3413481 1.2302802-.7509541.9012517-1.9190527 3.1148023-1.9190527 3.3608583 0 .4100934 2.9202935-.9842241 2.9202935-.9842241z" fill="#ac5419"/><path d="m54.8016178 58.1991639c-.2667-.086-.5335-.086-.7113-.086-.3557 1.375 1.5115.601.6224.086" fill="#ffeaf4"/><path d="m56.0008333 60c-.0834537.7683293 1.5023545 3.4172267.834631 3.9301089-.3338149.2564411-1.5858083-.2564411-1.7527157-.5128822-.3338148-.7693233.4173624-2.7343777.9180847-3.4172267z" fill="#ac5419"/><path d="m52 58c.2726901-.4836256.8181725-.7259079 1.3635527-.8874294.5454824-.1615216 1.1818616-.1615216 1.6364473.0807607-.5454824.2422824-.9999659.3230431-1.4545517.4845647-.4544834.1615215-1.0000681.2413432-1.5454483.322104z" fill="#ffeaf4"/><path d="m56 65.3280516c-.3749578.0547815-.8249916.0547815-1.1999494.0547815-.3750422 0-.75-.0547815-1.1250422-.0547815l.1499832-.3280516c.2249747.1643443.5250253.3828331.75.5471774.3000506.1643443.5250253.3286886.8999831.4382515-.3749578.0547814-.75-.0547815-1.1250422-.1643443-.3749578-.1095629-.6749241-.3286887-.8998988-.493033l-.4500337-.3280516h.5999325c.4500338 0 .8250759.0547814 1.2001181.1095629z" fill="#ffeaf4"/><path d="m137.834725 107-12.07786-10.7817979c-6.33532-1.6596288-9.207065-2.9033856-8.699783-3.7322351.844519-1.2447216 2.533557-.2489443 3.208983-.9127958.676375-.7458681-.675426-3.2343464-1.94173-5.5568619-1.3518-2.3225154.083597-2.1565525.929067-1.8246268 2.702651 1.7416454 5.405303 4.2301237 8.192501 7.4644701l16.554097 8.7912084z" fill="#ffcaa7"/><path d="m175.785714 99.5747749c-12.531428 21.1220411-34.462857 22.5190221-54.785714 12.0813491l11.261905-20.0539875c21.508571 11.8356105 35.734285 5.1777209 43.947619-10.6021365l7.790476 2.301528c-1.862857 5.0954893-4.99619 10.8488313-8.214286 16.2732469z" fill="#770649"/><path d="m164.765764 123 24.234236 14.155722c-9.248326 13.265461-19.096705 17.553021-31.256684 10.434693-8.477793-4.934081-29.801339-22.164311-30.743316-22.164311" fill="#fc8ecc"/><path d="m121.686712 110.529731c3.095035 2.33607 5.186301 7.177153.836318 10.515228-2.760132 2.08654-10.789351 7.260654-20.073517 12.76877-5.4365383 3.254574-14.9720702 7.594655-28.4383914 13.186271l-3.0111216-5.090613c14.971882-11.433734 26.4306634-19.863394 34.544549-25.371509 13.716934-9.180193 16.142163-6.008147 16.142163-6.008147z" fill="#ffcaa7"/><path d="m129.916858 116.100479c.083142.992139-.16535 1.817961-.497919 2.562066-2.574607 6.445061-7.392185 11.568231-12.043478 16.196293-4.734436 4.709779-10.049933 8.924449-15.448572 12.808406-1.993545 1.487248-4.8175779-2.396709-3.6554552-4.049314 1.1630569-1.652604 18.5220312-28.756664 23.4227522-33.136691 2.076687-1.900639 7.724753 2.231353 8.305814 5.371205-.166284.082678-.083142.165357-.083142.248035z" fill="#ffcaa7"/><path d="m79.9401585 146.807997c.1879122-.48405-.0839586-1.030939-.5746072-1.208653-1.3229557-.448704-2.2168-.951409-2.725211-1.434477-.6136262-.640164-1.2013369-1.659321-1.7629379-3.05747l.8699671-1.970565c.1312279-.220916-.0048531-.494851-.2282899-.620527l-12.9363319-4.815956c-.8500694-.576344-1.8054511-1.310765-3.0149412-2.285738-1.253168-.901335-2.3739434-.351501-3.5678065 1.830161 12.0704414 11.807684 18.4869218 18.072845 19.1750917 18.755228 1.3831341-.993628 2.4422751-1.775178 2.9848519-2.355449.5733455-.464414 1.141935-1.423677 1.7802149-2.836554z" fill="#ffeaf4"/><path d="m80 132.499764c2.8088814-1.158976 32.515243-20.354273 41.878181-24.325979 4.085994-1.737502 13.619342 10.012049 6.639262 14.810633l-43.3252248 21.015582z" fill="#ffc2e5"/><path d="m107.085958 145.757923c-.248605-.511486-.747683-.68099-1.245826-.426238-1.246761.596733-2.160803.852475-2.825306.852475-.830862 0-1.994444-.34099-3.3243841-.937723l-.8308623-1.959702c-.0831797-.254752-.4149639-.339999-.5813233-.254752l-12.1322725 5.708613c-.9971283.169504-2.1605225.339999-3.6562616.510494-1.4957392.170495-1.8279907 1.449208-1.1632073 3.74891 16.535843-.170495 25.2612991-.170495 26.2585211-.170495.249539-1.618712.414964-2.896435.414964-3.74891-.08318-.766237-.331784-1.874455-.914042-3.322672z" fill="#ffeaf4"/><path d="m127.226143 107.448812c10.385917 3.864761 38.694959 13.931878 43.888389 16.267599l25.796639 3.5434c1.675878 21.662337-20.771834 28.10548-32.665004 20.938104-8.291777-4.912228-32.497322-20.938104-33.41863-21.018678-.586887-.080575-3.852917.804807-19.682844 17.87815l-12.144693-6.76544c1.423412-2.254209 9.882871-16.991832 18.677694-26.978374 2.26088-2.415359 5.108646-5.475313 9.548449-3.864761z" fill="#ffeaf4"/><path d="m187 90h-10.834715l1.859744-13.3826028c-2.911022 1.8287688-5.822045 2.6594998-7.196164 2.3268206-3.395738-.9139009-3.719488-13.6321122-1.051278-18.7025694 2.587272-4.9882544 16.090197-7.2328722 16.817725 2.7426696.242813 3.4911978-1.212244 6.5665466-3.233863 9.0606739z" fill="#ffcaa7"/><path d="m176.125477 65.0190627.933019-2.7141687 5.683018-.4782062v-.4791348c-6.616037.0798558-11.197178-.2395674-13.741514-.8784138.084907-2.0743937 2.460384-4.4691392 8.566981-4.4691392 6.785851 0 10.433019 3.7513655 10.433019 8.0607931 0 3.9110771-2.714149 8.7794953-4.75 8.9392069-.508486-.0798558-1.017925-.7177737-1.441504-1.5163317.848112-.399279 1.441504-1.2767642 1.441504-2.4736727 0-1.1179812-1.102832-2.2350338-2.374523-2.2350338-.50944 0-.933019.1597116-1.272645.399279-.848112-1.2776928-1.950944-2.2350339-3.477355-2.1551781z" fill="#770649"/><path d="m224.876308 148.824863c.678045 1.315356 5.672909 5.42692 9.229786 7.728555 1.43894.904965.846603 2.138052.253314 2.46713-4.317772 2.548443-7.111849-.493618-10.837284-2.138052-4.064458-1.808974-3.725436 3.371138-6.94329 1.973513 1.016114-2.138052 3.30261-6.167347 2.20174-8.79806-.508533-1.151773-6.434757-14.22498-17.780574-39.057949h10.413506c8.04416 23.352117 12.531443 36.015889 13.462802 37.824863z" fill="#ffcaa7"/><path d="m186.788468 78h.838138c18.021387 15.7931751 29.757208 38.181126 35.373394 67h-24.64447c-.167816-5.454447-.167816-5.535899-.670322-10.745989l-31.685208-9.280799c3.436461-14.979602 8.633107-23.934592 8.633107-44.3676933z" fill="#a81e63"/><path d="m198 134-9-2.577583c1.960356-6.816813 4.099109-19.536436 3.208129-32.422417 2.851336 9.311217 4.811693 24.524277 5.791871 35z" fill="#770649"/><path d="m166.736374 68c.263626 1.4582323-4.214074 5 .263626 5z" fill="#ffcaa7"/><path d="m170.650847 68.0145764c-.795412-.1499836-.861758.9051637-.199039.980594.729066.0754303.662719-.7543031.199039-.980594z" fill="#770649"/><path d="m169 66.5123296c.22519-.1220951.45038-.2441902.750633-.3662853.224346-.1220951.524599-.1831426.899072-.1220951.150126 0 .375316.0610476.525443.1220951.150126.0610476.299409.1831426.374472.2441902.22519.1831426.300253.3662852.45038.6097655-.300253 0-.599663-.1824328-.749789-.2434803-.22519-.1220951-.375316-.1220951-.525443-.1831426-.224346 0-.449536 0-.674726 0-.449536 0-.824852 0-1.050042-.0610475z" fill="#770649"/><path d="m168 76.807998c.424041-.1787421.848081-.3585295 1.272917-.4484232.424041-.1797874.778071-.2696811 1.272918-.3595748h.141612c.070806 0 .141612.0898937.212418.1797874s.141612.3595748.070806.5383169c-.141612.3595748-.212418.2696811-.283224.3595748l-.283224.1797873c-.211623.0898937-.353235.2696811-.565653.3595748-.42404.2696811-.848877.4494685-1.343723.3595748.42404-.2696811.707264-.6292559 1.061295-.9888306.140816-.1797874.353234-.3585295.494846-.5383169l.282429-.2696811s.070806-.0898937-.070011.0898937c-.070806.1797874 0 .3595748.070011.3595748 0 0 .070806.0888484.141612.0888484h.070806c-.353235.0898937-.848877.1797874-1.272918.1797874-.424836.0898937-.848876.0898937-1.272917-.0898937z" fill="#770649"/></g></svg>