<svg height="320" viewBox="0 0 248 320" width="248" xmlns="http://www.w3.org/2000/svg"><g fill="none" fill-rule="evenodd" transform="translate(13 51.004507)"><g fill-rule="nonzero" transform="translate(93.926541)"><path d="m18.7739401 10.1922409 90.5466759.0456555c2.96502.001495 5.368269 2.4047463 5.369761 5.3697656l.057779 114.815911c.001494 2.967133-2.402632 5.37368-5.369765 5.375173-.001804.000001-.003609.000001-.005413 0l-90.5466761-.045655c-2.9650194-.001495-5.3682683-2.404747-5.3697604-5.369766l-.0577797-114.8159112c-.0014931-2.9671328 2.4026328-5.3736797 5.3697657-5.3751729.0018042-.0000009.0036084-.0000009.0054126 0z" fill="#f7cdd4" transform="matrix(.97172742 .23610555 -.23610555 .97172742 19.046163 -13.064328)"/><g fill="#ffeded"><path d="m48.1221568 36.8279952 62.6228802.0315757c2.126203.0010721 3.849562 1.7244332 3.850632 3.8506358l.000063.124326c.00107 2.1277181-1.722918 3.8534425-3.850636 3.8545133-.001294.0000006-.002588.0000006-.003882 0l-62.6228797-.0315758c-2.1262026-.001072-3.849562-1.7244331-3.850632-3.8506357l-.0000625-.124326c-.0010708-2.1277182 1.7229176-3.8534425 3.8506357-3.8545133.0012938-.0000006.0025875-.0000006.0038813 0z" transform="matrix(.97172742 .23610555 -.23610555 .97172742 11.869052 -17.601913)"/><path d="m44.8042459 50.5241322 62.6228801.0315757c2.126203.0010721 3.849562 1.7244332 3.850632 3.8506358l.000063.124326c.00107 2.1277181-1.722918 3.8534425-3.850636 3.8545132-.001294.0000007-.002588.0000007-.003881 0l-62.6228806-.0315757c-2.1262026-.0010721-3.849562-1.7244332-3.850632-3.8506357l-.0000625-.124326c-.0010708-2.1277182 1.7229176-3.8534426 3.8506357-3.8545133.0012938-.0000007.0025876-.0000007.0038813 0z" transform="matrix(.97172742 .23610555 -.23610555 .97172742 15.00898 -16.431311)"/><path d="m41.48228 64.2202687 62.62288.0315758c2.126203.001072 3.849562 1.7244331 3.850632 3.8506357l.000063.124326c.001071 2.1277182-1.722918 3.8534425-3.850636 3.8545133-.001294.0000006-.002588.0000006-.003881 0l-62.6228805-.0315757c-2.1262025-.0010721-3.849562-1.7244332-3.850632-3.8506358l-.0000625-.124326c-.0010708-2.1277181 1.7229176-3.8534425 3.8506357-3.8545133.0012938-.0000006.0025876-.0000006.0038813 0z" transform="matrix(.97172742 .23610555 -.23610555 .97172742 18.148793 -15.259751)"/><path d="m38.1633554 77.9164056 62.6228806.0315757c2.126202.0010721 3.849562 1.7244332 3.850632 3.8506358l.000062.124326c.001071 2.1277181-1.722917 3.8534425-3.850636 3.8545132-.001293.0000007-.002587.0000007-.003881 0l-62.6228801-.0315757c-2.1262026-.001072-3.849562-1.7244331-3.850632-3.8506357l-.0000625-.124326c-.0010708-2.1277182 1.7229176-3.8534425 3.8506357-3.8545133.0012938-.0000006.0025875-.0000006.0038813 0z" transform="matrix(.97172742 .23610555 -.23610555 .97172742 21.288692 -14.088909)"/><path d="m34.8413895 91.6125432 62.6228802.0315757c2.1262026.0010721 3.8495623 1.7244332 3.8506323 3.8506357l.000062.124326c.001071 2.1277182-1.7229174 3.8534426-3.8506355 3.8545133-.0012938.0000007-.0025876.0000007-.0038813 0l-62.6228802-.0315757c-2.1262026-.0010721-3.849562-1.7244332-3.850632-3.8506358l-.0000625-.1243259c-.0010708-2.1277182 1.7229176-3.8534426 3.8506357-3.8545133.0012938-.0000007.0025875-.0000007.0038813 0z" transform="matrix(.97172742 .23610555 -.23610555 .97172742 24.428506 -12.917349)"/><path d="m31.5224649 105.30868 62.6228802.031576c2.1262025.001072 3.849562 1.724433 3.8506319 3.850636l.0000626.124326c.0010707 2.127718-1.7229176 3.853442-3.8506358 3.854513-.0012937 0-.0025875 0-.0038813 0l-62.6228801-.031576c-2.1262026-.001072-3.849562-1.724433-3.850632-3.850636l-.0000626-.124326c-.0010707-2.127718 1.7229176-3.853442 3.8506358-3.854513.0012938-.000001.0025875-.000001.0038813 0z" transform="matrix(.97172742 .23610555 -.23610555 .97172742 27.568405 -11.746508)"/><path d="m36.864539 26.490076.1090674.0000549c2.1262025.0010721 3.8495619 1.7244332 3.8506319 3.8506358l.0000626.124326c.0010707 2.1277182-1.7229176 3.8534425-3.8506358 3.8545133-.0012937.0000006-.0025875.0000006-.0038813 0l-.1090673-.000055c-2.1262026-.0010721-3.849562-1.7244332-3.850632-3.8506358l-.0000625-.124326c-.0010708-2.1277181 1.7229176-3.8534425 3.8506357-3.8545132.0012938-.0000007.0025876-.0000007.0038813 0z" transform="matrix(.97172742 .23610555 -.23610555 .97172742 8.222495 -7.856723)"/><path d="m33.5435873 40.1863154.1090673.000055c2.1262026.0010721 3.849562 1.7244332 3.850632 3.8506358l.0000625.124326c.0010708 2.1277181-1.7229176 3.8534425-3.8506357 3.8545132-.0012938.0000007-.0025875.0000007-.0038813 0l-.1090673-.000055c-2.1262026-.001072-3.849562-1.7244331-3.850632-3.8506357l-.0000626-.124326c-.0010707-2.1277182 1.7229176-3.8534425 3.8506358-3.8545133.0012937-.0000006.0025875-.0000006.0038813 0z" transform="matrix(.97172742 .23610555 -.23610555 .97172742 11.362361 -6.6854)"/><path d="m30.2216204 53.882452.1090673.000055c2.1262026.001072 3.849562 1.7244332 3.850632 3.8506357l.0000625.124326c.0010708 2.1277182-1.7229176 3.8534425-3.8506357 3.8545133-.0012938.0000006-.0025875.0000006-.0038813 0l-.1090674-.000055c-2.1262025-.0010721-3.8495619-1.7244332-3.8506319-3.8506358l-.0000626-.124326c-.0010707-2.1277181 1.7229176-3.8534425 3.8506358-3.8545132.0012937-.0000007.0025875-.0000007.0038813 0z" transform="matrix(.97172742 .23610555 -.23610555 .97172742 14.502175 -5.51384)"/><path d="m26.9026957 67.5785888.1090674.000055c2.1262025.0010721 3.849562 1.7244332 3.8506319 3.8506358l.0000626.124326c.0010708 2.1277181-1.7229176 3.8534425-3.8506357 3.8545133-.0012938.0000006-.0025876.0000006-.0038813 0l-.1090674-.000055c-2.1262025-.0010721-3.849562-1.7244332-3.850632-3.8506358l-.0000625-.124326c-.0010708-2.1277181 1.7229176-3.8534425 3.8506357-3.8545133.0012938-.0000006.0025876-.0000006.0038813 0z" transform="matrix(.97172742 .23610555 -.23610555 .97172742 17.642074 -4.342998)"/><path d="m23.5807298 81.2747254.1090674.000055c2.1262025.0010721 3.849562 1.7244332 3.850632 3.8506357l.0000625.124326c.0010708 2.1277182-1.7229176 3.8534426-3.8506357 3.8545133-.0012938.0000007-.0025876.0000007-.0038813 0l-.1090674-.000055c-2.1262025-.0010721-3.849562-1.7244332-3.8506319-3.8506357l-.0000626-.124326c-.0010708-2.1277182 1.7229176-3.8534426 3.8506357-3.8545133.0012938-.0000007.0025876-.0000007.0038813 0z" transform="matrix(.97172742 .23610555 -.23610555 .97172742 20.781887 -3.171438)"/><path d="m20.2618051 94.9718793.1090673.000055c2.1262026.001072 3.849562 1.7244331 3.850632 3.8506357l.0000626.124326c.0010707 2.127718-1.7229176 3.853443-3.8506358 3.854513-.0012937.000001-.0025875.000001-.0038813 0l-.1090673-.000055c-2.1262026-.001072-3.849562-1.724433-3.850632-3.8506355l-.0000625-.124326c-.0010708-2.1277181 1.7229176-3.8534425 3.8506357-3.8545132.0012938-.0000007.0025875-.0000007.0038813 0z" transform="matrix(.97172742 .23610555 -.23610555 .97172742 23.922027 -2.000568)"/></g></g><path d="m128 25.9143186 2.501431 5.0811749 4.498569-6" stroke="#910940" stroke-width="1.79082"/><path d="m125 39.9151382 2.501431 5.0803553 4.498569-6" stroke="#910940" stroke-width="1.79082"/><path d="m118 66.9151382 2.501431 5.0803553 4.498569-6" stroke="#910940" stroke-width="1.79082"/><path d="m122 53.995494 6 7" stroke="#910940" stroke-width="1.79082"/><path d="m129 53.995494-7 6" stroke="#910940" stroke-width="1.79082"/><g fill-rule="nonzero"><path d="m62.0704355 97.3603796c-.3150327.4017364-.632291.4745954-.97302.0172029-.081439-.117384-.1777496-.2216128-.2750718-.2975076-.3766431-.2580422-.5609686-1.0817536-1.1309409-.7468046-.5847427.348104-3.8196445 1.2173523-4.7174976 1.5239672-3.9094804 1.3286647-7.9432944 1.3640822-12.0112015.7690671-8.4213064-1.2021733-16.0512879-4.4889234-23.2840895-8.8614748-3.8190375-2.3163088-7.3081708-5.0475091-10.56907229-8.1561594-3.34335229-3.1977002-6.21729177-6.72023-7.90394056-11.0381372-2.01473194-5.1173323-1.62109287-10.0079921 2.0692607-14.3350066.64655545.698232 1.30676838 1.4126549 1.95332383 2.1108869-1.33742185 1.3762254-2.0136191 3.0509702-2.26774948 4.9149461-.5420504 3.8686101.89663917 7.1462528 2.85552716 10.2731178 1.58012042 2.5389335 3.61690666 4.7115482 5.74464164 6.7435045 2.2240455 2.1361851 4.7017156 3.9829582 7.2555641 5.7032399 3.600113 2.4357166 7.4146991 4.4798161 11.4280775 6.1747996 4.5623081 1.9317752 9.2418682 3.3950266 14.1981189 3.9414691 2.7775277.2985194 6.5692502.625373 9.0826321-.8459739 2.059751-1.1890183 3.7702751-2.9932902 5.4882855-4.611367 1.658828-1.5624206 3.2096102-3.301929 4.0601174-5.4421619 1.1960921-2.9831709 1.2761149-6.3417681.9776736-9.5161939-.1222092-1.3499152-.3162467-2.6876872-.5526729-4.0426621-1.2634691-6.8892224-3.6732565-13.3251-7.0527252-19.4422195-1.7156836-3.1319247-3.7253572-6.0462844-5.9253251-8.8402243-2.5269382-3.2361536-5.4882856-5.9319363-9.0490448-7.8788904-3.4624253-1.9014173-7.1051294-2.3932155-10.7922457-.4978698-.3934367.1983383-.7730136.4118557-1.0573928.7579359-.6464543-.699244-1.2930097-1.397476-1.939464-2.0967199 3.5282847-2.6310191 7.4126758-3.273595 11.6003641-2.0440995 3.7486255 1.1110996 6.8272249 3.3403824 9.6617095 5.9875924 4.881792 4.5344603 8.340373 10.0545409 11.3146697 15.9115943 2.7869363 5.5069254 4.8632786 11.2860602 5.9414106 17.3809172.6985551 3.9627196 1.1232523 7.9851431.4892415 12.0227456-.2774999 1.7192698-.6405867 3.4355038-1.3708069 5.0222107-.3412347.7296019-1.486339 4.2743942-1.8065311 4.8188128-.2747684.4756073.3494293 1.0018111.6561663 1.2143165.9764595.668886.4478643 1.04836-.1262559 1.4966451-.639575.6749576-1.3056556 1.2912233-1.9717361 1.9085008z" fill="#1fc2c1"/><path d="m62 97.4456382c.6777983-.6267949 1.3555967-1.2546091 2.0332931-1.881404 3.9507154 4.2693399 7.8247951 8.6365208 11.8658021 12.8222888 8.5127844 8.776148 22.4432676 10.293705 32.8930418 3.69758 10.984796-6.9243 15.407657-20.9390281 10.323405-32.777809-1.15565-2.6987854-2.681232-5.1937351-4.657252-7.3289147-10.025831-10.8950213-20.0832538-21.7329687-30.1394536-32.6004722-.6555821-.8897431-.6279647-.8591677.7264091-2.0852398.7531093-.6971183 1.0119587.0061151 1.357431.3791345 9.7394659 10.4944841 19.4493785 21.0175052 29.1735585 31.5262577.276174.2986194.567634.5829703.859094.8673212 5.878125 6.5033799 8.308661 14.1757579 7.368038 22.8887174-.631837 5.9051219-2.925814 11.1610269-6.83811 15.6953539-4.368849 5.069395-9.776153 8.411282-16.323822 9.705639-8.9252108 1.746873-17.0740773-.04892-24.2616339-5.701286-1.2305541-.967201-2.2941808-2.116834-3.3440497-3.25118-3.6731147-3.999258-7.3613119-7.985266-11.0357514-11.9559868z" fill="#0eaaa6"/><path d="m85.9842283 37.8478948c-1.3753278 1.2456352-1.9170957 1.6925503-2.6746915 2.117989-4.6951514 2.6641049-9.4690273 2.7551242-14.0039692-.0214765-6.7818626-4.1429133-8.4153455-13.162826-3.3185968-19.6730598 3.8342936-4.9004191 10.4273196-6.4547019 15.6896966-4.3787454 5.4894512 2.1694302 8.7774783 7.4235974 8.2724145 13.433225-.2310617 2.6947856-1.1542857 5.0653788-2.7890977 7.2130257-.3527268.4090756-.4202049.6095227-1.1757559 1.309042zm-4.4853557-3.8156528c3.192842-2.6794453 3.531562-7.6248626.6366463-10.8449013-2.6749982-2.982468-7.5437525-3.024296-10.6513266-.3129428-3.0621797 2.6693206-3.4491568 7.7144501-.6586278 10.6996794 3.0090151 3.2531738 7.7939329 3.2347654 10.6733081.4581647z" fill="#1fc2c1"/><path d="m6.30297214 56.6294981c-.62211506-.6759573-1.25747472-1.3672554-1.87949449-2.0432127-.5998184-.5100841-.54598244-.9348345.05726622-1.443001.98152967-.8073135 1.87120471-1.742148 2.8129053-2.5926078.85737346-.7718377 1.84033241-.7258151 2.66435615.0565695 1.12922128 1.0863257 1.38391778 2.1582693.55055608 3.0413284-1.04527524 1.1064605-2.22375878 2.0969057-3.33601933 3.1602201-.39467002.3940687-.60401093.0814984-.86956993-.1792965z" fill="#0eaaa6"/><path d="m28.0714082 33.3951698c.5716569.6353684 1.1433137 1.2717534 1.7148719 1.9081384.2919498.324292.3058709.6119868-.0900434.9891415-1.1118183 1.034888-2.1872045 2.109423-3.2965545 3.1168631-1.0067677.908831-1.8768907.7583757-2.8666765-.4340837-.7733658-.92103-.7055371-1.8146121.2060532-2.7081942.9409136-.92103 1.942646-1.7759817 2.8324165-2.723443.5818263-.6557002 1.0185168-.74516 1.4999328-.1484221z" fill="#0eaaa6"/><path d="m81.487691 35.0331352c-2.7854565 2.7144821-7.5293072 2.6911862-10.5692677-.561128-2.79245-2.9859303-2.4680106-7.9721705.5279616-10.5775669 3.0402647-2.6464174 7.8529358-2.5489797 10.531158.4319876 2.8979613 3.2184844 2.6350447 8.092499-.4898519 10.7067073z" fill="#0eaaa6"/></g></g></svg>