<svg height="320" viewBox="0 0 248 320" width="248" xmlns="http://www.w3.org/2000/svg"><g fill="none" transform="translate(0 21)"><g transform="translate(128)"><path d="m1.69633763 55.1961633h4.28251176v8.672478l28.11920371 1.4589736h198.0464919l29.411828-4.6199903 2.988962-.4863245s1.454665 0 1.454665-3.6473412c0-.4862316 0-1.8641202 0-3.8093254-.161115-12.4009043-.646312-48.87422295-.646312-48.87422295s0-2.18836755-2.90933-2.18836755c-2.908404 0-259.21187183 0-259.21187183 0z" fill="#ea6206"/><path d="m38.7037209 49.4415396c3.7176831-1.1347263 8.7270645-.9726491 8.7270645-.9726491s4.9288238-.1620772 8.7270645.9726491c0 0 4.7667828 2.3504448 5.1704963 15.8860753h-13.8975608-13.8975609c.4037135-13.5356305 5.1704964-15.8860753 5.1704964-15.8860753z" fill="#5435d6"/><path d="m47.4307854 74c6.6936816 0 12.1197397-5.4431939 12.1197397-12.1577419 0-6.7145481-5.4260581-12.157742-12.1197397-12.157742-6.6936817 0-12.1206658 5.4431939-12.1206658 12.157742 0 6.714548 5.4269841 12.1577419 12.1206658 12.1577419z" fill="#331fa8"/><path d="m47.4307854 68.3262756c3.5695314 0 6.4640463-2.9029934 6.4640463-6.4841104 0-3.5811171-2.8945149-6.4841105-6.4640463-6.4841105-3.5704574 0-6.4640464 2.9029934-6.4640464 6.4841105 0 3.581117 2.893589 6.4841104 6.4640464 6.4841104z" fill="#5435d6"/><g fill="#feebde" transform="translate(42.765857 57.163288)"><path d="m4.66492848.86964413c.22315359 0 .40371354-.18139645.40371354-.40523949s-.18055995-.40523949-.40371354-.40523949c-.22315358 0-.40371354.18139645-.40371354.40523949s.18055996.40523949.40371354.40523949z"/><path d="m4.66492848 9.2992385c.22315359 0 .40371354-.18139645.40371354-.40523949 0-.22384303-.18055995-.40523948-.40371354-.40523948-.22315358 0-.40371354.18139645-.40371354.40523948 0 .22384304.18055996.40523949.40371354.40523949z"/><path d="m1.93523234 2.00019078c.15741124-.1582691.15741124-.4148991 0-.5731682s-.41389897-.1582691-.57131022 0c-.15741124.1582691-.15741124.4148991 0 .5731682.15741125.1582691.41389898.1582691.57131022 0z"/><path d="m7.90297035 8.01924643c.15741124-.1582691.15741124-.41480622 0-.57307532-.15741125-.1582691-.41389898-.1582691-.57131022 0s-.15741124.41480622 0 .57307532c.15741124.15826911.41389897.15826911.57131022 0z"/><path d="m.46297424 5.08467352c.22315359 0 .40371355-.18139645.40371355-.40523949s-.18055996-.40523949-.40371355-.40523949c-.22315358 0-.40371354.18139645-.40371354.40523949s.18055996.40523949.40371354.40523949z"/><path d="m8.86688272 5.08467352c.22315359 0 .40371354-.18139645.40371354-.40523949s-.18055995-.40523949-.40371354-.40523949c-.22315358 0-.40463949.18139645-.40463949.40523949s.18148591.40523949.40463949.40523949z"/><path d="m1.96949243 7.94215526c.15741125-.1582691.15741125-.41480622 0-.57307532-.15833719-.1582691-.41389897-.1582691-.57131021 0-.15833719.1582691-.15833719.41480622 0 .57307532.15741124.15826911.41297302.15826911.57131021 0z"/><path d="m7.83630205 2.00697109c.1583372-.1582691.1583372-.4148991 0-.57307532-.15741124-.15826911-.41297302-.15826911-.57131021 0-.15741125.15817622-.15741125.41480622 0 .57307532.15833719.1582691.41389897.1582691.57131021 0z"/></g><path d="m8.47705841 63.6492565h20.36160729v-49.5225318h-20.36160729z" fill="#fcaf7b"/><path d="m18.4152635 63.6492565h.5657546v-49.5225318h-.5657546z" fill="#5435d6"/><path d="m22.3014693 50.6574438h3.1510027c1.0509516 0 1.9389362-.891564 1.9389362-1.9452052v-30.6375171c0-1.0537342-.8879846-1.9452982-1.9389362-1.9452982h-3.1510027c-1.0509515 0-1.939862.891564-1.939862 1.9452982v30.6375171c-.0805576 1.1347263.808353 1.9452052 1.939862 1.9452052z" fill="#feebde"/><path d="m11.9586247 50.6574438h3.1510027c1.0509516 0 1.9398621-.891564 1.9398621-1.9452052v-30.6375171c0-1.0537342-.8889105-1.9452982-1.9398621-1.9452982h-3.1510027c-1.0500256 0-1.9389361.891564-1.9389361 1.9452982v30.6375171c0 1.1347263.8889105 1.9452052 1.9389361 1.9452052z" fill="#feebde"/><path d="m1.29262409 55.1961633h4.76770876v8.9156402h-2.34357562s-2.26209216.2431623-2.34357562-2.2694526c-.24167256-2.5126148-.08055752-6.6461876-.08055752-6.6461876z" fill="#fcaf7b"/><path d="m1.85837862 50.3330108h2.26209215v3.3230938h-2.34264967z" fill="#feebde"/><path d="m2.9084042 12.4818035s2.58617413-.2430694 2.58617413 2.9989394v21.3976295s.08055752 2.2694526-3.31304369 2.2694526z" fill="#feebde"/><path d="m8.49557738 11.7987572h1.29262409v-2.99884657h-1.29262409z" fill="#cd5605"/><path d="m9.21133556 9.56385627-9.21133556 2.67469203v7.0515201h.40371354v-6.6462806l8.80762202-1.783128z" fill="#5435d6"/><path d="m2.0204196 13.4545455v9.4020576h-.56575453s-1.13150905-1.3778885-1.21206657-4.2147507v-1.620958-.4863245s0-2.0262903 1.21206657-3.0800244z" fill="#5435d6"/><g fill="#feebde"><path d="m104.881259 31.2857331h25.290431c2.02042 0 3.6362-1.6209579 3.6362-3.6472483v-16.3724926c0-2.02629037-1.61578-3.64734121-3.6362-3.64734121h-25.290431c-2.020419 0-3.636199 1.62105084-3.636199 3.64734121v16.3724926c-.080558 1.9452053 1.61578 3.6472483 3.636199 3.6472483z"/><path d="m70.2980092 31.2857331h25.2904311c2.0204196 0 3.6361997-1.6209579 3.6361997-3.6472483v-16.3724926c0-2.02629037-1.6157801-3.64734121-3.6361997-3.64734121h-25.2904311c-2.0204196 0-3.6361997 1.62105084-3.6361997 3.64734121v16.3724926c-.0805575 1.9452053 1.6157801 3.6472483 3.6361997 3.6472483z"/><path d="m35.7147591 31.2857331h25.2904311c2.0204196 0 3.6361997-1.6209579 3.6361997-3.6472483v-16.3724926c0-2.02629037-1.6157801-3.64734121-3.6361997-3.64734121h-25.2904311c-2.0204196 0-3.6361997 1.62105084-3.6361997 3.64734121v16.3724926c-.0814834 1.9452053 1.6157801 3.6472483 3.6361997 3.6472483z"/></g><path d="m52.1170106 0h29.0081143c.808353 0 1.5352226.64840176 1.5352226 1.53996578v.32424732h-31.9980019v-.32424732c0-.89156402.647238-1.53996578 1.454665-1.53996578z" fill="#5435d6"/><path d="m61.9746583 52.3596726h105.0433007c.403713 0 .646312-.3242473.646312-.6484946v-.2431623c0-.4052395-.323156-.6484018-.646312-.6484018h-105.0433007c-.4037136 0-.6463121.3242474-.6463121.6484018v.2431623c0 .3242473.323156.6484946.6463121.6484946z" fill="#5435d6"/></g><g transform="translate(0 112)"><path d="m6.44955794 23.6337942 16.64716546-2.1399881c2.5018845-.2923276 4.8113071-1.3623216 6.6396125-3.0160339 6.4471227-5.5448551 26.0773459-18.38572021 68.3206504-18.38572021 0 0 19.2450647-1.06999401 36.8549997 4.08602793 2.020568.58371827 3.848789 1.36138468 5.677011 2.43137869 6.639674 3.69719469 24.248676 13.42458339 27.809879 14.59201989 4.329654 1.3623217 24.729542 2.6262638 31.753908 3.9885854 7.0253 1.3613847 23.671638 7.1011249 23.671638 15.4671289v9.2411129c0 .5837183-1.250249 6.7122917-1.250249 6.7122917l-2.598539 1.2648791c.096173 2.9185914-2.212914 5.2525275-5.099972 5.2525275h-16.26258c0-11.7699341-9.429626-21.2059321-20.976926-21.2059321-11.643473 0-20.976926 9.5325036-20.976926 21.2059321h-93.8210885c0-11.7699341-9.4300927-21.2059321-20.9772993-21.2059321-11.6433703 0-20.977346 9.5325036-20.977346 21.2059321l-20.88107961-3.1125395v-28.9891548c-.09626641-3.6962577 2.69433888-6.9062398 6.44714135-7.3925155z" fill="#fdd7bd"/><path d="m177.636156 41.9220719c11.643473 0 20.976926 9.5325036 20.976926 21.2059321v6.6148492h-41.954785v-6.6148492c0-11.6734285 9.430559-21.2059321 20.977859-21.2059321z" fill="#331fa8"/><path d="m41.8607488 41.9220719c11.6433797 0 20.9772993 9.5325036 20.9772993 21.2059321v6.6148492h-41.9546453v-6.6148492c0-11.6734285 9.3339477-21.2059321 20.977346-21.2059321z" fill="#331fa8"/><path d="m202.558978 32.2911888c-.770318-.5837183-.385626-1.7511548.480865-1.9460399 2.405259-.4862757 6.351155-.0965056 9.911424 1.2648791 2.309087.8760459 7.12054 4.4748611 8.27555 8.8522797.192346.6811608-.481799 1.1674366-1.058837.9725515-3.464097-1.3613847-12.798483-5.155085-17.609002-9.1436704z" fill="#5435d6"/><path d="m209.102479 55.2492127h4.618173c.674145 0 1.251183-.5837182 1.251183-1.2648791 0-.6811608-.577038-1.264879-1.251183-1.264879h-4.618173c-.674145 0-1.251183.5837182-1.251183 1.264879.096173.6811609.577038 1.2648791 1.251183 1.2648791z" fill="#331fa8"/><path d="m177.636156 82c10.310123 0 18.667839-8.4493923 18.667839-18.871996s-8.357716-18.871996-18.667839-18.871996c-10.310122 0-18.667839 8.4493923-18.667839 18.871996s8.357717 18.871996 18.667839 18.871996z" fill="#5435d6"/><path d="m177.636156 76.0663117c7.068251 0 12.79755-5.7931463 12.79755-12.9383077s-5.729299-12.9383076-12.79755-12.9383076-12.798483 5.7931462-12.798483 12.9383076 5.730232 12.9383077 12.798483 12.9383077z" fill="#331fa8"/><path d="m177.636156 67.3114745c2.28481 0 4.137308-1.872958 4.137308-4.1825335 0-2.3105125-1.852498-4.1834705-4.137308-4.1834705-2.285743 0-4.138241 1.872958-4.138241 4.1834705 0 2.3095755 1.852498 4.1825335 4.138241 4.1825335z" fill="#feebde"/><path d="m41.8609356 82c10.3099358 0 18.6678393-8.4493923 18.6678393-18.871996s-8.3579035-18.871996-18.6678393-18.871996c-10.3100386 0-18.667971 8.4493923-18.667971 18.871996s8.3579324 18.871996 18.667971 18.871996z" fill="#5435d6"/><path d="m41.8607488 76.0663117c7.0682511 0 12.7981097-5.7931463 12.7981097-12.9383077s-5.7298586-12.9383076-12.7981097-12.9383076c-7.0681577 0-12.7980723 5.7931462-12.7980723 12.9383076s5.7299146 12.9383077 12.7980723 12.9383077z" fill="#331fa8"/><path d="m41.8608422 67.3114745c2.2851833 0 4.1376813-1.872958 4.1376813-4.1825335 0-2.3105125-1.852498-4.1834705-4.1376813-4.1834705-2.2852767 0-4.1377747 1.872958-4.1377747 4.1834705 0 2.3095755 1.852498 4.1825335 4.1377747 4.1825335z" fill="#feebde"/><path d="m135.681371 4.85924073c.384692 0 .770318.09650559 1.251183.09650559 1.251183.48627574 2.501432 1.06999401 3.656443 1.65371229 6.351155 3.50230969 22.709907 12.54947439 27.231907 14.30062929-10.584635-1.9460399-27.231907-11.96575619-32.331879-15.17573823-.577039-.19488507-.288519-.87510894.192346-.87510894z" fill="#feebde"/><path d="m62.7419685 60.6966253h94.1096075c-.096173.7776664-.096173 1.6537123-.096173 2.4313787h-93.9171681c0-.7776664 0-1.6537123-.0962664-2.4313787z" fill="#331fa8"/><path d="m158.872144 24.2175125c.480865 0 .673211-.5837183.288519-.8760459-5.388491-3.9885854-28.963956-19.64966242-60.1415729-19.16338668 0 0-39.4527925-2.91859138-57.6395799 16.53712288-.3848789.3888332 0 1.069994.5774116 1.069994z" fill="#5435d6"/><g fill="#feebde" transform="translate(49.195318 6.897211)"><path d="m58.8690791 1.56084498v11.28459532c0 .7776664.5773183 1.3613847 1.3471694 1.3613847h39.6453254c.4808651 0 .7693841-.6811608.2885191-.9725515-5.0037989-3.1134764-21.8434169-12.54947441-40.0301109-12.74342254-.7698511-.09744253-1.250903.38883321-1.250903 1.06999402z"/><path d="m51.9407924 1.95061513v10.40854947c0 .9725515-.7698511 1.7511548-1.7320483 1.7511548l-35.69999-.9734884c-.9622906 0-1.6358753-.7776664-1.6358753-1.7511548v-5.83624583c0-.77860335.4811453-1.45882722 1.2509964-1.65371229 4.3301208-1.26487909 19.5338635-4.96113687 36.3734814-3.59881524.7698511 0 1.4434358.7776664 1.4434358 1.65371229z"/><path d="m10.3709794 6.52198184v5.83624576c0 .3897702-.2886125.6811609-.67358475.6811609l-9.04521382-.3888332c-.67358472 0-.86602416-.8760459-.38497225-1.2648791 2.02075416-1.55626978 5.77365-4.18253355 9.23774663-5.54485517.38497225-.09744254.86602419.19488507.86602419.68116081z"/></g><g fill="#331fa8"><path d="m62.8381415 63.128004s.096173 4.1834705-1.3471694 6.6157861c0 .0965056 96.8031999 0 96.8031999 0s-1.828221-3.5997522-1.635875-6.6157861z"/><path d="m198.613082 63.128004c0-.7776664-.096173-1.6537123-.096173-2.4313787h6.639674c.866491 0 1.635875-.4862757 2.020568-1.2648791l.481798-1.069994c.480866-1.069994 1.539703-1.7511548 2.597606-1.7511548h10.39229l.962664-.0974425c2.983231 0 5.388491 2.3348731 5.388491 5.350907v4.1825335c0 2.3348731-1.924394 4.279976-4.233481 4.1834705l-25.499859-.5837183c0 .0965056 1.250249-2.3348731 1.346422-6.5183436z"/></g></g><g transform="translate(54 82)"><path d="m26.0838436 48.3564328 9.5436506 32.8072261 6.9788693 24.1667801h5.0700822l-7.396372-56.9740062z" fill="#fb9b5a"/><path d="m23.5193474 48.3564328c-.2385866 16.9292394-.9543461 26.0934603-1.1929326 27.6694138-.2385865 1.5185789-3.7578089 11.3250264-10.4979967 29.3045924h5.2489984c8.6488799-17.2790394 13.4207052-27.0271868 14.4347216-29.3045924 1.0140164-2.2764802 4.1157361-11.4990012 8.7682207-27.6694138z" fill="#fcaf7b"/><path d="m11.3522903 110 .2385865-5.429313h5.5471602c2.6245467 1.81008 6.0245233 3.269433 10.2595052 4.378986v1.050327h-10.0209187l-3.3998816-.525626v.525626z" fill="#feebde"/><path d="m41.8890837 110 .2385865-5.429313h5.5472552c2.6245467 1.81008 6.0244283 3.269433 10.2594101 4.378986v1.050327h-10.0208236l-3.3999766-.525626v.525626z" fill="#feebde"/><path d="m30.2602003 15.9008581c-1.1930276-1.4010532-2.0280329-3.0945324-1.9087872-5.0202866.4175977-5.48761284 8.2314723-4.31975999 9.7823322-1.51765347 1.5508598 2.80210657 1.3718487 9.86474757-.6561842 10.33207377-.7754299.1749003-2.4456306-.2924259-4.1754065-1.2844531l1.0736868 7.4133671h-6.3225901z" fill="#49220a"/><path d="m35.6294895 6.3266857c-.8351003-.23320041-2.0877032-.34980062-2.6245467-.29150051.2982569-.70052664.4175977-1.45935337.2982569-2.27648021-.1192457-.75882673-.4175026-1.40105326-.7753349-2.04327979-.1193407-.29150051-.2982569-.58392643-.5368434-.81712684s-.5368434-.40902611-.8947707-.46732622c-.3578322-.0583001-.7156645-.0583001-1.0139214 0-.1790111.05830011-.2983519.11752561-.4175977.11752561-.1789161.0583001-.2385865-.0592255-.3579272-.17582571-.2385865-.23320041-.6560892-.34980062-.9543461-.34980062-.3578322-.0583001-.7754299 0-1.1332622.11660021-.3579273.1166002-.6560891.29150051-.954346.58392642-.1193408.11660021-.2385865.29150052-.2982569.40810072 0 .05830011-.0596704.11660021-.1193408.11660021s-.1192457 0-.1789161.0592255c-.5965138.17490031-1.1333572.64130113-1.3719437 1.22522756-.1789162.35072601-.2385866.93465244-.2385866 1.57595357 0 .64222653.6560892 2.39400581 1.1929326 3.03623234.5368434.58300102 1.252698.93372704 1.9684575 1.10862735-.477173.52562632-.8351003 1.22615294-1.0736868 1.92667961-.2385865.7588267-.4175026 1.5176534-.477173 2.3347803-.0596704.7588267-.0596704 1.5176534.1192457 2.2764802.1790112.7005266.5368434 1.2261529 1.1333572 1.6342536.2982569.1758258.5965138.292426.8946757.4090262.2982569.1166002.5965138.2332004.8947707.2915005.5964188.1166002 1.2526029.1166002 1.729776-.3498006.1789161-.1749003.3578322-.3507261.477173-.5839265.0596704-.0583001.0596704-.1166002 0-.1749003s-.1789161-.1749003-.2385865-.2341258c-.477173-.3498006-.7157596-.8754269-.7754299-1.4593533-.0596704-.5830011.1192457-1.4001279.7157595-1.6342537.7157595-.3498006 1.5508599.0583001 2.207044.4090261.2981619-.9929525.8350053-1.8100794 1.729776-2.2764802 1.0140164-.4673262 2.1472786-.5256263 3.1612951-.99295255.2385865-.11660021.5368434-.23320041.7157595-.46640082.0596704-.1175256.1789161-.2341258.2385865-.35072601.0596704-.17490031-.0596704-.29150051-.1192457-.40810072-.3579273-.64222653-2.0280329-1.98497969-2.9228036-2.2774056z" fill="#fcaf7b"/><path d="m38.8480795 13.4494776c0 1.0503273 1.1333572 1.9257542 1.1333572 2.9770068-.4175026.1166003-.8947706.1749004-1.3122733.2332005" fill="#49220a"/><g fill="#fcaf7b" transform="translate(36.878292 12.140039)"><path d="m1.84053494 6.03729953c-.36804835.11660021-.79747067.0583001-1.10424278-.1166002-.30677211-.17490031-.61354422-.46732623-.73629216-.81712684.36814608.17490031.61354422.29150051.92031634.46640082.24539814.1175256.55217025.23412581.9202186.46732622z"/><path d="m.12255248.8421126c-.06137397-.17582571.06137397-.40902612.24539814-.52562633.12265021-.1166002.36804835-.17490031.55207253-.23320041.18402417 0 .36814608 0 .55217026.0583001.18402417.05830011.30677211.23320042.36814608.40810072-.18412191-.0583001-.30677212-.0583001-.49079629-.1166002-.12274794 0-.30677211 0-.42952005 0-.12265021 0-.24539814.0583001-.42942232.0583001-.06137397.17490031-.24539814.23320041-.36804835.35072602z"/><path d="m1.34964093 1.83413974c.16946251 0 .30677211-.13048118.30677211-.29150051 0-.16194473-.1373096-.29242592-.30677211-.29242592-.16936479 0-.30667439.13048119-.30667439.29242592 0 .16101933.1373096.29150051.30667439.29150051z"/></g><path d="m49.8263848 39.9510386 9.5436506-4.0865596c1.6701056-1.6342536 3.2809208-2.8604066 4.8315907-3.7358335.4769829-.1166002 1.2523179-.1749004.4171225 1.0512526-.8351953 1.2252276-1.6694405 2.5096806-1.3720387 2.9770068.3582123.4081008 1.3131285-.0583001 1.7302511.6422266.2384915.4664008-1.3720388.9920271-4.9508365 1.6342536l-7.1576904 5.3700873z" fill="#49220a"/><path d="m31.2769722 21.3292455 2.2665244-.4090261c4.9508364 4.7278607 6.9788693 15.9945869 10.3191755 17.5122403 3.1016247 1.4010533 7.5751931.0583001 12.8242864-1.8091539l1.6104352 3.5017077c-4.7718253 5.0785868-14.97166 9.3400466-19.0873012 6.8886661-6.620942-3.7941336-8.1717068-17.7463662-7.9331203-25.6844341z" fill="#cd5605"/><path d="m21.3712136 49.3484599h20.160988c.8946757 0 .7753349-1.284453.5964188-1.9849797-1.5508599-7.5882673-7.5156178-15.7604611-7.5156178-26.5598611l-5.7858417-.8754269c-4.8314957 7.5882674-6.5016013 16.928314-7.4559473 29.4202677z" fill="#feebde"/><path d="m19.3459362 41.7009671c-4.1157362 7.2384667-7.5752881 12.4919538-10.37875091 15.6447863l-8.96718529-11.8145621c2.74379242-16.5202132 15.3495408-17.7232312 28.3527434-25.5456244h.0595753 2.206949c5.189423 17.3956402 6.6806125 29.012167 4.2947473 34.7912804h-18.1329551c.4175026-4.2614599 1.3122733-8.6978201 2.5648763-13.0758802z" fill="#ea6206"/></g><g transform="translate(46 92)"><path d="m18.1755089 42.8960325 9.5827926 32.2912598 4.4957532 24.29013h4.4955648l-4.4955648-56.5813898z" fill="#ffe0cb"/><path d="m13.8580366 42.8960325c.6506503 16.8119312.4141359 25.9140668.2366087 27.4791857-.1774329 1.5072195-1.0056104 11.7103607-6.80257 29.6242167h4.6730919c7.6307475-17.1602463 10.3518886-27.3633874 11.1799719-29.6242167.8873531-2.2608293 3.4900486-11.4208643 7.2758815-27.4791857z" fill="#ffe0cb"/><path d="m17.9405021 42.8960325c2.4844382 11.1313678 6.8026642 28.8706067 12.8955025 53.219555h6.625137c.4732174-25.0446588-1.5971792-41.5091944-5.205485-53.219555z" fill="#cd5605"/><path d="m13.860675 42.8960325c.6506503 16.8119312-1.0647861 33.334366-6.27027112 53.5090514h7.03927292c7.6899232-16.8698308 13.1911926-33.3343663 16.9178499-53.5090514z" fill="#ea6206"/><path d="m6.70135456 103.30429.23660868-4.1163641c1.53800348.4641133 3.43096706.2894964 5.67870236-.5220127 2.4844382 1.6818368 5.5605394 2.8407408 9.2871967 3.4785528.2956901.057899.4731231.289496.4140416.579912v.057899l-.3549601 1.217723h-9.3462782-5.44199946z" fill="#fcaf7b"/><path d="m31.2519308 103.30429.2366086-4.1163641c1.5380035.4641133 3.4309671.2894964 5.6787024-.5220127 2.4844382 1.6818368 5.5604452 2.8407408 9.2871024 3.4785528.2957844.057899.4732174.289496.4141359.579912v.057899l-.3549602 1.217723h-9.3462781-5.4419995z" fill="#fcaf7b"/><path d="m20.4823256 10.6056916c-1.1830433-1.39142094-2.0112208-3.07233835-1.8928693-4.98577195.4140416-5.44896629 8.1631405-4.2900615 9.701144-1.50721955 1.5379093 2.78284195 1.3604763 9.7978461-.6507445 10.2619594-.7689075.1736979-2.4252625-.2904154-4.1406989-1.2756224l1.0647861 7.3623999h-6.2702711z" fill="#ffe0cb"/><path d="m20.0071295 11.881314c-.7690018-3.42065311-3.0168313-5.73938172-2.6618711-7.30450056.2366086-1.04402525.8280832-1.68183645 1.8336936-1.9134336.5323931-2.02923218 2.188748-2.89864053 4.9689706-2.60914409 4.1998746.46411333 6.7434885 2.14503075 5.6195267 5.91399866-1.0056105 0-2.2478295-.34831476-3.9040903.23159715-.532393.17369787-.9465289.81150907-1.1239618 1.79671599h-.7689075c-.7690018-1.21680407-1.478922-1.62301812-2.1887481-1.33260265-.709826.34739573-.8872589 1.1010055-.4732173 2.31872862l-.3549601 2.84074118h-.9464347z" fill="#cd5605"/><path d="m29.1169874 8.4027616c.2366087.75360978.4141359 1.56511883.5323931 2.3187286.1183514.8694084.0591757 1.3335217-1.0056104 1.2177231" fill="#ffe0cb"/><g fill="#cd5605" transform="translate(26.514104 7.131734)"><path d="m1.59717921.69111531c-.2957844-.05789929-.5324873-.11579858-.76909597-.17369787-.23660867 0-.53239307 0-.82808324-.05789928.11825722-.05789929.23660867-.11579858.41404162-.17369787.11835145-.05789928.2957844-.05789928.47321735-.05789928.23660867.05789928.53239307.23159715.70992024.4631943z"/><path d="m1.18464525 1.85093913c.19599604 0 .3548659-.15623617.3548659-.34831476s-.15886986-.34739573-.3548659-.34739573c-.19599603 0-.35486589.15531714-.35486589.34739573s.15886986.34831476.35486589.34831476z"/><path d="m2.12881845 6.02428302c-.23660867.11671761-.53229884.17461689-.82808324.05881832-.2957844-.11671761-.41404162-.34831476-.59156879-.52201263.11835145 0 .29578439.05789929.41404162.11579858.11835145.05789929.23660867.11579857.35496012.17369786.11825722.05789929.41404162.05789929.65065029.17369787z"/></g><path d="m38.524797 38.7805878 7.8081804 5.6226642c2.1295723.5799119 3.9041845 1.2756224 5.3238365 2.0871315.3549602.2904154.7690018.9282266-.6506503.811509-1.4197462-.1157985-2.8984798-.1736978-3.0760069.2904155-.177433.4631943.6506503 1.0431062.2366086 1.6809174-.2366086.4062141-1.4788277-.6378112-3.6674815-3.1302377l-7.7490989-3.1311567zm-30.10904252.1736979h5.14630932c-3.1942642 10.0294433-4.85052492 15.362611-5.14630932 15.9425229-.5915688 1.391421.65074452 3.4785525 1.12396186 4.6374572-1.65635493.7536098-1.47882775-1.9704138-3.60840004-1.0431062-1.95204511.8694084-3.37169714 2.4924265-5.61952665 1.1010055-.2957844-.1736978-.5915688-.811509.17743295-1.2747033 1.83369365-1.2177231 4.43648328-3.3627539 4.79134918-4.0584644.47321734-.8694083 1.53800349-5.9709789 3.1351827-15.3047117z" fill="#ffe0cb"/><path d="m23.0262222 17.852293 2.1295723-.3483148c7.8673562 6.6666894 11.1207961 19.4789746 20.7627644 26.2623816l-2.306911 2.8407413c-16.7995927-2.0292322-20.9403858-17.6822587-20.5854257-28.7548081z" fill="#fb9b5a"/><path d="m13.7381775 43.997038h18.8108135c.887259 0 .7098261-1.2177232.5914746-1.8555344-1.419652-7.0719844-7.0392729-14.7247997-7.0392729-24.754243l-5.4420937-.8115091c-4.495659 7.0729035-6.0336625 15.7688251-6.9209215 27.4212865z" fill="#feebde"/><path d="m13.917495 23.5328564c-.7690017-.2315972-1.4197462-.7536098-1.8929636-1.5651188-1.9520451-3.4785525-1.2422191-5.4498854.8281775-6.0867775 2.1294781-.6378112 4.0224417.6947914 7.3941388.6947914.1775272 0 .3549601 0 .5323931.0588183l1.7155306.1157986c4.850525 16.1741201 6.2110013 26.9571731 4.0223475 32.3491592h-14.7883719c-.8872589 2.0283131-1.7153422 3.7101496-2.54351963 5.0436712h-4.02244167c-.41404162-12.0586754 2.54361391-22.2618165 8.7547093-30.6103424z" fill="#fa873a"/></g><path d="m53.7989507 117.529558c2.0293902-1.255249 5.3554027-2.71838 6.2010493-2.509503l-3.9461713 6.587569.5637645 1.882873-3.6642891 2.509503c-1.127439-1.255249-1.6911136-6.901879.8456466-8.470442z" fill="#ea6206"/><path d="m56.6000382 129.363228c-1.9199694-.981439-3.2000446-3.885878-3.6000382-5.215539l2.6999809-2.147689c.3000191.205237 1.1400535.858881 2.1000382 1.841293 1.1999809 1.226557 1.1999809 1.840321.8999618 1.840321-.2999236 0-2.0999427-.613764-1.7999236 0 .2399962.491206 1.5 2.863586 2.0999427 3.98801 0 .307369-.4799924.675044-2.3999618-.306396z" fill="#49220a"/></g></svg>