<svg fill="none" height="56" viewBox="0 0 27 56" width="27" xmlns="http://www.w3.org/2000/svg"><path d="m5.51172 25.9609 4.60998 15.8595 2.1718 11.9049h2.1718l-2.1718-27.7644z" fill="#ac5419"/><path d="m3.44193 25.9609c.32782 8.2371.18439 12.7245.12293 13.4826-.08196.7582-.47125 5.7578-3.257731 14.5277h2.253771c3.68799-8.4215 4.9583-13.4417 5.38857-14.5277.43026-1.1064 1.65959-5.5938 3.48313-13.4826z" fill="#ac5419"/><path d="m5.42969 25.9609c1.18835 5.4505 3.25772 14.1588 6.20811 26.1252h3.1757c.2254-12.2737-.758-20.3674-2.4996-26.1252z" fill="#212121"/><path d="m3.44202 25.9609c.30733 8.2371-.49174 16.3513-3.032352 26.2686h3.380652c3.68799-8.2986 6.33108-16.3718 8.13408-26.2686z" fill="#5e5e5e"/><path d="m0 55.6104.122953-2.0081c.737598.2049 1.639087.123 2.745487-.2459 1.18835.8402 2.66355 1.4139 4.46657 1.7212.14342.0205.22538.1435.20489.2869v.0205l-.16392.6147h-4.48704-2.622575z" fill="#212121"/><path d="m11.8018 55.6104.1229-2.0081c.7376.2049 1.6391.123 2.7455-.2459 1.1883.8402 2.6635 1.4139 4.4665 1.7212.1435.0205.2254.1435.2049.2869v.0205l-.1639.6147h-4.487-2.6226z" fill="#212121"/><path d="m8.46194 6.45418c-.57369-.67618-.96298-1.51628-.90151-2.43834.1844-2.68423 3.93387-2.09001 4.65097-.73765.7376 1.35235.6352 4.79472-.3073 5.04061-.3688.10245-1.1679-.14344-1.98746-.6352l.51226 3.6063h-2.9914z" fill="#ac5419"/><path d="m13.5635 1.39285c-.0615-.22539-.2254-.409804-.4508-.471275-.0614-.02049-.1024-.020491-.1639-.020491-.0205 0-.0205 0-.041 0 0-.020491 0-.040977 0-.040977 0-.040981-.0204-.081963-.0409-.122943-.041-.122942-.123-.245885-.2254-.327846-.1844-.184413-.4303-.286866-.6761-.3278463-.1435-.0204903-.2664.0204943-.4098.0614743-.0615.020491-.123.06147-.2049.08196-.0205 0-.082.061469-.1025.061469-.0204 0-.0614-.061469-.0819-.061469-.2049-.1639221-.4713-.22539428-.7376-.22539428-.3073 0-.59418.02049028-.84005.20490328-.06146.04098-.10243.081962-.14341.122943-.02049.02049-.04098.040979-.08196.08196-.02049.02049-.0205.040983-.04099.040983-.02049.02049-.02048.040975-.04097.020485-.12293-.081961-.26635-.10245-.40978-.08196-.08195.02049-.1639.040985-.24585.061475-.02049.02049-.08198.061468-.12295.061468-.02049 0-.08195-.040978-.12293-.061468-.16391-.061471-.32783-.061474-.49174-.040983-.16391.02049-.3278.10245-.47123.184411-.06146.040981-.12293.102455-.1844.163926-.02049.020491-.04099.06147-.06148.08196-.02049.020491-.04097.040977-.04097.040977 0-.02049-.18439-.08196-.20488-.08196-.10245-.02049-.18441-.020489-.28685.020492-.16391.061471-.32781.184416-.45075.307356-.06146.06147-.12294.14343-.16392.22539-.02049.04098-.04096.08197-.06145.12295 0 .02049-.02051.04097-.02051.06146-.02049.02049-.02047.0205-.06145.04099-.14342.04098-.26636.14343-.36881.24588-.10244.12294-.16391.26637-.1844.4098v.04099h-.04097c-.04098 0-.08195.02049-.10244.02049-.06147.02049-.14343.04098-.20489.06147-.24587.12294-.40978.34833-.49174.59421-.08195.26638-.08196.57373.02049.84011.02048.04098.04098.08196.06147.12294.02049.02049.02049.02049 0 .04098s-.02048.06147-.04097.08196c-.04097.08196-.06147.18441-.08196.28687-.02049.16392-.04097.32784-.02048.47127.02049.08196.04096.14343.08194.2049.02048.04098.04098.06147.06147.10246.02049.02049.02048.02049.04097.04098l.02051.02049c.02049.02049.02048 0 .02048.04098-.02049.04098-.04099.08196-.06147.12294-.02049.04098-.04097.08196-.04097.14343-.02049.10246-.06148.18442-.06148.28687-.02049.18441-.02048.38931.06148.55323.04098.08196.08194.14344.16389.18442.04098.02049.06147.04098.10245.06147.02049 0 .04099.02049.04099.02049v.08196c-.02049.18441-.04098.38931.02048.57373.04098.16392.16391.32784.30734.4098.28684.18441.67612.18442.96296.02049.08196-.04098.14344-.08195.2254-.14343.16391.2254.51221.22539.73759.14343.30733-.08196.5327-.28686.67612-.55323.1844.22539.59417.16392.71711-.10245.04097-.06147.06147-.12294.06147-.20491 0-.04098 0-.08196 0-.10245 0-.04098.04099-.08196.06148-.14343.04098-.08196.06145-.18441.06145-.26637 0-.04098.00001-.10246-.02048-.14344 0-.04098-.00001-.08196.02048-.12294-.08195.02049-.1639 0-.24586-.02049-.06146-.02049-.14342-.08196-.1844-.12294-.12293-.12294-.18439-.28687-.24586-.45079-.10244-.34833-.06148-.77863.28683-.96305.16391-.08196.65566-.08195.86054-.04097.20489.04098.43026.49176.45075.55323 0 .02049-.00001.06148.02048.08197.06147.04098.14343-.0205.18441-.06148.06146-.06147.12294-.14343.16392-.2049.08195-.16392.16395-.34834.22535-.53275.041-.14343.0615-.28686.1229-.43029.0615-.14343.1435-.26638.2664-.34834.1434-.08196.3073-.12294.4508-.18441.1434-.06147.3073-.12294.4097-.22539.0205-.02049.041-.04098.082-.08196.0205-.02049.041-.06147.0615-.08196.0409-.02049.1024.04097.1229.06147.1639.10245.3073.24588.4098.4098.1024.16392.2048.30735.2663.49177.0615.12294.082.30735.1844.4098.041.04098.3688.08197.4713.04099.1024-.04098.2253-.14344.2458-.2254.041-.06147.041-.14343.0205-.22539 0-.04098-.0205-.08197-.041-.12295 0-.04098-.0204-.08196-.0409-.10245-.041-.06147-.1025-.10244-.1639-.12293.0819-.06148.1434-.14344.1844-.24589.0409-.10245.0819-.2049.0819-.30735 0-.08197 0-.16393-.041-.24589s-.1434-.12294-.2049-.16392c.123-.08196.2049-.2049.2869-.30736.1639-.28686.2663-.57373.1844-.86059z" fill="#212121"/><path d="m12.375 12.888 4.3641-2.3974c.7171-.86059 1.4343-1.53677 2.1514-2.00805.2049-.08196.5941-.14343.2458.47128s-.6966 1.29087-.5122 1.49577c.1844.1844.6352-.0819.84.2459.1435.2049-.6146.5532-2.2947 1.004l-3.1758 2.9096z" fill="#ac5419"/><path d="m9.99836 12.56c1.53664-.0204 3.56504-.3483 5.73684-1.7211l.8605 1.9056c-1.4956 1.4958-3.606 2.7047-5.45 2.6637-1.45468-.0615-2.19227-1.8031-1.14734-2.8482z" fill="#adadf9"/><path d="m26.6967 6.1669c-1.967-.45079-3.9134-1.00402-5.8598-1.51628-.2459-.06147-1.2089-.45079-1.3933-.36883 0 0-.1639 1.02452-.2049 1.31138-.1024.98353-.2458 1.94658-.3893 2.93011-.1024.67618-.1843 1.24991-.2458 1.55722-.0205.0615-.0205.123-.041.164-.0205.1024 0 .1639.041.2254.1844.1844.6351-.082.84.2458.1025.164-.3278.4098-1.3317.7377-.5328 1.2704-2.3972 3.9751-2.5816 4.2005 1.4957.6557 2.9913 1.3114 4.5075 1.9671.3688.1639 2.5816 1.2294 2.9709 1.1064.3893-.1024.9835-1.3318 1.2908-1.9875.7581-1.5983 1.3522-3.2785 1.762-4.9996.1025-.4918 1.0245-5.47095.6352-5.5734z" fill="#6a6af4"/><path d="m19.792 17.4572 2.0694-1.1475c.2868-1.1065.6351-1.6597 1.0449-1.6802.3073-.1434-.2254 1.2499.3688 1.127.5942-.123 2.0284-1.1885 2.2743-.9836.3687.3279.0409 1.3114-.3484 1.8032-.7171.9221-1.3113 1.2294-2.7865 1.6392-.7785.2049-1.5981.6352-2.4996 1.2909z" fill="#ac5419"/><path d="m12.8877 16.9859c1.6186.4098 4.3436-.0819 8.1545-1.4343.9425 1.9671 1.3933 3.3604 1.3113 4.18-3.2782 1.7007-6.0852 2.4794-8.4004 2.5203.0819 1.3729-.1025 2.6843-.6557 3.8727-1.1473 2.4588-7.90863.1844-10.18289.6352-1.41372-4.6103 1.33178-6.4954 1.33178-9.446 0-3.2375 2.60207-8.21663 2.99135-8.21663h3.48306c.2049 2.47933 1.1884 5.20453 1.967 7.88873z" fill="#c1c1fb"/></svg>