<svg height="454" viewBox="0 0 720 454" width="720" xmlns="http://www.w3.org/2000/svg" xmlns:xlink="http://www.w3.org/1999/xlink"><linearGradient id="a" x1="98.375031%" x2="1.375%" y1="100.543563%" y2=".872773%"><stop offset="0" stop-color="#c9c9fb"/><stop offset="1" stop-color="#c9c9fb" stop-opacity="0"/></linearGradient><g fill="none" fill-rule="evenodd" transform="translate(2 -7.647799)"><path d="m344.888269 48.5529992c-2.39 2.0313-3.505 2.5491-5.696 2.5491-1.354 0-2.987.3585-4.58 1.0356-3.346 1.394-6.054 2.1109-6.652 1.7525-1.075-.6772-6.731 1.633-8.364 3.3854-.557.5975-1.951 1.7924-3.067 2.6288-1.195.8762-2.19 1.9914-2.35 2.5491-.119.5576-.039 2.1906.239 3.7041.279 1.4737.717 4.0228 1.036 5.6558.677 3.8236.717 7.4083.119 11.1522-.756 4.6202-.637 5.6558.757 8.2845l1.235 2.4296-1.633-.0797c-1.753-.0796-1.673-.1194-3.147 3.0669-.517 1.1551-2.031 3.1067-3.624 4.6599998-2.231 2.2305-3.107 2.7881-4.979 3.3457-1.274.3585-4.062 1.5135-6.173 2.6288-4.939 2.4694-9.281 3.9434-11.79 3.9434-1.752 0-2.31.239-4.939 2.15-2.867 2.111-8.722 5.019-10.076 5.019-.359 0-1.156.478-1.753 1.115-.916.916-1.155 1.554-1.354 3.943-.159 1.554-.478 3.346-.677 3.943-.518 1.315-.638 3.625-.239 4.023.159.199 1.274.398 2.469.518l2.191.199-3.266 1.992c-8.325 5.098-8.484 5.138-12.546 3.823-1.315-.398-4.74-.956-7.608-1.195-3.385-.279-6.094-.717-7.567-1.274-5.099-1.832-6.532-1.872-9.201-.319-1.633.956-1.673.956-1.673-.119 0-.877-2.19-4.461-3.943-6.373l-.956-1.075 1.514-1.394c1.473-1.395 1.513-1.434 1.274-3.705-.279-2.788-1.155-3.704-4.301-4.461-2.111-.517-2.191-.477-5.138.917-1.633.796-3.266 1.433-3.665 1.433-.398 0-1.195-.557-1.792-1.234-1.673-1.872-3.306-2.47-5.496-1.912-.956.239-2.072.358-2.39.199-.996-.358-2.589.438-2.589 1.354 0 .438.796 1.593 1.752 2.589 2.51 2.509 2.629 2.748 1.992 5.337-.797 3.346-.717 4.342.597 5.815.916 1.036 1.195 1.833 1.434 3.943.239 2.55.319 2.669 2.031 3.864 2.749 1.872 2.868 2.191 3.187 9.32.279 6.253.279 6.333 1.394 7.368 1.115.996 1.115.996.677 3.625-.637 3.744.159 7.966 1.713 9.32l1.115.916-1.872.239c-1.036.12-2.39.239-3.067.239-.637-.04-1.753.279-2.43.637-.876.478-1.672.598-2.668.399-1.474-.279-1.474-.319-1.474-2.191 0-2.191-.358-2.629-2.668-3.147-2.271-.517-3.466.12-3.625 1.912-.159 1.554-.438 1.832-2.669 2.43-.876.239-1.951.677-2.429.956-.797.518-.837.478-.797-.876.04-1.833-.876-2.51-2.31-1.713-.916.478-1.115.438-1.553-.199-.478-.598-.876-.677-2.47-.399-1.672.239-2.27.598-4.221 2.589-1.235 1.275-2.589 2.868-2.988 3.545-.398.677-.836 1.235-.995 1.235-.12 0-.478-1.036-.757-2.27-.398-1.833-.837-2.629-2.35-4.143-1.115-1.115-2.35-2.987-3.186-4.779-2.39-5.258-2.111-4.939-3.744-4.979-1.275 0-1.633-.239-2.271-1.274-.796-1.275-2.429-1.753-2.987-.877-.119.199-.836.399-1.513.399-1.514 0-3.585 1.155-4.501 2.589-.837 1.274-3.107 1.433-3.744.199-.717-1.315-1.912-1.753-2.947-1.036-.797.518-.956.996-1.116 3.545-.119 1.593-.318 3.146-.478 3.385-.199.319-1.513.478-3.584.478-2.868 0-3.426.12-4.62.996-1.713 1.275-3.028 1.314-3.426.08-.637-2.111-2.35-2.828-4.262-1.793-.478.239-1.872 1.195-3.066 2.111-2.191 1.713-2.231 1.713-3.147.956-.518-.438-1.235-.756-1.633-.756-.637 0-9.28 4.221-11.431 5.576-.836.517-4.899 8.045-4.899 9.081 0 1.434 4.979 2.589 7.01 1.553.637-.319 1.991-.677 3.027-.796 2.23-.319 2.947.278 2.35 1.832-.319.796-.717 1.035-1.872 1.155-1.354.119-1.514.239-1.992 1.912-.398 1.314-.398 1.872-.079 2.31.757.916 2.589 1.672 4.023 1.672 1.035 0 1.792.399 3.066 1.474l1.673 1.514-4.461.039c-3.783.04-4.62.16-5.496.837-.797.597-1.075 1.155-1.075 2.151 0 1.314.079 1.394 2.389 2.15 2.749.917 3.226 1.195 4.541 2.669.876.996.916 1.195.478 2.908-.518 2.111.119 4.222 1.593 4.978 1.275.717 5.616.279 7.249-.677.717-.438 2.469-.916 3.863-1.075 1.474-.16 2.908-.598 3.346-.956.597-.558.797-.558.956-.159.319.916 2.549 3.266 3.624 3.823.558.319 2.111.677 3.426.837 2.947.358 4.421 1.075 4.7 2.27.398 1.513 3.226 4.023 4.54 3.943 4.939-.199 5.218-.159 6.811 1.553 1.434 1.474 1.713 1.593 3.704 1.593 1.195 0 2.748-.159 3.465-.358.996-.319 1.275-.279 1.275.199 0 .319.637 1.275 1.434 2.111l1.394 1.593 5.297-.239c4.74-.199 5.297-.159 5.536.438.16.399 0 1.235-.358 1.872-.956 1.912-1.195 6.293-.398 7.847 1.115 2.151 1.951 2.469 5.815 2.111 1.872-.16 3.704-.438 4.142-.637.637-.279.717-.2.558.836-.12.637-.439 1.673-.717 2.35-.359.916-.399 1.593-.04 2.828.398 1.434.637 1.712 1.792 1.912 1.514.278 2.111.836 2.231 2.031.159 1.394.039 1.713-.757 1.991-.399.12-1.235.677-1.793 1.195-1.314 1.235-1.354 2.828-.039 5.975.756 1.911 1.314 2.628 2.788 3.584 1.434.956 2.27 1.952 3.823 4.78 1.076 1.951 2.151 4.301 2.35 5.178.399 1.872 2.39 3.823 6.094 5.974 1.354.797 3.306 1.991 4.342 2.669 1.115.717 2.628 1.274 3.664 1.394 1.513.199 1.832.398 2.27 1.394 1.115 2.668 2.43 2.907 6.014 1.115l2.39-1.235-.239 1.076c-.159.597-.637 1.593-1.075 2.19-.956 1.354-.956 2.191 0 4.381 1.195 2.788 1.832 6.214 1.274 6.851-.239.319-.398 1.553-.358 2.788s-.04 2.35-.199 2.509c-.478.518-1.554-.876-2.231-2.867-.438-1.235-1.155-2.31-2.111-3.067-1.434-1.155-1.513-1.155-2.509-.518-1.354.916-1.275 2.27.398 5.496.717 1.474 1.474 3.306 1.633 4.103.199 1.155.399 1.394 1.275 1.394h.996l-.837.916c-1.035 1.115-1.075 1.792-.159 2.908.916 1.115 1.832 1.553 4.301 2.11 1.633.399 2.43.917 4.222 2.749 2.709 2.828 4.342 4.939 5.457 7.129.876 1.713 2.23 6.851 1.872 7.169-.08.08-.279-.438-.438-1.155-.16-.717-.677-2.031-1.195-2.907-.996-1.753-6.253-6.851-9.081-8.842-3.027-2.111-3.266-1.474-3.903 10.037-.2 3.704-.558 9.36-.797 12.546-.279 3.186-.438 7.01-.438 8.484.04 2.031-.159 3.146-.757 4.341-1.553 3.067-.319 4.302 2.748 2.748 1.793-.916 2.071-.796 2.071.837 0 .876-.159 1.115-.876 1.115-.518 0-1.633.438-2.509.916-1.514.836-1.593 1.036-1.872 3.266-.159 1.314-.558 3.624-.876 5.178-.319 1.513-.797 5.656-1.036 9.161-.478 7.249-1.872 14.776-4.7 25.052-2.509 9.161-4.739 12.865-8.444 13.941-1.752.517-1.792.597-1.712 2.031.159 2.19.717 2.668 2.708 2.35 1.673-.239 1.713-.199 2.151 1.155.279.796.677 1.513.956 1.593.796.279 1.872-.478 1.872-1.314 0-.438.04-.797.119-.797.04 0 1.275.398 2.709.916 2.429.876 2.589.996 2.31 1.912-.398 1.553-1.195 2.868-2.43 4.023-.597.557-1.115 1.234-1.115 1.473 0 .677 2.669 3.227 3.386 3.227.358 0 1.155-.399 1.792-.837l1.155-.876 1.553 1.274c1.155.877 1.992 1.235 3.107 1.235.996 0 1.792.279 2.39.837.517.517 1.553.916 2.429.995.837.04 2.31.399 3.266.717.956.359 2.31.637 3.027.637.916 0 1.713.399 2.948 1.594.916.916 2.071 1.593 2.589 1.593 1.274 0 2.111.796 2.509 2.39.438 1.752 1.553 1.991 3.146.677.877-.757 1.474-.916 2.629-.757 1.076.119 1.792-.08 2.669-.677l1.195-.837 2.111 2.231c1.155 1.235 2.19 2.35 2.31 2.509.119.159.717.677 1.354 1.155 1.593 1.195 4.182 1.155 6.97-.119l2.191-1.036 1.633 1.633c.876.876 1.792 1.593 2.031 1.593s.836-.438 1.314-.956c.797-.836 1.076-.916 2.51-.557.916.199 3.066.279 4.779.199 2.788-.12 3.266-.279 4.302-1.275 1.274-1.234 1.553-2.827.796-4.819-.239-.597-.358-1.115-.279-1.195.08-.079 1.554.438 3.306 1.195 1.912.797 4.142 1.394 5.736 1.553 3.425.319 3.664.439 4.461 2.271.517 1.274.876 1.593 1.712 1.593.598 0 1.315-.279 1.633-.598.558-.517.797-.478 2.191.2.836.438 1.553 1.075 1.553 1.354 0 .318.478 1.115 1.036 1.792 1.314 1.593 2.947 1.673 4.102.199.717-.916.916-.996 1.514-.518.358.319 1.434.558 2.389.558 1.713 0 1.793.04 2.35 1.593.439 1.275.478 1.793.08 2.509-.637 1.235 0 2.191 1.514 2.231.637.04 2.111.637 3.266 1.394 1.672 1.075 2.071 1.513 2.071 2.43 0 1.911.876 2.23 3.704 1.394 1.354-.399 3.425-1.155 4.58-1.713l2.151-.956 2.39 1.235c1.872.956 2.947 1.234 4.62 1.234 1.872 0 2.39.16 3.346 1.076l1.115 1.075 1.115-.876c2.151-1.713 5.337-3.346 8.205-4.262s3.067-.916 5.815-.358c4.461.956 5.058.199 2.43-2.948-2.709-3.266-3.346-6.492-2.191-10.993.637-2.509.597-6.452-.159-10.992-.359-2.151-.359-2.231 1.075-3.824 1.394-1.593 2.111-2.788 2.549-4.182.159-.438.876-.717 2.27-.876 1.155-.16 2.39-.518 2.788-.877.359-.318 1.275-.597 1.992-.597 1.115 0 1.752-.438 3.863-2.589 1.912-1.991 2.51-2.868 2.51-3.744 0-1.274 1.314-2.071 2.111-1.274.717.716 2.469.477 3.385-.478.478-.478 1.275-1.673 1.792-2.669.638-1.195 1.275-1.832 2.032-2.031.637-.16 1.434-.598 1.832-.956.637-.598.717-.518 1.195.597.318.717 1.115 1.554 1.951 1.992.797.398 1.952 1.274 2.589 1.951 1.275 1.355 3.266 1.673 3.665.638.199-.478.398-.399 1.035.438 1.593 1.991 4.023 1.991 5.576.04l.717-.877v1.076c0 1.394 1.115 2.031 2.43 1.354.836-.438 1.155-.319 2.788.836 4.421 3.147 6.97 3.067 8.006-.318.239-.877.557-1.554.716-1.554.399 0 1.594 1.394 1.594 1.872 0 1.155 1.553 1.713 6.014 2.111 2.469.199 4.859.399 5.257.399.916 0 .877.876-.159 2.827-.916 1.872-.876 3.665.12 3.864.398.08 1.872-.319 3.305-.916 2.988-1.195 3.864-1.076 4.86.677.398.637 1.553 1.633 2.549 2.111 2.071 1.075 6.771 2.031 7.846 1.593 1.036-.438 12.626-1.474 15.733-1.394 2.031.04 2.987-.119 3.783-.677.558-.398 1.952-1.155 3.067-1.713 1.076-.557 1.992-1.195 2.032-1.394 0-.239.159-1.314.318-2.39.239-1.672.478-2.11 1.474-2.708.717-.398 1.474-1.314 1.832-2.27.478-1.235.836-1.593 1.553-1.593 1.076 0 3.983-2.43 4.342-3.625.159-.398 1.035-1.075 1.991-1.513 2.629-1.155 4.859-3.107 5.895-5.178.836-1.633 1.075-1.832 2.43-1.952 2.071-.159 7.766-3.146 8.324-4.341.319-.677.319-1.434 0-2.549-.398-1.474-.319-1.713.518-2.669 3.146-3.505 4.899-5.815 5.417-7.209.597-1.553.597-1.673-.2-2.669-.478-.637-.836-1.672-.836-2.708-.04-1.314-.199-1.673-.836-1.752-.478-.08-1.235.318-1.793.916-.717.756-1.314.995-2.589.995-.876 0-1.792.16-2.031.399-.717.717-2.788.557-3.983-.279-.637-.438-1.872-1.036-2.748-1.315-.876-.278-2.47-.916-3.585-1.394-1.075-.477-2.469-1.115-3.106-1.354-.598-.239-1.275-.916-1.474-1.513-.239-.638-.757-1.753-1.195-2.549-.438-.797-.797-2.071-.797-2.788 0-.757-.358-2.072-.756-2.948-.677-1.513-.677-1.633-.04-2.589.358-.557 1.075-2.111 1.593-3.505.876-2.429.916-2.469 2.43-2.469 1.433 0 1.553-.08 1.553-1.155 0-.677-.438-1.673-.996-2.35-.717-.836-.996-1.673-.996-2.788 0-1.952-.398-2.31-4.062-3.425-2.748-.837-2.948-.956-3.784-2.629-.478-.996-.876-2.231-.876-2.748-.04-.518-.677-1.633-1.434-2.47-1.792-1.991-1.792-2.748-.08-2.748.757 0 1.474-.12 1.593-.279.16-.159 1.275-.199 2.47-.159 2.31.119 2.629-.08 4.899-3.067.796-1.115.996-1.155 2.071-.757.956.359 1.275.319 1.952-.279 1.234-1.155 2.19-3.943 1.872-5.775-.16-1.115-.08-1.673.358-2.031 1.076-.916.637-1.912-1.832-3.943-1.314-1.116-2.549-2.032-2.748-2.032-.16 0-.518-.557-.837-1.234-.398-.996-.398-1.514-.04-2.47.598-1.593-.199-2.907-1.991-3.385-1.075-.279-1.633-.876-2.987-3.187l-1.673-2.827.876-.638c.478-.318 1.115-.597 1.394-.597.837 0 5.656-4.78 5.656-5.616 0-1.235-1.513-4.262-2.35-4.7-.438-.239-1.314-.438-1.952-.438-1.155 0-1.155 0-.836-1.713.478-2.549.478-2.668-1.115-3.345-.837-.319-1.593-.678-1.673-.757-.08-.08.518-.916 1.314-1.912 1.872-2.27 1.872-3.624.12-5.337-1.036-.996-1.315-1.553-1.155-2.39.199-1.354-.16-1.673-3.665-3.067-3.066-1.195-4.142-1.155-7.567.16-1.115.438-2.549.916-3.147 1.035-.637.12-1.991 1.036-3.027 1.992-2.23 2.071-2.947 2.19-3.863.677-.398-.598-1.115-1.434-1.633-1.912l-.956-.837 1.434-2.071c1.474-2.23 1.633-2.828.996-4.022-.319-.598.039-.996 2.27-2.55 2.27-1.553 4.979-4.261 6.014-6.014.159-.279.837-.717 1.474-1.035.995-.478 1.234-.837 1.314-2.111.12-1.554-.916-4.62-1.593-4.62-.159 0-.319-.16-.319-.319s1.514-.797 3.346-1.394c2.469-.797 3.983-1.593 5.616-2.947 2.071-1.713 2.23-1.992 2.071-3.147-.199-1.115 0-1.434 1.394-2.549.956-.757 2.031-2.231 2.669-3.505 1.633-3.465 1.672-3.505 3.505-3.983 1.394-.398 1.712-.637 1.712-1.434 0-1.075-1.354-2.111-3.186-2.509-1.394-.279-1.354-.12-.597-2.031.955-2.311 2.509-3.306 4.739-3.027 1.952.278 2.191.557 1.235 1.354-.757.637-.757 1.354-.04 1.951.398.359 1.593.399 4.023.2 3.186-.239 3.585-.399 5.337-1.793 1.235-.916 2.151-2.111 2.589-3.146l.677-1.673 1.713.239c2.19.358 2.788-.279 2.389-2.39-.199-1.036-.916-2.191-2.23-3.585l-1.912-2.031.837-1.952c.438-1.075.876-2.708.916-3.624.079-.916.597-2.469 1.195-3.505 1.234-2.27 1.274-2.708.199-4.421-.837-1.354-.996-2.669-.837-6.612.08-2.15.199-2.429 2.032-4.461 1.354-1.473 2.071-2.668 2.27-3.704.119-.836.597-2.111.996-2.828.557-.956.756-2.031.717-3.783-.04-1.872.159-2.908.876-4.262 1.473-2.908 5.178-8.046 7.169-9.957 2.111-2.032 3.704-4.979 5.337-10.077 1.394-4.262 1.235-4.541-2.748-4.939-2.071-.199-2.987-.478-3.863-1.235-.917-.757-1.434-.916-2.47-.717-2.947.558-5.775.438-9.041-.358-3.187-.797-3.386-.916-3.744-2.111-.199-.717-.797-1.753-1.315-2.31-1.035-1.116-1.394-1.116-4.859.517-1.673.757-2.509.917-3.783.757-.877-.159-2.35-.318-3.227-.358-1.593-.08-3.345-1.076-5.177-2.908-.518-.518-1.116-.956-1.275-.956-.956.04-3.386 1.155-3.863 1.832-.558.717-.598.717-1.355.04-.398-.358-.995-1.434-1.274-2.39-.757-2.549-1.514-3.863-2.589-4.341-.677-.319-1.075-.876-1.235-1.872-.119-.796-.318-1.752-.438-2.151-.239-.916-4.66-3.067-6.213-3.067-.598 0-2.032-.557-3.187-1.194-1.195-.678-2.589-1.195-3.106-1.195-.558 0-2.151.796-3.505 1.792-2.032 1.394-2.669 1.673-3.266 1.354-.438-.199-.757-.557-.757-.757 0-1.075-1.354-1.593-4.302-1.593-2.549 0-3.146-.119-3.943-.836-.956-.916-2.31-1.115-4.341-.637-1.474.358-3.107-.717-3.904-2.709-.995-2.39-3.624-3.903-4.46-2.549-.16.279-.478-.04-.797-.757-.398-.956-.876-1.314-2.151-1.672-.995-.279-2.19-.996-2.947-1.793-1.394-1.513-5.178-3.385-6.731-3.385-1.036 0-1.076-.12-1.076-1.952 0-1.115.199-2.111.438-2.27.638-.399.16-3.8637-.716-5.3373-.678-1.1949-.678-1.2746.159-2.9076 1.075-2.1507998 1.434-4.2218998.876-4.8989998-.279-.3186-1.235-.5576-2.23-.5576-1.633 0-1.992.1991-3.744 1.9516-1.673 1.7127-1.952 2.1906998-1.952 3.5846998 0 1.7923-1.036 2.8279-2.828 2.8279-.597 0-2.031.6372-3.186 1.394-2.35 1.5932-2.828 1.5932-6.851.0796-2.35-.8762-2.35-.8762-2.151-2.31.12-.7966.558-1.8322 1.036-2.3102.478-.4779.836-1.3540998.836-1.9515998 0-1.1551-1.035-2.4694-1.911-2.4694-.279 0-.478-.4382-.478-.9559 0-1.633.716-3.0271 1.792-3.4253 1.474-.5577 1.274-1.7525-.478-2.8279-.836-.478-2.151-1.5932-2.947-2.4296l-1.394-1.4737h-4.581c-3.107 0-4.819.1991-5.377.5576-.796.5178-.876.4381-1.314-1.5932-.598-2.6287-2.47-5.5362-4.461-6.8506-1.553-1.0356-4.78-1.3941-6.612-.7568-.717.2788-1.075.0398-2.111-1.394-.916-1.3144-1.195-1.9915-.995-2.7483.876-3.4651.876-3.4253-1.912-5.1778-1.673-1.0754-2.669-1.9516-2.828-2.5889-.359-1.3542-1.673-1.5932-4.182-.7567-1.832.5974-3.187 1.7126-3.784 3.0668-.199.5178-1.952-1.2745-3.704-3.8236-.797-1.1152-1.474-1.5932-2.828-1.9516l-1.792-.4381.278-3.4254c.239-3.1863.2-3.505-.716-4.8592-.518-.7966-1.116-2.1109-1.275-2.9872-.12-.8364-.438-1.7923-.677-2.0711-.598-.7567-1.952-.5576-3.266.5576z" fill="url(#a)" fill-rule="nonzero"/><g opacity=".7"><g fill-rule="nonzero"><circle cx="298.506271" cy="14.895528" fill="#e8140f" r="6.85522" transform="matrix(-.2923717 -.95630476 .95630476 -.2923717 371.536394 304.713526)"/><circle cx="386.006268" cy="6.807722" fill="#e8140f" opacity=".91" r="6.37833" transform="matrix(.06975647 -.99756405 .99756405 .06975647 352.288693 391.398815)"/><circle cx="623.153273" cy="381.654799" fill="#e8140f" opacity=".81" r="6.08028" transform="matrix(-.80901699 .58778525 -.58778525 -.80901699 1351.625923 324.139714)"/><circle cx="170.194268" cy="186.420799" fill="#e8140f" opacity=".71" r="4.82846" transform="matrix(-.17364818 -.98480775 .98480775 -.17364818 16.159544 386.401066)"/><circle cx="358.404269" cy="162.416798" fill="#e8140f" opacity=".89" r="3.75547" transform="matrix(-.99026807 .1391731 -.1391731 -.99026807 735.924622 273.372733)"/><ellipse cx="554.467516" cy="228.960455" fill="#e8140f" opacity=".74" rx="4.590021" ry="4.59002" transform="matrix(.37460677 -.92718378 .92718378 .37460677 134.471809 657.283607)"/><circle cx="251.465269" cy="171.123797" fill="#e8140f" r="6.67639" transform="matrix(-.61566148 .78801075 -.78801075 -.61566148 541.13014 78.32079)"/><ellipse cx="376.545599" cy="341.285639" fill="#e8140f" opacity=".97" rx="3.57664" ry="3.576641" transform="matrix(.93358071 .3583672 -.3583672 .93358071 147.315469 -112.273644)"/><circle cx="678.560266" cy="252.294802" fill="#e8140f" opacity=".89" r="6.736" transform="matrix(-.95105652 -.30901699 .30901699 -.95105652 1245.946047 701.928071)"/><circle cx="524.869267" cy="90.212802" fill="#c3c3ff" opacity=".89" r="6.736" transform="matrix(-.95105652 -.30901699 .30901699 -.95105652 996.172315 338.203799)"/><circle cx="149.859268" cy="284.474799" fill="#c3c3ff" opacity=".89" r="6.736" transform="matrix(-.95105652 -.30901699 .30901699 -.95105652 204.476354 601.335471)"/></g><path d="m338.001269 45.049799 10.836 7.8732" opacity=".83" stroke="#fff" stroke-linecap="round" stroke-linejoin="round" stroke-width="4.17274"/><path d="m173.086269 311.605799-12.13-19.412" opacity=".93" stroke="#fff" stroke-linecap="round" stroke-linejoin="round" stroke-width="4.17274"/><path d="m419.699269 31.695299-7.224 11.5606" opacity=".89" stroke="#fff" stroke-linecap="round" stroke-linejoin="round" stroke-width="4.17274"/><path d="m322.69913 231.806363h13.39463" opacity=".93" stroke="#fff" stroke-linecap="round" stroke-linejoin="round" stroke-width="4.17274" transform="matrix(-.99756409 -.06975592 .06975592 -.99756409 641.820644 486.025417)"/><path d="m676.594269 193.907799-11.895 10.71" opacity=".87" stroke="#fff" stroke-linecap="round" stroke-linejoin="round" stroke-width="4.17274"/><path d="m22.665969 134.089799-11.8948 10.71" opacity=".87" stroke="#fff" stroke-linecap="round" stroke-linejoin="round" stroke-width="4.17274"/><path d="m370.163269 100.656899-14.758-14.252" opacity=".79" stroke="#fff" stroke-linecap="round" stroke-linejoin="round" stroke-width="4.17274"/><path d="m122.290269 66.731699-4.233-20.0752" opacity=".79" stroke="#fff" stroke-linecap="round" stroke-linejoin="round" stroke-width="4.17274"/><path d="m349.896269 393.344799-14.758-14.252" opacity=".79" stroke="#fff" stroke-linecap="round" stroke-linejoin="round" stroke-width="4.17274"/><path d="m310.830217 328.325217h18.142527" stroke="#fff" stroke-linecap="round" stroke-linejoin="round" stroke-width="4.17274" transform="matrix(-.82903727 -.55919335 .55919335 -.82903727 401.514451 779.405839)"/><path d="m106.572269 175.418799 15.329-17.634" opacity=".96" stroke="#fff" stroke-linecap="round" stroke-linejoin="round" stroke-width="4.17274"/><g fill="#e8140f" fill-rule="nonzero" transform="translate(0 79.523576)"><path d="m88.2812693 47.7792236c-1.222 1.581-3.7301 1.048-4.2032-.894l-2.2838-9.373c-.4159-1.707 1.0941-3.262 2.8124-2.897l8.1826 1.74c1.718.365 2.465 2.4 1.391 3.79z" opacity=".76"/><path d="m608.541269 1.38832359c.835-1.8157 3.399-1.8605 4.297-.075l1.606 3.1938c.789 1.5695-.333 3.4245-2.089 3.4552l-3.099.0541c-1.757.0306-2.942-1.7841-2.208-3.3802z" opacity=".85"/><path d="m246.814269 174.646224c-1.43 1.396-3.84.518-4.038-1.47l-.763-7.645c-.174-1.748 1.538-3.078 3.189-2.477l6.26 2.278c1.65.601 2.107 2.72.85 3.947z" opacity=".92"/><path d="m211.953269 15.6864236c-1.098-1.6702.223-3.8684 2.213-3.6835l4.804.4462c1.749.1625 2.728 2.0965 1.824 3.6023l-2.155 3.5862c-.905 1.5058-3.072 1.5495-4.037.0813z" opacity=".82"/><path d="m383.721269 131.430224c-1.682-1.08-1.369-3.625.524-4.266l6.431-2.176c1.664-.563 3.345.806 3.131 2.549l-.717 5.844c-.214 1.744-2.176 2.665-3.655 1.716z" opacity=".91"/><path d="m114.620237 240.939224c-.009968-1.999 2.294032-3.123 3.863032-1.884l3.646 2.88c1.378 1.089 1.146 3.244-.433 4.014l-3.621 1.767c-1.579.77-3.421-.374-3.43-2.131z" opacity=".88"/><path d="m154.55923 168.810224c-.010961-1.999 2.294039-3.123 3.863039-1.884l3.646 2.88c1.378 1.089 1.146 3.244-.433 4.014l-3.621 1.767c-1.579.77-3.421-.374-3.43-2.131z" opacity=".88"/><path d="m680.671269 8.67272359c1.581 1.2219 1.048 3.73030001-.894 4.20340001l-11.108 2.7066c-1.707.4159-3.262-1.0941-2.897-2.8124l2.061-9.69750001c.366-1.7183 2.4-2.4651 3.791-1.391z" opacity=".98"/><path d="m2.61026933 363.528224c-1.9899.185-3.3107-2.013-2.2133-3.683l2.8457-4.331c.9646-1.469 3.1318-1.425 4.0366.081l2.3143 3.852c.90479997 1.505-.0741 3.439-1.8233 3.602z" opacity=".96"/><path d="m616.946269 252.582224c.289 1.977-1.837 3.411-3.562 2.403l-6.479-3.787c-1.517-.886-1.586-3.053-.13-4.035l5.394-3.639c1.457-.982 3.439-.106 3.693 1.632z" opacity=".84"/><path d="m397.937269 331.738224c.289 1.977-1.837 3.411-3.562 2.403l-6.479-3.787c-1.516-.886-1.586-3.053-.13-4.035l5.395-3.639c1.456-.982 3.439-.106 3.692 1.632z" opacity=".84"/></g><path d="m642.264269 176.021799c.289 1.978-1.837 3.412-3.563 2.403l-6.478-3.786c-1.517-.887-1.587-3.053-.13-4.036l5.394-3.638c1.457-.983 3.439-.106 3.693 1.632z" fill="#8787e1" fill-rule="nonzero" opacity=".84"/><path d="m65.4594693 107.957799s11.9311-3.5249 3.7771-15.0120998" stroke="#8787e1" stroke-width="4.76885"/><path d="m465.673269 72.3093992s-9.92 4.7229-1.221 13.6161" opacity=".97" stroke="#8787e1" stroke-width="4.76885"/><path d="m78.7996693 286.907799s-9.9199 4.723-1.2206 13.616" opacity=".97" stroke="#8787e1" stroke-width="4.76885"/><path d="m517.147269 371.031799s-9.155 11.914 6.967 17.35" opacity=".77" stroke="#8787e1" stroke-width="4.76885"/><path d="m73.5082693 394.789799s-.7735 17.432 18.184 11.864" opacity=".94" stroke="#8787e1" stroke-width="4.76885"/><path d="m642.161269 110.992799s9.966-12.5112998-7.093-18.5963998" opacity=".92" stroke="#8787e1" stroke-width="4.76885"/><path d="m446.639269 234.593799s9.966-12.511-7.093-18.596" opacity=".92" stroke="#8787e1" stroke-width="4.76885"/><path d="m247.396269 295.669799s-11.497 4.753-2.187 15.325" opacity=".79" stroke="#8787e1" stroke-width="4.76885"/><path d="m349.928269 256.429799s4.197 10.676 14.093 2.263" stroke="#8787e1" stroke-width="4.76885"/><path d="m200.412269 81.1828992s-15.586-9.1954-19.717 10.8741" stroke="#8787e1" stroke-width="4.76885"/></g><g fill-rule="nonzero"><path d="m394.988269 174.631799c2.674-3.155 4.526-6.995 4.183-11.316-.891-12.481-18.242-9.738-21.602-3.428-3.361 6.309-2.949 22.219 1.371 23.385 1.715.48 5.418-.617 9.19-2.949l-2.4 16.734h13.99z" fill="#ffcaa7"/><path d="m376.132269 165.716799c-.411 2.537-2.331 4.389-3.086 6.721-.411 1.303-.48 1.783.823 2.194 1.029.343 2.057.343 2.743-.411" fill="#ffcaa7"/><path d="m377.847269 167.225799c.137-.412.48-.823.892-1.029.411-.206.96-.343 1.44-.274.48.068.891.205 1.303.411.411.206.754.48 1.097.823-.48.069-.892 0-1.303-.069-.412-.068-.823-.137-1.166-.137s-.754-.068-1.097 0c-.343 0-.755.137-1.166.275z" fill="#4d0351"/><path d="m379.493269 169.899799c.378 0 .686-.307.686-.686 0-.378-.308-.685-.686-.685-.379 0-.686.307-.686.685 0 .379.307.686.686.686z" fill="#307205"/><path d="m388.888269 177.169799c.137-1.715-.068-3.498-1.166-4.115-.411-.206-.96.068-1.577.48-.686 2.057-1.774 1.994-3.008 1.994-3.498.069-6.25-.965-7.759-.897-1.097 0-.823 1.44-.069 2.4.618.823 4.239-.322 4.239.981s-2.936 2.243-2.936 3.066c0 1.303-.342 3.703 1.921 3.703 2.263-.069 8.778-1.029 9.807-4.458.205-.686.48-1.92.548-3.154z" fill="#4d0351"/><path d="m401.129269 161.272799c.354-.354.566-.919.778-1.413.212-.495.353-1.06.494-1.555.212-1.06.212-2.332-.494-3.18-.636-.636-1.555-.989-2.403-1.06-.565-.07-1.13.071-1.696.212-.565.212-.989.566-1.554.778 0-1.131-.212-2.403-.777-3.392-.566-.989-1.484-1.484-2.474-1.625-1.059-.142-2.119.07-3.038.636-.212.141-.495.282-.707.424-.212.141-.353.282-.636.353-.212.071-.353-.071-.494-.283-.212-.212-.424-.424-.636-.565-.989-.707-2.261-1.06-3.463-.565-.494.212-1.059.565-1.413.989-.353.424-.565 1.06-.989 1.342-.212.142-.353-.07-.495-.141-.282-.212-.494-.353-.777-.565-.353-.283-.777-.424-1.201-.565-.636-.142-1.484-.142-1.625.706-.071.283 0 .636 0 .919 0 .424.07.848.07 1.272 0 .353.071.636.142.918 0 .142.141.495.07.636-.07.212-.494.071-.706.071-.354 0-.707.071-.99.212-.282.141-.494.282-.635.565-.071.141-.071.353 0 .565.07.212 0 .354 0 .566-.495-.212-2.05-.707-2.262.07-.07.283.071.566.212.848.212.424.495.778.778 1.131.565.777 1.272 1.413 1.978 1.978-.848.354-1.13 1.555-.353 2.191.353.283.777.353 1.201.353.141 0 .353-.07.495-.07.07 0 .141.07.212.07.565.071 1.272-.07 1.837-.212 1.06-.212 1.978-.706 2.826-1.484.212-.212.354-.282.636-.282.212 0 .495.07.707.07.636 0 1.201-.282 1.837-.494.071.777.283 1.696.565 2.402.283.565.848.636 1.343.707 1.766.141 3.533 0 5.229 0-1.696.353-3.463.565-5.158.989-.778.212-.212.707.141 1.06.565.565.918 1.343 1.201 2.049.848-1.06 2.261-1.766 3.604-1.484 1.413.354 2.473 2.332 1.554 3.675-.565.777-1.484 1.13-2.261 1.484.636.635.778 1.625 1.131 2.402.212.424.424.848.848.989.141.071.353.071.424.212.141.142.212.354.353.495.777.565 1.979.494 2.614-.212.636-.636.424-1.625-.07-2.261.848-.354 2.261-.778 1.978-2.049 1.767-.142 6.077-2.968 3.675-5.088 1.272-.707 2.473-2.544 1.625-4.098-.495-1.06-1.979-1.626-3.251-1.696z" fill="#4d0351"/><path d="m390.897269 215.587799c9.629 7.388 8.174 76.31 8.824 77.022.248.558 15.414 3.117 45.746 8.234l-1.05 5.157c-35.312-.538-54.068-2.154-55.864-4.694-3.251-3.559-7.222-24.532-12.624-62.264z" fill="#fad0b7"/><path d="m439.834269 298.688799-1.884 8.543c-25.963 3.965-43.544.482-49.859-4.713-4.056-3.867-8.584-24.59-12.624-62.264l16.391-24.764c23.281 16.317 11.577 73.444 12.072 74.56.094.962 14.114 1.693 35.904 8.638z" fill="#0202b2"/><path d="m445.686269 299.073799c1.516-.346 2.878-.288 3.28-.134.805.307 2.012.769 3.622 1.385-.309.808-2.503 10.159-6.425 27.65-2.321.038-3.528-.424-3.313-2.194.216-1.77.278-3.136.587-3.944l-2.359-14.335c.155-.404.155-.404.309-.808l2.074-.597c1.02-1.462 1.732-2.116 1.793-3.482.309-.808.216-1.77-.125-3.29-.155.404.154-.405.557-.251z" fill="#600566"/><path d="m398.485269 237.186799-1.457 67.633 2.146 58.392-5.542-2.444-13.751-131.785z" fill="#fad0b7"/><path d="m402.163269 356.494799c.732 1.15 1.465 2.299 1.673 3.135.209.836.522 2.09.519022 3.867-.840022.209-10.074022 2.513-27.284022 6.805-1.465-2.298-1.358-3.657.321-4.076s2.834-1.151 3.673-1.36l11.133-8.994c.42-.104.42-.104.944.209l1.256 1.463c1.468.522 2.728.208 3.567-.002.84-.209 1.575-.837 2.73-1.569.42-.104 1.363.104 1.468.522z" fill="#600566"/><path d="m401.718269 352.089799-13.314-3.046c-3.416-17.987-17.966-92.208-10.499-120.934l27.313 12.045c6.128 25.775-6.346 93.729-3.5 111.935z" fill="#8787e1"/><path d="m418.376269 226.841799 10.383-2.155c6.922 18.526 11.248 28.435 12.114 30.159.865 1.292 7.354 4.739 11.248 6.462 1.73.862 1.298 2.154.865 2.585-3.894 3.877-7.355.862-11.681 0-4.759-1.292-3.461 4.308-6.922 3.447.433-2.585 2.163-7.324.433-9.909-.433-1.293-6.057-11.202-16.44-30.589z" fill="#ffcaa7"/><path d="m356.326269 185.573799-8.502-17.833c-.278-4.265-.84-8.206-1.972-11.502-.364-.895-1.663-2.039-2.074 1.044-.126 2.76-.862 5.558-1.756 5.918-.895.36-1.947-1.716-3.451-1.319-.895.36.522 3.332 5.145 8.556l3.548 16.911z" fill="#ffcaa7"/><path d="m403.703269 193.180799-1.868-3.996c-12.926-2.311-32.937 7.564-38.954 4.47-5.67-3.349-8.455-11.503-11.827-21.911l-7.348 1.643c-2.604 13.189 2.33 33.723 10.761 37.191 13.588 6.12 36.995-7.863 49.236-17.397z" fill="#ffe2b8"/><path d="m409.628269 241.373799c-17.305 0-30.283 0-38.503 0-1.73 0-1.298-2.585-1.298-3.878 3.029-14.648 14.277-30.589 14.277-51.7l11.248-1.723c9.517 15.079 12.546 33.174 14.276 57.301z" fill="#fff"/></g><path d="m368.539269 243.896799.048.004.049.004.048.004.048.003.049.004.048.004.049.004.049.004.049.004.049.004.049.004.049.004.05.004.049.004.05.004.049.004.05.004.05.004.05.004.05.004.05.004.051.005.05.004.051.004.05.004.051.004.051.004.051.004.051.004.051.004.052.005.051.004.052.004.051.004.052.004.052.005.052.004.052.004.052.004.052.004.053.005.052.004.053.004.052.004.053.005.053.004.053.004.053.005.054.004.053.004.053.005.054.004.054.004.053.005.054.004.054.004.054.005.055.004.054.005.054.004.055.004.055.005.054.004.055.005.055.004.055.005.055.004.056.005.055.004.056.004.055.005.056.005.056.004.056.005.056.004.056.005.056.004.057.005.056.004.057.005.056.005.057.004.057.005.057.004.057.005.057.005.058.004.057.005.058.005.057.004.058.005.058.005.058.004.058.005.058.005.058.004.059.005.058.005.059.005.059.004.058.005.059.005.059.005.059.004.06.005.059.005.06.005.059.005.06.005.06.004.059.005.06.005.061.005.06.005.06.005.06.005.061.005.061.004.06.005.061.005.061.005.061.005.061.005.062.005.061.005.061.005.062.005.062.005.062.005.061.005.062.005.063.005.062.005.062.005.063.005.062.005.063.005.062.005.063.006.063.005.063.005.064.005.063.005.063.005.064.005.063.005.064.006.064.005.064.005.064.005.064.005.064.006.064.005.065.005.064.005.065.005.065.006.065.005.065.005.065.005.065.006.065.005.066.005.065.006.066.005.065.005.066.006.066.005.066.005.066.006.067.005.066.005.066.006.067.005.067.006.066.005.067.005.067.006.067.005.067.006.068.005.067.006.068.005.067.006.068.005.068.005.068.006.068.006.068.005.068.006.068.005.069.006.068.005.069.006.069.005.069.006.069.005.069.006.069.006.069.005.069.006.07.006.07.005.069.006.07.005.07.006.07.006.07.005.07.006.071.006.07.006.071.005.07.006.071.006.071.005.071.006.071.006.071.006.071.006.072.005.071.006.072.006.071.006.072.005.072.006.072.006.072.006.072.006.073.006.072.006.073.005.072.006.073.006.073.006.073.006.073.006.073.006.073.006.074.006.073.006.074.006.073.006.074.006.074.006.074.006.074.006.074.006.074.006.075.006.074.006.075.006.075.006.074.006.075.006.075.006.075.006.076.006.075.006.075.006.076.006.075.007.076.006.076.006.076.006.076.006.076.006.076.006.077.007.076.006.077.006.077.006.076.006.077.007.077.006.077.006.077.006.078.007.077.006.078.006.077.007.078.006.078.006.078.006.078.007.078.006.078.006.078.007.079.006.078.006.079.007.079.006.078.007.079.006.079.006.079.007.08.006.079.007.08.006.079.007.08.006.08.006.079.007.08.006.08.007.081.006.08.007.08.006.081.007.08.006.081.007.081.007.081.006.081.007.081.006.081.007.081.006.082.007.081.007.082.006.081.007.082.006.082.007.082.007.082.006.083.007.082.007.082.006.083.007.082.007.083.006.083.007.083.007.083.007.083.006.083.007.084.007.083.007.084.006.083.007.084.007.084.007.084.006.084.007.084.007.084.007.085.007.084.007.085.006.084.007.085.007.085.007.085.007.085.007.085.007.086.007.085.007.085.006.086.007.086.007.086.007.085.007.086.007.086.007.087.007.086.007.086.007.087.007.086.007.087.007.087.007.087.007.087.007.087.007.087.007.088.007.087.008.087.007.088.007.088.007.088.007.088.007.088.007.088.007.088.007.088.008.089.007.088.007.089.007.089.007.088.008.089.007.089.007.089.007.09.007.089.008.089.007.09.007.09.007.089.008.09.007.09.007.09.008.09.007.091.007.09.007.09.008.091.007.091.007.09.008.091.007.091.008.091.007.091.007.092.008.091.007.091.007.092.008.092.007.091.008.092.007.092.008.092.007.092.008.093.007.092.008.092.007.093.007.093.008.092.008.093.007.093.008.093.007.093.008.094.007.093.008.093.007.094.008.094.007.093.008.094.008.094.007.094.008.094.008.095.007.094.008.095.007.094.008.095.008.094.007.095.008.095.008.095.008.096.007.095.008.095.008.096.007.095.008.096.008.096.008.095.007.096.008.096.008.097.008.096.008.096.007.097.008.096.008.097.008.097.008.096.008.097.007.097.008.098.008.097.008.097.008.098.008.097.008.098.008.098.007.097.008.098.008.098.008.099.008.098.008.098.008.099.008.098.008.099.008.099.008.098.008.099.008.099.008.099.008.1.008.099.008.099.008.1.008.1.008.099.008.1.009.1.008.1.008.1.008.101.008.1.008.1.008.037.003c.332-25.655-2.317-44.142-10.265-60.854h-9.31c-.991 11.256-4.582 20.923-8.453 29.672-1.057 2.388-2.132 4.703-3.179 6.96-2.853 6.144-5.51 11.865-7.074 17.501-.019.214-.049.464-.081.719-.019.161-.039.325-.057.483-.05.45-.085.896-.068 1.293.017.407.087.702.199.889.091.152.219.254.478.275z" stroke="#0202b2" stroke-width="1.06585"/><path d="m413.523269 226.723799c7.787 14.218 14.277 24.127 19.901 30.589l7.787-1.723c-5.192-31.881-20.333-55.577-44.993-71.087h-4.326c-9.95 33.605-12.546 56.439-8.22 67.64h34.61c-.433-8.185-2.163-16.802-4.759-25.419z" fill="#ffe2b8" fill-rule="nonzero"/><path d="m290.807269 231.140799-12.674 65.881-12.546 53.336 4.211 3.728 37.854-108.034z" fill="#b28b67" fill-rule="nonzero"/><path d="m264.422269 346.450799c-1.18.681-2.037 1.649-2.322 1.972-.572.645-1.428 1.613-1.961 2.867.648.574 7.127 6.309 19.76 17.492 2.076-1.04 2.609-2.294 1.313-3.441-.972-.86-1.658-2.043-2.306-2.617l-5.358-12.222c-.324-.287-.324-.287-.609.035l-1.791.717c-1.257-.537-2.514-1.075-3.162-1.648-.648-.574-1.01-1.47-1.697-2.653-.648-.573-1.257-.538-1.867-.502z" fill="#0202b2" fill-rule="nonzero"/><path d="m265.543269 339.962799 10.383 4.588c5.861-13.8 11.644-28.818 17.598-45.988 5.954-17.169 11.298-34.303 15.747-51.078l-22.675-20.072c-6.657 20.575-11.524 40.432-14.963 58.677-3.725 18.567-5.66 36.417-6.09 53.873z" fill="#e8140f" fill-rule="nonzero"/><path d="m322.803269 177.855799 12.023-13.818c1.457-4.001 2.973-7.138 4.518-9.844.83-.49 1.632-1.411 1.377 1.208-.256 2.619-.511 5.237.378 5.611s2.091-1.008 3.009-.203c.889.374-1.545 2.706-6.47 6.507l-7.236 14.363z" fill="#b28b67" fill-rule="nonzero"/><path d="m320.210269 246.461799c-5.52-6.183-10.028-29.808-11.592-40.848l-8.556 6.348v64.032l31.188 6.072c8.556 14.904-5.52-29.422-11.04-35.604z" fill="#8787e1" fill-rule="nonzero"/><path d="m319.935269 177.184799c.094-2.267.751-5.568 1.932-8.099.59-1.266 2.462-2.303 3.728-1.713.736.363 1.221.975 1.358 1.713.441-.45.827-.905 1.274-1.409l8.488 5.422c-11.409 17.523-20.382 34.159-36.597 40.349-5.465 2.093-22.741-.841-29.134-1.3l13.07-16.195c17.72-6.348 20.425-.276 35.881-18.768z" fill="#8787e1" fill-rule="nonzero"/><path d="m281.317269 257.548799c18.556 8.814 41.8 21.643 42.513 22.293.297.533.994 15.56 2.09 45.079l4.913.034c4.457-33.351 5.527-51.475 3.507-53.841-3.029-3.549-29.674-24.974-46.932-35.221z" fill="#b28b67" fill-rule="nonzero"/><path d="m324.314269 322.671799c-.766 1.132-1.117 2.382-1.235 2.798-.234.833-.17 2.199-.107 3.565.829.234 9.593.901 26.173 2.418 1-1.965.522-3.448-.722-3.798s-2.489-.7-3.733-1.05l-11.622-6.415c-.415-.116-.415-.116-.532.3l-.703 2.499c-1.478.483-2.425.666-3.254.433-.83-.234-1.659-.467-2.786-1.233-.415-.117-1.362.066-1.479.483z" fill="#0202b2" fill-rule="nonzero"/><path d="m324.467269 314.175799 8.05.017c8.868-23.571 11.309-38.614 7.855-45.428-3.454-6.813-21.19-18.543-52.378-34.955l-7.848 27.903c26.084 12.28 39.6 18.329 40.61 19.511 1.127.767 2.048 11.812 3.711 32.952z" fill="#e8140f" fill-rule="nonzero"/><path d="m289.422269 181.367799c-2.539-2.981-4.251-6.624-3.975-10.765.828-11.812 17.278-9.218 20.48-3.256 3.201 5.961 2.815 21.086-1.325 22.135-1.656.442-5.134-.607-8.722-2.76l2.263 15.898h-13.248z" fill="#b28b67" fill-rule="nonzero"/><path d="m300.683269 160.832799c-1.822-.552-4.416-.718-5.52-.607.607-1.491.883-3.202.662-4.803s-.883-2.925-1.546-4.361c-.276-.662-.662-1.324-1.159-1.821s-1.159-.828-1.877-.994c-.717-.165-1.435-.165-2.152 0-.332.055-.608.221-.884.276-.331.055-.441-.11-.717-.331-.552-.497-1.38-.718-2.043-.773-.772-.11-1.6 0-2.318.276s-1.435.663-1.932 1.27c-.221.276-.442.552-.607.883-.056.11-.055.221-.221.276-.11.055-.276.055-.387.11-1.269.442-2.318 1.38-2.925 2.65-.331.718-.497 1.987-.442 3.422.055 1.436 1.325 5.134 2.539 6.514 1.104 1.215 2.65 1.987 4.196 2.374-.994 1.159-1.712 2.594-2.208 4.085-.552 1.6-.884 3.256-.994 4.968-.11 1.6-.11 3.312.276 4.912.331 1.491 1.104 2.705 2.374 3.423.552.331 1.214.607 1.821.883.608.221 1.215.442 1.877.607 1.215.276 2.65.221 3.588-.772.331-.332.718-.773.939-1.215.11-.165.165-.276.055-.386-.111-.166-.331-.331-.497-.442-.938-.828-1.546-1.877-1.656-3.146-.166-1.27.221-2.981 1.435-3.533 1.546-.718 3.257.11 4.637.828.607-2.043 1.766-3.919 3.698-4.858 2.098-1.049 4.472-1.159 6.625-2.097.552-.221 1.104-.497 1.545-.994.166-.221.386-.442.442-.718.11-.331-.111-.662-.331-.883-1.049-1.545-4.527-4.471-6.293-5.023z" fill="#191847" fill-rule="nonzero"/><path d="m251.123269 232.661799 9.715 1.766c-11.261 22.412-17.333 34.224-18.106 35.494-1.821 2.871 0 8.115.718 10.875-3.974.993-2.539-5.079-7.562-3.699-4.637 1.215-8.501 4.251-12.917.331-.552-.496-.939-1.987.828-2.815 4.471-2.042 11.095-5.796 12.144-7.286 1.435-1.932 6.513-13.524 15.18-34.666z" fill="#b28b67" fill-rule="nonzero"/><path d="m272.321269 253.913799c17.333 1.932 31.63 1.932 41.566 0 1.214-.221.552-5.575 0-7.01-8.943-22.632-12.167-41.014-16.859-54.538-1.656.828-2.462.607-6.546 0-10.93 16.229-15.953 34.776-18.161 61.548z" fill="#fff" fill-rule="nonzero"/><path d="m269.119269 256.618799c-.607-.552-.883-1.38-.773-2.263l.276-1.656c.221-1.104 1.104-1.932 2.153-2.043.165-.828.331-1.656.497-2.484 1.104-6.9-.773-13.634-.718-20.314-8.887 7.563-16.836 20.645-23.902 39.248l-10.433-3.091c.387-1.491.828-2.926 1.215-4.361-1.215-.663-2.595-3.809-1.601-4.361 1.049-.552 2.153-.938 3.312-1.159 9.55-28.815 25.171-49.846 46.92-63.15h2.981 3.312c-1.821 24.454 23.681 77.833 14.794 123.374-16.395 3.643-39.8-7.729-62.542 1.38.938-18.272 17.885-39.855 24.509-59.12z" fill="#8787e1" fill-rule="nonzero"/><path d="m269.804269 256.923799.096-.337-.271-.223c-.482-.394-.746-1.026-.695-1.759l.188-1.647c.135-.896.806-1.569 1.599-1.694l.387-.061.057-.388.184-1.253.185-1.253.001-.01.001-.011c.381-3.544.004-6.994-.496-10.363-.11-.742-.225-1.478-.34-2.211-.41-2.614-.813-5.178-.925-7.756l-.05-1.164-.848.8c-8.511 8.034-15.76 21.452-21.837 40.181l-9.596-2.313c.144-.672.295-1.322.445-1.973.148-.639.296-1.278.437-1.936l.088-.411-.378-.181c-.207-.1-.478-.333-.761-.688-.276-.346-.533-.767-.726-1.189-.196-.427-.311-.822-.333-1.117-.011-.147.003-.243.021-.298.009-.025.017-.038.02-.042.002-.003.004-.004.005-.005.971-.576 2.002-.997 3.094-1.264l.304-.074.083-.302c8.01-29.114 22.424-50.778 43.269-65.1l2.826-.146 2.74-.141c-.031 6.124 1.621 13.829 4.01 22.593 1.323 4.851 2.884 10.066 4.522 15.54 1.41 4.712 2.878 9.615 4.3 14.64 6.135 21.688 11.504 45.941 8.36 68.69-3.884 1.019-8.238 1.211-12.952 1.056-3.085-.102-6.293-.351-9.613-.608-1.912-.148-3.861-.299-5.844-.427-10.565-.679-21.945-.675-32.957 4.172.227-8.806 4.032-18.589 8.548-28.622 1.022-2.27 2.081-4.553 3.14-6.839 3.749-8.085 7.509-16.195 9.712-23.866z" stroke="#ffe5e4" stroke-width="1.06585"/><path d="m288.439269 191.592799-2.87 8.776 5.741 6.569-5.189 5.134 12.53 21.473-15.346-21.418 5.134-5.189-5.134-5.796z" fill="#000" fill-opacity=".1" fill-rule="nonzero"/><path d="m294.953269 241.824799c-1.214 0-2.208-.994-2.208-2.208s.994-2.208 2.208-2.208c1.215 0 2.208.994 2.208 2.208s-.938 2.208-2.208 2.208zm2.76 12.696c-1.214 0-2.208-.993-2.208-2.208 0-1.214.994-2.208 2.208-2.208 1.215 0 2.208.994 2.208 2.208 0 1.215-.938 2.208-2.208 2.208zm.552 12.696c-1.214 0-2.208-.993-2.208-2.208 0-1.214.994-2.208 2.208-2.208 1.215 0 2.209.994 2.209 2.208 0 1.215-.939 2.208-2.209 2.208z" fill="#000" fill-opacity=".4" fill-rule="nonzero"/><path d="m307.408269 174.596799c.424.848 1.06 1.554 1.413 2.402.283.778 1.767 3.251 1.837 4.099.142 1.201-2.685 1.413-3.957 1.343" fill="#b28b67" fill-rule="nonzero"/><path d="m307.478269 172.476799c-.424-.071-.778 0-1.06 0-.354.071-.636.141-.919.212-.636.141-1.272.353-2.12.495.142-.424.495-.707.778-.919.353-.212.706-.424 1.13-.495.424-.07.848-.141 1.272 0 .353.071.707.354.919.707z" fill="#191847" fill-rule="nonzero"/><path d="m307.478269 185.478799c-.353.141-.777.141-1.13 0-.354-.071-.707-.283-1.06-.424-.636-.353-1.272-.777-1.767-.989l.636-.424c0 .07.071.424.283.636.141.282.353.565.565.777.424.565.919 1.06 1.413 1.555-.353-.071-.706-.212-1.06-.424-.353-.212-.636-.354-.918-.636-.283-.212-.566-.495-.848-.848-.212-.354-.495-.707-.495-1.343l.071-.636.636.212c.424.141.706.353 1.06.565.282.212.565.424.848.707.565.636 1.06 1.131 1.766 1.272z" fill="#191847" fill-rule="nonzero"/><path d="m306.206269 175.585799c.429 0 .777-.348.777-.777 0-.43-.348-.778-.777-.778s-.777.348-.777.778c0 .429.348.777.777.777z" fill="#000" fill-rule="nonzero"/></g></svg>