<svg width="288" height="229" viewBox="0 0 288 229" fill="none" xmlns="http://www.w3.org/2000/svg">
<path d="M26.2014 147.698C12.3461 156.11 6.92801 165.493 3.92423 174.311C1.14348 182.777 0.317868 191.566 9.16252 197.913C18.5715 204.668 37.1519 207.654 55.3648 210.245C92.9586 215.696 134.174 220.298 179.626 215.434C225.275 210.583 275.371 193.33 282.848 174.508C289.092 159.101 266.325 148.257 249.712 137.116C225.553 120.828 202.117 111.043 143.386 116.249C106.541 119.701 50.1727 133.372 26.2014 147.698Z" fill="#EFE8F4"/>
<path d="M231.54 31.5735C231.54 39.9734 226.215 47.3682 218.011 51.963C216.14 53.0399 217.363 59.4296 217.003 60.5066C216.644 61.5835 209.735 55.3374 208.584 55.6245C205.417 56.4143 201.963 56.845 198.437 56.845C180.158 56.845 165.334 45.5015 165.334 31.5017C165.334 17.5018 180.158 6.15833 198.437 6.15833C216.715 6.15833 231.54 17.5736 231.54 31.5735Z" fill="#D6CDE4"/>
<path d="M248.483 127.637H222.115L218.644 170.002H257.888L248.483 127.637Z" fill="#D6CDE4"/>
<path d="M248.483 127.637H240.365L235.495 170.002H257.888L248.483 127.637Z" fill="#BCB1D4"/>
<path d="M194.012 168.043C198.434 158.25 201.625 149.743 202.913 145.266C205.096 137.599 206.776 130.827 207.224 128.309C208.231 122.265 199.498 121.929 198.322 124.951C196.587 129.484 193.508 144.371 189.869 166.868L194.012 168.043ZM245.235 137.375C241.205 135.752 226.985 130.771 220.155 129.372C218.196 128.98 216.293 128.589 214.501 128.253C209.183 127.245 206.44 136.815 211.534 137.599C224.298 139.446 242.436 141.348 243.948 141.572C246.131 141.796 247.755 138.382 245.235 137.375Z" fill="#3D2884"/>
<path d="M211.198 125.567L233.087 114.43V112.023H230.456C209.239 117.452 198.434 120.866 197.93 122.433V122.489C197.93 122.489 197.93 122.544 197.874 122.544C193.676 128.309 191.157 156.515 190.317 158.641L198.378 159.817C201.457 148.4 211.31 140.453 211.03 126.798C211.198 126.35 211.254 125.958 211.198 125.567Z" fill="#EA931F"/>
<path d="M231.296 132.226C233.311 131.835 235.159 131.443 236.726 131.163C246.915 129.372 249.882 123.888 248.146 112.023H229.336C226.257 112.919 210.302 119.578 202.017 123.16C196.531 125.511 198.266 134.017 201.345 136.2C201.345 136.312 201.401 136.424 201.513 136.48C218.196 143.419 231.408 139.781 235.83 140.901L237.846 134.465L231.296 132.226Z" fill="#F9AA38"/>
<path d="M243.829 136.396C244.929 136.482 245.704 136.665 246.177 136.87C246.751 137.151 247.497 137.659 248.516 138.345C248.21 138.993 245.374 144.797 239.983 155.832C238.283 155.539 237.589 154.882 237.95 153.834C238.31 152.786 238.594 151.963 238.801 151.239L239.148 141.356C239.175 141.156 239.302 141.032 239.477 141.009L241.004 141.074C241.862 140.407 242.419 139.761 242.7 139.189C242.905 138.715 243.062 138.016 243.072 137.015C243.075 136.639 243.429 136.342 243.829 136.396C243.804 136.346 243.804 136.346 243.829 136.396Z" fill="#705FA4"/>
<path d="M196.026 166.253C196.418 167.26 196.586 168.043 196.586 168.547C196.586 169.163 196.474 170.058 196.25 171.289C195.523 171.289 189.029 171.289 176.825 171.289C176.321 169.61 176.601 168.715 177.72 168.603C178.784 168.491 179.736 168.323 180.407 168.267L189.421 164.238C189.589 164.182 189.812 164.238 189.868 164.406L190.428 165.805C191.436 166.252 192.276 166.532 192.891 166.532C193.395 166.532 194.123 166.308 195.019 165.917C195.411 165.693 195.859 165.861 196.026 166.253C196.026 166.197 196.026 166.253 196.026 166.253Z" fill="#705FA4"/>
<path d="M237.845 70.1618C239.413 68.315 240.532 66.0205 240.308 63.4461C239.805 56.0588 229.504 57.6818 227.544 61.4314C225.529 65.125 225.809 74.583 228.384 75.2546C229.392 75.5344 231.631 74.8628 233.814 73.5197L232.415 83.4254H240.7L237.845 70.1618Z" fill="#3D2884"/>
<path d="M239.693 57.4021H239.637C238.853 57.1782 238.069 56.9543 237.285 56.8984C237.229 56.8984 237.173 56.8424 237.173 56.8424C237.061 56.8424 237.005 56.8424 236.893 56.8424C236.334 56.8424 233.423 56.9543 232.303 57.1222C230.791 57.3461 227.992 58.6333 227.544 59.6406C227.097 60.648 227.376 61.8792 229.28 61.7673C231.183 64.0618 233.926 65.6288 234.262 65.6288C234.262 65.6288 235.494 63.9499 236.67 64.6774C238.013 65.4609 237.789 66.9719 237.061 68.1472C236.67 68.7628 236.11 69.6582 237.061 70.3858C238.573 71.5051 242.492 69.0426 243.163 66.916C244.171 63.5022 242.94 58.9131 239.693 57.4021Z" fill="#A396C4"/>
<path d="M226.145 67.4195C225.809 68.203 225.305 68.8746 225.082 69.7141C224.746 70.8333 225.138 70.8333 226.145 70.7774C227.153 70.7214 227.041 70.1058 226.985 68.9865C226.929 68.259 226.873 67.3076 226.593 66.7479C226.369 66.9158 226.201 67.1956 226.145 67.4195Z" fill="#3D2884"/>
<path d="M226.873 65.9085C226.929 65.6846 227.153 65.5167 227.377 65.4608C227.601 65.4048 227.825 65.4048 228.049 65.4048C228.497 65.5167 228.888 65.7406 229.112 66.1883C228.664 66.0764 228.329 65.9644 227.993 65.9085C227.825 65.8525 227.657 65.8525 227.489 65.8525C227.265 65.7965 227.041 65.8525 226.873 65.9085Z" fill="#A396C4"/>
<path d="M226.761 72.7361C227.153 72.6242 227.545 72.5123 227.937 72.4003C228.105 72.3444 228.273 72.2324 228.441 72.1205C228.609 72.0086 228.833 71.8967 229.112 71.8407H229.336V72.0646C229.392 72.4563 229.168 72.6802 229.057 72.8481C228.889 73.016 228.721 73.1279 228.553 73.2958C228.385 73.4077 228.161 73.5196 227.993 73.5756C227.769 73.6316 227.601 73.7435 227.377 73.7435C227.713 73.5196 228.049 73.2398 228.329 72.96C228.497 72.8481 228.609 72.6802 228.721 72.5682C228.833 72.4563 228.889 72.2884 228.889 72.2325L229.168 72.4003C229.057 72.4003 228.889 72.5123 228.721 72.5682C228.553 72.6802 228.329 72.7921 228.105 72.7921C227.881 72.8481 227.657 72.8481 227.489 72.8481C227.153 72.8481 226.929 72.7921 226.761 72.7361Z" fill="#A396C4"/>
<path d="M227.377 67.2516C227.593 67.2516 227.769 67.0763 227.769 66.8599C227.769 66.6435 227.593 66.4681 227.377 66.4681C227.16 66.4681 226.985 66.6435 226.985 66.8599C226.985 67.0763 227.16 67.2516 227.377 67.2516Z" fill="#A396C4"/>
<path d="M211.758 102.565L199.274 97.0807C197.091 94.8981 194.963 93.2191 192.948 92.0998C192.332 91.9319 191.324 91.82 192.388 93.443C193.508 95.0659 194.571 96.8008 194.123 97.3605C193.676 97.9201 192.388 97.3045 191.884 98.1999C191.548 98.8156 193.732 99.5431 198.378 100.439L207.727 107.602L211.758 102.565ZM262.254 104.076L255.2 105.475C262.31 118.683 266.116 125.734 266.62 126.518C267.796 128.309 266.676 131.555 266.284 133.29C268.804 133.849 267.796 130.1 270.987 130.883C273.898 131.611 276.361 133.457 279.048 130.939C279.384 130.659 279.608 129.652 278.489 129.204C275.689 127.973 271.491 125.678 270.819 124.783C269.867 123.608 267.012 116.724 262.254 104.076Z" fill="#3D2884"/>
<path d="M235.998 77.6609L233.031 77.1572C226.537 83.4252 223.906 98.5916 219.539 100.55C215.452 102.453 209.63 100.606 202.745 98.1439L200.617 102.845C206.887 109.617 220.211 115.325 225.641 112.079C234.318 106.874 236.278 88.2382 235.998 77.6609Z" fill="#564394"/>
<path d="M248.986 115.101C237.062 115.101 228.272 115.101 222.618 115.101C221.387 115.101 221.667 113.366 221.834 112.471C223.85 102.341 231.687 91.4283 231.687 76.9895L239.301 75.8142C245.571 85.9438 247.754 98.4238 248.986 115.101Z" fill="#BCB1D4"/>
<path d="M251.617 104.86C256.992 114.541 261.526 121.537 265.165 125.79L270.707 124.727C267.124 102.677 256.824 86.3355 239.749 75.8701H239.637H236.726C229.896 99.1513 227.993 114.653 231.072 122.376H254.808C254.472 116.668 253.241 110.68 251.617 104.86Z" fill="#705FA4"/>
<path d="M93.185 112.679C92.2893 112.679 91.5615 114.022 91.5615 115.701C91.5615 115.925 91.5615 116.149 91.5615 116.372C91.5615 116.988 91.5615 117.604 91.5615 118.219C91.5615 119.171 91.5615 120.122 91.5615 121.073C91.5615 122.305 91.5615 123.536 91.5615 124.823C91.5615 126.278 91.5615 127.789 91.5615 129.244C91.5615 130.923 91.5615 132.602 91.5615 134.225C91.5615 136.016 91.5615 137.807 91.5615 139.598C91.5615 141.5 91.5615 143.347 91.5615 145.25C91.5615 147.153 91.5615 149.056 91.5615 150.958C91.5615 152.861 91.5615 154.708 91.5615 156.611C91.5615 158.402 91.5615 160.192 91.5615 162.039C91.5615 163.718 91.5615 165.397 91.5615 167.076C91.5615 168.587 91.5615 170.042 91.5615 171.553C91.5615 172.784 91.5615 174.072 91.5615 175.303C91.5615 176.254 91.5615 177.206 91.5615 178.213C91.5615 178.829 91.5615 179.444 91.5615 180.06C91.5615 180.452 91.5615 180.843 91.5615 181.235C91.6175 181.683 91.8974 181.851 92.1213 181.963C92.4572 182.13 92.7931 182.186 93.185 182.186C93.4649 182.186 93.8008 182.13 94.0807 182.019C94.2487 181.963 94.6406 181.795 94.7525 181.459C94.7525 181.403 94.7525 181.347 94.8085 181.235C94.8645 180.843 94.8085 180.396 94.8085 180.004C94.8085 179.388 94.8085 178.773 94.8085 178.213C94.8085 177.262 94.8085 176.366 94.8085 175.415C94.8085 174.24 94.8085 173.008 94.8085 171.833C94.8085 170.434 94.8085 168.979 94.8085 167.58C94.8085 165.957 94.8085 164.39 94.8085 162.767C94.8085 161.032 94.8085 159.297 94.8085 157.618C94.8085 155.827 94.8085 153.98 94.8085 152.19C94.8085 150.343 94.8085 148.496 94.8085 146.649C94.8085 144.802 94.8085 143.011 94.8085 141.165C94.8085 139.374 94.8085 137.639 94.8085 135.848C94.8085 134.169 94.8085 132.546 94.8085 130.867C94.8085 129.356 94.8085 127.845 94.8085 126.39C94.8085 125.103 94.8085 123.816 94.8085 122.472C94.8085 121.409 94.8085 120.402 94.8085 119.338C94.8085 118.611 94.8085 117.827 94.8085 117.1C94.8085 116.708 94.8085 116.316 94.8085 115.869C94.8085 115.813 94.8085 115.757 94.8085 115.701C94.8085 114.022 94.0807 112.679 93.185 112.679Z" fill="#705FA4"/>
<path d="M144.969 102.661C144.073 102.661 143.345 104.004 143.345 105.683C143.345 105.907 143.345 106.131 143.345 106.355C143.345 106.971 143.345 107.586 143.345 108.202C143.345 109.153 143.345 110.105 143.345 111.056C143.345 112.287 143.345 113.518 143.345 114.806C143.345 116.261 143.345 117.772 143.345 119.227C143.345 120.906 143.345 122.585 143.345 124.208C143.345 125.998 143.345 127.789 143.345 129.58C143.345 131.483 143.345 133.33 143.345 135.233C143.345 137.135 143.345 139.038 143.345 140.941C143.345 142.844 143.345 144.69 143.345 146.593C143.345 148.384 143.345 150.175 143.345 152.022C143.345 153.701 143.345 155.38 143.345 157.059C143.345 158.57 143.345 160.025 143.345 161.536C143.345 162.767 143.345 164.054 143.345 165.285C143.345 166.237 143.345 167.188 143.345 168.195C143.345 168.811 143.345 169.427 143.345 170.042C143.345 170.434 143.345 170.826 143.345 171.218C143.401 171.665 143.681 171.833 143.905 171.945C144.241 172.113 144.577 172.169 144.969 172.169C145.249 172.169 145.584 172.113 145.864 172.001C146.032 171.945 146.424 171.777 146.536 171.441C146.536 171.385 146.536 171.33 146.592 171.218C146.648 170.826 146.592 170.378 146.592 169.986C146.592 169.371 146.592 168.755 146.592 168.195C146.592 167.244 146.592 166.349 146.592 165.397C146.592 164.222 146.592 162.991 146.592 161.816C146.592 160.416 146.592 158.961 146.592 157.562C146.592 155.939 146.592 154.372 146.592 152.749C146.592 151.014 146.592 149.28 146.592 147.601C146.592 145.81 146.592 143.963 146.592 142.172C146.592 140.325 146.592 138.478 146.592 136.632C146.592 134.785 146.592 132.994 146.592 131.147C146.592 129.356 146.592 127.621 146.592 125.83C146.592 124.152 146.592 122.529 146.592 120.85C146.592 119.339 146.592 117.828 146.592 116.373C146.592 115.085 146.592 113.798 146.592 112.455C146.592 111.392 146.592 110.384 146.592 109.321C146.592 108.593 146.592 107.81 146.592 107.082C146.592 106.691 146.592 106.299 146.592 105.851C146.592 105.795 146.592 105.739 146.592 105.683C146.592 104.004 145.864 102.661 144.969 102.661Z" fill="#564394"/>
<path d="M196.136 112.287C195.24 112.287 194.513 113.63 194.513 115.309C194.513 115.533 194.513 115.757 194.513 115.981C194.513 116.596 194.513 117.212 194.513 117.828C194.513 118.779 194.513 119.73 194.513 120.682C194.513 121.913 194.513 123.144 194.513 124.375C194.513 125.83 194.513 127.342 194.513 128.797C194.513 130.476 194.513 132.098 194.513 133.777C194.513 135.568 194.513 137.359 194.513 139.15C194.513 140.997 194.513 142.9 194.513 144.746C194.513 146.649 194.513 148.552 194.513 150.455C194.513 152.302 194.513 154.204 194.513 156.051C194.513 157.842 194.513 159.633 194.513 161.424C194.513 163.103 194.513 164.726 194.513 166.405C194.513 167.86 194.513 169.371 194.513 170.826C194.513 172.057 194.513 173.344 194.513 174.575C194.513 175.527 194.513 176.478 194.513 177.43C194.513 178.045 194.513 178.661 194.513 179.276C194.513 179.668 194.513 180.06 194.513 180.452C194.569 180.899 194.849 181.067 195.073 181.179C195.408 181.347 195.744 181.403 196.136 181.403C196.416 181.403 196.752 181.347 197.032 181.235C197.2 181.179 197.592 181.011 197.704 180.676C197.704 180.62 197.704 180.564 197.76 180.452C197.816 180.06 197.76 179.668 197.76 179.22C197.76 178.605 197.76 177.989 197.76 177.43C197.76 176.534 197.76 175.583 197.76 174.687C197.76 173.512 197.76 172.281 197.76 171.106C197.76 169.707 197.76 168.251 197.76 166.852C197.76 165.285 197.76 163.662 197.76 162.095C197.76 160.36 197.76 158.682 197.76 156.947C197.76 155.156 197.76 153.365 197.76 151.574C197.76 149.727 197.76 147.88 197.76 146.09C197.76 144.243 197.76 142.452 197.76 140.605C197.76 138.87 197.76 137.079 197.76 135.344C197.76 133.721 197.76 132.043 197.76 130.42C197.76 128.909 197.76 127.453 197.76 125.942C197.76 124.655 197.76 123.368 197.76 122.081C197.76 121.018 197.76 120.01 197.76 118.947C197.76 118.219 197.76 117.436 197.76 116.708C197.76 116.317 197.76 115.925 197.76 115.533C197.76 115.477 197.76 115.421 197.76 115.365C197.76 113.63 197.032 112.287 196.136 112.287Z" fill="#564394"/>
<path d="M203.413 108.426C203.413 115.309 177.102 120.906 144.688 120.906C112.274 120.906 85.9629 115.309 85.9629 108.426V109.937C85.9629 116.82 112.163 122.417 144.632 122.417C177.046 122.417 202.518 117.1 203.525 110.328L203.413 108.426Z" fill="#A396C4"/>
<path d="M144.576 121.017C177.009 121.017 203.302 115.43 203.302 108.537C203.302 101.645 177.009 96.0574 144.576 96.0574C112.143 96.0574 85.8511 101.645 85.8511 108.537C85.8511 115.43 112.143 121.017 144.576 121.017Z" fill="#BCB1D4"/>
<path d="M90.1621 106.187L108.916 115.589L120.672 111.112L100.799 102.885L90.1621 106.187Z" fill="#BCB1D4"/>
<path d="M99.2305 104.228L100.462 103.781L102.254 104.564L101.078 105.012L99.2305 104.228Z" fill="#A396C4"/>
<path d="M96.9355 104.9L98.2791 104.452L100.015 105.291L98.727 105.739L96.9355 104.9Z" fill="#A396C4"/>
<path d="M94.6396 105.571L96.0952 105.124L97.8307 105.963L96.4311 106.411L94.6396 105.571Z" fill="#A396C4"/>
<path d="M92.3447 106.243L93.9122 105.739L95.6477 106.635L94.0802 107.082L92.3447 106.243Z" fill="#A396C4"/>
<path d="M101.47 105.18L102.702 104.732L104.493 105.515L103.318 105.963L101.47 105.18Z" fill="#A396C4"/>
<path d="M99.1758 105.907L100.519 105.403L102.311 106.243L100.967 106.691L99.1758 105.907Z" fill="#A396C4"/>
<path d="M96.9355 106.579L98.3351 106.075L100.071 106.915L98.671 107.418L96.9355 106.579Z" fill="#A396C4"/>
<path d="M94.6406 107.25L96.1522 106.747L97.8876 107.642L96.3201 108.146L94.6406 107.25Z" fill="#A396C4"/>
<path d="M103.708 106.131L104.94 105.683L106.732 106.467L105.5 106.914L103.708 106.131Z" fill="#A396C4"/>
<path d="M101.414 106.858L102.757 106.411L104.549 107.194L103.205 107.642L101.414 106.858Z" fill="#A396C4"/>
<path d="M99.1738 107.586L100.573 107.082L102.309 107.922L100.909 108.425L99.1738 107.586Z" fill="#A396C4"/>
<path d="M96.8789 108.314L98.3904 107.81L100.126 108.649L98.6144 109.153L96.8789 108.314Z" fill="#A396C4"/>
<path d="M105.949 107.082L107.181 106.635L109.028 107.418L107.741 107.866L105.949 107.082Z" fill="#A396C4"/>
<path d="M103.654 107.81L104.997 107.362L106.789 108.146L105.445 108.649L103.654 107.81Z" fill="#A396C4"/>
<path d="M101.415 108.594L102.815 108.09L104.55 108.929L103.15 109.377L101.415 108.594Z" fill="#A396C4"/>
<path d="M99.1753 109.321L100.631 108.817L102.366 109.657L100.855 110.16L99.1753 109.321Z" fill="#A396C4"/>
<path d="M108.188 108.034L109.42 107.586L111.267 108.369L109.979 108.817L108.188 108.034Z" fill="#A396C4"/>
<path d="M105.949 108.817L107.237 108.37L109.028 109.097L107.685 109.601L105.949 108.817Z" fill="#A396C4"/>
<path d="M103.653 109.601L105.053 109.097L106.844 109.881L105.389 110.384L103.653 109.601Z" fill="#A396C4"/>
<path d="M101.414 110.328L102.87 109.825L104.605 110.664L103.149 111.168L101.414 110.328Z" fill="#A396C4"/>
<path d="M110.427 108.985L111.714 108.538L113.506 109.265L112.218 109.769L110.427 108.985Z" fill="#A396C4"/>
<path d="M108.188 109.769L109.475 109.321L111.267 110.105L109.923 110.608L108.188 109.769Z" fill="#A396C4"/>
<path d="M105.948 110.552L107.291 110.105L109.083 110.888L107.683 111.392L105.948 110.552Z" fill="#A396C4"/>
<path d="M103.653 111.336L105.108 110.888L106.844 111.672L105.388 112.175L103.653 111.336Z" fill="#A396C4"/>
<path d="M112.667 109.937L113.955 109.489L115.746 110.216L114.458 110.72L112.667 109.937Z" fill="#A396C4"/>
<path d="M110.427 110.776L111.771 110.272L113.562 111.056L112.163 111.56L110.427 110.776Z" fill="#A396C4"/>
<path d="M108.188 111.56L109.532 111.112L111.323 111.839L109.923 112.399L108.188 111.56Z" fill="#A396C4"/>
<path d="M105.949 112.399L107.348 111.895L109.084 112.679L107.684 113.183L105.949 112.399Z" fill="#A396C4"/>
<path d="M114.906 110.944L116.193 110.44L118.041 111.168L116.641 111.672L114.906 110.944Z" fill="#A396C4"/>
<path d="M112.667 111.728L114.01 111.28L115.802 112.007L114.402 112.511L112.667 111.728Z" fill="#A396C4"/>
<path d="M110.428 112.567L111.771 112.119L113.563 112.847L112.163 113.35L110.428 112.567Z" fill="#A396C4"/>
<path d="M108.188 113.406L109.588 112.959L111.323 113.686L109.923 114.19L108.188 113.406Z" fill="#A396C4"/>
<path d="M120.672 111.112L120.784 112.063L109.084 116.596L90.2736 107.194L90.1616 106.187L108.916 115.589L120.672 111.112Z" fill="#A396C4"/>
<path d="M128.006 94.1545L128.901 101.094C128.901 101.094 122.407 102.437 117.649 98.7436L120.504 93.0912L128.006 94.1545Z" fill="#897AB4"/>
<path d="M107.068 93.8188L106.676 69.978L143.96 70.9854L142.785 99.5832L107.068 93.8188Z" fill="#897AB4"/>
<path d="M108.58 92.8114L108.188 71.6569L141.497 72.3844L140.49 97.4005L108.58 92.8114Z" fill="#D6CDE4"/>
<path d="M106.676 69.9781L108.02 69.8662L143.96 70.5938H144.856L143.792 99.1356L142.785 99.5833L143.96 70.9855L106.676 69.9781Z" fill="#564394"/>
<path d="M37.4825 141.389H63.5702L66.9851 183.194H28.1895L37.4825 141.389Z" fill="#BCB1D4"/>
<path d="M37.4825 141.389H45.4879L50.3024 183.194H28.1895L37.4825 141.389Z" fill="#D6CDE4"/>
<path d="M93.2411 134.225C96.0402 132.546 100.687 134.673 100.687 137.079C100.687 144.243 94.1368 177.877 93.8009 180.004C93.465 182.131 89.8262 182.69 89.6022 180.004C89.2664 175.751 88.6506 160.976 89.2664 154.148C89.5463 151.35 89.8262 148.664 90.1061 146.257C86.6912 152.414 81.3729 161.256 74.2632 172.785L70.4004 170.994C73.4794 160.92 75.9426 153.869 77.902 149.727C81.2609 142.62 84.3959 136.576 85.6835 134.449C87.7548 131.035 91.3377 132.21 93.2411 134.225Z" fill="#564394"/>
<path d="M70.624 165.397L83.9478 133.833C87.1387 128.685 96.0959 134.897 95.0322 137.863C92.569 144.634 79.973 166.517 79.2452 168.531L70.624 165.397Z" fill="#897AB4"/>
<path d="M69.8956 168.979C69.0559 169.651 68.5521 170.21 68.2722 170.658C67.9922 171.162 67.6004 172.001 67.2085 173.12C67.8243 173.456 73.3105 176.646 83.6672 182.634C84.8988 181.459 85.1228 180.564 84.227 179.892C83.3873 179.221 82.6596 178.717 82.0997 178.269L76.3896 170.434C76.2776 170.266 76.0537 170.266 75.9417 170.378L74.7661 171.274C73.7024 171.162 72.8627 170.994 72.3588 170.658C71.911 170.434 71.4072 169.875 70.8473 169.091C70.6794 168.811 70.2315 168.755 69.8956 168.979C69.9516 168.979 69.8956 168.979 69.8956 168.979Z" fill="#3D2884"/>
<path d="M88.762 178.269C88.3701 179.277 88.2021 180.004 88.2021 180.508C88.2021 181.123 88.3141 182.019 88.4821 183.194C89.2098 183.194 95.5358 183.194 107.516 183.194C108.02 181.571 107.74 180.676 106.676 180.564C105.613 180.452 104.717 180.34 104.045 180.228L95.1999 176.31C95.032 176.254 94.8081 176.31 94.7521 176.478L94.1922 177.877C93.1846 178.325 92.4008 178.549 91.785 178.549C91.2812 178.549 90.6094 178.325 89.7137 177.933C89.3778 177.765 88.9859 177.933 88.762 178.269C88.818 178.269 88.818 178.269 88.762 178.269Z" fill="#3D2884"/>
<path d="M101.638 139.542C101.638 148.496 97.3837 169.427 97.3837 171.385H88.2026C89.5462 152.749 89.994 143.291 89.6022 143.123C89.0423 142.844 65.6418 145.474 58.644 145.474C48.5113 145.474 44.3686 139.094 44.0327 127.286H64.0743C68.161 127.733 89.4342 131.987 97.3277 133.498C100.687 134.057 101.638 137.023 101.638 139.542Z" fill="#A396C4"/>
<path d="M69.3366 78.9884C68.4409 76.7498 68.161 74.2314 69.1127 71.8809C71.9678 65.1093 81.0929 69.9222 81.7647 74.0635C82.4364 78.2049 79.2455 86.9913 76.5583 86.8234C75.4947 86.7675 73.6473 85.4243 71.9678 83.4656L70.1204 93.2593L62.3389 90.629L69.3366 78.9884Z" fill="#564394"/>
<path d="M74.7111 68.2431C79.0777 68.1872 83.6123 71.545 81.8768 74.4552C80.7572 76.358 78.014 76.5818 75.3269 76.8616C75.1589 76.1341 74.6551 75.5185 73.9273 75.2946C72.8077 74.9029 71.6321 75.4625 71.2962 76.5818C71.1842 76.9736 71.1842 77.3653 71.2402 77.7571C70.2325 78.1488 69.3928 78.8204 68.889 79.8278C67.6014 79.3801 66.8736 75.0148 68.721 71.7129C68.5531 71.657 68.3291 71.601 68.1612 71.545C65.4741 70.6496 64.0185 67.7394 64.9702 65.0532C65.9219 62.3669 68.777 60.9118 71.4642 61.8632C74.1513 62.7027 75.5508 65.5568 74.7111 68.2431Z" fill="#3D2884"/>
<path d="M81.037 80.0516C80.8131 80.8911 81.5969 82.2342 81.149 83.0737C80.8691 83.5774 80.0294 83.5214 79.4136 83.4655" fill="#564394"/>
<path d="M80.981 78.4287C80.869 78.2608 80.6451 78.1488 80.4771 78.0369C80.3092 77.925 80.0853 77.869 79.8613 77.869C79.6374 77.869 79.4135 77.869 79.1896 77.925C78.9656 77.9809 78.7417 78.2048 78.7417 78.4287C78.9096 78.2608 79.0776 78.2608 79.2455 78.2048C79.4135 78.2048 79.5814 78.2048 79.8053 78.2608C80.1972 78.3167 80.5331 78.3727 80.981 78.4287Z" fill="#A396C4"/>
<path d="M78.5177 85.3682C78.4057 85.0884 78.2378 84.9205 78.0698 84.7526C77.9019 84.5847 77.7339 84.4728 77.51 84.3049C77.454 84.5848 77.622 84.8646 77.7899 85.0325C78.0138 85.2003 78.2378 85.3682 78.5177 85.3682Z" fill="#A396C4"/>
<path d="M80.4486 79.432C80.528 79.1979 80.4025 78.9437 80.1683 78.8643C79.934 78.7849 79.6798 78.9103 79.6003 79.1445C79.5209 79.3787 79.6464 79.6328 79.8807 79.7122C80.1149 79.7916 80.3692 79.6662 80.4486 79.432Z" fill="#A396C4"/>
<path d="M76.2224 116.149L87.0829 110.832C91.9534 110.888 94.3046 110.608 94.0807 109.937C93.7448 108.929 92.3453 109.265 92.0094 108.594C91.6735 107.922 93.129 106.411 94.5846 104.956C96.0401 103.501 94.9764 103.389 94.3047 103.445C92.0094 104.172 89.5462 105.404 86.915 107.138L73.2554 110.105L76.2224 116.149Z" fill="#564394"/>
<path d="M70.9044 115.253C75.8309 116.876 82.4927 115.197 87.6991 112.399L86.9153 106.579C79.9735 108.593 74.2074 107.866 70.0647 106.691C66.3699 108.649 66.9857 113.966 70.9044 115.253Z" fill="#EA931F"/>
<path d="M94.9765 112.903L100.967 111.56C102.478 108.985 103.766 107.866 104.773 108.146C105.669 108.034 103.262 111.112 104.829 111.224C106.397 111.336 110.763 109.713 111.211 110.44C111.883 111.504 110.372 113.742 109.028 114.694C106.565 116.428 104.829 116.82 100.855 116.764C98.7833 116.764 96.3761 117.212 93.689 118.163L94.9765 112.903Z" fill="#564394"/>
<path d="M74.0945 86.7673L64.6895 84.0251C63.6819 83.7453 52.7094 95.106 50.1342 103.836C47.7829 111.783 38.8818 114.694 39.0497 128.293C45.5436 128.908 61.9464 140.381 67.0408 134.673C69.504 131.875 70.9595 128.517 71.8552 124.767C78.1252 126.446 86.2986 126.614 96.4874 124.599C97.3271 122.417 97.2711 118.275 96.2634 112.231C84.8991 112.847 77.1735 112.007 73.0868 109.657C73.0868 101.71 72.639 93.595 74.0945 86.7673Z" fill="#F9AA38"/>
<path d="M37.875 113.686L49.6872 154.372L55.2295 184.929H60.8277L55.2295 113.686H37.875Z" fill="#A396C4"/>
<path d="M32.5562 113.686C33.396 134.841 33.0601 146.313 32.8921 148.272C32.7242 150.175 31.6605 163.047 24.5508 185.544H30.3729C39.8339 163.942 43.1369 151.07 44.2005 148.272C45.2642 145.418 48.5111 133.889 53.1576 113.686H32.5562Z" fill="#A396C4"/>
<path d="M37.5947 113.686C40.6737 127.677 45.992 150.007 53.5496 180.731H61.723C62.3388 149.224 59.7636 128.517 55.341 113.686H37.5947Z" fill="#564394"/>
<path d="M32.5007 113.686C33.2845 134.841 31.2132 155.603 24.7192 181.011H33.3965C42.8574 159.745 49.6313 139.038 54.2778 113.686H32.5007Z" fill="#705FA4"/>
<path d="M23.7109 189.742L24.0468 184.593C25.8942 185.153 28.2455 184.929 31.1006 183.921C34.1236 186.048 37.9304 187.559 42.5209 188.343C42.8568 188.399 43.0808 188.734 43.0248 189.07V189.126L42.5769 190.693H31.0446H24.3267L23.7109 189.742Z" fill="#3D2884"/>
<path d="M53.998 189.742L54.3339 184.593C56.1814 185.153 58.5326 184.929 61.3877 183.921C64.4107 186.048 68.2175 187.559 72.808 188.343C73.1439 188.399 73.3679 188.734 73.3119 189.07V189.126L72.864 190.693H61.3317H54.6139L53.998 189.742Z" fill="#3D2884"/>
<path d="M42.4095 66.2284C40.898 64.4935 39.9463 62.3669 40.1142 59.9604C40.6181 53.0768 50.191 54.5879 52.0944 58.0576C53.9418 61.5274 53.7179 70.3698 51.3106 70.9854C50.3589 71.2093 48.2876 70.6496 46.2163 69.3624L47.5038 78.6525H39.7783L42.4095 66.2284Z" fill="#A396C4"/>
<path d="M41.8491 67.7955C40.8974 63.4863 38.0983 60.5201 38.5462 58.6173C38.8261 57.3302 39.5539 56.5467 40.7855 56.2109C41.4013 53.6365 43.4726 52.5732 46.8875 52.965C52.0379 53.5246 55.1729 55.6512 53.8293 60.4082C52.5977 60.4082 51.0862 59.9605 48.9589 60.744C48.2871 60.9679 47.8392 61.7514 47.5593 63.0385H46.6076C45.7119 61.5275 44.8162 60.9679 43.9205 61.3596C43.0248 61.7514 42.8568 62.7587 43.3047 64.2697L42.8568 67.8515H41.8491V67.7955Z" fill="#564394"/>
<path d="M53.1577 63.4862C53.3816 63.9339 53.7175 64.2697 53.8854 64.7174C54.0534 65.1092 54.1653 65.6688 54.2213 66.1165C54.2773 66.7322 53.4936 67.5157 52.8218 67.5157" fill="#A396C4"/>
<path d="M52.7655 62.4229C52.5416 62.4229 52.3736 62.4229 52.2057 62.4229C52.0377 62.4229 51.8698 62.4788 51.7018 62.5348C51.3659 62.5907 51.0301 62.7027 50.6382 62.7586C50.8061 62.3669 51.198 62.143 51.5899 62.0311C51.8138 61.9751 52.0377 61.9751 52.2617 62.0311C52.4856 62.0871 52.7095 62.199 52.7655 62.4229Z" fill="#564394"/>
<path d="M52.7657 69.0267C52.5977 69.0827 52.3738 69.0827 52.2058 69.0267C52.0379 68.9708 51.814 68.9148 51.646 68.8029C51.3101 68.635 51.0302 68.4111 50.7503 68.2992L51.0862 68.0753C51.0862 68.1313 51.1422 68.2992 51.1982 68.4111C51.2541 68.579 51.3661 68.6909 51.4781 68.8029C51.702 69.0827 51.9259 69.3625 52.2058 69.5864C52.0379 69.5304 51.814 69.4745 51.646 69.3625C51.4781 69.2506 51.3101 69.1387 51.1422 69.0267C50.9742 68.9148 50.8623 68.7469 50.7503 68.579C50.6383 68.4111 50.5264 68.2432 50.5264 67.9074V67.5717L50.8623 67.6836C51.2541 67.8515 51.5341 68.1313 51.814 68.3552C52.1499 68.691 52.4298 68.9708 52.7657 69.0267Z" fill="#564394"/>
<path d="M52.1502 63.9899C52.3666 63.9899 52.5421 63.8145 52.5421 63.5982C52.5421 63.3818 52.3666 63.2064 52.1502 63.2064C51.9338 63.2064 51.7583 63.3818 51.7583 63.5982C51.7583 63.8145 51.9338 63.9899 52.1502 63.9899Z" fill="#564394"/>
<path d="M67.4332 103.221L76.5583 112.119C79.1894 113.238 81.3727 114.526 83.1082 115.869C83.5001 116.317 83.8919 117.212 82.1005 116.82C80.3091 116.428 78.4057 116.093 78.0698 116.652C77.7339 117.212 78.7416 118.107 78.1258 118.891C77.7339 119.395 76.3343 117.772 73.9271 114.022L64.4102 108.426L67.4332 103.221ZM22.8154 95.162H29.8692C24.4949 112.567 21.6398 121.689 21.3039 122.529C20.5762 124.375 22.1436 127.174 22.8154 128.685C20.6321 129.692 20.8561 125.998 18.057 127.341C15.5378 128.517 13.5784 130.643 10.6673 128.853C10.3314 128.629 9.93955 127.789 10.8912 127.118C13.2425 125.495 16.6574 122.64 17.1613 121.689C17.7771 120.458 19.6245 111.616 22.8154 95.162Z" fill="#A396C4"/>
<path d="M44.3125 75.1828L47.1116 74.6791C51.4782 90.1812 74.039 100.758 75.4385 106.579C75.9424 108.705 74.4309 109.769 75.2146 110.44L71.5758 113.071C70.96 112.343 69.6724 113.686 66.9293 112.735C64.1862 111.839 44.3125 93.5391 44.3125 75.1828Z" fill="#705FA4"/>
<path d="M48.9593 77.2534C48.6235 97.7923 60.4917 103.053 57.8605 111.28C55.6772 118.107 34.7399 125.383 31.157 118.723C29.7015 116.037 29.0297 112.735 28.9737 109.209C28.022 111.951 27.2943 114.302 26.7904 116.261C25.8387 119.674 22.2559 120.178 22.2559 121.521L17.4974 120.234C17.8333 118.443 15.594 117.604 16.2098 113.63C18.897 95.8335 26.1187 82.9617 37.8749 74.9588L37.9868 73.2239C38.0428 72.4964 38.6586 71.9927 39.3864 72.0487L48.0636 72.6643C48.7914 72.7202 49.2952 73.3359 49.2393 74.0634L48.9593 77.2534Z" fill="#A396C4"/>
<path d="M72.3101 20.4478C72.3101 27.1663 68.134 33.0945 61.7241 36.849C60.2673 37.7382 61.2385 42.876 60.9471 43.7652C60.6557 44.6544 55.2171 39.6155 54.343 39.8131C51.8179 40.4059 49.1956 40.8011 46.3791 40.8011C32.0054 40.8011 20.3511 31.7113 20.3511 20.5466C20.3511 9.38185 32.0054 0.291992 46.3791 0.291992C60.7529 0.291992 72.3101 9.28304 72.3101 20.4478Z" fill="#D6CDE4"/>
<path d="M81.5288 36.8398C81.5288 43.8988 86.7424 50.29 94.7102 54.1056C96.5792 54.9641 95.3004 60.4014 95.6939 61.3553C96.0874 62.3092 102.776 56.9673 103.858 57.2535C107.006 57.9212 110.252 58.3028 113.794 58.3028C131.598 58.3028 146.059 48.6683 146.059 36.8398C146.059 25.0113 131.598 15.3768 113.794 15.3768C95.989 15.3768 81.5288 25.0113 81.5288 36.8398Z" fill="#D6CDE4"/>
<path d="M153.924 85.6546C154.48 85.6546 181.502 83.2006 181.828 83.6607C182.173 84.1017 186.546 102.142 186.546 102.142L159.198 107.817L153.924 85.6546Z" fill="#BCB1D4"/>
<path d="M155.381 86.7665C155.42 86.4406 180.025 84.6575 180.485 84.7725C180.946 84.8876 182.672 90.946 182.729 91.3294C182.787 91.7129 185.203 100.628 185.031 100.896C184.858 101.184 160.675 106.073 160.387 105.842C160.118 105.632 155.324 87.1499 155.381 86.7665Z" fill="#D6CDE4"/>
<path d="M153.925 85.6547L153.426 86.3832C153.426 86.3832 158.432 108.201 158.489 108.354C158.547 108.508 159.218 107.798 159.218 107.798L153.925 85.6547Z" fill="#3D2884"/>
<path d="M186.566 102.123C186.566 102.123 204.114 106.073 204.056 106.188C203.998 106.303 176.267 114.93 176.094 114.93C175.922 114.93 159.218 107.798 159.218 107.798L186.566 102.123Z" fill="#897AB4"/>
<path d="M159.217 108.91C159.217 108.91 175.653 116.042 175.826 115.985C175.998 115.927 176.113 114.93 176.113 114.93L159.237 107.798V108.91H159.217Z" fill="#3D2884"/>
<path d="M204.056 106.188C204.056 106.188 202.925 107.798 202.656 107.856C202.368 107.913 175.807 115.985 175.807 115.985L176.095 114.93L204.056 106.188Z" fill="#3D2884"/>
<path d="M166.582 107.357C166.371 107.491 166.102 107.549 165.911 107.683C165.776 107.779 165.585 108.028 165.661 108.143C165.719 108.22 166.026 108.297 166.102 108.335C166.333 108.45 166.544 108.584 166.716 108.757C166.889 108.929 166.908 108.853 167.138 108.91C167.272 108.949 167.426 108.91 167.56 108.872C167.924 108.757 168.27 108.565 168.557 108.335C168.576 108.316 168.615 108.277 168.615 108.258C168.615 108.22 168.596 108.182 168.576 108.143C168.25 107.741 167.483 107.472 166.965 107.395C166.735 107.338 166.812 107.357 166.582 107.357Z" fill="#3D2884"/>
<path d="M168.748 106.878C168.557 106.993 168.288 107.069 168.116 107.184C168.077 107.223 168.02 107.261 167.981 107.319C167.885 107.434 167.866 107.568 167.924 107.664C167.981 107.74 168.269 107.798 168.346 107.836C168.576 107.951 168.748 108.066 168.94 108.239C169.094 108.392 169.132 108.335 169.343 108.392C169.477 108.411 169.611 108.392 169.746 108.335C170.014 108.239 170.264 108.105 170.494 107.951C170.57 107.913 170.647 107.856 170.705 107.798C170.724 107.779 170.762 107.76 170.762 107.721C170.762 107.683 170.743 107.645 170.724 107.606C170.685 107.549 170.647 107.51 170.59 107.472C170.225 107.165 169.611 106.935 169.151 106.878C168.902 106.859 168.959 106.878 168.748 106.878Z" fill="#3D2884"/>
<path d="M170.916 106.399C170.743 106.494 170.475 106.571 170.302 106.686C170.264 106.724 170.187 106.763 170.149 106.82C170.053 106.935 170.072 107.089 170.149 107.165C170.206 107.242 170.475 107.3 170.551 107.338C170.762 107.453 170.935 107.568 171.108 107.721C171.261 107.856 171.299 107.817 171.491 107.856C171.625 107.875 171.76 107.856 171.875 107.798C172.124 107.702 172.354 107.568 172.584 107.434C172.661 107.396 172.719 107.338 172.795 107.3C172.815 107.28 172.853 107.261 172.853 107.223C172.872 107.185 172.853 107.146 172.814 107.108C172.776 107.05 172.738 107.012 172.68 106.974C172.335 106.667 171.721 106.437 171.28 106.399C171.069 106.36 171.108 106.379 170.916 106.399Z" fill="#3D2884"/>
<path d="M173.083 105.919C172.929 106.015 172.661 106.073 172.507 106.188C172.469 106.226 172.392 106.264 172.354 106.322C172.258 106.456 172.335 106.59 172.412 106.667C172.469 106.725 172.699 106.801 172.795 106.839C172.987 106.935 173.159 107.05 173.313 107.204C173.447 107.338 173.485 107.3 173.677 107.338C173.792 107.357 173.927 107.319 174.042 107.28C174.272 107.185 174.483 107.05 174.713 106.916C174.77 106.878 174.847 106.839 174.924 106.801C174.943 106.782 174.981 106.763 174.981 106.744C175 106.705 174.981 106.667 174.962 106.648C174.943 106.59 174.885 106.552 174.847 106.514C174.502 106.207 173.907 105.996 173.466 105.958C173.236 105.881 173.255 105.9 173.083 105.919Z" fill="#3D2884"/>
<path d="M175.231 105.421C175.096 105.497 174.809 105.555 174.694 105.651C174.636 105.689 174.559 105.727 174.521 105.785C174.425 105.919 174.559 106.053 174.636 106.13C174.694 106.188 174.905 106.264 174.981 106.303C175.154 106.399 175.327 106.514 175.48 106.648C175.614 106.763 175.653 106.763 175.825 106.782C175.94 106.801 176.055 106.763 176.17 106.705C176.381 106.609 176.592 106.456 176.803 106.341C176.861 106.303 176.938 106.283 176.995 106.226C177.014 106.207 177.053 106.188 177.053 106.168C177.072 106.13 177.053 106.111 177.033 106.072C177.014 106.015 176.976 105.977 176.918 105.938C176.592 105.651 176.017 105.421 175.576 105.382C175.403 105.401 175.403 105.421 175.231 105.421Z" fill="#3D2884"/>
<path d="M177.397 104.941C177.263 104.999 176.994 105.076 176.898 105.152C176.841 105.191 176.764 105.21 176.726 105.287C176.63 105.421 176.803 105.555 176.879 105.632C176.937 105.689 177.129 105.747 177.205 105.804C177.378 105.9 177.531 105.996 177.666 106.13C177.781 106.245 177.838 106.245 177.992 106.264C178.107 106.283 178.203 106.245 178.318 106.188C178.509 106.073 178.701 105.938 178.912 105.842C178.97 105.823 179.046 105.785 179.104 105.747C179.123 105.727 179.142 105.708 179.161 105.689C179.181 105.651 179.161 105.632 179.161 105.593C179.142 105.536 179.104 105.497 179.046 105.459C178.72 105.172 178.164 104.941 177.723 104.922C177.589 104.903 177.55 104.922 177.397 104.941Z" fill="#3D2884"/>
<path d="M179.565 104.462C179.45 104.52 179.181 104.577 179.085 104.654C179.028 104.692 178.932 104.711 178.894 104.788C178.798 104.941 179.028 105.076 179.105 105.133C179.181 105.191 179.335 105.248 179.411 105.287C179.565 105.382 179.718 105.478 179.853 105.593C179.968 105.689 180.025 105.708 180.159 105.728C180.255 105.747 180.37 105.708 180.466 105.651C180.658 105.536 180.811 105.402 181.022 105.306C181.08 105.287 181.157 105.267 181.214 105.229C181.233 105.21 181.253 105.191 181.272 105.172C181.291 105.152 181.291 105.114 181.272 105.076C181.253 105.018 181.214 104.98 181.176 104.942C180.85 104.654 180.332 104.424 179.891 104.424C179.757 104.424 179.699 104.443 179.565 104.462Z" fill="#3D2884"/>
<path d="M181.731 103.983C181.636 104.021 181.367 104.079 181.29 104.136C181.233 104.175 181.137 104.194 181.079 104.27C180.983 104.424 181.271 104.558 181.348 104.616C181.425 104.673 181.559 104.731 181.636 104.769C181.77 104.865 181.904 104.941 182.038 105.056C182.153 105.152 182.211 105.172 182.326 105.191C182.422 105.21 182.518 105.171 182.614 105.114C182.786 104.999 182.94 104.846 183.131 104.769C183.189 104.75 183.247 104.731 183.323 104.692C183.342 104.673 183.362 104.673 183.381 104.654C183.4 104.635 183.4 104.596 183.4 104.577C183.4 104.52 183.342 104.481 183.304 104.443C182.997 104.175 182.479 103.925 182.038 103.925C181.923 103.925 181.847 103.945 181.731 103.983Z" fill="#3D2884"/>
<path d="M183.9 103.504C183.823 103.523 183.554 103.599 183.497 103.638C183.439 103.676 183.324 103.695 183.286 103.772C183.19 103.925 183.516 104.06 183.612 104.117C183.689 104.175 183.785 104.213 183.861 104.27C183.996 104.347 184.111 104.443 184.226 104.539C184.322 104.615 184.398 104.654 184.513 104.673C184.609 104.692 184.686 104.654 184.782 104.577C184.935 104.462 185.07 104.309 185.261 104.251C185.319 104.232 185.376 104.232 185.434 104.194C185.453 104.175 185.472 104.175 185.492 104.155C185.511 104.136 185.511 104.117 185.511 104.079C185.511 104.021 185.472 103.983 185.415 103.944C185.108 103.676 184.609 103.427 184.187 103.446C184.092 103.446 183.996 103.465 183.9 103.504Z" fill="#3D2884"/>
<path d="M186.047 103.024C185.99 103.043 185.721 103.101 185.683 103.139C185.625 103.178 185.491 103.197 185.453 103.273C185.376 103.446 185.741 103.561 185.836 103.619C186.028 103.734 186.22 103.868 186.412 104.002C186.584 104.136 186.738 104.194 186.93 104.04C187.064 103.925 187.198 103.753 187.371 103.714C187.467 103.695 187.62 103.695 187.639 103.561C187.639 103.503 187.601 103.465 187.562 103.427C187.198 103.101 186.546 102.794 186.047 103.024Z" fill="#3D2884"/>
<path d="M169.458 108.45C169.247 108.584 168.979 108.642 168.787 108.776C168.653 108.872 168.461 109.121 168.538 109.236C168.595 109.313 168.902 109.389 168.979 109.428C169.209 109.543 169.42 109.677 169.593 109.85C169.765 110.022 169.784 109.946 170.015 110.003C170.149 110.041 170.302 110.003 170.436 109.965C170.801 109.85 171.146 109.658 171.434 109.428C171.453 109.409 171.491 109.37 171.491 109.351C171.491 109.313 171.472 109.274 171.453 109.236C171.127 108.834 170.36 108.565 169.842 108.488C169.612 108.431 169.688 108.45 169.458 108.45Z" fill="#3D2884"/>
<path d="M171.606 107.932C171.414 108.047 171.146 108.124 170.973 108.239C170.935 108.277 170.877 108.316 170.839 108.373C170.743 108.488 170.724 108.622 170.781 108.718C170.839 108.795 171.126 108.852 171.203 108.891C171.433 109.006 171.606 109.121 171.798 109.293C171.951 109.447 171.99 109.389 172.2 109.447C172.335 109.466 172.469 109.447 172.603 109.389C172.872 109.293 173.121 109.159 173.351 109.006C173.428 108.967 173.505 108.91 173.562 108.852C173.581 108.833 173.62 108.814 173.62 108.776C173.62 108.737 173.6 108.699 173.581 108.661C173.543 108.603 173.505 108.565 173.447 108.527C173.083 108.22 172.469 107.99 172.009 107.932C171.759 107.913 171.817 107.932 171.606 107.932Z" fill="#3D2884"/>
<path d="M173.754 107.415C173.581 107.51 173.313 107.587 173.14 107.702C173.102 107.74 173.025 107.779 172.987 107.836C172.891 107.951 172.91 108.105 172.987 108.181C173.044 108.258 173.313 108.316 173.389 108.354C173.6 108.469 173.773 108.584 173.946 108.737C174.099 108.872 174.137 108.833 174.329 108.872C174.463 108.891 174.598 108.872 174.713 108.814C174.962 108.718 175.192 108.584 175.422 108.45C175.499 108.412 175.557 108.354 175.633 108.316C175.652 108.296 175.691 108.277 175.691 108.239C175.71 108.201 175.691 108.162 175.672 108.124C175.633 108.066 175.595 108.028 175.537 107.99C175.192 107.683 174.578 107.453 174.137 107.415C173.926 107.395 173.965 107.415 173.754 107.415Z" fill="#3D2884"/>
<path d="M175.922 106.897C175.768 106.993 175.5 107.05 175.346 107.165C175.308 107.204 175.231 107.242 175.193 107.3C175.097 107.434 175.174 107.568 175.25 107.645C175.308 107.702 175.538 107.779 175.634 107.817C175.826 107.913 175.998 108.028 176.152 108.182C176.286 108.316 176.324 108.277 176.516 108.316C176.631 108.335 176.765 108.297 176.88 108.258C177.111 108.162 177.322 108.028 177.552 107.894C177.609 107.856 177.686 107.817 177.763 107.779C177.782 107.76 177.82 107.741 177.82 107.721C177.839 107.683 177.82 107.645 177.801 107.626C177.782 107.568 177.724 107.53 177.686 107.491C177.341 107.185 176.746 106.974 176.305 106.935C176.075 106.859 176.094 106.878 175.922 106.897Z" fill="#3D2884"/>
<path d="M178.069 106.379C177.934 106.456 177.647 106.514 177.532 106.609C177.474 106.648 177.397 106.686 177.359 106.744C177.263 106.878 177.397 107.012 177.474 107.089C177.532 107.146 177.743 107.223 177.819 107.261C177.992 107.357 178.165 107.472 178.318 107.606C178.452 107.721 178.491 107.721 178.663 107.741C178.778 107.76 178.893 107.721 179.008 107.664C179.219 107.568 179.43 107.415 179.641 107.3C179.699 107.261 179.775 107.242 179.833 107.184C179.852 107.165 179.89 107.146 179.89 107.127C179.91 107.089 179.891 107.069 179.871 107.031C179.852 106.974 179.814 106.935 179.756 106.897C179.43 106.609 178.855 106.379 178.414 106.341C178.241 106.341 178.241 106.36 178.069 106.379Z" fill="#3D2884"/>
<path d="M180.217 105.862C180.083 105.919 179.814 105.996 179.718 106.073C179.661 106.111 179.584 106.13 179.546 106.207C179.45 106.341 179.622 106.475 179.699 106.552C179.757 106.609 179.948 106.667 180.025 106.724C180.198 106.82 180.351 106.916 180.485 107.05C180.6 107.165 180.658 107.165 180.811 107.185C180.926 107.204 181.022 107.165 181.137 107.108C181.329 106.993 181.521 106.859 181.732 106.763C181.789 106.744 181.866 106.705 181.924 106.667C181.943 106.648 181.962 106.629 181.981 106.609C182 106.571 181.981 106.552 181.981 106.514C181.962 106.456 181.924 106.418 181.866 106.379C181.54 106.092 180.984 105.862 180.543 105.843C180.389 105.823 180.37 105.843 180.217 105.862Z" fill="#3D2884"/>
<path d="M182.366 105.344C182.251 105.402 181.982 105.459 181.886 105.536C181.829 105.574 181.733 105.593 181.694 105.67C181.598 105.823 181.829 105.958 181.905 106.015C181.982 106.073 182.135 106.13 182.212 106.168C182.366 106.264 182.519 106.36 182.653 106.475C182.768 106.571 182.826 106.59 182.96 106.609C183.056 106.629 183.171 106.59 183.267 106.533C183.459 106.418 183.612 106.284 183.823 106.188C183.881 106.168 183.957 106.149 184.015 106.111C184.034 106.092 184.053 106.073 184.073 106.053C184.092 106.034 184.092 105.996 184.073 105.957C184.053 105.9 184.015 105.862 183.977 105.823C183.651 105.536 183.133 105.306 182.692 105.306C182.557 105.306 182.519 105.325 182.366 105.344Z" fill="#3D2884"/>
<path d="M184.532 104.826C184.436 104.865 184.168 104.922 184.091 104.98C184.033 105.018 183.938 105.037 183.88 105.114C183.784 105.267 184.072 105.402 184.149 105.459C184.225 105.517 184.36 105.574 184.436 105.612C184.57 105.708 184.705 105.785 184.839 105.9C184.954 105.996 185.012 106.015 185.127 106.034C185.223 106.053 185.318 106.015 185.414 105.958C185.587 105.843 185.74 105.689 185.932 105.612C185.99 105.593 186.066 105.574 186.124 105.536C186.143 105.517 186.162 105.517 186.181 105.497C186.201 105.478 186.201 105.44 186.201 105.421C186.201 105.363 186.143 105.325 186.105 105.287C185.798 105.018 185.28 104.769 184.839 104.769C184.724 104.769 184.647 104.788 184.532 104.826Z" fill="#3D2884"/>
<path d="M186.68 104.309C186.603 104.328 186.335 104.405 186.277 104.443C186.22 104.481 186.105 104.5 186.066 104.577C185.971 104.731 186.297 104.865 186.392 104.922C186.469 104.98 186.565 105.018 186.642 105.076C186.776 105.152 186.891 105.248 187.006 105.344C187.102 105.421 187.179 105.459 187.294 105.478C187.39 105.497 187.466 105.459 187.562 105.382C187.716 105.267 187.85 105.114 188.042 105.056C188.099 105.037 188.157 105.037 188.214 104.999C188.234 104.98 188.253 104.98 188.272 104.961C188.291 104.941 188.291 104.922 188.291 104.884C188.291 104.826 188.253 104.788 188.195 104.75C187.888 104.481 187.39 104.232 186.968 104.251C186.872 104.251 186.795 104.27 186.68 104.309Z" fill="#3D2884"/>
<path d="M188.828 103.791C188.771 103.81 188.502 103.868 188.464 103.906C188.406 103.945 188.272 103.964 188.234 104.04C188.157 104.213 188.521 104.328 188.617 104.386C188.809 104.501 189.001 104.635 189.193 104.769C189.365 104.903 189.518 104.961 189.71 104.807C189.844 104.692 189.979 104.52 190.151 104.481C190.247 104.462 190.401 104.462 190.42 104.328C190.42 104.27 190.381 104.232 190.343 104.194C189.979 103.887 189.327 103.561 188.828 103.791Z" fill="#3D2884"/>
<path d="M172.335 109.543C172.124 109.677 171.856 109.734 171.664 109.869C171.53 109.964 171.338 110.214 171.415 110.329C171.472 110.405 171.779 110.482 171.856 110.52C172.086 110.635 172.297 110.77 172.47 110.942C172.642 111.115 172.661 111.038 172.892 111.096C173.026 111.134 173.179 111.095 173.313 111.057C173.678 110.942 174.023 110.75 174.311 110.52C174.33 110.501 174.368 110.463 174.368 110.444C174.368 110.405 174.349 110.367 174.33 110.329C174.004 109.926 173.237 109.658 172.719 109.581C172.47 109.523 172.546 109.543 172.335 109.543Z" fill="#3D2884"/>
<path d="M174.464 108.987C174.273 109.102 174.004 109.178 173.831 109.293C173.793 109.332 173.736 109.37 173.697 109.427C173.601 109.543 173.582 109.677 173.64 109.773C173.697 109.849 173.985 109.907 174.062 109.945C174.292 110.06 174.464 110.175 174.656 110.348C174.81 110.501 174.848 110.444 175.059 110.501C175.193 110.52 175.327 110.501 175.462 110.444C175.73 110.348 175.979 110.214 176.21 110.06C176.286 110.022 176.363 109.964 176.42 109.907C176.44 109.888 176.478 109.868 176.478 109.83C176.478 109.792 176.459 109.753 176.44 109.715C176.401 109.658 176.363 109.619 176.305 109.581C175.941 109.274 175.327 109.044 174.867 108.987C174.618 108.967 174.675 108.987 174.464 108.987Z" fill="#3D2884"/>
<path d="M176.612 108.431C176.439 108.527 176.171 108.603 175.998 108.718C175.96 108.757 175.883 108.795 175.845 108.852C175.749 108.967 175.768 109.121 175.845 109.197C175.902 109.274 176.171 109.332 176.247 109.37C176.458 109.485 176.631 109.6 176.803 109.754C176.957 109.888 176.995 109.849 177.187 109.888C177.321 109.907 177.456 109.888 177.571 109.83C177.82 109.734 178.05 109.6 178.28 109.466C178.357 109.428 178.414 109.37 178.491 109.332C178.51 109.313 178.549 109.293 178.549 109.255C178.568 109.217 178.549 109.178 178.53 109.14C178.491 109.082 178.453 109.044 178.395 109.006C178.05 108.699 177.436 108.469 176.995 108.431C176.765 108.411 176.803 108.431 176.612 108.431Z" fill="#3D2884"/>
<path d="M178.759 107.875C178.606 107.97 178.338 108.028 178.184 108.143C178.146 108.181 178.069 108.22 178.031 108.277C177.935 108.411 178.011 108.546 178.088 108.622C178.146 108.68 178.376 108.757 178.472 108.795C178.664 108.891 178.836 109.006 178.99 109.159C179.124 109.293 179.162 109.255 179.354 109.293C179.469 109.313 179.603 109.274 179.718 109.236C179.949 109.14 180.159 109.006 180.39 108.872C180.447 108.833 180.524 108.795 180.6 108.757C180.62 108.737 180.658 108.718 180.658 108.699C180.677 108.661 180.658 108.622 180.639 108.603C180.62 108.546 180.562 108.507 180.524 108.469C180.179 108.162 179.584 107.951 179.143 107.913C178.913 107.856 178.932 107.875 178.759 107.875Z" fill="#3D2884"/>
<path d="M180.888 107.338C180.754 107.415 180.467 107.472 180.351 107.568C180.294 107.606 180.217 107.645 180.179 107.702C180.083 107.836 180.217 107.971 180.294 108.047C180.351 108.105 180.562 108.182 180.639 108.22C180.812 108.316 180.984 108.431 181.138 108.565C181.272 108.68 181.31 108.68 181.483 108.699C181.598 108.718 181.713 108.68 181.828 108.622C182.039 108.527 182.25 108.373 182.461 108.258C182.519 108.22 182.595 108.201 182.653 108.143C182.672 108.124 182.71 108.105 182.71 108.086C182.729 108.047 182.71 108.028 182.691 107.99C182.672 107.932 182.634 107.894 182.576 107.856C182.25 107.568 181.675 107.338 181.234 107.3C181.061 107.3 181.061 107.319 180.888 107.338Z" fill="#3D2884"/>
<path d="M183.036 106.782C182.902 106.84 182.633 106.916 182.538 106.993C182.48 107.031 182.403 107.05 182.365 107.127C182.269 107.261 182.442 107.395 182.518 107.472C182.576 107.53 182.768 107.587 182.844 107.645C183.017 107.741 183.17 107.836 183.305 107.971C183.42 108.086 183.477 108.086 183.631 108.105C183.746 108.124 183.842 108.086 183.957 108.028C184.148 107.913 184.34 107.779 184.551 107.683C184.609 107.664 184.686 107.626 184.743 107.587C184.762 107.568 184.781 107.549 184.801 107.53C184.82 107.491 184.801 107.472 184.801 107.434C184.781 107.376 184.743 107.338 184.685 107.3C184.359 107.012 183.803 106.782 183.362 106.763C183.209 106.744 183.19 106.763 183.036 106.782Z" fill="#3D2884"/>
<path d="M185.184 106.226C185.068 106.283 184.8 106.341 184.704 106.418C184.647 106.456 184.551 106.475 184.512 106.552C184.416 106.705 184.647 106.839 184.723 106.897C184.8 106.954 184.954 107.012 185.03 107.05C185.184 107.146 185.337 107.242 185.471 107.357C185.586 107.453 185.644 107.472 185.778 107.491C185.874 107.51 185.989 107.472 186.085 107.414C186.277 107.299 186.43 107.165 186.641 107.069C186.699 107.05 186.775 107.031 186.833 106.993C186.852 106.974 186.871 106.954 186.89 106.935C186.91 106.916 186.91 106.878 186.89 106.839C186.871 106.782 186.833 106.743 186.795 106.705C186.469 106.417 185.951 106.188 185.51 106.188C185.356 106.187 185.318 106.207 185.184 106.226Z" fill="#3D2884"/>
<path d="M187.332 105.67C187.236 105.708 186.968 105.766 186.891 105.823C186.833 105.862 186.738 105.881 186.68 105.958C186.584 106.111 186.872 106.245 186.949 106.303C187.025 106.36 187.159 106.418 187.236 106.456C187.37 106.552 187.505 106.629 187.639 106.744C187.754 106.839 187.811 106.859 187.927 106.878C188.022 106.897 188.118 106.859 188.214 106.801C188.387 106.686 188.54 106.533 188.732 106.456C188.79 106.437 188.866 106.418 188.924 106.379C188.943 106.36 188.962 106.36 188.981 106.341C189.001 106.322 189 106.283 189 106.264C189 106.207 188.943 106.168 188.905 106.13C188.598 105.862 188.08 105.612 187.639 105.612C187.505 105.632 187.447 105.651 187.332 105.67Z" fill="#3D2884"/>
<path d="M189.461 105.133C189.384 105.152 189.116 105.229 189.058 105.267C189.001 105.306 188.886 105.325 188.847 105.401C188.751 105.555 189.077 105.689 189.173 105.747C189.25 105.804 189.346 105.842 189.423 105.9C189.557 105.977 189.672 106.072 189.787 106.168C189.883 106.245 189.96 106.283 190.056 106.303C190.151 106.322 190.228 106.283 190.324 106.207C190.477 106.092 190.612 105.938 190.803 105.881C190.861 105.862 190.919 105.862 190.976 105.823C190.995 105.804 191.014 105.804 191.034 105.785C191.053 105.766 191.053 105.747 191.053 105.708C191.053 105.651 191.014 105.612 190.957 105.574C190.65 105.306 190.151 105.056 189.729 105.076C189.653 105.056 189.576 105.095 189.461 105.133Z" fill="#3D2884"/>
<path d="M191.609 104.577C191.551 104.596 191.283 104.654 191.245 104.692C191.187 104.73 191.053 104.75 191.014 104.826C190.938 104.999 191.302 105.114 191.398 105.171C191.59 105.286 191.782 105.421 191.973 105.555C192.146 105.689 192.299 105.746 192.491 105.593C192.625 105.478 192.76 105.306 192.932 105.267C193.028 105.248 193.182 105.248 193.201 105.114C193.201 105.056 193.162 105.018 193.124 104.98C192.74 104.673 192.088 104.347 191.609 104.577Z" fill="#3D2884"/>
<path d="M175.192 110.616C174.981 110.751 174.713 110.808 174.521 110.942C174.387 111.038 174.195 111.287 174.272 111.402C174.329 111.479 174.636 111.556 174.713 111.594C174.943 111.709 175.154 111.843 175.326 112.016C175.499 112.188 175.518 112.112 175.748 112.169C175.883 112.208 176.036 112.169 176.17 112.131C176.535 112.016 176.88 111.824 177.168 111.594C177.187 111.575 177.225 111.537 177.225 111.517C177.225 111.479 177.206 111.441 177.187 111.402C176.861 111 176.094 110.731 175.576 110.655C175.346 110.597 175.422 110.616 175.192 110.616Z" fill="#3D2884"/>
<path d="M177.321 110.041C177.129 110.156 176.861 110.233 176.688 110.348C176.65 110.386 176.592 110.425 176.554 110.482C176.458 110.597 176.439 110.731 176.496 110.827C176.554 110.904 176.841 110.961 176.918 111C177.148 111.115 177.321 111.23 177.513 111.402C177.666 111.556 177.704 111.498 177.915 111.556C178.05 111.575 178.184 111.556 178.318 111.498C178.587 111.402 178.836 111.268 179.066 111.115C179.143 111.076 179.219 111.019 179.277 110.961C179.296 110.942 179.334 110.923 179.334 110.885C179.334 110.846 179.315 110.808 179.296 110.77C179.258 110.712 179.219 110.674 179.162 110.635C178.797 110.329 178.184 110.099 177.723 110.041C177.493 110.022 177.551 110.041 177.321 110.041Z" fill="#3D2884"/>
<path d="M179.469 109.447C179.297 109.543 179.028 109.619 178.855 109.734C178.817 109.773 178.74 109.811 178.702 109.869C178.606 109.984 178.625 110.137 178.702 110.214C178.759 110.29 179.028 110.348 179.105 110.386C179.316 110.501 179.488 110.616 179.661 110.77C179.814 110.904 179.853 110.865 180.044 110.904C180.179 110.923 180.313 110.904 180.428 110.846C180.677 110.75 180.907 110.616 181.138 110.482C181.214 110.444 181.272 110.386 181.349 110.348C181.368 110.329 181.406 110.309 181.406 110.271C181.425 110.233 181.406 110.194 181.387 110.156C181.349 110.099 181.31 110.06 181.253 110.022C180.907 109.715 180.294 109.485 179.853 109.447C179.623 109.428 179.661 109.447 179.469 109.447Z" fill="#3D2884"/>
<path d="M181.597 108.872C181.444 108.968 181.175 109.025 181.022 109.14C180.984 109.179 180.907 109.217 180.869 109.274C180.773 109.409 180.849 109.543 180.926 109.619C180.984 109.677 181.214 109.754 181.31 109.792C181.502 109.888 181.674 110.003 181.827 110.156C181.962 110.29 182 110.252 182.192 110.29C182.307 110.31 182.441 110.271 182.556 110.233C182.786 110.137 182.997 110.003 183.228 109.869C183.285 109.83 183.362 109.792 183.438 109.754C183.458 109.735 183.496 109.715 183.496 109.696C183.515 109.658 183.496 109.619 183.477 109.6C183.458 109.543 183.4 109.504 183.362 109.466C183.016 109.159 182.422 108.948 181.981 108.91C181.77 108.833 181.77 108.853 181.597 108.872Z" fill="#3D2884"/>
<path d="M183.726 108.277C183.592 108.354 183.304 108.412 183.189 108.507C183.132 108.546 183.055 108.584 183.017 108.642C182.921 108.776 183.055 108.91 183.132 108.987C183.189 109.044 183.4 109.121 183.477 109.159C183.65 109.255 183.822 109.37 183.976 109.504C184.11 109.619 184.148 109.619 184.321 109.639C184.436 109.658 184.551 109.619 184.666 109.562C184.877 109.466 185.088 109.313 185.299 109.198C185.356 109.159 185.433 109.14 185.491 109.083C185.51 109.063 185.548 109.044 185.548 109.025C185.567 108.987 185.548 108.968 185.529 108.929C185.51 108.872 185.471 108.833 185.414 108.795C185.088 108.507 184.513 108.277 184.072 108.239C183.899 108.239 183.899 108.258 183.726 108.277Z" fill="#3D2884"/>
<path d="M185.855 107.702C185.721 107.76 185.452 107.836 185.356 107.913C185.299 107.951 185.222 107.971 185.184 108.047C185.088 108.182 185.261 108.316 185.337 108.392C185.395 108.45 185.587 108.507 185.663 108.565C185.836 108.661 185.989 108.757 186.123 108.891C186.239 109.006 186.296 109.006 186.45 109.025C186.565 109.044 186.661 109.006 186.776 108.948C186.967 108.833 187.159 108.699 187.37 108.603C187.428 108.584 187.504 108.546 187.562 108.507C187.581 108.488 187.6 108.469 187.619 108.45C187.639 108.412 187.619 108.392 187.619 108.354C187.6 108.296 187.562 108.258 187.504 108.22C187.178 107.932 186.622 107.702 186.181 107.683C186.028 107.645 186.009 107.683 185.855 107.702Z" fill="#3D2884"/>
<path d="M187.984 107.108C187.869 107.165 187.601 107.223 187.505 107.3C187.447 107.338 187.351 107.357 187.313 107.434C187.217 107.587 187.447 107.721 187.524 107.779C187.601 107.836 187.754 107.894 187.831 107.932C187.984 108.028 188.138 108.124 188.272 108.239C188.387 108.335 188.445 108.354 188.579 108.373C188.675 108.392 188.79 108.354 188.886 108.297C189.077 108.182 189.231 108.047 189.442 107.952C189.499 107.932 189.576 107.913 189.634 107.875C189.653 107.856 189.672 107.836 189.691 107.817C189.71 107.798 189.71 107.76 189.691 107.721C189.672 107.664 189.634 107.626 189.595 107.587C189.269 107.3 188.751 107.07 188.31 107.07C188.176 107.07 188.138 107.089 187.984 107.108Z" fill="#3D2884"/>
<path d="M190.132 106.533C190.036 106.571 189.768 106.629 189.691 106.686C189.634 106.724 189.538 106.744 189.48 106.82C189.384 106.974 189.672 107.108 189.749 107.165C189.825 107.223 189.96 107.28 190.036 107.319C190.171 107.415 190.305 107.491 190.439 107.606C190.554 107.702 190.612 107.721 190.727 107.741C190.823 107.76 190.919 107.721 191.015 107.664C191.187 107.549 191.34 107.395 191.532 107.319C191.59 107.3 191.647 107.28 191.724 107.242C191.743 107.223 191.762 107.223 191.782 107.204C191.801 107.185 191.801 107.146 191.801 107.127C191.801 107.07 191.743 107.031 191.705 106.993C191.398 106.724 190.88 106.475 190.439 106.475C190.305 106.475 190.247 106.494 190.132 106.533Z" fill="#3D2884"/>
<path d="M192.261 105.938C192.184 105.958 191.916 106.034 191.858 106.072C191.801 106.111 191.686 106.13 191.647 106.207C191.551 106.36 191.878 106.494 191.973 106.552C192.05 106.609 192.146 106.648 192.223 106.705C192.357 106.782 192.472 106.878 192.587 106.974C192.683 107.05 192.76 107.089 192.875 107.108C192.971 107.127 193.047 107.089 193.143 107.012C193.297 106.897 193.431 106.744 193.623 106.686C193.68 106.667 193.738 106.667 193.795 106.629C193.814 106.609 193.834 106.609 193.853 106.59C193.872 106.571 193.872 106.552 193.872 106.514C193.872 106.456 193.834 106.418 193.776 106.379C193.469 106.111 192.971 105.862 192.549 105.881C192.453 105.881 192.376 105.9 192.261 105.938Z" fill="#3D2884"/>
<path d="M194.39 105.363C194.332 105.382 194.064 105.44 194.025 105.478C193.968 105.516 193.833 105.536 193.795 105.612C193.718 105.785 194.083 105.9 194.179 105.957C194.37 106.072 194.562 106.207 194.754 106.341C194.927 106.475 195.08 106.533 195.272 106.379C195.406 106.264 195.54 106.092 195.713 106.053C195.809 106.034 195.962 106.034 195.981 105.9C195.981 105.842 195.943 105.804 195.905 105.766C195.521 105.44 194.869 105.133 194.39 105.363Z" fill="#3D2884"/>
<rect x="98.29" y="26.2715" width="10.6153" height="19.8152" fill="#564394"/>
<rect x="108.905" y="26.2715" width="10.6153" height="19.8152" fill="#EFE8F4"/>
<rect x="119.521" y="26.2715" width="10.6153" height="19.8152" fill="#EA931F"/>
<rect x="182.933" y="22.0812" width="10.6153" height="19.8152" fill="#564394"/>
<rect x="193.548" y="22.0812" width="10.6153" height="19.8152" fill="#EFE8F4"/>
<rect x="204.164" y="22.0812" width="10.6153" height="19.8152" fill="#EA931F"/>
<rect x="32.9219" y="12.8627" width="8.37051" height="15.625" fill="#564394"/>
<rect x="41.2925" y="12.8627" width="8.37051" height="15.625" fill="#EFE8F4"/>
<rect x="49.6626" y="12.8627" width="8.37051" height="15.625" fill="#EA931F"/>
</svg>
