<svg width="287" height="221" viewBox="0 0 287 221" fill="none" xmlns="http://www.w3.org/2000/svg">
<path d="M111.44 207.886C115.984 205.071 118.662 201.601 118.865 196.213C119.023 193.958 118.742 191.76 118.022 189.617C117.854 188.298 118.236 187.803 119.552 187.635C120.868 187.467 122.623 187.242 123.939 187.074C152.89 183.375 181.403 179.733 210.355 176.034C218.251 175.025 226.147 174.017 233.604 173.064C235.359 172.84 235.854 173.223 236.078 174.982C236.471 178.06 236.808 180.698 236.324 183.888C235.188 188.948 230.317 192.698 225.93 193.259C205.752 195.837 185.573 198.415 165.395 200.993C147.41 203.29 129.425 205.588 111.44 207.886Z" fill="#897AB4"/>
<path d="M74.8779 33.3693C73.6635 30.8433 72.1229 29.2528 70.1436 27.7182C69.2101 27.3906 68.2766 27.063 67.7817 26.6794C64.0478 25.369 60.5385 25.8174 56.759 27.6408C53.4744 29.8478 51.1795 32.8221 50.7515 36.4516C50.2112 39.2017 51.9525 52.8316 52.5597 54.0946C60.5118 53.5255 68.7902 52.0211 76.6861 51.0123C77.5634 50.9003 77.5072 50.4606 77.3949 49.5812C76.2822 44.3612 76.4854 38.973 74.8779 33.3693Z" fill="#897AB4"/>
<path d="M74.496 33.8649C73.8888 32.6019 73.3378 31.7786 72.7868 30.9553C71.2462 29.3647 69.2668 27.8302 67.3998 27.175C66.4664 26.8474 65.0942 26.5759 64.1607 26.2483C67.6138 25.3603 71.1793 25.3516 73.8112 25.0154C108.904 20.5321 143.997 16.0488 179.09 11.5655C186.547 10.6128 193.205 17.3587 193.935 23.0745C199.383 65.7229 204.776 107.932 210.224 150.58C211.179 158.055 212.078 165.089 213.033 172.564C213.089 173.004 213.201 173.883 213.258 174.323C213.482 176.081 212.605 176.193 211.289 176.361C201.2 177.65 191.111 178.939 181.021 180.228C161.282 182.75 141.542 185.272 121.363 187.85C120.486 187.962 120.047 188.018 119.226 188.57C118.405 189.122 118.956 189.945 119.069 190.824C119.349 193.023 119.63 195.221 119.855 196.98C119.708 202.808 116.153 206.39 111.114 208.821C105.085 210.485 100.688 207.472 97.3816 202.532C96.3357 201.325 96.5497 199.51 96.3812 198.191C94.4152 182.803 92.4492 167.414 90.5394 152.465C89.6969 145.87 88.9105 139.714 88.0679 133.119C87.3939 127.843 86.6637 122.127 85.9896 116.851C84.8662 108.058 83.7989 99.704 82.6755 90.9105C81.5521 82.117 80.4849 73.7632 79.3614 64.9697C78.7997 60.573 78.238 56.1762 77.6763 51.7795C77.0584 46.9431 76.8792 42.0506 75.8227 37.2702C75.2155 36.0072 74.6083 34.7442 74.496 33.8649Z" fill="#D6CDE4"/>
<path d="M142.547 81.4743C156.145 79.737 169.744 77.9997 183.781 76.2064C184.658 76.0943 185.862 75.0468 186.087 76.8055C186.255 78.1245 184.883 77.853 184.006 77.9651C168.653 79.9265 153.738 81.8319 138.385 83.7934C126.541 85.3065 114.259 86.8756 102.415 88.3888C101.976 88.4448 101.538 88.5008 101.099 88.5569C100.66 88.6129 100.222 88.669 100.109 87.7896C100.053 87.3499 100.435 86.8542 100.874 86.7982C101.751 86.6861 102.19 86.6301 103.067 86.518C115.789 84.8928 129.387 83.1555 142.547 81.4743Z" fill="#3D2884"/>
<path d="M143.558 89.3881C129.521 91.1815 115.922 92.9187 101.885 94.7121C101.008 94.8241 100.187 95.3759 100.018 94.0569C99.8498 92.7378 100.783 93.0654 101.661 92.9534C115.698 91.16 129.735 89.3667 143.333 87.6294C156.932 85.8922 170.53 84.1549 184.129 82.4176C184.567 82.3616 185.006 82.3055 185.445 82.2495C185.883 82.1934 186.322 82.1374 186.434 83.0167C186.491 83.4564 186.108 83.9521 185.669 84.0082C185.231 84.0642 184.792 84.1203 184.353 84.1763C171.194 85.8575 157.157 87.6509 143.558 89.3881Z" fill="#3D2884"/>
<path d="M145.187 102.139C131.589 103.876 117.551 105.669 103.953 107.407C103.076 107.519 101.872 108.566 101.647 106.808C101.423 105.049 102.851 105.76 103.728 105.648C120.397 103.518 137.505 101.333 154.174 99.2033C164.702 97.8583 175.23 96.5133 185.758 95.1683C186.196 95.1122 186.635 95.0562 187.074 95.0002C187.512 94.9441 187.569 95.3838 187.625 95.8235C187.681 96.2631 187.242 96.3192 186.804 96.3752C186.365 96.4313 185.488 96.5433 185.049 96.5994C172.384 98.6643 158.785 100.402 145.187 102.139Z" fill="#3D2884"/>
<path d="M147.546 120.605C133.948 122.343 120.349 124.08 106.751 125.817C106.312 125.873 105.435 125.985 104.996 126.041C104.558 126.097 104.119 126.153 104.063 125.714C104.007 125.274 103.95 124.834 104.389 124.778C104.828 124.722 105.705 124.61 106.144 124.554C129.393 121.584 152.642 118.614 175.891 115.644C179.839 115.139 183.348 114.691 187.296 114.186C188.173 114.074 189.816 112.971 190.04 114.73C190.265 116.488 188.398 115.833 187.521 115.945C174.799 117.57 161.145 118.868 147.546 120.605Z" fill="#3D2884"/>
<path d="M144.401 95.9832C130.802 97.7205 116.765 99.5138 103.167 101.251C102.728 101.307 102.289 101.363 101.851 101.419C101.412 101.475 101.356 101.036 101.3 100.596C101.244 100.156 101.187 99.7166 102.065 99.6045C102.503 99.5484 102.942 99.4924 103.381 99.4363C130.578 95.9618 158.213 92.4312 185.41 88.9566C185.849 88.9006 186.288 88.8445 186.726 88.7885C187.165 88.7325 187.66 89.1161 187.716 89.5558C187.772 89.9954 187.39 90.4912 186.951 90.5472C186.512 90.6032 186.074 90.6593 185.635 90.7153C171.598 92.5086 157.999 94.2459 144.401 95.9832Z" fill="#3D2884"/>
<path d="M141.986 77.0776C128.387 78.8149 114.789 80.5522 101.19 82.2894C100.751 82.3455 100.313 82.4015 99.8742 82.4576C99.4355 82.5136 98.9407 82.13 98.8845 81.6903C98.8283 81.2506 98.7722 80.8109 99.6495 80.6989C100.088 80.6428 100.527 80.5868 100.965 80.5307C124.214 77.5606 147.025 74.6464 170.274 71.6762C174.66 71.1158 179.047 70.5554 183.434 69.995C183.872 69.9389 185.132 69.3311 185.301 70.6502C185.469 71.9692 184.097 71.6976 183.658 71.7537C169.621 73.547 156.023 75.2843 141.986 77.0776Z" fill="#3D2884"/>
<path d="M145.974 108.294C132.375 110.032 118.777 111.769 105.178 113.506C104.739 113.562 104.301 113.618 103.862 113.674C103.423 113.73 102.985 113.786 102.872 112.907C102.76 112.028 103.199 111.972 103.637 111.916C104.076 111.86 104.515 111.803 104.953 111.747C124.255 109.282 143.556 106.816 162.857 104.35C171.191 103.285 179.087 102.276 187.422 101.212C187.86 101.156 189.12 100.548 189.232 101.427C189.401 102.746 188.467 102.419 187.59 102.531C173.609 104.764 160.011 106.501 145.974 108.294Z" fill="#3D2884"/>
<path d="M146.76 114.45C133.161 116.187 119.563 117.924 105.964 119.662C105.525 119.718 105.087 119.774 104.648 119.83C103.771 119.942 103.715 119.502 103.658 119.063C103.602 118.623 103.985 118.127 104.423 118.071C104.862 118.015 105.739 117.903 106.178 117.847C128.111 115.045 150.483 112.187 172.416 109.385C177.68 108.712 182.944 108.04 188.208 107.367C188.646 107.311 189.906 106.703 190.075 108.022C190.243 109.342 188.871 109.07 188.432 109.126C174.395 110.919 160.358 112.713 146.76 114.45Z" fill="#3D2884"/>
<path d="M120.087 73.1725C113.068 74.0691 106.488 74.9098 99.4698 75.8064C99.0311 75.8625 97.7713 76.4703 97.6028 75.1512C97.4343 73.8322 98.3678 74.1598 99.2451 74.0477C112.844 72.3104 126.442 70.5732 140.479 68.7798C140.918 68.7238 142.178 68.116 142.346 69.435C142.515 70.7541 141.581 70.4265 140.704 70.5385C133.685 71.4352 127.105 72.2758 120.087 73.1725Z" fill="#3D2884"/>
<path d="M196.671 149.184C195.794 149.296 194.86 148.968 193.87 148.201C192.881 147.434 191.947 147.106 190.8 148.593C188.831 150.632 187.571 151.24 185.536 149.266C184.107 148.555 183.174 148.227 182.465 149.658C180.497 151.697 179.619 151.809 177.201 150.331C175.773 149.619 174.896 149.731 174.131 150.723C172.162 152.762 169.035 152.714 167.382 150.244C167.326 149.805 167.27 149.365 167.27 149.365C167.652 148.869 168.091 148.813 168.586 149.197C171.06 151.115 172.815 150.891 174.288 148.468C175.053 147.477 176.864 147.692 177.91 148.899C179.395 150.05 180.328 150.378 181.419 148.451C182.949 146.468 184.265 146.3 186.245 147.835C187.729 148.986 188.606 148.873 189.315 147.442C190.845 145.46 192.161 145.291 194.579 146.77C196.064 147.921 196.941 147.809 197.65 146.378C198.032 145.882 198.415 145.386 198.853 145.33C199.292 145.274 199.675 144.778 199.731 145.218C199.787 145.658 199.843 146.097 199.843 146.097C199.517 147.033 198.425 148.96 196.671 149.184Z" fill="#3D2884"/>
<path d="M112.432 44.6579C106.29 45.4425 100.149 46.227 94.0078 47.0116C93.5692 47.0677 92.3094 47.6755 92.1409 46.3564C91.9723 45.0374 92.9058 45.365 93.7832 45.2529C106.066 43.6838 118.348 42.1146 130.631 40.5455L131.069 40.4894C131.947 40.3773 132.385 40.3213 132.498 41.2006C132.61 42.08 131.733 42.1921 131.294 42.2481C127.346 42.7525 123.837 43.2008 119.889 43.7052C117.696 43.9854 115.064 44.3216 112.432 44.6579Z" fill="#3D2884"/>
<path d="M127.791 154.409C126.913 154.521 126.587 155.456 126.261 156.392C125.496 157.383 125.226 158.758 123.966 159.366C121.829 160.086 120.839 159.319 119.737 157.672C117.151 154.874 116.712 154.931 115.35 158.232C113.989 161.534 111.357 161.871 108.771 159.073C108.219 158.25 107.668 157.426 106.735 157.099C106.24 156.715 106.184 156.276 106.128 155.836C106.454 154.9 107.005 155.724 107.444 155.668C108.377 155.995 108.984 157.258 109.974 158.026C111.571 160.056 112.448 159.944 113.922 157.521C113.866 157.082 114.305 157.025 114.248 156.586C115.61 153.284 118.242 152.948 120.39 155.801C120.884 156.185 120.941 156.625 121.435 157.008C122.92 158.159 123.359 158.103 124.506 156.616L124.889 156.12C127.015 151.827 128.77 151.603 131.907 155.223C132.402 155.607 132.953 156.43 133.886 156.758C134.381 157.142 134.437 157.581 134.494 158.021C134.111 158.517 133.616 158.133 133.178 158.189C132.244 157.862 131.198 156.655 130.647 155.831C129.219 155.12 128.724 154.736 127.791 154.409Z" fill="#3D2884"/>
<path d="M106.055 40.1105C101.668 40.6709 97.2818 41.2313 92.8952 41.7917C92.4565 41.8477 91.1967 42.4555 91.0282 41.1365C90.9159 40.2572 91.8494 40.5848 92.288 40.5287C101.061 39.4079 109.834 38.2871 118.608 37.1662C119.046 37.1102 119.867 36.5584 120.036 37.8775C120.148 38.7568 119.271 38.8689 118.832 38.9249C115.267 38.9336 110.88 39.494 106.055 40.1105Z" fill="#3D2884"/>
<path d="M117.019 129.421C120.528 128.972 124.038 128.524 127.108 128.132C127.547 128.076 128.368 127.524 128.537 128.843C128.649 129.722 127.772 129.834 127.333 129.89C120.314 130.787 113.296 131.684 106.277 132.58C105.839 132.636 105.017 133.188 104.849 131.869C104.737 130.99 105.614 130.878 106.053 130.822C110 130.317 113.51 129.869 117.019 129.421Z" fill="#3D2884"/>
<path d="M22.717 71.7595C23.482 70.7681 24.4716 71.5353 24.9665 71.919C31.5009 74.2121 35.2456 79.0959 37.4041 85.5229C37.5165 86.4023 38.1236 87.6652 38.2922 88.9843C39.3273 86.6178 39.9799 84.747 41.0712 82.8202C41.566 83.2038 42.0609 83.5874 42.8259 82.596C43.5347 81.1649 44.2996 80.1735 45.4471 78.6863C49.2158 73.2895 52.9846 67.8926 56.2585 62.1122C57.8553 64.1424 57.7537 66.8365 57.1572 69.147C55.8626 76.462 51.6552 81.9149 43.8717 83.8029C42.9944 83.915 42.1171 84.0271 41.7907 84.9625C39.8328 90.5749 37.8187 95.7475 37.233 101.631C37.2891 102.071 36.9066 102.567 37.4015 102.95C37.5138 103.83 37.0752 103.886 36.6927 104.382C36.04 106.252 35.3312 107.683 35.5559 109.442C35.6682 110.321 35.3419 111.257 36.2754 111.584C37.2089 111.912 37.5352 110.977 38.3564 110.425C43.0586 105.356 47.817 100.726 52.5192 95.6569C54.0492 93.674 56.074 92.0748 57.6601 90.5316C58.6712 98.4457 55.3973 104.226 49.7616 108.968C46.5331 111.615 42.315 113.494 37.8161 113.175C35.5666 113.016 35.679 113.895 35.8475 115.214C36.3075 122.305 37.1501 128.9 38.9262 135.823C39.2632 138.461 39.6564 141.538 40.8707 144.064C41.9727 145.711 42.4114 145.655 43.5027 143.728C44.5378 141.362 45.0781 138.611 46.0571 135.805C48.2851 128.818 50.1307 122.326 52.3588 115.339C59.3533 124.723 55.4482 139.521 45.0434 145.319C43.3449 145.983 43.4572 146.862 44.0644 148.125C46.9879 153.56 49.9114 158.996 54.4773 163.328C55.1406 165.031 56.5689 165.742 57.6709 167.389C57.7833 168.268 57.8956 169.147 58.7729 169.035C59.6503 168.923 59.0993 168.1 59.0431 167.66C58.7515 161.888 58.9548 156.5 58.6633 150.728C58.3824 148.53 59.4175 146.163 57.8207 144.133C58.5857 143.142 59.1367 143.965 59.6315 144.349C66.7277 151.039 65.9948 162.75 60.0328 168.427C58.8291 169.475 58.8853 169.915 59.9311 171.121C62.9563 173.863 66.4201 176.548 69.8839 179.234C70.8736 180.001 71.8071 180.329 72.7967 181.096C73.2916 181.48 73.7864 181.863 74.1689 181.367C74.5514 180.872 74.4952 180.432 74.4391 179.992C73.7757 178.29 73.1124 176.587 72.8877 174.828C71.9997 171.367 70.7291 168.401 70.7184 164.828C76.8704 167.617 79.5799 174.867 75.8674 180.704C74.7199 182.191 75.2709 183.014 76.6992 183.725C80.9842 185.859 85.7078 187.937 90.3191 189.135C90.814 189.519 92.0738 188.911 91.8036 190.286C91.5335 191.661 90.5438 190.894 90.049 190.51C84.0094 188.6 77.9136 186.251 72.0879 182.527C71.0983 181.76 70.6596 181.816 69.7823 181.928C64.5184 182.6 59.2544 183.273 53.5518 184.001C52.6745 184.114 51.7972 184.226 51.4709 185.161C50.0426 184.45 51.2462 183.402 51.6287 182.907C54.3061 179.437 58.0856 177.613 62.5283 177.492C62.967 177.436 63.9005 177.764 64.283 177.268C62.2475 175.294 59.7733 173.376 57.7378 171.402C57.243 171.018 56.8043 171.074 56.3657 171.13C55.8147 170.307 54.4425 170.035 53.1265 170.203C48.5714 169.445 44.0725 169.126 39.5173 168.367C35.4571 167.992 31.7793 167.122 27.7751 167.186C27.168 165.923 28.4839 165.755 28.8664 165.259C35.3795 160.406 42.4542 159.949 49.5397 163.065C46.7847 158.949 44.0296 154.832 42.1519 150.603C42.0958 150.164 41.6009 149.78 41.1623 149.836C37.316 147.646 33.4697 145.457 29.6233 143.267C27.2615 142.228 25.2822 140.694 22.9204 139.655C20.0637 138.232 18.0282 136.258 14.7891 135.331C17.6351 133.18 20.7057 132.788 23.8886 133.275C28.3876 133.594 32.6164 135.288 36.1926 138.853C36.6874 139.237 36.7436 139.676 37.6209 139.564C36.1257 134.84 35.0691 130.059 34.3951 124.783C34.3389 124.344 34.2827 123.904 33.7879 123.52C32.3034 122.369 30.8189 121.219 29.7731 120.012C25.7021 116.063 21.6311 112.115 17.5601 108.166C14.9736 105.369 11.9646 102.462 9.76059 99.1691C10.1993 99.1131 10.6929 99.05 11.1316 98.994C11.5886 98.9356 11.5886 98.9356 12.561 99.2758C22.38 99.362 27.1999 103.36 34.0367 114.998C34.2961 110.05 34.5555 105.101 35.3098 100.537C35.1975 99.6572 35.029 98.3382 34.478 97.5149C32.1054 92.9026 30.2277 88.674 27.8552 84.0617C26.36 79.3374 25.3597 74.9967 22.717 71.7595Z" fill="#EA931F"/>
<path d="M9.68859 98.8945C11.8364 101.748 14.8616 104.49 17.4481 107.287C21.5191 111.235 25.5901 115.184 29.6611 119.132C31.1456 120.283 32.1914 121.49 33.6759 122.641C34.1707 123.025 34.2269 123.464 34.2831 123.904C20.2459 125.697 7.86443 112.533 8.92361 99.886C9.3061 99.3902 9.24993 98.9506 9.68859 98.8945Z" fill="#F9AA38"/>
<path d="M52.2645 115.569C50.3399 122.317 47.9034 129.314 46.114 136.245C45.5737 138.995 44.5385 141.362 43.5596 144.168C42.907 146.039 42.0296 146.151 40.9276 144.504C39.2746 142.034 39.3763 139.34 38.9831 136.262C39.5126 129.939 41.0319 124.382 45.7903 119.753C47.7589 117.714 49.6326 115.905 52.2645 115.569Z" fill="#F9AA38"/>
<path d="M27.7754 167.186C31.7795 167.121 35.4573 167.992 39.5176 168.367C44.0165 168.686 48.5989 169.038 53.154 169.797C54.5262 170.068 56.0723 170.388 57.5006 171.099C54.002 175.121 48.7054 177.471 43.273 176.824C36.9632 176.29 31.8009 174.268 28.3826 168.449C27.8316 167.626 27.7754 167.186 27.7754 167.186Z" fill="#F9AA38"/>
<path d="M15.1157 134.396C17.9162 135.379 20.3903 137.297 23.247 138.719C25.6088 139.758 27.532 140.853 29.9499 142.332C33.7963 144.521 37.939 147.694 41.7853 149.884C36.8023 152.755 31.5682 151.509 26.4059 149.487C22.6719 148.177 19.6468 145.435 17.4989 142.582C16.2846 140.056 15.0702 137.53 15.1157 134.396Z" fill="#F9AA38"/>
<path d="M22.7175 71.7592C25.4163 75.4361 26.3605 79.3371 28.6207 83.07C30.9932 87.6823 32.8709 91.9109 35.2434 96.5232C35.3558 97.4025 35.4681 98.2819 35.6366 99.6009C30.6428 98.8983 27.1228 95.7732 24.8065 91.6006C20.9495 85.8375 19.6682 79.2984 22.3911 72.6946C22.335 72.255 22.7736 72.1989 22.7175 71.7592Z" fill="#F9AA38"/>
<path d="M57.7168 90.9713C56.1306 92.5145 54.162 94.5534 52.5759 96.0966C47.8737 101.166 43.1153 105.795 38.4131 110.865C38.0306 111.36 37.2656 112.352 36.3321 112.024C35.3986 111.697 35.6687 110.322 35.6126 109.882C35.3879 108.123 35.355 106.529 36.0639 105.098C36.4463 104.602 36.8731 103.484 37.1429 102.638C39.371 95.6503 48.7189 90.3334 55.906 90.7558C56.2885 90.2601 57.1658 90.148 57.7168 90.9713Z" fill="#F9AA38"/>
<path d="M56.3294 62.3358C53.0555 68.1163 49.2868 73.5131 45.518 78.9099C44.8092 80.341 44.0443 81.3325 42.8968 82.8196C42.1318 83.8111 41.637 83.4274 41.1421 83.0438C40.2996 76.4487 41.8188 70.8924 47.0721 66.6464C49.8618 64.0558 52.7078 61.9048 56.3294 62.3358Z" fill="#F9AA38"/>
<path d="M57.765 143.694C59.3618 145.724 58.3267 148.09 58.6076 150.289C58.8991 156.061 58.6959 161.449 58.9874 167.221C59.0436 167.66 59.9725 168.926 59.0952 169.038C58.2179 169.15 57.1494 168.349 57.037 167.47C55.9912 166.263 55.1411 165.031 54.4778 163.328C51.9929 157.837 51.7013 152.065 55.0314 146.724C55.4139 146.228 56.1227 144.797 57.765 143.694Z" fill="#F9AA38"/>
<path d="M51.4024 185.17C51.7287 184.234 53.1135 184.057 53.9908 183.945C59.2548 183.273 64.5187 182.6 70.2213 181.872C71.0986 181.76 71.9759 181.647 72.5269 182.471C68.488 189.243 59.4805 191.983 53.4864 186.94C52.4892 186.369 51.5147 186.049 51.4024 185.17Z" fill="#F9AA38"/>
<path d="M70.8983 165.406C70.909 168.98 72.2357 172.385 73.0676 175.407C73.7309 177.109 74.3943 178.812 74.6189 180.571C74.6751 181.01 74.7313 181.45 74.3488 181.946C73.9663 182.442 73.4715 182.058 72.9766 181.674C71.987 180.907 71.0535 180.579 70.0638 179.812C68.3547 176.903 67.0841 173.937 67.5683 170.747C67.7822 168.932 68.4349 167.062 69.5823 165.574C70.021 165.518 70.4035 165.023 70.8983 165.406Z" fill="#F9AA38"/>
<path d="M250.541 40.4198C249.551 39.6526 248.786 40.644 248.404 41.1397C242.655 45.002 240.203 50.2307 239.729 56.994C239.842 57.8733 239.572 59.2484 239.74 60.5674C238.143 58.5372 237.041 56.8905 235.501 55.3C235.118 55.7957 234.736 56.2914 233.746 55.5241C232.7 54.3172 231.71 53.5499 230.226 52.399C225.221 48.123 220.217 43.847 215.595 39.0753C214.56 41.4418 215.335 44.0238 216.494 46.1101C219.586 52.8647 225.029 57.0846 233.037 56.9552C233.914 56.8432 234.792 56.7311 235.343 57.5544C238.649 62.4942 241.899 66.9944 243.945 72.5421C244.001 72.9817 244.496 73.3654 244.113 73.8611C244.226 74.7404 244.664 74.6844 245.159 75.068C246.261 76.7146 247.307 77.9216 247.532 79.6803C247.644 80.5596 248.195 81.3829 247.374 81.9347C246.553 82.4864 246.002 81.6631 245.068 81.3356C239.243 77.6113 233.473 74.3267 227.647 70.6025C225.668 69.0679 223.306 68.0291 221.383 66.9343C222.394 74.8484 227.016 79.6201 233.663 82.7926C237.453 84.5427 242.008 85.3013 246.283 83.8615C248.42 83.1416 248.532 84.021 248.701 85.34C250.038 92.3188 250.88 98.9139 250.902 106.061C251.239 108.699 251.632 111.777 251.092 114.527C250.439 116.397 250.001 116.454 248.46 114.863C246.863 112.833 245.649 110.307 243.996 107.837C240.082 101.634 236.664 95.8147 232.751 89.6119C228.34 100.453 235.84 113.794 247.369 116.79C249.179 117.005 249.292 117.885 249.022 119.26C247.558 125.256 246.095 131.252 242.765 136.592C242.551 138.407 241.348 139.455 240.695 141.325C240.313 141.821 240.425 142.7 239.986 142.757C239.109 142.869 239.435 141.933 239.379 141.494C238.21 135.834 236.659 130.67 235.49 125.01C235.209 122.812 233.612 120.781 234.647 118.415C233.658 117.648 233.331 118.583 232.949 119.079C227.763 127.338 231.416 138.489 238.614 142.485C240.042 143.196 240.099 143.636 239.39 145.067C237.151 148.481 234.474 151.951 231.796 155.421C231.031 156.412 230.21 156.964 229.445 157.956C229.063 158.451 228.68 158.947 228.185 158.563C227.69 158.18 227.634 157.74 227.578 157.3C227.792 155.486 228.006 153.671 227.781 151.912C227.771 148.339 228.255 145.149 227.367 141.688C222.114 145.934 221.314 153.632 226.374 158.348C227.859 159.499 227.533 160.434 226.329 161.482C222.336 165.12 218.286 168.318 214.124 170.637C213.742 171.133 212.369 170.862 212.977 172.125C213.584 173.388 214.349 172.396 214.731 171.9C220.097 168.534 225.406 164.728 230.108 159.658C230.873 158.667 231.312 158.611 232.189 158.499C237.453 157.826 242.717 157.154 248.42 156.425C249.297 156.313 250.174 156.201 250.725 157.024C251.929 155.977 250.501 155.266 250.006 154.882C246.542 152.197 242.426 151.382 238.095 152.382C237.657 152.438 236.835 152.99 236.341 152.606C237.814 150.184 239.727 147.705 241.201 145.282C241.583 144.787 242.022 144.731 242.46 144.675C243.225 143.683 244.485 143.075 245.745 142.468C249.963 140.588 254.237 139.148 258.455 137.269C262.291 135.885 265.632 134.118 269.524 133.174C269.794 131.799 268.478 131.967 267.983 131.583C260.459 128.523 253.496 129.859 247.422 134.657L247.04 135.153C247.04 135.153 246.983 134.713 247.422 134.657C249.054 129.98 250.685 125.303 251.44 120.738C251.383 120.298 251.766 119.803 252.205 119.747C255.377 116.66 258.549 113.574 261.721 110.488C263.746 108.888 265.276 106.905 267.301 105.306C269.708 103.211 271.182 100.789 274.084 99.0775C270.789 97.7111 267.718 98.1033 264.76 99.375C260.486 100.815 256.818 103.517 254.253 107.867C253.871 108.363 253.927 108.802 253.05 108.914C253.309 103.966 253.13 99.0734 252.456 93.7973C252.4 93.3576 252.344 92.9179 252.726 92.4222C253.874 90.935 255.021 89.4479 255.73 88.0168C258.677 83.1717 261.625 78.3266 264.573 73.4816C266.373 70.1236 268.668 67.1493 269.973 63.4078C269.534 63.4638 269.534 63.4638 269.096 63.5198C268.713 64.0156 268.274 64.0716 267.78 63.688C258.298 66.2399 254.034 71.2531 250.343 84.2365C248.848 79.5122 247.352 74.7878 245.475 70.5592C245.362 69.6798 245.194 68.3608 245.52 67.4254C246.657 62.3648 247.411 57.8 248.548 52.7394C248.92 48.6702 249.292 44.6011 250.541 40.4198Z" fill="#EA931F"/>
<path d="M269.973 63.4078C268.611 66.7097 266.372 70.1237 264.572 73.4816C261.625 78.3267 258.677 83.1717 255.73 88.0168C254.582 89.504 253.873 90.9351 252.726 92.4222C252.343 92.9179 252.4 93.3576 252.456 93.7973C266.493 92.004 275.167 76.1497 270.962 64.1751C270.524 64.2311 270.411 63.3518 269.973 63.4078Z" fill="#F9AA38"/>
<path d="M232.863 90.4913C236.72 96.2545 240.633 102.457 244.108 108.716C245.322 111.242 246.919 113.272 248.572 115.742C249.674 117.389 250.552 117.277 251.204 115.406C252.183 112.6 251.407 110.018 251.014 106.94C248.912 100.953 246.045 95.957 240.275 92.6724C237.857 91.1939 235.495 90.1551 232.863 90.4913Z" fill="#F9AA38"/>
<path d="M269.318 133.356C265.427 134.3 262.086 136.068 258.25 137.451C253.976 138.891 249.758 140.77 245.54 142.65C244.28 143.258 243.459 143.809 242.255 144.857C246.653 147.87 251.646 148.572 256.742 146.581C262.714 144.477 267.203 141.223 269.048 134.731C269.375 133.796 269.375 133.796 269.318 133.356Z" fill="#F9AA38"/>
<path d="M273.701 99.573C271.238 101.228 269.325 103.707 266.918 105.802C264.893 107.401 263.307 108.944 261.338 110.983C258.166 114.07 254.994 117.156 251.822 120.242C257.366 121.768 262.079 120.272 266.568 117.018C269.852 114.811 272.091 111.397 273.452 108.095C274.375 104.849 274.477 102.155 273.701 99.573Z" fill="#F9AA38"/>
<path d="M250.541 40.4199C248.853 44.6572 248.92 48.6703 247.671 52.8516C246.534 57.9121 245.78 62.477 244.643 67.5376C244.317 68.473 244.485 69.792 244.597 70.6714C249.254 68.7359 251.875 64.8262 253.068 60.2053C255.353 53.6576 254.949 47.0064 250.653 41.2993C251.474 40.7475 251.035 40.8036 250.541 40.4199Z" fill="#F9AA38"/>
<path d="M221.495 67.8137C223.419 68.9085 225.837 70.387 227.76 71.4819C233.585 75.2061 239.355 78.4907 245.18 82.215C245.675 82.5986 246.665 83.3659 247.486 82.8141C248.307 82.2624 247.7 80.9994 247.644 80.5597C247.419 78.801 246.317 77.1544 245.271 75.9474C244.777 75.5638 244.282 75.1802 244.226 74.7405C240.312 68.5377 230.044 64.9342 223.194 67.1498C222.699 66.7662 222.26 66.8222 221.495 67.8137Z" fill="#F9AA38"/>
<path d="M215.595 39.0752C220.217 43.8469 225.221 48.1229 230.226 52.399C231.272 53.6059 232.261 54.3732 233.746 55.5241C234.735 56.2913 235.118 55.7956 235.5 55.2999C234.658 48.7048 231.79 43.7089 225.638 40.92C222.726 39.0579 219.487 38.1312 215.595 39.0752Z" fill="#F9AA38"/>
<path d="M234.704 118.855C233.668 121.221 235.265 123.251 235.546 125.45C236.715 131.109 238.266 136.273 239.435 141.933C239.491 142.373 239.165 143.308 240.042 143.196C240.92 143.084 240.864 142.644 240.751 141.765C241.46 140.334 242.608 138.847 242.821 137.032C243.846 131.092 242.677 125.432 238.111 121.1C237.616 120.717 236.571 119.51 234.704 118.855Z" fill="#F9AA38"/>
<path d="M250.832 157.048C250.281 156.224 249.404 156.337 248.527 156.449C243.263 157.121 237.999 157.794 232.296 158.522C231.419 158.634 230.542 158.746 230.215 159.682C235.827 165.221 245.151 164.923 249.685 158.535C250.562 158.423 250.945 157.927 250.832 157.048Z" fill="#F9AA38"/>
<path d="M226.984 142.184C227.872 145.645 227.444 149.274 227.398 152.408C227.184 154.223 226.97 156.038 227.195 157.796C227.251 158.236 227.307 158.676 227.802 159.059C228.297 159.443 228.68 158.947 229.062 158.452C229.827 157.46 230.648 156.908 231.413 155.917C232.336 152.671 232.82 149.481 231.55 146.516C230.886 144.813 229.784 143.166 228.3 142.015C227.861 142.071 227.805 141.632 226.984 142.184Z" fill="#F9AA38"/>
<path d="M267.779 63.6879C268.274 64.0715 268.713 64.0155 269.095 63.5197C268.657 63.5758 268.218 63.6318 267.779 63.6879Z" fill="#F9AA38"/>
<path d="M246.984 134.713C246.545 134.769 246.601 135.209 246.601 135.209C247.096 135.592 247.096 135.592 246.984 134.713C247.478 135.097 247.04 135.153 246.984 134.713Z" fill="#F9AA38"/>
<path d="M122.176 166.297C118.228 166.801 114.28 167.306 110.332 167.81C109.894 167.866 108.634 168.474 108.465 167.155C108.353 166.276 109.23 166.164 109.669 166.108C117.565 165.099 125.899 164.034 133.795 163.025C134.234 162.969 135.111 162.857 135.224 163.736C135.392 165.055 134.459 164.728 133.581 164.84C130.511 165.232 126.124 165.793 122.176 166.297Z" fill="#897AB4"/>
<path d="M182.926 156.749C186.873 156.244 190.821 155.74 194.331 155.292C195.208 155.18 196.029 154.628 196.198 155.947C196.366 157.266 195.433 156.938 194.555 157.05C186.659 158.059 178.764 159.068 170.868 160.077C169.99 160.189 169.113 160.301 169.001 159.421C168.832 158.102 169.766 158.43 170.643 158.318C175.468 157.701 179.416 157.197 182.926 156.749Z" fill="#897AB4"/>
<path d="M145.797 159.258L148.212 178.164L154.006 171.168L161.428 176.922L158.957 157.576L145.797 159.258Z" fill="#3D2884"/>
<path d="M152.602 160.176C159.143 159.34 163.766 153.348 162.929 146.791C162.091 140.235 156.11 135.598 149.568 136.433C143.027 137.269 138.404 143.261 139.241 149.818C140.079 156.374 146.061 161.011 152.602 160.176Z" fill="#D6CDE4" stroke="#3D2884" stroke-width="0.800872" stroke-miterlimit="10"/>
<path d="M152.208 157.098C156.811 156.51 160.065 152.293 159.476 147.68C158.886 143.066 154.677 139.802 150.074 140.391C145.471 140.979 142.217 145.195 142.807 149.809C143.396 154.423 147.605 157.686 152.208 157.098Z" fill="#D6CDE4" stroke="#3D2884" stroke-width="0.800872" stroke-miterlimit="10"/>
</svg>
