<svg width="321" height="194" viewBox="0 0 321 194" fill="none" xmlns="http://www.w3.org/2000/svg">
<path d="M1.92188 90.8189L59.7448 81.2886L62.708 55.7408L63.2687 41.3251L61.6669 12.0933L11.212 13.695L6.2466 16.8985L3.84399 25.628L5.44573 40.6844L6.00635 55.2603L5.44573 67.0331L4.24442 78.966L1.92188 90.8189Z" fill="#705FA4"/>
<path d="M59.7453 81.2884L57.7432 80.8079C57.7432 80.7278 60.4661 69.5156 61.1869 63.429C62.6285 51.6562 62.6285 38.2816 61.1068 21.5434V21.3031C60.7064 16.8983 60.2259 11.9329 62.4683 7.6883C63.6696 5.36577 66.3125 3.2835 69.0354 4.08437C71.9987 4.96533 73.2801 8.88961 74.081 11.5325C74.1611 11.8528 74.2411 12.0931 74.3212 12.3334L72.3991 12.9741C72.319 12.7338 72.2389 12.4134 72.1589 12.0931C71.4381 9.93074 70.397 6.56708 68.4749 6.00647C66.8731 5.52594 65.1913 6.96752 64.3103 8.64935C62.3882 12.2533 62.7886 16.7381 63.1891 21.0629V21.3031C64.7107 38.2015 64.7909 51.6562 63.2692 63.6692C62.4683 69.8359 59.8254 80.8079 59.7453 81.2884Z" fill="#EFE8F4"/>
<path d="M8.96973 13.5348L11.052 12.9742L67.1931 3.76421C67.1931 3.76421 71.9983 2.32264 74.2408 12.3335L16.4179 21.944C16.4179 21.944 15.2165 18.1799 14.9763 17.7795C14.3356 16.418 13.3745 15.2167 12.1732 14.3357C11.2923 13.6149 10.171 13.695 8.96973 13.5348Z" fill="#EFE8F4"/>
<path d="M74.1338 11.6603L16.4331 21.5483L16.5819 22.4166L74.2826 12.5286L74.1338 11.6603Z" fill="#897AB4"/>
<path d="M6.88763 158.413C6.80755 158.413 6.80754 158.413 6.72745 158.413C5.7664 158.333 5.04562 157.452 5.12571 156.491L15.6172 29.3922C15.6972 28.4312 16.5782 27.7104 17.5392 27.7905C18.5003 27.8706 19.221 28.7515 19.141 29.7126L8.64956 156.811C8.48939 157.692 7.76859 158.413 6.88763 158.413Z" fill="#897AB4"/>
<path d="M6.00648 157.131C5.76622 157.131 5.52595 156.891 5.60604 156.651L16.0974 34.1172C16.0974 33.877 16.3377 33.7168 16.5779 33.7168C16.8182 33.7168 16.9784 33.9571 16.9784 34.1973L6.48698 156.731C6.48698 156.971 6.24674 157.131 6.00648 157.131Z" fill="#A396C4"/>
<path d="M35.9594 188.045C34.9984 188.045 34.2776 187.324 34.1975 186.363L32.1953 106.916C32.1953 105.955 32.9161 105.155 33.8772 105.155C34.8382 105.155 35.6391 105.875 35.6391 106.836L37.6413 186.283C37.7214 187.244 37.0006 188.045 35.9594 188.045Z" fill="#897AB4"/>
<path d="M35.3187 186.843C35.0784 186.843 34.9182 186.683 34.9182 186.443L32.7559 106.196C32.7559 105.955 32.916 105.715 33.1563 105.715C33.3966 105.715 33.6368 105.875 33.6368 106.116L35.7992 186.363C35.7191 186.683 35.5589 186.843 35.3187 186.843Z" fill="#A396C4"/>
<path d="M93.5418 170.025C92.7409 170.025 91.94 169.465 91.86 168.584L79.046 97.306C78.8858 96.345 79.5266 95.464 80.4876 95.3038C81.4487 95.1437 82.3296 95.7843 82.4898 96.7454L95.3037 168.023C95.4639 168.984 94.8232 169.865 93.8621 170.025C93.7821 170.025 93.6219 170.025 93.5418 170.025Z" fill="#897AB4"/>
<path d="M92.9009 168.984C92.6606 168.984 92.5005 168.824 92.5005 168.664L78.325 89.6176C78.2449 89.3773 78.4051 89.137 78.6454 89.137C78.8856 89.057 79.1259 89.2171 79.1259 89.4574L93.3013 168.503C93.3814 168.664 93.2213 168.904 92.9009 168.984C92.981 168.984 92.981 168.984 92.9009 168.984Z" fill="#A396C4"/>
<path d="M16.5781 21.944L28.6713 108.358L87.8557 95.5441L74.2409 12.0132L16.5781 21.944Z" fill="#EFE8F4"/>
<path d="M16.4979 21.9439C15.8572 18.9006 14.3356 14.5759 11.2122 13.695C8.48924 12.8941 5.84635 14.9764 4.64505 17.2989C2.40261 21.4634 2.88312 26.4288 3.28355 30.9137V31.154C4.80521 47.8922 4.88528 61.2668 3.36362 73.0396C2.64284 79.1262 0.0800872 89.7778 0 89.8579L1.84199 90.8189C1.92208 90.3384 4.56493 79.4465 5.3658 73.2798C6.88746 61.3468 6.80739 47.8922 5.28573 30.9137V30.6734C4.8853 26.3487 4.48488 21.8639 6.40697 18.2599C7.28793 16.5781 9.04981 15.1365 10.5715 15.6171C15.0563 16.9786 15.1365 26.4288 15.6971 30.4332C16.6581 37.2406 17.6192 44.048 18.6603 50.8554C19.8616 59.1845 21.0629 67.5135 22.2642 75.8426C23.3054 83.0505 24.3465 90.1782 25.3876 97.3861C25.8681 100.75 26.1084 102.672 26.5889 106.035L26.7491 107.557L28.6712 108.358C28.2708 105.555 27.8703 102.832 27.4699 100.029C26.5088 93.3817 25.6279 86.6544 24.6668 80.0071C23.5456 71.8383 22.3443 63.6694 21.2231 55.5005C20.182 48.2926 19.2209 41.0848 18.1797 33.8769C17.6191 30.0327 17.2988 26.1886 16.578 22.3444C16.578 22.2643 16.578 22.1041 16.4979 21.9439Z" fill="#897AB4"/>
<path d="M26.589 30.8336C27.3899 32.115 27.47 33.7167 27.47 35.1583C27.5501 35.0782 27.7102 34.9981 27.7903 34.918C27.0695 35.1583 26.2687 35.0782 25.5479 35.0782C25.3076 35.0782 24.8271 35.3986 25.2275 35.3986C26.1085 35.3986 26.9895 35.4787 27.8704 35.2384C27.9505 35.2384 28.1907 35.1583 28.1907 34.9981C28.2708 33.5566 28.1107 31.9548 27.3098 30.6734C27.1496 30.4332 26.5089 30.6734 26.589 30.8336Z" fill="#EA931F"/>
<path d="M25.1472 31.0738C26.3485 31.0738 27.4698 30.5933 28.6711 30.5132C28.9914 30.5132 29.2317 30.0327 28.7511 30.1128C27.6299 30.1929 26.5087 30.6734 25.3875 30.6734C25.1472 30.6734 24.7468 31.0738 25.1472 31.0738Z" fill="#EA931F"/>
<path d="M29.5522 32.6757C30.4331 32.8358 31.4743 32.4354 31.234 31.3943C31.234 31.3142 31.1539 31.3142 31.0739 31.3142C30.1929 31.0739 28.9916 31.3142 29.0717 32.5155C29.1518 33.3164 29.7123 34.2774 30.5933 34.1973C31.234 34.1172 31.7146 33.6367 32.0349 33.0761C32.1951 32.7558 31.4743 32.8358 31.3942 33.0761C31.234 33.3164 30.9937 33.877 30.5933 33.7969C30.273 33.7168 30.0327 33.3164 29.8725 32.996C29.7124 32.6757 29.6323 32.2752 29.7924 31.8748C29.9526 31.4744 30.273 31.6345 30.5933 31.7146C30.5132 31.7146 30.5133 31.6345 30.4332 31.6345C30.5133 32.1151 30.3531 32.4354 29.8725 32.3553C29.7124 32.3553 29.4721 32.3553 29.392 32.5155C29.4721 32.5155 29.392 32.5956 29.5522 32.6757Z" fill="#EA931F"/>
<path d="M27.3098 37.8813C27.3098 39.403 27.2298 43.5675 29.8726 42.2061C30.2731 41.9658 29.9527 41.6454 29.5523 41.8056C27.8704 42.6866 28.0306 38.6021 28.0306 37.8013C27.9505 37.4008 27.3098 37.561 27.3098 37.8813Z" fill="#EA931F"/>
<path d="M27.4701 39.8833C27.8705 39.8833 28.351 39.8833 28.7515 39.8833C28.9116 39.8833 29.1519 39.8033 29.232 39.7232C29.3121 39.563 29.1519 39.4829 29.0718 39.4829C28.6714 39.4829 28.1909 39.4829 27.7904 39.4829C27.6302 39.4829 27.39 39.563 27.3099 39.6431C27.2298 39.8033 27.39 39.8833 27.4701 39.8833Z" fill="#EA931F"/>
<path d="M30.0328 39.1627C29.9527 40.284 30.5133 42.2861 32.035 41.8056C33.6367 41.245 32.5956 39.3229 33.0761 38.2017C33.2363 37.8013 32.5155 37.8813 32.4354 38.1216C32.1151 39.0026 32.5155 40.0437 32.2753 40.9247C31.9549 41.7255 31.3142 41.245 31.0739 40.6844C30.8337 40.2039 30.7536 39.6433 30.8337 39.1627C30.7536 38.7623 30.0328 38.8424 30.0328 39.1627Z" fill="#EA931F"/>
<path d="M29.3119 46.6109C29.5521 47.4919 29.5521 48.4529 29.7123 49.3339C29.7924 49.6542 30.4331 49.494 30.4331 49.1737C30.2729 48.2927 30.1928 47.3317 30.0327 46.4507C29.9526 46.0503 29.2318 46.2906 29.3119 46.6109Z" fill="#EA931F"/>
<path d="M28.9917 45.1694C28.9917 45.3296 28.9917 45.4097 28.9917 45.5698C28.9917 45.73 29.7125 45.6499 29.7125 45.4097C29.7125 45.2495 29.7125 45.1694 29.7125 45.0092C29.7125 44.769 28.9917 44.9291 28.9917 45.1694C28.9917 45.3296 28.9917 45.4097 28.9917 45.5698C28.9917 45.73 29.7125 45.6499 29.7125 45.4097C29.7125 45.2495 29.7125 45.1694 29.7125 45.0092C29.7125 44.769 28.9917 44.9291 28.9917 45.1694Z" fill="#EA931F"/>
<path d="M30.1926 44.3683C30.0324 45.8899 30.9134 47.2514 31.2338 48.773C31.2338 48.9332 31.5541 48.9332 31.6342 48.8531C31.9546 48.7731 32.2749 48.773 32.5952 48.693C32.9957 48.6129 32.9156 48.2124 32.5152 48.2925C32.1948 48.3726 31.8745 48.3726 31.5541 48.4527C31.7143 48.4527 31.7944 48.5328 31.9546 48.5328C31.6342 47.0912 30.7533 45.8098 30.9134 44.2882C30.9134 43.9678 30.1926 44.0479 30.1926 44.3683Z" fill="#EA931F"/>
<path d="M35.5586 42.6865C35.5586 45.1692 35.2383 47.732 35.2383 50.2147C35.4785 50.1346 35.7188 50.0545 35.959 50.0545C35.959 49.9744 35.959 49.9744 35.959 49.8943C35.959 49.7342 35.2383 49.8143 35.2383 50.0545C35.2383 50.1346 35.2383 50.1346 35.2383 50.2147C35.2383 50.3749 35.959 50.2948 35.959 50.0545C35.959 47.5718 36.1993 45.009 36.2794 42.5263C36.1993 42.2861 35.5586 42.4462 35.5586 42.6865Z" fill="#EA931F"/>
<path d="M37.4004 45.4897C38.2814 45.6498 39.4026 45.3295 39.0823 44.2083C39.0823 44.1282 39.0022 44.1282 38.9221 44.1282C38.5216 44.0481 38.1212 44.0481 37.7208 44.1282C37.6407 44.1282 37.4004 44.2083 37.4004 44.3684C37.2402 45.1693 37 46.1304 38.0411 46.5308C38.6018 46.7711 39.6428 46.691 39.803 45.9702C39.8831 45.7299 39.1624 45.8901 39.0823 46.0503C38.9221 46.6109 38.2013 46.0503 38.0411 45.7299C37.8009 45.2494 37.9611 44.6888 38.0411 44.2083C37.9611 44.2884 37.8009 44.3684 37.7208 44.4485C37.961 44.3684 38.2013 44.4485 38.4416 44.4485C38.3615 44.4485 38.3615 44.3684 38.2814 44.3684C38.3615 44.5286 38.4416 44.849 38.2814 45.0892C38.1212 45.2494 37.8809 45.1693 37.7208 45.1693C37.6407 45.0892 37 45.4096 37.4004 45.4897Z" fill="#EA931F"/>
<path d="M39.0028 42.206C39.243 43.6476 39.8037 45.0091 40.3643 46.3706C40.3643 46.4506 40.5244 46.5307 40.6045 46.5307C40.8448 46.5307 41.085 46.6108 41.4054 46.5307C41.8058 46.5307 41.966 46.0502 41.4855 46.0502C41.2453 46.0502 41.0851 46.0502 40.8448 46.0502C40.9249 46.1303 41.005 46.1303 41.0851 46.2104C40.6046 44.8489 39.9638 43.4874 39.7236 42.0459C39.6435 41.8056 38.9227 41.9658 39.0028 42.206Z" fill="#EA931F"/>
<path d="M41.1646 41.7256C41.1646 43.4074 41.565 44.929 41.8854 46.5308C41.9654 46.691 42.2858 46.691 42.3659 46.6109C42.526 46.5308 42.8464 46.4507 43.0867 46.3706C43.5672 46.2104 43.1667 45.81 42.7663 45.9702C42.4459 46.1304 42.3659 46.1304 42.0455 46.2104C42.2057 46.2104 42.3659 46.2905 42.526 46.2905C42.2057 44.6888 41.8052 43.2472 41.8052 41.5654C41.8853 41.3251 41.1646 41.4853 41.1646 41.7256Z" fill="#EA931F"/>
<path d="M43.6475 44.4484C44.5285 44.6086 45.4094 44.2081 45.1692 43.167C45.1692 43.0869 45.0891 43.0869 45.009 43.0869C44.5285 43.0869 43.9679 43.167 43.6475 43.6475C43.4073 44.1281 43.4073 44.6887 43.4873 45.1692C43.4873 45.1692 43.4873 45.2493 43.5674 45.2493C44.2882 45.4895 45.2493 45.5696 45.7298 44.8488C45.8099 44.7688 45.7298 44.6887 45.6497 44.6887C45.4895 44.6887 45.3294 44.6887 45.2493 44.6887C45.0891 44.6887 44.4484 44.9289 44.7687 45.009C44.9289 45.009 45.009 45.009 45.1692 45.009C45.1692 44.9289 45.0891 44.9289 45.0891 44.8488C44.9289 45.009 44.8488 45.0891 44.6085 45.0891C44.5285 45.0891 44.2882 45.0891 44.2081 45.009C44.128 44.9289 44.128 44.6086 44.128 44.4484C44.128 44.2081 44.2081 43.4073 44.5285 43.4073C44.4484 43.4073 44.4484 43.3272 44.3683 43.3272C44.3683 43.4874 44.4484 43.7276 44.3683 43.8878C44.2882 44.128 44.2081 44.1281 43.9679 44.048C43.8878 44.1281 43.2471 44.4484 43.6475 44.4484Z" fill="#EA931F"/>
<path d="M29.9528 55.7409C34.3576 55.4205 38.6022 53.8989 43.007 53.4984C43.2473 53.4984 43.7278 53.098 43.3274 53.1781C38.9226 53.5785 34.678 55.1002 30.2732 55.4205C30.0329 55.4205 29.4723 55.7409 29.9528 55.7409Z" fill="#EA931F"/>
<path d="M30.7535 60.626C35.799 60.2256 40.6042 57.7429 45.5696 56.5416C45.9701 56.4615 45.89 56.0611 45.4896 56.1411C40.6843 57.3425 35.799 59.7451 30.9137 60.1455C30.4332 60.2256 30.273 60.7061 30.7535 60.626Z" fill="#EA931F"/>
<path d="M31.5544 65.5112C36.9202 65.1909 42.2861 64.9506 47.3316 62.7883C47.8121 62.6281 47.3316 62.4679 47.0913 62.6281C42.2861 64.7104 37.0003 64.9506 31.8748 65.1909C31.6345 65.1909 31.0739 65.5112 31.5544 65.5112Z" fill="#EA931F"/>
<path d="M31.2343 71.2776C31.0741 72.2386 31.3143 73.9205 32.5957 73.8404C34.1975 73.6802 34.1174 71.9183 33.8772 70.7971C33.7971 70.5568 33.1564 70.717 33.1564 70.9572C33.2365 71.4378 33.5568 73.6001 32.5157 73.3599C31.7949 73.1196 31.7949 71.7581 31.875 71.1975C31.9551 70.9572 31.2343 71.0373 31.2343 71.2776Z" fill="#EA931F"/>
<path d="M34.9982 70.3165C34.838 71.2775 34.758 72.2386 34.838 73.1996C34.838 73.4399 35.4787 73.2797 35.5588 73.0395C35.6389 72.4789 35.4787 71.9983 35.3986 71.4377C35.3185 71.0373 35.3986 69.4355 36.2796 69.9962C36.68 70.2364 36.5999 71.1174 36.5999 71.5178C36.5999 71.9983 36.5198 72.4789 36.5999 72.9594C36.5999 73.1996 37.3207 73.0395 37.3207 72.7992C37.2406 71.8382 37.8813 69.5156 36.1995 69.5156C35.4787 69.5156 34.838 69.9161 34.7579 70.6369C34.5978 71.4377 34.9982 72.3187 34.9181 73.1195C35.1584 73.0395 35.3987 73.0395 35.6389 72.9594C35.5588 71.9983 35.6389 71.1174 35.799 70.1563C35.719 69.9161 34.9982 69.9961 34.9982 70.3165Z" fill="#EA931F"/>
<path d="M39.1628 71.9185C39.1628 72.3991 39.0027 72.8796 38.5221 73.1198C38.6823 73.1198 38.7624 73.1199 38.9226 73.0398V72.8796C38.9226 72.7194 38.2018 72.8796 38.2018 73.0398C38.2018 73.1999 38.1217 73.28 38.362 73.28C38.6022 73.28 38.9226 73.1199 39.0828 73.0398C39.5633 72.7194 39.8035 72.2389 39.8035 71.6783C39.8035 71.5982 39.1628 71.7584 39.1628 71.9185Z" fill="#EA931F"/>
<path d="M43.9681 68.6349C42.1261 67.9942 41.4854 69.9963 41.4053 71.4379C41.4053 71.4379 41.4053 71.4379 41.4854 71.4379C42.4464 71.7583 43.6477 71.6782 43.888 70.4769C44.1283 69.1154 43.5676 67.7539 43.8079 66.3924C43.8079 66.2322 43.1672 66.3123 43.0871 66.5526C42.8469 67.7539 43.3274 68.9552 43.2473 70.1565C43.2473 70.5569 42.9269 71.9985 42.2061 71.2777C41.7256 70.8773 42.4464 68.5548 43.2473 68.8751C43.5677 68.9552 44.0482 68.6349 43.9681 68.6349Z" fill="#EA931F"/>
<path d="M44.7685 69.5159C45.4092 69.676 46.2901 69.596 46.5304 68.8752C46.7707 68.1544 46.0498 67.834 45.4091 67.9141C45.249 67.9141 45.0087 67.9942 44.9286 68.1544C44.7685 68.7951 44.0477 69.9964 44.9286 70.4769C45.6494 70.8773 46.7706 70.3968 47.1711 69.676C47.3313 69.4358 46.6105 69.5159 46.5304 69.676C46.21 70.1566 45.3291 70.4769 45.249 69.676C45.1689 69.1154 45.4893 68.5548 45.6494 68.0743C45.4893 68.1544 45.3291 68.2345 45.1689 68.3145C45.4892 68.3145 45.8897 68.3946 45.8897 68.7951C45.8897 69.1154 45.6494 69.3557 45.3291 69.1955C45.1689 69.1154 45.0088 69.1955 44.8486 69.2756C44.7685 69.3557 44.6083 69.5159 44.7685 69.5159Z" fill="#EA931F"/>
<path d="M47.0914 67.834C46.691 68.8751 47.4918 69.9963 48.6131 69.7561C49.8144 69.5158 49.7343 68.3145 49.7343 67.2734C49.7343 67.1933 49.0135 67.2734 49.0135 67.4335C49.0135 67.7539 49.0135 68.1543 49.0135 68.4747C49.0135 68.7149 48.9334 69.3556 48.6131 69.4357C48.2927 69.5158 47.8923 68.9552 47.8122 68.7149C47.652 68.3946 47.652 67.9941 47.7321 67.5937C47.8122 67.5937 47.0914 67.6738 47.0914 67.834Z" fill="#EA931F"/>
<path d="M49.9742 67.3533C50.9352 67.7538 51.4158 68.7148 52.1366 69.4356C52.2967 69.5958 52.9374 69.3555 52.7772 69.1953C52.0565 68.4746 51.5759 67.5135 50.5348 67.1131C50.3746 66.9529 49.7339 67.2733 49.9742 67.3533Z" fill="#EA931F"/>
<path d="M52.4571 66.953C51.3359 67.914 50.2948 68.9552 49.4939 70.1565C49.2536 70.4768 49.9744 70.4768 50.1346 70.2366C50.9354 69.1153 51.8965 68.1543 52.9376 67.2733C53.258 66.8729 52.6974 66.7127 52.4571 66.953Z" fill="#EA931F"/>
<path d="M54.3789 69.1154C54.2988 69.9163 53.7382 70.4769 53.1776 70.9574C53.0975 71.0375 53.2577 71.1176 53.3378 71.1176C53.4979 71.1176 53.6581 71.0375 53.8183 70.9574C54.3789 70.3968 54.9395 69.8362 55.0997 69.0353C55.0997 68.8751 54.3789 68.9552 54.3789 69.1154Z" fill="#EA931F"/>
<path d="M56.3813 64.4703C56.2212 65.5114 55.6605 67.1933 56.2211 68.2344C56.6216 68.8751 57.5026 68.8751 58.1433 68.9552C58.4636 69.0353 58.864 68.5547 58.3835 68.4747C57.6627 68.3946 56.9419 68.3946 56.7818 67.5937C56.5415 66.6327 56.942 65.4313 57.1021 64.3902C57.1021 64.0699 56.4614 64.15 56.3813 64.4703Z" fill="#EA931F"/>
<path d="M56.3014 66.1521C56.7019 66.2322 57.1023 66.3123 57.5028 66.3924C57.6629 66.3924 57.8231 66.3924 57.9833 66.3123C58.0633 66.3123 58.2236 66.1521 58.0634 66.1521C57.6629 66.072 57.2625 65.992 56.8621 65.9119C56.7019 65.9119 56.5417 65.9119 56.3815 65.992C56.3014 65.992 56.1413 66.1521 56.3014 66.1521Z" fill="#EA931F"/>
<path d="M58.9444 65.7516C58.7843 66.6326 58.7843 67.5136 58.7843 68.4746C58.7843 68.5547 59.425 68.4746 59.5051 68.3144C59.6652 67.3534 59.3449 66.4724 59.5851 65.5114C59.425 65.5915 59.2648 65.6716 59.1046 65.6716C59.5851 65.5915 59.9856 65.9118 59.9856 66.3923C59.9856 66.5525 59.7453 66.7928 59.7453 66.8729C59.6652 66.9529 59.6652 66.9529 59.9055 66.8729C59.8254 66.8729 59.8254 66.8729 59.7453 66.7928C59.6652 66.7127 59.505 66.6326 59.4249 66.5525C59.1847 66.6326 59.0245 66.7127 58.7843 66.7928C59.6652 66.8729 60.0656 67.6737 60.6263 68.3144C60.7864 68.4746 61.3471 68.1542 61.3471 68.1542C60.7864 67.5136 60.386 66.6326 59.4249 66.5525C59.3449 66.5525 58.7042 66.6326 58.7843 66.7928C59.2648 67.2733 60.2258 67.2733 60.6263 66.6326C61.1068 65.7516 60.1458 65.4313 59.5051 65.5114C59.425 65.5114 59.0245 65.5915 59.0245 65.6716C58.7842 66.6326 59.1046 67.5936 58.9444 68.4746C59.1847 68.3945 59.425 68.3144 59.6652 68.3144C59.6652 67.4335 59.7453 66.5525 59.8254 65.5915C59.5851 65.5915 58.9444 65.5915 58.9444 65.7516Z" fill="#EA931F"/>
<path d="M62.8682 65.1911C62.2275 65.0309 61.5067 65.2712 61.2665 65.9119C61.0262 66.4725 61.0262 67.2734 61.3466 67.7539C61.8271 68.3946 62.628 68.5548 63.2687 67.9942C63.7492 67.5136 63.8293 66.6327 63.9094 65.992C63.5089 65.8318 63.1886 65.5916 62.8682 65.1911C62.7881 65.0309 62.1474 65.3513 62.2275 65.4314C62.4678 65.7517 62.708 65.9119 63.0284 66.1522C63.1885 66.3123 63.1885 66.3924 63.1885 66.6327C63.1885 66.7929 63.1085 66.873 63.1085 67.0331C63.0284 67.2734 62.9483 67.5136 62.8682 67.7539C62.7881 67.834 62.708 67.9942 62.6279 68.0743C62.5478 68.1543 62.708 68.0743 62.6279 68.0743C62.5478 68.0743 62.4678 67.9942 62.3877 67.9141C61.9072 67.5937 61.747 67.1933 61.747 66.6327C61.747 66.3924 61.747 66.0721 61.8271 65.8318C61.8271 65.7517 61.9072 65.6716 61.9872 65.5115C62.0673 65.3513 62.0673 65.3513 62.2275 65.3513C62.4678 65.5115 63.1085 65.2712 62.8682 65.1911Z" fill="#EA931F"/>
<path d="M63.9095 64.951C63.7493 65.912 63.7493 66.793 63.9896 67.754C64.0696 67.9943 64.7104 67.754 64.7104 67.5939C64.4701 66.6328 64.5502 65.8319 64.6302 64.8709C64.7103 64.6306 63.9896 64.7107 63.9095 64.951Z" fill="#EA931F"/>
<path d="M66.3922 64.5503C65.4312 64.7105 65.1909 65.3512 65.1108 66.2321C65.1108 66.2321 65.1108 66.3122 65.1909 66.3122C65.5913 66.3923 65.9117 66.3923 66.3121 66.3923C66.5524 66.3923 66.7126 66.3923 66.7126 66.6326C66.7126 66.7927 66.6325 67.033 66.5524 67.1932C66.7126 67.1131 66.9528 67.033 67.113 66.9529C66.6325 66.9529 66.232 66.9529 65.8316 67.033C65.7515 67.033 65.4312 67.1131 65.3511 67.1932C65.271 67.2733 65.4312 67.3533 65.5113 67.3533C65.9117 67.2733 66.3121 67.2733 66.7126 67.2733C66.8728 67.2733 67.1931 67.2733 67.2732 67.033C67.3533 66.7927 67.4333 66.4724 67.4333 66.152C67.4333 66.152 67.4334 66.072 67.3533 66.072C67.0329 65.9919 65.9918 66.072 65.8316 65.8317C65.7515 65.5914 65.9918 64.7906 66.232 64.7105C66.5524 64.7906 66.8727 64.5503 66.3922 64.5503Z" fill="#EA931F"/>
<path d="M64.7905 63.6692C64.3901 63.7493 63.9096 63.9094 64.1499 64.39C64.2299 64.5501 64.8707 64.3099 64.8707 64.2298C64.8707 64.1497 64.7905 64.1497 64.7905 64.0696C64.7905 63.9095 64.7905 63.9094 64.6304 63.9895C64.9507 63.9094 65.2711 63.6692 64.7905 63.6692Z" fill="#EA931F"/>
<path d="M34.9179 77.6046C33.7166 77.3643 32.5153 77.2843 32.1148 78.7258C31.7144 80.1674 33.0759 80.4877 34.2772 80.5678C34.4374 80.5678 34.7577 80.4877 34.7577 80.3276C34.8378 79.4466 35.6387 78.4055 34.9179 77.6046C34.8378 77.4444 34.2772 77.6046 34.2772 77.8449C34.3573 78.5657 34.5975 79.2063 34.7577 79.9271C34.9179 80.6479 34.9179 81.2886 34.9179 82.0094C34.9179 82.2497 35.6387 82.0895 35.6387 81.8492C35.6387 81.1284 35.6387 80.4077 35.4785 79.767C35.3183 79.0462 34.998 78.4055 34.9179 77.6046C34.7577 77.6847 34.5175 77.7648 34.2772 77.8449C34.8378 78.5657 34.1971 79.6068 34.0369 80.3276C34.1971 80.2475 34.3573 80.1674 34.5174 80.0873C33.7967 80.0873 32.8356 80.0072 32.7555 79.1263C32.7555 78.7258 32.9157 78.0851 33.2361 77.8449C33.5564 77.6046 34.0369 77.8449 34.4374 77.925C34.6776 78.0851 35.3183 77.6847 34.9179 77.6046Z" fill="#EA931F"/>
<path d="M35.6389 77.5245C35.5588 78.3254 35.5588 79.6869 36.5999 79.6869C37.1605 79.6869 37.7211 79.3665 37.8012 78.886C37.9614 78.3254 37.7212 77.8448 37.6411 77.2842C37.561 76.9639 36.8402 77.1241 36.9203 77.4444C37.0004 77.7648 37.1605 78.1652 37.1605 78.4855C37.1605 78.8059 37.0805 79.2864 36.68 79.1262C36.1995 78.9661 36.2796 77.8448 36.3597 77.4444C36.3597 77.1241 35.719 77.2041 35.6389 77.5245Z" fill="#EA931F"/>
<path d="M38.5219 76.7236C38.5219 76.6435 38.5219 76.4033 38.6821 76.4033C38.7622 76.4033 38.9224 76.5635 39.0024 76.5635C39.0825 76.7236 39.1627 76.8838 39.2427 77.044C39.3228 77.4444 39.4029 77.8449 39.483 78.2453C39.483 78.4055 40.1237 78.2453 40.2037 78.0851C40.2838 77.5245 39.7232 76.8037 39.1626 76.8838C38.4418 76.8838 38.0414 77.5245 37.9613 78.1652C37.8011 78.8059 38.1215 79.2864 38.8423 79.1263C39.4029 79.0462 40.0436 78.5656 40.2839 78.005C40.364 77.9249 39.6431 77.9249 39.5631 78.1652C39.483 78.4055 39.0825 78.9661 38.9224 78.886C38.5219 78.8059 38.6821 78.0851 38.7622 77.8449C38.8423 77.6847 38.8423 77.5245 39.0024 77.3643C39.0024 77.2842 39.0825 77.2042 39.1626 77.1241C38.9224 77.2842 39.0825 77.2842 39.1626 77.3643C39.4029 77.6046 39.6431 78.005 39.5631 78.3254C39.8033 78.2453 40.0436 78.1652 40.2839 78.1652C40.1237 77.6046 40.1237 76.4834 39.483 76.2431C38.9224 76.0829 37.9613 76.3232 37.9613 76.9639C37.8812 77.044 38.5219 76.9639 38.5219 76.7236Z" fill="#EA931F"/>
<path d="M40.0433 75.2019C39.9632 76.243 40.0433 79.5266 41.8853 78.2452C42.2857 78.0049 41.7251 77.7647 41.4047 77.9248C40.8441 78.3253 40.684 75.4421 40.684 75.0417C40.7641 74.8014 40.0433 74.9616 40.0433 75.2019Z" fill="#EA931F"/>
<path d="M41.6452 76.0831C41.5651 76.7238 41.9655 77.2043 42.0456 77.845C42.1257 78.1653 42.7664 77.9251 42.7664 77.6848C42.6863 77.2844 41.8053 76.4835 42.2057 76.0831C42.3659 75.9229 42.9265 75.8428 43.0066 76.1632C43.0867 76.5636 42.2859 76.4835 42.0456 76.4835C41.8854 76.4835 41.5651 76.8039 41.8854 76.8839C42.446 77.0441 42.8464 77.5246 43.327 77.845C43.5672 78.0052 44.1279 77.6848 43.8876 77.4446C43.4071 77.0441 42.9265 76.5636 42.2858 76.4034C42.2058 76.5636 42.2058 76.6437 42.1257 76.8039C42.446 76.7238 42.7664 76.8839 43.1668 76.7238C43.407 76.6437 43.6473 76.4034 43.7274 76.0831C43.8075 75.4424 43.0867 75.3623 42.6062 75.4424C42.2057 75.5225 41.4849 75.7627 41.4049 76.2432C41.3248 76.8839 41.9655 77.2043 42.0456 77.7649C42.2859 77.6848 42.5261 77.6047 42.7664 77.6047C42.6863 77.0441 42.2858 76.5636 42.3659 76.003C42.446 75.6826 41.7252 75.8428 41.6452 76.0831Z" fill="#EA931F"/>
<path d="M40.1236 76.243C40.3639 76.243 40.6042 76.323 40.8444 76.323C41.0046 76.323 41.6453 76.0828 41.3249 76.0027C41.0847 76.0027 40.8444 75.9226 40.6041 75.9226C40.4439 75.9226 39.8033 76.243 40.1236 76.243Z" fill="#EA931F"/>
<path d="M44.1281 76.4034C44.5285 76.4835 45.009 76.6437 45.4896 76.4835C45.9701 76.3233 45.9701 75.8428 45.9701 75.3623C45.9701 75.2822 45.89 75.2822 45.8099 75.2822C44.8488 75.0419 43.7277 75.6025 44.048 76.7238C44.3684 77.9251 45.7298 77.6848 46.4506 77.0441C46.771 76.8038 46.0502 76.8038 45.89 76.964C45.6497 77.1242 45.4896 77.3645 45.1692 77.2043C44.9289 77.0441 44.7688 76.8038 44.7688 76.5636C44.6887 76.3233 44.6887 76.0831 44.8489 75.8428C45.0091 75.6025 45.2493 75.6826 45.4896 75.7627C45.4095 75.7627 45.4095 75.6826 45.3294 75.6826C45.3294 75.8428 45.3294 76.003 45.2493 76.1631C45.2493 76.2432 45.1692 76.3233 45.2493 76.3233C45.0891 76.4034 44.7688 76.2432 44.5285 76.1631C44.3683 75.9229 43.8077 76.2432 44.1281 76.4034Z" fill="#EA931F"/>
<path d="M47.892 76.7237C47.892 76.9639 47.892 77.6047 47.5717 77.6847C47.4916 77.7648 47.3314 77.8449 47.4115 78.0051C47.4916 78.1653 47.7319 78.0852 47.892 78.0051C48.5327 77.7648 48.5327 77.2843 48.6128 76.6436C48.6128 76.4033 47.9721 76.4834 47.892 76.7237Z" fill="#EA931F"/>
<path d="M51.3359 74.3209C50.7753 74.2408 50.1346 74.2408 49.8944 74.8014C49.7342 75.2018 49.574 75.8425 49.6541 76.323C49.8944 77.3642 51.7364 77.1239 51.9766 76.243C52.0567 75.9226 51.3359 76.0828 51.2559 76.323C51.1758 76.5633 50.8554 76.5633 50.6151 76.4832C50.3749 76.4031 50.2948 76.1629 50.2948 75.9226C50.2948 75.6823 50.3749 75.362 50.455 75.1217C50.455 75.0417 50.535 74.8815 50.6151 74.8014C50.6952 74.7213 51.0156 74.8014 51.0957 74.8014C51.3359 74.8014 51.8164 74.3209 51.3359 74.3209Z" fill="#EA931F"/>
<path d="M51.8965 74.3212C51.8164 74.9619 51.8964 75.5225 51.9765 76.1632C51.9765 76.3233 52.6973 76.1632 52.6973 76.003C52.6172 75.4424 52.5371 74.8818 52.6172 74.3212C52.6172 74.0008 51.9765 74.0809 51.8965 74.3212Z" fill="#EA931F"/>
<path d="M53.8986 76.2432C53.8986 76.003 53.5783 74.8016 53.9787 74.8016C54.219 74.8016 54.2991 75.2021 54.3791 75.2822C54.4592 75.5224 54.6194 75.7627 54.7796 76.003C55.0198 76.2432 55.6605 75.9229 55.4203 75.6826C55.0999 75.3623 55.1 74.9618 54.8597 74.6415C54.6194 74.3211 54.2991 74.241 53.8986 74.3211C52.8575 74.5614 53.1778 75.5224 53.1778 76.3233C53.2579 76.6436 53.9787 76.4835 53.8986 76.2432Z" fill="#EA931F"/>
<path d="M56.7015 73.7602C56.0608 73.6801 55.5803 74.1607 55.4201 74.7213C55.2599 75.5221 55.8206 75.9226 56.5413 75.9226C56.7015 75.9226 56.9418 75.8425 57.0218 75.6823C57.2621 75.1217 57.5024 74.6412 57.3422 74.0005C57.2621 73.6801 56.6214 73.9204 56.6214 74.1607C56.8617 75.2819 57.182 76.5633 56.9418 77.7646C56.8617 78.0849 57.5825 78.0049 57.6626 77.6845C57.9028 76.4832 57.5825 75.1217 57.3422 73.9204C57.1019 74.0005 56.8617 74.0806 56.6214 74.0806C56.7816 74.5611 56.5413 75.0416 56.3812 75.5221C56.5413 75.4421 56.7015 75.362 56.8617 75.2819C56.4613 75.2819 56.1409 75.1217 56.1409 74.7213C56.1409 74.5611 56.221 74.0005 56.5413 74.0806C56.7816 74.2408 57.182 73.8403 56.7015 73.7602Z" fill="#EA931F"/>
<path d="M59.6647 74.4813C59.6647 74.8016 59.6647 75.2822 59.4244 75.5224C59.1841 75.8428 59.8248 76.0029 59.985 75.6826C60.2253 75.2822 60.3054 74.8016 60.3054 74.4012C60.3855 74.0808 59.7448 74.1609 59.6647 74.4813Z" fill="#EA931F"/>
<path d="M63.749 70.8771C62.9481 70.6368 61.8269 71.2775 62.2273 72.2386C62.5477 72.9593 63.4287 72.3187 63.9092 72.639C64.3096 73.0394 63.8291 73.4399 63.5088 73.6C63.0282 73.7602 62.7079 73.7602 62.8681 73.1195C62.9482 72.7992 62.2274 72.8793 62.1473 73.1996C61.9871 73.8403 62.3074 74.1606 62.9481 74.1606C63.5087 74.1606 64.1494 73.8403 64.5499 73.4399C64.9503 73.0394 64.8702 72.3987 64.3897 72.1585C64.0693 71.9983 63.6689 72.0784 63.3486 72.0784C63.1884 72.0784 63.1083 72.0784 63.0282 71.9182C62.868 71.5979 63.0282 71.1173 63.4286 71.1974C63.5888 71.4377 64.1494 71.0373 63.749 70.8771Z" fill="#EA931F"/>
<path d="M64.9504 71.9983C64.8703 72.5589 64.7902 73.0394 64.9504 73.6C65.0305 73.8403 65.7513 73.6801 65.6712 73.4399C65.511 72.9593 65.6712 72.4788 65.6712 71.9983C65.7513 71.5979 65.0305 71.758 64.9504 71.9983Z" fill="#EA931F"/>
<path d="M65.1108 71.1174C65.1108 71.5178 65.271 71.678 65.7515 71.678C65.8316 71.678 66.232 71.5979 66.232 71.4378C66.232 71.1975 66.2321 71.1174 66.0719 70.9572C65.9117 70.7971 65.271 71.0373 65.4312 71.1975C65.5112 71.2776 65.5913 71.3577 65.5913 71.5178C65.7515 71.4378 65.9117 71.3577 66.0719 71.2776C65.9117 71.2776 65.8316 71.1975 65.9117 70.9572C65.8316 70.717 65.1108 70.8771 65.1108 71.1174Z" fill="#EA931F"/>
<path d="M66.3123 71.6782C66.953 71.8384 67.4335 72.3189 67.9941 72.6393C68.2343 72.7994 68.875 72.4791 68.5547 72.2388C67.9941 71.8384 67.4335 71.3579 66.7928 71.1977C66.3923 71.1176 65.9118 71.5981 66.3123 71.6782Z" fill="#EA931F"/>
<path d="M67.5934 71.438C67.5133 71.8384 67.273 72.1587 67.0328 72.4791C66.7925 72.7994 66.5523 73.1999 66.2319 73.36C65.8315 73.6003 66.2319 73.9207 66.5523 73.6804C66.9527 73.4401 67.273 73.0397 67.5934 72.6393C67.9137 72.2388 68.154 71.7583 68.3142 71.2778C68.3943 71.0375 67.6735 71.1977 67.5934 71.438Z" fill="#EA931F"/>
<path d="M33.8772 87.8557C38.7625 87.3751 43.4076 85.2128 48.2929 84.4119C51.9769 83.7712 55.741 83.2106 59.425 82.4898C59.8254 82.4097 59.7453 82.0093 59.3449 82.0894C55.4206 82.8903 51.4964 83.4509 47.5721 84.1716C43.0071 84.9725 38.6023 87.0548 33.9573 87.5353C33.6369 87.4552 33.3967 87.9357 33.8772 87.8557Z" fill="#EA931F"/>
<path d="M34.678 92.741C40.0438 92.3406 45.4097 91.2995 50.6954 90.2583C55.5807 89.2973 60.8665 88.5765 65.5116 86.5743C65.9921 86.4141 65.5116 86.254 65.2713 86.334C60.4661 88.4163 54.94 89.1371 49.8144 90.0982C44.9291 91.0592 39.9637 92.0202 34.9183 92.4207C34.7581 92.4207 34.2776 92.741 34.678 92.741Z" fill="#EA931F"/>
<path d="M103.556 12.0479C102.919 17.5673 102.794 29.8116 104.977 31.4305L117.098 29.6306L117.086 29.5514C121.531 28.4055 124.452 24.0854 123.758 19.4116L122.452 10.6183C121.711 5.62755 117.071 2.18736 112.08 2.92848L111.209 3.05788C106.772 3.71666 103.543 7.59674 103.556 12.0479Z" fill="#3D2884"/>
<path d="M118.836 18.4421C120.396 15.8625 121.331 12.8899 120.635 9.83563C118.672 0.978049 106.529 4.80543 104.743 9.68556C102.958 14.5657 104.981 26.0053 108.267 26.3269C109.582 26.4556 111.679 25.6208 114.204 23.5455L114.728 35.4881L124.789 33.9941L118.836 18.4421Z" fill="#D6CDE4"/>
<path d="M115.828 17.2694C116.094 22.3307 117.088 27.9317 118.713 29.0667L130.834 27.2668C129.806 15.4366 123.901 20.9285 122.254 9.83788C121.799 9.50061 121.344 9.16334 120.901 8.90528L120.854 8.58841C118.08 4.62824 115.148 2.87754 111.9 3.35986C107.068 4.07745 105.892 6.51908 104.84 8.69953C106.284 11.8855 110.157 11.7962 113.802 13.441C114.151 13.0653 114.603 12.8363 115.157 12.7539C116.425 12.5657 117.608 13.4426 117.796 14.7101C117.984 15.9776 117.107 17.1604 115.84 17.3486C115.919 17.3368 115.919 17.3369 115.828 17.2694Z" fill="#3D2884"/>
<path d="M105.969 16.3044C106.116 16.2016 106.354 16.1663 106.603 16.2102C106.773 16.2659 106.864 16.3334 106.955 16.4008C107.07 16.6267 107.026 16.8762 106.8 16.9907C106.653 17.0934 106.427 17.2079 106.257 17.1522C105.929 17.1201 105.882 16.8032 105.846 16.5655C105.755 16.4981 105.89 16.3161 105.969 16.3044Z" fill="#3D2884"/>
<path d="M104.673 17.3879C104.922 17.4318 105.962 21.1637 106.056 21.7974C105.739 21.8445 104.563 22.1002 104.222 21.9888C103.7 21.7425 103.855 21.1527 103.955 20.7331C104.154 19.8938 103.881 17.5055 104.673 17.3879Z" fill="#D6CDE4"/>
<path d="M107.844 15.2974C107.729 15.0715 107.536 14.8574 107.274 14.7343C107.013 14.6111 106.764 14.5672 106.447 14.6142C106.209 14.6495 105.892 14.6966 105.666 14.8111C105.441 14.9256 105.226 15.1193 105.103 15.3805C105.329 15.266 105.567 15.2307 105.804 15.1954C106.042 15.1601 106.201 15.1366 106.438 15.1013C106.676 15.066 106.846 15.1217 107.084 15.0864C107.345 15.2096 107.583 15.1743 107.844 15.2974Z" fill="#3D2884"/>
<path d="M106.503 24.8077C106.729 24.6932 107.034 24.5669 107.248 24.3732C107.463 24.1795 107.677 23.9858 107.891 23.792C108.319 23.4046 108.656 22.9497 108.812 22.3598L108.289 22.1136C108.099 22.4657 107.738 22.7622 107.286 22.9912C106.834 23.2202 106.383 23.4493 105.919 23.5991C106.418 23.6869 106.972 23.6046 107.515 23.443C108.058 23.2814 108.498 22.9732 108.823 22.4391L108.301 22.1928C108.122 22.6242 107.864 23.0673 107.606 23.5105C107.19 23.9771 106.852 24.432 106.503 24.8077Z" fill="#3D2884"/>
<path d="M117.648 105.875C111.241 105.875 103.072 107.317 93.1416 110.28C99.4685 114.685 106.276 116.847 113.644 116.847C121.012 116.847 129.741 115.406 139.912 112.603C131.503 108.038 124.055 105.875 117.648 105.875Z" fill="#564394"/>
<path d="M107.637 141.834C106.436 149.763 103.153 163.058 101.631 167.863C100.67 170.906 95.3041 169.144 95.8647 166.742C96.4253 164.419 98.5076 131.744 100.35 121.492C100.51 115.165 103.313 82.9704 104.274 77.7648L128.54 74.5613C127.339 81.3687 110.921 120.051 110.12 123.495C110.04 123.655 110.04 123.815 109.96 123.975C109.56 127.739 108.759 134.386 107.637 141.834Z" fill="#D6CDE4"/>
<path d="M103.153 167.222C102.912 166.822 102.352 166.741 101.951 166.982C100.91 167.622 100.109 167.943 99.4686 168.023C98.6677 168.103 97.7067 168.023 96.3452 167.622L95.3842 166.101C95.224 165.941 94.9837 165.861 94.8235 165.941L84.4923 171.947C83.6113 172.187 82.5702 172.428 81.2888 172.828C80.0074 173.148 79.7672 174.19 80.6481 176.032C95.5443 174.029 103.393 172.988 104.274 172.908C104.354 171.547 104.274 170.506 104.194 169.785C104.194 169.224 103.793 168.423 103.153 167.222C103.153 167.302 103.153 167.302 103.153 167.222Z" fill="#897AB4"/>
<path d="M123.255 142.795C123.415 150.804 122.454 164.339 121.813 169.304C121.413 172.428 115.726 171.547 115.886 169.064C116.047 166.661 112.523 134.146 112.603 123.735C111.642 117.408 108.999 85.2929 108.999 80.0071L132.384 73.1997C132.384 80.0872 122.774 120.611 122.534 124.215C122.534 124.375 122.454 124.536 122.454 124.696C122.694 128.54 123.014 135.267 123.255 142.795Z" fill="#D6CDE4"/>
<path d="M123.094 168.503C122.774 168.183 122.213 168.183 121.893 168.423C121.012 169.144 120.211 169.625 119.65 169.785C118.93 170.025 117.889 170.025 116.527 169.865L115.326 168.503C115.166 168.343 114.925 168.343 114.765 168.503L105.555 175.951C104.754 176.352 103.713 176.752 102.512 177.233C101.311 177.713 101.23 178.835 102.432 180.516C116.847 176.352 124.456 174.109 125.257 173.869C125.096 172.508 124.856 171.467 124.616 170.746C124.456 170.345 123.975 169.544 123.094 168.503Z" fill="#897AB4"/>
<path d="M140.073 112.522C125.257 105.555 107.477 117.808 93.1416 110.68C94.423 89.9379 101.631 84.5721 104.594 71.1174C113.083 68.3945 122.133 68.3945 131.664 71.1174C138.391 79.2863 144.317 102.752 140.073 112.522Z" fill="#705FA4"/>
<path d="M87.5354 61.7471L74.0007 56.3813C68.1543 56.9419 65.3513 56.7817 65.5114 55.9809C65.8318 54.6995 67.5136 55.0198 67.9141 54.1388C68.2344 53.338 66.3123 51.5761 64.4703 50.0544C62.6283 48.5327 63.8296 48.2124 64.6305 48.2124C67.4335 48.8531 70.4768 50.1345 73.8405 51.9765L90.5787 54.2189L87.5354 61.7471ZM155.129 92.9811C155.77 94.1824 160.255 97.9465 163.298 100.109C164.579 100.99 164.019 102.031 163.538 102.351C159.694 104.754 157.211 101.951 153.848 100.349C150.244 98.6673 150.484 103.473 147.601 102.111C148.482 100.109 150.564 96.4249 149.603 94.0223C149.203 92.9811 143.837 80.968 133.746 58.1432H143.036C150.244 79.6867 154.328 91.2993 155.129 92.9811Z" fill="#D6CDE4"/>
<path d="M116.046 45.3293C112.362 67.4333 94.5028 75.5221 74.1606 72.9593L77.0438 52.1367C98.8275 55.5804 108.598 45.4093 110.36 29.2317L117.648 28.7512C117.808 33.6365 117.007 39.6431 116.046 45.3293Z" fill="#EA931F"/>
<path d="M121.252 26.5889H121.973C138.231 41.2448 148.802 61.9874 153.848 88.8166H131.584C131.423 83.7711 131.183 78.8057 130.783 74.0005H101.07C104.194 60.0653 110.2 48.0522 110.2 29.1517L121.252 26.5889Z" fill="#F9AA38"/>
<path d="M130.782 74.0006H124.776C126.458 67.8339 126.858 58.784 126.137 47.0112C128.54 55.5005 129.982 64.4702 130.782 74.0006Z" fill="#EA931F"/>
<path d="M287.904 65.7242C289.559 63.7504 290.705 61.3946 290.514 58.6568C289.941 50.8889 279.181 52.6081 277.08 56.492C274.979 60.3759 275.233 70.3085 277.971 71.0089C279.054 71.2636 281.346 70.6269 283.702 69.1625L282.237 79.6045H290.96L287.904 65.7242Z" fill="#D6CDE4"/>
<path d="M276.252 58.2748C276.316 57.7654 276.571 57.1924 276.698 56.7467C276.889 56.11 277.271 55.6006 277.589 55.0276C278.29 54.0089 279.117 53.1175 280.009 52.4171C281.664 51.08 283.765 50.2523 285.867 50.507C286.885 50.6343 287.904 51.0163 288.795 51.7167C289.559 52.2897 290.323 53.1812 291.342 53.2448C292.425 53.3085 293.443 52.3534 294.335 51.7167C295.353 51.0163 296.372 50.5706 297.582 50.3796C299.556 50.0613 301.402 50.698 302.739 52.2898C304.204 54.0089 305.222 56.492 304.267 58.7842C304.076 59.2299 303.885 59.5482 303.567 59.8666C303.249 60.1213 302.803 60.4396 302.676 60.8216C302.548 61.2673 302.93 61.8404 303.058 62.2861C303.249 62.8591 303.44 63.4958 303.376 64.1325C303.249 65.2149 302.612 66.17 301.912 66.8704C301.211 67.5707 300.32 67.9528 299.365 68.1438C298.728 68.2711 298.091 68.3348 297.455 68.2711C297.136 68.2711 296.882 68.1438 296.563 68.0801C296.245 68.0164 296.117 68.0801 295.863 68.2711C294.717 69.0352 293.443 69.3535 292.106 69.2262C290.96 69.1625 289.623 68.8442 288.732 68.0801C287.713 67.1887 287.713 66.0426 287.968 64.7056C287.713 64.8329 287.013 64.8966 287.395 64.3872C287.586 64.1962 287.904 64.1325 288.095 64.0052C288.35 63.8778 288.604 63.6868 288.795 63.4321C289.559 62.5408 288.795 60.6943 287.777 60.3759C286.312 59.9302 285.994 62.0314 284.911 62.5407C284.275 62.8591 283.702 62.4134 283.192 61.9677C282.556 61.3947 282.174 60.6306 281.792 59.8029C281.473 59.1662 281.219 58.5295 280.9 57.8928C280.773 57.5744 280.263 56.7467 280.518 56.4284C279.436 56.2373 278.29 56.683 277.398 57.2561C277.016 57.5108 276.762 57.7654 276.507 58.1475C276.443 58.2111 276.38 58.5295 276.252 58.5295C276.125 58.6568 276.189 58.4022 276.252 58.2748Z" fill="#F9AA38"/>
<path d="M304.458 122.391H278.481L275.042 164.159H313.754L304.458 122.391Z" fill="#EFE8F4"/>
<path d="M304.458 122.391H296.499L291.66 164.159H313.754L304.458 122.391Z" fill="#D6CDE4"/>
<path d="M248.81 115.26C246.008 113.605 241.36 115.706 241.36 118.126C241.36 125.257 247.855 158.811 248.237 160.976C248.555 163.077 252.184 163.65 252.439 160.976C252.757 156.71 253.394 142.002 252.757 135.126C252.503 132.324 252.248 129.65 251.93 127.23C255.368 133.406 260.589 142.193 267.784 153.717L271.668 151.935C268.611 141.875 266.128 134.807 264.155 130.669C260.844 123.601 257.66 117.552 256.387 115.388C254.349 112.077 250.72 113.223 248.81 115.26Z" fill="#EFE8F4"/>
<path d="M271.413 146.332L258.106 114.815C254.922 109.657 246.008 115.833 247.091 118.826C249.574 125.575 262.117 147.414 262.817 149.451L271.413 146.332Z" fill="#BCB1D4"/>
<path d="M272.131 149.909C272.973 150.615 273.484 151.131 273.743 151.574C274.025 152.105 274.431 152.928 274.821 154.035C274.172 154.396 268.733 157.578 258.392 163.518C257.149 162.36 256.948 161.435 257.812 160.83C258.675 160.226 259.365 159.668 259.935 159.189L265.625 151.372C265.72 151.207 265.949 151.192 266.115 151.288L267.288 152.185C268.378 152.08 269.161 151.87 269.691 151.588C270.135 151.329 270.65 150.818 271.183 150.023C271.342 149.747 271.8 149.718 272.131 149.909Z" fill="#BCB1D4"/>
<path d="M253.267 159.257C253.649 160.275 253.84 161.039 253.84 161.485C253.84 162.122 253.712 162.95 253.521 164.159C252.821 164.159 246.518 164.159 234.548 164.159C234.038 162.504 234.357 161.676 235.375 161.549C236.458 161.421 237.349 161.294 238.049 161.167L246.9 157.219C247.091 157.156 247.282 157.219 247.345 157.41L247.918 158.811C248.873 159.257 249.701 159.511 250.338 159.511C250.847 159.511 251.548 159.32 252.439 158.875C252.694 158.684 253.076 158.875 253.267 159.257C253.267 159.193 253.267 159.257 253.267 159.257Z" fill="#BCB1D4"/>
<path d="M240.469 120.545C240.469 129.459 244.735 150.343 244.735 152.317H253.903C252.566 133.725 252.121 124.301 252.503 124.11C253.076 123.792 276.443 126.466 283.447 126.466C293.57 126.466 297.709 120.099 298.027 108.32H278.035C273.96 108.766 252.757 113.032 244.862 114.496C241.36 115.069 240.469 118.062 240.469 120.545Z" fill="#BCB1D4"/>
<path d="M261.098 104.054L251.548 113.35C248.746 114.56 246.518 115.833 244.735 117.298C244.353 117.807 243.907 118.698 245.754 118.316C247.6 117.934 249.637 117.552 249.956 118.189C250.274 118.826 249.255 119.717 249.892 120.545C250.338 121.054 251.802 119.399 254.285 115.451L264.218 109.594L261.098 104.054ZM307.705 95.6497H300.319C305.922 113.859 308.915 123.346 309.233 124.238C309.997 126.148 308.342 129.14 307.642 130.669C309.934 131.687 309.679 127.867 312.608 129.268C315.282 130.478 317.256 132.706 320.312 130.86C320.694 130.605 321.076 129.777 320.121 129.077C317.638 127.358 314.072 124.429 313.563 123.41C312.99 122.073 311.016 112.777 307.705 95.6497Z" fill="#EFE8F4"/>
<path d="M285.229 74.702L282.301 74.1926C277.716 90.4287 254.158 101.444 252.694 107.492C252.184 109.721 253.776 110.867 252.948 111.504L256.705 114.305C257.342 113.541 258.742 114.942 261.544 113.987C264.345 113.032 285.229 93.9306 285.229 74.702Z" fill="#3D2884"/>
<path d="M280.391 76.8667C280.709 98.3238 268.293 103.799 271.095 112.395C273.387 119.526 295.226 127.167 298.982 120.163C300.511 117.361 301.211 113.923 301.275 110.23C302.23 113.095 302.994 115.515 303.567 117.616C304.522 121.182 308.278 121.755 308.278 123.092L313.245 121.755C312.926 119.908 315.218 119.017 314.645 114.814C311.844 96.2226 304.331 82.7244 292.042 74.3835L291.915 72.5371C291.851 71.773 291.215 71.2637 290.451 71.2637L281.409 71.9004C280.645 71.9641 280.136 72.6008 280.136 73.3648L280.391 76.8667Z" fill="#564394"/>
<path d="M275.742 62.7317C275.742 63.8141 274.342 64.7692 274.405 65.8516C274.469 66.8703 275.806 67.0613 276.443 67.3796" fill="#D6CDE4"/>
<path d="M276.188 61.5219C276.315 61.2672 276.506 61.1398 276.761 61.0125C276.952 60.8852 277.207 60.8215 277.461 60.7578C277.716 60.7578 277.971 60.7578 278.225 60.8215C278.48 60.8852 278.735 61.1398 278.735 61.3945C278.48 61.2672 278.289 61.2672 278.098 61.2672C277.907 61.2672 277.716 61.3308 277.525 61.3308C277.143 61.4582 276.697 61.5219 276.188 61.5219Z" fill="#564394"/>
<path d="M276.506 69.0987C276.888 68.844 277.143 68.7167 277.461 68.5893C277.78 68.462 278.098 68.3347 278.544 68.271C278.417 68.7167 278.098 68.9714 277.716 69.1624C277.334 69.2897 276.888 69.3534 276.506 69.0987Z" fill="#564394"/>
<path d="M276.761 62.9226C277.007 62.9226 277.207 62.7231 277.207 62.477C277.207 62.2308 277.007 62.0312 276.761 62.0312C276.515 62.0312 276.315 62.2308 276.315 62.477C276.315 62.7231 276.515 62.9226 276.761 62.9226Z" fill="#564394"/>
<path d="M129.506 118.364C128.614 118.364 127.914 119.701 127.914 121.356C127.914 121.547 127.914 121.802 127.914 121.993C127.914 122.566 127.914 123.203 127.914 123.776C127.914 124.731 127.914 125.686 127.914 126.577C127.914 127.787 127.914 128.997 127.914 130.27C127.914 131.735 127.914 133.199 127.914 134.663C127.914 136.319 127.914 137.974 127.914 139.566C127.914 141.349 127.914 143.132 127.914 144.914C127.914 146.761 127.914 148.607 127.914 150.454C127.914 152.3 127.914 154.21 127.914 156.057C127.914 157.903 127.914 159.75 127.914 161.596C127.914 163.379 127.914 165.162 127.914 166.945C127.914 168.6 127.914 170.255 127.914 171.911C127.914 173.375 127.914 174.84 127.914 176.304C127.914 177.514 127.914 178.787 127.914 179.997C127.914 180.952 127.914 181.907 127.914 182.862C127.914 183.499 127.914 184.072 127.914 184.709C127.914 185.091 127.914 185.473 127.914 185.855C127.914 186.3 128.296 186.492 128.487 186.555C128.805 186.746 129.187 186.81 129.506 186.81C129.824 186.81 130.079 186.746 130.397 186.619C130.588 186.555 130.97 186.428 131.034 186.046C131.034 185.982 131.034 185.918 131.098 185.855C131.161 185.473 131.098 185.027 131.098 184.645C131.098 184.072 131.098 183.435 131.098 182.862C131.098 181.971 131.098 181.016 131.098 180.124C131.098 178.915 131.098 177.769 131.098 176.559C131.098 175.158 131.098 173.757 131.098 172.357C131.098 170.765 131.098 169.237 131.098 167.645C131.098 165.926 131.098 164.27 131.098 162.551C131.098 160.769 131.098 158.986 131.098 157.203C131.098 155.42 131.098 153.574 131.098 151.791C131.098 150.008 131.098 148.162 131.098 146.379C131.098 144.66 131.098 142.877 131.098 141.158C131.098 139.502 131.098 137.911 131.098 136.255C131.098 134.791 131.098 133.326 131.098 131.798C131.098 130.525 131.098 129.251 131.098 127.978C131.098 126.959 131.098 125.941 131.098 124.858C131.098 124.094 131.098 123.394 131.098 122.63C131.098 122.248 131.098 121.866 131.098 121.42C131.098 121.356 131.098 121.293 131.098 121.229C131.098 119.701 130.397 118.364 129.506 118.364Z" fill="#705FA4"/>
<path d="M180.57 108.495C179.678 108.495 178.978 109.832 178.978 111.487C178.978 111.678 178.978 111.933 178.978 112.124C178.978 112.697 178.978 113.334 178.978 113.907C178.978 114.862 178.978 115.817 178.978 116.708C178.978 117.918 178.978 119.128 178.978 120.401C178.978 121.866 178.978 123.33 178.978 124.795C178.978 126.45 178.978 128.105 178.978 129.697C178.978 131.48 178.978 133.263 178.978 135.046C178.978 136.892 178.978 138.738 178.978 140.585C178.978 142.431 178.978 144.342 178.978 146.188C178.978 148.034 178.978 149.881 178.978 151.727C178.978 153.51 178.978 155.293 178.978 157.076C178.978 158.731 178.978 160.387 178.978 162.042C178.978 163.506 178.978 164.971 178.978 166.435C178.978 167.645 178.978 168.918 178.978 170.128C178.978 171.083 178.978 172.038 178.978 172.993C178.978 173.63 178.978 174.203 178.978 174.84C178.978 175.222 178.978 175.604 178.978 175.986C178.978 176.432 179.36 176.623 179.551 176.686C179.869 176.877 180.251 176.941 180.57 176.941C180.888 176.941 181.143 176.877 181.461 176.75C181.652 176.686 182.034 176.559 182.098 176.177C182.098 176.113 182.098 176.05 182.162 175.986C182.225 175.604 182.162 175.158 182.162 174.776C182.162 174.203 182.162 173.566 182.162 172.993C182.162 172.102 182.162 171.147 182.162 170.256C182.162 169.046 182.162 167.9 182.162 166.69C182.162 165.289 182.162 163.888 182.162 162.488C182.162 160.896 182.162 159.368 182.162 157.776C182.162 156.057 182.162 154.401 182.162 152.682C182.162 150.9 182.162 149.117 182.162 147.334C182.162 145.551 182.162 143.705 182.162 141.922C182.162 140.139 182.162 138.293 182.162 136.51C182.162 134.791 182.162 133.008 182.162 131.289C182.162 129.634 182.162 128.042 182.162 126.386C182.162 124.922 182.162 123.458 182.162 121.929C182.162 120.656 182.162 119.383 182.162 118.109C182.162 117.09 182.162 116.072 182.162 114.989C182.162 114.225 182.162 113.525 182.162 112.761C182.162 112.379 182.162 111.997 182.162 111.551C182.162 111.487 182.162 111.424 182.162 111.36C182.162 109.832 181.398 108.495 180.57 108.495Z" fill="#705FA4"/>
<path d="M230.934 117.982C230.042 117.982 229.342 119.319 229.342 120.911C229.342 121.102 229.342 121.356 229.342 121.548C229.342 122.121 229.342 122.757 229.342 123.33C229.342 124.285 229.342 125.177 229.342 126.132C229.342 127.342 229.342 128.551 229.342 129.825C229.342 131.289 229.342 132.754 229.342 134.218C229.342 135.873 229.342 137.465 229.342 139.121C229.342 140.903 229.342 142.623 229.342 144.405C229.342 146.252 229.342 148.098 229.342 149.945C229.342 151.791 229.342 153.701 229.342 155.548C229.342 157.394 229.342 159.241 229.342 161.087C229.342 162.87 229.342 164.653 229.342 166.372C229.342 168.027 229.342 169.683 229.342 171.274C229.342 172.739 229.342 174.203 229.342 175.668C229.342 176.877 229.342 178.151 229.342 179.361C229.342 180.316 229.342 181.271 229.342 182.226C229.342 182.862 229.342 183.435 229.342 184.072C229.342 184.454 229.342 184.836 229.342 185.218C229.342 185.664 229.724 185.855 229.915 185.919C230.233 186.11 230.615 186.173 230.934 186.173C231.252 186.173 231.507 186.11 231.825 185.982C232.016 185.919 232.398 185.791 232.462 185.409C232.462 185.346 232.462 185.282 232.525 185.218C232.589 184.836 232.525 184.391 232.525 184.009C232.525 183.435 232.525 182.799 232.525 182.226C232.525 181.334 232.525 180.379 232.525 179.488C232.525 178.342 232.525 177.132 232.525 175.986C232.525 174.585 232.525 173.184 232.525 171.784C232.525 170.192 232.525 168.664 232.525 167.072C232.525 165.353 232.525 163.698 232.525 161.978C232.525 160.196 232.525 158.413 232.525 156.63C232.525 154.847 232.525 153.001 232.525 151.218C232.525 149.435 232.525 147.653 232.525 145.806C232.525 144.087 232.525 142.368 232.525 140.585C232.525 138.93 232.525 137.338 232.525 135.682C232.525 134.218 232.525 132.754 232.525 131.289C232.525 130.016 232.525 128.742 232.525 127.469C232.525 126.45 232.525 125.431 232.525 124.413C232.525 123.649 232.525 122.948 232.525 122.184C232.525 121.802 232.525 121.42 232.525 120.974C232.525 120.911 232.525 120.847 232.525 120.783C232.525 119.319 231.825 117.982 230.934 117.982Z" fill="#705FA4"/>
<path d="M238.128 114.225C238.128 121.038 212.214 126.514 180.252 126.514C148.289 126.514 122.375 120.974 122.375 114.225V115.753C122.375 122.566 148.225 128.042 180.188 128.042C212.151 128.042 237.237 122.821 238.256 116.135L238.128 114.225Z" fill="#705FA4"/>
<path d="M180.124 126.577C212.089 126.577 238.001 121.076 238.001 114.289C238.001 107.502 212.089 102 180.124 102C148.16 102 122.248 107.502 122.248 114.289C122.248 121.076 148.16 126.577 180.124 126.577Z" fill="#EFE8F4"/>
<path d="M185.6 115.817C185.6 115.562 185.6 115.371 185.6 115.18C185.6 114.925 185.6 114.671 185.6 114.416C185.6 113.716 185.6 112.952 185.6 112.251C185.6 111.424 185.6 110.596 185.6 109.768C185.6 109.004 185.6 108.24 185.6 107.476C185.6 106.967 185.6 106.394 185.6 105.884V105.502H175.922C175.922 105.757 175.922 106.012 175.922 106.266C175.922 106.903 175.922 107.603 175.922 108.24C175.922 109.068 175.922 109.959 175.922 110.787C175.922 111.615 175.922 112.442 175.922 113.334C175.922 113.97 175.922 114.607 175.922 115.244C175.922 115.435 175.922 115.626 175.922 115.817C175.922 116.326 176.368 116.454 176.686 116.581C177.068 116.708 177.514 116.836 177.896 116.899C178.851 117.09 179.806 117.154 180.697 117.154C181.843 117.154 182.926 117.09 184.008 116.836C184.326 116.772 184.645 116.645 184.899 116.517C185.282 116.326 185.536 116.199 185.6 115.817Z" fill="#BCB1D4"/>
<path d="M180.761 106.903C183.433 106.903 185.6 106.247 185.6 105.439C185.6 104.63 183.433 103.974 180.761 103.974C178.088 103.974 175.922 104.63 175.922 105.439C175.922 106.247 178.088 106.903 180.761 106.903Z" fill="#BCB1D4"/>
<path d="M180.761 104.484C181.971 104.484 183.117 104.611 184.008 104.866C184.899 105.12 185.154 105.439 185.154 105.502C185.154 105.566 184.899 105.821 184.008 106.139C183.117 106.394 181.971 106.521 180.761 106.521C179.551 106.521 178.405 106.394 177.514 106.139C176.622 105.884 176.368 105.566 176.368 105.502C176.368 105.439 176.622 105.184 177.514 104.866C178.405 104.611 179.551 104.484 180.761 104.484ZM180.761 104.038C178.087 104.038 175.922 104.675 175.922 105.502C175.922 106.266 178.087 106.967 180.761 106.967C183.435 106.967 185.6 106.33 185.6 105.502C185.6 104.675 183.435 104.038 180.761 104.038Z" fill="#564394"/>
<path d="M176.941 106.776C176.75 106.712 176.559 106.648 176.368 106.712C176.24 106.776 176.368 107.094 176.368 107.158C176.368 107.349 176.368 107.603 176.368 107.794C176.368 108.813 176.368 109.832 176.368 110.851C176.368 112.315 176.368 113.779 176.368 115.307C176.368 115.435 176.368 115.562 176.431 115.626C176.495 115.817 176.941 116.008 177.132 116.072C177.195 115.753 177.132 115.307 177.132 114.989C177.132 114.607 177.132 114.225 177.132 113.907C177.132 113.143 177.132 112.379 177.132 111.678C177.132 110.15 177.132 108.686 177.132 107.158C177.132 106.903 177.068 106.776 176.941 106.776Z" fill="#D6CDE4"/>
<path d="M184.963 107.667C185.027 107.667 185.027 107.667 184.963 107.667C185.09 107.603 185.154 107.476 185.218 107.348C185.918 106.521 187.382 106.266 188.083 107.221C188.401 107.603 188.401 108.112 188.401 108.558C188.401 109.068 188.465 109.513 188.401 109.959C188.401 110.723 188.21 111.487 187.892 112.124C187.637 112.633 187.191 113.333 186.618 113.652C186.045 113.97 185.472 114.352 185.027 114.862C184.963 114.925 184.899 114.989 184.836 114.989C184.517 115.116 184.453 114.543 184.39 114.352C184.326 114.034 184.39 113.716 184.39 113.397C184.39 113.206 184.454 113.015 184.517 112.824C184.517 112.76 184.581 112.633 184.645 112.569C184.772 112.506 184.708 112.569 184.836 112.569C185.218 112.633 185.6 112.506 185.918 112.315C186.364 112.06 186.873 111.678 187 111.169C187.255 110.277 187.255 109.322 187.191 108.367C187.128 107.858 186.364 107.858 186.045 108.112C185.727 108.367 185.472 108.686 185.345 109.068C185.281 109.259 185.345 109.45 185.09 109.641C185.027 109.704 185.027 109.704 184.963 109.704C184.899 109.704 184.836 109.641 184.772 109.577C184.581 109.386 184.453 109.131 184.39 108.877C184.326 108.686 184.326 108.495 184.326 108.303C184.326 108.049 184.326 107.73 184.517 107.603C184.772 107.73 184.899 107.73 184.963 107.667Z" fill="#564394"/>
<path d="M148.671 92.5137C143.895 92.5137 140.075 93.5324 140.075 94.8058C140.075 96.0792 143.959 97.098 148.671 97.098C153.382 97.098 157.266 96.0792 157.266 94.8058C157.266 93.5324 153.446 92.5137 148.671 92.5137Z" fill="#BCB1D4"/>
<path d="M148.671 92.7684C150.963 92.7684 153.128 93.023 154.719 93.4051C155.484 93.5961 156.12 93.8508 156.502 94.1054C156.757 94.2965 157.075 94.5511 157.075 94.8058C157.075 95.0605 156.757 95.3152 156.502 95.5062C156.12 95.7609 155.484 96.0156 154.719 96.2066C153.128 96.6523 150.963 96.8433 148.671 96.8433C146.379 96.8433 144.214 96.5886 142.622 96.2066C141.858 96.0156 141.221 95.7609 140.839 95.5062C140.585 95.3152 140.266 95.0605 140.266 94.8058C140.266 94.5511 140.585 94.2965 140.839 94.1054C141.221 93.8508 141.858 93.5961 142.622 93.4051C144.214 92.9594 146.379 92.7684 148.671 92.7684ZM148.671 92.5137C143.895 92.5137 140.075 93.5324 140.075 94.8058C140.075 96.0792 143.959 97.098 148.671 97.098C153.382 97.098 157.266 96.0792 157.266 94.8058C157.266 93.5324 153.446 92.5137 148.671 92.5137Z" fill="#EFE8F4"/>
<path d="M139.566 84.3724C139.668 84.345 139.736 84.2678 139.717 84.1999C139.699 84.1319 139.602 84.0991 139.5 84.1265C139.398 84.1538 139.33 84.2311 139.348 84.299C139.367 84.3669 139.464 84.3998 139.566 84.3724Z" fill="#3D2884"/>
<path d="M141.363 88.7373L140.072 89.0842L145.029 107.53L146.32 107.183L141.363 88.7373Z" fill="#564394"/>
<path d="M140.867 89.4181L140.375 89.5503L145.216 107.566L145.708 107.434L140.867 89.4181Z" fill="#564394"/>
<path d="M145.997 108.623C146.06 108.623 146.124 108.623 146.124 108.686L146.379 109.641C146.379 109.705 146.379 109.769 146.315 109.769C146.251 109.769 146.188 109.769 146.188 109.705L145.933 108.75C145.933 108.686 145.933 108.623 145.997 108.623Z" fill="#D6CDE4"/>
<path d="M145.042 107.54L145.997 109.45L146.442 109.323L146.315 107.158L145.042 107.54Z" fill="#3D2884"/>
<path d="M140.012 89.6486L139.502 87.4838C139.502 87.4838 139.12 84.746 139.184 84.364C139.184 83.9819 139.63 83.9819 139.757 83.9819C139.884 83.9819 141.094 86.7834 141.094 86.9108C141.094 87.0381 141.731 89.0756 141.731 89.0756C141.731 89.0756 142.749 92.1955 142.686 92.3865C142.622 92.5775 142.622 92.5775 142.495 92.5775C142.431 92.5775 142.304 92.5138 142.24 92.3228C142.176 92.1955 141.412 89.5213 141.349 89.4576C141.349 89.3939 140.967 89.6486 140.585 89.6486C140.394 89.8396 140.012 89.6486 140.012 89.6486Z" fill="#3D2884"/>
<path d="M152.491 82.8357C152.596 82.8357 152.682 82.7787 152.682 82.7084C152.682 82.6381 152.596 82.5811 152.491 82.5811C152.385 82.5811 152.3 82.6381 152.3 82.7084C152.3 82.7787 152.385 82.8357 152.491 82.8357Z" fill="#3D2884"/>
<path d="M153.128 87.5474H151.791V106.649H153.128V87.5474Z" fill="#705FA4"/>
<path d="M152.491 87.9929H151.982V106.648H152.491V87.9929Z" fill="#564394"/>
<path d="M152.427 107.922C152.491 107.922 152.554 107.986 152.554 108.049V109.068C152.554 109.132 152.491 109.195 152.427 109.195C152.363 109.195 152.3 109.132 152.3 109.068V108.049C152.363 107.922 152.427 107.922 152.427 107.922Z" fill="#D6CDE4"/>
<path d="M151.791 106.585L152.237 108.686H152.682L153.128 106.585H151.791Z" fill="#705FA4"/>
<path d="M151.6 88.0567L151.663 85.8919C151.663 85.8919 152.045 83.1541 152.173 82.7721C152.3 82.39 152.682 82.5174 152.873 82.5811C153.064 82.6447 153.382 85.6373 153.382 85.7646C153.382 85.8919 153.446 87.9931 153.446 87.9931C153.446 87.9931 153.637 91.304 153.51 91.4313C153.382 91.6223 153.382 91.6223 153.255 91.6223C153.191 91.6223 153.064 91.495 153.064 91.3676C153.064 91.1766 153 88.4388 153 88.3751C153 88.3114 152.555 88.4388 152.236 88.3751C151.854 88.3114 151.6 88.0567 151.6 88.0567Z" fill="#705FA4"/>
<path d="M158.243 84.5257C158.255 84.4565 158.181 84.3852 158.077 84.3666C157.973 84.3479 157.879 84.3889 157.867 84.4582C157.854 84.5274 157.928 84.5986 158.032 84.6173C158.136 84.6359 158.23 84.5949 158.243 84.5257Z" fill="#3D2884"/>
<path d="M157.843 89.2542L156.527 89.0178L153.15 107.817L154.466 108.054L157.843 89.2542Z" fill="#3D2884"/>
<path d="M157.178 89.6298L156.677 89.5398L153.378 107.901L153.88 107.991L157.178 89.6298Z" fill="#3D2884"/>
<path d="M153.637 109.259C153.701 109.259 153.765 109.323 153.701 109.387L153.51 110.342C153.51 110.405 153.446 110.469 153.383 110.405C153.319 110.405 153.255 110.342 153.319 110.278L153.51 109.323C153.51 109.259 153.574 109.196 153.637 109.259Z" fill="#D6CDE4"/>
<path d="M153.192 107.858L153.256 109.96L153.701 110.087L154.529 108.113L153.192 107.858Z" fill="#3D2884"/>
<path d="M156.248 89.5849L156.693 87.4201C156.693 87.4201 157.521 84.7459 157.712 84.4275C157.903 84.1092 158.285 84.3002 158.412 84.3639C158.54 84.4275 158.412 87.4837 158.349 87.6111C158.349 87.7384 158.03 89.8396 158.03 89.8396C158.03 89.8396 157.585 93.0868 157.457 93.2141C157.33 93.3415 157.266 93.3415 157.203 93.3415C157.139 93.3415 157.075 93.2141 157.075 93.0231C157.075 92.8321 157.521 90.1579 157.521 90.0306C157.521 89.9669 157.075 90.0306 156.757 89.9032C156.502 89.8396 156.248 89.5849 156.248 89.5849Z" fill="#3D2884"/>
<path d="M155.782 83.2669C155.8 83.199 155.732 83.1218 155.63 83.0944C155.529 83.067 155.431 83.0999 155.413 83.1678C155.395 83.2357 155.462 83.313 155.564 83.3403C155.666 83.3677 155.764 83.3348 155.782 83.2669Z" fill="#3D2884"/>
<path d="M148.806 106.119L150.097 106.466L155.054 88.0198L153.763 87.6728L148.806 106.119Z" fill="#564394"/>
<path d="M149.405 106.406L149.897 106.538L154.738 88.5222L154.246 88.39L149.405 106.406Z" fill="#564394"/>
<path d="M149.116 107.54C149.053 107.54 148.989 107.54 148.989 107.604L148.734 108.559C148.734 108.622 148.734 108.686 148.798 108.686C148.862 108.686 148.925 108.686 148.925 108.622L149.18 107.667C149.244 107.604 149.18 107.54 149.116 107.54Z" fill="#D6CDE4"/>
<path d="M150.135 106.458L149.116 108.368L148.67 108.24L148.798 106.139L150.135 106.458Z" fill="#3D2884"/>
<path d="M155.101 88.5661L155.611 86.4013C155.611 86.4013 155.993 83.6635 155.929 83.2814C155.865 82.8994 155.483 82.8994 155.356 82.8994C155.229 82.8994 154.019 85.7009 154.019 85.8283C154.019 85.9556 153.382 87.9931 153.382 87.9931C153.382 87.9931 152.364 91.113 152.427 91.304C152.491 91.495 152.491 91.495 152.618 91.495C152.682 91.495 152.809 91.4313 152.873 91.2403C152.937 91.0493 153.701 88.4388 153.764 88.3751C153.764 88.3114 154.146 88.5661 154.528 88.5661C154.783 88.7571 155.101 88.5661 155.101 88.5661Z" fill="#3D2884"/>
<path d="M147.15 81.9087C147.152 81.8384 147.069 81.7789 146.963 81.7757C146.858 81.7726 146.771 81.8271 146.768 81.8974C146.766 81.9677 146.85 82.0272 146.956 82.0303C147.061 82.0335 147.148 81.979 147.15 81.9087Z" fill="#3D2884"/>
<path d="M145.616 105.815L146.953 105.854L147.519 86.7609L146.183 86.7212L145.616 105.815Z" fill="#3D2884"/>
<path d="M146.214 105.916L146.723 105.931L147.277 87.2828L146.768 87.2677L146.214 105.916Z" fill="#3D2884"/>
<path d="M146.252 107.094C146.188 107.094 146.125 107.158 146.125 107.222V108.24C146.125 108.304 146.188 108.368 146.252 108.368C146.316 108.368 146.379 108.304 146.379 108.24V107.222C146.379 107.158 146.316 107.094 146.252 107.094Z" fill="#D6CDE4"/>
<path d="M146.952 105.821L146.442 107.922H145.997L145.615 105.821H146.952Z" fill="#3D2884"/>
<path d="M147.715 87.2926V85.1278C147.715 85.1278 147.397 82.3899 147.333 82.0079C147.206 81.6259 146.824 81.7532 146.633 81.8169C146.506 81.8806 145.996 84.8731 145.996 85.0004C145.996 85.1278 145.869 87.2289 145.869 87.2289C145.869 87.2289 145.614 90.5398 145.742 90.6671C145.869 90.8581 145.869 90.8581 145.996 90.8581C146.06 90.8581 146.187 90.7308 146.187 90.6035C146.187 90.4125 146.378 87.6746 146.378 87.6109C146.378 87.5473 146.824 87.6746 147.142 87.6746C147.397 87.5473 147.715 87.2926 147.715 87.2926Z" fill="#3D2884"/>
<path d="M142.365 82.8441C142.469 82.8254 142.543 82.7542 142.53 82.685C142.518 82.6158 142.424 82.5748 142.32 82.5934C142.216 82.6121 142.142 82.6833 142.154 82.7525C142.167 82.8218 142.261 82.8627 142.365 82.8441Z" fill="#3D2884"/>
<path d="M145.996 106.326L147.312 106.09L143.935 87.2902L142.619 87.5266L145.996 106.326Z" fill="#705FA4"/>
<path d="M146.651 106.245L147.152 106.155L143.854 87.7938L143.352 87.8838L146.651 106.245Z" fill="#705FA4"/>
<path d="M146.888 107.476C146.824 107.476 146.761 107.54 146.824 107.604L147.015 108.559C147.015 108.622 147.079 108.686 147.143 108.622C147.206 108.622 147.27 108.559 147.206 108.495L147.015 107.54C146.952 107.476 146.952 107.476 146.888 107.476Z" fill="#D6CDE4"/>
<path d="M147.27 106.076L147.207 108.177L146.761 108.304L145.933 106.33L147.27 106.076Z" fill="#564394"/>
<path d="M144.214 87.8019L143.768 85.6371C143.768 85.6371 142.941 82.9629 142.75 82.6446C142.558 82.3262 142.176 82.5172 142.049 82.5809C141.922 82.6446 142.049 85.7008 142.113 85.8281C142.113 85.9555 142.431 88.0566 142.431 88.0566C142.431 88.0566 142.877 91.3038 143.004 91.4312C143.132 91.5585 143.195 91.5585 143.259 91.5585C143.323 91.5585 143.386 91.4312 143.386 91.2401C143.386 91.0491 142.941 88.375 142.941 88.2476C142.941 88.1839 143.386 88.2476 143.705 88.1203C143.959 88.0566 144.214 87.8019 144.214 87.8019Z" fill="#564394"/>
<path d="M150.072 83.6636C150.008 83.7272 149.753 83.7272 149.626 83.7909C149.626 83.6636 149.69 83.5362 149.626 83.4089C149.499 83.0905 149.626 82.7722 149.562 82.4538C149.626 82.4538 149.69 82.3901 149.754 82.3901C149.945 82.7722 150.072 83.2815 150.072 83.6636Z" fill="#EFE8F4"/>
<path d="M149.626 82.4535C149.69 82.7719 149.69 83.0265 149.69 83.4086C149.69 83.5359 149.69 83.7269 149.626 83.7906C149.563 83.7906 149.244 83.7906 149.181 83.7269C149.244 83.4086 149.308 82.9629 149.308 82.5809C149.308 82.5172 149.372 82.3898 149.435 82.3262C149.499 82.3898 149.563 82.4535 149.626 82.4535Z" fill="#D6CDE4"/>
<path d="M149.626 82.6447C149.563 82.6447 149.372 82.5174 149.372 82.5174C149.435 82.2627 149.499 81.9443 149.626 82.008C149.69 82.008 149.881 82.2627 149.881 82.4537C149.754 82.4537 149.69 82.6447 149.626 82.6447Z" fill="#3D2884"/>
<path d="M150.072 83.5999C149.881 83.6635 149.753 83.7909 149.499 83.7272C149.435 83.7272 149.308 83.6635 149.244 83.6635C149.244 83.7272 149.244 83.7272 149.244 83.7909C149.117 84.4912 148.926 85.1916 148.862 85.892C148.798 86.6561 148.798 87.4201 148.798 88.1841C148.798 89.7122 148.798 91.2403 148.798 92.7684C148.798 93.5962 148.798 94.4876 148.798 95.3153C148.798 95.3153 148.798 95.3153 148.798 95.3789C148.798 95.4426 148.798 95.4426 148.862 95.5063C148.862 96.907 148.862 98.2441 148.862 99.6449C148.862 99.8359 148.862 100.091 148.862 100.282C148.862 100.664 148.862 101.046 148.862 101.428C148.862 101.937 148.862 102.446 148.862 102.956C148.862 103.529 148.862 104.102 148.862 104.675C148.862 105.248 148.862 105.821 148.862 106.458C148.862 107.031 148.862 107.54 148.862 108.113C148.862 108.559 148.862 109.004 148.862 109.45C148.862 109.769 148.862 110.087 148.862 110.405C148.862 110.469 148.862 110.533 148.862 110.596C148.989 111.106 149.69 111.233 150.072 111.169C150.326 111.106 150.645 110.978 150.708 110.724C150.772 110.469 150.772 110.151 150.708 109.896C150.708 109.514 150.708 109.068 150.708 108.686C150.708 108.177 150.708 107.667 150.708 107.158C150.708 106.521 150.708 105.948 150.708 105.312C150.708 104.675 150.708 103.974 150.708 103.338C150.708 102.637 150.708 101.937 150.708 101.3C150.708 100.664 150.708 99.9632 150.708 99.3265C150.708 98.7535 150.708 98.1168 150.708 97.5437C150.708 97.0344 150.708 96.5887 150.708 96.0793C150.708 95.8883 150.708 95.6973 150.708 95.5063C150.708 95.3153 150.708 95.0606 150.708 94.9333C150.708 92.7048 150.645 90.4126 150.645 88.1841C150.645 87.4201 150.581 86.7197 150.454 85.9557C150.454 85.6373 150.072 83.5999 150.072 83.5999Z" fill="#564394"/>
<path d="M150.709 95.2515C150.709 95.3151 150.709 95.3788 150.645 95.4425C150.645 95.5061 150.581 95.5698 150.581 95.6335C150.518 95.7608 150.39 95.8245 150.263 95.8882C149.945 96.0155 149.563 96.0155 149.244 95.8882C148.99 95.8245 148.862 95.6335 148.799 95.3788C148.671 95.6335 148.735 95.9518 148.926 96.2065C149.053 96.3339 149.244 96.3975 149.372 96.3975C149.626 96.4612 149.881 96.4612 150.136 96.3975C150.263 96.3975 150.39 96.3339 150.518 96.2065C150.9 95.9518 150.9 95.5061 150.709 95.2515Z" fill="#BCB1D4"/>
<path d="M148.098 110.978C147.907 107.986 146.888 95.0604 146.697 92.0679C146.57 90.5398 146.506 89.0117 146.378 87.4836C146.315 86.7832 146.315 86.1465 146.251 85.5098C146.187 84.8094 145.805 83.5997 145.487 82.963C145.423 82.8993 144.978 82.8356 144.914 83.0903C144.596 84.3 144.468 85.1914 144.532 86.4648C144.85 90.7308 145.105 94.9967 145.423 99.2627C145.423 99.5174 146.251 110.787 146.315 111.169C146.315 111.169 146.315 111.169 146.315 111.233C146.378 111.487 146.761 111.678 147.206 111.678C147.779 111.551 148.098 111.296 148.098 110.978Z" fill="#705FA4"/>
<path d="M146.251 85.3826V85.5099C146.251 85.5736 146.188 85.6372 146.188 85.6372C146.124 85.7009 146.06 85.7646 145.933 85.8283C145.615 85.9556 145.296 85.9556 145.042 85.8919C144.851 85.8283 144.66 85.7009 144.66 85.4462C144.532 85.6372 144.596 85.9556 144.787 86.0829C144.914 86.1466 145.042 86.2103 145.169 86.274C145.424 86.3376 145.615 86.274 145.869 86.274C145.997 86.274 146.124 86.2103 146.188 86.1466C146.379 85.9556 146.379 85.5736 146.251 85.3826Z" fill="#EFE8F4"/>
<path d="M145.487 82.9631C145.487 82.9631 145.487 82.8994 145.424 82.8994V83.0904C145.487 83.0268 145.487 83.0268 145.487 82.9631Z" fill="#3D2884"/>
<path d="M144.978 83.0268C144.978 83.0905 145.042 83.0905 144.978 83.0268L145.042 82.9631L144.978 83.0268Z" fill="#3D2884"/>
<path d="M145.424 82.8994V82.7083C145.424 82.581 145.296 82.5173 145.233 82.5173C145.105 82.5173 145.042 82.6447 145.042 82.7083V82.8994V83.0267C145.105 83.0267 145.169 83.0904 145.233 83.0267C145.296 83.0267 145.36 82.963 145.424 82.963V82.8994Z" fill="#3D2884"/>
<path d="M155.611 85.8284C155.356 85.7648 155.038 85.7648 154.783 85.7011C154.847 85.3828 154.847 85.0007 155.038 84.6824C155.102 84.8734 155.229 84.8734 155.42 84.8734C155.802 84.9371 156.184 84.8734 156.502 85.0007C156.502 85.2554 156.439 85.6374 156.375 85.8921C156.12 85.9558 155.866 85.8921 155.611 85.8284Z" fill="#EFE8F4"/>
<path d="M156.439 85.128C156.439 85.1917 156.375 85.1917 156.311 85.1917C156.057 85.128 155.802 85.128 155.484 85.0644C155.292 85.0007 154.847 85.0007 155.038 84.746C155.292 84.3003 155.611 84.1093 156.057 84.3003C156.375 84.4277 156.502 84.6823 156.502 85.0007C156.502 85.0644 156.502 85.128 156.439 85.128Z" fill="#564394"/>
<path d="M154.465 91.941C154.274 93.0871 154.019 94.2332 153.828 95.3156C153.51 97.0983 151.472 107.286 150.899 110.533L151.663 110.66C152.045 108.686 154.21 97.2257 154.592 95.2519C154.911 93.5964 155.229 91.941 155.547 90.2856C155.802 88.8211 156.057 87.4204 156.311 85.956C156.057 85.8923 155.802 85.8923 155.547 85.8286C155.229 87.8661 154.911 89.9035 154.465 91.941Z" fill="#564394"/>
<path d="M153.828 95.3789C154.019 94.2329 154.274 93.0868 154.465 92.0044C154.847 89.9669 155.229 87.9295 155.611 85.892C155.356 85.8283 155.038 85.8283 154.783 85.7646C154.72 85.892 154.72 86.0193 154.72 86.1467C154.083 89.4576 153.51 92.8321 152.873 96.143C152.555 97.7984 150.454 108.813 150.135 110.469L150.899 110.596C151.472 107.285 153.573 97.0981 153.828 95.3789Z" fill="#705FA4"/>
<path d="M150.899 110.596L150.135 110.405L150.199 112.697L150.772 112.825L151.727 110.724L150.899 110.596Z" fill="#BCB1D4"/>
<path d="M150.199 112.698C150.199 112.889 150.199 113.207 150.454 113.207C150.645 113.207 150.709 112.761 150.772 112.761C150.581 112.761 150.39 112.761 150.199 112.698Z" fill="#3D2884"/>
<path d="M148.671 97.1615C143.896 97.1615 140.075 96.1428 140.075 94.8694H140.012L141.285 111.615C141.285 112.252 141.986 112.443 142.431 112.634C143.004 112.825 143.641 112.952 144.278 113.079C145.678 113.334 147.079 113.398 148.48 113.398C150.135 113.398 151.791 113.27 153.446 112.952C153.892 112.825 154.338 112.761 154.783 112.57C155.165 112.443 155.547 112.252 155.611 111.869V111.806C155.611 111.806 155.611 111.806 155.611 111.742L157.266 95.1241C156.884 96.2065 153.192 97.1615 148.671 97.1615Z" fill="#BCB1D4"/>
<path d="M143.259 112.824C142.749 112.633 141.794 112.57 141.794 111.933L140.584 95.6333C140.584 95.6333 140.584 95.6333 140.648 95.6333C140.648 95.6333 142.24 95.9517 142.431 96.3337C142.558 96.7157 143.259 112.824 143.259 112.824Z" fill="#EFE8F4"/>
<path d="M140.075 94.8057C140.075 96.0791 143.959 97.0978 148.671 97.0978C153.382 97.0978 157.266 96.0791 157.266 94.8057H157.012C157.012 95.0603 156.693 95.315 156.439 95.506C156.057 95.7607 155.42 96.0154 154.656 96.2064C153.064 96.6521 150.899 96.8431 148.607 96.8431C146.315 96.8431 144.15 96.5884 142.558 96.2064C141.794 96.0154 141.158 95.7607 140.776 95.506C140.521 95.315 140.203 95.0603 140.203 94.8057H140.075Z" fill="#EFE8F4"/>
<path d="M127.213 152.109C127.213 152.109 126.513 154.656 126.768 157.712C126.895 159.432 128.933 168.282 129.378 170.128C129.888 171.975 133.58 187.574 133.899 188.911C134.217 190.248 134.727 192.349 135.172 192.286C135.618 192.286 138.929 190.821 138.929 190.821L155.038 186.11L158.794 182.862C158.794 182.862 158.73 179.997 158.157 176.75C157.584 173.439 155.674 164.653 155.229 163.634C154.783 162.615 153.255 155.675 153.127 155.102C153 154.593 127.213 152.109 127.213 152.109Z" fill="#564394"/>
<path d="M135.045 158.986C135.045 158.986 133.835 161.915 134.217 164.398C134.599 166.881 138.356 181.525 138.738 182.671C139.12 183.818 139.629 185.027 140.903 185.282C142.112 185.537 143.513 184.964 144.659 184.709C146.124 184.391 147.588 184.009 148.989 183.627C150.708 183.181 152.427 182.735 154.082 182.226C154.91 181.971 155.802 181.716 156.629 181.525C157.011 181.398 157.393 181.334 157.775 181.207C158.03 181.143 158.348 180.825 158.539 180.761C158.921 180.061 158.603 178.087 158.476 177.132C158.348 176.241 156.757 168.218 156.438 166.881C156.12 165.544 154.655 160.005 154.401 158.922C153.764 156.121 152.109 155.038 152.109 155.038L135.045 158.986Z" fill="#D6CDE4"/>
<path d="M139.82 163.57L141.603 170.319L143.386 171.592L144.023 169.619L142.622 163.124L139.82 163.57Z" fill="#BCB1D4"/>
<path d="M149.817 159.432L151.982 167.645L153.764 168.918L154.401 166.945L152.236 157.712L149.817 159.432Z" fill="#BCB1D4"/>
<path d="M140.967 187.829C140.648 188.338 140.139 188.784 139.63 189.166C138.929 189.675 138.102 190.121 137.337 190.503C137.083 190.566 134.6 191.458 134.663 191.522C134.791 191.967 135.045 192.54 135.3 192.922C135.873 193.686 136.828 193.941 137.72 193.75C143.068 192.54 148.353 191.076 153.637 189.739C153.892 189.675 157.139 189.038 158.03 187.638C158.922 186.237 158.858 185.218 158.858 184.581C158.858 183.881 158.731 181.971 158.731 181.971C158.731 181.971 141.349 186.428 141.285 186.428C141.412 186.428 141.094 187.638 141.03 187.765L140.967 187.829Z" fill="#BCB1D4"/>
<path d="M126.768 155.547C126.577 155.102 126.704 154.274 126.768 153.765C127.023 151.855 128.36 150.326 129.888 149.308C133.772 146.825 138.547 146.124 143.068 145.233C145.487 144.723 147.588 145.105 149.435 146.825C150.517 147.907 151.345 149.244 152.109 150.581C153.128 152.428 154.465 154.847 154.146 157.076C153.955 158.476 153.51 158.986 152.809 159.686C151.727 160.896 149.689 161.596 148.225 162.169C145.678 163.124 142.749 163.57 140.075 163.825C138.674 163.952 137.274 163.888 136.318 162.679C135.427 161.533 135.109 160.068 134.727 158.731C134.536 158.094 133.517 154.847 132.88 154.147C132.244 153.446 131.289 153.192 130.206 153.51C128.933 153.828 127.85 155.038 126.768 155.547Z" fill="#BCB1D4"/>
<path d="M132.116 148.926C131.861 147.525 132.371 145.997 133.135 145.106C134.599 143.259 137.146 142.559 139.375 143.132C140.33 143.387 141.221 143.896 141.985 144.596C142.176 144.787 143.577 146.57 142.94 146.761C142.431 146.952 141.858 147.079 141.348 147.27C141.094 146.506 140.839 145.679 140.202 145.169C139.82 144.851 139.311 144.724 138.801 144.66C137.528 144.469 135.809 144.787 134.79 145.679C133.835 146.506 133.963 147.907 134.217 148.99C134.345 149.499 133.198 149.945 132.753 150.072C132.371 149.754 132.18 149.308 132.116 148.926Z" fill="#564394"/>
<path d="M230.234 60.1689C230.234 66.5996 226.159 72.33 219.855 75.8319C218.391 76.6596 219.346 81.5622 219.091 82.39C218.837 83.2177 213.488 78.4424 212.661 78.6334C210.177 79.2701 207.567 79.5884 204.893 79.5884C190.885 79.5884 179.552 70.8655 179.552 60.1689C179.552 49.4722 190.885 40.7493 204.893 40.7493C218.9 40.7493 230.234 49.4722 230.234 60.1689Z" fill="#D6CDE4"/>
<path d="M247.233 148.862H221.256L217.817 190.63H256.529L247.233 148.862Z" fill="#EFE8F4"/>
<path d="M247.233 148.862H239.211L234.436 190.63H256.529L247.233 148.862Z" fill="#D6CDE4"/>
<path d="M193.559 188.72C197.889 179.106 201.072 170.701 202.346 166.244C204.51 158.668 206.166 151.982 206.548 149.499C207.567 143.578 198.907 143.196 197.761 146.188C196.042 150.645 193.05 165.353 189.42 187.511L193.559 188.72ZM244.05 158.477C240.039 156.885 226.095 151.982 219.346 150.581C217.436 150.199 215.525 149.817 213.743 149.499C208.522 148.48 205.784 157.967 210.814 158.668C223.421 160.45 241.248 162.361 242.777 162.552C244.941 162.806 246.533 159.432 244.05 158.477Z" fill="#705FA4"/>
<path d="M210.495 146.825L232.08 135.81V133.39H229.533C208.649 138.739 197.952 142.113 197.507 143.641V143.705C197.507 143.705 197.507 143.705 197.507 143.769C193.368 149.435 190.885 177.26 190.057 179.361L198.016 180.57C201.072 169.301 210.75 161.469 210.495 147.971C210.495 147.589 210.495 147.207 210.495 146.825Z" fill="#897AB4"/>
<path d="M230.297 153.383C232.271 153.001 234.117 152.619 235.645 152.364C245.705 150.582 248.634 145.233 246.915 133.454H228.387C225.33 134.345 209.604 140.904 201.454 144.405C196.042 146.698 197.761 155.102 200.817 157.267C200.817 157.394 200.881 157.522 201.008 157.522C217.435 164.334 230.488 160.769 234.817 161.915L236.855 155.548L230.297 153.383Z" fill="#A396C4"/>
<path d="M242.668 157.436C243.777 157.532 244.488 157.681 244.969 157.942C245.536 158.233 246.271 158.724 247.233 159.389C246.913 160.04 244.123 165.793 238.834 176.591C237.128 176.289 236.479 175.685 236.831 174.663C237.183 173.641 237.476 172.79 237.711 172.109L238.063 162.374C238.036 162.174 238.237 162.005 238.408 162.064L239.944 162.164C240.806 161.461 241.353 160.84 241.643 160.273C241.847 159.82 241.996 159.109 242.006 158.113C241.896 157.741 242.241 157.431 242.668 157.436C242.611 157.464 242.611 157.464 242.668 157.436Z" fill="#564394"/>
<path d="M195.533 186.937C195.915 187.956 196.106 188.72 196.106 189.229C196.106 189.866 195.979 190.758 195.788 191.904C195.087 191.904 188.72 191.904 176.623 191.904C176.113 190.248 176.432 189.357 177.514 189.229C178.596 189.102 179.488 188.975 180.188 188.847L189.102 184.9C189.293 184.836 189.484 184.9 189.548 185.091L190.121 186.492C191.14 186.937 191.904 187.192 192.54 187.192C193.05 187.192 193.75 187.001 194.642 186.555C194.96 186.364 195.342 186.492 195.533 186.937C195.533 186.874 195.533 186.874 195.533 186.937Z" fill="#564394"/>
<path d="M236.792 92.1952C238.384 90.3487 239.402 88.1203 239.211 85.5734C238.702 78.315 228.578 79.9067 226.605 83.5996C224.631 87.2925 224.885 96.5885 227.432 97.2252C228.451 97.4799 230.616 96.8432 232.781 95.5061L231.443 105.248H239.593L236.792 92.1952Z" fill="#705FA4"/>
<path d="M238.574 79.5885C238.574 79.5885 238.511 79.5885 238.574 79.5885C237.747 79.3338 236.983 79.1428 236.155 79.1428C236.091 79.1428 236.028 79.1428 236.028 79.0791C235.964 79.0791 235.837 79.0791 235.773 79.0791C235.264 79.0791 232.335 79.2064 231.252 79.3975C229.788 79.6521 226.986 80.9256 226.604 81.8806C226.159 82.8994 226.413 84.1091 228.26 83.9818C230.106 86.2102 232.844 87.7383 233.162 87.802C233.162 87.802 234.372 86.1466 235.518 86.8469C236.855 87.6747 236.601 89.1391 235.9 90.2852C235.518 90.8582 234.945 91.8133 235.9 92.45C237.428 93.5324 241.249 91.1129 241.949 89.0754C242.968 85.5735 241.822 81.1166 238.574 79.5885Z" fill="#3D2884"/>
<path d="M225.203 89.4572C224.885 90.2213 224.376 90.858 224.121 91.6857C223.803 92.8318 224.185 92.7681 225.203 92.7044C226.222 92.6408 226.095 92.0677 226.031 90.9853C226.031 90.2849 225.967 89.3299 225.649 88.7568C225.458 89.0115 225.267 89.2662 225.203 89.4572Z" fill="#705FA4"/>
<path d="M225.904 87.9928C225.967 87.8017 226.158 87.6107 226.413 87.5471C226.604 87.4834 226.859 87.4834 227.113 87.4834C227.559 87.5471 227.941 87.8018 228.132 88.2474C227.687 88.1201 227.368 88.0564 226.986 87.9928C226.795 87.9291 226.668 87.9291 226.477 87.9291C226.286 87.9291 226.095 87.9291 225.904 87.9928Z" fill="#3D2884"/>
<path d="M225.84 94.742C226.222 94.6783 226.604 94.551 226.986 94.3599C227.177 94.2963 227.304 94.2326 227.495 94.1053C227.686 93.9779 227.877 93.8506 228.132 93.8506H228.387V94.0416C228.45 94.4236 228.259 94.6146 228.068 94.8056C227.877 94.9967 227.75 95.124 227.559 95.2513C227.368 95.3787 227.177 95.4424 226.986 95.5697C226.795 95.6334 226.604 95.697 226.349 95.7607C226.668 95.506 226.986 95.2513 227.304 94.9967C227.432 94.8693 227.623 94.742 227.686 94.6146C227.814 94.4873 227.877 94.2963 227.877 94.2326L228.132 94.4236C228.005 94.4236 227.814 94.4873 227.686 94.6146C227.495 94.6783 227.304 94.8056 227.05 94.8693C226.859 94.933 226.604 94.933 226.413 94.933C226.222 94.8056 226.031 94.8056 225.84 94.742Z" fill="#3D2884"/>
<path d="M226.413 89.2665C226.624 89.2665 226.795 89.0955 226.795 88.8845C226.795 88.6735 226.624 88.5024 226.413 88.5024C226.202 88.5024 226.031 88.6735 226.031 88.8845C226.031 89.0955 226.202 89.2665 226.413 89.2665Z" fill="#3D2884"/>
<path d="M211.005 124.158L198.717 118.746C196.552 116.581 194.451 114.989 192.477 113.843C191.904 113.652 190.821 113.589 191.967 115.18C193.114 116.772 194.132 118.491 193.687 119.064C193.241 119.637 191.968 119.001 191.458 119.892C191.14 120.529 193.241 121.229 197.889 122.057L207.121 129.124L211.005 124.158ZM260.796 125.622L253.855 127.023C260.859 140.076 264.616 146.952 265.125 147.78C266.271 149.563 265.189 152.746 264.807 154.465C267.29 155.038 266.335 151.345 269.455 152.109C272.32 152.81 274.739 154.656 277.414 152.173C277.732 151.855 277.987 150.9 276.841 150.454C274.039 149.244 269.964 147.016 269.264 146.124C268.309 144.915 265.507 138.102 260.796 125.622Z" fill="#705FA4"/>
<path d="M234.946 99.5809L232.017 99.0715C225.65 105.248 223.039 120.21 218.773 122.184C214.762 124.03 209.032 122.248 202.219 119.828L200.118 124.476C206.294 131.162 219.41 136.765 224.758 133.581C233.226 128.424 235.2 110.023 234.946 99.5809Z" fill="#564394"/>
<path d="M247.743 136.51C235.964 136.51 227.305 136.51 221.765 136.51C220.556 136.51 220.81 134.791 221.001 133.9C222.975 123.903 230.743 113.143 230.743 98.9444L238.256 97.7983C244.368 107.731 246.47 120.019 247.743 136.51Z" fill="#D6CDE4"/>
<path d="M250.29 126.386C255.575 135.937 260.032 142.814 263.661 147.016L269.137 145.933C265.635 124.158 255.447 108.113 238.638 97.7346H238.575H235.709C228.96 120.656 227.114 135.937 230.17 143.578H253.537C253.092 138.038 251.945 132.117 250.29 126.386Z" fill="#705FA4"/>
</svg>
