<svg width="283" height="176" viewBox="0 0 283 176" fill="none" xmlns="http://www.w3.org/2000/svg">
<path d="M73.8384 78.4371C69.6435 79.4175 66.0288 80.7282 62.9942 82.3692C42.4763 93.5777 25.926 108.412 11.2207 121.356C3.16618 128.5 -1.75512 136.859 3.68697 145.213C5.22505 147.634 7.67284 149.996 11.6544 152.014C18.1597 155.326 27.9911 157.141 37.4659 158.312C78.8544 163.451 120.609 159.206 162.453 162.19C191.286 164.204 221.987 169.655 247.811 165.883C274.954 161.957 286.562 147.307 272.924 135.355C265.537 128.884 252.63 123.63 240.012 118.561C211.839 107.265 183.757 93.2925 152.662 83.4803C129.929 76.3283 95.3339 73.2833 73.8384 78.4371Z" fill="#EFE8F4"/>
<path d="M104.263 115.774H65.8174L68.342 100.046H101.736L104.263 115.774Z" fill="#A396C4"/>
<path d="M109.505 117.521H60.5747V120.143H109.505V117.521Z" fill="#A396C4"/>
<path d="M60.5747 117.521L65.8173 115.774H104.263L109.505 117.521H60.5747Z" fill="#705FA4"/>
<path d="M14.2651 86.9397V96.6991C14.2651 98.5396 15.7591 100.046 17.5843 100.046H153.369C155.194 100.046 156.688 98.5396 156.688 96.6991V86.9397H14.2651Z" fill="#705FA4"/>
<path d="M156.688 88.6871V3.84329C156.688 1.97041 155.194 0.4375 153.369 0.4375H17.5844C15.7591 0.4375 14.2651 1.97041 14.2651 3.84329V88.6871H156.688Z" fill="#A396C4"/>
<path d="M85.0397 95.6771C86.4874 95.6771 87.661 94.5035 87.661 93.0558C87.661 91.6082 86.4874 90.4346 85.0397 90.4346C83.592 90.4346 82.4185 91.6082 82.4185 93.0558C82.4185 94.5035 83.592 95.6771 85.0397 95.6771Z" fill="#A396C4"/>
<path d="M152.319 4.8064H18.6343V13.544H152.319V4.8064Z" fill="#705FA4"/>
<path d="M148.824 7.42749H23.0029V10.9225H148.824V7.42749Z" fill="#EFE8F4"/>
<path d="M152.319 13.5439H18.6343V84.3184H152.319V13.5439Z" fill="#D6CDE4"/>
<path d="M122.736 47.6205H93.6728C92.7646 47.6205 92.0303 47.2134 92.0303 46.71V42.4146C92.0303 41.9112 92.7646 41.5042 93.6728 41.5042H122.716C123.625 41.5042 124.359 41.9112 124.359 42.4146V46.71C124.378 47.2134 123.625 47.6205 122.736 47.6205Z" fill="#F9AA38"/>
<path d="M122.736 55.4845H93.6728C92.7646 55.4845 92.0303 55.0774 92.0303 54.574V50.2786C92.0303 49.7752 92.7646 49.3682 93.6728 49.3682H122.716C123.625 49.3682 124.359 49.7752 124.359 50.2786V54.574C124.378 55.0667 123.625 55.4845 122.736 55.4845Z" fill="#F9AA38"/>
<path d="M120.066 63.348H93.7026C92.7779 63.348 92.0303 62.941 92.0303 62.4375V58.1422C92.0303 57.6387 92.7779 57.2317 93.7026 57.2317H120.066C120.99 57.2317 121.738 57.6387 121.738 58.1422V62.4375C121.738 62.941 120.971 63.348 120.066 63.348Z" fill="#F9AA38"/>
<path d="M134.055 70.338H93.7128C92.7825 70.338 92.0303 69.9891 92.0303 69.5576V65.8759C92.0303 65.4444 92.7825 65.0955 93.7128 65.0955H134.035C134.966 65.0955 135.718 65.4444 135.718 65.8759V69.5576C135.738 69.9891 134.966 70.338 134.055 70.338Z" fill="#897AB4"/>
<path d="M134.055 78.202H93.7128C92.7825 78.202 92.0303 77.795 92.0303 77.2915V72.9962C92.0303 72.4927 92.7825 72.0857 93.7128 72.0857H134.035C134.966 72.0857 135.718 72.4927 135.718 72.9962V77.2915C135.738 77.795 134.966 78.202 134.055 78.202Z" fill="#897AB4"/>
<path d="M78.9238 44.1255H25.6245V45.873H78.9238V44.1255Z" fill="#3D2884"/>
<path d="M46.5947 37.1355H25.6245V38.883H46.5947V37.1355Z" fill="#3D2884"/>
<path d="M111.253 37.1355H92.0303V38.883H111.253V37.1355Z" fill="#3D2884"/>
<path d="M78.9238 51.1155H25.6245V52.863H78.9238V51.1155Z" fill="#3D2884"/>
<path d="M78.9238 58.1055H25.6245V59.853H78.9238V58.1055Z" fill="#3D2884"/>
<path d="M78.9238 65.0955H25.6245V66.843H78.9238V65.0955Z" fill="#3D2884"/>
<path d="M78.9238 72.0857H25.6245V73.8332H78.9238V72.0857Z" fill="#3D2884"/>
<rect x="154.86" y="43.907" width="126.695" height="86.5807" transform="rotate(17.3728 154.86 43.907)" fill="#3D2884"/>
<path d="M214.794 61.0182C207.454 46.9174 174.074 43.3599 158.301 43.3437L132.916 124.481C163.136 123.881 183.17 136.014 189.409 142.156L214.794 61.0182Z" fill="#BCB1D4"/>
<path d="M214.95 60.5205C240.707 60.2721 264.354 73.609 272.958 80.3085L247.729 160.948C221.258 142.611 197.716 141.111 189.253 142.654L214.95 60.5205Z" fill="#D6CDE4"/>
<path d="M188.687 128.814C184.345 124.723 169.346 116.205 144.087 114.86" stroke="#3D2884" stroke-width="1.60174"/>
<path d="M190.897 120.01C186.555 115.919 171.556 107.401 146.297 106.057" stroke="#3D2884" stroke-width="1.60174"/>
<path d="M194.323 109.059C189.981 104.968 174.983 96.4503 149.723 95.1058" stroke="#3D2884" stroke-width="1.60174"/>
<path d="M207.093 68.2415C202.751 64.1505 187.753 55.6325 162.494 54.2879" stroke="#3D2884" stroke-width="1.60174"/>
<path d="M245.054 148.472C240.811 144.277 226.02 135.401 200.802 133.45" stroke="#3D2884" stroke-width="1.60174"/>
<path d="M247.354 137.756C243.111 133.562 228.32 124.685 203.102 122.735" stroke="#3D2884" stroke-width="1.60174"/>
<path d="M250.157 128.796C245.914 124.602 231.124 115.725 205.906 113.775" stroke="#3D2884" stroke-width="1.60174"/>
<path d="M257.01 106.894C252.767 102.7 237.976 93.8234 212.758 91.8728" stroke="#3D2884" stroke-width="1.60174"/>
<path d="M157.324 72.5493L152.652 87.4827C173.675 87.0646 190.154 96.3008 195.766 100.971L200.438 86.0378C188.578 76.6438 166.754 73.1313 157.324 72.5493Z" fill="#F9AA38"/>
<path d="M219.679 68.0116L214.851 83.4427C237.584 83.1226 254.718 92.8184 260.442 97.7064L265.27 82.2753C244.394 68.3117 226.178 66.948 219.679 68.0116Z" fill="#EA931F"/>
</svg>
