<svg fill="none" height="48" viewBox="0 0 48 48" width="48" xmlns="http://www.w3.org/2000/svg" xmlns:xlink="http://www.w3.org/1999/xlink"><clipPath id="a"><path d="m0 0h6v6h-6z" transform="matrix(.92868468 .37087028 -.37087028 .92868468 33.9141 23.6484)"/></clipPath><path d="m29.7314 12.7273c1.3108.3 2.6514.57 3.9622 0 1.925-.8266 13.1858-8.70392 14.3064-9.47925v16.49995s-6.1139 2.4286-7.1268 3.2985c-1.0129.87-2.2343 3.9897-3.5451 6.1795-1.5492 2.6098-4.558 4.6797-6.8817 6.5695-3.3068 2.6698-6.7625 5.1896-10.2778 7.5594-.7746.54-1.5492 1.05-2.4429 1.2899-.5362.15-1.132.18-1.5491-.15-.4469-.3299-.566-.9899-.3873-1.5298.2085-.69.7448-1.1699 1.281-1.5899 2.2045-1.7999 4.3197-3.7197 6.5838-5.4596-3.2472 1.8299-6.6434 3.4497-10.0395 5.0396-1.6683.81-5.42196 2.4898-7.00087.57-1.22143-1.5299 1.72787-3.1798 2.65138-3.7497 1.90659-1.1699 3.87279-2.2799 5.83899-3.3598 1.281-.6899 2.5322-1.3499 3.7835-2.0698.2766-.1671 1.1953-.9291 1.5875-1.0372-.8416.1948-6.6105 2.5607-8.4097 3.107-1.4895.45-2.91945.99-4.3792 1.4699-.92352.3-1.84703.63-2.77055.9299-1.28101.39-2.94929.87-4.140924 0-1.07247-.7799-.983098-2.0998-.029791-2.9397 1.251215-1.0799 2.919505-1.5899 4.409045-2.2799 1.6087-.7499 3.2472-1.5298 4.79632-2.2798 1.9468-.9513 3.811-2.0965 5.8571-2.8234-2.4019.8309-5.0764 1.2219-7.4658 2.0435-1.60871.5399-3.15783 1.3199-4.85591 1.5599-1.69808.2399-4.111134-.54-3.128036-2.8198.566026-1.3799 2.532226-1.7699 3.753646-2.2798 3.51532-1.4399 7.3285-2.3399 10.8141-3.8397 1.0129-.42 1.0129-.99.2979-1.4399-.715-.45-8.34145-1.1699-9.5033-2.0399-1.16184-.8699-.44686-2.1898 0-2.7597.83415-1.11 3.21741-1.14 4.4388-1.3499 1.6683-.3 3.3366-.54 5.0049-.78 3.2472-.4499 6.4944-.8099 9.7714-.6899 1.6087.06 3.2174.24 4.7963.6299z" fill="#e8a16d"/><path d="m42.3962 25.5306-28.6774-14.2884-7.8349 15.9439 28.6774 14.2885z" fill="#212121"/><path d="m11.0557 22.1735c1.2512-3.2697 4.0217-5.5196 7.2094-6.1795l-6.4646-2.4598-5.988 15.8687 6.9115 2.6398c-2.2343-2.6398-2.97911-6.3895-1.6683-9.8692z" fill="#f7f7f7"/><path d="m41.8891 25.053-13.8229-5.2796c1.9364 2.6098 2.562 6.1496 1.3108 9.4193-1.3108 3.4797-4.3495 5.7596-7.7754 6.2695l14.2698 5.4596z" fill="#f7f7f7"/><path d="m29.3739 29.1934c1.2512-3.2698.6256-6.8095-1.3108-9.4193l-9.8309-3.7497c-3.1877.66-5.9582 2.8798-7.2094 6.1795-1.31082 3.4798-.5363 7.2295 1.6683 9.8693l8.9074 3.4197c3.426-.54 6.4646-2.8198 7.7754-6.2995z" fill="#5e5e5e"/><path d="m42.578 25.3044-1.7264-.6608-5.9698 15.8138 1.7264.6608z" fill="#5e5e5e"/><g fill="#212121"><path d="m31.0437 36.4825-.6554-.24-.1489.42.7745.3-.1191.33-1.1917-.45.6554-1.74 1.1917.45-.1192.33-.7746-.3-.1489.36.6554.24z"/><path d="m31.8219 37.4429c-.1191.09-.2681.09-.417.03-.149-.06-.2384-.15-.2681-.24-.0298-.12-.0298-.24.0297-.39l.3277-.84.3873.15-.3277.84c-.0298.12 0 .18.0894.24.0894.03.1787.03.2383-.03l.3575-.9.4171.15-.4767 1.29-.3872-.15z"/><path d="m33.4851 37.202-.1192-.06c-.1192-.06-.2085-.03-.2979.03l-.2979.81-.3873-.15.4767-1.29.3872.15-.0595.18c.1191-.09.2383-.12.3575-.09.0297.03.0893.03.1191.06z"/><path d="m33.4534 37.4729c.0596-.12.1191-.24.2085-.33s.1788-.12.2979-.15c.1192-.03.2384 0 .3575.03.1788.06.3277.18.3873.36.0596.15.0596.36-.0298.54-.0894.21-.1787.33-.3575.42-.1787.09-.3277.09-.5064 0-.1788-.06-.2979-.18-.3873-.33s-.0596-.33 0-.51zm.3873.18c-.0596.12-.0596.21-.0298.27s.0596.12.1191.15c.149.06.2682-.03.3575-.24l.0298-.03c.0894-.24.0596-.39-.0894-.42-.1191-.06-.2383.03-.3277.21z"/></g><g clip-path="url(#a)"><path d="m37.5176 26.9494.1172.273.5537-.2377-.1171-.2729c-.5222-1.2166-1.9374-1.7817-3.154-1.2596-.3039.1305-.5658.3167-.7863.5454l-.7187-.2871-.2225.5573.574.2292c-.0957.175-.1713.3644-.2226.5572l-.574-.2292-.2225.5572.7187.287c-.001.3097.0638.6327.1944.937.2611.6082.7484 1.0547 1.3167 1.2816.5683.227 1.229.239 1.8373-.0221l.2729-.1171-.2377-.5538-.2729.1172c-.9122.3915-1.9709-.0313-2.3625-.9435-.0635-.148-.106-.3008-.1296-.4522l1.4488.5785.2225-.5572-1.6494-.6587c.0399-.1973.1155-.3867.2225-.5572l2.2067.8812.2225-.5572-2.006-.8011c.1214-.0936.2572-.1751.4055-.2386.9122-.3915 1.9709.0313 2.3624.9435z" fill="#212121"/></g></svg>