<svg width="203" height="182" fill="none" xmlns="http://www.w3.org/2000/svg"><path d="M172 17c2-2 3-4 3-7-1-6-10-5-12-2-2 4-2 13 0 13l5-1-1 9h8l-3-12z" fill="#4F3A29"/><path d="M159 4l1-2h1l1-1 1-1h1l1 1 2-1 2 1h4l2 1h2l1 1v1h1l1 1v1h1l1 2v9h-1v1l-1 1-2 1-1-1-1 1-2-2h-2v-1-1-1h1v-1-3h-3l-1 2-1-1v-1l-1-1V9l-1-1a2 2 0 01-2 0V7v1l-1 1-1 1v1h-2v-1-1-1-1-1l-1-2z" fill="#232323"/><path d="M162 14l-1 3h1" fill="#4F3A29"/><path d="M162 19l1-1h1-1l-1 1zM164 13h-1v-1h-1v1h2zM162 14v-1 1z" fill="#232323"/><path d="M162 33l-11-6-5-5c-1-1-2-1-1 1s2 3 1 4h-2l6 3 8 7 4-4z" fill="#4F3A29"/><path d="M168 32c-4 0-9-1-14-4l-2 4c3 4 9 7 13 7s6-4 3-7z" fill="#775D46"/><path d="M126 16l15-4 3-1 1 3 1 8v4h1l-1 1h-2l4 2 6 11-11 5-8 3-3-5-4-13-2-14z" fill="#F2F2F2"/><path d="M143 50l-6-4c-4-1-6-1-7-4l-1-4 6 2 1-3 2 4 5 3v6z" fill="#4F3A29"/><path d="M161 43c-4 1-11 0-21-3l-3 10c8 5 15 7 21 7l2 9c3 7 20 1 26 2 3-12-4-16-4-24s-6-21-7-21h-9l-5 20z" fill="#7F644F"/><path d="M193 144H38v3h155v-3z" fill="#775D46"/><path d="M193 147H38v7h155v-7zM29 64v-7h173v7H29z" fill="#876E60"/><path d="M198 118H33v26h165v-26zM198 67H33v50h165V67z" fill="#CCC3C0"/><path d="M198 117H33v1h165v-1z" fill="#99847A"/><path d="M198 64H33v3h165v-3z" fill="#775D46"/><path d="M101 51l15 2 3-20-15-2-1 10v2l-1 1v2l3 1-3 2-1 2z" fill="#FCB21D"/><path d="M105 67l6-3c4-2 6-2 8-5l1-4c-1-1-5 2-6 2-2 0 0-3-1-3l-3 5-5 2v6z" fill="#CCC3C0"/><path d="M63 83l17 44 11 33h7L82 83H63z" fill="#775D46"/><path d="M59 83l-1 37-26 21 3 6 33-22 13-42H59z" fill="#7F644F"/><path d="M26 145l5-4 5 6c0 4 2 9 4 14l-1 1-8-10-3-4-2-3zM91 167v-8h7c4 3 8 5 14 6v2H99l-5-1v1h-3z" fill="#4F3A29"/><path d="M72 31l-2-6c0-8 11-6 13-2 2 3 2 13-1 14l-6-2 2 10h-9l3-14z" fill="#CCC3C0"/><path d="M79 18h-3v-3l-1-3v-1h-2-1-1l-1-1h-2l-1 1v1h-1l-2 1v3l2 4 2 1-1 3a13 13 0 00-1 6l2 2 1 1h4v-1-1l-1-2 1-2 3 1c0-2 1-3 2-3l4-2h1v-1c1 0 0 0 0 0l-4-4z" fill="#3A291D"/><path d="M84 28l1 4-2 1" fill="#CCC3C0"/><path d="M83 34h-1-1 1v1h1-1l-1-1v-1l1 1h1zM83 28zM84 27h-1-1-1l1-1h1l1 1z" fill="#3A291D"/><path d="M85 53l12-7 6-5c1 0 2-1 1 1l-2 4 3 1c0 1-2 2-7 3l-8 8-5-5z" fill="#CCC3C0"/><path d="M79 52c4 0 10-1 16-5l2 5c-4 4-10 8-15 8-4-1-6-5-3-8z" fill="#443123"/><path d="M85 60c4 1 12 0 23-4l3 12c-9 5-17 7-23 7 0 4 0 7-2 11-3 6-22 0-28 1-4-12 3-18 3-26 0-9 8-23 9-23h9l6 22zM127 115l-7 3c-13 5-44 5-56 0-3 0-5-1-8-3l-2 2 8 4a127 127 0 0059 0l8-4-2-2zM52 116l-7 3c-12 4-43 4-56 0l-7-3-2 2 8 3a127 127 0 0059 0l7-3-2-2z" fill="#4F3A29"/><path d="M62 180l-4-1h-2v-64h-5v64h-2l-4 1v1h18l-1-1z" fill="#4F3A29"/><path d="M57 115h-2v-8h-3v8h-2v1h2v1h3v-1h2l1-1h-1z" fill="#4F3A29"/><path d="M55 101h-1c-2 0-4 1-4 3l-1 1c0 2 2 4 5 4 2 0 4-2 4-4s-1-3-3-4zM137 180l-4-1h-2v-64h-4v64h-2l-5 1v1h18l-1-1z" fill="#4F3A29"/><path d="M133 114h-3v-7h-2v7h-3v2h8v-1-1z" fill="#4F3A29"/><path d="M131 101h-2l-4 2v1c0 3 1 4 4 4 2 0 4-1 4-4l-2-3z" fill="#4F3A29"/></svg>