<svg width="203" height="182" viewBox="0 0 203 182" fill="none" xmlns="http://www.w3.org/2000/svg">
<path d="M172.241 16.5025C173.722 14.7511 174.733 12.663 174.531 10.3055C174.059 3.50222 164.562 4.98412 162.676 8.41941C160.857 11.8547 161.059 20.6113 163.417 21.2176C164.36 21.487 166.38 20.8808 168.468 19.601L167.189 28.7617H174.868L172.241 16.5025Z" fill="#4F3A29"/>
<path d="M159.309 3.63737C159.444 3.0985 159.916 2.62699 160.454 2.49227C160.589 2.42491 160.724 2.42491 160.859 2.42491C160.926 2.42491 160.926 2.42491 160.926 2.42491C160.926 2.42491 160.926 2.35755 160.926 2.29019C160.926 2.22283 160.993 2.08812 160.993 2.02076C161.128 1.68397 161.33 1.41453 161.532 1.1451C162.004 0.673585 162.61 0.404152 163.216 0.336794C163.553 0.336794 163.89 0.336792 164.226 0.471509C164.429 0.538868 164.563 0.606228 164.698 0.673587C164.765 0.673587 164.9 0.808303 164.967 0.808303C165.035 0.808303 165.102 0.673583 165.169 0.606224C165.708 0.202072 166.382 0 167.056 0C167.796 0 168.537 0.0673556 169.211 0.538867C169.346 0.606225 169.48 0.740943 169.615 0.87566C169.683 0.943019 169.75 1.01038 169.817 1.07774C169.885 1.1451 169.885 1.1451 169.952 1.21245C170.019 1.27981 170.019 1.27981 170.087 1.27981C170.423 1.07774 170.76 1.01038 171.097 1.07774C171.299 1.07774 171.501 1.14509 171.703 1.27981C171.771 1.27981 171.905 1.41453 171.973 1.41453C172.04 1.41453 172.175 1.27981 172.242 1.27981C172.646 1.14509 173.05 1.07774 173.455 1.1451C173.859 1.21245 174.33 1.41453 174.667 1.61661C174.869 1.75132 175.004 1.88604 175.139 2.02076C175.206 2.08812 175.206 2.15548 175.273 2.22283C175.341 2.29019 175.408 2.2902 175.408 2.35756C175.408 2.35756 175.88 2.15548 175.947 2.15548C176.216 2.08812 176.418 2.08812 176.688 2.15548C177.159 2.29019 177.496 2.62699 177.833 2.96378C177.968 3.16586 178.102 3.30058 178.237 3.50265C178.304 3.57001 178.372 3.70473 178.372 3.77209C178.372 3.83945 178.439 3.9068 178.439 3.9068C178.507 3.97416 178.507 3.97416 178.574 3.97416C178.911 4.10888 179.247 4.31096 179.517 4.58039C179.786 4.84982 179.921 5.25398 179.988 5.59077V5.72549C179.988 5.72549 180.056 5.72549 180.123 5.72549C180.19 5.72549 180.325 5.72549 180.393 5.79285C180.595 5.86021 180.729 5.8602 180.864 5.99492C181.47 6.33172 181.942 6.87059 182.144 7.54417C182.346 8.21776 182.346 9.02607 182.077 9.63229C182.009 9.76701 182.009 9.83437 181.942 9.96909C181.874 10.0364 181.874 10.0364 181.942 10.1038C181.942 10.1712 182.009 10.2385 182.077 10.3059C182.211 10.508 182.279 10.7774 182.279 10.9795C182.346 11.3836 182.413 11.7878 182.346 12.1919C182.279 12.394 182.279 12.5287 182.144 12.7308C182.077 12.7982 182.009 12.8655 182.009 13.0002C182.009 13.0676 181.942 13.0676 181.874 13.135L181.807 13.2023C181.74 13.2697 181.74 13.2023 181.807 13.2697C181.807 13.4044 181.874 13.4717 181.942 13.6065C182.009 13.7412 182.009 13.8085 182.077 13.9433C182.144 14.1453 182.211 14.4148 182.279 14.6842C182.346 15.1557 182.346 15.6272 182.144 16.0987C182.077 16.3008 181.942 16.4355 181.74 16.5702C181.672 16.6376 181.605 16.705 181.47 16.705C181.403 16.705 181.336 16.705 181.336 16.7723C181.336 16.8397 181.336 16.907 181.336 16.9744C181.403 17.4459 181.47 17.9174 181.268 18.3889C181.133 18.7931 180.864 19.1972 180.46 19.4667C179.719 19.9382 178.776 19.9382 178.035 19.534C177.833 19.3993 177.631 19.3319 177.496 19.1299C177.092 19.6687 176.216 19.6687 175.61 19.534C174.869 19.332 174.263 18.7931 173.859 18.1195C173.387 18.7257 172.377 18.5236 172.04 17.8501C171.973 17.7153 171.905 17.5133 171.905 17.3785C171.905 17.3112 171.905 17.1765 171.905 17.1091C171.905 16.9744 171.838 16.907 171.771 16.7723C171.703 16.5702 171.636 16.3008 171.636 16.0987C171.636 15.964 171.636 15.8293 171.636 15.7619C171.636 15.6272 171.636 15.5599 171.569 15.4251C171.771 15.4251 171.973 15.4251 172.175 15.3578C172.377 15.2904 172.512 15.1557 172.646 15.021C172.916 14.6842 173.118 14.28 173.253 13.8759C173.522 13.0002 173.387 11.9225 172.512 11.451C172.107 11.2489 170.828 11.2489 170.356 11.3163C169.817 11.451 169.211 12.5961 169.211 12.7308C169.211 12.7982 169.211 12.8655 169.144 12.9329C169.009 13.0002 168.807 12.8655 168.672 12.7982C168.47 12.6634 168.403 12.4614 168.268 12.2593C168.066 11.8551 167.864 11.3836 167.729 10.9121C167.594 10.5753 167.594 10.1712 167.46 9.83437C167.325 9.49758 167.123 9.16078 166.786 8.95871C166.449 8.75663 166.045 8.62191 165.641 8.4872C165.237 8.35248 164.9 8.21776 164.563 7.88097C164.496 7.81361 164.429 7.74625 164.361 7.67889C164.294 7.61153 164.294 7.47682 164.226 7.47682C164.159 7.40946 163.957 7.54417 163.89 7.61153C163.486 7.88097 163.149 8.28512 162.812 8.68927C162.542 9.09342 162.273 9.49758 162.138 9.96909C162.004 10.3059 161.936 10.71 161.667 10.9795C161.532 11.1142 160.724 11.1815 160.454 11.0468C160.185 10.9121 159.916 10.6427 159.781 10.508C159.713 10.3059 159.646 10.1038 159.713 9.96909C159.713 9.83437 159.781 9.76701 159.781 9.63229C159.781 9.56493 159.848 9.43022 159.848 9.36286C159.916 9.22814 160.118 9.09342 160.252 9.02606C160.05 8.82399 159.916 8.62192 159.781 8.41984C159.646 8.1504 159.579 7.88097 159.579 7.61153C159.579 7.40946 159.579 7.20738 159.713 7.0053C159.848 6.80323 160.05 6.66851 160.252 6.53379C159.983 6.33172 159.713 6.06228 159.511 5.72549C159.309 5.0519 159.107 4.31095 159.309 3.63737Z" fill="#232323"/>
<path d="M161.667 13.6074C161.667 14.7525 160.521 15.6955 160.589 16.7733C161.06 16.8406 161.532 16.908 162.003 16.9753" fill="#4F3A29"/>
<path d="M161.936 18.5905C162.34 18.7252 162.744 18.6578 163.081 18.4557C163.417 18.2537 163.687 17.9842 163.754 17.5801C163.417 17.7822 163.148 17.9169 162.811 18.0516C162.609 18.2537 162.272 18.3884 161.936 18.5905Z" fill="#232323"/>
<path d="M163.62 13.0671C163.62 12.865 163.552 12.663 163.417 12.5283C163.283 12.3935 163.081 12.3262 162.879 12.3262C162.676 12.3262 162.474 12.3262 162.272 12.3935C162.07 12.4609 161.936 12.663 161.936 12.865C162.138 12.7977 162.272 12.7977 162.407 12.7303C162.542 12.7303 162.676 12.7303 162.811 12.7303C162.946 12.7303 163.081 12.7977 163.215 12.7977C163.283 12.9324 163.417 12.9324 163.62 13.0671Z" fill="#232323"/>
<path d="M162.344 14.1456C162.53 14.1431 162.679 13.9903 162.676 13.8043C162.674 13.6183 162.521 13.4696 162.335 13.472C162.149 13.4745 162 13.6273 162.003 13.8133C162.005 13.9993 162.158 14.1481 162.344 14.1456Z" fill="#232323"/>
<path d="M162.273 32.8703L151.159 26.808C149.34 24.6525 147.521 22.9012 145.703 21.6887C145.164 21.4867 144.221 21.352 145.096 22.9012C145.972 24.5178 146.848 26.2018 146.376 26.6733C145.905 27.1448 144.76 26.4712 144.221 27.2795C143.884 27.8184 145.77 28.6941 150.014 29.8392L158.097 37.1813L162.273 32.8703Z" fill="#4F3A29"/>
<path d="M168.335 31.9955C164.428 31.9281 159.309 31.1198 153.718 27.6172L151.562 32.467C155.402 36.2391 160.723 39.3376 165.438 39.2029C169.143 39.0682 171.029 34.6225 168.335 31.9955Z" fill="#775D46"/>
<path d="M125.899 15.7622C130.883 14.6171 135.868 13.2026 140.785 11.9228C141.391 11.7881 143.883 10.7777 144.288 10.9797C144.288 10.9797 144.759 13.6067 144.826 14.3477C145.096 16.84 145.5 19.3322 145.837 21.8245C146.106 23.5085 146.308 24.9904 146.443 25.7987C146.443 26.0007 146.51 26.1355 146.51 26.2028C146.51 26.4722 146.51 26.607 146.376 26.7417C145.904 27.2132 144.759 26.5396 144.22 27.3479C143.951 27.7521 145.096 28.3583 147.656 29.234C149.003 32.4672 153.718 39.3378 154.257 39.8766C150.417 41.5606 146.645 43.2446 142.806 44.8612C141.863 45.2653 136.272 47.9597 135.262 47.6902C134.251 47.4208 132.769 44.3223 131.961 42.6383C130.008 38.5968 128.526 34.2859 127.515 29.9075C127.246 28.6951 124.888 15.9643 125.899 15.7622Z" fill="#F2F2F2"/>
<path d="M143.075 49.7104C140.785 48.0938 138.697 46.9487 136.744 46.4098C132.971 45.3994 131.49 44.5911 129.671 42.2335C128.661 40.9537 127.852 38.4615 128.795 37.6532C129.401 37.1143 133.106 39.8086 134.588 40.1454C136.07 40.4822 134.723 36.9122 135.531 37.249C136.541 37.249 137.417 38.6635 138.158 41.4926L143.412 44.389L143.075 49.7104Z" fill="#4F3A29"/>
<path d="M160.993 43.2448C156.884 44.2552 149.946 43.0427 140.246 39.6074C137.821 44.592 136.744 48.162 136.878 50.2501C145.231 54.6284 152.304 56.5144 158.231 56.6492C158.029 60.1518 158.501 63.4524 159.915 66.4835C162.879 72.7479 179.988 66.955 185.781 68.1001C189.418 56.3797 182.413 51.5972 182.413 44.0531C182.413 35.8353 175.812 23.1719 174.801 23.1719H165.91C165.438 29.5036 163.014 36.3742 160.993 43.2448Z" fill="#7F644F"/>
<path d="M193.122 144.216H38.1299V146.641H193.122V144.216Z" fill="#775D46"/>
<path d="M193.124 146.574H38.1318V154.118H193.124V146.574Z" fill="#876E60"/>
<path d="M29.1719 64.058V56.918H202.082V64.058H196.558H34.7626H29.1719Z" fill="#876E60"/>
<path d="M198.173 118.082H33.1445V144.15H198.173V118.082Z" fill="#CCC3C0"/>
<path d="M198.174 67.0254H33.1455V116.534H198.174V67.0254Z" fill="#CCC3C0"/>
<path d="M198.173 116.533H33.1445V118.082H198.173V116.533Z" fill="#99847A"/>
<path d="M198.175 64.0596H33.1465V67.0234H198.175V64.0596Z" fill="#775D46"/>
<path d="M101.178 51.4635L115.593 53.2148C115.929 51.8677 119.23 32.9399 119.23 32.9399L104.411 31.3906C104.411 31.3906 103.67 36.1731 102.862 41.0903C102.794 41.6292 102.66 42.168 102.592 42.7742C102.525 43.1784 102.458 43.6499 102.39 44.0541C102.323 44.2561 102.323 44.4582 102.255 44.6603C102.188 44.9971 102.121 45.3339 102.121 45.6707C102.121 45.8054 102.121 45.8727 102.121 46.0075C102.121 46.1422 102.255 46.2769 102.323 46.4116C102.794 46.9505 104.074 46.2095 104.68 47.0852C104.95 47.4894 103.939 48.0956 101.582 48.9039C101.38 50.1837 101.245 51.1267 101.178 51.4635Z" fill="#FCB21D"/>
<path d="M105.017 66.8208C107.308 65.1369 109.463 64.0591 111.417 63.5203C115.189 62.4425 116.738 61.6342 118.624 59.2767C119.634 57.9968 120.443 55.5046 119.5 54.6289C118.893 54.09 115.189 56.8517 113.639 57.1212C112.09 57.458 113.505 53.8206 112.696 54.2248C111.686 54.2248 110.743 55.7066 110.002 58.5357L104.681 61.4995L105.017 66.8208Z" fill="#CCC3C0"/>
<path d="M62.7168 82.9189L79.5565 127.443L91.3442 160.247H98.0801L81.8467 82.9189H62.7168Z" fill="#775D46"/>
<path d="M58.6075 82.9189C58.4054 98.2094 58.5402 118.754 58.136 119.697C57.8666 120.303 49.0426 127.578 31.5967 141.386L35.032 147.314C55.7111 133.977 66.5558 126.433 67.5662 124.681C69.1828 121.987 77.1312 97.5358 81.24 82.9189H58.6075Z" fill="#7F644F"/>
<path d="M25.5042 145.391L31.3413 140.925L36.0566 146.553C36.4497 150.798 37.8011 155.557 40.3004 160.848L39.2175 161.758L30.6954 151.586L28.2694 147.642L27.7537 148.076L25.5042 145.391Z" fill="#4F3A29"/>
<path d="M90.7383 166.511L91.0751 159.169H98.4172C101.92 161.594 106.433 163.615 112.091 165.097V166.511H98.8213L94.2409 165.837V166.511H90.7383Z" fill="#4F3A29"/>
<path d="M72.2129 31.4581C70.5962 29.5721 69.5185 27.2145 69.7206 24.6549C70.2595 17.1781 80.7 18.7947 82.7208 22.5668C84.7416 26.3389 84.5395 35.9038 81.9125 36.6447C80.8348 36.9142 78.6119 36.2406 76.3891 34.8934L77.8036 44.9298H69.3838L72.2129 31.4581Z" fill="#CCC3C0"/>
<path d="M79.3539 18.4578C78.2088 18.121 76.5248 17.9863 75.8512 18.0536C76.2554 17.1106 76.3901 16.0329 76.2554 15.0225C76.1206 14.0121 75.6491 13.1364 75.245 12.2608C75.0429 11.8566 74.8408 11.4525 74.504 11.1157C74.1672 10.7789 73.7631 10.5768 73.2916 10.5094C72.8201 10.3747 72.3486 10.4421 71.9444 10.5094C71.7423 10.5768 71.5403 10.6442 71.4055 10.7115C71.2035 10.7789 71.1361 10.6442 70.934 10.5094C70.5972 10.24 70.0584 10.0379 69.6542 9.97057C69.1827 9.90321 68.6438 9.97057 68.1723 10.1726C67.7008 10.3074 67.2967 10.5768 66.9599 10.981C66.8252 11.1157 66.6904 11.3177 66.6231 11.5198C66.5557 11.5872 66.5557 11.6545 66.4884 11.7219C66.421 11.7219 66.2863 11.7219 66.2189 11.7893C65.4106 12.0587 64.737 12.6649 64.4002 13.4732C64.1982 13.9447 64.0634 14.753 64.1308 15.6287C64.1308 16.5044 65.0065 18.9293 65.7474 19.7376C66.421 20.4785 67.4314 21.0174 68.3744 21.2195C67.7008 21.9604 67.2967 22.9034 66.9599 23.7791C66.6231 24.7895 66.421 25.8672 66.3536 26.945C66.2863 27.9553 66.2863 29.0331 66.4884 30.0435C66.6904 30.9865 67.1619 31.7274 67.9703 32.1989C68.307 32.401 68.7112 32.6031 69.1153 32.7378C69.5195 32.8725 69.9237 33.0072 70.3278 33.142C71.0688 33.2767 72.0118 33.2767 72.618 32.6705C72.8201 32.4684 73.0895 32.1989 73.2242 31.9295C73.2916 31.8621 73.2916 31.7948 73.2242 31.6601C73.1569 31.5254 73.0221 31.458 72.8874 31.3906C72.2812 30.8518 71.9444 30.1782 71.8097 29.3699C71.7423 28.5616 71.9444 27.4838 72.7527 27.147C73.7631 26.6755 74.8408 27.2144 75.7165 27.6859C76.1207 26.4061 76.8616 25.1936 78.0741 24.5874C79.4212 23.9138 80.9031 23.8465 82.2503 23.2402C82.5871 23.1055 82.9912 22.9034 83.1933 22.634C83.328 22.4993 83.4628 22.3646 83.4628 22.1625C83.5301 21.9604 83.3954 21.7583 83.2607 21.5563C82.7218 20.6132 80.5663 18.7946 79.3539 18.4578Z" fill="#3A291D"/>
<path d="M83.9342 28.1582C83.8668 29.438 85.0119 30.4484 85.214 31.6609C85.3487 32.9407 83.7995 32.5365 82.9238 32.806" fill="#CCC3C0"/>
<path d="M83.3949 34.0846C82.9908 34.2193 82.5866 34.152 82.1824 34.0846C81.7783 33.9499 81.5089 33.8152 81.1721 33.8152L81.5089 33.5457C81.5089 33.6805 81.5089 33.7478 81.5762 33.8825C81.6436 34.0173 81.7783 34.152 81.913 34.354C82.0477 34.4888 82.1824 34.6908 82.3172 34.8256C82.4519 35.0276 82.5866 35.1623 82.654 35.4318C82.3172 35.1623 81.913 35.0276 81.5089 34.7582C81.3068 34.6235 81.1721 34.4888 80.97 34.2193C80.8353 34.0173 80.7006 33.6805 80.7679 33.3437L80.8353 33.0742H81.1047C81.5762 33.1416 81.913 33.3437 82.2498 33.5457C82.7213 33.8152 82.9908 34.0172 83.3949 34.0846Z" fill="#3A291D"/>
<path d="M82.7889 28.361C83.0121 28.361 83.1931 28.1801 83.1931 27.9569C83.1931 27.7337 83.0121 27.5527 82.7889 27.5527C82.5657 27.5527 82.3848 27.7337 82.3848 27.9569C82.3848 28.1801 82.5657 28.361 82.7889 28.361Z" fill="#3A291D"/>
<path d="M83.5304 26.947C83.3283 26.8123 83.1262 26.8123 82.9915 26.8123C82.7895 26.8123 82.6547 26.8123 82.4527 26.8123H81.8464C81.6444 26.8123 81.4423 26.8123 81.1729 26.8123C81.2402 26.5428 81.5096 26.4081 81.7117 26.2734C81.9138 26.1387 82.1832 26.1387 82.3853 26.1387C82.6547 26.1387 82.8568 26.206 83.1263 26.3407C83.3957 26.4081 83.5978 26.6775 83.5304 26.947Z" fill="#3A291D"/>
<path d="M85.0117 53.1477L97.1363 46.4792C99.157 44.0543 101.178 42.2356 103.131 40.8884C103.737 40.619 104.748 40.4843 103.805 42.2356C102.794 43.9869 101.851 45.873 102.39 46.4118C102.862 46.9507 104.142 46.2097 104.748 47.0854C105.152 47.6916 102.996 48.6347 98.3487 49.9145L89.5248 57.9975L85.0117 53.1477Z" fill="#CCC3C0"/>
<path d="M79.0837 51.6672C83.3273 51.5999 88.9854 50.7242 95.0477 46.8848L97.4053 52.2061C93.229 56.3823 87.3688 59.7503 82.2496 59.6156C78.2081 59.4808 76.1199 54.5637 79.0837 51.6672Z" fill="#443123"/>
<path d="M84.8095 60.1533C89.3225 61.2984 96.9341 59.9512 107.509 56.1791C110.136 61.6351 111.349 65.5419 111.147 67.8321C102.053 72.6146 94.2397 74.7027 87.7733 74.8374C87.9754 78.6769 87.5038 82.3143 85.9546 85.6148C82.7214 92.4181 63.9283 86.0864 57.5966 87.3662C53.6224 74.5007 61.3013 69.2467 61.3013 61.0289C61.3013 52.0028 68.5761 38.127 69.5864 38.127H79.2861C79.8923 45.0649 82.5867 52.6764 84.8095 60.1533Z" fill="#4F3A29"/>
<path d="M126.775 115.317C124.552 116.462 122.194 117.54 119.77 118.349C107.241 122.794 76.1885 122.794 63.6598 118.483C61.1001 117.608 58.6079 116.53 56.2503 115.317L54.4316 117.338C56.8566 118.618 59.4162 119.696 62.0432 120.639C68.577 122.929 84.4736 124.141 91.8157 124.141C99.2925 124.141 114.583 122.929 121.251 120.504C123.744 119.628 126.169 118.551 128.526 117.338L126.775 115.317Z" fill="#4F3A29"/>
<path d="M52.3432 115.655C50.1204 116.8 47.7628 117.878 45.3379 118.686C32.8092 123.132 1.75686 123.132 -10.7719 118.821C-13.3315 117.945 -15.8238 116.868 -18.1813 115.655L-20 117.676C-17.5751 118.956 -15.0155 120.034 -12.3885 120.977C-5.85468 123.267 10.042 124.479 17.3841 124.479C24.8609 124.479 40.1513 123.267 46.8198 120.842C49.3121 119.966 51.737 118.888 54.0946 117.676L52.3432 115.655Z" fill="#4F3A29"/>
<path d="M62.2447 180.25C61.5037 179.509 59.8871 179.038 58.0011 179.038H55.913V116.596V115.316H53.6901H51.3999V116.596V178.97H49.3118C47.4258 178.97 45.8092 179.509 45.0682 180.183C44.7988 180.452 44.6641 180.722 44.6641 181.058V181.328H62.5815V181.058C62.5815 180.789 62.4468 180.52 62.2447 180.25Z" fill="#4F3A29"/>
<path d="M57.2609 114.576H55.0381V107.301H52.2764V114.576H50.1209C49.7841 114.576 49.5146 114.845 49.5146 115.182C49.5146 115.519 49.7841 115.788 50.1209 115.788H52.2764V116.664H55.0381V115.788H57.2609C57.5977 115.788 57.8671 115.519 57.8671 115.182C57.8671 114.845 57.5977 114.576 57.2609 114.576Z" fill="#4F3A29"/>
<path d="M55.4421 101.307C54.9033 101.104 54.297 100.97 53.6235 100.97C51.7374 100.97 50.1882 102.047 49.5819 103.529C49.4472 103.934 49.3125 104.338 49.3125 104.809C49.3125 106.897 51.1985 108.581 53.5561 108.581C55.9136 108.581 57.7997 106.897 57.7997 104.809C57.8671 103.193 56.924 101.913 55.4421 101.307Z" fill="#4F3A29"/>
<path d="M137.485 179.912C136.744 179.171 135.127 178.7 133.241 178.7H131.153V116.258V114.979H128.93H126.64V116.258V178.7H124.552C122.666 178.7 121.049 179.239 120.308 179.912C120.039 180.182 119.904 180.451 119.904 180.788V181.057H137.822V180.788C137.822 180.451 137.687 180.182 137.485 179.912Z" fill="#4F3A29"/>
<path d="M132.501 114.306H130.278V107.031H127.517V114.306H125.361C125.024 114.306 124.755 114.575 124.755 114.912C124.755 115.249 125.024 115.518 125.361 115.518H127.517V116.394H130.278V115.518H132.501C132.838 115.518 133.107 115.249 133.107 114.912C133.107 114.575 132.838 114.306 132.501 114.306Z" fill="#4F3A29"/>
<path d="M130.68 100.971C130.142 100.769 129.535 100.634 128.862 100.634C126.976 100.634 125.426 101.712 124.82 103.193C124.685 103.598 124.551 104.002 124.551 104.473C124.551 106.561 126.437 108.245 128.794 108.245C131.152 108.245 133.038 106.561 133.038 104.473C133.105 102.857 132.162 101.577 130.68 100.971Z" fill="#4F3A29"/>
</svg>
