<svg width="216" height="193" fill="none" xmlns="http://www.w3.org/2000/svg"><path d="M200 32c0 4-20 16-20 16l6 14-2 1-9-16c1-2 6-7 16-15h9z" fill="#1D67DD"/><path d="M186 60l-3 1c-6-6-8-12-8-14s6-7 15-15h11c-1 9-19 16-19 17l4 11z" fill="#0B45B7"/><path d="M187 62l1 1v1l-9 3v-1l1-1 4-3v1h2v-1h1z" fill="#073199"/><path d="M198 32l9 20 9 18h-2l-23-38h7z" fill="#1D67DD"/><path d="M216 69v2h-10l1-1h1l4-2h1v1h3z" fill="#073199"/><path d="M215 66l-5 1c-3-5-18-26-20-35h11c5 7 10 29 14 34z" fill="#1159CC"/><path d="M194 7l2-3c-1-4-6-3-7-1s-1 6 1 6h2v4h4l-2-6z" fill="#1D67DD"/><path d="M189 4V3 2l2-1 2-1 2 1h2l2-1 2 1c1 1 2 2 1 3l-1 1h1v1l-1 2h-2-1l-2 1-1-1-1-1V6h1l-1-1-1 1-1-1V4l-1-1h-2v1z" fill="#C1E7F7"/><path d="M187 20l-5-4-3-1 1-1v-2c-1 0 0 0 0 0l3 2 6 4-2 2z" fill="#1D67DD"/><path d="M192 17l-8-2-1 2 7 4c2 0 3-3 2-4z" fill="#CE3A5E"/><path d="M171 12l-1-4h9v3l-8 1z" fill="#5EA7EF"/><path d="M171 12v9l8-1v-9l-8 1z" fill="#0B45B7"/><path d="M174 13l-3-1v9l3 2V13z" fill="#5EA7EF"/><path d="M183 12l-4-1v9l4 1v-9z" fill="#8C694D"/><path d="M174 13l-3-3-2-1 2 3 3 1z" fill="#7DC1EF"/><path d="M183 12l2-2-3-2-3 3 4 1z" fill="#5EA7EF"/><path d="M174 13l1-2 9-1-1 2-9 1z" fill="#4390DD"/><path d="M174 13v10l9-2v-9l-9 1z" fill="#7DC1EF"/><path d="M178 25l-3-2-4-2v-2l3 1v-1l1 2 3 1v3z" fill="#1D67DD"/><path d="M189 21c-2 0-6 0-11-2l-2 6 11 3 1 5c2 3 11 0 14 1 2-6-2-9-2-13s-3-10-4-10h-5l-2 10z" fill="#F24C64"/><path d="M109 91V69L83 57v20l26 14z" fill="#317FDD"/><path d="M109 69l40-8v21l-40 9V69z" fill="#4390DD"/><path d="M83 57l38-7 28 11-40 8-26-12z" fill="#5EA7EF"/><path opacity=".4" d="M134 80v5l-11 3v-5l11-3zM135 70v-6l-26-12-11 2 25 13v6l12-3z" fill="#fff"/><path d="M130 65l-26-12h-1l26 12h1z" fill="#fff"/><path d="M119 66V52l16-8v13l-16 9z" fill="#4390DD"/><path d="M119 52l-26-5v13l26 6V52z" fill="#317FDD"/><path d="M135 44l-24-4-18 7 26 5 16-8z" fill="#5EA7EF"/><path opacity=".4" d="M102 59v3l7 2v-3l-7-2zM102 53v-4l17-8 6 2-15 8v4l-8-2z" fill="#fff"/><path d="M105 50l17-8-17 8z" fill="#fff"/><path d="M56 93V56l18-9v35L56 93z" fill="#5EA7EF"/><path d="M56 56l-29-6v36l29 7V56z" fill="#4390DD"/><path d="M74 47l-27-5-20 8 29 6 18-9z" fill="#7DC1EF"/><path opacity=".4" d="M37 84v4l9 2v-4l-9-2zM37 57v-5l19-9 8 2-18 9v5l-9-2z" fill="#fff"/><path d="M41 53l18-9h1l-19 9z" fill="#fff"/><path d="M84 95V81l15-8v13l-15 9z" fill="#5EA7EF"/><path d="M84 81l-24-5v13l24 6V81z" fill="#4390DD"/><path d="M99 73l-22-4-17 7 24 5 15-8z" fill="#7DC1EF"/><path opacity=".4" d="M68 88v3l7 1v-3l-7-1zM68 82v-4l16-8 6 2-15 7v4l-7-1z" fill="#fff"/><path d="M71 78l15-7h1l-16 7z" fill="#fff"/><path d="M133 82l-2-6 22-1 3 5-23 2z" fill="#7DC1EF"/><path d="M133 82v17l23-2V80l-23 2z" fill="#0B45B7"/><path d="M140 85l-7-3v17l7 3V85z" fill="#4390DD"/><path d="M166 83l-10-3v17l10 3V83z" fill="#8C694D"/><path d="M140 85l-6-5-7-3 6 5 7 3z" fill="#5EA7EF"/><path d="M166 83l7-5-10-2-7 4 10 3z" fill="#7DC1EF"/><path d="M140 85l3-5 27-1-4 4-26 2z" fill="#4390DD"/><path d="M140 85v17l26-2V83l-26 2zM137 98l2-8-29-1-3 7 30 2z" fill="#7DC1EF"/><path d="M137 98v7l-30-2v-7l30 2z" fill="#0B45B7"/><path d="M127 102l10-4v7l-10 5v-8z" fill="#7DC1EF"/><path d="M94 99l13-3v7l-13 4v-8z" fill="#8C694D"/><path d="M127 102l8-7 10-3-8 6-10 4z" fill="#4390DD"/><path d="M94 99l-8-6 13-3 8 6-13 3z" fill="#7DC1EF"/><path d="M127 102l-3-7-34-1 4 5 33 3z" fill="#5EA7EF"/><path d="M127 102v8l-33-3v-8l33 3zM65 56l-1 1 1 1v1h1v-1-1-1h-1zm0 0h1l1 1v2h-1v1l-1-1-1-1v-1l1-1zM68 58l-1-2v-1l1-1h1v2l1 2-1-2v-1h-1v3zM71 54h-1v1h1l1 1v1h-1-1a2 2 0 002 0v-1l-1-1h-1v-1l1-1v1zM63 58h-1v3h1v-1-1-1-2 3l1 1v1l-1 1h-1v-1l-1-1 1-1v-1h1zM154 87h-1v3h1v-1-1-1zm0 0v1l1 1-1 1-1 1v-1h-1v-1l1-1 1-1zM155 90v-2l1-1h1c0-1 0 0 0 0h1v1l-1 2v-2-1h-1v1l-1 2zM160 87l-1-1v2h1v2h-1-1 1l1-1v-1h-1-1v-1l1-1h1v1zM151 88h-1v1l-1 1v1l1 1v-1l1-2v-1-1 4l-1 1h-1v-1-1-2h2z" fill="#4390DD"/><path d="M47 91l21 54 15 40h8L71 91H47z" fill="#1D67DD"/><path d="M41 91v44L8 162l4 7c26-16 39-25 41-28s12-32 17-50H41z" fill="#317FDD"/><path d="M0 166l7-5 6 7c1 5 2 11 6 17l-2 1-11-12-3-5v1l-3-4zM82 192v-9h9c5 3 10 6 18 7v2H92l-6-1v1h-4z" fill="#191847"/><path d="M58 29c-2-2-3-5-3-8 1-9 14-7 16-3 3 5 2 17-1 17-1 1-4 0-7-2l2 13H54l4-17z" fill="#D6EEFC"/><path d="M64 22c0 5 1 8 3 8l6-2v2l-3 2 2 1-1 3c-2 0-7-1-8-3l-1-10c-2 0-3 1-3 3l1 1-2 3c-3-2-5-7-3-12 1-2 3-3 6-4h5l6 2c0 2-1 3-5 3l-3 3z" fill="#CE3A5E"/><path d="M53 37l1-1 12 2c0 6 3 12 7 18 5 8 6 17 0 29-5 12-9 14-32 7 0-6 0-11 2-19 0-7 5-29 10-36z" fill="#0B45B7"/><path d="M60 76v1c-14-9-14-20-10-33-3 12-1 23 10 32z" fill="#000" fill-opacity=".2"/><path d="M82 55c-5-1-12 0-16 2l-3 2-1 3c0 2 4 2 5 2h13l6-2c1-1 3-2 2-4l-2-2-4-1z" fill="#317FDD"/><path d="M64 53h1l-1 1h1l1 1h1a3 3 0 011 3v2h1v3l1 1 1 1v2l1 1v3l-2 1-1 1h-1-3v-1l-1-1v-1-2l-1-1v-1-1-1-1l-1-1v-1l-1-1a3 3 0 010-2v-2l1-1v-1h-1 1l1-1h1z" fill="#C3E3F6"/><path d="M64 53h-1l-2 1v-2l2-1h1v2zm-1 0h-1 1zm0 0h1-1zm-2 0h0z" fill="#1A2CAF"/><path d="M64 70v-2l-1-4v-2l-1-2-1-2 1-2v2l1 2 1 3v2a91 91 0 002 6h-1l-1-1z" fill="#FEFEFE"/><path d="M84 49h0l1 1 1 1 1 2v7l1 1v6l-1 1h-1-1l-1 1h-1-1l-1-1-1-2v-1-1-1-1-1-2-1-1-1-1l-1-1 1-1v-2l1-1v-1h3z" fill="#7DC1EF"/><path d="M84 49h-1-2v-2h3v2zm-1-1h-1 1zm0 0h1-1zm-2 1h0z" fill="#1A2CAF"/><path d="M81 65v-2-3-3l-1-2v-2l1-2v5l1 2v3l-1 6v-2z" fill="#FEFEFE"/><path d="M72 52v1l1 1h1v7l1 1v3l1 1v3l-1 1v1h-2l-1 1-1-1-1 1-2-1v-1-1-1-1-2-1-1-1-1-1-1h-1v-1-1-2l1-1v-1h1v-1h3z" fill="#7DC1EF"/><path d="M72 52h-3v-1h-1v-1h1l2-1 1 1v1h-1 1v1zm-2-1zm0 0h0zm-1 0h1-1z" fill="#1A2CAF"/><path d="M68 68v-2-4-2-2l-1-2 1-2v1l1 3v12h-1v-2z" fill="#FEFEFE"/><path d="M76 48v1h1l1 1 1 1v1l1 2v2l1 1v1l1 1v2l1 1v4l-2 1c0-1 0-1 0 0h-2l-1 1-2-1-1-1v-2-1-1l-1-1v-1-1-1-1l-1-1-1-2v-1-1-1l1-1v-1-1h3z" fill="#C3E3F6"/><path d="M76 48h-3c0 1 0 0 0 0l-1-1v-1h3l1 1h-1 1v1zm-2 0zm0 0l1-1-1 1zm-1 0z" fill="#1A2CAF"/><path d="M75 64v-2l-1-3v-3l-1-1-1-2 1-2v1l1 3 1 3 1 2 1 6h-1l-1-2z" fill="#FEFEFE"/><path d="M88 58l2 5 2 8c3 6 5 16-3 20-4 1-15 2-19 0-6-2-5-9-6-14l-2-15 9 1 11-1 6-4z" fill="#5EA7EF"/><path d="M61 77c-1-4 1-6 1-8 7 8 24 17 25 17l7 1c1 2-1 7-5 7-1 1-5-2-6-3L61 77zm29-14l4 2v8c-2 0-8-2-8-4s4-2 4-4c0-1-2-2 0-2zM72 24l1 1 1 2v1h-2" fill="#D6EEFC"/><path d="M72 22h-1-1-1 1l1-1h1v1zM71 24l1-1h-1v1z" fill="#CE3A5E"/></svg>