<svg width="232" height="217" fill="none" xmlns="http://www.w3.org/2000/svg"><path d="M128 114h-1v44h32v-44h-31z" fill="#FCD6D6"/><path d="M127 114l4-4h24l4 4h-32z" fill="#F9E8E8"/><path d="M146 111c5-2 8-12 8-17 0-4-3-8-8-9v-5h2v-1h-9v1h2v5c-5 1-8 5-8 9 0 5 3 15 8 17l-4 1 7 1 6-1-4-1z" fill="#CE310D"/><path d="M144 99c3 0 6-2 6-5s-3-6-6-6c-4 0-7 3-7 6s3 5 7 5z" fill="#F96353"/><path d="M167 126l-6 3a55 55 0 01-41-3l-2 2a53 53 0 0025 6 56 56 0 0025-6l-1-2z" fill="#EA3815"/><path d="M125 159l-4-1h-2v-32h-4v32h-1l-4 1v1h15v-1z" fill="#EA3815"/><path d="M121 126h-2v-6h-3v6h-2v1h2v1h3v-1h2v-1z" fill="#EA3815"/><path d="M119 115l-2-1-3 2v1c0 2 1 4 3 4s4-2 4-4l-2-2zM176 159l-4-1h-1v-32h-4v32h-2l-4 1v1h15v-1z" fill="#EA3815"/><path d="M172 126h-2v-7h-3v7h-2v1h7v-1z" fill="#EA3815"/><path d="M170 114h-1l-4 2v1c0 2 1 3 3 3 3 0 4-1 4-3l-2-3z" fill="#EA3815"/><path d="M210 91l-10 35-5 26h-5l5-61h15z" fill="#F96353"/><path d="M215 91v30c0 1 1 12 7 31h-5l-12-31-8-30h18z" fill="#F96353"/><path d="M211 91l-14 57h-8c0-27 2-44 6-57h16z" fill="#B2230B"/><path d="M215 91c-1 18 1 36 7 57h-8c-8-18-14-35-18-57h19z" fill="#CE310D"/><path d="M223 156v-5h-7c-2 2-6 3-10 4v2h16l1-1zM196 156v-5h-6l-10 4h-1l1 2h16v-1z" fill="#B2230B"/><path d="M207 57l2-5c-1-6-9-5-11-2s-1 10 1 11l4-1-1 8h7l-2-11z" fill="#F96353"/><path d="M203 52c0 4-1 5-2 5l-4-1v2l2 1-1 1v1c2 0 5 0 5-2l1-6 2 2-1 1 2 2c1-2 3-5 1-8l-3-3h-3l-4 1c0 2 0 3 3 2l2 2z" fill="#77100B"/><path d="M197 53l-1 3h1" fill="#F96353"/><path d="M198 53l1-1v1h0-1zM198 54h1l-1-1v1z" fill="#77100B"/><path d="M189 89l-8 5c-2 3-3 5-4 4v-2l-3 1c-2 0-2-1-1-1l5-3 8-8 3 4zm37 15l5 4 1 2c-3 1-5-1-7-2s-2 2-4 2c0-2 2-4 1-6l-6-18h6l4 18z" fill="#F96353"/><path d="M205 62h-2c-4 10-12 19-22 27l8 10c10-12 17-24 16-37z" fill="#EA3815"/><path d="M216 92h-22c5-12 8-22 8-31h6c6 8 7 17 8 31z" fill="#DDE3E9"/><path d="M209 61h-1-2l-2 4-3 32h15l-1 4h11c-2-18-7-31-17-40z" fill="#FC4E24"/><path d="M215 83l-3 15h4l-1-15z" fill="#000" fill-opacity=".1"/><path d="M212 89l-7-3v3h7z" fill="#fff" fill-opacity=".2"/><path d="M29 132l14 43 7 37h5l-7-80H29z" fill="#660909"/><path d="M24 132v38l-10 43 6-2 15-40 10-39H24z" fill="#77100B"/><path d="M14 211v5h20c1-2 1-3-1-3h-2l-10-4-1 1-3 1-2-1-1 1zM48 211v5h21l-1-3h-3l-10-4-1 1-2 1h-3-1z" fill="#FC7660"/><path d="M27 132l6 22h18l-3-22H27z" fill="#EA3815"/><path d="M24 132c-2 5-2 13-1 22h18l5-22H24z" fill="#FC4E24"/><path d="M33 86l-2-6c0-8 11-6 13-2 2 3 2 13-1 14l-5-2 1 10h-9l3-14z" fill="#77100B"/><path d="M36 86c-1 2-2 3-4 3-3 0-5-3-5-7v-1c-3 2-5 6-9 6-5 0-8-10 0-10l10 2c0-2 1-3 2-3l1-1h1l5-1h1c0-2 2-4 4-4s3 2 3 4-1 3-3 3l-4 1a9 9 0 010 4l-1-1c-2 0-3 1-3 2 0 2 1 3 2 3z" fill="#FC4E24"/><path d="M4 145v-1h1v1H4l-1 1 1-1zM2 143l1-1h1l-1 1H2v1l-1-1h1zM0 141l1-1h1v1H1l-1 1v-1z" fill="#B2230B"/><path d="M24 185c-2-1-5-1-7-5-4-7 3-13 3-13s7-7 15-3c3 2 3 6 4 7 2 3 8 1 14 7 8 8-3 18-4 19-1 0-11 10-19 2-6-6-4-12-6-14z" fill="#F96353"/><path d="M34 181c2-2 2-5 0-7s-5-2-7-1c-2 2-3 6-1 8s6 2 8 0z" fill="#F9BAB7"/><path d="M1 151l3-4 27 26-5 5-25-27z" fill="#89130A"/><path d="M33 180c1-2 2-4 0-5-1-2-4-2-5-1-2 2-2 4-1 6h6z" fill="#B2230B"/><path d="M45 185l-8 7 2 1 8-7-2-1zM-6 145l7 6 3-4-5-6-3-1-1 1-1 2v2zm7 1l-3-3v-1h1l3 3v1H1zm-6-1v-1h1l4 3v1h-1l-4-3z" fill="#F9BAB7"/><path d="M5 148l-3 3 3-2v-1zM10 153l-3 3 3-3zM14 158l-3 3 4-3h-1zM19 163l-3 3 3-3zM24 167l-3 3 3-2v-1zM28 172l-3 3 4-3h-1z" fill="#BABABA"/><path d="M0 150l4-3-3 4-1-1z" fill="#B2230B"/><path d="M4 148l39 40v-1L4 148z" fill="#fff"/><path d="M4 148H3l39 40h1L4 148zM3 149l39 40v-1L3 149zM3 149H2l39 40-38-40zM2 150l39 40v-1L2 150zM1 150l39 40-39-40z" fill="#fff"/><path d="M45 186l-6 5v1l6-5v-1z" fill="#B2230B"/><path d="M59 125l11 10 7 4s1 1-1 1h-5v2l-4-5-11-6 3-6zm-46 1h8l-8 24c-1 2 1 5 2 6-3 1-2-3-5-1-2 1-1 2-2 3 0 2-2 0-3 0-1-1-3-4-2-5l5-4c1-2 3-9 5-23z" fill="#77100B"/><path d="M35 95h3c6 13 15 25 29 36l-11 12c-13-16-22-31-21-48z" fill="#FCA19A"/><path d="M21 134h28c-6-16-9-29-9-39l-9-1c-7 10-8 23-10 40z" fill="#DDE3E9"/><path d="M31 94h3l3 5 3 42H22v4H8c3-22 10-39 23-51z" fill="#F9BAB7"/><path d="M23 122c1 9 2 16 4 19h-5l1-19z" fill="#000" fill-opacity=".1"/><path d="M26 130l9-4v4h-9z" fill="#fff" fill-opacity=".2"/><path d="M72 22H59v7h13v-7z" fill="#FFFBF3"/><path d="M66 24h-6 6zM67 25h-7 7zM62 26h-2v1h2v-1zM64 27h-4v1h4v-1zM125 0H78v47h47V0z" fill="#9E180A"/><path d="M123 2H79v44h44V2z" fill="#FAFAFA"/><path d="M121 4H82v39h39V4z" fill="#F96353"/><path d="M101 25a1 1 0 100-2 1 1 0 000 2z" fill="#440707"/><path d="M104 25a4 4 0 010-8 4 4 0 010 8zm0-8c-2 0-4 2-4 4s2 4 4 4 4-2 4-4-2-4-4-4z" fill="#77100B"/><path d="M108 27a8 8 0 110-16 8 8 0 010 16zm0-16c-5 0-8 3-8 8 0 4 3 8 8 8 4 0 7-4 7-8 0-5-3-8-7-8z" fill="#77100B"/><path d="M108 43s-11-1-16-19h-5s-3-5-3-11h-2v30h26z" fill="#F9E8E8"/><path d="M101 35s12 2 14-4l2 10s-9 2-16-6z" fill="#FC4E24"/></svg>