<svg width="232" height="217" viewBox="0 0 232 217" fill="none" xmlns="http://www.w3.org/2000/svg">
<path d="M127.907 114.348H127.436V158.102H158.61H159.141V114.348H127.907Z" fill="#FCD6D6"/>
<path d="M127.436 114.348L131.148 110.303H155.428L159.141 114.348H127.436Z" fill="#F9E8E8"/>
<path d="M146.118 111.271C150.833 108.537 154.309 98.8514 154.309 94.3506C154.309 89.9068 150.95 86.2036 146.413 85.0642V79.7658H148.24V78.5693H138.752V79.7658H140.578V85.0642C136.041 86.2036 132.682 89.9638 132.682 94.3506C132.682 98.9084 136.218 108.537 140.991 111.271C138.634 111.385 136.984 111.67 136.984 112.012C136.984 112.468 139.93 112.81 143.525 112.81C147.12 112.81 150.066 112.468 150.066 112.012C150.066 111.67 148.416 111.385 146.118 111.271Z" fill="#CE310D"/>
<path d="M143.583 99.4211C147.228 99.4211 150.183 96.9724 150.183 93.9517C150.183 90.9311 147.228 88.4824 143.583 88.4824C139.937 88.4824 136.982 90.9311 136.982 93.9517C136.982 96.9724 139.937 99.4211 143.583 99.4211Z" fill="#F96353"/>
<path d="M166.684 126.369C164.74 127.338 162.677 128.249 160.556 128.933C149.594 132.693 137.16 132.693 126.199 129.047C123.959 128.306 121.779 127.395 119.716 126.369L118.125 128.078C120.247 129.161 122.486 130.072 124.784 130.87C130.501 132.807 136.747 133.832 143.171 133.832C149.712 133.832 156.018 132.807 161.852 130.756C164.032 130.015 166.154 129.104 168.217 128.078L166.684 126.369Z" fill="#EA3815"/>
<path d="M124.961 159.07C124.313 158.443 122.899 158.045 121.248 158.045H119.422V127.451V126.368H117.477H115.473V127.451V158.045H113.646C111.996 158.045 110.582 158.5 109.934 159.07C109.698 159.298 109.58 159.526 109.58 159.811V160.039H125.256V159.811C125.256 159.526 125.138 159.298 124.961 159.07Z" fill="#EA3815"/>
<path d="M120.6 125.798H118.656V119.646H116.239V125.798H114.354C114.059 125.798 113.823 126.026 113.823 126.311C113.823 126.596 114.059 126.824 114.354 126.824H116.239V127.565H118.656V126.824H120.6C120.895 126.824 121.131 126.596 121.131 126.311C121.131 126.026 120.895 125.798 120.6 125.798Z" fill="#EA3815"/>
<path d="M119.009 114.519C118.538 114.348 118.007 114.234 117.418 114.234C115.768 114.234 114.413 115.146 113.882 116.399C113.764 116.741 113.646 117.083 113.646 117.482C113.646 119.248 115.297 120.672 117.359 120.672C119.422 120.672 121.072 119.248 121.072 117.482C121.131 116.171 120.306 115.032 119.009 114.519Z" fill="#EA3815"/>
<path d="M176.055 158.787C175.407 158.16 173.992 157.761 172.342 157.761H170.515V127.167V126.085H168.571H166.567V127.167V157.761H164.74C163.09 157.761 161.676 158.217 161.027 158.787C160.792 159.015 160.674 159.243 160.674 159.528V159.755H176.35V159.528C176.408 159.243 176.232 159.015 176.055 158.787Z" fill="#EA3815"/>
<path d="M171.694 125.515H169.749V119.362H167.333V125.515H165.447C165.153 125.515 164.917 125.743 164.917 126.028C164.917 126.313 165.153 126.541 165.447 126.541H167.333V127.281H169.749V126.541H171.694C171.989 126.541 172.224 126.313 172.224 126.028C172.224 125.743 171.989 125.515 171.694 125.515Z" fill="#EA3815"/>
<path d="M170.103 114.234C169.632 114.063 169.101 113.949 168.512 113.949C166.862 113.949 165.506 114.861 164.976 116.114C164.858 116.456 164.74 116.798 164.74 117.197C164.74 118.963 166.39 120.387 168.453 120.387C170.515 120.387 172.166 118.963 172.166 117.197C172.283 115.886 171.399 114.747 170.103 114.234Z" fill="#EA3815"/>
<path d="M210.412 91.0459L199.981 125.685L195.09 151.721H190.198L195.09 91.0459H210.412Z" fill="#F96353"/>
<path d="M215.067 91.0459C214.36 109.049 214.654 118.848 214.772 120.5C214.89 122.153 215.833 133.091 222.139 152.234H217.012C208.702 133.832 205.815 122.893 204.813 120.5C203.87 118.108 201.041 108.251 196.916 91.0459H215.067Z" fill="#F96353"/>
<path d="M210.647 91.0459C207.936 102.953 203.28 121.982 196.621 148.132H189.432C188.901 121.298 191.141 103.637 195.089 91.0459H210.647Z" fill="#B2230B"/>
<path d="M215.127 91.0459C214.419 109.049 216.246 126.767 221.963 148.417H214.302C205.992 130.3 199.981 112.638 195.915 91.0459H215.127Z" fill="#CE310D"/>
<path d="M222.904 155.823L222.61 151.436C220.96 151.892 218.897 151.721 216.422 150.866C213.77 152.689 210.411 153.943 206.345 154.626C206.05 154.683 205.814 154.968 205.873 155.253V155.31L206.286 156.62H216.422H222.315L222.904 155.823Z" fill="#B2230B"/>
<path d="M196.209 155.823L195.915 151.436C194.264 151.892 192.202 151.721 189.727 150.866C187.075 152.689 183.716 153.943 179.649 154.626C179.355 154.683 179.119 154.968 179.178 155.253V155.31L179.591 156.62H189.727H195.62L196.209 155.823Z" fill="#B2230B"/>
<path d="M206.581 56.9195C207.877 55.4382 208.761 53.6151 208.643 51.5641C208.231 45.696 199.745 47.0063 198.094 49.9689C196.444 52.9314 196.621 60.4517 198.743 60.9645C199.568 61.1924 201.395 60.6796 203.221 59.5971L202.043 67.5163H208.879L206.581 56.9195Z" fill="#F96353"/>
<path d="M202.927 52.2476C202.692 55.7798 201.984 57.489 200.865 57.489C199.215 57.489 197.741 56.4635 197.034 56.4635C196.504 56.4635 196.622 57.0902 196.975 57.6029C197.27 58.0017 198.684 58.4005 198.684 59.0272C198.684 59.6539 197.565 59.1412 197.565 59.54C197.565 60.1667 197.388 61.3061 198.449 61.3061C199.568 61.3061 202.692 60.9073 203.222 59.3691C203.576 58.3436 203.811 56.2356 203.87 53.0452C203.929 53.0452 203.988 53.0452 204.047 53.0452C204.99 53.0452 205.756 53.7858 205.756 54.6974C205.756 55.1531 205.579 55.5519 205.226 55.8938C205.638 56.4065 206.051 56.9762 206.581 57.546C208.467 56.4635 210.176 53.2161 208.29 50.1396C207.76 48.6013 206.345 47.8037 204.931 47.4049C203.811 46.9492 202.692 46.8922 201.69 47.177C199.804 47.348 198.095 47.9177 197.565 48.2595C197.565 50.0256 197.918 50.5384 200.924 50.4814C201.808 50.7663 202.338 51.393 202.927 52.2476Z" fill="#77100B"/>
<path d="M197.211 53.2734C197.388 54.3559 195.914 55.1535 195.973 56.179C196.445 56.293 196.916 56.4069 197.388 56.4639" fill="#F96353"/>
<path d="M197.741 52.5896C198.036 52.2478 198.448 52.1908 198.861 52.2478C199.038 52.3047 199.273 52.3617 199.45 52.5326C199.627 52.6466 199.745 52.8745 199.686 53.1023C199.509 52.9884 199.332 52.9314 199.214 52.9314C199.097 52.8745 198.92 52.8745 198.802 52.8175C198.448 52.7035 198.154 52.7035 197.741 52.5896Z" fill="#77100B"/>
<path d="M198.331 53.8995C198.526 53.8995 198.685 53.7464 198.685 53.5577C198.685 53.3689 198.526 53.2158 198.331 53.2158C198.136 53.2158 197.978 53.3689 197.978 53.5577C197.978 53.7464 198.136 53.8995 198.331 53.8995Z" fill="#77100B"/>
<path d="M189.196 89.4497L180.828 94.2353C178.706 97.4258 177.527 98.7931 177.115 98.3943C176.585 97.7676 177.469 96.97 177.115 96.4572C176.761 95.9445 175.111 96.2294 173.579 96.5712C171.988 96.913 172.342 96.1724 172.695 95.7736C174.168 94.6341 176.113 93.5517 178.47 92.5831L186.485 85.0059L189.196 89.4497ZM225.851 103.579C226.264 104.376 229.269 106.826 231.332 108.193C232.157 108.763 231.803 109.447 231.508 109.675C228.915 111.213 227.265 109.39 225.026 108.364C222.61 107.282 222.787 110.358 220.842 109.504C221.431 108.193 222.846 105.801 222.197 104.262C221.903 103.579 219.899 97.4827 216.245 86.0883H222.197C224.083 96.6282 225.321 102.496 225.851 103.579Z" fill="#F96353"/>
<path d="M205.343 61.9886L202.868 61.5898C198.625 71.7878 191.259 81.0743 180.71 89.3922L188.666 98.7356C199.273 86.8285 205.756 74.5795 205.343 61.9886Z" fill="#EA3815"/>
<path d="M216.069 91.7855H194.205C199.273 79.8783 201.807 69.7943 201.807 61.4763L208.408 60.5078C213.593 68.5409 215.008 78.454 216.069 91.7855Z" fill="#DDE3E9"/>
<path d="M208.525 60.5078H208.113C207.582 60.5078 206.816 60.5648 205.755 60.6218L204.164 65.0086C203.988 70.364 202.986 81.1887 201.218 97.4257H215.538C215.479 98.5652 215.42 99.7046 215.361 100.844H226.028C224.378 83.4676 218.602 70.0221 208.525 60.5078Z" fill="#FC4E24"/>
<path d="M214.595 83.0693C214.182 90.0769 213.18 94.9195 211.53 97.5402H215.538C215.714 92.5267 215.361 87.6841 214.595 83.0693Z" fill="black" fill-opacity="0.1"/>
<path d="M212.356 89.0508L205.284 85.8604V89.0508H212.356Z" fill="white" fill-opacity="0.2"/>
<path d="M29.2998 131.863L42.9608 175.212L49.6812 212.063H54.8591L47.8083 131.863H29.2998Z" fill="#660909"/>
<path d="M24.3416 131.863C25.223 155.614 24.2315 167.969 24.0111 170.099C23.7908 172.229 20.9264 186.288 14.2061 212.808L19.7145 210.998C30.401 186.714 34.0365 174.04 35.2484 170.845C36.4603 167.65 39.7654 154.656 45.0535 131.97H24.3416V131.863Z" fill="#77100B"/>
<path d="M14.2069 210.891C13.7662 211.956 13.5459 212.701 13.5459 213.234C13.5459 213.873 13.6561 214.831 13.8764 216.003C14.6476 216.003 21.4781 216.003 34.3679 216.003C34.9188 214.299 34.5883 213.34 33.4866 213.234C32.3849 213.127 31.3933 213.021 30.6222 212.914L21.0374 208.761C20.8171 208.654 20.5967 208.761 20.5967 208.974L20.0459 210.358C18.9442 210.891 18.0628 211.104 17.4018 211.104C16.851 211.104 16.0798 210.891 15.1984 210.465C14.8679 210.358 14.4273 210.465 14.2069 210.891Z" fill="#FC7660"/>
<path d="M48.4696 210.891C48.0289 211.956 47.8086 212.701 47.8086 213.234C47.8086 213.873 47.9187 214.831 48.1391 216.003C48.9103 216.003 55.7408 216.003 68.6306 216.003C69.1815 214.299 68.8509 213.34 67.7492 213.234C66.6475 213.127 65.656 213.021 64.8849 212.914L55.3001 208.761C55.0798 208.654 54.8594 208.761 54.8594 208.974L54.1984 210.465C53.0967 210.997 52.2154 211.21 51.5543 211.21C51.0035 211.21 50.2323 210.997 49.351 210.571C49.1306 210.358 48.6899 210.465 48.4696 210.891Z" fill="#FC7660"/>
<path d="M27.4277 131.863L33.2667 153.91H51.1141L48.4701 131.863H27.4277Z" fill="#EA3815"/>
<path d="M24.2316 131.863C22.3588 137.402 21.9181 144.751 23.13 153.91H41.3079L46.2655 131.863H24.2316Z" fill="#FC4E24"/>
<path d="M33.3769 86.4913C31.7244 84.5742 30.5125 82.2311 30.7329 79.6749C31.2837 72.1129 42.0803 73.817 44.2837 77.6513C46.4871 81.4855 46.1566 91.0711 43.4024 91.8167C42.3007 92.1362 39.9871 91.3906 37.6735 90.0061L39.1057 100.124H30.4023L33.3769 86.4913Z" fill="#77100B"/>
<path d="M36.3519 85.9582C35.2502 87.9818 33.818 89.4729 32.2757 89.4729C29.4113 89.4729 27.4282 85.7452 27.4282 81.8044C27.4282 81.6979 27.4282 81.4849 27.4282 81.3784C24.4536 83.402 22.1401 87.3428 18.0638 87.3428C12.6655 87.3428 10.4621 76.7986 18.0638 76.7986C23.2418 76.7986 25.7757 77.5442 27.9791 78.6092C28.4197 77.4377 29.0807 76.4791 29.8519 75.7335C30.0723 75.5205 30.2926 75.3075 30.7333 75.0945C30.9536 74.988 31.174 74.8815 31.5045 74.775C32.8265 74.349 34.6994 74.0294 36.9028 73.9229C37.3434 73.9229 37.674 73.9229 38.1146 73.9229C38.1146 72.0058 39.7672 70.4082 41.7502 70.4082C43.7333 70.4082 45.3858 72.0058 45.3858 73.9229C45.3858 75.84 43.8434 77.3311 41.9706 77.4376C40.8689 77.7572 39.4367 77.9702 37.8943 78.0767C38.0045 78.6092 38.1146 79.2483 38.1146 79.9938C38.1146 80.6328 38.0045 81.2719 37.8943 81.9109C37.5638 81.4849 37.1231 81.2719 36.6824 81.2719C35.3604 81.2719 34.4791 82.337 34.4791 83.402C34.3689 84.8931 35.2502 85.8517 36.3519 85.9582Z" fill="#FC4E24"/>
<path d="M3.74386 145.069C3.63369 144.75 3.74384 144.324 4.07435 144.111C4.51503 143.898 4.95571 143.898 5.17605 144.324C5.39638 144.643 5.2862 145.176 4.95569 145.495C4.62518 145.708 4.18451 145.708 3.96417 145.389L3.19301 145.921L2.97266 145.602L3.74386 145.069Z" fill="#B2230B"/>
<path d="M2.20183 142.939C2.09166 142.62 2.20185 142.194 2.53236 141.981C2.97304 141.768 3.41371 141.768 3.63405 142.194C3.85439 142.513 3.74421 143.046 3.4137 143.365C3.08319 143.578 2.64252 143.578 2.42218 143.259L1.65098 143.791L1.43066 143.472L2.20183 142.939Z" fill="#B2230B"/>
<path d="M0.438192 140.704C0.328022 140.384 0.438178 139.958 0.768687 139.745C1.20936 139.532 1.65004 139.532 1.87038 139.958C2.09072 140.278 1.98054 140.81 1.65003 141.13C1.31952 141.343 0.878849 141.343 0.658511 141.023L-0.112655 141.556L-0.333008 141.236L0.438192 140.704Z" fill="#B2230B"/>
<path d="M23.7948 185.223C22.1422 183.625 18.8372 183.732 16.7439 180.43C13.1083 172.868 20.4897 167.01 20.4897 167.01C20.4897 167.01 26.9897 160.194 34.5914 164.135C37.8965 166.478 37.566 169.566 39.1083 171.271C41.2015 173.507 47.4812 171.803 53.0999 177.661C61.1422 186.075 50.3456 195.661 49.3541 196.513C48.3626 197.471 37.8965 207.27 29.6338 199.069C23.7948 193.318 25.9982 187.353 23.7948 185.223Z" fill="#F96353"/>
<path d="M33.8047 180.805C35.9907 178.845 36.1864 175.613 34.2418 173.586C32.2972 171.559 28.9487 171.505 26.7627 173.465C24.5768 175.425 24.3811 178.657 26.3257 180.684C28.2703 182.711 31.6188 182.765 33.8047 180.805Z" fill="#F9BAB7"/>
<path d="M0.990234 150.501L4.40546 147.412L31.1767 173.4L26.4393 177.767L0.990234 150.501Z" fill="#89130A"/>
<path d="M32.8335 179.782C34.3949 178.382 34.5203 176.059 33.1136 174.592C31.7068 173.126 29.3007 173.072 27.7393 174.472C26.1779 175.872 26.0525 178.196 27.4592 179.662C28.866 181.128 31.2721 181.182 32.8335 179.782Z" fill="#B2230B"/>
<path d="M45.0236 184.615L37.1777 191.786L38.7672 193.412L46.6131 186.241L45.0236 184.615Z" fill="#F9BAB7"/>
<path d="M-5.62223 145.284L0.98794 150.503L4.40317 147.414L-0.554459 140.811C-1.21548 139.958 -2.53749 139.639 -3.52901 140.171L-5.07138 141.024L-6.06293 142.515C-6.72395 143.367 -6.50358 144.538 -5.62223 145.284ZM0.767588 146.029L-2.31714 142.515C-2.53748 142.195 -2.53751 141.876 -2.207 141.556C-1.87649 141.343 -1.54596 141.343 -1.21545 141.663L1.86928 145.177C2.08962 145.497 2.08961 145.816 1.75911 146.136C1.4286 146.349 0.987927 146.349 0.767588 146.029ZM-4.63071 144.645C-4.85105 144.432 -4.96122 144.006 -4.63071 143.686C-4.41037 143.473 -3.9697 143.367 -3.63919 143.686L-0.113754 146.881C0.106585 147.094 0.216754 147.52 -0.113754 147.84C-0.334093 148.053 -0.774797 148.159 -1.10531 147.84L-4.63071 144.645Z" fill="#F9BAB7"/>
<path d="M5.15065 148.349L1.94824 151.275L2.09961 151.43L5.30202 148.503L5.15065 148.349Z" fill="#BABABA"/>
<path d="M9.81471 153.139L6.6123 156.065L6.76368 156.22L9.96608 153.293L9.81471 153.139Z" fill="#BABABA"/>
<path d="M14.4026 157.852L11.2002 160.778L11.3516 160.933L14.554 158.006L14.4026 157.852Z" fill="#BABABA"/>
<path d="M19.1477 162.573L15.9453 165.5L16.0967 165.655L19.2991 162.728L19.1477 162.573Z" fill="#BABABA"/>
<path d="M23.8118 167.362L20.6094 170.289L20.7607 170.444L23.9632 167.517L23.8118 167.362Z" fill="#BABABA"/>
<path d="M28.4006 172.074L25.1982 175.001L25.3496 175.156L28.552 172.229L28.4006 172.074Z" fill="#BABABA"/>
<path d="M0.438477 150.078L3.96388 146.883L4.40455 147.415L0.989324 150.504L0.438477 150.078Z" fill="#B2230B"/>
<path d="M4.15127 147.52L3.99121 147.666L42.9811 187.515L43.1411 187.369L4.15127 147.52Z" fill="white"/>
<path d="M3.61518 148.031L3.45508 148.178L42.4336 188.038L42.5937 187.892L3.61518 148.031Z" fill="white"/>
<path d="M3.07421 148.533L2.91406 148.68L41.8812 188.551L42.0414 188.405L3.07421 148.533Z" fill="white"/>
<path d="M2.52143 149.067L2.36133 149.213L41.3398 189.073L41.4999 188.927L2.52143 149.067Z" fill="white"/>
<path d="M1.97358 149.583L1.81348 149.729L40.792 189.59L40.9521 189.443L1.97358 149.583Z" fill="white"/>
<path d="M1.28604 150.168L1.12598 150.314L40.1158 190.158L40.2759 190.012L1.28604 150.168Z" fill="white"/>
<path d="M44.5026 186.137L38.8184 191.332L39.3482 191.874L45.0324 186.679L44.5026 186.137Z" fill="#B2230B"/>
<path d="M59.1584 124.941L69.5143 134.634C72.4889 135.912 75.0227 137.19 76.8956 138.787C77.3363 139.32 77.777 140.278 75.7939 139.852C73.8109 139.426 71.6075 139.107 71.277 139.746C70.9465 140.385 72.0482 141.343 71.277 142.196C70.8363 142.728 69.1838 141.024 66.5397 136.87L55.8533 130.799L59.1584 124.941ZM13.3279 126.326H20.9296C16.1923 141.024 13.6584 148.799 13.3279 149.651C12.4465 151.675 14.3194 154.763 14.9804 156.361C12.4465 157.426 12.777 153.485 9.58212 154.87C7.92958 155.615 8.59059 156.574 8.37025 157.852C8.14991 159.556 5.50586 158.172 4.84485 157.532C4.294 157 1.87026 153.911 3.08213 153.166C5.72619 151.355 8.03975 149.651 8.48042 148.692C9.36178 147.414 10.9041 139.959 13.3279 126.326Z" fill="#77100B"/>
<path d="M35.0315 95.4368L38.2264 94.9043C43.6247 108.005 53.0992 119.933 66.6501 130.584L56.4043 142.619C42.8535 127.389 34.4806 111.626 35.0315 95.4368Z" fill="#FCA19A"/>
<path d="M21.2598 133.675H49.353C42.853 118.444 39.658 105.45 39.658 94.693L31.175 93.5215C24.4547 103.853 22.5818 116.633 21.2598 133.675Z" fill="#DDE3E9"/>
<path d="M30.954 93.5215H31.5049C32.1659 93.5215 33.1574 93.628 34.4795 93.628L36.5727 99.2728C36.793 106.196 38.0049 120.042 40.3184 140.917H21.9202C21.9202 142.408 22.0303 143.793 22.1405 145.284H8.47949C10.5727 123.024 18.0642 105.77 30.954 93.5215Z" fill="#F9BAB7"/>
<path d="M23.1337 122.491C23.6845 131.438 25.0065 137.722 27.0998 141.023H21.9218C21.7015 134.633 22.1421 128.456 23.1337 122.491Z" fill="black" fill-opacity="0.1"/>
<path d="M25.998 130.16L35.1421 126.112V130.16H25.998Z" fill="white" fill-opacity="0.2"/>
<path d="M72.0444 21.8418H59V29.3812H72.0444V21.8418Z" fill="#FFFBF3"/>
<path d="M66.1801 23.5176H60.376V23.8766H66.1801V23.5176Z" fill="#9E180A"/>
<path d="M67.1974 24.833H60.376V25.192H67.1974V24.833Z" fill="#9E180A"/>
<path d="M62.4703 26.1484H60.376V26.5075H62.4703V26.1484Z" fill="#9E180A"/>
<path d="M63.7867 27.4062H60.376V27.7653H63.7867V27.4062Z" fill="#9E180A"/>
<path d="M125 0.00195312H77.5498V47.4525H125V0.00195312Z" fill="#9E180A"/>
<path d="M123.086 1.91602H79.4648V45.5371H123.086V1.91602Z" fill="#FAFAFA"/>
<path d="M120.811 4.25H81.7979V43.2636H120.811V4.25Z" fill="#F96353"/>
<path d="M101.305 24.954C101.966 24.954 102.502 24.4182 102.502 23.7573C102.502 23.0963 101.966 22.5605 101.305 22.5605C100.644 22.5605 100.108 23.0963 100.108 23.7573C100.108 24.4182 100.644 24.954 101.305 24.954Z" fill="#440707"/>
<path d="M104.117 25.0729C101.843 25.0729 99.9883 23.218 99.9883 20.9442C99.9883 18.6704 101.843 16.8154 104.117 16.8154C106.391 16.8154 108.246 18.6704 108.246 20.9442C108.246 23.218 106.391 25.0729 104.117 25.0729ZM104.117 17.0548C101.963 17.0548 100.287 18.79 100.287 20.8843C100.287 23.0385 102.023 24.7139 104.117 24.7139C106.271 24.7139 107.947 22.9786 107.947 20.8843C107.947 18.79 106.211 17.0548 104.117 17.0548Z" fill="#77100B"/>
<path d="M107.527 26.8684C103.04 26.8684 99.3896 23.2183 99.3896 18.7306C99.3896 14.2428 103.04 10.5928 107.527 10.5928C112.015 10.5928 115.665 14.2428 115.665 18.7306C115.665 23.2183 112.015 26.8684 107.527 26.8684ZM107.527 10.8321C103.219 10.8321 99.6888 14.3625 99.6888 18.6708C99.6888 22.979 103.219 26.5094 107.527 26.5094C111.836 26.5094 115.366 22.979 115.366 18.6708C115.366 14.3625 111.836 10.8321 107.527 10.8321Z" fill="#77100B"/>
<path d="M108.426 43.2039C108.426 43.2039 97.2959 41.7678 92.0302 23.6971H87.1236C87.1236 23.6971 83.7727 18.7307 83.7727 12.9863H81.7383V43.1441C81.7981 43.2039 109.084 43.2039 108.426 43.2039Z" fill="#F9E8E8"/>
<path d="M100.527 35.485C100.527 35.485 112.854 36.9809 115.487 31.1768L116.863 40.5113C116.863 40.5113 107.528 43.2638 100.527 35.485Z" fill="#FC4E24"/>
</svg>
