<svg width="232" height="192" viewBox="0 0 232 192" fill="none" xmlns="http://www.w3.org/2000/svg">
<path d="M49.0996 168.104H54.3996V178.803L89.1996 180.604H334.3L370.7 174.904L374.4 174.303C374.4 174.303 376.2 174.303 376.2 169.803C376.2 169.203 376.2 167.504 376.2 165.104C376 149.804 375.4 104.804 375.4 104.804C375.4 104.804 375.4 102.104 371.8 102.104C368.2 102.104 50.9996 102.104 50.9996 102.104L49.0996 168.104Z" fill="#EA6206"/>
<path d="M94.9 161.005C99.5 159.605 105.7 159.805 105.7 159.805C105.7 159.805 111.8 159.605 116.5 161.005C116.5 161.005 122.4 163.905 122.9 180.605H105.7H88.5C89 163.905 94.9 161.005 94.9 161.005Z" fill="#890D04"/>
<path d="M105.7 191.305C113.984 191.305 120.7 184.589 120.7 176.305C120.7 168.02 113.984 161.305 105.7 161.305C97.4159 161.305 90.7002 168.02 90.7002 176.305C90.7002 184.589 97.4159 191.305 105.7 191.305Z" fill="#490202"/>
<path d="M105.7 184.305C110.118 184.305 113.7 180.723 113.7 176.305C113.7 171.886 110.118 168.305 105.7 168.305C101.282 168.305 97.7002 171.886 97.7002 176.305C97.7002 180.723 101.282 184.305 105.7 184.305Z" fill="#890D04"/>
<path d="M105.7 171.604C105.976 171.604 106.2 171.381 106.2 171.104C106.2 170.828 105.976 170.604 105.7 170.604C105.424 170.604 105.2 170.828 105.2 171.104C105.2 171.381 105.424 171.604 105.7 171.604Z" fill="#E6E7E8"/>
<path d="M105.7 182.006C105.976 182.006 106.2 181.782 106.2 181.506C106.2 181.23 105.976 181.006 105.7 181.006C105.424 181.006 105.2 181.23 105.2 181.506C105.2 181.782 105.424 182.006 105.7 182.006Z" fill="#E6E7E8"/>
<path d="M102.321 172.997C102.517 172.802 102.517 172.485 102.321 172.29C102.126 172.095 101.81 172.095 101.614 172.29C101.419 172.485 101.419 172.802 101.614 172.997C101.81 173.192 102.126 173.192 102.321 172.997Z" fill="#E6E7E8"/>
<path d="M109.707 180.423C109.902 180.228 109.902 179.911 109.707 179.716C109.512 179.521 109.195 179.521 109 179.716C108.805 179.911 108.805 180.228 109 180.423C109.195 180.618 109.512 180.618 109.707 180.423Z" fill="#E6E7E8"/>
<path d="M100.5 176.803C100.776 176.803 101 176.579 101 176.303C101 176.027 100.776 175.803 100.5 175.803C100.224 175.803 100 176.027 100 176.303C100 176.579 100.224 176.803 100.5 176.803Z" fill="#E6E7E8"/>
<path d="M110.9 176.803C111.177 176.803 111.4 176.579 111.4 176.303C111.4 176.027 111.177 175.803 110.9 175.803C110.624 175.803 110.4 176.027 110.4 176.303C110.4 176.579 110.624 176.803 110.9 176.803Z" fill="#E6E7E8"/>
<path d="M102.364 180.33C102.56 180.135 102.56 179.818 102.364 179.623C102.169 179.428 101.853 179.428 101.657 179.623C101.462 179.818 101.462 180.135 101.657 180.33C101.853 180.525 102.169 180.525 102.364 180.33Z" fill="#E6E7E8"/>
<path d="M109.626 173.008C109.821 172.813 109.821 172.496 109.626 172.301C109.431 172.105 109.114 172.105 108.919 172.301C108.724 172.496 108.724 172.813 108.919 173.008C109.114 173.203 109.431 173.203 109.626 173.008Z" fill="#E6E7E8"/>
<path d="M57.4904 178.533L82.6904 178.533L82.6904 117.433L57.4904 117.433L57.4904 178.533Z" fill="#FF8F43"/>
<path d="M69.7912 178.533L70.4912 178.533L70.4912 117.433L69.7912 117.433L69.7912 178.533Z" fill="#890D04"/>
<path d="M74.5997 162.503H78.4997C79.7997 162.503 80.8997 161.403 80.8997 160.103V122.303C80.8997 121.003 79.7997 119.903 78.4997 119.903H74.5997C73.2997 119.903 72.1997 121.003 72.1997 122.303V160.103C72.0997 161.503 73.1997 162.503 74.5997 162.503Z" fill="#FCE4D9"/>
<path d="M61.8004 162.504H65.7004C67.0004 162.504 68.1004 161.404 68.1004 160.104V122.304C68.1004 121.004 67.0004 119.904 65.7004 119.904H61.8004C60.5004 119.904 59.4004 121.004 59.4004 122.304V160.104C59.4004 161.504 60.5004 162.504 61.8004 162.504Z" fill="#FCE4D9"/>
<path d="M48.6005 168.104H54.5005V179.104H51.6005C51.6005 179.104 48.8005 179.403 48.7005 176.303C48.4005 173.203 48.6005 168.104 48.6005 168.104Z" fill="#FF8F43"/>
<path d="M49.3002 162.104H52.1002V166.204H49.2002L49.3002 162.104Z" fill="#FFFAD7"/>
<path d="M50.6002 115.404C50.6002 115.404 53.8002 115.104 53.8002 119.104C53.8002 123.104 53.8002 145.504 53.8002 145.504C53.8002 145.504 53.9002 148.304 49.7002 148.304L50.6002 115.404Z" fill="#FCE4D9"/>
<path d="M57.5133 114.561L59.1133 114.561L59.1133 110.861L57.5133 110.861L57.5133 114.561Z" fill="#414042"/>
<path d="M58.4 111.805L47 115.105V123.805H47.5V115.605L58.4 113.405V111.805Z" fill="#890D04"/>
<path d="M49.4998 116.604V128.204H48.7998C48.7998 128.204 47.3998 126.504 47.2998 123.004V121.004V120.404C47.2998 120.404 47.2998 117.904 48.7998 116.604H49.4998Z" fill="#890D04"/>
<path d="M219.6 138.603H250.9C253.4 138.603 255.4 136.603 255.4 134.103V113.903C255.4 111.403 253.4 109.403 250.9 109.403H219.6C217.1 109.403 215.1 111.403 215.1 113.903V134.103C215 136.503 217.1 138.603 219.6 138.603Z" fill="#FCE4D9"/>
<path d="M176.799 138.603H208.099C210.599 138.603 212.599 136.603 212.599 134.103V113.903C212.599 111.403 210.599 109.403 208.099 109.403H176.799C174.299 109.403 172.299 111.403 172.299 113.903V134.103C172.199 136.503 174.299 138.603 176.799 138.603Z" fill="#FCE4D9"/>
<path d="M134 138.603H165.3C167.8 138.603 169.8 136.603 169.8 134.103V113.903C169.8 111.403 167.8 109.403 165.3 109.403H134C131.5 109.403 129.5 111.403 129.5 113.903V134.103C129.4 136.503 131.5 138.603 134 138.603Z" fill="#FCE4D9"/>
<path d="M91.1997 138.604H122.5C125 138.604 127 136.604 127 134.104V113.904C127 111.404 125 109.404 122.5 109.404H91.1997C88.6997 109.404 86.6997 111.404 86.6997 113.904V134.104C86.5997 136.504 88.6997 138.604 91.1997 138.604Z" fill="#FCE4D9"/>
<path d="M111.5 100.004H147.4C148.4 100.004 149.3 100.804 149.3 101.904V102.304H109.7V101.904C109.7 100.804 110.5 100.004 111.5 100.004Z" fill="#890D04"/>
<path d="M123.7 164.603H253.7C254.2 164.603 254.5 164.203 254.5 163.803V163.503C254.5 163.003 254.1 162.703 253.7 162.703H123.7C123.2 162.703 122.9 163.103 122.9 163.503V163.803C122.9 164.203 123.3 164.603 123.7 164.603Z" fill="#890D04"/>
<path d="M0.929882 35.4762L11.7288 34.0927C13.3518 33.904 14.8499 33.2123 16.0359 32.1432C20.2181 28.5587 32.9521 20.2578 60.3551 20.2578C60.3551 20.2578 72.8393 19.566 84.2624 22.899C85.5733 23.2763 86.7593 23.7794 87.9453 24.4711C92.2524 26.8608 103.675 33.1494 105.985 33.904C108.794 34.7844 122.027 35.6019 126.584 36.4823C131.141 37.3628 141.94 41.073 141.94 46.4812V52.4554C141.94 52.8327 141.128 56.7946 141.128 56.7946L139.443 57.6121C139.505 59.4987 138.007 61.0079 136.135 61.0079H125.585C125.585 53.3987 119.468 47.2988 111.978 47.2988C104.425 47.2988 98.3697 53.4616 98.3697 61.0079H37.5088C37.5088 53.3987 31.3915 47.2988 23.901 47.2988C16.348 47.2988 10.2931 53.4616 10.2931 61.0079L-3.25234 58.9956V40.2555C-3.31476 37.8658 -1.50455 35.7906 0.929882 35.4762Z" fill="#FCAF7B"/>
<path d="M111.978 47.2988C119.531 47.2988 125.586 53.4616 125.586 61.008V65.2842H98.3701V61.008C98.3701 53.4616 104.487 47.2988 111.978 47.2988Z" fill="#FA873A"/>
<path d="M23.9008 47.2988C31.4538 47.2988 37.5087 53.4616 37.5087 61.008V65.2842H10.293V61.008C10.293 53.4616 16.3478 47.2988 23.9008 47.2988Z" fill="#FA873A"/>
<path d="M128.145 41.073C127.645 40.6957 127.895 39.941 128.457 39.8152C130.017 39.5008 132.577 39.7523 134.886 40.6328C136.384 41.1987 139.505 43.5255 140.254 46.3554C140.379 46.7956 139.942 47.11 139.568 46.9843C137.321 46.1038 131.266 43.6513 128.145 41.073Z" fill="#FEEBDE"/>
<path d="M132.39 55.9143H135.386C135.823 55.9143 136.197 55.537 136.197 55.0968C136.197 54.6566 135.823 54.2793 135.386 54.2793H132.39C131.953 54.2793 131.578 54.6566 131.578 55.0968C131.641 55.537 131.953 55.9143 132.39 55.9143Z" fill="#FA873A"/>
<path d="M-3.31445 41.8275C-2.12844 41.7646 -0.130964 41.7017 1.55442 41.8275C2.99011 41.8904 3.80159 43.5255 3.05253 44.7203L1.92895 46.544C1.55442 47.1099 0.992624 47.4873 0.305987 47.4873H-3.31445V41.8275Z" fill="#F97319"/>
<path d="M111.978 73.2074C118.666 73.2074 124.088 67.7453 124.088 61.0075C124.088 54.2697 118.666 48.8076 111.978 48.8076C105.29 48.8076 99.8682 54.2697 99.8682 61.0075C99.8682 67.7453 105.29 73.2074 111.978 73.2074Z" fill="#FB9B5A"/>
<path d="M111.978 69.3722C116.563 69.3722 120.28 65.6276 120.28 61.0084C120.28 56.3891 116.563 52.6445 111.978 52.6445C107.393 52.6445 103.676 56.3891 103.676 61.0084C103.676 65.6276 107.393 69.3722 111.978 69.3722Z" fill="#F97319"/>
<path d="M111.978 63.7119C113.46 63.7119 114.662 62.5012 114.662 61.0078C114.662 59.5144 113.46 58.3037 111.978 58.3037C110.496 58.3037 109.294 59.5144 109.294 61.0078C109.294 62.5012 110.496 63.7119 111.978 63.7119Z" fill="#FA873A"/>
<path d="M23.9018 73.2074C30.5898 73.2074 36.0115 67.7453 36.0115 61.0075C36.0115 54.2697 30.5898 48.8076 23.9018 48.8076C17.2137 48.8076 11.792 54.2697 11.792 61.0075C11.792 67.7453 17.2137 73.2074 23.9018 73.2074Z" fill="#FB9B5A"/>
<path d="M23.9017 69.3722C28.4868 69.3722 32.2037 65.6276 32.2037 61.0084C32.2037 56.3891 28.4868 52.6445 23.9017 52.6445C19.3166 52.6445 15.5996 56.3891 15.5996 61.0084C15.5996 65.6276 19.3166 69.3722 23.9017 69.3722Z" fill="#F97319"/>
<path d="M23.9019 63.7119C25.3843 63.7119 26.586 62.5012 26.586 61.0078C26.586 59.5144 25.3843 58.3037 23.9019 58.3037C22.4195 58.3037 21.2178 59.5144 21.2178 61.0078C21.2178 62.5012 22.4195 63.7119 23.9019 63.7119Z" fill="#FA873A"/>
<path d="M84.7623 23.3389C85.012 23.3389 85.2617 23.4017 85.5738 23.4017C86.3853 23.7162 87.1967 24.0935 87.9458 24.4708C92.0656 26.7347 102.677 32.5831 105.611 33.7151C98.7447 32.4573 87.9458 25.9801 84.6375 23.9048C84.2629 23.779 84.4502 23.3389 84.7623 23.3389Z" fill="#FCAF7B"/>
<path d="M37.4473 59.4355H98.4954C98.4329 59.9386 98.4329 60.5046 98.4329 61.0077H37.5097C37.5097 60.5046 37.5097 59.9386 37.4473 59.4355Z" fill="#FA873A"/>
<path d="M99.8053 35.8538C100.117 35.8538 100.242 35.4765 99.9925 35.2879C96.4969 32.7095 81.2037 22.5849 60.9792 22.8993C60.9792 22.8993 35.3864 21.0127 23.5888 33.5899C23.3391 33.8415 23.5888 34.2817 23.9633 34.2817L99.8053 35.8538Z" fill="#FB9B5A"/>
<path d="M66.8477 25.6666V32.9614C66.8477 33.4644 67.2222 33.8418 67.7216 33.8418H93.4392C93.7513 33.8418 93.9386 33.4016 93.6264 33.2129C90.3805 31.2006 79.4568 25.1006 67.6591 24.9748C67.1598 24.9119 66.8477 25.2264 66.8477 25.6666Z" fill="#FEEBDE"/>
<path d="M62.3528 25.9181V32.6469C62.3528 33.2758 61.8535 33.7788 61.2293 33.7788L38.0709 33.15C37.4467 33.15 37.0098 32.6469 37.0098 32.0181V28.2449C37.0098 27.7418 37.3219 27.3016 37.8212 27.1758C40.6302 26.3583 50.4928 23.9686 61.4165 24.849C61.9159 24.849 62.3528 25.3521 62.3528 25.9181Z" fill="#FEEBDE"/>
<path d="M35.3868 28.8732V32.6463C35.3868 32.8979 35.1995 33.0865 34.9499 33.0865L29.0822 32.835C28.6453 32.835 28.5204 32.269 28.8326 32.0175C30.1434 31.0113 32.5778 29.3134 34.825 28.4329C35.0747 28.3701 35.3868 28.5587 35.3868 28.8732Z" fill="#FEEBDE"/>
<path d="M37.5087 61.0078C37.5087 61.0078 37.5711 63.7119 36.6348 65.2841C36.6348 65.347 99.4307 65.2841 99.4307 65.2841C99.4307 65.2841 98.2447 62.9573 98.3695 61.0078H37.5087Z" fill="#FA873A"/>
<path d="M125.586 61.0077C125.586 60.5046 125.523 59.9386 125.523 59.4355H129.83C130.392 59.4355 130.892 59.1211 131.141 58.618L131.453 57.9263C131.766 57.2345 132.452 56.7944 133.139 56.7944H139.88L140.505 56.7314C142.44 56.7314 144 58.2407 144 60.1902V62.8942C144 64.4035 142.752 65.6612 141.254 65.5984L124.712 65.221C124.712 65.2839 125.523 63.7118 125.586 61.0077Z" fill="#FA873A"/>
<path d="M-5 55.9146C-5 55.097 -4.31337 54.4053 -3.50189 54.4053H5.54919C6.36066 54.4053 7.17215 54.8455 7.6091 55.6001L10.4805 60.5681C10.6053 60.8197 10.7302 61.1341 10.7302 61.4485V64.1526C10.7302 64.9701 10.0435 65.6619 9.23205 65.6619H-1.62926C-2.31589 65.6619 -2.9401 65.2217 -3.12736 64.53L-4.93757 57.6754C-4.93757 57.5496 -5 57.4867 -5 57.3609V55.9146Z" fill="#FA873A"/>
<path d="M49.123 31.6543L55.2068 53.127L59.6556 68.9449H62.8876L58.1726 31.6543H49.123Z" fill="#F97319"/>
<path d="M47.4878 31.6543C47.3357 42.7345 46.8794 48.7331 46.7273 49.7647C46.5752 50.7581 44.3318 57.177 40.0352 68.9449H43.3812C48.8946 57.6355 51.9365 51.2548 52.5829 49.7647C53.2293 48.2746 55.2065 42.2378 58.1723 31.6543H47.4878Z" fill="#FA873A"/>
<path d="M39.7314 72.0015L39.8835 68.4482H43.4197C45.0927 69.6327 47.2601 70.5879 49.9598 71.3138V72.0015H43.5718L41.4045 71.6577V72.0015H39.7314Z" fill="#EA6206"/>
<path d="M59.1992 72.0015L59.3513 68.4482H62.8875C64.5605 69.6327 66.7279 70.5879 69.4275 71.3138V72.0015H63.0396L60.8723 71.6577V72.0015H59.1992Z" fill="#EA6206"/>
<path d="M51.7848 10.4118C51.0243 9.49478 50.492 8.38676 50.568 7.12591C50.8342 3.5344 55.8153 4.29855 56.8039 6.13252C57.7925 7.96648 57.6784 12.5896 56.3856 12.8953C55.8913 13.0099 54.8266 12.7042 53.724 12.0547L54.4084 16.9071H50.3779L51.7848 10.4118Z" fill="#F97319"/>
<path d="M55.2066 4.14532C54.6743 3.99249 53.8758 3.91607 53.5336 3.95428C53.7237 3.49579 53.7998 2.99908 53.7237 2.46418C53.6477 1.96748 53.4576 1.5472 53.2294 1.12691C53.1534 0.935875 53.0393 0.74484 52.8872 0.592009C52.7351 0.439179 52.545 0.324555 52.3169 0.286347C52.0887 0.24814 51.8606 0.24814 51.6705 0.286347C51.5564 0.324555 51.4803 0.362761 51.4043 0.362761C51.2902 0.400969 51.2522 0.324558 51.1762 0.248143C51.0241 0.095313 50.7579 0.0188955 50.5678 0.0188955C50.3397 -0.0193121 50.0735 0.0188943 49.8453 0.0953095C49.6172 0.171725 49.4271 0.286347 49.237 0.477385C49.1609 0.553801 49.0849 0.668422 49.0469 0.744837C49.0469 0.783045 49.0088 0.821257 48.9708 0.821257C48.9328 0.821257 48.8948 0.821254 48.8567 0.859461C48.4765 0.974084 48.1343 1.27975 47.9822 1.66182C47.8681 1.89107 47.8301 2.27314 47.8301 2.69343C47.8301 3.11371 48.2483 4.25994 48.5905 4.68022C48.9328 5.0623 49.3891 5.29154 49.8453 5.40617C49.5412 5.75004 49.313 6.20852 49.1609 6.66701C49.0088 7.16371 48.8948 7.66041 48.8567 8.19532C48.8187 8.69202 48.8187 9.18872 48.9328 9.68542C49.0468 10.1439 49.275 10.4878 49.6552 10.7552C49.8453 10.8699 50.0355 10.9463 50.2256 11.0227C50.4157 11.0991 50.6058 11.1755 50.7959 11.2137C51.1762 11.2901 51.5944 11.2901 51.8986 10.9845C52.0127 10.8698 52.1267 10.7552 52.2028 10.6024C52.2408 10.5642 52.2408 10.526 52.2028 10.4878C52.1648 10.4496 52.0887 10.3732 52.0507 10.3349C51.7465 10.1057 51.5944 9.76183 51.5564 9.37975C51.5184 8.99768 51.6324 8.46277 52.0127 8.30994C52.4689 8.0807 53.0013 8.34815 53.4196 8.57739C53.6097 7.92786 53.9519 7.39296 54.5222 7.0873C55.1686 6.78164 55.8911 6.74343 56.5375 6.43777C56.6896 6.36136 56.8797 6.28494 56.9938 6.13211C57.0318 6.05569 57.1078 5.97928 57.1458 5.90286C57.1838 5.78824 57.1078 5.71182 57.0698 5.63541C56.8417 5.21513 55.777 4.33635 55.2066 4.14532Z" fill="#331FA8"/>
<path d="M57.2606 8.80664C57.2606 9.49438 57.983 10.0675 57.983 10.7552C57.7169 10.8316 57.4126 10.8699 57.1465 10.9081" fill="#F97319"/>
<path d="M57.1466 11.9014C56.9184 11.9778 56.6523 11.9396 56.4622 11.8249C56.272 11.7103 56.0819 11.5193 56.0059 11.29C56.234 11.4047 56.3861 11.4811 56.5762 11.5957C56.7283 11.6721 56.9184 11.7485 57.1466 11.9014Z" fill="#331FA8"/>
<path d="M56.0822 8.50061C56.0441 8.38598 56.1202 8.23316 56.2343 8.15674C56.3103 8.08032 56.4624 8.04211 56.5764 8.00391C56.6905 8.00391 56.8046 8.00391 56.9187 8.04212C57.0327 8.08032 57.1088 8.19495 57.1468 8.30957C57.0327 8.27136 56.9567 8.27136 56.8426 8.23315C56.7666 8.23315 56.6525 8.23315 56.5764 8.23315C56.5004 8.23315 56.4244 8.27136 56.3103 8.27136C56.2723 8.38599 56.1582 8.42419 56.0822 8.50061Z" fill="#331FA8"/>
<path d="M56.8425 9.15063C56.9475 9.15063 57.0326 9.0651 57.0326 8.95959C57.0326 8.85409 56.9475 8.76855 56.8425 8.76855C56.7375 8.76855 56.6523 8.85409 56.6523 8.95959C56.6523 9.0651 56.7375 9.15063 56.8425 9.15063Z" fill="#331FA8"/>
<path d="M64.2565 26.1527L70.3403 23.4782C71.4049 22.4084 72.4316 21.606 73.4202 21.0329C73.7244 20.9565 74.2187 20.9183 73.6863 21.7206C73.154 22.523 72.6217 23.3635 72.8118 23.6692C73.04 23.9367 73.6483 23.631 73.9145 24.0895C74.0666 24.3952 73.0399 24.739 70.7585 25.1593L66.1957 28.6744L64.2565 26.1527ZM39.6554 26.9168L43.0775 27.6046C39.6174 34.0999 37.7542 37.5003 37.5261 37.9206C36.9557 38.7994 37.4881 40.4041 37.6782 41.2447C36.4614 41.5121 36.9557 39.6782 35.3968 40.0603C33.9899 40.4041 32.7732 41.3211 31.4804 40.0985C31.3283 39.9456 31.2142 39.4871 31.7466 39.2579C33.1154 38.6466 35.1686 37.5386 35.4728 37.1183C35.9291 36.4687 37.2979 33.1065 39.6554 26.9168Z" fill="#F97319"/>
<path d="M52.4307 13.9647L53.8755 13.6973C57.0315 16.7921 58.3243 24.1661 60.4536 25.1595C62.4308 26.0765 65.2826 25.1977 68.6286 23.9751L69.6552 26.2676C66.6134 29.5916 60.1114 32.3808 57.4877 30.7761C53.2671 28.2926 52.2786 19.1609 52.4307 13.9647Z" fill="#331FA8"/>
<path d="M46.1191 32.3045C51.9367 32.3045 56.2334 32.3045 58.9711 32.3045C59.5414 32.3045 59.4654 31.4639 59.3513 31.0054C58.3627 26.0384 54.5604 20.6894 54.5604 13.621L50.8721 13.0479C47.7922 18.0148 46.7275 24.128 46.1191 32.3045Z" fill="#FEEBDE"/>
<path d="M44.8265 27.2992C42.2029 32.0369 39.9975 35.4756 38.2104 37.5388L32.4941 29.8059C34.2432 18.9931 42.2789 18.2058 50.568 13.0859H50.606H52.0129C55.3209 24.4718 56.2715 32.0751 54.7506 35.8577H43.1915C43.4576 33.0685 44.028 30.1647 44.8265 27.2992Z" fill="#5435D6"/>
<path d="M38.0928 34.4414L44.2525 55.723L47.1423 71.732H50.0321L47.1423 34.4414H38.0928Z" fill="#EA6206"/>
<path d="M35.3173 34.4414C35.7355 45.5216 35.5834 51.5202 35.4694 52.5518C35.3553 53.5452 34.823 60.2697 31.0967 72.0759H34.1005C39.0056 60.7664 40.7546 54.0419 41.287 52.5518C41.8573 51.0617 43.5303 45.0249 45.9638 34.4414H35.3173Z" fill="#EA6206"/>
<path d="M37.9414 34.4414C39.5384 41.7773 42.3141 53.4688 46.2305 69.516H50.4891C50.7933 53.0103 49.4625 42.1593 47.1431 34.4414H37.9414Z" fill="#331FA8"/>
<path d="M35.3176 34.4414C35.7358 45.5216 34.6332 56.4108 31.2871 69.707H35.8119C40.7549 58.5886 44.2911 47.7376 46.6866 34.4414H35.3176Z" fill="#5435D6"/>
<path d="M30.7168 74.2539L30.8689 71.5411C31.8575 71.8468 33.0742 71.7322 34.5191 71.1973C36.1161 72.3053 38.0934 73.0694 40.4888 73.4897C40.679 73.5279 40.793 73.6808 40.755 73.8718V73.91L40.5269 74.7124H34.5191H31.021L30.7168 74.2539Z" fill="#CD5605"/>
<path d="M46.4961 74.2539L46.6482 71.5411C47.6368 71.8468 48.8535 71.7322 50.2984 71.1973C51.8954 72.3053 53.8726 73.0694 56.2681 73.4897C56.4582 73.5279 56.5723 73.6808 56.5343 73.8718V73.91L56.3062 74.7124H50.2984H46.8003L46.4961 74.2539Z" fill="#CD5605"/>
<path d="M39.5758 13.1588C38.8154 12.2419 38.283 11.1338 38.3591 9.87299C38.6252 6.28147 43.6063 7.04562 44.5949 8.87959C45.5835 10.7136 45.4695 15.3367 44.1767 15.6423C43.6824 15.757 42.6177 15.4513 41.515 14.8018L42.1995 19.6541H38.1689L39.5758 13.1588Z" fill="#EA6206"/>
<path d="M39.2714 13.9991C38.7771 11.7449 37.3322 10.2166 37.5604 9.18496C37.7125 8.49722 38.0927 8.07694 38.7391 7.92411C39.0813 6.58684 40.146 6.01373 41.9331 6.20476C44.6327 6.51043 46.2677 7.61844 45.5453 10.1019C44.8989 10.1019 44.1004 9.8727 43.0358 10.2548C42.6935 10.3694 42.4274 10.7897 42.3133 11.4392H41.819C41.3247 10.6368 40.8684 10.3694 40.4121 10.5604C39.9558 10.7897 39.8418 11.2864 40.108 12.0887L39.8798 13.9609H39.2714V13.9991Z" fill="#CD5605"/>
<path d="M45.1275 11.708C45.2796 12.2047 45.3936 12.7396 45.4697 13.2363C45.5457 13.8094 45.5077 14.1151 44.8232 14.0387" fill="#EA6206"/>
<path d="M44.4808 11.3252C44.2906 11.287 44.1385 11.2488 43.9864 11.2106C43.8343 11.2106 43.6442 11.2106 43.4541 11.1724C43.5301 11.1342 43.6062 11.0959 43.7203 11.0577C43.7963 11.0195 43.9104 11.0195 44.0245 11.0195C44.1765 11.0577 44.3667 11.1724 44.4808 11.3252Z" fill="#331FA8"/>
<path d="M44.2145 12.0894C44.3405 12.0894 44.4426 11.9867 44.4426 11.8601C44.4426 11.7335 44.3405 11.6309 44.2145 11.6309C44.0885 11.6309 43.9863 11.7335 43.9863 11.8601C43.9863 11.9867 44.0885 12.0894 44.2145 12.0894Z" fill="#331FA8"/>
<path d="M44.8227 14.8408C44.6706 14.9172 44.4805 14.9554 44.2904 14.879C44.1003 14.8026 44.0242 14.6498 43.9102 14.5352C43.9862 14.5352 44.1003 14.5734 44.1763 14.6116C44.2523 14.6498 44.3284 14.688 44.4044 14.7262C44.4805 14.7644 44.6706 14.7644 44.8227 14.8408Z" fill="#331FA8"/>
<path d="M51.1727 31.7285L56.1918 35.4347C57.5606 35.8167 58.7013 36.2752 59.6139 36.8101C59.842 37.0012 60.1082 37.4214 59.1956 37.345C58.2831 37.2686 57.3325 37.2304 57.2184 37.5361C57.1044 37.8417 57.6367 38.2238 57.3705 38.6441C57.2184 38.9115 56.4199 38.2238 55.0131 36.5809L50.032 34.5177L51.1727 31.7285ZM31.8188 31.8431H35.1268C33.0735 38.4531 32.0089 41.9682 31.8188 42.3502C31.4385 43.2672 32.2371 44.6427 32.5412 45.4068C31.4766 45.9035 31.5907 44.1078 30.2218 44.7191C28.967 45.2922 28.0545 46.362 26.6096 45.445C26.4195 45.3304 26.2293 44.9101 26.7236 44.6045C27.9024 43.8021 29.5754 42.3884 29.8035 41.9299C30.1077 41.3568 30.7922 37.9946 31.8188 31.8431Z" fill="#EA6206"/>
<path d="M41.2114 17.9353L42.5803 17.7061C47.6374 22.0999 49.7287 30.5438 55.9265 35.0141L54.4436 36.8863C43.645 35.549 40.9833 25.2329 41.2114 17.9353Z" fill="#EA6206"/>
<path d="M35.2412 35.1669C40.7166 35.1669 44.7471 35.1669 47.3327 35.1669C47.903 35.1669 47.789 34.3646 47.7129 33.9443C46.8003 29.283 43.1881 24.2395 43.1881 17.6296L39.6899 17.0947C36.8002 21.7561 35.8116 27.4872 35.2412 35.1669Z" fill="#FEEBDE"/>
<path d="M35.3542 21.6797C34.8599 21.5269 34.4416 21.183 34.1374 20.6481C32.8826 18.3556 33.3389 17.0566 34.6697 16.6363C36.0386 16.216 37.2553 17.0948 39.4226 17.0948C39.5367 17.0948 39.6508 17.0948 39.7649 17.133L40.8676 17.2094C43.9855 27.8693 44.86 34.9759 43.4531 38.5292H33.9473C33.3769 39.8665 32.8446 40.9745 32.3123 41.8533H29.7267C29.4605 33.9061 31.3617 27.1816 35.3542 21.6797Z" fill="#F97319"/>
<path d="M36.0014 33.0273C36.3056 35.549 36.8 37.383 37.4464 38.491H33.9102C34.5946 36.9627 35.279 35.167 36.0014 33.0273Z" fill="#EA6206"/>
<path d="M31.353 23.1196C32.7219 22.3555 34.9653 21.464 35.5356 21.5913L32.874 25.6031L33.2542 26.7494L30.7827 28.2777C30.0222 27.5135 29.642 24.0748 31.353 23.1196Z" fill="#EA6206"/>
<path d="M33.4445 31.3339C32.2277 30.7226 31.4166 28.9141 31.1631 28.0863L32.8741 26.749C33.0642 26.8764 33.5966 27.2839 34.2049 27.8953C34.9654 28.6594 34.9654 29.0415 34.7753 29.0415C34.5852 29.0415 33.4445 28.6594 33.6346 29.0415C33.7867 29.3471 34.5852 30.8245 34.9654 31.525C34.9654 31.716 34.6612 31.9453 33.4445 31.3339Z" fill="#F97319"/>
</svg>
