<svg width="232" height="192" fill="none" xmlns="http://www.w3.org/2000/svg"><path d="M49 168h5v11l35 2h245l37-6 3-1s2 0 2-4v-5l-1-60s0-3-3-3H51l-2 66z" fill="#EA6206"/><path d="M95 161l11-1 11 1s5 3 6 20H89c0-17 6-20 6-20z" fill="#890D04"/><path d="M106 191a15 15 0 100-30 15 15 0 000 30z" fill="#490202"/><path d="M106 184a8 8 0 100-16 8 8 0 000 16z" fill="#890D04"/><path d="M106 172v-1 1zM106 182a1 1 0 100-1 1 1 0 000 1zM102 173v-1a1 1 0 100 1zM110 180a1 1 0 10-1 0 1 1 0 001 0zM101 177a1 1 0 10-1-1 1 1 0 001 1zM111 177v-1 1zM102 180c1 0 1 0 0 0zM110 173a1 1 0 10-1-1 1 1 0 001 1z" fill="#E6E7E8"/><path d="M57 179h26v-62H57v62z" fill="#FF8F43"/><path d="M70 179v-62 62z" fill="#890D04"/><path d="M75 163h3c2 0 3-2 3-3v-38c0-1-1-2-3-2h-3c-2 0-3 1-3 2v38c0 2 1 3 3 3zM62 163h4l2-3v-38l-2-2h-4l-3 2v38c0 2 2 3 3 3z" fill="#FCE4D9"/><path d="M49 168h6v11h-3s-3 0-3-3v-8z" fill="#FF8F43"/><path d="M49 162h3v4h-3v-4z" fill="#FFFAD7"/><path d="M51 115s3 0 3 4v27s0 2-4 2l1-33z" fill="#FCE4D9"/><path d="M58 115h1v-4h-1v4z" fill="#414042"/><path d="M58 112l-11 3v9h1v-8l10-3v-1z" fill="#890D04"/><path d="M49 117v11s-2-1-2-5v-3s0-2 2-3z" fill="#890D04"/><path d="M220 139h31c2 0 4-2 4-5v-20c0-3-2-5-4-5h-31c-3 0-5 2-5 5v20c0 3 2 5 5 5zM177 139h31c3 0 5-2 5-5v-20c0-3-2-5-5-5h-31c-3 0-5 2-5 5v20c0 3 2 5 5 5zM134 139h31c3 0 5-2 5-5v-20c0-3-2-5-5-5h-31c-2 0-4 2-4 5v20c-1 3 2 5 4 5zM91 139h32c2 0 4-2 4-5v-20c0-3-2-5-4-5H91c-2 0-4 2-4 5v20c0 3 2 5 4 5z" fill="#FCE4D9"/><path d="M112 100h35l2 2h-39l2-2zM124 165h130l1-1-1-1H124l-1 1 1 1z" fill="#890D04"/><path d="M1 35l11-1 4-2c4-3 17-12 44-12 0 0 13 0 24 3l4 1 18 10 21 2c4 1 15 5 15 10v6l-1 5-2 1c1 1-1 3-3 3h-10c0-8-7-14-14-14-8 0-14 6-14 14H38c0-8-7-14-14-14-8 0-14 6-14 14l-13-2V40c0-2 1-4 4-5z" fill="#FCAF7B"/><path d="M112 47c8 0 14 6 14 14v4H98v-4c0-8 6-14 14-14zM24 47c7 0 14 6 14 14v4H10v-4c0-8 6-14 14-14z" fill="#FA873A"/><path d="M128 41v-1l7 1c1 0 5 3 5 5v1c-3-1-9-3-12-6z" fill="#FEEBDE"/><path d="M132 56h3l1-1-1-1h-3v2z" fill="#FA873A"/><path d="M-3 42h5c1 0 2 2 1 3l-1 2h-5v-5z" fill="#F97319"/><path d="M112 73c7 0 12-5 12-12s-5-12-12-12-12 5-12 12 5 12 12 12z" fill="#FB9B5A"/><path d="M112 69c5 0 8-3 8-8s-3-8-8-8-8 3-8 8 3 8 8 8z" fill="#F97319"/><path d="M112 64c1 0 3-1 3-3l-3-3c-2 0-3 2-3 3 0 2 1 3 3 3z" fill="#FA873A"/><path d="M24 73c7 0 12-5 12-12s-5-12-12-12-12 5-12 12 5 12 12 12z" fill="#FB9B5A"/><path d="M24 69c4 0 8-3 8-8s-4-8-8-8c-5 0-8 3-8 8s3 8 8 8z" fill="#F97319"/><path d="M24 64c1 0 3-1 3-3l-3-3c-2 0-3 2-3 3 0 2 1 3 3 3z" fill="#FA873A"/><path d="M85 23h1l2 1 18 10c-7-2-18-8-21-10v-1z" fill="#FCAF7B"/><path d="M37 59h61v2H38l-1-2z" fill="#FA873A"/><path d="M100 36v-1c-4-2-19-12-39-12 0 0-26-2-37 11-1 0 0 0 0 0l76 2z" fill="#FB9B5A"/><path d="M67 26v7l1 1h25l1-1c-4-2-15-8-26-8l-1 1zM62 26v7l-1 1-23-1-1-1v-4l1-1c3-1 12-3 23-2l1 1zM35 29v4h-6v-1l6-4v1z" fill="#FEEBDE"/><path d="M38 61l-1 4h62l-1-4H38zM126 61v-2h5v-1l2-1h8c1 0 3 1 3 3v3c0 1-1 3-3 3l-16-1 1-4zM-5 56l1-2H6l2 2 2 5h1v3l-2 2H-2l-1-1-2-7v-2z" fill="#FA873A"/><path d="M49 32l6 21 5 16h3l-5-37h-9z" fill="#F97319"/><path d="M47 32v18l-7 19h3a911 911 0 0015-37H47z" fill="#FA873A"/><path d="M40 72v-4h3c2 2 4 3 7 3v1H40zM59 72v-4h4l6 3v1H59z" fill="#EA6206"/><path d="M52 10c-1-1-2-2-1-3 0-3 5-3 6-1s1 7-1 7l-2-1v5h-4l2-7z" fill="#F97319"/><path d="M55 4h-1V2l-1-1-1-1h-1a2 2 0 00-2 0v1l-1 1v1l1 2h1l-1 2v3l1 1h2v-1-1-1l1 1 2-2 2-1-2-2z" fill="#331FA8"/><path d="M57 9l1 2h-1" fill="#F97319"/><path d="M57 12h-1v-1l1 1zM56 9V8h0v1zM57 9z" fill="#331FA8"/><path d="M64 26l6-3 3-2 1 1-1 2h1l-3 1-5 4-2-3zm-24 1l3 1-5 10v3c-2 1-1-1-3-1h-4l1-1 3-2 5-10z" fill="#F97319"/><path d="M52 14h2c3 3 4 10 6 11s5 0 9-1l1 2c-3 4-10 6-13 5-4-3-5-12-5-17z" fill="#331FA8"/><path d="M46 32h13v-1c-1-5-4-10-4-17l-4-1c-3 5-4 11-5 19z" fill="#FEEBDE"/><path d="M45 27l-7 11-6-8c2-11 10-12 19-17h1c3 11 4 19 3 23H43l2-9z" fill="#5435D6"/><path d="M38 34l6 22 3 16h3l-3-38h-9z" fill="#EA6206"/><path d="M35 34v19c0 1 0 7-4 19h3l7-19 5-19H35z" fill="#EA6206"/><path d="M38 34l8 36h4c1-17-1-28-3-36h-9z" fill="#331FA8"/><path d="M35 34c1 12 0 22-4 36h5c5-11 8-22 11-36H35z" fill="#5435D6"/><path d="M31 74v-2l4-1 5 2 1 1v1H31v-1zM46 74l1-2 3-1 6 2 1 1-1 1h-9l-1-1z" fill="#CD5605"/><path d="M40 13l-2-3c1-4 6-3 7-1s0 6-1 7l-2-1v5h-4l2-7z" fill="#EA6206"/><path d="M39 14c0-2-2-4-1-5l1-1c0-1 1-2 3-2 3 1 4 2 4 4h-3l-1 1h-2v3h-1z" fill="#CD5605"/><path d="M45 12v2" fill="#EA6206"/><path d="M44 11h-1 1zM44 12zM45 15h-1 1z" fill="#331FA8"/><path d="M51 32l5 3 4 2h-1l-2 1v1l-2-2-5-2 1-3zm-19 0h3l-3 10c-1 1 0 3 1 3h-6c-1 0-1 0 0 0l3-3 2-10z" fill="#EA6206"/><path d="M41 18h2c5 4 7 13 13 17l-2 2c-10-1-13-12-13-19z" fill="#EA6206"/><path d="M35 35h12l1-1c-1-5-5-10-5-16l-3-1c-3 5-4 10-5 18z" fill="#FEEBDE"/><path d="M35 22l-1-1c-1-3-1-4 1-4h6c3 11 4 18 2 22h-9l-2 3h-2c-1-8 1-15 5-20z" fill="#F97319"/><path d="M36 33l1 5h-3l2-5zM31 23c2-1 4-2 5-1l-3 4v1l-2 1v-5z" fill="#EA6206"/><path d="M33 31l-2-3 2-1 1 1 1 1h-1l1 3-2-1z" fill="#F97319"/></svg>