<svg width="161" height="155" viewBox="0 0 161 155" fill="none" xmlns="http://www.w3.org/2000/svg">
<path d="M191.445 44.5L134 16.8965H128.77L116.184 32.3405H102.619L88.6547 47.1527H72.6957L57.0631 58.6655H41.757L22.0621 71.828H7.77148L32.7619 154.559H68.0531L68.4883 152.628L89.8516 150.663L89.9604 137.254H113.573V129.041H135.589V117.107H162.066V106.366H181.108V92.537H191.445V44.5Z" fill="#153301"/>
<path d="M165.696 52.3124C165.515 51.3647 161.634 40.5539 161.09 37.3598C160.836 35.9558 165.479 33.9551 166.531 36.4823L169.94 51.6455L165.696 52.3124Z" fill="#1F28CF"/>
<path d="M169.878 53.8264C169.808 53.665 169.634 53.6087 169.485 53.6484C169.051 53.8154 168.722 53.8774 168.511 53.8823C168.219 53.8831 167.838 53.753 167.401 53.5096L167.17 52.8507C167.144 52.7546 167.032 52.7331 166.964 52.7769L162.715 54.3731C162.405 54.4045 161.964 54.4449 161.473 54.4986C160.983 54.5522 160.794 54.937 161.019 55.6746C166.617 55.9311 169.577 56.0677 169.901 56.0843C170.051 55.5555 170.078 55.1624 170.113 54.8959C170.111 54.6906 170.039 54.3239 169.878 53.8264C169.891 53.8745 169.91 53.8438 169.878 53.8264Z" fill="#E4E4E4"/>
<path d="M162.575 41.5367C162.684 42.6248 162.829 43.8533 162.938 45.1169C163.192 48.2057 162.865 54.9098 162.684 56.8403C162.575 58.0688 160.871 57.788 160.726 56.8403C160.58 55.8926 157.643 40.6241 157.643 37.3949C157.643 36.3068 159.819 35.3591 161.125 36.1313" fill="#B28B67"/>
<path d="M163.084 56.0329C163.011 55.8925 162.83 55.8223 162.649 55.8925C162.25 56.068 161.923 56.1733 161.669 56.1733C161.379 56.1733 161.016 56.068 160.545 55.8574L160.291 55.2256C160.255 55.1554 160.146 55.1203 160.073 55.1554L155.939 56.9104C155.612 56.9455 155.177 57.0157 154.705 57.0508C154.234 57.0859 154.052 57.5071 154.306 58.2442C159.892 58.2793 162.866 58.3144 163.193 58.3144C163.301 57.7879 163.338 57.4018 163.338 57.121C163.338 56.8402 163.265 56.5243 163.084 56.0329Z" fill="#E4E4E4"/>
<path d="M112.447 32.5861V13.1758L191.444 53.9971L191.263 83.1301L112.447 32.5861Z" fill="#276002"/>
<path d="M112.447 13.1758H127.427L191.444 43.2916V53.9971L112.447 13.1758Z" fill="#93D14A"/>
<path d="M110.273 42.4492C109.257 41.8525 107.553 42.6247 107.553 43.4671C107.553 45.9943 109.947 57.8932 110.055 58.6303C110.164 59.3674 111.506 59.578 111.579 58.6303C111.688 57.121 111.941 51.8911 111.688 49.5043C111.579 48.5215 111.506 47.5738 111.397 46.6963C112.631 48.8725 114.589 51.9964 117.201 56.068L118.615 55.4362C117.491 51.8911 116.584 49.3639 115.859 47.9248C114.625 45.4327 113.501 43.2916 113.03 42.5194C112.304 41.2909 110.962 41.7121 110.273 42.4492Z" fill="#B28B67"/>
<path d="M118.541 53.4355L113.681 42.2737C112.52 40.4485 109.256 42.6598 109.655 43.7128C110.561 46.0996 115.132 53.8567 115.422 54.5587L118.541 53.4355Z" fill="#1F28CF"/>
<path d="M118.822 54.698C119.128 54.9498 119.31 55.1322 119.429 55.28C119.53 55.4583 119.688 55.7496 119.822 56.1499C119.588 56.2637 117.616 57.4052 113.794 59.553C113.338 59.1361 113.279 58.8184 113.586 58.5825C113.894 58.3465 114.165 58.1717 114.355 57.9927L116.441 55.2048C116.477 55.1438 116.558 55.1479 116.62 55.1826L117.051 55.5037C117.441 55.4766 117.738 55.3975 117.923 55.2969C118.09 55.2268 118.249 55.0304 118.463 54.7425C118.567 54.6377 118.697 54.6287 118.822 54.698Z" fill="#E4E4E4"/>
<path d="M127.539 75.0222C130.223 71.8281 132.036 69.4764 133.016 67.9671C134.648 65.3346 135.99 63.018 136.389 62.1054C137.404 59.9643 134.067 58.9815 133.342 59.9643C132.218 61.4736 129.787 66.2121 126.088 74.1447L127.539 75.0222Z" fill="#B28B67"/>
<path d="M133.052 74.1095L138.057 61.9298C139.145 59.7185 133.959 58.2443 133.161 59.2973C131.383 61.649 127.14 70.9154 126.596 71.6174L133.052 74.1095Z" fill="#2F3676"/>
<path d="M146.376 71.6588C145.402 70.2606 141.867 65.6305 139.939 63.7574C139.389 63.19 138.843 62.6722 138.326 62.1763C136.803 60.7108 133.756 63.1813 135.292 64.5205C139.077 67.8489 144.583 72.2971 145.038 72.6994C145.691 73.256 147.008 72.5175 146.376 71.6588Z" fill="#B28B67"/>
<path d="M146.186 71.0217C146.523 71.2908 146.736 71.4906 146.837 71.6689C146.969 71.8645 147.109 72.1863 147.256 72.6345C147.003 72.7788 144.797 74.0342 140.587 76.4137C140.069 75.9621 140.028 75.6139 140.354 75.3474C140.68 75.081 140.969 74.8756 141.209 74.6834L143.508 71.6077C143.545 71.5466 143.644 71.5202 143.688 71.5854L144.15 71.9239C144.589 71.8836 144.917 71.8218 145.12 71.6906C145.305 71.59 145.514 71.3805 145.728 71.0925C145.851 70.9572 146.03 70.935 146.186 71.0217C146.155 71.0044 146.155 71.0044 146.186 71.0217Z" fill="#E4E4E4"/>
<path d="M128.698 74.5659C128.843 74.952 128.916 75.2679 128.916 75.4434C128.916 75.6891 128.879 76.0401 128.807 76.4964C128.517 76.4964 125.942 76.4964 121.118 76.4964C120.9 75.8646 121.045 75.5136 121.48 75.4434C121.916 75.4083 122.278 75.3381 122.568 75.303L126.159 73.7586C126.232 73.7235 126.304 73.7586 126.341 73.8288L126.558 74.3553C126.957 74.5308 127.284 74.6361 127.537 74.6361C127.755 74.6361 128.009 74.5659 128.372 74.3904C128.48 74.3553 128.626 74.3904 128.698 74.5659C128.698 74.5308 128.698 74.5659 128.698 74.5659Z" fill="#E4E4E4"/>
<path d="M139.87 62.5266C144.041 61.8597 146.834 61.4385 148.248 61.1928C152.274 60.4908 153.435 58.4199 152.746 53.8218H145.31C144.331 54.1026 140.232 55.7874 133.015 58.9113C131.709 59.5431 131.963 61.3683 132.18 62.0001C132.18 62.0352 134.393 65.6505 138.745 72.9162L144.803 69.1605L139.833 62.9829C139.725 62.7021 139.725 62.5617 139.87 62.5266Z" fill="#276002"/>
<path d="M84.9199 48.3462L85.2826 27.3213L162.067 84.5343V117.107L84.9199 48.3462Z" fill="#276002"/>
<path d="M85.2832 27.3213H99.5375L185.861 84.5343H162.068L85.2832 27.3213Z" fill="#93D14A"/>
<path d="M111.796 88.6758C110.635 88.0089 108.713 88.8513 108.713 89.8341C108.713 92.7123 111.433 106.226 111.578 107.068C111.723 107.911 113.247 108.156 113.319 107.068C113.464 105.348 113.718 99.4165 113.464 96.6786C113.356 95.5554 113.247 94.4673 113.138 93.5196C114.552 96.0117 116.765 99.5568 119.703 104.155L121.299 103.453C120.029 99.4164 118.977 96.5733 118.18 94.8885C116.801 92.0454 115.495 89.5884 114.951 88.746C114.081 87.4122 112.594 87.8685 111.796 88.6758Z" fill="#B28B67"/>
<path d="M121.189 101.207L115.64 88.5356C114.298 86.4648 110.598 88.9569 111.033 90.1502C112.049 92.8529 117.272 101.663 117.598 102.47L121.189 101.207Z" fill="#1F28CF"/>
<path d="M121.505 102.641C121.842 102.911 122.086 103.128 122.187 103.306C122.319 103.502 122.441 103.854 122.637 104.289C122.384 104.433 120.11 105.732 115.784 108.169C115.265 107.717 115.193 107.352 115.568 107.072C115.944 106.792 116.233 106.587 116.454 106.425L118.84 103.275C118.877 103.214 118.976 103.188 119.02 103.253L119.513 103.609C119.952 103.569 120.299 103.476 120.533 103.362C120.718 103.262 120.926 103.052 121.159 102.734C121.188 102.546 121.367 102.524 121.505 102.641C121.474 102.624 121.505 102.641 121.505 102.641Z" fill="#E4E4E4"/>
<path d="M113.646 106.401C113.791 106.823 113.864 107.103 113.864 107.314C113.864 107.56 113.828 107.911 113.755 108.367C113.465 108.367 110.817 108.367 105.848 108.367C105.63 107.7 105.775 107.349 106.211 107.314C106.646 107.279 107.009 107.209 107.299 107.174L110.962 105.594C111.035 105.559 111.107 105.594 111.144 105.664L111.397 106.226C111.796 106.401 112.123 106.507 112.413 106.507C112.631 106.507 112.921 106.436 113.283 106.261C113.429 106.156 113.574 106.226 113.646 106.401C113.646 106.366 113.646 106.366 113.646 106.401Z" fill="#E4E4E4"/>
<path d="M88.1152 73.8839C88.1152 77.4992 89.8925 85.8881 89.8925 86.6603H93.7009C93.1568 79.184 92.9392 75.3932 93.1206 75.2879C93.3745 75.1826 103.059 76.2356 105.96 76.2356C110.168 76.2356 111.909 73.6733 112.017 68.9348H103.712C102.007 69.1103 93.1931 70.8302 89.9288 71.4269C88.5142 71.7077 88.1152 72.9011 88.1152 73.8839Z" fill="#276002"/>
<path d="M116.301 94.7503L127.146 89.4151V88.2568H125.84C115.321 90.8542 109.99 92.5039 109.736 93.241C109.736 93.241 109.736 93.241 109.736 93.2761C109.736 93.2761 109.736 93.2761 109.736 93.3112C107.668 96.0841 106.399 109.598 106 110.616L109.99 111.177C111.513 105.702 116.41 101.876 116.265 95.347C116.301 95.1013 116.301 94.9258 116.301 94.7503Z" fill="#204F01"/>
<path d="M126.24 97.9444C127.219 97.7689 128.162 97.5934 128.924 97.453C133.965 96.6106 135.453 93.9781 134.582 88.2568H125.261C123.737 88.678 115.83 91.8721 111.732 93.592C109.011 94.7152 109.882 98.7868 111.405 99.8398C111.405 99.91 111.442 99.9451 111.478 99.9802C119.747 103.315 126.276 101.56 128.489 102.121L129.504 99.0325L126.24 97.9444Z" fill="#276002"/>
<path d="M55.3594 60.2097V41.4663L115.532 107.244V138.132L55.3594 60.2097Z" fill="#276002"/>
<path d="M55.3594 41.4663H70.9919L140.668 107.244H115.532L55.3594 41.4663Z" fill="#93D14A"/>
<path d="M69.7949 143.046C71.5722 132.446 73.0593 125.426 73.9298 123.285C74.5101 121.881 78.7537 122.056 78.246 124.864C78.0283 126.057 77.2304 129.252 76.1422 132.867C75.5257 134.973 73.966 139.009 71.8261 143.607L69.7949 143.046ZM96.1636 131.112C95.4019 131.007 86.5881 130.129 80.3496 129.252C77.847 128.901 79.189 124.373 81.8004 124.864C82.6709 125.04 83.614 125.215 84.557 125.391C87.8939 126.057 94.7853 128.409 96.7801 129.181C98.0133 129.638 97.2154 131.252 96.1636 131.112Z" fill="#B28B67"/>
<path d="M80.2043 123.601L90.8678 118.336V117.177H89.5983C79.2612 119.74 74.002 121.354 73.7844 122.056C73.7844 122.056 73.7844 122.056 73.7844 122.091C73.7844 122.091 73.7844 122.091 73.7844 122.126C71.7533 124.864 70.5201 138.132 70.1211 139.15L74.0383 139.711C75.5254 134.341 80.3494 130.585 80.2043 124.127C80.2043 123.952 80.2406 123.776 80.2043 123.601Z" fill="#1F28CF"/>
<path d="M89.9952 126.724C90.9745 126.549 91.8812 126.373 92.6429 126.233C97.612 125.391 99.0628 122.828 98.1923 117.212H89.0159C87.5288 117.634 79.7307 120.793 75.7046 122.477C73.0206 123.601 73.8911 127.602 75.3782 128.62C75.3782 128.69 75.4145 128.725 75.4507 128.76C83.5753 132.025 90.0315 130.305 92.1714 130.866L93.1507 127.848L89.9952 126.724Z" fill="#307205"/>
<path d="M96.0878 128.69C96.6378 128.746 96.9936 128.815 97.2199 128.945C97.4947 129.092 97.8827 129.303 98.3351 129.642C98.1727 129.954 96.8406 132.701 94.258 137.883C93.433 137.758 93.0776 137.453 93.2566 136.937C93.4193 136.467 93.5657 136.045 93.6796 135.716L93.8018 131.059C93.8019 130.98 93.883 130.903 93.9639 130.904L94.7081 130.948C95.1456 130.625 95.3889 130.315 95.535 130.05C95.6325 129.847 95.6979 129.501 95.6988 129.029C95.7153 128.825 95.8451 128.685 96.0878 128.69C96.0554 128.705 96.0554 128.705 96.0878 128.69Z" fill="#C6F25A"/>
<path d="M72.804 142.765C72.9854 143.257 73.0942 143.608 73.0942 143.853C73.0942 144.134 73.0579 144.59 72.9491 145.152C72.5864 145.152 69.4308 145.152 63.4825 145.152C63.2286 144.38 63.3737 143.923 63.9178 143.888C64.4618 143.853 64.897 143.783 65.2235 143.713L69.6122 141.817C69.6847 141.782 69.7936 141.817 69.8298 141.888L70.12 142.555C70.6278 142.765 71.0267 142.87 71.3169 142.87C71.5708 142.87 71.8972 142.765 72.3325 142.59C72.5138 142.519 72.7315 142.59 72.804 142.765Z" fill="#E4E4E4"/>
<path d="M26.8125 51.6455H41.1031L94.4569 128.269H71.3527L26.8125 51.6455Z" fill="#93D14A"/>
<path d="M71.3526 154.559V128.269L26.8125 51.6455V72.3545L67.7256 154.559H71.3526Z" fill="#276002"/>
<path d="M16.7315 125.145C19.5606 121.811 21.4467 119.354 22.426 117.739C24.1307 115.001 25.509 112.544 25.9442 111.632C26.9961 109.42 23.5504 108.367 22.7524 109.385C21.5555 110.965 19.0528 115.914 15.1719 124.232L16.7315 125.145Z" fill="#B28B67"/>
<path d="M22.4982 124.162L27.7212 111.421C28.8455 109.104 23.4413 107.56 22.6071 108.648C20.7573 111.105 16.296 120.792 15.752 121.53L22.4982 124.162Z" fill="#2F3676"/>
<path d="M36.4251 121.623C35.3951 120.181 31.7089 115.342 29.6915 113.353C29.1129 112.764 28.5394 112.224 28.0223 111.728C26.4146 110.196 23.2528 112.804 24.8448 114.187C28.7995 117.648 34.5633 122.344 35.047 122.768C35.7227 123.298 37.063 122.532 36.4251 121.623Z" fill="#B28B67"/>
<path d="M29.6073 112.053C33.9597 111.351 36.8614 110.894 38.3485 110.649C42.5558 109.947 43.789 107.735 43.0636 102.962H35.3017C34.2862 103.242 29.97 105.033 22.4257 108.297C21.0837 108.964 21.3376 110.859 21.5552 111.526C21.5552 111.561 23.8403 115.352 28.4103 122.934L34.7577 119.037L29.571 112.579C29.4622 112.263 29.4622 112.123 29.6073 112.053Z" fill="#378E04"/>
<path d="M0.154297 66.9492H13.7195L49.7723 152.137H25.2898L0.154297 66.9492Z" fill="#93D14A"/>
<path d="M25.2898 154.383V151.786L0.154297 66.9492V81.0945L19.7404 154.383H25.2898Z" fill="#276002"/>
<path d="M16.9328 96.7915C16.9328 96.6862 16.9328 96.5809 16.9328 96.4756C16.9328 96.3352 16.9328 96.2299 16.9328 96.0895C16.9328 95.7385 16.9328 95.3875 16.9328 95.0365C16.9328 94.6153 16.9328 94.2292 16.9328 93.808C16.9328 93.4219 16.9328 93.0358 16.9328 92.6848C16.9328 92.4391 16.9328 92.1583 16.9328 91.9126V91.7371H12C12 91.8775 12 91.9828 12 92.1232C12 92.4391 12 92.755 12 93.106C12 93.5272 12 93.9484 12 94.3696C12 94.7908 12 95.212 12 95.5981C12 95.914 12 96.2299 12 96.5458C12 96.6511 12 96.7213 12 96.8266C12 97.0723 12.2176 97.1425 12.399 97.2127C12.6166 97.2829 12.798 97.318 13.0156 97.3882C13.4871 97.4584 13.9586 97.4935 14.4664 97.4935C15.0467 97.4935 15.627 97.4584 16.1711 97.318C16.3162 97.2829 16.4976 97.2478 16.6426 97.1776C16.7877 97.0372 16.9328 96.967 16.9328 96.7915Z" fill="#D0F792"/>
<path d="M14.4664 92.404C15.8286 92.404 16.9328 92.0897 16.9328 91.702C16.9328 91.3143 15.8286 91 14.4664 91C13.1043 91 12 91.3143 12 91.702C12 92.0897 13.1043 92.404 14.4664 92.404Z" fill="#378E04"/>
<path d="M14.4664 91.2106C15.083 91.2106 15.6633 91.2808 16.0986 91.3861C16.5701 91.5265 16.6789 91.6669 16.6789 91.702C16.6789 91.7371 16.5701 91.8775 16.0986 92.0179C15.6633 92.1232 15.083 92.1934 14.4664 92.1934C13.8498 92.1934 13.2695 92.1232 12.8342 92.0179C12.3627 91.8775 12.2539 91.7371 12.2539 91.702C12.2539 91.6669 12.3627 91.5265 12.8342 91.3861C13.2695 91.2808 13.8498 91.2106 14.4664 91.2106ZM14.4664 91C13.1244 91 12 91.3159 12 91.702C12 92.0881 13.0881 92.404 14.4664 92.404C15.8447 92.404 16.9328 92.0881 16.9328 91.702C16.9328 91.3159 15.8447 91 14.4664 91Z" fill="#E8F7CD"/>
<path d="M12.5445 92.3336C12.4357 92.2985 12.3269 92.2634 12.2544 92.2985C12.2181 92.3336 12.2544 92.474 12.2544 92.5442C12.2544 92.6495 12.2544 92.7548 12.2544 92.8601C12.2544 93.3515 12.2544 93.878 12.2544 94.3694C12.2544 95.1065 12.2544 95.8085 12.2544 96.5456C12.2544 96.6158 12.2544 96.6509 12.2907 96.7211C12.3269 96.8264 12.5446 96.8966 12.6534 96.9317C12.6896 96.7562 12.6534 96.5807 12.6534 96.4052C12.6534 96.2297 12.6534 96.0542 12.6534 95.8787C12.6534 95.4926 12.6534 95.1416 12.6534 94.7555C12.6534 94.0184 12.6534 93.2813 12.6534 92.5442C12.6171 92.4038 12.5808 92.3687 12.5445 92.3336Z" fill="#E8F7CD"/>
<path d="M16.6414 92.79C16.7139 92.7549 16.7502 92.6847 16.7865 92.6496C17.1492 92.2284 17.8746 92.088 18.2373 92.5794C18.3823 92.79 18.4186 93.0006 18.4186 93.2463C18.4186 93.492 18.4186 93.7026 18.4186 93.9483C18.4186 94.3344 18.3098 94.6854 18.1284 95.0364C17.9834 95.3172 17.7658 95.6331 17.4756 95.7735C17.1854 95.949 16.8953 96.1245 16.6414 96.3702C16.6051 96.4053 16.5688 96.4404 16.5326 96.4404C16.3512 96.5106 16.3149 96.2298 16.3149 96.1245C16.2787 95.9841 16.3149 95.8086 16.3149 95.6682C16.3149 95.5629 16.3512 95.4927 16.3875 95.3874C16.3875 95.3523 16.4238 95.2821 16.46 95.247C16.4963 95.2119 16.4963 95.247 16.5688 95.247C16.7865 95.2821 16.9315 95.2119 17.1129 95.1066C17.3305 95.0013 17.6207 94.7907 17.6569 94.545C17.7658 94.0887 17.7657 93.6324 17.7657 93.1761C17.7657 92.9304 17.3305 92.9304 17.1854 93.0708C17.0404 93.1761 16.8953 93.3516 16.8227 93.5271C16.7865 93.6324 16.8227 93.7377 16.7139 93.8079C16.6776 93.8079 16.6777 93.843 16.6414 93.843C16.6051 93.843 16.5688 93.8079 16.5326 93.7728C16.4237 93.6675 16.3875 93.5622 16.3512 93.4218C16.3149 93.3165 16.3149 93.2112 16.3149 93.141C16.3149 93.0357 16.3149 92.8602 16.4238 92.79C16.5326 92.8251 16.5688 92.8251 16.6414 92.79Z" fill="#C6F25A"/>
<path d="M23.6942 82.1473C23.7305 83.9725 24.2383 87.9037 25.0362 88.3249L29.026 87.2017C29.026 87.2017 29.026 87.2017 29.026 87.1666C30.4405 86.605 31.2385 85.0606 30.8032 83.5864L29.969 80.8135C29.4975 79.234 27.7928 78.3214 26.1606 78.7777L25.8704 78.8479C24.3834 79.3042 23.4766 80.7082 23.6942 82.1473Z" fill="#204F01"/>
<path d="M29.0631 83.5162C29.4621 82.6387 29.6434 81.6208 29.2807 80.6731C28.2289 77.9002 24.348 79.6552 23.949 81.3049C23.5863 82.9546 24.7832 86.5699 25.8713 86.5348C26.3066 86.5348 27.1045 86.0434 27.8299 85.2712L28.4102 89.2375L31.7108 88.3249L29.0631 83.5162Z" fill="#D0F792"/>
<path d="M28.0486 83.3055C28.375 84.9201 28.9554 86.7102 29.5357 86.991L33.5254 85.8678C32.6187 82.077 30.914 84.1128 29.8621 80.6379C29.6808 80.5326 29.5357 80.4624 29.3543 80.3922L29.3181 80.2869C28.23 79.1286 27.1418 78.6723 26.09 78.9882C24.4941 79.4445 24.204 80.2869 23.9863 81.024C24.6392 82.0068 25.9087 81.7962 27.2144 82.1472C27.3232 82.0068 27.4683 81.9015 27.6496 81.8664C28.0486 81.7611 28.4838 81.9717 28.6289 82.3929C28.774 82.8141 28.4839 83.1651 28.0486 83.3055C28.0849 83.2704 28.0486 83.3055 28.0486 83.3055Z" fill="#204F01"/>
<path d="M24.3114 83.9373C24.3477 84.3585 24.2026 84.7797 24.0938 85.2009C24.0938 85.236 24.0938 85.3062 24.0938 85.3413C24.13 85.3764 24.13 85.3764 24.1663 85.3764C24.4202 85.4115 24.6741 85.3413 24.8554 85.1658" fill="#D0F792"/>
<path d="M24.8915 83.1653C24.42 83.1653 25.2179 83.762 25.0366 83.2004C25.0003 83.1653 24.964 83.1653 24.8915 83.1653Z" fill="#204F01"/>
<path d="M25.1094 85.938C25.2907 85.8678 25.3995 85.7976 25.5083 85.6572C25.6171 85.5519 25.7259 85.4115 25.871 85.3062C25.8347 85.4817 25.7622 85.6572 25.6171 85.7976C25.5446 85.8678 25.472 85.938 25.3632 85.938C25.2907 85.9731 25.1819 85.9731 25.1094 85.938Z" fill="#204F01"/>
<path d="M24.3828 82.9194C24.5279 82.8492 24.6367 82.8141 24.7818 82.779C24.9269 82.7439 25.1082 82.779 25.217 82.8843C25.0719 82.9194 24.9268 82.9194 24.818 82.9545C24.7092 82.9545 24.5279 82.9896 24.3828 82.9194Z" fill="#204F01"/>
<path d="M26.0535 101.733L21.2657 100.013C19.2346 100.259 18.219 100.224 18.2916 99.943C18.4004 99.5218 18.9807 99.592 19.0895 99.3112C19.1983 99.0305 18.5092 98.4688 17.8563 97.9423C17.2035 97.4158 17.6387 97.3105 17.8926 97.3105C18.8719 97.5211 19.96 97.9072 21.1569 98.5039L27.0328 99.1358L26.0535 101.733Z" fill="#D0F792"/>
<path d="M20.3587 101.242C19.1618 100.961 18.1462 100.891 17.2757 100.961C15.6073 101.137 14.8819 101.066 13.7575 100.47C13.1772 100.154 12.4155 99.3114 12.6694 98.8551C12.8145 98.5392 14.7368 99.0306 15.3897 98.8902C16.0425 98.7498 14.9182 97.6265 15.2809 97.6265C15.6798 97.4861 16.2964 97.8722 17.0218 98.8551L19.5971 99.1359L20.3587 101.242Z" fill="#D0F792"/>
<path d="M28.2655 101.136C26.2707 101.979 23.4053 101.593 21.084 100.68L21.1565 98.2934C24.167 98.8199 26.5608 98.2583 28.2293 97.6265C29.8615 98.2583 29.8252 100.47 28.2655 101.136Z" fill="#378E04"/>
<path d="M27.2495 87.623L31.0942 86.1137C31.5295 85.9382 36.6073 90.1151 38.0581 93.5549C39.4001 96.7139 43.2448 97.5212 43.7526 103.032C41.0686 103.558 34.6487 108.894 32.2549 106.788C31.0942 105.77 30.3325 104.436 29.7885 102.962C27.2133 103.909 23.8038 104.331 19.4151 103.909C18.9436 103.067 18.7985 101.382 18.9799 98.8902C23.8038 98.6796 26.9956 98.0127 28.5915 96.8544C28.3014 93.6603 28.1563 90.3257 27.2495 87.623Z" fill="#58C114"/>
<path d="M94.3133 96.5382C95.0749 95.6607 95.619 94.5726 95.5102 93.3792C95.2563 89.9043 90.251 90.6765 89.2717 92.4315C88.2925 94.1865 88.4013 98.6442 89.6707 98.9601C90.1785 99.1005 91.2303 98.7846 92.3184 98.1528L91.6293 102.821H95.6553L94.3133 96.5382Z" fill="#E8F7CD"/>
<path d="M105.303 89.3427C104.832 89.2023 104.36 89.1672 103.961 89.4129C103.526 89.6937 103.127 89.9745 102.583 90.1851C102.075 90.3606 101.567 90.4659 101.06 90.4659C100.044 90.4659 99.0284 90.15 98.0491 89.9394C97.2512 89.7639 96.3807 89.5884 95.5464 89.7639C95.22 89.8341 94.7122 89.9745 94.5672 90.3255C96.6708 90.6765 97.4688 93.2037 96.8885 95.0289C96.562 96.0117 94.6759 97.17 93.9143 96.6435C93.4428 96.3276 93.7329 95.8713 93.9143 95.5905C94.277 95.0289 94.3858 94.3269 93.7329 93.9408C93.1526 93.6249 92.5723 94.3971 92.5723 94.3971C92.4272 94.3971 91.0852 93.66 90.1421 92.5719C89.2354 92.607 89.0903 92.0454 89.3079 91.554C89.5256 91.0626 90.9038 90.4659 91.6293 90.3606C92.1733 90.2904 93.5879 90.2202 93.8417 90.2202C94.0231 90.2202 94.2044 90.2553 94.277 90.1149C94.3495 90.0096 94.3133 89.799 94.3495 89.6586C94.3858 89.4831 94.4221 89.3427 94.4583 89.1672C94.5671 88.7109 94.7485 88.2546 95.0024 87.8334C95.4739 87.0612 96.1268 86.4645 96.9973 86.1135C97.9403 85.7274 98.9922 85.6221 100.008 85.7274C101.168 85.8327 102.293 86.1135 103.308 86.6751C104.251 87.2016 105.412 88.1142 105.303 89.3427Z" fill="#C6F25A"/>
<path d="M88.7642 94.8184C88.6917 95.0992 88.3652 95.3098 88.1839 95.5906C88.1113 95.731 87.7849 96.082 87.8212 96.2575C87.8937 96.6436 88.7642 96.7138 88.9818 96.7489" fill="#E8F7CD"/>
<path d="M89.9613 94.5024C89.7075 94.4322 89.7075 94.6428 89.7437 94.8183C90.0702 94.9587 90.179 94.5375 89.9613 94.5024Z" fill="#58C114"/>
<path d="M89.3809 94.2916C89.5259 94.1161 89.7798 94.0459 90.0337 94.081C90.2876 94.1512 90.469 94.3267 90.5415 94.5373C90.3602 94.3969 90.1788 94.2916 89.9975 94.2565C89.8161 94.2214 89.5985 94.2214 89.3809 94.2916Z" fill="#58C114"/>
<path d="M88.873 97.7315C89.1269 97.6613 89.3446 97.6262 89.5622 97.556C89.7798 97.4858 89.9975 97.3805 90.2151 97.3103C90.07 97.5209 89.8524 97.6613 89.5985 97.7315C89.3808 97.8017 89.1269 97.8017 88.873 97.7315Z" fill="#58C114"/>
<path d="M81.1825 102.681L76.2498 99.8728C73.9285 99.7324 72.8404 99.5218 72.9855 99.2059C73.1668 98.7496 73.8196 98.9602 74.001 98.6794C74.1824 98.3986 73.5658 97.6264 72.9129 96.9244C72.2963 96.2224 72.8041 96.1873 73.0942 96.2575C74.1461 96.6787 75.2705 97.3105 76.4674 98.2231L82.8147 100.083L81.1825 102.681ZM84.5557 113.737L79.2602 115.878C77.7731 117.598 76.9389 118.3 76.7576 118.02C76.5037 117.598 77.084 117.212 76.9389 116.896C76.7938 116.58 75.8145 116.616 74.8352 116.686C73.8922 116.756 74.1461 116.335 74.4 116.159C75.3793 115.598 76.5762 115.106 78.027 114.755L83.395 110.964L84.5557 113.737Z" fill="#E8F7CD"/>
<path d="M91.6665 100.68C88.7648 105.945 84.5212 109.982 78.4277 114.159L80.7491 116.686C87.5679 114.229 91.1587 112.755 92.9359 107.771C93.3712 106.507 93.6976 102.541 93.9515 100.47L91.6665 100.68Z" fill="#378E04"/>
<path d="M99.8264 118.195H86.9141C89.852 109.561 91.339 103.629 91.4116 100.399C91.4116 100.224 91.738 99.9432 91.8831 99.9783C92.8987 100.259 93.9868 100.154 95.1475 99.6624C98.1579 104.436 99.2098 110.333 99.8264 118.195Z" fill="#F2F2F2"/>
<path d="M93.9877 99.6976C90.2881 99.7327 84.2672 100.364 77.3395 98.2234L76.6504 101.523C81.8734 104.787 87.2051 107.314 91.8478 106.963C89.8166 115.352 89.9254 122.197 94.3867 122.197C96.5267 122.197 98.8117 122.197 101.278 122.197C102.366 115.071 99.5008 105.208 96.8168 100.224C96.708 100.049 96.4904 99.6625 95.9826 99.6625C95.5474 99.6976 94.8945 99.6976 93.9877 99.6976Z" fill="#58C114"/>
<path d="M105.741 48.7874C106.394 48.0503 106.829 47.1728 106.757 46.1549C106.539 43.2416 102.368 43.9085 101.57 45.3476C100.772 46.7867 100.844 50.5073 101.896 50.7881C102.331 50.8934 103.202 50.6477 104.109 50.1212L103.528 54.0173H106.902L105.741 48.7874Z" fill="#378E04"/>
<path d="M108.209 45.2074C108.318 45.1021 108.39 44.9617 108.426 44.8213C108.463 44.6809 108.535 44.5405 108.571 44.365C108.644 44.0491 108.644 43.6981 108.426 43.4875C108.245 43.312 107.991 43.2067 107.737 43.2067C107.556 43.2067 107.411 43.2067 107.229 43.2769C107.084 43.312 106.939 43.4173 106.794 43.4875C106.794 43.1716 106.722 42.8206 106.54 42.5398C106.359 42.259 106.105 42.1186 105.815 42.0835C105.488 42.0484 105.198 42.1186 104.908 42.259C104.836 42.2941 104.763 42.3292 104.69 42.3643C104.618 42.3994 104.582 42.4345 104.509 42.4696C104.437 42.4696 104.4 42.4345 104.364 42.3994C104.292 42.3292 104.255 42.2941 104.183 42.2239C103.893 42.0133 103.53 41.9431 103.167 42.0484C103.022 42.1186 102.877 42.1888 102.768 42.3292C102.659 42.4345 102.623 42.6451 102.478 42.7153C102.405 42.7504 102.369 42.7153 102.333 42.6802C102.26 42.6451 102.188 42.5749 102.115 42.5047C102.006 42.4345 101.898 42.3643 101.789 42.3643C101.607 42.3292 101.354 42.3292 101.317 42.5749C101.281 42.6451 101.317 42.7504 101.317 42.8557C101.317 42.961 101.317 43.1014 101.354 43.2067C101.354 43.312 101.39 43.3822 101.39 43.4875C101.39 43.5226 101.426 43.6279 101.39 43.663C101.354 43.7332 101.245 43.6981 101.208 43.6981C101.1 43.6981 100.991 43.7332 100.918 43.7683C100.846 43.8034 100.773 43.8385 100.737 43.9438C100.701 43.9789 100.737 44.0491 100.737 44.0842C100.737 44.1544 100.737 44.1895 100.737 44.2246C100.592 44.1544 100.12 44.014 100.084 44.2597C100.048 44.3299 100.12 44.4352 100.157 44.5054C100.229 44.6107 100.302 44.716 100.374 44.8213C100.556 45.0319 100.737 45.2074 100.955 45.3829C100.701 45.4882 100.628 45.8041 100.846 46.0147C100.955 46.0849 101.063 46.12 101.208 46.12C101.245 46.12 101.317 46.0849 101.354 46.12C101.39 46.12 101.39 46.1551 101.426 46.1551C101.607 46.1551 101.789 46.12 101.97 46.0849C102.26 46.0147 102.551 45.8743 102.804 45.6637C102.877 45.5935 102.913 45.5935 102.986 45.5935C103.058 45.5935 103.131 45.6286 103.203 45.6286C103.385 45.6286 103.566 45.5584 103.747 45.4882C103.747 45.6988 103.82 45.9796 103.929 46.1551C104.001 46.3306 104.183 46.3306 104.328 46.3657C104.836 46.4008 105.343 46.3657 105.851 46.3657C105.343 46.471 104.836 46.5061 104.364 46.6465C104.146 46.7167 104.328 46.8571 104.4 46.9624C104.545 47.1379 104.69 47.3485 104.763 47.5591C105.017 47.2432 105.416 47.0677 105.815 47.1379C106.25 47.2432 106.54 47.8048 106.25 48.1909C106.105 48.4366 105.815 48.5068 105.597 48.6121C105.779 48.7876 105.815 49.0684 105.924 49.279C105.96 49.3843 106.069 49.5247 106.178 49.5598C106.214 49.5598 106.286 49.5598 106.323 49.5949C106.359 49.63 106.359 49.7002 106.431 49.7353C106.649 49.8757 107.012 49.8757 107.193 49.6651C107.374 49.4896 107.338 49.2088 107.193 49.0333C107.447 48.928 107.846 48.8227 107.773 48.4717C108.281 48.4366 109.551 47.6293 108.862 47.0326C109.224 46.822 109.587 46.3306 109.333 45.8743C109.007 45.3829 108.571 45.2074 108.209 45.2074Z" fill="#153301"/>
<path d="M101.062 47.7695C100.953 48.2258 100.482 48.7172 100.59 49.2437C100.808 49.349 101.098 49.2788 101.352 49.2788" fill="#378E04"/>
<path d="M101.207 49.8405C101.642 49.8756 101.896 49.4895 102.259 49.4895C102.331 49.7703 101.606 50.1564 101.388 50.2617" fill="#153301"/>
<path d="M101.969 47.559C101.933 47.6643 101.897 47.8047 101.933 47.91C102.223 47.9802 102.332 47.8047 102.296 47.559C102.151 47.4888 102.006 47.4888 101.933 47.559" fill="#153301"/>
<path d="M101.643 47.1379C101.643 46.9975 101.788 46.8922 101.896 46.8571C102.005 46.7869 102.15 46.7869 102.295 46.7869C102.441 46.7869 102.549 46.822 102.658 46.8922C102.767 46.9624 102.876 47.0677 102.876 47.2081C102.767 47.173 102.658 47.1379 102.549 47.1379C102.441 47.1379 102.368 47.1028 102.259 47.1028C102.15 47.1028 102.078 47.1028 101.969 47.1028C101.86 47.1028 101.788 47.1028 101.643 47.1379Z" fill="#153301"/>
<path d="M101.499 55.4916L96.4933 52.8591C95.6591 51.9114 94.8612 51.1743 94.027 50.6478C93.7731 50.5425 93.3378 50.4723 93.7368 51.1743C94.1358 51.8763 94.5347 52.6134 94.3171 52.824C94.0995 53.0346 93.5917 52.7538 93.3378 53.1048C93.1927 53.3505 94.0632 53.7015 95.9493 54.228L99.5763 57.4572L101.499 55.4916Z" fill="#378E04"/>
<path d="M104.218 55.1056C102.477 55.0705 100.12 54.7195 97.6532 53.2102L96.6738 55.3162C98.3785 56.9659 100.809 58.3348 102.912 58.2646C104.581 58.2295 105.415 56.2639 104.218 55.1056Z" fill="#378E04"/>
<path d="M85.1048 48.0504C87.3536 47.559 89.5661 46.9272 91.8149 46.3656C92.105 46.2954 93.1931 45.8391 93.4108 45.9444C93.4108 45.9444 93.5921 47.0676 93.6284 47.4186C93.7372 48.5067 93.9186 49.5948 94.0999 50.6829C94.2087 51.42 94.3176 52.0869 94.3901 52.4028C94.3901 52.473 94.4264 52.5432 94.4264 52.5783C94.4264 52.6836 94.4264 52.7538 94.3901 52.824C94.1725 53.0346 93.6647 52.7538 93.4108 53.1048C93.2657 53.2803 93.8098 53.5611 94.9342 53.9121C95.5508 55.3161 97.6907 58.2996 97.9083 58.5453C96.2036 59.2824 94.4626 60.0195 92.7579 60.7215C92.3227 60.897 89.82 62.0904 89.3485 61.95C88.9132 61.8447 88.2241 60.4758 87.8614 59.7387C86.9909 57.9837 86.3018 56.1234 85.8665 54.1929C85.7214 53.6664 84.6696 48.1557 85.1048 48.0504Z" fill="#E8F7CD"/>
<path d="M92.5394 61.599C91.5964 60.9321 90.7259 60.5109 89.8917 60.2652C88.332 59.844 87.7154 59.5281 86.9538 58.5804C86.5548 58.089 86.1921 57.0711 86.5911 56.7552C86.8449 56.5446 88.3683 57.6327 88.9849 57.738C89.6015 57.8784 89.0212 56.4393 89.3476 56.5797C89.7829 56.5797 90.1456 57.1413 90.4357 58.2996L92.612 59.4579L92.5394 61.599Z" fill="#378E04"/>
<path d="M100.918 60.0195C99.0681 60.4758 95.9488 59.9493 91.5601 58.44C90.472 60.6162 89.9642 62.1606 90.073 63.0732C93.8089 64.9686 97.037 65.811 99.6847 65.8812C99.6122 67.3905 99.7935 68.8647 100.446 70.1634C101.752 72.8661 109.514 70.374 112.089 70.8654C113.721 65.7408 110.566 63.6699 110.566 60.4056C110.566 56.8254 107.592 51.3147 107.156 51.3147H103.167C102.913 54.0174 101.825 57.036 100.918 60.0195Z" fill="#58C114"/>
<path d="M149.191 38.0615C149.807 37.3595 150.242 36.482 150.17 35.4992C149.952 32.6912 145.89 33.2879 145.128 34.727C144.33 36.1661 144.439 39.7814 145.455 40.0271C145.854 40.1324 146.724 39.8867 147.631 39.3602L147.087 43.151H150.351L149.191 38.0615Z" fill="#C6F25A"/>
<path d="M143.64 32.7265C143.713 32.4808 143.894 32.3053 144.148 32.2351C144.22 32.2351 144.257 32.2 144.329 32.2C144.365 32.2 144.365 32.2 144.365 32.2V32.1649C144.365 32.1298 144.402 32.0947 144.402 32.0596C144.438 31.9192 144.547 31.8139 144.656 31.7086C144.837 31.5331 145.127 31.3927 145.381 31.3576C145.526 31.3576 145.671 31.3576 145.816 31.4278C145.889 31.4629 145.961 31.498 146.034 31.5331C146.07 31.5331 146.106 31.6033 146.143 31.6033C146.179 31.6033 146.215 31.5331 146.215 31.5331C146.433 31.3576 146.723 31.2874 147.013 31.2874C147.34 31.2874 147.666 31.3225 147.92 31.498C147.993 31.5331 148.029 31.5682 148.101 31.6384C148.138 31.6735 148.138 31.6735 148.174 31.7086L148.21 31.7437C148.246 31.7788 148.246 31.7788 148.283 31.7788C148.428 31.7086 148.573 31.6735 148.718 31.6735C148.827 31.6735 148.899 31.7086 148.972 31.7437C149.008 31.7437 149.081 31.8139 149.081 31.8139C149.117 31.8139 149.189 31.7788 149.189 31.7437C149.371 31.6735 149.552 31.6735 149.697 31.7086C149.879 31.7437 150.06 31.8139 150.205 31.9192C150.278 31.9543 150.35 32.0245 150.386 32.0947C150.423 32.1298 150.423 32.1649 150.459 32.2C150.459 32.2 150.495 32.2351 150.495 32.2702C150.495 32.2702 150.677 32.1649 150.713 32.1649C150.822 32.1298 150.93 32.1298 151.003 32.1649C151.184 32.2351 151.366 32.3755 151.475 32.4808C151.547 32.551 151.62 32.6212 151.656 32.7265C151.692 32.7616 151.692 32.7967 151.728 32.8669C151.728 32.902 151.728 32.902 151.765 32.9371C151.765 32.9722 151.801 32.9722 151.837 32.9722C151.982 33.0073 152.127 33.1126 152.236 33.2179C152.345 33.3232 152.418 33.4987 152.454 33.6391V33.6742H152.49C152.526 33.6742 152.563 33.6742 152.599 33.7093C152.671 33.7093 152.744 33.7444 152.817 33.7795C153.07 33.9199 153.252 34.1305 153.361 34.4113C153.469 34.6921 153.469 35.008 153.324 35.2888C153.288 35.3239 153.288 35.359 153.252 35.4292C153.252 35.4643 153.215 35.4643 153.252 35.4643C153.252 35.4994 153.288 35.5345 153.288 35.5345C153.324 35.6398 153.361 35.71 153.397 35.8153C153.433 35.9908 153.433 36.1663 153.397 36.3067C153.397 36.3769 153.361 36.4471 153.324 36.5173C153.288 36.5524 153.288 36.5875 153.252 36.6226L153.215 36.6577C153.215 36.6577 153.179 36.6577 153.179 36.6928C153.143 36.7279 153.143 36.6928 153.179 36.7279C153.179 36.763 153.215 36.8332 153.252 36.8683C153.288 36.9034 153.288 36.9736 153.288 37.0087C153.324 37.114 153.361 37.2193 153.361 37.2895C153.397 37.5001 153.397 37.6756 153.288 37.8511C153.252 37.9213 153.179 37.9915 153.107 38.0617C153.07 38.0968 153.034 38.0968 152.998 38.1319C152.962 38.1319 152.962 38.1319 152.925 38.167C152.925 38.2021 152.925 38.2372 152.925 38.2372C152.962 38.4478 152.962 38.6233 152.925 38.8339C152.853 39.0094 152.744 39.1849 152.599 39.2551C152.309 39.4657 151.873 39.4306 151.547 39.2902C151.474 39.2551 151.366 39.1849 151.329 39.1498C151.148 39.3955 150.785 39.3604 150.531 39.3253C150.205 39.2551 149.951 39.0094 149.806 38.7286C149.588 38.9743 149.153 38.9041 149.008 38.6233C148.972 38.5531 148.936 38.4829 148.936 38.4127C148.936 38.3776 148.936 38.3425 148.936 38.3074C148.936 38.2723 148.899 38.2021 148.863 38.167C148.827 38.0617 148.79 37.9915 148.79 37.8862C148.79 37.8511 148.79 37.7809 148.79 37.7458C148.79 37.7107 148.79 37.6756 148.79 37.6054C148.863 37.6054 148.972 37.6054 149.044 37.5703C149.117 37.5352 149.189 37.5001 149.262 37.4299C149.407 37.2895 149.48 37.1491 149.516 36.9736C149.625 36.5875 149.588 36.1663 149.189 35.9557C149.008 35.8504 148.464 35.8504 148.246 35.9206C148.029 35.9557 147.775 36.4471 147.739 36.4822C147.739 36.5173 147.739 36.5524 147.702 36.5524C147.63 36.5875 147.557 36.5173 147.521 36.4822C147.448 36.412 147.412 36.3418 147.34 36.2716C147.231 36.0961 147.158 35.9206 147.086 35.71C147.049 35.5696 147.013 35.3941 146.941 35.2537C146.868 35.1133 146.796 34.9729 146.651 34.9027C146.505 34.7974 146.324 34.7623 146.143 34.7272C145.961 34.657 145.816 34.5868 145.671 34.4815C145.635 34.4464 145.599 34.4113 145.599 34.4113C145.599 34.3762 145.562 34.3411 145.526 34.3411C145.49 34.306 145.417 34.3762 145.381 34.4113C145.2 34.5166 145.055 34.6921 144.946 34.8325C144.837 35.008 144.728 35.1484 144.656 35.359C144.583 35.4994 144.547 35.6749 144.438 35.7802C144.402 35.8153 144.039 35.8504 143.93 35.8153C143.821 35.7802 143.676 35.6398 143.64 35.5696C143.604 35.4994 143.604 35.4292 143.604 35.3239C143.604 35.2888 143.64 35.2186 143.64 35.1835C143.64 35.1484 143.64 35.1133 143.676 35.0782C143.713 35.008 143.785 34.9729 143.858 34.9378C143.785 34.8676 143.713 34.7974 143.676 34.6921C143.64 34.5868 143.604 34.4815 143.568 34.3762C143.568 34.2709 143.567 34.2007 143.64 34.1305C143.676 34.0603 143.785 33.9901 143.858 33.955C143.749 33.8497 143.64 33.7444 143.531 33.6391C143.676 33.3232 143.567 33.0073 143.64 32.7265Z" fill="#153301"/>
<path d="M144.621 36.9033C144.585 37.2894 143.823 37.8159 144.004 38.202C144.113 38.4477 144.73 38.4828 144.947 38.4828" fill="#C6F25A"/>
<path d="M145.456 36.3767C145.165 36.3767 145.057 36.6575 145.129 36.9032C145.202 36.9383 145.419 36.9383 145.492 36.9032C145.528 36.7979 145.528 36.5873 145.492 36.482C145.419 36.482 145.383 36.4469 145.347 36.4118" fill="#153301"/>
<path d="M144.838 39.2903C145.019 39.185 145.201 39.1148 145.346 39.0095C145.527 38.9042 145.672 38.7989 145.853 38.6936C145.781 38.9042 145.636 39.0446 145.454 39.1499C145.273 39.2552 145.056 39.3254 144.838 39.2903Z" fill="#153301"/>
<path d="M145.02 35.9907C145.201 35.9205 145.382 35.8854 145.564 35.9205C145.672 35.9556 145.745 35.9907 145.817 36.0609C145.89 36.1311 145.926 36.2364 145.926 36.3066C145.854 36.2364 145.818 36.2013 145.745 36.1311C145.672 36.096 145.6 36.0609 145.527 36.0609C145.382 36.0609 145.201 36.0609 145.02 35.9907Z" fill="#153301"/>
<path d="M141.139 54.3132L137.113 56.5947C136.097 58.1391 135.517 58.806 135.336 58.5954C135.082 58.2795 135.481 57.9285 135.336 57.6828C135.191 57.4371 134.393 57.5775 133.631 57.753C132.869 57.9285 133.051 57.5424 133.196 57.3669C133.921 56.8053 134.828 56.2788 135.952 55.8225L139.833 52.1721L141.139 54.3132ZM158.767 61.1226C158.948 61.5087 160.399 62.667 161.414 63.3339C161.813 63.6147 161.668 63.9306 161.487 64.0359C160.254 64.773 159.419 63.8955 158.368 63.4041C157.207 62.8776 157.279 64.3518 156.373 63.9657C156.663 63.3339 157.316 62.1756 157.026 61.4385C156.88 61.0875 155.937 58.1742 154.16 52.6986H157.026C157.932 57.7881 158.513 60.5961 158.767 61.1226Z" fill="#C6F25A"/>
<path d="M148.9 41.1156L147.703 40.905C145.672 45.819 142.118 50.2767 137.076 54.2781L140.885 58.7709C145.962 53.0847 149.082 47.1879 148.9 41.1156Z" fill="#347C05"/>
<path d="M154.052 55.4715H143.533C145.963 49.7502 147.197 44.8713 147.197 40.8699L150.352 40.4136C152.855 44.2746 153.58 49.0482 154.052 55.4715Z" fill="#E8F7CD"/>
<path d="M150.425 40.4136H150.207C149.953 40.4136 149.59 40.4487 149.082 40.4487L148.321 42.5547C148.248 45.1521 147.777 50.3469 146.906 58.1742H153.798C153.798 58.7007 153.761 59.2623 153.725 59.8239H158.839C158.078 51.4701 155.285 44.9766 150.425 40.4136Z" fill="#378E04"/>
<path d="M153.362 51.2595C153.181 54.6291 152.673 56.9457 151.875 58.2093H153.797C153.87 55.8225 153.725 53.5059 153.362 51.2595Z" fill="black" fill-opacity="0.1"/>
<path d="M152.273 54.1377L148.863 52.6284V54.1377H152.273Z" fill="white" fill-opacity="0.2"/>
<path d="M121.2 96.1934C120.403 96.5444 112.387 98.1239 112.387 98.1239C112.387 98.1239 116.63 100.827 117.392 101.248C118.117 101.669 126.568 99.2471 126.568 99.2471L121.2 96.1934Z" fill="#C6F25A"/>
<path d="M112.933 95C113.767 95.2457 121.928 95.9477 121.928 95.9477C121.928 95.9477 118.011 99.1067 117.358 99.5981C116.669 100.09 108 98.6153 108 98.6153L112.933 95Z" fill="#E8F7CD"/>
<path d="M149.988 63.8602C149.118 64.0006 141.029 63.79 141.029 63.79C141.029 63.79 144.511 67.3352 145.128 67.8968C145.744 68.4584 154.449 67.9669 154.449 67.9669L149.988 63.8602Z" fill="#E8F7CD"/>
<path d="M65.2955 103.383L69.3216 110.298L65.5132 106.191L61.2695 99.0305L65.2955 103.383Z" fill="#276002"/>
<path d="M65.2969 103.383L70.4473 103.453L75.3438 110.508L69.3229 110.298L65.2969 103.383Z" fill="#378E04"/>
<path d="M61.2698 99.0305L65.5135 106.191L69.3219 110.298L75.3427 110.508L75.2702 110.824L69.1768 110.649L65.2595 106.296L60.9434 99.1358L61.2698 99.0305Z" fill="#153301"/>
<path d="M65.9863 103.769H66.2765L66.603 104.225L66.2039 104.19L65.9863 103.769Z" fill="#276002"/>
<path d="M67.1822 104.225L66.7832 104.19L66.5293 103.769H66.8558L67.1822 104.225Z" fill="#276002"/>
<path d="M67.726 104.225H67.3633L67.1094 103.769H67.4358L67.726 104.225Z" fill="#276002"/>
<path d="M68.3072 104.225H67.9445L67.6543 103.804H67.9808L68.3072 104.225Z" fill="#276002"/>
<path d="M68.8873 104.225H68.4883L68.2344 103.804H68.5608L68.8873 104.225Z" fill="#276002"/>
<path d="M69.4673 104.225H69.0683L68.8145 103.804H69.1409L69.4673 104.225Z" fill="#276002"/>
<path d="M66.3496 104.436H66.676L66.9662 104.857H66.6035L66.3496 104.436Z" fill="#276002"/>
<path d="M66.9277 104.436H67.2542L67.5444 104.857H67.1817L66.9277 104.436Z" fill="#276002"/>
<path d="M67.5078 104.436H67.8342L68.1244 104.857H67.7617L67.5078 104.436Z" fill="#276002"/>
<path d="M68.0898 104.436H68.4163L68.7064 104.892L68.3437 104.857L68.0898 104.436Z" fill="#276002"/>
<path d="M68.6328 104.436H68.9955L69.2857 104.892H68.923L68.6328 104.436Z" fill="#276002"/>
<path d="M69.2129 104.436H69.5756L69.8658 104.892H69.5031L69.2129 104.436Z" fill="#276002"/>
<path d="M66.748 105.068H67.0745L67.3647 105.524L67.002 105.489L66.748 105.068Z" fill="#276002"/>
<path d="M67.3262 105.068H67.6526L67.9428 105.524L67.58 105.489L67.3262 105.068Z" fill="#276002"/>
<path d="M67.9082 105.068L68.2346 105.103L68.561 105.524H68.1621L67.9082 105.068Z" fill="#276002"/>
<path d="M68.4883 105.103H68.8147L69.1412 105.524H68.7422L68.4883 105.103Z" fill="#276002"/>
<path d="M69.0684 105.103H69.3948L69.7212 105.524H69.3223L69.0684 105.103Z" fill="#276002"/>
<path d="M69.6484 105.103H69.9749L70.3014 105.559L69.9024 105.524L69.6484 105.103Z" fill="#276002"/>
<path d="M67.1445 105.735H67.471L67.7612 106.156H67.3984L67.1445 105.735Z" fill="#276002"/>
<path d="M67.7266 105.735H68.053L68.3432 106.156H67.9805L67.7266 105.735Z" fill="#276002"/>
<path d="M68.3066 105.735H68.6331L68.9595 106.191L68.5605 106.156L68.3066 105.735Z" fill="#276002"/>
<path d="M68.8867 105.735H69.2132L69.5396 106.191H69.1769L68.8867 105.735Z" fill="#276002"/>
<path d="M69.4688 105.77H69.8314L70.1216 106.191H69.7589L69.4688 105.77Z" fill="#276002"/>
<path d="M70.084 105.77H70.4104L70.7368 106.191H70.3379L70.084 105.77Z" fill="#276002"/>
<path d="M67.5078 106.366H67.8342L68.1607 106.823L67.7617 106.788L67.5078 106.366Z" fill="#276002"/>
<path d="M68.4514 106.366L68.7415 106.823H68.3789L68.125 106.366H68.4514Z" fill="#276002"/>
<path d="M69.0315 106.402L69.358 106.823H68.959L68.7051 106.402H69.0315Z" fill="#276002"/>
<path d="M69.6487 106.402L69.9388 106.823H69.5761L69.3223 106.402H69.6487Z" fill="#276002"/>
<path d="M70.2288 106.402L70.5552 106.858L70.1562 106.823L69.9023 106.402H70.2288Z" fill="#276002"/>
<path d="M70.8471 106.402L71.1735 106.858H70.7746L70.4844 106.402H70.8471Z" fill="#276002"/>
<path d="M68.3066 107.665H68.6331L68.9232 108.122L68.5605 108.087L68.3066 107.665Z" fill="#276002"/>
<path d="M68.9238 107.665H69.2503L69.5405 108.122H69.1778L68.9238 107.665Z" fill="#276002"/>
<path d="M69.5039 107.7H69.8303L70.1568 108.121H69.7941L69.5039 107.7Z" fill="#276002"/>
<path d="M70.1211 107.7H70.4475L70.774 108.156L70.375 108.121L70.1211 107.7Z" fill="#276002"/>
<path d="M70.7363 107.7H71.0628L71.3892 108.156H70.9902L70.7363 107.7Z" fill="#276002"/>
<path d="M71.3535 107.735H71.68L72.0064 108.157H71.6074L71.3535 107.735Z" fill="#276002"/>
<path d="M67.9434 106.998H68.2698L68.5599 107.455L68.1972 107.419L67.9434 106.998Z" fill="#276002"/>
<path d="M68.5625 107.033H68.8527L69.1791 107.455H68.8164L68.5625 107.033Z" fill="#276002"/>
<path d="M69.1406 107.033H69.467L69.7935 107.455H69.3945L69.1406 107.033Z" fill="#276002"/>
<path d="M69.7578 107.033H70.0843L70.4107 107.49H70.0117L69.7578 107.033Z" fill="#276002"/>
<path d="M70.373 107.068H70.6995L71.0259 107.49H70.627L70.373 107.068Z" fill="#276002"/>
<path d="M70.9922 107.068H71.3186L71.645 107.49H71.246L70.9922 107.068Z" fill="#276002"/>
<path d="M68.7051 108.297L69.0315 108.332L69.3217 108.753H68.959L68.7051 108.297Z" fill="#276002"/>
<path d="M69.3223 108.332H69.6487L69.9388 108.753H69.5761L69.3223 108.332Z" fill="#276002"/>
<path d="M69.9395 108.332H70.2659L70.556 108.788L70.1933 108.753L69.9395 108.332Z" fill="#276002"/>
<path d="M70.5195 108.332L70.846 108.367L71.1725 108.788H70.8097L70.5195 108.332Z" fill="#276002"/>
<path d="M71.1367 108.367H71.4631L71.7896 108.788H71.3906L71.1367 108.367Z" fill="#276002"/>
<path d="M71.752 108.367H72.0784L72.4048 108.823L72.0058 108.788L71.752 108.367Z" fill="#276002"/>
<path d="M69.1406 108.964H69.4308L69.7573 109.42H69.3583L69.1406 108.964Z" fill="#276002"/>
<path d="M69.7207 108.999H70.0472L70.3736 109.42H69.9746L69.7207 108.999Z" fill="#276002"/>
<path d="M70.3379 108.999H70.6643L70.9908 109.455L70.5918 109.42L70.3379 108.999Z" fill="#276002"/>
<path d="M70.9551 108.999H71.2815L71.6079 109.455H71.2089L70.9551 108.999Z" fill="#276002"/>
<path d="M71.5703 109.034H71.8968L72.2232 109.455H71.8242L71.5703 109.034Z" fill="#276002"/>
<path d="M72.1523 109.034H72.515L72.8415 109.455H72.4425L72.1523 109.034Z" fill="#276002"/>
<path d="M69.5391 109.631H69.8655L70.1556 110.052H69.7929L69.5391 109.631Z" fill="#276002"/>
<path d="M70.1211 109.631H70.4475L70.774 110.087L70.375 110.052L70.1211 109.631Z" fill="#276002"/>
<path d="M70.7363 109.631L71.0628 109.666L71.3892 110.087H70.9902L70.7363 109.631Z" fill="#276002"/>
<path d="M71.3535 109.666H71.68L72.0064 110.087H71.6074L71.3535 109.666Z" fill="#276002"/>
<path d="M71.9707 109.666H72.2972L72.6236 110.122L72.2246 110.087L71.9707 109.666Z" fill="#276002"/>
<path d="M72.5508 109.666H72.9135L73.24 110.122H72.841L72.5508 109.666Z" fill="#276002"/>
<path d="M70.7012 105.77L72.2608 108.121H73.3127L71.6442 105.735L70.7012 105.77Z" fill="#276002"/>
<path d="M49.7716 151.786H25.2891V154.559H49.7716V151.786Z" fill="#204F01"/>
<path d="M191.626 92.537H185.859V84.5342H162.066V117.072H140.775V135.394H140.739V107.244H115.531V135.394H94.8568V128.269H71.3535V154.559H191.626V92.537Z" fill="#204F01"/>
<path d="M119.819 88.994L114.414 91.1702C112.891 92.8901 112.021 93.6272 111.839 93.3464C111.585 92.9252 112.166 92.5391 112.021 92.2232C111.875 91.9073 110.86 91.9424 109.881 92.0126C108.901 92.0828 109.191 91.6616 109.409 91.451C110.388 90.8894 111.622 90.398 113.109 90.0119L118.549 86.1509L119.819 88.994ZM141.726 96.8213C141.98 97.3127 143.793 98.7518 145.027 99.5942C145.534 99.9452 145.317 100.366 145.135 100.472C143.576 101.384 142.56 100.296 141.218 99.6995C139.767 99.0326 139.876 100.893 138.716 100.401C139.078 99.6293 139.913 98.1902 139.514 97.2425C139.332 96.8213 138.135 93.1709 135.959 86.2913H139.514C140.638 92.6444 141.363 96.1544 141.726 96.8213Z" fill="#D0F792"/>
<path d="M129.358 71.7599L127.871 71.5142C122.394 76.0772 120.146 84.8873 113.436 89.5556L115.068 91.4861C126.71 90.0821 129.612 79.3766 129.358 71.7599Z" fill="#BA2740"/>
<path d="M135.814 89.7311C129.902 89.7311 125.549 89.7311 122.756 89.7311C122.176 89.7311 122.285 88.8887 122.358 88.4675C123.337 83.6237 127.254 78.3587 127.254 71.4791L131.026 70.9175C134.109 75.7262 135.197 81.6932 135.814 89.7311Z" fill="#DDE3E9"/>
<path d="M135.706 75.656C136.25 75.5156 136.685 75.1646 137.011 74.603C138.39 72.2162 137.882 70.8824 136.431 70.4261C134.98 69.9698 133.638 70.8824 131.317 70.8824C131.172 70.8824 131.063 70.8824 130.954 70.9175L129.757 70.9877C126.384 82.0793 125.441 89.4854 126.965 93.206H137.229C137.846 94.5749 138.426 95.7332 138.97 96.6809H141.763C142.053 88.3973 140.022 81.4124 135.706 75.656Z" fill="#CC364B"/>
<path d="M134.98 87.4849C134.653 90.1174 134.145 92.0128 133.42 93.1711H137.228C136.503 91.5916 135.778 89.6962 134.98 87.4849Z" fill="black" fill-opacity="0.1"/>
<path d="M130.81 68.0392C131.608 67.1617 132.116 66.0385 132.043 64.81C131.789 61.2649 126.711 62.0371 125.696 63.8272C124.716 65.6173 124.825 70.1452 126.095 70.4611C126.602 70.6015 127.69 70.2856 128.779 69.6187L128.089 74.3572H132.188L130.81 68.0392Z" fill="#D0F792"/>
<path d="M128.597 65.2312C128.452 67.3372 128.017 68.3902 127.364 68.3902C126.348 68.3902 125.514 67.7584 125.043 67.7584C124.716 67.7584 124.789 68.1445 125.006 68.4253C125.188 68.671 126.058 68.8816 126.058 69.2677C126.058 69.6538 125.369 69.3379 125.369 69.5836C125.369 69.9346 125.26 70.6366 125.913 70.6366C126.566 70.6366 128.452 70.3909 128.779 69.4432C128.996 68.8465 129.141 67.5478 129.178 65.6524C129.214 65.6524 129.25 65.6524 129.286 65.6524C129.867 65.6524 130.302 66.1087 130.302 66.6352C130.302 66.916 130.193 67.1617 129.975 67.3372C130.229 67.6531 130.483 68.0041 130.773 68.3551C131.934 67.6882 133.276 65.7226 132.152 63.8623C131.825 62.9497 130.628 62.4583 129.794 62.2477C129.141 61.9669 128.416 61.9318 127.835 62.1073C126.675 62.2126 125.659 62.5285 125.369 62.7391C125.369 63.7921 125.587 64.108 127.364 64.0729C127.908 64.3186 128.235 64.7047 128.597 65.2312Z" fill="#153301"/>
<path d="M125.151 65.7927C124.86 66.249 124.534 66.7053 124.208 67.1616C123.7 67.8285 125.006 67.7934 125.368 67.7232" fill="#D0F792"/>
<path d="M125.225 69.1273C125.37 69.0571 125.551 69.0571 125.696 69.0571C125.841 69.0571 125.986 69.0571 126.131 69.022C126.059 69.1624 125.877 69.2326 125.696 69.2326C125.551 69.2326 125.406 69.1975 125.225 69.1273Z" fill="#153301"/>
<path d="M126.421 65.6875C125.804 65.6173 126.711 66.6001 126.674 65.7928C126.566 65.7577 126.457 65.7226 126.348 65.6875" fill="#153301"/>
<path d="M125.875 65.3714C125.948 65.2661 126.056 65.1959 126.165 65.1608C126.274 65.1257 126.383 65.1257 126.492 65.1257C126.6 65.1257 126.709 65.1608 126.818 65.1959C126.927 65.231 127.036 65.3363 127.072 65.4416L126.782 65.4767C126.673 65.4767 126.6 65.4767 126.528 65.4767C126.455 65.4767 126.347 65.4767 126.274 65.4416C126.093 65.4065 125.984 65.3714 125.875 65.3714Z" fill="#153301"/>
</svg>
