<svg width="219" height="167" viewBox="0 0 219 167" fill="none" xmlns="http://www.w3.org/2000/svg">
<path d="M98.3984 63.8949L140.478 57.1898L142.635 39.2158L143.043 29.0737L141.877 8.50781L105.159 9.63471L101.546 11.8885L99.7972 18.0301L100.963 28.6229L101.371 38.8777L100.963 47.1604L100.089 55.5558L98.3984 63.8949Z" fill="#6753A5"/>
<path d="M140.479 57.1914L139.021 56.8533C139.021 56.797 141.003 48.9087 141.528 44.6265C142.577 36.3438 142.577 26.9341 141.469 15.1581V14.989C141.178 11.8901 140.828 8.39667 142.46 5.41039C143.334 3.77639 145.258 2.31142 147.239 2.87487C149.396 3.49466 150.328 6.25556 150.911 8.11495C150.969 8.34033 151.028 8.50936 151.086 8.67839L149.687 9.12916C149.629 8.96012 149.571 8.73474 149.512 8.50936C148.988 6.98805 148.23 4.62156 146.831 4.22715C145.666 3.88908 144.442 4.90329 143.801 6.08653C142.402 8.62205 142.693 11.7774 142.985 14.82V14.989C144.092 26.8778 144.15 36.3438 143.043 44.7955C142.46 49.134 140.537 56.8533 140.479 57.1914Z" fill="white"/>
<path d="M103.527 9.52244L105.043 9.12803L145.899 2.64836C145.899 2.64836 149.396 1.63415 151.028 8.67727L108.948 15.4387C108.948 15.4387 108.073 12.7904 107.899 12.5087C107.432 11.5509 106.733 10.7057 105.859 10.0859C105.218 9.57879 104.402 9.63513 103.527 9.52244Z" fill="#F0E8F5"/>
<path d="M150.95 8.20348L108.959 15.1602L109.067 15.771L151.058 8.81435L150.95 8.20348Z" fill="#8479C9"/>
<path d="M102.012 111.451C101.954 111.451 101.954 111.451 101.896 111.451C101.196 111.394 100.672 110.775 100.73 110.098L108.365 20.679C108.423 20.0029 109.064 19.4958 109.764 19.5521C110.463 19.6085 110.988 20.2283 110.929 20.9044L103.294 110.324C103.178 110.944 102.653 111.451 102.012 111.451Z" fill="#8479C9"/>
<path d="M101.371 110.549C101.196 110.549 101.022 110.38 101.08 110.211L108.715 24.0034C108.715 23.8344 108.89 23.7217 109.064 23.7217C109.239 23.7217 109.356 23.8907 109.356 24.0598L101.721 110.267C101.721 110.437 101.546 110.549 101.371 110.549Z" fill="#ADA8D4"/>
<path d="M123.169 132.298C122.47 132.298 121.945 131.791 121.887 131.115L120.43 75.221C120.43 74.5449 120.954 73.9814 121.654 73.9814C122.353 73.9814 122.936 74.4886 122.936 75.1647L124.393 131.059C124.451 131.735 123.927 132.298 123.169 132.298Z" fill="#8479C9"/>
<path d="M122.703 131.454C122.528 131.454 122.412 131.342 122.412 131.173L120.838 74.715C120.838 74.546 120.954 74.377 121.129 74.377C121.304 74.377 121.479 74.4896 121.479 74.6587L123.053 131.116C122.994 131.342 122.878 131.454 122.703 131.454Z" fill="#ADA8D4"/>
<path d="M165.075 119.62C164.492 119.62 163.909 119.226 163.851 118.606L154.526 68.4591C154.409 67.7829 154.875 67.1632 155.575 67.0505C156.274 66.9378 156.915 67.3885 157.032 68.0647L166.357 118.212C166.474 118.888 166.007 119.508 165.308 119.62C165.25 119.62 165.133 119.62 165.075 119.62Z" fill="#8479C9"/>
<path d="M164.608 118.888C164.433 118.888 164.317 118.775 164.317 118.662L154.001 63.05C153.942 62.881 154.059 62.7119 154.234 62.7119C154.408 62.6556 154.583 62.7683 154.583 62.9373L164.899 118.55C164.958 118.662 164.841 118.831 164.608 118.888C164.666 118.888 164.666 118.888 164.608 118.888Z" fill="#ADA8D4"/>
<path d="M109.064 15.4399L117.865 76.2361L160.936 67.2209L151.028 8.45312L109.064 15.4399Z" fill="#F0E8F5"/>
<path d="M109.006 15.4401C108.54 13.299 107.433 10.2564 105.16 9.63659C103.178 9.07314 101.255 10.5381 100.38 12.1721C98.7485 15.102 99.0982 18.5954 99.3896 21.7507V21.9198C100.497 33.6959 100.555 43.1055 99.4478 51.3882C98.9233 55.6704 97.0583 63.1643 97 63.2206L98.3405 63.8967C98.3988 63.5587 100.322 55.8958 100.905 51.5572C102.012 43.1618 101.954 33.6959 100.847 21.7507V21.5817C100.555 18.5391 100.264 15.3838 101.663 12.8482C102.304 11.665 103.586 10.6508 104.693 10.9889C107.957 11.9467 108.015 18.5954 108.423 21.4127C109.123 26.202 109.822 30.9913 110.58 35.7806C111.454 41.6405 112.328 47.5004 113.203 53.3602C113.96 58.4313 114.718 63.446 115.476 68.517C115.825 70.8835 116 72.2358 116.35 74.6023L116.466 75.6728L117.865 76.2363C117.574 74.2642 117.282 72.3485 116.991 70.3764C116.292 65.6998 115.65 60.9668 114.951 56.2902C114.135 50.543 113.261 44.7958 112.445 39.0486C111.687 33.9776 110.988 28.9065 110.23 23.8355C109.822 21.1309 109.589 18.4264 109.064 15.7218C109.064 15.6655 109.064 15.5528 109.006 15.4401Z" fill="#8479C9"/>
<path d="M116.35 21.693C116.933 22.5945 116.991 23.7214 116.991 24.7356C117.049 24.6793 117.166 24.6229 117.224 24.5666C116.699 24.7356 116.117 24.6793 115.592 24.6793C115.417 24.6793 115.068 24.9047 115.359 24.9047C116 24.9047 116.641 24.961 117.282 24.792C117.341 24.792 117.515 24.7356 117.515 24.6229C117.574 23.6087 117.457 22.4818 116.874 21.5803C116.758 21.4113 116.292 21.5803 116.35 21.693Z" fill="#EA931F"/>
<path d="M115.301 21.8622C116.175 21.8622 116.991 21.5241 117.865 21.4677C118.098 21.4677 118.273 21.1297 117.923 21.186C117.107 21.2424 116.291 21.5804 115.475 21.5804C115.301 21.5804 115.009 21.8622 115.301 21.8622Z" fill="#EA931F"/>
<path d="M118.506 22.9865C119.147 23.0992 119.905 22.8175 119.73 22.085C119.73 22.0286 119.671 22.0286 119.613 22.0286C118.972 21.8596 118.098 22.0286 118.156 22.8738C118.214 23.4373 118.622 24.1134 119.263 24.0571C119.73 24.0007 120.079 23.6626 120.313 23.2682C120.429 23.0428 119.905 23.0992 119.846 23.2682C119.73 23.4373 119.555 23.8317 119.263 23.7753C119.03 23.719 118.855 23.4373 118.739 23.2119C118.622 22.9865 118.564 22.7048 118.681 22.423C118.797 22.1413 119.03 22.254 119.263 22.3104C119.205 22.3104 119.205 22.254 119.147 22.254C119.205 22.5921 119.089 22.8175 118.739 22.7611C118.622 22.7611 118.447 22.7611 118.389 22.8738C118.447 22.8738 118.389 22.9301 118.506 22.9865Z" fill="#EA931F"/>
<path d="M116.874 26.6502C116.874 27.7208 116.816 30.6507 118.739 29.6928C119.031 29.5238 118.798 29.2984 118.506 29.4111C117.282 30.0309 117.399 27.1573 117.399 26.5939C117.34 26.3122 116.874 26.4248 116.874 26.6502Z" fill="#EA931F"/>
<path d="M116.991 28.06C117.282 28.06 117.632 28.06 117.923 28.06C118.04 28.06 118.215 28.0037 118.273 27.9474C118.331 27.8347 118.215 27.7783 118.157 27.7783C117.865 27.7783 117.515 27.7783 117.224 27.7783C117.107 27.7783 116.933 27.8347 116.874 27.891C116.816 28.0037 116.933 28.06 116.991 28.06Z" fill="#EA931F"/>
<path d="M118.856 27.553C118.798 28.3419 119.206 29.7505 120.313 29.4124C121.479 29.018 120.721 27.6657 121.071 26.8769C121.187 26.5952 120.663 26.6515 120.604 26.8205C120.371 27.4403 120.663 28.1728 120.488 28.7926C120.255 29.3561 119.789 29.018 119.614 28.6236C119.439 28.2855 119.381 27.8911 119.439 27.553C119.381 27.2713 118.856 27.3277 118.856 27.553Z" fill="#EA931F"/>
<path d="M118.332 32.7925C118.507 33.4123 118.507 34.0884 118.623 34.7082C118.681 34.9336 119.148 34.8209 119.148 34.5955C119.031 33.9757 118.973 33.2996 118.856 32.6798C118.798 32.3981 118.273 32.5671 118.332 32.7925Z" fill="#EA931F"/>
<path d="M118.098 31.7774C118.098 31.8901 118.098 31.9464 118.098 32.0591C118.098 32.1718 118.622 32.1154 118.622 31.9464C118.622 31.8337 118.622 31.7774 118.622 31.6647C118.622 31.4956 118.098 31.6083 118.098 31.7774C118.098 31.8901 118.098 31.9464 118.098 32.0591C118.098 32.1718 118.622 32.1154 118.622 31.9464C118.622 31.8337 118.622 31.7774 118.622 31.6647C118.622 31.4956 118.098 31.6083 118.098 31.7774Z" fill="#EA931F"/>
<path d="M118.972 31.2154C118.855 32.286 119.497 33.2439 119.73 34.3144C119.73 34.4271 119.963 34.4271 120.021 34.3708C120.254 34.3144 120.487 34.3144 120.721 34.2581C121.012 34.2017 120.954 33.92 120.662 33.9763C120.429 34.0327 120.196 34.0327 119.963 34.089C120.079 34.089 120.138 34.1454 120.254 34.1454C120.021 33.1312 119.38 32.2297 119.497 31.1591C119.497 30.9337 118.972 30.9901 118.972 31.2154Z" fill="#EA931F"/>
<path d="M122.877 30.0303C122.877 31.777 122.644 33.58 122.644 35.3267C122.818 35.2704 122.993 35.214 123.168 35.214C123.168 35.1577 123.168 35.1577 123.168 35.1013C123.168 34.9886 122.644 35.045 122.644 35.214C122.644 35.2704 122.644 35.2704 122.644 35.3267C122.644 35.4394 123.168 35.3831 123.168 35.214C123.168 33.4673 123.343 31.6643 123.401 29.9176C123.343 29.7486 122.877 29.8613 122.877 30.0303Z" fill="#EA931F"/>
<path d="M124.218 32.005C124.859 32.1177 125.675 31.8923 125.442 31.1035C125.442 31.0471 125.383 31.0471 125.325 31.0471C125.034 30.9908 124.742 30.9908 124.451 31.0471C124.393 31.0471 124.218 31.1035 124.218 31.2162C124.101 31.7796 123.926 32.4558 124.684 32.7375C125.092 32.9065 125.85 32.8502 125.966 32.3431C126.025 32.174 125.5 32.2867 125.442 32.3994C125.325 32.7938 124.801 32.3994 124.684 32.174C124.509 31.836 124.626 31.4416 124.684 31.1035C124.626 31.1598 124.509 31.2162 124.451 31.2725C124.626 31.2162 124.801 31.2725 124.975 31.2725C124.917 31.2725 124.917 31.2162 124.859 31.2162C124.917 31.3289 124.975 31.5542 124.859 31.7233C124.742 31.836 124.567 31.7796 124.451 31.7796C124.393 31.7233 123.926 31.9487 124.218 32.005Z" fill="#EA931F"/>
<path d="M125.383 29.6924C125.558 30.7066 125.966 31.6645 126.374 32.6223C126.374 32.6787 126.491 32.735 126.549 32.735C126.724 32.735 126.899 32.7914 127.132 32.735C127.423 32.735 127.54 32.397 127.19 32.397C127.015 32.397 126.899 32.397 126.724 32.397C126.782 32.4533 126.841 32.4533 126.899 32.5097C126.549 31.5518 126.083 30.5939 125.908 29.5797C125.85 29.4107 125.325 29.5234 125.383 29.6924Z" fill="#EA931F"/>
<path d="M126.957 29.3545C126.957 30.5378 127.248 31.6083 127.482 32.7352C127.54 32.8479 127.773 32.8479 127.831 32.7916C127.948 32.7352 128.181 32.6789 128.356 32.6225C128.706 32.5098 128.414 32.2281 128.123 32.3408C127.89 32.4535 127.831 32.4535 127.598 32.5098C127.715 32.5098 127.831 32.5662 127.948 32.5662C127.715 31.4393 127.423 30.4251 127.423 29.2418C127.482 29.0728 126.957 29.1855 126.957 29.3545Z" fill="#EA931F"/>
<path d="M128.764 31.2704C129.405 31.3831 130.046 31.1013 129.871 30.3688C129.871 30.3125 129.813 30.3125 129.755 30.3125C129.405 30.3125 128.997 30.3689 128.764 30.7069C128.589 31.045 128.589 31.4394 128.647 31.7775C128.647 31.7775 128.647 31.8338 128.705 31.8338C129.23 32.0029 129.929 32.0592 130.279 31.5521C130.337 31.4957 130.279 31.4394 130.221 31.4394C130.104 31.4394 129.988 31.4394 129.929 31.4394C129.813 31.4394 129.347 31.6084 129.58 31.6648C129.696 31.6648 129.755 31.6648 129.871 31.6648C129.871 31.6084 129.813 31.6084 129.813 31.5521C129.696 31.6648 129.638 31.7211 129.463 31.7211C129.405 31.7211 129.23 31.7211 129.172 31.6648C129.113 31.6084 129.113 31.3831 129.113 31.2704C129.113 31.1013 129.172 30.5379 129.405 30.5379C129.347 30.5379 129.347 30.4815 129.288 30.4815C129.288 30.5942 129.347 30.7633 129.288 30.8759C129.23 31.045 129.172 31.045 128.997 30.9886C128.939 31.045 128.472 31.2704 128.764 31.2704Z" fill="#EA931F"/>
<path d="M118.797 39.2138C122.003 38.9884 125.092 37.9179 128.298 37.6361C128.472 37.6361 128.822 37.3544 128.531 37.4108C125.325 37.6925 122.236 38.763 119.031 38.9884C118.856 38.9884 118.448 39.2138 118.797 39.2138Z" fill="#EA931F"/>
<path d="M119.38 42.652C123.052 42.3703 126.549 40.6236 130.162 39.7784C130.454 39.722 130.396 39.4403 130.104 39.4967C126.607 40.3418 123.052 42.0322 119.497 42.3139C119.147 42.3703 119.03 42.7083 119.38 42.652Z" fill="#EA931F"/>
<path d="M119.962 46.0897C123.867 45.8644 127.772 45.6953 131.444 44.174C131.794 44.0613 131.444 43.9486 131.269 44.0613C127.772 45.5263 123.926 45.6953 120.196 45.8644C120.021 45.8644 119.613 46.0897 119.962 46.0897Z" fill="#EA931F"/>
<path d="M119.73 50.1463C119.614 50.8224 119.788 52.0057 120.721 51.9493C121.887 51.8366 121.828 50.5971 121.653 49.8082C121.595 49.6392 121.129 49.7519 121.129 49.9209C121.187 50.259 121.42 51.7803 120.663 51.6113C120.138 51.4422 120.138 50.4844 120.196 50.09C120.255 49.9209 119.73 49.9773 119.73 50.1463Z" fill="#EA931F"/>
<path d="M122.469 49.4717C122.353 50.1478 122.294 50.8239 122.353 51.5001C122.353 51.6691 122.819 51.5564 122.877 51.3874C122.936 50.993 122.819 50.6549 122.761 50.2605C122.702 49.9788 122.761 48.8519 123.402 49.2463C123.693 49.4153 123.635 50.0351 123.635 50.3168C123.635 50.6549 123.577 50.993 123.635 51.331C123.635 51.5001 124.159 51.3874 124.159 51.2184C124.101 50.5422 124.567 48.9082 123.343 48.9082C122.819 48.9082 122.353 49.1899 122.294 49.697C122.178 50.2605 122.469 50.8803 122.411 51.4437C122.586 51.3874 122.761 51.3874 122.936 51.331C122.877 50.6549 122.936 50.0351 123.052 49.359C122.994 49.1899 122.469 49.2463 122.469 49.4717Z" fill="#EA931F"/>
<path d="M125.5 50.5981C125.5 50.9361 125.383 51.2742 125.033 51.4433C125.15 51.4433 125.208 51.4433 125.325 51.3869V51.2742C125.325 51.1615 124.8 51.2742 124.8 51.3869C124.8 51.4996 124.742 51.556 124.917 51.556C125.092 51.556 125.325 51.4433 125.441 51.3869C125.791 51.1615 125.966 50.8235 125.966 50.4291C125.966 50.3727 125.5 50.4854 125.5 50.5981Z" fill="#EA931F"/>
<path d="M128.997 48.2857C127.656 47.8349 127.19 49.2436 127.132 50.2578C127.132 50.2578 127.132 50.2578 127.19 50.2578C127.89 50.4832 128.764 50.4268 128.939 49.5816C129.113 48.6238 128.705 47.6659 128.88 46.708C128.88 46.5954 128.414 46.6517 128.356 46.8207C128.181 47.6659 128.531 48.5111 128.472 49.3562C128.472 49.638 128.239 50.6522 127.715 50.1451C127.365 49.8634 127.89 48.2294 128.472 48.4547C128.705 48.5111 129.055 48.2857 128.997 48.2857Z" fill="#EA931F"/>
<path d="M129.58 48.9059C130.046 49.0185 130.687 48.9622 130.862 48.4551C131.037 47.948 130.512 47.7226 130.046 47.779C129.93 47.779 129.755 47.8353 129.696 47.948C129.58 48.3988 129.055 49.2439 129.696 49.582C130.221 49.8637 131.037 49.5257 131.328 49.0186C131.445 48.8495 130.92 48.9059 130.862 49.0186C130.629 49.3566 129.988 49.582 129.93 49.0186C129.871 48.6241 130.104 48.2297 130.221 47.8917C130.104 47.948 129.988 48.0043 129.871 48.0607C130.104 48.0607 130.396 48.117 130.396 48.3988C130.396 48.6241 130.221 48.7932 129.988 48.6805C129.871 48.6241 129.755 48.6805 129.638 48.7368C129.58 48.7932 129.463 48.9059 129.58 48.9059Z" fill="#EA931F"/>
<path d="M131.27 47.7232C130.979 48.4556 131.562 49.2445 132.378 49.0754C133.252 48.9064 133.194 48.0612 133.194 47.3287C133.194 47.2724 132.669 47.3287 132.669 47.4414C132.669 47.6668 132.669 47.9485 132.669 48.1739C132.669 48.343 132.611 48.7937 132.378 48.8501C132.145 48.9064 131.853 48.512 131.795 48.3429C131.678 48.1176 131.678 47.8358 131.737 47.5541C131.795 47.5541 131.27 47.6105 131.27 47.7232Z" fill="#EA931F"/>
<path d="M133.368 47.3857C134.067 47.6674 134.417 48.3436 134.942 48.8507C135.058 48.9634 135.524 48.7943 135.408 48.6816C134.883 48.1745 134.534 47.4984 133.776 47.2167C133.659 47.104 133.193 47.3294 133.368 47.3857Z" fill="#EA931F"/>
<path d="M135.174 47.1029C134.358 47.779 133.601 48.5115 133.018 49.3567C132.843 49.582 133.367 49.582 133.484 49.413C134.067 48.6242 134.766 47.948 135.524 47.3282C135.757 47.0465 135.349 46.9338 135.174 47.1029Z" fill="#EA931F"/>
<path d="M136.574 48.6246C136.515 49.1881 136.107 49.5825 135.699 49.9205C135.641 49.9769 135.758 50.0332 135.816 50.0332C135.933 50.0332 136.049 49.9769 136.166 49.9205C136.574 49.5261 136.982 49.1317 137.098 48.5683C137.098 48.4556 136.574 48.5119 136.574 48.6246Z" fill="#EA931F"/>
<path d="M138.031 45.357C137.915 46.0895 137.507 47.2728 137.915 48.0053C138.206 48.456 138.847 48.456 139.313 48.5124C139.547 48.5687 139.838 48.2306 139.488 48.1743C138.964 48.1179 138.439 48.1179 138.323 47.5545C138.148 46.8784 138.439 46.0332 138.556 45.3007C138.556 45.0753 138.089 45.1317 138.031 45.357Z" fill="#EA931F"/>
<path d="M137.972 46.5411C138.263 46.5975 138.555 46.6538 138.846 46.7101C138.963 46.7101 139.079 46.7101 139.196 46.6538C139.254 46.6538 139.371 46.5411 139.254 46.5411C138.963 46.4848 138.671 46.4284 138.38 46.3721C138.263 46.3721 138.147 46.3721 138.03 46.4284C137.972 46.4284 137.855 46.5411 137.972 46.5411Z" fill="#EA931F"/>
<path d="M139.896 46.2584C139.779 46.8782 139.779 47.498 139.779 48.1742C139.779 48.2305 140.246 48.1742 140.304 48.0615C140.421 47.3853 140.187 46.7655 140.362 46.0894C140.246 46.1457 140.129 46.2021 140.013 46.2021C140.362 46.1457 140.654 46.3711 140.654 46.7092C140.654 46.8219 140.479 46.9909 140.479 47.0473C140.421 47.1036 140.421 47.1036 140.595 47.0473C140.537 47.0473 140.537 47.0473 140.479 46.9909C140.421 46.9346 140.304 46.8782 140.246 46.8219C140.071 46.8782 139.954 46.9346 139.779 46.9909C140.421 47.0473 140.712 47.6107 141.12 48.0615C141.236 48.1742 141.644 47.9488 141.644 47.9488C141.237 47.498 140.945 46.8782 140.246 46.8219C140.187 46.8219 139.721 46.8782 139.779 46.9909C140.129 47.329 140.829 47.329 141.12 46.8782C141.47 46.2584 140.77 46.0331 140.304 46.0894C140.246 46.0894 139.954 46.1457 139.954 46.2021C139.779 46.8782 140.013 47.5544 139.896 48.1742C140.071 48.1178 140.246 48.0615 140.421 48.0615C140.421 47.4417 140.479 46.8219 140.537 46.1457C140.362 46.1457 139.896 46.1457 139.896 46.2584Z" fill="#EA931F"/>
<path d="M142.751 45.8649C142.285 45.7522 141.76 45.9212 141.586 46.372C141.411 46.7664 141.411 47.3298 141.644 47.6679C141.994 48.1187 142.576 48.2314 143.043 47.8369C143.392 47.4989 143.451 46.8791 143.509 46.4283C143.217 46.3156 142.984 46.1466 142.751 45.8649C142.693 45.7522 142.227 45.9776 142.285 46.0339C142.46 46.2593 142.635 46.372 142.868 46.541C142.984 46.6537 142.984 46.71 142.984 46.8791C142.984 46.9918 142.926 47.0481 142.926 47.1608C142.868 47.3298 142.81 47.4989 142.751 47.6679C142.693 47.7242 142.635 47.8369 142.576 47.8933C142.518 47.9496 142.635 47.8933 142.576 47.8933C142.518 47.8933 142.46 47.8369 142.402 47.7806C142.052 47.5552 141.935 47.2735 141.935 46.8791C141.935 46.71 141.935 46.4847 141.994 46.3156C141.994 46.2593 142.052 46.2029 142.11 46.0902C142.168 45.9775 142.168 45.9776 142.285 45.9776C142.46 46.0902 142.926 45.9212 142.751 45.8649Z" fill="#EA931F"/>
<path d="M143.509 45.6955C143.392 46.3717 143.392 46.9914 143.567 47.6676C143.626 47.8366 144.092 47.6676 144.092 47.5549C143.917 46.8788 143.975 46.3153 144.033 45.6392C144.092 45.4701 143.567 45.5265 143.509 45.6955Z" fill="#EA931F"/>
<path d="M145.316 45.4131C144.617 45.5258 144.442 45.9765 144.384 46.5963C144.384 46.5963 144.384 46.6527 144.442 46.6527C144.733 46.709 144.967 46.709 145.258 46.709C145.433 46.709 145.549 46.709 145.549 46.8781C145.549 46.9908 145.491 47.1598 145.433 47.2725C145.549 47.2161 145.724 47.1598 145.841 47.1034C145.491 47.1034 145.2 47.1034 144.908 47.1598C144.85 47.1598 144.617 47.2161 144.559 47.2725C144.5 47.3288 144.617 47.3852 144.675 47.3852C144.967 47.3288 145.258 47.3288 145.549 47.3288C145.666 47.3288 145.899 47.3288 145.957 47.1598C146.016 46.9908 146.074 46.7654 146.074 46.54C146.074 46.54 146.074 46.4836 146.016 46.4836C145.783 46.4273 145.025 46.4836 144.908 46.3146C144.85 46.1456 145.025 45.5821 145.2 45.5258C145.433 45.5821 145.666 45.4131 145.316 45.4131Z" fill="#EA931F"/>
<path d="M144.151 44.7949C143.859 44.8513 143.51 44.964 143.685 45.302C143.743 45.4147 144.209 45.2457 144.209 45.1893C144.209 45.133 144.151 45.133 144.151 45.0766C144.151 44.964 144.151 44.964 144.034 45.0203C144.267 44.964 144.501 44.7949 144.151 44.7949Z" fill="#EA931F"/>
<path d="M122.41 54.5982C121.536 54.4292 120.662 54.3728 120.37 55.387C120.079 56.4013 121.07 56.6266 121.944 56.683C122.061 56.683 122.294 56.6266 122.294 56.5139C122.352 55.8942 122.935 55.1617 122.41 54.5982C122.352 54.4855 121.944 54.5982 121.944 54.7673C122.002 55.2744 122.177 55.7251 122.294 56.2322C122.41 56.7393 122.41 57.1901 122.41 57.6972C122.41 57.8662 122.935 57.7535 122.935 57.5845C122.935 57.0774 122.935 56.5703 122.818 56.1195C122.702 55.6124 122.468 55.1617 122.41 54.5982C122.294 54.6546 122.119 54.7109 121.944 54.7673C122.352 55.2744 121.886 56.0068 121.769 56.5139C121.886 56.4576 122.002 56.4013 122.119 56.3449C121.594 56.3449 120.895 56.2886 120.837 55.6688C120.837 55.387 120.953 54.9363 121.186 54.7673C121.419 54.5982 121.769 54.7673 122.061 54.8236C122.235 54.9363 122.702 54.6546 122.41 54.5982Z" fill="#EA931F"/>
<path d="M122.936 54.5419C122.877 55.1053 122.877 56.0632 123.635 56.0632C124.043 56.0632 124.451 55.8378 124.509 55.4998C124.626 55.1053 124.451 54.7673 124.393 54.3729C124.334 54.1475 123.81 54.2602 123.868 54.4855C123.926 54.7109 124.043 54.9926 124.043 55.218C124.043 55.4434 123.985 55.7815 123.693 55.6688C123.344 55.5561 123.402 54.7673 123.46 54.4855C123.46 54.2602 122.994 54.3165 122.936 54.5419Z" fill="#EA931F"/>
<path d="M125.034 53.9783C125.034 53.922 125.034 53.7529 125.151 53.7529C125.209 53.7529 125.325 53.8656 125.384 53.8656C125.442 53.9783 125.5 54.091 125.559 54.2037C125.617 54.4854 125.675 54.7672 125.733 55.0489C125.733 55.1616 126.2 55.0489 126.258 54.9362C126.316 54.5418 125.908 54.0347 125.5 54.091C124.976 54.091 124.684 54.5418 124.626 54.9925C124.51 55.4433 124.743 55.7814 125.267 55.6687C125.675 55.6123 126.141 55.2743 126.316 54.8798C126.375 54.8235 125.85 54.8235 125.792 54.9925C125.733 55.1616 125.442 55.556 125.325 55.4996C125.034 55.4433 125.151 54.9362 125.209 54.7672C125.267 54.6545 125.267 54.5418 125.384 54.4291C125.384 54.3727 125.442 54.3164 125.5 54.26C125.325 54.3727 125.442 54.3727 125.5 54.4291C125.675 54.5981 125.85 54.8798 125.792 55.1052C125.967 55.0489 126.141 54.9925 126.316 54.9925C126.2 54.5981 126.2 53.8093 125.733 53.6403C125.325 53.5276 124.626 53.6966 124.626 54.1474C124.568 54.2037 125.034 54.1474 125.034 53.9783Z" fill="#EA931F"/>
<path d="M126.141 52.9072C126.083 53.6397 126.141 55.9499 127.482 55.0484C127.773 54.8793 127.365 54.7103 127.132 54.823C126.724 55.1047 126.608 53.0763 126.608 52.7946C126.666 52.6255 126.141 52.7382 126.141 52.9072Z" fill="#EA931F"/>
<path d="M127.307 53.5264C127.249 53.9772 127.54 54.3152 127.598 54.766C127.657 54.9914 128.123 54.8223 128.123 54.6533C128.065 54.3716 127.423 53.8081 127.715 53.5264C127.831 53.4137 128.239 53.3574 128.298 53.5827C128.356 53.8645 127.773 53.8081 127.598 53.8081C127.482 53.8081 127.249 54.0335 127.482 54.0899C127.89 54.2025 128.181 54.5406 128.531 54.766C128.706 54.8787 129.114 54.6533 128.939 54.4843C128.589 54.2025 128.239 53.8645 127.773 53.7518C127.715 53.8645 127.715 53.9208 127.657 54.0335C127.89 53.9772 128.123 54.0899 128.414 53.9772C128.589 53.9208 128.764 53.7518 128.822 53.5264C128.88 53.0756 128.356 53.0193 128.006 53.0756C127.715 53.132 127.19 53.301 127.132 53.6391C127.074 54.0899 127.54 54.3152 127.598 54.7096C127.773 54.6533 127.948 54.597 128.123 54.597C128.065 54.2025 127.773 53.8645 127.831 53.4701C127.89 53.2447 127.365 53.3574 127.307 53.5264Z" fill="#EA931F"/>
<path d="M126.199 53.6394C126.374 53.6394 126.549 53.6958 126.724 53.6958C126.84 53.6958 127.307 53.5268 127.073 53.4704C126.899 53.4704 126.724 53.4141 126.549 53.4141C126.432 53.4141 125.966 53.6394 126.199 53.6394Z" fill="#EA931F"/>
<path d="M129.114 53.7523C129.405 53.8086 129.755 53.9213 130.104 53.8086C130.454 53.6959 130.454 53.3578 130.454 53.0198C130.454 52.9634 130.396 52.9634 130.337 52.9634C129.638 52.7944 128.822 53.1888 129.055 53.9776C129.288 54.8228 130.279 54.6538 130.804 54.203C131.037 54.034 130.512 54.034 130.396 54.1467C130.221 54.2594 130.104 54.4284 129.871 54.3157C129.696 54.203 129.58 54.034 129.58 53.8649C129.522 53.6959 129.522 53.5269 129.638 53.3578C129.755 53.1888 129.93 53.2451 130.104 53.3015C130.046 53.3015 130.046 53.2452 129.988 53.2452C129.988 53.3578 129.988 53.4705 129.93 53.5832C129.93 53.6396 129.871 53.6959 129.93 53.6959C129.813 53.7522 129.58 53.6396 129.405 53.5832C129.288 53.4142 128.88 53.6396 129.114 53.7523Z" fill="#EA931F"/>
<path d="M131.853 53.9768C131.853 54.1458 131.853 54.5966 131.62 54.6529C131.561 54.7093 131.445 54.7656 131.503 54.8783C131.561 54.991 131.736 54.9346 131.853 54.8783C132.319 54.7093 132.319 54.3712 132.377 53.9204C132.377 53.7514 131.911 53.8077 131.853 53.9768Z" fill="#EA931F"/>
<path d="M134.359 52.2874C133.951 52.2311 133.484 52.2311 133.309 52.6255C133.193 52.9072 133.076 53.358 133.135 53.696C133.309 54.4285 134.65 54.2595 134.825 53.6397C134.883 53.4143 134.359 53.527 134.3 53.696C134.242 53.8651 134.009 53.8651 133.834 53.8087C133.659 53.7524 133.601 53.5833 133.601 53.4143C133.601 53.2453 133.659 53.0199 133.717 52.8509C133.717 52.7945 133.776 52.6818 133.834 52.6255C133.892 52.5691 134.125 52.6255 134.184 52.6255C134.359 52.6255 134.708 52.2874 134.359 52.2874Z" fill="#EA931F"/>
<path d="M134.766 52.2883C134.708 52.7391 134.766 53.1335 134.825 53.5842C134.825 53.6969 135.349 53.5842 135.349 53.4715C135.291 53.0771 135.233 52.6827 135.291 52.2883C135.291 52.0629 134.825 52.1193 134.766 52.2883Z" fill="#EA931F"/>
<path d="M136.224 53.6412C136.224 53.4721 135.991 52.6269 136.283 52.6269C136.458 52.6269 136.516 52.9087 136.574 52.965C136.632 53.1341 136.749 53.3031 136.865 53.4721C137.04 53.6412 137.507 53.4158 137.332 53.2467C137.099 53.0214 137.099 52.7396 136.924 52.5143C136.749 52.2889 136.516 52.2325 136.224 52.2889C135.467 52.4579 135.7 53.1341 135.7 53.6975C135.758 53.9229 136.283 53.8102 136.224 53.6412Z" fill="#EA931F"/>
<path d="M138.263 51.8929C137.797 51.8365 137.447 52.1746 137.331 52.569C137.214 53.1325 137.622 53.4142 138.147 53.4142C138.263 53.4142 138.438 53.3579 138.496 53.2452C138.671 52.8508 138.846 52.5127 138.729 52.0619C138.671 51.8365 138.205 52.0056 138.205 52.1746C138.38 52.9634 138.613 53.865 138.438 54.7101C138.38 54.9355 138.904 54.8792 138.963 54.6538C139.137 53.8086 138.904 52.8507 138.729 52.0056C138.555 52.0619 138.38 52.1183 138.205 52.1183C138.321 52.4563 138.147 52.7944 138.03 53.1325C138.147 53.0761 138.263 53.0198 138.38 52.9634C138.088 52.9634 137.855 52.8507 137.855 52.569C137.855 52.4563 137.913 52.0619 138.147 52.1183C138.321 52.231 138.613 51.9492 138.263 51.8929Z" fill="#EA931F"/>
<path d="M140.42 52.4C140.42 52.6254 140.42 52.9635 140.245 53.1325C140.07 53.3579 140.536 53.4706 140.653 53.2452C140.828 52.9635 140.886 52.6254 140.886 52.3437C140.944 52.1183 140.478 52.1746 140.42 52.4Z" fill="#EA931F"/>
<path d="M143.393 49.8647C142.81 49.6957 141.994 50.1465 142.285 50.8226C142.518 51.3297 143.159 50.879 143.509 51.1043C143.801 51.3861 143.451 51.6678 143.218 51.7805C142.868 51.8932 142.635 51.8932 142.752 51.4424C142.81 51.217 142.285 51.2734 142.227 51.4987C142.11 51.9495 142.344 52.1749 142.81 52.1749C143.218 52.1749 143.684 51.9495 143.975 51.6678C144.267 51.3861 144.209 50.9353 143.859 50.7663C143.626 50.6536 143.334 50.7099 143.101 50.7099C142.985 50.7099 142.926 50.7099 142.868 50.5972C142.751 50.3718 142.868 50.0338 143.159 50.0901C143.276 50.2592 143.684 49.9774 143.393 49.8647Z" fill="#EA931F"/>
<path d="M144.267 50.654C144.208 51.0484 144.15 51.3865 144.267 51.7809C144.325 51.95 144.849 51.8373 144.791 51.6682C144.675 51.3302 144.791 50.9921 144.791 50.654C144.849 50.3723 144.325 50.485 144.267 50.654Z" fill="#EA931F"/>
<path d="M144.384 50.0332C144.384 50.3149 144.5 50.4276 144.85 50.4276C144.908 50.4276 145.2 50.3713 145.2 50.2586C145.2 50.0896 145.2 50.0332 145.083 49.9205C144.967 49.8078 144.5 49.9769 144.617 50.0896C144.675 50.1459 144.733 50.2022 144.733 50.3149C144.85 50.2586 144.967 50.2023 145.083 50.1459C144.967 50.1459 144.908 50.0896 144.967 49.9205C144.908 49.7515 144.384 49.8642 144.384 50.0332Z" fill="#EA931F"/>
<path d="M145.258 50.4284C145.724 50.5411 146.074 50.8791 146.482 51.1045C146.657 51.2172 147.123 50.9918 146.89 50.8228C146.482 50.5411 146.074 50.203 145.608 50.0903C145.316 50.0339 144.967 50.372 145.258 50.4284Z" fill="#EA931F"/>
<path d="M146.19 50.2588C146.132 50.5405 145.957 50.7659 145.782 50.9913C145.607 51.2167 145.432 51.4984 145.199 51.6111C144.908 51.7801 145.199 52.0055 145.433 51.8365C145.724 51.6674 145.957 51.3857 146.19 51.104C146.423 50.8223 146.598 50.4842 146.715 50.1461C146.773 49.9771 146.248 50.0898 146.19 50.2588Z" fill="#EA931F"/>
<path d="M121.654 61.8084C125.209 61.4703 128.589 59.949 132.145 59.3855C134.826 58.9348 137.565 58.5404 140.246 58.0333C140.537 57.9769 140.479 57.6952 140.188 57.7515C137.332 58.315 134.476 58.7094 131.62 59.2165C128.298 59.78 125.092 61.2449 121.712 61.583C121.479 61.5267 121.304 61.8647 121.654 61.8084Z" fill="#EA931F"/>
<path d="M122.236 65.2452C126.141 64.9635 130.046 64.231 133.893 63.4985C137.448 62.8224 141.295 62.3153 144.675 60.9067C145.025 60.794 144.675 60.6813 144.5 60.7376C141.003 62.2026 136.982 62.7097 133.252 63.3859C129.696 64.062 126.083 64.7381 122.411 65.0199C122.295 65.0199 121.945 65.2452 122.236 65.2452Z" fill="#EA931F"/>
<path d="M172.376 8.44054C171.933 12.3318 171.885 20.9684 173.472 22.1175L182.246 20.8875L182.238 20.8315C185.454 20.0378 187.555 16.9999 187.036 13.7008L186.059 7.49383C185.505 3.97098 182.132 1.52916 178.519 2.03564L177.888 2.12407C174.677 2.57428 172.351 5.30071 172.376 8.44054Z" fill="#2F1A70"/>
<path d="M183.433 13.002C184.542 11.19 185.198 9.09725 184.679 6.93806C183.213 0.676505 174.487 3.31141 173.23 6.74564C171.972 10.1799 173.496 18.2639 175.866 18.5088C176.813 18.6067 178.319 18.029 180.126 16.5782L180.574 25.0091L187.813 24.0095L183.433 13.002Z" fill="#E4DAEA"/>
<path d="M181.302 12.1476C181.512 15.7199 182.252 19.6754 183.434 20.4816L192.213 19.2511C191.427 10.8999 187.166 14.7559 185.934 6.9246C185.603 6.68512 185.272 6.44564 184.95 6.2621L184.915 6.03835C182.891 3.23485 180.76 1.98992 178.407 2.31965C174.907 2.81023 174.063 4.5293 173.308 6.06446C174.366 8.31734 177.173 8.26694 179.82 9.43949C180.072 9.17552 180.399 9.01539 180.8 8.9591C181.718 8.83042 182.579 9.45307 182.72 10.3481C182.86 11.2431 182.229 12.0748 181.311 12.2035C181.368 12.1955 181.368 12.1955 181.302 12.1476Z" fill="#2F1A70"/>
<path d="M174.117 11.4707C174.223 11.3986 174.395 11.3745 174.577 11.4063C174.7 11.4462 174.767 11.4942 174.833 11.5421C174.917 11.7021 174.886 11.8782 174.722 11.9583C174.616 12.0304 174.453 12.1106 174.329 12.0707C174.09 12.0469 174.055 11.8229 174.029 11.6549C173.962 11.6069 174.06 11.4788 174.117 11.4707Z" fill="#2F1A70"/>
<path d="M173.166 12.2334C173.346 12.2652 174.111 14.8977 174.181 15.3445C173.952 15.3766 173.103 15.5529 172.856 15.4733C172.478 15.2981 172.588 14.8831 172.659 14.5878C172.8 13.9972 172.594 12.3137 173.166 12.2334Z" fill="#E4DAEA"/>
<path d="M175.482 10.7697C175.398 10.6089 175.256 10.4562 175.066 10.3678C174.876 10.2795 174.694 10.2475 174.464 10.2799C174.291 10.3042 174.061 10.3365 173.897 10.4171C173.733 10.4977 173.578 10.6346 173.489 10.8197C173.653 10.7391 173.826 10.7148 173.999 10.6905C174.171 10.6662 174.286 10.6501 174.459 10.6258C174.632 10.6015 174.756 10.6416 174.929 10.6173C175.119 10.7056 175.292 10.6813 175.482 10.7697Z" fill="#2F1A70"/>
<path d="M174.512 17.457C174.676 17.3768 174.897 17.2886 175.051 17.1524C175.206 17.0162 175.361 16.88 175.515 16.7438C175.825 16.4714 176.068 16.1511 176.179 15.7348L175.799 15.5591C175.662 15.8073 175.401 16.0156 175.074 16.176C174.747 16.3363 174.42 16.4967 174.084 16.601C174.446 16.6647 174.848 16.6083 175.242 16.4959C175.635 16.3836 175.953 16.1672 176.188 15.7908L175.808 15.6151C175.679 15.9193 175.494 16.2316 175.308 16.5439C175.007 16.8723 174.764 17.1927 174.512 17.457Z" fill="#2F1A70"/>
<path d="M182.617 74.4893C177.954 74.4893 172.009 75.5035 164.782 77.5882C169.387 80.6872 174.341 82.2085 179.703 82.2085C185.065 82.2085 191.417 81.1943 198.819 79.2222C192.7 76.0106 187.279 74.4893 182.617 74.4893Z" fill="#583F93"/>
<path d="M175.332 99.7877C174.457 105.366 172.068 114.719 170.961 118.1C170.261 120.241 166.356 119.001 166.764 117.311C167.172 115.677 168.688 92.6883 170.028 85.4761C170.145 81.0249 172.184 58.3742 172.884 54.7118L190.543 52.458C189.669 57.2473 177.721 84.4619 177.138 86.8848C177.08 86.9974 177.08 87.1101 177.022 87.2228C176.731 89.871 176.148 94.5477 175.332 99.7877Z" fill="#E4DAEA"/>
<path d="M172.067 117.649C171.893 117.367 171.485 117.311 171.193 117.48C170.435 117.931 169.853 118.156 169.386 118.213C168.804 118.269 168.104 118.213 167.113 117.931L166.414 116.86C166.297 116.748 166.123 116.691 166.006 116.748L158.488 120.974C157.846 121.143 157.089 121.312 156.156 121.593C155.224 121.819 155.049 122.551 155.69 123.847C166.531 122.439 172.242 121.706 172.883 121.65C172.942 120.692 172.883 119.959 172.825 119.452C172.825 119.058 172.534 118.494 172.067 117.649C172.067 117.706 172.067 117.706 172.067 117.649Z" fill="#8479C9"/>
<path d="M186.697 100.463C186.813 106.097 186.114 115.62 185.647 119.113C185.356 121.31 181.218 120.691 181.335 118.944C181.451 117.254 178.887 94.3775 178.945 87.0527C178.246 82.6014 176.322 60.0071 176.322 56.2883L193.341 51.499C193.341 56.3447 186.347 84.8552 186.172 87.3907C186.172 87.5034 186.114 87.6161 186.114 87.7288C186.289 90.4334 186.522 95.1663 186.697 100.463Z" fill="#F0E8F5"/>
<path d="M186.58 118.551C186.347 118.325 185.939 118.325 185.706 118.495C185.065 119.002 184.482 119.34 184.074 119.452C183.549 119.621 182.792 119.621 181.801 119.509L180.927 118.551C180.81 118.438 180.635 118.438 180.519 118.551L173.816 123.791C173.233 124.073 172.476 124.354 171.602 124.692C170.727 125.031 170.669 125.819 171.543 127.003C182.034 124.073 187.571 122.495 188.154 122.326C188.037 121.368 187.862 120.636 187.688 120.129C187.571 119.847 187.221 119.283 186.58 118.551Z" fill="#8479C9"/>
<path d="M198.936 79.1648C188.154 74.2628 175.215 82.8835 164.782 77.8688C165.715 63.2755 170.96 59.5004 173.117 50.0345C179.295 48.1187 185.88 48.1187 192.816 50.0345C197.712 55.7816 202.025 72.2907 198.936 79.1648Z" fill="#6753A5"/>
<path d="M160.703 43.4432L150.853 39.6681C146.598 40.0625 144.559 39.9498 144.675 39.3864C144.908 38.4848 146.132 38.7102 146.424 38.0904C146.657 37.527 145.258 36.2874 143.917 35.2168C142.577 34.1463 143.451 33.9209 144.034 33.9209C146.074 34.3717 148.289 35.2732 150.736 36.5691L162.918 38.1468L160.703 43.4432ZM209.893 65.4177C210.359 66.2629 213.623 68.9111 215.838 70.4324C216.771 71.0522 216.363 71.7847 216.013 72.0101C213.215 73.7004 211.409 71.7283 208.961 70.6014C206.338 69.4182 206.513 72.7989 204.415 71.841C205.056 70.4324 206.571 67.8405 205.872 66.1502C205.58 65.4177 201.675 56.966 194.332 40.9077H201.093C206.338 56.0644 209.31 64.2345 209.893 65.4177Z" fill="#E4DAEA"/>
<path d="M181.451 31.8929C178.77 47.4441 165.773 53.1349 150.97 51.3319L153.068 36.6822C168.921 39.105 176.031 31.9492 177.313 20.5676L182.617 20.2295C182.734 23.6665 182.151 27.8924 181.451 31.8929Z" fill="#EA931F"/>
<path d="M185.24 18.707H185.764C197.596 29.0182 205.289 43.6115 208.961 62.487H192.758C192.642 58.9373 192.467 55.4439 192.176 52.0632H170.553C172.826 42.2592 177.197 33.8075 177.197 20.5101L185.24 18.707Z" fill="#F9AA38"/>
<path d="M192.175 52.0625H187.804C189.028 47.7239 189.319 41.3569 188.795 33.0742C190.543 39.0468 191.592 45.3574 192.175 52.0625Z" fill="#EA931F"/>
<path d="M14.1769 124.065H38.0686L41.2391 161.175H5.62793L14.1769 124.065Z" fill="#F0E8F5"/>
<path d="M14.1769 124.065H21.5369L25.9529 161.175H5.62793L14.1769 124.065Z" fill="black" fill-opacity="0.1"/>
<path d="M63.5446 115.087C62.1858 117.276 58.8455 123.406 55.3354 130.631C53.2972 134.845 50.6363 142.07 47.4658 152.251L51.5421 154.057C58.9021 142.618 64.3372 133.806 67.9606 127.566C67.7341 129.427 67.5643 131.397 67.3378 133.422C66.6584 140.373 67.3378 155.37 67.6775 159.694C67.904 162.431 71.7539 161.719 72.0935 159.53C72.4332 157.341 79.2837 122.914 79.2837 115.689C79.2837 112.952 72.9428 110.708 70.3951 114.047C68.3003 112.569 65.3563 112.186 63.5446 115.087Z" fill="#F0E8F5"/>
<path d="M56.7528 149.734C57.5454 147.709 70.7368 125.432 73.3411 118.536C74.4734 115.525 65.0753 109.231 61.735 114.431L47.751 146.504L56.7528 149.734Z" fill="#ADA8D4"/>
<path d="M75.1522 112.133C69.6038 111.312 58.0543 109.944 40.3903 107.864H19.7822C20.1219 119.851 24.5379 126.145 35.1816 125.762C42.5417 125.488 67.1694 121.931 67.7922 122.204C68.0752 122.314 67.3392 131.673 65.5842 150.283L75.5485 150.611C75.5485 148.586 79.6814 127.24 79.6814 118.154C79.6814 115.636 78.6623 112.681 75.1522 112.133Z" fill="#D6CDE4"/>
<path d="M66.6606 160.188C66.8305 159.86 67.2268 159.696 67.6231 159.86C68.529 160.298 69.265 160.462 69.8311 160.462C70.4539 160.462 71.3031 160.243 72.3788 159.75L73.0016 158.327C73.0582 158.163 73.2847 158.054 73.4545 158.163L82.7394 162.159C83.4754 162.268 84.4379 162.378 85.5136 162.542C86.6459 162.651 86.929 163.582 86.4194 165.224C73.8508 165.224 67.1702 165.224 66.4342 165.224C66.2077 164.02 66.0945 163.144 66.0945 162.542C66.0379 161.995 66.2077 161.228 66.6606 160.188C66.604 160.188 66.6606 160.188 66.6606 160.188Z" fill="#8479C9"/>
<path d="M46.8451 150.556C47.1848 150.392 47.6377 150.501 47.8076 150.83C48.2605 151.705 48.7134 152.307 49.1097 152.636C49.6193 153.019 50.4119 153.347 51.5442 153.621L52.903 152.909C53.0728 152.8 53.2993 152.909 53.3559 153.074L58.055 161.776C58.5645 162.324 59.2439 162.98 60.0365 163.747C60.8292 164.513 60.4895 165.389 59.0175 166.374C49.1664 158.821 43.9577 154.825 43.335 154.387C43.9577 153.347 44.4107 152.581 44.807 152.088C45.2033 151.651 45.826 151.158 46.8451 150.556C46.7885 150.611 46.8451 150.556 46.8451 150.556Z" fill="#8479C9"/>
<path d="M28.2744 79.3478H36.7667L35.3514 69.4958C37.6726 70.8094 39.8806 71.4662 40.9563 71.1925C43.6172 70.5357 43.8437 61.1216 41.8055 57.4545C39.7674 53.7326 29.1803 52.1453 28.6707 59.4796C28.5009 62.0521 29.5766 64.2961 31.2184 66.1571L28.2744 79.3478Z" fill="#F0E8F5"/>
<path d="M38.1263 58.0006C41.8629 58.0553 42.3159 57.3985 42.3159 55.2092C41.6931 54.7713 39.5983 54.1145 37.2205 53.8956C35.9749 53.5672 34.5595 53.6219 33.1442 54.1693C31.4457 54.6619 30.2568 55.045 29.1811 56.9606C26.8599 60.8467 28.7848 65.4991 31.1626 66.8674C31.7854 66.1559 32.3515 65.4443 32.8611 64.7875C32.4648 64.4044 32.2383 63.9118 32.2383 63.3097C32.2383 62.1603 33.2008 61.2298 34.3897 61.2298C34.5029 61.2298 34.5595 61.2298 34.6162 61.2298C34.7294 65.2254 35.0125 67.8526 35.4654 69.1115C36.1448 71.0819 40.0512 71.5745 41.4666 71.5745C42.8254 71.5745 42.5989 70.1514 42.5989 69.3851C42.5989 68.9473 41.1835 69.5493 41.1835 68.7283C41.1835 67.9073 42.9952 67.4694 43.3349 66.9768C43.7878 66.3748 43.9011 65.5538 43.2783 65.5538C42.3725 65.5538 40.5608 66.8674 38.466 66.8674C37.0506 66.8674 36.2014 64.6781 35.8617 60.2994C36.4845 59.2595 37.2205 58.4385 38.1263 58.0006Z" fill="#191847"/>
<path d="M41.239 61.0068C40.8993 61.0616 40.7294 61.7184 41.1258 61.8278C41.5787 61.992 41.6353 61.4447 41.5787 61.1163C41.4654 61.0616 41.3522 61.0616 41.239 61.0068Z" fill="#191847"/>
<path d="M42.7691 61.1738C42.8823 61.2286 43.958 64.2389 44.241 64.9505C43.7881 65.5526 43.0521 65.5526 42.4294 65.4978C42.3727 63.9653 42.3161 62.4875 42.8257 61.1738" fill="#F0E8F5"/>
<path d="M39.7673 60.7932C39.654 60.5742 39.7673 60.2458 39.9371 60.0816C40.1069 59.9174 40.3334 59.808 40.5599 59.6985C40.7863 59.6438 41.0128 59.589 41.2959 59.6438C41.5223 59.6985 41.8054 59.7532 41.9753 59.9174C41.7488 59.9722 41.5223 60.0269 41.3525 60.0269C41.126 60.0816 40.9562 60.1364 40.7863 60.1911C40.6165 60.2458 40.39 60.3006 40.2202 60.3553C40.0503 60.4648 39.8805 60.5742 39.7673 60.7932Z" fill="#191847"/>
<path d="M16.8389 118.101H24.7651C23.2364 115.638 22.1607 111.697 21.4813 106.278C19.8395 110.821 18.3109 114.762 16.8389 118.101Z" fill="black" fill-opacity="0.1"/>
<path d="M53.0152 109.395L64.225 113.883C67.3955 117.495 69.1506 118.973 69.5469 118.371C70.113 117.495 68.8675 116.674 69.1506 116.017C69.4336 115.361 71.5284 115.415 73.5666 115.579C75.6047 115.744 74.982 114.868 74.529 114.43C72.4909 113.226 69.8866 112.241 66.8293 111.42L55.5062 103.374L53.0152 109.395ZM7.49635 125.596C6.98681 126.581 3.25018 129.591 0.645873 131.343C-0.373205 132.054 0.0231069 132.93 0.419415 133.149C3.6465 135.064 5.74126 132.82 8.51542 131.562C11.5727 130.193 11.2896 134.079 13.724 133.039C12.988 131.452 11.233 128.442 12.0822 126.471C12.4219 125.596 14.913 118.042 19.4988 103.757L12.0822 103.702C9.70435 116.948 8.17573 124.227 7.49635 125.596Z" fill="#F0E8F5"/>
<path d="M62.81 114.596L66.1503 110.601C52.2229 100.913 47.5238 82.6866 36.1441 73.2178L33.0868 73.7104C32.6339 89.4188 38.6351 111.695 62.81 114.596Z" fill="#6D61AA"/>
<path d="M29.7455 71.8486L37.5585 73.0528C37.5585 87.3928 45.6545 98.23 47.6926 108.301C47.8625 109.177 48.0889 110.928 46.8434 110.928C41.0686 110.928 32.0102 110.928 19.7246 110.928C21.0268 94.2892 23.2914 81.9195 29.7455 71.8486Z" fill="#DDE3E9"/>
<path d="M7.38257 125.269H13.214C14.3463 123.298 15.5918 120.945 16.8374 118.099H38.1814C41.3518 110.381 39.3703 95.0561 32.35 72.0134L29.9155 71.9039C29.6891 71.8492 29.4626 71.8492 29.1795 71.8492C24.3106 71.8492 21.593 69.9883 18.5358 70.9187C15.4786 71.7945 14.4595 74.5859 17.2903 79.5666C17.9697 80.716 18.8755 81.4822 20.0078 81.7559C11.006 93.633 6.81641 108.192 7.38257 125.269Z" fill="#8479C9"/>
<path d="M32.8584 27.2957C32.8584 33.0427 37.048 38.0781 43.5021 41.2527C44.9741 41.9642 44.0116 46.3428 44.2947 47.1091C44.5778 47.8754 50.0129 43.6062 50.9187 43.7704C53.4098 44.3177 56.1273 44.5914 58.9015 44.5914C73.2818 44.5914 84.9446 36.874 84.9446 27.2957C84.9446 17.7174 73.2818 10 58.9015 10C44.5212 10 32.8584 17.7721 32.8584 27.2957Z" fill="#E4DAEA"/>
</svg>
