<svg width="219" height="167" fill="none" xmlns="http://www.w3.org/2000/svg"><path d="M98 64l42-7 3-18V29l-1-20-37 1-3 2-2 6 1 11v18l-1 9-2 8z" fill="#6753A5"/><path d="M140 57h-1l3-12c1-9 1-18-1-30l1-10c1-1 3-3 5-2 2 0 3 3 4 5v1h-1l-3-5-3 2c-2 3-1 6-1 9v30l-3 12z" fill="#fff"/><path d="M104 10l1-1 41-6s3-1 5 6l-42 6-1-2-2-3h-2z" fill="#F0E8F5"/><path d="M151 8l-42 7v1l42-7V8zM102 111l-1-1 7-89c0-1 1-2 2-1l1 1-8 89-1 1z" fill="#8479C9"/><path d="M101 111v-1l8-86-7 86-1 1z" fill="#ADA8D4"/><path d="M123 132l-1-1-2-56 2-1 1 1 1 56-1 1z" fill="#8479C9"/><path d="M123 131h-1l-1-56v-1 1l2 56z" fill="#ADA8D4"/><path d="M165 120l-1-1-9-51 1-1 1 1 9 50-1 2z" fill="#8479C9"/><path d="M165 119h-1l-10-56h1l10 56z" fill="#ADA8D4"/><path d="M109 15l9 61 43-9-10-59-42 7z" fill="#F0E8F5"/><path d="M109 15c0-2-2-5-4-5-2-1-4 1-5 2l-1 10a130 130 0 01-2 41l1 1 3-12V22c0-3-1-7 1-9l3-2c3 1 3 8 3 10l3 15 2 17 2 16 1 6v1h2l-1-6-2-14-3-17-2-15-1-8v-1z" fill="#8479C9"/><path d="M116 22l1 3h-2 3l-1-3h-1zM115 22l3-1-3 1zM119 23l1-1-2 1 1 1 1-1-1 1v-1-1 1h-1 1zM117 27c0 1 0 4 2 3v-1c-2 1-2-2-2-2 0-1 0-1 0 0zM117 28h0zM119 28s0 2 1 1l1-2-1 2-1-1c0-1 0-1 0 0zM118 33l1 2v-2h-1zM118 32h0zM119 31l1 3h1-1l-1-3zM123 30v0zM124 32c1 0 2 0 1-1h-1l1 2 1-1h-1c0 1 0 0 0 0v-1h-1 1v1h-1z" fill="#EA931F"/><path d="M125 30l1 3h1v-1 1l-1-3h-1zM127 29v4h1v-1 1l-1-4zM129 31l1-1-1 1v1h1v-1 1h-1v-1-1 1s-1 0 0 0zM119 39l9-1 1-1-10 2s-1 0 0 0zM119 43l11-3v-1c-3 1-7 3-11 3v1zM120 46c4 0 8 0 11-2 1 0 0 0 0 0-3 2-7 2-11 2zM120 50l1 2 1-2h-1v2l-1-2zM122 49v3l1-1v-1-1l1 1v1c0 1 0 0 0 0s1-2-1-2l-1 1v1h1v-2h-1zM126 51h-1v0l1-1v1zM129 48l-2 2h2v-3h-1v3-2h1zM130 49l1-1h-1v2l1-1h-1v-1 1s-1 0 0 0zM131 48l1 1 1-2v1l-1 1v-1h-1zM133 47l2 2s1 0 0 0l-1-2h-1z" fill="#EA931F"/><path d="M135 47l-2 2c0 1 0 1 0 0l3-2h-1zM137 49l-1 1 1-1c0-1 0 0 0 0zM138 45v3l1 1v-1h-1l1-3h-1z" fill="#EA931F"/><path d="M138 47h1l-1-1v1zM140 46v0l1 1h-1 0l1 1h1l-2-1h1l-1-1v2l1-2h-1zM143 46h-1v2h1l1-2h-1-1l1 1v1h-1v-1-1h1zM144 46v0c0-1 0 0 0 0zM145 45l-1 2h2-1 1v-1h-1v-1zM144 45s1 0 0 0zM122 55h-2l2 2v-2c0-1 0 0 0 0v3h1v-2l-1-1v1h-1v-1h1s1 0 0 0zM123 55l1 1 1-1-1-1v2l-1-2v1zM125 54h1v0l-1 1v1l1-1h-1v-1h1c-1 0-1 0 0 0v0h-1zM126 53c0 1 0 3 1 2 1 0 0 0 0 0v-2h-1z" fill="#EA931F"/><path d="M127 54l1 1v-1c0-1 0-1 0 0h-1l2 1v-1h-1 1l-1-1-1 1 1 1v-2l-1 1zM126 54h1v-1l-1 1zM129 54h1v-1l-1 1h1v-1 1h-1c0-1 0 0 0 0zM132 54v1s-1 0 0 0v-1zM134 52l-1 1v1h1v-1-1zM135 52v0zM136 54v-1h1c0 1 1 0 0 0l-1-1v2z" fill="#EA931F"/><path d="M138 52l-1 1h1l1-1h-1v3h1v-3h-1v0s1 0 0 0zM140 52v1h1v-1h-1zM143 50l-1 1h2l-1 1v-1h-1l1 1h1v-1h-1v-1s1 0 0 0zM144 51v1h1v-1h-1zM144 50h0zM145 50l1 1h1l-1-1h-1z" fill="#EA931F"/><path d="M146 50v1l-1 1 1-1 1-1h-1zM122 62l10-3 8-1c1 0 0 0 0 0l-8 1-10 3c-1 0-1 0 0 0zM122 65l12-2 11-2-12 2a98 98 0 01-11 2z" fill="#EA931F"/><path d="M172 8l1 14 9-1c3-1 6-4 5-7l-1-7c0-3-4-5-7-5h-1c-3 1-6 3-6 6z" fill="#2F1A70"/><path d="M183 13c2-2 2-4 2-6-2-6-11-4-12 0-1 3 0 11 3 12l4-2 1 8 7-1-5-11z" fill="#E4DAEA"/><path d="M181 12l2 8 9-1c-1-8-5-4-6-12l-1-1c-2-3-4-4-7-4-3 1-4 3-5 4 1 2 4 2 7 3h1l2 1-2 2zM174 11h1v1h-1v-1z" fill="#2F1A70"/><path d="M173 12l1 3h-1c-1 0 0 0 0 0v-3z" fill="#E4DAEA"/><path d="M175 11v-1h-1l-1 1h2zM175 17a193 193 0 001-1h-1l-1 1 1-1h1l-1 1z" fill="#2F1A70"/><path d="M183 74c-5 0-11 2-18 4 4 3 9 4 15 4l19-3c-6-3-12-5-16-5z" fill="#583F93"/><path d="M175 100l-4 18c-1 2-5 1-4-1l3-32 3-30 18-3-14 35-2 13z" fill="#E4DAEA"/><path d="M172 118l-1-1-2 1h-2l-1-1-8 4-2 1v2a1666 1666 0 0117-5l-1-1z" fill="#8479C9"/><path d="M187 100l-1 19c-1 2-5 2-5 0l-2-32-3-31 17-5-7 36v1l1 12z" fill="#F0E8F5"/><path d="M187 119l-1-1-2 1-2 1-1-1c0-1 0-1 0 0l-7 5-2 1v2a2875 2875 0 0016-7l-1-1z" fill="#8479C9"/><path d="M199 79c-11-5-24 4-34-1 1-15 6-18 8-28 6-2 13-2 20 0 5 6 9 22 6 29z" fill="#6753A5"/><path d="M161 43l-10-3-6-1 1-1-2-3v-1l7 3 12 1-2 5zm49 22l6 5v2c-3 2-5 0-7-1-3-2-2 2-5 1 1-2 3-4 2-6l-12-25h7l9 24z" fill="#E4DAEA"/><path d="M181 32c-2 15-15 21-30 19l2-14c16 2 23-5 24-16l6-1-2 12z" fill="#EA931F"/><path d="M185 19h1c12 10 19 25 23 43h-16l-1-10h-21c2-10 6-18 6-31l8-2z" fill="#F9AA38"/><path d="M192 52h-4l1-19c2 6 3 12 3 19z" fill="#EA931F"/><path d="M14 124h24l3 37H6l8-37z" fill="#F0E8F5"/><path d="M14 124h8l4 37H6l8-37z" fill="#000" fill-opacity=".1"/><path d="M64 115a217 217 0 00-17 37l5 2 16-26-1 5 1 27c0 2 4 2 4 0 0-3 7-37 7-44 0-3-6-5-9-2-2-1-5-2-6 1z" fill="#F0E8F5"/><path d="M57 150l16-31c1-3-8-10-11-5l-14 33 9 3z" fill="#ADA8D4"/><path d="M75 112l-35-4H20c0 12 5 18 15 18l33-4-2 28 10 1c0-2 4-24 4-33 0-2-1-5-5-6z" fill="#D6CDE4"/><path d="M67 160h5l1-2 10 4 3 1v2H66v-2l1-3zM47 151h1l1 2 3 1 1-1 5 9 2 2c1 1 0 1-1 2l-16-12 2-2 2-1z" fill="#8479C9"/><path d="M28 79h9l-2-10 6 2c3 0 3-10 1-14-2-3-13-5-13 2l2 7-3 13z" fill="#F0E8F5"/><path d="M38 58c4 0 4-1 4-3l-5-1h-4l-4 3c-2 4 0 8 2 10l2-2-1-2 2-2h1v8c1 2 5 3 6 3 2 0 2-2 2-3h-2l2-2v-1l-5 1c-1 0-2-2-2-7l2-2z" fill="#191847"/><path d="M41 61v1l1-1h-1z" fill="#191847"/><path d="M43 61l1 4h-2l1-4" fill="#F0E8F5"/><path d="M40 61v-1h0v1z" fill="#191847"/><path d="M17 118h8c-2-2-3-6-4-12l-4 12z" fill="#000" fill-opacity=".1"/><path d="M53 109l11 5c3 3 5 5 6 4l-1-2h5c2 0 1-1 1-2l-8-3-11-8-3 6zM7 126l-6 5-1 2c4 2 6 0 9-1 3-2 2 2 5 1-1-2-3-5-2-7l7-22h-7l-5 22z" fill="#F0E8F5"/><path d="M63 115l3-4c-14-10-18-28-30-38l-3 1c0 15 6 38 30 41z" fill="#6D61AA"/><path d="M30 72l8 1c0 14 8 25 10 35l-1 3H20c1-17 3-29 10-39z" fill="#DDE3E9"/><path d="M7 125h6l4-7h21c3-8 1-23-6-46h-2-1c-5 0-7-2-10-1-4 1-5 4-2 9l3 2c-9 12-13 26-13 43z" fill="#8479C9"/><path d="M33 27c0 6 4 11 11 14v6c1 1 6-3 7-3l8 1c14 0 26-8 26-18 0-9-12-17-26-17s-26 8-26 17z" fill="#E4DAEA"/></svg>