<svg width="198" height="175" fill="none" xmlns="http://www.w3.org/2000/svg"><path d="M22.262 144.645l3.273 7.825 29.701 5.064-11.487 10.415-30.892-9.322-1.488-5.063 8.928-10.703 1.965 1.784z" fill="#093509"/><path d="M32.915 156.844l2.321.863c.179.057.298.287.179.46-.357.863-1.31 3.222-.953 5.294.298 1.726 1.072 3.337 1.608 4.201.238.402.119.978-.298 1.266-.476.345-1.19.172-1.488-.346-.833-1.611-2.083-5.063-.952-9.494.119-.576 0-1.151-.477-1.611l-.238-.231c-.06-.057-.119-.172-.06-.23 0-.172.18-.23.358-.172z" fill="#095411"/><path d="M37.081 154.602c.06-.173.06-.346 0-.461-.06-.172-.119-.403-.238-.518l.179-1.496c.06-.633-.06-1.208-.417-1.726l-1.31-2.014-.357.057s.12.806.357 1.899c.358 0 .655.288.715.633a.703.703 0 01-.476.806c.06.403.178.863.238 1.323h-.179c-.06 0-.119.058-.179.058-.059-.46-.178-.863-.238-1.323-.357-.058-.654-.288-.714-.633a.703.703 0 01.476-.806c-.178-1.093-.357-1.899-.357-1.899l-.357.058-.536 2.359a3.082 3.082 0 00.179 1.784l.714 1.381c-.06.172-.06.402-.06.575 0 .173.12.345.18.46l-.715 2.187 1.31.518.595-2.014v-.058h.178c.06 0 .12-.057.179-.057v.057l1.25 1.727 1.071-.921-1.488-1.956z" fill="#25B759"/><path d="M39.284 155.751l-1.845 1.611c-.179.115-.179.345 0 .518.654.69 2.32 2.589 2.738 4.718.297 1.726.119 3.51-.06 4.488-.06.461.238.921.714 1.094.595.172 1.19-.23 1.25-.806.238-1.784.238-5.466-2.38-9.264-.358-.518-.358-1.094-.12-1.669l.179-.345c.06-.058.06-.173 0-.23-.12-.173-.357-.231-.476-.115zM35.91 155.041a.75.75 0 00.63-.863.771.771 0 00-.893-.61.75.75 0 00-.631.863c.072.407.472.68.893.61z" fill="#095411"/><path d="M68.331 146.777l-8.214 2.819c-.357.115-.535.518-.416.806l1.547 4.143h.06c.357.172 2.5 1.266 3.155 1.669l1.904 1.035a.598.598 0 00.536.058l4.702-1.611c.655-.23 1.012-.921.774-1.554l-2.44-6.617a1.272 1.272 0 00-1.608-.748zm2.56 7.365l-2.322.806c-.773.23-1.547-.115-1.845-.863l-1.25-3.395c-.238-.749.12-1.497.893-1.784l2.322-.806 2.202 6.042z" fill="#137F3A"/><path d="M32.736 159.724L59.7 150.46l1.547 4.143s3.512 1.784 3.333 1.841c-.178.058-1.19 2.705-1.19 2.705l-.774-.921-.595 1.094-.834-.864-.416 1.151-.893-.92-.536 1.208-.833-.978-.536 1.093-.892-.863-.477 1.208-.773-1.035-.477 1.265-.892-1.035-.477 1.208-.892-.921-.477 1.094-.892-.921-.536 1.208-.774-.978-.476 1.094-.833-.806-.595 1.093-.834-.863-.476 1.093-.833-.92-.655 1.208-.714-.921-.476 1.266-.953-.92-.476 1.151-.893-.921-.536 1.208-.833-.92-.595 1.208-.774-.921-.476 1.094-.893-.864-.476 1.094-.833-.863-.476 1.093-.834-.863-.654.978-.715-.633-1.369-3.683z" fill="#25B759"/><path d="M61.703 151.009a.456.456 0 00.289-.588.48.48 0 00-.608-.279.457.457 0 00-.289.588.48.48 0 00.608.279zM62.717 153.709a.455.455 0 00.288-.587.48.48 0 00-.608-.279.455.455 0 00-.288.587.48.48 0 00.608.279z" fill="#093509"/><path d="M20.298 142.861L9.346 155.405l38.39 7.135 8.274-13.752-35.712-5.927zm25.832 17.378l-32.856-5.985 7.619-8.976 31.189 5.351-5.952 9.61z" fill="#137F3A"/><path d="M9.346 155.408l2.38 11.508 37.499 7.481-1.488-11.854-38.391-7.135z" fill="#14662A"/><path d="M56.01 148.792l-8.274 13.753 1.488 11.853 10.119-3.625 2.916-10.127-6.25-11.854z" fill="#095411"/><path d="M5.298 151.954c-1.071-4.028 2.262-6.56 2.262-6.56l1.726-1.208a.394.394 0 01.357 0c.476.23 1.072.173 1.548-.115.476-.345.714-.863.595-1.381 0-.115.06-.23.119-.345l1.548-1.094c.119-.057.238-.057.297.058l1.786 2.417c.06.115.06.23-.06.287l-1.547 1.094a.394.394 0 01-.357 0c-.476-.23-1.072-.173-1.548.115-.06 0-.06.057-.119.057-.536.461-.595 1.324-.178 1.899l.357.461 5.535 7.365-3.393-.633-4.047-5.466-.595-.806c-2.203-.633-3.453 2.417-3.929 3.798-.06.23-.357.23-.357.057z" fill="#4ED875"/><path d="M1.547 67.42l46.01-7.365 2.38-19.68.477-11.105-1.31-22.499L8.928 7.979l-3.929 2.475-1.964 6.732 1.25 11.681.476 11.164-.476 9.091-.893 9.15-1.845 9.149z" fill="#16994A"/><path d="M47.557 60.058l-1.547-.345c0-.057 2.143-8.689 2.738-13.35 1.19-9.091 1.13-19.334-.06-32.281v-.23c-.297-3.395-.714-7.25 1.072-10.473 1.012-1.784 3.035-3.395 5.238-2.762 2.38.69 3.392 3.74 4.047 5.754.06.23.119.46.238.633l-1.547.518c-.06-.173-.12-.403-.239-.633-.535-1.669-1.369-4.258-2.976-4.718-1.25-.346-2.619.748-3.333 2.014-1.547 2.82-1.19 6.214-.893 9.552v.23c1.25 13.004 1.25 23.362.06 32.569-.595 4.776-2.679 13.177-2.798 13.522z" fill="#fff"/><path d="M7.143 7.925l1.666-.46L53.57.386s3.87-1.094 5.655 6.617l-46.01 7.365c-.06 0-.953-2.877-1.131-3.222-.476-1.036-1.31-1.956-2.262-2.647-.833-.518-1.726-.518-2.678-.575z" fill="#83E59C"/><path d="M59.061 6.424l-45.993 7.62.121.68 45.993-7.62-.12-.68z" fill="#137F3A"/><path d="M5.475 119.444h-.119c-.774-.058-1.31-.691-1.25-1.439l8.333-97.88c.06-.747.714-1.265 1.488-1.208.774.058 1.31.69 1.25 1.439l-8.333 97.88c-.06.69-.655 1.208-1.369 1.208zM28.63 142.286c-.773 0-1.369-.576-1.369-1.324l-1.607-61.167c0-.749.596-1.381 1.37-1.381.773 0 1.428.575 1.428 1.323l1.607 61.168c0 .748-.655 1.381-1.429 1.381zM74.52 128.422c-.654 0-1.25-.46-1.369-1.093L62.973 72.433c-.119-.748.357-1.439 1.131-1.554.774-.115 1.488.346 1.607 1.094l10.178 54.895c.12.748-.357 1.439-1.13 1.554h-.239z" fill="#14662A"/><path d="M13.154 14.367l9.702 66.576 47.141-9.897L59.164 6.77l-46.01 7.596z" fill="#83E59C"/><path d="M13.154 14.37c-.536-2.302-1.726-5.64-4.226-6.387-2.202-.633-4.226 1.036-5.238 2.762-1.785 3.222-1.428 7.078-1.071 10.473v.23c1.25 12.89 1.25 23.19.06 32.281C2.082 58.39.058 66.619 0 66.676l1.488.748c.06-.345 2.202-8.746 2.798-13.522 1.19-9.207 1.19-19.565-.06-32.57v-.23c-.298-3.337-.655-6.79.893-9.552.714-1.266 2.083-2.359 3.333-2.014 3.571 1.036 3.63 8.344 4.047 11.394l2.322 15.709c.952 6.387 1.905 12.832 2.857 19.22.833 5.523 1.666 11.047 2.44 16.571.357 2.59.595 4.086.953 6.675l.119 1.209 1.488.633c-.298-2.13-.596-4.258-.953-6.388-.774-5.12-1.488-10.3-2.262-15.421-.892-6.272-1.845-12.544-2.738-18.874-.833-5.582-1.607-11.106-2.44-16.687-.417-2.935-.714-5.927-1.31-8.862.239-.115.18-.23.18-.345z" fill="#137F3A"/><path d="M18.75 33.416c.12-.115.239-.115.358-.115.06 0 .06.057.06.057l-.06.116c-.06 0-.179 0-.358-.058 0 .058 0 0 0 0zM40.299 35.085c-.179.115-.357.23-.476.288l-1.072.69c-.595.403-1.19.806-1.845 1.209l-.178.172c-.06.058-.12.115-.179.115-.06 0-.06-.115-.119-.172-.119-.633-.238-1.209-.357-1.842 0-.115-.06-.172-.06-.287h-.059v.287c.178.921.357 1.9.536 2.82.119.518.238.978.297 1.496.12.518.238 1.036.298 1.554.06.287.119.575.178.92 0 .115-.06.173-.178.173-.12 0-.179.057-.12.173.06.46.18.978.239 1.438v.345c-.06-.23-.12-.402-.179-.633-.06-.345-.119-.633-.178-.978v-.172c0-.115-.06-.173-.179-.115-.178.057-.238 0-.297-.23-.06-.461-.179-.979-.239-1.44-.178-.805-.297-1.61-.476-2.358-.119-.633-.297-1.324-.416-1.957-.06-.403-.179-.748-.238-1.15a.43.43 0 00-.12-.23h-.059v.23c.12.632.238 1.208.417 1.84.06.173-.06.346-.298.403l-1.786.346c-.119 0-.238.057-.416.115 0 .115 0 .23.06.345.178.863.356 1.784.535 2.647.12.575.238 1.15.357 1.726.06.23 0 .288-.238.288-.298.058-.297.058-.238.345.06.23.06.403.06.633l.178.69c.06.173.06.346.12.576h-.06c-.06-.115-.06-.172-.12-.288-.059-.517-.178-.978-.238-1.496-.06-.402-.06-.402-.535-.345-.298.058-.357 0-.357-.23-.12-.633-.239-1.324-.358-1.957-.118-.633-.238-1.208-.357-1.84-.119-.461-.238-.922-.297-1.382-.12-.69-.298-1.323-.238-2.014.06-.518 0-.978-.06-1.496 0-.115-.06-.173-.178-.115-.536.115-1.072.23-1.607.288-.179.057-.239.115-.179.287.119.346.298.69.417 1.036l.178.863c.179.978.417 1.957.595 2.935.179.805.358 1.669.477 2.474.06.403.178.806.297 1.209.06.287-.06.345-.297.402-.298 0-.298 0-.238.288v.23c-.06-.115-.06-.172-.06-.23-.06-.288-.06-.288-.417-.23-.119 0-.297.115-.416 0-.06-.058-.12-.115-.12-.173-.178-.863-.357-1.783-.535-2.647-.238-1.093-.417-2.244-.655-3.337-.06-.345-.119-.69-.238-.978-.179-.46-.179-.921-.238-1.381 0-.288-.119-.346-.417-.288-.476.058-.952.172-1.428.23-.12 0-.179 0-.298.058-.06 0-.06.057-.06.057l.06.058c.06.057.12.115.12.172l.356 1.9c.12.632.298 1.265.417 1.84l.536 2.59.357 1.726c.06.173.06.288.119.46.06.116 0 .23-.12.23-.118 0-.237.058-.416.058.06.69.238 1.439.357 2.13h-.119c-.06-.403-.178-.749-.238-1.151-.06-.288-.119-.518-.119-.806 0-.115-.06-.23-.238-.173-.06 0-.119.058-.179.058-.297.057-.416.057-.476-.288-.06-.46-.178-.978-.238-1.438-.06-.46-.178-.863-.297-1.324-.179-.92-.358-1.899-.596-2.82-.178-.748-.297-1.496-.476-2.244-.119-.46-.178-.92-.297-1.438 0-.115 0-.173.119-.23.178-.058.178-.115.178-.288-.06-.403-.06-.403-.476-.288-.476.058-.893.173-1.369.23-.238.058-.297 0-.357-.23-.06-.345-.119-.748-.179-1.093-.06-.173-.119-.23-.357-.173a12.24 12.24 0 01-1.547.288c-.12 0-.357.115-.357-.057-.06-.173.178-.173.357-.173.535-.115 1.071-.173 1.607-.288.119 0 .178-.115.178-.23-.06-.403-.178-.806-.238-1.208v-.346s.06-.057.12-.057c.595-.115 1.13-.23 1.726-.288.178 0 .238-.115.178-.23-.06-.173-.06-.288-.119-.46-.06-.23 0-.46.119-.633-.06-.058-.119-.058-.238-.116.178 0 .238-.115.357 0h.06c.773-.172 1.607-.287 2.38-.46.179-.057.358-.115.477.115.06.058.238.115.297.058.12-.058.238-.173.298-.23.06-.116.119-.23.238-.23l.893-.173c.416-.058.833-.173 1.25-.23.119 0 .238.057.297.115.12.115.298.23.477.115.119-.058.238-.115.178-.288-.119-.46-.178-.863-.238-1.323-.12-.69-.238-1.381-.357-2.072-.06-.173-.06-.403-.12-.575-.059-.173 0-.23.18-.288.535-.115 1.13-.23 1.666-.345.297-.058.476 0 .536.345l.357 1.726c.06.288.119.518.178.748 0 .058.06.115.12.115.238 0 .238-.057.297-.172.178.115.357.057.476 0 .06 0 .06-.115.06-.115-.06-.346-.12-.633-.179-.979-.119-.575-.238-1.093-.357-1.668-.06-.173 0-.23.178-.173.477.115.953.173 1.429.288.357.057.714.115 1.131.172.417.058.893.116 1.31.23l.535.173c.179.058.417.058.595.058l1.965.345h.06c.475.058.475.058.535.518 0 .172 0 .345.06.518.059.23.118.46.237.633.12.115.238.287.536.23.357-.115.714-.115 1.071-.173.179 0 .358-.115.477-.23.06-.115.06-.23.06-.345 0-.288-.06-.288.237-.345.655-.116 1.25-.23 1.905-.346.357-.057.714-.172 1.071-.23.357-.057.655-.115 1.012-.172.179-.058.357-.058.536-.116.06 0 .178 0 .238.058.178.115.417.23.595.403.06 0 .06.057.12.115.118.748.237 1.496.416 2.244 0 .173.119.23.297.173.12-.058.298-.058.417-.058.179 0 .298-.115.417-.288.119-.172.178-.345.357-.46.178-.115.357-.115.535-.173.358-.057.655-.115 1.012-.172.179-.058.357-.173.477-.288.178-.288.357-.403.714-.46.833-.115 1.666-.288 2.5-.46.119 0 .178-.058.238-.058.119 0 .178.057.238.115l-.179.173c-.297.057-.654.115-.952.172-.476.115-1.012.173-1.488.288l-.06.057.12.116c.059.057.178.115.238.172.06.058 0 .115.06.173h-.18c-.178-.058-.416-.173-.595-.23-.178-.058-.297-.058-.416.115-.06.115-.179.23-.298.345-.06.058-.119.058-.178.058-.417.057-.774.172-1.19.23.118.23.237.345.475.287.12 0 .238-.057.357-.057.06 0 .238.057.238.115.06.115-.06.173-.119.173 0 0-.06 0-.06.057.18.058.298.173.477.23.357.115.655.23 1.012.288h.238c.833-.173 1.726-.288 2.56-.46.238-.058.535-.115.773-.115.06 0 .238.057.238.057.06.115-.06.173-.178.173a54.168 54.168 0 00-2.976.575c-.06 0-.12 0-.179.058-.238.057-.476.115-.714-.058-.357-.23-.774-.23-1.25-.057-.238.057-.536.115-.833.172-.12 0-.239 0-.298-.057-.179-.115-.357-.288-.536-.345-.119-.058-.238-.058-.416-.058-.12 0-.298.058-.417.058-.238.057-.238.057-.238.287.119.46.178.92.297 1.439v.172c0 .116.06.23.239.173.178-.057.238 0 .238.173.119.748.297 1.438.416 2.186.12.518.179.979.298 1.496.06.346.178.748.238 1.094.12.575.238 1.093.298 1.668.06.403.178.806.238 1.209.119.633.297 1.266.416 1.899 0 .115 0 .172-.119.172-.119.058-.297.058-.476.115.179.748.298 1.554.476 2.302-.06.058-.178.115-.178-.058-.06-.46-.179-.978-.238-1.438-.06-.23-.12-.518-.179-.748 0-.058-.06-.058-.119-.058-.119 0-.297.058-.417.058-.297-.23-.238-.576-.297-.92l-.357-1.9c-.179-.92-.358-1.784-.536-2.704a9.744 9.744 0 00-.298-1.266c-.06-.345-.119-.633-.178-.978-.06-.23-.12-.518-.179-.748v-.346c-.238.058-.535.058-.773.116-.239.057-.536.115-.774.172-.179 0-.238.115-.12.23.18.23.18.46.239.748.119.633.238 1.266.357 1.842l.357 1.899c.119.69.298 1.38.476 2.014.12.575.238 1.208.357 1.783.06.173-.119.46-.297.46-.12.058-.12.116-.12.23.12.634.239 1.324.358 1.957v.173c0-.058-.06-.058-.06-.115-.119-.46-.178-.978-.238-1.439-.06-.23-.06-.46-.119-.69 0-.058-.119-.058-.178-.058-.179 0-.358.058-.477-.057-.06-.058-.06-.115-.06-.173-.059-.345-.118-.633-.178-.978-.119-.46-.178-.92-.297-1.381-.06-.288-.12-.576-.12-.806-.059-.403-.178-.805-.237-1.208l-.358-1.726c-.119-.518-.238-1.036-.297-1.554-.06-.23 0-.518 0-.806v-.23c-.476.115-.953.173-1.429.288-.416.057-.476.057-.535-.403-.06-.403-.179-.46-.596-.403-.119 0-.238 0-.357.058-.357.057-.654.172-1.012.172-.238.058-.238.23-.297.403 0 .115 0 .173.06.288 0 .057.059.057.118.057h.477c.178 0 .238.058.297.23.12.288.238.576.417.864.178.288.238.633.297.978.179.748.298 1.439.417 2.187.179.92.357 1.783.536 2.704.119.633.238 1.209.357 1.841.06.23-.06.346-.238.346-.06 0-.12.057-.179.115-.119 0-.238-.058-.297-.058-.179 0-.298-.057-.298-.23-.178-.92-.417-1.899-.595-2.82-.238-1.15-.476-2.359-.714-3.51-.06-.345-.12-.633-.239-.92 0-.115-.059-.115-.178-.058-.298.173-.655.346-.952.576-.358.23-.774.518-1.131.748-.12.057-.12.172 0 .23.119.058.297.115.416.172.06 0 .06.058.12.116l.356 2.071c.12.576.179 1.209.298 1.784.12.46.179.92.298 1.381l.178.863c0 .115-.06.23-.178.23l-1.072.173c-.238.058-.238 0-.297-.23-.12-.748-.298-1.439-.417-2.187-.119-.633-.238-1.266-.417-1.841-.06-.403-.178-.748-.238-1.151 0-.058 0-.115.06-.115.119-.288.297-.633.416-.92.12-.058.12-.116.06-.231.06.057.06 0 0 0zm-5.952-11.336v.115c.06.46.178.863.238 1.324.06.402.178.748.238 1.15 0 .058-.06.173-.119.173-.179.058-.179.173-.119.288 0 .115.06.23.06.403.059.402.178.805.238 1.208.119.575.238 1.15.297 1.726 0 .058.12.115.179.115.119 0 .297-.057.416-.057.06 0 .12 0 .179.057-.06.058-.06.115-.12.173-.059.058-.178 0-.237.058-.298.057-.298.057-.238.345.06.345.119.748.238 1.093.06.403.178.806.297 1.209.12.575.179 1.15.298 1.668.12.748.298 1.439.476 2.187.06.172.12.23.238.115.417-.23.774-.518 1.19-.748l1.072-.69c.298-.173.536-.403.833-.576.536-.345 1.131-.69 1.667-1.093.298-.173.536-.403.833-.576.238-.115.298-.287.238-.518l-.535-2.589c-.06-.345-.12-.69-.238-1.093-.417.057-.834.172-1.25.23-.477.115-.953.172-1.488.287-.06 0-.12-.057-.179-.057.06-.057.06-.115.12-.115.118-.058.237-.058.297-.058.535-.115 1.071-.172 1.607-.287.238-.058.476-.115.714-.115l-.357-1.9c0-.057-.06-.114-.179-.172-.238-.115-.297-.288-.357-.46-.06-.115-.06-.288-.06-.46-.059-.346-.118-.691-.178-.979 0-.057-.06-.115-.119-.172-.536-.116-1.012-.173-1.547-.288-.536-.115-1.072-.173-1.608-.288-.535-.115-1.13-.173-1.666-.288-.238-.057-.417-.057-.655-.115-.178-.115-.416-.172-.714-.23zm11.19 1.784l.238.23c-.12.058-.179.115-.298.115-.416.115-.833.23-1.19.288-.06 0-.06.057-.06.115.06.288.06.575.12.863.059.403.178.748.237 1.151 0 .115.06.173.18.115.178-.058.416-.058.594-.115.06 0 .12 0 .179.057 0 .058 0 .116-.06.173-.06.058-.119.058-.178.058-.238 0-.417.057-.655.057.06.23.06.403.12.633.118.518.237 1.093.356 1.611 0 .173.06.173.179.116.238-.058.416-.116.654-.116.18-.057.358-.057.477-.115.06 0 .119.058.119.115 0 .058-.06.116-.12.116-.356.057-.714.115-1.07.23-.06 0-.12 0-.12.057 0 0-.06.058-.06.115 0 0 .06.058.12.058.595-.115 1.19-.23 1.726-.345.06 0 .06-.058.06-.115 0-.058-.06-.058-.06-.116-.06-.057-.12-.115-.12-.172 0-.058.06-.115.12-.115.595-.115 1.13-.23 1.726-.346.06 0 .179.058.238.115-.06.058-.119.116-.178.116-.298.057-.655.115-1.012.172-.12 0-.238.058-.357.058.06.172.119.23.297.172.417-.057.774-.172 1.19-.23.18-.057.358-.115.655-.172-.06-.116-.119-.173-.178-.23 0-.058-.06-.058-.12-.058 0-.058.06-.058.06-.115.06-.058.06-.173.06-.23 0-.173-.06-.346-.12-.518-.059-.288-.118-.518-.118-.806 0-.115-.06-.23-.238-.172-.06 0-.12 0-.179-.058.06-.058.12-.058.179-.115.06-.058.119-.058.119-.115 0-.115-.06-.288-.06-.403-.238.058-.476.115-.714.115-.06 0-.06.058-.06.058s-.06.057-.06.115c0-.058-.059-.058-.059-.115 0-.058-.06-.173-.06-.23 0-.058.06-.058.12-.116.238 0 .535-.057.774-.057 0-.115 0-.23-.06-.345 0-.116 0-.23-.178-.23 0 0-.06-.116 0-.116.119-.057.119-.23.119-.287-.06-.346-.12-.69-.239-1.036-.059-.173-.059-.288-.119-.46-.119.057-.178.057-.297.115-.238.057-.536.115-.774.172-.357.058-.714.173-1.071.23-.179.058-.179-.057-.179-.172v-.115c-.06.23-.357.287-.595.345zm-21.13 6.963c.06.23.06.402.119.575.119.575.238 1.208.416 1.784.06.23.239.345.417.288.714-.173 1.488-.288 2.202-.46.12 0 .179-.116.179-.231-.06-.345-.119-.69-.179-.978-.06-.46-.178-.863-.297-1.324 0-.115-.12-.172-.238-.115-.06 0-.12-.057-.179-.057l.12-.115c.178-.058.178-.116.178-.288l-.179-.863c-.119-.46-.178-.92-.297-1.381 0-.115-.06-.173-.179-.115l-.893.172c-.357.058-.714.173-1.071.23-.298.058-.417.173-.357.46.06.231.119.519.178.749.06.23 0 .288-.178.403-.06.057-.06.115-.06.172.06.23.12.518.12.748 0 .173.118.23.297.173.238-.058.535-.115.774-.173.119 0 .238 0 .238.115 0 .058-.12.115-.179.115-.238 0-.595.058-.952.116zm9.642 5.178c.298-.057.536-.115.834-.172.119 0 .119-.058.119-.173l-.179-1.036c-.119-.517-.178-.978-.298-1.496-.178-.863-.357-1.668-.476-2.532-.06-.46-.178-.863-.297-1.323 0-.115-.06-.173-.179-.173-.536.115-1.071.23-1.607.288-.178 0-.178.115-.178.23.059.403.119.806.238 1.266l.357 1.899c.119.518.178.978.297 1.496.12.576.238 1.209.357 1.784 0 .115.12.173.239.173.297-.116.535-.173.773-.23zm-5-3.222l1.965-.345c.119 0 .119-.115.119-.23-.12-.748-.298-1.497-.417-2.302-.06-.23-.06-.23-.297-.173-.417.058-.834.173-1.25.23-.06 0-.12-.057-.179-.057.06-.058.119-.115.179-.115h.119c.357-.058.773-.115 1.13-.23.12 0 .179-.058.179-.23a7.9 7.9 0 00-.238-1.151c-.06-.403-.179-.806-.238-1.209 0-.057-.12-.115-.12-.115-.535.058-1.13.173-1.666.288-.178.057-.297.172-.238.345 0 .23.06.403.12.633.118.575.237 1.15.356 1.784.12.633.238 1.323.357 1.956-.06.23 0 .576.12.921zm3.69-3.683c.298-.057.537-.057.834-.115.06 0 .12-.115.12-.115-.12-.46-.18-.978-.298-1.438-.12-.518-.179-.979-.298-1.496-.06-.288 0-.691-.417-.806 0 0-.06-.058-.06-.115-.118-.576-.178-1.151-.297-1.727l-.178-.863c0-.057-.12-.115-.12-.115-.297.058-.595.115-.892.115-.417.058-.417.115-.357.518 0 .115 0 .23.06.288.178.92.356 1.899.535 2.82 0 .115.06.287.06.46-.06.23-.06.403 0 .633.178.69.237 1.438.357 2.129 0 .115.059.173.178.115.238-.23.536-.288.774-.288zm-1.904 12.775c-.119-.69-.238-1.324-.357-2.014-.12-.633-.238-1.266-.357-1.9-.06-.402-.179-.862-.238-1.265-.12-.518-.238-1.093-.357-1.611-.12-.403-.238-.863-.417-1.266 0-.058-.06-.058-.119-.058-.238.058-.476.058-.714.115-.06 0-.12.115-.12.115.06.346.06.69.12.979.119.748.297 1.496.476 2.301.119.69.297 1.381.417 2.072l.357 1.553.178.864c.06.23.06.23.357.172.06 0 .179-.115.179-.115 0-.172-.06-.287-.179-.46-.06-.115-.119-.173-.06-.288.06-.057.18-.057.239-.057.119.057.119.172.06.287-.06.115 0 .288 0 .46.178.116.357.116.535.116-.06 0-.06 0 0 0zm-4.643-.173c.06.345.179.633.238.92 0 .058.06.116.12.058.119 0 .238-.057.357-.115 0 0-.06-.172-.06-.23v-.057c-.06-.058-.06-.116-.119-.173-.178-.058-.119-.173-.119-.23.06-.173.238-.115.298-.058.119 0 .178.173.119.23-.12.173-.06.288-.06.46 0 .116.06.173.179.116.119 0 .119-.058.119-.173-.06-.46-.12-.92-.238-1.38-.12-.634-.238-1.267-.417-1.9-.119-.69-.238-1.38-.417-2.071-.06-.46-.178-.921-.297-1.381-.12-.46-.179-.921-.298-1.381 0-.058-.06-.115-.119-.115-.238 0-.476.057-.714.057-.12 0-.179.058-.179.23.06.346.12.748.179 1.094.178.92.357 1.841.595 2.762l.357 1.898c.298.518.417.979.476 1.44zM50.775 30.77h-.12c-.237.288-.416.633-.654.921v.115c0 .115.06.288.119.403.12.518.238 1.093.298 1.611.119.575.238 1.208.357 1.784.178.805.297 1.611.476 2.417.119.46.178.92.297 1.323 0 .058.06.115.12.115.119 0 .238-.057.238-.115 0-.173.119-.345-.12-.518-.059-.057 0-.172 0-.23.06 0 .18-.057.239 0 .06 0 .06.115.06.23v.518c.416 0 .416 0 .356-.288l-.357-1.726c-.06-.403-.178-.805-.238-1.208-.119-.633-.238-1.209-.357-1.842-.178-.748-.298-1.553-.476-2.301-.06-.403-.12-.806-.238-1.209zm-17.38 11.509c-.06-.23-.06-.403-.12-.576-.059-.402-.119-.805-.238-1.266-.119-.633-.238-1.266-.357-1.84-.119-.691-.238-1.44-.416-2.13-.06-.403-.179-.806-.298-1.208-.06-.403-.06-.403-.476-.346-.12 0-.12.058-.12.173v.575c0 .518 0 .979.06 1.497.12.748.298 1.496.477 2.244.119.518.238 1.093.297 1.61.12.634.238 1.267.417 1.957 0 .115.119.173.238.115.06 0 .178-.057.297-.115-.06-.172-.178-.287-.238-.46v-.23c.12-.058.239-.058.477 0zm13.808-9.667l.179.863c.238 1.036.417 2.071.655 3.165.178.92.357 1.841.535 2.82.06.172.06.344.12.517 0 .058.119.115.178.115.12 0 .238-.057.238-.115.06-.115-.06-.345-.178-.46a.431.431 0 01-.12-.23c.06-.058.12-.173.239-.173.06 0 .178.057.238.115 0 0 .06.115 0 .115-.179.115-.12.288-.06.46 0 .058.06.116.12.116.118 0 .178-.058.118-.173-.06-.288-.119-.633-.178-.978-.12-.69-.298-1.324-.417-2.014-.06-.346-.119-.69-.238-1.094-.06-.345-.119-.69-.238-1.035-.179-.69-.298-1.381-.476-2.072 0-.115-.06-.115-.179-.115-.119.058-.297.115-.535.173zm-6.25 8.056s.06 0 0 0c.06.23.12.402.18.633.059.115.118.23.297.172.238-.057.417-.115.655-.115.178-.057.178-.115.178-.288-.06-.23-.06-.402-.119-.633-.119-.517-.178-1.035-.297-1.496-.06-.172-.06-.345-.06-.517-.06-.23-.06-.46-.119-.691-.06-.345-.179-.748-.238-1.093-.06-.346-.179-.69-.238-1.036 0-.058-.06-.115-.06-.115-.06.057-.119.057-.119.115-.06.057-.06.115-.06.172-.118.403-.297.749-.416 1.151 0 .058-.06.058-.06.115-.059.058-.118.173-.059.23.06.461.179.864.238 1.324.06.69.179 1.381.298 2.072zm-6.428-10.243h.358c.238-.058.238-.058.238-.288-.12-.517-.238-.978-.298-1.496-.06-.345-.119-.748-.178-1.093-.06-.23-.12-.518-.18-.748 0-.115-.059-.173-.237-.173l-.893.173c-.06 0-.119.115-.119.115l.178.863c.12.575.239 1.15.358 1.669.06.287.119.633.178.92 0 .116.06.173.179.116.119 0 .297-.058.416-.058zM45.3 39.919v-.115c-.06-.346-.12-.634-.179-.979-.119-.633-.238-1.266-.357-1.956s-.297-1.381-.416-2.072c-.06-.345-.12-.69-.239-1.035 0-.058-.119-.116-.178-.116-.12 0-.238 0-.357-.057-.12 0-.179 0-.179.172.12.691.298 1.324.417 2.014.06.23.119.403.119.633.06.403.119.864.238 1.266.119.46.178.921.297 1.381l.358 1.554c0 .058.119.115.178.115.06 0 .12-.057.12-.115 0-.115 0-.288-.18-.403a.16.16 0 010-.287c.12 0 .239.057.358 0zm-10.06-5.64c.12-.057.239-.057.417-.057.179 0 .238-.115.179-.288-.06-.288-.12-.633-.238-.92-.06-.346-.12-.749-.238-1.094-.06-.403-.179-.805-.238-1.208 0-.058-.12-.173-.179-.173a29.35 29.35 0 01-.952.173c-.06 0-.12.115-.12.172.06.346.12.633.18.979.178.805.297 1.61.475 2.416 0 .115.12.173.239.115.238-.057.357-.057.476-.115zm8.81-7.595c-.357.057-.714.057-1.012.115-.357.057-.714.172-1.13.23-.06 0-.12.058-.12.115 0 .115 0 .173.06.288.119.46.178.863.297 1.323.06.173.12.23.238.173.476-.115.953-.173 1.429-.288.178-.057.357-.057.595-.115-.12-.633-.238-1.266-.357-1.841zm.774 3.913c-.06-.173-.06-.288-.06-.46-.119-.461-.178-.864-.238-1.324 0-.115-.06-.115-.178-.115-.655.115-1.31.287-1.965.403-.119 0-.119.057-.119.172.12.518.179 1.036.298 1.554 0 .057.06.057.06.115.118-.058.178-.058.237-.058.358-.057.715-.115 1.072-.115.297-.115.535-.287.893-.172zM27.74 33.129l.179.863c0 .115.06.172.238.115a.39.39 0 01.357 0c.119 0 .178 0 .178-.115 0-.173-.06-.403-.06-.576-.059-.46-.178-.92-.237-1.38-.06-.404-.179-.864-.238-1.267-.12-.46-.179-.92-.298-1.38-.06-.173-.06-.23-.238-.116-.12.058-.179.058-.298.058-.178 0-.238.057-.178.23v.115c.06.403.178.863.238 1.266.06.805.178 1.496.357 2.187zm9.285 8.573c-.357-2.129-.833-4.258-1.31-6.387h-.237c-.238 0-.298.058-.238.288.178.748.297 1.438.476 2.186.119.633.238 1.209.416 1.842.12.518.18.978.298 1.496.06.23.12.403.179.575.119-.057.238 0 .416 0zm-13.75-8.976c-.237.057-.475.115-.713.115-.12 0-.179.057-.12.172.06.346.18.748.239 1.094 0 .115.06.172.178.115.476-.115.953-.173 1.429-.288.06 0 .119-.115.119-.115a7.9 7.9 0 00-.238-1.15c0-.058-.12-.116-.179-.116a6.334 6.334 0 01-.714.173zm-.237-1.381l-.714.172c-.06 0-.12.115-.12.173l.18.863c0 .058.118.115.178.115.476-.057.952-.172 1.428-.288.12 0 .179-.057.179-.23-.06-.287-.12-.518-.179-.805 0-.173-.119-.173-.238-.115-.238.057-.476.057-.714.115zm7.32-2.647v.115c.12.575.239 1.208.358 1.784.12.518.12.46.595.402.179 0 .179-.115.179-.23-.06-.46-.179-.863-.238-1.323a3.26 3.26 0 01-.12-.748c-.297.057-.535 0-.773 0zm.715 3.74c.06.288.12.633.179.92 0 .058.06.173.178.116.12-.058.298-.058.417-.058.178 0 .178-.057.178-.172-.059-.23-.118-.46-.118-.69-.06-.404-.18-.864-.239-1.267 0-.115-.06-.115-.178-.115-.12.058-.238.058-.357.058-.179 0-.179.057-.179.23 0 .345.06.633.12.978zm18.809-2.187H50c.06-.115.178-.172.178-.287-.059-.403-.119-.863-.238-1.266 0-.058-.06-.115-.119-.173-.06-.23-.06-.518-.06-.748 0-.057-.118-.115-.178-.057-.06 0-.238 0-.178.172.06.173.06.403.297.518.12.058.12.115 0 .173-.178 0-.119.115-.119.23.06.23.06.403.12.633.059.23.118.518.178.805zm-.357-3.567c-.12 0-.179-.058-.238-.058 0-.057.06-.115.06-.172 0-.058.059-.173.059-.23l-.179-.864c-.06-.23-.178-.287-.416-.287.06.172.06.345.119.517.119.403.06.864.297 1.209v.057c0 .173 0 .346.06.518.06.115.178.058.238.058s.119-.058.119-.115c0-.173-.06-.403-.12-.633zm3.095.92c-.12-.345-.893-.46-1.131-.172.298.403.714.288 1.13.173zm-5.357 4.431c0-.057 0-.115.06-.172-.239.057-.298.115-.179.402.178-.057.357-.057.595-.115.06 0 .12-.057.12-.115-.06-.172 0-.345-.18-.403-.118.115-.178.173-.297.23.12 0 .238.058.298.058v.058c-.12 0-.238 0-.417.057zM28.097 34.74c0 .172 0 .287.06.402 0 .058.06.116.06.173.059-.057.178-.057.178-.115.06-.115.178-.172.297-.115.06 0 .12.057.12.057l.059-.057c-.06-.057-.06-.173-.12-.23 0 0-.118.057-.178.115-.119.058-.178.057-.357.057.06-.115.179-.287-.119-.287zm15.476-1.669v-.115h-.179c-.06.057-.06.115-.06.172 0 .116.06.23.12.23.178.058.357.116.535 0-.06-.23-.238-.057-.416-.114.119-.058.178-.115.297-.173h-.297zm-10.178 9.38c-.239.172-.298.345-.179.517 0 .058.119.058.119.058.06 0 .12-.058.12-.115 0-.173 0-.288-.06-.46zm12.023-2.13c0 .058 0 0 0 0-.06-.057-.06-.115-.12-.172-.059.057-.118.115-.118.172 0 .058 0 .173.06.288 0 .058.118.058.118.058.06 0 .06-.058.12-.116 0-.057-.06-.115-.06-.23zm1.666-15.133c0 .057 0 .057 0 0 .238 0 .536-.058.774-.115v-.058c-.297.115-.535.173-.774.173zM25.062 35.373c-.12-.058-.179-.058-.239-.058s-.119.115-.178.173c.06.057.119.115.178.057.06 0 .12-.115.239-.172zM50.12 31c0-.058 0-.058 0 0-.119 0-.178.057-.238.115 0 .057 0 .115.06.172.059-.057.118-.057.118-.115.06-.057.06-.115.06-.172zm-9.94 5.581h.119c-.179-.23.12-.288.12-.46-.12.057-.239.057-.239.115-.06.115 0 .23 0 .345zm-8.273-2.474c-.18-.115-.417-.058-.477.172.179-.115.298-.115.477-.172zm11.249-1.9l-.06.058c.06.058.06.115.12.115s.119-.057.178-.115c-.06 0-.178-.057-.238-.057zm.12.634c.118-.058.237-.058.356-.115 0-.058 0-.058-.06-.115-.118.057-.178.057-.297.115v.115zm8.51-5.754v-.058c-.059 0-.118-.058-.178-.058s-.119.116-.119.116 0 .057.06.057.119-.057.238-.057zm-15.773 7.768c-.178.115-.059.23 0 .345h.06c-.06-.115-.06-.23-.06-.345zm-10.535.805v-.115c-.06 0-.178-.057-.238-.057 0 0 0 .057-.06.115.12.057.239.057.298.057z" fill="#16994A"/><path d="M58.986 25.995c-1.31.23-2.679.518-3.988.748h-.12v-.058c.18-.057.358-.115.537-.115.833-.172 1.666-.288 2.44-.46.298-.058.655-.173.952-.23.06 0 .12.057.179.057.06 0 0 0 0 .058zM52.319 42.622c-.12-.115-.238-.23-.12-.345.12-.115.358-.173.477-.058.118.115.178.23.059.346.178.172.238.345.119.517-.119.115-.357.173-.476.115-.119-.172-.178-.345-.06-.575zm.06.23c.118.058.178.115.237.115.06-.057.119-.115.119-.172 0-.058-.119-.116-.178-.173-.06.115-.06.172-.179.23zm.297-.46c-.12-.058-.179-.058-.179-.058-.06 0-.06.058-.119.115.06 0 .12.058.179.058 0 0 .06-.057.118-.115zM46.13 43.599c-.06 0-.12.057-.179 0-.237-.058-.297-.058-.237.23a.294.294 0 01.416 0c.119.115.178.288.119.402-.06.115-.179.173-.298.23-.237 0-.357-.172-.416-.517-.06-.288.06-.46.238-.46.119-.115.238-.058.357.115zm-.476.518c.119.057.178.114.297.172 0-.058.06-.172.06-.23 0-.057-.12-.115-.179-.172 0 .057-.06.114-.178.23zM41.963 44.81c.119 0 .178.058.238.058h.238c0-.115.06-.173 0-.288 0-.057-.12-.057-.238-.057-.06 0-.12.057-.238.172v-.632c.178-.058.357-.058.535-.115 0 .057 0 .115.06.172-.12.115-.357 0-.357.23.357-.057.476.058.535.288.06.172-.06.345-.238.402-.297.058-.416 0-.535-.23zM30.832 47.054c.178-.057.297-.057.416-.057 0 .057 0 .115.06.172-.238.058-.476.058-.714.115a1.7 1.7 0 01.238-.46c.06-.115.119-.172.178-.287 0-.058-.06-.115-.06-.23-.059.057-.118.057-.178.115-.06.057-.119.057-.178.115-.06-.23.06-.288.178-.345a.376.376 0 01.417.057c.119.115.119.23.06.345-.239.173-.298.288-.417.46zM37.855 45.959c-.06-.058-.118-.115-.178-.115v-.058c-.119 0-.238.058-.357.058-.119-.23.178-.92.416-.92.06.172.06.287.12.46 0 .057 0 .23.118.23 0 0 .06.115 0 .115 0 .057-.06.115-.119.172v.058zm-.475-.345c.118 0 .178-.058.237-.058 0-.115-.059-.172-.059-.345-.06.173-.119.288-.178.403zM33.57 45.845l.238-.23c.12 0 .238 0 .357.058.06.057.06.172.06.23.06.172.178.287.178.402 0 .115-.119.23-.238.23-.119.058-.238-.057-.357-.057 0 0 0-.058-.06-.115.06 0 .12-.058.18-.058.059 0 .178.058.237.058 0-.058.06-.173.06-.173a.817.817 0 00-.238-.172s.06-.058.06-.115v-.173c-.06 0-.12.058-.18.058-.059 0-.118.057-.178.057-.06.058-.06 0-.119 0zM49.82 43.714h-.179c.06-.288.12-.575.12-.863-.12 0-.239.058-.358.058 0-.058 0-.115-.06-.173.239-.057.417-.057.655-.115v.173c-.06.287-.119.575-.178.92zM26.963 47.28c0-.172.178-.46.357-.46.06.346.119.633.178.978-.06 0-.119.058-.178.058-.06-.23-.12-.46-.12-.69-.059.057-.118.057-.237.115zM53.629 26.97c-.06-.115-.06-.172.06-.23.237-.057.475-.057.713-.057.06 0 .12.057.179.057-.06.058-.12.115-.179.115-.238 0-.476.058-.773.115zM42.2 43.947c-.059-.403-.178-.805-.237-1.15h.06c.059.345.118.747.178 1.15 0-.058 0 0 0 0zM30.713 45.559c.06.172.119.287.178.46-.119 0-.178-.115-.178-.46zM59.522 25.708c.119 0 .179-.058.298-.058 0 0 .06 0 .12.058 0 .057-.06.057-.06.057-.12 0-.18 0-.299.058-.06-.058-.06-.058-.06-.115zM37.797 29.908c-.06.057-.12.115-.179.115a.553.553 0 01-.298.058c-.06 0-.119-.058-.119-.058.06-.058.06-.115.12-.115.178-.058.357-.058.476-.115-.06.057 0 .115 0 .115zM47.975 27.03c.178.058.357.23.297.403a.64.64 0 01-.297.116c-.12 0-.06-.116 0-.173v-.345zM48.094 28.353c.119 0 .178-.057.238-.057.119.057.238.115.417.172-.12.058-.179.116-.238.116-.18.057-.298-.058-.417-.23zM46.903 28.293h-.119c-.06-.058-.119-.058-.178-.115.059-.058.118-.058.178-.115h.119c.06 0 .238-.058.179.115 0 0-.06.057-.179.115.06 0 0 0 0 0zM47.974 27.892c0 .058.06.058.06.116v.173c-.06-.058-.12-.058-.18-.116 0 0-.059-.115 0-.115 0-.058.06-.115.06-.173 0 0 .06 0 .06.115 0-.057 0-.057 0 0zM41.846 40.666c-.12.116-.18.174-.24.289-.059-.058-.178-.115-.178-.173 0-.058.06-.173.12-.231.118 0 .178.058.298.115z" fill="#16994A"/><path d="M102.675 73.643l-10.833 36.884-7.916 27.16h-5.774l8.393-64.044h16.13z" fill="#25B759"/><path d="M105.593 73.643c.238 18.989 1.131 29.346 1.369 31.073.238 1.726 4.226 12.716 11.963 32.914h-6.011c-9.821-19.392-15.297-30.383-16.428-32.914-1.131-2.532-4.702-12.89-10-31.073h19.107z" fill="#4ED875"/><path d="M119.461 142.864l-.298-6.099h-6.309c-2.976 2.014-6.905 3.683-11.666 4.949v1.15h11.368l3.869-.575v.575h3.036zM84.7 142.864l-.298-6.099h-6.25c-2.976 2.014-6.904 3.683-11.666 4.949v1.15h11.369l3.869-.575v.575H84.7z" fill="#9CEFAD"/><path d="M94.64 37.39c-1.368-1.554-2.32-3.51-2.142-5.64.476-6.214 9.404-4.833 11.13-1.726 1.726 3.107 1.548 11.048-.714 11.624-.893.23-2.798-.346-4.762-1.439l1.19 8.344h-7.201l2.5-11.163z" fill="#25B759"/><path d="M104.282 31.462c-.06-.403-.238-.863-.357-1.266-.179-.518-.476-.92-.774-1.381-.595-.806-1.25-1.496-2.024-2.072-1.369-1.093-3.095-1.726-4.821-1.496-.893.115-1.726.403-2.44.978-.655.46-1.25 1.209-2.084 1.266-.892.058-1.726-.748-2.5-1.208-.833-.518-1.726-.92-2.678-1.093-1.607-.23-3.155.287-4.226 1.553-1.19 1.381-2.024 3.338-1.25 5.18.12.344.357.632.595.862.238.23.595.46.715.806.118.345-.239.863-.358 1.15-.178.461-.297.979-.238 1.497.06.863.655 1.669 1.19 2.186.596.576 1.31.864 2.084 1.036.536.115 1.071.173 1.547.115.239 0 .477-.115.774-.172.238-.058.357 0 .596.115.952.633 2.023.863 3.154.748.953-.058 2.024-.288 2.798-.921.833-.69.833-1.669.654-2.704.238.115.834.172.477-.23-.12-.173-.417-.23-.596-.346-.238-.115-.416-.23-.595-.46-.655-.748 0-2.187.833-2.475 1.25-.345 1.488 1.324 2.381 1.727.476.23 1.012-.115 1.429-.46.476-.461.833-1.094 1.13-1.727l.715-1.554c.119-.23.536-.92.298-1.208.892-.173 1.845.173 2.618.633.298.173.536.403.715.748.059.058.119.288.238.288.119.172.059-.058 0-.115z" fill="#093509"/><path d="M104.462 34.685c-.179 1.151 1.488 1.9 1.428 3.108-.595 0-1.19.345-1.845.287" fill="#25B759"/><path d="M102.377 34.57c.119-.116.238-.231.416-.288.179-.058.357-.115.536-.115a.98.98 0 01.535.172.516.516 0 01.238.46c-.238-.287-.476-.287-.773-.287-.357-.058-.655 0-.952.057zM104.22 39.462c-.416.115-.773.173-1.189.058-.417-.058-.833-.288-1.011-.633.178.058.356.173.535.23l.535.173c.357 0 .714.057 1.13.172zM103.449 35.663a.351.351 0 00.357-.346c0-.19-.16-.345-.357-.345a.351.351 0 00-.357.345c0 .19.16.346.357.346z" fill="#093509"/><path d="M71.724 69.556l-8.155-6.042c-4.047-.748-5.952-1.324-5.654-1.842.417-.805 1.547-.23 1.964-.748.417-.517-.595-1.956-1.547-3.337-.953-1.381-.06-1.324.476-1.15 1.785.977 3.63 2.358 5.535 4.2l10.833 4.603-3.452 4.316zm54.819 14.385c.595.748 4.226 2.647 6.666 3.683 1.012.403.774 1.209.477 1.496-2.322 2.072-4.465.518-7.024-.057-2.738-.69-1.905 2.531-4.107 2.014.357-1.439 1.31-4.2.298-5.697-.476-.69-3.75-6.56-9.94-17.666l6.13-1.15c4.167 10.53 6.667 16.342 7.5 17.377z" fill="#25B759"/><path d="M96.247 44.292l-2.619-.403c-5.654 5.294-7.976 18.011-11.725 19.68-3.572 1.61-8.572.057-14.583-2.014l-1.845 3.97c5.416 5.697 17.023 10.53 21.725 7.768 7.56-4.43 9.285-20.14 9.047-29.001z" fill="#095411"/><path d="M107.555 75.77H84.64c-1.072 0-.834-1.44-.715-2.187 1.726-8.517 8.571-17.724 8.571-29.807l6.607-.979c5.476 8.46 7.381 18.932 8.452 32.972z" fill="#4ED875"/><path d="M109.818 67.138c4.702 8.171 8.631 14.04 11.785 17.608l4.822-.92C123.33 65.24 114.342 51.545 99.521 42.74h-2.619c-5.952 19.564-7.56 32.626-4.88 39.128h20.653c-.357-4.776-1.428-9.782-2.857-14.73z" fill="#14662A"/><path d="M183.684 71.507l-11.309 37.748-5.357 28.368h-5.297l5.297-66.116h16.666z" fill="#83E59C"/><path d="M188.802 71.507c-.774 19.622-.476 30.325-.297 32.109.178 1.784 1.19 13.695 8.035 34.583h-5.536c-9.047-20.025-12.261-31.994-13.273-34.583-1.012-2.647-4.107-13.35-8.571-32.109h19.642z" fill="#83E59C"/><path d="M183.922 71.507c-2.976 13.005-8.036 33.72-15.297 62.204h-7.798c-.595-29.232 1.905-48.451 6.131-62.204h16.964z" fill="#0C420C"/><path d="M188.864 71.507c-.774 19.622 1.25 38.956 7.44 62.491h-8.333c-9.107-19.737-15.595-38.956-20.059-62.49h20.952z" fill="#0C4C0D"/><path d="M197.313 142.111l-.297-4.776c-1.786.518-4.048.288-6.726-.575-2.917 2.014-6.547 3.337-11.012 4.085-.357.058-.535.346-.476.691v.057l.417 1.439h17.499l.595-.921zM168.208 142.111l-.298-4.776c-1.785.518-4.047.288-6.726-.575-2.916 2.014-6.547 3.337-11.011 4.085-.357.058-.536.346-.476.691v.057l.416 1.439h17.5l.595-.921z" fill="#4ED875"/><path d="M179.516 33.819c1.428-1.611 2.381-3.625 2.202-5.812-.476-6.387-9.702-5.006-11.487-1.784-1.786 3.223-1.608 11.451.714 12.027.952.23 2.916-.346 4.881-1.496l-1.25 8.573h7.44l-2.5-11.508z" fill="#83E59C"/><path d="M175.529 28.699c-.297 3.855-1.012 5.754-2.262 5.754-1.845 0-3.392-1.15-4.166-1.15-.595 0-.476.69-.06 1.208.298.46 1.905.863 1.905 1.496s-1.25.172-1.25.575c0 .633-.238 1.9.952 1.9 1.191 0 4.643-.404 5.238-2.13.358-1.093.596-3.395.715-6.905h.238c1.012 0 1.845.806 1.845 1.784 0 .518-.238.978-.536 1.266.417.575.893 1.208 1.488 1.841 2.083-1.208 3.929-4.718 1.905-8.113-.536-1.67-2.143-2.532-3.631-2.935a5.349 5.349 0 00-3.512-.23c-2.083.172-3.928.805-4.464 1.15 0 1.9.357 2.475 3.631 2.417.714.403 1.31 1.151 1.964 2.072z" fill="#062806"/><path d="M169.278 29.676c-.178.978-1.488 1.899-1.428 2.992.297.115.535.288.833.346.298.057.536 0 .833.115" fill="#83E59C"/><path d="M169.812 28.583c.179-.115.298-.172.476-.23.179-.057.357-.115.595-.057.179.057.417.172.476.345.06.057.119.172.119.23 0 .057 0 .115.06.115v.115h-.06c0-.058-.119-.058-.178-.115-.06-.058-.179-.058-.238-.115-.119-.058-.238-.115-.357-.115-.119-.058-.238-.058-.417-.058-.119.058-.297 0-.476-.115zM170.23 29.793a.234.234 0 00.238-.23.234.234 0 00-.238-.23.234.234 0 00-.238.23c0 .127.107.23.238.23z" fill="#062806"/><path d="M154.28 44.864l-9.107-5.18c-4.286-.23-6.25-.632-6.012-1.208.358-.863 1.548-.46 1.905-.978s-.833-1.956-2.024-3.222c-1.19-1.266-.238-1.324.357-1.209 1.965.748 3.988 1.957 6.191 3.626l11.725 3.395-3.035 4.776zm6.19 20.37l-9.761 3.913c-2.738 3.164-4.286 4.43-4.643 3.912-.476-.805.595-1.496.357-2.071-.238-.576-2.083-.518-3.869-.403-1.786.115-1.25-.633-.833-.978 1.785-1.036 4.047-1.899 6.726-2.59l9.88-7.02 2.143 5.237z" fill="#83E59C"/><path d="M173.624 41.125c-5.356 9.667-13.154 17.09-24.403 24.858l4.285 4.66c12.559-4.545 19.226-7.25 22.499-16.399.834-2.301 1.369-9.61 1.905-13.465l-4.286.346z" fill="#D83252"/><path d="M188.625 73.407h-23.809c5.417-15.94 8.155-26.815 8.274-32.742 0-.288.595-.863.833-.748 1.845.518 3.869.345 6.012-.575 5.654 8.746 7.619 19.564 8.69 34.065z" fill="#DBFCDF"/><path d="M177.91 39.341c-6.845.057-17.916 1.266-30.713-2.705l-1.25 6.1c9.643 5.984 19.464 10.645 27.975 10.012-3.75 15.422-3.571 28.081 4.643 28.081h12.678c2.024-13.12-3.274-31.303-8.214-40.452-.178-.346-.595-1.036-1.547-1.036h-3.572z" fill="#F24C64"/></svg>