<svg width="232" height="252" fill="none" xmlns="http://www.w3.org/2000/svg"><path d="M-13 150c19-9 55-13 70-13a397 397 0 01187 6c9 3 21 14 10 28-10 15-107 44-131 46-25 1-53-14-66-21s-54-9-75-17c-4-2-20-16 5-29z" fill="#DDF2F9"/><path d="M33-15v178l78 8V17L57-38 33-15z" fill="#A4D5EA"/><path d="M176 17h-65v154h65V17z" fill="#6BB8DC"/><path d="M57-38h62l57 55h-65L57-38z" fill="#F77B0B"/><path d="M163 5H99l1 1h65l-2-1zM173 14h-65l2 2h65l-2-2z" fill="#F45F0C"/><path d="M131 35h-8v20h8V35z" fill="#DDF2F9"/><path d="M122 171v-56c0-13 11-23 24-23s24 10 24 23v56h-48z" fill="#C1E3F2"/><path d="M166 171h-40v-55c0-11 9-20 20-20s20 9 20 20v55zM215 171h-45v-57c0-11 10-20 23-20 12 0 22 9 22 20v57z" fill="#06508C"/><path d="M142 35h-8v20h8V35zM153 35h-8v20h8V35zM165 35h-8v20h8V35z" fill="#DDF2F9"/><path d="M89 83h13V47H89v36z" fill="#6BB8DC"/><path d="M194 155l-10 33-7 25h-5l7-58h15z" fill="#F77B0B"/><path d="M196 155l1 28 11 30h-5l-15-30-9-28h17z" fill="#F45F0C"/><path d="M208 218v-6h-5l-11 5v1h10l4-1v1h2zM178 218v-6h-6l-10 5v1h10l3-1v1h3z" fill="#06508C"/><path d="M189 123l2-5c-1-6-8-4-10-2-1 3-1 10 1 11l4-1-1 7h6l-2-10z" fill="#DDF2F9"/><path d="M181 118a7 7 0 011-3l1-2 5-1 2 1 1 1 3-1 2-1 4 1c1 2 2 3 1 5l-1 1v3l-1 2-2 1h-1-1l-3 1-2-1-1-3c0 1-1 1 0 0h1l-1-3-2 2h-1l-1-2-1-1v-2l-3 1v1c-1 0 0 0 0 0z" fill="#A4D5EA"/><path d="M180 121v1l-1 2h2" fill="#DDF2F9"/><path d="M182 120h-1v1l1-1zM181 125h1l1-1-1 1h-1zM181 121z" fill="#1E9ED1"/><path d="M214 165l6 3 1 1c-2 2-4 1-6 0-3 0-2 2-4 2v-5l-8-16 5-1 6 16z" fill="#C1E3F2"/><path d="M161 144l9 2-1 5-9-4-6-2v-1l3-1v-1l4 2z" fill="#DDF2F9"/><path d="M188 129l-2-1c-5 5-7 17-11 18-3 2-7 0-12-2l-2 4c5 5 15 9 19 7 7-4 8-18 8-26z" fill="#6BB8DC"/><path d="M198 157h-20l-1-2c2-7 8-16 8-27l5-1c5 8 7 18 8 30z" fill="#C1E3F2"/><path d="M200 149l10 16 4-1c-2-16-10-29-23-37h-2c-6 18-7 30-5 36h18l-2-14z" fill="#88C6E3"/><path d="M85 174l11 36 4 27h5l-5-63H85z" fill="#6BB8DC"/><path d="M80 174l1 31c0 2-1 13-8 33h5c9-19 12-31 13-33l8-31H80z" fill="#6BB8DC"/><path d="M85 174l14 60h7c1-28-1-47-5-60H85z" fill="#1E9ED1"/><path d="M80 174c1 19-1 37-7 60h8c9-19 15-37 19-60H80z" fill="#6BB8DC"/><path d="M73 242v-5l6-1c3 2 6 4 10 4l1 1-1 1H73zM99 242l1-5 6-1c3 2 6 4 10 4l1 1-1 1H99z" fill="#06508C"/><path d="M58 189h2v9l-2-1v-8z" fill="#88C6E3"/><path d="M59 213h4l1 1h5l3 3 1 14-1 13v4l-1 2-3 1v-1-2-1l1-14v-6l-1-9-1-2-2-1H52l-2 1-3-2 2-1h10z" fill="#1174BA"/><path d="M67 214l3-1h3c2 0 3 2 3 4l1 17-1 12c0 2-1 2-2 3h-2l1-2 1-7-1-22c0-3-1-4-3-4h-3z" fill="#1174BA"/><path d="M67 214h3c2 0 3 1 3 4l1 22-1 7v3h-2c2-2 1-4 1-6l1-13-1-14-3-3h-5l-1-1 4 1zM71 190h2v8h-3l1-8z" fill="#88C6E3"/><path d="M56 197l6 1-7-1h1zM72 212h-1l1-3v-1-4-3c0-2-1-2-3-2h-1l-2-1h-1 6l2 3v8l-1 3z" fill="#06508C"/><path d="M51 213l2-1 6 1h-8z" fill="#88C6E3"/><path d="M73 189l-1-2-3-1h-9c-2 0-3 2-3 3h3v-1l1-1 5 1h4v1l1 1h2v-1zm-2-2v0zm1 2l-1-1v-1 1l1 1zM69 227l-1-9-1-2-2-1-8-1h-9c-2 0-3 1-3 3l-1 10v11l1 6v5l3 1a177 177 0 0015 2l5-1v-3-1l1-14v-6zM45 247z" fill="#06508C"/><path d="M75 202v-2l-1-1-2-1h-1a99 99 0 00-15-1l6 1-7-1-2 1-1 1-2 2a57 57 0 001 10l2 2h10l4 1 1-1h2l2-1v-2-5-3l-1-3h-1l-2-1h-3 1l4 1h2l1 2v7l-1 4h1l1-1 1-2v-1-6z" fill="#1E9ED1"/><path d="M51 212z" fill="#1174BA"/><path d="M63 199c2 0 5 0 6 2l1 1-1 10c0 1-1 2-2 1l-2 1-3-1h-4l-5-1-2-1-1-3v-7l2-2 3-1 8 1z" fill="#1E9ED1"/><path d="M89 132l-2-5c1-6 9-5 11-2 1 3 1 11-1 11-1 1-3 0-4-1l1 8h-7l2-11z" fill="#6BB8DC"/><path d="M89 134c-1-4-4-7-3-8 0-2 1-2 2-3 0-2 2-3 5-2 5 0 7 2 6 6h-4l-1 2h-1l-3-1v2l-1 4z" fill="#06508C"/><path d="M99 130v1l1 1-2 1" fill="#6BB8DC"/><path d="M98 129h-1-1 2zM98 135h-1l-1-1h1v1h0l-1-1h1l1 1zM98 130z" fill="#06508C"/><path d="M111 165l8 8 6 3c1 1 1 1-1 1h-3v2l-4-4-8-5 2-5zm-39-7h6l-8 24 2 6c-2 0-2-3-4-2-3 1-4 3-7 2v-2l6-5 5-23z" fill="#6BB8DC"/><path d="M91 140h2c4 14 24 23 25 28v3l-3 3-4-1c-3 0-20-17-20-33z" fill="#1174BA"/><path d="M95 142c0 18 10 23 8 30-2 6-21 13-24 7l-2-9-2 7c-1 3-4 3-4 4l-4-1c0-2-2-2-1-6 2-16 9-27 19-34v-2l1-1 8 1 1 1v3z" fill="#1E9ED1"/><path d="M-39 60c-3-12-2-20 8-28 5-6 13-5 19 0C-12 20-2 6 12 7c11 1 15 14 17 23 9-3 15 0 16 9 16-4 30 11 27 27-2 7-8 12-16 12-6 1-6-1-10-3 1 8-24 9-28 1-9 5-18 11-29 8l-9-5-8-7c-4 2-8 2-12-2-3-2-3-7 1-10z" fill="#F45F0C"/><path d="M33 67l21-3-20 2 16-17-21 20-1-13v15L10 88 9 40l9-10-9 9V24v48l-26-21 8 7-11 5 11-5L9 74v97h3l-2-80 23-24z" fill="#06508C"/><path d="M17 161c0-7 3-16 9-8 0-3 2-12 7-11l4 6c-1-7 6-17 14-13 6 4 4 15 4 20 0-2 3-3 5-2l1 9c0 4-5 5-9 4-1 6-13 2-15-2-1 3-5 3-6 1 0 2-7 3-9 2l-5-6z" fill="#1E9ED1"/><path d="M47 139l-5 26h1l5-26h-1zM51 146l-6 5 6-5z" fill="#A4D5EA"/><path d="M44 156l-4-6h1l3 6zM22 155l3 9h1l-4-9zM20 158l4 1-4-1z" fill="#A4D5EA"/><path d="M14 172c0-9-3-22-11-11 0-4-3-16-10-15-2 1-5 7-5 8 0-9-9-23-19-17-8 5-6 19-6 27 0-4-3-5-6-3l-2 12c1 5 7 6 12 5 2 9 19 3 21-3 2 4 6 4 8 1 0 4 9 5 12 4s4-4 6-8z" fill="#88C6E3"/><path d="M3 176l5-12-1-1-4 13z" fill="#06508C"/><path d="M6 169l5-1v-1l-6 2h1z" fill="#06508C"/></svg>