<svg width="232" height="252" viewBox="0 0 232 252" fill="none" xmlns="http://www.w3.org/2000/svg">
<path d="M-13.1622 150.387C6.34467 140.634 41.9911 137.324 57.376 136.889C73.0511 133.841 109.975 128.006 132.268 129.051C160.135 130.358 234.592 139.502 243.736 142.985C252.88 146.468 264.636 156.918 254.186 171.287C243.736 185.656 147.073 214.829 122.689 216.571C98.3055 218.313 70.4386 203.073 57.376 196.106C44.3134 189.139 2.94848 186.527 -17.5164 178.689C-22.2584 176.873 -37.5457 162.579 -13.1622 150.387Z" fill="#DDF2F9"/>
<path d="M32.9648 -14.7187V162.897L111.162 171.028C111.162 171.028 111.162 20.5153 111.162 17.263L56.6935 -38.208L32.9648 -14.7187Z" fill="#A4D5EA"/>
<path d="M176.056 17.2637H111.162V171.029H176.056V17.2637Z" fill="#6BB8DC"/>
<path d="M56.6943 -38.208H118.533L176.057 17.263H111.162L56.6943 -38.208Z" fill="#F77B0B"/>
<path d="M162.933 4.61426H98.5781L100.196 6.05976H164.551L162.933 4.61426Z" fill="#F45F0C"/>
<path d="M173.001 14.3721H108.286L109.904 15.9982H174.619L173.001 14.3721Z" fill="#F45F0C"/>
<path d="M130.576 34.6084H122.847V55.3874H130.576V34.6084Z" fill="#DDF2F9"/>
<path d="M121.905 171.361V114.51C121.905 102.213 132.61 92.1523 145.951 92.1523C159.127 92.1523 169.997 102.213 169.997 114.51V171.361H121.905Z" fill="#C1E3F2"/>
<path d="M165.753 171.361H126.148V116.007C126.148 105.252 134.932 96.3955 145.951 96.3955C156.81 96.3955 165.753 105.094 165.753 116.007V171.361Z" fill="#06508C"/>
<path d="M215.259 171.362H169.997V113.919C169.997 102.758 180.035 93.5674 192.628 93.5674C205.039 93.5674 215.259 102.594 215.259 113.919V171.362Z" fill="#06508C"/>
<path d="M141.902 34.6084H134.172V55.3874H141.902V34.6084Z" fill="#DDF2F9"/>
<path d="M153.227 34.6084H145.497V55.3874H153.227V34.6084Z" fill="#DDF2F9"/>
<path d="M164.552 34.6084H156.822V55.3874H164.552V34.6084Z" fill="#DDF2F9"/>
<path d="M89.2314 82.6716H101.995V47.2568H89.2314V82.6716Z" fill="#6BB8DC"/>
<path d="M193.633 155.292L184.107 188.493L177.173 212.966H172.108L179.494 155.292H193.633Z" fill="#F77B0B"/>
<path d="M196.165 155.292C196.376 172.417 197.13 181.744 197.371 183.304C197.612 184.864 201.079 194.761 207.832 212.966H202.617C194.025 195.481 189.231 185.583 188.206 183.304C187.181 181.025 184.106 171.667 179.464 155.292H196.165Z" fill="#F45F0C"/>
<path d="M208.316 217.645L208.044 212.156H202.527C199.905 213.986 196.498 215.455 192.308 216.595V217.645H202.286L205.693 217.135V217.645H208.316Z" fill="#06508C"/>
<path d="M177.897 217.645L177.625 212.156H172.108C169.486 213.986 166.079 215.455 161.889 216.595V217.645H171.867L175.274 217.135V217.645H177.897Z" fill="#06508C"/>
<path d="M188.96 123.021C190.166 121.611 190.98 119.871 190.859 117.952C190.467 112.374 182.659 113.603 181.122 116.422C179.614 119.242 179.795 126.38 181.755 126.889C182.538 127.099 184.197 126.59 185.915 125.57L184.86 133.068H191.16L188.96 123.021Z" fill="#DDF2F9"/>
<path d="M180.52 117.683C180.58 117.323 180.731 116.903 180.851 116.573C181.002 116.123 181.243 115.733 181.515 115.343C181.997 114.623 182.6 113.994 183.263 113.454C184.469 112.464 186.006 111.924 187.514 112.104C188.267 112.194 189.021 112.494 189.654 112.974C190.227 113.394 190.77 114.054 191.493 114.084C192.307 114.144 193.031 113.424 193.664 113.004C194.387 112.524 195.141 112.164 196.015 112.014C197.432 111.774 198.759 112.254 199.723 113.424C200.748 114.653 201.502 116.453 200.839 118.073C200.718 118.372 200.537 118.642 200.326 118.852C200.115 119.032 199.783 119.242 199.693 119.572C199.603 119.902 199.874 120.322 199.995 120.622C200.145 121.042 200.266 121.492 200.236 121.971C200.175 122.721 199.693 123.471 199.181 123.951C198.668 124.461 198.035 124.761 197.342 124.881C196.889 124.971 196.437 125.031 195.955 125.001C195.714 124.971 195.533 124.911 195.292 124.881C195.081 124.821 194.96 124.881 194.779 125.001C193.935 125.54 193.031 125.75 192.036 125.69C191.222 125.63 190.257 125.42 189.594 124.851C188.84 124.221 188.87 123.351 189.021 122.451C188.84 122.541 188.328 122.601 188.629 122.241C188.75 122.091 188.991 122.031 189.142 121.941C189.323 121.851 189.503 121.701 189.654 121.552C190.227 120.892 189.654 119.572 188.931 119.332C187.845 119.002 187.634 120.502 186.851 120.892C186.398 121.102 185.946 120.802 185.615 120.502C185.162 120.082 184.861 119.542 184.62 118.972C184.409 118.522 184.198 118.043 183.987 117.563C183.896 117.353 183.534 116.723 183.715 116.483C182.962 116.333 182.087 116.633 181.424 117.053C181.153 117.233 180.942 117.413 180.791 117.713C180.761 117.773 180.701 117.983 180.61 117.983C180.459 117.953 180.52 117.773 180.52 117.683Z" fill="#A4D5EA"/>
<path d="M180.218 120.712C180.278 121.252 179.886 121.732 179.585 122.122C179.404 122.361 178.65 123.291 179.102 123.561C179.524 123.831 180.127 123.771 180.61 123.741" fill="#DDF2F9"/>
<path d="M182.237 120.471C182.147 120.321 182.026 120.201 181.875 120.141C181.725 120.051 181.574 120.021 181.393 120.021C181.212 120.021 181.031 120.051 180.88 120.201C180.73 120.321 180.639 120.531 180.7 120.681C180.85 120.591 180.971 120.561 181.061 120.531C181.152 120.531 181.272 120.501 181.393 120.531C181.634 120.501 181.875 120.501 182.237 120.471Z" fill="#1E9ED1"/>
<path d="M180.61 124.881C180.942 125.091 181.304 125.121 181.696 125.061C182.088 125.001 182.449 124.731 182.57 124.341C182.178 124.431 181.907 124.521 181.605 124.551C181.274 124.641 180.942 124.671 180.61 124.881Z" fill="#1E9ED1"/>
<path d="M181.273 121.431C181.44 121.431 181.575 121.297 181.575 121.131C181.575 120.965 181.44 120.831 181.273 120.831C181.107 120.831 180.972 120.965 180.972 121.131C180.972 121.297 181.107 121.431 181.273 121.431Z" fill="#1E9ED1"/>
<path d="M214.465 164.56C214.977 165.219 218.143 166.959 220.283 167.889C221.157 168.249 220.946 168.998 220.705 169.208C218.655 171.098 216.786 169.688 214.585 169.148C212.174 168.548 212.927 171.398 211.028 170.978C211.329 169.658 212.143 167.199 211.269 165.849C210.877 165.249 207.983 159.941 202.587 149.924L207.953 148.874C211.601 158.411 213.771 163.63 214.465 164.56Z" fill="#C1E3F2"/>
<path d="M161.16 144.445L169.882 146.449L168.805 151.302L159.553 146.641C157.225 146.42 155.239 145.953 153.588 145.326C153.187 145.032 152.64 144.467 154.125 144.331C155.611 144.194 157.169 143.958 157.28 143.435C157.414 142.892 156.429 142.457 156.709 141.715C156.905 141.199 158.379 142.13 161.16 144.445Z" fill="#DDF2F9"/>
<path d="M187.966 128.84L185.705 128.45C180.761 133.219 178.741 144.676 175.455 146.175C172.35 147.615 167.919 146.235 162.673 144.346L161.075 147.915C165.838 153.043 175.998 157.362 180.098 154.903C186.7 150.974 188.207 136.848 187.966 128.84Z" fill="#6BB8DC"/>
<path d="M197.854 157.181C188.75 157.181 182.057 157.181 177.776 157.181C176.872 157.181 177.023 155.862 177.174 155.202C178.711 147.524 184.68 139.246 184.68 128.329L190.468 127.43C195.262 135.107 196.92 144.555 197.854 157.181Z" fill="#C1E3F2"/>
<path d="M199.874 149.414C203.974 156.762 207.411 162.04 210.184 165.279L214.405 164.469C211.691 147.764 203.853 135.408 190.86 127.46H190.8H188.569C183.384 145.095 181.937 156.822 184.258 162.7H202.316C202.044 158.381 201.11 153.852 199.874 149.414Z" fill="#88C6E3"/>
<path d="M85.082 174.264L95.586 210.226L100.476 237.243H105.411L100.476 174.264H85.082Z" fill="#6BB8DC"/>
<path d="M80.4182 174.264C81.1426 192.968 80.871 203.133 80.6899 204.85C80.5088 206.567 79.6033 217.907 73.2646 237.83H78.3808C86.7568 218.72 89.6545 207.38 90.6506 204.85C91.6014 202.32 94.4537 192.155 98.5738 174.264H80.4182Z" fill="#6BB8DC"/>
<path d="M84.8555 174.264C87.572 186.643 92.2807 206.386 98.9815 233.538H106.226C106.769 205.663 104.505 187.366 100.566 174.264H84.8555Z" fill="#1E9ED1"/>
<path d="M80.3731 174.264C81.0976 192.968 79.2412 211.356 73.4912 233.855H81.1881C89.5641 215.06 95.5858 196.718 99.7059 174.264H80.3731Z" fill="#6BB8DC"/>
<path d="M72.54 241.535L72.8117 236.972C74.4869 237.469 76.5696 237.288 79.0598 236.385C81.731 238.282 85.1267 239.592 89.2015 240.27C89.5185 240.315 89.6996 240.632 89.6543 240.948V240.993L89.2468 242.394H79.0598H73.1286L72.54 241.535Z" fill="#06508C"/>
<path d="M99.3887 241.535L99.6603 236.972C101.336 237.469 103.418 237.288 105.908 236.385C108.58 238.282 111.975 239.592 116.05 240.27C116.367 240.315 116.548 240.632 116.503 240.948V240.993L116.095 242.394H105.908H99.9773L99.3887 241.535Z" fill="#06508C"/>
<path d="M57.6391 188.943C58.3709 189.015 59.1394 189.267 59.8346 188.799C59.8346 191.713 59.8346 194.628 59.8346 197.542C59.0662 197.578 58.3344 197.326 57.6025 197.218C57.6025 194.484 57.6391 191.713 57.6391 188.943Z" fill="#88C6E3"/>
<path d="M59.1393 213.122C60.4566 213.194 61.8106 213.23 63.1279 213.302C63.2376 213.662 63.567 213.59 63.8597 213.626C65.6527 213.842 67.4091 214.022 69.2021 214.274C70.9219 214.525 71.9831 215.641 72.1294 217.368C72.4953 222.01 72.5685 226.651 72.6783 231.293C72.7881 235.682 72.5686 240.072 72.3856 244.462C72.349 245.541 72.4588 246.584 72.2758 247.664C72.1294 248.563 71.6538 249.895 70.739 250.291C70.4096 250.434 68.1043 251.55 67.8482 251.226C67.775 251.118 68.0677 250.362 68.1043 250.219C68.2507 249.463 68.3239 248.707 68.3605 247.952C68.3605 247.736 68.4337 247.556 68.4337 247.34C68.58 242.411 68.5434 237.481 68.6532 232.552C68.6898 230.825 68.6532 229.098 68.6532 227.407C68.6898 224.276 68.4703 221.146 68.4337 218.016C68.4337 217.152 68.1775 216.253 67.4457 215.749C66.7871 215.281 66.0186 214.921 65.1404 214.885C62.7985 214.741 61.9935 215.137 59.6516 214.993C58.6271 214.921 56.9439 215.245 55.9193 215.173C54.9313 215.101 52.9553 215.353 51.9674 215.353C51.2721 215.353 50.4305 215.713 49.7353 215.749C49.0766 215.785 47.1372 214.705 46.5518 214.238C46.8445 213.986 48.7473 213.518 49.0766 213.41C52.3333 212.403 55.7729 213.23 59.1393 213.122Z" fill="#1174BA"/>
<path d="M66.9697 213.518C68.1407 213.518 69.0921 212.726 70.263 212.69C71.068 213.014 71.9096 212.978 72.7146 213.122C75.2395 213.41 76.1543 214.921 76.2275 217.08C76.4471 222.837 76.7032 228.594 76.63 234.351C76.5568 238.345 76.447 242.339 76.1909 246.333C76.1177 247.52 75.4224 248.348 74.3613 248.887C73.7758 249.175 73.1538 249.355 72.4951 249.463C72.8244 248.779 73.2636 248.168 73.3001 247.376C73.3733 244.821 73.5563 242.231 73.5929 239.676C73.7392 232.264 73.7026 224.888 73.1904 217.512C73.044 215.317 72.056 214.238 69.8239 213.914C68.9091 213.806 67.9211 213.662 66.9697 213.518Z" fill="#1174BA"/>
<path d="M66.9701 213.519C67.9215 213.663 68.9094 213.807 69.8608 213.951C72.0929 214.274 73.0809 215.354 73.2272 217.549C73.7395 224.925 73.7761 232.337 73.6297 239.713C73.5932 242.268 73.4102 244.858 73.337 247.413C73.3004 248.204 72.8613 248.816 72.532 249.5C72.0929 249.716 71.6538 250.039 71.1415 250.003C72.715 248.42 72.2759 246.369 72.3857 244.462C72.5686 240.073 72.7881 235.683 72.6784 231.293C72.5686 226.652 72.4954 222.01 72.1295 217.369C71.9831 215.678 70.922 214.562 69.2022 214.274C67.4457 214.022 65.6528 213.843 63.8598 213.627C63.567 213.591 63.2377 213.663 63.1279 213.303C64.4086 213.267 65.6894 213.483 66.9701 213.519Z" fill="#88C6E3"/>
<path d="M70.52 190.491C71.2518 190.563 72.0203 190.743 72.7155 190.383C72.7155 192.83 72.7155 195.312 72.7155 197.759C71.9471 197.795 71.2152 197.579 70.4834 197.507C70.52 195.168 70.52 192.83 70.52 190.491Z" fill="#88C6E3"/>
<path d="M56.395 197.255C58.2978 197.363 60.164 197.471 62.0668 197.579C62.0668 197.651 62.0668 197.723 62.0668 197.831C59.7615 197.723 57.4928 197.615 55.1875 197.471C55.59 197.399 55.9925 197.327 56.395 197.255Z" fill="#06508C"/>
<path d="M72.2758 211.684C71.9465 211.936 71.5806 212.151 71.1415 212.079C72.2026 211.288 72.166 210.136 72.2392 208.985C72.2758 208.661 72.2392 208.301 72.2392 207.978C72.2392 206.574 72.2392 205.207 72.2392 203.804C72.3124 202.796 72.166 201.789 72.0563 200.817C71.9099 199.414 70.5194 198.515 68.946 198.659C68.7264 198.659 68.4703 198.623 68.2507 198.623C67.7384 198.083 67.0066 198.407 66.4211 198.191C66.1284 198.083 65.7991 198.227 65.4697 198.011C65.6893 197.795 65.9454 197.867 66.1284 197.867C67.6652 198.047 69.2021 198.227 70.739 198.479C71.9465 198.695 72.7515 199.522 72.8979 200.745C73.2272 203.12 73.1906 205.495 73.1174 207.87C73.1174 208.337 73.0442 208.805 73.0442 209.273C73.0808 210.208 72.8247 211 72.2758 211.684Z" fill="#06508C"/>
<path d="M51.3818 212.87C51.8209 212.546 52.4064 212.618 52.9187 212.438C54.7848 212.582 56.651 212.726 58.5172 212.87C58.7368 212.87 59.0295 212.798 59.1392 213.086C56.5412 213.194 53.9798 212.834 51.3818 212.87Z" fill="#88C6E3"/>
<path d="M72.7889 188.692C72.7157 187.864 72.2766 187.108 71.5813 186.641C70.7031 186.065 69.5322 186.137 68.5076 186.065C66.9707 185.921 65.4339 185.813 63.897 185.669C62.4334 185.561 61.0063 185.345 59.5426 185.705C58.1155 186.137 57.2373 187.54 57.4935 188.98C57.5301 189.123 57.5301 189.303 57.713 189.375C58.3351 189.591 59.0303 189.591 59.6524 189.447C60.2379 189.303 59.9817 188.764 60.0183 188.368C60.0549 187.576 60.3476 187.288 61.1892 187.36C62.6895 187.468 64.1898 187.612 65.6535 187.72C67.0074 187.828 68.471 187.792 69.7517 188.188C70.264 188.404 70.3372 188.872 70.3372 189.339C70.3738 189.735 70.1909 190.167 70.5568 190.491C71.2886 190.563 72.057 190.743 72.7523 190.383C72.9352 189.843 72.862 189.267 72.7889 188.692ZM71.069 187.216C71.1056 187.36 71.2154 187.432 71.3252 187.504C71.2154 187.468 71.1056 187.396 71.069 187.216ZM71.9838 188.908C72.0204 188.404 71.9838 187.936 71.4349 187.576C71.3252 187.432 71.2154 187.324 71.1056 187.18C71.2154 187.324 71.3252 187.432 71.4349 187.576C71.9838 187.936 72.0204 188.404 71.9838 188.908Z" fill="#06508C"/>
<path d="M68.6529 227.407C68.6894 224.276 68.4699 221.146 68.4333 218.016C68.4333 217.152 68.1772 216.253 67.4454 215.749C66.7867 215.281 66.0183 214.921 65.1401 214.885C62.3591 214.705 59.5781 214.49 56.8338 214.31C54.0528 214.166 51.2718 214.274 48.4908 213.986C46.2221 213.77 44.5755 215.245 44.5023 217.476C44.3925 220.57 44.2827 223.629 44.173 226.723C44.0266 230.537 44.173 234.531 44.2462 238.381C44.2828 240.396 44.3925 242.411 44.5023 244.39C44.5755 245.757 44.3925 247.376 45.1976 248.563C45.9294 249.607 47.2833 249.931 48.4908 250.111C51.7475 250.65 55.0407 251.082 58.3706 251.442C60.0538 251.622 61.737 251.766 63.4203 251.91C64.9205 252.018 66.311 252.126 67.6649 251.334C67.7015 251.298 67.7747 251.262 67.8113 251.226C67.8479 251.154 67.8844 251.082 67.921 251.01C68.2138 250.003 68.3235 248.959 68.3967 247.952C68.3967 247.736 68.4699 247.556 68.4699 247.34C68.6163 242.411 68.5797 237.481 68.6894 232.552C68.6894 230.825 68.6529 229.098 68.6529 227.407Z" fill="#06508C"/>
<path d="M44.5752 247.088C44.5752 247.124 44.6118 247.16 44.6484 247.196C44.6484 247.16 44.6484 247.088 44.6118 247.052L44.5752 247.088Z" fill="#06508C"/>
<path d="M75.204 201.932C75.204 201.32 75.204 200.708 75.0942 200.133C74.9844 199.557 74.7283 198.945 74.2526 198.55C73.7403 198.082 73.0451 197.866 72.3498 197.758C71.9473 197.686 71.5448 197.65 71.1057 197.614C66.6415 197.11 62.1407 196.715 57.64 196.823C57.3106 196.823 56.6154 197.038 56.3958 197.254C58.262 197.362 60.1648 197.47 62.031 197.578C62.031 197.65 62.031 197.722 62.031 197.83C59.7257 197.722 57.457 197.614 55.1517 197.47C54.6394 197.434 53.9076 197.722 53.4319 197.866C52.8098 198.046 52.1878 198.262 51.6389 198.586C50.7607 199.089 50.3948 199.989 50.3216 200.996C50.102 203.479 50.1387 205.998 50.2484 208.48C50.285 209.2 50.3582 209.956 50.6143 210.639C51.0535 211.719 51.895 212.078 52.883 212.51C54.7492 212.654 56.6154 212.798 58.4816 212.942C58.7011 212.942 58.9938 212.87 59.1036 213.158C60.4209 213.23 61.7748 213.266 63.0921 213.338C64.3728 213.302 65.6536 213.482 66.9343 213.554C67.4466 213.59 67.849 213.482 68.2881 213.338C68.6907 213.194 69.1298 213.014 69.5323 212.906C70.3373 212.654 71.1423 212.258 71.618 211.539C71.9839 210.963 72.1303 210.315 72.2401 209.632C72.4596 208.049 72.4962 206.429 72.423 204.81C72.3864 203.767 72.3499 202.723 72.2035 201.68C72.0571 200.888 71.8741 199.701 71.1789 199.197C70.9228 199.017 70.63 198.909 70.3373 198.837C69.4225 198.586 68.5077 198.406 67.5563 198.334C67.3368 198.298 65.5438 198.01 65.4706 198.118C65.5438 198.01 65.7633 197.974 65.9463 197.974C67.4465 198.118 68.9102 198.298 70.4105 198.55C70.9594 198.658 71.5448 198.766 71.9473 199.089C72.4596 199.485 72.6792 200.133 72.7889 200.744C73.3378 203.155 73.0817 205.638 73.0451 208.121C73.0451 209.272 73.0817 210.531 72.423 211.503C72.3498 211.575 72.3132 211.683 72.3498 211.791C72.3864 211.827 72.8987 211.575 73.0085 211.539C73.4476 211.395 73.8867 211.215 74.2526 210.927C74.6917 210.567 74.9478 210.028 75.0576 209.488C75.1674 208.948 75.1674 208.372 75.1674 207.833C75.204 205.818 75.204 203.875 75.204 201.932Z" fill="#1E9ED1"/>
<path d="M50.6133 211.54L50.6499 211.576C50.6499 211.54 50.6499 211.54 50.6133 211.54C50.6133 211.504 50.6133 211.54 50.6133 211.54Z" fill="#1174BA"/>
<path d="M63.3481 198.874C65.2875 199.089 68.471 198.658 69.4956 200.816C69.6785 201.212 69.7151 201.608 69.7517 202.04C69.9712 205.314 70.081 208.624 69.3126 211.791C68.9467 213.23 68.0685 213.554 66.6414 213.482C66.2023 213.446 65.5071 213.554 65.068 213.518C63.9336 213.446 62.7993 213.266 61.6649 213.302C60.494 213.23 59.2865 213.194 58.1155 213.122C58.0058 212.834 57.7862 212.906 57.5667 212.906C55.92 212.762 54.2734 212.618 52.6268 212.474C51.712 212.043 50.9801 211.683 50.6142 210.603C50.3581 209.92 50.3215 209.164 50.2849 208.444C50.1751 205.962 50.1751 203.443 50.3581 200.96C50.4312 199.989 50.724 199.089 51.529 198.55C52.0047 198.226 54.2368 198.37 54.8223 198.37L63.3481 198.874Z" fill="#1E9ED1"/>
<path d="M89.1567 132.292C87.8437 130.756 86.9382 128.858 87.1193 126.735C87.5268 120.636 96.0386 121.991 97.7138 125.063C99.3891 128.136 99.1627 135.952 97.0347 136.494C96.1745 136.72 94.3634 136.177 92.5071 135.048L93.6843 143.225H86.8477L89.1567 132.292Z" fill="#6BB8DC"/>
<path d="M88.613 133.648C87.7528 129.807 85.3079 127.232 85.6701 125.515C85.9418 124.386 86.5756 123.663 87.6623 123.392C88.2056 121.133 90.0166 120.184 93.0501 120.501C97.6229 120.998 100.43 122.895 99.2076 127.052C98.121 127.052 96.7627 126.645 94.9064 127.323C94.3178 127.549 93.9103 128.226 93.6387 129.356H92.8237C92.0087 128 91.1938 127.503 90.4241 127.865C89.6544 128.226 89.4733 129.085 89.8808 130.44L89.4733 133.602H88.613V133.648Z" fill="#06508C"/>
<path d="M98.6187 129.853C98.7998 130.214 99.1167 130.575 99.2525 130.937C99.3884 131.298 99.4789 131.795 99.5242 132.157C99.5694 132.699 98.8903 133.376 98.3018 133.376" fill="#6BB8DC"/>
<path d="M98.302 128.904C98.1209 128.904 97.9398 128.904 97.8039 128.904C97.6681 128.949 97.5323 128.949 97.3512 128.994C97.0343 129.085 96.7626 129.175 96.4004 129.22C96.5815 128.859 96.8984 128.678 97.2606 128.588C97.4417 128.542 97.6228 128.542 97.8492 128.588C98.0756 128.633 98.2567 128.723 98.302 128.904Z" fill="#06508C"/>
<path d="M98.3023 134.777C98.1212 134.822 97.9401 134.822 97.8043 134.777C97.6232 134.732 97.4874 134.641 97.3063 134.596C97.0346 134.461 96.763 134.235 96.4913 134.144L96.8082 133.964C96.8082 134.009 96.8535 134.144 96.9441 134.28C97.0346 134.416 97.1252 134.506 97.2157 134.641C97.3968 134.867 97.6232 135.138 97.8496 135.364C97.6685 135.319 97.5326 135.274 97.3515 135.184C97.2157 135.093 97.0799 135.003 96.9441 134.912C96.8082 134.822 96.6724 134.687 96.5818 134.551C96.4913 134.416 96.3555 134.235 96.3555 133.964V133.647L96.6271 133.783C96.9893 133.919 97.2157 134.144 97.4874 134.37C97.759 134.506 97.9854 134.687 98.3023 134.777Z" fill="#06508C"/>
<path d="M97.7587 130.349C97.9587 130.349 98.1209 130.187 98.1209 129.987C98.1209 129.788 97.9587 129.626 97.7587 129.626C97.5586 129.626 97.3965 129.788 97.3965 129.987C97.3965 130.187 97.5586 130.349 97.7587 130.349Z" fill="#06508C"/>
<path d="M111.296 165.047L119.401 172.909C121.755 173.903 123.702 175.032 125.196 176.207C125.513 176.613 125.921 177.381 124.291 177.065C122.706 176.704 121.031 176.433 120.714 176.93C120.397 177.426 121.302 178.24 120.759 178.917C120.397 179.369 119.129 177.923 117.047 174.625L108.625 169.656L111.296 165.047ZM71.7254 157.909L77.9735 157.954C73.2195 173.36 70.6841 181.402 70.3671 182.125C69.688 183.752 71.0915 186.236 71.7254 187.592C69.7785 188.45 70.0049 185.242 67.5148 186.372C65.251 187.411 63.5758 189.309 60.995 187.682C60.6781 187.501 60.3159 186.733 61.1761 186.191C63.2588 184.745 66.2923 182.215 66.6998 181.402C67.2884 180.273 68.9636 172.457 71.7254 157.909Z" fill="#6BB8DC"/>
<path d="M90.7871 140.199L93.2773 139.792C97.171 153.526 117.138 162.878 118.405 167.984C118.858 169.881 117.5 170.83 118.179 171.372L114.964 173.721C114.421 173.089 113.244 174.264 110.844 173.45C108.445 172.637 90.7871 156.463 90.7871 140.199Z" fill="#1174BA"/>
<path d="M94.9521 142.006C94.6804 160.168 105.184 164.821 102.83 172.095C100.883 178.104 82.3654 184.564 79.1508 178.691C77.8378 176.297 77.2492 173.405 77.204 170.288C76.389 172.682 75.7551 174.761 75.2571 176.523C74.4421 179.504 71.2275 180.001 71.2275 181.176L67.0169 180.001C67.2886 178.42 65.3417 177.652 65.8397 174.173C68.2393 158.451 74.6232 147.021 85.0367 139.973L85.1272 138.437C85.1725 137.804 85.7158 137.352 86.3497 137.398L94.0466 137.94C94.6804 137.985 95.1332 138.527 95.0879 139.16L94.9521 142.006Z" fill="#1E9ED1"/>
<path d="M-39.4301 59.9001C-41.5592 48.2448 -40.7076 40.404 -31.3397 31.7155C-25.5913 26.4176 -17.7138 26.8415 -11.9654 31.9274C-11.5396 19.6364 -1.74598 6.28579 11.667 7.34536C22.7381 8.40493 27.2091 21.1198 28.9123 30.444C37.8543 26.8415 43.6027 30.0202 45.0931 39.3444C60.848 35.318 75.1126 49.9401 71.7062 65.6218C70.0029 73.2507 63.6158 77.9128 55.9512 78.3366C49.9899 78.7604 49.5641 77.4889 45.5189 74.5221C47.2221 82.5749 21.8864 83.6345 17.8413 76.4294C8.89926 80.8796 -0.0427399 87.0251 -10.688 84.2702C-14.3074 83.4225 -17.288 81.3034 -20.0558 78.9723C-20.6945 78.3366 -27.5075 71.5554 -27.7204 71.7673C-31.9785 73.6745 -36.0236 73.8864 -39.643 70.4958C-42.8366 67.529 -43.2624 62.8669 -39.4301 59.9001Z" fill="#F45F0C"/>
<path d="M32.9976 67.13L53.8569 64.1716L34.2747 65.6508L49.8127 49.168L29.1663 69.4545L28.1021 55.9301V70.7224L10.2227 88.2618L9.37134 40.2926L18.0982 29.5154L9.37134 39.236L9.1585 24.2324L8.94565 72.2016L-16.5963 51.2811L-9.3594 57.6207L-19.5762 63.3263L-8.9337 58.0433L8.94565 74.1035V170.887L11.7127 171.099L10.2227 91.2203L32.9976 67.13Z" fill="#06508C"/>
<path d="M17.4765 161.341C17.367 154.452 19.557 144.719 25.7983 153.358C25.6888 149.968 27.9882 140.891 32.8061 142.094C34.4486 142.532 36.529 146.797 36.8575 147.671C36.4195 141.001 43.0988 130.94 50.7636 135.314C56.7859 138.704 55.3625 149.53 55.3625 155.436C55.3625 152.811 57.7714 151.718 59.6328 153.358C60.7278 154.342 61.4943 160.576 61.1658 161.888C60.5088 166.153 56.1289 167.137 52.0776 165.715C50.7636 172.386 38.6094 167.793 36.529 163.966C35.653 166.59 31.9301 166.809 30.5067 164.512C30.5067 167.246 24.4843 168.121 22.0754 167.356C19.557 166.481 18.7905 164.075 17.4765 161.341Z" fill="#1E9ED1"/>
<path d="M47.3208 138.591L42.2812 164.684L42.7113 164.766L47.7508 138.674L47.3208 138.591Z" fill="#A4D5EA"/>
<path d="M51.0262 145.63L45.1201 150.679L45.4049 151.011L51.3111 145.962L51.0262 145.63Z" fill="#A4D5EA"/>
<path d="M44.0852 155.983L40.3623 149.75L40.6908 149.531L44.4137 155.765L44.0852 155.983Z" fill="#A4D5EA"/>
<path d="M22.4605 154.879L22.0488 155.028L25.4162 164.278L25.8278 164.129L22.4605 154.879Z" fill="#A4D5EA"/>
<path d="M19.8635 157.847L19.7432 158.268L23.6386 159.379L23.7589 158.959L19.8635 157.847Z" fill="#A4D5EA"/>
<path d="M13.9727 172.058C14.1917 162.981 11.2353 149.968 2.69455 161.341C2.80405 156.857 -0.261864 144.719 -6.72218 146.25C-9.02161 146.796 -11.6495 152.592 -12.197 153.576C-11.6495 144.719 -20.6283 131.268 -30.921 137.173C-39.0238 141.766 -37.1623 156.201 -37.1623 163.965C-37.2718 160.466 -40.4472 159.044 -42.8561 161.232C-44.2796 162.544 -45.2651 170.746 -44.9366 172.605C-43.9511 178.291 -38.0383 179.494 -32.6729 177.744C-30.921 186.712 -14.4965 180.588 -11.6495 175.448C-10.4451 178.947 -5.51771 179.166 -3.54676 176.213C-3.65626 179.932 4.556 181.135 7.8409 179.932C11.0163 178.729 12.1113 175.667 13.9727 172.058Z" fill="#88C6E3"/>
<path d="M3.2428 175.886L7.84166 163.528L7.29418 163.31L2.69531 175.667L3.2428 175.886Z" fill="#06508C"/>
<path d="M5.54224 169.324L10.7981 167.793L10.6886 167.246L5.32324 168.777L5.54224 169.324Z" fill="#06508C"/>
</svg>
