<svg width="189" height="170" fill="none" xmlns="http://www.w3.org/2000/svg"><path d="M152 86l-13 43-7 37h-5l7-80h18z" fill="#600566"/><path d="M157 86l1 38 9 42-5-1c-11-25-14-37-15-40l-10-39h20z" fill="#77057A"/><path d="M167 164l1 3v3h-21l1-3h3l10-5v1l1 1 2 1 2-1h1zM133 164l1 3v3h-21l1-3h3l10-5v1l1 1 2 1 3-1z" fill="#DB8EEF"/><path d="M154 86l-5 22h-18l2-22h21z" fill="#C159D8"/><path d="M157 86c2 5 3 13 2 22h-18l-5-22h21z" fill="#C159D8"/><path d="M148 41c2-2 3-5 3-7-1-8-11-6-13-2-3 4-2 13 0 14 2 0 4 0 6-2l-1 10h8l-3-13z" fill="#600566"/><path d="M145 40c2 2 3 4 5 4s4-4 4-8c3 2 6 5 10 5 5 0 7-10 0-10-6 0-8 1-10 2l-2-3-1-1h-1l-5-1h-1c0-2-2-3-4-3s-4 1-4 3 2 4 4 4h4a9 9 0 000 4l1-1 2 3c0 1 0 2-2 2z" fill="#C159D8"/><path d="M178 99v-1h-2l1 1h1v1l1-1h-1zM179 97v-1h-1v1h1l1 1v-1h-1zM181 95v-1h-1v1h2-1z" fill="#9E2DAD"/><path d="M158 139c2-2 5-2 7-5 4-7-4-13-4-13s-6-7-14-3c-3 2-3 5-4 7-2 2-9 1-14 6-8 9 3 18 4 19s11 11 19 3c6-6 4-12 6-14z" fill="#FCBF35"/><path d="M184 104h-1l-1-1 1 1v1h1v-1zM186 102h-1v-1h-1l1 1v1h1v-1zM188 100h-1v-1 2l1 1v-2z" fill="#9E2DAD"/><path d="M148 135c-2-2-2-6 0-8 1-2 5-2 7 0s2 5 0 7-5 2-7 1z" fill="#DB8EEF"/><path d="M181 104l-4-3-26 26 4 5 26-28z" fill="#77057A"/><path d="M149 134c-2-2-2-4 0-6h5c2 2 2 4 0 5-1 2-3 2-5 1z" fill="#9E2DAD"/><path d="M137 138l8 7-2 2-8-7 2-2zM187 99l-6 5-4-3 5-6 3-1 2 1 1 1-1 3zm-6 1l3-4v-1l-1 1-3 3v1h1zm5-1v-1h-1l-3 3v1h1l3-3z" fill="#DB8EEF"/><path d="M176 102l4 3h-1l-3-3zM172 107l3 3-3-3zM167 112l3 3-3-3zM163 116l3 3-4-2 1-1zM158 121l3 3-3-3zM153 126l4 3h-1l-3-3z" fill="#FCBF35"/><path d="M181 104l-3-3h-1l4 3z" fill="#9E2DAD"/><path d="M177 101l1 1-39 39 38-40zM178 102l-39 40 39-40zM179 102v1l-39 39 39-40zM179 103l-38 40h-1l39-40zM180 103v1l-39 39 39-40zM180 104l-38 40 38-40z" fill="#F9F1FD"/><path d="M137 140l6 5-1 1-5-6z" fill="#9E2DAD"/><path d="M123 79l-10 10-8 4s-1 1 1 1h5v2l4-5 11-6-3-6zm45 1h-7l7 24c1 2-1 5-1 6 2 1 2-3 5-1 2 0 1 1 1 3l4-1s3-3 2-4l-6-4-5-23z" fill="#600566"/><path d="M147 50l-3-1c-6 13-15 25-29 36l11 12c13-16 21-31 21-47z" fill="#DB8EEF"/><path d="M160 88h-27c6-16 9-28 9-39l9-1c6 10 8 23 9 40z" fill="#EDC4FC"/><path d="M151 48h-1-3l-2 5-3 42h18v4h13c-2-22-9-39-22-51z" fill="#DB8EEF"/><path d="M159 76c-1 9-2 16-4 19h5l-1-19z" fill="#C159D8"/><path d="M156 84l-9-4v4h9z" fill="#fff" fill-opacity=".2"/><path d="M105 54c5 0 9-4 9-8 0-5-4-9-9-9s-9 4-9 9c0 4 4 8 9 8z" fill="#FCA306"/><path d="M32 51c2 7 41 20 41 21l-5 26 3 1c8-19 11-30 10-31-2-3-12-9-32-20l-17 3z" fill="#D16DEA"/><path d="M68 95l5 1c8-14 10-24 8-28-1-3-11-10-32-20l-17 4c4 16 39 21 39 22l-3 21z" fill="#9E2DAD"/><path d="M67 98l-1 2v2a516 516 0 0117 0h-3l-7-5h-1v1l-3 1-2-1c1 0 0 0 0 0z" fill="#77057A"/><path d="M34 48L19 84 4 114h3l40-66H34z" fill="#D16DEA"/><path d="M3 113v4h17l-1-2-2-1-8-3-1 1-2 1-2-1-1 1z" fill="#77057A"/><path d="M5 108l8 1c6-8 32-44 35-61H30C20 60 11 99 5 108z" fill="#C159D8"/><path d="M36 11l-2-6c1-6 9-5 11-2s2 11-1 12l-4-2 1 9h-7l2-11z" fill="#D16DEA"/><path d="M40 6c0 3 1 5 2 5l4-1v1l-2 2h2l-1 2c-1 0-5 0-5-2l-1-7c-2 0-2 1-2 2v1l-1 2c-2-1-4-4-2-8l3-2 4-1 4 1c0 2 0 3-3 2l-2 3z" fill="#9E2DAD"/><path d="M59 38l11-4 5-4s2 0 0 1l-1 3 2 1-6 2-8 6-3-5zm-44 2l6 1-10 18v5c-2 1-1-2-4-2-2 1-4 3-7 0l1-1 6-4 8-17z" fill="#D16DEA"/><path d="M38 18l2-1c6 5 8 18 12 20 4 1 8 0 15-2l2 4c-6 5-18 10-22 7-8-4-10-19-9-28z" fill="#FCA306"/><path d="M26 49h23l1-2c-2-9-8-18-8-30l-7-1c-6 9-8 19-9 33z" fill="#EDC4FC"/><path d="M24 40L12 58l-5-1c4-18 13-32 27-41h3c6 20 7 33 5 39H21l3-15z" fill="#FCBF35"/></svg>