<svg width="220" height="194" viewBox="0 0 220 194" fill="none" xmlns="http://www.w3.org/2000/svg">
<path d="M296.001 0H155.353V3.27993H296.001V0Z" fill="#14662A"/>
<path d="M295.999 3.27734H155.351V53.5695H295.999V3.27734Z" fill="#16994A"/>
<path d="M159.398 9.89647C159.693 9.89647 159.933 9.66474 159.933 9.3789C159.933 9.09305 159.693 8.86133 159.398 8.86133C159.102 8.86133 158.862 9.09305 158.862 9.3789C158.862 9.66474 159.102 9.89647 159.398 9.89647Z" fill="#14662A"/>
<path d="M167.195 9.89549C167.49 9.89549 167.73 9.66376 167.73 9.37792C167.73 9.09207 167.49 8.86035 167.195 8.86035C166.899 8.86035 166.659 9.09207 166.659 9.37792C166.659 9.66376 166.899 9.89549 167.195 9.89549Z" fill="#14662A"/>
<path d="M174.992 9.89549C175.288 9.89549 175.528 9.66376 175.528 9.37792C175.528 9.09207 175.288 8.86035 174.992 8.86035C174.697 8.86035 174.457 9.09207 174.457 9.37792C174.457 9.66376 174.697 9.89549 174.992 9.89549Z" fill="#14662A"/>
<path d="M182.849 9.89549C183.145 9.89549 183.384 9.66376 183.384 9.37792C183.384 9.09207 183.145 8.86035 182.849 8.86035C182.553 8.86035 182.313 9.09207 182.313 9.37792C182.313 9.66376 182.553 9.89549 182.849 9.89549Z" fill="#14662A"/>
<path d="M190.646 9.89549C190.941 9.89549 191.181 9.66376 191.181 9.37792C191.181 9.09207 190.941 8.86035 190.646 8.86035C190.35 8.86035 190.11 9.09207 190.11 9.37792C190.11 9.66376 190.35 9.89549 190.646 9.89549Z" fill="#14662A"/>
<path d="M198.444 9.89549C198.739 9.89549 198.979 9.66376 198.979 9.37792C198.979 9.09207 198.739 8.86035 198.444 8.86035C198.148 8.86035 197.908 9.09207 197.908 9.37792C197.908 9.66376 198.148 9.89549 198.444 9.89549Z" fill="#14662A"/>
<path d="M206.241 9.89549C206.537 9.89549 206.777 9.66376 206.777 9.37792C206.777 9.09207 206.537 8.86035 206.241 8.86035C205.946 8.86035 205.706 9.09207 205.706 9.37792C205.706 9.66376 205.946 9.89549 206.241 9.89549Z" fill="#14662A"/>
<path d="M214.098 9.83593C214.394 9.83593 214.633 9.6042 214.633 9.31836C214.633 9.03251 214.394 8.80078 214.098 8.80078C213.802 8.80078 213.562 9.03251 213.562 9.31836C213.562 9.6042 213.802 9.83593 214.098 9.83593Z" fill="#14662A"/>
<path d="M159.398 16.1621C159.693 16.1621 159.933 15.9304 159.933 15.6445C159.933 15.3587 159.693 15.127 159.398 15.127C159.102 15.127 158.862 15.3587 158.862 15.6445C158.862 15.9304 159.102 16.1621 159.398 16.1621Z" fill="#14662A"/>
<path d="M167.196 16.1074C167.491 16.1074 167.731 15.8757 167.731 15.5898C167.731 15.304 167.491 15.0723 167.196 15.0723C166.9 15.0723 166.66 15.304 166.66 15.5898C166.66 15.8757 166.9 16.1074 167.196 16.1074Z" fill="#14662A"/>
<path d="M174.993 16.1074C175.289 16.1074 175.529 15.8757 175.529 15.5898C175.529 15.304 175.289 15.0723 174.993 15.0723C174.698 15.0723 174.458 15.304 174.458 15.5898C174.458 15.8757 174.698 16.1074 174.993 16.1074Z" fill="#14662A"/>
<path d="M182.85 16.1074C183.145 16.1074 183.385 15.8757 183.385 15.5898C183.385 15.304 183.145 15.0723 182.85 15.0723C182.554 15.0723 182.314 15.304 182.314 15.5898C182.314 15.8757 182.554 16.1074 182.85 16.1074Z" fill="#14662A"/>
<path d="M190.647 16.1074C190.942 16.1074 191.182 15.8757 191.182 15.5898C191.182 15.304 190.942 15.0723 190.647 15.0723C190.351 15.0723 190.111 15.304 190.111 15.5898C190.111 15.8757 190.351 16.1074 190.647 16.1074Z" fill="#14662A"/>
<path d="M198.445 16.1074C198.74 16.1074 198.98 15.8757 198.98 15.5898C198.98 15.304 198.74 15.0723 198.445 15.0723C198.149 15.0723 197.909 15.304 197.909 15.5898C197.909 15.8757 198.149 16.1074 198.445 16.1074Z" fill="#14662A"/>
<path d="M206.241 16.1074C206.537 16.1074 206.777 15.8757 206.777 15.5898C206.777 15.304 206.537 15.0723 206.241 15.0723C205.946 15.0723 205.706 15.304 205.706 15.5898C205.706 15.8757 205.946 16.1074 206.241 16.1074Z" fill="#14662A"/>
<path d="M214.098 16.1074C214.394 16.1074 214.633 15.8757 214.633 15.5898C214.633 15.304 214.394 15.0723 214.098 15.0723C213.802 15.0723 213.562 15.304 213.562 15.5898C213.562 15.8757 213.802 16.1074 214.098 16.1074Z" fill="#14662A"/>
<path d="M159.398 22.3809C159.693 22.3809 159.933 22.1491 159.933 21.8633C159.933 21.5774 159.693 21.3457 159.398 21.3457C159.102 21.3457 158.862 21.5774 158.862 21.8633C158.862 22.1491 159.102 22.3809 159.398 22.3809Z" fill="#14662A"/>
<path d="M167.195 22.3828C167.49 22.3828 167.73 22.1511 167.73 21.8652C167.73 21.5794 167.49 21.3477 167.195 21.3477C166.899 21.3477 166.659 21.5794 166.659 21.8652C166.659 22.1511 166.899 22.3828 167.195 22.3828Z" fill="#14662A"/>
<path d="M174.992 22.3828C175.288 22.3828 175.528 22.1511 175.528 21.8652C175.528 21.5794 175.288 21.3477 174.992 21.3477C174.697 21.3477 174.457 21.5794 174.457 21.8652C174.457 22.1511 174.697 22.3828 174.992 22.3828Z" fill="#14662A"/>
<path d="M182.849 22.3232C183.145 22.3232 183.384 22.0915 183.384 21.8057C183.384 21.5198 183.145 21.2881 182.849 21.2881C182.553 21.2881 182.313 21.5198 182.313 21.8057C182.313 22.0915 182.553 22.3232 182.849 22.3232Z" fill="#14662A"/>
<path d="M190.646 22.3232C190.941 22.3232 191.181 22.0915 191.181 21.8057C191.181 21.5198 190.941 21.2881 190.646 21.2881C190.35 21.2881 190.11 21.5198 190.11 21.8057C190.11 22.0915 190.35 22.3232 190.646 22.3232Z" fill="#14662A"/>
<path d="M198.444 22.3232C198.739 22.3232 198.979 22.0915 198.979 21.8057C198.979 21.5198 198.739 21.2881 198.444 21.2881C198.148 21.2881 197.908 21.5198 197.908 21.8057C197.908 22.0915 198.148 22.3232 198.444 22.3232Z" fill="#14662A"/>
<path d="M206.24 22.3232C206.536 22.3232 206.776 22.0915 206.776 21.8057C206.776 21.5198 206.536 21.2881 206.24 21.2881C205.945 21.2881 205.705 21.5198 205.705 21.8057C205.705 22.0915 205.945 22.3232 206.24 22.3232Z" fill="#14662A"/>
<path d="M214.098 22.3232C214.394 22.3232 214.633 22.0915 214.633 21.8057C214.633 21.5198 214.394 21.2881 214.098 21.2881C213.802 21.2881 213.562 21.5198 213.562 21.8057C213.562 22.0915 213.802 22.3232 214.098 22.3232Z" fill="#14662A"/>
<path d="M159.398 28.5928C159.693 28.5928 159.933 28.361 159.933 28.0752C159.933 27.7893 159.693 27.5576 159.398 27.5576C159.102 27.5576 158.862 27.7893 158.862 28.0752C158.862 28.361 159.102 28.5928 159.398 28.5928Z" fill="#14662A"/>
<path d="M167.195 28.5976C167.49 28.5976 167.73 28.3659 167.73 28.0801C167.73 27.7942 167.49 27.5625 167.195 27.5625C166.899 27.5625 166.659 27.7942 166.659 28.0801C166.659 28.3659 166.899 28.5976 167.195 28.5976Z" fill="#14662A"/>
<path d="M174.992 28.5976C175.288 28.5976 175.528 28.3659 175.528 28.0801C175.528 27.7942 175.288 27.5625 174.992 27.5625C174.697 27.5625 174.457 27.7942 174.457 28.0801C174.457 28.3659 174.697 28.5976 174.992 28.5976Z" fill="#14662A"/>
<path d="M182.849 28.5976C183.144 28.5976 183.384 28.3659 183.384 28.0801C183.384 27.7942 183.144 27.5625 182.849 27.5625C182.553 27.5625 182.313 27.7942 182.313 28.0801C182.313 28.3659 182.553 28.5976 182.849 28.5976Z" fill="#14662A"/>
<path d="M190.646 28.5976C190.941 28.5976 191.181 28.3659 191.181 28.0801C191.181 27.7942 190.941 27.5625 190.646 27.5625C190.35 27.5625 190.11 27.7942 190.11 28.0801C190.11 28.3659 190.35 28.5976 190.646 28.5976Z" fill="#14662A"/>
<path d="M198.444 28.5976C198.739 28.5976 198.979 28.3659 198.979 28.0801C198.979 27.7942 198.739 27.5625 198.444 27.5625C198.148 27.5625 197.908 27.7942 197.908 28.0801C197.908 28.3659 198.148 28.5976 198.444 28.5976Z" fill="#14662A"/>
<path d="M206.241 28.5381C206.537 28.5381 206.777 28.3064 206.777 28.0205C206.777 27.7347 206.537 27.5029 206.241 27.5029C205.946 27.5029 205.706 27.7347 205.706 28.0205C205.706 28.3064 205.946 28.5381 206.241 28.5381Z" fill="#14662A"/>
<path d="M214.098 28.5381C214.394 28.5381 214.633 28.3064 214.633 28.0205C214.633 27.7347 214.394 27.5029 214.098 27.5029C213.802 27.5029 213.562 27.7347 213.562 28.0205C213.562 28.3064 213.802 28.5381 214.098 28.5381Z" fill="#14662A"/>
<path d="M159.398 34.8066C159.693 34.8066 159.933 34.5749 159.933 34.2891C159.933 34.0032 159.693 33.7715 159.398 33.7715C159.102 33.7715 158.862 34.0032 158.862 34.2891C158.862 34.5749 159.102 34.8066 159.398 34.8066Z" fill="#14662A"/>
<path d="M167.195 34.8056C167.49 34.8056 167.73 34.5739 167.73 34.2881C167.73 34.0022 167.49 33.7705 167.195 33.7705C166.899 33.7705 166.659 34.0022 166.659 34.2881C166.659 34.5739 166.899 34.8056 167.195 34.8056Z" fill="#14662A"/>
<path d="M174.992 34.8056C175.288 34.8056 175.528 34.5739 175.528 34.2881C175.528 34.0022 175.288 33.7705 174.992 33.7705C174.697 33.7705 174.457 34.0022 174.457 34.2881C174.457 34.5739 174.697 34.8056 174.992 34.8056Z" fill="#14662A"/>
<path d="M182.849 34.8056C183.145 34.8056 183.384 34.5739 183.384 34.2881C183.384 34.0022 183.145 33.7705 182.849 33.7705C182.553 33.7705 182.313 34.0022 182.313 34.2881C182.313 34.5739 182.553 34.8056 182.849 34.8056Z" fill="#14662A"/>
<path d="M190.646 34.8056C190.941 34.8056 191.181 34.5739 191.181 34.2881C191.181 34.0022 190.941 33.7705 190.646 33.7705C190.35 33.7705 190.11 34.0022 190.11 34.2881C190.11 34.5739 190.35 34.8056 190.646 34.8056Z" fill="#14662A"/>
<path d="M198.444 34.8056C198.739 34.8056 198.979 34.5739 198.979 34.2881C198.979 34.0022 198.739 33.7705 198.444 33.7705C198.148 33.7705 197.908 34.0022 197.908 34.2881C197.908 34.5739 198.148 34.8056 198.444 34.8056Z" fill="#14662A"/>
<path d="M206.24 34.8056C206.536 34.8056 206.776 34.5739 206.776 34.2881C206.776 34.0022 206.536 33.7705 206.24 33.7705C205.945 33.7705 205.705 34.0022 205.705 34.2881C205.705 34.5739 205.945 34.8056 206.24 34.8056Z" fill="#14662A"/>
<path d="M214.098 34.8056C214.394 34.8056 214.633 34.5739 214.633 34.2881C214.633 34.0022 214.394 33.7705 214.098 33.7705C213.802 33.7705 213.562 34.0022 213.562 34.2881C213.562 34.5739 213.802 34.8056 214.098 34.8056Z" fill="#14662A"/>
<path d="M159.575 41.0801C159.871 41.0801 160.111 40.8483 160.111 40.5625C160.111 40.2766 159.871 40.0449 159.575 40.0449C159.28 40.0449 159.04 40.2766 159.04 40.5625C159.04 40.8483 159.28 41.0801 159.575 41.0801Z" fill="#14662A"/>
<path d="M167.372 41.081C167.668 41.081 167.908 40.8493 167.908 40.5635C167.908 40.2776 167.668 40.0459 167.372 40.0459C167.077 40.0459 166.837 40.2776 166.837 40.5635C166.837 40.8493 167.077 41.081 167.372 41.081Z" fill="#14662A"/>
<path d="M175.17 41.0215C175.466 41.0215 175.706 40.7897 175.706 40.5039C175.706 40.2181 175.466 39.9863 175.17 39.9863C174.874 39.9863 174.635 40.2181 174.635 40.5039C174.635 40.7897 174.874 41.0215 175.17 41.0215Z" fill="#14662A"/>
<path d="M182.967 41.0215C183.263 41.0215 183.502 40.7897 183.502 40.5039C183.502 40.2181 183.263 39.9863 182.967 39.9863C182.671 39.9863 182.432 40.2181 182.432 40.5039C182.432 40.7897 182.671 41.0215 182.967 41.0215Z" fill="#14662A"/>
<path d="M190.823 41.0215C191.119 41.0215 191.359 40.7897 191.359 40.5039C191.359 40.2181 191.119 39.9863 190.823 39.9863C190.528 39.9863 190.288 40.2181 190.288 40.5039C190.288 40.7897 190.528 41.0215 190.823 41.0215Z" fill="#14662A"/>
<path d="M198.621 41.0215C198.917 41.0215 199.157 40.7897 199.157 40.5039C199.157 40.2181 198.917 39.9863 198.621 39.9863C198.326 39.9863 198.086 40.2181 198.086 40.5039C198.086 40.7897 198.326 41.0215 198.621 41.0215Z" fill="#14662A"/>
<path d="M206.419 41.0215C206.715 41.0215 206.955 40.7897 206.955 40.5039C206.955 40.2181 206.715 39.9863 206.419 39.9863C206.123 39.9863 205.884 40.2181 205.884 40.5039C205.884 40.7897 206.123 41.0215 206.419 41.0215Z" fill="#14662A"/>
<path d="M214.216 41.0215C214.512 41.0215 214.751 40.7897 214.751 40.5039C214.751 40.2181 214.512 39.9863 214.216 39.9863C213.92 39.9863 213.681 40.2181 213.681 40.5039C213.681 40.7897 213.92 41.0215 214.216 41.0215Z" fill="#14662A"/>
<path d="M159.576 47.2939C159.872 47.2939 160.112 47.0622 160.112 46.7764C160.112 46.4905 159.872 46.2588 159.576 46.2588C159.281 46.2588 159.041 46.4905 159.041 46.7764C159.041 47.0622 159.281 47.2939 159.576 47.2939Z" fill="#14662A"/>
<path d="M167.373 47.2988C167.669 47.2988 167.909 47.0671 167.909 46.7812C167.909 46.4954 167.669 46.2637 167.373 46.2637C167.078 46.2637 166.838 46.4954 166.838 46.7812C166.838 47.0671 167.078 47.2988 167.373 47.2988Z" fill="#14662A"/>
<path d="M175.171 47.2988C175.467 47.2988 175.706 47.0671 175.706 46.7812C175.706 46.4954 175.467 46.2637 175.171 46.2637C174.875 46.2637 174.636 46.4954 174.636 46.7812C174.636 47.0671 174.875 47.2988 175.171 47.2988Z" fill="#14662A"/>
<path d="M182.967 47.2988C183.263 47.2988 183.502 47.0671 183.502 46.7812C183.502 46.4954 183.263 46.2637 182.967 46.2637C182.671 46.2637 182.432 46.4954 182.432 46.7812C182.432 47.0671 182.671 47.2988 182.967 47.2988Z" fill="#14662A"/>
<path d="M190.824 47.2988C191.12 47.2988 191.36 47.0671 191.36 46.7812C191.36 46.4954 191.12 46.2637 190.824 46.2637C190.529 46.2637 190.289 46.4954 190.289 46.7812C190.289 47.0671 190.529 47.2988 190.824 47.2988Z" fill="#14662A"/>
<path d="M198.622 47.2392C198.918 47.2392 199.158 47.0075 199.158 46.7217C199.158 46.4358 198.918 46.2041 198.622 46.2041C198.327 46.2041 198.087 46.4358 198.087 46.7217C198.087 47.0075 198.327 47.2392 198.622 47.2392Z" fill="#14662A"/>
<path d="M206.42 47.2392C206.716 47.2392 206.956 47.0075 206.956 46.7217C206.956 46.4358 206.716 46.2041 206.42 46.2041C206.124 46.2041 205.885 46.4358 205.885 46.7217C205.885 47.0075 206.124 47.2392 206.42 47.2392Z" fill="#14662A"/>
<path d="M214.217 47.2392C214.513 47.2392 214.752 47.0075 214.752 46.7217C214.752 46.4358 214.513 46.2041 214.217 46.2041C213.921 46.2041 213.682 46.4358 213.682 46.7217C213.682 47.0075 213.921 47.2392 214.217 47.2392Z" fill="#14662A"/>
<path d="M22.2606 156.4L25.5342 164.226L55.2354 169.29L43.7478 179.705L12.8562 170.383L11.3682 165.319L20.2964 154.616L22.2606 156.4Z" fill="#093509"/>
<path d="M32.914 168.598L35.2353 169.461C35.4139 169.518 35.5329 169.749 35.4139 169.921C35.0568 170.784 34.1044 173.144 34.4616 175.215C34.7592 176.941 35.533 178.553 36.0686 179.416C36.3067 179.819 36.1877 180.394 35.771 180.682C35.2949 181.027 34.5806 180.854 34.283 180.336C33.4497 178.725 32.1998 175.273 33.3307 170.842C33.4497 170.266 33.3307 169.691 32.8545 169.231L32.6164 169.001C32.5569 168.943 32.4974 168.828 32.5569 168.77C32.5569 168.598 32.7354 168.54 32.914 168.598Z" fill="#095411"/>
<path d="M37.0792 166.356C37.1387 166.184 37.1387 166.011 37.0792 165.896C37.0197 165.723 36.9601 165.493 36.8411 165.378L37.0197 163.882C37.0792 163.249 36.9601 162.673 36.603 162.156L35.2935 160.142L34.9364 160.199C34.9364 160.199 35.0555 161.005 35.2935 162.098C35.6507 162.098 35.9483 162.386 36.0078 162.731C36.0673 163.076 35.8888 163.422 35.5316 163.537C35.5912 163.939 35.7102 164.4 35.7697 164.86C35.7102 164.86 35.6507 164.86 35.5912 164.86C35.5316 164.86 35.4721 164.918 35.4126 164.918C35.3531 164.457 35.234 164.054 35.1745 163.594C34.8174 163.537 34.5198 163.306 34.4603 162.961C34.4007 162.616 34.5793 162.271 34.9364 162.156C34.7579 161.062 34.5793 160.257 34.5793 160.257L34.2222 160.314L33.6865 162.673C33.5674 163.249 33.627 163.882 33.865 164.457L34.5793 165.838C34.5198 166.011 34.5198 166.241 34.5198 166.414C34.5198 166.586 34.6388 166.759 34.6983 166.874L33.9841 169.061L35.2935 169.579L35.8888 167.565V167.507C35.9483 167.507 36.0078 167.507 36.0673 167.507C36.1268 167.507 36.1864 167.449 36.2459 167.449V167.507L37.4958 169.233L38.5672 168.313L37.0792 166.356Z" fill="#25B759"/>
<path d="M39.2828 167.505L37.4376 169.116C37.2591 169.231 37.2591 169.462 37.4376 169.634C38.0924 170.325 39.759 172.224 40.1756 174.353C40.4732 176.079 40.2947 177.863 40.1161 178.841C40.0566 179.301 40.3542 179.762 40.8303 179.934C41.4256 180.107 42.0208 179.704 42.0803 179.129C42.3184 177.345 42.3184 173.662 39.6994 169.864C39.3423 169.347 39.3423 168.771 39.5804 168.196L39.759 167.85C39.8185 167.793 39.8185 167.678 39.759 167.62C39.6399 167.448 39.4018 167.39 39.2828 167.505Z" fill="#095411"/>
<path d="M35.9082 166.796C36.3291 166.726 36.6116 166.339 36.5391 165.932C36.4667 165.525 36.0668 165.252 35.6459 165.322C35.225 165.392 34.9425 165.779 35.0149 166.186C35.0874 166.593 35.4873 166.866 35.9082 166.796Z" fill="#095411"/>
<path d="M68.3304 158.532L60.1165 161.351C59.7593 161.466 59.5808 161.869 59.6998 162.157L61.2474 166.3H61.3069C61.664 166.472 63.8068 167.566 64.4615 167.968L66.3662 169.004C66.5448 169.119 66.7233 169.119 66.9019 169.062L71.6041 167.451C72.2588 167.22 72.6159 166.53 72.3779 165.897L69.9375 159.28C69.6994 158.647 68.9851 158.301 68.3304 158.532ZM70.8898 165.897L68.5685 166.703C67.7947 166.933 67.0209 166.587 66.7233 165.839L65.4734 162.444C65.2353 161.696 65.5924 160.948 66.3662 160.661L68.6875 159.855L70.8898 165.897Z" fill="#137F3A"/>
<path d="M32.7363 171.479L59.6995 162.215L61.247 166.358C61.247 166.358 64.7588 168.142 64.5802 168.199C64.4017 168.257 63.3898 170.904 63.3898 170.904L62.616 169.983L62.0208 171.076L61.1875 170.213L60.7709 171.364L59.8781 170.443L59.3424 171.652L58.5091 170.674L57.9734 171.767L57.0806 170.904L56.6044 172.112L55.8306 171.076L55.3544 172.342L54.4616 171.307L53.9854 172.515L53.0926 171.594L52.6165 172.688L51.7236 171.767L51.1879 172.975L50.4142 171.997L49.938 173.09L49.1047 172.285L48.5095 173.378L47.6762 172.515L47.2 173.608L46.3667 172.688L45.712 173.896L44.9977 172.975L44.5216 174.241L43.5692 173.321L43.093 174.471L42.2002 173.551L41.6645 174.759L40.8312 173.838L40.236 175.047L39.4622 174.126L38.9861 175.219L38.0932 174.356L37.6171 175.45L36.7838 174.586L36.3076 175.68L35.4743 174.817L34.8196 175.795L34.1053 175.162L32.7363 171.479Z" fill="#25B759"/>
<path d="M61.7032 162.764C61.9508 162.679 62.08 162.416 61.9918 162.176C61.9036 161.937 61.6314 161.812 61.3838 161.897C61.1363 161.983 61.007 162.246 61.0953 162.485C61.1835 162.724 61.4557 162.849 61.7032 162.764Z" fill="#093509"/>
<path d="M62.7169 165.464C62.9645 165.379 63.0937 165.116 63.0055 164.877C62.9173 164.637 62.6451 164.512 62.3975 164.598C62.1499 164.683 62.0207 164.946 62.1089 165.185C62.1971 165.425 62.4693 165.55 62.7169 165.464Z" fill="#093509"/>
<path d="M20.2976 154.616L9.3457 167.16L47.7369 174.296L56.0104 160.543L20.2976 154.616ZM46.1299 171.994L13.2741 166.01L20.8928 157.033L52.082 162.384L46.1299 171.994Z" fill="#137F3A"/>
<path d="M9.3457 167.163L11.7266 178.672L49.225 186.152L47.7369 174.298L9.3457 167.163Z" fill="#14662A"/>
<path d="M56.0088 160.547L47.7354 174.3L49.2234 186.153L59.342 182.528L62.2586 172.401L56.0088 160.547Z" fill="#095411"/>
<path d="M5.29721 163.709C4.22583 159.681 7.55902 157.15 7.55902 157.15L9.28514 155.941C9.40418 155.884 9.52322 155.884 9.64227 155.941C10.1184 156.171 10.7137 156.114 11.1898 155.826C11.666 155.481 11.9041 154.963 11.785 154.445C11.785 154.33 11.8446 154.215 11.9041 154.1L13.4516 153.007C13.5707 152.949 13.6897 152.949 13.7492 153.064L15.5349 155.481C15.5944 155.596 15.5944 155.711 15.4754 155.769L13.9278 156.862C13.8088 156.919 13.6897 156.919 13.5707 156.862C13.0945 156.632 12.4993 156.689 12.0231 156.977C11.9636 156.977 11.9636 157.035 11.9041 157.035C11.3684 157.495 11.3089 158.358 11.7255 158.933L12.0826 159.394L17.6181 166.759L14.2254 166.126L10.178 160.66L9.58275 159.854C7.38046 159.221 6.13051 162.271 5.65434 163.652C5.59481 163.882 5.29721 163.882 5.29721 163.709Z" fill="#4ED875"/>
<path d="M42.7951 171.593L43.7475 171.018L44.2831 171.824L45.1164 171.306L44.4022 170.212L43.6879 169.119L42.8546 169.637L43.3903 170.5L41.8428 171.421" fill="#4ED875"/>
<path d="M45.3551 168.141L43.6885 169.119L45.117 171.305L46.7836 170.327H47.4978C47.855 170.327 48.2121 170.212 48.5692 170.039L53.2714 167.22C53.569 167.047 53.6881 166.644 53.45 166.357L52.7357 165.263L52.0215 164.17C51.8429 163.882 51.4262 163.767 51.1286 163.997L46.4265 166.817C46.1288 166.99 45.8312 167.277 45.7122 167.623L45.3551 168.141Z" fill="#062806"/>
<path d="M52.2646 165.929L47.415 168.851L47.8242 169.485L52.6737 166.564L52.2646 165.929Z" fill="#4ED875"/>
<path d="M51.4354 164.669L46.5859 167.59L46.9951 168.225L51.8446 165.304L51.4354 164.669Z" fill="#4ED875"/>
<path d="M1.54688 79.1762L47.5568 71.8107L49.9377 52.1312L50.4139 41.0255L49.1044 18.5264L8.92751 19.7348L4.99911 22.2091L3.03491 28.9416L4.28485 40.6227L4.76102 51.7859L4.28485 60.8776L3.39203 70.0269L1.54688 79.1762Z" fill="#16994A"/>
<path d="M47.5573 71.8142L46.0098 71.4689C46.0098 71.4114 48.1525 62.78 48.7477 58.119C49.9382 49.0273 49.8787 38.7848 48.6882 25.8377V25.6076C48.3906 22.2125 47.974 18.3572 49.7596 15.1348C50.7715 13.351 52.7952 11.7398 54.9975 12.3728C57.3783 13.0633 58.3902 16.113 59.0449 18.127C59.1045 18.3572 59.164 18.5874 59.283 18.76L57.7355 19.2779C57.6759 19.1053 57.6164 18.8751 57.4974 18.6449C56.9617 16.9762 56.1284 14.3868 54.5213 13.9264C53.2714 13.5812 51.9024 14.6745 51.1881 15.9404C49.6406 18.76 49.9977 22.155 50.2953 25.4925V25.7226C51.5452 38.7272 51.5452 49.0849 50.3548 58.2917C49.7596 63.0677 47.6764 71.4689 47.5573 71.8142Z" fill="white"/>
<path d="M7.14258 19.6803L8.80918 19.22L53.5692 12.1422C53.5692 12.1422 57.4381 11.0489 59.2237 18.7596L13.2138 26.1251C13.1542 26.1251 12.2614 23.2479 12.0829 22.9027C11.6067 21.8669 10.7734 20.9462 9.82104 20.2557C8.98774 19.7378 8.09492 19.7378 7.14258 19.6803Z" fill="#83E59C"/>
<path d="M59.0601 18.1802L13.0674 25.7998L13.188 26.4804L59.1808 18.8607L59.0601 18.1802Z" fill="#137F3A"/>
<path d="M5.47506 131.199C5.41554 131.199 5.41554 131.199 5.35602 131.199C4.58224 131.142 4.04655 130.509 4.10607 129.76L12.4391 31.8807C12.4986 31.1327 13.1533 30.6148 13.9271 30.6723C14.7009 30.7299 15.2366 31.3628 15.177 32.1109L6.84405 129.991C6.78453 130.681 6.18932 131.199 5.47506 131.199Z" fill="#14662A"/>
<path d="M28.6294 154.041C27.8556 154.041 27.2604 153.466 27.2604 152.718L25.6533 91.55C25.6533 90.8019 26.2485 90.1689 27.0223 90.1689C27.7961 90.1689 28.4508 90.7444 28.4508 91.4924L30.0579 152.66C30.0579 153.408 29.4032 154.041 28.6294 154.041Z" fill="#14662A"/>
<path d="M74.5204 140.177C73.8656 140.177 73.2704 139.717 73.1514 139.084L62.9732 84.1884C62.8542 83.4403 63.3304 82.7498 64.1041 82.6347C64.8779 82.5197 65.5922 82.98 65.7112 83.7281L75.8894 138.624C76.0084 139.372 75.5322 140.062 74.7585 140.177C74.6394 140.177 74.5799 140.177 74.5204 140.177Z" fill="#14662A"/>
<path d="M13.1533 26.122L22.8553 92.6986L69.9962 82.8013L59.1633 18.5264L13.1533 26.122Z" fill="#83E59C"/>
<path d="M13.1532 26.1249C12.6175 23.8232 11.4271 20.4857 8.92722 19.7376C6.72493 19.1047 4.70121 20.7734 3.68935 22.4997C1.90371 25.7221 2.26083 29.5774 2.61796 32.9724V33.2026C3.86791 46.0921 3.86791 56.3922 2.67748 65.4839C2.08227 70.1449 0.0585448 78.3734 -0.000976562 78.431L1.48706 79.179C1.54658 78.8338 3.68935 70.4326 4.28456 65.6566C5.47499 56.4498 5.47499 46.0921 4.22504 33.0875V32.8573C3.92743 29.5199 3.57031 26.0673 5.11786 23.3053C5.83212 22.0393 7.20111 20.946 8.45105 21.2913C12.0223 22.3271 12.0819 29.635 12.4985 32.6847C13.2723 37.9211 14.0461 43.1574 14.8198 48.3938C15.7722 54.781 16.7245 61.2258 17.6769 67.613C18.5102 73.1371 19.3435 78.6612 20.1172 84.1852C20.4744 86.7747 20.7124 88.2708 21.0696 90.8602L21.1886 92.0686L22.6766 92.7015C22.379 90.5725 22.0814 88.4434 21.7243 86.3143C20.9505 81.193 20.2363 76.0142 19.4625 70.8929C18.5697 64.6208 17.6173 58.3487 16.7245 52.019C15.8912 46.4374 15.1174 40.9133 14.2841 35.3317C13.8675 32.397 13.5699 29.4048 12.9747 26.4701C13.2128 26.355 13.1532 26.24 13.1532 26.1249Z" fill="#137F3A"/>
<path d="M18.749 45.172C18.8684 45.0566 18.9878 45.0566 19.1072 45.0566C19.1669 45.0566 19.1669 45.1143 19.1669 45.1143L19.1072 45.2298C19.0475 45.2298 18.9281 45.2297 18.749 45.172C18.749 45.2297 18.749 45.172 18.749 45.172Z" fill="#16994A"/>
<path d="M40.2971 46.8409C40.1185 46.9559 39.9399 47.071 39.8209 47.1286C39.4638 47.3587 39.1066 47.5889 38.7495 47.8191C38.1543 48.2219 37.5591 48.6247 36.9043 49.0275C36.8448 49.085 36.7853 49.1425 36.7258 49.2001C36.6663 49.2576 36.6067 49.3152 36.5472 49.3152C36.4877 49.3152 36.4877 49.2001 36.4282 49.1426C36.3091 48.5096 36.1901 47.9342 36.071 47.3012C36.071 47.1861 36.0115 47.1286 36.0115 47.0135H35.952C35.952 47.1286 35.952 47.2437 35.952 47.3012C36.1306 48.2219 36.3091 49.2001 36.4877 50.1208C36.6067 50.6387 36.7258 51.099 36.7853 51.6169C36.9043 52.1348 37.0234 52.6526 37.0829 53.1705C37.1424 53.4582 37.202 53.7459 37.2615 54.0912C37.2615 54.2063 37.2019 54.2638 37.0829 54.2638C36.9639 54.2638 36.9043 54.3214 36.9639 54.4365C37.0234 54.8968 37.1424 55.4147 37.2019 55.875C37.2019 55.9901 37.2019 56.1052 37.2019 56.2203C37.1424 55.9901 37.0829 55.8175 37.0234 55.5873C36.9639 55.2421 36.9043 54.9543 36.8448 54.6091C36.8448 54.5515 36.8448 54.494 36.8448 54.4365C36.8448 54.3214 36.7853 54.2638 36.6663 54.3214C36.4877 54.3789 36.4282 54.3214 36.3687 54.0912C36.3091 53.6309 36.1901 53.113 36.1306 52.6526C35.952 51.847 35.833 51.0415 35.6544 50.2934C35.5354 49.6604 35.3568 48.9699 35.2377 48.337C35.1782 47.9342 35.0592 47.5889 34.9997 47.1861C34.9997 47.1286 34.9401 47.0135 34.8806 46.9559H34.8211C34.8211 47.0135 34.8211 47.1286 34.8211 47.1861C34.9401 47.8191 35.0592 48.3945 35.2377 49.0275C35.2973 49.2001 35.1782 49.3727 34.9401 49.4303C34.3449 49.5454 33.7497 49.6604 33.1545 49.7755C33.0355 49.7755 32.9164 49.8331 32.7378 49.8906C32.7378 50.0057 32.7379 50.1208 32.7974 50.2359C32.9759 51.099 33.1545 52.0197 33.3331 52.8828C33.4521 53.4582 33.5711 54.0337 33.6902 54.6091C33.7497 54.8393 33.6902 54.8968 33.4521 54.8968C33.1545 54.9543 33.1545 54.9543 33.214 55.2421C33.2735 55.4722 33.2735 55.6449 33.2735 55.875C33.3331 56.1052 33.3926 56.3354 33.4521 56.5655C33.5116 56.7382 33.5116 56.9108 33.5712 57.141H33.5116C33.4521 57.0259 33.4521 56.9683 33.3926 56.8532C33.3331 56.3354 33.214 55.875 33.1545 55.3571C33.095 54.9543 33.095 54.9543 32.6188 55.0119C32.3212 55.0694 32.2617 55.0119 32.2617 54.7817C32.1426 54.1488 32.0236 53.4582 31.9046 52.8253C31.7855 52.1923 31.6665 51.6169 31.5474 50.9839C31.4284 50.5236 31.3093 50.0632 31.2498 49.6029C31.1308 48.9124 30.9522 48.2794 31.0117 47.5889C31.0713 47.071 31.0117 46.6107 30.9522 46.0928C30.9522 45.9777 30.8927 45.9202 30.7736 45.9777C30.238 46.0928 29.7023 46.2079 29.1666 46.2654C28.988 46.323 28.9285 46.3805 28.988 46.5531C29.107 46.8984 29.2856 47.2437 29.4047 47.5889C29.4642 47.8766 29.5237 48.1643 29.5832 48.452C29.7618 49.4303 29.9999 50.4085 30.1784 51.3867C30.357 52.1923 30.5356 53.0554 30.6546 53.861C30.7141 54.2638 30.8332 54.6666 30.9522 55.0694C31.0117 55.3571 30.8927 55.4147 30.6546 55.4722C30.357 55.4722 30.357 55.4722 30.4165 55.7599C30.4165 55.8175 30.4165 55.9326 30.4165 55.9901C30.357 55.875 30.357 55.8175 30.357 55.7599C30.2975 55.4722 30.2975 55.4722 29.9403 55.5298C29.8213 55.5298 29.6427 55.6448 29.5237 55.5298C29.4642 55.4722 29.4047 55.4147 29.4047 55.3571C29.2261 54.494 29.0475 53.5733 28.869 52.7102C28.6309 51.6169 28.4523 50.466 28.2142 49.3727C28.1547 49.0275 28.0952 48.6822 27.9761 48.3945C27.7976 47.9342 27.7976 47.4738 27.7381 47.0135C27.7381 46.7258 27.619 46.6682 27.3214 46.7258C26.8452 46.7833 26.3691 46.8984 25.8929 46.9559C25.7739 46.9559 25.7143 46.9559 25.5953 47.0135C25.5358 47.0135 25.5358 47.071 25.5358 47.071L25.5953 47.1286C25.6548 47.1861 25.7143 47.2437 25.7143 47.3012C25.8334 47.9342 25.9524 48.5671 26.0715 49.2001C26.1905 49.8331 26.3691 50.466 26.4881 51.0415C26.6667 51.9046 26.8452 52.7677 27.0238 53.6309C27.1428 54.2063 27.2619 54.7817 27.3809 55.3571C27.4404 55.5298 27.4404 55.6448 27.5 55.8175C27.5595 55.9326 27.5 56.0477 27.3809 56.0477C27.2619 56.0477 27.1428 56.1052 26.9643 56.1052C27.0238 56.7957 27.2024 57.5438 27.3214 58.2343C27.2619 58.2343 27.2619 58.2343 27.2024 58.2343C27.1428 57.8315 27.0238 57.4862 26.9643 57.0834C26.9048 56.7957 26.8452 56.5655 26.8452 56.2778C26.8452 56.1627 26.7857 56.0476 26.6071 56.1052C26.5476 56.1052 26.4881 56.1627 26.4286 56.1627C26.131 56.2203 26.0119 56.2203 25.9524 55.875C25.8929 55.4147 25.7739 54.8968 25.7143 54.4365C25.6548 53.9761 25.5358 53.5733 25.4167 53.113C25.2382 52.1923 25.0596 51.2141 24.8215 50.2934C24.6429 49.5454 24.5239 48.7973 24.3453 48.0492C24.2263 47.5889 24.1668 47.1286 24.0477 46.6107C24.0477 46.4956 24.0477 46.4381 24.1668 46.3805C24.3453 46.323 24.3453 46.2654 24.3453 46.0928C24.2858 45.69 24.2858 45.69 23.8692 45.8051C23.393 45.8626 22.9764 45.9777 22.5002 46.0353C22.2621 46.0928 22.2026 46.0353 22.1431 45.8051C22.0835 45.4598 22.024 45.057 21.9645 44.7118C21.905 44.5392 21.8454 44.4816 21.6074 44.5392C21.1312 44.6542 20.5955 44.7693 20.0598 44.8269C19.9408 44.8269 19.7027 44.9419 19.7027 44.7693C19.6432 44.5967 19.8812 44.5967 20.0598 44.5967C20.5955 44.4816 21.1312 44.4241 21.6669 44.309C21.7859 44.309 21.8454 44.1939 21.8454 44.0788C21.7859 43.676 21.6669 43.2732 21.6074 42.8704C21.6074 42.7553 21.6074 42.6403 21.6074 42.5252C21.6074 42.5252 21.6669 42.4676 21.7264 42.4676C22.3216 42.3525 22.8573 42.2375 23.4525 42.1799C23.6311 42.1799 23.6906 42.0648 23.6311 41.9497C23.5716 41.7771 23.5716 41.662 23.512 41.4894C23.4525 41.2592 23.512 41.0291 23.6311 40.8564C23.5716 40.7989 23.512 40.7989 23.393 40.7413C23.5716 40.7413 23.6311 40.6263 23.7501 40.7413H23.8096C24.5834 40.5687 25.4167 40.4536 26.1905 40.281C26.3691 40.2235 26.5476 40.1659 26.6667 40.3961C26.7262 40.4536 26.9048 40.5112 26.9643 40.4536C27.0833 40.3961 27.2024 40.281 27.2619 40.2235C27.3214 40.1084 27.3809 39.9933 27.5 39.9933C27.7976 39.9357 28.0952 39.8782 28.3928 39.8207C28.8094 39.7631 29.2261 39.648 29.6427 39.5905C29.7618 39.5905 29.8808 39.648 29.9403 39.7056C30.0594 39.8207 30.238 39.9358 30.4165 39.8207C30.5356 39.7631 30.6546 39.7056 30.5951 39.533C30.476 39.0726 30.4165 38.6698 30.357 38.2095C30.238 37.519 30.1189 36.8285 29.9999 36.1379C29.9404 35.9653 29.9403 35.7351 29.8808 35.5625C29.8213 35.3899 29.8808 35.3324 30.0594 35.2748C30.5951 35.1597 31.1903 35.0446 31.726 34.9296C32.0236 34.872 32.2022 34.9296 32.2617 35.2748C32.3807 35.8502 32.4998 36.4257 32.6188 37.0011C32.6783 37.2888 32.7379 37.519 32.7974 37.7491C32.7974 37.8067 32.8569 37.8642 32.9164 37.8642C33.1545 37.8642 33.1545 37.8067 33.214 37.6916C33.3926 37.8067 33.5711 37.7491 33.6902 37.6916C33.7497 37.6916 33.7497 37.5765 33.7497 37.5765C33.6902 37.2313 33.6307 36.9435 33.5712 36.5983C33.4521 36.0229 33.3331 35.505 33.214 34.9296C33.1545 34.7569 33.214 34.6994 33.3926 34.7569C33.8688 34.872 34.3449 34.9296 34.8211 35.0446C35.1782 35.1022 35.5354 35.1597 35.952 35.2173C36.3687 35.2748 36.8448 35.3324 37.2615 35.4474C37.44 35.505 37.6186 35.5625 37.7972 35.6201C37.9757 35.6776 38.2138 35.6776 38.3924 35.6776C39.0471 35.7927 39.7018 35.9078 40.3566 36.0229H40.4161C40.8923 36.0804 40.8923 36.0804 40.9518 36.5407C40.9518 36.7134 40.9518 36.886 41.0113 37.0586C41.0708 37.2888 41.1304 37.519 41.2494 37.6916C41.3684 37.8067 41.4875 37.9793 41.7851 37.9218C42.1422 37.8067 42.4993 37.8067 42.8565 37.7491C43.035 37.7491 43.2136 37.6341 43.3326 37.519C43.3922 37.4039 43.3922 37.2888 43.3922 37.1737C43.3922 36.886 43.3326 36.886 43.6303 36.8285C44.285 36.7134 44.8802 36.5983 45.5349 36.4832C45.8921 36.4257 46.2492 36.3106 46.6063 36.253C46.9634 36.1955 47.2611 36.138 47.6182 36.0804C47.7967 36.0229 47.9753 36.0229 48.1539 35.9653C48.2134 35.9653 48.3324 35.9653 48.392 36.0229C48.5705 36.1379 48.8086 36.253 48.9872 36.4257C49.0467 36.4257 49.0467 36.4832 49.1062 36.5407C49.2253 37.2888 49.3443 38.0369 49.5229 38.7849C49.5229 38.9575 49.6419 39.0151 49.8205 38.9575C49.9395 38.9 50.1181 38.9 50.2371 38.9C50.4157 38.9 50.5347 38.7849 50.6538 38.6123C50.7728 38.4396 50.8323 38.267 51.0109 38.1519C51.1895 38.0368 51.368 38.0368 51.5466 37.9793C51.9037 37.9218 52.2013 37.8642 52.5585 37.8067C52.737 37.7491 52.9156 37.6341 53.0346 37.519C53.2132 37.2313 53.3918 37.1162 53.7489 37.0586C54.5822 36.9435 55.4155 36.7709 56.2488 36.5983C56.3678 36.5983 56.4273 36.5407 56.4869 36.5407C56.6059 36.5407 56.6654 36.5983 56.7249 36.6558C56.6654 36.7134 56.6059 36.7709 56.5464 36.8285C56.2488 36.886 55.8916 36.9435 55.594 37.0011C55.1179 37.1162 54.5822 37.1737 54.106 37.2888C54.106 37.2888 54.106 37.2888 54.0465 37.3463C54.106 37.4039 54.106 37.4039 54.1655 37.4614C54.225 37.519 54.3441 37.5765 54.4036 37.6341C54.4631 37.6916 54.4036 37.7491 54.4631 37.8067C54.4036 37.8067 54.3441 37.8067 54.2846 37.8067C54.106 37.7491 53.8679 37.6341 53.6894 37.5765C53.5108 37.519 53.3917 37.519 53.2727 37.6916C53.2132 37.8067 53.0941 37.9218 52.9751 38.0368C52.9156 38.0944 52.8561 38.0944 52.7965 38.0944C52.3799 38.1519 52.0228 38.267 51.6061 38.3246C51.7251 38.5547 51.8442 38.6698 52.0823 38.6123C52.2013 38.6123 52.3204 38.5547 52.4394 38.5547C52.4989 38.5547 52.6775 38.6123 52.6775 38.6698C52.737 38.7849 52.618 38.8424 52.5585 38.8424C52.5585 38.8424 52.4989 38.8424 52.4989 38.9C52.6775 38.9575 52.7965 39.0726 52.9751 39.1302C53.3322 39.2452 53.6298 39.3603 53.987 39.4179C54.0465 39.4179 54.1655 39.4179 54.225 39.4179C55.0583 39.2452 55.9512 39.1302 56.7845 38.9575C57.0226 38.9 57.3202 38.8424 57.5582 38.8424C57.6178 38.8424 57.7963 38.9 57.7963 38.9C57.8559 39.0151 57.7368 39.0726 57.6178 39.0726C56.6059 39.2452 55.6536 39.4179 54.6417 39.648C54.5822 39.648 54.5227 39.648 54.4631 39.7056C54.225 39.7631 53.987 39.8207 53.7489 39.648C53.3918 39.4179 52.9751 39.4179 52.4989 39.5905C52.2608 39.648 51.9632 39.7056 51.6656 39.7631C51.5466 39.7631 51.4275 39.7631 51.368 39.7056C51.1895 39.5905 51.0109 39.4179 50.8323 39.3603C50.7133 39.3028 50.5942 39.3028 50.4157 39.3028C50.2966 39.3028 50.1181 39.3603 49.999 39.3603C49.7609 39.4179 49.761 39.4179 49.761 39.648C49.88 40.1084 49.9395 40.5687 50.0586 41.0866C50.0586 41.1441 50.0586 41.2017 50.0586 41.2592C50.0586 41.3743 50.1181 41.4894 50.2966 41.4319C50.4752 41.3743 50.5347 41.4319 50.5347 41.6045C50.6538 42.3525 50.8323 43.043 50.9514 43.7911C51.0704 44.309 51.1299 44.7693 51.249 45.2872C51.3085 45.6325 51.4275 46.0353 51.4871 46.3805C51.6061 46.9559 51.7252 47.4738 51.7847 48.0492C51.8442 48.452 51.9632 48.8548 52.0228 49.2576C52.1418 49.8906 52.3204 50.5236 52.4394 51.1565C52.4394 51.2716 52.4394 51.3292 52.3204 51.3292C52.2013 51.3867 52.0228 51.3867 51.8442 51.4443C52.0228 52.1923 52.1418 52.9979 52.3204 53.746C52.2608 53.8035 52.1418 53.861 52.1418 53.6884C52.0823 53.2281 51.9632 52.7102 51.9037 52.2498C51.8442 52.0197 51.7847 51.732 51.7252 51.5018C51.7252 51.4442 51.6656 51.4443 51.6061 51.4443C51.4871 51.4443 51.3085 51.5018 51.1895 51.5018C50.8919 51.2716 50.9514 50.9264 50.8919 50.5811C50.7728 49.9481 50.6538 49.3152 50.5347 48.6822C50.3562 47.7615 50.1776 46.8984 49.999 45.9777C49.9395 45.5749 49.8205 45.1146 49.7014 44.7118C49.6419 44.3665 49.5824 44.0788 49.5229 43.7336C49.4633 43.5034 49.4038 43.2157 49.3443 42.9855C49.3443 42.8704 49.3443 42.8129 49.3443 42.6402C49.1062 42.6978 48.8086 42.6978 48.5705 42.7553C48.3324 42.8129 48.0348 42.8704 47.7967 42.928C47.6182 42.928 47.5587 43.043 47.6777 43.1581C47.8563 43.3883 47.8563 43.6185 47.9158 43.9062C48.0348 44.5391 48.1539 45.1721 48.2729 45.7475C48.392 46.3805 48.511 47.0135 48.63 47.6464C48.7491 48.337 48.9276 49.0275 49.1062 49.6604C49.2253 50.2359 49.3443 50.8688 49.4633 51.4443C49.5229 51.6169 49.3443 51.9046 49.1657 51.9046C49.0467 51.9621 49.0467 52.0197 49.0467 52.1348C49.1657 52.7677 49.2848 53.4582 49.4038 54.0912C49.4038 54.1487 49.4038 54.2063 49.4038 54.2638C49.4038 54.2063 49.3443 54.2063 49.3443 54.1487C49.2253 53.6884 49.1657 53.1705 49.1062 52.7102C49.0467 52.48 49.0467 52.2498 48.9872 52.0197C48.9872 51.9621 48.8681 51.9621 48.8086 51.9621C48.63 51.9621 48.4515 52.0197 48.3324 51.9046C48.2729 51.8471 48.2729 51.7895 48.2729 51.732C48.2134 51.3867 48.1539 51.099 48.0944 50.7537C47.9753 50.2934 47.9158 49.8331 47.7967 49.3727C47.7372 49.085 47.6777 48.7973 47.6777 48.5671C47.6182 48.1643 47.4991 47.7615 47.4396 47.3587C47.3206 46.7833 47.2015 46.2079 47.0825 45.6325C46.9634 45.1146 46.8444 44.5967 46.7849 44.0788C46.7254 43.8486 46.7849 43.5609 46.7849 43.2732C46.7849 43.2157 46.7849 43.1581 46.7849 43.043C46.3087 43.1581 45.8325 43.2157 45.3564 43.3308C44.9397 43.3883 44.8802 43.3883 44.8207 42.928C44.7612 42.5252 44.6421 42.4676 44.2255 42.5252C44.1064 42.5252 43.9874 42.5252 43.8683 42.5827C43.5112 42.6402 43.2136 42.7553 42.8565 42.7553C42.6184 42.8129 42.6184 42.9855 42.5589 43.1581C42.5589 43.2732 42.5589 43.3308 42.6184 43.4458C42.6184 43.5034 42.6779 43.5034 42.7374 43.5034C42.916 43.5034 43.0946 43.5034 43.2136 43.5034C43.3922 43.5034 43.4517 43.5609 43.5112 43.7336C43.6303 44.0213 43.7493 44.309 43.9279 44.5967C44.1064 44.8844 44.1659 45.2297 44.2255 45.5749C44.404 46.323 44.5231 47.0135 44.6421 47.7615C44.8207 48.6822 44.9992 49.5454 45.1778 50.466C45.2969 51.099 45.4159 51.6744 45.5349 52.3074C45.5945 52.5376 45.4754 52.6526 45.2969 52.6526C45.2373 52.6526 45.1778 52.7102 45.1183 52.7677C44.9992 52.7677 44.8802 52.7102 44.8207 52.7102C44.6421 52.7102 44.5231 52.6526 44.5231 52.48C44.3445 51.5593 44.1064 50.5811 43.9279 49.6604C43.6898 48.5096 43.4517 47.3012 43.2136 46.1503C43.1541 45.8051 43.0946 45.5174 42.9755 45.2297C42.9755 45.1146 42.916 45.1146 42.797 45.1721C42.4994 45.3447 42.1422 45.5174 41.8446 45.7475C41.4875 45.9777 41.0708 46.2654 40.7137 46.4956C40.5947 46.5531 40.5947 46.6682 40.7137 46.7258C40.8328 46.7833 41.0113 46.8408 41.1304 46.8984C41.1899 46.8984 41.1899 46.9559 41.2494 47.0135C41.3684 47.704 41.4875 48.3945 41.6065 49.085C41.7256 49.6604 41.7851 50.2934 41.9041 50.8688C42.0232 51.3292 42.0827 51.7895 42.2017 52.2498C42.2613 52.5376 42.3208 52.8253 42.3803 53.113C42.3803 53.2281 42.3208 53.3432 42.2017 53.3432C41.8446 53.4007 41.4875 53.4582 41.1304 53.5158C40.8923 53.5733 40.8923 53.5158 40.8328 53.2856C40.7137 52.5376 40.5351 51.847 40.4161 51.099C40.2971 50.466 40.178 49.8331 39.9994 49.2576C39.9399 48.8548 39.8209 48.5096 39.7614 48.1068C39.7614 48.0492 39.7614 47.9917 39.8209 47.9917C39.9399 47.704 40.1185 47.3587 40.2375 47.071C40.3566 47.0135 40.3566 46.9559 40.2971 46.8409C40.3566 46.8984 40.3566 46.8409 40.2971 46.8409ZM34.3449 35.505C34.3449 35.5625 34.3449 35.5625 34.3449 35.6201C34.4044 36.0804 34.5235 36.4832 34.583 36.9435C34.6425 37.3463 34.7616 37.6916 34.8211 38.0944C34.8211 38.1519 34.7616 38.267 34.7021 38.267C34.5235 38.3246 34.5235 38.4396 34.583 38.5547C34.583 38.6698 34.6425 38.7849 34.6425 38.9575C34.702 39.3603 34.8211 39.7631 34.8806 40.1659C34.9997 40.7413 35.1187 41.3168 35.1782 41.8922C35.1782 41.9497 35.2973 42.0073 35.3568 42.0073C35.4758 42.0073 35.6544 41.9497 35.7734 41.9497C35.833 41.9497 35.8925 41.9497 35.952 42.0073C35.8925 42.0648 35.8925 42.1224 35.833 42.1799C35.7734 42.2375 35.6544 42.1799 35.5949 42.2375C35.2973 42.295 35.2973 42.295 35.3568 42.5827C35.4163 42.928 35.4758 43.3308 35.5949 43.676C35.6544 44.0788 35.7734 44.4816 35.8925 44.8844C36.0115 45.4598 36.071 46.0353 36.1901 46.5531C36.3091 47.3012 36.4877 47.9917 36.6663 48.7398C36.7258 48.9124 36.7853 48.9699 36.9043 48.8548C37.321 48.6247 37.6781 48.337 38.0948 48.1068C38.4519 47.8766 38.809 47.6464 39.1662 47.4163C39.4638 47.2437 39.7018 47.0135 39.9994 46.8409C40.5351 46.4956 41.1304 46.1503 41.666 45.7475C41.9637 45.5749 42.2017 45.3447 42.4994 45.1721C42.7374 45.057 42.797 44.8844 42.7374 44.6542C42.5589 43.7911 42.3803 42.928 42.2017 42.0648C42.1422 41.7196 42.0827 41.3743 41.9637 40.9715C41.547 41.0291 41.1304 41.1441 40.7137 41.2017C40.2375 41.3168 39.7614 41.3743 39.2257 41.4894C39.1662 41.4894 39.1066 41.4319 39.0471 41.4319C39.1066 41.3743 39.1066 41.3168 39.1662 41.3168C39.2852 41.2592 39.4042 41.2592 39.4638 41.2592C39.9995 41.1441 40.5351 41.0866 41.0708 40.9715C41.3089 40.914 41.547 40.8564 41.7851 40.8564C41.666 40.2235 41.547 39.5905 41.428 38.9575C41.428 38.9 41.3684 38.8424 41.2494 38.7849C41.0113 38.6698 40.9518 38.4972 40.8923 38.3246C40.8327 38.2095 40.8328 38.0368 40.8328 37.8642C40.7732 37.519 40.7137 37.1737 40.6542 36.886C40.6542 36.8285 40.5947 36.7709 40.5351 36.7134C39.9995 36.5983 39.5233 36.5407 38.9876 36.4257C38.4519 36.3106 37.9162 36.253 37.3805 36.1379C36.8448 36.0229 36.2496 35.9653 35.7139 35.8502C35.4758 35.7927 35.2973 35.7927 35.0592 35.7352C34.8806 35.6201 34.6425 35.5625 34.3449 35.505ZM45.5349 37.2888C45.5945 37.3463 45.7135 37.4614 45.773 37.519C45.654 37.5765 45.5945 37.6341 45.4754 37.6341C45.0588 37.7491 44.6421 37.8642 44.285 37.9218C44.2255 37.9218 44.2255 37.9793 44.2255 38.0368C44.285 38.3246 44.285 38.6123 44.3445 38.9C44.404 39.3028 44.5231 39.648 44.5826 40.0508C44.5826 40.1659 44.6421 40.2235 44.7612 40.1659C44.9397 40.1084 45.1778 40.1084 45.3564 40.0508C45.4159 40.0508 45.4754 40.0508 45.5349 40.1084C45.5349 40.1659 45.5349 40.2235 45.4754 40.281C45.4159 40.3385 45.3564 40.3385 45.2969 40.3385C45.0588 40.3385 44.8802 40.3961 44.6421 40.3961C44.7016 40.6263 44.7016 40.7989 44.7612 41.0291C44.8802 41.5469 44.9992 42.1224 45.1183 42.6402C45.1183 42.8129 45.1778 42.8129 45.2969 42.7553C45.5349 42.6978 45.7135 42.6402 45.9516 42.6402C46.1301 42.5827 46.3087 42.5827 46.4278 42.5252C46.4873 42.5252 46.5468 42.5827 46.5468 42.6402C46.5468 42.6978 46.4873 42.7553 46.4278 42.7553C46.0706 42.8129 45.7135 42.8704 45.3564 42.9855C45.2968 42.9855 45.2373 42.9855 45.2373 43.043C45.2373 43.043 45.1778 43.1006 45.1778 43.1581C45.1778 43.1581 45.2373 43.2157 45.2969 43.2157C45.8921 43.1006 46.4873 42.9855 47.023 42.8704C47.0825 42.8704 47.0825 42.8129 47.0825 42.7553C47.0825 42.6978 47.023 42.6978 47.023 42.6402C46.9634 42.5827 46.9039 42.5252 46.9039 42.4676C46.9039 42.4101 46.9634 42.3525 47.023 42.3525C47.6182 42.2375 48.1539 42.1224 48.7491 42.0073C48.8086 42.0073 48.9277 42.0648 48.9872 42.1224C48.9277 42.1799 48.8681 42.2375 48.8086 42.2375C48.511 42.295 48.1539 42.3525 47.7967 42.4101C47.6777 42.4101 47.5587 42.4676 47.4396 42.4676C47.4991 42.6402 47.5587 42.6978 47.7372 42.6402C48.1539 42.5827 48.511 42.4676 48.9276 42.4101C49.1062 42.3525 49.2848 42.295 49.5824 42.2375C49.5229 42.1224 49.4633 42.0648 49.4038 42.0073C49.4038 41.9497 49.3443 41.9497 49.2848 41.9497C49.2848 41.8922 49.3443 41.8922 49.3443 41.8347C49.4038 41.7771 49.4038 41.662 49.4038 41.6045C49.4038 41.4319 49.3443 41.2592 49.2848 41.0866C49.2253 40.7989 49.1657 40.5687 49.1657 40.281C49.1657 40.1659 49.1062 40.0508 48.9276 40.1084C48.8681 40.1084 48.8086 40.1084 48.7491 40.0508C48.8086 39.9933 48.8681 39.9933 48.9276 39.9358C48.9872 39.8782 49.0467 39.8782 49.0467 39.8207C49.0467 39.7056 48.9872 39.533 48.9872 39.4179C48.7491 39.4754 48.511 39.533 48.2729 39.533C48.2134 39.533 48.2134 39.5905 48.2134 39.5905C48.2134 39.5905 48.1539 39.648 48.1539 39.7056C48.1539 39.648 48.0944 39.648 48.0944 39.5905C48.0944 39.533 48.0348 39.4179 48.0348 39.3603C48.0348 39.3028 48.0944 39.3028 48.1539 39.2452C48.392 39.2452 48.6896 39.1877 48.9276 39.1877C48.9276 39.0726 48.9277 38.9575 48.8681 38.8424C48.8681 38.7274 48.8681 38.6123 48.6896 38.6123C48.6896 38.6123 48.63 38.4972 48.6896 38.4972C48.8086 38.4396 48.8086 38.267 48.8086 38.2095C48.7491 37.8642 48.6896 37.519 48.5705 37.1737C48.511 37.0011 48.511 36.886 48.4515 36.7134C48.3324 36.7709 48.2729 36.7709 48.1539 36.8285C47.9158 36.886 47.6182 36.9435 47.3801 37.0011C47.023 37.0586 46.6658 37.1737 46.3087 37.2313C46.1301 37.2888 46.1301 37.1737 46.1301 37.0586C46.1301 37.0011 46.1301 37.0011 46.1301 36.9435C46.0706 37.1737 45.773 37.2313 45.5349 37.2888ZM24.4049 44.2514C24.4644 44.4816 24.4644 44.6542 24.5239 44.8269C24.6429 45.4023 24.762 46.0353 24.9406 46.6107C25.0001 46.8408 25.1786 46.9559 25.3572 46.8984C26.0715 46.7258 26.8452 46.6107 27.5595 46.4381C27.6785 46.4381 27.7381 46.323 27.7381 46.2079C27.6785 45.8626 27.619 45.5174 27.5595 45.2297C27.5 44.7693 27.3809 44.3665 27.2619 43.9062C27.2619 43.7911 27.1428 43.7336 27.0238 43.7911C26.9643 43.7911 26.9048 43.7336 26.8452 43.7336C26.9048 43.676 26.9643 43.6185 26.9643 43.6185C27.1428 43.5609 27.1428 43.5034 27.1428 43.3308C27.0833 43.043 27.0238 42.7553 26.9643 42.4676C26.8452 42.0073 26.7857 41.5469 26.6667 41.0866C26.6667 40.9715 26.6072 40.914 26.4881 40.9715C26.1905 41.0291 25.8929 41.0866 25.5953 41.1441C25.2382 41.2017 24.881 41.3168 24.5239 41.3743C24.2263 41.4319 24.1073 41.5469 24.1668 41.8347C24.2263 42.0648 24.2858 42.3525 24.3453 42.5827C24.4049 42.8129 24.3453 42.8704 24.1668 42.9855C24.1073 43.043 24.1073 43.1006 24.1073 43.1581C24.1668 43.3883 24.2263 43.676 24.2263 43.9062C24.2263 44.0788 24.3453 44.1364 24.5239 44.0788C24.762 44.0213 25.0596 43.9637 25.2977 43.9062C25.4167 43.9062 25.5358 43.9062 25.5358 44.0213C25.5358 44.0788 25.4167 44.1364 25.3572 44.1364C25.1191 44.1364 24.762 44.1939 24.4049 44.2514ZM34.0473 49.4303C34.3449 49.3727 34.583 49.3152 34.8806 49.2576C34.9997 49.2576 34.9997 49.2001 34.9997 49.085C34.9401 48.7398 34.8806 48.3945 34.8211 48.0492C34.7021 47.5314 34.6425 47.071 34.5235 46.5531C34.3449 45.69 34.1664 44.8844 34.0473 44.0213C33.9878 43.5609 33.8688 43.1581 33.7497 42.6978C33.7497 42.5827 33.6902 42.5252 33.5712 42.5252C33.0355 42.6403 32.4998 42.7553 31.9641 42.8129C31.7855 42.8129 31.7855 42.928 31.7855 43.043C31.845 43.4458 31.9046 43.8486 32.0236 44.309C32.1426 44.9419 32.2617 45.5749 32.3807 46.2079C32.4998 46.7258 32.5593 47.1861 32.6783 47.704C32.7974 48.2794 32.9164 48.9124 33.0355 49.4878C33.0355 49.6029 33.1545 49.6604 33.2735 49.6604C33.5712 49.5453 33.8092 49.4878 34.0473 49.4303ZM29.0475 46.2079C29.7023 46.0928 30.357 45.9777 31.0117 45.8626C31.1308 45.8626 31.1308 45.7475 31.1308 45.6325C31.0117 44.8844 30.8332 44.1364 30.7141 43.3308C30.6546 43.1006 30.6546 43.1006 30.4165 43.1581C29.9999 43.2157 29.5832 43.3308 29.1666 43.3883C29.107 43.3883 29.0475 43.3308 28.988 43.3308C29.0475 43.2732 29.107 43.2157 29.1666 43.2157C29.2261 43.2157 29.2856 43.2157 29.2856 43.2157C29.6427 43.1581 30.0594 43.1006 30.4165 42.9855C30.5356 42.9855 30.5951 42.928 30.5951 42.7553C30.5356 42.3525 30.476 42.0073 30.357 41.6045C30.2975 41.2017 30.1784 40.7989 30.1189 40.3961C30.1189 40.3386 29.9999 40.281 29.9999 40.281C29.4642 40.3385 28.869 40.4536 28.3333 40.5687C28.1547 40.6263 28.0357 40.7413 28.0952 40.914C28.0952 41.1441 28.1547 41.3168 28.2142 41.5469C28.3333 42.1224 28.4523 42.6978 28.5714 43.3308C28.6904 43.9637 28.8094 44.6542 28.9285 45.2872C28.869 45.5174 28.9285 45.8626 29.0475 46.2079ZM32.7378 42.5252C33.0355 42.4676 33.2735 42.4676 33.5712 42.4101C33.6307 42.4101 33.6902 42.295 33.6902 42.295C33.5711 41.8347 33.5116 41.3168 33.3926 40.8564C33.2735 40.3385 33.214 39.8782 33.095 39.3603C33.0355 39.0726 33.095 38.6698 32.6783 38.5547C32.6783 38.5547 32.6188 38.4972 32.6188 38.4396C32.4998 37.8642 32.4402 37.2888 32.3212 36.7134C32.2617 36.4257 32.2022 36.1379 32.1426 35.8502C32.1426 35.7927 32.0236 35.7352 32.0236 35.7352C31.726 35.7927 31.4284 35.8502 31.1308 35.8502C30.7141 35.9078 30.7141 35.9653 30.7736 36.3681C30.7736 36.4832 30.7736 36.5983 30.8332 36.6558C31.0117 37.5765 31.1903 38.5547 31.3689 39.4754C31.3689 39.5905 31.4284 39.7631 31.4284 39.9358C31.3689 40.1659 31.3689 40.3385 31.4284 40.5687C31.6069 41.2592 31.6665 42.0073 31.7855 42.6978C31.7855 42.8129 31.845 42.8704 31.9641 42.8129C32.2022 42.5827 32.4998 42.5252 32.7378 42.5252ZM30.8332 55.2996C30.7141 54.6091 30.5951 53.9761 30.476 53.2856C30.357 52.6526 30.238 52.0197 30.1189 51.3867C30.0594 50.9839 29.9403 50.5236 29.8808 50.1208C29.7618 49.6029 29.6427 49.0275 29.5237 48.5096C29.4047 48.1068 29.2856 47.6464 29.1071 47.2436C29.1071 47.1861 29.0475 47.1861 28.988 47.1861C28.7499 47.2436 28.5118 47.2437 28.2737 47.3012C28.2142 47.3012 28.1547 47.4163 28.1547 47.4163C28.2142 47.7615 28.2142 48.1068 28.2737 48.3945C28.3928 49.1426 28.5714 49.8906 28.7499 50.6962C28.869 51.3867 29.0475 52.0772 29.1666 52.7677C29.2856 53.2856 29.4047 53.8035 29.5237 54.3214C29.5832 54.6091 29.6427 54.8968 29.7023 55.1845C29.7618 55.4147 29.7618 55.4147 30.0594 55.3571C30.1189 55.3571 30.238 55.2421 30.238 55.2421C30.238 55.0694 30.1784 54.9543 30.0594 54.7817C29.9999 54.6666 29.9404 54.6091 29.9999 54.494C30.0594 54.4365 30.1784 54.4365 30.238 54.4365C30.357 54.494 30.357 54.6091 30.2975 54.7242C30.238 54.8393 30.2975 55.0119 30.2975 55.1845C30.476 55.2996 30.6546 55.2996 30.8332 55.2996C30.7736 55.2996 30.7736 55.2996 30.8332 55.2996ZM26.1905 55.127C26.25 55.4722 26.3691 55.7599 26.4286 56.0477C26.4286 56.1052 26.4881 56.1627 26.5476 56.1052C26.6667 56.1052 26.7857 56.0476 26.9048 55.9901C26.9048 55.9901 26.8452 55.8175 26.8452 55.7599V55.7024C26.7857 55.6448 26.7857 55.5873 26.7262 55.5298C26.5476 55.4722 26.6071 55.3571 26.6071 55.2996C26.6667 55.127 26.8452 55.1845 26.9048 55.2421C27.0238 55.2421 27.0833 55.4147 27.0238 55.4722C26.9048 55.6449 26.9643 55.7599 26.9643 55.9326C26.9643 56.0477 27.0238 56.1052 27.1428 56.0477C27.2619 56.0477 27.2619 55.9901 27.2619 55.875C27.2024 55.4147 27.1428 54.9543 27.0238 54.494C26.9048 53.861 26.7857 53.2281 26.6071 52.5951C26.4881 51.9046 26.3691 51.2141 26.1905 50.5236C26.131 50.0632 26.0119 49.6029 25.8929 49.1426C25.7739 48.6822 25.7143 48.2219 25.5953 47.7615C25.5953 47.704 25.5358 47.6464 25.4762 47.6464C25.2382 47.6464 25.0001 47.704 24.762 47.704C24.643 47.704 24.5834 47.7615 24.5834 47.9342C24.6429 48.2794 24.7025 48.6822 24.762 49.0275C24.9406 49.9481 25.1191 50.8688 25.3572 51.7895C25.4762 52.4225 25.5953 53.0554 25.7143 53.6884C26.0119 54.2063 26.131 54.6666 26.1905 55.127ZM50.7728 42.5252C50.7133 42.5252 50.7133 42.5252 50.6538 42.5252C50.4157 42.8129 50.2371 43.1581 49.999 43.4458C49.999 43.4458 49.999 43.5034 49.999 43.5609C49.999 43.676 50.0586 43.8486 50.1181 43.9637C50.2371 44.4816 50.3562 45.057 50.4157 45.5749C50.5347 46.1503 50.6538 46.7833 50.7728 47.3587C50.9514 48.1643 51.0704 48.9699 51.249 49.7755C51.368 50.2359 51.4275 50.6962 51.5466 51.099C51.5466 51.1565 51.6061 51.2141 51.6656 51.2141C51.7847 51.2141 51.9037 51.1565 51.9037 51.099C51.9037 50.9264 52.0228 50.7537 51.7847 50.5811C51.7252 50.5236 51.7847 50.4085 51.7847 50.3509C51.8442 50.3509 51.9632 50.2934 52.0228 50.3509C52.0823 50.3509 52.0823 50.466 52.0823 50.5811C52.0823 50.7537 52.0823 50.9264 52.0823 51.099C52.4989 51.099 52.4989 51.099 52.4394 50.8113C52.3204 50.2359 52.2013 49.6604 52.0823 49.085C52.0228 48.6822 51.9037 48.2794 51.8442 47.8766C51.7252 47.2437 51.6061 46.6682 51.4871 46.0353C51.3085 45.2872 51.1895 44.4816 51.0109 43.7336C50.9514 43.3308 50.8919 42.928 50.7728 42.5252ZM33.3926 54.0337C33.3331 53.8035 33.3331 53.6309 33.2735 53.4582C33.214 53.0554 33.1545 52.6526 33.0355 52.1923C32.9164 51.5593 32.7974 50.9264 32.6783 50.3509C32.5593 49.6604 32.4402 48.9124 32.2617 48.2219C32.2022 47.8191 32.0831 47.4163 31.9641 47.0135C31.9045 46.6107 31.9046 46.6107 31.4879 46.6682C31.3689 46.6682 31.3689 46.7258 31.3689 46.8409C31.3689 47.0135 31.3689 47.2437 31.3689 47.4163C31.3689 47.9342 31.3689 48.3945 31.4284 48.9124C31.5474 49.6604 31.726 50.4085 31.9046 51.1565C32.0236 51.6744 32.1426 52.2498 32.2022 52.7677C32.3212 53.4007 32.4402 54.0337 32.6188 54.7242C32.6188 54.8393 32.7378 54.8968 32.8569 54.8393C32.9164 54.8393 33.0355 54.7817 33.1545 54.7242C33.095 54.5515 32.9759 54.4365 32.9164 54.2638C32.9164 54.2063 32.9164 54.0912 32.9164 54.0337C33.0355 53.9761 33.1545 53.9761 33.3926 54.0337ZM47.2015 44.3665C47.2611 44.6542 47.3206 44.9419 47.3801 45.2297C47.6182 46.2654 47.7967 47.3012 48.0348 48.3945C48.2134 49.3152 48.392 50.2359 48.5705 51.2141C48.63 51.3867 48.63 51.5593 48.6896 51.732C48.6896 51.7895 48.8086 51.847 48.8681 51.847C48.9872 51.847 49.1062 51.7895 49.1062 51.732C49.1657 51.6169 49.0467 51.3867 48.9276 51.2716C48.8681 51.2141 48.8086 51.099 48.8086 51.0415C48.8681 50.9839 48.9277 50.8688 49.0467 50.8688C49.1062 50.8688 49.2253 50.9264 49.2848 50.9839C49.2848 50.9839 49.3443 51.099 49.2848 51.099C49.1062 51.2141 49.1657 51.3867 49.2253 51.5593C49.2253 51.6169 49.2848 51.6744 49.3443 51.6744C49.4633 51.6744 49.5229 51.6169 49.4633 51.5018C49.4038 51.2141 49.3443 50.8688 49.2848 50.5236C49.1657 49.8331 48.9872 49.2001 48.8681 48.5096C48.8086 48.1643 48.7491 47.8191 48.63 47.4163C48.5705 47.071 48.511 46.7258 48.392 46.3805C48.2134 45.69 48.0944 44.9995 47.9158 44.309C47.9158 44.1939 47.8563 44.1939 47.7372 44.1939C47.6182 44.2514 47.4396 44.309 47.2015 44.3665ZM40.9518 52.4225C40.9518 52.4225 41.0113 52.4225 40.9518 52.4225C41.0113 52.6526 41.0708 52.8253 41.1304 53.0554C41.1899 53.1705 41.2494 53.2856 41.428 53.2281C41.666 53.1705 41.8446 53.113 42.0827 53.113C42.2613 53.0554 42.2613 52.9979 42.2613 52.8253C42.2017 52.5951 42.2017 52.4225 42.1422 52.1923C42.0232 51.6744 41.9637 51.1565 41.8446 50.6962C41.7851 50.5236 41.7851 50.3509 41.7851 50.1783C41.7256 49.9481 41.7256 49.718 41.666 49.4878C41.6065 49.1425 41.4875 48.7398 41.428 48.3945C41.3684 48.0492 41.2494 47.704 41.1899 47.3587C41.1899 47.3012 41.1304 47.2436 41.1304 47.2436C41.0708 47.3012 41.0113 47.3012 41.0113 47.3587C40.9518 47.4163 40.9518 47.4738 40.9518 47.5314C40.8328 47.9342 40.6542 48.2794 40.5351 48.6822C40.5351 48.7398 40.4756 48.7398 40.4756 48.7973C40.4161 48.8548 40.3566 48.9699 40.4161 49.0275C40.4756 49.4878 40.5947 49.8906 40.6542 50.3509C40.7137 51.0415 40.8328 51.732 40.9518 52.4225ZM34.5235 42.1799C34.583 42.1799 34.6425 42.1799 34.7021 42.1799C34.7616 42.1799 34.8211 42.1799 34.8806 42.1799C35.1187 42.1224 35.1187 42.1224 35.1187 41.8922C34.9997 41.3743 34.8806 40.914 34.8211 40.3961C34.7616 40.0508 34.702 39.648 34.6425 39.3028C34.583 39.0726 34.5235 38.7849 34.464 38.5547C34.464 38.4396 34.4044 38.3821 34.2259 38.3821C33.9283 38.4397 33.6307 38.4972 33.3331 38.5547C33.2735 38.5547 33.214 38.6698 33.214 38.6698C33.2735 38.9575 33.3331 39.2452 33.3926 39.533C33.5116 40.1084 33.6307 40.6838 33.7497 41.2017C33.8092 41.4894 33.8688 41.8347 33.9283 42.1224C33.9283 42.2375 33.9878 42.295 34.1068 42.2375C34.2259 42.2375 34.4044 42.1799 34.5235 42.1799ZM45.2969 51.6744C45.2969 51.6169 45.2969 51.5593 45.2969 51.5593C45.2373 51.2141 45.1778 50.9264 45.1183 50.5811C44.9992 49.9481 44.8802 49.3152 44.7612 48.6247C44.6421 47.9342 44.4635 47.2437 44.3445 46.5531C44.285 46.2079 44.2255 45.8626 44.1064 45.5174C44.1064 45.4598 43.9874 45.4023 43.9279 45.4023C43.8088 45.4023 43.6898 45.4023 43.5707 45.3447C43.4517 45.3447 43.3922 45.3447 43.3922 45.5174C43.5112 46.2079 43.6898 46.8409 43.8088 47.5314C43.8683 47.7615 43.9279 47.9342 43.9279 48.1643C43.9874 48.5671 44.0469 49.0275 44.1659 49.4303C44.285 49.8906 44.3445 50.3509 44.4635 50.8113C44.5826 51.3292 44.7016 51.847 44.8207 52.3649C44.8207 52.4225 44.9397 52.48 44.9992 52.48C45.0588 52.48 45.1183 52.4225 45.1183 52.3649C45.1183 52.2498 45.1183 52.0772 44.9397 51.9621C44.8207 51.9046 44.8207 51.732 44.9397 51.6744C45.0588 51.6744 45.1778 51.732 45.2969 51.6744ZM35.2377 46.0353C35.3568 45.9777 35.4758 45.9777 35.6544 45.9777C35.833 45.9777 35.8925 45.8626 35.833 45.69C35.7734 45.4023 35.7139 45.057 35.5949 44.7693C35.5354 44.4241 35.4758 44.0213 35.3568 43.676C35.2973 43.2732 35.1782 42.8704 35.1187 42.4676C35.1187 42.4101 34.9997 42.295 34.9401 42.295C34.6425 42.3525 34.3449 42.4101 33.9878 42.4676C33.9283 42.4676 33.8688 42.5827 33.8688 42.6402C33.9283 42.9855 33.9878 43.2732 34.0473 43.6185C34.2259 44.4241 34.3449 45.2297 34.5235 46.0353C34.5235 46.1503 34.6425 46.2079 34.7616 46.1503C34.9997 46.0928 35.1187 46.0928 35.2377 46.0353ZM44.0469 38.4396C43.6898 38.4972 43.3326 38.4972 43.035 38.5547C42.6779 38.6123 42.3208 38.7274 41.9041 38.7849C41.8446 38.7849 41.7851 38.8424 41.7851 38.9C41.7851 39.0151 41.7851 39.0726 41.8446 39.1877C41.9637 39.648 42.0232 40.0508 42.1422 40.5112C42.2017 40.6838 42.2613 40.7414 42.3803 40.6838C42.8565 40.5687 43.3326 40.5112 43.8088 40.3961C43.9874 40.3386 44.1659 40.3385 44.404 40.281C44.285 39.648 44.1659 39.0151 44.0469 38.4396ZM44.8207 42.3525C44.7612 42.1799 44.7612 42.0648 44.7612 41.8922C44.6421 41.4319 44.5826 41.0291 44.5231 40.5687C44.5231 40.4536 44.4635 40.4536 44.3445 40.4536C43.6898 40.5687 43.035 40.7413 42.3803 40.8564C42.2613 40.8564 42.2613 40.914 42.2613 41.0291C42.3803 41.5469 42.4398 42.0648 42.5589 42.5827C42.5589 42.6402 42.6184 42.6403 42.6184 42.6978C42.7374 42.6403 42.797 42.6402 42.8565 42.6402C43.2136 42.5827 43.5707 42.5252 43.9279 42.5252C44.2255 42.4101 44.4636 42.2375 44.8207 42.3525ZM27.7381 44.8844C27.7976 45.1721 27.8571 45.4598 27.9166 45.7475C27.9166 45.8626 27.9761 45.9202 28.1547 45.8626C28.2738 45.8051 28.3928 45.8051 28.5118 45.8626C28.6309 45.8626 28.6904 45.8626 28.6904 45.7475C28.6904 45.5749 28.6309 45.3447 28.6309 45.1721C28.5714 44.7118 28.4523 44.2514 28.3928 43.7911C28.3333 43.3883 28.2142 42.928 28.1547 42.5252C28.0357 42.0648 27.9761 41.6045 27.8571 41.1441C27.7976 40.9715 27.7976 40.914 27.619 41.0291C27.5 41.0866 27.4405 41.0866 27.3214 41.0866C27.1428 41.0866 27.0833 41.1441 27.1428 41.3168C27.1428 41.3743 27.1428 41.3743 27.1428 41.4319C27.2024 41.8347 27.3214 42.295 27.3809 42.6978C27.4404 43.5034 27.5595 44.1939 27.7381 44.8844ZM37.0234 53.4582C36.6663 51.3292 36.1901 49.2001 35.7139 47.071C35.6544 47.071 35.5354 47.071 35.4758 47.071C35.2377 47.071 35.1782 47.1286 35.2377 47.3587C35.4163 48.1068 35.5353 48.7973 35.7139 49.5453C35.833 50.1783 35.952 50.7537 36.1306 51.3867C36.2496 51.9046 36.3091 52.3649 36.4282 52.8828C36.4877 53.113 36.5472 53.2856 36.6067 53.4582C36.7258 53.4007 36.8448 53.4582 37.0234 53.4582ZM23.274 44.4816C23.0359 44.5392 22.7978 44.5967 22.5597 44.5967C22.4407 44.5967 22.3811 44.6542 22.4407 44.7693C22.5002 45.1146 22.6192 45.5174 22.6787 45.8626C22.6787 45.9777 22.7383 46.0353 22.8573 45.9777C23.3335 45.8626 23.8097 45.8051 24.2858 45.69C24.3453 45.69 24.4049 45.5749 24.4049 45.5749C24.3453 45.1721 24.2858 44.8269 24.1668 44.4241C24.1668 44.3665 24.0477 44.309 23.9882 44.309C23.8097 44.3665 23.5716 44.4241 23.274 44.4816ZM23.0359 43.1006C22.7978 43.1581 22.5597 43.2157 22.3216 43.2732C22.2621 43.2732 22.2026 43.3883 22.2026 43.4458C22.2621 43.7336 22.3216 44.0213 22.3811 44.309C22.3811 44.3665 22.5002 44.4241 22.5597 44.4241C23.0359 44.3665 23.512 44.2514 23.9882 44.1364C24.1073 44.1364 24.1668 44.0788 24.1668 43.9062C24.1073 43.6185 24.0477 43.3883 23.9882 43.1006C23.9882 42.928 23.8692 42.928 23.7501 42.9855C23.512 43.043 23.274 43.043 23.0359 43.1006ZM30.357 40.4536C30.357 40.5112 30.357 40.5112 30.357 40.5687C30.476 41.1441 30.5951 41.7771 30.7141 42.3525C30.8332 42.8704 30.8332 42.8129 31.3093 42.7553C31.4879 42.7553 31.4879 42.6403 31.4879 42.5252C31.4284 42.0648 31.3093 41.662 31.2498 41.2017C31.1903 40.9715 31.1308 40.6838 31.1308 40.4536C30.8332 40.5112 30.5951 40.4536 30.357 40.4536ZM31.0712 44.1939C31.1308 44.4816 31.1903 44.8269 31.2498 45.1146C31.2498 45.1721 31.3093 45.2872 31.4284 45.2297C31.5474 45.1721 31.726 45.1721 31.845 45.1721C32.0236 45.1721 32.0236 45.1146 32.0236 44.9995C31.9641 44.7693 31.9046 44.5391 31.9046 44.309C31.845 43.9062 31.726 43.4458 31.6665 43.043C31.6665 42.928 31.6069 42.928 31.4879 42.928C31.3689 42.9855 31.2498 42.9855 31.1308 42.9855C30.9522 42.9855 30.9522 43.043 30.9522 43.2157C30.9522 43.5609 31.0117 43.8486 31.0712 44.1939ZM49.88 42.0073C49.9395 42.0073 49.9395 42.0073 49.999 42.0073C50.0586 41.8922 50.1776 41.8347 50.1776 41.7196C50.1181 41.3168 50.0586 40.8564 49.9395 40.4536C49.9395 40.3961 49.88 40.3385 49.8205 40.281C49.7609 40.0508 49.761 39.7631 49.761 39.533C49.761 39.4754 49.6419 39.4179 49.5824 39.4754C49.5229 39.4754 49.3443 39.4754 49.4038 39.648C49.4633 39.8207 49.4633 40.0508 49.7014 40.1659C49.8205 40.2235 49.8205 40.281 49.7014 40.3385C49.5229 40.3385 49.5824 40.4536 49.5824 40.5687C49.6419 40.7989 49.6419 40.9715 49.7014 41.2017C49.7609 41.4319 49.8205 41.7196 49.88 42.0073ZM49.5229 38.4396C49.4038 38.4396 49.3443 38.3821 49.2848 38.3821C49.2848 38.3246 49.3443 38.267 49.3443 38.2095C49.3443 38.1519 49.4038 38.0368 49.4038 37.9793C49.3443 37.6916 49.2848 37.4039 49.2253 37.1162C49.1657 36.886 49.0467 36.8285 48.8086 36.8285C48.8681 37.0011 48.8681 37.1737 48.9276 37.3463C49.0467 37.7491 48.9872 38.2095 49.2253 38.5547V38.6123C49.2253 38.7849 49.2253 38.9575 49.2848 39.1302C49.3443 39.2452 49.4633 39.1877 49.5229 39.1877C49.5824 39.1877 49.6419 39.1302 49.6419 39.0726C49.6419 38.9 49.5824 38.6698 49.5229 38.4396ZM52.618 39.3603C52.4989 39.0151 51.7252 38.9 51.4871 39.1877C51.7847 39.5905 52.2013 39.4754 52.618 39.3603ZM47.2611 43.7911C47.2611 43.7336 47.2611 43.676 47.3206 43.6185C47.0825 43.676 47.023 43.7336 47.142 44.0213C47.3206 43.9637 47.4991 43.9637 47.7372 43.9062C47.7967 43.9062 47.8563 43.8486 47.8563 43.7911C47.7967 43.6185 47.8563 43.4458 47.6777 43.3883C47.5587 43.5034 47.4991 43.5609 47.3801 43.6185C47.4991 43.6185 47.6182 43.676 47.6777 43.676V43.7336C47.5587 43.7336 47.4396 43.7336 47.2611 43.7911ZM28.0952 46.4956C28.0952 46.6682 28.0952 46.7833 28.1547 46.8984C28.1547 46.9559 28.2142 47.0135 28.2142 47.071C28.2738 47.0135 28.3928 47.0135 28.3928 46.9559C28.4523 46.8409 28.5714 46.7833 28.6904 46.8409C28.7499 46.8409 28.8094 46.8984 28.8094 46.8984C28.8094 46.8984 28.8094 46.8984 28.869 46.8409C28.8094 46.7833 28.8094 46.6682 28.7499 46.6107C28.7499 46.6107 28.6309 46.6682 28.5714 46.7258C28.4523 46.7833 28.3928 46.7833 28.2142 46.7833C28.2738 46.6682 28.3928 46.4956 28.0952 46.4956ZM43.5707 44.8269C43.5707 44.7693 43.5707 44.7118 43.5707 44.7118C43.5112 44.7118 43.4517 44.7118 43.3922 44.7118C43.3326 44.7693 43.3326 44.8269 43.3326 44.8844C43.3326 44.9995 43.3922 45.1146 43.4517 45.1146C43.6303 45.1721 43.8088 45.2297 43.9874 45.1146C43.9279 44.8844 43.7493 45.057 43.5707 44.9995C43.6898 44.942 43.7493 44.8844 43.8683 44.8269C43.6898 44.8269 43.6302 44.8269 43.5707 44.8269ZM33.3926 54.2063C33.1545 54.3789 33.095 54.5515 33.214 54.7242C33.214 54.7817 33.3331 54.7817 33.3331 54.7817C33.3926 54.7817 33.4521 54.7242 33.4521 54.6666C33.4521 54.494 33.4521 54.3789 33.3926 54.2063ZM45.4159 52.0772C45.4159 52.1348 45.4159 52.0772 45.4159 52.0772C45.3564 52.0197 45.3564 51.9621 45.2969 51.9046C45.2373 51.9621 45.1778 52.0197 45.1778 52.0772C45.1778 52.1348 45.1778 52.2498 45.2373 52.3649C45.2373 52.4225 45.3564 52.4225 45.3564 52.4225C45.4159 52.4225 45.4159 52.3649 45.4754 52.3074C45.4754 52.2498 45.4159 52.1923 45.4159 52.0772ZM47.0825 36.9435C47.0825 37.0011 47.0825 37.0011 47.0825 36.9435C47.3206 36.9435 47.6182 36.886 47.8563 36.8285V36.7709C47.5587 36.886 47.3206 36.9435 47.0825 36.9435ZM25.0596 47.1286C24.9406 47.071 24.881 47.071 24.8215 47.071C24.762 47.071 24.7025 47.1861 24.643 47.2436C24.7025 47.3012 24.762 47.3587 24.8215 47.3012C24.881 47.3012 24.9406 47.1861 25.0596 47.1286ZM50.1181 42.7553C50.1181 42.6978 50.1181 42.6978 50.1181 42.7553C49.999 42.7553 49.9395 42.8129 49.88 42.8704C49.88 42.928 49.88 42.9855 49.9395 43.043C49.999 42.9855 50.0586 42.9855 50.0586 42.928C50.1181 42.8704 50.1181 42.8129 50.1181 42.7553ZM40.178 48.337C40.2375 48.337 40.2375 48.337 40.2971 48.337C40.1185 48.1068 40.4161 48.0492 40.4161 47.8766C40.2971 47.9342 40.178 47.9342 40.178 47.9917C40.1185 48.1068 40.178 48.2219 40.178 48.337ZM31.9046 45.8626C31.726 45.7475 31.4879 45.8051 31.4284 46.0353C31.6069 45.9202 31.726 45.9202 31.9046 45.8626ZM43.1541 43.9637L43.0946 44.0213C43.1541 44.0788 43.1541 44.1364 43.2136 44.1364C43.2731 44.1364 43.3326 44.0788 43.3922 44.0213C43.3326 44.0213 43.2136 43.9637 43.1541 43.9637ZM43.2731 44.5967C43.3922 44.5391 43.5112 44.5392 43.6303 44.4816C43.6303 44.4241 43.6302 44.4241 43.5707 44.3665C43.4517 44.4241 43.3922 44.4241 43.2731 44.4816C43.2731 44.5392 43.2731 44.5391 43.2731 44.5967ZM51.7847 38.8424V38.7849C51.7252 38.7849 51.6656 38.7274 51.6061 38.7274C51.5466 38.7274 51.4871 38.8424 51.4871 38.8424C51.4871 38.8424 51.4871 38.9 51.5466 38.9C51.6061 38.9 51.6656 38.8424 51.7847 38.8424ZM36.0115 46.6107C35.833 46.7258 35.952 46.8409 36.0115 46.9559H36.071C36.0115 46.8409 36.0115 46.7258 36.0115 46.6107ZM25.4762 47.4163C25.4762 47.3587 25.4762 47.3587 25.4762 47.3012C25.4167 47.3012 25.2977 47.2436 25.2382 47.2436C25.2382 47.2436 25.2382 47.3012 25.1786 47.3587C25.2977 47.4163 25.4167 47.4163 25.4762 47.4163Z" fill="#16994A"/>
<path d="M58.9849 37.7508C57.6754 37.981 56.3064 38.2687 54.997 38.4989C54.9375 38.4989 54.9375 38.4989 54.8779 38.4989V38.4413C55.0565 38.3838 55.2351 38.3262 55.4136 38.3262C56.2469 38.1536 57.0802 38.0385 57.854 37.8659C58.1516 37.8084 58.5087 37.6933 58.8063 37.6357C58.8659 37.6357 58.9254 37.6933 58.9849 37.6933C59.0444 37.6933 58.9849 37.6933 58.9849 37.7508Z" fill="#16994A"/>
<path d="M52.3186 54.3783C52.1997 54.2633 52.0807 54.1483 52.1997 54.0333C52.3186 53.9183 52.5566 53.8608 52.6756 53.9758C52.7945 54.0908 52.854 54.2058 52.735 54.3208C52.9135 54.4934 52.973 54.6659 52.854 54.8384C52.735 54.9534 52.4971 55.0109 52.3781 54.9534C52.2592 54.7809 52.1997 54.6084 52.3186 54.3783ZM52.3781 54.6084C52.4971 54.6659 52.5566 54.7234 52.6161 54.7234C52.6756 54.6659 52.735 54.6084 52.735 54.5509C52.735 54.4934 52.6161 54.4358 52.5566 54.3783C52.4971 54.4933 52.4971 54.5509 52.3781 54.6084ZM52.6756 54.1483C52.5566 54.0908 52.4971 54.0908 52.4971 54.0908C52.4376 54.0908 52.4376 54.1483 52.3781 54.2058C52.4376 54.2058 52.4971 54.2633 52.5566 54.2633C52.5566 54.2633 52.6161 54.2058 52.6756 54.1483Z" fill="#16994A"/>
<path d="M46.1289 55.3545C46.0694 55.3545 46.0099 55.4121 45.9504 55.3545C45.7125 55.297 45.653 55.297 45.7125 55.5846C45.8315 55.4696 46.0099 55.4696 46.1289 55.5846C46.2478 55.6996 46.3073 55.8721 46.2478 55.9871C46.1884 56.1022 46.0694 56.1597 45.9504 56.2172C45.7125 56.2172 45.5935 56.0446 45.534 55.6996C45.4745 55.4121 45.5935 55.2395 45.772 55.2395C45.8909 55.1245 46.0099 55.182 46.1289 55.3545ZM45.653 55.8721C45.772 55.9296 45.8315 55.9871 45.9504 56.0447C45.9504 55.9871 46.0099 55.8721 46.0099 55.8146C46.0099 55.7571 45.8909 55.6996 45.8315 55.6421C45.8315 55.6996 45.772 55.7571 45.653 55.8721Z" fill="#16994A"/>
<path d="M41.9619 56.5667C42.0809 56.5667 42.1404 56.6242 42.1999 56.6242C42.2593 56.6242 42.3188 56.6242 42.4378 56.6242C42.4378 56.5092 42.4973 56.4517 42.4378 56.3367C42.4378 56.2792 42.3188 56.2792 42.1999 56.2792C42.1404 56.2792 42.0809 56.3367 41.9619 56.4517C41.9619 56.2217 41.9619 56.0491 41.9619 55.8191C42.1404 55.7616 42.3188 55.7616 42.4973 55.7041C42.4973 55.7616 42.4973 55.8191 42.5568 55.8766C42.4378 55.9916 42.1999 55.8766 42.1999 56.1067C42.5568 56.0491 42.6757 56.1642 42.7352 56.3942C42.7947 56.5667 42.6757 56.7392 42.4973 56.7968C42.1999 56.8543 42.0809 56.7968 41.9619 56.5667Z" fill="#16994A"/>
<path d="M30.8319 58.8105C31.0103 58.753 31.1293 58.753 31.2483 58.753C31.2483 58.8105 31.2483 58.868 31.3078 58.9256C31.0698 58.9831 30.8319 58.9831 30.5939 59.0406C30.6534 58.868 30.7129 58.753 30.8319 58.5805C30.8914 58.4655 30.9509 58.408 31.0103 58.293C31.0103 58.2355 30.9509 58.178 30.9509 58.0629C30.8914 58.1205 30.8319 58.1205 30.7724 58.178C30.7129 58.2355 30.6534 58.2355 30.5939 58.293C30.5345 58.0629 30.6534 58.0054 30.7724 57.9479C30.8914 57.8904 31.0698 57.8904 31.1888 58.0054C31.3078 58.1204 31.3078 58.2355 31.2483 58.3505C31.0103 58.523 30.9509 58.638 30.8319 58.8105Z" fill="#16994A"/>
<path d="M37.8554 57.7148C37.7959 57.6573 37.7365 57.5998 37.677 57.5998V57.5423C37.558 57.5423 37.439 57.5998 37.3201 57.5998C37.2011 57.3698 37.4985 56.6797 37.7365 56.6797C37.7959 56.8522 37.7959 56.9672 37.8554 57.1398C37.8554 57.1973 37.8554 57.3698 37.9744 57.3698C37.9744 57.3698 38.0339 57.4848 37.9744 57.4848C37.9744 57.5423 37.9149 57.5998 37.8554 57.6573C37.8554 57.6573 37.8554 57.6573 37.8554 57.7148ZM37.3795 57.3698C37.4985 57.3698 37.558 57.3123 37.6175 57.3123C37.6175 57.1973 37.558 57.1397 37.558 56.9672C37.4985 57.1397 37.439 57.2548 37.3795 57.3698Z" fill="#16994A"/>
<path d="M33.5693 57.6011C33.6288 57.5436 33.7478 57.4286 33.8073 57.3711C33.9262 57.3711 34.0452 57.3711 34.1642 57.4286C34.2237 57.4861 34.2237 57.6011 34.2237 57.6586C34.2832 57.8312 34.4021 57.9462 34.4021 58.0612C34.4021 58.1762 34.2832 58.2912 34.1642 58.2912C34.0452 58.3487 33.9262 58.2337 33.8073 58.2337C33.8073 58.2337 33.8073 58.1762 33.7478 58.1187C33.8073 58.1187 33.8668 58.0612 33.9262 58.0612C33.9857 58.0612 34.1047 58.1187 34.1642 58.1187C34.1642 58.0612 34.2237 57.9462 34.2237 57.9462C34.1642 57.8887 34.1047 57.8312 33.9857 57.7736C33.9857 57.7736 34.0452 57.7161 34.0452 57.6586C34.0452 57.6011 34.0452 57.5436 34.0452 57.4861C33.9857 57.4861 33.9262 57.5436 33.8668 57.5436C33.8073 57.5436 33.7478 57.6011 33.6883 57.6011C33.6288 57.6586 33.6288 57.6011 33.5693 57.6011Z" fill="#16994A"/>
<path d="M49.8187 55.4696C49.8187 55.4696 49.7592 55.4696 49.6402 55.4696C49.6997 55.1821 49.7592 54.8945 49.7592 54.607C49.6402 54.607 49.5212 54.6645 49.4023 54.6645C49.4023 54.607 49.4023 54.5495 49.3428 54.492C49.5807 54.4345 49.7592 54.4345 49.9971 54.377C49.9971 54.4345 49.9971 54.492 49.9971 54.5495C49.9376 54.837 49.8781 55.1246 49.8187 55.4696Z" fill="#16994A"/>
<path d="M26.9619 59.0362C26.9619 58.8637 27.1404 58.5762 27.3188 58.5762C27.3783 58.9212 27.4378 59.2088 27.4973 59.5538C27.4378 59.5538 27.3783 59.6113 27.3188 59.6113C27.2593 59.3813 27.1999 59.1513 27.1999 58.9212C27.1404 58.9787 27.0809 58.9787 26.9619 59.0362Z" fill="#16994A"/>
<path d="M53.6289 38.726C53.5694 38.611 53.5694 38.5535 53.6884 38.496C53.9263 38.4385 54.1643 38.4385 54.4022 38.4385C54.4617 38.4385 54.5212 38.496 54.5807 38.496C54.5212 38.5535 54.4617 38.611 54.4022 38.611C54.1643 38.611 53.9263 38.6685 53.6289 38.726Z" fill="#16994A"/>
<path d="M42.1999 55.7029C42.1404 55.3003 42.0214 54.8978 41.9619 54.5527C41.9619 54.5527 41.9619 54.5527 42.0214 54.5527C42.0809 54.8978 42.1404 55.3003 42.1999 55.7029C42.1999 55.6454 42.1999 55.7029 42.1999 55.7029Z" fill="#16994A"/>
<path d="M30.7129 57.3145C30.7724 57.487 30.8319 57.6021 30.8914 57.7747C30.7724 57.7747 30.7129 57.6596 30.7129 57.3145Z" fill="#16994A"/>
<path d="M59.5205 37.464C59.6399 37.464 59.6996 37.4062 59.819 37.4062C59.819 37.4062 59.8786 37.4063 59.9383 37.464C59.9383 37.5217 59.8786 37.5217 59.8786 37.5217C59.7593 37.5217 59.6996 37.5217 59.5802 37.5794C59.5205 37.5217 59.5205 37.5217 59.5205 37.464Z" fill="#16994A"/>
<path d="M37.7957 41.664C37.7361 41.7215 37.6766 41.7791 37.617 41.7791C37.4979 41.8367 37.4384 41.8367 37.3193 41.8367C37.2597 41.8367 37.2002 41.7791 37.2002 41.7791C37.2597 41.7215 37.2597 41.664 37.3193 41.664C37.4979 41.6064 37.6766 41.6064 37.7957 41.5488C37.7361 41.6064 37.7957 41.664 37.7957 41.664Z" fill="#16994A"/>
<path d="M47.975 38.7861C48.1535 38.8437 48.332 39.0163 48.2725 39.1889C48.213 39.2464 48.0345 39.3039 47.975 39.3039C47.8559 39.3039 47.9155 39.1889 47.975 39.1313C47.975 39.0163 47.975 38.9012 47.975 38.7861Z" fill="#16994A"/>
<path d="M48.0928 40.1093C48.2119 40.1093 48.2714 40.0518 48.331 40.0518C48.45 40.1093 48.5691 40.1669 48.7478 40.2245C48.6287 40.282 48.5691 40.3396 48.5096 40.3396C48.331 40.3972 48.2119 40.282 48.0928 40.1093Z" fill="#16994A"/>
<path d="M46.902 40.0489C46.8425 40.0489 46.8425 40.0489 46.783 40.0489C46.7235 39.9914 46.664 39.9914 46.6045 39.9338C46.664 39.8763 46.7235 39.8763 46.783 39.8188C46.783 39.8188 46.8425 39.8188 46.902 39.8188C46.9616 39.8188 47.1401 39.7612 47.0806 39.9338C47.0806 39.9338 47.0211 39.9914 46.902 40.0489C46.9616 40.0489 46.902 40.0489 46.902 40.0489Z" fill="#16994A"/>
<path d="M47.974 39.6476C47.974 39.7053 48.0337 39.7053 48.0337 39.763C48.0337 39.8207 48.0337 39.8785 48.0337 39.9362C47.974 39.8785 47.9143 39.8785 47.8547 39.8207C47.8547 39.8207 47.795 39.7053 47.8547 39.7053C47.8547 39.6476 47.9143 39.5899 47.9143 39.5322C47.9143 39.5322 47.974 39.5322 47.974 39.6476C47.974 39.5899 47.974 39.5899 47.974 39.6476Z" fill="#16994A"/>
<path d="M41.8446 52.4221C41.7252 52.5375 41.6655 52.5952 41.6058 52.7106C41.5461 52.6529 41.4268 52.5952 41.4268 52.5375C41.4268 52.4798 41.4864 52.3643 41.5461 52.3066C41.6655 52.3066 41.7252 52.3643 41.8446 52.4221Z" fill="#16994A"/>
<path d="M102.674 85.3975L91.8413 122.282L83.9249 149.442H78.1514L86.5439 85.3975H102.674Z" fill="#25B759"/>
<path d="M105.591 85.3975C105.829 104.386 106.722 114.744 106.96 116.47C107.198 118.197 111.186 129.187 118.923 149.385H112.912C103.091 129.993 97.6149 119.002 96.484 116.47C95.3531 113.939 91.7818 103.581 86.4844 85.3975H105.591Z" fill="#4ED875"/>
<path d="M119.46 154.619L119.162 148.52H112.853C109.877 150.534 105.948 152.202 101.187 153.468V154.619H112.555L116.424 154.044V154.619H119.46Z" fill="#9CEFAD"/>
<path d="M84.6989 154.619L84.4013 148.52H78.1515C75.1755 150.534 71.2471 152.202 66.4854 153.468V154.619H77.8539L81.7228 154.044V154.619H84.6989Z" fill="#9CEFAD"/>
<path d="M94.6395 49.1447C93.2706 47.5911 92.3182 45.6346 92.4968 43.5056C92.9729 37.291 101.901 38.672 103.627 41.7793C105.353 44.8866 105.175 52.8274 102.913 53.4029C102.02 53.633 100.116 53.0576 98.1513 51.9643L99.3417 60.308H92.1396L94.6395 49.1447Z" fill="#25B759"/>
<path d="M104.281 43.2168C104.221 42.814 104.043 42.3537 103.924 41.9509C103.745 41.433 103.448 41.0302 103.15 40.5699C102.555 39.7643 101.9 39.0738 101.126 38.4984C99.7572 37.4051 98.0311 36.7721 96.305 37.0023C95.4122 37.1173 94.5789 37.4051 93.8646 37.9805C93.2099 38.4408 92.6147 39.1889 91.7814 39.2464C90.8885 39.304 90.0552 38.4984 89.2815 38.038C88.4482 37.5201 87.5554 37.1173 86.603 36.9447C84.9959 36.7145 83.4484 37.2324 82.377 38.4984C81.1866 39.8794 80.3533 41.8358 81.127 43.6772C81.2461 44.0224 81.4842 44.3102 81.7223 44.5403C81.9603 44.7705 82.3175 45.0007 82.4365 45.3459C82.5556 45.6912 82.1984 46.2091 82.0794 46.4968C81.9008 46.9571 81.7818 47.475 81.8413 47.9929C81.9008 48.856 82.496 49.6616 83.0317 50.1795C83.6269 50.7549 84.3412 51.0426 85.115 51.2153C85.6507 51.3303 86.1864 51.3879 86.6625 51.3303C86.9006 51.3303 87.1387 51.2153 87.4363 51.1577C87.6744 51.1002 87.7934 51.1577 88.0315 51.2728C88.9839 51.9058 90.0552 52.1359 91.1861 52.0209C92.1385 51.9633 93.2099 51.7331 93.9837 51.1002C94.817 50.4097 94.817 49.4314 94.6384 48.3957C94.8765 48.5108 95.4717 48.5683 95.1146 48.1655C94.9955 47.9929 94.6979 47.9353 94.5193 47.8202C94.2813 47.7052 94.1027 47.5901 93.9241 47.3599C93.2694 46.6119 93.9241 45.1733 94.7574 44.8856C96.0074 44.5403 96.2455 46.2091 97.1383 46.6119C97.6145 46.842 98.1501 46.4968 98.5668 46.1515C99.043 45.6912 99.4001 45.0582 99.6977 44.4252C99.9358 43.9074 100.174 43.3895 100.412 42.8716C100.531 42.6414 100.948 41.9509 100.71 41.6632C101.602 41.4906 102.555 41.8358 103.328 42.2962C103.626 42.4688 103.864 42.699 104.043 43.0442C104.102 43.1018 104.162 43.3319 104.281 43.3319C104.4 43.5046 104.34 43.2744 104.281 43.2168Z" fill="#093509"/>
<path d="M104.46 46.4404C104.281 47.5913 105.948 48.3393 105.888 49.5477C105.293 49.5477 104.698 49.893 104.043 49.8354" fill="#25B759"/>
<path d="M102.376 46.3244C102.495 46.2094 102.614 46.0944 102.792 46.0369C102.971 45.9794 103.149 45.9219 103.328 45.9219C103.506 45.9219 103.685 45.9794 103.863 46.0944C104.042 46.2094 104.101 46.3819 104.101 46.5545C103.863 46.2669 103.625 46.2669 103.328 46.2669C102.971 46.2094 102.673 46.2669 102.376 46.3244Z" fill="#093509"/>
<path d="M104.22 51.2177C103.804 51.3327 103.447 51.3902 103.031 51.2752C102.614 51.2177 102.198 50.9876 102.02 50.6426C102.198 50.7001 102.376 50.8151 102.555 50.8726C102.733 50.9301 102.912 50.9876 103.09 51.0451C103.447 51.0451 103.804 51.1026 104.22 51.2177Z" fill="#093509"/>
<path d="M103.447 47.4174C103.644 47.4174 103.804 47.2627 103.804 47.072C103.804 46.8812 103.644 46.7266 103.447 46.7266C103.25 46.7266 103.09 46.8812 103.09 47.072C103.09 47.2627 103.25 47.4174 103.447 47.4174Z" fill="#093509"/>
<path d="M71.7229 81.3111L63.5685 75.2692C59.521 74.5211 57.6164 73.9457 57.914 73.4278C58.3306 72.6222 59.4615 73.1977 59.8782 72.6798C60.2948 72.1619 59.283 70.7233 58.3306 69.3423C57.3783 67.9613 58.2711 68.0188 58.8068 68.1915C60.5924 69.1697 62.4376 70.5507 64.3423 72.3921L75.1752 76.9955L71.7229 81.3111ZM126.542 95.6968C127.137 96.4448 130.768 98.3437 133.208 99.3795C134.22 99.7823 133.982 100.588 133.685 100.876C131.363 102.947 129.221 101.393 126.661 100.818C123.923 100.128 124.756 103.35 122.554 102.832C122.911 101.393 123.864 98.6314 122.852 97.1353C122.376 96.4448 119.102 90.5755 112.912 79.4698L119.042 78.3189C123.209 88.8492 125.709 94.661 126.542 95.6968Z" fill="#25B759"/>
<path d="M96.2461 56.0473L93.6272 55.6445C87.9727 60.9384 85.6514 73.6553 81.9015 75.3241C78.3302 76.9353 73.3304 75.3816 67.3188 73.3101L65.4736 77.2805C70.8901 82.9772 82.4967 87.8108 87.1989 85.0488C94.7581 80.618 96.4842 64.9089 96.2461 56.0473Z" fill="#095411"/>
<path d="M107.554 87.5246C97.1381 87.5246 89.5193 87.5246 84.6386 87.5246C83.5672 87.5246 83.8053 86.086 83.9243 85.338C85.6505 76.8217 92.4954 67.6149 92.4954 55.531L99.1023 54.5527C104.578 63.0115 106.483 73.4842 107.554 87.5246Z" fill="#4ED875"/>
<path d="M109.817 78.8941C114.519 87.0651 118.448 92.9345 121.602 96.5021L126.424 95.5814C123.329 76.9952 114.341 63.3001 99.52 54.4961H99.4605H96.9011C90.9489 74.0605 89.3419 87.1227 92.0203 93.625H112.674C112.317 88.8489 111.246 83.8428 109.817 78.8941Z" fill="#14662A"/>
<path d="M183.683 83.2627L172.374 121.011L167.017 149.379H161.72L167.017 83.2627H183.683Z" fill="#83E59C"/>
<path d="M188.8 83.2627C188.026 102.885 188.324 113.588 188.503 115.371C188.681 117.155 189.693 129.066 196.538 149.954H191.003C181.955 129.93 178.741 117.961 177.729 115.371C176.717 112.724 173.622 102.022 169.158 83.2627H188.8Z" fill="#83E59C"/>
<path d="M183.921 83.2627C180.945 96.2673 175.885 116.983 168.624 145.466H160.826C160.231 116.235 162.731 97.0153 166.957 83.2627H183.921Z" fill="#0C420C"/>
<path d="M188.862 83.2627C188.088 102.885 190.112 122.219 196.302 145.754H187.969C178.862 126.017 172.374 106.798 167.91 83.2627H188.862Z" fill="#0C4C0D"/>
<path d="M197.312 153.867L197.015 149.091C195.229 149.609 192.967 149.379 190.289 148.516C187.372 150.53 183.742 151.853 179.277 152.601C178.92 152.659 178.742 152.946 178.801 153.292V153.349L179.218 154.788H190.289H196.717L197.312 153.867Z" fill="#4ED875"/>
<path d="M168.207 153.867L167.909 149.091C166.124 149.609 163.862 149.379 161.183 148.516C158.267 150.53 154.636 151.853 150.172 152.601C149.815 152.659 149.636 152.946 149.696 153.292V153.349L150.112 154.788H161.183H167.612L168.207 153.867Z" fill="#4ED875"/>
<path d="M179.515 45.5745C180.943 43.9633 181.896 41.9493 181.717 39.7627C181.241 33.3755 172.015 34.7565 170.23 37.9789C168.444 41.2013 168.622 49.4299 170.944 50.0053C171.896 50.2355 173.86 49.66 175.825 48.5092L174.575 57.083H182.015L179.515 45.5745Z" fill="#83E59C"/>
<path d="M175.527 40.4545C175.23 44.3098 174.515 46.2087 173.265 46.2087C171.42 46.2087 169.873 45.0579 169.099 45.0579C168.504 45.0579 168.623 45.7484 169.039 46.2663C169.337 46.7266 170.944 47.1294 170.944 47.7624C170.944 48.3954 169.694 47.935 169.694 48.3378C169.694 48.9708 169.456 50.2367 170.647 50.2367C171.837 50.2367 175.289 49.8339 175.884 48.1076C176.242 47.0143 176.48 44.7126 176.599 41.2026C176.658 41.2026 176.718 41.2026 176.837 41.2026C177.849 41.2026 178.682 42.0081 178.682 42.9864C178.682 43.5043 178.444 43.9646 178.146 44.2523C178.563 44.8277 179.039 45.4607 179.634 46.0937C181.718 44.8853 183.563 41.3752 181.539 37.9802C181.003 36.3114 179.396 35.4483 177.908 35.0455C176.718 34.5276 175.408 34.5276 174.396 34.8153C172.313 34.988 170.468 35.6209 169.932 35.9662C169.932 37.8651 170.289 38.4405 173.563 38.383C174.277 38.7858 174.873 39.5338 175.527 40.4545Z" fill="#062806"/>
<path d="M169.277 41.4316C169.099 42.4099 167.789 43.3305 167.849 44.4239C168.146 44.5389 168.384 44.7116 168.682 44.7691C168.98 44.8266 169.218 44.7691 169.515 44.8842" fill="#83E59C"/>
<path d="M169.812 40.3387C169.99 40.2237 170.109 40.1662 170.287 40.1087C170.466 40.0512 170.644 39.9937 170.882 40.0512C171.061 40.1087 171.299 40.2237 171.358 40.3962C171.418 40.4537 171.477 40.5687 171.477 40.6263C171.477 40.6838 171.477 40.7413 171.537 40.7413V40.7988V40.8563H171.477C171.477 40.7988 171.358 40.7988 171.299 40.7413C171.239 40.6838 171.12 40.6838 171.061 40.6263C170.942 40.5687 170.823 40.5112 170.704 40.5112C170.585 40.4537 170.466 40.4537 170.287 40.4537C170.168 40.5112 169.99 40.4537 169.812 40.3387Z" fill="#062806"/>
<path d="M170.229 41.5482C170.361 41.5482 170.467 41.4451 170.467 41.318C170.467 41.1909 170.361 41.0879 170.229 41.0879C170.098 41.0879 169.991 41.1909 169.991 41.318C169.991 41.4451 170.098 41.5482 170.229 41.5482Z" fill="#062806"/>
<path d="M154.279 56.6185L145.172 51.4397C140.887 51.2095 138.922 50.8067 139.16 50.2313C139.518 49.3682 140.708 49.771 141.065 49.2531C141.422 48.7352 140.232 47.2966 139.041 46.0307C137.851 44.7648 138.803 44.7072 139.398 44.8223C141.363 45.5704 143.386 46.7788 145.589 48.4475L157.314 51.8425L154.279 56.6185ZM160.469 76.9886L150.708 80.9014C147.97 84.0663 146.422 85.3322 146.065 84.8143C145.589 84.0087 146.66 83.3182 146.422 82.7428C146.184 82.1674 144.339 82.2249 142.553 82.34C140.767 82.4551 141.303 81.707 141.72 81.3618C143.505 80.326 145.767 79.4629 148.446 78.7724L158.326 71.7522L160.469 76.9886Z" fill="#83E59C"/>
<path d="M173.623 52.8794C168.267 62.5466 160.469 69.9696 149.22 77.7378L153.505 82.3987C166.064 77.8529 172.731 75.1484 176.004 65.9991C176.838 63.6974 177.373 56.3895 177.909 52.5342L173.623 52.8794Z" fill="#D83252"/>
<path d="M188.624 85.1618H164.815C170.232 69.2226 172.97 58.347 173.089 52.4202C173.089 52.1324 173.684 51.557 173.922 51.6721C175.767 52.19 177.791 52.0174 179.934 51.0967C185.588 59.8431 187.553 70.6611 188.624 85.1618Z" fill="#DBFCDF"/>
<path d="M177.909 51.0961C171.064 51.1536 159.993 52.362 147.196 48.3916L145.946 54.4911C155.589 60.4755 165.41 65.1365 173.921 64.5035C170.171 79.9249 170.35 92.5842 178.564 92.5842C182.492 92.5842 186.718 92.5842 191.242 92.5842C193.266 79.4645 187.968 61.2811 183.028 52.1319C182.85 51.7866 182.433 51.0961 181.481 51.0961C180.766 51.0961 179.516 51.0961 177.909 51.0961Z" fill="#F24C64"/>
<path d="M102.08 137.642C101.366 137.642 100.711 138.735 100.711 140.058C100.711 140.231 100.711 140.404 100.711 140.576C100.711 141.094 100.711 141.554 100.711 142.072C100.711 142.82 100.711 143.626 100.711 144.374C100.711 145.352 100.711 146.388 100.711 147.366C100.711 148.575 100.711 149.783 100.711 150.934C100.711 152.257 100.711 153.638 100.711 154.962C100.711 156.4 100.711 157.897 100.711 159.335C100.711 160.831 100.711 162.385 100.711 163.881C100.711 165.435 100.711 166.988 100.711 168.484C100.711 169.98 100.711 171.534 100.711 173.03C100.711 174.469 100.711 175.965 100.711 177.403C100.711 178.784 100.711 180.108 100.711 181.489C100.711 182.697 100.711 183.906 100.711 185.114C100.711 186.15 100.711 187.128 100.711 188.164C100.711 188.969 100.711 189.718 100.711 190.523C100.711 191.041 100.711 191.559 100.711 192.019C100.711 192.307 100.711 192.652 100.711 192.94C100.711 193.285 101.009 193.458 101.187 193.515C101.485 193.688 101.782 193.688 102.08 193.688C102.318 193.688 102.616 193.63 102.854 193.573C103.032 193.515 103.33 193.4 103.389 193.113C103.389 193.055 103.389 192.997 103.389 192.94C103.389 192.595 103.389 192.307 103.389 191.962C103.389 191.444 103.389 190.983 103.389 190.466C103.389 189.718 103.389 188.969 103.389 188.221C103.389 187.243 103.389 186.265 103.389 185.344C103.389 184.193 103.389 183.043 103.389 181.892C103.389 180.626 103.389 179.302 103.389 178.036C103.389 176.655 103.389 175.217 103.389 173.836C103.389 172.397 103.389 170.901 103.389 169.463C103.389 167.966 103.389 166.47 103.389 164.974C103.389 163.478 103.389 162.04 103.389 160.543C103.389 159.105 103.389 157.666 103.389 156.285C103.389 154.962 103.389 153.581 103.389 152.257C103.389 151.049 103.389 149.841 103.389 148.632C103.389 147.596 103.389 146.561 103.389 145.467C103.389 144.604 103.389 143.799 103.389 142.935C103.389 142.303 103.389 141.727 103.389 141.094C103.389 140.749 103.389 140.461 103.389 140.116C103.389 140.058 103.389 140.001 103.389 140.001C103.449 138.735 102.854 137.642 102.08 137.642Z" fill="#25B759"/>
<path d="M145.471 129.529C144.756 129.529 144.102 130.623 144.102 131.946C144.102 132.119 144.102 132.291 144.102 132.464C144.102 132.982 144.102 133.442 144.102 133.96C144.102 134.708 144.102 135.514 144.102 136.262C144.102 137.24 144.102 138.276 144.102 139.254C144.102 140.462 144.102 141.671 144.102 142.822C144.102 144.145 144.102 145.526 144.102 146.85C144.102 148.288 144.102 149.784 144.102 151.223C144.102 152.719 144.102 154.273 144.102 155.769C144.102 157.322 144.102 158.876 144.102 160.372C144.102 161.868 144.102 163.422 144.102 164.918C144.102 166.356 144.102 167.853 144.102 169.291C144.102 170.672 144.102 171.996 144.102 173.377C144.102 174.585 144.102 175.793 144.102 177.002C144.102 178.038 144.102 179.016 144.102 180.052C144.102 180.857 144.102 181.605 144.102 182.411C144.102 182.929 144.102 183.447 144.102 183.907C144.102 184.195 144.102 184.54 144.102 184.828C144.102 185.173 144.399 185.346 144.578 185.403C144.875 185.576 145.173 185.576 145.471 185.576C145.709 185.576 146.006 185.518 146.244 185.461C146.423 185.403 146.721 185.288 146.78 185C146.78 184.943 146.78 184.885 146.78 184.828C146.78 184.482 146.78 184.195 146.78 183.849C146.78 183.332 146.78 182.871 146.78 182.353C146.78 181.605 146.78 180.857 146.78 180.109C146.78 179.131 146.78 178.153 146.78 177.232C146.78 176.081 146.78 174.93 146.78 173.779C146.78 172.514 146.78 171.19 146.78 169.924C146.78 168.543 146.78 167.105 146.78 165.724C146.78 164.285 146.78 162.789 146.78 161.35C146.78 159.854 146.78 158.358 146.78 156.862C146.78 155.366 146.78 153.927 146.78 152.431C146.78 150.993 146.78 149.554 146.78 148.173C146.78 146.85 146.78 145.469 146.78 144.145C146.78 142.937 146.78 141.728 146.78 140.52C146.78 139.484 146.78 138.448 146.78 137.355C146.78 136.492 146.78 135.686 146.78 134.823C146.78 134.19 146.78 133.615 146.78 132.982C146.78 132.637 146.78 132.349 146.78 132.004C146.78 131.946 146.78 131.889 146.78 131.889C146.78 130.623 146.185 129.529 145.471 129.529Z" fill="#25B759"/>
<path d="M188.266 137.353C187.552 137.353 186.897 138.446 186.897 139.769C186.897 139.942 186.897 140.115 186.897 140.287C186.897 140.805 186.897 141.265 186.897 141.783C186.897 142.531 186.897 143.337 186.897 144.085C186.897 145.063 186.897 146.099 186.897 147.077C186.897 148.286 186.897 149.494 186.897 150.645C186.897 151.968 186.897 153.349 186.897 154.673C186.897 156.111 186.897 157.55 186.897 159.046C186.897 160.542 186.897 162.096 186.897 163.592C186.897 165.146 186.897 166.642 186.897 168.195C186.897 169.691 186.897 171.245 186.897 172.741C186.897 174.18 186.897 175.618 186.897 177.114C186.897 178.438 186.897 179.819 186.897 181.142C186.897 182.351 186.897 183.559 186.897 184.768C186.897 185.803 186.897 186.782 186.897 187.817C186.897 188.623 186.897 189.371 186.897 190.177C186.897 190.694 186.897 191.155 186.897 191.673C186.897 191.96 186.897 192.306 186.897 192.593C186.897 192.939 187.195 193.111 187.374 193.169C187.671 193.341 187.969 193.341 188.266 193.341C188.505 193.341 188.802 193.284 189.04 193.226C189.219 193.169 189.516 193.054 189.576 192.766C189.576 192.708 189.576 192.651 189.576 192.593C189.576 192.248 189.576 191.96 189.576 191.615C189.576 191.155 189.576 190.637 189.576 190.177C189.576 189.428 189.576 188.68 189.576 187.932C189.576 186.954 189.576 185.976 189.576 185.055C189.576 183.904 189.576 182.754 189.576 181.603C189.576 180.337 189.576 179.013 189.576 177.747C189.576 176.366 189.576 174.985 189.576 173.547C189.576 172.108 189.576 170.612 189.576 169.174C189.576 167.677 189.576 166.181 189.576 164.743C189.576 163.247 189.576 161.808 189.576 160.312C189.576 158.873 189.576 157.492 189.576 156.054C189.576 154.73 189.576 153.407 189.576 152.026C189.576 150.817 189.576 149.609 189.576 148.401C189.576 147.365 189.576 146.329 189.576 145.236C189.576 144.373 189.576 143.567 189.576 142.704C189.576 142.129 189.576 141.496 189.576 140.92C189.576 140.575 189.576 140.287 189.576 139.942C189.576 139.884 189.576 139.827 189.576 139.827C189.635 138.446 189.04 137.353 188.266 137.353Z" fill="#25B759"/>
<path d="M194.337 134.245C194.337 139.827 172.314 144.373 145.172 144.373C118.031 144.373 96.0078 139.827 96.0078 134.245V135.453C96.0078 141.035 117.971 145.581 145.113 145.581C172.255 145.581 193.563 141.265 194.397 135.799L194.337 134.245Z" fill="#4ED875"/>
<path d="M145.113 144.432C172.266 144.432 194.277 139.897 194.277 134.304C194.277 128.711 172.266 124.177 145.113 124.177C117.96 124.177 95.9482 128.711 95.9482 134.304C95.9482 139.897 117.96 144.432 145.113 144.432Z" fill="#9CEFAD"/>
<path d="M171.957 132.81L165.529 130.796L165.469 130.508L164.041 130.048L163.862 130.508L163.743 130.969L165.172 131.429L165.41 131.256L171.779 133.27L171.54 134.018L172.314 134.248L172.612 133.27L172.969 132.292L172.195 132.062L171.957 132.81Z" fill="#16994A"/>
<path d="M174.457 132.75L172.969 132.29L172.314 134.246L173.802 134.707L174.16 135.11C174.338 135.34 174.576 135.512 174.874 135.57L179.04 136.893C179.278 136.951 179.576 136.836 179.695 136.606L180.052 135.627L180.409 134.649C180.469 134.419 180.35 134.131 180.112 134.016L175.945 132.693C175.648 132.578 175.35 132.578 175.112 132.693L174.457 132.75Z" fill="#0C4C0D"/>
<path d="M175.013 134.334L174.829 134.881L179.132 136.232L179.315 135.684L175.013 134.334Z" fill="#16994A"/>
<path d="M175.413 133.237L175.229 133.784L179.532 135.135L179.716 134.588L175.413 133.237Z" fill="#16994A"/>
<path d="M141.006 128.203L140.709 129.871C140.709 129.987 140.53 130.102 140.411 130.044C139.756 129.929 137.911 129.584 136.423 130.159C135.173 130.62 134.161 131.368 133.566 131.828C133.268 132.058 132.852 132.058 132.614 131.828C132.316 131.54 132.316 131.022 132.673 130.792C133.745 129.987 136.066 128.663 139.459 128.778C139.875 128.778 140.292 128.606 140.53 128.26L140.649 128.03C140.709 127.973 140.768 127.973 140.828 127.915C140.947 127.973 141.066 128.088 141.006 128.203Z" fill="#16994A"/>
<path d="M143.267 130.736C143.386 130.736 143.506 130.736 143.625 130.679C143.744 130.621 143.863 130.564 143.982 130.449L145.113 130.334C145.589 130.276 146.005 130.104 146.303 129.816L147.612 128.607L147.493 128.377C147.493 128.377 146.958 128.607 146.184 128.895C146.184 129.125 146.065 129.355 145.827 129.471C145.589 129.586 145.291 129.471 145.172 129.298C144.875 129.413 144.577 129.528 144.22 129.643C144.22 129.586 144.22 129.528 144.16 129.528C144.16 129.471 144.101 129.413 144.101 129.413C144.398 129.298 144.755 129.183 145.053 129.068C145.053 128.838 145.172 128.607 145.41 128.492C145.648 128.377 145.946 128.492 146.065 128.665C146.839 128.377 147.374 128.147 147.374 128.147L147.255 127.917L145.47 127.859C144.994 127.859 144.577 127.974 144.22 128.262L143.327 128.895C143.208 128.895 143.029 128.895 142.91 128.953C142.791 129.01 142.672 129.068 142.613 129.125L140.887 128.953L140.708 129.931L142.256 130.046C142.256 130.046 142.256 130.046 142.315 130.046C142.315 130.104 142.315 130.161 142.375 130.161C142.375 130.219 142.434 130.276 142.434 130.276C142.434 130.276 142.434 130.276 142.375 130.276L141.303 131.369L142.137 132.002L143.267 130.736Z" fill="#0C4C0D"/>
<path d="M142.672 132.404L141.244 131.368C141.125 131.253 140.946 131.311 140.887 131.426C140.47 131.944 139.339 133.382 137.851 133.958C136.601 134.418 135.292 134.533 134.577 134.591C134.22 134.591 133.923 134.878 133.863 135.224C133.804 135.627 134.22 135.972 134.637 135.972C135.946 135.857 138.625 135.339 141.065 133.037C141.363 132.749 141.839 132.634 142.256 132.749L142.494 132.807C142.553 132.807 142.613 132.807 142.672 132.749C142.791 132.634 142.791 132.462 142.672 132.404Z" fill="#16994A"/>
<path d="M143.467 130.248C143.742 130.145 143.88 129.845 143.774 129.579C143.667 129.312 143.358 129.179 143.082 129.282C142.806 129.384 142.668 129.684 142.774 129.951C142.881 130.218 143.191 130.35 143.467 130.248Z" fill="#9CEFAD"/>
<path d="M114.4 137.412C112.257 134.995 113.626 132.176 113.626 132.176L114.4 130.795C114.459 130.68 114.519 130.68 114.638 130.68C115.055 130.68 115.471 130.449 115.65 130.104C115.828 129.701 115.828 129.299 115.59 128.953C115.531 128.896 115.531 128.781 115.59 128.666L116.305 127.4C116.364 127.342 116.424 127.285 116.543 127.342L118.626 128.435C118.685 128.493 118.745 128.551 118.685 128.666L117.971 129.932C117.912 130.047 117.852 130.047 117.733 130.047C117.316 130.047 116.9 130.277 116.721 130.622C116.721 130.68 116.662 130.68 116.662 130.737C116.424 131.255 116.662 131.83 117.197 132.118L117.614 132.291L129.28 138.275L128.447 139.829L116.781 133.844L116.067 133.499C114.34 133.787 114.519 136.319 114.698 137.412C114.757 137.47 114.519 137.527 114.4 137.412Z" fill="#25B759"/>
<path d="M130.233 140.81L125.293 138.278L126.245 136.494L131.186 139.026C131.364 138.911 131.543 138.911 131.721 138.968C131.959 139.084 132.078 139.371 131.959 139.659L131.186 141.098C131.067 141.328 130.769 141.443 130.471 141.328C130.352 141.155 130.233 140.982 130.233 140.81Z" fill="#0C420C"/>
</svg>
