<svg width="232" height="235" fill="none" xmlns="http://www.w3.org/2000/svg"><path d="M52 93c0 6-4 12-10 15-2 1-1 6-1 7l-7-4-8 1c-14 0-26-9-26-19 0-11 12-20 26-20 15 0 26 9 26 20zM242 135c0 8-9 14-21 14-7 0-13-2-17-6-1-1-8-1-7-2l4-3v-3c0-8 9-15 20-15 12 0 21 7 21 15zM61 109c0 7 6 13 14 17l1 7 8-4 10 1c17 0 32-9 32-21s-15-22-32-22c-18 0-33 10-33 22z" fill="#F9D2E1"/><path d="M22 171h8l-8 33c-1 2 2 5 2 7-2 1-2-3-5-1-3 1-6 4-9 2v-2l7-7 5-32z" fill="#F980AF"/><path d="M46 146l4-1c6 18 35 28 37 35v5l-4 3h-6c-3-1-29-21-31-42z" fill="#BC0C5C"/><path d="M56 127c1 5 3 16 1 18H46c-4-1-8-4-8-8v-8c0-5 4-9 9-9h1c4 0 8 3 8 7z" fill="#F9D2E1"/><path d="M43 135c-2-2-3-5-3-7 1-9 12-7 15-3 2 4 2 15-1 16l-6-2 1 11h-9l3-15z" fill="#F980AF"/><path d="M46 134c0 4 0 9-2 11H33c-1-11 6-7 6-17l1-1v-1c2-3 4-5 7-5 5 0 6 2 8 3-1 3-5 4-8 6l-1-1c-2 0-3 1-3 2 0 2 1 3 3 3-1 0-1 0 0 0z" fill="#F9D2E1"/><path d="M111 209a181 181 0 01-26-31c-3-5 5-9 7-6l23 35-4 2z" fill="#B28B67"/><path d="M100 208l-16-31c-3-5 10-10 12-8l20 31-16 8z" fill="#F980AF"/><path d="M92 211l-10-27-1-6c-2-6 9-10 10-4l6 36c0 2-3 4-5 1z" fill="#B28B67"/><path d="M90 210v5l23-1-1-2-4-1-10-4h-1v2l-3 1-2-1-2 1z" fill="#E4E4E4"/><path d="M108 208v5l20-1c1-2 0-3-1-3h-3l-9-3h-1v1l-3 1h-2-1z" fill="#E4E4E4"/><path d="M80 190c-5 9-9 15-19 20-11 4-20 1-25-12l18-11c3 0 15-16 37-19 5-1 6 4 7 6 0 0 5 11 10 32H87l-5-16h-2z" fill="#FDA5C4"/><path d="M52 148c2 24 16 29 14 39-2 9-27 19-32 11l-4-11-2 9c-1 4-5 5-5 6l-6-1c1-2-2-3-2-8 2-21 10-37 23-47v-2l2-2h10l2 2v4z" fill="#DD1D69"/><path d="M81 170l4 5 1 1v-3l4 1c0 1 3 2 2 0 0-2-3-7-5-7-2-1-6 0-7 1l-2 3 3-1z" fill="#F980AF"/><path d="M54 132h-1c0 2 2 1 1 0" fill="#BC0C5C"/><path d="M56 134l1 3h-2l1-3z" fill="#F980AF"/><path d="M52 132l1-1h2l-2 1h-1zM55 139h-1-1v-1l1 1 1 1h-1l-1-1-1-1h1l1 1h1z" fill="#BC0C5C"/><path d="M137 181l-12-11-9-4 3-1-1-5c-2-2 0-2 0-2l9 8 16 8-6 7z" fill="#FC54A0"/><path d="M174 173c-12 21-34 23-54 12l11-20c21 12 36 6 44-10l8 2c-2 5-5 11-9 16z" fill="#680436"/><path d="M165 197l24 14c-10 13-19 18-31 10-9-5-30-22-31-22" fill="#3581EF"/><path d="M122 185c3 2 5 7 0 10a295 295 0 01-49 26l-3-5 35-25c14-9 17-6 17-6z" fill="#FC54A0"/><path d="M129 191l-1 2c-2 7-7 12-12 16l-15 13c-2 1-5-3-4-4 1-2 19-29 24-33 2-2 7 2 8 5v1z" fill="#FC54A0"/><path d="M79 220l-1-1-2-2-2-2 1-2v-1l-13-5-3-2c-1-1-2 0-4 2l19 18 3-2 2-3z" fill="#E4E4E4"/><path d="M80 206c3-1 32-20 41-24 5-2 14 10 7 14l-43 21-5-11z" fill="#3581EF"/><path d="M106 219l-1-1-3 1-3-1-1-2h-1l-12 6h-4l-1 4h27v-4l-1-3z" fill="#E4E4E4"/><path d="M126 181l44 16 26 4c2 22-21 28-33 21l-33-21c-1-1-4 0-20 18l-12-7 18-28c3-2 6-5 10-3z" fill="#5EA7EF"/><path d="M186 164h-11l2-13c-3 2-6 2-8 2-3-1-4-13-1-18s17-7 18 2c0 4-2 7-4 9l4 18z" fill="#FC54A0"/><path d="M175 139l1-3h6v-1l-14-1c0-2 2-4 9-4 6 0 10 3 10 8 0 4-3 9-5 9l-1-2 1-2-2-2h-1l-4-2z" fill="#770649"/><path d="M223 223l10 8v2c-4 3-7 0-11-2s-4 3-7 2c1-2 3-6 2-9l-17-39h10l13 38z" fill="#FC54A0"/><path d="M186 151c19 16 30 39 36 68h-25v-11l-32-10c3-15 8-24 8-44l13-3z" fill="#84033E"/><path d="M197 208l-9-3c2-6 4-19 3-32 3 10 5 24 6 35z" fill="#680436"/><path d="M166 142c1 2-4 6 1 6l-1-6z" fill="#FC54A0"/><path d="M169 141v0zM168 140h3v1h-1v-1h-2zM167 150l1-1h2v1l-1 1h-2l2-1 1-1h-1l1 1h-2-1z" fill="#770649"/></svg>