<svg width="405" height="278" viewBox="0 0 405 278" fill="none" xmlns="http://www.w3.org/2000/svg">
<path d="M106.056 127.468C100.057 129.036 94.8842 131.114 90.5361 133.701C61.1362 151.368 37.367 174.651 16.2498 194.969C4.68283 206.182 -2.42209 219.259 5.26947 232.232C7.44275 235.992 10.9154 239.652 16.5811 242.76C25.838 247.862 39.8579 250.6 53.3748 252.336C112.419 259.959 172.075 252.947 231.79 257.205C272.937 260.075 316.72 268.283 353.627 262.16C392.417 255.785 409.127 232.835 389.768 214.33C379.282 204.312 360.903 196.242 342.935 188.459C302.818 171.113 262.854 149.594 218.549 134.589C186.16 123.653 136.795 119.231 106.056 127.468Z" fill="#D7FAF2"/>
<path d="M77.5996 113.398L93.0282 167.591L104.31 207.512H112.507L100.55 113.398H77.5996Z" fill="#27A8A5"/>
<path d="M73.4528 113.398C73.0671 141.362 71.91 156.501 71.5243 159.105C71.1385 161.612 65.4492 177.812 54.5527 207.512H63.0385C77.0206 178.969 84.7349 162.866 86.3742 159.105C88.0134 155.344 93.0278 140.109 100.549 113.398H73.4528Z" fill="#4FD3BC"/>
<path d="M53.7817 215.226L54.1675 206.259H63.1353C67.3781 209.248 72.8746 211.659 79.721 213.491V215.226H63.521L58.0246 214.359V215.226H53.7817Z" fill="#82F2DB"/>
<path d="M103.153 215.226L103.539 206.259H112.506C116.749 209.248 122.246 211.659 129.092 213.491V215.226H112.892L107.396 214.359V215.226H103.153Z" fill="#82F2DB"/>
<path d="M84.3495 59.7836C82.421 57.4693 81.071 54.6729 81.2639 51.4907C81.9389 42.4264 94.571 44.355 97.0782 48.9836C99.5853 53.6122 99.296 65.28 96.0174 66.0514C94.7638 66.3407 92.0638 65.5693 89.2674 63.93L91.0031 76.1764H80.7817L84.3495 59.7836Z" fill="#D7FAF2"/>
<path d="M93.028 43.9693C91.678 43.5836 89.6529 43.3908 88.7851 43.4872C89.2672 42.33 89.4601 41.0765 89.2672 39.7265C89.0744 38.4729 88.5923 37.4122 88.0137 36.3515C87.8209 35.8693 87.5316 35.3872 87.1458 35.0015C86.7601 34.6158 86.278 34.3265 85.6994 34.23C85.1208 34.1336 84.5423 34.1336 84.0602 34.23C83.7709 34.3265 83.578 34.4229 83.3851 34.4229C83.0958 34.5193 82.9994 34.3265 82.8066 34.1336C82.4208 33.7479 81.7459 33.555 81.2637 33.555C80.6852 33.4586 80.0101 33.555 79.4316 33.7479C78.853 33.9408 78.3709 34.23 77.8887 34.7122C77.6959 34.905 77.503 35.1943 77.4066 35.3872C77.4066 35.4836 77.3101 35.58 77.2137 35.58C77.1172 35.58 77.0209 35.58 76.9244 35.6765C75.9602 35.9658 75.0923 36.7372 74.7065 37.7015C74.4173 38.28 74.3208 39.2443 74.3208 40.305C74.3208 41.3658 75.3815 44.2586 76.2494 45.3193C77.1172 46.2836 78.2744 46.8622 79.4316 47.1515C78.6601 48.0193 78.0815 49.1765 77.6958 50.3336C77.3101 51.5872 77.0209 52.8407 76.9244 54.1908C76.828 55.4443 76.828 56.6979 77.1173 57.9515C77.4065 59.1086 77.9851 59.9765 78.9494 60.6515C79.4316 60.9408 79.9137 61.1336 80.3958 61.3265C80.878 61.5193 81.3601 61.7122 81.8423 61.8086C82.8066 62.0015 83.8673 62.0015 84.6387 61.23C84.928 60.9408 85.2172 60.6515 85.4101 60.2658C85.5065 60.1693 85.5065 60.0729 85.4101 59.9765C85.3137 59.88 85.1209 59.6872 85.0245 59.5908C84.253 59.0122 83.8673 58.1443 83.7708 57.18C83.6744 56.2158 83.9637 54.8658 84.9279 54.48C86.0851 53.9015 87.4352 54.5765 88.4959 55.155C88.978 53.5157 89.8459 52.1658 91.2923 51.3943C92.9316 50.6229 94.7637 50.5265 96.403 49.755C96.7887 49.5622 97.2709 49.3693 97.5602 48.9836C97.6566 48.7908 97.8494 48.5979 97.9458 48.405C98.0422 48.1158 97.8494 47.9229 97.753 47.73C97.1744 46.6693 94.4744 44.4515 93.028 43.9693Z" fill="#B30436"/>
<path d="M98.2346 55.7336C98.2346 57.4693 100.067 58.9157 100.067 60.6514C99.3918 60.8443 98.6203 60.9407 97.9453 61.0372" fill="#D7FAF2"/>
<path d="M97.9456 63.5443C97.367 63.7372 96.6921 63.6407 96.2099 63.3515C95.7278 63.0622 95.2456 62.58 95.0527 62.0015C95.6313 62.2908 96.017 62.4836 96.4992 62.7729C96.8849 62.9658 97.367 63.1586 97.9456 63.5443Z" fill="#187F73"/>
<path d="M95.2458 54.9622C95.1494 54.6729 95.3422 54.2872 95.6315 54.0943C95.8244 53.9015 96.21 53.805 96.4993 53.7086C96.7886 53.7086 97.0779 53.7086 97.3672 53.8051C97.6565 53.9015 97.8493 54.1908 97.9457 54.48C97.6564 54.3836 97.4636 54.3836 97.1744 54.2872C96.9815 54.2872 96.6921 54.2872 96.4993 54.2872C96.3064 54.2872 96.1136 54.3836 95.8243 54.3836C95.7279 54.6729 95.4386 54.7693 95.2458 54.9622Z" fill="#187F73"/>
<path d="M97.1745 56.6015C97.4408 56.6015 97.6567 56.3856 97.6567 56.1193C97.6567 55.8531 97.4408 55.6372 97.1745 55.6372C96.9082 55.6372 96.6924 55.8531 96.6924 56.1193C96.6924 56.3856 96.9082 56.6015 97.1745 56.6015Z" fill="#187F73"/>
<path d="M115.978 99.5122L131.407 92.7622C134.107 90.0622 136.71 88.0372 139.218 86.5907C139.989 86.3979 141.243 86.3015 139.893 88.3265C138.543 90.3515 137.193 92.4729 137.675 93.2443C138.253 93.9193 139.796 93.1479 140.471 94.305C140.857 95.0765 138.253 95.9443 132.468 97.005L120.896 105.876L115.978 99.5122ZM53.589 101.441L62.2676 103.176C53.4926 119.569 48.7676 128.151 48.189 129.212C46.7426 131.43 48.0926 135.48 48.5747 137.601C45.489 138.276 46.7426 133.648 42.789 134.612C39.2212 135.48 36.1354 137.794 32.8568 134.709C32.4711 134.323 32.1819 133.166 33.5319 132.587C37.0033 131.044 42.2104 128.248 42.9818 127.187C44.139 125.548 47.6104 117.062 53.589 101.441Z" fill="#D7FAF2"/>
<path d="M85.9893 68.7515L89.6535 68.0765C97.6571 75.8872 100.936 94.4979 106.336 97.005C111.35 99.3193 118.582 97.1015 127.068 94.0158L129.671 99.8015C121.957 108.191 105.468 115.23 98.8142 111.18C88.1106 104.912 85.6036 81.8658 85.9893 68.7515Z" fill="#055E5A"/>
<path d="M69.9814 115.037C84.735 115.037 95.6315 115.037 102.574 115.037C104.021 115.037 103.828 112.916 103.539 111.759C101.031 99.2229 91.3887 85.7229 91.3887 67.8836L82.035 66.4372C74.2243 78.9729 71.5243 94.4015 69.9814 115.037Z" fill="#EDFDF9"/>
<path d="M66.703 102.405C60.0494 114.362 54.4565 123.041 49.9244 128.248L35.4277 108.732C39.8634 81.4422 60.2422 79.4551 81.2637 66.5336H81.3601H84.9279C93.3172 95.2693 95.728 114.459 91.8708 124.005H62.5565C63.2315 116.966 64.678 109.637 66.703 102.405Z" fill="#187F73"/>
<path d="M49.6294 120.425L65.2508 174.136L72.5794 214.54H79.908L72.5794 120.425H49.6294Z" fill="#DD0539"/>
<path d="M42.5903 120.425C43.651 148.39 43.2653 163.529 42.976 166.132C42.6867 168.64 41.3367 185.611 31.8867 215.407H39.5046C51.9439 186.865 56.3796 169.893 57.7296 166.132C59.176 162.372 63.4188 147.136 69.5903 120.425H42.5903Z" fill="#DD0539"/>
<path d="M49.2441 120.425C53.2941 138.94 60.3335 168.447 70.2656 208.947H81.0656C81.837 167.29 78.4621 139.904 72.5799 120.425H49.2441Z" fill="#B30436"/>
<path d="M42.5901 120.425C43.6508 148.39 40.8544 175.872 32.3687 209.429H43.8437C56.3794 181.368 65.3472 153.982 71.4222 120.425H42.5901Z" fill="#DD0539"/>
<path d="M30.9224 220.904L31.3081 214.057C33.8152 214.829 36.9009 214.54 40.5652 213.19C44.6152 215.986 49.6296 217.915 55.7046 218.975C56.1867 219.072 56.476 219.457 56.3795 219.94V220.036L55.801 222.061H40.5652H31.6938L30.9224 220.904Z" fill="#4FD3BC"/>
<path d="M70.9404 220.904L71.3262 214.057C73.8333 214.829 76.919 214.54 80.5833 213.19C84.6333 215.986 89.6476 217.915 95.7226 218.975C96.2047 219.072 96.494 219.457 96.3976 219.94V220.036L95.819 222.061H80.5833H71.7119L70.9404 220.904Z" fill="#4FD3BC"/>
<path d="M53.3902 66.7147C51.4616 64.4004 50.1116 61.604 50.3044 58.4218C50.9794 49.3575 63.6116 51.2861 66.1187 55.9147C68.6259 60.5432 68.3366 72.2111 65.058 72.9825C63.8045 73.2718 61.1045 72.5004 58.308 70.8611L60.0438 83.1075H49.8223L53.3902 66.7147Z" fill="#187F73"/>
<path d="M52.619 68.8361C51.3654 63.1468 47.7012 59.2897 48.2797 56.6861C48.6654 54.9504 49.6297 53.8897 51.269 53.504C52.1369 50.129 54.8369 48.6825 59.369 49.1647C66.2154 49.9361 70.3619 52.7325 68.5297 59.0004C66.8904 59.0004 64.8655 58.4218 62.1655 59.3861C61.2976 59.6754 60.6226 60.7361 60.3333 62.3754H59.0798C57.8262 60.3504 56.669 59.6754 55.5119 60.1575C54.3547 60.7361 54.0655 61.9897 54.7405 64.0147L54.1619 68.7397H52.619V68.8361Z" fill="#055E5A"/>
<path d="M67.4687 63.0504C67.8545 64.304 68.1438 65.654 68.3366 66.9076C68.5295 68.354 68.433 69.1254 66.6973 68.9325" fill="#187F73"/>
<path d="M65.8297 62.0861C65.3476 61.9897 64.9618 61.8933 64.5761 61.7968C64.1904 61.7968 63.7082 61.7968 63.2261 61.7004C63.4189 61.604 63.6119 61.5075 63.9011 61.4111C64.094 61.3147 64.3832 61.3147 64.6725 61.3147C65.0582 61.4111 65.5404 61.7004 65.8297 62.0861Z" fill="#055E5A"/>
<path d="M65.1547 64.0147C65.4743 64.0147 65.7333 63.7557 65.7333 63.4361C65.7333 63.1166 65.4743 62.8575 65.1547 62.8575C64.8352 62.8575 64.5762 63.1166 64.5762 63.4361C64.5762 63.7557 64.8352 64.0147 65.1547 64.0147Z" fill="#055E5A"/>
<path d="M66.697 70.9575C66.3113 71.1504 65.8292 71.2468 65.3471 71.0539C64.865 70.8611 64.6721 70.4754 64.3828 70.1861C64.5757 70.1861 64.8649 70.2825 65.0578 70.379C65.2506 70.4754 65.4435 70.5718 65.6363 70.6682C65.8292 70.7647 66.3113 70.7647 66.697 70.9575Z" fill="#055E5A"/>
<path d="M82.8011 113.579L95.5296 122.933C99.001 123.897 101.894 125.054 104.208 126.404C104.787 126.886 105.462 127.947 103.147 127.754C100.833 127.561 98.4225 127.465 98.1333 128.236C97.844 129.008 99.1939 129.972 98.5189 131.033C98.1332 131.708 96.1082 129.972 92.5403 125.825L79.9082 120.618L82.8011 113.579ZM33.7189 113.868H42.1082C36.901 130.55 34.2011 139.422 33.7189 140.386C32.7546 142.7 34.7797 146.172 35.5511 148.1C32.8511 149.354 33.1404 144.822 29.669 146.365C26.4868 147.811 24.1725 150.511 20.5083 148.197C20.0261 147.908 19.5439 146.847 20.7975 146.075C23.7868 144.05 28.0296 140.483 28.6082 139.325C29.3796 137.879 31.1154 129.393 33.7189 113.868Z" fill="#187F73"/>
<path d="M57.5369 78.7683L61.0084 78.1897C73.8334 89.279 79.137 110.59 94.8548 121.872L91.0941 126.597C63.7084 123.222 56.9583 97.1861 57.5369 78.7683Z" fill="#82F2DB"/>
<path d="M42.3975 122.258C56.2832 122.258 66.5047 122.258 73.0618 122.258C74.5082 122.258 74.2189 120.233 74.0261 119.172C71.7118 107.408 62.5511 94.679 62.5511 77.9969L53.6796 76.6469C46.351 88.4111 43.8439 102.875 42.3975 122.258Z" fill="#EDFDF9"/>
<path d="M42.6872 88.2183C41.4336 87.8325 40.3728 86.9647 39.6014 85.6147C36.4193 79.829 37.5764 76.5504 40.9514 75.4897C44.4229 74.429 47.5086 76.6468 53.005 76.6468C53.2943 76.6468 53.5836 76.6468 53.8729 76.7433L56.6693 76.9361C64.5765 103.84 66.7943 121.775 63.2264 130.743H39.1193C37.6728 134.118 36.3229 136.915 34.9729 139.133H28.4157C27.7407 119.075 32.5622 102.104 42.6872 88.2183Z" fill="#82F2DB"/>
<path d="M44.326 116.858C45.0975 123.222 46.3511 127.85 47.9904 130.647H39.0225C40.7582 126.79 42.4939 122.258 44.326 116.858Z" fill="#4FD3BC"/>
<path d="M32.5357 91.8565C36.0071 89.9279 41.6964 87.6779 43.1429 87.9993L36.3929 98.1243L37.3571 101.017L31.0892 104.874C29.1606 102.946 28.1964 94.2672 32.5357 91.8565Z" fill="#187F73"/>
<path d="M37.8389 112.589C34.7532 111.046 32.6961 106.481 32.0532 104.392L36.3925 101.017C36.8747 101.339 38.2247 102.367 39.7675 103.91C41.6961 105.839 41.6961 106.803 41.2139 106.803C40.7318 106.803 37.8389 105.839 38.3211 106.803C38.7068 107.574 40.7318 111.303 41.6961 113.071C41.6961 113.553 40.9247 114.131 37.8389 112.589Z" fill="#D7FAF2"/>
<path d="M191.121 82.2018L190.653 82.2797C190.653 82.2797 185.82 70.1968 185.664 69.885C185.274 69.1054 184.885 66.6109 186.288 66.5329L186.756 66.455" fill="#82F2DB"/>
<path d="M197.903 79.6292C203.594 86.6451 205.231 86.723 205.231 86.723C205.231 86.723 207.258 87.0348 206.245 85.086C205.231 83.1371 198.995 78.148 198.995 78.148L197.903 79.6292Z" fill="#27A8A5"/>
<path d="M198.792 79.1858C199.095 78.7679 199.172 78.3061 198.963 78.1542C198.754 78.0023 198.339 78.2179 198.035 78.6358C197.731 79.0536 197.654 79.5155 197.863 79.6674C198.072 79.8193 198.488 79.6037 198.792 79.1858Z" fill="#82F2DB"/>
<path d="M192.212 79.0835C192.212 78.9276 192.29 78.6938 192.524 78.6938L197.123 77.9922C197.279 77.9922 197.981 77.8363 198.605 78.5379C198.683 78.6938 198.683 78.9276 198.527 79.0056C198.371 79.0835 198.137 79.0835 198.059 78.9276C197.669 78.4599 197.279 78.6158 197.279 78.6158L192.68 79.3174C192.446 79.3954 192.29 79.2394 192.212 79.0835Z" fill="#4FD3BC"/>
<path d="M194.396 76.2772L191.122 82.2018C191.122 82.2018 186.288 70.1188 186.132 69.807C185.743 69.0275 185.353 66.5329 186.756 66.455C187.458 66.455 188.081 67.2345 188.393 67.7802C188.939 68.5597 189.407 69.2613 189.952 70.0409C191.433 72.1456 192.915 74.1725 194.396 76.2772Z" fill="#27A8A5"/>
<path d="M263.54 118.607L248.572 171.07L237.659 209.735H229.708L241.323 118.607H263.54Z" fill="#055E5A"/>
<path d="M267.515 118.607C267.827 145.657 269.075 160.39 269.386 162.807C269.776 165.223 275.233 180.892 285.835 209.658H277.65C264.163 182.062 256.602 166.393 255.043 162.807C253.484 159.143 248.65 144.41 241.323 118.607H267.515Z" fill="#187F73"/>
<path d="M286.614 217.141L286.224 208.488H277.571C273.44 211.373 268.139 213.711 261.513 215.504V217.141H277.182L282.56 216.284V217.141H286.614Z" fill="#4FD3BC"/>
<path d="M238.828 217.141L238.438 208.488H229.785C225.654 211.373 220.353 213.711 213.727 215.504V217.141H229.395L234.774 216.284V217.141H238.828Z" fill="#4FD3BC"/>
<path d="M253.017 56.7106C254.887 54.4499 256.213 51.7215 255.979 48.6813C255.355 39.8724 243.116 41.8213 240.7 46.2647C238.283 50.7081 238.595 62.0115 241.713 62.7911C242.96 63.1029 245.533 62.3233 248.261 60.6863L246.468 72.5354H256.369L253.017 56.7106Z" fill="#82F2DB"/>
<path d="M233.06 87.9705L222.692 78.4601C217.235 76.9789 214.741 75.8096 215.208 75.186C215.91 74.1726 217.391 75.0301 217.937 74.4064C218.56 73.7828 217.391 71.6001 216.222 69.4953C215.052 67.4685 216.3 67.6244 217.001 67.9362C219.34 69.4953 221.678 71.678 224.017 74.4844L238.361 82.3578L233.06 87.9705ZM215.52 95.2203C212.792 93.2715 210.297 91.9462 207.958 91.3226C203.515 90.0753 201.722 89.1399 199.539 86.3335C198.37 84.8523 197.357 81.8901 198.526 80.8767C199.305 80.253 203.515 84.7744 205.152 83.9169C205.464 83.761 202.346 81.1885 203.281 81.6562C204.528 81.6562 208.738 82.1239 209.673 85.476L215.988 88.906L215.52 95.2203Z" fill="#82F2DB"/>
<path d="M245.299 80.5649C240.31 80.4869 233.606 79.4735 226.512 74.9521L223.706 81.1885C228.617 86.0997 235.555 90.0753 241.557 89.9194C246.312 89.7635 248.729 83.9949 245.299 80.5649Z" fill="#27A8A5"/>
<path d="M238.517 90.543C233.216 91.8682 224.251 90.3091 211.778 85.8657C208.66 92.258 207.257 96.8573 207.491 99.5857C218.249 105.198 227.447 107.693 235.009 107.849C234.775 112.37 235.321 116.658 237.192 120.555C241.011 128.585 263.15 121.179 270.556 122.582C275.233 107.459 266.191 101.301 266.191 91.5564C266.191 80.9546 257.694 64.5841 256.368 64.5841H244.909C244.285 72.8473 241.167 81.7341 238.517 90.543Z" fill="#4FD3BC"/>
<path d="M239.608 51.0199C239.296 52.4231 237.893 53.5144 237.737 54.9176C237.659 56.1649 238.75 56.2429 239.686 57.0224" fill="#82F2DB"/>
<path d="M240.387 50.3184C240.543 50.0065 240.855 49.7727 241.167 49.6168C241.479 49.4609 241.868 49.4609 242.258 49.5388C242.648 49.6168 242.96 49.8506 243.194 50.0845C243.428 50.3184 243.583 50.7081 243.583 51.0199C243.116 50.4743 242.648 50.2404 242.102 50.0845C241.557 50.0065 241.011 50.0065 240.387 50.3184Z" fill="#187F73"/>
<path d="M239.607 58.9713C240.153 58.8933 240.621 58.6595 241.089 58.5036C241.556 58.2697 242.102 58.1138 242.648 58.0358H242.96V58.3477C243.037 58.7374 242.804 59.0492 242.648 59.2831C242.492 59.517 242.258 59.7508 242.024 59.9067C241.79 60.0627 241.556 60.2186 241.322 60.3745C241.089 60.5304 240.777 60.6083 240.543 60.6863C241.011 60.2965 241.4 59.9847 241.712 59.5949C241.868 59.3611 242.024 59.2052 242.18 58.9713C242.336 58.7374 242.414 58.5815 242.336 58.4256L242.648 58.6595C242.18 58.7374 241.634 58.8933 241.167 58.9713C240.699 59.0492 240.153 59.1272 239.607 58.9713Z" fill="#187F73"/>
<path d="M241.557 51.6436C241.772 51.6436 241.947 51.4691 241.947 51.2538C241.947 51.0385 241.772 50.864 241.557 50.864C241.341 50.864 241.167 51.0385 241.167 51.2538C241.167 51.4691 241.341 51.6436 241.557 51.6436Z" fill="#187F73"/>
<path d="M295.599 217.94L302.536 194.505L305.86 195.606L299.296 217.94H295.599Z" fill="#055E5A"/>
<path d="M336.932 157.422L342 164.627C342 164.627 341.626 172.891 337.804 180.138C333.983 187.427 320.15 196.073 316.328 195.606C312.506 195.14 304.156 183.486 304.156 183.486C304.156 183.486 295.183 172.34 295.64 168.441C296.097 164.585 307.729 153.015 315.58 151.023C323.431 149.031 331.366 150.684 331.366 150.684L336.932 157.422Z" fill="#B30436"/>
<path d="M319.277 180.223C310.595 180.223 299.587 177.214 296.222 171.238C298.216 176.069 304.115 183.444 304.115 183.444C304.115 183.444 312.506 195.056 316.286 195.564C320.067 196.073 333.9 187.385 337.763 180.096C341.585 172.806 341.959 164.585 341.959 164.585L340.38 162.339C336.724 173.272 327.959 180.223 319.277 180.223Z" fill="#B30436"/>
<path d="M315.082 149.413C314.791 149.031 314.251 148.904 313.835 149.074L312.963 149.794C312.465 150.176 312.381 150.896 312.755 151.362L336.849 182.935C337.14 183.316 337.68 183.444 338.095 183.274L338.968 182.554C339.466 182.172 339.549 181.452 339.175 180.985L315.082 149.413Z" fill="#055E5A"/>
<path d="M302.578 194.038C302.578 194.038 304.862 187.342 305.61 185.478C306.358 183.613 307.022 183.359 310.512 183.359C314.001 183.359 320.523 183.359 322.725 183.359C324.927 183.359 325.093 184.037 325.384 186.241C325.674 188.444 327.544 203.489 327.544 203.489C327.544 203.489 323.639 204.506 317.865 202.26C312.09 200.056 302.578 194.038 302.578 194.038Z" fill="#82F2DB"/>
<path d="M305.652 185.478C305.319 186.283 304.696 187.978 304.115 189.673C310.014 196.708 318.779 198.615 318.779 198.615C320.357 195.903 323.14 195.479 323.14 195.479L322.351 183.401C319.859 183.401 313.835 183.401 310.512 183.401C307.064 183.359 306.4 183.571 305.652 185.478Z" fill="#82F2DB"/>
<path d="M315.082 191.58C316.298 191.58 317.283 190.575 317.283 189.334C317.283 188.094 316.298 187.088 315.082 187.088C313.866 187.088 312.88 188.094 312.88 189.334C312.88 190.575 313.866 191.58 315.082 191.58Z" fill="#055E5A"/>
<path d="M315.082 188.063C315.219 188.063 315.331 187.949 315.331 187.809C315.331 187.668 315.219 187.554 315.082 187.554C314.944 187.554 314.833 187.668 314.833 187.809C314.833 187.949 314.944 188.063 315.082 188.063Z" fill="#055E5A"/>
<path d="M316.298 188.465C316.395 188.366 316.395 188.205 316.298 188.106C316.2 188.006 316.043 188.006 315.945 188.106C315.848 188.205 315.848 188.366 315.945 188.465C316.043 188.564 316.2 188.564 316.298 188.465Z" fill="#055E5A"/>
<path d="M316.577 189.589C316.715 189.589 316.826 189.475 316.826 189.334C316.826 189.194 316.715 189.08 316.577 189.08C316.439 189.08 316.328 189.194 316.328 189.334C316.328 189.475 316.439 189.589 316.577 189.589Z" fill="#055E5A"/>
<path d="M316.311 190.63C316.409 190.531 316.409 190.37 316.311 190.27C316.214 190.171 316.056 190.171 315.959 190.27C315.862 190.369 315.862 190.53 315.959 190.63C316.056 190.729 316.214 190.729 316.311 190.63Z" fill="#055E5A"/>
<path d="M315.082 191.114C315.219 191.114 315.331 191 315.331 190.86C315.331 190.719 315.219 190.606 315.082 190.606C314.944 190.606 314.833 190.719 314.833 190.86C314.833 191 314.944 191.114 315.082 191.114Z" fill="#055E5A"/>
<path d="M314.192 190.626C314.289 190.527 314.289 190.366 314.192 190.267C314.094 190.168 313.937 190.168 313.839 190.267C313.742 190.366 313.742 190.527 313.839 190.626C313.937 190.726 314.094 190.726 314.192 190.626Z" fill="#055E5A"/>
<path d="M313.586 189.589C313.724 189.589 313.835 189.475 313.835 189.334C313.835 189.194 313.724 189.08 313.586 189.08C313.448 189.08 313.337 189.194 313.337 189.334C313.337 189.475 313.448 189.589 313.586 189.589Z" fill="#055E5A"/>
<path d="M314.173 188.449C314.271 188.35 314.271 188.189 314.173 188.089C314.076 187.99 313.918 187.99 313.821 188.089C313.723 188.189 313.723 188.35 313.821 188.449C313.918 188.548 314.076 188.548 314.173 188.449Z" fill="#055E5A"/>
<path d="M315.081 190.224C315.563 190.224 315.954 189.826 315.954 189.334C315.954 188.843 315.563 188.444 315.081 188.444C314.6 188.444 314.209 188.843 314.209 189.334C314.209 189.826 314.6 190.224 315.081 190.224Z" fill="#055E5A"/>
<path d="M325.384 202.133C325.384 202.133 314.043 200.141 307.48 195.606C302.578 192.216 298.756 184.757 298.756 184.757H287C287 186.834 288.662 188.487 290.656 188.487H297.094C297.094 188.487 299.795 194.377 305.486 198.488C310.138 201.879 319.983 205.354 325.384 205.354V202.133Z" fill="#187F73"/>
<path d="M298.798 184.757H287.042C287.042 185.181 287.125 185.563 287.249 185.944H298.133C298.133 185.944 301.705 193.615 307.23 197.005C312.755 200.395 321.396 202.726 325.425 203.15V202.175C325.425 202.175 314.085 200.184 307.521 195.649C302.619 192.216 298.798 184.757 298.798 184.757Z" fill="#187F73"/>
<path d="M328.541 219C334.804 219 339.882 213.82 339.882 207.43C339.882 201.041 334.804 195.861 328.541 195.861C322.278 195.861 317.2 201.041 317.2 207.43C317.2 213.82 322.278 219 328.541 219Z" fill="#055E5A"/>
<path d="M328.541 195.861C326.63 195.861 324.843 196.327 323.306 197.174C320.44 199.209 318.571 202.599 318.571 206.413C318.571 212.601 323.514 217.644 329.579 217.644C333.318 217.644 336.641 215.737 338.635 212.813C339.466 211.202 339.923 209.38 339.923 207.473C339.923 201.031 334.813 195.861 328.541 195.861Z" fill="#055E5A"/>
<path d="M328.541 213.702C331.936 213.702 334.689 210.894 334.689 207.43C334.689 203.966 331.936 201.158 328.541 201.158C325.145 201.158 322.393 203.966 322.393 207.43C322.393 210.894 325.145 213.702 328.541 213.702Z" fill="#82F2DB"/>
<path d="M328.541 212.516C331.294 212.516 333.526 210.239 333.526 207.43C333.526 204.622 331.294 202.345 328.541 202.345C325.788 202.345 323.556 204.622 323.556 207.43C323.556 210.239 325.788 212.516 328.541 212.516Z" fill="#187F73"/>
<path d="M328.541 210.99C330.468 210.99 332.03 209.396 332.03 207.43C332.03 205.464 330.468 203.87 328.541 203.87C326.614 203.87 325.051 205.464 325.051 207.43C325.051 209.396 326.614 210.99 328.541 210.99Z" fill="#82F2DB"/>
<path d="M328.541 209.507C329.665 209.507 330.576 208.577 330.576 207.43C330.576 206.283 329.665 205.354 328.541 205.354C327.417 205.354 326.505 206.283 326.505 207.43C326.505 208.577 327.417 209.507 328.541 209.507Z" fill="#187F73"/>
<path d="M328.541 206.244C328.655 206.244 328.748 206.149 328.748 206.032C328.748 205.915 328.655 205.82 328.541 205.82C328.426 205.82 328.333 205.915 328.333 206.032C328.333 206.149 328.426 206.244 328.541 206.244Z" fill="#187F73"/>
<path d="M327.732 206.614C327.813 206.531 327.813 206.397 327.732 206.315C327.651 206.232 327.519 206.232 327.438 206.315C327.357 206.397 327.357 206.531 327.438 206.614C327.519 206.697 327.651 206.697 327.732 206.614Z" fill="#187F73"/>
<path d="M327.17 207.642C327.285 207.642 327.378 207.547 327.378 207.43C327.378 207.313 327.285 207.218 327.17 207.218C327.055 207.218 326.962 207.313 326.962 207.43C326.962 207.547 327.055 207.642 327.17 207.642Z" fill="#187F73"/>
<path d="M327.717 208.552C327.799 208.469 327.799 208.335 327.717 208.253C327.636 208.17 327.505 208.17 327.424 208.253C327.343 208.335 327.343 208.469 327.424 208.552C327.505 208.635 327.636 208.635 327.717 208.552Z" fill="#187F73"/>
<path d="M328.541 209.041C328.655 209.041 328.748 208.946 328.748 208.829C328.748 208.712 328.655 208.617 328.541 208.617C328.426 208.617 328.333 208.712 328.333 208.829C328.333 208.946 328.426 209.041 328.541 209.041Z" fill="#187F73"/>
<path d="M329.635 208.569C329.716 208.487 329.716 208.352 329.635 208.27C329.554 208.187 329.422 208.187 329.341 208.27C329.26 208.352 329.26 208.487 329.341 208.569C329.422 208.652 329.554 208.652 329.635 208.569Z" fill="#187F73"/>
<path d="M329.912 207.642C330.027 207.642 330.119 207.547 330.119 207.43C330.119 207.313 330.027 207.218 329.912 207.218C329.797 207.218 329.704 207.313 329.704 207.43C329.704 207.547 329.797 207.642 329.912 207.642Z" fill="#187F73"/>
<path d="M329.644 206.616C329.725 206.533 329.725 206.399 329.644 206.316C329.563 206.234 329.432 206.234 329.35 206.316C329.269 206.399 329.269 206.533 329.35 206.616C329.432 206.699 329.563 206.699 329.644 206.616Z" fill="#187F73"/>
<path d="M328.541 208.278C329 208.278 329.372 207.898 329.372 207.43C329.372 206.962 329 206.583 328.541 206.583C328.082 206.583 327.71 206.962 327.71 207.43C327.71 207.898 328.082 208.278 328.541 208.278Z" fill="#187F73"/>
<path d="M339.923 207.43C339.923 210.863 338.427 213.999 336.101 216.118C337.887 214.084 338.967 211.372 338.967 208.405C338.967 202.006 333.899 196.835 327.627 196.835C324.719 196.835 322.102 197.937 320.108 199.76C322.185 197.386 325.217 195.861 328.624 195.861C334.813 195.861 339.923 201.031 339.923 207.43Z" fill="#055E5A"/>
<path d="M296.222 171.281L295.931 170.518C296.014 170.772 296.139 170.984 296.222 171.281Z" fill="#187F73"/>
<path d="M336.912 227.53L330.261 220.529H366.185L373 227.53H336.994" fill="#4FD3BC"/>
<path d="M336.912 227.53H373V237.424H336.912V227.53Z" fill="#187F73"/>
<path d="M330.261 230.088V220.529L336.912 227.53V237.424L330.261 230.088Z" fill="#187F73"/>
<path d="M331.657 215.959L324.965 209H360.93L367.745 215.959H331.739" fill="#4FD3BC"/>
<path d="M331.657 215.959H367.745V225.853H331.657V215.959Z" fill="#187F73"/>
<path d="M324.965 218.517V209L331.657 215.959V225.853L324.965 218.517Z" fill="#187F73"/>
<path d="M297.129 233.358L289.041 228.159L316.097 221.577L324.308 226.692L297.252 233.316" fill="#4FD3BC"/>
<path d="M297.17 243L324.226 236.083L324.308 226.692L297.129 233.358L297.17 243Z" fill="#187F73"/>
<path d="M289 237.466L289.041 228.159L297.129 233.358L297.17 243L289 237.466Z" fill="#187F73"/>
<path d="M108 55.4885C108 62.227 112.928 68.328 120.46 71.9704C122.227 72.7899 121.018 77.9803 121.39 78.8909C121.762 79.8015 128.085 74.7022 129.108 74.9754C132.084 75.6128 135.152 75.977 138.5 75.977C155.331 75.977 169 66.78 169 55.4885C169 44.1971 155.331 35 138.5 35C121.669 35 108 44.1971 108 55.4885Z" fill="#A5F9E8"/>
<path d="M223 24.2613C223 32.2798 217.933 39.3389 210.126 43.7251C208.346 44.7531 209.51 50.8527 209.167 51.8807C208.825 52.9087 202.251 46.9462 201.155 47.2203C198.142 47.9742 194.855 48.3854 191.5 48.3854C174.107 48.3854 160 37.557 160 24.1927C160 10.8285 174.107 0 191.5 0C208.893 0 223 10.897 223 24.2613Z" fill="#82F2DB"/>
</svg>
