<svg width="376" height="260" viewBox="0 0 376 260" fill="none" xmlns="http://www.w3.org/2000/svg">
<path d="M114.939 112.604C109.673 114.224 105.125 116.346 101.295 118.97C75.3961 136.887 54.378 160.366 35.7081 180.859C25.4809 192.168 19.1442 205.299 25.7639 218.196C27.6335 221.935 30.6417 225.561 35.575 228.617C43.635 233.634 55.8864 236.245 67.7061 237.861C119.337 244.955 171.633 237.418 223.881 241.144C259.884 243.647 298.147 251.461 330.515 245.014C364.536 238.299 379.37 215.216 362.584 196.894C353.491 186.976 337.47 179.074 321.807 171.455C286.834 154.476 252.033 133.325 213.373 118.723C185.111 108.081 141.926 104.1 114.939 112.604Z" fill="#D7FAF2"/>
<rect x="178.339" y="66.0001" width="184" height="136" transform="rotate(6.4761 178.339 66.0001)" fill="#82F2DB"/>
<rect x="2.46191" y="47.1556" width="136.785" height="169.227" rx="2" transform="rotate(-18.8127 2.46191 47.1556)" fill="#4FD3BC"/>
<rect x="42.019" y="67.722" width="94.9713" height="10.5524" rx="5.27618" transform="rotate(-18.8127 42.019 67.722)" fill="#D7FAF2"/>
<rect x="48.1431" y="85.7018" width="94.9713" height="10.5524" rx="5.27618" transform="rotate(-18.8127 48.1431 85.7018)" fill="#D7FAF2"/>
<rect x="54.2686" y="103.681" width="94.9713" height="10.5524" rx="5.27618" transform="rotate(-18.8127 54.2686 103.681)" fill="#D7FAF2"/>
<rect x="60.3936" y="121.661" width="94.9713" height="10.5524" rx="5.27618" transform="rotate(-18.8127 60.3936 121.661)" fill="#D7FAF2"/>
<rect x="66.519" y="139.64" width="94.9713" height="10.5524" rx="5.27618" transform="rotate(-18.8127 66.519 139.64)" fill="#D7FAF2"/>
<rect x="72.644" y="157.62" width="94.9713" height="10.5524" rx="5.27618" transform="rotate(-18.8127 72.644 157.62)" fill="#D7FAF2"/>
<rect x="26.0371" y="73.1666" width="10.5524" height="10.5524" rx="5.27618" transform="rotate(-18.8127 26.0371 73.1666)" fill="#D7FAF2"/>
<rect x="32.1611" y="91.1465" width="10.5524" height="10.5524" rx="5.27618" transform="rotate(-18.8127 32.1611 91.1465)" fill="#D7FAF2"/>
<rect x="38.2866" y="109.126" width="10.5524" height="10.5524" rx="5.27618" transform="rotate(-18.8127 38.2866 109.126)" fill="#D7FAF2"/>
<rect x="44.4116" y="127.105" width="10.5524" height="10.5524" rx="5.27618" transform="rotate(-18.8127 44.4116 127.105)" fill="#D7FAF2"/>
<rect x="50.5366" y="145.085" width="10.5524" height="10.5524" rx="5.27618" transform="rotate(-18.8127 50.5366 145.085)" fill="#D7FAF2"/>
<rect x="56.6621" y="163.065" width="10.5524" height="10.5524" rx="5.27618" transform="rotate(-18.8127 56.6621 163.065)" fill="#D7FAF2"/>
<path d="M26.1992 74.3781L32.5318 77.0031L34.9403 67.6124" stroke="#B30436" stroke-width="2"/>
<path d="M32.3916 92.38L38.7242 95.005L41.1327 85.6143" stroke="#B30436" stroke-width="2"/>
<path d="M44.7759 128.384L51.1085 131.009L53.5169 121.618" stroke="#B30436" stroke-width="2"/>
<path d="M39.7607 109.64L50.3951 113.209" stroke="#B30436" stroke-width="2"/>
<path d="M46.8623 106.108L43.2936 116.742" stroke="#B30436" stroke-width="2"/>
<path d="M198.338 126.691L200.008 111.769L208.452 112.714L209.055 107.32L221.509 108.713L223.448 111.129L226.107 109.015L235.113 110.023L236.614 111.893L238.675 93.4683L249.23 94.6493L247.85 106.979L253.69 107.633L255.086 95.1626L280.538 110.921L279.597 119.327L290.081 120.501L290.489 116.858L310.683 119.117L307.767 145.178L307.798 144.898L287.604 142.638L288.011 138.995L277.527 137.822L276.587 146.229L248.281 155.972L249.677 143.502L243.836 142.848L242.457 155.178L231.902 153.997L233.964 135.572L232.087 137.065L223.081 136.057L220.955 133.407L218.531 135.335L206.076 133.941L206.68 128.547L198.236 127.602L198.338 126.691Z" stroke="#DD0539" stroke-width="1.5" stroke-miterlimit="10"/>
<path d="M208.452 112.714L206.681 128.547" stroke="#DD0539" stroke-width="1.5" stroke-miterlimit="10"/>
<path d="M221.51 108.713L218.531 135.335L214.353 172.675L219.278 173.226L223.081 136.057L226.107 109.015" stroke="#DD0539" stroke-width="1.5" stroke-miterlimit="10"/>
<path d="M236.614 111.893L233.965 135.572" stroke="#DD0539" stroke-width="1.5" stroke-miterlimit="10"/>
<path d="M247.851 106.979L243.837 142.848" stroke="#DD0539" stroke-width="1.5" stroke-miterlimit="10"/>
<path d="M249.677 143.502L253.69 107.633" stroke="#DD0539" stroke-width="1.5" stroke-miterlimit="10"/>
<path d="M279.597 119.327L277.527 137.822" stroke="#DD0539" stroke-width="1.5" stroke-miterlimit="10"/>
<path d="M290.082 120.5L288.012 138.995" stroke="#DD0539" stroke-width="1.5" stroke-miterlimit="10"/>
<path d="M341.34 141.842L325.156 140.031L322.139 137.069L314.751 136.242L312.977 132.993L312.938 133.344L315.386 130.567L322.774 131.394L326.371 129.172L342.555 130.983" stroke="#DD0539" stroke-width="1.5" stroke-miterlimit="10" stroke-linecap="round" stroke-linejoin="round"/>
<path d="M312.978 132.993L190.757 119.317" stroke="#DD0539" stroke-width="1.5" stroke-miterlimit="10" stroke-linecap="round" stroke-linejoin="round"/>
<path d="M204.1 128.684L199.389 170.788L204.736 171.386L208.836 134.747" stroke="#DD0539" stroke-width="1.5" stroke-miterlimit="10" stroke-linecap="round" stroke-linejoin="round"/>
<path d="M232.087 137.065L227.487 148.892L224.712 173.692L229.567 174.236L231.832 153.989" stroke="#DD0539" stroke-width="1.5" stroke-miterlimit="10"/>
<path d="M242.457 155.178L240.144 175.845L245.633 176.459L247.93 155.933" stroke="#DD0539" stroke-width="1.5" stroke-miterlimit="10"/>
<path d="M264.655 150.356L261.806 159.259L259.682 178.244L264.115 178.74L267.399 149.386" stroke="#DD0539" stroke-width="1.5" stroke-miterlimit="10"/>
<path d="M277.237 140.414L282.802 147.35L279.102 180.417L274.106 179.858L276.587 146.229" stroke="#DD0539" stroke-width="1.5" stroke-miterlimit="10"/>
<path d="M295.007 143.963L292.864 149.114L289.273 181.2L294.058 181.736L298.228 144.465" stroke="#DD0539" stroke-width="1.5" stroke-miterlimit="10"/>
<path d="M304.413 144.59L300.18 182.421L305.809 183.051L310.402 141.997L308.362 141.769" stroke="#DD0539" stroke-width="1.5" stroke-miterlimit="10"/>
<path d="M202.485 167.942L201.035 180.903" stroke="#DD0539" stroke-miterlimit="10"/>
<path d="M202.209 167.911C202.225 167.767 202.366 167.652 202.516 167.669C202.666 167.685 202.779 167.829 202.763 167.973C202.747 168.117 202.605 168.233 202.455 168.216C202.305 168.199 202.192 168.055 202.209 167.911Z" fill="#DD0539" stroke="#DD0539"/>
<path d="M217.262 169.596L215.812 182.556" stroke="#DD0539" stroke-miterlimit="10"/>
<path d="M216.985 169.565C217.001 169.421 217.143 169.305 217.293 169.322C217.442 169.339 217.555 169.483 217.539 169.627C217.523 169.771 217.381 169.886 217.231 169.869C217.082 169.853 216.969 169.709 216.985 169.565Z" fill="#DD0539" stroke="#DD0539"/>
<path d="M227.887 170.784L226.437 183.745" stroke="#DD0539" stroke-miterlimit="10"/>
<path d="M227.61 170.754C227.626 170.61 227.768 170.494 227.918 170.511C228.067 170.528 228.18 170.672 228.164 170.816C228.148 170.959 228.006 171.075 227.856 171.058C227.707 171.042 227.594 170.897 227.61 170.754Z" fill="#DD0539" stroke="#DD0539"/>
<path d="M243.257 172.859L241.807 185.819" stroke="#DD0539" stroke-miterlimit="10"/>
<path d="M242.98 172.828C242.996 172.684 243.137 172.568 243.287 172.585C243.437 172.602 243.55 172.746 243.534 172.89C243.518 173.034 243.376 173.149 243.226 173.133C243.076 173.116 242.963 172.972 242.98 172.828Z" fill="#DD0539" stroke="#DD0539"/>
<path d="M262.294 174.634L260.844 187.595" stroke="#DD0539" stroke-miterlimit="10"/>
<path d="M262.017 174.604C262.033 174.46 262.175 174.344 262.325 174.361C262.475 174.378 262.587 174.522 262.571 174.666C262.555 174.809 262.413 174.925 262.264 174.908C262.114 174.892 262.001 174.747 262.017 174.604Z" fill="#DD0539" stroke="#DD0539"/>
<path d="M277.132 176.366L275.674 189.397" stroke="#DD0539" stroke-miterlimit="10"/>
<path d="M276.848 176.405C276.864 176.261 277.006 176.145 277.155 176.162C277.305 176.179 277.418 176.323 277.402 176.467C277.386 176.611 277.244 176.726 277.094 176.71C276.944 176.693 276.832 176.549 276.848 176.405Z" fill="#DD0539" stroke="#DD0539"/>
<path d="M292.394 178.145L290.935 191.176" stroke="#DD0539" stroke-miterlimit="10"/>
<path d="M292.109 178.184C292.125 178.04 292.267 177.925 292.417 177.941C292.566 177.958 292.679 178.102 292.663 178.246C292.647 178.39 292.505 178.506 292.355 178.489C292.206 178.472 292.093 178.328 292.109 178.184Z" fill="#DD0539" stroke="#DD0539"/>
<path d="M303.448 179.311L301.99 192.341" stroke="#DD0539" stroke-miterlimit="10"/>
<path d="M303.234 179.358C303.25 179.214 303.392 179.098 303.542 179.115C303.691 179.132 303.804 179.276 303.788 179.42C303.772 179.564 303.63 179.679 303.48 179.662C303.359 179.649 303.305 179.602 303.278 179.567C303.248 179.527 303.223 179.458 303.234 179.358Z" fill="#DD0539" stroke="#DD0539"/>
<path d="M200.603 187.309L199.618 187.199L199.963 184.117L198.947 184.287L199.033 183.516L200.933 183.09L201.074 183.106L200.603 187.309Z" fill="#DD0539"/>
<path d="M217.456 189.195L214.5 188.864L214.571 188.234L216.065 186.982C216.456 186.671 216.636 186.337 216.659 186.127C216.683 185.917 216.628 185.769 216.565 185.691C216.503 185.613 216.37 185.527 216.229 185.511C216.089 185.495 215.94 185.55 215.854 185.682C215.768 185.814 215.682 185.947 215.658 186.157L214.673 186.046C214.705 185.766 214.799 185.564 214.963 185.37C215.127 185.175 215.291 184.981 215.581 184.942C215.807 184.826 216.097 184.787 216.378 184.819C216.8 184.866 217.144 184.975 217.402 185.217C217.59 185.451 217.699 185.747 217.652 186.167C217.636 186.307 217.613 186.517 217.527 186.649C217.441 186.782 217.347 186.984 217.19 187.108C217.034 187.233 216.792 187.489 216.479 187.738L215.845 188.306L217.534 188.495L217.456 189.195Z" fill="#DD0539"/>
<path d="M225.265 187.586L225.758 187.642C226.11 187.681 226.344 187.494 226.383 187.144C226.399 187.004 226.344 186.856 226.282 186.778C226.219 186.7 226.086 186.614 225.946 186.599C225.805 186.583 225.727 186.645 225.578 186.699C225.5 186.762 225.422 186.824 225.406 186.964L224.421 186.854C224.445 186.643 224.538 186.441 224.695 186.317C224.851 186.192 225.008 186.068 225.234 185.952C225.461 185.835 225.743 185.867 225.954 185.89C226.446 185.945 226.782 186.125 227.04 186.366C227.298 186.608 227.408 186.904 227.361 187.324C227.337 187.535 227.251 187.667 227.165 187.799C227.079 187.931 226.852 188.048 226.625 188.164C226.829 188.258 227.024 188.422 227.079 188.57C227.204 188.725 227.251 188.944 227.219 189.224C227.18 189.574 227 189.909 226.695 190.087C226.39 190.266 226.023 190.367 225.53 190.312C225.249 190.28 224.975 190.179 224.772 190.085C224.569 189.991 224.381 189.757 224.256 189.602C224.139 189.376 224.092 189.158 224.115 188.947L225.101 189.058C225.085 189.198 225.147 189.276 225.202 189.424C225.257 189.572 225.397 189.587 225.538 189.603C225.679 189.619 225.828 189.565 225.976 189.51C226.054 189.448 226.14 189.316 226.156 189.176C226.18 188.966 226.125 188.818 226.062 188.74C225.929 188.654 225.797 188.568 225.656 188.552L225.163 188.497L225.265 187.586Z" fill="#DD0539"/>
<path d="M242.533 190.37L242.955 190.417L242.869 191.188L242.446 191.14L242.345 192.051L241.359 191.941L241.461 191.03L239.843 190.849L239.835 190.281L241.83 187.738L242.815 187.848L242.533 190.37ZM240.774 190.173L241.548 190.26L241.689 188.999L241.611 189.061L240.774 190.173Z" fill="#DD0539"/>
<path d="M259.267 191.817L259.792 189.676L262.254 189.952L262.168 190.723L260.48 190.534L260.315 191.366C260.393 191.304 260.464 191.312 260.612 191.258C260.753 191.274 260.831 191.211 260.972 191.227C261.394 191.274 261.73 191.454 261.918 191.688C262.097 191.992 262.207 192.288 262.152 192.778C262.121 193.058 262.027 193.26 261.863 193.455C261.698 193.649 261.542 193.774 261.315 193.89C261.088 194.007 260.799 194.045 260.518 194.014C260.236 193.982 260.033 193.889 259.759 193.787C259.564 193.623 259.368 193.459 259.243 193.304C259.126 193.078 259.079 192.86 259.103 192.65L260.088 192.76C260.072 192.9 260.127 193.048 260.189 193.126C260.252 193.204 260.385 193.29 260.526 193.305C260.877 193.345 261.042 193.15 261.097 192.66C261.144 192.239 260.964 191.936 260.542 191.888C260.331 191.865 260.112 191.911 260.026 192.043L259.267 191.817Z" fill="#DD0539"/>
<path d="M276.371 191.532L276.285 192.302L276.214 192.294C275.862 192.255 275.573 192.294 275.268 192.472C275.041 192.589 274.869 192.853 274.768 193.126C275.002 192.939 275.299 192.83 275.651 192.87C276.003 192.909 276.269 193.081 276.449 193.385C276.628 193.688 276.73 194.054 276.683 194.475C276.651 194.755 276.558 194.957 276.393 195.152C276.229 195.346 276.065 195.541 275.775 195.579C275.486 195.618 275.259 195.734 274.978 195.703C274.697 195.671 274.423 195.57 274.228 195.406C274.032 195.242 273.845 195.008 273.727 194.782C273.618 194.487 273.579 194.198 273.61 193.918L273.657 193.498C273.704 193.078 273.822 192.665 274.072 192.338C274.322 192.012 274.565 191.755 274.94 191.584C275.315 191.414 275.675 191.383 276.097 191.43L276.379 191.462L276.371 191.532ZM275.213 193.601C275.072 193.585 275.002 193.577 274.853 193.632C274.775 193.694 274.697 193.756 274.619 193.818L274.588 194.098C274.525 194.659 274.712 194.893 275.064 194.932C275.205 194.948 275.353 194.894 275.44 194.761C275.526 194.629 275.612 194.497 275.635 194.287C275.659 194.076 275.604 193.928 275.549 193.78C275.565 193.64 275.424 193.625 275.213 193.601Z" fill="#DD0539"/>
<path d="M292.545 193.909L290.589 197.379L289.534 197.26L291.466 194.001L289.496 193.78L289.582 193.01L292.608 193.348L292.545 193.909Z" fill="#DD0539"/>
<path d="M303.122 195.66C303.098 195.87 303.012 196.002 302.918 196.205C302.832 196.337 302.676 196.461 302.457 196.508C302.66 196.601 302.785 196.757 302.902 196.983C303.027 197.139 303.074 197.357 303.043 197.637C303.004 197.988 302.824 198.322 302.519 198.501C302.214 198.68 301.846 198.78 301.424 198.733C301.002 198.686 300.596 198.498 300.408 198.265C300.15 198.023 300.041 197.727 300.088 197.307C300.111 197.096 300.205 196.894 300.291 196.762C300.448 196.638 300.604 196.513 300.831 196.397C300.627 196.303 300.502 196.147 300.448 195.999C300.393 195.851 300.346 195.633 300.37 195.423C300.409 195.073 300.581 194.808 300.816 194.622C301.121 194.443 301.418 194.334 301.84 194.382C302.262 194.429 302.598 194.608 302.786 194.842C303.052 195.014 303.161 195.31 303.122 195.66ZM301.995 197.449C302.011 197.309 301.956 197.161 301.902 197.013C301.847 196.865 301.706 196.849 301.566 196.834C301.425 196.818 301.276 196.872 301.198 196.934C301.12 196.997 301.034 197.129 301.01 197.339C300.995 197.479 301.049 197.627 301.104 197.775C301.166 197.853 301.299 197.939 301.44 197.955C301.581 197.97 301.729 197.916 301.808 197.854C301.964 197.729 301.98 197.589 301.995 197.449ZM301.761 195.082C301.621 195.066 301.543 195.129 301.464 195.191C301.386 195.253 301.37 195.393 301.355 195.533C301.339 195.673 301.323 195.813 301.386 195.891C301.448 195.969 301.511 196.047 301.652 196.063C301.792 196.079 301.871 196.017 301.949 195.954C302.027 195.892 302.043 195.752 302.058 195.612C302.074 195.472 302.09 195.332 302.027 195.254C302.035 195.184 301.902 195.098 301.761 195.082Z" fill="#DD0539"/>
</svg>
