<svg width="301" height="298" viewBox="0 0 301 298" fill="none" xmlns="http://www.w3.org/2000/svg">
<path d="M230.59 289.562C202.423 301.164 164.99 297.504 149.794 294.224C113.474 290.982 61.2163 268.326 40.091 252.269C18.9656 236.213 7.86576 211.031 18.595 198.92C26.8546 189.597 40.091 184.417 68.2581 182.604C109.225 179.967 164.619 194.517 186.115 196.33C207.611 198.143 283.959 198.143 293.224 208.502C302.49 218.861 297.672 232.587 283.959 245.536C270.246 258.485 265.798 275.059 230.59 289.562Z" fill="#EDFDF9"/>
<rect x="167.415" y="29.3557" width="136.785" height="169.227" rx="2" transform="rotate(12.6231 167.415 29.3557)" fill="#4FD3BC"/>
<rect x="190.44" y="67.5344" width="94.9713" height="10.5524" rx="5.27618" transform="rotate(12.6231 190.44 67.5344)" fill="#D7FAF2"/>
<rect x="186.288" y="86.0693" width="94.9713" height="10.5524" rx="5.27618" transform="rotate(12.6231 186.288 86.0693)" fill="#D7FAF2"/>
<rect x="182.137" y="104.604" width="94.9713" height="10.5524" rx="5.27618" transform="rotate(12.6231 182.137 104.604)" fill="#D7FAF2"/>
<rect x="177.986" y="123.139" width="94.9713" height="10.5524" rx="5.27618" transform="rotate(12.6231 177.986 123.139)" fill="#D7FAF2"/>
<rect x="173.835" y="141.675" width="94.9713" height="10.5524" rx="5.27618" transform="rotate(12.6231 173.835 141.675)" fill="#D7FAF2"/>
<rect x="169.684" y="160.21" width="94.9713" height="10.5524" rx="5.27618" transform="rotate(12.6231 169.684 160.21)" fill="#D7FAF2"/>
<rect x="173.964" y="63.8446" width="10.5524" height="10.5524" rx="5.27618" transform="rotate(12.6231 173.964 63.8446)" fill="#D7FAF2"/>
<rect x="169.812" y="82.3795" width="10.5524" height="10.5524" rx="5.27618" transform="rotate(12.6231 169.812 82.3795)" fill="#D7FAF2"/>
<rect x="165.662" y="100.914" width="10.5524" height="10.5524" rx="5.27618" transform="rotate(12.6231 165.662 100.914)" fill="#D7FAF2"/>
<rect x="161.511" y="119.45" width="10.5524" height="10.5524" rx="5.27618" transform="rotate(12.6231 161.511 119.45)" fill="#D7FAF2"/>
<rect x="157.359" y="137.985" width="10.5524" height="10.5524" rx="5.27618" transform="rotate(12.6231 157.359 137.985)" fill="#D7FAF2"/>
<rect x="153.208" y="156.52" width="10.5524" height="10.5524" rx="5.27618" transform="rotate(12.6231 153.208 156.52)" fill="#D7FAF2"/>
<path d="M173.471 64.9627L177.505 70.5052L184.457 63.7489" stroke="#DD0539" stroke-width="2"/>
<path d="M169.365 83.552L173.399 89.0944L180.352 82.3381" stroke="#DD0539" stroke-width="2"/>
<path d="M161.154 120.73L165.188 126.272L172.141 119.516" stroke="#DD0539" stroke-width="2"/>
<path d="M166.651 102.122L173.863 110.713" stroke="#DD0539" stroke-width="2"/>
<path d="M174.552 102.812L165.961 110.024" stroke="#DD0539" stroke-width="2"/>
<path d="M75.6147 104.864L95.8687 176.006L110.68 228.413H121.439L105.743 104.864H75.6147Z" fill="#A5F9E8"/>
<path d="M70.1711 104.864C69.6647 141.574 68.1457 161.448 67.6394 164.866C67.133 168.158 59.6642 189.424 45.3599 228.413H56.4996C74.8548 190.943 84.9817 169.803 87.1337 164.866C89.2857 159.929 95.8683 139.929 105.742 104.864H70.1711Z" fill="#D7FAF2"/>
<path d="M44.3477 238.54L44.854 226.768H56.6266C62.1964 230.692 69.412 233.856 78.3997 236.262V238.54H57.1329L49.9175 237.401V238.54H44.3477Z" fill="#82F2DB"/>
<path d="M109.16 238.54L109.667 226.768H121.439C127.009 230.692 134.224 233.856 143.212 236.262V238.54H121.945L114.73 237.401V238.54H109.16Z" fill="#82F2DB"/>
<path d="M84.4757 34.4814C81.9439 31.4433 80.1718 27.7723 80.4249 23.5949C81.311 11.6957 97.894 14.2274 101.185 20.3036C104.477 26.3798 104.097 41.6969 99.7927 42.7096C98.1471 43.0893 94.6026 42.0766 90.9316 39.9246L93.2102 56.0012H79.792L84.4757 34.4814Z" fill="#D7FAF2"/>
<path d="M95.8685 13.7211C94.0963 13.2147 91.4379 12.9616 90.2986 13.0882C90.9316 11.5691 91.1848 9.92346 90.9316 8.15124C90.6784 6.50561 90.0456 5.11315 89.286 3.72069C89.0329 3.08775 88.6531 2.45482 88.1467 1.94847C87.6404 1.44212 87.0074 1.06236 86.2479 0.935769C85.4884 0.809181 84.7289 0.809181 84.096 0.935769C83.7162 1.06236 83.463 1.18894 83.2098 1.18894C82.83 1.31553 82.7035 1.06237 82.4503 0.809193C81.9439 0.302844 81.0579 0.0496615 80.4249 0.0496615C79.6654 -0.0769258 78.7793 0.0496576 78.0197 0.302832C77.2602 0.556007 76.6273 0.935769 75.9944 1.56871C75.7412 1.82188 75.488 2.20164 75.3614 2.45481C75.3614 2.5814 75.2348 2.708 75.1082 2.708C74.9816 2.708 74.8551 2.70799 74.7285 2.83458C73.4626 3.21434 72.3233 4.22705 71.8169 5.49292C71.4372 6.25244 71.3105 7.51831 71.3105 8.91077C71.3105 10.3032 72.703 14.1008 73.8423 15.4933C74.9816 16.7592 76.5007 17.5187 78.0197 17.8985C77.007 19.0378 76.2475 20.5568 75.7411 22.0758C75.2348 23.7215 74.8551 25.3671 74.7285 27.1393C74.6019 28.785 74.6018 30.4306 74.9816 32.0763C75.3614 33.5953 76.1209 34.7346 77.3868 35.6207C78.0197 36.0005 78.6527 36.2536 79.2856 36.5068C79.9185 36.76 80.5515 37.0132 81.1844 37.1397C82.4503 37.3929 83.8428 37.3929 84.8555 36.3802C85.2352 36.0005 85.6149 35.6207 85.8681 35.1143C85.9947 34.9878 85.9947 34.8612 85.8681 34.7346C85.7415 34.608 85.4884 34.3548 85.3619 34.2282C84.3492 33.4687 83.8428 32.3294 83.7162 31.0635C83.5896 29.7977 83.9693 28.0254 85.2351 27.5191C86.7542 26.7596 88.5265 27.6457 89.919 28.4052C90.5519 26.2532 91.6912 24.481 93.59 23.4683C95.742 22.4556 98.1471 22.329 100.299 21.3163C100.805 21.0632 101.438 20.81 101.818 20.3036C101.945 20.0505 102.198 19.7973 102.324 19.5441C102.451 19.1643 102.198 18.9112 102.071 18.658C101.312 17.2655 97.7673 14.354 95.8685 13.7211Z" fill="#82F2DB"/>
<path d="M102.704 29.1647C102.704 31.4433 105.109 33.3421 105.109 35.6207C104.223 35.8739 103.21 36.0004 102.324 36.127" fill="#D7FAF2"/>
<path d="M102.324 39.4183C101.565 39.6715 100.679 39.5449 100.046 39.1651C99.4131 38.7853 98.78 38.1524 98.5269 37.3929C99.2864 37.7726 99.7927 38.0258 100.426 38.4056C100.932 38.6588 101.565 38.9119 102.324 39.4183Z" fill="#187F73"/>
<path d="M98.78 28.152C98.6534 27.7723 98.9066 27.2659 99.2864 27.0128C99.5396 26.7596 100.046 26.633 100.426 26.5064C100.805 26.5064 101.185 26.5064 101.565 26.633C101.945 26.7596 102.198 27.1393 102.324 27.5191C101.945 27.3925 101.692 27.3925 101.312 27.2659C101.059 27.2659 100.679 27.2659 100.426 27.2659C100.172 27.2659 99.9193 27.3925 99.5395 27.3925C99.4129 27.7723 99.0332 27.8989 98.78 28.152Z" fill="#187F73"/>
<path d="M101.312 30.304C101.662 30.304 101.945 30.0206 101.945 29.6711C101.945 29.3215 101.662 29.0381 101.312 29.0381C100.963 29.0381 100.679 29.3215 100.679 29.6711C100.679 30.0206 100.963 30.304 101.312 30.304Z" fill="#187F73"/>
<path d="M125.997 86.6354L146.251 77.7743C149.795 74.2298 153.213 71.5715 156.504 69.6727C157.517 69.4195 159.162 69.2929 157.39 71.9513C155.618 74.6096 153.846 77.3945 154.479 78.4072C155.238 79.2933 157.264 78.2806 158.15 79.7997C158.656 80.8124 155.238 81.9517 147.643 83.3441L132.453 94.9901L125.997 86.6354ZM44.0946 89.1671L55.4875 91.4457C43.968 112.966 37.7653 124.232 37.0058 125.624C35.107 128.536 36.8792 133.852 37.5121 136.637C33.4613 137.523 35.107 131.447 29.9169 132.713C25.2332 133.852 21.1823 136.891 16.8783 132.84C16.372 132.333 15.9923 130.814 17.7646 130.055C22.3217 128.029 29.1573 124.358 30.17 122.966C31.6891 120.814 36.2462 109.674 44.0946 89.1671Z" fill="#D7FAF2"/>
<path d="M86.6283 46.254L91.4386 45.3679C101.945 55.6215 106.249 80.0528 113.338 83.3441C119.921 86.3822 129.415 83.4707 140.554 79.4199L143.972 87.0151C133.845 98.0282 112.199 107.269 103.464 101.952C89.4132 93.7243 86.122 63.4699 86.6283 46.254Z" fill="#B30436"/>
<path d="M65.6143 107.016C84.9821 107.016 99.2865 107.016 108.401 107.016C110.3 107.016 110.046 104.231 109.667 102.712C106.375 86.2556 93.7167 68.5334 93.7167 45.1148L81.4377 43.2159C71.1841 59.6723 67.6397 79.9263 65.6143 107.016Z" fill="#EDFDF9"/>
<path d="M61.3102 90.433C52.5757 106.13 45.2336 117.523 39.284 124.358L20.2534 98.7381C26.0764 62.9139 52.8288 60.3052 80.4249 43.3425H80.5514H85.2351C96.2482 81.0655 99.413 106.256 94.3495 118.789H55.8669C56.753 109.548 58.6519 99.927 61.3102 90.433Z" fill="#DD0539"/>
<path d="M38.8965 114.089L59.4036 184.598L69.0243 237.639H78.6449L69.0243 114.089H38.8965Z" fill="#187F73"/>
<path d="M29.6561 114.089C31.0486 150.8 30.5423 170.674 30.1625 174.092C29.7828 177.383 28.0105 199.662 15.605 238.778H25.6054C41.9352 201.308 47.7582 179.029 49.5304 174.092C51.4292 169.155 56.999 149.154 65.1006 114.089H29.6561Z" fill="#187F73"/>
<path d="M38.3906 114.089C43.7073 138.394 52.9482 177.13 65.9867 230.296H80.1644C81.1771 175.611 76.7467 139.66 69.0248 114.089H38.3906Z" fill="#055E5A"/>
<path d="M29.656 114.089C31.0485 150.8 27.3775 186.877 16.2378 230.929H31.3017C47.7581 194.092 59.5306 158.142 67.5056 114.089H29.656Z" fill="#187F73"/>
<path d="M14.3389 245.993L14.8452 237.006C18.1365 238.018 22.1873 237.638 26.9976 235.866C32.3143 239.537 38.8969 242.069 46.8719 243.462C47.5048 243.588 47.8845 244.094 47.7579 244.727V244.854L46.9985 247.512H26.9976H15.3516L14.3389 245.993Z" fill="#82F2DB"/>
<path d="M66.8726 245.993L67.3789 237.006C70.6702 238.018 74.721 237.638 79.5313 235.866C84.848 239.537 91.4305 242.069 99.4055 243.462C100.038 243.588 100.418 244.094 100.292 244.727V244.854L99.5321 247.512H79.5313H67.8853L66.8726 245.993Z" fill="#82F2DB"/>
<path d="M43.8332 43.5802C41.3015 40.5421 39.5292 36.8711 39.7824 32.6937C40.6685 20.7945 57.2514 23.3262 60.5427 29.4024C63.834 35.4786 63.4542 50.7957 59.1503 51.8084C57.5046 52.1881 53.9602 51.1754 50.2892 49.0234L52.5678 65.1H39.1494L43.8332 43.5802Z" fill="#187F73"/>
<path d="M42.8206 46.3651C41.1749 38.8965 36.3646 33.833 37.1242 30.4151C37.6305 28.1365 38.8963 26.7441 41.0483 26.2377C42.1876 21.8072 45.7321 19.9083 51.6817 20.5413C60.6694 21.554 66.1126 25.225 63.7075 33.4532C61.5555 33.4532 58.8972 32.6937 55.3528 33.9595C54.2135 34.3393 53.3273 35.7318 52.9476 37.8837H51.302C49.6564 35.2254 48.1372 34.3393 46.6182 34.9722C45.0992 35.7318 44.7195 37.3774 45.6056 40.0357L44.8459 46.2385H42.8206V46.3651Z" fill="#055E5A"/>
<path d="M62.315 38.7698C62.8214 40.4155 63.2011 42.1877 63.4543 43.8333C63.7075 45.7321 63.5808 46.7448 61.3022 46.4916" fill="#187F73"/>
<path d="M60.1631 37.504C59.5301 37.3774 59.0237 37.2508 58.5174 37.1242C58.011 37.1242 57.3781 37.1242 56.7451 36.9976C56.9983 36.871 57.2516 36.7444 57.6313 36.6178C57.8845 36.4913 58.2642 36.4913 58.6439 36.4913C59.1503 36.6179 59.7833 36.9976 60.1631 37.504Z" fill="#055E5A"/>
<path d="M59.2771 40.0357C59.6965 40.0357 60.0366 39.6957 60.0366 39.2762C60.0366 38.8567 59.6965 38.5167 59.2771 38.5167C58.8576 38.5167 58.5176 38.8567 58.5176 39.2762C58.5176 39.6957 58.8576 40.0357 59.2771 40.0357Z" fill="#055E5A"/>
<path d="M61.3021 49.15C60.7958 49.4032 60.163 49.5298 59.53 49.2766C58.8971 49.0234 58.6439 48.5171 58.2642 48.1373C58.5173 48.1373 58.897 48.2639 59.1502 48.3905C59.4034 48.5171 59.6565 48.6437 59.9097 48.7703C60.1629 48.8969 60.7958 48.8969 61.3021 49.15Z" fill="#055E5A"/>
<path d="M82.4426 105.102L99.152 117.381C103.709 118.646 107.507 120.166 110.545 121.938C111.304 122.571 112.191 123.963 109.152 123.71C106.114 123.457 102.95 123.33 102.57 124.343C102.19 125.356 103.962 126.621 103.076 128.014C102.57 128.9 99.9116 126.621 95.2279 121.178L78.645 114.342L82.4426 105.102ZM18.0096 105.481H29.0227C22.1869 127.381 18.6426 139.027 18.0096 140.293C16.7437 143.331 19.4021 147.888 20.4148 150.42C16.8704 152.065 17.2502 146.116 12.693 148.141C8.51564 150.04 5.47754 153.585 0.667224 150.546C0.0342872 150.167 -0.598742 148.774 1.04689 147.762C4.9711 145.103 10.5409 140.419 11.3004 138.9C12.3131 137.002 14.5918 125.862 18.0096 105.481Z" fill="#187F73"/>
<path d="M49.2769 59.4036L53.8341 58.6441C70.6702 73.2016 77.6325 101.177 98.2662 115.988L93.3293 122.191C57.3785 117.76 48.5173 83.5818 49.2769 59.4036Z" fill="#82F2DB"/>
<path d="M29.4023 116.494C47.6309 116.494 61.0492 116.494 69.6572 116.494C71.556 116.494 71.1762 113.836 70.923 112.444C67.8849 97 55.8591 80.2905 55.8591 58.3909L44.213 56.6187C34.5924 72.0623 31.3012 91.0504 29.4023 116.494Z" fill="#EDFDF9"/>
<path d="M29.7825 71.8091C28.1368 71.3028 26.7443 70.1635 25.7316 68.3913C21.5542 60.7961 23.0733 56.4921 27.5038 55.0996C32.061 53.7072 36.1118 56.6187 43.3273 56.6187C43.707 56.6187 44.0868 56.6187 44.4666 56.7453L48.1376 56.9984C58.5178 92.3163 61.4292 115.862 56.7455 127.634H25.0987C23.1998 132.065 21.4277 135.736 19.6555 138.647H11.0475C10.1614 112.317 16.4908 90.0377 29.7825 71.8091Z" fill="#A5F9E8"/>
<path d="M31.934 109.406C32.9467 117.76 34.5924 123.837 36.7444 127.508H24.9717C27.2503 122.444 29.5288 116.494 31.934 109.406Z" fill="#82F2DB"/>
<path d="M16.4561 76.5854C21.0133 74.0536 28.4819 71.0999 30.3808 71.5219L21.5196 84.8135L22.7855 88.6111L14.5572 93.6746C12.0255 91.1429 10.7597 79.75 16.4561 76.5854Z" fill="#DD0539"/>
<path d="M23.4185 103.802C19.3677 101.776 16.6672 95.7844 15.8232 93.0416L21.5197 88.6111C22.1526 89.033 23.9248 90.3833 25.9502 92.4087C28.482 94.9404 28.482 96.2063 27.849 96.2063C27.2161 96.2063 23.4185 94.9404 24.0514 96.2063C24.5578 97.219 27.2161 102.114 28.482 104.434C28.482 105.067 27.4693 105.827 23.4185 103.802Z" fill="#EDFDF9"/>
</svg>
