<svg width="335" height="272" viewBox="0 0 335 272" fill="none" xmlns="http://www.w3.org/2000/svg">
<path d="M9.39059 193.399C22.7957 180.256 90.0693 170.001 122.031 166.517C180.284 166.516 164.869 162.932 227.223 173.984C309.249 188.522 325.434 202.857 332.881 209.827C340.329 216.796 326.747 230.644 313.798 234.717C297.972 239.696 277.019 245.254 264.729 251.815L264.371 252.007C255.8 256.586 228.713 271.058 197.434 271.058C176.483 271.058 132.271 254.63 101.551 248.158C70.8306 241.687 27.6702 253.634 9.39059 240.193C1.94333 234.717 -7.36576 209.827 9.39059 193.399Z" fill="#EDFDF9"/>
<path d="M168.523 179.147C168.869 164.798 164.203 144.226 150.727 162.205C150.899 155.117 146.061 135.928 135.867 138.348C132.239 139.212 128.092 148.375 127.228 149.931C128.092 135.928 113.924 114.664 97.6828 123.999C84.897 131.26 87.8343 154.08 87.8343 166.354C87.6615 160.822 82.6509 158.575 78.8497 162.032C76.6036 164.107 75.0485 177.072 75.5669 180.011C77.1219 189.001 86.4521 190.902 94.9183 188.136C97.6828 202.312 123.6 192.631 128.092 184.506C129.993 190.038 137.768 190.384 140.878 185.716C140.705 191.594 153.664 193.495 158.847 191.594C163.858 189.692 165.586 184.852 168.523 179.147Z" fill="#82F2DB"/>
<path d="M114.96 186.235L115.824 186.062L104.939 131.087L104.075 131.26L114.96 186.235Z" fill="#055E5A"/>
<path d="M109.086 157.192L109.777 156.5L97.1643 145.782L96.646 146.473L109.086 157.192Z" fill="#055E5A"/>
<path d="M112.024 167.564L119.799 154.598L118.935 154.253L111.16 167.218L112.024 167.564Z" fill="#055E5A"/>
<path d="M137.25 179.147L139.15 150.795L138.114 150.622L136.386 178.974L137.25 179.147Z" fill="#055E5A"/>
<path d="M137.595 170.503L144.679 165.317L144.161 164.452L137.077 169.811L137.595 170.503Z" fill="#055E5A"/>
<path d="M137.768 160.476L138.459 160.13L133.794 150.622L132.93 150.968L137.768 160.476Z" fill="#055E5A"/>
<path d="M151.59 185.197L158.847 165.662L157.983 165.317L150.727 184.852L151.59 185.197Z" fill="#055E5A"/>
<path d="M155.219 174.825L163.512 172.405L163.339 171.54L154.873 173.96L155.219 174.825Z" fill="#055E5A"/>
<path d="M65.1394 109.078L80.1716 161.563L91.1127 200.25H99.1045L87.4498 109.078H65.1394Z" fill="#187F73"/>
<path d="M61.1432 109.078C60.8102 136.15 59.621 150.895 59.2404 153.36C58.8598 155.826 53.3893 171.472 42.7335 200.25H50.9632C64.5207 172.609 72.0843 156.964 73.7017 153.36C75.3191 149.757 80.1713 134.965 87.4971 109.078H61.1432Z" fill="#27A8A5"/>
<path d="M41.9726 207.647L42.4008 198.97H51.1061C55.2447 201.862 60.6202 204.186 67.2324 205.987V207.647H51.4867L46.1112 206.841V207.647H41.9726Z" fill="#055E5A"/>
<path d="M89.9707 207.647L90.3989 198.97H99.1042C103.243 201.862 108.618 204.186 115.23 205.987V207.647H99.4847L94.1093 206.841V207.647H89.9707Z" fill="#055E5A"/>
<path d="M72.5124 58.0634C70.6096 55.8351 69.3252 53.0852 69.5155 50.0509C70.1339 41.2324 82.4546 43.1762 84.8807 47.6329C87.2592 52.0896 86.9738 63.3735 83.8817 64.1795C82.6449 64.5114 80.0285 63.7054 77.317 62.0934L78.982 73.9463H69.0398L72.5124 58.0634Z" fill="#EDFDF9"/>
<path d="M85.8313 49.6242C85.7362 49.0552 85.4983 48.3915 85.308 47.87C85.0702 47.1588 84.6896 46.5424 84.2615 45.9261C83.5004 44.7882 82.549 43.7926 81.5024 42.9392C79.5996 41.3746 77.1735 40.5212 74.795 40.8056C73.6058 40.9479 72.4165 41.422 71.4175 42.1806C70.5137 42.8443 69.6575 43.8874 68.5158 43.9348C67.2314 44.0296 66.0897 42.8917 65.0907 42.228C63.949 41.4694 62.7598 40.9005 61.3802 40.6634C59.1444 40.2841 57.0513 41.0427 55.5291 42.8917C53.9117 44.8356 52.7225 47.6803 53.769 50.2405C53.9593 50.7146 54.2447 51.1413 54.5777 51.4732C54.9107 51.7577 55.434 52.0896 55.5767 52.6111C55.7194 53.1326 55.2913 53.7964 55.101 54.2705C54.8631 54.9343 54.6728 55.6454 54.7204 56.404C54.8156 57.5893 55.5767 58.7746 56.3854 59.5332C57.1941 60.3392 58.193 60.8133 59.2871 61.0029C60.0007 61.1452 60.7142 61.24 61.4754 61.1926C61.8559 61.1452 62.1413 61.0503 62.5219 61.0029C62.8549 60.9081 63.0452 61.0029 63.3306 61.1926C64.6626 62.046 66.0897 62.3779 67.6595 62.283C68.9439 62.1882 70.4661 61.8563 71.5127 60.9555C72.7019 59.9599 72.6544 58.5849 72.4165 57.1626C72.7019 57.3048 73.5106 57.3997 73.0349 56.8307C72.8447 56.5937 72.4641 56.4988 72.2262 56.3566C71.9408 56.2144 71.6554 55.9773 71.4175 55.7403C70.5137 54.6972 71.4176 52.6111 72.5592 52.2318C74.2718 51.7103 74.6047 54.0808 75.8416 54.6972C76.5551 55.0291 77.2687 54.555 77.792 54.0809C78.5055 53.4171 78.9812 52.5637 79.3618 51.6629C79.6948 50.9517 80.0277 50.1931 80.3607 49.4345C80.5034 49.1026 81.0743 48.107 80.7889 47.7277C81.9781 47.4907 83.3577 47.9648 84.4042 48.6285C84.8323 48.913 85.1653 49.1975 85.4032 49.6716C85.4508 49.7664 85.5459 50.0983 85.6886 50.0983C85.9264 50.0509 85.8313 49.7664 85.8313 49.6242Z" fill="#DD0539"/>
<path d="M86.3082 54.4127C86.2131 55.2661 86.8315 56.0247 87.3072 56.641C87.5926 57.0203 88.7819 58.49 88.0683 58.9167C87.4024 59.3435 86.451 59.2486 85.6898 59.2012" fill="#EDFDF9"/>
<path d="M83.1208 54.0336C83.2635 53.7966 83.4538 53.6069 83.6916 53.5121C83.9295 53.3699 84.1673 53.3224 84.4528 53.3224C84.7382 53.3224 85.0236 53.3699 85.2614 53.6069C85.4993 53.7966 85.642 54.1284 85.5469 54.3655C85.309 54.2233 85.1187 54.1758 84.976 54.1284C84.8333 54.1284 84.643 54.081 84.4528 54.1284C84.0722 54.081 83.6916 54.081 83.1208 54.0336Z" fill="#27A8A5"/>
<path d="M85.689 61.0032C85.1657 61.3351 84.5949 61.3825 83.9764 61.2877C83.358 61.1928 82.7872 60.7661 82.5969 60.1498C83.2153 60.292 83.6435 60.4343 84.1192 60.4817C84.6424 60.6239 85.1657 60.6713 85.689 61.0032Z" fill="#27A8A5"/>
<path d="M84.6425 55.5504C84.3797 55.5504 84.1668 55.3381 84.1668 55.0763C84.1668 54.8144 84.3797 54.6022 84.6425 54.6022C84.9052 54.6022 85.1182 54.8144 85.1182 55.0763C85.1182 55.3381 84.9052 55.5504 84.6425 55.5504Z" fill="#27A8A5"/>
<path d="M226.407 184.821C226.234 173.929 229.69 158.544 239.538 172.201C239.366 166.842 242.994 152.493 250.596 154.395C253.188 155.086 256.471 161.828 256.989 163.211C256.298 152.666 266.838 136.761 278.932 143.676C288.435 149.035 286.189 166.15 286.189 175.485C286.189 171.336 289.99 169.608 292.928 172.201C294.655 173.757 295.865 183.611 295.347 185.685C294.31 192.427 287.399 193.983 281.006 191.736C278.932 202.281 259.754 195.02 256.471 188.97C255.089 193.119 249.214 193.464 246.968 189.834C246.968 194.156 237.465 195.539 233.664 194.329C229.69 192.946 228.48 189.143 226.407 184.821Z" fill="#27A8A5"/>
<path d="M273.5 148.857L265.548 190.106L266.227 190.237L274.179 148.988L273.5 148.857Z" fill="#A5F9E8"/>
<path d="M279.346 159.984L270.026 167.966L270.476 168.491L279.795 160.509L279.346 159.984Z" fill="#A5F9E8"/>
<path d="M268.393 176.35L262.518 166.496L263.036 166.15L268.911 176.004L268.393 176.35Z" fill="#A5F9E8"/>
<path d="M234.272 174.606L233.622 174.842L238.936 189.464L239.585 189.228L234.272 174.606Z" fill="#A5F9E8"/>
<path d="M230.174 179.298L229.984 179.962L236.131 181.72L236.321 181.055L230.174 179.298Z" fill="#A5F9E8"/>
<path d="M220.773 143.326L204.199 200.176L196.483 242.886H188.695L196.483 143.326H220.773Z" fill="#4FD3BC"/>
<path d="M228.131 143.326C226.988 172.894 227.417 188.963 227.703 191.677C227.989 194.391 229.417 212.318 239.419 243.814H231.346C218.129 213.603 213.557 195.677 211.985 191.677C210.485 187.678 205.984 171.608 199.483 143.326H228.131Z" fill="#4FD3BC"/>
<path d="M221.13 143.326C216.844 162.895 209.414 194.105 198.84 237.029H187.409C186.552 192.963 190.124 164.037 196.34 143.326H221.13Z" fill="#B30436"/>
<path d="M228.203 143.326C227.06 172.894 229.989 201.962 239.062 237.529H226.917C213.7 207.818 204.198 178.822 197.697 143.326H228.203Z" fill="#DD0539"/>
<path d="M240.563 249.671L240.135 242.457C237.491 243.243 234.205 242.957 230.276 241.529C226.061 244.529 220.702 246.6 214.272 247.671C213.772 247.743 213.487 248.243 213.558 248.742V248.814L214.201 251.028H230.276H239.635L240.563 249.671Z" fill="#055E5A"/>
<path d="M198.197 249.671L197.769 242.457C195.125 243.243 191.839 242.957 187.909 241.529C183.694 244.529 178.336 246.6 171.906 247.671C171.406 247.743 171.12 248.243 171.192 248.742V248.814L171.835 251.028H187.909H197.269L198.197 249.671Z" fill="#055E5A"/>
<path d="M215.273 86.9633C217.345 84.535 218.774 81.5353 218.488 78.1786C217.845 68.5368 204.414 70.6795 201.77 75.536C199.127 80.3926 199.484 92.7483 202.842 93.6054C204.199 93.9625 207.057 93.1054 209.986 91.3199L208.129 104.247H218.917L215.273 86.9633Z" fill="#4FD3BC"/>
<path d="M216.131 89.1057C217.488 83.0349 221.346 78.964 220.775 76.25C220.346 74.4645 219.346 73.3218 217.631 72.8933C216.774 69.3222 213.916 67.8224 209.129 68.3224C201.914 69.108 197.484 72.1076 199.413 78.6783C201.128 78.6783 203.271 78.0355 206.2 79.1068C207.129 79.4639 207.772 80.5352 208.201 82.3207H209.487C210.773 80.1781 212.059 79.3925 213.273 79.9639C214.488 80.5352 214.773 81.8922 214.131 84.0348L214.773 89.0343H216.131V89.1057Z" fill="#055E5A"/>
<path d="M200.342 83.1062C200.056 83.6776 199.556 84.2489 199.341 84.8203C199.127 85.3917 198.984 86.1773 198.913 86.7486C198.841 87.6057 199.913 88.677 200.842 88.677" fill="#4FD3BC"/>
<path d="M200.842 81.6064C201.128 81.6064 201.414 81.6064 201.628 81.6064C201.842 81.6778 202.057 81.6778 202.342 81.7493C202.843 81.8921 203.271 82.0349 203.843 82.1064C203.557 81.535 203.057 81.2493 202.485 81.1065C202.2 81.0351 201.914 81.0351 201.557 81.1065C201.199 81.1779 200.914 81.3207 200.842 81.6064Z" fill="#055E5A"/>
<path d="M200.842 90.891C201.128 90.9625 201.414 90.9625 201.628 90.891C201.914 90.8196 202.128 90.6768 202.414 90.6054C202.843 90.3911 203.272 90.034 203.7 89.8912L203.2 89.6055C203.2 89.6769 203.129 89.8912 202.986 90.1054C202.843 90.3197 202.7 90.4625 202.557 90.6768C202.271 91.0339 201.914 91.4624 201.557 91.8195C201.843 91.7481 202.057 91.6767 202.343 91.5338C202.557 91.391 202.771 91.2481 202.986 91.1053C203.2 90.9625 203.414 90.7482 203.557 90.5339C203.7 90.3197 203.915 90.034 203.915 89.6055V89.1055L203.486 89.3198C202.914 89.5341 202.557 89.8912 202.128 90.2483C201.7 90.4625 201.343 90.7482 200.842 90.891Z" fill="#055E5A"/>
<path d="M201.699 83.8919C201.383 83.8919 201.127 83.6361 201.127 83.3206C201.127 83.005 201.383 82.7492 201.699 82.7492C202.015 82.7492 202.271 83.005 202.271 83.3206C202.271 83.6361 202.015 83.8919 201.699 83.8919Z" fill="#055E5A"/>
<path d="M116.381 91.9316L102.618 95.1006L104.318 102.772L118.916 95.4039C122.59 95.0536 125.724 94.3159 128.329 93.3247C128.961 92.8593 129.824 91.9667 127.481 91.7512C125.137 91.5357 122.678 91.1624 122.503 90.335C122.291 89.4774 123.846 88.7889 123.404 87.6156C123.095 86.801 120.768 88.272 116.381 91.9316Z" fill="#EDFDF9"/>
<path d="M74.0825 67.2612L77.6503 66.6449C85.4518 74.1833 88.639 92.2945 93.8242 94.6651C98.7239 96.9408 105.717 94.7599 113.994 91.773L116.515 97.4149C108.999 105.522 92.9679 112.35 86.4984 108.462C76.0805 102.251 73.702 79.9201 74.0825 67.2612Z" fill="#4FD3BC"/>
<path d="M58.4795 112.065C72.8457 112.065 83.4063 112.065 90.1613 112.065C91.5884 112.065 91.3505 109.979 91.1127 108.936C88.6866 96.7986 79.2677 83.7131 79.2677 66.4553L70.1342 65.033C62.5705 77.1703 59.9542 92.1049 58.4795 112.065Z" fill="#D7FAF2"/>
<rect width="7.36445" height="12.905" rx="0.695021" transform="matrix(0.930152 -0.367174 0.366017 0.930608 69.7207 54.2784)" fill="#187F73"/>
<path d="M71.8576 53.4765C73.5455 53.4765 75.2335 54.3147 76.0775 55.1529C76.7527 55.8234 80.8601 64.9318 82.8294 69.4021L78.6093 71.9167L76.9214 65.2112C76.0773 64.9318 74.0517 64.2053 72.7013 63.5348C71.0133 62.6966 69.3253 60.182 70.1693 60.182C70.8445 60.182 72.7015 60.7408 73.5455 61.0202C71.8576 60.182 70.1696 53.4765 71.8576 53.4765Z" fill="#A5F9E8"/>
<path d="M54.2993 98.6548C59.8213 78.3706 63.503 76.5266 69.5154 65.0801H69.6106H73.1307C81.3128 92.958 83.5962 111.496 79.9333 120.789H51.4388C51.8669 113.961 52.3489 105.672 54.2993 98.6548Z" fill="#82F2DB"/>
<path d="M77.308 69.1507L82.8299 67.3067C93.8739 81.3212 91.1129 97.1183 88.3519 103.265C69.9454 101.421 77.492 88.3285 78.2283 87.5909C78.9645 86.8533 77.9215 74.9901 77.308 69.1507Z" fill="#82F2DB"/>
<path d="M64.1127 78.2153C66.1277 85.3322 73.745 100.428 88.094 103.877C90.6609 97.9731 93.258 82.314 83.1113 66.9083" stroke="#187F73" stroke-width="0.695021"/>
<path d="M166.83 124.806L181.896 128.275L180.035 136.673L164.055 128.607C160.034 128.224 156.603 127.416 153.751 126.331C153.059 125.822 152.114 124.845 154.68 124.609C157.245 124.373 159.937 123.964 160.129 123.059C160.36 122.12 158.658 121.366 159.142 120.082C159.48 119.19 162.028 120.8 166.83 124.806Z" fill="#EDFDF9"/>
<path d="M213.133 97.8005L209.228 97.1259C200.688 105.378 197.199 125.203 191.523 127.798C186.159 130.29 178.505 127.902 169.444 124.633L166.684 130.809C174.912 139.683 192.46 147.157 199.542 142.901C210.946 136.102 213.55 111.658 213.133 97.8005Z" fill="#82F2DB"/>
<path d="M230.214 146.846C214.487 146.846 202.927 146.846 195.533 146.846C193.971 146.846 194.231 144.562 194.491 143.42C197.147 130.134 207.458 115.81 207.458 96.9183L217.456 95.3613C225.735 108.648 228.599 124.996 230.214 146.846Z" fill="#D7FAF2"/>
<rect width="8.06157" height="14.1266" rx="0.695021" transform="matrix(-0.930152 -0.367174 -0.366017 0.930608 217.907 83.5887)" fill="#187F73"/>
<path d="M215.568 82.7109C213.72 82.7109 211.872 83.6285 210.948 84.546C210.209 85.28 205.713 95.2505 203.557 100.144L208.177 102.897L210.025 95.5564C210.949 95.2506 213.166 94.4554 214.644 93.7213C216.492 92.8038 218.34 90.0512 217.416 90.0512C216.677 90.0512 214.644 90.6629 213.72 90.9687C215.568 90.0512 217.416 82.7109 215.568 82.7109Z" fill="#27A8A5"/>
<path d="M234.788 132.166C228.743 109.962 224.713 107.943 218.132 95.4131H218.027H214.174C205.217 125.93 202.718 146.223 206.728 156.395H237.919C237.451 148.921 236.923 139.847 234.788 132.166Z" fill="#A5F9E8"/>
<path d="M209.602 99.8688L203.557 97.8502C191.468 113.191 194.49 130.484 197.513 137.212C217.661 135.194 209.4 120.862 208.595 120.055C207.789 119.247 208.93 106.261 209.602 99.8688Z" fill="#A5F9E8"/>
<path d="M224.047 109.791C221.841 117.582 213.503 134.107 197.795 137.882C194.985 131.419 192.142 114.278 203.25 97.4141" stroke="#187F73" stroke-width="0.695021"/>
<path d="M206.1 30.9976C207.316 49.7584 187.651 66.4101 162.132 68.0753C146.224 69.1854 131.752 64.1899 122.803 55.753C121.036 54.0879 105.128 54.5319 106.895 53.0888C109.767 50.6465 115.844 46.2061 115.07 43.9859C114.297 41.7656 113.855 39.5454 113.634 37.2142C112.419 18.4533 132.083 1.80162 157.603 0.136456C183.122 -1.52871 204.885 12.2367 206.1 30.9976Z" fill="#EDFDF9"/>
<path d="M329.425 60.5018C330.64 79.2627 310.976 95.9144 285.456 97.5795C269.548 98.6896 255.076 93.6941 246.128 85.2573C244.36 83.5921 228.452 84.0362 230.219 82.593C233.092 80.1508 239.168 75.7103 238.394 73.4901C237.621 71.2699 237.179 69.0497 236.958 66.7184C235.743 47.9576 255.407 31.3059 280.927 29.6407C306.446 27.9756 328.209 41.7409 329.425 60.5018Z" fill="#EDFDF9"/>
<path d="M177.773 36.7863C177.773 35.5826 177.922 34.6234 178.221 33.9084C178.52 33.1935 179.108 32.4107 179.986 31.56C180.873 30.7003 181.434 30.0894 181.669 29.7274C182.031 29.1754 182.212 28.5781 182.212 27.9356C182.212 27.0849 181.999 26.4379 181.574 25.9944C181.158 25.5419 180.542 25.3157 179.728 25.3157C178.95 25.3157 178.321 25.5374 177.841 25.9809C177.37 26.4152 177.135 27.008 177.135 27.7591H173.836C173.855 26.1573 174.398 24.8904 175.465 23.9582C176.542 23.0261 177.963 22.56 179.728 22.56C181.547 22.56 182.963 23.0216 183.977 23.9447C184.999 24.8677 185.511 26.1573 185.511 27.8134C185.511 29.2885 184.823 30.741 183.447 32.1709L181.778 33.8134C181.18 34.4921 180.873 35.4831 180.855 36.7863H177.773ZM177.542 41.008C177.542 40.474 177.71 40.0442 178.045 39.7184C178.379 39.3835 178.832 39.2161 179.402 39.2161C179.981 39.2161 180.438 39.3881 180.773 39.7319C181.108 40.0668 181.275 40.4921 181.275 41.008C181.275 41.5057 181.112 41.922 180.787 42.2568C180.461 42.5917 179.999 42.7591 179.402 42.7591C178.805 42.7591 178.343 42.5917 178.017 42.2568C177.701 41.922 177.542 41.5057 177.542 41.008Z" fill="#187F73"/>
<path d="M135.748 42.6283L138.729 32.3899L140.156 32.8713L137.337 42.6283H135.748Z" fill="#055E5A"/>
<path d="M153.507 16.1899L155.684 19.3374C155.684 19.3374 155.524 22.9477 153.882 26.1136C152.24 29.2981 146.296 33.075 144.654 32.8714C143.012 32.6677 139.425 27.5763 139.425 27.5763C139.425 27.5763 135.57 22.707 135.766 21.0037C135.962 19.3188 140.96 14.2644 144.333 13.3942C147.706 12.5241 151.115 13.2461 151.115 13.2461L153.507 16.1899Z" fill="#B30436"/>
<path d="M145.922 26.1507C142.192 26.1507 137.462 24.8362 136.016 22.2257C136.873 24.3363 139.407 27.5578 139.407 27.5578C139.407 27.5578 143.013 32.6308 144.637 32.8529C146.261 33.0751 152.204 29.2797 153.864 26.0952C155.506 22.9107 155.667 19.3189 155.667 19.3189L154.989 18.3376C153.418 23.1144 149.652 26.1507 145.922 26.1507Z" fill="#B30436"/>
<path d="M144.119 12.6907C143.994 12.524 143.762 12.4685 143.584 12.5426L143.209 12.8573C142.995 13.0239 142.959 13.3387 143.12 13.5423L153.472 27.3356C153.597 27.5022 153.829 27.5577 154.007 27.4837L154.382 27.1689C154.596 27.0023 154.632 26.6875 154.471 26.4839L144.119 12.6907Z" fill="#055E5A"/>
<path d="M138.747 32.1863C138.747 32.1863 139.728 29.261 140.049 28.4464C140.371 27.6318 140.656 27.5207 142.156 27.5207C143.655 27.5207 146.457 27.5207 147.403 27.5207C148.349 27.5207 148.42 27.8169 148.545 28.7797C148.67 29.7424 149.473 36.315 149.473 36.315C149.473 36.315 147.795 36.7594 145.315 35.7781C142.834 34.8154 138.747 32.1863 138.747 32.1863Z" fill="#82F2DB"/>
<path d="M140.068 28.4464C139.925 28.7982 139.657 29.5388 139.407 30.2793C141.942 33.3527 145.708 34.1859 145.708 34.1859C146.386 33.001 147.582 32.8158 147.582 32.8158L147.242 27.5392C146.172 27.5392 143.584 27.5392 142.156 27.5392C140.674 27.5207 140.389 27.6133 140.068 28.4464Z" fill="#82F2DB"/>
<path d="M144.119 31.1125C144.641 31.1125 145.065 30.6732 145.065 30.1312C145.065 29.5893 144.641 29.15 144.119 29.15C143.596 29.15 143.173 29.5893 143.173 30.1312C143.173 30.6732 143.596 31.1125 144.119 31.1125Z" fill="#055E5A"/>
<path d="M144.119 29.5757C144.178 29.5757 144.226 29.526 144.226 29.4646C144.226 29.4033 144.178 29.3535 144.119 29.3535C144.06 29.3535 144.012 29.4033 144.012 29.4646C144.012 29.526 144.06 29.5757 144.119 29.5757Z" fill="#055E5A"/>
<path d="M144.641 29.7514C144.683 29.708 144.683 29.6377 144.641 29.5943C144.599 29.5509 144.532 29.5509 144.49 29.5943C144.448 29.6377 144.448 29.708 144.49 29.7514C144.532 29.7948 144.599 29.7948 144.641 29.7514Z" fill="#055E5A"/>
<path d="M144.761 30.2422C144.821 30.2422 144.868 30.1925 144.868 30.1312C144.868 30.0698 144.821 30.0201 144.761 30.0201C144.702 30.0201 144.654 30.0698 144.654 30.1312C144.654 30.1925 144.702 30.2422 144.761 30.2422Z" fill="#055E5A"/>
<path d="M144.648 30.6971C144.689 30.6537 144.689 30.5834 144.648 30.54C144.606 30.4966 144.538 30.4966 144.496 30.54C144.454 30.5834 144.454 30.6537 144.496 30.6971C144.538 30.7405 144.606 30.7405 144.648 30.6971Z" fill="#055E5A"/>
<path d="M144.119 30.9088C144.178 30.9088 144.226 30.859 144.226 30.7977C144.226 30.7363 144.178 30.6866 144.119 30.6866C144.06 30.6866 144.012 30.7363 144.012 30.7977C144.012 30.859 144.06 30.9088 144.119 30.9088Z" fill="#055E5A"/>
<path d="M143.736 30.6957C143.778 30.6524 143.778 30.582 143.736 30.5386C143.695 30.4953 143.627 30.4953 143.585 30.5386C143.543 30.582 143.543 30.6524 143.585 30.6957C143.627 30.7391 143.695 30.7391 143.736 30.6957Z" fill="#055E5A"/>
<path d="M143.476 30.2422C143.535 30.2422 143.583 30.1925 143.583 30.1312C143.583 30.0698 143.535 30.0201 143.476 30.0201C143.417 30.0201 143.369 30.0698 143.369 30.1312C143.369 30.1925 143.417 30.2422 143.476 30.2422Z" fill="#055E5A"/>
<path d="M143.728 29.7445C143.77 29.7011 143.77 29.6308 143.728 29.5874C143.686 29.544 143.619 29.544 143.577 29.5874C143.535 29.6308 143.535 29.7011 143.577 29.7445C143.619 29.7879 143.686 29.7879 143.728 29.7445Z" fill="#055E5A"/>
<path d="M144.118 30.5199C144.325 30.5199 144.493 30.3458 144.493 30.1311C144.493 29.9164 144.325 29.7423 144.118 29.7423C143.911 29.7423 143.744 29.9164 143.744 30.1311C143.744 30.3458 143.911 30.5199 144.118 30.5199Z" fill="#055E5A"/>
<path d="M148.545 35.7226C148.545 35.7226 143.673 34.8524 140.853 32.8714C138.747 31.3902 137.105 28.1317 137.105 28.1317H132.054C132.054 29.0389 132.768 29.761 133.624 29.761H136.391C136.391 29.761 137.551 32.3345 139.996 34.1304C141.995 35.6115 146.225 37.1297 148.545 37.1297V35.7226Z" fill="#187F73"/>
<path d="M137.122 28.1317H132.071C132.071 28.3169 132.107 28.4835 132.161 28.6501H136.837C136.837 28.6501 138.372 32.0012 140.745 33.4824C143.119 34.9635 146.832 35.9818 148.563 36.1669V35.7411C148.563 35.7411 143.69 34.871 140.87 32.8899C138.764 31.3902 137.122 28.1317 137.122 28.1317Z" fill="#187F73"/>
<path d="M149.901 43.0913C152.592 43.0913 154.774 40.8283 154.774 38.0368C154.774 35.2454 152.592 32.9824 149.901 32.9824C147.21 32.9824 145.029 35.2454 145.029 38.0368C145.029 40.8283 147.21 43.0913 149.901 43.0913Z" fill="#055E5A"/>
<path d="M149.902 32.9824C149.081 32.9824 148.313 33.1861 147.653 33.5564C146.421 34.4451 145.618 35.9262 145.618 37.5925C145.618 40.2956 147.742 42.4988 150.348 42.4988C151.954 42.4988 153.382 41.6657 154.239 40.3882C154.596 39.6846 154.792 38.8885 154.792 38.0554C154.792 35.2412 152.597 32.9824 149.902 32.9824Z" fill="#055E5A"/>
<path d="M149.901 40.777C151.36 40.777 152.543 39.5502 152.543 38.0369C152.543 36.5235 151.36 35.2968 149.901 35.2968C148.442 35.2968 147.26 36.5235 147.26 38.0369C147.26 39.5502 148.442 40.777 149.901 40.777Z" fill="#82F2DB"/>
<path d="M149.902 40.2586C151.084 40.2586 152.043 39.2639 152.043 38.0368C152.043 36.8098 151.084 35.8151 149.902 35.8151C148.719 35.8151 147.76 36.8098 147.76 38.0368C147.76 39.2639 148.719 40.2586 149.902 40.2586Z" fill="#187F73"/>
<path d="M149.902 39.592C150.73 39.592 151.401 38.8958 151.401 38.0368C151.401 37.1779 150.73 36.4816 149.902 36.4816C149.074 36.4816 148.402 37.1779 148.402 38.0368C148.402 38.8958 149.074 39.592 149.902 39.592Z" fill="#82F2DB"/>
<path d="M149.901 38.944C150.384 38.944 150.776 38.5379 150.776 38.0368C150.776 37.5358 150.384 37.1296 149.901 37.1296C149.418 37.1296 149.027 37.5358 149.027 38.0368C149.027 38.5379 149.418 38.944 149.901 38.944Z" fill="#187F73"/>
<path d="M149.901 37.5184C149.951 37.5184 149.99 37.477 149.99 37.4258C149.99 37.3747 149.951 37.3333 149.901 37.3333C149.852 37.3333 149.812 37.3747 149.812 37.4258C149.812 37.477 149.852 37.5184 149.901 37.5184Z" fill="#187F73"/>
<path d="M149.554 37.6804C149.589 37.6442 149.589 37.5856 149.554 37.5495C149.519 37.5133 149.463 37.5133 149.428 37.5495C149.393 37.5856 149.393 37.6442 149.428 37.6804C149.463 37.7165 149.519 37.7165 149.554 37.6804Z" fill="#187F73"/>
<path d="M149.313 38.1294C149.362 38.1294 149.402 38.088 149.402 38.0369C149.402 37.9857 149.362 37.9443 149.313 37.9443C149.264 37.9443 149.224 37.9857 149.224 38.0369C149.224 38.088 149.264 38.1294 149.313 38.1294Z" fill="#187F73"/>
<path d="M149.548 38.5269C149.583 38.4908 149.583 38.4322 149.548 38.396C149.513 38.3599 149.456 38.3599 149.421 38.396C149.387 38.4322 149.387 38.4908 149.421 38.5269C149.456 38.5631 149.513 38.5631 149.548 38.5269Z" fill="#187F73"/>
<path d="M149.901 38.7404C149.951 38.7404 149.99 38.699 149.99 38.6479C149.99 38.5967 149.951 38.5553 149.901 38.5553C149.852 38.5553 149.812 38.5967 149.812 38.6479C149.812 38.699 149.852 38.7404 149.901 38.7404Z" fill="#187F73"/>
<path d="M150.371 38.5344C150.406 38.4982 150.406 38.4396 150.371 38.4035C150.337 38.3673 150.28 38.3673 150.245 38.4035C150.21 38.4396 150.21 38.4982 150.245 38.5344C150.28 38.5705 150.337 38.5705 150.371 38.5344Z" fill="#187F73"/>
<path d="M150.491 38.1294C150.54 38.1294 150.58 38.088 150.58 38.0369C150.58 37.9857 150.54 37.9443 150.491 37.9443C150.441 37.9443 150.401 37.9857 150.401 38.0369C150.401 38.088 150.441 38.1294 150.491 38.1294Z" fill="#187F73"/>
<path d="M150.375 37.6811C150.41 37.6449 150.41 37.5863 150.375 37.5501C150.34 37.514 150.284 37.514 150.249 37.5501C150.214 37.5863 150.214 37.6449 150.249 37.6811C150.284 37.7172 150.34 37.7172 150.375 37.6811Z" fill="#187F73"/>
<path d="M149.901 38.4071C150.099 38.4071 150.258 38.2413 150.258 38.0368C150.258 37.8323 150.099 37.6665 149.901 37.6665C149.704 37.6665 149.544 37.8323 149.544 38.0368C149.544 38.2413 149.704 38.4071 149.901 38.4071Z" fill="#187F73"/>
<path d="M154.792 38.0368C154.792 39.5365 154.149 40.9066 153.15 41.8323C153.917 40.9436 154.381 39.7587 154.381 38.4627C154.381 35.667 152.204 33.4083 149.509 33.4083C148.259 33.4083 147.135 33.8896 146.278 34.6857C147.171 33.6489 148.474 32.9824 149.937 32.9824C152.597 32.9824 154.792 35.2412 154.792 38.0368Z" fill="#055E5A"/>
<path d="M136.016 22.2441L135.891 21.9108C135.927 22.0219 135.98 22.1145 136.016 22.2441Z" fill="#187F73"/>
<path d="M152.668 46.4969L149.806 43.6346H165.263L168.195 46.4969H152.703" fill="#4FD3BC"/>
<path d="M152.668 46.4969H168.195V50.5419H152.668V46.4969Z" fill="#187F73"/>
<path d="M149.806 47.5424V43.6345L152.668 46.4969V50.5419L149.806 47.5424Z" fill="#187F73"/>
<path d="M150.407 41.7664L147.528 38.9211H163.002L165.934 41.7664H150.443" fill="#4FD3BC"/>
<path d="M150.407 41.7664H165.934V45.8114H150.407V41.7664Z" fill="#187F73"/>
<path d="M147.528 42.8119V38.9211L150.407 41.7664V45.8114L147.528 42.8119Z" fill="#187F73"/>
<path d="M135.551 48.8794L132.072 46.754L143.712 44.063L147.245 46.1541L135.604 48.8622" fill="#4FD3BC"/>
<path d="M135.569 52.8215L147.21 49.9934L147.245 46.1541L135.551 48.8794L135.569 52.8215Z" fill="#187F73"/>
<path d="M132.054 50.5591L132.071 46.7541L135.551 48.8794L135.569 52.8216L132.054 50.5591Z" fill="#187F73"/>
<path d="M295.821 41.2952L297.73 47.7118L301.302 44.9443L301.938 49.5363L305.038 47.4453L305.715 51.1968" stroke="#055E5A" stroke-width="0.305418" stroke-miterlimit="10"/>
<path d="M286.646 60.7089L281.781 56.2194L291.531 56.9164L285.496 50.8688L293.604 51.1148L289.335 45.5798L295.103 46.3998" stroke="#055E5A" stroke-width="0.305418" stroke-miterlimit="10"/>
<path d="M306.906 55.5429V56.8549C306.906 56.8549 306.516 57.1419 306.228 57.5314C305.9 57.9824 306.187 58.6999 306.844 58.6999C307.48 58.6999 307.665 58.0439 307.296 57.7569" stroke="#055E5A" stroke-width="0.305418" stroke-miterlimit="10"/>
<path d="M306.906 50.3973V55.1739" stroke="#055E5A" stroke-width="0.305418" stroke-miterlimit="10"/>
<path d="M307.583 49.1468L295.821 41.2952L294.774 46.3998L306.434 51.5043" stroke="#055E5A" stroke-width="0.610835" stroke-miterlimit="10"/>
<path d="M295.103 46.3998L290.238 60.7295H278.579L292.208 41.5208" stroke="#055E5A" stroke-width="0.610835" stroke-miterlimit="10"/>
<path d="M256.533 75.1616H272.092V56.4039H263.779C263.348 56.4039 262.958 56.6294 262.752 56.9984L256.676 67.9046C256.574 68.0686 256.533 68.2736 256.533 68.4786V75.1616Z" fill="#27A8A5"/>
<path d="M271.579 56.4244H263.779C263.348 56.4244 262.958 56.6499 262.752 57.0189L256.676 67.9251C256.574 68.0891 256.533 68.2941 256.533 68.4991V69.0731H271.599V56.4244H271.579Z" fill="#187F73"/>
<path d="M264.354 57.4084C264.087 57.4084 263.861 57.5519 263.738 57.7774L258.668 67.146C258.565 67.3305 258.565 67.556 258.626 67.7405C258.729 67.802 258.852 67.843 258.996 67.843H270.347C270.635 67.843 270.861 67.6175 270.861 67.3305V57.7569C270.861 57.6749 270.84 57.5929 270.819 57.5109C270.717 57.4494 270.594 57.4084 270.45 57.4084H264.354Z" fill="#055E5A"/>
<path d="M296.622 61.4675H272.092V59.9709H295.144C295.945 59.9709 296.622 60.6475 296.622 61.4675Z" fill="#055E5A"/>
<path d="M296.622 61.447H272.092V75.1617H296.622V61.447Z" fill="#27A8A5"/>
<path d="M296.622 61.4675H274.802V74.4646H296.622V61.4675Z" fill="#27A8A5"/>
<path d="M283.813 75.1616H292.742C291.695 73.8496 290.094 73.0091 288.288 73.0091C286.461 73.0296 284.86 73.8701 283.813 75.1616Z" fill="#187F73"/>
<path d="M281.288 68.2736H272.092V75.1821H281.288V68.2736Z" fill="#27A8A5"/>
<path d="M279.851 66.8385H272.092V68.2735H281.288C281.288 67.474 280.631 66.8385 279.851 66.8385Z" fill="#187F73"/>
<path d="M255.999 70.5081H255.157V75.1616H255.999V70.5081Z" fill="#055E5A"/>
<path d="M293.974 80.5532H262.198C261.582 80.5532 261.09 80.0612 261.09 79.4462V78.4417H294.857V79.6717C294.857 80.1637 294.467 80.5532 293.974 80.5532Z" fill="#187F73"/>
<path d="M294.857 78.4417H261.09V79.2412H294.857V78.4417Z" fill="#187F73"/>
<path d="M257.067 78.4417H296.601C296.95 78.4417 297.238 78.1547 297.238 77.8062V75.8176C297.238 75.4691 296.95 75.1821 296.601 75.1821H256.43V77.8062C256.43 78.1547 256.718 78.4417 257.067 78.4417Z" fill="#187F73"/>
<path d="M282.561 78.4417H293.974C293.912 77.2116 293.461 76.0636 292.722 75.1616H283.793C283.074 76.0841 282.623 77.2116 282.561 78.4417Z" fill="#187F73"/>
<path d="M262.506 78.4417H273.919C273.857 77.2116 273.406 76.0636 272.667 75.1616H263.758C263.019 76.0841 262.567 77.2116 262.506 78.4417Z" fill="#187F73"/>
<path d="M297.238 76.1866V75.7766C297.238 75.4486 296.971 75.1616 296.622 75.1616H256.43V76.1866H297.238Z" fill="#187F73"/>
<path d="M274.33 66.8385H273.201V51.1968C273.201 50.8893 273.447 50.6433 273.755 50.6433C274.063 50.6433 274.309 50.8893 274.309 51.1968V66.8385H274.33Z" fill="#055E5A"/>
<path d="M276.382 66.8386H275.274V57.2649C275.274 56.9574 275.52 56.7114 275.828 56.7114C276.136 56.7114 276.382 56.9574 276.382 57.2649V66.8386Z" fill="#055E5A"/>
<path d="M273.016 54.3539H274.515C274.781 54.3539 275.007 54.5794 275.007 54.8459C275.007 55.1124 274.781 55.3379 274.515 55.3379H273.016C272.749 55.3379 272.523 55.1124 272.523 54.8459C272.523 54.5794 272.729 54.3539 273.016 54.3539Z" fill="#187F73"/>
<path d="M255.158 71.2256H254.706V72.2506H255.158V71.2256Z" fill="#187F73"/>
<path d="M255.158 73.1936H254.706V74.2186H255.158V73.1936Z" fill="#187F73"/>
<path d="M256.779 77.8677H254.603C254.48 77.8677 254.377 77.7652 254.377 77.6422V75.3871C254.377 75.2641 254.48 75.1616 254.603 75.1616H256.779C257.251 75.1616 257.641 75.5511 257.641 76.0226V77.0066C257.621 77.4781 257.251 77.8677 256.779 77.8677Z" fill="#055E5A"/>
<path d="M274.678 72.7426H278.681C278.784 72.7426 278.886 72.8246 278.886 72.9476C278.886 73.0501 278.804 73.1526 278.681 73.1526H274.678C274.576 73.1526 274.473 73.0706 274.473 72.9476C274.473 72.8246 274.555 72.7426 274.678 72.7426Z" fill="#27A8A5"/>
<path d="M274.678 71.1436H278.681C278.784 71.1436 278.886 71.2256 278.886 71.3486C278.886 71.4511 278.804 71.5536 278.681 71.5536H274.678C274.576 71.5536 274.473 71.4716 274.473 71.3486C274.473 71.2256 274.555 71.1436 274.678 71.1436Z" fill="#27A8A5"/>
<path d="M274.678 69.5446H278.681C278.784 69.5446 278.886 69.6266 278.886 69.7496C278.886 69.8521 278.804 69.9546 278.681 69.9546H274.678C274.576 69.9546 274.473 69.8726 274.473 69.7496C274.473 69.6266 274.555 69.5446 274.678 69.5446Z" fill="#27A8A5"/>
<path d="M263.758 75.1616H272.688C271.641 73.8496 270.04 73.0091 268.233 73.0091C266.406 73.0296 264.805 73.8701 263.758 75.1616Z" fill="#187F73"/>
<path d="M258.503 70.0366C258.216 69.9956 256.984 69.9136 256.533 69.8521V73.1732H258.688C258.791 73.1732 258.893 73.1321 258.975 73.0706V70.5081C258.975 70.2416 258.852 70.0981 258.503 70.0366Z" fill="#27A8A5"/>
<path d="M272.564 61.4675H272.092V66.8181H272.564V61.4675Z" fill="#27A8A5"/>
<path d="M268.213 83.8332C271.036 83.8332 273.324 81.5478 273.324 78.7286C273.324 75.9095 271.036 73.6241 268.213 73.6241C265.39 73.6241 263.102 75.9095 263.102 78.7286C263.102 81.5478 265.39 83.8332 268.213 83.8332Z" fill="#27A8A5"/>
<path d="M268.213 81.4962C269.743 81.4962 270.984 80.2571 270.984 78.7286C270.984 77.2002 269.743 75.9611 268.213 75.9611C266.682 75.9611 265.441 77.2002 265.441 78.7286C265.441 80.2571 266.682 81.4962 268.213 81.4962Z" fill="#187F73"/>
<path d="M268.213 80.9837C269.46 80.9837 270.471 79.9741 270.471 78.7287C270.471 77.4832 269.46 76.4736 268.213 76.4736C266.966 76.4736 265.955 77.4832 265.955 78.7287C265.955 79.9741 266.966 80.9837 268.213 80.9837Z" fill="#055E5A"/>
<path d="M268.212 80.3072C269.085 80.3072 269.793 79.6005 269.793 78.7287C269.793 77.8569 269.085 77.1501 268.212 77.1501C267.339 77.1501 266.632 77.8569 266.632 78.7287C266.632 79.6005 267.339 80.3072 268.212 80.3072Z" fill="#187F73"/>
<path d="M268.213 79.6307C268.712 79.6307 269.116 79.2268 269.116 78.7287C269.116 78.2305 268.712 77.8267 268.213 77.8267C267.714 77.8267 267.31 78.2305 267.31 78.7287C267.31 79.2268 267.714 79.6307 268.213 79.6307Z" fill="#055E5A"/>
<path d="M268.212 78.2367C268.269 78.2367 268.315 78.1908 268.315 78.1342C268.315 78.0776 268.269 78.0317 268.212 78.0317C268.156 78.0317 268.11 78.0776 268.11 78.1342C268.11 78.1908 268.156 78.2367 268.212 78.2367Z" fill="#187F73"/>
<path d="M268.712 78.3738C268.752 78.3338 268.752 78.2689 268.712 78.2288C268.672 78.1888 268.607 78.1888 268.567 78.2288C268.527 78.2689 268.527 78.3338 268.567 78.3738C268.607 78.4138 268.672 78.4138 268.712 78.3738Z" fill="#187F73"/>
<path d="M268.828 78.8312C268.885 78.8312 268.931 78.7853 268.931 78.7287C268.931 78.6721 268.885 78.6262 268.828 78.6262C268.772 78.6262 268.726 78.6721 268.726 78.7287C268.726 78.7853 268.772 78.8312 268.828 78.8312Z" fill="#187F73"/>
<path d="M268.709 79.236C268.749 79.196 268.749 79.1311 268.709 79.091C268.669 79.051 268.604 79.051 268.564 79.091C268.524 79.1311 268.524 79.196 268.564 79.236C268.604 79.276 268.669 79.276 268.709 79.236Z" fill="#187F73"/>
<path d="M268.212 79.4462C268.269 79.4462 268.315 79.4003 268.315 79.3437C268.315 79.287 268.269 79.2411 268.212 79.2411C268.156 79.2411 268.11 79.287 268.11 79.3437C268.11 79.4003 268.156 79.4462 268.212 79.4462Z" fill="#187F73"/>
<path d="M267.846 79.2332C267.886 79.1932 267.886 79.1283 267.846 79.0882C267.806 79.0482 267.741 79.0482 267.701 79.0882C267.661 79.1283 267.661 79.1932 267.701 79.2332C267.741 79.2732 267.806 79.2732 267.846 79.2332Z" fill="#187F73"/>
<path d="M267.597 78.8312C267.653 78.8312 267.699 78.7853 267.699 78.7287C267.699 78.6721 267.653 78.6262 267.597 78.6262C267.54 78.6262 267.494 78.6721 267.494 78.7287C267.494 78.7853 267.54 78.8312 267.597 78.8312Z" fill="#187F73"/>
<path d="M267.849 78.371C267.889 78.331 267.889 78.2661 267.849 78.226C267.809 78.186 267.744 78.186 267.704 78.226C267.664 78.2661 267.664 78.331 267.704 78.371C267.744 78.411 267.809 78.411 267.849 78.371Z" fill="#187F73"/>
<path d="M268.213 79.0977C268.417 79.0977 268.582 78.9325 268.582 78.7287C268.582 78.5249 268.417 78.3597 268.213 78.3597C268.009 78.3597 267.843 78.5249 267.843 78.7287C267.843 78.9325 268.009 79.0977 268.213 79.0977Z" fill="#187F73"/>
<path d="M288.308 83.8332C291.131 83.8332 293.42 81.5478 293.42 78.7286C293.42 75.9095 291.131 73.6241 288.308 73.6241C285.486 73.6241 283.197 75.9095 283.197 78.7286C283.197 81.5478 285.486 83.8332 288.308 83.8332Z" fill="#27A8A5"/>
<path d="M288.308 81.4962C289.839 81.4962 291.079 80.2571 291.079 78.7286C291.079 77.2002 289.839 75.9611 288.308 75.9611C286.778 75.9611 285.537 77.2002 285.537 78.7286C285.537 80.2571 286.778 81.4962 288.308 81.4962Z" fill="#187F73"/>
<path d="M288.309 80.9837C289.556 80.9837 290.567 79.9741 290.567 78.7287C290.567 77.4832 289.556 76.4736 288.309 76.4736C287.062 76.4736 286.051 77.4832 286.051 78.7287C286.051 79.9741 287.062 80.9837 288.309 80.9837Z" fill="#055E5A"/>
<path d="M288.309 80.3072C289.182 80.3072 289.889 79.6005 289.889 78.7287C289.889 77.8569 289.182 77.1501 288.309 77.1501C287.436 77.1501 286.728 77.8569 286.728 78.7287C286.728 79.6005 287.436 80.3072 288.309 80.3072Z" fill="#187F73"/>
<path d="M288.308 79.6307C288.807 79.6307 289.212 79.2268 289.212 78.7287C289.212 78.2305 288.807 77.8267 288.308 77.8267C287.81 77.8267 287.405 78.2305 287.405 78.7287C287.405 79.2268 287.81 79.6307 288.308 79.6307Z" fill="#055E5A"/>
<path d="M288.309 78.2367C288.365 78.2367 288.411 78.1908 288.411 78.1342C288.411 78.0776 288.365 78.0317 288.309 78.0317C288.252 78.0317 288.206 78.0776 288.206 78.1342C288.206 78.1908 288.252 78.2367 288.309 78.2367Z" fill="#187F73"/>
<path d="M288.808 78.3725C288.848 78.3325 288.848 78.2676 288.808 78.2276C288.767 78.1875 288.702 78.1875 288.662 78.2276C288.622 78.2676 288.622 78.3325 288.662 78.3725C288.702 78.4126 288.767 78.4126 288.808 78.3725Z" fill="#187F73"/>
<path d="M288.924 78.8312C288.981 78.8312 289.027 78.7853 289.027 78.7287C289.027 78.6721 288.981 78.6262 288.924 78.6262C288.868 78.6262 288.822 78.6721 288.822 78.7287C288.822 78.7853 288.868 78.8312 288.924 78.8312Z" fill="#187F73"/>
<path d="M288.805 79.2347C288.845 79.1947 288.845 79.1298 288.805 79.0898C288.765 79.0497 288.7 79.0497 288.659 79.0898C288.619 79.1298 288.619 79.1947 288.659 79.2347C288.7 79.2747 288.765 79.2747 288.805 79.2347Z" fill="#187F73"/>
<path d="M288.309 79.4462C288.365 79.4462 288.411 79.4003 288.411 79.3437C288.411 79.287 288.365 79.2411 288.309 79.2411C288.252 79.2411 288.206 79.287 288.206 79.3437C288.206 79.4003 288.252 79.4462 288.309 79.4462Z" fill="#187F73"/>
<path d="M287.941 79.2318C287.981 79.1918 287.981 79.1269 287.941 79.0869C287.901 79.0469 287.836 79.0469 287.796 79.0869C287.756 79.1269 287.756 79.1918 287.796 79.2318C287.836 79.2719 287.901 79.2719 287.941 79.2318Z" fill="#187F73"/>
<path d="M287.692 78.8312C287.749 78.8312 287.795 78.7853 287.795 78.7287C287.795 78.6721 287.749 78.6262 287.692 78.6262C287.636 78.6262 287.59 78.6721 287.59 78.7287C287.59 78.7853 287.636 78.8312 287.692 78.8312Z" fill="#187F73"/>
<path d="M287.944 78.3697C287.984 78.3297 287.984 78.2648 287.944 78.2248C287.904 78.1847 287.839 78.1847 287.799 78.2248C287.759 78.2648 287.759 78.3297 287.799 78.3697C287.839 78.4098 287.904 78.4098 287.944 78.3697Z" fill="#187F73"/>
<path d="M288.308 79.0977C288.513 79.0977 288.678 78.9325 288.678 78.7287C288.678 78.5249 288.513 78.3597 288.308 78.3597C288.104 78.3597 287.939 78.5249 287.939 78.7287C287.939 78.9325 288.104 79.0977 288.308 79.0977Z" fill="#187F73"/>
<path d="M294.138 46.9123C295.963 46.9123 297.443 45.4346 297.443 43.6118C297.443 41.7889 295.963 40.3112 294.138 40.3112C292.313 40.3112 290.833 41.7889 290.833 43.6118C290.833 45.4346 292.313 46.9123 294.138 46.9123Z" fill="#27A8A5"/>
<path d="M294.138 45.9283C295.419 45.9283 296.457 44.8911 296.457 43.6117C296.457 42.3324 295.419 41.2952 294.138 41.2952C292.857 41.2952 291.818 42.3324 291.818 43.6117C291.818 44.8911 292.857 45.9283 294.138 45.9283Z" fill="#187F73"/>
<path d="M294.138 44.9442C294.875 44.9442 295.472 44.3477 295.472 43.6117C295.472 42.8758 294.875 42.2792 294.138 42.2792C293.401 42.2792 292.804 42.8758 292.804 43.6117C292.804 44.3477 293.401 44.9442 294.138 44.9442Z" fill="#27A8A5"/>
<path d="M294.138 42.8737C294.218 42.8737 294.282 42.8095 294.282 42.7302C294.282 42.651 294.218 42.5867 294.138 42.5867C294.059 42.5867 293.995 42.651 293.995 42.7302C293.995 42.8095 294.059 42.8737 294.138 42.8737Z" fill="#187F73"/>
<path d="M294.879 43.0865C294.935 43.0304 294.935 42.9396 294.879 42.8835C294.822 42.8275 294.731 42.8275 294.675 42.8836C294.619 42.9396 294.619 43.0305 294.675 43.0865C294.731 43.1425 294.822 43.1425 294.879 43.0865Z" fill="#187F73"/>
<path d="M295.041 43.7553C295.121 43.7553 295.185 43.691 295.185 43.6118C295.185 43.5325 295.121 43.4683 295.041 43.4683C294.962 43.4683 294.897 43.5325 294.897 43.6118C294.897 43.691 294.962 43.7553 295.041 43.7553Z" fill="#187F73"/>
<path d="M294.88 44.3557C294.936 44.2996 294.936 44.2087 294.88 44.1527C294.823 44.0966 294.732 44.0966 294.676 44.1527C294.62 44.2087 294.62 44.2996 294.676 44.3556C294.732 44.4117 294.823 44.4117 294.88 44.3557Z" fill="#187F73"/>
<path d="M294.138 44.6573C294.218 44.6573 294.282 44.593 294.282 44.5138C294.282 44.4345 294.218 44.3703 294.138 44.3703C294.059 44.3703 293.995 44.4345 293.995 44.5138C293.995 44.593 294.059 44.6573 294.138 44.6573Z" fill="#187F73"/>
<path d="M293.596 44.3503C293.652 44.2942 293.652 44.2033 293.596 44.1473C293.54 44.0913 293.449 44.0913 293.393 44.1473C293.337 44.2033 293.337 44.2942 293.393 44.3503C293.449 44.4063 293.54 44.4063 293.596 44.3503Z" fill="#187F73"/>
<path d="M293.235 43.7553C293.314 43.7553 293.379 43.691 293.379 43.6118C293.379 43.5325 293.314 43.4683 293.235 43.4683C293.156 43.4683 293.091 43.5325 293.091 43.6118C293.091 43.691 293.156 43.7553 293.235 43.7553Z" fill="#187F73"/>
<path d="M293.596 43.079C293.652 43.023 293.652 42.9321 293.596 42.8761C293.54 42.82 293.449 42.82 293.393 42.8761C293.337 42.9321 293.337 43.023 293.393 43.079C293.449 43.135 293.54 43.135 293.596 43.079Z" fill="#187F73"/>
<path d="M294.138 44.1448C294.433 44.1448 294.672 43.9061 294.672 43.6118C294.672 43.3174 294.433 43.0787 294.138 43.0787C293.843 43.0787 293.604 43.3174 293.604 43.6118C293.604 43.9061 293.843 44.1448 294.138 44.1448Z" fill="#187F73"/>
<path d="M306.906 52.0169C307.835 52.0169 308.589 51.2643 308.589 50.3359C308.589 49.4075 307.835 48.6548 306.906 48.6548C305.976 48.6548 305.223 49.4075 305.223 50.3359C305.223 51.2643 305.976 52.0169 306.906 52.0169Z" fill="#187F73"/>
<path d="M306.906 51.5249C307.563 51.5249 308.096 50.9925 308.096 50.3359C308.096 49.6792 307.563 49.1469 306.906 49.1469C306.248 49.1469 305.715 49.6792 305.715 50.3359C305.715 50.9925 306.248 51.5249 306.906 51.5249Z" fill="#27A8A5"/>
<path d="M306.906 51.0124C307.28 51.0124 307.583 50.7095 307.583 50.3359C307.583 49.9622 307.28 49.6594 306.906 49.6594C306.532 49.6594 306.229 49.9622 306.229 50.3359C306.229 50.7095 306.532 51.0124 306.906 51.0124Z" fill="#187F73"/>
<path d="M306.906 49.9464C306.951 49.9464 306.988 49.9096 306.988 49.8644C306.988 49.8191 306.951 49.7823 306.906 49.7823C306.86 49.7823 306.824 49.8191 306.824 49.8644C306.824 49.9096 306.86 49.9464 306.906 49.9464Z" fill="#27A8A5"/>
<path d="M307.29 50.0604C307.322 50.0284 307.322 49.9765 307.29 49.9445C307.258 49.9124 307.206 49.9124 307.174 49.9445C307.142 49.9765 307.142 50.0284 307.174 50.0604C307.206 50.0925 307.258 50.0924 307.29 50.0604Z" fill="#27A8A5"/>
<path d="M307.358 50.4179C307.403 50.4179 307.44 50.3811 307.44 50.3358C307.44 50.2906 307.403 50.2538 307.358 50.2538C307.312 50.2538 307.275 50.2906 307.275 50.3358C307.275 50.3811 307.312 50.4179 307.358 50.4179Z" fill="#27A8A5"/>
<path d="M307.295 50.7145C307.327 50.6825 307.327 50.6306 307.295 50.5986C307.263 50.5665 307.211 50.5666 307.179 50.5986C307.147 50.6306 307.147 50.6825 307.179 50.7145C307.211 50.7466 307.263 50.7466 307.295 50.7145Z" fill="#27A8A5"/>
<path d="M306.906 50.8688C306.951 50.8688 306.988 50.8321 306.988 50.7868C306.988 50.7416 306.951 50.7048 306.906 50.7048C306.86 50.7048 306.824 50.7416 306.824 50.7868C306.824 50.8321 306.86 50.8688 306.906 50.8688Z" fill="#27A8A5"/>
<path d="M306.64 50.7192C306.673 50.6872 306.673 50.6353 306.64 50.6033C306.608 50.5712 306.556 50.5713 306.524 50.6033C306.492 50.6353 306.492 50.6872 306.524 50.7192C306.556 50.7513 306.608 50.7513 306.64 50.7192Z" fill="#27A8A5"/>
<path d="M306.434 50.4179C306.479 50.4179 306.516 50.3811 306.516 50.3358C306.516 50.2906 306.479 50.2538 306.434 50.2538C306.388 50.2538 306.352 50.2906 306.352 50.3358C306.352 50.3811 306.388 50.4179 306.434 50.4179Z" fill="#27A8A5"/>
<path d="M306.636 50.0652C306.668 50.0332 306.668 49.9813 306.636 49.9492C306.604 49.9172 306.552 49.9172 306.519 49.9492C306.487 49.9812 306.487 50.0332 306.519 50.0652C306.552 50.0972 306.604 50.0972 306.636 50.0652Z" fill="#27A8A5"/>
<path d="M306.906 50.6023C307.053 50.6023 307.173 50.483 307.173 50.3358C307.173 50.1887 307.053 50.0693 306.906 50.0693C306.759 50.0693 306.639 50.1887 306.639 50.3358C306.639 50.483 306.759 50.6023 306.906 50.6023Z" fill="#27A8A5"/>
<path d="M306.906 56.2194C307.28 56.2194 307.583 55.9165 307.583 55.5429C307.583 55.1693 307.28 54.8664 306.906 54.8664C306.532 54.8664 306.229 55.1693 306.229 55.5429C306.229 55.9165 306.532 56.2194 306.906 56.2194Z" fill="#187F73"/>
<path d="M306.906 55.1534C306.951 55.1534 306.988 55.1167 306.988 55.0714C306.988 55.0261 306.951 54.9894 306.906 54.9894C306.86 54.9894 306.824 55.0261 306.824 55.0714C306.824 55.1167 306.86 55.1534 306.906 55.1534Z" fill="#187F73"/>
<path d="M307.291 55.2685C307.323 55.2364 307.323 55.1845 307.291 55.1525C307.259 55.1205 307.207 55.1205 307.175 55.1525C307.143 55.1845 307.143 55.2365 307.175 55.2685C307.207 55.3005 307.259 55.3005 307.291 55.2685Z" fill="#187F73"/>
<path d="M307.357 55.6249C307.403 55.6249 307.44 55.5882 307.44 55.5429C307.44 55.4976 307.403 55.4609 307.357 55.4609C307.312 55.4609 307.275 55.4976 307.275 55.5429C307.275 55.5882 307.312 55.6249 307.357 55.6249Z" fill="#187F73"/>
<path d="M307.283 55.9061C307.315 55.8741 307.315 55.8222 307.283 55.7902C307.251 55.7581 307.199 55.7581 307.166 55.7902C307.134 55.8222 307.134 55.8741 307.166 55.9061C307.199 55.9382 307.251 55.9382 307.283 55.9061Z" fill="#187F73"/>
<path d="M306.906 56.0759C306.951 56.0759 306.988 56.0392 306.988 55.9939C306.988 55.9486 306.951 55.9119 306.906 55.9119C306.86 55.9119 306.824 55.9486 306.824 55.9939C306.824 56.0392 306.86 56.0759 306.906 56.0759Z" fill="#187F73"/>
<path d="M306.628 55.9108C306.66 55.8788 306.66 55.8269 306.628 55.7949C306.596 55.7628 306.544 55.7628 306.512 55.7949C306.48 55.8269 306.48 55.8788 306.512 55.9108C306.544 55.9429 306.596 55.9429 306.628 55.9108Z" fill="#187F73"/>
<path d="M306.434 55.6249C306.479 55.6249 306.516 55.5882 306.516 55.5429C306.516 55.4976 306.479 55.4609 306.434 55.4609C306.388 55.4609 306.352 55.4976 306.352 55.5429C306.352 55.5882 306.388 55.6249 306.434 55.6249Z" fill="#187F73"/>
<path d="M306.639 55.2695C306.671 55.2375 306.671 55.1856 306.639 55.1535C306.606 55.1215 306.554 55.1215 306.522 55.1535C306.49 55.1855 306.49 55.2374 306.522 55.2695C306.554 55.3015 306.606 55.3015 306.639 55.2695Z" fill="#187F73"/>
<path d="M306.906 55.8094C307.053 55.8094 307.173 55.6901 307.173 55.5429C307.173 55.3958 307.053 55.2764 306.906 55.2764C306.759 55.2764 306.639 55.3958 306.639 55.5429C306.639 55.6901 306.759 55.8094 306.906 55.8094Z" fill="#187F73"/>
</svg>
