<svg fill="none" height="24" viewBox="0 0 24 24" width="24" xmlns="http://www.w3.org/2000/svg"><g fill="#212121"><path d="m6.5 1.99609c0-.55228.44772-.999996 1-.999996h9c.5523 0 1 .447716 1 .999996v20.00001c0 .5523-.4477 1-1 1h-9c-.55229 0-1-.4477-1-1z"/><path d="m0 3.49609c0-.55228.447715-1 1-1h2.5c.55228 0 1 .44772 1 1v17.00001c0 .5523-.44772 1-1 1h-2.5c-.552285 0-1-.4477-1-1z"/><path d="m19.5 3.49609c0-.55228.4477-1 1-1h2.5c.5523 0 1 .44772 1 1v17.00001c0 .5523-.4477 1-1 1h-2.5c-.5523 0-1-.4477-1-1z"/></g></svg>