<svg width="20" height="20" viewBox="0 0 20 20" fill="none" xmlns="http://www.w3.org/2000/svg">
<path d="M3.75 14.5454V17.3863C3.75 18.0139 4.25877 18.5226 4.88636 18.5226H8.29545V13.9772C8.29545 13.3496 8.80422 12.8408 9.43182 12.8408H10.5682C11.1958 12.8408 11.7045 13.3496 11.7045 13.9772V18.5226H15.1136C15.7412 18.5226 16.25 18.0139 16.25 17.3863V14.5454"  stroke-width="1.5" stroke-linecap="round" stroke-linejoin="round"/>
<path d="M1.47705 13.4094L9.19599 5.69051C9.40912 5.47725 9.69827 5.35742 9.99978 5.35742C10.3013 5.35742 10.5904 5.47725 10.8036 5.69051L18.5225 13.4094"  stroke-width="1.5" stroke-linecap="round" stroke-linejoin="round"/>
<path d="M13.4087 8.29554V7.15918H16.2496V11.1365"  stroke-width="1.5" stroke-linecap="round" stroke-linejoin="round"/>
<path d="M13.8801 1.47754L13.5718 1.8889C13.3146 2.22555 13.368 2.705 13.693 2.97678V2.97678C14.018 3.24856 14.0714 3.72801 13.8142 4.06466L13.5059 4.47602"  stroke-width="1.5" stroke-linecap="round" stroke-linejoin="round"/>
<path d="M16.7209 1.47754L16.4126 1.8889C16.1554 2.22555 16.2088 2.705 16.5338 2.97678V2.97678C16.8588 3.24856 16.9122 3.72801 16.655 4.06466L16.3467 4.47602"  stroke-width="1.5" stroke-linecap="round" stroke-linejoin="round"/>
</svg>
