<svg width="22" height="21" viewBox="0 0 22 21" fill="none" xmlns="http://www.w3.org/2000/svg">
<path fill-rule="evenodd" clip-rule="evenodd" d="M11 19.8748L3.685 17.0915C3.20198 16.935 2.87486 16.485 2.875 15.9773V9.87479C2.875 9.49965 3.05463 9.1472 3.35817 8.92676C3.6617 8.70633 4.05244 8.64456 4.40917 8.76062L11 11.309V19.8748Z" stroke="white" stroke-width="1.90263" stroke-linecap="round" stroke-linejoin="round"/>
<path fill-rule="evenodd" clip-rule="evenodd" d="M18.315 17.0915L11 19.8748V11.309L17.5908 8.76062C17.9476 8.64456 18.3383 8.70633 18.6418 8.92676C18.9454 9.1472 19.125 9.49965 19.125 9.87479V15.9773C19.1251 16.485 18.798 16.935 18.315 17.0915V17.0915Z" stroke="white" stroke-width="1.90263" stroke-linecap="round" stroke-linejoin="round"/>
<path fill-rule="evenodd" clip-rule="evenodd" d="M6.62512 7.375C8.35101 7.375 9.75012 5.97589 9.75012 4.25C9.75012 2.52411 8.35101 1.125 6.62512 1.125C4.89923 1.125 3.50012 2.52411 3.50012 4.25C3.50012 5.97589 4.89923 7.375 6.62512 7.375Z" stroke="white" stroke-width="1.90263" stroke-linecap="round" stroke-linejoin="round"/>
<path fill-rule="evenodd" clip-rule="evenodd" d="M15.375 7.375C17.1009 7.375 18.5 5.97589 18.5 4.25C18.5 2.52411 17.1009 1.125 15.375 1.125C13.6491 1.125 12.25 2.52411 12.25 4.25C12.25 5.97589 13.6491 7.375 15.375 7.375Z" stroke="white" stroke-width="1.90263" stroke-linecap="round" stroke-linejoin="round"/>
<path d="M9.75 4.30859C9.75 3.61824 10.3096 3.05859 11 3.05859C11.6904 3.05859 12.25 3.61824 12.25 4.30859" stroke="white" stroke-width="1.90263" stroke-linecap="round" stroke-linejoin="round"/>
<path d="M20.375 4.25H18.5" stroke="white" stroke-width="1.90263" stroke-linecap="round" stroke-linejoin="round"/>
<path d="M3.5 4.25H1.625" stroke="white" stroke-width="1.90263" stroke-linecap="round" stroke-linejoin="round"/>
<path d="M14.125 13.625L16 13" stroke="white" stroke-width="1.90263" stroke-linecap="round" stroke-linejoin="round"/>
</svg>
