<svg width="20" height="20" viewBox="0 0 20 20" fill="none" xmlns="http://www.w3.org/2000/svg">
<path d="M16.5708 18.53L14.3284 17.2019C13.9258 16.915 13.7223 16.4235 13.8042 15.936V14.5542L12.9663 13.7156C12.7533 13.503 12.6468 13.2061 12.6762 12.9066C12.7055 12.6071 12.8676 12.3365 13.1178 12.1693V12.1693C13.5163 11.9042 14.0466 11.9568 14.3852 12.2951L15.567 13.4777"  stroke-width="1.5" stroke-linecap="round" stroke-linejoin="round"/>
<path d="M13.9937 8.03027L17.1467 10.8204C17.5597 11.3987 17.7816 12.0916 17.7815 12.8022V14.4545C17.7816 14.9291 17.9702 15.3841 18.3058 15.7197L18.5224 15.9363"  stroke-width="1.5" stroke-linecap="round" stroke-linejoin="round"/>
<path d="M7.3968 18.5305L9.23468 16.2714C9.56102 15.8674 9.50771 15.2772 9.11423 14.9381C8.92691 14.7768 8.68197 14.6987 8.43584 14.7219C8.18971 14.745 7.96363 14.8674 7.80968 15.0608L7.17559 15.6033V11.1442C7.17559 10.5166 6.66682 10.0078 6.03923 10.0078C5.41163 10.0078 4.90286 10.5166 4.90286 11.1442V13.9851H3.96423C2.58557 14.0013 1.48031 15.1306 1.49377 16.5093V18.5298"  stroke-width="1.5" stroke-linecap="round" stroke-linejoin="round"/>
<path d="M13.9937 12.055V4.32626C13.9937 4.01246 13.7393 3.75808 13.4255 3.75808H10.0164C10.0164 2.50289 8.99884 1.48535 7.74365 1.48535C6.48846 1.48535 5.47093 2.50289 5.47093 3.75808H2.06183C1.74804 3.75808 1.49365 4.01246 1.49365 4.32626V11.7119"  stroke-width="1.5" stroke-linecap="round" stroke-linejoin="round"/>
<path d="M7.74356 3.47363C7.90046 3.47363 8.02765 3.60083 8.02765 3.75772C8.02765 3.91462 7.90046 4.04182 7.74356 4.04182C7.58667 4.04182 7.45947 3.91462 7.45947 3.75772C7.45927 3.68232 7.48914 3.60994 7.54246 3.55662C7.59578 3.5033 7.66816 3.47343 7.74356 3.47363"  stroke-width="1.5" stroke-linecap="round" stroke-linejoin="round"/>
</svg>
