<svg width="157" height="107" viewBox="0 0 157 107" fill="none" xmlns="http://www.w3.org/2000/svg">
<path d="M133.8 81.6001L125 110.4L120.7 134.9H117.3L121.9 81.6001H133.8Z" fill="#6BB8DC"/>
<path d="M136.9 81.6001C136.3 97.4001 137 105.6 137.1 107C137.2 108.4 139.1 117.8 143.4 135.4L139.8 134.2C132.9 118 130.6 109.6 129.8 107.5C129 105.4 126.9 96.7001 123.5 81.6001H136.9Z" fill="#88C6E3"/>
<path d="M134.9 81.6001L131.2 96.3001H119.8L121.5 81.6001H134.9Z" fill="#329BCD"/>
<path d="M137.1 81.6001C138.3 85.3001 138.6 90.2001 137.8 96.3001H126.1L122.9 81.6001H137.1Z" fill="#4FA9D5"/>
<path d="M129.2 47.4999C130.3 46.1999 131 44.6999 130.9 42.8999C130.5 37.8999 123.6 38.9999 122.2 41.4999C120.8 43.9999 121 50.3999 122.8 50.8999C123.5 51.0999 125 50.5999 126.5 49.6999L125.5 56.3999H131.1L129.2 47.4999Z" fill="#88C6E3"/>
<path d="M119.7 38.1001C119.8 37.7001 120.1 37.3001 120.6 37.2001C120.7 37.2001 120.8 37.2001 120.9 37.2001C120.9 37.2001 120.9 37.2001 121 37.2001V37.1001C121 37.0001 121 37.0001 121.1 36.9001C121.2 36.7001 121.3 36.5001 121.5 36.3001C121.8 36.0001 122.3 35.7001 122.8 35.7001C123.1 35.7001 123.3 35.7001 123.6 35.8001C123.7 35.8001 123.8 35.9001 124 36.0001L124.2 36.1001C124.2 36.1001 124.3 36.0001 124.4 36.0001C124.8 35.7001 125.3 35.6001 125.8 35.6001C126.4 35.6001 126.9 35.6001 127.4 36.0001C127.5 36.1001 127.6 36.2001 127.7 36.2001L127.8 36.3001L127.9 36.4001C127.9 36.5001 127.9 36.5001 128 36.4001C128.2 36.3001 128.5 36.2001 128.7 36.2001C128.9 36.2001 129 36.3001 129.2 36.3001L129.4 36.4001C129.5 36.4001 129.6 36.3001 129.6 36.3001C129.9 36.2001 130.2 36.2001 130.5 36.2001C130.8 36.3001 131.1 36.4001 131.4 36.5001C131.5 36.6001 131.6 36.7001 131.7 36.8001C131.7 36.9001 131.8 36.9001 131.8 37.0001L131.9 37.1001C131.9 37.1001 132.2 36.9001 132.3 36.9001C132.5 36.9001 132.7 36.9001 132.8 36.9001C133.1 37.0001 133.4 37.2001 133.6 37.5001C133.7 37.6001 133.8 37.8001 133.9 37.9001C133.9 38.0001 134 38.0001 134 38.1001C134 38.1001 134 38.2001 134.1 38.2001C134.1 38.2001 134.1 38.2001 134.2 38.3001C134.5 38.4001 134.7 38.6001 134.9 38.8001C135.1 39.0001 135.2 39.3001 135.3 39.6001V39.7001H135.4C135.5 39.7001 135.5 39.7001 135.6 39.7001C135.7 39.7001 135.8 39.8001 136 39.8001C136.5 40.0001 136.8 40.4001 136.9 40.9001C137.1 41.4001 137.1 42.0001 136.9 42.5001C136.9 42.6001 136.8 42.7001 136.8 42.7001C136.8 42.7001 136.8 42.7001 136.8 42.8001C136.8 42.9001 136.9 42.9001 136.9 43.0001C137 43.2001 137 43.3001 137.1 43.5001C137.2 43.8001 137.2 44.1001 137.1 44.4001C137.1 44.5001 137 44.7001 137 44.8001C137 44.9001 136.9 44.9001 136.9 45.0001C136.9 45.0001 136.9 45.1001 136.8 45.1001C136.8 45.1001 136.8 45.1001 136.8 45.2001C136.8 45.3001 136.9 45.4001 136.9 45.4001C136.9 45.5001 137 45.6001 137 45.7001C137.1 45.9001 137.1 46.0001 137.1 46.2001C137.2 46.5001 137.1 46.9001 137 47.2001C136.9 47.3001 136.8 47.5001 136.7 47.5001C136.6 47.5001 136.6 47.6001 136.5 47.6001C136.5 47.6001 136.4 47.6001 136.4 47.7001V47.8001C136.4 48.1001 136.5 48.5001 136.4 48.9001C136.3 49.2001 136.1 49.5001 135.8 49.7001C135.3 50.1001 134.6 50.0001 134 49.8001C133.9 49.7001 133.7 49.6001 133.6 49.5001C133.3 49.9001 132.7 49.9001 132.2 49.8001C131.6 49.7001 131.2 49.3001 130.9 48.8001C130.5 49.2001 129.8 49.1001 129.6 48.6001C129.5 48.5001 129.5 48.4001 129.5 48.2001C129.5 48.1001 129.5 48.1001 129.5 48.0001C129.5 47.9001 129.4 47.8001 129.4 47.8001C129.3 47.6001 129.3 47.5001 129.3 47.3001C129.3 47.2001 129.3 47.1001 129.3 47.0001C129.3 46.9001 129.3 46.8001 129.3 46.8001C129.4 46.8001 129.6 46.8001 129.8 46.7001C129.9 46.7001 130.1 46.6001 130.2 46.5001C130.4 46.3001 130.6 46.0001 130.6 45.7001C130.8 45.0001 130.7 44.3001 130.1 43.9001C129.8 43.7001 128.9 43.7001 128.5 43.8001C128.1 43.9001 127.7 44.7001 127.7 44.8001C127.7 44.8001 127.7 44.9001 127.6 44.9001C127.5 45.0001 127.3 44.8001 127.3 44.8001C127.2 44.7001 127.1 44.6001 127 44.4001C126.8 44.1001 126.7 43.7001 126.6 43.4001C126.5 43.1001 126.5 42.9001 126.4 42.6001C126.3 42.3001 126.1 42.1001 125.9 42.0001C125.6 41.8001 125.3 41.8001 125.1 41.7001C124.8 41.6001 124.5 41.5001 124.3 41.3001L124.2 41.2001C124.2 41.2001 124.1 41.1001 124.1 41.0001C124 41.0001 123.9 41.1001 123.9 41.1001C123.6 41.3001 123.3 41.6001 123.1 41.9001C122.9 42.2001 122.7 42.5001 122.6 42.8001C122.5 43.0001 122.4 43.4001 122.3 43.6001C122.2 43.7001 121.6 43.7001 121.4 43.7001C121.2 43.6001 121 43.4001 120.9 43.3001C120.8 43.2001 120.8 43.0001 120.8 42.9001C120.8 42.8001 120.9 42.7001 120.9 42.7001C120.9 42.6001 120.9 42.6001 121 42.5001C121.1 42.4001 121.2 42.3001 121.3 42.3001C121.2 42.2001 121 42.0001 121 41.9001C120.9 41.7001 120.8 41.5001 120.8 41.3001C120.8 41.1001 120.8 41.0001 120.9 40.8001C121 40.7001 121.2 40.6001 121.3 40.5001C121.1 40.3001 120.9 40.1001 120.8 39.9001C119.7 39.1001 119.5 38.6001 119.7 38.1001Z" fill="#168CC6"/>
<path d="M117.6 65.0002L111.7 59.6002C108.6 58.7002 107.2 58.1002 107.4 57.7002C107.8 57.1002 108.6 57.6002 109 57.2002C109.3 56.8002 108.7 55.6001 108 54.4001C107.3 53.2001 108 53.3002 108.4 53.5002C109.7 54.4002 111 55.6002 112.4 57.2002L120.5 61.7002L117.6 65.0002ZM107.6 69.1002C106.1 68.0002 104.6 67.2001 103.3 66.9001C100.8 66.2001 99.7 65.7002 98.5 64.1002C97.8 63.3002 97.3 61.6002 97.9 61.0002C98.3 60.6002 100.8 62.5002 101.8 62.7002C102.8 62.9002 101.9 60.5002 102.4 60.7002C103.1 60.7002 103.7 61.7002 104.2 63.6002L107.8 65.6002L107.6 69.1002Z" fill="#88C6E3"/>
<path d="M124.5 60.8001C121.7 60.8001 117.9 60.2001 113.8 57.6001L112.2 61.1001C115 63.9001 118.9 66.2001 122.4 66.1001C125.1 66.0001 126.5 62.7001 124.5 60.8001Z" fill="#4FA9D5"/>
<path d="M120.7 66.4998C117.7 67.2998 112.6 66.3998 105.5 63.7998C103.7 67.4998 102.9 70.0998 103.1 71.5998C109.2 74.7998 114.4 76.1998 118.7 76.2998C118.6 78.8998 118.9 81.2998 119.9 83.4998C122 88.0998 134.6 83.7998 138.9 84.6998C141.6 76.0998 136.4 72.5998 136.4 67.0998C136.4 61.0998 131.6 51.7998 130.8 51.7998H124.3C124 56.3998 122.2 61.3998 120.7 66.4998Z" fill="#6BB8DC"/>
<path d="M111.7 36.7997C111.7 37.5997 111.6 38.4997 111.4 39.2997C111.2 39.9997 114.6 42.4997 115.2 42.6997C116.7 43.3997 109.5 43.6997 108.5 44.7997C105.4 48.1997 100.5 50.3997 94.8 50.3997C85.5 50.3997 78 44.2997 78 36.7997C78 29.2997 85.5 23.1997 94.8 23.1997C104.1 23.1997 111.7 29.2997 111.7 36.7997Z" fill="#DDF2F9"/>
<path d="M41 18C41 22.4 38.2 26.4 33.9 28.8C32.9 29.4 33.6 32.8 33.4 33.3C33.2 33.9 29.6 30.6 28.9 30.7C27.2 31.1 25.4 31.3 23.5 31.3C13.8 31.3 6 25.3 6 17.9C6 10.5 13.8 4.5 23.5 4.5C33.2 4.5 41 10.6 41 18Z" fill="#DDF2F9"/>
<path d="M50.5 13.8999C50.5 18.2999 53.6 22.2999 58.5 24.6999C59.6 25.2999 58.9 28.6999 59.1 29.1999C59.3 29.7999 63.4 26.4999 64.1 26.5999C66 26.9999 68 27.1999 70.1 27.1999C80.9 27.1999 89.6 21.1999 89.6 13.7999C89.6 6.39991 80.8 0.399902 70.1 0.399902C59.4 0.399902 50.5 6.4999 50.5 13.8999Z" fill="#DDF2F9"/>
<path d="M117.8 15.3999C117.8 19.7999 120.9 23.7999 125.8 26.1999C126.9 26.7999 126.2 30.1999 126.4 30.6999C126.6 31.2999 130.7 27.9999 131.4 28.0999C133.3 28.4999 135.3 28.6999 137.4 28.6999C148.2 28.6999 156.9 22.6999 156.9 15.2999C156.9 7.89991 148.1 1.8999 137.4 1.8999C126.7 1.8999 117.8 7.9999 117.8 15.3999Z" fill="#DDF2F9"/>
<path d="M53.1001 73.6001L61.7001 104.1L68.1001 126.6H72.7001L66.0001 73.6001H53.1001Z" fill="#4FA9D5"/>
<path d="M50.7 73.6001C50.5 89.3001 49.8 97.9001 49.6 99.3001C49.4 100.7 46.2 109.8 40 126.5H44.8C52.7 110.4 57 101.4 58 99.3001C59 97.2001 61.7 88.6001 66 73.6001H50.7Z" fill="#6BB8DC"/>
<path d="M57.5 43.5C56.4 42.2 55.6 40.6 55.8 38.8C56.2 33.7 63.3 34.8 64.7 37.4C66.1 40 65.9 46.6 64.1 47C63.4 47.2 61.9 46.7 60.3 45.8L61.3 52.7H55.5L57.5 43.5Z" fill="#88C6E3"/>
<path d="M65.2 38.5997C65.1 38.2997 65 37.8997 64.9 37.5997C64.8 37.1997 64.5 36.7997 64.3 36.4997C63.8 35.7997 63.3 35.2997 62.7 34.7997C61.6 33.8997 60.2 33.3997 58.8 33.5997C58.1 33.6997 57.4 33.8997 56.9 34.3997C56.4 34.7997 55.9 35.3997 55.2 35.3997C54.5 35.3997 53.8 34.7997 53.2 34.3997C52.5 33.9997 51.8 33.5997 51.1 33.4997C49.8 33.2997 48.6 33.6997 47.7 34.7997C46.8 35.8997 46.1 37.5997 46.7 39.0997C46.8 39.3997 47 39.5997 47.2 39.7997C47.4 39.9997 47.7 40.1997 47.8 40.4997C47.9 40.7997 47.6 41.1997 47.5 41.4997C47.4 41.8997 47.2 42.2997 47.3 42.6997C47.4 43.3997 47.8 44.0997 48.3 44.4997C48.8 44.9997 49.4 45.1997 50 45.3997C50.4 45.4997 50.8 45.4997 51.3 45.4997C51.5 45.4997 51.7 45.3997 51.9 45.3997C52.1 45.3997 52.2 45.3997 52.4 45.4997C53.2 45.9997 54 46.1997 54.9 46.0997C55.7 45.9997 56.5 45.8997 57.1 45.2997C57.8 44.6997 57.8 43.8997 57.6 43.0997C57.8 43.1997 58.2 43.1997 58 42.8997C57.9 42.7997 57.7 42.6997 57.5 42.5997C57.3 42.4997 57.2 42.3997 57 42.1997C56.5 41.5997 57 40.3997 57.7 40.1997C58.7 39.8997 58.9 41.2997 59.6 41.5997C60 41.7997 60.4 41.4997 60.7 41.1997C61.1 40.7997 61.4 40.2997 61.6 39.7997C61.8 39.3997 62 38.8997 62.2 38.4997C62.3 38.2997 62.6 37.6997 62.5 37.4997C63.2 37.3997 64 37.6997 64.6 37.9997C64.8 38.1997 65 38.2997 65.2 38.5997C65.2 38.6997 65.3 38.7997 65.4 38.7997C65.2 38.8997 65.2 38.6997 65.2 38.5997Z" fill="#6BB8DC"/>
<path d="M75.4 65.7998L84.1 61.9998C85.6 60.4998 87.1 59.2998 88.5 58.4998C88.9 58.3998 89.6 58.2998 88.9 59.4998C88.1 60.5998 87.4 61.7998 87.7 62.1998C88 62.5998 88.9 62.1998 89.3 62.7998C89.5 63.1998 88 63.6998 84.8 64.2998L78.3 69.2998L75.4 65.7998ZM40.3 66.8998L45.2 67.8998C40.3 77.0998 37.6 81.9998 37.3 82.4998C36.5 83.6998 37.2 85.9998 37.5 87.1998C35.8 87.5998 36.4 84.9998 34.2 85.4998C32.2 85.9998 30.5 87.2998 28.6 85.5998C28.4 85.3998 28.2 84.6998 29 84.3998C31 83.5998 33.9 81.9998 34.3 81.2998C35 80.3998 36.9 75.5998 40.3 66.8998Z" fill="#88C6E3"/>
<path d="M58.5 48.5001L60.6 48.1001C65.1 52.5001 67 63.0001 70 64.4001C72.8 65.7001 76.9 64.4001 81.7 62.7001L83.2 66.0001C78.8 70.7001 69.6 74.7001 65.8 72.4001C59.7 68.8001 58.3 55.8001 58.5 48.5001Z" fill="#168CC6"/>
<path d="M49.5 74.4997C57.8 74.4997 63.9 74.4997 67.8 74.4997C68.6 74.4997 68.5 73.2997 68.4 72.6997C67 65.6997 61.5 58.0997 61.5 47.9997L56.2 47.1997C51.9 54.1997 50.4 62.8997 49.5 74.4997Z" fill="#DDF2F9"/>
<path d="M47.7 67.3997C44 74.0997 40.8 78.9997 38.3 81.9997L34.5 81.1997C37 65.7997 44.1 54.4997 56 47.1997H58C62.7 63.3997 64.1 74.1997 61.9 79.5997H45.4C45.7 75.5997 46.5 71.4997 47.7 67.3997Z" fill="#329BCD"/>
<path d="M28.8 80L41.3 113.3L50.2 137.9H55.2L43.1 80H28.8Z" fill="#329BCD"/>
<path d="M25.6001 80C25.5001 91.4 25.6001 106.8 25.2001 107.5C25.0001 108 18.4001 113.4 5.40015 123.7L8.00015 128.1C23.4001 118.1 31.6001 112.5 32.4001 111.2C33.6001 109.2 39.5001 90.9 42.6001 80H25.6001Z" fill="#4FA9D5"/>
<path d="M32.4 46.7997C31.2 45.3997 30.4 43.5997 30.5 41.6997C30.9 36.0997 38.7 37.2997 40.2 40.1997C41.7 43.0997 41.5 50.1997 39.6 50.6997C38.8 50.8997 37.2 50.3997 35.5 49.3997L36.6 56.8997H30.3L32.4 46.7997Z" fill="#88C6E3"/>
<path d="M35.8 42.4001C36 45.8001 36.7 47.4001 37.7 47.4001C39.2 47.4001 40.6 46.4001 41.2 46.4001C41.7 46.4001 41.6 47.0001 41.3 47.5001C41 47.9001 39.7 48.2001 39.7 48.8001C39.7 49.4001 40.7 48.9001 40.7 49.3001C40.7 49.9001 40.9 51.0001 39.9 51.0001C38.9 51.0001 36 50.6001 35.5 49.1001C35.2 48.1001 35 46.1001 34.9 43.1001C34.8 43.1001 34.8 43.1001 34.7 43.1001C33.8 43.1001 33.1 43.8001 33.1 44.7001C33.1 45.1001 33.3 45.5001 33.6 45.8001C33.2 46.3001 32.8 46.8001 32.4 47.4001C30.6 46.3001 29.1 43.3001 30.8 40.3001C31.3 38.9001 32.6 38.1001 33.9 37.7001C34.9 37.3001 36 37.2001 36.9 37.5001C38.7 37.7001 40.2 38.2001 40.7 38.5001C40.7 40.2001 40.4 40.7001 37.6 40.6001C36.8 40.9001 36.3 41.6001 35.8 42.4001Z" fill="#168CC6"/>
<path d="M50.9002 74.1001L58.3002 81.3001C60.5002 82.2001 62.2002 83.2001 63.6002 84.3001C63.9002 84.7001 64.2002 85.4001 62.8002 85.1001C61.3002 84.8001 59.8002 84.5001 59.5002 85.0001C59.2002 85.5001 60.0002 86.2001 59.5002 86.8001C59.2002 87.2001 58.0002 85.9001 56.1002 82.9001L48.4002 78.4001L50.9002 74.1001ZM17.9002 75.1001H23.4002C20.0002 86.0001 18.2002 91.8001 17.9002 92.5001C17.3002 94.0001 18.6002 96.3001 19.1002 97.5001C17.3002 98.3001 17.5002 95.3001 15.3002 96.4001C13.2002 97.4001 11.7002 99.1001 9.30016 97.6001C9.00016 97.4001 8.70016 96.7001 9.50016 96.2001C11.4002 94.9001 14.2002 92.6001 14.6002 91.8001C15.1002 90.8001 16.2002 85.2001 17.9002 75.1001Z" fill="#88C6E3"/>
<path d="M33.5 52.1998L35.8 51.7998C39.7 61.4998 46.5 70.3998 56.2 78.2998L48.9 87.1998C39.1 75.8998 33.1 64.1998 33.5 52.1998Z" fill="#4FA9D5"/>
<path d="M23.6001 80.5998H43.8001C39.1001 69.1998 36.8001 59.5998 36.8001 51.6998L30.7001 50.7998C25.9001 58.4998 24.6001 67.8998 23.6001 80.5998Z" fill="#DDF2F9"/>
<path d="M30.6 50.7998H31C31.5 50.7998 32.2 50.7998 33.2 50.8998L34.7 55.0998C34.9 60.1998 35.8 70.4998 37.4 86.0998H24.1C24.1 87.1998 24.2 88.2998 24.3 89.2998H14.5C15.9 72.6998 21.3 59.7998 30.6 50.7998Z" fill="#6BB8DC"/>
<path d="M25.0002 72.2998C25.4002 78.9998 26.3002 83.5998 27.8002 86.0998H24.1002C24.0002 81.2998 24.2002 76.6998 25.0002 72.2998Z" fill="#4FA9D5"/>
<path d="M27.1001 78L33.6001 75V78H27.1001Z" fill="white" fill-opacity="0.2"/>
</svg>
