<svg width="20" height="16" viewBox="0 0 20 16" fill="none" xmlns="http://www.w3.org/2000/svg">
<mask id="mask0" mask-type="alpha" maskUnits="userSpaceOnUse" x="0" y="0" width="20" height="16">
<rect y="0.5" width="20" height="15" rx="2" fill="white"/>
</mask>
<g mask="url(#mask0)">
<rect y="0.5" width="20" height="15" fill="#0A17A7"/>
<path fill-rule="evenodd" clip-rule="evenodd" d="M-0.915655 -0.9375L7.61912 5.10712V-0.500081H12.381V5.10749L20.9163 -0.937461L21.9814 0.720615L15.2332 5.49992H20.0001V10.4999H15.2336L21.9816 15.2791L20.9164 16.9372L12.381 10.8921V16.4999H7.61912V10.8925L-0.915828 16.9372L-1.98096 15.2791L4.76712 10.4999H6.98566e-05V5.49992H4.76747L-1.98078 0.720575L-0.915655 -0.9375Z" fill="white"/>
<path d="M13.3345 5.24915L22.3812 -1" stroke="#DB1F35" stroke-width="0.666667" stroke-linecap="round"/>
<path d="M14.2944 10.7731L22.4043 16.5127" stroke="#DB1F35" stroke-width="0.666667" stroke-linecap="round"/>
<path d="M5.71858 5.23315L-2.74072 -0.75293" stroke="#DB1F35" stroke-width="0.666667" stroke-linecap="round"/>
<path d="M6.63608 10.7042L-2.74072 17.2334" stroke="#DB1F35" stroke-width="0.666667" stroke-linecap="round"/>
<path fill-rule="evenodd" clip-rule="evenodd" d="M0 9.5H8.57143V15.5H11.4286V9.5H20V6.5H11.4286V0.5H8.57143V6.5H0V9.5Z" fill="#E6273E"/>
</g>
</svg>
