<svg width="159" height="168" viewBox="0 0 159 168" fill="none" xmlns="http://www.w3.org/2000/svg">
<path d="M53.3486 70.101L83.7486 121.001L106.549 164.001H111.449L73.2486 70.101H53.3486Z" fill="#C6C6C6"/>
<path d="M103.549 162.101C103.049 163.301 102.849 164.201 102.849 164.801C102.849 165.501 102.949 166.601 103.249 168.001C104.149 168.001 111.849 168.001 126.349 168.001C126.949 166.001 126.649 164.901 125.349 164.801C124.049 164.701 122.949 164.501 122.149 164.401L111.449 159.601C111.249 159.501 111.049 159.601 110.949 159.801L110.249 161.501C109.049 162.101 108.049 162.301 107.349 162.301C106.749 162.301 105.949 162.101 104.849 161.601C104.249 161.401 103.749 161.601 103.549 162.101C103.549 162.001 103.549 162.001 103.549 162.101Z" fill="#232323"/>
<path d="M100.249 157.201L109.749 154.301C105.549 141.901 100.549 128.201 94.4485 113.301C88.4485 98.4009 81.9485 84.001 75.0485 70.101H48.2485C55.9485 87.601 64.1485 103.601 72.7485 117.901C81.3485 132.201 90.5485 145.401 100.249 157.201Z" fill="#3A3A3A"/>
<path d="M51.3485 70.101C48.4485 88.001 42.9485 110.801 42.4485 111.501C42.1485 112.001 29.5485 116.201 4.74854 124.101L5.84854 128.401C35.3485 124.101 50.9485 120.801 52.5485 118.501C54.9485 115.001 66.8485 87.101 71.4485 70.001H51.3485V70.101Z" fill="#C6C6C6"/>
<path d="M13.4487 120.401L15.3487 127.401C37.4487 129.301 50.9487 127.901 55.9487 123.201C60.9487 118.501 66.6487 100.801 72.9487 70.101H47.3487C43.3487 95.201 41.0487 108.301 40.5487 109.301C40.0487 110.301 31.0487 114.101 13.4487 120.401Z" fill="#5E5E5E"/>
<path d="M5.93194 122.353C4.66334 122.069 3.74228 122.028 3.1514 122.133C2.46203 122.254 1.39611 122.544 0.0694752 123.082C0.225759 123.969 1.56285 131.552 4.08075 145.831C6.15455 146.075 7.18575 145.588 7.05848 144.291C6.93122 142.993 6.93717 141.875 6.89673 141.07L9.76578 129.699C9.82953 129.485 9.69632 129.305 9.48199 129.241L7.68626 128.847C6.887 127.77 6.51639 126.82 6.39484 126.13C6.29065 125.539 6.34869 124.717 6.65008 123.547C6.64437 122.938 6.36059 122.481 5.93194 122.353Z" fill="#232323"/>
<path d="M56.3487 17.3009C54.4487 15.1009 53.1487 12.4009 53.3487 9.30092C53.9487 0.500921 66.1487 2.50092 68.5487 6.90092C70.9487 11.3009 70.6487 22.6009 67.5487 23.3009C66.3487 23.6009 63.7487 22.8009 61.0487 21.2009L62.7487 33.0009H52.9487L56.3487 17.3009Z" fill="#C6C6C6"/>
<path d="M69.5483 8.90095C69.4483 8.30095 69.2483 7.70095 69.0483 7.10095C68.8483 6.40095 68.4483 5.80095 68.0483 5.20095C67.2483 4.10095 66.3483 3.10095 65.3483 2.20095C63.4483 0.700952 61.0483 -0.199054 58.7483 0.100946C57.5483 0.200946 56.4483 0.700955 55.4483 1.50096C54.5483 2.20096 53.7483 3.20094 52.5483 3.30094C51.3483 3.40094 50.1483 2.30095 49.1483 1.60095C48.0483 0.800946 46.8483 0.300946 45.4483 0.100946C43.2483 -0.299054 41.1483 0.500943 39.6483 2.30094C38.0483 4.20094 36.8483 7.10095 37.9483 9.60095C38.1483 10.1009 38.4483 10.5009 38.7483 10.8009C39.0483 11.1009 39.5483 11.4009 39.7483 11.9009C39.8483 12.4009 39.4483 13.1009 39.2483 13.6009C39.0483 14.3009 38.8483 15.001 38.8483 15.701C38.9483 16.901 39.7483 18.0009 40.5483 18.8009C41.3483 19.6009 42.3483 20.1009 43.4483 20.3009C44.1483 20.4009 44.8483 20.501 45.6483 20.501C46.0483 20.501 46.3483 20.4009 46.6483 20.3009C46.9483 20.2009 47.1483 20.301 47.4483 20.501C48.7483 21.401 50.2483 21.7009 51.7483 21.6009C53.0483 21.5009 54.5483 21.2009 55.5483 20.3009C56.7483 19.3009 56.6483 18.001 56.4483 16.501C56.7483 16.601 57.5483 16.701 57.0483 16.201C56.8483 16.001 56.4483 15.901 56.2483 15.701C55.9483 15.501 55.6483 15.3009 55.4483 15.1009C54.5483 14.1009 55.4483 12.0009 56.5483 11.6009C58.2483 11.1009 58.5483 13.5009 59.7483 14.1009C60.4483 14.5009 61.1483 14.001 61.6483 13.501C62.3483 12.801 62.8483 12.0009 63.2483 11.1009C63.5483 10.4009 63.8483 9.60095 64.2483 8.90095C64.4483 8.60095 64.9483 7.60095 64.6483 7.20095C65.8483 7.00095 67.1483 7.50095 68.2483 8.10095C68.6483 8.40095 69.0483 8.70095 69.2483 9.10095C69.2483 9.20095 69.4483 9.50096 69.5483 9.50096C69.6483 9.40096 69.5483 9.10095 69.5483 8.90095Z" fill="#232323"/>
<path d="M85.0485 55.001L96.6485 62.801C102.249 63.501 104.849 64.201 104.549 65.001C104.049 66.101 102.449 65.501 101.949 66.201C101.449 66.901 102.849 68.901 104.349 70.801C105.749 72.601 104.549 72.701 103.849 72.501C101.349 71.301 98.7485 69.501 95.9485 67.101L80.7485 61.501L85.0485 55.001Z" fill="#5E5E5E"/>
<path d="M65.1483 27.001C72.2483 40.301 82.5483 50.401 97.4483 61.001L91.8483 67.401C75.1483 61.201 66.3483 57.501 62.0483 44.901C60.9483 41.801 60.2483 31.701 59.5483 26.401L65.1483 27.001Z" fill="#5E5E5E"/>
<path d="M45.2485 71.201H76.8485C69.7485 49.401 66.0485 34.401 65.8485 26.301C65.8485 25.901 65.0485 25.201 64.7485 25.301C62.2485 26.001 59.6485 25.701 56.8485 24.501C49.2485 36.501 46.6485 51.301 45.2485 71.201Z" fill="#F9F9F9"/>
<path d="M77.4487 71.5009L117.949 4.8009L158.349 71.5009" fill="#232323"/>
<path d="M86.3486 26.501L101.849 21.801C104.749 19.501 107.449 17.901 110.049 16.901C110.749 16.801 112.049 16.801 110.449 18.601C108.949 20.401 107.349 22.301 107.749 23.001C108.149 23.701 109.749 23.201 110.249 24.301C110.549 25.101 107.849 25.601 102.249 26.001L90.1486 33.101L86.3486 26.501Z" fill="#C6C6C6"/>
<path d="M59.4487 24.5009C68.4487 24.6009 83.1487 26.2009 100.049 20.8009L101.749 29.1009C88.9487 37.3009 76.0487 43.7009 64.6487 42.8009C69.5487 63.9009 69.3487 81.2009 58.4487 81.2009C53.2487 81.2009 47.6487 81.2009 41.6487 81.2009C38.9487 63.2009 46.0487 38.3009 52.5487 25.8009C52.7487 25.3009 53.3487 24.4009 54.5487 24.4009C55.6487 24.5009 57.2487 24.5009 59.4487 24.5009Z" fill="#939393"/>
<path d="M151.649 67.8009H84.7485L118.149 12.601L151.649 67.8009ZM91.3485 64.001H145.049L118.249 19.701L91.3485 64.001Z" fill="#F9F9F9"/>
<path d="M114.648 57.101C114.648 56.201 114.948 55.501 115.648 54.901C116.248 54.301 117.048 54.101 118.048 54.101C119.048 54.101 119.748 54.401 120.448 54.901C121.048 55.501 121.448 56.201 121.448 57.101C121.448 58.001 121.148 58.701 120.448 59.301C119.848 59.901 119.048 60.101 118.048 60.101C117.048 60.101 116.348 59.801 115.648 59.301C115.048 58.701 114.648 58.001 114.648 57.101ZM120.448 51.601H115.548L114.748 33.901H121.148L120.448 51.601Z" fill="#F9F9F9"/>
<path d="M100.048 71.6009C101.448 71.5009 102.948 69.0009 103.948 68.1009C105.848 66.6009 107.148 66.8009 108.648 68.3009C109.548 69.2009 111.348 70.8009 110.448 72.1009C109.548 73.4009 107.348 73.5009 105.948 73.4009C104.148 73.4009 101.448 72.9009 100.048 71.6009Z" fill="#C6C6C6"/>
</svg>
