<svg width="161" height="143" viewBox="0 0 161 143" fill="none" xmlns="http://www.w3.org/2000/svg">
<path d="M0 5.7666C0 5.7666 41.4 34.2666 48.1 37.1666C52.4 39.0666 56.9 38.1666 61.3 37.1666C66.5 35.9666 71.9 35.2666 77.3 35.0666C88.2 34.6666 99.1 35.8666 109.8 37.3666C115.4 38.1666 120.9 38.9666 126.5 39.8666C130.6 40.5666 138.5 40.6666 141.2 44.3666C142.6 46.2666 145 50.5666 141.2 53.4666C137.4 56.3666 111.9 58.7666 109.5 60.1666C107.1 61.5666 107.1 63.5666 110.5 64.9666C122.1 69.9666 134.8 72.8666 146.5 77.6666C150.6 79.3666 157.1 80.6666 159 85.1666C162.2 92.6666 154.2 95.3666 148.6 94.4666C142.9 93.6666 137.8 91.0666 132.4 89.2666C124.2 86.4666 115.1 85.1666 107 82.2666C106.9 82.2666 106.8 82.1666 106.7 82.1666C113.8 84.5666 120.3 88.4666 127 91.7666C132.1 94.2666 137.6 96.8666 142.9 99.2666C147.8 101.567 153.4 103.267 157.6 106.867C160.8 109.667 161 113.967 157.5 116.567C153.5 119.467 148 117.867 143.7 116.567C140.6 115.567 137.5 114.567 134.5 113.467C129.7 111.867 124.8 110.067 119.9 108.567C113.7 106.667 93 98.2666 91.6 98.2666C92.7 98.2666 96.1 101.067 97.2 101.667C101.3 103.967 105.5 106.267 109.8 108.467C116.4 111.967 122.9 115.667 129.3 119.567C132.4 121.467 142.2 126.967 138.1 131.967C132.9 138.367 120.4 132.667 114.7 130.067C103.4 124.867 92.1 119.467 81.2 113.367C88.8 119.067 95.8 125.467 103.2 131.467C105 132.867 106.7 134.467 107.4 136.667C108 138.467 107.6 140.567 106.1 141.767C104.7 142.867 102.7 142.767 101 142.267C98 141.467 95.4 139.767 92.9 138.067C81.2 130.267 69.6 121.967 58.7 113.067C51 106.867 40.9 99.9666 35.7 91.2666C31.4 84.0666 27.3 73.7666 23.9 70.8666C20.5 67.9666 0 60.2666 0 60.2666V5.7666Z" fill="#6BB8DC"/>
<path d="M107.096 1.89338e-07L27.7222 20.9848L57.4229 133.327L136.797 112.342L107.096 1.89338e-07Z" fill="#DDF2F9"/>
<path d="M81.2203 32.2362L45.2554 41.7445L45.6132 43.098L81.5782 33.5897L81.2203 32.2362Z" fill="#88C6E3"/>
<path d="M105.059 39.1313L48.5015 54.0839L48.8593 55.4374L105.417 40.4848L105.059 39.1313Z" fill="#88C6E3"/>
<path d="M99.5211 53.8822L51.8579 66.4832L52.2158 67.8368L99.879 55.2357L99.5211 53.8822Z" fill="#88C6E3"/>
<path d="M111.646 63.8184L55.0884 78.771L55.4462 80.1245L112.004 65.1719L111.646 63.8184Z" fill="#88C6E3"/>
<path d="M114.952 76.2102L58.3945 91.1628L58.7524 92.5163L115.31 77.5637L114.952 76.2102Z" fill="#88C6E3"/>
<path d="M118.162 88.6276L61.604 103.58L61.9618 104.934L118.52 89.9811L118.162 88.6276Z" fill="#88C6E3"/>
<path d="M121.468 101.02L64.9102 115.972L65.268 117.326L121.826 102.373L121.468 101.02Z" fill="#88C6E3"/>
<path d="M81.3999 124.167L30.8999 77.6666C28.8999 75.6666 28.1999 74.4666 30.1999 72.4666L62.8999 36.7666C64.8999 34.7666 68.0999 34.7666 70.0999 36.7666L119.6 85.9666C121.6 87.9666 121.6 91.1666 119.6 93.1666L88.5999 124.167C86.5999 126.167 83.2999 126.167 81.3999 124.167Z" fill="#6BB8DC"/>
<path d="M80.8999 126.367L32.8999 75.5666C30.8999 73.5666 30.1999 72.3666 32.1999 70.3666L62.3999 38.9666C64.3999 36.9666 67.5999 36.9666 69.5999 38.9666L119.1 88.1666C121.1 90.1666 121.1 93.3666 119.1 95.3666L88.0999 126.367C86.0999 128.367 82.8999 128.367 80.8999 126.367Z" fill="#DDF2F9"/>
<path d="M80.6998 130.067L30.2998 79.6666C28.2998 77.6666 28.2998 74.4666 30.2998 72.4666L61.2998 41.4666C63.2998 39.4666 66.4998 39.4666 68.4998 41.4666L118.9 91.8666C120.9 93.8666 120.9 97.0666 118.9 99.0666L87.8998 130.067C85.8998 132.067 82.6998 132.067 80.6998 130.067Z" fill="#168CC6"/>
<path d="M73.9999 66.3666C67.3999 63.4666 59.4999 65.7666 55.6999 71.8666C52.9999 76.1666 52.5999 80.7666 54.4999 85.4666C55.5999 88.2666 57.4999 90.3666 59.8999 92.0666C60.8999 92.7666 61.8999 93.3666 63.0999 93.7666C64.6999 94.2666 66.1999 94.6666 67.7999 94.5666C72.4999 94.4666 76.9999 92.3666 79.7999 88.5666C80.4999 87.6666 80.9999 86.6666 81.4999 85.5666C84.6999 78.1666 81.2999 69.5666 73.9999 66.3666ZM58.0999 70.7666L60.8999 73.5666C59.8999 74.6666 58.8999 75.7666 57.7999 76.9666C57.2999 74.8666 56.9999 72.8666 58.0999 70.7666ZM55.8999 74.1666C56.1999 75.4666 56.4999 76.6666 56.7999 77.9666C56.7999 78.1666 56.7999 78.3666 56.6999 78.4666C56.0999 79.2666 55.4999 80.1666 54.7999 81.0666C54.4999 78.5666 54.8999 76.2666 55.8999 74.1666ZM55.1999 83.3666C55.1999 83.2666 55.0999 83.0666 55.1999 82.9666C55.8999 81.8666 56.6999 80.8666 57.3999 79.8666C58.6999 81.7666 59.9999 83.5666 61.2999 85.4666L57.9999 88.7666C56.6999 87.0666 55.6999 85.3666 55.1999 83.3666ZM63.2999 92.2666C61.8999 91.7666 60.6999 91.0666 59.5999 90.1666C59.3999 90.0666 59.2999 89.8666 59.0999 89.7666L62.3999 86.4666C64.2999 87.7666 66.0999 89.0666 67.8999 90.4666C67.0999 91.0666 66.2999 91.5666 65.5999 92.2666C64.7999 92.7666 64.0999 92.5666 63.2999 92.2666ZM71.9999 92.4666C71.8999 92.4666 71.6999 92.5666 71.5999 92.5666C70.8999 92.7666 70.1999 92.9666 69.4999 93.0666C68.5999 93.1666 67.5999 93.1666 66.5999 93.0666C67.5999 92.3666 68.3999 91.6666 69.2999 91.0666C69.3999 90.9666 69.5999 90.9666 69.6999 90.9666C70.3999 91.1666 70.9999 91.3666 71.6999 91.5666C72.3999 91.7666 73.0999 91.6666 73.6999 91.8666C73.4999 91.8666 72.9999 92.1666 72.7999 92.1666C72.4999 92.2666 72.2999 92.3666 71.9999 92.4666ZM76.9999 89.5666C74.9999 90.7666 72.8999 90.4666 70.7999 89.8666C71.9999 88.7666 73.0999 87.7666 74.1999 86.7666L76.9999 89.5666ZM73.0999 85.7666C72.4999 86.3666 71.9999 86.8666 71.3999 87.4666C70.7999 88.0666 70.0999 88.5666 69.4999 89.0666C69.3999 89.1666 69.0999 89.2666 68.9999 89.1666C67.5999 88.6666 64.3999 86.4666 63.4999 85.3666L68.0999 80.7666L73.0999 85.7666ZM67.0999 79.6666L62.3999 84.3666C61.7999 83.5666 61.0999 82.8666 60.4999 82.0666C59.8999 81.0666 59.2999 80.0666 58.6999 79.0666C58.4999 78.6666 58.4999 78.4666 58.7999 78.0666C59.7999 76.9666 60.7999 75.7666 61.8999 74.5666L67.0999 79.6666ZM71.6999 66.9666C73.6999 67.4666 75.3999 68.4666 76.8999 69.8666L73.5999 73.1666C71.6999 71.8666 69.8999 70.5666 67.9999 69.1666C68.9999 68.4666 69.9999 67.7666 70.9999 66.9666C71.2999 66.8666 71.4999 66.8666 71.6999 66.9666ZM69.3999 66.4666C68.3999 67.1666 67.4999 67.8666 66.6999 68.4666C66.5999 68.5666 66.3999 68.4666 66.2999 68.4666C65.0999 68.1666 63.7999 67.8666 62.5999 67.5666C64.5999 66.6666 66.8999 66.2666 69.3999 66.4666ZM58.9999 69.9666C61.0999 68.7666 63.0999 69.0666 65.2999 69.6666C65.0999 69.8666 64.9999 69.9666 64.8999 70.0666C63.9999 70.8666 63.0999 71.6666 62.2999 72.4666C61.9999 72.7666 61.7999 72.8666 61.4999 72.4666C60.6999 71.5666 59.8999 70.7666 58.9999 69.9666ZM62.8999 73.7666C63.3999 73.2666 63.8999 72.7666 64.3999 72.2666C65.0999 71.6666 65.7999 71.0666 66.4999 70.4666C66.6999 70.3666 66.9999 70.2666 67.0999 70.3666C69.0999 71.2666 70.8999 72.5666 72.4999 74.0666V74.1666L67.8999 78.7666L62.8999 73.7666ZM68.8999 79.8666L73.5999 75.1666C74.1999 75.9666 74.8999 76.7666 75.4999 77.5666C76.1999 78.5666 76.6999 79.5666 77.2999 80.6666C77.3999 80.7666 77.3999 81.0666 77.2999 81.1666C76.1999 82.4666 75.0999 83.6666 73.9999 84.9666L68.8999 79.8666ZM77.7999 88.7666L74.9999 85.9666C75.9999 84.8666 76.9999 83.7666 78.0999 82.5666C78.6999 84.6666 78.9999 86.6666 77.7999 88.7666ZM80.0999 85.3666C79.8999 84.3666 79.7999 83.3666 79.4999 82.5666C79.0999 81.4666 79.2999 80.7666 80.0999 79.9666C80.2999 79.7666 80.4999 79.4666 80.6999 79.1666C80.8999 78.8666 81.0999 78.6666 81.2999 78.3666C81.4999 80.8666 81.0999 83.1666 80.0999 85.3666ZM80.7999 76.1666C80.7999 76.2666 80.7999 76.4666 80.7999 76.5666C80.0999 77.6666 79.2999 78.6666 78.5999 79.6666C77.6999 78.2666 76.7999 76.9666 75.7999 75.6666C75.4999 75.2666 75.0999 74.8666 74.7999 74.4666C74.5999 74.2666 74.5999 74.0666 74.7999 73.8666C75.7999 72.8666 76.7999 71.8666 77.8999 70.7666C79.2999 72.4666 80.2999 74.1666 80.7999 76.1666Z" fill="#DDF2F9"/>
</svg>
