<svg width="276" height="255" viewBox="0 0 276 255" fill="none" xmlns="http://www.w3.org/2000/svg">
<path d="M131.544 58.8997C129.536 57.1719 128.042 54.8837 127.808 52.1285C127.201 44.1431 138.455 44.2365 141.164 47.9256C143.872 51.6148 145.133 61.7483 142.471 62.8691C141.397 63.3361 138.969 62.9625 136.354 61.8884L139.436 72.2555L130.563 73.563L131.544 58.8997Z" fill="#F9C19B"/>
<path d="M142.285 49.6068C142.098 49.0931 141.818 48.5794 141.584 48.1125C141.257 47.5054 140.837 46.9917 140.417 46.5247C139.576 45.6374 138.596 44.8436 137.568 44.2365C135.654 43.1157 133.412 42.6488 131.311 43.2091C130.283 43.4893 129.303 44.0497 128.509 44.8903C127.808 45.6374 127.154 46.6181 126.127 46.8516C125.006 47.0851 123.839 46.2445 122.858 45.7775C121.737 45.2172 120.57 44.8903 119.356 44.8903C117.301 44.8436 115.527 45.8242 114.406 47.6455C113.192 49.6068 112.538 52.3153 113.845 54.4634C114.079 54.8837 114.359 55.2106 114.733 55.4441C115.06 55.6776 115.573 55.9111 115.76 56.3314C115.947 56.7983 115.667 57.4521 115.573 57.8724C115.433 58.5262 115.387 59.18 115.527 59.787C115.807 60.8611 116.601 61.7951 117.441 62.3554C118.282 62.9625 119.216 63.2427 120.196 63.2894C120.85 63.3361 121.504 63.2894 122.158 63.1493C122.485 63.0559 122.765 62.9625 123.045 62.8224C123.325 62.729 123.512 62.7757 123.792 62.8691C125.1 63.4762 126.407 63.5696 127.808 63.2427C128.976 62.9625 130.237 62.4955 131.077 61.5616C132.011 60.5342 131.778 59.3201 131.357 58.0125C131.638 58.1059 132.385 58.0592 131.871 57.6389C131.684 57.4521 131.311 57.4054 131.077 57.3587C130.797 57.2653 130.517 57.1252 130.283 56.8917C129.349 56.0979 129.863 54.0898 130.844 53.6229C132.291 52.9224 132.945 55.0238 134.113 55.3974C134.766 55.6309 135.373 55.0705 135.747 54.6035C136.261 53.903 136.588 53.0625 136.821 52.2219C137.008 51.5214 137.195 50.821 137.428 50.1205C137.522 49.7936 137.895 48.8596 137.615 48.5327C138.642 48.1592 139.95 48.4393 140.931 48.8596C141.351 49.0464 141.678 49.2799 141.958 49.6535C142.005 49.7469 142.145 49.9804 142.285 49.9804C142.425 49.9804 142.285 49.7002 142.285 49.6068Z" fill="#EA6206"/>
<path d="M143.312 53.8564C143.499 54.8838 144.806 55.5843 145.133 56.4715C145.507 57.4522 144.059 58.0593 143.359 58.4329C143.312 58.3395 143.265 58.2461 143.265 58.1527" fill="#F9C19B"/>
<path d="M140.136 53.3893C140.183 53.1558 140.417 53.0157 140.557 52.9223C140.744 52.8289 140.93 52.7355 141.164 52.6888C141.397 52.6421 141.584 52.6421 141.818 52.6888C141.911 52.7355 142.051 52.7822 142.145 52.8756C142.238 52.969 142.285 53.1091 142.285 53.2025C142.145 53.0157 141.958 53.0624 141.818 53.0624C141.631 53.0624 141.444 53.1091 141.304 53.1558C141.117 53.2025 140.93 53.2492 140.744 53.2492C140.51 53.2959 140.323 53.2959 140.136 53.3893Z" fill="#EA6206"/>
<path d="M142.518 60.0669C142.565 60.0669 142.612 60.0669 142.658 60.0669C143.079 59.9735 143.406 59.7867 143.826 59.6466C143.452 59.6466 143.125 59.6933 142.752 59.74C142.005 59.8334 141.397 59.6933 140.697 59.5532C140.744 59.8334 141.164 60.1603 141.397 60.207C142.145 60.3938 142.892 60.674 143.732 60.5806C143.359 60.4405 142.985 60.3004 142.658 60.1603C142.565 60.0669 142.565 60.0669 142.518 60.0669Z" fill="#EA6206"/>
<path d="M142.34 54.1856C142.364 53.9807 142.218 53.7949 142.013 53.7705C141.808 53.7461 141.622 53.8924 141.598 54.0973C141.573 54.3022 141.72 54.488 141.925 54.5124C142.13 54.5368 142.315 54.3905 142.34 54.1856Z" fill="#EA6206"/>
<path d="M79.206 165.033C104.265 154.844 138.004 156.889 151.741 159.186C184.471 160.917 231.975 178.107 251.336 190.691C270.698 203.275 281.256 223.567 271.887 233.732C264.675 241.557 252.893 246.122 227.61 248.314C190.837 251.502 140.699 241.014 121.331 240.076C101.962 239.138 33.3191 241.065 24.751 232.836C16.1829 224.607 20.1999 213.272 32.2321 202.347C44.2642 191.423 47.8827 177.77 79.206 165.033Z" fill="#FCF4EF"/>
<path d="M30.3696 169.457C31.4009 163.863 39.6516 159.004 44.0717 156.06C47.6077 153.704 51.4384 151.937 55.7111 151.643C56.4477 151.643 64.8458 151.054 64.4038 152.526C69.7078 135.154 81.0525 137.215 81.0525 137.215C81.0525 137.215 88.4193 110.567 103.005 110.862C117.591 111.156 111.551 145.165 111.551 145.165C125.4 148.257 128.494 169.752 128.494 169.752C128.494 169.752 128.641 172.696 127.315 173.432C125.989 174.021 112.729 179.468 103.889 178.585C94.902 177.702 92.9866 175.346 92.9866 175.346C92.9866 175.346 86.7986 178.732 83.4099 178.291C80.0212 177.849 75.4538 175.052 75.4538 175.052C75.4538 175.052 68.2345 180.352 58.5104 178.732C48.9337 176.966 43.335 172.991 43.335 172.991C42.893 172.696 40.9777 173.579 40.3883 173.727C37.7363 174.316 33.3163 174.168 31.2536 172.107C30.5169 171.371 30.2223 170.488 30.3696 169.457Z" fill="#F99E5B"/>
<path d="M102.269 123.965L92.6919 174.61" stroke="#FCF4EF" stroke-miterlimit="10"/>
<path d="M89.5979 119.254L96.3753 155.471" stroke="#FCF4EF" stroke-miterlimit="10"/>
<path d="M116.855 147.815L94.6072 164.893" stroke="#FCF4EF" stroke-miterlimit="10"/>
<path d="M73.2439 139.276L75.3066 175.199" stroke="#FCF4EF" stroke-miterlimit="10"/>
<path d="M47.4604 153.852L53.3538 177.555" stroke="#FCF4EF" stroke-miterlimit="10"/>
<path d="M129.281 162.863C129.134 153.588 132.08 140.485 140.478 152.116C140.331 147.552 143.425 135.332 149.908 136.952C152.118 137.54 154.917 143.282 155.359 144.46C154.77 135.479 163.757 121.935 174.071 127.824C182.174 132.388 180.259 146.963 180.259 154.913C180.259 151.38 183.5 149.907 186.005 152.116C187.478 153.441 188.509 161.832 188.067 163.599C187.183 169.341 181.29 170.666 175.839 168.752C174.071 177.733 157.717 171.549 154.917 166.396C153.739 169.93 148.729 170.224 146.814 167.133C146.814 170.813 138.71 171.991 135.469 170.96C132.08 169.783 131.049 166.544 129.281 162.863Z" fill="#EA6206"/>
<path d="M169.438 132.236L162.657 167.364L163.236 167.475L170.017 132.347L169.438 132.236Z" fill="#FCF4EF"/>
<path d="M174.424 141.712L166.477 148.509L166.86 148.957L174.807 142.159L174.424 141.712Z" fill="#FCF4EF"/>
<path d="M165.083 155.649L160.074 147.257L160.516 146.963L165.525 155.355L165.083 155.649Z" fill="#FCF4EF"/>
<path d="M135.987 154.164L135.433 154.365L139.964 166.817L140.518 166.616L135.987 154.164Z" fill="#FCF4EF"/>
<path d="M132.493 158.159L132.331 158.726L137.573 160.223L137.734 159.656L132.493 158.159Z" fill="#FCF4EF"/>
<path d="M79.3511 189.027C79.6458 176.808 75.6677 159.288 64.1757 174.599C64.323 168.563 60.1977 152.221 51.5049 154.282C48.4109 155.018 44.8749 162.821 44.1382 164.146C44.8749 152.221 32.7935 134.112 18.9441 142.063C8.04138 148.246 10.5461 167.68 10.5461 178.133C10.3987 173.421 6.12603 171.507 2.88468 174.452C0.96934 176.219 -0.356668 187.26 0.0853347 189.763C1.41134 197.419 9.36738 199.038 16.5868 196.683C18.9441 208.755 41.0442 200.511 44.8749 193.591C46.4956 198.302 53.1256 198.597 55.7776 194.622C55.6303 199.627 66.6804 201.247 71.1004 199.627C75.3731 198.008 76.8464 193.886 79.3511 189.027Z" fill="#EA6206"/>
<path d="M33.6776 195.063L34.4142 194.916L25.1322 148.099L24.3955 148.246L33.6776 195.063Z" fill="#F9C19B"/>
<path d="M28.6681 170.33L29.2575 169.741L18.5021 160.613L18.0601 161.202L28.6681 170.33Z" fill="#F9C19B"/>
<path d="M31.1727 179.163L37.8027 168.121L37.0661 167.827L30.436 178.868L31.1727 179.163Z" fill="#F9C19B"/>
<path d="M52.6837 189.027L54.3044 164.882L53.4204 164.735L51.947 188.88L52.6837 189.027Z" fill="#F9C19B"/>
<path d="M52.9781 181.666L59.0188 177.249L58.5768 176.513L52.5361 181.077L52.9781 181.666Z" fill="#F9C19B"/>
<path d="M53.1254 173.127L53.7147 172.832L49.7367 164.735L49 165.029L53.1254 173.127Z" fill="#F9C19B"/>
<path d="M64.9122 194.18L71.1002 177.543L70.3636 177.249L64.1755 193.885L64.9122 194.18Z" fill="#F9C19B"/>
<path d="M68.0063 185.347L75.0784 183.285L74.931 182.549L67.7117 184.61L68.0063 185.347Z" fill="#F9C19B"/>
<path d="M124.772 113.21L139.623 164.485L146.627 202.964H153.632L146.627 113.21H124.772Z" fill="#F99E5B"/>
<path d="M118.095 113.21C119.122 139.828 118.702 154.351 118.468 156.78C118.235 159.208 116.927 175.412 107.915 203.758H115.199C127.154 176.533 131.31 160.375 132.665 156.78C134.019 153.184 138.082 138.707 143.966 113.21H118.095Z" fill="#F99E5B"/>
<path d="M124.446 113.21C128.322 130.862 135 158.974 144.526 197.641H154.8C155.547 157.947 152.325 131.843 146.768 113.21H124.446Z" fill="#F99E5B"/>
<path d="M118.001 113.21C119.029 139.828 116.367 166.072 108.241 198.061H119.216C131.124 171.256 139.669 145.152 145.507 113.21H118.001Z" fill="#F9C19B"/>
<path d="M106.887 209.035L107.307 202.544C109.689 203.244 112.631 202.964 116.18 201.75C120.009 204.459 124.819 206.28 130.61 207.307C131.03 207.401 131.357 207.821 131.264 208.241C131.264 208.288 131.264 208.288 131.264 208.334L130.703 210.296H116.18H107.728L106.887 209.035Z" fill="#EA6206"/>
<path d="M145.04 209.035L145.46 202.544C147.842 203.244 150.784 202.964 154.333 201.75C158.162 204.459 162.972 206.28 168.763 207.307C169.183 207.401 169.51 207.821 169.416 208.241C169.416 208.288 169.416 208.288 169.416 208.334L168.856 210.296H154.333H145.88L145.04 209.035Z" fill="#EA6206"/>
<path d="M129.816 81.1282C142.892 80.2877 154.66 75.8513 168.389 67.9126L171.378 74.6839C160.45 85.6113 150.644 93.7368 139.156 92.616C136.307 92.2891 131.778 86.732 127.388 85.3311L129.816 81.1282Z" fill="#EA6206"/>
<path fill-rule="evenodd" clip-rule="evenodd" d="M208.795 208.785V198.602C206.994 186.203 203.632 166.651 198.685 152.194C192.402 133.83 173.178 102.32 165.893 90.6872C159.207 81.3008 155.275 69.8175 155.275 57.4158C155.275 25.7059 180.981 0 212.691 0C244.401 0 270.107 25.7059 270.107 57.4158C270.107 69.8298 266.167 81.3237 259.47 90.7153C251.951 102.615 232.676 133.964 226.438 152.194C221.492 166.651 218.13 186.203 216.329 198.602V208.785H208.795Z" fill="#F99E5B"/>
<path fill-rule="evenodd" clip-rule="evenodd" d="M212.692 83.5089C224.223 83.5089 233.57 74.1613 233.57 62.6304C233.57 51.0996 224.223 41.752 212.692 41.752C201.161 41.752 191.813 51.0996 191.813 62.6304C191.813 74.1613 201.161 83.5089 212.692 83.5089Z" fill="#FCF4EF"/>
<path d="M159.469 64.2702L167.595 55.024C172.171 53.2961 174.273 52.1287 173.806 51.5216C173.105 50.6343 171.938 51.5216 171.378 51.0079C170.817 50.4942 171.611 48.4395 172.405 46.5249C173.199 44.6102 172.171 44.8437 171.611 45.1706C169.743 46.7117 167.922 48.8598 166.101 51.5683L154.426 59.6004L159.469 64.2702Z" fill="#F9C19B"/>
<path d="M119.869 113.817H147.281C141.07 94.8575 137.895 81.8753 137.755 74.8239C137.755 74.4503 137.101 73.8432 136.774 73.8899C134.626 74.497 132.338 74.2635 129.863 73.1895C123.418 83.6966 121.177 96.5853 119.869 113.817Z" fill="#FCF4EF"/>
<path d="M132.945 67.6324C134.906 66.8853 137.008 66.6051 139.016 66.0914C142.145 65.3442 145.133 63.2895 147.888 61.655C149.383 60.7211 162.365 51.8017 162.832 52.2687L169.51 58.6197C160.123 69.2202 149.429 77.4858 138.502 87.4792C138.736 106.112 140.884 122.596 131.451 122.596C126.921 122.596 122.064 122.596 116.834 122.596C114.733 108.4 118.468 92.7094 123.886 79.5872C124.493 78.1863 125.1 76.7386 125.707 75.3377C126.827 72.8626 128.275 70.4343 130.563 68.8466C131.311 68.3329 132.104 67.9593 132.945 67.6324Z" fill="#EA6206"/>
</svg>
