<svg width="225" height="334" viewBox="0 0 225 334" fill="none" xmlns="http://www.w3.org/2000/svg">
<path d="M82.8 249.1L62.2 321.4L47.2 374.7H36.2L52.2 249.1H82.8Z" fill="#6D0503"/>
<path d="M88.3 249.1C88.8 286.4 90.4 306.7 90.9 310.1C91.4 313.5 99 335 113.6 374.7H102.2C83.6 336.6 73.2 315.1 71 310.1C68.8 305.1 62.1 284.8 52.1 249.1H88.3Z" fill="#AA1707"/>
<path d="M75.5001 181.3C78.1001 178.2 79.9 174.5 79.6 170.2C78.7 158 61.8001 160.7 58.5001 166.9C55.2001 173 55.6001 188.6 59.9001 189.7C61.6001 190.1 65.2001 189.1 68.9001 186.8L66.6 203.1H80.2L75.5001 181.3Z" fill="#F99F5D"/>
<path d="M64.6 167.8C66.5 168.8 67.8001 170.8 69.4001 173.3C69.8001 173.1 70.2 173.1 70.6 173.1C72.5 173.1 74 174.6 74 176.5C74 177.5 73.6 178.3 73 178.9C73.8 180 74.7 181.2 75.7 182.4C79.5 180.1 83.6 173.2 80 166.8C76.9 154 58 162.2 54.6 160.1C53.8 164.7 56.2 168.5 64.6 167.8Z" fill="#FCF4F0"/>
<path d="M52.4 256.5L38 269.6C35.2 276.9 33.4 280.2 32.5 279.5C31.1 278.4 32.4999 276.5 31.6999 275.6C30.8999 274.7 27.7 276 24.8 277.3C21.9 278.6 22.1999 277 22.6999 276C25.0999 273 28.4 270.1 32.6 267.2L45.1 248.5L52.4 256.5ZM30.4 206.6L12.6999 196.2C10.2999 196.1 7.79998 195.9 5.49998 195.3C4.19998 195 2.79998 194.7 2.49998 193.2C2.29998 192.4 1.7 191.6 2.4 190.9C2.7 190.5 3.4 190.3 3.4 189.8C3.5 189.1 3.59996 189.1 4.09996 188.6C4.19996 188.5 4.89993 188.1 4.69993 187.9C3.99993 187 1.90003 185.8 1.30003 185.2C-0.999971 182.6 0.300004 182.7 1.4 182.9C5.2 184.4 9.2 186.8 13.4 190.1L36.1 196.9L30.4 206.6Z" fill="#F99F5D"/>
<path d="M56.7 204.3C53.9 225 45.4 243.2 31.1 264.1L41.5 269.7C60.2 253.6 69.8 244.5 69.3 226.1C69.2001 221.5 65.3 208.1 63.6 200.9L56.7 204.3Z" fill="#5435D6"/>
<path d="M91.7 257.8H48C57.9 227.6 63 206.8 63.2 195.6C63.2 195 64.3 194 64.7 194.1C68.1 195.1 71.8 194.7 75.7 193C86 209.7 89.6 230.2 91.7 257.8Z" fill="#F2F2F2"/>
<path d="M71.9 193.1C59.4 193.2 39 195.5 15.6 188L13.3 199.6C31 211 49 219.8 64.7 218.6C57.9 247.9 58.2001 271.9 73.3 271.9C80.5 271.9 88.3 271.9 96.6 271.9C100.3 247 90.6 212.5 81.5 195.1C81.2 194.4 80.3999 193.2 78.7 193.2C77.2 193 75 193 71.9 193.1C72 193 71.9 193 71.9 193.1Z" fill="#5435D6"/>
<path d="M57.1 173.6C56.6 175.7 55.2 176.9 54.4 178.7C53 181.8 55.1 181.8 57.4 182.8" fill="#F99F5D"/>
<path d="M58.6 173.1C59.4 172.8 60.2 172.7 61.1 172.8C61.5 172.9 62 173.1 62.3 173.4C62.6 173.7 62.8 174.1 62.9 174.6C62.3 174 61.7 173.7 61 173.6C60.2 173.4 59.4 173.4 58.6 173.1Z" fill="#AA1707"/>
<path d="M57.1 184.6C57.8 184.5 58.4 184.3 59 184.1C59.6 183.8 60.2 183.5 60.9 183.3C61.1 183.2 61.3 183.4 61.4 183.5C61.4 183.6 61.4 183.7 61.4 183.8C61 184.6 60.3 185.2 59.7 185.7C59 186.2 58.3 186.6 57.7 187.1C58.1 186.4 58.8 185.8 59.3 185.2C59.9 184.6 60.4 184.1 60.8 183.4L61.2 183.9C60.6 184.1 59.9 184.3 59.2 184.5C58.5 184.8 57.7 184.8 57.1 184.6Z" fill="#AA1707"/>
<path d="M59.9 175.9C60.2314 175.9 60.5 175.631 60.5 175.3C60.5 174.969 60.2314 174.7 59.9 174.7C59.5687 174.7 59.3 174.969 59.3 175.3C59.3 175.631 59.5687 175.9 59.9 175.9Z" fill="#AA1707"/>
<path d="M187.5 283.3L168.7 347.9L159.9 396.5H151L159.9 283.3H187.5Z" fill="#490202"/>
<path d="M195.9 283.3C194.6 316.9 195.1 335.2 195.4 338.3C195.7 341.4 197.4 361.8 208.7 397.6H199.5C184.5 363.3 179.2 342.8 177.5 338.3C175.8 333.8 170.7 315.5 163.3 283.3H195.9Z" fill="#490202"/>
<path d="M187.9 283.3C183 305.6 174.6 341.1 162.6 389.9H149.6C148.6 339.8 152.7 306.9 159.8 283.3H187.9Z" fill="#890D04"/>
<path d="M196 283.3C194.7 316.9 198 350 208.3 390.4H194.5C179.5 356.6 168.7 323.7 161.3 283.3H196Z" fill="#AA1707"/>
<path d="M175.5 203.7C177.9 200.9 179.5 197.5 179.2 193.7C178.4 182.7 163.2 185.1 160.2 190.7C157.2 196.2 157.6 210.3 161.4 211.3C162.9 211.7 166.2 210.7 169.5 208.7L167.4 223.4H179.7L175.5 203.7Z" fill="#F97821"/>
<path d="M154.7 183.1C155 182.2 155.6 181.4 156.6 181.2C156.8 181.1 157.1 181.1 157.3 181.1C157.4 181.1 157.4 181.1 157.4 181.1C157.4 181.1 157.4 181 157.4 180.9C157.4 180.7 157.5 180.6 157.5 180.4C157.7 179.9 158 179.4 158.4 179C159.1 178.3 160.1 177.8 161.1 177.7C161.7 177.7 162.2 177.7 162.8 177.9C163.1 178 163.3 178.1 163.6 178.2C163.7 178.2 163.9 178.4 164 178.4C164.1 178.4 164.3 178.2 164.3 178.1C165.2 177.4 166.2 177.2 167.3 177.2C168.5 177.2 169.7 177.3 170.7 178C170.9 178.2 171.1 178.3 171.3 178.5C171.4 178.6 171.5 178.7 171.6 178.8C171.7 178.9 171.7 178.9 171.8 179C171.9 179.1 171.9 179.1 172 179.1C172.5 178.8 173.1 178.7 173.6 178.7C173.9 178.7 174.3 178.8 174.6 179C174.7 179 175 179.2 175.1 179.2C175.2 179.2 175.5 179 175.6 179C176.2 178.8 176.9 178.7 177.6 178.8C178.3 178.9 179 179.2 179.5 179.6C179.8 179.8 180 180 180.2 180.3C180.3 180.4 180.4 180.5 180.5 180.6C180.6 180.7 180.7 180.7 180.7 180.8C180.7 180.8 181.4 180.5 181.5 180.4C181.9 180.3 182.3 180.3 182.7 180.4C183.4 180.6 184 181.2 184.5 181.7C184.8 182 185 182.3 185.2 182.6C185.3 182.8 185.4 182.9 185.5 183.1C185.5 183.2 185.6 183.3 185.6 183.3C185.7 183.4 185.7 183.4 185.8 183.4C186.4 183.6 186.9 183.9 187.3 184.4C187.7 184.9 188 185.4 188.1 186.1V186.3C188.1 186.3 188.2 186.3 188.3 186.3C188.5 186.3 188.6 186.3 188.8 186.4C189.1 186.5 189.3 186.6 189.6 186.7C190.6 187.2 191.3 188.1 191.6 189.1C192 190.2 192 191.4 191.5 192.5C191.4 192.7 191.3 192.8 191.2 193C191.1 193.1 191.1 193.1 191.2 193.2C191.2 193.3 191.3 193.4 191.4 193.5C191.6 193.9 191.7 194.2 191.8 194.6C191.9 195.2 192 195.9 191.9 196.6C191.8 196.9 191.7 197.2 191.6 197.5C191.5 197.6 191.4 197.8 191.3 197.9C191.2 198 191.2 198 191.1 198.1L191 198.2C190.9 198.3 190.9 198.2 191 198.3C191 198.5 191.2 198.7 191.2 198.8C191.3 199 191.3 199.2 191.4 199.4C191.5 199.8 191.6 200.2 191.7 200.6C191.8 201.3 191.8 202.1 191.4 202.8C191.2 203.1 191 203.4 190.8 203.6C190.7 203.7 190.5 203.8 190.4 203.9C190.3 203.9 190.2 204 190.2 204C190.2 204.1 190.2 204.2 190.2 204.3C190.3 205.1 190.4 205.9 190.1 206.6C189.9 207.3 189.4 207.9 188.8 208.3C187.6 209.1 186.1 209 184.9 208.4C184.6 208.2 184.3 208 184 207.8C183.3 208.7 181.9 208.7 181 208.4C179.8 208.1 178.8 207.2 178.2 206.1C177.4 207 175.8 206.7 175.3 205.7C175.2 205.4 175.1 205.2 175.1 204.9C175.1 204.8 175.1 204.6 175.1 204.5C175.1 204.3 175 204.1 174.9 204C174.8 203.7 174.7 203.3 174.7 202.9C174.7 202.7 174.7 202.5 174.7 202.3C174.7 202.1 174.7 202 174.6 201.8C174.9 201.9 175.3 201.8 175.6 201.7C175.9 201.6 176.2 201.4 176.4 201.2C176.9 200.7 177.2 200 177.4 199.4C177.8 198 177.7 196.2 176.2 195.5C175.5 195.1 173.5 195.1 172.7 195.3C171.9 195.5 170.9 197.3 170.9 197.5C170.9 197.6 170.9 197.7 170.8 197.8C170.6 198 170.2 197.7 170.1 197.5C169.8 197.3 169.6 197 169.5 196.6C169.1 195.9 168.8 195.2 168.6 194.4C168.4 193.8 168.3 193.2 168.1 192.7C167.9 192.1 167.6 191.6 167 191.3C166.4 191 165.8 190.8 165.2 190.6C164.6 190.4 164 190.1 163.5 189.7C163.4 189.6 163.3 189.5 163.2 189.4C163.1 189.3 163.1 189.1 163 189.1C162.8 189 162.6 189.2 162.5 189.3C161.8 189.7 161.3 190.3 160.8 191C160.3 191.7 160 192.3 159.7 193C159.5 193.5 159.3 194.2 158.9 194.7C158.7 194.9 157.4 195 157 194.8C156.6 194.6 156.1 194.2 156 193.9C155.9 193.6 155.8 193.3 155.9 193C155.9 192.8 156 192.6 156.1 192.5C156.1 192.3 156.2 192.2 156.2 192.1C156.3 191.8 156.6 191.6 156.9 191.6C156.6 191.3 156.3 191 156.2 190.6C156 190.2 155.9 189.7 155.8 189.3C155.8 189 155.8 188.6 156 188.3C156.2 188 156.5 187.8 156.9 187.6C156.4 187.2 156 186.8 155.7 186.3C154.8 185.4 154.4 184.2 154.7 183.1Z" fill="#490202"/>
<path d="M159.5 230L141.7 220.3C138.7 216.8 135.8 214.1 133 212.1C132.1 211.7 130.6 211.5 132 214.1C133.4 216.7 134.8 219.4 134.1 220.2C133.4 221 131.5 219.9 130.7 221.2C130.1 222.1 133.2 223.4 140 225.3L153 237L159.5 230Z" fill="#F97821"/>
<path d="M169.2 228.6C163 228.5 154.7 227.2 145.8 221.6L142.3 229.4C148.4 235.5 157 240.5 164.5 240.2C170.5 240 173.5 232.8 169.2 228.6Z" fill="#E83D0F"/>
<path d="M101.1 202.5C109.1 200.7 117 198.4 125 196.3C126 196 129.9 194.4 130.6 194.8C130.6 194.8 131.3 199 131.4 200.2C131.8 204.2 132.4 208.2 133 212.1C133.4 214.9 133.8 217.2 134 218.5C134.1 218.8 134.1 219 134.1 219.2C134.1 219.6 134.1 219.9 133.9 220.1C133.2 220.9 131.3 219.8 130.5 221.1C130 221.8 131.9 222.8 136 224.1C138.2 229.3 145.8 240.3 146.5 241.2C140.4 243.9 134.3 246.6 128.2 249.2C126.7 249.9 117.7 254.2 116.1 253.7C114.5 253.3 112.1 248.3 110.8 245.6C107.7 239.1 105.3 232.2 103.6 225.2C103.3 223.3 99.5 202.9 101.1 202.5Z" fill="#FCF4F0"/>
<path d="M127.6 252.4C124.2 250 121.1 248.3 118.2 247.5C112.7 246 110.4 244.8 107.7 241.3C106.2 239.5 105 235.7 106.4 234.5C107.3 233.7 112.8 237.7 115 238.2C117.2 238.7 115.2 233.4 116.4 233.9C117.9 233.9 119.2 236 120.3 240.2L128.1 244.5L127.6 252.4Z" fill="#F97821"/>
<path d="M157.4 246.6C150.8 248.2 139.7 246.3 124.1 240.8C120.2 248.8 118.5 254.5 118.7 257.9C132.1 264.9 143.5 268 152.9 268.2C152.6 273.8 153.3 279.1 155.6 284C160.3 294 187.8 284.7 197.1 286.6C202.9 267.8 191.7 260.1 191.7 248.1C191.7 234.9 181.1 214.6 179.5 214.6H165.3C164.6 224.6 160.7 235.7 157.4 246.6Z" fill="#EA6206"/>
<path d="M158.3 198.8C158.6 200.4 156.4 201.4 156.2 202.8C155.9 204.6 158.1 205 159.2 205.3" fill="#F97821"/>
<path d="M159.1 207.8C159.7 207.5 160.1 207.4 160.6 207.1C161.1 206.9 161.6 206.6 162.2 206.5C161.9 207.1 161.5 207.5 160.9 207.8C160.3 208 159.6 208.1 159.1 207.8Z" fill="#490202"/>
<path d="M159.9 197.4C159.9 197 160 196.5 160.5 196.3C160.9 196.1 161.4 196.1 161.8 196.2C162.6 196.5 163.3 197 163.7 197.7C162.9 197.5 162.2 197.2 161.6 197C161.3 196.9 161 196.8 160.7 196.9C160.5 196.8 160.2 197.1 159.9 197.4Z" fill="#490202"/>
<path d="M161.3 198.9C161.576 198.9 161.8 198.676 161.8 198.4C161.8 198.124 161.576 197.9 161.3 197.9C161.024 197.9 160.8 198.124 160.8 198.4C160.8 198.676 161.024 198.9 161.3 198.9Z" fill="#490202"/>
<path d="M208.1 72.5999H85.2V74.5999H208.1V72.5999Z" fill="#EA6206"/>
<path d="M207.5 108.3H84.6V110.3H207.5V108.3Z" fill="#EA6206"/>
<path d="M124.2 59.5999H90.4V123.3H124.2V59.5999Z" fill="#F9D1B7"/>
<path d="M123.2 60.4998V122.3H91.3V60.4998H123.2ZM125.1 58.6998H123.2H91.3H89.4V60.5998V122.4V124.3H91.3H123.2H125.1V122.4V60.5998V58.6998Z" fill="#EA6206"/>
<path d="M163.4 59.5999H129.6V123.3H163.4V59.5999Z" fill="#F9D1B7"/>
<path d="M162.5 60.4998V122.3H130.6V60.4998H162.5ZM164.3 58.6998H162.4H130.5H128.6V60.5998V122.4V124.3H130.5H162.4H164.3V122.4V60.5998V58.6998Z" fill="#EA6206"/>
<path d="M202.7 59.5999H168.9V123.3H202.7V59.5999Z" fill="#F9D1B7"/>
<path d="M201.7 60.4998V122.3H169.8V60.4998H201.7ZM203.6 58.6998H201.7H169.8H167.9V60.5998V122.4V124.3H169.8H201.7H203.6V122.4V60.5998V58.6998Z" fill="#EA6206"/>
<path d="M86.3 45.1998H82.9V142.8H86.3V45.1998Z" fill="#EA6206"/>
<path d="M210.1 45.1998H206.7V142.8H210.1V45.1998Z" fill="#EA6206"/>
<path d="M214.4 33.0999H146.6H78.8C78.8 33.0999 70.2 35.8998 67.5 45.1998H146.6H225.7C223.1 35.8998 214.4 33.0999 214.4 33.0999Z" fill="#EA6206"/>
<path d="M212.7 34.3999H146.5H145.5H79.3C79.3 34.3999 75.3 35.2999 73.2 38.3999H145.3H146.5H218.6C216.6 35.2999 212.7 34.3999 212.7 34.3999Z" fill="white"/>
<path d="M116.1 146.9H114.4L115.8 131.1H117.5L116.1 146.9Z" fill="#890D04"/>
<path d="M176 146.9H177.6L176.2 131.1H174.6L176 146.9Z" fill="#890D04"/>
<path d="M111.4 150.8H109.5L111.2 130.1H113.1L111.4 150.8Z" fill="#AA1707"/>
<path d="M180.6 150.8H182.5L180.9 130.1H179L180.6 150.8Z" fill="#AA1707"/>
<path d="M119 108H117.1V131.1H119V108Z" fill="#AA1707"/>
<path d="M174.9 108H173V131.1H174.9V108Z" fill="#AA1707"/>
<path d="M186.1 108H106V114.2H186.1V108Z" fill="#E83D0F"/>
<path d="M186.1 118.7H106V124.9H186.1V118.7Z" fill="#E83D0F"/>
<path d="M189.6 129.2H102.4V131H189.6V129.2Z" fill="#E83D0F"/>
<path d="M60.9 79.1999C57.8 61.8999 51 50.7999 51 50.7999C51 50.7999 64.3 34.7999 32.8 0.899902C1.40003 34.7999 14.6 50.7999 14.6 50.7999C14.6 50.7999 7.79993 61.8999 4.69993 79.1999C1.59993 96.4999 18 103.6 32.8 103.6C47.6 103.6 64 96.4999 60.9 79.1999Z" fill="#EA6206"/>
<path d="M33.9 26.2H31.9V142.3H33.9V26.2Z" fill="#AA1707"/>
<path d="M92.5 123.4C90.9 122.4 88.2 123.7 88.2 125.1C88.2 129.2 92 148.8 92.2 150C92.4 151.2 94.5 151.6 94.6 150C94.8 147.5 95.2 139 94.8 135C94.6 133.4 94.5 131.8 94.3 130.4C96.3 134 99.3 139.1 103.5 145.8L105.8 144.8C104 139 102.6 134.9 101.4 132.5C99.5 128.4 97.6 124.9 96.9 123.6C95.7 121.5 93.6 122.2 92.5 123.4Z" fill="#6D0503"/>
<path d="M105.6 141.5L97.9001 123.2C96.0001 120.2 90.9 123.8 91.5 125.5C92.9 129.4 100.2 142.1 100.7 143.3L105.6 141.5Z" fill="#F9C19B"/>
<path d="M106.115 143.53C106.584 143.916 106.881 144.203 107.04 144.526C107.2 144.849 107.397 145.309 107.63 145.905C107.256 146.152 104.148 147.936 98.0664 151.469C97.3004 150.796 97.2406 150.3 97.7138 149.88C98.187 149.46 98.6102 149.127 98.9334 148.968L102.253 144.418C102.303 144.331 102.44 144.295 102.526 144.345L103.256 144.881C103.889 144.785 104.385 144.725 104.622 144.515C104.858 144.305 105.145 144.009 105.482 143.626C105.582 143.453 105.855 143.38 106.115 143.53C106.028 143.48 106.115 143.53 106.115 143.53Z" fill="#E83D0F"/>
<path d="M95.1 149C95.3 149.6 95.4 150 95.4 150.3C95.4 150.7 95.3 151.2 95.2 151.8C94.8 151.8 91.1 151.8 84.2 151.8C83.9 150.9 84.1 150.3 84.7 150.3C85.3 150.3 85.8 150.2 86.2 150.1L91.3001 147.8C91.4001 147.8 91.5 147.8 91.6 147.9L91.9 148.7C92.5 149 92.9001 149.1 93.3001 149.1C93.6001 149.1 94 149 94.5 148.7C94.8 148.6 95 148.7 95.1 149C95.1 148.9 95.1 148.9 95.1 149Z" fill="#E83D0F"/>
<path d="M87.7 126.5C87.7 131.7 90.2 143.8 90.2 145H95.5C94.7 134.2 94.4 128.7 94.7 128.6C95 128.4 108.6 130 112.7 130C118.6 130 121 126.3 121.2 119.5H109.6C107.2 119.8 94.9 122.2 90.3 123.1C88.2 123.3 87.7 125 87.7 126.5Z" fill="#F9D1B7"/>
<path d="M115.6 90.9999C116.5 89.8999 117.1 88.5999 117 87.1999C116.7 82.9999 110.9 83.8999 109.7 85.9999C108.5 88.0999 108.7 93.4999 110.2 93.8999C110.8 94.0999 112 93.6999 113.3 92.8999L112.5 98.4999H117.2L115.6 90.9999Z" fill="#6D0503"/>
<path d="M102.1 116.6L96.3001 120C94.9001 122.3 94.0001 123.3 93.8001 123C93.4001 122.5 94.0001 122 93.8001 121.6C93.6001 121.2 92.4001 121.4 91.3001 121.7C90.2001 121.9 90.5 121.4 90.7 121.1C91.7 120.3 93.1 119.5 94.7 118.8L100.2 113.4L102.1 116.6ZM130.8 124.6C131.1 125.2 133.2 126.9 134.6 127.9C135.2 128.3 134.9 128.8 134.7 128.9C132.9 130 131.8 128.7 130.2 128C128.5 127.2 128.7 129.4 127.3 128.8C127.7 127.9 128.7 126.2 128.2 125.1C128 124.6 126.3 119.1 123 108.5H127.3C129.3 118.5 130.4 123.9 130.8 124.6Z" fill="#6D0503"/>
<path d="M114.3 96.3L112.6 96C109.9 105.4 96.2001 111.8 95.4001 115.4C95.1001 116.7 96 117.3 95.5 117.7L97.7 119.3C98.1 118.9 98.9 119.7 100.5 119.1C102.2 118.6 114.3 107.5 114.3 96.3Z" fill="#890D04"/>
<path d="M111.5 97.6C111.7 110.1 104.5 113.3 106.1 118.3C107.4 122.4 120.1 126.9 122.3 122.8C123.2 121.2 123.6 119.2 123.6 117C124.2 118.7 124.6 120.1 124.9 121.3C125.5 123.4 127.6 123.7 127.6 124.5L130.5 123.7C130.3 122.6 131.7 122.1 131.3 119.7C129.7 108.9 125.3 101.1 118.2 96.2L118.1 95.1C118.1 94.7 117.7 94.2999 117.3 94.3999L112 94.7999C111.6 94.7999 111.2 95.2 111.3 95.6L111.5 97.6Z" fill="#AA1707"/>
</svg>
