<svg width="103" height="105" viewBox="0 0 103 105" fill="none" xmlns="http://www.w3.org/2000/svg">
<path d="M42 56.0998C42.9 54.4998 45.1 53.0998 47 54.9998C48.2 56.1998 51.2 59.5998 54.5 63.6998C56.4 66.0998 59.2 70.2998 62.8 76.3998L60.5 78.1998C54 71.7998 49.1 66.8998 45.9 63.3998" fill="#FF8F43"/>
<path d="M56.6001 76.2998C55.8001 75.0998 44.1001 62.7998 41.4001 58.7998C40.2001 56.9998 45.1001 51.5998 48.0001 54.3998L61.7001 72.8998L56.6001 76.2998Z" fill="#890D04"/>
<path d="M63.0288 75.8891C62.9056 75.7025 62.5458 75.7257 62.4458 75.8989C61.9726 76.3185 61.636 76.7015 61.2762 76.7247C60.8663 76.8345 60.3699 76.8943 59.5637 76.8908L58.8477 76.1309C58.7611 76.0809 58.6745 76.0309 58.4879 76.1541L53.9523 80.8101C53.5791 81.0565 52.9826 81.2895 52.4228 81.6591C51.7764 81.9788 51.8728 82.6118 52.4888 83.5448C59.969 80.5888 63.9572 79.0809 64.417 78.8845C64.284 78.1149 64.1376 77.5685 63.9412 77.1087C63.868 76.8355 63.6216 76.4623 63.0288 75.8891C63.1154 75.9391 63.1154 75.9391 63.0288 75.8891Z" fill="#F9D1B7"/>
<path d="M29.7001 74.6998C28.9001 73.8998 28.1001 73.2998 27.2001 72.6998L19.8 83.0998L20.5001 83.7998L21.2001 84.4998L31.6 77.0998C31.1 76.2998 30.5001 75.4998 29.7001 74.6998Z" fill="#F9D1B7"/>
<path d="M19.7001 65.2998C9.00007 65.2998 0.300049 73.9998 0.300049 84.6998C0.300049 95.3998 9.00007 104.1 19.7001 104.1C30.4001 104.1 39.1 95.3998 39.1 84.6998C39.1 73.9998 30.4001 65.2998 19.7001 65.2998ZM19.7001 100.5C11.0001 100.5 3.90009 93.3998 3.90009 84.6998C3.90009 75.9998 11.0001 68.8998 19.7001 68.8998C28.4001 68.8998 35.5001 75.9998 35.5001 84.6998C35.5001 93.3998 28.4001 100.5 19.7001 100.5Z" fill="#EA6206"/>
<path d="M9.60004 94.6998C10.4 95.4998 11.2 96.0998 12.1 96.6998L19.5001 86.2998L18.8 85.5998L18.1 84.8998L7.70007 92.2998C8.20007 93.0998 8.90004 93.8998 9.60004 94.6998Z" fill="#F9D1B7"/>
<path d="M19.7001 82.3998C18.4001 82.3998 17.3 83.4998 17.3 84.7998C17.3 86.0998 18.4001 87.1998 19.7001 87.1998C21.0001 87.1998 22.1 86.0998 22.1 84.7998C22.1 83.3998 21.0001 82.3998 19.7001 82.3998Z" fill="#FF8F43"/>
<path d="M19.7001 83.9998C19.3001 83.9998 18.9001 84.2997 18.9001 84.7997C18.9001 85.2997 19.2001 85.5998 19.7001 85.5998C20.2001 85.5998 20.5001 85.2997 20.5001 84.7997C20.5001 84.2997 20.1001 83.9998 19.7001 83.9998Z" fill="#490202"/>
<path d="M92.9 74.6998C92.1 73.8998 91.3 73.2998 90.4 72.6998L83 83.0998L83.7 83.7998L84.4 84.4998L94.8 77.0998C94.3 76.2998 93.6 75.4998 92.9 74.6998Z" fill="#F9D1B7"/>
<path d="M82.9 65.2998C72.2 65.2998 63.5 73.9998 63.5 84.6998C63.5 95.3998 72.2 104.1 82.9 104.1C93.6 104.1 102.3 95.3998 102.3 84.6998C102.3 73.9998 93.6 65.2998 82.9 65.2998ZM82.9 100.5C74.2 100.5 67.1 93.3998 67.1 84.6998C67.1 75.9998 74.2 68.8998 82.9 68.8998C91.6 68.8998 98.7 75.9998 98.7 84.6998C98.7 93.3998 91.6 100.5 82.9 100.5Z" fill="#EA6206"/>
<path d="M72.8 94.6998C73.6 95.4998 74.4 96.0998 75.3 96.6998L82.7 86.2998L82 85.5998L81.3 84.8998L70.9 92.2998C71.4 93.0998 72.1 93.8998 72.8 94.6998Z" fill="#F9D1B7"/>
<path d="M82.9 82.3998C81.6 82.3998 80.5 83.4998 80.5 84.7998C80.5 86.0998 81.6 87.1998 82.9 87.1998C84.2 87.1998 85.3 86.0998 85.3 84.7998C85.2 83.3998 84.2 82.3998 82.9 82.3998Z" fill="#FF8F43"/>
<path d="M82.9 83.9998C82.5 83.9998 82.1 84.2997 82.1 84.7997C82.1 85.2997 82.4 85.5998 82.9 85.5998C83.4 85.5998 83.7 85.2997 83.7 84.7997C83.7 84.2997 83.3 83.9998 82.9 83.9998Z" fill="#490202"/>
<path d="M82.6 82.6999L66.8 57.9998L69.3 51.0999L67.3 50.3998L64.8 57.0999H31.0001L35.3 45.0999C35.6 44.2999 35.0001 43.5999 34.2001 43.5999H28.5001C25.9001 43.5999 23.7001 45.5999 23.5001 48.1999C23.4001 50.4999 24.9001 52.4999 27.0001 53.0999C27.7001 53.2999 28.4001 52.7999 28.4001 52.0999C28.4001 51.5999 28.1 51.1999 27.6 51.0999C26.4 50.7999 25.5 49.5998 25.6 48.2998C25.7 46.8998 27.0001 45.7998 28.4001 45.7998H32.9001L28.7001 57.1999L28.4001 57.8998L28.2001 58.4998L19.7001 82.7998C20.5001 82.8998 21.2001 83.3999 21.5001 84.0999L29.9001 60.0999L50.4001 80.5999C50.8001 79.9999 51.3001 79.4999 51.9001 79.0999L32.0001 59.0999H64.0001L57.1 77.9998C57.8 78.1998 58.4001 78.4998 59.0001 78.8998L65.8 60.3998L80.8 83.6999H61.8C61.8 83.7999 61.8 83.9999 61.8 84.0999C61.8 84.6999 61.7001 85.2998 61.5001 85.7998H81.0001C80.8001 85.4998 80.7001 85.0998 80.7001 84.7998C80.8001 83.6998 81.6 82.7999 82.6 82.6999Z" fill="#6D0503"/>
<path d="M27.0001 52.9998C27.7001 53.1998 28.4001 52.6998 28.4001 51.9998C28.4001 51.4998 28.1001 51.0998 27.6001 50.9998C26.4001 50.6998 25.5001 49.4998 25.6001 48.1998C25.7001 46.8998 26.7001 45.8998 27.9001 45.6998C27.8001 44.5998 27.3001 44.0998 26.9001 43.7998C25.0001 44.3998 23.6001 46.0998 23.5001 48.1998C23.4001 50.3998 24.9001 52.3998 27.0001 52.9998Z" fill="#6D0503"/>
<path d="M70.8001 53.9998C75.2001 53.9998 75.0001 50.7998 75.0001 50.7998C74.8001 50.0998 74.5001 49.3999 73.5001 49.1999C72.4001 48.8999 71.2001 49.1999 70.1001 49.1999C68.8001 49.1999 67.5001 49.1999 66.2001 49.1999H61.2001C60.5001 49.1999 59.9001 49.6998 59.9001 50.2998C59.9001 50.7998 60.3001 51.2998 60.9001 51.3998C62.1001 51.4998 63.3001 51.7999 64.4001 52.1999C66.4001 52.8999 68.5001 53.7998 70.8001 53.9998C70.7001 53.9998 70.8001 53.9998 70.8001 53.9998Z" fill="#EA6033"/>
<path d="M82.8001 82.6999L56.1001 77.8999L56.0001 78.1999L82.0001 82.8999C82.3001 82.6999 82.5001 82.6999 82.8001 82.6999Z" fill="#EA6206"/>
<path d="M81.9001 86.5999L55.5001 89.9998V90.2998L82.5001 86.7998C82.3001 86.7998 82.1001 86.6999 81.9001 86.5999Z" fill="#EA6206"/>
<path d="M55.5001 90.2999C52.1001 90.2999 49.3 87.4999 49.3 84.0999C49.3 80.6999 52.1001 77.8999 55.5001 77.8999C58.9001 77.8999 61.7001 80.6999 61.7001 84.0999C61.7001 87.4999 59.0001 90.2999 55.5001 90.2999ZM55.5001 78.9999C52.7001 78.9999 50.5001 81.2999 50.5001 83.9999C50.5001 86.6999 52.8001 88.9999 55.5001 88.9999C58.2001 88.9999 60.5001 86.6999 60.5001 83.9999C60.5001 81.2999 58.3001 78.9999 55.5001 78.9999Z" fill="#EA6206"/>
<path d="M55.5001 82.3999C54.6001 82.3999 53.9001 83.0999 53.9001 83.9999C53.9001 84.8999 54.6001 85.5999 55.5001 85.5999C56.4001 85.5999 57.1001 84.8999 57.1001 83.9999C57.1001 83.0999 56.4001 82.3999 55.5001 82.3999Z" fill="#EA6206"/>
<path d="M55.5001 83.5999C55.2001 83.5999 55.1001 83.7998 55.1001 83.9998C55.1001 84.1998 55.3001 84.3998 55.5001 84.3998C55.7001 84.3998 55.9001 84.1998 55.9001 83.9998C55.9001 83.7998 55.8001 83.5999 55.5001 83.5999Z" fill="#EA6206"/>
<path d="M54.6988 84.4143L48.1829 88.8817L48.6353 89.5415L55.1511 85.0741L54.6988 84.4143Z" fill="#EA6206"/>
<path d="M50.4001 88.5999H47.0001C46.7001 88.5999 46.4001 88.8999 46.4001 89.1999V89.4998C46.4001 89.7998 46.7001 90.0999 47.0001 90.0999H50.4001C50.7001 90.0999 51.0001 89.7998 51.0001 89.4998V89.1999C51.0001 88.8999 50.7001 88.5999 50.4001 88.5999Z" fill="#EA6206"/>
<path d="M46 63.4999C46.8 64.8999 47.7 66.4999 48.7 68.0999C50.9 72.0999 54.6 81.3999 55.5 84.0999C56.1 85.7999 53.7 86.4999 52.9 85.1999C52.1 83.9999 38.9 65.0999 37 60.6999C36.3 59.1999 38.6 56.6999 40.8 56.8999" fill="#FF8F43"/>
<path d="M55.5001 82.7998C55.3001 82.5998 55.0001 82.6998 54.9001 82.7998C54.5001 83.2998 54.1001 83.5998 53.8001 83.6998C53.4001 83.8998 52.9002 83.8998 52.1002 83.8998L51.4001 83.1998C51.3001 83.0998 51.2002 83.0998 51.1002 83.1998L46.7002 87.9998C46.3002 88.2998 45.8002 88.5998 45.2002 88.8998C44.6002 89.2998 44.6001 89.8998 45.4001 90.7998C52.8001 87.4998 56.6002 85.7998 57.1002 85.5998C56.9002 84.7998 56.7002 84.2998 56.6002 83.8998C56.3002 83.7998 56.0001 83.3998 55.5001 82.7998Z" fill="#F9D1B7"/>
<path d="M38.1001 57.5998C42.5001 54.4998 54.4001 46.0998 56.8001 44.6998L69.1001 39.1998C72.1001 46.4998 71.3001 51.5998 65.1001 54.3998C60.8001 56.2998 45.7001 61.0998 45.4001 61.3998C45.2001 61.5998 48.1001 67.2998 54.0001 78.3998L48.4001 80.8998C47.9001 79.6998 39.6001 67.9998 37.1001 62.4998C36.4001 60.9998 36.2001 58.9998 38.1001 57.5998Z" fill="#AA1707"/>
<path d="M50.3001 27.5997L44.9001 28.1997L45.1 21.5997C43.7 22.5997 42.4001 23.1997 41.7001 23.0997C40.0001 22.8997 39.1001 16.6997 40.2001 14.0997C41.3001 11.4997 47.8001 9.69973 48.7001 14.4997C49.0001 16.1997 48.5 17.6997 47.6 19.0997L50.3001 27.5997Z" fill="#FF8F43"/>
<path d="M39.9002 12.9998C39.7002 13.6998 40.0001 14.4998 41.2001 14.2998C42.6001 15.6998 44.5001 16.4998 44.7001 16.4998C44.7001 16.4998 45.4001 15.2998 46.2001 15.6998C47.1001 16.0998 47.1001 17.0998 46.7001 17.8998C46.5001 18.2998 46.2002 18.9998 46.9002 19.3998C48.0002 19.9998 50.4001 18.0998 50.6001 16.6998C51.1001 14.0998 49.6001 10.6998 46.8001 10.4998C46.9001 9.9998 47.6001 9.69981 48.0001 9.59981C49.1001 9.29981 50.3002 9.3998 51.4002 9.4998C52.8002 9.5998 54.2001 9.89981 55.5001 9.7998C56.2001 9.6998 56.9001 9.4998 57.5001 9.1998C58.2001 8.8998 58.7001 8.3998 59.2001 7.9998C59.7001 7.5998 60.4001 7.5998 61.0001 7.6998C61.7001 7.7998 62.3001 7.9998 62.9002 8.1998C64.2001 8.6998 65.5002 9.3998 66.9002 9.6998C68.0002 9.8998 69.0001 9.9998 70.1001 9.8998C72.0001 9.6998 74.2001 9.0998 75.2001 7.3998C75.9001 6.1998 75.8001 4.8998 75.1001 3.6998C74.5001 2.5998 73.6001 1.8998 72.5001 1.2998C71.3001 0.699805 70.1001 0.299805 68.8001 0.299805C67.4001 0.299805 66.1001 0.999805 65.0001 1.7998C63.9001 2.5998 63.0001 3.4998 61.6001 3.8998C60.3001 4.2998 58.9001 4.1998 57.5001 3.9998C56.1001 3.6998 54.7001 3.3998 53.3001 3.3998C51.9001 3.3998 50.5001 3.6998 49.3001 4.3998C48.2001 4.9998 47.4002 5.99981 46.9002 7.09981C46.6002 7.69981 46.5002 8.2998 46.4002 8.9998C46.4002 9.1998 46.3001 9.4998 46.3001 9.6998C46.3001 9.8998 46.4001 10.1998 46.3001 10.3998C46.2001 10.5998 45.9001 10.5998 45.7001 10.5998C45.3001 10.5998 43.4001 10.8998 42.7001 11.0998C41.9001 11.2998 40.2002 12.2998 39.9002 12.9998Z" fill="#F9AB75"/>
<path d="M45.3001 47.5998L37.7001 46.1998C34.7001 47.0998 33.2001 47.2998 33.2001 46.7998C33.2001 46.0998 34.2001 46.0998 34.3001 45.5998C34.4001 45.0998 33.2001 44.3998 32.1001 43.7998C31.0001 43.1998 31.6001 42.8998 32.0001 42.7998C33.5001 42.8998 35.3001 43.1998 37.2001 43.7998L46.2001 43.2998L45.3001 47.5998Z" fill="#FF8F43"/>
<path d="M36.6 48.1998C34.8 48.0998 33.2001 48.1998 31.9001 48.5998C29.5001 49.2998 28.3001 49.3998 26.5001 48.6998C25.5001 48.2998 24.2001 47.1998 24.4001 46.4998C24.6001 45.9998 27.5001 46.1998 28.5001 45.8998C29.4001 45.5998 27.4001 43.9998 28.0001 43.9998C28.6001 43.6998 29.6001 44.0998 30.9001 45.4998L34.8 45.2998L36.6 48.1998Z" fill="#FF8F43"/>
<path d="M48.4 46.0998C45.6 47.8998 41.2 48.0998 37.5 47.1998L37 43.4998C41.6 43.5998 45.1 42.0998 47.4 40.6998C50.1 41.2998 50.6 44.6998 48.4 46.0998Z" fill="#E83D0F"/>
<path d="M43.4001 25.4998L48.7001 22.1998C49.3001 21.7998 58.0001 26.9998 61.1001 31.9998C63.9001 36.4998 69.9001 36.7998 72.1001 45.1998C68.2001 46.6998 60.0001 56.5998 55.9001 53.8998C53.9001 52.5998 52.4001 50.7998 51.2001 48.5998C47.6001 50.6998 42.6001 52.1998 35.9001 52.6998C35.0001 51.4998 34.3001 48.8998 33.9001 44.9998C41.0001 43.4998 45.7001 41.5998 47.8001 39.3998C46.5001 34.4998 45.4001 29.4998 43.4001 25.4998Z" fill="#EA6206"/>
</svg>
