<svg width="299" height="204" viewBox="0 0 299 204" fill="none" xmlns="http://www.w3.org/2000/svg">
<path d="M157 203.7H-34C-34 203.7 -28.1 161.8 -1.2 155.8C-1.2 155.8 -13 89.6003 15.4 89.1003C43.8 88.6003 58 140.3 58 140.3C58 140.3 80 136.4 90.3 170.1C90.4 170.2 120.1 153.3 157 203.7Z" fill="#FF8F43"/>
<path d="M17.4865 114.331L15.5219 114.706L32.5656 203.997L34.5302 203.622L17.4865 114.331Z" fill="#CE2105"/>
<path d="M40.4666 104.878L27.2338 175.45L29.1996 175.819L42.4324 105.246L40.4666 104.878Z" fill="#CE2105"/>
<path d="M-11.0827 159.758L-12.2989 161.345L31.0481 194.548L32.2643 192.96L-11.0827 159.758Z" fill="#CE2105"/>
<path d="M72.2011 144.104L69.2808 203.732L71.2784 203.83L74.1987 144.202L72.2011 144.104Z" fill="#CE2105"/>
<path d="M122.308 172.383L114.826 203.496L116.771 203.964L124.253 172.85L122.308 172.383Z" fill="#CE2105"/>
<path d="M288.4 88.2999C288.8 89.5999 290.4 90.1999 291.4 89.2999C292.5 88.3999 293.5 86.9999 293.5 84.6999C293.5 79.8999 296 52.7999 294.5 49.5999C292.6 45.5999 252.3 38.7999 236.7 38.1999C235.3 38.0999 234 37.3999 233.3 36.1999C229.1 29.2999 215 6.49991 210.5 5.09991C205.2 3.49991 173.7 0.399902 157 0.399902C140.3 0.399902 95.4 0.899921 91.7 4.69992C87.9 8.49992 55.3 47.3999 53.5 51.9999C51.7 56.5999 48.7 69.3999 48.7 75.4999C48.7 80.1999 54.7 84.5999 58.4 86.6999C59.5 87.2999 60.9 86.6999 61.1 85.3999C62.2 79.1999 66.5 63.7999 82.9 63.7999C103.4 63.7999 108.9 80.8999 111.5 85.7999C114.1 90.6999 115.8 90.0999 134.5 90.0999C153.2 90.0999 232.4 90.0999 232.4 90.0999C232.4 90.0999 237.1 90.2999 239 84.1999C240.8 78.0999 244.3 64.6999 260 64.6999C270.9 64.6999 282.7 66.9999 288.4 88.2999Z" fill="#EA6206"/>
<path d="M58.4 86.5999C59.5 87.1999 60.9 86.5999 61.1 85.2999C61.6 82.2999 62.9 77.2999 65.9 72.7999L49.6 66.9999C49 70.1999 48.6 73.2999 48.6 75.3999C48.7 80.0999 54.7 84.4999 58.4 86.5999Z" fill="#E83D0F"/>
<path d="M232.5 89.9999C232.5 89.9999 153.2 89.9999 134.6 89.9999C121.8 89.9999 116.9 90.2999 114.3 88.8999C114.1 88.7999 113.9 88.6999 113.8 88.5999C113.7 88.5999 113.7 88.4999 113.6 88.4999C112.8 87.8999 112.2 86.9999 111.6 85.7999C111.5 85.6999 111.4 85.4999 111.4 85.2999C110.1 82.6999 108.2 77.8999 104.4 73.3999H243.6C241.1 77.1999 239.9 81.4999 239.1 84.1999C237.2 90.1999 232.5 89.9999 232.5 89.9999Z" fill="#E83D0F"/>
<path d="M291.4 89.1999C292.5 88.2999 293.5 86.8999 293.5 84.5999C293.5 83.0999 293.7 79.5999 294 75.2999L282.4 74.4999C284.8 77.7999 286.8 82.2999 288.4 88.0999C288.8 89.5999 290.4 90.0999 291.4 89.1999Z" fill="#E83D0F"/>
<path d="M288.4 88.2999C282.7 66.9999 271.1 64.7 260.1 64.7C244.1 64.7 240.9 78.1 239.1 84.2C237.3 90.3 232.5 90.0999 232.5 90.0999C232.5 90.0999 232 90.0999 231.1 90.0999C231.1 90.3999 231.1 90.6999 231.2 90.9999L251.1 93.7999L289.2 89.3999C288.8 89.0999 288.5 88.6999 288.4 88.2999Z" fill="#6D0503"/>
<path d="M111.6 85.7C109 80.8 103.5 63.7 83 63.7C66.6 63.7 62.3 79.0999 61.2 85.2999C61.1 85.8999 60.7 86.4 60.2 86.7L86.6 92.8999L117.8 89.8999C114.1 89.3999 112.9 88.4 111.6 85.7Z" fill="#6D0503"/>
<path d="M233.2 35.7999C229.7 29.9999 220 14.3999 214.1 7.8999C212.8 7.8999 210.3 8.09991 210.3 8.99991C210.3 10.1999 225.4 36.0999 228.3 37.1999C230.3 38.0999 232.2 36.8999 233.2 35.7999Z" fill="#FCE4D9"/>
<path d="M222.2 39.6999C223.5 39.6999 224.3 38.1999 223.6 37.0999C218.9 29.7999 205.9 9.79991 203.3 9.19991C200.2 8.49991 157.9 9.19991 157.9 9.19991C157.9 9.19991 152 9.19991 152 17.6999C152 23.9999 152.5 33.0999 152.7 37.2999C152.8 38.5999 153.8 39.5999 155.1 39.5999H222.2V39.6999Z" fill="#FCE4D9"/>
<path d="M148.3 13.8999V36.0999C148.3 38.0999 146.7 39.6999 144.7 39.6999H90.3C90.3 39.6999 86 38.4999 85.6 33.7999C85.3 30.2999 95.4 17.8999 100.4 11.9999C102.1 9.99991 104.5 8.8999 107.1 8.8999H143.3C146 8.8999 148.3 11.1999 148.3 13.8999Z" fill="#FCE4D9"/>
<path d="M84.6 12.7C79.1 19.2 71.5 28.3 65.2 36.2L66.2 36.5999C67.6 37.1999 69.3 36.6999 70.2 35.4999L85.5 15.4999C86.2 14.5999 85.7 13.1 84.6 12.7Z" fill="#FCE4D9"/>
<path d="M227.2 94.8999H121.6C119.4 94.8999 117.6 93.0999 117.6 90.8999V89.7999H231.1V90.8999C231.2 93.0999 229.4 94.8999 227.2 94.8999Z" fill="#6D0503"/>
<path d="M52.5 54.7999C51 59.8999 49.1 68.0999 48.7 73.4999C50.3 74.8999 52.3 75.7999 53 73.5999C54.1 69.9999 57.7 56.4999 57.2 55.7999C56.9 55.2999 54.4 54.9999 52.5 54.7999Z" fill="#B7211F"/>
<path d="M56.2 80.3999L54.3 83.5999C53.9 84.1999 53.3 84.5999 52.5 84.5999H49.9C49.3 84.5999 48.8 85.1 48.8 85.7C48.7 86.5 48.4 87.2 47.2 86.2C45.2 84.5 43.1 80.8999 43.4 77.8999C43.7 74.8999 44.6 71.7999 45.7 71.7999C46.8 71.7999 48.7 72.0999 48.7 74.8999V76.4999C48.7 77.4999 49.5 78.3999 50.6 78.3999H55.1C56.1 78.3999 56.7 79.4999 56.2 80.3999Z" fill="#6D0503"/>
<path d="M295.1 87.2999H293.7C292.2 87.2999 291 86.0999 291 84.5999V79.8999C291 78.7999 291.9 77.9999 292.9 77.9999H295.2C297.2 77.9999 298.9 79.5999 298.9 81.6999V83.6999C298.8 85.5999 297.2 87.2999 295.1 87.2999Z" fill="#6D0503"/>
<path d="M294.9 50.3999C294.9 50.3999 297.4 50.3999 297.3 54.4999C297.2 58.5999 297.3 63.8999 294.7 64.6999C294.7 64.6999 295.1 51.5999 294.9 50.3999Z" fill="#6D0503"/>
<path d="M263 112.2C275.205 112.2 285.1 102.305 285.1 90.0999C285.1 77.8944 275.205 67.9999 263 67.9999C250.794 67.9999 240.9 77.8944 240.9 90.0999C240.9 102.305 250.794 112.2 263 112.2Z" fill="#490202"/>
<path d="M263 104.3C270.842 104.3 277.2 97.9424 277.2 90.0999C277.2 82.2575 270.842 75.8999 263 75.8999C255.158 75.8999 248.8 82.2575 248.8 90.0999C248.8 97.9424 255.158 104.3 263 104.3Z" fill="#EFD5D5"/>
<path d="M263 94.8999C265.651 94.8999 267.8 92.7509 267.8 90.0999C267.8 87.449 265.651 85.2999 263 85.2999C260.349 85.2999 258.2 87.449 258.2 90.0999C258.2 92.7509 260.349 94.8999 263 94.8999Z" fill="#890D04"/>
<path d="M85.8 112.2C98.0055 112.2 107.9 102.305 107.9 90.0999C107.9 77.8944 98.0055 67.9999 85.8 67.9999C73.5945 67.9999 63.7 77.8944 63.7 90.0999C63.7 102.305 73.5945 112.2 85.8 112.2Z" fill="#490202"/>
<path d="M85.8 104.3C93.6424 104.3 100 97.9424 100 90.0999C100 82.2575 93.6424 75.8999 85.8 75.8999C77.9575 75.8999 71.6 82.2575 71.6 90.0999C71.6 97.9424 77.9575 104.3 85.8 104.3Z" fill="#EFD5D5"/>
<path d="M85.8 94.8999C88.451 94.8999 90.6 92.7509 90.6 90.0999C90.6 87.449 88.451 85.2999 85.8 85.2999C83.149 85.2999 81 87.449 81 90.0999C81 92.7509 83.149 94.8999 85.8 94.8999Z" fill="#890D04"/>
<path d="M294.4 70.7999L294.1 75.7999L296 74.7999C296.9 74.2999 297.1 72.9999 296.3 72.2999L294.4 70.7999Z" fill="#B7211F"/>
<path d="M166.8 51.7H156C155.1 51.7 154.3 50.8999 154.3 49.9999C154.3 49.0999 155.1 48.2999 156 48.2999H166.8C167.7 48.2999 168.5 49.0999 168.5 49.9999C168.6 50.9999 167.8 51.7 166.8 51.7Z" fill="#CDD8F3"/>
</svg>
