<svg fill="none" height="16" viewBox="0 0 20 16" width="20" xmlns="http://www.w3.org/2000/svg" xmlns:xlink="http://www.w3.org/1999/xlink"><mask id="a" height="16" maskUnits="userSpaceOnUse" width="20" x="0" y="0"><rect fill="#fff" height="15" rx="2" width="20" y=".5"/></mask><rect fill="#fff" height="15" rx="2" width="20" y=".5"/><g mask="url(#a)"><path d="m9.52393.5h10.4762v15h-10.4762z" fill="#1ab11f"/><path clip-rule="evenodd" d="m0 15.5h6.66667v-15h-6.66667z" fill="#262626" fill-rule="evenodd"/><path clip-rule="evenodd" d="m6.66699 15.5h6.66671v-15h-6.66671z" fill="#dc0d18" fill-rule="evenodd"/><g fill="#fff"><path d="m8.76188 7.5c0-.36819-.29848-.66667-.66667-.66667-.36818 0-.66666.29848-.66666.66667zm-.06333 2.30043c.31443.19157.72462.09197.91619-.22246s.09197-.72462-.22246-.91619zm1.95485-1.16766c-.3057.20527-.3871.61946-.1818.92512.2052.30566.6194.38705.9251.18178zm1.9182-1.13265c0-.36819-.2985-.66666-.6667-.66666s-.6667.29847-.6667.66666zm-5.14305-.00012c0 .97098.50248 1.83282 1.27 2.30043l.69373-1.13865c-.36874-.22465-.6304-.65409-.6304-1.16178zm3.96815 2.23967c.7134-.47911 1.1749-1.30898 1.1749-2.23955h-1.3334c0 .48623-.2401.90112-.5848 1.13265z" opacity=".75"/><path clip-rule="evenodd" d="m9.99974 8.5c.52596 0 .95236-.67157.95236-1.5s-.4264-1.5-.95236-1.5c-.52598 0-.95238.67157-.95238 1.5s.4264 1.5.95238 1.5z" fill-opacity=".5" fill-rule="evenodd"/></g></g></svg>