<svg fill="none" height="16" viewBox="0 0 20 16" width="20" xmlns="http://www.w3.org/2000/svg" xmlns:xlink="http://www.w3.org/1999/xlink"><mask id="a" height="16" maskUnits="userSpaceOnUse" width="20" x="0" y="0"><rect fill="#fff" height="15" rx="2" width="20" y=".5"/></mask><rect fill="#fff" height="15" rx="2" width="20" y=".5"/><g mask="url(#a)"><path clip-rule="evenodd" d="m20 .5v7.5h-20v-7.5z" fill="#29c53f" fill-rule="evenodd"/><path clip-rule="evenodd" d="m20 8v8h-20v-8z" fill="#579ded" fill-rule="evenodd"/><path clip-rule="evenodd" d="m0 15.5 20-7.5-20-7.5z" fill="#f42d56" fill-rule="evenodd"/><path d="m8.85693 8c0 1.59583-1.22418 2.8333-2.66666 2.8333s-2.66667-1.23747-2.66667-2.8333 1.22419-2.83333 2.66667-2.83333 2.66666 1.2375 2.66666 2.83333z" stroke="#ffc63c" stroke-width="1.33333"/><g clip-rule="evenodd" fill-rule="evenodd"><path d="m5.71447 7.5c.26299 0 .47619-.22386.47619-.5s-.2132-.5-.47619-.5-.47619.22386-.47619.5.2132.5.47619.5z" fill="#ffc63c"/><path d="m6.66662 8c.26299 0 .47619-.22386.47619-.5s-.2132-.5-.47619-.5-.47619.22386-.47619.5.2132.5.47619.5z" fill="#ffc63c"/><path d="m6.19055 7c.26299 0 .47619-.22386.47619-.5s-.2132-.5-.47619-.5c-.263 0-.47619.22386-.47619.5s.21319.5.47619.5z" fill="#ffc63c"/><path d="m5.71447 8.5c.26299 0 .47619-.22386.47619-.5s-.2132-.5-.47619-.5-.47619.22386-.47619.5.2132.5.47619.5z" fill="#ffc63c"/><path d="m6.66662 9c.26299 0 .47619-.22386.47619-.5s-.2132-.5-.47619-.5-.47619.22386-.47619.5.2132.5.47619.5z" fill="#ffc63c"/><path d="m5.71447 9.5c.26299 0 .47619-.22386.47619-.5s-.2132-.5-.47619-.5-.47619.22386-.47619.5.2132.5.47619.5z" fill="#ffc63c"/><path d="m6.66662 10c.26299 0 .47619-.22386.47619-.5s-.2132-.5-.47619-.5-.47619.22386-.47619.5.2132.5.47619.5z" fill="#ffc63c"/></g></g><path clip-rule="evenodd" d="m6.19055 10.5c.26299 0 .47619-.2239.47619-.5 0-.27614-.2132-.5-.47619-.5-.263 0-.47619.22386-.47619.5 0 .2761.21319.5.47619.5z" fill="#ffc63c" fill-rule="evenodd"/></svg>