<svg fill="none" height="16" viewBox="0 0 20 16" width="20" xmlns="http://www.w3.org/2000/svg" xmlns:xlink="http://www.w3.org/1999/xlink"><mask id="a" height="16" maskUnits="userSpaceOnUse" width="20" x="0" y="0"><rect fill="#fff" height="15" rx="2" width="20" y=".5"/></mask><g mask="url(#a)"><path d="m0 .5h20v15h-20z" fill="#0a17a7"/><path clip-rule="evenodd" d="m-.915655-.9375 8.534775 6.04462v-5.607201h4.76188v5.607571l8.5353-6.044951 1.0651 1.658076-6.7482 4.779305h4.7669v4.99998h-4.7665l6.748 4.7792-1.0652 1.6581-8.5354-6.0451v5.6078h-4.76188v-5.6074l-8.534948 6.0447-1.065132-1.6581 6.74808-4.7792h-4.76705014v-4.99998h4.76740014l-6.74825-4.779345z" fill="#fff" fill-rule="evenodd"/><g stroke="#db1f35" stroke-linecap="round" stroke-width=".666667"><path d="m13.3345 5.24915 9.0467-6.24915"/><path d="m14.2944 10.7731 8.1099 5.7396"/><path d="m5.71858 5.23315-8.4593-5.98608"/><path d="m6.63608 10.7042-9.3768 6.5292"/></g><path clip-rule="evenodd" d="m0 9.5h8.57143v6h2.85717v-6h8.5714v-3h-8.5714v-6h-2.85717v6h-8.57143z" fill="#e6273e" fill-rule="evenodd"/></g></svg>