<svg fill="none" height="16" viewBox="0 0 20 16" width="20" xmlns="http://www.w3.org/2000/svg" xmlns:xlink="http://www.w3.org/1999/xlink"><mask id="a" height="16" maskUnits="userSpaceOnUse" width="20" x="0" y="0"><rect fill="#fff" height="14.5" rx="1.75" stroke="#fff" stroke-width=".5" width="19.5" x=".25" y=".75"/></mask><mask id="b" fill="#fff"><path clip-rule="evenodd" d="m9.03808 6.89062c-.2868.27435-.46679.66968-.46679 1.10915 0 .82843.63959 1.5 1.42857 1.5.78894 0 1.42854-.67157 1.42854-1.5 0-.43118-.1732-.81986-.4506-1.09348" fill="#fff" fill-rule="evenodd"/></mask><rect fill="#fff" height="14.5" rx="1.75" stroke="#f5f5f5" stroke-width=".5" width="19.5" x=".25" y=".75"/><g mask="url(#a)"><g clip-rule="evenodd" fill-rule="evenodd"><path d="m0 5.5h20v-5h-20z" fill="#38bb56"/><path d="m0 15.5h20v-5h-20z" fill="#de1b27"/><path d="m1.28548 4.5c-.18409 0-.333332.14924-.333332.33333v.33334c0 .18409.149242.33333.333332.33333h.28572c.18409 0 .33333-.14924.33333-.33333v-.33334c0-.18409-.14924-.33333-.33333-.33333zm1.905 0c-.1841 0-.33334.14924-.33334.33333v.33334c0 .18409.14924.33333.33334.33333h.28571c.1841 0 .33333-.14924.33333-.33333v-.33334c0-.18409-.14923-.33333-.33333-.33333zm1.57096.33333c0-.18409.14924-.33333.33333-.33333h.28572c.18409 0 .33333.14924.33333.33333v.33334c0 .18409-.14924.33333-.33333.33333h-.28572c-.18409 0-.33333-.14924-.33333-.33333zm2.23833-.33333c-.1841 0-.33334.14924-.33334.33333v.33334c0 .18409.14924.33333.33334.33333h.28571c.1841 0 .33334-.14924.33334-.33333v-.33334c0-.18409-.14924-.33333-.33334-.33333zm1.57166.33333c0-.18409.14924-.33333.33333-.33333h.28572c.18409 0 .33333.14924.33333.33333v.33334c0 .18409-.14924.33333-.33333.33333h-.28572c-.18409 0-.33333-.14924-.33333-.33333zm2.23767-.33333c-.1841 0-.3334.14924-.3334.33333v.33334c0 .18409.1493.33333.3334.33333h.2857c.1841 0 .3333-.14924.3333-.33333v-.33334c0-.18409-.1492-.33333-.3333-.33333zm1.5716.33333c0-.18409.1493-.33333.3334-.33333h.2857c.1841 0 .3333.14924.3333.33333v.33334c0 .18409-.1492.33333-.3333.33333h-.2857c-.1841 0-.3334-.14924-.3334-.33333zm2.2383-.33333c-.184 0-.3333.14924-.3333.33333v.33334c0 .18409.1493.33333.3333.33333h.2858c.1841 0 .3333-.14924.3333-.33333v-.33334c0-.18409-.1492-.33333-.3333-.33333zm1.571.33333c0-.18409.1492-.33333.3333-.33333h.2858c.1841 0 .3333.14924.3333.33333v.33334c0 .18409-.1492.33333-.3333.33333h-.2858c-.1841 0-.3333-.14924-.3333-.33333zm2.2383-.33333c-.1841 0-.3333.14924-.3333.33333v.33334c0 .18409.1492.33333.3333.33333h.2858c.184 0 .3333-.14924.3333-.33333v-.33334c0-.18409-.1493-.33333-.3333-.33333zm-17.476152 6.3331c0-.1841.149242-.3333.333332-.3333h.28572c.18409 0 .33333.1492.33333.3333v.3333c0 .1841-.14924.3334-.33333.3334h-.28572c-.18409 0-.333332-.1493-.333332-.3334zm2.238612-.3333c-.1841 0-.33334.1492-.33334.3333v.3333c0 .1841.14924.3334.33334.3334h.28571c.18409 0 .33333-.1493.33333-.3334v-.3333c0-.1841-.14924-.3333-.33333-.3333zm1.57096.3333c0-.1841.14924-.3333.33333-.3333h.28572c.18409 0 .33333.1492.33333.3333v.3333c0 .1841-.14924.3334-.33333.3334h-.28572c-.18409 0-.33333-.1493-.33333-.3334zm2.23763-.3333c-.1841 0-.33333.1492-.33333.3333v.3333c0 .1841.14923.3334.33333.3334h.28571c.1841 0 .33334-.1493.33334-.3334v-.3333c0-.1841-.14924-.3333-.33334-.3333zm1.57194.3333c0-.1841.14924-.3333.33333-.3333h.28572c.18409 0 .33333.1492.33333.3333v.3333c0 .1841-.14924.3334-.33333.3334h-.28572c-.18409 0-.33333-.1493-.33333-.3334zm2.23761-.3333c-.1841 0-.3333.1492-.3333.3333v.3333c0 .1841.1492.3334.3333.3334h.2857c.1841 0 .3334-.1493.3334-.3334v-.3333c0-.1841-.1493-.3333-.3334-.3333zm1.572.3333c0-.1841.1492-.3333.3333-.3333h.2857c.1841 0 .3333.1492.3333.3333v.3333c0 .1841-.1492.3334-.3333.3334h-.2857c-.1841 0-.3333-.1493-.3333-.3334zm2.2386-.3333c-.1841 0-.3334.1492-.3334.3333v.3333c0 .1841.1493.3334.3334.3334h.2857c.1841 0 .3333-.1493.3333-.3334v-.3333c0-.1841-.1492-.3333-.3333-.3333zm1.5709.3333c0-.1841.1493-.3333.3334-.3333h.2857c.1841 0 .3333.1492.3333.3333v.3333c0 .1841-.1492.3334-.3333.3334h-.2857c-.1841 0-.3334-.1493-.3334-.3334zm2.2377-.3333c-.1841 0-.3334.1492-.3334.3333v.3333c0 .1841.1493.3334.3334.3334h.2857c.1841 0 .3333-.1493.3333-.3334v-.3333c0-.1841-.1492-.3333-.3333-.3333z" fill="#fff" fill-opacity=".5"/></g><path d="m8.57726 6.40888c-.41673.39862-.67264.96733-.67264 1.59089h1.33334c0-.25538.10407-.47733.26095-.6274zm-.67264 1.59089c0 1.16559.90779 2.16663 2.09524 2.16663v-1.3333c-.39051 0-.7619-.34207-.7619-.83333zm2.09524 2.16663c1.18744 0 2.09524-1.00104 2.09524-2.16663h-1.3333c0 .49126-.3714.83333-.76194.83333zm2.09524-2.16663c0-.61179-.2464-1.17078-.6492-1.56812l-.9363.94927c.152.14991.2522.36829.2522.61885z" fill="#d80915" mask="url(#b)"/><rect fill="#d80915" height="2" rx=".47619" width=".952381" x="9.52344" y="7.5"/></g></svg>