<svg width="102" height="104" fill="none" xmlns="http://www.w3.org/2000/svg"><path d="M93.783 89.225c-1.652 1.752-2.725 2.257-3.188 3.846l-1.057 3.624a4.097 4.097 0 0 0 .645 3.578l1.553 2.084c2.074 2.782 6.444 1.866 7.237-1.502.064-.194.053-.534.38-.819l1.243-1.087a4.062 4.062 0 0 0 1.173-4.395l-1.284-3.735c-.974-2.832-4.563-3.68-6.702-1.594ZM17.07 42.367c1.148 3.512 3.134 4.88 5.643 8.056a5.158 5.158 0 0 1 .754 5.52c-1.837 3.948-1.536 9.514-1.995 13.432-.364 3.102-1.373 6.276-3.087 9.703-2.103 4.21-.509 9.36 4.341 11.755 9.14 4.38 9.297 4.91 10.813 4.909 1.41 0 2.792-.799 3.433-2.21a.662.662 0 0 1 1.057-.21c.438.394 5.84 5.274 6.112 5.518 2.27 2.053 6.947 1.534 9.274 1.746 2.856.259 5.219-2.195 4.845-5.042a4.958 4.958 0 0 1 2.422-4.937c2.524-1.475 4.66-3.21 7.06-2.306l2.478.93c.172.064 5.767 2.16 5.924 2.22 3.078 1.154 6.204.033 9.086-.602 3.539-.782 5.486-3.837 7.432-6.239a5.612 5.612 0 0 0-1.058-8.08l-2.084-1.515a1.381 1.381 0 0 1-.538-.825l-.915-4.243a1.387 1.387 0 0 1 .69-1.502 4.486 4.486 0 0 0 1.539-6.49c-.454-.75-1.156-1.256-1.029-2.104l.273-1.822a3.886 3.886 0 0 0-4.098-4.455.784.784 0 0 1-.767-1.1l3.876-8.72a2.16 2.16 0 0 1 2.037-1.287 5.276 5.276 0 0 0 5.387-4.863c.613-6.72.323-6.996.91-7.761 2.188-2.859.723-7.023-2.77-7.888l-5.749-1.419c-.948-.235-1.038-.796-3.57-3.466-1.297-1.435-2.668-1.544-4.384-1.846-4.285-.754-4.35-.813-8.832-3.58h-.002c-2.645-1.512-3.035-2.555-6.753-6.611C62.072 1.929 57.77 0 53.596 0H51.38c-1.9 0-3.506 1.42-3.737 3.3l-.65 5.192a2.799 2.799 0 0 1-2.486 2.444c-2.739.292-4.46.469-6.458 2.53l-.066.07c-.176.185-.297.306-.408.516a2.252 2.252 0 0 1-2.945.985l-6.62-3.102c-3.714-1.74-8.122 2.15-6.686 6.069l1.507 4.115a.663.663 0 0 1-.815.864c-10.252-3.099-9.93-3.135-11.07-2.916l-6.15 1.172c-3.854.734-5.924 4.957-4.14 8.454.805 1.581 1.48 2.852 3.413 3.675l7.792 3.315a9.34 9.34 0 0 1 5.208 5.684ZM96.832 29.91ZM17.01 42.123Z" fill="#DAE0FB"/></svg>