<svg width="125" height="108" fill="none" xmlns="http://www.w3.org/2000/svg"><ellipse cx="45.717" cy="98.413" rx="29.653" ry="5.587" fill="#DAE0FB"/><path fill-rule="evenodd" clip-rule="evenodd" d="M44.855 29.51a5.54 5.54 0 0 0-5.533 5.533 5.54 5.54 0 0 0 5.533 5.533 5.54 5.54 0 0 0 5.533-5.533 5.54 5.54 0 0 0-5.533-5.533Zm.002 18.443c-7.12 0-12.911-5.791-12.911-12.91 0-7.12 5.791-12.91 12.91-12.91 7.12 0 12.911 5.79 12.911 12.91 0 7.119-5.791 12.91-12.91 12.91Zm0-40.575c-16.272 0-29.51 13.11-29.51 29.225 0 20.192 26.001 42.712 27.108 43.66a3.677 3.677 0 0 0 2.401.889c.856 0 1.708-.295 2.402-.889 1.106-.948 27.108-23.468 27.108-43.66 0-16.115-13.239-29.225-29.51-29.225Z" fill="#DAE0FB"/><mask id="a" style="mask-type:alpha" maskUnits="userSpaceOnUse" x="15" y="7" width="60" height="75"><path fill-rule="evenodd" clip-rule="evenodd" d="M44.855 29.51a5.54 5.54 0 0 0-5.533 5.533 5.54 5.54 0 0 0 5.533 5.533 5.54 5.54 0 0 0 5.533-5.533 5.54 5.54 0 0 0-5.533-5.533Zm.002 18.443c-7.12 0-12.911-5.791-12.911-12.91 0-7.12 5.791-12.91 12.91-12.91 7.12 0 12.911 5.79 12.911 12.91 0 7.119-5.791 12.91-12.91 12.91Zm0-40.575c-16.272 0-29.51 13.11-29.51 29.225 0 20.192 26.001 42.712 27.108 43.66a3.677 3.677 0 0 0 2.401.889c.856 0 1.708-.295 2.402-.889 1.106-.948 27.108-23.468 27.108-43.66 0-16.115-13.239-29.225-29.51-29.225Z" fill="#fff"/></mask><g mask="url(#a)"><path fill="#DAE0FB" d="M.592 0h88.529v88.529H.592z"/></g><g filter="url(#b)"><path d="M110.529 92.733H66.054a4.826 4.826 0 0 0-4.828 4.828v.61h54.183v-.61c-.051-2.643-2.186-4.828-4.88-4.828Z" fill="#FF9800"/><path d="M85.166 32.659 66.512 92.733h43.56L91.418 32.66c-.966-3.1-5.287-3.1-6.252 0Z" fill="#FF9800"/><path d="M108.903 88.87H74.085s5.083-25.005 8.336-39.084c3.304-14.078 4.219-18.296 5.744-19.415-1.322.051-2.593.814-3.05 2.288L66.46 92.733h43.407l-.965-3.863Z" fill="#FF9800"/><path d="M70.374 80.281h35.834l-3.863-12.503H74.237l-3.863 12.503Z" fill="#FFE2B8"/><path d="M75.863 80.281c.763-3.558 1.678-7.98 2.644-12.503h-4.22l-3.862 12.503h5.438ZM78.15 55.326h20.332l-3.914-12.502H82.013L78.15 55.326Z" fill="#FFE2B8"/><path d="M82.013 42.824 78.15 55.326h3.05c.457-1.931.864-3.812 1.27-5.54.61-2.642 1.17-4.98 1.627-6.962h-2.084Z" fill="#FFE2B8"/><path d="M88.317 92.733H66.715c-2.999 0-5.49 2.44-5.49 5.49h27.092v-5.49Z" fill="#FF9800"/></g><defs><filter id="b" x="54.226" y="23.333" width="70.183" height="83.889" filterUnits="userSpaceOnUse" color-interpolation-filters="sRGB"><feFlood flood-opacity="0" result="BackgroundImageFix"/><feColorMatrix in="SourceAlpha" values="0 0 0 0 0 0 0 0 0 0 0 0 0 0 0 0 0 0 127 0" result="hardAlpha"/><feOffset dx="1" dy="1"/><feGaussianBlur stdDeviation="4"/><feColorMatrix values="0 0 0 0 0.129412 0 0 0 0 0.129412 0 0 0 0 0.129412 0 0 0 0.24 0"/><feBlend in2="BackgroundImageFix" result="effect1_dropShadow_17729_351262"/><feBlend in="SourceGraphic" in2="effect1_dropShadow_17729_351262" result="shape"/></filter></defs></svg>