<svg width="22" height="22" fill="none" xmlns="http://www.w3.org/2000/svg" viewBox="0 0 22 22"><path d="M4.125 16v3.125c0 .69.56 1.25 1.25 1.25h3.75v-5c0-.69.56-1.25 1.25-1.25h1.25c.69 0 1.25.56 1.25 1.25v5h3.75c.69 0 1.25-.56 1.25-1.25V16" stroke="#fff" stroke-width="1.5" stroke-linecap="round" stroke-linejoin="round"/><path d="m1.625 14.75 8.49-8.49a1.25 1.25 0 0 1 1.77 0l8.49 8.49" stroke="#fff" stroke-width="1.5" stroke-linecap="round" stroke-linejoin="round"/><path d="M14.75 9.125v-1.25h3.125v4.375M15.268 1.625l-.339.453a.87.87 0 0 0 .133 1.196v0a.87.87 0 0 1 .134 1.197l-.34.452M18.393 1.625l-.339.453a.87.87 0 0 0 .133 1.196v0a.87.87 0 0 1 .134 1.197l-.34.452" stroke="#fff" stroke-width="1.5" stroke-linecap="round" stroke-linejoin="round"/></svg>
