<svg width="20" height="20" viewBox="0 0 23 23" fill="none" xmlns="http://www.w3.org/2000/svg">
<path fillRule="evenodd" clipRule="evenodd" d="M11.625 1.625C6.10215 1.625 1.625 6.10215 1.625 11.625C1.625 17.1478 6.10215 21.625 11.625 21.625C17.1478 21.625 21.625 17.1478 21.625 11.625C21.625 8.97284 20.5714 6.4293 18.6961 4.55393C16.8207 2.67857 14.2772 1.625 11.625 1.625Z" stroke="white" strokeWidth="1.5" strokeLinecap="round" strokeLinejoin="round"/>
<path fillRule="evenodd" clipRule="evenodd" d="M8.86477 15.8506L7.16699 10.6061L11.6248 7.36523L16.0825 10.6061L14.3848 15.8506H8.86477V15.8506Z" stroke="white" strokeWidth="1.5" strokeLinecap="round" strokeLinejoin="round"/>
<path d="M15.448 2.38086L11.6249 4.95775L7.80176 2.38086" stroke="white" strokeWidth="1.5" strokeLinecap="round" strokeLinejoin="round"/>
<path d="M13.9351 21.3571L15.8364 17.4762L20.1777 16.8096" stroke="white" strokeWidth="1.5" strokeLinecap="round" strokeLinejoin="round"/>
<path d="M21.5931 12.4328L18.5469 9.39899L19.2002 5.09766" stroke="white" strokeWidth="1.5" strokeLinecap="round" strokeLinejoin="round"/>
<path d="M11.625 4.95801V7.36512" stroke="white" strokeWidth="1.5" strokeLinecap="round" strokeLinejoin="round"/>
<path d="M16.083 10.6065L18.547 9.39941" stroke="white" strokeWidth="1.5" strokeLinecap="round" strokeLinejoin="round"/>
<path d="M1.65723 12.4328L4.70345 9.39899L4.05012 5.09766" stroke="white" strokeWidth="1.5" strokeLinecap="round" strokeLinejoin="round"/>
<path d="M7.16712 10.6065L4.70312 9.39941" stroke="white" strokeWidth="1.5" strokeLinecap="round" strokeLinejoin="round"/>
<path d="M14.3848 15.8506L15.8363 17.4755" stroke="white" strokeWidth="1.5" strokeLinecap="round" strokeLinejoin="round"/>
<path d="M9.31493 21.3571L7.4136 17.4762L3.07227 16.8096" stroke="white" strokeWidth="1.5" strokeLinecap="round" strokeLinejoin="round"/>
<path d="M8.86513 15.8506L7.41357 17.4755" stroke="white" strokeWidth="1.5" strokeLinecap="round" strokeLinejoin="round"/>
</svg>
