<svg width="22" height="22" fill="none" xmlns="http://www.w3.org/2000/svg"><path d="M5.375 17.79v1.304a1.25 1.25 0 1 0 2.5 0v-1.25M16.625 17.79v1.304a1.25 1.25 0 1 1-2.5 0v-1.25M4.125 5.344h-1.25c-.69 0-1.25.56-1.25 1.25v2.5M17.875 5.344h1.25c.69 0 1.25.56 1.25 1.25v2.5" stroke="#fff" stroke-width="1.5" stroke-linecap="round" stroke-linejoin="round"/><rect x="4.125" y="1.594" width="13.75" height="16.25" rx="2" stroke="#fff" stroke-width="1.5" stroke-linecap="round" stroke-linejoin="round"/><path d="M17.875 12.844H4.125M12.875 15.344h2.5M6.625 15.344h2.5M9.125 4.094h3.75" stroke="#fff" stroke-width="1.5" stroke-linecap="round" stroke-linejoin="round"/></svg>