<svg width="22" height="22" fill="none" xmlns="http://www.w3.org/2000/svg" viewBox="0 0 22 22"><path d="M4.75 4.125A2.5 2.5 0 1 0 6.403 8.5" stroke="#fff" stroke-width="1.5" stroke-linecap="round" stroke-linejoin="round"/><path clip-rule="evenodd" d="M1.625 15.375V13.5a3.125 3.125 0 1 1 6.25 0v1.875h-1.25l-.625 5H3.5l-.625-5h-1.25ZM15.375 20.375l-.625-3.75h-1.875l.945-3.445c.56-1.682 1.256-2.805 2.805-2.805 1.55 0 2.244 1.123 2.805 2.805l.945 3.445H18.5l-.625 3.75h-2.5ZM16.625 9.125a2.5 2.5 0 1 0 0-5 2.5 2.5 0 0 0 0 5ZM8.5 6.625a1.25 1.25 0 1 0 0-2.5 1.25 1.25 0 0 0 0 2.5Z" stroke="#fff" stroke-width="1.5" stroke-linecap="round" stroke-linejoin="round"/><path d="M9.75 5.375v-3.75" stroke="#fff" stroke-width="1.5" stroke-linecap="round" stroke-linejoin="round"/><path clip-rule="evenodd" d="M11 12.25a1.25 1.25 0 1 0 0-2.5 1.25 1.25 0 0 0 0 2.5Z" stroke="#fff" stroke-width="1.5" stroke-linecap="round" stroke-linejoin="round"/><path d="M12.25 11V7.25" stroke="#fff" stroke-width="1.5" stroke-linecap="round" stroke-linejoin="round"/></svg>
