<svg fill="none" height="20" viewBox="0 0 22 22" width="20" xmlns="http://www.w3.org/2000/svg"><g stroke="#fff"><path d="m18.2284 20.383-2.4667-1.4608c-.4429-.3156-.6668-.8562-.5767-1.3925v-1.52l-.9216-.9225c-.2343-.2338-.3514-.5604-.3192-.8898.0323-.3295.2106-.6271.4858-.811.4384-.2917 1.0217-.2339 1.3942.1383l1.3 1.3008"/><path d="m15.3931 8.83301 3.4683 3.06919c.4543.6361.6985 1.3983.6983 2.18v1.8175c.0001.522.2075 1.0226.5767 1.3916l.2383.2384"/><path d="m8.13653 20.3828 2.02167-2.485c.359-.4445.3003-1.0937-.1325-1.4667-.20605-.1774-.47549-.2633-.74623-.2378-.27074.0254-.51943.1601-.68877.3728l-.6975.5967v-4.905c0-.6903-.55964-1.25-1.25-1.25s-1.25.5597-1.25 1.25v3.125h-1.0325c-1.51653.0179-2.73231 1.2601-2.7175 2.7767v2.2225"/><path d="m15.3931 13.2605v-8.50171c0-.34518-.2799-.625-.625-.625h-3.75c0-1.38071-1.11932-2.5-2.50003-2.5-1.38072 0-2.5 1.11929-2.5 2.5h-3.75c-.34518 0-.625.27982-.625.625v8.12421"/><path d="m8.51807 3.82129c.17259 0 .3125.13991.3125.3125s-.13991.3125-.3125.3125-.3125-.13991-.3125-.3125c-.00022-.08295.03263-.16256.09128-.22122.05865-.05865.13827-.0915.22122-.09128"/></g></svg>