<svg width="22" height="20" fill="none" xmlns="http://www.w3.org/2000/svg"><path clip-rule="evenodd" d="M19.876 4.464a4.75 4.75 0 0 0-7.571-1.214L11 4.44 9.695 3.25a4.75 4.75 0 0 0-7.57 1.217 4.65 4.65 0 0 0 .885 5.405L11 18.125l7.99-8.256a4.65 4.65 0 0 0 .886-5.405Z" stroke="#fff" stroke-width="1.5" stroke-linecap="round" stroke-linejoin="round"/><path d="M5.375 8.75h2.307c.118 0 .226.067.28.173l1.477 2.955a.313.313 0 0 0 .57-.024l1.983-4.958a.312.312 0 0 1 .569-.023l.856 1.705a.313.313 0 0 0 .28.172h2.928" stroke="#fff" stroke-width="1.5" stroke-linecap="round" stroke-linejoin="round"/></svg>