<svg
    width="20"
    height="20"
    viewBox="0 0 22 22"
    fill="none"
    xmlns="http://www.w3.org/2000/svg"
  >
    <path
      d="M4.74998 4.125C3.63781 4.12488 2.65929 4.85949 2.34899 5.92749C2.03869 6.99549 2.47123 8.14007 3.41031 8.73592C4.34939 9.33178 5.56919 9.23563 6.40331 8.5"
      stroke="white"
      strokeWidth="1.5"
      strokeLinecap="round"
      strokeLinejoin="round"
    />
    <path
      fillRule="evenodd"
      clipRule="evenodd"
      d="M1.625 15.375V13.5C1.625 11.7741 3.02411 10.375 4.75 10.375C6.47589 10.375 7.875 11.7741 7.875 13.5V15.375H6.625L6 20.375H3.5L2.875 15.375H1.625Z"
      stroke="white"
      strokeWidth="1.5"
      strokeLinecap="round"
      strokeLinejoin="round"
    />
    <path
      fillRule="evenodd"
      clipRule="evenodd"
      d="M15.375 20.375L14.75 16.625H12.875L13.82 13.18C14.3808 11.4975 15.0758 10.375 16.625 10.375C18.1742 10.375 18.8692 11.4975 19.43 13.18L20.375 16.625H18.5L17.875 20.375H15.375Z"
      stroke="white"
      strokeWidth="1.5"
      strokeLinecap="round"
      strokeLinejoin="round"
    />
    <path
      fillRule="evenodd"
      clipRule="evenodd"
      d="M16.625 9.125C18.0057 9.125 19.125 8.00571 19.125 6.625C19.125 5.24429 18.0057 4.125 16.625 4.125C15.2443 4.125 14.125 5.24429 14.125 6.625C14.125 8.00571 15.2443 9.125 16.625 9.125Z"
      stroke="white"
      strokeWidth="1.5"
      strokeLinecap="round"
      strokeLinejoin="round"
    />
    <path
      fillRule="evenodd"
      clipRule="evenodd"
      d="M8.5 6.625C9.19036 6.625 9.75 6.06536 9.75 5.375C9.75 4.68464 9.19036 4.125 8.5 4.125C7.80964 4.125 7.25 4.68464 7.25 5.375C7.25 6.06536 7.80964 6.625 8.5 6.625Z"
      stroke="white"
      strokeWidth="1.5"
      strokeLinecap="round"
      strokeLinejoin="round"
    />
    <path
      d="M9.75 5.375V1.625"
      stroke="white"
      strokeWidth="1.5"
      strokeLinecap="round"
      strokeLinejoin="round"
    />
    <path
      fillRule="evenodd"
      clipRule="evenodd"
      d="M11 12.25C11.6904 12.25 12.25 11.6904 12.25 11C12.25 10.3096 11.6904 9.75 11 9.75C10.3096 9.75 9.75 10.3096 9.75 11C9.75 11.6904 10.3096 12.25 11 12.25Z"
      stroke="white"
      strokeWidth="1.5"
      strokeLinecap="round"
      strokeLinejoin="round"
    />
    <path
      d="M12.25 11V7.25"
      stroke="white"
      strokeWidth="1.5"
      strokeLinecap="round"
      strokeLinejoin="round"
    />
  </svg>
