<svg fill="none" height="20" viewBox="0 0 20 22" width="20" xmlns="http://www.w3.org/2000/svg"><g stroke="#fff"><path d="m16.1108 17.2109-4.4008.88"/><path d="m12.2227 13.1526-2.0559.8475c-.66285.2626-1.41498-.0429-1.70715-.6932-.29218-.6504-.021-1.4155.61553-1.7368l2.05912-1c.4526-.2259.978-.256 1.4534-.0833l3.7583 1.4383"/><path d="m3.88916 18.1524h1.55333l2.58917 1.9684c.27051.3045.73311.3413 1.04833.0833l3.88421-3.1208c.3191-.2616.3709-.7301.1166-1.055l-2.135-2.3525"/><path d="m3.88916 12.5979 3.16083-1.3475c.52364-.2094 1.11832-.1335 1.5725.2009l.27084.2225"/><path d="m1.11084 19.2647h1.66667c.29483 0 .57759-.1172.78606-.3256.20848-.2085.3256-.4913.3256-.7861v-5.555c0-.614-.49771-1.1117-1.11166-1.1117h-1.66667"/><path d="m18.8892 19.2647h-1.6667c-.2948 0-.5776-.1172-.7861-.3256-.2084-.2085-.3256-.4913-.3256-.7861v-5.555c0-.614.4978-1.1117 1.1117-1.1117h1.6667"/><path d="m8.24143 6.54851s-1.00666 1.72333-2.46666 1.48c-2.95917-.49333-2.46667-4.44-3.4525-5.91667 1.93757-.79155 4.13693-.60817 5.91666.49334 1.4825.98333 1.4825 2.46333.0025 3.94333z"/><path d="m12.6251 6.91721s.6992 1.19667 1.7134 1.0275c2.055-.3425 1.7125-3.08333 2.3975-4.11083-1.3462-.55019-2.8743-.42287-4.1109.3425-1.0275.6875-1.0275 1.71583 0 2.74083z"/><path d="m6.26855 4.125s3.04 2.15583 3.53334 7.0883c.60461-1.63414 1.52651-3.13261 2.71251-4.40913"/></g></svg>