<svg fill="none" height="20" viewBox="0 0 22 18" width="20" xmlns="http://www.w3.org/2000/svg"><g stroke="#fff"><path d="m19.876 3.46411c-.6896-1.34906-1.9814-2.28823-3.4773-2.528147-1.496-.239916-3.0167.248207-4.0935 1.313987l-1.305 1.19083-1.30503-1.19083c-1.07721-1.06559-2.59816-1.553321-4.09417-1.312906-1.49601.240416-2.78756 1.180126-3.47667 2.529566-.90995 1.80285-.55199 3.98694.88584 5.405l7.99003 8.25329 7.99-8.25579c1.4378-1.41806 1.7958-3.60215.8858-5.405z"/><path d="m5.375 7.75006h2.30667c.11843-.00004.22676.0667.28.1725l1.4775 2.95504c.05508.1098.16938.1771.29211.1721.12274-.0051.23114-.0815.27702-.1955l1.9834-4.95831c.0459-.11393.1543-.1904.277-.19543.1228-.00503.237.06231.2921.1721l.8559 1.705c.0532.1058.1615.17254.28.1725h2.9283"/></g></svg>