<svg fill="none" height="20" viewBox="0 0 23 23" width="20" xmlns="http://www.w3.org/2000/svg"><g stroke="#fff"><path d="m11.625 1.625c-5.52285 0-10 4.47715-10 10 0 5.5228 4.47715 10 10 10 5.5228 0 10-4.4772 10-10 0-2.65216-1.0536-5.1957-2.9289-7.07107-1.8754-1.87536-4.4189-2.92893-7.0711-2.92893z"/><path d="m8.86477 15.8506-1.69778-5.2445 4.45781-3.24087 4.4577 3.24087-1.6977 5.2445z"/><path d="m15.448 2.38086-3.8231 2.57689-3.82314-2.57689"/><path d="m13.9351 21.3571 1.9013-3.8809 4.3413-.6666"/><path d="m21.5931 12.4328-3.0462-3.03381.6533-4.30133"/><path d="m11.625 4.95801v2.40711"/><path d="m16.083 10.6065 2.464-1.20709"/><path d="m1.65723 12.4328 3.04622-3.03381-.65333-4.30133"/><path d="m7.16712 10.6065-2.464-1.20709"/><path d="m14.3848 15.8506 1.4515 1.6249"/><path d="m9.31493 21.3571-1.90133-3.8809-4.34133-.6666"/><path d="m8.86513 15.8506-1.45156 1.6249"/></g></svg>