<svg width="22" height="20" fill="none" xmlns="http://www.w3.org/2000/svg" viewBox="0 0 22 20"><path d="M2.875 3.75V17.5c0 .69.56 1.25 1.25 1.25h2.5c.69 0 1.25-.56 1.25-1.25v-5.625a3.125 3.125 0 1 1 6.25 0V17.5c0 .69.56 1.25 1.25 1.25h2.5c.69 0 1.25-.56 1.25-1.25V3.75M1.625 6.25h18.75M1.625 12.5h7.5M12.875 12.5h7.5M4.75 8.75H6M16 8.75h1.25M5.375 15v1.25M16.625 15v1.25" stroke="#fff" stroke-width="1.5" stroke-linecap="round" stroke-linejoin="round"/><rect x="1.625" y="1.25" width="18.75" height="2.5" rx=".5" stroke="#fff" stroke-width="1.5" stroke-linecap="round" stroke-linejoin="round"/></svg>
