<svg fill="none" height="20" viewBox="0 0 22 22" width="20" xmlns="http://www.w3.org/2000/svg"><g stroke="#fff"><path d="m20.4051 11.3607c.048-.2442-.0156-.4971-.1735-.6895s-.3935-.3041-.6424-.3047h-9.85665c-.39543-.0007-.73591-.2792-.815-.66664l-.23083-1.15917c-.07909-.38744-.41957-.66596-.815-.66667h-5.37167c-.24829.00154-.48296.11372-.64009.30598-.15712.19225-.22033.44456-.17241.68819l2.16084 10.83751c.07908.3874.41957.6659.815.6667h13.26421c.3954-.0008.7359-.2793.815-.6667.3408-1.7142 1.2575-6.3158 1.6625-8.345z"/><path d="m4.79688 5.37305.01666-2.91667c0-.46024.3731-.83333.83334-.83333h10.80162c.4603 0 .8334.37309.8334.83333l.0175 5.41667"/><path d="m7.30664 4.11621 6.86496.00667"/><path d="m11.0469 6.62305h3.125"/></g></svg>