<svg fill="none" height="20" viewBox="0 0 22 20" width="20" xmlns="http://www.w3.org/2000/svg"><g stroke="#fff"><path d="m1.625 6.5c0-.82843.67157-1.5 1.5-1.5h15.75c.8284 0 1.5.67157 1.5 1.5v10.75c0 .8284-.6716 1.5-1.5 1.5h-15.75c-.82843 0-1.5-.6716-1.5-1.5z"/><path d="m5.375 9.375h11.25"/><path d="m5.375 14.375h11.25"/><path d="m13.785 2.10417c-.1703-.51021-.6479-.85424-1.1858-.85417h-3.19837c-.53788-.00007-1.0155.34396-1.18583.85417l-.965 2.89583h7.5z"/><path d="m4.125 5v-1.25"/><path d="m17.875 5v-1.25"/></g></svg>