<svg width="20" height="20" fill="none" xmlns="http://www.w3.org/2000/svg"><path d="m16.571 18.53-2.242-1.328a1.292 1.292 0 0 1-.524-1.266v-1.381l-.838-.84a1.004 1.004 0 0 1 .151-1.545v0a1.005 1.005 0 0 1 1.268.126l1.182 1.182M13.994 8.03l3.153 2.79a3.41 3.41 0 0 1 .635 1.982v1.653c0 .474.188.93.524 1.265l.217.216M7.397 18.53l1.838-2.259a.962.962 0 0 0-.12-1.333.909.909 0 0 0-1.305.123l-.634.542v-4.459a1.136 1.136 0 1 0-2.273 0v2.84h-.939a2.5 2.5 0 0 0-2.47 2.525v2.02" stroke="#fff" stroke-width="1.5" stroke-linecap="round" stroke-linejoin="round"/><path d="M13.994 12.055V4.327a.568.568 0 0 0-.568-.569h-3.41a2.273 2.273 0 0 0-4.545 0H2.062a.568.568 0 0 0-.568.569v7.385" stroke="#fff" stroke-width="1.5" stroke-linecap="round" stroke-linejoin="round"/><path d="M7.744 3.474a.284.284 0 1 1 0 .568.284.284 0 0 1 0-.568" stroke="#fff" stroke-width="1.5" stroke-linecap="round" stroke-linejoin="round"/></svg>