<svg fill="none" height="20" viewBox="0 0 22 20" width="20" xmlns="http://www.w3.org/2000/svg"><g stroke="#fff"><path d="m2.875 3.75v13.75c0 .6904.55964 1.25 1.25 1.25h2.5c.69036 0 1.25-.5596 1.25-1.25v-5.625c0-1.7259 1.39911-3.125 3.125-3.125 1.7259 0 3.125 1.3991 3.125 3.125v5.625c0 .6904.5596 1.25 1.25 1.25h2.5c.6904 0 1.25-.5596 1.25-1.25v-13.75"/><path d="m1.625 6.25h18.75"/><path d="m1.625 12.5h7.5"/><path d="m12.875 12.5h7.5"/><path d="m4.75 8.75h1.25"/><path d="m16 8.75h1.25"/><path d="m5.375 15v1.25"/><path d="m16.625 15v1.25"/><rect height="2.5" rx=".5" width="18.75" x="1.625" y="1.25"/></g></svg>