<svg width="20" height="20" viewBox="0 0 20 22" fill="none" xmlns="http://www.w3.org/2000/svg">
<path d="M16.1108 17.2109L11.71 18.0909" stroke="white" strokeWidth="1.5" strokeLinecap="round" strokeLinejoin="round"/>
<path d="M12.2227 13.1526L10.1668 14.0001C9.50395 14.2627 8.75182 13.9572 8.45965 13.3069C8.16747 12.6565 8.43865 11.8914 9.07518 11.5701L11.1343 10.5701C11.5869 10.3442 12.1123 10.3141 12.5877 10.4868L16.346 11.9251" stroke="white" strokeWidth="1.5" strokeLinecap="round" strokeLinejoin="round"/>
<path d="M3.88916 18.1524H5.44249L8.03166 20.1208C8.30217 20.4253 8.76477 20.4621 9.07999 20.2041L12.9642 17.0833C13.2833 16.8217 13.3351 16.3532 13.0808 16.0283L10.9458 13.6758" stroke="white" strokeWidth="1.5" strokeLinecap="round" strokeLinejoin="round"/>
<path d="M3.88916 12.5979L7.04999 11.2504C7.57363 11.041 8.16831 11.1169 8.62249 11.4513L8.89333 11.6738" stroke="white" strokeWidth="1.5" strokeLinecap="round" strokeLinejoin="round"/>
<path d="M1.11084 19.2647H2.77751C3.07234 19.2647 3.3551 19.1475 3.56357 18.9391C3.77205 18.7306 3.88917 18.4478 3.88917 18.153V12.598C3.88917 11.984 3.39146 11.4863 2.77751 11.4863H1.11084" stroke="white" strokeWidth="1.5" strokeLinecap="round" strokeLinejoin="round"/>
<path d="M18.8892 19.2647H17.2225C16.9277 19.2647 16.6449 19.1475 16.4364 18.9391C16.228 18.7306 16.1108 18.4478 16.1108 18.153V12.598C16.1108 11.984 16.6086 11.4863 17.2225 11.4863H18.8892" stroke="white" strokeWidth="1.5" strokeLinecap="round" strokeLinejoin="round"/>
<path fillRule="evenodd" clipRule="evenodd" d="M8.24143 6.54851C8.24143 6.54851 7.23477 8.27184 5.77477 8.02851C2.8156 7.53518 3.3081 3.58851 2.32227 2.11184C4.25984 1.32029 6.4592 1.50367 8.23893 2.60518C9.72143 3.58851 9.72143 5.06851 8.24143 6.54851Z" stroke="white" strokeWidth="1.5" strokeLinecap="round" strokeLinejoin="round"/>
<path fillRule="evenodd" clipRule="evenodd" d="M12.6251 6.91721C12.6251 6.91721 13.3243 8.11388 14.3385 7.94471C16.3935 7.60221 16.051 4.86138 16.736 3.83388C15.3898 3.28369 13.8617 3.41101 12.6251 4.17638C11.5976 4.86388 11.5976 5.89221 12.6251 6.91721Z" stroke="white" strokeWidth="1.5" strokeLinecap="round" strokeLinejoin="round"/>
<path d="M6.26855 4.125C6.26855 4.125 9.30855 6.28083 9.80189 11.2133C10.4065 9.57916 11.3284 8.08069 12.5144 6.80417" stroke="white" strokeWidth="1.5" strokeLinecap="round" strokeLinejoin="round"/>
</svg>
