<svg width="22" height="22" fill="none" xmlns="http://www.w3.org/2000/svg"><path clip-rule="evenodd" d="M20.405 11.36a.833.833 0 0 0-.816-.993H9.733a.833.833 0 0 1-.815-.667l-.231-1.16a.833.833 0 0 0-.815-.666H2.5a.833.833 0 0 0-.812.994l2.16 10.838c.08.387.42.666.815.666h13.265c.395 0 .735-.279.815-.666.34-1.714 1.257-6.316 1.662-8.345Z" stroke="#fff" stroke-width="1.5" stroke-linecap="round" stroke-linejoin="round"/><path d="m4.797 5.373.016-2.916c0-.46.374-.834.834-.834h10.801c.46 0 .834.373.834.834l.017 5.416M7.307 4.117l6.865.006M11.047 6.623h3.125" stroke="#fff" stroke-width="1.5" stroke-linecap="round" stroke-linejoin="round"/></svg>