<svg width="20" height="20" fill="none" xmlns="http://www.w3.org/2000/svg"><path d="M16.25 4.887v6.818c0 .628-.509 1.137-1.136 1.137H4.886a1.136 1.136 0 0 1-1.136-1.137V4.887" stroke="#fff" stroke-width="1.5" stroke-linecap="round" stroke-linejoin="round"/><path clip-rule="evenodd" d="M17.385 18.523H2.615a1.136 1.136 0 0 1-1.017-1.643l1.391-2.781a2.273 2.273 0 0 1 2.033-1.257h9.956c.86 0 1.648.486 2.033 1.256l1.39 2.782a1.136 1.136 0 0 1-1.016 1.643Z" stroke="#fff" stroke-width="1.5" stroke-linecap="round" stroke-linejoin="round"/><path d="M8.864 16.25h2.272M10 2.736s.361-1.136 3.455-1.257a.481.481 0 0 1 .522.443v4.677a.48.48 0 0 1-.497.44C10.367 7.149 10 8.296 10 8.296v-5.56s-.361-1.14-3.455-1.257a.481.481 0 0 0-.522.443v4.677a.48.48 0 0 0 .497.44C9.633 7.149 10 8.296 10 8.296" stroke="#fff" stroke-width="1.5" stroke-linecap="round" stroke-linejoin="round"/></svg>