<svg fill="none" height="20" viewBox="0 0 22 22" width="20" xmlns="http://www.w3.org/2000/svg"><g stroke="#fff"><path d="m11 20.3758-7.315-2.7834c-.48302-.1564-.81014-.6064-.81-1.1141v-6.1025c0-.3752.17963-.72762.48317-.94806.30353-.22044.69427-.2822 1.051-.16614l6.59083 2.5483z"/><path d="m18.315 17.5924-7.315 2.7834v-8.5659l6.5908-2.5483c.3568-.11606.7475-.0543 1.051.16614.3036.22044.4832.57286.4832.94806v6.1025c.0001.5077-.327.9577-.81 1.1141z"/><path d="m6.625 7.87598c1.72589 0 3.125-1.39911 3.125-3.125s-1.39911-3.125-3.125-3.125-3.125 1.39911-3.125 3.125 1.39911 3.125 3.125 3.125z"/><path d="m15.375 7.87598c1.7259 0 3.125-1.39911 3.125-3.125s-1.3991-3.125-3.125-3.125-3.125 1.39911-3.125 3.125 1.3991 3.125 3.125 3.125z"/><path d="m9.75 4.81055c0-.69036.5596-1.25 1.25-1.25s1.25.55964 1.25 1.25"/><path d="m20.375 4.75098h-1.875"/><path d="m3.5 4.75098h-1.875"/><path d="m14.125 14.126 1.875-.625"/></g></svg>