<svg width="23" height="23" fill="none" xmlns="http://www.w3.org/2000/svg"><path clip-rule="evenodd" d="M11.625 1.625c-5.523 0-10 4.477-10 10s4.477 10 10 10 10-4.477 10-10a10 10 0 0 0-10-10Z" stroke="#fff" stroke-width="1.5" stroke-linecap="round" stroke-linejoin="round"/><path clip-rule="evenodd" d="m8.865 15.85-1.698-5.243 4.458-3.241 4.458 3.24-1.698 5.245h-5.52v0Z" stroke="#fff" stroke-width="1.5" stroke-linecap="round" stroke-linejoin="round"/><path d="m15.448 2.381-3.823 2.577-3.823-2.577M13.935 21.357l1.901-3.88 4.342-.668M21.593 12.433l-3.046-3.034.653-4.301M11.625 4.958v2.407M16.083 10.606 18.547 9.4M1.657 12.433l3.046-3.034-.653-4.301M7.167 10.606 4.703 9.4M14.385 15.851l1.452 1.625M9.315 21.357l-1.902-3.88-4.341-.668M8.865 15.851l-1.451 1.625" stroke="#fff" stroke-width="1.5" stroke-linecap="round" stroke-linejoin="round"/></svg>