<svg width="22" height="20" fill="none" xmlns="http://www.w3.org/2000/svg"><path clip-rule="evenodd" d="M1.625 6.5a1.5 1.5 0 0 1 1.5-1.5h15.75a1.5 1.5 0 0 1 1.5 1.5v10.75a1.5 1.5 0 0 1-1.5 1.5H3.125a1.5 1.5 0 0 1-1.5-1.5V6.5Z" stroke="#fff" stroke-width="1.5" stroke-linecap="round" stroke-linejoin="round"/><path d="M5.375 9.375h11.25M5.375 14.375h11.25" stroke="#fff" stroke-width="1.5" stroke-linecap="round" stroke-linejoin="round"/><path clip-rule="evenodd" d="M13.785 2.104a1.25 1.25 0 0 0-1.186-.854H9.401a1.25 1.25 0 0 0-1.186.854L7.25 5h7.5l-.965-2.896Z" stroke="#fff" stroke-width="1.5" stroke-linecap="round" stroke-linejoin="round"/><path d="M4.125 5V3.75M17.875 5V3.75" stroke="#fff" stroke-width="1.5" stroke-linecap="round" stroke-linejoin="round"/></svg>