<svg fill="none" height="20" viewBox="0 0 22 22" width="20" xmlns="http://www.w3.org/2000/svg"><g stroke="#fff"><path d="m4.74998 4.125c-1.11217-.00012-2.09069.73449-2.40099 1.80249s.12224 2.21258 1.06132 2.80843c.93908.59586 2.15888.49971 2.993-.23592"/><path d="m1.625 15.375v-1.875c0-1.7259 1.39911-3.125 3.125-3.125s3.125 1.3991 3.125 3.125v1.875h-1.25l-.625 5h-2.5l-.625-5z"/><path d="m15.375 20.375-.625-3.75h-1.875l.945-3.445c.5608-1.6825 1.2558-2.805 2.805-2.805s2.2442 1.1225 2.805 2.805l.945 3.445h-1.875l-.625 3.75z"/><path d="m16.625 9.125c1.3807 0 2.5-1.11929 2.5-2.5s-1.1193-2.5-2.5-2.5-2.5 1.11929-2.5 2.5 1.1193 2.5 2.5 2.5z"/><path d="m8.5 6.625c.69036 0 1.25-.55964 1.25-1.25s-.55964-1.25-1.25-1.25-1.25.55964-1.25 1.25.55964 1.25 1.25 1.25z"/><path d="m9.75 5.375v-3.75"/><path d="m11 12.25c.6904 0 1.25-.5596 1.25-1.25s-.5596-1.25-1.25-1.25-1.25.5596-1.25 1.25.5596 1.25 1.25 1.25z"/><path d="m12.25 11v-3.75"/></g></svg>