<svg fill="none" height="20" viewBox="0 0 22 22" width="20" xmlns="http://www.w3.org/2000/svg"><g stroke="#fff"><path d="m4.125 16v3.125c0 .6904.55964 1.25 1.25 1.25h3.75v-5c0-.6904.55964-1.25 1.25-1.25h1.25c.6904 0 1.25.5596 1.25 1.25v5h3.75c.6904 0 1.25-.5596 1.25-1.25v-3.125"/><path d="m1.625 14.7498 8.4908-8.49082c.2345-.2346.5525-.3664.8842-.3664s.6497.1318.8842.3664l8.4908 8.49082"/><path d="m14.75 9.125v-1.25h3.125v4.375"/><path d="m15.2685 1.625-.3392.4525c-.2829.37031-.2241.89771.1334 1.19667.3574.29896.4162.82635.1333 1.19666l-.3392.4525"/><path d="m18.3935 1.625-.3392.4525c-.2829.37031-.2241.89771.1334 1.19667.3574.29896.4162.82635.1333 1.19666l-.3392.4525"/></g></svg>