<svg width="184" height="30" viewBox="0 0 184 30" fill="none" xmlns="http://www.w3.org/2000/svg">
<path d="M20.5217 4.31968C20.5217 4.31968 20.482 4.31968 20.5217 4.31968C19.6089 4.59754 18.8945 3.76397 18.8945 2.93039C18.8945 2.69222 18.9342 2.45406 19.0533 2.21589C19.3311 1.73956 19.9264 1.54109 20.4026 1.38232C21.5932 1.02507 22.7045 0.548739 23.8951 0.191492C24.411 0.0327153 24.9269 -0.126061 25.4429 0.151798C25.8794 0.389962 26.1572 0.826598 26.1969 1.30293C26.316 2.37467 25.165 2.81131 24.3316 3.04947C23.0616 3.48611 21.7917 3.96244 20.5217 4.31968Z" fill="#0421B1"/>
<path d="M91.1643 4.72007C90.2515 4.99793 89.5371 4.16435 89.5371 3.33078C89.5371 3.09261 89.5768 2.85445 89.6958 2.61628C89.9737 2.13995 90.569 1.94148 91.0452 1.78271C92.2358 1.42546 93.347 0.94913 94.5377 0.591882C95.0536 0.433106 95.5695 0.274329 96.0855 0.552188C96.522 0.790353 96.7998 1.22699 96.8395 1.70332C96.9586 2.77506 95.8076 3.21169 94.9742 3.44986C93.7042 3.8865 92.4342 4.32313 91.1643 4.72007Z" fill="#0421B1"/>
<path d="M4.00948 24.0067C3.89042 25.3166 3.89042 29.0081 2.62045 29.5638C0.993289 30.2386 -0.0385813 29.4051 0.00110544 28.0158C0.0804789 24.8799 0.437674 21.5456 1.03298 18.4098C1.62828 15.2343 2.06482 11.8206 2.85856 8.48625C3.65229 5.07256 4.96194 5.58858 7.85908 6.85879C10.1212 7.85115 10.9943 10.5503 10.915 12.8129C10.8753 14.2816 10.8356 15.5518 10.2006 16.8617C9.88311 17.4968 9.08939 18.648 8.57346 19.164C8.01784 19.7197 7.74002 19.9976 7.14472 20.5136C5.91443 21.625 6.15256 21.0296 7.62097 23.7685C8.25595 24.9593 9.56562 26.7456 9.40687 28.2142C9.28781 29.4051 8.13689 29.6829 7.2241 29.286C5.95412 28.8493 4.8429 25.5547 4.00948 24.0067ZM5.75568 10.471C5.3985 12.4557 5.00164 15.5121 4.64446 17.4968C8.33533 16.1472 8.17658 11.1061 5.75568 10.471Z" fill="#0421B1"/>
<path d="M20.5196 9.75721C19.8846 11.4641 19.6068 13.6869 19.4878 15.4335C19.329 17.696 20.7577 16.3464 22.3055 17.0212C23.4168 17.4976 23.7343 18.609 22.4643 19.4029C20.7181 20.5143 19.4481 18.9266 19.0512 21.467C18.8528 22.6578 18.4559 25.6349 19.329 26.5081C20.2815 27.4608 22.7024 26.1906 23.6152 27.3814C25.7186 30.16 18.2972 29.9218 17.1859 29.3264C14.4476 27.8577 15.1222 23.4517 15.3207 20.6731C15.5588 17.0212 16.1938 13.2106 16.9478 9.55874C17.305 7.73281 17.7812 6.93892 19.7656 6.62137C21.1943 6.4229 23.5755 6.06565 24.9248 6.46259C25.8773 6.74045 26.9092 7.85189 25.917 8.92363C24.9248 9.91598 21.8293 9.39996 20.5196 9.75721Z" fill="#0421B1"/>
<path d="M34.8477 15.9511C35.8795 16.0304 37.5067 15.9908 37.9433 16.9037C38.5386 18.1342 36.9114 18.6503 35.8398 18.809C35.0064 18.9678 34.4111 18.6503 34.2127 18.9678C33.9746 19.4044 33.8952 20.8731 33.8555 21.2701C33.6571 22.8578 33.4586 24.4059 33.3396 25.9937C33.2602 27.1845 33.5777 29.0104 31.9902 29.6058C27.9025 31.1142 29.8075 22.9372 30.0059 21.4685C30.4028 18.3724 30.879 15.2763 31.4346 12.2198C31.6727 10.9099 31.7918 9.52061 32.1093 8.2504C32.3474 7.25804 32.9824 6.58324 34.173 6.38477C35.9589 6.10691 38.1814 6.26569 39.8482 6.46416C40.8801 6.58324 42.5866 6.8611 42.3485 8.13131C41.9913 9.71908 39.6498 9.36183 38.4989 9.32214C36.8717 9.28244 36.197 9.16336 35.7605 10.7511C35.2843 12.4977 35.0064 14.2839 34.8477 15.9511Z" fill="#0421B1"/>
<path d="M48.7763 24.446C49.6891 24.8429 50.5225 24.5651 51.0781 21.7468C51.5147 19.5239 52.3878 12.895 52.8244 10.6721C53.1022 9.24314 53.1021 7.02027 54.5706 6.54394C55.523 6.22639 56.7533 7.13935 56.8724 8.09201C57.0311 9.36223 56.1977 14.7209 55.9596 16.1102C55.6818 17.8965 55.0071 21.985 54.5309 23.7712C53.8562 26.4704 51.6734 29.8444 48.6175 29.8444C42.7836 29.8444 44.4504 13.7683 45.5617 9.5607C45.8395 8.48895 46.157 6.74241 47.3079 6.38516C48.5382 6.02792 49.3319 7.25844 49.3319 8.40957C49.2922 12.1408 47.1095 23.7315 48.7763 24.446Z" fill="#0421B1"/>
<path d="M65.367 25.9148C66.3989 25.7561 67.272 24.2874 67.6689 23.3744C67.8276 22.9775 67.9864 22.5805 67.9864 22.1439C67.9864 21.5485 67.6689 21.1119 67.0736 20.9134C66.7164 20.7943 66.2798 20.7546 66.002 20.4767C65.5655 20.0798 65.5655 19.3653 65.883 18.889C66.2005 18.4127 66.7561 18.1348 67.3117 17.976C68.4626 17.6188 69.7326 17.6982 70.8438 18.1348C71.5185 18.4127 72.1932 18.8493 72.471 19.5241C72.7091 20.0798 72.6297 20.7546 72.5107 21.35C72.0741 23.8111 71.0819 26.2324 69.177 27.8996C67.272 29.5667 64.4145 30.1621 62.2318 28.9316C57.1519 26.0736 60.2871 18.2936 62.073 14.4035C63.1843 11.9425 64.7717 9.67994 66.8751 7.97309C67.8276 7.17921 68.9389 6.5441 70.2088 6.34563C71.2804 6.18685 72.471 6.38533 73.3441 7.06013C73.7013 7.33799 73.9791 7.73493 73.9394 8.17156C73.86 8.64789 73.3441 8.92575 72.8678 9.12422C72.1138 9.40208 71.3597 9.64025 70.6454 9.99749C68.8992 10.8311 67.5498 12.3394 66.518 14.0066C65.4861 15.6738 64.7321 17.3012 64.0574 19.0875C63.7399 19.9607 63.4621 21.0325 63.3033 21.9851C63.1049 23.1363 63.1843 24.5652 64.0971 25.4385C64.5733 25.8355 64.9702 25.9545 65.367 25.9148Z" fill="#0421B1"/>
<path d="M79.4159 28.2937C79.1381 29.286 78.5825 30.0799 77.2331 29.8418C75.725 29.5242 75.7647 27.8968 75.9631 26.7059C76.6775 22.419 77.4712 18.132 78.2253 13.845C78.4237 12.813 78.7015 11.384 79.4556 10.5901C80.408 9.59775 82.2337 10.2726 82.3924 11.5825C82.5512 12.7336 81.9955 14.2023 81.7574 15.3534C81.4796 16.8618 81.2018 18.3702 80.924 19.9182C80.5271 22.0617 80.1302 24.2449 79.7334 26.3884C79.6937 26.9441 79.6143 27.6586 79.4159 28.2937Z" fill="#0421B1"/>
<path d="M104.735 21.5081C104.735 21.4287 104.735 21.3493 104.735 21.2699C104.735 19.9203 103.782 18.7692 102.988 17.7371C101.996 16.4272 101.48 15.1173 101.798 13.4502C102.036 12.2197 102.671 11.1082 103.385 10.1159C104.655 8.32963 106.362 6.78156 108.584 6.46401C109.696 6.30523 112.831 5.98768 112.196 8.01208C111.878 8.96474 110.727 9.2029 109.973 9.59984C108.902 10.1953 107.87 10.8701 107.037 11.7433C106.044 12.8548 105.409 14.4425 105.846 15.8715C106.282 17.3799 107.632 18.2929 108.346 19.6425C109.1 21.1111 108.862 22.8974 108.148 24.3264C107.513 25.5966 106.521 26.6683 105.489 27.6607C103.782 29.2484 100.726 30.4393 98.3848 29.8439C97.7895 29.6851 97.2736 29.2484 97.1942 28.653C97.1545 28.137 97.4323 27.6607 97.8292 27.3431C98.226 27.0256 98.7023 26.8668 99.1785 26.6683C100.528 26.1523 101.838 25.5569 102.909 24.6042C103.822 23.8897 104.616 22.6989 104.735 21.5081Z" fill="#0421B1"/>
<path d="M91.2015 9.9138C90.6062 11.6207 90.3284 13.8038 90.2093 15.5504C90.0506 17.8129 91.4396 16.4633 92.9477 17.1381C94.0589 17.6145 94.3368 18.6862 93.1065 19.4801C91.4 20.5915 90.1697 19.0038 89.7728 21.5442C89.5744 22.735 89.1775 25.6724 90.0109 26.5853C90.9237 27.538 93.3049 26.2678 94.178 27.4586C96.2417 30.2372 88.979 29.999 87.9075 29.4036C85.2485 27.9349 85.9232 23.5686 86.0819 20.79C86.2804 17.1381 86.9154 13.3672 87.6694 9.71533C88.0266 7.9291 88.5028 7.09552 90.4475 6.81766C91.8762 6.61919 94.178 6.26194 95.4877 6.65888C96.4402 6.93674 97.4323 8.04818 96.4401 9.11992C95.4877 10.0726 92.4715 9.59625 91.2015 9.9138Z" fill="#0421B1"/>
<path d="M82.5516 8.44892C81.7976 8.72677 80.8848 8.64738 80.2895 8.13136C78.8608 6.78176 79.972 4.36042 81.996 4.79705C83.0279 5.03522 83.8216 6.10696 83.6629 7.1787C83.5835 7.81381 83.1073 8.25044 82.5516 8.44892Z" fill="#0421B1"/>
<path d="M160.377 15.1149C161.409 15.1943 163.116 15.1546 163.592 16.147C164.187 17.4569 162.52 17.9729 161.409 18.1714C160.576 18.3302 159.941 17.9729 159.742 18.3699C159.504 18.8065 159.425 20.3546 159.346 20.7912C159.147 22.4584 158.909 24.0858 158.83 25.753C158.75 26.9835 159.068 28.9285 157.441 29.5636C153.234 31.1514 155.218 22.5774 155.377 21.0294C155.774 17.7745 156.25 14.5195 156.845 11.3043C157.083 9.91501 157.242 8.48602 157.56 7.13642C157.798 6.06468 158.472 5.35019 159.703 5.19141C161.528 4.91355 163.83 5.07233 165.576 5.2708C166.648 5.38988 168.434 5.70743 168.156 7.01734C167.799 8.68449 165.378 8.28755 164.187 8.28755C162.52 8.24786 161.806 8.12878 161.37 9.75624C160.814 11.4631 160.536 13.3287 160.377 15.1149Z" fill="#E8140F"/>
<path d="M140.573 19.4411C140.176 20.6717 140.097 22.18 139.859 23.4899C139.62 24.7999 139.382 26.0701 139.144 27.38C138.946 28.6105 137.874 30.3173 136.287 29.5235C134.104 28.4914 135.85 23.8472 136.168 21.9816C136.723 18.7266 137.438 15.5511 138.311 12.3756C138.827 10.4703 140.176 8.16801 141.446 10.2718C142.24 11.5817 142.914 13.0107 143.47 14.4397C144.026 15.9084 144.423 17.5358 144.938 19.0045C144.938 18.9648 145.375 16.7419 145.375 16.6229C145.692 14.8366 145.772 14.5588 146.01 12.8122C146.248 11.0657 146.566 9.35883 146.923 7.65198C147.121 6.65963 147.399 5.15125 148.59 4.99247C149.344 4.91309 150.018 5.5085 150.256 6.22299C150.495 6.93749 150.376 7.73137 150.296 8.44586C149.582 13.6855 148.828 18.9648 147.915 24.1647C147.756 24.9586 147.637 25.8716 147.042 26.4273C144.899 28.5708 141.684 21.7831 141.009 20.3938C140.851 20.1159 140.692 19.7587 140.573 19.4411Z" fill="#E8140F"/>
<path d="M183.514 14.7567C182.959 17.7338 182.403 20.7108 181.252 23.4497C180.379 25.5138 178.633 28.6894 176.212 29.3642C169.822 31.1107 169.465 22.4177 169.902 18.488C170.219 15.7094 170.854 12.7323 171.846 9.99341C172.958 6.93696 174.307 5.54767 177.482 5.07134C179.665 4.71409 181.887 5.46828 183.078 7.13543C184.149 8.64381 183.99 10.7476 183.832 12.5338C183.752 13.2483 183.673 14.0025 183.514 14.7567ZM174.823 24.8787C176.331 25.6329 178.355 20.2742 178.95 16.4636C179.228 14.6376 180.617 9.19953 178.276 8.64381C174.386 7.65146 172.838 24.6803 174.823 24.8787Z" fill="#E8140F"/>
<path d="M128.112 28.0559C127.794 29.088 127.239 29.9216 125.85 29.6437C124.302 29.3261 124.302 27.6193 124.54 26.3491C125.294 21.8636 126.088 17.4179 126.921 12.9325C127.12 11.8607 127.398 10.3523 128.191 9.55846C129.183 8.52641 131.049 9.2409 131.247 10.5905C131.406 11.7813 130.811 13.3294 130.612 14.5202C130.334 16.108 130.057 17.6958 129.739 19.2438C129.342 21.5064 128.906 23.7293 128.509 25.9918C128.39 26.6269 128.31 27.3811 128.112 28.0559Z" fill="#E8140F"/>
<path d="M131.366 7.37549C130.612 7.69304 129.62 7.57396 129.025 7.05793C127.517 5.66864 128.707 3.12822 130.771 3.60455C131.842 3.84271 132.676 4.95415 132.517 6.06558C132.438 6.70069 131.961 7.13732 131.366 7.37549Z" fill="#E8140F"/>
<path d="M117.516 29.407C116.563 29.7642 115.373 29.6452 114.658 29.0101C112.833 27.3032 114.262 24.2071 116.802 24.8025C118.111 25.0803 119.143 26.4696 118.905 27.8192C118.786 28.6131 118.23 29.1291 117.516 29.407Z" fill="#E8140F"/>
</svg>
