<svg height="68" viewBox="0 0 68 68" width="68" xmlns="http://www.w3.org/2000/svg"><g fill="none"><path d="m53.4105804 68h-38.8214111c-8.07741434 0-14.5891693-6.537112-14.5891693-14.566348v-38.867304c0-8.0647796 6.54733244-14.566348 14.5891693-14.566348h38.8214111c8.0774212 0 14.5894196 6.5370916 14.5894196 14.566348v38.867304c0 8.029236-6.5475623 14.566348-14.5894196 14.566348z" fill="#0421b1"/><path d="m37.954217 25.9721499c-.1049561-.6291721-.4898398-1.1534822-.9796797-1.5030446-.1399638-.104862-.3149353-.1747477-.4898399-.2447004-.2449199-.0698856-.4899068-.1397713-.7348268-.209724-.6648113-.0698857-1.3296227.104862-1.8544703.6291721-1.0146874 1.0486872-1.3995712 3.0411326-1.6444911 4.4393151-.4198915 2.2720551-.8047752 4.5441772-1.2246667 6.7812559-.6648114 3.600352-1.2946151 7.2007709-1.8894111 10.8011229-.2799276 1.642883-.3149353 3.8800287 1.7494473 4.2994768h.0700154c.0699484.0349763.1749715.0349763.2449199.0349763h.0699485.3149353c1.3296227 0 1.9244188-.9788015 2.2743618-2.1672601.2449199-.8738724.3848837-1.8875833.5248475-2.6915031.5248476-2.9362705 1.0846359-5.9074504 1.6094835-8.8436539.0700154-.314586.105023-.6291721.1749715-.9437581.3149353-1.747745.6298037-3.49549.944739-5.2782113.2799276-1.5030446 1.0847028-3.5654426.8397159-5.1034636z" fill="#e8140f"/><path d="m37.6076764 21.7887023c-.9334294.3841629-2.0668476.2445038-2.8002246-.4191112-1.8001534-1.746341-.3666884-4.8898085 2.1001366-4.2960231 1.2667652.3143333 2.2668363 1.7113928 2.0668476 3.073571-.1333471.803341-.700088 1.3621112-1.3667596 1.6415633z" fill="#e8140f"/><g fill="#fff" transform="translate(9 22)"><path d="m1.21849826 15.5078402c.24789971.2843087.49579941.5686174.77913272.81743 2.44369895 2.4524264 4.85189654 4.9048529 7.29559549 7.3572793.49579941.4976253 1.02703243 1.0307467 1.66449853 1.3506195.6375338.3198728 1.4166665.4264971 2.0541325.0711283.6374661-.355437.9915989-1.137371.9915989-1.8838091 0-.7463699-.2832656-1.4572438-.6374661-2.0969894-1.487466-2.7012391-4.17899688-4.4783557-5.98522977-6.9662781-.38956635-.5331895-.77913271-1.2084993-.67283191-1.883741.07079945-.4976253.42493221-.9241224.74369912-1.3151235 2.23116509-2.66567495 4.74566346-5.11810135 7.43726216-7.32171508.7791327-.63974564 1.6644985-1.49280795 1.4165988-2.4524264-.1771003-.67530978-.9207994-1.10180687-1.6291327-1.17293514-2.5852978-.17768441-5.41856313 1.77711664-7.15392881 3.51873727-1.13326548 1.137371-2.16029789 2.34580213-3.25819752 3.48317313-1.02703242 1.06624273-2.23116509 1.95480104-3.18739806 3.09217202-.67289966.8174982-1.16869907 1.8837409-1.06246602 2.9144877.0708672.9596184.56666661 1.7771166 1.20413267 2.4879905z"/><path d="m48.7107023 10.1764903c-.2479675-.28430869-.531233-.56868551-.7792005-.81743006-2.4790648-2.4524264-4.9935632-4.90485281-7.472628-7.35727921-.531233-.49762537-1.0270324-1.03074673-1.6999321-1.35061955-.6728996-.31994095-1.4520323-.42656522-2.0895661-.07112827-.6374661.35543696-.9915989 1.137371-.9915989 1.91930504 0 .78193405.2833333 1.45724382.6728997 2.13255359 1.5228318 2.70123909 4.2852977 4.47835572 6.1622623 6.96634626.4249999.5686855.8145663 1.2084311.7083332 1.8837409-.0707994.4975572-.3895663.9596185-.7436991 1.3506196-2.2312328 2.736735-4.7102976 5.2247256-7.4372621 7.4993994-.7791327.6398138-1.6645663 1.5283721-1.4166666 2.4879906.1771003.7108739.956233 1.1018069 1.6645663 1.1729351 2.6207314.1421203 5.4893626-1.8837409 7.1893624-3.6253615 1.1332655-1.137371 2.1602979-2.3813663 3.2581975-3.5542333 1.0270324-1.1018069 2.2311651-2.0259293 3.1873981-3.1633003.6728997-.8529942 1.1686991-1.9192369 1.062466-2.9855478-.0708672-.9951826-.6374661-1.7771166-1.2749321-2.4879905z"/></g></g></svg>