<svg width="370" height="214" viewBox="0 0 370 214" fill="none" xmlns="http://www.w3.org/2000/svg">
<path d="M34.3629 66.3074C16.8629 78.4558 9.94476 91.8837 6.0649 104.478C2.46939 116.567 1.32476 129.093 12.352 138.021C24.0827 147.526 47.3754 151.55 70.2115 155.016C117.347 162.316 169.04 168.365 226.169 160.881C283.545 153.413 346.657 128.231 356.276 101.338C364.305 79.3208 335.852 64.1594 315.13 48.4984C284.997 25.5999 255.691 11.9536 181.885 20.0882C135.58 25.4553 64.637 45.6138 34.3629 66.3074Z" fill="#E8F4E8"/>
<path d="M262.887 0H224.632V50.9478H262.887V0Z" fill="#B7F9C1"/>
<path opacity="0.32" d="M249.538 33.3072L249.661 33.924C249.661 33.924 234.459 40.7088 234.088 40.8938C233.099 41.449 229.885 42.0658 229.824 40.2154L229.7 39.5986" fill="#095411"/>
<path opacity="0.32" d="M245.892 24.7337C254.544 17.0854 254.544 15.0499 254.544 15.0499C254.544 15.0499 254.853 12.4594 252.381 13.8163C249.909 15.1733 243.852 23.3767 243.852 23.3767L245.892 24.7337Z" fill="#26B759"/>
<path opacity="0.32" d="M245.95 24.7718C246.139 24.4887 245.834 23.9519 245.267 23.5727C244.699 23.1935 244.086 23.1155 243.896 23.3985C243.706 23.6815 244.012 24.2184 244.579 24.5976C245.146 24.9768 245.76 25.0548 245.95 24.7718Z" fill="#095411"/>
<path opacity="0.32" d="M245.521 32.012C245.274 32.0737 245.088 31.8886 245.027 31.7036L243.852 25.9056C243.791 25.7206 243.605 24.7954 244.532 23.9936C244.718 23.8085 244.965 23.8702 245.15 24.0552C245.336 24.2403 245.274 24.487 245.088 24.672C244.532 25.1655 244.718 25.7206 244.718 25.7206C244.718 25.7206 244.718 25.7206 244.718 25.7823L245.892 31.5802C245.892 31.7653 245.706 32.012 245.521 32.012Z" fill="#4FD875"/>
<path opacity="0.32" d="M241.813 29.4214L249.538 33.3072C249.538 33.3072 234.335 40.092 233.964 40.2771C232.976 40.8322 229.762 41.449 229.7 39.5986C229.638 38.6734 230.627 37.9332 231.245 37.4398C232.172 36.7613 233.099 36.0828 234.026 35.4044C236.622 33.4306 239.217 31.3952 241.813 29.4214Z" fill="#26B759"/>
<path d="M141.696 57.9176L141.325 57.9793C141.325 57.9793 137.494 48.4189 137.37 48.1722C137.061 47.5554 136.752 45.5816 137.865 45.5199L138.235 45.4583" fill="#095411"/>
<path d="M147.073 55.8822C151.584 61.4334 152.882 61.4951 152.882 61.4951C152.882 61.4951 154.489 61.7418 153.685 60.1998C152.882 58.6578 147.938 54.7103 147.938 54.7103L147.073 55.8822Z" fill="#26B759"/>
<path d="M147.777 55.5313C148.018 55.2007 148.079 54.8353 147.913 54.7151C147.748 54.5949 147.418 54.7655 147.177 55.0961C146.936 55.4267 146.875 55.7922 147.041 55.9124C147.207 56.0326 147.536 55.8619 147.777 55.5313Z" fill="#095411"/>
<path d="M142.561 55.4504C142.561 55.327 142.623 55.142 142.809 55.142L146.455 54.5869C146.578 54.5869 147.135 54.4635 147.629 55.0186C147.691 55.142 147.691 55.327 147.567 55.3887C147.444 55.4504 147.258 55.4504 147.196 55.327C146.887 54.957 146.578 55.0803 146.578 55.0803L142.932 55.6354C142.747 55.6971 142.623 55.5738 142.561 55.4504Z" fill="#4FD875"/>
<path d="M144.292 53.2299L141.696 57.9176C141.696 57.9176 137.865 48.3572 137.741 48.1105C137.432 47.4937 137.123 45.5199 138.235 45.4583C138.792 45.4583 139.286 46.0751 139.533 46.5068C139.966 47.1236 140.337 47.6787 140.769 48.2955C141.943 49.9609 143.118 51.5646 144.292 53.2299Z" fill="#26B759"/>
<path d="M199.108 86.7223L187.243 128.233L178.591 158.826H172.287L181.495 86.7223H199.108Z" fill="#CE2951"/>
<path d="M202.26 86.7223C202.507 108.125 203.496 119.783 203.743 121.695C204.052 123.607 208.378 136.005 216.783 158.765H210.294C199.603 136.93 193.608 124.532 192.372 121.695C191.136 118.796 187.305 107.138 181.495 86.7223H202.26Z" fill="#F24C64"/>
<path d="M217.401 164.686L217.092 157.839H210.232C206.957 160.122 202.755 161.972 197.502 163.391V164.686H209.923L214.188 164.007V164.686H217.401Z" fill="#CE2951"/>
<path d="M179.518 164.686L179.209 157.839H172.349C169.073 160.122 164.871 161.972 159.618 163.391V164.686H172.04L176.304 164.007V164.686H179.518Z" fill="#CE2951"/>
<path d="M190.765 37.7482C192.249 35.9595 193.299 33.8007 193.114 31.3952C192.619 24.4253 182.917 25.9673 181.001 29.4831C179.085 32.9989 179.332 41.9425 181.804 42.5593C182.793 42.806 184.833 42.1892 186.996 40.8939L185.574 50.2693H193.423L190.765 37.7482Z" fill="#095411"/>
<path d="M174.944 62.482L166.725 54.957C162.399 53.7851 160.421 52.8599 160.792 52.3664C161.348 51.5646 162.522 52.2431 162.955 51.7496C163.449 51.2562 162.522 49.5292 161.595 47.8638C160.668 46.2601 161.657 46.3835 162.213 46.6302C164.067 47.8638 165.921 49.5908 167.775 51.8113L179.147 58.041L174.944 62.482ZM161.039 68.2182C158.876 66.6762 156.899 65.6277 155.045 65.1342C151.522 64.1473 150.101 63.4072 148.37 61.1867C147.443 60.0148 146.64 57.6709 147.567 56.8691C148.185 56.3756 151.522 59.9531 152.82 59.2746C153.067 59.1512 150.595 57.1158 151.337 57.4859C152.325 57.4859 155.663 57.856 156.404 60.5082L161.41 63.2221L161.039 68.2182Z" fill="#095411"/>
<path d="M184.647 56.6224C180.692 56.5607 175.377 55.7588 169.753 52.1814L167.528 57.1158C171.422 61.0016 176.922 64.1473 181.681 64.024C185.45 63.9006 187.366 59.3363 184.647 56.6224Z" fill="#26B759"/>
<path d="M179.27 64.5174C175.068 65.5659 167.961 64.3323 158.073 60.8166C155.601 65.8743 154.488 69.5135 154.674 71.6723C163.202 76.1132 170.495 78.087 176.489 78.2104C176.304 81.7878 176.737 85.1802 178.22 88.2642C181.248 94.6173 198.799 88.7577 204.67 89.8679C208.378 77.902 201.209 73.0292 201.209 65.3192C201.209 56.9307 194.473 43.9779 193.423 43.9779H184.338C183.844 50.516 181.372 57.5475 179.27 64.5174Z" fill="#4FD875"/>
<path d="M180.136 33.2456C179.888 34.3558 178.776 35.2194 178.653 36.3296C178.591 37.3165 179.456 37.3782 180.198 37.995" fill="#095411"/>
<path d="M180.754 32.6905C180.877 32.4437 181.124 32.2587 181.372 32.1353C181.619 32.012 181.928 32.012 182.237 32.0737C182.546 32.1353 182.793 32.3204 182.979 32.5054C183.164 32.6905 183.288 32.9989 183.288 33.2456C182.917 32.8138 182.546 32.6288 182.113 32.5054C181.681 32.4437 181.248 32.4437 180.754 32.6905Z" fill="#4FD875"/>
<path d="M180.136 39.537C180.568 39.4753 180.939 39.2903 181.31 39.1669C181.681 38.9819 182.113 38.8585 182.546 38.7968H182.793V39.0435C182.855 39.3519 182.669 39.5987 182.546 39.7837C182.422 39.9687 182.237 40.1538 182.051 40.2771C181.866 40.4005 181.681 40.5239 181.495 40.6472C181.31 40.7706 181.063 40.8323 180.877 40.8939C181.248 40.5855 181.557 40.3388 181.804 40.0304C181.928 39.8454 182.051 39.722 182.175 39.537C182.299 39.3519 182.36 39.2286 182.299 39.1052L182.546 39.2903C182.175 39.3519 181.742 39.4753 181.372 39.537C181.001 39.5987 180.568 39.6603 180.136 39.537Z" fill="#4FD875"/>
<path d="M181.681 33.7391C181.851 33.7391 181.99 33.601 181.99 33.4307C181.99 33.2603 181.851 33.1223 181.681 33.1223C181.51 33.1223 181.372 33.2603 181.372 33.4307C181.372 33.601 181.51 33.7391 181.681 33.7391Z" fill="#4FD875"/>
<path d="M58.2494 90.9589L70.302 133.211L79.1155 164.337H85.5184L76.1776 90.9589H58.2494Z" fill="#4FD875"/>
<path d="M55.0101 90.9589C54.7088 112.762 53.8048 124.565 53.5035 126.595C53.2022 128.55 48.7577 141.181 40.2456 164.337H46.8746C57.7972 142.083 63.8234 129.527 65.104 126.595C66.3846 123.663 70.3018 111.784 76.1774 90.9589H55.0101Z" fill="#82E59B"/>
<path d="M39.6433 170.351L39.9446 163.359H46.9501C50.2646 165.69 54.5584 167.569 59.9067 168.998V170.351H47.2515L42.9578 169.674V170.351H39.6433Z" fill="#4FD875"/>
<path d="M78.2114 170.351L78.5128 163.359H85.5184C88.8328 165.69 93.1265 167.569 98.4748 168.998V170.351H85.8196L81.5259 169.674V170.351H78.2114Z" fill="#4FD875"/>
<path d="M63.5226 49.1576C62.016 47.3532 60.9615 45.1729 61.1121 42.6919C61.6394 35.6248 71.5075 37.1284 73.466 40.7372C75.4246 44.3459 75.1985 53.4429 72.6373 54.0444C71.6581 54.2699 69.5489 53.6685 67.3643 52.3904L68.7203 61.9385H60.7355L63.5226 49.1576Z" fill="#82E59B"/>
<path d="M70.3019 36.8277C69.2473 36.527 67.6654 36.3766 66.9874 36.4518C67.364 35.5496 67.5147 34.5722 67.364 33.5197C67.2134 32.5423 66.8368 31.7153 66.3848 30.8883C66.2342 30.5124 66.0082 30.1365 65.7069 29.8358C65.4055 29.535 65.0289 29.3095 64.5769 29.2343C64.125 29.1591 63.673 29.1591 63.2964 29.2343C63.0704 29.3095 62.9197 29.3847 62.769 29.3847C62.543 29.4598 62.4677 29.3095 62.3171 29.1591C62.0157 28.8584 61.4885 28.708 61.1118 28.708C60.6599 28.6328 60.1325 28.708 59.6806 28.8584C59.2286 29.0087 58.852 29.2343 58.4753 29.6102C58.3247 29.7606 58.174 29.9861 58.0987 30.1365C58.0987 30.2117 58.0233 30.2869 57.948 30.2869C57.8726 30.2869 57.7974 30.2868 57.722 30.362C56.9688 30.5876 56.2908 31.189 55.9894 31.9409C55.7635 32.3919 55.6881 33.1438 55.6881 33.9708C55.6881 34.7978 56.5167 37.0532 57.1947 37.8802C57.8726 38.6321 58.7766 39.0832 59.6806 39.3087C59.0779 39.9853 58.6259 40.8875 58.3246 41.7897C58.0233 42.7671 57.7974 43.7444 57.722 44.797C57.6467 45.7744 57.6467 46.7517 57.8727 47.7291C58.0986 48.6313 58.5506 49.3079 59.3039 49.8342C59.6806 50.0598 60.0572 50.2101 60.4338 50.3605C60.8105 50.5108 61.1871 50.6612 61.5638 50.7364C62.3171 50.8868 63.1457 50.8868 63.7483 50.2853C63.9743 50.0597 64.2002 49.8342 64.3509 49.5335C64.4262 49.4583 64.4262 49.3831 64.3509 49.3079C64.2756 49.2327 64.125 49.0824 64.0497 49.0072C63.447 48.5561 63.1457 47.8795 63.0704 47.1276C62.995 46.3758 63.221 45.3233 63.9743 45.0225C64.8782 44.5715 65.9329 45.0977 66.7615 45.5488C67.1381 44.2707 67.8161 43.2182 68.946 42.6167C70.2266 42.0153 71.6578 41.9401 72.9384 41.3386C73.2397 41.1883 73.6164 41.0379 73.8424 40.7372C73.9177 40.5868 74.0683 40.4364 74.1436 40.2861C74.2189 40.0605 74.0683 39.9102 73.993 39.7598C73.541 38.9328 71.4318 37.2036 70.3019 36.8277Z" fill="#CE2951"/>
<path d="M74.3696 45.9999C74.3696 47.3532 75.8008 48.481 75.8008 49.8342C75.2735 49.9846 74.6709 50.0598 74.1436 50.135" fill="#82E59B"/>
<path d="M74.1436 52.0896C73.6917 52.24 73.1644 52.1648 72.7878 51.9393C72.4111 51.7137 72.0344 51.3378 71.8838 50.8867C72.3358 51.1123 72.6371 51.2626 73.0137 51.4882C73.315 51.6385 73.6917 51.7889 74.1436 52.0896Z" fill="#095411"/>
<path d="M72.0345 45.3985C71.9592 45.1729 72.1098 44.8722 72.3358 44.7218C72.4865 44.5715 72.7877 44.4963 73.0137 44.4211C73.2397 44.4211 73.4657 44.4211 73.6917 44.4963C73.9177 44.5715 74.0683 44.797 74.1436 45.0225C73.9176 44.9474 73.767 44.9474 73.5411 44.8722C73.3904 44.8722 73.1644 44.8722 73.0137 44.8722C72.863 44.8722 72.7124 44.9474 72.4864 44.9474C72.4111 45.1729 72.1851 45.2481 72.0345 45.3985Z" fill="#095411"/>
<path d="M73.5412 46.6766C73.7492 46.6766 73.9178 46.5083 73.9178 46.3007C73.9178 46.093 73.7492 45.9247 73.5412 45.9247C73.3332 45.9247 73.1646 46.093 73.1646 46.3007C73.1646 46.5083 73.3332 46.6766 73.5412 46.6766Z" fill="#095411"/>
<path d="M88.2304 80.1326L100.283 74.8699C102.392 72.7648 104.426 71.1859 106.385 70.0582C106.987 69.9078 107.966 69.8327 106.912 71.4115C105.857 72.9903 104.803 74.6443 105.179 75.2458C105.631 75.772 106.837 75.1706 107.364 76.0728C107.665 76.6742 105.631 77.3509 101.112 78.1779L92.0721 85.0946L88.2304 80.1326ZM39.4927 81.6363L46.2723 82.9895C39.4174 95.7705 35.7263 102.462 35.2743 103.289C34.1444 105.018 35.199 108.176 35.5757 109.83C33.1652 110.356 34.1444 106.747 31.056 107.499C28.2688 108.176 25.8582 109.98 23.2971 107.574C22.9958 107.273 22.7698 106.371 23.8244 105.92C26.5363 104.717 30.6039 102.537 31.2066 101.71C32.1105 100.432 34.8223 93.8158 39.4927 81.6363Z" fill="#82E59B"/>
<path d="M64.8031 56.1495L67.6655 55.6232C73.9178 61.713 76.479 76.2231 80.6974 78.1779C84.6145 79.9822 90.2641 78.2531 96.893 75.8472L98.9268 80.3582C92.9006 86.899 80.0194 92.3873 74.8217 89.2296C66.4602 84.3428 64.5017 66.3743 64.8031 56.1495Z" fill="#095411"/>
<path d="M52.2985 92.2369C63.8237 92.2369 72.3359 92.2369 77.7595 92.2369C78.8895 92.2369 78.7388 90.5829 78.5128 89.6807C76.5543 79.907 69.0215 69.3815 69.0215 55.4728L61.7145 54.3451C55.6129 64.1188 53.5037 76.1479 52.2985 92.2369Z" fill="#B7F9C1"/>
<path d="M49.7374 82.388C44.5397 91.7106 40.1706 98.477 36.6302 102.537L31.2819 101.484C34.747 80.2078 44.6903 64.4947 61.112 54.4203H61.1873H63.9744C70.528 76.8246 72.4112 91.7858 69.3981 99.2289H46.4982C47.0255 93.7406 48.1555 88.0267 49.7374 82.388Z" fill="#095411"/>
<path d="M23.1461 100.582L35.3493 142.459L41.0744 173.96H46.7993L41.0744 100.582H23.1461Z" fill="#095411"/>
<path d="M17.6472 100.582C18.4758 122.385 18.1745 134.189 17.9486 136.218C17.7226 138.173 16.668 151.405 9.28577 174.637H15.2367C24.9541 152.383 28.4193 139.151 29.4739 136.218C30.6038 133.286 33.9182 121.408 38.7392 100.582H17.6472Z" fill="#095411"/>
<path d="M22.845 100.582C26.0088 115.017 31.5078 138.023 39.2666 169.599H47.7034C48.306 137.121 45.6696 115.769 41.0745 100.582H22.845Z" fill="#095411"/>
<path d="M17.6473 100.582C18.4759 122.385 16.2914 143.812 9.66248 169.975H18.6266C28.4193 148.097 35.4248 126.746 40.1705 100.582H17.6473Z" fill="#137F3A"/>
<path d="M8.53235 178.922L8.83368 173.584C10.7922 174.185 13.2027 173.96 16.0652 172.907C19.229 175.088 23.1461 176.591 27.8918 177.418C28.2685 177.493 28.4944 177.794 28.4191 178.17V178.245L27.9672 179.824H16.0652H9.13501L8.53235 178.922Z" fill="#B7F9C1"/>
<path d="M39.7937 178.922L40.095 173.584C42.0536 174.185 44.4641 173.96 47.3266 172.907C50.4904 175.088 54.4074 176.591 59.1531 177.418C59.5298 177.493 59.7558 177.794 59.6805 178.17V178.245L59.2285 179.824H47.3266H40.3964L39.7937 178.922Z" fill="#B7F9C1"/>
<path d="M26.0838 58.7057C24.5773 56.9013 23.5226 54.721 23.6733 52.24C24.2006 45.1729 34.0686 46.6765 36.0272 50.2853C37.9857 53.894 37.7598 62.991 35.1986 63.5925C34.2193 63.818 32.1101 63.2166 29.9256 61.9385L31.2815 71.4866H23.2966L26.0838 58.7057Z" fill="#095411"/>
<path d="M25.4813 60.3597C24.502 55.9239 21.6395 52.9166 22.0915 50.8867C22.3928 49.5334 23.1461 48.7064 24.4266 48.4057C25.1046 45.7743 27.2138 44.6466 30.7543 45.0225C36.1026 45.624 39.3417 47.8042 37.9105 52.6911C36.6299 52.6911 35.048 52.24 32.9388 52.9918C32.2609 53.2174 31.7335 54.0444 31.5076 55.3225H30.5283C29.5491 53.7436 28.6451 53.2174 27.7411 53.5933C26.8372 54.0444 26.6112 55.0217 27.1385 56.6006L26.6865 60.2845H25.4813V60.3597Z" fill="#26B759"/>
<path d="M37.0819 55.8488C37.3832 56.8262 37.6092 57.8787 37.7599 58.8561C37.9105 59.9838 37.8352 60.5853 36.4792 60.4349" fill="#095411"/>
<path d="M35.8013 55.0969C35.4246 55.0218 35.1233 54.9466 34.822 54.8714C34.5206 54.8714 34.144 54.8714 33.7673 54.7962C33.918 54.721 34.0687 54.6458 34.2947 54.5707C34.4453 54.4955 34.6713 54.4955 34.8973 54.4955C35.1986 54.5707 35.5753 54.7962 35.8013 55.0969Z" fill="#095411"/>
<path d="M35.2742 56.6006C35.5238 56.6006 35.7262 56.3986 35.7262 56.1495C35.7262 55.9003 35.5238 55.6984 35.2742 55.6984C35.0246 55.6984 34.8223 55.9003 34.8223 56.1495C34.8223 56.3986 35.0246 56.6006 35.2742 56.6006Z" fill="#4FD875"/>
<path d="M36.4791 62.0137C36.1778 62.1641 35.8012 62.2392 35.4246 62.0889C35.0479 61.9385 34.8973 61.6378 34.6713 61.4122C34.8219 61.4122 35.0479 61.4874 35.1985 61.5626C35.3492 61.6378 35.4998 61.713 35.6505 61.7881C35.8011 61.8633 36.1778 61.8633 36.4791 62.0137Z" fill="#4FD875"/>
<path d="M49.0593 95.2442L59.0026 102.537C61.7144 103.289 63.9743 104.191 65.7822 105.243C66.2342 105.619 66.7615 106.446 64.9536 106.296C63.1457 106.146 61.2625 106.07 61.0365 106.672C60.8106 107.273 61.8651 108.025 61.3378 108.852C61.0365 109.378 59.4546 108.025 56.6674 104.792L46.7994 100.733L49.0593 95.2442ZM10.717 95.4698H17.2706C13.2028 108.476 11.0937 115.393 10.717 116.145C9.96374 117.949 11.5457 120.656 12.1483 122.159C10.0391 123.137 10.2651 119.603 7.55326 120.806C5.06742 121.934 3.25953 124.039 0.397046 122.235C0.0204034 122.009 -0.356295 121.182 0.622977 120.581C2.95816 119.002 6.2726 116.22 6.72457 115.318C7.3272 114.19 8.68315 107.574 10.717 95.4698Z" fill="#095411"/>
<path d="M29.3232 68.1034L32.0351 67.6523C42.0538 76.2983 46.1968 92.9136 58.4754 101.71L55.5375 105.394C34.1442 102.762 28.8712 82.4632 29.3232 68.1034Z" fill="#4FD875"/>
<path d="M17.4967 102.011C28.344 102.011 36.3289 102.011 41.4512 102.011C42.5812 102.011 42.3552 100.432 42.2045 99.6048C40.3966 90.4326 33.2404 80.5085 33.2404 67.502L26.3101 66.4495C20.5851 75.6217 18.6266 86.899 17.4967 102.011Z" fill="#B7F9C1"/>
<path d="M17.7227 75.4713C16.7434 75.1705 15.9148 74.4939 15.3121 73.4414C12.8263 68.9304 13.7303 66.3742 16.3668 65.5472C19.0786 64.7202 21.4891 66.4494 25.7828 66.4494C26.0088 66.4494 26.2348 66.4494 26.4608 66.5246L28.6454 66.675C34.8223 87.6508 36.5548 101.635 33.7676 108.627H14.9355C13.8056 111.258 12.751 113.438 11.6964 115.167H6.57405C6.04675 99.5296 9.81322 86.2975 17.7227 75.4713Z" fill="#82E59B"/>
<path d="M19.0031 97.8004C19.6057 102.762 20.585 106.371 21.8656 108.551H14.86C16.2159 105.544 17.5718 102.011 19.0031 97.8004Z" fill="#4FD875"/>
<path d="M216.27 114.227V132.632H167.272V150.51H133.079V191.525H328.018V114.227H216.27Z" fill="#137F3A"/>
<path d="M133.079 150.51L138.611 144.989H167.325V150.51H133.869H133.079Z" fill="#26B759"/>
<path d="M167.272 132.631L172.699 127.163H216.323V132.631H167.272Z" fill="#26B759"/>
<path d="M216.27 114.227L221.697 108.758H325.647L327.875 114.227H216.27Z" fill="#26B759"/>
<path d="M277.856 198.642L284.654 191.672H248.007L241.085 198.642H277.732" fill="#26B759"/>
<path d="M277.856 198.642H241.084V208.51H277.856V198.642Z" fill="#095411"/>
<path d="M284.654 201.17V191.672L277.856 198.642V208.51L284.654 201.17Z" fill="#095411"/>
<path d="M283.232 187.107L290.03 180.138H253.383L246.461 187.107H283.109" fill="#26B759"/>
<path d="M283.232 187.108H246.461V196.976H283.232V187.108Z" fill="#095411"/>
<path d="M290.03 189.698V180.138L283.232 187.108V196.976L290.03 189.698Z" fill="#095411"/>
<path d="M365.983 183.098H329.397C327.172 183.098 325.442 184.887 325.442 187.046V187.539H370V187.046C369.938 184.887 368.208 183.098 365.983 183.098Z" fill="#CE2951"/>
<path d="M345.094 133.754L329.768 183.098H365.612L350.286 133.754C349.482 131.225 345.898 131.225 345.094 133.754Z" fill="#F24C64"/>
<path d="M364.623 179.953H336.01C336.01 179.953 340.15 159.413 342.87 147.879C345.589 136.345 346.33 132.829 347.628 131.904C346.578 131.904 345.527 132.582 345.094 133.816L329.768 183.16H365.488L364.623 179.953Z" fill="#F24C64"/>
<path d="M332.92 172.859H362.399L359.247 162.62H336.134L332.92 172.859Z" fill="#CE2951"/>
<path d="M337.431 172.859C338.049 169.899 338.791 166.321 339.594 162.62H336.134L332.92 172.859H337.431Z" fill="#CE2951"/>
<path d="M339.347 152.382H356.033L352.881 142.143H342.499L339.347 152.382Z" fill="#CE2951"/>
<path d="M342.499 142.143L339.285 152.382H341.819C342.19 150.778 342.499 149.236 342.87 147.879C343.364 145.72 343.797 143.808 344.229 142.143H342.499Z" fill="#CE2951"/>
<path d="M347.69 183.098H329.892C327.42 183.098 325.38 185.134 325.38 187.601H347.628V183.098H347.69Z" fill="#CE2951"/>
<path d="M341.448 197.346C341.386 198.642 338.667 199.32 337.74 199.505C332.364 200.677 326.74 201.417 321.24 201.047C318.644 200.924 316.11 200.554 313.576 199.999C312.34 199.752 311.043 199.443 309.807 199.073C309.003 198.827 307.582 198.457 307.273 197.593C307.273 197.531 307.211 197.408 307.211 197.346L306.717 163.176H342.252C342.252 163.176 341.448 197.285 341.448 197.346Z" fill="#82E59B"/>
<path d="M324.515 158.426C314.751 158.426 306.778 160.523 306.778 163.176C306.778 165.766 314.689 167.925 324.515 167.925C334.341 167.925 342.252 165.828 342.252 163.176C342.252 160.585 334.341 158.426 324.515 158.426Z" fill="#095411"/>
<path d="M324.515 158.92C329.212 158.92 333.6 159.413 336.937 160.277C338.482 160.708 339.78 161.202 340.583 161.695C341.139 162.004 341.757 162.559 341.757 163.114C341.757 163.669 341.139 164.224 340.583 164.533C339.718 165.088 338.482 165.581 336.937 165.951C333.6 166.815 329.212 167.308 324.515 167.308C319.818 167.308 315.43 166.815 312.093 165.951C310.548 165.519 309.25 165.026 308.447 164.533C307.891 164.224 307.273 163.669 307.273 163.114C307.273 162.559 307.891 162.004 308.447 161.695C309.312 161.14 310.548 160.647 312.093 160.277C315.43 159.413 319.818 158.92 324.515 158.92ZM324.515 158.426C314.751 158.426 306.778 160.523 306.778 163.176C306.778 165.766 314.689 167.925 324.515 167.925C334.341 167.925 342.252 165.828 342.252 163.176C342.252 160.585 334.341 158.426 324.515 158.426Z" fill="#095411"/>
<path d="M324.639 182.605C314.812 182.605 306.655 174.525 306.346 164.347C306.346 163.977 306.593 163.731 306.964 163.731C307.273 163.731 307.582 163.977 307.582 164.347C307.829 174.031 315.677 181.68 325.071 181.433C329.583 181.309 333.847 179.397 336.937 176.005C340.089 172.613 341.695 168.172 341.572 163.484C341.572 163.114 341.819 162.867 342.19 162.867C342.499 162.867 342.808 163.114 342.808 163.484C342.931 168.48 341.139 173.229 337.802 176.869C334.465 180.508 329.892 182.605 325.009 182.728C325.009 182.605 324.824 182.605 324.639 182.605Z" fill="#137F3A"/>
<path d="M318.335 204.44L326.616 199.258L299.053 192.72L290.71 197.84L318.273 204.378" fill="#26B759"/>
<path d="M318.335 214L290.772 207.153L290.71 197.84L318.335 204.44V214Z" fill="#095411"/>
<path d="M326.678 208.51L326.616 199.258L318.335 204.44V214L326.678 208.51Z" fill="#095411"/>
<path d="M251.14 106.9L250.77 106.87L250.699 107.73L251.069 107.761L251.14 106.9Z" fill="#D4F4D7"/>
<path d="M277.039 108.989L251.639 106.892H251.33C251.082 106.892 250.835 107.077 250.773 107.323L250.712 107.693C250.712 107.94 250.835 108.125 251.021 108.187L263.134 112.196C263.628 112.381 264.184 112.443 264.74 112.319L277.348 110.284C277.595 110.222 277.718 110.037 277.78 109.852L277.842 109.482C277.842 109.235 277.657 108.989 277.409 108.927L277.039 108.989Z" fill="#095411"/>
<path d="M277.101 108.372L251.701 106.275H251.392C251.144 106.275 250.897 106.46 250.835 106.707L250.774 107.077C250.774 107.323 250.897 107.508 251.083 107.57L263.196 111.579C263.69 111.764 264.246 111.826 264.802 111.703L277.41 109.667C277.657 109.606 277.78 109.42 277.842 109.235L277.904 108.865C277.904 108.619 277.719 108.372 277.471 108.31L277.101 108.372Z" fill="#095411"/>
<path d="M265.789 100.456C266.071 97.0276 263.708 94.0354 260.51 93.7732C257.313 93.511 254.492 96.078 254.21 99.5069C253.927 102.936 256.291 105.928 259.488 106.19C262.686 106.452 265.506 103.885 265.789 100.456Z" fill="#095411"/>
<path d="M255.965 95.4808C255.965 95.4808 258.746 98.5648 258.993 98.7498C259.24 98.9349 259.302 98.2564 259.302 98.2564L259.673 99.3049L258.56 99.6133L255.718 95.7275L255.965 95.4808Z" fill="#095411"/>
<path d="M276.027 101.246C276.31 97.8169 273.946 94.8247 270.749 94.5625C267.552 94.3003 264.731 96.8673 264.448 100.296C264.166 103.725 266.529 106.717 269.727 106.979C272.924 107.242 275.745 104.675 276.027 101.246Z" fill="#095411"/>
<path d="M274.937 97.0845C274.937 97.0845 271.724 99.675 271.415 99.7984C271.106 99.9218 271.229 99.305 271.229 99.305L270.673 100.23L271.724 100.724L275.185 97.3929L274.937 97.0845Z" fill="#095411"/>
<path d="M277.409 102.142C277.1 99.4283 275.432 97.0845 275.432 97.0845L271.662 100.045C271.353 100.292 270.982 99.9834 271.106 99.6133L272.713 94.6173C271.106 93.3836 268.325 92.2117 266.038 92.0267C265.976 92.0267 265.915 92.0267 265.853 92.0267C265.791 92.0267 265.729 92.0267 265.667 92.0267C263.319 91.9033 260.476 92.5201 258.684 93.507L259.426 98.7498C259.487 99.1199 259.055 99.3666 258.808 99.1199L255.594 95.5425C255.594 95.5425 253.555 97.5779 252.813 100.23C252.071 102.882 251.948 105.165 251.824 106.398L264.555 108.064L264.802 105.411L264.617 108.064L277.471 108.495C277.471 107.138 277.718 104.856 277.409 102.142Z" fill="#4FD875"/>
<path d="M265.668 101.217L265.111 91.965C264.123 91.965 263.072 92.0884 262.083 92.2734L260.909 106.275L251.762 105.535C251.762 105.843 251.701 106.09 251.701 106.336L264.432 108.002L264.679 105.35L264.493 108.002H265.42C265.544 104.424 265.668 101.217 265.668 101.217Z" fill="#4FD875"/>
<path d="M264.122 101.094L266.224 92.0267C267.212 92.15 268.201 92.4584 269.19 92.8285L268.016 106.83L277.471 107.632C277.471 107.94 277.409 108.187 277.409 108.434L264.246 108.002L264.431 105.35L264.184 108.002L263.257 107.878C263.69 104.301 264.122 101.094 264.122 101.094Z" fill="#4FD875"/>
<path d="M266.903 108.619C265.111 109.297 263.381 109.174 261.774 108.187L263.072 92.4584C263.134 91.5332 263.875 90.9164 264.74 90.9781L266.903 91.1632C267.707 91.2248 268.325 92.0267 268.263 92.8902L266.903 108.619Z" fill="#82E59B"/>
<path d="M277.595 103.129L264.493 102.081L264.246 104.733L277.719 105.843C277.719 105.041 277.719 104.116 277.595 103.129Z" fill="#095411"/>
<path d="M269.19 103.808C269.252 103.314 269.19 102.882 269.066 102.451L264.493 102.081L264.246 104.733L268.819 105.103C269.005 104.733 269.128 104.239 269.19 103.808Z" fill="#095411"/>
<path d="M252.133 101.032L265.111 102.081L264.864 104.733L251.515 103.623C251.701 102.882 251.886 102.019 252.133 101.032Z" fill="#095411"/>
<path d="M260.229 103.067C260.291 102.574 260.414 102.142 260.6 101.772L265.173 102.142L264.926 104.794L260.353 104.424C260.229 103.993 260.229 103.561 260.229 103.067Z" fill="#095411"/>
<path d="M268.768 103.828C268.952 101.588 267.282 99.622 265.037 99.4379C262.792 99.2538 260.822 100.921 260.638 103.162C260.453 105.402 262.124 107.368 264.369 107.552C266.614 107.736 268.583 106.069 268.768 103.828Z" fill="#095411"/>
<path d="M267.659 103.737C267.793 102.108 266.578 100.678 264.945 100.544C263.313 100.41 261.88 101.623 261.746 103.252C261.612 104.882 262.827 106.312 264.46 106.446C266.092 106.579 267.525 105.367 267.659 103.737Z" fill="#B7F9C1"/>
</svg>
