<svg width="300" height="227" viewBox="0 0 300 227" fill="none" xmlns="http://www.w3.org/2000/svg">
<path d="M70.6727 97.8603C99.7073 83.2807 138.927 86.5204 154.907 89.9627C192.952 92.7391 248.287 118.06 270.886 136.473C293.485 154.886 305.916 184.409 295.112 199.08C286.795 210.374 273.142 216.902 243.782 219.878C201.08 224.206 142.737 208.586 120.225 207.068C97.7122 205.55 17.9678 207.791 7.94573 195.784C-2.07632 183.777 2.49985 167.366 16.3924 151.614C30.2851 135.862 34.3794 116.085 70.6727 97.8603Z" fill="#E8F4E8"/>
<path d="M38.5733 155.294L41.975 163.715L72.8379 169.164L60.901 180.372L28.8011 170.34L27.2549 164.891L36.5323 153.374L38.5733 155.294Z" fill="#095411"/>
<path d="M49.6444 168.421L52.0565 169.35C52.2421 169.412 52.3658 169.659 52.2421 169.845C51.871 170.774 50.8814 173.313 51.2525 175.542C51.5617 177.399 52.3658 179.133 52.9224 180.062C53.1698 180.495 53.0461 181.115 52.6132 181.424C52.1184 181.796 51.3762 181.61 51.0669 181.053C50.201 179.319 48.9022 175.604 50.0773 170.836C50.201 170.217 50.0773 169.597 49.5825 169.102L49.3352 168.854C49.2733 168.792 49.2114 168.669 49.2733 168.607C49.2733 168.421 49.4589 168.359 49.6444 168.421Z" fill="#095411"/>
<path d="M53.9737 166.006C54.0356 165.82 54.0356 165.634 53.9737 165.511C53.9119 165.325 53.85 165.077 53.7263 164.953L53.9119 163.343C53.9737 162.662 53.85 162.043 53.4789 161.486L52.1183 159.318L51.7472 159.38C51.7472 159.38 51.8709 160.247 52.1183 161.424C52.4894 161.424 52.7986 161.733 52.8605 162.105C52.9223 162.476 52.7367 162.848 52.3657 162.972C52.4275 163.405 52.5512 163.901 52.6131 164.396C52.5512 164.396 52.4894 164.396 52.4275 164.396C52.3657 164.396 52.3038 164.458 52.242 164.458C52.1801 163.963 52.0564 163.529 51.9946 163.034C51.6235 162.972 51.3142 162.724 51.2524 162.353C51.1905 161.981 51.3761 161.61 51.7472 161.486C51.5616 160.309 51.3761 159.442 51.3761 159.442L51.005 159.504L50.4483 162.043C50.3246 162.662 50.3865 163.343 50.6339 163.963L51.3761 165.449C51.3142 165.634 51.3142 165.882 51.3142 166.068C51.3142 166.254 51.4379 166.439 51.4998 166.563L50.7576 168.916L52.1183 169.474L52.7368 167.306V167.244C52.7986 167.244 52.8605 167.244 52.9223 167.244C52.9842 167.244 53.046 167.182 53.1079 167.182V167.244L54.4067 169.102L55.52 168.111L53.9737 166.006Z" fill="#26B759"/>
<path d="M56.2622 167.244L54.3448 168.978C54.1593 169.102 54.1593 169.35 54.3448 169.535C55.0252 170.279 56.757 172.322 57.1899 174.613C57.4992 176.471 57.3136 178.39 57.1281 179.443C57.0662 179.938 57.3755 180.434 57.8703 180.619C58.4888 180.805 59.1072 180.372 59.1691 179.752C59.4165 177.833 59.4165 173.87 56.6951 169.783C56.324 169.226 56.324 168.607 56.5714 167.987L56.757 167.616C56.8188 167.554 56.8188 167.43 56.757 167.368C56.6333 167.182 56.3859 167.121 56.2622 167.244Z" fill="#095411"/>
<path d="M52.7557 166.481C53.1933 166.406 53.487 165.989 53.4117 165.551C53.3364 165.113 52.9206 164.819 52.4829 164.894C52.0453 164.97 51.7516 165.386 51.8269 165.824C51.9022 166.262 52.318 166.556 52.7557 166.481Z" fill="#095411"/>
<path d="M86.4448 157.585L77.9096 160.619C77.5385 160.743 77.3529 161.176 77.4766 161.486L79.0847 165.944H79.1466C79.5177 166.13 81.7443 167.306 82.4246 167.74L84.4038 168.854C84.5893 168.978 84.7749 168.978 84.9604 168.916L89.8465 167.182C90.5269 166.935 90.898 166.192 90.6506 165.511L88.1147 158.39C87.8673 157.709 87.1252 157.337 86.4448 157.585ZM89.1043 165.511L86.6922 166.377C85.8882 166.625 85.0841 166.254 84.7749 165.449L83.476 161.795C83.2286 160.99 83.5997 160.185 84.4038 159.876L86.8159 159.009L89.1043 165.511Z" fill="#095411"/>
<path d="M49.4589 171.517L77.4767 161.548L79.0848 166.006C79.0848 166.006 82.7339 167.925 82.5483 167.987C82.3628 168.049 81.3113 170.898 81.3113 170.898L80.5073 169.907L79.8888 171.083L79.0229 170.155L78.59 171.393L77.6622 170.402L77.1056 171.703L76.2397 170.65L75.683 171.826L74.7553 170.898L74.2605 172.198L73.4564 171.083L72.9617 172.446L72.0339 171.331L71.5391 172.631L70.6114 171.641L70.1166 172.817L69.1888 171.826L68.6322 173.127L67.8281 172.074L67.3334 173.251L66.4675 172.384L65.849 173.56L64.9831 172.631L64.4883 173.808L63.6224 172.817L62.942 174.118L62.1999 173.127L61.7051 174.489L60.7155 173.498L60.2207 174.737L59.2929 173.746L58.7363 175.046L57.8704 174.056L57.2519 175.356L56.4479 174.365L55.9531 175.542L55.0253 174.613L54.5305 175.789L53.6646 174.861L53.1698 176.037L52.3039 175.108L51.6236 176.161L50.8814 175.48L49.4589 171.517Z" fill="#26B759"/>
<path d="M79.5589 162.139C79.8164 162.048 79.9507 161.764 79.859 161.506C79.7673 161.249 79.4843 161.114 79.2268 161.206C78.9694 161.298 78.8351 161.581 78.9268 161.839C79.0185 162.097 79.3015 162.231 79.5589 162.139Z" fill="#095411"/>
<path d="M80.6117 165.043C80.8691 164.951 81.0034 164.668 80.9117 164.41C80.82 164.153 80.537 164.018 80.2796 164.11C80.0222 164.202 79.8878 164.485 79.9795 164.743C80.0712 165 80.3543 165.135 80.6117 165.043Z" fill="#095411"/>
<path d="M36.5323 153.374L25.152 166.873L65.0449 174.551L73.6419 159.752L36.5323 153.374ZM63.3749 172.074L29.234 165.634L37.1508 155.975L69.5599 161.733L63.3749 172.074Z" fill="#137F3A"/>
<path d="M25.152 166.873L27.626 179.257L66.5911 187.307L65.0449 174.551L25.152 166.873Z" fill="#26B759"/>
<path d="M73.6419 159.752L65.0448 174.551L66.591 187.307L77.1054 183.406L80.1361 172.508L73.6419 159.752Z" fill="#4FD875"/>
<path d="M20.9463 163.158C19.833 158.823 23.2965 156.099 23.2965 156.099L25.0902 154.798C25.2139 154.736 25.3376 154.736 25.4613 154.798C25.9561 155.046 26.5746 154.984 27.0694 154.674C27.5641 154.303 27.8115 153.746 27.6878 153.188C27.6878 153.064 27.7497 152.941 27.8115 152.817L29.4196 151.64C29.5433 151.578 29.667 151.578 29.7289 151.702L31.5844 154.303C31.6462 154.427 31.6462 154.551 31.5225 154.612L29.9144 155.789C29.7907 155.851 29.667 155.851 29.5433 155.789C29.0485 155.541 28.43 155.603 27.9352 155.913C27.8734 155.913 27.8734 155.975 27.8115 155.975C27.2549 156.47 27.1931 157.399 27.626 158.018L27.9971 158.513L33.7491 166.439L30.2237 165.758L26.0179 159.876L25.3994 159.009C23.111 158.328 21.8121 161.61 21.3174 163.096C21.2555 163.343 20.9463 163.343 20.9463 163.158Z" fill="#4FD875"/>
<path d="M59.9115 171.641L60.9011 171.022L61.4577 171.888L62.3236 171.331L61.5814 170.155L60.8392 168.978L59.9733 169.535L60.53 170.464L58.9219 171.455" fill="#4FD875"/>
<path d="M62.571 167.925L60.8392 168.978L62.3236 171.331L64.0554 170.278H64.7976C65.1687 170.278 65.5398 170.155 65.9109 169.969L70.797 166.935C71.1062 166.749 71.2299 166.316 70.9825 166.006L70.2404 164.829L69.4982 163.653C69.3126 163.343 68.8797 163.219 68.5704 163.467L63.6843 166.501C63.3751 166.687 63.0658 166.997 62.9421 167.368L62.571 167.925Z" fill="#095411"/>
<path d="M69.7509 165.544L64.7117 168.688L65.1368 169.371L70.176 166.228L69.7509 165.544Z" fill="#4FD875"/>
<path d="M68.8898 164.189L63.8506 167.333L64.2758 168.016L69.315 164.873L68.8898 164.189Z" fill="#4FD875"/>
<path d="M242.12 69.8425L228.142 105.261L218.803 135.107H215.092L229.379 69.8425H242.12Z" fill="#82E59B"/>
<path d="M244.903 69.8425C245.027 82.2886 247.191 99.0073 247.563 99.7504C247.81 100.246 255.789 106.809 271.498 119.441L268.962 122.166C250.408 111.33 240.759 105.199 239.893 103.775C238.594 101.608 234.389 81.6694 231.049 69.7806H244.903V69.8425Z" fill="#82E59B"/>
<path d="M271.832 118.575C272.681 118.913 273.275 119.141 273.601 119.433C273.966 119.773 274.491 120.302 275.127 121.061C274.78 121.514 271.301 125.649 264.833 133.345C263.477 132.787 263.095 132.138 263.56 131.344C264.064 130.597 264.474 129.93 264.781 129.429L267.004 121.581C267.059 121.454 267.201 121.334 267.328 121.389L268.525 121.758C269.347 121.39 269.956 120.96 270.295 120.594C270.587 120.268 270.814 119.673 271.01 118.943C271.167 118.649 271.491 118.457 271.832 118.575Z" fill="#095411"/>
<path d="M220.287 133.745C220.596 134.612 220.782 135.231 220.782 135.665C220.782 136.16 220.72 136.903 220.534 137.894C219.916 137.894 214.597 137.894 204.515 137.894C204.082 136.531 204.33 135.788 205.257 135.665C206.185 135.541 206.927 135.479 207.484 135.355L214.968 132.011C215.091 131.949 215.277 132.011 215.339 132.135L215.834 133.312C216.638 133.683 217.318 133.869 217.875 133.869C218.308 133.869 218.864 133.683 219.606 133.373C219.792 133.312 220.163 133.435 220.287 133.745Z" fill="#095411"/>
<path d="M232.719 132.073L215.153 130.154L228.204 69.8425H243.913L232.719 132.073Z" fill="#CE2951"/>
<path d="M267.849 115.107L256.345 128.791C244.223 115.54 237.11 106.871 235.131 102.785C233.152 98.6977 231.296 87.7377 229.688 69.9044H247.439C248.305 85.6324 248.923 93.8679 249.232 94.6109C249.542 95.354 255.665 102.165 267.849 115.107Z" fill="#F24C64"/>
<path d="M239.46 34.176C240.759 32.628 241.687 30.7703 241.501 28.665C241.068 22.5968 232.595 23.8971 230.987 26.9932C229.317 30.0892 229.564 37.8913 231.667 38.3866C232.533 38.6343 234.327 38.077 236.182 36.9625L235.007 45.136H241.811L239.46 34.176Z" fill="#82E59B"/>
<path d="M244.532 26.5597C244.779 26.312 244.903 26.0024 244.965 25.7547C245.089 25.4451 245.15 25.1355 245.274 24.8259C245.398 24.2067 245.398 23.4636 244.965 22.9683C244.594 22.5968 244.037 22.411 243.542 22.3491C243.233 22.3491 242.862 22.3491 242.553 22.4729C242.244 22.5968 241.934 22.7825 241.625 22.9064C241.625 22.2252 241.501 21.4822 241.13 20.9249C240.821 20.3676 240.264 20.058 239.646 19.9342C239.027 19.8722 238.409 19.9961 237.852 20.3057C237.729 20.3676 237.543 20.4914 237.419 20.5534C237.296 20.6153 237.172 20.7391 237.048 20.7391C236.925 20.801 236.801 20.6772 236.739 20.5534C236.615 20.4295 236.492 20.3057 236.368 20.2438C235.811 19.8103 235.007 19.6245 234.327 19.8722C234.018 19.9961 233.708 20.1818 233.523 20.4914C233.337 20.7391 233.214 21.1107 232.966 21.2964C232.842 21.3583 232.781 21.2964 232.657 21.1726C232.533 21.0487 232.348 20.9249 232.224 20.863C232.038 20.7391 231.791 20.6153 231.544 20.5534C231.173 20.4914 230.678 20.4914 230.554 20.9868C230.492 21.1726 230.554 21.3583 230.554 21.5441C230.554 21.7918 230.616 22.0395 230.616 22.2871C230.616 22.4729 230.678 22.6587 230.678 22.8444C230.678 22.9683 230.74 23.154 230.74 23.216C230.678 23.3398 230.43 23.2779 230.368 23.2779C230.183 23.2779 229.936 23.3398 229.75 23.4017C229.626 23.4636 229.441 23.5875 229.379 23.7113C229.317 23.8352 229.379 23.8971 229.379 24.0209C229.379 24.1448 229.379 24.2067 229.379 24.3305C229.131 24.2067 228.142 23.8971 228.018 24.3925C227.956 24.5782 228.08 24.764 228.142 24.8878C228.266 25.1355 228.451 25.3832 228.575 25.569C228.946 26.0024 229.317 26.3739 229.75 26.7455C229.255 26.9932 229.07 27.6743 229.564 28.0458C229.75 28.2316 229.997 28.2935 230.245 28.2316C230.307 28.2316 230.492 28.1696 230.554 28.2316C230.616 28.2316 230.616 28.2935 230.678 28.2935C231.049 28.2935 231.42 28.2316 231.791 28.1696C232.41 28.0458 232.966 27.7362 233.461 27.3028C233.585 27.1789 233.708 27.117 233.832 27.117C233.956 27.117 234.141 27.1789 234.265 27.1789C234.636 27.1789 235.007 26.9932 235.316 26.8693C235.316 27.3647 235.502 27.86 235.688 28.2935C235.873 28.665 236.182 28.665 236.492 28.7269C237.543 28.8508 238.594 28.7269 239.584 28.7269C238.594 28.9746 237.543 29.0365 236.553 29.3462C236.12 29.47 236.43 29.7796 236.615 29.9654C236.925 30.3369 237.172 30.7703 237.357 31.2038C237.852 30.5846 238.718 30.1511 239.46 30.3369C240.326 30.5846 240.883 31.6991 240.388 32.566C240.079 33.0614 239.522 33.2472 239.027 33.4329C239.399 33.8045 239.46 34.3618 239.708 34.8571C239.831 35.1048 239.955 35.3525 240.203 35.4144C240.264 35.4144 240.388 35.4763 240.45 35.5383C240.512 35.6002 240.574 35.724 240.697 35.7859C241.13 36.0955 241.872 36.0955 242.244 35.6621C242.615 35.2906 242.491 34.6714 242.182 34.2998C242.677 34.1141 243.542 33.8664 243.357 33.0614C244.408 32.9995 246.944 31.2657 245.522 30.0273C246.264 29.5938 247.006 28.5412 246.511 27.6124C246.14 26.9312 245.212 26.6216 244.532 26.5597Z" fill="#B7F9C1"/>
<path d="M222.39 69.9044L213.422 73.6197C210.886 76.5919 209.464 77.8303 209.154 77.3349C208.721 76.5919 209.711 75.9107 209.464 75.3535C209.216 74.7962 207.546 74.8581 205.938 74.9819C204.33 75.1058 204.763 74.3627 205.196 74.0531C206.866 73.0624 208.907 72.2574 211.381 71.5763L220.473 64.8888L222.39 69.9044ZM258.881 83.3413C259.314 84.1462 262.283 86.685 264.386 88.1092C265.252 88.6665 264.881 89.4095 264.571 89.5953C261.974 91.2052 260.304 89.2857 258.077 88.295C255.603 87.1804 255.851 90.4003 253.871 89.5334C254.49 88.1711 255.851 85.6943 255.17 84.0843C254.861 83.3413 252.882 77.0872 249.233 65.1984H255.17C257.088 76.1584 258.325 82.2267 258.881 83.3413Z" fill="#82E59B"/>
<path d="M238.285 40.2442L235.811 39.8108C226.72 47.6748 222.947 62.8454 211.752 70.8952L214.473 74.2389C233.894 71.824 238.656 53.3096 238.285 40.2442Z" fill="#095411"/>
<path d="M248.985 71.1429C239.151 71.1429 231.853 71.1429 227.214 71.1429C226.225 71.1429 226.41 69.7187 226.534 68.9756C228.204 60.6163 234.636 51.5758 234.636 39.687L240.883 38.6962C246.202 47.0556 247.996 57.3345 248.985 71.1429Z" fill="#4FD875"/>
<path d="M248.862 46.9317C249.789 46.684 250.47 46.0648 251.026 45.0741C253.315 40.9254 252.511 38.6343 250.037 37.8913C247.563 37.1482 245.398 38.6962 241.502 38.6962C241.316 38.6962 241.069 38.6962 240.945 38.7582L238.966 38.882C233.337 58.0156 231.791 70.7713 234.327 77.1492H251.459C252.449 79.5022 253.438 81.4837 254.366 83.1556H259.005C259.376 68.9137 256.036 56.8391 248.862 46.9317Z" fill="#137F3A"/>
<path d="M247.686 67.3038C247.13 71.824 246.264 75.1058 245.089 77.1492H251.459C250.222 74.3628 248.985 71.081 247.686 67.3038Z" fill="#095411"/>
<path d="M229.997 31.5134C230.059 32.6279 228.76 33.4329 228.884 34.5475C229.317 34.6713 229.874 34.6713 230.245 34.7952" fill="#82E59B"/>
<path d="M230.616 30.9561C230.678 30.7703 230.925 30.6465 231.111 30.5846C231.296 30.5227 231.544 30.5227 231.729 30.5846C231.915 30.6465 232.1 30.7084 232.286 30.8323C232.471 30.9561 232.595 31.08 232.719 31.2657C232.348 31.08 232.038 30.9561 231.667 30.8942C231.358 30.7704 230.987 30.7084 230.616 30.9561Z" fill="#095411"/>
<path d="M230.43 36.5909C230.678 36.529 230.925 36.467 231.173 36.4051C231.42 36.3432 231.606 36.2194 231.853 36.0955L232.1 35.9717V36.2194C232.1 36.4051 232.039 36.5909 231.915 36.6528C231.791 36.7767 231.729 36.8386 231.606 36.9005C231.358 37.0243 231.111 37.0863 230.863 37.2101C231.049 37.0243 231.296 36.9005 231.482 36.7147C231.667 36.5909 231.853 36.4051 231.791 36.2194L232.039 36.3432C231.544 36.7147 230.925 36.7147 230.43 36.5909Z" fill="#095411"/>
<path d="M231.111 32.0707C231.281 32.0707 231.42 31.9321 231.42 31.7611C231.42 31.5901 231.281 31.4515 231.111 31.4515C230.94 31.4515 230.801 31.5901 230.801 31.7611C230.801 31.9321 230.94 32.0707 231.111 32.0707Z" fill="#095411"/>
<path d="M17.0498 72.1954L64.8594 64.2696L67.3334 43.0926L67.8282 31.1418L66.4675 6.93066L24.7191 8.231L20.6371 10.8936L18.596 18.1384L19.8949 30.7083L20.3897 42.721L19.8949 52.5046L18.9671 62.35L17.0498 72.1954Z" fill="#137F3A"/>
<path d="M64.8594 64.2695L63.2513 63.898C63.2513 63.8361 65.4779 54.5479 66.0964 49.5323C67.3334 39.7488 67.2716 28.7269 66.0346 14.7946V14.5469C65.7253 10.8936 65.2924 6.74489 67.1479 3.27731C68.1993 1.35775 70.3022 -0.376037 72.5906 0.305095C75.0646 1.04815 76.116 4.32996 76.7964 6.4972C76.8582 6.74488 76.9201 6.99257 77.0438 7.17834L75.4357 7.73562C75.3738 7.54986 75.312 7.30218 75.1883 7.05449C74.6316 5.25878 73.7657 2.47234 72.0958 1.97697C70.797 1.60544 69.3744 2.78194 68.6322 4.14421C67.0242 7.17834 67.3953 10.8317 67.7045 14.4231V14.6708C69.0033 28.6649 69.0033 39.8107 67.7664 49.7181C67.1479 54.8575 64.9831 63.898 64.8594 64.2695Z" fill="#E8F4E8"/>
<path d="M22.8636 8.16909L24.5954 7.67372L71.1062 0.0574251C71.1062 0.0574251 75.1264 -1.11907 76.9819 7.17835L29.1723 15.1042C29.1104 15.1042 28.1827 12.0082 27.9972 11.6367C27.5024 10.5221 26.6365 9.53135 25.6469 8.7883C24.781 8.23101 23.8532 8.23101 22.8636 8.16909Z" fill="#82E59B"/>
<path d="M76.8131 6.55496L29.0214 14.7544L29.1467 15.4867L76.9384 7.28731L76.8131 6.55496Z" fill="#095411"/>
<path d="M21.1318 128.172C21.07 128.172 21.07 128.172 21.0081 128.172C20.2041 128.11 19.6474 127.429 19.7093 126.624L28.3682 21.2964C28.43 20.4914 29.1104 19.9341 29.9144 19.996C30.7185 20.0579 31.2751 20.7391 31.2133 21.5441L22.5543 126.872C22.4925 127.615 21.874 128.172 21.1318 128.172Z" fill="#095411"/>
<path d="M45.1913 152.755C44.3873 152.755 43.7688 152.136 43.7688 151.331L42.0989 85.5085C42.0989 84.7035 42.7174 84.0224 43.5214 84.0224C44.3255 84.0224 45.0058 84.6416 45.0058 85.4466L46.6757 151.269C46.6757 152.074 45.9954 152.755 45.1913 152.755Z" fill="#095411"/>
<path d="M92.8773 137.832C92.1969 137.832 91.5784 137.336 91.4547 136.655L80.8785 77.5826C80.7548 76.7776 81.2496 76.0346 82.0536 75.9107C82.8577 75.7869 83.5999 76.2823 83.7236 77.0872L94.2998 136.16C94.4235 136.965 93.9287 137.708 93.1247 137.832C93.001 137.832 92.9391 137.832 92.8773 137.832Z" fill="#095411"/>
<path d="M29.1105 15.1042L39.1919 86.7469L88.1767 76.0965L76.9201 6.93066L29.1105 15.1042Z" fill="#82E59B"/>
<path d="M29.1104 15.1042C28.5537 12.6274 27.3167 9.03596 24.7191 8.23099C22.4306 7.54986 20.3278 9.34557 19.2763 11.2032C17.4208 14.6708 17.7919 18.8195 18.163 22.4728V22.7205C19.4619 36.5908 19.4619 47.6747 18.2249 57.4582C17.6064 62.4738 15.5035 71.3285 15.4417 71.3905L16.9879 72.1954C17.0497 71.8239 19.2763 62.7834 19.8948 57.644C21.1318 47.7366 21.1318 36.5908 19.833 22.5967V22.349C19.5237 18.7576 19.1526 15.0423 20.7607 12.0701C21.5029 10.7078 22.9254 9.53133 24.2243 9.90286C27.9352 11.0174 27.9971 18.8814 28.43 22.1632C29.2341 27.798 30.0381 33.4329 30.8422 39.0677C31.8318 45.9409 32.8213 52.8761 33.8109 59.7493C34.6768 65.6937 35.5427 71.6381 36.3468 77.5826C36.7179 80.369 36.9653 81.979 37.3364 84.7654L37.4601 86.0658L39.0063 86.7469C38.697 84.4558 38.3878 82.1647 38.0167 79.8736C37.2127 74.3627 36.4705 68.7898 35.6664 63.2788C34.7387 56.5294 33.7491 49.78 32.8213 42.9687C31.9555 36.9624 31.1514 31.0179 30.2855 25.0116C29.8526 21.8536 29.5433 18.6337 28.9248 15.4758C29.1722 15.3519 29.1104 15.2281 29.1104 15.1042Z" fill="#095411"/>
<path d="M34.9243 35.6001C35.048 35.4763 35.1717 35.4763 35.2954 35.4763C35.3573 35.4763 35.3573 35.5382 35.3573 35.5382L35.2954 35.662C35.2336 35.662 35.1099 35.662 34.9243 35.6001C34.9243 35.662 34.9243 35.6001 34.9243 35.6001Z" fill="#CE2951"/>
<path d="M57.3138 37.3958C57.1282 37.5197 56.9427 37.6435 56.819 37.7054C56.4479 37.9531 56.0768 38.2008 55.7057 38.4485C55.0872 38.8819 54.4687 39.3154 53.7883 39.7488C53.7265 39.8108 53.6646 39.8727 53.6028 39.9346C53.5409 39.9965 53.4791 40.0584 53.4173 40.0584C53.3554 40.0584 53.3554 39.9346 53.2936 39.8727C53.1699 39.1916 53.0462 38.5723 52.9225 37.8912C52.9225 37.7674 52.8606 37.7054 52.8606 37.5816H52.7988C52.7988 37.7054 52.7988 37.8293 52.7988 37.8912C52.9843 38.8819 53.1699 39.9346 53.3554 40.9253C53.4791 41.4826 53.6028 41.978 53.6647 42.5353C53.7884 43.0926 53.9121 43.6499 53.9739 44.2072C54.0357 44.5168 54.0976 44.8264 54.1594 45.1979C54.1594 45.3217 54.0976 45.3836 53.9739 45.3836C53.8502 45.3836 53.7884 45.4456 53.8502 45.5694C53.9121 46.0648 54.0357 46.6221 54.0976 47.1174C54.0976 47.2413 54.0976 47.3651 54.0976 47.489C54.0357 47.2413 53.9739 47.0555 53.912 46.8078C53.8502 46.4363 53.7884 46.1267 53.7265 45.7552C53.7265 45.6933 53.7265 45.6313 53.7265 45.5694C53.7265 45.4456 53.6647 45.3837 53.541 45.4456C53.3554 45.5075 53.2936 45.4456 53.2317 45.1979C53.1699 44.7025 53.0462 44.1452 52.9843 43.6499C52.7988 42.783 52.6751 41.9161 52.4895 41.1111C52.3658 40.43 52.1803 39.6869 52.0566 39.0058C51.9947 38.5723 51.871 38.2008 51.8092 37.7674C51.8092 37.7054 51.7473 37.5816 51.6855 37.5197H51.6236C51.6236 37.5816 51.6236 37.7054 51.6236 37.7674C51.7473 38.4485 51.871 39.0677 52.0566 39.7488C52.1184 39.9346 51.9947 40.1204 51.7473 40.1823C51.1288 40.3061 50.5103 40.43 49.8918 40.5538C49.7681 40.5538 49.6444 40.6157 49.4589 40.6777C49.4589 40.8015 49.4589 40.9253 49.5207 41.0492C49.7063 41.978 49.8918 42.9687 50.0774 43.8976C50.2011 44.5168 50.3248 45.136 50.4485 45.7552C50.5103 46.0029 50.4485 46.0648 50.2011 46.0648C49.8918 46.1267 49.8918 46.1267 49.9537 46.4363C50.0155 46.684 50.0155 46.8698 50.0155 47.1174C50.0774 47.3651 50.1392 47.6128 50.2011 47.8605C50.2629 48.0463 50.2629 48.232 50.3248 48.4797H50.2629C50.2011 48.3559 50.2011 48.2939 50.1392 48.1701C50.0774 47.6128 49.9537 47.1174 49.8918 46.5602C49.83 46.1267 49.83 46.1267 49.3352 46.1886C49.0259 46.2505 48.9641 46.1886 48.9641 45.9409C48.8404 45.2598 48.7167 44.5168 48.593 43.8356C48.4693 43.1545 48.3456 42.5353 48.2219 41.8542C48.0982 41.3588 47.9745 40.8634 47.9127 40.3681C47.789 39.625 47.6034 38.9439 47.6653 38.2008C47.7271 37.6435 47.6653 37.1482 47.6034 36.5909C47.6034 36.467 47.5416 36.4051 47.4179 36.467C46.8612 36.5909 46.3046 36.7147 45.7479 36.7766C45.5624 36.8386 45.5005 36.9005 45.5624 37.0862C45.6861 37.4578 45.8716 37.8293 45.9953 38.2008C46.0572 38.5104 46.119 38.82 46.1809 39.1296C46.3664 40.1823 46.6138 41.2349 46.7994 42.2876C46.9849 43.1545 47.1705 44.0833 47.2942 44.9502C47.356 45.3837 47.4797 45.8171 47.6034 46.2506C47.6653 46.5602 47.5416 46.6221 47.2942 46.684C46.9849 46.684 46.9849 46.684 47.0468 46.9936C47.0468 47.0555 47.0468 47.1794 47.0468 47.2413C46.9849 47.1174 46.9849 47.0555 46.9849 46.9936C46.9231 46.684 46.9231 46.684 46.552 46.7459C46.4283 46.7459 46.2427 46.8698 46.119 46.7459C46.0572 46.684 45.9953 46.6221 45.9953 46.5602C45.8098 45.6313 45.6242 44.6406 45.4387 43.7118C45.1913 42.5353 45.0057 41.2969 44.7583 40.1204C44.6965 39.7488 44.6346 39.3773 44.5109 39.0677C44.3254 38.5723 44.3254 38.077 44.2635 37.5816C44.2635 37.272 44.1398 37.2101 43.8306 37.272C43.3358 37.3339 42.841 37.4578 42.3462 37.5197C42.2225 37.5197 42.1607 37.5197 42.037 37.5816C41.9751 37.5816 41.9751 37.6435 41.9751 37.6435L42.037 37.7054C42.0988 37.7674 42.1607 37.8293 42.1607 37.8912C42.2843 38.5723 42.4081 39.2535 42.5318 39.9346C42.6554 40.6157 42.841 41.2969 42.9647 41.9161C43.1502 42.8449 43.3358 43.7737 43.5213 44.7025C43.645 45.3217 43.7687 45.9409 43.8924 46.5602C43.9543 46.7459 43.9543 46.8698 44.0161 47.0555C44.078 47.1794 44.0161 47.3032 43.8924 47.3032C43.7687 47.3032 43.645 47.3651 43.4595 47.3651C43.5213 48.1082 43.7069 48.9132 43.8306 49.6562C43.7687 49.6562 43.7687 49.6562 43.7069 49.6562C43.645 49.2228 43.5213 48.8512 43.4595 48.4178C43.3976 48.1082 43.3358 47.8605 43.3358 47.5509C43.3358 47.427 43.2739 47.3032 43.0884 47.3651C43.0265 47.3651 42.9647 47.427 42.9029 47.427C42.5936 47.489 42.4699 47.489 42.4081 47.1174C42.3462 46.6221 42.2225 46.0648 42.1607 45.5694C42.0988 45.074 41.9751 44.6406 41.8514 44.1452C41.6659 43.1545 41.4803 42.1018 41.2329 41.1111C41.0474 40.3061 40.9237 39.5012 40.7381 38.6962C40.6144 38.2008 40.5526 37.7054 40.4289 37.1482C40.4289 37.0243 40.4289 36.9624 40.5526 36.9005C40.7381 36.8385 40.7381 36.7766 40.7381 36.5909C40.6763 36.1574 40.6763 36.1574 40.2433 36.2813C39.7485 36.3432 39.3156 36.467 38.8208 36.5289C38.5734 36.5909 38.5115 36.5289 38.4497 36.2813C38.3878 35.9097 38.326 35.4763 38.2641 35.1048C38.2023 34.919 38.1404 34.8571 37.893 34.919C37.3982 35.0428 36.8416 35.1667 36.285 35.2286C36.1613 35.2286 35.9139 35.3524 35.9139 35.1667C35.852 34.9809 36.0994 34.9809 36.285 34.9809C36.8416 34.8571 37.3982 34.7952 37.9549 34.6713C38.0786 34.6713 38.1404 34.5475 38.1404 34.4236C38.0786 33.9902 37.9549 33.5567 37.893 33.1233C37.893 32.9994 37.893 32.8756 37.893 32.7518C37.893 32.7518 37.9549 32.6898 38.0167 32.6898C38.6352 32.566 39.1919 32.4422 39.8104 32.3802C39.9959 32.3802 40.0578 32.2564 39.9959 32.1326C39.9341 31.9468 39.9341 31.8229 39.8722 31.6372C39.8104 31.3895 39.8722 31.1418 39.9959 30.956C39.9341 30.8941 39.8722 30.8941 39.7485 30.8322C39.9341 30.8322 39.9959 30.7084 40.1196 30.8322H40.1815C40.9855 30.6464 41.8514 30.5226 42.6554 30.3368C42.841 30.2749 43.0265 30.213 43.1502 30.4607C43.2121 30.5226 43.3976 30.5845 43.4595 30.5226C43.5832 30.4607 43.7069 30.3368 43.7687 30.2749C43.8306 30.1511 43.8924 30.0272 44.0161 30.0272C44.3254 29.9653 44.6346 29.9034 44.9439 29.8415C45.3768 29.7796 45.8098 29.6557 46.2427 29.5938C46.3664 29.5938 46.4901 29.6557 46.552 29.7176C46.6757 29.8415 46.8612 29.9653 47.0468 29.8415C47.1705 29.7796 47.2942 29.7176 47.2323 29.5319C47.1086 29.0365 47.0468 28.6031 46.9849 28.1077C46.8612 27.3646 46.7375 26.6216 46.6138 25.8785C46.552 25.6928 46.552 25.4451 46.4901 25.2593C46.4283 25.0735 46.4901 25.0116 46.6757 24.9497C47.2323 24.8259 47.8508 24.702 48.4074 24.5782C48.7167 24.5163 48.9022 24.5782 48.9641 24.9497C49.0878 25.5689 49.2115 26.1881 49.3352 26.8073C49.397 27.1169 49.4589 27.3646 49.5207 27.6123C49.5207 27.6742 49.5826 27.7362 49.6444 27.7362C49.8918 27.7362 49.8918 27.6742 49.9537 27.5504C50.1392 27.6742 50.3248 27.6123 50.4485 27.5504C50.5103 27.5504 50.5103 27.4265 50.5103 27.4265C50.4485 27.055 50.3866 26.7454 50.3248 26.3739C50.2011 25.7547 50.0774 25.1974 49.9537 24.5782C49.8918 24.3924 49.9537 24.3305 50.1392 24.3924C50.634 24.5163 51.1288 24.5782 51.6236 24.702C51.9947 24.7639 52.3658 24.8259 52.7988 24.8878C53.2317 24.9497 53.7265 25.0116 54.1594 25.1355C54.345 25.1974 54.5305 25.2593 54.7161 25.3212C54.9016 25.3832 55.149 25.3832 55.3346 25.3832C56.0149 25.507 56.6953 25.6308 57.3756 25.7547H57.4375C57.9323 25.8166 57.9323 25.8166 57.9941 26.312C57.9941 26.4977 57.9941 26.6835 58.056 26.8693C58.1178 27.1169 58.1797 27.3646 58.3034 27.5504C58.4271 27.6742 58.5508 27.86 58.86 27.7981C59.2311 27.6742 59.6022 27.6742 59.9733 27.6123C60.1588 27.6123 60.3444 27.4885 60.4681 27.3646C60.5299 27.2408 60.5299 27.1169 60.5299 26.9931C60.5299 26.6835 60.4681 26.6835 60.7773 26.6216C61.4577 26.4977 62.0762 26.3739 62.7565 26.2501C63.1276 26.1881 63.4987 26.0643 63.8698 26.0024C64.2409 25.9404 64.5502 25.8785 64.9213 25.8166C65.1068 25.7547 65.2924 25.7547 65.4779 25.6928C65.5398 25.6928 65.6634 25.6928 65.7253 25.7547C65.9108 25.8785 66.1582 26.0024 66.3438 26.1881C66.4056 26.1881 66.4056 26.25 66.4675 26.312C66.5912 27.1169 66.7149 27.9219 66.9004 28.7269C66.9004 28.9127 67.0241 28.9746 67.2097 28.9127C67.3334 28.8507 67.5189 28.8507 67.6426 28.8507C67.8282 28.8507 67.9519 28.7269 68.0756 28.5411C68.1993 28.3554 68.2611 28.1696 68.4467 28.0458C68.6322 27.9219 68.8178 27.9219 69.0033 27.86C69.3744 27.7981 69.6837 27.7362 70.0548 27.6742C70.2403 27.6123 70.4259 27.4885 70.5496 27.3646C70.7351 27.055 70.9207 26.9312 71.2917 26.8693C72.1576 26.7454 73.0235 26.5597 73.8894 26.3739C74.0131 26.3739 74.075 26.312 74.1368 26.312C74.2605 26.312 74.3224 26.3739 74.3842 26.4358C74.3224 26.4977 74.2605 26.5597 74.1987 26.6216C73.8894 26.6835 73.5183 26.7454 73.2091 26.8073C72.7143 26.9312 72.1576 26.9931 71.6628 27.1169C71.6628 27.1169 71.6628 27.1169 71.601 27.1789C71.6628 27.2408 71.6628 27.2408 71.7247 27.3027C71.7865 27.3646 71.9102 27.4266 71.9721 27.4885C72.0339 27.5504 71.9721 27.6123 72.0339 27.6742C71.9721 27.6742 71.9102 27.6742 71.8484 27.6742C71.6628 27.6123 71.4154 27.4885 71.2299 27.4265C71.0443 27.3646 70.9206 27.3646 70.7969 27.5504C70.7351 27.6742 70.6114 27.7981 70.4877 27.9219C70.4259 27.9838 70.364 27.9838 70.3022 27.9838C69.8692 28.0458 69.4981 28.1696 69.0652 28.2315C69.1889 28.4792 69.3126 28.6031 69.56 28.5411C69.6837 28.5411 69.8074 28.4792 69.9311 28.4792C69.9929 28.4792 70.1785 28.5411 70.1785 28.6031C70.2403 28.7269 70.1166 28.7888 70.0548 28.7888C70.0548 28.7888 69.9929 28.7888 69.9929 28.8507C70.1785 28.9127 70.3022 29.0365 70.4877 29.0984C70.8588 29.2223 71.168 29.3461 71.5391 29.408C71.601 29.408 71.7247 29.408 71.7865 29.408C72.6524 29.2223 73.5802 29.0984 74.4461 28.9127C74.6935 28.8507 75.0027 28.7888 75.2501 28.7888C75.312 28.7888 75.4975 28.8507 75.4975 28.8507C75.5594 28.9746 75.4357 29.0365 75.312 29.0365C74.2605 29.2223 73.2709 29.408 72.2195 29.6557C72.1576 29.6557 72.0958 29.6557 72.0339 29.7176C71.7865 29.7795 71.5391 29.8415 71.2917 29.6557C70.9207 29.408 70.4877 29.408 69.9929 29.5938C69.7455 29.6557 69.4363 29.7176 69.127 29.7796C69.0033 29.7796 68.8796 29.7795 68.8178 29.7176C68.6322 29.5938 68.4467 29.408 68.2611 29.3461C68.1374 29.2842 68.0137 29.2842 67.8282 29.2842C67.7045 29.2842 67.5189 29.3461 67.3952 29.3461C67.1478 29.408 67.1478 29.408 67.1478 29.6557C67.2715 30.1511 67.3334 30.6464 67.4571 31.2037C67.4571 31.2657 67.4571 31.3276 67.4571 31.3895C67.4571 31.5133 67.5189 31.6372 67.7045 31.5753C67.89 31.5133 67.9519 31.5753 67.9519 31.761C68.0756 32.566 68.2611 33.309 68.3848 34.114C68.5085 34.6713 68.5704 35.1667 68.6941 35.724C68.7559 36.0955 68.8796 36.5289 68.9415 36.9005C69.0652 37.5197 69.1889 38.077 69.2507 38.6962C69.3126 39.1296 69.4363 39.5631 69.4981 39.9965C69.6218 40.6777 69.8074 41.3588 69.9311 42.0399C69.9311 42.1638 69.9311 42.2257 69.8074 42.2257C69.6837 42.2876 69.4981 42.2876 69.3126 42.3495C69.4981 43.1545 69.6218 44.0214 69.8074 44.8264C69.7455 44.8883 69.6218 44.9502 69.6218 44.7644C69.56 44.2691 69.4363 43.7118 69.3744 43.2164C69.3126 42.9687 69.2507 42.6591 69.1889 42.4114C69.1889 42.3495 69.127 42.3495 69.0652 42.3495C68.9415 42.3495 68.7559 42.4114 68.6322 42.4114C68.323 42.1638 68.3848 41.7922 68.323 41.4207C68.1993 40.7396 68.0756 40.0584 67.9519 39.3773C67.7663 38.3866 67.5808 37.4578 67.3952 36.467C67.3334 36.0336 67.2097 35.5382 67.086 35.1048C67.0241 34.7332 66.9623 34.4236 66.9004 34.0521C66.8386 33.8044 66.7767 33.4948 66.7149 33.2471C66.7149 33.1233 66.7149 33.0614 66.7149 32.8756C66.4675 32.9375 66.1582 32.9375 65.9108 32.9994C65.6634 33.0614 65.3542 33.1233 65.1068 33.1852C64.9213 33.1852 64.8594 33.309 64.9831 33.4329C65.1687 33.6806 65.1686 33.9283 65.2305 34.2379C65.3542 34.919 65.4779 35.6001 65.6016 36.2193C65.7253 36.9005 65.849 37.5816 65.9727 38.2627C66.0964 39.0058 66.2819 39.7488 66.4675 40.43C66.5912 41.0492 66.7149 41.7303 66.8386 42.3495C66.9004 42.5353 66.7149 42.8449 66.5293 42.8449C66.4056 42.9068 66.4056 42.9687 66.4056 43.0926C66.5293 43.7737 66.653 44.5168 66.7767 45.1979C66.7767 45.2598 66.7767 45.3217 66.7767 45.3836C66.7767 45.3217 66.7149 45.3217 66.7149 45.2598C66.5912 44.7644 66.5293 44.2072 66.4675 43.7118C66.4056 43.4641 66.4056 43.2164 66.3438 42.9687C66.3438 42.9068 66.2201 42.9068 66.1582 42.9068C65.9727 42.9068 65.7871 42.9687 65.6634 42.8449C65.6016 42.783 65.6016 42.7211 65.6016 42.6591C65.5397 42.2876 65.4779 41.978 65.416 41.6065C65.2923 41.1111 65.2305 40.6157 65.1068 40.1204C65.045 39.8108 64.9831 39.5012 64.9831 39.2535C64.9213 38.82 64.7976 38.3866 64.7357 37.9531C64.612 37.3339 64.4883 36.7147 64.3646 36.0955C64.2409 35.5382 64.1172 34.9809 64.0554 34.4236C63.9935 34.1759 64.0554 33.8663 64.0554 33.5567C64.0554 33.4948 64.0554 33.4329 64.0554 33.309C63.5606 33.4329 63.0658 33.4948 62.571 33.6187C62.138 33.6806 62.0762 33.6806 62.0143 33.1852C61.9525 32.7518 61.8288 32.6898 61.3958 32.7518C61.2721 32.7518 61.1484 32.7518 61.0247 32.8137C60.6536 32.8756 60.3444 32.9994 59.9733 32.9994C59.7259 33.0614 59.7259 33.2471 59.664 33.4329C59.664 33.5567 59.6641 33.6187 59.7259 33.7425C59.7259 33.8044 59.7877 33.8044 59.8496 33.8044C60.0351 33.8044 60.2207 33.8044 60.3444 33.8044C60.5299 33.8044 60.5918 33.8663 60.6536 34.0521C60.7773 34.3617 60.901 34.6713 61.0866 34.9809C61.2721 35.2905 61.334 35.6621 61.3958 36.0336C61.5814 36.8386 61.7051 37.5816 61.8288 38.3866C62.0143 39.3773 62.1999 40.3061 62.3854 41.2969C62.5091 41.978 62.6328 42.5972 62.7565 43.2783C62.8184 43.526 62.6947 43.6499 62.5091 43.6499C62.4473 43.6499 62.3854 43.7118 62.3236 43.7737C62.1999 43.7737 62.0762 43.7118 62.0143 43.7118C61.8288 43.7118 61.7051 43.6499 61.7051 43.4641C61.5195 42.4734 61.2721 41.4207 61.0866 40.43C60.8392 39.1915 60.5918 37.8912 60.3444 36.6528C60.2825 36.2813 60.2207 35.9717 60.097 35.6621C60.097 35.5382 60.0352 35.5382 59.9115 35.6001C59.6022 35.7859 59.2311 35.9717 58.9219 36.2193C58.5508 36.467 58.1178 36.7766 57.7467 37.0243C57.623 37.0862 57.623 37.2101 57.7467 37.272C57.8704 37.3339 58.056 37.3958 58.1797 37.4578C58.2415 37.4578 58.2415 37.5197 58.3034 37.5816C58.4271 38.3247 58.5508 39.0677 58.6745 39.8108C58.7982 40.43 58.86 41.1111 58.9837 41.7303C59.1074 42.2257 59.1693 42.721 59.293 43.2164C59.3548 43.526 59.4166 43.8356 59.4785 44.1452C59.4785 44.2691 59.4167 44.3929 59.293 44.3929C58.9219 44.4548 58.5508 44.5168 58.1797 44.5787C57.9323 44.6406 57.9323 44.5787 57.8704 44.331C57.7467 43.526 57.5612 42.783 57.4375 41.978C57.3138 41.2969 57.1901 40.6157 57.0045 39.9965C56.9427 39.5631 56.819 39.1915 56.7571 38.7581C56.7571 38.6962 56.7571 38.6343 56.819 38.6343C56.9427 38.3247 57.1282 37.9531 57.2519 37.6435C57.3756 37.5816 57.3756 37.5197 57.3138 37.3958C57.3756 37.4578 57.3756 37.3958 57.3138 37.3958ZM51.1288 25.1974C51.1288 25.2593 51.1288 25.2593 51.1288 25.3212C51.1907 25.8166 51.3144 26.2501 51.3762 26.7454C51.4381 27.1789 51.5618 27.5504 51.6236 27.9838C51.6236 28.0458 51.5618 28.1696 51.4999 28.1696C51.3144 28.2315 51.3144 28.3554 51.3762 28.4792C51.3762 28.603 51.4381 28.7269 51.4381 28.9127C51.4999 29.3461 51.6236 29.7795 51.6855 30.213C51.8092 30.8322 51.9329 31.4514 51.9947 32.0706C51.9947 32.1325 52.1184 32.1945 52.1803 32.1945C52.304 32.1945 52.4895 32.1326 52.6132 32.1326C52.6751 32.1326 52.7369 32.1325 52.7988 32.1945C52.7369 32.2564 52.7369 32.3183 52.6751 32.3802C52.6132 32.4422 52.4895 32.3802 52.4277 32.4422C52.1184 32.5041 52.1184 32.5041 52.1803 32.8137C52.2421 33.1852 52.304 33.6187 52.4277 33.9902C52.4895 34.4236 52.6132 34.8571 52.7369 35.2905C52.8606 35.9097 52.9225 36.5289 53.0462 37.0862C53.1699 37.8912 53.3554 38.6343 53.541 39.4392C53.6028 39.625 53.6646 39.6869 53.7883 39.5631C54.2213 39.3154 54.5924 39.0058 55.0253 38.7581C55.3964 38.5104 55.7675 38.2627 56.1386 38.0151C56.4479 37.8293 56.6953 37.5816 57.0045 37.3958C57.5612 37.0243 58.1797 36.6528 58.7363 36.2193C59.0456 36.0336 59.293 35.7859 59.6022 35.6001C59.8496 35.4763 59.9114 35.2905 59.8496 35.0428C59.664 34.114 59.4785 33.1852 59.293 32.2564C59.2311 31.8849 59.1693 31.5133 59.0456 31.0799C58.6126 31.1418 58.1797 31.2657 57.7467 31.3276C57.2519 31.4514 56.7571 31.5133 56.2005 31.6372C56.1386 31.6372 56.0768 31.5753 56.0149 31.5753C56.0768 31.5133 56.0768 31.4514 56.1386 31.4514C56.2623 31.3895 56.386 31.3895 56.4479 31.3895C57.0045 31.2657 57.5612 31.2037 58.1178 31.0799C58.3652 31.018 58.6126 30.956 58.86 30.956C58.7363 30.2749 58.6126 29.5938 58.4889 28.9127C58.4889 28.8507 58.4271 28.7888 58.3034 28.7269C58.056 28.6031 57.9941 28.4173 57.9323 28.2315C57.8704 28.1077 57.8704 27.9219 57.8704 27.7362C57.8086 27.3646 57.7467 26.9931 57.6849 26.6835C57.6849 26.6216 57.623 26.5597 57.5612 26.4977C57.0045 26.3739 56.5097 26.312 55.9531 26.1881C55.3964 26.0643 54.8398 26.0024 54.2831 25.8785C53.7265 25.7547 53.108 25.6928 52.5514 25.5689C52.304 25.507 52.1184 25.507 51.871 25.4451C51.6855 25.3212 51.4381 25.2593 51.1288 25.1974ZM62.7565 27.1169C62.8184 27.1789 62.9421 27.3027 63.0039 27.3646C62.8802 27.4266 62.8184 27.4885 62.6947 27.4885C62.2617 27.6123 61.8288 27.7362 61.4577 27.7981C61.3958 27.7981 61.3958 27.86 61.3958 27.9219C61.4577 28.2315 61.4577 28.5411 61.5195 28.8507C61.5814 29.2842 61.7051 29.6557 61.7669 30.0892C61.7669 30.213 61.8288 30.2749 61.9525 30.213C62.138 30.1511 62.3854 30.1511 62.571 30.0892C62.6328 30.0892 62.6947 30.0892 62.7565 30.1511C62.7565 30.213 62.7565 30.2749 62.6947 30.3368C62.6328 30.3988 62.571 30.3988 62.5091 30.3988C62.2617 30.3988 62.0762 30.4607 61.8288 30.4607C61.8906 30.7084 61.8906 30.8941 61.9525 31.1418C62.0762 31.6991 62.1999 32.3183 62.3236 32.8756C62.3236 33.0614 62.3854 33.0614 62.5091 32.9994C62.7565 32.9375 62.9421 32.8756 63.1895 32.8756C63.375 32.8137 63.5606 32.8137 63.6843 32.7518C63.7461 32.7518 63.808 32.8137 63.808 32.8756C63.808 32.9375 63.7461 32.9994 63.6843 32.9994C63.3132 33.0614 62.9421 33.1233 62.571 33.2471C62.5091 33.2471 62.4473 33.2471 62.4473 33.309C62.4473 33.309 62.3854 33.371 62.3854 33.4329C62.3854 33.4329 62.4473 33.4948 62.5091 33.4948C63.1276 33.371 63.7461 33.2471 64.3028 33.1233C64.3646 33.1233 64.3646 33.0614 64.3646 32.9994C64.3646 32.9375 64.3028 32.9375 64.3028 32.8756C64.2409 32.8137 64.1791 32.7518 64.1791 32.6898C64.1791 32.6279 64.2409 32.566 64.3028 32.566C64.9213 32.4422 65.4779 32.3183 66.0964 32.1945C66.1582 32.1945 66.2819 32.2564 66.3438 32.3183C66.2819 32.3802 66.2201 32.4422 66.1582 32.4422C65.849 32.5041 65.4779 32.566 65.1068 32.6279C64.9831 32.6279 64.8594 32.6898 64.7357 32.6898C64.7976 32.8756 64.8594 32.9375 65.0449 32.8756C65.4779 32.8137 65.849 32.6898 66.2819 32.6279C66.4675 32.566 66.653 32.5041 66.9623 32.4422C66.9004 32.3183 66.8386 32.2564 66.7767 32.1945C66.7767 32.1325 66.7149 32.1326 66.653 32.1326C66.653 32.0706 66.7149 32.0706 66.7149 32.0087C66.7767 31.9468 66.7767 31.8229 66.7767 31.761C66.7767 31.5753 66.7149 31.3895 66.653 31.2037C66.5912 30.8941 66.5293 30.6464 66.5293 30.3368C66.5293 30.213 66.4675 30.0892 66.2819 30.1511C66.2201 30.1511 66.1582 30.1511 66.0964 30.0892C66.1582 30.0272 66.2201 30.0272 66.2819 29.9653C66.3438 29.9034 66.4056 29.9034 66.4056 29.8415C66.4056 29.7176 66.3438 29.5319 66.3438 29.408C66.0964 29.4699 65.849 29.5319 65.6016 29.5319C65.5397 29.5319 65.5397 29.5938 65.5397 29.5938C65.5397 29.5938 65.4779 29.6557 65.4779 29.7176C65.4779 29.6557 65.416 29.6557 65.416 29.5938C65.416 29.5319 65.3542 29.408 65.3542 29.3461C65.3542 29.2842 65.4161 29.2842 65.4779 29.2223C65.7253 29.2223 66.0345 29.1603 66.2819 29.1603C66.2819 29.0365 66.2819 28.9127 66.2201 28.7888C66.2201 28.665 66.2201 28.5411 66.0345 28.5411C66.0345 28.5411 65.9727 28.4173 66.0345 28.4173C66.1582 28.3554 66.1582 28.1696 66.1582 28.1077C66.0964 27.7362 66.0345 27.3646 65.9108 26.9931C65.849 26.8073 65.849 26.6835 65.7871 26.4977C65.6635 26.5597 65.6016 26.5597 65.4779 26.6216C65.2305 26.6835 64.9213 26.7454 64.6739 26.8073C64.3028 26.8693 63.9317 26.9931 63.5606 27.055C63.375 27.1169 63.375 26.9931 63.375 26.8693C63.375 26.8073 63.375 26.8073 63.375 26.7454C63.3132 26.9931 63.0039 27.055 62.7565 27.1169ZM40.8 34.6094C40.8618 34.8571 40.8618 35.0428 40.9237 35.2286C41.0474 35.8478 41.1711 36.5289 41.3566 37.1482C41.4185 37.3958 41.604 37.5197 41.7896 37.4578C42.5318 37.272 43.3358 37.1482 44.078 36.9624C44.2017 36.9624 44.2635 36.8385 44.2635 36.7147C44.2017 36.3432 44.1398 35.9717 44.078 35.6621C44.0161 35.1667 43.8924 34.7332 43.7687 34.2379C43.7687 34.114 43.645 34.0521 43.5213 34.114C43.4595 34.114 43.3976 34.0521 43.3358 34.0521C43.3976 33.9902 43.4595 33.9283 43.4595 33.9283C43.645 33.8663 43.645 33.8044 43.645 33.6187C43.5832 33.309 43.5213 32.9994 43.4595 32.6898C43.3358 32.1945 43.2739 31.6991 43.1502 31.2037C43.1502 31.0799 43.0884 31.018 42.9647 31.0799C42.6554 31.1418 42.3462 31.2037 42.037 31.2657C41.6659 31.3276 41.2948 31.4514 40.9237 31.5133C40.6144 31.5753 40.4907 31.6991 40.5526 32.0087C40.6144 32.2564 40.6763 32.566 40.7381 32.8137C40.8 33.0614 40.7381 33.1233 40.5526 33.2471C40.4907 33.3091 40.4907 33.371 40.4907 33.4329C40.5526 33.6806 40.6144 33.9902 40.6144 34.2379C40.6144 34.4236 40.7381 34.4855 40.9237 34.4236C41.1711 34.3617 41.4803 34.2998 41.7277 34.2379C41.8514 34.2379 41.9751 34.2379 41.9751 34.3617C41.9751 34.4236 41.8514 34.4856 41.7896 34.4856C41.5422 34.4856 41.1711 34.5475 40.8 34.6094ZM50.8196 40.1823C51.1288 40.1204 51.3762 40.0584 51.6855 39.9965C51.8092 39.9965 51.8092 39.9346 51.8092 39.8108C51.7473 39.4392 51.6855 39.0677 51.6236 38.6962C51.4999 38.1389 51.4381 37.6435 51.3144 37.0862C51.1288 36.1574 50.9433 35.2905 50.8196 34.3617C50.7577 33.8663 50.634 33.4329 50.5103 32.9375C50.5103 32.8137 50.4485 32.7518 50.3248 32.7518C49.7681 32.8756 49.2115 32.9994 48.6548 33.0614C48.4693 33.0614 48.4693 33.1852 48.4693 33.309C48.5312 33.7425 48.593 34.1759 48.7167 34.6713C48.8404 35.3524 48.9641 36.0336 49.0878 36.7147C49.2115 37.272 49.2733 37.7674 49.397 38.3247C49.5207 38.9439 49.6444 39.625 49.7681 40.2442C49.7681 40.368 49.8918 40.43 50.0155 40.43C50.3248 40.3061 50.5722 40.2442 50.8196 40.1823ZM45.6242 36.7147C46.3046 36.5909 46.9849 36.467 47.6653 36.3432C47.789 36.3432 47.789 36.2193 47.789 36.0955C47.6653 35.2905 47.4797 34.4855 47.356 33.6187C47.2942 33.371 47.2942 33.371 47.0468 33.4329C46.6138 33.4948 46.1809 33.6187 45.7479 33.6806C45.6861 33.6806 45.6242 33.6187 45.5624 33.6187C45.6242 33.5567 45.6861 33.4948 45.7479 33.4948C45.8098 33.4948 45.8716 33.4948 45.8716 33.4948C46.2427 33.4329 46.6757 33.371 47.0468 33.2471C47.1705 33.2471 47.2323 33.1852 47.2323 32.9994C47.1705 32.566 47.1086 32.1945 46.9849 31.761C46.9231 31.3276 46.7994 30.8941 46.7375 30.4607C46.7375 30.3988 46.6138 30.3368 46.6138 30.3368C46.0572 30.3988 45.4387 30.5226 44.882 30.6464C44.6965 30.7084 44.5728 30.8322 44.6346 31.018C44.6346 31.2657 44.6965 31.4514 44.7583 31.6991C44.882 32.3183 45.0057 32.9375 45.1294 33.6187C45.2531 34.2998 45.3768 35.0428 45.5005 35.724C45.4387 35.9717 45.5005 36.3432 45.6242 36.7147ZM49.4589 32.7518C49.7681 32.6898 50.0155 32.6898 50.3248 32.6279C50.3866 32.6279 50.4485 32.5041 50.4485 32.5041C50.3248 32.0087 50.2629 31.4514 50.1392 30.956C50.0155 30.3988 49.9537 29.9034 49.83 29.3461C49.7681 29.0365 49.83 28.603 49.397 28.4792C49.397 28.4792 49.3352 28.4173 49.3352 28.3554C49.2115 27.7362 49.1496 27.1169 49.0259 26.4977C48.9641 26.1881 48.9022 25.8785 48.8404 25.5689C48.8404 25.507 48.7167 25.4451 48.7167 25.4451C48.4074 25.507 48.0982 25.5689 47.789 25.5689C47.356 25.6308 47.356 25.6928 47.4179 26.1262C47.4179 26.2501 47.4179 26.3739 47.4797 26.4358C47.6653 27.4266 47.8508 28.4792 48.0363 29.4699C48.0363 29.5938 48.0982 29.7796 48.0982 29.9653C48.0364 30.213 48.0364 30.3988 48.0982 30.6464C48.2837 31.3895 48.3456 32.1945 48.4693 32.9375C48.4693 33.0614 48.5311 33.1233 48.6548 33.0614C48.9022 32.8137 49.2115 32.7518 49.4589 32.7518ZM47.4797 46.4982C47.356 45.7552 47.2323 45.074 47.1086 44.331C46.9849 43.6499 46.8612 42.9687 46.7375 42.2876C46.6757 41.8542 46.552 41.3588 46.4901 40.9253C46.3664 40.368 46.2427 39.7488 46.119 39.1915C45.9953 38.7581 45.8716 38.2627 45.6861 37.8293C45.6861 37.7674 45.6242 37.7674 45.5624 37.7674C45.315 37.8293 45.0676 37.8293 44.8202 37.8912C44.7583 37.8912 44.6965 38.0151 44.6965 38.0151C44.7583 38.3866 44.7583 38.7581 44.8202 39.0677C44.9439 39.8727 45.1294 40.6777 45.315 41.5445C45.4387 42.2876 45.6242 43.0307 45.7479 43.7737C45.8716 44.331 45.9953 44.8883 46.119 45.4456C46.1809 45.7552 46.2427 46.0648 46.3046 46.3744C46.3664 46.6221 46.3664 46.6221 46.6757 46.5602C46.7375 46.5602 46.8612 46.4363 46.8612 46.4363C46.8612 46.2505 46.7994 46.1267 46.6757 45.9409C46.6138 45.8171 46.552 45.7552 46.6138 45.6313C46.6757 45.5694 46.7994 45.5694 46.8612 45.5694C46.9849 45.6313 46.9849 45.7552 46.9231 45.879C46.8612 46.0029 46.9231 46.1886 46.9231 46.3744C47.1086 46.4982 47.2942 46.4982 47.4797 46.4982C47.4179 46.4982 47.4179 46.4982 47.4797 46.4982ZM42.6554 46.3125C42.7173 46.684 42.841 46.9936 42.9029 47.3032C42.9029 47.3651 42.9647 47.427 43.0265 47.3651C43.1502 47.3651 43.2739 47.3032 43.3976 47.2413C43.3976 47.2413 43.3358 47.0555 43.3358 46.9936V46.9317C43.2739 46.8698 43.2739 46.8078 43.2121 46.7459C43.0265 46.684 43.0884 46.5602 43.0884 46.4982C43.1502 46.3125 43.3358 46.3744 43.3976 46.4363C43.5213 46.4363 43.5832 46.6221 43.5213 46.684C43.3976 46.8698 43.4595 46.9936 43.4595 47.1794C43.4595 47.3032 43.5213 47.3651 43.645 47.3032C43.7687 47.3032 43.7687 47.2413 43.7687 47.1174C43.7069 46.6221 43.645 46.1267 43.5213 45.6313C43.3976 44.9502 43.2739 44.2691 43.0884 43.5879C42.9647 42.8449 42.841 42.1018 42.6554 41.3588C42.5936 40.8634 42.4699 40.3681 42.3462 39.8727C42.2225 39.3773 42.1607 38.8819 42.037 38.3866C42.037 38.3247 41.9751 38.2627 41.9133 38.2627C41.6659 38.2627 41.4185 38.3247 41.1711 38.3247C41.0474 38.3247 40.9855 38.3866 40.9855 38.5723C41.0474 38.9439 41.1092 39.3773 41.1711 39.7488C41.3566 40.7396 41.5422 41.7303 41.7896 42.721C41.9133 43.4022 42.037 44.0833 42.1607 44.7644C42.4699 45.3217 42.5936 45.8171 42.6554 46.3125ZM68.1993 32.7518C68.1374 32.7518 68.1374 32.7518 68.0756 32.7518C67.8282 33.0614 67.6426 33.4329 67.3952 33.7425C67.3952 33.7425 67.3952 33.8044 67.3952 33.8663C67.3952 33.9902 67.4571 34.1759 67.5189 34.2998C67.6426 34.8571 67.7663 35.4763 67.8282 36.0336C67.9519 36.6528 68.0756 37.3339 68.1993 37.9531C68.3848 38.82 68.5085 39.6869 68.6941 40.5538C68.8178 41.0492 68.8796 41.5445 69.0033 41.978C69.0033 42.0399 69.0652 42.1018 69.127 42.1018C69.2507 42.1018 69.3744 42.0399 69.3744 41.978C69.3744 41.7922 69.4981 41.6065 69.2507 41.4207C69.1889 41.3588 69.2507 41.2349 69.2507 41.173C69.3126 41.173 69.4363 41.1111 69.4981 41.173C69.56 41.173 69.56 41.2969 69.56 41.4207C69.56 41.6065 69.56 41.7922 69.56 41.978C69.9929 41.978 69.9929 41.978 69.9311 41.6684C69.8074 41.0492 69.6837 40.43 69.56 39.8108C69.4981 39.3773 69.3744 38.9439 69.3126 38.5104C69.1889 37.8293 69.0652 37.2101 68.9415 36.5289C68.7559 35.724 68.6322 34.8571 68.4467 34.0521C68.3848 33.6187 68.323 33.1852 68.1993 32.7518ZM50.1392 45.136C50.0774 44.8883 50.0774 44.7025 50.0155 44.5168C49.9537 44.0833 49.8918 43.6499 49.7681 43.1545C49.6444 42.4734 49.5207 41.7922 49.397 41.173C49.2733 40.43 49.1496 39.625 48.9641 38.8819C48.9022 38.4485 48.7785 38.0151 48.6548 37.5816C48.593 37.1482 48.593 37.1482 48.1601 37.2101C48.0364 37.2101 48.0363 37.272 48.0363 37.3958C48.0363 37.5816 48.0363 37.8293 48.0363 38.0151C48.0363 38.5723 48.0364 39.0677 48.0982 39.625C48.2219 40.43 48.4075 41.2349 48.593 42.0399C48.7167 42.5972 48.8404 43.2164 48.9022 43.7737C49.0259 44.4548 49.1496 45.136 49.3352 45.879C49.3352 46.0029 49.4589 46.0648 49.5826 46.0029C49.6444 46.0029 49.7681 45.9409 49.8918 45.879C49.83 45.6933 49.7063 45.5694 49.6444 45.3836C49.6444 45.3217 49.6444 45.1979 49.6444 45.136C49.7681 45.074 49.8918 45.074 50.1392 45.136ZM64.4883 34.7332C64.5502 35.0428 64.612 35.3524 64.6739 35.6621C64.9213 36.7766 65.1068 37.8912 65.3542 39.0677C65.5397 40.0584 65.7253 41.0492 65.9108 42.1018C65.9727 42.2876 65.9727 42.4734 66.0345 42.6591C66.0345 42.7211 66.1582 42.783 66.2201 42.783C66.3438 42.783 66.4675 42.7211 66.4675 42.6591C66.5293 42.5353 66.4056 42.2876 66.2819 42.1638C66.2201 42.1018 66.1582 41.978 66.1582 41.9161C66.2201 41.8542 66.2819 41.7303 66.4056 41.7303C66.4675 41.7303 66.5912 41.7922 66.653 41.8542C66.653 41.8542 66.7149 41.978 66.653 41.978C66.4675 42.1018 66.5293 42.2876 66.5912 42.4734C66.5912 42.5353 66.653 42.5972 66.7149 42.5972C66.8386 42.5972 66.9004 42.5353 66.8386 42.4114C66.7767 42.1018 66.7149 41.7303 66.653 41.3588C66.5293 40.6157 66.3438 39.9346 66.2201 39.1915C66.1582 38.82 66.0964 38.4485 65.9727 38.0151C65.9108 37.6435 65.849 37.272 65.7253 36.9005C65.5397 36.1574 65.416 35.4144 65.2305 34.6713C65.2305 34.5475 65.1686 34.5475 65.0449 34.5475C64.9212 34.6094 64.7357 34.6713 64.4883 34.7332ZM57.9941 43.4022C57.9941 43.4022 58.056 43.4022 57.9941 43.4022C58.056 43.6499 58.1178 43.8356 58.1797 44.0833C58.2415 44.2072 58.3034 44.331 58.4889 44.2691C58.7363 44.2071 58.9219 44.1452 59.1693 44.1452C59.3548 44.0833 59.3548 44.0214 59.3548 43.8356C59.293 43.5879 59.293 43.4022 59.2311 43.1545C59.1074 42.5972 59.0456 42.0399 58.9219 41.5445C58.86 41.3588 58.86 41.173 58.86 40.9873C58.7982 40.7396 58.7982 40.4919 58.7363 40.2442C58.6745 39.8727 58.5508 39.4392 58.4889 39.0677C58.4271 38.6962 58.3034 38.3247 58.2415 37.9531C58.2415 37.8912 58.1797 37.8293 58.1797 37.8293C58.1178 37.8912 58.056 37.8912 58.056 37.9531C57.9941 38.015 57.9941 38.077 57.9941 38.1389C57.8704 38.5723 57.6849 38.9439 57.5612 39.3773C57.5612 39.4392 57.4993 39.4392 57.4993 39.5012C57.4375 39.5631 57.3756 39.6869 57.4375 39.7488C57.4993 40.2442 57.623 40.6777 57.6849 41.173C57.7467 41.9161 57.8704 42.6591 57.9941 43.4022ZM51.3144 32.3802C51.3762 32.3802 51.4381 32.3802 51.4999 32.3802C51.5618 32.3802 51.6236 32.3802 51.6855 32.3802C51.9329 32.3183 51.9329 32.3183 51.9329 32.0706C51.8092 31.5133 51.6855 31.018 51.6236 30.4607C51.5618 30.0892 51.4999 29.6557 51.4381 29.2842C51.3762 29.0365 51.3144 28.7269 51.2525 28.4792C51.2525 28.3554 51.1907 28.2934 51.0051 28.2934C50.6959 28.3554 50.3866 28.4173 50.0774 28.4792C50.0155 28.4792 49.9537 28.6031 49.9537 28.6031C50.0155 28.9127 50.0774 29.2223 50.1392 29.5319C50.2629 30.1511 50.3866 30.7703 50.5103 31.3276C50.5722 31.6372 50.634 32.0087 50.6959 32.3183C50.6959 32.4422 50.7577 32.5041 50.8814 32.4422C51.0051 32.4422 51.1907 32.3802 51.3144 32.3802ZM62.5091 42.5972C62.5091 42.5353 62.5091 42.4734 62.5091 42.4734C62.4473 42.1018 62.3854 41.7922 62.3236 41.4207C62.1999 40.7396 62.0762 40.0584 61.9525 39.3154C61.8288 38.5723 61.6432 37.8293 61.5195 37.0862C61.4577 36.7147 61.3958 36.3432 61.2721 35.9717C61.2721 35.9097 61.1484 35.8478 61.0866 35.8478C60.9629 35.8478 60.8392 35.8478 60.7155 35.7859C60.5918 35.7859 60.5299 35.7859 60.5299 35.9717C60.6536 36.7147 60.8392 37.3958 60.9629 38.1389C61.0247 38.3866 61.0866 38.5723 61.0866 38.82C61.1484 39.2535 61.2103 39.7488 61.334 40.1823C61.4577 40.6777 61.5195 41.173 61.6432 41.6684C61.7669 42.2257 61.8906 42.783 62.0143 43.3403C62.0143 43.4022 62.138 43.4641 62.1999 43.4641C62.2617 43.4641 62.3236 43.4022 62.3236 43.3403C62.3236 43.2164 62.3236 43.0307 62.138 42.9068C62.0143 42.8449 62.0143 42.6591 62.138 42.5972C62.2617 42.5972 62.3854 42.6591 62.5091 42.5972ZM52.0566 36.5289C52.1803 36.467 52.304 36.467 52.4895 36.467C52.6751 36.467 52.7369 36.3432 52.6751 36.1574C52.6132 35.8478 52.5514 35.4763 52.4277 35.1667C52.3658 34.7952 52.304 34.3617 52.1803 33.9902C52.1184 33.5567 51.9947 33.1233 51.9329 32.6898C51.9329 32.6279 51.8092 32.5041 51.7473 32.5041C51.4381 32.566 51.1288 32.6279 50.7577 32.6898C50.6959 32.6898 50.634 32.8137 50.634 32.8756C50.6959 33.2471 50.7577 33.5567 50.8196 33.9283C51.0051 34.7952 51.1288 35.662 51.3144 36.5289C51.3144 36.6528 51.4381 36.7147 51.5618 36.6528C51.8092 36.5909 51.9329 36.5909 52.0566 36.5289ZM61.2103 28.3554C60.8392 28.4173 60.4681 28.4173 60.1588 28.4792C59.7877 28.5411 59.4167 28.665 58.9837 28.7269C58.9219 28.7269 58.86 28.7888 58.86 28.8507C58.86 28.9746 58.86 29.0365 58.9219 29.1603C59.0456 29.6557 59.1074 30.0892 59.2311 30.5845C59.293 30.7703 59.3548 30.8322 59.4785 30.7703C59.9733 30.6464 60.4681 30.5845 60.9629 30.4607C61.1484 30.3988 61.334 30.3988 61.5814 30.3368C61.4577 29.6557 61.334 28.9746 61.2103 28.3554ZM62.0143 32.566C61.9525 32.3802 61.9525 32.2564 61.9525 32.0706C61.8288 31.5753 61.7669 31.1418 61.7051 30.6464C61.7051 30.5226 61.6432 30.5226 61.5195 30.5226C60.8392 30.6464 60.1588 30.8322 59.4785 30.956C59.3548 30.956 59.3548 31.018 59.3548 31.1418C59.4785 31.6991 59.5403 32.2564 59.664 32.8137C59.664 32.8756 59.7259 32.8756 59.7259 32.9375C59.8496 32.8756 59.9114 32.8756 59.9733 32.8756C60.3444 32.8137 60.7155 32.7518 61.0866 32.7518C61.3958 32.6279 61.6432 32.4422 62.0143 32.566ZM44.2635 35.2905C44.3254 35.6001 44.3872 35.9097 44.4491 36.2193C44.4491 36.3432 44.5109 36.4051 44.6965 36.3432C44.8202 36.2813 44.9439 36.2813 45.0676 36.3432C45.1913 36.3432 45.2531 36.3432 45.2531 36.2193C45.2531 36.0336 45.1913 35.7859 45.1913 35.6001C45.1294 35.1048 45.0057 34.6094 44.9439 34.114C44.882 33.6806 44.7583 33.1852 44.6965 32.7518C44.5728 32.2564 44.5109 31.761 44.3872 31.2657C44.3254 31.0799 44.3254 31.018 44.1398 31.1418C44.0161 31.2037 43.9543 31.2037 43.8306 31.2037C43.645 31.2037 43.5832 31.2657 43.645 31.4514C43.645 31.5133 43.645 31.5133 43.645 31.5753C43.7069 32.0087 43.8306 32.5041 43.8924 32.9375C43.9543 33.8044 44.078 34.5475 44.2635 35.2905ZM53.912 44.5168C53.5409 42.2257 53.0462 39.9346 52.5514 37.6435C52.4895 37.6435 52.3658 37.6435 52.304 37.6435C52.0566 37.6435 51.9947 37.7054 52.0566 37.9531C52.2421 38.7581 52.3658 39.5012 52.5514 40.3061C52.6751 40.9873 52.7988 41.6065 52.9843 42.2876C53.108 42.8449 53.1699 43.3403 53.2936 43.8976C53.3554 44.1452 53.4173 44.331 53.4791 44.5168C53.6028 44.4548 53.7265 44.5168 53.912 44.5168ZM39.6248 34.8571C39.3774 34.919 39.13 34.9809 38.8826 34.9809C38.7589 34.9809 38.6971 35.0428 38.7589 35.1667C38.8208 35.5382 38.9445 35.9717 39.0063 36.3432C39.0063 36.467 39.0682 36.5289 39.1919 36.467C39.6867 36.3432 40.1815 36.2813 40.6763 36.1574C40.7381 36.1574 40.8 36.0336 40.8 36.0336C40.7381 35.6001 40.6763 35.2286 40.5526 34.7952C40.5526 34.7332 40.4289 34.6713 40.367 34.6713C40.1815 34.7332 39.9341 34.7952 39.6248 34.8571ZM39.3774 33.371C39.13 33.4329 38.8826 33.4948 38.6352 33.5567C38.5734 33.5567 38.5115 33.6806 38.5115 33.7425C38.5734 34.0521 38.6352 34.3617 38.6971 34.6713C38.6971 34.7332 38.8208 34.7952 38.8826 34.7952C39.3774 34.7332 39.8722 34.6094 40.367 34.4856C40.4907 34.4856 40.5526 34.4236 40.5526 34.2379C40.4907 33.9283 40.4289 33.6806 40.367 33.371C40.367 33.1852 40.2433 33.1852 40.1196 33.2471C39.8722 33.3091 39.6248 33.3091 39.3774 33.371ZM46.9849 30.5226C46.9849 30.5845 46.9849 30.5845 46.9849 30.6464C47.1086 31.2657 47.2323 31.9468 47.356 32.566C47.4797 33.1233 47.4797 33.0614 47.9745 32.9994C48.1601 32.9994 48.1601 32.8756 48.1601 32.7518C48.0982 32.2564 47.9745 31.8229 47.9127 31.3276C47.8508 31.0799 47.789 30.7703 47.789 30.5226C47.4797 30.5845 47.2323 30.5226 46.9849 30.5226ZM47.7271 34.5475C47.7889 34.8571 47.8508 35.2286 47.9127 35.5382C47.9127 35.6001 47.9745 35.724 48.0982 35.6621C48.2219 35.6001 48.4074 35.6001 48.5311 35.6001C48.7167 35.6001 48.7167 35.5382 48.7167 35.4144C48.6548 35.1667 48.593 34.919 48.593 34.6713C48.5311 34.2379 48.4074 33.7425 48.3456 33.309C48.3456 33.1852 48.2838 33.1852 48.1601 33.1852C48.0364 33.2471 47.9127 33.2471 47.789 33.2471C47.6034 33.2471 47.6034 33.309 47.6034 33.4948C47.6034 33.8663 47.6653 34.1759 47.7271 34.5475ZM67.2715 32.1945C67.3334 32.1945 67.3334 32.1945 67.3952 32.1945C67.4571 32.0706 67.5808 32.0087 67.5808 31.8849C67.5189 31.4514 67.4571 30.956 67.3334 30.5226C67.3334 30.4607 67.2715 30.3988 67.2097 30.3368C67.1478 30.0892 67.1478 29.7796 67.1478 29.5319C67.1478 29.4699 67.0241 29.408 66.9623 29.4699C66.9004 29.4699 66.7149 29.4699 66.7767 29.6557C66.8386 29.8415 66.8386 30.0892 67.086 30.213C67.2097 30.2749 67.2097 30.3368 67.086 30.3988C66.9004 30.3988 66.9623 30.5226 66.9623 30.6464C67.0241 30.8941 67.0241 31.0799 67.086 31.3276C67.1478 31.5753 67.2097 31.8849 67.2715 32.1945ZM66.9004 28.3554C66.7767 28.3554 66.7149 28.2934 66.653 28.2934C66.653 28.2315 66.7149 28.1696 66.7149 28.1077C66.7149 28.0458 66.7767 27.9219 66.7767 27.86C66.7149 27.5504 66.653 27.2408 66.5912 26.9312C66.5293 26.6835 66.4056 26.6216 66.1582 26.6216C66.2201 26.8073 66.2201 26.9931 66.2819 27.1789C66.4056 27.6123 66.3438 28.1077 66.5912 28.4792V28.5411C66.5912 28.7269 66.5912 28.9127 66.653 29.0984C66.7149 29.2223 66.8386 29.1603 66.9004 29.1603C66.9623 29.1603 67.0241 29.0984 67.0241 29.0365C67.0241 28.8507 66.9623 28.603 66.9004 28.3554ZM70.1166 29.3461C69.9929 28.9746 69.1889 28.8507 68.9415 29.1603C69.2507 29.5938 69.6837 29.4699 70.1166 29.3461ZM64.5502 34.114C64.5502 34.0521 64.5502 33.9902 64.612 33.9283C64.3646 33.9902 64.3028 34.0521 64.4265 34.3617C64.612 34.2998 64.7976 34.2998 65.0449 34.2379C65.1068 34.2379 65.1687 34.1759 65.1687 34.114C65.1068 33.9283 65.1687 33.7425 64.9831 33.6806C64.8594 33.8044 64.7976 33.8663 64.6739 33.9283C64.7976 33.9283 64.9213 33.9902 64.9831 33.9902V34.0521C64.8594 34.0521 64.7357 34.0521 64.5502 34.114ZM44.6346 37.0243C44.6346 37.2101 44.6346 37.3339 44.6965 37.4578C44.6965 37.5197 44.7583 37.5816 44.7583 37.6435C44.8202 37.5816 44.9439 37.5816 44.9439 37.5197C45.0057 37.3958 45.1294 37.3339 45.2531 37.3958C45.315 37.3958 45.3768 37.4578 45.3768 37.4578C45.3768 37.4578 45.3768 37.4578 45.4387 37.3958C45.3768 37.3339 45.3768 37.2101 45.315 37.1482C45.315 37.1482 45.1913 37.2101 45.1294 37.272C45.0057 37.3339 44.9439 37.3339 44.7583 37.3339C44.8202 37.2101 44.9439 37.0243 44.6346 37.0243ZM60.7155 35.2286C60.7155 35.1667 60.7155 35.1048 60.7155 35.1048C60.6536 35.1048 60.5918 35.1048 60.5299 35.1048C60.4681 35.1667 60.4681 35.2286 60.4681 35.2905C60.4681 35.4144 60.5299 35.5382 60.5918 35.5382C60.7773 35.6001 60.9629 35.6621 61.1484 35.5382C61.0866 35.2905 60.901 35.4763 60.7155 35.4144C60.8392 35.3524 60.901 35.2905 61.0247 35.2286C60.8392 35.2286 60.7773 35.2286 60.7155 35.2286ZM50.1392 45.3217C49.8918 45.5075 49.83 45.6933 49.9537 45.879C49.9537 45.9409 50.0774 45.9409 50.0774 45.9409C50.1392 45.9409 50.2011 45.879 50.2011 45.8171C50.2011 45.6313 50.2011 45.5075 50.1392 45.3217ZM62.6328 43.0307C62.6328 43.0926 62.6328 43.0307 62.6328 43.0307C62.571 42.9687 62.571 42.9068 62.5091 42.8449C62.4473 42.9068 62.3854 42.9687 62.3854 43.0307C62.3854 43.0926 62.3854 43.2164 62.4473 43.3403C62.4473 43.4022 62.571 43.4022 62.571 43.4022C62.6328 43.4022 62.6328 43.3403 62.6947 43.2783C62.6947 43.2164 62.6328 43.1545 62.6328 43.0307ZM64.3646 26.7454C64.3646 26.8073 64.3646 26.8073 64.3646 26.7454C64.612 26.7454 64.9213 26.6835 65.1687 26.6216V26.5597C64.8594 26.6835 64.612 26.7454 64.3646 26.7454ZM41.4803 37.7054C41.3566 37.6435 41.2948 37.6435 41.2329 37.6435C41.1711 37.6435 41.1092 37.7674 41.0474 37.8293C41.1092 37.8912 41.1711 37.9531 41.2329 37.8912C41.2948 37.8912 41.3566 37.7674 41.4803 37.7054ZM67.5189 32.9994C67.5189 32.9375 67.5189 32.9375 67.5189 32.9994C67.3952 32.9994 67.3334 33.0614 67.2715 33.1233C67.2715 33.1852 67.2715 33.2471 67.3334 33.309C67.3952 33.2471 67.4571 33.2471 67.4571 33.1852C67.5189 33.1233 67.5189 33.0614 67.5189 32.9994ZM57.1901 39.0058C57.2519 39.0058 57.2519 39.0058 57.3138 39.0058C57.1282 38.7581 57.4375 38.6962 57.4375 38.5104C57.3138 38.5723 57.1901 38.5723 57.1901 38.6343C57.1282 38.7581 57.1901 38.8819 57.1901 39.0058ZM48.593 36.3432C48.4075 36.2193 48.1601 36.2813 48.0982 36.5289C48.2837 36.4051 48.4075 36.4051 48.593 36.3432ZM60.2825 34.2998L60.2207 34.3617C60.2825 34.4236 60.2825 34.4856 60.3444 34.4856C60.4062 34.4856 60.4681 34.4236 60.5299 34.3617C60.4681 34.3617 60.3444 34.2998 60.2825 34.2998ZM60.4062 34.9809C60.5299 34.919 60.6536 34.919 60.7773 34.8571C60.7773 34.7952 60.7773 34.7952 60.7155 34.7332C60.5918 34.7952 60.5299 34.7952 60.4062 34.8571C60.4062 34.919 60.4062 34.919 60.4062 34.9809ZM69.2507 28.7888V28.7269C69.1889 28.7269 69.127 28.665 69.0652 28.665C69.0033 28.665 68.9415 28.7888 68.9415 28.7888C68.9415 28.7888 68.9415 28.8507 69.0033 28.8507C69.0652 28.8507 69.127 28.7888 69.2507 28.7888ZM52.8606 37.1482C52.6751 37.272 52.7988 37.3958 52.8606 37.5197H52.9225C52.8606 37.3958 52.8606 37.272 52.8606 37.1482ZM41.9133 38.0151C41.9133 37.9531 41.9133 37.9531 41.9133 37.8912C41.8514 37.8912 41.7277 37.8293 41.6659 37.8293C41.6659 37.8293 41.6659 37.8912 41.604 37.9531C41.7277 38.015 41.8514 38.0151 41.9133 38.0151Z" fill="#CE2951"/>
<path d="M76.7345 27.6123C75.3739 27.86 73.9513 28.1696 72.5906 28.4173C72.5288 28.4173 72.5288 28.4173 72.4669 28.4173V28.3554C72.6525 28.2934 72.838 28.2315 73.0236 28.2315C73.8895 28.0458 74.7554 27.9219 75.5594 27.7361C75.8686 27.6742 76.2397 27.5504 76.549 27.4885C76.6108 27.4885 76.6727 27.5504 76.7345 27.5504C76.7964 27.5504 76.7345 27.5504 76.7345 27.6123Z" fill="#CE2951"/>
<path d="M69.8074 45.5075C69.6837 45.3836 69.56 45.2598 69.6837 45.136C69.8074 45.0121 70.0548 44.9502 70.1785 45.074C70.3022 45.1979 70.364 45.3217 70.2403 45.4456C70.4259 45.6313 70.4877 45.8171 70.364 46.0029C70.2403 46.1267 69.9929 46.1886 69.8692 46.1267C69.7455 45.9409 69.6837 45.7552 69.8074 45.5075ZM69.8692 45.7552C69.9929 45.8171 70.0548 45.879 70.1166 45.879C70.1785 45.8171 70.2403 45.7552 70.2403 45.6932C70.2403 45.6313 70.1166 45.5694 70.0548 45.5075C69.9929 45.6313 69.9929 45.6933 69.8692 45.7552ZM70.1785 45.2598C70.0548 45.1979 69.9929 45.1979 69.9929 45.1979C69.9311 45.1979 69.9311 45.2598 69.8692 45.3217C69.9311 45.3217 69.9929 45.3836 70.0548 45.3836C70.0548 45.3836 70.1166 45.3217 70.1785 45.2598Z" fill="#CE2951"/>
<path d="M63.3751 46.5602C63.3132 46.5602 63.2514 46.6221 63.1895 46.5602C62.9421 46.4982 62.8803 46.4982 62.9421 46.8078C63.0658 46.684 63.2514 46.684 63.3751 46.8078C63.4988 46.9317 63.5606 47.1174 63.4988 47.2413C63.4369 47.3651 63.3132 47.4271 63.1895 47.489C62.9421 47.489 62.8184 47.3032 62.7566 46.9317C62.6947 46.6221 62.8184 46.4363 63.004 46.4363C63.1277 46.3125 63.2514 46.3744 63.3751 46.5602ZM62.8803 47.1174C63.004 47.1794 63.0658 47.2413 63.1895 47.3032C63.1895 47.2413 63.2514 47.1174 63.2514 47.0555C63.2514 46.9936 63.1277 46.9317 63.0658 46.8698C63.0658 46.9317 63.004 46.9936 62.8803 47.1174Z" fill="#CE2951"/>
<path d="M59.0457 47.8605C59.1694 47.8605 59.2312 47.9224 59.2931 47.9224C59.3549 47.9224 59.4168 47.9224 59.5405 47.9224C59.5405 47.7986 59.6023 47.7367 59.5405 47.6128C59.5405 47.5509 59.4168 47.5509 59.2931 47.5509C59.2312 47.5509 59.1694 47.6128 59.0457 47.7367C59.0457 47.489 59.0457 47.3032 59.0457 47.0555C59.2312 46.9936 59.4168 46.9936 59.6023 46.9317C59.6023 46.9936 59.6023 47.0555 59.6642 47.1175C59.5405 47.2413 59.2931 47.1175 59.2931 47.3651C59.6642 47.3032 59.7879 47.4271 59.8497 47.6748C59.9116 47.8605 59.7879 48.0463 59.6023 48.1082C59.2931 48.1701 59.1694 48.1082 59.0457 47.8605Z" fill="#CE2951"/>
<path d="M47.4799 50.2754C47.6655 50.2135 47.7892 50.2135 47.9129 50.2135C47.9129 50.2754 47.9129 50.3373 47.9747 50.3992C47.7273 50.4612 47.4799 50.4612 47.2325 50.5231C47.2944 50.3373 47.3562 50.2135 47.4799 50.0277C47.5418 49.9039 47.6036 49.8419 47.6655 49.7181C47.6655 49.6562 47.6036 49.5943 47.6036 49.4704C47.5418 49.5323 47.4799 49.5323 47.4181 49.5943C47.3562 49.6562 47.2944 49.6562 47.2325 49.7181C47.1707 49.4704 47.2944 49.4085 47.4181 49.3466C47.5418 49.2847 47.7273 49.2847 47.851 49.4085C47.9747 49.5323 47.9747 49.6562 47.9129 49.78C47.6655 49.9658 47.6036 50.0896 47.4799 50.2754Z" fill="#CE2951"/>
<path d="M54.778 49.0989C54.7162 49.037 54.6543 48.9751 54.5925 48.9751V48.9131C54.4688 48.9131 54.3451 48.9751 54.2214 48.9751C54.0977 48.7274 54.407 47.9843 54.6544 47.9843C54.7162 48.1701 54.7162 48.2939 54.778 48.4797C54.778 48.5416 54.778 48.7274 54.9017 48.7274C54.9017 48.7274 54.9636 48.8512 54.9017 48.8512C54.9017 48.9131 54.8399 48.9751 54.778 49.037C54.778 49.037 54.778 49.037 54.778 49.0989ZM54.2833 48.7274C54.407 48.7274 54.4688 48.6655 54.5306 48.6655C54.5306 48.5416 54.4688 48.4797 54.4688 48.2939C54.407 48.4797 54.3451 48.6035 54.2833 48.7274Z" fill="#CE2951"/>
<path d="M50.3248 48.9751C50.3867 48.9132 50.5104 48.7893 50.5722 48.7274C50.6959 48.7274 50.8196 48.7274 50.9433 48.7893C51.0052 48.8513 51.0052 48.9751 51.0052 49.037C51.067 49.2228 51.1907 49.3466 51.1907 49.4705C51.1907 49.5943 51.067 49.7181 50.9433 49.7181C50.8196 49.7801 50.6959 49.6562 50.5722 49.6562C50.5722 49.6562 50.5722 49.5943 50.5104 49.5324C50.5722 49.5324 50.6341 49.4705 50.6959 49.4705C50.7578 49.4705 50.8815 49.5324 50.9433 49.5324C50.9433 49.4705 51.0052 49.3466 51.0052 49.3466C50.9433 49.2847 50.8815 49.2228 50.7578 49.1609C50.7578 49.1609 50.8196 49.0989 50.8196 49.037C50.8196 48.9751 50.8196 48.9132 50.8196 48.8513C50.7578 48.8513 50.6959 48.9132 50.6341 48.9132C50.5722 48.9132 50.5104 48.9751 50.4485 48.9751C50.3867 49.037 50.3867 48.9751 50.3248 48.9751Z" fill="#CE2951"/>
<path d="M67.2096 46.684C67.2096 46.684 67.1478 46.684 67.0241 46.684C67.0859 46.3744 67.1478 46.0648 67.1478 45.7552C67.0241 45.7552 66.9004 45.8171 66.7767 45.8171C66.7767 45.7552 66.7767 45.6933 66.7148 45.6314C66.9622 45.5694 67.1478 45.5694 67.3952 45.5075C67.3952 45.5694 67.3952 45.6314 67.3952 45.6933C67.3333 46.0029 67.2715 46.3125 67.2096 46.684Z" fill="#CE2951"/>
<path d="M43.4595 50.5231C43.4595 50.3373 43.645 50.0277 43.8306 50.0277C43.8924 50.3992 43.9543 50.7088 44.0161 51.0804C43.9543 51.0804 43.8924 51.1423 43.8306 51.1423C43.7687 50.8946 43.7069 50.6469 43.7069 50.3992C43.645 50.4612 43.5832 50.4612 43.4595 50.5231Z" fill="#CE2951"/>
<path d="M71.1681 28.665C71.1062 28.5411 71.1062 28.4792 71.2299 28.4173C71.4773 28.3554 71.7247 28.3553 71.9721 28.3553C72.034 28.3553 72.0958 28.4173 72.1576 28.4173C72.0958 28.4792 72.034 28.5411 71.9721 28.5411C71.7247 28.5411 71.4773 28.603 71.1681 28.665Z" fill="#CE2951"/>
<path d="M59.2931 46.9317C59.2312 46.4982 59.1075 46.0648 59.0457 45.6932C59.0457 45.6932 59.0457 45.6932 59.1075 45.6932C59.1694 46.0648 59.2312 46.4982 59.2931 46.9317C59.2931 46.8697 59.2931 46.9317 59.2931 46.9317Z" fill="#CE2951"/>
<path d="M47.3561 48.6655C47.4179 48.8512 47.4798 48.9751 47.5416 49.1608C47.4179 49.1608 47.3561 49.037 47.3561 48.6655Z" fill="#CE2951"/>
<path d="M77.2911 27.3027C77.4148 27.3027 77.4767 27.2408 77.6004 27.2408C77.6004 27.2408 77.6622 27.2408 77.7241 27.3027C77.7241 27.3646 77.6622 27.3646 77.6622 27.3646C77.5385 27.3646 77.4767 27.3646 77.353 27.4265C77.2911 27.3646 77.2911 27.3646 77.2911 27.3027Z" fill="#CE2951"/>
<path d="M54.716 31.8229C54.6542 31.8849 54.5923 31.9468 54.5305 31.9468C54.4068 32.0087 54.3449 32.0087 54.2212 32.0087C54.1594 32.0087 54.0975 31.9468 54.0975 31.9468C54.1594 31.8849 54.1594 31.8229 54.2212 31.8229C54.4068 31.761 54.5923 31.761 54.716 31.6991C54.6542 31.761 54.716 31.8229 54.716 31.8229Z" fill="#CE2951"/>
<path d="M65.2925 28.7269C65.478 28.7888 65.6636 28.9745 65.6017 29.1603C65.5399 29.2222 65.3543 29.2842 65.2925 29.2842C65.1688 29.2842 65.2306 29.1603 65.2925 29.0984C65.2925 28.9745 65.2925 28.8507 65.2925 28.7269Z" fill="#CE2951"/>
<path d="M65.4161 30.1511C65.5398 30.1511 65.6017 30.0892 65.6635 30.0892C65.7872 30.1511 65.9109 30.213 66.0965 30.2749C65.9728 30.3369 65.9109 30.3988 65.8491 30.3988C65.6635 30.4607 65.5398 30.3369 65.4161 30.1511Z" fill="#CE2951"/>
<path d="M64.1791 30.0891C64.1173 30.0891 64.1173 30.0891 64.0554 30.0891C63.9936 30.0272 63.9317 30.0272 63.8699 29.9653C63.9317 29.9034 63.9936 29.9034 64.0554 29.8415C64.0554 29.8415 64.1173 29.8415 64.1791 29.8415C64.241 29.8415 64.4265 29.7795 64.3647 29.9653C64.3647 29.9653 64.3028 30.0272 64.1791 30.0891C64.241 30.0891 64.1791 30.0891 64.1791 30.0891Z" fill="#CE2951"/>
<path d="M65.2923 29.6557C65.2923 29.7176 65.3542 29.7176 65.3542 29.7795C65.3542 29.8415 65.3542 29.9034 65.3542 29.9653C65.2923 29.9034 65.2305 29.9034 65.1686 29.8415C65.1686 29.8415 65.1068 29.7176 65.1686 29.7176C65.1686 29.6557 65.2305 29.5938 65.2305 29.5319C65.2305 29.5319 65.2923 29.5319 65.2923 29.6557C65.2923 29.5938 65.2923 29.5938 65.2923 29.6557Z" fill="#CE2951"/>
<path d="M58.922 43.4022C58.7983 43.526 58.7364 43.5879 58.6746 43.7118C58.6127 43.6498 58.489 43.5879 58.489 43.526C58.489 43.4641 58.5509 43.3402 58.6127 43.2783C58.7364 43.2783 58.7983 43.3402 58.922 43.4022Z" fill="#CE2951"/>
<path d="M122.132 78.8829L110.876 118.574L102.65 147.801H96.6503L105.371 78.8829H122.132Z" fill="#26B759"/>
<path d="M125.163 78.8829C125.41 99.3168 126.338 110.463 126.585 112.32C126.833 114.178 130.977 126.005 139.017 147.739H132.77C122.565 126.872 116.875 115.045 115.7 112.32C114.525 109.596 110.814 98.4499 105.309 78.8829H125.163Z" fill="#4FD875"/>
<path d="M139.574 153.374L139.264 146.81H132.708C129.616 148.978 125.534 150.773 120.586 152.136V153.374H132.399L136.419 152.755V153.374H139.574Z" fill="#137F3A"/>
<path d="M103.454 153.374L103.144 146.81H96.6502C93.5577 148.978 89.4757 150.773 84.5277 152.136V153.374H96.341L100.361 152.755V153.374H103.454Z" fill="#137F3A"/>
<path d="M113.782 39.8726C112.36 38.2008 111.37 36.0954 111.556 33.8044C112.051 27.1169 121.328 28.603 123.122 31.9467C124.915 35.2905 124.73 43.8356 122.379 44.4548C121.452 44.7025 119.473 44.0833 117.431 42.9068L118.668 51.8853H111.185L113.782 39.8726Z" fill="#26B759"/>
<path d="M123.802 33.4948C123.74 33.0613 123.555 32.566 123.431 32.1325C123.245 31.5752 122.936 31.1418 122.627 30.6464C122.008 29.7795 121.328 29.0365 120.524 28.4173C119.101 27.2408 117.308 26.5596 115.514 26.8073C114.586 26.9311 113.721 27.2408 112.978 27.86C112.298 28.3553 111.679 29.1603 110.814 29.2222C109.886 29.2842 109.02 28.4173 108.216 27.9219C107.35 27.3646 106.422 26.9312 105.433 26.7454C103.763 26.4977 102.155 27.055 101.041 28.4173C99.8044 29.9034 98.9385 32.0087 99.7425 33.9902C99.8662 34.3617 100.114 34.6713 100.361 34.919C100.608 35.1667 100.98 35.4143 101.103 35.7859C101.227 36.1574 100.856 36.7147 100.732 37.0243C100.547 37.5196 100.423 38.0769 100.485 38.6342C100.547 39.563 101.165 40.4299 101.722 40.9872C102.34 41.6064 103.082 41.916 103.886 42.1018C104.443 42.2256 105 42.2876 105.495 42.2257C105.742 42.2257 105.989 42.1018 106.299 42.0399C106.546 41.978 106.67 42.0399 106.917 42.1637C107.907 42.8449 109.02 43.0925 110.195 42.9687C111.185 42.9068 112.298 42.6591 113.102 41.978C113.968 41.2349 113.968 40.1823 113.782 39.0677C114.03 39.1915 114.648 39.2534 114.277 38.82C114.153 38.6342 113.844 38.5723 113.659 38.4485C113.411 38.3246 113.226 38.2008 113.04 37.9531C112.36 37.1481 113.04 35.6001 113.906 35.2905C115.205 34.919 115.452 36.7147 116.38 37.1481C116.875 37.3958 117.431 37.0243 117.864 36.6528C118.359 36.1574 118.73 35.4763 119.04 34.7951C119.287 34.2378 119.534 33.6805 119.782 33.1233C119.905 32.8756 120.338 32.1325 120.091 31.8229C121.019 31.6372 122.008 32.0087 122.812 32.504C123.122 32.6898 123.369 32.9375 123.555 33.309C123.616 33.3709 123.678 33.6186 123.802 33.6186C123.926 33.8044 123.864 33.5567 123.802 33.4948Z" fill="#CE2951"/>
<path d="M123.988 36.9623C123.802 38.2008 125.534 39.0057 125.472 40.3061C124.853 40.3061 124.235 40.6776 123.555 40.6157" fill="#26B759"/>
<path d="M121.823 36.8385C121.946 36.7147 122.07 36.5909 122.256 36.5289C122.441 36.467 122.627 36.4051 122.812 36.4051C122.998 36.4051 123.183 36.467 123.369 36.5909C123.555 36.7147 123.616 36.9005 123.616 37.0862C123.369 36.7766 123.122 36.7766 122.812 36.7766C122.441 36.7147 122.132 36.7766 121.823 36.8385Z" fill="#095411"/>
<path d="M123.74 42.1018C123.307 42.2257 122.936 42.2876 122.503 42.1637C122.07 42.1018 121.637 41.8541 121.452 41.4826C121.637 41.5445 121.823 41.6684 122.008 41.7303C122.194 41.7922 122.379 41.8541 122.565 41.9161C122.936 41.9161 123.307 41.978 123.74 42.1018Z" fill="#095411"/>
<path d="M122.936 38.015C123.141 38.015 123.307 37.8487 123.307 37.6435C123.307 37.4383 123.141 37.272 122.936 37.272C122.731 37.272 122.565 37.4383 122.565 37.6435C122.565 37.8487 122.731 38.015 122.936 38.015Z" fill="#095411"/>
<path d="M89.9703 74.4865L81.4969 67.9848C77.2911 67.1798 75.312 66.5606 75.6212 66.0033C76.0542 65.1364 77.2293 65.7556 77.6622 65.1984C78.0952 64.6411 77.0437 63.093 76.0541 61.6069C75.0646 60.1208 75.9923 60.1827 76.5489 60.3685C78.4044 61.4212 80.3218 62.9073 82.3009 64.8887L93.5575 69.8424L89.9703 74.4865ZM146.934 89.9668C147.552 90.7717 151.325 92.8151 153.861 93.9297C154.912 94.3632 154.665 95.2301 154.356 95.5397C151.943 97.7688 149.717 96.097 147.057 95.4777C144.212 94.7347 145.078 98.2023 142.79 97.645C143.161 96.097 144.15 93.1247 143.099 91.5148C142.604 90.7717 139.202 84.4558 132.77 72.505L139.141 71.2666C143.47 82.5982 146.068 88.8522 146.934 89.9668Z" fill="#26B759"/>
<path d="M115.452 47.3031L112.731 46.8697C106.855 52.5664 104.443 66.251 100.547 68.0467C96.8356 69.7805 91.6402 68.1086 85.3934 65.8794L83.4761 70.152C89.1044 76.2822 101.165 81.4835 106.051 78.5113C113.906 73.7434 115.7 56.839 115.452 47.3031Z" fill="#095411"/>
<path d="M127.204 81.1739C116.38 81.1739 108.463 81.1739 103.392 81.1739C102.278 81.1739 102.526 79.6259 102.649 78.821C104.443 69.6566 111.556 59.7493 111.556 46.7458L118.421 45.6932C124.111 54.7956 126.09 66.0652 127.204 81.1739Z" fill="#B7F9C1"/>
<path d="M129.554 71.8858C134.44 80.6786 138.522 86.9945 141.8 90.8336L146.81 89.8429C143.594 69.8424 134.255 55.1052 118.854 45.6313H118.792H116.133C109.948 66.6844 108.278 80.7405 111.061 87.7376H132.523C132.152 82.5981 131.038 77.211 129.554 71.8858Z" fill="#095411"/>
<path d="M206.309 76.5919L194.558 117.212L188.991 147.739H183.487L188.991 76.5919H206.309Z" fill="#82E59B"/>
<path d="M211.628 76.5919C210.824 97.707 211.133 109.224 211.319 111.144C211.505 113.063 212.556 125.881 219.669 148.358H213.917C204.516 126.81 201.176 113.93 200.124 111.144C199.073 108.295 195.857 96.7782 191.218 76.5919H211.628Z" fill="#82E59B"/>
<path d="M206.556 76.5919C203.464 90.5861 198.207 112.878 190.661 143.529H182.559C181.94 112.073 184.538 91.391 188.929 76.5919H206.556Z" fill="#095411"/>
<path d="M211.69 76.5919C210.886 97.707 212.989 118.512 219.421 143.838H210.762C201.299 122.599 194.558 101.918 189.919 76.5919H211.69Z" fill="#137F3A"/>
<path d="M220.473 152.569L220.163 147.43C218.308 147.987 215.958 147.739 213.174 146.81C210.144 148.978 206.371 150.402 201.732 151.207C201.361 151.269 201.176 151.578 201.238 151.95V152.012L201.67 153.56H213.174H219.854L220.473 152.569Z" fill="#4FD875"/>
<path d="M190.228 152.569L189.919 147.43C188.064 147.987 185.713 147.739 182.93 146.81C179.899 148.978 176.127 150.402 171.488 151.207C171.117 151.269 170.931 151.578 170.993 151.95V152.012L171.426 153.56H182.93H189.61L190.228 152.569Z" fill="#4FD875"/>
<path d="M201.98 36.0336C203.464 34.2998 204.454 32.1326 204.268 29.7796C203.773 22.9064 194.187 24.3925 192.331 27.86C190.476 31.3276 190.661 40.1823 193.073 40.8016C194.063 41.0492 196.104 40.43 198.145 39.1916L196.846 48.4178H204.577L201.98 36.0336Z" fill="#82E59B"/>
<path d="M197.836 30.5226C197.527 34.6713 196.784 36.7147 195.486 36.7147C193.568 36.7147 191.96 35.4763 191.156 35.4763C190.538 35.4763 190.661 36.2194 191.094 36.7767C191.404 37.272 193.073 37.7055 193.073 38.3866C193.073 39.0677 191.775 38.5724 191.775 39.0058C191.775 39.6869 191.527 41.0492 192.764 41.0492C194.001 41.0492 197.588 40.6158 198.207 38.7581C198.578 37.5816 198.825 35.1048 198.949 31.3276C199.011 31.3276 199.073 31.3276 199.197 31.3276C200.248 31.3276 201.114 32.1945 201.114 33.2472C201.114 33.8045 200.866 34.2998 200.557 34.6094C200.99 35.2286 201.485 35.9098 202.103 36.5909C204.268 35.2906 206.186 31.5134 204.083 27.86C203.526 26.0643 201.856 25.1355 200.31 24.7021C199.073 24.1448 197.712 24.1448 196.661 24.4544C194.496 24.6401 192.579 25.3213 192.022 25.6928C192.022 27.7362 192.393 28.3554 195.795 28.2935C196.537 28.7269 197.156 29.5319 197.836 30.5226Z" fill="#095411"/>
<path d="M191.342 31.5753C191.156 32.628 189.795 33.6187 189.857 34.7952C190.167 34.9191 190.414 35.1048 190.723 35.1667C191.032 35.2287 191.28 35.1667 191.589 35.2906" fill="#82E59B"/>
<path d="M191.898 30.3988C192.084 30.2749 192.207 30.213 192.393 30.1511C192.579 30.0892 192.764 30.0273 193.011 30.0892C193.197 30.1511 193.444 30.275 193.506 30.4607C193.568 30.5226 193.63 30.6465 193.63 30.7084C193.63 30.7703 193.63 30.8322 193.692 30.8322V30.8942V30.9561H193.63C193.63 30.8942 193.506 30.8942 193.444 30.8322C193.383 30.7703 193.259 30.7703 193.197 30.7084C193.073 30.6465 192.95 30.5846 192.826 30.5846C192.702 30.5226 192.579 30.5226 192.393 30.5226C192.269 30.5846 192.084 30.5226 191.898 30.3988Z" fill="#095411"/>
<path d="M192.331 31.6992C192.468 31.6992 192.579 31.5883 192.579 31.4515C192.579 31.3147 192.468 31.2038 192.331 31.2038C192.195 31.2038 192.084 31.3147 192.084 31.4515C192.084 31.5883 192.195 31.6992 192.331 31.6992Z" fill="#095411"/>
<path d="M175.756 47.9224L166.293 42.3495C161.839 42.1019 159.798 41.6684 160.046 41.0492C160.417 40.1204 161.654 40.5538 162.025 39.9965C162.396 39.4393 161.159 37.8912 159.922 36.529C158.685 35.1667 159.675 35.1048 160.293 35.2286C162.334 36.0336 164.437 37.3339 166.726 39.1297L178.91 42.783L175.756 47.9224ZM182.188 69.8425L172.045 74.0531C169.2 77.4588 167.591 78.821 167.22 78.2638C166.726 77.3969 167.839 76.6538 167.591 76.0346C167.344 75.4154 165.427 75.4773 163.571 75.6011C161.716 75.725 162.272 74.92 162.705 74.5485C164.561 73.4339 166.911 72.5051 169.694 71.762L179.961 64.2077L182.188 69.8425Z" fill="#82E59B"/>
<path d="M195.857 43.8976C190.29 54.3003 182.188 62.2881 170.498 70.6475L174.952 75.6631C188.002 70.7713 194.929 67.861 198.331 58.0156C199.197 55.5387 199.753 47.6748 200.31 43.5261L195.857 43.8976Z" fill="#26B759"/>
<path d="M211.443 78.6353H186.703C192.331 61.4832 195.176 49.7801 195.3 43.4022C195.3 43.0926 195.918 42.4734 196.166 42.5972C198.083 43.1545 200.186 42.9688 202.413 41.978C208.288 51.39 210.329 63.0312 211.443 78.6353Z" fill="#B7F9C1"/>
<path d="M200.31 41.978C193.197 42.04 181.693 43.3403 168.396 39.0677L167.097 45.6314C177.116 52.0712 187.321 57.0868 196.166 56.4056C192.269 73.0005 192.455 86.6231 200.99 86.6231C205.072 86.6231 209.464 86.6231 214.164 86.6231C216.267 72.5051 210.762 52.9381 205.629 43.0926C205.443 42.7211 205.01 41.978 204.021 41.978C203.279 41.978 201.98 41.978 200.31 41.978Z" fill="#4FD875"/>
<path d="M121.514 135.107C120.771 135.107 120.091 136.284 120.091 137.708C120.091 137.894 120.091 138.08 120.091 138.265C120.091 138.823 120.091 139.318 120.091 139.875C120.091 140.68 120.091 141.547 120.091 142.352C120.091 143.405 120.091 144.519 120.091 145.572C120.091 146.872 120.091 148.173 120.091 149.411C120.091 150.835 120.091 152.321 120.091 153.746C120.091 155.294 120.091 156.903 120.091 158.452C120.091 160.061 120.091 161.733 120.091 163.343C120.091 165.015 120.091 166.687 120.091 168.297C120.091 169.907 120.091 171.579 120.091 173.189C120.091 174.737 120.091 176.347 120.091 177.895C120.091 179.381 120.091 180.805 120.091 182.291C120.091 183.591 120.091 184.892 120.091 186.192C120.091 187.307 120.091 188.359 120.091 189.474C120.091 190.341 120.091 191.146 120.091 192.013C120.091 192.57 120.091 193.127 120.091 193.623C120.091 193.932 120.091 194.304 120.091 194.613C120.091 194.985 120.4 195.171 120.586 195.233C120.895 195.418 121.204 195.418 121.514 195.418C121.761 195.418 122.07 195.356 122.318 195.295C122.503 195.233 122.812 195.109 122.874 194.799C122.874 194.737 122.874 194.675 122.874 194.613C122.874 194.242 122.874 193.932 122.874 193.561C122.874 193.003 122.874 192.508 122.874 191.951C122.874 191.146 122.874 190.341 122.874 189.536C122.874 188.483 122.874 187.431 122.874 186.44C122.874 185.201 122.874 183.963 122.874 182.725C122.874 181.362 122.874 179.938 122.874 178.576C122.874 177.09 122.874 175.542 122.874 174.056C122.874 172.508 122.874 170.898 122.874 169.35C122.874 167.74 122.874 166.13 122.874 164.52C122.874 162.91 122.874 161.362 122.874 159.752C122.874 158.204 122.874 156.656 122.874 155.17C122.874 153.746 122.874 152.259 122.874 150.835C122.874 149.535 122.874 148.235 122.874 146.934C122.874 145.82 122.874 144.705 122.874 143.529C122.874 142.6 122.874 141.733 122.874 140.804C122.874 140.123 122.874 139.504 122.874 138.823C122.874 138.451 122.874 138.141 122.874 137.77C122.874 137.708 122.874 137.646 122.874 137.646C122.936 136.284 122.318 135.107 121.514 135.107Z" fill="#26B759"/>
<path d="M166.602 126.376C165.86 126.376 165.179 127.553 165.179 128.977C165.179 129.163 165.179 129.349 165.179 129.534C165.179 130.092 165.179 130.587 165.179 131.144C165.179 131.949 165.179 132.816 165.179 133.621C165.179 134.674 165.179 135.788 165.179 136.841C165.179 138.141 165.179 139.442 165.179 140.68C165.179 142.104 165.179 143.591 165.179 145.015C165.179 146.563 165.179 148.173 165.179 149.721C165.179 151.331 165.179 153.003 165.179 154.612C165.179 156.284 165.179 157.956 165.179 159.566C165.179 161.176 165.179 162.848 165.179 164.458C165.179 166.006 165.179 167.616 165.179 169.164C165.179 170.65 165.179 172.074 165.179 173.56C165.179 174.861 165.179 176.161 165.179 177.461C165.179 178.576 165.179 179.629 165.179 180.743C165.179 181.61 165.179 182.415 165.179 183.282C165.179 183.839 165.179 184.396 165.179 184.892C165.179 185.201 165.179 185.573 165.179 185.883C165.179 186.254 165.489 186.44 165.674 186.502C165.983 186.688 166.293 186.688 166.602 186.688C166.849 186.688 167.159 186.626 167.406 186.564C167.591 186.502 167.901 186.378 167.963 186.068C167.963 186.006 167.963 185.945 167.963 185.883C167.963 185.511 167.963 185.201 167.963 184.83C167.963 184.273 167.963 183.777 167.963 183.22C167.963 182.415 167.963 181.61 167.963 180.805C167.963 179.752 167.963 178.7 167.963 177.709C167.963 176.471 167.963 175.232 167.963 173.994C167.963 172.631 167.963 171.207 167.963 169.845C167.963 168.359 167.963 166.811 167.963 165.325C167.963 163.777 167.963 162.167 167.963 160.619C167.963 159.009 167.963 157.399 167.963 155.789C167.963 154.179 167.963 152.631 167.963 151.021C167.963 149.473 167.963 147.925 167.963 146.439C167.963 145.015 167.963 143.529 167.963 142.104C167.963 140.804 167.963 139.504 167.963 138.203C167.963 137.089 167.963 135.974 167.963 134.798C167.963 133.869 167.963 133.002 167.963 132.073C167.963 131.392 167.963 130.773 167.963 130.092C167.963 129.72 167.963 129.411 167.963 129.039C167.963 128.977 167.963 128.915 167.963 128.915C167.963 127.553 167.344 126.376 166.602 126.376Z" fill="#26B759"/>
<path d="M211.072 134.798C210.33 134.798 209.649 135.974 209.649 137.398C209.649 137.584 209.649 137.77 209.649 137.956C209.649 138.513 209.649 139.008 209.649 139.566C209.649 140.371 209.649 141.238 209.649 142.042C209.649 143.095 209.649 144.21 209.649 145.262C209.649 146.563 209.649 147.863 209.649 149.101C209.649 150.526 209.649 152.012 209.649 153.436C209.649 154.984 209.649 156.532 209.649 158.142C209.649 159.752 209.649 161.424 209.649 163.034C209.649 164.706 209.649 166.316 209.649 167.987C209.649 169.597 209.649 171.269 209.649 172.879C209.649 174.427 209.649 175.975 209.649 177.585C209.649 179.009 209.649 180.495 209.649 181.92C209.649 183.22 209.649 184.52 209.649 185.821C209.649 186.935 209.649 187.988 209.649 189.102C209.649 189.969 209.649 190.774 209.649 191.641C209.649 192.199 209.649 192.694 209.649 193.251C209.649 193.561 209.649 193.932 209.649 194.242C209.649 194.613 209.958 194.799 210.144 194.861C210.453 195.047 210.762 195.047 211.072 195.047C211.319 195.047 211.628 194.985 211.876 194.923C212.061 194.861 212.371 194.737 212.432 194.428C212.432 194.366 212.432 194.304 212.432 194.242C212.432 193.87 212.432 193.561 212.432 193.189C212.432 192.694 212.432 192.137 212.432 191.641C212.432 190.836 212.432 190.031 212.432 189.226C212.432 188.174 212.432 187.121 212.432 186.13C212.432 184.892 212.432 183.653 212.432 182.415C212.432 181.053 212.432 179.629 212.432 178.266C212.432 176.78 212.432 175.294 212.432 173.746C212.432 172.198 212.432 170.588 212.432 169.04C212.432 167.43 212.432 165.82 212.432 164.272C212.432 162.662 212.432 161.114 212.432 159.504C212.432 157.956 212.432 156.47 212.432 154.922C212.432 153.498 212.432 152.074 212.432 150.588C212.432 149.287 212.432 147.987 212.432 146.687C212.432 145.572 212.432 144.457 212.432 143.281C212.432 142.352 212.432 141.485 212.432 140.556C212.432 139.937 212.432 139.256 212.432 138.637C212.432 138.265 212.432 137.956 212.432 137.584C212.432 137.522 212.432 137.46 212.432 137.46C212.494 135.974 211.876 134.798 211.072 134.798Z" fill="#26B759"/>
<path d="M217.38 131.454C217.38 137.46 194.496 142.352 166.293 142.352C138.089 142.352 115.205 137.46 115.205 131.454V132.754C115.205 138.761 138.028 143.652 166.231 143.652C194.434 143.652 216.576 139.008 217.442 133.126L217.38 131.454Z" fill="#4FD875"/>
<path d="M166.231 142.414C194.446 142.414 217.318 137.535 217.318 131.516C217.318 125.497 194.446 120.618 166.231 120.618C138.016 120.618 115.143 125.497 115.143 131.516C115.143 137.535 138.016 142.414 166.231 142.414Z" fill="#B7F9C1"/>
<path d="M194.125 129.906L187.445 127.739L187.383 127.429L185.899 126.934L185.713 127.429L185.59 127.924L187.074 128.42L187.322 128.234L193.939 130.401L193.692 131.206L194.496 131.454L194.805 130.401L195.176 129.349L194.372 129.101L194.125 129.906Z" fill="#137F3A"/>
<path d="M196.723 129.844L195.176 129.349L194.496 131.454L196.042 131.949L196.413 132.383C196.599 132.63 196.846 132.816 197.155 132.878L201.485 134.302C201.732 134.364 202.042 134.24 202.165 133.993L202.536 132.94L202.907 131.887C202.969 131.64 202.846 131.33 202.598 131.206L198.269 129.782C197.96 129.658 197.65 129.658 197.403 129.782L196.723 129.844Z" fill="#095411"/>
<path d="M197.3 131.548L197.109 132.137L201.58 133.591L201.771 133.002L197.3 131.548Z" fill="#137F3A"/>
<path d="M197.717 130.369L197.526 130.958L201.996 132.412L202.187 131.823L197.717 130.369Z" fill="#137F3A"/>
<path d="M161.963 124.952L161.654 126.748C161.654 126.872 161.468 126.996 161.345 126.934C160.664 126.81 158.747 126.438 157.201 127.058C155.902 127.553 154.85 128.358 154.232 128.853C153.923 129.101 153.49 129.101 153.242 128.853C152.933 128.544 152.933 127.986 153.304 127.739C154.417 126.872 156.83 125.448 160.355 125.572C160.788 125.572 161.221 125.386 161.468 125.014L161.592 124.767C161.654 124.705 161.716 124.705 161.778 124.643C161.901 124.705 162.025 124.828 161.963 124.952Z" fill="#137F3A"/>
<path d="M164.313 127.677C164.437 127.677 164.561 127.677 164.685 127.615C164.808 127.553 164.932 127.491 165.056 127.367L166.231 127.243C166.726 127.181 167.159 126.996 167.468 126.686L168.828 125.386L168.705 125.138C168.705 125.138 168.148 125.386 167.344 125.695C167.344 125.943 167.22 126.191 166.973 126.315C166.726 126.438 166.416 126.315 166.293 126.129C165.983 126.253 165.674 126.376 165.303 126.5C165.303 126.438 165.303 126.376 165.241 126.376C165.241 126.315 165.179 126.253 165.179 126.253C165.489 126.129 165.86 126.005 166.169 125.881C166.169 125.633 166.293 125.386 166.54 125.262C166.787 125.138 167.097 125.262 167.22 125.448C168.024 125.138 168.581 124.89 168.581 124.89L168.457 124.643L166.602 124.581C166.107 124.581 165.674 124.705 165.303 125.014L164.375 125.695C164.252 125.695 164.066 125.695 163.942 125.757C163.819 125.819 163.695 125.881 163.633 125.943L161.839 125.757L161.654 126.81L163.262 126.934C163.262 126.934 163.262 126.934 163.324 126.934C163.324 126.996 163.324 127.058 163.386 127.058C163.386 127.12 163.448 127.181 163.448 127.181C163.448 127.181 163.448 127.181 163.386 127.181L162.272 128.358L163.138 129.039L164.313 127.677Z" fill="#095411"/>
<path d="M163.695 129.472L162.211 128.358C162.087 128.234 161.901 128.296 161.84 128.42C161.407 128.977 160.231 130.525 158.685 131.144C157.386 131.64 156.026 131.764 155.284 131.825C154.912 131.825 154.603 132.135 154.541 132.507C154.479 132.94 154.912 133.312 155.345 133.312C156.706 133.188 159.489 132.63 162.025 130.154C162.334 129.844 162.829 129.72 163.262 129.844L163.509 129.906C163.571 129.906 163.633 129.906 163.695 129.844C163.819 129.72 163.819 129.534 163.695 129.472Z" fill="#137F3A"/>
<path d="M164.521 127.155C164.808 127.044 164.951 126.722 164.841 126.434C164.73 126.147 164.408 126.004 164.121 126.115C163.834 126.225 163.691 126.548 163.802 126.835C163.912 127.122 164.234 127.266 164.521 127.155Z" fill="#B7F9C1"/>
<path d="M134.317 134.86C132.09 132.259 133.512 129.225 133.512 129.225L134.317 127.739C134.378 127.615 134.44 127.615 134.564 127.615C134.997 127.615 135.43 127.367 135.615 126.996C135.801 126.562 135.801 126.129 135.554 125.757C135.492 125.695 135.492 125.571 135.554 125.448L136.296 124.085C136.358 124.023 136.419 123.962 136.543 124.023L138.708 125.2C138.77 125.262 138.832 125.324 138.77 125.448L138.027 126.81C137.966 126.934 137.904 126.934 137.78 126.934C137.347 126.934 136.914 127.181 136.729 127.553C136.729 127.615 136.667 127.615 136.667 127.677C136.419 128.234 136.667 128.853 137.223 129.163L137.656 129.349L149.779 135.788L148.913 137.46L136.791 131.021L136.048 130.649C134.255 130.959 134.44 133.683 134.626 134.86C134.688 134.922 134.44 134.983 134.317 134.86Z" fill="#26B759"/>
<path d="M150.768 138.513L145.635 135.788L146.624 133.869L151.758 136.593C151.944 136.47 152.129 136.47 152.315 136.531C152.562 136.655 152.686 136.965 152.562 137.275L151.758 138.823C151.634 139.07 151.325 139.194 151.016 139.07C150.892 138.885 150.768 138.699 150.768 138.513Z" fill="#095411"/>
</svg>
