<svg fill="none" height="203" viewBox="0 0 292 203" width="292" xmlns="http://www.w3.org/2000/svg"><path d="m77.2828 81.3127c-4.3324 1.3394-8.0741 3.0938-11.225 5.263-21.3065 14.8123-38.5979 34.2243-53.9574 51.1653-8.41385 9.35-13.62705 20.207-8.18106 30.869 1.53809 3.091 4.01292 6.089 8.07146 8.615 6.6309 4.148 16.71 6.307 26.434 7.642 42.4764 5.865 85.4992-.366 128.4832 2.715 29.619 2.069 61.098 8.53 87.727 3.2 27.989-5.552 40.193-24.636 26.383-39.783-7.481-8.2-20.661-14.733-33.547-21.032-28.772-14.037-57.402-31.5238-89.207-43.5961-23.252-8.7981-58.7789-12.0892-80.9812-5.0582z" fill="#e8f4e8"/><path d="m0 0h174.211v119.59h-174.211z" fill="#095411" transform="matrix(.978795 -.204842 .202922 .979195 44.6133 46.2154)"/><path d="m128.036 26.5487c-18.253-12.0783-60.7176 6.0826-79.6683 16.6728l23.8288 114.9855c35.8865-21.053 68.0645-19.887 79.6675-16.673z" fill="#82e59b"/><path d="m127.889 25.8433c30.764-17.62569 68.086-17.4384 82.902-15.1415l23.683 114.2802c-44.061-4.322-73.334 9.704-82.463 17.258z" fill="#d4f4d7"/><g stroke="#095411" stroke-width="2"><path d="m142.066 125.92c-7.952-2.016-31.664-2.206-62.8953 13.163"/><path d="m138.828 113.81c-7.953-2.016-31.665-2.206-62.8961 13.163"/><path d="m135.611 98.2905c-7.952-2.0159-31.664-2.2056-62.8953 13.1625"/><path d="m123.624 40.4451c-7.952-2.0159-31.6647-2.2056-62.8957 13.1627"/><path d="m222.91 111.725c-7.903-2.207-31.605-2.969-63.192 11.641"/><path d="m218.5 97.2472c-7.903-2.2071-31.605-2.969-63.193 11.6408"/><path d="m215.868 84.5495c-7.902-2.2072-31.605-2.9691-63.192 11.6404"/><path d="m209.436 53.5105c-7.903-2.2072-31.605-2.9691-63.193 11.6404"/></g><path d="m66.7446 79.121 4.3857 21.163c24.9643-14.6457 50.9347-14.585 60.7997-12.724l-4.386-21.163c-20.529-3.3584-49.0867 7.0834-60.7994 12.724z" fill="#ce2951"/><path d="m138.583 31.7017 4.531 21.8684c27.084-15.678 54.147-15.5027 64.294-13.4553l-4.532-21.8684c-34.414-2.8077-57.202 7.8003-64.293 13.4553z" fill="#f24c64"/></svg>