<svg width="324" height="248" viewBox="0 0 324 248" fill="none" xmlns="http://www.w3.org/2000/svg">
<path d="M77.3304 127.047C72.9953 128.378 69.2514 130.122 66.0985 132.278C44.7788 147.001 27.4768 166.295 12.1078 183.135C3.68879 192.428 -1.52763 203.219 3.92172 213.817C5.46076 216.889 7.93712 219.87 11.9982 222.38C18.6332 226.503 28.7185 228.649 38.4485 229.977C80.9511 235.806 124.001 229.613 167.011 232.675C196.648 234.732 228.147 241.153 254.792 235.855C282.798 230.337 295.01 211.368 281.191 196.312C273.706 188.162 260.518 181.668 247.623 175.407C218.834 161.455 190.186 144.074 158.361 132.074C135.096 123.329 99.5464 120.058 77.3304 127.047Z" fill="#E8F4E8"/>
<rect width="169.002" height="105.933" transform="matrix(0.966065 0.258301 -0.259557 0.965728 160.711 69.8491)" fill="#82E59B"/>
<path d="M231.227 132.505C218.543 129.023 205.451 125.428 192.767 121.946C191.949 121.721 190.495 122.204 190.948 120.564C191.4 118.923 192.401 120.08 193.219 120.305C208.767 124.574 224.723 128.955 240.271 133.224C250.09 135.92 259.91 138.616 269.729 141.312C270.138 141.424 270.547 141.536 270.956 141.649C271.366 141.761 271.253 142.171 271.139 142.581C271.026 142.992 270.617 142.879 270.208 142.767C269.799 142.655 268.981 142.43 268.572 142.317C256.593 139.47 243.91 135.988 231.227 132.505Z" fill="#095411"/>
<path d="M226.489 149.698C213.805 146.216 201.122 142.733 188.438 139.251C188.029 139.139 187.211 138.914 186.802 138.802C186.393 138.689 185.983 138.577 186.097 138.167C186.21 137.757 186.323 137.347 186.732 137.459C187.141 137.571 187.959 137.796 188.368 137.908C210.053 143.862 231.737 149.816 253.422 155.769C257.104 156.78 260.377 157.679 264.06 158.69C264.878 158.915 266.741 158.544 266.288 160.184C265.836 161.825 264.426 160.555 263.607 160.331C251.742 157.073 239.172 153.181 226.489 149.698Z" fill="#095411"/>
<path d="M229.647 138.237C216.964 134.754 204.28 131.272 191.597 127.789C191.188 127.677 190.778 127.565 190.369 127.452C189.96 127.34 189.551 127.228 189.777 126.407C190.003 125.587 190.412 125.699 190.822 125.812C191.231 125.924 191.64 126.036 192.049 126.149C210.051 131.091 228.054 136.034 246.056 140.977C253.83 143.112 261.194 145.134 268.968 147.268C269.377 147.38 270.717 147.307 270.491 148.128C270.152 149.358 269.447 148.723 268.629 148.499C255.423 145.314 242.74 141.831 229.647 138.237Z" fill="#095411"/>
<path d="M228.067 143.968C215.384 140.486 202.701 137.003 190.017 133.521C189.608 133.408 189.199 133.296 188.79 133.184C187.971 132.959 188.085 132.549 188.198 132.139C188.311 131.728 188.833 131.431 189.242 131.543C189.651 131.655 190.469 131.88 190.879 131.992C211.336 137.609 232.202 143.338 252.659 148.955C257.569 150.303 262.479 151.651 267.388 152.999C267.797 153.112 269.138 153.038 268.799 154.269C268.46 155.5 267.345 154.752 266.936 154.64C253.844 151.045 240.751 147.45 228.067 143.968Z" fill="#095411"/>
<path d="M233.167 126.17C226.62 124.373 220.483 122.688 213.937 120.891C213.528 120.779 212.188 120.852 212.527 119.622C212.866 118.391 213.571 119.026 214.389 119.251C227.073 122.733 239.756 126.215 252.848 129.809C253.257 129.921 254.598 129.848 254.259 131.079C253.92 132.309 253.214 131.674 252.396 131.45C245.85 129.652 239.713 127.968 233.167 126.17Z" fill="#095411"/>
<path d="M226.74 155.188C230.013 156.086 233.286 156.984 236.15 157.77C236.559 157.883 237.491 157.697 237.152 158.927C236.925 159.748 236.107 159.523 235.698 159.411C229.152 157.614 222.606 155.817 216.06 154.02C215.651 153.908 214.719 154.093 215.059 152.863C215.285 152.043 216.103 152.268 216.512 152.38C220.194 153.391 223.467 154.289 226.74 155.188Z" fill="#095411"/>
<path d="M170.887 96.031C171.383 95.7654 171.647 96.2609 171.779 96.5087C174.033 98.6455 174.668 101.331 174.369 104.358C174.253 104.738 174.269 105.367 174.096 105.938C174.955 105.159 175.567 104.513 176.368 103.924C176.5 104.172 176.632 104.419 177.128 104.154C177.682 103.698 178.177 103.432 178.921 103.034C181.458 101.516 183.994 99.9976 186.399 98.2316C186.679 99.3554 186.142 100.44 185.472 101.276C183.596 104.033 180.869 105.494 177.334 104.84C176.954 104.725 176.574 104.61 176.269 104.933C174.434 106.871 172.657 108.619 171.334 110.921C171.276 111.111 171.028 111.244 171.16 111.491C171.045 111.872 170.855 111.815 170.607 111.947C169.995 112.593 169.442 113.049 169.21 113.81C169.094 114.191 168.788 114.514 169.11 114.819C169.432 115.125 169.738 114.802 170.176 114.726C173.035 113.513 175.835 112.491 178.694 111.278C179.685 110.746 180.809 110.463 181.743 110.122C180.7 113.547 178.295 115.313 175.115 116.221C173.306 116.712 171.232 116.708 169.448 115.753C168.557 115.275 168.441 115.656 168.267 116.227C167.15 119.214 166.282 122.068 165.735 125.227C165.387 126.369 164.982 127.701 165.014 128.958C165.163 129.834 165.352 129.891 166.154 129.303C167.013 128.524 167.741 127.497 168.658 126.528C170.857 124.076 172.807 121.757 175.006 119.305C176.143 124.429 171.82 129.771 166.492 130.236C165.674 130.197 165.559 130.577 165.575 131.205C165.772 133.967 165.969 136.728 167.041 139.338C166.999 140.157 167.453 140.71 167.602 141.586C167.486 141.966 167.37 142.347 167.75 142.462C168.13 142.577 168.056 142.139 168.114 141.949C169.057 139.532 170.131 137.364 171.074 134.948C171.364 133.996 172.223 133.217 171.943 132.094C172.439 131.828 172.513 132.266 172.645 132.514C174.32 136.553 171.864 141.213 168.378 142.444C167.692 142.652 167.634 142.842 167.84 143.528C168.575 145.205 169.499 146.94 170.423 148.674C170.687 149.169 171.009 149.475 171.273 149.97C171.405 150.218 171.537 150.466 171.785 150.333C172.033 150.2 172.091 150.01 172.149 149.82C172.191 149.001 172.232 148.182 172.464 147.421C172.738 145.842 172.763 144.395 173.416 142.93C175.422 145.199 175.198 148.664 172.603 150.373C171.859 150.771 171.934 151.209 172.388 151.762C173.75 153.421 175.302 155.138 176.97 156.474C177.102 156.722 177.73 156.704 177.366 157.217C177.002 157.73 176.738 157.235 176.606 156.987C174.484 155.098 172.42 153.019 170.72 150.426C170.456 149.931 170.266 149.873 169.886 149.758C167.606 149.068 165.327 148.378 162.857 147.631C162.477 147.516 162.097 147.401 161.792 147.724C161.338 147.171 162.023 146.963 162.271 146.83C164.006 145.901 165.89 145.847 167.731 146.612C167.921 146.67 168.243 146.975 168.491 146.842C168.021 145.661 167.361 144.422 166.89 143.241C166.758 142.993 166.568 142.936 166.379 142.878C166.304 142.44 165.792 142.077 165.223 141.905C163.497 140.759 161.713 139.804 159.987 138.658C158.393 137.76 157.047 136.729 155.396 136.022C155.38 135.393 155.949 135.566 156.197 135.433C159.758 134.64 162.739 135.75 165.067 138.325C164.697 136.135 164.326 133.945 164.335 131.869C164.393 131.679 164.261 131.431 164.071 131.374C162.899 129.772 161.727 128.171 160.555 126.569C159.779 125.711 159.251 124.72 158.475 123.861C157.567 122.755 157.096 121.574 155.94 120.601C157.502 120.242 158.831 120.645 160.045 121.427C161.829 122.383 163.249 123.852 164.058 125.967C164.19 126.214 164.132 126.405 164.512 126.52C164.769 124.312 165.216 122.161 165.911 119.878C165.969 119.687 166.027 119.497 165.895 119.249C165.499 118.506 165.102 117.763 164.896 117.077C163.956 114.714 163.015 112.351 162.075 109.989C161.53 108.369 160.833 106.628 160.537 104.876C160.727 104.933 160.94 104.998 161.13 105.055C161.328 105.115 161.328 105.115 161.664 105.433C165.669 107.268 166.907 109.789 167.565 115.806C168.582 113.828 169.599 111.85 170.748 110.12C170.864 109.739 171.038 109.168 170.964 108.73C170.841 106.407 170.85 104.332 170.727 102.009C170.985 99.8009 171.374 97.8406 170.887 96.031Z" fill="#CE2951"/>
<path d="M160.544 104.746C160.899 106.308 161.633 107.985 162.178 109.605C163.118 111.968 164.059 114.331 165 116.694C165.396 117.437 165.602 118.123 165.998 118.866C166.13 119.114 166.072 119.304 166.014 119.495C159.934 117.655 157.286 109.995 160.048 105.011C160.296 104.878 160.354 104.688 160.544 104.746Z" fill="#F24C64"/>
<path d="M174.924 119.381C172.894 121.791 170.608 124.208 168.6 126.717C167.872 127.744 167.013 128.523 166.095 129.492C165.484 130.138 165.104 130.023 164.955 129.147C164.733 127.833 165.271 126.749 165.676 125.417C167.057 122.925 168.702 120.929 171.502 119.907C172.684 119.433 173.784 119.036 174.924 119.381Z" fill="#F24C64"/>
<path d="M155.396 136.01C157.049 136.719 158.396 137.75 159.99 138.648C161.775 139.605 163.588 140.59 165.315 141.736C165.827 142.099 166.402 142.514 166.856 143.067C164.682 144.073 162.079 144.063 159.972 142.802C157.485 141.425 155.742 139.65 155.412 136.639C155.338 136.201 155.396 136.01 155.396 136.01Z" fill="#F24C64"/>
<path d="M156.239 120.269C157.205 121.185 157.865 122.424 158.774 123.531C159.55 124.389 160.137 125.19 160.855 126.239C162.028 127.841 163.141 129.9 164.313 131.502C161.743 131.764 159.828 130.294 158.086 128.519C156.797 127.298 156.062 125.62 155.708 124.058C155.675 122.801 155.643 121.544 156.239 120.269Z" fill="#F24C64"/>
<path d="M170.873 96.0336C171.302 98.0334 170.97 99.8034 171.209 101.746C171.332 104.069 171.322 106.144 171.445 108.467C171.329 108.847 171.213 109.228 171.04 109.799C169.124 108.595 168.258 106.671 168.077 104.538C167.558 101.472 168.237 98.5606 170.567 96.3566C170.625 96.1664 170.815 96.2239 170.873 96.0336Z" fill="#F24C64"/>
<path d="M181.682 110.316C180.748 110.657 179.567 111.131 178.633 111.472C175.773 112.685 172.971 113.708 170.111 114.922C169.863 115.054 169.367 115.32 169.045 115.015C168.723 114.709 169.087 114.196 169.145 114.006C169.376 113.244 169.657 112.585 170.21 112.129C170.458 111.997 170.839 111.617 171.105 111.32C173.305 108.867 178.114 108.405 180.98 109.896C181.228 109.763 181.608 109.878 181.682 110.316Z" fill="#F24C64"/>
<path d="M186.38 98.3451C183.975 100.111 181.437 101.63 178.9 103.148C178.346 103.604 177.85 103.87 177.107 104.268C176.611 104.534 176.479 104.286 176.347 104.038C177.216 101.184 178.861 99.1874 181.794 98.4123C183.414 97.8632 184.976 97.5045 186.38 98.3451Z" fill="#F24C64"/>
<path d="M172.007 131.901C172.287 133.025 171.428 133.804 171.138 134.755C170.196 137.171 169.121 139.339 168.179 141.755C168.121 141.945 168.268 142.634 167.888 142.519C167.509 142.404 167.218 141.88 167.334 141.499C167.128 140.814 167.007 140.154 167.049 139.335C167.042 136.632 167.984 134.216 170.33 132.641C170.578 132.508 171.131 132.052 172.007 131.901Z" fill="#F24C64"/>
<path d="M161.772 147.707C162.078 147.384 162.678 147.565 163.058 147.681C165.339 148.371 167.62 149.061 170.091 149.809C170.471 149.924 170.852 150.039 170.926 150.478C168.024 152.511 163.828 151.981 162.3 148.815C161.997 148.398 161.656 148.088 161.772 147.707Z" fill="#F24C64"/>
<path d="M173.398 143.198C172.744 144.662 172.661 146.299 172.446 147.689C172.404 148.507 172.362 149.326 172.131 150.087C172.073 150.277 172.015 150.467 171.767 150.6C171.519 150.733 171.387 150.485 171.255 150.237C170.991 149.742 170.669 149.437 170.405 148.941C170.241 147.437 170.266 145.99 171.051 144.773C171.473 144.07 172.084 143.424 172.828 143.025C173.018 143.083 173.266 142.95 173.398 143.198Z" fill="#F24C64"/>
<path d="M302.965 134.559C302.701 134.063 302.205 134.329 301.957 134.462C298.892 134.989 296.925 136.679 295.487 139.361C295.371 139.742 295.007 140.255 294.833 140.826C294.553 139.702 294.405 138.826 294.067 137.892C293.819 138.025 293.571 138.158 293.307 137.662C293.101 136.977 292.836 136.481 292.44 135.738C291.178 133.07 289.915 130.402 288.901 127.601C288.041 128.38 287.884 129.579 287.974 130.646C287.997 133.978 289.45 136.703 292.753 138.118C293.133 138.233 293.513 138.348 293.587 138.786C294.032 141.415 294.534 143.853 294.351 146.499C294.293 146.689 294.426 146.937 294.178 147.07C294.062 147.45 294.252 147.508 294.384 147.755C294.532 148.632 294.738 149.317 294.507 150.079C294.391 150.459 294.465 150.897 294.027 150.972C293.589 151.048 293.515 150.61 293.193 150.304C291.493 147.712 289.734 145.309 288.034 142.717C287.506 141.726 286.73 140.867 286.144 140.067C285.101 143.492 286.116 146.292 288.254 148.81C289.484 150.221 291.21 151.367 293.225 151.561C294.233 151.658 294.117 152.039 293.944 152.61C293.207 155.712 292.338 158.566 291.031 161.495C290.684 162.637 290.279 163.969 289.551 164.996C288.94 165.642 288.75 165.584 288.411 164.651C288.131 163.527 288.099 162.27 287.876 160.956C287.415 157.7 287.086 154.691 286.625 151.434C282.824 155.063 283.44 161.9 287.61 165.24C288.312 165.66 288.196 166.04 287.832 166.554C286.129 168.74 284.427 170.926 282.08 172.502C281.658 173.205 280.973 173.414 280.361 174.06C280.113 174.193 279.997 174.573 279.807 174.516C279.427 174.401 279.733 174.078 279.791 173.887C280.354 171.356 280.669 168.958 281.232 166.427C281.522 165.475 281.242 164.351 282.101 163.572C281.837 163.077 281.531 163.4 281.283 163.533C277.639 165.963 277.083 171.197 279.295 174.153C279.749 174.706 279.692 174.896 279.138 175.352C277.593 176.339 275.858 177.269 274.122 178.198C273.627 178.464 273.189 178.539 272.693 178.805C272.445 178.937 272.197 179.07 272.065 178.823C271.933 178.575 271.991 178.384 272.049 178.194C272.471 177.491 272.892 176.787 273.124 176.026C273.777 174.561 274.563 173.344 274.836 171.764C271.903 172.539 270.159 175.544 271.363 178.402C271.759 179.146 271.454 179.469 270.768 179.677C268.463 180.434 266.216 181.001 264.085 181.187C263.837 181.32 263.325 180.957 263.341 181.585C263.357 182.214 263.853 181.948 264.101 181.815C266.918 181.421 269.793 180.836 272.651 179.623C273.147 179.358 273.337 179.415 273.717 179.53C275.997 180.22 278.276 180.91 280.745 181.657C281.125 181.772 281.505 181.887 281.579 182.325C282.265 182.117 281.811 181.564 281.679 181.316C280.755 179.582 279.219 178.494 277.261 178.109C277.071 178.052 276.634 178.127 276.502 177.879C277.551 177.158 278.79 176.494 279.84 175.772C280.088 175.639 280.278 175.697 280.468 175.754C280.963 175.489 281.591 175.471 282.219 175.453C284.292 175.457 286.308 175.652 288.381 175.656C290.207 175.792 291.9 175.681 293.668 176.009C294.031 175.495 293.461 175.323 293.329 175.075C290.811 172.443 287.714 171.713 284.343 172.563L284.095 172.696C284.095 172.696 284.153 172.506 284.343 172.563C285.872 170.948 287.401 169.333 288.55 167.602C288.608 167.412 288.856 167.279 289.046 167.337C290.913 166.655 292.78 165.973 294.648 165.291C295.771 165.008 296.763 164.477 297.886 164.193C299.258 163.777 300.307 163.056 301.811 162.887C300.713 161.724 299.383 161.321 297.937 161.299C295.922 161.105 293.923 161.539 292.072 162.849C291.824 162.982 291.766 163.172 291.386 163.057C292.403 161.079 293.23 159.044 293.925 156.76C293.983 156.57 294.041 156.38 294.289 156.247C295.032 155.848 295.776 155.45 296.33 154.994C298.428 153.551 300.527 152.108 302.626 150.665C303.981 149.621 305.469 148.824 306.692 147.532C306.502 147.474 306.502 147.474 306.312 147.417C306.064 147.55 305.874 147.492 305.742 147.244C301.389 146.551 298.72 147.821 294.819 152.459C295.076 150.251 295.334 148.043 295.343 145.968C295.459 145.587 295.632 145.016 295.938 144.693C297.335 142.83 298.484 141.1 299.881 139.236C300.782 137.639 301.684 136.041 302.965 134.559Z" fill="#CE2951"/>
<path d="M306.698 147.54C305.533 148.643 303.987 149.63 302.632 150.674C300.532 152.118 298.433 153.561 296.334 155.004C295.59 155.402 295.036 155.858 294.292 156.257C294.045 156.389 293.987 156.58 293.929 156.77C300.009 158.61 306.48 153.71 306.962 148.036C306.772 147.979 306.888 147.598 306.698 147.54Z" fill="#F24C64"/>
<path d="M286.511 151.815C287.03 154.882 287.491 158.138 287.762 161.337C287.794 162.594 288.075 163.718 288.297 165.032C288.445 165.908 288.825 166.023 289.437 165.377C290.354 164.408 290.512 163.209 290.917 161.877C291.158 159.04 290.903 156.469 289.145 154.067C288.427 153.018 287.651 152.16 286.511 151.815Z" fill="#F24C64"/>
<path d="M293.566 176.043C291.797 175.715 290.103 175.826 288.276 175.689C286.26 175.495 284.185 175.491 282.111 175.487C281.482 175.505 281.044 175.58 280.358 175.788C281.605 177.829 283.522 179.033 285.977 179.152C288.812 179.386 291.25 178.877 293.202 176.556C293.508 176.233 293.508 176.233 293.566 176.043Z" fill="#F24C64"/>
<path d="M301.575 163.023C300.261 163.249 299.021 163.913 297.649 164.33C296.525 164.613 295.591 164.954 294.409 165.428C292.542 166.11 290.674 166.792 288.806 167.474C290.796 169.116 293.003 169.368 295.441 168.858C297.193 168.557 298.738 167.57 299.904 166.467C300.88 165.307 301.418 164.223 301.575 163.023Z" fill="#F24C64"/>
<path d="M302.961 134.569C301.49 135.994 300.779 137.649 299.498 139.132C298.101 140.995 296.952 142.725 295.556 144.588C295.25 144.911 295.076 145.482 294.96 145.862C297.223 145.924 299.016 144.804 300.355 143.131C302.495 140.87 303.554 138.073 302.845 134.95C303.283 134.874 303.093 134.817 302.961 134.569Z" fill="#F24C64"/>
<path d="M286.021 140.449C286.607 141.25 287.325 142.299 287.912 143.1C289.613 145.693 291.372 148.097 293.073 150.69C293.205 150.938 293.469 151.434 293.907 151.358C294.345 151.283 294.329 150.654 294.387 150.464C294.618 149.703 294.47 148.826 294.264 148.14C294.132 147.892 294 147.645 294.058 147.454C293.597 144.197 290.053 140.838 286.839 140.489C286.707 140.241 286.517 140.183 286.021 140.449Z" fill="#F24C64"/>
<path d="M288.887 127.606C289.902 130.407 291.165 133.076 292.428 135.744C292.634 136.43 292.898 136.926 293.294 137.669C293.559 138.165 293.806 138.032 294.054 137.899C294.923 135.044 294.669 132.473 292.662 130.203C291.812 128.907 290.655 127.933 288.887 127.606Z" fill="#F24C64"/>
<path d="M282.047 163.759C281.188 164.538 281.468 165.661 281.179 166.613C280.616 169.143 280.301 171.541 279.738 174.072C279.68 174.263 279.374 174.586 279.754 174.7C280.134 174.815 280.192 174.625 280.308 174.245C280.861 173.789 281.605 173.391 282.026 172.687C283.538 170.444 284.101 167.913 283.029 165.303C282.897 165.055 282.691 164.369 282.047 163.759Z" fill="#F24C64"/>
<path d="M281.631 182.345C281.557 181.907 281.177 181.792 280.796 181.677C278.515 180.986 276.234 180.296 273.763 179.548C273.383 179.433 273.003 179.318 272.697 179.641C273.977 182.94 277.852 184.529 280.887 182.744C281.267 182.859 281.515 182.726 281.631 182.345Z" fill="#F24C64"/>
<path d="M274.591 171.887C274.318 173.467 273.475 174.874 272.879 176.148C272.458 176.852 272.036 177.555 271.805 178.316C271.747 178.507 271.689 178.697 271.821 178.945C271.953 179.192 272.201 179.06 272.449 178.927C272.944 178.661 273.382 178.586 273.878 178.32C274.853 177.161 275.638 175.944 275.663 174.497C275.705 173.679 275.557 172.803 275.161 172.06C274.971 172.002 275.029 171.812 274.591 171.887Z" fill="#F24C64"/>
<path d="M305.747 147.257C305.879 147.505 306.07 147.563 306.318 147.43C306.127 147.372 305.937 147.315 305.747 147.257Z" fill="#F24C64"/>
<path d="M284.161 172.502C283.971 172.445 283.913 172.635 283.913 172.635C284.045 172.883 284.045 172.883 284.161 172.502C284.293 172.75 284.103 172.693 284.161 172.502Z" fill="#F24C64"/>
<path d="M229.211 194.991L219.695 210.996L227.361 208.49L228.609 216.778L238.346 200.4L229.211 194.991Z" fill="#095411"/>
<path d="M239.682 199.826L242.285 218.241L246.451 211.535L252.372 217.249L249.708 198.405L239.682 199.826Z" fill="#095411"/>
<path d="M237.222 203.084C243.387 204.957 249.915 201.471 251.802 195.296C253.689 189.122 250.221 182.598 244.056 180.724C237.891 178.85 231.363 182.337 229.476 188.511C227.589 194.686 231.057 201.21 237.222 203.084Z" fill="#D4F4D7" stroke="#095411" stroke-width="2" stroke-miterlimit="10"/>
<path d="M238.108 200.185C242.446 201.503 247.04 199.05 248.368 194.705C249.696 190.36 247.255 185.769 242.917 184.45C238.578 183.132 233.985 185.585 232.657 189.93C231.329 194.275 233.769 198.866 238.108 200.185Z" fill="#D4F4D7" stroke="#095411" stroke-width="2" stroke-miterlimit="10"/>
<rect width="166.512" height="113.662" transform="matrix(0.907226 -0.420643 0.421859 0.906662 5.95789 79.3087)" fill="#095411"/>
<path d="M79.3853 42.9992C59.7732 35.7904 24.1608 61.812 8.80607 75.7239L55.889 176.915C84.7493 149.646 114.967 143.736 126.468 144.19L79.3853 42.9992Z" fill="#82E59B"/>
<path d="M79.0965 42.3785C103.928 19.3931 138.725 11.4609 153.019 10.368L199.813 110.938C157.846 116.509 133.623 135.841 126.757 144.811L79.0965 42.3785Z" fill="#D4F4D7"/>
<path d="M113.964 131.874C106.122 131.737 83.9993 136.711 58.2432 157.71" stroke="#095411" stroke-width="2"/>
<path d="M108.326 121.376C100.484 121.238 78.3616 126.212 52.6055 147.211" stroke="#095411" stroke-width="2"/>
<path d="M101.971 107.718C94.1295 107.58 72.0069 112.554 46.2508 133.553" stroke="#095411" stroke-width="2"/>
<path d="M78.2855 56.812C70.4437 56.6743 48.3211 61.6485 22.565 82.6473" stroke="#095411" stroke-width="2"/>
<path d="M186.174 101.187C178.337 100.861 156.1 105.304 129.848 125.678" stroke="#095411" stroke-width="2"/>
<path d="M178.933 88.7519C171.096 88.4264 148.859 92.869 122.607 113.243" stroke="#095411" stroke-width="2"/>
<path d="M173.734 77.5774C165.897 77.252 143.66 81.6946 117.407 102.069" stroke="#095411" stroke-width="2"/>
<path d="M161.024 50.2621C153.187 49.9366 130.95 54.3792 104.698 74.7535" stroke="#095411" stroke-width="2"/>
<path d="M33.6908 104.941L42.3564 123.565C62.4331 104.596 86.6304 99.0122 96.2195 98.5914L87.5539 79.9673C67.7099 81.3189 43.3768 97.1798 33.6908 104.941Z" fill="#CE2951"/>
<path d="M90.3224 45.4756L99.2768 64.7204C121.104 44.3359 146.344 38.6206 156.236 38.3111L147.281 19.0662C114.626 23.9428 95.7022 38.7043 90.3224 45.4756Z" fill="#F24C64"/>
</svg>
