<svg width="265" height="341" viewBox="0 0 265 341" fill="none" xmlns="http://www.w3.org/2000/svg">
<mask id="mask0" mask-type="alpha" maskUnits="userSpaceOnUse" x="0" y="0" width="265" height="341">
<rect x="53" width="214.766" height="308.537" transform="rotate(9.74837 53 0)" fill="#C4E8F8"/>
</mask>
<g mask="url(#mask0)">
<rect x="53" width="214.766" height="308.537" transform="rotate(9.74837 53 0)" fill="#FB9B5A"/>
<g filter="url(#filter0_f)">
<path d="M111.879 10.1157L207.277 26.5054L155.035 330.588L59.6367 314.198L111.879 10.1157Z" fill="#FCAF7B"/>
</g>
<g opacity="0.3">
<path d="M187.506 291.001C186.93 289.833 187.037 288.73 187.839 287.701C188.527 286.818 188.441 285.735 187.647 284.959C186.729 284.071 186.444 283.006 186.843 281.78C187.195 280.697 186.732 279.706 185.702 279.251C184.574 278.749 183.949 277.866 183.874 276.634C183.794 275.341 183.134 274.663 181.842 274.546C180.624 274.435 179.769 273.791 179.299 272.665C178.844 271.585 177.89 271.12 176.773 271.433C175.49 271.792 174.602 271.383 173.604 270.61C172.76 269.946 171.953 269.468 170.961 270.193C169.865 270.998 168.727 271.081 167.518 270.437C166.613 269.951 165.551 270.25 164.956 271.081C164.042 272.361 162.929 272.388 161.467 272.468C160.562 272.516 159.866 273.142 159.641 274.014C159.312 275.312 158.49 276.059 157.19 276.34C156.439 276.497 155.914 276.963 155.733 277.707C155.549 278.474 155.79 279.222 155.5 279.985C155.265 280.607 154.8 281.167 154.247 281.486C153.255 282.083 152.977 283.127 153.483 284.177C154.029 285.302 153.918 286.389 153.159 287.38C152.439 288.325 152.517 289.362 153.368 290.201C154.259 291.076 154.53 292.131 154.136 293.328C153.789 294.382 154.229 295.421 155.225 295.856C156.417 296.377 157.043 297.297 157.108 298.588C157.163 299.719 157.842 300.46 158.972 300.556C160.31 300.673 161.23 301.328 161.731 302.581C162.051 303.396 162.856 303.895 163.704 303.785C164.398 303.694 165.109 303.379 165.77 303.568C165.957 303.623 166.153 303.709 166.347 303.81C166.712 304.008 167.049 304.285 167.304 304.562C168.102 305.444 169.155 305.55 170.119 304.857C171.108 304.146 172.173 304.051 173.27 304.601C174.435 305.192 175.359 304.952 176.098 303.897C176.787 302.917 177.76 302.475 178.954 302.635C180.163 302.797 181.037 302.232 181.337 301.057C181.65 299.846 182.426 299.062 183.664 298.838C184.691 298.653 185.483 297.555 185.311 296.539C185.219 296.019 185.24 295.503 185.522 295.002C185.845 294.441 186.2 293.952 186.762 293.62C187.689 293.057 187.986 291.986 187.506 291.001ZM167.988 302.158C159.901 300.769 154.469 293.099 155.856 285.029C157.242 276.958 164.922 271.542 173.009 272.931C181.096 274.32 186.528 281.99 185.142 290.06C183.755 298.131 176.075 303.547 167.988 302.158Z" fill="#EA6206"/>
<path d="M173.02 272.797C164.852 271.394 157.092 276.878 155.689 285.046C154.286 293.214 159.77 300.974 167.938 302.377C176.106 303.78 183.866 298.296 185.269 290.128C186.672 281.96 181.188 274.2 173.02 272.797ZM168.244 300.906C160.919 299.648 155.999 292.686 157.257 285.361C158.516 278.036 165.478 273.116 172.802 274.374C180.127 275.633 185.048 282.595 183.789 289.919C182.531 297.244 175.569 302.165 168.244 300.906Z" fill="#EA6206"/>
<path d="M179.371 289.366C179.071 288.76 179.124 288.184 179.544 287.648C179.905 287.186 179.857 286.623 179.44 286.217C178.956 285.754 178.808 285.197 179.017 284.556C179.197 283.994 178.959 283.475 178.421 283.238C177.834 282.977 177.51 282.512 177.468 281.873C177.424 281.197 177.081 280.842 176.407 280.779C175.769 280.723 175.324 280.388 175.083 279.8C174.845 279.234 174.354 278.99 173.771 279.149C173.099 279.337 172.634 279.12 172.116 278.72C171.673 278.378 171.252 278.123 170.729 278.505C170.155 278.923 169.56 278.972 168.934 278.629C168.46 278.373 167.908 278.529 167.596 278.969C167.116 279.639 166.542 279.655 165.775 279.69C165.306 279.716 164.938 280.04 164.822 280.491C164.653 281.169 164.22 281.558 163.54 281.707C163.145 281.791 162.875 282.034 162.778 282.42C162.679 282.821 162.809 283.215 162.658 283.607C162.534 283.928 162.293 284.221 162.005 284.392C161.487 284.706 161.34 285.25 161.604 285.797C161.891 286.386 161.832 286.953 161.431 287.47C161.056 287.968 161.093 288.506 161.536 288.939C161.998 289.398 162.139 289.947 161.933 290.573C161.754 291.127 161.981 291.668 162.498 291.893C163.121 292.168 163.449 292.65 163.478 293.323C163.506 293.913 163.866 294.302 164.452 294.349C165.15 294.408 165.632 294.749 165.891 295.41C166.062 295.834 166.481 296.096 166.926 296.036C167.292 295.985 167.656 295.819 168.003 295.924C168.104 295.957 168.204 295.997 168.301 296.052C168.488 296.16 168.67 296.297 168.796 296.448C169.212 296.907 169.766 296.964 170.27 296.603C170.782 296.235 171.347 296.18 171.915 296.467C172.524 296.777 173.002 296.654 173.394 296.098C173.757 295.583 174.26 295.358 174.886 295.435C175.519 295.521 175.973 295.227 176.133 294.608C176.295 293.975 176.7 293.566 177.344 293.449C177.879 293.35 178.297 292.776 178.206 292.244C178.162 291.97 178.169 291.706 178.321 291.443C178.485 291.152 178.674 290.896 178.971 290.719C179.468 290.439 179.625 289.881 179.371 289.366ZM169.18 295.192C164.957 294.466 162.12 290.461 162.844 286.246C163.568 282.031 167.579 279.202 171.802 279.927C176.025 280.653 178.862 284.659 178.138 288.873C177.414 293.088 173.403 295.917 169.18 295.192Z" fill="#EA6206"/>
<path d="M171.888 279.904C167.59 279.166 163.505 282.052 162.767 286.351C162.028 290.65 164.915 294.734 169.214 295.473C173.512 296.211 177.597 293.324 178.335 289.026C179.074 284.727 176.187 280.643 171.888 279.904Z" fill="#EA6206"/>
</g>
<rect x="66.7014" y="94.4299" width="17.393" height="3.78109" transform="rotate(9.74837 66.7014 94.4299)" fill="#EA6206"/>
<rect x="65.1648" y="103.374" width="17.393" height="3.78109" transform="rotate(9.74837 65.1648 103.374)" fill="#EA6206"/>
<rect x="63.6282" y="112.317" width="43.1045" height="3.78109" transform="rotate(9.74837 63.6282 112.317)" fill="#EA6206"/>
<rect opacity="0.9" x="76.2886" y="141.348" width="119.483" height="7.56219" transform="rotate(9.74837 76.2886 141.348)" fill="white"/>
<rect x="128.617" y="69.0042" width="43.1045" height="3.78109" transform="rotate(9.74837 128.617 69.0042)" fill="#EA6206"/>
<path d="M144.438 47.4869L145.499 41.3158L151.647 42.3722L152.135 39.5326L145.964 38.4724L146.636 34.5595L153.568 35.7503L154.071 32.8213L144.054 31.1004L141.331 46.9529L144.438 47.4869ZM161.711 50.4544L165.155 51.046L162.87 43.978C165.053 43.7315 166.638 42.2774 167.018 40.0638C167.491 37.3137 165.888 34.8515 162.803 34.3214L156.609 33.2574L153.886 49.1099L156.994 49.6439L158.042 43.5399L159.652 43.8164L161.711 50.4544ZM158.499 40.8791L159.256 36.4744L161.76 36.9046C163.325 37.1735 164.092 38.203 163.862 39.5446C163.639 40.8414 162.569 41.5783 161.004 41.3094L158.499 40.8791Z" fill="white"/>
<path d="M99.8791 306.851L100.939 300.68L107.088 301.736L107.576 298.897L101.405 297.837L102.077 293.924L109.008 295.115L109.512 292.186L99.4947 290.465L96.7712 306.317L99.8791 306.851ZM117.152 309.819L120.595 310.41L118.311 303.342C120.494 303.096 122.079 301.642 122.459 299.428C122.931 296.678 121.329 294.216 118.243 293.686L112.05 292.622L109.326 308.474L112.434 309.008L113.483 302.904L115.093 303.181L117.152 309.819ZM113.94 300.243L114.697 295.839L117.201 296.269C118.766 296.538 119.533 297.567 119.303 298.909C119.08 300.206 118.009 300.943 116.444 300.674L113.94 300.243Z" fill="white"/>
<rect x="154.424" y="253.753" width="43.1045" height="3.78109" transform="rotate(9.74837 154.424 253.753)" fill="#EA6206"/>
<rect x="62.0918" y="121.261" width="64.2786" height="3.78109" transform="rotate(9.74837 62.0918 121.261)" fill="#EA6206"/>
<rect opacity="0.9" x="67.8933" y="154.484" width="131.582" height="18.9055" transform="rotate(9.74837 67.8933 154.484)" fill="white"/>
<rect x="116.902" y="74.6646" width="64.2786" height="3.78109" transform="rotate(9.74837 116.902 74.6646)" fill="#EA6206"/>
<rect x="35.8428" y="274.047" width="64.2786" height="3.78109" transform="rotate(9.74837 35.8428 274.047)" fill="#EA6206"/>
<rect x="37.123" y="266.594" width="38.5672" height="3.78109" transform="rotate(9.74837 37.123 266.594)" fill="#EA6206"/>
<rect x="60.5552" y="130.204" width="27.2239" height="3.78109" transform="rotate(9.74837 60.5552 130.204)" fill="#EA6206"/>
<rect opacity="0.9" x="40.1794" y="177.345" width="178.468" height="18.9055" transform="rotate(9.74837 40.1794 177.345)" fill="white"/>
<rect x="134.254" y="85.3186" width="27.2239" height="3.78109" transform="rotate(9.74837 134.254 85.3186)" fill="#EA6206"/>
<rect x="34.5623" y="281.5" width="27.2239" height="3.78109" transform="rotate(9.74837 34.5623 281.5)" fill="#EA6206"/>
<rect width="32.612" height="42.08" transform="matrix(-0.985561 -0.169322 -0.169322 0.985561 228.278 96.8684)" fill="white"/>
<path d="M204.106 121.641C202.562 119.02 201.726 115.977 202.486 112.869C204.678 103.937 216.97 108.088 218.649 113.087C220.327 118.086 218.031 129.605 214.719 129.896C213.386 130.007 210.837 128.754 208.373 126.609L208.594 136.137L198.405 134.386L204.106 121.641Z" fill="#FCAF7B"/>
<path d="M198.559 109.092C198.285 108.705 198.189 108.213 198.11 107.747C198.036 107.258 197.961 106.77 197.93 106.289C197.873 105.305 198.062 104.205 198.872 103.574C199.525 103.075 200.384 102.951 201.144 103.013C201.658 103.056 202.152 103.209 202.606 103.468C203.064 103.706 203.429 104.085 203.857 104.363C204.057 103.333 204.415 102.307 205.072 101.514C205.722 100.765 206.597 100.417 207.54 100.466C208.487 100.493 209.374 100.871 210.131 101.477C210.332 101.625 210.507 101.791 210.683 101.957C210.84 102.097 210.971 102.256 211.162 102.334C211.374 102.415 211.503 102.324 211.665 102.171C211.872 102.025 212.078 101.88 212.299 101.782C213.289 101.295 214.478 101.228 215.426 101.775C215.858 102.031 216.268 102.418 216.504 102.889C216.726 103.312 216.826 103.918 217.176 104.25C217.334 104.391 217.47 104.255 217.639 104.194C217.886 104.078 218.136 103.94 218.383 103.823C218.75 103.66 219.107 103.563 219.496 103.539C220.069 103.502 220.81 103.674 220.843 104.405C220.864 104.68 220.77 104.958 220.703 105.219C220.617 105.589 220.531 105.959 220.426 106.303C220.355 106.586 220.266 106.842 220.172 107.12C220.124 107.271 219.991 107.52 220.03 107.685C220.088 107.876 220.455 107.848 220.609 107.875C220.914 107.95 221.214 108.047 221.478 108.228C221.679 108.376 221.898 108.549 221.941 108.828C221.98 108.994 221.932 109.144 221.883 109.294C221.827 109.488 221.834 109.58 221.822 109.782C222.274 109.656 223.784 109.44 223.832 110.218C223.856 110.471 223.675 110.734 223.531 110.914C223.291 111.257 222.992 111.546 222.697 111.812C222.077 112.385 221.363 112.851 220.62 113.222C221.333 113.684 221.357 114.73 220.595 115.211C220.264 115.425 219.856 115.423 219.486 115.337C219.354 115.314 219.167 115.214 219.053 115.217C218.983 115.228 218.932 115.265 218.844 115.249C218.308 115.203 217.737 114.969 217.249 114.772C216.381 114.419 215.576 113.827 214.985 113.046C214.84 112.84 214.701 112.726 214.459 112.684C214.239 112.646 214.029 112.678 213.809 112.641C213.233 112.564 212.776 112.191 212.3 111.928C212.157 112.629 211.805 113.361 211.409 113.95C211.076 114.436 210.581 114.419 210.089 114.38C208.522 114.269 206.99 113.824 205.449 113.56C206.889 114.147 208.425 114.569 209.832 115.219C210.484 115.512 209.876 115.883 209.537 116.142C208.988 116.568 208.526 117.146 208.145 117.783C207.581 116.712 206.392 115.851 205.199 115.94C203.866 116.051 202.691 117.616 203.293 118.987C203.635 119.771 204.444 120.204 205.095 120.633C204.447 121.111 204.171 121.924 203.716 122.593C203.502 122.919 203.191 123.273 202.795 123.341C202.655 123.362 202.501 123.336 202.372 123.427C202.217 123.536 202.169 123.686 201.974 123.766C201.212 124.111 200.16 123.907 199.671 123.189C199.216 122.545 199.521 121.691 200.056 121.217C199.382 120.784 198.148 120.187 198.627 119.114C197.083 118.736 193.729 115.578 196.137 114.089C195.102 113.254 194.318 111.489 195.286 110.206C196.066 109.23 197.469 108.973 198.559 109.092Z" fill="#EA6206"/>
<path d="M218.192 119.305C218.991 119.668 219.026 120.648 219.244 121.229C219.461 121.81 219.896 122.972 220.11 123.575C220.327 124.156 220.327 124.156 220.145 124.555C219.4 125.197 218.602 124.833 217.644 124.872C217.244 124.691 216.685 124.912 216.286 124.73" fill="#FCAF7B"/>
<path d="M216.977 119.39C217.219 119.432 217.429 119.264 217.471 119.022C217.512 118.78 217.348 118.548 217.128 118.51C216.886 118.469 216.676 118.636 216.634 118.878C216.593 119.12 216.735 119.349 216.977 119.39Z" fill="#EA6206"/>
<path d="M215.822 126.507C216.258 126.741 216.756 126.872 217.23 126.885C216.728 126.64 216.274 126.381 215.879 126.042C215.682 125.872 215.485 125.702 215.317 125.492C215.222 125.385 215.127 125.278 215.036 125.149C214.985 125.05 214.908 124.969 214.835 124.866L214.817 124.84C214.722 124.733 214.564 124.729 214.457 124.823C214.328 124.914 214.32 125.094 214.411 125.223L214.43 125.249C214.601 125.437 214.739 125.687 214.896 125.963C215.052 126.239 215.249 126.545 215.487 126.744C215.951 127.209 216.489 127.505 217.053 127.783C216.845 127.544 216.633 127.326 216.421 127.109C216.18 126.931 215.99 126.717 215.822 126.507Z" fill="#EA6206"/>
<path d="M216.959 117.643C217.135 117.673 217.333 117.707 217.557 117.723C217.759 117.735 217.987 117.729 218.226 117.657C218.047 117.513 217.886 117.395 217.699 117.295C217.512 117.195 217.322 117.117 217.102 117.079C216.665 116.981 216.121 117.114 215.851 117.498L216.475 117.56C216.607 117.583 216.783 117.613 216.959 117.643Z" fill="#EA6206"/>
<g opacity="0.9">
<rect x="142.195" y="52.499" width="6.80596" height="12.5007" transform="rotate(9.74837 142.195 52.499)" fill="#CD5605"/>
<rect x="148.902" y="53.6511" width="6.80596" height="12.5007" transform="rotate(9.74837 148.902 53.6511)" fill="white"/>
<rect x="155.61" y="54.8037" width="6.80596" height="12.5007" transform="rotate(9.74837 155.61 54.8037)" fill="#EA6206"/>
</g>
</g>
<defs>
<filter id="filter0_f" x="36.9502" y="-12.5708" width="193.014" height="365.845" filterUnits="userSpaceOnUse" color-interpolation-filters="sRGB">
<feFlood flood-opacity="0" result="BackgroundImageFix"/>
<feBlend mode="normal" in="SourceGraphic" in2="BackgroundImageFix" result="shape"/>
<feGaussianBlur stdDeviation="11.3433" result="effect1_foregroundBlur"/>
</filter>
</defs>
</svg>
