<svg width="24" height="24" viewBox="0 0 24 24" fill="none" xmlns="http://www.w3.org/2000/svg">
<path d="M21.1205 19.7167C20.4135 19.7167 19.8833 19.3638 19.412 19.0698C17.4088 17.7172 15.5234 16.1881 13.9326 14.3651C13.697 14.1298 13.5791 14.0122 13.2846 14.3063C10.9868 16.6586 8.51225 18.8345 5.9788 20.834C4.80046 21.775 3.5632 22.7159 2.2081 23.4216C2.03135 23.5392 1.79568 23.598 1.61893 23.7156C1.5011 23.7744 1.38326 23.7744 1.32434 23.7156C1.26543 23.598 1.26543 23.4804 1.38326 23.4216C1.61893 23.1276 1.8546 22.7747 2.14918 22.4807C4.09345 20.5988 6.15557 18.7757 7.92308 16.7174C9.21926 15.306 10.5154 13.8358 11.6938 12.3068C11.9295 12.0127 11.9295 11.8363 11.6938 11.4835C10.5744 9.89562 9.6906 8.19017 8.98359 6.36711C8.51225 5.07332 8.04091 3.77953 7.80524 2.42693C7.74633 2.25051 7.68742 2.01527 7.92308 1.89765C8.15875 1.83885 8.27658 2.01527 8.39442 2.1917C9.10142 3.30906 9.74952 4.42642 10.5154 5.48498C11.4581 6.77877 12.5186 8.01375 13.5202 9.30754C13.7559 9.60158 13.8737 9.42515 14.0505 9.24873C15.4056 7.42566 16.7607 5.6026 17.9979 3.72072C18.5871 2.83859 19.1174 1.95646 19.8244 1.19195C20.2368 0.721482 20.767 0.309822 21.4741 0.251014C21.8865 0.192205 22.1221 0.368632 22.2989 0.662674C22.7702 1.42719 22.5346 2.1917 22.24 2.8974C21.533 4.60285 20.3546 6.01426 19.2941 7.54328C18.3514 8.89588 17.2909 10.1897 16.1715 11.4835C15.9358 11.7775 15.9358 11.9539 16.1715 12.248C17.7034 13.777 19.353 15.1884 21.1205 16.4822C21.5919 16.835 22.0632 17.1879 22.4167 17.7172C22.7113 18.1876 22.7113 18.6581 22.4756 19.1286C22.0043 19.4814 21.5919 19.7167 21.1205 19.7167Z" fill="#CE0500"/>
</svg>
