<svg width="355" height="300" viewBox="0 0 355 300" fill="none" xmlns="http://www.w3.org/2000/svg">
<path d="M275.59 291.336C247.423 302.938 209.99 299.278 194.794 295.997C158.474 292.756 106.216 270.1 85.091 254.043C63.9656 237.986 52.8658 212.805 63.595 200.694C71.8546 191.37 85.091 186.191 113.258 184.378C154.225 181.741 209.619 196.291 231.115 198.104C252.611 199.917 328.959 199.917 338.224 210.276C347.49 220.635 342.672 234.361 328.959 247.31C315.246 260.258 310.798 276.833 275.59 291.336Z" fill="#FFEAF4"/>
<path d="M3.57741 68.9196C0.79945 53.6522 1.91063 43.3814 14.1336 32.0003C21.6341 25.0606 31.9126 25.6157 39.4131 32.2779C39.9687 16.1777 52.7473 -1.31037 70.2484 0.0775791C84.6938 1.46552 90.5275 18.1209 92.7498 30.3348C104.417 25.6158 111.918 29.7796 113.862 41.9935C134.419 36.7193 153.032 55.8729 148.587 76.4145C146.364 86.4077 138.031 92.5147 128.03 93.0698C120.252 93.625 119.696 91.9595 114.418 88.0732C116.64 98.6216 83.5826 100.01 78.3045 90.5715C66.637 96.4009 54.9696 104.451 41.0798 100.842C36.3573 99.732 32.4682 96.9561 28.8568 93.9026C28.0234 93.0698 19.134 84.187 18.8562 84.4646C13.3003 86.9629 8.02214 87.2405 3.29961 82.799C-0.867323 78.9128 -1.42292 72.8059 3.57741 68.9196Z" fill="#5EA7EF"/>
<path d="M97.4725 77.075L124.696 73.1887L99.1392 75.1318L119.418 53.4799L92.4722 80.1284L91.0832 62.3628V81.794L67.7483 104.834L66.6371 41.8212L78.0268 27.6641L66.6371 40.4332L66.3594 20.7244L66.0816 83.7371L32.7461 56.2558L42.1911 64.5835L28.8569 72.0784L42.7467 65.1386L66.0816 86.2354V213.371L69.6929 213.649L67.7483 108.72L97.4725 77.075Z" fill="#A81E63"/>
<path d="M22.7691 228.372C22.3835 212.38 27.5896 189.452 42.6292 209.49C42.4364 201.591 47.8353 180.204 59.2114 182.901C63.2606 183.865 67.8882 194.076 68.8522 195.81C67.8882 180.204 83.6991 156.505 101.824 166.91C116.092 175.002 112.814 200.435 112.814 214.114C113.007 207.949 118.599 205.444 122.841 209.298C125.347 211.61 127.083 226.06 126.504 229.336C124.769 239.355 114.357 241.474 104.909 238.391C101.824 254.19 72.9014 243.401 67.8882 234.345C65.7672 240.511 57.0904 240.896 53.6198 235.694C53.8126 242.245 39.3513 244.364 33.5669 242.245C27.9752 240.125 26.047 234.73 22.7691 228.372Z" fill="#FC6EB5"/>
<path d="M82.542 236.272L81.5779 236.079L93.7254 174.809L94.6895 175.002L82.542 236.272Z" fill="#A81E63"/>
<path d="M89.0979 203.903L88.3267 203.132L102.402 191.186L102.981 191.957L89.0979 203.903Z" fill="#A81E63"/>
<path d="M85.8199 215.463L77.1431 201.013L78.1072 200.627L86.7839 215.078L85.8199 215.463Z" fill="#A81E63"/>
<path d="M57.669 228.372L55.548 196.774L56.7049 196.581L58.6331 228.18L57.669 228.372Z" fill="#A81E63"/>
<path d="M57.2831 218.739L49.3777 212.958L49.9561 211.995L57.8616 217.968L57.2831 218.739Z" fill="#A81E63"/>
<path d="M57.0904 207.564L56.3191 207.178L61.5252 196.581L62.4893 196.967L57.0904 207.564Z" fill="#A81E63"/>
<path d="M41.6648 235.116L33.5665 213.344L34.5306 212.958L42.6289 234.731L41.6648 235.116Z" fill="#A81E63"/>
<path d="M37.6163 223.555L28.3611 220.858L28.554 219.895L38.002 222.592L37.6163 223.555Z" fill="#A81E63"/>
<path d="M176.289 247.858C176.482 235.72 172.625 218.572 161.635 233.793C161.828 227.82 157.778 211.828 149.295 213.948C146.402 214.718 142.739 222.233 142.16 223.774C142.932 212.021 131.17 194.295 117.673 202.002C107.068 207.975 109.574 227.049 109.574 237.454C109.574 232.83 105.332 230.903 102.055 233.793C100.126 235.527 98.7767 246.509 99.3551 248.821C100.512 256.336 108.225 258.07 115.359 255.565C117.673 267.318 139.075 259.226 142.739 252.482C144.281 257.106 150.837 257.492 153.344 253.446C153.344 258.262 163.949 259.804 168.191 258.455C172.625 256.914 173.975 252.675 176.289 247.858Z" fill="#FC8ECC"/>
<path d="M123.735 207.776L132.609 253.748L131.852 253.894L122.978 207.922L123.735 207.776Z" fill="#FC6EB5"/>
<path d="M117.211 220.177L127.612 229.073L127.11 229.659L116.71 220.763L117.211 220.177Z" fill="#FC6EB5"/>
<path d="M129.434 238.417L135.99 227.435L135.412 227.049L128.856 238.032L129.434 238.417Z" fill="#FC6EB5"/>
<path d="M167.512 236.473L168.237 236.737L162.307 253.033L161.582 252.77L167.512 236.473Z" fill="#FC6EB5"/>
<path d="M172.085 241.702L172.297 242.443L165.438 244.402L165.226 243.661L172.085 241.702Z" fill="#FC6EB5"/>
<path d="M272.127 130.638L292.381 201.78L307.192 254.187H317.952L302.255 130.638H272.127Z" fill="#FC8ECC"/>
<path d="M266.684 130.638C266.177 167.348 264.658 187.222 264.152 190.64C263.646 193.932 256.177 215.198 241.873 254.187H253.012C271.367 216.717 281.494 195.577 283.646 190.64C285.798 185.703 292.381 165.703 302.255 130.638H266.684Z" fill="#F9BCD3"/>
<path d="M240.86 264.314L241.366 252.541H253.139C258.709 256.466 265.924 259.63 274.912 262.035V264.314H253.645L246.43 263.175V264.314H240.86Z" fill="#FC6EB5"/>
<path d="M305.673 264.314L306.179 252.541H317.952C323.522 256.466 330.737 259.63 339.725 262.035V264.314H318.458L311.243 263.175V264.314H305.673Z" fill="#FC6EB5"/>
<path d="M280.988 60.2553C278.456 57.2172 276.684 53.5462 276.937 49.3688C277.823 37.4696 294.406 40.0013 297.698 46.0775C300.989 52.1537 300.609 67.4708 296.305 68.4835C294.66 68.8632 291.115 67.8505 287.444 65.6986L289.723 81.7751H276.304L280.988 60.2553Z" fill="#F9BCD3"/>
<path d="M292.381 39.495C290.609 38.9887 287.95 38.7355 286.811 38.8621C287.444 37.343 287.697 35.6974 287.444 33.9252C287.191 32.2795 286.558 30.8871 285.798 29.4946C285.545 28.8617 285.166 28.2287 284.659 27.7224C284.153 27.216 283.52 26.8363 282.76 26.7097C282.001 26.5831 281.241 26.5831 280.608 26.7097C280.229 26.8363 279.975 26.9629 279.722 26.9629C279.342 27.0895 279.216 26.8363 278.963 26.5831C278.456 26.0768 277.57 25.8236 276.937 25.8236C276.178 25.697 275.292 25.8236 274.532 26.0768C273.773 26.3299 273.14 26.7097 272.507 27.3426C272.254 27.5958 272 27.9756 271.874 28.2287C271.874 28.3553 271.747 28.4819 271.621 28.4819C271.494 28.4819 271.368 28.4819 271.241 28.6085C269.975 28.9883 268.836 30.001 268.329 31.2668C267.95 32.0264 267.823 33.2922 267.823 34.6847C267.823 36.0772 269.215 39.8748 270.355 41.2672C271.494 42.5331 273.013 43.2926 274.532 43.6724C273.519 44.8117 272.76 46.3307 272.254 47.8498C271.747 49.4954 271.368 51.141 271.241 52.9133C271.114 54.5589 271.114 56.2045 271.494 57.8502C271.874 59.3692 272.633 60.5085 273.899 61.3946C274.532 61.7744 275.165 62.0276 275.798 62.2807C276.431 62.5339 277.064 62.7871 277.697 62.9137C278.963 63.1668 280.355 63.1668 281.368 62.1541C281.748 61.7744 282.127 61.3946 282.381 60.8883C282.507 60.7617 282.507 60.6351 282.381 60.5085C282.254 60.3819 282.001 60.1287 281.874 60.0022C280.862 59.2426 280.355 58.1033 280.229 56.8375C280.102 55.5716 280.482 53.7994 281.748 53.293C283.267 52.5335 285.039 53.4196 286.431 54.1791C287.064 52.0271 288.204 50.2549 290.102 49.2422C292.254 48.2295 294.66 48.103 296.812 47.0903C297.318 46.8371 297.951 46.5839 298.331 46.0776C298.457 45.8244 298.71 45.5712 298.837 45.318C298.963 44.9383 298.71 44.6851 298.584 44.4319C297.824 43.0395 294.28 40.128 292.381 39.495Z" fill="#FC6EB5"/>
<path d="M299.217 54.9387C299.217 57.2172 301.622 59.116 301.622 61.3946C300.736 61.6478 299.723 61.7744 298.837 61.901" fill="#F9BCD3"/>
<path d="M298.837 65.1922C298.077 65.4454 297.191 65.3188 296.558 64.939C295.926 64.5593 295.292 63.9263 295.039 63.1668C295.799 63.5466 296.305 63.7997 296.938 64.1795C297.444 64.4327 298.077 64.6859 298.837 65.1922Z" fill="#A81E63"/>
<path d="M295.292 53.926C295.166 53.5462 295.419 53.0399 295.799 52.7867C296.052 52.5335 296.558 52.4069 296.938 52.2803C297.318 52.2803 297.698 52.2803 298.077 52.4069C298.457 52.5335 298.71 52.9133 298.837 53.293C298.457 53.1664 298.204 53.1665 297.824 53.0399C297.571 53.0399 297.191 53.0399 296.938 53.0399C296.685 53.0399 296.432 53.1665 296.052 53.1665C295.925 53.5462 295.546 53.6728 295.292 53.926Z" fill="#A81E63"/>
<path d="M297.824 56.0779C298.174 56.0779 298.457 55.7946 298.457 55.445C298.457 55.0954 298.174 54.8121 297.824 54.8121C297.475 54.8121 297.191 55.0954 297.191 55.445C297.191 55.7946 297.475 56.0779 297.824 56.0779Z" fill="#A81E63"/>
<path d="M322.509 112.409L342.763 103.548C346.307 100.004 349.725 97.3454 353.016 95.4466C354.029 95.1934 355.675 95.0668 353.902 97.7252C352.13 100.384 350.358 103.168 350.991 104.181C351.751 105.067 353.776 104.055 354.662 105.574C355.168 106.586 351.751 107.726 344.155 109.118L328.965 120.764L322.509 112.409ZM240.607 114.941L252 117.22C240.48 138.739 234.277 150.006 233.518 151.398C231.619 154.31 233.391 159.626 234.024 162.411C229.974 163.297 231.619 157.221 226.429 158.487C221.745 159.626 217.695 162.664 213.391 158.614C212.884 158.107 212.505 156.588 214.277 155.829C218.834 153.803 225.67 150.132 226.682 148.74C228.201 146.588 232.758 135.448 240.607 114.941Z" fill="#F9BCD3"/>
<path d="M283.14 72.028L287.951 71.1418C298.457 81.3954 302.761 105.827 309.85 109.118C316.433 112.156 325.927 109.245 337.066 105.194L340.484 112.789C330.357 123.802 308.711 133.043 299.976 127.726C285.925 119.498 282.634 89.2438 283.14 72.028Z" fill="#3581EF"/>
<path d="M262.126 132.79C281.494 132.79 295.799 132.79 304.913 132.79C306.812 132.79 306.559 130.005 306.179 128.486C302.888 112.03 290.229 94.3073 290.229 70.8887L277.95 68.9899C267.696 85.4462 264.152 105.7 262.126 132.79Z" fill="#FFEAF4"/>
<path d="M257.823 116.207C249.088 131.904 241.746 143.297 235.796 150.132L216.766 124.512C222.589 88.6878 249.341 86.0792 276.937 69.1165H277.064H281.748C292.761 106.839 295.925 132.03 290.862 144.562H252.379C253.265 135.322 255.164 125.701 257.823 116.207Z" fill="#5EA7EF"/>
<path d="M235.408 139.863L255.916 210.372L265.536 263.412H275.157L265.536 139.863H235.408Z" fill="#A81E63"/>
<path d="M226.168 139.863C227.56 176.574 227.054 196.448 226.674 199.866C226.294 203.157 224.522 225.436 212.116 264.552H222.117C238.447 227.082 244.27 204.802 246.042 199.866C247.941 194.929 253.51 174.928 261.612 139.863H226.168Z" fill="#A81E63"/>
<path d="M234.902 139.863C240.219 164.168 249.46 202.904 262.498 256.07H276.676C277.689 201.385 273.258 165.434 265.536 139.863H234.902Z" fill="#770649"/>
<path d="M226.168 139.863C227.56 176.574 223.889 212.651 212.75 256.703H227.813C244.27 219.866 256.042 183.916 264.017 139.863H226.168Z" fill="#A81E63"/>
<path d="M210.851 271.767L211.357 262.779C214.648 263.792 218.699 263.412 223.509 261.64C228.826 265.311 235.409 267.843 243.384 269.235C244.017 269.362 244.396 269.868 244.27 270.501V270.628L243.51 273.286H223.509H211.863L210.851 271.767Z" fill="#EE2C79"/>
<path d="M263.384 271.767L263.891 262.779C267.182 263.792 271.233 263.412 276.043 261.64C281.36 265.311 287.942 267.843 295.917 269.235C296.55 269.362 296.93 269.868 296.803 270.501V270.628L296.044 273.286H276.043H264.397L263.384 271.767Z" fill="#EE2C79"/>
<path d="M240.345 69.3541C237.813 66.316 236.041 62.645 236.294 58.4676C237.18 46.5684 253.763 49.1002 257.054 55.1763C260.346 61.2525 259.966 76.5696 255.662 77.5823C254.016 77.9621 250.472 76.9494 246.801 74.7974L249.08 90.874H235.661L240.345 69.3541Z" fill="#A81E63"/>
<path d="M239.333 72.139C237.687 64.6704 232.877 59.6069 233.636 56.189C234.142 53.9105 235.408 52.518 237.56 52.0116C238.7 47.5811 242.244 45.6823 248.194 46.3152C257.181 47.3279 262.625 50.9989 260.219 59.2271C258.067 59.2271 255.409 58.4676 251.865 59.7335C250.725 60.1132 249.839 61.5057 249.46 63.6577H247.814C246.168 60.9993 244.649 60.1132 243.13 60.7462C241.611 61.5057 241.231 63.1513 242.118 65.8097L241.358 72.0124H239.333V72.139Z" fill="#770649"/>
<path d="M258.827 64.5438C259.333 66.1894 259.713 67.9616 259.966 69.6073C260.219 71.5061 260.093 72.5188 257.814 72.2656" fill="#A81E63"/>
<path d="M256.675 63.2779C256.042 63.1513 255.536 63.0247 255.029 62.8981C254.523 62.8981 253.89 62.8981 253.257 62.7715C253.51 62.645 253.764 62.5184 254.143 62.3918C254.396 62.2652 254.776 62.2652 255.156 62.2652C255.662 62.3918 256.295 62.7716 256.675 63.2779Z" fill="#770649"/>
<path d="M255.789 65.8097C256.209 65.8097 256.549 65.4696 256.549 65.0501C256.549 64.6306 256.209 64.2906 255.789 64.2906C255.37 64.2906 255.03 64.6306 255.03 65.0501C255.03 65.4696 255.37 65.8097 255.789 65.8097Z" fill="#770649"/>
<path d="M257.814 74.924C257.308 75.1771 256.675 75.3037 256.042 75.0505C255.409 74.7974 255.156 74.291 254.776 73.9113C255.029 73.9113 255.409 74.0378 255.662 74.1644C255.915 74.291 256.168 74.4176 256.422 74.5442C256.675 74.6708 257.308 74.6708 257.814 74.924Z" fill="#770649"/>
<path d="M278.955 130.876L295.664 143.155C300.221 144.42 304.019 145.939 307.057 147.712C307.816 148.345 308.703 149.737 305.664 149.484C302.626 149.231 299.462 149.104 299.082 150.117C298.702 151.13 300.474 152.395 299.588 153.788C299.082 154.674 296.424 152.395 291.74 146.952L275.157 140.116L278.955 130.876ZM214.522 131.255H225.535C218.699 153.155 215.155 164.801 214.522 166.067C213.256 169.105 215.914 173.662 216.927 176.194C213.382 177.839 213.762 171.89 209.205 173.915C205.028 175.814 201.99 179.358 197.179 176.32C196.546 175.941 195.913 174.548 197.559 173.535C201.483 170.877 207.053 166.193 207.812 164.674C208.825 162.776 211.104 151.636 214.522 131.255Z" fill="#A81E63"/>
<path d="M245.789 85.1775L250.346 84.418C267.182 98.9756 274.144 126.951 294.778 141.762L289.841 147.965C253.89 143.534 245.029 109.356 245.789 85.1775Z" fill="#FC6EB5"/>
<path d="M225.914 142.268C244.143 142.268 257.561 142.268 266.169 142.268C268.068 142.268 267.688 139.61 267.435 138.218C264.397 122.774 252.371 106.064 252.371 84.1648L240.725 82.3926C231.104 97.8362 227.813 116.824 225.914 142.268Z" fill="#FFEAF4"/>
<path d="M226.294 97.5831C224.649 97.0767 223.256 95.9374 222.243 94.1652C218.066 86.57 219.585 82.266 224.016 80.8736C228.573 79.4811 232.623 82.3926 239.839 82.3926C240.219 82.3926 240.599 82.3926 240.978 82.5192L244.649 82.7724C255.03 118.09 257.941 141.635 253.257 153.408H221.61C219.712 157.839 217.939 161.51 216.167 164.421H207.559C206.673 138.091 213.003 115.812 226.294 97.5831Z" fill="#FC8ECC"/>
<path d="M228.446 135.18C229.459 143.534 231.105 149.61 233.257 153.281H221.484C223.762 148.218 226.041 142.268 228.446 135.18Z" fill="#FC6EB5"/>
<path d="M212.968 102.359C217.525 99.8275 224.994 96.8738 226.893 97.2957L218.032 110.587L219.298 114.385L211.069 119.449C208.538 116.917 207.272 105.524 212.968 102.359Z" fill="#5EA7EF"/>
<path d="M219.93 129.575C215.88 127.55 213.179 121.558 212.335 118.816L218.032 114.385C218.665 114.807 220.437 116.157 222.462 118.183C224.994 120.714 224.994 121.98 224.361 121.98C223.728 121.98 219.93 120.714 220.563 121.98C221.07 122.993 223.728 127.888 224.994 130.208C224.994 130.841 223.981 131.601 219.93 129.575Z" fill="#F9BCD3"/>
</svg>
