<svg fill="none" height="24" viewBox="0 0 24 24" width="24" xmlns="http://www.w3.org/2000/svg"><path d="m19.5113 3.94873.9613.94462h-1.607z" fill="#161616"/><path d="m19.5112 3.94854v19.46476h-8.2503s0-15.77217 0-16.11567l5.7537-5.81081z" fill="#e3e3fd"/><path d="m11.261 7.29736h-6.85853v16.11574h6.85853z" fill="#c1c1fb"/><path d="m17.0147 1.47217h-6.5429l-6.06933 5.82513h6.85853z" fill="#6a6af4"/><path d="m10.0843 1.84473h6.5715l-.1578.15743h-6.57155z" fill="#c1c1fb"/><path d="m9.0224 2.875h6.6146l-.1578.15744h-6.62898z" fill="#c1c1fb"/><path d="m7.94635 3.90576h6.67195l-.1578.15744h-6.68633z" fill="#c1c1fb"/><path d="m6.87024 4.93604h6.72936l-.1578.15743h-6.74374z" fill="#c1c1fb"/><path d="m5.79407 5.9668h6.78673l-.1721.15743h-6.78681z" fill="#c1c1fb"/><path d="m4.71796 6.99707h6.84414l-.1722.15744h-6.84412z" fill="#c1c1fb"/><path d="m13.5296 1.83203h.7891v-1.83197993h-.7891z" fill="#6a6af4"/><path d="m14.3171 1.83036.373-.34349h.3731v-1.4741747h-.7461z" fill="#c1c1fb"/><path d="m11.2557 23.9888h9.0825v-1.417h-9.0825z" fill="#3a3a3a"/><path d="m11.2608 22.583h-7.40374v1.4169h7.40374z" fill="#8b8bf6"/><path d="m16.3546 5.85205h1.2196v-1.60298c0-.32919-.2727-.60112-.6027-.60112s-.6026.27193-.6026.60112v1.60298z" fill="#3a3a3a"/><path d="m17.5598 11.2906h1.0905v-2.94839c0-.30056-.2439-.54387-.5452-.54387-.3014 0-.5453.24331-.5453.54387z" fill="#3a3a3a"/><path d="m15.9098 11.2906h1.0905v-2.94839c0-.30056-.244-.54387-.5453-.54387s-.5452.24331-.5452.54387z" fill="#3a3a3a"/><path d="m14.2884 11.2906h1.0905v-2.94839c0-.30056-.244-.54387-.5453-.54387s-.5452.24331-.5452.54387z" fill="#3a3a3a"/><path d="m12.624 11.2906h1.0905v-2.94839c0-.30056-.2439-.54387-.5452-.54387-.3014 0-.5453.24331-.5453.54387z" fill="#3a3a3a"/><path d="m17.5598 15.9419h1.0905v-2.9483c0-.3006-.2439-.5439-.5452-.5439-.3014 0-.5453.2433-.5453.5439z" fill="#3a3a3a"/><path d="m15.9098 15.9419h1.0905v-2.9483c0-.3006-.244-.5439-.5453-.5439s-.5452.2433-.5452.5439z" fill="#3a3a3a"/><path d="m14.2884 15.9419h1.0905v-2.9483c0-.3006-.244-.5439-.5453-.5439s-.5452.2433-.5452.5439z" fill="#3a3a3a"/><path d="m12.624 15.9419h1.0905v-2.9483c0-.3006-.2439-.5439-.5452-.5439-.3014 0-.5453.2433-.5453.5439z" fill="#3a3a3a"/><path d="m17.5598 20.3648h1.0905v-2.9484c0-.3005-.2439-.5438-.5452-.5438-.3014 0-.5453.2433-.5453.5438z" fill="#3a3a3a"/><path d="m15.9098 20.3648h1.0905v-2.9484c0-.3005-.244-.5438-.5453-.5438s-.5452.2433-.5452.5438z" fill="#3a3a3a"/><path d="m14.2884 20.3648h1.0905v-2.9484c0-.3005-.244-.5438-.5453-.5438s-.5452.2433-.5452.5438z" fill="#3a3a3a"/><path d="m12.624 20.3648h1.0905v-2.9484c0-.3005-.2439-.5438-.5452-.5438-.3014 0-.5453.2433-.5453.5438z" fill="#3a3a3a"/><path d="m20.4725 4.89282-3.458-3.42065-.1578.17175 3.2858 3.2489z" fill="#3a3a3a"/><g fill="#8b8bf6"><path d="m9.20229 11.2979h.81781v-2.18984h-.81781z"/><path d="m8.00825 11.2979h.81786v-2.18984h-.81786z"/><path d="m6.81429 11.2979h.81785v-2.18984h-.81785z"/><path d="m5.62025 11.2979h.81786v-2.18984h-.81786z"/><path d="m9.20229 14.6245h.81781v-2.1898h-.81781z"/><path d="m8.00825 14.6245h.81786v-2.1898h-.81786z"/><path d="m6.81429 14.6245h.81785v-2.1898h-.81785z"/><path d="m5.62025 14.6245h.81786v-2.1898h-.81786z"/><path d="m9.20229 17.9658h.81781v-2.1898h-.81781z"/><path d="m8.00825 17.9658h.81786v-2.1898h-.81786z"/><path d="m6.81429 17.9658h.81785v-2.1898h-.81785z"/><path d="m5.62025 17.9658h.81786v-2.1898h-.81786z"/><path d="m9.20229 20.9956h.81781v-2.1898h-.81781z"/><path d="m8.00825 20.9956h.81786v-2.1898h-.81786z"/><path d="m6.81429 20.9956h.81785v-2.1898h-.81785z"/><path d="m5.62025 20.9956h.81786v-2.1898h-.81786z"/></g></svg>