<svg width="181" height="164" viewBox="0 0 181 164" fill="none" xmlns="http://www.w3.org/2000/svg">
<path d="M124.594 23.9122C126.422 21.7567 127.688 19.1325 127.454 16.1804C126.844 7.65184 114.982 9.52624 112.685 13.8374C110.387 18.1485 110.669 29.02 113.622 29.8166C114.794 30.1446 117.326 29.3949 119.905 27.8016L118.264 39.2355H127.829L124.594 23.9122Z" fill="#FFCAA7"/>
<path d="M111.696 17.8208C111.415 19.5547 110.102 20.82 109.586 22.4134C109.305 23.3038 109.258 23.6318 110.149 23.913C110.852 24.1473 111.555 24.1473 112.024 23.6318" fill="#FFCAA7"/>
<path d="M112.871 18.8518C112.965 18.5704 113.199 18.2891 113.48 18.1485C113.762 18.0078 114.137 17.914 114.465 17.9609C114.793 18.0078 115.074 18.1016 115.356 18.2422C115.637 18.3829 115.872 18.5704 116.106 18.8049C115.778 18.8518 115.496 18.8049 115.215 18.758C114.934 18.7111 114.653 18.6642 114.418 18.6642C114.184 18.6642 113.902 18.6173 113.668 18.6642C113.433 18.6642 113.152 18.758 112.871 18.8518Z" fill="#4D0351"/>
<path d="M113.993 20.6794C114.252 20.6794 114.462 20.4696 114.462 20.2108C114.462 19.952 114.252 19.7422 113.993 19.7422C113.734 19.7422 113.525 19.952 113.525 20.2108C113.525 20.4696 113.734 20.6794 113.993 20.6794Z" fill="#307205"/>
<path d="M120.419 25.6467C120.513 24.4751 120.372 23.2567 119.622 22.8349C119.34 22.6943 118.965 22.8818 118.543 23.163C118.074 24.5688 117.33 24.5258 116.487 24.5258C114.095 24.5727 112.214 23.8659 111.182 23.9128C110.432 23.9128 110.62 24.8969 111.135 25.553C111.557 26.1153 114.033 25.3329 114.033 26.2233C114.033 27.1137 112.026 27.7555 112.026 28.3179C112.026 29.2083 111.792 30.8485 113.339 30.8485C114.886 30.8016 119.34 30.1455 120.044 27.8024C120.184 27.3338 120.372 26.4902 120.419 25.6467Z" fill="#4D0351"/>
<path d="M128.785 14.7837C129.027 14.5423 129.172 14.156 129.316 13.818C129.461 13.48 129.558 13.0938 129.655 12.7558C129.8 12.0316 129.8 11.1625 129.316 10.5831C128.882 10.1486 128.254 9.90715 127.674 9.85886C127.287 9.81058 126.901 9.90715 126.514 10.0037C126.128 10.1486 125.838 10.39 125.452 10.5348C125.452 9.7623 125.307 8.89322 124.92 8.21726C124.534 7.54131 123.906 7.20333 123.229 7.10677C122.505 7.0102 121.78 7.15505 121.152 7.54131C121.007 7.63787 120.814 7.73444 120.669 7.831C120.524 7.92757 120.428 8.02413 120.234 8.07242C120.089 8.1207 119.993 8.02414 119.896 7.87929C119.751 7.73444 119.606 7.58959 119.461 7.49303C118.785 7.0102 117.915 6.76879 117.094 7.10677C116.756 7.25161 116.37 7.49302 116.128 7.78272C115.886 8.07241 115.742 8.50696 115.452 8.70009C115.307 8.79665 115.21 8.65181 115.114 8.60353C114.92 8.45868 114.775 8.36211 114.582 8.21726C114.341 8.02413 114.051 7.92757 113.761 7.831C113.326 7.73444 112.746 7.73444 112.65 8.31383C112.601 8.50696 112.65 8.74837 112.65 8.9415C112.65 9.23119 112.698 9.52089 112.698 9.81059C112.698 10.052 112.746 10.2451 112.795 10.4383C112.795 10.5348 112.891 10.7762 112.843 10.8728C112.795 11.0176 112.505 10.9211 112.36 10.9211C112.118 10.9211 111.877 10.9694 111.684 11.0659C111.49 11.1625 111.345 11.2591 111.249 11.4522C111.2 11.5487 111.2 11.6936 111.249 11.8384C111.297 11.9833 111.249 12.0799 111.249 12.2247C110.911 12.0799 109.848 11.7419 109.703 12.273C109.655 12.4661 109.751 12.6592 109.848 12.8524C109.993 13.1421 110.186 13.3835 110.379 13.6249C110.766 14.156 111.249 14.5905 111.732 14.9768C111.152 15.2182 110.959 16.039 111.49 16.4736C111.732 16.6667 112.022 16.715 112.312 16.715C112.408 16.715 112.553 16.6667 112.65 16.6667C112.698 16.6667 112.746 16.715 112.795 16.715C113.181 16.7632 113.664 16.6667 114.051 16.5701C114.775 16.4253 115.403 16.0873 115.983 15.5562C116.128 15.4113 116.225 15.3631 116.418 15.3631C116.563 15.3631 116.756 15.4113 116.901 15.4113C117.336 15.4113 117.722 15.2182 118.157 15.0734C118.205 15.6045 118.35 16.2321 118.543 16.715C118.737 17.1012 119.123 17.1495 119.461 17.1978C120.669 17.2944 121.877 17.1978 123.036 17.1978C121.877 17.4392 120.669 17.584 119.51 17.8737C118.978 18.0186 119.365 18.3566 119.606 18.598C119.993 18.9842 120.234 19.5154 120.428 19.9982C121.007 19.2739 121.973 18.7911 122.891 18.9842C123.857 19.2257 124.582 20.5776 123.954 21.4949C123.568 22.026 122.94 22.2674 122.408 22.5088C122.843 22.9434 122.94 23.6193 123.181 24.1504C123.326 24.4401 123.471 24.7298 123.761 24.8264C123.857 24.8747 124.002 24.8747 124.051 24.9713C124.147 25.0678 124.196 25.2127 124.292 25.3092C124.824 25.6955 125.645 25.6472 126.08 25.1644C126.515 24.7298 126.37 24.0539 126.031 23.6194C126.611 23.3779 127.577 23.0882 127.384 22.2192C128.592 22.1226 131.539 20.1913 129.896 18.7428C130.766 18.26 131.587 17.0047 131.007 15.9424C130.669 15.2182 129.655 14.8319 128.785 14.7837Z" fill="#4D0351"/>
<path d="M121.797 51.9014C128.379 56.9499 127.385 104.044 127.829 104.53C127.999 104.912 138.367 106.66 159.104 110.157L158.387 113.68C134.244 113.313 121.422 112.209 120.194 110.473C117.971 108.041 115.256 93.7103 111.563 67.9283L121.797 51.9014Z" fill="#FAD0B7"/>
<path d="M155.248 108.685L153.96 114.523C136.209 117.231 124.19 114.852 119.872 111.302C117.099 108.66 114.003 94.4999 111.241 68.7573L122.448 51.8364C138.364 62.9851 130.362 102.02 130.701 102.782C130.765 103.44 140.35 103.939 155.248 108.685Z" fill="#0202B2"/>
<path d="M159.252 108.948C160.289 108.711 161.22 108.751 161.495 108.856C162.045 109.066 162.871 109.382 163.971 109.802C163.76 110.355 162.26 116.744 159.579 128.695C157.992 128.722 157.167 128.406 157.314 127.197C157.462 125.987 157.504 125.054 157.715 124.501L156.102 114.707C156.208 114.431 156.208 114.431 156.314 114.154L157.731 113.747C158.429 112.748 158.915 112.301 158.957 111.367C159.169 110.815 159.105 110.158 158.872 109.119C158.766 109.395 158.977 108.843 159.252 108.948Z" fill="#600566"/>
<path d="M127 66.6574L126.004 112.871L127.471 152.769L123.682 151.1L114.28 61.0513L127 66.6574Z" fill="#FAD0B7"/>
<path d="M129.507 148.181C130.008 148.966 130.509 149.751 130.652 150.323C130.794 150.894 131.008 151.751 131.006 152.965C130.432 153.108 124.119 154.682 112.352 157.615C111.35 156.045 111.424 155.116 112.571 154.83C113.719 154.544 114.509 154.044 115.083 153.9L122.695 147.755C122.982 147.684 122.982 147.684 123.34 147.898L124.199 148.897C125.203 149.254 126.063 149.039 126.637 148.896C127.211 148.753 127.714 148.324 128.504 147.824C128.791 147.752 129.436 147.895 129.507 148.181Z" fill="#600566"/>
<path d="M129.206 145.17L120.104 143.088C117.769 130.798 107.821 80.0828 112.926 60.4546L131.599 68.6848C135.788 86.2966 127.261 132.729 129.206 145.17Z" fill="#8787E1"/>
<path d="M140.588 59.5891L147.686 58.1172C152.419 70.7757 155.376 77.5466 155.968 78.7241C156.56 79.6073 160.996 81.9624 163.658 83.1399C164.841 83.7287 164.545 84.6118 164.25 84.9062C161.588 87.5557 159.221 85.495 156.264 84.9062C153.01 84.0231 153.898 87.8501 151.531 87.2613C151.827 85.495 153.01 82.2568 151.827 80.4905C151.531 79.6073 147.686 72.8364 140.588 59.5891Z" fill="#FFCAA7"/>
<path d="M98.1622 31.3906L92.3494 19.2053C92.1597 16.2911 91.7753 13.5977 91.0013 11.3459C90.7523 10.7341 89.8648 9.9522 89.5836 12.0592C89.4972 13.9453 88.9941 15.8568 88.3827 16.103C87.7712 16.3492 87.0514 14.9301 86.0233 15.2016C85.4119 15.4478 86.3806 17.4787 89.5411 21.0481L91.9665 32.6037L98.1622 31.3906Z" fill="#FFCAA7"/>
<path d="M130.553 36.5896L129.276 33.859C120.438 32.2801 106.758 39.028 102.644 36.9138C98.7677 34.6252 96.8635 29.0535 94.5582 21.9422L89.5347 23.0644C87.7544 32.0763 91.1275 46.1074 96.8912 48.477C106.181 52.6589 122.184 43.1042 130.553 36.5896Z" fill="#FFE2B8"/>
<path d="M134.612 69.5175C122.781 69.5175 113.908 69.5175 108.288 69.5175C107.105 69.5175 107.401 67.7512 107.401 66.868C109.471 56.8589 117.162 45.9667 117.162 31.5418L124.852 30.3643C131.359 40.6677 133.429 53.0319 134.612 69.5175Z" fill="white"/>
<path d="M106.513 71.2411L106.546 71.2437L106.579 71.2464L106.612 71.2491L106.645 71.2518L106.678 71.2544L106.712 71.2571L106.745 71.2598L106.778 71.2625L106.812 71.2652L106.845 71.2679L106.879 71.2707L106.913 71.2734L106.946 71.2761L106.98 71.2789L107.014 71.2816L107.048 71.2844L107.082 71.2871L107.116 71.2899L107.15 71.2926L107.185 71.2954L107.219 71.2982L107.253 71.301L107.288 71.3038L107.322 71.3066L107.357 71.3094L107.392 71.3122L107.427 71.315L107.461 71.3178L107.496 71.3206L107.531 71.3235L107.566 71.3263L107.602 71.3292L107.637 71.332L107.672 71.3349L107.707 71.3377L107.743 71.3406L107.778 71.3435L107.814 71.3464L107.85 71.3492L107.885 71.3521L107.921 71.355L107.957 71.3579L107.993 71.3609L108.029 71.3638L108.065 71.3667L108.101 71.3696L108.138 71.3726L108.174 71.3755L108.21 71.3784L108.247 71.3814L108.283 71.3844L108.32 71.3873L108.357 71.3903L108.394 71.3933L108.43 71.3963L108.467 71.3992L108.504 71.4022L108.541 71.4052L108.578 71.4082L108.616 71.4113L108.653 71.4143L108.69 71.4173L108.728 71.4203L108.765 71.4234L108.803 71.4264L108.841 71.4295L108.878 71.4325L108.916 71.4356L108.954 71.4386L108.992 71.4417L109.03 71.4448L109.068 71.4479L109.106 71.451L109.144 71.4541L109.183 71.4572L109.221 71.4603L109.26 71.4634L109.298 71.4665L109.337 71.4696L109.375 71.4728L109.414 71.4759L109.453 71.479L109.492 71.4822L109.531 71.4853L109.57 71.4885L109.609 71.4917L109.648 71.4948L109.687 71.498L109.727 71.5012L109.766 71.5044L109.806 71.5076L109.845 71.5108L109.885 71.514L109.925 71.5172L109.964 71.5204L110.004 71.5237L110.044 71.5269L110.084 71.5301L110.124 71.5334L110.164 71.5366L110.205 71.5399L110.245 71.5431L110.285 71.5464L110.326 71.5497L110.366 71.553L110.407 71.5562L110.447 71.5595L110.488 71.5628L110.529 71.5661L110.57 71.5694L110.611 71.5727L110.652 71.5761L110.693 71.5794L110.734 71.5827L110.775 71.5861L110.816 71.5894L110.858 71.5928L110.899 71.5961L110.941 71.5995L110.982 71.6028L111.024 71.6062L111.066 71.6096L111.108 71.613L111.149 71.6164L111.191 71.6198L111.233 71.6232L111.276 71.6266L111.318 71.63L111.36 71.6334L111.402 71.6368L111.445 71.6403L111.487 71.6437L111.53 71.6472L111.572 71.6506L111.615 71.6541L111.658 71.6575L111.701 71.661L111.744 71.6645L111.786 71.6679L111.83 71.6714L111.873 71.6749L111.916 71.6784L111.959 71.6819L112.002 71.6854L112.046 71.6889L112.089 71.6924L112.133 71.696L112.177 71.6995L112.22 71.703L112.264 71.7066L112.308 71.7101L112.352 71.7137L112.396 71.7173L112.44 71.7208L112.484 71.7244L112.528 71.728L112.572 71.7316L112.617 71.7351L112.661 71.7387L112.706 71.7423L112.75 71.7459L112.795 71.7496L112.84 71.7532L112.884 71.7568L112.929 71.7604L112.974 71.7641L113.019 71.7677L113.064 71.7714L113.109 71.775L113.155 71.7787L113.2 71.7823L113.245 71.786L113.291 71.7897L113.336 71.7934L113.382 71.7971L113.427 71.8008L113.473 71.8045L113.519 71.8082L113.565 71.8119L113.611 71.8156L113.657 71.8193L113.703 71.823L113.749 71.8268L113.795 71.8305L113.841 71.8343L113.888 71.838L113.934 71.8418L113.981 71.8455L114.027 71.8493L114.074 71.8531L114.121 71.8569L114.167 71.8607L114.214 71.8645L114.261 71.8683L114.308 71.8721L114.355 71.8759L114.402 71.8797L114.45 71.8835L114.497 71.8873L114.544 71.8912L114.592 71.895L114.639 71.8989L114.687 71.9027L114.734 71.9066L114.782 71.9104L114.83 71.9143L114.878 71.9182L114.926 71.9221L114.974 71.9259L115.022 71.9298L115.07 71.9337L115.118 71.9376L115.167 71.9415L115.215 71.9455L115.263 71.9494L115.312 71.9533L115.36 71.9572L115.409 71.9612L115.458 71.9651L115.507 71.9691L115.555 71.973L115.604 71.977L115.653 71.981L115.703 71.9849L115.752 71.9889L115.801 71.9929L115.85 71.9969L115.9 72.0009L115.949 72.0049L115.998 72.0089L116.048 72.0129L116.098 72.0169L116.147 72.021L116.197 72.025L116.247 72.029L116.297 72.0331L116.347 72.0371L116.397 72.0412L116.447 72.0452L116.497 72.0493L116.548 72.0534L116.598 72.0574L116.649 72.0615L116.699 72.0656L116.75 72.0697L116.8 72.0738L116.851 72.0779L116.902 72.082L116.953 72.0861L117.004 72.0903L117.055 72.0944L117.106 72.0985L117.157 72.1027L117.208 72.1068L117.259 72.111L117.311 72.1151L117.362 72.1193L117.414 72.1234L117.465 72.1276L117.517 72.1318L117.568 72.136L117.62 72.1402L117.672 72.1444L117.724 72.1486L117.776 72.1528L117.828 72.157L117.88 72.1612L117.932 72.1654L117.985 72.1697L118.037 72.1739L118.089 72.1782L118.142 72.1824L118.194 72.1867L118.247 72.1909L118.3 72.1952L118.353 72.1995L118.405 72.2037L118.458 72.208L118.511 72.2123L118.564 72.2166L118.617 72.2209L118.671 72.2252L118.724 72.2295L118.777 72.2338L118.831 72.2382L118.884 72.2425L118.938 72.2468L118.991 72.2512L119.045 72.2555L119.099 72.2599L119.153 72.2642L119.206 72.2686L119.26 72.2729L119.314 72.2773L119.369 72.2817L119.423 72.2861L119.477 72.2905L119.531 72.2949L119.586 72.2993L119.64 72.3037L119.695 72.3081L119.749 72.3125L119.804 72.3169L119.859 72.3214L119.914 72.3258L119.968 72.3303L120.023 72.3347L120.078 72.3392L120.133 72.3436L120.189 72.3481L120.244 72.3526L120.299 72.357L120.355 72.3615L120.41 72.366L120.465 72.3705L120.521 72.375L120.577 72.3795L120.632 72.384L120.688 72.3885L120.744 72.393L120.8 72.3976L120.856 72.4021L120.912 72.4066L120.968 72.4112L121.024 72.4157L121.081 72.4203L121.137 72.4249L121.194 72.4294L121.25 72.434L121.307 72.4386L121.363 72.4432L121.42 72.4478L121.477 72.4524L121.534 72.457L121.59 72.4616L121.647 72.4662L121.704 72.4708L121.762 72.4754L121.819 72.48L121.876 72.4847L121.933 72.4893L121.991 72.494L122.048 72.4986L122.106 72.5033L122.163 72.5079L122.221 72.5126L122.279 72.5173L122.337 72.522L122.394 72.5266L122.452 72.5313L122.51 72.536L122.569 72.5407L122.627 72.5454L122.685 72.5502L122.743 72.5549L122.802 72.5596L122.86 72.5643L122.919 72.5691L122.977 72.5738L123.036 72.5786L123.095 72.5833L123.153 72.5881L123.212 72.5928L123.271 72.5976L123.33 72.6024L123.389 72.6072L123.448 72.612L123.508 72.6167L123.567 72.6215L123.626 72.6264L123.686 72.6312L123.745 72.636L123.805 72.6408L123.864 72.6456L123.924 72.6505L123.984 72.6553L124.044 72.6601L124.103 72.665L124.163 72.6698L124.223 72.6747L124.284 72.6796L124.344 72.6844L124.404 72.6893L124.464 72.6942L124.525 72.6991L124.585 72.704L124.646 72.7089L124.706 72.7138L124.767 72.7187L124.828 72.7236L124.888 72.7285L124.949 72.7335L125.01 72.7384L125.071 72.7433L125.132 72.7483L125.193 72.7532L125.255 72.7582L125.316 72.7631L125.377 72.7681L125.439 72.7731L125.5 72.7781L125.562 72.783L125.623 72.788L125.685 72.793L125.747 72.798L125.809 72.803L125.871 72.808L125.933 72.8131L125.995 72.8181L126.057 72.8231L126.119 72.8281L126.181 72.8332L126.243 72.8382L126.306 72.8433L126.368 72.8483L126.431 72.8534L126.493 72.8585L126.556 72.8635L126.619 72.8686L126.682 72.8737L126.744 72.8788L126.807 72.8839L126.87 72.889L126.933 72.8941L126.997 72.8992L127.06 72.9043L127.123 72.9094L127.186 72.9146L127.25 72.9197L127.313 72.9248L127.377 72.93L127.441 72.9351L127.504 72.9403L127.568 72.9454L127.632 72.9506L127.696 72.9558L127.76 72.961L127.824 72.9661L127.888 72.9713L127.952 72.9765L128.016 72.9817L128.081 72.9869L128.145 72.9921L128.209 72.9974L128.274 73.0026L128.338 73.0078L128.403 73.013L128.468 73.0183L128.533 73.0235L128.597 73.0288L128.662 73.034L128.727 73.0393L128.792 73.0446L128.858 73.0498L128.923 73.0551L128.988 73.0604L129.053 73.0657L129.119 73.071L129.184 73.0763L129.25 73.0816L129.315 73.0869L129.381 73.0922L129.447 73.0975L129.513 73.1028L129.578 73.1082L129.644 73.1135L129.71 73.1189L129.776 73.1242L129.843 73.1296L129.909 73.1349L129.975 73.1403L130.041 73.1457L130.108 73.151L130.174 73.1564L130.241 73.1618L130.308 73.1672L130.374 73.1726L130.441 73.178L130.508 73.1834L130.575 73.1888L130.642 73.1943L130.709 73.1997L130.776 73.2051L130.843 73.2105L130.91 73.216L130.977 73.2214L131.045 73.2269L131.112 73.2324L131.18 73.2378L131.247 73.2433L131.315 73.2488L131.383 73.2542L131.45 73.2597L131.518 73.2652L131.586 73.2707L131.654 73.2762L131.722 73.2817L131.79 73.2872L131.859 73.2928L131.927 73.2983L131.995 73.3038L132.064 73.3094L132.132 73.3149L132.201 73.3204L132.269 73.326L132.338 73.3316L132.363 73.3336C132.59 55.8034 130.779 43.1715 125.345 31.7522L118.98 31.7523C118.302 39.4431 115.847 46.0489 113.2 52.0273C112.478 53.659 111.743 55.2402 111.027 56.7824C109.076 60.9809 107.26 64.8901 106.191 68.7413C106.178 68.8873 106.157 69.058 106.136 69.2323C106.122 69.3426 106.109 69.4545 106.097 69.5624C106.063 69.8696 106.039 70.1744 106.05 70.4461C106.062 70.7242 106.11 70.9257 106.186 71.0531C106.248 71.1568 106.336 71.2267 106.513 71.2411Z" stroke="#0202B2" stroke-width="0.728333"/>
<path d="M137.268 59.5089C142.592 69.2236 147.029 75.9945 150.874 80.4102L156.198 79.2327C152.648 57.4482 142.296 41.257 125.438 30.6592H122.48C115.677 53.6212 113.902 69.2236 116.86 76.8776H140.522C140.226 71.2843 139.043 65.3966 137.268 59.5089Z" fill="#FFE2B8"/>
<path d="M53.3623 62.5278L44.6974 107.544L36.1197 143.988L38.9988 146.536L64.8787 72.7163L53.3623 62.5278Z" fill="#B28B67"/>
<path d="M35.3194 141.318C34.5122 141.783 33.9265 142.444 33.7313 142.665C33.3408 143.106 32.7551 143.767 32.3908 144.624C32.8338 145.016 37.2633 148.935 45.9008 156.576C47.32 155.866 47.6842 155.009 46.7983 154.225C46.1339 153.637 45.6647 152.829 45.2218 152.437L41.5585 144.085C41.3371 143.889 41.3371 143.889 41.1418 144.11L39.9179 144.6C39.0583 144.232 38.1986 143.865 37.7556 143.473C37.3127 143.081 37.065 142.469 36.5958 141.66C36.1528 141.269 35.7361 141.293 35.3194 141.318Z" fill="#0202B2"/>
<path d="M36.0881 136.883L43.1867 140.018C47.1931 130.588 51.1471 120.326 55.2176 108.595C59.2881 96.8628 62.9419 85.1556 65.9838 73.6933L50.481 59.978C45.9297 74.0365 42.6023 87.6051 40.2511 100.072C37.7047 112.758 36.3821 124.955 36.0881 136.883Z" fill="#E8140F"/>
<path d="M75.2155 26.1169L83.4349 16.6743C84.4313 13.9405 85.4675 11.7967 86.5237 9.94774C87.0915 9.61319 87.6395 8.98367 87.465 10.7732C87.2906 12.5627 87.1161 14.3522 87.7238 14.6075C88.3315 14.8629 89.1534 13.9186 89.781 14.4689C90.3887 14.7243 88.7249 16.3178 85.3575 18.9151L80.4106 28.7297L75.2155 26.1169Z" fill="#B28B67"/>
<path d="M73.4599 72.9926C69.686 68.7681 66.6039 52.6247 65.5347 45.0811L59.6851 49.4187V93.1719L81.0078 97.3209C86.8574 107.505 77.2338 77.217 73.4599 72.9926Z" fill="#8787E1"/>
<path d="M73.2713 25.6567C73.3359 24.1074 73.785 21.852 74.5922 20.1224C74.9957 19.2577 76.2754 18.549 77.1407 18.9524C77.644 19.2002 77.9757 19.618 78.0695 20.1224C78.3708 19.8154 78.6347 19.504 78.9403 19.1595L84.7434 22.865C76.9435 34.8381 70.8089 46.2057 59.7227 50.4348C55.9869 51.8652 44.1755 49.8601 39.8049 49.5469L48.7407 38.4809C60.8549 34.1433 62.7043 38.2923 73.2713 25.6567Z" fill="#8787E1"/>
<path d="M46.8805 80.5667C59.5665 86.5895 75.4582 95.3559 75.9452 95.7998C76.1486 96.1641 76.6249 106.432 77.374 126.602L80.7333 126.625C83.7806 103.837 84.5121 91.4524 83.1312 89.8359C81.0597 87.4111 62.8434 72.771 51.0448 65.7694L46.8805 80.5667Z" fill="#B28B67"/>
<path d="M76.2844 125.064C75.7606 125.838 75.5203 126.692 75.4403 126.977C75.2801 127.546 75.3234 128.479 75.3667 129.413C75.9338 129.572 81.9251 130.028 93.2605 131.065C93.9445 129.722 93.6177 128.709 92.767 128.469C91.9164 128.23 91.0657 127.991 90.2151 127.752L82.2692 123.369C81.9857 123.289 81.9857 123.289 81.9056 123.574L81.4251 125.281C80.4143 125.611 79.7671 125.736 79.2 125.577C78.6329 125.417 78.0658 125.258 77.2952 124.734C77.0117 124.655 76.3645 124.78 76.2844 125.064Z" fill="#0202B2"/>
<path d="M76.3762 119.26L81.8804 119.272C87.943 103.165 89.6117 92.8867 87.2502 88.2309C84.8887 83.575 72.7633 75.5603 51.4409 64.3461L46.0754 83.412C63.9085 91.8029 73.1487 95.9358 73.8392 96.744C74.6098 97.2677 75.2397 104.815 76.3762 119.26Z" fill="#E8140F"/>
<path d="M52.4271 28.517C50.6911 26.4802 49.5212 23.9908 49.7099 21.1619C50.276 13.0902 61.5223 14.863 63.7111 18.9366C65.9 23.0101 65.6359 33.3449 62.8054 34.0616C61.6733 34.3633 59.2957 33.6467 56.8426 32.1757L58.39 43.0385H49.3325L52.4271 28.517Z" fill="#B28B67"/>
<path d="M60.1211 14.4859C58.8757 14.1088 57.102 13.9956 56.3472 14.0711C56.7623 13.0527 56.9511 11.8834 56.8001 10.7896C56.6492 9.69573 56.1963 8.79051 55.7434 7.80983C55.5547 7.35721 55.2905 6.90457 54.9508 6.56511C54.6112 6.22565 54.1583 5.99934 53.6677 5.88619C53.1771 5.77303 52.6865 5.77303 52.1958 5.88619C51.9694 5.9239 51.7808 6.03706 51.5921 6.07478C51.3656 6.1125 51.2901 5.99935 51.1014 5.84848C50.7241 5.50901 50.158 5.35813 49.7051 5.32041C49.1768 5.24497 48.6107 5.32041 48.1201 5.509C47.6295 5.69759 47.1389 5.96162 46.7992 6.37652C46.6482 6.56511 46.4972 6.75372 46.384 6.98002C46.3463 7.05546 46.3463 7.1309 46.2331 7.16862C46.1576 7.20633 46.0443 7.20634 45.9689 7.24406C45.1009 7.5458 44.3839 8.18701 43.9688 9.05453C43.7423 9.54487 43.6291 10.4124 43.6668 11.3931C43.7046 12.3737 44.5725 14.9009 45.4028 15.8438C46.1576 16.6736 47.2143 17.2017 48.271 17.4657C47.5917 18.2578 47.1011 19.2385 46.7614 20.2569C46.384 21.3507 46.1576 22.4822 46.0821 23.6515C46.0066 24.7453 46.0066 25.9146 46.2708 27.0084C46.4972 28.0268 47.0256 28.8566 47.8936 29.347C48.271 29.5733 48.7239 29.7618 49.139 29.9504C49.5542 30.1013 49.9692 30.2522 50.4221 30.3654C51.2524 30.5539 52.2336 30.5162 52.8752 29.8373C53.1016 29.611 53.3658 29.3092 53.5167 29.0075C53.5922 28.8943 53.63 28.8189 53.5545 28.7435C53.479 28.6303 53.3281 28.5171 53.2149 28.4417C52.5733 27.8759 52.1582 27.1593 52.0827 26.2918C51.9695 25.4243 52.2336 24.255 53.0639 23.8778C54.1206 23.3875 55.2905 23.9532 56.234 24.4436C56.6492 23.048 57.4417 21.7656 58.7625 21.1244C60.1966 20.4077 61.8194 20.3323 63.2913 19.6911C63.6687 19.5402 64.0461 19.3516 64.348 19.0121C64.4612 18.8613 64.6121 18.7104 64.6498 18.5218C64.7253 18.2955 64.5744 18.0692 64.4234 17.9183C63.7064 16.8622 61.3288 14.8631 60.1211 14.4859Z" fill="#191847"/>
<path d="M26.239 63.5654L32.8811 64.7724C25.1823 80.086 21.031 88.1577 20.5026 89.0253C19.2572 90.9866 20.5026 94.5698 20.9932 96.4558C18.276 97.1347 19.2572 92.9857 15.823 93.9286C12.6529 94.7584 10.0111 96.8329 6.99195 94.1549C6.61455 93.8155 6.35038 92.7971 7.55804 92.2313C10.6149 90.8357 15.1436 88.2709 15.8607 87.2525C16.8419 85.9324 20.3139 78.0115 26.239 63.5654Z" fill="#B28B67"/>
<path d="M40.7278 78.0871C52.5779 79.4073 62.3524 79.4073 69.1455 78.0871C69.9757 77.9363 69.5229 74.2776 69.1455 73.2969C63.0317 57.8324 60.8277 45.2722 57.6198 36.0313C56.4876 36.597 55.9367 36.4462 53.144 36.0312C45.6716 47.1204 42.2374 59.7938 40.7278 78.0871Z" fill="white"/>
<path d="M38.5417 79.9349C38.1266 79.5577 37.9379 78.992 38.0134 78.3885L38.2021 77.2569C38.353 76.5026 38.9569 75.9368 39.6739 75.8613C39.7871 75.2956 39.9003 74.7298 40.0136 74.164C40.7683 69.4492 39.4852 64.8476 39.5229 60.2837C33.4469 65.4511 28.0125 74.3903 23.1818 87.1014L16.0491 84.9892C16.3133 83.9708 16.6152 82.9901 16.8793 82.0094C16.0491 81.5568 15.1056 79.4069 15.7849 79.0297C16.502 78.6525 17.2568 78.3885 18.0493 78.2376C24.5782 58.5487 35.2584 44.178 50.1277 35.0879H52.1656H54.43C53.1846 51.7971 70.6202 88.2707 64.5441 119.388C53.3355 121.878 37.3341 114.108 21.7854 120.331C22.427 107.846 34.013 93.0986 38.5417 79.9349Z" fill="#8787E1"/>
<path d="M39.008 80.1437L39.0743 79.9132L38.8887 79.7613C38.5591 79.4915 38.3788 79.0601 38.4134 78.5595L38.5419 77.4336C38.6341 76.822 39.0929 76.3619 39.6354 76.2764L39.9001 76.2347L39.939 75.9696L40.1907 74.2571L40.191 74.2571L40.1925 74.2431C40.4531 71.8212 40.195 69.4639 39.8536 67.162C39.7784 66.6551 39.6993 66.1517 39.6207 65.651C39.3403 63.865 39.0651 62.1128 38.9888 60.3517L38.9544 59.5561L38.3751 60.1026C32.5561 65.5924 27.6001 74.7611 23.4452 87.558L16.8848 85.9776C16.983 85.519 17.0859 85.0744 17.1888 84.6298C17.2898 84.1932 17.3908 83.7567 17.4874 83.3068L17.5477 83.0263L17.2889 82.9021C17.1474 82.8341 16.9626 82.6747 16.7688 82.4321C16.5801 82.1959 16.4044 81.908 16.2723 81.6198C16.1385 81.3278 16.0598 81.0581 16.0449 80.8563C16.0374 80.756 16.0471 80.6906 16.0596 80.6532C16.0654 80.6358 16.0709 80.6273 16.0732 80.6241C16.0746 80.6223 16.0755 80.6214 16.0765 80.6207C16.7406 80.2271 17.4454 79.9394 18.1918 79.757L18.3996 79.7063L18.4564 79.4999C23.9327 59.6066 33.7869 44.8041 48.0383 35.0174L49.971 34.9178L51.844 34.8212C51.8231 39.006 52.952 44.2707 54.5858 50.2592C55.49 53.5736 56.5573 57.1375 57.6773 60.8774C58.6415 64.0972 59.6448 67.4474 60.6167 70.8812C64.8113 85.7005 68.4819 102.272 66.3323 117.816C63.6765 118.513 60.7001 118.644 57.4772 118.538C55.3682 118.468 53.1745 118.299 50.905 118.123C49.5977 118.021 48.2653 117.918 46.9094 117.831C39.6866 117.367 31.9059 117.369 24.3777 120.682C24.5325 114.665 27.1339 107.98 30.2215 101.125C30.9204 99.5733 31.6441 98.0132 32.3684 96.4516C34.9311 90.9273 37.502 85.3852 39.008 80.1437Z" stroke="#FFE5E4" stroke-width="0.728333"/>
<path d="M51.7441 35.5029L49.7817 41.5001L53.7066 45.9886L50.1591 49.4964L58.7259 64.1688L48.2344 49.5341L51.7441 45.9886L48.2344 42.0282L51.7441 35.5029Z" fill="black" fill-opacity="0.1"/>
<path d="M56.2034 69.8256C55.3732 69.8256 54.6938 69.1466 54.6938 68.3168C54.6938 67.487 55.3732 66.8081 56.2034 66.8081C57.0337 66.8081 57.713 67.487 57.713 68.3168C57.713 69.1466 57.0714 69.8256 56.2034 69.8256ZM58.0904 78.5008C57.2601 78.5008 56.5808 77.8218 56.5808 76.992C56.5808 76.1622 57.2601 75.4833 58.0904 75.4833C58.9207 75.4833 59.6 76.1622 59.6 76.992C59.6 77.8218 58.9584 78.5008 58.0904 78.5008ZM58.4678 87.176C57.6375 87.176 56.9582 86.497 56.9582 85.6672C56.9582 84.8374 57.6375 84.1585 58.4678 84.1585C59.298 84.1585 59.9774 84.8374 59.9774 85.6672C59.9774 86.497 59.3358 87.176 58.4678 87.176Z" fill="black" fill-opacity="0.4"/>
<path d="M64.716 23.8887C65.0059 24.4681 65.4407 24.951 65.6823 25.5304C65.8755 26.0616 66.89 27.7517 66.9384 28.3311C67.035 29.152 65.1025 29.2969 64.2329 29.2486" fill="#B28B67"/>
<path d="M64.7767 22.4403C64.4868 22.392 64.2453 22.4403 64.052 22.4403C63.8104 22.4886 63.6172 22.5369 63.424 22.5852C62.9892 22.6818 62.5543 22.8268 61.9746 22.9234C62.0712 22.6335 62.3128 22.4403 62.506 22.2953C62.7476 22.1504 62.9892 22.0055 63.279 21.9572C63.5689 21.9088 63.8588 21.8605 64.1486 21.9572C64.3902 22.0055 64.6317 22.1987 64.7767 22.4403Z" fill="#191847"/>
<path d="M64.7675 31.3241C64.526 31.4207 64.2361 31.4207 63.9946 31.3241C63.753 31.2758 63.5114 31.131 63.2699 31.0344C62.8351 30.793 62.4003 30.5032 62.0621 30.3584L62.4969 30.0687C62.4969 30.1169 62.5452 30.3584 62.6901 30.5033C62.7868 30.6964 62.9317 30.8895 63.0766 31.0344C63.3665 31.4207 63.7047 31.7587 64.0429 32.0967C63.8013 32.0484 63.5597 31.9519 63.3182 31.807C63.0766 31.6621 62.8834 31.5656 62.6901 31.3724C62.4969 31.2276 62.3036 31.0344 62.1104 30.793C61.9655 30.5515 61.7722 30.3101 61.7722 29.8755L61.8205 29.4409L62.2553 29.5858C62.5452 29.6824 62.7384 29.8272 62.98 29.9721C63.1733 30.1169 63.3665 30.2618 63.5597 30.455C63.9462 30.8895 64.2844 31.2276 64.7675 31.3241Z" fill="#191847"/>
<path d="M63.892 24.5643C64.1854 24.5643 64.4232 24.3265 64.4232 24.0331C64.4232 23.7398 64.1854 23.502 63.892 23.502C63.5986 23.502 63.3608 23.7398 63.3608 24.0331C63.3608 24.3265 63.5986 24.5643 63.892 24.5643Z" fill="black"/>
</svg>
