<svg fill="none" height="201" viewBox="0 0 126 201" width="126" xmlns="http://www.w3.org/2000/svg"><path d="m65.9115 82.7168-24.0997 60.9752-16.143 51.566h-6.4266l24.7118-112.5412z" fill="#ffcaa7"/><path d="m70.7358 82.7171c.2295 21.4219 3.9784 50.2649 4.5904 51.6419.3826.918 14.1539 12.241 41.2378 33.969l-4.361 4.667c-31.9803-18.668-48.7354-29.226-50.189-31.75-2.2187-3.749-9.4869-38.101-15.2249-58.6044h23.9467z" fill="#ffcaa7"/><path d="m117.185 166.719c1.472.563 2.463 1.03 3.022 1.459.659.546 1.553 1.493 2.684 2.841-.663.757-6.605 7.84-17.766 21.2-2.305-.962-2.965-2.106-2.147-3.392.877-1.335 1.569-2.415 2.134-3.289l3.902-13.56c.077-.265.361-.403.626-.326l2.059.669c1.418-.69 2.454-1.36 3.001-2.018.429-.56.896-1.551 1.283-2.875.106-.588.673-.864 1.202-.709z" fill="#443425"/><path d="m28.2753 192.81c.5356 1.454.8416 2.601.8416 3.29 0 .918-.153 2.142-.459 3.902-.9946 0-10.252 0-27.6956 0-.688564-2.372-.306026-3.673 1.22412-3.826 1.53014-.153 2.83076-.382 3.82535-.535l12.85323-5.738c.2295-.077.5355 0 .612.229l.8416 1.989c1.4536.689 2.6012.995 3.5193.995.7651 0 1.7597-.306 2.9838-.918.6121-.153 1.2241.076 1.4536.612z" fill="#393837"/><path d="m46.6772 190.093-30.1198-4.639 27.0322-102.7912 27.2094 1.2158z" fill="#6464de"/><path d="m67.9519 83.1199-19.2038 106.3411-29.4784-3.201 22.2536-103.1401z" stroke="#fff" stroke-width=".806292"/><path d="m108.521 162.096-20.9057 22.669c-19.9403-23.772-31.5159-39.213-34.647-46.395-3.1344-7.107-5.4367-26.199-6.9136-57.1259l30.5734 1.3411c.3385 27.2008.7119 41.3848 1.1899 42.7068.478 1.323 10.6624 13.563 30.703 36.804z" fill="#7b61ff"/><path d="m109.206 160.692-19.3642 22.939c-10.3331-11.284-18.5252-20.613-24.5691-28-6.1119-7.47-10.0048-12.927-11.7033-16.4l-.0008-.001c-1.6918-3.422-3.3296-9.851-4.8983-19.32-1.5512-9.364-3.0286-21.6578-4.4315-36.8662h29.7799c.7554 13.3929 1.3797 23.5972 1.882 30.6302.2535 3.549.4762 6.293.6692 8.233.0965.969.1859 1.742.2686 2.315.0798.553.1592.969.2487 1.186.0514.125.1469.278.2611.443.1194.172.2777.384.4728.632.3907.497.9396 1.156 1.6453 1.977 1.4119 1.64 3.4615 3.936 6.1496 6.888 5.3348 5.857 13.1922 14.302 23.59 25.344z" stroke="#fff" stroke-width=".806292"/><path d="m62.2488 22.9654c2.2952-2.6777 3.8254-5.891 3.5193-9.5633-.765-10.48136-15.3779-8.18617-18.2087-2.9072-2.8307 5.2789-2.5247 18.744 1.1476 19.6621 1.4537.3825 4.5905-.5355 7.8038-2.4482l-1.9892 14.1537h11.7821z" fill="#ffcaa7"/><g fill="#7a380c"><path d="m47.1719 14.626c.3825-.153.765-.2295 1.1476-.2295.3825 0 .8416.0765 1.2241.2295s.7651.459.9946.8416c.2295.3825.306.765.2295 1.2241-.2295-.306-.459-.6121-.6886-.8416-.2295-.2295-.5355-.3825-.8415-.5355-.6121-.2296-1.3007-.3826-2.0657-.6886z"/><path d="m46.4141 26.0256c.5355-.2295.765-.3825 1.0711-.612.153-.0765.3825-.2295.612-.3825.2295-.0766.5356-.1531.7651-.0766-.306.3826-.5356.6886-.9181.9946-.2295.153-.459.3061-.7651.3061-.306 0-.5355-.0766-.765-.2296z"/><path d="m47.3359 16.6921c.2296-.306.5356-.3825.7651-.3825.153 0 .306 0 .3825.153.1531.0765.3061.2295.3061.3825-.153.0765-.306.153-.3826.2295-.153.0765-.2295.0765-.3825.0765-.153-.0765-.459-.153-.6886-.459z"/></g><path d="m37.8446 18.6043c0-.9181-1.6066-2.3717-2.1422-3.0602-1.3006-1.5302-2.9838-2.9838-4.973-3.4428-1.5301-.3826-4.6669-.6886-4.6669 1.5301 0 1.1476 1.5301 2.2952 2.2187 3.2898s1.2241 2.9072 2.0657 3.7488 4.0549.9946 4.973.2295" fill="#ffcaa7"/><path d="m62.0119 31.6865c-5.0494-.5356-10.4049 3.3663-15.3779.6885-1.3771-.765-2.5247-1.9891-3.3663-3.3662-1.6067-2.6013-2.4482-5.6615-3.9784-8.4157-1.1476-1.9892-2.2952-2.6778-4.5904-2.4482-2.1422.2295-4.2844.5355-6.4266.765-.9181.0765 4.7434 21.4218 5.432 23.4875.7651 2.2187 1.8362 4.4373 3.6723 5.891 2.2187 1.7596 5.2025 2.3717 7.9568 2.0656 3.0603-.2295 6.5031-1.1475 9.1043-2.6777 3.5959-2.1422 5.3555-5.5084 7.6507-8.8747" fill="#188cc6"/><path d="m42.5108 14.7027c.765-.6885 2.2187-1.2241 3.2898-1.1476 1.2241.0765.8415 1.7597.765 2.6013-.0765 1.2241-.2295 2.4482-.2295 3.7488 0 .5355 0 1.0711.0765 1.6066 0 .2295.2296.6886.0765.9181-.5355 1.1476-2.2187.459-2.8307-.0765-.3826-.3061-.3826-.3826-.4591-.8416-.459-1.9892-.8415-3.8253-.9181-5.8145" fill="#67676b"/><path d="m43.3484 21.9712-20.4274 2.4482-1.1476-9.4868 20.8865-.2295z" fill="#67676b"/><path d="m23.6881 25.1077-1.0711-11.0169-8.8748.6121.2295 2.2952 2.2187.306c-.9181.612-1.5301 1.6066-1.4536 2.8307.153 1.2241.9181 2.1422 1.9892 2.6012l-2.2953.6121.2296 2.2952z" fill="#67676b"/><path d="m41.7443 14.7031-4.2843.0765c-2.5248 2.6013-6.1206 4.7434-10.252 6.197-3.8254 1.3007-7.7272 1.7597-11.0935 1.4537.2295.153.459.306.6885.3825l-2.2952.612.2295 2.2952 8.9514-.612-.0765-.8416 16.8315-1.9891c.5356.8415 1.3772-2.9838 1.7597-2.4482" fill="#8d8d93"/><path d="m22.8489 15.085c-.6121.8415.0765 3.7488.306 4.8199.306 1.3771.612 2.7542 1.1476 4.2078-.5356-1.3771-.459-3.3663-.3825-4.8199.0765-1.0711.2295-3.5958 1.2241-4.2078-.8416.306-1.6832.5355-2.3717 0z" fill="#8d8d93"/><path d="m36.1537 20.4401c.6885-1.071 3.1367-1.6831 3.0602-3.7488-.918.0765-1.7596.9181-2.6777.2296-.6121-.4591-1.3771-1.6832-.6886-1.9127 1.3006-.3825 4.1314.0765 5.8911-.153-1.1476-2.7542-8.4923-3.5958-10.4815-1.8362-2.6012 2.2187-2.6012 6.9621-1.4536 9.8693 1.0711-.0765 2.1422-1.071 3.2133-1.4536 1.3006-.3825 2.4482-.3825 3.1368-.9946z" fill="#ffcaa7"/><path d="m74.1795 91.6584h-38.8748c8.8137-29.1895 13.7714-45.2823 13.9288-56.1535 0-.5136.9444-1.5408 1.3378-1.3696 3.0691.9416 5.8234-3.3383 9.3646-5.0503 9.2072 16.0927 12.355 35.9518 14.2436 62.5734z" fill="#e0762f"/><path d="m57.1202 29.0091c-10.864.0765-13.7713 26.0122-20.8865-8.5687l-6.8091 1.6067c-4.3609 40.2423 6.2736 38.6357 19.0503 41.8489-.8416 17.979-3.2133 33.1273 9.8694 33.1273h20.1214c3.2133-21.4983-5.2025-51.3358-13.0062-66.4075-.3061-.6121-.9181-1.6832-2.4483-1.6832-1.3771.0765-3.2898.0765-5.891.0765z" fill="#1e9ed1"/><path d="m37.3836 17.6094c-2.2187-2.1422-3.3663-6.044-6.6561-6.9621s-6.4266.2295-5.8145 4.0548c1.5301.4591 1.6831-1.5301 3.0602-1.6066-.0765.459.0766 1.3006.6886 1.4536 1.0711.2295.5356-.9181 1.1476-1.0711.9946-.2295 2.2187 2.1422 2.9838.6121.6886.0765 1.3006 1.1476 1.9892 1.6066.7651.6121 1.7596.9946 2.6012 1.9127z" fill="#ffcaa7"/><path d="m27.6582 192.809c.5355 1.454.8415 2.601.8415 3.29 0 .918-.153 2.142-.459 3.902-.9946 0-10.252 0-27.695587 0-.688564-2.372-.3060268-3.673 1.224117-3.826 1.53014-.153 2.83076-.382 3.82536-.535l12.85321-5.738c.2295-.077.5355 0 .612.229l.8416 1.989c1.4537.689 2.6013.995 3.5193.995.7651 0 1.7597-.306 2.9838-.918.6121-.153 1.2241.076 1.4537.612z" fill="#393837"/><path d="m67.9371 9.96896c.34-.33779.4911-.78818.6423-1.20104.1511-.45039.3022-.90078.4156-1.3887.2266-.93832.2266-2.02676-.4534-2.73988-.5289-.60052-1.3601-.86325-2.1157-.90078-.4912-.03754-1.0201.03753-1.4735.18766-.4911.15013-.8689.45039-1.3601.63805 0-1.01338-.1889-2.06429-.7178-2.92754-.4912-.825714-1.2845-1.313637-2.1913-1.426235-.9445-.1125977-1.8512.075065-2.6824.525456-.2267.112598-.4156.225195-.6045.375329-.1511.11259-.34.22519-.5289.30026-.2267.03753-.34-.07507-.4534-.2252-.1511-.187661-.34-.337791-.5289-.487922-.869-.6380533-2.0024-.900781-3.0225-.525456-.4533.187663-.9067.487924-1.2089.863248-.2645.37533-.4912.93832-.869 1.20104-.1511.1126-.2645-.03753-.4156-.15013-.2267-.15013-.4534-.33779-.68-.48792-.3023-.2252-.6801-.37533-1.0201-.45039-.5289-.1126-1.2846-.1126-1.4357.60052-.0755.26273 0 .56299 0 .82572.0378.37532.0378.71312.0756 1.08844.0378.26273.0378.52546.1133.82572.0378.15013.1134.41286.0378.56299-.0755.18766-.4534.07506-.6045.07506-.3022 0-.6045.07507-.9067.18766-.2267.1126-.4534.26273-.5289.48793-.0756.15013-.0378.30026 0 .45039.0377.18766 0 .30026-.0378.48792-.4156-.18766-1.8135-.63805-2.0024.07507-.0755.22519.0756.52545.1889.71312.1889.37532.4156.67558.6801 1.01338.4911.63805 1.0956 1.20104 1.7757 1.68897-.7557.3378-.9446 1.3136-.3023 1.9142.3022.2627.6801.3002 1.0579.3002.1511 0 .34-.0751.4155-.0375.0756 0 .1134.075.1889.075.529.0376 1.0957-.075 1.6246-.1876.9067-.1877 1.7757-.6381 2.4557-1.2761.189-.1502.3401-.2628.5668-.2628.2266 0 .4155.0751.6422.0751.5667 0 1.0579-.2627 1.5868-.4504.0378.7131.2267 1.4638.5289 2.1018.2267.5255.7179.6006 1.209.6381 1.549.1501 3.0603 0 4.6093 0-1.4735.3378-3.0225.4879-4.4959.8632-.6801.1877-.1511.6381.1133.9384.4534.5254.8312 1.1259 1.0579 1.8015.7178-.9383 2.0023-1.5763 3.1358-1.2761 1.2467.3003 2.1534 1.9892 1.3223 3.2278-.4534.7131-1.3223.9759-2.0024 1.2761.5289.563.6801 1.3887 1.0201 2.1019.1511.3377.3778.7506.7556.8632.1511.0375.3022.0375.4156.1501.1133.1502.1511.3003.34.4129.6801.4504 1.7001.4128 2.3046-.1877.5289-.563.4156-1.3887-.0378-1.9517.7179-.3002 2.0024-.6756 1.7379-1.764 1.549-.1126 5.2893-2.5897 3.2114-4.3913 1.1334-.6381 2.1913-2.2144 1.4357-3.5656-.6045-1.0884-1.8891-1.5764-2.9847-1.65144z" fill="#67401c"/></svg>