<svg width="32" height="32" xmlns="http://www.w3.org/2000/svg"><g fill="none" fill-rule="evenodd"><path d="M0 0h32v32H0z"/><path d="M21.667 4.833v22c0 2.462 1.698 3.834 3.5 3.834 1.666 0 3.5-1.167 3.5-3.834V5c0-2.257-1.667-3.667-3.5-3.667-1.834 0-3.5 1.555-3.5 3.5Z" fill="#F9AB00" fill-rule="nonzero"/><path d="M12.5 16v10.833c0 2.462 1.698 3.834 3.5 3.834 1.667 0 3.5-1.167 3.5-3.834V16.167c0-2.257-1.667-3.667-3.5-3.667s-3.5 1.555-3.5 3.5Z" fill="#E37400" fill-rule="nonzero"/><circle fill="#E37400" fill-rule="nonzero" cx="6.833" cy="27.167" r="3.5"/></g></svg>