<svg height="32" width="32" xmlns="http://www.w3.org/2000/svg"><g fill="none" fill-rule="evenodd"><path d="m0 0h32v32h-32z"/><g fill-rule="nonzero"><path d="m21.667 4.833v22c0 2.462 1.698 3.834 3.5 3.834 1.666 0 3.5-1.167 3.5-3.834v-21.833c0-2.257-1.667-3.667-3.5-3.667-1.834 0-3.5 1.555-3.5 3.5z" fill="#f9ab00"/><path d="m12.5 16v10.833c0 2.462 1.698 3.834 3.5 3.834 1.667 0 3.5-1.167 3.5-3.834v-10.666c0-2.257-1.667-3.667-3.5-3.667s-3.5 1.555-3.5 3.5z" fill="#e37400"/><circle cx="6.833" cy="27.167" fill="#e37400" r="3.5"/></g></g></svg>