<svg width="34" height="36" fill="none" xmlns="http://www.w3.org/2000/svg"><path d="M6.012 26.353L9.805 2.086a.7.7 0 011.31-.222l3.921 7.315L16.6 6.202a.7.7 0 011.24 0l10.583 20.15H6.013z" fill="#FFA000"/><path d="M19.114 16.9l-4.08-7.725-9.022 17.178L19.114 16.9z" fill="#F57C00"/><path d="M28.423 26.353L25.52 8.379A.701.701 0 0024.333 8L6.013 26.353l10.137 5.685a2.101 2.101 0 002.048 0l10.225-5.685z" fill="#FFCA28"/><path d="M25.518 8.379A.701.701 0 0024.333 8l-3.636 3.646-2.86-5.444a.7.7 0 00-1.24 0L15.035 9.18l-3.922-7.315a.7.7 0 00-1.31.224l-3.79 24.265H6l.012.014.1.049L24.328 8.179a.7.7 0 011.187.378l2.88 17.813.028-.017-2.905-17.974zM6.045 26.319l3.76-24.06a.7.7 0 011.31-.223l3.921 7.315L16.6 6.374a.7.7 0 011.24 0l2.801 5.328L6.045 26.32z" fill="#fff" fill-opacity=".2"/><path opacity=".2" d="M18.198 31.867a2.101 2.101 0 01-2.048 0l-10.113-5.67-.025.157 10.138 5.683a2.101 2.101 0 002.048 0l10.225-5.683-.026-.162-10.199 5.675z" fill="#A52714"/><path d="M25.49 8.383a.7.7 0 00-1.182-.378l-3.624 3.643-2.849-5.44a.698.698 0 00-1.235 0l-1.558 2.974-3.908-7.311a.697.697 0 00-1.305.224L6.05 26.349l10.102 5.68a2.088 2.088 0 002.042 0l10.189-5.68-2.895-17.966z" fill="url(#paint0_linear_17674_351676)"/><defs><linearGradient id="paint0_linear_17674_351676" x1="5.272" y1="6.742" x2="33.141" y2="21.443" gradientUnits="userSpaceOnUse"><stop stop-color="#fff" stop-opacity=".1"/><stop offset=".14" stop-color="#fff" stop-opacity=".08"/><stop offset=".61" stop-color="#fff" stop-opacity=".02"/><stop offset="1" stop-color="#fff" stop-opacity="0"/></linearGradient></defs></svg>