<svg fill="none" height="36" width="34" xmlns="http://www.w3.org/2000/svg" xmlns:xlink="http://www.w3.org/1999/xlink"><linearGradient id="a" gradientUnits="userSpaceOnUse" x1="5.272" x2="33.141" y1="6.742" y2="21.443"><stop offset="0" stop-color="#fff" stop-opacity=".1"/><stop offset=".14" stop-color="#fff" stop-opacity=".08"/><stop offset=".61" stop-color="#fff" stop-opacity=".02"/><stop offset="1" stop-color="#fff" stop-opacity="0"/></linearGradient><path d="m6.012 26.353 3.793-24.267a.7.7 0 0 1 1.31-.222l3.921 7.315 1.564-2.977a.7.7 0 0 1 1.24 0l10.583 20.15h-22.41z" fill="#ffa000"/><path d="m19.114 16.9-4.08-7.725-9.022 17.178z" fill="#f57c00"/><path d="m28.423 26.353-2.903-17.974a.701.701 0 0 0 -1.187-.379l-18.32 18.353 10.137 5.685a2.101 2.101 0 0 0 2.048 0z" fill="#ffca28"/><path d="m25.518 8.379a.701.701 0 0 0 -1.185-.379l-3.636 3.646-2.86-5.444a.7.7 0 0 0 -1.24 0l-1.562 2.978-3.922-7.315a.7.7 0 0 0 -1.31.224l-3.79 24.265h-.013l.012.014.1.049 18.216-18.238a.7.7 0 0 1 1.187.378l2.88 17.813.028-.017zm-19.473 17.94 3.76-24.06a.7.7 0 0 1 1.31-.223l3.921 7.315 1.564-2.977a.7.7 0 0 1 1.24 0l2.801 5.328-14.596 14.618z" fill="#fff" fill-opacity=".2"/><path d="m18.198 31.867a2.101 2.101 0 0 1 -2.048 0l-10.113-5.67-.025.157 10.138 5.683a2.101 2.101 0 0 0 2.048 0l10.225-5.683-.026-.162z" fill="#a52714" opacity=".2"/><path d="m25.49 8.383a.7.7 0 0 0 -1.182-.378l-3.624 3.643-2.849-5.44a.698.698 0 0 0 -1.235 0l-1.558 2.974-3.908-7.311a.697.697 0 0 0 -1.305.224l-3.779 24.254 10.102 5.68a2.088 2.088 0 0 0 2.042 0l10.189-5.68-2.895-17.966z" fill="url(#a)"/></svg>