<svg width="64" height="30" viewBox="0 0 64 30" fill="none" xmlns="http://www.w3.org/2000/svg">
<path d="M2 13C0.89543 13 0 13.8954 0 15C0 16.1046 0.89543 17 2 17V13ZM63.4142 16.4142C64.1953 15.6332 64.1953 14.3668 63.4142 13.5858L50.6863 0.857864C49.9052 0.0768156 48.6389 0.0768156 47.8579 0.857864C47.0768 1.63891 47.0768 2.90524 47.8579 3.68629L59.1716 15L47.8579 26.3137C47.0768 27.0948 47.0768 28.3611 47.8579 29.1421C48.6389 29.9232 49.9052 29.9232 50.6863 29.1421L63.4142 16.4142ZM2 17H62V13H2V17Z" fill="#000091"/>
</svg>
