<svg width="16" height="16" viewBox="0 0 16 16" fill="none" xmlns="http://www.w3.org/2000/svg">
<path d="M1.8718 3.46688L4.6718 5.33355L7.46247 1.42688C7.52413 1.34046 7.60555 1.27002 7.69994 1.22142C7.79433 1.17282 7.89896 1.14746 8.00513 1.14746C8.1113 1.14746 8.21593 1.17282 8.31032 1.22142C8.40471 1.27002 8.48613 1.34046 8.5478 1.42688L11.3385 5.33355L14.1385 3.46688C14.2444 3.39638 14.3684 3.35769 14.4956 3.35538C14.6229 3.35306 14.7481 3.38723 14.8566 3.45383C14.9651 3.52044 15.0522 3.6167 15.1077 3.73124C15.1632 3.84578 15.1847 3.97382 15.1698 4.10022L14.0745 13.4116C14.0554 13.5737 13.9774 13.7232 13.8554 13.8317C13.7334 13.9402 13.5758 14.0002 13.4125 14.0002H2.5978C2.43451 14.0002 2.27691 13.9402 2.15488 13.8317C2.03286 13.7232 1.9549 13.5737 1.9358 13.4116L0.840465 4.09955C0.825665 3.97321 0.847322 3.84526 0.902879 3.73083C0.958436 3.61639 1.04557 3.52024 1.15401 3.45372C1.26244 3.38721 1.38764 3.3531 1.51482 3.35543C1.64201 3.35777 1.76588 3.39644 1.8718 3.46688ZM8.00513 10.0002C8.35875 10.0002 8.69789 9.85974 8.94794 9.60969C9.19799 9.35964 9.33847 9.02051 9.33847 8.66688C9.33847 8.31326 9.19799 7.97412 8.94794 7.72408C8.69789 7.47403 8.35875 7.33355 8.00513 7.33355C7.65151 7.33355 7.31237 7.47403 7.06232 7.72408C6.81227 7.97412 6.6718 8.31326 6.6718 8.66688C6.6718 9.02051 6.81227 9.35964 7.06232 9.60969C7.31237 9.85974 7.65151 10.0002 8.00513 10.0002Z" fill="#EFB547"/>
</svg>
