<svg fill="none" height="22" viewBox="0 0 22 22" width="22" xmlns="http://www.w3.org/2000/svg"><path d="m21.4563 11.2456c0-.7251-.0588-1.45414-.1842-2.16748h-10.0612v4.10758h5.7616c-.2391 1.3247-1.0073 2.4966-2.1322 3.2413v2.6652h3.4373c2.0186-1.8578 3.1787-4.6014 3.1787-7.8466z" fill="#4285f4"/><path d="m11.2117 21.6676c2.8768 0 5.3029-.9446 7.0706-2.575l-3.4373-2.6652c-.9564.6506-2.191 1.019-3.6294 1.019-2.78277 0-5.14226-1.8774-5.98885-4.4015h-3.54706v2.7475c1.81076 3.602 5.49893 5.8752 9.53201 5.8752z" fill="#34a853"/><path d="m5.22469 13.0444c-.44681-1.3247-.44681-2.7592 0-4.084v-2.74751h-3.54315c-1.512888 3.01403-1.512888 6.56501 0 9.57901z" fill="#fbbc04"/><path d="m11.2117 4.55493c1.5207-.02352 2.9905.54872 4.0919 1.59912l3.0453-3.04538c-1.9283-1.81077-4.4877-2.806299-7.1372-2.774943-4.03308 0-7.72125 2.273253-9.53201 5.879113l3.54314 2.7475c.84268-2.52801 3.20608-4.40541 5.98887-4.40541z" fill="#ea4335"/></svg>