<svg fill="none" height="240" viewBox="0 0 346 240" width="346" xmlns="http://www.w3.org/2000/svg"><path d="m103.133 160.926c-4.7675 1.221-8.8372 2.717-12.2092 4.489-22.7897 12.09-40.6952 27.369-56.6241 40.719-8.7202 7.364-13.7193 15.673-6.7414 23.274 1.9771 2.205 5.0007 4.292 9.7685 5.946 7.7913 2.717 19.3034 3.78 30.3502 4.253 48.257 2.087 96.165-4.804 144.771-4.804 33.489-.04 69.421 3.071 98.956-2.284 31.046-5.592 43.254-20.36 26.508-30.835-9.071-5.67-24.421-9.805-39.421-13.783-33.491-8.86-67.098-20.28-103.844-27.526-26.862-5.277-67.096-5.828-91.514.551z" fill="#c9c9fb"/><g opacity=".7"><g fill="#e8140f"><ellipse cx="3.91044" cy="3.91058" rx="3.91044" ry="3.91058" transform="matrix(-.292383 -.956301 .956308 -.29236 50.8906 13.377)"/><ellipse cx="3.6384" cy="3.63856" opacity=".91" rx="3.6384" ry="3.63856" transform="matrix(.0697595 -.997564 .997564 .0697535 99.5156 7.25879)"/><ellipse cx="3.46848" cy="3.46843" opacity=".81" rx="3.46848" ry="3.46843" transform="matrix(-.809029 .587769 -.587802 -.809005 243.531 218.476)"/><ellipse cx="2.14233" cy="2.14224" opacity=".89" rx="2.14233" ry="2.14224" transform="matrix(-.990269 .139167 -.139179 -.990267 90.0781 94.4688)"/><ellipse cx="2.6183" cy="2.61838" opacity=".74" rx="2.6183" ry="2.61838" transform="matrix(.374621 -.927178 .92719 .374592 196.102 132.053)"/><ellipse cx="3.80848" cy="3.80852" opacity=".7" rx="3.80848" ry="3.80852" transform="matrix(-.615678 .787998 -.788024 -.615645 31.9922 96.957)"/><ellipse cx="2.0403" cy="2.04023" opacity=".97" rx="2.0403" ry="2.04023" transform="matrix(.933585 .358355 -.358381 .933575 96.8359 192.044)"/><ellipse cx="3.84257" cy="3.84244" opacity=".89" rx="3.84257" ry="3.84244" transform="matrix(-.951061 -.309005 .309029 -.951052 272.773 148.758)"/></g><ellipse cx="3.84257" cy="3.84244" fill="#c3c3ff" opacity=".89" rx="3.84257" ry="3.84244" transform="matrix(-.951061 -.309005 .309029 -.951052 185.086 56.3008)"/><path d="m1.19016-1.19016h7.64094" opacity=".83" stroke="#fff" stroke-linecap="round" stroke-linejoin="round" stroke-width="2.38031" transform="matrix(.809029 .587768 -.587802 .809005 74.3438 25.9609)"/><path d="m1.19016-1.19016h7.77619" opacity=".89" stroke="#fff" stroke-linecap="round" stroke-linejoin="round" stroke-width="2.38031" transform="matrix(-.529936 .848037 -.848059 -.529902 122.242 16.4395)"/><path d="m1.19016-1.19016h7.64109" opacity=".93" stroke="#fff" stroke-linecap="round" stroke-linejoin="round" stroke-width="2.38031" transform="matrix(-.997564 -.069754 .069759 -.997564 76.2031 131.394)"/><path d="m1.19016-1.19016h9.13054" opacity=".87" stroke="#fff" stroke-linecap="round" stroke-linejoin="round" stroke-width="2.38031" transform="matrix(-.743159 .669115 -.669147 -.743131 269.266 108.93)"/><path d="m1.19016-1.19016h11.70354" opacity=".79" stroke="#fff" stroke-linecap="round" stroke-linejoin="round" stroke-width="2.38031" transform="matrix(-.719355 -.694643 .694674 -.719324 96.0469 57.3857)"/><path d="m1.19016-1.19016h11.70354" opacity=".79" stroke="#fff" stroke-linecap="round" stroke-linejoin="round" stroke-width="2.38031" transform="matrix(-.719355 -.694643 .694674 -.719324 84.4922 224.346)"/><path d="m1.19016-1.19016h10.34944" opacity=".7" stroke="#fff" stroke-linecap="round" stroke-linejoin="round" stroke-width="2.38031" transform="matrix(-.82905 -.559175 .559211 -.829025 71.625 189.859)"/><path d="m230.346 46.1525c.476-1.0357 1.939-1.0612 2.451-.0428l.916 1.8219c.45.8953-.19 1.9535-1.192 1.971l-1.768.0308c-1.002.0175-1.678-1.0177-1.259-1.9282z" fill="#e8140f" opacity=".85"/><path d="m23.9962 144.985c-.8158.796-2.1905.296-2.3036-.838l-.4347-4.361c-.0995-.998.877-1.756 1.8187-1.413l3.5711 1.299c.9416.343 1.2019 1.552.4848 2.252z" fill="#e8140f" opacity=".92"/><path d="m4.11155 54.3095c-.62601-.9527.12746-2.2067 1.2626-2.1012l2.74067.2545c.99782.0927 1.55623 1.1959 1.04009 2.0548l-1.22923 2.0457c-.51614.859-1.75242.8839-2.3027.0464z" fill="#e8140f" opacity=".82"/><path d="m102.1 120.334c-.96-.616-.781-2.068.299-2.434l3.668-1.241c.95-.321 1.909.46 1.786 1.454l-.409 3.334c-.122.994-1.241 1.52-2.085.979z" fill="#e8140f" opacity=".91"/><path d="m271.502 50.3085c.902.697.598 2.128-.51 2.3978l-6.337 1.544c-.973.2372-1.86-.6241-1.652-1.6043l1.176-5.5318c.208-.9802 1.369-1.4062 2.162-.7935z" fill="#e8140f" opacity=".98"/><path d="m235.126 189.443c.165 1.128-1.048 1.946-2.032 1.37l-3.696-2.16c-.865-.505-.905-1.741-.074-2.302l3.077-2.075c.831-.56 1.962-.061 2.107.931z" fill="#e8140f" opacity=".84"/><path d="m110.204 234.597c.165 1.128-1.048 1.946-2.032 1.371l-3.696-2.16c-.865-.506-.905-1.742-.074-2.302l3.077-2.076c.831-.56 1.962-.06 2.107.931z" fill="#e8140f" opacity=".84"/><path d="m249.587 100.408c.165 1.128-1.048 1.946-2.032 1.37l-3.696-2.1598c-.865-.5057-.905-1.7415-.074-2.3019l3.077-2.0756c.831-.5603 1.962-.0604 2.107.9312z" fill="#8787e1" opacity=".84"/><path d="m148.848 41.2469s-5.659 2.6941-.696 7.767" opacity=".97" stroke="#8787e1" stroke-width="2.72036"/><path d="m178.216 211.647s-5.223 6.796 3.974 9.897" opacity=".77" stroke="#8787e1" stroke-width="2.72036"/><path d="m249.526 63.3142s5.685-7.1367-4.046-10.6078" opacity=".92" stroke="#8787e1" stroke-width="2.72036"/><path d="m138.003 133.819s5.685-7.137-4.047-10.608" opacity=".92" stroke="#8787e1" stroke-width="2.72036"/><path d="m24.3263 168.659s-6.5587 2.711-1.2477 8.741" opacity=".79" stroke="#8787e1" stroke-width="2.72036"/><path d="m82.803 146.274s2.394 6.091 8.0396 1.291" opacity=".7" stroke="#8787e1" stroke-width="2.72036"/></g><path d="m207.079 84.8946c1.707-2.0129 2.888-4.4633 2.669-7.22-.568-7.9639-11.64-6.2136-13.784-2.1879s-1.882 14.1775.875 14.9214c1.094.3063 3.457-.3938 5.864-1.8816l-1.531 10.6769h8.927z" fill="#ffcaa7"/><path d="m195.036 79.2051c-.262 1.619-1.488 2.8005-1.969 4.2882-.263.8314-.306 1.1377.525 1.4003.656.2188 1.313.2188 1.75-.2626" fill="#ffcaa7"/><path d="m196.133 80.167c.087-.2626.306-.5251.569-.6564.262-.1312.612-.2188.919-.175.306.0438.569.1313.831.2625.263.1313.481.3063.7.5251-.306.0438-.569 0-.831-.0437-.263-.0438-.525-.0875-.744-.0875s-.481-.0438-.7 0c-.219 0-.482.0875-.744.175z" fill="#4d0351"/><path d="m197.18 81.8752c.241 0 .437-.196.437-.4376 0-.2417-.196-.4376-.437-.4376-.242 0-.438.1959-.438.4376 0 .2416.196.4376.438.4376z" fill="#307205"/><path d="m203.181 86.5129c.087-1.094-.044-2.2317-.744-2.6255-.263-.1313-.613.0438-1.007.3063-.437 1.3127-1.132 1.2726-1.919 1.2726-2.232.0438-3.988-.6162-4.951-.5725-.7 0-.525.919-.044 1.5316.394.5251 2.705-.2055 2.705.6259s-1.873 1.4307-1.873 1.9558c0 .8314-.219 2.3629 1.225 2.3629 1.444-.0438 5.601-.6564 6.258-2.8443.131-.4375.306-1.2252.35-2.0128z" fill="#4d0351"/><path d="m210.987 76.3695c.225-.2254.361-.5861.496-.9017s.225-.6763.316-.9919c.135-.6763.135-1.4878-.316-2.0289-.406-.4058-.992-.6312-1.533-.6763-.361-.0451-.721.0451-1.082.1353-.361.1353-.631.3607-.992.4959 0-.7213-.135-1.5329-.496-2.1641s-.947-.9468-1.578-1.037c-.677-.0901-1.353.0451-1.939.4058-.135.0902-.316.1803-.451.2705s-.225.1804-.406.2255c-.135.045-.225-.0451-.315-.1804-.136-.1352-.271-.2705-.406-.3607-.631-.4508-1.443-.6763-2.209-.3607-.316.1353-.677.3607-.902.6312-.226.2705-.361.6763-.631.8567-.136.0901-.226-.0451-.316-.0902-.18-.1353-.316-.2254-.496-.3607-.225-.1803-.496-.2705-.766-.3607-.406-.0902-.947-.0902-1.037.4509-.046.1803 0 .4058 0 .5861 0 .2705.045.541.045.8116 0 .2254.045.4057.09.5861 0 .0901.09.3156.045.4057-.045.1353-.316.0451-.451.0451-.225 0-.451.0451-.631.1353-.181.0902-.316.1803-.406.3607-.045.0901-.045.2254 0 .3607.045.1352 0 .2254 0 .3607-.316-.1353-1.308-.4509-1.443.045-.045.1804.045.3607.135.5411.136.2705.316.4959.496.7213.361.496.812.9018 1.263 1.2625-.541.2254-.722.9918-.226 1.3976.226.1804.496.2255.767.2255.09 0 .225-.0451.316-.0451.045 0 .09.0451.135.0451.361.045.811-.0451 1.172-.1353.676-.1353 1.263-.4509 1.804-.9468.135-.1353.225-.1804.405-.1804.136 0 .316.0451.451.0451.406 0 .767-.1803 1.173-.3156.045.496.18 1.0821.36 1.533.181.3606.541.4057.857.4508 1.127.0902 2.254 0 3.336 0-1.082.2254-2.209.3607-3.291.6312-.496.1353-.135.4509.09.6763.361.3607.586.8567.767 1.3075.541-.6763 1.443-1.1271 2.299-.9468.902.2254 1.578 1.4878.992 2.3445-.361.4959-.947.7213-1.443.9468.406.4058.496 1.037.722 1.5329.135.2705.27.541.541.6312.09.0451.225.0451.27.1353.09.0901.136.2254.226.3156.496.3607 1.262.3156 1.668-.1353.406-.4058.271-1.037-.045-1.4427.541-.2255 1.443-.496 1.262-1.3075 1.128-.0902 3.878-1.8936 2.345-3.2462.812-.4509 1.578-1.6231 1.037-2.615-.316-.6763-1.262-1.037-2.074-1.0821z" fill="#4d0351"/><path d="m204.463 111.024c6.144 4.714 5.216 48.69 5.63 49.145.159.356 9.836 1.988 29.19 5.254l-.67 3.29c-22.532-.343-34.5-1.374-35.646-2.995-2.075-2.271-4.608-15.653-8.055-39.728z" fill="#fad0b7"/><path d="m235.683 164.048-1.202 5.451c-16.567 2.529-27.785.307-31.815-3.008-2.588-2.467-5.477-15.689-8.055-39.728l10.459-15.801c14.855 10.411 7.387 46.862 7.704 47.574.059.614 9.005 1.08 22.909 5.512z" fill="#0202b2"/><path d="m239.42 164.293c.967-.221 1.836-.184 2.093-.086.513.196 1.284.491 2.311.884-.197.515-1.597 6.482-4.1 17.642-1.481.024-2.251-.27-2.113-1.4.137-1.129.176-2.001.374-2.517l-1.505-9.146c.098-.258.098-.258.197-.516l1.323-.38c.651-.933 1.105-1.351 1.144-2.222.198-.516.138-1.13-.08-2.1-.098.258.099-.258.356-.159z" fill="#600566"/><path d="m209.318 124.806-.93 43.154 1.369 37.257-3.536-1.559-8.774-84.087z" fill="#fad0b7"/><path d="m211.649 200.931c.467.734.935 1.467 1.068 2.001.133.533.332 1.333.331 2.467-.536.133-6.429 1.603-17.41 4.342-.935-1.466-.867-2.333.205-2.601 1.071-.267 1.808-.734 2.344-.868l7.104-5.738c.267-.067.267-.067.602.133l.802.933c.936.333 1.74.133 2.275-.001.536-.133 1.005-.534 1.742-1.001.268-.066.87.067.937.333z" fill="#600566"/><path d="m211.36 198.121-8.495-1.944c-2.18-11.476-11.464-58.834-6.699-77.163l17.428 7.686c3.91 16.446-4.05 59.804-2.234 71.421z" fill="#8787e1"/><path d="m222.013 118.207 6.625-1.375c4.417 11.821 7.177 18.143 7.729 19.243.553.824 4.693 3.024 7.178 4.123 1.104.55.828 1.375.552 1.65-2.485 2.474-4.693.549-7.453 0-3.037-.825-2.209 2.749-4.417 2.199.276-1.65 1.38-4.673.276-6.323-.276-.825-3.865-7.147-10.49-19.517z" fill="#ffcaa7"/><path d="m182.422 91.8744-5.425-11.3783c-.177-2.7213-.536-5.2363-1.258-7.3389-.232-.5713-1.061-1.3014-1.323.666-.081 1.7612-.55 3.5461-1.121 3.776s-1.242-1.0952-2.202-.8417c-.571.2299.334 2.1263 3.283 5.4593l2.264 10.7902z" fill="#ffcaa7"/><path d="m212.65 96.7288-1.192-2.5498c-8.249-1.4744-21.017 4.8268-24.856 2.8525-3.618-2.1371-5.395-7.3399-7.547-13.9804l-4.689 1.0479c-1.661 8.4153 1.487 21.518 6.866 23.73 8.671 3.905 23.607-5.017 31.418-11.1002z" fill="#ffe2b8"/><path d="m216.43 127.479c-11.042 0-19.324 0-24.569 0-1.104 0-.828-1.649-.828-2.474 1.932-9.346 9.11-19.518 9.11-32.9874l7.177-1.0996c6.073 9.621 8.005 21.167 9.11 36.561z" fill="#fff"/><path d="m190.214 129.088.03.003.031.002.031.003.031.002.031.003.031.002.031.003.031.002.031.003.031.002.032.003.031.002.032.003.031.003.032.002.032.003.031.002.032.003.032.002.032.003.032.003.032.002.032.003.033.002.032.003.032.003.033.002.032.003.033.003.033.002.032.003.033.003.033.002.033.003.033.003.033.002.033.003.034.003.033.002.033.003.034.003.033.002.034.003.033.003.034.003.034.002.034.003.034.003.034.003.034.002.034.003.034.003.034.003.034.002.035.003.034.003.035.003.034.003.035.002.035.003.035.003.034.003.035.003.035.003.036.002.035.003.035.003.035.003.035.003.036.003.035.003.036.002.036.003.035.003.036.003.036.003.036.003.036.003.036.003.036.003.036.003.036.002.037.003.036.003.036.003.037.003.036.003.037.003.037.003.037.003.036.003.037.003.037.003.037.003.038.003.037.003.037.003.037.003.038.003.037.003.038.003.037.003.038.003.038.003.037.004.038.003.038.003.038.003.038.003.039.003.038.003.038.003.038.003.039.003.038.003.039.004.038.003.039.003.039.003.039.003.039.003.039.003.039.004.039.003.039.003.039.003.039.003.04.003.039.004.04.003.039.003.04.003.04.003.039.004.04.003.04.003.04.003.04.004.04.003.04.003.041.003.04.004.04.003.041.003.04.003.041.004.04.003.041.003.041.004.041.003.041.003.041.004.041.003.041.003.041.004.041.003.042.003.041.004.042.003.041.003.042.004.041.003.042.003.042.004.042.003.042.004.042.003.042.003.042.004.042.003.042.004.043.003.042.004.042.003.043.003.043.004.042.003.043.004.043.003.043.004.043.003.043.004.043.003.043.004.043.003.043.004.044.003.043.004.043.003.044.004.044.003.043.004.044.003.044.004.044.004.044.003.044.004.044.003.044.004.044.003.044.004.045.004.044.003.045.004.044.003.045.004.044.004.045.003.045.004.045.003.045.004.045.004.045.003.045.004.045.004.045.003.046.004.045.004.046.003.045.004.046.004.046.003.045.004.046.004.046.004.046.003.046.004.046.004.046.004.046.003.047.004.046.004.046.004.047.003.046.004.047.004.047.004.046.003.047.004.047.004.047.004.047.004.047.003.047.004.047.004.048.004.047.004.047.004.048.003.047.004.048.004.048.004.047.004.048.004.048.004.048.003.048.004.048.004.048.004.048.004.049.004.048.004.048.004.049.004.048.004.049.004.049.004.048.003.049.004.049.004.049.004.049.004.049.004.049.004.049.004.049.004.05.004.049.004.05.004.049.004.05.004.049.004.05.004.05.004.05.004.05.004.05.004.05.005.05.004.05.004.05.004.05.004.051.004.05.004.051.004.05.004.051.004.051.004.05.004.051.005.051.004.051.004.051.004.051.004.051.004.052.004.051.005.051.004.052.004.051.004.052.004.051.004.052.005.052.004.051.004.052.004.052.004.052.005.052.004.052.004.053.004.052.004.052.005.053.004.052.004.053.004.052.005.053.004.053.004.052.005.053.004.053.004.053.004.053.005.053.004.054.004.053.005.053.004.053.004.054.005.053.004.054.004.054.005.053.004.054.004.054.005.054.004.054.004.054.005.054.004.054.005.054.004.055.004.054.005.054.004.055.005.054.004.055.004.055.005.054.004.055.005.055.004.055.005.055.004.055.004.055.005.055.004.056.005.055.004.055.005.056.004.055.005.056.004.056.005.055.004.056.005.056.004.056.005.056.004.056.005.056.005.056.004.056.005.057.004.056.005.056.004.057.005.056.004.057.005.057.005.056.004.057.005.057.004.057.005.057.005.057.004.057.005.058.005.057.004.057.005.057.005.058.004.057.005.058.004.058.005.057.005.058.005.058.004.058.005.058.005.058.004.058.005.058.005.058.004.059.005.058.005.058.005.059.004.058.005.059.005.059.005.059.004.058.005.059.005.059.005.059.004.059.005.059.005.059.005.06.005.059.004.059.005.06.005.059.005.06.005.06.004.059.005.06.005.06.005.06.005.06.005.06.005.06.004.06.005.06.005.06.005.061.005.06.005.061.005.06.005.061.005.06.004.061.005.061.005.061.005.061.005.061.005.061.005.061.005.061.005.061.005.061.005.062.005.061.005.062.005.061.005.062.005.062.005.061.005.062.005.062.005.062.005.062.005.062.005.062.005.062.005.062.005.063.005.062.005.063.005.062.005.063.005.062.005.063.005.063.005.063.006.062.005.063.005.063.005.063.005.064.005.063.005.063.005.063.005.064.006.063.005.064.005.063.005.064.005.064.005.063.005.064.006.064.005.064.005.064.005.064.005.023.002c.212-16.369-1.478-28.165-6.549-38.8284l-5.941.0001c-.632 7.1816-2.924 13.3503-5.394 18.9323-.674 1.524-1.36 3.001-2.029 4.441-1.82 3.92-3.515 7.571-4.513 11.167-.012.136-.032.296-.052.459-.012.103-.025.207-.036.308-.032.287-.054.571-.044.825.012.26.056.448.127.567.058.097.14.162.306.175z" stroke="#0202b2" stroke-width=".680089"/><path d="m218.911 118.133c4.969 9.072 9.11 15.394 12.698 19.518l4.969-1.1c-3.312-20.342-12.974-35.461-28.709-45.3576h-2.76c-6.35 21.4416-8.006 36.0116-5.245 43.1586h22.084c-.277-5.223-1.381-10.721-3.037-16.219z" fill="#ffe2b8"/><path d="m140.586 120.947-8.087 42.037-8.006 34.031 2.687 2.379 24.154-68.933z" fill="#b28b67"/><path d="m123.752 194.519c-.754.435-1.3 1.052-1.483 1.258-.364.412-.911 1.029-1.251 1.83.414.366 4.548 4.025 12.609 11.161 1.325-.664 1.665-1.464.838-2.196-.62-.549-1.058-1.304-1.472-1.67l-3.419-7.798c-.206-.183-.206-.183-.388.022l-1.143.458c-.802-.343-1.604-.686-2.018-1.052-.413-.366-.644-.938-1.082-1.692-.414-.366-.803-.344-1.191-.321z" fill="#0202b2"/><path d="m124.465 190.38 6.626 2.928c3.739-8.806 7.429-18.389 11.228-29.344s7.21-21.887 10.049-32.59l-14.47-12.808c-4.247 13.128-7.353 25.799-9.547 37.44-2.377 11.847-3.611 23.236-3.886 34.374z" fill="#e8140f"/><path d="m160.994 86.948 7.671-8.8172c.93-2.5527 1.897-4.5546 2.883-6.281.53-.3124 1.042-.9002.879.7707-.163 1.671-.326 3.342.241 3.5804s1.334-.6433 1.92-.1295c.567.2384-.986 1.7265-4.128 4.1517l-4.617 9.1646z" fill="#b28b67"/><path d="m159.341 130.722c-3.523-3.945-6.399-19.02-7.397-26.064l-5.46 4.051v40.856l19.901 3.875c5.46 9.509-3.522-18.773-7.044-22.718z" fill="#8787e1"/><path d="m159.164 86.5185c.061-1.4467.48-3.5528 1.233-5.1679.377-.8075 1.571-1.4692 2.379-1.0925.47.2313.779.6215.867 1.0925.281-.2867.527-.5774.812-.8991l5.417 3.4601c-7.28 11.1805-13.006 21.7954-23.353 25.7444-3.486 1.336-14.51-.536-18.589-.829l8.34-10.3333c11.306-4.0504 13.032-.1761 22.894-11.9752z" fill="#8787e1"/><path d="m134.564 137.799c11.84 5.624 26.672 13.81 27.127 14.225.189.34.634 9.928 1.333 28.763l3.135.021c2.845-21.279 3.527-32.844 2.238-34.353-1.933-2.265-18.935-15.936-29.946-22.474z" fill="#b28b67"/><path d="m162.011 179.349c-.489.723-.713 1.52-.788 1.786-.15.531-.109 1.403-.069 2.275.53.148 6.121.574 16.701 1.542.638-1.254.333-2.2-.461-2.423s-1.588-.447-2.382-.67l-7.416-4.093c-.264-.074-.264-.074-.339.191l-.448 1.595c-.944.308-1.548.425-2.077.276s-1.059-.298-1.778-.787c-.264-.074-.868.043-.943.308z" fill="#0202b2"/><path d="m162.097 173.929 5.137.011c5.658-15.04 7.215-24.638 5.011-28.985-2.204-4.348-13.521-11.832-33.421-22.304l-5.008 17.804c16.644 7.835 25.268 11.695 25.913 12.449.719.489 1.307 7.537 2.368 21.025z" fill="#e8140f"/><path d="m139.716 89.189c-1.62-1.902-2.712-4.2266-2.536-6.8682.529-7.5373 11.025-5.8819 13.068-2.078s1.796 13.4545-.845 14.1237c-1.057.2818-3.276-.3874-5.566-1.7611l1.445 10.1436h-8.454z" fill="#b28b67"/><path d="m146.895 76.0867c-1.162-.3522-2.818-.4578-3.522-.3874.387-.951.563-2.0428.422-3.0642-.14-1.0215-.563-1.8668-.986-2.7825-.176-.4227-.422-.8453-.739-1.1623s-.74-.5283-1.198-.634-.916-.1057-1.374 0c-.211.0352-.387.1409-.563.1761-.212.0352-.282-.0704-.458-.2113-.352-.317-.881-.4579-1.303-.4931-.494-.0705-1.022 0-1.48.1761s-.916.4226-1.233.8101c-.14.1761-.281.3522-.387.5635-.035.0705-.035.1409-.141.1761-.07.0352-.176.0352-.247.0705-.81.2817-1.479.8805-1.866 1.6906-.212.4579-.317 1.268-.282 2.1837.035.9158.845 3.2756 1.62 4.1561.705.7749 1.691 1.268 2.677 1.5145-.634.7397-1.092 1.6554-1.409 2.6064-.352 1.0214-.563 2.0781-.634 3.1699-.07 1.0214-.07 2.1133.176 3.1347.212.951.705 1.7258 1.515 2.1837.352.2114.775.3874 1.162.5636.388.1408.775.2817 1.198.3874.775.1761 1.69.1409 2.289-.4931.212-.2113.458-.4931.599-.7749.07-.1056.106-.1761.035-.2465-.07-.1057-.211-.2114-.317-.2818-.598-.5283-.986-1.1975-1.056-2.0076-.106-.8101.14-1.9019.915-2.2542.987-.4578 2.079.0705 2.959.5284.388-1.3032 1.127-2.5007 2.36-3.0995 1.339-.6692 2.853-.7396 4.227-1.3384.352-.1409.704-.317.986-.634.106-.1409.247-.2818.282-.4579.07-.2113-.071-.4226-.212-.5635-.669-.9862-2.888-2.853-4.015-3.2052z" fill="#191847"/><path d="m115.275 121.918 6.199 1.127c-7.185 14.3-11.06 21.837-11.553 22.647-1.162 1.832 0 5.178.458 6.939-2.536.634-1.62-3.24-4.825-2.36-2.959.775-5.425 2.712-8.2426.211-.3522-.317-.5988-1.268.5283-1.796 2.8533-1.303 7.0803-3.698 7.7493-4.649.916-1.233 4.156-8.629 9.686-22.119z" fill="#b28b67"/><path d="m128.797 135.478c11.06 1.233 20.183 1.233 26.523 0 .775-.141.352-3.558 0-4.473-5.706-14.441-7.764-26.17-10.757-34.7989-1.057.5283-1.571.3874-4.178 0-6.974 10.3549-10.179 22.1889-11.588 39.2719z" fill="#fff"/><path d="m126.761 137.203c-.387-.352-.563-.88-.493-1.444l.176-1.056c.141-.705.705-1.233 1.374-1.304.106-.528.211-1.056.317-1.585.704-4.402-.493-8.699-.458-12.961-5.671 4.825-10.743 13.173-15.251 25.042l-6.658-1.972c.247-.951.529-1.867.775-2.783-.775-.422-1.655-2.43-1.021-2.782.669-.352 1.374-.599 2.113-.74 6.094-18.385 16.062-31.804 29.94-40.2928h1.902 2.113c-1.162 15.6028 15.111 49.6618 9.44 78.7198-10.461 2.324-25.396-4.931-39.908.88.599-11.658 11.412-25.429 15.639-37.722z" fill="#8787e1"/><path d="m127.186 137.398.062-.215-.173-.142c-.308-.252-.476-.655-.444-1.122l.12-1.052c.086-.571.514-1.001 1.02-1.08l.247-.039.037-.248.235-1.599.001-.013c.244-2.262.003-4.463-.316-6.612-.07-.474-.144-.944-.217-1.411-.262-1.668-.519-3.304-.59-4.949l-.032-.743-.541.511c-5.431 5.126-10.057 13.688-13.934 25.637l-6.123-1.475c.092-.429.188-.844.284-1.259.094-.408.188-.815.278-1.235l.057-.262-.242-.116c-.132-.064-.304-.213-.485-.439-.177-.221-.34-.49-.464-.759-.125-.272-.198-.524-.212-.713-.007-.093.002-.155.014-.189.005-.017.01-.025.012-.028.002-.001.003-.002.003-.003.62-.367 1.278-.636 1.975-.806l.194-.048.053-.192c5.111-18.577 14.308-32.399 27.609-41.5379l1.804-.093 1.748-.0902c-.02 3.9077 1.034 8.8241 2.559 14.4161.843 3.095 1.84 6.423 2.885 9.915.9 3.007 1.836 6.135 2.743 9.342 3.915 13.838 7.341 29.312 5.335 43.828-2.479.65-5.257.773-8.264.674-1.969-.065-4.016-.224-6.135-.388-1.22-.095-2.463-.191-3.729-.273-6.741-.433-14.003-.431-21.029 2.662.145-5.618 2.573-11.861 5.454-18.262.653-1.449 1.328-2.906 2.004-4.364 2.392-5.158 4.791-10.334 6.197-15.228z" stroke="#ffe5e4" stroke-width=".680089"/><path d="m139.088 95.7129-1.831 5.6001 3.663 4.191-3.311 3.276 7.995 13.701-9.792-13.666 3.276-3.311-3.276-3.698z" fill="#000" fill-opacity=".1"/><path d="m143.237 127.765c-.775 0-1.409-.634-1.409-1.409s.634-1.409 1.409-1.409 1.409.634 1.409 1.409-.599 1.409-1.409 1.409zm1.761 8.101c-.775 0-1.409-.634-1.409-1.409s.634-1.409 1.409-1.409 1.409.634 1.409 1.409-.599 1.409-1.409 1.409zm.352 8.101c-.774 0-1.409-.634-1.409-1.409s.635-1.409 1.409-1.409c.775 0 1.409.634 1.409 1.409s-.598 1.409-1.409 1.409z" fill="#000" fill-opacity=".4"/><path d="m151.185 84.8721c.271.541.677.9919.902 1.533.18.4959 1.127 2.074 1.172 2.6151.091.7665-1.713.9017-2.525.8567" fill="#b28b67"/><path d="m151.24 83.5186c-.27-.0451-.496 0-.676 0-.226.0451-.406.0901-.586.1352-.406.0902-.812.2255-1.353.3157.09-.2706.316-.4509.496-.5862.225-.1353.451-.2705.721-.3156.271-.0451.542-.0902.812 0 .226.0451.451.2254.586.4509z" fill="#191847"/><path d="m151.233 91.8141c-.225.0902-.496.0902-.721 0-.226-.0451-.451-.1804-.677-.2705-.406-.2255-.811-.496-1.127-.6313l.406-.2705c0 .0451.045.2705.18.4058.09.1804.226.3607.361.496.27.3607.586.6763.902.9919-.226-.0451-.451-.1353-.677-.2705-.225-.1353-.405-.2255-.586-.4058-.18-.1353-.361-.3156-.541-.5411-.135-.2254-.315-.4509-.315-.8566l.045-.4058.405.1352c.271.0902.451.2255.677.3607.18.1353.36.2706.541.4509.361.4058.676.7214 1.127.8116z" fill="#191847"/><path d="m150.426 85.5017c.274 0 .496-.2221.496-.496s-.222-.4959-.496-.4959-.496.222-.496.4959.222.496.496.496z" fill="#000"/></svg>