<svg fill="none" height="200" viewBox="0 0 129 200" width="129" xmlns="http://www.w3.org/2000/svg"><path d="m67.6478 80.2148-24.6131 62.2762-16.4868 52.665h-6.5635l25.2381-114.9412z" fill="#cb7a43"/><path d="m72.574 80.2149c.2344 21.8781 4.0631 51.3361 4.6882 52.7431.3906.938 14.4553 12.502 42.1158 34.693l-4.454 4.767c-32.6611-19.066-49.773-29.849-51.2576-32.428-2.266-3.828-9.689-38.912-15.5492-59.8533h24.4568z" fill="#cb7a43"/><path d="m120.005 166.008c1.503.575 2.515 1.052 3.087 1.491.672.558 1.585 1.525 2.741 2.902-.678.772-6.746 8.006-18.145 21.651-2.354-.982-3.029-2.151-2.193-3.464.896-1.364 1.603-2.467 2.18-3.359l3.985-13.85c.079-.27.368-.411.639-.332l2.103.683c1.448-.705 2.506-1.389 3.064-2.061.439-.572.915-1.584 1.311-2.936.108-.601.687-.883 1.228-.725z" fill="#443425"/><path d="m29.2079 192.655c.5469 1.484.8595 2.656.8595 3.36 0 .937-.1563 2.188-.4689 3.985-1.0157 0-10.4703 0-28.28543 0-.703232-2.423-.31255-3.751 1.25019-3.907 1.56273-.156 2.89105-.391 3.90683-.547l13.12701-5.86c.2344-.079.5469 0 .625.234l.8595 2.032c1.4846.703 2.6567 1.015 3.5943 1.015.7814 0 1.7972-.312 3.0474-.937.6251-.157 1.2502.078 1.4846.625z" fill="#393837"/><path d="m48.009 189.881-30.7613-4.738 27.6079-104.9833 27.7889 1.2417z" fill="#2790cb"/><path d="m69.7336 80.6266-19.6128 108.6084-30.1063-3.269 22.7276-105.3394z" stroke="#fff" stroke-width=".823476"/><path d="m111.164 161.287-21.351 23.153c-20.365-24.279-32.1872-40.049-35.385-47.385-3.2011-7.258-5.5525-26.758-7.0608-58.3441l31.2246 1.3697c.3457 27.7804.727 42.2674 1.2152 43.6184.4883 1.351 10.8896 13.852 31.357 37.588z" fill="#2d9cdb"/><path d="m111.865 159.852-19.7768 23.429c-10.5532-11.524-18.9198-21.053-25.0925-28.598-6.242-7.629-10.2178-13.202-11.9525-16.749l-.0008-.001c-1.7279-3.495-3.4006-10.061-5.0027-19.732-1.5842-9.564-3.093-22.1198-4.5258-37.6525h30.4141c.7715 13.6785 1.4091 24.1005 1.9221 31.2825.2589 3.625.4863 6.428.6835 8.409.0985.99.1899 1.779.2743 2.365.0815.564.1625.989.254 1.211.0525.128.15.284.2666.453.122.176.2836.391.4829.645.399.508.9596 1.181 1.6803 2.019 1.442 1.676 3.5352 4.021 6.2807 7.035 5.4484 5.982 13.4736 14.607 24.0926 25.884z" stroke="#fff" stroke-width=".823476"/><path d="m63.9067 19.1887c2.3441-2.7348 3.9069-6.0166 3.5943-9.7672-.7813-10.7049-15.7055-8.36076-18.5965-2.96924-2.8911 5.39154-2.5785 19.14384 1.172 20.08144 1.4846.3907 4.6882-.547 7.97-2.5004l-2.0316 14.4555h12.0331z" fill="#cb7a43"/><g fill="#7a380c"><path d="m48.5156 10.6719c.3907-.1563.7814-.2344 1.1721-.2344s.8595.0781 1.2502.2344.7813.4688 1.0157.8595.3126.7814.2344 1.2502c-.2344-.3125-.4688-.6251-.7032-.8595s-.5469-.3907-.8595-.5469c-.6251-.2345-1.3283-.3907-2.1097-.7033z"/><path d="m47.7344 22.3138c.5469-.2344.7813-.3907 1.0939-.6251.1563-.0781.3907-.2344.6251-.3907.2344-.0781.5469-.1563.7813-.0781-.3125.3907-.5469.7032-.9376 1.0158-.2344.1562-.4688.3125-.7814.3125-.3125 0-.5469-.0781-.7813-.2344z"/><path d="m48.6719 12.7813c.2344-.3125.5469-.3907.7813-.3907.1563 0 .3126 0 .3907.1563.1563.0781.3126.2344.3126.3907-.1563.0781-.3126.1563-.3907.2344-.1563.0781-.2344.0781-.3907.0781-.1563-.0781-.4688-.1562-.7032-.4688z"/><path d="m54.216 7.23364c1.6409.93766 2.8129 2.65669 4.2194 4.84456.3125-.1563.7032-.2344 1.0939-.2344 1.6409 0 2.9692 1.3283 2.9692 2.9692 0 .8595-.3126 1.6409-.9377 2.1879.7033 1.0158 1.4846 2.0316 2.3441 3.0474 3.3599-2.0316 7.1105-7.8138 3.985-13.43977-2.7348-11.25186-19.6123-4.29758-22.5815-6.172889-.547 4.141309 1.5627 7.423099 8.9076 6.797999z"/></g><path d="m38.9784 14.7341c0-.9377-1.6409-2.4223-2.1879-3.1255-1.3283-1.5628-3.0473-3.0474-5.0788-3.51623-1.5628-.39069-4.7664-.70324-4.7664 1.56276 0 1.17207 1.5628 2.34417 2.266 3.35997.7032 1.0157 1.2502 2.9692 2.1097 3.8287s4.1412 1.0158 5.0789.2344" fill="#cb7a43"/><path d="m63.6702 28.0963c-5.157-.547-10.6266 3.4381-15.7055.7032-1.4064-.7813-2.5785-2.0316-3.438-3.438-1.6409-2.6567-2.5004-5.7822-4.0631-8.5952-1.172-2.0316-2.3441-2.7348-4.6882-2.5004-2.1878.2344-4.3756.5469-6.5635.7814-.9376.0781 4.8445 21.8786 5.5477 23.9883.7814 2.266 1.8753 4.532 3.7506 6.0166 2.266 1.7972 5.3133 2.4223 8.1262 2.1098 3.1255-.2345 6.6416-1.1721 9.2983-2.7349 3.6724-2.1878 5.4695-5.6259 7.8136-9.064" fill="#0202b2"/><path d="m43.7422 10.7488c.7814-.7032 2.266-1.25016 3.3599-1.17202 1.2502.07814.8595 1.79712.7814 2.65672-.0782 1.2502-.2345 2.5004-.2345 3.8287 0 .547.0001 1.094.0782 1.6409 0 .2344.2344.7033.0781.9377-.5469 1.1721-2.2659.4688-2.891-.0782-.3907-.3125-.3907-.3907-.4688-.8595-.4689-2.0316-.8596-3.9069-.9377-5.9385" fill="#67676b"/><path d="m44.597 18.1721-20.8624 2.5004-1.1721-9.6891 21.3313-.2344z" fill="#67676b"/><path d="m24.5171 21.3759-1.0939-11.2519-9.0638.6251.2344 2.3442 2.2659.3125c-.9376.6251-1.5627 1.6409-1.4845 2.8911.1562 1.2502.9376 2.1879 2.0315 2.6567l-2.3441.6251.2344 2.3442z" fill="#67676b"/><path d="m42.9573 10.749-4.3757.0782c-2.5785 2.6567-6.2509 4.8445-10.4703 6.3291-3.9068 1.3284-7.8918 1.7972-11.3298 1.4847.2344.1562.4688.3125.7032.3907l-2.3441.625.2344 2.3442 9.142-.6251-.0781-.8595 17.1901-2.0316c.5469.8595 1.4064-3.0474 1.7971-2.5004" fill="#8d8d93"/><path d="m23.6588 11.1396c-.6251.8596.0781 3.8288.3126 4.9227.3125 1.4065.6251 2.813 1.172 4.2976-.5469-1.4065-.4688-3.438-.3907-4.9227.0782-1.0939.2344-3.6724 1.2502-4.2976-.8595.3126-1.719.547-2.4222 0z" fill="#8d8d93"/><path d="m37.2577 16.6093c.7032-1.094 3.2036-1.7191 3.1254-3.8288-.9376.0782-1.7971.9377-2.7348.2344-.6251-.4688-1.4064-1.719-.7032-1.9534 1.3283-.3907 4.2194.0781 6.0165-.1563-1.172-2.81297-8.6731-3.67248-10.7047-1.87531-2.6566 2.26601-2.6566 7.11051-1.4846 10.07981 1.0939-.0782 2.1878-1.0939 3.2817-1.4846 1.3284-.3907 2.5004-.3907 3.2037-1.0158z" fill="#cb7a43"/><path d="m76.0857 89.3473h-39.7029c9.0015-29.812 14.0648-46.2479 14.2255-57.351 0-.5245.9645-1.5736 1.3663-1.3988 3.1345.9617 5.9474-3.4095 9.5641-5.158 9.4033 16.4359 12.6181 36.7185 14.547 63.9078z" fill="#ffe2b8"/><path d="m58.6688 25.3608c-11.0954.0782-14.0646 26.5669-21.3313-8.7514l-6.9542 1.6409c-4.4538 41.1005 6.4072 39.4596 19.456 42.7414-.8595 18.3624-3.2817 33.8338 10.0797 33.8338h20.5499c3.2817-21.9568-5.3133-52.4306-13.2832-67.8238-.3126-.6251-.9377-1.719-2.5004-1.719-1.4065.0781-3.3599.0781-6.0165.0781z" fill="#6464de"/><path d="m38.5024 13.7183c-2.2659-2.1878-3.438-6.17288-6.7978-7.11053-3.3599-.93766-6.5635.23441-5.9384 4.14133 1.5627.4688 1.719-1.56278 3.1254-1.64092-.0781.46883.0782 1.32832.7033 1.48462 1.0939.2344.5469-.93765 1.172-1.09393 1.0158-.23441 2.266 2.18783 3.0473.62513.7033.0781 1.3284 1.172 2.0316 1.6409.7814.6251 1.7971 1.0158 2.6566 1.9534z" fill="#cb7a43"/><path d="m28.5829 192.655c.5469 1.484.8595 2.656.8595 3.36 0 .937-.1563 2.188-.4689 3.985-1.0157 0-10.4703 0-28.285432 0-.7032298-2.423-.312545-3.751 1.250192-3.907 1.56273-.156 2.89105-.391 3.90683-.547l13.12701-5.86c.2344-.079.5469 0 .625.234l.8595 2.032c1.4846.703 2.6567 1.015 3.5943 1.015.7814 0 1.7972-.312 3.0474-.937.6251-.157 1.2502.078 1.4846.625z" fill="#393837"/></svg>