<svg fill="none" height="48" viewBox="0 0 48 48" width="48" xmlns="http://www.w3.org/2000/svg"><path d="m39.0257 7.89648 1.9227 1.88924h-3.214z" fill="#212121"/><path d="m39.024 7.89611v38.92959h-16.5006s0-31.5444 0-32.2314l11.5074-11.62164z" fill="#e3e3fd"/><path d="m22.5217 14.5957h-13.71701v32.2314h13.71701z" fill="#c1c1fb"/><path d="m34.0291 2.94531h-13.0857l-12.13871 11.65029h13.71701z" fill="#6a6af4"/><path d="m20.1672 3.68945h13.1431l-.3157.31488h-13.143z" fill="#c1c1fb"/><path d="m18.0475 5.75h13.2292l-.3157.31487h-13.2579z" fill="#c1c1fb"/><path d="m15.8912 7.81055h13.344l-.3157.31487h-13.3726z" fill="#c1c1fb"/><path d="m13.7428 9.87305h13.4587l-.3156.31485h-13.4875z" fill="#c1c1fb"/><path d="m11.5865 11.9336h13.5736l-.3444.3149h-13.5735z" fill="#c1c1fb"/><path d="m9.43811 13.9941h13.68829l-.3443.3149h-13.68835z" fill="#c1c1fb"/><path d="m27.0623 3.66406h1.5783v-3.66395939h-1.5783z" fill="#6a6af4"/><path d="m28.6328 3.66073.7461-.68699h.7461v-2.9483494h-1.4922z" fill="#c1c1fb"/><path d="m22.5147 47.9785h18.165v-2.8338h-18.165z" fill="#212121"/><path d="m22.5184 45.166h-14.80746v2.8339h14.80746z" fill="#8b8bf6"/><path d="m32.7109 11.7031h2.4393v-3.20594c0-.65837-.5453-1.20224-1.2053-1.20224s-1.2053.54387-1.2053 1.20224v3.20594z" fill="#212121"/><path d="m35.1172 22.5821h2.1809v-5.8967c0-.6011-.4878-1.0877-1.0904-1.0877-.6027 0-1.0905.4866-1.0905 1.0877z" fill="#212121"/><path d="m31.8203 22.5821h2.181v-5.8967c0-.6011-.4879-1.0877-1.0905-1.0877s-1.0905.4866-1.0905 1.0877z" fill="#212121"/><path d="m28.5781 22.5821h2.181v-5.8967c0-.6011-.4879-1.0877-1.0905-1.0877s-1.0905.4866-1.0905 1.0877z" fill="#212121"/><path d="m25.25 22.5821h2.1809v-5.8967c0-.6011-.4878-1.0877-1.0904-1.0877-.6027 0-1.0905.4866-1.0905 1.0877z" fill="#212121"/><path d="m35.1172 31.8848h2.1809v-5.8967c0-.6011-.4878-1.0877-1.0904-1.0877-.6027 0-1.0905.4866-1.0905 1.0877z" fill="#212121"/><path d="m31.8203 31.8848h2.181v-5.8967c0-.6011-.4879-1.0877-1.0905-1.0877s-1.0905.4866-1.0905 1.0877z" fill="#212121"/><path d="m28.5781 31.8848h2.181v-5.8967c0-.6011-.4879-1.0877-1.0905-1.0877s-1.0905.4866-1.0905 1.0877z" fill="#212121"/><path d="m25.25 31.8848h2.1809v-5.8967c0-.6011-.4878-1.0877-1.0904-1.0877-.6027 0-1.0905.4866-1.0905 1.0877z" fill="#212121"/><path d="m35.1172 40.7286h2.1809v-5.8967c0-.6011-.4878-1.0878-1.0904-1.0878-.6027 0-1.0905.4867-1.0905 1.0878z" fill="#212121"/><path d="m31.8203 40.7286h2.181v-5.8967c0-.6011-.4879-1.0878-1.0905-1.0878s-1.0905.4867-1.0905 1.0878z" fill="#212121"/><path d="m28.5781 40.7286h2.181v-5.8967c0-.6011-.4879-1.0878-1.0905-1.0878s-1.0905.4867-1.0905 1.0878z" fill="#212121"/><path d="m25.25 40.7286h2.1809v-5.8967c0-.6011-.4878-1.0878-1.0904-1.0878-.6027 0-1.0905.4867-1.0905 1.0878z" fill="#212121"/><path d="m40.9425 9.78662-6.9159-6.84131-.3157.3435 6.5716 6.49781z" fill="#212121"/><g fill="#8b8bf6"><path d="m18.4034 22.5957h1.6357v-4.3796h-1.6357z"/><path d="m16.0127 22.5957h1.6357v-4.3796h-1.6357z"/><path d="m13.6299 22.5957h1.6357v-4.3796h-1.6357z"/><path d="m11.2393 22.5957h1.6357v-4.3796h-1.6357z"/><path d="m18.4034 29.248h1.6357v-4.3795h-1.6357z"/><path d="m16.0127 29.248h1.6357v-4.3795h-1.6357z"/><path d="m13.6299 29.248h1.6357v-4.3795h-1.6357z"/><path d="m11.2393 29.248h1.6357v-4.3795h-1.6357z"/><path d="m18.4034 35.9316h1.6357v-4.3795h-1.6357z"/><path d="m16.0127 35.9316h1.6357v-4.3795h-1.6357z"/><path d="m13.6299 35.9316h1.6357v-4.3795h-1.6357z"/><path d="m11.2393 35.9316h1.6357v-4.3795h-1.6357z"/><path d="m18.4034 41.9902h1.6357v-4.3795h-1.6357z"/><path d="m16.0127 41.9902h1.6357v-4.3795h-1.6357z"/><path d="m13.6299 41.9902h1.6357v-4.3795h-1.6357z"/><path d="m11.2393 41.9902h1.6357v-4.3795h-1.6357z"/></g></svg>