<svg fill="none" height="161" viewBox="0 0 274 161" width="274" xmlns="http://www.w3.org/2000/svg"><g opacity=".7"><g fill="#e8140f"><ellipse cx="1.38373" cy="1.38381" rx="1.38373" ry="1.38381" transform="matrix(-.292388 -.9563 .95631 -.292355 113.062 4.73438)"/><ellipse cx="1.28747" cy="1.28755" opacity=".91" rx="1.28747" ry="1.28755" transform="matrix(.0697608 -.997564 .997564 .0697522 130.266 2.56836)"/><ellipse cx="1.22736" cy="1.22733" opacity=".81" rx="1.22736" ry="1.22733" transform="matrix(-.809034 .587761 -.587809 -.809 181.227 77.3086)"/><ellipse cx=".758089" cy=".758043" opacity=".89" rx=".758089" ry=".758043" transform="matrix(-.990269 .139165 -.139182 -.990267 126.93 33.4277)"/><ellipse cx=".926504" cy=".926546" opacity=".74" rx=".926504" ry=".926546" transform="matrix(.374627 -.927176 .927192 .374586 164.438 46.7285)"/><ellipse cx="1.34766" cy="1.34768" opacity=".7" rx="1.34766" ry="1.34768" transform="matrix(-.615686 .787992 -.78803 -.615637 106.367 34.3086)"/><ellipse cx=".721984" cy=".72195" opacity=".97" rx=".721984" ry=".72195" transform="matrix(.933588 .358349 -.358387 .933573 129.312 67.957)"/><ellipse cx="1.35974" cy="1.35967" opacity=".89" rx="1.35974" ry="1.35967" transform="matrix(-.951062 -.308999 .309035 -.951051 191.578 52.6387)"/></g><ellipse cx="1.35974" cy="1.35967" fill="#c3c3ff" opacity=".89" rx="1.35974" ry="1.35967" transform="matrix(-.951062 -.308999 .309035 -.951051 160.539 19.9219)"/><path d="m.421148-.421148h2.703832" opacity=".83" stroke="#fff" stroke-linecap="round" stroke-linejoin="round" stroke-width=".842295" transform="matrix(.809035 .587761 -.58781 .808999 121.359 9.1875)"/><path d="m.421148-.421148h2.751662" opacity=".89" stroke="#fff" stroke-linecap="round" stroke-linejoin="round" stroke-width=".842295" transform="matrix(-.529943 .848033 -.848063 -.529895 138.305 5.81641)"/><path d="m.421148-.421148h2.703902" opacity=".93" stroke="#fff" stroke-linecap="round" stroke-linejoin="round" stroke-width=".842295" transform="matrix(-.997564 -.0697527 .0697603 -.997564 122.016 46.4941)"/><path d="m.421148-.421148h3.230932" opacity=".87" stroke="#fff" stroke-linecap="round" stroke-linejoin="round" stroke-width=".842295" transform="matrix(-.743165 .669108 -.669154 -.743124 190.328 38.5469)"/><path d="m.421148-.421148h4.141402" opacity=".79" stroke="#fff" stroke-linecap="round" stroke-linejoin="round" stroke-width=".842295" transform="matrix(-.719362 -.694636 .694681 -.719318 129.039 20.3066)"/><path d="m.421148-.421148h4.141402" opacity=".79" stroke="#fff" stroke-linecap="round" stroke-linejoin="round" stroke-width=".842295" transform="matrix(-.719362 -.694636 .694681 -.719318 124.945 79.3867)"/><path d="m.421148-.421148h3.662252" opacity=".7" stroke="#fff" stroke-linecap="round" stroke-linejoin="round" stroke-width=".842295" transform="matrix(-.829055 -.559168 .559218 -.82902 120.398 67.1836)"/><path d="m176.562 16.3324c.168-.3665.686-.3755.867-.0151l.324.6447c.159.3168-.067.6912-.421.6974l-.626.0109c-.355.0062-.594-.3601-.446-.6823z" fill="#e8140f" opacity=".85"/><path d="m103.538 51.3037c-.288.2817-.775.1047-.815-.2967l-.154-1.5431c-.035-.3529.311-.6213.644-.5001l1.264.46c.333.1212.425.549.171.7967z" fill="#e8140f" opacity=".92"/><path d="m96.5059 19.2189c-.2215-.3371.0451-.7809.4468-.7436l.9698.0901c.3531.0328.5507.4232.368.7271l-.4349.7239c-.1827.304-.6202.3128-.8149.0164z" fill="#e8140f" opacity=".82"/><path d="m131.182 42.5795c-.34-.2179-.277-.7317.105-.861l1.299-.4392c.336-.1137.675.1626.632.5145l-.145 1.1795c-.043.352-.439.538-.738.3465z" fill="#e8140f" opacity=".91"/><path d="m191.128 17.8012c.319.2467.212.753-.18.8485l-2.243.5463c-.344.084-.658-.2208-.584-.5677l.416-1.9574c.073-.3468.484-.4976.765-.2808z" fill="#e8140f" opacity=".98"/><path d="m178.259 67.036c.059.3992-.37.6886-.719.4851l-1.308-.7644c-.306-.179-.32-.6163-.026-.8146l1.089-.7344c.294-.1983.694-.0214.746.3295z" fill="#e8140f" opacity=".84"/><path d="m134.048 83.0145c.059.3992-.37.6886-.719.4851l-1.308-.7644c-.306-.1789-.32-.6163-.026-.8145l1.089-.7345c.294-.1983.694-.0214.746.3295z" fill="#e8140f" opacity=".84"/><path d="m183.369 35.5301c.058.3992-.371.6887-.719.4851l-1.308-.7644c-.306-.1789-.32-.6162-.026-.8145l1.088-.7345c.294-.1983.695-.0214.746.3295z" fill="#8787e1" opacity=".84"/><path d="m147.719 14.5945s-2.003.9533-.247 2.7484" opacity=".97" stroke="#8787e1" stroke-width=".962623"/><path d="m158.114 74.8927s-1.848 2.4049 1.406 3.5021" opacity=".77" stroke="#8787e1" stroke-width=".962623"/><path d="m183.354 22.4041s2.012-2.5253-1.432-3.7536" opacity=".92" stroke="#8787e1" stroke-width=".962623"/><path d="m143.885 47.3514s2.012-2.5254-1.432-3.7536" opacity=".92" stroke="#8787e1" stroke-width=".962623"/><path d="m103.659 59.6803s-2.321.9593-.442 3.0933" opacity=".79" stroke="#8787e1" stroke-width=".962623"/><path d="m124.35 51.7605s.847 2.155 2.845.4568" opacity=".7" stroke="#8787e1" stroke-width=".962623"/></g><path d="m25.3558 64.843c1.9989-.3649 4.1425-.441 6.2569-.3459 7.0963.4134 14.1986 2.5015 20.1626 6.1579 5.3488 3.2875 9.4507 8.2129 15.1546 11.1204 9.2362 4.9172 21.39 1.7858 30.8872 6.307 3.9379 1.9026 7.0929 4.9933 8.8779 8.7323 1.851 3.9263 1.992 8.7953-.799 12.1083-1.464 1.777-3.609 2.998-5.804 3.947-14.452 6.968-28.9853 6.436-44.7704 4.722-7.5087-.836-15.032-1.586-22.0761-4.017-12.155-4.268-18.4481-12.825-19.6916-24.3116-.8192-7.7148.4875-20.5297 9.5564-23.745.6376-.332 1.4342-.4609 2.2455-.6754z" fill="#feebde"/><path d="m35.5534 15.0898h2.7591v11.254h-2.7591z" fill="#1174ba"/><path d="m35.9343 15.457h2.0188v5.1581h-2.0188z" fill="#c1e3f2"/><path d="m36.9449 23.361c-.4274 0-.7739-.3449-.7739-.7703 0-.4255.3465-.7704.7739-.7704s.7739.3449.7739.7704c0 .4254-.3465.7703-.7739.7703z" fill="#c1e3f2"/><path d="m36.9412 23.1941c-.3344 0-.6056-.27-.6056-.6029 0-.333.2712-.6029.6056-.6029.3345 0 .6057.2699.6057.6029 0 .3329-.2712.6029-.6057.6029z" fill="#c1e3f2"/><path d="m38.8191 15.0898h2.759v11.254h-2.759z" fill="#1174ba"/><path d="m39.153 15.457h2.0189v5.1581h-2.0189z" fill="#c1e3f2"/><path d="m40.1948 23.361c-.4274 0-.7738-.3449-.7738-.7703 0-.4255.3464-.7704.7738-.7704s.774.3449.774.7704c0 .4254-.3466.7703-.774.7703z" fill="#c1e3f2"/><path d="m40.2068 23.1941c-.3345 0-.6056-.27-.6056-.6029 0-.333.2711-.6029.6056-.6029s.6057.2699.6057.6029c0 .3329-.2712.6029-.6057.6029z" fill="#c1e3f2"/><path d="m42.0534 15.0898h2.7591v11.254h-2.7591z" fill="#1e9ed1"/><path d="m42.4187 15.457h2.0188v5.1581h-2.0188z" fill="#6bb8dc"/><path d="m43.4292 23.361c-.4274 0-.7738-.3449-.7738-.7703 0-.4255.3464-.7704.7738-.7704s.7739.3449.7739.7704c0 .4254-.3465.7703-.7739.7703z" fill="#06508c"/><path d="m43.4256 23.1941c-.3345 0-.6057-.27-.6057-.6029 0-.333.2712-.6029.6057-.6029s.6056.2699.6056.6029c0 .3329-.2711.6029-.6056.6029z" fill="#1e9ed1"/><path d="m3.39713 27.3145h2.75912v11.2539h-2.75912z" fill="#1174ba"/><path d="m3.7624 27.7168h2.01885v5.1581h-2.01885z" fill="#c1e3f2"/><path d="m4.07355 30.8652h1.37957v.1675h-1.37957z" fill="#cb7a43"/><path d="m4.07355 30.2949h1.37957v.1675h-1.37957z" fill="#cb7a43"/><path d="m4.07355 29.6934h1.37957v.1674h-1.37957z" fill="#cb7a43"/><path d="m4.07355 29.0898h1.37957v.1675h-1.37957z" fill="#cb7a43"/><path d="m4.773 35.6208c-.42741 0-.77391-.3449-.77391-.7704 0-.4254.3465-.7703.77391-.7703s.77388.3449.77388.7703c0 .4255-.34647.7704-.77388.7704z" fill="#c1e3f2"/><path d="m4.76937 35.4538c-.3345 0-.60568-.2699-.60568-.6029 0-.3329.27118-.6029.60568-.6029.33449 0 .60563.27.60563.6029 0 .333-.27114.6029-.60563.6029z" fill="#c1e3f2"/><path d="m6.61593 27.3145h2.75907v11.2539h-2.75907z" fill="#1174ba"/><path d="m6.99679 27.7168h2.01883v5.1581h-2.01883z" fill="#c1e3f2"/><path d="m7.3236 30.8652h1.37952v.1675h-1.37952z" fill="#cb7a43"/><path d="m7.3236 30.2949h1.37952v.1675h-1.37952z" fill="#cb7a43"/><path d="m7.3236 29.6934h1.37952v.1674h-1.37952z" fill="#cb7a43"/><path d="m7.3236 29.0898h1.37952v.1675h-1.37952z" fill="#cb7a43"/><path d="m8.00738 35.6208c-.42741 0-.77391-.3449-.77391-.7704 0-.4254.3465-.7703.77391-.7703s.77387.3449.77387.7703c0 .4255-.34646.7704-.77387.7704z" fill="#c1e3f2"/><path d="m8.00375 35.4538c-.33449 0-.60567-.2699-.60567-.6029 0-.3329.27118-.6029.60567-.6029s.60563.27.60563.6029c0 .333-.27114.6029-.60563.6029z" fill="#c1e3f2"/><path d="m9.88155 27.3145h2.75905v11.2539h-2.75905z" fill="#1174ba"/><path d="m10.2468 27.7168h2.0188v5.1581h-2.0188z" fill="#c1e3f2"/><path d="m10.558 30.8652h1.3795v.1675h-1.3795z" fill="#cb7a43"/><path d="m10.558 30.2949h1.3795v.1675h-1.3795z" fill="#cb7a43"/><path d="m10.558 29.6934h1.3795v.1674h-1.3795z" fill="#cb7a43"/><path d="m10.558 29.0898h1.3795v.1675h-1.3795z" fill="#cb7a43"/><path d="m11.2573 35.6208c-.4274 0-.7738-.3449-.7738-.7704 0-.4254.3464-.7703.7738-.7703.4275 0 .7739.3449.7739.7703 0 .4255-.3464.7704-.7739.7704z" fill="#c1e3f2"/><path d="m11.2693 35.4538c-.3345 0-.6056-.2699-.6056-.6029 0-.3329.2711-.6029.6056-.6029s.6057.27.6057.6029c0 .333-.2712.6029-.6057.6029z" fill="#c1e3f2"/><path d="m47.8949 14.8959 2.8863 10.8814-2.6677.7012-2.8863-10.8815z" fill="#1174ba"/><path d="m47.6308 15.3876 1.3223 4.9874-1.952.5129-1.3224-4.9874z" fill="#c1e3f2"/><path d="m47.7591 22.7069c-.1091-.4114.1375-.8329.5508-.9414.4132-.1086.8366.1368.9457.5482s-.1375.8329-.5508.9415c-.4132.1086-.8367-.1369-.9457-.5483z" fill="#c1e3f2"/><path d="m47.9397 22.6589c-.0855-.3219.1074-.6518.4308-.737.3234-.0851.6548.1069.7403.4288s-.1073.6519-.4307.737-.6549-.1069-.7404-.4288z" fill="#c1e3f2"/><path d="m58.2649 27.75h-41.6555v-1.3733h41.6555z" fill="#1174ba"/><path d="m41.7962 39.875h-41.655575v-1.3733h41.655575z" fill="#1174ba"/><path d="m21.8561 30.7637h2.0189v7.7706h-2.0189z" fill="#06508c"/><path d="m21.8561 31.9023h2.0189v5.3256h-2.0189z" fill="#06508c"/><path d="m21.8561 30.7637h2.0189v6.2299h-2.0189z" fill="#06508c"/><path d="m21.8583 30.7637h.6729v7.7706h-.6729z" fill="#06508c"/><path d="m20.1434 30.7637h1.716v7.7706h-1.716z" fill="#1174ba"/><path d="m20.1434 31h1.716v3.8853h-1.716z" fill="#1174ba"/><path d="m20.1434 30.7637h1.716v3.8853h-1.716z" fill="#1174ba"/><path d="m20.1468 30.7637h.572v7.7706h-.572z" fill="#06508c"/><path d="m14.1963 31.2344h1.8506v7.2682h-1.8506z" fill="#06508c"/><path d="m14.1963 31.7695h1.8506v6.1964h-1.8506z" fill="#06508c"/><path d="m14.3993 36.291h1.4132v.268h-1.4132z" fill="#06508c"/><path d="m14.3993 35.7891h1.4132v.2679h-1.4132z" fill="#06508c"/><path d="m14.3993 35.3203h1.4132v.268h-1.4132z" fill="#06508c"/><path d="m15.4412 31.2344h.6057v7.2682h-.6057z" fill="#06508c"/><path d="m17.5137 30.0273h2.6582v8.474h-2.6582z" fill="#06508c"/><path d="m17.5137 31.2656h2.6582v5.9955h-2.6582z" fill="#06508c"/><path d="m17.5137 31.5352h2.6582v5.493h-2.6582z" fill="#06508c"/><path d="m19.2634 30.0273h.9085v8.474h-.9085z" fill="#06508c"/><path d="m15.7996 30.7637h1.716v7.7706h-1.716z" fill="#1174ba"/><path d="m15.7996 31h1.716v3.8853h-1.716z" fill="#1174ba"/><path d="m15.7996 30.7637h1.716v3.8853h-1.716z" fill="#1174ba"/><path d="m16.9436 30.7637h.572v7.7706h-.572z" fill="#06508c"/><path d="m27.0481 35.7539h6.1238v2.8135h-6.1238z" fill="#88c6e3"/><path d="m26.6107 34.6484h6.9987v1.0718h-6.9987z" fill="#1174ba"/><path clip-rule="evenodd" d="m28.962 35.9902h2.288v.2345c0 .134-.1009.2345-.2355.2345h-1.817c-.1346 0-.2355-.1005-.2355-.2345z" fill="#1e9ed1" fill-rule="evenodd"/><path d="m20.4715 16.2305h1.716v10.0482h-1.716z" fill="#1174ba"/><path d="m21.1173 17.6035h.4374v8.0051h-.4374z" fill="#1174ba"/><path d="m22.1897 18.0723h2.0525v8.206h-2.0525z" fill="#88c6e3"/><path clip-rule="evenodd" d="m27.8125 25.9444-2.6582-7.7706-.9085.335 2.6246 7.7706z" fill="#1174ba" fill-rule="evenodd"/><path d="m24.7285 19.2179c-.0414-.1228.0251-.2557.1484-.2969s.2568.025.2982.1477c.0414.1228-.0251.2557-.1484.2969s-.2568-.025-.2982-.1477z" fill="#c1e3f2"/><path d="m25.473 19.8225 1.9801 5.8748-.4785.1598-1.9801-5.8748z" fill="#1174ba"/><path d="m26.8188 20.0109 2.0015 5.9383-.9251.309-2.0015-5.9383z" fill="#c1e3f2"/><path d="m27.1597 19.2604 2.3012 6.8275-.5423.1811-2.3012-6.8275z" fill="#1174ba"/><path clip-rule="evenodd" d="m28.7491 21.1549 1.5478 4.6557-.7066.2345-1.5478-4.6557c-.0673-.201.0336-.4019.2355-.4689.2019-.0335.4038.067.4711.2344z" fill="#c1e3f2" fill-rule="evenodd"/><path clip-rule="evenodd" d="m28.8849 21.0864 1.6151 4.8566-.1346.0335-1.6151-4.8566c-.0673-.201-.2692-.3015-.4711-.2345s-.3028.268-.2355.4689l1.6151 4.8567-.1346.0335-1.6151-4.8567c-.1009-.2679.0673-.5694.3365-.6364.2692-.0669.5384.067.6393.335z" fill="#1174ba" fill-rule="evenodd"/><path d="m34.5057 78.1736c3.6922 0 6.6853-.2527 6.6853-.5643 0-.3117-2.9931-.5644-6.6853-.5644-3.6923 0-6.6854.2527-6.6854.5644 0 .3116 2.9931.5643 6.6854.5643z" fill="#f45f0c"/><path d="m36.5151 50.3916c-.2605-.3039-.6078-.5644-.9551-.7814-.0868-.0434-.217 0-.2605.0868-.2604.5209-.5209.9984-.8248 1.4759-.0868.1737-.2604.3473-.3907.4776l-.0434.0434c-.0434-.0434-.0434-.0868-.0434-.1303-.2605-.7379.0434-1.5193-.1302-2.2573-.0868-.3907-.3473-.7814-.6512-1.0853s-.738-.4341-.9116-.8682c-.0868-.1736-.2605-.1302-.3473 0-.4341.6512-1.0419 1.3023-1.1721 2.0837-.0868.6946.2604 1.3023.6945 1.8233.2171.2604.3907.5209.5644.8248.0868.1736.2171.4341.0868.6077-.1736.1737-.3907-.1302-.5209-.2604-.2605-.2605-.4775-.5644-.6946-.8683-.3907-.4775-.955-1.2589-1.6496-1.0852-.3039.0434-.4341.3907-.4341.6511-.0434.4341.1736.9117.3907 1.3024.4775.8248 1.4759 1.0852 2.1271 1.7798.1303.1736.5644.6946.3039.9116-.0868.0868-.2605.0434-.3473.0434-.217-.0434-.4775-.1302-.6946-.2604-.738-.5644-.9984-1.5194-1.7364-2.0403-.3473-.2171-.8682-.3907-1.2589-.2605-.3473.0868-.4776.3907-.521.738 0 .3907.1736.7814.3473 1.1286.2171.3907.5209.6946.9116.9117.7814.4341 1.7365.4775 2.2574 1.3023.0868.0868.1303.2605.1303.3907-.0435.0868-.1737.1302-.2605.1736-.3907.0868-.9117-.0434-1.2589-.2604-.4342-.2171-.738-.6078-1.0419-.9551-.3473-.3473-.6946-.6511-1.1721-.7814-.3473-.0868-.7814-.0868-.9985.2171-.217.3039-.1736.6946-.0868.9984.0868.4341.3473.8248.6512 1.1721.3038.3473.8248.5644 1.2589.738.4775.1736.955.2605 1.3892.4341.1302.0434.217.0868.3473.0868.1302 0 .3038 0 .4341.0434.1302.0435.0434.1737 0 .2605-.0868.2171-.3907.1736-.5644.2171-.1736 0-.3473.0434-.5209.0434-.2171 0-.4341-.0434-.6078-.0869-.3907-.0434-.8248-.1302-1.2155 0-.3907.1303-.6512.4776-.738.8683-.1302.8248.7814 1.3457 1.476 1.4325.4341.0868.8248-.0434 1.2155-.2605.4775-.2604.8683-.6511 1.3892-.7379.0434.217-.0434.3907-.2171.5643-.2604.217-.6511.3473-.955.4775-.6512.2171-1.5628.4341-1.9101 1.0853-.0434.0868-.0434.1736.0434.2604.3039.3039.6512.521 1.0853.5644.3473.0434.6946-.1303.9984-.3039.521-.3473.9551-.8682 1.5194-1.0853-.0868.1303-.217.2605-.3907.3907-.3039.2171-.4341.521-.5209.8683-.1303.5209.0434 1.0852.6946 1.0852.3473 0 .6946-.1736.955-.3473.3039-.1736.5644-.4775.7814-.7814.2605-.3907.3907-.8248.4775-1.3023.521.9985 1.6497 2.0403 2.6916 1.1721.9116-.738-.5644-1.3023-1.1722-1.9101.1303.0435.2171.0869.3473.1737.3039.1736.6078.3473.9117.4775.6077.2605 1.2589.217 1.6062-.3907.3039-.5209-.3473-.7814-.738-.9116-.3039-.0868-.9116-.2171-1.1287-.5209.7814.0868 1.6496.1736 2.3442-.2605.3039-.2171.6946-.6078.738-.9985.0434-.3038-.3038-.4341-.5643-.4341-.6512-.0868-1.3458.2171-1.997.2171-.1736 0-.3038-.0434-.4775-.0434-.0434 0-.1302-.0434-.1736-.0434s-.0434-.0434-.0434-.0434 0 0 0-.0434c.0434-.0869.1302-.1303.217-.1737.1737-.1302.3473-.1736.5644-.217.3907-.0435.7814 0 1.1721-.0435.4341-.0868.7814-.3472 1.0853-.6511.2604-.3039.5209-.6512.5643-1.0419s-.217-.6945-.5643-.8248c-1.0419-.3907-1.6063.6512-2.3443 1.1287-.1736.1302-.4341.2171-.6511.2605-.0868.0434-.3473.1302-.4341.0434-.0434-.0434.1302-.3039.1736-.3907.1303-.2605.3473-.3907.5644-.5209.6077-.3473 1.3457-.4776 1.8232-.9985.3039-.3473.5644-.9984.2605-1.4325-.3473-.4775-1.0419-.3473-1.476-.0869-.5209.3473-.7814 1.0419-1.3891 1.2155-.0435-.3038.0434-.5643.2604-.8248.3039-.3907.6512-.6945.9985-1.0418.3473-.3039.6512-.6512.8248-1.0853-.0868-.6945-.217-1.1287-.4775-1.5193z" fill="#f45f0c"/><path d="m51.9271 64.6309c.0868-.3907.0868-.8248.0434-1.2155 0-.0868-.1303-.1737-.2171-.1737-.5643.0869-1.1287.2171-1.693.2605-.1737 0-.4341.0434-.6078 0 0 0-.0434 0-.0434-.0434s.0434-.0868.0434-.1302c.4341-.6512 1.2155-.9117 1.693-1.5194.2605-.3039.4342-.7814.4776-1.1721.0434-.4341-.0868-.8248.1302-1.2589.0868-.1302-.0868-.3039-.217-.2605-.7815.0434-1.6931-.0434-2.3877.3473-.6077.3473-.8682.9985-.9984 1.693-.0869.3039-.1737.6512-.3039.9117-.0868.1736-.2171.4341-.4341.4341-.2171-.0434-.1303-.3907-.1303-.5644.0435-.3907.1737-.738.2605-1.0852.1736-.6078.3907-1.5194-.1736-1.9969-.2605-.2171-.5644-.0868-.7815.0434-.3472.2604-.6077.738-.7379 1.1287-.3473.9116.0868 1.8232-.0435 2.7782-.0434.2171-.217.8682-.5209.8248-.1302 0-.217-.1736-.2605-.2604-.1302-.2171-.217-.4775-.217-.6946 0-.9116.6078-1.7364.5209-2.648-.0434-.3907-.217-.9117-.5643-1.1721-.2605-.2171-.6078-.1303-.8682.0434-.3039.217-.521.6077-.6512.955-.1737.3907-.2171.8682-.1303 1.3023.1303.8682.6946 1.6496.3907 2.5613-.0434.1302-.0868.2604-.217.3038-.0868.0434-.2171-.0434-.3039-.0868-.3039-.2604-.5209-.738-.5643-1.1287-.0869-.4775.0434-.955.0868-1.3891.0868-.4775.0434-.955-.1302-1.4326-.1303-.3472-.3908-.6511-.7815-.6511-.3473.0434-.6511.3039-.8682.5643-.2605.3473-.4341.7814-.5209 1.2155-.0868.4775.0434.9985.217 1.4326.1737.4775.3907.9116.521 1.3457.0434.1302.0868.2171.1302.3039.0868.1302.1737.217.2171.3473.0434.0868-.0869.1302-.1737.1302-.217.0434-.3907-.1737-.5209-.3473-.1303-.1302-.2605-.2605-.3907-.3907-.1302-.1736-.2171-.3473-.3473-.5209-.2171-.3473-.3907-.738-.738-.9985-.3473-.217-.7814-.217-1.1287-.0434-.738.3907-.5644 1.4326-.2171 2.0403.2171.3907.521.6512.9551.8248.5209.2171 1.0419.2605 1.4326.6512-.1303.1736-.3473.217-.5644.1736-.3473-.0868-.6512-.3038-.955-.4775-.5644-.3473-1.3024-.955-2.0404-.8248-.0868 0-.1736.0868-.1736.1737-.0434.4341 0 .8248.217 1.172.1737.3039.521.4776.8683.5644.5643.1736 1.2589.217 1.8233.5209-.1737.0434-.3039 0-.521-.0434-.3473-.0868-.6946 0-.9984.1302-.4776.2171-.8249.738-.4342 1.2155.2171.2605.5644.4341.8683.521.3473.1302.738.1736 1.0853.1302.4775-.0434.9116-.2171 1.3023-.4341-.4775 1.0418-.6078 2.5612.738 2.8651 1.1287.2604.6512-1.2589.7814-2.0837.0434.1302.0434.2604.0868.3472.0868.3473.1302.6946.2171.9985.1736.6077.6077 1.1287 1.3023 1.0418.6078-.0868.3907-.7379.2605-1.1286-.1302-.3039-.3907-.8248-.3039-1.2155.4341.6511.8682 1.4325 1.6496 1.693.3473.1302.9117.1736 1.2155-.0434.2605-.1737.1303-.5209 0-.738-.3472-.5643-.9984-.9116-1.3891-1.4325-.0868-.1303-.1737-.2605-.2605-.4342-.0434-.0434-.0434-.1302-.0868-.1736 0-.0434 0-.0434 0-.0868h.0434c.0868 0 .1736.0434.2605.0434.217.0434.3473.1736.5209.3039.2605.3038.4775.6077.7814.8682.3473.3039.738.4341 1.1721.4341.3907.0434.8249 0 1.1721-.2171.3473-.217.3907-.5643.3039-.955-.3039-1.0419-1.5194-.8682-2.3442-1.1287-.2171-.0868-.4341-.217-.6078-.3473-.0868-.0434-.3038-.217-.3038-.3038 0-.0869.3472-.0869.3907-.0869.2604-.0434.5209 0 .7814.1303.6511.2604 1.2155.7814 1.9101.8248.4775.0434 1.1287-.1737 1.2589-.6946.1737-.5643-.3907-1.0418-.8682-1.2155-.6078-.1736-1.3024.0434-1.8233-.3473.2171-.217.4775-.3038.8248-.3038.4775 0 .9551.0868 1.4326.1736.4341.0434.955.1302 1.3891 0 .3907-.0434.6946-.4341.7815-.8682z" fill="#f45f0c"/><path d="m24.5285 53.4724c-.3907-.1302-.8248-.1736-1.2155-.1736-.0868 0-.217.0868-.217.217.0434.5644.0868 1.1287.0434 1.6931 0 .1736-.0434.4341-.0868.5643l-.0435.0434c-.0434 0-.0868-.0434-.0868-.0868-.5643-.521-.738-1.3458-1.3023-1.8667-.3039-.3039-.6946-.5209-1.0853-.6077-.4341-.0868-.8682 0-1.2155-.2605-.1303-.0868-.3039.0434-.3039.1737-.0434.7813-.2605 1.6496.0434 2.3875.2605.6512.9116.9551 1.5194 1.2155.3039.1303.6078.2605.8682.4341.1737.0869.4341.2605.3907.4776-.0434.217-.3907.0868-.6077.0434-.3473-.0869-.6946-.2605-1.0419-.3907-.5644-.2171-1.476-.5644-1.9969-.0869-.2171.2171-.1737.5644-.0435.7814.2171.3907.6512.6946.9985.9117.8683.4775 1.8233.1736 2.7349.4341.2171.0434.8249.3038.738.6077-.0434.0868-.217.1737-.3038.2171-.2171.0868-.4776.1302-.738.1302-.9117-.0868-1.6497-.8248-2.5613-.8682-.3907-.0434-.9117.1302-1.2155.3907-.2605.2604-.2171.6077-.0869.8682.1737.3473.5644.6077.8683.7814.3907.217.8248.3039 1.2589.3039.8682 0 1.7365-.4776 2.6047-.0434.1302.0434.2605.1302.3039.2604.0434.0868-.0868.2171-.1303.2605-.3038.2604-.8248.4341-1.2155.4341-.4775.0434-.955-.1737-1.3891-.3039-.4776-.1302-.9551-.1736-1.4326-.0434-.3473.0868-.6946.3039-.738.6946-.0434.3473.217.6945.4341.9116.3039.3039.738.5209 1.1287.6946.4341.1302.9984.0868 1.4326-.0435.4775-.0868.9116-.2604 1.4325-.3472.1303-.0435.2171-.0434.3473-.0869.1303-.0434.2605-.1302.3907-.1736.1303-.0434.1303.1302.1303.2171.0434.217-.2605.3906-.3907.4775-.1303.0868-.2605.217-.4341.3473-.1737.0868-.3907.1736-.5644.2604-.3907.1737-.7814.3039-1.0419.6078-.2604.3038-.3039.7379-.1736 1.1286.3039.7814 1.3457.738 1.9969.4776.3907-.1737.6946-.4341.9116-.8248.2605-.4776.3908-.9985.8249-1.3458.1302.1737.1736.3473.0868.6078-.1302.3473-.3907.6077-.5644.9116-.4341.5209-1.1287 1.1721-1.0853 1.9101 0 .0868.0435.1736.1737.1736.3907.0868.8248.0868 1.2155-.0868.3039-.1737.521-.4775.6512-.7814.2605-.5643.3907-1.2155.738-1.7364 0 .1736-.0434.3038-.1302.5209-.1303.3473-.0869.6946 0 .9984.1736.521.6077.9117 1.1286.6078.3039-.1736.4776-.4775.6512-.7814.1737-.3473.2605-.6946.2605-1.0853 0-.4775-.0868-.9116-.2605-1.3457.9551.6078 2.4745.9116 2.9086-.3907.3907-1.0853-1.1721-.8248-1.9969-1.0418.1302 0 .2604-.0435.3907-.0435.3472-.0434.6945-.0434 1.0418-.0868.6512-.0868 1.2156-.4775 1.1722-1.1721 0-.6077-.6946-.4775-1.0853-.3907-.3039.0869-.8683.3039-1.259.1303.738-.3473 1.5194-.6946 1.8667-1.4326.1737-.3473.2605-.8682.0868-1.2155-.1302-.3038-.4775-.217-.6945-.0868-.6078.3039-.9985.8682-1.6063 1.2155-.1302.0868-.3038.1302-.4341.2171-.0434 0-.1302.0434-.1736.0434s-.0434 0-.0869 0v-.0434c0-.0869.0435-.1737.0869-.2605.0868-.1736.217-.3473.3907-.4775.3039-.2171.6946-.3907.955-.6512.3473-.3039.521-.6945.6078-1.1287.0868-.3907.0868-.8248-.0868-1.172-.1737-.3907-.521-.4776-.9117-.4341-1.0853.1736-1.0418 1.3891-1.4325 2.2139-.0869.217-.2605.3907-.3908.5643-.0434.0869-.2604.3039-.3472.2605-.0869 0-.0434-.3473-.0434-.3907 0-.2605.0868-.5209.217-.7814.3473-.6077.9116-1.0853 1.0419-1.8232.0868-.4776 0-1.1287-.521-1.3458-.5209-.217-1.0853.2605-1.3023.6946-.2605.5643-.1302 1.3023-.5644 1.7364-.217-.217-.2604-.5209-.217-.8682.0434-.4775.217-.955.3473-1.3891.1302-.4341.217-.9116.1736-1.3892 0-.3472-.3039-.6945-.738-.8682z" fill="#fca306"/><path d="m44.1562 59.0743c-.0434-.3907-.2171-.7814-.4341-1.1721-.0434-.0868-.1737-.1302-.2605-.0868-.4775.3038-.955.6077-1.476.8682-.1736.0868-.3907.1736-.5643.217h-.0435c0-.0434 0-.0868 0-.1302.1737-.738.8249-1.3023.9985-2.0403.1303-.3907.0869-.8682 0-1.2589-.0868-.4341-.3907-.738-.3473-1.2155 0-.1736-.1736-.217-.3038-.1736-.6946.3472-1.5629.5643-2.0838 1.2155-.4341.5643-.3907 1.2589-.3473 1.91.0434.3039.0868.6512.0434.9551 0 .1736-.0434.5209-.217.5643-.2171.0434-.3039-.3039-.3473-.4775-.0869-.3473-.1303-.738-.1737-1.1287-.0868-.6077-.217-1.5628-.8682-1.7798-.3039-.0868-.5644.0868-.738.3473-.2605.3907-.3039.8682-.3039 1.3023 0 .955.738 1.693.9551 2.6046.0434.2171.1302.8682-.1737.955-.0868.0435-.2604-.0868-.3473-.1736-.1736-.1302-.3473-.3473-.4341-.5643-.3473-.8682-.0868-1.8233-.4775-2.6481-.1736-.3907-.5644-.738-.9551-.8682-.3472-.0868-.6511.0868-.8248.3907-.217.3473-.2604.7814-.2604 1.1287 0 .4341.1302.8682.3472 1.2589.4342.7814 1.259 1.3023 1.3024 2.2573 0 .1303 0 .3039-.0868.3907-.0869.0868-.2171.0434-.3039 0-.3907-.1302-.738-.5209-.9551-.8248-.2604-.3907-.3038-.9116-.4341-1.3457-.1302-.4775-.3038-.9116-.6511-1.2589-.2605-.2605-.6078-.4775-.9551-.3039-.3039.1737-.4775.5209-.5643.8248-.1303.4341-.1303.9116-.0435 1.3457.0869.4776.4342.9117.738 1.259.3039.3472.6946.6945.9985 1.0418.0868.0868.1302.1736.2605.2605.1302.0868.2604.1302.3473.2604.0868.0869-.0434.1737-.1303.2171-.1736.1302-.4341-.0434-.6077-.1302-.1737-.0869-.3473-.1303-.4776-.2171-.1736-.0868-.3472-.2605-.5209-.3907-.3039-.2605-.6512-.5209-1.0419-.6512-.3907-.0868-.8248.0869-1.0853.3907-.5209.6512 0 1.5194.521 1.9535.3473.2605.738.3907 1.1721.3907.5643 0 1.0419-.1302 1.5628.0868-.0868.2171-.2171.3039-.4775.3473-.3473.0434-.738 0-1.0419-.0868-.6512-.1302-1.5628-.3907-2.214 0-.0868.0434-.1302.1302-.0868.2171.1302.3906.3039.7813.6512.9984.3038.217.6511.217.9984.217.6078-.0434 1.259-.2604 1.8667-.1736-.1302.0868-.3039.0868-.5209.1302-.3473.0434-.6512.2605-.8682.521-.3473.3907-.4776.9984.0434 1.3023.3038.1736.6511.1736.9984.1736.3907 0 .738-.1302 1.0853-.3039.3907-.217.738-.5209 1.0419-.9116-.0434 1.1287.3907 2.6047 1.7364 2.3876 1.1722-.1736.1737-1.4325-.0434-2.2139.0869.0868.1303.217.2171.3038.1736.3039.3473.6078.5643.8683.3907.5209.9985.8248 1.6063.4775.5209-.3039.0868-.8248-.1737-1.1287-.217-.2605-.6946-.6512-.738-1.0419.6512.4776 1.3458.9985 2.1706.9551.3907-.0434.9116-.1737 1.1287-.521.1736-.2604-.0434-.5209-.2605-.6945-.5643-.3907-1.2589-.4775-1.8233-.8248-.1302-.0868-.2604-.1737-.3907-.3039-.0434-.0434-.0868-.0868-.1302-.1302l-.0434-.0434h.0434c.0868-.0435.1737-.0434.2605-.0434.217 0 .3907.0434.5643.0868.3473.1736.6946.3907 1.0419.5209.4341.1736.8682.1302 1.2589-.0434.3907-.1302.7814-.3039.9985-.6512.2605-.3473.1736-.6945-.0868-.9984-.6946-.8682-1.7365-.2605-2.6047-.1737-.2171 0-.4776-.0434-.6946-.0868-.0868-.0434-.3473-.0868-.3907-.1736-.0434-.0434.2605-.2171.3039-.2605.2605-.1302.4775-.1736.7814-.1736.6946 0 1.3891.3038 2.0837.0434.4341-.1737.9985-.5644.9117-1.0853-.0435-.5643-.738-.8248-1.259-.7814-.6077.0434-1.2155.521-1.8232.3473.0868-.3039.3472-.4775.6511-.6077.4341-.1737.9117-.2605 1.3892-.3907.4341-.0868.9116-.2605 1.3023-.521.521-.1736.6078-.6511.5644-1.0852z" fill="#f9aa38"/><path d="m41.1563 55.1679c-.2171.9984-.4341 2.0403-.738 3.0387-.3039 1.0419-.738 1.9969-1.3023 2.8651-1.2155 1.8667-2.7784 3.4729-3.9939 5.2961-.0434.0868-.0434.1303 0 .2171-.2604.4341-.3907.955-.4775 1.4759-.1737.8683-.2171 1.7365-.2605 2.6481-.0434 1.0852-.0434 2.1271 0 3.2124.0434 1.2589.1303 2.5178.0868 3.7767v.217c0 .2605.3907.2605.3907 0 .0869-1.2155 0-2.4744-.0434-3.6899-.0434-1.0852-.0868-2.1705-.0434-3.2992.0434-.8682.0869-1.693.2171-2.5178.1302-.7814.3473-1.6062.9116-2.1705.0868-.0868.0868-.1736.0434-.2605 1.1721-1.6062 2.5179-3.0387 3.6032-4.6883.5643-.8682.9985-1.8233 1.3023-2.8651.3039-1.0419.5209-2.0837.738-3.1256.0434-.3038-.3473-.3907-.4341-.1302z" fill="#f9aa38"/><path d="m34.559 77.9557c-.2171-1.9535-1.1287-3.7333-2.0838-5.4263-.9116-1.693-1.9101-3.4295-2.2139-5.3829-.0435-.2605-.4342-.1303-.3908.0868.5644 3.8635 3.8203 6.772 4.2544 10.679.0434.2604.4775.2604.4341.0434z" fill="#f77b0b"/><path d="m40.5061 68.7115c-1.7365.738-3.4295 1.9101-4.6016 3.4295-.6512.8248-.9985 1.7364-1.259 2.7348-.0868-1.0418-.2604-2.0403-.4775-3.0387-.4341-2.3442-.8248-4.6883-1.0419-7.0759-.0868-.9551-.1736-1.9101-.217-2.8217 0-.2605-.4341-.2605-.3907 0 .1302 2.648.4341 5.2527.8248 7.8573.2604 1.7798.738 3.5163.8682 5.2961-.1736-.955-.3907-1.9101-.6946-2.8217-.4341-1.3457-.9984-2.6046-1.7364-3.7767 0-.0434 0-.0868-.0434-.1737-.0434-.0434-.0869-.1302-.1737-.1736-.1736-.2605-.3907-.5643-.5643-.8248-.0869-.1302-.2171-.0868-.3039 0-.3039-.2605-.6512-.4341-.9985-.6512-.8248-.4341-1.8667-.6945-2.2574-1.6496-.0868-.2604-.4341-.0434-.3473.2171.3907.955 1.3458 1.3023 2.214 1.693.738.3907 1.3892.8248 1.9535 1.4326.8248 1.2155 1.4326 2.6046 1.8667 3.9937.5209 1.693.8682 3.4729.8682 5.2527v.0434c-.0434.1303.0869.2171.1737.2171.0434.1736.3907.1736.3907-.0868.1302-1.9101.3473-3.907 1.6062-5.4698 1.1287-1.4325 2.7783-2.5612 4.428-3.2558.3473-.0868.1736-.4341-.0868-.3473z" fill="#f45f0c"/><path d="m28.391 55.1243c-.3907-.1736-.7814-.2605-1.1721-.3039-.0868 0-.2171.0868-.2171.1737-.0434.5643-.0434 1.1286-.0868 1.693-.0434.1736-.0434.4341-.1302.5643l-.0434.0434c-.0434-.0434-.0869-.0434-.0869-.0868-.5209-.5643-.6077-1.3891-1.0852-1.9969-.2605-.3039-.6512-.5643-1.0419-.6945-.3907-.1303-.8248-.0869-1.2155-.3907-.1303-.0869-.3039 0-.3039.1736-.1303.7814-.3907 1.6062-.1737 2.3876.2171.6945.8248 1.0418 1.3892 1.3457.3039.1302.5643.3039.8248.5209.1302.0869.3907.3039.3473.521-.0868.217-.4341.0434-.6077 0-.3473-.1303-.6946-.3039-.9985-.4776-.5644-.3038-1.3892-.6945-1.9535-.2604-.2605.1736-.2171.5209-.1303.7814.1737.3907.5644.738.9117.9984.8248.5644 1.8232.3473 2.6915.6946.217.0868.7814.3907.6946.6946-.0434.0868-.2171.1736-.3039.1736-.2171.0868-.521.0868-.738.0434-.9117-.1736-1.5628-.955-2.4745-1.1287-.3907-.0868-.9116.0434-1.2589.3039-.2605.2171-.2605.5643-.1736.8682.1302.3473.4775.6512.7814.8682.3473.2605.7814.3907 1.2155.4341.8682.0435 1.7799-.3038 2.5613.2171.0868.0868.2604.1736.2604.3039.0435.0868-.0868.217-.1736.2604-.3039.2605-.8682.3473-1.2155.3039-.4776-.0434-.9117-.2605-1.3458-.4341-.4775-.1736-.9116-.2605-1.3891-.2171-.3473.0435-.7381.2605-.7815.6512-.0434.3473.1303.6946.3473.955.3039.3473.6512.6078 1.0853.7814.4341.1737.9551.1737 1.4326.1303.4775-.0435.955-.1737 1.4326-.2171.1302 0 .217-.0434.3473-.0868.1302-.0434.2604-.1303.3907-.1303.1302-.0434.0868.1303.0868.2171 0 .2171-.2605.3473-.4341.4341-.1737.0868-.3039.2171-.4776.3039-.1736.0868-.3906.1302-.6077.217-.3907.1303-.8248.2605-1.1287.521-.3039.2604-.3907.7379-.3039 1.0852.2171.8248 1.2589.8682 1.9101.6512.4341-.1302.738-.3907.9985-.738.3039-.4341.4775-.955.955-1.2589.1303.1736.1303.3907.0434.6078-.1302.3038-.4341.5643-.6511.8247-.4776.4776-1.2155 1.0853-1.259 1.8233 0 .0868.0434.1736.1303.217.3907.1303.8248.1737 1.2155.0435.3473-.1303.5643-.4341.738-.6946.3039-.5209.4775-1.1721.9116-1.6496 0 .1736-.0868.3039-.1736.4775-.1737.3039-.1737.6512-.0868.9984.1302.521.5209.9551 1.0852.6946.3039-.1302.521-.4341.738-.6946.2171-.3038.3039-.6945.3473-1.0418.0434-.4775 0-.9116-.1302-1.3891.9116.6945 2.3442 1.172 2.952-.0869.4775-1.0418-1.0853-.9116-1.8667-1.2155h.3907c.3473 0 .6946.0434 1.0419 0 .6511-.0434 1.2589-.3472 1.3023-1.0418.0434-.6078-.6512-.5644-1.0419-.4775-.3473.0434-.9116.217-1.2589.0434.738-.2605 1.5628-.5644 1.9969-1.2589.1737-.3039.3473-.8248.2171-1.2155-.0869-.3039-.4775-.2605-.6946-.1737-.6512.2171-1.0853.7814-1.7365 1.0419-.1302.0434-.3039.1302-.4775.1736-.0434 0-.1302.0434-.1736.0434s-.0434 0-.0869 0v-.0434c.0435-.0868.0869-.1736.1303-.2604.0868-.1737.2604-.3039.4341-.4341.3473-.2171.6946-.3473 1.0419-.5644.3473-.2604.5643-.6511.6945-1.0418.0869-.3907.1737-.8248.0435-1.1721-.1303-.3907-.4776-.5209-.8683-.5209-1.0852.0868-1.1721 1.3023-1.6496 2.0403-.1303.217-.3039.3906-.4775.5209-.0869.0434-.2605.2604-.3907.217-.0435 0-.0434-.3473-.0434-.3907.0434-.2604.1302-.5209.3038-.7379.3907-.5644 1.0419-.9985 1.2156-1.6931.1302-.4775.0868-1.1286-.3908-1.3891-.4775-.3039-1.0852.1302-1.3457.5643-.3039.521-.2605 1.2589-.738 1.6931-.1736-.2605-.1736-.521-.1302-.8683.0868-.4775.3038-.9116.4775-1.3891.1736-.4341.3039-.9116.3039-1.3457 0-.5644-.2605-.9551-.6946-1.1287z" fill="#f77b0b"/><path d="m34.5057 78.1737c-3.69 0-6.6854-.2605-6.6854-.5643l2.431 9.8542s1.4326.6077 4.3412.6077c2.9085 0 4.3411-.6077 4.3411-.6077l2.2574-9.8542c0 .3038-2.9954.5643-6.6853.5643z" fill="#f9aa38"/><path d="m52.3957 46.875 7.4291 26.1089 5.4372 19.2451h3.9568l-5.7603-45.354z" fill="#1e9ed1"/><path d="m50.4063 46.875c-.1615 13.4582-.7537 20.8063-.9421 22.0176-.1884 1.2112-2.9071 9.0169-8.2097 23.3364h4.0914c6.7292-13.7542 10.4976-21.533 11.2782-23.3364s3.2031-9.1516 6.8368-22.0176z" fill="#6bb8dc"/><path d="m40.9055 95.9433.2154-4.3066h4.3067c2.0456 1.4266 4.7104 2.6109 7.9943 3.4991v.8344h-7.8059l-2.6648-.4037v.4037h-2.0457z" fill="#06508c"/><path d="m64.7024 95.9433.2153-4.3066h4.3067c2.0457 1.4266 4.7105 2.6109 7.9944 3.4991v.8344h-7.8059l-2.6648-.4037v.4037h-2.0457z" fill="#06508c"/><path d="m65.6324 19.8478c-.6129-1.3151-.8687-2.8106-.3621-4.2343 1.4576-4.1488 7.1126-1.5752 7.6641.8681.5515 2.4434-1.0813 7.8284-2.6677 7.8075-.6397-.0098-1.7768-.7441-2.8652-1.8559l-.771 5.9033-4.7467-1.3161z" fill="#cb7a43"/><path d="m69.1163 17.1779c-.5233 2.5922-.3757 3.9739.4024 4.1896 1.1673.3237 2.3615-.1552 2.8802-.0114.3632.1007.1559.546-.171.8185-.2867.2277-1.3514.2398-1.4737.6807-.1222.4409.7494.3195.6775.5789-.1223.4409-.2156 1.281-.9678 1.0724-.7781-.2158-2.8778-1.1052-2.9504-2.3544-.0321-.7909.2366-2.3644.7989-4.6945-.0519-.0143-.1038-.0287-.1297-.0359-.6485-.1798-1.337.1879-1.524.8623-.0935.3372-.0429.6585.1258.9566-.3932.31-.7936.6459-1.2718.9602-1.0999-1.1709-1.653-3.8102.2697-5.7071.6652-.9887 1.8422-1.3048 2.8738-1.2981.8717-.1214 1.6829.0756 2.2998.4701 1.2941.4705 2.3722 1.2164 2.6446 1.5433-.3524 1.2709-.6865 1.5693-2.7803.9609-.5979.1414-1.1164.5004-1.704 1.0079z" fill="#49220a"/><path d="m72.6421 18.3787c.0349.6801.7786 1.2215.9129 1.8453.1271.6497-.8396.9124-1.3337 1.0826-.0115-.0591-.0159-.1441-.0274-.2031" fill="#cb7a43"/><path d="m70.6498 17.7988c.0619-.1225.2016-.2234.3269-.2725.1254-.049.2766-.0909.4135-.0808.1369.01.281-.0059.4294.0632.0778.0215.1484.069.1859.1353.0635.0735.0678.1585.0534.2103-.075-.1325-.1931-.1094-.2968-.1381-.111-.0029-.2219-.0057-.3401.0174-.1109-.0028-.229.0203-.3659.0103-.1441.0159-.255.013-.4063.0549z" fill="#06508c"/><path d="m71.6918 18.6736c-.1289-.0357-.2045-.1692-.1687-.2981.0357-.129.1692-.2045.2981-.1687.129.0357.2045.1692.1688.2981-.0358.1289-.1693.2045-.2982.1687z" fill="#06508c"/><path d="m71.2575 37.2676 6.2459-3.1842c2.8212.0001 4.1841-.1806 4.0442-.5825-.2006-.5863-1.016-.3655-1.215-.7559-.199-.3903.6406-1.3027 1.4514-2.1114.818-.8346.2258-.915-.1805-.8601-1.324.443-2.7342 1.1971-4.2495 2.2295l-7.9164 1.8551zm7.4143 5.7987c1.5558-.5742 2.9475-.8587 4.1492-.8607 2.3182.0004 3.3037-.2292 4.708-1.2643.772-.568 1.6345-1.8652 1.2192-2.4831-.2768-.4119-2.8093.5618-3.7156.506-.9063-.0557.44-1.8891-.0585-1.8038-.5966-.1654-1.3196.5279-2.2064 2.0138l-3.4691.8257z" fill="#cb7a43"/><path d="m66.3611 32.0824c2.4195.643 5.7537 1.0088 9.7745-.1947l.5145 3.3828c-3.0077 1.6799-6.8672 2.7047-9.7435 1.7954-2.261-.7107-2.6586-3.8097-.5455-4.9835z" fill="#ea931f"/><path d="m68.2717 37.7787c2.3621 1.3533 6.8765 1.795 13.4651 1.3035.6226 3.4965.7116 5.8954.2483 7.1635-5.9097 1.2663-10.65 1.2368-14.3289.3006-.4932 2.1816-1.3279 4.1847-2.7277 5.8077-2.8873 3.3612-12.5294-3.1669-16.3031-3.4591-.2169-7.881 4.9347-9.6369 6.2293-14.3057 1.4096-5.0838 7.6871-11.8065 8.2837-11.6411l5.4989 1.5247c-.7748 4.0029-.4383 8.7329-.3656 13.3059z" fill="#f9aa38"/><path d="m153.819 146.681c-1.622-1.371-2.598-2.827-3.148-4.256-1.618-4.793.819-9.518 7.476-13.404 5.99-3.485 16.409-6.054 21.347-9.796 8.503-6.05-3.569-14.423 3.878-20.6665 3.156-2.5878 9.479-4.5938 17.878-5.644 8.829-1.0862 20.572-.9731 29.63 1.0606 4.846 1.0687 8.596 2.5747 11.703 4.1032 22.218 10.0957 26.293 19.9237 27.968 30.5507.746 5.054 1.706 10.121-1.582 14.792-5.854 8.056-24.262 11.956-51.631 12.306-18.388.225-49.917-1.21-61.054-7.495-1.04-.446-1.646-.992-2.465-1.551z" fill="#ddf2f9"/><path d="m202.923 117.211c4.854 0 8.79-.328 8.79-.733 0-.404-3.936-.732-8.79-.732-4.855 0-8.79.328-8.79.732 0 .405 3.935.733 8.79.733z" fill="#ea6206"/><path d="m219.894 64.9688c.081 3.6209-.611 6.8757-1.71 9.7643l-2.197-1.0985 1.709 2.2784c-1.424 3.2548-3.377 5.94-5.249 8.0556l-.692-2.6852v3.4175c-2.971 3.1327-5.575 4.7601-5.575 4.7601 2.726-16.8028 13.714-24.4922 13.714-24.4922z" fill="#1174ba"/><path d="m207.482 86.002s-7.284 18.43-4.069 42.882" stroke="#1174ba" stroke-miterlimit="10" stroke-width=".611042"/><path d="m202.721 121.562s2.238-31.6526-12.127-44.7124" stroke="#6bb8dc" stroke-miterlimit="10" stroke-width=".611042"/><path d="m168.82 72.0081s25.841-5.5738 29.259 16.152c0 0-13.144-14.1991-29.259-16.152z" fill="#1e9ed1"/><path d="m188.028 80.5929-.651 2.8072c1.017.651 2.116 1.3019 3.215 1.8715l.529-.651v.9358c2.197 1.1392 4.517 2.0749 6.958 2.5632 0 0-3.581-18.1048-29.259-16.1519 0 0 2.32 4.1498 7.203 5.5331l1.547-1.2612-1.018 1.3832c.122.0407.204.0407.326.0814 2.808.5696 6.023 2.848 9.644 5.167z" fill="#6bb8dc"/><path d="m202.314 127.461s-2.238-31.6531 12.127-44.713" stroke="#6bb8dc" stroke-miterlimit="10" stroke-width=".611042"/><path d="m236.212 77.9066s-25.841-5.5738-29.259 16.1519c0 0 13.144-14.199 29.259-16.1519z" fill="#1e9ed1"/><path d="m217.005 86.4913.651 2.8072c-1.018.651-2.116 1.302-3.215 1.8716l-.529-.651v.9357c-2.198 1.1392-4.517 2.075-6.959 2.5632 0 0 3.581-18.1048 29.259-16.1519 0 0-2.319 4.1498-7.203 5.5331l-1.546-1.2612 1.017 1.3833c-.122.0407-.203.0407-.325.0814-2.808.5695-6.023 2.8479-9.645 5.1669z" fill="#6bb8dc"/><path d="m203.735 76.8906s-1.831 31.5714-.244 42.2714" stroke="#6bb8dc" stroke-miterlimit="10" stroke-width=".611042"/><path d="m206.347 80.3089 1.79.4475c.448-1.3832.733-2.9293.977-4.5973l-2.32-1.3426 2.401.8137c.367-2.848.57-5.818 1.14-8.1777.163-.6917.244-1.3426.285-2.0343l-2.279 1.2206 2.279-2.4004c-.367-5.2077-4.232-9.3575-4.232-9.3575-2.32 4.5567-3.704 30.3916-3.337 30.3916 2.401-.0407 3.866-1.424 4.761-3.4989z" fill="#1e9ed1"/><path d="m200.361 65.9875 2.116-.0407-2.157.6103c0 .3255 0 .6509.041.9764.163 2.1156.163 4.1906.122 6.1434l1.628-.0406-1.669 1.1798c-.081 5.4111-.203 9.5203 2.523 10.4154l3.337-30.3917c.041 0-5.738 3.5396-5.941 11.1477z" fill="#6bb8dc"/><path d="m185.663 59.5996c-.082 3.621.61 6.8757 1.709 9.7644l2.197-1.0985-1.709 2.2783c1.425 3.2548 3.378 5.94 5.25 8.0556l.692-2.6852v3.4176c2.97 3.1327 5.575 4.7601 5.575 4.7601-2.686-16.8435-13.714-24.4923-13.714-24.4923z" fill="#6bb8dc"/><path d="m198.07 80.5938s7.285 18.4302 4.07 42.8822" stroke="#6bb8dc" stroke-miterlimit="10" stroke-width=".611042"/><path d="m202.923 117.209c-4.843 0-8.79-.326-8.79-.732l3.215 12.937s1.872.814 5.697.814 5.697-.814 5.697-.814l2.971-12.937c-.041.406-3.948.732-8.79.732z" fill="#fca306"/><path d="m237.004 28.8634c1.463-1.2582 2.551-2.9245 2.721-4.9308.442-5.8149-7.753-5.7469-9.726-3.0605-1.972 2.6865-2.89 10.0656-.952 10.8818.782.34 2.551.068 4.455-.7141l-2.245 7.5492 6.462.9521z" fill="#7a380c"/><path d="m229.181 22.0953c.137-.374.341-.7481.511-1.0881.238-.4421.544-.8162.85-1.1562.612-.6461 1.326-1.2242 2.074-1.6663 1.394-.8161 3.027-1.1562 4.557-.7481.748.204 1.462.6121 2.04 1.2242.51.5441.986 1.2582 1.735 1.4282.816.17 1.666-.4421 2.38-.7821.816-.4081 1.666-.6461 2.55-.6461 1.497-.034 2.789.6801 3.605 2.0063.884 1.4282 1.36 3.4005.408 4.9648-.17.306-.374.5441-.646.7141-.238.17-.612.3401-.748.6461-.136.3401.068.8161.136 1.1222.102.4761.136.9521.034 1.3942-.204.7821-.782 1.4622-1.394 1.8703-.612.4421-1.293.6461-2.007.6801-.476.034-.952 0-1.428-.102-.238-.068-.442-.136-.646-.238-.204-.0681-.34-.0341-.544.034-.952.442-1.904.51-2.925.272-.85-.204-1.768-.5441-2.38-1.2242-.68-.7481-.51-1.6323-.204-2.5844-.204.068-.748.034-.374-.272.136-.1361.408-.1701.578-.2041.204-.068.408-.17.578-.34.68-.5781.306-2.0404-.408-2.3804-1.054-.5101-1.53 1.0201-2.38 1.2922-.477.17-.919-.238-1.191-.5781-.374-.5101-.612-1.1222-.782-1.7343-.136-.5101-.272-1.0201-.442-1.5302-.068-.2381-.34-.9182-.136-1.1562-.748-.272-1.7-.068-2.414.238-.306.1361-.544.3061-.748.5781-.034.068-.136.2381-.239.2381-.102 0 0-.2041 0-.2721z" fill="#f9aa38"/><path d="m228.427 25.1914c-.136.7481-1.088 1.2582-1.326 1.9043-.272.7141.782 1.1562 1.292 1.4282.034-.068.068-.136.068-.204" fill="#7a380c"/><path d="m230.75 24.8481c-.034-.17-.204-.2721-.306-.3401-.136-.068-.272-.136-.442-.17s-.306-.034-.476 0c-.068.034-.17.068-.238.136s-.102.17-.102.2381c.102-.1361.238-.1021.34-.1021.136 0 .272.0341.374.0681.136.034.272.068.408.068.17.034.306.034.442.102z" fill="#f9aa38"/><path d="m229.018 29.7119c-.034 0-.069 0-.103 0-.306-.068-.544-.204-.85-.306.272 0 .51.034.782.068.545.068.987-.034 1.497-.136-.034.204-.34.4421-.51.4761-.544.136-1.089.34-1.701.272.272-.102.544-.204.782-.306.069-.068.069-.0681.103-.0681z" fill="#f9aa38"/><path d="m229.146 25.4289c-.017-.1492.089-.2845.238-.3023.149-.0177.285.0888.303.238.017.1492-.089.2846-.238.3023-.15.0178-.285-.0888-.303-.238z" fill="#f9aa38"/><path d="m241.93 68.4102-10.814 37.3378-5.101 28.021h-5.101l5.101-65.3588z" fill="#7a380c"/><path d="m246.79 68.4102c-.748 19.383-.442 29.9587-.272 31.7268.17 1.768 1.122 13.568 7.685 34.21h-5.305c-8.705-19.826-11.732-31.591-12.718-34.21-.986-2.6182-3.945-13.1599-8.23-31.7268z" fill="#7a380c"/><path d="m242.164 68.4102c-2.822 12.854-7.685 33.3248-14.623 61.4818h-7.481c-.544-28.905 1.802-47.9137 5.849-61.4818z" fill="#ea931f"/><path d="m246.861 68.4102c-.748 19.383 1.191 38.4938 7.108 61.7878h-7.992c-8.671-19.519-14.894-38.5281-19.145-61.7878z" fill="#f9aa38"/><path d="m254.953 138.19-.306-4.727c-1.734.51-3.877.306-6.461-.578-2.789 1.972-6.291 3.298-10.508 4.046-.306.068-.544.374-.476.681v.068l.408 1.428h10.576 6.155z" fill="#06508c"/><path d="m227.172 138.19-.306-4.727c-1.734.51-3.877.306-6.461-.578-2.789 1.972-6.291 3.298-10.508 4.046-.306.068-.544.374-.476.681v.068l.408 1.428h10.576 6.155z" fill="#06508c"/><path d="m216.663 32.7722-5.917-6.7331c-3.332-1.2582-4.863-2.1083-4.523-2.5504.511-.6461 1.361 0 1.769-.374.408-.3741-.17-1.8703-.748-3.2646-.578-1.3942.17-1.2242.578-.9861 1.36 1.1222 2.686 2.6864 4.012 4.6587l8.502 5.849zm2.653 7.6512c-1.463-1.0201-3.503-1.5982-5.169-2.3123-1.734-.7482-3.537-1.3943-5.271-2.1084-1.258-.5101-1.972-2.0403-3.231-2.4484-.51-.17-1.224-.6801-.986.136.238.8162.442.8502-.34 1.0202s-4.319-.6121-5.373-.34c-.714.204 3.605 2.0063 7.924 3.0944l5.577 4.3867c2.244-.442 4.794-.6461 6.869-1.4282z" fill="#7a380c"/><path d="m238.255 45.0493c-9.522-.6121-18.091-3.8426-28.089-9.6235l-2.176 4.9308c7.957 7.9572 15.098 13.8742 23.464 13.058 2.074-.238 5.373-4.2846 8.569-5.3048z" fill="#06508c"/><path d="m245.5 68.8542h-19.962c4.523-13.8062 6.836-23.2597 6.938-28.3945 0-.272.476-.7141.714-.6801 1.564.4421 3.23.2721 5.033-.5101 4.693 7.6512 6.325 17.0367 7.277 29.5847z" fill="#cd5605"/><path d="m235.976 35.2222c-1.428-.5441-2.959-.7482-4.421-1.1222-2.278-.5441-4.455-2.0403-6.461-3.2305-1.088-.6801-10.542-7.1752-10.882-6.8351l-4.863 4.6247c6.835 7.7192 14.623 13.7382 22.58 21.0154-.17 13.5681-1.734 25.572 5.135 25.572h10.644c1.53-10.3376-1.19-21.7634-5.135-31.319-.442-1.0201-.884-2.0743-1.326-3.0944-.816-1.8023-1.871-3.5706-3.537-4.7268-.544-.3741-1.122-.6461-1.734-.8841z" fill="#1174ba"/><path d="m126.827 50.7905 30.113 9.8934c.643.2112 1.356-.1527 1.569-.8006l13.305-40.4962c.213-.6479-.145-1.3639-.788-1.5752l-30.113-9.89336c-.643-.21125-1.356.15265-1.569.80059l-13.305 40.49617c-.213.6479.145 1.3639.788 1.5752z" fill="#fdd7bd"/><path d="m165.137 26.29c-3.93-1.4106-7.967-2.8565-11.932-4.1592s-8.037-2.6406-12.073-3.7273c3.93 1.4107 7.966 2.8565 11.931 4.1592s7.966 2.4974 12.074 3.7273z" fill="#fa873a"/><path d="m164.426 28.4502c-3.93-1.4107-7.967-2.8566-11.932-4.1593-3.965-1.3026-8.037-2.6406-12.073-3.7273 3.93 1.4107 7.966 2.8566 11.931 4.1593s7.93 2.6054 12.074 3.7273z" fill="#fa873a"/><path d="m163.683 30.7198c-3.929-1.4107-7.966-2.8566-11.931-4.1593s-8.037-2.6406-12.073-3.7273c3.93 1.4107 7.966 2.8566 11.931 4.1592 4.001 1.1947 7.966 2.4974 12.073 3.7274z" fill="#fa873a"/><path d="m162.973 32.878c-3.93-1.4107-7.967-2.8566-11.932-4.1593s-8.037-2.6406-12.073-3.7273c3.93 1.4107 7.966 2.8566 11.931 4.1592 3.965 1.3027 7.93 2.6054 12.074 3.7274z" fill="#fa873a"/><path d="m162.262 35.0381c-3.93-1.4107-7.967-2.8566-11.932-4.1593s-8.037-2.6405-12.073-3.7273c3.93 1.4107 7.966 2.8566 11.931 4.1593s7.93 2.6054 12.074 3.7273z" fill="#fa873a"/><path d="m161.519 37.3057c-3.929-1.4107-7.966-2.8566-11.931-4.1593s-8.037-2.6406-12.073-3.7273c3.93 1.4107 7.966 2.8566 11.931 4.1593s7.966 2.4974 12.073 3.7273z" fill="#fa873a"/><path d="m157.731 40.7762c.053-.0537.104-.1047.152-.1531.126-.0968.222-.1032.281-.0839.059.0195.135.0837.179.2426.355 1.4174.926 5.0388-.336 8.8812-.328.9987-.889 1.823-1.55 2.3318-.66.5071-1.411.6961-2.147.4543-.732-.2405-1.218-.8615-1.445-1.6779-.228-.8176-.189-1.8144.121-2.7577 1.204-3.6637 3.597-6.0786 4.745-7.2373z" fill="#cd5605" stroke="#fdd7bd" stroke-width=".355257"/><path d="m157.625 42.3594-4.364 13.2827" stroke="#fdd7bd" stroke-miterlimit="10" stroke-width=".355257"/><path d="m156.414 44.2344.146 1.3639" stroke="#fdd7bd" stroke-miterlimit="10" stroke-width=".355257"/><path d="m157.205 45.8089-1.068 1.0846" stroke="#fdd7bd" stroke-miterlimit="10" stroke-width=".355257"/><path d="m154.133 47.5547.933 2.5799" stroke="#fdd7bd" stroke-miterlimit="10" stroke-width=".355257"/><path d="m136.89 39.5034.001-.0046c1.156-3.8745 3.762-6.45 4.888-7.3804.13-.1019.229-.1089.288-.0893.06.0196.135.0838.179.2426.356 1.4175.927 5.0388-.336 8.8812-.328.9987-.888 1.8231-1.55 2.3319-.659.507-1.411.696-2.146.4543-.732-.2405-1.218-.8616-1.446-1.6779-.227-.8176-.188-1.8145.122-2.7578z" fill="#ea6206" stroke="#fdd7bd" stroke-width=".355257"/><path d="m141.461 33.7051-4.4 13.3907" stroke="#fdd7bd" stroke-miterlimit="10" stroke-width=".355257"/><path d="m140.219 35.6895.181 1.2559" stroke="#fdd7bd" stroke-miterlimit="10" stroke-width=".355257"/><path d="m141.034 37.1566-1.069 1.0846" stroke="#fdd7bd" stroke-miterlimit="10" stroke-width=".355257"/><path d="m137.969 38.9004.898 2.6879" stroke="#fdd7bd" stroke-miterlimit="10" stroke-width=".355257"/><path d="m141.617 55.6501 2.413-7.3433 10.841-5.5314 3.871 7.7327-3.194 9.7191z" fill="#f97319"/><path d="m154.869 42.7742-13.717-4.5066-10.841 5.5314 13.717 4.5066z" fill="#fcaf7b"/><path d="m144.031 48.3065-2.448 7.4513-13.609-4.4714 2.448-7.4513s13.645 4.3634 13.609 4.4714z" fill="#fb9b5a"/><path d="m153.679 52.1892-3.429-1.1267-2.2 6.6954 3.429 1.1266z" fill="#cd5605"/><path d="m134.512 36.8004c.32-.2535.642-.1479.75.2465.36 1.4343.938 5.0942-.339 8.9818-.674 2.0518-2.314 3.4275-3.921 2.8994-1.608-.5281-2.076-2.716-1.437-4.6598 1.17-3.9228 3.771-6.4185 4.947-7.4679z" fill="#feebde"/><g stroke-miterlimit="10"><path d="m131.562 43.6074-.141.432" stroke="#feebde" stroke-width=".024907"/><path d="m133.641 47.043-.142.4319" stroke="#feebde" stroke-width=".024907"/><path d="m134.492 44.4512-.142.4319" stroke="#feebde" stroke-width=".024907"/><path d="m133.094 39.6836-.142.4319" stroke="#feebde" stroke-width=".024907"/><path d="m130.891 46.377-.142.4319" stroke="#feebde" stroke-width=".024907"/><path d="m130.742 45.0137-.142.4319" stroke="#feebde" stroke-width=".024907"/><path d="m132.094 41.2715-.142.4319" stroke="#feebde" stroke-width=".024907"/><path d="m132.703 44.8223-.142.4319" stroke="#feebde" stroke-width=".024907"/><path d="m134.305 41.041-.142.432" stroke="#feebde" stroke-width=".024907"/><path d="m133.922 42.9473-.142.4319" stroke="#feebde" stroke-width=".024907"/><path d="m135.047 38.7715-.142.4319" stroke="#feebde" stroke-width=".024907"/><path d="m133.141 46.041-.178.54" stroke="#feebde" stroke-width=".024907"/><path d="m132.25 47.6621-.142.432" stroke="#feebde" stroke-width=".024907"/><path d="m134.367 38.668-4.364 13.2827" stroke="#cd5605" stroke-width=".355257"/><path d="m133.156 40.543.146 1.3639" stroke="#cd5605" stroke-width=".355257"/><path d="m133.94 42.1194-1.069 1.0847" stroke="#cd5605" stroke-width=".355257"/><path d="m130.766 43.8262 1.04 2.6151" stroke="#cd5605" stroke-width=".355257"/></g><path d="m159.395 19.6133c-.036.108-.071.2159-.178.1807l-.107-.0352s0 0-.108-.0352l-.107-.0352s0 0-.107-.0352-.107-.0352-.107-.0352c-.036.108-.071.216-.106.324-.071.2159-.25.3967-.285.5047-.178.1808-.214.2888-.321.2536s-.143-.2864-.037-.6104c.036-.108.071-.216.107-.324.035-.108.071-.216.035-.108 0 0-.214-.0704-.428-.1408-.215-.0704-.465-.0328-.679-.1032 0 0 0 0-.143.0727-.142.0728-.178.1808-.178.1808-.142.0728-.285.1456-.32.2536-.143.0728-.286.1455-.393.1103-.214-.0704-.179-.1784-.143-.2864.035-.108.499-.4343 1.462-.8358.535-.1831 1.105-.4743 1.533-.6926 0 0 .143-.0728.25-.0376s.107.0352.214.0704c.108.0352.215.0705.179.1785 0 0-.035.1079-.071.2159l-.498.7935.429.1409c.107.0352.107.0352.107.0352zm-1.143-.4953c.035-.108.071-.216.071-.216.035-.108.07-.216-.037-.2512-.142.0728-.249.0376-.428.2184-.142.0728-.285.1455-.32.2535z" fill="#cd5605"/><path d="m161.504 21.1423c-.071.216-.214.2888-.607.3991-.249.0376-.499.0752-.821-.0304-.214-.0705-.464-.0329-.571-.0681 0 0-.107-.0352-.214-.0704s-.179-.1784-.286-.2136l.035-.108c.036-.108.178-.1808.321-.2536l.822.3897c.214.0704.464.0328.714-.0047l.035-.108c-.036-.2512-.322-.4648-.643-.5704-.322-.1057-.501-.2841-.822-.3897-.179-.1784-.358-.3568-.287-.5728.035-.108.214-.2887.499-.4343.25-.0376.535-.1831.785-.2207s.499-.0752.607-.04c.214.0704.214.0704.321.1056.107.0353.072.1433.036.2512-.035.108-.178.1808-.428.2184-.249.0376-.464-.0328-.714.0047-.249.0376-.392.1104-.463.3264.214.0704.393.2488.607.3192.322.1056.608.3192.68.4624.464.0329.5.2841.394.608z" fill="#cd5605"/><path d="m163.855 21.9177c-.071.216-.213.2888-.606.3991-.25.0376-.5.0752-.821-.0304-.214-.0705-.464-.0329-.571-.0681 0 0-.107-.0352-.215-.0704-.107-.0352-.179-.1784-.286-.2136l.036-.108c.035-.108.178-.1808.321-.2536l.821.3897c.215.0704.465.0328.714-.0047l.036-.108c-.036-.2512-.322-.4648-.644-.5704-.321-.1057-.5-.2841-.822-.3897-.179-.1784-.357-.3568-.286-.5728.035-.108.213-.2888.498-.4343.25-.0376.536-.1832.785-.2207.25-.0376.5-.0752.607-.04.214.0704.214.0704.322.1056.107.0353.071.1433.036.2512-.036.108-.178.1808-.428.2184s-.464-.0329-.714.0047-.392.1104-.463.3264c.214.0704.393.2488.607.3192.322.1056.608.3192.679.4624.464.0329.501.284.394.608z" fill="#cd5605"/><path d="m166.286 21.7579c-.107.324-.32.6127-.641.8663-.321.2535-.713.3639-1.142.2231-.322-.1057-.5-.2841-.679-.4625-.036-.2511-.073-.5023-.002-.7183.036-.108.107-.324.32-.6128.214-.2887.428-.5775.606-.7582.32-.2536.463-.3264.677-.256.322.1057.608.3193.751.6057.251.3216.252.6807.11 1.1127zm-.679-.1033c.071-.2159.142-.4319.106-.6831-.001-.3592-.073-.5024-.287-.5728-.107-.0352-.25.0376-.428.2184-.178.1807-.249.3967-.463.6855-.07.2159-.249.3967-.284.5047-.036.108-.071.216-.106.324.036.2512.107.3944.215.4296.214.0704.464.0328.642-.148.321-.2535.499-.4343.605-.7583z" fill="#cd5605"/></svg>