<svg fill="none" height="240" viewBox="0 0 524 240" width="524" xmlns="http://www.w3.org/2000/svg"><path d="m369.633 127.612-30.532-40.4313h-98.394l-21.945 40.4313z" fill="#cabebb"/><path d="m353.289 93.1435-26.358 16.8165-18.128-4.651 28.147-15.3857z" fill="#b3a7a1"/><g fill="#87776f"><path d="m339.562 91.7129-1.908-.4771-2.504 1.4312 1.789.4771z"/><path d="m343.023 92.3096-2.027-.4771-2.505 1.5505 2.028.3578z"/><path d="m346.602 92.9058-2.267-.4771-2.504 1.5504 2.266.4771z"/><path d="m350.062 93.6217-2.385-.5963-2.505 1.6697 2.505.4771z"/><path d="m336.344 93.3827-1.909-.3578-2.504 1.3119 1.908.5963z"/><path d="m339.922 94.0986-2.147-.477-2.505 1.4312 2.028.477z"/><path d="m343.383 94.8145-2.266-.4771-2.385 1.4312 2.146.4771z"/><path d="m346.844 95.4107-2.386-.4771-2.385 1.5504 2.385.4771z"/><path d="m333.25 95.1709-1.908-.4771-2.624 1.4312 1.908.4771z"/><path d="m336.703 95.8867-2.027-.477-2.505 1.4311 2.028.5964z"/><path d="m340.164 96.6026-2.147-.4771-2.504 1.5504 2.147.4771z"/><path d="m343.625 97.3184-2.266-.4771-2.505 1.5505 2.386.477z"/><path d="m330.023 96.9609-1.908-.477-2.504 1.4312 1.908.477z"/><path d="m333.484 97.6768-2.027-.4771-2.505 1.4312 2.028.5963z"/><path d="m336.945 98.5119-2.147-.5964-2.385 1.5505 2.147.477z"/><path d="m340.523 99.2266-2.385-.4771-2.385 1.4315 2.266.477z"/><path d="m326.805 98.7485-1.909-.477-2.504 1.4312 1.908.4773z"/><path d="m330.383 99.4644-2.147-.4771-2.505 1.4307 2.147.597z"/><path d="m333.844 100.299-2.147-.4767-2.504 1.4307 2.146.478z"/><path d="m337.305 101.014-2.266-.477-2.386 1.551 2.147.477z"/><path d="m323.719 100.538-2.028-.5961-2.504 1.4311 2.027.596z"/><path d="m327.172 101.254-2.028-.477-2.504 1.431 2.027.596z"/><path d="m330.633 102.088-2.147-.477-2.505 1.431 2.147.596z"/><path d="m334.094 102.924-2.266-.477-2.386 1.431 2.266.597z"/><path d="m320.492 102.209-1.908-.477-2.624 1.431 2.028.596z"/><path d="m323.945 103.163-2.027-.596-2.505 1.431 2.028.596z"/><path d="m327.406 103.999-2.027-.478-2.505 1.312 2.147.597z"/><path d="m330.867 104.833-2.147-.478-2.385 1.432 2.147.477z"/><path d="m317.391 103.998-2.028-.477-2.624 1.431 2.147.477z"/><path d="m320.852 104.952-2.147-.597-2.505 1.432 2.147.596z"/><path d="m324.188 105.787-2.028-.477-2.505 1.431 2.147.477z"/><path d="m327.648 106.74-2.146-.596-2.386 1.431 2.147.597z"/><path d="m308.803 105.31v1.312l18.009 4.889 26.477-16.816v-1.5505l-26.358 16.8165z"/></g><path d="m302.72 86.346-1.193 10.3761s9.78 1.9082 16.817-3.6972l-4.294-8.3486z" fill="#b3a7a1"/><path d="m301.532 96.7214s-.716-1.6697-.477-3.2201c.119-1.5505.835-7.0367.835-7.0367l.954-.2385z" fill="#87776f"/><path d="m333.847 85.5108.239-35.5411-55.578 2.0275 2.266 42.6971z" fill="#9d8f88"/><path d="m331.699 83.9607.239-31.4861-49.734 1.5504 1.908 37.3301z" fill="#d2edfc"/><path d="m334.086 49.9695-2.028-.2385-53.55 1.6697-1.312.1192 2.028 42.5778 1.55.5963-2.266-42.697z" fill="#87776f"/><path d="m353.642 208.593c.596 1.551.835 2.743.835 3.578 0 .954-.12 2.385-.478 4.174-1.073 0-11.091 0-29.935 0-.835-2.623-.358-3.935 1.312-4.174 1.669-.238 3.101-.358 4.174-.596l13.954-6.202c.239-.119.596 0 .716.239l.835 2.146c1.55.716 2.862 1.074 3.816 1.074.835 0 1.908-.358 3.22-.954.716-.12 1.312.119 1.551.715 0-.119 0-.119 0 0z" fill="#9d8f88"/><path d="m434.393 150.51h-41.027l-5.367 65.834h61.063z" fill="#cabebb"/><path d="m434.393 150.51h-12.642l-7.514 65.834h34.825z" fill="#b3a7a1"/><path d="m346.609 139.18c-4.413-2.624-11.688.716-11.688 4.532 0 11.211 10.257 64.165 10.853 67.504.596 3.34 6.321 4.175 6.56 0 .477-6.679 1.55-29.935.477-40.669-.358-4.413-.835-8.707-1.312-12.404 5.367 9.661 13.715 23.615 24.926 41.743l6.083-2.743c-4.771-15.862-8.707-26.954-11.807-33.514-5.248-11.211-10.138-20.752-12.285-24.091-3.101-5.367-8.825-3.578-11.807-.358z" fill="#ffe0cb"/><path d="m382.266 188.198-20.991-49.733c-5.009-8.11-19.083 1.669-17.413 6.321 3.936 10.614 23.734 45.082 24.807 48.302z" fill="#5a483c"/><path d="m383.426 193.897c1.292 1.045 2.095 1.958 2.512 2.681.477.827 1.089 2.126 1.674 3.854-.929.537-9.606 5.546-25.925 14.968-2.035-1.855-2.278-3.23-.951-4.271 1.327-1.042 2.507-1.861 3.317-2.604l8.984-12.348c.147-.222.516-.298.739-.151l1.796 1.442c1.701-.156 3.016-.502 3.842-.979.723-.417 1.474-1.264 2.312-2.436.456-.402 1.092-.493 1.7-.156 0 0-.06-.103 0 0z" fill="#5a483c"/><path d="m333.491 147.529c0 14.073 6.679 46.991 6.679 50.092h14.431c-2.147-29.34-2.862-44.129-2.266-44.487.954-.477 37.688 3.698 48.78 3.698 15.862 0 22.541-10.019 23.018-28.624h-31.486c-6.441.716-39.835 7.394-52.358 9.78-5.367.954-6.798 5.725-6.798 9.541z" fill="#5a483c"/><path d="m384.297 51.7591c1.432-3.4587 1.789-7.3945.358-10.9724-4.413-10.4954-18.605-3.1009-19.679 3.3394-1.073 6.4403 3.936 20.0366 7.991 19.7981 1.67-.1193 4.532-2.1468 7.156-5.2477l2.862 15.1467 12.046-4.1743z" fill="#ffe0cb"/><path d="m367.722 36.4928c1.431-1.0734 3.816-2.0275 4.89-2.266-1.074-1.1927-1.789-2.6238-2.147-4.1743-.358-1.5504-.119-2.9816.119-4.4128.12-.7156.239-1.4312.477-2.0275.358-.5964.835-1.1927 1.432-1.5505.596-.3578 1.311-.5963 1.908-.7156h.954c.358 0 .358-.2385.596-.477.358-.5964 1.074-1.0734 1.67-1.312.716-.3578 1.431-.477 2.266-.477.716 0 1.55.1192 2.147.477.238.1193.596.3578.835.5964.119.1192.119.1192.238.2385h.358c1.312 0 2.505.5963 3.459 1.5505.477.5963 1.073 1.6697 1.431 2.9816s.358 5.1284-.358 6.6789c-.596 1.4311-1.789 2.6238-3.101 3.4587 1.312.7155 2.386 1.9082 3.22 2.9816.954 1.3119 1.789 2.7431 2.386 4.1743.596 1.4312 1.192 2.9816 1.312 4.5321.119 1.4312-.239 2.7431-1.074 3.8165-.358.477-.954.9541-1.431 1.3119s-.954.8348-1.55 1.0734c-1.074.5963-2.386.9541-3.459.3578-.358-.2386-.835-.4771-1.193-.8349-.119-.1192-.238-.2385-.119-.3578.119-.2385.238-.3578.358-.5963.596-1.0734.835-2.1468.596-3.3394-.239-1.1927-1.073-2.6239-2.385-2.7432-1.67-.1192-2.982 1.0734-3.936 2.1468-1.193-1.6697-2.862-2.9816-4.89-3.3394-2.266-.3578-4.413.3578-6.679.1193-.596 0-1.192-.1193-1.669-.3578-.239-.1193-.477-.3578-.597-.4771-.238-.2385-.119-.5963 0-.9541.239-1.3119 2.505-5.0092 3.936-6.0826z" fill="#ac5419"/><path d="m366.045 53.4292c.954 1.789-.119 4.1743.835 5.9633.835-.2386 1.551-.4771 2.386-.7156" fill="#ffe0cb"/><path d="m370.58 61.0623c.715-.1192 1.312-.5963 1.669-1.0734.358-.5963.597-1.3119.358-2.0275-.477.5964-.715 1.0734-1.073 1.5505-.239.477-.597.9541-.954 1.5504z" fill="#87776f"/><path d="m368.664 51.0432c-.119-.3578-.477-.5963-.835-.5963-.358-.1193-.715 0-1.073.1192-.358.1193-.597.3578-.835.5964-.239.2385-.358.7156-.239.9541.239-.2385.477-.3578.597-.5963.238-.1193.477-.2386.715-.3578.239-.1193.477-.1193.716-.2386.358.1193.716 0 .954.1193z" fill="#87776f"/><path d="m366.768 53.4973c-.153-.2915-.041-.6521.251-.8054.291-.1534.652-.0414.805.2501.153.2914.041.652-.25.8054-.292.1533-.652.0413-.806-.2501z" fill="#87776f"/><path d="m373.442 110.795-17.055-8.349c-7.633.12-11.33-.357-10.972-1.431.477-1.6694 2.743-1.0731 3.22-2.0272.477-1.0734-1.789-3.4587-4.055-5.7248-2.266-2.266-.596-2.5045.477-2.3853 3.578 1.1927 7.395 3.1009 11.569 5.844l21.468 4.6513z" fill="#ffe0cb"/><path d="m381.795 109.364c-7.752 2.505-18.248 0-26.477-4.532l1.312-9.1836c10.972 3.1009 20.036 2.0275 26.477.1193 5.844 3.2202 4.89 11.5683-1.312 13.5963z" fill="#d07409"/><path d="m343.978 105.667-9.422-2.027c-2.385-4.0555-4.413-5.8445-5.963-5.3674-1.431-.2385 2.385 4.6514-.119 4.8894-2.505.239-9.303-2.385-10.019-1.192-1.073 1.67 1.312 5.128 3.459 6.679 3.936 2.743 6.56 3.339 12.881 3.22 3.22 0 7.036.715 11.33 2.147z" fill="#ffe0cb"/><path d="m376.779 64.5202 14.789-4.2936c1.67-.477 18.844 17.4128 22.899 31.1283 3.697 12.5231 17.651 17.0551 17.413 38.5231-10.257.954-36.018 18.963-44.009 10.018-3.817-4.413-6.202-9.661-7.633-15.624-9.899 2.624-22.78 2.982-38.761-.238-1.312-3.459-1.193-9.899.357-19.441 17.89.955 30.055-.357 36.376-4.055.12-12.5225.835-25.2839-1.431-36.0178z" fill="#ea8003"/><path d="m218.643 127.612h150.99v93.981h-150.99z" fill="#9d8f88"/><path d="m277.43 116.759c-1.312-1.551-7.275-11.807-7.275-11.807s-20.991 2.981-25.166 3.458c0 0 3.817 11.092 5.725 12.762z" fill="#715f56"/><path d="m271.352 113.538c-1.551-1.431-9.422-10.973-9.422-10.973s-20.276 4.89-24.331 5.725c0 0 5.844 10.615 8.11 12.046z" fill="#eee7e5"/><path d="m317.975 197.024c-8.958 0-16.22-.854-16.22-1.908s7.262-1.908 16.22-1.908 16.22.854 16.22 1.908-7.262 1.908-16.22 1.908z" fill="#5e5e5e"/><path d="m317.975 197.024c8.945 0 16.22-.835 16.22-1.908l-5.963 33.036s-3.459 2.147-10.495 2.147c-7.156 0-10.496-2.147-10.496-2.147l-5.486-33.036c0 1.073 7.275 1.908 16.22 1.908z" fill="#e0e0e0"/><path d="m386.338 124.263c-.546 5.817.981 16.688 11.452 13.634 13.089-3.818 31.631-13.634 37.63-13.634" stroke="#fff" stroke-width="2.18143"/><path d="m99.6328 108.594 20.6892 69.34 9.655 52.162h9.78l-9.655-121.502z" fill="#cb7a43"/><path d="m90.3643 108.594c1.3793 36.112.8777 55.673.5016 58.933-.3762 3.26-2.1317 25.203-14.6706 63.572h10.1565c16.5512-36.864 22.3192-58.808 24.2002-63.572 1.881-4.765 7.523-24.451 15.674-58.933z" fill="#cb7a43"/><path d="m99.2578 108.594c5.3922 23.824 14.6702 61.942 27.8362 114.355h14.295c1.003-53.792-3.386-89.152-11.16-114.355z" fill="#443023"/><path d="m90.3545 108.594c1.3793 36.112-2.257 71.597-13.542 114.856h15.1721c16.5514-36.237 28.4634-71.597 36.4884-114.856z" fill="#5a483c"/><path d="m74.9297 238.37.5015-8.777c3.2602.878 7.398.627 12.2882-1.129 5.2663 3.637 11.912 6.144 20.0626 7.524.627.125 1.003.627.877 1.254v.125l-.752 2.633h-20.1876-11.7866z" fill="#212121"/><path d="m127.852 238.37.501-8.777c3.26.878 7.398.627 12.288-1.129 5.267 3.637 11.912 6.144 20.063 7.524.626.125 1.003.627.877 1.254v.125l-.752 2.633h-20.188-11.786z" fill="#212121"/><path d="m112.178 27.5911c-2.633-3.0093-4.388-6.6456-4.012-10.6581.878-11.78658 17.68-9.15341 20.94-3.2601 3.26 5.8933 2.884 20.94-1.379 22.0685-1.63.3762-5.267-.627-8.903-2.7586l2.257 15.7991h-13.542z" fill="#cb7a43"/><path d="m102.264 12.9199c-.376-.3761-.627-1.0031-.878-1.63s-.376-1.2539-.627-1.75548c-.251-1.25389-.251-2.63316.627-3.63628.752-.75233 1.755-1.12849 2.759-1.12849.627 0 1.379.00001 2.006.25079s1.128.62692 1.755.8777c0-1.37928.251-2.75857 1.003-3.88707.627-1.128504 1.756-1.75545 2.884-1.880839 1.254-.12538961 2.508.125396 3.637.752343.25.125386.501.250766.877.501546.251.12539.502.37619.753.37619.25.12539.376-.1254.627-.25079.25-.25078.501-.50156.752-.626946 1.128-.87772494 2.633-1.128503 4.012-.626947.627.250779 1.254.626939 1.63 1.128493.377.50156.627 1.25392 1.129 1.63009.251.12538.376-.00001.627-.1254.251-.25078.627-.50156.878-.62695.376-.25078.877-.50155 1.379-.62694.752-.12539 1.755-.12539 1.881.75234.125.37617 0 .75233 0 1.12849 0 .50156-.126 1.00313-.126 1.50469 0 .37617-.125.75233-.125 1.1285 0 .25077-.125.50156-.125.75234.125.25078.627.12536.752.12536.376 0 .878.1254 1.254.25079.251.12539.627.37617.752.62695.126.25078 0 .37617 0 .62694v.62695c.502-.25078 2.508-.87772 2.633.1254.126.37616-.125.62693-.25 1.00313-.251.5015-.502.8777-.878 1.3793-.627.8777-1.505 1.63-2.383 2.2569 1.004.5016 1.254 1.7555.377 2.5078-.377.3762-.878.3762-1.38.3762-.125 0-.501-.1254-.627 0-.125 0-.125.1254-.25.1254-.753 0-1.505-.1254-2.132-.2508-1.254-.2508-2.382-.8777-3.26-1.63-.251-.2508-.376-.3762-.752-.3762-.251 0-.502.1254-.878.1254-.753 0-1.379-.3762-2.132-.627 0 .8778-.251 1.8809-.752 2.7586-.251.627-1.003.7523-1.63.8777-2.006.2508-4.138 0-6.144 0 2.006.5016 4.012.627 6.018 1.1285.878.2508.251.8777-.125 1.2539-.627.627-1.129 1.5047-1.379 2.3824-1.003-1.2539-2.759-2.0062-4.264-1.6301-1.63.3762-2.883 2.6332-1.755 4.2633.627.8777 1.755 1.2539 2.759 1.6301-.753.7523-.878 1.8808-1.38 2.7585-.25.5016-.501 1.0031-1.003 1.1285-.125 0-.376.1254-.501.2508-.126.1254-.251.3761-.502.5015-.878.627-2.257.5016-3.135-.2507-.752-.7524-.501-1.8809.126-2.6332-1.003-.3762-2.759-.8777-2.383-2.3824-2.131-.1254-7.1468-3.3855-4.263-5.7679-1.5046-.8777-2.8838-2.8839-2.0061-4.7648.8777-2.0062 2.6331-2.6332 4.1381-2.7586z" fill="#5a483c"/><path d="m132.242 53.1699 20.689-9.655c3.511-3.6363 7.022-6.5203 10.408-8.5265 1.003-.3762 2.758-.5016 1.003 2.257-1.756 2.7586-3.511 5.6425-2.759 6.5203.753.8777 2.884-.2508 3.762 1.2539.627 1.0031-3.009 2.2569-10.784 4.0124l-15.297 12.2882z" fill="#cb7a43"/><path d="m120.2 52.1672c7.021-.1254 16.426-1.5047 26.457-7.7741l3.887 8.5264c-6.897 6.6456-16.677 12.1628-25.078 11.912-6.646 0-10.031-7.8995-5.266-12.6643z" fill="#ea8003"/><path d="m194.941 35.1134c-8.401-2.3824-16.552-5.3917-24.827-8.1503-1.003-.3761-5.141-2.3824-5.894-2.0062 0 0-1.003 4.514-1.253 5.8933-.627 4.3886-.126 0-.878 4.3886-.627 3.0093-1.129 5.6425-1.505 7.0218-.125.2508-.125.5016-.125.7523-.126.3762 0 .7524.125 1.0031.753.8778 2.759-.2507 3.511 1.2539.376.7524-1.505 1.7555-5.893 3.0094-2.633 5.6425-11.285 17.3037-12.163 18.1814 6.27 3.2602 12.539 6.6457 18.808 9.9058 1.505.7523 10.784 6.1441 12.414 5.6425 1.755-.3762 4.514-5.7679 6.019-8.6519 3.636-7.0217 6.645-14.4197 8.777-22.0685.878-2.257 4.639-15.799 2.884-16.1752z" fill="#f9ef99"/><path d="m166.852 69.8466 8.777-4.7648c1.254-4.6394 2.758-6.8964 4.388-6.8964 1.38-.6269-1.003 5.2664 1.505 4.7648 2.508-.5015 8.652-4.8901 9.655-4.0124 1.505 1.3793.125 5.3917-1.505 7.5233-3.009 3.7617-5.642 5.141-11.912 6.771-3.26.8778-6.771 2.6332-10.658 5.3918z" fill="#cb7a43"/><path d="m133.623 72.1033c7.523 1.8809 20.062-.3761 37.616-6.3948 4.389 8.7772 6.395 15.0467 6.019 18.8084-15.047 7.6487-28.087 11.1596-38.745 11.285.376 6.1441-.376 12.0371-3.01 17.4291-5.266 11.034-36.4879.752-46.8952 2.884-6.5202-20.8147 6.1441-29.2158 6.1441-42.507 0-14.5452 12.0371-36.9898 13.7931-36.9898h16.05c.877 11.1596 5.391 23.4478 9.028 35.4851z" fill="#fca306"/><path d="m170.898 65.2925c4.631 8.652 8.816 12.1898 8.544 15.9605-14.828 8.0636-31.108 11.9353-41.759 12.3566.547 6.1313-2.046 14.0484-4.529 19.5114-4.958 11.176-36.5024-2.42-46.8465 0-7.0957-20.6259 10.7289-27.1698 10.3598-40.4559-.4039-14.5396 11.3617-35.089 13.1157-35.1377l12.281 2.6734 2.005 12.4135" stroke="#eee7e5" stroke-width="1.33672"/><path d="m130.754 63.3073c4.344-1.3367 14.236-5.4137 19.048-11.0279l-2.339-6.0152c-4.567 1.7823-15.038 4.8122-20.385 2.6734" stroke="#eee7e5" stroke-width="1.33672"/></svg>