<svg fill="none" height="301" viewBox="0 0 524 301" width="524" xmlns="http://www.w3.org/2000/svg" xmlns:xlink="http://www.w3.org/1999/xlink"><mask id="a" height="265" maskUnits="userSpaceOnUse" width="273" x="42" y="-46"><path d="m202.886-42.1051c16.851 6.5707 80.952 83.1074 110.897 120.5545 3.121 22.4116-7.104 34.4866-12.606 37.7236l-207.9691 101.917c-3.7987-15.767-62.8148-165.0638-48.2582-210.48304 18.1957-56.77406 136.8713-57.92536 157.9363-49.71206z" fill="#c4c4c4"/></mask><path d="m382.828 175.097-32.282 63.354-22.53 54.168-7.332-.803 36.91-119.484z" fill="#fc4e24"/><path d="m386.954 174.875c-1.269 23.086.745 54.762 1.314 56.276.436 1.016 14.992 14.885 43.993 41.803l-5.379 4.566c-34.76-24.168-52.72-37.606-54.205-40.512-2.233-4.28-7.864-42.162-12.846-65.133z" fill="#fc4e24"/><path d="m431.106 271.273c1.652.749 2.717 1.365 3.314 1.968.717.723 1.676 1.923 2.76 3.478-.803.8-7.914 7.883-21.334 21.249-2.484-1.359-3.214-2.787-2.186-4.05 1.027-1.263 1.94-2.412 2.624-3.332l5.323-14.643c.11-.349.458-.457.697-.216l2.36 1.004c1.744-.54 2.9-1.212 3.588-1.898.574-.571 1.138-1.612 1.578-3.008-.129-.591.569-.806 1.276-.552-.12-.121-.12-.121 0 0z" fill="#fca19a"/><path d="m330.844 291.854c.558 1.581.816 2.672.766 3.425-.061.903-.317 2.24-.758 3.858-1.154-.132-11.372-1.302-30.655-3.51-.662-2.503-.077-3.802 1.581-3.764 1.659.039 3.152.058 4.316.039l14.734-4.23c.339-.112.659.076.639.377l.847 2.221c1.597.941 2.896 1.394 3.884 1.507.825.094 1.999-.075 3.358-.526.514-.245 1.153.132 1.288.603z" fill="#fca19a"/><path d="m356.037 289.676-34.566-7.374 33.732-110.237 31.078 3.415z" fill="#aa1707"/><path d="m425.777 264.347-24.309 23.038c-21.985-27.343-34.81-45.101-38.152-53.074-3.341-7.973-5.62-28.771-6.32-62.5l34.636 3.826c-.365 29.567-.251 44.949.321 46.468.415 1.34 11.805 15.38 33.824 42.242z" fill="#e8140f"/><path d="m385.241 103.099c2.741-2.571 4.841-5.8616 4.746-9.7379-.123-11.4484-16.983-10.8934-20.76-5.5489-3.606 5.365-4.19 19.7888-.002 21.4178 1.673.684 5.322-.006 9.033-1.655l-3.19 14.917 13.459 1.613z" fill="#ffd7a8"/><path d="m375.692 89.0194c1.76 1.1527 2.801 3.0249 4.295 5.5862.343-.1219.841-.067 1.173-.0303 1.827.2015 3.222 1.7932 3.1 3.5371-.066.9513-.454 1.7074-1.151 2.1096.764 1.043 1.517 2.244 2.435 3.464 3.797-1.658 8.38-7.3832 5.302-13.6339-2.17-12.0618-21.11-6.8021-24.287-9.2295-1.129 4.1891.952 7.9334 9.133 8.1968z" fill="#70573e"/><path d="m358.301 100.721c.066-.9497-1.649-2.734-2.092-3.5803-1.382-1.7476-3.097-3.5319-5.387-4.2631-1.637-.4997-5.088-1.3592-5.42.9967-.088 1.2663 1.483 2.7157 2.246 3.7569.753 1.1995 1.107 3.3118 2.047 4.2138.941.901 4.403 1.602 5.454.921" fill="#fcd6d6"/><path d="m383.794 117.868c-5.625-1.102-11.892 2.211-17.183-1.259-1.443-.96-2.674-2.539-3.407-4.062-1.631-3.064-2.241-6.337-3.873-9.401-1.02-2.196-2.296-3.138-4.981-3.115-2.351.061-4.858-.0562-7.21.004-1.01.049 3.731 23.487 4.408 25.805.666 2.477 1.665 4.991 3.717 6.82 2.363 2.184 5.647 3.188 8.83 3.22 3.35.05 7.41-.463 10.516-1.722 4.149-1.784 6.4-5.221 9.151-8.602" fill="#f2f2f2"/><g fill="#89130a"><path d="m345.872 98.8894-2.708-.3367.108-1.7401 1.016.1262.078-1.2655-.677-.0842.02-.3164 2.031.2526-.02.3164-.677-.0842-.078 1.2655 1.015.1263z"/><path d="m353.665 97.8158-.098 1.5869-2.558-.158.108-1.7455.849.1055.079-1.2694-.509-.0634.029-.476 1.869.2322.14.4972-.679-.0845-.079 1.2695z"/><path d="m349.792 99.2339-2.712-.3372.108-1.7424 1.017.1264.078-1.2672-.677-.0843.019-.3168 2.044.0945-.03.4752-.678-.0843-.078 1.2672.847.1054z"/></g><path d="m310.943 83.8732c2.41 3.8029 11.263 10.804 15.01 12.0045 5.213 1.6769 10.868 1.7198 16.307 2.5038l17.173 1.9915c.825.096 1.641.343 2.436.895.806.4 1.426 1.085 1.881 1.75.455.666.579 1.293.704 1.92l.661.077.33.038.825.096-.07 1.064-.826-.096-.33-.038-.495-.058c-.041.609-.081 1.217-.452 1.786-.596 1.463-2.163 2.507-3.845 2.772-.165-.02-.505.094-.67.075s-.496-.057-.661-.077l-.33-.038-.33-.038-.496-.058-2.146-.249c-5.779-.67-11.394-1.321-17.173-1.991l-6.099-.861-.166-.019-.165-.019c-.165-.019-.33-.038-.495-.057-.33-.039-.65-.229-.971-.419-.475-.362-.94-.875-1.24-1.37-.145-.323-.29-.646-.269-.95l.01-.152s.01-.152.02-.304l.01-.152.01-.152c.01-.152.01-.152.01-.152.041-.608.411-1.178.937-1.577.36-.417 1.041-.645 1.712-.72.165.019.33.038.505-.095.165.019.33.039.495.058l.826.095 2.972.345c1.982.23 3.963.46 6.11.709 3.963.459 8.091.938 12.054 1.397 1.981.23 3.963.46 6.109.709l1.817.211c-.145-.324-.125-.628-.445-.818-.6-.989-1.56-1.56-2.706-1.846l-4.293-.498c-1.487-.172-2.808-.325-4.294-.497-2.807-.326-5.789-.519-8.596-.844-5.459-.48-10.878-1.568-16.233-1.1166-1 .0371-2.352.34-3.878.7758-4.229 1.0418-9.54 3.3358-12.559 6.2028zm49.653 21.5368c-1.982-.23-3.963-.46-6.11-.709-3.963-.459-8.091-.938-12.064-1.245-1.981-.23-3.973-.308-6.12-.557l-2.972-.345-.66-.076c-.165-.019-.165-.019-.33-.038-.166-.02-.166-.02-.331-.039-.34.114-.68.228-.866.513-.525.398-.586 1.31-.286 1.805.145.323.455.665.61.836.155.172.32.191.485.21l.33.038.166.019.165.019 6.119.557c5.79.518 11.404 1.169 17.193 1.687l2.147.249.495.058.33.038.166.019c.165.019.165.019.33.038.165.02.33.039.34-.113 1.011-.189 2.052-.835 2.443-1.709.196-.436.216-.74.246-1.197z" fill="#fcbf35"/><path d="m365.981 104.592c.189-.298.547-.575 1.052-.515l.842.1-.144 2.224-.842-.101c-.506-.06-.832-.258-.98-.596z" fill="#89130a"/><path d="m311.561 83.9505-1.584 23.8185-1.447-.134 1.584-23.8184z" fill="#89130a"/><path d="m392.792 177.125-42.664-4.716c11.708-27.161 18.167-42.13 19.061-52.541.034-.481 1.108-1.332 1.601-1.116 3.292 1.334 6.606-2.504 10.581-3.681 9.174 16.535 11.193 36.16 11.421 62.054z" fill="#0202b2"/><path d="m351.432 114.278c.908-1.018 3.609-1.359 3.598-3.597-1.008.048-2.059.731-3.012-.013-.631-.549-1.362-2.068-.52-2.135 1.527-.311 4.639.672 6.654.575-1.119-3.159-9.202-4.851-11.649-3.364-3.155 2.049-3.342 7.141-2.401 10.441 1.163.128 2.403-.853 3.765-1.182 1.528-.311 2.856-.164 3.565-.725z" fill="#ffd7a8"/><path d="m377.794 114.815c-12.23-1.191-22.031 37.876-27.471-.297l-7.632.607c-7.871 42.828 13.676 45.857 22.6 36.363-2.351 19.251-5.997 35.295 8.564 36.906 7.03.778 14.562 1.611 22.763 2.518 5.296-22.795-2.006-56.015-9.753-73.158-.29-.677-.881-1.871-2.555-2.057-1.495-.326-3.671-.567-6.516-.882z" fill="#fff"/><path d="m357.931 99.4432c-2.313-2.6227-3.35-6.8424-6.919-8.1816s-7.127-.4662-6.741 3.5242c1.619.6515 1.927-1.3677 3.426-1.3612-.199.452.066 1.4285.716 1.6578 1.135.4403.727-.8678 1.399-.952 1.167-.0298 2.324 2.466 3.261.9895.815.2474 1.399 1.4169 2.027 1.9596.782.7175 1.906 1.3146 2.831 2.3637z" fill="#ffd7a8"/><path d="m382.176 116.94c-1.714-2.965-6.297-6.661-10.916 2.269-5.773 11.162-15.31 18.743-16.926 11.884-1.292-5.487-2.699-12.019-3.241-14.599l-9.821 2.285c-1.373 19.09 1.334 52.101 23.143 31.422-2.668 8.561-6.885 27.728-2.408 35.907 4.476 8.178 23.754 3.721 32.834.471 1.47-11.078-2.228-35.621-4.288-46.587" stroke="#e8140f" stroke-width=".890929"/><g mask="url(#a)" opacity=".5"><g opacity=".7"><g fill="#8787e1"><ellipse cx="2.75268" cy="3.35217" rx="2.75268" ry="3.35217" transform="matrix(-.978925 -.122802 -.152861 1.00092 259.039 48.1548)"/><path d="m0 0h2.75799v8.54709h-2.75799z" transform="matrix(-.787337 -.592736 -.575722 .834425 293.82 81.3853)"/><path d="m0 0h2.75799v8.5471h-2.75799z" transform="matrix(-.787337 -.592736 -.575722 .834425 253.641 35.2339)"/><rect height="8.48347" rx="1.35894" transform="matrix(-.941662 .331553 .253284 .96987 307.438 98.3188)" width="2.71788"/><rect height="8.48348" rx="1.35894" transform="matrix(-.941663 .331551 .253286 .96987 267.258 52.1675)" width="2.71787"/><ellipse cx="2.74615" cy="2.84877" rx="2.74615" ry="2.84877" transform="matrix(.803572 .569945 .549825 -.852098 261.312 22.8179)"/><path d="m0 0h2.80194v8.35822h-2.80194z" transform="matrix(.435735 .896044 .866554 -.507333 300.445 83.1436)"/><path d="m0 0h2.80193v8.35821h-2.80193z" transform="matrix(.435734 .896045 .866554 -.507333 260.266 36.9937)"/><rect height="8.60127" rx="1.38781" transform="matrix(.975779 .143393 .174644 -.997703 295.484 61.1084)" width="2.77563"/><ellipse cx="2.80546" cy="2.77165" rx="2.80546" ry="2.77165" transform="matrix(-.410825 -.908662 -.877189 .487339 256.18 83.5654)"/><ellipse cx="2.80545" cy="2.77164" rx="2.80545" ry="2.77164" transform="matrix(-.410825 -.908662 -.877189 .487339 216.008 37.4155)"/><ellipse cx="2.72571" cy="2.83811" rx="2.72571" ry="2.83811" transform="matrix(.969117 -.225579 -.160115 -.992393 217.586 96.3506)"/><path d="m0 0h2.84599v8.21081h-2.84599z" transform="matrix(.0406349 -1.00956 -.989075 .00197876 263.617 71.3828)"/><path d="m0 0h2.84599v8.21082h-2.84599z" transform="matrix(.0406349 -1.00956 -.989075 .00197877 190.367 67.0688)"/><path d="m0 0h2.76024v8.60379h-2.76024z" transform="matrix(.944108 .279445 .296087 -.970135 226.148 106.631)"/><rect height="8.53232" rx="1.38039" transform="matrix(-.757372 -.631668 -.611331 .808002 257.68 93.7871)" width="2.76078"/><rect height="8.53234" rx="1.38039" transform="matrix(-.757372 -.631668 -.611331 .808002 217.492 47.6372)" width="2.76079"/><rect height="8.34053" rx="1.39489" transform="matrix(.789956 -.62622 -.547919 -.827636 207.867 95.6831)" width="2.78978"/><ellipse cx="2.85196" cy="2.75915" rx="2.85196" ry="2.75915" transform="matrix(-.0124597 1.00967 .989248 -.0329454 277.141 70.5825)"/><ellipse cx="2.85196" cy="2.75915" rx="2.85196" ry="2.75915" transform="matrix(-.0124576 1.00967 .989248 -.0329436 161.492 65.9941)"/><ellipse cx="2.73835" cy="2.86935" rx="2.73835" ry="2.86935" transform="matrix(-.95214 -.251706 -.266546 .978384 222.531 120.836)"/><path d="m0 0h2.86005v8.188h-2.86005z" transform="matrix(-.450587 .909249 .867583 .46473 265.695 78.3037)"/><path d="m0 0h2.86005v8.18801h-2.86005z" transform="matrix(-.450588 .909249 .867583 .46473 225.492 32.1548)"/><path d="m0 0h2.76661v8.50488h-2.76661z" transform="matrix(-.704425 -.692243 -.667479 .760734 219.227 107.312)"/><rect height="8.33598" rx="1.40367" transform="matrix(.394021 .916692 .887993 -.465812 280.102 60.4492)" width="2.80734"/><rect height="8.33598" rx="1.40367" transform="matrix(.394021 .916692 .887993 -.465812 291.414 59.5454)" width="2.80734"/><rect height="8.52768" rx="1.34365" transform="matrix(-.972741 .206717 .13816 .996325 230.688 126.033)" width="2.6873"/><path d="m0 0h2.75799v8.5471h-2.75799z" transform="matrix(-.787337 -.592736 -.575722 .834425 234.195 78.9673)"/><path d="m0 0h2.79882v8.32051h-2.79882z" transform="matrix(.761702 -.66202 -.586231 -.799379 298.719 155.125)"/><path d="m0 0h2.80193v8.35821h-2.80193z" transform="matrix(.435734 .896045 .866554 -.507333 260.266 36.9937)"/><rect height="8.18175" rx="1.43192" transform="matrix(-.414013 .926526 .888293 .423508 191.945 112.217)" width="2.86385"/><ellipse cx="2.72572" cy="2.8381" rx="2.72572" ry="2.8381" transform="matrix(.969116 -.225581 -.160113 -.992393 299.078 76.3545)"/><ellipse cx="2.85196" cy="2.75915" rx="2.85196" ry="2.75915" transform="matrix(-.0124576 1.00967 .989248 -.0329436 277.141 70.5825)"/><ellipse cx="2.85196" cy="2.75915" rx="2.85196" ry="2.75915" transform="matrix(-.0124565 1.00967 .989248 -.0329428 168.773 112.569)"/><ellipse cx="2.85196" cy="2.75915" rx="2.85196" ry="2.75915" transform="matrix(-.0124576 1.00967 .989248 -.0329436 257.734 114.312)"/><ellipse cx="2.85196" cy="2.75914" rx="2.85196" ry="2.75914" transform="matrix(-.0124586 1.00967 .989248 -.0329446 217.555 68.1602)"/><rect height="8.44001" rx="1.33232" transform="matrix(-.929579 .322255 .264344 .97989 267.141 52.1689)" width="2.66463"/><rect height="8.44" rx="1.33231" transform="matrix(-.92958 .322254 .264346 .979889 198.508 136.616)" width="2.66462"/><rect height="8.43998" rx="1.33232" transform="matrix(-.929579 .322256 .264343 .97989 145.469 121.793)" width="2.66463"/><rect height="8.44" rx="1.33232" transform="matrix(-.929579 .322257 .264342 .97989 247.727 95.8999)" width="2.66464"/><rect height="8.17295" rx="1.40789" transform="matrix(-.403889 .920141 .895173 .431611 306.617 121.744)" width="2.81577"/><rect height="8.40699" rx="1.41912" transform="matrix(.40684 .928082 .874718 -.454664 220.461 57.9697)" width="2.83824"/></g><rect fill="#e8140f" height="8.5945" rx="1.39563" transform="matrix(-.769538 -.640669 -.600272 .796994 301.555 32.9756)" width="2.79126"/><ellipse cx="2.80075" cy="2.83065" fill="#e8140f" rx="2.80075" ry="2.83065" transform="matrix(-.976806 -.134788 -.139162 1.00234 280.266 85.167)"/><ellipse cx="2.80075" cy="2.83065" fill="#e8140f" rx="2.80075" ry="2.83065" transform="matrix(-.976806 -.134788 -.139162 1.00234 195.773 143.486)"/><ellipse cx="2.80075" cy="2.83066" fill="#e8140f" rx="2.80075" ry="2.83066" transform="matrix(-.976806 -.134788 -.139162 1.00234 204.711 139.787)"/><path d="m0 0h2.79207v8.60251h-2.79207z" fill="#e8140f" transform="matrix(-.798835 -.601156 -.565163 .823969 287.75 41.0225)"/><path d="m0 0h2.82936v8.43251h-2.82936z" fill="#e8140f" transform="matrix(.448589 .907558 .853193 -.496088 240.844 80.6655)"/><ellipse cx="2.70755" cy="2.8539" fill="#e8140f" rx="2.70755" ry="2.8539" transform="matrix(.959908 -.213292 -.174135 -.999992 160.836 89.1499)"/><path d="m0 0h2.74085v8.3023h-2.74085z" fill="#e8140f" transform="matrix(.023981 -1.0135 -.98419 -.0134391 177.219 51.2505)"/><path d="m0 0h2.83962v8.58957h-2.83962z" fill="#e8140f" transform="matrix(.947059 .286379 .286876 -.966868 226.148 106.584)"/><rect fill="#e8140f" height="8.2678" rx="1.38311" transform="matrix(.77564 -.615652 -.559785 -.840241 299.156 115.187)" width="2.76622"/><ellipse cx="2.7771" cy="2.83752" fill="#e8140f" rx="2.7771" ry="2.83752" transform="matrix(-.953644 -.261218 -.255058 .97661 222.539 120.904)"/><ellipse cx="2.77711" cy="2.83753" fill="#e8140f" rx="2.77711" ry="2.83753" transform="matrix(-.953644 -.261218 -.255058 .97661 320.812 88.5645)"/><path d="m0 0h2.7762v8.24798h-2.7762z" fill="#0202b2" transform="matrix(.747589 -.651308 -.598226 -.811828 174.297 106.091)"/><rect fill="#0202b2" height="8.44055" rx="1.33264" transform="matrix(-.929735 .322405 .264207 .979757 307.352 98.3193)" width="2.66528"/><rect fill="#0202b2" height="8.55464" rx="1.44289" transform="matrix(.974514 .152622 .16346 -.998182 295.469 61.0674)" width="2.88578"/><ellipse cx="2.80687" cy="2.77026" fill="#0202b2" rx="2.80687" ry="2.77026" transform="matrix(-.423888 -.919865 -.864179 .475764 256.195 83.6328)"/><ellipse cx="2.80688" cy="2.77026" fill="#0202b2" rx="2.80688" ry="2.77026" transform="matrix(-.423889 -.919865 -.86418 .475764 216 37.4839)"/><ellipse cx="2.70756" cy="2.8539" fill="#0202b2" rx="2.70756" ry="2.8539" transform="matrix(.959911 -.213299 -.174128 -.999989 217.656 96.3521)"/><rect fill="#0202b2" height="8.59447" rx="1.39563" transform="matrix(-.769534 -.640666 -.600276 .796999 238.297 137.563)" width="2.79125"/><rect fill="#0202b2" height="8.26781" rx="1.38312" transform="matrix(.775645 -.615657 -.55978 -.840237 195.211 53.2095)" width="2.76623"/><rect fill="#0202b2" height="8.50582" rx="1.30526" transform="matrix(-.963425 .196617 .150156 1.00385 230.578 126.038)" width="2.61052"/><rect fill="#0202b2" height="8.50581" rx="1.30526" transform="matrix(-.963424 .196619 .150154 1.00385 197.359 96.5093)" width="2.61052"/><ellipse cx="2.75631" cy="2.84201" fill="#ffe5e4" rx="2.75631" ry="2.84201" transform="matrix(.813738 .579394 .538403 -.842925 261.32 22.7549)"/><ellipse cx="2.75631" cy="2.84201" fill="#ffe5e4" rx="2.75631" ry="2.84201" transform="matrix(.813738 .579394 .538403 -.842925 275.094 114.591)"/><path d="m0 0h2.82937v8.43254h-2.82937z" fill="#ffe5e4" transform="matrix(.448596 .907566 .853185 -.496081 281.055 126.816)"/><ellipse cx="2.80689" cy="2.77026" fill="#ffe5e4" rx="2.80689" ry="2.77026" transform="matrix(-.423901 -.919877 -.864167 .475751 196.578 81.2129)"/><path d="m0 0h2.74075v8.30236h-2.74075z" fill="#ffe5e4" transform="matrix(.0239686 -1.01351 -.984187 -.0134505 318.805 78.5083)"/><path d="m0 0h2.81744v8.16937h-2.81744z" fill="#ffe5e4" transform="matrix(-.440321 .902053 .875452 .473014 265.648 78.3052)"/><path d="m0 0h2.79261v8.57599h-2.79261z" fill="#ffe5e4" transform="matrix(-.717368 -.702194 -.655594 .749086 219.25 107.36)"/><rect fill="#ffe5e4" height="8.40608" rx="1.41891" transform="matrix(.4067 .927936 .874879 -.45481 280.109 60.3911)" width="2.83781"/><ellipse cx="3.2567" cy="2.82593" fill="#ef8986" rx="3.2567" ry="2.82593" transform="matrix(-.976793 -.134938 -.139009 1.00237 239.125 92.5767)"/><path d="m0 0h2.79191v8.60227h-2.79191z" fill="#ef8986" transform="matrix(-.798788 -.601114 -.565209 .824018 253.609 35.2808)"/><path d="m0 0h2.77631v8.24825h-2.77631z" fill="#ef8986" transform="matrix(.747642 -.651358 -.598178 -.811778 288.984 115.62)"/><ellipse cx="2.75626" cy="2.84204" fill="#ef8986" rx="2.75626" ry="2.84204" transform="matrix(.813689 .579343 .538457 -.842976 241.875 66.4844)"/><ellipse cx="2.75626" cy="2.84206" fill="#ef8986" rx="2.75626" ry="2.84206" transform="matrix(.81369 .579342 .538459 -.842975 126.234 100.417)"/><rect fill="#ef8986" height="8.55483" rx="1.44267" transform="matrix(.974521 .152584 .163502 -.998182 276.023 104.796)" width="2.88534"/><rect fill="#ef8986" height="8.55483" rx="1.44267" transform="matrix(.974521 .152584 .163502 -.998182 175.641 160.233)" width="2.88534"/><path d="m0 0h2.39912v7.26518h-2.39912z" fill="#ef8986" transform="matrix(.0240528 -1.01349 -.984213 -.0133698 207.812 65.751)"/><rect fill="#ef8986" height="8.59421" rx="1.39556" transform="matrix(-.769489 -.640625 -.600321 .797045 217.461 47.6821)" width="2.79112"/><rect fill="#ef8986" height="8.59422" rx="1.39557" transform="matrix(-.769488 -.640625 -.60032 .797046 198.055 91.4121)" width="2.79114"/><rect fill="#ef8986" height="8.2681" rx="1.38316" transform="matrix(.7757 -.615705 -.559734 -.840184 289.367 75.6865)" width="2.76631"/><path d="m0 0h2.81767v8.16947h-2.81767z" fill="#ef8986" transform="matrix(-.440368 .902094 .875414 .472971 246.195 122.038)"/><rect fill="#ef8986" height="8.50588" rx="1.3054" transform="matrix(-.963462 .196668 .150109 1.00382 314.375 28.7539)" width="2.6108"/><ellipse cx="2.81054" cy="3.30792" fill="#f2b3a7" rx="2.81054" ry="3.30792" transform="matrix(-.976857 -.134422 -.13954 1.00229 298.852 93.4238)"/><ellipse cx="2.81054" cy="3.30793" fill="#f2b3a7" rx="2.81054" ry="3.30793" transform="matrix(-.976857 -.134421 -.139542 1.00229 259 48.2251)"/><path d="m0 0h2.77634v8.24841h-2.77634z" fill="#f2b3a7" transform="matrix(.747673 -.651386 -.598152 -.811747 296.656 142.554)"/><path d="m0 0h2.82914v8.43196h-2.82914z" fill="#f2b3a7" transform="matrix(.448511 .907476 .853283 -.496169 300.406 83.0771)"/><ellipse cx="2.70765" cy="2.85377" fill="#f2b3a7" rx="2.70765" ry="2.85377" transform="matrix(.959969 -.213386 -.174046 -.99994 312.852 6.83887)"/><rect fill="#f2b3a7" height="8.59406" rx="1.39553" transform="matrix(-.769462 -.640602 -.600345 .797073 257.672 93.8267)" width="2.79106"/><ellipse cx="2.88194" cy="2.79519" fill="#f2b3a7" rx="2.88194" ry="2.79519" transform="matrix(.00518409 1.01408 .983859 -.0171413 273.023 52.7788)"/><path d="m0 0h2.81776v8.16949h-2.81776z" fill="#f2b3a7" transform="matrix(-.440389 .902113 .875397 .472951 225.398 32.145)"/><path d="m0 0h2.81776v8.16949h-2.81776z" fill="#f2b3a7" transform="matrix(-.440389 .902113 .875397 .472951 206 75.876)"/><ellipse cx="2.34395" cy="2.83597" fill="#c9c9fb" rx="2.34395" ry="2.83597" transform="matrix(-.976855 -.134409 -.139553 1.00229 279.023 137.745)"/><path d="m0 0h2.79197v8.60235h-2.79197z" fill="#c9c9fb" transform="matrix(-.798804 -.601128 -.565194 .824001 293.805 81.4219)"/><rect fill="#c9c9fb" height="8.44065" rx="1.3327" transform="matrix(-.929765 .322432 .264182 .979731 287.938 142.042)" width="2.66539"/><rect fill="#c9c9fb" height="8.55476" rx="1.44275" transform="matrix(.974519 .152596 .163489 -.998181 235.852 58.6421)" width="2.8855"/><rect fill="#c9c9fb" height="8.55475" rx="1.44275" transform="matrix(.974519 .152597 .163488 -.998182 156.242 116.137)" width="2.8855"/><ellipse cx="2.7076" cy="2.85385" fill="#c9c9fb" rx="2.7076" ry="2.85385" transform="matrix(.959934 -.213334 -.174094 -.99997 308.883 115.851)"/><path d="m0 0h2.74125v8.30204h-2.74125z" fill="#c9c9fb" transform="matrix(.0240274 -1.01349 -.984205 -.0133941 263.656 71.3926)"/><path d="m0 0h2.74125v8.30203h-2.74125z" fill="#c9c9fb" transform="matrix(.0240286 -1.01349 -.984205 -.0133932 244.258 115.123)"/><rect fill="#c9c9fb" height="8.26799" rx="1.38314" transform="matrix(.77568 -.615687 -.559751 -.840204 207.906 95.6763)" width="2.76628"/><ellipse cx="2.777" cy="2.83763" fill="#c9c9fb" rx="2.777" ry="2.83763" transform="matrix(-.953641 -.261188 -.25509 .976616 189.273 91.376)"/><ellipse cx="2.777" cy="2.83763" fill="#c9c9fb" rx="2.777" ry="2.83763" transform="matrix(-.953641 -.261188 -.255091 .976616 313.773 140.41)"/><path d="m0 0h2.79251v8.57572h-2.79251z" fill="#c9c9fb" transform="matrix(-.717326 -.702155 -.655636 .74913 185.984 77.8247)"/><rect fill="#c9c9fb" height="8.40581" rx="1.41885" transform="matrix(.406662 .927893 .874926 -.45485 200.766 45.335)" width="2.8377"/><rect fill="#c9c9fb" height="8.4058" rx="1.41885" transform="matrix(.406662 .927893 .874926 -.45485 260.695 104.116)" width="2.8377"/><rect fill="#c9c9fb" height="8.50585" rx="1.30535" transform="matrix(-.963448 .196649 .150126 1.00383 312.438 49.8486)" width="2.61069"/></g></g><path d="m168.641 151.551 19.516 68.549 14.271 50.497h10.368l-15.125-119.046z" fill="#5e5e5e"/><path d="m163.4 151.551c-.488 35.372-1.952 54.522-2.44 57.815-.488 3.172-7.685 23.663-21.468 61.231h10.734c17.687-36.104 27.445-56.474 29.518-61.231 2.074-4.757 8.417-24.029 17.931-57.815z" fill="#747474"/><path d="m138.516 280.355.488-11.344h11.343c5.367 3.781 12.32 6.831 20.98 9.148v2.196h-20.492l-6.952-1.098v1.098z" fill="#3e0444"/><path d="m200.969 280.355.488-11.344h11.344c5.366 3.781 12.319 6.831 20.979 9.148v2.196h-20.492l-6.952-1.098v1.098z" fill="#3e0444"/><path d="m177.169 83.733c-2.439-2.9273-4.147-6.4646-3.903-10.4897.854-11.4655 16.833-9.026 20.004-3.1713 3.172 5.8547 2.806 20.6135-1.342 21.5893-1.585.3659-5.001-.6099-8.538-2.6834l2.196 15.4911h-12.93z" fill="#ffc5aa"/><path d="m188.624 63.7303c-1.707-.4879-4.269-.7319-5.367-.6099.61-1.4637.854-3.0493.61-4.757-.244-1.5856-.854-2.9273-1.585-4.269-.244-.6099-.61-1.2198-1.098-1.7077s-1.098-.8538-1.83-.9758c-.732-.1219-1.463-.1219-2.073 0-.366.122-.61.244-.854.244-.366.122-.488-.122-.732-.3659-.488-.4879-1.342-.7319-1.952-.7319-.732-.1219-1.585 0-2.317.244-.732.2439-1.342.6098-1.952 1.2197-.244.244-.488.6099-.61.8538 0 .122-.122.244-.244.244s-.244 0-.366.1219c-1.219.366-2.317 1.3418-2.805 2.5615-.366.7318-.488 1.9516-.488 3.2933s1.342 5.0009 2.439 6.3426c1.098 1.2197 2.562 1.9516 4.026 2.3175-.976 1.0978-1.708 2.5614-2.196 4.0251-.488 1.5857-.854 3.1713-.976 4.8789-.122 1.5857-.122 3.1714.244 4.757.366 1.4637 1.098 2.5615 2.318 3.4153.61.3659 1.22.6098 1.829.8538.61.2439 1.22.4879 1.83.6099 1.22.2439 2.562.2439 3.537-.7319.366-.3659.732-.7318.976-1.2197.122-.122.122-.244 0-.3659-.122-.122-.366-.366-.488-.4879-.975-.7319-1.463-1.8296-1.585-3.0494-.122-1.2197.244-2.9273 1.463-3.4152 1.464-.7319 3.172.1219 4.514.8538.609-2.0736 1.707-3.7812 3.537-4.757 2.073-.9758 4.391-1.0977 6.464-2.0735.488-.244 1.098-.4879 1.464-.9758.122-.244.366-.4879.488-.7319.122-.3659-.122-.6098-.244-.8538-.732-1.3417-4.147-4.1471-5.977-4.7569z" fill="#fff"/><path d="m184.458 75.8219c-.577-.3033-1.224-.6092-1.888-.7916-.825-.2263-1.717-.2737-2.557.1414-.739.3015-1.188.957-1.436 1.6507-.25.7002-.314 1.4891-.249 2.1465.129 1.2873.647 2.4866 1.713 3.2971l.399.399v.0008c-.213.4247-.533.7497-.905 1.1216-.836.8362-2.009.8663-3.197.6287-.57-.114-1.147-.3436-1.763-.5902-.609-.2436-1.188-.4759-1.765-.8202-1.134-.7974-1.812-1.813-2.156-3.1868-.353-1.5313-.355-3.0726-.234-4.6398v-.0021c.119-1.6685.476-3.2233.958-4.7906.478-1.4318 1.189-2.8431 2.119-3.8896l.414-.4656-.605-.1511c-1.406-.3517-2.795-1.05-3.83-2.1972-.507-.6233-1.097-1.8213-1.565-3.059-.232-.6148-.43-1.2267-.569-1.764-.141-.5445-.215-.9874-.215-1.2739 0-1.3438.127-2.4808.448-3.1245l.007-.0141.006-.0146c.445-1.1105 1.452-2.0065 2.564-2.3401l.091-.0274.067-.0672c.004-.0042.007-.0066.009-.0077.003-.0006.009-.0018.022-.0026.017-.0011.036-.0012.068-.0012.184 0 .336-.088.435-.1867.077-.0773.148-.1876.175-.3202.115-.2128.318-.508.511-.7014.569-.5687 1.128-.9033 1.804-1.1286.693-.2309 1.483-.3386 2.136-.2297l.031.0052h.031c.544 0 1.289.2249 1.685.6213.037.0364.066.0689.1.106.017.0189.036.0391.057.0615.054.0582.125.1314.211.1929.091.0651.204.121.343.1408.117.0168.234.0051.349-.0265.16-.0086.307-.0498.439-.0939.07-.023.142-.0494.212-.0752l.018-.0065c.071-.026.143-.0523.221-.0785.553-.107 1.228-.1076 1.914.0067.641.1068 1.182.4274 1.625.8705.445.4449.785 1.0087 1.014 1.5809l.009.0208.01.0198c.724 1.3266 1.31 2.6227 1.544 4.1437.233 1.6359 0 3.1525-.585 4.5565l-.246.5908.636-.0707c.507-.0563 1.39-.0295 2.373.0764.974.1049 2.015.2839 2.841.519.847.2849 2.111 1.1003 3.275 2.0374.577.4651 1.119.9507 1.558 1.3995.443.4519.763.8469.921 1.1351.034.0659.073.131.104.1822.005.0079.01.0155.014.0227.038.0621.065.1091.085.1539.03.0681.039.1175.024.1767-.043.0788-.108.1664-.195.2823l-.009.012c-.078.1048-.177.2369-.252.377-.14.1778-.331.3237-.558.4575-.173.1014-.346.185-.525.2718-.074.0357-.149.072-.226.1103-.997.4684-2.057.7347-3.159 1.0102l-.017.0041c-1.087.2718-2.215.5537-3.285 1.0573l-.008.0041-.009.0044c-1.81.9658-2.929 2.5989-3.582 4.5419z" stroke="#e83d0f" stroke-width=".754627"/><path d="m194.741 78.6108c0 2.1956 2.318 4.0252 2.318 6.2207-.854.2439-1.83.3659-2.684.4879" fill="#ffc5aa"/><path d="m194.378 88.4906c-.732.244-1.586.122-2.195-.2439-.61-.3659-1.22-.9758-1.464-1.7076.732.3659 1.22.6098 1.829.9758.488.2439 1.098.4879 1.83.9757z" fill="#a81e63"/><path d="m190.954 77.635c-.122-.3659.122-.8538.488-1.0978.243-.2439.731-.3659 1.097-.4879.366 0 .732 0 1.098.122s.61.4879.732.8538c-.366-.122-.61-.122-.976-.2439-.244 0-.61 0-.854 0s-.488.1219-.854.1219c-.122.366-.487.4879-.731.7319z" fill="#a81e63"/><path d="m193.399 79.709c.337 0 .61-.2731.61-.6099s-.273-.6098-.61-.6098-.61.273-.61.6098.273.6099.61.6099z" fill="#a81e63"/><path d="m217.183 133.988 19.516-8.538c3.416-3.415 6.709-5.976 9.88-7.806.976-.244 2.562-.366.854 2.196-1.708 2.561-3.415 5.244-2.805 6.22.732.854 2.683-.122 3.537 1.342.488.976-2.805 2.073-10.124 3.415l-14.637 11.222zm-78.918 2.44 10.977 2.195c-11.099 20.736-17.076 31.592-17.808 32.933-1.83 2.806-.122 7.929.488 10.612-3.903.854-2.318-5.001-7.319-3.781-4.513 1.098-8.416 4.025-12.563.122-.488-.488-.854-1.952.854-2.684 4.391-1.951 10.977-5.488 11.953-6.83 1.464-2.074 5.855-12.807 13.418-32.567z" fill="#ffc5aa"/><path d="m179.25 95.0789 4.635-.8538c10.124 9.8799 14.271 33.4209 21.102 36.5919 6.343 2.927 15.491.122 26.225-3.781l3.293 7.318c-9.758 10.612-30.616 19.516-39.032 14.393-13.54-7.928-16.711-37.08-16.223-53.6681z" fill="#e8140f"/><path d="m159 153.626h41.228c1.83 0 1.586-2.683 1.22-4.147-3.172-15.857-15.369-32.933-15.369-55.498l-11.832-1.8296c-9.88 15.8566-13.295 35.3726-15.247 61.4746z" fill="#fff"/><path d="m154.858 137.648c-8.416 15.125-15.491 26.102-21.224 32.689l-18.337-24.687c5.611-34.518 31.389-37.032 57.979-53.3761h.122 4.513c10.612 36.3481 13.662 60.6211 8.783 72.6961h-37.081c.854-8.904 2.684-18.174 5.245-27.322z" fill="#e8140f"/><path d="m133.273 160.441 19.761 67.94 9.27 51.107h9.27l-9.27-119.047z" fill="#d1906b"/><path d="m124.367 160.441c1.342 35.373.854 54.523.488 57.816-.366 3.171-2.073 24.638-14.027 62.328h9.636c15.735-36.104 21.346-57.571 23.054-62.328 1.829-4.757 7.196-24.029 15.003-57.816z" fill="#d1906b"/><path d="m159.668 272.036c-12.445-50.749-21.29-87.82-26.418-111.217h28.769c7.357 24.511 11.589 58.942 10.644 111.217z" fill="#fff" stroke="#e8140f" stroke-width=".754627"/><path d="m125.708 272.646h-13.786c10.61-42.109 14.134-76.681 12.837-111.827h35.627c-7.661 42.123-18.94 76.56-34.678 111.827z" fill="#fff" stroke="#e8140f" stroke-width=".754627"/><path d="m109.609 287.537.488-8.66c3.172.976 7.075.61 11.71-1.098 5.123 3.538 11.466 5.977 19.15 7.319.61.122.976.61.854 1.219v.122l-.732 2.562h-19.272-11.222z" fill="#2d2925"/><path d="m160.234 287.537.488-8.66c3.172.976 7.075.61 11.71-1.098 5.123 3.538 11.466 5.977 19.15 7.319.61.122.976.61.854 1.219v.122l-.732 2.562h-19.272-11.222z" fill="#2d2925"/><path d="m138.021 92.5021c-2.44-2.9274-4.147-6.4646-3.903-10.4897.854-11.4655 16.832-9.0261 20.004-3.1713 3.171 5.8547 2.805 20.6135-1.342 21.5889-1.586.366-5.001-.6095-8.538-2.6831l2.195 15.4911h-12.929z" fill="#d1906b"/><path d="m137.043 95.1854c-1.585-7.1964-6.221-12.0754-5.489-15.3686.488-2.1956 1.708-3.5373 3.782-4.0252 1.097-4.269 4.513-6.0986 10.246-5.4888 8.66.9758 13.905 4.513 11.587 12.4413-2.073 0-4.635-.7318-8.05.4879-1.098.3659-1.952 1.7076-2.318 3.7812h-1.585c-1.586-2.5615-3.05-3.4153-4.513-2.8054-1.464.7319-1.83 2.3175-.976 4.879l-.732 5.9766h-1.952z" fill="#e3d1dc"/><path d="m155.827 87.8667c.488 1.5857.854 3.2933 1.098 4.8789.244 1.8296.122 2.8054-2.073 2.5615" fill="#d1906b"/><path d="m153.754 86.6472c-.609-.122-1.097-.244-1.585-.3659-.488 0-1.098-.0001-1.708-.122.244-.122.488-.244.854-.366.244-.1219.61-.1219.976-.1219.487.122 1.097.4879 1.463.9758z" fill="#770649"/><path d="m152.904 89.0867c.404 0 .732-.3276.732-.7318s-.328-.7319-.732-.7319-.732.3277-.732.7319.328.7318.732.7318z" fill="#770649"/><path d="m154.849 97.8698c-.488.244-1.097.3659-1.707.122-.61-.244-.854-.7318-1.22-1.0978.244 0 .61.122.854.244s.488.2439.731.3659c.244.122.854.122 1.342.3659z" fill="#770649"/><path d="m175.228 151.782 16.101 11.832c4.391 1.219 8.051 2.683 10.978 4.391.732.61 1.586 1.951-1.342 1.707-2.927-.244-5.976-.366-6.342.61s1.341 2.196.487 3.537c-.487.854-3.049-1.341-7.562-6.586l-15.979-6.587zm-62.085.366h10.612c-6.587 21.102-10.002 32.323-10.612 33.543-1.22 2.927 1.341 7.318 2.317 9.758-3.415 1.585-3.049-4.147-7.44-2.196-4.026 1.83-6.953 5.245-11.588 2.318-.6099-.366-1.2199-1.708.3658-2.684 3.7812-2.561 9.1482-7.074 9.8802-8.538.976-1.829 3.171-12.563 6.465-32.201z" fill="#d1906b"/><path d="m143.277 107.749 4.391-.731c16.223 14.027 22.931 40.983 42.814 55.254l-4.758 5.976c-34.641-4.269-43.179-37.202-42.447-60.499z" fill="#8787e1"/><path d="m124.125 162.759h38.788c1.83 0 1.464-2.562 1.22-3.903-2.927-14.881-14.515-30.982-14.515-52.083l-11.222-1.708c-9.27 14.881-12.441 33.177-14.271 57.694z" fill="#c9c9fb"/><path d="m124.483 119.703c-1.586-.488-2.928-1.586-3.904-3.294-4.025-7.318-2.561-11.465 1.708-12.807 4.391-1.342 8.295 1.464 15.247 1.464.366 0 .732 0 1.098.122l3.537.244c10.002 34.03 12.808 56.717 8.295 68.061h-30.494c-1.83 4.269-3.538 7.806-5.245 10.612h-8.295c-.854-25.371 5.245-46.838 18.053-64.402z" fill="#8787e1"/><path d="m126.56 155.929c.976 8.05 2.562 13.905 4.635 17.442h-11.343c2.195-4.879 4.391-10.612 6.708-17.442z" fill="#4f4fd1"/><path d="m111.635 124.305c4.391-2.44 11.587-5.286 13.417-4.879l-8.538 12.807 1.219 3.659-7.928 4.879c-2.44-2.439-3.659-13.417 1.83-16.466z" fill="#e8140f"/><path d="m118.35 150.528c-3.903-1.951-6.506-7.725-7.319-10.367l5.489-4.269c.61.406 2.318 1.707 4.269 3.659 2.44 2.439 2.44 3.659 1.83 3.659s-4.269-1.22-3.659 0c.488.976 3.049 5.692 4.269 7.928 0 .61-.976 1.342-4.879-.61z" fill="#fce4d9"/></svg>