<svg width="260" height="152" viewBox="0 0 260 152" fill="none" xmlns="http://www.w3.org/2000/svg">
<mask id="mask0" mask-type="alpha" maskUnits="userSpaceOnUse" x="0" y="0" width="260" height="152">
<rect width="260" height="152" transform="matrix(-1 0 0 1 260 0)" fill="#C4C4C4"/>
</mask>
<g mask="url(#mask0)">
<path d="M43.9283 67.7415C32.5842 76.5011 28.0575 86.1229 25.4941 95.1343C23.1166 103.784 22.3174 112.734 29.3848 119.055C36.903 125.785 51.9037 128.545 66.6128 130.909C96.9725 135.892 130.277 139.959 167.154 134.337C204.189 128.726 245.01 110.438 251.344 91.1876C256.629 75.4277 238.355 64.7403 225.069 53.6586C205.749 37.4549 186.917 27.8536 139.284 34.0212C109.398 38.0789 63.5515 52.8181 43.9283 67.7415Z" fill="#FFEDED"/>
<path d="M122.744 143.311L150.313 141.274C156.318 143.01 161.576 143.984 166.315 144.149C167.555 143.893 169.495 143.034 165.95 141.247C162.405 139.46 158.791 137.344 159.083 135.909C159.374 134.475 162.307 134.441 162.327 132.26C162.392 130.872 157.723 131.609 148.544 134.424L125.027 130.469L122.744 143.311Z" fill="#E78CA2"/>
<path d="M102.63 51.5225C102.741 52.4523 103.371 52.973 104.297 52.8242C105.076 52.7126 105.558 51.9688 105.409 51.1134C105.372 50.9647 105.372 50.8531 105.372 50.7043C105.335 50.6299 105.335 50.5927 105.298 50.5184C105.076 49.8117 104.705 49.1795 104.26 48.5844C104.112 48.3613 103.964 48.3241 103.779 48.5473C103.223 49.3655 102.704 50.2208 102.63 51.225C102.63 51.3737 102.63 51.4481 102.63 51.5225Z" fill="#1FC2C1"/>
<path d="M91.6588 51.5225C91.77 52.4523 92.4001 52.973 93.3267 52.8242C94.105 52.7126 94.5868 51.9688 94.4386 51.1134C94.4015 50.9647 94.4015 50.8531 94.4015 50.7043C94.3645 50.6299 94.3645 50.5927 94.3274 50.5184C94.105 49.8117 93.7344 49.1795 93.2896 48.5844C93.1414 48.3613 92.9931 48.3241 92.8078 48.5473C92.2518 49.3655 91.7329 50.2208 91.6588 51.225C91.6588 51.3737 91.6588 51.4481 91.6588 51.5225Z" fill="#1FC2C1"/>
<path d="M80.6139 51.5225C80.7251 52.4523 81.3552 52.973 82.2818 52.8242C83.0601 52.7126 83.5419 51.9688 83.3937 51.1134C83.3566 50.9647 83.3566 50.8531 83.3566 50.7043C83.3196 50.6299 83.3196 50.5927 83.2825 50.5184C83.0601 49.8117 82.6895 49.1795 82.2447 48.5844C82.0965 48.3613 81.9482 48.3241 81.7629 48.5473C81.2069 49.3655 80.6881 50.2208 80.6139 51.225C80.6139 51.3737 80.6139 51.4481 80.6139 51.5225Z" fill="#1FC2C1"/>
<path d="M75.425 46.5018C75.5362 47.4315 76.1663 47.9522 77.0929 47.8034C77.8712 47.6919 78.3531 46.9481 78.2048 46.0927C78.1677 45.9439 78.1677 45.8323 78.1677 45.6836C78.1307 45.6092 78.1307 45.572 78.0936 45.4976C77.8712 44.791 77.5006 44.1587 77.0558 43.5637C76.9076 43.3406 76.7593 43.3034 76.574 43.5265C76.0181 44.3447 75.4992 45.2001 75.425 46.2042C75.425 46.3158 75.425 46.4274 75.425 46.5018Z" fill="#1FC2C1"/>
<path d="M71.0145 51.5225C71.1257 52.4523 71.7558 52.973 72.6824 52.8242C73.4607 52.7126 73.9425 51.9688 73.7943 51.1134C73.7572 50.9647 73.7572 50.8531 73.7572 50.7043C73.7201 50.6299 73.7201 50.5927 73.6831 50.5184C73.4607 49.8117 73.0901 49.1795 72.6453 48.5844C72.497 48.3613 72.3488 48.3241 72.1635 48.5473C71.6075 49.3655 71.0886 50.2208 71.0145 51.225C71.0145 51.3366 71.0145 51.4481 71.0145 51.5225Z" fill="#1FC2C1"/>
<path d="M99.2568 35.0099C106.595 35.0099 113.897 35.0099 121.235 35.0099C123.163 35.0099 124.756 34.2289 125.905 32.704C127.796 30.2495 127.61 27.1254 125.535 24.8568C124.349 23.5923 122.866 22.9973 121.161 22.9973C120.717 22.9973 120.605 22.8857 120.605 22.4394C120.68 19.427 119.456 16.9352 117.233 15.0013C115.713 13.6996 113.934 12.9558 111.933 12.7326C110.45 12.5839 109.005 12.807 107.633 13.2905C107.411 13.3649 107.3 13.3277 107.225 13.1045C106.67 11.6913 105.78 10.5384 104.705 9.45985C101.592 6.37302 96.44 5.62921 92.5113 7.56313C90.6211 8.49289 89.1756 9.79457 88.0266 11.5425C87.6189 12.1748 87.2854 12.807 87.063 13.5136C86.9518 13.8855 86.8035 13.9227 86.4329 13.8112C83.8014 12.9186 81.3552 13.3649 79.2055 15.1128C77.5377 16.4889 76.574 18.274 76.4999 20.5055C76.4628 21.1005 76.4258 21.7328 76.574 22.3278C76.6481 22.6254 76.4999 22.6997 76.2404 22.7369C74.239 23.0717 72.6824 24.113 71.7558 25.9353C70.5697 28.2784 70.7921 30.547 72.3858 32.6297C73.6089 34.2289 75.2768 34.9355 77.2412 34.9355C84.5797 35.0099 91.9183 35.0099 99.2568 35.0099Z" fill="#0EAAA6"/>
<path d="M127.536 51.7829C127.536 51.5225 127.536 51.2622 127.536 51.0391C127.499 51.0019 127.499 50.9647 127.462 50.9275C127.462 50.8531 127.425 50.8159 127.425 50.7415C127.425 50.6672 127.388 50.63 127.388 50.5556C127.388 50.4812 127.351 50.444 127.351 50.3696C127.203 49.9233 126.869 49.5886 126.758 49.1052C126.721 49.068 126.721 49.068 126.684 49.0308C126.165 48.1382 126.054 48.2498 125.609 48.9564C125.127 49.7374 124.756 50.5184 124.756 51.4482C124.719 52.1548 125.164 52.6755 125.757 52.8242C126.461 53.0102 127.017 52.7498 127.388 52.1176C127.425 52.0804 127.425 52.0432 127.462 52.006C127.462 51.9688 127.462 51.9688 127.462 51.9316C127.499 51.8945 127.499 51.8201 127.536 51.7829Z" fill="#1FC2C1"/>
<path d="M97.8484 46.5018C97.9596 47.4315 98.5897 47.9522 99.5163 47.8034C100.295 47.6919 100.776 46.9481 100.628 46.0927C100.591 45.9439 100.591 45.8323 100.591 45.6836C100.554 45.6092 100.554 45.572 100.517 45.4976C100.295 44.791 99.924 44.1587 99.4792 43.5637C99.331 43.3406 99.1827 43.3034 98.9974 43.5265C98.4414 44.3447 97.9226 45.2001 97.8484 46.2042C97.8484 46.3158 97.8484 46.4274 97.8484 46.5018Z" fill="#1FC2C1"/>
<path d="M122.644 45.5348C122.347 44.8654 122.051 44.1959 121.606 43.6381C121.384 43.3777 121.273 43.3034 121.05 43.6381C120.568 44.3819 120.124 45.1257 119.975 46.0555C119.864 46.6505 119.975 47.2084 120.457 47.5803C120.902 47.9522 121.458 47.9894 122.014 47.7291C122.57 47.4687 122.792 46.948 122.755 46.353C122.755 46.2414 122.755 46.1298 122.755 45.9811C122.755 45.9439 122.755 45.9439 122.755 45.9067C122.755 45.8695 122.755 45.7951 122.755 45.7579C122.681 45.6836 122.681 45.6092 122.644 45.5348Z" fill="#1FC2C1"/>
<path d="M93.0672 41.3694C93.0672 42.2992 93.6603 42.8942 94.5868 42.8571C95.4022 42.8199 95.9953 42.0389 95.847 41.1463C95.6987 40.1793 95.2169 39.3239 94.661 38.5429C94.5127 38.3198 94.3645 38.3942 94.2162 38.5429C93.6973 39.1008 93.0672 40.6256 93.0672 41.3694Z" fill="#1FC2C1"/>
<path d="M113.675 51.3738C113.6 52.3035 114.379 52.9358 115.194 52.8614C116.047 52.8242 116.603 52.006 116.454 51.1134C116.306 50.1465 115.861 49.3283 115.305 48.5473C115.231 48.4357 115.12 48.2498 114.935 48.4729C114.23 49.3655 113.749 50.2952 113.675 51.3738Z" fill="#1FC2C1"/>
<path d="M106.892 41.1835C106.818 40.2537 106.299 39.3611 105.632 38.5057C105.521 38.357 105.409 38.357 105.298 38.5057C104.668 39.3611 104.149 40.2537 104.075 41.3694C104.038 42.2248 104.668 42.8571 105.446 42.8571C106.336 42.8571 106.929 42.262 106.892 41.1835Z" fill="#1FC2C1"/>
<path d="M117.937 41.1462C117.863 40.2908 117.381 39.3611 116.751 38.5057C116.64 38.3941 116.528 38.3569 116.417 38.4685C115.713 39.3611 115.12 40.328 115.157 41.5181C115.194 42.3735 115.861 42.8942 116.714 42.8198C117.455 42.8198 117.937 42.1876 117.937 41.1462Z" fill="#1FC2C1"/>
<path d="M84.765 41.072C84.728 40.2538 84.2091 39.3612 83.579 38.543C83.4678 38.3571 83.3195 38.3571 83.1713 38.543C82.5783 39.3984 82.0223 40.291 81.9853 41.3695C81.9482 42.2993 82.5042 42.8943 83.3937 42.8943C84.2832 42.8571 84.8021 42.2621 84.765 41.072Z" fill="#1FC2C1"/>
<path d="M108.893 46.2042C108.893 47.3199 109.523 47.9149 110.487 47.8406C111.265 47.8034 111.747 47.0224 111.673 46.167C111.562 45.1628 111.08 44.3446 110.524 43.5636C110.413 43.4149 110.302 43.3033 110.153 43.4893C109.486 44.3446 108.967 45.2744 108.893 46.2042Z" fill="#1FC2C1"/>
<path d="M86.8035 46.4274C86.8035 47.2828 87.3595 47.8778 88.1749 47.8778C88.9903 47.8778 89.5462 47.32 89.5462 46.4274C89.5462 45.5348 89.1385 44.7538 88.6938 44.0472C88.1749 43.229 88.1007 43.229 87.6189 44.0844C87.2112 44.791 86.8035 45.5348 86.8035 46.4274Z" fill="#1FC2C1"/>
<path d="M96.676 87.4326C93.5574 83.7293 91.4784 79.2853 91.7754 74.2488C92.8149 59.7318 113.012 62.9907 117.022 70.2492C120.883 77.5077 120.437 96.1725 115.388 97.3575C113.309 97.9501 109.002 96.6169 104.695 93.9505L107.517 113.356H91.1813L96.676 87.4326Z" fill="#B50437"/>
<path d="M118.507 73.5082C118.358 72.6194 117.912 71.4343 117.615 70.5455C117.17 69.3604 116.576 68.3235 115.833 67.4347C114.497 65.6571 113.012 63.8795 111.23 62.5463C108.111 60.0281 104.101 58.5467 100.24 58.9911C98.3097 59.2874 96.3792 60.0281 94.7456 61.2131C93.2605 62.3982 91.9239 64.0277 89.9933 64.1758C87.9142 64.3239 85.9837 62.5463 84.3501 61.3613C82.4196 60.0281 80.4888 59.1393 78.2612 58.843C74.5486 58.2505 71.1329 59.4355 68.6083 62.5463C65.9352 65.8053 64.0047 70.3974 65.7868 74.6932C66.0838 75.4339 66.5292 76.1745 67.1232 76.6189C67.7173 77.0633 68.4599 77.6559 68.7569 78.3966C69.054 79.2854 68.3114 80.3223 68.0144 81.0629C67.5689 82.0999 67.2718 83.2849 67.4204 84.47C67.5689 86.3957 68.9053 88.3214 70.0934 89.6546C71.4299 90.9878 73.0636 91.7285 74.8457 92.0248C76.0337 92.321 77.2218 92.321 78.4099 92.321C79.0039 92.321 79.4494 92.1729 80.0434 92.0248C80.6374 91.8766 80.9345 92.0248 81.38 92.321C83.6076 93.8024 85.9836 94.2468 88.5082 94.0986C90.5873 93.9505 93.112 93.358 94.8941 91.8766C96.8247 90.2472 96.8247 88.0252 96.3791 85.6551C96.8247 85.9513 98.1611 86.0995 97.4186 85.0625C97.1216 84.6181 96.5275 84.47 96.082 84.3219C95.6365 84.0256 95.1911 83.7293 94.7456 83.2849C93.2605 81.6555 94.7455 78.1003 96.6761 77.5078C99.4977 76.619 100.092 80.6185 102.022 81.5073C103.21 82.0999 104.399 81.3592 105.141 80.4704C106.329 79.4335 107.072 77.9522 107.666 76.4708C108.26 75.2858 108.705 74.1007 109.299 72.7675C109.596 72.175 110.487 70.6936 110.042 69.953C111.972 69.5086 114.2 70.3974 115.982 71.4343C116.724 71.8787 117.17 72.3231 117.615 73.2119C117.764 73.36 117.913 73.9526 118.061 73.9526C118.655 74.2488 118.507 73.8044 118.507 73.5082Z" fill="#E78CA2"/>
<path d="M119.101 80.1741C119.101 81.211 119.843 82.0998 120.437 82.8405C121.031 83.8774 121.922 85.3587 122.219 86.5438C122.665 88.3214 119.546 89.062 118.061 89.2102" fill="#B50437"/>
<path d="M118.21 77.804C117.467 77.0633 116.576 76.6189 115.536 76.6189C114.942 76.6189 114.497 76.767 113.903 77.0633C113.457 77.3596 113.16 77.9521 113.16 78.3965C114.2 78.1002 114.794 77.9521 115.536 77.9521C116.279 78.1002 117.17 78.2484 118.21 77.804Z" fill="#E78CA2"/>
<path d="M113.732 92.408C114.513 92.9485 115.264 93.0456 115.877 93.3007C116.628 93.3979 117.231 93.5052 118.268 93.4343C117.901 92.42 117.13 92.0273 116.22 91.7925C115.469 91.6953 114.581 91.7561 113.732 92.408Z" fill="#E78CA2"/>
<path d="M116.873 80.7666C116.381 80.7666 115.982 80.3687 115.982 79.8778C115.982 79.387 116.381 78.989 116.873 78.989C117.365 78.989 117.764 79.387 117.764 79.8778C117.764 80.3687 117.365 80.7666 116.873 80.7666Z" fill="#E78CA2"/>
<path d="M99.5649 117.626C101.927 144.953 121.554 156.339 144.928 154.631L143.38 128.931C118.296 131.534 108.116 118.277 107.383 98.2694L99.1577 97.1307C98.5876 103.231 98.9948 110.55 99.5649 117.626Z" fill="#B50437"/>
<path d="M95.2485 94.2842L94.4341 94.2029C74.8068 110.957 60.9618 135.519 53.062 167.97L78.3088 169.678C78.8789 163.497 79.6118 157.478 80.4262 151.622L114.143 153.9C111.781 136.657 105.917 121.367 107.465 98.2694L95.2485 94.2842Z" fill="#D64B71"/>
<path d="M205.448 87.9673C209.107 83.672 211.653 78.2631 211.175 72.3769C209.903 55.1956 186.199 59.0136 181.585 67.6043C176.972 76.1949 177.449 98.1488 183.494 99.7397C185.881 100.376 190.971 98.7852 196.221 95.7625L193.039 118.83H212.289L205.448 87.9673Z" fill="#910940"/>
<path d="M180.98 93.1706C181.622 93.2987 182.139 93.1492 182.719 93.1385C183.336 93.0272 183.954 92.9158 184.558 93.1446L184.86 93.2589L184.846 93.599C184.794 94.0398 184.503 94.505 184.187 94.7307C183.872 94.9565 183.493 95.0434 183.216 95.1685C182.56 95.3805 181.88 95.3531 181.224 95.5651C181.439 95.3013 181.755 95.0755 182.032 94.9504L182.903 94.4746C183.181 94.3495 183.458 94.2244 183.673 93.9605C183.85 93.7974 184.027 93.6342 184.003 93.3947L184.291 93.8492C183.788 93.6586 183.309 93.7074 182.629 93.68C182.049 93.6907 181.407 93.5626 180.98 93.1706Z" fill="#DE6B8A"/>
<path d="M179.04 79.8539C178.722 80.6493 178.085 81.2857 177.767 82.0811C177.29 83.0356 176.972 84.1492 176.653 85.2628C176.176 86.6946 175.858 88.1264 175.699 89.7172C175.54 91.149 175.54 91.149 176.972 91.6263C178.244 92.1035 179.358 92.1035 180.631 92.1035" fill="#910940"/>
<path d="M180.631 76.6722C180.949 76.1949 181.426 76.1949 181.904 76.0358C182.381 76.0358 182.858 75.8768 183.335 75.8768C183.813 75.8768 184.29 75.7177 184.767 75.7177C185.244 75.7177 185.722 75.5586 186.358 75.3995C186.04 74.9223 185.403 74.6041 184.767 74.445C184.131 74.2859 183.653 74.2859 183.017 74.2859C182.381 74.445 181.744 74.6041 181.267 74.9222C180.79 75.0813 180.313 76.0358 180.631 76.6722Z" fill="#E78CA2"/>
<path d="M182.381 79.6949C181.766 79.6949 181.267 79.1963 181.267 78.5813C181.267 77.9662 181.766 77.4677 182.381 77.4677C182.996 77.4677 183.494 77.9662 183.494 78.5813C183.494 79.1963 182.996 79.6949 182.381 79.6949Z" fill="#E78CA2"/>
<path d="M199.403 78.7404C200.039 78.2631 200.835 78.1041 201.63 78.1041C203.857 78.1041 205.607 80.0131 205.607 82.0812C205.607 84.1493 204.653 85.8993 203.221 86.5356C204.016 87.9674 204.812 89.081 205.607 89.2401C209.107 88.9219 213.562 80.3313 213.562 73.1724C213.562 65.3772 207.357 58.6956 195.903 58.6956C185.562 58.6956 181.744 62.9909 181.426 66.6499C185.88 67.9226 193.517 68.3998 204.653 68.2407V69.0362L195.107 69.8316L193.517 74.6042C196.221 74.6042 197.971 76.3541 199.403 78.7404Z" fill="#E78CA2"/>
<path d="M201.951 103.69L193.493 100.814C181.991 129.57 164.738 157.311 136.151 180.823L143.255 193.002C168.459 178.116 192.309 166.614 201.951 144.286C205.165 137.182 202.289 112.655 201.951 103.69Z" fill="#0EAAA6"/>
<path d="M231.045 184.713C206.687 187.25 187.573 187.25 173.703 184.713C172.011 184.375 171.673 181.499 172.518 179.469C185.036 148.853 193.493 122.127 193.493 100.983C195.861 102.167 199.752 102.336 205.503 101.491C221.065 123.311 228 148.515 231.045 184.713Z" fill="#F7CDD4"/>
<path d="M209.393 99.63H202.966C201.443 108.426 196.707 227.339 182.16 266.244H260.815C259.124 230.553 245.592 187.758 232.06 151.898C244.069 162.893 254.557 181.668 263.522 208.056L278.238 204.335C267.243 157.141 244.746 122.296 210.577 100.138C210.577 99.9684 210.408 99.7992 210.408 99.63H209.901C209.732 99.4609 209.563 99.2917 209.224 99.2917L209.393 99.63Z" fill="#1FC2C1"/>
<path d="M0.0284309 67.1854C-0.618305 77.1481 9.84708 85.9907 23.4286 86.875C31.8949 87.4645 39.597 84.8117 44.3593 80.3315C45.3 79.4472 53.7664 79.683 52.8257 78.9166C51.2971 77.6197 48.0634 75.2617 48.4749 74.0827C48.8865 72.9037 49.1217 71.7246 49.2392 70.4867C49.886 60.524 39.4206 51.6813 25.8391 50.7971C12.2576 49.9128 0.675167 57.2227 0.0284309 67.1854Z" fill="#F7CDD4"/>
</g>
</svg>
