<svg width="361" height="211" viewBox="0 0 361 211" fill="none" xmlns="http://www.w3.org/2000/svg">
<rect x="221.509" y="24.9974" width="111.544" height="138" rx="6" transform="rotate(13.6568 221.509 24.9974)" fill="#FFEDED"/>
<rect x="239.72" y="56.4645" width="77.4464" height="8.60515" rx="4.30258" transform="rotate(13.6568 239.72 56.4645)" fill="#F7CDD4"/>
<rect x="236.062" y="71.5157" width="77.4464" height="8.60515" rx="4.30258" transform="rotate(13.6568 236.062 71.5157)" fill="#F7CDD4"/>
<rect x="232.405" y="86.567" width="77.4464" height="8.60515" rx="4.30258" transform="rotate(13.6568 232.405 86.567)" fill="#F7CDD4"/>
<rect x="228.748" y="101.618" width="77.4464" height="8.60515" rx="4.30258" transform="rotate(13.6568 228.748 101.618)" fill="#F7CDD4"/>
<rect x="225.091" y="116.67" width="77.4464" height="8.60515" rx="4.30258" transform="rotate(13.6568 225.091 116.67)" fill="#F7CDD4"/>
<rect x="221.434" y="131.721" width="77.4464" height="8.60515" rx="4.30258" transform="rotate(13.6568 221.434 131.721)" fill="#F7CDD4"/>
<rect x="226.341" y="53.2139" width="8.60515" height="8.60515" rx="4.30258" transform="rotate(13.6568 226.341 53.2139)" fill="#F7CDD4"/>
<rect x="222.683" y="68.265" width="8.60515" height="8.60515" rx="4.30258" transform="rotate(13.6568 222.683 68.265)" fill="#F7CDD4"/>
<rect x="219.026" y="83.3162" width="8.60515" height="8.60515" rx="4.30258" transform="rotate(13.6568 219.026 83.3162)" fill="#F7CDD4"/>
<rect x="215.369" y="98.3676" width="8.60515" height="8.60515" rx="4.30258" transform="rotate(13.6568 215.369 98.3676)" fill="#F7CDD4"/>
<rect x="211.712" y="113.419" width="8.60515" height="8.60515" rx="4.30258" transform="rotate(13.6568 211.712 113.419)" fill="#F7CDD4"/>
<rect x="208.055" y="128.47" width="8.60515" height="8.60515" rx="4.30258" transform="rotate(13.6568 208.055 128.47)" fill="#F7CDD4"/>
<path d="M225.923 54.1185L229.13 58.6968L234.898 53.2905" stroke="#910940" stroke-width="2"/>
<path d="M222.302 69.2145L225.509 73.7928L231.278 68.3864" stroke="#910940" stroke-width="2"/>
<path d="M215.06 99.4065L218.268 103.985L224.036 98.5784" stroke="#910940" stroke-width="2"/>
<path d="M219.815 84.3156L225.569 91.4264" stroke="#910940" stroke-width="2"/>
<path d="M226.248 84.994L219.137 90.7481" stroke="#910940" stroke-width="2"/>
<path d="M137.225 143.304C136.777 143.876 136.326 143.979 135.842 143.329C135.726 143.162 135.589 143.014 135.451 142.906C134.915 142.539 134.653 141.369 133.842 141.844C133.011 142.339 128.41 143.575 127.134 144.011C121.574 145.899 115.837 145.95 110.053 145.104C98.0767 143.395 87.2261 138.722 76.9404 132.506C71.5095 129.213 66.5475 125.329 61.9103 120.91C57.1556 116.363 53.0686 111.356 50.6702 105.217C47.805 97.9414 48.3647 90.9881 53.6129 84.8363C54.5322 85.8297 55.4712 86.8442 56.3905 87.8377C54.4887 89.7939 53.5271 92.175 53.1657 94.8246C52.3948 100.325 54.4407 104.985 57.2265 109.431C59.4735 113.041 62.3701 116.129 65.3959 119.018C68.5586 122.055 72.0822 124.681 75.7139 127.127C80.8336 130.59 86.2584 133.496 91.9657 135.905C98.4538 138.651 105.109 140.733 112.157 141.508C116.107 141.934 121.499 142.398 125.073 140.307C128.002 138.616 130.435 136.051 132.878 133.751C135.237 131.528 137.442 129.056 138.652 126.013C140.353 121.771 140.467 116.996 140.042 112.484C139.868 110.565 139.592 108.662 139.256 106.737C137.459 96.9416 134.032 87.7918 129.226 79.0942C126.787 74.6422 123.929 70.4986 120.8 66.5269C117.207 61.9262 112.995 58.0934 107.932 55.3242C103.008 52.6216 97.8275 51.9222 92.584 54.6167C92.0246 54.8989 91.4848 55.2023 91.0804 55.6943C90.161 54.7009 89.2416 53.7074 88.3223 52.714C93.3397 48.973 98.8637 48.0594 104.819 49.8075C110.15 51.3876 114.528 54.556 118.559 58.3204C125.501 64.7662 130.42 72.6142 134.649 80.9425C138.613 88.7719 141.565 96.9871 143.099 105.653C144.092 111.287 144.696 117.006 143.794 122.745C143.4 125.19 142.883 127.63 141.845 129.886C141.36 130.924 139.731 135.962 139.276 136.737C138.885 137.413 139.773 138.161 140.209 138.463C141.598 139.415 140.846 139.954 140.029 140.591C139.12 141.551 138.173 142.427 137.225 143.304Z" fill="#1FC2C1"/>
<path d="M137.28 143.523C138.236 142.638 139.193 141.752 140.15 140.867C145.727 146.893 151.197 153.059 156.901 158.967C168.919 171.356 188.585 173.497 203.337 164.187C218.844 154.413 225.088 134.63 217.911 117.918C216.28 114.107 214.126 110.585 211.337 107.572C197.183 92.1928 182.984 76.8935 168.788 61.5534C167.862 60.2975 167.901 60.3396 169.813 58.6094C170.876 57.6255 171.242 58.6174 171.729 59.1442C185.479 73.9589 199.186 88.8129 212.915 103.647C213.305 104.069 213.716 104.47 214.128 104.872C222.426 114.052 225.857 124.882 224.529 137.182C223.638 145.517 220.398 152.936 214.876 159.338C208.708 166.493 201.074 171.211 191.83 173.037C179.231 175.504 167.727 172.968 157.58 164.99C155.843 163.624 154.341 162.002 152.859 160.4C147.674 154.754 142.467 149.128 137.28 143.523Z" fill="#0EAAA6"/>
<path d="M170.771 60.0329C168.836 61.7849 168.074 62.4128 167.008 63.0115C160.401 66.7602 153.683 66.888 147.302 62.9814C137.759 57.1529 135.46 44.4646 142.632 35.3063C148.027 28.4126 157.305 26.226 164.71 29.1465C172.434 32.1983 177.062 39.5896 176.35 48.0435C176.026 51.8344 174.727 55.1699 172.426 58.1915C171.93 58.7663 171.835 59.048 170.771 60.0329ZM164.46 54.6651C168.953 50.895 169.429 43.9382 165.356 39.4084C161.591 35.2128 154.74 35.1539 150.367 38.9681C146.058 42.7233 145.514 49.8204 149.441 54.0207C153.675 58.5959 160.408 58.5701 164.46 54.6651Z" fill="#1FC2C1"/>
<path d="M57.0831 88.2482C56.1438 87.2333 55.1845 86.1967 54.2453 85.1818C53.3396 84.4163 53.421 83.7797 54.3318 83.0169C55.8137 81.8058 57.157 80.4023 58.579 79.1265C59.8735 77.9686 61.3576 78.0383 62.6017 79.2121C64.3067 80.8414 64.6912 82.45 63.4329 83.7748C61.8548 85.4358 60.0755 86.9221 58.3961 88.5164C57.8001 89.1081 57.4841 88.6388 57.0831 88.2482Z" fill="#0EAAA6"/>
<path d="M89.131 52.6416C89.9639 53.5416 90.7968 54.4417 91.6298 55.3417C92.0551 55.8013 92.0755 56.209 91.4986 56.7429C89.8784 58.2067 88.3115 59.728 86.6949 61.153C85.228 62.4395 83.9599 62.2265 82.5177 60.5395C81.3908 59.2361 81.4896 57.9714 82.818 56.7066C84.189 55.4022 85.6487 54.1935 86.9452 52.8514C87.793 51.9246 88.4294 51.7978 89.131 52.6416Z" fill="#0EAAA6"/>
<path d="M164.853 55.0406C160.899 58.8955 154.165 58.8626 149.85 54.2422C145.887 50.0014 146.347 42.9191 150.6 39.2185C154.915 35.4595 161.746 35.5979 165.548 39.832C169.662 44.4036 169.288 51.3272 164.853 55.0406Z" fill="#0EAAA6"/>
<path d="M46.5519 92.0996L63.1519 150.3L75.2519 193.2H84.0519L71.2519 92.0996H46.5519Z" fill="#B50437"/>
<path d="M42.1519 92.0996C41.7519 122.1 40.4519 138.4 40.0519 141.1C39.6519 143.8 33.5519 161.1 21.7519 193.1H30.8519C45.8519 162.5 54.1519 145.2 55.9519 141.1C57.7519 137 63.0519 120.7 71.1519 92.0996H42.1519Z" fill="#910940"/>
<path d="M20.9519 201.4L21.4519 191.8H31.0519C35.6519 195 41.5519 197.6 48.8519 199.6V201.4H31.4519L25.5519 200.5V201.4H20.9519Z" fill="#B50437"/>
<path d="M74.0519 201.4L74.5519 191.8H84.1519C88.7519 195 94.6519 197.6 101.952 199.6V201.4H84.5519L78.6519 200.5V201.4H74.0519Z" fill="#B50437"/>
<path d="M106.742 100.571L118.813 104.336C118.813 104.336 112.733 120.649 111.66 123.338C111.66 123.338 83.7631 113.299 82.6007 112.761C81.4384 112.223 90.2902 96 90.2902 96L106.742 100.571Z" fill="#F7CDD4"/>
<path d="M54.8518 35.3996C52.7518 32.8996 51.3519 29.8996 51.5519 26.4996C52.2519 16.6996 65.8519 18.8996 68.5519 23.7996C71.1519 28.6996 70.8518 41.2996 67.4518 42.0996C66.0518 42.4996 63.1519 41.5996 60.2519 39.7996L62.1519 52.8996H51.1519L54.8518 35.3996Z" fill="#B50437"/>
<path d="M69.552 25.9995C69.452 25.3995 69.1519 24.5995 68.9519 23.9995C68.6519 23.1995 68.2519 22.4995 67.7519 21.8995C66.8519 20.6995 65.8519 19.4995 64.6519 18.5995C62.5519 16.8995 59.8519 15.8995 57.2519 16.1995C55.9519 16.3995 54.652 16.8995 53.552 17.6995C52.552 18.4995 51.6519 19.5995 50.3519 19.6995C48.9519 19.7995 47.652 18.5995 46.552 17.7995C45.252 16.8995 43.9519 16.2995 42.4519 16.0995C39.9519 15.6995 37.6519 16.4995 35.9519 18.5995C34.1519 20.7995 32.852 23.8995 34.052 26.7995C34.252 27.2995 34.5519 27.7995 34.9519 28.0995C35.3519 28.3995 35.852 28.7995 36.052 29.2995C36.252 29.8995 35.752 30.5995 35.552 31.0995C35.252 31.7995 35.0519 32.5995 35.1519 33.3995C35.2519 34.6995 36.1519 35.9995 36.9519 36.8995C37.8519 37.7995 38.9519 38.2995 40.1519 38.4995C40.9519 38.6995 41.752 38.6995 42.552 38.6995C42.952 38.6995 43.2519 38.5995 43.6519 38.4995C44.0519 38.3995 44.252 38.4995 44.552 38.6995C46.052 39.6995 47.6519 39.9995 49.3519 39.8995C50.7519 39.7995 52.4519 39.3995 53.6519 38.3995C54.9519 37.2995 54.9519 35.7995 54.6519 34.1995C54.9519 34.3995 55.8519 34.4995 55.3519 33.7995C55.1519 33.4995 54.7519 33.3995 54.4519 33.2995C54.1519 33.0995 53.852 32.8995 53.552 32.5995C52.552 31.4995 53.5519 29.0995 54.8519 28.6995C56.7519 28.0995 57.1519 30.7995 58.4519 31.3995C59.2519 31.7995 60.052 31.2995 60.552 30.6995C61.352 29.9995 61.8519 28.9995 62.2519 27.9995C62.6519 27.1995 62.9519 26.3995 63.3519 25.4995C63.5519 25.0995 64.1519 24.0995 63.8519 23.5995C65.1519 23.2995 66.6519 23.8995 67.8519 24.5995C68.3519 24.8995 68.6519 25.1995 68.9519 25.7995C69.0519 25.8995 69.1519 26.2995 69.2519 26.2995C69.6519 26.4995 69.552 26.1995 69.552 25.9995Z" fill="#E78CA2"/>
<path d="M69.9519 30.4995C69.9519 31.1995 70.4519 31.7995 70.8519 32.2995C71.2519 32.9995 71.852 33.9995 72.052 34.7995C72.352 35.9995 70.2519 36.4995 69.2519 36.5995" fill="#B50437"/>
<path d="M69.3519 28.8996C68.8519 28.3996 68.2519 28.0996 67.5519 28.0996C67.1519 28.0996 66.8519 28.1996 66.4519 28.3996C66.1519 28.5996 65.9519 28.9996 65.9519 29.2996C66.6519 29.0996 67.0519 28.9996 67.5519 28.9996C68.0519 29.0996 68.6519 29.1996 69.3519 28.8996Z" fill="#E78CA2"/>
<path d="M69.3519 39.1996C68.8519 38.7996 68.3519 38.6996 67.9519 38.4996C67.4519 38.3996 67.0519 38.2996 66.3519 38.2996C66.5519 38.9996 67.0519 39.2996 67.6519 39.4996C68.1519 39.5996 68.7519 39.5996 69.3519 39.1996Z" fill="#E78CA2"/>
<path d="M68.4519 30.8995C68.1205 30.8995 67.8519 30.6308 67.8519 30.2995C67.8519 29.9681 68.1205 29.6995 68.4519 29.6995C68.7832 29.6995 69.0519 29.9681 69.0519 30.2995C69.0519 30.6308 68.7832 30.8995 68.4519 30.8995Z" fill="#E78CA2"/>
<path d="M81.1519 91.3995L95.1519 98.3995C98.8519 103.499 101.052 105.599 101.552 104.899C102.352 103.799 100.852 102.599 101.252 101.699C101.652 100.799 104.352 101.099 106.952 101.499C109.552 101.899 108.852 100.699 108.252 100.099C105.752 98.2995 102.552 96.7995 98.6519 95.3995L84.8519 83.6995L81.1519 91.3995ZM10.8519 107.799C10.0519 108.999 4.65195 112.299 1.05196 114.199C-0.448044 114.899 -0.0481415 116.199 0.451859 116.599C4.25186 119.699 7.35193 117.099 11.1519 115.899C15.2519 114.599 14.252 119.699 17.552 118.799C16.952 116.499 15.2519 112.299 16.6519 109.799C17.2519 108.699 21.9519 98.6995 30.6519 79.8995L22.552 78.6995C15.852 96.3995 11.9519 106.099 10.8519 107.799Z" fill="#B50437"/>
<path d="M56.2519 45.5995L61.2519 43.8995C68.0519 60.8995 78.2519 77.2995 95.1519 91.1995L90.9519 98.3995C76.0519 89.5995 61.9519 82.7995 56.2519 69.5995C54.3519 65.3995 56.0519 50.8995 56.2519 45.5995Z" fill="#FFEDED"/>
<path d="M39.0519 93.4995C53.4519 94.9995 64.7518 94.9995 72.9518 93.4995C73.9518 93.2995 74.1519 91.5995 73.6519 90.3995C66.2519 72.2995 61.2519 56.4995 61.2519 43.9995C59.8519 44.6995 57.5519 44.7995 54.1519 44.2995C44.9519 57.1995 40.8519 72.0995 39.0519 93.4995Z" fill="#E78CA2"/>
<path d="M51.8519 43.1995H55.6519C56.5519 48.3995 59.3519 118.7 67.9519 141.7H21.4519C22.4519 120.6 30.4519 95.2995 38.4519 74.0995C31.3519 80.5995 25.1519 91.6995 19.8519 107.3L11.1519 105.1C17.6519 77.1995 30.9519 56.5995 51.1519 43.4995C51.1519 43.3995 51.2519 43.2995 51.2519 43.1995H51.5519C51.6519 43.0995 51.7519 42.9995 51.9519 42.9995L51.8519 43.1995Z" fill="#FFEDED"/>
</svg>
