<svg width="143" height="78" viewBox="0 0 143 78" fill="none" xmlns="http://www.w3.org/2000/svg">
<rect width="143" height="78" fill="white"/>
<path d="M81.7872 73.6966C84.8867 74.6306 88.2044 74.1524 90.8488 72.934C93.4816 71.6924 95.5105 69.7632 97.2211 67.6724C98.6905 65.8745 100.014 63.8295 99.934 61.5212C99.8536 59.2129 97.9355 56.5941 95.1963 56.12C91.6942 55.5007 89.0577 58.3675 85.5996 58.4801C84.2025 58.532 82.653 58.1084 81.4313 58.5955C79.6795 59.3153 79.626 61.3999 78.605 62.8025C78.1116 63.4519 77.4095 63.9434 76.8582 64.5634C73.9059 67.789 77.248 72.3427 81.7872 73.6966Z" fill="#F7CDD4"/>
<path d="M140.454 65.0608C140.443 64.2138 140.184 63.3818 139.843 62.6041C138.621 59.7515 136.31 57.375 133.491 56.0504C130.672 54.7258 127.357 54.4555 124.351 55.3151C121.633 56.0907 118.967 58.1564 118.766 60.9586C118.523 64.3222 121.721 66.816 123.196 69.8531C123.826 71.155 124.242 72.7157 125.496 73.4434C126.328 73.9277 127.354 73.9317 128.32 73.8471C132.838 73.459 140.529 70.7337 140.454 65.0608Z" fill="#E78CA2"/>
<path d="M102.039 57.2169C101.319 58.9721 101.78 60.9733 101.46 62.8418C101.22 64.2375 100.549 65.5231 100.21 66.8994C99.8708 68.2757 99.9301 69.8883 100.944 70.889C101.582 71.5172 102.487 71.7989 103.372 71.9738C105.534 72.4013 107.802 72.3365 109.885 73.0457C111.464 73.5832 112.866 74.545 114.436 75.1085C116.006 75.6719 117.934 75.7561 119.191 74.6713C120.731 73.3436 120.56 70.8598 119.56 69.1014C118.559 67.343 116.934 66.0218 115.696 64.4156C114.495 62.858 113.676 61.0543 112.669 59.3704C111.57 57.5343 109.839 55.2415 107.654 54.6133C105.498 53.9916 102.889 55.1509 102.039 57.2169Z" fill="#EFACBB"/>
<path d="M49.3123 58.5432C47.7919 59.5238 47.1941 60.6123 46.8609 61.6343C46.5522 62.6153 46.4573 63.6328 47.4217 64.3626C48.4477 65.1394 50.4792 65.4754 52.4707 65.7658C56.5813 66.377 61.0885 66.8883 66.0644 66.3019C71.0617 65.717 76.5521 63.6947 77.38 61.5129C78.0713 59.7268 75.5858 58.4838 73.7738 57.2032C71.1389 55.3309 68.5797 54.2108 62.1507 54.8436C58.1175 55.2621 51.9426 56.8732 49.3123 58.5432Z" fill="#F7CDD4"/>
<path d="M121.365 38.0024L117.562 51.1324L114.812 60.7797H112.829L115.742 38.0024H121.365Z" fill="#910940"/>
<path d="M122.336 38.0024C122.417 44.7676 122.741 48.4503 122.822 49.0508C122.902 49.6512 124.318 53.5742 126.988 60.7396H124.925C121.527 53.8544 119.626 49.9315 119.221 49.0508C118.817 48.1701 117.603 44.4473 115.742 38.0024H122.336Z" fill="#B50437"/>
<path d="M127.191 62.6211L127.069 60.4595H124.885C123.833 61.18 122.498 61.7805 120.839 62.2208V62.6211H124.804L126.139 62.421V62.6211H127.191Z" fill="#DE6B8A"/>
<path d="M115.095 62.6211L114.973 60.4595H112.789C111.737 61.18 110.402 61.7805 108.743 62.2208V62.6211H112.708L114.043 62.421V62.6211H115.095Z" fill="#DE6B8A"/>
<path d="M120.232 24.7925C120.718 24.2321 121.042 23.5515 121.001 22.791C120.839 20.5893 117.765 21.0697 117.158 22.1905C116.551 23.3114 116.632 26.1135 117.401 26.3136C117.724 26.3937 118.372 26.1935 119.059 25.7932L118.655 28.7555H121.163L120.232 24.7925Z" fill="#910940"/>
<path d="M119.464 23.5915C119.545 23.5515 119.626 23.5114 119.747 23.5114C120.03 23.5114 120.273 23.7516 120.273 24.0318C120.273 24.312 120.152 24.5122 119.949 24.5922C120.03 24.7924 120.152 24.9125 120.273 24.9525C120.718 24.9125 121.325 23.7916 121.325 22.911C121.325 21.9102 120.516 21.0696 119.019 21.0696C117.684 21.0696 117.158 21.63 117.158 22.1104C117.724 22.2705 118.736 22.3105 120.192 22.3105V22.4306L118.938 22.5507L118.736 23.1512C119.019 23.0711 119.262 23.2712 119.464 23.5915Z" fill="#DE6B8A"/>
<path d="M113.355 38.0023L110.2 39.3633C109.31 40.4441 108.824 40.8845 108.703 40.7244C108.541 40.4442 108.905 40.204 108.824 40.0038C108.743 39.8037 108.136 39.8437 107.57 39.8837C107.004 39.9238 107.166 39.6836 107.287 39.5235C107.853 39.1632 108.582 38.883 109.431 38.6428L112.627 36.241L113.355 38.0023Z" fill="#910940"/>
<path d="M118.938 27.2744L118.088 27.1143C114.892 29.9564 113.557 35.4406 109.633 38.3628L110.564 39.5637C117.401 38.683 119.1 31.998 118.938 27.2744Z" fill="#0EAAA6"/>
<path d="M122.7 38.443C119.262 38.443 116.713 38.443 115.054 38.443C114.69 38.443 114.771 37.9226 114.812 37.6424C115.378 34.6001 117.684 31.3576 117.684 27.0343L119.868 26.6741C121.729 29.7564 122.336 33.4792 122.7 38.443Z" fill="#FFEDED"/>
<path d="M123.388 29.0357C123.712 28.9156 123.226 29.3959 123.388 29.0357C124.197 27.5545 123.914 26.7139 123.024 26.4337C122.134 26.1535 121.406 26.7139 120.03 26.7139C119.949 26.7139 119.868 26.7139 119.828 26.7139L119.14 26.7539C117.158 33.6792 116.632 38.2826 117.522 40.6044H122.822C123.145 40.044 123.145 38.3227 123.388 37.8023L125.694 38.4428C127.555 32.5983 128.809 32.118 123.388 29.0357Z" fill="#1FC2C1"/>
<path d="M123.954 33.1986C123.428 32.9184 122.66 32.7182 122.134 32.5181C121.729 32.358 121.729 35.5203 121.689 36.1608C121.567 38.2024 121.365 40.0838 121.325 40.6042H122.822C123.226 39.6435 123.712 34.4395 123.954 33.1986Z" fill="#DE6B8A"/>
<path d="M120.597 42.0452C120.597 42.1253 120.597 42.2854 120.677 42.4455C120.758 42.6057 120.92 42.6857 121.001 42.7258C121.446 42.9659 121.891 43.1661 122.377 43.2462C122.417 43.2462 122.417 43.2462 122.457 43.2462V63.5815H123.145V43.2862C123.388 43.2462 123.631 43.2061 123.833 43.1261C124.116 43.046 124.399 42.8859 124.683 42.7658C124.763 42.7258 124.925 42.6457 125.006 42.4856C125.087 42.3255 125.087 42.2054 125.087 42.0853C125.087 41.0845 125.087 39.6835 125.087 38.3224L124.48 38.1623C124.48 38.7628 124.48 39.3232 124.48 39.9236H121.244C121.244 38.0422 121.244 35.9206 121.244 34.7197V34.6797C121.244 34.6797 121.284 34.6797 121.284 34.6396C121.689 34.3594 122.174 34.1993 122.66 34.1593C123.024 34.1192 123.428 34.1993 123.792 34.3594L123.873 33.719C123.671 33.6389 123.509 33.5989 123.307 33.5588C123.024 33.5188 122.781 33.5188 122.498 33.5188C121.972 33.5989 121.446 33.759 120.92 34.0792C120.839 34.1193 120.677 34.1993 120.597 34.3995C120.556 34.5196 120.556 34.6797 120.556 34.7597C120.597 36.401 120.597 39.9637 120.597 42.0452ZM121.203 42.0452C121.203 41.5649 121.203 40.9644 121.203 40.364H124.44C124.44 41.0045 124.44 41.5649 124.44 42.0452C124.44 42.0452 124.44 42.0853 124.44 42.1253L124.399 42.1653C123.833 42.4856 123.307 42.6457 122.862 42.6457C122.377 42.6457 121.851 42.4455 121.325 42.1653C121.284 42.1653 121.284 42.1253 121.284 42.1253C121.203 42.0853 121.203 42.0452 121.203 42.0452Z" fill="#910940"/>
<path d="M124.278 38.9231C124.197 39.2433 124.521 40.6044 124.763 41.445C124.885 41.8053 124.602 41.9254 124.48 41.9254C123.388 41.8453 123.347 40.9646 122.943 40.164C122.498 39.3234 121.851 40.2841 121.487 39.6436C121.932 39.3634 122.902 38.9631 123.064 38.3627C123.186 38.0825 123.267 37.9223 123.347 37.8022L124.642 38.1625C124.48 38.4427 124.44 38.5228 124.278 38.9231Z" fill="#910940"/>
<path d="M29.5184 35.408L33.6359 49.7092L36.6441 60.244H38.8251L35.6288 35.408H29.5184Z" fill="#B50437"/>
<path d="M28.4279 35.408C28.3339 42.773 28.0142 46.8005 27.9014 47.4717C27.8074 48.143 26.2845 52.3942 23.3703 60.2626H25.6452C29.3679 52.7298 31.4361 48.4599 31.8685 47.4717C32.301 46.4835 33.6359 42.456 35.6477 35.408H28.4279Z" fill="#910940"/>
<path d="M23.1823 62.2762L23.2951 59.9082H25.6829C26.8109 60.6913 28.2775 61.3253 30.1012 61.8287V62.2762H25.7769L24.3103 62.0525V62.2762H23.1823Z" fill="#B50437"/>
<path d="M36.3245 62.2762L36.4373 59.9082H38.8251C39.9532 60.6913 41.4197 61.3253 43.2435 61.8287V62.2762H38.9379L37.4714 62.0525V62.2762H36.3245Z" fill="#B50437"/>
<path d="M31.6053 21.9829C31.0789 21.3676 30.7217 20.6217 30.7969 19.8013C30.9661 17.396 34.3503 17.9181 35.0084 19.1301C35.6664 20.342 35.5912 23.4186 34.7452 23.6423C34.4067 23.7356 33.6923 23.5118 32.959 23.083L33.4291 26.3087H30.7029L31.6053 21.9829Z" fill="#E78CA2"/>
<path d="M33.0718 20.0626C33.1847 21.4983 33.4479 22.2255 33.8991 22.2255C34.576 22.2255 35.14 21.7966 35.4408 21.7966C35.6477 21.7966 35.61 22.0577 35.4596 22.2628C35.3468 22.4306 34.764 22.5797 34.764 22.8408C34.764 23.1018 35.2152 22.8967 35.2152 23.0459C35.2152 23.2883 35.2904 23.7544 34.858 23.7544C34.4256 23.7544 33.1659 23.6052 32.9402 22.9527C32.8086 22.5424 32.7146 21.6661 32.677 20.3609C32.6582 20.3609 32.6206 20.3609 32.6018 20.3609C32.2258 20.3609 31.925 20.6592 31.925 21.0321C31.925 21.2186 32.0002 21.3864 32.1318 21.5169C31.9814 21.7407 31.7933 21.9644 31.5865 22.2068C30.8345 21.7593 30.1576 20.4355 30.8909 19.1676C31.0977 18.5523 31.6805 18.2166 32.2258 18.0675C32.677 17.881 33.1283 17.8624 33.5231 17.9743C34.2939 18.0302 34.9708 18.2726 35.1588 18.4031C35.1588 19.1116 35.0272 19.3354 33.8239 19.3167C33.5231 19.4473 33.2975 19.7083 33.0718 20.0626Z" fill="#B50437"/>
<path d="M35.3844 20.4915C35.3656 20.6779 35.6288 20.8644 35.7229 21.0135C35.7981 21.1068 35.8733 21.2186 35.8921 21.3305C35.9673 21.7034 35.5348 21.6848 35.2904 21.778C35.2904 21.7594 35.2528 21.7034 35.2528 21.6848" fill="#E78CA2"/>
<path d="M34.482 20.3795C34.4632 20.305 34.5008 20.2304 34.5572 20.1744C34.6136 20.1185 34.6888 20.0999 34.764 20.0999C34.8392 20.0999 34.8956 20.0999 34.9708 20.1185C35.0272 20.1371 35.1024 20.1744 35.14 20.2304L34.952 20.2677L34.7828 20.2863C34.7264 20.2863 34.67 20.305 34.6324 20.305C34.576 20.3236 34.5384 20.3236 34.482 20.3795Z" fill="#B50437"/>
<path d="M35.0272 20.6593C35.0895 20.6593 35.14 20.6092 35.14 20.5474C35.14 20.4856 35.0895 20.4355 35.0272 20.4355C34.9649 20.4355 34.9144 20.4856 34.9144 20.5474C34.9144 20.6092 34.9649 20.6593 35.0272 20.6593Z" fill="#B50437"/>
<path d="M38.9191 30.8399L43.3939 30.2432C44.2963 29.7584 45.1048 29.4228 45.8569 29.2363C46.0637 29.2363 46.4021 29.3109 45.8945 29.7211C45.3868 30.1313 44.8792 30.5975 44.9732 30.8212C45.0672 31.045 45.5372 30.9517 45.6124 31.306C45.6689 31.5297 44.898 31.567 43.3375 31.4179L39.7088 32.8536L38.9191 30.8399ZM24.8556 31.8654H27.3374C24.6112 37.9439 23.2011 41.1136 23.0882 41.412C22.825 42.0646 23.3891 43.0341 23.6147 43.5749C22.8438 43.9105 22.919 42.6426 21.9414 43.0901C21.0577 43.5003 20.3808 44.2461 19.3467 43.6121C19.2151 43.5376 19.0835 43.2392 19.422 43.0155C20.2492 42.4561 21.4525 41.4492 21.6217 41.1323C21.8473 40.7034 22.919 37.6082 24.8556 31.8654Z" fill="#E78CA2"/>
<path d="M31.6617 24.0715L33.5983 24.2021C34.0683 28.4906 36.6817 31.2128 42.529 30.2992L43.2999 35.837C37.8474 36.5455 33.053 34.364 32.0754 28.5092C31.8309 26.9616 31.6241 25.3767 31.6617 24.0715Z" fill="#EFACBB"/>
<path d="M30.7029 23.4934L33.6547 24.1647C33.6547 29.1803 35.2716 32.3874 36.0989 36.0792H28.1458C28.033 37.3472 27.9578 38.671 27.9202 40.0135H21.9602C23.3139 32.8908 26.1529 27.3904 30.5148 23.4934H30.7029Z" fill="#F7CDD4"/>
<path d="M29.3868 28.9192C29.1799 32.0517 29.3115 34.4383 29.744 36.0791H28.1271C28.3527 33.562 28.7475 31.1753 29.3868 28.9192Z" fill="#F7CDD4"/>
<path d="M15.6241 35.7064H12.221L12.4466 34.2334H15.3984L15.6241 35.7064Z" fill="#E78CA2"/>
<path d="M20.0236 25.4138H7.82143C7.65221 25.4138 7.5206 25.5443 7.5206 25.7122V33.0772V33.9349C7.5206 34.1027 7.65221 34.2332 7.82143 34.2332H20.0236C20.1928 34.2332 20.3244 34.1027 20.3244 33.9349V33.0772V25.7122C20.3244 25.5443 20.1928 25.4138 20.0236 25.4138Z" fill="#E78CA2"/>
<path d="M51.0649 15.0842C51.0649 17.7133 48.1131 19.8575 44.4844 19.8575C42.2094 19.8575 40.2164 19.0185 39.0319 17.7692C38.8063 17.5268 36.5313 17.4336 36.7945 17.2471C37.227 16.9302 38.1295 16.3708 38.0354 16.0538C37.9414 15.7368 37.9038 15.4199 37.9038 15.1029C37.9038 12.4738 40.8557 10.3296 44.4844 10.3296C48.1131 10.3296 51.0649 12.4552 51.0649 15.0842Z" fill="#1FC2C1"/>
<path d="M49.6924 61.9038H2.70742V62.631H49.6924V61.9038Z" fill="#910940"/>
<path d="M49.6924 62.6309H2.70742V64.9056H49.6924V62.6309Z" fill="#B50437"/>
<path d="M0 37.8136V35.688H52.3998V37.8136H50.7265H1.69214H0Z" fill="#B50437"/>
<path d="M51.2153 54.0725H1.2033V61.9037H51.2153V54.0725Z" fill="#D64B71"/>
<path d="M51.2153 38.7085H1.2033V53.6064H51.2153V38.7085Z" fill="#D64B71"/>
<path d="M51.2153 53.6062H1.2033V54.0723H51.2153V53.6062Z" fill="#E78CA2"/>
<path d="M51.2153 37.8137H1.2033V38.7087H51.2153V37.8137Z" fill="#E78CA2"/>
<path d="M28.0706 45.048V41.9155H24.5736V45.048H21.3961V48.5161H24.5736V51.6672H28.0706V48.5161H31.2293V45.048H28.0706Z" fill="#F7CDD4"/>
<path d="M55.6524 28.323C55.0132 28.1179 54.7312 27.9501 54.8064 27.8196C54.9756 27.5772 55.314 27.7823 55.4456 27.6331C55.4832 27.5958 55.502 27.5585 55.502 27.5212C55.502 27.484 55.502 27.4653 55.502 27.428C55.4832 27.3348 55.4832 27.2416 55.4644 27.167C55.4644 27.111 55.4456 27.0551 55.4456 26.9992C55.4268 26.8873 55.408 26.7568 55.3892 26.6449C55.3704 26.4957 55.3328 26.3466 55.314 26.1974C55.1072 24.8736 54.8816 23.5684 54.8816 23.5684L50.8393 23.9786C50.8393 23.9786 51.7417 29.1061 51.8169 29.479L55.7652 29.0129C55.7464 28.9383 55.7088 28.6773 55.6524 28.323Z" fill="#FFEDED"/>
<path d="M62.7594 10.8332C62.7594 12.2317 61.8569 13.4809 60.4844 14.2641C60.1648 14.4505 60.3716 15.5133 60.3152 15.6998C60.2588 15.8862 59.0931 14.8234 58.8863 14.8794C58.3411 15.0099 57.777 15.0845 57.1754 15.0845C54.0919 15.0845 51.5913 13.1826 51.5913 10.8332C51.5913 8.48389 54.0919 6.58203 57.1754 6.58203C60.2588 6.58203 62.7594 8.48389 62.7594 10.8332Z" fill="#F7CDD4"/>
<path d="M54.7124 33.1897C54.0919 32.7422 53.4903 32.4439 52.9638 32.2947C51.9297 32.015 51.5161 31.7913 51.0085 31.1573C50.7452 30.8217 50.5008 30.1318 50.7641 29.9081C50.9333 29.7589 51.9485 30.5047 52.3622 30.5793C52.7758 30.6725 52.3998 29.6843 52.6066 29.7962C52.8886 29.7962 53.133 30.1878 53.3399 30.9709L54.8064 31.7726L54.7124 33.1897Z" fill="#E78CA2"/>
<path d="M66.2753 37.5337L61.6689 49.6161L58.4539 58.5101H56.6113L61.0297 37.5337H66.2753Z" fill="#910940"/>
<path d="M67.4034 37.5337C67.4598 41.673 67.4222 47.2481 67.535 47.5091C67.6102 47.6769 70.0356 49.6347 74.7736 53.4012L73.8335 55.0047C68.193 51.3874 65.2224 49.3551 64.9404 48.8703C64.5079 48.1431 62.327 41.5052 61.1989 37.5523H67.4034V37.5337Z" fill="#B50437"/>
<path d="M76.4471 54.4787L74.8434 53.2794L73.5617 54.8088C73.4605 55.9649 73.0806 57.2555 72.422 58.6805L72.7215 58.9185L75.0456 56.1565L75.6864 55.0873L75.8362 55.2063L76.4471 54.4787Z" fill="#E78CA2"/>
<path d="M58.6231 60.2068L58.5291 58.2117H56.5173C55.5584 58.8829 54.3175 59.405 52.7946 59.8338V60.2068H56.4233L57.6642 60.0203V60.2068H58.6231Z" fill="#E78CA2"/>
<path d="M63.6619 23.5869C64.0943 23.0648 64.3951 22.4495 64.3575 21.741C64.2071 19.7086 61.3681 20.1561 60.804 21.1816C60.2588 22.2071 60.3152 24.7989 61.0297 24.9853C61.3117 25.0599 61.9321 24.8735 62.5526 24.5005L62.1578 27.2228H64.4515L63.6619 23.5869Z" fill="#E78CA2"/>
<path d="M61.7253 20.0629C62.0449 19.9696 62.4962 19.9323 62.6842 19.951C62.5714 19.6899 62.5338 19.4103 62.5714 19.1306C62.609 18.8509 62.7218 18.6271 62.8346 18.3848C62.891 18.2729 62.9474 18.161 63.0414 18.0678C63.1354 17.9745 63.2482 17.9186 63.3611 17.9C63.4927 17.8627 63.6055 17.8813 63.7371 17.9C63.7935 17.9186 63.8311 17.9373 63.8875 17.9559C63.9439 17.9745 63.9627 17.9373 64.0003 17.9C64.0943 17.8254 64.2447 17.7694 64.3575 17.7694C64.4891 17.7508 64.6396 17.7694 64.7712 17.8254C64.9028 17.8627 65.0156 17.9373 65.1096 18.0491C65.1472 18.0864 65.1848 18.1424 65.2036 18.1983C65.2224 18.2169 65.2224 18.2356 65.2412 18.2356C65.26 18.2356 65.2976 18.2356 65.3164 18.2542C65.542 18.3288 65.7112 18.4966 65.824 18.7017C65.8805 18.8322 65.9181 19.0373 65.8993 19.2984C65.8993 19.5408 65.6736 20.1934 65.4668 20.4171C65.2788 20.6222 64.9968 20.7714 64.7336 20.8273C64.9028 21.0324 65.0344 21.2748 65.1096 21.5359C65.2036 21.8156 65.26 22.0952 65.2788 22.3936C65.2976 22.6733 65.2976 22.9716 65.2412 23.2326C65.1848 23.4937 65.0532 23.6988 64.8276 23.8293C64.7336 23.8852 64.6208 23.9412 64.5079 23.9785C64.3951 24.0157 64.3011 24.053 64.1883 24.0903C63.9815 24.1276 63.7371 24.1276 63.5679 23.9598C63.5115 23.9039 63.4363 23.8293 63.3987 23.7547C63.3799 23.7361 63.3799 23.7174 63.3987 23.6801C63.4175 23.6428 63.4551 23.6242 63.4927 23.6055C63.6619 23.475 63.7559 23.2886 63.7935 23.0648C63.8123 22.8411 63.7559 22.5614 63.5491 22.4495C63.2858 22.3376 62.985 22.4682 62.7406 22.5987C62.6466 22.2444 62.4398 21.9274 62.1014 21.7596C61.7441 21.5732 61.3305 21.5545 60.9545 21.4054C60.8605 21.3681 60.7664 21.3121 60.6912 21.2375C60.6536 21.2002 60.6348 21.163 60.616 21.107C60.5972 21.0511 60.6348 20.9951 60.6724 20.9579C60.8041 20.6595 61.4057 20.1561 61.7253 20.0629Z" fill="#910940"/>
<path d="M60.4656 22.6919C60.4844 23.0462 60.1648 23.3072 60.1272 23.6428C60.0896 23.9784 60.522 23.8852 60.7477 23.9598" fill="#E78CA2"/>
<path d="M60.6348 24.3143C60.7476 24.2957 60.8229 24.2397 60.9169 24.2025C61.0109 24.1465 61.1049 24.0906 61.2177 24.0906H61.2741L61.2929 24.1465C61.3117 24.2211 61.2929 24.3143 61.2553 24.3703C61.2177 24.4262 61.1613 24.4635 61.1237 24.5008C61.0297 24.5754 60.9169 24.6127 60.8229 24.6872C60.8417 24.6313 60.8793 24.5754 60.9169 24.5381L61.0297 24.4076C61.0673 24.3703 61.1049 24.333 61.1237 24.277C61.1425 24.2397 61.1613 24.2025 61.1425 24.1652L61.2177 24.2211C61.1237 24.2211 61.0485 24.2584 60.9357 24.2957C60.8417 24.333 60.7288 24.3516 60.6348 24.3143Z" fill="#910940"/>
<path d="M60.7852 22.7479C60.8476 22.7479 60.8981 22.6978 60.8981 22.636C60.8981 22.5743 60.8476 22.5242 60.7852 22.5242C60.7229 22.5242 60.6724 22.5743 60.6724 22.636C60.6724 22.6978 60.7229 22.7479 60.7852 22.7479Z" fill="#910940"/>
<path d="M60.5784 22.3749C60.5784 22.319 60.6348 22.2631 60.6912 22.2258C60.7476 22.1885 60.8229 22.1885 60.8793 22.1885C60.9357 22.1885 61.0109 22.2071 61.0673 22.2258C61.1237 22.2444 61.1801 22.2817 61.2177 22.319C61.1613 22.3004 61.1049 22.3004 61.0485 22.2817C60.9921 22.2817 60.9357 22.2631 60.8793 22.2817C60.8229 22.2817 60.7664 22.2817 60.71 22.3004C60.6724 22.3004 60.616 22.319 60.5784 22.3749Z" fill="#910940"/>
<path d="M58.9615 30.7654L56.5549 28.5838C55.2764 28.2296 54.6936 27.9872 54.8064 27.8194C54.9756 27.577 55.314 27.7821 55.4456 27.6329C55.5772 27.4837 55.314 26.9803 55.0508 26.5142C54.7876 26.048 55.0696 26.0853 55.2388 26.1599C55.784 26.5142 56.3105 27.0176 56.8745 27.6702L60.2024 29.4788L58.9615 30.7654Z" fill="#E78CA2"/>
<path d="M61.8005 29.0686C60.6348 29.05 59.0931 28.8076 57.4386 27.7634L56.7805 29.1991C57.9274 30.3179 59.5255 31.2502 60.9357 31.2129C62.0449 31.1756 62.609 29.8517 61.8005 29.0686Z" fill="#EFACBB"/>
<path d="M60.24 31.3807C58.9991 31.679 56.9309 31.3247 54.0355 30.2992C53.3211 31.7722 52.9826 32.835 53.039 33.469C55.5396 34.7555 57.6642 35.3336 59.4315 35.3709C59.3751 36.415 59.5067 37.3846 59.9392 38.2982C60.8228 40.1442 65.9557 38.4288 67.6854 38.7644C68.7759 35.2776 66.6701 33.8606 66.6701 31.6231C66.6701 29.1805 64.696 25.4141 64.3951 25.4141H61.7441C61.5749 27.2786 60.8417 29.3483 60.24 31.3807Z" fill="#F7CDD4"/>
</svg>
