<svg width="319" height="500" viewBox="0 0 319 500" fill="none" xmlns="http://www.w3.org/2000/svg">
<path d="M95.9 -24.7002L96.1 192.8L331.3 380L331.1 -24.7002H95.9Z" fill="#4390DD"/>
<path d="M187.8 519.2L0.900024 192.3H95.9L351.1 395.4V525.2L187.8 519.2Z" fill="#5EA7EF"/>
<path d="M149.5 525.2L0.900024 221.6V192.3L210.8 553.3L149.5 525.2Z" fill="#4390DD"/>
<path d="M149.4 -39.5L149.6 122.1L279.3 183.7L279.2 -39.5H149.4Z" fill="#1761CC"/>
<path d="M208.4 59.8002L157.8 42.2002V114.8L208.4 138.2V59.8002Z" fill="#97D2F2"/>
<path d="M269 79.2001L216.4 61.6001V142.6L269 166.5V79.2001Z" fill="#97D2F2"/>
<path d="M208.1 -46.4L157.5 -60V32.7L208.1 50.2V-46.4Z" fill="#97D2F2"/>
<path d="M268.7 -30.0001L216.1 -43.6001V52.1999L268.7 69.2999V-30.0001Z" fill="#97D2F2"/>
</svg>
