<svg width="477" height="393" viewBox="0 0 477 393" fill="none" xmlns="http://www.w3.org/2000/svg">
<path d="M440.4 77.7002C439.7 87.5002 393.3 116.4 393 117.3C392.9 117.7 397.7 129.1 407.4 151.5L403.3 153.1C388.4 129.3 381.3 116.2 382 113.7C383.1 110.1 395.1 98.1002 418 77.9002L440.4 77.7002Z" fill="#1D67DD"/>
<path d="M406.4 146.4L399.8 148.8C385.8 133.1 380.4 120.1 381.4 113.4C382.1 109 394 97.1002 417.3 77.7002H441C440.2 100.5 397.2 117.3 396.6 118.3C395.9 119.3 401.6 128.8 406.4 146.4Z" fill="#0B45B7"/>
<path d="M408.999 150.69C409.828 151.63 410.374 152.467 410.52 152.946C410.784 153.681 410.98 154.603 411.322 156.005C410.587 156.269 403.461 158.89 390.2 163.747C388.978 162.132 388.945 161.056 390.132 160.424C391.286 159.886 392.217 159.374 392.892 158.981L401.114 151.012C401.276 150.858 401.498 150.833 401.652 150.995L402.882 152.294C404.112 152.423 405.095 152.355 405.829 152.09C406.436 151.885 407.051 151.364 407.863 150.596C408.06 150.348 408.598 150.331 408.999 150.69C408.905 150.656 408.905 150.656 408.999 150.69Z" fill="#073199"/>
<path d="M435.1 77.7002L455.7 127.3L476 169.2H471.2L418.8 77.7002H435.1Z" fill="#1D67DD"/>
<path d="M476.3 167.3C476.7 168.5 477 169.4 477 170C477 170.7 476.9 171.8 476.6 173.2C475.8 173.2 468.3 173.2 454.1 173.2C453.5 171.3 453.9 170.2 455.1 170.1C456.4 169.9 457.4 169.8 458.2 169.7L468.7 165C468.9 164.9 469.1 165 469.2 165.2L469.9 166.8C471.1 167.3 472 167.6 472.7 167.6C473.3 167.6 474.1 167.4 475.2 166.9C475.6 166.7 476.1 166.8 476.3 167.3Z" fill="#073199"/>
<path d="M474.2 160.5L463.6 162.5C455.4 150.4 420.9 100.8 417.2 77.7002H440.9C453.4 94.4002 466.3 148.2 474.2 160.5Z" fill="#1159CC"/>
<path d="M426.3 17.8002C428.1 15.6002 429.4 13.0002 429.2 10.0002C428.6 1.50021 416.7 3.30021 414.4 7.60021C412.1 11.9002 412.4 22.8002 415.4 23.6002C416.6 23.9002 419.1 23.2002 421.7 21.6002L420.1 33.1002H429.7L426.3 17.8002Z" fill="#1D67DD"/>
<path d="M413.5 9.60017C413.6 9.00017 413.8 8.40016 414 7.90016C414.2 7.20016 414.6 6.60016 415 6.00016C415.8 4.90016 416.7 3.90017 417.7 3.10017C419.5 1.60017 421.9 0.700162 424.2 1.00016C425.4 1.10016 426.5 1.60017 427.4 2.30017C428.3 3.00017 429.1 3.90016 430.2 4.00016C431.4 4.10016 432.5 3.00017 433.5 2.30017C434.6 1.60017 435.8 1.00017 437.1 0.800165C439.3 0.400165 441.3 1.20016 442.8 2.90016C444.4 4.80016 445.5 7.50016 444.5 10.0002C444.3 10.5002 444.1 10.9002 443.7 11.2002C443.4 11.5002 442.9 11.8002 442.7 12.3002C442.6 12.8002 443 13.5002 443.1 13.9002C443.3 14.6002 443.5 15.2002 443.5 15.9002C443.4 17.1002 442.7 18.2002 441.9 18.9002C441.1 19.7002 440.1 20.1002 439.1 20.3002C438.4 20.4002 437.7 20.5002 437 20.5002C436.7 20.5002 436.3 20.4002 436 20.3002C435.7 20.2002 435.5 20.3002 435.2 20.5002C433.9 21.3002 432.5 21.7002 431 21.5002C429.7 21.4002 428.3 21.1002 427.3 20.2002C426.2 19.2002 426.2 17.9002 426.5 16.5002C426.2 16.6002 425.4 16.7002 425.9 16.2002C426.1 16.0002 426.4 15.9002 426.7 15.8002C427 15.6002 427.3 15.5002 427.5 15.2002C428.4 14.2002 427.5 12.2002 426.4 11.8002C424.8 11.3002 424.4 13.6002 423.2 14.2002C422.5 14.5002 421.8 14.1002 421.3 13.6002C420.6 13.0002 420.2 12.1002 419.8 11.2002C419.5 10.5002 419.2 9.80017 418.8 9.10017C418.6 8.80017 418.1 7.80016 418.4 7.50016C417.2 7.30016 415.9 7.80016 414.9 8.40016C414.5 8.70016 414.2 9.00016 413.9 9.40016C413.9 9.50016 413.7 9.80017 413.6 9.80017C413.3 10.0002 413.4 9.70017 413.5 9.60017Z" fill="#C1E7F7"/>
<path d="M408 48.7002L397.9 39.5002C392.6 38.0002 390.2 37.0002 390.6 36.3002C391.3 35.3002 392.7 36.1002 393.3 35.5002C393.9 34.9002 392.8 32.8002 391.7 30.8002C390.6 28.8002 391.8 29.0002 392.5 29.3002C394.7 30.8002 397 32.9002 399.3 35.7002L413.2 43.3002L408 48.7002Z" fill="#1D67DD"/>
<path d="M419.9 41.5C415 41.4 408.6 40.4 401.7 36L399 42C403.8 46.7 410.5 50.6 416.3 50.4C420.9 50.4 423.2 44.8 419.9 41.5Z" fill="#CE3A5E"/>
<path d="M371.7 29.0001L370.1 20.9001L389.3 19.6001L391.5 26.9001L371.7 29.0001Z" fill="#5EA7EF"/>
<path d="M371.7 28.9999V50.2999L391.5 47.9999V26.8999L371.7 28.9999Z" fill="#0B45B7"/>
<path d="M378 32.9L371.7 29V50.4L378 55.3V32.9Z" fill="#5EA7EF"/>
<path d="M400 30.5999L391.5 26.8999V47.9999L400 52.3999V30.5999Z" fill="#8C694D"/>
<path d="M378 32.8001L372.5 26.0001L366.4 22.6001L371.7 29.0001L378 32.8001Z" fill="#7DC1EF"/>
<path d="M400 30.5999L405.6 23.6999L397 20.8999L391.5 26.8999L400 30.5999Z" fill="#5EA7EF"/>
<path d="M378 32.8001L380.2 26.5001L403 24.6001L400 30.6001L378 32.8001Z" fill="#4390DD"/>
<path d="M378 32.9001V55.3001L400 52.4001V30.6001L378 32.9001Z" fill="#7DC1EF"/>
<path d="M387.6 59.9999C385 58.0999 382.5 56.7999 380.3 56.1999C376 54.9999 374.2 54.0999 372.1 51.3999C371 49.9999 370 47.0999 371.1 46.0999C371.8 45.4999 376 48.5999 377.8 48.9999C379.5 49.3999 377.9 45.2999 378.9 45.6999C380.1 45.6999 381.1 47.3999 382 50.5999L388.1 53.8999L387.6 59.9999Z" fill="#1D67DD"/>
<path d="M413.3 51.2002C408.1 52.5002 399.5 51.0002 387.4 46.7002C384.4 52.9002 383 57.4002 383.2 60.0002C393.6 65.4002 402.5 67.9002 409.9 68.0002C409.7 72.4002 410.2 76.5002 412 80.3002C415.7 88.1002 437.1 80.9002 444.3 82.3002C448.8 67.6002 440.1 61.7002 440.1 52.3002C440.1 42.0002 431.8 26.2002 430.6 26.2002H419.5C418.9 34.0002 415.9 42.6002 413.3 51.2002Z" fill="#F24C64"/>
<path d="M225.6 221.9V168.6L165.9 138.3V187.1L225.6 221.9Z" fill="#317FDD"/>
<path d="M225.6 168.6L319.4 149V198.3L225.6 221.9V168.6Z" fill="#4390DD"/>
<path d="M165.9 138.3L253.7 122L319.4 149L225.6 168.6L165.9 138.3Z" fill="#5EA7EF"/>
<path opacity="0.4" d="M286.3 194.5V206.6L260 213.2V200.5L286.3 194.5Z" fill="white"/>
<path opacity="0.4" d="M288.1 170.8V155.5L225.6 127.2L201.1 131.8L258.5 161.7V177.9L288.1 170.8Z" fill="white"/>
<path d="M275.9 158.1L214.6 129.3L213.1 129.6L274.4 158.4L275.9 158.1Z" fill="white"/>
<path d="M249.6 161.5V127.3L287.9 107.9V139.2L249.6 161.5Z" fill="#4390DD"/>
<path d="M249.6 127.3L189.5 114.8V146.4L249.6 161.5V127.3Z" fill="#317FDD"/>
<path d="M287.9 107.9L231.6 97.5L189.5 114.8L249.6 127.3L287.9 107.9Z" fill="#5EA7EF"/>
<path opacity="0.4" d="M210.7 143.9V151.7L227.6 155.9V147.8L210.7 143.9Z" fill="white"/>
<path opacity="0.4" d="M209.6 128.8V119L249.6 100.8L265.3 103.8L228.5 122.9V133.3L209.6 128.8Z" fill="white"/>
<path d="M217.4 120.6L256.6 102.2L257.6 102.3L218.3 120.8L217.4 120.6Z" fill="white"/>
<path d="M102.8 225.7V137.1L145.8 114.3V199.5L102.8 225.7Z" fill="#5EA7EF"/>
<path d="M102.8 137.1L35.4 122.4V208L102.8 225.7V137.1Z" fill="#4390DD"/>
<path d="M145.8 114.3L82.6 102L35.4 122.4L102.8 137.1L145.8 114.3Z" fill="#7DC1EF"/>
<path opacity="0.4" d="M59.3 205.1V214.2L78.2 219.2V209.6L59.3 205.1Z" fill="white"/>
<path opacity="0.4" d="M58 138.8V127.3L102.8 105.9L120.5 109.4L79.2 131.9V144.1L58 138.8Z" fill="white"/>
<path d="M66.7 129.2L110.7 107.5L111.9 107.7L67.8 129.4L66.7 129.2Z" fill="white"/>
<path d="M167.5 229.5V196.6L202.7 177.9V208.1L167.5 229.5Z" fill="#5EA7EF"/>
<path d="M167.5 196.6L112.3 184.5V215L167.5 229.5V196.6Z" fill="#4390DD"/>
<path d="M202.7 177.9L151 167.9L112.3 184.5L167.5 196.6L202.7 177.9Z" fill="#7DC1EF"/>
<path opacity="0.4" d="M131.8 212.6V220.1L147.3 224.2V216.4L131.8 212.6Z" fill="white"/>
<path opacity="0.4" d="M130.8 198V188.6L167.5 171.1L182 173.9L148.2 192.4V202.4L130.8 198Z" fill="white"/>
<path d="M137.9 190.1L174 172.4L174.9 172.5L138.8 190.3L137.9 190.1Z" fill="white"/>
<path d="M282.4 199.2L278.1 184.1L330.8 181.7L337 195.3L282.4 199.2Z" fill="#7DC1EF"/>
<path d="M282.4 199.1V239.1L337 234.7V195.3L282.4 199.1Z" fill="#0B45B7"/>
<path d="M299.7 206.5L282.4 199.2V239.2L299.7 248.4V206.5Z" fill="#4390DD"/>
<path d="M360.4 202.3L337 195.3V234.7L360.4 242.9V202.3Z" fill="#8C694D"/>
<path d="M299.7 206.4L284.8 193.7L267.9 187.2L282.4 199.2L299.7 206.4Z" fill="#5EA7EF"/>
<path d="M360.4 202.3L375.6 189.3L352.1 184.2L337 195.3L360.4 202.3Z" fill="#7DC1EF"/>
<path d="M299.7 206.4L305.9 194.6L368.5 191.1L360.4 202.3L299.7 206.4Z" fill="#4390DD"/>
<path d="M299.7 206.5V248.4L360.4 242.9V202.3L299.7 206.5Z" fill="#7DC1EF"/>
<path d="M291.4 237.5L296.9 218.1L229.4 215L221.5 232.5L291.4 237.5Z" fill="#7DC1EF"/>
<path d="M291.4 237.4V255.8L221.5 249.4V232.5L291.4 237.4Z" fill="#0B45B7"/>
<path d="M269.2 246.8L291.4 237.5V255.5L269.2 267.3V246.8Z" fill="#7DC1EF"/>
<path d="M191.5 241.4L221.5 232.5V249.8L191.5 260.3V241.4Z" fill="#8C694D"/>
<path d="M269.2 246.7L288.3 230.4L310 222.1L291.4 237.5L269.2 246.7Z" fill="#4390DD"/>
<path d="M191.5 241.4L172.1 224.8L202.2 218.2L221.5 232.5L191.5 241.4Z" fill="#7DC1EF"/>
<path d="M269.2 246.7L261.3 231.6L181.1 227.1L191.5 241.4L269.2 246.7Z" fill="#5EA7EF"/>
<path d="M269.2 246.8V267.3L191.5 260.2V241.4L269.2 246.8Z" fill="#4390DD"/>
<path d="M124.1 136.5C123.7 136.6 123.3 136.7 123 137.1C122.7 137.4 122.6 137.8 122.5 138.2C122.4 139 122.6 139.9 122.9 140.7C123.2 141.5 123.6 142.2 124.1 142.8C124.6 143.4 125.3 144 125.7 143.8C126.2 143.7 126.6 142.9 126.8 142.2C127 141.4 127.1 140.6 127.1 139.8C127 139 126.9 138.1 126.4 137.4C126.2 137.1 125.8 136.8 125.4 136.6C125 136.4 124.5 136.4 124.1 136.5ZM124.1 136.5C124.9 136.3 125.9 136.6 126.4 137.3C127 138 127.3 138.8 127.5 139.7C127.7 140.6 127.7 141.5 127.6 142.4C127.5 142.9 127.4 143.3 127.1 143.8C126.9 144.2 126.5 144.7 125.9 144.9C125.3 145.1 124.7 144.8 124.3 144.5C123.9 144.2 123.6 143.8 123.3 143.4C122.8 142.6 122.5 141.8 122.3 140.9C122.1 140 122.1 139.1 122.3 138.3C122.5 137.3 123.2 136.5 124.1 136.5Z" fill="#4390DD"/>
<path d="M130.1 142.1C129.7 140.5 129.3 139 129.1 137.4C129 136.6 129 135.8 129.1 134.9C129.2 134.5 129.2 134 129.4 133.6C129.6 133.2 129.9 132.7 130.4 132.5C130.9 132.3 131.4 132.3 132 132.5C132.5 132.7 132.9 133.1 133.1 133.5C133.6 134.3 133.8 135.1 134 135.9C134.4 137.5 134.4 139.1 134.4 140.7C134 139.1 133.7 137.5 133.2 136.1C133 135.4 132.7 134.6 132.3 134.1C131.9 133.5 131.4 133.3 130.8 133.5C130.3 133.7 130.1 134.4 129.9 135.1C129.8 135.8 129.8 136.6 129.8 137.4C129.9 138.9 130.1 140.5 130.1 142.1Z" fill="#4390DD"/>
<path d="M137.6 130.6C137.3 130.4 137 130.2 136.6 130.2C136.3 130.2 136 130.3 135.8 130.6C135.4 131.1 135.4 131.8 135.5 132.5C135.5 132.8 135.6 133.2 135.7 133.3C135.7 133.3 135.8 133.3 135.9 133.3C136 133.3 136.2 133.3 136.4 133.2C137.1 133.1 138.1 132.9 138.9 133.4C139.7 134 139.9 134.9 140.1 135.6C140.2 136.4 140.2 137.2 139.8 138C139.5 138.4 139.1 138.6 138.8 138.8C138.4 139 138.1 139.1 137.7 139.2C137.3 139.3 136.9 139.3 136.5 139.2C136.3 139.2 136.1 139.1 136 138.9C135.9 138.7 135.8 138.5 135.8 138.4C135.9 138.8 136.2 139 136.5 139C136.8 139 137.2 138.9 137.5 138.8C138.1 138.6 138.8 138.1 139.1 137.7C139.3 137.2 139.3 136.5 139.2 135.8C139.1 135.2 138.8 134.5 138.4 134.2C138 133.9 137.3 133.9 136.6 134.1C136.4 134.1 136.2 134.2 136 134.1C135.8 134.1 135.4 134 135.2 133.8C134.8 133.3 134.8 132.9 134.8 132.5C134.8 131.7 135 130.9 135.6 130.2C135.9 129.9 136.4 129.7 136.8 129.9C137.1 130.1 137.4 130.4 137.6 130.6Z" fill="#4390DD"/>
<path d="M118.6 141.6C118.1 141.4 117.5 141.2 117.1 141.3C116.6 141.4 116.4 142 116.2 142.5C115.8 143.5 115.7 144.5 115.8 145.6C116 146.6 116.4 147.6 117.1 148.3C117.4 148.7 117.8 149 118.3 149.2C118.7 149.4 119.1 149.4 119.3 149.2C119.5 149 119.7 148.4 119.8 148C119.9 147.5 119.9 147 119.9 146.5C119.9 145.5 119.6 144.4 119.3 143.3C119.1 142.2 118.9 141.1 118.7 140C118.6 138.9 118.4 137.8 118.4 136.7C118.8 138.9 119.4 141 120 143.1C120.3 144.1 120.7 145.2 120.8 146.4C120.9 147 120.8 147.6 120.7 148.2C120.5 148.8 120.4 149.3 119.9 149.9C119.6 150.2 119.2 150.3 118.8 150.3C118.4 150.3 118.1 150.2 117.8 150C117.2 149.7 116.8 149.3 116.4 148.9C115.6 148 115.2 146.8 115.1 145.7C115 144.5 115.2 143.3 115.8 142.3C116.1 141.9 116.4 141.2 117 141.1C117.6 141 118.1 141.3 118.6 141.6Z" fill="#4390DD"/>
<path d="M331 211.7C330.6 211.6 330.1 211.7 329.8 211.9C329.4 212.1 329.2 212.5 329 212.8C328.6 213.6 328.5 214.4 328.5 215.3C328.5 216.1 328.7 217 328.9 217.7C329.2 218.4 329.6 219.2 330.1 219.2C330.6 219.3 331.2 218.7 331.7 218C332.2 217.3 332.5 216.6 332.7 215.8C332.9 215 333 214.1 332.8 213.3C332.7 212.9 332.5 212.5 332.1 212.2C331.8 211.9 331.4 211.8 331 211.7ZM331 211.7C331.9 211.8 332.7 212.4 333 213.2C333.3 214 333.4 214.9 333.3 215.8C333.2 216.7 332.9 217.6 332.5 218.4C332.3 218.8 332 219.2 331.6 219.5C331.2 219.8 330.7 220.1 330.1 220.1C329.5 220 329 219.6 328.7 219.2C328.4 218.8 328.3 218.3 328.1 217.9C327.9 217 327.9 216.1 328 215.2C328.1 214.3 328.4 213.4 328.8 212.7C329.2 212 330.1 211.5 331 211.7Z" fill="#4390DD"/>
<path d="M334.8 219C334.9 217.4 335 215.8 335.4 214.2C335.6 213.4 335.8 212.6 336.2 211.8C336.4 211.4 336.6 211 336.9 210.7C337.2 210.4 337.7 210 338.2 210C338.7 209.9 339.3 210.1 339.7 210.5C340.1 210.9 340.3 211.3 340.4 211.8C340.6 212.7 340.6 213.5 340.5 214.4C340.3 216 339.8 217.6 339.3 219.1C339.4 217.5 339.6 215.9 339.7 214.3C339.7 213.5 339.7 212.7 339.5 212.1C339.3 211.4 338.9 211 338.3 211.1C337.8 211.1 337.3 211.7 337 212.4C336.6 213.1 336.4 213.8 336.1 214.5C335.7 215.9 335.3 217.5 334.8 219Z" fill="#4390DD"/>
<path d="M345.6 210.6C345.4 210.3 345.1 210 344.8 209.9C344.5 209.8 344.2 209.8 343.9 210C343.4 210.4 343.1 211 343 211.7C342.9 212 342.9 212.4 343 212.5C343 212.5 343.1 212.6 343.2 212.6C343.3 212.6 343.5 212.7 343.7 212.7C344.4 212.8 345.4 212.9 346 213.7C346.6 214.5 346.5 215.4 346.4 216.2C346.2 217 346 217.8 345.3 218.4C344.9 218.7 344.5 218.8 344.1 218.8C343.7 218.8 343.3 218.8 342.9 218.8C342.5 218.7 342.1 218.6 341.8 218.4C341.6 218.3 341.5 218.1 341.4 217.9C341.3 217.7 341.4 217.5 341.4 217.3C341.4 217.7 341.6 218 341.9 218.1C342.2 218.2 342.6 218.3 342.9 218.2C343.6 218.2 344.4 218 344.7 217.7C345.1 217.3 345.3 216.6 345.4 215.9C345.5 215.3 345.4 214.5 345.1 214.1C344.8 213.7 344.2 213.5 343.5 213.4C343.3 213.4 343.1 213.3 342.9 213.2C342.7 213.1 342.4 212.9 342.2 212.6C342 212 342.2 211.6 342.3 211.2C342.5 210.4 343 209.7 343.7 209.3C344.1 209.1 344.6 209.1 344.9 209.4C345.3 209.9 345.5 210.2 345.6 210.6Z" fill="#4390DD"/>
<path d="M324.1 214.8C323.7 214.5 323.2 214.1 322.7 214.1C322.2 214.1 321.9 214.5 321.5 214.9C320.8 215.7 320.3 216.7 320.2 217.7C320.1 218.7 320.1 219.8 320.5 220.7C320.7 221.1 321 221.6 321.3 221.9C321.6 222.2 322 222.4 322.2 222.2C322.5 222.1 322.9 221.6 323.1 221.2C323.4 220.8 323.6 220.3 323.7 219.8C324 218.8 324 217.7 324.2 216.6C324.3 215.5 324.5 214.4 324.7 213.3C324.9 212.2 325.2 211.1 325.5 210.1C325.2 212.3 325 214.5 325 216.7C325 217.8 324.9 218.9 324.7 220.1C324.6 220.7 324.3 221.2 324 221.7C323.7 222.2 323.4 222.7 322.7 223.1C322.3 223.3 321.9 223.3 321.5 223.1C321.1 223 320.9 222.7 320.7 222.5C320.3 222 320 221.5 319.7 221C319.3 219.9 319.2 218.6 319.5 217.5C319.8 216.4 320.4 215.3 321.2 214.5C321.6 214.2 322.1 213.7 322.8 213.8C323.3 213.9 323.7 214.4 324.1 214.8Z" fill="#4390DD"/>
<path d="M29.2 351.1L78.5 481.6L113.1 577.8H132.8L85.3 351.1H29.2Z" fill="#1D67DD"/>
<path d="M17 351.1C16.5 395.9 16.9 456.2 15.6 459C14.8 460.9 -11.1 482.1 -62.1 522.6L-52 539.8C8.49996 500.8 40.3 478.7 43.4 473.5C48 465.7 71.4 393.9 83.5 351.1H17Z" fill="#317FDD"/>
<path d="M55.8 201.9C51.1 196.4 47.9 189.6 48.4 181.9C49.9 159.9 80.5 164.8 86.4 175.9C92.3 187 91.6 215.1 84 217.1C80.9 217.9 74.4 216 67.8 212L72 241.5H47.3L55.8 201.9Z" fill="#D6EEFC"/>
<path d="M69 184.3C69.9 197.4 72.4 204 76.5 204C82.6 204 87.7 200.1 90.4 200.1C92.3 200.1 91.9 202.5 90.6 204.3C89.5 205.8 84.4 207.2 84.4 209.5C84.4 211.8 88.5 210 88.5 211.4C88.5 213.7 89.2 217.9 85.3 217.9C81.3 217.9 70 216.5 68 210.6C66.7 206.8 65.9 198.9 65.6 187C65.4 187 65.1 187 64.9 187C61.5 187 58.7 189.8 58.7 193.2C58.7 194.9 59.4 196.5 60.6 197.6C59.2 199.6 57.6 201.7 55.8 203.9C48.9 199.8 42.8 187.7 49.5 176.1C51.4 170.4 56.6 167.4 61.6 166C65.6 164.3 69.8 164.1 73.3 165.1C80.2 165.7 86.4 167.8 88.1 169.1C88.1 175.6 86.8 177.6 76 177.4C73.2 178.7 71.2 181.1 69 184.3Z" fill="#CE3A5E"/>
<path d="M44.7 220.7C44.9 219.9 45.2 219.1 45.4 218.4L46.3 218.8C46.4 218.7 46.6 218.5 46.7 218.4L75.4 222.8C75.4 238.9 82 252.7 90.2 265.7C102.8 285.9 105.3 308.2 90.9 338.2C77.9 365.3 70.3 371.2 15.6 352.9C15.6 338.3 16.3 327.3 21.1 308.8C21.5 291.9 31.5 238 44.7 220.7Z" fill="#0B45B7"/>
<path d="M61.5 316.2C61.3 316.8 61.2 317.4 61 318C28.2 295.5 28.2 268.2 37.9 237.6C30.6 267.7 33.6 293.1 61.5 316.2Z" fill="black" fill-opacity="0.2"/>
<path d="M111.1 264.6C99.5 262 84.2 264.1 74.3 268.7C71.2 270.2 68.3 272.3 66.5 275.1C65.4 276.8 64.4 279.1 64.5 281.2C64.8 286 73.2 285.8 76.6 286.2C86.3 287.4 96.5 287.1 106.1 285.5C111.2 284.6 117.3 283.5 121.6 280.5C124.2 278.7 127.5 275.7 126.4 272.1C125.6 269.4 122.5 267.9 120.1 267C117.8 266.2 113.6 265.2 111.1 264.6Z" fill="#317FDD"/>
<path d="M70.6 259.9C70.7 260 70.8 260 70.9 260C71 260 71.1 260 71.2 260.2C71.2 260.4 71.1 260.4 71 260.4C70.4 260.6 70.4 260.7 70.7 261.3C71 261.8 71.5 262.2 72.1 262.5C72.9 262.9 73.8 263.3 74.6 263.8C75.2 264.2 75.7 264.5 76.2 265C77.3 265.9 78.2 266.9 78.7 268.2C79 268.9 79.2 269.7 79.3 270.5C79.5 271.7 79.6 272.8 79.6 274C79.6 274.6 79.6 275.2 79.7 275.8C79.7 276.5 80 277.1 80.3 277.7C80.5 278.3 80.8 278.8 81 279.4C81.2 279.9 81.5 280.4 81.7 280.9C82 281.5 82.2 282.1 82.5 282.7C82.9 283.5 83.3 284.3 83.6 285.2C83.9 285.8 84.2 286.4 84.5 287C84.8 287.7 85.1 288.3 85.4 289C85.6 289.6 85.9 290.1 86.1 290.7C86.4 291.5 86.8 292.3 87.1 293.1C87.5 294.2 87.9 295.4 88.2 296.5C88.3 297.1 88.5 297.6 88.6 298.2C88.7 298.7 88.8 299.2 88.9 299.6C89 300.2 89 300.9 89 301.5C89 302.5 88.8 303.4 88.2 304.2C87.3 305.3 85.5 305.9 84.2 305.2C83.9 305 83.9 305 83.7 305.4C83.2 306.6 82.2 307.3 80.9 307.4C80.2 307.5 79.5 307.4 78.8 307C78.7 306.9 78.6 307 78.5 307.1C78 307.9 77.2 308.4 76.2 308.5C74.9 308.7 74 308.2 73.1 307.4C72.6 307 72.3 306.5 71.9 305.9C71.3 305 70.9 304 70.5 303C70.1 302.1 69.8 301.2 69.6 300.3C69.3 299.2 69 298.2 68.8 297.1C68.6 296.3 68.4 295.4 68.3 294.6C68.1 293.7 68 292.9 67.8 292C67.6 291.2 67.5 290.4 67.3 289.6C67.1 288.6 66.9 287.6 66.8 286.5C66.7 285.8 66.6 285.2 66.4 284.5C66.3 284 66.2 283.6 66.2 283.1C66.1 282.7 66 282.2 66 281.8C65.9 281.1 65.7 280.4 65.3 279.9C65.1 279.5 64.8 279.1 64.6 278.8C64 277.9 63.4 277.1 63 276.1C62.6 275.4 62.3 274.7 62.1 273.9C61.8 273 61.8 272 61.9 271.1C62 269.8 62.4 268.5 62.9 267.3C63.2 266.5 63.6 265.8 64 265.1C64.3 264.6 64.5 264 64.6 263.4C64.6 263.1 64.5 262.8 64.4 262.5C64.4 262.4 64.3 262.4 64.2 262.4C64.1 262.4 63.9 262.5 63.8 262.5C63.7 262.5 63.6 262.5 63.5 262.4C63.5 262.3 63.5 262.2 63.5 262.1C63.6 262 63.8 262 63.8 261.8H63.9C65.4 261.3 67 260.8 68.5 260.3C69.1 260.3 69.9 260.1 70.6 259.9Z" fill="#C3E3F6"/>
<path d="M70.6 259.9C69.9 260.1 69.2 260.3 68.4 260.6C66.9 261.1 65.3 261.6 63.8 262.1H63.7C63.5 262.2 63.4 262.1 63.3 261.9C63.3 261.6 63.2 261.4 63.1 261.2C63.2 261.1 63.4 261.1 63.5 260.9C63.3 261 63.2 261 63.1 261C62.8 259.8 62.4 258.7 62.1 257.6C62 257.2 62.1 256.9 62.6 256.7C64.5 256.1 66.5 255.5 68.4 254.9C68.8 254.8 69.2 255 69.3 255.4C69.6 256.4 69.9 257.4 70.2 258.4C70.2 258.5 70.4 258.7 70.4 258.8C70 258.9 69.5 259.1 69.1 259.2V259.3C69.6 259.2 70 259 70.4 258.9C70.4 259 70.5 259.2 70.6 259.3C70.7 259.5 70.7 259.6 70.8 259.8C70.8 259.8 70.7 259.8 70.6 259.9ZM67 259.8C66.5 259.9 66 260.1 65.4 260.2C66 260.1 66.5 259.9 67 259.8ZM67.2 259.7C67.7 259.6 68.2 259.4 68.8 259.2C68.2 259.3 67.7 259.5 67.2 259.7ZM63.7 260.8C64.2 260.7 64.7 260.5 65.2 260.4C64.7 260.5 64.2 260.6 63.7 260.8Z" fill="#1A2CAF"/>
<path d="M70.6 299.6C70.2 298.1 69.8 296.6 69.5 295.1C69 292.5 68.5 289.9 68 287.3C67.6 285.1 67.6 282.6 66.7 280.5C66.2 279.3 65.3 278.2 64.6 277.1C63.7 275.6 63.1 273.9 63 272.1C62.9 270.8 63 267.9 64.3 267.3C64.8 268.2 64.5 269.5 64.4 270.6C64.3 273.1 65.6 275.4 66.9 277.5C68.3 279.6 68.9 281.5 69.4 283.9C69.8 285.8 70.2 287.8 70.6 289.7C71.5 294.3 72.4 298.9 73.6 303.5C73.7 303.7 73.7 303.9 73.6 304.1C73.4 304.6 72.6 304.3 72.4 304C71.6 302.6 71.1 301.1 70.6 299.6Z" fill="#FEFEFE"/>
<path d="M117.4 249.5C117.4 249.6 117.6 249.6 117.7 249.7C117.8 249.8 117.9 249.8 117.9 249.9C117.9 250.1 117.8 250.1 117.6 250.1C117 250.2 116.9 250.3 117.1 250.9C117.3 251.5 117.7 252 118.2 252.4C118.9 253 119.6 253.6 120.3 254.2C120.8 254.7 121.2 255.2 121.6 255.7C122.5 256.8 123.1 258 123.4 259.4C123.6 260.2 123.5 261 123.5 261.8C123.5 263 123.3 264.1 123 265.3C122.9 265.9 122.8 266.4 122.7 267C122.6 267.7 122.7 268.4 122.8 269C122.9 269.6 123 270.2 123.2 270.8C123.3 271.3 123.5 271.9 123.6 272.4C123.7 273 123.9 273.7 124 274.3C124.2 275.2 124.4 276.1 124.6 277C124.7 277.7 124.9 278.3 125 279C125.2 279.7 125.3 280.5 125.4 281.2C125.5 281.8 125.6 282.4 125.7 283C125.8 283.8 126 284.7 126.1 285.5C126.3 286.7 126.4 287.9 126.4 289.1C126.4 289.7 126.4 290.3 126.4 290.8C126.4 291.3 126.3 291.8 126.3 292.3C126.3 292.9 126.1 293.6 126 294.2C125.8 295.1 125.4 296 124.6 296.7C123.5 297.6 121.6 297.7 120.4 296.8C120.1 296.5 120.1 296.6 119.9 296.9C119.1 298 118.1 298.4 116.8 298.3C116.1 298.2 115.4 297.9 114.9 297.4C114.8 297.3 114.7 297.3 114.6 297.4C113.9 298.1 113 298.3 112.1 298.3C110.8 298.3 110 297.5 109.3 296.5C109 296 108.7 295.4 108.5 294.8C108.1 293.8 107.9 292.7 107.8 291.7C107.6 290.8 107.5 289.8 107.5 288.9C107.5 287.8 107.4 286.7 107.4 285.6C107.4 284.7 107.4 283.9 107.4 283C107.4 282.1 107.5 281.2 107.5 280.4C107.5 279.6 107.5 278.8 107.6 278C107.7 277 107.7 275.9 107.8 274.9C107.9 274.2 107.9 273.6 107.9 272.9C107.9 272.4 107.9 272 108 271.5C108 271.1 108 270.6 108 270.2C108 269.5 108 268.8 107.7 268.1C107.5 267.7 107.4 267.3 107.2 266.8C106.8 265.8 106.5 264.8 106.2 263.8C106 263 105.9 262.2 105.8 261.4C105.7 260.4 105.9 259.5 106.2 258.6C106.6 257.3 107.2 256.2 108 255.1C108.5 254.4 109 253.8 109.6 253.2C110 252.8 110.4 252.3 110.6 251.7C110.7 251.4 110.6 251.1 110.6 250.8C110.6 250.7 110.5 250.7 110.4 250.7C110.3 250.7 110.1 250.7 110 250.7C109.9 250.7 109.8 250.7 109.8 250.6C109.8 250.5 109.8 250.4 109.9 250.3C110 250.2 110.2 250.2 110.3 250.1H110.4C112 250 113.6 249.8 115.3 249.7C115.9 249.6 116.6 249.6 117.4 249.5Z" fill="#7DC1EF"/>
<path d="M117.4 249.5C116.6 249.6 115.9 249.6 115.1 249.7C113.5 249.8 111.9 250 110.2 250.1H110.1C109.8 250.2 109.8 250 109.8 249.8C109.8 249.5 109.8 249.3 109.8 249C109.9 248.9 110.1 249 110.2 248.8C110 248.8 109.9 248.8 109.7 248.8C109.7 247.6 109.5 246.4 109.4 245.3C109.4 244.9 109.6 244.6 110 244.5C112 244.3 114.1 244.2 116.1 244C116.5 244 116.8 244.2 116.9 244.6C117 245.6 117.1 246.7 117.1 247.7C117.1 247.9 117.2 248 117.2 248.1C116.7 248.1 116.3 248.2 115.8 248.2V248.3C116.3 248.3 116.7 248.2 117.2 248.2C117.2 248.3 117.2 248.5 117.3 248.6C117.3 248.8 117.3 248.9 117.4 249.1C117.6 249.4 117.5 249.5 117.4 249.5ZM113.9 248.6C113.4 248.6 112.8 248.6 112.3 248.7C112.8 248.7 113.4 248.7 113.9 248.6ZM114.1 248.6C114.6 248.6 115.2 248.5 115.7 248.5C115.2 248.5 114.7 248.5 114.1 248.6ZM110.5 248.9C111 248.9 111.6 248.8 112.1 248.8C111.5 248.8 111 248.8 110.5 248.9Z" fill="#1A2CAF"/>
<path d="M108.7 288.3C108.6 286.8 108.6 285.2 108.6 283.7C108.6 281.1 108.7 278.4 108.9 275.8C109 273.5 109.6 271.1 109.1 268.9C108.8 267.6 108.2 266.4 107.8 265.1C107.3 263.4 107 261.6 107.3 259.9C107.5 258.7 108.2 255.8 109.6 255.5C109.9 256.5 109.3 257.7 109 258.7C108.4 261.1 109.1 263.6 109.9 265.9C110.8 268.3 111 270.2 110.9 272.7C110.8 274.7 110.8 276.7 110.7 278.6C110.6 283.3 110.4 288 110.5 292.7C110.5 292.9 110.5 293.1 110.4 293.3C110.1 293.8 109.4 293.3 109.3 292.9C109 291.4 108.8 289.8 108.7 288.3Z" fill="#FEFEFE"/>
<path d="M87.9 256.2C87.9 256.3 88.1 256.3 88.2 256.4C88.3 256.5 88.4 256.5 88.4 256.6C88.4 256.8 88.3 256.8 88.1 256.8C87.5 256.9 87.4 257 87.6 257.6C87.8 258.2 88.2 258.7 88.7 259.1C89.4 259.7 90.1 260.3 90.8 260.9C91.3 261.4 91.7 261.9 92.1 262.4C93 263.5 93.6 264.7 93.9 266.1C94.1 266.9 94 267.7 94 268.5C94 269.7 93.8 270.8 93.5 272C93.4 272.6 93.3 273.1 93.2 273.7C93.1 274.4 93.2 275.1 93.3 275.7C93.4 276.3 93.5 276.9 93.7 277.5C93.8 278 94 278.6 94.1 279.1C94.2 279.7 94.4 280.4 94.5 281C94.7 281.9 94.9 282.8 95.1 283.7C95.2 284.4 95.4 285 95.5 285.7C95.7 286.4 95.8 287.2 95.9 287.9C96 288.5 96.1 289.1 96.2 289.7C96.3 290.5 96.5 291.4 96.6 292.2C96.8 293.4 96.9 294.6 96.9 295.8C96.9 296.4 96.9 297 96.9 297.5C96.9 298 96.8 298.5 96.8 299C96.8 299.6 96.6 300.3 96.5 300.9C96.3 301.8 95.9 302.7 95.1 303.4C94 304.3 92.1 304.4 90.9 303.5C90.6 303.2 90.6 303.3 90.4 303.6C89.6 304.7 88.6 305.1 87.3 305C86.6 304.9 85.9 304.6 85.4 304.1C85.3 304 85.2 304 85.1 304.1C84.4 304.8 83.5 305 82.6 305C81.3 305 80.5 304.2 79.8 303.2C79.5 302.7 79.2 302.1 79 301.5C78.6 300.5 78.4 299.4 78.3 298.4C78.1 297.5 78 296.5 78 295.6C78 294.5 77.9 293.4 77.9 292.3C77.9 291.4 77.9 290.6 77.9 289.7C77.9 288.8 78 287.9 78 287.1C78 286.3 78 285.5 78.1 284.7C78.2 283.7 78.2 282.6 78.3 281.6C78.4 280.9 78.4 280.3 78.4 279.6C78.4 279.1 78.4 278.7 78.5 278.2C78.5 277.8 78.5 277.3 78.5 276.9C78.5 276.2 78.5 275.5 78.2 274.8C78 274.4 77.9 274 77.7 273.5C77.3 272.5 77 271.5 76.7 270.5C76.5 269.7 76.4 268.9 76.3 268.1C76.2 267.1 76.4 266.2 76.7 265.3C77.1 264 77.7 262.9 78.5 261.8C79 261.1 79.5 260.5 80.1 259.9C80.5 259.5 80.9 259 81.1 258.4C81.2 258.1 81.1 257.8 81.1 257.5C81.1 257.4 81 257.4 80.9 257.4C80.8 257.4 80.6 257.4 80.5 257.4C80.4 257.4 80.3 257.4 80.3 257.3C80.3 257.2 80.3 257.1 80.4 257C80.5 256.9 80.7 256.9 80.8 256.8H80.9C82.5 256.7 84.1 256.5 85.8 256.4C86.4 256.3 87.2 256.3 87.9 256.2Z" fill="#7DC1EF"/>
<path d="M87.9 256.2C87.1 256.3 86.4 256.3 85.6 256.4C84 256.5 82.4 256.7 80.7 256.8H80.6C80.3 256.9 80.3 256.7 80.3 256.5C80.3 256.2 80.3 256 80.3 255.7C80.4 255.6 80.6 255.7 80.7 255.5C80.5 255.5 80.4 255.5 80.2 255.5C80.2 254.3 80 253.1 79.9 252C79.9 251.6 80.1 251.3 80.5 251.2C82.5 251 84.6 250.9 86.6 250.7C87 250.7 87.3 250.9 87.4 251.3C87.5 252.3 87.6 253.4 87.6 254.4C87.6 254.6 87.7 254.7 87.7 254.8C87.2 254.8 86.8 254.9 86.3 254.9V255C86.8 255 87.2 254.9 87.7 254.9C87.7 255 87.7 255.2 87.8 255.3C87.8 255.5 87.8 255.6 87.9 255.8C88.1 256.2 88 256.2 87.9 256.2ZM84.4 255.4C84.4 255.3 84.4 255.3 84.4 255.4C83.9 255.4 83.3 255.4 82.8 255.5C83.4 255.4 83.9 255.4 84.4 255.4ZM84.7 255.3C85.2 255.3 85.8 255.2 86.3 255.2C85.7 255.2 85.2 255.3 84.7 255.3ZM81 255.6C81.5 255.6 82.1 255.5 82.6 255.5C82.1 255.5 81.5 255.6 81 255.6Z" fill="#1A2CAF"/>
<path d="M79.2 295C79.1 293.5 79.1 291.9 79.1 290.4C79.1 287.8 79.2 285.1 79.4 282.5C79.5 280.2 80.1 277.8 79.6 275.6C79.3 274.3 78.7 273.1 78.3 271.8C77.8 270.1 77.5 268.3 77.8 266.6C78 265.4 78.7 262.5 80.1 262.2C80.4 263.2 79.8 264.4 79.5 265.4C78.9 267.8 79.6 270.3 80.4 272.6C81.3 275 81.5 276.9 81.4 279.4C81.3 281.4 81.3 283.4 81.2 285.3C81.1 290 80.9 294.7 81 299.4C81 299.6 81 299.8 80.9 300C80.6 300.5 79.9 300 79.8 299.6C79.5 298.1 79.3 296.6 79.2 295Z" fill="#FEFEFE"/>
<path d="M97.3 246.7C97.4 246.8 97.5 246.8 97.6 246.8C97.7 246.8 97.7999 246.8 97.8999 247C97.8999 247.2 97.7999 247.2 97.6999 247.2C97.0999 247.4 96.9999 247.5 97.3999 248.1C97.6999 248.7 98.2 249 98.8 249.3C99.6 249.7 100.4 250.1 101.2 250.7C101.8 251.1 102.3 251.5 102.8 251.9C103.9 252.8 104.7 253.9 105.3 255.2C105.6 256 105.7 256.8 105.9 257.5C106.1 258.7 106.1 259.8 106.1 261C106.1 261.6 106.1 262.2 106.1 262.8C106.1 263.5 106.4 264.1 106.6 264.8C106.8 265.4 107.1 265.9 107.3 266.5C107.5 267 107.8 267.5 108 268C108.3 268.6 108.5 269.2 108.8 269.8C109.2 270.6 109.5 271.5 109.9 272.3C110.2 272.9 110.4 273.5 110.7 274.2C111 274.9 111.3 275.6 111.6 276.2C111.8 276.8 112.1 277.3 112.3 277.9C112.6 278.7 112.9 279.5 113.2 280.3C113.6 281.4 114 282.6 114.2 283.8C114.3 284.4 114.5 284.9 114.6 285.5C114.7 286 114.7 286.5 114.8 286.9C114.9 287.5 114.9 288.2 114.8 288.8C114.7 289.8 114.5 290.7 113.9 291.5C113 292.6 111.2 293.1 109.8 292.4C109.5 292.2 109.5 292.2 109.3 292.6C108.7 293.8 107.8 294.4 106.5 294.6C105.8 294.7 105.1 294.5 104.5 294.1C104.4 294 104.3 294.1 104.2 294.2C103.7 295 102.9 295.4 101.9 295.6C100.6 295.8 99.7 295.3 98.8 294.4C98.4 294 97.9999 293.4 97.6999 292.9C97.1999 292 96.6999 291 96.3999 290C96.0999 289.1 95.6999 288.2 95.4999 287.3C95.1999 286.2 95 285.2 94.8 284.1C94.6 283.3 94.5 282.4 94.3 281.6C94.1 280.7 93.9999 279.9 93.8999 279C93.7999 278.2 93.5999 277.4 93.4999 276.6C93.2999 275.6 93.1999 274.6 92.9999 273.5C92.8999 272.8 92.7999 272.2 92.6999 271.5C92.5999 271 92.5999 270.6 92.4999 270.1C92.3999 269.7 92.4 269.2 92.3 268.8C92.2 268.1 92 267.4 91.6 266.8C91.4 266.4 91.0999 266 90.8999 265.7C90.2999 264.8 89.8 263.9 89.3 263C89 262.3 88.6999 261.5 88.3999 260.8C88.0999 259.9 88.0999 258.9 88.1999 258C88.2999 256.7 88.7 255.4 89.3 254.2C89.6 253.4 89.9999 252.7 90.4999 252C90.7999 251.5 91.1 250.9 91.1 250.3C91.1 250 90.9999 249.7 90.8999 249.4C90.8999 249.3 90.7999 249.3 90.6999 249.3C90.5999 249.3 90.4 249.4 90.3 249.4C90.2 249.4 90.0999 249.4 89.9999 249.3C89.9999 249.2 90 249.1 90.1 249C90.2 248.9 90.3999 248.9 90.3999 248.7H90.4999C92.0999 248.2 93.5999 247.8 95.1999 247.3C95.7999 247.1 96.5 246.9 97.3 246.7Z" fill="#C3E3F6"/>
<path d="M97.2999 246.7C96.5999 246.9 95.7999 247.1 95.0999 247.3C93.4999 247.8 91.9999 248.2 90.3999 248.7H90.2999C90.0999 248.8 89.9999 248.7 89.8999 248.5C89.8999 248.2 89.7999 248 89.6999 247.8C89.7999 247.7 89.9999 247.7 90.0999 247.5C89.8999 247.6 89.7999 247.6 89.6999 247.6C89.4999 246.4 89.0999 245.3 88.6999 244.2C88.5999 243.8 88.7999 243.5 89.1999 243.3C91.1999 242.7 93.0999 242.2 95.0999 241.6C95.4999 241.5 95.8999 241.7 95.9999 242.1C96.2999 243.1 96.5999 244.1 96.8999 245.1C96.8999 245.2 97.0999 245.4 97.0999 245.5C96.6999 245.6 96.1999 245.8 95.7999 245.9V246C96.2999 245.9 96.6999 245.7 97.0999 245.6C97.0999 245.7 97.1999 245.9 97.2999 246C97.3999 246.2 97.3999 246.3 97.4999 246.5C97.4999 246.6 97.3999 246.6 97.2999 246.7ZM93.6999 246.5C93.1999 246.6 92.5999 246.8 92.0999 246.9C92.6999 246.8 93.1999 246.7 93.6999 246.5ZM93.8999 246.4C94.3999 246.3 94.8999 246.1 95.4999 246C94.8999 246.1 94.3999 246.3 93.8999 246.4ZM90.3999 247.5C90.8999 247.4 91.3999 247.2 91.8999 247.1C91.3999 247.2 90.8999 247.3 90.3999 247.5Z" fill="#1A2CAF"/>
<path d="M96.4999 286.4C96.0999 284.9 95.7999 283.4 95.4999 281.9C94.9999 279.3 94.5999 276.7 94.1999 274.1C93.8999 271.9 93.8999 269.3 92.9999 267.3C92.4999 266.1 91.6999 265 90.9999 263.8C90.0999 262.3 89.4999 260.5 89.4999 258.8C89.3999 257.5 89.5999 254.6 90.8999 254C91.3999 254.9 90.9999 256.3 90.9999 257.3C90.8999 259.8 92.0999 262.1 93.3999 264.2C94.6999 266.3 95.3 268.2 95.8 270.7C96.1 272.6 96.5 274.6 96.8 276.5C97.6 281.1 98.3999 285.8 99.4999 290.3C99.4999 290.5 99.5999 290.7 99.4999 290.9C99.2999 291.4 98.5 291.1 98.3 290.7C97.5 289.4 96.9999 287.9 96.4999 286.4Z" fill="#FEFEFE"/>
<path d="M126.2 272.1C126.6 268.8 128.1 279.6 129.5 283.2C131.8 289.5 132.9 297.2 135.9 303.5C143.2 318.5 147 341.6 128.9 350.5C119.9 354.9 92 355.4 82.7 351.5C69.4 346 71 329.4 69.3 317.4C67.6 305.1 64.6 293.4 64.5 281C64.5 281 76.5 283.8 85.8 283.7C95 283.6 105.6 281.7 111 280.2C116.4 278.7 125.9 274.7 126.2 272.1Z" fill="#5EA7EF"/>
<path d="M62 318C61.1 307.2 63.9 302.1 65.9 299.2C81.2 316.5 122 340 124.4 340.2C128.9 340.6 139.4 340.6 140.3 341.7C141.9 346.3 137.5 357.9 129.1 359.6C125.1 360.4 116.4 353.7 113.8 350.8C112.8 349.7 71 324.4 62 318ZM130.3 284.9C134.3 284.9 136.4 286.5 138.7 289.8C141 293.1 143.3 308.7 139.5 308.7C135.7 308.7 120 302.7 120 298.6C120 294.5 130.8 292.8 130.8 289.8C130.8 286.8 126.3 284.9 130.3 284.9Z" fill="#D6EEFC"/>
<path d="M89.4 188.8C89.6 189.9 90.6 191.2 91.2 192.1C91.9 193.3 92.4 194.5 93.1 195.7C93.7 196.8 95.3 198.5 94 199.5C93 200.3 89.1 200.7 88 200.3" fill="#D6EEFC"/>
<path d="M88.3 185C87.6 184.9 87.1 184.8 86.7 184.8C86.3 184.8 85.9 184.8 85.5 184.9C85.1 185 84.6 185 84.1 185.1C83.6 185.1 83 185.2 82.3 185C82.6 184.4 83.1 184 83.5 183.6C84 183.3 84.6 183 85.3 182.9C86 182.8 86.7 182.9 87.3 183.3C87.8 183.8 88.2 184.4 88.3 185Z" fill="#CE3A5E"/>
<path d="M86.9 188.8C87.5075 188.8 88 188.307 88 187.7C88 187.092 87.5075 186.6 86.9 186.6C86.2925 186.6 85.8 187.092 85.8 187.7C85.8 188.307 86.2925 188.8 86.9 188.8Z" fill="#CE3A5E"/>
</svg>
