<svg width="334" height="181" viewBox="0 0 334 181" fill="none" xmlns="http://www.w3.org/2000/svg">
<path d="M111.2 70.5001L118.8 72.9001C118.8 72.9001 115 83.1001 114.3 84.8001C114.3 84.8001 96.8 78.5001 96.1 78.2001C95.4 77.9001 101 67.6001 101 67.6001L111.2 70.5001Z" fill="white"/>
<path d="M62 67.2002L74.7 111.1L80.7 144.1H86.7L80.7 67.2002H62Z" fill="#C1E7F7"/>
<path d="M56.2 67.2002C57.1 90.0002 56.7 102.5 56.5 104.5C56.3 106.6 55.2 120.5 47.5 144.8H53.8C64 121.5 67.6 107.6 68.7 104.5C69.8 101.4 73.3 89.0002 78.4 67.2002H56.2Z" fill="#C1E7F7"/>
<path d="M61.7 67.2002C65 82.3002 70.8 106.4 78.9 139.6H87.7C88.4 105.6 85.5999 83.2002 80.7999 67.2002H61.7Z" fill="#317FDD"/>
<path d="M56.2 67.2002C57.1 90.0002 54.7999 112.5 47.7999 139.9H57.2C67.4 116.9 74.7 94.6002 79.7 67.2002H56.2Z" fill="#4390DD"/>
<path d="M46.7 149.3L46.9999 143.7C48.9999 144.3 51.5999 144.1 54.5999 143C57.8999 145.3 61.9999 146.9 66.9999 147.7C67.3999 147.8 67.5999 148.1 67.5999 148.5C67.5999 148.5 67.5999 148.5 67.5999 148.6L67.0999 150.3H54.7H47.4L46.7 149.3Z" fill="#0B45B7"/>
<path d="M79.3999 149.3L79.6999 143.7C81.6999 144.3 84.2999 144.1 87.2999 143C90.5999 145.3 94.6999 146.9 99.6999 147.7C100.1 147.8 100.3 148.1 100.3 148.5C100.3 148.5 100.3 148.5 100.3 148.6L99.7999 150.3H87.3999H80.0999L79.3999 149.3Z" fill="#0B45B7"/>
<path d="M66.9 15.8999C65.3 13.9999 64.2 11.6999 64.4 9.09987C64.9 1.69987 75.3 3.29988 77.3 6.99988C79.3 10.7999 79.1 20.2999 76.5 20.9999C75.5 21.2999 73.2 20.5999 71 19.2999L72.4 29.2999H64L66.9 15.8999Z" fill="#C1E7F7"/>
<path d="M66.3 17.6C65.3 12.9 62.3001 9.80004 62.7001 7.70004C63.0001 6.30004 63.8 5.40004 65.1 5.10004C65.8 2.30004 68.0001 1.20004 71.7001 1.60004C77.3001 2.20004 80.7001 4.50005 79.2001 9.60005C77.9001 9.60005 76.2 9.10003 74 9.90003C73.3 10.2 72.8 11 72.5 12.4H71.5C70.5 10.8 69.5 10.2 68.6 10.6C67.7 11 67.4001 12.1 67.9001 13.8L67.4001 17.6H66.3Z" fill="#0B45B7"/>
<path d="M93.9 55.9002L103.8 65.5002C106.7 66.7002 109 68.1002 110.9 69.6002C111.3 70.1002 111.8 71.0002 109.8 70.6002C107.9 70.2002 105.8 69.8002 105.4 70.4002C105 71.0002 106.1 72.0002 105.4 72.8002C105 73.4002 103.4 71.6002 100.9 67.6002L90.6 61.6002L93.9 55.9002ZM45.7 47.2002H53.3C47.5 66.0002 44.4 75.9002 44.1 76.7002C43.3 78.7002 45 81.7002 45.7 83.4002C43.3 84.5002 43.6 80.5002 40.6 81.9002C37.9 83.2002 35.8 85.5002 32.6 83.5002C32.2 83.3002 31.8 82.4002 32.8 81.7002C35.4 79.9002 39.1 76.9002 39.5 75.9002C40.3 74.5002 42.3 65.0002 45.7 47.2002Z" fill="#C1E7F7"/>
<path d="M68.9 25.6001L71.9 25.1001C76.6 41.9001 101 53.3001 102.5 59.5001C103 61.8001 101.4 63.0001 102.2 63.7001L98.3 66.6001C97.6 65.8001 96.2 67.2001 93.3 66.3001C90.4 65.2001 68.9 45.4001 68.9 25.6001Z" fill="#031F70"/>
<path d="M74.0001 27.8C73.7001 50 86.5 55.6 83.6 64.5C81.2 71.9 58.7 79.8 54.8 72.5C53.2 69.6 52.5001 66.1 52.4001 62.2C51.4001 65.1 50.6001 67.7 50.0001 69.8C49.0001 73.5 45.1 74.1 45.1 75.5L40.0001 74.1C40.3001 72.2 37.9 71.2 38.6 67C41.5 47.8 49.3001 33.9 62.0001 25.2L62.1 23.3C62.2 22.5 62.8 22 63.6 22L73.0001 22.7C73.8001 22.8 74.3 23.4 74.3 24.2L74.0001 27.8Z" fill="#073199"/>
<path d="M155.6 14.5C155.6 19.2 158.6 23.3 163.1 25.9C164.1 26.5 163.5 30.1 163.7 30.7C163.9 31.3 167.7 27.8 168.4 28C170.2 28.4 172.1 28.7 174 28.7C184.2 28.7 192.4 22.4 192.4 14.6C192.4 6.80001 184.2 0.5 174 0.5C163.8 0.5 155.6 6.7 155.6 14.5Z" fill="#C1E7F7"/>
<path d="M184.5 81.3C186.6 79.8 188.5 78.8 190.3 78.3C193.7 77.3 195.1 76.6 196.8 74.5C197.7 73.4 198.4 71.1 197.6 70.3C197 69.8 193.7 72.3 192.3 72.6C190.9 72.9 192.2 69.6 191.5 70C190.6 70 189.8 71.3 189.1 73.9L184.3 76.5L184.5 81.3Z" fill="#4390DD"/>
<path d="M146.5 95.7002L161.6 135.8L172.3 165.3H178.3L163.7 95.7002H146.5Z" fill="#CE3A5E"/>
<path d="M142.8 95.7001C142.6 109.4 142.8 128 142.4 128.8C142.1 129.4 134.2 135.9 118.5 148.3L121.6 153.6C140.2 141.6 149.9 134.8 150.9 133.2C152.3 130.8 159.5 108.8 163.2 95.6001H142.8V95.7001Z" fill="#F24C64"/>
<path d="M112.973 151.971L118.222 147.958L122.464 153.014C122.772 156.803 124.028 161.101 126.234 165.908L125.238 166.743L117.525 157.551L115.349 154.024L114.889 154.41L112.973 151.971Z" fill="#F7C1C9"/>
<path d="M171.7 171L172 164.4H178.6C181.7 166.6 185.8 168.4 190.9 169.8V171H178.9L174.8 170.4V171H171.7Z" fill="#F7C1C9"/>
<path d="M155.1 49.3999C153.6 47.6999 152.7 45.5999 152.8 43.2999C153.3 36.5999 162.7 37.9999 164.5 41.3999C166.3 44.7999 166.1 53.3999 163.7 53.9999C162.8 54.1999 160.8 53.5999 158.7 52.3999L160 61.4999H152.4L155.1 49.3999Z" fill="#4390DD"/>
<path d="M161.5 37.6998C160.5 37.3998 159 37.2998 158.3 37.3998C158.7 36.4998 158.8 35.5998 158.7 34.6998C158.6 33.7998 158.2 32.9998 157.8 32.1998C157.6 31.7998 157.4 31.4998 157.1 31.1998C156.8 30.8998 156.4 30.6998 156 30.5998C155.6 30.4998 155.2 30.4998 154.8 30.5998C154.6 30.5998 154.5 30.6998 154.3 30.7998C154.1 30.7998 154 30.6998 153.9 30.5998C153.6 30.2998 153.1 30.1998 152.7 30.0998C152.3 29.9998 151.8 30.0998 151.4 30.2998C151 30.3998 150.6 30.6998 150.3 30.9998C150.2 31.1998 150 31.2998 150 31.4998C150 31.5998 150 31.5998 149.9 31.6998C149.8 31.6998 149.7 31.6998 149.7 31.7998C149 31.9998 148.4 32.5998 148 33.2998C147.8 33.6998 147.7 34.3998 147.7 35.2998C147.7 36.1998 148.5 38.1998 149.1 38.9998C149.7 39.6998 150.6 40.0998 151.5 40.2998C150.9 40.9998 150.5 41.7998 150.3 42.5998C150 43.4998 149.8 44.4998 149.7 45.3998C149.6 46.2998 149.6 47.2998 149.8 48.1998C150 48.9998 150.4 49.6998 151.2 50.1998C151.5 50.3998 151.9 50.5998 152.2 50.6998C152.6 50.7998 152.9 50.9998 153.3 50.9998C154 51.0998 154.8 51.0998 155.3 50.5998C155.5 50.3998 155.7 50.0998 155.8 49.8998C155.9 49.7998 155.9 49.7998 155.8 49.6998C155.7 49.5998 155.6 49.4998 155.5 49.3998C155 48.8998 154.6 48.2998 154.5 47.5998C154.4 46.8998 154.6 45.8998 155.3 45.5998C156.2 45.1998 157.2 45.6998 157.9 46.0998C158.2 44.8998 158.9 43.8998 160 43.2998C161.2 42.6998 162.6 42.5998 163.8 42.0998C164.1 41.9998 164.4 41.7998 164.7 41.4998C164.8 41.3998 164.9 41.1998 165 41.0998C165.1 40.8998 164.9 40.6998 164.8 40.5998C164.5 39.6998 162.5 37.9998 161.5 37.6998Z" fill="#02184C"/>
<path d="M166.5 68.8999L177.4 62.8999C179.2 60.6999 181 59.0999 182.8 57.8999C183.3 57.6999 184.3 57.4999 183.4 59.0999C182.5 60.6999 181.7 62.3999 182.1 62.7999C182.5 63.2999 183.7 62.5999 184.2 63.3999C184.6 63.8999 182.6 64.7999 178.5 65.8999L170.6 73.1999L166.5 68.8999Z" fill="#4390DD"/>
<path d="M161.2 67.5998C165 67.5998 170.1 66.7998 175.6 63.2998L177.7 68.0998C173.9 71.7998 168.7 74.8998 164 74.7998C160.4 74.5998 158.6 70.1998 161.2 67.5998Z" fill="#0B45B7"/>
<path d="M166.4 75.1999C170.5 76.1999 177.3 74.9999 186.8 71.5999C189.2 76.4999 190.3 79.9999 190.1 82.0999C181.9 86.3999 174.9 88.2999 169.1 88.3999C169.3 91.7999 168.9 95.0999 167.5 98.0999C164.6 104.2 147.7 98.5999 142 99.6999C138.4 88.0999 145.3 83.3999 145.3 75.9999C145.3 67.8999 151.8 55.3999 152.8 55.3999H161.5C161.9 61.6999 164.4 68.4999 166.4 75.1999Z" fill="#1159CC"/>
<path d="M181.2 67.4998L194.2 68.9998C194.5 67.7998 197.4 50.6998 197.4 50.6998L184.1 49.2998C184.1 49.2998 183.4 53.5998 182.7 57.9998C182.6 58.4998 182.5 58.9998 182.5 59.4998C182.4 59.8998 182.4 60.2998 182.3 60.6998C182.3 60.8998 182.2 61.0998 182.2 61.2998C182.1 61.5998 182.1 61.8998 182.1 62.1998C182.1 62.2998 182.1 62.3998 182.1 62.4998C182.1 62.5998 182.2 62.7998 182.3 62.8998C182.7 63.3998 183.9 62.6998 184.4 63.4998C184.7 63.8998 183.7 64.3998 181.6 65.0998C181.4 66.2998 181.2 67.1998 181.2 67.4998Z" fill="#F2F2F2"/>
<path d="M14.2001 104.4L25.8 144.4L31.3 174.5H36.8L31.3 104.4H14.2001Z" fill="#317FDD"/>
<path d="M9.00012 104.4C9.80012 125.2 9.50011 136.5 9.30011 138.4C9.10011 140.3 8.1001 152.9 1.1001 175.1H6.80011C16.1001 153.9 19.3001 141.2 20.4001 138.4C21.5001 135.6 24.6001 124.3 29.2001 104.4H9.00012Z" fill="#317FDD"/>
<path d="M14 104.4C17 118.2 22.2 140.2 29.7 170.3H37.7C38.3 139.3 35.8 118.9 31.4 104.4H14Z" fill="#0B45B7"/>
<path d="M9.00012 104.4C9.80012 125.2 7.70015 145.7 1.40015 170.7H10.0001C19.3001 149.8 26.0001 129.4 30.5001 104.4H9.00012Z" fill="#1159CC"/>
<path d="M0.300049 179.2L0.600037 174.1C2.40004 174.6 4.70006 174.4 7.50006 173.5C10.5001 175.6 14.2 177.1 18.8 177.8C19.1 177.9 19.4 178.2 19.3 178.5C19.3 178.5 19.3 178.5 19.3 178.6L18.9001 180.1H7.60004H1.00006L0.300049 179.2Z" fill="#073199"/>
<path d="M30.1001 179.2L30.4001 174.1C32.2001 174.6 34.5001 174.4 37.3001 173.5C40.3001 175.6 44.0001 177.1 48.6001 177.8C48.9001 177.9 49.2001 178.2 49.1001 178.5C49.1001 178.5 49.1001 178.5 49.1001 178.6L48.7001 180.1H37.4001H30.8001L30.1001 179.2Z" fill="#073199"/>
<path d="M21.7 55.1996C20.2 53.4996 19.3 51.3996 19.4 48.9996C19.9 42.1996 29.3 43.6996 31.2 47.0996C33 50.4996 32.8 59.1996 30.4 59.7996C29.5 59.9996 27.4 59.3996 25.4 58.1996L26.7 67.2996H19L21.7 55.1996Z" fill="#317FDD"/>
<path d="M34.5 42.3998C34.3 41.7998 33.9 41.3998 33.3 41.1998C33.2 41.1998 33.0001 41.1998 32.9001 41.1998C32.8001 41.1998 32.8 41.1998 32.8 41.1998V41.0998C32.8 40.9998 32.7001 40.8998 32.7001 40.7998C32.6001 40.4998 32.4 40.1998 32.1 39.9998C31.6 39.5998 31.0001 39.2998 30.4001 39.1998C30.1001 39.1998 29.7001 39.1998 29.4001 39.2998C29.2001 39.3998 29.1001 39.3998 28.9001 39.4998C28.9001 39.4998 28.7 39.5998 28.6 39.5998C28.5 39.5998 28.4001 39.4998 28.4001 39.3998C27.9001 38.9998 27.2 38.7998 26.5 38.7998C25.7 38.7998 25.0001 38.7998 24.4001 39.2998C24.3001 39.3998 24.1 39.4998 24 39.5998C23.9 39.6998 23.9 39.6998 23.8 39.7998L23.7001 39.8998C23.6001 39.9998 23.7 39.9998 23.6 39.8998C23.3 39.6998 22.9 39.5998 22.6 39.6998C22.4 39.6998 22.2 39.7998 22 39.8998C21.9 39.8998 21.8001 39.9998 21.7001 39.9998C21.6001 39.9998 21.5001 39.8998 21.4001 39.8998C21.0001 39.7998 20.6001 39.6998 20.2001 39.7998C19.8001 39.8998 19.4 39.9998 19 40.2998C18.8 40.3998 18.7 40.4998 18.6 40.6998C18.5 40.7998 18.5001 40.7998 18.4001 40.8998L18.3 40.9998L17.8 40.7998C17.6 40.6998 17.3 40.7998 17.1 40.7998C16.7 40.8998 16.3 41.2998 16 41.5998C15.8 41.7998 15.7 41.9998 15.6 42.1998C15.5 42.2998 15.5001 42.3998 15.4001 42.4998C15.4001 42.4998 15.4 42.5998 15.3 42.6998C15.3 42.7998 15.2001 42.7998 15.2001 42.7998C14.8001 42.8998 14.5 43.0998 14.3 43.3998C14 43.6998 13.9 43.9998 13.8 44.3998V44.4998H13.7001C13.6001 44.4998 13.5001 44.4998 13.4001 44.4998C13.2001 44.4998 13.1001 44.5998 12.9001 44.6998C12.3001 44.9998 11.8 45.5998 11.6 46.1998C11.4 46.8998 11.4 47.5998 11.6 48.2998C11.6 48.3998 11.7 48.4998 11.8 48.5998C11.8 48.6998 11.8 48.6998 11.8 48.6998C11.8 48.7998 11.7001 48.7998 11.7001 48.8998C11.6001 49.0998 11.5 49.3998 11.5 49.5998C11.4 49.9998 11.4 50.3998 11.5 50.7998C11.5 50.9998 11.6001 51.1998 11.7001 51.2998C11.7001 51.3998 11.8001 51.4998 11.9001 51.4998L12 51.5998C12 51.5998 12 51.5998 12.1 51.6998C12.1 51.7998 12.2 51.6998 12.1 51.7998C12.1 51.8998 12 51.9998 12 52.0998C12 52.1998 11.9001 52.2998 11.9001 52.3998C11.8001 52.5998 11.8001 52.8998 11.7001 53.0998C11.6001 53.5998 11.6001 54.0998 11.9001 54.4998C12.0001 54.6998 12.1 54.7998 12.3 54.9998C12.4 55.0998 12.5 55.0998 12.6 55.1998C12.6 55.1998 12.7001 55.1998 12.7001 55.2998C12.7001 55.2998 12.7001 55.3998 12.7001 55.4998C12.6001 55.9998 12.6001 56.4998 12.7001 56.8998C12.8001 57.2998 13.1 57.6998 13.5 57.9998C14.2 58.4998 15.2001 58.4998 15.9001 58.0998C16.1001 57.9998 16.3001 57.8998 16.4001 57.6998C16.8001 58.2998 17.7 58.1998 18.3 58.0998C19.1 57.8998 19.7 57.3998 20 56.6998C20.5 57.2998 21.5 57.0998 21.8 56.4998C21.9 56.2998 21.9 56.1998 22 55.9998C22 55.8998 22 55.7998 22 55.6998C22 55.5998 22.1 55.4998 22.1 55.3998C22.2 55.1998 22.2001 54.9998 22.2001 54.6998C22.2001 54.5998 22.2001 54.4998 22.2001 54.2998C22.2001 54.1998 22.2001 54.0998 22.2001 53.9998C22.0001 53.9998 21.8 53.9998 21.6 53.8998C21.4 53.7998 21.3 53.6998 21.1 53.5998C20.8 53.2998 20.6 52.8998 20.5 52.4998C20.2 51.5998 20.3001 50.5998 21.2001 50.0998C21.6001 49.8998 22.9001 49.8998 23.4001 49.9998C23.9001 50.0998 24.5 51.2998 24.5 51.3998C24.5 51.4998 24.5 51.4998 24.6 51.5998C24.7 51.6998 25 51.4998 25.1 51.3998C25.3 51.2998 25.4 51.0998 25.5 50.8998C25.7 50.4998 25.9 49.9998 26 49.5998C26.1 49.1998 26.2 48.8998 26.3 48.4998C26.4 48.1998 26.6 47.7998 27 47.5998C27.4 47.3998 27.8 47.2998 28.1 47.0998C28.5 46.9998 28.9001 46.7998 29.2001 46.4998C29.3001 46.3998 29.3001 46.3998 29.4001 46.2998C29.4001 46.1998 29.5 46.0998 29.5 46.0998C29.6 45.9998 29.7 46.1998 29.8 46.1998C30.2 46.4998 30.6 46.7998 30.8 47.1998C31.1 47.5998 31.3 47.9998 31.5 48.3998C31.6 48.6998 31.7001 49.1998 32 49.3998C32.1 49.4998 32.9001 49.5998 33.2001 49.4998C33.5001 49.3998 33.8 49.0998 33.8 48.8998C33.9 48.6998 33.9001 48.4998 33.9001 48.2998C33.9001 48.1998 33.8 48.0998 33.8 47.9998C33.8 47.8998 33.8001 47.7998 33.7001 47.6998C33.6001 47.4998 33.5 47.3998 33.3 47.3998C33.5 47.1998 33.6001 46.9998 33.7001 46.7998C33.8001 46.5998 33.9001 46.2998 33.9001 45.9998C33.9001 45.7998 33.9 45.5998 33.8 45.3998C33.7 45.1998 33.5 45.0998 33.3 44.9998C33.6 44.7998 33.8 44.4998 34 44.1998C34.5 43.7998 34.7001 43.0998 34.5 42.3998Z" fill="#C1E7F7"/>
<path d="M31.5 71.3998L42.5 65.3998C44.3 63.1998 46.1 61.4998 47.9 60.2998C48.4 60.0998 49.4 59.8998 48.5 61.4998C47.6 63.0998 46.7 64.7998 47.2 65.2998C47.7 65.7998 48.8 65.0998 49.3 65.8998C49.7 66.3998 47.7 67.2998 43.5 68.3998L35.5 75.6998L31.5 71.3998Z" fill="#317FDD"/>
<path d="M25.5 70.4997C29.4 70.4997 34.5 69.5997 40 66.1997L42.2 70.9997C38.4 74.7997 33.1 77.7997 28.4 77.6997C24.7 77.5997 22.9 73.1997 25.5 70.4997Z" fill="#C1E7F7"/>
<path d="M67.7 54.3997C62.7 53.2997 57.8 51.8998 52.9 50.5998C52.3 50.3998 49.8 49.3998 49.4 49.6998C49.4 49.6998 49 52.2998 48.9 52.9998C48.7 55.4998 48.3 57.8997 47.9 60.3997C47.6 62.0997 47.4 63.5997 47.3 64.3997C47.3 64.5997 47.2 64.6998 47.2 64.7998C47.2 64.9998 47.2 65.1998 47.3 65.2998C47.8 65.7998 48.9 65.0997 49.4 65.8997C49.7 66.2997 48.6 66.8998 46 67.6998C44.7 70.8998 39.9 77.6998 39.5 78.2998C43.3 79.9998 47.1 81.5998 50.8 83.2998C51.7 83.6998 57.3 86.3998 58.3 86.0998C59.3 85.7998 60.8 82.7998 61.6 81.0998C63.5 77.0998 65 72.7998 66 68.4998C66.3 67.2998 68.6 54.6997 67.7 54.3997Z" fill="#97D2F2"/>
<path d="M51 80.4998L55.8 77.7998C56.5 75.1998 57.3 73.8998 58.2 73.8998C58.9 73.5998 57.7 76.7998 59 76.4998C60.4 76.1998 63.7 73.6998 64.3 74.1998C65.2 74.8998 64.4 77.1998 63.5 78.3998C61.8 80.4998 60.4 81.2998 57 82.1998C55.2 82.6998 53.3 83.6998 51.2 85.1998L51 80.4998Z" fill="#317FDD"/>
<path d="M32.8001 81.7C36.9001 82.7 43.8001 81.5 53.4001 78.1C55.8001 83 56.9001 86.6 56.7001 88.7C48.4001 93 41.4001 94.9 35.5001 95.1C35.7001 98.6 35.3001 101.9 33.8001 104.9C30.9001 111.1 13.8001 105.4 8.10009 106.5C4.50009 94.8 11.4001 90.1 11.5001 82.7C11.5001 74.5 18.1001 62 19.0001 62H27.8001C28.4001 68.1 30.8001 74.9 32.8001 81.7Z" fill="#D6EEFC"/>
<path d="M222.1 24.5002C222.1 33.2002 231.8 40.3002 243.7 40.3002C251.2 40.3002 257.7 37.5002 261.6 33.3002C262.4 32.5002 269.8 32.2002 268.9 31.6002C267.5 30.6002 264.5 28.7002 264.8 27.7002C265.1 26.7002 265.2 25.6002 265.2 24.5002C265.2 15.8002 255.5 8.7002 243.6 8.7002C231.8 8.7002 222.1 15.7002 222.1 24.5002Z" fill="#C1E7F7"/>
<path d="M300 76.8003L286.4 124.3L276.6 159.3H269.4L279.9 76.8003H300Z" fill="#191847"/>
<path d="M303.6 76.8003C303.9 101.3 305 114.6 305.3 116.8C305.6 119 310.6 133.2 320.2 159.2H312.7C300.5 134.2 293.6 120.1 292.2 116.8C290.8 113.5 286.4 100.2 279.8 76.8003H303.6Z" fill="#2F3676"/>
<path d="M320.9 166L320.5 158.2H312.7C309 160.8 304.1 162.9 298.1 164.5V166H312.3L317.2 165.3V166H320.9Z" fill="#191847"/>
<path d="M277.6 166L277.2 158.2H269.4C265.7 160.8 260.8 162.9 254.8 164.5V166H269L273.9 165.3V166H277.6Z" fill="#191847"/>
<path d="M293.1 32.3002C294.8 30.3002 296 27.8002 295.8 25.0002C295.2 17.0002 284.1 18.8002 282 22.8002C279.8 26.8002 280.1 37.1002 282.9 37.8002C284 38.1002 286.4 37.4002 288.8 35.9002L287.3 46.6002H296.3L293.1 32.3002Z" fill="#073199"/>
<path d="M288.3 25.9002C288 30.7002 287.1 33.1002 285.6 33.1002C283.4 33.1002 281.5 31.7002 280.6 31.7002C279.9 31.7002 280.1 32.6002 280.5 33.2002C280.9 33.7002 282.8 34.3002 282.8 35.1002C282.8 35.9002 281.3 35.3002 281.3 35.8002C281.3 36.6002 281 38.2002 282.5 38.2002C283.9 38.2002 288.1 37.7002 288.8 35.5002C289.3 34.1002 289.6 31.3002 289.7 26.9002C289.8 26.9002 289.9 26.9002 290 26.9002C291.2 26.9002 292.2 27.9002 292.2 29.1002C292.2 29.7002 291.9 30.3002 291.5 30.7002C292 31.4002 292.6 32.2002 293.3 33.0002C295.8 31.5002 298 27.1002 295.6 22.9002C294.9 20.8002 293 19.7002 291.2 19.2002C289.7 18.6002 288.2 18.5002 286.9 18.9002C284.4 19.1002 282.1 19.9002 281.5 20.3002C281.5 22.7002 282 23.4002 285.9 23.3002C286.8 23.9002 287.5 24.8002 288.3 25.9002Z" fill="#02184C"/>
<path d="M266.4 68.3004L254.4 63.6004C249.2 64.1004 246.8 64.0004 246.9 63.2004C247.2 62.1004 248.7 62.3004 249 61.6004C249.3 60.9004 247.6 59.3004 246 58.0004C244.3 56.6004 245.5 56.4004 246.2 56.4004C248.7 57.0004 251.4 58.1004 254.3 59.7004L269 61.7004L266.4 68.3004ZM326 95.9004C326.5 97.0004 330.5 100.3 333.2 102.2C334.3 103 333.8 103.9 333.4 104.2C330 106.3 327.8 103.8 324.9 102.5C321.7 101 322 105.2 319.4 104.1C320.2 102.3 322 99.1004 321.1 96.9004C320.7 95.9004 316 85.4004 307.1 65.2004H315.3C321.7 84.1004 325.3 94.4004 326 95.9004Z" fill="#073199"/>
<path d="M292.9 39.2002L286.5 39.6002C284.9 53.9002 276.3 62.9002 257.1 59.8002L254.5 78.2002C272.5 80.5002 288.2 73.3002 291.4 53.9002C292.4 48.8002 293 43.6002 292.9 39.2002Z" fill="#CE3A5E"/>
<path d="M296.1 37.3003L286.4 39.5003C286.4 56.2003 281.1 66.8003 278.4 79.1003H304.6C305 83.3003 305.2 87.7003 305.3 92.2003H324.9C320.5 68.6003 311.1 50.3003 296.8 37.3003H296.1Z" fill="#F24C64"/>
<path d="M300.4 55.3003C301.1 65.7003 300.7 73.6003 299.2 79.1003H304.5C303.8 70.7003 302.5 62.8003 300.4 55.3003Z" fill="#CE3A5E"/>
</svg>
