<svg fill="none" height="48" viewBox="0 0 48 48" width="48" xmlns="http://www.w3.org/2000/svg"><path d="m17.0803 27.7565c0 .8218-.6683 1.5261-1.5333 1.5261-.8256 0-1.5333-.6652-1.5333-1.5261 0-.8217.6683-1.5261 1.5333-1.5261.865.0392 1.5333.7044 1.5333 1.5261z" fill="#283276"/><path d="m7.09401 22.1217c0 .8218-.66838 1.5261-1.53333 1.5261-.86496 0-1.53334-.6652-1.53334-1.5261 0-.8217.66838-1.526 1.53334-1.526.86495 0 1.53333.7043 1.53333 1.526z" fill="#f29fc5"/><path d="m14.2496 26.113c0 .8218-.6684 1.5261-1.5334 1.5261-.8649 0-1.494-.7043-1.494-1.5261 0-.8217.6684-1.526 1.5334-1.526.8649 0 1.494.7043 1.494 1.526z" fill="#008ecf"/><path d="m10.5538 27.9522c0 .8217-.66833 1.5261-1.53328 1.5261-.86496 0-1.53334-.6653-1.53334-1.5261 0-.8218.66838-1.5261 1.53334-1.5261.86495 0 1.53328.6652 1.53328 1.5261z" fill="#f29fc5"/><path d="m10.5538 31.4739c0 .8218-.66833 1.5261-1.53328 1.5261-.82565 0-1.53334-.6652-1.53334-1.5261 0-.8217.66838-1.5261 1.53334-1.5261.86495.0392 1.53328.7044 1.53328 1.5261z" fill="#283276"/><path d="m17.0803 20.2435c0 .8217-.6683 1.5261-1.5333 1.5261-.8256 0-1.5333-.6653-1.5333-1.5261 0-.8218.6683-1.5261 1.5333-1.5261.865.0391 1.5333.7043 1.5333 1.5261z" fill="#283276"/><path d="m14.2496 22.1217c0 .8218-.6684 1.5261-1.5334 1.5261-.8649 0-1.494-.6652-1.494-1.5261 0-.8217.6684-1.526 1.5334-1.526.8649 0 1.494.7043 1.494 1.526z" fill="#283276"/><path d="m6.89743 26.2304c0 .8218-.66837 1.5261-1.53333 1.5261s-1.53334-.6652-1.53334-1.5261c0-.8217.66838-1.5261 1.53334-1.5261s1.53333.7044 1.53333 1.5261z" fill="#283276"/><path d="m3.98804 19.9304c.19658.8218-.31453 1.6044-1.14017 1.8-.82564.1957-1.61197-.313-1.80855-1.1347-.157262-.8218.35385-1.6435 1.14017-1.8.82565-.1957 1.65129.313 1.80855 1.1347z" fill="#283276"/><path d="m3.87008 23.1783c-.07863.4695-.51111.7826-.9829.7434-.4718-.0782-.78633-.5087-.74701-.9782.07863-.4696.51111-.7826.9829-.7435.4718.0783.78633.5087.74701.9783z" fill="#e1000f"/><path d="m12.559 29.4c-.0787.5478-.5898.9-1.1402.8217-.5504-.0782-.9043-.5869-.8256-1.1347.0786-.5479.5897-.9 1.1401-.8218.5111.0783.865.587.8257 1.1348z" fill="#e1000f"/><path d="m15.4684 23.1391c-.0393.3131-.3539.5479-.6684.5087-.3145-.0391-.5504-.3521-.5111-.6652.0393-.313.3538-.5478.6684-.5087.3538.0391.5504.3522.5111.6652z" fill="#e1000f"/><path d="m9.57093 20.3609c-.07863.4695-.51111.7826-.9829.7435-.4718-.0783-.78633-.5087-.74701-.9783.07863-.4696.51111-.7826.9829-.7435.51112.0783.82565.5087.74701.9783z" fill="#e1000f"/><path d="m12.0479 19.2261c-.0787.4696-.5111.7826-.9829.7435-.4718-.0783-.7864-.5087-.7471-.9783.0787-.4696.5112-.7826.983-.7435.5111.0783.8256.5087.747.9783z" fill="#f29fc5"/><path d="m6.46496 28.6565c-.07863.4696-.51111.7826-.98291.7435-.47179-.0783-.78632-.5087-.747-.9783.07863-.4695.51111-.7826.9829-.7434.4718.0782.78633.5478.74701.9782z" fill="#ffe000"/><path d="m14.9179 24.8217c-.0786.4696-.5111.7826-.9829.7435-.4718-.0782-.7863-.5087-.747-.9782.0787-.4696.5111-.7827.9829-.7435.5112.0782.8257.5087.747.9782z" fill="#ffe000"/><path d="m13.9351 28.813c.2358.3913.1179.9392-.2753 1.174-.3931.2347-.9436.1173-1.1794-.274-.2359-.3913-.118-.9391.2752-1.1739.3931-.2739.9436-.1174 1.1795.2739z" fill="#283276"/><path d="m7.36923 18.7174c-.07864.4696-.51111.7826-.98291.7435-.47179-.0783-.78632-.5087-.74701-.9783.07863-.4696.51111-.7826.98291-.7435.47179.0783.78632.5087.74701.9783z" fill="#ffe000"/><path d="m10.6325 16.5652c0 .8609-.70771 1.5652-1.57267 1.5652s-1.57265-.7043-1.57265-1.5652.70769-1.5652 1.57265-1.5652 1.57267.7043 1.57267 1.5652z" fill="#008ecf"/><path d="m4.02735 27.7565c0 .8218-.66838 1.5261-1.53333 1.5261-.86496 0-1.49402-.7043-1.49402-1.5261 0-.8217.66838-1.5261 1.53333-1.5261.86496 0 1.49402.7044 1.49402 1.5261z" fill="#008ecf"/><path d="m11.4974 23.687c0 1.4478-1.1794 2.6217-2.63415 2.6217-1.4547 0-2.63419-1.1739-2.63419-2.6217 0-1.4479 1.17949-2.6218 2.63419-2.6218 1.45475 0 2.63415 1.1739 2.63415 2.6218z" fill="#008ecf"/><g fill="#283276"><path d="m20.6581 18.4826h2.6735v.6652h-1.8871v1.3696h1.6119v.6652h-1.6119v2.0739h-.7864z"/><path d="m23.9607 19.8522h.7077v.3913c.2359-.2739.5504-.4696.9829-.4696.1179 0 .1966.0391.3145.0391v.7044c-.1179-.0391-.2359-.0391-.3538-.0391-.4325 0-.7077.2347-.9043.5087v2.3087h-.7077v-3.4435z"/><path d="m26.3197 22.3956c0-.5086.3931-.9 1.1401-1.0173l1.1009-.1957v-.1956c0-.4305-.3145-.6653-.747-.6653-.3932 0-.6684.1566-.865.4305l-.5111-.3913c.3145-.3913.7863-.6653 1.4154-.6653.9436 0 1.4547.5479 1.4547 1.2914v2.2695h-.7077v-.3913c-.2359.3131-.6684.5087-1.1009.5087-.7076 0-1.1794-.3913-1.1794-.9783zm1.2974.3914c.4325 0 .7863-.1957.9829-.5479v-.5869l-.9436.1565c-.4325.0783-.6291.2739-.6291.5087.0394.313.2359.4696.5898.4696z"/><path d="m30.2906 19.8522h.7077v.3522c.2752-.274.5897-.4696 1.1009-.4696.747 0 1.3367.5087 1.3367 1.4869v2.074h-.7077v-2.0348c0-.5479-.3145-.8609-.7863-.8609s-.747.2739-.9436.587v2.3087h-.7077z"/><path d="m37.053 22.2783.5504.4304c-.3145.4304-.8256.7043-1.4547.7043-1.1402 0-1.8872-.8608-1.8872-1.8391 0-.9782.7077-1.8391 1.8872-1.8391.6291 0 1.1402.2739 1.4547.7043l-.5504.4305c-.1966-.2739-.5111-.4696-.9043-.4696-.6684 0-1.1402.5087-1.1402 1.1739s.4718 1.1739 1.1402 1.1739c.3932 0 .7077-.1956.9043-.4695z"/><path d="m39.9231 23.413c-1.1795 0-1.8872-.8608-1.8872-1.8391 0-1.0174.6684-1.8391 1.7692-1.8391.9436 0 1.5727.6652 1.5727 1.5261 0 .1565-.0393.313-.0393.4304h-2.5949c.0393.7435.5111 1.1348 1.1795 1.1348.4324 0 .7863-.1957.9829-.4696l.5111.3913c-.3145.3913-.8257.6652-1.494.6652zm-1.1402-2.3086h1.8479c0-.4305-.3146-.8218-.865-.8218-.5111 0-.865.3131-.9829.8218z"/><path d="m20.147 24.6261h3.853v.7043h-1.5333v4.0696h-.7864v-4.0696h-1.5333z"/><path d="m24.3539 25.9565h.7076v.3913c.2359-.2739.5505-.4695.9829-.4695.118 0 .1966.0391.3146.0391v.7043c-.118-.0391-.2359-.0391-.3539-.0391-.4324 0-.7077.2348-.9042.5087v2.3087h-.7077v-3.4435z"/><path d="m26.7128 28.5c0-.5087.3932-.9 1.1402-1.0174l1.1009-.1956v-.1566c0-.4304-.3146-.6652-.7471-.6652-.3931 0-.6683.1565-.8649.4304l-.5111-.3913c.3145-.3913.7863-.6652 1.4154-.6652.9436 0 1.4547.5479 1.4547 1.2913v2.2696h-.7077v-.3913c-.2359.313-.6684.5087-1.1009.5087-.7077 0-1.1795-.3913-1.1795-1.0174zm1.2975.4304c.4324 0 .7863-.1956.9829-.5478v-.587l-.9436.1566c-.4325.0782-.6291.2739-.6291.5087 0 .2739.2359.4695.5898.4695z"/><path d="m30.9983 25.9565 1.0222 2.6609 1.0222-2.6609h.747l-1.2974 3.4435h-.9436l-1.2974-3.4435z"/><path d="m34.1829 28.5c0-.5087.3932-.9 1.1402-1.0174l1.1008-.1956v-.1566c0-.4304-.3145-.6652-.747-.6652-.3931 0-.6684.1565-.8649.4304l-.5111-.3913c.3145-.3913.7863-.6652 1.4153-.6652.9436 0 1.4547.5479 1.4547 1.2913v2.2696h-.7077v-.3913c-.2359.313-.6683.5087-1.1008.5087-.747 0-1.1795-.3913-1.1795-1.0174zm1.2581.4304c.4325 0 .7864-.1956.9829-.5478v-.587l-.9436.1566c-.4324.0782-.629.2739-.629.5087.0393.2739.2359.4695.5897.4695z"/><path d="m38.9402 25.9565h-.7077v3.4435h.7077z"/><path d="m40.788 24.2739h-.7077v5.1261h.7077z"/><path d="m38.1538 24.9c0-.2348.1966-.4304.4325-.4304s.4325.1956.4325.4304-.1966.4304-.4325.4304-.4325-.1956-.4325-.4304z"/></g></svg>