<svg fill="none" height="48" viewBox="0 0 48 48" width="48" xmlns="http://www.w3.org/2000/svg"><path d="m0 10.2861h47.9934v30.1049h-47.9934z" fill="#82e59b"/><path d="m23.9607 22.3097c-3.7341-.0244-7.5888-.0496-11.3229-.074-.2409-.0016-.6039.2376-.6007-.2454.0031-.4829.3629-.2391.6039-.2375 4.5773.0299 9.2751.0606 13.8525.0905 2.8909.0189 5.7819.0378 8.6728.0567.1205.0008.2409.0016.3614.0024s.1197.1215.1189.2422c-.0008.1208-.1213.12-.2417.1192-.1205-.0008-.3614-.0024-.4819-.0031-3.494.0979-7.2281.0734-10.9623.049z" fill="#095411"/><path d="m23.9302 27.3804c-3.7341-.0244-7.4683-.0488-11.2024-.0732-.1205-.0008-.3614-.0024-.4818-.0032-.1205-.0008-.2409-.0015-.2402-.1223.0008-.1207.0016-.2415.1221-.2407.1204.0008.3613.0024.4818.0032 6.3842.0417 12.7684.0835 19.1526.1252 1.0841.0071 2.0478.0134 3.1319.0205.2409.0015.7243-.2368.7211.2461-.0031.483-.4834.2384-.7243.2368-3.4932-.0228-7.2266-.168-10.9608-.1924z" fill="#095411"/><path d="m23.9498 24.0004c-3.7341-.0244-7.4683-.0488-11.2024-.0732-.1205-.0008-.2409-.0016-.3614-.0023-.1205-.0008-.2409-.0016-.2393-.2431.0015-.2415.122-.2407.2425-.2399.1204.0008.2409.0016.3613.0024 5.3001.0346 10.6002.0693 15.9003.1039 2.2887.015 4.4569.0291 6.7456.0441.1204.0008.4826-.1176.481.1239-.0024.3622-.2425.2399-.4834.2383-3.8554.0956-7.5896.0711-11.4442.0459z" fill="#095411"/><path d="m23.9343 25.6908c-3.7342-.0245-7.4683-.0489-11.2025-.0733-.1204-.0008-.2409-.0016-.3614-.0023-.2409-.0016-.2401-.1223-.2393-.2431.0008-.1207.122-.2407.2425-.2399s.3614.0024.4818.0032c6.0229.0393 12.1661.0795 18.189.1189 1.4454.0094 2.8909.0189 4.3364.0283.1205.0008.4826-.1176.4803.2446-.0024.3622-.363.2391-.4835.2384-3.8546-.0252-7.7092-.0504-11.4433-.0748z" fill="#095411"/><path d="m24.0228 20.4272c-1.9273-.0126-3.7341-.0244-5.6614-.037-.1205-.0008-.4827.1176-.4803-.2446.0024-.3623.2425-.2399.4834-.2384 3.7342.0244 7.4683.0489 11.3229.074.1205.0008.4826-.1175.4803.2447-.0024.3622-.2425.2399-.4834.2383-1.9273-.0126-3.7342-.0244-5.6615-.037z" fill="#095411"/><path d="m24.3961 28.8705c.9636.0063 1.9273.0126 2.7705.0181.1205.0008.3622-.1184.3598.2438-.0016.2415-.2425.2399-.363.2391-1.9273-.0126-3.8546-.0252-5.7819-.0378-.1204-.0008-.3621.1184-.3598-.2438.0016-.2415.2425-.2399.363-.2391 1.0841.0071 2.0477.0134 3.0114.0197z" fill="#095411"/><path d="m4.72279 16.7286c.11644-.1093.22547.0074.27999.0657.7762.4214 1.14857 1.1123 1.28991 1.9653-.0037.113.04711.2844.04156.4539.17836-.277.2985-.4993.47501-.7197.05452.0583.10904.1166.22548.0073.11829-.1658.23473-.2751.40939-.439.58405-.603 1.16811-1.2061 1.69764-1.8674.15985.288.09237.6252-.02962.904-.31146.8947-.95189 1.4959-1.97023 1.5756-.11273-.0037-.22547-.0074-.28554.1038-.36043.6669-.71901 1.2773-.91218 2.0063-.00185.0565-.06007.1111-.00555.1695-.00371.113-.06008.1111-.1183.1658-.12014.2223-.23843.3881-.24583.6141-.00371.113-.06378.2241.04711.2843.11088.0602.17096-.0509.28554-.1038.69494-.5428 1.38803-1.0291 2.08297-1.5719.23288-.2186.52028-.3789.75131-.541-.03333 1.017-.56286 1.6783-1.36869 2.161-.4602.2677-1.02944.4187-1.58943.2872-.27999-.0657-.2837.0473-.28925.2168-.08599.9021-.11376 1.7496-.03064 2.6573-.01111.339-.02407.7345.07756 1.0772.10534.2297.16171.2315.33822.0111.17836-.277.30221-.6123.48242-.9457.42235-.8346.78648-1.6145 1.20883-2.4491.69022 1.3235-.10182 3.1075-1.52955 3.6263-.22733.0491-.23103.1621-.18021.3335.25777.7437.51555 1.4874 1.00251 2.1255.04896.2279.21436.3464.3197.5761-.00371.113-.00741.226.10533.2297s.06007-.1112.06192-.1677c.08044-.7326.21539-1.4069.29583-2.1395.00925-.2825.18761-.5595.02776-.8475.11644-.1093.16911.0055.22363.0639.75769.9863.42771 2.446-.43818 3.0398-.17281.1075-.17466.164-.06748.3372.32526.4066.70688.815 1.0885 1.2234.10904.1167.21992.1769.32896.2936.05452.0583.10903.1167.16725.062.05822-.0546.06008-.1111.06193-.1676-.04897-.2279-.09793-.4557-.09053-.6817-.04156-.4539-.14133-.853-.07016-1.3032.71799.476.91199 1.4439.32609 2.1034-.17466.164-.12199.2788.04341.3973.49621.3557 1.04882.7131 1.60512.9576.0545.0583.2254.0074.1635.175-.0619.1677-.1709.051-.2255-.0074-.7217-.363-1.44149-.7825-2.0994-1.3696-.10904-.1167-.16541-.1186-.27814-.1223-.67643-.0221-1.35286-.0443-2.08565-.0683-.11274-.0037-.22548-.0074-.28555.1038-.1654-.1186.00741-.226.06563-.2807.40754-.3825.92041-.5354 1.48225-.4604.05637.0018.16725.062.22547.0073-.21622-.2898-.4888-.5816-.70502-.8715-.05452-.0583-.11089-.0601-.16726-.062-.05266-.1148-.21992-.1769-.38903-.1824-.55813-.188-1.11812-.3195-1.67625-.5074-.50362-.1296-.94902-.3139-1.45448-.387-.05082-.1714.11829-.1658.17651-.2205.91856-.4789 1.81861-.3929 2.64748.1433-.26333-.5742-.52666-1.1484-.67726-1.719.00186-.0565-.05266-.1148-.10903-.1167-.43984-.3537-.87969-.7075-1.31953-1.0613-.27629-.1787-.49436-.4121-.77065-.5908-.33081-.2371-.54703-.527-.93606-.7094.40199-.2131.79657-.2002 1.18745-.0742.55999.1314 1.05805.4306 1.43597.952.05452.0583.05267.1148.16541.1185-.09238-.6252-.12838-1.2485-.10617-1.9265.00185-.0565.0037-.113-.05081-.1713-.16356-.1751-.32711-.3501-.43429-.5233-.43244-.5798-.86488-1.1595-1.29732-1.7393-.26888-.4047-.58875-.8318-.79942-1.2911.05637.0018.11981.0039.17618.0057.05872.002.05872.002.17425.0645 1.23456.2102 1.76029.8114 2.38488 2.4155.1331-.6178.2662-1.2356.45382-1.795.0037-.113.00925-.2825-.04341-.3974-.20511-.6288-.35571-1.1994-.56082-1.8283-.09237-.6251-.13023-1.192-.39726-1.6532z" fill="#095411"/><path d="m2.53197 19.8814c.21252.4029.53777.8094.80666 1.2142.43244.5797.86487 1.1595 1.29731 1.7393.16355.175.27074.3482.43429.5232.05452.0584.05267.1149.05082.1714-1.80381-.0591-3.09557-1.9679-2.70552-3.5388.05822-.0547.06007-.1112.11644-.1093z" fill="#4fd875"/><path d="m7.55382 22.8446c-.37929.8106-.82807 1.6421-1.19405 2.4785-.12385.3353-.30221.6122-.48243.9457-.12014.2223-.23288.2186-.33821-.0111-.158-.3445-.09052-.6817-.07756-1.0772.19502-.7854.49908-1.4542 1.19217-1.9405.28925-.2168.56187-.4065.90008-.3954z" fill="#4fd875"/><path d="m3.42188 28.8467c.50546.0731.95086.2574 1.45448.387.55998.1315 1.12979.2688 1.68793.4568.16725.062.35543.1337.52083.2522-.52213.4354-1.2367.6237-1.90757.4321-.78361-.1954-1.39256-.5547-1.70486-1.3568-.05267-.1148-.05081-.1713-.05081-.1713z" fill="#4fd875"/><path d="m2.49156 24.4614c.33265.1806.60524.4723.93605.7094.27629.1787.49621.3556.77065.5909.43984.3537.89706.8374 1.3369 1.1911-.68568.2604-1.31941-.0028-1.92836-.3621-.44354-.2408-.76879-.6474-.98131-1.0502-.10163-.3427-.20326-.6854-.13393-1.0791z" fill="#4fd875"/><path d="m4.72536 16.729c.26518.5178.30489 1.0281.5137 1.544.20511.6289.35571 1.1994.56082 1.8283-.0037.113-.00741.226-.01296.3955-.6145-.1898-.99427-.6548-1.20124-1.2271-.36866-.804-.39726-1.6533.07961-2.4295.00185-.0565.05822-.0547.06007-.1112z" fill="#4fd875"/><path d="m8.73631 19.8587c-.23103.1622-.52028.3789-.75131.541-.69493.5429-1.38802 1.0292-2.08296 1.572-.05822.0547-.17466.164-.28555.1038-.11088-.0602-.04896-.2279-.04711-.2844.0074-.226.03562-.4274.15391-.5932.05823-.0546.13465-.1867.1858-.2878.42235-.8346 1.70725-1.3143 2.6036-1.1152.05822-.0547.17096-.051.22362.0638z" fill="#4fd875"/><path d="m9.1444 16.2247c-.52953.6614-1.11358 1.2644-1.69763 1.8674-.1183.1658-.23474.2751-.4094.4391-.11644.1093-.17095.0509-.22547-.0074.02777-.8475.33183-1.5163 1.07943-1.9443.40384-.2695.80583-.4826 1.25307-.3548z" fill="#4fd875"/><path d="m7.67915 26.4979c.15985.288-.01851.565-.02777.8475-.08043.7326-.21538 1.4069-.29582 2.1395-.00185.0565.08943.2347-.02331.2311-.11274-.0037-.23102-.1263-.22732-.2393-.10718-.1732-.18921-.3455-.23818-.5734-.20141-.7419-.12097-1.4745.40671-2.0794.05822-.0546.17651-.2204.40569-.326z" fill="#4fd875"/><path d="m6.03536 31.5905c.06007-.1111.23802-.1053.35076-.1016.67642.0222 1.35285.0443 2.08565.0683.11273.0037.22547.0074.27814.1223-.64598.7707-1.83572.9328-2.48808.1762-.11398-.092-.23017-.1522-.22647-.2652z" fill="#4fd875"/><path d="m8.88781 29.4983c-.07117.4501.02675.9058.07016 1.3032.04897.2278.09793.4557.09053.6817-.00186.0565-.00371.113-.06193.1676-.05822.0547-.11273-.0037-.16725-.062-.10904-.1167-.21992-.1769-.32896-.2936-.15615-.401-.25592-.8002-.13023-1.192.06378-.2242.18392-.4465.35858-.6104.05637.0018.11459-.0528.1691.0055z" fill="#4fd875"/><path d="m43.7783 17.6047c-.109-.1167-.2254-.0074-.2837.0473-.8021.3696-1.217.9782-1.4139 1.8201-.0037.113-.0656.2807-.0712.4502-.1598-.2881-.2652-.5177-.4269-.7493-.0582.0547-.1164.1093-.2254-.0074-.1072-.1732-.2163-.2899-.3798-.4649-.5433-.64-1.0867-1.2799-1.5718-1.9745-.1783.2769-.1331.6178-.0296.904.2522.9132.8519 1.555 1.8629 1.7012.1127.0037.2254.0074.2781.1223.316.689.6339 1.3216.7789 2.0616-.0019.0565.0527.1149-.0056.1695-.0037.113.0527.1149.1072.1732.1054.2297.2125.4029.2051.6289-.0037.113.049.2278-.0656.2807-.1146.0528-.1672-.0621-.2781-.1223-.6579-.5871-1.3177-1.1178-1.9756-1.7049-.2181-.2334-.4944-.4122-.7143-.5891-.0333 1.017.4518 1.7116 1.2243 2.246.4417.2973.9998.4852 1.5672.3907.2837-.0473.28.0657.2744.2352.0268.9059-.001 1.7534-.1433 2.6536-.0111.339-.0241.7345-.1479 1.0698-.1202.2223-.1766.2205-.3383-.011-.1598-.2881-.2614-.6308-.4194-.9753-.3669-.8604-.6791-1.6625-1.046-2.5229-.7753 1.2755-.1018 3.1074 1.2889 3.7186.2237.0639.22.1769.158.3446-.3059.7252-.6118 1.4505-1.1395 2.0553-.0637.2242-.2366.3316-.3567.5539-.0582.0547-.0619.1677-.1183.1658-.1127-.0037-.0527-.1148-.0508-.1713-.0323-.7363-.1228-1.418-.1551-2.1544.0092-.2825-.1506-.5705.0277-.8474-.109-.1167-.1691-.0056-.2273.0491-.8206.9346-.5869 2.4128.2383 3.062.1654.1185.1635.175.0452.3408-.3512.3845-.7587.767-1.1662 1.1496-.1165.1093-.2311.1621-.3475.2714-.0582.0546-.1164.1093-.171.051-.0545-.0584-.0526-.1149-.0508-.1714.0638-.2241.1276-.4483.135-.6743.0712-.4501.1968-.8419.1553-1.2958-.7476.428-1.0046 1.3811-.4631 2.0776.1636.175.1035.2862-.0693.3936-.5767.377-1.1515.6976-1.7226.9051-.0582.0546-.2254-.0074-.1746.1639.0508.1714.1672.0621.2255.0074.7439-.3149 1.4896-.6864 2.1846-1.2293.1164-.1093.1728-.1074.2855-.1037.6764.0221 1.3529.0443 2.0856.0683.1128.0037.2255.0074.2782.1222.1728-.1074.0074-.2259-.0471-.2843-.3816-.4084-.8834-.5945-1.4489-.5565-.0564-.0019-.171.051-.2255-.0074.2347-.2751.5258-.5484.7605-.8235.0583-.0546.1146-.0528.171-.0509.1164-.1093.2874-.1603.4584-.2113.5692-.151 1.1366-.2455 1.7058-.3965.511-.0964.9676-.2511 1.4767-.291.0619-.1677-.1072-.1732-.1617-.2315-.8852-.5381-1.789-.5111-2.6512-.0304l-.0582.0547s.0019-.0565.0582-.0547c.3004-.5557.6007-1.1115.7884-1.6709.0018-.0565.06-.1112.1164-.1093.4621-.3242.9241-.6485 1.3862-.9727.2874-.1602.5203-.3789.8077-.5391.3456-.2149.5803-.49.9804-.6466-.3871-.2389-.7817-.2519-1.18-.1518-.5674.0945-1.084.3604-1.4952.856-.0582.0546-.0601.1111-.1728.1074.1331-.6178.2098-1.2374.232-1.9154.0019-.0565.0037-.113.062-.1676.1746-.164.3493-.328.4676-.4938.4694-.5502.9389-1.1004 1.4084-1.6506.2948-.3863.6441-.7142.8844-1.1588-.0564-.0018-.0564-.0018-.1128-.0037-.0582.0547-.1146.0528-.1691-.0055-1.2456.1288-1.8842.6735-2.6125 2.2333-.0924-.6252-.1847-1.2503-.3353-1.8209.0037-.113.0092-.2825.0693-.3936.2458-.6141.4335-1.1736.6793-1.7877.1294-.5048.2588-1.0096.5009-1.5107z" fill="#095411"/><g fill="#4fd875"><path d="m45.7604 20.8933c-.2384.3881-.5896.7726-.8844 1.1588-.4695.5502-.9389 1.1004-1.4084 1.6507-.1747.1639-.293.3297-.4676.4937-.0582.0546-.0601.1111-.0619.1676 1.8038.0591 3.2177-1.761 2.9313-3.3541-.0563-.0018-.0526-.1148-.109-.1167z"/><path d="m40.5312 23.5508c.3687.8039.7355 1.6643 1.046 2.5229.1016.3427.2615.6307.4195.9752.1053.2297.218.2334.3382.0111.1802-.3334.1349-.6743.1479-1.0698-.1432-.7965-.4028-1.4837-1.0626-2.0144-.2744-.2352-.5507-.4139-.889-.425z"/><path d="m44.256 29.6875c-.5091.0399-.9656.1946-1.4767.291-.5673.0945-1.1366.2456-1.7058.3966-.171.051-.2856.1038-.4584.2112.4925.4686 1.107.6585 1.789.5111.7947-.1436 1.4259-.4623 1.79-1.2422.0601-.1112.0601-.1112.0619-.1677z"/><path d="m45.4909 25.5235c-.3438.1584-.6349.4316-.9805.6466-.2874.1602-.5184.3223-.8077.5391-.462.3242-.9241.6484-1.3861.9726.6671.3047 1.2909.212 1.9221-.1067.4583-.2112.8095-.5956 1.0479-.9837.1821-.39.2496-.7271.2043-1.0679z"/><path d="m43.7792 17.6051c-.2985.4992-.3716 1.0059-.6137 1.507-.2458.6141-.4335 1.1735-.6793 1.7876-.0601.1112-.0656.2807-.0693.3937.6256-.1492 1.035-.5882 1.279-1.1459.4205-.778.5046-1.6237.0796-2.4294.1146-.0528.0582-.0547.0037-.113z"/><path d="m39.5672 20.4647c.22.1769.4944.4121.7143.589.6579.5872 1.3177 1.1178 1.9756 1.705.0545.0583.1636.175.2782.1222s.0637-.2241.0656-.2806c.0074-.226-.0979-.4557-.2051-.6289-.0545-.0584-.1091-.1167-.1072-.1732-.3668-.8604-1.5866-1.5226-2.494-1.3826-.0545-.0584-.1109-.0602-.2274.0491z"/><path d="m39.4059 16.7266c.4851.6947 1.0284 1.3346 1.5718 1.9746.1071.1732.2162.2899.3797.4649.1091.1167.1673.062.2255.0074.0278-.8475-.2319-1.5347-.9498-2.0107-.329-.2936-.718-.476-1.2272-.4362z"/><path d="m40.1923 27.1597c-.1783.2769-.0185.565-.0277.8475.0323.7363.1228 1.418.1551 2.1543-.0018.0565-.0619.1677.0508.1714.1128.0037.1146-.0528.1183-.1658.1183-.1658.293-.3298.3567-.5539.2496-.7271.2173-1.4635-.2697-2.1016-.0545-.0583-.1617-.2315-.3835-.3519z"/><path d="m41.4503 32.2955c-.0527-.1148-.1654-.1185-.2781-.1222-.6765-.0222-1.3529-.0444-2.0857-.0684-.1127-.0037-.2254-.0073-.2855.1038.5941.8113 1.7742.9631 2.4747.2508.1127.0037.1709-.051.1746-.164z"/><path d="m38.7481 29.9397c.0415.4539-.086.9022-.1553 1.2958-.0638.2242-.1276.4483-.135.6743-.0018.0565-.0037.113.0508.1714.0546.0583.1128.0036.171-.051.1164-.1093.231-.1621.3475-.2714.182-.39.3077-.7818.2079-1.181-.0489-.2278-.1543-.4575-.3178-.6325-.0564-.0019-.0545-.0584-.1691-.0056z"/><path d="m45.4766 20.8848c.0545.0583.1109.0602.1691.0055-.0564-.0018-.1128-.0037-.1691-.0055z"/><path d="m41.4157 29.4052c-.0563-.0019-.0582.0546-.0582.0546.0545.0584.0545.0584.0582-.0546.0546.0583-.0018.0565 0 0z"/></g><path d="m28 39.6221-1.4295 5.0937 1.918-1.2508.9538 2.1846 1.4628-5.2123z" fill="#095411"/><path d="m31.2266 40.1777 2.0725 4.8678.6465-2.1474 2.0442 1.1355-2.1207-4.981z" fill="#095411"/><path d="m30.7981 41.2535c1.8294.0621 3.3628-1.3741 3.425-3.2077s-1.3704-3.3704-3.1998-3.4324c-1.8293-.0621-3.3628 1.374-3.425 3.2076-.0622 1.8337 1.3704 3.3704 3.1998 3.4325z" fill="#d4f4d7" stroke="#095411" stroke-miterlimit="10" stroke-width=".386729"/><path d="m30.8287 40.3924c1.2873.0437 2.3664-.9669 2.4102-2.2573.0438-1.2903-.9643-2.3717-2.2517-2.4154-1.2873-.0437-2.3664.9669-2.4102 2.2573-.0438 1.2903.9643 2.3717 2.2517 2.4154z" fill="#d4f4d7" stroke="#095411" stroke-miterlimit="10" stroke-width=".386729"/></svg>