<svg fill="none" height="50" viewBox="0 0 50 50" width="50" xmlns="http://www.w3.org/2000/svg"><path clip-rule="evenodd" d="m42.5 8.125c-.3446 0-.625-.28037-.625-.625 0-.34465.2804-.625.625-.625s.625.28035.625.625c0 .34463-.2804.625-.625.625z" fill="#cacafb" fill-rule="evenodd"/><path clip-rule="evenodd" d="m18.75 50c-.3446 0-.625-.2804-.625-.625 0-.3447.2804-.625.625-.625s.625.2803.625.625c0 .3446-.2804.625-.625.625z" fill="#cacafb" fill-rule="evenodd"/><path clip-rule="evenodd" d="m9.375 6.25c-.34463 0-.625-.28037-.625-.625 0-.34465.28037-.625.625-.625s.625.28035.625.625c0 .34463-.28037.625-.625.625z" fill="#cacafb" fill-rule="evenodd"/><path clip-rule="evenodd" d="m33.75 21.875c-5.868 0-10.625 4.757-10.625 10.625 0 .0398.0002.0796.0007.1193-.0237 2.0707.5833 4.1576 1.8465 5.9692 1.9203 2.754 4.9998 4.3592 8.2311 4.5227.1406.0071.2821.0115.4242.0131 1.3976.0159 2.8153-.2383 4.1724-.7863.0398-.016.0773-.0359.1122-.0592 1.5287-.6514 2.8735-1.6509 3.935-2.8989.0754-.0379.1463-.0937.2082-.1696 1.5419-1.8904 2.3453-4.2253 2.3191-6.5951.0004-.0384.0006-.0768.0006-.1152 0-5.868-4.757-10.625-10.625-10.625zm3.0138 1.7449c-.9458-.3209-1.9595-.4949-3.0138-.4949-2.5365 0-4.8377 1.0073-6.5254 2.6437.1103.1403.2027.2929.2742.4536.0641.1404.117.2848.1596.4337.0846.2952.1239.5453.1407.8818l.0087.2707c.0018.097.0025.2015.0025.3154l.0003.125.0036.2112.0081.1634.0131.1239c.0106.0712.025.1213.0441.1611.0031.0065.018.016.0447.0283l.0694.028.1013.0346.1334.0403.2608.0698.3342.0786.7612.163.2668.0665c.4692.1268.8161.3392 1.2183.7228l.0842.0821-.0067-.014c-.3727-.8648-.4236-1.9972-.1887-2.753l.0444-.1293c.3234-.8582 1.0494-1.1911 2.0446-1.2142.0305-.0007.0605-.0011.0904-.0013l.1817.0017c.0313.0008.0634.0018.0967.0031l.6766.0374.1951.0059.094-.0017.0753-.0061c.1055-.0129.233-.139.3756-.4184l.212-.4752.0787-.1662c.0377-.0761.0716-.1383.0961-.1711.2067-.2767.5342-.5696 1.0149-.9252l.2777-.2004zm-2.7067 18.2502c-.102.0032-.2043.0049-.3071.0049-5.1375 0-9.3098-4.1325-9.3742-9.2547.0255-1.9841.7114-3.9507 2.0289-5.5685l.0491-.0599.0029.0082c.0462.1612.0728.3112.0874.5068l.011.213.0047.256.0024.4305c.0083.4981.0477.7458.1908 1.044.2238.4642.553.6587 1.3492.8564l.2674.0628.301.065.5355.1125.1715.0395.1473.0377c.3339.0902.6177.3217 1.1004.8607l.3317.3703c.1886.2035.3161.3243.4587.4055.2085.1189.4667.1078.6643-.0285.2382-.1642.4915-.5318.6111-.9509.118-.4141.0937-.8267-.1244-1.1357l-.0643-.0816c-.4307-.4967-.5431-1.7337-.3302-2.2964.1037-.275.362-.3934.9041-.406l.1449-.0008.2493.0083.5072.0297.1978.0085c.0295.0009.0574.0015.0842.0018l.1481-.0015.1338-.0087c.022-.0021.044-.0045.0663-.0071.5769-.0706.9704-.4266 1.2744-.9712l.0891-.1706.0561-.1203.1371-.3163.0561-.1415c.0012-.0038.0013-.0051.0002-.0037.0873-.1168.245-.2653.4683-.4443l.2073-.161.2389-.1758c.0424-.0306.0861-.0617.1311-.0935l.285-.1979.2004-.1358.1271.059c2.4695 1.1814 4.2899 3.3663 4.9634 5.9814l.0562.2305c.1433.6246.2179 1.2563.2257 1.8854-.0164 1.3492-.3178 2.6298-.8468 3.7844-.0937-.8046-.3741-1.214-1.0939-1.6163-.2468-.1359-.4423-.2336-.6747-.3401l-.1826-.0823c-.5159-.2279-.6374-.3149-.9136-.7099l-.1428-.2068c-.7035-1.0458-1.247-1.3811-2.5367-1.1818-2.2873.3546-2.951.7939-3.128 1.9621l-.0607.4179c-.0065.0478-.0125.0942-.018.1393l-.0272.2559c-.0669.7653.0537 1.1203.5037 1.5821l.329.3402.3087.3256.2883.3108.2677.2956.2471.2803.2263.2647.2054.2487.1842.2326.163.2162c.0254.0347.0499.0687.0735.1019l.1309.1911c.1202.1827.208.3397.2628.4701l.0576.1458c.1288.3467.2174.7352.2298 1.1227l.0002.1375c-.9151.3356-1.897.5325-2.9204.5655zm4.1437-1.1169c1.079-.5831 2.0307-1.3716 2.8026-2.3132.0426-.2774.065-.5729.065-.8869v-.265l-.0016-.2483-.0051-.2118-.01-.1793c-.0363-.466-.1475-.5884-.4745-.7712l-.1542-.0833c-.1979-.1045-.3712-.1864-.6029-.2893l-.1359-.0612c-.6102-.2809-.8976-.5058-1.298-1.0782l-.2133-.3107-.1165-.1649c-.2751-.3734-.4433-.4632-.8538-.4268l-.178.0209-.2651.0407-.4409.0733-.3658.0688-.2057.0447-.1778.0446c-.4935.1344-.6392.2778-.702.5224l-.0182.0854-.0436.2879-.0452.3181-.0193.1662-.0104.1353-.0012.1096c.004.1147.0274.1871.0717.2532l.0431.0559c.0161.0187.034.0377.0537.0579l.1858.1913.3542.3703.3309.3538.3077.3375.2844.3214.2613.3052.238.2893.2149.2734c.3726.4867.6284.894.7675 1.2249.1715.4101.3025.8634.3582 1.3381z" fill="#e1000f" fill-rule="evenodd"/><g fill="#000091"><path d="m41.8708 11.1771c-.0361-.3108-.3003-.5521-.6208-.5521h-33.75l-.07289.0042c-.31083.0361-.55211.3003-.55211.6208v28.75l.0042.0729c.03611.3108.30028.5521.6208.5521h15l.0729-.0042c.3108-.0361.5521-.3003.5521-.6208l-.0042-.0729c-.0361-.3108-.3003-.5521-.6208-.5521h-14.375v-22.5h23.125l.0729-.0042c.3108-.0361.5521-.3003.5521-.6208 0-.3452-.2798-.625-.625-.625h-23.125v-3.75h32.5v3.75h-5.625l-.0729.0042c-.3108.0361-.5521.3003-.5521.6208 0 .3452.2798.625.625.625h5.625v4.375l.0042.0729c.0361.3108.3003.5521.6208.5521.3452 0 .625-.2798.625-.625v-10z"/><path d="m10 14.375c-.34462 0-.625-.2804-.625-.625 0-.3447.28038-.625.625-.625.3446 0 .625.2803.625.625 0 .3446-.2804.625-.625.625z"/><path d="m11.875 13.75c0 .3446.2804.625.625.625s.625-.2804.625-.625c0-.3447-.2804-.625-.625-.625s-.625.2803-.625.625z"/><path d="m15 14.375c-.3446 0-.625-.2804-.625-.625 0-.3447.2804-.625.625-.625s.625.2803.625.625c0 .3446-.2804.625-.625.625z"/><path d="m38.75 13.125c.3452 0 .625.2798.625.625 0 .3205-.2413.5847-.5521.6208l-.0729.0042h-18.75c-.3452 0-.625-.2798-.625-.625 0-.3205.2413-.5847.5521-.6208l.0729-.0042z"/><path d="m24.375 21.25c0-.3452-.2798-.625-.625-.625h-11.25l-.0729.0042c-.3108.0361-.5521.3003-.5521.6208 0 .3452.2798.625.625.625h11.25l.0729-.0042c.3108-.0361.5521-.3003.5521-.6208z"/><path d="m21.25 24.375c.3452 0 .625.2798.625.625 0 .3205-.2413.5847-.5521.6208l-.0729.0042h-8.75c-.3452 0-.625-.2798-.625-.625 0-.3205.2413-.5847.5521-.6208l.0729-.0042z"/><path d="m20.625 28.75c0-.3452-.2798-.625-.625-.625h-7.5l-.0729.0042c-.3108.0361-.5521.3003-.5521.6208 0 .3452.2798.625.625.625h7.5l.0729-.0042c.3108-.0361.5521-.3003.5521-.6208z"/></g></svg>