<svg fill="none" height="50" viewBox="0 0 50 50" width="50" xmlns="http://www.w3.org/2000/svg"><path d="m28.6217 43.8231h-12.0279l.787-5.2694h10.4368z" fill="#c1c1fb"/><g fill="#adadf9"><path d="m30.2858 44.3525h-15.4499v.8725h15.4499z"/><path d="m14.8359 44.3526 1.7623-.5303h12.028l1.6596.5303z"/><path d="m.015625 34.4297v3.0624c0 .5816.479066 1.0607 1.060785 1.0607h43.08169c.5817 0 1.0608-.4791 1.0608-1.0607v-3.0624z"/></g><path d="m45.2032 34.4302v-26.22692c0-.58168-.479-1.0607-1.0607-1.0607h-43.08171c-.581725 0-1.06079.47902-1.06079 1.0607v26.22692z" fill="#212121"/><path d="m43.7816 8.51074h-42.41441v24.34496h42.41441z" fill="#fff"/><path d="m22.4295 37.1334c.3969 0 .7186-.3217.7186-.7186 0-.3968-.3217-.7185-.7186-.7185-.3968 0-.7186.3217-.7186.7185 0 .3969.3218.7186.7186.7186z" fill="#212121"/><path d="m37.5625 44.1632v-21.2997c0-.6159.5133-1.1291 1.1292-1.1291h10.1802c.6159 0 1.1292.5132 1.1292 1.1291v21.2997c0 .6159-.5133 1.1292-1.1292 1.1292h-10.1802c-.6159 0-1.1292-.5133-1.1292-1.1292z" fill="#212121"/><path d="m49.1016 42.1103v-17.2109h-10.625v17.2109z" fill="#fff"/><path d="m44.0645 44.625c.5103 0 .924-.4136.924-.9238s-.4137-.9239-.924-.9239c-.5102 0-.9239.4137-.9239.9239s.4137.9238.9239.9238z" fill="#c1c1fb"/></svg>