<svg fill="none" height="228" viewBox="0 0 276 228" width="276" xmlns="http://www.w3.org/2000/svg" xmlns:xlink="http://www.w3.org/1999/xlink"><filter id="a" color-interpolation-filters="sRGB" filterUnits="userSpaceOnUse" height="66" width="74" x="0" y="84"><feFlood flood-opacity="0" result="BackgroundImageFix"/><feColorMatrix in="SourceAlpha" result="hardAlpha" type="matrix" values="0 0 0 0 0 0 0 0 0 0 0 0 0 0 0 0 0 0 127 0"/><feOffset dx="1" dy="1"/><feGaussianBlur stdDeviation="4.5"/><feColorMatrix type="matrix" values="0 0 0 0 0.129412 0 0 0 0 0.129412 0 0 0 0 0.129412 0 0 0 0.24 0"/><feBlend in2="BackgroundImageFix" mode="normal" result="effect1_dropShadow_18430_333606"/><feBlend in="SourceGraphic" in2="effect1_dropShadow_18430_333606" mode="normal" result="shape"/></filter><filter id="b" color-interpolation-filters="sRGB" filterUnits="userSpaceOnUse" height="66" width="74" x="202" y="84"><feFlood flood-opacity="0" result="BackgroundImageFix"/><feColorMatrix in="SourceAlpha" result="hardAlpha" type="matrix" values="0 0 0 0 0 0 0 0 0 0 0 0 0 0 0 0 0 0 127 0"/><feOffset dx="1" dy="1"/><feGaussianBlur stdDeviation="4.5"/><feColorMatrix type="matrix" values="0 0 0 0 0.129412 0 0 0 0 0.129412 0 0 0 0 0.129412 0 0 0 0.24 0"/><feBlend in2="BackgroundImageFix" mode="normal" result="effect1_dropShadow_18430_333606"/><feBlend in="SourceGraphic" in2="effect1_dropShadow_18430_333606" mode="normal" result="shape"/></filter><path d="m137 11.4c0-6.29604 5.117-11.4591583 11.381-10.830771 25.752 2.583111 49.989 13.875171 68.594 32.189971 21.325 20.993 33.541 49.5293 34.011 79.4498.47 29.921-10.844 58.827-31.499 80.48-18.02 18.89-41.89 30.938-67.548 34.328-6.242.825-11.518-4.175-11.716-10.468s4.765-11.481 10.985-12.462c19.666-3.101 37.895-12.579 51.782-27.136 16.524-17.322 25.575-40.447 25.199-64.384-.376-23.9362-10.149-46.7652-27.209-63.5596-14.337-14.1136-32.855-23.0142-52.609-25.4961-6.247-.7849-11.371-5.8153-11.371-12.1113z" fill="#d64b71"/><path d="m137 216.6c0 6.296-5.117 11.459-11.382 10.831-25.7513-2.583-49.9878-13.875-68.5926-32.19-21.3254-20.993-33.5413-49.53-34.0113-79.45-.4701-29.9212 10.8435-58.8272 31.499-80.4797 18.0203-18.8901 41.8902-30.93789 67.5479-34.328603 6.242-.824845 11.519 4.174983 11.716 10.467903.198 6.293-4.765 11.4818-10.984 12.4625-19.667 3.1012-37.896 12.5791-51.7826 27.136-16.5243 17.322-25.5752 40.4467-25.1992 64.3829.3761 23.937 10.1488 46.766 27.2091 63.561 14.337 14.113 32.8547 23.014 52.6087 25.496 6.247.785 11.371 5.815 11.371 12.111z" fill="#27a8a5"/><g filter="url(#a)"><rect fill="#fff" height="48" rx="8" width="56" x="8" y="92"/><path d="m32.1 125v-16.225h-2.975c-.325 1.7-1.975 3.025-4.35 3.05v2.325h3.9v10.85zm6.4789-9.95c-.075-.275-.125-.6-.125-.9 0-1.525.85-2.7 2.575-2.7 1.625 0 2.45 1.05 2.45 2.225 0 1.125-.55 1.975-1.925 2.8l-2.675 1.6c-2.9 1.75-3.8 4.075-3.825 6.925h12v-2.975h-7.775c.25-.625.775-1.075 1.4-1.475l3.125-1.9c2-1.225 3.15-2.925 3.15-5.025 0-2.825-2.225-5.225-5.85-5.225-3.775 0-5.925 2.575-5.925 5.425 0 .4.075.9.125 1.125z" fill="#212121"/></g><g filter="url(#b)"><rect fill="#fff" height="48" rx="8" width="56" x="210" y="92"/><path d="m234.1 125v-16.225h-2.975c-.325 1.7-1.975 3.025-4.35 3.05v2.325h3.9v10.85zm6.479-9.95c-.075-.275-.125-.6-.125-.9 0-1.525.85-2.7 2.575-2.7 1.625 0 2.45 1.05 2.45 2.225 0 1.125-.55 1.975-1.925 2.8l-2.675 1.6c-2.9 1.75-3.8 4.075-3.825 6.925h12v-2.975h-7.775c.25-.625.775-1.075 1.4-1.475l3.125-1.9c2-1.225 3.15-2.925 3.15-5.025 0-2.825-2.225-5.225-5.85-5.225-3.775 0-5.925 2.575-5.925 5.425 0 .4.075.9.125 1.125z" fill="#212121"/></g></svg>