<svg fill="none" height="20" viewBox="0 0 20 20" width="20" xmlns="http://www.w3.org/2000/svg"><g stroke="#212121" stroke-linecap="round" stroke-linejoin="round" stroke-width="1.5"><path d="m10 17.5c4.1421 0 7.5-3.3579 7.5-7.5 0-4.14214-3.3579-7.5-7.5-7.5-4.14214 0-7.5 3.35786-7.5 7.5 0 4.1421 3.35786 7.5 7.5 7.5z"/><path d="m8.33333 13.75 1.66667-2.5m0 0 1.6667 2.5m-1.6667-2.5v-1.66667m0 0 2.5-.83333m-2.5.83333-2.5-.83333"/><path d="m10.0007 6.66683c.2301 0 .4166-.18655.4166-.41667s-.1865-.41666-.4166-.41666c-.23017 0-.41672.18654-.41672.41666s.18655.41667.41672.41667z" fill="#212121"/></g></svg>