<svg fill="none" height="228" viewBox="0 0 276 228" width="276" xmlns="http://www.w3.org/2000/svg" xmlns:xlink="http://www.w3.org/1999/xlink"><filter id="a" color-interpolation-filters="sRGB" filterUnits="userSpaceOnUse" height="66" width="70" x="0" y="84"><feFlood flood-opacity="0" result="BackgroundImageFix"/><feColorMatrix in="SourceAlpha" result="hardAlpha" type="matrix" values="0 0 0 0 0 0 0 0 0 0 0 0 0 0 0 0 0 0 127 0"/><feOffset dx="1" dy="1"/><feGaussianBlur stdDeviation="4.5"/><feColorMatrix type="matrix" values="0 0 0 0 0.129412 0 0 0 0 0.129412 0 0 0 0 0.129412 0 0 0 0.24 0"/><feBlend in2="BackgroundImageFix" mode="normal" result="effect1_dropShadow_18435_333533"/><feBlend in="SourceGraphic" in2="effect1_dropShadow_18435_333533" mode="normal" result="shape"/></filter><filter id="b" color-interpolation-filters="sRGB" filterUnits="userSpaceOnUse" height="66" width="74" x="202" y="84"><feFlood flood-opacity="0" result="BackgroundImageFix"/><feColorMatrix in="SourceAlpha" result="hardAlpha" type="matrix" values="0 0 0 0 0 0 0 0 0 0 0 0 0 0 0 0 0 0 127 0"/><feOffset dx="1" dy="1"/><feGaussianBlur stdDeviation="4.5"/><feColorMatrix type="matrix" values="0 0 0 0 0.129412 0 0 0 0 0.129412 0 0 0 0 0.129412 0 0 0 0.24 0"/><feBlend in2="BackgroundImageFix" mode="normal" result="effect1_dropShadow_18435_333533"/><feBlend in="SourceGraphic" in2="effect1_dropShadow_18435_333533" mode="normal" result="shape"/></filter><path d="m137 11.4c0-6.29604 5.117-11.4590363 11.381-10.830466 12.117 1.215716 23.985 4.367586 35.147 9.357636 14.638 6.54443 27.732 16.10343 38.424 28.05263 10.693 11.9491 18.745 26.0195 23.63 41.2923 4.884 15.2727 6.492 31.4039 4.718 47.3409-1.774 15.936-6.89 31.319-15.014 45.144-8.124 13.824-19.073 25.78-32.131 35.085-13.059 9.305-27.934 15.75-43.653 18.915-11.986 2.414-24.257 2.878-36.345 1.399-6.249-.764-10.105-6.926-8.72-13.068 1.384-6.142 7.489-9.922 13.755-9.314 8.934.867 17.969.412 26.809-1.368 12.576-2.532 24.476-7.689 34.923-15.133s19.206-17.008 25.705-28.068c6.499-11.059 10.592-23.366 12.011-36.115s.133-25.6541-3.775-37.8723c-3.907-12.2182-10.349-23.4746-18.903-33.0339s-19.029-17.2065-30.74-22.4421c-8.232-3.6805-16.945-6.111-25.852-7.2301-6.246-.785-11.37-5.8156-11.37-12.1116z" fill="#d64b71"/><path d="m109.955 212.971c-1.66 6.074-7.957 9.705-13.8342 7.448-21.6174-8.304-40.2867-23.036-53.4051-42.337-15.2634-22.457-22.0097-49.625-19.0248-76.614 2.9849-26.9884 15.505-52.0254 35.3069-70.6044 17.0191-15.9681 38.4566-26.26442 61.3662-29.64342 6.229-.918682 11.58 4.00123 11.872 10.29052.292 6.2892-4.592 11.5522-10.796 12.6263-17.479 3.0263-33.7854 11.1039-46.8417 23.3539-15.8416 14.8632-25.8577 34.8927-28.2456 56.4841-2.3879 21.59 3.0092 43.325 15.2199 61.29 10.0638 14.807 24.2112 26.253 40.6064 33.026 5.819 2.404 9.435 8.607 7.776 14.68z" fill="#27a8a5"/><g filter="url(#a)"><rect fill="#fff" height="48" rx="8" width="52" x="8" y="92"/><path d="m32.1 125v-16.225h-2.975c-.325 1.7-1.975 3.025-4.35 3.05v2.325h3.9v10.85zm9.9121 0v-16.225h-2.975c-.325 1.7-1.975 3.025-4.35 3.05v2.325h3.9v10.85z" fill="#212121"/></g><g filter="url(#b)"><rect fill="#fff" height="48" rx="8" width="56" x="210" y="92"/><path d="m234.1 125v-16.225h-2.975c-.325 1.7-1.975 3.025-4.35 3.05v2.325h3.9v10.85zm7.382-7.2c.35-.125.775-.25 1.475-.25 1.55 0 2.65.875 2.65 2.4 0 1.35-1.025 2.45-2.75 2.45-1.7 0-2.875-1.2-2.95-2.85l-3.325.65c.2 2.725 2.5 5.175 6.275 5.175 3.925 0 6.225-2.575 6.225-5.375 0-2.975-2.25-4.85-4.7-4.95l4.2-3.5v-2.775h-11.475v2.975h7.1l-4.25 3.65z" fill="#212121"/></g></svg>