<svg width="248" height="220" viewBox="0 0 248 220" fill="none" xmlns="http://www.w3.org/2000/svg">
<path d="M220.123 89.5494L202.041 153.125L188.932 199.939H179.288L193.301 89.5494H220.123Z" fill="#C159D8"/>
<path d="M224.945 89.5494C225.397 122.319 226.753 140.138 227.205 143.159C227.657 146.179 234.287 165.055 247.096 199.939H237.15C220.877 166.414 211.685 147.538 209.726 143.159C207.767 138.779 201.89 120.96 193.151 89.5494H224.945Z" fill="#D16DEA"/>
<path d="M248 209L247.548 198.58H237.151C232.178 202.053 225.699 204.923 217.712 207.037V209H236.699L243.178 207.943V209H248Z" fill="#77057A"/>
<path d="M190.288 209L189.836 198.58H179.438C174.466 202.053 167.986 204.923 160 207.037V209H178.986L185.466 207.943V209H190.288Z" fill="#77057A"/>
<path d="M215 32.3165C209.274 32.3165 207.164 25.521 204 21.7457C201.74 19.0275 197.671 19.9335 196.616 16.1582C193.603 6.6445 201.589 0 211.836 0C222.082 0 229.014 5.88945 230.52 14.6481C232.027 23.4068 225.246 32.3165 215 32.3165Z" fill="#77057A"/>
<path d="M214.397 26.276C216.657 23.5578 218.315 20.2355 218.013 16.6112C217.26 5.88941 202.493 8.3056 199.479 13.742C196.616 19.1784 196.918 32.7695 200.685 33.8266C202.192 34.2796 205.356 33.2225 208.52 31.2593L206.561 45.6054H218.466L214.397 26.276Z" fill="#EDC4FC"/>
<path d="M209.425 19.4808C209.877 19.1787 210.329 19.1787 210.932 19.1787C212.589 19.1787 213.945 20.5378 213.945 22.199C213.945 22.803 213.644 23.5581 213.343 24.0111C214.096 25.2192 214.548 26.4273 214.699 27.7864C217.261 27.7864 226.452 18.2727 217.26 9.21197C208.069 0.151278 194.808 12.9873 198.877 13.7423C201.137 14.0443 205.658 16.3095 209.425 19.4808Z" fill="#77057A"/>
<path d="M207.767 39.5649C200.083 55.7231 198.726 61.4616 182.603 74.2976L188.63 81.9992C206.562 74.4486 204.452 76.1097 209.124 60.8575C210.329 57.0823 211.083 44.8503 211.836 38.3568L207.767 39.5649Z" fill="#77057A"/>
<path d="M229.165 93.0232H190.74C199.48 66.4451 204.302 51.797 204.452 41.9812C204.452 41.5282 205.357 40.6221 205.809 40.7731C208.822 41.6792 211.535 37.7529 215 36.2428C224.192 50.7399 227.357 68.8613 229.165 93.0232Z" fill="#EDC4FC"/>
<path d="M175.599 46.5401L176.173 48.0985L172.921 49.3009L172.347 47.7425L175.599 46.5401Z" fill="#FCA306"/>
<path d="M178.459 55.3283L179.033 56.8866L175.782 58.0894L175.208 56.5311L178.459 55.3283Z" fill="#FCA306"/>
<path d="M181.256 64.0699L181.829 65.6285L178.577 66.8299L178.004 65.2713L181.256 64.0699Z" fill="#FCA306"/>
<path d="M184.151 72.8438L184.724 74.4025L181.472 75.6032L180.899 74.0445L184.151 72.8438Z" fill="#FCA306"/>
<path d="M186.988 81.5858L187.563 83.1438L184.313 84.3483L183.738 82.7903L186.988 81.5858Z" fill="#FCA306"/>
<path d="M188.932 96.3456C189.233 97.2516 189.685 98.4597 188.178 98.9128C187.124 99.2148 186.37 98.7617 186.069 96.4966C185.466 91.2112 181.398 75.0529 179.439 70.8246C177.329 66.5963 176.124 64.3311 171.754 61.7639L171.452 62.821C171 61.6129 170.398 60.7068 169.644 60.5558C167.082 59.8008 163.315 64.7841 161.356 71.5797C159.398 78.3752 160 84.5667 162.562 85.3217C163.165 85.4727 163.767 85.3217 164.37 85.0197L164.219 85.7748C164.219 85.7748 170.85 83.5096 172.356 89.248C173.11 92.4193 178.987 111.447 190.288 108.577C198.726 106.312 201.137 101.178 198.425 93.6273C193.603 80.4893 186.973 58.2906 182.151 45.9077C181.548 44.2466 179.439 39.2632 184.713 37.6021C193.151 34.7328 193.151 34.7328 196.014 33.5248L194.658 30.3535C194.658 30.3535 190.74 31.7126 186.822 32.9207C178.233 35.4879 170.096 37.4511 174.617 50.287C174.617 50.8911 186.37 85.9258 188.932 96.3456Z" fill="#FCBF35"/>
<path d="M170.398 60.5558C170.247 60.5558 170.247 60.5558 170.096 60.5558C172.206 61.9149 172.507 67.6533 170.699 73.9958C168.74 80.6403 165.274 85.4727 162.713 85.0197C162.863 85.1707 163.165 85.1707 163.315 85.3217C166.178 86.0767 170.096 81.2444 172.055 74.4488C173.863 67.6533 173.11 61.4619 170.398 60.5558Z" fill="#FCA306"/>
<path d="M163.696 81.9492C162.176 81.5152 162.144 76.937 163.626 71.7235C165.107 66.5101 167.541 62.6356 169.062 63.0696C170.582 63.5036 170.614 68.0818 169.132 73.2953C167.651 78.5087 165.217 82.3832 163.696 81.9492Z" fill="#FCA306"/>
<path d="M181.096 99.3656C178.986 99.9696 175.973 99.6676 174.164 98.3085C173.411 97.7045 173.11 96.4963 174.315 95.4393L174.918 96.6474C176.425 97.5534 178.986 97.1004 180.795 96.6474C182.452 96.1943 184.712 94.9862 185.616 93.4761L185.466 92.5701C186.37 92.419 187.274 93.6271 186.822 94.9862C185.918 97.1004 183.356 98.7615 181.096 99.3656Z" fill="#FCA306"/>
<path d="M193.904 95.7414C191.795 96.3454 189.534 96.1944 187.726 94.8353C186.973 94.2313 186.671 93.0232 187.877 91.9661L188.178 93.1742C189.685 94.0803 191.192 94.0803 192.849 93.6272C194.507 93.1742 196.767 91.8151 197.069 90.607L196.767 89.7009C197.671 89.5499 198.726 90.758 198.425 92.1171C197.973 93.9292 196.165 95.1373 193.904 95.7414Z" fill="#FCA306"/>
<path d="M195.411 33.5247C195.411 33.5247 198.124 31.7125 199.178 29.1453L198.576 28.0883L193.905 29.5984L195.411 33.5247Z" fill="#FCA306"/>
<path d="M183.548 45.0101L184.123 46.5681L180.873 47.773L180.298 46.215L183.548 45.0101Z" fill="#FCA306"/>
<path d="M186.323 53.7849L186.896 55.3435L183.644 56.5449L183.071 54.9863L186.323 53.7849Z" fill="#FCA306"/>
<path d="M189.179 62.5787L189.752 64.1372L186.501 65.339L185.927 63.7805L189.179 62.5787Z" fill="#FCA306"/>
<path d="M192.167 71.2607L192.741 72.819L189.49 74.0218L188.916 72.4635L192.167 71.2607Z" fill="#FCA306"/>
<path d="M195.562 81.547L192.397 82.7551L191.795 81.0939L194.959 80.0369L195.562 81.547Z" fill="#FCA306"/>
<path d="M187.274 38.6596C188.028 37.6025 190.439 37.4515 190.439 35.3373C189.535 35.4883 188.329 36.5454 187.274 35.7903C186.672 35.3373 186.521 33.6762 186.973 33.0721C187.726 32.1661 191.644 32.015 191.343 30.0519C188.631 29.9009 184.411 29.2968 182.302 30.958C179.589 33.2231 179.74 38.0555 180.795 41.0757C181.85 41.0757 182.904 40.0186 184.11 39.5656C185.315 39.2636 186.521 39.2636 187.274 38.6596Z" fill="#EDC4FC"/>
<path d="M211.836 36.0917C200.836 36.2427 194.507 73.8446 187.274 38.6589L180.493 40.018C176.124 80.9421 195.562 81.5461 202.945 71.7304C202.041 90.0028 199.781 105.406 212.891 105.406C219.219 105.406 226 105.406 233.384 105.406C236.699 83.5093 228.11 53.156 220.124 37.9038C219.822 37.2998 219.219 36.2427 217.713 36.2427C216.507 36.0917 214.548 36.0917 211.836 36.0917Z" fill="#9E2DAD"/>
<path d="M186.219 83.661C188.932 81.3958 188.63 75.8084 185.767 73.8452C181.548 70.976 181.096 76.2614 182.603 80.1877C183.206 81.6978 185.014 84.567 186.219 83.661Z" fill="#EDC4FC"/>
<path d="M73.6472 84.0677L49.2018 145.943L32.754 198.333H26.2654L51.3143 84.0677H73.6472Z" fill="#C159D8"/>
<path d="M78.6266 84.0677C78.9284 105.747 82.7008 135.103 83.3044 136.458C83.7571 137.362 97.6397 148.803 125.254 170.934L120.727 175.751C88.1331 156.782 71.2326 146.093 69.7236 143.534C67.4602 139.77 60.0662 104.994 54.1812 84.0677H78.6266Z" fill="#C159D8"/>
<path d="M125.871 169.343C127.415 169.849 128.418 170.296 128.996 170.779C129.689 171.36 130.632 172.346 131.709 173.641C131.03 174.448 125.016 181.599 113.666 195.093C111.332 194.122 110.583 192.905 111.437 191.655C112.292 190.405 113.049 189.27 113.613 188.366L117.546 174.559C117.624 174.232 117.934 174.098 118.165 174.291L120.365 174.954C121.912 174.284 122.92 173.555 123.502 172.863C123.987 172.286 124.435 171.285 124.748 169.976C124.596 169.455 125.215 169.187 125.871 169.343C125.756 169.246 125.756 169.246 125.871 169.343Z" fill="#DB8EEF"/>
<path d="M35.3192 195.774C35.9228 197.279 36.2246 198.333 36.2246 199.086C36.2246 199.989 36.0737 201.344 35.7719 203C34.7156 203 25.36 203 7.70502 203C6.95053 200.591 7.4032 199.236 8.91218 199.086C10.4212 198.935 11.7792 198.785 12.8355 198.634L25.9636 192.763C26.2654 192.612 26.5672 192.763 26.5672 193.064L27.4725 195.172C28.9815 195.924 30.1887 196.225 31.0941 196.225C31.8486 196.225 32.9049 195.924 34.1121 195.322C34.5647 195.021 35.1683 195.322 35.3192 195.774Z" fill="#DB8EEF"/>
<path d="M57.1993 192.914L26.2653 189.602L49.2017 84.0677H76.8159L57.1993 192.914Z" fill="#77057A"/>
<path d="M118.765 163.256L98.5452 187.193C77.2687 164.009 64.7442 148.803 61.2735 141.728C57.8029 134.652 54.4832 115.532 51.767 84.2184H82.8518C84.3608 111.769 85.417 126.071 86.0206 127.426C86.4733 128.63 97.4888 140.523 118.765 163.256Z" fill="#9E2DAD"/>
<path d="M69.8745 19.031C72.1379 16.3211 73.7978 13.0091 73.496 9.39594C72.7415 -1.29293 57.9536 1.11582 54.9356 6.53553C52.0686 11.9552 52.3704 25.5045 56.1428 26.5584C57.6518 27.01 60.8206 25.9562 63.9895 23.999L62.0278 38.3011H73.9487L69.8745 19.031Z" fill="#9E2DAD"/>
<path d="M60.368 7.13776C62.0279 8.04104 63.0842 9.69706 64.5932 11.9553C64.895 11.8047 65.3476 11.8047 65.6494 11.8047C67.3093 11.8047 68.6673 13.1597 68.6673 14.8157C68.6673 15.719 68.3656 16.4717 67.762 16.9233C68.5165 17.8266 69.2709 18.8805 70.1763 19.9343C73.4961 17.9772 77.2686 12.1058 74.0997 6.53557C71.3836 -4.60495 54.6339 2.32024 51.616 0.363123C50.8615 4.4279 52.974 7.73995 60.368 7.13776Z" fill="#DB8EEF"/>
<path d="M45.1272 19.181C45.1272 18.2777 43.4673 16.7723 43.0146 16.0195C41.6565 14.5141 39.9967 13.0086 37.8841 12.5569C36.3752 12.2558 33.2063 11.8042 33.0554 14.0624C33.0554 15.2668 34.5644 16.4712 35.3189 17.3744C36.0734 18.4283 36.5261 20.3854 37.4315 21.1381C38.3369 21.8909 41.5057 22.192 42.4111 21.4392" fill="#77057A"/>
<path d="M69.7236 32.4293C64.5931 31.9777 59.1608 35.7414 54.1812 33.0315C52.8231 32.2788 51.6159 30.9238 50.8614 29.5689C49.2015 26.8591 48.447 23.8481 46.7872 21.1383C45.7309 19.1811 44.5237 18.4284 42.1094 18.7295C39.9968 19.0306 37.7334 19.1811 35.6208 19.4822C34.7154 19.6328 40.4496 41.1611 41.204 43.2687C41.9585 45.5269 43.0148 47.7851 44.9765 49.2906C47.2399 51.0972 50.2578 51.6994 53.1249 51.3983C56.1428 51.0972 59.7644 50.1939 62.4805 48.6884C66.1021 46.5808 67.9128 43.1182 70.1763 39.6556" fill="#FCA306"/>
<path d="M33.6594 18.5795H31.245V16.9234H32.1504V15.7191H31.5468V15.418H33.3576V15.7191H32.754V16.9234H33.6594V18.5795Z" fill="#77057A"/>
<path d="M40.7515 16.9232V18.4287L38.488 18.5793V16.9232H39.2425V15.7188H38.7898V15.2672H40.4497L40.6006 15.7188H39.997V16.9232H40.7515Z" fill="#77057A"/>
<path d="M37.2808 18.5795H34.8664V16.9235H35.7718V15.7191H35.1683V15.418L36.9789 15.2675V15.7191H36.3754V16.9235H37.1299L37.2808 18.5795Z" fill="#77057A"/>
<path d="M1.06543 7.58911C3.47979 11.0517 11.93 16.9231 15.4007 17.6758C20.2294 18.7296 25.3599 18.1274 30.3396 18.278H46.0328C46.7873 18.278 47.5418 18.4285 48.2963 18.8802C49.0508 19.1813 49.6544 19.7835 50.1071 20.3856C50.5598 20.9878 50.7107 21.59 50.8616 22.1922H51.4652H51.767H52.5215V23.2461H51.767H51.4652H51.0125C51.0125 23.8482 51.0125 24.4504 50.7107 25.0526C50.258 26.5581 48.8999 27.7625 47.3909 28.2141C47.24 28.2141 46.9382 28.3647 46.7873 28.3647C46.6364 28.3647 46.3347 28.3647 46.1838 28.3647H45.882H45.5802H45.1275H43.1658C37.8844 28.3647 32.7539 28.3647 27.4725 28.3647L21.8892 28.2141H21.7384H21.5875C21.4366 28.2141 21.2857 28.2141 21.1348 28.2141C20.833 28.2141 20.5312 28.0636 20.2294 27.913C19.7767 27.6119 19.324 27.1603 19.0223 26.7086C18.8714 26.4076 18.7204 26.1065 18.7204 25.8054V25.6548C18.7204 25.6548 18.7204 25.5043 18.7204 25.3537V25.2032V25.0526C18.7204 24.9021 18.7204 24.9021 18.7204 24.9021C18.7204 24.2999 19.0222 23.6977 19.4749 23.2461C19.7767 22.7944 20.3803 22.4933 20.9839 22.3428C21.1348 22.3428 21.2857 22.3428 21.4366 22.1922C21.5875 22.1922 21.7383 22.1922 21.8892 22.1922H22.6437H25.36C27.1707 22.1922 28.9814 22.1922 30.9431 22.1922C34.5646 22.1922 38.3371 22.1922 41.9587 22.1922C43.7694 22.1922 45.5801 22.1922 47.5418 22.1922H49.2017C49.0508 21.8911 49.0508 21.59 48.7491 21.4395C48.1455 20.5362 47.2401 20.0846 46.1838 19.934H42.2604C40.9023 19.934 39.6952 19.934 38.3371 19.934C35.7718 19.934 33.0557 20.0846 30.4904 20.0846C25.5108 20.2351 20.5312 19.7835 15.7025 20.8373C14.7971 20.9878 13.5899 21.4395 12.2319 22.0417C8.45944 23.5472 3.78164 26.4076 1.21638 29.5691L1.06543 7.58911ZM47.3909 23.0955C45.5802 23.0955 43.7694 23.0955 41.8077 23.0955C38.1862 23.0955 34.4138 23.0955 30.7922 23.2461C28.9815 23.2461 27.1707 23.3966 25.209 23.3966H22.4929H21.8892C21.7383 23.3966 21.7384 23.3966 21.5875 23.3966C21.4366 23.3966 21.4366 23.3966 21.2857 23.3966C20.9839 23.5471 20.6821 23.6977 20.5312 23.9988C20.0785 24.4504 20.0785 25.3537 20.3803 25.8054C20.5312 26.1065 20.833 26.4076 20.9839 26.5581C21.1348 26.7086 21.2857 26.7086 21.4366 26.7086C21.5875 26.7086 21.5875 26.7086 21.7384 26.7086H21.8892H22.0402L27.6234 26.5581C32.9048 26.4076 38.0353 26.4075 43.3167 26.257H45.2783H45.7311H46.0328H46.1838C46.3347 26.257 46.3347 26.257 46.4856 26.257C46.6365 26.257 46.7873 26.257 46.7873 26.1065C47.6927 25.8054 48.5981 25.0526 48.8999 24.1493C49.0508 23.6977 49.0508 23.3966 49.0508 22.945L47.3909 23.0955Z" fill="#DB8EEF"/>
<path d="M52.6724 22.1919C52.8233 21.8908 53.1251 21.5897 53.5778 21.5897H54.3323V23.6974H53.5778C53.1251 23.6974 52.8233 23.5468 52.6724 23.2457V22.1919Z" fill="#77057A"/>
<path d="M1.05651 7.62081L1.24341 29.6007L0.187124 29.6096L0.000228945 7.62975L1.05651 7.62081Z" fill="#77057A"/>
<path d="M81.9465 86.4756H43.6186C52.3706 59.9793 57.1993 45.3761 57.3502 35.5906C57.3502 35.1389 58.2556 34.2356 58.7083 34.3862C61.7263 35.2895 64.4424 31.3752 67.913 29.8698C77.1177 44.3223 80.1358 62.388 81.9465 86.4756Z" fill="#FCA306"/>
<path d="M39.9968 32.2784C40.7513 31.2246 43.1656 30.6224 43.0147 28.5147C42.1093 28.6653 41.204 29.418 40.2986 28.8158C39.695 28.3642 38.9406 27.0093 39.6951 26.8587C41.0531 26.4071 43.9202 27.0093 45.731 26.7082C44.5238 23.8478 37.1297 23.095 35.0172 24.751C32.301 27.0093 32.4519 31.8268 33.5082 34.8377C34.5645 34.8377 35.6208 33.7839 36.828 33.3323C38.186 32.8806 39.3932 32.8806 39.9968 32.2784Z" fill="#9E2DAD"/>
<path d="M64.7441 29.7197C53.7286 29.8703 47.3909 67.3566 40.1479 32.279L33.3575 33.634C28.9814 74.4323 48.4472 75.0345 55.8411 65.2489C54.9357 83.4652 52.6723 98.821 65.8004 98.821C72.1381 98.821 78.9284 98.821 86.3224 98.821C89.6422 76.9916 81.041 46.7316 73.0435 31.5263C72.7417 30.9241 72.1381 29.8703 70.6291 29.8703C69.2711 29.7197 67.3094 29.7197 64.7441 29.7197Z" fill="#FCBF35"/>
<path d="M44.6748 18.1272C42.4113 15.8689 41.2042 11.9547 37.8844 11.0514C34.5647 10.1481 31.3958 11.3525 31.9994 15.1162C33.5084 15.5678 33.6593 13.6107 35.0173 13.4602C34.8664 13.9118 35.1682 14.8151 35.7718 14.9657C36.8281 15.2668 36.3754 14.0624 36.979 13.9118C38.0353 13.7613 39.2424 16.0195 39.9969 14.514C40.7514 14.6646 41.3551 15.7184 41.9587 16.17C42.7132 16.7722 43.7694 17.2239 44.6748 18.1272Z" fill="#9E2DAD"/>
<path d="M136.462 100.951L117.819 162.284L108.648 214.425H101.582L111.204 100.951H136.462Z" fill="#600566"/>
<path d="M143.227 100.951C142.024 134.556 143.377 152.037 143.678 155.051C143.979 158.065 147.888 177.956 157.059 215.479L149.541 212.918C134.958 178.559 129.997 160.626 128.343 156.106C126.689 151.585 122.179 133.2 114.962 101.102H143.227V100.951Z" fill="#77057A"/>
<path d="M157.059 212.767C157.66 214.274 157.961 215.328 157.961 216.082C157.961 216.986 157.811 218.342 157.51 220C156.458 220 147.136 220 129.546 220C128.794 217.589 129.245 216.233 130.749 216.082C132.252 215.931 133.605 215.781 134.658 215.63L147.738 209.753C148.038 209.602 148.339 209.753 148.339 210.054L149.091 212.013C150.594 212.767 151.797 213.068 152.699 213.068C153.451 213.068 154.503 212.767 155.706 212.164C156.157 212.013 156.758 212.164 157.059 212.767Z" fill="#DB8EEF"/>
<path d="M110.302 212.767C110.903 214.274 111.204 215.328 111.204 216.082C111.204 216.986 111.054 218.342 110.753 220C109.7 220 100.379 220 82.7888 220C82.0371 217.589 82.4882 216.233 83.9916 216.082C85.495 215.931 86.8481 215.781 87.9005 215.63L100.98 209.753C101.281 209.602 101.582 209.753 101.582 210.054L102.484 212.164C103.987 212.917 105.19 213.219 106.092 213.219C106.844 213.219 107.896 212.917 109.099 212.315C109.4 212.013 110.001 212.164 110.302 212.767Z" fill="#DB8EEF"/>
<path d="M139.017 100.951L131.049 132.145H106.693L110.302 100.951H139.017Z" fill="#C159D8"/>
<path d="M143.377 100.951C145.933 108.787 146.535 119.185 144.881 132.145H120.074L113.309 100.951H143.377Z" fill="#C159D8"/>
<path d="M130.899 36.755C133.154 34.0425 134.808 30.7272 134.507 27.1105C133.756 16.4112 119.022 18.8223 116.015 24.2473C113.008 29.6723 113.459 43.2349 117.218 44.2897C118.721 44.7418 121.879 43.687 125.036 41.7279L123.081 56.0439H134.958L130.899 36.755Z" fill="#600566"/>
<path d="M126.84 36.0015C128.343 38.8647 130.298 40.9744 132.402 40.9744C136.311 40.9744 139.017 35.7001 139.017 30.1244C139.017 29.9737 139.017 29.6723 139.017 29.5216C143.077 32.3848 146.234 37.9605 151.797 37.9605C159.164 37.9605 162.17 23.0417 151.797 23.0417C144.731 23.0417 141.273 24.0966 138.266 25.6035C137.664 23.9459 136.762 22.5896 135.71 21.5347C135.409 21.2334 135.109 20.932 134.507 20.6306C134.206 20.4799 133.906 20.3292 133.455 20.1785C131.651 19.5757 129.095 19.1236 126.088 18.9729C125.487 18.9729 125.036 18.9729 124.434 18.9729C124.434 16.2604 122.179 14 119.473 14C116.767 14 114.511 16.2604 114.511 18.9729C114.511 21.6854 116.616 23.7952 119.172 23.9459C120.676 24.3979 122.63 24.6993 124.735 24.85C124.584 25.6035 124.434 26.5077 124.434 27.5625C124.434 28.4667 124.584 29.3709 124.735 30.2751C125.186 29.6723 125.787 29.3709 126.389 29.3709C128.193 29.3709 129.395 30.8778 129.395 32.3848C129.546 34.4945 128.343 35.8508 126.84 36.0015Z" fill="#C159D8"/>
<path d="M171.341 119.638C171.492 119.186 171.341 118.583 170.89 118.281C170.289 117.98 169.688 117.98 169.387 118.583C169.086 119.035 169.237 119.788 169.688 120.241C170.139 120.542 170.74 120.542 171.041 120.09L172.093 120.843L172.394 120.391L171.341 119.638Z" fill="#9E2DAD"/>
<path d="M173.446 116.624C173.597 116.172 173.446 115.569 172.995 115.268C172.394 114.966 171.793 114.966 171.492 115.569C171.191 116.021 171.342 116.775 171.793 117.227C172.244 117.528 172.845 117.528 173.146 117.076L174.198 117.829L174.499 117.377L173.446 116.624Z" fill="#9E2DAD"/>
<path d="M175.852 113.459C176.002 113.007 175.852 112.404 175.401 112.103C174.799 111.801 174.198 111.801 173.897 112.404C173.596 112.856 173.747 113.61 174.198 114.062C174.649 114.363 175.25 114.363 175.551 113.911L176.603 114.665L176.904 114.213L175.852 113.459Z" fill="#9E2DAD"/>
<path d="M143.979 176.45C146.234 174.189 150.744 174.34 153.601 169.668C158.562 158.969 148.489 150.681 148.489 150.681C148.489 150.681 139.619 141.036 129.245 146.612C124.735 149.927 125.186 154.298 123.081 156.709C120.225 159.873 111.655 157.462 103.987 165.75C93.0122 177.655 107.746 191.218 109.099 192.423C110.452 193.78 124.735 207.644 136.011 196.04C143.979 187.903 140.972 179.464 143.979 176.45Z" fill="#FCBF35"/>
<path d="M179.761 126.57C179.46 126.118 178.859 125.967 178.408 126.269L177.656 125.214L177.355 125.515L178.107 126.57C177.806 127.022 177.806 127.474 178.107 127.926C178.558 128.378 179.159 128.529 179.761 128.228C180.061 127.776 180.212 127.022 179.761 126.57Z" fill="#9E2DAD"/>
<path d="M182.617 124.159C182.317 123.707 181.715 123.556 181.264 123.857L180.513 122.802L180.212 123.104L180.964 124.159C180.663 124.611 180.663 125.063 180.964 125.515C181.415 125.967 182.016 126.118 182.617 125.816C182.918 125.364 183.068 124.762 182.617 124.159Z" fill="#9E2DAD"/>
<path d="M185.774 121.747C185.474 121.295 184.872 121.144 184.421 121.446L183.67 120.391L183.369 120.692L184.121 121.747C183.82 122.199 183.82 122.651 184.121 123.104C184.572 123.556 185.173 123.706 185.774 123.405C186.075 122.953 186.075 122.199 185.774 121.747Z" fill="#9E2DAD"/>
<path d="M130.319 170.202C127.336 167.429 127.069 162.856 129.723 159.988C132.376 157.12 136.946 157.043 139.929 159.816C142.912 162.589 143.179 167.162 140.525 170.03C137.872 172.898 133.302 172.975 130.319 170.202Z" fill="#DB8EEF"/>
<path d="M175.1 127.323L170.439 122.953L133.906 159.723L140.371 165.901L175.1 127.323Z" fill="#77057A"/>
<path d="M131.643 168.751C129.512 166.77 129.341 163.482 131.261 161.408C133.181 159.333 136.464 159.257 138.595 161.237C140.726 163.218 140.897 166.506 138.977 168.581C137.057 170.655 133.774 170.732 131.643 168.751Z" fill="#9E2DAD"/>
<path d="M115.008 175.592L125.715 185.737L123.546 188.037L112.839 177.891L115.008 175.592Z" fill="#DB8EEF"/>
<path d="M184.121 119.939L175.1 127.323L170.439 122.953L177.205 113.61C178.107 112.404 179.911 111.952 181.264 112.706L183.369 113.911L184.722 116.021C185.624 117.227 185.323 118.884 184.121 119.939ZM175.401 120.994L179.61 116.021C179.911 115.569 179.911 115.117 179.46 114.665C179.009 114.364 178.558 114.364 178.107 114.816L173.897 119.789C173.597 120.241 173.597 120.693 174.048 121.145C174.499 121.446 175.1 121.446 175.401 120.994ZM182.768 119.035C183.068 118.734 183.219 118.131 182.768 117.679C182.467 117.377 181.866 117.227 181.415 117.679L176.603 122.2C176.303 122.501 176.152 123.104 176.603 123.556C176.904 123.857 177.506 124.008 177.957 123.556L182.768 119.035Z" fill="#DB8EEF"/>
<path d="M169.421 124.277L173.792 128.418L173.585 128.637L169.215 124.496L169.421 124.277Z" fill="#FCBF35"/>
<path d="M163.056 131.054L167.427 135.196L167.22 135.415L162.85 131.273L163.056 131.054Z" fill="#FCBF35"/>
<path d="M156.795 137.723L161.165 141.864L160.958 142.083L156.588 137.942L156.795 137.723Z" fill="#FCBF35"/>
<path d="M150.32 144.398L154.69 148.539L154.484 148.758L150.114 144.617L150.32 144.398Z" fill="#FCBF35"/>
<path d="M143.956 151.176L148.326 155.317L148.119 155.536L143.749 151.395L143.956 151.176Z" fill="#FCBF35"/>
<path d="M137.694 157.844L142.064 161.985L141.857 162.204L137.487 158.063L137.694 157.844Z" fill="#FCBF35"/>
<path d="M175.852 126.721L171.041 122.2L170.439 122.953L175.1 127.323L175.852 126.721Z" fill="#9E2DAD"/>
<path d="M170.784 123.103L171.003 123.31L117.795 179.692L117.577 179.485L170.784 123.103Z" fill="#F9F1FD"/>
<path d="M171.517 123.826L171.736 124.033L118.543 180.431L118.325 180.224L171.517 123.826Z" fill="#F9F1FD"/>
<path d="M172.255 124.536L172.473 124.743L119.296 181.156L119.078 180.949L172.255 124.536Z" fill="#F9F1FD"/>
<path d="M173.011 125.29L173.229 125.497L120.037 181.894L119.818 181.687L173.011 125.29Z" fill="#F9F1FD"/>
<path d="M173.758 126.021L173.976 126.228L120.784 182.626L120.565 182.419L173.758 126.021Z" fill="#F9F1FD"/>
<path d="M174.696 126.85L174.914 127.057L121.706 183.432L121.488 183.225L174.696 126.85Z" fill="#F9F1FD"/>
<path d="M115.719 177.74L123.476 185.09L122.753 185.857L114.996 178.507L115.719 177.74Z" fill="#9E2DAD"/>
<path d="M95.7183 91.1561L81.5859 104.869C77.5266 106.678 74.0688 108.486 71.5129 110.746C70.9115 111.5 70.3102 112.856 73.0164 112.253C75.7226 111.651 78.7294 111.199 79.1804 112.103C79.6315 113.007 78.128 114.363 79.1804 115.569C79.7818 116.322 82.0369 113.911 85.6452 108.034L100.229 99.4443L95.7183 91.1561ZM158.261 93.1152H147.888C154.353 113.911 157.81 124.912 158.261 126.117C159.464 128.981 156.908 133.351 156.006 135.611C159.464 137.118 159.013 131.542 163.373 133.501C165.628 134.556 164.726 135.912 165.027 137.721C165.328 140.132 168.936 138.173 169.838 137.269C170.59 136.515 173.897 132.145 172.243 131.09C168.635 128.528 165.478 126.117 164.877 124.761C163.674 122.953 161.569 112.404 158.261 93.1152Z" fill="#600566"/>
<path d="M128.644 49.4135L124.284 48.66C116.917 67.1955 103.987 84.0733 85.495 99.1428L99.477 116.171C117.969 94.622 129.395 72.3191 128.644 49.4135Z" fill="#DB8EEF"/>
<path d="M147.437 103.513H109.099C117.969 81.9638 122.329 63.579 122.329 48.3588L133.906 46.7012C143.077 61.3186 145.633 79.402 147.437 103.513Z" fill="#EDC4FC"/>
<path d="M134.206 46.7012H133.455C132.552 46.7012 131.199 46.8519 129.395 46.8519L126.539 54.8387C126.238 64.6339 124.584 84.2242 121.427 113.76H146.534C146.534 115.87 146.384 117.829 146.234 119.939H164.876C162.02 88.4436 151.797 64.0311 134.206 46.7012Z" fill="#DB8EEF"/>
<path d="M144.881 87.6904C144.129 100.349 142.325 109.24 139.469 113.911H146.535C146.835 104.87 146.234 96.1293 144.881 87.6904Z" fill="#C159D8"/>
<path d="M140.972 98.5403L128.493 92.8138V98.5403H140.972Z" fill="white" fill-opacity="0.2"/>
</svg>
