<svg width="489" height="201" viewBox="0 0 489 201" fill="none" xmlns="http://www.w3.org/2000/svg">
<path d="M58.6318 38.2177C56.8551 36.0944 55.7891 33.6173 55.7891 30.7863C56.4997 22.6472 67.8707 24.4165 70.0028 28.663C72.1349 32.9095 71.7795 43.1719 68.9368 43.8797C67.8707 44.2335 65.3833 43.5258 62.8959 42.1103L64.3173 53.0804H55.0784L58.6318 38.2177Z" fill="#9E2DAD"/>
<path d="M62.5405 32.9097C62.1851 32.9097 61.8298 32.5558 61.4744 32.5558C60.053 32.5558 58.987 33.6174 58.987 34.6791C58.987 35.0329 58.987 35.7407 59.3424 36.0946C58.6317 37.1562 58.2763 37.8639 58.2763 38.9256C56.4996 38.9256 49.7481 31.8481 56.4996 25.1244C63.2511 18.4008 73.5561 27.9554 70.7134 28.6632C68.9366 28.6632 65.3832 30.4326 62.5405 32.9097Z" fill="#600566"/>
<path d="M49.3931 94.1299L77.4652 141.549L98.7858 181.183H103.405L67.8709 94.1299H49.3931Z" fill="#9E2DAD"/>
<path d="M95.9427 179.414C95.5874 180.476 95.5874 181.537 95.5874 181.891C95.5874 182.599 95.5874 183.661 95.9427 184.722C96.6534 184.722 103.76 184.722 117.619 184.722C118.329 182.953 117.974 181.891 116.553 181.891C115.487 181.891 114.421 181.537 113.71 181.537L103.76 176.937C103.405 176.937 103.405 176.937 103.405 177.291L102.694 178.706C101.628 179.06 100.562 179.414 99.8515 179.414C99.1408 179.414 98.4302 179.06 97.3641 178.706C96.6534 178.706 96.2981 179.06 95.9427 179.414Z" fill="#DB8EEF"/>
<path d="M93.0999 174.813L101.984 171.982C98.0747 160.304 93.4553 147.919 87.7698 134.118C82.0843 120.317 76.0434 106.869 69.6473 94.1299H44.7732C51.8801 110.408 59.6976 125.271 67.5152 138.364C75.3328 151.811 83.861 163.843 93.0999 174.813Z" fill="#77057A"/>
<path d="M47.2606 94.1299C44.4179 110.762 39.4431 131.994 39.0877 132.702C38.7324 133.056 27.006 136.949 3.90869 144.38L4.97472 148.273C32.3362 144.38 46.9053 141.195 48.3267 139.072C50.4587 135.887 61.4744 110.054 65.7385 94.1299H47.2606Z" fill="#9E2DAD"/>
<path d="M12.0818 140.841L13.8585 147.211C34.4684 148.98 46.9055 147.565 51.5249 143.318C56.1444 139.072 61.4746 122.44 67.5154 94.1299H43.7074C39.7986 117.486 38.0219 129.517 37.3112 130.579C36.9558 131.641 28.4276 134.825 12.0818 140.841Z" fill="#9E2DAD"/>
<path d="M5.33016 142.61C4.26412 142.256 3.19809 142.256 2.84275 142.256C2.13206 142.256 1.06603 142.61 0 142.964C0 143.671 1.42138 150.749 3.90878 164.196C5.6855 164.55 6.75153 163.842 6.75153 162.781C6.75153 161.719 6.75153 160.657 6.75153 159.596L9.23894 148.979C9.23894 148.626 9.23894 148.626 8.88359 148.626H6.75153C6.04084 147.564 5.6855 146.856 5.6855 146.148C5.6855 145.441 5.6855 144.733 6.04084 143.671C6.04084 143.317 5.6855 142.61 5.33016 142.61Z" fill="#DB8EEF"/>
<path d="M58.2764 42.8176C62.5406 42.8176 64.3173 37.5095 66.8047 34.6785C68.5814 32.5553 71.4242 33.263 72.4902 30.432C74.6223 23.3545 68.5814 18.0464 60.7639 18.0464C52.9463 18.0464 47.6161 22.6468 46.5501 29.0165C45.4841 35.3863 50.4589 42.8176 58.2764 42.8176Z" fill="#600566"/>
<path d="M87.7698 84.2211L98.4301 94.8374C101.628 96.2529 104.116 97.6684 106.248 99.0839C106.603 99.7916 107.314 100.499 105.182 100.146C103.05 99.7916 100.918 99.4378 100.562 100.146C100.207 100.853 101.273 101.915 100.562 102.623C100.207 103.33 98.4301 101.207 95.5874 96.9606L84.2164 90.237L87.7698 84.2211ZM34.8236 74.6665H43.3518C36.9557 95.1913 33.7576 105.808 33.0469 106.869C32.3362 108.992 34.1129 112.531 34.8236 114.301C32.3362 115.362 32.3362 111.116 29.1381 112.531C26.2953 113.947 23.8079 116.424 20.2545 114.301C19.8992 113.947 19.1885 112.885 20.6098 112.177C23.4526 110.762 27.7167 107.223 28.0721 106.161C28.7827 104.746 31.2702 94.1296 34.8236 74.6665Z" fill="#9E2DAD"/>
<path d="M60.4084 51.3113L63.6065 50.6035C68.9367 69.005 95.5875 81.3906 97.0088 88.1143C97.7195 90.5914 95.9428 92.0069 96.6535 92.7146L92.3894 95.8995C91.6787 95.1918 90.2573 96.6073 86.7039 95.5456C83.8611 94.484 60.4084 72.8976 60.4084 51.3113Z" fill="#C159D8"/>
<path d="M65.7384 53.7872C65.3831 77.8507 79.2415 84.2205 76.3988 93.7751C73.9113 101.914 49.0373 110.407 44.7732 102.622C42.9964 99.4371 42.2858 95.5445 42.2858 91.298C41.2197 94.4828 40.1537 97.3139 39.7983 99.4371C38.7323 103.33 34.4682 104.037 34.4682 105.453L28.7827 104.037C29.138 101.914 26.6506 100.853 27.3613 96.2522C30.2041 75.3736 38.7323 60.157 52.5907 50.9562V48.833C52.5907 48.1252 53.3014 47.4175 54.3674 47.4175L64.6724 48.1252C65.3831 48.1252 66.0938 48.833 66.0938 49.8946L65.7384 53.7872Z" fill="#D16DEA"/>
<path d="M488.242 195.692C488.597 196.754 488.953 197.815 488.953 198.169C488.953 198.877 488.953 199.938 488.597 201C487.887 201 480.78 201 466.921 201C466.211 199.231 466.566 198.169 467.987 198.169C469.053 198.169 470.119 197.815 470.83 197.815L480.78 193.215C481.135 193.215 481.135 193.215 481.135 193.569L481.846 194.984C482.912 195.338 483.978 195.692 484.689 195.692C485.399 195.692 486.11 195.338 487.176 194.984C487.531 195.338 487.887 195.338 488.242 195.692Z" fill="#600566"/>
<path d="M229.552 139.78C236.421 139.78 241.989 134.235 241.989 127.395C241.989 120.554 236.421 115.009 229.552 115.009C222.683 115.009 217.115 120.554 217.115 127.395C217.115 134.235 222.683 139.78 229.552 139.78Z" fill="#FCA306"/>
<path d="M111.933 104.391C114.776 113.946 168.078 133.055 168.433 133.763C168.788 134.117 166.301 146.502 161.326 171.274L165.59 171.981C175.54 144.733 179.804 129.87 178.383 127.747C176.606 124.208 161.681 115.007 134.32 99.7908L111.933 104.391Z" fill="#D16DEA"/>
<path d="M161.326 166.319L168.433 167.381C179.093 148.626 181.581 134.117 179.449 127.747C177.672 123.5 163.103 113.946 135.386 99.7908L111.578 105.099C117.263 127.747 164.524 135.532 165.235 136.24C165.945 136.594 162.392 147.564 161.326 166.319Z" fill="#9E2DAD"/>
<path d="M159.904 170.921C159.194 171.983 158.838 173.045 158.838 173.399C158.838 174.106 158.838 175.168 158.838 176.583C159.549 176.583 167.367 177.645 181.936 179.768C182.646 177.999 182.646 176.937 181.225 176.583C179.804 176.23 178.738 175.876 178.027 175.876L167.722 169.86C167.367 169.86 167.367 169.86 167.011 169.86L165.945 171.275C164.524 171.629 163.813 171.983 162.747 171.629C162.036 171.629 161.326 171.275 160.26 170.568C160.615 170.568 159.904 170.568 159.904 170.921Z" fill="#77057A"/>
<path d="M114.776 99.438L93.4555 150.75L72.4902 193.923H77.465L131.477 99.438H114.776Z" fill="#D16DEA"/>
<path d="M72.1348 191.8C71.7794 192.862 71.4241 193.923 71.4241 194.631C71.4241 195.339 71.4241 196.4 71.7794 197.816C72.4901 197.816 80.3077 197.816 94.8767 197.816C95.5874 195.693 95.2321 194.631 93.8107 194.631C92.3893 194.631 91.3233 194.277 90.6126 194.277L79.9523 189.323C79.597 189.323 79.597 189.323 79.2416 189.677L78.5309 191.092C77.4649 191.8 76.3989 191.8 75.6882 191.8C74.9775 191.8 74.2668 191.446 73.2008 191.092C72.8454 191.092 72.1348 191.446 72.1348 191.8Z" fill="#77057A"/>
<path d="M74.2668 184.722L85.2825 186.845C93.8108 174.459 129.345 123.501 133.254 99.438H108.735C95.5875 116.778 82.4398 171.982 74.2668 184.722Z" fill="#C159D8"/>
<path d="M117.263 46.711C115.487 44.5877 114.065 41.7567 114.421 38.5718C115.131 29.725 127.213 31.8482 129.7 36.0947C132.188 40.3412 131.832 51.6652 128.634 52.7268C127.568 53.0807 124.725 52.373 122.238 50.6036L124.015 62.2815H114.065L117.263 46.711Z" fill="#D16DEA"/>
<path d="M122.594 39.6321C122.949 44.9403 124.015 47.4174 125.436 47.4174C127.924 47.4174 130.056 46.0019 131.122 46.0019C131.832 46.0019 131.832 47.0635 131.122 47.7713C130.766 48.479 128.634 48.8329 128.634 49.8945C128.634 50.9561 130.411 50.2484 130.411 50.6023C130.411 51.6639 130.766 53.0794 128.99 53.0794C127.568 53.0794 122.949 52.3716 121.883 50.2484C121.528 48.8329 121.172 45.648 120.817 40.6938H120.461C119.04 40.6938 117.974 41.7554 117.974 43.1709C117.974 43.8786 118.329 44.5864 118.685 44.9403C117.974 45.648 117.619 46.7096 116.908 47.4174C114.065 45.648 111.933 41.0476 114.776 36.4473C115.487 34.324 117.263 32.9085 119.04 32.5546C120.817 31.493 122.594 31.493 124.015 31.8469C126.858 32.2008 129.345 32.9085 130.056 33.2624C130.056 35.7395 129.7 36.8011 125.081 36.4473C124.015 37.5089 123.304 38.2166 122.594 39.6321Z" fill="#9E2DAD"/>
<path d="M148.178 86.3455L163.103 79.9757C165.59 77.4986 168.077 75.3754 170.565 73.9599C171.276 73.606 172.697 73.606 171.276 75.7292C169.854 77.4986 168.788 79.6219 169.144 80.3296C169.499 81.0374 171.276 80.3296 171.986 81.3912C172.342 82.099 169.854 83.1606 164.169 83.8684L152.798 92.3614L148.178 86.3455ZM87.7698 88.1149L96.2981 89.8842C87.7698 105.809 83.1503 113.948 82.795 115.009C81.3736 117.133 82.795 121.025 83.1503 123.148C80.3076 123.856 81.3736 119.256 77.4648 120.317C73.9114 121.025 71.0687 123.502 67.8706 120.317C67.5152 119.964 67.1599 118.902 68.5812 118.194C71.7793 116.779 77.1095 113.948 77.8202 112.886C78.5309 111.471 82.0843 103.331 87.7698 88.1149Z" fill="#D16DEA"/>
<path d="M119.395 56.6194L122.949 55.9116C130.766 63.343 133.964 81.3906 138.939 83.8677C143.914 85.991 150.666 83.8677 159.194 81.0367L161.681 86.6987C154.219 94.8379 138.228 101.561 131.832 97.6689C121.172 91.653 119.04 69.3589 119.395 56.6194Z" fill="#FCA306"/>
<path d="M103.76 101.207C117.974 101.207 128.634 101.207 135.386 101.207C136.807 101.207 136.452 99.0842 136.452 98.0226C133.964 85.9908 124.726 72.8975 124.726 55.5576L115.487 54.1421C107.669 66.5277 105.182 81.3905 103.76 101.207Z" fill="#EDC4FC"/>
<path d="M100.562 89.1749C94.1661 100.853 88.836 108.992 84.2165 114.3L77.8203 112.884C82.0844 86.6977 94.5215 67.2346 114.776 54.4951H118.329C126.502 82.0974 128.634 100.853 125.081 110.053H96.6535C97.0089 103.33 98.4302 96.2524 100.562 89.1749Z" fill="#FCBF35"/>
<path d="M384.837 17.6927C386.614 15.9233 387.68 13.4462 387.325 10.6152C386.614 2.82993 376.309 4.5993 374.177 8.49193C372.045 12.3846 372.4 21.9392 374.888 22.6469C375.954 23.0008 378.086 22.2931 380.573 20.8776L379.152 31.1399H387.68L384.837 17.6927Z" fill="#EDC4FC"/>
<path d="M391.944 69.0054L373.111 117.132L359.253 157.12L354.989 157.828L374.888 71.8364L391.944 69.0054Z" fill="#EDC4FC"/>
<path d="M361.029 156.765C361.385 157.826 361.74 158.534 361.74 159.242C361.74 159.949 361.74 160.657 361.385 162.073C360.674 162.073 353.922 161.719 341.13 161.719C340.775 159.949 341.13 158.888 342.196 158.888C343.262 158.888 344.328 158.534 345.039 158.534L354.633 154.641C354.988 154.641 354.988 154.641 354.988 154.995L355.699 156.411C356.765 156.765 357.476 157.118 358.187 157.118C358.542 157.118 359.608 156.765 360.319 156.411C360.674 156.057 361.029 156.057 361.029 156.765C361.029 156.411 361.029 156.765 361.029 156.765Z" fill="#C159D8"/>
<path d="M363.872 150.396L355.344 149.334C357.12 138.01 359.608 125.624 362.806 112.177C366.004 98.7298 369.557 85.2825 373.466 72.543L396.564 68.6504C392.299 84.9286 387.68 99.4375 381.995 112.885C376.309 126.332 370.624 138.718 363.872 150.396Z" fill="#9E2DAD"/>
<path d="M390.878 65.8198C398.696 79.2671 410.422 96.2531 411.133 96.6069C411.488 96.9608 423.214 96.2531 445.601 95.1914L445.956 99.0841C420.727 104.746 406.869 106.869 404.737 105.454C401.538 103.331 383.416 84.5752 374.177 71.8357L390.878 65.8198Z" fill="#EDC4FC"/>
<path d="M437.428 94.8377L438.139 101.207C420.727 109.7 409.356 112.531 403.67 110.408C397.985 108.285 388.035 95.5454 373.111 72.5436L394.076 64.7583C405.092 83.8675 411.133 93.776 411.843 94.4838C412.554 95.1915 421.082 95.1915 437.428 94.8377Z" fill="#C159D8"/>
<path d="M444.18 94.1289C445.246 93.4211 445.956 93.0672 446.312 93.0672C447.022 93.0672 447.733 92.7134 449.154 92.7134C449.154 93.4211 450.576 100.145 453.063 112.53C451.286 113.238 450.576 113.238 450.22 112.177C449.865 111.115 449.51 110.053 449.154 109.346L443.114 100.853V100.499L444.535 99.7909C444.89 98.7293 444.89 97.6676 444.89 97.3138C444.89 96.9599 444.535 96.2521 443.824 95.1905C443.824 94.8366 443.824 94.4828 444.18 94.1289Z" fill="#D16DEA"/>
<path d="M367.781 43.8793L358.897 35.7402C354.278 34.3247 352.146 33.6169 352.501 32.9092C353.212 31.8475 354.278 32.9092 354.989 32.2014C355.344 31.4937 354.633 29.7243 353.567 27.9549C352.501 26.1855 353.567 26.1855 354.278 26.5394C356.41 27.9549 358.187 29.7243 360.319 32.2014L372.756 38.925L367.781 43.8793ZM352.857 50.249C350.369 48.4797 348.237 47.418 346.46 46.7103C342.196 46.0025 340.775 44.9409 338.998 42.4638C337.932 41.0483 337.221 38.5712 337.932 37.8634C338.643 37.1557 342.196 39.9867 343.973 40.3405C345.75 40.6944 343.973 37.1557 345.039 37.5095C346.105 37.5095 347.171 38.925 347.882 41.756L353.212 44.587L352.857 50.249Z" fill="#EDC4FC"/>
<path d="M378.441 37.5089C374.177 37.5089 368.136 36.4473 362.095 32.5547L359.608 37.8628C363.872 42.1093 369.913 45.6481 375.243 45.2942C379.507 45.6481 381.639 40.6938 378.441 37.5089Z" fill="#D16DEA"/>
<path d="M372.756 46.3569C368.136 47.4185 360.319 46.003 349.658 42.4642C346.816 48.1262 345.75 52.0189 345.75 54.496C354.988 59.4502 363.161 61.5735 369.558 61.5735C369.202 65.4661 369.913 69.0049 371.334 72.5436C374.532 79.6211 393.721 72.8975 400.117 74.313C404.026 61.2196 396.208 55.9115 396.208 47.4185C396.208 38.2177 388.746 24.0627 387.68 24.0627H377.73C377.73 30.7864 374.888 38.5716 372.756 46.3569Z" fill="#DB8EEF"/>
<path d="M383.061 5.30812C378.797 3.89262 373.111 5.662 373.822 9.20075C374.177 11.324 377.02 12.3856 379.507 13.8011C379.863 13.0934 380.573 12.7395 381.284 12.7395C382.35 12.7395 383.416 13.8011 383.416 14.8627C383.416 15.2166 383.416 15.5705 383.061 15.9244C383.771 16.6321 384.482 17.6937 384.838 18.7554C386.259 18.7554 388.391 14.8627 387.68 10.9701C388.036 10.9701 388.036 10.9701 388.391 10.9701C391.234 10.9701 393.721 8.493 393.721 5.662C393.721 2.831 391.589 0 388.391 0C385.548 0 383.416 2.47712 383.061 5.30812Z" fill="#9E2DAD"/>
<path d="M453.774 110.762C453.063 119.963 408.645 147.565 408.645 148.273C408.645 148.627 413.265 159.597 422.504 180.829L418.595 182.245C404.381 159.597 397.63 147.211 398.34 144.734C399.406 141.195 410.777 129.871 432.809 110.762H453.774Z" fill="#D16DEA"/>
<path d="M421.438 175.874L415.041 177.997C401.538 163.135 396.564 150.749 397.274 144.379C397.985 140.133 409.356 128.809 431.387 110.407H454.129C453.419 131.994 412.199 148.272 411.843 148.98C411.488 150.041 416.818 159.242 421.438 175.874Z" fill="#FCA306"/>
<path d="M423.925 180.121C424.636 181.182 425.346 181.89 425.346 182.244C425.702 182.952 425.702 184.013 426.057 185.075C425.346 185.429 418.595 187.906 405.802 192.506C404.736 191.091 404.736 190.029 405.802 189.321C406.868 188.614 407.935 188.26 408.645 187.906L416.463 180.475C416.463 180.475 416.818 180.475 417.173 180.475L418.24 181.89C419.306 181.89 420.372 181.89 421.082 181.536C421.438 181.182 422.148 180.828 423.214 180.121C423.214 179.767 423.57 179.767 423.925 180.121Z" fill="#600566"/>
<path d="M448.799 110.762L468.698 157.828L487.887 197.815H483.268L433.164 110.762H448.799Z" fill="#D16DEA"/>
<path d="M486.11 189.321L475.805 191.091C467.988 179.413 434.941 132.347 431.387 110.407H454.129C466.211 126.332 478.648 177.643 486.11 189.321Z" fill="#FCBF35"/>
<path d="M446.667 63.3422C448.444 61.2189 449.51 58.7418 449.51 55.9108C448.799 47.7717 437.428 49.541 435.296 53.7875C433.164 58.034 433.519 68.2964 436.362 69.0042C437.428 69.358 439.915 68.6503 442.403 67.2348L440.981 78.2049H450.22L446.667 63.3422Z" fill="#D16DEA"/>
<path d="M438.849 49.1881C440.271 48.8342 442.048 48.8342 442.758 48.8342C442.403 47.7726 442.048 46.7109 442.403 45.6493C442.403 44.5877 443.114 43.5261 443.469 42.8183C443.824 42.4644 443.824 41.7567 444.18 41.4028C444.535 41.0489 444.89 40.6951 445.601 40.6951C445.956 40.6951 446.667 40.6951 447.022 40.6951C447.378 40.6951 447.378 40.6951 447.733 41.0489C448.088 41.0489 448.088 41.0489 448.088 40.6951C448.444 40.3412 449.154 40.3412 449.51 39.9873C450.22 39.9873 450.576 39.9873 451.286 40.3412C451.642 40.3412 452.353 40.6951 452.708 41.0489C452.708 41.4028 453.063 41.4028 453.063 41.7567C453.063 41.7567 453.063 41.7567 453.063 42.1106H453.419C454.129 42.4644 455.195 43.1722 455.551 43.8799C455.906 44.2338 455.906 45.2954 455.906 46.3571C455.906 47.4187 454.84 49.8958 454.129 50.9574C453.419 51.6652 452.353 52.3729 451.286 52.7268C451.997 53.4345 452.353 54.4962 452.708 55.5578C453.063 56.6194 453.419 57.6811 453.419 59.0966C453.419 60.1582 453.419 61.2198 453.419 62.2814C453.063 63.3431 452.708 64.0508 451.642 64.7585C451.286 65.1124 450.931 65.1124 450.22 65.4663C449.865 65.4663 449.51 65.8202 448.799 65.8202C448.088 65.8202 447.022 65.8202 446.312 65.4663C445.956 65.1124 445.956 64.7585 445.601 64.7585C445.601 64.7585 445.601 64.7586 445.601 64.4047L445.956 64.0508C446.667 63.3431 447.022 62.6353 447.022 61.9275C447.022 60.8659 447.022 59.8043 445.956 59.4504C444.89 59.0965 443.824 59.4504 442.758 60.1582C442.403 58.7427 441.692 57.3272 440.271 56.9733C438.849 56.2656 437.073 56.2656 435.651 55.5578C435.296 55.5578 434.941 55.2039 434.585 54.8501L434.23 54.4962C434.23 54.1423 434.23 54.1423 434.585 53.7884C435.296 51.6652 437.783 49.5419 438.849 49.1881Z" fill="#77057A"/>
<path d="M423.214 112.532L411.133 117.486C407.579 121.379 405.803 123.148 405.447 122.441C404.737 121.379 406.158 120.671 405.803 119.963C405.447 119.256 403.315 119.256 401.183 119.61C399.051 119.61 399.762 118.902 400.117 118.194C402.249 116.779 405.092 115.717 408.29 115.009L420.372 106.162L423.214 112.532ZM472.252 130.58C472.962 131.641 476.871 135.18 479.714 136.949C480.78 137.657 480.425 138.719 480.069 139.073C476.516 141.196 474.384 138.719 471.186 137.303C467.988 135.888 468.343 140.134 465.5 139.073C466.211 137.303 468.343 134.118 467.277 131.641C466.922 130.58 464.079 122.441 459.459 106.516H467.277C469.764 121.025 471.541 128.81 472.252 130.58Z" fill="#D16DEA"/>
<path d="M444.535 72.8967L441.337 72.189C429.255 82.8052 423.925 102.976 409 113.592L412.554 118.193C438.849 115.008 445.246 90.2366 444.535 72.8967Z" fill="#600566"/>
<path d="M459.104 114.301C445.956 114.301 436.006 114.301 429.966 114.301C428.544 114.301 428.9 112.531 428.9 111.47C431.032 100.146 439.915 88.1139 439.915 72.5434L448.444 71.1279C455.195 82.0981 457.682 95.8992 459.104 114.301Z" fill="#EDC4FC"/>
<path d="M458.749 81.7436C459.815 81.3897 460.881 80.6819 461.591 79.2664C464.79 73.6044 463.724 70.7734 460.17 69.7118C456.617 68.6502 453.774 70.7734 448.799 70.7734C448.444 70.7734 448.088 70.7734 448.088 70.7734H445.601C438.139 96.2524 436.007 113.238 439.205 121.731H462.302C463.724 124.916 464.79 127.393 466.211 129.871H472.607C472.963 111.115 468.343 95.1908 458.749 81.7436Z" fill="#77057A"/>
<path d="M457.327 108.993C456.616 115.009 455.55 119.255 453.774 122.086H462.302C460.525 118.547 459.104 113.947 457.327 108.993Z" fill="#600566"/>
<path d="M290.671 85.9911L278.234 86.6988C273.97 89.1759 271.482 90.2376 271.482 89.176C271.127 88.1143 272.548 87.7605 272.548 87.0527C272.548 86.345 270.416 85.6372 268.284 84.9295C266.152 84.2217 267.218 83.8678 267.929 83.514C270.416 83.1601 273.259 82.8062 276.457 83.1601L290.316 78.9136L290.671 85.9911Z" fill="#77057A"/>
<path d="M308.438 95.1912L296.001 184.014L300.266 182.952L310.571 140.841L325.85 90.5908L308.438 95.1912Z" fill="#77057A"/>
<path d="M302.042 182.245C301.687 181.891 301.332 181.891 300.976 181.891C299.91 182.245 299.2 182.599 298.844 182.599C298.133 182.599 297.423 182.599 296.357 181.891L295.646 180.475C295.646 180.121 295.291 180.121 295.291 180.475L286.052 185.43C285.341 185.43 284.275 185.784 283.209 186.137C282.143 186.491 281.788 187.199 282.498 188.968C295.291 188.261 302.398 187.907 303.108 187.553C303.108 186.137 303.464 185.43 303.108 184.722C302.753 184.014 302.398 183.306 302.042 182.245Z" fill="#DB8EEF"/>
<path d="M319.454 135.887C323.718 121.732 327.271 106.162 330.114 89.5298L307.017 95.5457C304.174 108.993 301.687 122.794 299.555 136.949C297.423 151.104 296.357 163.844 295.291 175.521L304.174 175.875C310.215 163.136 315.19 150.042 319.454 135.887Z" fill="#600566"/>
<path d="M308.083 95.1905C318.388 106.868 338.643 124.562 341.841 126.332C343.973 127.747 357.831 124.208 383.061 116.069L382.35 112.177C359.608 115.361 347.882 116.777 347.526 116.777C346.815 116.423 333.668 100.499 324.429 87.4053L308.083 95.1905Z" fill="#77057A"/>
<path d="M347.882 114.655C347.171 113.947 340.064 104.392 327.272 85.991L307.017 95.8995C324.074 117.84 335.445 129.871 341.13 131.641C346.816 133.41 358.187 129.518 375.243 119.255L374.177 112.885C357.476 114.655 348.592 115.363 347.882 114.655Z" fill="#77057A"/>
<path d="M380.573 111.47C380.218 111.824 380.218 112.178 380.573 112.532C381.284 113.24 381.639 113.947 381.995 114.655C382.35 115.363 382.35 116.071 381.995 117.486L380.573 118.548V118.902L387.325 127.041C387.68 127.749 388.035 128.456 388.391 129.518C388.746 130.58 389.812 130.58 391.234 129.518C387.68 117.132 385.903 110.763 385.548 109.701C384.127 109.701 383.416 110.055 382.705 110.055C382.35 110.409 381.639 110.763 380.573 111.47Z" fill="#DB8EEF"/>
<path d="M321.941 58.7418L313.413 59.4495L313.769 48.8333C311.636 50.6026 309.504 51.3104 308.083 51.3104C305.24 50.9565 304.174 41.048 305.596 36.8015C307.017 32.555 318.033 30.0779 319.099 37.5093C319.454 40.3403 318.743 42.8174 317.322 44.9406L321.941 58.7418Z" fill="#77057A"/>
<path d="M317.322 47.0653L316.256 43.1726C316.611 41.4033 316.256 40.3416 315.19 39.9878C314.124 39.6339 313.058 40.3416 312.347 42.111H311.281C310.926 40.6955 310.215 39.9878 309.504 39.6339C307.017 38.9261 305.596 39.6339 304.174 39.9878C302.042 35.0335 305.24 32.2025 311.281 30.787C315.19 30.0793 317.677 30.787 318.388 33.618C319.809 33.9719 320.875 34.6796 321.231 36.0951C321.941 38.2184 319.099 41.7571 318.388 46.7114L317.322 47.0653Z" fill="#EDC4FC"/>
<path d="M347.526 107.931C347.526 108.993 350.014 113.593 352.146 116.07C352.856 117.132 352.146 117.839 351.79 117.839C347.882 118.547 346.816 115.716 344.684 113.239C342.196 110.762 341.13 114.654 338.998 112.885C340.419 111.47 343.262 109.346 342.907 106.869C342.907 105.808 343.262 97.3146 344.328 81.7441L351.435 84.2213C348.592 98.7301 347.526 106.515 347.526 107.931Z" fill="#77057A"/>
<path d="M281.077 86.6978L279.3 81.3896C296.357 76.4354 307.372 60.1571 321.586 54.4951L324.429 55.9106C319.454 72.1889 305.596 92.3597 281.077 86.6978Z" fill="#D16DEA"/>
<path d="M319.81 53.0811L311.992 55.2043C313.413 70.4209 306.307 82.4527 305.24 93.4228C305.24 94.4844 305.24 96.2538 306.307 95.8999C312.347 95.1922 321.586 94.4844 334.023 93.0689C331.181 75.7291 327.627 62.9896 319.81 53.0811Z" fill="#EDC4FC"/>
<path d="M331.18 62.6348C332.246 62.2809 333.312 61.2193 333.668 60.1577C336.155 54.4957 334.734 51.6647 331.536 51.3108C328.337 50.6031 325.85 53.0802 320.875 53.4341C320.52 53.4341 320.52 53.4341 320.165 53.4341L317.677 53.7879C313.058 78.5592 312.702 95.1913 316.611 102.977C323.363 101.915 330.47 100.853 337.221 99.7917C338.642 99.4378 340.064 99.4378 341.485 99.0839C340.775 99.0839 338.998 94.4836 338.642 94.1297C337.932 92.3603 337.576 90.2371 336.866 88.4677C335.8 84.5751 336.155 83.8673 335.089 80.3286C336.51 81.3902 338.287 82.8057 339.353 84.2212C340.419 85.6367 340.775 87.7599 340.775 89.5293C340.775 92.7142 341.13 95.8991 341.13 99.0839C341.13 101.915 340.775 105.1 342.551 107.577L348.592 106.869C358.542 69.0046 343.617 70.7739 331.18 62.6348Z" fill="#DB8EEF"/>
</svg>
