<svg width="192" height="192" viewBox="0 0 192 192" fill="none" xmlns="http://www.w3.org/2000/svg">
<rect width="192" height="192" rx="12" fill="#0421B1"/>
<path d="M103.443 79.5887C103.24 78.2996 102.493 77.214 101.476 76.5355C101.204 76.332 100.865 76.1284 100.526 75.9927C99.9831 75.857 99.5082 75.7213 99.0333 75.5856C97.6763 75.4499 96.3193 75.7892 95.3016 76.8069C93.2662 78.9102 92.452 82.9811 91.9771 85.7629C91.1629 90.3087 90.3487 94.9224 89.5346 99.4682C88.2455 106.728 86.9564 113.988 85.7351 121.247C85.1923 124.572 85.1245 129.05 89.2632 129.932C89.331 129.932 89.331 129.932 89.3989 129.932C89.5346 130 89.7381 130 89.9417 130C90.0095 130 90.0095 130 90.0774 130C90.2809 130 90.4844 130 90.688 130C93.334 130 94.5553 128.032 95.3016 125.658C95.8444 123.894 96.048 121.858 96.3193 120.23C97.4049 114.259 98.4905 108.356 99.576 102.386C99.7117 101.707 99.7796 101.097 99.9153 100.418C100.526 96.89 101.204 93.3619 101.815 89.7659C102.29 86.8484 103.918 82.7775 103.443 79.5887Z" fill="#E8140F"/>
<path d="M103.647 71.6505C101.679 72.3968 99.2369 72.1933 97.7443 70.8363C93.9448 67.3761 96.9301 60.9305 102.154 62.1518C104.8 62.7624 106.972 65.612 106.497 68.3938C106.293 69.9543 105.14 71.1077 103.647 71.6505Z" fill="#E8140F"/>
<path d="M48.6222 102.861C49.0972 103.403 49.64 103.946 50.1149 104.489C54.9321 109.374 59.7493 114.259 64.6343 119.076C65.652 120.094 66.6697 121.112 67.891 121.722C69.1801 122.333 70.7406 122.537 71.9619 121.858C73.251 121.18 73.9294 119.619 73.9294 118.126C73.9294 116.634 73.3867 115.209 72.6403 113.92C69.7229 108.56 64.3629 105.032 60.6991 100.147C59.885 99.0611 59.1386 97.772 59.3422 96.415C59.4779 95.3973 60.1564 94.5831 60.8348 93.7689C65.3128 88.4767 70.2657 83.5917 75.6256 79.2494C77.1861 78.0281 78.9502 76.3319 78.4074 74.3643C78.0682 73.0073 76.5755 72.1253 75.1507 72.0575C70.0621 71.7182 64.3629 75.5856 60.9027 78.978C58.6637 81.217 56.6283 83.5917 54.4571 85.8985C52.4217 88.0018 49.9792 89.7659 48.1473 92.0727C46.7904 93.7011 45.7726 95.8044 46.044 97.9077C46.3833 99.8753 47.401 101.436 48.6222 102.861Z" fill="white"/>
<path d="M143.132 92.2763C142.657 91.7335 142.114 91.1907 141.571 90.6479C136.619 85.7629 131.666 80.8778 126.713 76.0606C125.695 75.0429 124.61 74.0251 123.32 73.4145C122.031 72.8038 120.403 72.6003 119.182 73.2788C117.893 74.0251 117.214 75.5856 117.214 77.0783C117.214 78.571 117.825 79.9958 118.571 81.2849C121.624 86.6449 127.052 90.173 130.784 95.0581C131.598 96.1437 132.412 97.4328 132.209 98.7897C132.073 99.8075 131.394 100.689 130.716 101.436C126.306 106.864 121.353 111.817 115.925 116.295C114.365 117.584 112.601 119.348 113.143 121.247C113.55 122.604 115.043 123.486 116.468 123.554C121.624 123.826 127.391 119.823 130.784 116.362C133.023 114.056 135.058 111.613 137.229 109.306C139.265 107.135 141.707 105.303 143.539 102.996C144.896 101.3 145.846 99.1968 145.642 97.0935C145.507 95.2616 144.421 93.7011 143.132 92.2763Z" fill="white"/>
</svg>
