<svg width="512" height="512" viewBox="0 0 512 512" fill="none" xmlns="http://www.w3.org/2000/svg">
<rect width="512" height="512" rx="12" fill="#0421B1"/>
<path d="M275.848 212.236C275.305 208.799 273.315 205.904 270.601 204.094C269.877 203.552 268.972 203.009 268.068 202.647C266.62 202.285 265.354 201.923 264.087 201.561C260.469 201.2 256.85 202.104 254.136 204.818C248.709 210.427 246.537 221.283 245.271 228.701C243.1 240.823 240.929 253.126 238.758 265.248C235.32 284.608 231.882 303.967 228.626 323.326C227.178 332.192 226.997 344.133 238.034 346.485C238.215 346.485 238.215 346.485 238.396 346.485C238.758 346.666 239.3 346.666 239.843 346.666C240.024 346.666 240.024 346.666 240.205 346.666C240.748 346.666 241.291 346.666 241.833 346.666C248.889 346.666 252.146 341.419 254.136 335.087C255.584 330.383 256.127 324.955 256.85 320.612C259.745 304.691 262.64 288.95 265.535 273.028C265.897 271.219 266.078 269.591 266.439 267.781C268.068 258.373 269.877 248.965 271.505 239.375C272.772 231.596 277.114 220.74 275.848 212.236Z" fill="#E8140F"/>
<path d="M276.391 191.068C271.144 193.058 264.63 192.515 260.65 188.897C250.518 179.669 258.479 162.481 272.41 165.738C279.466 167.366 285.256 174.965 283.99 182.383C283.447 186.544 280.371 189.62 276.391 191.068Z" fill="#E8140F"/>
<path d="M129.657 274.294C130.923 275.742 132.371 277.189 133.637 278.637C146.483 291.664 159.329 304.69 172.356 317.536C175.069 320.25 177.783 322.964 181.04 324.593C184.478 326.221 188.639 326.764 191.896 324.954C195.333 323.145 197.143 318.984 197.143 315.003C197.143 311.023 195.695 307.223 193.705 303.786C185.925 289.492 171.632 280.084 161.862 267.057C159.691 264.162 157.7 260.725 158.243 257.106C158.605 254.392 160.414 252.221 162.224 250.05C174.165 235.937 187.373 222.911 201.666 211.331C205.827 208.074 210.531 203.551 209.084 198.304C208.179 194.686 204.199 192.334 200.399 192.153C186.83 191.248 171.632 201.561 162.405 210.607C156.434 216.578 151.006 222.911 145.216 229.062C139.789 234.671 133.275 239.375 128.39 245.527C124.772 249.869 122.058 255.478 122.781 261.087C123.686 266.334 126.4 270.495 129.657 274.294Z" fill="white"/>
<path d="M381.683 246.07C380.416 244.623 378.969 243.175 377.521 241.728C364.314 228.701 351.106 215.674 337.898 202.828C335.184 200.114 332.29 197.4 328.852 195.772C325.414 194.143 321.072 193.601 317.815 195.41C314.378 197.4 312.568 201.562 312.568 205.542C312.568 209.522 314.197 213.322 316.187 216.76C324.329 231.053 338.803 240.461 348.754 253.488C350.925 256.383 353.096 259.821 352.553 263.439C352.192 266.153 350.382 268.505 348.573 270.495C336.813 284.97 323.605 298.177 309.131 310.119C304.97 313.556 300.265 318.26 301.713 323.326C302.798 326.945 306.779 329.297 310.578 329.478C324.329 330.202 339.708 319.527 348.754 310.3C354.725 304.148 360.152 297.635 365.942 291.483C371.37 285.693 377.883 280.808 382.768 274.657C386.387 270.133 388.92 264.525 388.377 258.916C388.015 254.031 385.12 249.869 381.683 246.07Z" fill="white"/>
</svg>
