<svg fill="none" height="200" viewBox="0 0 220 200" width="220" xmlns="http://www.w3.org/2000/svg"><path d="m143.875 102.767-28.91-38.2836h-93.1681l-20.77931 38.2836z" fill="#cabebb"/><path d="m128.398 70.1292-24.957 15.9232-17.1658-4.4043 26.6518-14.568z" fill="#b3a7a1"/><g fill="#87776f"><path d="m115.391 68.775-1.807-.4518-2.372 1.3552 1.694.4517z"/><path d="m118.672 69.3394-1.92-.4517-2.372 1.4681 1.92.3388z"/><path d="m122.062 69.9048-2.145-.4517-2.372 1.4681 2.146.4517z"/><path d="m125.336 70.5822-2.259-.5646-2.371 1.581 2.371.4517z"/><path d="m112.359 70.3564-1.807-.3388-2.371 1.2422 1.807.5647z"/><path d="m115.742 71.0337-2.033-.4517-2.371 1.3552 1.92.4517z"/><path d="m119.023 71.7115-2.145-.4517-2.259 1.3551 2.033.4518z"/><path d="m122.297 72.2769-2.259-.4517-2.258 1.4681 2.258.4517z"/><path d="m109.422 72.0494-1.807-.4517-2.484 1.3551 1.806.4518z"/><path d="m112.695 72.7271-1.919-.4517-2.372 1.3552 1.92.5646z"/><path d="m115.977 73.4049-2.033-.4518-2.372 1.4681 2.033.4517z"/><path d="m119.25 74.0826-2.146-.4517-2.371 1.4681 2.258.4517z"/><path d="m106.375 73.7447-1.807-.4517-2.371 1.3551 1.806.4518z"/><path d="m109.648 74.4224-1.919-.4517-2.372 1.3552 1.92.5646z"/><path d="m112.93 75.2131-2.033-.5647-2.259 1.4681 2.033.4518z"/><path d="m116.312 75.8902-2.258-.4517-2.259 1.3552 2.146.4517z"/><path d="m103.328 75.4371-1.807-.4517-2.3714 1.3551 1.8064.4517z"/><path d="m106.711 76.1148-2.033-.4517-2.371 1.3552 2.032.5646z"/><path d="m109.992 76.9048-2.032-.4517-2.372 1.3552 2.033.4517z"/><path d="m113.266 77.5826-2.146-.4517-2.259 1.4681 2.033.4517z"/><path d="m100.391 77.1311-1.9201-.5647-2.3716 1.3552 1.9198.5646z"/><path d="m103.664 77.8091-1.92-.4517-2.3712 1.3552 1.9202.5646z"/><path d="m106.945 78.5982-2.032-.4517-2.372 1.3551 2.033.5647z"/><path d="m110.219 79.3902-2.146-.4517-2.259 1.3551 2.146.5647z"/><path d="m97.3438 78.7135-1.8069-.4518-2.4846 1.3552 1.9199.5647z"/><path d="m100.617 79.6174-1.9197-.5647-2.3715 1.3552 1.9199.5647z"/><path d="m103.898 80.4078-1.919-.4517-2.372 1.2422 2.033.5647z"/><path d="m107.172 81.1968-2.033-.4517-2.258 1.3552 2.032.4517z"/><path d="m94.4062 80.4068-1.9199-.4517-2.4844 1.3552 2.0328.4517z"/><path d="m97.6797 81.3107-2.0328-.5646-2.3715 1.3552 2.0326.5646z"/><path d="m100.844 82.1011-1.92-.4517-2.3715 1.3552 2.0326.4517z"/><path d="m104.117 83.0031-2.033-.5646-2.2582 1.3551 2.0332.5647z"/><path d="m86.2752 81.6488v1.2423l17.0528 4.6301 25.07-15.9232v-1.4681l-24.957 15.9232z"/></g><path d="m80.5186 63.6924-1.1293 9.8249s9.2603 1.8069 15.9232-3.5008l-4.0655-7.9052z" fill="#b3a7a1"/><path d="m79.3906 73.518s-.6776-1.581-.4517-3.0491c.1129-1.4681.7905-6.6629.7905-6.6629l.9034-.2259z" fill="#87776f"/><path d="m109.993 62.9024.226-33.6534-52.626 1.9198 2.1456 40.4292z" fill="#9d8f88"/><path d="m107.962 61.4348.226-29.8137-47.0926 1.4681 1.8069 35.3473z" fill="#d2edfc"/><path d="m110.219 29.2483-1.92-.2258-50.7059 1.581-1.2424.1129 1.9199 40.3163 1.468.5646-2.1455-40.4292z" fill="#87776f"/><path d="m128.741 179.447c.564 1.468.79 2.597.79 3.388 0 .903-.113 2.258-.452 3.952-1.016 0-10.502 0-28.345 0-.7906-2.484-.339-3.726 1.242-3.952s2.936-.339 3.953-.565l13.213-5.872c.226-.113.564 0 .677.226l.791 2.032c1.468.678 2.71 1.017 3.614 1.017.79 0 1.806-.339 3.049-.904.677-.113 1.242.113 1.468.678 0-.113 0-.113 0 0z" fill="#9d8f88"/><path d="m205.195 124.449h-38.848l-5.082 62.338h57.821z" fill="#cabebb"/><path d="m205.195 124.449h-11.97l-7.115 62.338h32.976z" fill="#b3a7a1"/><path d="m122.078 113.721c-4.178-2.485-11.067.677-11.067 4.291 0 10.616 9.712 60.757 10.277 63.919.564 3.162 5.985 3.953 6.211 0 .452-6.324 1.468-28.346.452-38.509-.339-4.179-.791-8.244-1.243-11.745 5.082 9.147 12.987 22.36 23.603 39.526l5.759-2.598c-4.517-15.02-8.244-25.522-11.18-31.733-4.969-10.616-9.599-19.65-11.632-22.812-2.936-5.082-8.357-3.388-11.18-.339z" fill="#ffe0cb"/><path d="m155.836 160.135-19.876-47.092c-4.743-7.679-18.069 1.581-16.488 5.986 3.727 10.05 22.473 42.687 23.49 45.736z" fill="#5a483c"/><path d="m156.932 165.532c1.223.989 1.984 1.854 2.379 2.539.452.782 1.032 2.012 1.585 3.649-.88.508-9.095 5.251-24.548 14.173-1.927-1.757-2.157-3.058-.9-4.044 1.256-.987 2.373-1.762 3.14-2.466l8.507-11.692c.139-.211.489-.282.7-.143l1.701 1.365c1.61-.147 2.855-.475 3.637-.926.685-.396 1.396-1.197 2.189-2.307.433-.381 1.035-.467 1.61-.148 0 0-.056-.098 0 0z" fill="#5a483c"/><path d="m109.657 121.627c0 13.326 6.324 44.495 6.324 47.431h13.665c-2.033-27.781-2.711-41.785-2.146-42.123.903-.452 35.686 3.5 46.189 3.5 15.019 0 21.344-9.486 21.795-27.103h-29.813c-6.099.678-37.719 7.002-49.577 9.26-5.082.904-6.437 5.421-6.437 9.035z" fill="#5a483c"/><path d="m157.758 30.9433c1.355-3.2749 1.694-7.0017.339-10.3896-4.179-9.9379-17.617-2.9362-18.634 3.1621-1.016 6.0982 3.727 18.9723 7.567 18.7465 1.581-.113 4.291-2.0328 6.776-4.969l2.71 14.3422 11.406-3.9525z" fill="#ffe0cb"/><path d="m142.065 16.4879c1.355-1.0164 3.614-1.9198 4.63-2.1457-1.016-1.1293-1.694-2.4845-2.032-3.9526-.339-1.46807-.113-2.82324.113-4.17841.113-.67758.225-1.35517.451-1.91982.339-.56465.791-1.12931 1.355-1.4681.565-.33879 1.243-.56465 1.807-.67758h.904c.339 0 .339-.22587.564-.45173.339-.56465 1.017-1.016374 1.582-1.242235.677-.338793 1.355-.451725 2.145-.451725.678 0 1.468.112932 2.033.451725.226.11293.565.338792.791.564655.112.11293.112.11293.225.22586h.339c1.242 0 2.372.56465 3.275 1.4681.452.56465 1.017 1.58103 1.355 2.82327.339 1.24223.339 4.85599-.339 6.32409-.564 1.3552-1.693 2.4845-2.936 3.275 1.243.6776 2.259 1.8069 3.049 2.8233.904 1.2422 1.694 2.5974 2.259 3.9526.565 1.3551 1.129 2.8232 1.242 4.2913.113 1.3552-.226 2.5974-1.016 3.6138-.339.4517-.904.9035-1.355 1.2423-.452.3387-.904.7905-1.468 1.0163-1.017.5647-2.259.9035-3.275.3388-.339-.2258-.791-.4517-1.13-.7905-.113-.1129-.226-.2259-.113-.3388.113-.2258.226-.3388.339-.5646.565-1.0164.791-2.0328.565-3.1621s-1.017-2.4845-2.259-2.5974c-1.581-.1129-2.823 1.0164-3.726 2.0327-1.13-1.581-2.711-2.8232-4.631-3.162-2.145-.3388-4.178.3388-6.324.1129-.564 0-1.129-.1129-1.581-.3388-.226-.1129-.451-.3388-.564-.4517-.226-.2259-.113-.5647 0-.9034.225-1.2423 2.371-4.7431 3.726-5.7595z" fill="#ac5419"/><path d="m140.482 32.5244c.903 1.694-.113 3.9526.791 5.6465.79-.2258 1.468-.4517 2.258-.6775" fill="#ffe0cb"/><path d="m144.778 39.7526c.678-.1129 1.243-.5647 1.581-1.0164.339-.5646.565-1.2422.339-1.9198-.452.5647-.677 1.0164-1.016 1.4681-.226.4517-.565.9035-.904 1.4681z" fill="#87776f"/><path d="m142.961 30.2657c-.113-.3388-.452-.5646-.791-.5646-.338-.113-.677 0-1.016.1129s-.565.3388-.791.5647c-.225.2258-.338.6776-.225.9034.226-.2258.451-.3388.564-.5646.226-.113.452-.2259.678-.3388.226-.113.452-.113.677-.2259.339.1129.678 0 .904.1129z" fill="#87776f"/><path d="m141.16 32.5886c-.146-.276-.04-.6174.236-.7626s.618-.0392.763.2368.039.6174-.237.7626-.617.0392-.762-.2368z" fill="#87776f"/><path d="m147.486 86.8438-16.149-7.9052c-7.227.1129-10.728-.3388-10.389-1.3552.451-1.581 2.597-1.0163 3.049-1.9198.451-1.0163-1.694-3.275-3.84-5.4207-2.146-2.1456-.565-2.3715.452-2.2586 3.388 1.1293 7.002 2.9362 10.954 5.5336l20.328 4.4043z" fill="#ffe0cb"/><path d="m155.392 85.489c-7.34 2.3715-17.278 0-25.071-4.2914l1.243-8.6956c10.389 2.9362 18.972 1.9198 25.07.1129 5.534 3.0491 4.63 10.9543-1.242 12.8741z" fill="#d07409"/><path d="m119.584 81.9871-8.921-1.9198c-2.259-3.8397-4.178-5.5336-5.647-5.0819-1.355-.2259 2.259 4.4043-.113 4.6302-2.371.2258-8.8081-2.2587-9.4857-1.1294-1.0164 1.5811 1.2421 4.8561 3.2749 6.3242 3.7268 2.5974 6.2108 3.162 12.1968 3.0491 3.049 0 6.663.6776 10.728 2.0327z" fill="#ffe0cb"/><path d="m150.643 43.0265 14.004-4.0655c1.581-.4517 17.843 16.4879 21.683 29.4749 3.5 11.8577 16.713 16.1491 16.487 36.4771-9.712.903-34.105 17.955-41.671 9.486-3.614-4.179-5.872-9.148-7.228-14.7942-9.373 2.4842-21.569 2.8232-36.702-.2259-1.242-3.275-1.129-9.3732.339-18.4077 16.939.9035 28.458-.3388 34.444-3.8396.113-11.8578.79-23.9413-1.356-34.1051z" fill="#ea8003"/><path d="m.904694 102.767h142.970306v88.989h-142.970306z" fill="#9d8f88"/><path d="m56.5703 92.4907c-1.2422-1.4681-6.8887-11.1802-6.8887-11.1802s-19.876 2.8233-23.8285 3.275c0 0 3.6138 10.5026 5.4207 12.0836z" fill="#715f56"/><path d="m50.8125 89.4404c-1.4681-1.3552-8.9216-10.3896-8.9216-10.3896s-19.1982 4.6301-23.0379 5.4206c0 0 5.5337 10.0509 7.6794 11.4061z" fill="#eee7e5"/><path d="m94.9618 168.493c-8.4824 0-15.3586-.809-15.3586-1.807s6.8762-1.807 15.3586-1.807c8.4822 0 15.3582.809 15.3582 1.807s-6.876 1.807-15.3582 1.807z" fill="#5e5e5e"/><path d="m94.9618 168.492c8.4702 0 15.3582-.79 15.3582-1.806l-5.646 31.281s-3.275 2.033-9.9382 2.033c-6.7758 0-9.9378-2.033-9.9378-2.033l-5.1948-31.281c0 1.016 6.8888 1.806 15.3586 1.806z" fill="#e0e0e0"/><path d="m159.7 99.5957c-.516 5.5083.929 15.8013 10.844 12.9093 12.394-3.614 29.951-12.9093 35.631-12.9093" stroke="#fff" stroke-width="2.06557"/></svg>