<svg fill="none" height="200" viewBox="0 0 259 200" width="259" xmlns="http://www.w3.org/2000/svg" xmlns:xlink="http://www.w3.org/1999/xlink"><filter id="a" color-interpolation-filters="sRGB" filterUnits="userSpaceOnUse" height="150.719" width="146.64" x=".55875" y="25.2433"><feFlood flood-opacity="0" result="BackgroundImageFix"/><feColorMatrix in="SourceAlpha" result="hardAlpha" type="matrix" values="0 0 0 0 0 0 0 0 0 0 0 0 0 0 0 0 0 0 127 0"/><feOffset/><feGaussianBlur stdDeviation="2.06828"/><feComposite in2="hardAlpha" operator="out"/><feColorMatrix type="matrix" values="0 0 0 0 0 0 0 0 0 0 0 0 0 0 0 0 0 0 0.25 0"/><feBlend in2="BackgroundImageFix" mode="normal" result="effect1_dropShadow_25627_345929"/><feBlend in="SourceGraphic" in2="effect1_dropShadow_25627_345929" mode="normal" result="shape"/></filter><filter id="b" color-interpolation-filters="sRGB" filterUnits="userSpaceOnUse" height="141.543" width="133.867" x="13.6525" y="13.4923"><feFlood flood-opacity="0" result="BackgroundImageFix"/><feColorMatrix in="SourceAlpha" result="hardAlpha" type="matrix" values="0 0 0 0 0 0 0 0 0 0 0 0 0 0 0 0 0 0 127 0"/><feOffset/><feGaussianBlur stdDeviation="2.06828"/><feComposite in2="hardAlpha" operator="out"/><feColorMatrix type="matrix" values="0 0 0 0 0 0 0 0 0 0 0 0 0 0 0 0 0 0 0.25 0"/><feBlend in2="BackgroundImageFix" mode="normal" result="effect1_dropShadow_25627_345929"/><feBlend in="SourceGraphic" in2="effect1_dropShadow_25627_345929" mode="normal" result="shape"/></filter><path d="m230.141 79.5205-18.249 64.1355-13.32 47.286h-9.723l14.119-111.4215z" fill="#897ab4"/><path d="m235.071 79.5205c.4 33.0335 1.865 51.0825 2.331 54.0795.467 2.997 7.127 22.111 20.114 57.276h-10.057c-16.517-33.766-25.774-52.881-27.639-57.276-1.931-4.462-7.859-22.444-16.783-54.0795z" fill="#bcb1d4"/><path d="m258.375 200-.533-10.59h-10.589c-4.995 3.53-11.589 6.394-19.647 8.592v1.998h19.181l6.526-.999v.999z" fill="#5e5e5e"/><path d="m199.891 200-.533-10.59h-10.59c-4.995 3.53-11.588 6.394-19.647 8.592v1.998h19.181l6.527-.999v.999z" fill="#5e5e5e"/><path d="m223.679 19.3802c2.331-2.7306 3.863-6.0606 3.663-9.79017-.732-10.78921-15.784-8.39161-18.714-2.997-2.931 5.46117-2.598 19.24737 1.198 20.24637 1.532.3996 4.729-.5328 7.992-2.5308l-2.064 14.5189h12.121z" fill="#f9ba80"/><path d="m213.948 7.39248c1.665.9324 2.798 2.66402 4.196 4.92842.333-.1332.733-.1998 1.132-.1998 1.665 0 2.997 1.332 2.997 2.997 0 .8658-.333 1.5984-.932 2.1312.733.999 1.465 1.998 2.398 3.0636 3.33-1.998 6.993-8.1252 3.796-13.78622-2.731-11.32201-19.514-4.06258-22.511-5.927381-.666 4.062601 1.465 7.392581 8.924 6.793181z" fill="#946f5d"/><path d="m196.826 79.0534-11.123 16.5834c-3.729 2.5974-6.66 5.1952-8.791 7.8592-.466.799-.799 2.331 1.798 1.132 2.598-1.199 5.462-2.331 6.128-1.532.732.799-.533 2.464.666 3.463.799.666 2.397-2.264 4.861-8.791l12.721-11.5884zm-8.059-45.8209-20.18-6.0606c-3.796-2.9304-7.326-5.0617-10.656-6.4603-.999-.1998-2.065-.2664-.067 1.9981.533.5994 2.398 1.5984 2.997 2.3976.134.1998-.466.5994-.532.666-.467.3996-.533.4662-.666 1.0656-.067.4662-.6.666-.933.999-.599.666 0 1.332.133 2.0646.267 1.2654 1.532 1.5318 2.664 1.8648 2.065.5328 4.263.666 6.394.7992l15.718 9.2574z" fill="#f9ba80"/><path d="m206.95 39.7597c-2.531 18.3816-10.057 34.4989-22.711 53.0803l9.258 4.9284c16.583-14.2524 25.108-22.3777 24.708-38.6281-.066-4.0626-3.529-15.984-5.061-22.3776z" fill="#f38a87"/><path d="m217.701 58.1595c-.305-4.0517-4.46-15.7499-6.363-22.0428l-6.008 3.3545c-1.45 18.4982-8.02 35.0284-19.564 54.3188l9.53 4.378c1.872-1.6018 5.856-5.0791 6.814-6.1734" stroke="#fff" stroke-width="1.36797"/><path d="m237.984 87.2452h-38.827c8.791-26.8398 13.253-45.2215 13.453-55.2115 0-.5328.932-1.3985 1.398-1.2653 3.064.8658 6.327.5327 9.791-.9325 9.19 14.7187 12.387 32.9671 14.185 57.4093z" fill="#ffe2b8"/><path d="m222.204 29.8966c-11.322-.4232-29.782.8812-50.704-6.8172l-2.554 10.3472c15.55 10.9967 31.403 19.6977 45.687 19.1628-7.315 26.1674-7.985 47.8696 5.639 48.4606 6.507.282 13.557.588 21.08.914 4.298-22.3594-3.096-53.8505-10.616-69.9316-.312-.6248-.872-1.8035-2.431-1.8712-1.285-.1236-3.387-.2148-6.101-.2646.003-.0678.003-.0678 0 0z" fill="#fff"/><path d="m220.056 30.3265-.701.0268v-.0108c-1.658.043-3.467.1263-5.413.2159-10.932.5034-26.199 1.2064-43.452-3.9065l-1.703 9.0759c7.802 4.8612 16.277 9.6007 24.512 12.9841 8.388 3.4463 16.454 5.4553 23.275 4.812l.933-.088-.201.9156c-2.86 13.0359-4.821 24.3144-4.422 32.2956.199 3.9931.986 7.0588 2.457 9.102 1.437 1.996 3.583 3.0942 6.738 3.0523 3.064-.0406 6.412-.2488 9.903-.466l.387-.024c3.431-.2132 6.99-.429 10.512-.4932 2.727-21.8699-5.259-49.2807-14.964-66.2158-.354-.6172-.789-1.3695-1.885-1.355l-.018.0003-.018-.0007c-1.238-.0488-3.28-.0223-5.94.0795z" stroke="#f38a87" stroke-width="1.36797"/><path d="m207.285 12.5859c-.4 1.7982-1.732 2.9304-2.465 4.5288-1.198 2.7306.666 2.7972 2.664 3.663" fill="#f9ba80"/><path d="m208.614 12.1203c.733.1998 1.465.1998 2.065.333.666.1332 1.199.4662 1.665.999-.067-.333-.267-.7326-.533-.999s-.666-.4662-1.066-.5328c-.732-.0666-1.398 0-2.131.1998z" fill="#49230a"/><path d="m207.286 22.3107c.599.1332 1.265.0666 1.864-.0666.6-.1332 1.199-.3996 1.732-.5328l-.266-.333c-.333.5994-.866 1.0656-1.399 1.5984-.533.4662-1.066.999-1.465 1.5984.599-.4662 1.199-.8658 1.798-1.2654.599-.4662 1.132-.999 1.532-1.665.066-.1332 0-.2664-.067-.333-.066-.0666-.133-.0666-.2 0-.599.1998-1.132.4662-1.731.666-.6.1332-1.199.333-1.798.333z" fill="#49230a"/><path d="m209.807 14.6509c-.331 0-.6-.2683-.6-.5994 0-.331.269-.5994.6-.5994s.599.2684.599.5994c0 .3311-.268.5994-.599.5994z" fill="#49230a"/><g filter="url(#a)"><path d="m99.2624 29.3796-94.30125 21.5101c-3.38222 40.0259 26.06335 99.3723 40.40175 120.9363l97.6991-27.731c-36.894-49.1024-44.5721-96.9362-43.7996-114.7154z" fill="#f8f8f8"/></g><g filter="url(#b)"><path d="m116.441 17.6289-96.4083 7.7977c-9.0737 39.1303 11.5785 102.0794 22.6844 125.4724l100.6619-13.469c-29.49-53.875-30.246-102.3153-26.938-119.8011z" fill="#fff"/></g><g fill="#f7adab"><path d="m113.555 107.179c-5.51.604-10.952 1.343-16.462 2.082-5.4424.739-10.9521 1.613-16.3946 2.486-5.4424.941-10.8847 1.814-16.3271 2.822l-8.1302 1.545c-2.6876.537-5.4425 1.075-8.1301 1.679 2.7548-.268 5.5097-.671 8.2645-.94l8.1972-1.142c5.4424-.739 10.9522-1.613 16.3946-2.486 5.4424-.94 10.8849-1.814 16.3273-2.822 5.4424-1.007 10.8844-2.015 16.2604-3.224z"/><path d="m114.695 117.86c-5.509.605-10.952 1.344-16.4614 2.15-5.4424.806-10.952 1.68-16.3944 2.553-5.4424.941-10.8849 1.814-16.3273 2.889l-8.1301 1.545c-2.6877.538-5.4424 1.075-8.13 1.68 2.7548-.269 5.5095-.672 8.2643-1.008l8.1974-1.142c5.4424-.806 10.952-1.68 16.3944-2.553 5.4424-.941 10.8849-1.814 16.3273-2.889 5.3748-1.008 10.8178-2.015 16.2598-3.225z"/><path d="m115.773 128.475c-5.509.604-10.952 1.41-16.4613 2.217-5.4424.806-10.885 1.746-16.3946 2.552-5.4424 1.008-10.8849 1.882-16.3274 2.889l-8.1299 1.613c-2.6877.604-5.4426 1.142-8.1302 1.746 2.7548-.268 5.5097-.671 8.2645-1.007l8.1972-1.142c5.4425-.807 10.885-1.747 16.3947-2.621 5.4424-1.007 10.8847-1.881 16.3272-2.955 5.4428-1.008 10.8848-2.083 16.2598-3.292z"/><path d="m78.0156 31.8682c-3.1579.1343-6.383.4031-9.6081.739-3.2252.3359-6.3832.739-9.6083 1.0749-3.2252.4703-6.3831.8734-9.6083 1.4108l-4.8377.8062c-1.6126.3359-3.2251.6046-4.8377 1.0077 1.6126-.0672 3.1579-.2015 4.7704-.2687l4.7707-.4031c3.2251-.3359 6.3831-.739 9.6082-1.0749 3.2252-.4703 6.383-.8734 9.6082-1.4108 3.2923-.6047 6.5175-1.1421 9.7426-1.8811z"/><path d="m80.0938 42.4824c-3.158.1344-6.3832.4703-9.6083.8062-3.2252.3359-6.3832.8062-9.6083 1.1421-3.2252.4703-6.383.9405-9.6082 1.478l-4.8378.8734c-1.6126.3359-3.2251.6046-4.8377 1.0077 1.6126-.0672 3.2252-.2016 4.7706-.3359l4.7704-.4703c3.2252-.3359 6.3832-.8062 9.6083-1.1421 3.2252-.5374 6.3832-.9405 9.6083-1.478 3.2923-.5374 6.5175-1.0749 9.7427-1.8811z"/><path d="m80.7031 53.1641c-3.2251.1343-6.3829.4702-9.6081.8733-3.2251.3359-6.3831.8062-9.6082 1.2093-3.2252.5375-6.3831 1.0077-9.6083 1.5452l-4.8377.8733c-1.6125.3359-3.2251.6718-4.8376 1.0749 1.6125-.0671 3.225-.2015 4.7704-.3359l4.7706-.4702c3.2251-.3359 6.3831-.8062 9.6082-1.2093 3.2252-.5375 6.383-1.0077 9.6081-1.5452 3.2923-.6718 6.5175-1.2764 9.7426-2.0154z"/></g><path d="m89.9062 124.413 2.4566-8.353 9.3352 10.809v-10.809l6.387 3.931 7.37 4.422 2.456-11.792" stroke="#0202b2" stroke-width="1.47394"/></svg>