<svg fill="none" height="30" viewBox="0 0 28 30" width="28" xmlns="http://www.w3.org/2000/svg"><path clip-rule="evenodd" d="m14 .666504c7.36 0 13.3334 5.973336 13.3334 13.333296 0 6.3254-4.4134 11.6267-10.3254 12.992l-3.008 3.008-3.008-3.008c-5.91198-1.3653-10.325313-6.6666-10.325313-12.992 0-7.35996 5.973333-13.333296 13.333313-13.333296zm.2134 14.666696c-3.0378-.0046-5.96336 1.1471-8.18271 3.2213 1.95733 2.92 4.89601 4.7787 8.18271 4.7787 3.2853 0 6.2253-1.8574 8.1813-4.7787-2.219-2.0739-5.1441-3.2256-8.1813-3.2213zm-.2134-10.6667c-2.2091 0-4 1.79087-4 4 0 2.2091 1.7909 4 4 4 2.2092 0 4-1.7909 4-4 0-2.20913-1.7908-4-4-4z" fill="#000091" fill-rule="evenodd"/></svg>