<svg width="282" height="160" viewBox="0 0 282 160" fill="none" xmlns="http://www.w3.org/2000/svg">
  <rect width="282" height="158.63" transform="translate(0 0.629883)" fill="#009099"/>
  <path d="M230.626 114.812L236.036 67.1583L225.658 59.8354L223.302 63L189.37 38.7866L186.315 82.0249L230.626 114.812Z" fill="#006A6F"/>
  <path d="M230.348 114.692L231.746 71.123L186 38.6299L186.037 81.9049L230.348 114.692Z" fill="#62DBE5"/>
  <path d="M222.088 117.756L227.498 70.1024L217.119 62.7795L214.764 65.9073L180.831 41.7307L177.777 84.969L222.088 117.756Z" fill="#006A6F"/>
  <path d="M222.088 117.756L223.449 74.1501L177.703 41.6938L177.777 84.9689L222.088 117.756Z" fill="#62DBE5"/>
  <path d="M212.961 121.841L218.334 74.2236L207.992 66.8639L205.637 70.0286L171.668 45.8152L168.65 89.0534L212.961 121.841Z" fill="#006A6F"/>
  <path d="M203.907 78.6763L207.403 45.2633L173.434 20.1299L169.864 54.0213L203.907 78.6763Z" fill="white"/>
  <path d="M162.688 48.7222L168.65 89.0533L212.961 121.841L208.875 82.7976L162.688 48.7222Z" fill="#62DBE5"/>
  <path d="M204.091 96.2661L172.367 73.2302C172.367 73.2302 169.717 91.7031 164.969 99.5412C160.222 107.379 149.733 115.549 147.414 116.689L178.66 140.13C178.66 140.13 191.357 131.924 195.994 123.571C200.595 115.254 203.833 104.141 204.091 96.2661Z" fill="white"/>
  <path d="M200.631 98.069L189.149 89.679C189.149 89.679 187.529 102.853 184.843 106.275L196.178 114.518C196.178 114.481 199.086 109.035 200.631 98.069Z" fill="#FA7659"/>
  <path d="M179.911 135.457C175.311 132.623 170.894 129.532 166.478 126.404C162.098 123.239 157.755 120.038 153.597 116.579C158.197 119.412 162.613 122.503 167.03 125.631C171.409 128.833 175.752 132.034 179.911 135.457Z" fill="#FA7659"/>
  <path d="M182.708 132.513C178.255 129.79 173.949 126.809 169.716 123.828C165.484 120.811 161.289 117.683 157.24 114.371C161.693 117.094 165.999 120.038 170.232 123.056C174.501 126.11 178.696 129.201 182.708 132.513Z" fill="#FA7659"/>
  <path d="M187.677 126.882C184.364 125.042 181.236 123.018 178.108 120.884C175.016 118.75 171.962 116.542 169.054 114.113C172.366 115.953 175.495 117.977 178.623 120.111C181.751 122.246 184.769 124.453 187.677 126.882Z" fill="#FA7659"/>
  <path d="M190.216 123.718C185.836 121.068 181.604 118.198 177.445 115.291C173.287 112.347 169.165 109.329 165.19 106.091C169.57 108.741 173.802 111.611 177.961 114.518C182.119 117.499 186.241 120.479 190.216 123.718Z" fill="#FA7659"/>
  <path d="M192.35 121.031C188.744 118.897 185.321 116.578 181.935 114.15C178.549 111.721 175.237 109.256 172.072 106.532C175.678 108.63 179.101 110.985 182.487 113.414C185.873 115.842 189.185 118.308 192.35 121.031Z" fill="#FA7659"/>
  <path d="M194.633 117.388C190.253 114.739 186.021 111.868 181.862 108.961C177.703 106.017 173.581 103 169.606 99.7617C173.986 102.411 178.218 105.281 182.377 108.189C186.536 111.132 190.658 114.15 194.633 117.388Z" fill="#FA7659"/>
  <path d="M181.42 103.552C180.353 103.037 179.359 102.411 178.365 101.786C177.371 101.16 176.415 100.498 175.458 99.7985C174.501 99.0993 173.581 98.4002 172.698 97.6642C171.777 96.9282 170.894 96.1554 170.084 95.3091C171.152 95.8243 172.145 96.4498 173.139 97.0754C174.133 97.701 175.09 98.3634 176.047 99.0625C177.003 99.7617 177.924 100.461 178.807 101.197C179.69 101.933 180.573 102.706 181.42 103.552Z" fill="#FA7659"/>
  <path d="M182.745 99.9458C181.751 99.4306 180.794 98.8786 179.837 98.2898C178.88 97.701 177.997 97.0387 177.077 96.4131C176.194 95.7507 175.311 95.0883 174.427 94.3524C173.581 93.6532 172.734 92.9172 171.961 92.1077C172.955 92.6228 173.912 93.1748 174.869 93.7636C175.826 94.3524 176.709 95.0148 177.629 95.6403C178.512 96.3027 179.396 96.9651 180.279 97.701C181.125 98.4002 181.935 99.1362 182.745 99.9458Z" fill="#FA7659"/>
  <path d="M184.107 95.935C183.076 95.4566 182.082 94.9046 181.126 94.3526C180.169 93.7639 179.212 93.1751 178.292 92.5495C177.372 91.9239 176.452 91.2616 175.568 90.5624C174.685 89.8632 173.802 89.1641 172.992 88.3545C174.023 88.8329 175.016 89.3848 175.973 89.9368C176.93 90.5256 177.887 91.1144 178.807 91.7399C179.727 92.3655 180.647 93.0279 181.53 93.7271C182.414 94.4262 183.297 95.1254 184.107 95.935Z" fill="#FA7659"/>
  <path d="M184.953 92.292C183.923 91.7768 182.929 91.1881 181.936 90.5625C180.942 89.9369 180.022 89.3113 179.065 88.649C178.145 87.9866 177.225 87.2874 176.305 86.5515C175.421 85.8155 174.538 85.0795 173.729 84.2332C174.759 84.7483 175.753 85.3371 176.746 85.9627C177.74 86.5883 178.66 87.2138 179.617 87.8762C180.537 88.5386 181.457 89.2377 182.377 89.9737C183.261 90.7097 184.144 91.4824 184.953 92.292Z" fill="#FA7659"/>
  <path d="M185.321 129.863C180.978 127.103 176.783 124.159 172.624 121.105C168.502 118.051 164.417 114.96 160.479 111.611C164.822 114.371 169.017 117.315 173.176 120.369C177.335 123.423 181.42 126.551 185.321 129.863Z" fill="#FA7659"/>
  <path d="M203.575 50.5621C202.067 49.6421 200.631 48.6853 199.196 47.7286C197.761 46.7718 196.325 45.7415 194.927 44.7479C193.528 43.7176 192.13 42.6872 190.731 41.62L188.67 40.0009C188.008 39.4489 187.308 38.8969 186.646 38.345C187.382 38.7866 188.118 39.2649 188.854 39.7433L191.026 41.1785C192.461 42.1352 193.896 43.1656 195.295 44.1591C196.693 45.1895 198.092 46.2199 199.49 47.287C200.852 48.3542 202.251 49.4213 203.575 50.5621Z" fill="#FA7659"/>
  <path d="M203.024 56.6706C200.853 55.2723 198.755 53.8371 196.657 52.3652C194.559 50.8932 192.498 49.3845 190.4 47.9126C188.339 46.367 186.279 44.8951 184.218 43.3127L181.163 40.9944C180.169 40.1849 179.139 39.4121 178.145 38.6025C179.212 39.3017 180.28 40.0377 181.347 40.7369L184.512 42.908C186.61 44.3799 188.671 45.8886 190.768 47.3606C192.829 48.9061 194.89 50.3781 196.951 51.9604C198.976 53.4691 201.037 55.0515 203.024 56.6706Z" fill="#FA7659"/>
  <path d="M202.325 63.0001C200.374 61.7857 198.497 60.4978 196.583 59.2098C194.67 57.9219 192.829 56.5972 190.952 55.2724C189.112 53.9477 187.235 52.5861 185.432 51.2246L182.709 49.1639C181.825 48.4647 180.905 47.7655 180.022 47.0295C180.979 47.6183 181.936 48.2807 182.893 48.9063L185.726 50.8198C187.64 52.1077 189.48 53.4325 191.357 54.7572C193.198 56.082 195.074 57.4435 196.878 58.8051C198.718 60.1666 200.521 61.5281 202.325 63.0001Z" fill="#FA7659"/>
  <path d="M201.515 69.1821C199.196 67.7102 196.914 66.1646 194.633 64.6559C192.351 63.1104 190.106 61.528 187.824 59.9825C185.579 58.3634 183.334 56.781 181.126 55.1619L177.814 52.6964C176.709 51.85 175.605 51.0405 174.538 50.1941C175.716 50.9301 176.857 51.7028 177.998 52.4388L181.42 54.7571C183.702 56.3026 185.947 57.885 188.229 59.4305C190.474 61.0497 192.719 62.632 194.927 64.2511C197.135 65.8335 199.343 67.4894 201.515 69.1821Z" fill="#FA7659"/>
  <path d="M87.1987 77.7664L96.3592 109.943L103.058 133.645H107.924L100.825 77.7664H87.1987Z" fill="#58C5CF"/>
  <path d="M84.7373 77.7664C84.5083 94.3697 83.8212 103.358 83.5922 104.904C83.3632 106.393 79.9852 116.011 73.5156 133.645H78.5539C86.8556 116.698 91.4358 107.137 92.4091 104.904C93.3824 102.671 96.3596 93.6255 100.825 77.7664H84.7373Z" fill="#62DBE5"/>
  <path d="M73.0576 138.225L73.2866 132.901H78.6111C81.1303 134.676 84.3937 136.107 88.4587 137.195V138.225H78.8402L75.5768 137.71V138.225H73.0576Z" fill="#006A6F"/>
  <path d="M102.371 138.225L102.6 132.901H107.925C110.444 134.676 113.707 136.107 117.772 137.195V138.225H108.154L104.89 137.71V138.225H102.371Z" fill="#006A6F"/>
  <path d="M91.2067 45.9337C90.0617 44.5596 89.2601 42.8993 89.3746 41.01C89.7754 35.6282 97.2756 36.7732 98.7642 39.5214C100.253 42.2695 100.081 49.1971 98.1343 49.6552C97.39 49.8269 95.7869 49.3689 94.1266 48.3956L95.1572 55.6667H89.0884L91.2067 45.9337Z" fill="#FFCAA7"/>
  <path d="M96.5807 36.5442C95.7792 36.3152 94.5769 36.2007 94.0616 36.2579C94.3479 35.5709 94.4624 34.8266 94.3479 34.025C94.2334 33.2807 93.9471 32.651 93.6036 32.0212C93.4891 31.7349 93.3173 31.4486 93.0883 31.2196C92.8593 30.9906 92.573 30.8189 92.2295 30.7616C91.886 30.7044 91.5425 30.7044 91.2562 30.7616C91.0845 30.8189 90.9699 30.8761 90.8554 30.8761C90.6837 30.9334 90.6264 30.8189 90.5119 30.7044C90.2829 30.4753 89.8822 30.3608 89.5959 30.3608C89.2524 30.3036 88.8516 30.3608 88.5081 30.4753C88.1646 30.5899 87.8783 30.7616 87.592 31.0479C87.4775 31.1624 87.363 31.3341 87.3058 31.4486C87.3058 31.5059 87.2485 31.5632 87.1912 31.5632C87.134 31.5632 87.0768 31.5632 87.0195 31.6204C86.447 31.7922 85.9317 32.2502 85.7027 32.8227C85.5309 33.1662 85.4736 33.7388 85.4736 34.3686C85.4736 34.9983 86.1034 36.7159 86.6187 37.3457C87.134 37.9182 87.821 38.2618 88.5081 38.4335C88.05 38.9488 87.7065 39.6358 87.4775 40.3229C87.2485 41.0672 87.0768 41.8114 87.0195 42.613C86.9623 43.3573 86.9622 44.1016 87.134 44.8459C87.3057 45.5329 87.6493 46.0482 88.2218 46.449C88.5081 46.6207 88.7943 46.7352 89.0806 46.8497C89.3669 46.9642 89.6531 47.0787 89.9394 47.136C90.5119 47.2505 91.1417 47.2505 91.5998 46.7925C91.7715 46.6207 91.9432 46.4489 92.0577 46.2199C92.115 46.1627 92.115 46.1054 92.0577 46.0482C92.0005 45.9909 91.886 45.8764 91.8288 45.8192C91.3708 45.4756 91.1417 44.9604 91.0845 44.3878C91.0272 43.8153 91.1989 43.0138 91.7715 42.7848C92.4585 42.4412 93.2601 42.842 93.8899 43.1855C94.1761 42.2122 94.6914 41.4107 95.5502 40.9527C96.5235 40.4946 97.6113 40.4374 98.5846 39.9794C98.8136 39.8649 99.0999 39.7503 99.2717 39.5213C99.3289 39.4068 99.4434 39.2923 99.5006 39.1778C99.5579 39.006 99.4434 38.8915 99.3862 38.777C99.0426 38.1473 97.4395 36.8304 96.5807 36.5442Z" fill="white"/>
  <path d="M94.5851 42.1161C94.3315 41.9858 94.0497 41.8575 93.7596 41.7779C93.3637 41.6692 92.9259 41.6438 92.5101 41.8481C92.139 42.0007 91.9177 42.3289 91.7977 42.6649C91.6762 43.0051 91.6452 43.3865 91.677 43.7042C91.7387 44.3215 91.9877 44.904 92.5054 45.2996L92.6078 45.4019L92.6512 45.4453C92.5581 45.611 92.4254 45.746 92.2643 45.9072C91.8988 46.2727 91.3812 46.2926 90.8297 46.1823C90.57 46.1304 90.3055 46.0254 90.0148 45.9091C89.7292 45.7949 89.4634 45.6881 89.1993 45.5306C88.6834 45.1673 88.3757 44.7064 88.2184 44.0789C88.0553 43.3707 88.0538 42.6557 88.1101 41.9237L88.1102 41.9223C88.1656 41.1467 88.3318 40.4228 88.5569 39.6907C88.7792 39.0248 89.1084 38.3725 89.5362 37.8911L89.8105 37.5826L89.41 37.4825C88.7608 37.3202 88.1238 36.9989 87.6498 36.4744C87.4198 36.191 87.1468 35.6387 86.9281 35.0602C86.8198 34.7737 86.7279 34.489 86.6634 34.2398C86.5977 33.9858 86.5649 33.7851 86.5649 33.6601C86.5649 33.0289 86.625 32.5112 86.7676 32.226L86.7722 32.2167L86.7761 32.2071C86.9762 31.7069 87.4314 31.3017 87.9327 31.1514L87.993 31.1333L88.0216 31.1047L88.0325 31.1047C88.1425 31.1047 88.2315 31.0522 88.288 30.9957C88.3302 30.9535 88.3702 30.8932 88.3877 30.8196C88.4395 30.7258 88.5277 30.5986 88.6101 30.5162C88.8691 30.2572 89.122 30.1062 89.4284 30.004C89.7461 29.8981 90.1043 29.8503 90.3961 29.8989L90.4165 29.9023H90.4372C90.6795 29.9023 91.0081 30.0043 91.1765 30.1726C91.1924 30.1886 91.2047 30.2021 91.2198 30.2186C91.228 30.2277 91.2371 30.2376 91.2481 30.2494C91.274 30.2772 91.3115 30.3162 91.3582 30.3496C91.4083 30.3853 91.4721 30.4172 91.5514 30.4285C91.6154 30.4377 91.6778 30.4317 91.7372 30.4162C91.819 30.4108 91.8926 30.3897 91.9547 30.369C91.9883 30.3578 92.0231 30.3451 92.056 30.333L92.0645 30.3299C92.0963 30.3183 92.1281 30.3067 92.1617 30.2953C92.4105 30.2479 92.7168 30.2476 93.0297 30.2997C93.3127 30.3469 93.5536 30.4886 93.7528 30.6879C93.9534 30.8885 94.1083 31.1442 94.2128 31.4055L94.2183 31.4193L94.2254 31.4324C94.5635 32.0522 94.8337 32.6518 94.9419 33.3533C95.0493 34.1073 94.9419 34.8058 94.6721 35.4533L94.509 35.8447L94.9305 35.7979C95.1607 35.7723 95.5684 35.7842 96.0284 35.8338C96.4825 35.8827 96.9661 35.9659 97.348 36.0745C97.733 36.2044 98.3169 36.5798 98.8612 37.018C99.1305 37.2349 99.3824 37.4609 99.5864 37.6691C99.7923 37.8795 99.9366 38.0588 100.006 38.185C100.023 38.2185 100.043 38.2513 100.058 38.2747C100.06 38.2783 100.062 38.2817 100.064 38.2849C100.081 38.3139 100.092 38.3325 100.099 38.349C100.106 38.364 100.107 38.3716 100.107 38.3746C100.107 38.3752 100.108 38.376 100.108 38.3772C100.09 38.4063 100.065 38.4411 100.027 38.4911L100.022 38.498C99.9871 38.5449 99.9394 38.6084 99.9019 38.6771C99.8444 38.7486 99.7646 38.8102 99.6642 38.8693C99.5859 38.9153 99.5087 38.9526 99.4255 38.9928C99.3905 39.0097 99.3545 39.0271 99.3168 39.0459C98.8567 39.262 98.3662 39.3854 97.8481 39.515L97.8374 39.5176C97.3291 39.6447 96.7939 39.7785 96.2851 40.018L96.285 40.0177L96.2739 40.0236C95.4283 40.4745 94.8995 41.2269 94.5851 42.1161Z" stroke="#FA7659" stroke-width="0.5"/>
  <path d="M99.4511 43.5291C99.4511 44.5596 100.539 45.4184 100.539 46.449C100.138 46.5635 99.6801 46.6207 99.2793 46.678" fill="#FFCAA7"/>
  <path d="M99.2791 48.1665C98.9356 48.281 98.5349 48.2238 98.2486 48.052C97.9623 47.8803 97.676 47.594 97.5615 47.2505C97.905 47.4222 98.1341 47.5368 98.4203 47.7085C98.6493 47.823 98.9356 47.9375 99.2791 48.1665Z" fill="#7A380C"/>
  <path d="M97.6765 43.071C97.6193 42.8992 97.7338 42.6702 97.9055 42.5557C98.02 42.4412 98.249 42.3839 98.4208 42.3267C98.5925 42.3267 98.7643 42.3267 98.9361 42.3839C99.1078 42.4412 99.2223 42.6129 99.2796 42.7847C99.1078 42.7274 98.9933 42.7274 98.8216 42.6702C98.7071 42.6702 98.5353 42.6702 98.4208 42.6702C98.3063 42.6702 98.1918 42.7274 98.02 42.7274C97.9628 42.8992 97.791 42.9564 97.6765 43.071Z" fill="#7A380C"/>
  <path d="M98.8209 44.0442C98.979 44.0442 99.1072 43.916 99.1072 43.7579C99.1072 43.5998 98.979 43.4717 98.8209 43.4717C98.6628 43.4717 98.5347 43.5998 98.5347 43.7579C98.5347 43.916 98.6628 44.0442 98.8209 44.0442Z" fill="#7A380C"/>
  <path d="M109.986 69.5217L119.146 65.514C120.749 63.9109 122.295 62.7086 123.784 61.8498C124.242 61.7353 124.986 61.6781 124.185 62.8804C123.383 64.0827 122.582 65.3422 122.868 65.8003C123.211 66.201 124.127 65.743 124.528 66.4301C124.757 66.8881 123.211 67.4034 119.776 68.0331L112.906 73.3004L109.986 69.5217Z" fill="#FFCAA7"/>
  <path d="M92.1798 51.2582L94.3553 50.8574C99.1073 55.4949 101.054 66.5448 104.26 68.0333C107.237 69.4074 111.531 68.0906 116.57 66.2585L118.115 69.6937C113.535 74.6747 103.745 78.8542 99.7944 76.4495C93.4393 72.7281 91.9507 59.0446 92.1798 51.2582Z" fill="#62DBE5"/>
  <path d="M82.6758 78.7396C91.4355 78.7396 97.9051 78.7396 102.027 78.7396C102.886 78.7396 102.772 77.48 102.6 76.793C101.111 69.3501 95.386 61.3346 95.386 50.7428L89.8324 49.884C85.1949 57.3269 83.5918 66.4874 82.6758 78.7396Z" fill="white"/>
  <path d="M80.7294 71.2393C76.7789 78.3387 73.4582 83.4915 70.7673 86.5831L62.1602 74.9955C64.7938 58.7929 76.8934 57.6131 89.3746 49.9412H89.4318H91.5501C96.5312 67.0026 97.9625 78.3959 95.6724 84.064H78.2675C78.6682 79.8845 79.5271 75.5333 80.7294 71.2393Z" fill="#62DBE5"/>
  <path d="M70.5923 81.9387L79.8673 113.829L84.2185 137.818H88.5698L84.2185 81.9387H70.5923Z" fill="#CB7A43"/>
  <path d="M66.4127 81.9387C67.0425 98.5421 66.8135 107.531 66.6417 109.077C66.47 110.565 65.6684 120.642 60.0576 138.333H64.5806C71.9663 121.386 74.5999 111.31 75.4015 109.077C76.2603 106.844 78.7794 97.7978 82.4435 81.9387H66.4127Z" fill="#CB7A43"/>
  <path d="M83.0406 134.247C77.222 110.518 73.0816 93.1663 70.674 82.1887H84.0327C87.4701 93.6694 89.4491 109.791 89.0113 134.247H83.0406Z" fill="white" stroke="#FA7659" stroke-width="0.5"/>
  <path d="M66.9947 134.533H60.6646C65.6209 114.833 67.2726 98.6421 66.672 82.1887H83.2317C79.6403 101.898 74.3588 118.023 66.9947 134.533Z" fill="white" stroke="#FA7659" stroke-width="0.5"/>
  <path d="M59.4854 141.596L59.7144 137.531C61.203 137.989 63.035 137.818 65.2107 137.016C67.6153 138.676 70.5925 139.822 74.1994 140.451C74.4857 140.509 74.6574 140.738 74.6002 141.024V141.081L74.2567 142.283H65.2107H59.9434L59.4854 141.596Z" fill="#161616"/>
  <path d="M83.2456 141.596L83.4746 137.531C84.9632 137.989 86.7953 137.818 88.9709 137.016C91.3755 138.676 94.3527 139.822 97.9596 140.451C98.2459 140.509 98.4177 140.738 98.3604 141.024V141.081L98.0169 142.283H88.9709H83.7037L83.2456 141.596Z" fill="#161616"/>
  <path d="M72.8245 50.0487C71.6794 48.6746 70.8778 47.0143 70.9923 45.1249C71.3931 39.7432 78.8933 40.8882 80.3818 43.6364C81.8704 46.3845 81.6987 53.3121 79.7521 53.7702C79.0078 53.9419 77.4047 53.4839 75.7444 52.5106L76.7749 59.7817H70.7061L72.8245 50.0487Z" fill="#CB7A43"/>
  <path d="M72.3668 51.3083C71.6225 47.9303 69.4469 45.6402 69.7904 44.0944C70.0194 43.0638 70.5919 42.434 71.5652 42.205C72.0805 40.2012 73.6836 39.3424 76.3745 39.6286C80.4395 40.0867 82.9014 41.747 81.8135 45.4684C80.8402 45.4684 79.6379 45.1249 78.0349 45.6975C77.5196 45.8692 77.1188 46.499 76.947 47.4723H76.2028C75.4585 46.27 74.7714 45.8692 74.0844 46.1555C73.3973 46.499 73.2256 47.2433 73.6264 48.4456L73.2828 51.251H72.3668V51.3083Z" fill="#49220A"/>
  <path d="M81.1836 47.8733C81.4127 48.6176 81.5844 49.4191 81.6989 50.1634C81.8134 51.0222 81.7561 51.4802 80.7256 51.3657" fill="#CB7A43"/>
  <path d="M80.2104 47.3006C79.9242 47.2433 79.6951 47.186 79.4661 47.1288C79.2371 47.1288 78.9508 47.1288 78.6646 47.0715C78.7791 47.0143 78.8936 46.957 79.0654 46.8998C79.1799 46.8425 79.3516 46.8425 79.5233 46.8425C79.7524 46.8998 80.0387 47.0715 80.2104 47.3006Z" fill="#49220A"/>
  <path d="M79.8093 48.4456C79.999 48.4456 80.1528 48.2918 80.1528 48.1021C80.1528 47.9123 79.999 47.7585 79.8093 47.7585C79.6196 47.7585 79.4658 47.9123 79.4658 48.1021C79.4658 48.2918 79.6196 48.4456 79.8093 48.4456Z" fill="#49220A"/>
  <path d="M80.7256 52.5679C80.4966 52.6824 80.2104 52.7396 79.9241 52.6251C79.6378 52.5106 79.5233 52.2816 79.3516 52.1099C79.4661 52.1099 79.6378 52.1671 79.7523 52.2244C79.8668 52.2816 79.9813 52.3389 80.0958 52.3961C80.2103 52.4534 80.4966 52.4534 80.7256 52.5679Z" fill="#49220A"/>
  <path d="M90.2872 77.8735L97.8446 83.4271C99.9057 83.9996 101.623 84.6867 102.997 85.4882C103.341 85.7745 103.742 86.4042 102.368 86.2897C100.994 86.1752 99.5622 86.118 99.3905 86.576C99.2187 87.034 100.02 87.6066 99.6194 88.2363C99.3904 88.6371 98.1881 87.6066 96.0698 85.1447L88.5696 82.053L90.2872 77.8735ZM61.1454 78.0453H66.1264C63.0347 87.9501 61.4317 93.2174 61.1454 93.7899C60.5729 95.164 61.7752 97.2251 62.2332 98.3701C60.6302 99.1144 60.8019 96.4235 58.7408 97.3396C56.8515 98.1984 55.4774 99.8015 53.3018 98.4274C53.0155 98.2556 52.7292 97.6258 53.4735 97.1678C55.2483 95.9655 57.7675 93.8471 58.111 93.1601C58.569 92.3013 59.5996 87.263 61.1454 78.0453Z" fill="#CB7A43"/>
  <path d="M75.287 57.2053L77.3481 56.8618C84.9628 63.4459 88.1117 76.0988 97.4439 82.7975L95.2111 85.6028C78.9512 83.599 74.9434 68.1407 75.287 57.2053Z" fill="#FA7659"/>
  <path d="M66.2983 83.0265C74.5428 83.0265 80.6116 83.0265 84.5048 83.0265C85.3636 83.0265 85.1919 81.8242 85.0774 81.1944C83.7033 74.2095 78.2642 66.6521 78.2642 56.7473L72.9969 55.9458C68.6457 62.9307 67.1571 71.5186 66.2983 83.0265Z" fill="#64ECF8"/>
  <path d="M66.4699 62.8161C65.7256 62.5871 65.0958 62.0718 64.6378 61.2703C62.7484 57.8351 63.4355 55.8885 65.4393 55.2587C67.5004 54.6289 69.3325 55.9457 72.5959 55.9457C72.7677 55.9457 72.9395 55.9458 73.1112 56.003L74.7716 56.1175C79.4663 72.0911 80.7831 82.7402 78.6648 88.0647H64.3515C63.4927 90.0686 62.6912 91.7289 61.8896 93.0457H57.9964C57.5956 81.1371 60.4583 71.0606 66.4699 62.8161Z" fill="#FA7659"/>
  <path d="M67.4434 79.8203C67.9014 83.599 68.6457 86.3472 69.619 88.0075H64.2944C65.325 85.7174 66.3555 83.0265 67.4434 79.8203Z" fill="#FA7659"/>
  <path d="M60.4433 64.9764C62.5044 63.8314 65.8823 62.4955 66.7411 62.6863L62.7334 68.6979L63.3059 70.4155L59.5844 72.7056C58.4394 71.5605 57.8669 66.4078 60.4433 64.9764Z" fill="#62DBE5"/>
  <path d="M63.5919 77.2857C61.7598 76.3696 60.5384 73.6596 60.1567 72.4191L62.7331 70.4153C63.0194 70.6061 63.8209 71.2168 64.737 72.1329C65.882 73.2779 65.882 73.8505 65.5958 73.8505C65.3095 73.8505 63.5919 73.2779 63.8782 73.8505C64.1072 74.3085 65.3095 76.5223 65.882 77.5719C65.882 77.8582 65.424 78.2017 63.5919 77.2857Z" fill="#FFCAA7"/>
  </svg>
