<svg fill="none" height="56" viewBox="0 0 56 56" width="56" xmlns="http://www.w3.org/2000/svg"><rect fill="#2d9cdb" height="56" rx="12" width="56"/><path clip-rule="evenodd" d="m23.3337 24.6665c0-2.5733 2.0933-4.6667 4.6666-4.6667 2.5734 0 4.6667 2.0934 4.6667 4.6667 0 2.1067-1.4133 3.8707-3.3333 4.4493v1.5507c0 .7373-.596 1.3333-1.3334 1.3333-.7373 0-1.3333-.596-1.3333-1.3333v-2.6667c0-.7373.596-1.3333 1.3333-1.3333 1.1027 0 2-.8973 2-2s-.8973-2-2-2c-1.1026 0-2 .8973-2 2 0 .7373-.596 1.3333-1.3333 1.3333s-1.3333-.596-1.3333-1.3333zm3.3333 10c0-.7373.596-1.3333 1.3333-1.3333.7374 0 1.3334.596 1.3334 1.3333s-.596 1.3333-1.3334 1.3333c-.7373 0-1.3333-.596-1.3333-1.3333zm1.3333 4c-5.8813 0-10.6666-4.7853-10.6666-10.6667 0-5.8813 4.7853-10.6666 10.6666-10.6666 5.8814 0 10.6667 4.7853 10.6667 10.6666 0 5.8814-4.7853 10.6667-10.6667 10.6667zm0-24c-7.352 0-13.3333 5.9813-13.3333 13.3333s5.9813 13.3334 13.3333 13.3334 13.3334-5.9814 13.3334-13.3334-5.9814-13.3333-13.3334-13.3333z" fill="#fff" fill-rule="evenodd"/></svg>