<svg fill="none" height="56" viewBox="0 0 57 56" width="57" xmlns="http://www.w3.org/2000/svg" xmlns:xlink="http://www.w3.org/1999/xlink"><clipPath id="a"><path d="m.666992 0h56v56h-56z"/></clipPath><g clip-path="url(#a)"><path d="m53.1663 7h-48.99996c-1.28866 0-2.33333 1.04467-2.33333 2.33333v30.33337c0 1.2886 1.04467 2.3333 2.33333 2.3333h48.99996c1.2887 0 2.3334-1.0447 2.3334-2.3333v-30.33337c0-1.28866-1.0447-2.33333-2.3334-2.33333z" fill="#fff"/><path d="m25.167 42h7v7h-7z" fill="#0a54bf"/><g stroke="#428edd" stroke-linecap="round" stroke-linejoin="round" stroke-width="2.33333"><path d="m53.1663 7h-48.99996c-1.28866 0-2.33333 1.04467-2.33333 2.33333v30.33337c0 1.2886 1.04467 2.3333 2.33333 2.3333h48.99996c1.2887 0 2.3334-1.0447 2.3334-2.3333v-30.33337c0-1.28866-1.0447-2.33333-2.3334-2.33333z"/><path d="m15.8086 49h25.6667"/></g></g></svg>