<svg width="259" height="176" viewBox="0 0 259 176" fill="none" xmlns="http://www.w3.org/2000/svg">
<path d="M215.908 160.839H158.125L158.16 56.3395L186.954 0L215.908 16.8247V160.839Z" fill="#06508C"/>
<path d="M79.7849 57.2541C81.4144 57.2541 158.16 57.2014 158.16 57.2014V161.062L80.1609 160.964L79.7849 57.2541Z" fill="#6BB8DC"/>
<path d="M79.9301 61.4089L157.894 61.4089L157.894 56.8889L79.9301 56.8889L79.9301 61.4089Z" fill="#06508C"/>
<path d="M186.954 0H108.99L80.1609 57.2542L158.16 57.2014L186.954 0Z" fill="#F77B0B"/>
<path d="M186.954 0L158.161 57.2014H156.868L185.575 0H186.954Z" fill="#F45F0C"/>
<path d="M179.433 0L150.403 57.2014H148.248L177.052 0H179.433Z" fill="#F45F0C"/>
<path d="M170.784 0L141.999 57.2014H139.629L168.528 0H170.784Z" fill="#F45F0C"/>
<path d="M162.261 0L133.381 57.2014H131.01L159.88 0H162.261Z" fill="#F45F0C"/>
<path d="M153.612 0L124.783 57.2542H122.402L151.356 0H153.612Z" fill="#F45F0C"/>
<path d="M145.089 0L116.134 57.2542H113.753L142.707 0H145.089Z" fill="#F45F0C"/>
<path d="M136.565 0L107.611 57.2542H105.229L134.184 0H136.565Z" fill="#F45F0C"/>
<path d="M127.917 0L98.9625 57.2542H96.7063L125.535 0H127.917Z" fill="#F45F0C"/>
<path d="M119.393 0L90.4389 57.2542H88.0574L117.012 0H119.393Z" fill="#F45F0C"/>
<path d="M110.745 0L81.7907 57.2542H79.7852L108.99 0H110.745Z" fill="#F45F0C"/>
<path d="M131.017 160.323V115.161C131.017 105.266 122.639 97.4006 112.485 97.4006C102.33 97.4006 93.9529 105.266 93.9529 115.161V160.323H131.017Z" fill="#06508C"/>
<path d="M96.5388 160.323H128.431V116.407C128.431 107.875 121.23 100.849 112.485 100.849C103.74 100.849 96.5388 107.875 96.5388 116.407V160.323Z" fill="#88C6E3"/>
<path d="M215.908 16.8247L186.954 0L185.7 2.51115L215.908 18.8336V16.8247Z" fill="#F45F0C"/>
<path d="M197.674 99.197L207.702 99.197L207.702 87.3946L197.674 87.3946L197.674 99.197Z" fill="#6BB8DC"/>
<path d="M80.7552 171.903C84.1212 172.474 87.9724 172.113 91.5506 172.384C94.2191 172.595 96.7057 173.136 99.3439 173.406C101.982 173.677 105.105 173.647 107.016 172.835C108.229 172.324 108.775 171.602 109.108 170.881C109.927 169.137 109.806 167.303 111.17 165.619C112.201 164.356 114.051 163.213 115.143 161.95C116.234 160.688 116.386 159.124 114.294 158.102C111.746 156.869 106.955 156.989 103.589 157.801C100.223 158.613 97.6761 159.906 94.583 160.898C91.5809 161.86 88.124 162.522 84.8793 163.334C81.3617 164.206 76.9344 165.619 75.7215 167.363C74.5691 169.107 76.7828 171.211 80.7552 171.903Z" fill="#C1E3F2"/>
<path d="M3.58145 164.807C1.38524 166.441 0.598539 168.14 0.205187 169.711C-0.155385 171.217 -0.188164 172.755 1.35246 173.749C2.99143 174.806 6.10546 175.095 9.15393 175.319C15.4476 175.8 22.3312 176.088 29.8049 174.678C37.3113 173.268 45.4078 169.646 46.424 166.281C47.2762 163.525 43.3755 161.922 40.4909 160.192C36.2952 157.66 32.2961 156.25 22.6262 157.884C16.562 158.942 7.38385 162.019 3.58145 164.807Z" fill="#88C6E3"/>
<path d="M50.1316 158.129C49.5185 158.391 49.0121 158.682 48.5856 159.06C45.6803 161.563 43.388 164.706 41.3622 167.441C40.2428 168.955 39.603 170.672 40.5093 172.243C40.7758 172.679 41.149 173.116 41.7621 173.465C42.7483 174.018 44.2143 174.251 45.627 174.338C51.7842 174.775 57.888 173.349 64.0719 173.349C68.3366 173.349 72.9212 173.989 76.6795 172.883C80.6244 171.719 82.197 168.693 80.0646 166.539C78.9185 165.375 76.946 164.531 75.0269 163.716C70.7622 161.883 66.4708 159.555 61.8063 158.071C58.3945 156.936 53.2502 156.819 50.1316 158.129Z" fill="#DDF2F9"/>
<path d="M67.7556 125.92L72.1761 130.207C73.4603 130.75 74.5222 131.366 75.3371 132.006C75.51 132.228 75.7322 132.647 74.8432 132.475C73.9789 132.277 73.0651 132.13 72.8923 132.401C72.7194 132.672 73.2133 133.115 72.917 133.485C72.7194 133.731 72.0279 132.943 70.8919 131.144L66.2986 128.433L67.7556 125.92ZM46.1718 122.026L49.5798 122.051C46.9868 130.454 45.6038 134.84 45.4309 135.235C45.0605 136.122 45.8261 137.477 46.1718 138.216C45.1099 138.685 45.2334 136.935 43.8751 137.551C42.6404 138.118 41.7266 139.153 40.319 138.266C40.1461 138.167 39.9486 137.748 40.4178 137.452C41.5538 136.664 43.2084 135.284 43.4306 134.84C43.7517 134.224 44.6654 129.961 46.1718 122.026Z" fill="#1E9ED1"/>
<path d="M56.5686 112.366L57.9269 112.145C60.0507 119.636 70.9413 124.737 71.6328 127.521C71.8798 128.556 71.1389 129.074 71.5093 129.37L69.7559 130.651C69.4596 130.306 68.8175 130.947 67.5087 130.503C66.1998 130.06 56.5686 121.238 56.5686 112.366Z" fill="#F45F0C"/>
<path d="M53.4568 130.947L59.1861 150.562L61.8532 165.299H64.545L61.8532 130.947H53.4568Z" fill="#1E9ED1"/>
<path d="M50.9134 130.947C51.3085 141.149 51.1603 146.693 51.0615 147.63C50.9627 148.566 50.4688 154.752 47.0115 165.619H49.8021C54.3707 155.195 55.9512 149.01 56.4945 147.63C57.0131 146.25 58.5689 140.705 60.8162 130.947H50.9134Z" fill="#1E9ED1"/>
<path d="M53.3333 130.947C54.815 137.699 57.3833 148.468 61.0382 163.278H64.9895C65.2858 148.073 64.0511 138.093 61.9026 130.947H53.3333Z" fill="#1E9ED1"/>
<path d="M50.8885 130.947C51.2836 141.149 50.2711 151.178 47.1348 163.45H51.333C55.9016 153.199 59.1861 143.194 61.4334 130.947H50.8885Z" fill="#6BB8DC"/>
<path d="M46.6162 167.64L46.7644 165.151C47.6781 165.422 48.8141 165.323 50.1724 164.83C51.6294 165.865 53.4815 166.58 55.7041 166.95C55.877 166.974 55.9758 167.147 55.9511 167.319V167.344L55.7288 168.108H50.1724H46.9373L46.6162 167.64Z" fill="#06508C"/>
<path d="M61.2607 167.64L61.4089 165.151C62.3226 165.422 63.4586 165.323 64.8169 164.83C66.2739 165.865 68.1261 166.58 70.3486 166.95C70.5215 166.974 70.6203 167.147 70.5956 167.319V167.344L70.3733 168.108H64.8169H61.5818L61.2607 167.64Z" fill="#06508C"/>
<path d="M55.6794 108.054C54.9632 107.216 54.4693 106.181 54.5681 105.023C54.7904 101.696 59.4331 102.435 60.3468 104.111C61.2605 105.787 61.1371 110.05 59.9764 110.346C59.5072 110.469 58.5194 110.173 57.5068 109.557L58.1489 114.017H54.4199L55.6794 108.054Z" fill="#1E9ED1"/>
<path d="M55.3831 108.793C54.9139 106.699 53.5803 105.294 53.7779 104.357C53.926 103.741 54.2718 103.347 54.8645 103.199C55.1608 101.967 56.1486 101.45 57.8032 101.622C60.2975 101.893 61.8286 102.928 61.1618 105.195C60.5691 105.195 59.8282 104.974 58.8157 105.343C58.4947 105.466 58.2724 105.836 58.1243 106.452H57.6797C57.2352 105.713 56.7907 105.442 56.3709 105.639C55.9511 105.836 55.8523 106.304 56.0745 107.044L55.8523 108.768H55.3831V108.793Z" fill="#06508C"/>
<path d="M60.8406 106.723C60.9394 106.92 61.1122 107.117 61.1863 107.315C61.2604 107.512 61.3098 107.783 61.3345 107.98C61.3592 108.276 60.9888 108.645 60.6677 108.645" fill="#1E9ED1"/>
<path d="M60.6678 106.206C60.569 106.206 60.4703 106.206 60.3962 106.206C60.3221 106.23 60.248 106.23 60.1492 106.255C59.9764 106.304 59.8282 106.353 59.6306 106.378C59.7294 106.181 59.9023 106.082 60.0998 106.033C60.1986 106.008 60.2974 106.008 60.4209 106.033C60.5443 106.058 60.6431 106.107 60.6678 106.206Z" fill="#06508C"/>
<path d="M60.6679 109.409C60.5691 109.434 60.4703 109.434 60.3962 109.409C60.2974 109.384 60.2233 109.335 60.1246 109.31C59.9764 109.237 59.8282 109.113 59.68 109.064L59.8529 108.965C59.8529 108.99 59.8776 109.064 59.927 109.138C59.9764 109.212 60.0258 109.261 60.0752 109.335C60.174 109.458 60.2974 109.606 60.4209 109.729C60.3221 109.705 60.248 109.68 60.1493 109.631C60.0752 109.582 60.0011 109.532 59.927 109.483C59.8529 109.434 59.7788 109.36 59.7294 109.286C59.68 109.212 59.606 109.113 59.606 108.965V108.793L59.7541 108.867C59.9517 108.941 60.0752 109.064 60.2233 109.187C60.3715 109.261 60.495 109.36 60.6679 109.409Z" fill="#06508C"/>
<path d="M60.3714 106.994C60.4805 106.994 60.569 106.906 60.569 106.797C60.569 106.688 60.4805 106.6 60.3714 106.6C60.2623 106.6 60.1738 106.688 60.1738 106.797C60.1738 106.906 60.2623 106.994 60.3714 106.994Z" fill="#06508C"/>
<path d="M58.8403 113.352C58.6922 123.258 64.4215 125.796 63.1373 129.764C62.0754 133.041 51.975 136.565 50.2216 133.362C49.5055 132.056 49.1844 130.478 49.1597 128.778C48.7152 130.084 48.3695 131.218 48.0978 132.179C47.6533 133.805 45.8999 134.076 45.8999 134.717L43.6033 134.076C43.7514 133.214 42.6895 132.795 42.9612 130.897C44.27 122.322 47.7521 116.087 53.432 112.243L53.4814 111.405C53.5061 111.06 53.8025 110.814 54.1482 110.838L58.3464 111.134C58.6922 111.159 58.9391 111.454 58.9144 111.799L58.8403 113.352Z" fill="#F77B0B"/>
<path d="M22.4888 131.242L28.0699 150.784L32.1447 165.175H35.1081L30.7864 131.242H22.4888Z" fill="#A4D5EA"/>
<path d="M21.0069 131.242C20.8835 141.297 20.4389 146.792 20.2908 147.704C20.1673 148.615 18.1176 154.431 14.1416 165.151H17.2038C22.2417 154.875 25.057 149.059 25.6497 147.704C26.2424 146.348 28.0451 140.853 30.7863 131.242H21.0069Z" fill="#C1E3F2"/>
<path d="M13.8701 167.935L14.0183 164.707H17.2534C18.7845 165.791 20.7848 166.654 23.2544 167.319V167.935H17.4263L15.4259 167.639V167.935H13.8701Z" fill="#6BB8DC"/>
<path d="M31.7249 167.935L31.873 164.707H35.1081C36.6392 165.791 38.6396 166.654 41.1091 167.319V167.935H35.2563L33.256 167.639V167.935H31.7249Z" fill="#6BB8DC"/>
<path d="M25.0571 112.686C24.3409 111.849 23.8717 110.838 23.9458 109.705C24.1681 106.427 28.7614 107.142 29.6505 108.793C30.5395 110.444 30.4407 114.658 29.28 114.954C28.8108 115.077 27.8477 114.781 26.8352 114.19L27.4526 118.601H23.7729L25.0571 112.686Z" fill="#A4D5EA"/>
<path d="M29.9961 109.557C29.9714 109.335 29.8726 109.113 29.7985 108.892C29.6997 108.621 29.5762 108.399 29.4034 108.177C29.107 107.758 28.7613 107.388 28.3662 107.068C27.65 106.501 26.761 106.156 25.8719 106.279C25.4274 106.329 24.9829 106.501 24.6372 106.797C24.3161 107.043 23.9951 107.438 23.5506 107.462C23.0813 107.487 22.6615 107.068 22.2664 106.822C21.8466 106.526 21.4021 106.329 20.9082 106.255C20.0685 106.107 19.3029 106.403 18.735 107.068C18.1176 107.783 17.673 108.842 18.0929 109.803C18.167 109.976 18.2657 110.124 18.3892 110.247C18.5127 110.37 18.7103 110.493 18.7596 110.666C18.809 110.863 18.6609 111.109 18.5868 111.282C18.488 111.528 18.4139 111.799 18.4386 112.07C18.488 112.514 18.7596 112.933 19.056 113.229C19.3523 113.524 19.7228 113.697 20.1179 113.771C20.3895 113.82 20.6612 113.845 20.9328 113.845C21.0563 113.845 21.1798 113.795 21.3033 113.771C21.4268 113.746 21.5008 113.771 21.5996 113.845C22.0935 114.165 22.6368 114.288 23.2048 114.239C23.6987 114.19 24.242 114.091 24.6372 113.746C25.0817 113.377 25.057 112.859 24.9582 112.317C25.057 112.366 25.378 112.415 25.1805 112.194C25.1064 112.12 24.9829 112.07 24.8841 112.021C24.7853 111.972 24.6619 111.898 24.5878 111.799C24.242 111.405 24.5878 110.617 25.0076 110.493C25.625 110.296 25.7731 111.183 26.2177 111.405C26.4646 111.528 26.7363 111.356 26.9338 111.183C27.1808 110.937 27.3783 110.617 27.5265 110.272C27.65 110.001 27.7735 109.729 27.897 109.458C27.9463 109.335 28.1686 108.966 28.0698 108.818C28.5143 108.719 29.0082 108.916 29.4034 109.163C29.5515 109.261 29.675 109.384 29.7738 109.557C29.7985 109.606 29.8232 109.705 29.8726 109.705C30.0455 109.705 30.0208 109.606 29.9961 109.557Z" fill="#1174BA"/>
<path d="M30.0702 111.257C29.9961 111.849 30.8357 112.268 30.7863 112.884C30.4653 112.884 30.1689 113.056 29.8479 113.032" fill="#A4D5EA"/>
<path d="M29.0081 111.183C29.1315 111.085 29.3044 111.035 29.4773 111.035C29.5514 111.035 29.6501 111.06 29.7242 111.109C29.7983 111.159 29.8477 111.233 29.8724 111.331C29.7983 111.183 29.6254 111.134 29.4773 111.134C29.4032 111.134 29.3291 111.134 29.2303 111.159C29.1809 111.134 29.0821 111.159 29.0081 111.183Z" fill="#1174BA"/>
<path d="M29.9715 113.771C29.7739 113.795 29.5517 113.82 29.3541 113.771C29.2553 113.746 29.1565 113.722 29.0577 113.672C28.959 113.623 28.8849 113.549 28.8108 113.475C28.9837 113.598 29.1565 113.672 29.3541 113.722C29.5517 113.771 29.7739 113.746 29.9715 113.771Z" fill="#1174BA"/>
<path d="M29.5762 111.75C29.6717 111.75 29.7491 111.673 29.7491 111.578C29.7491 111.482 29.6717 111.405 29.5762 111.405C29.4807 111.405 29.4033 111.482 29.4033 111.578C29.4033 111.673 29.4807 111.75 29.5762 111.75Z" fill="#1174BA"/>
<path d="M36.6391 126.782L42.2202 124.343C43.208 123.382 44.1465 122.642 45.0602 122.125C45.3318 122.026 45.8011 122.002 45.3071 122.741C44.8132 123.455 44.3193 124.244 44.5169 124.49C44.7145 124.737 45.2825 124.466 45.5047 124.885C45.6529 125.156 44.6898 125.476 42.6153 125.87L38.4418 129.074L36.6391 126.782ZM14.0921 127.448L17.2532 128.064C14.0921 133.953 12.3882 137.083 12.1412 137.428C11.6226 138.216 12.1165 139.67 12.2894 140.459C11.1781 140.73 11.6226 139.03 10.1903 139.399C8.9061 139.72 7.79481 140.533 6.58473 139.424C6.43656 139.276 6.33778 138.857 6.83169 138.635C8.09115 138.093 9.94331 137.083 10.2397 136.664C10.6842 136.171 11.9436 133.091 14.0921 127.448Z" fill="#A4D5EA"/>
<path d="M25.8226 115.693L27.1562 115.471C30.0455 118.28 31.2309 125.008 33.1571 125.895C34.9846 126.733 37.5776 125.92 40.6399 124.811L41.5783 126.905C38.7877 129.912 32.8361 132.475 30.416 131.021C26.5635 128.704 25.6744 120.4 25.8226 115.693Z" fill="#1174BA"/>
<path d="M20.0193 132.376C25.3535 132.376 29.2801 132.376 31.799 132.376C32.3423 132.376 32.2435 131.612 32.1694 131.218C31.2804 126.708 27.7736 121.829 27.7736 115.422L24.341 114.88C21.5504 119.365 20.5626 124.934 20.0193 132.376Z" fill="#A4D5EA"/>
<path d="M18.8339 127.793C16.4384 132.105 14.4134 135.21 12.7835 137.132L10.314 136.639C11.8945 126.807 16.5125 119.537 24.1187 114.855H24.1681H25.477C28.5145 125.23 29.3541 132.13 27.9959 135.58H17.4015C17.5744 133.066 18.093 130.405 18.8339 127.793Z" fill="#1E9ED1"/>
<path d="M256.948 91.2255C258.153 84.6035 257.671 80.1488 252.37 75.2124C249.117 72.2024 244.658 72.4432 241.405 75.3328C241.164 68.3496 235.622 60.7644 228.031 61.3664C221.765 61.9684 219.235 69.1924 218.271 74.49C213.211 72.4432 209.957 74.2492 209.114 79.5468C200.198 77.2592 192.125 85.5667 194.053 94.4763C195.017 98.8107 198.631 101.46 202.969 101.7C206.343 101.941 206.584 101.219 208.873 99.5331C207.909 104.108 222.247 104.71 224.537 100.617C229.597 103.145 234.658 106.637 240.682 105.071C242.731 104.59 244.417 103.386 245.984 102.061C246.345 101.7 250.201 97.8475 250.321 97.9679C252.731 99.0515 255.021 99.1719 257.069 97.2455C258.876 95.5599 259.117 92.9111 256.948 91.2255Z" fill="#C1E3F2"/>
<path d="M216.223 94.958L204.415 93.2724L215.5 94.1152L206.704 84.724L218.392 96.2824L218.994 88.5768V97.0048L229.115 106.998L229.597 79.6672L224.657 73.5268L229.597 79.0652L229.718 70.5168L229.838 97.8476L244.297 85.928L240.2 89.54L245.984 92.7908L239.959 89.7808L229.838 98.9312V154.074L228.272 154.195L229.115 108.684L216.223 94.958Z" fill="#06508C"/>
<path d="M233.8 160.386C233.967 153.449 231.709 143.505 225.186 152.196C225.27 148.769 222.928 139.493 217.994 140.663C216.237 141.081 214.23 145.51 213.812 146.262C214.23 139.493 207.373 129.214 199.511 133.727C193.323 137.237 194.744 148.268 194.744 154.201C194.661 151.527 192.235 150.441 190.395 152.112C189.308 153.115 188.556 159.383 188.806 160.803C189.559 165.149 194.075 166.068 198.173 164.731C199.511 171.584 212.056 166.904 214.23 162.976C215.15 165.65 218.914 165.817 220.419 163.561C220.335 166.402 226.608 167.322 229.117 166.402C231.542 165.483 232.378 163.143 233.8 160.386Z" fill="#88C6E3"/>
<path d="M207.874 163.812L208.293 163.728L203.024 137.154L202.606 137.237L207.874 163.812Z" fill="#06508C"/>
<path d="M205.031 149.772L205.366 149.438L199.261 144.257L199.01 144.591L205.031 149.772Z" fill="#06508C"/>
<path d="M206.453 154.787L210.216 148.519L209.798 148.352L206.035 154.619L206.453 154.787Z" fill="#06508C"/>
<path d="M218.663 160.386L219.582 146.68L219.081 146.597L218.244 160.302L218.663 160.386Z" fill="#06508C"/>
<path d="M218.83 156.207L222.259 153.7L222.008 153.282L218.579 155.873L218.83 156.207Z" fill="#06508C"/>
<path d="M218.914 151.36L219.248 151.193L216.99 146.597L216.572 146.764L218.914 151.36Z" fill="#06508C"/>
<path d="M225.604 163.311L229.117 153.867L228.699 153.7L225.186 163.143L225.604 163.311Z" fill="#06508C"/>
<path d="M227.36 158.296L231.375 157.126L231.291 156.708L227.193 157.878L227.36 158.296Z" fill="#06508C"/>
<path d="M167.213 168.837C167.13 163.572 168.802 156.135 173.569 162.737C173.486 160.146 175.242 153.21 178.922 154.129C180.176 154.463 181.765 157.723 182.016 158.391C181.682 153.293 186.783 145.605 192.637 148.948C197.237 151.539 196.15 159.812 196.15 164.325C196.15 162.319 197.99 161.483 199.411 162.737C200.248 163.489 200.833 168.252 200.582 169.255C200.08 172.514 196.735 173.266 193.641 172.18C192.637 177.278 183.354 173.768 181.765 170.843C181.096 172.849 178.253 173.016 177.165 171.261C177.165 173.35 172.566 174.018 170.726 173.434C168.802 172.765 168.217 170.926 167.213 168.837Z" fill="#C1E3F2"/>
<path d="M190.007 151.452L186.158 171.392L186.487 171.455L190.336 151.516L190.007 151.452Z" fill="#88C6E3"/>
<path d="M192.837 156.831L188.326 160.69L188.544 160.944L193.055 157.085L192.837 156.831Z" fill="#88C6E3"/>
<path d="M187.536 164.742L184.692 159.979L184.943 159.812L187.786 164.575L187.536 164.742Z" fill="#88C6E3"/>
<path d="M171.02 163.899L170.706 164.013L173.277 171.082L173.592 170.968L171.02 163.899Z" fill="#88C6E3"/>
<path d="M169.037 166.167L168.945 166.489L171.92 167.338L172.012 167.017L169.037 166.167Z" fill="#88C6E3"/>
</svg>
