<svg width="217" height="183" viewBox="0 0 217 183" fill="none" xmlns="http://www.w3.org/2000/svg">
<path d="M9.80866 135.757C23.5998 128.861 48.8015 126.522 59.6784 126.214C70.7606 124.059 96.8652 119.934 112.627 120.673C132.328 121.596 184.968 128.061 191.433 130.523C197.898 132.986 206.209 140.374 198.821 150.533C191.433 160.692 123.093 181.317 105.854 182.548C88.6151 183.779 68.9135 173.005 59.6784 168.08C50.4433 163.154 21.1987 161.307 6.73028 155.766C3.37775 154.482 -7.43027 144.376 9.80866 135.757Z" fill="#DDF2F9"/>
<path d="M28.8169 37.8916L68.125 0L107.248 37.1496V142.221H28.8169V37.8916Z" fill="#A4D5EA"/>
<path d="M151.003 36.9873V142.221H107.248V37.1496L151.003 36.9873Z" fill="#1E9ED1"/>
<path d="M68.125 0H112.46L155.427 41.2309H111.44L68.125 0Z" fill="#F77B0B"/>
<path d="M84.8952 45.2427L77.4598 54.588L64.7432 89.6042V142.221H84.8952V45.2427Z" fill="#06508C"/>
<path d="M64.7431 89.604H13.7144V142.221H64.7431V89.604Z" fill="#C1E3F2"/>
<path d="M77.4597 54.5879H21.6131L8.89648 89.604H64.7431L77.4597 54.5879Z" fill="#88C6E3"/>
<path d="M84.8951 45.2427H28.8168L21.613 54.588H77.4597L84.8951 45.2427Z" fill="#C1E3F2"/>
<path d="M25.3655 41.2309L68.1249 0L70.3717 2.13344L28.8168 41.2309H25.3655Z" fill="#F45F0C"/>
<path d="M32.9167 81.7662H23.8135V66.1364C23.8135 63.6088 25.8519 61.5681 28.3767 61.5681C30.9015 61.5681 32.9398 63.6088 32.9398 66.1364V81.7662H32.9167Z" fill="#6BB8DC"/>
<path d="M24.7864 80.7921V66.1364C24.7864 64.1653 26.3846 62.5652 28.3535 62.5652C30.3224 62.5652 31.9206 64.1653 31.9206 66.1364V80.7921H24.7864Z" fill="#DDF2F9"/>
<path d="M59.1608 81.7662H50.0576V66.1364C50.0576 63.6088 52.096 61.5681 54.6208 61.5681C57.1456 61.5681 59.184 63.6088 59.184 66.1364V81.7662H59.1608Z" fill="#6BB8DC"/>
<path d="M51.0305 80.7921V66.1364C51.0305 64.1653 52.6288 62.5652 54.5977 62.5652C56.5665 62.5652 58.1648 64.1653 58.1648 66.1364V80.7921H51.0305Z" fill="#A4D5EA"/>
<path d="M38.4065 80.8385V66.1828C38.4065 64.2117 40.0048 62.6116 41.9736 62.6116C43.9425 62.6116 45.5408 64.2117 45.5408 66.1828V80.8385H38.4065Z" fill="#DDF2F9"/>
<path d="M75.8152 25.4621C75.8152 29.7289 72.3639 33.161 68.125 33.161C63.863 33.161 60.4348 29.7058 60.4348 25.4621C60.4348 21.1952 63.8862 17.7632 68.125 17.7632C72.3871 17.7632 75.8152 21.2184 75.8152 25.4621Z" fill="#6BB8DC"/>
<path d="M68.3069 32.1818C72.0153 32.0787 74.9381 28.9855 74.8352 25.2729C74.7323 21.5603 71.6426 18.6342 67.9341 18.7372C64.2257 18.8403 61.3029 21.9335 61.4059 25.6461C61.5088 29.3587 64.5985 32.2848 68.3069 32.1818Z" fill="#DDF2F9"/>
<path d="M133.608 45.2427H129.786V55.3533H133.608V45.2427Z" fill="#06508C"/>
<path d="M133.608 58.3911H129.786V68.5017H133.608V58.3911Z" fill="#06508C"/>
<path d="M29.9055 94.9377H20.5012V106.927H29.9055V94.9377Z" fill="#6BB8DC"/>
<path d="M30.2761 107.275H20.1306V94.5669H30.2761V107.275ZM20.8719 106.533H29.5349V95.2858H20.8719V106.533Z" fill="#A4D5EA"/>
<path d="M25.4583 94.9844H24.717V107.066H25.4583V94.9844Z" fill="#A4D5EA"/>
<path d="M30.948 93.7551H19.459V95.4711H30.948V93.7551Z" fill="#06508C"/>
<path d="M58.1186 95.0535H48.7144V107.042H58.1186V95.0535Z" fill="#DDF2F9"/>
<path d="M44.1277 94.8218H34.7234V106.811H44.1277V94.8218Z" fill="#DDF2F9"/>
<path d="M44.4986 107.182H34.353V94.4739H44.4986V107.182ZM35.0943 106.44H43.7573V95.1928H35.0943V106.44Z" fill="#A4D5EA"/>
<path d="M39.6804 94.8914H38.9392V106.973H39.6804V94.8914Z" fill="#A4D5EA"/>
<path d="M45.1702 93.6624H33.6812V95.3784H45.1702V93.6624Z" fill="#06508C"/>
<path d="M49.9417 101.292C49.6406 100.944 49.4553 100.526 49.4784 100.039C49.5711 98.6711 51.4936 98.9726 51.8642 99.6682C52.2349 100.364 52.1885 102.126 51.7021 102.242C51.5168 102.289 51.0999 102.173 50.6829 101.918L50.9377 103.773H49.4089L49.9417 101.292Z" fill="#6BB8DC"/>
<path d="M52.0033 99.9698C51.9801 99.8771 51.9569 99.7843 51.9106 99.6916C51.8643 99.5756 51.8179 99.4829 51.7484 99.3901C51.6326 99.2046 51.4705 99.0655 51.3315 98.9263C51.0304 98.6944 50.6598 98.5553 50.2892 98.6017C50.1039 98.6248 49.9186 98.6944 49.7796 98.8104C49.6406 98.9263 49.5016 99.0654 49.3163 99.0886C49.131 99.0886 48.9689 98.9727 48.8299 98.8567C48.8299 98.8799 48.8067 98.9031 48.8067 98.9263C48.4361 99.8539 48.5056 100.828 48.5983 101.825C48.7836 101.918 48.9689 101.964 49.1773 101.941C49.3858 101.918 49.6174 101.871 49.7796 101.732C49.9649 101.57 49.9649 101.361 49.9186 101.129C49.9649 101.153 50.0807 101.176 50.0112 101.083C49.988 101.037 49.9186 101.037 49.8954 101.013C49.8491 100.99 49.8027 100.967 49.7796 100.921C49.6406 100.758 49.7796 100.434 49.9649 100.387C50.2197 100.318 50.2892 100.689 50.4745 100.781C50.5903 100.828 50.683 100.758 50.7756 100.689C50.8914 100.596 50.9609 100.457 51.0304 100.318C51.0767 100.202 51.1231 100.086 51.1926 99.9698C51.2157 99.9235 51.3084 99.7611 51.262 99.7148C51.4473 99.6684 51.6558 99.7611 51.818 99.8539C51.8874 99.9003 51.9338 99.9466 51.9801 100.016C51.9801 100.039 52.0033 100.086 52.0264 100.086C52.0264 100.039 52.0033 99.993 52.0033 99.9698Z" fill="#88C6E3"/>
<path d="M52.0958 100.758C52.0958 100.944 52.3506 101.129 52.3274 101.315C52.3043 101.5 52.0726 101.524 51.98 101.593" fill="#6BB8DC"/>
<path d="M52.0263 100.55C52.0031 100.503 51.9568 100.48 51.9336 100.457C51.8873 100.434 51.8641 100.41 51.8178 100.41C51.7715 100.41 51.7252 100.41 51.6788 100.434C51.6325 100.457 51.5862 100.48 51.5862 100.55C51.6325 100.526 51.6557 100.526 51.702 100.526C51.7252 100.526 51.7715 100.526 51.8178 100.55C51.841 100.526 51.9336 100.55 52.0263 100.55Z" fill="#88C6E3"/>
<path d="M51.9568 101.872C51.8873 101.825 51.841 101.802 51.7947 101.779C51.7484 101.756 51.6789 101.732 51.6094 101.732C51.6325 101.802 51.702 101.848 51.7483 101.895C51.8178 101.918 51.8873 101.941 51.9568 101.872Z" fill="#88C6E3"/>
<path d="M51.9106 100.781C51.9489 100.781 51.98 100.75 51.98 100.712C51.98 100.673 51.9489 100.642 51.9106 100.642C51.8722 100.642 51.8411 100.673 51.8411 100.712C51.8411 100.75 51.8722 100.781 51.9106 100.781Z" fill="#88C6E3"/>
<path d="M54.1109 106.718C52.837 105.675 51.3777 104.376 50.9376 102.799L50.428 102.892C50.428 104.237 51.007 105.605 51.7483 106.741C52.5127 106.672 53.3234 106.649 54.1109 106.718Z" fill="#6BB8DC"/>
<path d="M49.1773 106.857C50.0575 106.857 51.0072 106.764 51.9801 106.718C51.5863 105.883 51.2389 104.816 51.262 103.263L51.3084 102.636C51.3084 102.497 51.2157 102.381 51.0767 102.381L49.4785 102.265C49.3395 102.265 49.2237 102.358 49.2237 102.497L49.2005 102.822C49.0384 102.938 48.8531 103.077 48.6909 103.193C48.7372 104.422 48.8762 105.651 48.9457 106.88C49.0384 106.88 49.1079 106.857 49.1773 106.857Z" fill="#88C6E3"/>
<path d="M38.7076 76.1079L37.8274 76.3398C37.8506 76.9891 37.9432 77.6848 37.9664 78.3805C38.6844 78.1254 39.4257 77.8471 39.4952 77.8239C39.611 77.7776 38.7076 76.1079 38.7076 76.1079Z" fill="#DDF2F9"/>
<path d="M43.5024 81.2562L45.008 76.0386H41.9736L41.5566 81.2794C42.2052 81.2794 42.8538 81.2562 43.5024 81.2562Z" fill="#6BB8DC"/>
<path d="M45.8651 81.2562C45.8419 80.2822 45.8651 78.5662 45.9577 76.0386H42.3674C42.9465 78.5198 43.3866 80.2591 43.6646 81.2562C44.3827 81.2562 45.1239 81.233 45.8651 81.2562Z" fill="#6BB8DC"/>
<path d="M41.1629 81.2794C42.0663 81.2794 42.9697 81.2562 43.873 81.2562C44.3826 79.0996 44.7996 77.3604 45.0775 76.0386H41.9736C41.5567 77.4299 41.2324 79.146 41.0471 81.2794C41.0703 81.2794 41.1166 81.2794 41.1629 81.2794Z" fill="#1174BA"/>
<path d="M46.1198 81.2562C45.9345 79.4706 45.8882 77.7546 45.9577 76.0386H42.1357C42.4832 77.8937 42.877 79.6098 43.3634 81.2562C44.2668 81.2562 45.1933 81.233 46.1198 81.2562Z" fill="#06508C"/>
<path d="M44.2205 67.7134C44.4753 67.4119 44.6606 67.0409 44.6374 66.6235C44.5448 65.4176 42.877 65.6727 42.5296 66.2988C42.1821 66.925 42.2516 68.4555 42.6686 68.5714C42.8307 68.6178 43.2013 68.5018 43.5719 68.2931L43.3403 69.9164H44.7069L44.2205 67.7134Z" fill="#6BB8DC"/>
<path d="M44.3133 67.9685C44.4754 67.2033 44.9618 66.6931 44.8924 66.3453C44.846 66.1134 44.7071 65.9742 44.4986 65.9278C44.3828 65.4872 44.0353 65.2785 43.4331 65.3481C42.5297 65.4409 41.9738 65.8351 42.2054 66.6467C42.4139 66.6467 42.6918 66.5772 43.0625 66.6931C43.1783 66.7395 43.2709 66.8786 43.3173 67.0873H43.4794C43.6415 66.8322 43.8037 66.7163 43.9427 66.7858C44.0816 66.8554 44.128 67.0177 44.0585 67.296L44.1511 67.9221H44.3133V67.9685Z" fill="#06508C"/>
<path d="M42.3443 67.2266C42.2979 67.2961 42.2516 67.3657 42.2284 67.4353C42.2053 67.5048 42.1821 67.5976 42.1821 67.6904C42.1821 67.8063 42.3211 67.9454 42.4138 67.9223" fill="#6BB8DC"/>
<path d="M42.4138 67.041C42.4601 67.041 42.4833 67.041 42.5065 67.041C42.5296 67.041 42.5528 67.041 42.5991 67.0642C42.6686 67.0874 42.7149 67.0874 42.7844 67.1106C42.7613 67.041 42.6918 66.9946 42.6223 66.9714C42.576 66.9714 42.5528 66.9714 42.5065 66.9714C42.4602 66.9714 42.4138 66.9946 42.4138 67.041Z" fill="#1E9ED1"/>
<path d="M42.4138 68.2002C42.437 68.2233 42.4833 68.2002 42.5065 68.2002C42.5296 68.2002 42.5759 68.177 42.5991 68.1538C42.6686 68.1306 42.7149 68.0842 42.7613 68.061L42.6918 68.0146C42.6918 68.0146 42.6918 68.061 42.6686 68.0842C42.6454 68.1074 42.6455 68.1306 42.6223 68.1538C42.576 68.2002 42.5296 68.2465 42.4833 68.2929C42.5065 68.2929 42.5528 68.2697 42.576 68.2465C42.5991 68.2233 42.6454 68.2233 42.6686 68.2002C42.6918 68.177 42.7149 68.1538 42.7381 68.1306C42.7613 68.1074 42.7844 68.061 42.7844 68.0146V67.9451L42.7381 67.9683C42.6686 67.9915 42.6223 68.0378 42.576 68.0842C42.5065 68.1306 42.4601 68.177 42.4138 68.2002Z" fill="#1E9ED1"/>
<path d="M42.5063 67.3191C42.5446 67.3191 42.5757 67.2879 42.5757 67.2495C42.5757 67.2111 42.5446 67.1799 42.5063 67.1799C42.4679 67.1799 42.4368 67.2111 42.4368 67.2495C42.4368 67.2879 42.4679 67.3191 42.5063 67.3191Z" fill="#1E9ED1"/>
<path d="M39.8426 74.2065L38.2443 75.7602C38.1054 75.8298 37.9664 75.8994 37.8274 75.969C37.8274 76.0153 37.8274 76.0617 37.8274 76.1081C37.8274 76.2472 37.8274 76.3864 37.8506 76.5023C37.92 76.5023 37.9664 76.5255 37.9896 76.5487C38.059 76.6414 37.8737 76.8038 37.9896 76.9429C38.059 77.0357 38.3138 76.7574 38.7308 76.0849L40.3985 75.1109L39.8426 74.2065Z" fill="#6BB8DC"/>
<path d="M43.8963 69.2671L43.4098 69.1743C42.6455 71.9107 38.6845 73.7658 38.4297 74.7862C38.3371 75.1572 38.6151 75.3427 38.4761 75.4587L39.1015 75.9225C39.2173 75.8065 39.4489 76.0152 39.9122 75.8761C40.3986 75.7138 43.8963 72.4904 43.8963 69.2671Z" fill="#6BB8DC"/>
<path d="M46.0968 76.0154C45.4483 74.0211 45.8652 71.9804 45.9115 69.9397V69.9165C45.6336 69.6615 45.3324 69.4296 45.0082 69.1977L44.985 68.8962C44.985 68.7803 44.8692 68.6875 44.7534 68.6875L43.2246 68.8034C43.1088 68.8034 43.0161 68.9194 43.0161 69.0353L43.0624 69.6151C43.1088 73.2326 41.0472 74.137 41.5105 75.598C41.9043 76.8038 45.5641 78.0792 46.1895 76.8966C46.2358 76.8038 46.2821 76.7111 46.3053 76.6183C46.2358 76.4328 46.1663 76.2241 46.0968 76.0154Z" fill="#1E9ED1"/>
<path d="M41.9736 61.5681C39.4488 61.5681 37.4104 63.6088 37.4104 66.1364V81.7893H46.5136V66.1364C46.5367 63.6088 44.4984 61.5681 41.9736 61.5681ZM45.5407 80.7922H38.4064V66.1364C38.4064 64.1653 40.0047 62.5653 41.9736 62.5653C43.9424 62.5653 45.5407 64.1653 45.5407 66.1364V80.7922Z" fill="#6BB8DC"/>
<path d="M58.489 107.391H48.3435V94.6829H58.489V107.391ZM49.0847 106.672H57.7478V95.4249H49.0847V106.672Z" fill="#A4D5EA"/>
<path d="M53.6711 95.1233H52.9299V107.205H53.6711V95.1233Z" fill="#A4D5EA"/>
<path d="M59.1606 93.8943H47.6716V95.6103H59.1606V93.8943Z" fill="#06508C"/>
<path d="M168.309 86.3569C167.381 81.2755 167.752 77.8571 171.837 74.0691C174.343 71.7594 177.777 71.9441 180.283 74.1615C180.469 68.8029 184.739 62.9823 190.587 63.4443C195.413 63.9062 197.363 69.4496 198.105 73.5148C202.004 71.9441 204.51 73.33 205.16 77.3951C212.028 75.6397 218.247 82.0146 216.762 88.8515C216.02 92.1775 213.235 94.2101 209.893 94.3949C207.294 94.5796 207.109 94.0253 205.345 92.7318C206.088 96.2426 195.042 96.7046 193.278 93.5633C189.38 95.5035 185.481 98.1828 180.84 96.9818C179.262 96.6122 177.963 95.6883 176.756 94.672C176.478 94.3948 173.507 91.4384 173.415 91.5308C171.558 92.3623 169.795 92.4547 168.217 90.9764C166.824 89.683 166.639 87.6504 168.309 86.3569Z" fill="#88C6E3"/>
<path d="M199.886 89.509L208.98 88.2192L200.443 88.8641L207.217 81.678L198.215 90.5224L197.751 84.6261V91.0752L189.956 98.722L189.585 77.8085L193.39 73.1099L189.585 77.3479L189.493 70.8066L189.4 91.7201L178.264 82.5993L181.419 85.3632L176.965 87.8507L181.605 85.5474L189.4 92.5493V134.745L190.606 134.837L189.956 100.012L199.886 89.509Z" fill="#1E9ED1"/>
<path d="M186.042 131.341C185.964 126.47 187.512 119.589 191.925 125.697C191.848 123.3 193.473 116.883 196.879 117.734C198.041 118.043 199.511 121.058 199.744 121.677C199.434 116.96 204.156 109.848 209.575 112.94C213.833 115.337 212.827 122.991 212.827 127.166C212.827 125.31 214.53 124.537 215.846 125.697C216.62 126.393 217.162 130.8 216.929 131.728C216.465 134.743 213.368 135.439 210.504 134.434C209.575 139.15 200.982 135.903 199.511 133.197C198.892 135.052 196.26 135.207 195.254 133.583C195.254 135.516 190.996 136.134 189.293 135.593C187.512 134.975 186.971 133.274 186.042 131.341Z" fill="#A4D5EA"/>
<path d="M207.141 115.257L203.578 133.705L203.882 133.763L207.445 115.316L207.141 115.257Z" fill="#06508C"/>
<path d="M209.761 120.233L205.585 123.803L205.786 124.038L209.962 120.468L209.761 120.233Z" fill="#06508C"/>
<path d="M204.853 127.553L202.221 123.146L202.453 122.991L205.085 127.398L204.853 127.553Z" fill="#06508C"/>
<path d="M189.565 126.772L189.274 126.878L191.655 133.418L191.946 133.312L189.565 126.772Z" fill="#06508C"/>
<path d="M187.729 128.871L187.644 129.168L190.398 129.954L190.483 129.657L187.729 128.871Z" fill="#06508C"/>
<path d="M183.564 138.918C183.719 132.5 181.629 123.3 175.591 131.341C175.668 128.171 173.5 119.589 168.933 120.671C167.307 121.058 165.45 125.156 165.062 125.851C165.45 119.589 159.102 110.079 151.825 114.254C146.096 117.501 147.412 127.707 147.412 133.196C147.335 130.722 145.09 129.717 143.387 131.263C142.38 132.191 141.684 137.99 141.916 139.304C142.613 143.325 146.793 144.175 150.586 142.938C151.825 149.278 163.437 144.948 165.45 141.314C166.301 143.788 169.785 143.943 171.178 141.856C171.101 144.484 176.907 145.335 179.229 144.484C181.474 143.634 182.248 141.469 183.564 138.918Z" fill="#88C6E3"/>
<path d="M159.566 142.087L159.953 142.01L155.076 117.424L154.689 117.501L159.566 142.087Z" fill="#06508C"/>
<path d="M156.934 129.099L157.244 128.789L151.593 123.996L151.36 124.305L156.934 129.099Z" fill="#06508C"/>
<path d="M158.25 133.737L161.734 127.939L161.347 127.784L157.863 133.583L158.25 133.737Z" fill="#06508C"/>
<path d="M169.552 138.918L170.404 126.238L169.939 126.161L169.165 138.84L169.552 138.918Z" fill="#06508C"/>
<path d="M169.707 135.052L172.881 132.733L172.649 132.346L169.475 134.743L169.707 135.052Z" fill="#06508C"/>
<path d="M169.785 130.568L170.094 130.413L168.004 126.161L167.617 126.315L169.785 130.568Z" fill="#06508C"/>
<path d="M175.978 141.624L179.229 132.887L178.842 132.732L175.591 141.469L175.978 141.624Z" fill="#06508C"/>
<path d="M177.603 136.985L181.319 135.902L181.242 135.516L177.448 136.598L177.603 136.985Z" fill="#06508C"/>
<path d="M57.9161 141.092L54.9279 151.44L53.5194 159.211H52.1108L53.5194 141.092H57.9161Z" fill="#06508C"/>
<path d="M59.272 141.092C59.0614 146.471 59.1404 149.405 59.193 149.894C59.2457 150.383 59.509 153.661 61.3124 159.383H59.8381C57.4422 153.885 56.6129 150.621 56.3365 149.894C56.06 149.167 55.257 146.233 54.0723 141.092H59.272Z" fill="#06508C"/>
<path d="M57.9819 141.092C57.2052 144.66 55.8625 150.343 53.9406 158.154H51.8738C51.7159 150.132 52.3741 144.858 53.493 141.092H57.9819Z" fill="#6BB8DC"/>
<path d="M59.2718 141.092C59.0611 146.471 59.6009 151.771 61.2332 158.233H59.0348C56.639 152.815 54.9145 147.555 53.7429 141.092H59.2718Z" fill="#88C6E3"/>
<path d="M61.5098 160.44L61.4309 159.132C60.957 159.277 60.3646 159.211 59.6537 158.973C58.8902 159.515 57.9161 159.899 56.7577 160.097C56.6655 160.11 56.6129 160.203 56.626 160.282V160.295L56.7445 160.692H59.6669H61.365L61.5098 160.44Z" fill="#1E9ED1"/>
<path d="M53.8353 160.44L53.7563 159.132C53.2824 159.277 52.69 159.211 51.9792 158.973C51.2157 159.515 50.2415 159.899 49.0831 160.097C48.991 160.11 48.9383 160.203 48.9515 160.282V160.295L49.0699 160.692H51.9923H53.6905L53.8353 160.44Z" fill="#1E9ED1"/>
<path d="M56.771 128.999C57.1527 128.549 57.4029 128.007 57.3634 127.399C57.2449 125.642 54.8096 126.025 54.3357 126.91C53.8618 127.796 53.9144 130.043 54.5331 130.201C54.7832 130.267 55.2966 130.109 55.8232 129.792L55.4941 132.144H57.4555L56.771 128.999Z" fill="#06508C"/>
<path d="M56.9156 129.395C57.1657 128.298 57.8634 127.545 57.758 127.056C57.6922 126.725 57.4948 126.527 57.192 126.448C57.034 125.8 56.5206 125.523 55.6518 125.615C54.3486 125.761 53.5456 126.302 53.8879 127.505C54.2038 127.505 54.5855 127.386 55.1121 127.584C55.2832 127.651 55.4017 127.836 55.4675 128.166H55.7045C55.9414 127.783 56.1652 127.637 56.389 127.743C56.6128 127.849 56.6654 128.1 56.547 128.483L56.6655 129.395H56.9156Z" fill="#1E9ED1"/>
<path d="M54.0591 128.311C54.0064 128.417 53.9143 128.51 53.8748 128.628C53.8353 128.734 53.809 128.88 53.7958 128.985C53.7826 129.144 53.9801 129.342 54.1512 129.342" fill="#06508C"/>
<path d="M54.1379 128.034C54.1643 127.981 54.2169 127.942 54.2696 127.928C54.3222 127.915 54.3749 127.915 54.4276 127.928C54.5329 127.955 54.625 128.021 54.6777 128.113C54.5723 128.1 54.4802 128.074 54.4012 128.047C54.3617 128.034 54.3222 128.034 54.2827 128.021C54.2432 128.034 54.1906 128.034 54.1379 128.034Z" fill="#1E9ED1"/>
<path d="M54.1379 129.726C54.2301 129.699 54.2959 129.646 54.3617 129.594C54.4276 129.541 54.4934 129.475 54.5987 129.422L54.6777 129.382V129.475C54.6777 129.554 54.6513 129.607 54.6118 129.646C54.5855 129.686 54.546 129.726 54.5065 129.752C54.467 129.779 54.4275 129.805 54.3881 129.831C54.3486 129.858 54.2959 129.871 54.2564 129.884C54.3222 129.818 54.3881 129.752 54.4407 129.673C54.467 129.633 54.4934 129.607 54.5197 129.567C54.546 129.527 54.5592 129.501 54.546 129.475L54.6382 129.527C54.5724 129.554 54.4934 129.607 54.4144 129.66C54.3749 129.686 54.3222 129.699 54.2827 129.712C54.2432 129.739 54.1906 129.739 54.1379 129.726Z" fill="#1E9ED1"/>
<path d="M54.2962 128.443C54.3544 128.443 54.4015 128.396 54.4015 128.338C54.4015 128.279 54.3544 128.232 54.2962 128.232C54.2381 128.232 54.1909 128.279 54.1909 128.338C54.1909 128.396 54.2381 128.443 54.2962 128.443Z" fill="#1E9ED1"/>
<path d="M51.2024 139.757L48.7934 141.184C48.1879 142.136 47.8325 142.545 47.7271 142.426C47.5692 142.228 47.8193 142.003 47.7403 141.858C47.6613 141.713 47.1743 141.792 46.7135 141.898C46.2528 142.003 46.3581 141.779 46.4634 141.66C46.8978 141.316 47.4507 140.999 48.1221 140.708L50.4389 138.448L51.2024 139.757ZM63.1816 143.14C63.3001 143.378 64.1689 144.105 64.7613 144.515C64.9982 144.686 64.9061 144.898 64.8139 144.951C64.0767 145.413 63.5897 144.871 62.9446 144.567C62.2469 144.237 62.2996 145.162 61.7467 144.911C61.9179 144.528 62.3128 143.814 62.1285 143.338C62.0495 143.127 61.3255 140.814 59.9564 136.373L61.7467 136.36C62.5366 140.563 63.0236 142.81 63.1816 143.14Z" fill="#06508C"/>
<path d="M56.297 131.285L55.5861 131.166C54.4672 135.118 48.7541 137.801 48.4118 139.281C48.2802 139.823 48.6751 140.1 48.4645 140.259L49.3859 140.933C49.5439 140.748 49.873 141.078 50.5707 140.854C51.2552 140.616 56.297 135.964 56.297 131.285Z" fill="#1174BA"/>
<path d="M55.0991 131.801C55.1781 137.034 52.1767 138.356 52.8349 140.457C53.3878 142.189 58.6928 144.052 59.6012 142.347C59.9697 141.66 60.1409 140.827 60.1541 139.929C60.391 140.629 60.5753 141.224 60.7069 141.726C60.9439 142.585 61.8522 142.731 61.8522 143.061L63.0501 142.731C62.9711 142.281 63.5372 142.056 63.3792 141.052C62.6947 136.519 60.8649 133.241 57.8898 131.206L57.8635 130.77C57.8504 130.585 57.6924 130.453 57.5213 130.466L55.3229 130.624C55.1386 130.638 55.007 130.796 55.0201 130.968L55.0991 131.801Z" fill="#1E9ED1"/>
<path d="M127.523 139.788L132.881 153.536L136.496 165.167H137.916L132.408 139.788H127.523Z" fill="#C1E3F2"/>
<path d="M126.447 139.788C126.383 144.632 125.565 151.135 125.415 151.441C125.329 151.637 122.273 154.19 116.227 159.1L117.195 160.169C124.317 155.958 128.04 153.579 128.363 153.012C128.857 152.161 130.471 144.414 131.762 139.788H126.447Z" fill="#C1E3F2"/>
<path d="M116.113 158.733C115.782 158.844 115.559 158.949 115.427 159.061C115.278 159.187 115.075 159.418 114.836 159.707C114.988 159.89 116.301 161.478 118.789 164.485C119.298 164.251 119.457 164.001 119.269 163.706C119.081 163.41 118.935 163.165 118.799 162.967L117.935 159.916C117.91 159.852 117.852 159.816 117.789 159.841L117.318 159.986C116.995 159.834 116.779 159.675 116.655 159.525C116.544 159.391 116.456 159.182 116.375 158.88C116.369 158.771 116.253 158.699 116.113 158.733C116.129 158.719 116.113 158.733 116.113 158.733Z" fill="#6BB8DC"/>
<path d="M135.915 164.621C135.786 164.948 135.722 165.188 135.722 165.363C135.722 165.559 135.765 165.865 135.829 166.236C136.066 166.236 138.11 166.236 141.983 166.236C142.134 165.69 142.048 165.407 141.704 165.363C141.359 165.319 141.08 165.276 140.843 165.254L137.981 163.966C137.916 163.945 137.852 163.966 137.83 164.032L137.637 164.49C137.314 164.643 137.056 164.708 136.862 164.708C136.69 164.708 136.475 164.643 136.195 164.512C136.087 164.447 135.958 164.512 135.915 164.621Z" fill="#6BB8DC"/>
<path d="M131.138 163.967L137.895 163.225L132.881 139.788H126.835L131.138 163.967Z" fill="#06508C"/>
<path d="M117.647 157.376L122.079 162.701C126.749 157.529 129.46 154.168 130.235 152.597C131.009 151.026 131.698 146.749 132.322 139.788H125.522C125.178 145.92 124.963 149.106 124.834 149.389C124.704 149.673 122.316 152.335 117.647 157.376Z" fill="#1174BA"/>
<path d="M128.32 125.8C127.825 125.211 127.48 124.469 127.523 123.639C127.696 121.261 130.945 121.784 131.569 122.985C132.193 124.185 132.128 127.218 131.31 127.436C130.988 127.524 130.299 127.305 129.589 126.891L130.041 130.077H127.416L128.32 125.8Z" fill="#C1E3F2"/>
<path d="M132.752 121.326C132.688 121.13 132.558 120.977 132.365 120.912C132.322 120.89 132.257 120.89 132.214 120.89C132.193 120.89 132.193 120.89 132.193 120.89C132.193 120.89 132.193 120.868 132.193 120.846C132.193 120.803 132.171 120.781 132.171 120.737C132.128 120.628 132.064 120.519 131.978 120.453C131.827 120.301 131.612 120.191 131.397 120.17C131.267 120.17 131.16 120.17 131.052 120.213C130.988 120.235 130.945 120.257 130.88 120.279C130.859 120.279 130.816 120.322 130.794 120.322C130.773 120.322 130.729 120.279 130.729 120.257C130.536 120.104 130.321 120.061 130.084 120.061C129.826 120.061 129.568 120.082 129.352 120.235C129.309 120.279 129.266 120.301 129.223 120.344C129.202 120.366 129.18 120.388 129.159 120.41C129.137 120.432 129.137 120.432 129.116 120.453C129.094 120.475 129.094 120.475 129.073 120.475C128.965 120.41 128.836 120.388 128.728 120.388C128.664 120.388 128.578 120.41 128.513 120.453C128.492 120.453 128.427 120.497 128.406 120.497C128.384 120.497 128.32 120.453 128.298 120.453C128.169 120.41 128.018 120.388 127.868 120.41C127.717 120.432 127.588 120.497 127.459 120.584C127.394 120.628 127.351 120.672 127.308 120.715C127.287 120.737 127.265 120.759 127.244 120.781C127.222 120.803 127.201 120.803 127.201 120.824C127.201 120.824 127.05 120.759 127.028 120.737C126.942 120.715 126.856 120.715 126.792 120.737C126.641 120.781 126.512 120.89 126.404 121.021C126.34 121.086 126.297 121.152 126.254 121.217C126.232 121.261 126.211 121.283 126.211 121.326C126.211 121.348 126.189 121.37 126.189 121.37C126.168 121.392 126.168 121.392 126.146 121.392C126.017 121.435 125.91 121.501 125.823 121.61C125.737 121.719 125.673 121.828 125.651 121.959V122.003C125.651 122.003 125.63 122.003 125.608 122.003C125.565 122.003 125.544 122.003 125.501 122.025C125.436 122.046 125.393 122.068 125.329 122.09C125.113 122.199 124.963 122.396 124.898 122.614C124.812 122.854 124.812 123.116 124.92 123.356C124.941 123.399 124.963 123.421 124.963 123.465C124.984 123.487 124.984 123.487 124.963 123.508C124.963 123.53 124.941 123.552 124.92 123.574C124.877 123.661 124.855 123.727 124.834 123.814C124.812 123.945 124.791 124.098 124.812 124.229C124.834 124.294 124.855 124.36 124.877 124.425C124.898 124.447 124.92 124.49 124.941 124.512C124.963 124.534 124.963 124.534 124.984 124.556L125.006 124.578C125.027 124.6 125.027 124.578 125.006 124.6C125.006 124.643 124.963 124.687 124.963 124.709C124.941 124.752 124.941 124.796 124.92 124.818C124.898 124.905 124.877 124.992 124.855 125.058C124.834 125.211 124.834 125.385 124.92 125.538C124.963 125.603 125.006 125.647 125.049 125.691C125.07 125.712 125.113 125.734 125.135 125.756C125.156 125.756 125.178 125.778 125.178 125.778C125.178 125.8 125.178 125.822 125.178 125.843C125.156 126.018 125.135 126.171 125.199 126.345C125.243 126.498 125.35 126.629 125.479 126.716C125.716 126.891 126.06 126.869 126.318 126.738C126.383 126.694 126.447 126.651 126.512 126.607C126.663 126.804 126.942 126.804 127.158 126.738C127.416 126.673 127.631 126.476 127.76 126.236C127.932 126.433 128.276 126.367 128.384 126.149C128.406 126.105 128.427 126.04 128.427 125.974C128.427 125.953 128.427 125.909 128.427 125.887C128.427 125.843 128.449 125.8 128.47 125.778C128.492 125.712 128.513 125.625 128.513 125.538C128.513 125.494 128.513 125.451 128.513 125.407C128.513 125.363 128.513 125.342 128.535 125.298C128.47 125.32 128.384 125.298 128.32 125.276C128.255 125.254 128.19 125.211 128.147 125.167C128.04 125.058 127.975 124.927 127.932 124.774C127.846 124.469 127.868 124.098 128.19 123.923C128.341 123.836 128.771 123.836 128.922 123.879C129.094 123.923 129.309 124.316 129.309 124.36C129.309 124.381 129.309 124.403 129.331 124.425C129.374 124.469 129.46 124.403 129.481 124.381C129.546 124.338 129.589 124.272 129.611 124.185C129.697 124.032 129.761 123.879 129.804 123.705C129.847 123.574 129.869 123.443 129.912 123.334C129.955 123.203 130.019 123.094 130.149 123.028C130.278 122.963 130.407 122.919 130.536 122.876C130.665 122.832 130.794 122.766 130.902 122.679C130.923 122.657 130.945 122.636 130.966 122.614C130.988 122.592 130.988 122.548 131.009 122.548C131.052 122.526 131.095 122.57 131.117 122.592C131.267 122.679 131.375 122.81 131.483 122.963C131.569 123.094 131.655 123.247 131.719 123.399C131.762 123.508 131.805 123.661 131.891 123.77C131.934 123.814 132.214 123.836 132.3 123.792C132.386 123.748 132.494 123.661 132.515 123.596C132.537 123.53 132.558 123.465 132.537 123.399C132.537 123.356 132.515 123.312 132.494 123.29C132.494 123.247 132.472 123.225 132.472 123.203C132.451 123.137 132.386 123.094 132.322 123.094C132.386 123.028 132.429 122.963 132.472 122.876C132.515 122.788 132.537 122.701 132.558 122.592C132.558 122.526 132.559 122.439 132.515 122.374C132.472 122.308 132.408 122.265 132.343 122.221C132.451 122.134 132.537 122.046 132.602 121.937C132.731 121.828 132.817 121.588 132.752 121.326Z" fill="#6BB8DC"/>
<path d="M131.87 124.73C131.891 125.189 132.558 125.603 132.451 126.062C132.322 126.149 131.848 126.302 131.762 126.171" fill="#C1E3F2"/>
<path d="M131.892 124.512L131.698 124.534C131.633 124.534 131.569 124.534 131.526 124.534C131.461 124.534 131.397 124.534 131.354 124.512C131.289 124.512 131.246 124.49 131.16 124.49C131.181 124.403 131.268 124.359 131.332 124.338C131.397 124.316 131.461 124.294 131.547 124.294C131.612 124.294 131.676 124.316 131.762 124.338C131.784 124.381 131.848 124.425 131.892 124.512Z" fill="#6BB8DC"/>
<path d="M131.719 126.695C131.59 126.716 131.461 126.716 131.332 126.716C131.203 126.695 131.074 126.651 130.945 126.564L130.6 126.236L131.031 126.367C131.138 126.411 131.267 126.433 131.375 126.476C131.44 126.498 131.504 126.52 131.547 126.542C131.612 126.564 131.676 126.585 131.719 126.629C131.655 126.607 131.59 126.607 131.547 126.607C131.483 126.607 131.418 126.607 131.375 126.607C131.246 126.607 131.138 126.607 131.009 126.607L131.095 126.411C131.16 126.498 131.246 126.564 131.353 126.607C131.483 126.651 131.612 126.673 131.719 126.695Z" fill="#6BB8DC"/>
<path d="M131.547 125.014C131.618 125.014 131.676 124.956 131.676 124.883C131.676 124.811 131.618 124.752 131.547 124.752C131.476 124.752 131.418 124.811 131.418 124.883C131.418 124.956 131.476 125.014 131.547 125.014Z" fill="#6BB8DC"/>
<path d="M136.475 136.951L139.961 139.548C140.907 139.809 141.703 140.137 142.327 140.508C142.478 140.639 142.65 140.922 142.048 140.879C141.424 140.835 140.778 140.813 140.692 141.031C140.606 141.25 140.972 141.512 140.8 141.795C140.692 141.992 140.133 141.512 139.164 140.333L135.722 138.893L136.475 136.951ZM120.724 135.86L122.639 136.209C120.401 140.704 119.217 143.083 119.045 143.345C118.68 143.934 119.045 144.981 119.174 145.527C118.378 145.723 118.68 144.501 117.668 144.785C116.764 145.025 115.99 145.636 115.108 144.85C115 144.763 114.914 144.458 115.28 144.283C116.162 143.868 117.475 143.105 117.69 142.821C117.991 142.428 119.002 140.115 120.724 135.86Z" fill="#C1E3F2"/>
<path d="M137.292 137.235C137.744 137.213 138.218 137.278 138.756 137.453C139.014 137.54 139.143 137.824 139.057 138.086C139.014 138.238 138.885 138.348 138.756 138.391C138.863 138.457 138.949 138.544 139.057 138.609L138.175 140.421C134.474 138.544 131.009 137.147 129.417 134.049C128.879 133.023 129.073 129.488 129.008 128.222L130.17 127.742C131.805 131.168 134.022 134.441 137.292 137.235Z" fill="#F45F0C"/>
<path d="M124.92 140.137C128.363 140.53 131.052 140.53 133.032 140.137C133.269 140.093 133.269 139.024 133.161 138.74C131.397 134.201 130.235 130.884 130.235 127.72C129.912 127.895 129.352 127.917 128.535 127.808C126.34 131.037 125.35 134.769 124.92 140.137Z" fill="#88C6E3"/>
<path d="M124.274 140.683C124.167 140.573 124.102 140.399 124.124 140.224L124.188 139.897C124.231 139.679 124.403 139.504 124.618 139.482C124.662 139.308 124.683 139.155 124.705 138.98C124.92 137.606 124.554 136.231 124.575 134.9C122.811 136.427 121.24 139.046 119.842 142.777L117.776 142.166C117.862 141.861 117.926 141.577 118.013 141.294C117.776 141.163 117.496 140.53 117.69 140.421C117.905 140.312 118.12 140.246 118.357 140.181C120.25 134.398 123.349 130.186 127.631 127.502H128.212H128.857C128.492 132.412 133.548 143.105 131.784 152.248C128.535 152.99 123.908 150.699 119.411 152.532C119.605 148.866 122.962 144.545 124.274 140.683Z" fill="#F77B0B"/>
<path d="M128.104 127.633L127.523 129.379L128.664 130.71L127.631 131.735L130.127 136.056L127.093 131.757L128.104 130.71L127.093 129.531L128.104 127.633Z" fill="#F45F0C"/>
<path d="M129.395 137.715C129.159 137.715 128.965 137.518 128.965 137.278C128.965 137.038 129.159 136.842 129.395 136.842C129.632 136.842 129.826 137.038 129.826 137.278C129.826 137.518 129.632 137.715 129.395 137.715ZM129.933 140.246C129.697 140.246 129.503 140.05 129.503 139.81C129.503 139.57 129.697 139.373 129.933 139.373C130.17 139.373 130.364 139.57 130.364 139.81C130.385 140.05 130.17 140.246 129.933 140.246ZM130.041 142.799C129.804 142.799 129.611 142.603 129.611 142.363C129.611 142.123 129.804 141.926 130.041 141.926C130.278 141.926 130.471 142.123 130.471 142.363C130.471 142.603 130.299 142.799 130.041 142.799Z" fill="#F45F0C"/>
<path d="M25.5148 130.612L27.9128 139.087L29.6535 145.329H30.9316L29.0814 130.612H25.5148Z" fill="#1E9ED1"/>
<path d="M24.8698 130.612C24.809 134.978 24.6264 137.357 24.5655 137.762C24.5047 138.155 23.6282 140.681 21.9241 145.329H23.2509C25.4176 140.865 26.6227 138.338 26.8783 137.762C27.1339 137.186 27.913 134.794 29.0815 130.612H24.8698Z" fill="#6BB8DC"/>
<path d="M21.8144 146.531L21.8752 145.133H23.2629C23.9202 145.599 24.7845 145.979 25.8435 146.261V146.531H23.336L22.4717 146.396V146.531H21.8144Z" fill="#1174BA"/>
<path d="M29.4831 146.531L29.5439 145.133H30.9316C31.5889 145.599 32.4532 145.979 33.5122 146.261V146.531H31.0047L30.1404 146.396V146.531H29.4831Z" fill="#1174BA"/>
<path d="M26.6834 121.046C26.3791 120.69 26.1721 120.249 26.2086 119.746C26.306 118.323 28.278 118.63 28.6553 119.353C29.0327 120.077 28.9962 121.892 28.4971 122.027C28.3023 122.076 27.8763 121.953 27.4502 121.696L27.718 123.609H26.1356L26.6834 121.046Z" fill="#1E9ED1"/>
<path d="M28.8137 119.672C28.8016 119.574 28.765 119.476 28.7285 119.39C28.692 119.28 28.6311 119.169 28.5581 119.071C28.4364 118.887 28.2781 118.728 28.1199 118.593C27.8156 118.348 27.4261 118.201 27.0487 118.25C26.8539 118.274 26.6714 118.348 26.5131 118.47C26.367 118.581 26.2331 118.74 26.0506 118.752C25.8436 118.765 25.661 118.581 25.5028 118.47C25.3202 118.348 25.1254 118.25 24.9185 118.225C24.5655 118.164 24.2247 118.286 23.9812 118.581C23.7256 118.9 23.5308 119.353 23.7012 119.77C23.7378 119.844 23.7743 119.918 23.8351 119.967C23.8838 120.016 23.969 120.065 23.9934 120.151C24.0177 120.236 23.9447 120.347 23.9204 120.42C23.8838 120.531 23.8473 120.641 23.8595 120.764C23.8838 120.96 23.9934 121.144 24.1273 121.267C24.2612 121.402 24.4194 121.475 24.5898 121.5C24.6994 121.524 24.8211 121.536 24.9307 121.524C24.9915 121.524 25.0402 121.5 25.0889 121.487C25.1376 121.475 25.1741 121.487 25.2228 121.524C25.4419 121.659 25.661 121.72 25.9167 121.696C26.1236 121.684 26.367 121.622 26.5375 121.487C26.7322 121.328 26.72 121.107 26.6835 120.874C26.7322 120.899 26.8661 120.911 26.7809 120.813C26.7444 120.776 26.6957 120.764 26.647 120.739C26.5983 120.715 26.5496 120.678 26.5131 120.641C26.367 120.469 26.5131 120.138 26.6957 120.077C26.9635 119.991 27.0244 120.384 27.2191 120.482C27.3287 120.543 27.4504 120.457 27.5234 120.384C27.633 120.273 27.706 120.138 27.7791 119.991C27.8277 119.869 27.8886 119.758 27.9373 119.635C27.9616 119.586 28.0469 119.427 28.0103 119.366C28.2051 119.329 28.4242 119.402 28.5824 119.513C28.6555 119.562 28.7042 119.611 28.7407 119.685C28.7529 119.697 28.765 119.746 28.7894 119.758C28.8259 119.746 28.8137 119.697 28.8137 119.672Z" fill="#1174BA"/>
<path d="M28.8988 120.494C28.984 120.69 29.2031 120.801 29.1544 121.058C29.057 121.107 28.9596 121.168 28.8501 121.181" fill="#1E9ED1"/>
<path d="M28.8135 120.237C28.7891 120.187 28.7404 120.151 28.7039 120.138C28.6552 120.114 28.6065 120.102 28.5578 120.089C28.5092 120.089 28.4483 120.089 28.3996 120.126C28.3509 120.151 28.3144 120.212 28.3144 120.261C28.3631 120.237 28.3996 120.224 28.4361 120.212C28.4726 120.212 28.5092 120.212 28.5578 120.212C28.6309 120.212 28.7039 120.224 28.8135 120.237Z" fill="#1174BA"/>
<path d="M28.7527 121.585C28.6797 121.536 28.6066 121.524 28.5458 121.499C28.4849 121.487 28.4119 121.463 28.3266 121.463C28.3632 121.548 28.4362 121.598 28.5092 121.622C28.5944 121.634 28.6797 121.634 28.7527 121.585Z" fill="#1174BA"/>
<path d="M28.6431 120.482C28.596 120.482 28.5579 120.443 28.5579 120.396C28.5579 120.348 28.596 120.31 28.6431 120.31C28.6901 120.31 28.7283 120.348 28.7283 120.396C28.7283 120.443 28.6901 120.482 28.6431 120.482Z" fill="#1174BA"/>
<path d="M26.0868 122.088C26.099 122.039 26.1233 121.99 26.1355 121.941L26.1964 121.965C26.2085 121.953 26.2207 121.941 26.2207 121.941L28.0709 122.223C28.0709 123.265 28.8987 124.247 29.4221 125.093C30.2377 126.405 31.6862 127.852 30.7611 129.802C29.9212 131.556 27.7423 131.838 24.2244 130.661C24.2244 129.716 24.9913 128.76 25.0156 127.619C25.04 126.515 25.2469 123.204 26.0868 122.088Z" fill="#1174BA"/>
<path d="M29.349 130.048C29.5194 130.244 29.9089 130.771 30.1767 130.722C30.7123 130.612 31.0045 129.864 30.8949 129.569C30.834 129.496 30.6271 129.753 30.335 129.729C30.1767 129.716 29.6168 129.152 28.6308 128.024C28.5943 128.245 28.5091 128.674 28.3873 129.312C28.9716 129.729 29.2881 129.974 29.349 130.048ZM30.128 126.197C30.128 126.393 29.4342 126.503 29.4342 126.773C29.4342 127.031 30.4445 127.423 30.688 127.423C30.9314 127.423 30.7853 126.405 30.6393 126.197C30.4932 125.976 30.3471 125.878 30.0915 125.878C29.8359 125.878 30.128 126 30.128 126.197Z" fill="#1E9ED1"/>
<path d="M27.8762 130.281C27.864 130.33 27.8397 130.391 27.8275 130.452C24.9305 128.416 24.9305 125.939 25.7947 123.18C25.1496 125.902 25.4052 128.196 27.8762 130.281Z" fill="#88C6E3"/>
</svg>
