<svg width="257" height="230" viewBox="0 0 257 230" fill="none" xmlns="http://www.w3.org/2000/svg">
<path d="M196.476 209.276C172.454 220.745 139.351 220.16 125.802 218.434C93.7006 218.124 46.4015 202.754 26.8539 190.818C7.30641 178.883 -4.00014 158.722 4.67431 147.974C11.352 139.699 22.6572 134.536 47.2843 131.188C83.1027 126.318 132.655 134.759 151.647 134.855C170.639 134.951 237.696 129.95 246.474 137.936C255.253 145.922 251.87 157.623 240.627 169.262C229.384 180.901 226.503 194.941 196.476 209.276Z" fill="#EEF8FF"/>
<path d="M49.105 161.289H135.048V16.3584H93.6235L49.105 77.5027V161.289Z" fill="#06508C"/>
<path d="M90.4294 160.89H179.566V77.1038L132.652 19.1514L90.4294 77.1038V160.89Z" fill="#C1E3F2"/>
<path d="M135.048 16.3584L132.752 19.65L179.566 77.5027H183.459L135.048 16.3584Z" fill="#F45F0C"/>
<path d="M135.048 16.3584H93.6236L45.4119 82.3902H90.4295L135.048 16.3584Z" fill="#F77B0B"/>
<path d="M102.196 24.6792L114.773 24.6792L114.773 0.0419579L102.196 0.0419579L102.196 24.6792Z" fill="#06508C"/>
<path d="M114.785 24.6372V0H124.766V16.3583H119.776L114.785 24.6372Z" fill="#06508C"/>
<path d="M179.566 148.721H90.2297V161.289H179.566V148.721Z" fill="#06508C"/>
<path d="M47.3649 161.228L90.1865 161.228L90.1865 148.66L47.3649 148.66L47.3649 161.228Z" fill="#1174BA"/>
<path d="M79.6652 99.5728L85.4546 99.5728L85.4546 87.703L79.6652 87.703L79.6652 99.5728Z" fill="#1174BA"/>
<path d="M71.0848 99.5728L76.8743 99.5728L76.8743 87.703L71.0848 87.703L71.0848 99.5728Z" fill="#1174BA"/>
<path d="M62.2795 99.5728L68.0688 99.5728L68.0688 87.703L62.2795 87.703L62.2795 99.5728Z" fill="#1174BA"/>
<path d="M115.095 161.289V108.465C115.095 97.0393 124.681 87.6912 136.626 87.6912C148.424 87.6912 158.158 97.0393 158.158 108.465V161.289H115.095Z" fill="#6BB8DC"/>
<path d="M155.026 161.289H118.227V108.679C118.227 98.4576 126.388 90.04 136.626 90.04C146.716 90.04 155.026 98.3073 155.026 108.679V161.289Z" fill="#06508C"/>
<path d="M207.776 127.108L199.255 157.036L193.025 179.083H188.498L195.101 127.108H207.776Z" fill="#A4D5EA"/>
<path d="M210.065 127.108C210.278 142.551 210.917 150.912 211.13 152.35C211.343 153.734 214.485 162.681 220.503 179.083H215.817C208.095 163.32 203.835 154.427 202.929 152.35C202.024 150.273 199.255 141.859 195.101 127.108H210.065Z" fill="#C1E3F2"/>
<path d="M220.929 183.343L220.716 178.39H215.763C213.42 180.041 210.385 181.373 206.604 182.384V183.343H215.55L218.586 182.864V183.343H220.929Z" fill="#88C6E3"/>
<path d="M193.664 183.343L193.451 178.39H188.498C186.155 180.041 183.119 181.373 179.339 182.384V183.343H188.285L191.32 182.864V183.343H193.664Z" fill="#88C6E3"/>
<path d="M204.048 97.4994C205.113 96.2213 205.858 94.677 205.752 92.9197C205.379 87.9139 198.403 88.9789 197.018 91.5351C195.634 94.0912 195.794 100.535 197.604 100.961C198.296 101.121 199.788 100.695 201.332 99.7893L200.373 106.552H206.018L204.048 97.4994Z" fill="#C1E3F2"/>
<path d="M199.255 88.7659C200 88.5528 201.119 88.4463 201.598 88.4996C201.332 87.8606 201.225 87.1683 201.332 86.4227C201.438 85.7304 201.704 85.1447 202.024 84.5589C202.131 84.2926 202.29 84.0263 202.503 83.8133C202.716 83.6003 202.983 83.4406 203.302 83.3873C203.622 83.3341 203.941 83.3341 204.207 83.3873C204.367 83.4406 204.474 83.4938 204.58 83.4938C204.74 83.5471 204.793 83.4406 204.9 83.3341C205.113 83.1211 205.485 83.0145 205.752 83.0145C206.071 82.9613 206.444 83.0145 206.764 83.121C207.083 83.2276 207.349 83.3873 207.616 83.6536C207.722 83.7601 207.829 83.9198 207.882 84.0263C207.882 84.0796 207.935 84.1329 207.988 84.1329C208.042 84.1329 208.095 84.1329 208.148 84.1861C208.681 84.3459 209.16 84.7719 209.373 85.3044C209.533 85.6239 209.586 86.1565 209.586 86.7422C209.586 87.328 209 88.9256 208.521 89.5114C208.042 90.0439 207.403 90.3634 206.764 90.5232C207.19 91.0025 207.509 91.6415 207.722 92.2805C207.935 92.9728 208.095 93.6651 208.148 94.4106C208.201 95.1029 208.201 95.7952 208.042 96.4875C207.882 97.1265 207.562 97.6058 207.03 97.9786C206.764 98.1384 206.497 98.2449 206.231 98.3514C205.965 98.4579 205.698 98.5644 205.432 98.6176C204.9 98.7241 204.314 98.7241 203.888 98.2981C203.728 98.1383 203.568 97.9786 203.462 97.7656C203.409 97.7123 203.409 97.6591 203.462 97.6058C203.515 97.5526 203.622 97.4461 203.675 97.3928C204.101 97.0733 204.314 96.594 204.367 96.0615C204.42 95.529 204.261 94.7834 203.728 94.5704C203.089 94.2509 202.344 94.6237 201.758 94.9432C201.491 94.0379 201.012 93.2923 200.213 92.8663C199.308 92.4403 198.296 92.387 197.391 91.961C197.178 91.8545 196.912 91.748 196.752 91.535C196.699 91.4285 196.592 91.322 196.539 91.2155C196.486 91.0557 196.592 90.9492 196.645 90.8427C196.965 90.2569 198.456 89.0321 199.255 88.7659Z" fill="#88C6E3"/>
<path d="M196.379 95.2627C196.379 96.2212 195.367 97.02 195.367 97.9786C195.74 98.0851 196.166 98.1383 196.539 98.1916" fill="#C1E3F2"/>
<path d="M196.539 99.5762C196.858 99.6827 197.231 99.6294 197.497 99.4697C197.764 99.3099 198.03 99.0436 198.136 98.7241C197.817 98.8839 197.604 98.9904 197.338 99.1501C197.125 99.2567 196.858 99.3632 196.539 99.5762Z" fill="#1174BA"/>
<path d="M198.03 94.8368C198.083 94.6771 197.977 94.4641 197.817 94.3575C197.71 94.251 197.497 94.1978 197.338 94.1445C197.178 94.1445 197.018 94.1445 196.858 94.1978C196.699 94.251 196.592 94.4108 196.539 94.5706C196.699 94.5173 196.805 94.5173 196.965 94.4641C197.071 94.4641 197.231 94.4641 197.338 94.4641C197.444 94.4641 197.551 94.5173 197.71 94.5173C197.764 94.6771 197.923 94.7303 198.03 94.8368Z" fill="#1174BA"/>
<path d="M196.965 95.742C196.818 95.742 196.699 95.6228 196.699 95.4757C196.699 95.3287 196.818 95.2095 196.965 95.2095C197.112 95.2095 197.231 95.3287 197.231 95.4757C197.231 95.6228 197.112 95.742 196.965 95.742Z" fill="#1174BA"/>
<path d="M186.581 119.439L178.06 115.712C176.569 114.221 175.131 113.102 173.747 112.304C173.321 112.197 172.629 112.144 173.374 113.262C174.12 114.38 174.865 115.552 174.599 115.978C174.279 116.351 173.427 115.925 173.054 116.564C172.841 116.99 174.279 117.469 177.474 118.055L183.865 122.954L186.581 119.439ZM221.035 120.505L216.243 121.463C221.089 130.516 223.698 135.256 224.017 135.841C224.816 137.066 224.071 139.303 223.804 140.474C225.509 140.847 224.816 138.291 227 138.824C228.97 139.303 230.674 140.581 232.485 138.877C232.698 138.664 232.857 138.025 232.112 137.705C230.195 136.853 227.319 135.309 226.893 134.723C226.254 133.818 224.337 129.132 221.035 120.505Z" fill="#DDF2F9"/>
<path d="M203.142 102.452L201.119 102.079C196.699 106.393 194.888 116.67 191.906 118.055C189.137 119.333 185.143 118.108 180.456 116.404L179.019 119.599C183.279 124.232 192.385 128.12 196.06 125.883C201.971 122.422 203.355 109.694 203.142 102.452Z" fill="#06508C"/>
<path d="M211.982 128.013C203.835 128.013 197.817 128.013 193.983 128.013C193.184 128.013 193.291 126.842 193.45 126.203C194.835 119.28 200.16 111.824 200.16 101.973L205.326 101.174C209.639 108.097 211.13 116.617 211.982 128.013Z" fill="#DDF2F9"/>
<path d="M213.793 121.037C217.467 127.64 220.556 132.433 223.059 135.309L231.065 124.531C228.615 109.46 217.361 108.363 205.752 101.227H205.698H203.728C199.095 117.096 197.764 127.694 199.894 132.966H216.083C215.71 129.078 214.911 125.031 213.793 121.037Z" fill="#1174BA"/>
<path d="M223.222 130.989L214.595 160.651L210.548 182.964H206.501L210.548 130.989H223.222Z" fill="#1174BA"/>
<path d="M227.11 130.989C226.524 146.432 226.737 154.793 226.897 156.231C227.057 157.615 227.802 166.988 233.021 183.443H228.814C221.944 167.68 219.495 158.307 218.749 156.231C217.95 154.154 215.607 145.74 212.199 130.989H227.11Z" fill="#1174BA"/>
<path d="M223.436 130.989C221.199 141.213 217.311 157.509 211.826 179.875H205.862C205.436 156.87 207.3 141.746 210.548 130.989H223.436Z" fill="#F45F0C"/>
<path d="M227.11 130.989C226.524 146.432 228.068 161.609 232.755 180.141H226.418C219.495 164.645 214.542 149.521 211.187 130.989H227.11Z" fill="#F77B0B"/>
<path d="M233.553 186.478L233.34 182.697C231.956 183.123 230.252 182.964 228.228 182.218C225.992 183.762 223.222 184.827 219.867 185.413C219.601 185.466 219.441 185.679 219.495 185.946V185.999L219.814 187.117H228.228H233.127L233.553 186.478Z" fill="#6BB8DC"/>
<path d="M211.454 186.478L211.241 182.697C209.856 183.123 208.152 182.964 206.128 182.218C203.892 183.762 201.123 184.827 197.768 185.413C197.501 185.466 197.342 185.679 197.395 185.946V185.999L197.714 187.117H206.128H211.028L211.454 186.478Z" fill="#6BB8DC"/>
<path d="M221.145 101.327C222.21 100.049 222.956 98.5044 222.849 96.747C222.477 91.7413 215.501 92.8063 214.116 95.3625C212.731 97.9186 212.891 104.362 214.702 104.788C215.394 104.948 216.885 104.522 218.429 103.617L217.471 110.38H223.116L221.145 101.327Z" fill="#1174BA"/>
<path d="M221.571 102.498C222.263 99.3566 224.287 97.2264 223.968 95.7886C223.755 94.8301 223.222 94.2443 222.317 94.0313C221.837 92.1674 220.346 91.3686 217.843 91.6349C214.062 92.0609 211.773 93.6052 212.784 97.0667C213.69 97.0667 214.808 96.7472 216.299 97.2797C216.778 97.4394 217.151 98.0252 217.311 98.9305H218.003C218.695 97.8122 219.335 97.4394 219.974 97.7057C220.613 98.0252 220.772 98.7175 220.4 99.8358L220.719 102.445H221.571V102.498Z" fill="#06508C"/>
<path d="M213.371 99.3032C213.158 99.9955 212.998 100.741 212.891 101.433C212.785 102.232 212.838 102.658 213.797 102.552" fill="#1174BA"/>
<path d="M214.276 98.7708C214.542 98.7175 214.755 98.6642 214.968 98.611C215.181 98.611 215.447 98.611 215.714 98.5577C215.607 98.5045 215.501 98.4512 215.341 98.398C215.234 98.3447 215.075 98.3447 214.915 98.3447C214.702 98.398 214.436 98.5577 214.276 98.7708Z" fill="#06508C"/>
<path d="M214.649 99.8358C214.472 99.8358 214.329 99.6928 214.329 99.5163C214.329 99.3398 214.472 99.1968 214.649 99.1968C214.825 99.1968 214.968 99.3398 214.968 99.5163C214.968 99.6928 214.825 99.8358 214.649 99.8358Z" fill="#06508C"/>
<path d="M213.797 103.67C214.01 103.777 214.276 103.83 214.542 103.723C214.808 103.617 214.915 103.404 215.075 103.244C214.968 103.244 214.808 103.297 214.702 103.351C214.595 103.404 214.489 103.457 214.382 103.51C214.276 103.564 214.01 103.564 213.797 103.67Z" fill="#06508C"/>
<path d="M204.903 127.208L197.874 132.373C195.957 132.906 194.359 133.545 193.081 134.29C192.762 134.557 192.389 135.142 193.667 135.036C194.945 134.929 196.276 134.876 196.436 135.302C196.596 135.728 195.85 136.261 196.223 136.847C196.436 137.219 197.554 136.261 199.525 133.971L206.501 131.095L204.903 127.208ZM232.009 127.368H227.376C230.252 136.58 231.743 141.48 232.009 142.012C232.541 143.29 231.423 145.207 230.997 146.272C232.488 146.965 232.328 144.462 234.245 145.314C236.003 146.113 237.281 147.604 239.305 146.326C239.571 146.166 239.837 145.58 239.145 145.154C237.494 144.036 235.151 142.065 234.831 141.426C234.405 140.627 233.447 135.941 232.009 127.368Z" fill="#1174BA"/>
<path d="M218.856 107.983L216.938 107.664C209.856 113.788 206.927 125.557 198.247 131.787L200.324 134.397C215.447 132.533 219.175 118.155 218.856 107.983Z" fill="#88C6E3"/>
<path d="M227.216 132C219.548 132 213.903 132 210.282 132C209.483 132 209.643 130.882 209.749 130.296C211.027 123.799 216.086 116.77 216.086 107.557L220.986 106.812C225.033 113.309 226.417 121.297 227.216 132Z" fill="#DDF2F9"/>
<path d="M227.056 113.202C227.749 112.989 228.334 112.51 228.76 111.764C230.518 108.569 229.879 106.759 228.015 106.173C226.098 105.587 224.394 106.812 221.358 106.812C221.199 106.812 221.039 106.812 220.879 106.865L219.335 106.972C214.968 121.829 213.743 131.734 215.714 136.687H229.027C229.826 138.551 230.571 140.095 231.317 141.32H234.938C235.311 130.243 232.648 120.871 227.056 113.202Z" fill="#A4D5EA"/>
<path d="M226.151 129.018C225.725 132.533 225.033 135.089 224.128 136.633H229.08C228.122 134.503 227.163 132 226.151 129.018Z" fill="#88C6E3"/>
<path d="M232.662 115.212C230.745 114.147 227.603 112.904 226.805 113.082L230.532 118.673L230 120.271L233.461 122.401C234.526 121.336 235.059 116.543 232.662 115.212Z" fill="#1174BA"/>
<path d="M229.733 126.661C231.437 125.809 232.573 123.288 232.928 122.134L230.532 120.271C230.266 120.448 229.52 121.016 228.668 121.868C227.603 122.933 227.603 123.466 227.869 123.466C228.136 123.466 229.733 122.933 229.467 123.466C229.254 123.892 228.136 125.951 227.603 126.927C227.603 127.193 228.029 127.513 229.733 126.661Z" fill="#C1E3F2"/>
<path d="M29.1157 89.9147C26.0137 85.7811 25.4967 78.8917 27.22 75.2748C28.7711 71.6579 35.4922 71.4857 35.4922 71.4857C35.4922 71.4857 34.4582 56.5013 43.7643 58.0514C53.0704 59.6015 48.5897 81.1307 48.5897 81.1307C48.5897 81.1307 57.8958 83.7143 57.5511 94.3927C57.2065 105.071 51.1747 107.138 51.1747 107.138C51.1747 107.138 61.6872 112.305 58.4128 124.706C56.3448 132.973 51.5194 141.068 42.2132 141.929C36.3538 142.446 30.4944 139.69 26.703 135.212C23.2563 131.251 20.6713 125.567 21.016 120.056C21.3606 114.889 24.635 110.583 27.7371 106.794C27.9094 106.621 27.9094 106.621 27.9094 106.449C27.9094 106.277 27.737 106.105 27.5647 105.932C26.0137 104.21 23.2563 103.866 23.2563 99.043C23.4287 91.9815 29.4604 90.4314 29.1157 89.9147Z" fill="#88C6E3"/>
<path d="M53.415 114.028L46.177 121.606L46.0046 121.778L45.6599 113.855L45.3153 122.467L41.6962 126.256L41.1792 101.799L50.4853 90.6038L46.0046 95.2541L45.8323 90.6038L45.3153 95.943L41.1792 100.249L40.4899 76.9973V97.1487V108.172L36.1815 103.349L35.4921 96.2875L35.6645 102.832L30.4944 97.1487L40.4899 109.894V173.448L42.7302 173.793L41.6962 127.29L53.415 114.028Z" fill="#1E9ED1"/>
<path d="M71.5103 97.6654C69.787 97.1487 68.0636 97.1487 66.3403 97.6654C60.6532 99.5599 60.9979 106.966 60.8255 111.616C57.2065 111.789 54.2768 112.822 53.4151 116.783C52.8981 118.85 53.9321 121.434 54.6214 123.673C54.6214 123.673 52.2087 126.084 51.1747 127.978C49.4514 130.906 50.1407 134.868 52.0364 137.624C54.6214 141.24 58.9298 142.963 63.0659 144.168C73.7507 146.924 89.6056 145.891 92.1906 132.284C93.0523 127.634 90.1226 125.223 86.1589 123.845C85.9865 123.845 85.8142 123.673 85.8142 123.5C85.6419 123.328 85.8142 123.156 85.8142 122.984C86.1589 121.606 86.8482 120.228 86.8482 118.85C87.0206 117.128 86.5035 115.405 85.2972 114.028C83.5738 111.961 81.3335 111.789 78.9208 111.444C78.7484 111.444 78.7484 105.588 78.7484 104.899C78.2314 102.316 76.1634 100.077 74.0954 98.871C73.2337 98.3543 72.372 98.0098 71.5103 97.6654Z" fill="#1E9ED1"/>
<path d="M83.9184 130.562L70.3039 136.073L69.6146 105.76V122.639L62.3765 118.678L69.6146 123.5L69.9592 177.237H71.1656L70.3039 136.935L83.9184 130.562Z" fill="#88C6E3"/>
<path d="M21.9907 174.833C22.5077 172.078 26.4714 169.666 28.5394 168.288C30.2628 167.083 32.1585 166.394 34.2265 166.222C34.5712 166.222 38.7073 165.877 38.3626 166.566C40.9476 158.127 46.4624 159.16 46.4624 159.16C46.4624 159.16 50.0814 146.243 57.1472 146.415C64.2129 146.587 61.2832 163.121 61.2832 163.121C68.0043 164.672 69.383 175.006 69.383 175.006C69.383 175.006 69.383 176.383 68.866 176.728C68.1766 177.072 61.8002 179.656 57.4918 179.139C53.1834 178.795 52.1494 177.589 52.1494 177.589C52.1494 177.589 49.2197 179.311 47.4964 178.967C45.773 178.795 43.705 177.417 43.705 177.417C43.705 177.417 40.2583 180 35.6052 179.139C30.9522 178.622 28.1948 176.556 28.1948 176.556C28.0224 176.383 26.9884 176.9 26.8161 176.9C25.4374 177.245 23.3694 177.072 22.3354 176.039C21.9907 175.695 21.8184 175.35 21.9907 174.833Z" fill="#88C6E3"/>
<path d="M56.8027 152.787L52.1497 177.245" stroke="#1E9ED1" stroke-width="0.782957" stroke-miterlimit="10"/>
<path d="M50.5981 150.376L53.8725 167.944" stroke="#1E9ED1" stroke-width="0.782957" stroke-miterlimit="10"/>
<path d="M63.8684 164.327L53.0112 172.594" stroke="#1E9ED1" stroke-width="0.782957" stroke-miterlimit="10"/>
<path d="M42.6709 160.193L43.7049 177.589" stroke="#1E9ED1" stroke-width="0.782957" stroke-miterlimit="10"/>
<path d="M30.2629 167.255L33.0203 178.795" stroke="#1E9ED1" stroke-width="0.782957" stroke-miterlimit="10"/>
<path d="M148.762 61.0708C148.762 68.8815 142.437 75.164 134.669 75.164C126.858 75.164 120.576 68.839 120.576 61.0708C120.576 53.26 126.901 46.9775 134.669 46.9775C142.48 46.9775 148.762 53.3025 148.762 61.0708Z" fill="#6BB8DC"/>
<path d="M135.002 73.4013C141.798 73.2124 147.155 67.5437 146.966 60.74C146.777 53.9362 141.115 48.5737 134.319 48.7625C127.523 48.9514 122.167 54.6201 122.355 61.4239C122.544 68.2276 128.206 73.5901 135.002 73.4013Z" fill="#DDF2F9"/>
</svg>
