<svg width="272" height="210" viewBox="0 0 272 210" fill="none" xmlns="http://www.w3.org/2000/svg">
<path d="M208.726 187.148C183.303 199.697 148.217 198.953 133.853 197.012C99.8307 196.572 49.6553 179.509 28.902 166.312C8.14872 153.116 -3.89586 130.891 5.2645 119.087C12.3163 110 24.2819 104.352 50.3718 100.742C88.3176 95.491 140.86 104.933 160.988 105.097C181.117 105.261 252.169 99.963 261.497 108.78C270.825 117.596 267.276 130.465 255.396 143.241C243.516 156.017 240.505 171.461 208.726 187.148Z" fill="#EEF8FF"/>
<path d="M207.901 123.486C212.842 124.751 217.077 125.314 220.607 125.314C224.136 125.314 227.524 124.33 230.489 122.362C225.689 121.097 221.736 120.394 218.63 120.394C215.525 120.394 211.995 121.519 207.901 123.486Z" fill="#06508C"/>
<path d="M224.56 125.313L224.418 125.173C223.713 123.627 212.419 107.462 211.29 104.51H223.995C224.842 106.759 228.653 120.815 229.218 123.627C230.912 128.125 234.441 142.462 234.865 143.446C235.288 144.43 232.747 145.554 232.042 144.289C230.912 142.181 228.23 136.558 227.101 133.185C225.83 129.811 224.983 126.86 224.56 125.313Z" fill="#88C6E3"/>
<path d="M215.242 128.265C210.866 129.39 194.632 131.357 193.502 131.639C192.373 131.92 191.385 129.671 192.796 129.108C195.055 128.265 201.267 126.438 204.937 125.735C207.902 125.173 210.725 124.61 212.56 124.329C212.419 119.269 211.713 107.04 212.137 104.37H221.736C221.313 106.9 217.501 125.313 216.795 127.141C216.654 127.984 215.948 128.265 215.242 128.265Z" fill="#88C6E3"/>
<path d="M192.927 128.473C192.347 128.431 191.906 128.366 191.629 128.415C191.351 128.463 190.796 128.56 190.126 128.82C190.2 129.236 190.79 132.559 191.945 139.066C192.827 139.197 193.358 138.962 193.26 138.408C193.3 137.83 193.202 137.276 193.153 136.999L194.399 131.927C194.375 131.788 194.375 131.788 194.211 131.674L193.468 131.519C193.092 131.013 192.88 130.622 192.83 130.346C192.781 130.069 192.846 129.629 192.911 129.189C193.279 128.839 193.091 128.587 192.927 128.473Z" fill="#06508C"/>
<path d="M231.195 144.008C230.912 144.571 230.771 144.992 230.771 145.133C230.771 145.414 230.771 145.976 230.912 146.538C231.336 146.538 235.43 146.538 243.194 146.538C243.476 145.695 243.335 145.273 242.629 145.133C241.923 144.992 241.359 144.992 240.935 144.992L235.147 142.884C235.006 142.884 234.865 142.884 234.865 143.024L234.441 143.727C233.736 144.008 233.312 144.149 232.889 144.149C232.606 144.149 232.183 144.008 231.477 143.868C231.477 143.727 231.336 143.868 231.195 144.008Z" fill="#06508C"/>
<path d="M211.995 105.073C216.654 103.808 221.03 103.808 225.124 105.073C226.536 111.117 230.065 113.506 230.63 122.643C223.712 125.876 215.101 120.394 207.901 123.486C205.784 119.269 208.748 108.727 211.995 105.073Z" fill="#6BB8DC"/>
<path d="M217.36 83.9885C216.372 82.7235 215.666 81.1773 215.807 79.4906C216.09 74.7115 222.866 75.6954 224.136 78.2255C225.407 80.6151 225.266 86.7998 223.572 87.2214C222.866 87.362 221.454 86.9403 220.043 86.0969L221.031 92.5628H215.666L217.36 83.9885Z" fill="#88C6E3"/>
<path d="M222.019 75.5548C221.313 75.2736 220.184 75.2736 219.76 75.2736C220.042 74.7114 220.184 74.0086 220.042 73.3058C219.901 72.603 219.619 72.0407 219.337 71.4785C219.195 71.1974 219.054 70.9162 218.913 70.7757C218.631 70.6351 218.49 70.4946 218.207 70.354C217.925 70.354 217.643 70.354 217.36 70.354C217.219 70.354 217.078 70.4946 216.937 70.4946C216.796 70.4946 216.796 70.4946 216.654 70.354C216.372 70.2134 216.09 70.0729 215.807 70.0729C215.525 70.0729 215.102 70.0729 214.819 70.2134C214.537 70.354 214.255 70.4946 213.972 70.7757C213.831 70.9162 213.831 71.0568 213.69 71.1974C213.69 71.1974 213.69 71.3379 213.549 71.3379H213.407C212.843 71.4785 212.419 71.9002 212.278 72.4624C212.137 72.7435 212.137 73.3058 212.137 73.868C212.137 74.4303 212.702 75.9764 213.125 76.5387C213.549 77.1009 214.255 77.3821 214.819 77.5226C214.396 77.9443 214.113 78.6471 213.972 79.2094C213.69 79.9122 213.549 80.4744 213.549 81.1772C213.549 81.88 213.549 82.5828 213.69 83.1451C213.831 83.7073 214.113 84.2696 214.678 84.5507C214.96 84.6912 215.102 84.8318 215.384 84.8318C215.666 84.9724 215.949 84.9724 216.09 85.1129C216.654 85.2535 217.219 85.2535 217.501 84.8318C217.643 84.6912 217.784 84.5507 217.925 84.2696V84.129C217.925 83.9884 217.784 83.9884 217.784 83.9884C217.36 83.7073 217.219 83.2856 217.078 82.7234C217.078 82.1611 217.219 81.4583 217.643 81.3178C218.348 81.0366 218.913 81.3178 219.478 81.5989C219.76 80.7555 220.184 80.0527 221.031 79.631C221.878 79.2094 222.866 79.2094 223.713 78.7877C223.995 78.6471 224.136 78.6471 224.278 78.366C224.278 78.2254 224.419 78.2254 224.419 78.0849C224.419 77.9443 224.419 77.8037 224.278 77.6632C224.136 76.9604 222.725 75.8359 222.019 75.5548Z" fill="#06508C"/>
<path d="M231.054 99.3096L239.101 98.3257C240.653 97.6229 242.206 97.0607 243.477 96.7795C243.9 96.7795 244.465 96.9201 243.618 97.4823C242.771 98.0446 241.783 98.7474 241.924 99.1691C242.065 99.5908 242.912 99.4502 243.053 99.8719C243.194 100.153 241.783 100.294 238.959 100.012L232.466 102.261L231.054 99.3096ZM205.784 100.856H210.302C205.361 110.133 202.82 114.912 202.679 115.334C202.255 116.318 203.243 117.864 203.667 118.567C202.255 119.129 202.396 117.161 200.702 117.864C199.149 118.426 197.879 119.691 196.044 118.707C195.761 118.567 195.62 118.145 196.185 117.864C197.738 117.02 199.855 115.474 200.138 115.052C200.42 114.35 202.255 109.571 205.784 100.856Z" fill="#88C6E3"/>
<path d="M217.925 88.908L221.454 89.0485C222.301 95.6549 226.96 99.7312 237.407 98.3256L238.818 106.759C229.077 107.884 220.466 104.51 218.631 95.6549C218.207 93.4059 217.925 91.0164 217.925 88.908Z" fill="#06508C"/>
<path d="M216.231 88.0646L221.454 89.0485C221.454 96.6388 224.419 101.558 225.83 107.181H211.713C211.572 109.149 211.431 111.117 211.29 113.225H200.561C202.961 102.402 208.043 93.9681 215.949 88.0646H216.231Z" fill="#1174BA"/>
<path d="M213.831 96.3575C213.407 101.137 213.69 104.791 214.537 107.321H211.572C211.996 103.386 212.702 99.731 213.831 96.3575Z" fill="#06508C"/>
<path d="M35.9931 121.251H55.8159L58.3937 153.064H28.9263L35.9931 121.251Z" fill="#1E9ED1"/>
<path d="M35.9931 121.251H42.0822L45.7267 153.064H28.9263L35.9931 121.251Z" fill="#88C6E3"/>
<path d="M78.3497 115.779C80.4386 114.488 83.9942 116.135 83.9942 117.959C83.9942 123.387 79.0608 148.97 78.7941 150.572C78.5275 152.174 75.7718 152.619 75.5941 150.572C75.3274 147.324 74.8829 136.112 75.3273 130.906C75.5051 128.771 75.7274 126.724 75.9496 124.9C73.3717 129.616 69.3272 136.334 63.9048 145.055L60.9714 143.72C63.2826 136.067 65.1937 130.684 66.6604 127.525C69.1938 122.141 71.5939 117.514 72.5717 115.912C74.1718 113.376 76.9274 114.266 78.3497 115.779Z" fill="#06508C"/>
<path d="M61.1938 139.494L71.3274 115.467C73.7719 111.552 80.5721 116.268 79.7277 118.537C77.8609 123.699 68.3051 140.339 67.7273 141.852L61.1938 139.494Z" fill="#1E9ED1"/>
<path d="M60.6233 142.213C60.0147 142.735 59.572 143.146 59.3721 143.493C59.1499 143.878 58.8715 144.539 58.5427 145.376C59.0047 145.643 63.1621 148.046 71.0535 152.608C71.9834 151.707 72.1626 151.04 71.4756 150.541C70.8271 150.063 70.2942 149.652 69.8766 149.308L65.5523 143.368C65.459 143.262 65.3213 143.234 65.1776 143.305L64.2596 144.007C63.4275 143.937 62.7997 143.779 62.4148 143.557C62.0683 143.357 61.7115 142.996 61.2896 142.393C61.2082 142.089 60.8721 142.049 60.6233 142.213Z" fill="#1174BA"/>
<path d="M74.972 149.282C74.7054 150.038 74.5276 150.617 74.5276 151.017C74.5276 151.462 74.6165 152.174 74.7498 153.064C75.2832 153.064 80.0833 153.064 89.1947 153.064C89.5502 151.818 89.3724 151.151 88.528 151.062C87.728 150.973 87.0613 150.884 86.5279 150.795L79.8166 147.814C79.6833 147.769 79.5499 147.814 79.461 147.947L79.0166 149.015C78.261 149.371 77.6388 149.549 77.1943 149.549C76.7943 149.549 76.3054 149.415 75.6387 149.104C75.4165 148.881 75.1054 149.015 74.972 149.282Z" fill="#1174BA"/>
<path d="M84.7057 119.828C84.7057 126.635 81.4612 142.519 81.4612 144.032H74.5277C75.5499 129.839 75.9055 122.675 75.5944 122.542C75.1499 122.319 57.3716 124.321 52.0826 124.321C44.3935 124.321 41.2379 119.472 40.9712 110.484H56.1716C59.2828 110.796 75.4166 114.088 81.4167 115.2C83.9946 115.69 84.7057 117.959 84.7057 119.828Z" fill="#6BB8DC"/>
<path d="M49.7713 72.7988C48.5713 71.4195 47.7713 69.7288 47.9046 67.8156C48.3046 62.343 55.9048 63.5443 57.416 66.3029C58.8827 69.0614 58.7049 76.0913 56.7937 76.5807C56.0382 76.7586 54.3937 76.3137 52.7492 75.2904L53.7714 82.6762H47.6824L49.7713 72.7988Z" fill="#06508C"/>
<path d="M58.0383 67.5489C57.9938 67.193 57.816 66.7926 57.7271 66.4366C57.5938 65.9917 57.3271 65.5913 57.0605 65.2353C56.5716 64.5234 55.9938 63.9005 55.3716 63.3666C54.216 62.3878 52.7048 61.8539 51.2381 62.0318C50.4825 62.1208 49.7714 62.3878 49.1492 62.8772C48.6158 63.3221 48.0824 63.945 47.3268 63.9895C46.5268 64.034 45.8157 63.3666 45.1935 62.9217C44.4824 62.4323 43.7268 62.0763 42.9268 61.9429C41.549 61.7204 40.26 62.1653 39.2822 63.3221C38.2599 64.5234 37.5488 66.3032 38.2155 67.9049C38.3488 68.2163 38.4822 68.4388 38.7489 68.6613C38.9711 68.8392 39.2822 69.0617 39.3711 69.3731C39.46 69.6846 39.1933 70.1295 39.1044 70.3965C38.9711 70.7969 38.8377 71.2418 38.8822 71.7313C38.9711 72.4876 39.4155 73.1995 39.9044 73.6889C40.3933 74.1784 41.0156 74.4898 41.6823 74.6233C42.1267 74.7123 42.5712 74.7568 43.0156 74.7123C43.2379 74.7123 43.4157 74.6233 43.6379 74.5788C43.8601 74.5343 43.949 74.5788 44.1268 74.7123C44.9712 75.2462 45.8602 75.4686 46.7935 75.3797C47.5935 75.2907 48.5269 75.1127 49.1936 74.5788C49.9047 73.9559 49.9047 73.1105 49.7269 72.2207C49.9047 72.3097 50.3936 72.3542 50.1269 71.9982C49.9936 71.8647 49.7714 71.7758 49.6381 71.7313C49.4603 71.6423 49.2825 71.5088 49.1492 71.3308C48.5714 70.7079 49.1492 69.3731 49.8603 69.1507C50.927 68.8392 51.1492 70.3075 51.9048 70.7079C52.3492 70.9304 52.7937 70.6189 53.1048 70.3075C53.5492 69.9071 53.8159 69.3287 54.0826 68.7947C54.3048 68.3498 54.4826 67.8604 54.7049 67.4155C54.7938 67.193 55.1493 66.6146 54.9715 66.3476C55.7271 66.2142 56.5716 66.5256 57.1938 66.926C57.4605 67.104 57.6827 67.282 57.8161 67.5934C57.8605 67.6379 57.9049 67.8604 57.9938 67.8604C58.0827 67.8159 58.0383 67.6379 58.0383 67.5489Z" fill="#F45F0C"/>
<path d="M58.1714 70.3519C58.2159 70.8413 58.7493 71.5087 58.9715 71.9537C59.1048 72.2206 59.3271 72.4876 59.3715 72.7545C59.4604 73.066 59.4159 73.155 59.2826 73.3329C58.9715 73.6889 58.3937 73.8669 57.9937 74.0893" fill="#06508C"/>
<path d="M58.1271 69.9959C57.7716 70.0404 57.5049 69.9959 57.2382 69.9959C56.9715 69.9959 56.7938 69.9959 56.4827 70.1739C56.4827 69.9959 56.5715 69.818 56.7493 69.729C56.9271 69.5955 57.1049 69.5955 57.2827 69.5955C57.6382 69.551 57.9049 69.6845 58.1271 69.9959Z" fill="#C1E3F2"/>
<path d="M57.5049 70.9748C57.6768 70.9748 57.8161 70.8354 57.8161 70.6634C57.8161 70.4914 57.6768 70.3519 57.5049 70.3519C57.3331 70.3519 57.1938 70.4914 57.1938 70.6634C57.1938 70.8354 57.3331 70.9748 57.5049 70.9748Z" fill="#C1E3F2"/>
<path d="M57.8161 75.3797C57.6828 75.4241 57.505 75.4241 57.3716 75.3797C57.2383 75.3352 57.105 75.2907 56.9716 75.2017C56.7049 75.0682 56.4827 74.8457 56.3049 74.5788L56.3494 74.6233C56.3938 74.6678 56.5271 74.6678 56.616 74.6233L56.705 74.5343V74.3563L56.6605 74.3118L56.616 74.2673C56.7938 74.4008 57.0161 74.4898 57.2383 74.5343C57.4605 74.6233 57.7272 74.6678 57.9938 74.7568C57.7272 74.8457 57.4605 74.8902 57.1938 74.8902C56.9272 74.8902 56.616 74.8013 56.3938 74.6678L56.3494 74.6233V74.4453L56.4382 74.3563C56.4827 74.3118 56.6605 74.3118 56.705 74.3563V74.4008C56.8383 74.5788 57.0161 74.8012 57.1938 74.9792C57.3272 75.1127 57.5494 75.2907 57.8161 75.3797Z" fill="#C1E3F2"/>
<path d="M47.3266 77.7824C47.3711 77.6044 47.46 77.382 47.5044 77.204L47.7267 77.293C47.7711 77.2485 47.8156 77.204 47.8156 77.204L54.9713 78.3163C54.9713 82.3651 58.1714 86.147 60.2159 89.395C63.3715 94.4671 68.9717 100.029 65.3716 107.548C62.1271 114.311 53.6824 115.423 40.0376 110.84C40.0376 107.192 43.0154 103.544 43.1043 99.0944C43.2821 94.8676 44.0377 82.0982 47.3266 77.7824Z" fill="#1E9ED1"/>
<path d="M56.2603 105.635C56.7492 103.143 57.0603 101.497 57.1936 100.651C61.0159 104.967 63.2382 107.147 63.816 107.192C64.9272 107.281 65.7716 106.302 65.9938 106.569C66.3938 107.726 65.2827 110.618 63.1938 111.018C62.1715 111.241 60.6603 109.15 59.9936 108.438C59.727 108.171 58.4825 107.236 56.2603 105.635ZM62.8382 92.4203C63.816 92.4203 64.3494 92.8207 64.9272 93.6661C65.5049 94.5114 66.0827 98.3823 65.1049 98.3823C64.1271 98.3823 60.2159 96.8696 60.2159 95.8462C60.2159 94.8229 62.8826 94.4225 62.8826 93.6216C62.9715 92.9097 61.8604 92.4203 62.8382 92.4203Z" fill="#06508C"/>
<path d="M54.2601 109.417C54.2157 109.639 54.1268 109.861 54.0823 110.039C42.882 102.209 42.8376 92.6873 46.2154 82.009C43.682 92.5093 44.7043 101.363 54.2601 109.417Z" fill="#6BB8DC"/>
<path d="M75.7275 105.457C74.883 105.457 74.2163 106.702 74.2163 108.26C74.2163 108.482 74.2163 108.66 74.2163 108.883C74.2163 109.461 74.2163 110.039 74.2163 110.573C74.2163 111.463 74.2163 112.353 74.2163 113.243C74.2163 114.4 74.2163 115.557 74.2163 116.713C74.2163 118.093 74.2163 119.472 74.2163 120.851C74.2163 122.408 74.2163 123.966 74.2163 125.523C74.2163 127.214 74.2163 128.86 74.2163 130.551C74.2163 132.286 74.2163 134.065 74.2163 135.801C74.2163 137.58 74.2163 139.36 74.2163 141.14C74.2163 142.875 74.2163 144.655 74.2163 146.39C74.2163 148.081 74.2163 149.771 74.2163 151.418C74.2163 152.975 74.2163 154.532 74.2163 156.089C74.2163 157.469 74.2163 158.848 74.2163 160.272C74.2163 161.428 74.2163 162.63 74.2163 163.787C74.2163 164.676 74.2163 165.566 74.2163 166.501C74.2163 167.079 74.2163 167.657 74.2163 168.236C74.2163 168.592 74.2163 168.948 74.2163 169.304C74.2608 169.704 74.5275 169.882 74.7497 169.971C75.0608 170.149 75.4163 170.194 75.7275 170.194C75.9941 170.194 76.3053 170.149 76.5719 170.016C76.7497 169.927 77.1053 169.793 77.1942 169.482C77.1942 169.437 77.2386 169.348 77.2386 169.304C77.2831 168.903 77.2386 168.547 77.2386 168.147C77.2386 167.568 77.2386 167.035 77.2386 166.456C77.2386 165.611 77.2386 164.721 77.2386 163.876C77.2386 162.763 77.2386 161.651 77.2386 160.539C77.2386 159.204 77.2386 157.869 77.2386 156.579C77.2386 155.111 77.2386 153.598 77.2386 152.13C77.2386 150.528 77.2386 148.926 77.2386 147.28C77.2386 145.589 77.2386 143.898 77.2386 142.208C77.2386 140.472 77.2386 138.782 77.2386 137.046C77.2386 135.356 77.2386 133.621 77.2386 131.93C77.2386 130.284 77.2386 128.637 77.2386 126.991C77.2386 125.434 77.2386 123.877 77.2386 122.364C77.2386 120.985 77.2386 119.561 77.2386 118.182C77.2386 116.98 77.2386 115.779 77.2386 114.533C77.2386 113.554 77.2386 112.575 77.2386 111.597C77.2386 110.885 77.2386 110.217 77.2386 109.506C77.2386 109.15 77.2386 108.749 77.2386 108.393C77.2386 108.349 77.2386 108.304 77.2386 108.215C77.2386 106.702 76.5719 105.457 75.7275 105.457Z" fill="#88C6E3"/>
<path d="M124.04 96.1133C123.196 96.1133 122.529 97.3591 122.529 98.9163C122.529 99.1388 122.529 99.3168 122.529 99.5392C122.529 100.118 122.529 100.696 122.529 101.23C122.529 102.12 122.529 103.01 122.529 103.9C122.529 105.056 122.529 106.213 122.529 107.37C122.529 108.749 122.529 110.128 122.529 111.508C122.529 113.065 122.529 114.622 122.529 116.179C122.529 117.87 122.529 119.516 122.529 121.207C122.529 122.942 122.529 124.722 122.529 126.457C122.529 128.237 122.529 130.017 122.529 131.796C122.529 133.532 122.529 135.311 122.529 137.047C122.529 138.737 122.529 140.428 122.529 142.074C122.529 143.631 122.529 145.189 122.529 146.746C122.529 148.125 122.529 149.505 122.529 150.928C122.529 152.085 122.529 153.286 122.529 154.443C122.529 155.333 122.529 156.223 122.529 157.157C122.529 157.736 122.529 158.314 122.529 158.892C122.529 159.248 122.529 159.604 122.529 159.96C122.573 160.361 122.84 160.539 123.062 160.628C123.373 160.806 123.729 160.85 124.04 160.85C124.307 160.85 124.618 160.806 124.884 160.672C125.062 160.583 125.418 160.45 125.507 160.138C125.507 160.094 125.551 160.005 125.551 159.96C125.596 159.56 125.551 159.204 125.551 158.803C125.551 158.225 125.551 157.691 125.551 157.113C125.551 156.267 125.551 155.378 125.551 154.532C125.551 153.42 125.551 152.308 125.551 151.195C125.551 149.86 125.551 148.526 125.551 147.235C125.551 145.767 125.551 144.254 125.551 142.786C125.551 141.184 125.551 139.583 125.551 137.936C125.551 136.246 125.551 134.555 125.551 132.864C125.551 131.129 125.551 129.438 125.551 127.703C125.551 126.012 125.551 124.277 125.551 122.586C125.551 120.94 125.551 119.294 125.551 117.648C125.551 116.091 125.551 114.533 125.551 113.021C125.551 111.641 125.551 110.217 125.551 108.838C125.551 107.637 125.551 106.436 125.551 105.19C125.551 104.211 125.551 103.232 125.551 102.253C125.551 101.541 125.551 100.874 125.551 100.162C125.551 99.8062 125.551 99.4057 125.551 99.0498C125.551 99.0053 125.551 98.9608 125.551 98.8718C125.551 97.3591 124.884 96.1133 124.04 96.1133Z" fill="#6BB8DC"/>
<path d="M171.73 105.101C170.886 105.101 170.219 106.347 170.219 107.904C170.219 108.127 170.219 108.305 170.219 108.527C170.219 109.105 170.219 109.684 170.219 110.218C170.219 111.108 170.219 111.997 170.219 112.887C170.219 114.044 170.219 115.201 170.219 116.358C170.219 117.737 170.219 119.116 170.219 120.496C170.219 122.053 170.219 123.61 170.219 125.123C170.219 126.814 170.219 128.46 170.219 130.15C170.219 131.886 170.219 133.665 170.219 135.401C170.219 137.18 170.219 138.96 170.219 140.695C170.219 142.43 170.219 144.21 170.219 145.945C170.219 147.636 170.219 149.282 170.219 150.973C170.219 152.53 170.219 154.088 170.219 155.645C170.219 157.024 170.219 158.403 170.219 159.783C170.219 160.939 170.219 162.096 170.219 163.298C170.219 164.187 170.219 165.077 170.219 165.967C170.219 166.545 170.219 167.124 170.219 167.702C170.219 168.058 170.219 168.414 170.219 168.77C170.263 169.171 170.53 169.349 170.752 169.438C171.063 169.615 171.419 169.66 171.73 169.66C171.997 169.66 172.308 169.615 172.575 169.482C172.752 169.393 173.108 169.26 173.197 168.948C173.197 168.904 173.241 168.815 173.241 168.77C173.286 168.37 173.241 168.014 173.241 167.613C173.241 167.035 173.241 166.501 173.241 165.923C173.241 165.077 173.241 164.187 173.241 163.342C173.241 162.23 173.241 161.117 173.241 160.005C173.241 158.67 173.241 157.38 173.241 156.045C173.241 154.577 173.241 153.064 173.241 151.596C173.241 149.994 173.241 148.392 173.241 146.791C173.241 145.1 173.241 143.409 173.241 141.763C173.241 140.072 173.241 138.337 173.241 136.646C173.241 134.956 173.241 133.265 173.241 131.53C173.241 129.884 173.241 128.237 173.241 126.591C173.241 125.034 173.241 123.521 173.241 121.964C173.241 120.585 173.241 119.161 173.241 117.781C173.241 116.58 173.241 115.379 173.241 114.178C173.241 113.199 173.241 112.22 173.241 111.241C173.241 110.529 173.241 109.862 173.241 109.15C173.241 108.794 173.241 108.394 173.241 108.038C173.241 107.993 173.241 107.949 173.241 107.86C173.241 106.347 172.575 105.101 171.73 105.101Z" fill="#6BB8DC"/>
<path d="M178.53 101.497C178.53 107.949 153.996 113.154 123.773 113.154C93.5501 113.154 69.0161 107.949 69.0161 101.497V102.921C69.0161 109.372 93.4612 114.578 123.684 114.578C153.907 114.578 177.641 109.639 178.619 103.277L178.53 101.497Z" fill="#1E9ED1"/>
<path d="M123.684 113.243C153.926 113.243 178.441 108.024 178.441 101.586C178.441 95.1479 153.926 89.9288 123.684 89.9288C93.4428 89.9288 68.9272 95.1479 68.9272 101.586C68.9272 108.024 93.4428 113.243 123.684 113.243Z" fill="#DDF2F9"/>
<path d="M122.262 109.15C127.908 109.15 132.485 108.313 132.485 107.281C132.485 106.249 127.908 105.412 122.262 105.412C116.616 105.412 112.04 106.249 112.04 107.281C112.04 108.313 116.616 109.15 122.262 109.15Z" fill="#DDF2F9"/>
<path d="M122.262 108.882C127.687 108.882 132.084 108.125 132.084 107.192C132.084 106.258 127.687 105.501 122.262 105.501C116.837 105.501 112.439 106.258 112.439 107.192C112.439 108.125 116.837 108.882 122.262 108.882Z" fill="#C1E3F2"/>
<path d="M132.485 107.281C132.485 108.304 127.907 109.149 122.262 109.149C116.617 109.149 112.04 108.304 112.04 107.281C112.04 109.016 116.617 110.351 122.262 110.351C127.907 110.351 132.485 109.06 132.485 107.281Z" fill="#88C6E3"/>
<path d="M86.5724 104.478C92.2181 104.478 96.7949 103.641 96.7949 102.609C96.7949 101.577 92.2181 100.74 86.5724 100.74C80.9266 100.74 76.3499 101.577 76.3499 102.609C76.3499 103.641 80.9266 104.478 86.5724 104.478Z" fill="#DDF2F9"/>
<path d="M86.5725 104.211C91.9973 104.211 96.395 103.454 96.395 102.52C96.395 101.586 91.9973 100.829 86.5725 100.829C81.1477 100.829 76.75 101.586 76.75 102.52C76.75 103.454 81.1477 104.211 86.5725 104.211Z" fill="#C1E3F2"/>
<path d="M96.7949 102.609C96.7949 103.632 92.217 104.478 86.5724 104.478C80.9278 104.478 76.3499 103.632 76.3499 102.609C76.3499 104.344 80.9278 105.679 86.5724 105.679C92.217 105.679 96.7949 104.389 96.7949 102.609Z" fill="#88C6E3"/>
<path d="M99.9061 96.3356C105.552 96.3356 110.129 95.499 110.129 94.467C110.129 93.4349 105.552 92.5983 99.9061 92.5983C94.2604 92.5983 89.6836 93.4349 89.6836 94.467C89.6836 95.499 94.2604 96.3356 99.9061 96.3356Z" fill="#DDF2F9"/>
<path d="M99.9062 96.0683C105.331 96.0683 109.729 95.3114 109.729 94.3776C109.729 93.4439 105.331 92.6869 99.9062 92.6869C94.4814 92.6869 90.0837 93.4439 90.0837 94.3776C90.0837 95.3114 94.4814 96.0683 99.9062 96.0683Z" fill="#C1E3F2"/>
<path d="M110.129 94.4667C110.129 95.49 105.551 96.3354 99.9061 96.3354C94.2615 96.3354 89.6836 95.49 89.6836 94.4667C89.6836 96.2019 94.2615 97.5367 99.9061 97.5367C105.551 97.5367 110.129 96.2909 110.129 94.4667Z" fill="#88C6E3"/>
<path d="M153.908 106.257C159.553 106.257 164.13 105.421 164.13 104.389C164.13 103.357 159.553 102.52 153.908 102.52C148.262 102.52 143.685 103.357 143.685 104.389C143.685 105.421 148.262 106.257 153.908 106.257Z" fill="#DDF2F9"/>
<path d="M153.908 105.99C159.332 105.99 163.73 105.233 163.73 104.299C163.73 103.366 159.332 102.609 153.908 102.609C148.483 102.609 144.085 103.366 144.085 104.299C144.085 105.233 148.483 105.99 153.908 105.99Z" fill="#C1E3F2"/>
<path d="M164.13 104.389C164.13 105.412 159.552 106.257 153.908 106.257C148.263 106.257 143.685 105.412 143.685 104.389C143.685 106.124 148.263 107.459 153.908 107.459C159.552 107.459 164.13 106.168 164.13 104.389Z" fill="#88C6E3"/>
<path d="M139.818 96.4691C145.464 96.4691 150.041 95.6324 150.041 94.6004C150.041 93.5683 145.464 92.7317 139.818 92.7317C134.173 92.7317 129.596 93.5683 129.596 94.6004C129.596 95.6324 134.173 96.4691 139.818 96.4691Z" fill="#DDF2F9"/>
<path d="M139.818 96.2018C145.243 96.2018 149.641 95.4448 149.641 94.511C149.641 93.5773 145.243 92.8203 139.818 92.8203C134.394 92.8203 129.996 93.5773 129.996 94.511C129.996 95.4448 134.394 96.2018 139.818 96.2018Z" fill="#C1E3F2"/>
<path d="M150.041 94.6002C150.041 95.6235 145.463 96.4689 139.818 96.4689C134.174 96.4689 129.596 95.6235 129.596 94.6002C129.596 96.3354 134.174 97.6702 139.818 97.6702C145.463 97.6702 150.041 96.3799 150.041 94.6002Z" fill="#88C6E3"/>
<path d="M129.107 102.476C129.107 102.52 129.107 102.52 129.107 102.52C129.062 102.654 128.929 102.743 128.796 102.787C128.618 102.876 128.485 102.876 128.307 102.921C127.685 103.054 127.062 103.099 126.44 103.099C125.907 103.099 125.373 103.054 124.884 102.965C124.662 102.921 124.44 102.876 124.218 102.787C124.04 102.743 123.773 102.654 123.773 102.387L123.284 96.1132H129.729L129.107 102.476Z" fill="#C1E3F2"/>
<path d="M126.485 95.312C124.707 95.312 123.24 95.7125 123.24 96.1574C123.24 96.6023 124.662 97.0028 126.485 97.0028C128.307 97.0028 129.729 96.6023 129.729 96.1574C129.729 95.7125 128.307 95.312 126.485 95.312Z" fill="#88C6E3"/>
<path d="M126.485 95.401C127.329 95.401 128.129 95.49 128.751 95.668C129.018 95.7569 129.285 95.8459 129.418 95.9349C129.507 95.9794 129.64 96.1129 129.64 96.2019C129.64 96.2909 129.507 96.4243 129.418 96.4688C129.285 96.5578 129.018 96.6468 128.751 96.7358C128.129 96.9138 127.329 97.0028 126.485 97.0028C125.64 97.0028 124.84 96.9138 124.218 96.7358C123.951 96.6468 123.684 96.5578 123.551 96.4688C123.462 96.4243 123.329 96.2909 123.329 96.2019C123.329 96.1129 123.462 95.9794 123.551 95.9349C123.684 95.8459 123.951 95.7569 124.218 95.668C124.84 95.49 125.64 95.401 126.485 95.401ZM126.485 95.312C124.707 95.312 123.24 95.7125 123.24 96.1574C123.24 96.6023 124.662 97.0028 126.485 97.0028C128.307 97.0028 129.729 96.6023 129.729 96.1574C129.729 95.7125 128.307 95.312 126.485 95.312Z" fill="#DDF2F9"/>
<path d="M126.173 104.166C126.129 104.166 126.129 104.211 126.173 104.166C126.173 104.211 126.173 104.211 126.173 104.211C126.129 104.344 125.996 104.433 125.862 104.478C125.685 104.567 125.551 104.567 125.373 104.611C124.751 104.745 124.129 104.789 123.507 104.789C122.973 104.789 122.44 104.745 121.951 104.656C121.729 104.611 121.507 104.567 121.284 104.478C121.107 104.433 120.84 104.344 120.84 104.077L120.351 97.8037H126.796L126.173 104.166Z" fill="#88C6E3"/>
<path d="M123.551 97.0472C121.773 97.0472 120.307 97.4477 120.307 97.8926C120.307 98.3375 121.729 98.738 123.551 98.738C125.329 98.738 126.796 98.3375 126.796 97.8926C126.796 97.4477 125.329 97.0472 123.551 97.0472Z" fill="#88C6E3"/>
<path d="M123.551 97.0917C124.396 97.0917 125.196 97.1807 125.818 97.3587C126.085 97.4477 126.351 97.5367 126.485 97.6256C126.573 97.6701 126.707 97.8036 126.707 97.8926C126.707 97.9816 126.573 98.1151 126.485 98.1596C126.351 98.2485 126.085 98.3375 125.818 98.4265C125.196 98.6045 124.396 98.6935 123.551 98.6935C122.707 98.6935 121.907 98.6045 121.284 98.4265C121.018 98.3375 120.751 98.2485 120.618 98.1596C120.529 98.1151 120.396 97.9816 120.396 97.8926C120.396 97.8036 120.529 97.6701 120.618 97.6256C120.751 97.5367 121.018 97.4477 121.284 97.3587C121.862 97.1807 122.707 97.0917 123.551 97.0917ZM123.551 97.0472C121.773 97.0472 120.307 97.4477 120.307 97.8926C120.307 98.3375 121.729 98.738 123.551 98.738C125.329 98.738 126.796 98.3375 126.796 97.8926C126.796 97.4477 125.329 97.0472 123.551 97.0472Z" fill="#DDF2F9"/>
<path d="M107.728 102.119C107.684 102.164 107.684 102.164 107.728 102.119C107.728 102.164 107.728 102.164 107.728 102.164C107.684 102.297 107.551 102.386 107.417 102.431C107.239 102.52 107.106 102.52 106.928 102.564C106.306 102.698 105.684 102.742 105.062 102.742C104.528 102.742 103.995 102.698 103.506 102.609C103.284 102.564 103.062 102.52 102.839 102.431C102.662 102.386 102.395 102.297 102.395 102.03L101.906 95.7567H108.351L107.728 102.119Z" fill="#C1E3F2"/>
<path d="M105.106 95.0006C103.328 95.0006 101.862 95.401 101.862 95.846C101.862 96.2909 103.284 96.6913 105.106 96.6913C106.884 96.6913 108.351 96.2909 108.351 95.846C108.351 95.401 106.884 95.0006 105.106 95.0006Z" fill="#88C6E3"/>
<path d="M105.106 95.0896C105.951 95.0896 106.751 95.1786 107.373 95.3566C107.64 95.4455 107.906 95.5345 108.04 95.6235C108.128 95.668 108.262 95.8015 108.262 95.8905C108.262 95.9794 108.128 96.1129 108.04 96.1574C107.906 96.2464 107.64 96.3354 107.373 96.4244C106.751 96.6023 105.951 96.6913 105.106 96.6913C104.262 96.6913 103.462 96.6023 102.839 96.4244C102.573 96.3354 102.306 96.2464 102.173 96.1574C102.084 96.1129 101.95 95.9794 101.95 95.8905C101.95 95.8015 102.084 95.668 102.173 95.6235C102.306 95.5345 102.573 95.4455 102.839 95.3566C103.417 95.1786 104.262 95.0896 105.106 95.0896ZM105.106 95.0006C103.328 95.0006 101.862 95.401 101.862 95.846C101.862 96.2909 103.284 96.6913 105.106 96.6913C106.884 96.6913 108.351 96.2909 108.351 95.846C108.351 95.401 106.884 95.0006 105.106 95.0006Z" fill="#DDF2F9"/>
<path d="M169.286 88.8162L159.908 85.1678C155.863 85.5682 153.908 85.4793 154.041 84.9009C154.219 84.011 155.463 84.2335 155.685 83.6551C155.908 83.0766 154.574 81.9198 153.285 80.852C151.996 79.7842 152.841 79.5617 153.419 79.6062C155.374 80.0511 157.508 80.8965 159.819 82.1868L171.375 83.6995L169.286 88.8162Z" fill="#C1E3F2"/>
<path d="M176.397 81.2523C172.975 82.3646 168.219 83.121 162.352 81.6528L161.864 86.5469C166.308 88.7716 171.908 89.9284 175.953 88.4601C179.153 87.3033 179.508 82.8096 176.397 81.2523Z" fill="#06508C"/>
<path d="M159.597 81.3418H137.107C137.107 81.3418 138.485 91.3082 148.352 91.3082C158.219 91.3082 159.597 81.3418 159.597 81.3418Z" fill="#6BB8DC"/>
<path d="M139.507 87.0813C141.152 89.3059 143.863 91.3526 148.308 91.3526C152.752 91.3526 155.463 89.3059 157.108 87.0813C154.308 89.8843 143.152 90.6852 139.507 87.0813Z" fill="#1E9ED1"/>
<path d="M148.352 82.8547C154.562 82.8547 159.597 82.1774 159.597 81.342C159.597 80.5065 154.562 79.8292 148.352 79.8292C142.142 79.8292 137.107 80.5065 137.107 81.342C137.107 82.1774 142.142 82.8547 148.352 82.8547Z" fill="#6BB8DC"/>
<path d="M148.352 82.3653C154.243 82.3653 159.019 81.8673 159.019 81.2529C159.019 80.6386 154.243 80.1406 148.352 80.1406C142.461 80.1406 137.685 80.6386 137.685 81.2529C137.685 81.8673 142.461 82.3653 148.352 82.3653Z" fill="#1E9ED1"/>
<path d="M191.553 106.035L180.886 143.543L173.064 171.217H167.375L175.686 106.035H191.553Z" fill="#F45F0C"/>
<path d="M194.442 106.035C194.709 125.389 195.553 135.934 195.775 137.714C196.042 139.494 199.953 150.661 207.554 171.261H201.642C191.998 151.507 186.575 140.295 185.464 137.714C184.353 135.133 180.886 124.544 175.642 106.035H194.442Z" fill="#F77B0B"/>
<path d="M208.087 176.556L207.776 170.371H201.598C198.664 172.418 194.842 174.109 190.086 175.399V176.6H201.287L205.109 176.022V176.6H208.087V176.556Z" fill="#1E9ED1"/>
<path d="M173.864 176.556L173.553 170.371H167.375C164.441 172.418 160.619 174.109 155.863 175.399V176.6H167.064L170.886 176.022V176.6H173.864V176.556Z" fill="#1E9ED1"/>
<path d="M175.864 64.0785C177.242 62.4768 178.13 60.5191 177.997 58.3389C177.553 52.021 168.752 53.4002 167.063 56.6037C165.375 59.8072 165.552 67.8604 167.775 68.4388C168.663 68.6612 170.53 68.1273 172.441 66.9705L171.241 75.4686H178.308L175.864 64.0785Z" fill="#DDF2F9"/>
<path d="M172.041 59.0065C171.775 62.7884 171.064 64.6571 169.908 64.6571C168.175 64.6571 166.708 63.5448 165.908 63.5448C165.33 63.5448 165.464 64.2567 165.864 64.7461C166.175 65.191 167.641 65.5914 167.641 66.2588C167.641 66.9262 166.486 66.3923 166.486 66.7927C166.486 67.4601 166.264 68.6614 167.419 68.6614C168.575 68.6614 171.819 68.261 172.397 66.5703C172.753 65.458 172.975 63.2333 173.108 59.7629C173.197 59.7629 173.241 59.7629 173.33 59.7629C174.308 59.7629 175.108 60.5638 175.108 61.5426C175.108 62.032 174.886 62.4769 174.575 62.7884C174.975 63.3668 175.464 63.9897 175.953 64.6126C177.908 63.4113 179.819 59.9409 177.908 56.6039C177.375 54.9577 175.73 54.1123 174.308 53.7119C173.153 53.2225 171.953 53.178 170.93 53.4449C168.93 53.6229 167.152 54.2013 166.664 54.6017C166.664 56.4704 167.019 57.0488 170.13 57.0043C170.841 57.4048 171.464 58.1167 172.041 59.0065Z" fill="#06508C"/>
<path d="M166.264 60.2523C166.041 60.9197 164.886 61.943 164.93 62.6549C164.975 63.2333 165.775 63.3223 166.264 63.2778" fill="#DDF2F9"/>
<path d="M166.486 59.6738C166.53 59.4958 166.708 59.3179 166.886 59.2289C167.064 59.1399 167.286 59.1399 167.508 59.1399C167.908 59.2289 168.264 59.5403 168.308 59.8963C167.953 59.7183 167.686 59.6293 167.375 59.5403C167.108 59.5848 166.841 59.5848 166.486 59.6738Z" fill="#06508C"/>
<path d="M166.975 60.6974C167.122 60.6974 167.241 60.5778 167.241 60.4304C167.241 60.283 167.122 60.1635 166.975 60.1635C166.827 60.1635 166.708 60.283 166.708 60.4304C166.708 60.5778 166.827 60.6974 166.975 60.6974Z" fill="#06508C"/>
<path d="M153.552 94.9119C151.374 93.9331 149.418 93.3546 147.685 93.2212C144.396 92.9542 142.974 92.5538 141.063 90.9076C140.04 90.0177 138.929 88.06 139.551 87.2147C139.996 86.6363 143.507 88.327 144.796 88.327C146.085 88.327 144.352 85.5684 145.063 85.7464C145.907 85.5684 146.885 86.6362 147.996 88.8609L152.885 90.4181L153.552 94.9119Z" fill="#C1E3F2"/>
<path d="M169.019 88.416C165.463 90.1067 159.019 90.2402 149.596 88.9054C148.307 93.8441 147.952 97.2701 148.485 99.1388C156.796 101.586 163.597 102.031 168.975 101.096C169.419 104.3 170.441 107.236 172.264 109.728C176.041 114.845 190.531 106.48 195.953 106.48C197.109 95.1789 189.909 92.1534 188.531 85.346C187.02 77.9157 178.753 67.6379 177.864 67.8159L169.864 69.4176C170.575 75.1127 169.597 81.8311 169.019 88.416Z" fill="#1174BA"/>
<path d="M133.551 0.898926H133.018V27.8615H133.551V0.898926Z" fill="#06508C"/>
<path d="M131.862 30.1753V27.6837C131.862 26.8383 132.485 26.1265 133.285 26.1265C134.04 26.1265 134.707 26.8383 134.707 27.6837V30.1753H131.862Z" fill="#06508C"/>
<path opacity="0.3" d="M134.662 30.1751V27.6835C134.662 26.8381 134.04 26.1262 133.24 26.1262C133.151 26.1262 133.018 26.1262 132.929 26.1707C134.796 26.5267 134.618 29.4632 133.373 29.7301C132.129 29.9971 131.818 29.0182 131.818 29.0182V30.1306H134.662V30.1751Z" fill="#06508C"/>
<path d="M133.284 37.2492C134.414 37.2492 135.329 36.5321 135.329 35.6475C135.329 34.7629 134.414 34.0458 133.284 34.0458C132.155 34.0458 131.24 34.7629 131.24 35.6475C131.24 36.5321 132.155 37.2492 133.284 37.2492Z" fill="#A4D5EA"/>
<path d="M130.084 36.0926V30.442C130.084 28.4844 131.507 26.9271 133.285 26.9271C135.062 26.9271 136.485 28.5289 136.485 30.442V36.0926H130.084Z" fill="#06508C"/>
<path opacity="0.3" d="M136.485 36.0925V30.4419C136.485 28.4842 135.062 26.927 133.285 26.927C133.062 26.927 132.84 26.9715 132.618 27.016C136.84 27.8169 136.485 34.4908 133.64 35.1582C130.751 35.8255 130.129 33.5564 130.129 33.5564V36.0925H136.485Z" fill="#06508C"/>
<path d="M101.417 0.898926H100.884V32.9782H101.417V0.898926Z" fill="#06508C"/>
<path d="M99.728 35.2918V32.8002C99.728 31.9548 100.35 31.2429 101.15 31.2429C101.906 31.2429 102.573 31.9548 102.573 32.8002V35.2918H99.728Z" fill="#06508C"/>
<path opacity="0.3" d="M102.528 35.2916V32.8C102.528 31.9547 101.906 31.2428 101.106 31.2428C101.017 31.2428 100.884 31.2428 100.795 31.2873C102.661 31.6432 102.484 34.5798 101.239 34.8467C99.9947 35.1137 99.6836 34.1348 99.6836 34.1348V35.2471H102.528V35.2916Z" fill="#06508C"/>
<path d="M101.15 42.4105C102.279 42.4105 103.195 41.6934 103.195 40.8088C103.195 39.9242 102.279 39.207 101.15 39.207C100.021 39.207 99.1057 39.9242 99.1057 40.8088C99.1057 41.6934 100.021 42.4105 101.15 42.4105Z" fill="#A4D5EA"/>
<path d="M97.9502 41.2538V35.6032C97.9502 33.6455 99.3725 32.0883 101.15 32.0883C102.928 32.0883 104.35 33.69 104.35 35.6032V41.2538H97.9502Z" fill="#06508C"/>
<path opacity="0.3" d="M104.35 41.2536V35.6031C104.35 33.6454 102.928 32.0881 101.15 32.0881C100.928 32.0881 100.706 32.1326 100.484 32.1771C104.706 32.978 104.35 39.6519 101.506 40.3193C98.6169 40.9867 97.9946 38.7175 97.9946 38.7175V41.2536H104.35Z" fill="#06508C"/>
<path d="M114.973 0.898926H114.44V45.4361H114.973V0.898926Z" fill="#06508C"/>
<path d="M113.329 47.7498V45.2582C113.329 44.4128 113.951 43.7009 114.751 43.7009C115.506 43.7009 116.173 44.4128 116.173 45.2582V47.7498H113.329Z" fill="#06508C"/>
<path opacity="0.3" d="M116.129 47.7499V45.2583C116.129 44.4129 115.506 43.701 114.706 43.701C114.618 43.701 114.484 43.7011 114.395 43.7455C116.262 44.1015 116.084 47.038 114.84 47.305C113.595 47.5719 113.284 46.5931 113.284 46.5931V47.7054H116.129V47.7499Z" fill="#06508C"/>
<path d="M114.706 54.8684C115.836 54.8684 116.751 54.1513 116.751 53.2667C116.751 52.382 115.836 51.6649 114.706 51.6649C113.577 51.6649 112.662 52.382 112.662 53.2667C112.662 54.1513 113.577 54.8684 114.706 54.8684Z" fill="#A4D5EA"/>
<path d="M111.506 53.7116V48.0611C111.506 46.1034 112.929 44.5461 114.706 44.5461C116.484 44.5461 117.907 46.1479 117.907 48.0611V53.7116H111.506Z" fill="#06508C"/>
<path opacity="0.3" d="M117.907 53.7115V48.0609C117.907 46.1033 116.484 44.546 114.706 44.546C114.484 44.546 114.262 44.5905 114.04 44.635C118.262 45.4359 117.907 52.1098 115.062 52.7772C112.173 53.4446 111.551 51.1754 111.551 51.1754V53.7115H117.907Z" fill="#06508C"/>
</svg>
