<svg width="260" height="250" viewBox="0 0 260 250" fill="none" xmlns="http://www.w3.org/2000/svg">
<path d="M27.2939 162.672C44.0166 154.31 74.5755 151.473 87.7646 151.1C101.202 148.487 132.856 143.485 151.968 144.381C175.858 145.501 239.688 153.34 247.527 156.326C255.365 159.312 265.444 168.271 256.485 180.589C247.527 192.907 164.659 217.916 143.756 219.41C122.852 220.903 98.9628 207.838 87.7646 201.866C76.5663 195.893 41.1052 193.654 23.5611 186.935C19.496 185.378 6.39046 173.123 27.2939 162.672Z" fill="#DDF2F9"/>
<path d="M66.8374 21.1302V173.396L133.874 180.366C133.874 180.366 133.874 51.3355 133.874 48.5473L87.1794 0.993408L66.8374 21.1302Z" fill="#A4D5EA"/>
<path d="M189.506 48.5476H133.874V180.366H189.506V48.5476Z" fill="#6BB8DC"/>
<path d="M87.1794 0.993408H140.192L189.506 48.5473H133.874L87.1794 0.993408Z" fill="#F77B0B"/>
<path d="M143.274 3.93555H90.1074L91.3403 5.32963H144.661L143.274 3.93555Z" fill="#F45F0C"/>
<path d="M152.058 12.455H98.2751L99.6621 13.6941H153.445L152.058 12.455Z" fill="#F45F0C"/>
<path d="M160.842 20.8196H106.597L107.984 22.2137H162.229L160.842 20.8196Z" fill="#F45F0C"/>
<path d="M169.472 29.184H114.918L116.151 30.5781H170.859L169.472 29.184Z" fill="#F45F0C"/>
<path d="M178.256 37.7034H123.086L124.473 38.9426H179.643L178.256 37.7034Z" fill="#F45F0C"/>
<path d="M186.886 46.068H131.408L132.795 47.4621H188.273L186.886 46.068Z" fill="#F45F0C"/>
<path d="M150.517 63.4172H143.891V81.2306H150.517V63.4172Z" fill="#DDF2F9"/>
<path d="M143.083 180.652V131.915C143.083 121.373 152.261 112.748 163.697 112.748C174.992 112.748 184.311 121.373 184.311 131.915V180.652H143.083Z" fill="#C1E3F2"/>
<path d="M180.673 180.652H146.721V133.198C146.721 123.979 154.251 116.386 163.697 116.386C173.007 116.386 180.673 123.843 180.673 133.198V180.652Z" fill="#06508C"/>
<path d="M223.113 180.652H184.311V131.408C184.311 121.84 192.916 113.961 203.712 113.961C214.352 113.961 223.113 121.699 223.113 131.408V180.652Z" fill="#06508C"/>
<path d="M160.226 63.4172H153.599V81.2306H160.226V63.4172Z" fill="#DDF2F9"/>
<path d="M169.934 63.4172H163.308V81.2306H169.934V63.4172Z" fill="#DDF2F9"/>
<path d="M179.643 63.4172H173.017V81.2306H179.643V63.4172Z" fill="#DDF2F9"/>
<path d="M115.073 104.62H126.014V74.2603H115.073V104.62Z" fill="#6BB8DC"/>
<path d="M204.575 166.877L196.408 195.339L190.464 216.319H186.122L192.454 166.877H204.575Z" fill="#F77B0B"/>
<path d="M206.745 166.877C206.926 181.558 207.572 189.554 207.779 190.891C207.986 192.228 210.958 200.712 216.747 216.319H212.276C204.91 201.329 200.801 192.845 199.923 190.891C199.044 188.937 196.408 180.915 192.428 166.877H206.745Z" fill="#F45F0C"/>
<path d="M217.161 220.33L216.928 215.625H212.199C209.95 217.193 207.03 218.453 203.438 219.43V220.33H211.992L214.912 219.893V220.33H217.161Z" fill="#06508C"/>
<path d="M191.084 220.33L190.851 215.625H186.122C183.874 217.193 180.953 218.453 177.361 219.43V220.33H185.915L188.836 219.893V220.33H191.084Z" fill="#06508C"/>
<path d="M200.569 139.212C201.602 138.003 202.3 136.512 202.197 134.867C201.861 130.084 195.167 131.138 193.849 133.555C192.557 135.972 192.712 142.091 194.392 142.528C195.064 142.708 196.485 142.271 197.958 141.397L197.054 147.825H202.455L200.569 139.212Z" fill="#DDF2F9"/>
<path d="M193.332 134.635C193.384 134.327 193.513 133.967 193.617 133.684C193.746 133.298 193.953 132.964 194.185 132.63C194.599 132.013 195.116 131.473 195.684 131.01C196.718 130.161 198.036 129.699 199.328 129.853C199.974 129.93 200.621 130.187 201.163 130.599C201.654 130.958 202.119 131.524 202.74 131.55C203.438 131.601 204.058 130.984 204.601 130.624C205.221 130.213 205.867 129.904 206.616 129.776C207.831 129.57 208.968 129.981 209.795 130.984C210.674 132.038 211.32 133.581 210.751 134.969C210.648 135.227 210.493 135.458 210.312 135.638C210.131 135.792 209.847 135.972 209.769 136.255C209.692 136.538 209.924 136.898 210.028 137.155C210.157 137.515 210.26 137.9 210.235 138.312C210.183 138.955 209.769 139.597 209.33 140.009C208.891 140.446 208.348 140.703 207.753 140.806C207.366 140.883 206.978 140.934 206.565 140.909C206.358 140.883 206.203 140.831 205.996 140.806C205.815 140.754 205.712 140.806 205.557 140.909C204.833 141.371 204.058 141.551 203.205 141.5C202.507 141.449 201.68 141.269 201.112 140.78C200.465 140.24 200.491 139.495 200.621 138.723C200.465 138.8 200.026 138.852 200.285 138.543C200.388 138.415 200.595 138.363 200.724 138.286C200.879 138.209 201.034 138.08 201.163 137.952C201.654 137.386 201.163 136.255 200.543 136.049C199.613 135.766 199.432 137.052 198.76 137.386C198.372 137.566 197.984 137.309 197.7 137.052C197.312 136.692 197.054 136.229 196.847 135.741C196.666 135.355 196.485 134.944 196.305 134.532C196.227 134.352 195.917 133.812 196.072 133.607C195.426 133.478 194.676 133.735 194.108 134.095C193.875 134.249 193.694 134.404 193.565 134.661C193.539 134.712 193.488 134.892 193.41 134.892C193.281 134.867 193.332 134.712 193.332 134.635Z" fill="#A4D5EA"/>
<path d="M193.074 137.232C193.126 137.695 192.79 138.106 192.531 138.44C192.376 138.646 191.73 139.443 192.118 139.674C192.479 139.906 192.996 139.854 193.41 139.829" fill="#DDF2F9"/>
<path d="M194.805 137.026C194.728 136.898 194.625 136.795 194.495 136.743C194.366 136.666 194.237 136.641 194.082 136.641C193.927 136.641 193.772 136.666 193.642 136.795C193.513 136.898 193.436 137.078 193.487 137.206C193.617 137.129 193.72 137.103 193.798 137.078C193.875 137.078 193.978 137.052 194.082 137.078C194.289 137.052 194.495 137.052 194.805 137.026Z" fill="#1E9ED1"/>
<path d="M193.41 140.806C193.694 140.986 194.004 141.012 194.34 140.96C194.676 140.909 194.986 140.677 195.09 140.343C194.754 140.42 194.521 140.497 194.263 140.523C193.978 140.6 193.694 140.626 193.41 140.806Z" fill="#1E9ED1"/>
<path d="M193.979 137.849C194.121 137.849 194.237 137.734 194.237 137.592C194.237 137.45 194.121 137.335 193.979 137.335C193.836 137.335 193.72 137.45 193.72 137.592C193.72 137.734 193.836 137.849 193.979 137.849Z" fill="#1E9ED1"/>
<path d="M222.433 174.821C222.872 175.387 225.586 176.878 227.421 177.675C228.17 177.984 227.99 178.627 227.783 178.807C226.025 180.426 224.423 179.218 222.536 178.755C220.469 178.241 221.115 180.683 219.487 180.323C219.745 179.192 220.443 177.084 219.694 175.927C219.358 175.413 216.877 170.862 212.25 162.274L216.851 161.375C219.978 169.551 221.839 174.024 222.433 174.821Z" fill="#C1E3F2"/>
<path d="M176.736 157.578L184.213 159.297L183.29 163.457L175.359 159.461C173.363 159.271 171.66 158.871 170.244 158.334C169.901 158.081 169.432 157.597 170.706 157.48C171.979 157.364 173.315 157.161 173.41 156.712C173.525 156.247 172.68 155.874 172.92 155.238C173.088 154.796 174.352 155.594 176.736 157.578Z" fill="#DDF2F9"/>
<path d="M199.716 144.2L197.778 143.865C193.539 147.953 191.808 157.775 188.991 159.061C186.329 160.295 182.53 159.112 178.033 157.492L176.663 160.552C180.746 164.948 189.456 168.651 192.971 166.542C198.631 163.174 199.923 151.064 199.716 144.2Z" fill="#6BB8DC"/>
<path d="M208.193 168.496C200.388 168.496 194.651 168.496 190.981 168.496C190.205 168.496 190.335 167.365 190.464 166.8C191.782 160.218 196.899 153.121 196.899 143.763L201.861 142.991C205.97 149.573 207.392 157.672 208.193 168.496Z" fill="#C1E3F2"/>
<path d="M209.924 161.837C213.439 168.136 216.385 172.662 218.763 175.438L222.381 174.744C220.055 160.423 213.336 149.83 202.197 143.017H202.145H200.233C195.788 158.135 194.547 168.188 196.537 173.227H212.018C211.785 169.525 210.984 165.642 209.924 161.837Z" fill="#88C6E3"/>
<path d="M111.516 183.14L120.521 213.97L124.713 237.131H128.943L124.713 183.14H111.516Z" fill="#6BB8DC"/>
<path d="M107.518 183.14C108.139 199.175 107.906 207.889 107.751 209.361C107.596 210.833 106.82 220.554 101.386 237.634H105.772C112.952 221.251 115.436 211.53 116.29 209.361C117.105 207.192 119.551 198.477 123.083 183.14H107.518Z" fill="#6BB8DC"/>
<path d="M111.322 183.14C113.651 193.752 117.687 210.678 123.432 233.955H129.642C130.108 210.058 128.167 194.372 124.79 183.14H111.322Z" fill="#1E9ED1"/>
<path d="M107.479 183.14C108.1 199.175 106.509 214.938 101.58 234.226H108.178C115.359 218.114 120.521 202.389 124.053 183.14H107.479Z" fill="#6BB8DC"/>
<path d="M100.764 240.81L100.997 236.899C102.433 237.325 104.219 237.17 106.353 236.395C108.643 238.022 111.554 239.145 115.048 239.726C115.319 239.765 115.475 240.036 115.436 240.307V240.346L115.086 241.546H106.353H101.269L100.764 240.81Z" fill="#06508C"/>
<path d="M123.781 240.81L124.014 236.899C125.45 237.325 127.235 237.17 129.37 236.395C131.66 238.022 134.571 239.145 138.064 239.726C138.336 239.765 138.491 240.036 138.453 240.307V240.346L138.103 241.546H129.37H124.286L123.781 240.81Z" fill="#06508C"/>
<path d="M87.9896 195.725C88.617 195.787 89.2757 196.003 89.8717 195.602C89.8717 198.1 89.8717 200.599 89.8717 203.097C89.213 203.128 88.5856 202.912 87.9583 202.82C87.9583 200.475 87.9896 198.1 87.9896 195.725Z" fill="#88C6E3"/>
<path d="M89.2759 216.453C90.4052 216.515 91.5659 216.546 92.6952 216.608C92.7893 216.916 93.0716 216.854 93.3225 216.885C94.8596 217.07 96.3653 217.225 97.9024 217.44C99.3768 217.656 100.287 218.613 100.412 220.093C100.726 224.072 100.788 228.051 100.883 232.03C100.977 235.794 100.788 239.557 100.632 243.32C100.6 244.245 100.694 245.14 100.537 246.065C100.412 246.836 100.004 247.978 99.22 248.317C98.9376 248.44 96.9614 249.396 96.7418 249.119C96.6791 249.026 96.93 248.379 96.9614 248.255C97.0868 247.607 97.1496 246.96 97.181 246.312C97.181 246.127 97.2437 245.973 97.2437 245.788C97.3692 241.562 97.3378 237.336 97.4319 233.11C97.4633 231.629 97.4319 230.149 97.4319 228.699C97.4633 226.016 97.2751 223.332 97.2437 220.648C97.2437 219.908 97.0241 219.137 96.3967 218.705C95.8321 218.304 95.1733 217.996 94.4205 217.965C92.4128 217.841 91.7227 218.181 89.7151 218.057C88.8367 217.996 87.3938 218.273 86.5154 218.212C85.6685 218.15 83.9745 218.366 83.1275 218.366C82.5315 218.366 81.81 218.674 81.214 218.705C80.6494 218.736 78.9868 217.811 78.4849 217.41C78.7358 217.194 80.367 216.793 80.6493 216.7C83.4412 215.837 86.3899 216.546 89.2759 216.453Z" fill="#1174BA"/>
<path d="M95.9888 216.793C96.9926 216.793 97.8082 216.114 98.812 216.083C99.5021 216.361 100.224 216.33 100.914 216.453C103.078 216.7 103.862 217.996 103.925 219.846C104.113 224.782 104.333 229.717 104.27 234.652C104.208 238.076 104.113 241.5 103.894 244.924C103.831 245.942 103.235 246.651 102.325 247.114C101.823 247.361 101.29 247.515 100.726 247.607C101.008 247.021 101.384 246.497 101.416 245.818C101.478 243.628 101.635 241.407 101.667 239.217C101.792 232.863 101.761 226.54 101.322 220.217C101.196 218.335 100.349 217.41 98.4356 217.132C97.6514 217.039 96.8044 216.916 95.9888 216.793Z" fill="#1174BA"/>
<path d="M95.9888 216.793C96.8044 216.916 97.6514 217.039 98.467 217.163C100.381 217.44 101.227 218.366 101.353 220.247C101.792 226.571 101.824 232.925 101.698 239.248C101.667 241.438 101.51 243.659 101.447 245.849C101.416 246.528 101.039 247.052 100.757 247.638C100.381 247.823 100.004 248.101 99.5649 248.07C100.914 246.713 100.537 244.955 100.632 243.32C100.788 239.557 100.977 235.794 100.882 232.03C100.788 228.051 100.726 224.072 100.412 220.093C100.286 218.643 99.3767 217.687 97.9024 217.44C96.3966 217.224 94.8595 217.07 93.3225 216.885C93.0715 216.854 92.7892 216.916 92.6951 216.608C93.793 216.577 94.8909 216.762 95.9888 216.793Z" fill="#88C6E3"/>
<path d="M99.0316 197.052C99.659 197.113 100.318 197.267 100.914 196.959C100.914 199.056 100.914 201.185 100.914 203.282C100.255 203.313 99.6276 203.128 99.0002 203.066C99.0316 201.061 99.0316 199.056 99.0316 197.052Z" fill="#88C6E3"/>
<path d="M86.9231 202.85C88.5543 202.943 90.1542 203.036 91.7854 203.128C91.7854 203.19 91.7854 203.251 91.7854 203.344C89.8091 203.251 87.8642 203.159 85.8879 203.036C86.233 202.974 86.578 202.912 86.9231 202.85Z" fill="#06508C"/>
<path d="M100.537 215.22C100.255 215.435 99.9413 215.621 99.5649 215.559C100.475 214.88 100.443 213.893 100.506 212.906C100.537 212.629 100.506 212.32 100.506 212.042C100.506 210.839 100.506 209.667 100.506 208.464C100.569 207.601 100.443 206.737 100.349 205.904C100.224 204.701 99.0316 203.93 97.6827 204.053C97.4945 204.053 97.2749 204.023 97.0867 204.023C96.6475 203.56 96.0201 203.838 95.5182 203.652C95.2673 203.56 94.985 203.683 94.7026 203.498C94.8909 203.313 95.1104 203.375 95.2673 203.375C96.5848 203.529 97.9023 203.683 99.2198 203.899C100.255 204.084 100.945 204.794 101.071 205.843C101.353 207.878 101.322 209.914 101.259 211.95C101.259 212.351 101.196 212.752 101.196 213.153C101.227 213.955 101.008 214.634 100.537 215.22Z" fill="#06508C"/>
<path d="M82.6255 216.237C83.0019 215.96 83.5038 216.022 83.943 215.867C85.5428 215.991 87.1426 216.114 88.7425 216.237C88.9307 216.237 89.1816 216.176 89.2757 216.423C87.0485 216.515 84.8527 216.207 82.6255 216.237Z" fill="#88C6E3"/>
<path d="M100.976 195.509C100.914 194.8 100.537 194.152 99.9413 193.751C99.1884 193.257 98.1846 193.319 97.3063 193.257C95.9887 193.134 94.6712 193.042 93.3537 192.918C92.099 192.826 90.8756 192.641 89.6208 192.949C88.3974 193.319 87.6445 194.522 87.8641 195.756C87.8955 195.879 87.8955 196.034 88.0523 196.095C88.5856 196.28 89.1816 196.28 89.7149 196.157C90.2168 196.034 89.9972 195.571 90.0286 195.232C90.06 194.553 90.3109 194.306 91.0324 194.368C92.3185 194.46 93.6047 194.584 94.8595 194.676C96.0201 194.769 97.2749 194.738 98.3728 195.077C98.812 195.262 98.8747 195.663 98.8747 196.064C98.9061 196.404 98.7493 196.774 99.063 197.051C99.6903 197.113 100.349 197.267 100.945 196.959C101.102 196.496 101.039 196.003 100.976 195.509ZM99.5021 194.245C99.5335 194.368 99.6276 194.43 99.7217 194.491C99.6276 194.46 99.5335 194.399 99.5021 194.245ZM100.286 195.694C100.318 195.262 100.286 194.861 99.8158 194.553C99.7217 194.43 99.6276 194.337 99.5335 194.214C99.6276 194.337 99.7217 194.43 99.8158 194.553C100.286 194.861 100.318 195.262 100.286 195.694Z" fill="#06508C"/>
<path d="M97.4318 228.699C97.4632 226.015 97.275 223.332 97.2436 220.648C97.2436 219.908 97.024 219.137 96.3966 218.705C95.832 218.304 95.1732 217.996 94.4204 217.965C92.0363 217.811 89.6522 217.625 87.2996 217.471C84.9155 217.348 82.5314 217.44 80.1474 217.194C78.2025 217.009 76.7908 218.273 76.7281 220.186C76.634 222.838 76.5399 225.46 76.4458 228.113C76.3203 231.383 76.4458 234.806 76.5085 238.107C76.5399 239.834 76.634 241.562 76.7281 243.258C76.7908 244.43 76.634 245.818 77.3241 246.836C77.9515 247.731 79.1122 248.008 80.1474 248.163C82.9392 248.625 85.7624 248.995 88.617 249.304C90.06 249.458 91.503 249.581 92.946 249.705C94.2322 249.797 95.4242 249.89 96.5848 249.211C96.6162 249.18 96.6789 249.15 96.7103 249.119C96.7417 249.057 96.773 248.995 96.8044 248.934C97.0554 248.07 97.1495 247.175 97.2122 246.312C97.2122 246.127 97.2749 245.972 97.2749 245.787C97.4004 241.562 97.369 237.336 97.4632 233.11C97.4632 231.629 97.4318 230.149 97.4318 228.699Z" fill="#06508C"/>
<path d="M76.7908 245.571C76.7908 245.602 76.8221 245.633 76.8535 245.664C76.8535 245.633 76.8535 245.571 76.8221 245.541L76.7908 245.571Z" fill="#06508C"/>
<path d="M103.047 206.86C103.047 206.336 103.047 205.812 102.953 205.318C102.859 204.825 102.639 204.3 102.231 203.961C101.792 203.56 101.196 203.375 100.6 203.282C100.255 203.221 99.9101 203.19 99.5337 203.159C95.7066 202.727 91.8482 202.388 87.9898 202.48C87.7075 202.48 87.1114 202.665 86.9232 202.85C88.523 202.943 90.1543 203.036 91.7541 203.128C91.7541 203.19 91.7541 203.251 91.7541 203.344C89.7778 203.251 87.8329 203.159 85.8567 203.035C85.4175 203.005 84.7901 203.251 84.3823 203.375C83.849 203.529 83.3158 203.714 82.8452 203.992C82.0924 204.424 81.7787 205.195 81.7159 206.058C81.5277 208.187 81.5591 210.346 81.6532 212.474C81.6846 213.091 81.7473 213.739 81.9669 214.325C82.3433 215.25 83.0648 215.559 83.9118 215.929C85.5116 216.052 87.1115 216.176 88.7113 216.299C88.8995 216.299 89.1504 216.237 89.2445 216.484C90.3738 216.546 91.5345 216.577 92.6638 216.638C93.7617 216.608 94.8597 216.762 95.9576 216.823C96.3967 216.854 96.7418 216.762 97.1182 216.638C97.4633 216.515 97.8397 216.361 98.1848 216.268C98.8749 216.052 99.565 215.713 99.9728 215.096C100.287 214.603 100.412 214.047 100.506 213.461C100.694 212.104 100.726 210.716 100.663 209.328C100.632 208.433 100.6 207.539 100.475 206.644C100.349 205.966 100.192 204.948 99.5964 204.516C99.3768 204.362 99.1258 204.269 98.8749 204.208C98.0907 203.992 97.3064 203.837 96.4908 203.776C96.3026 203.745 94.7655 203.498 94.7028 203.591C94.7655 203.498 94.9537 203.467 95.1106 203.467C96.3967 203.591 97.6515 203.745 98.9377 203.961C99.4082 204.053 99.9101 204.146 100.255 204.424C100.694 204.763 100.883 205.318 100.977 205.842C101.447 207.909 101.228 210.037 101.196 212.166C101.196 213.153 101.228 214.232 100.663 215.065C100.6 215.127 100.569 215.219 100.6 215.312C100.632 215.343 101.071 215.127 101.165 215.096C101.541 214.973 101.918 214.818 102.231 214.572C102.608 214.263 102.827 213.801 102.922 213.338C103.016 212.875 103.016 212.382 103.016 211.919C103.047 210.192 103.047 208.526 103.047 206.86Z" fill="#1E9ED1"/>
<path d="M81.9668 215.096L81.9982 215.127C81.9982 215.096 81.9982 215.096 81.9668 215.096C81.9668 215.065 81.9668 215.096 81.9668 215.096Z" fill="#1174BA"/>
<path d="M92.8831 204.238C94.5457 204.424 97.2749 204.053 98.1532 205.904C98.31 206.243 98.3414 206.583 98.3728 206.953C98.561 209.76 98.6551 212.598 97.9963 215.312C97.6827 216.546 96.9298 216.823 95.7064 216.762C95.3299 216.731 94.734 216.823 94.3575 216.793C93.3851 216.731 92.4126 216.577 91.4402 216.608C90.4364 216.546 89.4012 216.515 88.3974 216.453C88.3033 216.207 88.115 216.268 87.9268 216.268C86.5152 216.145 85.1036 216.021 83.692 215.898C82.9078 215.528 82.2804 215.22 81.9667 214.294C81.7471 213.708 81.7157 213.06 81.6843 212.443C81.5902 210.315 81.5902 208.156 81.7471 206.028C81.8098 205.195 82.0608 204.424 82.7509 203.961C83.1587 203.683 85.0722 203.807 85.5741 203.807L92.8831 204.238Z" fill="#1E9ED1"/>
<path d="M115.009 147.159C113.884 145.842 113.107 144.216 113.263 142.395C113.612 137.167 120.909 138.329 122.345 140.962C123.781 143.596 123.587 150.296 121.763 150.761C121.025 150.955 119.473 150.49 117.882 149.522L118.891 156.532H113.03L115.009 147.159Z" fill="#6BB8DC"/>
<path d="M114.543 148.321C113.806 145.029 111.71 142.821 112.02 141.35C112.253 140.381 112.797 139.762 113.728 139.529C114.194 137.593 115.747 136.779 118.347 137.051C122.267 137.477 124.674 139.103 123.626 142.666C122.694 142.666 121.53 142.318 119.938 142.899C119.434 143.093 119.085 143.673 118.852 144.642H118.153C117.454 143.48 116.756 143.054 116.096 143.364C115.436 143.673 115.281 144.409 115.63 145.571L115.281 148.282H114.543V148.321Z" fill="#06508C"/>
<path d="M123.121 145.068C123.276 145.378 123.548 145.687 123.664 145.997C123.781 146.307 123.859 146.733 123.897 147.043C123.936 147.508 123.354 148.089 122.849 148.089" fill="#6BB8DC"/>
<path d="M122.849 144.254C122.694 144.254 122.539 144.254 122.422 144.254C122.306 144.293 122.19 144.293 122.034 144.332C121.763 144.409 121.53 144.487 121.219 144.526C121.374 144.216 121.646 144.061 121.957 143.983C122.112 143.945 122.267 143.945 122.461 143.983C122.655 144.022 122.811 144.099 122.849 144.254Z" fill="#06508C"/>
<path d="M122.849 149.289C122.694 149.328 122.539 149.328 122.422 149.289C122.267 149.251 122.151 149.173 121.995 149.134C121.762 149.018 121.53 148.825 121.297 148.747L121.568 148.592C121.568 148.631 121.607 148.747 121.685 148.863C121.762 148.979 121.84 149.057 121.918 149.173C122.073 149.367 122.267 149.599 122.461 149.793C122.306 149.754 122.189 149.715 122.034 149.638C121.918 149.56 121.801 149.483 121.685 149.406C121.568 149.328 121.452 149.212 121.374 149.096C121.297 148.979 121.18 148.825 121.18 148.592V148.321L121.413 148.437C121.724 148.553 121.918 148.747 122.151 148.941C122.383 149.057 122.577 149.212 122.849 149.289Z" fill="#06508C"/>
<path d="M122.384 145.494C122.555 145.494 122.694 145.355 122.694 145.184C122.694 145.013 122.555 144.874 122.384 144.874C122.212 144.874 122.073 145.013 122.073 145.184C122.073 145.355 122.212 145.494 122.384 145.494Z" fill="#06508C"/>
<path d="M133.989 175.239L140.937 181.978C142.955 182.83 144.624 183.798 145.905 184.805C146.177 185.154 146.526 185.812 145.129 185.541C143.77 185.232 142.334 184.999 142.062 185.425C141.791 185.851 142.567 186.548 142.101 187.129C141.791 187.517 140.704 186.277 138.919 183.45L131.699 179.19L133.989 175.239ZM100.066 169.12L105.422 169.158C101.347 182.365 99.1731 189.26 98.9014 189.879C98.3192 191.274 99.5224 193.404 100.066 194.566C98.3968 195.302 98.5909 192.552 96.4562 193.52C94.5155 194.411 93.0793 196.037 90.867 194.643C90.5953 194.488 90.2847 193.83 91.0222 193.365C92.8076 192.126 95.4082 189.957 95.7575 189.26C96.2621 188.291 97.6982 181.591 100.066 169.12Z" fill="#6BB8DC"/>
<path d="M116.407 153.937L118.541 153.589C121.879 165.363 138.996 173.38 140.083 177.757C140.471 179.383 139.307 180.197 139.889 180.661L137.133 182.675C136.668 182.133 135.658 183.14 133.601 182.443C131.544 181.746 116.407 167.88 116.407 153.937Z" fill="#1174BA"/>
<path d="M119.977 155.486C119.744 171.056 128.749 175.045 126.731 181.281C125.062 186.432 109.187 191.971 106.431 186.936C105.306 184.883 104.801 182.404 104.762 179.732C104.064 181.785 103.52 183.566 103.093 185.077C102.395 187.633 99.6388 188.059 99.6388 189.066L96.0291 188.059C96.262 186.703 94.593 186.045 95.0199 183.063C97.0771 169.584 102.55 159.785 111.477 153.743L111.555 152.427C111.593 151.884 112.059 151.497 112.603 151.536L119.201 152.001C119.744 152.039 120.132 152.504 120.094 153.046L119.977 155.486Z" fill="#1E9ED1"/>
<path d="M4.77549 85.0985C2.95031 75.1068 3.68038 68.385 11.7112 60.9366C16.6392 56.3949 23.3923 56.7582 28.3203 61.1183C28.6854 50.5815 37.0812 39.1363 48.5798 40.0447C58.0708 40.953 61.9036 51.8531 63.3638 59.8466C71.0295 56.7582 75.9575 59.4832 77.2352 67.4767C90.7415 64.025 102.97 76.5601 100.05 90.0036C98.5898 96.5437 93.1142 100.54 86.5436 100.904C81.4331 101.267 81.068 100.177 77.6002 97.6337C79.0603 104.537 57.3407 105.445 53.8728 99.2687C46.2071 103.084 38.5413 108.352 29.4154 105.99C26.3126 105.264 23.7574 103.447 21.3846 101.449C20.8371 100.904 14.9965 95.0903 14.814 95.272C11.1636 96.907 7.69578 97.0887 4.59297 94.182C1.8552 91.6386 1.49016 87.6419 4.77549 85.0985Z" fill="#F45F0C"/>
<path d="M66.8654 91.2964L84.7475 88.7602L67.9602 90.0283L81.2806 75.898L63.5809 93.2892L62.6686 81.695V94.3761L47.3411 109.412L46.6112 68.2894L54.0925 59.0503L46.6112 67.3836L46.4287 54.5214L46.2462 95.6442L24.3498 77.7096L30.5538 83.1443L21.7952 88.0356L30.9187 83.5066L46.2462 97.2746V180.245L48.6184 180.426L47.3411 111.948L66.8654 91.2964Z" fill="#06508C"/>
<path d="M53.5597 172.061C53.4659 166.155 55.3432 157.811 60.6938 165.218C60.5999 162.311 62.5712 154.53 66.7014 155.561C68.1094 155.936 69.8929 159.593 70.1745 160.343C69.7991 154.624 75.5251 145.999 82.0959 149.749C87.2587 152.655 86.0384 161.936 86.0384 166.999C86.0384 164.749 88.1035 163.811 89.6993 165.218C90.638 166.061 91.2951 171.405 91.0135 172.53C90.4502 176.186 86.6955 177.03 83.2223 175.811C82.0959 181.53 71.6764 177.593 69.8929 174.311C69.142 176.561 65.9504 176.749 64.7301 174.78C64.7301 177.124 59.5673 177.874 57.5022 177.217C55.3432 176.468 54.6862 174.405 53.5597 172.061Z" fill="#1E9ED1"/>
<path d="M79.1445 152.558L74.8242 174.927L75.1929 174.998L79.5132 152.629L79.1445 152.558Z" fill="#A4D5EA"/>
<path d="M82.3207 158.592L77.2576 162.921L77.5017 163.206L82.5649 158.877L82.3207 158.592Z" fill="#A4D5EA"/>
<path d="M76.37 167.467L73.1785 162.124L73.4601 161.936L76.6516 167.28L76.37 167.467Z" fill="#A4D5EA"/>
<path d="M57.8321 166.522L57.4792 166.65L60.366 174.579L60.7189 174.451L57.8321 166.522Z" fill="#A4D5EA"/>
<path d="M55.6061 169.066L55.5029 169.427L58.8424 170.38L58.9455 170.019L55.6061 169.066Z" fill="#A4D5EA"/>
<path d="M50.5559 181.249C50.7436 173.468 48.2092 162.311 40.8874 172.061C40.9813 168.218 38.3529 157.811 32.8147 159.124C30.8434 159.593 28.5905 164.561 28.1212 165.405C28.5905 157.811 20.8933 146.28 12.0696 151.343C5.12329 155.28 6.71907 167.655 6.71907 174.311C6.6252 171.311 3.903 170.093 1.83788 171.968C0.617582 173.093 -0.227239 180.124 0.0543682 181.718C0.899189 186.593 5.96812 187.624 10.5677 186.124C12.0696 193.811 26.15 188.561 28.5905 184.155C29.6231 187.155 33.8472 187.343 35.5369 184.811C35.443 187.999 42.4832 189.03 45.2992 187.999C48.0214 186.968 48.9601 184.343 50.5559 181.249Z" fill="#88C6E3"/>
<path d="M21.4565 185.092L21.9258 184.999L16.0121 155.186L15.5427 155.28L21.4565 185.092Z" fill="#06508C"/>
<path d="M18.2649 169.343L18.6404 168.968L11.788 163.155L11.5063 163.53L18.2649 169.343Z" fill="#06508C"/>
<path d="M19.8607 174.967L24.0848 167.936L23.6155 167.749L19.3914 174.78L19.8607 174.967Z" fill="#06508C"/>
<path d="M33.5655 181.249L34.5981 165.874L34.0349 165.78L33.0962 181.155L33.5655 181.249Z" fill="#06508C"/>
<path d="M33.7533 176.561L37.6019 173.749L37.3203 173.28L33.4717 176.186L33.7533 176.561Z" fill="#06508C"/>
<path d="M33.8471 171.124L34.2226 170.936L31.6881 165.78L31.2188 165.968L33.8471 171.124Z" fill="#06508C"/>
<path d="M41.3568 184.53L45.2993 173.936L44.8299 173.749L40.8875 184.342L41.3568 184.53Z" fill="#06508C"/>
<path d="M43.3279 178.905L47.8336 177.593L47.7397 177.124L43.1401 178.436L43.3279 178.905Z" fill="#06508C"/>
</svg>
