<svg width="241" height="195" viewBox="0 0 241 195" fill="none" xmlns="http://www.w3.org/2000/svg">
<path d="M6.75562 139.132C16.3993 129.677 64.7961 122.299 87.7891 119.792C129.697 119.792 118.607 117.214 163.465 125.164C222.475 135.623 234.118 145.936 239.476 150.95C244.833 155.964 235.063 165.926 225.747 168.856C214.362 172.438 199.288 176.437 190.447 181.157L190.19 181.294C184.023 184.589 164.537 195 142.035 195C126.962 195 95.1558 183.182 73.0558 178.526C50.9558 173.87 19.9061 182.465 6.75562 172.796C1.39804 168.856 -5.29895 150.95 6.75562 139.132Z" fill="#DDF2F9"/>
<path d="M121.236 128.879C121.485 118.556 118.129 103.757 108.433 116.691C108.558 111.592 105.077 97.7869 97.7436 99.5281C95.1333 100.15 92.1502 106.741 91.5287 107.861C92.1502 97.7869 81.9576 82.4897 70.2735 89.2056C61.0754 94.429 63.1885 110.845 63.1885 119.676C63.0642 115.696 59.4595 114.079 56.7249 116.566C55.109 118.059 53.9904 127.386 54.3633 129.501C55.4819 135.968 62.1941 137.336 68.2847 135.346C70.2735 145.544 88.9184 138.579 92.1502 132.734C93.5175 136.714 99.1109 136.963 101.348 133.605C101.224 137.833 110.546 139.201 114.275 137.833C117.88 136.465 119.123 132.983 121.236 128.879Z" fill="#88C6E3"/>
<path d="M82.7034 133.978L83.3249 133.853L75.4941 94.3046L74.8726 94.4289L82.7034 133.978Z" fill="#06508C"/>
<path d="M78.4771 113.084L78.9743 112.587L69.9005 104.876L69.5276 105.373L78.4771 113.084Z" fill="#06508C"/>
<path d="M80.5905 120.546L86.184 111.218L85.5625 110.97L79.969 120.297L80.5905 120.546Z" fill="#06508C"/>
<path d="M98.738 128.879L100.105 108.483L99.3594 108.358L98.1165 128.754L98.738 128.879Z" fill="#06508C"/>
<path d="M98.9867 122.66L104.083 118.929L103.71 118.307L98.6138 122.163L98.9867 122.66Z" fill="#06508C"/>
<path d="M99.1107 115.447L99.6079 115.198L96.2519 108.358L95.6304 108.607L99.1107 115.447Z" fill="#06508C"/>
<path d="M109.055 133.232L114.275 119.178L113.654 118.929L108.433 132.983L109.055 133.232Z" fill="#06508C"/>
<path d="M111.665 125.769L117.631 124.028L117.507 123.406L111.417 125.148L111.665 125.769Z" fill="#06508C"/>
<path d="M46.8615 78.4712L57.6757 116.229L65.5468 144.061H71.2961L62.9117 78.4712H46.8615Z" fill="#1174BA"/>
<path d="M43.987 78.4712C43.7474 97.9468 42.8919 108.554 42.6181 110.328C42.3443 112.102 38.4088 123.357 30.743 144.061H36.6635C46.4168 124.176 51.8581 112.92 53.0216 110.328C54.1852 107.736 57.6758 97.0941 62.946 78.4712H43.987Z" fill="#1E9ED1"/>
<path d="M30.1955 149.382L30.5035 143.14H36.7661C39.7434 145.22 43.6106 146.892 48.3674 148.188V149.382H37.0399L33.1728 148.802V149.382H30.1955Z" fill="#06508C"/>
<path d="M64.7253 149.382L65.0333 143.14H71.2959C74.2733 145.22 78.1403 146.892 82.8972 148.188V149.382H71.5697L67.7026 148.802V149.382H64.7253Z" fill="#06508C"/>
<path d="M52.1658 41.771C50.7969 40.168 49.873 38.1897 50.0098 36.0068C50.4547 29.6627 59.3183 31.0611 61.0636 34.2673C62.7747 37.4734 62.5694 45.5911 60.3449 46.171C59.4551 46.4097 57.5729 45.8299 55.6223 44.6702L56.82 53.1972H49.6676L52.1658 41.771Z" fill="#DDF2F9"/>
<path d="M61.7477 35.6998C61.6793 35.2905 61.5082 34.813 61.3713 34.4378C61.2002 33.9262 60.9264 33.4828 60.6184 33.0394C60.0708 32.2208 59.3864 31.5046 58.6335 30.8906C57.2646 29.7651 55.5193 29.1511 53.8082 29.3558C52.9526 29.4581 52.0971 29.7992 51.3784 30.3449C50.7282 30.8224 50.1122 31.5728 49.2909 31.6069C48.3669 31.6751 47.5455 30.8565 46.8269 30.379C46.0055 29.8333 45.15 29.424 44.1575 29.2534C42.5491 28.9806 41.0433 29.5263 39.9482 30.8565C38.7846 32.2549 37.9291 34.3014 38.682 36.1432C38.8189 36.4843 39.0242 36.7913 39.2638 37.0301C39.5033 37.2347 39.8798 37.4735 39.9824 37.8486C40.0851 38.2238 39.7771 38.7013 39.6402 39.0424C39.4691 39.5199 39.3322 40.0315 39.3664 40.5773C39.4349 41.43 39.9824 42.2827 40.5642 42.8284C41.146 43.4082 41.8647 43.7493 42.6518 43.8857C43.1651 43.9881 43.6784 44.0563 44.226 44.0222C44.4997 43.9881 44.7051 43.9198 44.9789 43.8857C45.2184 43.8175 45.3553 43.8857 45.5606 44.0222C46.5189 44.6361 47.5455 44.8749 48.6748 44.8067C49.5988 44.7384 50.694 44.4997 51.4469 43.8516C52.3024 43.1354 52.2682 42.1462 52.0971 41.123C52.3024 41.2253 52.8842 41.2935 52.542 40.8842C52.4051 40.7137 52.1313 40.6455 51.9602 40.5432C51.7549 40.4408 51.5495 40.2703 51.3784 40.0998C50.7282 39.3494 51.3784 37.8486 52.1997 37.5758C53.4317 37.2006 53.6713 38.906 54.5611 39.3494C55.0744 39.5881 55.5877 39.2471 55.9642 38.906C56.4775 38.4285 56.8197 37.8145 57.0935 37.1665C57.3331 36.6549 57.5726 36.1091 57.8122 35.5634C57.9148 35.3246 58.3255 34.6084 58.1202 34.3355C58.9757 34.165 59.9682 34.5061 60.721 34.9836C61.029 35.1882 61.2686 35.3929 61.4397 35.7339C61.4739 35.8022 61.5424 36.0409 61.645 36.0409C61.8162 36.0068 61.7477 35.8022 61.7477 35.6998Z" fill="#F77B0B"/>
<path d="M62.0905 39.1447C62.022 39.7586 62.4669 40.3043 62.8092 40.7477C63.0145 41.0206 63.87 42.0779 63.3567 42.3849C62.8776 42.6919 62.1932 42.6237 61.6456 42.5896" fill="#DDF2F9"/>
<path d="M59.7974 38.872C59.9001 38.7014 60.037 38.565 60.2081 38.4968C60.3792 38.3945 60.5503 38.3604 60.7557 38.3604C60.961 38.3604 61.1663 38.3945 61.3374 38.565C61.5085 38.7014 61.6112 38.9402 61.5428 39.1107C61.3717 39.0084 61.2348 38.9743 61.1321 38.9402C61.0294 38.9402 60.8926 38.9061 60.7557 38.9402C60.4819 38.9061 60.2081 38.9061 59.7974 38.872Z" fill="#1E9ED1"/>
<path d="M61.6455 43.8859C61.2691 44.1247 60.8584 44.1588 60.4135 44.0906C59.9686 44.0223 59.558 43.7154 59.4211 43.272C59.866 43.3743 60.174 43.4766 60.5162 43.5107C60.8926 43.6131 61.2691 43.6472 61.6455 43.8859Z" fill="#1E9ED1"/>
<path d="M60.8924 39.9632C60.7034 39.9632 60.5502 39.8105 60.5502 39.6221C60.5502 39.4337 60.7034 39.281 60.8924 39.281C61.0814 39.281 61.2346 39.4337 61.2346 39.6221C61.2346 39.8105 61.0814 39.9632 60.8924 39.9632Z" fill="#1E9ED1"/>
<path d="M162.878 132.961C162.754 125.125 165.24 114.057 172.325 123.882C172.2 120.026 174.811 109.704 180.28 111.072C182.144 111.569 184.506 116.42 184.879 117.415C184.382 109.828 191.964 98.3864 200.665 103.361C207.501 107.217 205.885 119.529 205.885 126.245C205.885 123.26 208.62 122.016 210.733 123.882C211.976 125.001 212.846 132.09 212.473 133.582C211.727 138.433 206.756 139.552 202.156 137.935C200.665 145.522 186.868 140.298 184.506 135.945C183.512 138.93 179.285 139.179 177.67 136.567C177.67 139.676 170.833 140.671 168.099 139.801C165.24 138.806 164.37 136.07 162.878 132.961Z" fill="#1E9ED1"/>
<path d="M196.757 107.088L191.036 136.763L191.524 136.857L197.245 107.183L196.757 107.088Z" fill="#A4D5EA"/>
<path d="M200.963 115.093L194.258 120.835L194.581 121.213L201.286 115.471L200.963 115.093Z" fill="#A4D5EA"/>
<path d="M193.083 126.866L188.856 119.778L189.229 119.529L193.455 126.618L193.083 126.866Z" fill="#A4D5EA"/>
<path d="M168.535 125.612L168.068 125.782L171.891 136.301L172.358 136.131L168.535 125.612Z" fill="#A4D5EA"/>
<path d="M165.588 128.987L165.451 129.465L169.873 130.73L170.01 130.252L165.588 128.987Z" fill="#A4D5EA"/>
<path d="M158.825 103.109L146.901 144.007L141.35 174.733H135.748L141.35 103.109H158.825Z" fill="#6BB8DC"/>
<path d="M164.119 103.109C163.296 124.38 163.605 135.941 163.81 137.893C164.016 139.846 165.044 152.742 172.239 175.401H166.431C156.923 153.667 153.634 140.77 152.503 137.893C151.424 135.016 148.186 123.455 143.509 103.109H164.119Z" fill="#6BB8DC"/>
<path d="M159.082 103.109C155.998 117.187 150.653 139.64 143.046 170.519H134.823C134.206 138.818 136.776 118.009 141.247 103.109H159.082Z" fill="#F45F0C"/>
<path d="M164.17 103.109C163.348 124.38 165.455 145.292 171.983 170.879H163.245C153.737 149.505 146.901 128.645 142.224 103.109H164.17Z" fill="#F77B0B"/>
<path d="M173.062 179.614L172.754 174.425C170.852 174.99 168.488 174.784 165.661 173.757C162.629 175.915 158.774 177.405 154.148 178.175C153.788 178.227 153.583 178.586 153.634 178.946V178.997L154.097 180.59H165.661H172.394L173.062 179.614Z" fill="#06508C"/>
<path d="M142.584 179.614L142.276 174.425C140.374 174.99 138.01 174.784 135.183 173.757C132.151 175.915 128.296 177.405 123.67 178.175C123.31 178.227 123.105 178.586 123.156 178.946V178.997L123.619 180.59H135.183H141.916L142.584 179.614Z" fill="#06508C"/>
<path d="M154.868 62.5616C156.359 60.8147 157.387 58.6568 157.181 56.2419C156.719 49.3056 147.056 50.847 145.154 54.3408C143.253 57.8347 143.51 66.7234 145.925 67.34C146.902 67.5969 148.958 66.9803 151.065 65.6958L149.729 74.9956H157.49L154.868 62.5616Z" fill="#6BB8DC"/>
<path d="M155.486 64.1029C156.462 59.7356 159.238 56.8069 158.826 54.8545C158.518 53.57 157.799 52.7479 156.565 52.4396C155.948 49.8706 153.892 48.7917 150.449 49.1513C145.258 49.7165 142.071 51.8745 143.459 56.6014C144.692 56.6014 146.234 56.139 148.342 56.9097C149.01 57.1666 149.472 57.9373 149.781 59.2218H150.706C151.631 57.6804 152.556 57.1152 153.43 57.5263C154.304 57.9373 154.509 58.9135 154.047 60.4549L154.509 64.0515H155.486V64.1029Z" fill="#06508C"/>
<path d="M144.127 59.7869C143.921 60.1979 143.561 60.6089 143.407 61.02C143.253 61.431 143.15 61.9962 143.099 62.4072C143.047 63.0238 143.818 63.7945 144.487 63.7945" fill="#6BB8DC"/>
<path d="M144.486 58.7079C144.692 58.7079 144.898 58.7079 145.052 58.7079C145.206 58.7593 145.36 58.7593 145.566 58.8106C145.925 58.9134 146.234 59.0162 146.645 59.0675C146.439 58.6565 146.08 58.451 145.668 58.3482C145.463 58.2968 145.257 58.2968 145 58.3482C144.743 58.3996 144.538 58.5024 144.486 58.7079Z" fill="#06508C"/>
<path d="M144.487 65.3873C144.692 65.4387 144.898 65.4387 145.052 65.3873C145.258 65.3359 145.412 65.2331 145.617 65.1818C145.926 65.0276 146.234 64.7707 146.543 64.668L146.183 64.4624C146.183 64.5138 146.131 64.668 146.029 64.8221C145.926 64.9762 145.823 65.079 145.72 65.2331C145.515 65.49 145.258 65.7983 145.001 66.0552C145.206 66.0038 145.36 65.9525 145.566 65.8497C145.72 65.7469 145.874 65.6442 146.029 65.5414C146.183 65.4387 146.337 65.2845 146.44 65.1304C146.543 64.9762 146.697 64.7707 146.697 64.4624V64.1028L146.388 64.2569C145.977 64.4111 145.72 64.668 145.412 64.9249C145.103 65.079 144.846 65.2845 144.487 65.3873Z" fill="#06508C"/>
<path d="M145.103 60.3521C144.876 60.3521 144.692 60.1681 144.692 59.9411C144.692 59.7141 144.876 59.53 145.103 59.53C145.331 59.53 145.515 59.7141 145.515 59.9411C145.515 60.1681 145.331 60.3521 145.103 60.3521Z" fill="#06508C"/>
<path d="M83.7242 66.1359L73.8235 68.4157L75.046 73.9343L85.5479 68.6339C88.1909 68.3819 90.4455 67.8512 92.3201 67.1381C92.7747 66.8033 93.3956 66.1611 91.7096 66.0061C90.0236 65.8511 88.2546 65.5825 88.1285 64.9873C87.9761 64.3703 89.0949 63.875 88.7768 63.0309C88.5545 62.4449 86.8805 63.5032 83.7242 66.1359Z" fill="#DDF2F9"/>
<path d="M53.2947 48.388L55.8613 47.9446C61.4737 53.3677 63.7666 66.397 67.4968 68.1024C71.0217 69.7395 76.0524 68.1706 82.007 66.0218L83.8208 70.0806C78.4137 75.9131 66.8809 80.8246 62.2266 78.0278C54.732 73.5596 53.0209 57.4948 53.2947 48.388Z" fill="#6BB8DC"/>
<path d="M42.0698 80.62C52.4049 80.62 60.0022 80.62 64.8617 80.62C65.8884 80.62 65.7173 79.1193 65.5462 78.3689C63.8009 69.6372 57.0249 60.2234 57.0249 47.8082L50.4542 46.7849C45.0129 55.5165 43.1307 66.2606 42.0698 80.62Z" fill="#C1E3F2"/>
<rect width="5.29801" height="9.28388" rx="0.5" transform="matrix(0.930152 -0.367174 0.366017 0.930608 50.1572 39.0481)" fill="#1174BA"/>
<path d="M51.6944 38.4712C52.9087 38.4712 54.1231 39.0742 54.7302 39.6772C55.216 40.1596 58.1709 46.7121 59.5876 49.9281L56.5516 51.7371L55.3373 46.9131C54.7301 46.7121 53.2728 46.1896 52.3014 45.7072C51.087 45.1042 49.8727 43.2952 50.4799 43.2952C50.9656 43.2952 52.3015 43.6972 52.9087 43.8982C51.6944 43.2952 50.48 38.4712 51.6944 38.4712Z" fill="#A4D5EA"/>
<path d="M39.063 70.9726C43.0356 56.3801 45.6842 55.0535 50.0096 46.8188H50.078H52.6105C58.4967 66.8743 60.1393 80.2105 57.5042 86.8957H37.0052C37.3132 81.9841 37.6599 76.0206 39.063 70.9726Z" fill="#88C6E3"/>
<path d="M55.6151 49.7472L59.5876 48.4207C67.5327 58.5028 65.5464 69.8672 63.5601 74.2892C50.3184 72.9626 55.7475 63.5438 56.2772 63.0132C56.8068 62.4825 56.0565 53.9481 55.6151 49.7472Z" fill="#88C6E3"/>
<path d="M46.1225 56.2684C47.5721 61.3882 53.052 72.2483 63.3747 74.7294C65.2214 70.4821 67.0898 59.217 59.7902 48.1341" stroke="#1174BA" stroke-width="0.5"/>
<path d="M120.018 89.7861L130.856 92.2817L129.518 98.3227L118.022 92.5205C115.129 92.2447 112.661 91.6637 110.609 90.8831C110.111 90.5166 109.431 89.8137 111.277 89.644C113.123 89.4743 115.059 89.1803 115.197 88.5288C115.364 87.8534 114.139 87.3112 114.488 86.3872C114.731 85.7457 116.563 86.9042 120.018 89.7861Z" fill="#DDF2F9"/>
<path d="M153.329 70.3581L150.519 69.8727C144.376 75.8092 141.866 90.0718 137.782 91.9386C133.924 93.7308 128.417 92.0133 121.899 89.6611L119.913 94.1041C125.832 100.489 138.457 105.865 143.551 102.804C151.755 97.9125 153.629 80.3269 153.329 70.3581Z" fill="#88C6E3"/>
<path d="M165.616 105.641C154.303 105.641 145.987 105.641 140.667 105.641C139.543 105.641 139.73 103.998 139.918 103.177C141.828 93.6188 149.246 83.3139 149.246 69.7234L156.438 68.6033C162.395 78.1614 164.455 89.9225 165.616 105.641Z" fill="#C1E3F2"/>
<rect width="5.79952" height="10.1627" rx="0.5" transform="matrix(-0.930152 -0.367174 -0.366017 0.930608 156.763 60.134)" fill="#1174BA"/>
<path d="M155.08 59.5026C153.751 59.5026 152.422 60.1626 151.757 60.8227C151.225 61.3508 147.991 68.5236 146.44 72.044L149.763 74.0243L151.093 68.7436C151.757 68.5236 153.353 67.9515 154.416 67.4235C155.745 66.7634 157.075 64.7832 156.41 64.7832C155.878 64.7832 154.416 65.2232 153.751 65.4433C155.08 64.7832 156.41 59.5026 155.08 59.5026Z" fill="#1E9ED1"/>
<path d="M168.908 95.0807C164.559 79.1068 161.66 77.6547 156.925 68.6405H156.85H154.078C147.635 90.5944 145.836 105.193 148.721 112.511H171.16C170.823 107.135 170.444 100.606 168.908 95.0807Z" fill="#A4D5EA"/>
<path d="M150.789 71.846L146.44 70.3938C137.743 81.4303 139.917 93.8705 142.092 98.7111C156.587 97.2589 150.644 86.9485 150.064 86.3677C149.484 85.7868 150.306 76.4445 150.789 71.846Z" fill="#A4D5EA"/>
<path d="M161.18 78.9843C159.593 84.5889 153.594 96.4769 142.294 99.1929C140.273 94.5436 138.228 82.2121 146.218 70.0801" stroke="#1174BA" stroke-width="0.5"/>
<path d="M148.269 22.2997C149.144 35.7964 134.997 47.7756 116.638 48.9736C105.194 49.7722 94.7826 46.1784 88.3451 40.1089C87.0735 38.911 75.6291 39.2304 76.9007 38.1922C78.967 36.4353 83.3382 33.2408 82.7819 31.6436C82.2255 30.0463 81.9076 28.4491 81.7487 26.772C80.8745 13.2754 95.021 1.29609 113.38 0.0981672C131.739 -1.09976 147.395 8.8031 148.269 22.2997Z" fill="#DDF2F9"/>
<path d="M236.989 43.5252C237.863 57.0218 223.717 69.0011 205.358 70.199C193.914 70.9976 183.502 67.4039 177.065 61.3344C175.793 60.1364 164.349 60.4559 165.62 59.4177C167.687 57.6607 172.058 54.4662 171.502 52.869C170.945 51.2718 170.627 49.6745 170.468 47.9974C169.594 34.5008 183.741 22.5216 202.099 21.3236C220.458 20.1257 236.115 30.0286 236.989 43.5252Z" fill="#DDF2F9"/>
<path d="M120.5 29.3507H119.789V37.1446H115.594V24.7565L120.5 29.3507Z" fill="#06508C"/>
<path d="M97.2131 37.1447H109.976V13.3037H103.824L97.2131 23.3619V37.1447Z" fill="#06508C"/>
<path d="M103.35 37.1445H116.587V23.3617L109.62 13.8286L103.35 23.3617V37.1445Z" fill="#88C6E3"/>
<path d="M103.35 37.0792H116.587V23.2964L109.62 13.7633L103.35 23.2964V37.0792Z" fill="#88C6E3"/>
<path d="M109.976 13.3037L109.635 13.8452L116.587 23.3619H117.165L109.976 13.3037Z" fill="#1E9ED1"/>
<path d="M109.976 13.3037H103.824L96.6648 24.1659H103.35L109.976 13.3037Z" fill="#1E9ED1"/>
<path d="M105.097 14.6726L106.965 14.6726L106.965 10.6198L105.097 10.6198L105.097 14.6726Z" fill="#06508C"/>
<path d="M106.967 14.6656V10.6128H108.449V13.3037H107.708L106.967 14.6656Z" fill="#06508C"/>
<path d="M116.588 37.1345L120.145 37.1345L120.145 35.0671L116.588 35.0671L116.588 37.1345Z" fill="#6BB8DC"/>
<path d="M116.587 35.0773H103.32V37.1447H116.587V35.0773Z" fill="#6BB8DC"/>
<path d="M96.955 37.1345L103.314 37.1345L103.314 35.0671L96.955 35.0671L96.955 37.1345Z" fill="#1E9ED1"/>
<path d="M101.751 26.9922L102.611 26.9922L102.611 25.0396L101.751 25.0396L101.751 26.9922Z" fill="#06508C"/>
<path d="M101.751 29.6829L102.611 29.6829L102.611 27.7303L101.751 27.7303L101.751 29.6829Z" fill="#06508C"/>
<path d="M101.751 32.2911L102.611 32.2911L102.611 30.3386L101.751 30.3386L101.751 32.2911Z" fill="#06508C"/>
<path d="M100.477 26.9922L101.337 26.9922L101.337 25.0396L100.477 25.0396L100.477 26.9922Z" fill="#06508C"/>
<path d="M100.477 29.6829L101.337 29.6829L101.337 27.7303L100.477 27.7303L100.477 29.6829Z" fill="#06508C"/>
<path d="M100.477 32.2911L101.337 32.2911L101.337 30.3386L100.477 30.3386L100.477 32.2911Z" fill="#06508C"/>
<path d="M99.1696 26.9922L100.029 26.9922L100.029 25.0396L99.1696 25.0396L99.1696 26.9922Z" fill="#06508C"/>
<path d="M99.1696 29.6829L100.029 29.6829L100.029 27.7303L99.1696 27.7303L99.1696 29.6829Z" fill="#06508C"/>
<path d="M99.1696 32.2911L100.029 32.2911L100.029 30.3386L99.1696 30.3386L99.1696 32.2911Z" fill="#06508C"/>
<path d="M116.587 37.1447H117.965V33.6826C117.965 32.8293 117.343 32.1566 116.587 32.1566V37.1447Z" fill="#6BB8DC"/>
<path d="M120.5 29.3507L116.587 25.6917V26.4792L119.788 29.3507H120.5Z" fill="#06508C"/>
<path d="M127.89 25.7596C127.89 24.8938 127.998 24.2037 128.213 23.6893C128.427 23.175 128.851 22.6119 129.482 21.9999C130.12 21.3814 130.524 20.9419 130.693 20.6815C130.954 20.2844 131.084 19.8547 131.084 19.3925C131.084 18.7805 130.931 18.315 130.625 17.996C130.325 17.6705 129.883 17.5077 129.297 17.5077C128.737 17.5077 128.284 17.6672 127.939 17.9862C127.601 18.2987 127.431 18.7251 127.431 19.2655H125.058C125.071 18.1132 125.462 17.2017 126.23 16.5311C127.005 15.8606 128.027 15.5253 129.297 15.5253C130.605 15.5253 131.624 15.8573 132.353 16.5214C133.089 17.1854 133.457 18.1132 133.457 19.3046C133.457 20.3658 132.962 21.4107 131.972 22.4393L130.771 23.621C130.342 24.1093 130.12 24.8221 130.107 25.7596H127.89ZM127.724 28.7968C127.724 28.4126 127.845 28.1034 128.086 27.869C128.327 27.6281 128.652 27.5077 129.062 27.5077C129.479 27.5077 129.808 27.6314 130.049 27.8788C130.289 28.1197 130.41 28.4257 130.41 28.7968C130.41 29.1548 130.293 29.4543 130.058 29.6952C129.824 29.9361 129.492 30.0565 129.062 30.0565C128.633 30.0565 128.301 29.9361 128.066 29.6952C127.838 29.4543 127.724 29.1548 127.724 28.7968Z" fill="#1174BA"/>
<path d="M203.227 41.6649C203.517 40.0758 203.401 39.0068 202.126 37.8222C201.344 37.0999 200.272 37.1577 199.489 37.8511C199.431 36.1753 198.098 34.3551 196.273 34.4995C194.766 34.644 194.158 36.3776 193.926 37.6488C192.709 37.1577 191.927 37.5911 191.724 38.8623C189.58 38.3134 187.638 40.307 188.102 42.4451C188.334 43.4852 189.203 44.1208 190.246 44.1786C191.057 44.2364 191.115 44.063 191.666 43.6585C191.434 44.7565 194.882 44.9009 195.433 43.9186C196.65 44.5253 197.867 45.3632 199.315 44.9876C199.808 44.872 200.214 44.5831 200.59 44.2653C200.677 44.1786 201.604 43.2541 201.633 43.2829C202.213 43.543 202.763 43.5719 203.256 43.1096C203.691 42.7051 203.749 42.0694 203.227 41.6649Z" fill="#1E9ED1"/>
<path d="M193.37 42.6507L190.532 42.2474L193.197 42.4491L191.082 40.2018L193.892 42.9677L194.037 41.1237V43.1405L196.47 45.5319L196.586 38.9917L195.398 37.5223L196.586 38.8476L196.615 36.802L196.644 43.3422L200.12 40.4899L199.135 41.3542L200.525 42.1321L199.077 41.4118L196.644 43.6015V56.7972L196.267 56.826L196.47 45.9353L193.37 42.6507Z" fill="#06508C"/>
<path d="M195.601 55.2793C195.616 54.3298 195.322 52.9883 194.485 54.179C194.499 53.7118 194.191 52.4608 193.544 52.6266C193.324 52.6869 193.045 53.2747 193.001 53.3953C193.059 52.4759 192.163 51.0892 191.134 51.6921C190.326 52.1593 190.517 53.6515 190.517 54.4654C190.517 54.1037 190.194 53.953 189.944 54.179C189.797 54.3147 189.694 55.1738 189.739 55.3547C189.827 55.9425 190.414 56.0782 190.958 55.8822C191.134 56.8016 192.765 56.1686 193.045 55.6411C193.162 56.0028 193.662 56.0329 193.853 55.7164C193.853 56.0932 194.661 56.2138 194.984 56.1083C195.322 55.9877 195.425 55.6561 195.601 55.2793Z" fill="#1E9ED1"/>
<path d="M191.596 52.1438L192.272 55.7401L192.215 55.7515L191.538 52.1552L191.596 52.1438Z" fill="#A4D5EA"/>
<path d="M191.099 53.1139L191.892 53.8098L191.853 53.8556L191.061 53.1597L191.099 53.1139Z" fill="#A4D5EA"/>
<path d="M192.03 54.5406L192.53 53.6815L192.486 53.6514L191.986 54.5105L192.03 54.5406Z" fill="#A4D5EA"/>
<path d="M194.932 54.3887L194.988 54.4093L194.536 55.6842L194.48 55.6636L194.932 54.3887Z" fill="#A4D5EA"/>
<path d="M195.281 54.7977L195.297 54.8557L194.774 55.009L194.758 54.951L195.281 54.7977Z" fill="#A4D5EA"/>
<path d="M196.071 56.7564C196.042 55.5054 196.439 53.7118 197.585 55.2793C197.57 54.6613 197.982 52.9883 198.849 53.1993C199.157 53.2747 199.51 54.0735 199.583 54.2092C199.51 52.9883 200.715 51.1344 202.096 51.9483C203.183 52.5813 202.933 54.5709 202.933 55.641C202.948 55.1587 203.374 54.9628 203.697 55.2642C203.888 55.4451 204.021 56.5755 203.977 56.8317C203.844 57.6155 203.051 57.7813 202.331 57.5401C202.096 58.7761 199.892 57.932 199.51 57.2236C199.348 57.7059 198.687 57.7361 198.422 57.3291C198.437 57.8416 197.335 58.0074 196.894 57.8416C196.468 57.6758 196.321 57.2538 196.071 56.7564Z" fill="#88C6E3"/>
<path d="M200.627 57.3742L200.553 57.3592L201.479 52.5662L201.552 52.5812L200.627 57.3742Z" fill="#06508C"/>
<path d="M201.126 54.8422L201.067 54.7819L202.14 53.8474L202.184 53.9077L201.126 54.8422Z" fill="#06508C"/>
<path d="M200.876 55.7465L200.215 54.6161L200.288 54.5859L200.95 55.7164L200.876 55.7465Z" fill="#06508C"/>
<path d="M198.731 56.7563L198.569 54.2845L198.658 54.2694L198.804 56.7413L198.731 56.7563Z" fill="#06508C"/>
<path d="M198.702 56.0027L198.099 55.5506L198.143 55.4752L198.746 55.9425L198.702 56.0027Z" fill="#06508C"/>
<path d="M198.687 55.1285L198.628 55.0984L199.025 54.2694L199.098 54.2996L198.687 55.1285Z" fill="#06508C"/>
<path d="M197.511 57.2837L196.894 55.5806L196.968 55.5504L197.585 57.2536L197.511 57.2837Z" fill="#06508C"/>
<path d="M197.203 56.3795L196.497 56.1685L196.512 56.0931L197.232 56.3042L197.203 56.3795Z" fill="#06508C"/>
<path d="M221.199 32.5542V58.0301L210.004 59.1963C210.004 59.1963 210.004 37.6079 210.004 37.1414L217.802 29.1851L221.199 32.5542Z" fill="#1E9ED1"/>
<path d="M200.713 37.1415H210.004V59.1964H200.713V37.1415Z" fill="#A4D5EA"/>
<path d="M217.802 29.1851H208.949L200.713 37.1414H210.004L217.802 29.1851Z" fill="#F77B0B"/>
<path d="M208.434 29.6774H217.313L217.107 29.9106H208.202L208.434 29.6774Z" fill="#F45F0C"/>
<path d="M206.967 31.1028H215.949L215.717 31.3101H206.735L206.967 31.1028Z" fill="#F45F0C"/>
<path d="M205.5 32.5022H214.559L214.328 32.7354H205.268L205.5 32.5022Z" fill="#F45F0C"/>
<path d="M204.059 33.9017H213.17L212.964 34.135H203.827L204.059 33.9017Z" fill="#F45F0C"/>
<path d="M202.592 35.3271H211.805L211.574 35.5345H202.36L202.592 35.3271Z" fill="#F45F0C"/>
<path d="M201.15 36.7267H210.416L210.184 36.9599H200.919L201.15 36.7267Z" fill="#F45F0C"/>
<path d="M207.224 39.6294H208.331V42.6098H207.224V39.6294Z" fill="#DDF2F9"/>
<path d="M208.466 59.2442V51.0898C208.466 49.3261 206.933 47.8831 205.023 47.8831C203.137 47.8831 201.58 49.3261 201.58 51.0898V59.2442H208.466Z" fill="#1E9ED1"/>
<path d="M202.188 59.2441H207.858V51.3045C207.858 49.7619 206.601 48.4916 205.023 48.4916C203.468 48.4916 202.188 49.7392 202.188 51.3045V59.2441Z" fill="#06508C"/>
<path d="M205.603 39.6294H206.71V42.6098H205.603V39.6294Z" fill="#DDF2F9"/>
<path d="M203.981 39.6294H205.088V42.6098H203.981V39.6294Z" fill="#DDF2F9"/>
<path d="M202.36 39.6294H203.467V42.6098H202.36V39.6294Z" fill="#DDF2F9"/>
<path d="M213.144 46.5231H211.316V41.4435H213.144V46.5231Z" fill="#6BB8DC"/>
</svg>
