<svg width="250" height="181" viewBox="0 0 250 181" fill="none" xmlns="http://www.w3.org/2000/svg">
<path d="M7.00581 126.223C17.0066 117.056 67.1958 109.902 91.0403 107.471C96.5963 107.471 120.07 108.513 169.519 112.68C231.329 117.889 242.789 132.821 248.345 137.682C253.901 142.544 243.768 152.203 234.107 155.045C222.301 158.517 195.91 164.42 190.354 168.24C184.798 172.06 162.921 180.741 147.295 180.394C131.669 180.047 98.6798 168.935 75.7614 164.42C52.8429 159.906 20.6433 168.24 7.00581 158.864C1.44981 155.045 -5.49519 137.682 7.00581 126.223Z" fill="#DDF2F9"/>
<path d="M185.84 101.559H181.59V143.586H156.533V76.7855L185.84 101.559Z" fill="#06508C"/>
<path d="M46.7432 143.586H122.976V15.0288H86.232L46.7432 69.2651V143.586Z" fill="#06508C"/>
<path d="M83.3989 143.585H162.465V69.2649L120.851 17.8599L83.3989 69.2649V143.585Z" fill="#88C6E3"/>
<path d="M83.3989 143.232H162.465V68.9111L120.851 17.5061L83.3989 68.9111V143.232Z" fill="#DDF2F9"/>
<path d="M122.976 15.0288L120.94 17.9485L162.465 69.2651H165.918L122.976 15.0288Z" fill="#F45F0C"/>
<path d="M122.976 15.0288H86.2321L43.4673 73.6004H83.3989L122.976 15.0288Z" fill="#F77B0B"/>
<path d="M93.8359 22.4097L104.992 22.4097L104.992 0.555916L93.8359 0.555916L93.8359 22.4097Z" fill="#06508C"/>
<path d="M105.003 22.3723V0.518555H113.857V15.0287H109.43L105.003 22.3723Z" fill="#06508C"/>
<path d="M162.47 143.531L183.719 143.531L183.719 132.383L162.47 132.383L162.47 143.531Z" fill="#6BB8DC"/>
<path d="M162.465 132.437H83.2217V143.585H162.465V132.437Z" fill="#6BB8DC"/>
<path d="M45.1999 143.531L83.1836 143.531L83.1836 132.383L45.1999 132.383L45.1999 143.531Z" fill="#1E9ED1"/>
<path d="M73.851 88.8416L78.9863 88.8416L78.9863 78.3128L73.851 78.3128L73.851 88.8416Z" fill="#06508C"/>
<path d="M73.851 103.35L78.9863 103.35L78.9863 92.8209L73.851 92.8209L73.851 103.35Z" fill="#06508C"/>
<path d="M73.851 117.415L78.9863 117.415L78.9863 106.886L73.851 106.886L73.851 117.415Z" fill="#06508C"/>
<path d="M66.2397 88.8416L71.375 88.8416L71.375 78.3128L66.2397 78.3128L66.2397 88.8416Z" fill="#06508C"/>
<path d="M66.2397 103.35L71.375 103.35L71.375 92.8209L66.2397 92.8209L66.2397 103.35Z" fill="#06508C"/>
<path d="M66.2397 117.415L71.375 117.415L71.375 106.886L66.2397 106.886L66.2397 117.415Z" fill="#06508C"/>
<path d="M58.4291 88.8416L63.5645 88.8416L63.5645 78.3128L58.4291 78.3128L58.4291 88.8416Z" fill="#06508C"/>
<path d="M58.4291 103.35L63.5645 103.35L63.5645 92.8209L58.4291 92.8209L58.4291 103.35Z" fill="#06508C"/>
<path d="M58.4291 117.415L63.5645 117.415L63.5645 106.886L58.4291 106.886L58.4291 117.415Z" fill="#06508C"/>
<path d="M162.465 143.586H170.699V124.917C170.699 120.316 166.981 116.689 162.465 116.689V143.586Z" fill="#6BB8DC"/>
<path d="M185.84 101.559L162.465 81.8287V86.0756L181.59 101.559H185.84Z" fill="#06508C"/>
<path d="M125.3 73.6181C123.062 74.8018 119.258 69.8031 117.838 68.4804C115.479 65.9637 113.721 63.0837 112.131 59.9344C110.229 56.387 110.396 51.9254 114.27 49.9215C115.69 49.148 117.35 49.4869 118.843 50.0953C121.346 51.1833 124.09 53.3836 124.669 56.0533C124.717 56.2758 124.717 56.2758 124.669 56.0533C125.821 48.816 136.17 48.4372 137.014 55.4746C138.003 61.0833 131.628 70.3836 125.3 73.6181Z" fill="#F45F0C"/>
<path d="M6.22612 103.517C6.37229 103.371 6.51847 103.225 6.51847 103.079C7.98024 101.472 11.4885 98.9882 11.1961 96.6507C10.9038 94.6055 9.442 92.4141 9.00347 90.2228C8.12641 85.8401 8.41877 81.0191 11.927 77.8051C12.9502 76.9286 14.412 76.1981 15.1429 75.0294C15.8738 73.8607 15.4352 73.1303 15.2891 71.8154C14.8505 69.0397 15.1429 65.9718 17.0432 63.7805C20.5514 59.69 24.9367 60.2743 24.9367 60.2743C24.9367 60.2743 31.3685 59.9822 32.5379 66.1179C33.7073 72.2537 32.3917 72.9842 32.3917 72.9842C32.3917 72.9842 38.9697 77.2208 39.5544 84.3792C40.1391 91.5376 38.2388 94.0211 36.9232 96.3585C36.9232 96.3585 39.8467 101.033 41.0161 104.247C42.1855 107.461 42.4779 112.721 40.1391 116.227C37.5079 120.025 32.5379 121.486 28.0064 121.632C21.5746 121.924 13.8273 122.655 7.83406 119.733C4.32582 117.98 1.40229 114.474 1.84082 110.529C2.27935 107.9 4.32582 105.562 6.22612 103.517Z" fill="#A4D5EA"/>
<path d="M10.6113 106.147L19.5281 109.068L17.1893 103.955L20.259 109.214L24.2057 110.529V108.338L24.0596 65.6797L24.4981 90.2228L27.2754 88.0314L27.8602 83.2105L27.714 87.5932L32.8302 83.5027L24.4981 90.9532L25.5213 149.681L24.2057 149.827V111.26L10.6113 106.147Z" fill="#1E9ED1"/>
<path d="M66.9796 149.129C67.1469 142.193 64.8888 132.248 58.3656 140.939C58.4493 137.513 56.1076 128.237 51.1734 129.407C49.4171 129.824 47.41 134.254 46.9918 135.006C47.41 128.237 40.5522 117.958 32.6909 122.47C26.5023 125.98 27.924 137.011 27.924 142.945C27.8403 140.271 25.4151 139.184 23.5752 140.856C22.488 141.858 21.7353 148.126 21.9862 149.547C22.7389 153.892 27.2549 154.811 31.3528 153.474C32.6909 160.327 45.2356 155.647 47.41 151.719C48.3299 154.394 52.0933 154.561 53.5987 152.304C53.515 155.146 59.7874 156.065 62.2963 155.146C64.7216 154.227 65.5579 151.887 66.9796 149.129Z" fill="#88C6E3"/>
<path d="M41.0539 152.555L41.4721 152.471L36.2033 125.897L35.7852 125.98L41.0539 152.555Z" fill="#06508C"/>
<path d="M38.2104 138.516L38.5449 138.181L32.4399 133L32.189 133.334L38.2104 138.516Z" fill="#06508C"/>
<path d="M39.6323 143.53L43.3957 137.262L42.9775 137.095L39.2141 143.362L39.6323 143.53Z" fill="#06508C"/>
<path d="M51.8422 149.129L52.7622 135.423L52.2604 135.34L51.4241 149.045L51.8422 149.129Z" fill="#06508C"/>
<path d="M52.0099 144.95L55.4388 142.443L55.1879 142.025L51.759 144.616L52.0099 144.95Z" fill="#06508C"/>
<path d="M52.0934 140.103L52.4279 139.936L50.1699 135.34L49.7517 135.507L52.0934 140.103Z" fill="#06508C"/>
<path d="M58.7841 152.054L62.2966 142.61L61.8785 142.443L58.366 151.887L58.7841 152.054Z" fill="#06508C"/>
<path d="M60.5403 147.039L64.5546 145.87L64.471 145.452L60.373 146.622L60.5403 147.039Z" fill="#06508C"/>
<path d="M195.828 69.3105C193.196 65.8044 192.758 59.9608 194.22 56.8929C195.535 53.825 201.236 53.6789 201.236 53.6789C201.236 53.6789 200.359 40.9691 208.253 42.2839C216.146 43.5987 212.346 61.8599 212.346 61.8599C212.346 61.8599 220.239 64.0513 219.947 73.1088C219.654 82.1664 214.538 83.9195 214.538 83.9195C214.538 83.9195 223.455 88.3022 220.678 98.8207C218.923 105.833 214.831 112.699 206.937 113.43C201.967 113.868 196.997 111.53 193.781 107.732C190.858 104.372 188.665 99.5511 188.957 94.8762C189.25 90.4935 192.027 86.8413 194.658 83.6273C194.804 83.4812 194.804 83.4812 194.804 83.3351C194.804 83.189 194.658 83.043 194.512 82.8969C193.196 81.436 190.858 81.1438 190.858 77.0533C191.004 71.0636 196.12 69.7488 195.828 69.3105Z" fill="#F45F0C"/>
<path d="M216.438 89.7631L210.299 96.191L210.153 96.3371L209.86 89.617L209.568 96.9215L206.498 100.135L206.06 79.3907L213.953 69.8949L210.153 73.8393L210.007 69.8949L209.568 74.4237L206.06 78.0759L205.475 58.3538V75.4463V84.796L201.821 80.7055L201.236 74.7158L201.382 80.2672L196.997 75.4463L205.475 86.2569V140.164L207.375 140.456L206.498 101.012L216.438 89.7631Z" fill="#88C6E3"/>
<path d="M231.787 75.8846C230.325 75.4463 228.864 75.4463 227.402 75.8846C222.578 77.4916 222.87 83.7735 222.724 87.7179C219.654 87.864 217.169 88.7405 216.439 92.1006C216 93.8537 216.877 96.045 217.462 97.9442C217.462 97.9442 215.415 99.9894 214.538 101.596C213.077 104.08 213.661 107.44 215.269 109.777C217.462 112.845 221.116 114.306 224.624 115.329C233.687 117.666 247.136 116.79 249.328 105.249C250.059 101.304 247.574 99.259 244.212 98.0903C244.066 98.0903 243.92 97.9442 243.92 97.7981C243.774 97.652 243.92 97.5059 243.92 97.3598C244.212 96.1911 244.797 95.0224 244.797 93.8537C244.943 92.3928 244.504 90.9319 243.481 89.7632C242.019 88.0101 240.119 87.864 238.073 87.5718C237.927 87.5718 237.927 82.6047 237.927 82.0204C237.488 79.829 235.734 77.9299 233.98 76.9072C233.249 76.469 232.518 76.1768 231.787 75.8846Z" fill="#1174BA"/>
<path d="M242.312 103.788L230.764 108.462L230.179 82.7506V97.0674L224.04 93.7074L230.179 97.7979L230.471 143.378H231.495L230.764 109.193L242.312 103.788Z" fill="#88C6E3"/>
<path d="M167.762 104.664C166.885 99.5512 167.177 96.1911 171.27 92.3928C173.755 90.0554 177.117 90.2015 179.602 92.5389C179.748 87.2797 184.134 81.29 189.835 81.8743C194.658 82.3126 196.559 87.864 197.29 91.9545C201.236 90.3476 203.575 91.8085 204.306 95.899C211.176 94.1459 217.316 100.574 215.854 107.294C215.123 110.654 212.346 112.553 209.13 112.845C206.499 112.991 206.353 112.553 204.598 111.238C205.329 114.745 194.366 115.183 192.612 112.115C188.811 114.014 184.865 116.79 180.187 115.475C178.579 115.037 177.263 114.16 176.094 113.138C175.802 112.845 172.878 109.924 172.878 109.924C170.978 110.8 169.224 110.8 167.616 109.339C166.154 107.878 166.008 105.833 167.762 104.664Z" fill="#A4D5EA"/>
<path d="M198.898 107.44L207.96 106.271L199.482 106.856L206.206 99.6972L197.29 108.463L196.705 102.619V109.047L188.958 116.79L188.665 95.7528L192.466 91.0779L188.665 95.3145L188.519 88.7405V109.777L177.41 100.574L180.479 103.349L176.094 105.833L180.772 103.496L188.519 110.508V152.728L189.688 152.874L189.104 117.958L198.898 107.44Z" fill="#88C6E3"/>
<path d="M130.34 112.991C130.486 112.845 130.486 112.845 130.632 112.699C131.948 111.384 134.725 109.339 134.433 107.44C134.14 105.687 132.971 103.934 132.679 102.035C131.948 98.3824 132.24 94.2919 135.164 91.6623C136.041 90.9318 137.21 90.3475 137.795 89.3249C138.38 88.3022 138.087 87.7179 137.941 86.6952C137.649 84.3578 137.941 81.7282 139.403 79.9751C142.18 76.615 145.835 77.0533 145.835 77.0533C145.835 77.0533 151.097 76.7611 151.974 81.8743C152.851 86.9874 151.828 87.7179 151.828 87.7179C151.828 87.7179 157.236 91.224 157.821 97.3598C158.406 103.496 156.798 105.395 155.628 107.294C155.628 107.294 158.113 111.238 158.99 113.868C159.868 116.498 160.16 121.026 158.26 123.802C156.067 127.016 151.974 128.185 148.32 128.331C143.057 128.623 136.772 129.207 131.802 126.724C128.878 125.263 126.539 122.341 126.832 119.127C127.124 116.79 128.732 114.891 130.34 112.991Z" fill="#88C6E3"/>
<path d="M133.994 115.329L141.449 117.812L139.403 113.576L141.888 117.958L145.104 118.981V117.082V81.582L145.396 102.035L147.735 100.135L148.174 96.191L148.027 99.8433L152.266 96.3371L145.396 102.619L146.273 151.705L145.25 151.851L145.104 119.565L133.994 115.329Z" fill="#1E9ED1"/>
<path d="M127.709 159.886C128.147 157.549 131.51 155.504 133.264 154.335C134.725 153.312 136.333 152.728 138.087 152.582C138.38 152.582 141.888 152.29 141.596 152.874C143.788 145.716 148.466 146.592 148.466 146.592C148.466 146.592 151.536 135.635 157.529 135.781C163.522 135.928 161.037 149.952 161.037 149.952C166.738 151.267 167.907 160.032 167.907 160.032C167.907 160.032 167.907 161.201 167.469 161.493C166.884 161.785 161.476 163.977 157.821 163.539C154.167 163.246 153.29 162.224 153.29 162.224C153.29 162.224 150.805 163.685 149.343 163.392C147.881 163.246 146.127 162.078 146.127 162.078C146.127 162.078 143.204 164.269 139.257 163.539C135.31 163.1 132.971 161.347 132.971 161.347C132.825 161.201 131.948 161.639 131.802 161.639C130.632 161.932 128.878 161.785 128.001 160.909C127.709 160.617 127.563 160.325 127.709 159.886Z" fill="#06508C"/>
<path d="M157.237 141.187L153.29 161.932" stroke="#06508C" stroke-width="0.165409" stroke-miterlimit="10"/>
<path d="M151.974 139.141L154.751 154.043" stroke="#06508C" stroke-width="0.165409" stroke-miterlimit="10"/>
<path d="M163.23 150.975L154.021 157.987" stroke="#06508C" stroke-width="0.165409" stroke-miterlimit="10"/>
<path d="M145.25 147.469L146.127 162.224" stroke="#06508C" stroke-width="0.165409" stroke-miterlimit="10"/>
<path d="M134.726 153.458L137.064 163.246" stroke="#06508C" stroke-width="0.165409" stroke-miterlimit="10"/>
</svg>
