<svg width="71" height="30" viewBox="0 0 71 30" fill="none" xmlns="http://www.w3.org/2000/svg">
<rect width="71" height="30" rx="6" fill="#0421B1"/>
<path d="M15.0001 8.52225C15.8644 8.44719 16.7346 8.56257 17.5494 8.86025C20.0572 9.77278 21.6609 12.232 21.4847 14.8948C21.3084 17.5576 19.3947 19.784 16.7885 20.3581C14.1823 20.9322 11.5102 19.7159 10.2314 17.3736" stroke="white" stroke-width="1.5" stroke-linecap="round" stroke-linejoin="round"/>
<path d="M19.4844 18.9863L23.5004 22.5003" stroke="white" stroke-width="1.5" stroke-linecap="round" stroke-linejoin="round"/>
<path d="M10 11.5H14" stroke="white" stroke-width="1.5" stroke-linecap="round" stroke-linejoin="round"/>
<path d="M10 11.4998L8.5 10.7998" stroke="white" stroke-width="1.5" stroke-linecap="round" stroke-linejoin="round"/>
<path d="M10 13H8.5" stroke="white" stroke-width="1.5" stroke-linecap="round" stroke-linejoin="round"/>
<path d="M10.178 14.3223L9 15.5003" stroke="white" stroke-width="1.5" stroke-linecap="round" stroke-linejoin="round"/>
<path d="M14 11.4998L15.5 10.7998" stroke="white" stroke-width="1.5" stroke-linecap="round" stroke-linejoin="round"/>
<path d="M14 13H15.5" stroke="white" stroke-width="1.5" stroke-linecap="round" stroke-linejoin="round"/>
<path d="M13.8223 14.3223L15.0003 15.5003" stroke="white" stroke-width="1.5" stroke-linecap="round" stroke-linejoin="round"/>
<path d="M11.3963 9.09333L10.5996 7.5" stroke="white" stroke-width="1.5" stroke-linecap="round" stroke-linejoin="round"/>
<path d="M12.6035 9.094L13.4002 7.5" stroke="white" stroke-width="1.5" stroke-linecap="round" stroke-linejoin="round"/>
<path fill-rule="evenodd" clip-rule="evenodd" d="M10 11C10 9.89543 10.8954 9 12 9V9C13.1046 9 14 9.89543 14 11V13.5C14 14.6046 13.1046 15.5 12 15.5V15.5C10.8954 15.5 10 14.6046 10 13.5V11Z" stroke="white" stroke-width="1.5" stroke-linecap="round" stroke-linejoin="round"/>
<path d="M32.2 21V20.04C32.616 20.712 33.448 21.192 34.536 21.192C36.776 21.192 38.248 19.416 38.248 17.032C38.248 14.696 36.92 12.92 34.616 12.92C33.448 12.92 32.584 13.432 32.232 13.992V9.416H30.136V21H32.2ZM36.12 17.048C36.12 18.488 35.256 19.288 34.168 19.288C33.096 19.288 32.2 18.472 32.2 17.048C32.2 15.608 33.096 14.824 34.168 14.824C35.256 14.824 36.12 15.608 36.12 17.048ZM41.4849 16.168C41.5329 15.448 42.1409 14.616 43.2449 14.616C44.4609 14.616 44.9729 15.384 45.0049 16.168H41.4849ZM45.2129 18.216C44.9569 18.92 44.4129 19.416 43.4209 19.416C42.3649 19.416 41.4849 18.664 41.4369 17.624H47.0689C47.0689 17.592 47.1009 17.272 47.1009 16.968C47.1009 14.44 45.6449 12.888 43.2129 12.888C41.1969 12.888 39.3409 14.52 39.3409 17.032C39.3409 19.688 41.2449 21.24 43.4049 21.24C45.3409 21.24 46.5889 20.104 46.9889 18.744L45.2129 18.216ZM51.4006 10.776H49.4806V11.88C49.4806 12.584 49.0966 13.128 48.2646 13.128H47.8646V15.016H49.2886V18.68C49.2886 20.2 50.2486 21.112 51.7846 21.112C52.4086 21.112 52.7926 21 52.9846 20.92V19.16C52.8726 19.192 52.5846 19.224 52.3286 19.224C51.7206 19.224 51.4006 19 51.4006 18.312V15.016H52.9846V13.128H51.4006V10.776ZM54.3591 18.856C54.3591 20.088 55.3831 21.224 57.0631 21.224C58.2311 21.224 58.9831 20.68 59.3831 20.056C59.3831 20.36 59.4151 20.792 59.4631 21H61.4151C61.3671 20.728 61.3191 20.168 61.3191 19.752V15.88C61.3191 14.296 60.3911 12.888 57.8951 12.888C55.7831 12.888 54.6471 14.248 54.5191 15.48L56.4071 15.88C56.4711 15.192 56.9831 14.6 57.9111 14.6C58.8071 14.6 59.2391 15.064 59.2391 15.624C59.2391 15.896 59.0951 16.12 58.6471 16.184L56.7111 16.472C55.3991 16.664 54.3591 17.448 54.3591 18.856ZM57.5111 19.64C56.8231 19.64 56.4871 19.192 56.4871 18.728C56.4871 18.12 56.9191 17.816 57.4631 17.736L59.2391 17.464V17.816C59.2391 19.208 58.4071 19.64 57.5111 19.64Z" fill="white"/>
</svg>
