<svg width="296" height="281" viewBox="0 0 296 281" fill="none" xmlns="http://www.w3.org/2000/svg">
<path d="M141.539 75.8205C141.806 75.553 142.007 75.2855 142.275 75.0179C142.878 74.6166 143.213 73.6802 144.217 73.8809C145.289 78.5629 147.298 82.9104 149.575 87.1911C149.776 87.3918 150.044 87.6593 150.245 87.86C151.182 88.6626 152.789 88.9971 152.856 90.6023C152.99 94.0135 154.731 93.746 157.008 92.6089C159.955 91.4718 162.165 93.0102 164.308 94.6155C164.643 95.7525 163.504 96.6889 163.571 97.9597C166.451 97.826 169.13 98.2273 171.675 97.2909C172.344 97.0902 173.014 96.8227 173.684 96.622C174.822 97.4916 175.894 98.2942 176.362 99.7657C176.63 100.033 176.831 100.368 177.099 100.635L177.032 100.568C177.032 101.505 177.032 102.374 177.032 103.311C176.496 103.311 175.961 103.511 175.693 104.046L175.76 103.979C173.483 104.983 175.425 106.722 175.09 108.06C173.282 108.795 170.737 109.197 173.55 111.805C173.818 112.073 173.885 112.808 173.684 113.076C171.742 115.484 174.152 118.293 172.947 120.768C172.411 121.771 173.215 122.373 173.617 123.176C176.028 128.125 177.3 133.275 175.76 138.76C172.21 138.493 169.331 139.964 166.719 142.171C166.652 142.238 166.518 142.372 166.518 142.439C167.723 147.455 162.902 145.984 161.027 147.589C160.826 147.79 160.625 147.99 160.357 148.258C160.156 148.459 159.888 148.726 159.687 148.927H159.754C158.214 149.194 156.54 148.459 155.133 149.596C152.187 149.261 149.24 148.793 146.36 150.264C145.423 148.994 144.552 148.994 143.615 150.264C141.271 150.465 138.927 150.599 136.851 148.994C136.114 147.656 135.244 146.653 133.904 145.783C132.632 144.98 131.493 143.977 131.158 141.569C130.757 138.426 128.145 135.416 126.069 132.674C125.064 131.403 123.524 133.142 122.185 133.61C120.309 133.677 118.97 133.744 118.568 131.068C118.367 129.664 116.291 128.192 114.148 128.192C113.947 126.186 114.081 124.179 114.751 122.239C115.019 121.102 115.421 119.965 115.488 118.761C115.756 114.414 119.439 114.347 122.118 112.675C124.595 111.136 127.475 109.063 127.542 105.384C129.082 105.585 129.685 104.849 129.484 103.378C131.091 102.307 129.216 100.635 130.087 99.4312C131.962 96.7558 130.221 95.3512 128.212 94.0804C128.413 92.6758 128.815 91.4718 130.422 90.803C133.101 89.6659 132.699 87.3249 131.56 85.519C128.882 81.3052 128.681 81.439 133.368 79.9006C134.105 79.633 134.842 79.4324 135.578 79.2317C136.717 78.5629 137.855 79.5662 139.061 79.2317C140.467 78.8973 142.007 78.6298 140.936 76.5563C141.07 76.2888 141.338 76.0881 141.539 75.8205Z" fill="#A4D5EA"/>
<path d="M212.526 220.963C209.713 220.093 211.521 216.95 209.847 215.545C208.976 214.676 208.106 213.873 207.235 213.004C205.427 212.134 203.686 212.201 201.878 213.004C201.61 214.542 200.873 214.609 199.869 213.672C199.668 213.472 199.4 213.271 199.199 213.004C195.717 213.405 196.587 210.796 196.52 208.99C196.319 208.79 196.051 208.522 195.85 208.322V208.388C195.047 207.92 195.248 207.118 195.181 206.382C194.645 206.047 194.578 205.579 194.511 205.044C194.31 204.843 194.042 204.576 193.841 204.375C192.904 202.502 193.172 200.161 191.163 198.69C189.555 197.486 188.216 196.081 186.006 197.285C184.801 197.954 183.997 197.285 183.729 196.215C182.925 192.336 181.251 194.075 179.51 195.479C179.108 195.814 178.572 196.015 178.171 196.282C177.166 196.282 177.166 197.419 176.429 197.754C176.229 199.158 176.028 200.563 175.09 201.767C174.956 202.235 174.956 202.971 174.22 202.77C173.952 202.703 173.885 202.101 173.684 201.767C172.679 200.897 173.215 199.359 172.344 198.422C172.277 198.289 172.143 198.155 172.076 198.021C172.076 198.021 172.21 197.887 172.277 197.887C168.728 193.74 169.13 194.075 166.652 197.687C165.781 198.958 165.112 200.362 164.375 201.7C164.107 203.439 162.969 203.907 161.428 203.439C160.357 203.104 159.285 202.971 158.214 203.104C157.946 203.706 157.745 203.573 157.544 203.038C157.544 199.626 156.071 196.55 155.468 193.272C152.053 193.54 148.57 195.078 145.557 191.667C144.418 190.396 141.74 191.333 141.874 193.272C142.208 197.419 139.195 199.292 137.253 202.034C135.846 204.041 132.632 205.312 133.636 208.522C134.306 210.663 134.172 211.666 131.627 211.666C130.355 211.666 130.891 212.468 131.159 213.204C132.163 216.147 128.346 221.231 125.399 220.896C121.649 220.495 118.434 222.836 114.818 222.97C113.613 223.036 113.144 227.25 111.269 223.638C111.068 223.772 110.867 223.906 110.666 223.973C105.911 225.511 107.92 230.126 106.782 233.203C106.045 235.277 108.523 234.875 109.728 235.343C110.063 235.477 110.331 235.945 110.599 236.28C110.8 239.959 108.121 243.437 109.929 247.182C109.728 247.45 109.461 247.65 109.26 247.918C108.724 248.921 107.786 249.791 107.92 251.129C107.652 251.797 107.184 252.199 106.514 252.466C106.514 254.473 105.71 256.546 107.251 258.419C109.461 259.556 110.8 262.566 114.014 261.696C117.296 261.095 120.51 262.298 123.792 262.365C127.073 262.365 127.542 261.295 126.538 258.62C127.14 257.951 127.073 256.881 128.882 257.483C132.699 258.753 135.913 261.83 140.266 261.429C140.467 261.429 140.936 261.763 141.003 262.031C141.673 265.576 143.481 264.573 145.423 263.235C145.49 265.041 148.57 264.037 148.236 265.777C147.566 268.92 149.508 268.586 151.383 268.653C151.651 269.99 152.923 270.592 153.593 271.662C154.464 273.067 155.937 273.134 156.808 271.328C158.013 270.994 159.285 270.659 160.491 270.258C163.504 272.398 166.652 273.535 169.933 270.726C170.067 270.592 170.335 270.726 170.603 270.726C170.737 270.726 170.871 270.659 170.938 270.459C173.081 269.923 175.157 268.385 177.434 270.325C177.903 270.726 178.84 270.392 179.108 269.723C179.309 269.255 178.84 268.72 178.305 268.452C175.224 262.098 174.822 255.944 178.305 249.456C180.916 244.707 186.341 243.905 189.689 240.36C190.158 240.092 190.493 239.825 190.359 239.223C191.765 239.49 192.502 238.487 193.373 237.684C194.578 236.481 195.917 235.745 197.659 235.879C198.663 237.082 198.529 239.423 201.007 238.955C200.94 238.888 200.806 238.755 200.873 238.688C201.945 236.079 204.891 234.942 206.164 232.267C206.498 231.598 208.441 230.595 209.177 229.19C209.244 228.053 208.575 226.782 209.78 225.913L209.847 225.846C210.383 224.775 211.119 223.906 212.459 223.839C212.526 222.769 212.526 221.899 212.526 220.963ZM196.252 234.608C196.185 234.608 196.118 234.675 195.984 234.675C196.118 234.608 196.185 234.608 196.252 234.608ZM195.917 234.675C195.65 234.808 195.315 234.875 195.047 235.009C195.315 234.875 195.583 234.808 195.917 234.675Z" fill="#A4D5EA"/>
<path d="M260.007 177.621C259.605 177.019 258.6 177.019 258.533 176.15C257.73 174.946 259.806 172.404 256.725 172.203C253.644 169.26 253.845 168.458 257.663 166.719C257.864 166.652 257.93 166.384 258.131 166.25C259.002 164.913 260.676 163.575 258.131 162.17C258.399 161.435 257.997 161.1 257.462 160.833C257.395 159.963 256.591 159.896 256.055 159.629C252.64 157.555 254.716 154.144 254.582 151.602C254.448 148.86 253.578 148.726 251.568 148.793C250.363 148.86 248.957 148.459 247.952 148.927C245.943 149.797 242.729 149.529 242.595 152.539C242.394 156.017 240.987 157.488 237.304 156.886C237.304 156.485 237.371 156.017 237.371 155.616C240.519 154.947 241.657 152.472 240.05 150.131C240.05 149.93 239.983 149.797 239.983 149.596C238.844 149.596 238.175 150.398 237.639 151.201C235.898 153.676 234.157 155.616 231.076 152.873C230.607 152.472 229.937 152.539 229.536 152.873C227.058 154.88 225.718 152.873 224.647 151.268C223.508 149.596 221.566 148.726 220.696 146.92C220.093 147.121 219.49 147.389 218.955 147.522C218.821 147.589 218.62 147.589 218.486 147.589C218.62 147.589 218.821 147.522 218.955 147.522C219.557 147.389 220.16 147.121 220.696 146.92C219.356 145.783 218.017 147.522 216.678 146.854C216.209 146.051 215.74 146.185 215.271 146.854C214.066 147.924 213.932 149.395 213.932 150.867C214.133 152.472 212.66 153.475 212.526 155.014C212.057 155.081 211.521 156.218 211.454 155.682C210.784 151.736 208.173 153.341 206.03 153.609C204.891 153.475 204.556 154.345 204.088 155.147C203.083 156.886 201.476 157.154 199.735 156.753C198.864 156.552 198.127 156.351 197.19 156.552C194.243 157.087 193.573 156.151 194.578 153.074C196.788 151.469 196.118 149.529 195.248 147.589L195.181 147.522C193.975 146.854 192.77 146.185 191.296 146.252C190.158 144.513 190.024 142.305 188.484 140.767C188.015 140.299 187.479 139.362 187.01 140.098C185.269 142.84 183.126 140.633 181.184 140.767C180.916 140.366 180.648 140.098 180.381 140.767H180.314C179.443 140.767 178.572 140.767 177.702 140.767H177.635C177.434 140.566 177.233 140.366 177.032 140.165L176.965 140.098C176.764 139.897 176.563 139.697 176.295 139.496C176.095 139.295 175.894 139.095 175.626 138.827V138.76C172.076 138.493 169.197 139.964 166.585 142.172C166.518 142.238 166.384 142.372 166.384 142.439C167.589 147.456 162.768 145.984 160.893 147.589C160.692 147.79 160.491 147.991 160.223 148.258C160.022 148.459 159.754 148.726 159.553 148.927C158.013 149.195 156.339 148.459 154.932 149.596C156.473 149.596 158.013 149.663 159.553 149.663C159.553 149.395 159.553 149.195 159.553 148.927C159.553 149.195 159.553 149.395 159.553 149.663C159.553 149.797 159.62 149.997 159.553 150.131C159.821 150.934 160.089 151.803 160.826 152.271C161.495 153.141 162.5 153.475 163.571 153.609C164.844 154.947 164.978 156.82 165.58 158.425C166.92 161.769 165.915 164.311 163.504 166.585C163.103 166.919 162.232 167.388 162.701 167.789C164.844 170.063 163.504 173.006 164.375 175.347C165.045 177.153 164.174 178.758 164.375 180.497C164.509 181.5 162.701 180.296 161.83 180.43C161.629 180.43 161.294 180.631 161.294 180.698C161.495 183.507 157.946 184.176 157.879 187.186C157.879 189.059 156.874 191.466 155.401 193.205C155.937 196.483 157.477 199.56 157.477 202.971C157.678 203.439 157.879 203.64 158.147 203.038C159.218 202.971 160.29 203.105 161.361 203.372C162.835 203.84 163.973 203.372 164.308 201.633C165.045 200.295 165.714 198.891 166.585 197.62C168.996 194.008 168.594 193.607 172.21 197.821C172.143 197.887 172.009 197.954 172.009 197.954C172.076 198.088 172.143 198.222 172.277 198.356C173.148 199.292 172.612 200.83 173.617 201.7C173.818 202.034 173.885 202.703 174.152 202.703C174.889 202.837 174.889 202.168 175.023 201.7C175.961 200.563 176.162 199.091 176.362 197.687C177.099 197.352 177.099 196.215 178.104 196.215C178.572 195.948 179.041 195.747 179.443 195.413C181.117 194.008 182.791 192.336 183.662 196.148C183.863 197.219 184.734 197.954 185.939 197.219C188.149 196.015 189.488 197.419 191.096 198.623C193.105 200.095 192.77 202.503 193.774 204.308C193.975 204.509 194.243 204.777 194.444 204.977C194.511 205.512 194.578 206.048 195.114 206.315C195.181 207.051 195.047 207.853 195.783 208.322C195.984 208.522 196.185 208.723 196.453 208.99C196.587 210.863 195.716 213.405 199.132 213.004C199.333 213.204 199.601 213.405 199.802 213.606C200.873 214.542 201.61 214.542 201.811 212.937C203.619 212.134 205.36 212.134 207.168 212.937C208.039 213.806 208.909 214.609 209.78 215.478C209.914 214.609 209.177 213.472 210.517 212.937C211.052 212.736 211.722 212.87 211.856 213.472C212.459 215.947 213.731 215.144 215.137 214.274C216.678 213.271 218.285 214.007 219.825 214.208C219.892 215.211 220.093 215.88 221.365 215.813C222.638 215.679 223.709 216.147 224.714 216.95C226.455 218.288 229.737 218.221 230.473 216.615C231.478 214.475 230.004 213.137 228.397 212.402C225.919 211.331 225.384 209.86 226.589 207.519C226.991 207.519 227.393 207.519 227.795 207.519H227.861C229.67 208.522 230.54 208.188 230.138 205.981C229.804 204.308 230.205 203.105 232.081 202.837C232.884 202.703 233.219 202.235 233.219 201.499C236.166 198.489 239.447 196.215 243.867 196.215C244.336 196.684 244.939 196.884 245.139 196.148C245.541 194.811 245.541 193.54 244.001 192.804L243.934 192.737C244.001 191.466 243.331 191.801 242.595 192.068C242.394 191.6 242.193 191.199 241.925 190.731C241.925 190.597 241.992 190.396 241.992 190.262C242.528 189.928 242.595 189.393 242.595 188.858C243.264 188.858 243.867 188.858 244.537 188.858C244.872 190.396 245.407 191.533 247.215 190.196L247.282 190.129C248.153 189.727 249.024 189.259 249.894 188.858C250.296 189.259 250.698 189.66 251.033 190.062C251.368 189.059 251.903 187.186 252.774 187.721C255.252 189.326 256.189 186.985 257.863 186.45C260.007 185.781 260.542 184.109 261.413 182.236C262.886 179.828 260.944 179.026 260.007 177.621ZM162.165 202.235C162.299 202.235 162.433 202.235 162.567 202.302C162.433 202.235 162.299 202.235 162.165 202.235ZM193.105 147.322C193.372 147.389 193.64 147.389 193.975 147.456C193.707 147.389 193.372 147.322 193.105 147.322ZM195.114 150.934C195.114 150.733 195.181 150.532 195.181 150.399C195.114 150.599 195.114 150.733 195.114 150.934ZM195.181 149.529C195.181 149.328 195.181 149.061 195.181 148.86C195.181 149.061 195.181 149.261 195.181 149.529ZM195.114 147.456C194.779 147.456 194.444 147.456 194.109 147.456C194.444 147.456 194.779 147.456 195.114 147.456ZM211.722 156.485C211.588 156.619 211.521 156.686 211.387 156.686C211.521 156.686 211.655 156.552 211.722 156.485ZM211.923 156.218C211.856 156.284 211.789 156.351 211.722 156.418C211.856 156.351 211.923 156.284 211.923 156.218ZM211.655 212.469C211.923 212.535 212.191 212.669 212.392 212.87C212.191 212.669 211.923 212.535 211.655 212.469ZM244.202 194.008C244.336 194.677 244.537 195.279 244.202 195.948C244.537 195.279 244.336 194.677 244.202 194.008C244.135 193.874 244.135 193.741 244.135 193.607C244.135 193.741 244.135 193.874 244.202 194.008ZM237.103 169.996C236.902 169.929 236.768 169.862 236.567 169.729C236.768 169.862 236.902 169.929 237.103 169.996ZM247.885 188.992C247.952 188.925 248.019 188.791 248.086 188.724C248.019 188.791 247.952 188.925 247.885 188.992Z" fill="#C1E3F2"/>
<path d="M258.332 119.899L258.399 119.965C258.399 120.032 258.332 120.032 258.332 120.099C258.332 120.032 258.399 120.032 258.399 119.965C257.06 119.564 257.127 120.5 256.993 121.37C256.725 120.969 255.319 121.704 256.055 120.166C257.06 117.959 259.203 117.022 260.676 115.417C259.337 114.28 257.663 113.411 258.6 111.136C258.935 110.267 257.997 109.464 257.127 109.197C255.586 108.662 254.582 107.391 253.31 106.655C251.702 105.719 250.497 103.11 247.952 105.117C247.483 105.518 247.014 104.582 246.613 104.515C243.197 103.913 239.916 100.368 236.232 103.511C234.357 105.117 231.946 106.588 231.411 109.13C230.473 113.812 224.915 110.468 223.374 114.013C223.241 114.28 222.035 114.481 221.968 114.347C220.562 112.34 218.084 112.474 216.209 111.471C215.07 110.869 214.669 109.397 214.936 109.063C217.28 104.849 212.459 104.515 211.32 102.241C210.918 101.438 209.177 100.97 208.239 101.639C204.69 104.381 200.404 103.244 196.52 104.113C194.511 104.515 193.171 103.445 192.368 101.706C191.363 99.6321 191.162 96.9567 187.948 96.8229C187.345 96.8229 186.943 96.154 187.077 95.552C187.546 93.4786 186.006 92.2746 185.001 90.87C184.131 90.6694 183.26 90.4687 182.39 90.2681C181.586 91.0038 180.514 90.8032 179.577 90.8032C177.434 90.8032 175.626 90.9369 175.559 93.8799C175.559 94.8832 174.286 95.8865 173.617 96.8229C174.755 97.6924 175.827 98.495 176.295 99.9665C176.496 100.234 176.764 100.502 176.965 100.769C176.965 101.639 176.965 102.575 176.965 103.445C176.429 103.445 175.96 103.645 175.626 104.113C173.416 105.117 175.358 106.856 174.956 108.127C173.148 108.862 170.603 109.264 173.416 111.872C173.684 112.14 173.751 112.875 173.55 113.143C171.608 115.551 174.018 118.36 172.813 120.835C172.277 121.838 173.081 122.44 173.483 123.243C175.894 128.192 177.166 133.343 175.626 138.827V138.894C175.827 139.095 176.027 139.295 176.295 139.563C176.496 139.764 176.697 139.964 176.965 140.165L177.032 140.232C177.233 140.432 177.434 140.633 177.635 140.834H177.702C178.572 140.834 179.443 140.834 180.313 140.834H180.38C180.648 140.165 180.916 140.432 181.184 140.834C183.126 140.7 185.269 142.907 187.01 140.165C187.479 139.429 188.015 140.366 188.484 140.834C189.957 142.372 190.158 144.579 191.296 146.318C192.77 146.185 193.975 146.854 195.181 147.589C196.051 149.529 196.721 151.469 194.511 153.074C193.573 156.151 194.176 157.087 197.123 156.552C198.06 156.418 198.797 156.552 199.667 156.753C201.409 157.154 203.016 156.886 204.02 155.147C204.489 154.412 204.824 153.475 205.963 153.609C208.106 153.341 210.717 151.669 211.387 155.682C211.454 156.218 211.99 155.08 212.459 155.014C212.525 153.542 214.066 152.472 213.865 150.867C213.865 149.395 213.999 147.924 215.204 146.853C215.673 146.185 216.142 146.051 216.611 146.853C217.95 147.455 219.289 145.783 220.629 146.92C221.566 148.726 223.508 149.596 224.58 151.268C225.651 152.873 226.991 154.88 229.469 152.873C229.937 152.539 230.54 152.472 231.009 152.873C234.089 155.616 235.831 153.676 237.572 151.201C238.175 150.398 238.777 149.596 239.916 149.596C240.385 146.051 240.318 142.439 244.938 141.235C246.68 140.767 247.617 139.162 247.416 137.021C247.282 135.75 247.014 134.346 248.287 133.343C248.421 133.209 248.555 133.075 248.689 132.874C249.425 132.741 250.296 133.209 250.765 132.205C251.234 132.205 251.434 131.938 251.434 131.537C253.042 130.333 254.247 128.661 255.185 126.922C255.386 126.855 255.52 126.721 255.653 126.587L255.72 126.52C256.859 125.049 257.93 123.51 259.203 122.106C260.274 120.634 259.337 120.3 258.332 119.899ZM175.693 103.98C175.626 104.113 175.626 104.247 175.626 104.314C175.626 104.247 175.693 104.113 175.693 103.98ZM175.626 104.515C175.559 104.916 175.626 105.384 175.693 105.786C175.626 105.317 175.559 104.916 175.626 104.515ZM176.094 103.98C176.496 103.913 176.831 103.712 177.032 103.311C176.831 103.712 176.496 103.913 176.094 103.98ZM177.702 101.973C177.702 101.505 177.501 101.037 177.032 100.635C177.501 101.037 177.702 101.505 177.702 101.973Z" fill="#DDF2F9"/>
<path d="M201.141 42.4447C201.007 41.5752 198.864 41.9096 200.337 39.8361C201.409 38.2978 200.672 34.9535 199.333 33.2813C197.859 31.4085 195.449 30.2046 192.569 30.9403C190.962 31.3416 189.154 31.3416 189.02 28.5324C188.953 27.1947 187.814 25.1881 185.872 25.7901C181.452 27.1947 180.983 24.3186 180.448 21.3088C180.314 20.6399 179.979 20.1048 179.711 19.436C178.773 17.0281 177.568 16.2923 175.224 18.1651C174.353 18.834 173.416 20.9074 172.009 19.7035C169.933 17.8976 166.585 16.9612 167.054 12.948C167.389 10.2057 165.045 8.53357 162.366 9.06865C158.683 9.8044 154.999 10.5401 151.383 11.5434C146.36 12.948 143.883 16.0248 144.485 21.0412C145.356 27.596 144.619 33.7495 141.472 39.6355C143.816 40.7057 145.691 42.5785 147.365 44.3844C148.771 45.9228 149.776 47.7287 148.637 50.6048C147.499 53.6146 148.637 57.2265 148.972 60.5039C149.776 61.3734 150.379 62.7111 149.977 63.5137C147.767 67.3931 151.383 65.8547 152.321 65.7878C158.013 65.5203 163.17 67.1925 168.46 68.9315C170.737 69.6672 173.483 69.0653 175.961 68.7977C177.635 68.5971 178.639 68.7308 179.242 70.6036C179.912 73.0115 181.921 74.483 183.796 76.0214C184.466 75.4863 185.135 75.0181 185.738 74.483C186.542 73.3459 188.551 72.142 187.881 71.0049C186.073 67.8613 190.091 65.5203 188.551 62.5773C188.283 62.1091 189.154 61.1727 189.823 61.3734C191.698 61.8416 192.837 60.1026 194.444 59.9688C196.051 60.1026 196.319 59.233 196.453 57.8284C196.654 56.0894 195.783 54.1497 197.056 52.5444C199.668 50.4041 200.739 47.5949 200.404 44.3175C200.404 43.448 200.94 43.0467 201.141 42.4447Z" fill="#C1E3F2"/>
<path d="M130.087 99.3644C131.962 96.6889 130.221 95.2843 128.212 94.0135C128.279 94.4148 128.747 94.883 128.212 95.0837C127.81 95.2175 127.274 94.8161 126.738 94.6824C123.323 94.6155 121.046 93.0771 120.109 89.7328C119.305 87.0574 117.698 86.8567 115.555 88.2613C114.818 88.7295 114.215 89.3984 113.479 89.9335C110.733 92.0738 110.8 88.462 109.327 87.9269C108.389 87.258 108.255 86.2548 107.987 85.2515C107.518 85.4521 107.117 85.6528 106.648 85.9203C104.907 87.4587 102.429 85.8534 100.688 87.258C98.6785 88.5958 96.6694 89.4653 94.5934 87.258C93.9237 87.1912 93.187 87.3918 92.7182 86.5892C91.5798 87.3918 90.3743 86.7898 89.2359 86.5223C89.6377 88.5958 90.0395 90.6692 89.4368 92.8096C89.3028 93.3447 89.0349 94.0135 89.2359 94.4148C91.6467 99.0968 88.834 102.508 86.5571 106.187C85.6865 107.591 84.8159 108.394 83.4765 107.658C82.0032 106.922 80.396 107.391 79.7263 108.06C77.3154 110.467 74.3018 110.534 71.3552 111.136C69.547 111.471 68.2746 112.206 68.2746 114.347C68.3416 116.086 66.9352 116.487 65.5289 116.621C63.7207 116.822 62.1135 117.424 60.841 118.828C59.4347 119.765 58.698 120.5 60.1714 122.373C61.5777 124.112 63.118 124.447 64.7922 124.313C67.1361 124.112 67.2031 125.717 66.3995 126.587C65.1271 127.992 65.9977 127.925 67.0022 128.326C70.8864 129.864 71.0203 130.199 68.4755 133.61C68.2076 134.814 68.0067 136.018 67.7388 137.222C69.8819 139.429 72.6945 141.436 73.4312 144.445C74.2348 147.522 76.4448 148.258 78.7217 149.328C79.3914 149.663 80.329 149.395 80.7978 150.131C82.6729 152.873 85.4186 153.207 88.3653 152.672C89.1689 151.937 90.5083 150.8 91.2449 151.535C92.7182 153.207 94.3925 152.004 95.9327 152.271C98.5445 152.739 99.5491 151.335 98.8794 148.86C98.6785 148.057 98.6785 147.121 98.7454 146.251C99.0803 142.439 97.4061 139.295 95.33 136.352C94.4594 135.148 94.1916 133.811 94.4594 132.674C94.7273 131.403 95.9997 131.336 97.2052 131.804C97.7409 132.005 98.6785 131.938 99.1473 131.536C102.362 128.861 106.179 129.329 109.929 129.262C112.139 127.256 113.345 124.513 114.684 121.972C114.952 120.835 115.354 119.698 115.421 118.494C115.689 114.146 119.372 114.079 122.051 112.407C124.528 110.869 127.408 108.795 127.475 105.117C129.015 105.317 129.618 104.581 129.417 103.177C131.024 102.174 129.216 100.568 130.087 99.3644ZM128.547 100.167C128.547 100.234 128.547 100.368 128.547 100.435C128.547 100.368 128.547 100.234 128.547 100.167ZM128.547 100.501C128.547 100.568 128.547 100.702 128.614 100.769C128.614 100.702 128.614 100.568 128.547 100.501ZM128.614 100.769C128.814 101.638 129.216 102.441 129.417 103.244C129.216 102.441 128.814 101.638 128.614 100.769ZM128.881 103.645C128.881 103.645 128.814 103.645 128.881 103.645C128.814 103.645 128.881 103.645 128.881 103.645ZM128.547 99.8326C128.547 99.8995 128.547 100.033 128.547 100.1C128.547 100.033 128.547 99.9663 128.547 99.8326ZM128.346 104.113C128.279 104.18 128.279 104.247 128.212 104.314C128.212 104.247 128.279 104.18 128.346 104.113ZM126.939 95.4181C127.073 95.8194 127.274 96.087 127.676 96.2876C127.274 96.087 127.073 95.7525 126.939 95.4181ZM127.877 104.648C127.81 104.715 127.743 104.849 127.676 104.983C127.743 104.849 127.81 104.715 127.877 104.648ZM129.283 98.0935C129.082 98.2942 128.948 98.5617 128.814 98.7624C128.948 98.5617 129.082 98.3611 129.283 98.0935C129.551 97.7591 129.551 97.4247 129.417 97.1571C129.551 97.4247 129.551 97.7591 129.283 98.0935ZM128.547 99.7657C128.547 99.6988 128.547 99.565 128.614 99.4981C128.614 99.6319 128.547 99.6988 128.547 99.7657ZM128.614 99.4313C128.614 99.2975 128.681 99.2306 128.681 99.0968C128.681 99.2306 128.614 99.3644 128.614 99.4313ZM128.681 99.0968C128.748 98.9631 128.747 98.8962 128.814 98.7624C128.814 98.8962 128.748 99.0299 128.681 99.0968Z" fill="#C1E3F2"/>
<path d="M148.57 50.5376C149.642 47.7284 148.637 45.8556 147.298 44.3173C145.624 42.5113 143.815 40.6385 141.405 39.5684C137.922 41.3743 134.775 43.9828 130.623 44.3173C125.667 44.7186 121.649 47.3271 117.363 49.4006C114.684 50.7383 114.416 53.4806 113.746 55.7547C113.278 57.2931 115.689 57.4938 117.162 58.0957C116.023 58.8315 115.086 59.2328 114.349 59.9016C111.269 62.5102 108.188 62.8446 104.17 61.7076C99.683 60.4367 94.7942 60.2361 90.0394 59.8348C87.8964 59.6341 84.6819 56.0892 85.6195 54.1495C86.2222 52.9455 86.8919 51.9422 85.7534 50.939C84.6819 50.0025 82.8738 49.9357 81.9362 50.6045C79.2574 52.6111 76.8466 51.2734 74.3687 50.4039C73.833 50.2032 73.3642 49.9357 72.8284 49.8688C72.2927 49.8019 71.69 49.8019 71.4221 50.4708C71.2212 51.0058 71.489 51.4072 71.8909 51.6078C73.699 52.2767 73.1633 53.5475 73.0963 54.8852C73.0293 56.8249 73.3642 59.1659 74.7036 60.3699C79.1905 64.383 78.8556 69.667 79.1235 74.7503C79.2574 77.0913 78.9896 79.2985 80.8647 81.1713C82.6059 82.9104 80.7308 82.3753 79.9271 82.576C80.5298 87.4586 82.0701 88.5288 85.5525 86.1878C86.8249 85.3183 88.0304 86.5222 89.3028 86.5891C90.4412 86.7898 91.6467 87.3917 92.7852 86.656C93.187 87.3917 93.9906 87.1911 94.6603 87.3248C96.6693 89.5321 98.6784 88.6626 100.687 87.3248C102.496 85.9202 104.907 87.5255 106.715 85.9871C107.183 85.7865 107.585 85.5858 108.054 85.3183C108.322 86.3216 108.456 87.3248 109.393 87.9937C110.8 88.5957 110.8 92.1406 113.546 90.0003C114.215 89.3983 114.885 88.7963 115.622 88.3281C117.765 86.9235 119.439 87.1242 120.175 89.7996C121.18 93.1439 123.39 94.6823 126.805 94.7492C127.274 94.8829 127.81 95.2843 128.279 95.1505C128.814 95.0167 128.346 94.4816 128.279 94.0803C128.48 92.6757 128.881 91.4718 130.489 90.8029C133.167 89.6659 132.766 87.3248 131.627 85.5189C128.948 81.3051 128.747 81.4389 133.435 79.9005C134.172 79.633 134.909 79.4323 135.645 79.2317C136.784 78.5628 137.922 79.5661 139.128 79.2317C140.534 78.8972 142.074 78.6297 141.003 76.5562C141.271 76.3556 141.472 76.088 141.739 75.8874C142.007 75.6198 142.208 75.3523 142.476 75.0847C142.677 74.0146 142.878 72.8775 143.012 71.8073C143.012 71.4729 143.012 71.0716 143.012 70.7372C142.275 68.2624 144.351 69.667 145.088 69.1988C145.222 69.1988 145.423 69.1988 145.557 69.1988C145.824 68.9312 146.092 68.6637 146.36 68.3962C146.025 65.3194 149.173 63.4466 149.039 60.4367C148.57 57.0924 147.432 53.5475 148.57 50.5376ZM135.712 78.3621C135.98 77.8939 136.516 77.7602 137.052 77.8939C136.516 77.7602 135.98 77.8271 135.712 78.3621Z" fill="#DDF2F9"/>
<path d="M272.798 219.625C272.329 218.555 273.668 216.08 271.19 216.749C268.98 217.284 266.837 218.02 264.493 218.087C263.422 217.485 262.417 216.816 261.346 216.348C258.131 214.877 255.988 212.669 256.524 208.79C256.524 207.72 255.386 206.85 255.988 205.646C256.39 205.646 256.658 205.379 256.658 204.977C257.73 204.375 257.796 203.305 257.796 202.302L257.93 202.101C258.533 201.901 260.073 202.436 259.672 201.432C259.002 199.76 260.14 197.486 257.93 196.416C256.256 196.416 253.912 196.951 253.644 194.744C253.377 192.67 252.372 191.466 251.033 190.263C250.631 189.861 250.229 189.46 249.894 189.059C249.024 189.46 248.153 189.928 247.282 190.329L247.215 190.396C245.407 191.667 244.872 190.597 244.537 189.059C243.867 189.059 243.264 189.059 242.595 189.059C242.595 189.594 242.528 190.129 241.992 190.463C241.992 190.597 241.992 190.798 241.925 190.931C242.126 191.4 242.327 191.801 242.595 192.269C243.264 192.002 244.001 191.667 243.934 192.938L244.001 193.005C245.541 193.741 245.474 195.078 245.139 196.349C244.938 197.085 244.336 196.884 243.867 196.416C239.447 196.416 236.166 198.69 233.219 201.7C233.152 202.436 232.884 202.971 232.08 203.038C230.205 203.305 229.804 204.509 230.138 206.181C230.607 208.389 229.67 208.723 227.861 207.72H227.794C227.393 207.72 226.991 207.72 226.589 207.72C225.384 209.994 225.919 211.465 228.397 212.602C230.004 213.271 231.478 214.676 230.473 216.816C229.737 218.421 226.455 218.488 224.714 217.151C223.709 216.348 222.638 215.947 221.365 216.014C220.093 216.147 219.892 215.412 219.825 214.408C218.285 214.141 216.678 213.472 215.137 214.475C213.798 215.345 212.459 216.147 211.856 213.673C211.722 213.071 211.052 212.937 210.516 213.137C209.177 213.606 209.914 214.81 209.78 215.679C211.454 217.084 209.646 220.227 212.459 221.097C212.459 221.966 212.459 222.903 212.526 223.772C211.186 223.839 210.45 224.709 209.914 225.779L209.847 225.846C208.641 226.782 209.311 228.053 209.244 229.123C208.507 230.528 206.565 231.531 206.23 232.2C204.958 234.875 202.078 236.012 200.94 238.621C200.94 238.688 201.007 238.822 201.074 238.889C202.547 238.955 203.954 239.022 205.427 239.089C206.364 239.156 207.101 239.29 207.637 240.226C209.378 243.303 211.387 243.437 213.463 240.628C214.401 239.357 215.673 240.026 215.941 240.694C217.146 243.504 219.423 242.634 221.298 242.3C223.107 241.965 223.91 242.3 223.843 244.106C223.709 246.112 224.781 246.313 226.455 246.58C229 246.982 231.813 247.116 232.884 250.259C233.085 250.861 234.156 251.396 234.491 250.794C235.764 248.587 237.907 250.326 239.179 249.657C241.255 248.654 243.465 249.457 245.742 248.52C249.091 247.116 251.434 246.313 252.104 242.166C252.64 239.156 256.725 238.755 258.667 236.28C260.676 233.671 263.422 231.464 266.703 230.26C270.052 230.193 269.248 227.652 269.382 225.712C270.521 224.174 272.53 223.304 272.731 221.03C273.333 220.562 274.137 220.094 272.798 219.625ZM226.857 232.334C226.656 232.334 226.455 232.334 226.254 232.267C226.455 232.334 226.656 232.334 226.857 232.334C227.393 232.267 228.062 232.401 228.33 231.799C228.062 232.401 227.393 232.334 226.857 232.334Z" fill="#88C6E3"/>
<path d="M89.3699 94.4819C89.169 94.0806 89.3699 93.4117 89.5708 92.8767C90.1735 90.7363 89.7047 88.6629 89.3699 86.5894C88.0975 86.5225 86.892 85.3186 85.6196 86.1881C82.1372 88.4622 80.5969 87.392 79.9942 82.5762C78.5879 82.7769 77.1815 83.0444 75.7752 83.1782C75.0385 83.2451 73.8331 83.312 73.6992 82.5094C73.2304 79.0313 71.757 80.9041 70.2168 81.6398C68.7435 82.3756 66.8683 84.1146 65.462 82.6431C63.5869 80.6365 61.9796 81.7736 60.5063 82.5094C58.8321 83.2451 57.9615 85.9205 56.0863 85.653C54.0773 85.3854 53.6755 82.71 52.3361 81.3054C51.8003 80.7034 51.3985 80.0346 50.9297 79.4995C49.2555 77.4929 47.6483 74.9513 44.2998 76.0883C42.6256 76.6234 41.0853 77.2923 39.2102 76.7572C38.4735 76.5565 37.1341 77.2254 37.3351 78.1618C38.0047 81.6398 36.1296 80.9041 34.1875 80.2352C33.3169 79.9677 32.4463 79.8339 31.7766 80.7034C31.1739 81.5061 30.3033 81.573 29.7676 80.9041C28.83 79.6333 27.8255 80.5028 26.8209 80.5697C25.3476 80.6366 24.4101 82.1749 23.1377 81.9074C19.3874 81.1048 16.6417 83.4458 13.762 84.9172C11.3511 86.1881 12.0878 88.9304 12.5566 91.0039C13.0254 93.1442 14.7665 91.2045 15.972 91.2714C17.1774 91.3383 18.4498 90.6025 19.7222 90.2012C18.7177 93.7462 22.1331 90.6025 22.5349 92.3416C21.1286 93.8131 19.3874 92.7429 17.8471 92.6091C17.3783 92.6091 16.9096 91.8734 16.4408 92.6091C16.1059 93.1442 15.7711 93.6793 16.4408 94.3481C16.9096 94.8832 17.1105 95.6859 17.5792 96.6891C17.8471 96.2209 18.048 95.9534 18.182 95.6859C19.2535 93.9468 20.325 95.4183 21.3295 95.7528C22.1331 96.0203 22.6019 96.756 22.401 97.6256C22.1331 99.1639 20.7937 98.4282 19.9232 98.6288C18.7177 98.8964 17.5123 99.097 16.3068 99.3646C15.3693 99.5652 13.9629 99.2308 13.9629 100.569C13.9629 101.706 15.3693 101.438 16.1729 101.572C18.9856 101.973 20.4589 103.645 21.0616 106.187C21.5974 108.327 23.2046 108.729 25.0798 107.324C26.9549 105.986 29.0979 104.649 31.04 107.324C31.7097 108.194 32.6472 107.859 33.4509 108.127C38.8753 109.933 45.7062 109.933 47.0455 118.628C47.1795 114.481 48.3849 113.879 51.1976 115.618C52.47 116.42 53.3406 117.491 55.2827 116.956C57.3587 116.354 59.9705 115.752 61.042 118.895C62.3144 117.558 63.9217 116.889 65.7299 116.688C67.1362 116.554 68.5425 116.153 68.4756 114.414C68.4086 112.207 69.748 111.538 71.5561 111.203C74.5028 110.668 77.5164 110.535 79.9273 108.127C80.5969 107.458 82.2042 106.923 83.6775 107.725C85.0839 108.461 85.8875 107.658 86.7581 106.254C88.9681 102.575 91.7807 99.1639 89.3699 94.4819ZM51.1306 114.481C51.2646 114.548 51.3315 114.615 51.4655 114.615C51.3985 114.615 51.2646 114.548 51.1306 114.481ZM51.5994 114.548C51.7334 114.481 51.8673 114.414 52.0012 114.347C51.8003 114.28 51.6664 114.146 51.4655 114.079C51.6664 114.146 51.8003 114.28 52.0012 114.347C51.8673 114.414 51.7334 114.548 51.5994 114.548Z" fill="#A4D5EA"/>
<path d="M184.399 81.2385C184.801 78.9644 185.269 76.6903 185.671 74.3493C185.001 74.8843 184.332 75.3525 183.729 75.8876C181.854 74.3493 179.845 72.8778 179.175 70.4699C178.639 68.5971 177.635 68.4633 175.894 68.664C173.416 68.9984 170.603 69.5335 168.393 68.7977C163.103 67.1256 157.946 65.4534 152.254 65.6541C151.316 65.721 147.7 67.2594 149.91 63.38C150.312 62.6442 149.709 61.2396 148.905 60.3701C149.039 63.38 145.892 65.2528 146.226 68.3295C145.959 68.5971 145.691 68.8646 145.423 69.1322C145.289 69.1322 145.088 69.1322 144.954 69.1322C144.217 69.5335 142.141 68.1958 142.878 70.6705C142.878 71.005 142.878 71.4063 142.878 71.7407C142.677 72.8109 142.476 73.9479 142.342 75.0181C142.945 74.6168 143.28 73.6804 144.284 73.8811C145.356 78.5631 147.365 82.9775 149.642 87.1913C149.843 87.392 150.111 87.6595 150.312 87.8602C151.249 88.6628 152.856 88.9973 152.923 90.6025C153.057 94.0137 154.798 93.7462 157.075 92.6091C160.022 91.472 162.232 93.0104 164.375 94.6157C164.71 95.7527 163.571 96.6891 163.638 97.9599C166.518 97.8262 169.197 98.2275 171.742 97.2911C172.411 97.0904 173.081 96.8229 173.751 96.6222C174.42 95.619 175.626 94.6825 175.693 93.6793C175.76 90.7363 177.568 90.6694 179.711 90.6025C180.648 90.6025 181.72 90.8032 182.524 90.0674C183.394 90.2681 184.265 90.4687 185.135 90.6694C183.997 89.6661 183.394 88.5291 184.265 86.9907C184.801 86.0543 185.269 85.051 185.202 83.9139C186.475 82.5762 183.863 82.3087 184.399 81.2385Z" fill="#88C6E3"/>
<path d="M164.509 175.213C163.638 172.805 165.045 169.862 162.835 167.655C162.366 167.187 163.236 166.786 163.638 166.451C166.049 164.177 167.054 161.635 165.714 158.291C165.045 156.686 164.978 154.88 163.705 153.475C162.634 153.342 161.696 153.007 160.959 152.138C160.156 151.603 159.955 150.8 159.687 149.997C159.687 149.864 159.687 149.663 159.687 149.529C158.147 149.529 156.606 149.462 155.066 149.462C152.12 149.128 149.173 148.66 146.293 150.131C145.356 148.86 144.485 148.86 143.548 150.131C141.204 150.332 138.86 150.466 136.851 148.86C136.114 147.523 135.243 146.519 133.904 145.65C132.632 144.847 131.493 143.844 131.158 141.436C130.756 138.292 128.145 135.282 126.069 132.54C125.064 131.269 123.524 133.008 122.184 133.477C120.912 134.079 119.841 134.547 119.104 134.012C119.908 134.547 120.979 134.079 122.184 133.477C120.309 133.543 118.97 133.61 118.568 130.935C118.367 129.53 116.358 128.059 114.215 128.059C114.014 126.052 114.148 124.046 114.818 122.106C113.412 124.648 112.273 127.39 110.063 129.397C106.313 129.463 102.496 128.995 99.2811 131.671C98.8793 132.005 97.9417 132.072 97.339 131.938C96.1336 131.537 94.8612 131.537 94.5933 132.808C94.3254 134.012 94.5933 135.282 95.4639 136.486C97.5399 139.429 99.2811 142.573 98.8793 146.386C98.8123 147.255 98.8123 148.191 99.0132 148.994C99.6829 151.469 98.6784 152.873 96.0666 152.405C94.5263 152.138 92.9191 153.275 91.3788 151.67C90.7091 150.934 89.3697 152.004 88.4991 152.807C88.4991 153.475 88.4991 154.144 88.5661 154.813C87.8294 154.947 87.2937 155.348 87.2267 156.151C84.9498 157.288 83.4095 155.214 81.5344 154.746C80.9986 154.612 80.4629 154.345 80.061 154.88C79.7932 155.281 79.9941 155.883 80.3959 155.95C82.7398 156.218 84.6149 158.559 87.2267 157.489C89.5706 159.027 89.5706 161.301 89.3027 163.709C89.2358 164.512 89.3027 165.314 88.2982 165.515C87.4946 165.649 86.9588 164.98 86.8919 164.378C86.49 162.304 84.8828 161.702 83.2086 160.967C83.0746 162.639 83.2755 163.976 84.6149 164.913C85.8204 165.716 86.7579 167.388 86.3561 168.257C85.1507 171.2 87.4946 171.802 88.9009 173.006C90.7761 174.678 92.7182 176.283 94.5933 177.889C95.9996 179.16 96.5354 180.698 96.2675 182.705C94.7942 179.36 90.7761 178.691 89.4367 175.28C88.1643 177.487 85.7534 197.754 86.3561 202.035C86.8249 201.098 86.8919 200.63 87.2267 200.362C88.7 198.958 89.0349 200.697 89.6376 201.366C90.1733 201.968 89.9055 202.904 89.1018 202.77C85.5525 202.302 86.1552 205.178 85.9543 206.85C85.0837 216.281 83.1416 225.511 81.1325 234.742C80.4629 237.752 78.7217 240.226 75.2393 240.695C74.7705 242.835 75.4402 243.905 77.7841 243.236C78.1189 247.049 80.6638 243.303 81.8022 244.306C82.1371 244.373 82.4719 244.373 82.8068 244.44C82.8068 244.908 82.8068 245.31 82.8737 245.778C83.2755 247.651 80.3959 248.922 81.8022 250.861C83.3425 252.935 85.4186 250.527 87.1598 251.263C88.2313 252.4 89.7715 252.667 91.1779 253.068C91.2449 253.202 91.3788 253.269 91.5127 253.269C93.6557 254.807 96.7363 254.339 98.5445 256.613C98.8123 257.215 99.1472 257.75 99.8838 257.951L99.8169 258.018C101.223 259.356 103.232 259.356 105.308 257.951V258.018C105.978 258.152 106.648 258.352 107.25 258.486C105.777 256.68 106.514 254.54 106.514 252.533C106.514 252.065 106.648 251.798 106.916 251.53C106.715 251.731 106.514 252.065 106.514 252.533C107.116 252.266 107.652 251.864 107.92 251.196C107.786 249.858 108.724 249.055 109.259 247.985C109.46 247.718 109.728 247.517 109.929 247.249C108.121 243.504 110.8 240.026 110.599 236.347C110.331 236.013 110.063 235.544 109.728 235.411C108.523 234.875 106.045 235.277 106.782 233.27C107.92 230.127 105.911 225.578 110.666 224.04C110.867 223.973 111.068 223.839 111.269 223.706C113.144 227.25 113.545 223.104 114.818 223.037C118.434 222.836 121.649 220.562 125.399 220.963C128.346 221.298 132.163 216.214 131.158 213.271C130.89 212.536 130.355 211.733 131.627 211.733C134.172 211.733 134.306 210.663 133.636 208.589C132.632 205.379 135.846 204.108 137.252 202.101C139.195 199.359 142.208 197.486 141.873 193.339C141.739 191.4 144.418 190.463 145.557 191.734C148.637 195.212 152.053 193.674 155.468 193.406C156.941 191.667 157.946 189.192 157.946 187.387C158.013 184.31 161.562 183.708 161.361 180.899C161.361 180.832 161.696 180.631 161.897 180.631C162.835 180.497 164.576 181.701 164.442 180.698C164.308 178.691 165.178 177.086 164.509 175.213ZM96.6693 185.313C96.6693 185.112 96.6693 184.912 96.6693 184.711C96.7363 184.912 96.7363 185.112 96.6693 185.313ZM98.5445 190.998C98.6114 190.931 98.7454 190.798 98.8123 190.731C98.7454 190.798 98.6784 190.931 98.5445 190.998ZM144.887 180.564C145.49 180.497 145.49 181.032 145.557 181.434C145.557 181.768 145.49 182.103 145.356 182.37C145.49 182.103 145.557 181.768 145.557 181.434C145.49 181.032 145.49 180.497 144.887 180.564Z" fill="#DDF2F9"/>
<path d="M270.186 114.748C271.525 114.012 270.989 113.344 270.186 112.608C270.186 113.344 270.186 114.012 270.186 114.748Z" fill="#A4D5EA"/>
<path d="M283.914 72.5434C283.78 71.6738 282.642 71.9414 281.972 71.7407C281.169 71.4732 280.365 71.2725 279.561 71.0719C279.026 70.3361 278.49 69.3997 277.485 70.4699C275.61 70.2023 273.668 71.0719 271.86 69.8679C271.458 68.5971 269.784 68.7977 269.248 67.5938C268.445 65.6541 267.172 66.1892 265.9 67.1256C265.699 67.1256 265.498 67.1925 265.364 67.2594C262.685 67.6607 260.14 67.3931 258.064 65.3866C257.328 65.3197 256.323 64.9184 255.787 65.2528C253.042 66.9918 252.104 65.119 251.167 63.1793C251.033 62.5774 250.698 62.3098 250.095 62.3767C249.76 58.2967 248.354 57.0927 243.934 57.0927V57.1596C241.523 54.2835 239.782 56.9589 237.84 57.8953C237.438 57.6947 237.036 57.494 236.634 57.2934C234.558 55.153 232.214 54.016 229.201 55.0861C227.861 55.5543 226.656 55.4875 225.852 54.2166C223.843 53.0127 222.37 51.2068 220.093 50.1366C218.486 49.334 217.079 47.9294 215.07 47.8625C213.195 46.2572 215.271 42.9798 212.392 41.8427C213.195 41.0401 212.793 39.7024 213.865 38.9667C214.468 38.5653 214.669 37.7627 213.932 37.2945C213.463 37.027 212.726 36.425 212.124 37.1607C211.454 38.0303 209.713 38.164 209.78 39.3011C209.981 41.5083 208.24 41.4414 207.168 42.311C205.025 44.1169 203.016 41.709 200.94 42.5116C200.739 43.1136 200.27 43.5149 200.337 44.3175C200.605 47.5949 199.534 50.4041 196.989 52.5445C197.19 53.2133 197.324 53.8822 197.324 54.5511C197.324 53.8822 197.19 53.2133 196.989 52.5445C195.716 54.1497 196.52 56.0894 196.386 57.8285C196.252 59.2331 195.984 60.1026 194.377 59.9688C192.703 60.0357 191.631 61.7747 189.756 61.3734C189.086 61.2396 188.216 62.1092 188.484 62.5774C190.024 65.5203 186.006 67.8613 187.814 71.005C188.417 72.142 186.475 73.2791 185.671 74.483C185.269 76.7572 184.8 79.0313 184.399 81.3723C183.796 82.4425 186.408 82.7769 185.068 84.0477C185.135 85.1848 184.667 86.1881 184.131 87.1245C183.26 88.6628 183.863 89.7999 185.001 90.8032C185.939 92.2747 187.546 93.4117 187.077 95.4852C186.943 96.0872 187.345 96.6891 187.948 96.756C191.163 96.8898 191.363 99.5652 192.368 101.639C193.239 103.378 194.511 104.515 196.52 104.047C200.404 103.244 204.69 104.314 208.24 101.572C209.11 100.903 210.918 101.371 211.32 102.174C212.459 104.448 217.28 104.849 214.936 108.996C214.736 109.397 215.137 110.869 216.209 111.404C218.084 112.407 220.562 112.274 221.968 114.28C222.102 114.414 223.308 114.213 223.375 113.946C224.848 110.401 230.406 113.745 231.411 109.063C231.947 106.521 234.357 105.05 236.233 103.445C239.916 100.368 243.197 103.846 246.613 104.448C247.015 104.515 247.483 105.451 247.952 105.05C250.497 103.043 251.702 105.652 253.31 106.588C254.649 107.324 255.587 108.662 257.127 109.13C257.997 109.397 258.935 110.2 258.6 111.07C257.663 113.411 259.337 114.28 260.676 115.35C259.136 116.956 257.06 117.892 256.055 120.099C255.319 121.638 256.725 120.902 256.993 121.303C257.06 120.434 257.06 119.497 258.399 119.899L258.332 119.832C259.471 116.688 259.94 116.621 262.752 119.163C263.02 118.026 262.618 117.156 261.949 116.487C262.551 117.223 262.953 118.026 262.752 119.163C264.159 119.43 265.498 119.564 266.837 118.895C268.712 118.093 269.449 116.42 270.186 114.681C270.186 113.946 270.186 113.277 270.186 112.541C269.985 112.274 269.717 111.939 269.516 111.672C269.248 108.26 271.525 105.251 271.056 101.839C270.521 101.371 270.186 100.97 269.985 100.569C270.186 100.97 270.588 101.371 271.056 101.839C270.655 100.033 270.922 98.2275 271.592 96.4885C271.324 96.6891 271.123 96.8898 270.922 97.0905C271.123 96.8898 271.391 96.6891 271.592 96.4885L271.525 96.2878C271.726 95.9534 271.994 95.619 272.195 95.2845C273.534 94.6826 272.998 93.5455 272.931 92.5422C275.008 89.733 275.075 86.3887 275.543 83.1782C275.744 82.9775 275.744 82.7769 275.61 82.5762H275.543C276.079 82.6431 276.28 82.4425 276.213 81.9074C276.883 82.108 277.284 81.7736 277.552 81.1716C278.557 80.5697 279.227 79.7001 279.628 78.5631L279.561 78.4962C280.298 78.7637 280.566 78.2286 280.901 77.8273C282.307 77.0916 282.173 75.7539 282.24 74.483C283.178 74.2155 284.048 73.5466 283.914 72.5434ZM270.119 114.748C268.646 115.083 267.708 115.885 267.239 117.022C267.708 115.885 268.646 115.083 270.119 114.748Z" fill="#A4D5EA"/>
</svg>
