<svg width="650" height="372" viewBox="0 0 650 372" fill="none" xmlns="http://www.w3.org/2000/svg">
<mask id="mask0" mask-type="alpha" maskUnits="userSpaceOnUse" x="127" y="0" width="328" height="285">
<path d="M426.447 95.8943L454.9 0H127.279V198.841L237.028 172.285L321.576 187.725V284.432L397.993 268.179L426.447 95.8943Z" fill="#C4C4C4"/>
</mask>
<g mask="url(#mask0)">
<path d="M571.051 25.2559H127.28V152.135H571.051V25.2559Z" fill="#C9ECF4"/>
<path d="M571.051 152.135H127.28V281.149H571.051V152.135Z" fill="#B1E869"/>
<path d="M564.036 65.5971C564.036 65.5971 558.155 65.0051 554.349 64.5719C553.354 64.1099 551.884 63.8644 550.5 63.7056C550.068 63.1714 549.967 62.3628 548.871 61.9874C547.314 61.4676 546.262 61.6408 545.729 61.7708C545.195 61.9007 544.907 57.9156 541.375 57.4824C537.843 57.0493 537.887 57.3958 535.609 57.4391C535.609 57.4391 534.441 54.4647 532.077 54.2481C529.713 54.0316 528.199 55.4754 527.911 55.5621C527.911 55.5621 527.565 54.0316 526.556 53.9449C525.533 53.8583 524.033 54.5947 524.033 54.5947C522.779 53.7139 523.01 53.5839 521.323 53.2807C519.622 52.9775 518.714 54.6813 518.714 54.6813C518.714 54.6813 518.325 54.3781 517.792 53.8005C517.258 53.2374 515.946 52.7465 514.548 52.6165C513.15 52.4866 512.516 53.8438 512.458 53.7139C512.415 53.5839 511.924 52.9631 511.204 52.0101C510.483 51.0427 507.859 50.5229 506.216 50.8261C504.573 51.1293 504.14 52.6165 504.14 52.6165C504.14 52.6165 502.583 51.4759 499.686 49.7288C496.774 47.9817 488.745 47.6351 484.91 48.848C481.09 50.0753 477.212 55.1 477.212 55.1C477.212 55.1 476.145 54.3492 475.569 54.0027C474.992 53.6561 473.868 53.0353 472.224 54.0893C470.581 55.1433 470.091 57.0637 470.091 57.0637C470.091 57.0637 468.347 56.2263 467.323 56.1396C466.3 56.053 465.334 56.2696 464.08 57.107C462.826 57.9445 462.725 60.7456 462.725 60.7456C462.148 60.1825 460.447 59.6916 459.38 60.2691C458.314 60.8323 457.55 63.3446 457.55 63.3446C454.494 64.1388 444.172 65.5827 444.172 65.5827H450.443C452.432 65.8714 454.479 66.1891 456.512 66.4634C458.703 66.7666 460.577 66.3335 462.667 66.319C464.253 66.3046 465.55 66.7811 467.395 66.9543C471.086 67.3153 474.877 67.7774 478.61 67.6185C480.657 67.5319 481.955 66.7522 483.786 66.3624C485.443 66.0158 486.135 66.3624 488.11 66.7378C490.748 67.2431 493.43 67.1854 496.14 67.1854C497.264 67.1854 498.446 67.2864 499.556 67.1421C500.335 67.041 500.493 66.3046 501.445 66.3479C503.189 66.4057 504.587 68.7448 506.605 66.9543C507.975 67.9939 508.955 66.8822 510.108 66.7955C513.294 66.5501 516.739 67.6041 519.997 67.633C522.794 67.6619 525.36 67.5752 528.055 67.0265C529.67 66.6944 531.558 65.7415 533.173 65.6549C535.35 65.5249 538.42 66.6944 540.899 66.7666C543.047 66.8244 545.094 66.7233 547.213 66.3768C549.001 66.088 550.947 65.9436 552.734 65.6115H564.036V65.5971Z" fill="#F0F6F7"/>
<path d="M242.874 65.2779C242.874 65.2779 233.794 64.0154 231.107 63.3227C231.107 63.3227 230.424 61.1216 229.495 60.6189C228.555 60.1161 227.066 60.5407 226.551 61.0434C226.551 61.0434 226.461 58.5854 225.353 57.8592C224.244 57.133 223.393 56.9431 222.498 57.0101C221.602 57.0883 220.068 57.8145 220.068 57.8145C220.068 57.8145 219.643 56.1275 218.187 55.2001C216.743 54.284 215.758 54.8203 215.243 55.1219C214.728 55.4236 213.799 56.0828 213.799 56.0828C213.799 56.0828 210.384 51.6696 207.014 50.597C203.644 49.5244 196.569 49.8261 194.016 51.3679C191.464 52.8986 190.098 53.9041 190.098 53.9041C190.098 53.9041 189.717 52.5969 188.262 52.3288C186.818 52.0606 184.511 52.5187 183.873 53.3678C183.235 54.2169 182.81 54.7532 182.765 54.865C182.72 54.9767 182.171 53.7924 180.929 53.9041C179.697 54.0158 178.544 54.4404 178.074 54.9432C177.604 55.4459 177.268 55.7141 177.268 55.7141C177.268 55.7141 176.462 54.2169 174.962 54.4851C173.473 54.7532 173.685 54.865 172.577 55.6359C172.577 55.6359 171.256 54.9879 170.36 55.0549C169.464 55.1331 169.162 56.4738 169.162 56.4738C168.905 56.3956 167.584 55.1331 165.501 55.323C163.408 55.513 162.389 58.1274 162.389 58.1274C160.385 58.0939 160.43 57.781 157.317 58.1609C154.205 58.5408 153.947 62.0378 153.477 61.9261C153.007 61.8144 152.067 61.6579 150.701 62.116C149.335 62.5741 149.716 63.8031 148.574 64.0377C147.42 64.2723 137.344 65.2779 137.344 65.2779H147.32C149.033 65.4455 150.712 65.6801 152.503 65.9259C155.313 66.2946 158.179 65.5684 160.777 66.5069C163.497 67.5012 166.173 68.328 169.151 68.4733C171.905 68.6073 174.021 67.289 176.641 66.9426C179.059 66.6298 180.067 68.6185 182.541 68.9537C184.063 69.166 187.545 68.3615 188.06 66.9538C190.277 69.2107 192.135 68.0822 194.766 67.4789C196.412 67.099 196.782 67.5348 198.595 68.4844C200.823 69.6464 202.626 70.2385 205.234 70.3503C210.328 70.5626 214.258 70.1045 218.456 67.423C219.162 66.965 220.214 65.9035 221.076 65.7024C222.072 65.4678 223.785 66.1158 224.916 66.3058C227.368 66.708 228.868 66.194 230.827 65.9259C231.51 65.8253 236.257 66.384 236.75 65.2779H242.874V65.2779Z" fill="#F0F6F7"/>
<path d="M212.293 151.661C212.275 151.643 212.257 151.625 212.24 151.607C212.257 151.607 212.275 151.607 212.275 151.607C212.275 151.625 212.293 151.643 212.293 151.661Z" fill="#FEFEFE"/>
<rect width="443.772" height="26.8398" transform="matrix(1 0 0 -1 127.28 25.2559)" fill="#FBFBFB"/>
<rect x="299.553" y="6.17578" width="31.7031" height="12.8452" rx="3.27963" fill="#EDEBEB"/>
<rect x="333.442" y="6.17578" width="31.7031" height="12.8452" rx="3.27963" fill="#EDEBEB"/>
<rect x="367.332" y="6.17578" width="49.1945" height="12.8452" rx="3.27963" fill="#EDEBEB"/>
<rect x="418.713" y="6.17578" width="33.0696" height="12.8452" rx="3.27963" fill="#939393"/>
<rect x="454.379" y="6.58573" width="36.8958" height="12.0253" rx="2.86968" fill="white" stroke="#3A3A3A" stroke-width="0.819907"/>
<path d="M140.222 8.2736C140.222 8.2736 140.21 8.2736 140.222 8.2736C139.944 8.35835 139.726 8.1041 139.726 7.84985C139.726 7.77721 139.738 7.70456 139.775 7.63192C139.859 7.48664 140.04 7.4261 140.185 7.37767C140.548 7.26871 140.886 7.12343 141.248 7.01446C141.405 6.96603 141.562 6.9176 141.72 7.00235C141.852 7.075 141.937 7.20817 141.949 7.35346C141.985 7.68035 141.635 7.81353 141.381 7.88617C140.995 8.01935 140.608 8.16463 140.222 8.2736Z" fill="#0421B1"/>
<path d="M161.724 8.39469C161.446 8.47944 161.229 8.22519 161.229 7.97094C161.229 7.8983 161.241 7.82566 161.277 7.75302C161.361 7.60773 161.543 7.5472 161.688 7.49877C162.05 7.3898 162.388 7.24452 162.751 7.13556C162.908 7.08713 163.065 7.0387 163.222 7.12345C163.355 7.19609 163.439 7.32927 163.451 7.47455C163.487 7.80144 163.137 7.93462 162.883 8.00726C162.497 8.14044 162.11 8.27362 161.724 8.39469Z" fill="#0421B1"/>
<path d="M135.196 14.2785C135.16 14.678 135.16 15.804 134.773 15.9735C134.278 16.1793 133.964 15.925 133.976 15.5013C134 14.5448 134.109 13.5278 134.29 12.5714C134.471 11.6028 134.604 10.5616 134.846 9.54462C135.088 8.50341 135.486 8.6608 136.368 9.04823C137.057 9.35091 137.322 10.1742 137.298 10.8643C137.286 11.3123 137.274 11.6997 137.081 12.0992C136.984 12.2929 136.742 12.644 136.585 12.8014C136.416 12.9709 136.332 13.0557 136.151 13.2131C135.776 13.5521 135.849 13.3705 136.296 14.2058C136.489 14.5691 136.887 15.1139 136.839 15.5618C136.803 15.925 136.453 16.0098 136.175 15.8887C135.788 15.7555 135.45 14.7507 135.196 14.2785ZM135.728 10.15C135.619 10.7553 135.498 11.6876 135.39 12.2929C136.513 11.8813 136.465 10.3437 135.728 10.15Z" fill="#0421B1"/>
<path d="M140.221 9.93167C140.028 10.4523 139.944 11.1303 139.907 11.663C139.859 12.3531 140.294 11.9414 140.765 12.1473C141.103 12.2926 141.2 12.6316 140.813 12.8737C140.282 13.2127 139.895 12.7284 139.774 13.5033C139.714 13.8665 139.593 14.7745 139.859 15.0409C140.149 15.3314 140.886 14.944 141.164 15.3072C141.804 16.1547 139.545 16.0821 139.207 15.9005C138.373 15.4525 138.579 14.1086 138.639 13.2611C138.711 12.1473 138.905 10.985 139.134 9.87114C139.243 9.31421 139.388 9.07207 139.992 8.97521C140.427 8.91468 141.152 8.80572 141.562 8.92679C141.852 9.01154 142.166 9.35053 141.864 9.67742C141.562 9.9801 140.62 9.82271 140.221 9.93167Z" fill="#0421B1"/>
<path d="M144.582 11.8208C144.896 11.845 145.392 11.8329 145.524 12.1114C145.706 12.4867 145.21 12.6441 144.884 12.6925C144.63 12.7409 144.449 12.6441 144.389 12.7409C144.316 12.8741 144.292 13.3221 144.28 13.4431C144.22 13.9274 144.159 14.3996 144.123 14.8839C144.099 15.2471 144.196 15.804 143.712 15.9856C142.468 16.4457 143.048 13.9516 143.108 13.5037C143.229 12.5593 143.374 11.615 143.543 10.6827C143.616 10.2832 143.652 9.85945 143.749 9.47203C143.821 9.16935 144.014 8.96353 144.377 8.903C144.92 8.81825 145.597 8.86667 146.104 8.92721C146.418 8.96353 146.938 9.04828 146.865 9.43571C146.757 9.91999 146.044 9.81103 145.694 9.79892C145.198 9.78681 144.993 9.75049 144.86 10.2348C144.715 10.7675 144.63 11.3123 144.582 11.8208Z" fill="#0421B1"/>
<path d="M148.822 14.4117C149.1 14.5328 149.354 14.448 149.523 13.5884C149.656 12.9104 149.922 10.8885 150.055 10.2105C150.139 9.77468 150.139 9.09669 150.586 8.9514C150.876 8.85455 151.251 9.13301 151.287 9.42358C151.335 9.811 151.081 11.4455 151.009 11.8692C150.924 12.414 150.719 13.6611 150.574 14.2059C150.369 15.0292 149.704 16.0583 148.774 16.0583C146.998 16.0583 147.506 11.1549 147.844 9.87154C147.929 9.54465 148.025 9.01194 148.376 8.90297C148.75 8.79401 148.992 9.16933 148.992 9.52043C148.979 10.6585 148.315 14.1938 148.822 14.4117Z" fill="#0421B1"/>
<path d="M153.872 14.8596C154.186 14.8111 154.452 14.3632 154.572 14.0847C154.621 13.9636 154.669 13.8426 154.669 13.7094C154.669 13.5278 154.572 13.3946 154.391 13.3341C154.283 13.2977 154.15 13.2856 154.065 13.2009C153.932 13.0798 153.932 12.8619 154.029 12.7166C154.126 12.5713 154.295 12.4866 154.464 12.4381C154.814 12.3292 155.201 12.3534 155.539 12.4866C155.744 12.5713 155.95 12.7045 156.034 12.9103C156.107 13.0798 156.082 13.2856 156.046 13.4672C155.913 14.2179 155.611 14.9564 155.032 15.4649C154.452 15.9734 153.582 16.155 152.918 15.7797C151.371 14.908 152.326 12.535 152.869 11.3485C153.207 10.5979 153.691 9.90776 154.331 9.38715C154.621 9.14501 154.959 8.9513 155.346 8.89076C155.672 8.84234 156.034 8.90287 156.3 9.10869C156.409 9.19344 156.493 9.31451 156.481 9.44769C156.457 9.59298 156.3 9.67772 156.155 9.73826C155.925 9.82301 155.696 9.89565 155.478 10.0046C154.947 10.2589 154.536 10.7189 154.222 11.2274C153.908 11.7359 153.679 12.2323 153.473 12.7771C153.377 13.0435 153.292 13.3704 153.244 13.661C153.183 14.0121 153.207 14.4479 153.485 14.7143C153.63 14.8353 153.751 14.8717 153.872 14.8596Z" fill="#0421B1"/>
<path d="M158.148 15.5866C158.064 15.8893 157.895 16.1314 157.484 16.0588C157.025 15.9619 157.037 15.4655 157.097 15.1023C157.315 13.7947 157.556 12.4872 157.786 11.1796C157.846 10.8648 157.931 10.429 158.16 10.1868C158.45 9.88416 159.006 10.09 159.054 10.4895C159.103 10.8406 158.933 11.2886 158.861 11.6397C158.776 12.0998 158.692 12.5598 158.607 13.032C158.486 13.6858 158.366 14.3517 158.245 15.0054C158.233 15.1749 158.209 15.3929 158.148 15.5866Z" fill="#0421B1"/>
<path d="M165.855 13.5156C165.855 13.4914 165.855 13.4672 165.855 13.4429C165.855 13.0313 165.565 12.6802 165.324 12.3654C165.022 11.9659 164.865 11.5663 164.961 11.0579C165.034 10.6825 165.227 10.3435 165.444 10.0409C165.831 9.49604 166.35 9.02386 167.027 8.92701C167.365 8.87858 168.319 8.78172 168.126 9.39918C168.03 9.68975 167.679 9.76239 167.45 9.88347C167.124 10.0651 166.809 10.2709 166.556 10.5372C166.254 10.8762 166.061 11.3605 166.193 11.7964C166.326 12.2565 166.737 12.5349 166.954 12.9466C167.184 13.3945 167.111 13.9393 166.894 14.3752C166.701 14.7626 166.399 15.0895 166.085 15.3922C165.565 15.8765 164.635 16.2397 163.922 16.0581C163.741 16.0096 163.584 15.8765 163.56 15.6949C163.548 15.5375 163.632 15.3922 163.753 15.2953C163.874 15.1985 164.019 15.15 164.164 15.0895C164.575 14.9321 164.973 14.7505 165.299 14.4599C165.577 14.242 165.819 13.8788 165.855 13.5156Z" fill="#0421B1"/>
<path d="M161.736 9.98109C161.555 10.5017 161.47 11.1676 161.434 11.7003C161.385 12.3904 161.808 11.9788 162.267 12.1846C162.606 12.3299 162.69 12.6568 162.316 12.8989C161.796 13.2379 161.422 12.7536 161.301 13.5285C161.241 13.8917 161.12 14.7876 161.373 15.0661C161.651 15.3566 162.376 14.9692 162.642 15.3324C163.27 16.1799 161.059 16.1073 160.733 15.9257C159.924 15.4777 160.129 14.1459 160.177 13.2984C160.238 12.1846 160.431 11.0344 160.661 9.92055C160.769 9.37574 160.914 9.12149 161.506 9.03674C161.941 8.9762 162.642 8.86724 163.04 8.98831C163.33 9.07306 163.632 9.41206 163.33 9.73895C163.04 10.0295 162.122 9.88423 161.736 9.98109Z" fill="#0421B1"/>
<path d="M159.102 9.53301C158.873 9.61776 158.595 9.59355 158.414 9.43616C157.979 9.02451 158.317 8.28598 158.933 8.41916C159.247 8.4918 159.489 8.81869 159.441 9.14559C159.416 9.3393 159.272 9.47248 159.102 9.53301Z" fill="#0421B1"/>
<path d="M182.791 11.5665C183.105 11.5907 183.625 11.5786 183.77 11.8813C183.951 12.2808 183.443 12.4382 183.105 12.4987C182.851 12.5472 182.658 12.4382 182.598 12.5593C182.525 12.6924 182.501 13.1646 182.477 13.2978C182.417 13.8063 182.344 14.3027 182.32 14.8112C182.296 15.1865 182.392 15.7797 181.897 15.9735C180.617 16.4577 181.221 13.8426 181.269 13.3704C181.39 12.3777 181.535 11.3849 181.716 10.4042C181.788 9.98046 181.837 9.5446 181.933 9.13296C182.006 8.80607 182.211 8.58814 182.586 8.53971C183.141 8.45497 183.842 8.50339 184.374 8.56393C184.7 8.60025 185.243 8.69711 185.159 9.09664C185.05 9.60514 184.313 9.48407 183.951 9.48407C183.443 9.47196 183.226 9.43564 183.093 9.93203C182.924 10.4526 182.839 11.0217 182.791 11.5665Z" fill="#E8140F"/>
<path d="M176.763 12.8857C176.642 13.261 176.618 13.7211 176.546 14.1206C176.473 14.5202 176.401 14.9076 176.328 15.3071C176.268 15.6824 175.942 16.203 175.458 15.9609C174.794 15.6461 175.325 14.2296 175.422 13.6606C175.591 12.6678 175.809 11.6992 176.074 10.7307C176.231 10.1495 176.642 9.4473 177.029 10.089C177.27 10.4885 177.476 10.9244 177.645 11.3602C177.814 11.8082 177.935 12.3046 178.092 12.7525C178.092 12.7404 178.225 12.0624 178.225 12.0261C178.321 11.4813 178.345 11.3965 178.418 10.8638C178.49 10.3311 178.587 9.81051 178.696 9.28991C178.756 8.98723 178.841 8.52716 179.203 8.47873C179.433 8.45452 179.638 8.63613 179.71 8.85405C179.783 9.07198 179.747 9.31412 179.723 9.53205C179.505 11.1302 179.276 12.7404 178.998 14.3265C178.949 14.5686 178.913 14.8471 178.732 15.0166C178.08 15.6703 177.101 13.6 176.896 13.1763C176.848 13.0915 176.799 12.9826 176.763 12.8857Z" fill="#E8140F"/>
<path d="M189.833 11.4572C189.664 12.3652 189.495 13.2733 189.145 14.1087C188.879 14.7382 188.347 15.7068 187.611 15.9126C185.666 16.4453 185.557 13.7939 185.69 12.5953C185.787 11.7478 185.98 10.8398 186.282 10.0044C186.62 9.07212 187.031 8.64837 187.997 8.50309C188.662 8.39412 189.338 8.62416 189.7 9.13265C190.027 9.59272 189.978 10.2344 189.93 10.7792C189.906 10.9971 189.882 11.2272 189.833 11.4572ZM187.188 14.5445C187.647 14.7745 188.263 13.1401 188.444 11.9778C188.529 11.4209 188.951 9.76222 188.239 9.59272C187.055 9.29005 186.584 14.484 187.188 14.5445Z" fill="#E8140F"/>
<path d="M172.97 15.5124C172.873 15.8272 172.704 16.0814 172.281 15.9967C171.81 15.8998 171.81 15.3792 171.883 14.9918C172.112 13.6237 172.354 12.2677 172.608 10.8996C172.668 10.5727 172.753 10.1126 172.994 9.87049C173.296 9.5557 173.864 9.77363 173.924 10.1853C173.973 10.5485 173.791 11.0207 173.731 11.3839C173.646 11.8682 173.562 12.3524 173.465 12.8246C173.344 13.5147 173.212 14.1927 173.091 14.8828C173.054 15.0765 173.03 15.3066 172.97 15.5124Z" fill="#E8140F"/>
<path d="M173.96 9.20517C173.731 9.30203 173.429 9.2657 173.248 9.10831C172.789 8.68456 173.151 7.90971 173.779 8.055C174.105 8.12764 174.359 8.46664 174.311 8.80564C174.287 8.99935 174.142 9.13253 173.96 9.20517Z" fill="#E8140F"/>
<path d="M169.745 15.9243C169.455 16.0333 169.092 15.997 168.875 15.8033C168.319 15.2827 168.754 14.3383 169.527 14.5199C169.926 14.6047 170.24 15.0284 170.167 15.4401C170.131 15.6822 169.962 15.8396 169.745 15.9243Z" fill="#E8140F"/>
<rect opacity="0.3" x="127.28" y="25.2559" width="443.772" height="255.893" fill="black"/>
<rect x="291.673" y="66.4307" width="115.289" height="7.92995" fill="white"/>
<rect x="254.159" y="88.085" width="190.014" height="5.18494" fill="white"/>
<rect x="179.739" y="163.725" width="78.3844" height="14.9449" rx="2.73303" fill="#564394"/>
<rect x="186.144" y="169.825" width="65.2695" height="2.74496" fill="white"/>
<rect x="204.749" y="182.939" width="49.1046" height="14.9449" rx="2.73303" fill="#D64B71"/>
<rect x="208.761" y="189.04" width="40.8887" height="2.74496" fill="white"/>
<rect x="177.299" y="202.154" width="74.1144" height="14.9449" rx="2.73303" fill="#A81E63"/>
<rect x="183.355" y="208.255" width="61.714" height="2.745" fill="white"/>
<rect x="264.833" y="163.725" width="68.0145" height="14.9449" rx="2.73303" fill="#5A483C"/>
<rect x="270.391" y="169.825" width="56.6346" height="2.74496" fill="white"/>
<rect x="258.124" y="182.939" width="75.6394" height="14.9449" rx="2.73303" fill="#137F3A"/>
<rect x="264.304" y="189.04" width="62.9838" height="2.74496" fill="white"/>
<rect x="257.819" y="202.154" width="89.9743" height="14.9449" rx="2.73303" fill="#C159D8"/>
<rect x="265.171" y="208.255" width="74.9202" height="2.745" fill="white"/>
<rect x="339.558" y="163.725" width="42.0897" height="14.9449" rx="2.73303" fill="#1E9ED1"/>
<rect x="342.997" y="169.825" width="35.0475" height="2.74496" fill="white"/>
<rect x="327.053" y="221.369" width="42.0897" height="14.9449" rx="2.73303" fill="white"/>
<rect x="330.492" y="227.47" width="35.0475" height="2.74501" fill="#5E5E5E"/>
<rect x="284.963" y="132.615" width="128.404" height="24.0948" rx="2.73303" fill="#EDEBEB"/>
<rect x="295.333" y="142.681" width="29.2798" height="4.57495" fill="#5E5E5E"/>
<rect x="332.543" y="135.971" width="77.7744" height="17.6899" rx="2.73303" fill="#C6C6C6"/>
<rect x="338.898" y="143.19" width="64.7616" height="3.24918" fill="white"/>
<rect x="338.033" y="182.939" width="68.9295" height="14.9449" rx="2.73303" fill="#47AA0A"/>
<rect x="343.665" y="189.04" width="57.3965" height="2.74496" fill="white"/>
<rect x="354.198" y="202.154" width="73.5044" height="14.9449" rx="2.73303" fill="#C54126"/>
<rect x="360.204" y="208.255" width="61.206" height="2.745" fill="white"/>
<rect x="388.358" y="163.725" width="53.0696" height="14.9449" rx="2.73303" fill="#F97319"/>
<rect x="392.694" y="169.825" width="44.1903" height="2.74496" fill="white"/>
<rect x="411.232" y="182.939" width="78.0794" height="14.9449" rx="2.73303" fill="#0A54BF"/>
<rect x="417.612" y="189.04" width="65.0156" height="2.74496" fill="white"/>
<rect x="434.107" y="202.154" width="81.7394" height="14.9449" rx="2.73303" fill="#212121"/>
<rect x="440.786" y="208.255" width="68.0631" height="2.745" fill="white"/>
<rect x="448.137" y="163.725" width="65.5745" height="14.9449" rx="2.73303" fill="#187F73"/>
<rect x="453.496" y="169.825" width="54.6028" height="2.74496" fill="white"/>
</g>
<path d="M599.317 53.9521C600.333 58.4381 602.788 66.9019 602.873 69.7788C603.125 81.3714 597.117 87.0438 585.35 97.198L578.745 93.728C587.72 80.5262 593.053 69.1002 594.829 56.0691L599.317 53.9521Z" fill="#26B759"/>
<path d="M609.222 50.6533C606.767 51.7545 604.482 51.9211 602.279 51.3319C602.027 51.2466 601.349 51.9251 601.349 52.2624C601.178 59.3732 598.048 72.4043 591.78 91.445H619.38C618.026 74.0946 615.827 61.1448 609.222 50.6533Z" fill="#E0E0E0"/>
<path d="M595.93 90.5957L580.606 163.886H586.955L598.129 132.826L614.132 90.5957H595.93Z" fill="#095411"/>
<path d="M618.026 90.5137H596.438C600.332 104.394 607.868 127.583 609.393 130.119C610.409 131.813 620.737 139.005 640.293 151.614L643.594 146.027C627.087 132.91 618.705 126.056 618.449 125.462C618.112 124.617 618.197 105.068 618.026 90.5949V90.5137Z" fill="#137F3A"/>
<path d="M649.496 149.912L647.374 152.439L646.854 152.004L644.598 155.746L636.489 165.405L635.452 164.535C637.777 159.525 639.062 154.966 639.432 150.972L643.895 145.657L649.431 149.859L649.496 149.912Z" fill="#095411"/>
<path d="M587.549 169.98H584.248V169.302L579.931 169.98H567.318V168.627C572.651 167.189 576.968 165.243 580.273 162.959H587.215L587.553 169.899V169.98H587.549Z" fill="#095411"/>
<path d="M602.365 27.4639H603.044C606.938 27.4639 610.157 30.5967 610.157 34.5747V41.5148C610.157 45.2368 607.365 48.199 603.808 48.6256C603.808 48.711 603.808 48.711 603.808 48.711H594.158C592.634 47.2725 594.073 37.7928 595.26 33.5629C595.76 30.17 598.723 27.4639 602.365 27.4639Z" fill="#7A380C"/>
<path d="M609.051 53.0218H601.092L602.446 43.4567C600.328 44.8098 598.214 45.403 597.198 45.1511C594.743 44.5579 594.491 35.4195 596.438 31.8641C598.3 28.3087 608.206 26.7036 608.714 33.8104C608.884 36.2646 607.868 38.467 606.344 40.2426L609.051 53.0218Z" fill="#AC5419"/>
<path d="M606.174 37.1962C606.174 36.1803 605.328 35.3352 604.312 35.3352C603.804 35.3352 603.466 35.5058 603.125 35.7577C600.499 34.1487 597.455 33.7261 596.69 31.1012C597.707 29.5774 598.975 27.8018 602.788 27.8018C605.328 27.8018 607.446 29.4962 609.137 32.8809V33.1328C609.474 33.4701 609.73 33.7261 610.068 34.0633C610.068 42.8645 615.23 39.2237 614.726 48.5369H605.076C603.975 47.521 603.889 43.0351 604.231 39.0572C605.328 39.0572 606.174 38.212 606.174 37.1962Z" fill="#7A380C"/>
<mask id="mask1" mask-type="alpha" maskUnits="userSpaceOnUse" x="473" y="43" width="123" height="97">
<path d="M473.206 139.203L501.659 43.3086H595.149V139.203H473.206Z" fill="#C4C4C4"/>
</mask>
<g mask="url(#mask1)">
<path d="M602.106 78.1064H158.334V204.985H602.106V78.1064Z" fill="#C9ECF4"/>
<path d="M595.091 118.448C595.091 118.448 589.209 117.856 585.403 117.423C584.409 116.96 582.938 116.715 581.555 116.556C581.122 116.022 581.021 115.213 579.926 114.838C578.369 114.318 577.316 114.491 576.783 114.621C576.25 114.751 575.961 110.766 572.43 110.333C568.898 109.9 568.941 110.246 566.663 110.29C566.663 110.29 565.496 107.315 563.132 107.099C560.768 106.882 559.254 108.326 558.966 108.413C558.966 108.413 558.62 106.882 557.611 106.796C556.587 106.709 555.088 107.445 555.088 107.445C553.834 106.564 554.064 106.435 552.378 106.131C550.677 105.828 549.769 107.532 549.769 107.532C549.769 107.532 549.379 107.229 548.846 106.651C548.313 106.088 547.001 105.597 545.603 105.467C544.204 105.337 543.57 106.694 543.512 106.564C543.469 106.435 542.979 105.814 542.258 104.861C541.537 103.893 538.914 103.373 537.27 103.677C535.627 103.98 535.195 105.467 535.195 105.467C535.195 105.467 533.638 104.326 530.74 102.579C527.828 100.832 519.799 100.486 515.964 101.699C512.144 102.926 508.267 107.951 508.267 107.951C508.267 107.951 507.2 107.2 506.623 106.853C506.047 106.507 504.922 105.886 503.279 106.94C501.636 107.994 501.145 109.914 501.145 109.914C501.145 109.914 499.401 109.077 498.378 108.99C497.354 108.904 496.388 109.12 495.134 109.958C493.88 110.795 493.779 113.596 493.779 113.596C493.203 113.033 491.502 112.542 490.435 113.12C489.368 113.683 488.604 116.195 488.604 116.195C485.548 116.989 475.227 118.433 475.227 118.433H481.497C483.487 118.722 485.534 119.04 487.566 119.314C489.757 119.617 491.631 119.184 493.722 119.17C495.307 119.155 496.605 119.632 498.45 119.805C502.14 120.166 505.931 120.628 509.665 120.469C511.712 120.382 513.009 119.603 514.84 119.213C516.498 118.866 517.19 119.213 519.165 119.588C521.803 120.094 524.484 120.036 527.194 120.036C528.318 120.036 529.501 120.137 530.611 119.993C531.389 119.892 531.548 119.155 532.499 119.199C534.243 119.256 535.641 121.595 537.66 119.805C539.029 120.845 540.009 119.733 541.163 119.646C544.348 119.401 547.794 120.455 551.052 120.484C553.848 120.512 556.414 120.426 559.11 119.877C560.724 119.545 562.613 118.592 564.227 118.505C566.404 118.375 569.474 119.545 571.954 119.617C574.102 119.675 576.149 119.574 578.268 119.227C580.055 118.939 582.001 118.794 583.789 118.462H595.091V118.448Z" fill="#F0F6F7"/>
<rect width="443.772" height="26.8398" transform="matrix(1 0 0 -1 158.334 78.1064)" fill="#FBFBFB"/>
<rect x="449.767" y="59.0264" width="33.0696" height="12.8452" rx="3.27963" fill="#939393"/>
<rect x="485.433" y="59.4363" width="36.8958" height="12.0253" rx="2.86968" fill="white" stroke="#3A3A3A" stroke-width="0.819907"/>
<rect x="524.926" y="59.0264" width="37.7157" height="12.8452" rx="3.27963" fill="#939393"/>
</g>
<path d="M579.423 59.3679L568.249 52.8504C566.725 52.765 565.115 52.5984 563.676 52.2571C562.831 52.0052 561.221 51.6639 561.051 50.7334C560.88 50.2255 561.221 49.9735 561.644 49.4656C561.896 49.295 562.237 49.1284 562.323 48.787C562.408 48.3645 562.494 48.2791 562.831 48.0272C562.916 48.0272 563.254 47.6046 563.339 47.434C563.762 46.8407 565.115 47.2633 565.457 47.3486C566.81 47.7712 567.575 48.1938 568.672 49.043L582.98 53.3583L579.423 59.3679Z" fill="#AC5419"/>
<path d="M606.937 50.7377C608.799 50.6523 610.238 50.6523 611.339 50.7377C612.441 50.7377 612.864 51.4975 613.116 51.9242C618.786 62.9276 624.969 84.6745 622.599 100.33C617.266 100.33 612.441 100.33 607.868 100.33C598.385 100.33 598.133 85.1824 602.45 66.7309C592.544 67.5761 581.199 61.9931 570.025 54.7969L571.464 47.5195C586.195 52.2574 599.064 50.8189 606.937 50.7377C606.937 50.6523 606.937 50.6523 606.937 50.7377Z" fill="#4FD875"/>
<path d="M55.9114 174.245C58.0413 172.77 60.9923 171.868 63.3702 170.885C65.9107 169.82 68.4512 168.837 70.9958 167.853C72.8005 167.114 73.8655 164.903 75.6703 164.331C76.41 164.083 77.475 163.347 77.1458 164.493C76.8165 165.724 76.4913 165.724 77.6376 165.968C78.7839 166.216 83.8689 165.066 85.4257 165.476C86.4094 165.724 80.2594 168.426 73.9468 169.983L65.8294 176.293C62.6345 175.72 58.9478 175.395 55.9114 174.245Z" fill="#AC5419"/>
<path d="M28.5306 180.966C42.3021 180.064 54.6834 175.391 69.1947 167.033L72.3083 174.164C60.8294 185.639 50.4195 194.241 38.3674 193.014C35.3351 192.685 30.5793 186.866 25.9048 185.391L28.5306 180.966Z" fill="#073099"/>
<path d="M26.6447 161.462C24.84 160.068 23.4458 158.102 23.2019 155.725C22.3808 148.842 32.055 148.594 34.5995 151.629C37.14 154.66 38.5342 163.348 36.2376 164.416C35.3352 164.827 33.2053 164.664 30.9087 163.762L33.941 172.612L26.3968 174.087L26.6447 161.462Z" fill="#AC5419"/>
<path d="M26.3153 163.099C24.5919 159.085 21.3157 156.707 21.3157 154.741C21.3157 153.428 21.9701 152.526 23.0391 151.953C23.2017 149.333 25.0065 147.858 28.4494 147.61C33.6157 147.199 37.0586 148.756 36.648 153.591C35.4164 153.839 33.8596 153.672 31.9735 154.822C31.4004 155.151 31.0711 156.053 30.9898 157.362L30.0875 157.524C28.9412 156.212 27.9575 155.801 27.1364 156.378C26.3154 156.951 26.3153 157.935 27.0551 159.328L27.3031 162.932L26.3153 163.099Z" fill="#49220A"/>
<path d="M21.2344 215.466L35.0058 263.738L45.0093 299.223H52.3868L41.729 215.466H21.2344Z" fill="#5EA5EF"/>
<path d="M17.5434 215.466C17.2142 240.297 16.1492 253.901 15.82 256.115C15.4907 258.411 10.4098 272.75 0.654297 299.223H8.19852C20.6611 273.819 27.5469 259.476 29.0224 256.115C30.4979 252.755 34.9244 239.232 41.6476 215.466H17.5434Z" fill="#7CC1EF"/>
<path d="M0 306.027L0.410543 298.079H8.36125C12.1334 300.7 17.0517 302.914 23.1164 304.552V306.027H8.76773L3.84934 305.287V306.027H0Z" fill="#073099"/>
<path d="M44.0259 306.027L44.4364 298.079H52.3871C56.1592 300.7 61.0776 302.914 67.1423 304.552V306.027H52.7123L47.7939 305.287V306.027H44.0259Z" fill="#073099"/>
<path d="M16.8076 215.634H45.6675C39.107 195.72 35.7495 181.949 35.6641 174.574C35.6641 174.164 34.9243 173.51 34.6804 173.591C32.3838 174.245 30.006 174.001 27.3842 172.852C20.5757 183.916 18.2018 197.439 16.8076 215.634Z" fill="#E0E0E0"/>
<mask id="mask2" mask-type="alpha" maskUnits="userSpaceOnUse" x="37" y="126" width="130" height="97">
<path d="M154.462 126.751L48.7774 153.569L37.396 222.645H102.026H166.656L154.462 126.751Z" fill="#C4C4C4"/>
</mask>
<g mask="url(#mask2)">
<path d="M474.403 108.537H30.6318V237.551H474.403V108.537Z" fill="#B1E869"/>
<rect x="83.0916" y="120.127" width="78.3844" height="14.9449" rx="2.73303" fill="#564394"/>
<rect x="89.4966" y="126.228" width="65.2695" height="2.74496" fill="white"/>
<rect x="108.101" y="139.342" width="49.1046" height="14.9449" rx="2.73303" fill="#D64B71"/>
<rect x="112.114" y="145.442" width="40.8887" height="2.74496" fill="white"/>
<rect x="80.6516" y="158.557" width="74.1144" height="14.9449" rx="2.73303" fill="#A81E63"/>
<rect x="86.7075" y="164.657" width="61.714" height="2.745" fill="white"/>
<rect x="161.476" y="139.342" width="75.6394" height="14.9449" rx="2.73303" fill="#137F3A"/>
<rect x="161.171" y="158.557" width="89.9743" height="14.9449" rx="2.73303" fill="#C159D8"/>
</g>
<path d="M59.5072 165.299L68.6146 156.04C73.5784 154.467 75.762 153.385 75.341 152.754C74.675 151.796 73.3364 152.612 72.8189 152.038C72.2194 151.441 73.1634 149.323 74.1401 147.387C75.1167 145.451 73.9579 145.633 73.3738 145.889C71.3166 147.434 69.2582 149.579 67.2008 152.315L54.4987 160.127L59.5072 165.299Z" fill="#AC5419"/>
<path d="M30.5789 166.951C32.6276 166.212 34.8429 165.887 36.9728 165.314C40.2531 164.493 43.448 162.364 46.3177 160.641C47.8745 159.658 61.5647 150.235 62.0565 150.727L69.1089 157.447C59.1909 168.593 47.9558 177.362 36.481 187.853C36.7289 207.438 39.0215 224.813 29.0221 224.813C24.2663 224.813 19.104 224.813 13.6085 224.813C11.3932 209.815 15.3319 193.343 21.0673 179.491C21.7218 178.016 22.299 176.541 22.9534 174.985C24.0997 172.364 25.6605 169.82 28.1197 168.183C28.8595 167.691 29.7578 167.281 30.5789 166.951Z" fill="#0A54BF"/>
<path d="M288.656 246.91C284.01 246.825 277.758 245.899 271.084 241.673L268.466 247.5C273.027 252.059 279.449 255.777 285.111 255.606C289.587 255.439 291.867 250.12 288.656 246.91Z" fill="#A396C4"/>
<path d="M303.61 280.354L289.587 328.749L282.998 365.152H276.323L282.916 280.354H303.61V280.354Z" fill="#E8A16D"/>
<path d="M309.946 280.354C308.934 305.523 309.353 319.208 309.609 321.573C309.861 323.852 311.044 339.138 319.58 365.997H312.649C301.41 340.321 297.443 324.949 296.175 321.573C294.907 318.196 291.106 304.511 285.529 280.354H309.946V280.354Z" fill="#E8A16D"/>
<path d="M303.947 280.354C300.313 296.994 293.976 323.596 284.936 360.17H275.221C274.546 322.67 277.587 298.006 282.826 280.354H303.947V280.354Z" fill="#564394"/>
<path d="M310.032 280.354C309.101 305.523 311.552 330.272 319.243 360.593H308.849C297.61 335.254 289.501 310.594 284.009 280.354H310.032Z" fill="#3D2884"/>
<path d="M320.507 370.898L320.084 364.733C317.889 365.408 315.101 365.156 311.719 363.974C308.085 366.509 303.524 368.281 298.114 369.211C297.692 369.297 297.439 369.719 297.521 370.056V370.142L298.029 371.999H311.715H319.743L320.507 370.898Z" fill="#564394"/>
<path d="M284.432 370.898L284.009 364.733C281.814 365.408 279.022 365.156 275.644 363.974C272.01 366.509 267.449 368.281 262.043 369.211C261.62 369.297 261.368 369.719 261.45 370.056V370.142L261.958 371.999H275.644H283.672L284.432 370.898Z" fill="#564394"/>
<path d="M295.919 223.262C297.695 221.149 298.878 218.617 298.707 215.83C298.118 207.638 286.708 209.41 284.428 213.55C282.233 217.691 282.485 228.247 285.359 228.922C286.542 229.174 288.907 228.499 291.444 226.98L289.923 238.044H299.134L295.919 223.262Z" fill="#E8A16D"/>
<path d="M293.049 218.784C293.387 218.613 293.724 218.447 294.061 218.447C295.159 218.447 296.004 219.377 296.004 220.389C296.004 221.401 295.496 222.165 294.822 222.502C295.159 223.176 295.582 223.77 296.004 223.855C297.695 223.684 299.805 219.548 299.805 216.167C299.805 212.449 296.846 209.243 291.354 209.243C286.452 209.243 284.509 211.271 284.428 213.042C286.542 213.636 290.257 213.888 295.582 213.802V214.225L290.936 214.647L290.176 216.927C291.529 216.842 292.371 217.687 293.049 218.784Z" fill="#FFCAA7"/>
<mask id="mask3" mask-type="alpha" maskUnits="userSpaceOnUse" x="188" y="197" width="86" height="113">
<path d="M200.737 293.416L188.543 197.521L273.09 212.962V309.669L200.737 293.416Z" fill="#C4C4C4"/>
</mask>
<g mask="url(#mask3)">
<path d="M507.782 174.722H64.0103V303.736H507.782V174.722Z" fill="#B1E869"/>
<rect x="116.47" y="186.312" width="78.3844" height="14.9449" rx="2.73303" fill="#564394"/>
<rect x="141.48" y="205.526" width="49.1046" height="14.9449" rx="2.73303" fill="#D64B71"/>
<rect x="201.564" y="186.312" width="68.0145" height="14.9449" rx="2.73303" fill="#5A483C"/>
<rect x="194.854" y="205.526" width="75.6394" height="14.9449" rx="2.73303" fill="#137F3A"/>
<rect x="201.035" y="211.627" width="62.9838" height="2.74496" fill="white"/>
<rect x="194.549" y="224.741" width="89.9743" height="14.9449" rx="2.73303" fill="#C159D8"/>
<rect x="201.902" y="230.842" width="74.9202" height="2.745" fill="white"/>
<rect x="263.784" y="243.957" width="42.0897" height="14.9449" rx="2.73303" fill="white"/>
<rect x="267.223" y="250.057" width="35.0475" height="2.74501" fill="#5E5E5E"/>
</g>
<path d="M261.617 260.511C259.08 258.654 256.715 257.472 254.605 256.878C250.463 255.696 248.776 254.851 246.748 252.234C245.65 250.881 244.72 248.093 245.736 247.167C246.411 246.574 250.467 249.532 252.158 249.954C253.849 250.292 252.329 246.322 253.17 246.744C254.353 246.744 255.284 248.349 256.129 251.474L261.958 254.684L261.617 260.511Z" fill="#E8A16D"/>
<path d="M282.993 256.205C278.01 257.473 269.73 255.953 258.068 251.812C255.194 257.81 253.845 262.032 254.097 264.648C264.068 269.886 272.685 272.166 279.782 272.336C279.53 276.558 280.034 280.528 281.811 284.161C285.359 291.678 305.976 284.75 312.902 286.103C317.211 271.999 308.845 266.253 308.845 257.217C308.845 247.335 300.903 232.134 299.72 232.134H289.074C288.404 239.651 285.444 248.009 282.993 256.205Z" fill="#BCB1D4"/>
<path d="M557.901 244.304C553.215 245.418 547.256 243.431 542.646 240.412L543.837 235.093C550.113 237.474 555.434 237.238 559.328 236.442C562.511 238.587 561.556 243.431 557.901 244.304Z" fill="#055E5A"/>
<path d="M595.005 296.799C586.188 299.262 578.559 300.533 572.205 300.533C565.848 300.533 559.893 298.628 554.41 294.816C563.068 292.277 570.141 291.005 575.701 291.005C581.262 291.005 587.692 292.911 595.005 296.799Z" fill="#27A8A5"/>
<path d="M564.575 304.028C564.656 303.869 564.734 303.788 564.815 303.629C566.006 300.533 584.834 266.938 586.74 260.745H565.53C564.1 265.43 557.665 294.735 556.791 300.533C553.929 309.745 548.052 339.606 547.336 341.67C546.544 343.816 550.991 346.119 552.182 343.417C554.088 339.131 558.539 327.375 560.523 320.147C562.27 313.556 563.782 307.441 564.575 304.028Z" fill="#FFCAA7"/>
<path d="M581.896 308.156C590.554 310.301 622.097 314.271 624.239 314.905C626.462 315.539 628.45 310.935 625.669 309.98C621.3 308.392 609.223 304.739 601.915 303.231C596.037 302.041 590.635 301.086 587.058 300.452C587.375 290.285 588.725 265.987 587.851 260.745H569.023C569.897 265.747 577.286 302.516 578.713 306.169C579.193 307.522 580.465 308.079 581.896 308.156Z" fill="#FFCAA7"/>
<path d="M625.478 308.687C626.645 308.48 627.449 308.419 628.018 308.48C628.685 308.601 629.616 308.845 630.823 309.276C630.713 310.02 629.498 316.846 627.242 329.666C625.421 329.905 624.535 329.418 624.572 328.28C624.62 327.142 624.681 326.163 624.706 325.354L622.177 315.156C622.137 314.92 622.263 314.737 622.417 314.709L623.974 314.355C624.681 313.343 625.023 312.555 625.149 311.889C625.222 311.393 625.165 310.597 624.893 309.516C624.84 309.203 625.08 308.756 625.478 308.687Z" fill="#055E5A"/>
<path d="M553.373 343.176C553.771 344.29 554.007 345.082 554.007 345.639C554.007 346.273 553.926 347.305 553.69 348.577C552.898 348.577 545.983 348.577 532.956 348.577C532.399 346.829 532.716 345.797 533.911 345.72C535.102 345.562 536.057 345.48 536.773 345.322L546.386 341.031C546.544 340.95 546.784 341.031 546.861 341.189L547.495 342.697C548.609 343.172 549.483 343.412 550.117 343.412C550.674 343.412 551.389 343.172 552.341 342.778C552.739 342.543 553.215 342.778 553.373 343.176C553.373 343.176 553.373 343.095 553.373 343.176Z" fill="#055E5A"/>
<path d="M587.773 260.745C579.509 258.364 571.644 258.364 564.258 260.745C561.718 272.5 555.442 277.104 554.328 295.133C566.803 301.325 582.212 290.687 595.081 296.721C598.817 288.302 593.651 267.892 587.773 260.745Z" fill="#4FD3BC"/>
<mask id="mask4" mask-type="alpha" maskUnits="userSpaceOnUse" x="404" y="158" width="151" height="173">
<path d="M554.417 158.439H432.474L404.021 330.724H554.417V158.439Z" fill="#C4C4C4"/>
</mask>
<g mask="url(#mask4)">
<path d="M594.309 40.25H150.537V167.129H594.309V40.25Z" fill="#C9ECF4"/>
<path d="M594.309 167.129H150.537V296.143H594.309V167.129Z" fill="#B1E869"/>
<rect x="362.816" y="178.719" width="42.0897" height="14.9449" rx="2.73303" fill="#1E9ED1"/>
<rect x="308.221" y="147.609" width="128.404" height="24.0948" rx="2.73303" fill="#EDEBEB"/>
<rect x="355.801" y="150.965" width="77.7744" height="17.6899" rx="2.73303" fill="#C6C6C6"/>
<rect x="362.156" y="158.185" width="64.7616" height="3.24918" fill="white"/>
<rect x="361.291" y="197.934" width="68.9295" height="14.9449" rx="2.73303" fill="#47AA0A"/>
<rect x="366.923" y="204.034" width="57.3965" height="2.74496" fill="white"/>
<rect x="377.456" y="217.148" width="73.5044" height="14.9449" rx="2.73303" fill="#C54126"/>
<rect x="383.462" y="223.249" width="61.206" height="2.745" fill="white"/>
<rect x="411.615" y="178.719" width="53.0696" height="14.9449" rx="2.73303" fill="#F97319"/>
<rect x="415.952" y="184.819" width="44.1903" height="2.74496" fill="white"/>
<rect x="434.49" y="197.934" width="78.0793" height="14.9449" rx="2.73303" fill="#0A54BF"/>
<rect x="440.87" y="204.034" width="65.0156" height="2.74496" fill="white"/>
<rect x="457.365" y="217.148" width="81.7394" height="14.9449" rx="2.73303" fill="#212121"/>
<rect x="464.044" y="223.249" width="68.0631" height="2.745" fill="white"/>
<rect x="471.395" y="178.719" width="65.5745" height="14.9449" rx="2.73303" fill="#187F73"/>
<rect x="476.753" y="184.819" width="54.6028" height="2.74496" fill="white"/>
</g>
<path d="M563.861 215.477C565.21 213.888 566.166 211.901 566.007 209.679C565.532 203.324 556.711 204.754 554.963 207.932C553.215 211.109 553.455 219.289 555.679 219.845C556.552 220.085 558.459 219.528 560.365 218.338L559.174 226.834H566.324L563.861 215.477Z" fill="#FFCAA7"/>
<path d="M561.397 215.079C562.271 216.745 563.543 218.016 564.734 218.016C567.039 218.016 568.706 214.92 568.706 211.584C568.706 211.503 568.706 211.344 568.706 211.267C571.169 212.933 573.075 216.269 576.331 216.269C580.778 216.269 582.526 207.374 576.331 207.374C572.12 207.374 570.055 208.008 568.307 208.882C567.99 207.927 567.433 207.053 566.799 206.501C566.641 206.342 566.401 206.184 566.084 206.025C565.925 205.944 565.686 205.867 565.527 205.786C564.413 205.388 562.905 205.152 561.157 205.071C560.84 205.071 560.523 205.071 560.202 205.071C560.202 203.405 558.853 202.133 557.263 202.133C555.597 202.133 554.324 203.482 554.324 205.071C554.324 206.659 555.597 207.931 557.105 208.008C557.979 208.248 559.17 208.484 560.442 208.565C560.283 209.04 560.283 209.597 560.283 210.154C560.283 210.71 560.365 211.267 560.442 211.82C560.682 211.503 561.076 211.263 561.474 211.263C562.507 211.263 563.222 212.137 563.222 213.01C563.068 214.124 562.352 214.997 561.397 215.079Z" fill="#CB7A43"/>
<path d="M538.2 250.658C535.818 249.544 533.591 248.992 531.684 248.829C528.03 248.59 526.441 248.114 524.295 246.29C523.181 245.335 521.913 243.193 522.628 242.239C523.104 241.605 526.998 243.429 528.428 243.429C529.859 243.429 527.953 240.41 528.746 240.569C529.701 240.41 530.81 241.523 532.001 243.982L537.403 245.648L538.2 250.658Z" fill="#FFCAA7"/>
<path d="M558.699 223.258L567.596 221.43C568.552 221.19 577.767 232.547 579.514 240.726C581.104 248.272 589.046 251.608 587.855 264.074C581.819 264.155 565.849 273.444 561.637 267.808C559.573 265.106 558.459 261.851 557.902 258.28C552.024 259.393 544.476 258.914 535.261 256.293C534.627 254.229 535.021 250.417 536.375 244.936C546.781 246.366 553.931 246.208 557.906 244.302C558.459 237.077 559.491 229.613 558.699 223.258Z" fill="#187F73"/>
</svg>
