<svg width="325" height="477" viewBox="0 0 325 477" fill="none" xmlns="http://www.w3.org/2000/svg">
<path fill-rule="evenodd" clip-rule="evenodd" d="M178.991 95.9923C171.124 98.2539 163.94 98.4401 161.031 96.7988C153.736 92.6829 160.683 63.8722 169.769 54.2147C178.854 44.5571 211.338 47.9906 206.919 70.7647C205.386 78.6689 200.268 84.7182 193.933 89.0761L191.799 131.616L166.691 124.889L178.991 95.9923Z" fill="#B28B67"/>
<path fill-rule="evenodd" clip-rule="evenodd" d="M185.252 67.6049C183.945 63.7943 182.52 60.7729 180.191 58.6161C169.106 55.8325 168.343 53.5105 170.127 46.8515C172.251 46.0554 179.117 45.5963 186.323 46.8806C190.192 46.8168 194.398 48.1507 198.04 50.9624C202.719 53.7531 206.178 57.9904 206.522 64.2803C210.21 77.9197 201.718 88.8138 193.586 91.1336C192.312 88.4275 191.257 85.8532 190.353 83.4171C191.825 82.5918 192.974 81.1976 193.445 79.4405C194.373 75.9793 192.314 72.4204 188.847 71.4915C188.593 71.4232 188.337 71.371 188.082 71.3343C186.767 75.62 182.202 90.0889 179.153 94.7226C175.558 100.186 163.563 98.5492 159.517 97.4651C156.022 96.5287 157.026 93.2566 157.746 90.9115C157.85 90.5738 157.948 90.2553 158.025 89.9658C158.187 89.3609 158.975 89.5736 159.865 89.8139C161.02 90.126 162.348 90.4847 162.703 89.1603C163.09 87.7166 161.389 86.0738 159.866 84.6037C158.916 83.6866 158.036 82.8367 157.776 82.1443C156.955 79.9601 157.176 77.3696 159.154 77.8998C160.236 78.1896 161.553 79.2097 163.138 80.4369C165.53 82.2897 168.531 84.6145 172.252 85.6116C178.399 87.2587 185.167 67.8479 185.252 67.6049Z" fill="#191847"/>
<path fill-rule="evenodd" clip-rule="evenodd" d="M186.291 218.28L146.616 354.777L127.956 457.262H109.226L127.922 218.28H186.291Z" fill="#997659"/>
<path fill-rule="evenodd" clip-rule="evenodd" d="M204.121 218.28C201.352 289.19 202.444 327.866 203.064 334.308C203.683 340.751 207.201 383.898 231.17 459.425H211.689C179.946 386.97 168.865 343.822 165.224 334.308C161.584 324.794 150.831 286.118 135.133 218.28H204.121Z" fill="#B28B67"/>
<path fill-rule="evenodd" clip-rule="evenodd" d="M187.142 218.28C176.822 265.249 158.973 340.224 133.595 443.204H106.201C104.177 337.505 112.785 267.937 127.691 218.28H187.142Z" fill="#69A1AC"/>
<path fill-rule="evenodd" clip-rule="evenodd" d="M204.259 218.28C201.548 289.19 208.574 359.049 230.339 444.308H201.111C169.309 372.935 146.516 303.42 130.939 218.28H204.259Z" fill="#89C5CC"/>
<path fill-rule="evenodd" clip-rule="evenodd" d="M233.946 473.482L232.949 457.429C232.909 456.789 232.287 456.351 231.661 456.488C222.265 458.533 209.224 454.018 209.224 454.018C196.065 463.324 177.038 467.545 170.602 468.765C169.419 468.989 168.669 470.18 168.998 471.338L170.529 476.726H209.224H231.797L233.946 473.482Z" fill="#191847"/>
<path fill-rule="evenodd" clip-rule="evenodd" d="M132.136 473.482L131.139 457.429C131.099 456.789 130.477 456.351 129.851 456.488C120.455 458.533 107.414 454.018 107.414 454.018C94.2554 463.324 75.2283 467.545 68.792 468.765C67.6094 468.989 66.8594 470.18 67.1883 471.338L68.7185 476.726H107.414H129.987L132.136 473.482Z" fill="#191847"/>
<path fill-rule="evenodd" clip-rule="evenodd" d="M106.953 120.292L140.405 147.065L124.15 159.305L101.585 129.969C88.1011 123.571 82.1233 119.576 83.6516 117.984C84.9403 116.641 86.5763 116.984 88.0832 117.3C89.2571 117.546 90.3527 117.776 91.1447 117.179C92.9534 115.817 91.056 109.605 89.003 103.787C86.95 97.9693 90.0617 98.993 91.7534 100.076C97.0166 105.168 102.083 111.907 106.953 120.292ZM64.7197 142.135L79.4094 153.922L75.6102 170.052C75.6102 170.052 66.4159 160.605 57.7992 156.485C46.8124 151.231 42.5709 147.951 38.1914 139.773C35.8482 135.397 34.6466 127.22 37.9656 125.211C39.2387 124.44 42.9464 127.445 46.7294 130.511C49.6125 132.847 52.5395 135.219 54.4658 135.982C57.059 137.01 57.358 133.472 57.5969 130.645C57.7683 128.617 57.9088 126.954 58.8439 127.607C63.5898 128.528 64.7197 142.135 64.7197 142.135Z" fill="#997659"/>
<path fill-rule="evenodd" clip-rule="evenodd" d="M159.231 145.734C146.287 143.311 129.477 137.527 113.088 122.58L102.997 137.436C113.5 152.291 129.569 165.808 145.294 168.128C157.686 169.957 166.614 156.176 159.231 145.734Z" fill="#2026A2"/>
<path fill-rule="evenodd" clip-rule="evenodd" d="M174.715 262.434C187.326 263.003 198.914 263.526 205.394 266.029C217.233 242.935 213.69 226.456 210.419 211.243C208.448 202.074 206.575 193.365 208.229 183.946C213.045 156.515 198.431 110.409 195.186 109.837L194.254 109.673L168.535 105.138L165.59 104.619C161.274 121.358 152.387 138.738 143.442 156.23C141.353 160.315 139.261 164.406 137.224 168.497C114.856 169.579 70.0879 144.19 70.0879 144.19C70.0879 144.19 53.64 166.967 52.6797 177.733C77.9223 197.133 100.609 207.798 120.163 211.686C117.489 223.205 116.955 234.52 119.935 245.47C123.927 260.143 151.113 261.369 174.715 262.434Z" fill="#1F28CF"/>
</svg>
