<svg width="35" height="36" viewBox="0 0 35 36" fill="none" xmlns="http://www.w3.org/2000/svg">
<path d="M19.7499 35.7516C19.6738 35.7516 19.5977 35.7135 19.5597 35.6374C19.5597 35.5993 19.4836 35.5232 19.3313 35.4852C19.2172 35.4471 18.9127 35.4471 18.7225 35.5232C18.5703 35.5613 18.2278 35.6374 18.1517 35.5613C18.1136 35.5232 18.0756 35.4852 18.0756 35.4091C18.0756 35.371 18.0756 35.333 18.1136 35.333C18.1136 35.333 18.1517 35.2949 18.1136 35.2569C18.1136 35.2188 18.0375 35.2188 18.0375 35.2188C17.9614 35.2569 17.8092 35.2188 17.7331 35.1808C17.6189 35.1427 17.5048 35.0666 17.4667 34.9905C17.4286 34.9144 17.3525 34.8383 17.3145 34.7622C17.2764 34.7241 17.0862 34.648 16.8578 34.648C16.6295 34.648 16.3631 34.5719 16.287 34.4197C16.249 34.3055 16.1348 34.2294 16.0968 34.2294C16.0207 34.1914 15.8684 34.1152 15.7543 34.0391C15.6782 33.963 15.4879 33.925 15.3357 33.963C15.1835 34.0011 14.9932 34.0011 14.9171 33.925C14.879 33.8869 14.7268 33.8108 14.5746 33.7728C14.4224 33.7347 14.2702 33.6967 14.2321 33.6967C14.2321 33.6967 14.1941 33.7728 14.2321 33.925C14.2321 33.963 14.2321 34.0391 14.1941 34.0772C14.118 34.1914 13.9277 34.2675 13.6613 34.2675C13.4711 34.2675 13.0525 34.2675 13.0144 34.1914C13.0144 34.1914 12.9002 34.1152 12.8241 34.1152C12.71 34.0772 12.5197 34.1152 12.4055 34.1533C12.2533 34.1914 12.0631 34.1914 11.987 34.0772C11.9489 34.0011 11.8347 33.8869 11.7586 33.8108C11.6825 33.7347 11.5303 33.6586 11.4542 33.6586C11.34 33.6586 11.1117 33.6967 10.9976 33.7728C10.8453 33.8489 10.579 33.7728 10.4267 33.6205C10.2745 33.4683 10.1223 33.2781 10.0843 33.202C10.0462 33.1259 9.9701 33.0878 9.93205 33.0878C9.81789 33.0878 9.43735 32.9356 9.13292 32.8214C8.75238 32.6692 8.40989 32.4789 8.29573 32.3648C8.18157 32.2506 8.14352 32.0984 8.14352 31.9462C8.14352 31.8701 7.9913 31.7179 7.76298 31.6798C7.53466 31.6418 7.26828 31.5276 7.19217 31.4134C7.15412 31.3754 7.11606 31.2993 7.15412 31.2612C7.15412 31.2232 7.23023 31.1471 7.30633 31.1471C7.4205 31.109 7.57271 31.0329 7.64882 30.9568C7.72493 30.8807 7.91519 30.6143 8.06741 30.2718C8.21963 29.9674 8.44795 29.0541 8.63822 28.1789C8.79043 27.4178 9.01875 26.5425 9.09486 26.4284C9.17097 26.3523 9.24708 26.2001 9.28513 26.1239C9.28513 26.1239 9.28513 26.0859 9.28513 26.0478C9.24708 26.0098 9.20902 25.9337 9.13292 25.9337C8.94265 25.8576 9.05681 25.0204 9.17097 24.4876C9.32319 23.7646 9.4754 23.0416 9.51345 22.8513C9.51345 22.7752 9.55151 22.6991 9.62762 22.6991C9.70372 22.6611 9.85594 22.6991 9.9701 22.8133C10.1604 22.9655 10.3887 23.3841 10.4648 23.7266C10.5409 24.069 10.6551 24.3735 10.6931 24.4115C10.7312 24.4876 10.8453 24.716 10.9214 24.9062C10.9595 24.9823 10.9976 25.0204 10.9976 25.0584C10.9976 25.0584 10.9976 25.0204 11.0356 24.9823C11.0737 24.8301 10.9976 24.5637 10.9214 24.4115C10.8453 24.2593 10.6931 23.8027 10.617 23.4221C10.5409 23.0416 10.2365 22.5469 9.93205 22.3186C9.66567 22.1283 9.32319 21.8239 9.28513 21.7097C9.24708 21.5955 9.32319 21.4053 9.4754 21.2531C9.58956 21.1389 9.70372 20.9867 9.70372 20.9106C9.70372 20.8345 9.70372 20.6823 9.70372 20.6061C9.70372 20.53 9.66567 20.3778 9.62762 20.3017C9.58956 20.1876 9.51345 20.0734 9.51345 20.0353C9.4754 19.9592 9.55151 19.807 9.58956 19.6929V19.6548C9.55151 19.5787 9.43735 19.4645 9.20902 19.3884C8.94265 19.2743 8.63822 19.122 8.56211 19.0079C8.486 18.9318 8.29573 18.7796 8.10546 18.6654C7.91519 18.5512 7.76298 18.361 7.72493 18.2088C7.68687 18.0946 7.53466 17.7902 7.34439 17.5618C7.15412 17.2955 7.03996 16.953 7.11606 16.7247C7.19217 16.5344 7.19217 16.3441 7.15412 16.3061C7.11606 16.23 7.0019 16.1158 6.88774 16.0397C6.81163 16.0016 6.77358 15.9255 6.77358 15.8494C6.77358 15.8114 6.81163 15.7733 6.84969 15.7353C6.9258 15.6972 7.0019 15.583 7.03996 15.5069C7.03996 15.4689 7.03996 15.4689 7.03996 15.4308C7.0019 15.3928 6.96385 15.3928 6.88774 15.3928C6.73553 15.4308 6.5072 15.3928 6.35499 15.3547C6.24083 15.3167 6.05056 15.1644 5.97445 15.0503C5.9364 14.9742 5.9364 14.8981 5.9364 14.86C5.97445 14.7839 6.05056 14.7078 6.12667 14.6697C6.20277 14.6317 6.24083 14.5936 6.24083 14.5556C6.24083 14.5175 6.24083 14.5175 6.20277 14.4795C6.12666 14.4034 5.89834 14.3273 5.70807 14.3273C5.70807 14.3273 5.70807 14.3273 5.67002 14.3273C5.47975 14.3273 5.25143 14.2512 5.25143 14.0989C5.25143 14.0228 5.09921 13.9848 4.947 13.9848C4.75673 14.0228 4.5284 13.9848 4.41424 13.9087C4.30008 13.8326 4.22397 13.6803 4.26203 13.4901C4.26203 13.452 4.26203 13.414 4.22397 13.3759C4.18592 13.3379 4.10981 13.3379 4.03371 13.3379C3.84344 13.3759 3.61511 13.3379 3.50095 13.2237C3.42484 13.1476 3.15847 13.0334 2.93014 12.9954C2.66377 12.9573 2.39739 12.8432 2.32128 12.7671C2.20712 12.729 2.01685 12.6148 1.90269 12.5768C1.82658 12.5387 1.75048 12.5387 1.67437 12.5387C1.63631 12.5387 1.63631 12.5768 1.63631 12.5768C1.59826 12.691 1.40799 12.8051 1.25578 12.7671C1.10356 12.7671 0.951346 12.6529 0.951346 12.5007C0.951346 12.3865 0.913292 12.2343 0.875238 12.1582C0.875238 12.1201 0.723023 12.006 0.570807 11.9679C0.418592 11.9299 0.228323 11.8538 0.152215 11.7777C0.114161 11.7396 0.0761076 11.7015 0.0761076 11.6635C0.0761076 11.6254 0.114161 11.5493 0.152215 11.5113C0.266377 11.4732 0.608861 11.4732 0.837184 11.4732C1.10356 11.5113 1.25578 11.4732 1.29383 11.4352C1.29383 11.3971 1.25578 11.283 1.21772 11.2449C1.17967 11.2069 1.06551 11.1688 0.951346 11.2068C0.79913 11.2449 0.646915 11.2068 0.608861 11.1307C0.570807 11.0546 0.570807 10.9024 0.608861 10.8263C0.684969 10.7502 0.989399 10.7121 1.21772 10.7121C1.25578 10.7121 1.29383 10.7121 1.29383 10.7121C1.14161 10.6741 1.06551 10.598 1.06551 10.5219C1.06551 10.4838 1.06551 10.4458 1.17967 10.4077C1.21772 10.3697 1.25578 10.3316 1.29383 10.3316H1.25578L1.14161 10.3697C1.14161 10.3697 0.913292 10.4077 0.761076 10.4458C0.570807 10.4838 0.342484 10.4838 0.228323 10.4838C0.114161 10.4838 0.0380538 10.4077 0 10.2936C0 10.2175 -3.6858e-08 10.1033 0.0380538 10.0272C0.0761076 9.98913 0.0761076 9.87497 0.0761076 9.79886C0.0761076 9.6847 0.304431 9.53248 0.532754 9.45637C0.761076 9.38027 1.02745 9.30416 1.14161 9.30416C1.21772 9.30416 1.4841 9.2661 1.67437 9.19C1.86464 9.15194 2.05491 9.07584 2.09296 9.07584C2.13101 9.07584 2.24518 9.11389 2.32128 9.15194C2.39739 9.19 2.51155 9.2661 2.54961 9.30416L2.58766 9.34221C2.62571 9.30416 2.66377 9.22805 2.70182 9.19C2.77793 9.11389 2.9682 9.15194 3.04431 9.15194C3.15847 9.19 3.27263 9.15194 3.27263 9.07584C3.31068 8.99973 3.34874 8.88557 3.34874 8.84751C3.38679 8.73335 3.88149 8.6953 3.99565 8.6953H4.03371C4.37619 8.6953 4.75673 8.88557 4.947 9.07584C5.09921 9.22805 5.28948 9.53248 5.28948 9.64664C5.28948 9.6847 5.36559 9.79886 5.47975 9.91302C5.59391 9.98913 5.86029 9.98913 6.08861 9.87497C6.31693 9.7608 6.62136 9.6847 6.77358 9.72275C6.88774 9.7608 7.03996 9.7608 7.11606 9.72275C7.19217 9.6847 7.30633 9.60859 7.38244 9.57054C7.45855 9.53248 7.61076 9.49443 7.72493 9.49443C7.80103 9.49443 7.87714 9.53248 7.91519 9.57054C7.95325 9.60859 7.95325 9.60859 7.95325 9.64664C7.95325 9.6847 7.95325 9.72275 7.9913 9.7608C7.9913 9.79886 8.14352 9.83691 8.37184 9.79886C8.56211 9.79886 8.86654 9.79886 9.01876 9.79886C9.09486 9.79886 9.09486 9.79886 9.09486 9.79886C9.09486 9.79886 9.09486 9.7608 9.05681 9.72275C8.94265 9.60859 8.79043 9.38027 8.75238 9.22805C8.71432 9.07584 8.71432 8.80946 8.75238 8.61919C8.82849 8.42892 8.79043 8.31476 8.79043 8.27671C8.71432 8.23865 8.67627 8.01033 8.67627 7.82006V7.36341C8.67627 7.32536 8.60016 7.17314 8.486 7.02093C8.37184 6.90677 8.25768 6.75455 8.25768 6.64039C8.25768 6.60234 8.21962 6.48818 8.14352 6.45012C8.06741 6.37401 8.10546 6.18375 8.14352 6.06958C8.21962 5.95542 8.21963 5.84126 8.18157 5.80321C8.10546 5.76515 8.02936 5.68905 7.95325 5.61294C7.91519 5.57488 7.91519 5.53683 7.91519 5.49878C7.91519 5.46072 7.9913 5.38461 8.02936 5.34656C8.14352 5.30851 8.40989 5.34656 8.60016 5.46072C8.79043 5.57488 8.9807 5.57488 9.01876 5.53683C9.09486 5.49878 9.28513 5.42267 9.39929 5.42267C9.55151 5.42267 9.70372 5.49878 9.77983 5.57488C9.85594 5.68905 9.81789 5.84126 9.74178 5.95542C9.70372 6.03153 9.70372 6.18375 9.77983 6.29791C9.85594 6.41207 9.93205 6.67844 9.9701 6.83066C9.9701 6.90677 10.0082 6.94482 10.0082 6.94482C10.0082 6.94482 10.0082 6.94482 10.0462 6.90677C10.1223 6.75455 10.3506 6.7165 10.617 6.75455C10.8453 6.79261 11.1878 6.86871 11.3781 6.86871C11.5684 6.86871 11.9489 6.98288 12.2153 7.05898C12.4436 7.13509 12.8622 7.09704 13.0525 6.98288C13.2808 6.86871 13.6233 6.7165 13.8135 6.67844C13.9277 6.64039 14.0038 6.60234 14.0799 6.60234C14.0419 6.60234 13.9658 6.60234 13.8516 6.60234C13.8516 6.60234 13.8516 6.60234 13.8135 6.60234C13.6233 6.60234 13.3949 6.56428 13.3188 6.48818C13.2047 6.41207 13.2427 6.14569 13.3188 5.99348C13.3949 5.80321 13.6994 5.49878 13.9658 5.30851C14.2321 5.15629 14.841 4.92797 15.2976 4.81381C15.7923 4.69965 16.1729 4.58548 16.249 4.50938C16.3251 4.43327 16.4773 4.35716 16.5915 4.31911C16.6676 4.28105 16.8198 4.12884 16.8959 3.90052C16.972 3.67219 17.1623 3.51998 17.3145 3.51998C17.3525 3.51998 17.3906 3.51998 17.3906 3.48192C17.4286 3.44387 17.4286 3.36776 17.3525 3.2536C17.2764 3.06333 17.2003 2.45447 17.2384 1.88366C17.2384 1.73145 17.2764 0.894265 17.3525 0.818157C17.3906 0.780103 17.5048 0.665942 17.6189 0.55178C17.7331 0.437619 17.9233 0.323458 17.9995 0.323458C18.0756 0.323458 18.5322 0.209296 18.9508 0.0951345C19.3694 -0.0190269 19.826 -0.0570807 19.9402 0.133188C20.0163 0.285404 20.0924 0.513726 20.0924 0.703996C20.0924 0.856211 20.2446 1.08453 20.3968 1.1987C20.5491 1.31286 20.7393 1.35091 20.7774 1.2748C20.8535 1.1987 21.0438 1.12259 21.1579 1.08453C21.3101 1.08453 21.4624 1.1987 21.5385 1.35091C21.6146 1.50313 21.7287 1.7695 21.8048 1.92172C21.8809 2.07393 22.0332 2.18809 22.1093 2.18809C22.2615 2.18809 22.4518 2.30226 22.5659 2.49253C22.642 2.64474 22.8323 2.79696 22.9465 2.83501C23.0606 2.87306 23.2509 2.87306 23.365 2.87306C23.4792 2.87306 23.7075 2.91112 23.8978 2.98722C24.012 3.02528 24.1261 3.13944 24.1642 3.21555C24.1642 3.2536 24.1642 3.29166 24.1642 3.32971C24.1261 3.36776 24.0881 3.59609 24.0881 3.78636C24.0881 3.97662 24.1261 4.16689 24.1642 4.243C24.2022 4.31911 24.3925 4.43327 24.6208 4.47132C24.8111 4.54743 25.0014 4.50938 25.0394 4.50938C25.1155 4.47132 25.2297 4.39522 25.3058 4.31911C25.3438 4.31911 25.3438 4.28105 25.3438 4.243C25.3438 4.20495 25.3438 4.20495 25.3438 4.16689C25.2677 4.09079 25.3438 3.90052 25.4961 3.78636C25.6102 3.67219 25.8005 3.59609 25.9146 3.67219C25.9527 3.67219 25.9527 3.71025 25.9527 3.7483C25.9908 3.82441 25.9527 3.97662 25.8766 4.12884C25.8005 4.28105 25.7624 4.54743 25.8005 4.7377C25.8766 4.92797 25.9908 5.08018 26.0669 5.11824C26.181 5.15629 26.4094 5.34656 26.6377 5.49878C26.866 5.65099 27.1324 5.91737 27.2085 6.06958C27.2846 6.18375 27.551 6.25985 27.7793 6.18375C28.0076 6.10764 28.274 6.06958 28.3881 6.18375C28.4643 6.25985 28.6165 6.33596 28.7687 6.37401C28.8828 6.41207 29.0731 6.41207 29.1492 6.33596C29.2634 6.25985 29.5678 6.25985 29.8342 6.25985C30.1006 6.29791 30.4811 6.60234 30.6333 6.90677C30.7475 7.09704 30.8616 7.24925 31.0139 7.28731C31.0519 7.28731 31.09 7.28731 31.09 7.28731C31.2422 7.17314 31.4705 7.24925 31.6227 7.40147C31.7369 7.55368 31.9272 7.66784 32.0033 7.66784C32.0794 7.66784 32.3457 7.62979 32.5741 7.55368C32.8024 7.47758 33.1449 7.51563 33.3351 7.62979C33.4874 7.74395 33.7918 7.85811 34.0201 7.85811C34.2484 7.85811 34.5909 7.89617 34.7812 7.97227C34.8573 8.01033 34.9334 8.04838 34.9715 8.12449C35.0095 8.2006 35.0095 8.31476 34.9715 8.42892C34.8954 8.61919 34.7051 8.88557 34.5909 9.03778C34.4768 9.15194 34.3245 9.45637 34.2104 9.6847C34.1343 9.91302 34.0201 10.2936 33.944 10.5219C33.8679 10.7502 33.7537 11.0927 33.6776 11.321C33.6015 11.5113 33.5635 11.8157 33.6015 11.9299C33.6396 12.0821 33.6396 12.4246 33.6015 12.6909C33.5635 12.9573 33.5635 13.2618 33.5635 13.3759C33.5635 13.4901 33.5635 13.7184 33.5635 13.8326C33.5635 13.9848 33.4493 14.2131 33.3351 14.3273C33.221 14.4414 33.0307 14.5175 32.8785 14.5175C32.7643 14.5175 32.5741 14.4414 32.498 14.3653C32.4219 14.3273 32.2316 14.3653 32.0413 14.5175C31.9272 14.6317 31.8891 14.7078 31.851 14.7078C31.9652 14.7078 32.1174 14.7839 32.1555 14.8981C32.1935 15.0122 31.9652 15.3547 31.813 15.583C31.6227 15.8494 31.2802 16.1919 31.09 16.3822C30.8997 16.5344 30.7094 16.8008 30.6714 16.953C30.6333 17.1432 30.4431 17.4477 30.2908 17.6379C30.1006 17.8282 29.9103 18.1326 29.8342 18.361C29.7581 18.5893 29.72 18.8937 29.7581 19.084C29.7961 19.2743 29.7581 19.5026 29.682 19.5406L29.6439 19.5787C29.6439 19.6167 29.6439 19.6929 29.682 19.7309C29.682 19.7309 29.72 19.769 29.7581 19.769C29.8342 19.769 29.9484 19.6929 30.0245 19.5787C30.1767 19.3884 30.2528 19.1982 30.2528 19.122C30.2147 18.9698 30.4811 18.8176 30.7094 18.7415C30.9758 18.6273 31.2802 18.5893 31.4325 18.6273C31.5847 18.6654 31.7369 18.9318 31.7369 19.1982C31.7749 19.4645 31.851 19.769 31.9272 19.8831C32.0033 19.9973 32.1935 20.1876 32.2696 20.3398C32.3838 20.492 32.3077 20.7584 32.1174 20.9106C31.9272 21.0628 31.7749 21.215 31.7749 21.2911C31.7749 21.3292 31.851 21.4814 32.0413 21.5955C32.2316 21.7478 32.3838 21.938 32.3838 22.0522C32.3838 22.1283 32.498 22.3186 32.6502 22.4327C32.8024 22.5469 32.9166 22.8513 32.8785 23.0416C32.8404 23.1558 32.8024 23.4221 32.6882 23.4602C32.6502 23.4602 32.536 23.5743 32.4219 23.7266C32.3077 23.8407 32.0413 23.9168 31.8891 23.8788C31.7369 23.8407 31.5847 23.8788 31.5466 23.9929C31.5086 24.069 31.5086 24.2593 31.5847 24.3735C31.6608 24.4876 31.7749 24.6398 31.7749 24.754C31.7749 24.7921 31.9272 24.9062 32.1555 24.9823C32.3838 25.0584 32.6121 25.2487 32.6121 25.3629C32.6502 25.5151 32.6121 25.7054 32.498 25.8195C32.4219 25.9337 32.3457 26.1239 32.3077 26.2762C32.2696 26.4284 32.2696 26.6567 32.3077 26.7709C32.3457 26.885 32.3838 27.0753 32.4599 27.2275C32.536 27.3417 32.6502 27.4178 32.7263 27.4178C32.8404 27.4178 32.9927 27.4558 33.1068 27.5319C33.221 27.608 33.2971 27.6461 33.3351 27.6842C33.3732 27.6842 33.4874 27.7603 33.6015 27.7983C33.6776 27.8364 33.906 27.7983 34.0962 27.7222C34.3245 27.608 34.5529 27.6461 34.667 27.7603C34.7812 27.8744 34.7812 28.1027 34.667 28.293C34.5529 28.4452 34.4387 28.6736 34.3626 28.7497C34.3245 28.8258 34.2484 28.978 34.2484 29.0921C34.2484 29.2444 33.9821 29.4727 33.7537 29.6249C33.4874 29.7771 33.1449 30.0815 32.9546 30.3099C32.7643 30.5762 32.498 30.9187 32.3077 31.0329C32.1555 31.1851 32.0033 31.4515 32.0033 31.6037C32.0033 31.7179 31.9652 31.832 31.8891 31.9081C31.851 31.9462 31.7749 31.9842 31.6988 31.9842C31.5466 31.9842 31.4325 31.9842 31.3944 32.0223C31.3563 32.0603 31.1661 32.1365 31.0139 32.1745C30.8616 32.2126 30.6333 32.3267 30.5192 32.4028C30.3669 32.517 30.1386 32.4789 29.9484 32.3267H29.7961C29.5678 32.3648 29.3014 32.3648 29.2253 32.2887C29.1873 32.2506 28.959 32.0984 28.6165 32.0223C28.3501 31.9462 28.0457 31.832 27.9696 31.7559C27.9315 31.7179 27.8554 31.6037 27.7793 31.4895C27.7412 31.4134 27.6271 31.3754 27.551 31.3754C27.4368 31.4134 27.2465 31.4134 27.0943 31.3754C26.9802 31.3754 26.904 31.3373 26.904 31.2612C26.904 31.2232 26.866 31.1851 26.9421 31.109C27.0182 31.0329 27.1704 30.9187 27.2465 30.8426C27.2085 30.8046 27.0943 30.7665 26.866 30.7665C26.6377 30.7665 26.4474 30.8046 26.3713 30.8807C26.3332 30.9187 26.3332 30.9568 26.3332 30.9948C26.3332 31.0709 26.2952 31.1851 26.2571 31.2232C26.181 31.2993 26.0669 31.3373 25.9908 31.3373C25.8385 31.3373 25.6863 31.2993 25.6483 31.2232C25.6102 31.1851 25.6102 31.1471 25.6102 31.1471C25.6102 31.109 25.5722 31.0329 25.5341 31.0329C25.4961 31.0329 25.3058 30.9948 25.1536 31.0329C24.9633 31.0709 24.6969 31.0329 24.5447 30.9568C24.3925 30.8807 24.2403 30.7665 24.2022 30.6904C24.2022 30.6524 24.0881 30.6143 24.012 30.6143C23.9359 30.6143 23.6695 30.7665 23.4412 30.9568C23.2128 31.1471 22.9465 31.3373 22.8703 31.3754C22.7942 31.4134 22.6801 31.4895 22.5659 31.5656C22.4518 31.6418 22.2995 31.6798 22.1473 31.6418C22.0712 31.6418 21.8048 31.794 21.5385 32.0984C21.2721 32.3648 21.1579 32.7073 21.196 32.8595C21.234 33.0117 21.196 33.1259 21.1579 33.1639C21.1199 33.202 21.0818 33.202 21.0438 33.202H21.0057C20.9677 33.24 20.9677 33.2781 20.9677 33.3161C20.9677 33.4303 21.0057 33.5444 21.0438 33.5825C21.1199 33.6586 21.196 33.963 21.196 34.1152C21.196 34.3436 21.3101 34.648 21.4243 34.8002C21.4624 34.8383 21.6146 34.9905 21.5765 35.1046C21.5765 35.1427 21.5385 35.1427 21.5385 35.1808C21.4624 35.2188 21.2721 35.1808 21.1579 35.1427C21.0438 35.1046 20.7774 35.1808 20.5491 35.333C20.3588 35.4852 20.0544 35.5993 19.9402 35.5613C19.8641 35.5232 19.7499 35.5613 19.7499 35.5613C19.9021 35.7135 19.826 35.7516 19.7499 35.7516Z" fill="black"/>
</svg>
