<svg width="385" height="520" viewBox="0 0 385 520" fill="none" xmlns="http://www.w3.org/2000/svg">
<mask id="mask0" mask-type="alpha" maskUnits="userSpaceOnUse" x="0" y="0" width="385" height="520">
<rect width="385" height="520" rx="12" fill="#C4C4C4"/>
</mask>
<g mask="url(#mask0)">
<path d="M386 346H0V547H386V346Z" fill="#F99506"/>
<path d="M386 -41H0V346H386V-41Z" fill="#F9BB4E"/>
<path opacity="0.27" d="M0 111L294 345.698L0.100034 346L0 111Z" fill="#F2F2F2"/>
<path d="M386 346H0V548H386V346Z" fill="url(#paint0_linear)"/>
<path d="M329.557 250.332C329.557 265.393 312.896 277.535 292.377 277.535C279.576 277.535 268.281 272.829 261.503 265.581C260.186 264.169 247.385 263.698 248.891 262.569C251.338 260.78 256.421 257.58 255.856 255.792C255.385 254.003 255.103 252.215 255.103 250.332C255.103 235.272 271.763 223.13 292.283 223.13C312.802 223.13 329.557 235.366 329.557 250.332Z" fill="#FFF1CF"/>
<path d="M315.155 262.004V244.496L305.46 234.896L295.577 244.779V262.004H315.061" fill="#043E75"/>
<path d="M268.751 244.779L278.634 234.896H305.554L295.577 244.779H268.751Z" fill="#B6E6F4"/>
<path d="M291.812 239.884H282.211L287.011 244.779L291.812 239.884Z" fill="#043E75"/>
<path d="M268.751 244.779H277.505L282.211 239.884L287.011 244.779H295.671V262.004H268.751V244.779Z" fill="#1174BA"/>
<path d="M272.516 246.567H271.292V249.956H272.516V246.567Z" fill="white"/>
<path d="M277.6 246.473H276.376V249.862H277.6V246.473Z" fill="white"/>
<path d="M282.682 246.567H281.458V249.956H282.682V246.567Z" fill="white"/>
<path d="M287.858 246.567H286.635V249.956H287.858V246.567Z" fill="white"/>
<path d="M292.941 246.473H291.718V249.862H292.941V246.473Z" fill="white"/>
<path d="M272.516 252.591H271.292V255.98H272.516V252.591Z" fill="white"/>
<path d="M277.505 252.497H276.281V255.886H277.505V252.497Z" fill="white"/>
<path d="M282.588 252.591H281.364V255.98H282.588V252.591Z" fill="white"/>
<path d="M287.765 252.591H286.541V255.98H287.765V252.591Z" fill="white"/>
<path d="M292.847 252.497H291.623V255.886H292.847V252.497Z" fill="white"/>
<path d="M177.26 188.021C177.26 198.751 184.037 208.164 194.485 214.094C196.838 215.411 195.332 223.6 195.803 225.012C196.273 226.424 205.027 218.423 206.533 218.8C210.58 219.835 214.91 220.306 219.428 220.306C242.678 220.306 261.503 205.811 261.503 188.021C261.503 170.231 242.678 155.735 219.428 155.735C196.179 155.735 177.26 170.231 177.26 188.021Z" fill="#FFF1CF"/>
<path d="M247.478 195.739C247.573 196.021 247.949 196.21 248.137 195.927C248.42 195.739 248.608 195.363 248.608 194.892C248.608 193.762 249.173 187.55 248.796 186.797C248.326 185.856 239.007 184.35 235.43 184.162C235.148 184.162 234.771 183.973 234.677 183.691C233.736 182.091 230.442 176.82 229.406 176.537C228.183 176.161 220.935 175.502 217.076 175.502C213.217 175.502 202.863 175.596 202.015 176.443C201.168 177.29 193.638 186.326 193.168 187.362C192.791 188.397 192.038 191.409 192.038 192.821C192.038 193.951 193.45 194.892 194.297 195.457C194.58 195.645 194.862 195.457 194.956 195.174C195.238 193.762 196.18 190.186 199.945 190.186C204.651 190.186 205.969 194.139 206.534 195.268C207.098 196.398 207.569 196.304 211.805 196.304C216.134 196.304 234.395 196.304 234.395 196.304C234.395 196.304 235.524 196.304 235.901 194.986C236.277 193.668 237.125 190.468 240.795 190.468C243.431 190.28 246.161 190.845 247.478 195.739Z" fill="#F77B0B"/>
<path d="M247.478 195.739C246.16 190.845 243.525 190.28 240.889 190.28C237.218 190.28 236.465 193.386 235.994 194.798C235.618 196.21 234.488 196.116 234.488 196.116C234.488 196.116 234.394 196.116 234.206 196.116C234.206 196.21 234.206 196.304 234.206 196.304L238.818 196.963L247.572 195.927C247.572 195.927 247.478 195.833 247.478 195.739Z" fill="#F45F0C"/>
<path d="M206.627 195.174C206.062 194.045 204.744 190.091 200.038 190.091C196.273 190.091 195.237 193.668 195.049 195.08C195.049 195.268 194.955 195.362 194.767 195.362L200.885 196.774L208.133 196.115C207.191 196.021 206.909 195.833 206.627 195.174Z" fill="#F45F0C"/>
<path d="M192.979 188.021C192.602 189.15 192.226 191.127 192.132 192.35C192.508 192.633 192.979 192.915 193.073 192.35C193.355 191.503 194.108 188.397 194.014 188.209C193.92 188.115 193.355 188.115 192.979 188.021Z" fill="#F99F5D"/>
<path d="M248.984 186.985C248.984 186.985 249.549 186.985 249.549 187.927C249.549 188.868 249.549 190.092 248.984 190.28C248.89 190.28 248.984 187.268 248.984 186.985Z" fill="#F45F0C"/>
<path d="M241.549 201.293C244.356 201.293 246.631 199.017 246.631 196.21C246.631 193.403 244.356 191.127 241.549 191.127C238.741 191.127 236.466 193.403 236.466 196.21C236.466 199.017 238.741 201.293 241.549 201.293Z" fill="#F99F5D"/>
<path d="M241.547 197.339C242.171 197.339 242.677 196.833 242.677 196.21C242.677 195.586 242.171 195.08 241.547 195.08C240.924 195.08 240.418 195.586 240.418 196.21C240.418 196.833 240.924 197.339 241.547 197.339Z" fill="#B19E9E"/>
<path d="M200.603 201.293C203.41 201.293 205.686 199.017 205.686 196.21C205.686 193.403 203.41 191.127 200.603 191.127C197.796 191.127 195.521 193.403 195.521 196.21C195.521 199.017 197.796 201.293 200.603 201.293Z" fill="#F99F5D"/>
<path d="M200.603 197.339C201.227 197.339 201.733 196.833 201.733 196.21C201.733 195.586 201.227 195.08 200.603 195.08C199.979 195.08 199.474 195.586 199.474 196.21C199.474 196.833 199.979 197.339 200.603 197.339Z" fill="#B19E9E"/>
<path d="M234.677 183.691C233.83 182.373 231.665 178.797 230.253 177.291C229.971 177.291 229.406 177.385 229.406 177.573C229.406 177.855 232.889 183.879 233.548 184.068C234.018 184.162 234.489 183.879 234.677 183.691Z" fill="#F9D1B7"/>
<path d="M232.136 184.538C232.418 184.538 232.606 184.162 232.512 183.974C231.477 182.279 228.371 177.667 227.806 177.573C227.053 177.385 217.358 177.573 217.358 177.573C217.358 177.573 216.04 177.573 216.04 179.55C216.04 181.056 216.134 183.126 216.228 184.068C216.228 184.35 216.511 184.632 216.793 184.632H232.136V184.538Z" fill="#F9D1B7"/>
<path d="M215.098 178.609V183.691C215.098 184.162 214.721 184.538 214.251 184.538H201.638C201.638 184.538 200.602 184.256 200.602 183.221C200.508 182.374 202.861 179.55 203.991 178.232C204.367 177.761 204.932 177.479 205.497 177.479H213.874C214.533 177.479 215.098 177.95 215.098 178.609Z" fill="#F9D1B7"/>
<path d="M200.321 178.326C199.097 179.832 197.309 181.903 195.803 183.785L195.991 183.88C196.273 183.974 196.65 183.88 196.932 183.597L200.509 178.985C200.697 178.703 200.603 178.42 200.321 178.326Z" fill="#F9D1B7"/>
<path d="M241.547 199.504C243.367 199.504 244.842 198.029 244.842 196.21C244.842 194.39 243.367 192.916 241.547 192.916C239.728 192.916 238.253 194.39 238.253 196.21C238.253 198.029 239.728 199.504 241.547 199.504Z" fill="#F9D1B7"/>
<path d="M200.603 199.504C202.422 199.504 203.897 198.029 203.897 196.21C203.897 194.39 202.422 192.916 200.603 192.916C198.784 192.916 197.309 194.39 197.309 196.21C197.309 198.029 198.784 199.504 200.603 199.504Z" fill="#F9D1B7"/>
<path d="M219.335 187.362H216.793C216.605 187.362 216.417 187.174 216.417 186.985C216.417 186.797 216.605 186.609 216.793 186.609H219.335C219.523 186.609 219.711 186.797 219.711 186.985C219.806 187.174 219.617 187.362 219.335 187.362Z" fill="#F9D1B7"/>
<path d="M57.1553 318.385L73.8156 375.708L81.6281 418.724H89.4406L81.6281 318.385H57.1553Z" fill="#997659"/>
<path d="M49.719 318.385C50.8485 348.129 50.3779 364.413 50.1896 367.143C49.9072 369.873 48.4953 387.945 38.4238 419.665H46.6128C59.8846 389.263 64.5909 371.096 66.097 367.143C67.603 363.19 72.121 346.906 78.7099 318.385H49.719Z" fill="#B28B67"/>
<path d="M56.7783 318.385C61.1081 338.152 68.5441 369.59 79.1804 412.794H90.6638C91.5109 368.367 87.9341 339.187 81.6277 318.385H56.7783Z" fill="#1174BA"/>
<path d="M49.6247 318.385C50.7542 348.129 47.8363 377.497 38.7061 413.265H50.9425C64.3084 383.333 73.8152 354.153 80.3099 318.385H49.6247Z" fill="#188CC6"/>
<path d="M37.2002 425.501L37.6708 418.254C40.3064 419.007 43.6008 418.724 47.5541 417.312C51.7898 420.324 57.155 422.395 63.6497 423.525C64.1203 423.619 64.4968 424.089 64.4027 424.56V424.654L63.7438 426.819H47.5541H38.0473L37.2002 425.501Z" fill="#043E75"/>
<path d="M79.8389 425.501L80.3095 418.254C82.945 419.007 86.2395 418.724 90.1928 417.312C94.4284 420.324 99.7936 422.395 106.288 423.525C106.759 423.619 107.135 424.089 107.041 424.56V424.654L106.382 426.819H90.1928H80.686L79.8389 425.501Z" fill="#043E75"/>
<path d="M68.5443 247.038C66.4736 244.591 65.0617 241.579 65.2499 238.19C65.9088 228.495 79.463 230.566 82.0985 235.554C84.7341 240.543 84.4517 252.874 81.0631 253.815C79.7454 254.191 76.8275 253.344 73.9095 251.556L75.7921 264.639H64.7793L68.5443 247.038Z" fill="#B28B67"/>
<path d="M74.3801 239.319C74.7566 245.155 75.8861 248.073 77.6745 248.073C80.4042 248.073 82.6632 246.379 83.7927 246.379C84.6398 246.379 84.4516 247.414 83.8868 248.261C83.4162 248.92 81.1572 249.579 81.1572 250.615C81.1572 251.65 82.9456 250.803 82.9456 251.462C82.9456 252.497 83.2279 254.38 81.5337 254.38C79.7453 254.38 74.7566 253.721 73.9094 251.179C73.3447 249.485 72.9682 246.002 72.8741 240.731C72.7799 240.731 72.6858 240.731 72.5917 240.731C71.0857 240.731 69.862 241.955 69.862 243.461C69.862 244.214 70.1444 244.873 70.7092 245.438C70.0503 246.285 69.3914 247.226 68.5442 248.261C65.5322 246.473 62.7084 240.637 65.6263 235.554C66.4735 233.013 68.8266 232.166 71.0857 231.507C72.8741 230.754 74.7566 230.66 76.2626 231.13C79.2746 231.413 82.0043 232.354 82.8514 232.919C82.8514 235.837 82.2867 236.684 77.4862 236.59C76.2626 236.778 75.3213 237.908 74.3801 239.319Z" fill="#043054"/>
<path d="M84.7344 275.088L100.453 266.428C103.089 263.322 105.63 260.874 108.172 259.18C108.925 258.898 110.337 258.615 109.019 260.874C107.701 263.134 106.478 265.581 107.136 266.24C107.795 266.899 109.395 265.957 110.148 267.087C110.619 267.84 107.889 269.063 101.865 270.758L90.382 281.206L84.7344 275.088ZM109.395 282.335L116.361 278.57C117.302 274.899 118.526 273.017 119.843 273.017C120.879 272.546 119.09 277.158 121.067 276.782C123.044 276.405 127.844 272.829 128.691 273.487C129.915 274.523 128.785 277.817 127.562 279.511C125.115 282.618 123.138 283.653 118.243 284.971C115.702 285.724 112.878 287.136 109.866 289.301L109.395 282.335Z" fill="#997659"/>
<path d="M77.1097 273.205C82.6632 273.111 90.005 271.981 97.8175 266.993L100.924 273.864C95.4643 279.229 87.9342 283.653 81.2513 283.465C75.9802 283.277 73.2505 276.97 77.1097 273.205Z" fill="#043E75"/>
<path d="M84.5449 284.218C90.3808 285.724 100.264 283.935 114.006 279.041C117.395 286.1 118.995 291.183 118.713 294.195C106.853 300.407 96.7814 303.137 88.4041 303.325C88.6865 308.314 88.0276 313.02 86.051 317.35C81.9094 326.198 57.4366 318.009 49.2476 319.609C44.0706 302.949 54.048 296.172 54.048 285.441C54.048 273.77 63.4607 255.792 64.8726 255.792H77.4855C78.1444 264.639 81.627 274.523 84.5449 284.218Z" fill="#06508C"/>
<path d="M191.096 323.468L174.53 377.497L166.529 423.524H160.223L168.694 323.468H191.096Z" fill="#A86939"/>
<path d="M197.026 323.468C195.897 353.118 197.214 368.461 197.497 371.19C197.779 373.92 201.168 391.333 209.357 424.466L202.674 422.207C189.778 391.898 185.449 376.085 183.943 372.132C182.437 368.178 178.577 351.989 172.177 323.562H197.026V323.468Z" fill="#BA7C49"/>
<path d="M209.263 422.019C209.734 423.337 210.016 424.278 210.016 424.937C210.016 425.69 209.922 426.913 209.64 428.419C208.699 428.419 200.416 428.419 184.885 428.419C184.226 426.254 184.602 425.125 186.014 424.937C187.426 424.748 188.556 424.654 189.497 424.466L200.98 419.289C201.169 419.195 201.451 419.289 201.545 419.477L202.298 421.266C203.616 421.831 204.651 422.207 205.404 422.207C206.063 422.207 207.004 421.925 208.134 421.454C208.51 421.36 209.075 421.548 209.263 422.019Z" fill="#02332E"/>
<path d="M167.941 422.019C168.412 423.337 168.694 424.278 168.694 424.937C168.694 425.69 168.6 426.913 168.318 428.419C167.376 428.419 159.093 428.419 143.563 428.419C142.904 426.254 143.28 425.125 144.692 424.937C146.104 424.748 147.233 424.654 148.175 424.466L159.658 419.289C159.846 419.195 160.129 419.289 160.223 419.477L160.976 421.266C162.294 421.831 163.329 422.207 164.082 422.207C164.741 422.207 165.682 421.925 166.812 421.454C167.188 421.36 167.753 421.548 167.941 422.019Z" fill="#02332E"/>
<path d="M193.262 323.468L186.297 350.953H164.742L168.037 323.468H193.262Z" fill="#024944"/>
<path d="M197.215 323.468C199.568 330.434 199.945 339.564 198.533 351.047H176.601L170.577 323.468H197.215Z" fill="#055E5A"/>
<path d="M186.484 267.652C188.555 265.298 189.873 262.381 189.685 259.086C189.026 249.674 175.942 251.744 173.401 256.451C170.859 261.157 171.142 273.205 174.436 274.052C175.754 274.429 178.578 273.582 181.402 271.887L179.613 284.5H190.155L186.484 267.652Z" fill="#BA7C49"/>
<path d="M179.331 250.991C180.743 250.803 184.508 250.615 185.167 250.615C185.638 250.615 186.108 250.709 186.391 250.332C186.579 249.956 186.485 249.485 186.579 249.014C186.673 248.544 186.767 248.167 186.861 247.697C187.144 246.473 187.614 245.249 188.273 244.12C189.497 242.049 191.285 240.355 193.45 239.414C195.898 238.378 198.721 238.096 201.357 238.284C204.181 238.472 206.722 239.414 209.452 240.355C211.993 241.202 214.629 241.484 217.358 241.108C219.994 240.731 222.065 239.225 224.324 237.908C226.677 236.496 229.312 235.554 232.042 235.743C234.583 235.931 236.937 236.966 239.102 238.378C241.078 239.696 242.678 241.296 243.62 243.555C244.655 246.002 244.655 248.638 242.961 250.709C240.608 253.815 236.184 254.568 232.607 254.474C230.536 254.474 228.465 254.003 226.394 253.344C223.759 252.403 221.406 250.803 218.958 249.579C217.829 249.014 216.605 248.45 215.288 248.167C214.064 247.791 212.84 247.697 211.711 248.45C210.581 249.203 209.452 250.05 208.134 250.521C206.816 250.991 205.498 251.274 204.087 251.274C201.451 251.274 198.815 250.426 196.18 249.862C194.109 249.391 191.756 248.92 189.685 249.391C188.744 249.579 187.426 249.956 187.144 250.897C192.603 251.932 194.768 258.615 193.262 263.604C192.415 266.24 187.426 269.44 185.45 268.028C184.226 267.181 184.979 265.957 185.45 265.204C186.391 263.698 186.673 261.816 184.979 260.78C183.473 259.933 181.967 262.004 181.873 262.004C181.496 262.004 177.919 260.027 175.566 257.109C173.213 257.298 172.837 255.697 173.401 254.38C173.966 253.062 177.449 251.368 179.331 250.991Z" fill="#02332E"/>
<path d="M149.399 315.185L137.445 306.055C131.515 304.926 128.691 303.984 129.162 303.231C129.821 302.008 131.421 302.855 131.985 302.102C132.55 301.349 131.138 299.184 129.726 297.113C128.314 295.042 129.632 295.136 130.385 295.325C133.021 296.737 135.656 298.902 138.48 301.631L154.387 308.597L149.399 315.185ZM229.783 337.023C230.63 338.152 235.995 341.07 239.572 342.67C240.984 343.329 240.701 344.553 240.325 344.929C236.842 348.13 233.736 345.776 230.065 344.835C226.018 343.8 227.241 348.6 224.041 347.941C224.512 345.776 225.923 341.541 224.417 339.282C223.759 338.246 218.864 329.304 209.828 312.456L218.864 310.667C224.888 326.669 228.559 335.517 229.783 337.023Z" fill="#BA7C49"/>
<path d="M185.355 276.876L181.59 276.217C173.307 284.218 169.918 303.514 164.459 306.055C159.282 308.502 151.846 306.149 143.092 302.949L140.362 308.973C148.363 317.633 165.4 324.88 172.271 320.739C183.19 314.15 185.731 290.336 185.355 276.876Z" fill="#149295"/>
<path d="M201.922 324.598C186.673 324.598 175.472 324.598 168.319 324.598C166.812 324.598 167.095 322.339 167.283 321.303C169.825 308.408 179.896 294.477 179.896 276.029L189.591 274.523C197.592 287.418 200.321 303.325 201.922 324.598Z" fill="#DDE3E9"/>
<path d="M205.216 311.514C212.088 323.845 217.829 332.787 222.536 338.246L229.595 336.834C225.077 308.691 211.899 287.889 190.156 274.523H190.062H186.297C177.637 304.172 175.19 323.939 179.049 333.822H209.358C208.887 326.669 207.381 319.044 205.216 311.514Z" fill="#26A8A8"/>
<path d="M316.472 374.673C316.472 356.789 301.6 342.294 283.246 342.294C271.762 342.294 261.691 347.942 255.761 356.507C254.631 358.201 243.148 358.766 244.465 360.084C246.63 362.249 251.148 366.014 250.678 368.179C250.207 370.249 250.019 372.508 250.019 374.673C250.019 392.557 264.891 407.053 283.246 407.053C301.6 407.053 316.472 392.557 316.472 374.673Z" fill="#FFF1CF"/>
<path d="M281.363 361.778C280.328 360.554 279.575 359.048 279.669 357.354C280.046 352.46 286.823 353.495 288.14 356.036C289.458 358.484 289.27 364.79 287.576 365.261C286.917 365.449 285.411 364.978 283.905 364.131L284.846 370.72H279.387L281.363 361.778Z" fill="#B28B67"/>
<path d="M283.246 361.496C282.587 362.813 281.646 363.755 280.704 363.755C278.916 363.755 277.598 361.402 277.598 358.766C277.598 358.672 277.598 358.578 277.598 358.484C275.716 359.801 274.21 362.343 271.762 362.343C268.374 362.343 266.962 355.472 271.762 355.472C274.963 355.472 276.563 355.942 277.975 356.601C278.257 355.848 278.634 355.189 279.198 354.719C279.292 354.624 279.481 354.436 279.763 354.342C279.951 354.248 280.045 354.154 280.234 354.154C281.081 353.871 282.304 353.589 283.622 353.589C283.905 353.589 284.093 353.589 284.375 353.589C284.375 352.365 285.411 351.33 286.634 351.33C287.858 351.33 288.893 352.365 288.893 353.589C288.893 354.813 287.952 355.848 286.728 355.848C286.069 356.036 285.128 356.225 284.187 356.319C284.281 356.695 284.375 357.072 284.375 357.542C284.375 357.919 284.375 358.39 284.281 358.86C284.093 358.578 283.81 358.484 283.528 358.484C282.681 358.484 282.116 359.143 282.116 359.896C281.928 360.743 282.493 361.402 283.246 361.496Z" fill="#B50437"/>
<path d="M278.822 366.39C278.916 366.202 278.916 366.014 279.01 365.825L279.198 365.92L279.292 365.825L285.693 366.861C285.693 370.438 288.611 373.826 290.399 376.744C293.223 381.262 298.212 386.251 295.012 392.934C292.094 398.958 284.564 399.993 272.327 395.852C272.327 392.557 274.963 389.357 275.057 385.404C275.151 381.733 275.904 370.249 278.822 366.39Z" fill="#FDA8AD"/>
<path d="M286.823 391.334C287.294 389.075 287.576 387.663 287.67 386.91C291.059 390.769 293.036 392.746 293.6 392.746C294.636 392.84 295.295 391.899 295.577 392.181C295.954 393.216 294.918 395.758 293.036 396.134C292.094 396.322 290.777 394.44 290.212 393.781C289.929 393.593 288.8 392.746 286.823 391.334ZM292.753 379.474C293.6 379.474 294.071 379.85 294.636 380.603C295.2 381.356 295.671 384.839 294.824 384.839C293.977 384.839 290.494 383.521 290.494 382.58C290.494 381.639 292.941 381.262 292.941 380.603C292.847 379.944 291.812 379.474 292.753 379.474Z" fill="#B28B67"/>
<path d="M285.034 394.628C284.94 394.816 284.94 395.005 284.846 395.193C274.774 388.133 274.774 379.662 277.786 370.155C275.527 379.568 276.469 387.475 285.034 394.628Z" fill="#F98791"/>
<path d="M272.327 395.946C272.327 395.946 271.386 404.229 272.421 405.17C273.551 406.111 276.281 406.77 279.575 407.147C282.869 407.429 288.141 407.994 291.906 406.111C295.671 404.229 292.941 396.228 292.941 396.228L272.327 395.946Z" fill="#F24C64"/>
<path d="M375.866 313.868C374.172 329.869 355.064 340.882 333.227 338.529C319.578 337.023 308.095 330.716 301.788 322.339C300.565 320.645 287.011 318.668 288.705 317.727C291.529 316.127 297.27 313.303 296.894 311.326C296.612 309.35 296.517 307.373 296.706 305.396C298.4 289.395 317.508 278.382 339.345 280.735C361.276 283.089 377.654 297.96 375.866 313.868Z" fill="#FFF1CF"/>
<path d="M327.203 307.938C326.826 307.562 326.355 307.185 325.885 306.809L321.837 312.55L322.214 312.927L322.59 313.303L328.332 309.256C328.05 308.879 327.673 308.409 327.203 307.938Z" fill="#F99F5D"/>
<path d="M321.743 302.761C315.907 302.761 311.107 307.562 311.107 313.397C311.107 319.233 315.907 324.034 321.743 324.034C327.579 324.034 332.379 319.233 332.379 313.397C332.379 307.562 327.579 302.761 321.743 302.761ZM321.743 322.151C316.943 322.151 313.084 318.292 313.084 313.492C313.084 308.691 316.943 304.832 321.743 304.832C326.544 304.832 330.403 308.691 330.403 313.492C330.403 318.292 326.544 322.151 321.743 322.151Z" fill="#F77B0B"/>
<path d="M316.19 318.951C316.566 319.327 317.037 319.704 317.507 320.08L321.555 314.339L321.273 313.962L320.896 313.586L315.154 317.633C315.437 318.104 315.813 318.574 316.19 318.951Z" fill="#F99F5D"/>
<path d="M323.061 313.492C323.061 314.245 322.496 314.809 321.743 314.809C320.99 314.809 320.425 314.245 320.425 313.492C320.425 312.739 320.99 312.174 321.743 312.174C322.496 312.174 323.061 312.739 323.061 313.492Z" fill="#F77B0B"/>
<path d="M322.12 313.491C322.12 313.774 321.932 313.962 321.649 313.962C321.367 313.962 321.179 313.774 321.179 313.491C321.179 313.209 321.367 313.021 321.649 313.021C321.932 313.021 322.12 313.209 322.12 313.491Z" fill="#F7931E"/>
<path d="M361.935 307.938C361.559 307.562 361.088 307.185 360.617 306.809L356.57 312.55L356.946 312.927L357.323 313.303L363.065 309.256C362.688 308.879 362.312 308.409 361.935 307.938Z" fill="#F99F5D"/>
<path d="M356.381 302.761C350.546 302.761 345.745 307.562 345.745 313.397C345.745 319.233 350.546 324.034 356.381 324.034C362.217 324.034 367.018 319.233 367.018 313.397C367.112 307.562 362.311 302.761 356.381 302.761ZM356.381 322.151C351.581 322.151 347.722 318.292 347.722 313.492C347.722 308.691 351.581 304.832 356.381 304.832C361.182 304.832 365.041 308.691 365.041 313.492C365.135 318.292 361.182 322.151 356.381 322.151Z" fill="#F77B0B"/>
<path d="M350.922 318.951C351.299 319.327 351.77 319.704 352.24 320.08L356.288 314.339L355.911 313.962L355.535 313.586L349.793 317.633C350.075 318.104 350.452 318.574 350.922 318.951Z" fill="#F99F5D"/>
<path d="M357.7 313.492C357.7 314.245 357.135 314.809 356.382 314.809C355.629 314.809 355.064 314.245 355.064 313.492C355.064 312.739 355.629 312.174 356.382 312.174C357.135 312.174 357.7 312.739 357.7 313.492Z" fill="#F77B0B"/>
<path d="M356.852 313.491C356.852 313.774 356.664 313.962 356.382 313.962C356.099 313.962 355.911 313.774 355.911 313.491C355.911 313.209 356.099 313.021 356.382 313.021C356.664 313.021 356.852 313.209 356.852 313.491Z" fill="#F7931E"/>
<path d="M346.216 299.749L347.722 295.419L348.475 295.702L346.969 299.937C346.781 299.843 346.499 299.749 346.216 299.749Z" fill="#F77B0B"/>
<path d="M344.804 312.833H355.252C355.158 313.021 355.158 313.209 355.158 313.397C355.158 313.586 355.252 313.774 355.252 313.962H344.71C344.804 313.68 344.804 313.303 344.804 313.021C344.804 313.021 344.804 312.927 344.804 312.833Z" fill="#8BA73D"/>
<path d="M347.628 298.808L348.099 297.584L348.193 297.302C348.287 297.208 348.193 297.019 348.004 297.019L347.44 296.831C347.346 296.737 347.157 296.831 347.157 297.019L347.063 297.208L346.781 297.866L344.71 303.796H344.616L344.145 304.926L328.238 297.678L328.52 296.831C328.52 296.737 328.52 296.737 328.52 296.643L329.085 295.043L329.179 294.854C328.803 294.572 328.332 294.29 327.956 294.007C327.579 293.725 327.202 293.348 327.014 292.878C326.826 292.595 326.826 292.219 326.92 292.031C327.202 291.842 327.767 291.842 328.05 291.842C328.897 291.937 329.744 292.125 330.497 292.313C331.156 292.501 331.721 292.69 332.379 292.878C332.474 292.878 332.568 292.972 332.662 292.972L333.038 291.937C332.944 291.937 332.85 291.842 332.756 291.842C332.097 291.654 331.438 291.466 330.779 291.278C330.026 291.089 329.085 290.901 328.144 290.807C327.485 290.807 326.732 290.713 326.167 291.184C325.508 291.748 325.696 292.69 325.979 293.348C326.261 293.913 326.732 294.384 327.202 294.76C327.391 294.949 327.579 295.137 327.861 295.231L327.485 296.266L327.391 296.36L321.743 312.268C322.214 312.268 322.496 312.55 322.779 312.833L327.391 299.937L338.592 311.138C338.78 310.856 339.062 310.574 339.439 310.291L328.52 299.372L327.861 298.619V298.525L343.675 305.773L342.169 309.726C342.545 309.821 342.922 310.009 343.204 310.197L346.969 300.031L355.158 312.738C355.346 312.362 355.629 312.174 356.099 312.08L347.628 298.808Z" fill="#F99F5D"/>
<path d="M331.344 290.995L334.544 291.842C334.827 291.937 334.921 292.125 334.827 292.407L334.733 292.878C334.638 293.16 334.45 293.254 334.168 293.16L330.968 292.313C330.685 292.219 330.591 292.031 330.685 291.748L330.779 291.278C330.779 291.089 331.062 290.901 331.344 290.995Z" fill="#EA6206"/>
<path d="M327.579 296.643H326.073V297.772H327.579V296.643Z" fill="#EA6206"/>
<path d="M326.45 297.208C326.45 298.808 324.661 299.467 324.661 299.467V297.208V294.948C324.567 294.948 326.45 295.513 326.45 297.208Z" fill="#EA6206"/>
<path d="M349.793 296.643C352.24 296.643 352.052 294.855 352.052 294.855C351.958 294.478 351.77 294.102 351.205 294.007C350.546 293.913 349.981 294.007 349.322 294.007C348.569 294.007 347.911 294.007 347.158 294.007H344.428C344.051 294.007 343.769 294.29 343.769 294.572C343.769 294.855 344.051 295.137 344.334 295.137C344.993 295.231 345.652 295.325 346.31 295.608C347.44 295.984 348.475 296.549 349.793 296.643Z" fill="#F77B0B"/>
<path d="M342.262 313.115C342.262 313.586 341.886 314.057 341.321 314.057C340.756 314.057 340.38 313.68 340.38 313.115C340.38 312.645 340.756 312.174 341.321 312.174C341.886 312.174 342.262 312.645 342.262 313.115Z" fill="#F77B0B"/>
<path d="M341.697 313.115C341.697 313.209 341.603 313.397 341.415 313.397C341.227 313.397 341.133 313.303 341.133 313.115C341.133 312.927 341.227 312.833 341.415 312.833C341.509 312.833 341.697 312.927 341.697 313.115Z" fill="#F77B0B"/>
<path d="M338.027 313.021C338.027 314.904 339.533 316.41 341.415 316.41C341.698 316.41 341.886 316.41 342.168 316.315L356.381 314.621C355.628 314.621 355.064 314.056 355.064 313.303C355.064 312.55 355.628 311.986 356.381 311.986L342.074 309.538H341.98H341.886C341.886 309.538 341.886 309.538 341.98 309.538C341.792 309.538 341.698 309.538 341.51 309.538C339.533 309.632 338.027 311.233 338.027 313.021ZM338.686 313.115C338.686 311.609 339.909 310.385 341.415 310.385C342.921 310.385 344.145 311.609 344.145 313.115C344.145 314.621 342.921 315.845 341.415 315.845C339.909 315.845 338.686 314.621 338.686 313.115Z" fill="#F77B0B"/>
<path d="M340.906 313.274L337.335 315.723L337.601 316.111L341.172 313.662L340.906 313.274Z" fill="#F77B0B"/>
<path d="M338.592 315.562H336.709C336.521 315.562 336.427 315.656 336.427 315.845V316.033C336.427 316.221 336.521 316.315 336.709 316.315H338.592C338.78 316.315 338.874 316.221 338.874 316.033V315.845C338.874 315.75 338.78 315.562 338.592 315.562Z" fill="#F77B0B"/>
<path d="M361.653 187.55C361.653 206.658 341.887 222.095 317.414 222.095C302.166 222.095 288.706 216.071 280.799 206.94C279.199 205.152 264.045 204.493 265.833 203.175C268.751 200.916 274.775 196.869 274.116 194.61C273.551 192.351 273.175 189.998 273.175 187.644C273.175 168.537 292.941 153.1 317.414 153.1C341.793 153.1 361.653 168.537 361.653 187.55Z" fill="#FFF1CF"/>
<path d="M303.389 177.761C302.542 177.102 301.601 176.726 300.472 176.726C300.189 176.726 299.813 176.82 299.53 176.538C301.225 175.596 303.484 174.843 305.366 174.561C304.99 175.408 304.237 176.444 303.954 177.385C303.86 177.667 303.672 177.761 303.389 177.761Z" fill="#77057A"/>
<path d="M335.392 176.632C334.263 176.821 333.133 176.915 332.004 177.291C331.627 177.385 331.533 177.479 331.251 177.856C330.215 177.95 330.403 177.385 330.309 177.103C329.933 176.35 329.086 175.409 328.803 174.562C330.686 174.938 333.698 175.597 335.392 176.632Z" fill="#77057A"/>
<path d="M308.472 174.373C314.308 174.091 320.426 174.373 326.262 174.373C326.638 175.032 326.45 175.785 326.638 176.444C326.921 177.95 326.827 178.138 325.321 178.232C322.026 178.515 318.732 179.079 315.343 178.797C312.99 178.609 310.543 178.42 308.19 178.232C307.625 178.232 307.625 177.762 307.719 177.479C307.813 176.35 308.001 175.314 308.472 174.373Z" fill="#77057A"/>
<path d="M336.146 203.269C334.64 204.21 333.039 204.21 331.345 204.116C324.568 203.834 317.697 203.74 310.92 203.834C308.096 203.928 305.272 203.928 302.448 204.21C300.942 204.399 299.625 203.928 298.307 203.175C297.46 202.14 296.801 200.916 296.707 199.504C296.613 198.092 296.895 196.774 296.895 195.363C296.989 195.363 297.177 195.457 297.271 195.457C301.978 197.622 306.872 199.316 312.143 199.598C315.814 199.787 319.485 199.975 323.156 199.504C326.921 199.128 330.404 197.998 333.698 196.116C334.922 195.363 336.052 194.515 337.369 193.951L337.463 194.892C337.558 195.363 337.746 195.927 337.746 196.398C337.84 198.939 338.028 201.293 336.146 203.269Z" fill="#77057A"/>
<path d="M337.369 194.986C338.875 194.703 340.005 193.762 341.322 193.103C341.605 193.009 341.887 192.915 342.17 192.727C342.546 194.515 343.205 196.303 343.487 198.186C343.77 200.633 343.017 201.857 340.569 202.327C339.063 202.61 337.652 203.08 336.146 203.175C338.028 201.292 337.934 198.845 337.652 196.492C337.652 196.021 337.463 195.55 337.369 194.986Z" fill="#E595F9"/>
<path d="M292.188 192.821C293.412 193.103 294.259 193.95 295.388 194.421C295.953 194.609 296.424 194.892 296.989 194.986C296.894 195.08 296.894 195.268 296.8 195.362C296.706 196.774 296.424 198.092 296.612 199.504C296.706 200.916 297.365 202.045 298.212 203.175C296.33 202.986 294.541 202.516 292.753 202.045C291.341 201.669 290.776 200.539 290.87 198.845C290.964 197.339 291.435 195.927 291.812 194.515C292 193.95 292.094 193.386 292.188 192.821Z" fill="#E595F9"/>
<path d="M303.389 177.761C302.73 177.949 302.73 177.761 301.318 178.137C299.53 178.514 298.306 178.984 297.365 180.302C296.047 182.185 295.953 184.349 296.235 186.514C296.612 189.338 297.459 192.068 296.894 194.986C296.329 194.892 295.859 194.609 295.294 194.421C294.165 193.95 293.317 193.103 292.094 192.821C292.47 190.185 292.094 187.456 292.282 184.82C292.47 182.279 293.223 180.02 295.2 178.325C296.424 177.29 297.93 176.819 299.436 176.443C299.718 176.725 300 176.631 300.377 176.631C301.6 176.725 302.542 177.102 303.389 177.761Z" fill="#E595F9"/>
<path d="M333.792 178.325C333.415 177.949 332.945 178.043 332.474 177.949C332.097 177.949 331.344 177.949 331.062 177.666C331.25 177.29 331.815 177.102 332.192 177.007C333.133 176.725 334.356 176.537 335.392 176.631C336.333 176.725 337.274 177.196 338.121 177.666C339.063 178.231 339.91 179.078 340.475 180.019C341.416 181.525 341.887 183.22 341.887 184.914C341.981 187.55 341.792 190.185 342.075 192.821C341.792 192.915 341.51 193.009 341.228 193.197C339.91 193.856 338.78 194.703 337.274 195.08C337.274 194.797 337.274 194.421 337.18 194.138C337.274 193.009 337.18 191.974 337.274 190.844C337.651 188.585 338.121 186.232 338.027 183.879C338.027 181.055 336.145 178.702 333.792 178.325Z" fill="#E595F9"/>
<path d="M299.341 178.702C298.588 179.079 297.929 179.644 297.459 180.397C296.141 182.279 296.047 184.444 296.329 186.609C296.706 189.433 297.553 192.162 296.988 195.08C296.894 195.174 296.894 195.363 296.8 195.457C296.894 195.457 297.082 195.551 297.176 195.551C301.883 197.716 306.777 199.41 312.048 199.693C315.719 199.881 319.39 200.069 323.061 199.598C326.826 199.222 330.309 198.092 333.603 196.21C334.827 195.457 335.956 194.61 337.274 194.045C337.368 192.915 337.274 191.88 337.368 190.751C337.745 188.492 338.215 186.138 338.121 183.785C337.933 181.056 336.521 179.173 333.98 178.138C332.003 177.573 331.815 177.855 330.874 177.761C330.403 177.761 330.403 177.385 330.309 177.102C328.52 172.961 325.791 169.102 323.061 165.525C322.308 165.525 322.026 165.995 321.838 166.56C322.873 168.443 324.002 170.325 325.038 172.208C325.791 173.525 326.261 174.937 326.544 176.349C326.826 177.855 326.732 178.043 325.226 178.138C321.932 178.42 318.637 178.985 315.249 178.702C312.896 178.514 310.448 178.326 308.095 178.138C307.53 178.138 307.53 177.667 307.624 177.385C308.095 174.655 309.225 172.302 310.542 169.949C311.201 168.725 311.954 167.501 312.613 166.372C312.048 166.184 311.86 165.431 311.201 165.525C311.013 165.525 310.636 166.372 310.448 166.466C310.166 166.842 309.978 167.125 309.695 167.501C309.225 168.16 308.754 168.913 308.189 169.666C307.342 170.89 306.589 172.114 305.836 173.337C305.083 174.655 304.424 175.879 303.859 177.29C303.765 177.573 303.577 177.761 303.295 177.667C301.6 177.761 299.341 178.702 299.341 178.702ZM308.095 178.514C308.472 178.514 308.942 178.608 309.319 178.702C308.942 178.608 308.566 178.608 308.095 178.514Z" fill="#50165E"/>
<path d="M323.062 165.525C322.309 165.525 322.026 165.996 321.838 166.56C319.203 165.054 316.379 164.584 313.555 166.09C313.273 166.278 312.99 166.278 312.708 166.278C312.143 166.09 311.955 165.337 311.296 165.431C311.014 164.395 311.296 163.737 312.331 163.172C313.367 162.607 314.496 162.419 315.626 162.325C317.791 162.231 319.861 162.136 321.932 162.984C323.062 163.642 323.344 164.207 323.062 165.525Z" fill="#77057A"/>
<path d="M320.332 185.856H314.025C313.555 185.856 313.084 185.48 313.084 184.915V182.844C313.084 182.279 313.555 181.809 314.119 181.809H320.332C320.896 181.809 321.367 182.279 321.367 182.844V184.821C321.367 185.385 320.896 185.856 320.332 185.856Z" fill="#77057A"/>
<path d="M82.3809 212.682C82.3809 221.436 89.2521 229.154 99.8884 233.955C102.336 235.084 100.735 241.767 101.206 242.897C101.677 244.026 110.619 237.531 112.125 237.814C116.266 238.661 120.69 239.037 125.208 239.037C148.834 239.037 168.036 227.272 168.036 212.682C168.036 198.092 148.834 186.327 125.208 186.327C101.583 186.327 82.3809 198.187 82.3809 212.682Z" fill="#FFF1CF"/>
<path d="M120.973 199.88H109.771V224.73H120.973V199.88Z" fill="#3E2884"/>
<path d="M131.703 199.88H120.502V224.73H131.703V199.88Z" fill="white"/>
<path d="M142.998 199.88H131.797V224.73H142.998V199.88Z" fill="#ADA8D4"/>
</g>
<defs>
<linearGradient id="paint0_linear" x1="191.041" y1="578.222" x2="194.624" y2="368.99" gradientUnits="userSpaceOnUse">
<stop stop-color="white"/>
<stop offset="1" stop-color="white" stop-opacity="0"/>
</linearGradient>
</defs>
</svg>
