<svg width="360" height="280" viewBox="0 0 360 280" fill="none" xmlns="http://www.w3.org/2000/svg">
<g clip-path="url(#clip0)">
<path d="M360 205V280H0V205" fill="#FC7660"/>
<path d="M360 0H0V196H360V0Z" fill="#F9BAB7"/>
<path d="M360 196H0V205.173H360V196Z" fill="#F9897D"/>
<path opacity="0.4" d="M28.4966 -22.0105L0 95.3954C0 95.3954 59.5769 122.182 90.0492 95.3954L65.4282 -26L28.4966 -22.0105Z" fill="url(#paint0_linear)"/>
<path opacity="0.4" d="M118.547 -22.0105L90.0508 95.3954C90.0508 95.3954 149.628 122.182 180.1 95.3954L155.479 -26L118.547 -22.0105Z" fill="url(#paint1_linear)"/>
<path opacity="0.4" d="M208.594 -22.0105L180.098 95.3954C180.098 95.3954 239.675 122.182 270.147 95.3954L245.526 -26L208.594 -22.0105Z" fill="url(#paint2_linear)"/>
<path opacity="0.4" d="M298.645 -22.0105L270.148 95.3954C270.148 95.3954 329.725 122.182 360.198 95.3954L335.577 -26L298.645 -22.0105Z" fill="url(#paint3_linear)"/>
<path d="M14.1851 142.173C15.14 141.912 16.529 141.432 16.9196 140.473C17.3537 139.427 16.7026 137.989 16.1384 137.204C15.2703 136.027 14.3154 134.894 13.9247 133.499C13.3171 131.494 14.0983 129.271 16.2252 128.486C17.0499 128.181 17.8745 128.05 18.786 128.006C19.8277 127.963 20.4788 128.137 21.1299 128.704L20.7826 128.268C22.8661 128.965 23.0397 131.581 23.3869 133.281C23.5605 134.153 24.1682 135.242 23.9078 136.201C23.6473 137.248 21.7375 137.422 21.8678 138.381C23.2567 138.468 24.255 138.294 24.7759 139.776C24.9929 140.343 25.0363 140.953 25.2533 141.563C25.5137 142.304 25.9044 143.002 26.2082 143.699C26.7725 144.876 27.4235 145.879 28.2482 146.881C29.1163 147.884 29.2031 148.494 29.2031 149.802C29.2031 151.022 29.1163 151.938 28.7257 153.071C28.4218 153.987 27.9878 154.858 27.7708 155.774C27.3367 157.779 27.8576 159.61 28.118 161.528C28.0312 161.441 27.9444 161.353 27.8576 161.266C28.0746 161.964 28.1614 162.705 28.1614 163.489C28.1614 165.538 28.1614 167.587 27.9878 169.636C27.8142 171.815 26.9027 173.995 25.9478 176C25.1231 177.7 23.821 179.574 22.5188 180.969C21.3035 182.233 19.4805 182.277 17.9613 181.362C17.0933 180.839 16.8762 180.621 17.0933 179.749C17.3103 178.79 17.4405 178.005 17.4405 177.003C17.4405 175.477 17.4405 173.864 16.3554 172.687C15.5307 171.815 14.489 171.074 13.8813 170.028C12.9264 168.372 12.7094 166.323 13.2302 164.492C13.8813 162.269 15.7043 161.223 17.3103 159.697C18.4388 158.651 18.2652 157.343 18.0916 155.992V155.948C17.9613 155.861 17.8745 155.817 17.9613 155.817L18.0048 155.643C17.9179 155.338 17.7877 154.989 17.7009 154.684C17.1367 152.81 16.6158 150.892 15.3137 149.366C14.2286 148.058 13.0566 146.925 12.6226 145.225C12.3188 143.83 12.666 142.566 14.1851 142.173Z" fill="#F9E8E8"/>
<path d="M24.6452 162.356C25.0793 160.438 25.2095 158.52 25.3397 156.602C25.4699 154.553 25.6869 152.505 25.5567 150.412C25.4265 148.276 24.8622 146.14 24.732 144.004C24.6452 142.261 24.6018 140.517 24.298 138.773C24.515 138.948 24.6886 139.253 24.8188 139.602C25.0359 140.168 25.0793 140.779 25.2963 141.389C25.5567 142.13 25.9473 142.827 26.2512 143.525C26.8154 144.702 27.4665 145.704 28.2912 146.707C29.1593 147.71 29.2461 148.32 29.2461 149.628C29.2461 150.848 29.1593 151.764 28.7686 152.897C28.4648 153.812 28.0308 154.684 27.8137 155.6C27.3797 157.605 27.9006 159.436 28.161 161.354C28.0742 161.266 27.9874 161.179 27.9006 161.092C28.1176 161.789 28.2044 162.53 28.2044 163.315C28.2044 165.364 28.2044 167.413 28.0308 169.461C27.8571 171.641 26.9457 173.821 25.9908 175.826C25.1661 177.526 23.8639 179.4 22.5618 180.795C21.3465 182.059 19.5235 182.103 18.0043 181.187C17.1362 180.664 16.9192 180.446 17.1362 179.574C17.3532 178.615 17.4835 177.787 17.4835 176.828C17.4835 175.608 17.4835 174.344 16.9192 173.297C20.7388 170.769 23.7337 166.584 24.6452 162.356Z" fill="#F9897D"/>
<path d="M21.175 139.646C21.175 140.038 21.8261 140.648 22.0865 141.084C22.4338 141.695 22.6942 142.348 22.9546 143.002C23.5623 144.79 24.6474 147.405 24.0397 149.279C23.1282 151.982 20.1767 148.451 19.7861 147.143C18.9614 144.354 20.2635 142.13 21.0014 139.559L21.175 139.646Z" fill="#F9897D"/>
<path d="M25.125 139.557C25.0382 139.513 24.9948 139.47 24.908 139.383C24.8212 139.295 24.7778 139.165 24.691 139.121L25.125 139.557Z" fill="#F9F4CD"/>
<path d="M24.9063 139.384C25.6876 140.386 25.948 142.653 26.2952 143.743C26.9029 145.53 27.1199 147.448 27.7276 149.235C27.8144 149.279 27.9012 149.235 27.988 149.279C30.1583 152.418 31.9378 155.861 34.2383 158.913C33.7174 159.305 33.023 160.046 32.3719 160.002C31.5906 158.695 30.1583 157.561 29.0297 156.471C28.2919 155.774 27.5974 155.033 26.8161 154.51C26.0782 153.987 25.6008 153.9 25.2969 153.115C24.6459 151.415 24.2552 149.584 23.474 147.884C22.6493 146.097 21.9982 144.222 21.6076 142.348C21.3905 141.302 20.9131 139.82 21.9548 138.992C23.0399 138.207 24.0382 138.73 24.9063 139.384Z" fill="#F9E8E8"/>
<path d="M1.38005 165.887C1.77069 164.405 1.8575 163.054 2.42176 161.572C3.63709 158.608 5.28646 155.818 6.45838 152.985C7.63031 150.195 8.67202 147.013 10.278 144.441C10.8856 143.438 12.2312 142 13.6201 142.436C15.1827 142.959 16.3112 145.531 15.5733 146.925C15.3997 147.274 14.7053 148.146 14.575 148.146L14.7487 148.32C13.2295 148.277 11.6669 151.372 11.0593 152.461C10.1912 153.944 9.75713 155.426 9.14947 156.951C7.89074 159.916 5.15625 161.964 4.46178 165.19C4.07114 167.064 4.37497 169.288 3.24645 170.988C2.72559 170.639 3.20304 168.808 2.33495 169.07C2.07452 169.157 1.29325 170.377 1.11963 170.639C0.728987 171.162 0.338343 172.252 -0.225916 171.467C-0.573153 170.944 -0.312727 169.767 -0.356131 169.157C-0.616558 169.331 -0.963795 169.68 -1.31103 169.723C-1.35443 168.067 1.03281 167.282 1.38005 165.887Z" fill="#F9E8E8"/>
<path d="M6.50175 190.559C7.54346 188.597 8.8456 186.505 10.1043 184.674C11.146 183.192 12.535 182.102 13.7937 180.795C14.4448 180.141 15.3129 179.313 15.3129 178.397C15.3129 177.787 14.8788 177.395 14.6618 176.872C14.4014 176.13 14.4882 175.695 14.7486 174.997C15.1393 174.082 15.3997 173.559 15.1393 172.512C15.009 172.12 14.8788 171.815 14.6618 171.423C14.5316 171.205 14.6618 170.987 14.575 171.205L14.4014 171.03C14.4014 170.9 14.4014 170.812 14.4014 170.682C15.7469 170.812 17.3963 172.077 18.2644 173.079C19.2193 174.213 19.6533 175.651 20.478 176.872C20.8687 177.438 21.2159 177.961 21.6499 178.484C21.9972 178.877 22.7351 179.356 22.9087 179.836C23.2559 180.751 21.867 182.843 21.4329 183.715C20.9555 184.674 20.8253 185.328 21.4763 186.244C22.3878 187.595 22.2576 188.772 21.9104 190.385C21.6065 191.736 20.5214 192.869 20.478 194.177C20.3912 195.79 21.1291 197.49 21.7367 198.929C22.4746 200.672 23.3427 202.547 24.341 204.159C25.1657 205.467 26.5547 206.513 27.3359 207.777C26.6849 207.821 26.1206 208.301 25.4695 208.431C24.6883 208.606 23.8636 208.519 23.0389 208.562C20.8253 208.78 18.6984 209.085 16.5282 209.521C13.7937 210.088 10.4516 210.262 7.67367 209.87C6.15451 209.652 4.93919 208.998 3.42003 208.911C3.50684 207.734 3.203 206.426 3.1162 205.206C2.98598 202.895 3.07279 200.672 3.68046 198.405C4.46174 195.659 5.15621 193.087 6.50175 190.559Z" fill="#F9E8E8"/>
<path d="M14.3151 180.926C15.0964 180.097 15.7041 179.095 15.4436 177.874C15.2266 176.872 14.0547 175.825 15.1832 174.866L15.27 174.779C15.27 176.087 15.6607 176.959 16.5288 178.005C17.3969 179.051 18.699 179.574 19.5671 180.577C20.4352 181.536 19.8709 182.103 18.699 181.797C17.8309 181.536 17.31 180.708 16.3551 180.751C14.2283 180.838 16.3117 184.326 16.876 185.241C17.5705 186.374 18.4386 187.377 19.133 188.467C19.6973 189.339 19.8709 190.646 18.3952 190.036C17.3535 189.6 16.442 188.118 15.7041 187.29C15.1832 186.723 14.6624 185.503 13.9245 185.241C11.8845 184.456 13.1432 188.118 13.0564 188.816C12.2317 188.903 12.1883 187.857 11.6241 187.551C11.1032 187.203 10.5389 187.464 9.97468 187.551C9.80106 186.592 11.1466 184.849 11.6675 184.064C12.4053 182.844 13.3602 181.972 14.3151 180.926Z" fill="#F9897D"/>
<path d="M33.9785 158.825L33.8916 158.738C35.4108 159.087 36.6695 159.479 37.8415 160.438C38.4057 160.918 39.0568 160.918 39.5776 161.354C39.8815 161.615 40.6628 162.967 40.793 163.359C40.1419 163.272 39.7079 162.618 39.1436 162.4C39.1002 162.879 39.2738 163.664 39.1436 164.1C38.8398 164.928 38.753 164.449 38.3189 163.838C37.7981 163.097 36.7563 160.787 36.8866 162.967C36.3223 162.923 36.7563 162.4 36.4091 162.182C36.1921 162.008 35.6278 162.138 35.324 162.138C35.7146 162.487 37.8849 163.577 37.6244 164.231C37.4508 164.623 35.1504 163.359 34.7597 163.141C33.8482 162.661 32.9367 161.833 32.5461 160.874C32.0687 159.828 32.7197 158.738 33.9785 158.825Z" fill="#F9E8E8"/>
<path d="M9.01924 204.03C12.1878 203.332 15.7035 203.201 18.9589 203.332C20.2176 203.376 23.1257 203.289 23.907 204.248L23.5164 203.594C26.5981 203.594 34.0203 206.384 31.5896 210.525C30.1573 212.966 26.2074 212.181 23.9504 211.963C20.1742 211.614 16.3546 211.832 12.5784 211.832C10.1043 211.832 0.815779 213.053 1.11961 208.999C1.38004 205.599 6.15454 204.684 9.01924 204.03Z" fill="#F9E8E8"/>
<path d="M3.24969 205.947C3.20629 205.685 3.20629 205.424 3.16289 205.162C3.03267 202.852 3.11948 200.629 3.72715 198.362C4.16119 196.706 4.59523 195.093 5.15949 193.523C6.37482 197.272 8.67526 200.542 12.1042 203.157C17.5732 207.298 25.0388 210.132 32.0703 209.085C32.0269 209.565 31.8967 210.044 31.5929 210.567C30.1605 213.009 26.2107 212.224 23.9103 212.006C20.1341 211.657 16.3145 211.875 12.5383 211.875C10.0642 211.875 0.775637 213.096 1.07947 209.042C1.20968 207.647 2.07777 206.644 3.24969 205.947Z" fill="#F9897D"/>
<path d="M-4.99701 211.613H38.668V218.937H-4.99701V211.613Z" fill="#F9BAB7"/>
<path d="M-4.99701 215.275H38.668V218.937H-4.99701V215.275Z" fill="#F9E8E8"/>
<path d="M2.2961 218.938H31.9414V268.631H2.2961V218.938Z" fill="#F9BAB7"/>
<path d="M-1.04923 265.361H35.3672V270.069H-1.04923V265.361Z" fill="#F9BAB7"/>
<path d="M-1.04923 265.361H35.3672V266.146H-1.04923V265.361Z" fill="#F9E8E8"/>
<path d="M29.1618 220.07C29.7261 220.07 30.1602 220.506 30.1602 221.029V263.312C30.1602 263.836 29.6827 264.271 29.1618 264.271C28.5976 264.271 28.1635 263.836 28.1635 263.312V221.029C28.1635 220.506 28.5976 220.07 29.1618 220.07Z" fill="#F9E8E8"/>
<path d="M25.0369 220.07C25.6011 220.07 26.0352 220.506 26.0352 221.029V263.312C26.0352 263.836 25.6011 264.271 25.0369 264.271C24.4726 264.271 24.0385 263.836 24.0385 263.312V221.029C23.9951 220.506 24.4726 220.07 25.0369 220.07Z" fill="#F9E8E8"/>
<path d="M20.9587 220.07C21.523 220.07 21.957 220.506 21.957 221.029V263.312C21.957 263.836 21.523 264.271 20.9587 264.271C20.3945 264.271 19.9604 263.836 19.9604 263.312V221.029C19.9604 220.506 20.4379 220.07 20.9587 220.07Z" fill="#F9E8E8"/>
<path d="M16.8337 220.07C17.398 220.07 17.832 220.506 17.832 221.029V263.312C17.832 263.836 17.398 264.271 16.8337 264.271C16.2695 264.271 15.8354 263.836 15.8354 263.312V221.029C15.8354 220.506 16.2695 220.07 16.8337 220.07Z" fill="#F9E8E8"/>
<path d="M13.1892 220.07C13.7535 220.07 14.1875 220.506 14.1875 221.029V263.312C14.1875 263.836 13.7535 264.271 13.1892 264.271C12.6249 264.271 12.1909 263.836 12.1909 263.312V221.029C12.1475 220.506 12.6249 220.07 13.1892 220.07Z" fill="#F9E8E8"/>
<path d="M9.45482 220.07C10.0191 220.07 10.4531 220.506 10.4531 221.029V263.312C10.4531 263.836 9.97567 264.271 9.45482 264.271C8.89056 264.271 8.45651 263.836 8.45651 263.312V221.029C8.45651 220.506 8.89056 220.07 9.45482 220.07Z" fill="#F9E8E8"/>
<path d="M5.41966 220.07C5.98392 220.07 6.41797 220.506 6.41797 221.029V263.312C6.41797 263.836 5.98392 264.271 5.41966 264.271C4.8554 264.271 4.42136 263.836 4.42136 263.312V221.029C4.37795 220.506 4.8554 220.07 5.41966 220.07Z" fill="#F9E8E8"/>
<path d="M330.648 139.52C330.899 138.981 331.149 138.226 331.077 137.616C330.934 136.753 329.968 136.681 329.181 136.609C328.501 136.574 327.893 136.681 327.75 137.436C327.643 138.119 328.108 138.478 328.537 138.945C328.859 139.304 330.29 140.562 330.648 139.52Z" fill="#3E0444"/>
<path d="M330.789 134.994C330.431 134.994 330.109 135.066 329.751 135.174C329.393 135.282 329 135.425 328.785 135.749C328.642 135.964 328.57 136.216 328.892 136.252C329.465 136.36 330.002 136.252 330.574 136.216C331.111 136.18 331.612 136.252 332.077 136.252" fill="#3E0444"/>
<path d="M346.283 71.4316H210.539V123.208H346.283V71.4316Z" fill="#F9897D"/>
<path d="M346.355 113.938H210.539V140.886H346.355V113.938Z" fill="#69BFF9"/>
<path d="M225.777 103.84L230.071 118.967L233.184 130.106H235.473L232.146 103.84H225.777Z" fill="#FC4E24"/>
<path d="M224.634 103.84C224.527 111.637 224.205 115.877 224.098 116.595C223.99 117.314 222.416 121.805 219.375 130.106H221.736C225.6 122.129 227.783 117.637 228.248 116.595C228.713 115.553 230.109 111.314 232.184 103.84H224.634Z" fill="#F96353"/>
<path d="M219.16 132.261L219.267 129.781H221.736C222.917 130.608 224.455 131.29 226.352 131.793V132.261H221.844L220.305 132.009V132.261H219.16Z" fill="#FCA19A"/>
<path d="M232.863 132.261L232.971 129.781H235.439C236.62 130.608 238.159 131.29 240.055 131.793V132.261H235.547L234.008 132.009V132.261H232.863Z" fill="#FCA19A"/>
<path d="M226.997 90.2225C228.356 90.2225 228.857 88.6056 229.608 87.7073C230.145 87.0605 231.111 87.2761 231.362 86.3778C232.077 84.1142 230.181 82.5332 227.748 82.5332C225.315 82.5332 223.669 83.9345 223.311 86.0185C222.954 88.1025 224.564 90.2225 226.997 90.2225Z" fill="#89130A"/>
<path d="M227.138 88.7861C226.601 88.1393 226.208 87.3488 226.279 86.4865C226.458 83.9354 229.964 84.5103 230.68 85.8038C231.36 87.0973 231.288 90.3311 230.394 90.5826C230.036 90.6904 229.285 90.4389 228.533 89.9718L228.998 93.3853H226.172L227.138 88.7861Z" fill="#FCD6D6"/>
<path d="M228.321 87.1674C228.214 87.0956 228.106 87.0956 227.963 87.0956C227.57 87.0956 227.248 87.419 227.248 87.8142C227.248 87.9579 227.319 88.1376 227.391 88.2454C227.212 88.5328 227.105 88.8203 227.069 89.1437C226.461 89.1437 224.278 86.88 226.461 84.7241C228.643 82.5683 231.792 85.6224 230.826 85.8021C230.289 85.8739 229.216 86.4129 228.321 87.1674Z" fill="#89130A"/>
<path d="M228.712 91.9476C230.537 95.7922 230.859 97.1576 234.687 100.212L233.256 102.044C228.998 100.248 229.499 100.643 228.39 97.0139C228.104 96.1156 227.925 93.2052 227.746 91.6602L228.712 91.9476Z" fill="#89130A"/>
<path d="M223.633 104.666H232.756C230.681 98.3425 229.536 94.8572 229.501 92.5216C229.501 92.4138 229.286 92.1983 229.179 92.2342C228.463 92.4498 227.819 91.5156 226.996 91.1562C224.814 94.6056 224.062 98.9174 223.633 104.666Z" fill="#F2F2F2"/>
<path d="M236.351 93.6077L236.215 93.9785L236.987 94.2646L237.123 93.8938L236.351 93.6077Z" fill="#89130A"/>
<path d="M235.671 95.6976L235.535 96.0684L236.307 96.3545L236.443 95.9838L235.671 95.6976Z" fill="#89130A"/>
<path d="M235.011 97.7776L234.875 98.1484L235.647 98.4343L235.783 98.0634L235.011 97.7776Z" fill="#89130A"/>
<path d="M234.324 99.8655L234.188 100.236L234.96 100.522L235.096 100.151L234.324 99.8655Z" fill="#89130A"/>
<path d="M233.648 101.946L233.512 102.316L234.284 102.603L234.42 102.232L233.648 101.946Z" fill="#89130A"/>
<path d="M233.186 105.458C233.114 105.673 233.007 105.961 233.364 106.069C233.615 106.14 233.794 106.033 233.865 105.494C234.009 104.236 234.975 100.391 235.44 99.3854C235.941 98.3793 236.227 97.8404 237.264 97.2295L237.336 97.4811C237.443 97.1936 237.586 96.978 237.765 96.9421C238.373 96.7624 239.268 97.9482 239.733 99.5651C240.198 101.182 240.055 102.655 239.447 102.835C239.304 102.871 239.161 102.835 239.018 102.763L239.053 102.943C239.053 102.943 237.479 102.404 237.121 103.769C236.942 104.524 235.547 109.051 232.864 108.368C230.86 107.829 230.288 106.608 230.932 104.811C232.076 101.685 233.651 96.4031 234.796 93.4568C234.939 93.0615 235.44 91.8758 234.187 91.4806C232.184 90.7979 232.184 90.7979 231.504 90.5104L231.826 89.7559C231.826 89.7559 232.756 90.0792 233.686 90.3667C235.726 90.9775 237.658 91.4446 236.585 94.4988C236.585 94.6425 233.794 102.979 233.186 105.458Z" fill="#F9BAB7"/>
<path d="M237.585 96.9414C237.62 96.9414 237.62 96.9414 237.656 96.9414C237.155 97.2648 237.084 98.6302 237.513 100.139C237.978 101.72 238.801 102.87 239.409 102.762C239.374 102.798 239.302 102.798 239.266 102.834C238.586 103.014 237.656 101.864 237.191 100.247C236.762 98.6302 236.941 97.157 237.585 96.9414Z" fill="#89130A"/>
<path d="M239.178 102.032C239.539 101.928 239.546 100.839 239.194 99.5987C238.843 98.3582 238.265 97.4363 237.904 97.5396C237.543 97.6428 237.535 98.7322 237.887 99.9726C238.239 101.213 238.817 102.135 239.178 102.032Z" fill="#89130A"/>
<path d="M235.044 106.177C235.545 106.32 236.261 106.248 236.69 105.925C236.869 105.781 236.941 105.494 236.654 105.242L236.511 105.53C236.154 105.745 235.545 105.638 235.116 105.53C234.722 105.422 234.186 105.135 233.971 104.775L234.007 104.56C233.792 104.524 233.577 104.811 233.685 105.135C233.899 105.638 234.508 106.033 235.044 106.177Z" fill="#89130A"/>
<path d="M232.004 105.313C232.505 105.457 233.041 105.421 233.471 105.098C233.65 104.954 233.721 104.667 233.435 104.415L233.363 104.703C233.006 104.918 232.648 104.918 232.254 104.81C231.861 104.703 231.324 104.379 231.252 104.092L231.324 103.876C231.109 103.84 230.859 104.128 230.93 104.451C231.038 104.882 231.467 105.17 232.004 105.313Z" fill="#89130A"/>
<path d="M231.648 90.5103C231.648 90.5103 231.004 90.0791 230.754 89.4683L230.897 89.2168L232.006 89.5761L231.648 90.5103Z" fill="#89130A"/>
<path d="M234.465 93.2426L234.328 93.6133L235.1 93.9L235.236 93.5293L234.465 93.2426Z" fill="#89130A"/>
<path d="M233.808 95.3303L233.672 95.7012L234.444 95.987L234.58 95.6162L233.808 95.3303Z" fill="#89130A"/>
<path d="M233.128 97.4222L232.992 97.793L233.764 98.0789L233.9 97.7081L233.128 97.4222Z" fill="#89130A"/>
<path d="M232.418 99.4886L232.281 99.8594L233.053 100.146L233.19 99.7748L232.418 99.4886Z" fill="#89130A"/>
<path d="M231.613 101.935L232.365 102.223L232.508 101.828L231.756 101.576L231.613 101.935Z" fill="#89130A"/>
<path d="M233.579 91.7321C233.4 91.4805 232.828 91.4446 232.828 90.9416C233.043 90.9775 233.329 91.229 233.579 91.0494C233.722 90.9416 233.758 90.5463 233.651 90.4026C233.472 90.187 232.542 90.1511 232.613 89.684C233.257 89.648 234.259 89.5043 234.76 89.8996C235.404 90.4385 235.368 91.5883 235.118 92.307C234.867 92.307 234.617 92.0554 234.331 91.9476C234.044 91.8758 233.758 91.8758 233.579 91.7321Z" fill="#FCD6D6"/>
<path d="M227.747 91.1211C230.359 91.157 231.861 100.104 233.579 91.7319L235.189 92.0553C236.226 101.793 231.611 101.936 229.858 99.6009C230.072 103.949 230.609 107.614 227.496 107.614C225.994 107.614 224.384 107.614 222.63 107.614C221.843 102.403 223.883 95.1813 225.779 91.5523C225.851 91.4085 225.994 91.157 226.351 91.157C226.638 91.1211 227.103 91.1211 227.747 91.1211Z" fill="#B2230B"/>
<path d="M233.828 102.439C233.184 101.9 233.255 100.57 233.935 100.103C234.937 99.4204 235.044 100.678 234.687 101.612C234.543 101.972 234.114 102.654 233.828 102.439Z" fill="#FCD6D6"/>
<path d="M260.594 102.656L266.39 117.424L270.29 129.928H271.828L265.889 102.656H260.594Z" fill="#FC4E24"/>
<path d="M259.415 102.656C259.343 107.83 258.449 114.837 258.306 115.16C258.199 115.376 254.907 118.107 248.359 123.389L249.433 124.538C257.161 120.011 261.168 117.46 261.526 116.849C262.063 115.951 263.816 107.651 265.211 102.656H259.415Z" fill="#FC4E24"/>
<path d="M248.212 123.009C247.845 123.13 247.607 123.237 247.47 123.353C247.306 123.491 247.082 123.727 246.826 124.036C246.987 124.229 248.413 125.935 251.103 129.155C251.657 128.923 251.835 128.632 251.632 128.334C251.43 128.036 251.25 127.765 251.117 127.549L250.186 124.253C250.167 124.175 250.094 124.143 250.039 124.19L249.517 124.348C249.15 124.188 248.911 124.014 248.773 123.849C248.658 123.712 248.552 123.473 248.478 123.16C248.514 123.036 248.367 122.972 248.212 123.009C248.239 122.986 248.239 122.986 248.212 123.009Z" fill="#FCA19A"/>
<path d="M269.683 129.317C269.54 129.676 269.469 129.928 269.469 130.107C269.469 130.323 269.505 130.646 269.576 131.041C269.827 131.041 272.045 131.041 276.231 131.041C276.41 130.466 276.302 130.143 275.945 130.107C275.587 130.071 275.265 130.035 275.014 129.999L271.902 128.598C271.83 128.562 271.759 128.598 271.759 128.67L271.544 129.173C271.186 129.353 270.9 129.424 270.685 129.424C270.506 129.424 270.256 129.353 269.97 129.209C269.862 129.137 269.719 129.209 269.683 129.317Z" fill="#FCA19A"/>
<path d="M264.495 128.634L271.83 127.844L266.391 102.656H259.844L264.495 128.634Z" fill="#B2230B"/>
<path d="M249.895 121.555L254.689 127.268C259.734 121.735 262.703 118.106 263.526 116.417C264.349 114.728 265.136 110.165 265.78 102.691H258.41C258.052 109.267 257.802 112.68 257.658 113.004C257.551 113.291 254.939 116.13 249.895 121.555Z" fill="#9E180A"/>
<path d="M261.489 87.1337C260.953 86.487 260.559 85.6965 260.631 84.8341C260.81 82.283 264.316 82.8579 265.032 84.1515C265.711 85.445 265.64 88.6788 264.745 88.9303C264.388 89.0381 263.636 88.7866 262.885 88.3195L263.35 91.7329H260.523L261.489 87.1337Z" fill="#B2230B"/>
<path d="M263.742 84.2954C263.349 84.511 263.098 84.9062 262.74 85.4452C262.669 85.4092 262.562 85.4092 262.49 85.4092C262.096 85.4092 261.774 85.7326 261.774 86.1279C261.774 86.3434 261.846 86.5231 261.989 86.6309C261.81 86.8465 261.631 87.098 261.417 87.3495C260.629 86.8824 259.735 85.4811 260.486 84.1516C261.13 81.4927 265.102 83.1456 265.817 82.6785C265.996 83.6486 265.495 84.4391 263.742 84.2954Z" fill="#F9BAB7"/>
<path d="M267.355 87.1683C267.355 86.9528 267.749 86.5934 267.856 86.4138C268.178 86.0545 268.572 85.6952 269.073 85.5874C269.431 85.5155 270.182 85.4077 270.218 85.9467C270.218 86.2341 269.86 86.5216 269.681 86.7372C269.502 86.9887 269.395 87.4558 269.18 87.6355C268.965 87.8151 268.214 87.887 267.999 87.7073" fill="#89130A"/>
<path d="M261.521 90.3319C262.738 90.2241 264.026 91.1224 265.207 90.4756C265.529 90.296 265.815 89.9726 265.994 89.6492C266.387 89.0025 266.566 88.2838 266.96 87.6371C267.21 87.17 267.496 86.9903 268.069 87.0622C268.57 87.134 269.106 87.17 269.607 87.2418C269.822 87.2778 268.462 92.4159 268.284 92.9189C268.105 93.4579 267.854 93.9969 267.389 94.3562C266.852 94.7874 266.137 94.9311 265.457 94.8592C264.741 94.7874 263.883 94.5718 263.239 94.2125C262.38 93.7094 261.951 92.883 261.414 92.0566" fill="#EA3815"/>
<path d="M270.07 87.0241H270.643V86.6288H270.428V86.3414H270.571V86.2695H270.142V86.3414H270.285V86.6288H270.07V87.0241Z" fill="#89130A"/>
<path d="M268.391 86.6296V86.9889L268.927 87.0249V86.6296H268.748V86.3422H268.856V86.2344H268.462L268.426 86.3422H268.57V86.6296H268.391Z" fill="#89130A"/>
<path d="M269.215 87.0249H269.787V86.6296H269.573V86.3422H269.716V86.2703L269.286 86.2344V86.3422H269.43V86.6296H269.251L269.215 87.0249Z" fill="#89130A"/>
<path d="M277.802 84.4023C277.23 85.2288 275.226 86.6301 274.403 86.8097C273.258 87.0613 272.042 86.9175 270.861 86.9535H267.14C266.961 86.9535 266.782 86.9894 266.603 87.0972C266.424 87.169 266.281 87.3128 266.174 87.4565C266.067 87.6002 266.031 87.7439 265.995 87.8877H265.852H265.78H265.602V88.1392H265.78H265.852H265.959C265.959 88.2829 265.959 88.4266 266.031 88.5704C266.138 88.9297 266.46 89.2171 266.818 89.3249C266.854 89.3249 266.925 89.3608 266.961 89.3608C266.997 89.3608 267.068 89.3608 267.104 89.3608H267.176H267.247H267.355H267.82C269.072 89.3608 270.289 89.3608 271.541 89.3608L272.865 89.3249H272.9H272.936C272.972 89.3249 273.008 89.3249 273.044 89.3249C273.115 89.3249 273.187 89.289 273.258 89.2531C273.366 89.1812 273.473 89.0734 273.544 88.9656C273.58 88.8937 273.616 88.8219 273.616 88.75V88.7141C273.616 88.7141 273.616 88.6782 273.616 88.6422V88.6063V88.5704C273.616 88.5344 273.616 88.5344 273.616 88.5344C273.616 88.3907 273.544 88.247 273.437 88.1392C273.366 88.0314 273.222 87.9595 273.079 87.9236C273.044 87.9236 273.008 87.9236 272.972 87.8877C272.936 87.8877 272.9 87.8877 272.865 87.8877H272.686H272.042C271.612 87.8877 271.183 87.8877 270.718 87.8877C269.859 87.8877 268.965 87.8877 268.106 87.8877C267.677 87.8877 267.247 87.8877 266.782 87.8877H266.389C266.424 87.8158 266.424 87.7439 266.496 87.708C266.639 87.4924 266.854 87.3846 267.104 87.3487H268.035C268.357 87.3487 268.643 87.3487 268.965 87.3487C269.573 87.3487 270.217 87.3846 270.825 87.3846C272.006 87.4206 273.187 87.3128 274.332 87.5643C274.546 87.6002 274.832 87.708 275.154 87.8517C276.049 88.2111 277.158 88.8937 277.766 89.6483L277.802 84.4023ZM266.818 88.1033C267.247 88.1033 267.677 88.1033 268.142 88.1033C269.001 88.1033 269.895 88.1033 270.754 88.1392C271.183 88.1392 271.612 88.1751 272.078 88.1751H272.722H272.865C272.9 88.1751 272.9 88.1751 272.936 88.1751C272.972 88.1751 272.972 88.1751 273.008 88.1751C273.079 88.211 273.151 88.247 273.187 88.3188C273.294 88.4266 273.294 88.6422 273.222 88.75C273.187 88.8219 273.115 88.8937 273.079 88.9297C273.044 88.9656 273.008 88.9656 272.972 88.9656C272.936 88.9656 272.936 88.9656 272.9 88.9656H272.865H272.829L271.505 88.9297C270.253 88.8937 269.036 88.8937 267.784 88.8578H267.319H267.212H267.14H267.104C267.068 88.8578 267.068 88.8578 267.033 88.8578C266.997 88.8578 266.961 88.8578 266.961 88.8219C266.746 88.75 266.532 88.5704 266.46 88.3548C266.424 88.247 266.424 88.1751 266.424 88.0673L266.818 88.1033Z" fill="#F9BAB7"/>
<path d="M265.565 87.8879C265.53 87.816 265.458 87.7441 265.351 87.7441H265.172V88.2472H265.351C265.458 88.2472 265.53 88.2112 265.565 88.1394V87.8879Z" fill="#89130A"/>
<path d="M277.802 84.4103L277.758 89.6562L278.008 89.6584L278.053 84.4124L277.802 84.4103Z" fill="#89130A"/>
<path d="M258.625 103.231H267.713C265.638 96.9069 264.493 93.4216 264.457 91.0861C264.457 90.9783 264.242 90.7627 264.135 90.7986C263.419 91.0142 262.775 90.08 261.952 89.7207C259.77 93.1701 259.054 97.4818 258.625 103.231Z" fill="#F2F2F2"/>
<path d="M268.571 90.2944C268.392 90.0429 267.819 89.8991 267.855 89.3961C268.07 89.432 268.284 89.6117 268.499 89.468C268.642 89.3602 268.821 89.0368 268.642 89.0009C268.32 88.8931 267.64 89.0368 267.211 88.9649C267.497 88.2822 269.25 88.1026 269.751 88.4978C270.395 89.0368 270.359 90.1866 270.109 90.9052C269.859 90.9052 269.608 90.6537 269.322 90.5459C269 90.4381 268.714 90.4381 268.571 90.2944Z" fill="#B2230B"/>
<path d="M262.704 89.6836C265.316 89.7195 266.818 98.6664 268.536 90.2944L270.146 90.6178C271.183 100.355 266.568 100.499 264.815 98.1633C265.029 102.511 265.566 106.176 262.453 106.176C260.951 106.176 259.341 106.176 257.588 106.176C256.8 100.966 258.84 93.7438 260.736 90.1148C260.808 89.971 260.951 89.7195 261.308 89.7195C261.63 89.6836 262.096 89.6836 262.704 89.6836Z" fill="#FC4E24"/>
<path d="M267.461 86.9172C267.998 86.3782 268.284 85.444 269.071 85.2284C269.858 85.0128 270.609 85.3003 270.466 86.1986C270.109 86.3064 270.073 85.8393 269.751 85.8033C269.787 85.9111 269.715 86.1267 269.572 86.1626C269.321 86.2345 269.429 85.9471 269.286 85.9111C269.035 85.8752 268.749 86.4142 268.57 86.0548C268.391 86.0908 268.248 86.3423 268.105 86.4501C267.926 86.5938 267.676 86.7016 267.461 86.9172Z" fill="#B2230B"/>
<path d="M245.672 106.535L250.108 121.159L252.291 133.591H253.973L251.683 106.535H245.672Z" fill="#660909"/>
<path d="M244.061 106.535C244.347 114.548 244.025 118.716 243.954 119.434C243.882 120.153 242.952 124.896 240.77 133.843L242.558 133.232C246.029 125.04 247.21 120.764 247.603 119.686C247.997 118.608 249.07 114.224 250.788 106.571H244.061V106.535Z" fill="#77100B"/>
<path d="M240.769 133.196C240.626 133.555 240.555 133.806 240.555 133.986C240.555 134.202 240.59 134.525 240.662 134.92C240.912 134.92 243.131 134.92 247.317 134.92C247.496 134.345 247.388 134.022 247.031 133.986C246.673 133.95 246.351 133.914 246.1 133.878L242.988 132.477C242.916 132.441 242.845 132.477 242.845 132.549L242.666 133.016C242.308 133.196 242.022 133.267 241.807 133.267C241.628 133.267 241.378 133.196 241.091 133.052C240.984 133.016 240.841 133.052 240.769 133.196Z" fill="#FC7660"/>
<path d="M251.898 133.196C251.755 133.555 251.684 133.806 251.684 133.986C251.684 134.202 251.719 134.525 251.791 134.92C252.041 134.92 254.26 134.92 258.446 134.92C258.625 134.345 258.517 134.022 258.16 133.986C257.802 133.95 257.48 133.914 257.229 133.878L254.117 132.477C254.045 132.441 253.973 132.477 253.973 132.549L253.759 133.052C253.401 133.232 253.115 133.303 252.9 133.303C252.721 133.303 252.471 133.232 252.184 133.088C252.113 133.016 251.97 133.052 251.898 133.196Z" fill="#FC7660"/>
<path d="M245.062 106.535L246.959 113.973H252.755L251.896 106.535H245.062Z" fill="#EA3815"/>
<path d="M244.027 106.535C243.419 108.404 243.276 110.883 243.669 113.973H249.573L251.183 106.535H244.027Z" fill="#FC4E24"/>
<path d="M246.997 91.2275C246.461 90.5807 246.067 89.7902 246.139 88.9279C246.317 86.3768 249.824 86.9517 250.539 88.2452C251.255 89.5387 251.148 92.7725 250.253 93.0241C249.895 93.1318 249.144 92.8803 248.393 92.4132L248.858 95.8267H246.031L246.997 91.2275Z" fill="#77100B"/>
<path d="M247.963 91.0487C247.606 91.7314 247.14 92.2344 246.64 92.2344C245.709 92.2344 245.065 90.9768 245.065 89.6474C245.065 89.6114 245.065 89.5396 245.065 89.5036C244.099 90.1863 243.348 91.5158 242.024 91.5158C240.271 91.5158 239.555 87.9586 242.024 87.9586C243.706 87.9586 244.529 88.2101 245.244 88.5694C245.387 88.1742 245.602 87.8508 245.852 87.5993C245.924 87.5274 245.996 87.4556 246.139 87.3837C246.21 87.3478 246.282 87.3118 246.389 87.2759C246.818 87.1322 247.427 87.0244 248.142 86.9885C248.285 86.9885 248.393 86.9885 248.536 86.9885C248.536 86.3417 249.072 85.8027 249.717 85.8027C250.361 85.8027 250.897 86.3417 250.897 86.9885C250.897 87.6352 250.396 88.1383 249.788 88.1742C249.43 88.282 248.965 88.3538 248.464 88.3898C248.5 88.5694 248.536 88.785 248.536 89.0365C248.536 89.2521 248.5 89.4677 248.464 89.6833C248.357 89.5396 248.214 89.4677 248.071 89.4677C247.641 89.4677 247.355 89.827 247.355 90.1863C247.319 90.6894 247.606 91.0128 247.963 91.0487Z" fill="#FC4E24"/>
<path d="M237.372 110.99C237.336 110.882 237.372 110.738 237.479 110.666C237.622 110.594 237.765 110.594 237.837 110.738C237.908 110.846 237.872 111.026 237.765 111.133C237.658 111.205 237.515 111.205 237.443 111.098L237.193 111.277L237.121 111.169L237.372 110.99Z" fill="#B2230B"/>
<path d="M236.872 110.271C236.836 110.163 236.872 110.019 236.979 109.948C237.122 109.876 237.265 109.876 237.337 110.019C237.408 110.127 237.372 110.307 237.265 110.415C237.158 110.487 237.015 110.487 236.943 110.379L236.693 110.558L236.621 110.451L236.872 110.271Z" fill="#B2230B"/>
<path d="M236.297 109.517C236.262 109.409 236.297 109.266 236.405 109.194C236.548 109.122 236.691 109.122 236.762 109.266C236.834 109.373 236.798 109.553 236.691 109.661C236.584 109.733 236.44 109.733 236.369 109.625L236.118 109.805L236.047 109.697L236.297 109.517Z" fill="#B2230B"/>
<path d="M243.882 124.536C243.346 123.997 242.272 124.033 241.593 122.919C240.412 120.368 242.809 118.392 242.809 118.392C242.809 118.392 244.92 116.092 247.389 117.422C248.462 118.212 248.355 119.254 248.856 119.829C249.535 120.584 251.575 120.009 253.399 121.985C256.011 124.823 252.505 128.057 252.183 128.345C251.861 128.668 248.462 131.974 245.779 129.207C243.882 127.267 244.598 125.255 243.882 124.536Z" fill="#F96353"/>
<path d="M235.369 112.644C235.44 112.536 235.583 112.5 235.691 112.572L235.869 112.32L235.941 112.392L235.762 112.644C235.834 112.751 235.834 112.859 235.762 112.967C235.655 113.075 235.512 113.111 235.369 113.039C235.297 112.931 235.261 112.751 235.369 112.644Z" fill="#B2230B"/>
<path d="M234.689 112.068C234.76 111.96 234.904 111.924 235.011 111.996L235.19 111.744L235.261 111.816L235.082 112.068C235.154 112.175 235.154 112.283 235.082 112.391C234.975 112.499 234.832 112.535 234.689 112.463C234.617 112.355 234.582 112.211 234.689 112.068Z" fill="#B2230B"/>
<path d="M233.936 111.493C234.008 111.386 234.151 111.35 234.258 111.421L234.437 111.17L234.509 111.242L234.33 111.493C234.402 111.601 234.402 111.709 234.33 111.817C234.223 111.924 234.08 111.96 233.936 111.889C233.865 111.781 233.865 111.601 233.936 111.493Z" fill="#B2230B"/>
<path d="M247.135 123.047C247.845 122.386 247.908 121.295 247.277 120.611C246.645 119.927 245.558 119.909 244.848 120.57C244.138 121.232 244.074 122.322 244.706 123.006C245.338 123.69 246.425 123.708 247.135 123.047Z" fill="#F9BAB7"/>
<path d="M236.477 112.823L237.586 111.781L246.28 120.548L244.741 122.022L236.477 112.823Z" fill="#89130A"/>
<path d="M246.819 122.7C247.326 122.228 247.366 121.444 246.91 120.949C246.453 120.454 245.671 120.436 245.164 120.909C244.657 121.381 244.616 122.165 245.073 122.659C245.53 123.154 246.312 123.172 246.819 122.7Z" fill="#B2230B"/>
<path d="M250.779 124.331L248.23 126.75L248.747 127.298L251.295 124.879L250.779 124.331Z" fill="#F9BAB7"/>
<path d="M234.33 111.063L236.477 112.823L237.586 111.781L235.976 109.553C235.762 109.266 235.332 109.158 235.01 109.338L234.509 109.625L234.187 110.128C233.973 110.416 234.044 110.811 234.33 111.063ZM236.406 111.314L235.404 110.128C235.332 110.021 235.332 109.913 235.44 109.805C235.547 109.733 235.654 109.733 235.762 109.841L236.763 111.027C236.835 111.134 236.835 111.242 236.728 111.35C236.62 111.422 236.477 111.422 236.406 111.314ZM234.652 110.847C234.581 110.775 234.545 110.631 234.652 110.524C234.724 110.452 234.867 110.416 234.974 110.524L236.119 111.601C236.191 111.673 236.227 111.817 236.119 111.925C236.048 111.997 235.905 112.033 235.797 111.925L234.652 110.847Z" fill="#F9BAB7"/>
<path d="M237.829 112.097L236.789 113.084L236.838 113.136L237.878 112.149L237.829 112.097Z" fill="#BABABA"/>
<path d="M239.345 113.712L238.305 114.699L238.354 114.751L239.394 113.764L239.345 113.712Z" fill="#BABABA"/>
<path d="M240.833 115.302L239.793 116.289L239.842 116.341L240.882 115.354L240.833 115.302Z" fill="#BABABA"/>
<path d="M242.372 116.893L241.332 117.881L241.381 117.933L242.421 116.946L242.372 116.893Z" fill="#BABABA"/>
<path d="M243.888 118.511L242.848 119.498L242.897 119.55L243.937 118.563L243.888 118.511Z" fill="#BABABA"/>
<path d="M245.38 120.101L244.34 121.088L244.389 121.14L245.429 120.153L245.38 120.101Z" fill="#BABABA"/>
<path d="M236.297 112.679L237.442 111.602L237.585 111.781L236.476 112.823L236.297 112.679Z" fill="#B2230B"/>
<path d="M237.505 111.816L237.453 111.865L250.115 125.309L250.167 125.259L237.505 111.816Z" fill="white"/>
<path d="M237.329 111.99L237.277 112.039L249.936 125.486L249.988 125.437L237.329 111.99Z" fill="white"/>
<path d="M237.154 112.158L237.102 112.207L249.757 125.658L249.809 125.609L237.154 112.158Z" fill="white"/>
<path d="M236.974 112.337L236.922 112.387L249.581 125.834L249.633 125.785L236.974 112.337Z" fill="white"/>
<path d="M236.798 112.513L236.746 112.562L249.405 126.01L249.457 125.96L236.798 112.513Z" fill="white"/>
<path d="M236.572 112.71L236.52 112.76L249.182 126.201L249.234 126.152L236.572 112.71Z" fill="white"/>
<path d="M250.608 124.845L248.762 126.598L248.934 126.78L250.78 125.028L250.608 124.845Z" fill="#B2230B"/>
<path d="M255.367 104.199L258.73 107.469C259.696 107.9 260.519 108.331 261.127 108.87C261.27 109.05 261.414 109.373 260.77 109.23C260.126 109.086 259.41 108.978 259.303 109.194C259.195 109.409 259.553 109.733 259.303 110.02C259.16 110.2 258.623 109.625 257.764 108.224L254.294 106.175L255.367 104.199ZM240.483 104.666H242.952C241.413 109.625 240.59 112.248 240.483 112.535C240.197 113.218 240.805 114.26 241.02 114.799C240.197 115.158 240.304 113.829 239.267 114.296C238.73 114.547 238.945 114.871 238.873 115.302C238.802 115.877 237.943 115.41 237.728 115.194C237.549 115.014 236.762 113.972 237.156 113.721C238.014 113.11 238.766 112.535 238.909 112.212C239.195 111.781 239.696 109.266 240.483 104.666Z" fill="#77100B"/>
<path d="M247.532 94.2461L248.569 94.0664C250.322 98.4859 253.399 102.51 257.8 106.103L254.473 110.164C250.072 105.025 247.353 99.7076 247.532 94.2461Z" fill="#FCA19A"/>
<path d="M243.059 107.146H252.182C250.071 102.008 249.034 97.6239 249.034 93.9948L246.279 93.5996C244.096 97.0849 243.488 101.397 243.059 107.146Z" fill="#DDE3E9"/>
<path d="M246.209 93.5996H246.388C246.603 93.5996 246.925 93.6355 247.354 93.6355L248.034 95.5399C248.105 97.8754 248.499 102.546 249.25 109.589H243.275C243.275 110.092 243.311 110.559 243.347 111.062H238.91C239.59 103.553 242.023 97.7317 246.209 93.5996Z" fill="#F9BAB7"/>
<path d="M243.669 103.373C243.848 106.391 244.278 108.511 244.957 109.625H243.276C243.204 107.469 243.347 105.385 243.669 103.373Z" fill="black" fill-opacity="0.1"/>
<path d="M244.598 105.959L247.567 104.594V105.959H244.598Z" fill="white" fill-opacity="0.2"/>
<path d="M327.032 104.703L323.025 118.86L320.091 129.28H317.98L321.093 104.703H327.032Z" fill="#EA3815"/>
<path d="M328.107 104.703C328.214 111.997 328.501 115.986 328.608 116.632C328.715 117.279 330.182 121.519 333.044 129.28H330.826C327.213 121.842 325.173 117.602 324.744 116.632C324.314 115.662 323.026 111.674 321.059 104.703H328.107Z" fill="#FC4E24"/>
<path d="M333.258 131.293L333.151 128.957H330.825C329.716 129.748 328.285 130.358 326.496 130.861V131.293H330.718L332.149 131.077V131.293H333.258Z" fill="#B2230B"/>
<path d="M320.415 131.293L320.307 128.957H317.982C316.872 129.748 315.441 130.358 313.652 130.861V131.293H317.874L319.305 131.077V131.293H320.415Z" fill="#B2230B"/>
<path d="M324.958 90.7608C325.459 90.15 325.817 89.4314 325.745 88.6049C325.566 86.2335 322.275 86.7365 321.631 87.9582C320.987 89.1798 321.058 92.1981 321.881 92.4136C322.203 92.4855 322.919 92.3058 323.634 91.8387L323.169 95.0366H325.817L324.958 90.7608Z" fill="#FC4E24"/>
<path d="M326.928 87.815C326.999 87.7432 327.071 87.5994 327.107 87.4916C327.142 87.3838 327.178 87.2401 327.214 87.1323C327.286 86.8808 327.286 86.5934 327.107 86.4137C326.964 86.27 326.749 86.1981 326.57 86.1622C326.427 86.1622 326.32 86.1622 326.176 86.1981C326.069 86.234 325.926 86.3059 325.819 86.3778C325.819 86.0903 325.783 85.8388 325.64 85.5873C325.497 85.3717 325.282 85.228 325.067 85.192C324.817 85.1561 324.566 85.228 324.352 85.3358C324.28 85.3717 324.244 85.4076 324.209 85.4436C324.173 85.4795 324.137 85.5154 324.066 85.5154C323.994 85.5154 323.994 85.4795 323.958 85.4436C323.922 85.4076 323.851 85.3358 323.815 85.2998C323.6 85.1202 323.278 85.0483 323.028 85.1561C322.921 85.192 322.778 85.2639 322.706 85.4076C322.634 85.5154 322.563 85.6592 322.491 85.731C322.455 85.7669 322.42 85.731 322.384 85.6951C322.312 85.6592 322.277 85.6232 322.205 85.5514C322.133 85.4795 322.026 85.4436 321.919 85.4436C321.776 85.4076 321.597 85.4076 321.525 85.6232C321.525 85.6951 321.525 85.7669 321.525 85.8388C321.525 85.9466 321.525 86.0185 321.561 86.1263C321.561 86.1981 321.561 86.27 321.597 86.3418C321.597 86.3778 321.633 86.4496 321.597 86.4856C321.561 86.5215 321.489 86.5215 321.454 86.5215C321.382 86.5215 321.311 86.5215 321.203 86.5574C321.132 86.5934 321.096 86.6293 321.06 86.7012C321.06 86.7371 321.06 86.773 321.06 86.8089C321.06 86.8449 321.06 86.8808 321.06 86.9527C320.953 86.9167 320.595 86.773 320.523 86.9886C320.523 87.0605 320.559 87.1323 320.559 87.1683C320.595 87.2761 320.667 87.3479 320.738 87.4198C320.881 87.5994 321.024 87.7432 321.203 87.8869C320.989 87.9587 320.953 88.2462 321.132 88.3899C321.203 88.4618 321.311 88.4618 321.418 88.4618C321.454 88.4618 321.489 88.4618 321.525 88.4618H321.561C321.704 88.4618 321.847 88.4259 321.99 88.3899C322.241 88.3181 322.455 88.2103 322.634 88.0665C322.67 88.0306 322.706 87.9947 322.778 87.9947C322.849 87.9947 322.885 87.9947 322.956 87.9947C323.1 87.9947 323.243 87.9228 323.386 87.8869C323.386 88.0665 323.457 88.2821 323.529 88.4259C323.6 88.5696 323.708 88.5696 323.851 88.6055C324.244 88.6414 324.674 88.6055 325.067 88.6055C324.674 88.6774 324.28 88.7133 323.887 88.8211C323.708 88.857 323.851 89.0007 323.922 89.0726C324.03 89.2163 324.137 89.3601 324.209 89.5397C324.388 89.2882 324.745 89.1085 325.032 89.2163C325.354 89.2882 325.604 89.7553 325.389 90.0787C325.282 90.2583 325.032 90.3302 324.853 90.4021C324.996 90.5458 325.032 90.7614 325.103 90.977C325.139 91.0848 325.21 91.1566 325.318 91.1925C325.354 91.1925 325.389 91.1925 325.425 91.2285C325.461 91.2644 325.461 91.3003 325.497 91.3363C325.676 91.4441 325.962 91.4441 326.105 91.3003C326.248 91.1566 326.212 90.941 326.105 90.7614C326.284 90.6895 326.642 90.5817 326.57 90.2943C326.964 90.2583 327.965 89.6116 327.429 89.1085C327.715 88.9289 328.001 88.5336 327.822 88.1384C327.536 87.9587 327.214 87.815 326.928 87.815Z" fill="#9E180A"/>
<path d="M315.477 103.015L312.471 100.715C310.969 100.428 310.289 100.212 310.396 99.9966C310.575 99.7091 310.969 99.8888 311.112 99.7091C311.255 99.5295 310.897 98.9546 310.539 98.4515C310.182 97.9485 310.504 97.9485 310.718 98.0203C311.362 98.3797 312.042 98.9186 312.758 99.6372L316.765 101.398L315.477 103.015ZM335.763 108.548C335.978 108.836 337.302 109.59 338.232 109.985C338.59 110.129 338.518 110.453 338.411 110.56C337.552 111.351 336.765 110.776 335.835 110.524C334.833 110.273 335.119 111.495 334.332 111.315C334.475 110.776 334.797 109.698 334.439 109.123C334.261 108.872 333.044 106.608 330.754 102.332L333.008 101.865C334.547 105.925 335.441 108.153 335.763 108.548Z" fill="#FC4E24"/>
<path d="M324.565 93.3125L323.599 93.1328C321.524 95.1809 320.665 100.032 319.27 100.678C317.946 101.289 316.086 100.714 313.867 99.8879L313.188 101.397C315.191 103.589 319.485 105.421 321.238 104.379C324.028 102.726 324.672 96.7259 324.565 93.3125Z" fill="#FCA19A"/>
<path d="M328.751 105.386C324.923 105.386 322.096 105.386 320.271 105.386C319.878 105.386 319.949 104.811 320.021 104.523C320.665 101.254 323.205 97.7323 323.205 93.0613L325.638 92.666C327.642 95.9717 328.322 99.996 328.751 105.386Z" fill="#B2230B"/>
<path d="M329.575 102.079C331.292 105.205 332.759 107.469 333.94 108.834L335.729 108.475C334.584 101.361 331.256 96.0787 325.782 92.7012H325.746H324.816C322.634 100.211 322.025 105.205 322.991 107.72H330.612C330.505 105.888 330.111 103.984 329.575 102.079Z" fill="#F9BAB7"/>
<path d="M343.135 119.04C340.487 119.794 338.197 120.154 336.265 120.154C334.333 120.154 332.544 119.579 330.898 118.429C333.51 117.675 335.621 117.279 337.339 117.279C339.02 117.279 340.952 117.89 343.135 119.04Z" fill="#9E180A"/>
<path d="M333.973 121.232C334.009 121.196 334.009 121.16 334.045 121.088C334.402 120.154 340.091 109.986 340.664 108.117H334.259C333.83 109.519 331.898 118.394 331.612 120.19C330.753 122.993 328.964 132.011 328.749 132.658C328.499 133.305 329.858 133.988 330.216 133.197C330.789 131.904 332.148 128.346 332.757 126.155C333.293 124.107 333.758 122.274 333.973 121.232Z" fill="#F9BAB7"/>
<path d="M344.456 122.057C344.42 121.662 344.42 121.231 344.384 120.835C342.953 120.548 341.665 120.332 340.735 120.189C340.842 117.134 341.235 109.768 340.985 108.188H335.332C335.582 109.697 337.837 120.835 338.266 121.949C338.409 122.344 338.803 122.524 339.232 122.524C340.269 122.776 342.345 123.135 344.563 123.458C344.527 122.955 344.491 122.488 344.456 122.057Z" fill="#F9BAB7"/>
<path d="M330.611 133.089C330.718 133.412 330.79 133.663 330.79 133.843C330.79 134.059 330.754 134.346 330.682 134.705C330.468 134.705 328.357 134.705 324.421 134.705C324.242 134.167 324.349 133.879 324.707 133.843C325.065 133.807 325.351 133.771 325.566 133.735L328.464 132.442C328.535 132.406 328.571 132.442 328.607 132.514L328.786 132.981C329.108 133.125 329.358 133.196 329.573 133.196C329.752 133.196 329.967 133.125 330.253 132.981C330.432 132.909 330.539 132.981 330.611 133.089Z" fill="#660909"/>
<path d="M340.988 108.152C338.484 107.434 336.122 107.434 333.904 108.152C333.117 111.709 331.256 113.111 330.898 118.572C334.655 120.441 339.306 117.243 343.206 119.075C344.315 116.488 342.741 110.308 340.988 108.152Z" fill="#B2230B"/>
<path d="M338.052 92.4503C338.553 91.8394 338.911 91.1208 338.839 90.2944C338.66 87.9229 335.368 88.426 334.724 89.6476C334.08 90.8693 334.152 93.8875 334.975 94.1031C335.297 94.175 336.013 93.9953 336.728 93.5282L336.263 96.7261H338.911L338.052 92.4503Z" fill="#F9BAB7"/>
<path d="M344.1 85.6594C343.992 85.6235 343.921 85.6235 343.813 85.5875C343.134 85.372 342.49 85.1204 341.774 85.0845C341.094 85.0127 340.414 85.0845 339.77 85.372C339.198 85.6235 338.769 86.0187 338.447 86.5577C338.268 86.8451 338.16 87.1326 338.089 87.456C338.053 87.5638 338.053 87.6716 338.017 87.7794C338.017 87.8871 338.017 88.0309 337.982 88.1027C337.91 88.2105 337.803 88.1746 337.695 88.1746C337.516 88.1746 336.586 88.2105 336.228 88.2824C335.727 88.3542 334.833 88.7854 334.69 89.1088C334.547 89.4322 334.654 89.8274 335.227 89.7915C335.835 90.5101 336.729 91.0132 336.837 91.0491C336.837 91.0491 337.23 90.5101 337.624 90.7257C338.053 90.9772 337.982 91.4803 337.731 91.8396C337.624 92.0192 337.409 92.3426 337.731 92.5582C338.232 92.9175 339.484 92.127 339.699 91.4443C340.092 90.1867 339.556 88.462 338.16 88.2105C338.232 87.959 338.59 87.8871 338.804 87.8153C339.341 87.7075 339.914 87.8153 340.45 87.9231C341.094 88.0668 341.774 88.2824 342.454 88.2824C342.812 88.2824 343.134 88.2105 343.456 88.1027C343.67 88.0309 343.885 87.8871 344.064 87.7794C344.135 87.0607 344.1 86.378 344.1 85.6594Z" fill="#EA3815"/>
<path d="M327.282 109.049C326.387 109.516 325.672 109.983 325.135 110.486C325.028 110.666 324.884 110.953 325.493 110.774C326.101 110.594 326.745 110.45 326.888 110.63C327.031 110.81 326.709 111.169 326.924 111.42C327.067 111.6 327.532 110.989 328.248 109.66L331.36 107.504L330.215 105.779L327.282 109.049Z" fill="#F9BAB7"/>
<path d="M344.385 102.833C344.385 102.582 344.385 102.294 344.385 102.043L342.918 102.151C343.49 103.624 343.991 104.917 344.421 106.031C344.385 104.953 344.385 103.875 344.385 102.833Z" fill="#B28B67"/>
<path d="M337.48 95.5746L336.514 95.4668C335.369 100.928 327.892 105.06 327.534 107.108C327.427 107.863 327.963 108.186 327.713 108.438L329.001 109.264C329.18 109.013 329.681 109.408 330.575 109.049C331.541 108.654 337.91 101.898 337.48 95.5746Z" fill="#FC4E24"/>
<path d="M344.421 109.157C344.421 107.037 344.421 104.918 344.385 102.798C344.385 101.684 344.349 100.606 344.349 99.4919C343.061 97.7672 341.523 96.3659 339.698 95.288L339.626 94.6772C339.59 94.4256 339.376 94.246 339.125 94.2819L336.156 94.6772C335.905 94.7131 335.726 94.9287 335.762 95.1802L335.905 96.33C336.478 103.408 332.542 105.492 333.651 108.259C334.546 110.559 341.88 112.571 342.989 110.199C343.419 109.229 343.598 108.079 343.526 106.858C343.884 107.792 344.17 108.547 344.421 109.157Z" fill="#F96353"/>
<path d="M209 71V142H348V71H209ZM254.976 139.629H212.649V95.3254H254.976V139.629ZM254.976 93.8163H212.649V73.3355H254.976V93.8163ZM299.663 139.629H257.337V95.3254H299.663V139.629ZM299.663 93.8163H257.337V73.3355H299.663V93.8163ZM344.351 139.629H301.989V95.3254H344.315V139.629H344.351ZM344.351 93.8163H301.989V73.3355H344.315V93.8163H344.351Z" fill="#F9E8E8"/>
<path d="M49.5665 122.021H41V126.999H49.5665V122.021Z" fill="#FFFBF3"/>
<path d="M47.3956 123.121H41.9258V123.382H47.3956V123.121Z" fill="#9E180A"/>
<path d="M44.4147 123.961H41.9258V124.221H44.4147V123.961Z" fill="#9E180A"/>
<path d="M45.3119 124.828H41.9258V125.089H45.3119V124.828Z" fill="#9E180A"/>
<path d="M71.4458 80H41V117.305H71.4458V80Z" fill="#9E180A"/>
<path d="M70.2617 81.2148H42.1602V116.089H70.2617V81.2148Z" fill="#F9E8E8"/>
<path d="M69.0729 82.6328H43.4023V114.641H69.0729V82.6328Z" fill="#CE310D"/>
<path d="M69.0456 99.2168C69.0456 99.2168 50.3787 99.7377 55.1829 102.574C59.9871 105.439 43.375 106.712 43.375 106.712V114.613H69.0456V99.2168Z" fill="#0981D3"/>
<path d="M69.0414 93.777C69.0414 93.777 69.0992 87.0338 60.1276 90.1594C51.1559 93.2561 52.574 82.6348 52.574 82.6348H69.0414V93.777Z" fill="#F96353"/>
<path d="M45.0825 82.6348C45.0825 82.6348 47.6872 93.2561 51.9415 96.4974C56.2247 99.7388 43.375 110.881 43.375 110.881V82.6348H45.0825Z" fill="#FC4E24"/>
<path d="M91.2892 80.5527H82V85.9217H91.2892V80.5527Z" fill="#FFFBF3"/>
<path d="M87.1137 81.7461H82.9805V82.0018H87.1137V81.7461Z" fill="#9E180A"/>
<path d="M87.8381 82.6836H82.9805V82.9393H87.8381V82.6836Z" fill="#9E180A"/>
<path d="M84.4719 83.6211H82.9805V83.8768H84.4719V83.6211Z" fill="#9E180A"/>
<path d="M85.4093 84.5156H82.9805V84.7713H85.4093V84.5156Z" fill="#9E180A"/>
<path d="M128.998 65H95.207V98.7906H128.998V65Z" fill="#9E180A"/>
<path d="M127.634 66.3633H96.5703V97.4267H127.634V66.3633Z" fill="#FAFAFA"/>
<path d="M126.017 68.0254H98.2344V95.8078H126.017V68.0254Z" fill="#F96353"/>
<path d="M112.126 82.7689C112.596 82.7689 112.978 82.3873 112.978 81.9167C112.978 81.446 112.596 81.0645 112.126 81.0645C111.655 81.0645 111.273 81.446 111.273 81.9167C111.273 82.3873 111.655 82.7689 112.126 82.7689Z" fill="#440707"/>
<path d="M114.128 82.8549C112.508 82.8549 111.188 81.534 111.188 79.9148C111.188 78.2955 112.508 76.9746 114.128 76.9746C115.747 76.9746 117.068 78.2955 117.068 79.9148C117.068 81.534 115.747 82.8549 114.128 82.8549ZM114.128 77.1451C112.594 77.1451 111.401 78.3808 111.401 79.8722C111.401 81.4062 112.636 82.5993 114.128 82.5993C115.662 82.5993 116.855 81.3636 116.855 79.8722C116.855 78.3808 115.619 77.1451 114.128 77.1451Z" fill="#77100B"/>
<path d="M116.557 84.1312C113.361 84.1312 110.762 81.5319 110.762 78.3361C110.762 75.1403 113.361 72.541 116.557 72.541C119.753 72.541 122.352 75.1403 122.352 78.3361C122.352 81.5319 119.753 84.1312 116.557 84.1312ZM116.557 72.7115C113.489 72.7115 110.975 75.2255 110.975 78.2935C110.975 81.3615 113.489 83.8756 116.557 83.8756C119.625 83.8756 122.139 81.3615 122.139 78.2935C122.139 75.2255 119.625 72.7115 116.557 72.7115Z" fill="#77100B"/>
<path d="M117.196 95.7647C117.196 95.7647 109.27 94.742 105.521 81.8735H102.026C102.026 81.8735 99.6402 78.3368 99.6402 74.2461H98.1914V95.7221C98.234 95.7647 117.665 95.7647 117.196 95.7647Z" fill="#F9E8E8"/>
<path d="M111.57 90.2672C111.57 90.2672 120.348 91.3325 122.223 87.1992L123.203 93.8465C123.203 93.8465 116.556 95.8067 111.57 90.2672Z" fill="#FC4E24"/>
<path d="M381.948 263.6H320.776C320.002 263.6 319.395 262.965 319.395 262.219V261.915C319.395 261.141 320.002 260.533 320.776 260.533H381.948C382.721 260.533 383.329 261.141 383.329 261.915V262.219C383.357 262.992 382.721 263.6 381.948 263.6Z" fill="#FCA19A"/>
<path d="M384.434 262.33H318.289V265.977H384.434V262.33Z" fill="#FCD6D6"/>
<path d="M321.949 278.54V265.996H318.302V278.54H321.949Z" fill="#FCD6D6"/>
<path d="M309.891 255.669C308.482 254.812 306.105 255.918 306.133 257.133C306.133 260.753 309.449 277.828 309.614 278.905C309.78 279.983 311.631 280.259 311.742 278.905C311.908 276.75 312.239 269.263 311.908 265.781C311.769 264.345 311.631 262.991 311.493 261.775C313.234 264.897 315.914 269.401 319.533 275.231L321.495 274.319C319.948 269.235 318.677 265.616 317.682 263.516C315.997 259.924 314.394 256.829 313.731 255.752C312.681 254.039 310.858 254.619 309.891 255.669Z" fill="#660909"/>
<path d="M321.354 271.474L314.585 255.449C312.955 252.851 308.424 255.974 308.976 257.493C310.219 260.919 316.602 272.026 316.989 273.049L321.354 271.474Z" fill="#EA3815"/>
<path d="M321.738 273.285C322.152 273.619 322.431 273.908 322.554 274.138C322.71 274.42 322.897 274.815 323.11 275.385C322.815 275.565 320.008 277.167 314.751 280.193C314.106 279.598 314.022 279.135 314.462 278.814C314.902 278.494 315.253 278.218 315.538 278L318.414 274.014C318.456 273.942 318.569 273.911 318.665 273.967L319.256 274.435C319.79 274.393 320.205 274.282 320.487 274.126C320.717 274.003 320.969 273.734 321.241 273.317C321.348 273.187 321.561 273.15 321.738 273.285C321.714 273.271 321.714 273.271 321.738 273.285Z" fill="#CE310D"/>
<path d="M312.155 278.023C312.348 278.52 312.431 278.907 312.431 279.183C312.431 279.487 312.376 279.929 312.266 280.537C311.906 280.537 308.701 280.537 302.623 280.537C302.374 279.708 302.512 279.266 303.065 279.183C303.618 279.1 304.06 279.045 304.419 279.017L308.895 277.028C308.978 277 309.088 277.028 309.116 277.111L309.392 277.802C309.889 278.023 310.304 278.161 310.608 278.161C310.857 278.161 311.216 278.05 311.658 277.857C311.879 277.746 312.072 277.802 312.155 278.023C312.155 277.995 312.155 277.995 312.155 278.023Z" fill="#CE310D"/>
<path d="M305.637 258.35C305.637 262.881 307.792 273.491 307.792 274.485H312.434C311.743 265.036 311.522 260.256 311.715 260.146C312.019 259.98 323.872 261.334 327.436 261.334C332.576 261.334 334.675 258.101 334.869 252.105H324.701C322.629 252.327 311.853 254.509 307.847 255.255C306.106 255.587 305.637 257.079 305.637 258.35Z" fill="#FC4E24"/>
<path d="M330.084 227.296C330.885 226.384 331.41 225.223 331.327 223.952C331.079 220.305 325.967 221.107 324.973 222.958C323.978 224.809 324.088 229.478 325.387 229.81C325.884 229.948 326.99 229.616 328.095 228.953L327.404 233.871H331.521L330.084 227.296Z" fill="#660909"/>
<path d="M318.289 249.704L313.26 252.688C311.989 254.677 311.243 255.534 311.022 255.258C310.69 254.843 311.215 254.373 311.05 254.069C310.884 253.766 309.862 253.931 308.894 254.152C307.955 254.373 308.148 253.904 308.37 253.655C309.281 252.937 310.414 252.274 311.823 251.666L316.658 246.941L318.289 249.704ZM343.376 256.75C343.625 257.247 345.448 258.766 346.692 259.623C347.189 259.982 346.996 260.424 346.802 260.535C345.255 261.502 344.233 260.369 342.879 259.734C341.414 259.043 341.525 260.977 340.364 260.452C340.724 259.651 341.553 258.159 341.166 257.164C341 256.722 339.48 251.887 336.634 242.658L340.392 242.631C342.022 251.362 343.045 256.059 343.376 256.75Z" fill="#660909"/>
<path d="M328.951 232.022L327.459 231.773C325.138 240.007 313.147 245.616 312.429 248.71C312.153 249.843 312.981 250.423 312.539 250.755L314.473 252.164C314.805 251.777 315.496 252.468 316.932 251.998C318.397 251.473 328.951 241.775 328.951 232.022Z" fill="#38B1F4"/>
<path d="M326.465 233.099C326.631 244.013 320.332 246.776 321.741 251.169C322.901 254.788 334.008 258.656 335.915 255.12C336.688 253.683 337.048 251.942 337.075 250.064C337.573 251.5 337.959 252.771 338.236 253.794C338.733 255.59 340.639 255.893 340.639 256.584L343.154 255.893C342.988 254.954 344.176 254.484 343.844 252.385C342.408 242.935 338.595 236.083 332.351 231.856L332.295 230.944C332.268 230.557 331.936 230.281 331.577 230.309L326.963 230.64C326.576 230.668 326.3 230.999 326.327 231.358L326.465 233.099Z" fill="#69BFF9"/>
<path d="M324.672 225.029C324.396 225.471 323.07 227.267 324.396 227.405L324.672 225.029Z" fill="#660909"/>
<path d="M324.727 224.67C324.865 224.615 324.975 224.56 325.113 224.532C325.252 224.477 325.39 224.449 325.528 224.449C325.666 224.449 325.832 224.449 325.97 224.504C326.053 224.532 326.136 224.56 326.163 224.643C326.219 224.698 326.246 224.808 326.219 224.864C326.136 224.726 326.025 224.726 325.915 224.726C325.804 224.726 325.666 224.726 325.528 224.753C325.39 224.753 325.252 224.781 325.113 224.781C325.03 224.753 324.865 224.726 324.727 224.67Z" fill="#EA3815"/>
<path d="M324.613 228.538C324.807 228.427 324.945 228.372 325.111 228.289C325.276 228.206 325.47 228.096 325.691 228.123C325.636 228.206 325.553 228.289 325.497 228.345C325.415 228.4 325.359 228.483 325.249 228.51C325.166 228.566 325.055 228.593 324.945 228.593C324.834 228.621 324.724 228.593 324.613 228.538Z" fill="#EA3815"/>
<path d="M325.197 225.445C325.289 225.445 325.363 225.371 325.363 225.279C325.363 225.188 325.289 225.113 325.197 225.113C325.105 225.113 325.031 225.188 325.031 225.279C325.031 225.371 325.105 225.445 325.197 225.445Z" fill="#EA3815"/>
<path d="M239.383 230.115L246.263 247.522L250.904 262.248H252.728L245.655 230.115H239.383Z" fill="#FCD6D6"/>
<path d="M238.003 230.115C237.92 236.249 236.87 244.483 236.677 244.869C236.566 245.118 232.643 248.351 224.879 254.567L226.122 255.921C235.268 250.589 240.048 247.577 240.462 246.859C241.097 245.781 243.17 235.973 244.827 230.115H238.003Z" fill="#FCD6D6"/>
<path d="M224.728 254.103C224.304 254.242 224.018 254.374 223.848 254.516C223.658 254.676 223.397 254.967 223.091 255.333C223.286 255.565 224.973 257.576 228.17 261.386C228.823 261.09 229.028 260.774 228.786 260.4C228.544 260.026 228.355 259.715 228.181 259.465L227.068 255.602C227.036 255.521 226.961 255.475 226.88 255.507L226.276 255.69C225.861 255.497 225.584 255.296 225.425 255.105C225.283 254.936 225.168 254.671 225.065 254.289C225.057 254.151 224.908 254.06 224.728 254.103C224.749 254.085 224.728 254.103 224.728 254.103Z" fill="#77100B"/>
<path d="M250.159 261.558C249.993 261.972 249.91 262.276 249.91 262.497C249.91 262.746 249.965 263.133 250.048 263.603C250.352 263.603 252.977 263.603 257.95 263.603C258.144 262.912 258.033 262.553 257.591 262.497C257.149 262.442 256.79 262.387 256.486 262.359L252.811 260.729C252.728 260.701 252.645 260.729 252.618 260.812L252.369 261.392C251.955 261.586 251.623 261.669 251.375 261.669C251.153 261.669 250.877 261.586 250.518 261.42C250.38 261.337 250.214 261.42 250.159 261.558Z" fill="#77100B"/>
<path d="M244.022 260.729L252.698 259.789L246.26 230.115H238.496L244.022 260.729Z" fill="#0981D3"/>
<path d="M226.699 252.385L232.391 259.126C238.386 252.578 241.868 248.323 242.862 246.334C243.857 244.344 244.741 238.929 245.543 230.115H236.812C236.37 237.879 236.093 241.913 235.927 242.272C235.762 242.631 232.695 246.002 226.699 252.385Z" fill="#1898FC"/>
<path d="M240.403 212.404C239.767 211.658 239.325 210.719 239.38 209.669C239.601 206.657 243.773 207.32 244.575 208.84C245.376 210.36 245.293 214.2 244.243 214.476C243.829 214.587 242.945 214.311 242.033 213.786L242.613 217.82H239.242L240.403 212.404Z" fill="#FCD6D6"/>
<path d="M246.093 206.739C246.011 206.491 245.845 206.297 245.596 206.214C245.541 206.187 245.458 206.187 245.403 206.187C245.375 206.187 245.375 206.187 245.375 206.187C245.375 206.187 245.375 206.159 245.375 206.131C245.375 206.076 245.347 206.048 245.347 205.993C245.292 205.855 245.209 205.717 245.099 205.634C244.905 205.441 244.629 205.302 244.353 205.275C244.187 205.275 244.049 205.275 243.911 205.33C243.828 205.358 243.773 205.385 243.69 205.413C243.662 205.413 243.607 205.468 243.579 205.468C243.552 205.468 243.496 205.413 243.496 205.385C243.248 205.192 242.971 205.137 242.667 205.137C242.336 205.137 242.004 205.164 241.728 205.358C241.673 205.413 241.617 205.441 241.562 205.496C241.535 205.524 241.507 205.551 241.479 205.579C241.452 205.606 241.452 205.606 241.424 205.634C241.396 205.662 241.396 205.662 241.369 205.662C241.231 205.579 241.065 205.551 240.927 205.551C240.844 205.551 240.733 205.579 240.65 205.634C240.623 205.634 240.54 205.689 240.512 205.689C240.485 205.689 240.402 205.634 240.374 205.634C240.208 205.579 240.015 205.551 239.822 205.579C239.628 205.606 239.462 205.689 239.297 205.8C239.214 205.855 239.158 205.91 239.103 205.966C239.076 205.993 239.048 206.021 239.02 206.048C238.993 206.076 238.965 206.076 238.965 206.104C238.965 206.104 238.772 206.021 238.744 205.993C238.634 205.966 238.523 205.966 238.44 205.993C238.247 206.048 238.081 206.187 237.943 206.352C237.86 206.435 237.805 206.518 237.749 206.601C237.722 206.656 237.694 206.684 237.694 206.739C237.694 206.767 237.666 206.794 237.666 206.794C237.639 206.822 237.639 206.822 237.611 206.822C237.445 206.877 237.307 206.96 237.197 207.098C237.086 207.237 237.003 207.375 236.976 207.54V207.596C236.976 207.596 236.948 207.596 236.92 207.596C236.865 207.596 236.838 207.596 236.782 207.623C236.699 207.651 236.644 207.679 236.561 207.706C236.285 207.844 236.092 208.093 236.009 208.369C235.898 208.673 235.898 209.005 236.036 209.309C236.064 209.364 236.092 209.392 236.092 209.447C236.119 209.475 236.119 209.475 236.092 209.502C236.092 209.53 236.064 209.557 236.036 209.585C235.981 209.696 235.953 209.778 235.926 209.889C235.898 210.055 235.871 210.248 235.898 210.414C235.926 210.497 235.953 210.58 235.981 210.663C236.009 210.69 236.036 210.746 236.064 210.773C236.092 210.801 236.092 210.801 236.119 210.828L236.147 210.856C236.174 210.884 236.174 210.856 236.147 210.884C236.147 210.939 236.092 210.994 236.092 211.022C236.064 211.077 236.064 211.132 236.036 211.16C236.009 211.27 235.981 211.381 235.953 211.464C235.926 211.657 235.926 211.878 236.036 212.072C236.092 212.155 236.147 212.21 236.202 212.265C236.23 212.293 236.285 212.32 236.313 212.348C236.34 212.348 236.368 212.376 236.368 212.376C236.368 212.403 236.368 212.431 236.368 212.459C236.34 212.68 236.313 212.873 236.396 213.094C236.451 213.287 236.589 213.453 236.755 213.564C237.059 213.785 237.501 213.757 237.832 213.591C237.915 213.536 237.998 213.481 238.081 213.426C238.274 213.674 238.633 213.674 238.91 213.591C239.241 213.508 239.518 213.26 239.683 212.956C239.904 213.205 240.347 213.122 240.485 212.845C240.512 212.79 240.54 212.707 240.54 212.624C240.54 212.597 240.54 212.541 240.54 212.514C240.54 212.459 240.568 212.403 240.595 212.376C240.623 212.293 240.65 212.182 240.65 212.072C240.65 212.016 240.65 211.961 240.65 211.906C240.65 211.851 240.65 211.823 240.678 211.768C240.595 211.795 240.485 211.768 240.402 211.74C240.319 211.713 240.236 211.657 240.181 211.602C240.043 211.464 239.96 211.298 239.904 211.105C239.794 210.718 239.822 210.248 240.236 210.027C240.429 209.917 240.982 209.917 241.175 209.972C241.396 210.027 241.673 210.524 241.673 210.58C241.673 210.607 241.673 210.635 241.7 210.663C241.756 210.718 241.866 210.635 241.894 210.607C241.977 210.552 242.032 210.469 242.06 210.359C242.17 210.165 242.253 209.972 242.308 209.751C242.363 209.585 242.391 209.419 242.446 209.281C242.502 209.115 242.585 208.977 242.75 208.894C242.916 208.811 243.082 208.756 243.248 208.701C243.413 208.646 243.579 208.563 243.717 208.452C243.745 208.425 243.773 208.397 243.8 208.369C243.828 208.342 243.828 208.286 243.855 208.286C243.911 208.259 243.966 208.314 243.994 208.342C244.187 208.452 244.325 208.618 244.463 208.811C244.574 208.977 244.684 209.171 244.767 209.364C244.822 209.502 244.878 209.696 244.988 209.834C245.044 209.889 245.403 209.917 245.513 209.861C245.624 209.806 245.762 209.696 245.79 209.613C245.817 209.53 245.845 209.447 245.817 209.364C245.817 209.309 245.79 209.254 245.762 209.226C245.762 209.171 245.734 209.143 245.734 209.115C245.707 209.032 245.624 208.977 245.541 208.977C245.624 208.894 245.679 208.811 245.734 208.701C245.79 208.59 245.817 208.48 245.845 208.342C245.845 208.259 245.845 208.148 245.79 208.065C245.734 207.983 245.651 207.927 245.568 207.872C245.707 207.762 245.817 207.651 245.9 207.513C246.066 207.375 246.176 207.071 246.093 206.739Z" fill="#CE310D"/>
<path d="M244.962 211.049C244.99 211.629 245.846 212.154 245.708 212.734C245.543 212.845 244.935 213.038 244.824 212.872" fill="#FCD6D6"/>
<path d="M244.99 210.772L244.742 210.8C244.659 210.8 244.576 210.8 244.521 210.8C244.438 210.8 244.355 210.8 244.299 210.772C244.217 210.772 244.161 210.745 244.051 210.745C244.078 210.634 244.189 210.579 244.272 210.551C244.355 210.524 244.438 210.496 244.548 210.496C244.631 210.496 244.714 210.524 244.824 210.551C244.852 210.607 244.935 210.662 244.99 210.772Z" fill="#CE310D"/>
<path d="M244.769 213.537C244.603 213.565 244.437 213.565 244.271 213.565C244.106 213.537 243.94 213.482 243.774 213.371L243.332 212.957L243.885 213.123C244.023 213.178 244.189 213.206 244.327 213.261C244.41 213.289 244.492 213.316 244.548 213.344C244.631 213.371 244.713 213.399 244.769 213.454C244.686 213.427 244.603 213.427 244.548 213.427C244.465 213.427 244.382 213.427 244.327 213.427C244.161 213.427 244.023 213.427 243.857 213.427L243.968 213.178C244.05 213.289 244.161 213.371 244.299 213.427C244.465 213.482 244.631 213.51 244.769 213.537Z" fill="#CE310D"/>
<path d="M244.549 211.408C244.64 211.408 244.714 211.334 244.714 211.242C244.714 211.15 244.64 211.076 244.549 211.076C244.457 211.076 244.383 211.15 244.383 211.242C244.383 211.334 244.457 211.408 244.549 211.408Z" fill="#CE310D"/>
<path d="M250.876 226.522L255.352 229.81C256.567 230.142 257.59 230.556 258.391 231.026C258.584 231.191 258.805 231.551 258.032 231.495C257.231 231.44 256.402 231.413 256.291 231.689C256.181 231.965 256.65 232.297 256.429 232.656C256.291 232.905 255.573 232.297 254.329 230.805L249.909 228.981L250.876 226.522ZM230.651 225.141L233.11 225.583C230.237 231.274 228.717 234.286 228.496 234.618C228.026 235.364 228.496 236.69 228.662 237.381C227.639 237.629 228.026 236.082 226.728 236.441C225.567 236.745 224.572 237.519 223.44 236.524C223.302 236.413 223.191 236.027 223.661 235.806C224.794 235.281 226.479 234.314 226.755 233.954C227.142 233.457 228.441 230.528 230.651 225.141Z" fill="#FCD6D6"/>
<path d="M251.926 226.882C252.507 226.854 253.115 226.937 253.805 227.158C254.137 227.269 254.303 227.628 254.192 227.96C254.137 228.153 253.971 228.291 253.805 228.346C253.943 228.429 254.054 228.54 254.192 228.623L253.059 230.916C248.307 228.54 243.859 226.772 241.814 222.848C241.123 221.55 241.372 217.074 241.289 215.471L242.781 214.863C244.881 219.201 247.727 223.346 251.926 226.882Z" fill="#CE310D"/>
<path d="M236.039 230.555C240.46 231.053 243.913 231.053 246.455 230.555C246.759 230.5 246.759 229.146 246.621 228.787C244.356 223.04 242.864 218.84 242.864 214.834C242.449 215.055 241.731 215.083 240.681 214.945C237.863 219.034 236.592 223.758 236.039 230.555Z" fill="#77100B"/>
<path d="M235.21 231.247C235.072 231.109 234.989 230.888 235.016 230.667L235.099 230.252C235.154 229.976 235.375 229.755 235.652 229.727C235.707 229.506 235.735 229.313 235.762 229.092C236.039 227.351 235.569 225.61 235.597 223.925C233.331 225.859 231.314 229.175 229.518 233.899L226.866 233.126C226.976 232.739 227.059 232.38 227.17 232.02C226.866 231.855 226.506 231.053 226.755 230.915C227.031 230.777 227.308 230.694 227.612 230.611C230.043 223.29 234.022 217.957 239.52 214.559H240.266H241.095C240.625 220.775 247.118 234.314 244.852 245.89C240.68 246.83 234.74 243.929 228.965 246.25C229.214 241.608 233.524 236.137 235.21 231.247Z" fill="#FC4E24"/>
<path d="M240.127 214.725L239.381 216.935L240.845 218.62L239.519 219.919L242.724 225.39L238.828 219.947L240.127 218.62L238.828 217.128L240.127 214.725Z" fill="black" fill-opacity="0.1"/>
<path d="M241.787 227.49C241.483 227.49 241.234 227.241 241.234 226.937C241.234 226.633 241.483 226.385 241.787 226.385C242.091 226.385 242.34 226.633 242.34 226.937C242.34 227.241 242.091 227.49 241.787 227.49ZM242.478 230.695C242.174 230.695 241.925 230.446 241.925 230.142C241.925 229.838 242.174 229.59 242.478 229.59C242.782 229.59 243.03 229.838 243.03 230.142C243.058 230.446 242.782 230.695 242.478 230.695ZM242.616 233.928C242.312 233.928 242.063 233.679 242.063 233.375C242.063 233.071 242.312 232.822 242.616 232.822C242.92 232.822 243.168 233.071 243.168 233.375C243.168 233.679 242.947 233.928 242.616 233.928Z" fill="black" fill-opacity="0.4"/>
<path d="M269.139 221.66H268.918V242.88H283.534H283.783V221.66H269.139Z" fill="#FCD6D6"/>
<path d="M268.918 221.659L270.659 219.697H282.042L283.783 221.659H268.918Z" fill="#F9E8E8"/>
<path d="M277.678 220.168C279.889 218.842 281.519 214.145 281.519 211.962C281.519 209.807 279.944 208.011 277.817 207.458V204.889H278.673V204.309H274.225V204.889H275.081V207.458C272.954 208.011 271.379 209.835 271.379 211.962C271.379 214.172 273.037 218.842 275.275 220.168C274.169 220.223 273.396 220.361 273.396 220.527C273.396 220.748 274.777 220.914 276.463 220.914C278.148 220.914 279.53 220.748 279.53 220.527C279.53 220.361 278.756 220.223 277.678 220.168Z" fill="#CE310D"/>
<path d="M276.489 214.422C278.198 214.422 279.584 213.235 279.584 211.77C279.584 210.305 278.198 209.117 276.489 209.117C274.78 209.117 273.395 210.305 273.395 211.77C273.395 213.235 274.78 214.422 276.489 214.422Z" fill="#F96353"/>
<path d="M287.317 227.49C286.406 227.96 285.439 228.402 284.444 228.734C279.305 230.557 273.475 230.557 268.336 228.789C267.286 228.43 266.264 227.988 265.297 227.49L264.551 228.319C265.545 228.844 266.595 229.286 267.673 229.673C270.353 230.612 273.282 231.11 276.293 231.11C279.36 231.11 282.317 230.612 285.052 229.618C286.074 229.259 287.069 228.816 288.036 228.319L287.317 227.49Z" fill="#EA3815"/>
<path d="M267.758 243.35C267.454 243.046 266.791 242.852 266.017 242.852H265.161V228.015V227.49H264.249H263.31V228.015V242.852H262.453C261.68 242.852 261.017 243.073 260.713 243.35C260.602 243.46 260.547 243.571 260.547 243.709V243.819H267.896V243.709C267.896 243.571 267.841 243.46 267.758 243.35Z" fill="#EA3815"/>
<path d="M265.713 227.214H264.801V224.23H263.668V227.214H262.784C262.646 227.214 262.535 227.325 262.535 227.463C262.535 227.601 262.646 227.712 262.784 227.712H263.668V228.071H264.801V227.712H265.713C265.851 227.712 265.961 227.601 265.961 227.463C265.961 227.325 265.851 227.214 265.713 227.214Z" fill="#EA3815"/>
<path d="M264.967 221.744C264.746 221.661 264.498 221.605 264.221 221.605C263.448 221.605 262.812 222.048 262.564 222.655C262.508 222.821 262.453 222.987 262.453 223.18C262.453 224.037 263.227 224.728 264.194 224.728C265.161 224.728 265.934 224.037 265.934 223.18C265.962 222.545 265.575 221.992 264.967 221.744Z" fill="#EA3815"/>
<path d="M291.715 243.211C291.411 242.907 290.748 242.714 289.975 242.714H289.118V227.877V227.352H288.206H287.267V227.877V242.714H286.41C285.637 242.714 284.974 242.935 284.67 243.211C284.559 243.321 284.504 243.432 284.504 243.57V243.681H291.853V243.57C291.881 243.432 291.798 243.321 291.715 243.211Z" fill="#EA3815"/>
<path d="M289.67 227.076H288.758V224.092H287.625V227.076H286.741C286.603 227.076 286.492 227.186 286.492 227.324C286.492 227.463 286.603 227.573 286.741 227.573H287.625V227.932H288.758V227.573H289.67C289.808 227.573 289.918 227.463 289.918 227.324C289.918 227.186 289.808 227.076 289.67 227.076Z" fill="#EA3815"/>
<path d="M288.924 221.605C288.703 221.522 288.455 221.467 288.178 221.467C287.405 221.467 286.769 221.909 286.521 222.517C286.465 222.682 286.41 222.848 286.41 223.042C286.41 223.898 287.184 224.589 288.151 224.589C289.118 224.589 289.891 223.898 289.891 223.042C289.947 222.406 289.532 221.854 288.924 221.605Z" fill="#EA3815"/>
<path d="M307.825 210.359L302.934 227.158L300.641 239.785H298.348L300.641 210.359H307.825Z" fill="#F96353"/>
<path d="M310.01 210.359C309.678 219.09 309.816 223.843 309.872 224.644C309.927 225.445 310.369 230.75 313.325 240.033H310.922C307.026 231.109 305.672 225.804 305.202 224.644C304.76 223.483 303.434 218.703 301.5 210.359H310.01Z" fill="#F96353"/>
<path d="M307.936 210.359C306.665 216.134 304.482 225.362 301.36 238.044H297.989C297.741 225.031 298.791 216.465 300.642 210.359H307.936Z" fill="#B2230B"/>
<path d="M310.035 210.359C309.703 219.09 310.56 227.683 313.24 238.182H309.648C305.752 229.396 302.934 220.831 301.027 210.359H310.035Z" fill="#CE310D"/>
<path d="M313.681 241.775L313.542 239.647C312.769 239.868 311.802 239.786 310.641 239.371C309.398 240.255 307.823 240.863 305.917 241.195C305.779 241.222 305.668 241.36 305.696 241.499V241.526L305.889 242.162H310.641H313.404L313.681 241.775Z" fill="#B2230B"/>
<path d="M301.169 241.775L301.031 239.647C300.257 239.868 299.29 239.786 298.13 239.371C296.886 240.255 295.311 240.863 293.405 241.195C293.267 241.222 293.156 241.36 293.184 241.499V241.526L293.377 242.162H298.13H300.893L301.169 241.775Z" fill="#B2230B"/>
<path d="M306.029 193.809C306.637 193.091 307.051 192.207 306.996 191.212C306.803 188.366 302.824 189.002 302.05 190.438C301.277 191.875 301.36 195.522 302.354 195.771C302.741 195.881 303.598 195.633 304.454 195.108L303.902 198.948H307.107L306.029 193.809Z" fill="#F96353"/>
<path d="M304.315 191.543C304.205 193.256 303.873 194.085 303.348 194.085C302.575 194.085 301.884 193.588 301.552 193.588C301.304 193.588 301.359 193.892 301.525 194.141C301.663 194.334 302.326 194.527 302.326 194.831C302.326 195.135 301.801 194.887 301.801 195.08C301.801 195.384 301.718 195.937 302.215 195.937C302.74 195.937 304.205 195.743 304.453 194.997C304.619 194.5 304.73 193.478 304.757 191.93C304.785 191.93 304.813 191.93 304.84 191.93C305.282 191.93 305.641 192.289 305.641 192.732C305.641 192.953 305.558 193.146 305.393 193.312C305.586 193.56 305.78 193.837 306.028 194.113C306.912 193.588 307.714 192.013 306.829 190.521C306.581 189.775 305.918 189.388 305.255 189.195C304.73 188.974 304.205 188.946 303.735 189.084C302.851 189.167 302.05 189.444 301.801 189.609C301.801 190.466 301.967 190.715 303.376 190.687C303.79 190.825 304.039 191.129 304.315 191.543Z" fill="#77100B"/>
<path d="M301.636 192.041C301.719 192.566 301.028 192.953 301.055 193.45C301.277 193.505 301.498 193.561 301.719 193.588" fill="#F96353"/>
<path d="M301.883 191.71C302.021 191.544 302.214 191.517 302.408 191.544C302.491 191.572 302.601 191.6 302.684 191.683C302.767 191.738 302.822 191.848 302.795 191.959C302.712 191.904 302.629 191.876 302.574 191.876C302.518 191.848 302.435 191.848 302.38 191.821C302.214 191.766 302.076 191.766 301.883 191.71Z" fill="#77100B"/>
<path d="M302.162 192.345C302.253 192.345 302.328 192.271 302.328 192.179C302.328 192.088 302.253 192.014 302.162 192.014C302.07 192.014 301.996 192.088 301.996 192.179C301.996 192.271 302.07 192.345 302.162 192.345Z" fill="#77100B"/>
<path d="M297.878 209.587L293.954 211.908C292.96 213.455 292.407 214.118 292.214 213.925C291.965 213.621 292.379 213.234 292.214 212.985C292.048 212.737 291.274 212.875 290.556 213.04C289.81 213.206 289.976 212.847 290.141 212.654C290.832 212.101 291.744 211.576 292.849 211.106L296.607 207.432L297.878 209.587ZM315.063 216.439C315.257 216.826 316.666 218.014 317.633 218.677C318.02 218.953 317.854 219.285 317.716 219.395C316.5 220.141 315.726 219.257 314.676 218.76C313.544 218.235 313.626 219.727 312.715 219.312C312.991 218.677 313.654 217.516 313.35 216.77C313.212 216.439 312.273 213.483 310.56 207.957H313.35C314.234 213.068 314.815 215.914 315.063 216.439Z" fill="#F96353"/>
<path d="M305.448 196.27L304.287 196.076C302.298 201.022 298.844 205.525 293.898 209.559L297.628 214.091C302.602 208.316 305.641 202.376 305.448 196.27Z" fill="#EA3815"/>
<path d="M310.477 210.719H300.227C302.603 204.945 303.791 200.054 303.791 196.02L306.885 195.551C309.317 199.447 309.98 204.254 310.477 210.719Z" fill="#DDE3E9"/>
<path d="M306.938 195.551H306.744C306.496 195.551 306.137 195.578 305.639 195.606L304.893 197.734C304.81 200.331 304.341 205.58 303.512 213.455H310.226C310.198 214.007 310.17 214.56 310.143 215.112H315.144C314.37 206.685 311.662 200.165 306.938 195.551Z" fill="#FC4E24"/>
<path d="M309.784 206.492C309.591 209.891 309.121 212.239 308.348 213.51H310.226C310.309 211.079 310.144 208.73 309.784 206.492Z" fill="black" fill-opacity="0.1"/>
<path d="M308.737 209.393L305.422 207.846V209.393H308.737Z" fill="white" fill-opacity="0.2"/>
<path d="M287.872 185.961H281V189.941H287.872V185.961Z" fill="#FFFBF3"/>
<path d="M286.142 186.852H281.742V187.049H286.142V186.852Z" fill="#9E180A"/>
<path d="M285.475 187.518H281.742V187.715H285.475V187.518Z" fill="#9E180A"/>
<path d="M282.83 188.234H281.742V188.432H282.83V188.234Z" fill="#9E180A"/>
<path d="M306.091 156H281V181.091H306.091V156Z" fill="#77100B"/>
<path d="M305.076 157.014H282.012V180.078H305.076V157.014Z" fill="#F9E8E8"/>
<path d="M283.25 158.25V178.867H303.867V158.25H283.25ZM285.524 168.583C285.524 167.767 285.697 167.001 286.019 166.309C286.884 164.43 288.763 163.145 290.963 163.145C291.729 163.145 292.471 163.318 293.138 163.614C291.779 164.208 290.716 165.345 290.221 166.729C291.062 166.161 292.1 165.839 293.188 165.839C294.226 165.839 295.215 166.136 296.03 166.655C296.203 167.125 296.327 167.594 296.377 168.113C295.511 169.992 293.633 171.278 291.432 171.278C291.136 171.278 290.864 171.253 290.567 171.203C290.147 170.437 289.9 169.522 289.9 168.583C289.9 167.916 290.023 167.298 290.221 166.729C289.084 167.471 288.244 168.633 287.897 169.992C287.799 170.412 287.749 170.833 287.749 171.278C287.749 171.97 287.873 172.613 288.095 173.231C286.538 172.266 285.524 170.536 285.524 168.583Z" fill="#FFB94D"/>
<path d="M303.867 158.25H283.25V178.867H303.867V158.25Z" fill="#FCD6D6"/>
<path d="M293.185 165.84C292.097 165.84 291.084 166.161 290.219 166.73C290.738 165.346 291.801 164.209 293.136 163.615C294.471 164.184 295.509 165.296 296.028 166.656C295.188 166.137 294.223 165.84 293.185 165.84Z" fill="#FC4E24"/>
<path d="M296.376 168.583C296.376 170.807 295.041 172.711 293.138 173.551C292.47 173.848 291.729 174.021 290.962 174.021C289.924 174.021 288.935 173.724 288.119 173.23C287.897 172.637 287.773 171.969 287.773 171.277C287.773 170.832 287.823 170.387 287.922 169.992C288.243 168.632 289.084 167.47 290.245 166.729C290.023 167.322 289.924 167.94 289.924 168.583C289.924 169.522 290.171 170.437 290.592 171.203C290.863 171.252 291.16 171.277 291.457 171.277C293.657 171.277 295.536 169.967 296.401 168.113C296.376 168.261 296.376 168.41 296.376 168.583Z" fill="#FC4E24"/>
<path d="M290.592 170.98C290.864 171.03 291.136 171.054 291.408 171.054C293.41 171.054 295.264 169.892 296.104 168.088C296.055 167.668 295.956 167.223 295.808 166.827C295.017 166.357 294.077 166.11 293.163 166.11C292.149 166.11 291.16 166.407 290.32 166.951L289.727 167.346L289.974 166.679C290.493 165.245 291.605 164.058 293.014 163.44C293.731 163.119 294.498 162.971 295.289 162.971C295.585 162.971 295.882 162.995 296.179 163.045C298.947 163.49 300.95 165.838 300.95 168.632C300.95 170.56 299.986 172.34 298.379 173.378C297.464 173.971 296.401 174.293 295.289 174.293C294.498 174.293 293.731 174.144 293.014 173.823C291.877 173.329 290.938 172.463 290.32 171.376L290.592 170.98ZM291.012 171.499C291.556 172.315 292.322 172.958 293.237 173.353C293.904 173.65 294.596 173.798 295.338 173.798C296.352 173.798 297.34 173.502 298.181 172.958C299.664 171.994 300.554 170.362 300.554 168.607C300.554 166.036 298.725 163.885 296.179 163.465C295.907 163.416 295.635 163.391 295.363 163.391C294.646 163.391 293.929 163.539 293.262 163.836C292.174 164.306 291.284 165.146 290.74 166.184C291.506 165.814 292.347 165.616 293.212 165.616C294.25 165.616 295.289 165.912 296.179 166.456L296.253 166.506L296.277 166.58C296.475 167.074 296.574 167.593 296.624 168.113V168.162L296.599 168.211C295.684 170.214 293.657 171.524 291.457 171.524C291.284 171.499 291.136 171.499 291.012 171.499Z" fill="#F96353"/>
<path d="M296.151 166.433C296.398 166.582 296.621 166.755 296.843 166.952C298.104 168.04 298.845 169.598 298.845 171.279C298.845 171.946 298.722 172.613 298.499 173.231C297.683 175.456 295.533 176.964 293.184 176.964C290.861 176.964 288.735 175.506 287.894 173.33C287.647 172.688 287.523 171.995 287.523 171.303C287.523 170.834 287.573 170.389 287.696 169.944C288.043 168.535 288.883 167.323 290.119 166.532L290.712 166.137L290.465 166.804C290.267 167.373 290.144 167.966 290.144 168.584C290.144 169.425 290.342 170.24 290.737 170.982C290.984 171.007 291.207 171.031 291.454 171.031C293.456 171.031 295.31 169.869 296.151 168.065C296.101 167.62 296.003 167.15 295.829 166.73L296.151 166.433ZM289.798 167.323C288.982 168.04 288.389 168.98 288.141 170.043C288.043 170.438 287.993 170.858 287.993 171.279C287.993 171.921 288.117 172.539 288.339 173.133C289.106 175.135 291.058 176.47 293.209 176.47C295.385 176.47 297.337 175.11 298.104 173.058C298.302 172.49 298.425 171.897 298.425 171.279C298.425 169.746 297.758 168.312 296.596 167.323C296.571 167.299 296.546 167.274 296.497 167.249C296.571 167.521 296.621 167.818 296.645 168.09V168.139L296.621 168.189C295.706 170.191 293.679 171.501 291.479 171.501C291.182 171.501 290.885 171.476 290.589 171.427L290.465 171.402L290.416 171.303C289.946 170.463 289.724 169.523 289.724 168.559C289.649 168.164 289.699 167.744 289.798 167.323Z" fill="#F96353"/>
<path d="M296.203 169.004L296.129 168.114C296.079 167.669 295.98 167.224 295.832 166.779C295.041 166.309 294.102 166.062 293.187 166.062C292.173 166.062 291.185 166.359 290.344 166.902L289.751 167.298L289.998 166.63C290.468 165.345 291.382 164.282 292.544 163.639C292.025 163.466 291.481 163.392 290.937 163.392C288.91 163.392 287.056 164.579 286.216 166.433L285.845 167.248L285.771 166.359C285.746 166.185 285.746 166.012 285.746 165.864C285.746 162.749 288.292 160.203 291.407 160.203C293.484 160.203 295.387 161.316 296.376 163.145C296.846 163.985 297.068 164.925 297.068 165.889C297.068 166.359 297.019 166.803 296.895 167.248C296.821 167.595 296.697 167.941 296.549 168.262L296.203 169.004ZM293.187 165.592C294.225 165.592 295.263 165.889 296.153 166.433L296.228 166.482L296.252 166.556C296.326 166.754 296.401 166.977 296.45 167.174C296.45 167.125 296.475 167.1 296.475 167.051C296.574 166.655 296.623 166.235 296.623 165.815C296.623 164.949 296.401 164.06 295.98 163.318C295.066 161.662 293.311 160.623 291.432 160.623C288.713 160.623 286.463 162.749 286.241 165.419C287.279 163.862 289.059 162.898 290.962 162.898C291.753 162.898 292.519 163.071 293.236 163.367L293.731 163.59L293.236 163.812C292.149 164.282 291.259 165.122 290.715 166.161C291.481 165.79 292.322 165.592 293.187 165.592Z" fill="#F9897D"/>
<path d="M348.552 156H320V184.552H348.552V156Z" fill="#9E180A"/>
<path d="M347.34 157.211H321.211V183.34H347.34V157.211Z" fill="#F9E8E8"/>
<path d="M346.404 158.15H322.129V182.426H346.404V158.15Z" fill="#FCA19A"/>
<path d="M346.403 170.313C346.403 170.313 345.117 175.158 338.492 174.07C329.37 172.563 333.721 163.96 329.346 168.533C324.97 173.106 333.153 172.118 328.011 175.282C322.869 178.446 321.633 180.844 321.633 180.844V182.426H346.403V170.313Z" fill="#FCD6D6"/>
<path d="M338.071 177.728C338.071 177.728 338.121 173.575 335.698 168.903C333.276 164.231 335.748 159.114 336.662 160.844C337.577 162.575 336.959 167.791 338.269 170.263C339.604 172.76 341.804 176.319 340.321 176.937C338.838 177.58 338.071 177.728 338.071 177.728Z" fill="#FC7660"/>
<path d="M330.183 158.15C330.183 158.15 324.967 161.29 326.475 164.504C327.982 167.717 326.549 168.953 324.695 170.288C322.841 171.648 322.148 174.54 322.148 174.54C322.148 174.54 325.09 161.216 322.148 158.15H330.183Z" fill="#F9BAB7"/>
<path d="M326.872 189H320V192.98H326.872V189Z" fill="#FFFBF3"/>
<path d="M325.142 189.891H320.742V190.088H325.142V189.891Z" fill="#9E180A"/>
<path d="M324.475 190.557H320.742V190.754H324.475V190.557Z" fill="#9E180A"/>
<path d="M321.83 191.273H320.742V191.471H321.83V191.273Z" fill="#9E180A"/>
</g>
<defs>
<linearGradient id="paint0_linear" x1="45.0335" y1="93.0571" x2="45.6034" y2="-26.6291" gradientUnits="userSpaceOnUse">
<stop stop-color="white" stop-opacity="0"/>
<stop offset="1" stop-color="white"/>
</linearGradient>
<linearGradient id="paint1_linear" x1="135.081" y1="93.0568" x2="135.651" y2="-26.6294" gradientUnits="userSpaceOnUse">
<stop stop-color="white" stop-opacity="0"/>
<stop offset="1" stop-color="white"/>
</linearGradient>
<linearGradient id="paint2_linear" x1="225.116" y1="93.0571" x2="225.686" y2="-26.6291" gradientUnits="userSpaceOnUse">
<stop stop-color="white" stop-opacity="0"/>
<stop offset="1" stop-color="white"/>
</linearGradient>
<linearGradient id="paint3_linear" x1="315.164" y1="93.0571" x2="315.734" y2="-26.6291" gradientUnits="userSpaceOnUse">
<stop stop-color="white" stop-opacity="0"/>
<stop offset="1" stop-color="white"/>
</linearGradient>
<clipPath id="clip0">
<rect width="360" height="280" fill="white"/>
</clipPath>
</defs>
</svg>
