<svg width="276" height="175" viewBox="0 0 276 175" fill="none" xmlns="http://www.w3.org/2000/svg">
<path d="M129.987 85.1534L123.775 79.478C120.509 78.5678 119.009 77.9253 119.277 77.497C119.705 76.8545 120.562 77.3899 120.937 77.0151C121.312 76.6403 120.616 75.3018 119.92 74.1239C119.223 72.8924 119.973 72.9995 120.402 73.1601C121.794 74.0703 123.186 75.4089 124.578 77.0687L133.092 81.7268L129.987 85.1534Z" fill="#997659"/>
<path d="M137.002 80.6023C134.003 80.5488 130.04 79.9599 125.81 77.2292L124.15 80.9236C127.095 83.8148 131.218 86.2242 134.806 86.1171C137.591 86.0636 139.036 82.6369 137.002 80.6023Z" fill="#F97821"/>
<path d="M42.1145 102.822L50.575 104.321C52.235 105.338 53.788 106.035 55.2338 106.409C55.6087 106.463 56.2512 106.302 55.3409 105.499C54.4306 104.696 53.4667 103.732 53.6274 103.357C53.788 102.983 54.6982 103.143 54.8589 102.501C54.966 102.072 53.5202 101.965 50.575 102.126L43.7744 99.1277L42.1145 102.822Z" fill="#B28B67"/>
<path d="M28.7813 84.0825C33.7613 90.8823 40.2406 95.7545 49.3438 100.466L46.7199 104.428C37.0277 102.287 31.8335 100.894 28.46 94.2554C27.6032 92.5956 26.4252 87.0808 25.6755 84.1896L28.7813 84.0825Z" fill="#F97821"/>
<path d="M21.124 107.48C21.5524 113.102 48.1657 129.753 48.3264 130.235C48.3799 130.449 45.649 136.981 40.0264 149.885L42.3826 150.795C50.9503 137.142 55.0198 129.593 54.5915 128.147C53.9489 126.059 47.0413 119.206 33.922 107.587L21.124 107.48Z" fill="#B28B67"/>
<path d="M40.6153 146.94L44.4171 148.332C52.4493 139.283 55.6087 131.841 55.0196 127.986C54.6448 125.47 47.7907 118.617 34.4036 107.48H20.8025C21.2844 120.544 45.97 130.235 46.2913 130.824C46.6661 131.359 43.3998 136.821 40.6153 146.94Z" fill="#F9AA38"/>
<path d="M139.518 65.9855C140.643 64.6469 141.392 63.0407 141.285 61.2203C140.91 55.9732 133.628 57.1512 132.182 59.7747C130.736 62.3982 130.95 69.1444 132.771 69.6263C133.521 69.8404 135.074 69.3586 136.68 68.3948L135.663 75.4623H141.553L139.518 65.9855Z" fill="#6D3815"/>
<path d="M28.0852 78.5143C29.1562 77.2829 29.8523 75.7302 29.7452 74.0704C29.4239 69.1446 22.5698 70.2154 21.2311 72.7319C19.8924 75.1948 20.053 81.5126 21.7666 81.941C22.4627 82.1016 23.9085 81.6733 25.4078 80.763L24.4975 87.3486H30.0129L28.0852 78.5143Z" fill="#B28B67"/>
<path d="M267.827 137.762L275.699 68.4258L260.598 57.7711L257.171 62.3757L207.8 27.1455L203.355 90.0565L267.827 137.762Z" fill="#CE2105"/>
<path d="M267.827 137.762L269.862 74.3688L203.302 27.0918L203.355 90.0564L267.827 137.762Z" fill="#E83D0F"/>
<path d="M255.404 142.045L263.275 72.7093L248.175 62.0546L244.748 66.6056L195.376 31.429L190.932 94.34L255.404 142.045Z" fill="#F97821"/>
<path d="M255.404 142.045L257.385 78.5987L190.825 31.3752L190.932 94.3398L255.404 142.045Z" fill="#FF8F43"/>
<path d="M242.124 147.988L249.942 78.7055L234.895 67.9972L231.468 72.6017L182.043 37.3716L177.653 100.283L242.124 147.988Z" fill="#F9AA38"/>
<path d="M228.951 85.1842L234.038 36.5687L184.613 0L179.419 49.3115L228.951 85.1842Z" fill="#FEEBDE"/>
<path d="M168.977 41.6016L177.652 100.283L242.123 147.988L236.18 91.1808L168.977 41.6016Z" fill="#FCBF35"/>
<path d="M229.219 110.777L183.06 77.2603C183.06 77.2603 179.205 104.138 172.297 115.542C165.39 126.947 150.128 138.833 146.755 140.493L192.217 174.598C192.217 174.598 210.691 162.659 217.438 150.505C224.132 138.404 228.844 122.235 229.219 110.777Z" fill="#FEEBDE"/>
<path d="M224.185 113.4L207.478 101.193C207.478 101.193 205.122 120.361 201.213 125.34L217.706 137.333C217.706 137.28 221.936 129.356 224.185 113.4Z" fill="#13108F"/>
<path d="M194.038 167.798C187.344 163.676 180.919 159.178 174.493 154.627C168.121 150.023 161.802 145.365 155.751 140.332C162.444 144.454 168.87 148.952 175.296 153.503C181.668 158.161 187.987 162.819 194.038 167.798Z" fill="#55A6CE"/>
<path d="M198.107 163.516C191.628 159.553 185.363 155.217 179.205 150.88C173.047 146.489 166.943 141.938 161.052 137.12C167.532 141.082 173.797 145.365 179.955 149.755C186.166 154.199 192.271 158.697 198.107 163.516Z" fill="#55A6CE"/>
<path d="M205.336 155.323C200.517 152.646 195.965 149.701 191.414 146.596C186.916 143.49 182.471 140.278 178.241 136.744C183.06 139.421 187.612 142.366 192.163 145.471C196.715 148.577 201.106 151.789 205.336 155.323Z" fill="#55A6CE"/>
<path d="M209.031 150.719C202.659 146.864 196.501 142.688 190.45 138.458C184.399 134.175 178.402 129.784 172.618 125.073C178.991 128.927 185.149 133.104 191.2 137.333C197.251 141.67 203.248 146.007 209.031 150.719Z" fill="#55A6CE"/>
<path d="M212.137 146.81C206.889 143.704 201.909 140.331 196.983 136.798C192.056 133.264 187.237 129.677 182.632 125.715C187.88 128.766 192.859 132.193 197.786 135.727C202.712 139.261 207.532 142.848 212.137 146.81Z" fill="#55A6CE"/>
<path d="M215.457 141.51C209.085 137.655 202.927 133.478 196.876 129.249C190.825 124.965 184.828 120.575 179.044 115.863C185.417 119.718 191.575 123.894 197.626 128.124C203.677 132.408 209.674 136.798 215.457 141.51Z" fill="#55A6CE"/>
<path d="M196.233 121.378C194.68 120.628 193.234 119.718 191.789 118.808C190.343 117.898 188.951 116.934 187.558 115.917C186.166 114.899 184.827 113.882 183.542 112.811C182.203 111.74 180.918 110.616 179.74 109.385C181.293 110.134 182.739 111.044 184.185 111.954C185.631 112.865 187.023 113.828 188.415 114.846C189.807 115.863 191.146 116.88 192.431 117.951C193.716 119.022 195.001 120.146 196.233 121.378Z" fill="#55A6CE"/>
<path d="M198.161 116.131C196.715 115.382 195.323 114.578 193.93 113.722C192.538 112.865 191.253 111.901 189.914 110.991C188.629 110.027 187.344 109.064 186.059 107.993C184.827 106.976 183.596 105.905 182.471 104.727C183.917 105.476 185.309 106.28 186.701 107.136C188.094 107.993 189.379 108.957 190.718 109.867C192.003 110.831 193.288 111.794 194.573 112.865C195.805 113.882 196.983 114.953 198.161 116.131Z" fill="#55A6CE"/>
<path d="M200.142 110.295C198.643 109.599 197.197 108.796 195.805 107.993C194.412 107.136 193.02 106.28 191.682 105.369C190.343 104.459 189.004 103.495 187.719 102.478C186.434 101.461 185.149 100.444 183.971 99.2656C185.47 99.9617 186.916 100.765 188.308 101.568C189.7 102.425 191.092 103.281 192.431 104.191C193.77 105.102 195.109 106.065 196.394 107.083C197.679 108.1 198.964 109.117 200.142 110.295Z" fill="#55A6CE"/>
<path d="M201.374 104.995C199.875 104.245 198.429 103.389 196.983 102.478C195.537 101.568 194.198 100.658 192.806 99.6942C191.467 98.7305 190.129 97.7132 188.79 96.6424C187.505 95.5716 186.22 94.5007 185.042 93.2693C186.541 94.0189 187.987 94.8755 189.433 95.7857C190.878 96.6959 192.217 97.6061 193.609 98.5699C194.948 99.5336 196.287 100.551 197.626 101.622C198.911 102.693 200.196 103.817 201.374 104.995Z" fill="#55A6CE"/>
<path d="M201.909 159.66C195.591 155.644 189.486 151.361 183.435 146.917C177.438 142.473 171.494 137.976 165.764 133.104C172.083 137.119 178.188 141.402 184.238 145.846C190.289 150.29 196.233 154.841 201.909 159.66Z" fill="#55A6CE"/>
<path d="M228.469 44.2786C226.274 42.9401 224.185 41.548 222.097 40.156C220.009 38.7639 217.92 37.2647 215.885 35.8191C213.85 34.32 211.816 32.8208 209.781 31.2681L206.782 28.9123C205.818 28.1092 204.801 27.306 203.837 26.5029C204.908 27.1454 205.979 27.8415 207.05 28.5375L210.209 30.6256C212.298 32.0177 214.386 33.5168 216.421 34.9625C218.456 36.4616 220.49 37.9608 222.525 39.5135C224.507 41.0662 226.541 42.6189 228.469 44.2786Z" fill="#F9D1B7"/>
<path d="M227.666 53.1665C224.507 51.1319 221.455 49.0438 218.402 46.9021C215.35 44.7605 212.351 42.5653 209.299 40.4236C206.3 38.1749 203.302 36.0332 200.303 33.731L195.859 30.3579C194.413 29.18 192.914 28.0556 191.468 26.8777C193.021 27.895 194.574 28.9658 196.126 29.9831L200.731 33.142C203.784 35.2837 206.782 37.4789 209.835 39.6205C212.833 41.8692 215.832 44.0109 218.831 46.3132C221.776 48.5084 224.775 50.8106 227.666 53.1665Z" fill="#F9D1B7"/>
<path d="M226.648 62.3756C223.81 60.6087 221.079 58.7348 218.295 56.8608C215.51 54.9869 212.833 53.0594 210.102 51.1319C207.425 49.2044 204.694 47.2234 202.07 45.2424L198.107 42.2441C196.822 41.2268 195.483 40.2095 194.198 39.1387C195.59 39.9953 196.983 40.9591 198.375 41.8693L202.498 44.6534C205.283 46.5274 207.96 48.4549 210.691 50.3823C213.368 52.3098 216.099 54.2908 218.723 56.2719C221.401 58.2529 224.025 60.2339 226.648 62.3756Z" fill="#F9D1B7"/>
<path d="M225.471 71.3705C222.097 69.2288 218.777 66.9801 215.457 64.7849C212.137 62.5362 208.87 60.2339 205.551 57.9852C202.284 55.6293 199.018 53.3271 195.805 50.9712L190.985 47.384C189.379 46.1525 187.773 44.9746 186.22 43.7432C187.933 44.814 189.593 45.9384 191.253 47.0092L196.233 50.3823C199.553 52.631 202.82 54.9333 206.14 57.182C209.406 59.5379 212.672 61.8401 215.885 64.1959C219.098 66.4982 222.311 68.9076 225.471 71.3705Z" fill="#F9D1B7"/>
<path d="M39.391 149.031C38.9013 149.594 38.6359 150.01 38.5077 150.362C38.3612 150.765 38.21 151.336 38.0862 152.146C38.539 152.311 42.6148 153.794 50.2631 156.577C50.9496 155.631 51.0002 155.022 50.3323 154.665C49.6645 154.308 49.1293 154.057 48.6948 153.841L43.9749 149.275C43.8926 149.188 43.7234 149.183 43.6364 149.265L42.9545 150.043C42.1905 150.107 41.6324 150.075 41.2299 149.928C40.928 149.818 40.53 149.503 40.0681 149.05C39.8714 148.807 39.5832 148.816 39.391 149.031Z" fill="#E83D0F"/>
<path d="M145.684 100.979L136.795 132.14L130.315 155.163H125.603L132.457 100.979H145.684Z" fill="#CE2105"/>
<path d="M148.094 100.979C148.308 117.042 149.004 125.822 149.218 127.322C149.432 128.821 152.699 138.083 159.017 155.217H154.091C146.059 138.779 141.561 129.463 140.65 127.322C139.74 125.18 136.848 116.399 132.458 100.979H148.094Z" fill="#E83D0F"/>
<path d="M159.446 159.606L159.178 154.466H154.038C151.574 156.18 148.415 157.572 144.453 158.643V159.606H153.77L156.983 159.124V159.606H159.446Z" fill="#F97821"/>
<path d="M130.958 159.606L130.691 154.466H125.55C123.087 156.18 119.927 157.572 115.965 158.643V159.606H125.282L128.495 159.124V159.606H130.958Z" fill="#F97821"/>
<path d="M136.581 61.3586C136.367 64.5175 135.778 66.0702 134.814 66.0702C133.368 66.0702 132.136 65.16 131.494 65.16C131.012 65.16 131.119 65.749 131.44 66.1773C131.708 66.5521 132.94 66.8733 132.94 67.4088C132.94 67.9442 131.976 67.5158 131.976 67.8371C131.976 68.3725 131.815 69.3898 132.725 69.3898C133.689 69.3898 136.42 69.0685 136.849 67.6229C137.17 66.7127 137.331 64.8388 137.438 61.9475C137.491 61.9475 137.545 61.9475 137.598 61.9475C138.402 61.9475 139.044 62.59 139.044 63.3932C139.044 63.8215 138.883 64.1963 138.616 64.464C138.937 64.9459 139.312 65.4277 139.794 65.9631C141.454 64.9994 142.632 62.1082 141.025 59.324C140.597 57.9855 139.58 57.2359 138.402 56.9147C137.438 56.4863 136.42 56.4863 135.617 56.7005C133.957 56.8611 132.511 57.343 132.083 57.6642C132.083 59.2169 132.404 59.6988 134.974 59.6453C135.564 60.0201 136.045 60.609 136.581 61.3586Z" fill="#230C01"/>
<path d="M24.6125 69.4428C25.3622 69.3357 27.2899 69.2286 27.6647 69.2286C27.8789 69.2286 28.1467 69.2822 28.3073 69.068C28.4144 68.9074 28.3609 68.5861 28.4144 68.4255C28.468 68.2113 28.5215 67.9436 28.5751 67.7295C28.7357 67.087 28.9499 66.4445 29.3248 65.8555C29.9673 64.7847 30.8776 63.8745 32.0557 63.3926C33.3408 62.8572 34.7867 62.6966 36.1789 62.8037C37.6783 62.9107 39.0169 63.3926 40.4092 63.8745C41.7479 64.3028 43.1401 64.4634 44.5324 64.2493C45.9246 64.0351 46.9956 63.2855 48.1736 62.536C49.4052 61.7864 50.7439 61.3045 52.1897 61.4116C53.5284 61.5187 54.7601 62.0541 55.831 62.8037C56.8484 63.4997 57.7052 64.3028 58.1871 65.4807C58.7226 66.7122 58.7227 68.1042 57.8659 69.2286C56.6343 70.8348 54.3317 71.2632 52.4575 71.2096C51.333 71.2096 50.262 70.9955 49.2446 70.6207C47.8524 70.1388 46.6743 69.2821 45.3356 68.6397C44.7465 68.3184 44.104 68.0507 43.4614 67.8901C42.8188 67.7295 42.1762 67.6224 41.5872 67.9972C40.9982 68.4255 40.4092 68.8003 39.713 69.068C39.0169 69.3357 38.3208 69.4428 37.6247 69.4428C36.2325 69.4428 34.8402 69.0144 33.5015 68.6932C32.377 68.479 31.1989 68.2113 30.0744 68.4255C29.5924 68.5326 28.8963 68.6932 28.7357 69.2286C31.5737 69.764 32.6982 73.2977 31.895 75.8677C31.4666 77.2598 28.8428 78.9196 27.8254 78.17C27.1828 77.6881 27.5576 77.0992 27.8254 76.6708C28.3073 75.9213 28.468 74.904 27.5576 74.3686C26.808 73.8867 25.9512 75.0111 25.9512 75.0111C25.737 75.0111 23.9164 73.9402 22.6313 72.4411C21.3997 72.4946 21.1854 71.6915 21.5067 70.9955C21.828 70.2994 23.5951 69.6034 24.6125 69.4428Z" fill="#CE2105"/>
<path d="M24.3983 107.083L12.5106 135.566L0.837158 159.66H3.62169L33.7156 107.083H24.3983Z" fill="#997659"/>
<path d="M0.676147 158.535C0.408405 159.231 0.30127 159.713 0.30127 160.088C0.30127 160.516 0.354831 161.105 0.515476 161.908C0.99741 161.908 5.33479 161.908 13.4741 161.908C13.7954 160.784 13.6348 160.195 12.8851 160.088C12.1354 159.981 11.5464 159.927 11.0645 159.874L5.06708 157.197C4.95998 157.143 4.79935 157.197 4.7458 157.304L4.37092 158.267C3.6748 158.589 3.13933 158.749 2.71094 158.749C2.38965 158.749 1.90773 158.589 1.3187 158.321C1.05096 158.214 0.783243 158.321 0.676147 158.535Z" fill="#E83D0F"/>
<path d="M1.90771 154.681L8.01217 155.805C12.7244 148.845 32.5371 120.361 34.7325 107.083H21.1314C13.8489 116.666 6.40573 147.613 1.90771 154.681Z" fill="#FCBF35"/>
<path d="M19.4182 108.528H37.089C33.0729 96.3209 31.0381 87.9684 30.931 83.4174C30.931 83.2033 30.5026 82.7749 30.2884 82.8285C28.8961 83.2033 27.3968 83.0962 25.844 82.4001C21.6672 89.0928 20.2214 97.3917 19.4182 108.528Z" fill="#F2F2F2"/>
<path d="M55.1347 33.999L128.388 43.9577L117.25 148.203L44.0503 135.888L55.1347 33.999Z" fill="#FEEBDE"/>
<path d="M60.4348 77.314C64.8258 77.6888 69.2167 78.2242 73.5541 78.7596C77.9451 79.295 82.2825 79.9375 86.6199 80.5264C90.9573 81.2225 95.3482 81.8114 99.6856 82.561L106.218 83.6854C108.36 84.1137 110.556 84.4885 112.698 84.9168C110.502 84.7562 108.307 84.4885 106.111 84.2743L99.5786 83.4177C95.1876 82.8823 90.8503 82.2398 86.5129 81.6508C82.1755 80.9548 77.7844 80.3658 73.447 79.6162C69.1096 78.9202 64.7722 78.2242 60.4348 77.314Z" fill="#F9D1B7"/>
<path d="M59.5249 85.8269C63.9158 86.2552 68.3068 86.7906 72.6441 87.3261C77.0351 87.8615 81.3725 88.5575 85.7099 89.1465C90.0473 89.8425 94.4381 90.485 98.7755 91.2346L105.308 92.359C107.45 92.7873 109.646 93.1621 111.788 93.5904C109.592 93.3762 107.397 93.1085 105.201 92.8944L98.6685 92.0912C94.2775 91.5558 89.9401 90.9133 85.6027 90.2708C81.2653 89.5748 76.8744 88.9323 72.5371 88.1827C68.1997 87.4331 63.8623 86.6836 59.5249 85.8269Z" fill="#F9D1B7"/>
<path d="M58.6145 94.2864C63.0054 94.7147 67.3964 95.2501 71.7338 95.8391C76.1247 96.428 80.462 97.0705 84.7994 97.713C89.1368 98.4091 93.4742 99.1051 97.8116 99.8547L104.291 101.033C106.433 101.461 108.628 101.836 110.77 102.318C108.575 102.103 106.379 101.836 104.184 101.622L97.6509 100.765C93.26 100.176 88.9226 99.5334 84.5853 98.8909C80.2479 98.1949 75.9105 97.4989 71.5731 96.7493C67.2892 95.9997 62.9519 95.1966 58.6145 94.2864Z" fill="#F9D1B7"/>
<path d="M57.7576 102.8C62.1485 103.228 66.4859 103.817 70.8768 104.406C75.2678 104.995 79.6053 105.691 83.9427 106.333C88.2801 107.083 92.6175 107.725 96.9549 108.528L103.434 109.706C105.576 110.135 107.772 110.563 109.913 110.991C107.718 110.777 105.523 110.509 103.327 110.242L96.7942 109.385C92.4568 108.796 88.0658 108.1 83.7284 107.458C79.391 106.708 75.0537 106.066 70.7163 105.262C66.3789 104.513 62.0414 103.71 57.7576 102.8Z" fill="#F9D1B7"/>
<path d="M56.8474 111.259C61.2383 111.741 65.5757 112.33 69.9667 112.919C74.304 113.508 78.6951 114.204 83.0324 114.9C87.3698 115.65 91.7071 116.346 96.0445 117.149L102.524 118.38C104.666 118.809 106.861 119.237 109.003 119.719C106.808 119.505 104.612 119.183 102.417 118.969L95.8839 118.059C91.5466 117.47 87.1556 116.774 82.8182 116.078C78.4808 115.328 74.1434 114.632 69.806 113.829C65.4686 113.026 61.1312 112.223 56.8474 111.259Z" fill="#F9D1B7"/>
<path d="M55.9373 119.772C60.3282 120.254 64.6656 120.843 69.0565 121.486C73.3939 122.128 77.7848 122.824 82.1222 123.52C86.4595 124.27 90.797 124.966 95.1343 125.822L101.614 127.054C103.756 127.482 105.951 127.911 108.093 128.392C105.897 128.178 103.702 127.857 101.507 127.589L94.9737 126.679C90.6363 126.037 86.2454 125.341 81.908 124.644C77.5706 123.895 73.2332 123.199 68.8958 122.342C64.612 121.539 60.2746 120.736 55.9373 119.772Z" fill="#F9D1B7"/>
<path d="M55.0803 128.232C59.4713 128.714 63.8087 129.356 68.1996 129.999C72.537 130.641 76.8745 131.391 81.2654 132.033C85.6028 132.836 89.9402 133.532 94.2776 134.335L100.757 135.62C102.899 136.102 105.094 136.531 107.236 137.012C105.041 136.798 102.845 136.477 100.65 136.209L94.117 135.299C89.7796 134.657 85.4421 133.907 81.0511 133.211C76.7137 132.408 72.3765 131.712 68.0391 130.855C63.7017 130.052 59.3642 129.195 55.0803 128.232Z" fill="#F9D1B7"/>
<path d="M85.1746 51.2393C87.6913 51.3463 90.2615 51.5605 92.8318 51.8282C95.4021 52.0959 97.9189 52.4172 100.489 52.6849C103.06 53.0597 105.576 53.3809 108.147 53.8093L112.002 54.4517C113.287 54.7194 114.572 54.9336 115.857 55.2549C114.572 55.2013 113.341 55.0942 112.056 55.0407L108.254 54.7194C105.683 54.4517 103.167 54.1305 100.596 53.8628C98.026 53.488 95.5093 53.1668 92.939 52.7384C90.3152 52.2566 87.7449 51.8282 85.1746 51.2393Z" fill="#F9D1B7"/>
<path d="M83.5144 59.6987C86.0312 59.8058 88.6015 60.0735 91.1718 60.3412C93.7421 60.6089 96.2589 60.9837 98.8292 61.2514C101.4 61.6262 103.916 62.001 106.486 62.4293L110.342 63.1254C111.627 63.3931 112.912 63.6072 114.197 63.9285C112.912 63.875 111.627 63.7679 110.396 63.6608L106.594 63.286C104.023 63.0183 101.507 62.6435 98.9363 62.3758C96.366 61.9475 93.8492 61.6262 91.2789 61.1979C88.655 60.7696 86.0847 60.3412 83.5144 59.6987Z" fill="#F9D1B7"/>
<path d="M83.033 68.2117C85.6033 68.3188 88.1199 68.5865 90.6902 68.9077C93.2605 69.1754 95.7773 69.5502 98.3476 69.8715C100.918 70.2998 103.435 70.6746 106.005 71.1029L109.86 71.7989C111.146 72.0666 112.431 72.3343 113.716 72.6556C112.431 72.602 111.146 72.495 109.914 72.3879L106.112 72.0131C103.542 71.7454 101.025 71.3706 98.4546 71.0493C95.8843 70.621 93.3677 70.2462 90.7974 69.8179C88.1736 69.2825 85.6033 68.8006 83.033 68.2117Z" fill="#F9D1B7"/>
<path d="M117.357 88.5569C115.75 87.379 114.251 86.6294 112.859 86.2011C110.181 85.4515 109.11 84.9161 107.825 83.2563C107.129 82.3461 106.54 80.5793 107.183 79.9903C107.611 79.6155 110.235 81.543 111.306 81.7572C112.377 81.9713 111.413 79.4549 111.949 79.7226C112.698 79.7226 113.287 80.7399 113.823 82.7209L117.571 84.7555L117.357 88.5569Z" fill="#6D3815"/>
<path d="M131.065 85.7729C127.906 86.576 122.605 85.6123 115.162 82.9888C113.288 86.7902 112.484 89.5208 112.591 91.1806C118.964 94.5001 124.479 95.9993 128.977 96.1064C128.816 98.7835 129.138 101.353 130.262 103.656C132.511 108.421 145.684 104.031 150.128 104.887C152.913 95.8922 147.558 92.1979 147.558 86.4154C147.558 80.0975 142.471 70.353 141.721 70.353H134.921C134.493 75.2253 132.618 80.5259 131.065 85.7729Z" fill="#FF8F43"/>
<path d="M42.658 82.9359L51.3327 80.3123C52.9392 79.0274 54.4921 78.1171 55.9379 77.5282C56.3663 77.4746 56.3128 77.9565 55.456 78.9738C54.5993 79.9376 59.9005 78.4919 60.1147 78.8667C60.3289 79.2415 57.7585 81.0619 57.0089 81.4367C56.0985 81.7579 54.7598 82.454 51.6005 82.6146L44.8535 86.5767L42.658 82.9359Z" fill="#B28B67"/>
<path d="M27.3433 82.4001C32.4303 82.4537 40.6233 83.3639 50.1013 80.312L51.0115 84.9701C43.8361 89.5746 36.6071 93.1619 30.2349 92.6265C33.0194 104.459 32.8587 114.15 26.7543 114.15C23.8627 114.15 20.7034 114.15 17.3298 114.15C15.8305 104.084 19.7395 90.1636 23.4343 83.1497C23.595 82.882 23.8627 82.4001 24.5588 82.4001C25.2549 82.4001 26.1652 82.4001 27.3433 82.4001Z" fill="#FF8F43"/>
</svg>
