<svg width="269" height="207" viewBox="0 0 269 207" fill="none" xmlns="http://www.w3.org/2000/svg">
<path d="M131.226 200.643H75.6328L79.2835 177.901H127.573L131.226 200.643Z" fill="#3D2884"/>
<path d="M138.807 203.17H68.052V206.961H138.807V203.17Z" fill="#3D2884"/>
<path d="M68.052 203.17L75.6329 200.643H131.226L138.807 203.17H68.052Z" fill="#A396C4"/>
<path d="M1.08716 158.948V173.061C1.08716 175.722 3.24746 177.901 5.88686 177.901H202.236C204.876 177.901 207.036 175.722 207.036 173.061V158.948H1.08716Z" fill="#A396C4"/>
<path d="M207.036 161.475V38.7877C207.036 36.0794 204.875 33.8628 202.236 33.8628H5.88669C3.24725 33.8628 1.08691 36.0794 1.08691 38.7877V161.475H207.036Z" fill="#3D2884"/>
<path d="M103.43 171.583C105.523 171.583 107.22 169.886 107.22 167.793C107.22 165.699 105.523 164.002 103.43 164.002C101.336 164.002 99.6392 165.699 99.6392 167.793C99.6392 169.886 101.336 171.583 103.43 171.583Z" fill="#3D2884"/>
<rect width="190.787" height="100.642" transform="matrix(1 0 0 -1 8.66821 153.894)" fill="url(#paint0_linear)"/>
<rect width="190.787" height="11.8087" transform="matrix(1 0 0 -1 8.66821 53.2524)" fill="#FBFBFB"/>
<rect x="81.3169" y="44.53" width="15.566" height="6.30689" rx="1.61027" fill="#EDEBEB"/>
<rect x="97.9563" y="44.53" width="15.566" height="6.30689" rx="1.61027" fill="#EDEBEB"/>
<rect x="114.596" y="44.53" width="24.1541" height="6.30689" rx="1.61027" fill="#EDEBEB"/>
<rect x="139.823" y="44.53" width="16.2369" height="6.30689" rx="1.61027" fill="#939393"/>
<rect x="157.335" y="44.7313" width="18.1155" height="5.90433" rx="1.40899" fill="white" stroke="#3A3A3A" stroke-width="0.402568"/>
<rect x="176.726" y="44.53" width="18.5181" height="6.30689" rx="1.61027" fill="#939393"/>
<path d="M14.2322 45.7808C14.2322 45.7808 14.227 45.7808 14.2322 45.7808C14.1128 45.8181 14.0193 45.7063 14.0193 45.5944C14.0193 45.5625 14.0245 45.5305 14.0401 45.4985C14.0764 45.4346 14.1543 45.408 14.2166 45.3867C14.3724 45.3387 14.5179 45.2748 14.6737 45.2269C14.7412 45.2056 14.8087 45.1843 14.8762 45.2215C14.9333 45.2535 14.9697 45.3121 14.9749 45.376C14.9905 45.5198 14.8398 45.5784 14.7308 45.6104C14.5646 45.669 14.3984 45.7329 14.2322 45.7808Z" fill="#0421B1"/>
<path d="M23.4766 45.8341C23.3572 45.8714 23.2637 45.7595 23.2637 45.6476C23.2637 45.6157 23.2689 45.5837 23.2844 45.5518C23.3208 45.4878 23.3987 45.4612 23.461 45.4399C23.6168 45.392 23.7622 45.328 23.918 45.2801C23.9856 45.2588 24.0531 45.2375 24.1206 45.2748C24.1777 45.3067 24.2141 45.3653 24.2193 45.4292C24.2348 45.5731 24.0842 45.6317 23.9752 45.6636C23.809 45.7222 23.6428 45.7808 23.4766 45.8341Z" fill="#0421B1"/>
<path d="M12.0718 48.4228C12.0562 48.5985 12.0562 49.0939 11.89 49.1685C11.6771 49.2591 11.5421 49.1472 11.5473 48.9608C11.5577 48.54 11.6044 48.0925 11.6823 47.6717C11.7602 47.2456 11.8173 46.7875 11.9212 46.34C12.0251 45.8819 12.1964 45.9512 12.5756 46.1216C12.8716 46.2548 12.9858 46.617 12.9755 46.9206C12.9703 47.1177 12.9651 47.2882 12.882 47.464C12.8404 47.5492 12.7366 47.7037 12.669 47.7729C12.5963 47.8475 12.56 47.8848 12.4821 47.954C12.3211 48.1032 12.3522 48.0233 12.5444 48.3908C12.6275 48.5506 12.7989 48.7903 12.7781 48.9874C12.7625 49.1472 12.6119 49.1845 12.4925 49.1312C12.3263 49.0726 12.1809 48.6305 12.0718 48.4228ZM12.3003 46.6064C12.2536 46.8727 12.2016 47.2828 12.1549 47.5492C12.6379 47.3681 12.6171 46.6916 12.3003 46.6064Z" fill="#0421B1"/>
<path d="M14.2322 46.5106C14.1491 46.7397 14.1128 47.038 14.0972 47.2723C14.0764 47.576 14.2634 47.3949 14.4659 47.4854C14.6113 47.5493 14.6529 47.6985 14.4867 47.805C14.2582 47.9542 14.092 47.7411 14.04 48.082C14.0141 48.2418 13.9621 48.6413 14.0764 48.7585C14.201 48.8863 14.5178 48.7159 14.6373 48.8757C14.9125 49.2486 13.9414 49.2166 13.796 49.1367C13.4376 48.9396 13.5259 48.3483 13.5519 47.9755C13.583 47.4854 13.6661 46.9741 13.7648 46.484C13.8115 46.239 13.8739 46.1324 14.1335 46.0898C14.3205 46.0632 14.6321 46.0152 14.8087 46.0685C14.9333 46.1058 15.0683 46.2549 14.9385 46.3988C14.8087 46.5319 14.4036 46.4627 14.2322 46.5106Z" fill="#0421B1"/>
<path d="M16.1069 47.3416C16.242 47.3523 16.4549 47.347 16.512 47.4695C16.5899 47.6346 16.377 47.7039 16.2368 47.7252C16.1277 47.7465 16.0498 47.7039 16.0238 47.7465C15.9927 47.8051 15.9823 48.0021 15.9771 48.0554C15.9511 48.2685 15.9252 48.4762 15.9096 48.6893C15.8992 48.8491 15.9407 49.0941 15.733 49.174C15.1981 49.3764 15.4474 48.2791 15.4733 48.082C15.5253 47.6666 15.5876 47.2511 15.6603 46.8409C15.6915 46.6651 15.707 46.4787 15.7486 46.3082C15.7797 46.1751 15.8628 46.0845 16.0186 46.0579C16.2524 46.0206 16.5432 46.0419 16.7613 46.0685C16.8963 46.0845 17.1197 46.1218 17.0885 46.2923C17.0418 46.5053 16.7353 46.4574 16.5847 46.4521C16.3718 46.4467 16.2835 46.4308 16.2264 46.6438C16.1641 46.8782 16.1277 47.1179 16.1069 47.3416Z" fill="#0421B1"/>
<path d="M17.9301 48.4814C18.0495 48.5347 18.1586 48.4974 18.2313 48.1192C18.2884 47.8209 18.4027 46.9313 18.4598 46.633C18.4962 46.4413 18.4962 46.143 18.6883 46.0791C18.813 46.0364 18.974 46.159 18.9895 46.2868C19.0103 46.4573 18.9012 47.1764 18.8701 47.3628C18.8337 47.6025 18.7454 48.1512 18.6831 48.3909C18.5948 48.7531 18.3092 49.2059 17.9093 49.2059C17.1459 49.2059 17.364 47.0485 17.5094 46.4839C17.5458 46.3401 17.5873 46.1057 17.7379 46.0578C17.8989 46.0098 18.0028 46.1749 18.0028 46.3294C17.9976 46.8301 17.712 48.3855 17.9301 48.4814Z" fill="#0421B1"/>
<path d="M20.101 48.6784C20.236 48.6571 20.3502 48.46 20.4022 48.3375C20.423 48.2842 20.4437 48.231 20.4437 48.1724C20.4437 48.0925 20.4022 48.0339 20.3243 48.0073C20.2775 47.9913 20.2204 47.9859 20.1841 47.9487C20.1269 47.8954 20.1269 47.7995 20.1685 47.7356C20.21 47.6717 20.2827 47.6344 20.3554 47.6131C20.5061 47.5651 20.6722 47.5758 20.8177 47.6344C20.9059 47.6717 20.9942 47.7303 21.0306 47.8208C21.0617 47.8954 21.0514 47.9859 21.0358 48.0658C20.9787 48.3961 20.8488 48.721 20.5995 48.9448C20.3502 49.1685 19.9763 49.2484 19.6907 49.0833C19.0259 48.6997 19.4362 47.6557 19.6699 47.1337C19.8153 46.8034 20.0231 46.4998 20.2983 46.2707C20.423 46.1642 20.5684 46.079 20.7346 46.0523C20.8748 46.031 21.0306 46.0577 21.1448 46.1482C21.1916 46.1855 21.2279 46.2388 21.2227 46.2974C21.2124 46.3613 21.1448 46.3986 21.0825 46.4252C20.9838 46.4625 20.8852 46.4945 20.7917 46.5424C20.5632 46.6543 20.3866 46.8567 20.2516 47.0804C20.1165 47.3041 20.0179 47.5225 19.9296 47.7622C19.888 47.8794 19.8517 48.0232 19.8309 48.1511C19.8049 48.3056 19.8153 48.4973 19.9348 48.6145C19.9971 48.6678 20.049 48.6837 20.101 48.6784Z" fill="#0421B1"/>
<path d="M21.9391 48.9983C21.9028 49.1315 21.8301 49.238 21.6535 49.206C21.4561 49.1634 21.4613 48.945 21.4873 48.7852C21.5808 48.2099 21.6847 47.6346 21.7833 47.0594C21.8093 46.9209 21.8456 46.7291 21.9443 46.6226C22.069 46.4894 22.3079 46.5799 22.3286 46.7557C22.3494 46.9102 22.2767 47.1073 22.2455 47.2618C22.2092 47.4642 22.1728 47.6666 22.1365 47.8743C22.0845 48.162 22.0326 48.455 21.9807 48.7426C21.9755 48.8172 21.9651 48.9131 21.9391 48.9983Z" fill="#0421B1"/>
<path d="M25.2526 48.0873C25.2526 48.0767 25.2526 48.066 25.2526 48.0554C25.2526 47.8743 25.128 47.7198 25.0241 47.5813C24.8943 47.4055 24.8268 47.2297 24.8683 47.006C24.8995 46.8409 24.9826 46.6917 25.076 46.5586C25.2422 46.3189 25.4656 46.1111 25.7564 46.0685C25.9018 46.0472 26.3121 46.0046 26.229 46.2762C26.1874 46.4041 26.0368 46.436 25.9382 46.4893C25.7979 46.5692 25.6629 46.6598 25.5538 46.777C25.424 46.9261 25.3409 47.1392 25.398 47.3309C25.4552 47.5333 25.6317 47.6559 25.7252 47.837C25.8239 48.0341 25.7927 48.2738 25.6993 48.4655C25.6162 48.636 25.4863 48.7798 25.3513 48.913C25.128 49.126 24.7281 49.2858 24.4217 49.2059C24.3438 49.1846 24.2763 49.126 24.2659 49.0461C24.2607 48.9769 24.297 48.913 24.349 48.8704C24.4009 48.8277 24.4632 48.8064 24.5255 48.7798C24.7021 48.7106 24.8735 48.6307 25.0137 48.5028C25.1332 48.4069 25.237 48.2471 25.2526 48.0873Z" fill="#0421B1"/>
<path d="M23.4819 46.5319C23.404 46.761 23.3676 47.0539 23.352 47.2883C23.3312 47.5919 23.513 47.4108 23.7104 47.5014C23.8558 47.5653 23.8921 47.7091 23.7311 47.8157C23.5078 47.9648 23.3468 47.7517 23.2949 48.0926C23.2689 48.2524 23.217 48.6466 23.3261 48.7691C23.4455 48.897 23.7571 48.7265 23.8714 48.8863C24.1414 49.2592 23.191 49.2272 23.0508 49.1473C22.7028 48.9502 22.7911 48.3643 22.8119 47.9914C22.8379 47.5014 22.921 46.9953 23.0196 46.5053C23.0664 46.2656 23.1287 46.1537 23.3832 46.1164C23.5701 46.0898 23.8714 46.0419 24.0427 46.0951C24.1674 46.1324 24.2972 46.2816 24.1674 46.4254C24.0427 46.5532 23.648 46.4893 23.4819 46.5319Z" fill="#0421B1"/>
<path d="M22.3497 46.3347C22.251 46.372 22.1315 46.3613 22.0536 46.2921C21.8667 46.111 22.0121 45.786 22.277 45.8446C22.412 45.8766 22.5159 46.0204 22.4951 46.1642C22.4847 46.2494 22.4224 46.308 22.3497 46.3347Z" fill="#0421B1"/>
<path d="M32.5339 47.2297C32.6689 47.2403 32.8922 47.235 32.9545 47.3682C33.0324 47.5439 32.8143 47.6132 32.6689 47.6398C32.5598 47.6611 32.4768 47.6132 32.4508 47.6665C32.4196 47.725 32.4092 47.9328 32.3989 47.9914C32.3729 48.2151 32.3417 48.4335 32.3313 48.6572C32.321 48.8224 32.3625 49.0834 32.1496 49.1686C31.5991 49.3817 31.8587 48.2311 31.8795 48.0233C31.9314 47.5866 31.9938 47.1498 32.0717 46.7183C32.1028 46.5319 32.1236 46.3401 32.1651 46.159C32.1963 46.0152 32.2846 45.9193 32.4456 45.898C32.6845 45.8607 32.9857 45.882 33.2142 45.9086C33.3544 45.9246 33.5881 45.9672 33.5518 46.143C33.5051 46.3667 33.1883 46.3135 33.0324 46.3135C32.8143 46.3081 32.7208 46.2922 32.6637 46.5106C32.591 46.7396 32.5547 46.99 32.5339 47.2297Z" fill="#E8140F"/>
<path d="M29.9425 47.8102C29.8906 47.9754 29.8802 48.1778 29.8491 48.3536C29.8179 48.5294 29.7867 48.6998 29.7556 48.8756C29.7296 49.0407 29.5894 49.2698 29.3816 49.1632C29.096 49.0247 29.3245 48.4015 29.3661 48.1512C29.4388 47.7144 29.5323 47.2882 29.6465 46.8621C29.714 46.6064 29.8906 46.2975 30.0568 46.5798C30.1607 46.7556 30.2489 46.9473 30.3217 47.1391C30.3944 47.3362 30.4463 47.5546 30.5138 47.7517C30.5138 47.7463 30.5709 47.448 30.5709 47.432C30.6125 47.1923 30.6229 47.1551 30.654 46.9207C30.6852 46.6863 30.7267 46.4573 30.7735 46.2282C30.7995 46.095 30.8358 45.8926 30.9916 45.8713C31.0903 45.8607 31.1786 45.9406 31.2097 46.0364C31.2409 46.1323 31.2253 46.2389 31.2149 46.3347C31.1214 47.0379 31.0228 47.7463 30.9033 48.4441C30.8825 48.5507 30.867 48.6732 30.7891 48.7477C30.5086 49.0354 30.088 48.1245 29.9997 47.9381C29.9789 47.9008 29.9581 47.8529 29.9425 47.8102Z" fill="#E8140F"/>
<path d="M35.5615 47.1818C35.4888 47.5813 35.4161 47.9808 35.2655 48.3483C35.1513 48.6253 34.9228 49.0514 34.606 49.142C33.7698 49.3764 33.7231 48.2098 33.7802 47.6825C33.8218 47.3096 33.9048 46.9101 34.0347 46.5425C34.1801 46.1324 34.3567 45.946 34.7721 45.882C35.0578 45.8341 35.3486 45.9353 35.5044 46.159C35.6446 46.3614 35.6239 46.6438 35.6031 46.8835C35.5927 46.9793 35.5823 47.0805 35.5615 47.1818ZM34.4242 48.5401C34.6215 48.6413 34.8864 47.9222 34.9643 47.4108C35.0007 47.1658 35.1824 46.436 34.876 46.3614C34.3671 46.2283 34.1645 48.5134 34.4242 48.5401Z" fill="#E8140F"/>
<path d="M28.3118 48.9661C28.2703 49.1046 28.1976 49.2165 28.0158 49.1792C27.8133 49.1366 27.8133 48.9075 27.8444 48.7371C27.9431 48.1352 28.047 47.5386 28.156 46.9366C28.182 46.7928 28.2184 46.5904 28.3222 46.4839C28.4521 46.3454 28.6962 46.4413 28.7221 46.6224C28.7429 46.7822 28.665 46.9899 28.639 47.1497C28.6027 47.3628 28.5663 47.5758 28.5248 47.7836C28.4728 48.0872 28.4157 48.3855 28.3638 48.6891C28.3482 48.7744 28.3378 48.8756 28.3118 48.9661Z" fill="#E8140F"/>
<path d="M28.7375 46.1909C28.6389 46.2335 28.509 46.2175 28.4311 46.1483C28.2338 45.9619 28.3896 45.621 28.6596 45.6849C28.7999 45.7168 28.9089 45.866 28.8881 46.0151C28.8778 46.1004 28.8154 46.159 28.7375 46.1909Z" fill="#E8140F"/>
<path d="M26.9251 49.1472C26.8004 49.1952 26.6446 49.1792 26.5511 49.094C26.3122 48.8649 26.4992 48.4494 26.8316 48.5293C27.003 48.5666 27.138 48.7531 27.1068 48.9342C27.0912 49.0407 27.0185 49.11 26.9251 49.1472Z" fill="#E8140F"/>
<path d="M29.016 74.7228H30.954L27.4657 65.3296H25.3986L21.8845 74.7228H23.7708L24.533 72.5766H28.2538L29.016 74.7228ZM26.3934 67.3566L27.6595 70.9072H25.1273L26.3934 67.3566Z" fill="#3A3A3A"/>
<path d="M23.1929 107.062V116.456H26.7328C28.4511 116.456 29.5621 115.356 29.5621 113.833C29.5621 112.667 28.8387 111.832 27.9472 111.607C28.7095 111.342 29.2779 110.56 29.2779 109.593C29.2779 108.136 28.2702 107.062 26.4873 107.062H23.1929ZM24.9499 110.944V108.599H26.2031C27.0687 108.599 27.5209 109.05 27.5209 109.765C27.5209 110.481 27.0299 110.944 26.216 110.944H24.9499ZM24.9499 114.932V112.455H26.4227C27.3142 112.455 27.7793 112.971 27.7793 113.713C27.7793 114.468 27.2625 114.932 26.3969 114.932H24.9499Z" fill="#3A3A3A"/>
<rect x="65.8518" y="63.3167" width="22.638" height="3.62311" rx="0.805136" fill="#939393"/>
<rect x="65.8518" y="68.2815" width="14.9175" height="3.62311" rx="0.805136" fill="#939393"/>
<rect x="46.3545" y="63.3169" width="15.7026" height="16.1027" rx="1.61027" fill="#BCB1D4"/>
<rect x="65.8518" y="82.5056" width="22.638" height="3.62311" rx="0.805136" fill="#939393"/>
<rect x="65.8518" y="87.4707" width="14.9175" height="3.62311" rx="0.805136" fill="#939393"/>
<rect x="46.3545" y="82.5056" width="15.7026" height="16.1027" rx="1.61027" fill="#E0E0E0"/>
<rect x="65.8518" y="107.867" width="22.638" height="3.62311" rx="0.805136" fill="#939393"/>
<rect x="65.8518" y="112.833" width="14.9175" height="3.62311" rx="0.805136" fill="#939393"/>
<rect x="46.3545" y="107.868" width="15.7026" height="16.1027" rx="1.61027" fill="#A396C4"/>
<rect x="65.8518" y="128.13" width="22.638" height="3.6231" rx="0.805136" fill="#939393"/>
<rect x="65.8518" y="133.095" width="14.9175" height="3.62311" rx="0.805136" fill="#939393"/>
<rect x="46.3545" y="128.13" width="15.7026" height="16.1027" rx="1.61027" fill="#F9F9F9"/>
<rect x="114.661" y="63.3167" width="22.638" height="3.62311" rx="0.805136" fill="#939393"/>
<rect x="114.661" y="68.2815" width="14.9175" height="3.62311" rx="0.805136" fill="#939393"/>
<rect x="95.1636" y="63.3169" width="15.7026" height="16.1027" rx="1.61027" fill="#E0E0E0"/>
<rect x="114.661" y="82.5056" width="22.638" height="3.62311" rx="0.805136" fill="#939393"/>
<rect x="114.661" y="87.4707" width="14.9175" height="3.62311" rx="0.805136" fill="#939393"/>
<rect x="95.1636" y="82.5056" width="15.7026" height="16.1027" rx="1.61027" fill="#D6CDE4"/>
<rect x="114.661" y="107.867" width="22.638" height="3.62311" rx="0.805136" fill="#939393"/>
<rect x="114.661" y="112.833" width="14.9175" height="3.62311" rx="0.805136" fill="#939393"/>
<rect x="95.1636" y="107.868" width="15.7026" height="16.1027" rx="1.61027" fill="#F9F9F9"/>
<rect x="114.661" y="128.13" width="22.638" height="3.6231" rx="0.805136" fill="#939393"/>
<rect x="114.661" y="133.095" width="14.9175" height="3.62311" rx="0.805136" fill="#939393"/>
<rect x="95.1636" y="128.13" width="15.7026" height="16.1027" rx="1.61027" fill="#BCB1D4"/>
<rect x="163.47" y="63.3167" width="22.6379" height="3.62311" rx="0.805136" fill="#939393"/>
<rect x="163.47" y="68.2815" width="14.9175" height="3.62311" rx="0.805136" fill="#939393"/>
<rect x="143.972" y="63.3169" width="15.7026" height="16.1027" rx="1.61027" fill="#E0E0E0"/>
<rect x="163.47" y="82.5056" width="22.6379" height="3.62311" rx="0.805136" fill="#939393"/>
<rect x="163.47" y="87.4707" width="14.9175" height="3.62311" rx="0.805136" fill="#939393"/>
<rect x="143.972" y="82.5056" width="15.7026" height="16.1027" rx="1.61027" fill="#E0E0E0"/>
<rect x="163.47" y="107.867" width="22.6379" height="3.62311" rx="0.805136" fill="#939393"/>
<rect x="163.47" y="112.833" width="14.9175" height="3.62311" rx="0.805136" fill="#939393"/>
<rect x="143.972" y="107.868" width="15.7026" height="16.1027" rx="1.61027" fill="#F9F9F9"/>
<rect x="163.47" y="128.13" width="22.6379" height="3.6231" rx="0.805136" fill="#939393"/>
<rect x="163.47" y="133.095" width="14.9175" height="3.62311" rx="0.805136" fill="#939393"/>
<rect x="143.972" y="128.13" width="15.7026" height="16.1027" rx="1.61027" fill="#F9F9F9"/>
<g filter="url(#filter0_d)">
<path d="M156.978 129.582H245.683C247.601 129.582 249.159 128.057 249.159 126.18V10.4018C249.159 8.52494 247.601 7 245.683 7H156.978C155.06 7 153.502 8.52494 153.502 10.4018V126.18C153.502 128.057 155.06 129.582 156.978 129.582Z" fill="#FBFBFB"/>
<path d="M235.898 34.0365C224.36 33.5637 212.823 33.5637 201.285 33.4456C189.748 33.4456 178.21 33.5637 166.673 34.0365C178.21 34.5093 189.748 34.5093 201.285 34.6275C212.823 34.6275 224.36 34.5093 235.898 34.0365Z" fill="#BCB1D4"/>
<path d="M235.898 40.4186C224.36 39.9458 212.823 39.9458 201.285 39.8276C189.748 39.8276 178.21 39.9458 166.673 40.4186C178.21 40.8914 189.748 40.8914 201.285 41.0095C212.823 40.8914 224.36 40.7732 235.898 40.4186Z" fill="#BCB1D4"/>
<path d="M235.898 46.683C224.36 46.2102 212.823 46.2102 201.285 46.092C189.748 46.092 178.21 46.2102 166.673 46.683C178.21 47.1558 189.748 47.1558 201.285 47.2739C212.823 47.2739 224.36 47.1558 235.898 46.683Z" fill="#BCB1D4"/>
<path d="M235.898 53.0651C224.36 52.5923 212.823 52.5923 201.285 52.4741C189.748 52.4741 178.21 52.5923 166.673 53.0651C178.21 53.5378 189.748 53.5378 201.285 53.656C212.823 53.5378 224.36 53.4197 235.898 53.0651Z" fill="#BCB1D4"/>
<path d="M235.898 59.3292C224.36 58.8565 212.823 58.8565 201.285 58.7383C189.748 58.7383 178.21 58.8565 166.673 59.3292C178.21 59.802 189.748 59.802 201.285 59.9202C212.823 59.9202 224.36 59.802 235.898 59.3292Z" fill="#BCB1D4"/>
<path d="M235.898 65.7116C224.36 65.2388 212.823 65.2388 201.285 65.1206C189.748 65.1206 178.21 65.2388 166.673 65.7116C178.21 66.1843 189.748 66.1843 201.285 66.3025C212.823 66.1843 224.36 66.0661 235.898 65.7116Z" fill="#BCB1D4"/>
<path d="M171.413 77.1195C170.814 76.3004 169.737 76.3004 169.138 77.1195C166.983 80.6299 162.313 89.4061 162.313 100.523C162.313 106.256 165.426 111.405 170.216 111.405C175.005 111.405 178.119 106.256 178.119 100.523C178.119 89.4061 173.568 80.6299 171.413 77.1195Z" fill="#564394"/>
<path d="M170.216 81.9172V119.83" stroke="#D6CDE4" stroke-width="0.0349676" stroke-miterlimit="10"/>
<path d="M171.892 87.7681L170.216 91.0445" stroke="#FBFBFB" stroke-width="0.0349676" stroke-miterlimit="10"/>
<path d="M168.3 91.0442L170.216 94.7887" stroke="#FBFBFB" stroke-width="0.0349676" stroke-miterlimit="10"/>
<path d="M175.127 98.1821L170.218 104.15" stroke="#FBFBFB" stroke-width="0.0349676" stroke-miterlimit="10"/>
<path d="M221.554 68.4332C220.955 67.6141 219.877 67.6141 219.279 68.4332C217.123 71.9436 212.453 80.7198 212.453 91.8362C212.453 97.57 215.567 102.719 220.356 102.719C225.146 102.719 228.259 97.57 228.259 91.8362C228.259 80.7198 223.709 71.9436 221.554 68.4332Z" fill="#D6CDE4"/>
<path d="M220.211 73.2307V111.144" stroke="#897AB4" stroke-width="0.0349676" stroke-miterlimit="10"/>
<path d="M222.033 79.0818L220.357 82.3582" stroke="#897AB4" stroke-width="0.0349676" stroke-miterlimit="10"/>
<path d="M218.441 82.3582L220.356 86.1026" stroke="#897AB4" stroke-width="0.0349676" stroke-miterlimit="10"/>
<path d="M225.266 89.4958L220.356 95.4636" stroke="#897AB4" stroke-width="0.0349676" stroke-miterlimit="10"/>
<path d="M201.331 129.582V108.098L177.417 85.3513L159.796 101.78V129.582H201.331Z" fill="#A396C4"/>
<path d="M177.416 85.3513H217.693L241.608 108.098H201.331L177.416 85.3513Z" fill="#BCB1D4"/>
<path d="M201.331 108.098V129.582H241.608V108.098H201.331Z" fill="#564394"/>
<path d="M172.382 110.626H182.451V129.582H172.382V110.626Z" fill="#FBFBFB"/>
<path d="M236.162 87.036C235.563 86.2201 234.486 86.2201 233.887 87.036C231.732 90.5329 227.062 99.2752 227.062 110.349C227.062 116.06 230.175 121.189 234.965 121.189C239.754 121.189 242.868 116.06 242.868 110.349C242.987 99.2752 238.317 90.5329 236.162 87.036Z" fill="#A396C4"/>
<path d="M235.084 91.8152V129.582" stroke="#FBFBFB" stroke-width="0.0349676" stroke-miterlimit="10"/>
<path d="M238.197 106.735V108.017" stroke="#FBFBFB" stroke-width="0.0349676" stroke-miterlimit="10"/>
<path d="M229.696 113.962V115.128" stroke="#FBFBFB" stroke-width="0.0349676" stroke-miterlimit="10"/>
<path d="M229.696 106.502V107.784" stroke="#FBFBFB" stroke-width="0.0349676" stroke-miterlimit="10"/>
<path d="M237.359 95.4287V96.7109" stroke="#FBFBFB" stroke-width="0.0349676" stroke-miterlimit="10"/>
<path d="M237.359 114.545V115.827" stroke="#FBFBFB" stroke-width="0.0349676" stroke-miterlimit="10"/>
<path d="M239.156 111.281V112.563" stroke="#FBFBFB" stroke-width="0.0349676" stroke-miterlimit="10"/>
<path d="M238.557 100.324V101.606" stroke="#FBFBFB" stroke-width="0.0349676" stroke-miterlimit="10"/>
<path d="M233.887 109.183V110.349" stroke="#FBFBFB" stroke-width="0.0349676" stroke-miterlimit="10"/>
<path d="M233.168 97.9932V99.2754" stroke="#FBFBFB" stroke-width="0.0349676" stroke-miterlimit="10"/>
<path d="M232.331 103.122V104.404" stroke="#FBFBFB" stroke-width="0.0349676" stroke-miterlimit="10"/>
<path d="M233.168 91.4653V92.7475" stroke="#FBFBFB" stroke-width="0.0349676" stroke-miterlimit="10"/>
<path d="M231.732 111.864V113.146" stroke="#FBFBFB" stroke-width="0.0349676" stroke-miterlimit="10"/>
<path d="M232.81 116.76V118.042" stroke="#FBFBFB" stroke-width="0.0349676" stroke-miterlimit="10"/>
<path d="M236.641 97.6436L235.084 100.907" stroke="#FBFBFB" stroke-width="0.0349676" stroke-miterlimit="10"/>
<path d="M233.169 100.907L235.084 104.637" stroke="#FBFBFB" stroke-width="0.0349676" stroke-miterlimit="10"/>
<path d="M239.874 108.018L235.084 113.962" stroke="#FBFBFB" stroke-width="0.0349676" stroke-miterlimit="10"/>
<path d="M216.093 21.351C215.977 21.7145 215.977 21.9569 215.861 21.9569C215.745 22.0781 215.63 22.0781 215.514 22.0781C215.514 22.0781 215.398 22.0781 215.282 22.0781C215.166 22.0781 215.051 22.0781 214.935 22.0781C214.935 22.0781 214.819 22.0781 214.587 22.0781C214.356 22.0781 214.24 22.0781 214.24 22.0781C214.24 22.4416 214.124 22.684 214.124 23.0475C214.008 23.6534 213.893 24.1381 213.777 24.5017C213.545 24.9864 213.314 25.35 213.082 25.35C212.619 25.35 212.503 24.8652 212.503 23.7746C212.503 23.5322 212.503 23.1687 212.503 22.9263C212.503 22.684 212.503 22.4416 212.503 22.4416C212.503 22.4416 212.503 22.4416 212.503 22.3204C212.503 22.3204 212.503 22.1992 212.387 22.1992C212.272 22.1992 211.924 22.1992 211.345 22.3204C210.65 22.4416 210.071 22.5628 209.608 22.684C209.608 22.684 209.492 22.8051 209.261 23.1687C209.029 23.5322 208.913 23.6534 208.798 23.7746C208.566 24.1381 208.334 24.5017 208.103 24.7441C207.871 25.1076 207.524 25.2288 207.177 25.2288C206.713 25.2288 206.366 24.9864 206.366 24.5017C206.366 24.1381 207.292 22.9263 209.261 21.1086C210.419 20.018 211.577 18.9273 212.735 17.8367C212.851 17.7155 213.082 17.5943 213.314 17.5943C213.545 17.5943 213.777 17.4731 213.893 17.4731C214.24 17.4731 214.356 17.5943 214.472 17.8367C214.472 17.9579 214.472 18.2002 214.472 18.5638L214.24 20.9874H215.514C215.861 21.2298 215.977 21.2298 216.093 21.351ZM212.503 21.1086C212.503 20.8662 212.503 20.6239 212.387 20.3815C212.387 20.018 212.272 19.8968 212.156 19.7756C211.924 19.8968 211.693 20.2603 211.345 20.6239C211.114 20.9874 210.882 21.2298 210.65 21.4721L212.503 21.1086Z" fill="#564394"/>
<path d="M222.693 23.5321C222.693 24.138 222.346 24.6227 221.651 24.9863C221.072 25.3498 220.377 25.5922 219.566 25.7134C218.872 25.8345 218.408 25.9557 218.177 25.9557C218.061 25.9557 217.83 25.9557 217.482 25.8345C217.019 25.7134 216.787 25.5922 216.44 25.471V25.1074C216.44 24.7439 216.556 24.3804 216.903 24.138L219.451 24.3804C220.145 24.3804 220.724 24.138 221.303 23.7744V23.5321C220.956 23.0474 220.261 22.6838 219.219 22.5626C218.408 22.4414 217.598 22.3203 216.787 22.1991C215.977 21.9567 215.629 21.472 215.629 20.7449C215.629 20.2602 215.977 19.7754 216.556 19.1695C217.135 18.6848 217.714 18.3213 218.524 17.8365C219.219 17.473 219.798 17.3518 220.145 17.3518C220.609 17.3518 220.84 17.3518 220.956 17.3518C221.188 17.473 221.303 17.5942 221.303 17.8365C221.303 18.2001 220.956 18.5636 220.377 18.6848C219.798 18.9272 219.219 19.0484 218.64 19.2907C217.945 19.5331 217.598 20.0178 217.598 20.5025C218.293 20.6237 218.872 20.7449 219.566 20.7449C220.493 20.8661 221.303 21.1084 221.767 21.472C222.346 22.0779 222.693 22.6838 222.693 23.5321Z" fill="#564394"/>
<path d="M229.294 23.5321C229.294 24.138 228.946 24.6227 228.252 24.9863C227.673 25.3498 226.978 25.5922 226.167 25.7134C225.473 25.8345 225.009 25.9557 224.778 25.9557C224.662 25.9557 224.43 25.9557 224.083 25.8345C223.62 25.7134 223.388 25.5922 223.041 25.471V25.1074C223.041 24.7439 223.157 24.3804 223.504 24.138L226.051 24.3804C226.746 24.3804 227.325 24.138 227.904 23.7744V23.5321C227.557 23.0474 226.862 22.6838 225.82 22.5626C225.009 22.4414 224.199 22.3203 223.388 22.1991C222.578 21.9567 222.23 21.472 222.23 20.7449C222.23 20.2602 222.578 19.7754 223.157 19.1695C223.736 18.6848 224.315 18.3213 225.125 17.8365C225.82 17.473 226.399 17.3518 226.746 17.3518C227.209 17.3518 227.441 17.3518 227.557 17.3518C227.788 17.473 227.904 17.5942 227.904 17.8365C227.904 18.2001 227.557 18.5636 226.978 18.6848C226.399 18.9272 225.82 19.0484 225.241 19.2907C224.546 19.5331 224.199 20.0178 224.199 20.5025C224.894 20.6237 225.473 20.7449 226.167 20.7449C227.094 20.8661 227.904 21.1084 228.367 21.472C228.946 22.0779 229.294 22.6838 229.294 23.5321Z" fill="#564394"/>
<path d="M235.314 20.9874C235.314 22.0781 234.967 23.0475 234.388 23.8958C233.693 24.8653 232.767 25.4712 231.725 25.4712C230.914 25.4712 230.219 25.2288 229.756 24.7441C229.293 24.2594 229.061 23.5323 229.061 22.8052C229.061 22.4416 229.177 21.8357 229.409 20.9874C229.64 19.8968 229.988 19.0485 230.335 18.4426C230.798 17.5943 231.377 17.1096 231.84 17.1096C232.883 17.1096 233.693 17.4732 234.272 18.2003C234.967 18.9273 235.314 19.8968 235.314 20.9874ZM233.693 21.351C233.693 20.8663 233.577 20.1392 233.346 19.4121C232.998 18.4426 232.651 18.0791 232.188 18.0791C231.84 18.0791 231.493 18.4426 231.146 19.1697C230.914 19.6544 230.682 20.3815 230.567 21.2298C230.451 21.9569 230.335 22.4416 230.335 22.684C230.335 23.0475 230.335 23.2899 230.451 23.6534C230.682 24.2594 230.914 24.5017 231.377 24.5017C232.072 24.5017 232.651 24.2594 232.998 23.6534C233.462 23.0475 233.693 22.3204 233.693 21.351Z" fill="#564394"/>
<path d="M152.87 114.829C160.639 114.829 166.935 121.15 166.935 128.95C166.935 136.751 160.639 143.071 152.87 143.071C145.1 143.071 138.81 136.745 138.81 128.95C138.81 121.149 145.106 114.829 152.87 114.829Z" fill="#F9F9F9" stroke="#3D2884" stroke-width="0.823851"/>
<path d="M151.21 127.342V122.284H154.564V127.342H159.512V130.558H154.564V135.617H151.21V130.558H146.233V127.342H151.21Z" fill="#3D2884"/>
</g>
<defs>
<filter id="filter0_d" x="119.446" y="0.682551" width="148.666" height="174.388" filterUnits="userSpaceOnUse" color-interpolation-filters="sRGB">
<feFlood flood-opacity="0" result="BackgroundImageFix"/>
<feColorMatrix in="SourceAlpha" type="matrix" values="0 0 0 0 0 0 0 0 0 0 0 0 0 0 0 0 0 0 127 0"/>
<feOffset dy="12.6349"/>
<feGaussianBlur stdDeviation="9.47617"/>
<feColorMatrix type="matrix" values="0 0 0 0 0 0 0 0 0 0 0 0 0 0 0 0 0 0 0.25 0"/>
<feBlend mode="normal" in2="BackgroundImageFix" result="effect1_dropShadow"/>
<feBlend mode="normal" in="SourceGraphic" in2="effect1_dropShadow" result="shape"/>
</filter>
<linearGradient id="paint0_linear" x1="95.3935" y1="0" x2="95.3935" y2="100.642" gradientUnits="userSpaceOnUse">
<stop stop-color="#D9D6D6"/>
<stop offset="1" stop-color="white"/>
</linearGradient>
</defs>
</svg>
