<svg width="360" height="280" viewBox="0 0 360 280" fill="none" xmlns="http://www.w3.org/2000/svg">
<g clip-path="url(#clip0)">
<rect width="360" height="280" fill="#FEEBDE"/>
<path d="M405.438 101.799H-0.5625V107.399H405.438V101.799Z" fill="#F9C19B"/>
<path d="M366.406 109.219H335.018V80.099L350.502 69.627L366.406 80.099V109.219Z" fill="#F9D1B7"/>
<path d="M295.014 39.9682C295.014 39.9682 286.67 38.6508 282.655 37.7725C282.718 37.7725 282.781 37.7098 282.843 37.7098C282.781 36.706 281.965 36.1414 280.773 35.765C280.46 35.0122 280.02 34.2594 279.519 34.0085C278.452 33.3811 276.695 33.883 276.131 34.5731C276.131 34.5731 276.005 31.4364 274.751 30.4954C273.496 29.5544 272.492 29.3034 271.426 29.4289C270.422 29.5544 268.603 30.4326 268.603 30.4326C268.603 30.4326 268.101 28.2369 266.407 27.1077C264.713 25.9158 263.584 26.6059 263.019 26.9823C262.455 27.3587 261.326 28.2369 261.326 28.2369C261.326 28.2369 257.373 22.5909 253.484 21.2107C249.594 19.8306 241.439 20.207 238.49 22.2145C235.542 24.1592 233.974 25.4766 233.974 25.4766C233.974 25.4766 233.472 23.971 231.841 23.4692C229.708 22.7791 227.951 25.7903 227.951 25.7903C227.951 25.7903 223.497 20.8971 220.988 20.3325C218.478 19.7678 215.342 19.1405 211.954 21.2107C208.692 23.1555 208.817 28.6134 208.88 29.1152C208.629 29.0525 207.939 28.927 205.806 28.7388C201.791 28.2997 199.721 35.9532 199.721 35.9532C197.086 36.8315 185.982 38.4626 185.982 38.4626C184.665 38.7763 172.996 40.0309 172.996 40.0309H187.739C191.44 40.8465 195.016 42.0384 199.093 41.8502C199.093 41.5366 199.156 41.2856 199.219 40.972C201.226 44.7987 206.81 41.4111 209.821 41.5993C212.456 41.7248 214.714 42.9167 217.6 42.854C219.858 42.854 221.929 42.2266 224.062 42.2266C228.077 42.1639 232.28 43.4186 236.42 42.854C238.741 42.5403 240.247 41.4111 242.192 41.4111C246.395 41.5366 250.598 42.5403 254.99 42.2266C257.248 42.0384 259.067 41.0347 260.887 40.0309H295.014V39.9682Z" fill="#FCE4D9"/>
<path d="M385.727 32.9416C385.727 32.9416 378.199 32.1261 373.243 31.4987C371.926 30.8086 370.044 30.495 368.287 30.244C367.722 29.4912 367.597 28.2993 366.154 27.7974C364.147 27.0446 362.766 27.2955 362.076 27.4837C361.386 27.6719 361.01 22.0259 356.493 21.3985C351.913 20.7712 351.976 21.2731 349.09 21.3358C349.09 21.3358 347.585 17.0699 344.511 16.7562C341.437 16.4425 339.555 18.5128 339.178 18.6382C339.178 18.6382 338.739 16.4425 337.422 16.3171C336.105 16.1916 334.16 17.2581 334.16 17.2581C332.529 16.0034 332.842 15.8152 330.647 15.3761C328.451 14.9369 327.259 17.3835 327.259 17.3835C327.259 17.3835 326.757 16.9444 326.067 16.1289C325.377 15.3133 323.683 14.6232 321.864 14.435C320.045 14.2468 319.229 16.1916 319.166 16.0034C319.104 15.8152 318.476 14.9369 317.535 13.5568C316.594 12.1766 313.207 11.4238 311.136 11.8629C309.003 12.3021 308.439 14.435 308.439 14.435C308.439 14.435 306.431 12.804 302.73 10.2946C298.966 7.78523 288.615 7.28336 283.721 9.03992C278.828 10.7965 273.81 17.9482 273.81 17.9482C273.81 17.9482 272.429 16.8817 271.677 16.3798C270.924 15.8779 269.481 14.9997 267.348 16.5053C265.215 18.0109 264.588 20.7712 264.588 20.7712C264.588 20.7712 262.329 19.5792 261.012 19.4538C259.694 19.3283 258.44 19.642 256.809 20.8339C255.178 22.0259 255.052 25.9781 255.052 25.9781C254.299 25.1626 252.104 24.4725 250.723 25.288C249.343 26.1036 248.34 29.6794 248.34 29.6794C244.387 30.8086 231.15 32.8789 231.15 32.8789H239.243C241.815 33.318 244.45 33.7571 247.022 34.1335C249.845 34.5727 252.229 33.9453 254.927 33.9453C256.997 33.9453 258.628 34.6354 261.012 34.8864C265.78 35.3882 270.673 36.0783 275.441 35.8274C278.075 35.7019 279.769 34.5727 282.09 34.0081C284.223 33.5062 285.102 34.0081 287.674 34.5727C291.061 35.2628 294.512 35.2 298.025 35.2C299.468 35.2 300.973 35.3255 302.416 35.1373C303.42 35.0118 303.608 33.9453 304.863 34.0081C307.121 34.0708 308.878 37.4585 311.513 34.8864C313.269 36.3292 314.524 34.8236 316.03 34.6982C320.107 34.3217 324.561 35.8274 328.765 35.8901C332.34 35.9528 335.665 35.8274 339.116 35.0118C341.186 34.5727 343.633 33.1925 345.703 33.0671C348.526 32.8789 352.478 34.5727 355.615 34.6354C358.375 34.6982 361.01 34.5727 363.77 34.0708C366.091 33.6317 368.538 33.4435 370.859 33.0043H385.727V32.9416Z" fill="#F9D1B7"/>
<path d="M404.57 106.617H-0.673828V126.189H404.57V106.617Z" fill="#FCE4D9"/>
<path d="M4.22562 114.428H-1.23438V115.8H4.22562V114.428Z" fill="#F9D1B7"/>
<path d="M21.501 114.428H16.041V115.8H21.501V114.428Z" fill="#F9D1B7"/>
<path d="M38.8057 114.428H33.3457V115.8H38.8057V114.428Z" fill="#F9D1B7"/>
<path d="M56.1104 114.4H50.6504V115.772H56.1104V114.4Z" fill="#F9D1B7"/>
<path d="M73.4131 114.4H67.9531V115.772H73.4131V114.4Z" fill="#F9D1B7"/>
<path d="M90.7178 114.4H85.2578V115.772H90.7178V114.4Z" fill="#F9D1B7"/>
<path d="M108.021 114.4H102.561V115.772H108.021V114.4Z" fill="#F9D1B7"/>
<path d="M125.325 114.4H119.865V115.772H125.325V114.4Z" fill="#F9D1B7"/>
<path d="M142.63 114.4H137.17V115.772H142.63V114.4Z" fill="#F9D1B7"/>
<path d="M159.933 114.4H154.473V115.772H159.933V114.4Z" fill="#F9D1B7"/>
<path d="M177.237 114.371H171.777V115.743H177.237V114.371Z" fill="#F9D1B7"/>
<path d="M194.513 114.371H189.053V115.743H194.513V114.371Z" fill="#F9D1B7"/>
<path d="M211.817 114.371H206.357V115.743H211.817V114.371Z" fill="#F9D1B7"/>
<path d="M229.122 114.371H223.662V115.743H229.122V114.371Z" fill="#F9D1B7"/>
<path d="M246.425 114.371H240.965V115.743H246.425V114.371Z" fill="#F9D1B7"/>
<path d="M263.73 114.371H258.27V115.743H263.73V114.371Z" fill="#F9D1B7"/>
<path d="M281.034 114.371H275.574V115.743H281.034V114.371Z" fill="#F9D1B7"/>
<path d="M298.337 114.344H292.877V115.716H298.337V114.344Z" fill="#F9D1B7"/>
<path d="M315.642 114.344H310.182V115.716H315.642V114.344Z" fill="#F9D1B7"/>
<path d="M332.946 114.344H327.486V115.716H332.946V114.344Z" fill="#F9D1B7"/>
<path d="M350.585 114.371H345.125V115.743H350.585V114.371Z" fill="#F9D1B7"/>
<path d="M300.551 82.5361C300.159 80.3521 300.299 78.9241 302.035 77.3281C303.099 76.3481 304.555 76.4041 305.591 77.3841C305.675 75.1161 307.495 72.6241 309.959 72.8481C311.975 73.0441 312.843 75.3961 313.151 77.1321C314.803 76.4601 315.867 77.0481 316.147 78.7841C319.059 78.0561 321.691 80.7441 321.047 83.6841C320.739 85.0841 319.563 85.9521 318.163 86.0361C317.071 86.1201 316.959 85.8961 316.231 85.3081C316.567 86.7921 311.863 87.0161 311.135 85.6721C309.483 86.4841 307.831 87.6321 305.871 87.1281C305.199 86.9601 304.639 86.5681 304.135 86.1201C303.995 86.0081 302.763 84.7481 302.735 84.7761C301.951 85.1401 301.195 85.1681 300.523 84.5241C299.907 83.9361 299.851 83.0681 300.551 82.5361Z" fill="#F99F5D"/>
<path d="M313.821 83.7411L317.657 83.2091L314.045 83.4891L316.929 80.4091L313.121 84.1891L312.925 81.6691V84.4131L309.621 87.6891L309.453 78.7571L311.077 76.7691L309.453 78.5611L309.397 75.7891V84.6931L304.665 80.8011L305.981 82.0051L304.105 83.0691L306.065 82.0891L309.397 85.0571L309.369 103.033L309.901 103.089L309.621 88.2211L313.821 83.7411Z" fill="#CE2105"/>
<path d="M327.179 95.9207C326.787 91.9167 325.275 90.2367 325.275 90.2367C325.275 90.2367 325.387 86.3727 324.071 84.6927C324.071 84.6927 323.735 76.4887 320.123 74.2207C316.539 76.4887 316.175 84.6927 316.175 84.6927C314.831 86.3727 314.971 90.2367 314.971 90.2367C314.971 90.2367 313.459 91.9167 313.067 95.9207C312.675 99.9247 317.183 99.9807 320.123 99.9807C323.063 99.9807 327.571 99.9247 327.179 95.9207Z" fill="#EA6206"/>
<path d="M320.263 80.8848H319.955V104.741H320.263V80.8848Z" fill="#F9D1B7"/>
<path d="M320.996 82.2418L319.982 84.7617L320.268 84.8766L321.282 82.3567L320.996 82.2418Z" fill="#F9D1B7"/>
<path d="M318.225 84.9763L317.938 85.0879L319.967 90.3071L320.254 90.1955L318.225 84.9763Z" fill="#F9D1B7"/>
<path d="M323.996 91.1104L319.982 96.6738L320.232 96.854L324.246 91.2906L323.996 91.1104Z" fill="#F9D1B7"/>
<path d="M190.537 117.369H192.021V120.365L201.765 120.869H270.393L280.585 119.273L281.621 119.105C281.621 119.105 282.125 119.105 282.125 117.845C282.125 117.677 282.125 117.201 282.125 116.529C282.069 112.245 281.901 99.6447 281.901 99.6447C281.901 99.6447 281.901 98.8887 280.893 98.8887C279.885 98.8887 191.069 98.8887 191.069 98.8887L190.537 117.369Z" fill="#EA6206"/>
<path d="M203.36 115.382C204.648 114.99 206.384 115.046 206.384 115.046C206.384 115.046 208.092 114.99 209.408 115.382C209.408 115.382 211.06 116.194 211.2 120.87H206.384H201.568C201.708 116.194 203.36 115.382 203.36 115.382Z" fill="#890D04"/>
<path d="M206.386 123.865C208.705 123.865 210.586 121.984 210.586 119.665C210.586 117.345 208.705 115.465 206.386 115.465C204.066 115.465 202.186 117.345 202.186 119.665C202.186 121.984 204.066 123.865 206.386 123.865Z" fill="#490202"/>
<path d="M206.385 121.906C207.622 121.906 208.625 120.903 208.625 119.666C208.625 118.429 207.622 117.426 206.385 117.426C205.147 117.426 204.145 118.429 204.145 119.666C204.145 120.903 205.147 121.906 206.385 121.906Z" fill="#890D04"/>
<path d="M206.384 118.348C206.461 118.348 206.524 118.286 206.524 118.208C206.524 118.131 206.461 118.068 206.384 118.068C206.307 118.068 206.244 118.131 206.244 118.208C206.244 118.286 206.307 118.348 206.384 118.348Z" fill="#E6E7E8"/>
<path d="M206.384 121.26C206.461 121.26 206.524 121.198 206.524 121.12C206.524 121.043 206.461 120.98 206.384 120.98C206.307 120.98 206.244 121.043 206.244 121.12C206.244 121.198 206.307 121.26 206.384 121.26Z" fill="#E6E7E8"/>
<path d="M205.44 118.74C205.494 118.685 205.494 118.596 205.44 118.542C205.385 118.487 205.296 118.487 205.242 118.542C205.187 118.596 205.187 118.685 205.242 118.74C205.296 118.794 205.385 118.794 205.44 118.74Z" fill="#E6E7E8"/>
<path d="M207.508 120.82C207.563 120.765 207.563 120.676 207.508 120.622C207.453 120.567 207.365 120.567 207.31 120.622C207.255 120.676 207.255 120.765 207.31 120.82C207.365 120.874 207.453 120.874 207.508 120.82Z" fill="#E6E7E8"/>
<path d="M204.929 119.803C205.006 119.803 205.069 119.741 205.069 119.663C205.069 119.586 205.006 119.523 204.929 119.523C204.852 119.523 204.789 119.586 204.789 119.663C204.789 119.741 204.852 119.803 204.929 119.803Z" fill="#E6E7E8"/>
<path d="M207.841 119.803C207.918 119.803 207.981 119.741 207.981 119.663C207.981 119.586 207.918 119.523 207.841 119.523C207.764 119.523 207.701 119.586 207.701 119.663C207.701 119.741 207.764 119.803 207.841 119.803Z" fill="#E6E7E8"/>
<path d="M205.451 120.79C205.506 120.736 205.506 120.647 205.451 120.592C205.397 120.538 205.308 120.538 205.253 120.592C205.199 120.647 205.199 120.736 205.253 120.79C205.308 120.845 205.397 120.845 205.451 120.79Z" fill="#E6E7E8"/>
<path d="M207.484 118.74C207.539 118.685 207.539 118.596 207.484 118.542C207.43 118.487 207.341 118.487 207.286 118.542C207.232 118.596 207.232 118.685 207.286 118.74C207.341 118.794 207.43 118.794 207.484 118.74Z" fill="#E6E7E8"/>
<path d="M250.149 115.382C251.437 114.99 253.173 115.046 253.173 115.046C253.173 115.046 254.881 114.99 256.197 115.382C256.197 115.382 257.849 116.194 257.989 120.87H253.173H248.357C248.497 116.194 250.149 115.382 250.149 115.382Z" fill="#890D04"/>
<path d="M253.145 123.865C255.465 123.865 257.345 121.984 257.345 119.665C257.345 117.345 255.465 115.465 253.145 115.465C250.826 115.465 248.945 117.345 248.945 119.665C248.945 121.984 250.826 123.865 253.145 123.865Z" fill="#490202"/>
<path d="M253.144 121.906C254.381 121.906 255.384 120.903 255.384 119.666C255.384 118.429 254.381 117.426 253.144 117.426C251.907 117.426 250.904 118.429 250.904 119.666C250.904 120.903 251.907 121.906 253.144 121.906Z" fill="#808285"/>
<path d="M253.146 118.348C253.223 118.348 253.286 118.286 253.286 118.208C253.286 118.131 253.223 118.068 253.146 118.068C253.069 118.068 253.006 118.131 253.006 118.208C253.006 118.286 253.069 118.348 253.146 118.348Z" fill="#E6E7E8"/>
<path d="M253.146 121.26C253.223 121.26 253.286 121.198 253.286 121.12C253.286 121.043 253.223 120.98 253.146 120.98C253.069 120.98 253.006 121.043 253.006 121.12C253.006 121.198 253.069 121.26 253.146 121.26Z" fill="#E6E7E8"/>
<path d="M252.225 118.73C252.279 118.675 252.279 118.587 252.225 118.532C252.17 118.477 252.081 118.477 252.027 118.532C251.972 118.587 251.972 118.675 252.027 118.73C252.081 118.785 252.17 118.785 252.225 118.73Z" fill="#E6E7E8"/>
<path d="M254.287 120.796C254.342 120.742 254.342 120.653 254.287 120.598C254.233 120.544 254.144 120.544 254.089 120.598C254.035 120.653 254.035 120.742 254.089 120.796C254.144 120.851 254.233 120.851 254.287 120.796Z" fill="#E6E7E8"/>
<path d="M251.718 119.803C251.795 119.803 251.858 119.741 251.858 119.663C251.858 119.586 251.795 119.523 251.718 119.523C251.641 119.523 251.578 119.586 251.578 119.663C251.578 119.741 251.641 119.803 251.718 119.803Z" fill="#E6E7E8"/>
<path d="M254.603 119.803C254.68 119.803 254.743 119.741 254.743 119.663C254.743 119.586 254.68 119.523 254.603 119.523C254.526 119.523 254.463 119.586 254.463 119.663C254.463 119.741 254.526 119.803 254.603 119.803Z" fill="#E6E7E8"/>
<path d="M252.233 120.781C252.287 120.726 252.287 120.637 252.233 120.583C252.178 120.528 252.089 120.528 252.035 120.583C251.98 120.637 251.98 120.726 252.035 120.781C252.089 120.835 252.178 120.835 252.233 120.781Z" fill="#E6E7E8"/>
<path d="M254.275 118.745C254.33 118.691 254.33 118.602 254.275 118.547C254.221 118.493 254.132 118.493 254.078 118.547C254.023 118.602 254.023 118.691 254.078 118.745C254.132 118.8 254.221 118.8 254.275 118.745Z" fill="#E6E7E8"/>
<path d="M192.887 120.289L199.943 120.289L199.943 103.181L192.887 103.181L192.887 120.289Z" fill="#FF8F43"/>
<path d="M196.331 120.289L196.527 120.289L196.527 103.181L196.331 103.181L196.331 120.289Z" fill="#890D04"/>
<path d="M197.678 115.801H198.77C199.134 115.801 199.442 115.493 199.442 115.129V104.545C199.442 104.181 199.134 103.873 198.77 103.873H197.678C197.314 103.873 197.006 104.181 197.006 104.545V115.129C196.978 115.521 197.286 115.801 197.678 115.801Z" fill="#FCE4D9"/>
<path d="M194.094 115.801H195.186C195.55 115.801 195.858 115.493 195.858 115.129V104.545C195.858 104.181 195.55 103.873 195.186 103.873H194.094C193.73 103.873 193.422 104.181 193.422 104.545V115.129C193.422 115.521 193.73 115.801 194.094 115.801Z" fill="#FCE4D9"/>
<path d="M261.225 120.289L268.281 120.289L268.281 103.181L261.225 103.181L261.225 120.289Z" fill="#FF8F43"/>
<path d="M264.64 120.289L264.836 120.289L264.836 103.181L264.64 103.181L264.64 120.289Z" fill="#890D04"/>
<path d="M265.998 115.801H267.09C267.454 115.801 267.762 115.493 267.762 115.129V104.545C267.762 104.181 267.454 103.873 267.09 103.873H265.998C265.634 103.873 265.326 104.181 265.326 104.545V115.129C265.298 115.521 265.606 115.801 265.998 115.801Z" fill="#FCE4D9"/>
<path d="M262.414 115.801H263.506C263.87 115.801 264.178 115.493 264.178 115.129V104.545C264.178 104.181 263.87 103.873 263.506 103.873H262.414C262.05 103.873 261.742 104.181 261.742 104.545V115.129C261.742 115.521 262.05 115.801 262.414 115.801Z" fill="#FCE4D9"/>
<path d="M190.397 117.369H192.049V120.449H191.237C191.237 120.449 190.453 120.533 190.425 119.665C190.341 118.797 190.397 117.369 190.397 117.369Z" fill="#FF8F43"/>
<path d="M190.592 115.689H191.376V116.837H190.564L190.592 115.689Z" fill="#FFFAD7"/>
<path d="M190.957 102.613C190.957 102.613 191.853 102.529 191.853 103.649C191.853 104.769 191.853 111.041 191.853 111.041C191.853 111.041 191.881 111.825 190.705 111.825L190.957 102.613Z" fill="#FCE4D9"/>
<path d="M192.894 102.377L193.342 102.377L193.342 101.341L192.894 101.341L192.894 102.377Z" fill="#414042"/>
<path d="M193.141 101.605L189.949 102.529V104.965H190.089V102.669L193.141 102.053V101.605Z" fill="#890D04"/>
<path d="M190.649 102.949V106.197H190.453C190.453 106.197 190.061 105.721 190.033 104.741V104.181V104.013C190.033 104.013 190.033 103.313 190.453 102.949H190.649Z" fill="#890D04"/>
<path d="M282.07 113.141H281.258V115.885H282.098L282.07 113.141Z" fill="#FF8F43"/>
<path d="M280.586 116.557V119.301L281.622 119.133C281.622 119.133 282.126 119.133 282.126 117.873C282.126 117.705 282.126 117.229 282.126 116.557H280.586Z" fill="#FF8F43"/>
<path d="M270.533 109.11H278.345C279.045 109.11 279.605 108.55 279.605 107.85V102.194C279.605 101.494 279.045 100.934 278.345 100.934H270.533C269.833 100.934 269.273 101.494 269.273 102.194V107.85C269.273 108.522 269.833 109.11 270.533 109.11Z" fill="#FCE4D9"/>
<path d="M250.261 109.108H259.025C259.725 109.108 260.285 108.548 260.285 107.848V102.192C260.285 101.492 259.725 100.932 259.025 100.932H250.261C249.561 100.932 249.001 101.492 249.001 102.192V107.848C248.973 108.52 249.561 109.108 250.261 109.108Z" fill="#FCE4D9"/>
<path d="M238.277 109.108H247.041C247.741 109.108 248.301 108.548 248.301 107.848V102.192C248.301 101.492 247.741 100.932 247.041 100.932H238.277C237.577 100.932 237.017 101.492 237.017 102.192V107.848C236.989 108.52 237.577 109.108 238.277 109.108Z" fill="#FCE4D9"/>
<path d="M226.294 109.108H235.058C235.758 109.108 236.318 108.548 236.318 107.848V102.192C236.318 101.492 235.758 100.932 235.058 100.932H226.294C225.594 100.932 225.034 101.492 225.034 102.192V107.848C225.006 108.52 225.594 109.108 226.294 109.108Z" fill="#FCE4D9"/>
<path d="M214.31 109.108H223.074C223.774 109.108 224.334 108.548 224.334 107.848V102.192C224.334 101.492 223.774 100.932 223.074 100.932H214.31C213.61 100.932 213.05 101.492 213.05 102.192V107.848C213.022 108.52 213.61 109.108 214.31 109.108Z" fill="#FCE4D9"/>
<path d="M202.325 109.108H211.089C211.789 109.108 212.349 108.548 212.349 107.848V102.192C212.349 101.492 211.789 100.932 211.089 100.932H202.325C201.625 100.932 201.065 101.492 201.065 102.192V107.848C201.037 108.52 201.625 109.108 202.325 109.108Z" fill="#FCE4D9"/>
<path d="M248.973 98.3008H259.025C259.305 98.3008 259.557 98.5248 259.557 98.8328V98.9448H248.469V98.8328C248.441 98.5248 248.693 98.3008 248.973 98.3008Z" fill="#890D04"/>
<path d="M208.01 98.3008H218.062C218.342 98.3008 218.594 98.5248 218.594 98.8328V98.9448H207.506V98.8328C207.506 98.5248 207.73 98.3008 208.01 98.3008Z" fill="#890D04"/>
<path d="M211.425 116.389H247.825C247.965 116.389 248.049 116.277 248.049 116.165V116.081C248.049 115.941 247.937 115.857 247.825 115.857H211.425C211.285 115.857 211.201 115.969 211.201 116.081V116.165C211.201 116.277 211.313 116.389 211.425 116.389Z" fill="#890D04"/>
<path d="M269.497 116.389H279.409C279.549 116.389 279.633 116.277 279.633 116.165V116.081C279.633 115.941 279.521 115.857 279.409 115.857H269.497C269.357 115.857 269.273 115.969 269.273 116.081V116.165C269.273 116.277 269.385 116.389 269.497 116.389Z" fill="#890D04"/>
<path d="M104.83 111.544L101.302 111.096C100.77 111.04 100.294 110.816 99.9015 110.48C98.5295 109.332 94.3855 106.644 85.4255 106.644C85.4255 106.644 81.3655 106.42 77.6135 107.512C77.1935 107.624 76.8015 107.792 76.4095 108.016C75.0095 108.8 71.2855 110.816 70.5295 111.068C69.6055 111.348 65.2935 111.628 63.7815 111.908C62.2975 112.188 58.7695 113.392 58.7695 115.128V117.06C58.7695 117.2 59.0495 118.46 59.0495 118.46L59.5815 118.74C59.5815 119.356 60.0575 119.832 60.6735 119.832H64.1175C64.1175 117.368 66.1055 115.38 68.5695 115.38C71.0335 115.38 73.0215 117.368 73.0215 119.832H92.9015C92.9015 117.368 94.8895 115.38 97.3535 115.38C99.8175 115.38 101.806 117.368 101.806 119.832L106.23 119.188V113.112C106.202 112.3 105.614 111.628 104.83 111.544Z" fill="#F9AB75"/>
<path d="M68.5692 115.352C66.1052 115.352 64.1172 117.34 64.1172 119.804V121.176H73.0212V119.804C72.9932 117.368 71.0052 115.352 68.5692 115.352Z" fill="#E83D0F"/>
<path d="M97.325 115.352C94.861 115.352 92.873 117.34 92.873 119.804V121.176H101.777V119.804C101.777 117.368 99.761 115.352 97.325 115.352Z" fill="#E83D0F"/>
<path d="M63.2778 113.364C63.4178 113.252 63.3618 113 63.1658 112.944C62.6618 112.86 61.8218 112.916 61.0658 113.196C60.5618 113.392 59.5538 114.148 59.3298 115.044C59.3018 115.184 59.4418 115.296 59.5538 115.24C60.2818 114.988 62.2698 114.176 63.2778 113.364Z" fill="#EFF8FF"/>
<path d="M61.8765 118.152H60.8965C60.7565 118.152 60.6445 118.04 60.6445 117.9C60.6445 117.76 60.7565 117.648 60.8965 117.648H61.8765C62.0165 117.648 62.1285 117.76 62.1285 117.9C62.1565 118.04 62.0165 118.152 61.8765 118.152Z" fill="#EA6206"/>
<path d="M106.2 113.587C105.808 113.559 105.164 113.531 104.604 113.587C104.128 113.615 103.876 114.119 104.1 114.539L104.464 115.127C104.576 115.323 104.772 115.435 104.996 115.435H106.172V113.587H106.2Z" fill="#6D0503"/>
<path d="M68.5691 123.751C70.7495 123.751 72.5171 121.984 72.5171 119.803C72.5171 117.623 70.7495 115.855 68.5691 115.855C66.3887 115.855 64.6211 117.623 64.6211 119.803C64.6211 121.984 66.3887 123.751 68.5691 123.751Z" fill="#490202"/>
<path d="M68.5689 122.491C70.0534 122.491 71.2569 121.288 71.2569 119.803C71.2569 118.319 70.0534 117.115 68.5689 117.115C67.0843 117.115 65.8809 118.319 65.8809 119.803C65.8809 121.288 67.0843 122.491 68.5689 122.491Z" fill="#6D0503"/>
<path d="M97.325 123.751C99.5054 123.751 101.273 121.984 101.273 119.803C101.273 117.623 99.5054 115.855 97.325 115.855C95.1445 115.855 93.377 117.623 93.377 119.803C93.377 121.984 95.1445 123.751 97.325 123.751Z" fill="#490202"/>
<path d="M97.3247 122.491C98.8093 122.491 100.013 121.288 100.013 119.803C100.013 118.319 98.8093 117.115 97.3247 117.115C95.8402 117.115 94.6367 118.319 94.6367 119.803C94.6367 121.288 95.8402 122.491 97.3247 122.491Z" fill="#6D0503"/>
<path d="M77.4459 107.596C77.3619 107.596 77.2779 107.596 77.1939 107.624C76.9419 107.736 76.6619 107.848 76.4379 107.988C75.0939 108.716 71.6219 110.62 70.6699 110.984C72.9099 110.592 76.4379 108.464 77.5299 107.792C77.5859 107.736 77.5579 107.596 77.4459 107.596Z" fill="#F5DCC3"/>
<path d="M92.9008 119.301H72.9648C72.9928 119.469 72.9928 119.637 72.9928 119.805H92.8728C92.8728 119.637 92.8728 119.469 92.9008 119.301Z" fill="#EA6206"/>
<path d="M72.5448 111.656C72.4608 111.656 72.4048 111.544 72.4888 111.488C73.6088 110.648 78.6208 107.372 85.2288 107.484C85.2288 107.484 93.5728 106.868 97.4368 110.956C97.5208 111.04 97.4368 111.18 97.3248 111.18L72.5448 111.656Z" fill="#EA6206"/>
<path d="M83.2971 108.352V110.704C83.2971 110.872 83.1571 110.984 83.0171 110.984H74.6171C74.5051 110.984 74.449 110.844 74.561 110.788C75.625 110.144 79.1811 108.156 83.0451 108.1C83.1851 108.1 83.2971 108.212 83.2971 108.352Z" fill="#F5DCC3"/>
<path d="M84.752 108.436V110.62C84.752 110.816 84.9199 110.984 85.1159 110.984L92.6759 110.76C92.8719 110.76 93.0399 110.592 93.0399 110.396V109.164C93.0399 108.996 92.9279 108.856 92.7599 108.8C91.8359 108.548 88.6159 107.764 85.0599 108.044C84.8919 108.1 84.752 108.24 84.752 108.436Z" fill="#F5DCC3"/>
<path d="M93.5723 109.416V110.62C93.5723 110.704 93.6283 110.76 93.7123 110.76L95.6443 110.676C95.7843 110.676 95.8403 110.508 95.7283 110.424C95.3083 110.116 94.5243 109.556 93.7683 109.276C93.6843 109.22 93.5723 109.304 93.5723 109.416Z" fill="#F5DCC3"/>
<path d="M92.8729 119.805C92.8729 119.805 92.8449 120.673 93.1529 121.177H72.6289C72.6289 121.177 73.0209 120.421 72.9929 119.805H92.8729Z" fill="#E83D0F"/>
<path d="M64.117 119.804C64.117 119.636 64.117 119.468 64.145 119.3H62.745C62.577 119.3 62.409 119.188 62.325 119.02L62.213 118.796C62.101 118.572 61.905 118.432 61.653 118.432H59.441H59.245C58.629 118.432 58.125 118.936 58.125 119.552V120.42C58.125 120.924 58.517 121.316 59.021 121.288L64.425 121.176C64.397 121.204 64.145 120.7 64.117 119.804Z" fill="#E83D0F"/>
<path d="M106.761 118.18C106.761 117.9 106.537 117.676 106.257 117.676H103.317C103.037 117.676 102.785 117.816 102.645 118.068L101.721 119.692C101.665 119.776 101.637 119.888 101.637 119.972V120.84C101.637 121.12 101.861 121.344 102.141 121.344H105.697C105.921 121.344 106.117 121.204 106.173 120.98L106.761 118.74C106.761 118.712 106.761 118.684 106.761 118.628V118.18Z" fill="#E83D0F"/>
<path d="M80.2805 83.4258L84.1445 83.4258L84.1445 64.1338L80.2805 64.1338L80.2805 83.4258Z" fill="#490202"/>
<path d="M82.3355 85.2832L189.771 85.2832L189.771 80.6632L82.3355 80.6632L82.3355 85.2832Z" fill="#490202"/>
<path d="M185.894 82.8725H82.3496V62.1525C82.3496 61.5925 82.7976 61.1445 83.3576 61.1445H185.25C193.342 61.1445 200.902 65.2605 205.298 72.0925L206.558 74.0525C207.566 75.6205 207.818 77.6085 207.062 79.3165C206.166 81.3605 204.178 82.5925 202.05 82.5925H201.854L203.674 84.9445C204.15 85.5605 203.702 86.4285 202.946 86.4285H189.478C188.498 86.4285 187.714 85.6445 187.714 84.6645C187.686 83.6845 186.874 82.8725 185.894 82.8725Z" fill="#F9D1B7"/>
<path d="M204.43 70.8051H199.502C194.49 70.8051 190.402 66.7451 190.402 61.7051H190.458C196.002 62.9371 200.986 66.1571 204.43 70.8051Z" fill="#F97821"/>
<path d="M195.218 63.3012H82.3496V62.1252C82.3496 61.5652 82.7976 61.1172 83.3576 61.1172H185.25C188.75 61.1452 192.138 61.9012 195.218 63.3012Z" fill="#F99F5D"/>
<path d="M185.754 82.873H82.3496V76.041H178.95C182.702 76.069 185.754 79.121 185.754 82.873Z" fill="#F99F5D"/>
<path d="M175.674 77.5524H82.3496V76.0684H178.95C182.73 76.0684 185.782 79.1204 185.782 82.9004H182.366C181.666 79.8204 178.95 77.5524 175.674 77.5524Z" fill="#F97821"/>
<path d="M192.249 80.8582H189.785C188.917 80.8582 188.217 80.1582 188.217 79.2902V71.0582C188.217 70.1902 188.917 69.4902 189.785 69.4902H192.249C193.117 69.4902 193.817 70.1902 193.817 71.0582V79.2902C193.817 80.1582 193.117 80.8582 192.249 80.8582ZM189.785 69.8262C189.113 69.8262 188.581 70.3582 188.581 71.0302V79.2622C188.581 79.9342 189.113 80.4662 189.785 80.4662H192.249C192.921 80.4662 193.453 79.9342 193.453 79.2622V71.0582C193.453 70.3862 192.921 69.8542 192.249 69.8542H189.785V69.8262Z" fill="#F97821"/>
<path d="M90.6939 81.1092H86.2419C85.0939 81.1092 84.1699 80.1852 84.1699 79.0372V66.8572C84.1699 65.7092 85.0939 64.7852 86.2419 64.7852H90.6939C91.8419 64.7852 92.7659 65.7092 92.7659 66.8572V79.0652C92.7379 80.1852 91.8139 81.1092 90.6939 81.1092ZM86.2139 65.1492C85.2619 65.1492 84.5059 65.9332 84.5059 66.8572V79.0652C84.5059 80.0172 85.2899 80.7732 86.2139 80.7732H90.6659C91.6179 80.7732 92.3739 79.9892 92.3739 79.0652V66.8572C92.3739 65.9052 91.5899 65.1492 90.6659 65.1492H86.2139V65.1492Z" fill="#F97821"/>
<path d="M178.557 73.5759H181.945C182.729 73.5759 183.373 72.9319 183.373 72.1479V69.4319C183.373 68.6479 182.729 68.0039 181.945 68.0039H178.557C177.773 68.0039 177.129 68.6479 177.129 69.4319V72.1479C177.157 72.9599 177.773 73.5759 178.557 73.5759Z" fill="#F97821"/>
<path d="M170.408 73.5759H173.796C174.58 73.5759 175.224 72.9319 175.224 72.1479V69.4319C175.224 68.6479 174.58 68.0039 173.796 68.0039H170.408C169.624 68.0039 168.98 68.6479 168.98 69.4319V72.1479C168.98 72.9599 169.624 73.5759 170.408 73.5759Z" fill="#F97821"/>
<path d="M162.26 73.5759H165.648C166.432 73.5759 167.076 72.9319 167.076 72.1479V69.4319C167.076 68.6479 166.432 68.0039 165.648 68.0039H162.26C161.476 68.0039 160.832 68.6479 160.832 69.4319V72.1479C160.832 72.9599 161.476 73.5759 162.26 73.5759Z" fill="#F97821"/>
<path d="M154.114 73.5759H157.502C158.286 73.5759 158.93 72.9319 158.93 72.1479V69.4319C158.93 68.6479 158.286 68.0039 157.502 68.0039H154.114C153.33 68.0039 152.686 68.6479 152.686 69.4319V72.1479C152.686 72.9599 153.33 73.5759 154.114 73.5759Z" fill="#F97821"/>
<path d="M145.797 73.5759H149.185C149.969 73.5759 150.613 72.9319 150.613 72.1479V69.4319C150.613 68.6479 149.969 68.0039 149.185 68.0039H145.797C145.013 68.0039 144.369 68.6479 144.369 69.4319V72.1479C144.369 72.9599 145.013 73.5759 145.797 73.5759Z" fill="#F97821"/>
<path d="M137.649 73.5759H141.037C141.821 73.5759 142.465 72.9319 142.465 72.1479V69.4319C142.465 68.6479 141.821 68.0039 141.037 68.0039H137.649C136.865 68.0039 136.221 68.6479 136.221 69.4319V72.1479C136.221 72.9599 136.865 73.5759 137.649 73.5759Z" fill="#F97821"/>
<path d="M129.5 73.5759H132.888C133.672 73.5759 134.316 72.9319 134.316 72.1479V69.4319C134.316 68.6479 133.672 68.0039 132.888 68.0039H129.5C128.716 68.0039 128.072 68.6479 128.072 69.4319V72.1479C128.072 72.9599 128.716 73.5759 129.5 73.5759Z" fill="#F97821"/>
<path d="M121.354 73.5759H124.742C125.526 73.5759 126.17 72.9319 126.17 72.1479V69.4319C126.17 68.6479 125.526 68.0039 124.742 68.0039H121.354C120.57 68.0039 119.926 68.6479 119.926 69.4319V72.1479C119.926 72.9599 120.542 73.5759 121.354 73.5759Z" fill="#F97821"/>
<path d="M113.037 73.5759H116.425C117.209 73.5759 117.853 72.9319 117.853 72.1479V69.4319C117.853 68.6479 117.209 68.0039 116.425 68.0039H113.037C112.253 68.0039 111.609 68.6479 111.609 69.4319V72.1479C111.609 72.9599 112.253 73.5759 113.037 73.5759Z" fill="#F97821"/>
<path d="M104.889 73.5759H108.277C109.061 73.5759 109.705 72.9319 109.705 72.1479V69.4319C109.705 68.6479 109.061 68.0039 108.277 68.0039H104.889C104.105 68.0039 103.461 68.6479 103.461 69.4319V72.1479C103.461 72.9599 104.077 73.5759 104.889 73.5759Z" fill="#F97821"/>
<path d="M96.7132 73.5759H100.101C100.885 73.5759 101.529 72.9319 101.529 72.1479V69.4319C101.529 68.6479 100.885 68.0039 100.101 68.0039H96.7132C95.9292 68.0039 95.2852 68.6479 95.2852 69.4319V72.1479C95.2852 72.9599 95.9292 73.5759 96.7132 73.5759Z" fill="#F97821"/>
<path d="M76.4212 83.4258L80.2852 83.4258L80.2852 64.1338L76.4212 64.1338L76.4212 83.4258Z" fill="#490202"/>
<path d="M-1.85672 84.498L78.3633 84.498L78.3633 80.662L-1.85672 80.662L-1.85672 84.498Z" fill="#490202"/>
<path d="M-0.837703 61.1445H9.5223H66.2783H77.3383C77.8983 61.1445 78.3463 61.5925 78.3463 62.1525V82.8725H66.2783H9.0183H-1.8457V62.1525C-1.8457 61.5925 -1.3977 61.1445 -0.837703 61.1445Z" fill="#F9D1B7"/>
<path d="M-0.417969 63.3012H78.374V62.1252C78.374 61.5652 77.926 61.1172 77.366 61.1172H9.52203C6.02203 61.1452 2.66203 61.9012 -0.417969 63.3012Z" fill="#F97821"/>
<path d="M9.01758 82.873H78.3456V76.041H15.8496C12.0696 76.069 9.01758 79.121 9.01758 82.873Z" fill="#F99F5D"/>
<path d="M19.0976 77.5524H78.3456V76.0684H15.8496C12.0696 76.0684 9.01758 79.1204 9.01758 82.9004H12.4336C13.1336 79.8204 15.8496 77.5524 19.0976 77.5524Z" fill="#F97821"/>
<path d="M74.481 81.1372H70.029C68.881 81.1372 67.957 80.2132 67.957 79.0652V66.8572C67.957 65.7092 68.881 64.7852 70.029 64.7852H74.481C75.629 64.7852 76.553 65.7092 76.553 66.8572V79.0652C76.553 80.2132 75.629 81.1372 74.481 81.1372ZM70.029 65.1492C69.077 65.1492 68.321 65.9052 68.321 66.8572V79.0652C68.321 80.0172 69.077 80.7732 70.029 80.7732H74.481C75.433 80.7732 76.189 80.0172 76.189 79.0652V66.8572C76.189 65.9052 75.433 65.1492 74.481 65.1492H70.029V65.1492Z" fill="#F97821"/>
<path d="M76.9463 63.3012H-1.8457V62.1252C-1.8457 61.5652 -1.3977 61.1172 -0.837703 61.1172H66.9783C70.4783 61.1452 73.8663 61.9012 76.9463 63.3012Z" fill="#F99F5D"/>
<path d="M67.4823 82.873H-1.8457V76.041H60.6783C64.4303 76.069 67.4823 79.121 67.4823 82.873Z" fill="#F99F5D"/>
<path d="M57.4023 77.5524H-1.8457V76.0684H60.6783C64.4583 76.0684 67.5103 79.1204 67.5103 82.9004H64.0943C63.3943 79.8204 60.6783 77.5524 57.4023 77.5524Z" fill="#F97821"/>
<path d="M6.49666 81.1372H2.04466C0.896656 81.1372 -0.0273438 80.2132 -0.0273438 79.0652V66.8572C-0.0273438 65.7092 0.896656 64.7852 2.04466 64.7852H6.49666C7.64466 64.7852 8.56866 65.7092 8.56866 66.8572V79.0652C8.56866 80.2132 7.64466 81.1372 6.49666 81.1372ZM2.04466 65.1492C1.09266 65.1492 0.336656 65.9052 0.336656 66.8572V79.0652C0.336656 80.0172 1.09266 80.7732 2.04466 80.7732H6.49666C7.44866 80.7732 8.20466 80.0172 8.20466 79.0652V66.8572C8.20466 65.9052 7.44866 65.1492 6.49666 65.1492H2.04466V65.1492Z" fill="#F97821"/>
<path d="M60.3128 73.5759H63.7008C64.4848 73.5759 65.1288 72.9319 65.1288 72.1479V69.4319C65.1288 68.6479 64.4848 68.0039 63.7008 68.0039H60.3128C59.5288 68.0039 58.8848 68.6479 58.8848 69.4319V72.1479C58.8848 72.9599 59.5008 73.5759 60.3128 73.5759Z" fill="#F97821"/>
<path d="M52.137 73.5759H55.525C56.309 73.5759 56.953 72.9319 56.953 72.1479V69.4319C56.953 68.6479 56.309 68.0039 55.525 68.0039H52.137C51.353 68.0039 50.709 68.6479 50.709 69.4319V72.1479C50.709 72.9599 51.353 73.5759 52.137 73.5759Z" fill="#F97821"/>
<path d="M43.9885 73.5759H47.3765C48.1605 73.5759 48.8045 72.9319 48.8045 72.1479V69.4319C48.8045 68.6479 48.1605 68.0039 47.3765 68.0039H43.9885C43.2045 68.0039 42.5605 68.6479 42.5605 69.4319V72.1479C42.5605 72.9599 43.2045 73.5759 43.9885 73.5759Z" fill="#F97821"/>
<path d="M35.8421 73.5759H39.2301C40.0141 73.5759 40.6581 72.9319 40.6581 72.1479V69.4319C40.6581 68.6479 40.0141 68.0039 39.2301 68.0039H35.8421C35.0581 68.0039 34.4141 68.6479 34.4141 69.4319V72.1479C34.4141 72.9599 35.0581 73.5759 35.8421 73.5759Z" fill="#F97821"/>
<path d="M27.5257 73.5759H30.9137C31.6977 73.5759 32.3417 72.9319 32.3417 72.1479V69.4319C32.3417 68.6479 31.6977 68.0039 30.9137 68.0039H27.5257C26.7417 68.0039 26.0977 68.6479 26.0977 69.4319V72.1479C26.0977 72.9599 26.7417 73.5759 27.5257 73.5759Z" fill="#F97821"/>
<path d="M19.3772 73.5759H22.7652C23.5492 73.5759 24.1932 72.9319 24.1932 72.1479V69.4319C24.1932 68.6479 23.5492 68.0039 22.7652 68.0039H19.3772C18.5932 68.0039 17.9492 68.6479 17.9492 69.4319V72.1479C17.9492 72.9599 18.5932 73.5759 19.3772 73.5759Z" fill="#F97821"/>
<path d="M11.2288 73.5759H14.6168C15.4008 73.5759 16.0448 72.9319 16.0448 72.1479V69.4319C16.0448 68.6479 15.4008 68.0039 14.6168 68.0039H11.2288C10.4448 68.0039 9.80078 68.6479 9.80078 69.4319V72.1479C9.80078 72.9599 10.4448 73.5759 11.2288 73.5759Z" fill="#F97821"/>
<path d="M2.38086 126.889H29.6809C29.6809 126.889 28.8409 120.897 24.9769 120.057C24.9769 120.057 26.6569 110.593 22.5969 110.509C18.5369 110.425 16.5209 117.817 16.5209 117.817C16.5209 117.817 13.3849 117.257 11.9009 122.073C11.9009 122.073 7.64486 119.665 2.38086 126.889Z" fill="#EA6206"/>
<path d="M22.3208 114.111L19.8848 126.873L20.1598 126.926L22.5958 114.164L22.3208 114.111Z" fill="#6D0503"/>
<path d="M19.0486 112.753L18.7734 112.805L20.6621 122.877L20.9374 122.826L19.0486 112.753Z" fill="#6D0503"/>
<path d="M26.4051 120.599L20.2031 125.35L20.3734 125.572L26.5753 120.821L26.4051 120.599Z" fill="#6D0503"/>
<path d="M14.4926 118.348L14.2129 118.361L14.6306 126.891L14.9103 126.877L14.4926 118.348Z" fill="#6D0503"/>
<path d="M7.33279 122.413L7.06055 122.479L8.12761 126.916L8.39985 126.851L7.33279 122.413Z" fill="#6D0503"/>
<path d="M404.74 126.021H-1.23242V137.781H404.74V126.021Z" fill="#F99F5D"/>
<path d="M359.998 138H-0.00195312V280H359.998V138Z" fill="#FA873A"/>
<path d="M406 136.66H-2.60352V139.012H406V136.66Z" fill="#F97821"/>
<path d="M406.602 278H-2.00195V280H406.602V278Z" fill="#F97821"/>
<path d="M5.71805 202.141H-1.00195V204.661H5.71805V202.141Z" fill="white"/>
<path d="M26.97 202.111H20.25V204.631H26.97V202.111Z" fill="white"/>
<path d="M48.222 202.111H41.502V204.631H48.222V202.111Z" fill="white"/>
<path d="M69.4739 202.111H62.7539V204.631H69.4739V202.111Z" fill="white"/>
<path d="M90.7259 202.111H84.0059V204.631H90.7259V202.111Z" fill="white"/>
<path d="M111.978 202.084H105.258V204.604H111.978V202.084Z" fill="white"/>
<path d="M133.23 202.084H126.51V204.604H133.23V202.084Z" fill="white"/>
<path d="M154.482 202.084H147.762V204.604H154.482V202.084Z" fill="white"/>
<path d="M175.734 202.057H169.014V204.577H175.734V202.057Z" fill="white"/>
<path d="M196.958 202.057H190.238V204.577H196.958V202.057Z" fill="white"/>
<path d="M218.21 202.057H211.49V204.577H218.21V202.057Z" fill="white"/>
<path d="M239.462 202.057H232.742V204.577H239.462V202.057Z" fill="white"/>
<path d="M260.714 202.027H253.994V204.547H260.714V202.027Z" fill="white"/>
<path d="M281.966 202.027H275.246V204.547H281.966V202.027Z" fill="white"/>
<path d="M303.218 202.027H296.498V204.547H303.218V202.027Z" fill="white"/>
<path d="M324.47 202.027H317.75V204.547H324.47V202.027Z" fill="white"/>
<path d="M345.722 202H339.002V204.52H345.722V202Z" fill="white"/>
<path d="M414.789 89.5371H-0.226562V129.913H9.62944V107.961C9.62944 100.289 16.7694 94.0171 25.4774 94.0171C33.5134 94.0171 40.0934 99.8131 40.0934 106.897V129.941H51.7974V107.961C51.7974 100.289 58.8814 94.0171 67.5614 94.0171C75.5694 94.0171 82.1214 99.8131 82.1214 106.897V129.941H93.9934V107.961C93.9934 100.289 101.049 94.0171 109.673 94.0171C117.625 94.0171 124.149 99.8131 124.149 106.897V129.941H136.161V107.961C136.161 100.289 143.189 94.0171 151.757 94.0171C159.681 94.0171 166.149 99.8131 166.149 106.897V129.941H178.329V107.961C178.329 100.289 185.301 94.0171 193.841 94.0171C201.709 94.0171 208.177 99.8131 208.177 106.897V129.941H220.525V107.961C220.525 100.289 227.469 94.0171 235.953 94.0171C243.793 94.0171 250.205 99.8131 250.205 106.897V129.941H260.061V107.961C260.061 100.289 267.201 94.0171 275.909 94.0171C283.945 94.0171 290.525 99.8131 290.525 106.897V129.941H302.229V107.961C302.229 100.289 309.313 94.0171 317.993 94.0171C326.001 94.0171 332.553 99.8131 332.553 106.897V129.941H344.425V107.961C344.425 100.289 351.481 94.0171 360.105 94.0171C368.057 94.0171 374.581 99.8131 374.581 106.897V129.941H386.593V107.961C386.593 100.289 393.621 94.0171 402.189 94.0171C407.621 94.0171 412.353 96.7331 414.817 100.709V89.5371H414.789Z" fill="#5435D6"/>
<path d="M414.79 84.1602H-2.07422V86.3162H414.79V84.1602Z" fill="#3A27AA"/>
<path d="M414.79 85.5039H-2.07422V87.6599H414.79V85.5039Z" fill="#786BF2"/>
<path d="M-2.07422 87.3809V89.5369H414.79V87.3809" fill="#3A27AA"/>
<path d="M359.998 254H-0.00195312V278H359.998V254Z" fill="#EA6206"/>
<path d="M305.778 201.148L295.879 235.933L288.671 261.577H283.385L291.073 201.148H305.778Z" fill="#6D0503"/>
<path d="M308.421 201.148C308.661 219.094 309.43 228.861 309.67 230.497C309.911 232.133 313.563 242.477 320.579 261.577H315.1C306.162 243.246 301.165 232.902 300.108 230.497C299.05 228.091 295.831 218.324 291.025 201.148H308.421Z" fill="#AA1707"/>
<path d="M321.059 266.485L320.771 260.76H315.053C312.314 262.684 308.806 264.224 304.385 265.427V266.533H314.764L318.32 266.004V266.533H321.059V266.485Z" fill="#490202"/>
<path d="M289.392 266.485L289.103 260.76H283.385C280.646 262.684 277.138 264.224 272.717 265.427V266.533H283.096L286.652 266.004V266.533H289.392V266.485Z" fill="#490202"/>
<path d="M302.27 168.527C303.52 167.036 304.385 165.256 304.241 163.187C303.808 157.317 295.687 158.616 294.101 161.599C292.515 164.534 292.708 172.039 294.774 172.569C295.591 172.761 297.321 172.28 299.099 171.173L297.994 179.016H304.529L302.27 168.527Z" fill="#F99F5D"/>
<path d="M297.031 162.032C297.944 162.513 298.569 163.476 299.338 164.678C299.53 164.582 299.722 164.582 299.915 164.582C300.828 164.582 301.548 165.304 301.548 166.218C301.548 166.699 301.356 167.084 301.068 167.373C301.452 167.902 301.885 168.479 302.365 169.057C304.191 167.95 306.162 164.63 304.432 161.551C302.942 155.393 293.86 159.338 292.226 158.328C291.841 160.541 292.995 162.369 297.031 162.032Z" fill="#FCF4F0"/>
<path d="M291.169 204.708L284.249 211.011C282.903 214.523 282.038 216.111 281.606 215.774C280.933 215.245 281.606 214.33 281.221 213.897C280.837 213.464 279.299 214.09 277.906 214.715C276.512 215.341 276.656 214.571 276.896 214.09C278.05 212.647 279.636 211.251 281.654 209.856L287.661 200.859L291.169 204.708ZM280.597 180.7L272.091 175.696C270.938 175.648 269.736 175.552 268.631 175.263C268.006 175.119 267.334 174.975 267.19 174.253C267.093 173.868 266.805 173.483 267.142 173.147C267.286 172.954 267.622 172.858 267.622 172.617C267.67 172.281 267.718 172.281 267.958 172.04C268.006 171.992 268.343 171.799 268.247 171.703C267.91 171.27 266.901 170.693 266.613 170.404C265.508 169.153 266.132 169.201 266.661 169.298C268.487 170.019 270.409 171.174 272.427 172.762L283.336 176.033L280.597 180.7Z" fill="#F99F5D"/>
<path d="M293.235 179.593C291.89 189.552 287.805 198.308 280.934 208.364L285.931 211.058C294.917 203.312 299.531 198.934 299.29 190.081C299.242 187.868 297.368 181.421 296.551 177.957L293.235 179.593Z" fill="#5435D6"/>
<path d="M310.054 205.333H289.055C293.812 190.803 296.263 180.796 296.359 175.407C296.359 175.118 296.887 174.637 297.08 174.685C298.714 175.167 300.492 174.974 302.366 174.156C307.315 182.191 309.045 192.054 310.054 205.333Z" fill="#F2F2F2"/>
<path d="M300.539 174.204C294.532 174.252 284.729 175.358 273.484 171.75L272.379 177.331C280.884 182.816 289.534 187.05 297.079 186.472C293.811 200.569 293.955 212.116 301.211 212.116C304.671 212.116 308.419 212.116 312.408 212.116C314.186 200.136 309.525 183.537 305.152 175.166C305.008 174.829 304.623 174.252 303.806 174.252C303.085 174.156 302.028 174.156 300.539 174.204C300.539 174.156 300.587 174.156 300.539 174.204Z" fill="#5435D6"/>
<path d="M293.428 164.822C293.188 165.833 292.515 166.41 292.131 167.276C291.458 168.767 292.467 168.767 293.572 169.249" fill="#F99F5D"/>
<path d="M294.148 164.582C294.533 164.438 294.917 164.39 295.35 164.438C295.542 164.486 295.782 164.582 295.926 164.727C296.071 164.871 296.167 165.063 296.215 165.304C295.926 165.015 295.638 164.871 295.302 164.823C294.917 164.727 294.533 164.727 294.148 164.582Z" fill="#AA1707"/>
<path d="M293.428 170.115C293.764 170.067 294.052 169.971 294.341 169.875C294.629 169.73 294.917 169.586 295.254 169.49C295.35 169.442 295.446 169.538 295.494 169.586C295.494 169.634 295.494 169.682 295.494 169.73C295.302 170.115 294.965 170.404 294.677 170.644C294.341 170.885 294.004 171.077 293.716 171.318C293.908 170.981 294.245 170.692 294.485 170.404C294.773 170.115 295.014 169.875 295.206 169.538L295.398 169.778C295.11 169.875 294.773 169.971 294.437 170.067C294.1 170.211 293.716 170.211 293.428 170.115Z" fill="#AA1707"/>
<path d="M294.775 165.929C294.934 165.929 295.063 165.8 295.063 165.64C295.063 165.481 294.934 165.352 294.775 165.352C294.615 165.352 294.486 165.481 294.486 165.64C294.486 165.8 294.615 165.929 294.775 165.929Z" fill="#AA1707"/>
<path d="M356.09 217.602L347.056 248.682L342.828 272.064H338.551L342.828 217.602H356.09Z" fill="#490202"/>
<path d="M360.127 217.602C359.502 233.767 359.742 242.572 359.886 244.063C360.03 245.555 360.847 255.369 366.277 272.594H361.856C354.648 256.091 352.101 246.228 351.285 244.063C350.468 241.898 348.017 233.094 344.461 217.602H360.127V217.602Z" fill="#490202"/>
<path d="M356.283 217.602C353.928 228.331 349.892 245.41 344.125 268.889H337.878C337.398 244.785 339.368 228.956 342.78 217.602H356.283V217.602Z" fill="#890D04"/>
<path d="M360.177 217.602C359.552 233.767 361.138 249.692 366.087 269.13H359.456C352.248 252.868 347.058 237.039 343.502 217.602H360.177V217.602Z" fill="#AA1707"/>
<path d="M366.902 275.768L366.662 271.823C365.22 272.256 363.442 272.063 361.28 271.342C358.973 272.978 356.042 274.084 352.534 274.71C352.246 274.758 352.102 274.998 352.15 275.287V275.335L352.486 276.538H361.28H366.422L366.902 275.768Z" fill="#F97821"/>
<path d="M343.789 275.768L343.549 271.823C342.107 272.256 340.329 272.063 338.167 271.342C335.86 272.978 332.929 274.084 329.421 274.71C329.133 274.758 328.988 274.998 329.036 275.287V275.335L329.373 276.538H338.167H343.309L343.789 275.768Z" fill="#F97821"/>
<path d="M350.324 179.304C351.477 177.957 352.246 176.321 352.102 174.493C351.717 169.201 344.413 170.355 342.972 173.05C341.53 175.696 341.722 182.48 343.548 182.961C344.269 183.153 345.855 182.672 347.441 181.71L346.431 188.782H352.342L350.324 179.304Z" fill="#F97821"/>
<path d="M340.329 169.393C340.473 168.96 340.761 168.575 341.242 168.479C341.338 168.431 341.482 168.431 341.578 168.431C341.626 168.431 341.626 168.431 341.626 168.431C341.626 168.431 341.626 168.383 341.626 168.335C341.626 168.239 341.674 168.19 341.674 168.094C341.77 167.854 341.914 167.613 342.107 167.421C342.443 167.084 342.924 166.843 343.404 166.795C343.692 166.795 343.933 166.795 344.221 166.891C344.365 166.94 344.461 166.988 344.605 167.036C344.653 167.036 344.75 167.132 344.798 167.132C344.846 167.132 344.942 167.036 344.942 166.988C345.374 166.651 345.855 166.555 346.383 166.555C346.96 166.555 347.537 166.603 348.017 166.94C348.113 167.036 348.209 167.084 348.306 167.18C348.354 167.228 348.402 167.276 348.45 167.324C348.498 167.373 348.498 167.373 348.546 167.421C348.594 167.469 348.594 167.469 348.642 167.469C348.882 167.324 349.171 167.276 349.411 167.276C349.555 167.276 349.747 167.324 349.891 167.421C349.939 167.421 350.084 167.517 350.132 167.517C350.18 167.517 350.324 167.421 350.372 167.421C350.66 167.324 350.997 167.276 351.333 167.324C351.669 167.373 352.006 167.517 352.246 167.709C352.39 167.806 352.486 167.902 352.582 168.046C352.63 168.094 352.678 168.142 352.727 168.19C352.775 168.239 352.823 168.239 352.823 168.287C352.823 168.287 353.159 168.142 353.207 168.094C353.399 168.046 353.591 168.046 353.784 168.094C354.12 168.19 354.408 168.479 354.649 168.72C354.793 168.864 354.889 169.008 354.985 169.153C355.033 169.249 355.081 169.297 355.129 169.393C355.129 169.441 355.177 169.49 355.177 169.49C355.225 169.538 355.225 169.538 355.273 169.538C355.562 169.634 355.802 169.778 355.994 170.019C356.186 170.259 356.331 170.5 356.379 170.837V170.933C356.379 170.933 356.427 170.933 356.475 170.933C356.571 170.933 356.619 170.933 356.715 170.981C356.859 171.029 356.955 171.077 357.099 171.125C357.58 171.366 357.916 171.799 358.061 172.28C358.253 172.809 358.253 173.387 358.012 173.916C357.964 174.012 357.916 174.06 357.868 174.156C357.82 174.204 357.82 174.204 357.868 174.253C357.868 174.301 357.916 174.349 357.964 174.397C358.061 174.589 358.109 174.734 358.157 174.926C358.205 175.215 358.253 175.552 358.205 175.888C358.157 176.033 358.109 176.177 358.061 176.321C358.012 176.37 357.964 176.466 357.916 176.514C357.868 176.562 357.868 176.562 357.82 176.61L357.772 176.658C357.724 176.706 357.724 176.658 357.772 176.706C357.772 176.803 357.868 176.899 357.868 176.947C357.916 177.043 357.916 177.139 357.964 177.236C358.012 177.428 358.06 177.62 358.109 177.813C358.157 178.15 358.157 178.535 357.964 178.871C357.868 179.016 357.772 179.16 357.676 179.256C357.628 179.304 357.532 179.352 357.484 179.401C357.436 179.401 357.388 179.449 357.388 179.449C357.388 179.497 357.388 179.545 357.388 179.593C357.436 179.978 357.484 180.363 357.34 180.7C357.244 181.036 357.003 181.325 356.715 181.518C356.138 181.902 355.418 181.854 354.841 181.566C354.697 181.469 354.553 181.373 354.408 181.277C354.072 181.71 353.399 181.71 352.967 181.566C352.39 181.421 351.91 180.988 351.621 180.459C351.237 180.892 350.468 180.748 350.228 180.267C350.18 180.122 350.132 180.026 350.132 179.882C350.132 179.834 350.132 179.737 350.132 179.689C350.132 179.593 350.084 179.497 350.036 179.449C349.987 179.304 349.939 179.112 349.939 178.919C349.939 178.823 349.939 178.727 349.939 178.631C349.939 178.535 349.939 178.486 349.891 178.39C350.035 178.438 350.228 178.39 350.372 178.342C350.516 178.294 350.66 178.198 350.756 178.102C350.997 177.861 351.141 177.524 351.237 177.236C351.429 176.562 351.381 175.696 350.66 175.359C350.324 175.167 349.363 175.167 348.978 175.263C348.594 175.359 348.113 176.225 348.113 176.321C348.113 176.37 348.113 176.418 348.065 176.466C347.969 176.562 347.777 176.418 347.729 176.321C347.585 176.225 347.489 176.081 347.441 175.888C347.248 175.552 347.104 175.215 347.008 174.83C346.912 174.541 346.864 174.253 346.768 174.012C346.672 173.723 346.528 173.483 346.239 173.338C345.951 173.194 345.663 173.098 345.374 173.002C345.086 172.905 344.798 172.761 344.557 172.569C344.509 172.521 344.461 172.472 344.413 172.424C344.365 172.376 344.365 172.28 344.317 172.28C344.221 172.232 344.125 172.328 344.077 172.376C343.74 172.569 343.5 172.857 343.26 173.194C343.02 173.531 342.875 173.82 342.731 174.156C342.635 174.397 342.539 174.734 342.347 174.974C342.251 175.071 341.626 175.119 341.434 175.022C341.242 174.926 341.001 174.734 340.953 174.589C340.905 174.445 340.857 174.301 340.905 174.156C340.905 174.06 340.953 173.964 341.001 173.916C341.001 173.82 341.049 173.771 341.049 173.723C341.097 173.579 341.242 173.483 341.386 173.483C341.242 173.338 341.097 173.194 341.049 173.002C340.953 172.809 340.905 172.569 340.857 172.376C340.857 172.232 340.857 172.039 340.953 171.895C341.049 171.751 341.194 171.655 341.386 171.558C341.146 171.366 340.953 171.173 340.809 170.933C340.377 170.5 340.184 169.923 340.329 169.393Z" fill="#490202"/>
<path d="M342.634 191.957L334.081 187.29C332.639 185.606 331.246 184.307 329.9 183.345C329.468 183.152 328.747 183.056 329.42 184.307C330.092 185.558 330.765 186.857 330.429 187.242C330.092 187.627 329.179 187.097 328.795 187.723C328.507 188.156 329.996 188.781 333.264 189.695L339.511 195.325L342.634 191.957Z" fill="#F97821"/>
<path d="M347.296 191.284C344.316 191.236 340.328 190.61 336.051 187.916L334.369 191.669C337.3 194.604 341.433 197.009 345.037 196.865C347.92 196.769 349.362 193.305 347.296 191.284Z" fill="#E83D0F"/>
<path d="M314.571 178.728C318.415 177.861 322.212 176.755 326.056 175.745C326.536 175.6 328.411 174.83 328.747 175.023C328.747 175.023 329.083 177.044 329.131 177.621C329.324 179.545 329.612 181.47 329.9 183.346C330.092 184.693 330.285 185.8 330.381 186.425C330.429 186.57 330.429 186.666 330.429 186.762C330.429 186.955 330.429 187.099 330.333 187.195C329.996 187.58 329.083 187.051 328.699 187.676C328.459 188.013 329.372 188.494 331.342 189.12C332.399 191.622 336.051 196.914 336.388 197.347C333.456 198.646 330.525 199.945 327.594 201.196C326.873 201.533 322.548 203.601 321.779 203.361C321.01 203.168 319.857 200.763 319.232 199.464C317.743 196.337 316.589 193.017 315.772 189.649C315.628 188.735 313.802 178.92 314.571 178.728Z" fill="#FCF4F0"/>
<path d="M327.306 202.735C325.672 201.58 324.183 200.763 322.789 200.378C320.146 199.656 319.041 199.079 317.743 197.395C317.023 196.529 316.446 194.7 317.119 194.123C317.551 193.738 320.194 195.663 321.251 195.903C322.309 196.144 321.347 193.594 321.924 193.834C322.645 193.834 323.27 194.845 323.798 196.865L327.546 198.934L327.306 202.735Z" fill="#F97821"/>
<path d="M341.626 199.945C338.454 200.714 333.12 199.8 325.624 197.154C323.75 201.003 322.933 203.746 323.029 205.381C329.468 208.749 334.946 210.241 339.464 210.337C339.319 213.031 339.656 215.581 340.761 217.939C343.02 222.75 356.234 218.275 360.703 219.189C363.491 210.144 358.108 206.44 358.108 200.666C358.108 194.316 353.015 184.549 352.246 184.549H345.422C345.086 189.36 343.212 194.7 341.626 199.945Z" fill="#EA6206"/>
<path d="M342.058 176.947C342.202 177.717 341.145 178.198 341.049 178.872C340.904 179.738 341.962 179.93 342.49 180.075" fill="#F97821"/>
<path d="M342.441 181.276C342.73 181.132 342.922 181.083 343.162 180.939C343.402 180.843 343.643 180.699 343.931 180.65C343.787 180.939 343.595 181.132 343.306 181.276C343.018 181.372 342.682 181.42 342.441 181.276Z" fill="#490202"/>
<path d="M342.826 176.273C342.826 176.081 342.874 175.84 343.114 175.744C343.307 175.648 343.547 175.648 343.739 175.696C344.124 175.84 344.46 176.081 344.652 176.417C344.268 176.321 343.931 176.177 343.643 176.081C343.499 176.032 343.355 175.984 343.211 176.032C343.114 175.984 342.97 176.129 342.826 176.273Z" fill="#490202"/>
<path d="M343.5 176.995C343.633 176.995 343.74 176.887 343.74 176.754C343.74 176.621 343.633 176.514 343.5 176.514C343.367 176.514 343.26 176.621 343.26 176.754C343.26 176.887 343.367 176.995 343.5 176.995Z" fill="#490202"/>
<path d="M371.521 102.408H321.111V103.229H371.521V102.408Z" fill="#EA6206"/>
<path d="M371.275 117.051H320.865V117.871H371.275V117.051Z" fill="#EA6206"/>
<path d="M337.108 97.0762H323.244V123.204H337.108V97.0762Z" fill="#F9D1B7"/>
<path d="M336.698 97.4453V122.794H323.613V97.4453H336.698ZM337.477 96.707H336.698H323.613H322.834V97.4864V122.835V123.614H323.613H336.698H337.477V122.835V97.4864V96.707Z" fill="#EA6206"/>
<path d="M353.188 97.0762H339.324V123.204H353.188V97.0762Z" fill="#F9D1B7"/>
<path d="M352.819 97.4453V122.794H339.734V97.4453H352.819ZM353.557 96.707H352.778H339.693H338.914V97.4864V122.835V123.614H339.693H352.778H353.557V122.835V97.4864V96.707Z" fill="#EA6206"/>
<path d="M369.305 97.0762H355.441V123.204H369.305V97.0762Z" fill="#F9D1B7"/>
<path d="M368.895 97.4453V122.794H355.811V97.4453H368.895ZM369.674 96.707H368.895H355.811H355.031V97.4864V122.835V123.614H355.811H368.895H369.674V122.835V97.4864V96.707Z" fill="#EA6206"/>
<path d="M321.563 91.1699H320.168V131.202H321.563V91.1699Z" fill="#EA6206"/>
<path d="M374.105 86.207H346.296H318.486C318.486 86.207 314.959 87.3555 313.852 91.1701H346.296H378.74C377.674 87.3555 374.105 86.207 374.105 86.207Z" fill="#EA6206"/>
<path d="M373.408 86.7402H346.255H345.845H318.692C318.692 86.7402 317.051 87.1094 316.189 88.3809H345.763H346.255H375.828C375.008 87.1094 373.408 86.7402 373.408 86.7402Z" fill="white"/>
<path d="M333.781 132.883H333.084L333.658 126.402H334.355L333.781 132.883Z" fill="#890D04"/>
<path d="M358.35 132.883H359.006L358.432 126.402H357.775L358.35 132.883Z" fill="#890D04"/>
<path d="M331.856 134.483H331.076L331.773 125.992H332.553L331.856 134.483Z" fill="#AA1707"/>
<path d="M360.24 134.483H361.02L360.363 125.992H359.584L360.24 134.483Z" fill="#AA1707"/>
<path d="M334.973 116.928H334.193V126.403H334.973V116.928Z" fill="#AA1707"/>
<path d="M357.9 116.928H357.121V126.403H357.9V116.928Z" fill="#AA1707"/>
<path d="M362.493 116.928H329.639V119.471H362.493V116.928Z" fill="#E83D0F"/>
<path d="M362.493 121.316H329.639V123.859H362.493V121.316Z" fill="#E83D0F"/>
<path d="M363.929 125.623H328.162V126.361H363.929V125.623Z" fill="#E83D0F"/>
<path d="M300.07 85.8379H299.25V133.459H300.07V85.8379Z" fill="#AA1707"/>
<path d="M311.145 107.577C309.874 100.481 307.085 95.9284 307.085 95.9284C307.085 95.9284 312.54 89.3657 299.62 75.4609C286.74 89.3657 292.154 95.9284 292.154 95.9284C292.154 95.9284 289.365 100.481 288.094 107.577C286.822 114.673 293.549 117.585 299.62 117.585C305.69 117.585 312.417 114.673 311.145 107.577Z" fill="#EA6206"/>
<path d="M324.107 123.247C323.451 122.837 322.344 123.37 322.344 123.944C322.344 125.626 323.902 133.665 323.984 134.157C324.066 134.649 324.928 134.814 324.969 134.157C325.051 133.132 325.215 129.645 325.051 128.005C324.969 127.348 324.928 126.692 324.846 126.118C325.666 127.595 326.897 129.686 328.619 132.435L329.563 132.024C328.824 129.645 328.25 127.964 327.758 126.979C326.979 125.298 326.199 123.862 325.912 123.329C325.42 122.467 324.559 122.755 324.107 123.247Z" fill="#6D0503"/>
<path d="M329.481 130.671L326.323 123.165C325.544 121.934 323.452 123.411 323.698 124.108C324.272 125.708 327.266 130.917 327.471 131.409L329.481 130.671Z" fill="#F9C19B"/>
<path d="M329.692 131.503C329.885 131.662 330.006 131.779 330.072 131.912C330.137 132.045 330.218 132.233 330.313 132.478C330.16 132.579 328.885 133.311 326.391 134.76C326.077 134.484 326.052 134.28 326.246 134.108C326.44 133.936 326.614 133.799 326.747 133.734L328.108 131.868C328.129 131.832 328.185 131.817 328.22 131.838L328.519 132.058C328.779 132.018 328.983 131.994 329.08 131.908C329.177 131.821 329.294 131.7 329.432 131.543C329.473 131.472 329.585 131.442 329.692 131.503C329.692 131.503 329.656 131.483 329.692 131.503Z" fill="#E83D0F"/>
<path d="M325.174 133.746C325.256 133.992 325.297 134.156 325.297 134.279C325.297 134.443 325.256 134.648 325.215 134.895C325.051 134.895 323.533 134.895 320.703 134.895C320.58 134.525 320.662 134.279 320.908 134.279C321.154 134.279 321.359 134.238 321.523 134.197L323.615 133.254C323.656 133.254 323.697 133.254 323.738 133.295L323.861 133.623C324.107 133.746 324.272 133.787 324.436 133.787C324.559 133.787 324.723 133.746 324.928 133.623C325.051 133.582 325.133 133.623 325.174 133.746C325.174 133.705 325.174 133.705 325.174 133.746Z" fill="#E83D0F"/>
<path d="M322.139 124.518C322.139 126.651 323.164 131.614 323.164 132.106H325.338C325.01 127.676 324.887 125.42 325.01 125.379C325.133 125.297 330.711 125.953 332.393 125.953C334.813 125.953 335.797 124.436 335.879 121.646H331.121C330.137 121.77 325.092 122.754 323.205 123.123C322.344 123.205 322.139 123.902 322.139 124.518Z" fill="#F9D1B7"/>
<path d="M333.578 109.956C333.947 109.505 334.193 108.972 334.152 108.397C334.029 106.675 331.65 107.044 331.158 107.905C330.665 108.766 330.747 110.981 331.363 111.145C331.609 111.227 332.101 111.063 332.634 110.735L332.306 113.032H334.234L333.578 109.956Z" fill="#6D0503"/>
<path d="M328.045 120.455L325.666 121.85C325.091 122.793 324.722 123.203 324.64 123.08C324.476 122.875 324.722 122.67 324.64 122.506C324.558 122.342 324.066 122.424 323.615 122.547C323.164 122.629 323.287 122.424 323.369 122.301C323.779 121.973 324.353 121.645 325.009 121.358L327.265 119.143L328.045 120.455ZM339.817 123.737C339.94 123.983 340.801 124.68 341.375 125.09C341.621 125.254 341.498 125.459 341.416 125.5C340.678 125.951 340.227 125.418 339.57 125.131C338.873 124.803 338.955 125.705 338.381 125.459C338.545 125.09 338.955 124.393 338.75 123.942C338.668 123.737 337.971 121.481 336.617 117.133H338.381C339.201 121.235 339.653 123.449 339.817 123.737Z" fill="#6D0503"/>
<path d="M333.049 112.129L332.352 112.006C331.245 115.861 325.625 118.487 325.297 119.963C325.174 120.496 325.543 120.742 325.338 120.907L326.241 121.563C326.405 121.399 326.733 121.727 327.389 121.481C328.086 121.276 333.049 116.723 333.049 112.129Z" fill="#890D04"/>
<path d="M331.9 112.663C331.982 117.79 329.029 119.102 329.685 121.153C330.218 122.835 335.427 124.681 336.33 122.999C336.699 122.343 336.863 121.522 336.863 120.62C337.109 121.317 337.273 121.891 337.396 122.384C337.642 123.245 338.504 123.368 338.504 123.696L339.693 123.368C339.611 122.917 340.185 122.712 340.021 121.727C339.365 117.298 337.56 114.098 334.648 112.088L334.607 111.637C334.607 111.473 334.443 111.309 334.279 111.35L332.105 111.514C331.941 111.514 331.777 111.678 331.818 111.842L331.9 112.663Z" fill="#AA1707"/>
<path d="M259.113 236.546C259.339 237.278 260.24 237.617 260.804 237.109C261.424 236.602 261.988 235.813 261.988 234.517C261.988 231.811 263.397 216.536 262.551 214.732C261.48 212.477 238.765 208.645 229.972 208.306C229.183 208.25 228.45 207.855 228.055 207.179C225.688 203.29 217.74 190.438 215.204 189.649C212.217 188.747 194.461 187 185.048 187C175.635 187 150.327 187.282 148.241 189.424C146.099 191.566 127.724 213.492 126.709 216.085C125.695 218.678 124.004 225.893 124.004 229.331C124.004 231.98 127.386 234.46 129.471 235.644C130.091 235.982 130.881 235.644 130.993 234.911C131.613 231.416 134.037 222.736 143.281 222.736C154.836 222.736 157.936 232.375 159.402 235.137C160.867 237.898 161.825 237.56 172.366 237.56C182.906 237.56 227.548 237.56 227.548 237.56C227.548 237.56 230.197 237.673 231.268 234.235C232.283 230.796 234.256 223.243 243.105 223.243C249.249 223.243 255.9 224.54 259.113 236.546Z" fill="#EA6206"/>
<path d="M129.471 235.587C130.091 235.925 130.88 235.587 130.993 234.854C131.275 233.163 132.008 230.345 133.699 227.808L124.511 224.539C124.173 226.343 123.947 228.09 123.947 229.274C124.004 231.923 127.386 234.403 129.471 235.587Z" fill="#E83D0F"/>
<path d="M227.605 237.503C227.605 237.503 182.907 237.503 172.423 237.503C165.208 237.503 162.446 237.672 160.981 236.883C160.868 236.827 160.755 236.77 160.699 236.714C160.642 236.714 160.642 236.658 160.586 236.658C160.135 236.32 159.797 235.812 159.459 235.136C159.402 235.079 159.346 234.967 159.346 234.854C158.613 233.389 157.542 230.683 155.4 228.146H233.862C232.453 230.288 231.776 232.712 231.325 234.234C230.254 237.616 227.605 237.503 227.605 237.503Z" fill="#E83D0F"/>
<path d="M260.803 237.053C261.423 236.546 261.987 235.757 261.987 234.461C261.987 233.615 262.1 231.642 262.269 229.218L255.73 228.768C257.083 230.628 258.211 233.164 259.112 236.433C259.338 237.279 260.24 237.561 260.803 237.053Z" fill="#E83D0F"/>
<path d="M259.112 236.546C255.899 224.541 249.361 223.244 243.161 223.244C234.142 223.244 232.338 230.797 231.324 234.235C230.309 237.674 227.604 237.561 227.604 237.561C227.604 237.561 227.322 237.561 226.814 237.561C226.814 237.73 226.814 237.899 226.871 238.068L238.088 239.647L259.563 237.167C259.338 236.997 259.168 236.772 259.112 236.546Z" fill="#6D0503"/>
<path d="M159.456 235.08C157.991 232.318 154.891 222.68 143.336 222.68C134.092 222.68 131.668 231.36 131.048 234.855C130.992 235.193 130.766 235.475 130.484 235.644L145.365 239.139L162.951 237.448C160.866 237.166 160.189 236.602 159.456 235.08Z" fill="#6D0503"/>
<path d="M228 206.953C226.027 203.683 220.559 194.89 217.234 191.227C216.501 191.227 215.092 191.339 215.092 191.847C215.092 192.523 223.603 207.122 225.238 207.742C226.365 208.249 227.436 207.573 228 206.953Z" fill="#FCE4D9"/>
<path d="M221.799 209.152C222.532 209.152 222.983 208.307 222.588 207.687C219.939 203.572 212.612 192.299 211.146 191.961C209.399 191.566 185.556 191.961 185.556 191.961C185.556 191.961 182.23 191.961 182.23 196.752C182.23 200.303 182.512 205.432 182.625 207.799C182.681 208.532 183.245 209.096 183.978 209.096H221.799V209.152Z" fill="#FCE4D9"/>
<path d="M180.144 194.609V207.123C180.144 208.25 179.242 209.152 178.115 209.152H147.452C147.452 209.152 145.028 208.475 144.803 205.826C144.633 203.853 150.326 196.864 153.145 193.538C154.103 192.411 155.456 191.791 156.921 191.791H177.326C178.848 191.791 180.144 193.087 180.144 194.609Z" fill="#FCE4D9"/>
<path d="M144.238 193.934C141.138 197.597 136.854 202.727 133.303 207.18L133.866 207.405C134.656 207.743 135.614 207.461 136.121 206.785L144.745 195.512C145.14 195.005 144.858 194.159 144.238 193.934Z" fill="#FCE4D9"/>
<path d="M224.617 240.265H165.094C163.854 240.265 162.84 239.251 162.84 238.011V237.391H226.815V238.011C226.872 239.251 225.857 240.265 224.617 240.265Z" fill="#6D0503"/>
<path d="M126.146 217.664C125.3 220.539 124.229 225.161 124.004 228.205C124.906 228.994 126.033 229.501 126.428 228.261C127.048 226.232 129.077 218.622 128.795 218.228C128.626 217.946 127.217 217.777 126.146 217.664Z" fill="#B7211F"/>
<path d="M128.231 232.094L127.16 233.897C126.935 234.235 126.596 234.461 126.146 234.461H124.68C124.342 234.461 124.06 234.743 124.06 235.081C124.004 235.532 123.835 235.926 123.158 235.363C122.031 234.405 120.847 232.375 121.016 230.684C121.185 228.993 121.693 227.246 122.313 227.246C122.933 227.246 124.004 227.415 124.004 228.993V229.895C124.004 230.459 124.455 230.966 125.075 230.966H127.611C128.175 230.966 128.513 231.586 128.231 232.094Z" fill="#6D0503"/>
<path d="M262.889 235.982H262.1C261.255 235.982 260.578 235.306 260.578 234.46V231.811C260.578 231.191 261.085 230.74 261.649 230.74H262.946C264.073 230.74 265.031 231.642 265.031 232.826V233.953C264.975 235.024 264.073 235.982 262.889 235.982Z" fill="#6D0503"/>
<path d="M262.777 215.184C262.777 215.184 264.186 215.184 264.13 217.495C264.073 219.806 264.13 222.793 262.664 223.244C262.664 223.244 262.89 215.86 262.777 215.184Z" fill="#6D0503"/>
<path d="M244.797 250.017C251.676 250.017 257.254 244.44 257.254 237.56C257.254 230.681 251.676 225.104 244.797 225.104C237.917 225.104 232.34 230.681 232.34 237.56C232.34 244.44 237.917 250.017 244.797 250.017Z" fill="#490202"/>
<path d="M244.797 245.565C249.217 245.565 252.801 241.981 252.801 237.561C252.801 233.14 249.217 229.557 244.797 229.557C240.376 229.557 236.793 233.14 236.793 237.561C236.793 241.981 240.376 245.565 244.797 245.565Z" fill="#EFD5D5"/>
<path d="M244.795 240.267C246.29 240.267 247.501 239.055 247.501 237.561C247.501 236.067 246.29 234.855 244.795 234.855C243.301 234.855 242.09 236.067 242.09 237.561C242.09 239.055 243.301 240.267 244.795 240.267Z" fill="#890D04"/>
<path d="M144.916 250.017C151.796 250.017 157.373 244.44 157.373 237.56C157.373 230.681 151.796 225.104 144.916 225.104C138.036 225.104 132.459 230.681 132.459 237.56C132.459 244.44 138.036 250.017 144.916 250.017Z" fill="#490202"/>
<path d="M144.916 245.565C149.337 245.565 152.92 241.981 152.92 237.561C152.92 233.14 149.337 229.557 144.916 229.557C140.496 229.557 136.912 233.14 136.912 237.561C136.912 241.981 140.496 245.565 144.916 245.565Z" fill="#EFD5D5"/>
<path d="M144.915 240.267C146.409 240.267 147.62 239.055 147.62 237.561C147.62 236.067 146.409 234.855 144.915 234.855C143.42 234.855 142.209 236.067 142.209 237.561C142.209 239.055 143.42 240.267 144.915 240.267Z" fill="#890D04"/>
<path d="M262.495 226.682L262.326 229.5L263.397 228.936C263.904 228.654 264.017 227.922 263.566 227.527L262.495 226.682Z" fill="#B7211F"/>
<path d="M190.573 215.916H184.486C183.978 215.916 183.527 215.466 183.527 214.958C183.527 214.451 183.978 214 184.486 214H190.573C191.08 214 191.531 214.451 191.531 214.958C191.588 215.522 191.137 215.916 190.573 215.916Z" fill="#CDD8F3"/>
<path d="M74.3244 279.497H-6C-6 279.497 -3.51877 261.876 7.79393 259.353C7.79393 259.353 2.83148 231.513 14.775 231.302C26.7185 231.092 32.6903 252.834 32.6903 252.834C32.6903 252.834 41.9423 251.194 46.274 265.367C46.316 265.409 58.8063 258.301 74.3244 279.497Z" fill="#FF8F43"/>
<path d="M15.6524 241.913L14.8262 242.07L21.9939 279.621L22.8201 279.464L15.6524 241.913Z" fill="#CE2105"/>
<path d="M25.3169 237.938L19.752 267.617L20.5787 267.772L26.1436 238.093L25.3169 237.938Z" fill="#CE2105"/>
<path d="M3.63842 261.016L3.12695 261.684L21.3564 275.647L21.8678 274.979L3.63842 261.016Z" fill="#CE2105"/>
<path d="M38.6637 254.433L37.4355 279.51L38.2756 279.551L39.5038 254.474L38.6637 254.433Z" fill="#CE2105"/>
<path d="M59.7343 266.327L56.5879 279.412L57.4057 279.609L60.552 266.524L59.7343 266.327Z" fill="#CE2105"/>
<path d="M83.4695 177.703L83.4381 167.606C83.4381 167.26 83.3752 166.914 83.2494 166.6C82.6832 165.216 80.9218 161.158 77.9337 157.038C77.4619 156.377 76.6756 156 75.8578 156H44.9077C44.9077 156 36.4782 157.321 26.3817 164.838C25.847 165.247 25.1865 165.499 24.4945 165.562C20.8144 165.939 8.61055 167.543 8.42183 173.079L8.23308 173.142C7.44675 173.425 6.97498 174.18 7.00643 175.029C7.10079 176.633 7.38387 179.118 8.26456 179.527C9.0509 179.873 11.1583 180.439 12.7624 180.88C13.4229 181.037 14.0834 180.534 14.0834 179.842V178.678C14.0834 174.652 17.386 171.255 21.412 171.349C25.3123 171.412 28.4576 174.62 28.4576 178.521V180.597C28.4576 181.037 28.8036 181.383 29.2439 181.383H62.4901C63.0563 181.383 63.4967 180.943 63.4967 180.376V178.709C63.4967 174.683 66.7993 171.286 70.8253 171.381C74.7255 171.444 77.8708 174.652 77.8708 178.552V180.502C77.8708 181.005 78.2797 181.383 78.7515 181.383H82.8405C83.2808 181.383 83.7211 181.194 84.0042 180.848C84.5704 180.188 85.0737 178.521 83.4695 177.703Z" fill="#EA6206"/>
<path d="M77.8707 180.534V178.583C77.8707 174.652 74.7254 171.475 70.8252 171.412C70.6994 171.412 70.605 171.412 70.4792 171.412L70.0388 171.444C66.3903 171.79 63.4965 174.998 63.4965 178.741V180.408C63.4965 180.88 63.182 181.257 62.7417 181.383H78.5312C78.1538 181.32 77.8707 180.942 77.8707 180.534Z" fill="#0D0D0D"/>
<path d="M28.4578 180.627V178.551C28.4578 174.619 25.3125 171.443 21.4122 171.38C17.3862 171.317 14.0836 174.682 14.0836 178.708V179.872C14.0836 180.375 13.7691 180.753 13.3287 180.879L29.2441 181.413C28.8038 181.413 28.4578 181.067 28.4578 180.627Z" fill="#0D0D0D"/>
<path d="M21.3804 185.001C17.8367 185.001 14.9639 182.128 14.9639 178.584C14.9639 175.041 17.8367 172.168 21.3804 172.168C24.9241 172.168 27.7969 175.041 27.7969 178.584C27.7969 182.128 24.9241 185.001 21.3804 185.001Z" fill="#490202"/>
<path d="M21.38 182.64C19.1391 182.64 17.3225 180.824 17.3225 178.583C17.3225 176.342 19.1391 174.525 21.38 174.525C23.6209 174.525 25.4375 176.342 25.4375 178.583C25.4375 180.824 23.6209 182.64 21.38 182.64Z" fill="#EA6206"/>
<path d="M70.6362 185.001C67.0925 185.001 64.2198 182.128 64.2198 178.584C64.2198 175.041 67.0925 172.168 70.6362 172.168C74.18 172.168 77.0527 175.041 77.0527 178.584C77.0527 182.128 74.18 185.001 70.6362 185.001Z" fill="#490202"/>
<path d="M70.6359 182.64C68.395 182.64 66.5784 180.824 66.5784 178.583C66.5784 176.342 68.395 174.525 70.6359 174.525C72.8768 174.525 74.6934 176.342 74.6934 178.583C74.6934 180.824 72.8768 182.64 70.6359 182.64Z" fill="#EA6206"/>
<path d="M66.6094 157.92V164.399C66.6094 164.871 66.9868 165.217 67.4272 165.248L75.951 165.437C76.5172 165.437 76.926 164.902 76.7688 164.368L74.8816 157.668C74.7872 157.291 74.4412 157.039 74.0638 157.039H67.4272C66.9868 157.071 66.6094 157.448 66.6094 157.92Z" fill="#F9D1B7"/>
<path d="M14.1466 169.084C12.7312 169.115 10.498 169.493 9.58587 171.474C9.4286 171.82 9.71168 172.198 10.0577 172.166C11.2844 172.104 13.7063 171.789 14.8071 170.374C15.216 169.839 14.8071 169.084 14.1466 169.084Z" fill="#F9D1B7"/>
<path d="M7.9509 176.666L8.29688 178.364C8.39124 178.836 8.80012 179.182 9.30337 179.182C9.71227 179.182 10.0268 178.899 10.1212 178.522L10.5615 176.666C10.6244 176.351 10.4042 176.068 10.0897 176.068H8.39122C8.10814 176.068 7.88799 176.351 7.9509 176.666Z" fill="#2B4371"/>
<path d="M81.9907 168.141V171.192C81.9907 171.727 82.431 172.135 82.9343 172.135H83.4375V167.606C83.4375 167.48 83.4375 167.323 83.4061 167.197H82.9343C82.431 167.197 81.9907 167.638 81.9907 168.141Z" fill="#F9D1B7"/>
<path d="M28.771 164.651C31.6962 162.921 37.7038 159.115 43.1766 157.228C43.4283 157.133 44.6864 157.07 44.938 157.07H46.8567C47.5801 157.07 48.1777 157.668 48.1777 158.391V164.084C48.1777 164.713 47.6745 165.217 47.0454 165.217H28.9283C28.6137 165.217 28.4879 164.808 28.771 164.651Z" fill="#F9D1B7"/>
<path d="M49.8147 158.171V164.116C49.8147 164.713 50.318 165.217 50.9156 165.217H63.78C64.3776 165.217 64.8809 164.713 64.8809 164.116V158.171C64.8809 157.574 64.3776 157.07 63.78 157.07H50.9156C50.318 157.07 49.8147 157.574 49.8147 158.171Z" fill="#F9D1B7"/>
<path d="M29.2446 181.416H62.4908C63.057 181.416 63.4973 180.975 63.4973 180.409V178.742C63.4973 177.201 64.0006 175.723 64.8184 174.527H27.1687C27.955 175.691 28.4268 177.075 28.4268 178.585V180.661C28.4583 181.07 28.8043 181.416 29.2446 181.416Z" fill="#E83D0F"/>
<path d="M77.8707 178.585V180.535C77.8707 181.038 78.2796 181.416 78.7514 181.416H82.8403C83.2807 181.416 83.721 181.227 84.0041 180.881C84.6017 180.189 85.105 178.522 83.4694 177.704V174.527H76.6125C77.3989 175.66 77.8707 177.075 77.8707 178.585Z" fill="#E83D0F"/>
<path d="M8.26377 179.56C9.05011 179.906 11.1575 180.472 12.7616 180.912C13.4221 181.07 14.0826 180.567 14.0826 179.875V178.711C14.0826 177.107 14.6174 175.597 15.498 174.37L7.91776 173.301C7.32014 173.647 6.94273 174.307 7.00564 175.031C7.1 176.698 7.35163 179.183 8.26377 179.56Z" fill="#E83D0F"/>
</g>
<defs>
<clipPath id="clip0">
<rect width="360" height="280" fill="white"/>
</clipPath>
</defs>
</svg>
