<svg width="360" height="280" viewBox="0 0 360 280" fill="none" xmlns="http://www.w3.org/2000/svg">
<g clip-path="url(#clip0)">
<rect width="360" height="280" fill="#FFC2E5"/>
<path d="M-9.61017 65.7151C-9.58463 65.4951 -9.58463 65.22 -9.55908 65C41.4082 72.7566 92.3499 82.2735 143.138 94.4309C166.54 99.4919 188.306 97.0714 211.861 96.2463C235.927 95.4211 268 96.2463 301.5 94.4309C337 99 341.898 101.692 370 106.863V156.483L-8.58827 156.428C-9.48244 137.725 -10.6065 84.4189 -9.61017 65.7151Z" fill="#F777B7"/>
<path d="M60.1115 72.1309C57.6392 68.883 57.2999 63.4052 58.5603 60.5935C59.8207 57.7819 65.1046 57.6365 65.1046 57.6365C65.1046 57.6365 64.329 45.8082 71.6489 47.0686C78.9688 48.329 75.3815 65.2957 75.3815 65.2957C75.3815 65.2957 82.7015 67.3318 82.4106 75.7182C82.1198 84.1046 77.4176 85.7043 77.4176 85.7043C77.4176 85.7043 85.6586 89.7278 83.1863 99.5685C81.5381 106.016 77.7569 112.512 70.3885 113.093C65.7833 113.433 61.178 111.3 58.124 107.81C55.3608 104.61 53.3733 100.247 53.6157 95.8843C53.8096 91.7638 56.4273 88.4675 58.8996 85.4134C58.9965 85.3165 59.045 85.2195 59.045 85.0741C59.045 84.9287 58.9481 84.7832 58.8511 84.6863C57.5907 83.329 55.5062 83.0866 55.5062 79.2085C55.6032 73.6822 60.3539 72.4702 60.1115 72.1309Z" fill="#5EA7EF"/>
<path d="M79.2129 91.0382L73.4927 96.9524L73.3472 97.0978L73.1533 90.9413L72.814 97.6795L70.0024 100.637L69.5661 81.4399L76.983 72.5687L73.3957 76.2529L73.2988 72.6172L72.814 76.8347L69.5176 80.1795L69.1298 61.8555V77.7557V86.433L65.688 82.7003L65.2032 77.0286L65.2517 82.1671L61.1797 77.7557L69.1298 87.8388V137.818L70.8265 138.109L70.0024 101.461L79.2129 91.0382Z" fill="#FFEBF5"/>
<path d="M54.3463 89.6318C54.2009 89.4864 54.1039 89.341 53.9585 89.1955C52.2134 87.2565 48.1898 84.3964 48.5292 81.7302C48.8685 79.3064 50.5167 76.7371 51.0015 74.2164C52.0679 69.1263 51.7286 63.3092 47.5597 59.625C46.4447 58.607 44.748 57.7344 43.9239 56.4255C43.0514 54.9712 43.5361 54.2441 43.7785 52.6928C44.2632 49.4449 43.8754 45.7607 41.694 43.1915C37.7189 38.4408 32.5804 39.0225 32.5804 39.0225C32.5804 39.0225 25.212 38.6347 23.8547 45.8577C22.5458 53.0807 24.0486 54.0017 24.0486 54.0017C24.0486 54.0017 16.4863 58.9463 15.7106 67.4297C14.935 75.9615 17.2134 78.7731 18.7647 81.4393C18.7647 81.4393 15.3713 86.9172 14.014 90.6983C12.7051 94.4795 12.3173 100.733 14.9835 104.708C17.989 109.216 23.8062 110.816 28.9447 111.107C36.4101 111.543 45.2328 112.27 52.1649 108.877C56.2369 106.889 59.6302 102.672 59.1455 98.1152C58.8546 94.9158 56.6247 92.1526 54.3463 89.6318Z" fill="#A81E63"/>
<path d="M49.403 92.9284L38.9322 96.2248L41.6953 90.3106L38.205 96.4671L33.6482 97.9214V95.3522L33.7937 45.373L33.2605 74.1195L30.1095 71.5503L29.4308 65.8786L29.5277 71.0655L23.6621 66.2179L33.2605 75.0406L32 144.022L33.5513 144.216L33.6482 98.8425L49.403 92.9284Z" fill="#F9BDD4"/>
<path d="M166.618 60.2077C167.878 59.8199 169.187 59.7715 170.399 60.2077C174.568 61.7105 174.277 67.7216 174.519 71.6482C177.186 71.7451 179.27 72.6662 179.949 75.8656C180.288 77.5138 179.609 79.6952 179.076 81.4889C179.076 81.4889 180.87 83.4279 181.645 84.9307C182.906 87.3545 182.421 90.5055 180.967 92.7839C179.076 95.7409 175.877 97.1952 172.823 98.0678C164.921 100.298 153.238 99.4251 151.396 88.421C150.766 84.6398 152.947 82.6038 155.856 81.4889C155.953 81.4404 156.098 81.3919 156.147 81.295C156.195 81.1495 156.195 81.0041 156.147 80.8587C155.905 79.6952 155.468 78.5803 155.323 77.4169C155.177 76.011 155.614 74.5567 156.389 73.4418C157.601 71.7936 159.298 71.5997 161.043 71.3573C161.188 71.3573 161.14 66.6066 161.237 66.0734C161.625 63.9889 163.079 62.1953 164.727 61.1288C165.309 60.6925 165.939 60.4016 166.618 60.2077Z" fill="#5EA7EF"/>
<path d="M157.453 87.0147L167.536 91.5715L168.021 66.7031L167.972 80.6158L173.256 77.3195L167.972 81.2945L167.779 125.069H166.809L167.488 92.2502L157.453 87.0147Z" fill="#8E1B5A"/>
<path d="M119.103 53.1281C118.133 53.2736 117.115 53.7583 116.048 54.6794C110.328 59.527 107.807 68.5436 105.917 74.8455C103.687 82.3109 102.814 90.0671 104.511 97.5325C105.917 103.834 110.086 109.361 118.521 109.652C130.349 110.039 134.566 100.586 135.148 92.5394C135.73 84.4439 134.566 76.2998 131.706 68.5921C130.301 64.9564 125.986 51.9647 119.103 53.1281Z" fill="#C41C60"/>
<path d="M125.985 91.2786L120.508 95.8354L120.168 74.118L123.707 70.4337L120.168 73.6332L119.974 60.4961L119.78 84.201L114.012 76.5418L119.78 85.6069L119.344 140.579L121.186 140.531L120.508 97.0958L125.985 91.2786Z" fill="#FFEBF5"/>
<path d="M68.7449 82.5039C67.4845 75.6687 67.9693 71.1604 73.3986 66.1673C76.7435 63.0649 81.3003 63.3072 84.5967 66.3612C84.839 59.2837 90.5593 51.382 98.267 52.1092C104.617 52.6909 107.284 60.0593 108.253 65.5371C113.44 63.4527 116.737 65.2463 117.658 70.7726C126.82 68.4457 135.061 76.9776 133.025 86.0911C132.055 90.5025 128.322 93.2172 123.96 93.508C120.518 93.7504 120.227 93.0717 117.948 91.2781C118.966 95.9318 104.278 96.6105 101.951 92.4415C96.8127 95.0108 91.5773 98.598 85.4693 96.9983C83.3848 96.4651 81.5911 95.2532 79.9914 93.8473C79.5551 93.508 75.7255 89.5814 75.6285 89.5814C73.2047 90.7449 70.8294 90.7933 68.6965 88.8058C66.7089 86.9152 66.515 84.2006 68.7449 82.5039Z" fill="#F777B7"/>
<path d="M110.33 86.286L122.352 84.6378L111.057 85.5104L120.074 75.8636L108.149 87.7403L107.47 79.7902V88.419L97.1447 98.6959L96.6599 70.6766L101.701 64.4232L96.6599 70.0949L96.466 61.3691V89.34L81.6322 77.124L85.7527 80.8566L79.9355 84.153L86.0436 81.099L96.466 90.455L96.4175 146.785L98.0173 146.978L97.1931 100.393L110.33 86.286Z" fill="#8E1B5A"/>
<path d="M374 116.654C374 116.533 299.023 104.675 292.386 104.191C260.498 101.892 228.583 102.921 196.747 107.277C133.462 115.988 70.6963 135.53 7.25631 139.28C-0.754704 139.764 -8.76568 140.067 -16.7767 140.248C-20.6137 140.309 -24.4766 140.248 -28.3136 140.369C-31.5802 140.49 -32.0988 139.22 -33.1358 145.028C-35.0802 155.918 -33.1358 178.423 -33.1358 190.099C-33.1358 220.046 -33.1358 249.993 -33.1358 279.94V280H363.889C363.889 280 374 116.775 374 116.654Z" fill="#A81E63"/>
<path d="M-17.2476 138.113C-17.0587 136.075 -14.1863 134.796 -12.6746 135.995C-13.2415 130.201 -6.40086 127.844 -3.11282 131.68C-2.43253 126.605 1.1201 124.208 4.14358 128.363C3.95462 123.529 9.77482 117.255 14.1967 117.016C21.1129 116.616 21.1885 123.968 22.6246 129.162C22.8514 127.804 25.0434 125.007 26.7063 125.646C28.3693 126.326 28.5582 129.682 29.2763 131.2C30.1078 128.243 35.9658 126.326 36.3437 130.481C37.7043 127.484 39.1026 127.924 41.3324 130.042C41.9749 130.641 44.0914 134.197 44.6583 134.357C45.4142 134.597 45.8677 133.957 46.7747 133.678C51.3856 132.239 59.2844 131.76 58.3774 139.112C57.8105 143.747 56.2987 144.586 52.595 144.945C49.6093 145.225 44.3181 147.902 42.8064 143.946C39.2538 148.142 33.0179 144.826 29.5786 142.668C29.4275 148.022 13.3274 147.862 11.5133 143.507C11.4755 144.546 9.88819 145.665 8.75438 145.465C7.58278 145.265 6.67572 143.427 5.80646 142.668C5.5797 149.301 -2.01681 148.102 -4.77574 144.706C-6.28749 142.868 -5.75834 142.188 -8.70624 142.628C-10.5959 142.908 -16.7941 144.706 -16.7941 141.229C-17.6633 141.429 -21.6317 141.469 -20.9136 139.232C-20.5357 138.313 -18.0035 138.672 -17.2476 138.113Z" fill="#C41C60"/>
<path d="M23.8743 141.95C23.8365 140.312 23.4964 137.435 25.4994 136.876C26.9734 136.436 27.2001 137.835 28.2583 138.794C29.5055 136.916 31.5464 134.119 34.1919 135.078C36.1194 135.797 36.7241 138.873 37.5934 140.632C41.2971 135.397 44.0939 137.435 44.8119 142.909C44.8497 142.749 44.8119 142.43 44.8119 142.27C50.0652 139.633 51.6148 144.268 51.7281 148.783C49.914 149.782 46.3993 151.14 45.2277 148.343C43.6781 149.462 41.7506 150.581 39.7854 150.86C37.48 151.22 36.8375 149.822 34.9856 149.342C32.4912 148.663 29.1276 151.979 26.0285 151.62C23.2696 151.3 21.1531 149.582 20.5106 146.545C17.1092 147.944 13.2165 150.101 13.6322 143.988C14.9172 143.628 16.2778 143.349 17.6383 143.429C17.5627 141.111 18.432 140.552 20.3217 139.912C21.5311 139.513 24.2522 138.554 23.8743 141.95Z" fill="#5EA7EF"/>
<path d="M311.319 91.9061C311.255 89.6713 310.775 85.7444 313.528 84.9463C315.514 84.3716 315.834 86.2552 317.242 87.5642C318.939 85.0101 321.693 81.1471 325.279 82.488C327.904 83.4777 328.737 87.66 329.889 90.0544C334.916 82.903 338.726 85.6806 339.687 93.1831C339.719 92.9596 339.719 92.5446 339.719 92.3211C346.858 88.7135 348.94 95.0668 349.1 101.228C346.602 102.569 341.832 104.421 340.263 100.59C338.15 102.09 335.556 103.655 332.867 104.038C329.697 104.517 328.865 102.633 326.335 101.931C322.942 101.005 318.395 105.57 314.201 105.06C310.487 104.613 307.573 102.25 306.709 98.1316C302.066 100.015 296.815 103.016 297.36 94.6517C299.121 94.1409 300.946 93.7897 302.803 93.8855C302.707 90.7248 303.891 89.9905 306.421 89.0966C308.118 88.5539 311.864 87.2768 311.319 91.9061Z" fill="#5B0434"/>
<path d="M278.246 72.0159C278.246 74.985 281.544 77.3794 285.578 77.3794C288.108 77.3794 290.349 76.4536 291.661 75.0169C291.918 74.7296 294.447 74.6338 294.159 74.4423C293.679 74.0911 292.686 73.4526 292.782 73.1014C292.878 72.7502 292.942 72.399 292.942 72.0159C292.942 69.0468 289.644 66.6523 285.61 66.6523C281.544 66.6843 278.246 69.0787 278.246 72.0159Z" fill="#FFEBF5"/>
<path d="M304.98 78.9119C305.46 78.3691 305.748 77.6987 305.716 76.9644C305.556 74.8254 302.547 75.2723 301.97 76.3578C301.394 77.4433 301.458 80.1889 302.227 80.4124C302.515 80.4762 303.155 80.2847 303.827 79.9016L303.411 82.8068H305.812L304.98 78.9119Z" fill="#3D0220"/>
<path d="M303.028 76.4865C303.348 76.678 303.604 77.0292 303.86 77.4762C303.924 77.4442 303.988 77.4442 304.084 77.4442C304.405 77.4442 304.693 77.6996 304.693 78.0508C304.693 78.2105 304.629 78.3701 304.501 78.4978C304.629 78.6893 304.789 78.9128 304.981 79.1044C305.653 78.6893 306.166 77.54 305.525 76.3907C304.981 74.1239 301.843 75.5287 301.235 75.1456C301.139 75.9756 301.555 76.6142 303.028 76.4865Z" fill="#770649"/>
<path d="M307.189 96.1836H299.377L298.352 108.667H309.975L307.189 96.1836Z" fill="#F9BDD4"/>
<path d="M307.189 96.1836H304.788L303.347 108.667H309.975L307.189 96.1836Z" fill="#FDA5C4"/>
<path d="M287.274 108.763C289.259 106.336 290.604 104.549 291.308 103.367C292.525 101.356 293.486 99.5681 293.806 98.8977C294.542 97.2695 292.109 96.5033 291.533 97.2695C290.7 98.4188 288.907 102.026 286.154 108.092L287.274 108.763Z" fill="#3D0220"/>
<path d="M291.372 108.061L295.086 98.7705C295.887 97.0785 292.044 95.9611 291.468 96.7592C290.155 98.547 287.018 105.603 286.602 106.145L291.372 108.061Z" fill="#770649"/>
<path d="M301.219 106.176C300.488 105.123 297.876 101.603 296.437 100.136C296.025 99.7292 295.637 99.3026 295.245 98.9209C294.133 97.8055 291.865 99.6778 292.986 100.704C295.792 103.245 299.872 106.647 300.204 106.955C300.727 107.395 301.673 106.837 301.219 106.176Z" fill="#3D0220"/>
<path d="M301.049 105.73C301.304 105.915 301.444 106.093 301.524 106.231C301.621 106.397 301.721 106.634 301.842 106.971C301.648 107.082 300.012 108.024 296.908 109.811C296.529 109.475 296.467 109.178 296.729 108.991C296.99 108.804 297.196 108.649 297.374 108.509L299.081 106.161C299.121 106.102 299.165 106.113 299.224 106.153L299.571 106.433C299.885 106.4 300.139 106.327 300.277 106.248C300.416 106.168 300.55 106.017 300.708 105.779C300.83 105.671 300.957 105.635 301.049 105.73C301.049 105.73 301.033 105.702 301.049 105.73Z" fill="#E4E4E4"/>
<path d="M288.139 108.412C288.267 108.699 288.299 108.923 288.299 109.083C288.299 109.274 288.267 109.529 288.203 109.881C287.979 109.881 286.09 109.881 282.504 109.881C282.344 109.402 282.44 109.114 282.76 109.083C283.08 109.051 283.336 109.019 283.56 108.987L286.218 107.805C286.282 107.774 286.314 107.805 286.346 107.869L286.506 108.284C286.794 108.412 287.05 108.476 287.21 108.476C287.37 108.476 287.562 108.412 287.819 108.284C287.947 108.252 288.075 108.284 288.139 108.412C288.139 108.38 288.139 108.38 288.139 108.412Z" fill="#E4E4E4"/>
<path d="M296.399 99.2167C299.473 98.7059 301.554 98.3867 302.579 98.1951C305.556 97.6843 306.421 96.0561 305.908 92.5762H300.401C299.665 92.7997 296.623 94.0767 291.276 96.4711C290.316 96.95 290.508 98.3548 290.668 98.8017C290.668 98.8336 292.301 101.579 295.535 107.102L300.017 104.261L296.335 99.536C296.303 99.3445 296.303 99.2487 296.399 99.2167Z" fill="#8E1B5A"/>
<path d="M297.807 81.4029L293.965 80.2536C293.261 79.7109 292.589 79.2958 291.948 79.0404C291.756 79.0085 291.468 79.0404 291.852 79.4555C292.236 79.8705 292.621 80.3494 292.493 80.5409C292.397 80.7325 291.98 80.5729 291.884 80.8602C291.82 81.0518 292.461 81.1795 293.869 81.2752L296.847 83.0312L297.807 81.4029ZM298.128 88.1074L294.894 90.4699C294.029 90.6934 293.293 91.0126 292.717 91.3319C292.589 91.4596 292.397 91.715 292.973 91.6831C293.549 91.6511 294.158 91.6192 294.222 91.8108C294.286 92.0023 293.965 92.2258 294.125 92.5131C294.222 92.7047 294.734 92.2577 295.63 91.2042L298.832 89.8952L298.128 88.1074Z" fill="#3D0220"/>
<path d="M303.155 81.7547C301.394 85.0111 298.865 87.5013 295.183 90.1192L296.56 91.6836C300.658 90.1512 302.835 89.2572 303.892 86.1604C304.148 85.3942 304.34 82.9359 304.5 81.627L303.155 81.7547Z" fill="#A81E63"/>
<path d="M308.055 92.6411H300.275C302.035 87.2775 302.932 83.6061 302.964 81.6267C302.964 81.5309 303.156 81.3393 303.252 81.3712C303.86 81.5309 304.501 81.467 305.205 81.1797C307.03 84.1169 307.67 87.7564 308.055 92.6411Z" fill="#F2F2F2"/>
<path d="M304.532 81.1485C302.291 81.1804 298.673 81.5635 294.511 80.2227L294.094 82.2659C297.232 84.2772 300.434 85.8416 303.219 85.6181C302.003 90.822 302.067 95.0682 304.756 95.0682C306.037 95.0682 307.413 95.0682 308.886 95.0682C309.559 90.6624 307.83 84.5326 306.197 81.4678C306.133 81.3401 306.005 81.1166 305.685 81.1166C305.492 81.1485 305.076 81.1485 304.532 81.1485Z" fill="#C41C60"/>
<path d="M258.172 76.2946C258.172 78.0824 259.325 79.6787 261.086 80.6684C261.502 80.8919 261.214 82.2647 261.31 82.5201C261.374 82.7436 262.879 81.4027 263.135 81.4666C263.807 81.6262 264.544 81.722 265.312 81.722C269.25 81.722 272.42 79.2956 272.42 76.2946C272.42 73.2936 269.25 70.8672 265.312 70.8672C261.374 70.8672 258.172 73.2936 258.172 76.2946Z" fill="#FFEBF5"/>
<path d="M250.905 103.336H257.948L258.877 114.606H248.407L250.905 103.336Z" fill="#F9BDD4"/>
<path d="M250.905 103.336H253.083L254.363 114.606H248.408L250.905 103.336Z" fill="#FDA5C4"/>
<path d="M265.697 113.392C264.737 107.454 263.904 103.527 263.456 102.345C263.136 101.547 260.831 101.643 261.087 103.239C261.183 103.91 261.631 105.698 262.207 107.709C262.56 108.89 263.392 111.125 264.545 113.711L265.697 113.392ZM251.354 106.719C251.77 106.655 256.572 106.177 259.934 105.666C261.279 105.474 260.574 102.92 259.166 103.207C258.685 103.303 258.173 103.399 257.661 103.495C255.836 103.878 252.09 105.187 251.033 105.602C250.361 105.889 250.777 106.783 251.354 106.719Z" fill="#8E1B5A"/>
<path d="M260.029 102.505L254.234 99.5682V98.9297H254.906C260.509 100.366 263.391 101.26 263.519 101.675C264.639 103.208 265.312 110.646 265.504 111.189L263.359 111.508C262.558 108.507 259.933 106.4 259.997 102.793C260.029 102.697 260.029 102.601 260.029 102.505Z" fill="#8E1B5A"/>
<path d="M254.714 104.261C254.17 104.166 253.69 104.07 253.274 103.974C250.584 103.495 249.784 102.058 250.264 98.9297H255.227C256.027 99.1532 260.253 100.941 262.463 101.867C263.903 102.473 263.455 104.74 262.623 105.315C262.623 105.347 262.591 105.379 262.591 105.379C258.172 107.198 254.682 106.241 253.498 106.56L252.953 104.868L254.714 104.261Z" fill="#C41C60"/>
<path d="M251.397 105.35C251.097 105.382 250.897 105.427 250.769 105.471C250.626 105.544 250.427 105.66 250.157 105.849C250.244 106.033 250.988 107.568 252.418 110.466C252.876 110.404 253.045 110.203 252.957 109.947C252.869 109.69 252.781 109.434 252.722 109.264L252.641 106.665C252.626 106.622 252.611 106.58 252.54 106.58L252.139 106.599C251.908 106.416 251.778 106.246 251.676 106.09C251.632 105.962 251.587 105.762 251.571 105.505C251.57 105.434 251.498 105.363 251.397 105.35Z" fill="#E4E4E4"/>
<path d="M264.032 113.232C263.936 113.519 263.872 113.711 263.872 113.838C263.872 113.998 263.904 114.253 263.968 114.541C264.16 114.541 265.889 114.541 269.123 114.541C269.251 114.094 269.187 113.87 268.899 113.838C268.61 113.806 268.386 113.774 268.194 113.743L265.793 112.689C265.761 112.657 265.697 112.689 265.665 112.721L265.505 113.104C265.249 113.232 265.024 113.296 264.864 113.296C264.736 113.296 264.544 113.232 264.288 113.136C264.192 113.104 264.096 113.136 264.032 113.232Z" fill="#E4E4E4"/>
<path d="M253.625 85.7445C253.209 85.2656 252.921 84.659 252.953 83.9886C253.081 82.0411 255.802 82.4561 256.347 83.4458C256.891 84.4355 256.827 86.9257 256.122 87.0854C255.834 87.1492 255.258 86.9896 254.682 86.6384L255.066 89.2563H252.889L253.625 85.7445Z" fill="#8E1B5A"/>
<path d="M256.538 83.8932C256.506 83.7654 256.474 83.6377 256.41 83.51C256.346 83.3504 256.282 83.2227 256.186 83.095C256.026 82.8396 255.802 82.6161 255.578 82.4246C255.162 82.0734 254.617 81.8818 254.105 81.9457C253.849 81.9776 253.593 82.0734 253.369 82.233C253.176 82.3926 252.984 82.6161 252.728 82.6161C252.44 82.648 252.184 82.3926 251.96 82.233C251.704 82.0734 251.448 81.9457 251.159 81.8818C250.679 81.7861 250.199 81.9776 249.879 82.3607C249.527 82.7758 249.27 83.4143 249.494 83.9889C249.526 84.0847 249.591 84.1805 249.687 84.2443C249.751 84.3082 249.879 84.372 249.911 84.4997C249.943 84.6275 249.847 84.7552 249.815 84.8509C249.751 85.0106 249.719 85.1702 249.719 85.3298C249.751 85.5852 249.911 85.8406 250.103 86.0322C250.295 86.2237 250.519 86.3195 250.743 86.3514C250.903 86.3834 251.063 86.4153 251.223 86.3834C251.287 86.3834 251.384 86.3514 251.448 86.3514C251.512 86.3195 251.576 86.3514 251.64 86.3834C251.928 86.5749 252.248 86.6388 252.6 86.6068C252.888 86.5749 253.208 86.5111 253.465 86.3195C253.721 86.096 253.721 85.8087 253.657 85.4894C253.721 85.5214 253.913 85.5533 253.785 85.4256C253.753 85.3617 253.657 85.3617 253.593 85.3298C253.529 85.2979 253.465 85.266 253.401 85.2021C253.208 84.9786 253.401 84.4997 253.657 84.4359C254.041 84.3082 254.105 84.8509 254.393 84.9786C254.553 85.0425 254.713 84.9467 254.809 84.8509C254.969 84.6913 255.065 84.4997 255.162 84.3082C255.226 84.1486 255.29 83.9889 255.386 83.8293C255.418 83.7655 255.546 83.542 255.482 83.4462C255.738 83.3823 256.058 83.51 256.282 83.6378C256.378 83.7016 256.442 83.7655 256.506 83.8612C256.506 83.8932 256.538 83.957 256.57 83.957C256.57 83.9889 256.57 83.9251 256.538 83.8932Z" fill="#3D0220"/>
<path d="M252.474 87.661C252.506 87.5971 252.506 87.5333 252.538 87.4375L252.634 87.4694L252.666 87.4375L255.227 87.8206C255.227 89.2573 256.38 90.5982 257.084 91.7475C258.205 93.5353 260.222 95.5147 258.909 98.1965C257.757 100.591 254.747 100.974 249.88 99.3778C249.88 98.1007 250.937 96.7918 250.969 95.2274C251.033 93.7269 251.321 89.1934 252.474 87.661Z" fill="#5B0434"/>
<path d="M256.988 98.5468C257.212 98.8022 257.756 99.5365 258.108 99.4726C258.845 99.313 259.261 98.2914 259.101 97.8763C259.005 97.7805 258.716 98.1317 258.332 98.0998C258.108 98.0679 257.34 97.3017 255.963 95.7692C255.899 96.0565 255.803 96.6631 255.643 97.5251C256.443 98.0998 256.892 98.451 256.988 98.5468ZM258.044 93.279C258.044 93.5344 257.084 93.694 257.084 94.0771C257.084 94.4283 258.492 94.9711 258.813 94.9711C259.133 94.9711 258.941 93.5983 258.749 93.279C258.556 92.9597 258.364 92.832 258.012 92.832C257.66 92.832 258.044 93.0236 258.044 93.279Z" fill="#8E1B5A"/>
<path d="M254.939 98.8676C254.907 98.9314 254.907 99.0272 254.875 99.091C250.873 96.3135 250.873 92.9294 252.058 89.1621C251.161 92.8655 251.546 96.0262 254.939 98.8676Z" fill="black" fill-opacity="0.2"/>
<path d="M322.526 75.9116C322.526 77.6356 323.743 79.1681 325.664 80.1258C326.112 80.3493 325.824 81.6583 325.888 81.9137C325.984 82.1372 327.585 80.8601 327.841 80.8921C328.577 81.0517 329.378 81.1475 330.178 81.1475C334.404 81.1475 337.83 78.8169 337.83 75.9116C337.83 73.0064 334.404 70.6758 330.178 70.6758C325.952 70.6758 322.526 73.0383 322.526 75.9116Z" fill="#FFEBF5"/>
<path d="M323.423 103.303H316.251L315.323 114.764H325.984L323.423 103.303Z" fill="#F9BDD4"/>
<path d="M323.423 103.303H321.214L319.901 114.764H325.984L323.423 103.303Z" fill="#FDA5C4"/>
<path d="M308.086 101.324C307.318 100.877 306.037 101.451 306.037 102.122C306.037 104.069 307.83 113.296 307.926 113.871C308.022 114.445 309.014 114.605 309.078 113.871C309.175 112.689 309.335 108.667 309.175 106.783C309.11 106.017 309.014 105.282 308.95 104.612C309.879 106.304 311.352 108.73 313.305 111.891L314.361 111.412C313.529 108.667 312.824 106.719 312.312 105.57C311.384 103.622 310.519 101.962 310.167 101.388C309.623 100.462 308.63 100.781 308.086 101.324Z" fill="#F9D2E1"/>
<path d="M314.299 109.88L310.649 101.228C309.784 99.8234 307.319 101.515 307.607 102.346C308.28 104.197 311.737 110.199 311.93 110.742L314.299 109.88Z" fill="#5B0434"/>
<path d="M314.512 110.859C314.739 111.06 314.891 111.194 314.955 111.305C315.035 111.443 315.136 111.681 315.241 111.989C315.074 112.085 313.577 112.946 310.722 114.59C310.387 114.266 310.314 114.013 310.548 113.842C310.781 113.67 310.987 113.515 311.137 113.392L312.699 111.238C312.711 111.195 312.782 111.19 312.826 111.202L313.157 111.454C313.443 111.437 313.669 111.381 313.835 111.285C313.946 111.222 314.08 111.071 314.254 110.86C314.293 110.8 314.42 110.764 314.512 110.859C314.512 110.859 314.496 110.831 314.512 110.859Z" fill="#5B0434"/>
<path d="M309.336 113.393C309.432 113.68 309.496 113.871 309.496 113.999C309.496 114.159 309.464 114.414 309.4 114.733C309.208 114.733 307.479 114.733 304.181 114.733C304.053 114.287 304.117 114.031 304.405 113.999C304.694 113.967 304.95 113.935 305.142 113.903L307.575 112.818C307.607 112.786 307.671 112.818 307.703 112.85L307.863 113.233C308.119 113.361 308.343 113.425 308.536 113.425C308.664 113.425 308.856 113.361 309.112 113.265C309.176 113.265 309.272 113.297 309.336 113.393C309.336 113.393 309.304 113.393 309.336 113.393Z" fill="#5B0434"/>
<path d="M305.782 102.792C305.782 105.251 306.966 110.965 306.966 111.508H309.496C309.143 106.4 308.983 103.814 309.111 103.75C309.271 103.654 315.707 104.389 317.628 104.389C320.413 104.389 321.566 102.633 321.662 99.4082H316.155C315.035 99.5359 309.175 100.717 307.03 101.1C306.038 101.292 305.782 102.09 305.782 102.792Z" fill="#770649"/>
<path d="M318.907 87.7862C319.324 87.2754 319.612 86.6688 319.58 85.9984C319.452 84.019 316.666 84.4659 316.154 85.4556C315.61 86.4453 315.674 88.9994 316.378 89.159C316.666 89.2229 317.242 89.0632 317.851 88.6801L317.467 91.33H319.676L318.907 87.7862Z" fill="#F9D2E1"/>
<path d="M318.14 87.6594C318.428 88.2021 318.812 88.5852 319.164 88.5852C319.901 88.5852 320.413 87.6275 320.413 86.5739C320.413 86.542 320.413 86.51 320.413 86.4781C321.182 86.9889 321.758 88.0425 322.782 88.0425C324.159 88.0425 324.703 85.2649 322.782 85.2649C321.47 85.2649 320.829 85.4565 320.285 85.7438C320.189 85.4246 319.997 85.1692 319.805 85.0095C319.741 84.9457 319.677 84.9137 319.581 84.8499C319.517 84.818 319.453 84.786 319.389 84.786C319.068 84.6583 318.556 84.5626 318.012 84.5626C317.916 84.5626 317.82 84.5626 317.724 84.5626C317.724 84.0518 317.307 83.6367 316.795 83.6367C316.283 83.6367 315.867 84.0518 315.867 84.5626C315.867 85.0415 316.251 85.4565 316.731 85.4884C317.019 85.5842 317.371 85.648 317.756 85.68C317.724 85.8396 317.692 85.9992 317.692 86.1908C317.692 86.3504 317.724 86.542 317.756 86.7016C317.852 86.6058 317.948 86.542 318.076 86.542C318.396 86.542 318.62 86.7974 318.62 87.0847C318.652 87.372 318.428 87.6275 318.14 87.6594Z" fill="#DD1D69"/>
<path d="M312.248 96.8248L308.886 95.3562C308.31 94.7815 307.734 94.3345 307.189 94.0153C307.029 93.9514 306.741 93.9514 307.029 94.3665C307.317 94.8134 307.638 95.2604 307.51 95.42C307.381 95.5797 307.029 95.42 306.901 95.6435C306.805 95.8031 307.381 95.9947 308.662 96.2501L311.192 98.1656L312.248 96.8248ZM325.823 97.2079L323.934 97.591C325.855 101.135 326.88 103.018 327.008 103.242C327.328 103.721 327.04 104.615 326.912 105.062C327.584 105.221 327.328 104.2 328.161 104.423C328.929 104.615 329.601 105.125 330.338 104.455C330.434 104.359 330.498 104.104 330.178 103.976C329.409 103.657 328.289 103.05 328.129 102.795C327.905 102.444 327.136 100.592 325.823 97.2079Z" fill="#F9D2E1"/>
<path d="M318.78 90.1511L317.98 90.0234C316.219 91.7155 315.514 95.7701 314.362 96.3128C313.273 96.8236 311.704 96.3448 309.847 95.6743L309.271 96.9513C310.968 98.7711 314.554 100.304 315.995 99.4416C318.332 97.973 318.844 92.9606 318.78 90.1511Z" fill="#FC90CC"/>
<path d="M322.27 100.176C319.068 100.176 316.699 100.176 315.194 100.176C314.874 100.176 314.938 99.6973 314.97 99.4738C315.514 96.7601 317.627 93.8229 317.627 89.9599L319.676 89.6406C321.341 92.3543 321.917 95.7065 322.27 100.176Z" fill="#DDE3E9"/>
<path d="M322.973 97.4305C324.414 100.017 325.63 101.9 326.623 103.049L328.096 102.762C327.135 96.8559 324.382 92.482 319.771 89.6406H319.739H318.939C317.114 95.8662 316.602 100.048 317.434 102.124H323.805C323.741 100.591 323.421 98.9949 322.973 97.4305Z" fill="#FDA5C4"/>
<path d="M237.424 108.156C239.281 108.635 240.914 108.891 242.259 108.891C243.604 108.891 244.884 108.508 246.037 107.773C244.212 107.294 242.707 107.039 241.523 107.039C240.338 107.039 238.961 107.422 237.424 108.156Z" fill="#3581EF"/>
<path d="M243.731 108.828C243.699 108.796 243.699 108.764 243.667 108.764C243.411 108.189 239.121 102.028 238.705 100.91H243.539C243.859 101.772 245.332 107.136 245.524 108.221C246.165 109.913 247.509 115.404 247.67 115.756C247.862 116.171 246.837 116.586 246.581 116.075C246.165 115.309 245.14 113.138 244.692 111.829C244.244 110.552 243.891 109.466 243.731 108.828Z" fill="#8E1B5A"/>
<path d="M240.178 109.978C238.481 110.393 232.333 111.159 231.917 111.255C231.469 111.383 231.117 110.489 231.629 110.297C232.494 110.01 234.831 109.307 236.272 109.02C237.424 108.797 238.481 108.605 239.185 108.477C239.121 106.53 238.865 101.869 239.025 100.879H242.707C242.547 101.837 241.074 108.892 240.818 109.595C240.722 109.85 240.466 109.946 240.178 109.978Z" fill="#8E1B5A"/>
<path d="M231.686 110.082C231.465 110.043 231.308 110.015 231.202 110.062C231.07 110.071 230.896 110.138 230.653 110.225C230.694 110.361 230.918 111.665 231.356 114.142C231.708 114.171 231.883 114.104 231.89 113.879C231.866 113.648 231.868 113.453 231.859 113.322L232.367 111.369C232.373 111.337 232.347 111.3 232.316 111.295L232 111.239C231.871 111.054 231.799 110.912 231.758 110.775C231.743 110.675 231.771 110.518 231.804 110.329C231.832 110.172 231.78 110.098 231.686 110.082Z" fill="#E4E4E4"/>
<path d="M246.261 116.011C246.165 116.202 246.133 116.362 246.133 116.458C246.133 116.585 246.165 116.745 246.197 117C246.357 117 247.926 117 250.904 117C251.032 116.681 250.968 116.49 250.68 116.458C250.424 116.426 250.2 116.394 250.039 116.394L247.862 115.596C247.83 115.596 247.766 115.596 247.766 115.628L247.638 115.915C247.382 116.011 247.19 116.043 247.03 116.043C246.902 116.043 246.742 116.011 246.518 115.915C246.389 115.883 246.293 115.915 246.261 116.011C246.261 116.011 246.261 115.979 246.261 116.011Z" fill="#E4E4E4"/>
<path d="M238.961 101.165C240.721 100.718 242.386 100.718 243.955 101.165C244.5 103.464 245.812 104.358 246.068 107.87C243.411 109.083 240.145 107.008 237.424 108.189C236.623 106.529 237.712 102.538 238.961 101.165Z" fill="#5EA7EF"/>
<path d="M241.01 93.0571C240.626 92.5782 240.338 92.0354 240.402 91.3969C240.53 89.5452 243.092 89.9602 243.604 90.8861C244.116 91.8119 244.052 94.1745 243.412 94.3341C243.156 94.3979 242.611 94.2383 242.035 93.8871L242.387 96.3454H240.306L241.01 93.0571Z" fill="#8E1B5A"/>
<path d="M242.77 89.8636C242.482 89.7679 242.066 89.7359 241.906 89.7679C242.002 89.5444 242.034 89.2571 242.002 89.0016C241.97 88.7462 241.874 88.5547 241.746 88.3312C241.714 88.2354 241.65 88.1396 241.554 88.0439C241.458 87.98 241.362 87.9162 241.266 87.8842C241.17 87.8523 241.041 87.8523 240.913 87.8842C240.849 87.8842 240.817 87.9162 240.785 87.9162C240.721 87.9162 240.721 87.8842 240.689 87.8523C240.593 87.7885 240.465 87.7565 240.369 87.7246C240.241 87.7246 240.113 87.7246 240.017 87.7565C239.889 87.7885 239.793 87.8523 239.729 87.9481C239.697 87.98 239.665 88.0439 239.633 88.0758C239.633 88.1077 239.633 88.1077 239.601 88.1077C239.569 88.1077 239.569 88.1077 239.537 88.1077C239.345 88.1716 239.184 88.3312 239.088 88.5228C239.024 88.6505 239.024 88.842 239.024 89.0655C239.024 89.289 239.248 89.8636 239.409 90.0871C239.569 90.2787 239.825 90.4064 240.049 90.4702C239.889 90.6618 239.793 90.8853 239.697 91.1088C239.601 91.3642 239.569 91.6196 239.537 91.875C239.505 92.1304 239.505 92.3858 239.569 92.6412C239.633 92.8647 239.729 93.0562 239.953 93.1839C240.049 93.2478 240.145 93.2797 240.241 93.3116C240.337 93.3436 240.433 93.3755 240.529 93.4074C240.721 93.4393 240.945 93.4393 241.073 93.2797C241.137 93.2159 241.17 93.152 241.234 93.0882C241.234 93.0562 241.266 93.0562 241.234 93.0243C241.202 92.9924 241.17 92.9605 241.17 92.9605C241.009 92.8327 240.945 92.6731 240.913 92.4816C240.881 92.29 240.945 92.0346 241.137 91.9388C241.394 91.843 241.65 91.9707 241.874 92.0665C241.97 91.7473 242.162 91.4599 242.45 91.3003C242.77 91.1407 243.155 91.1088 243.475 90.9811C243.571 90.9491 243.667 90.9172 243.731 90.8214C243.763 90.7895 243.795 90.7576 243.795 90.6937C243.795 90.6299 243.763 90.5979 243.763 90.566C243.603 90.4064 243.059 89.9594 242.77 89.8636Z" fill="#3D0220"/>
<path d="M246.741 100.08L249.238 99.2497C250.295 99.3455 250.839 99.3135 250.775 99.1858C250.711 98.9943 250.391 99.0262 250.327 98.8985C250.263 98.7708 250.615 98.5154 250.967 98.26C251.319 98.0046 251.095 97.9727 250.935 97.9727C250.423 98.0684 249.847 98.26 249.238 98.5473L246.165 98.8985L246.741 100.08ZM234.382 104.901C234.286 105.092 233.454 105.667 232.877 105.986C232.653 106.114 232.749 106.273 232.845 106.337C233.55 106.688 233.998 106.273 234.606 106.018C235.279 105.763 235.215 106.497 235.759 106.305C235.599 105.986 235.215 105.443 235.407 105.06C235.471 104.901 236.463 103.049 238.32 99.5051H236.624C235.279 102.857 234.51 104.645 234.382 104.901Z" fill="#8E1B5A"/>
<path d="M241.234 94.9707L242.546 95.0346C242.866 97.5248 244.659 99.1211 248.63 98.5783L249.174 101.803C245.46 102.218 242.162 100.941 241.49 97.5567C241.362 96.6628 241.202 95.7369 241.234 94.9707Z" fill="#FC90CC"/>
<path d="M240.593 94.6523L242.61 95.0355C242.61 97.9407 243.699 99.8243 244.275 101.963H238.832C238.768 102.698 238.704 103.464 238.672 104.262H234.606C235.535 100.112 237.488 96.9191 240.433 94.6523H240.593Z" fill="#FDA5C4"/>
<path d="M239.697 97.8125C239.569 99.6323 239.633 101.005 239.953 101.963H238.833C238.961 100.494 239.249 99.1215 239.697 97.8125Z" fill="black" fill-opacity="0.1"/>
<path d="M341.096 105.474C341.512 105.474 341.832 105.059 341.832 104.58V64.3217C341.832 63.8108 341.512 63.4277 341.096 63.4277C340.679 63.4277 340.359 63.8428 340.359 64.3217V104.58C340.327 105.059 340.679 105.474 341.096 105.474Z" fill="#C41C60"/>
<path d="M341.063 55V67.2595H351.789C351.789 67.2595 341.287 55.1916 341.063 55Z" fill="#8E1B5A"/>
<path d="M362.451 67.1957L341.064 55L351.789 67.2595L362.451 67.1957Z" fill="#A81E63"/>
<path d="M370.648 66.7168C370.648 66.7168 349.581 55.3193 341.065 55L362.452 67.1957L370.712 67.2595C370.712 67.2595 371.321 67.2915 370.648 66.7168Z" fill="#8E1B5A"/>
<path d="M341.063 67.2598C341.063 67.8983 341.415 68.4091 341.8 68.4091H350.925C351.341 68.4091 351.789 67.8983 351.789 67.2598" fill="#770649"/>
<path d="M351.725 67.2272C351.725 67.8658 352.078 68.3766 352.462 68.3766H361.587C362.003 68.3766 362.451 67.8338 362.451 67.1953" fill="#8E1B5A"/>
<path d="M341.064 55V67.2595H330.339C330.339 67.2595 340.84 55.1916 341.064 55Z" fill="#A81E63"/>
<path d="M319.677 67.1957L341.064 55L330.339 67.2595L319.677 67.1957Z" fill="#8E1B5A"/>
<path d="M311.481 66.7168C311.481 66.7168 332.548 55.3193 341.064 55L319.677 67.1957L311.416 67.2595C311.416 67.2595 310.808 67.2915 311.481 66.7168Z" fill="#A81E63"/>
<path d="M341.064 67.2598C341.064 67.8983 340.712 68.4091 340.328 68.4091H331.203C330.787 68.4091 330.339 67.8983 330.339 67.2598" fill="#8E1B5A"/>
<path d="M330.402 67.2272C330.402 67.8658 330.05 68.3766 329.666 68.3766H320.541C320.125 68.3766 319.677 67.8338 319.677 67.1953" fill="#770649"/>
<path d="M319.676 67.1641C319.676 67.8026 319.42 68.3134 319.067 68.3134H311.736C311.415 68.3134 311.127 67.8026 311.127 67.1641" fill="#8E1B5A"/>
<path d="M295.28 92.002C295.536 92.002 295.76 92.417 295.76 92.8959C295.76 92.9597 295.76 93.0236 295.76 93.0874C295.76 93.279 295.76 93.4386 295.76 93.6302C295.76 93.9175 295.76 94.2048 295.76 94.4922C295.76 94.8753 295.76 95.2265 295.76 95.6096C295.76 96.0565 295.76 96.5035 295.76 96.9185C295.76 97.4293 295.76 97.9082 295.76 98.419C295.76 98.9618 295.76 99.5045 295.76 100.015C295.76 100.59 295.76 101.133 295.76 101.707C295.76 102.282 295.76 102.857 295.76 103.399C295.76 103.974 295.76 104.517 295.76 105.092C295.76 105.634 295.76 106.177 295.76 106.688C295.76 107.199 295.76 107.678 295.76 108.188C295.76 108.635 295.76 109.082 295.76 109.529C295.76 109.912 295.76 110.264 295.76 110.647C295.76 110.934 295.76 111.221 295.76 111.509C295.76 111.7 295.76 111.892 295.76 112.051C295.76 112.179 295.76 112.275 295.76 112.403C295.76 112.53 295.664 112.594 295.6 112.626C295.504 112.69 295.408 112.69 295.28 112.69C295.183 112.69 295.087 112.69 295.023 112.626C294.959 112.594 294.863 112.562 294.831 112.466C294.831 112.434 294.831 112.434 294.831 112.403C294.831 112.275 294.831 112.147 294.831 112.051C294.831 111.86 294.831 111.7 294.831 111.509C294.831 111.221 294.831 110.966 294.831 110.679C294.831 110.327 294.831 109.976 294.831 109.593C294.831 109.178 294.831 108.731 294.831 108.316C294.831 107.837 294.831 107.358 294.831 106.879C294.831 106.369 294.831 105.858 294.831 105.347C294.831 104.804 294.831 104.261 294.831 103.719C294.831 103.176 294.831 102.633 294.831 102.059C294.831 101.516 294.831 100.973 294.831 100.43C294.831 99.9196 294.831 99.3768 294.831 98.866C294.831 98.3871 294.831 97.8763 294.831 97.3974C294.831 96.9505 294.831 96.5035 294.831 96.0565C294.831 95.6734 294.831 95.2903 294.831 94.9072C294.831 94.5879 294.831 94.2687 294.831 93.9814C294.831 93.7579 294.831 93.5344 294.831 93.3109C294.831 93.1832 294.831 93.0555 294.831 92.9597C294.831 92.9278 294.831 92.9278 294.831 92.8959C294.799 92.417 294.991 92.002 295.28 92.002Z" fill="#F9BDD4"/>
<path d="M279.781 89.0312C280.038 89.0312 280.262 89.4463 280.262 89.9252C280.262 89.989 280.262 90.0529 280.262 90.1167C280.262 90.3083 280.262 90.4679 280.262 90.6595C280.262 90.9468 280.262 91.2341 280.262 91.5215C280.262 91.9046 280.262 92.2558 280.262 92.6389C280.262 93.0858 280.262 93.5328 280.262 93.9478C280.262 94.4586 280.262 94.9375 280.262 95.4483C280.262 95.9911 280.262 96.5338 280.262 97.0446C280.262 97.6193 280.262 98.162 280.262 98.7367C280.262 99.3114 280.262 99.886 280.262 100.429C280.262 101.003 280.262 101.546 280.262 102.121C280.262 102.664 280.262 103.206 280.262 103.717C280.262 104.228 280.262 104.707 280.262 105.218C280.262 105.665 280.262 106.112 280.262 106.559C280.262 106.942 280.262 107.293 280.262 107.676C280.262 107.963 280.262 108.251 280.262 108.538C280.262 108.73 280.262 108.921 280.262 109.081C280.262 109.208 280.262 109.304 280.262 109.432C280.262 109.56 280.166 109.623 280.102 109.655C280.006 109.719 279.91 109.719 279.781 109.719C279.685 109.719 279.589 109.719 279.525 109.655C279.461 109.623 279.365 109.592 279.333 109.496C279.333 109.464 279.333 109.464 279.333 109.432C279.333 109.304 279.333 109.176 279.333 109.081C279.333 108.889 279.333 108.73 279.333 108.538C279.333 108.251 279.333 107.995 279.333 107.708C279.333 107.357 279.333 107.006 279.333 106.622C279.333 106.207 279.333 105.76 279.333 105.345C279.333 104.866 279.333 104.388 279.333 103.909C279.333 103.398 279.333 102.887 279.333 102.376C279.333 101.834 279.333 101.291 279.333 100.748C279.333 100.205 279.333 99.6626 279.333 99.0879C279.333 98.5452 279.333 98.0024 279.333 97.4597C279.333 96.9489 279.333 96.4061 279.333 95.8953C279.333 95.4164 279.333 94.9056 279.333 94.4267C279.333 93.9798 279.333 93.5328 279.333 93.0858C279.333 92.7027 279.333 92.3196 279.333 91.9365C279.333 91.6172 279.333 91.298 279.333 91.0107C279.333 90.7872 279.333 90.5637 279.333 90.3402C279.333 90.2125 279.333 90.0848 279.333 89.989C279.333 89.9571 279.333 89.9571 279.333 89.9252C279.301 89.4144 279.493 89.0312 279.781 89.0312Z" fill="#F9BDD4"/>
<path d="M264.479 91.9062C264.735 91.9062 264.959 92.3213 264.959 92.8002C264.959 92.864 264.959 92.9279 264.959 92.9917C264.959 93.1833 264.959 93.3429 264.959 93.5345C264.959 93.8218 264.959 94.1091 264.959 94.3965C264.959 94.7796 264.959 95.1308 264.959 95.5139C264.959 95.9608 264.959 96.4078 264.959 96.8228C264.959 97.3336 264.959 97.8125 264.959 98.3233C264.959 98.8661 264.959 99.3769 264.959 99.9196C264.959 100.462 264.959 101.037 264.959 101.58C264.959 102.154 264.959 102.697 264.959 103.272C264.959 103.815 264.959 104.389 264.959 104.932C264.959 105.475 264.959 106.017 264.959 106.528C264.959 107.039 264.959 107.518 264.959 108.029C264.959 108.476 264.959 108.923 264.959 109.37C264.959 109.753 264.959 110.104 264.959 110.487C264.959 110.774 264.959 111.062 264.959 111.349C264.959 111.541 264.959 111.732 264.959 111.892C264.959 112.02 264.959 112.115 264.959 112.243C264.959 112.371 264.863 112.435 264.799 112.466C264.703 112.53 264.607 112.53 264.479 112.53C264.383 112.53 264.287 112.53 264.223 112.466C264.159 112.435 264.062 112.403 264.03 112.307C264.03 112.275 264.03 112.275 264.03 112.243C264.03 112.115 264.03 111.988 264.03 111.892C264.03 111.7 264.03 111.541 264.03 111.349C264.03 111.062 264.03 110.806 264.03 110.519C264.03 110.168 264.03 109.817 264.03 109.465C264.03 109.05 264.03 108.635 264.03 108.188C264.03 107.71 264.03 107.231 264.03 106.752C264.03 106.241 264.03 105.73 264.03 105.219C264.03 104.677 264.03 104.134 264.03 103.623C264.03 103.08 264.03 102.538 264.03 101.995C264.03 101.452 264.03 100.909 264.03 100.367C264.03 99.8558 264.03 99.3131 264.03 98.8022C264.03 98.3233 264.03 97.8125 264.03 97.3336C264.03 96.8867 264.03 96.4397 264.03 95.9928C264.03 95.6097 264.03 95.2265 264.03 94.8434C264.03 94.5242 264.03 94.2368 264.03 93.9176C264.03 93.6941 264.03 93.4706 264.03 93.2471C264.03 93.1194 264.03 93.0237 264.03 92.896C264.03 92.864 264.03 92.864 264.03 92.8321C263.998 92.2894 264.223 91.9062 264.479 91.9062Z" fill="#F9BDD4"/>
<path d="M262.302 90.7559C262.302 92.7991 270.178 94.4912 279.847 94.4912C289.548 94.4912 297.393 92.831 297.393 90.7559V91.2028C297.393 93.2461 289.548 94.9381 279.847 94.9381C270.146 94.9381 262.526 93.3419 262.238 91.3305L262.302 90.7559Z" fill="#F9BDD4"/>
<path d="M279.878 94.5234C270.188 94.5234 262.333 92.851 262.333 90.7881C262.333 88.7251 270.188 87.0527 279.878 87.0527C289.568 87.0527 297.424 88.7251 297.424 90.7881C297.424 92.851 289.568 94.5234 279.878 94.5234Z" fill="#FFEBF5"/>
<path d="M287.338 91.3303C287.338 91.3622 287.338 91.3622 287.338 91.3303C287.37 91.4261 287.434 91.458 287.498 91.458C287.562 91.4899 287.658 91.5218 287.722 91.5218C287.979 91.5857 288.267 91.5857 288.523 91.5857C288.747 91.5857 288.971 91.5857 289.227 91.5218C289.323 91.4899 289.419 91.4899 289.515 91.458C289.579 91.4261 289.708 91.3941 289.708 91.2984L289.932 88.5527H287.082L287.338 91.3303Z" fill="#FDA5C4"/>
<path d="M288.492 88.2012C289.26 88.2012 289.9 88.3608 289.9 88.5843C289.9 88.8078 289.26 88.9674 288.492 88.9674C287.723 88.9674 287.083 88.8078 287.083 88.5843C287.083 88.3608 287.691 88.2012 288.492 88.2012Z" fill="#C41C60"/>
<path d="M288.492 88.2331C288.107 88.2331 287.755 88.265 287.499 88.3289C287.371 88.3608 287.275 88.3927 287.211 88.4566C287.179 88.4885 287.115 88.5204 287.115 88.5843C287.115 88.6162 287.179 88.6801 287.211 88.712C287.275 88.7439 287.371 88.8078 287.499 88.8397C287.755 88.9035 288.107 88.9355 288.492 88.9355C288.876 88.9355 289.228 88.9035 289.484 88.8397C289.612 88.8078 289.708 88.7758 289.772 88.712C289.804 88.6801 289.868 88.6481 289.868 88.5843C289.868 88.5524 289.804 88.4885 289.772 88.4566C289.708 88.4247 289.612 88.3608 289.484 88.3289C289.228 88.265 288.876 88.2331 288.492 88.2331ZM288.492 88.2012C289.26 88.2012 289.9 88.3608 289.9 88.5843C289.9 88.8078 289.26 88.9674 288.492 88.9674C287.723 88.9674 287.083 88.8078 287.083 88.5843C287.083 88.3608 287.691 88.2012 288.492 88.2012Z" fill="#F2F2F2"/>
<path d="M267.616 91.7151C267.648 91.8108 267.712 91.8428 267.776 91.8428C267.84 91.8747 267.936 91.9066 268 91.9066C268.256 91.9705 268.544 91.9705 268.8 91.9705C269.024 91.9705 269.248 91.9705 269.505 91.9066C269.601 91.8747 269.697 91.8747 269.793 91.8428C269.857 91.8108 269.985 91.7789 269.985 91.6831L270.209 88.9375H267.359L267.616 91.7151Z" fill="#FDA5C4"/>
<path d="M268.769 88.5859C269.537 88.5859 270.178 88.7456 270.178 88.969C270.178 89.1925 269.537 89.3521 268.769 89.3521C268.001 89.3521 267.36 89.1925 267.36 88.969C267.36 88.7456 268.001 88.5859 268.769 88.5859Z" fill="#C41C60"/>
<path d="M268.769 88.6179C268.385 88.6179 268.033 88.6498 267.776 88.7136C267.648 88.7456 267.552 88.7775 267.488 88.8413C267.456 88.8733 267.392 88.9052 267.392 88.969C267.392 89.0329 267.456 89.0648 267.488 89.0967C267.552 89.1287 267.648 89.1925 267.776 89.2244C268.033 89.2883 268.385 89.3202 268.769 89.3202C269.153 89.3202 269.505 89.2883 269.762 89.2244C269.89 89.1925 269.986 89.1606 270.05 89.0967C270.082 89.0648 270.146 89.0329 270.146 88.969C270.146 88.9052 270.082 88.8733 270.05 88.8413C269.986 88.8094 269.89 88.7456 269.762 88.7136C269.505 88.6498 269.153 88.6179 268.769 88.6179ZM268.769 88.5859C269.537 88.5859 270.178 88.7456 270.178 88.969C270.178 89.1925 269.537 89.3521 268.769 89.3521C268.001 89.3521 267.36 89.1925 267.36 88.969C267.36 88.7456 268.001 88.5859 268.769 88.5859Z" fill="#F2F2F2"/>
<path d="M269.248 92.7346C269.28 92.8304 269.344 92.8623 269.408 92.8623C269.473 92.8942 269.569 92.9261 269.633 92.9261C269.889 92.99 270.177 92.99 270.433 92.99C270.657 92.99 270.881 92.99 271.137 92.9261C271.233 92.8942 271.33 92.8942 271.426 92.8623C271.49 92.8304 271.618 92.7984 271.618 92.7027L271.842 89.957H268.992L269.248 92.7346Z" fill="#F9BDD4"/>
<path d="M270.402 89.5742C271.17 89.5742 271.811 89.7338 271.811 89.9573C271.811 90.1808 271.17 90.3404 270.402 90.3404C269.633 90.3404 268.993 90.1808 268.993 89.9573C268.961 89.7658 269.601 89.5742 270.402 89.5742Z" fill="#C41C60"/>
<path d="M270.402 89.6381C270.018 89.6381 269.665 89.67 269.409 89.7338C269.281 89.7658 269.185 89.7977 269.121 89.8616C269.089 89.8935 269.025 89.9254 269.025 89.9893C269.025 90.0212 269.089 90.085 269.121 90.117C269.185 90.1489 269.281 90.2127 269.409 90.2447C269.665 90.3085 270.018 90.3404 270.402 90.3404C270.786 90.3404 271.138 90.3085 271.394 90.2447C271.522 90.2127 271.618 90.1808 271.682 90.117C271.715 90.085 271.779 90.0531 271.779 89.9893C271.779 89.9573 271.715 89.8935 271.682 89.8616C271.618 89.8296 271.522 89.7658 271.394 89.7338C271.138 89.67 270.786 89.6381 270.402 89.6381ZM270.402 89.5742C271.17 89.5742 271.811 89.7338 271.811 89.9573C271.811 90.1808 271.17 90.3404 270.402 90.3404C269.633 90.3404 268.993 90.1808 268.993 89.9573C268.961 89.7658 269.601 89.5742 270.402 89.5742Z" fill="#F2F2F2"/>
<path d="M45.9439 272.163C45.3803 272.163 44.9375 271.721 44.9375 271.157V247.085C44.9375 246.521 45.3803 246.078 45.9439 246.078C46.5075 246.078 46.9503 246.521 46.9503 247.085V271.157C46.9503 271.721 46.4672 272.163 45.9439 272.163Z" fill="#FC54A0"/>
<path d="M69.011 228.93C69.011 241.248 59.0277 251.231 46.7096 251.231C34.3915 251.231 24.4082 241.248 24.4082 228.93" fill="#5B0434"/>
<path d="M46.7909 235.009C59.1298 235.009 69.1325 232.287 69.1325 228.93C69.1325 225.573 59.1298 222.852 46.7909 222.852C34.4519 222.852 24.4492 225.573 24.4492 228.93C24.4492 232.287 34.4519 235.009 46.7909 235.009Z" fill="#770649"/>
<path d="M46.7916 222.852C45.4229 222.852 44.1348 222.892 42.8466 222.932L42.7661 222.852L42.6453 222.972C39.9885 223.093 37.5329 223.375 35.3189 223.737L35.2786 223.697L35.1981 223.777C28.7975 224.864 24.4902 226.756 24.4902 228.97C24.4902 232.312 34.4735 235.049 46.8319 235.049C59.15 235.049 69.1735 232.312 69.1735 228.97C69.1332 225.549 59.15 222.852 46.7916 222.852ZM65.47 226.917L59.6733 232.674C57.8618 233.036 55.849 233.318 53.7155 233.519L61.6458 225.669C61.8471 225.71 62.0483 225.79 62.2496 225.83C63.6183 226.152 64.6649 226.515 65.47 226.917ZM54.3999 224.422L44.9801 233.801C43.4102 233.761 41.9207 233.68 40.4313 233.559L49.9315 224.099C51.4612 224.18 52.9507 224.26 54.3999 224.422ZM48.2408 224.059L38.8211 233.398C37.2914 233.237 35.8019 233.036 34.4333 232.754L43.1284 224.099C44.336 224.059 45.5437 224.019 46.7514 224.019C47.2747 224.059 47.7577 224.059 48.2408 224.059ZM25.6979 228.93C25.6979 228.367 26.8653 226.998 31.3336 225.79C32.0582 225.589 32.8231 225.428 33.6684 225.227L27.9924 230.862C26.2212 230.057 25.6979 229.292 25.6979 228.93ZM29.1598 231.386L35.7214 224.864C37.4524 224.583 39.3444 224.381 41.3169 224.26L33.0243 232.513C32.4205 232.392 31.8569 232.231 31.3336 232.11C30.4883 231.828 29.8039 231.587 29.1598 231.386ZM46.6709 233.801L55.9698 224.583C57.4995 224.784 58.9487 225.025 60.2771 225.307L51.8638 233.64C50.2133 233.761 48.5226 233.801 46.7916 233.801C46.7514 233.801 46.7111 233.801 46.6709 233.801ZM62.2496 232.07C62.1289 232.11 62.0483 232.11 61.9276 232.151L66.5972 227.521C67.5633 228.125 67.8853 228.648 67.8853 228.93C67.9256 229.453 66.7179 230.822 62.2496 232.07Z" fill="#FDA5C4"/>
<path d="M63.0926 271.158H29.1172L29.2782 272.285C29.2782 274.097 36.8864 275.586 46.2659 275.586C55.6454 275.586 63.2536 274.097 63.2536 272.285L63.0926 271.158Z" fill="#3D0220"/>
<path d="M46.1459 274.459C55.5279 274.459 63.1336 272.981 63.1336 271.158C63.1336 269.335 55.5279 267.857 46.1459 267.857C36.7639 267.857 29.1582 269.335 29.1582 271.158C29.1582 272.981 36.7639 274.459 46.1459 274.459Z" fill="#770649"/>
<path d="M27.7902 279.732C27.7097 279.732 27.6292 279.732 27.5889 279.692C27.0656 279.571 26.7033 279.048 26.8241 278.484L34.07 245.435C34.1908 244.911 34.7141 244.549 35.2777 244.67C35.801 244.791 36.1633 245.314 36.0425 245.877L28.7966 278.927C28.6758 279.41 28.233 279.732 27.7902 279.732Z" fill="#FC54A0"/>
<path d="M65.2666 279.652C64.8238 279.652 64.381 279.33 64.3005 278.847L57.0546 245.797C56.9338 245.274 57.2961 244.71 57.8194 244.59C58.3427 244.469 58.9063 244.831 59.0271 245.355L66.273 278.404C66.3938 278.927 66.0315 279.491 65.5082 279.612C65.3874 279.612 65.3471 279.652 65.2666 279.652Z" fill="#FC54A0"/>
<path d="M36.2024 230.661C36.1622 228.649 34.7935 226.153 32.66 225.629C31.7341 225.388 30.2849 225.71 30.446 226.918C30.607 228.004 32.2574 228.004 32.9418 228.85C33.6261 229.735 33.2236 231.225 34.1092 231.949C35.1961 232.835 35.9609 231.668 36.2024 230.661Z" fill="#C41C60"/>
<path d="M42.563 230.218C42.4825 227.803 40.8321 224.784 38.296 224.18C37.1688 223.898 35.4379 224.261 35.6391 225.71C35.8404 227.038 37.8532 226.998 38.6583 228.045C39.5036 229.091 39.0206 230.903 40.0672 231.788C41.3554 232.835 42.2813 231.466 42.563 230.218Z" fill="#C41C60"/>
<path d="M50.4126 231.466C50.3321 229.051 48.6817 226.032 46.1456 225.428C45.0185 225.146 43.2875 225.509 43.4888 226.958C43.69 228.286 45.7028 228.246 46.5079 229.293C47.3533 230.339 46.8702 232.151 47.9168 233.036C49.205 234.123 50.1309 232.714 50.4126 231.466Z" fill="#C41C60"/>
<path d="M55.9684 230.3C55.9281 228.287 54.5192 225.791 52.4259 225.268C51.4598 225.027 50.0509 225.349 50.2119 226.556C50.3729 227.683 52.0234 227.643 52.7077 228.489C53.3921 229.374 52.9895 230.864 53.8751 231.628C54.962 232.514 55.7269 231.347 55.9684 230.3Z" fill="#C41C60"/>
<path d="M62.1275 230.257C62.047 228.084 60.5575 225.346 58.263 224.783C57.2164 224.541 55.6464 224.863 55.8477 226.192C56.0087 227.399 57.8202 227.359 58.585 228.285C59.3499 229.251 58.9071 230.902 59.8732 231.707C61.0003 232.632 61.8457 231.385 62.1275 230.257Z" fill="#C41C60"/>
<path d="M87.5702 206.751L79.5595 204.376C76.2585 204.98 74.6081 205.06 74.6886 204.537C74.8093 203.812 75.8157 203.893 75.9365 203.41C76.0975 202.927 74.9301 202.041 73.7627 201.236C72.5953 200.431 73.3199 200.23 73.7627 200.189C75.4132 200.431 77.2247 200.995 79.2374 201.88L88.8987 202.363L87.5702 206.751Z" fill="#5B0434"/>
<path d="M91.0718 205.544C87.8916 207.194 83.1415 206.832 79.277 205.503L79.1562 201.438C84.1479 202.001 87.9721 200.834 90.6692 199.586C93.4066 200.512 93.6079 204.215 91.0718 205.544Z" fill="#3581EF"/>
<path d="M80.5251 203.127H52.3867L52.5075 204.053C52.5075 205.542 58.5458 208.038 66.315 208.038C74.0843 208.038 80.6459 205.542 80.6459 204.053L80.5251 203.127Z" fill="#5B0434"/>
<path d="M66.4358 205.863C74.1949 205.863 80.4848 204.638 80.4848 203.126C80.4848 201.614 74.1949 200.389 66.4358 200.389C58.6767 200.389 52.3867 201.614 52.3867 203.126C52.3867 204.638 58.6767 205.863 66.4358 205.863Z" fill="#770649"/>
<path d="M66.4364 204.94C73.1505 204.94 78.5934 204.038 78.5934 202.927C78.5934 201.815 73.1505 200.914 66.4364 200.914C59.7222 200.914 54.2793 201.815 54.2793 202.927C54.2793 204.038 59.7222 204.94 66.4364 204.94Z" fill="#FC90CC"/>
<path d="M56.9355 203.086C58.5055 202.643 60.156 202.402 61.8064 202.241C63.4569 202.08 65.1073 201.999 66.7578 202.04C67.1604 202.04 67.5629 202.08 68.0057 202.08L68.6096 202.12L69.2134 202.16L70.4613 202.241C70.8638 202.281 71.2664 202.321 71.7092 202.362C72.5143 202.442 73.3597 202.603 74.1648 202.724C74.9699 202.885 75.775 203.046 76.5801 203.207C74.9699 202.965 73.3194 202.724 71.7092 202.603C70.0587 202.442 68.4485 202.362 66.7981 202.321C65.1476 202.281 63.5374 202.362 61.8869 202.482C61.4844 202.523 61.0818 202.563 60.6793 202.603C60.2767 202.643 59.8742 202.684 59.4716 202.724C58.5457 202.764 57.7407 202.925 56.9355 203.086Z" fill="#5B0434"/>
<path d="M100.087 224.141L91.3114 252.883L87.0443 277.318H83.7031L88.2117 224.141H100.087Z" fill="#5B0434"/>
<path d="M103.229 224.141C102.625 239.921 103.35 248.052 103.471 249.461C103.591 250.91 105.443 260.169 109.75 277.761L106.208 276.553C99.3646 260.451 97.0298 252.078 96.2649 249.944C95.5001 247.811 93.4068 239.236 90.0254 224.141H103.229Z" fill="#770649"/>
<path d="M109.75 276.553C109.991 277.237 110.152 277.761 110.152 278.123C110.152 278.525 110.072 279.17 109.951 279.975C109.468 279.975 105.08 279.975 96.7877 279.975C96.4656 278.847 96.6266 278.244 97.3915 278.123C98.1161 278.042 98.7602 277.962 99.2432 277.881L105.362 275.144C105.483 275.104 105.604 275.144 105.684 275.265L106.087 276.231C106.771 276.553 107.335 276.714 107.737 276.714C108.099 276.714 108.582 276.593 109.186 276.311C109.347 276.191 109.629 276.271 109.75 276.553C109.75 276.553 109.71 276.513 109.75 276.553Z" fill="#3D0220"/>
<path d="M87.8104 276.553C88.0519 277.237 88.2129 277.761 88.2129 278.123C88.2129 278.525 88.1324 279.17 88.0117 279.975C87.5286 279.975 83.1408 279.975 74.8482 279.975C74.5262 278.847 74.6872 278.244 75.452 278.123C76.2169 278.002 76.8207 277.962 77.3038 277.881L83.4226 275.144C83.5433 275.104 83.6641 275.144 83.7446 275.265L84.1472 276.231C84.8315 276.553 85.3951 276.714 85.7976 276.714C86.1599 276.714 86.643 276.593 87.2468 276.311C87.4078 276.191 87.6896 276.271 87.8104 276.553C87.7701 276.553 87.7701 276.513 87.8104 276.553Z" fill="#3D0220"/>
<path d="M101.255 224.141L97.5114 238.794H86.1191L87.8099 224.141H101.255Z" fill="#FC54A0"/>
<path d="M103.35 224.141C104.597 227.844 104.799 232.715 104.034 238.753H92.4001L89.1797 224.141H103.35Z" fill="#F777B7"/>
<path d="M92.8443 189.963C93.9312 188.715 94.6558 187.145 94.535 185.414C94.1727 180.423 87.2488 181.51 85.8801 184.046C84.5114 186.582 84.6725 192.982 86.4437 193.425C87.128 193.586 88.6175 193.184 90.1472 192.258L89.1811 198.98H94.7765L92.8443 189.963Z" fill="#770649"/>
<path d="M83.3834 180.544C83.5042 180.141 83.8262 179.779 84.2287 179.698C84.3495 179.658 84.43 179.658 84.5508 179.658C84.5911 179.658 84.591 179.658 84.6313 179.658V179.577C84.6313 179.497 84.6716 179.416 84.7118 179.376C84.7923 179.135 84.9533 178.933 85.1144 178.772C85.4364 178.45 85.8792 178.209 86.3623 178.168C86.6038 178.128 86.8856 178.168 87.1271 178.289C87.2479 178.33 87.3687 178.37 87.4894 178.45C87.5297 178.45 87.6504 178.571 87.6907 178.531C87.731 178.531 87.8115 178.41 87.8517 178.41C88.2543 178.088 88.7373 177.967 89.2204 178.007C89.784 178.007 90.3073 178.048 90.7904 178.37C90.8709 178.45 90.9916 178.531 91.0721 178.611C91.1124 178.652 91.1526 178.692 91.1929 178.732C91.2332 178.772 91.2332 178.772 91.2734 178.813C91.3137 178.853 91.3137 178.893 91.3539 178.853C91.5955 178.732 91.837 178.652 92.1188 178.692C92.2798 178.692 92.4408 178.772 92.5616 178.813C92.6018 178.853 92.7226 178.933 92.7629 178.933C92.8031 178.933 92.9239 178.853 92.9641 178.853C93.2459 178.732 93.568 178.732 93.8498 178.772C94.1718 178.813 94.4536 178.933 94.7354 179.135C94.8561 179.215 94.9769 179.296 95.0574 179.416C95.0977 179.457 95.1379 179.537 95.1782 179.577C95.2184 179.618 95.2587 179.618 95.2587 179.658C95.2587 179.618 95.5807 179.497 95.621 179.497C95.782 179.457 95.9833 179.457 96.1443 179.497C96.4663 179.618 96.7481 179.859 96.9896 180.101C97.1104 180.222 97.1909 180.383 97.3117 180.503C97.3519 180.584 97.3922 180.664 97.4325 180.705C97.4325 180.745 97.4727 180.785 97.4727 180.825C97.513 180.866 97.513 180.866 97.5532 180.906C97.835 180.986 98.0765 181.147 98.2376 181.349C98.4388 181.55 98.5596 181.832 98.5999 182.114V182.194H98.6804C98.7609 182.194 98.8011 182.234 98.8816 182.234C99.0024 182.275 99.1232 182.315 99.2439 182.355C99.6868 182.597 100.009 182.999 100.17 183.482C100.331 183.965 100.331 184.529 100.13 185.012C100.089 185.092 100.049 185.173 100.009 185.253C99.9685 185.294 99.9685 185.294 100.009 185.334C100.009 185.374 100.049 185.455 100.089 185.495C100.17 185.656 100.21 185.817 100.25 186.018C100.291 186.3 100.331 186.622 100.291 186.904C100.25 187.025 100.21 187.186 100.17 187.306C100.13 187.387 100.089 187.427 100.049 187.467C100.009 187.508 100.009 187.508 99.9685 187.548L99.9283 187.588C99.888 187.628 99.888 187.588 99.888 187.669C99.9283 187.749 99.9685 187.83 100.009 187.91C100.049 187.991 100.089 188.071 100.089 188.152C100.13 188.313 100.17 188.514 100.21 188.675C100.25 188.997 100.25 189.4 100.089 189.681C100.009 189.802 99.9283 189.923 99.8075 190.044C99.7673 190.084 99.6867 190.124 99.6062 190.165C99.566 190.165 99.5257 190.205 99.5257 190.205C99.5257 190.245 99.5257 190.326 99.5257 190.366C99.566 190.728 99.6062 191.09 99.4855 191.412C99.405 191.734 99.1634 192.016 98.9219 192.177C98.3986 192.54 97.674 192.499 97.1104 192.218C96.9494 192.137 96.8286 192.057 96.7079 191.936C96.3858 192.338 95.782 192.338 95.3392 192.218C94.7756 192.057 94.3328 191.694 94.0913 191.171C93.729 191.614 93.0044 191.453 92.7629 191.01C92.7226 190.889 92.6823 190.768 92.6421 190.648C92.6421 190.567 92.6421 190.527 92.6421 190.446C92.6421 190.366 92.5616 190.285 92.5616 190.205C92.4811 190.044 92.4408 189.883 92.4408 189.722C92.4408 189.641 92.4408 189.561 92.4408 189.44C92.4408 189.359 92.4408 189.279 92.4006 189.198C92.5616 189.239 92.7226 189.198 92.8434 189.158C92.9641 189.118 93.0849 188.997 93.2057 188.917C93.4069 188.675 93.568 188.393 93.6485 188.112C93.8498 187.467 93.7692 186.662 93.1251 186.3C92.8031 186.139 91.9175 186.139 91.5552 186.22C91.1526 186.3 90.7501 187.145 90.7098 187.226C90.7098 187.266 90.7098 187.347 90.6696 187.387C90.5891 187.467 90.3878 187.347 90.3475 187.266C90.2268 187.145 90.1463 187.025 90.0658 186.864C89.9047 186.542 89.7437 186.22 89.6632 185.857C89.5827 185.575 89.5424 185.334 89.4619 185.052C89.3814 184.811 89.2204 184.569 88.9789 184.408C88.7373 184.247 88.4153 184.167 88.1335 184.086C87.8517 184.005 87.5699 183.885 87.3687 183.643C87.3284 183.603 87.2881 183.563 87.2479 183.482C87.2076 183.442 87.1674 183.361 87.1271 183.321C87.0466 183.281 86.9661 183.402 86.8856 183.442C86.5636 183.643 86.322 183.925 86.1207 184.207C85.9195 184.489 85.7585 184.77 85.5974 185.133C85.4767 185.374 85.4364 185.696 85.2351 185.897C85.1546 185.978 84.5508 186.059 84.3495 185.978C84.1482 185.897 83.947 185.696 83.8665 185.575C83.7859 185.455 83.7859 185.294 83.8262 185.173C83.8262 185.092 83.8665 185.012 83.9067 184.931C83.9067 184.851 83.947 184.811 83.9872 184.73C84.0677 184.609 84.1482 184.529 84.3093 184.489C84.1885 184.368 84.0677 184.207 83.9872 184.046C83.9067 183.885 83.8262 183.643 83.8262 183.482C83.8262 183.321 83.8262 183.16 83.9067 183.039C83.9872 182.878 84.1482 182.798 84.3093 182.717C84.108 182.556 83.9067 182.355 83.786 182.114C83.4237 181.59 83.2626 181.067 83.3834 180.544Z" fill="#3D0220"/>
<path d="M70.1795 211.904C68.529 210.817 66.9993 210.092 65.5904 209.77C62.8933 209.166 61.8064 208.643 60.4377 207.033C59.7131 206.187 59.0288 204.456 59.6729 203.812C60.1157 203.41 62.7725 205.221 63.8594 205.382C64.9463 205.543 63.8594 203.088 64.423 203.329C65.1476 203.289 65.8319 204.295 66.4358 206.228L70.26 208.12L70.1795 211.904Z" fill="#770649"/>
<path d="M88.5759 194.029L95.3387 193.707C96.0633 193.667 101.578 203.127 101.86 209.407C102.142 215.163 107.657 218.545 105.282 227.683C100.813 226.998 87.8915 232.03 85.4359 227.361C84.2283 225.106 83.7855 222.57 83.8257 219.873C79.3172 219.994 73.8022 218.746 67.2809 215.727C67.0796 214.117 67.8042 211.339 69.4546 207.474C76.9824 209.769 82.3363 210.453 85.4359 209.527C86.7644 204.214 88.4148 198.86 88.5759 194.029Z" fill="#5EA7EF"/>
<path d="M85.0727 187.951C84.6701 188.595 84.2676 189.441 84.2676 190.205C84.5896 190.447 85.274 190.568 85.5155 190.568" fill="#770649"/>
<path d="M86.4814 188.031C86.6815 188.031 86.8437 187.869 86.8437 187.669C86.8437 187.469 86.6815 187.307 86.4814 187.307C86.2813 187.307 86.1191 187.469 86.1191 187.669C86.1191 187.869 86.2813 188.031 86.4814 188.031Z" fill="#3D0220"/>
<path d="M85.4355 191.777C85.7576 191.696 85.9991 191.616 86.2407 191.495C86.4822 191.374 86.6835 191.213 86.9653 191.012C86.8847 191.334 86.6835 191.575 86.3614 191.736C86.0796 191.897 85.7173 191.897 85.4355 191.777Z" fill="#3D0220"/>
<path d="M85.5566 186.945C85.8787 186.784 86.1605 186.663 86.4825 186.583C86.6435 186.542 86.8448 186.542 87.0461 186.663C87.2071 186.744 87.3279 186.905 87.3681 187.066C87.0863 186.824 86.8448 186.824 86.5228 186.864C86.241 186.905 85.9189 187.025 85.5566 186.945Z" fill="#3D0220"/>
<path d="M39.9863 202.48C40.7914 201.595 41.5563 200.749 42.3614 199.904C42.6029 199.663 42.6834 199.421 42.5627 199.059C42.3614 198.535 42.3211 197.972 42.3211 197.408C42.3211 196.724 42.5224 196.12 43.0055 195.637C43.8911 194.711 44.6962 193.785 45.5415 192.819C45.9844 192.336 46.3869 192.256 46.9102 192.658C47.9166 193.423 48.8425 194.309 49.7683 195.194C50.2112 195.637 50.1306 196.08 49.7281 196.563C48.9632 197.408 48.1179 198.254 47.3933 199.179C46.6284 200.105 45.6623 200.347 44.5754 200.266C44.3741 200.266 44.1729 200.266 43.9716 200.186C43.4483 199.985 43.1665 200.266 42.8444 200.588C42.1199 201.434 41.3953 202.239 40.6304 203.084C40.5499 202.762 40.3486 202.521 39.9863 202.48ZM46.9102 196.563C46.4674 197.046 46.0246 197.529 45.5818 198.012C45.461 198.173 45.139 198.334 45.4208 198.576C45.7428 198.857 45.8233 198.455 45.9441 198.294C46.0246 198.213 46.1051 198.133 46.1856 198.012C46.9907 197.126 47.7958 196.201 48.6009 195.315C48.7217 195.154 48.9632 194.993 48.7217 194.792C48.4802 194.59 48.3594 194.832 48.2386 194.993C47.7958 195.557 47.353 196.04 46.9102 196.563ZM45.1793 194.953C45.6623 194.429 46.1051 193.906 46.5882 193.383C46.7089 193.262 46.8297 193.101 46.6687 192.94C46.5077 192.779 46.3869 192.9 46.2661 193.061C45.3403 194.107 44.3741 195.154 43.4483 196.201C43.3275 196.321 43.1665 196.482 43.3275 196.684C43.5288 196.845 43.6496 196.684 43.7703 196.523C44.2131 195.999 44.6962 195.476 45.1793 194.953ZM46.2259 195.879C45.7428 196.402 45.2598 196.925 44.817 197.449C44.6962 197.569 44.5352 197.69 44.6962 197.851C44.8572 198.052 44.978 197.851 45.0987 197.73C46.0649 196.684 46.9907 195.637 47.9166 194.59C48.0374 194.47 48.1984 194.349 47.9971 194.188C47.7958 194.027 47.7153 194.228 47.5946 194.349C47.1518 194.872 46.7089 195.355 46.2259 195.879ZM47.6751 197.167C47.192 197.69 46.7089 198.213 46.2661 198.737C46.1454 198.857 45.9844 198.978 46.1454 199.139C46.3467 199.34 46.4272 199.139 46.5479 199.018C47.4738 197.972 48.3997 196.965 49.3658 195.919C49.4866 195.798 49.6476 195.637 49.4866 195.476C49.2853 195.275 49.2048 195.516 49.084 195.597C48.6009 196.16 48.1179 196.684 47.6751 197.167ZM45.5415 195.315C45.0987 195.838 44.6157 196.321 44.1729 196.845C44.0521 196.965 43.8911 197.086 44.0521 197.247C44.2534 197.408 44.3339 197.247 44.4547 197.126C45.3805 196.08 46.3064 195.073 47.2725 194.027C47.3933 193.906 47.5543 193.785 47.3933 193.584C47.2323 193.423 47.1115 193.584 46.9907 193.705C46.4674 194.268 45.9844 194.792 45.5415 195.315Z" fill="#FFEBF5"/>
<path d="M39.9864 202.48C40.3487 202.521 40.5097 202.803 40.6707 203.084C40.711 203.366 40.5902 203.567 40.4292 203.769C38.4164 206.023 36.3634 208.277 34.3507 210.491C34.0286 210.854 33.5858 210.894 33.304 210.612C32.982 210.33 32.982 209.887 33.304 209.525C35.3168 207.271 37.3698 205.017 39.3826 202.762C39.5033 202.561 39.7046 202.48 39.9864 202.48Z" fill="#F9D2E1"/>
<path d="M0.980469 229.734L12.735 259.523L20.625 284.683H23.7649L11.6884 229.734H0.980469Z" fill="#FDA5C4"/>
<path d="M-1.39426 229.734C-1.51502 240.2 -3.32651 254.289 -3.64855 254.933C-3.84983 255.376 -10.5724 260.891 -23.8164 271.519L-21.6829 273.813C-6.06387 264.715 2.10794 259.522 2.83254 258.315C3.91943 256.503 7.46188 239.717 10.2797 229.693H-1.39426V229.734Z" fill="#FDA5C4"/>
<path d="M8.90919 282.106L23.7231 280.496L12.7334 229.734H-0.550781L8.90919 282.106Z" fill="#F9D2E1"/>
<path d="M-20.7188 267.816L-11.0172 279.329C-0.792426 268.138 5.16534 260.852 6.89632 257.43C8.62729 254.008 10.1167 244.79 11.4854 229.734H-3.44927C-4.17386 242.978 -4.69718 249.902 -4.93871 250.546C-5.2205 251.15 -10.4537 256.907 -20.7188 267.816Z" fill="#FFEBF5"/>
<path d="M5.28709 195.879C8.02445 195.879 9.03083 192.618 10.5605 190.807C11.6877 189.519 13.5797 189.921 14.1432 188.11C15.5522 183.561 11.7682 180.381 6.81679 180.381C1.8654 180.381 -1.43552 183.199 -2.16012 187.385C-2.88471 191.572 0.335705 195.879 5.28709 195.879Z" fill="#8E1B5A"/>
<path d="M5.56821 192.981C4.48132 191.693 3.71647 190.083 3.83723 188.311C4.19953 183.199 11.3247 184.326 12.7336 186.902C14.1426 189.479 13.9413 196.04 12.1701 196.523C11.4455 196.725 9.91577 196.242 8.38607 195.316L9.3522 202.199H3.5957L5.56821 192.981Z" fill="#FDA5C4"/>
<path d="M8.02356 189.68C7.82229 189.559 7.58076 189.519 7.33923 189.519C6.53412 189.519 5.84979 190.163 5.84979 190.968C5.84979 191.29 5.97055 191.572 6.13157 191.813C5.76927 192.377 5.52775 192.981 5.44723 193.625C4.23958 193.625 -0.188495 189.036 4.19932 184.728C8.58714 180.421 14.9877 186.58 13.0555 186.942C11.9686 187.103 9.75454 188.15 8.02356 189.68Z" fill="#8E1B5A"/>
<path d="M13.4595 191.088C13.8621 192.497 15.5528 193.503 13.057 193.382C13.0167 192.859 13.057 192.336 13.057 191.772" fill="#FDA5C4"/>
<path d="M14.4238 208.038L22.7567 203.489C24.1253 201.838 25.494 200.55 26.8627 199.664C27.2652 199.503 27.9898 199.383 27.3055 200.59C26.6212 201.798 25.9771 203.046 26.3394 203.448C26.6614 203.811 27.547 203.287 27.9496 203.932C28.2314 204.334 26.7822 204.978 23.5618 205.864L17.5235 211.379L14.4238 208.038ZM27.4665 211.862L31.1297 209.849C31.6531 207.917 32.2569 206.91 32.9815 206.91C33.545 206.669 32.5789 209.124 33.6256 208.923C34.6722 208.722 37.2083 206.83 37.6511 207.192C38.2952 207.756 37.7316 209.487 37.0473 210.372C35.7591 211.983 34.7124 212.546 32.1361 213.271C30.7674 213.633 29.3183 214.398 27.7483 215.565L27.4665 211.862Z" fill="#FDA5C4"/>
<path d="M10.3998 206.991C13.2982 206.951 17.203 206.347 21.3493 203.73L22.9595 207.353C20.1014 210.212 16.0758 212.506 12.5736 212.426C9.79602 212.345 8.38709 209.004 10.3998 206.991Z" fill="#5B0434"/>
<path d="M14.3038 212.828C17.4035 213.593 22.5964 212.707 29.8826 210.09C31.6941 213.834 32.5394 216.491 32.3784 218.101C26.1388 221.362 20.7849 222.811 16.3568 222.932C16.4776 225.548 16.1958 228.044 15.1089 230.298C12.8949 234.968 0.0132107 230.661 -4.2941 231.506C-6.99119 222.69 -1.75802 219.108 -1.75802 213.472C-1.75802 207.313 3.19337 197.812 3.91796 197.812H10.5601C10.9224 202.522 12.7741 207.715 14.3038 212.828Z" fill="#770649"/>
<path d="M13.1767 194.872C12.6534 194.993 12.1301 194.913 11.647 194.792L11.808 194.55C11.9691 194.752 12.2106 194.953 12.4521 195.114C12.6937 195.275 12.9352 195.436 13.217 195.597C13.0559 195.597 12.8949 195.557 12.7742 195.517C12.6131 195.476 12.4924 195.396 12.3314 195.356C12.0496 195.195 11.808 195.034 11.6068 194.752L11.3652 194.43L11.7275 194.51C12.1703 194.631 12.6534 194.752 13.1767 194.872Z" fill="#8E1B5A"/>
<path d="M10.8418 190.002C11.1236 189.801 11.3651 189.6 11.7274 189.479C11.8884 189.439 12.0897 189.398 12.291 189.439C12.4923 189.479 12.6533 189.559 12.774 189.72C12.4118 189.72 12.1702 189.801 11.8482 189.881C11.6872 189.922 11.5261 189.962 11.3651 190.002C11.2041 190.002 11.0431 190.042 10.8418 190.002Z" fill="#8E1B5A"/>
<path d="M12.292 191.289C12.4921 191.289 12.6543 191.127 12.6543 190.927C12.6543 190.727 12.4921 190.564 12.292 190.564C12.0919 190.564 11.9297 190.727 11.9297 190.927C11.9297 191.127 12.0919 191.289 12.292 191.289Z" fill="#8E1B5A"/>
<path d="M234.507 19.1615C239.246 19.1615 243.087 15.3197 243.087 10.5807C243.087 5.84172 239.246 2 234.507 2C229.768 2 225.926 5.84172 225.926 10.5807C225.926 15.3197 229.768 19.1615 234.507 19.1615Z" fill="#FDA5C4"/>
<path d="M335.603 24.5176C335.603 24.5176 324.89 22.8534 321.717 21.9694C321.717 21.9694 320.937 19.1091 319.793 18.4331C318.701 17.757 316.933 18.3291 316.309 19.0051C316.309 19.0051 316.205 15.7808 314.905 14.8448C313.605 13.9087 312.617 13.6487 311.525 13.7527C310.484 13.8567 308.664 14.7928 308.664 14.7928C308.664 14.7928 308.144 12.5566 306.428 11.3605C304.712 10.1644 303.568 10.8404 302.944 11.2565C302.32 11.6725 301.228 12.5046 301.228 12.5046C301.228 12.5046 297.223 6.73208 293.219 5.32796C289.267 3.92384 280.894 4.33987 277.878 6.31604C274.861 8.34422 273.249 9.64433 273.249 9.64433C273.249 9.64433 272.781 7.92818 271.065 7.56415C269.349 7.20012 266.645 7.82417 265.865 8.91626C265.085 10.0084 264.617 10.7364 264.565 10.8924C264.513 11.0484 263.837 9.48831 262.38 9.64433C260.924 9.80034 259.572 10.3724 259 10.9964C258.428 11.6725 258.064 11.9845 258.064 11.9845C258.064 11.9845 257.128 10.0084 255.36 10.3724C253.592 10.7364 253.852 10.8924 252.552 11.8805C252.552 11.8805 250.991 11.0484 249.951 11.1004C248.911 11.2045 248.547 12.9726 248.547 12.9726C248.235 12.8686 246.675 11.2045 244.231 11.4645C241.787 11.7245 240.539 15.1568 240.539 15.1568C238.198 15.1048 238.25 14.6888 234.558 15.2088C230.866 15.7288 230.606 20.3052 230.034 20.1492C229.462 19.9932 228.37 19.7852 226.757 20.4092C225.145 21.0333 225.613 22.6454 224.261 22.9055C222.909 23.2175 211 24.5176 211 24.5176H222.753C224.781 24.7256 226.757 25.0376 228.89 25.3497C232.218 25.8177 235.598 24.8816 238.666 26.1297C241.891 27.4298 245.011 28.5219 248.547 28.7299C251.771 28.886 254.268 27.1698 257.388 26.7018C260.248 26.2857 261.444 28.886 264.357 29.354C266.177 29.614 270.285 28.5739 270.857 26.7538C273.457 29.718 275.642 28.2099 278.762 27.4298C280.686 26.9618 281.154 27.4818 283.286 28.7299C285.886 30.2381 288.019 31.0181 291.139 31.1742C297.171 31.4342 301.8 30.8621 306.74 27.3258C307.572 26.7538 308.82 25.3497 309.808 25.0896C311.005 24.7776 312.981 25.6617 314.333 25.8697C317.245 26.3898 319.013 25.7137 321.301 25.3497C322.133 25.2457 327.698 25.9737 328.27 24.5176H335.603V24.5176Z" fill="#FFEBF5"/>
<path d="M340.686 248.589C340.173 248.589 339.75 248.072 339.75 247.463V196.774C339.75 196.135 340.173 195.648 340.686 195.648C341.199 195.648 341.622 196.166 341.622 196.774V247.463C341.592 248.072 341.169 248.589 340.686 248.589Z" fill="#FC6EB5"/>
<path d="M340.688 185V200.426H327.344C327.344 200.456 340.446 185.274 340.688 185Z" fill="#FFEAF4"/>
<path d="M314.059 200.395L340.686 185L327.342 200.456L314.059 200.395Z" fill="#FC6EB5"/>
<path d="M303.824 199.756C303.824 199.756 330.059 185.396 340.686 185L314.058 200.365L303.764 200.426C303.764 200.456 303.009 200.517 303.824 199.756Z" fill="#FFEAF4"/>
<path d="M340.688 200.455C340.688 201.246 340.265 201.916 339.752 201.916H328.4C327.887 201.916 327.344 201.246 327.344 200.455" fill="#FC6EB5"/>
<path d="M327.402 200.425C327.402 201.216 326.98 201.855 326.467 201.855H315.115C314.602 201.855 314.059 201.186 314.059 200.395" fill="#FFEAF4"/>
<path d="M314.059 200.365C314.059 201.156 313.727 201.795 313.305 201.795H304.157C303.734 201.795 303.402 201.156 303.402 200.365" fill="#FC6EB5"/>
<path d="M340.686 185V200.426H354.029C354.06 200.456 340.957 185.274 340.686 185Z" fill="#FC6EB5"/>
<path d="M367.343 200.395L340.686 185L354.06 200.456L367.343 200.395Z" fill="#FFEAF4"/>
<path d="M377.578 199.756C377.578 199.756 351.344 185.396 340.717 185L367.344 200.365L377.639 200.426C377.639 200.456 378.394 200.517 377.578 199.756Z" fill="#FC6EB5"/>
<path d="M340.686 200.455C340.686 201.246 341.108 201.916 341.621 201.916H352.973C353.486 201.916 354.029 201.246 354.029 200.455" fill="#FFEAF4"/>
<path d="M354 200.425C354 201.216 354.423 201.855 354.936 201.855H366.287C366.8 201.855 367.344 201.186 367.344 200.395" fill="#FC6EB5"/>
<path d="M283.748 223.274C283.748 225.678 282.238 227.808 279.914 229.116C279.37 229.42 279.733 231.246 279.642 231.581C279.551 231.885 277.589 230.09 277.257 230.181C276.351 230.394 275.385 230.516 274.389 230.516C269.227 230.516 265 227.26 265 223.274C265 219.289 269.196 216.033 274.389 216.033C279.582 216.033 283.748 219.289 283.748 223.274Z" fill="#F9D2E1"/>
<path d="M351.464 238.914C351.464 241.926 348.173 244.33 344.098 244.33C341.562 244.33 339.328 243.386 337.999 241.956C337.728 241.683 335.192 241.591 335.494 241.348C335.977 240.983 336.973 240.344 336.882 240.009C336.792 239.644 336.731 239.279 336.731 238.914C336.731 235.902 340.022 233.498 344.098 233.498C348.173 233.498 351.464 235.902 351.464 238.914Z" fill="#F9D2E1"/>
<path d="M286.979 229.269C286.979 231.886 288.82 234.229 291.658 235.659C292.322 235.993 291.869 238.001 292.02 238.336C292.141 238.671 294.526 236.723 294.949 236.815C296.066 237.058 297.243 237.21 298.481 237.21C304.821 237.21 309.953 233.65 309.953 229.269C309.953 224.888 304.821 221.328 298.481 221.328C292.141 221.328 286.979 224.888 286.979 229.269Z" fill="#F9D2E1"/>
<path d="M272.728 252.545L275.807 252.332C273.996 260.182 273.03 264.289 272.909 264.654C272.638 265.506 273.422 266.693 273.755 267.332C272.819 267.849 272.819 266.206 271.641 266.875C270.585 267.484 269.8 268.488 268.471 267.758C268.32 267.666 268.109 267.301 268.502 266.997C269.498 266.206 270.887 264.837 271.068 264.411C271.309 263.863 271.883 259.908 272.728 252.545Z" fill="#F980AF"/>
<path d="M281.514 243.052L282.721 242.748C285.136 249.442 295.341 253.397 296.125 255.922C296.427 256.835 295.763 257.352 296.156 257.626L294.646 258.904C294.344 258.6 293.831 259.239 292.593 258.904C291.355 258.6 282.087 251.145 281.514 243.052Z" fill="#BC0C5C"/>
<path d="M285.077 236.175C285.56 237.97 286.194 242.047 285.56 242.686H281.454C281.454 242.686 281.454 242.686 281.454 242.656C279.945 242.473 278.768 241.195 278.768 239.613V236.632C278.768 234.928 280.126 233.559 281.817 233.559H282.088C283.598 233.559 284.866 234.684 285.077 236.175Z" fill="#F9D2E1"/>
<path d="M280.337 239.036C279.672 238.275 279.25 237.332 279.31 236.267C279.522 233.224 283.748 233.894 284.563 235.415C285.378 236.936 285.288 240.861 284.231 241.135C283.808 241.257 282.903 240.983 281.997 240.405L282.571 244.512H279.189L280.337 239.036Z" fill="#F980AF"/>
<path d="M281.273 238.517C281.424 240.221 281.364 242.138 280.911 242.594H276.805C276.564 238.609 278.798 240.13 278.798 236.388C278.949 236.266 279.07 236.114 279.19 235.992V235.87C279.915 234.41 280.79 233.68 281.907 233.68C283.538 233.68 284.051 234.44 284.504 235.11C284.172 236.235 282.904 236.418 281.756 237.118C281.636 236.996 281.455 236.935 281.273 236.935C280.851 236.935 280.488 237.3 280.488 237.726C280.488 238.152 280.851 238.517 281.273 238.517C281.243 238.517 281.243 238.517 281.273 238.517Z" fill="#F9D2E1"/>
<path d="M304.789 266.784C301.982 263.955 300.05 261.855 299.023 260.456C297.242 258.052 295.793 255.922 295.31 255.101C294.163 253.123 297.151 251.845 297.936 252.728C299.144 254.066 301.861 258.417 306.088 265.78L304.789 266.784Z" fill="#B28B67"/>
<path d="M300.866 266.205L295.01 254.856C293.802 252.818 298.451 250.901 299.296 251.814C301.198 253.913 306.059 262.493 306.602 263.132L300.866 266.205Z" fill="#F980AF"/>
<path d="M298.026 267.493C297.318 265.858 295.056 260.061 294.373 257.234C294.179 256.411 293.99 255.631 293.828 254.912C293.34 252.714 297.222 251.462 297.616 253.584C298.556 258.849 299.574 266.292 299.684 266.929C299.864 267.819 298.478 268.527 298.026 267.493Z" fill="#B28B67"/>
<path d="M297.328 266.86C297.18 267.3 297.108 267.609 297.123 267.828C297.122 268.073 297.181 268.458 297.288 268.941C297.573 268.932 300.228 268.865 305.269 268.715C305.458 268.019 305.317 267.656 304.887 267.616C304.43 267.56 304.067 267.524 303.771 267.492L300.019 265.938C299.94 265.892 299.869 265.956 299.839 266.008L299.616 266.58C299.211 266.8 298.882 266.888 298.623 266.913C298.406 266.927 298.114 266.827 297.744 266.682C297.572 266.616 297.418 266.702 297.328 266.86C297.343 266.834 297.343 266.834 297.328 266.86Z" fill="#E4E4E4"/>
<path d="M303.642 266.418C303.552 266.813 303.491 267.118 303.522 267.3C303.552 267.544 303.612 267.878 303.733 268.304C304.005 268.274 306.39 268.03 310.888 267.574C311.009 266.935 310.858 266.6 310.465 266.6C310.073 266.6 309.71 266.57 309.439 266.57L305.967 265.414C305.907 265.383 305.816 265.414 305.816 265.505L305.665 266.053C305.303 266.266 305.031 266.387 304.789 266.418C304.608 266.448 304.337 266.387 303.974 266.266C303.854 266.205 303.703 266.266 303.642 266.418Z" fill="#E4E4E4"/>
<path d="M293.59 259.574C291.96 262.921 290.541 265.05 286.979 266.967C283.054 268.549 279.824 267.271 277.861 262.677L284.412 258.6C285.439 258.326 289.545 252.393 297.666 251.298C299.175 251.146 299.809 252.971 300.111 253.671C300.111 253.702 301.772 257.718 303.704 265.689L296.247 265.598L294.224 259.543C294.013 259.178 293.832 259.209 293.59 259.574Z" fill="#FDA5C4"/>
<path d="M283.628 243.812C284.141 252.879 289.485 254.826 288.579 258.538C287.824 261.611 278.918 265.505 277.137 262.676C276.412 261.52 276.02 260.12 275.869 258.538C275.537 259.755 275.295 260.82 275.114 261.702C274.812 263.223 273.243 263.588 273.303 264.167L271.19 263.741C271.28 262.95 270.284 262.645 270.405 260.85C271.039 252.909 273.786 247.007 278.677 243.112V242.352C278.677 242.047 278.918 241.773 279.25 241.773H283.054C283.356 241.773 283.628 242.017 283.628 242.352V243.812Z" fill="#DD1D69"/>
<path d="M294.012 252.15C294.012 252.15 295.219 253.853 295.461 254.097C295.702 254.34 295.853 254.523 295.914 254.371C296.155 253.853 295.733 253.306 295.763 253.154C295.883 252.819 296.94 253.58 297.061 253.671C297.272 253.853 298.178 254.432 297.997 253.762C297.816 253.032 296.668 251.146 295.944 250.811C295.4 250.568 294.072 250.811 293.649 251.267C293.378 251.602 292.955 252.423 292.955 252.515C292.955 252.667 294.012 252.15 294.012 252.15Z" fill="#F980AF"/>
<path d="M284.23 238.093C284.139 238.063 284.049 238.062 283.988 238.062C283.867 238.549 284.501 238.275 284.2 238.093" fill="#BC0C5C"/>
<path d="M285.046 238.518C285.015 238.791 285.589 239.735 285.348 239.917C285.227 240.008 284.774 239.826 284.714 239.735C284.593 239.461 284.864 238.761 285.046 238.518Z" fill="#F980AF"/>
<path d="M283.537 237.94C283.628 237.757 283.809 237.666 283.99 237.605C284.171 237.544 284.382 237.544 284.533 237.635C284.352 237.727 284.201 237.757 284.05 237.818C283.899 237.879 283.718 237.909 283.537 237.94Z" fill="#BC0C5C"/>
<path d="M284.803 240.497C284.652 240.527 284.471 240.527 284.32 240.527C284.169 240.527 284.018 240.497 283.867 240.497L283.928 240.314C284.018 240.406 284.139 240.527 284.23 240.619C284.35 240.71 284.441 240.801 284.592 240.862C284.441 240.893 284.29 240.832 284.139 240.771C283.988 240.71 283.867 240.588 283.777 240.497L283.596 240.314H283.837C284.018 240.314 284.169 240.345 284.32 240.375L284.803 240.497Z" fill="#BC0C5C"/>
<path d="M313.998 256.074L309.681 252.119C307.416 251.51 306.39 251.054 306.571 250.75C306.873 250.293 307.477 250.658 307.718 250.415C307.96 250.141 307.477 249.228 307.024 248.376C306.541 247.524 307.054 247.585 307.356 247.707C308.322 248.346 309.288 249.259 310.284 250.445L316.202 253.67L313.998 256.074Z" fill="#FC54A0"/>
<path d="M327.373 253.335C322.905 261.154 315.085 261.672 307.84 257.808L311.855 250.384C319.523 254.765 324.595 252.301 327.524 246.459L330.301 247.311C329.637 249.197 328.52 251.327 327.373 253.335Z" fill="#680436"/>
<path d="M323.87 262.037L332.414 267.362C329.154 272.351 325.682 273.964 321.395 271.286C318.406 269.43 310.889 262.95 310.557 262.95" fill="#3581EF"/>
<path d="M308.473 257.716C309.59 258.568 310.344 260.333 308.775 261.55C307.778 262.311 304.88 264.197 301.529 266.205C299.567 267.392 296.125 268.974 291.265 271.012L290.178 269.156C295.582 264.988 299.718 261.915 302.646 259.907C307.597 256.56 308.473 257.716 308.473 257.716Z" fill="#FC54A0"/>
<path d="M311.13 259.785C311.161 260.15 311.07 260.455 310.949 260.728C310.013 263.102 308.262 264.988 306.572 266.692C304.851 268.426 302.919 269.978 300.956 271.408C300.232 271.955 299.205 270.525 299.628 269.917C300.051 269.308 306.36 259.329 308.142 257.716C308.896 257.016 310.949 258.538 311.161 259.694C311.1 259.724 311.13 259.755 311.13 259.785Z" fill="#FC54A0"/>
<path d="M293.217 270.777C293.281 270.604 293.185 270.408 293.013 270.343C292.549 270.178 292.235 269.995 292.056 269.82C291.839 269.589 291.63 269.222 291.43 268.72L291.727 268.017C291.772 267.938 291.724 267.84 291.646 267.794L287.109 266.028C286.81 265.819 286.474 265.553 286.048 265.2C285.607 264.873 285.217 265.067 284.807 265.844C289.063 270.111 291.326 272.375 291.569 272.622C292.049 272.27 292.416 271.994 292.604 271.787C292.803 271.623 292.999 271.281 293.217 270.777Z" fill="#E4E4E4"/>
<path d="M293.59 265.445C294.586 265.019 305.122 257.96 308.443 256.499C309.892 255.861 313.274 260.181 310.798 261.946L295.431 269.674L293.59 265.445Z" fill="#3581EF"/>
<path d="M303.038 270.313C302.947 270.131 302.766 270.07 302.585 270.161C302.132 270.374 301.8 270.465 301.559 270.465C301.257 270.465 300.834 270.344 300.351 270.131L300.049 269.431C300.019 269.34 299.898 269.309 299.838 269.34L295.43 271.378C295.068 271.439 294.645 271.5 294.102 271.561C293.558 271.621 293.438 272.078 293.679 272.899C299.687 272.838 302.857 272.838 303.219 272.838C303.31 272.26 303.37 271.804 303.37 271.5C303.34 271.226 303.249 270.83 303.038 270.313Z" fill="#E4E4E4"/>
<path d="M310.072 256.043C313.816 257.503 324.02 261.306 325.892 262.189L335.19 263.527C335.794 271.712 327.703 274.146 323.416 271.438C320.427 269.582 311.703 263.527 311.371 263.497C311.159 263.466 309.982 263.801 304.276 270.251L299.898 267.696C300.412 266.844 303.461 261.276 306.631 257.503C307.446 256.59 308.472 255.434 310.072 256.043Z" fill="#5EA7EF"/>
<path d="M331.508 249.837H327.463L328.157 244.939C327.07 245.608 325.984 245.912 325.47 245.791C324.202 245.456 324.082 240.801 325.078 238.945C326.044 237.119 331.086 236.298 331.357 239.949C331.448 241.227 330.904 242.353 330.15 243.265L331.508 249.837Z" fill="#FC54A0"/>
<path d="M327.614 240.465L327.946 239.431L329.969 239.248V239.066C327.614 239.096 325.984 238.975 325.078 238.731C325.108 237.94 325.954 237.027 328.127 237.027C330.542 237.027 331.841 238.457 331.841 240.1C331.841 241.591 330.875 243.447 330.15 243.508C329.969 243.478 329.788 243.234 329.637 242.93C329.939 242.778 330.15 242.443 330.15 241.987C330.15 241.561 329.758 241.135 329.305 241.135C329.124 241.135 328.973 241.196 328.852 241.287C328.55 240.8 328.157 240.435 327.614 240.465Z" fill="#770649"/>
<path d="M344.912 271.865C345.153 272.352 346.935 273.873 348.203 274.725C348.716 275.06 348.504 275.516 348.293 275.638C346.753 276.581 345.757 275.455 344.429 274.847C342.98 274.177 343.101 276.094 341.953 275.577C342.316 274.786 343.131 273.295 342.738 272.321C342.557 271.895 340.444 267.058 336.398 257.869H340.112C342.98 266.51 344.58 271.195 344.912 271.865Z" fill="#FC54A0"/>
<path d="M331.356 245.15H331.658C338.149 251.053 342.375 259.42 344.398 270.191H335.522C335.462 268.152 335.462 268.122 335.281 266.174L323.869 262.706C325.107 257.108 326.979 253.761 326.979 246.124L331.356 245.15Z" fill="#84033E"/>
<path d="M335.282 266.174L332.232 265.231C332.897 262.736 333.621 258.081 333.319 253.365C334.285 256.773 334.949 262.341 335.282 266.174Z" fill="#680436"/>
<path d="M324.472 241.621C324.563 242.26 323.023 243.812 324.563 243.812Z" fill="#FC54A0"/>
<path d="M325.529 241.469C325.167 241.408 325.136 241.834 325.438 241.864C325.77 241.895 325.74 241.56 325.529 241.469Z" fill="#770649"/>
<path d="M324.986 241.042C325.077 240.982 325.167 240.921 325.288 240.86C325.379 240.799 325.5 240.769 325.65 240.799C325.711 240.799 325.801 240.829 325.862 240.86C325.922 240.89 325.983 240.951 326.013 240.982C326.103 241.073 326.134 241.164 326.194 241.286C326.073 241.286 325.952 241.195 325.892 241.164C325.801 241.103 325.741 241.103 325.681 241.073C325.59 241.073 325.5 241.073 325.409 241.073C325.228 241.073 325.077 241.073 324.986 241.042Z" fill="#770649"/>
<path d="M324.623 244.602C324.804 244.541 324.985 244.48 325.166 244.45C325.348 244.389 325.499 244.359 325.71 244.328C325.74 244.328 325.74 244.328 325.77 244.328C325.8 244.328 325.831 244.359 325.861 244.389C325.891 244.419 325.921 244.511 325.891 244.572C325.831 244.693 325.8 244.663 325.77 244.693L325.649 244.754C325.559 244.785 325.499 244.845 325.408 244.876C325.227 244.967 325.046 245.028 324.834 244.997C325.015 244.906 325.136 244.785 325.287 244.663C325.348 244.602 325.438 244.541 325.499 244.48L325.619 244.389C325.619 244.389 325.649 244.359 325.589 244.419C325.559 244.48 325.589 244.541 325.619 244.541C325.619 244.541 325.649 244.572 325.68 244.572C325.71 244.572 325.71 244.572 325.71 244.572C325.559 244.602 325.348 244.632 325.166 244.632C324.985 244.663 324.804 244.663 324.623 244.602Z" fill="#770649"/>
<path d="M106.045 17.7343C106.045 17.7343 99.128 16.6422 95.7997 15.9142C95.8517 15.9142 95.9037 15.8622 95.9557 15.8622C95.9037 15.0301 95.2277 14.562 94.2396 14.25C93.9796 13.626 93.6156 13.0019 93.1995 12.7939C92.3154 12.2738 90.8593 12.6899 90.3913 13.2619C90.3913 13.2619 90.2873 10.6617 89.2472 9.88165C88.2071 9.10158 87.375 8.89356 86.491 8.99757C85.6589 9.10158 84.1508 9.82964 84.1508 9.82964C84.1508 9.82964 83.7347 8.00949 82.3306 7.07341C80.9265 6.08532 79.9904 6.65737 79.5223 6.9694C79.0543 7.28142 78.1182 8.00949 78.1182 8.00949C78.1182 8.00949 74.842 3.32909 71.6177 2.18499C68.3934 1.04089 61.6328 1.35292 59.1886 3.01706C56.7444 4.6292 55.4443 5.72129 55.4443 5.72129C55.4443 5.72129 55.0283 4.47319 53.6762 4.05715C51.908 3.4851 50.4519 5.98131 50.4519 5.98131C50.4519 5.98131 46.7596 1.92497 44.6794 1.45693C42.5992 0.988889 39.999 0.468843 37.1907 2.18499C34.4865 3.79713 34.5905 8.32151 34.6425 8.73755C34.4345 8.68554 33.8625 8.58153 32.0943 8.42552C28.766 8.06149 27.0499 14.406 27.0499 14.406C24.8657 15.1341 15.6609 16.4862 15.6609 16.4862C14.6208 16.6422 5 17.7343 5 17.7343H17.221C20.2893 18.4104 23.2536 19.3985 26.6338 19.2424C26.6338 18.9824 26.6859 18.7744 26.7379 18.5144C28.402 21.6867 33.0304 18.8784 35.5266 19.0344C37.7108 19.1384 39.583 20.1265 41.9752 20.0745C43.8473 20.0745 45.5635 19.5545 47.3316 19.5545C50.6599 19.5025 54.1442 20.5426 57.5765 20.0745C59.5006 19.8145 60.7487 18.8784 62.3609 18.8784C65.8452 18.9824 69.3295 19.8145 72.9698 19.5545C74.842 19.3985 76.3501 18.5664 77.8582 17.7343H106.045Z" fill="#FC6EB5"/>
<path d="M166.162 28.8105C166.162 28.8105 159.922 28.1345 155.813 27.6144C154.721 27.0424 153.161 26.7823 151.705 26.5743C151.237 25.9503 151.133 24.9622 149.937 24.5461C148.273 23.9221 147.129 24.1301 146.557 24.2861C145.985 24.4421 145.673 19.7617 141.928 19.2417C138.132 18.7216 138.184 19.1377 135.792 19.1897C135.792 19.1897 134.544 15.6534 131.995 15.3934C129.447 15.1333 127.887 16.8495 127.575 16.9535C127.575 16.9535 127.211 15.1333 126.119 15.0293C125.027 14.9253 123.415 15.8094 123.415 15.8094C122.063 14.7693 122.323 14.6133 120.502 14.2493C118.682 13.8852 117.694 15.9134 117.694 15.9134C117.694 15.9134 117.278 15.5494 116.706 14.8733C116.134 14.1973 114.73 13.6252 113.222 13.4692C111.714 13.3132 111.038 14.9253 110.986 14.7693C110.934 14.6133 110.414 13.8852 109.634 12.7411C108.853 11.597 106.045 10.973 104.329 11.337C102.561 11.7011 102.093 13.4692 102.093 13.4692C102.093 13.4692 100.429 12.1171 97.3605 10.0369C94.2402 7.95673 85.6595 7.5407 81.6031 8.99682C77.5468 10.4529 73.3865 16.3814 73.3865 16.3814C73.3865 16.3814 72.2424 15.4974 71.6183 15.0813C70.9943 14.6653 69.7982 13.9372 68.03 15.1853C66.2619 16.4335 65.7418 18.7216 65.7418 18.7216C65.7418 18.7216 63.8696 17.7336 62.7776 17.6296C61.6855 17.5255 60.6454 17.7856 59.2932 18.7737C57.9411 19.7617 57.8371 23.038 57.8371 23.038C57.2131 22.362 55.3929 21.7899 54.2488 22.466C53.1047 23.142 52.2726 26.1063 52.2726 26.1063C48.9964 27.0424 38.0234 28.7585 38.0234 28.7585H44.732C46.8642 29.1225 49.0484 29.4866 51.1806 29.7986C53.5208 30.1626 55.4969 29.6426 57.7331 29.6426C59.4493 29.6426 60.8014 30.2146 62.7776 30.4226C66.7299 30.8387 70.7862 31.4107 74.7386 31.2027C76.9228 31.0987 78.3269 30.1626 80.251 29.6946C82.0192 29.2785 82.7473 29.6946 84.8794 30.1626C87.6877 30.7347 90.5479 30.6827 93.4602 30.6827C94.6563 30.6827 95.9044 30.7867 97.1005 30.6307C97.9325 30.5267 98.0886 29.6426 99.1286 29.6946C101.001 29.7466 102.457 32.5548 104.641 30.4226C106.097 31.6187 107.137 30.3706 108.385 30.2666C111.766 29.9546 115.458 31.2027 118.942 31.2547C121.907 31.3067 124.663 31.2027 127.523 30.5267C129.239 30.1626 131.267 29.0185 132.984 28.9145C135.324 28.7585 138.6 30.1626 141.2 30.2146C143.488 30.2666 145.673 30.1626 147.961 29.7466C149.885 29.3826 151.913 29.2265 153.837 28.8625H166.162V28.8105Z" fill="#FFEBF5"/>
</g>
<defs>
<clipPath id="clip0">
<rect width="360" height="280" fill="white"/>
</clipPath>
</defs>
</svg>
