<svg width="360" height="280" viewBox="0 0 360 280" fill="none" xmlns="http://www.w3.org/2000/svg">
<g clip-path="url(#clip0)">
<path d="M360 -50H0V213H360V-50Z" fill="#C0B9DB"/>
<path d="M360 213H0V280H360V213Z" fill="#2F1A70"/>
<path d="M363.7 18H295.3V110.45H363.7V18Z" fill="url(#paint0_radial)"/>
<mask id="mask0" mask-type="alpha" maskUnits="userSpaceOnUse" x="295" y="18" width="67" height="93">
<path d="M362 18.6797H295.5V110.68H362V18.6797Z" fill="url(#paint1_radial)"/>
</mask>
<g mask="url(#mask0)">
<path d="M351.7 40.9505C351.7 40.9505 348.5 40.4505 347 40.1005H347.05C347.05 39.7005 346.7 39.5005 346.25 39.3505C346.15 39.0505 345.95 38.8005 345.75 38.6505C345.35 38.4005 344.7 38.6005 344.45 38.8505C344.45 38.8505 344.4 37.6505 343.9 37.3005C343.4 36.9505 343.05 36.8505 342.65 36.9005C342.25 36.9505 341.6 37.3005 341.6 37.3005C341.6 37.3005 341.4 36.4505 340.75 36.0005C340.1 35.5505 339.7 35.8005 339.45 35.9505C339.2 36.1005 338.8 36.4005 338.8 36.4005C338.8 36.4005 337.3 34.2505 335.8 33.7005C334.3 33.1505 331.2 33.3005 330.05 34.1005C328.9 34.8505 328.3 35.3505 328.3 35.3505C328.3 35.3505 328.1 34.8005 327.5 34.6005C326.7 34.3505 326 35.5005 326 35.5005C326 35.5005 324.3 33.6505 323.35 33.4005C322.4 33.1505 321.2 32.9505 319.9 33.7505C318.65 34.5005 318.7 36.6005 318.7 36.8005C318.6 36.8005 318.35 36.7505 317.5 36.6505C316 36.5005 315.2 39.4005 315.2 39.4005C314.2 39.7505 309.95 40.3505 309.95 40.3505C309.45 40.4505 305 40.9505 305 40.9505H310.65C312.05 41.2505 313.4 41.7005 315 41.6505C315 41.5505 315 41.4505 315.05 41.3005C315.8 42.7505 317.95 41.4505 319.1 41.5505C320.1 41.6005 321 42.0505 322.05 42.0505C322.9 42.0505 323.7 41.8005 324.5 41.8005C326.05 41.8005 327.65 42.2505 329.2 42.0505C330.05 41.9505 330.65 41.5005 331.4 41.5005C333 41.5505 334.6 41.9505 336.3 41.8005C337.15 41.7505 337.85 41.3505 338.55 40.9505H351.7Z" fill="#FC974C"/>
<path d="M379.1 55.5503C379.1 55.5503 376.2 55.2503 374.35 55.0003C373.85 54.7503 373.15 54.6003 372.45 54.5503C372.25 54.2503 372.2 53.8003 371.65 53.6003C370.9 53.3003 370.35 53.4003 370.1 53.5003C369.85 53.6003 369.7 51.4003 367.95 51.1503C366.2 50.9003 366.25 51.1003 365.1 51.1503C365.1 51.1503 364.55 49.5503 363.35 49.4003C362.2 49.3003 361.45 50.0503 361.3 50.1003C361.3 50.1003 361.15 49.2503 360.65 49.2003C360.15 49.1503 359.4 49.5503 359.4 49.5503C358.8 49.0503 358.9 49.0003 358.05 48.8503C357.2 48.7003 356.75 49.6003 356.75 49.6003C356.75 49.6003 356.55 49.4503 356.3 49.1003C356.05 48.8003 355.4 48.5503 354.7 48.4503C354 48.4003 353.7 49.1003 353.7 49.0503C353.7 49.0003 353.45 48.6503 353.1 48.1003C352.75 47.6003 351.45 47.3003 350.65 47.4503C349.85 47.6003 349.65 48.4003 349.65 48.4003C349.65 48.4003 348.9 47.8003 347.45 46.8503C346 45.9003 342.1 45.7003 340.2 46.3503C338.3 47.0003 336.4 49.7503 336.4 49.7503C336.4 49.7503 335.9 49.3503 335.6 49.1503C335.3 48.9503 334.75 48.6503 333.95 49.2003C333.15 49.7503 332.9 50.8003 332.9 50.8003C332.9 50.8003 332.05 50.3503 331.55 50.3003C331.05 50.2503 330.6 50.3503 329.95 50.8003C329.35 51.2503 329.3 52.7503 329.3 52.7503C329 52.4503 328.2 52.2003 327.65 52.5003C327.15 52.8003 326.75 54.1503 326.75 54.1503C325.25 54.6003 320.2 55.3503 320.2 55.3503H323.3C324.3 55.5003 325.3 55.7003 326.25 55.8503C327.35 56.0003 328.25 55.8003 329.25 55.7503C330.05 55.7503 330.65 56.0003 331.55 56.1003C333.35 56.3003 335.2 56.5503 337.05 56.4503C338.05 56.4003 338.7 56.0003 339.6 55.7503C340.4 55.5503 340.75 55.7503 341.7 55.9503C343 56.2003 344.3 56.2003 345.65 56.2003C346.2 56.2003 346.8 56.2503 347.3 56.2003C347.7 56.1503 347.75 55.7503 348.25 55.7503C349.1 55.8003 349.8 57.0503 350.8 56.1003C351.45 56.6503 351.95 56.0503 352.5 56.0003C354.05 55.8503 355.75 56.4503 357.35 56.4503C358.7 56.4503 360 56.4003 361.3 56.1003C362.1 55.9003 363 55.4003 363.8 55.3503C364.85 55.3003 366.35 55.9003 367.6 55.9503C368.65 56.0003 369.65 55.9503 370.7 55.7503C371.55 55.6003 372.55 55.5003 373.4 55.3503H379.1V55.5503Z" fill="#FC974C"/>
</g>
<path d="M293.8 16V113.85H365.55V16H293.8ZM328.3 108.5H297.7V65.8H328.3V108.5ZM328.3 62.6H297.7V19.95H328.3V62.6ZM362.25 108.5H331.65V65.8H362.25V108.5ZM362.25 62.6H331.65V19.95H362.25V62.6Z" fill="#583F93"/>
<path d="M368.7 113.05H291V120.4H368.7V113.05Z" fill="#3E2884"/>
<path d="M341.8 190.671C341.7 190.771 341.6 190.871 341.5 190.971C338.25 190.821 335.05 190.721 331.8 190.871C329.95 190.971 328.1 191.121 326.15 191.221C329.4 188.471 336.8 188.221 341.8 190.671Z" fill="#3E2884"/>
<path d="M342.2 187.721C342.1 187.671 342.05 187.621 341.95 187.571C342.75 182.121 345.2 177.771 350.3 175.171C349.85 175.821 349.4 176.521 348.9 177.171C346.4 180.471 344.2 183.921 342.3 187.621C342.3 187.671 342.25 187.671 342.2 187.721Z" fill="#3E2884"/>
<path d="M340 185.471C340.15 185.671 340.25 185.871 340.25 186.121C337.8 185.621 335.35 185.271 332.9 185.021C330.45 184.771 327.95 184.671 325.45 184.471C326.05 184.221 326.6 183.971 327.2 183.771C330.15 182.871 333.15 183.071 336.05 183.971C337.15 184.321 338.2 184.921 339.3 185.371C339.5 185.471 339.75 185.871 340 185.471Z" fill="#3E2884"/>
<path d="M335.65 176.621C336 176.921 336.3 177.171 335.65 177.421C334.1 176.771 332.55 176.071 331 175.421C328.45 174.321 325.85 173.421 323.2 172.571C322.85 172.471 322.55 172.371 322 172.171C325.4 171.721 328.35 172.421 331.2 173.821C332.65 174.521 333.95 175.371 335.1 176.471C335.3 176.621 335.4 176.821 335.65 176.621Z" fill="#3E2884"/>
<path d="M339.4 182.32C339.35 182.27 339.3 182.17 339.25 182.12C339.3 176.97 341.1 172.621 345.35 169.521C345.4 169.571 345.5 169.571 345.55 169.621C344.85 170.821 344.2 172.071 343.5 173.271C341.9 176.22 340.55 179.22 339.4 182.32Z" fill="#3E2884"/>
<path d="M337.65 180.721C337.95 180.921 338.1 181.221 337.8 181.521C335.4 180.521 333 179.471 330.55 178.671C328.55 178.021 326.55 177.421 324.45 176.721C326.4 176.371 328.15 176.471 329.95 176.871C332.55 177.471 334.9 178.571 336.95 180.321C337.1 180.521 337.25 180.921 337.65 180.721Z" fill="#3E2884"/>
<path d="M335 173.22C334.5 173.27 334.35 172.92 334.35 172.52C334.6 172.27 334.4 172.02 334.35 171.77C334.1 168.32 334.8 165.07 336.75 162.12C336.9 161.92 337 161.72 337.3 161.62C337.5 161.87 337.35 162.12 337.3 162.37C336.35 165.82 335.55 169.32 335.1 172.92C335.1 173.02 335 173.12 335 173.22Z" fill="#3E2884"/>
<path d="M331.8 169.271C332 169.421 332.45 169.521 332 169.921C329.2 168.221 326.35 166.621 323.3 165.271C323.1 165.171 322.9 165.121 322.75 164.971C326.5 165.021 329.45 166.571 331.8 169.271Z" fill="#3E2884"/>
<path d="M340.45 163.22C340.5 163.17 340.5 163.12 340.55 163.12C340.65 163.22 340.6 163.27 340.5 163.32C340.55 163.27 340.45 163.22 340.45 163.22Z" fill="#3E2884"/>
<path d="M343.7 167.021C343.75 167.021 343.85 166.971 343.9 166.971C343.95 167.071 343.9 167.071 343.8 167.121C343.75 167.121 343.75 167.071 343.7 167.021Z" fill="#3E2884"/>
<path d="M331.85 158.321C330.95 159.771 330.75 161.371 330.6 163.221C330.6 163.071 330.35 162.671 330.25 162.471C330.1 162.171 329.95 161.921 329.8 161.621C329.5 161.071 329.15 160.571 328.75 160.071C327.95 159.071 327 158.171 325.9 157.521C326 157.671 326 157.921 326.15 158.121C326.3 158.371 326.5 158.621 326.65 158.921C327.4 160.071 328.1 161.271 328.85 162.421C329 162.621 330.15 164.421 329.9 164.571C329.85 164.621 329.8 164.621 329.8 164.671C329.8 164.671 329.75 164.671 329.75 164.621C328.7 163.371 327.4 162.371 325.9 161.671C325.65 161.571 325.35 161.321 324.85 161.621C327.05 163.371 328.95 165.321 330.9 167.221C331.3 167.871 331.85 168.471 331.9 169.321C332.1 169.471 332.55 169.571 332.1 169.971C333.15 170.971 333.5 172.371 334.05 173.671C332.55 172.071 330.9 170.721 329 169.721C326.8 168.571 324.2 167.971 322.75 168.271C326.25 169.871 329.6 171.571 332.85 173.571C334.15 174.371 335.2 175.271 335.75 176.72C336.1 177.02 336.4 177.271 335.75 177.521C336 177.771 336.4 177.87 336.5 178.22C336.7 179.17 337.45 179.871 337.8 180.771C338.1 180.971 338.25 181.271 337.95 181.571C338.5 181.971 338.65 182.52 338.85 183.37C336.65 181.82 334.5 180.771 332.05 180.271C329.65 179.771 326.05 180.021 324.9 180.921C325.2 180.971 325.4 180.971 325.65 181.021C329.5 181.471 333.3 182.17 337.05 183.12C338.5 183.47 339.7 184.021 340.15 185.571C340.3 185.771 340.4 185.97 340.4 186.22C340.7 186.77 341.05 187.32 341.3 188.12C335.95 186.02 330.8 185.771 325.9 188.92C326 188.97 326.05 189.02 326.1 188.97C330.95 188.42 335.8 188.021 340.65 188.321C340.95 188.321 341.35 188.17 341.55 188.52C341.95 189.27 342.35 190.07 342.8 191.02C342.35 190.87 342.1 190.82 341.9 190.77C341.8 190.87 341.7 190.971 341.6 191.07C342.85 190.971 343.3 191.77 343.7 192.77C344.6 194.72 345.6 196.62 346.55 198.57C346.65 198.82 346.75 199.07 347.1 198.92C347.45 198.77 347.25 198.52 347.15 198.27C347.1 198.12 347 197.97 346.95 197.82C345.9 195.721 344.9 193.62 343.85 191.52C343.6 191.02 343.65 190.67 343.95 190.27C344.45 189.67 345 189.07 345.4 188.42C346.8 186.221 348.55 184.321 350.25 182.421C351.55 180.971 352.95 179.571 354.25 178.171C348.25 180.171 345.2 184.771 343.4 190.52C343.1 189.52 342.15 188.87 342.35 187.77C342.25 187.72 342.2 187.67 342.1 187.62C341.2 186.67 340.9 185.671 341.45 184.321C343.15 180.121 345.15 176.121 347.4 172.171C345.1 173.471 343.6 175.471 342.5 177.821C341.35 180.171 341.05 182.67 340.8 185.22C340.35 184.27 339.65 183.471 339.55 182.421C339.5 182.371 339.45 182.27 339.4 182.22C338.7 181.37 338.2 180.521 338.65 179.321C339.3 177.721 339.85 176.121 340.5 174.521C341.5 172.021 342.8 169.671 343.95 167.221C343.9 167.171 343.9 167.171 343.85 167.121C341.3 168.821 339.9 171.371 338.9 174.22C338.3 175.97 338.2 177.771 338.1 179.621C337.2 178.371 337.15 178.121 337.35 176.821C337.7 174.721 338.15 172.671 338.65 170.571C339.25 168.121 340 165.721 340.7 163.321L340.65 163.271C339.6 164.171 338.95 165.321 338.4 166.571C337 169.521 336.4 172.671 336.75 175.921C336.8 176.221 336.8 176.521 336.8 176.821C336.15 175.671 335.25 174.671 335.15 173.321C334.65 173.371 334.5 173.021 334.5 172.621C334.25 172.021 334.05 171.421 333.7 170.871C333.3 170.221 333.1 169.671 333.2 168.871C333.55 166.221 334.2 163.621 334.75 161.021C334.95 160.471 335.15 159.921 335.2 159.171C334.75 159.671 334.45 160.071 334.25 160.521C332.75 162.871 332.5 165.471 332.45 168.171C331.45 164.871 331.85 161.571 331.85 158.321Z" fill="#3E2884"/>
<path d="M354.2 192.62C351.85 191.12 350.7 188.72 349.75 186.27C348.1 181.92 347.35 177.32 346.9 172.67C346.9 172.47 346.95 172.27 346.95 172.07C348.6 176.67 350.3 181.27 352.15 185.82C352.95 187.82 354 189.72 354.3 191.87C354.3 192.12 354.25 192.37 354.2 192.62Z" fill="#2F1A70"/>
<path d="M355.25 192.12C355.95 191.27 356.8 190.62 357.75 190.07C362.05 187.62 366.3 184.97 370.35 182.17C370.7 181.92 371.05 181.67 371.55 181.72C371.65 182.47 371 182.72 370.6 183.07C367.25 186.57 363.6 189.77 359.2 191.92C358 192.47 356.75 192.92 355.4 192.92C355.3 192.67 355.05 192.42 355.25 192.12Z" fill="#2F1A70"/>
<path d="M356.95 183.82C361.8 180.42 367.15 177.92 372.05 174.57C371.75 175.37 371.15 175.82 370.6 176.32C367.7 179.07 364.65 181.77 360.95 183.42C359.65 184.02 358.3 184.42 356.8 184.27C356.85 184.17 356.9 184.02 356.95 183.82Z" fill="#2F1A70"/>
<path d="M356.2 183.871C354.7 182.671 354.15 180.921 353.65 179.221C352.6 175.571 352.4 171.821 352.4 168.071C352.4 167.621 351.95 166.921 352.65 166.721C352.85 166.671 352.9 167.571 353 168.021C354 172.221 354.85 176.471 356.1 180.621C356.35 181.421 356.2 182.321 356.6 183.071C356.8 183.471 356.25 183.571 356.2 183.871Z" fill="#2F1A70"/>
<path d="M355.55 188.57C359.2 185.77 363.35 183.77 367.15 181.22C368.1 180.57 369.15 179.97 370.15 179.32C370.3 179.77 370 179.92 369.85 180.07C367.2 182.82 364.35 185.37 361.05 187.27C359.35 188.22 357.55 188.97 355.55 188.87C355.5 188.77 355.5 188.67 355.55 188.57Z" fill="#2F1A70"/>
<path d="M354.95 188.37C352.85 186.57 352 184.07 351.35 181.52C350.5 178.22 350.1 174.82 350.05 171.32C350.45 171.57 350.45 171.92 350.5 172.22C351.7 176.62 353.05 180.97 354.65 185.22C354.9 185.97 354.8 186.77 355.25 187.47C355.25 187.82 355.05 188.07 354.95 188.37Z" fill="#2F1A70"/>
<path d="M354.95 188.371C355.05 188.071 355.3 187.771 355.25 187.421C355.55 186.221 355.9 185.021 356.2 183.871C356.3 183.571 356.8 183.471 356.6 183.071C357 182.071 357.4 181.021 357.8 180.021C358.4 179.721 358.1 179.021 358.35 178.571C359.1 177.921 359.4 176.971 359.85 176.121C360.05 175.921 360.35 175.771 360.4 175.421C360.85 174.721 361.25 173.971 361.7 173.271C361.9 173.021 362.05 172.721 362.25 172.471C362.8 171.621 363.35 170.771 363.9 169.921C363.95 169.771 364 169.671 364.05 169.521C364.85 168.871 365.55 168.121 365.8 167.121C366.55 167.071 366.8 166.371 367.2 165.921C367.3 165.721 367.45 165.521 367.7 165.471C368.05 165.821 367.35 165.971 367.5 166.271C367.25 166.771 366.6 166.971 366.55 167.621C365.55 168.221 365.05 169.221 364.45 170.171C364.1 170.471 363.75 170.721 363.65 171.171C362.8 172.321 362 173.421 361.35 174.671C361.15 175.271 360.4 175.571 360.55 176.321C359.65 177.171 359.4 178.421 358.7 179.421C358.55 179.771 358.4 180.171 358.25 180.521C357.8 181.621 357.35 182.771 356.9 183.871C356.85 184.021 356.8 184.171 356.75 184.321C356.15 185.671 355.85 187.171 355.5 188.571C355.5 188.671 355.45 188.771 355.45 188.871C355.4 189.971 354.8 190.971 355.2 192.121C355.05 192.421 355.25 192.621 355.35 192.871C354.75 192.971 354.9 193.471 354.85 193.821C354.8 195.871 354.95 197.921 355.35 199.921C355.4 200.071 355.45 200.271 355.45 200.421C355.5 200.721 355.5 200.971 355.15 201.071C354.8 201.121 354.8 200.821 354.75 200.621C354.6 199.971 354.5 199.371 354.4 198.721C354.05 196.671 354.2 194.671 354.15 192.621C354.2 192.371 354.25 192.121 354.25 191.871C354.5 190.721 354.75 189.521 354.95 188.371Z" fill="#2F1A70"/>
<path d="M358.35 178.52C358.1 178.97 358.4 179.67 357.8 179.97C356.95 179.12 356.6 178.02 356.25 176.92C355.25 173.37 355.5 169.82 355.7 166.22C355.75 165.32 355.85 164.42 356.1 163.37C356.4 164.47 356.35 165.47 356.5 166.47C356.95 170.02 357.45 173.52 357.95 177.07C358 177.57 357.7 178.17 358.35 178.52Z" fill="#2F1A70"/>
<path d="M360.35 175.371C360.3 175.721 360.05 175.871 359.8 176.071C358.4 174.471 358.15 172.521 357.95 170.571C357.55 167.321 357.95 164.021 358.2 160.771C358.2 160.571 358.25 160.271 358.45 160.271C358.85 160.271 358.75 160.671 358.8 160.921C359.1 164.171 359.45 167.421 359.75 170.671C359.9 172.171 360.35 173.671 360.1 175.221C360.1 175.321 360.3 175.371 360.35 175.371Z" fill="#2F1A70"/>
<path d="M358.25 180.471C358.4 180.121 358.55 179.721 358.7 179.371C358.95 179.721 359.1 179.371 359.3 179.271C363.3 176.721 367.25 174.171 371.25 171.621C371.3 171.571 371.4 171.571 371.6 171.521C371.05 172.521 370.25 173.121 369.55 173.771C367.1 176.121 364.55 178.421 361.35 179.771C360.35 180.221 359.35 180.421 358.25 180.471Z" fill="#2F1A70"/>
<path d="M347 172.07L346.95 172.021C346.95 172.021 346.95 172.07 347 172.07Z" fill="#2F1A70"/>
<path d="M347.5 186.071C352.45 184.721 357.3 182.771 361.8 180.271C363.65 179.271 365.5 178.121 367 176.621C360.1 178.671 353.55 181.721 347.5 185.671C347.15 185.321 347.25 184.721 347.55 184.321C347.85 183.921 348.3 183.671 348.75 183.421C354.45 180.271 359.75 176.521 364.6 172.171C365.7 171.171 366.8 170.121 367.6 168.871C367.35 169.021 367.15 169.121 366.9 169.271C359.9 173.321 353.4 178.171 347.5 183.671C347.5 183.171 347.45 182.721 347.45 182.221C347.45 181.671 347.3 181.421 347.7 181.071C348.35 180.471 349.15 179.971 349.85 179.421C351.25 178.271 352.65 177.121 354 175.921C356.7 173.471 359.2 170.871 361.5 168.121C361.7 167.871 362.65 167.021 362.65 166.671C363.2 165.971 364 165.171 364.4 164.371C364.45 164.221 363.8 164.471 363.75 164.471C363.4 164.621 363.1 164.921 362.8 165.171C361.65 166.021 360.65 166.871 359.55 167.821C358.3 168.921 357.05 170.071 355.85 171.271C353.45 173.671 351.2 176.221 349 178.821C348.9 178.971 348.85 179.071 348.85 179.221C348.2 179.471 348 180.321 347.35 180.571C347.35 179.921 347.35 179.271 347.35 178.621C347.35 178.071 347.25 177.571 347.75 177.171C347.75 177.021 347.75 176.921 347.75 176.771C347.75 176.871 347.75 177.021 347.75 177.121C348.1 177.171 348.95 176.221 349.25 175.971C353.15 172.721 356.4 168.521 359.4 164.471C360.3 163.271 361.75 162.021 361.9 160.471C361.9 160.671 360.85 161.371 360.65 161.571C359.95 162.221 359.15 162.771 358.45 163.471C357.85 164.071 357.3 164.721 356.7 165.321C355.65 166.421 354.6 167.571 353.6 168.721C352.55 169.971 351.4 171.271 350.35 172.621C350.05 172.971 347.8 176.771 347.65 176.721C347.55 176.671 347.35 176.671 347.35 176.621C347.45 175.171 346.7 173.521 348.1 172.321C348.5 172.271 348.7 171.921 348.95 171.671C351.6 168.921 353.85 165.871 355.9 162.671C356.45 161.821 357.05 160.921 357.5 159.971C357.7 159.571 358.15 158.921 358.1 158.471C358.05 157.621 356.2 159.821 356.05 160.021C355.1 161.121 354.2 162.221 353.3 163.321C351.55 165.571 349.95 167.921 348.55 170.371C348.2 171.021 347.8 171.621 347.45 172.221C347.4 172.171 347.3 172.171 347.25 172.121C347.4 171.021 346.9 169.871 347.7 168.871C348 168.871 348.15 168.621 348.3 168.471C349.75 166.621 351.15 164.721 352.35 162.721C352.95 161.721 353.55 160.721 354.05 159.671C354.7 158.371 355.25 157.121 355.7 155.721C355.75 155.571 355.8 155.421 355.75 155.271C355.4 155.271 355.2 155.621 355 155.871C352.45 158.971 350.3 162.271 348.5 165.871C348.1 166.671 347.85 167.521 347.2 168.221C347.1 166.921 347.1 165.671 347.1 164.371C347.1 163.471 347.8 162.671 348.45 162.121C349 161.721 349.35 161.121 349.75 160.571C349.95 160.271 350.4 159.871 350.4 159.471C350.7 159.021 350.95 158.571 351.2 158.121C351.4 157.771 351.9 157.071 351.9 156.721C352.3 155.871 352.85 155.021 352.85 154.021C352.8 153.821 352.75 153.571 352.55 153.821C351.9 154.671 351.15 155.471 350.6 156.371C349.9 157.471 349.25 158.571 348.6 159.671C348.4 159.971 348.2 160.271 348.1 160.621C348 160.871 347.75 162.071 347.3 161.971C347.15 161.921 347.15 161.821 347.15 161.671C347.25 160.871 346.85 160.071 347.3 159.321C347.6 159.321 347.8 159.071 347.95 158.821C349.1 157.221 350.05 155.571 350.7 153.721C351 152.921 351.15 152.171 351.15 151.321C350.5 151.871 350 152.571 349.55 153.271C348.9 154.321 348.15 155.471 347.75 156.671C347.6 157.121 347.5 157.521 347.1 157.821C347.1 157.321 347.05 156.821 347.05 156.321C347.05 156.221 347.05 156.121 347.05 156.071C347.05 155.971 347.1 155.921 347.15 155.821C347.85 154.321 347.7 152.071 347.5 150.471C347.4 149.771 347.45 148.971 346.95 148.371C346.95 148.271 346.9 148.171 346.9 148.121C346.75 147.871 346.75 148.071 346.7 148.171C346.5 148.921 346.25 149.671 346.3 150.421C345.9 152.721 346.25 154.971 346.7 157.221C346.7 157.421 346.7 157.621 346.65 157.821C346.65 158.021 345.95 157.021 345.9 156.921C345.05 154.971 344.2 152.871 342.5 151.521C342.9 154.121 343.95 156.471 345.5 158.521C345.7 158.821 345.8 159.221 346.3 159.221C346.7 160.221 346.4 161.221 346.25 162.221C346.35 161.471 345.8 160.971 345.4 160.471C344.55 159.221 344.1 157.771 343.25 156.571C342.85 155.971 342.4 155.421 341.95 154.921C341.65 154.621 340.65 153.921 340.55 153.571C341.05 155.521 341.95 157.371 343 159.121C343.5 159.971 344.05 160.821 344.65 161.621C344.9 161.971 345.2 162.321 345.45 162.671C345.65 162.921 346.45 163.671 346.45 163.971C346.45 165.321 346.45 166.721 346.4 168.071C346.3 168.071 346.2 168.071 346.05 168.071C345.9 168.071 344.65 165.021 344.45 164.671C343.9 163.571 343.25 162.521 342.6 161.471C341.5 159.421 339.95 157.821 338.65 155.921C338.45 155.671 338.25 155.371 337.9 155.271C337.85 155.371 337.85 155.471 337.9 155.571C339.2 159.421 341.3 162.771 343.6 166.071C344 166.671 344.4 167.121 344.9 167.671C345.45 168.221 346 168.921 346.2 169.671C346.35 170.071 346.4 170.521 346.4 170.921C346.4 171.171 346.1 172.121 346.15 172.271C346 172.021 345.9 171.821 345.75 171.571C344.65 169.671 343.45 167.871 342.2 166.071C341.45 165.021 340.8 163.871 340 162.871C339 161.621 337.85 160.421 336.8 159.271C336.65 159.121 335.25 157.821 335.3 157.721C335.25 157.921 335.2 157.971 335.2 158.021C335.35 158.371 335.5 158.771 335.7 159.121C337.45 162.471 339.6 165.621 342 168.571C343.1 169.921 344.15 171.421 345.65 172.371C346.15 172.821 346.35 173.321 346.3 174.021C346.25 174.871 346.3 175.671 346.3 176.521C346.1 176.471 345.95 176.371 345.75 176.321C345.5 175.721 345.05 175.221 344.7 174.671C342.9 172.121 340.95 169.771 338.85 167.471C337.8 166.321 336.7 165.171 335.6 164.071C335.05 163.521 334.5 162.971 333.95 162.421C333.7 162.171 332.6 161.371 332.6 160.971C332.5 160.871 331.85 160.521 331.85 160.471C331.85 161.071 332.15 161.371 332.35 161.721C335.55 166.571 339.25 170.971 343.4 175.021C344.2 175.821 344.95 176.721 346.05 177.221C346.1 177.271 346.15 177.321 346.2 177.421C346.4 177.621 346.3 178.671 346.3 178.971C346.3 179.321 346.4 179.771 346.3 180.121C346.25 180.271 346.1 180.671 345.85 180.521C345.8 180.471 345.75 180.421 345.7 180.371C345.4 179.871 345.1 179.271 344.7 178.871C344.15 178.171 343.55 177.471 342.95 176.771C341.8 175.421 340.55 174.071 339.3 172.771C336.8 170.171 334.1 167.721 331.3 165.471C330.6 164.921 329.95 164.421 329.25 163.871C329.6 164.971 330.35 165.871 331.05 166.721C332.4 168.321 333.8 169.871 335.25 171.421C337.4 173.721 339.65 175.971 342.1 177.921C343.5 179.021 347.65 181.321 346.05 183.621C340.35 178.071 333.9 173.221 326.95 169.321C326.7 169.171 326.35 169.121 326.3 169.371C331.85 174.921 338.2 179.721 345.1 183.471C345.5 183.671 345.9 183.921 346.15 184.271C346.4 184.621 346.45 185.221 346.1 185.521C340.1 181.571 333.55 178.571 326.65 176.571C327.9 177.971 329.55 178.921 331.2 179.871C335.35 182.121 339.65 184.271 344.25 185.421C344.8 185.571 345.4 185.671 345.85 186.071C346.3 186.421 346.5 187.121 346.2 187.621C340.75 185.971 335 185.371 329.35 185.821C334.75 187.671 340.5 188.371 346.2 187.871C346.6 188.221 346.45 188.971 346 189.271C345.55 189.621 345 189.621 344.45 189.671C340.75 189.921 336.95 190.621 333.9 192.671C338.2 192.771 342.5 191.771 346.3 189.821C346.3 192.271 346.35 194.771 346.35 197.221C346.35 197.471 346.4 197.821 346.65 197.871C347 197.921 347.1 197.471 347.1 197.121C347.1 194.671 347.1 192.221 347.05 189.771C347.2 189.771 347.35 189.821 347.5 189.821C347.55 190.021 347.7 190.121 347.9 190.171C350.25 191.321 352.8 191.921 355.4 192.371C356.7 192.571 358.05 192.771 359.5 192.471C359.25 192.521 358.05 191.671 357.75 191.571C357.1 191.271 356.4 191.071 355.7 190.871C355.3 190.721 354.9 190.621 354.5 190.471C352.15 189.771 349.65 189.621 347.2 189.471C347.15 189.471 347.1 189.471 347.1 189.421C347.1 189.171 347.1 188.971 347.1 188.721C347.1 188.371 347.15 187.921 347.5 187.771C347.6 187.721 347.75 187.721 347.9 187.771C353.4 188.221 359.05 187.471 364.25 185.621C359.1 184.871 353.85 185.821 348.75 187.071C348.3 187.171 347.8 187.271 347.4 187.071C347.3 186.971 347.1 186.271 347.5 186.071Z" fill="#180B4F"/>
<path d="M332.25 194.921H362.2L353.25 226.021H342.45L332.25 194.921Z" fill="#F0E8F5"/>
<path d="M20.8163 213.22H41.3128L44.0327 246.15H13.4823L20.8163 213.22Z" fill="#F0E8F5"/>
<path d="M20.8163 213.22H27.1304L30.9189 246.15H13.4823L20.8163 213.22Z" fill="black" fill-opacity="0.1"/>
<path d="M63.1692 205.254C62.0035 207.197 59.1379 212.637 56.1266 219.048C54.3781 222.788 52.0953 229.199 49.3754 238.233L52.8724 239.836C59.1865 229.685 63.8492 221.865 66.9576 216.328C66.7634 217.979 66.6177 219.728 66.4234 221.525C65.8405 227.693 66.4234 241.001 66.7148 244.838C66.9091 247.267 70.2118 246.635 70.5033 244.693C70.7947 242.75 76.6716 212.199 76.6716 205.788C76.6716 203.36 71.2318 201.368 69.0462 204.331C67.2491 203.02 64.7234 202.68 63.1692 205.254Z" fill="#F0E8F5"/>
<path d="M57.3409 235.999C58.0209 234.202 69.3376 214.434 71.5718 208.314C72.5432 205.643 64.4806 200.057 61.615 204.672L49.6183 233.134L57.3409 235.999Z" fill="#ADA8D4"/>
<path d="M73.1261 202.631C68.3662 201.903 58.458 200.688 43.3042 198.843H25.6248C25.9162 209.48 29.7046 215.065 38.8358 214.725C45.1498 214.482 66.2777 211.325 66.812 211.568C67.0548 211.665 66.4234 219.971 64.9178 236.484L73.4661 236.776C73.4661 234.979 77.0117 216.037 77.0117 207.974C77.0117 205.74 76.1374 203.117 73.1261 202.631Z" fill="#D6CDE4"/>
<path d="M65.8405 245.276C65.9862 244.984 66.3262 244.839 66.6662 244.984C67.4433 245.373 68.0747 245.518 68.5604 245.518C69.0947 245.518 69.8233 245.324 70.7461 244.887L71.2804 243.624C71.3289 243.479 71.5232 243.381 71.6689 243.479L79.6344 247.024C80.2658 247.121 81.0915 247.218 82.0143 247.364C82.9857 247.461 83.2285 248.287 82.7914 249.744C72.0089 249.744 66.2777 249.744 65.6463 249.744C65.452 248.676 65.3548 247.898 65.3548 247.364C65.3063 246.878 65.452 246.198 65.8405 245.276C65.792 245.276 65.8405 245.276 65.8405 245.276Z" fill="#8479C9"/>
<path d="M48.8412 236.727C49.1326 236.581 49.5211 236.679 49.6669 236.97C50.0554 237.747 50.444 238.281 50.784 238.573C51.2211 238.913 51.9011 239.204 52.8725 239.447L54.0381 238.816C54.1839 238.718 54.3781 238.816 54.4267 238.961L58.458 246.684C58.8951 247.17 59.478 247.752 60.1579 248.432C60.8379 249.112 60.5465 249.89 59.2837 250.764C50.8325 244.061 46.3641 240.516 45.8298 240.127C46.3641 239.204 46.7527 238.524 47.0926 238.087C47.4326 237.698 47.9669 237.261 48.8412 236.727C48.7926 236.776 48.8412 236.727 48.8412 236.727Z" fill="#8479C9"/>
<path d="M32.9103 173.538H40.1958L38.9815 164.796C40.9729 165.961 42.8671 166.544 43.7899 166.301C46.0727 165.718 46.267 157.364 44.5185 154.11C42.77 150.807 33.6874 149.399 33.2503 155.907C33.1046 158.19 34.0274 160.181 35.4359 161.833L32.9103 173.538Z" fill="#F0E8F5"/>
<path d="M41.3614 154.596C44.567 154.644 44.9556 154.061 44.9556 152.118C44.4213 151.73 42.6242 151.147 40.5843 150.953C39.5158 150.661 38.3015 150.71 37.0873 151.196C35.6302 151.633 34.6102 151.973 33.6874 153.673C31.696 157.121 33.3474 161.25 35.3873 162.464C35.9216 161.832 36.4073 161.201 36.8444 160.618C36.5044 160.278 36.3102 159.841 36.3102 159.307C36.3102 158.287 37.1359 157.461 38.1558 157.461C38.253 157.461 38.3015 157.461 38.3501 157.461C38.4472 161.007 38.6901 163.338 39.0786 164.455C39.6615 166.204 43.0128 166.641 44.227 166.641C45.3927 166.641 45.1984 165.378 45.1984 164.698C45.1984 164.309 43.9842 164.844 43.9842 164.115C43.9842 163.387 45.5384 162.998 45.8298 162.561C46.2184 162.027 46.3155 161.298 45.7813 161.298C45.0042 161.298 43.4499 162.464 41.6528 162.464C40.4386 162.464 39.7101 160.521 39.4186 156.635C39.9529 155.713 40.5843 154.984 41.3614 154.596Z" fill="#191847"/>
<path d="M44.0327 157.267C43.7413 157.315 43.5956 157.898 43.9356 157.995C44.3241 158.141 44.3727 157.655 44.3241 157.364C44.227 157.315 44.1299 157.315 44.0327 157.267Z" fill="#191847"/>
<path d="M45.3441 157.412C45.4413 157.461 46.3641 160.132 46.6069 160.763C46.2184 161.298 45.587 161.298 45.0527 161.249C45.0041 159.889 44.9556 158.578 45.3927 157.412" fill="#F0E8F5"/>
<path d="M42.7699 157.072C42.6728 156.878 42.7699 156.587 42.9156 156.441C43.0614 156.295 43.2556 156.198 43.4499 156.101C43.6442 156.052 43.8385 156.004 44.0813 156.052C44.2756 156.101 44.5185 156.149 44.6642 156.295C44.4699 156.344 44.2756 156.392 44.1299 156.392C43.9356 156.441 43.7899 156.489 43.6442 156.538C43.4985 156.587 43.3042 156.635 43.1585 156.684C43.0128 156.781 42.8671 156.878 42.7699 157.072Z" fill="#191847"/>
<path d="M23.0991 207.926H29.8989C28.5875 205.74 27.6647 202.243 27.0818 197.435C25.6733 201.466 24.3619 204.963 23.0991 207.926Z" fill="black" fill-opacity="0.1"/>
<path d="M54.1352 200.203L63.752 204.186C66.472 207.391 67.9776 208.703 68.3176 208.168C68.8033 207.391 67.7348 206.663 67.9776 206.08C68.2205 205.497 70.0175 205.546 71.7661 205.691C73.5146 205.837 72.9803 205.06 72.5918 204.671C70.8432 203.603 68.609 202.729 65.9863 202L56.2723 194.86L54.1352 200.203ZM15.0851 214.58C14.648 215.454 11.4424 218.125 9.20814 219.68C8.33388 220.311 8.67388 221.088 9.01386 221.282C11.7823 222.982 13.5794 220.991 15.9593 219.874C18.5821 218.66 18.3393 222.108 20.4278 221.185C19.7964 219.777 18.2907 217.105 19.0193 215.357C19.3107 214.58 21.4477 207.877 25.3819 195.2L19.0193 195.152C16.9793 206.906 15.6679 213.365 15.0851 214.58Z" fill="#F0E8F5"/>
<path d="M62.5377 204.817L65.4034 201.272C53.4552 192.675 49.4239 176.501 39.6614 168.099L37.0386 168.536C36.65 182.475 41.7984 202.243 62.5377 204.817Z" fill="#6D61AA"/>
<path d="M34.173 166.884L40.8757 167.952C40.8757 180.678 47.8211 190.294 49.5697 199.231C49.7154 200.008 49.9097 201.563 48.8411 201.563C43.887 201.563 36.1158 201.563 25.5762 201.563C26.6933 186.797 28.6361 175.821 34.173 166.884Z" fill="#DDE3E9"/>
<path d="M14.9879 214.288H19.9906C20.962 212.54 22.0306 210.451 23.0991 207.926H41.4099C44.1298 201.077 42.4299 187.478 36.4072 167.03L34.3187 166.933C34.1245 166.884 33.9302 166.884 33.6873 166.884C29.5103 166.884 27.179 165.233 24.5562 166.058C21.9334 166.835 21.0592 169.313 23.4877 173.732C24.0705 174.752 24.8476 175.432 25.819 175.675C18.0964 186.215 14.5022 199.134 14.9879 214.288Z" fill="#8479C9"/>
<path d="M36.8444 127.348C36.8444 132.448 40.4385 136.916 45.9755 139.733C47.2383 140.365 46.4126 144.25 46.6555 144.93C46.8983 145.61 51.561 141.822 52.3381 141.968C54.4752 142.453 56.8066 142.696 59.1865 142.696C71.5232 142.696 81.5286 135.848 81.5286 127.348C81.5286 118.848 71.5232 112 59.1865 112C46.8497 112 36.8444 118.897 36.8444 127.348Z" fill="#E4DAEA"/>
<path d="M-1.38812 231.773H19.1083L21.8283 264.704H-8.72217L-1.38812 231.773Z" fill="#F0E8F5"/>
<path d="M-1.38812 231.773H4.92595L8.7144 264.704H-8.72217L-1.38812 231.773Z" fill="black" fill-opacity="0.1"/>
<path d="M16.437 200.203H22.4597L21.4397 193.015C23.0425 193.986 24.6453 194.472 25.4224 194.278C27.3167 193.792 27.4624 186.944 26.0053 184.224C24.5482 181.504 17.0684 180.338 16.7284 185.681C16.5827 187.526 17.3598 189.226 18.5255 190.538L16.437 200.203Z" fill="#BCB1D4"/>
<path d="M26.0053 182.961C26.3453 183.689 26.1024 184.612 24.7425 184.515C23.3825 186.166 21.3426 187.283 21.0997 187.332C21.0997 187.332 20.1769 186.118 19.3512 186.652C18.3798 187.235 18.5741 188.303 19.0598 189.178C19.3512 189.615 19.7398 190.295 19.0598 190.78C17.9427 191.606 15.0771 189.809 14.64 188.255C13.7657 185.438 14.9799 181.552 18.0884 181.018C17.8941 180.484 17.1656 180.289 16.6313 180.144C15.4171 179.901 14.1057 180.144 12.8914 180.435C11.4343 180.775 9.92868 181.212 8.37445 181.261C7.59733 181.261 6.82021 181.115 6.09167 180.872C5.31455 180.581 4.73171 180.144 4.05173 179.706C3.42033 179.269 2.74035 179.366 2.0118 179.561C1.28326 179.755 0.603278 180.046 -0.0766993 180.386C-1.48522 181.115 -2.79661 182.038 -4.30227 182.572C-5.41938 182.961 -6.63362 183.204 -7.7993 183.204C-9.8878 183.252 -12.3649 182.815 -13.7248 181.018C-14.6476 179.804 -14.6476 178.298 -14.1134 176.938C-13.5791 175.675 -12.6563 174.752 -11.5392 174.024C-10.3249 173.198 -9.01354 172.615 -7.55645 172.518C-6.00222 172.421 -4.49655 172.907 -3.18517 173.732C-1.87378 174.51 -0.756676 175.335 0.797559 175.578C2.30322 175.821 3.85746 175.627 5.26598 175.141C6.77164 174.655 8.22874 174.121 9.88011 173.975C11.3858 173.83 12.9886 173.975 14.3971 174.607C15.6599 175.141 16.6799 176.112 17.3599 177.278C17.7484 177.909 17.9913 178.589 18.137 179.318C18.1856 179.561 18.2341 179.804 18.2827 180.095C18.3313 180.338 18.2827 180.629 18.3798 180.824C18.5255 181.066 18.817 181.018 19.0598 181.018C19.4484 181.018 21.5854 181.115 22.3626 181.261C23.6739 181.309 25.7139 182.232 26.0053 182.961Z" fill="#3E2884"/>
<path d="M53.4472 260.866C50.7759 244.498 48.5417 233.716 47.2789 230.413C46.4532 228.227 40.0905 228.47 40.8191 232.89C41.1105 234.736 42.3247 239.641 43.9275 245.227C44.8504 248.481 47.1817 254.698 50.3873 261.789L53.4472 260.866ZM14.0571 242.458C15.1742 242.313 28.3366 240.904 37.6135 239.593C41.3533 239.058 39.3134 232.064 35.4764 232.793C34.165 233.036 32.805 233.327 31.3479 233.619C26.3938 234.638 16.0484 238.281 13.1343 239.447C11.2886 240.224 12.5029 242.701 14.0571 242.458Z" fill="#8479C9"/>
<path d="M37.9049 231.724C37.7106 241.681 44.899 247.461 47.1332 255.766L53.0101 254.892C52.4273 253.338 50.5816 232.842 47.5217 228.665C47.5217 228.665 47.5217 228.665 47.5217 228.616C47.5217 228.616 47.5217 228.616 47.5217 228.567C47.1818 227.45 39.3134 224.925 23.9168 221.039H22.0226V222.788L37.9535 230.899C37.8563 231.142 37.8563 231.433 37.9049 231.724Z" fill="#583F93"/>
<path d="M18.477 237.359L19.9827 242.022C23.1883 241.196 32.8051 243.819 44.9476 238.768C44.9962 238.719 45.0447 238.67 45.0933 238.573C47.3275 236.97 48.5903 230.802 44.6076 229.054C38.5849 226.479 26.9768 221.622 24.7425 220.942H11.0944C9.8316 229.588 11.9687 233.571 19.3999 234.882C20.5655 235.076 21.8769 235.368 23.334 235.659L18.477 237.359Z" fill="#6D61AA"/>
<path d="M14.2029 238.719C14.4943 238.719 14.6886 238.913 14.7371 239.204C14.7371 239.933 14.8343 240.467 15.0286 240.807C15.2228 241.196 15.66 241.682 16.2914 242.167L17.4085 242.119C17.5542 242.119 17.6513 242.216 17.6513 242.361L17.8942 249.55C18.0399 250.036 18.2827 250.667 18.5256 251.444C18.7684 252.221 18.2827 252.658 17.0199 252.901C13.1343 244.887 11.0458 240.662 10.803 240.224C11.5315 239.69 12.0658 239.35 12.5029 239.156C12.7943 238.913 13.3772 238.816 14.2029 238.719C14.1543 238.719 14.2029 238.719 14.2029 238.719Z" fill="#3E2884"/>
<path d="M48.9302 260.429C49.0274 260.186 49.3188 260.089 49.6102 260.186C50.2416 260.478 50.7759 260.623 51.1644 260.623C51.6016 260.623 52.233 260.429 52.9615 260.089L53.3987 259.069C53.4472 258.923 53.5929 258.875 53.7386 258.923L60.2956 261.838C60.8298 261.935 61.4612 261.983 62.2869 262.081C63.064 262.178 63.3069 262.809 62.9183 264.023C54.0301 264.023 49.3188 264.023 48.7845 264.023C48.6388 263.149 48.5417 262.518 48.5417 262.032C48.4931 261.741 48.6388 261.206 48.9302 260.429Z" fill="#E4E4E4"/>
<path d="M40.382 217.882L47.1817 212.685C50.5816 212.054 52.1359 211.52 51.893 211.083C51.5045 210.403 50.5816 210.888 50.2902 210.451C49.9988 210.014 50.7759 208.751 51.553 207.586C52.3301 206.42 51.6016 206.468 51.1645 206.614C49.7074 207.44 48.1531 208.654 46.5503 210.208L37.4678 214.191L40.382 217.882ZM-5.46794 230.365C-5.95364 230.996 -8.96497 232.696 -11.0535 233.57C-11.8792 233.91 -11.6849 234.639 -11.442 234.833C-9.49923 236.63 -7.70215 235.319 -5.56508 234.785C-3.2823 234.202 -3.96227 236.97 -2.16519 236.533C-2.45661 235.27 -3.23373 232.89 -2.40804 231.579C-2.01948 230.996 0.749002 225.896 5.8974 216.28L0.749 215.26C-2.69946 224.439 -4.78796 229.442 -5.46794 230.365Z" fill="#6D61AA"/>
<path d="M27.3652 221.088C31.2994 223.468 41.0133 219.291 45.5303 214.386L43.9761 210.937C38.9734 212.734 34.7478 214.046 31.7851 212.686C28.6281 211.229 26.7338 200.252 21.974 195.638L19.7883 196.026C19.6426 203.749 21.0997 217.3 27.3652 221.088Z" fill="#EA931F"/>
<path d="M17.4571 194.715L22.994 195.589C22.994 206.08 28.6767 213.997 30.1823 221.38C30.3281 222.011 30.4738 223.274 29.5995 223.274C25.5196 223.274 19.1084 223.274 10.4144 223.274C11.3373 211.131 12.8915 202.049 17.4571 194.715Z" fill="#DDE3E9"/>
<path d="M6.14018 228.519H23.3825C25.6167 222.885 24.2567 211.617 19.254 194.715H17.117H17.0684C4.68309 202.34 -2.84523 214.191 -5.41943 230.268L-1.38814 231.045C1.2832 227.937 4.53738 222.885 8.47154 215.843C7.30586 220.068 6.4316 224.44 6.14018 228.519Z" fill="#F9AA38"/>
<path d="M25.0825 188.109C24.0626 188.255 25.5682 189.324 25.3739 188.207C25.2768 188.109 25.1797 188.109 25.0825 188.109Z" fill="#3E2884"/>
<path d="M26.9281 188.74C27.0738 189.372 27.4624 189.954 27.6081 190.586C27.8509 191.46 27.3652 191.314 26.491 191.266C26.4424 190.392 26.7338 189.566 26.9281 188.74Z" fill="#BCB1D4"/>
<path d="M25.8596 187.624C25.7139 187.527 25.5682 187.478 25.4225 187.478C25.2768 187.429 25.1311 187.429 24.9854 187.429C24.8397 187.429 24.7425 187.429 24.5968 187.527C24.4511 187.575 24.3539 187.721 24.1597 187.721C24.2568 187.575 24.354 187.478 24.4511 187.381C24.5482 187.235 24.7911 187.187 24.9368 187.187C25.1311 187.187 25.2768 187.235 25.4225 187.332C25.6168 187.332 25.7625 187.429 25.8596 187.624Z" fill="#3E2884"/>
<path d="M24.9853 192.092C25.0825 192.238 25.1796 192.238 25.3253 192.335C25.4225 192.383 25.5682 192.432 25.7139 192.432C25.9567 192.529 26.2481 192.577 26.491 192.723C26.1996 192.869 25.8596 192.869 25.5682 192.772C25.4225 192.723 25.2767 192.675 25.131 192.529C25.0339 192.432 24.9368 192.238 24.9853 192.092Z" fill="#3E2884"/>
<path d="M-2.01944 267.569C-0.950902 267.375 -0.125218 266.695 0.846179 266.257C1.04046 266.16 1.23474 266.112 1.42902 266.015C1.72044 267.326 2.20614 268.589 2.40042 269.949C2.64327 271.746 2.06043 272.572 0.263342 272.96C-0.805194 273.203 -1.82516 273.494 -2.94226 273.592C-1.58231 272.183 -1.67945 270.483 -1.82516 268.735C-1.87373 268.346 -1.97087 267.957 -2.01944 267.569Z" fill="#C0B9DB"/>
<path d="M-4.64218 255.523C-4.88503 255.281 -5.22502 255.329 -5.61358 255.281C-5.90499 255.281 -6.3907 255.281 -6.63354 255.086C-6.48784 254.795 -6.09928 254.649 -5.75929 254.601C-5.03074 254.406 -4.15648 254.261 -3.42793 254.309C-2.74796 254.358 -2.06798 254.746 -1.48514 255.086C-0.805163 255.523 -0.222325 256.106 0.214803 256.786C0.94335 257.855 1.1862 259.069 1.28334 260.332C1.38048 262.226 1.23477 264.169 1.42905 266.063C1.23477 266.16 1.04048 266.209 0.846205 266.306C-0.125192 266.743 -0.950876 267.423 -2.01941 267.617C-2.01941 267.374 -2.06798 267.132 -2.06798 266.937C-2.01941 266.16 -2.11655 265.335 -1.97084 264.557C-1.72799 262.906 -1.33944 261.255 -1.43658 259.555C-1.58228 257.515 -2.94224 255.766 -4.64218 255.523Z" fill="#E4DAEA"/>
<path d="M243.2 181.7L279.3 175.75L281.15 159.8L281.5 150.8L280.5 132.55L249 133.55L245.9 135.55L244.4 141L245.4 150.4L245.75 159.5L245.4 166.85L244.65 174.3L243.2 181.7Z" fill="#6753A5"/>
<path d="M279.3 175.75L278.05 175.45C278.05 175.4 279.75 168.4 280.2 164.6C281.1 157.25 281.1 148.9 280.15 138.45V138.3C279.9 135.55 279.6 132.45 281 129.8C281.75 128.35 283.4 127.05 285.1 127.55C286.95 128.1 287.75 130.55 288.25 132.2C288.3 132.4 288.35 132.55 288.4 132.7L287.2 133.1C287.15 132.95 287.1 132.75 287.05 132.55C286.6 131.2 285.95 129.1 284.75 128.75C283.75 128.45 282.7 129.35 282.15 130.4C280.95 132.65 281.2 135.45 281.45 138.149V138.3C282.4 148.85 282.45 157.25 281.5 164.75C281 168.6 279.35 175.45 279.3 175.75Z" fill="white"/>
<path d="M247.6 133.45L248.9 133.1L283.95 127.35C283.95 127.35 286.95 126.45 288.35 132.7L252.25 138.7C252.25 138.7 251.5 136.35 251.35 136.1C250.95 135.25 250.35 134.5 249.6 133.95C249.05 133.5 248.35 133.55 247.6 133.45Z" fill="#F0E8F5"/>
<path d="M288.283 132.28L252.26 138.453L252.352 138.995L288.376 132.822L288.283 132.28Z" fill="#8479C9"/>
<path d="M246.3 223.899C246.25 223.899 246.25 223.899 246.2 223.899C245.6 223.849 245.15 223.299 245.2 222.699L251.75 143.349C251.8 142.749 252.35 142.299 252.95 142.349C253.55 142.399 254 142.949 253.95 143.549L247.4 222.899C247.3 223.449 246.85 223.899 246.3 223.899Z" fill="#8479C9"/>
<path d="M245.75 223.1C245.6 223.1 245.45 222.95 245.5 222.8L252.05 146.3C252.05 146.15 252.2 146.05 252.35 146.05C252.5 146.05 252.6 146.2 252.6 146.35L246.05 222.85C246.05 223 245.9 223.1 245.75 223.1Z" fill="#ADA8D4"/>
<path d="M264.45 242.399C263.85 242.399 263.4 241.949 263.35 241.349L262.1 191.749C262.1 191.149 262.55 190.649 263.15 190.649C263.75 190.649 264.25 191.099 264.25 191.699L265.5 241.299C265.55 241.899 265.1 242.399 264.45 242.399Z" fill="#8479C9"/>
<path d="M264.05 241.649C263.9 241.649 263.8 241.549 263.8 241.399L262.45 191.299C262.45 191.149 262.55 190.999 262.7 190.999C262.85 190.999 263 191.099 263 191.249L264.35 241.349C264.3 241.549 264.2 241.649 264.05 241.649Z" fill="#ADA8D4"/>
<path d="M300.4 231.15C299.9 231.15 299.4 230.8 299.35 230.25L291.35 185.75C291.25 185.15 291.65 184.6 292.25 184.5C292.85 184.4 293.4 184.8 293.5 185.4L301.5 229.9C301.6 230.5 301.2 231.05 300.6 231.15C300.55 231.15 300.45 231.15 300.4 231.15Z" fill="#8479C9"/>
<path d="M300 230.5C299.85 230.5 299.75 230.4 299.75 230.3L290.9 180.95C290.85 180.8 290.95 180.65 291.1 180.65C291.25 180.6 291.4 180.7 291.4 180.85L300.25 230.2C300.3 230.3 300.2 230.45 300 230.5C300.05 230.5 300.05 230.5 300 230.5Z" fill="#ADA8D4"/>
<path d="M252.35 138.7L259.9 192.65L296.85 184.65L288.35 132.5L252.35 138.7Z" fill="#F0E8F5"/>
<path d="M252.3 138.7C251.9 136.8 250.95 134.1 249 133.55C247.3 133.05 245.65 134.35 244.9 135.8C243.5 138.4 243.8 141.5 244.05 144.3V144.45C245 154.9 245.05 163.25 244.1 170.6C243.65 174.4 242.05 181.049 242 181.1L243.15 181.699C243.2 181.399 244.85 174.6 245.35 170.75C246.3 163.3 246.25 154.899 245.3 144.3V144.149C245.05 141.45 244.8 138.65 246 136.4C246.55 135.35 247.65 134.45 248.6 134.75C251.4 135.6 251.45 141.5 251.8 144C252.4 148.25 253 152.5 253.65 156.75C254.4 161.95 255.15 167.15 255.9 172.35C256.55 176.85 257.2 181.299 257.85 185.799C258.15 187.899 258.3 189.099 258.6 191.199L258.7 192.149L259.9 192.649C259.65 190.899 259.4 189.199 259.15 187.449C258.55 183.299 258 179.099 257.4 174.95C256.7 169.849 255.95 164.749 255.25 159.649C254.6 155.149 254 150.649 253.35 146.149C253 143.749 252.8 141.35 252.35 138.95C252.35 138.9 252.35 138.8 252.3 138.7Z" fill="#8479C9"/>
<path d="M258.6 144.249C259.1 145.049 259.15 146.049 259.15 146.949C259.2 146.899 259.3 146.849 259.35 146.799C258.9 146.949 258.4 146.899 257.95 146.899C257.8 146.899 257.5 147.099 257.75 147.099C258.3 147.099 258.85 147.149 259.4 146.999C259.45 146.999 259.6 146.949 259.6 146.849C259.65 145.949 259.55 144.949 259.05 144.149C258.95 143.999 258.55 144.149 258.6 144.249Z" fill="#EA931F"/>
<path d="M257.7 144.4C258.45 144.4 259.15 144.1 259.9 144.05C260.1 144.05 260.25 143.75 259.95 143.8C259.25 143.85 258.55 144.15 257.85 144.15C257.7 144.15 257.45 144.4 257.7 144.4Z" fill="#EA931F"/>
<path d="M260.45 145.399C261 145.499 261.65 145.249 261.5 144.599C261.5 144.549 261.45 144.549 261.4 144.549C260.85 144.399 260.1 144.549 260.15 145.299C260.2 145.799 260.55 146.399 261.1 146.349C261.5 146.299 261.8 145.999 262 145.649C262.1 145.449 261.65 145.499 261.6 145.649C261.5 145.799 261.35 146.149 261.1 146.099C260.9 146.049 260.75 145.799 260.65 145.599C260.55 145.399 260.5 145.149 260.6 144.899C260.7 144.649 260.9 144.749 261.1 144.799C261.05 144.799 261.05 144.749 261 144.749C261.05 145.049 260.95 145.249 260.65 145.199C260.55 145.199 260.4 145.199 260.35 145.299C260.4 145.299 260.35 145.349 260.45 145.399Z" fill="#EA931F"/>
<path d="M259.05 148.649C259.05 149.599 259 152.199 260.65 151.349C260.9 151.199 260.7 150.999 260.45 151.099C259.4 151.649 259.5 149.099 259.5 148.599C259.45 148.349 259.05 148.449 259.05 148.649Z" fill="#EA931F"/>
<path d="M259.15 149.899C259.4 149.899 259.7 149.899 259.95 149.899C260.05 149.899 260.2 149.849 260.25 149.799C260.3 149.699 260.2 149.649 260.15 149.649C259.9 149.649 259.6 149.649 259.35 149.649C259.25 149.649 259.1 149.699 259.05 149.749C259 149.849 259.1 149.899 259.15 149.899Z" fill="#EA931F"/>
<path d="M260.75 149.45C260.7 150.15 261.05 151.4 262 151.1C263 150.75 262.35 149.55 262.65 148.85C262.75 148.6 262.3 148.65 262.25 148.8C262.05 149.35 262.3 150 262.15 150.55C261.95 151.05 261.55 150.75 261.4 150.4C261.25 150.1 261.2 149.75 261.25 149.45C261.2 149.2 260.75 149.25 260.75 149.45Z" fill="#EA931F"/>
<path d="M260.3 154.099C260.45 154.649 260.45 155.249 260.55 155.799C260.6 155.999 261 155.899 261 155.699C260.9 155.149 260.85 154.549 260.75 153.999C260.7 153.749 260.25 153.899 260.3 154.099Z" fill="#EA931F"/>
<path d="M260.1 153.2C260.1 153.3 260.1 153.35 260.1 153.45C260.1 153.55 260.55 153.5 260.55 153.35C260.55 153.25 260.55 153.2 260.55 153.1C260.55 152.95 260.1 153.05 260.1 153.2C260.1 153.3 260.1 153.35 260.1 153.45C260.1 153.55 260.55 153.5 260.55 153.35C260.55 153.25 260.55 153.2 260.55 153.1C260.55 152.95 260.1 153.05 260.1 153.2Z" fill="#EA931F"/>
<path d="M260.85 152.7C260.75 153.65 261.3 154.5 261.5 155.45C261.5 155.55 261.7 155.55 261.75 155.5C261.95 155.45 262.15 155.45 262.35 155.4C262.6 155.35 262.55 155.1 262.3 155.15C262.1 155.2 261.9 155.2 261.7 155.25C261.8 155.25 261.85 155.3 261.95 155.3C261.75 154.4 261.2 153.6 261.3 152.65C261.3 152.45 260.85 152.5 260.85 152.7Z" fill="#EA931F"/>
<path d="M264.2 151.65C264.2 153.2 264 154.8 264 156.35C264.15 156.3 264.3 156.25 264.45 156.25C264.45 156.2 264.45 156.2 264.45 156.15C264.45 156.05 264 156.1 264 156.25C264 156.3 264 156.3 264 156.35C264 156.45 264.45 156.4 264.45 156.25C264.45 154.7 264.6 153.1 264.65 151.55C264.6 151.4 264.2 151.5 264.2 151.65Z" fill="#EA931F"/>
<path d="M265.35 153.399C265.9 153.499 266.6 153.299 266.4 152.599C266.4 152.549 266.35 152.549 266.3 152.549C266.05 152.499 265.8 152.499 265.55 152.549C265.5 152.549 265.35 152.599 265.35 152.699C265.25 153.199 265.1 153.799 265.75 154.049C266.1 154.199 266.75 154.149 266.85 153.699C266.9 153.549 266.45 153.649 266.4 153.749C266.3 154.099 265.85 153.749 265.75 153.549C265.6 153.249 265.7 152.899 265.75 152.599C265.7 152.649 265.6 152.699 265.55 152.749C265.7 152.699 265.85 152.749 266 152.749C265.95 152.749 265.95 152.699 265.9 152.699C265.95 152.799 266 152.999 265.9 153.149C265.8 153.249 265.65 153.199 265.55 153.199C265.5 153.149 265.1 153.349 265.35 153.399Z" fill="#EA931F"/>
<path d="M266.35 151.35C266.5 152.25 266.85 153.1 267.2 153.95C267.2 154 267.3 154.05 267.35 154.05C267.5 154.05 267.65 154.1 267.85 154.05C268.1 154.05 268.2 153.75 267.9 153.75C267.75 153.75 267.65 153.75 267.5 153.75C267.55 153.8 267.6 153.8 267.65 153.85C267.35 153 266.95 152.15 266.8 151.25C266.75 151.1 266.3 151.2 266.35 151.35Z" fill="#EA931F"/>
<path d="M267.7 151.049C267.7 152.099 267.95 153.049 268.15 154.049C268.2 154.149 268.4 154.149 268.45 154.099C268.55 154.049 268.75 153.999 268.9 153.949C269.2 153.849 268.95 153.599 268.7 153.699C268.5 153.799 268.45 153.799 268.25 153.849C268.35 153.849 268.45 153.899 268.55 153.899C268.35 152.899 268.1 151.999 268.1 150.949C268.15 150.799 267.7 150.899 267.7 151.049Z" fill="#EA931F"/>
<path d="M269.25 152.749C269.8 152.849 270.35 152.599 270.2 151.949C270.2 151.899 270.15 151.899 270.1 151.899C269.8 151.899 269.45 151.949 269.25 152.249C269.1 152.549 269.1 152.899 269.15 153.199C269.15 153.199 269.15 153.249 269.2 153.249C269.65 153.399 270.25 153.449 270.55 152.999C270.6 152.949 270.55 152.899 270.5 152.899C270.4 152.899 270.3 152.899 270.25 152.899C270.15 152.899 269.75 153.049 269.95 153.099C270.05 153.099 270.1 153.099 270.2 153.099C270.2 153.049 270.15 153.049 270.15 152.999C270.05 153.099 270 153.149 269.85 153.149C269.8 153.149 269.65 153.149 269.6 153.099C269.55 153.049 269.55 152.849 269.55 152.749C269.55 152.599 269.6 152.099 269.8 152.099C269.75 152.099 269.75 152.049 269.7 152.049C269.7 152.149 269.75 152.299 269.7 152.399C269.65 152.549 269.6 152.549 269.45 152.499C269.4 152.549 269 152.749 269.25 152.749Z" fill="#EA931F"/>
<path d="M260.7 159.8C263.45 159.6 266.1 158.65 268.85 158.4C269 158.4 269.3 158.15 269.05 158.2C266.3 158.45 263.65 159.4 260.9 159.6C260.75 159.6 260.4 159.8 260.7 159.8Z" fill="#EA931F"/>
<path d="M261.2 162.85C264.35 162.6 267.35 161.05 270.45 160.3C270.7 160.25 270.65 160 270.4 160.05C267.4 160.8 264.35 162.3 261.3 162.55C261 162.6 260.9 162.9 261.2 162.85Z" fill="#EA931F"/>
<path d="M261.7 165.9C265.05 165.7 268.4 165.55 271.55 164.2C271.85 164.1 271.55 164 271.4 164.1C268.4 165.4 265.1 165.55 261.9 165.7C261.75 165.7 261.4 165.9 261.7 165.9Z" fill="#EA931F"/>
<path d="M261.5 169.499C261.4 170.099 261.55 171.149 262.35 171.099C263.35 170.999 263.3 169.899 263.15 169.199C263.1 169.049 262.7 169.149 262.7 169.299C262.75 169.599 262.95 170.949 262.3 170.799C261.85 170.649 261.85 169.799 261.9 169.449C261.95 169.299 261.5 169.349 261.5 169.499Z" fill="#EA931F"/>
<path d="M263.85 168.899C263.75 169.499 263.7 170.099 263.75 170.699C263.75 170.849 264.15 170.749 264.2 170.599C264.25 170.249 264.15 169.949 264.1 169.599C264.05 169.349 264.1 168.349 264.65 168.699C264.9 168.849 264.85 169.399 264.85 169.649C264.85 169.949 264.8 170.249 264.85 170.549C264.85 170.699 265.3 170.599 265.3 170.449C265.25 169.849 265.65 168.399 264.6 168.399C264.15 168.399 263.75 168.649 263.7 169.099C263.6 169.599 263.85 170.149 263.8 170.649C263.95 170.599 264.1 170.599 264.25 170.549C264.2 169.949 264.25 169.399 264.35 168.799C264.3 168.649 263.85 168.699 263.85 168.899Z" fill="#EA931F"/>
<path d="M266.45 169.9C266.45 170.2 266.35 170.5 266.05 170.65C266.15 170.65 266.2 170.65 266.3 170.6V170.5C266.3 170.4 265.85 170.5 265.85 170.6C265.85 170.7 265.8 170.75 265.95 170.75C266.1 170.75 266.3 170.65 266.4 170.6C266.7 170.4 266.85 170.1 266.85 169.75C266.85 169.7 266.45 169.8 266.45 169.9Z" fill="#EA931F"/>
<path d="M269.45 167.849C268.3 167.449 267.9 168.699 267.85 169.599C267.85 169.599 267.85 169.599 267.9 169.599C268.5 169.799 269.25 169.749 269.4 168.999C269.55 168.149 269.2 167.299 269.35 166.449C269.35 166.349 268.95 166.399 268.9 166.549C268.75 167.299 269.05 168.049 269 168.799C269 169.049 268.8 169.949 268.35 169.499C268.05 169.249 268.5 167.799 269 167.999C269.2 168.049 269.5 167.849 269.45 167.849Z" fill="#EA931F"/>
<path d="M269.95 168.399C270.35 168.499 270.9 168.449 271.05 167.999C271.2 167.549 270.75 167.349 270.35 167.399C270.25 167.399 270.1 167.449 270.05 167.549C269.95 167.949 269.5 168.699 270.05 168.999C270.5 169.249 271.2 168.949 271.45 168.499C271.55 168.349 271.1 168.399 271.05 168.499C270.85 168.799 270.3 168.999 270.25 168.499C270.2 168.149 270.4 167.799 270.5 167.499C270.4 167.549 270.3 167.599 270.2 167.649C270.4 167.649 270.65 167.699 270.65 167.949C270.65 168.149 270.5 168.299 270.3 168.199C270.2 168.149 270.1 168.199 270 168.249C269.95 168.299 269.85 168.399 269.95 168.399Z" fill="#EA931F"/>
<path d="M271.4 167.349C271.15 167.999 271.65 168.699 272.35 168.549C273.1 168.399 273.05 167.649 273.05 166.999C273.05 166.949 272.6 166.999 272.6 167.099C272.6 167.299 272.6 167.549 272.6 167.749C272.6 167.899 272.55 168.299 272.35 168.349C272.15 168.399 271.9 168.049 271.85 167.899C271.75 167.699 271.75 167.449 271.8 167.199C271.85 167.199 271.4 167.249 271.4 167.349Z" fill="#EA931F"/>
<path d="M273.2 167.05C273.8 167.3 274.1 167.9 274.55 168.35C274.65 168.45 275.05 168.3 274.95 168.2C274.5 167.75 274.2 167.15 273.55 166.9C273.45 166.8 273.05 167 273.2 167.05Z" fill="#EA931F"/>
<path d="M274.75 166.8C274.05 167.4 273.4 168.05 272.9 168.8C272.75 169 273.2 169 273.3 168.85C273.8 168.15 274.4 167.55 275.05 167C275.25 166.75 274.9 166.65 274.75 166.8Z" fill="#EA931F"/>
<path d="M275.95 168.149C275.9 168.649 275.55 168.999 275.2 169.299C275.15 169.349 275.25 169.399 275.3 169.399C275.4 169.399 275.5 169.349 275.6 169.299C275.95 168.949 276.3 168.599 276.4 168.099C276.4 167.999 275.95 168.049 275.95 168.149Z" fill="#EA931F"/>
<path d="M277.2 165.25C277.1 165.9 276.75 166.95 277.1 167.6C277.35 168 277.9 168 278.3 168.05C278.5 168.1 278.75 167.8 278.45 167.75C278 167.7 277.55 167.7 277.45 167.2C277.3 166.6 277.55 165.85 277.65 165.2C277.65 165 277.25 165.05 277.2 165.25Z" fill="#EA931F"/>
<path d="M277.15 166.299C277.4 166.349 277.65 166.399 277.9 166.449C278 166.449 278.1 166.449 278.2 166.399C278.25 166.399 278.35 166.299 278.25 166.299C278 166.249 277.75 166.199 277.5 166.149C277.4 166.149 277.3 166.149 277.2 166.199C277.15 166.199 277.05 166.299 277.15 166.299Z" fill="#EA931F"/>
<path d="M278.8 166.05C278.7 166.6 278.7 167.15 278.7 167.75C278.7 167.8 279.1 167.75 279.15 167.65C279.25 167.05 279.05 166.5 279.2 165.9C279.1 165.95 279 166 278.9 166C279.2 165.95 279.45 166.15 279.45 166.45C279.45 166.55 279.3 166.7 279.3 166.75C279.25 166.8 279.25 166.8 279.4 166.75C279.35 166.75 279.35 166.75 279.3 166.7C279.25 166.65 279.15 166.6 279.1 166.55C278.95 166.6 278.85 166.65 278.7 166.7C279.25 166.75 279.5 167.25 279.85 167.65C279.95 167.75 280.3 167.55 280.3 167.55C279.95 167.15 279.7 166.6 279.1 166.55C279.05 166.55 278.65 166.6 278.7 166.7C279 167 279.6 167 279.85 166.6C280.15 166.05 279.55 165.85 279.15 165.9C279.1 165.9 278.85 165.95 278.85 166C278.7 166.6 278.9 167.2 278.8 167.75C278.95 167.7 279.1 167.65 279.25 167.65C279.25 167.1 279.3 166.55 279.35 165.95C279.2 165.95 278.8 165.95 278.8 166.05Z" fill="#EA931F"/>
<path d="M281.25 165.7C280.85 165.6 280.4 165.75 280.25 166.15C280.1 166.5 280.1 167 280.3 167.3C280.6 167.7 281.1 167.8 281.5 167.45C281.8 167.15 281.85 166.6 281.9 166.2C281.65 166.1 281.45 165.95 281.25 165.7C281.2 165.6 280.8 165.8 280.85 165.85C281 166.05 281.15 166.15 281.35 166.3C281.45 166.4 281.45 166.45 281.45 166.6C281.45 166.7 281.4 166.75 281.4 166.85C281.35 167 281.3 167.15 281.25 167.3C281.2 167.35 281.15 167.45 281.1 167.5C281.05 167.55 281.15 167.5 281.1 167.5C281.05 167.5 281 167.45 280.95 167.4C280.65 167.2 280.55 166.95 280.55 166.6C280.55 166.45 280.55 166.25 280.6 166.1C280.6 166.05 280.65 166 280.7 165.9C280.75 165.8 280.75 165.8 280.85 165.8C281 165.9 281.4 165.75 281.25 165.7Z" fill="#EA931F"/>
<path d="M281.9 165.55C281.8 166.15 281.8 166.7 281.95 167.3C282 167.45 282.4 167.3 282.4 167.2C282.25 166.6 282.3 166.1 282.35 165.5C282.4 165.35 281.95 165.4 281.9 165.55Z" fill="#EA931F"/>
<path d="M283.45 165.3C282.85 165.4 282.7 165.8 282.65 166.35C282.65 166.35 282.65 166.4 282.7 166.4C282.95 166.45 283.15 166.45 283.4 166.45C283.55 166.45 283.65 166.45 283.65 166.6C283.65 166.7 283.6 166.85 283.55 166.95C283.65 166.9 283.8 166.85 283.9 166.8C283.6 166.8 283.35 166.8 283.1 166.85C283.05 166.85 282.85 166.9 282.8 166.95C282.75 167 282.85 167.05 282.9 167.05C283.15 167 283.4 167 283.65 167C283.75 167 283.95 167 284 166.85C284.05 166.7 284.1 166.5 284.1 166.3C284.1 166.3 284.1 166.25 284.05 166.25C283.85 166.2 283.2 166.25 283.1 166.1C283.05 165.95 283.2 165.45 283.35 165.4C283.55 165.45 283.75 165.3 283.45 165.3Z" fill="#EA931F"/>
<path d="M282.45 164.75C282.2 164.8 281.9 164.9 282.05 165.2C282.1 165.3 282.5 165.15 282.5 165.1C282.5 165.05 282.45 165.05 282.45 165C282.45 164.9 282.45 164.9 282.35 164.95C282.55 164.9 282.75 164.75 282.45 164.75Z" fill="#EA931F"/>
<path d="M263.8 173.45C263.05 173.3 262.3 173.25 262.05 174.15C261.8 175.05 262.65 175.25 263.4 175.3C263.5 175.3 263.7 175.25 263.7 175.15C263.75 174.6 264.25 173.95 263.8 173.45C263.75 173.35 263.4 173.45 263.4 173.6C263.45 174.05 263.6 174.45 263.7 174.9C263.8 175.35 263.8 175.75 263.8 176.2C263.8 176.35 264.25 176.25 264.25 176.1C264.25 175.65 264.25 175.2 264.15 174.8C264.05 174.35 263.85 173.95 263.8 173.45C263.7 173.5 263.55 173.55 263.4 173.6C263.75 174.05 263.35 174.7 263.25 175.15C263.35 175.1 263.45 175.05 263.55 175C263.1 175 262.5 174.95 262.45 174.4C262.45 174.15 262.55 173.75 262.75 173.6C262.95 173.45 263.25 173.6 263.5 173.65C263.65 173.75 264.05 173.5 263.8 173.45Z" fill="#EA931F"/>
<path d="M264.25 173.4C264.2 173.9 264.2 174.75 264.85 174.75C265.2 174.75 265.55 174.55 265.6 174.25C265.7 173.9 265.55 173.6 265.5 173.25C265.45 173.05 265 173.15 265.05 173.35C265.1 173.55 265.2 173.8 265.2 174C265.2 174.2 265.15 174.5 264.9 174.4C264.6 174.3 264.65 173.6 264.7 173.35C264.7 173.15 264.3 173.2 264.25 173.4Z" fill="#EA931F"/>
<path d="M266.05 172.899C266.05 172.849 266.05 172.699 266.15 172.699C266.2 172.699 266.3 172.799 266.35 172.799C266.4 172.899 266.45 172.999 266.5 173.099C266.55 173.349 266.6 173.599 266.65 173.849C266.65 173.949 267.05 173.849 267.1 173.749C267.15 173.399 266.8 172.949 266.45 172.999C266 172.999 265.75 173.399 265.7 173.799C265.6 174.199 265.8 174.499 266.25 174.399C266.6 174.349 267 174.049 267.15 173.699C267.2 173.649 266.75 173.649 266.7 173.799C266.65 173.949 266.4 174.299 266.3 174.249C266.05 174.199 266.15 173.749 266.2 173.599C266.25 173.499 266.25 173.399 266.35 173.299C266.35 173.249 266.4 173.199 266.45 173.149C266.3 173.249 266.4 173.249 266.45 173.299C266.6 173.449 266.75 173.699 266.7 173.899C266.85 173.849 267 173.799 267.15 173.799C267.05 173.449 267.05 172.749 266.65 172.599C266.3 172.499 265.7 172.649 265.7 173.049C265.65 173.099 266.05 173.049 266.05 172.899Z" fill="#EA931F"/>
<path d="M267 171.95C266.95 172.6 267 174.65 268.15 173.85C268.4 173.7 268.05 173.55 267.85 173.65C267.5 173.9 267.4 172.1 267.4 171.85C267.45 171.7 267 171.8 267 171.95Z" fill="#EA931F"/>
<path d="M268 172.5C267.95 172.9 268.2 173.2 268.25 173.6C268.3 173.8 268.7 173.65 268.7 173.5C268.65 173.25 268.1 172.75 268.35 172.5C268.45 172.4 268.8 172.35 268.85 172.55C268.9 172.8 268.4 172.75 268.25 172.75C268.15 172.75 267.95 172.95 268.15 173C268.5 173.1 268.75 173.4 269.05 173.6C269.2 173.7 269.55 173.5 269.4 173.35C269.1 173.1 268.8 172.8 268.4 172.7C268.35 172.8 268.35 172.85 268.3 172.95C268.5 172.9 268.7 173 268.95 172.9C269.1 172.85 269.25 172.7 269.3 172.5C269.35 172.1 268.9 172.05 268.6 172.1C268.35 172.15 267.9 172.3 267.85 172.6C267.8 173 268.2 173.2 268.25 173.55C268.4 173.5 268.55 173.45 268.7 173.45C268.65 173.1 268.4 172.8 268.45 172.45C268.5 172.25 268.05 172.35 268 172.5Z" fill="#EA931F"/>
<path d="M267.05 172.599C267.2 172.599 267.35 172.649 267.5 172.649C267.6 172.649 268 172.499 267.8 172.449C267.65 172.449 267.5 172.399 267.35 172.399C267.25 172.399 266.85 172.599 267.05 172.599Z" fill="#EA931F"/>
<path d="M269.55 172.699C269.8 172.749 270.1 172.849 270.4 172.749C270.7 172.649 270.7 172.349 270.7 172.049C270.7 171.999 270.65 171.999 270.6 171.999C270 171.849 269.3 172.199 269.5 172.899C269.7 173.649 270.55 173.499 271 173.099C271.2 172.949 270.75 172.949 270.65 173.049C270.5 173.149 270.4 173.299 270.2 173.199C270.05 173.099 269.95 172.949 269.95 172.799C269.9 172.649 269.9 172.499 270 172.349C270.1 172.199 270.25 172.249 270.4 172.299C270.35 172.299 270.35 172.249 270.3 172.249C270.3 172.349 270.3 172.449 270.25 172.549C270.25 172.599 270.2 172.649 270.25 172.649C270.15 172.699 269.95 172.599 269.8 172.549C269.7 172.399 269.35 172.599 269.55 172.699Z" fill="#EA931F"/>
<path d="M271.9 172.899C271.9 173.049 271.9 173.449 271.7 173.499C271.65 173.549 271.55 173.599 271.6 173.699C271.65 173.799 271.8 173.749 271.9 173.699C272.3 173.549 272.3 173.249 272.35 172.849C272.35 172.699 271.95 172.749 271.9 172.899Z" fill="#EA931F"/>
<path d="M274.05 171.4C273.7 171.35 273.3 171.35 273.15 171.7C273.05 171.95 272.95 172.35 273 172.65C273.15 173.3 274.3 173.15 274.45 172.6C274.5 172.4 274.05 172.5 274 172.65C273.95 172.8 273.75 172.8 273.6 172.75C273.45 172.7 273.4 172.55 273.4 172.4C273.4 172.25 273.45 172.05 273.5 171.9C273.5 171.85 273.55 171.75 273.6 171.7C273.65 171.65 273.85 171.7 273.9 171.7C274.05 171.7 274.35 171.4 274.05 171.4Z" fill="#EA931F"/>
<path d="M274.4 171.399C274.35 171.799 274.4 172.149 274.45 172.549C274.45 172.649 274.9 172.549 274.9 172.449C274.85 172.099 274.8 171.749 274.85 171.399C274.85 171.199 274.45 171.249 274.4 171.399Z" fill="#EA931F"/>
<path d="M275.65 172.6C275.65 172.45 275.45 171.7 275.7 171.7C275.85 171.7 275.9 171.95 275.95 172C276 172.15 276.1 172.3 276.2 172.45C276.35 172.6 276.75 172.4 276.6 172.25C276.4 172.05 276.4 171.8 276.25 171.6C276.1 171.4 275.9 171.35 275.65 171.4C275 171.55 275.2 172.15 275.2 172.65C275.25 172.85 275.7 172.75 275.65 172.6Z" fill="#EA931F"/>
<path d="M277.4 171.049C277 170.999 276.7 171.299 276.6 171.649C276.5 172.149 276.85 172.399 277.3 172.399C277.4 172.399 277.55 172.349 277.6 172.249C277.75 171.899 277.9 171.599 277.8 171.199C277.75 170.999 277.35 171.149 277.35 171.299C277.5 171.999 277.7 172.799 277.55 173.549C277.5 173.749 277.95 173.699 278 173.499C278.15 172.749 277.95 171.899 277.8 171.149C277.65 171.199 277.5 171.249 277.35 171.249C277.45 171.549 277.3 171.849 277.2 172.149C277.3 172.099 277.4 172.049 277.5 171.999C277.25 171.999 277.05 171.899 277.05 171.649C277.05 171.549 277.1 171.199 277.3 171.249C277.45 171.349 277.7 171.099 277.4 171.049Z" fill="#EA931F"/>
<path d="M279.25 171.5C279.25 171.7 279.25 172 279.1 172.15C278.95 172.35 279.35 172.45 279.45 172.25C279.6 172 279.65 171.7 279.65 171.45C279.7 171.25 279.3 171.3 279.25 171.5Z" fill="#EA931F"/>
<path d="M281.8 169.249C281.3 169.099 280.6 169.499 280.85 170.099C281.05 170.549 281.6 170.149 281.9 170.349C282.15 170.599 281.85 170.849 281.65 170.949C281.35 171.049 281.15 171.049 281.25 170.649C281.3 170.449 280.85 170.499 280.8 170.699C280.7 171.099 280.9 171.299 281.3 171.299C281.65 171.299 282.05 171.099 282.3 170.849C282.55 170.599 282.5 170.199 282.2 170.049C282 169.949 281.75 169.999 281.55 169.999C281.45 169.999 281.4 169.999 281.35 169.899C281.25 169.699 281.35 169.399 281.6 169.449C281.7 169.599 282.05 169.349 281.8 169.249Z" fill="#EA931F"/>
<path d="M282.55 169.949C282.5 170.299 282.45 170.599 282.55 170.949C282.6 171.099 283.05 170.999 283 170.849C282.9 170.549 283 170.249 283 169.949C283.05 169.699 282.6 169.799 282.55 169.949Z" fill="#EA931F"/>
<path d="M282.65 169.4C282.65 169.65 282.75 169.75 283.05 169.75C283.1 169.75 283.35 169.7 283.35 169.6C283.35 169.45 283.35 169.4 283.25 169.3C283.15 169.2 282.75 169.35 282.85 169.45C282.9 169.5 282.95 169.55 282.95 169.65C283.05 169.6 283.15 169.55 283.25 169.5C283.15 169.5 283.1 169.45 283.15 169.3C283.1 169.15 282.65 169.25 282.65 169.4Z" fill="#EA931F"/>
<path d="M283.4 169.75C283.8 169.85 284.1 170.15 284.45 170.35C284.6 170.45 285 170.25 284.8 170.1C284.45 169.85 284.1 169.55 283.7 169.45C283.45 169.4 283.15 169.7 283.4 169.75Z" fill="#EA931F"/>
<path d="M284.2 169.6C284.15 169.85 284 170.05 283.85 170.25C283.7 170.45 283.55 170.7 283.35 170.8C283.1 170.95 283.35 171.15 283.55 171C283.8 170.85 284 170.6 284.2 170.35C284.4 170.1 284.55 169.8 284.65 169.5C284.7 169.35 284.25 169.45 284.2 169.6Z" fill="#EA931F"/>
<path d="M263.15 179.85C266.2 179.55 269.1 178.2 272.15 177.7C274.45 177.3 276.8 176.95 279.1 176.5C279.35 176.45 279.3 176.2 279.05 176.25C276.6 176.75 274.15 177.1 271.7 177.55C268.85 178.05 266.1 179.35 263.2 179.65C263 179.6 262.85 179.9 263.15 179.85Z" fill="#EA931F"/>
<path d="M263.65 182.9C267 182.65 270.35 182 273.65 181.35C276.7 180.75 280 180.3 282.9 179.05C283.2 178.95 282.9 178.85 282.75 178.9C279.75 180.2 276.3 180.65 273.1 181.25C270.05 181.85 266.95 182.45 263.8 182.7C263.7 182.7 263.4 182.9 263.65 182.9Z" fill="#EA931F"/>
<path d="M306.652 132.522C306.254 135.968 306.176 143.612 307.539 144.623L315.106 143.499L315.098 143.45C317.874 142.734 319.697 140.037 319.264 137.119L318.449 131.629C317.986 128.514 315.089 126.366 311.973 126.828L311.429 126.909C308.659 127.321 306.643 129.743 306.652 132.522Z" fill="#2F1A70"/>
<path d="M316.192 136.514C317.166 134.904 317.749 133.048 317.315 131.141C316.089 125.611 308.508 128 307.393 131.047C306.279 134.094 307.541 141.236 309.593 141.437C310.414 141.517 311.723 140.996 313.3 139.7L313.627 147.156L319.908 146.223L316.192 136.514Z" fill="#E4DAEA"/>
<path d="M314.314 135.782C314.48 138.942 315.1 142.438 316.115 143.147L323.682 142.023C323.04 134.637 319.354 138.066 318.326 131.142C318.042 130.932 317.758 130.721 317.481 130.56L317.452 130.362C315.72 127.89 313.889 126.797 311.862 127.098C308.845 127.546 308.111 129.07 307.453 130.431C308.355 132.42 310.773 132.365 313.049 133.392C313.267 133.157 313.549 133.014 313.895 132.963C314.686 132.845 315.425 133.393 315.542 134.184C315.66 134.975 315.112 135.714 314.321 135.831C314.371 135.824 314.371 135.824 314.314 135.782Z" fill="#2F1A70"/>
<path d="M308.159 135.18C308.25 135.116 308.399 135.094 308.554 135.121C308.661 135.156 308.717 135.198 308.774 135.24C308.846 135.381 308.818 135.537 308.677 135.608C308.586 135.672 308.445 135.744 308.338 135.709C308.133 135.689 308.104 135.491 308.082 135.343C308.025 135.301 308.109 135.187 308.159 135.18Z" fill="#2F1A70"/>
<path d="M307.349 135.856C307.505 135.884 308.154 138.213 308.213 138.609C308.015 138.639 307.28 138.798 307.068 138.729C306.742 138.575 306.839 138.207 306.901 137.945C307.025 137.421 306.854 135.93 307.349 135.856Z" fill="#E4DAEA"/>
<path d="M309.329 134.551C309.257 134.41 309.136 134.276 308.973 134.199C308.81 134.122 308.655 134.095 308.457 134.124C308.308 134.146 308.111 134.176 307.97 134.247C307.828 134.319 307.695 134.44 307.618 134.603C307.759 134.531 307.907 134.509 308.056 134.487C308.204 134.465 308.303 134.45 308.451 134.428C308.6 134.406 308.706 134.441 308.854 134.419C309.017 134.496 309.166 134.474 309.329 134.551Z" fill="#2F1A70"/>
<path d="M308.492 140.488C308.633 140.416 308.823 140.337 308.957 140.217C309.091 140.096 309.224 139.975 309.358 139.854C309.625 139.612 309.836 139.328 309.933 138.96L309.607 138.806C309.488 139.026 309.263 139.211 308.981 139.354C308.698 139.497 308.416 139.64 308.127 139.733C308.438 139.788 308.785 139.737 309.123 139.636C309.462 139.535 309.737 139.342 309.94 139.009L309.614 138.855C309.502 139.125 309.341 139.401 309.18 139.678C308.92 139.969 308.71 140.253 308.492 140.488Z" fill="#2F1A70"/>
<path d="M315.45 191.1C311.45 191.1 306.35 192 300.15 193.85C304.1 196.6 308.35 197.95 312.95 197.95C317.55 197.95 323 197.05 329.35 195.3C324.1 192.45 319.45 191.1 315.45 191.1Z" fill="#583F93"/>
<path d="M309.2 213.55C308.45 218.5 306.4 226.8 305.45 229.8C304.85 231.7 301.5 230.6 301.85 229.1C302.2 227.65 303.5 207.25 304.65 200.85C304.75 196.9 306.5 176.8 307.1 173.55L322.25 171.55C321.5 175.8 311.25 199.95 310.75 202.1C310.7 202.2 310.7 202.3 310.65 202.4C310.4 204.75 309.9 208.9 309.2 213.55Z" fill="#E4DAEA"/>
<path d="M306.4 229.4C306.25 229.15 305.9 229.1 305.65 229.25C305 229.65 304.5 229.85 304.1 229.9C303.6 229.95 303 229.9 302.15 229.65L301.55 228.7C301.45 228.6 301.3 228.55 301.2 228.6L294.75 232.35C294.2 232.5 293.55 232.65 292.75 232.9C291.95 233.1 291.8 233.75 292.35 234.9C301.65 233.65 306.55 233 307.1 232.95C307.15 232.1 307.1 231.45 307.05 231C307.05 230.65 306.8 230.15 306.4 229.4C306.4 229.45 306.4 229.45 306.4 229.4Z" fill="#8479C9"/>
<path d="M318.95 214.15C319.05 219.15 318.45 227.6 318.05 230.7C317.8 232.65 314.25 232.1 314.35 230.55C314.45 229.05 312.25 208.75 312.3 202.25C311.7 198.3 310.05 178.25 310.05 174.95L324.65 170.7C324.65 175 318.65 200.3 318.5 202.55C318.5 202.65 318.45 202.75 318.45 202.85C318.6 205.25 318.8 209.45 318.95 214.15Z" fill="#F0E8F5"/>
<path d="M318.85 230.2C318.65 230 318.3 230 318.1 230.15C317.55 230.6 317.05 230.9 316.7 231C316.25 231.15 315.6 231.15 314.75 231.05L314 230.2C313.9 230.1 313.75 230.1 313.65 230.2L307.9 234.85C307.4 235.1 306.75 235.35 306 235.65C305.25 235.95 305.2 236.65 305.95 237.7C314.95 235.1 319.7 233.7 320.2 233.55C320.1 232.7 319.95 232.05 319.8 231.6C319.7 231.35 319.4 230.85 318.85 230.2Z" fill="#8479C9"/>
<path d="M329.45 195.25C320.2 190.9 309.1 198.55 300.15 194.1C300.95 181.15 305.45 177.8 307.3 169.4C312.6 167.7 318.25 167.7 324.2 169.4C328.4 174.5 332.1 189.15 329.45 195.25Z" fill="#6753A5"/>
<path d="M296.65 163.55L288.2 160.2C284.55 160.55 282.8 160.45 282.9 159.95C283.1 159.15 284.15 159.35 284.4 158.8C284.6 158.3 283.4 157.2 282.25 156.25C281.1 155.3 281.85 155.1 282.35 155.1C284.1 155.5 286 156.3 288.1 157.45L298.55 158.85L296.65 163.55ZM338.85 183.05C339.25 183.8 342.05 186.15 343.95 187.5C344.75 188.05 344.4 188.7 344.1 188.9C341.7 190.4 340.15 188.65 338.05 187.65C335.8 186.6 335.95 189.6 334.15 188.75C334.7 187.5 336 185.2 335.4 183.7C335.15 183.05 331.8 175.55 325.5 161.3H331.3C335.8 174.75 338.35 182 338.85 183.05Z" fill="#E4DAEA"/>
<path d="M314.45 153.299C312.15 167.099 301 172.149 288.3 170.549L290.1 157.549C303.7 159.699 309.8 153.349 310.9 143.249L315.45 142.949C315.55 145.999 315.05 149.749 314.45 153.299Z" fill="#EA931F"/>
<path d="M317.7 141.6H318.15C328.3 150.75 334.9 163.7 338.05 180.45H324.15C324.05 177.3 323.9 174.2 323.65 171.2H305.1C307.05 162.5 310.8 155 310.8 143.2L317.7 141.6Z" fill="#F9AA38"/>
<path d="M323.65 171.2H319.9C320.95 167.35 321.2 161.7 320.75 154.35C322.25 159.65 323.15 165.25 323.65 171.2Z" fill="#EA931F"/>
<path d="M59.2398 75.0006C67.6823 75.0006 74.4791 81.869 74.4076 90.3114C74.336 98.6823 67.5392 105.479 59.0967 105.408C50.7974 105.336 43.929 98.5392 44.0006 90.0967C44.1436 81.7259 50.869 74.929 59.2398 75.0006ZM60.0268 88.5943C60.0268 88.4512 60.0268 88.3796 60.0268 88.3796C60.0268 85.017 60.0268 81.6543 60.0268 78.2917C60.0268 78.1486 60.0268 78.0055 60.0268 77.8624C60.0268 77.5762 59.8838 77.29 59.5976 77.1469C59.0252 76.8608 58.4528 77.29 58.4528 77.9339C58.4528 82.0836 58.4528 86.2333 58.4528 90.3829C58.4528 90.4545 58.4528 90.526 58.4528 90.5976C58.4528 90.8838 58.5959 91.1699 58.8821 91.313C59.1683 91.4561 59.4545 91.3846 59.6691 91.2415C59.7407 91.1699 59.8122 91.0984 59.9553 91.0268C61.1 89.8821 62.2448 88.7374 63.3895 87.5926C64.5342 86.4479 65.6074 85.3747 66.7522 84.23C66.9668 84.0153 67.0383 83.8007 67.0383 83.5145C66.9668 83.2283 66.8237 83.0137 66.5375 82.8706C66.1798 82.7991 65.8936 82.8706 65.679 83.0852C64.5342 84.23 63.4611 85.3032 62.3163 86.4479C61.7439 87.0203 61.1716 87.5211 60.6708 88.0935C60.4561 88.2366 60.2415 88.3796 60.0268 88.5943ZM72.1896 90.526C72.5474 90.526 72.9051 90.526 73.1913 90.526C73.4775 90.526 73.6921 90.3829 73.6921 90.0967C73.6921 89.8821 73.549 89.6675 73.2628 89.6675C72.5474 89.6675 71.9035 89.6675 71.188 89.6675C70.9018 89.6675 70.6872 89.8106 70.7587 90.0967C70.7587 90.3114 70.9734 90.526 71.188 90.526C71.4742 90.5976 71.8319 90.526 72.1896 90.526ZM58.8106 103.118C58.8106 103.476 58.8106 103.834 58.8106 104.191C58.8106 104.477 58.9537 104.621 59.2398 104.621C59.4545 104.621 59.6691 104.477 59.6691 104.191C59.6691 103.476 59.6691 102.76 59.6691 102.045C59.6691 101.759 59.526 101.616 59.2398 101.616C59.0252 101.616 58.8106 101.83 58.8106 102.045C58.8106 102.474 58.8106 102.76 58.8106 103.118ZM46.29 89.739C45.9323 89.739 45.5746 89.739 45.2168 89.739C45.0022 89.739 44.7876 89.9537 44.7876 90.1683C44.7876 90.3829 44.9307 90.5976 45.2168 90.5976C45.9323 90.5976 46.6478 90.5976 47.3632 90.5976C47.5779 90.5976 47.7925 90.4545 47.7925 90.1683C47.7925 89.9537 47.6494 89.739 47.3632 89.739C47.0055 89.739 46.6478 89.739 46.29 89.739Z" fill="#8479C9"/>
<path d="M60.0267 88.5946C60.2413 88.38 60.4559 88.1653 60.599 88.0222C61.1714 87.4499 61.7438 86.949 62.2446 86.3767C63.3893 85.2319 64.4625 84.1587 65.6072 83.014C65.8219 82.7994 66.1081 82.6563 66.4658 82.7994C66.752 82.8709 66.9666 83.0856 66.9666 83.4433C67.0382 83.7295 66.8951 83.9441 66.6804 84.1587C65.5357 85.3035 64.4625 86.3767 63.3178 87.5214C62.1731 88.6661 61.0283 89.8109 59.8836 90.9556C59.812 91.0272 59.7405 91.0987 59.5974 91.1702C59.3112 91.3849 59.0966 91.3849 58.8104 91.2418C58.5242 91.0987 58.3811 90.8841 58.3811 90.5263C58.3811 90.4548 58.3811 90.3832 58.3811 90.3117C58.3811 86.162 58.3811 82.0124 58.3811 77.8627C58.3811 77.2188 58.9535 76.7895 59.5258 77.0757C59.812 77.2188 59.9551 77.4334 59.9551 77.7912C59.9551 77.9343 59.9551 78.0773 59.9551 78.2204C59.9551 81.5831 59.9551 84.9458 59.9551 88.3084C60.0267 88.4515 60.0267 88.5231 60.0267 88.5946Z" fill="#F0E8F5"/>
<path d="M72.1897 90.5265C71.832 90.5265 71.4743 90.5265 71.1881 90.5265C70.9019 90.5265 70.7588 90.3834 70.7588 90.0972C70.7588 89.8826 70.9735 89.668 71.1881 89.668C71.9036 89.668 72.5474 89.668 73.2629 89.668C73.5491 89.668 73.7637 89.8826 73.6922 90.0972C73.6922 90.3119 73.4776 90.5265 73.1914 90.5265C72.9052 90.5981 72.5474 90.5265 72.1897 90.5265Z" fill="#F0E8F5"/>
<path d="M58.8105 103.118C58.8105 102.76 58.8105 102.402 58.8105 102.045C58.8105 101.758 58.9536 101.615 59.2398 101.615C59.4545 101.615 59.6691 101.758 59.6691 102.045C59.6691 102.76 59.6691 103.475 59.6691 104.191C59.6691 104.477 59.526 104.62 59.2398 104.62C59.0252 104.62 58.8105 104.477 58.8105 104.191C58.8105 103.833 58.8105 103.475 58.8105 103.118Z" fill="#F0E8F5"/>
<path d="M46.2899 89.7393C46.6477 89.7393 47.0054 89.7393 47.3631 89.7393C47.6493 89.7393 47.7924 89.8823 47.7924 90.1685C47.7924 90.3832 47.6493 90.5978 47.3631 90.5978C46.6477 90.5978 45.9322 90.5978 45.2168 90.5978C45.0021 90.5978 44.7875 90.4547 44.7875 90.1685C44.7875 89.9539 44.9306 89.7393 45.2168 89.7393C45.5745 89.7393 45.9322 89.7393 46.2899 89.7393Z" fill="#F0E8F5"/>
<path d="M228.706 24H190V73.796H228.706V24Z" fill="#F0E8F5"/>
<path d="M260.974 41.1709H222.267V90.9669H260.974V41.1709Z" fill="#E4DAEA"/>
<path d="M202.735 70.576C201.734 70.576 200.804 70.576 199.802 70.576C199.873 70.3614 199.873 70.2183 199.945 70.1468C201.233 67.428 202.449 64.7808 203.808 62.0621C204.238 61.132 204.524 60.2019 204.452 59.2002C204.452 58.9141 204.452 58.6279 204.452 58.1986C205.454 58.4848 205.526 57.8409 205.74 57.1254C206.098 55.5514 206.599 54.0489 206.956 52.4749C207.1 51.9026 207.457 51.3302 207.1 50.6863C206.956 50.4001 207.1 49.9708 207.1 49.5415C207.743 49.6846 207.815 49.2554 207.887 48.8261C208.173 45.7496 208.53 42.6016 208.745 39.5251C208.96 37.021 209.031 34.5884 209.174 32.0843C209.174 31.7266 208.96 31.3689 208.96 31.0827C208.96 30.3672 209.031 29.7233 209.174 29.0079C209.174 28.8648 209.532 28.7217 209.747 28.5786C209.747 27.7916 209.747 26.8615 209.747 26.0029C209.818 26.0029 209.89 26.0029 209.89 26.0029C209.89 26.933 209.89 27.7916 209.89 28.7217C210.534 28.7217 210.605 29.0794 210.534 29.5087C210.462 29.7949 210.748 30.1526 210.677 30.4388C210.176 34.0161 210.891 37.5934 211.035 41.1707C211.106 43.8179 211.535 46.4651 211.893 49.1123C211.893 49.3269 212.251 49.5415 212.465 49.7562C212.537 49.7562 212.609 49.6846 212.68 49.6846C212.609 50.1855 212.465 50.6863 212.394 51.1156C212.394 51.2586 212.394 51.4017 212.465 51.5448C213.038 53.7628 213.61 55.9807 214.254 58.1986C214.54 58.1986 214.826 58.2701 215.113 58.2701C215.113 58.4848 215.184 58.6279 215.184 58.8425C215.041 60.1303 215.399 61.2751 215.971 62.4198C217.259 64.9239 218.404 67.4996 219.62 70.0037C219.692 70.1468 219.763 70.3614 219.906 70.6476C218.905 70.6476 218.046 70.6476 217.188 70.6476C217.044 70.6476 216.83 70.3614 216.758 70.1468C215.971 68.5012 215.399 66.7841 214.397 65.2817C212.251 61.919 207.529 62.1336 205.526 65.1385C204.953 65.9971 204.452 66.9272 204.023 67.8573C203.451 68.5728 203.093 69.5744 202.735 70.576ZM207.672 58.1986C209.103 58.1986 210.462 58.1986 211.893 58.1986C211.535 56.3384 211.249 54.4782 210.891 52.618C210.176 52.618 209.461 52.618 208.674 52.618C208.316 54.4067 208.03 56.2669 207.672 58.1986ZM209.747 38.4519C209.532 41.8861 209.317 45.6065 209.103 49.3269C209.532 49.3269 209.961 49.3269 210.391 49.3269C210.176 45.6065 209.961 41.8861 209.747 38.4519Z" fill="#F9AA38"/>
</g>
<defs>
<radialGradient id="paint0_radial" cx="0" cy="0" r="1" gradientUnits="userSpaceOnUse" gradientTransform="translate(315.774 80.3497) scale(79.9455)">
<stop stop-color="white"/>
<stop offset="1" stop-color="#FF9933"/>
</radialGradient>
<radialGradient id="paint1_radial" cx="0" cy="0" r="1" gradientUnits="userSpaceOnUse" gradientTransform="translate(315.405 80.7259) scale(77.7247 79.5563)">
<stop stop-color="white"/>
<stop offset="1" stop-color="#FF9933"/>
</radialGradient>
<clipPath id="clip0">
<rect width="360" height="280" fill="white"/>
</clipPath>
</defs>
</svg>
