<svg width="264" height="181" viewBox="0 0 264 181" fill="none" xmlns="http://www.w3.org/2000/svg">
<path d="M175.74 177.718C181.533 178.789 188.161 178.113 194.319 178.62C198.911 179.014 203.191 180.028 207.731 180.535C212.271 181.042 217.647 180.986 220.934 179.465C223.022 178.507 223.961 177.155 224.535 175.803C225.944 172.536 225.736 169.1 228.084 165.946C229.859 163.58 233.042 161.439 234.921 159.074C236.8 156.708 237.06 153.779 233.459 151.863C229.076 149.554 220.83 149.779 215.037 151.3C209.244 152.821 204.861 155.243 199.537 157.102C194.371 158.905 188.421 160.144 182.837 161.665C176.784 163.298 169.164 165.946 167.077 169.213C165.094 172.48 168.903 176.423 175.74 177.718Z" fill="#F7CDD4"/>
<path d="M263.556 31.4318C264.13 40.9515 254.841 49.4008 242.785 50.2458C235.27 50.809 228.434 48.2742 224.207 43.9932C223.372 43.1483 215.857 43.3736 216.692 42.6413C218.048 41.4021 220.919 39.1489 220.554 38.0223C220.188 36.8958 219.979 35.7692 219.875 34.5863C219.301 25.0667 228.59 16.6173 240.646 15.7724C252.701 14.9274 262.982 21.9122 263.556 31.4318Z" fill="#C1E3F2"/>
<path d="M189.084 28.39C187.727 32.8964 185.744 43.0919 187.153 44.7818L196.808 45.3451V45.2888C200.409 45.0634 203.332 41.9653 203.54 37.966L203.906 30.4179C204.114 26.1369 201.087 22.5318 197.121 22.3065L196.443 22.2502C192.894 22.0249 189.815 24.6723 189.084 28.39Z" fill="#7A380C"/>
<path d="M199.94 36.276C201.557 34.4171 202.706 32.1077 202.653 29.4039C202.497 21.6868 192.529 22.8134 190.389 26.5874C188.25 30.3614 188.041 40.219 190.494 41.064C191.485 41.4019 193.625 40.8387 195.869 39.5431L194.042 49.795L202.027 50.2456L199.94 36.276Z" fill="#FFCAA7"/>
<path d="M197.8 34.8678C197.226 39.0925 197.121 43.9931 198.165 45.2323L207.82 45.7956C208.864 35.7127 203.436 39.3741 203.906 29.8545C203.593 29.5165 203.332 29.1222 203.019 28.8406V28.5589C201.505 24.7849 199.47 22.8134 196.913 22.6444C193.051 22.4191 191.746 24.2779 190.65 25.9115C191.276 28.8406 194.251 29.4039 196.86 31.3754C197.174 31.0937 197.591 30.9811 198.061 30.9811C199.052 31.0374 199.835 31.995 199.783 33.0653C199.731 34.1355 198.844 34.9804 197.852 34.9241C197.852 34.8678 197.852 34.8678 197.8 34.8678Z" fill="#7A380C"/>
<path d="M190.337 32.3893C190.493 32.3893 190.65 32.333 190.807 32.4457C190.911 32.502 191.015 32.5583 191.015 32.671C191.067 32.84 190.963 33.0653 190.807 33.1779C190.65 33.2343 190.493 33.2906 190.337 33.2343C190.076 33.1779 190.076 32.8963 190.128 32.671C190.18 32.502 190.285 32.3893 190.337 32.3893Z" fill="#49220A"/>
<path d="M191.955 31.8262C191.955 31.6009 191.798 31.3756 191.589 31.2629C191.433 31.1503 191.224 31.0376 191.015 31.0376C190.807 31.0376 190.598 31.0376 190.389 31.0939C190.18 31.1503 189.972 31.3192 189.867 31.4882C190.076 31.4319 190.233 31.4882 190.441 31.4882C190.598 31.4882 190.807 31.4882 190.963 31.5446C191.12 31.5446 191.276 31.6009 191.485 31.6572C191.589 31.6572 191.746 31.7135 191.955 31.8262Z" fill="#49220A"/>
<path d="M189.45 39.5431C189.658 39.4868 189.867 39.4305 190.076 39.3178C190.285 39.2051 190.493 39.0925 190.65 38.9798C191.015 38.6982 191.328 38.3602 191.589 37.9096L191.224 37.6279C191.015 37.9096 190.65 38.0786 190.337 38.1912C189.972 38.3039 189.606 38.4165 189.189 38.4729C189.554 38.6419 190.024 38.6418 190.441 38.5855C190.859 38.5292 191.276 38.3602 191.642 37.9659L191.276 37.6843C191.067 38.0222 190.807 38.3602 190.493 38.6982C190.076 38.9798 189.763 39.2615 189.45 39.5431Z" fill="#49220A"/>
<path d="M188.771 32.7837C188.771 33.685 188.093 34.3609 187.832 34.9805C187.258 36.2198 188.197 36.1634 189.032 36.4451" fill="#FFCAA7"/>
<path d="M200.67 109.785C196.182 110.123 190.598 111.757 183.865 114.742C188.51 118.122 193.364 119.643 198.478 119.249C203.592 118.854 209.594 117.221 216.483 114.292C210.377 110.968 205.106 109.447 200.67 109.785Z" fill="#DE6B8A"/>
<path d="M197.956 139.978C197.434 146.794 195.555 158.228 194.616 162.397C194.042 165.044 189.658 163.861 190.024 161.777C190.337 159.806 190.284 131.923 191.172 123.079C190.963 117.671 191.485 90.1829 191.902 85.7329L210.794 81.6208C210.22 87.4791 199.365 121.22 198.895 124.206C198.895 124.375 198.843 124.487 198.791 124.6C198.739 127.867 198.426 133.556 197.956 139.978Z" fill="#FFCAA7"/>
<path d="M196.39 160.989C196.234 160.651 195.816 160.538 195.503 160.707C194.668 161.157 193.99 161.439 193.52 161.495C192.894 161.552 192.111 161.383 191.119 160.989L190.441 159.637C190.337 159.468 190.128 159.411 189.971 159.524L181.569 164.087C180.891 164.256 180.003 164.425 178.96 164.65C177.916 164.875 177.707 165.776 178.333 167.354C190.128 166.452 196.39 165.945 197.069 165.889C197.173 164.706 197.225 163.805 197.173 163.242C197.069 162.735 196.86 162.002 196.39 160.989C196.39 161.045 196.39 160.989 196.39 160.989Z" fill="#EFACBB"/>
<path d="M210.22 139.865C210.794 146.681 210.69 158.229 210.481 162.453C210.324 165.157 205.836 164.706 205.784 162.566C205.784 160.538 201.296 133.106 200.826 124.318C199.73 119.023 195.921 91.8729 195.66 87.4229L213.717 80.3254C214.082 86.1837 208.654 121.164 208.654 124.206C208.654 124.375 208.654 124.487 208.602 124.656C209.072 127.811 209.698 133.5 210.22 139.865Z" fill="#FFE0CB"/>
<path d="M211.577 163.354C211.368 163.017 210.951 162.904 210.638 163.129C209.803 163.636 209.176 163.918 208.655 163.974C208.028 164.03 207.245 163.918 206.202 163.523L205.471 162.228C205.367 162.059 205.158 162.003 205.001 162.115L196.808 166.96C196.129 167.129 195.294 167.354 194.251 167.579C193.207 167.804 193.05 168.706 193.729 170.283C205.471 169.044 211.681 168.368 212.36 168.311C212.412 167.129 212.412 166.227 212.36 165.664C212.36 165.101 212.099 164.368 211.577 163.354C211.577 163.411 211.577 163.354 211.577 163.354Z" fill="#EFACBB"/>
<path d="M216.587 114.292C205.941 109.109 194.251 120.432 183.865 115.08C183.657 97.4493 188.354 92.4924 189.71 80.8886C195.503 78.1284 201.766 77.6778 208.55 79.5367C213.665 86.1835 218.988 105.786 216.587 114.292Z" fill="#EFACBB"/>
<path d="M172.228 72.6647L161.268 68.8907C156.728 69.7356 154.484 69.7356 154.588 69.0033C154.745 67.8768 156.154 68.0457 156.363 67.3135C156.571 66.5812 155.006 65.2293 153.44 63.9901C151.874 62.7508 152.866 62.4692 153.492 62.4128C155.736 62.8071 158.241 63.7084 160.955 65.1166L174.211 66.0742L172.228 72.6647ZM227.025 95.3653C227.547 96.3793 231.304 99.3084 233.861 100.942C234.905 101.618 234.54 102.575 234.174 102.857C231.304 105.11 229.164 102.857 226.451 101.731C223.476 100.491 223.998 104.547 221.649 103.589C222.223 101.843 223.685 98.5761 222.797 96.6046C222.38 95.7033 217.579 85.8457 208.394 67.0318L215.7 66.4685C222.484 84.3248 226.294 94.0134 227.025 95.3653Z" fill="#FFCAA7"/>
<path d="M196.651 57.1178C195.138 76.0443 182.561 83.9304 167.583 82.7475L168.574 64.9475C184.648 66.75 191.172 57.5684 191.641 43.7115L196.912 42.9229C197.278 47.1475 197.017 52.2171 196.651 57.1178Z" fill="#910940"/>
<path d="M199.417 40.9513L199.939 40.895C212.516 52.4988 221.388 69.5102 226.451 91.9855L210.272 93.1684C209.907 88.8874 209.437 84.719 208.916 80.6633L187.31 82.2406C188.823 70.2988 192.581 59.7089 191.589 43.7115L199.417 40.9513Z" fill="#B50437"/>
<path d="M208.915 80.6633L204.532 81.0013C205.419 75.65 205.262 67.9893 204.062 58.019C206.254 65.0602 207.767 72.6083 208.915 80.6633Z" fill="#910940"/>
<path d="M16.1802 144.85C12.7043 147.712 11.4592 150.686 10.8367 153.436C10.266 156.073 10.2142 158.767 12.6525 160.506C15.2464 162.358 20.1749 162.863 24.9996 163.256C34.9603 164.098 45.8548 164.603 57.6831 162.134C69.5633 159.665 82.3773 153.324 83.9856 147.432C85.3344 142.606 79.1609 139.8 74.5955 136.77C67.9551 132.337 61.6259 129.868 46.3217 132.729C36.7241 134.581 22.1981 139.968 16.1802 144.85Z" fill="#FDD7BD"/>
<path d="M93.8943 131.719C92.7011 132.225 91.7154 132.786 90.8854 133.515C85.2306 138.341 80.769 144.401 76.8263 149.676C74.6474 152.594 73.4023 155.905 75.1662 158.935C75.6849 159.777 76.4112 160.619 77.6045 161.292C79.524 162.358 82.3773 162.807 85.1269 162.976C97.1108 163.817 108.991 161.068 121.027 161.068C129.327 161.068 138.251 162.302 145.565 160.17C153.243 157.925 156.304 152.089 152.154 147.937C149.923 145.692 146.084 144.065 142.349 142.494C134.048 138.958 125.696 134.469 116.617 131.607C109.977 129.419 99.9641 129.194 93.8943 131.719Z" fill="#C4E8F8"/>
<path d="M144.995 70.1612L152.102 72.5741C152.102 72.5741 148.522 83.0115 147.9 84.6949C147.9 84.6949 131.402 78.2978 130.78 78.0173C130.157 77.7367 135.345 67.2993 135.345 67.2993L144.995 70.1612Z" fill="#C1E3F2"/>
<path d="M128.757 55.403L138.043 65.167C140.741 66.4016 142.971 67.8044 144.683 69.2634C145.047 69.7685 145.514 70.7224 143.646 70.3296C141.83 69.8807 139.911 69.544 139.548 70.1613C139.184 70.7785 140.222 71.7886 139.599 72.6303C139.184 73.1915 137.732 71.3958 135.345 67.2994L125.696 61.1268L128.757 55.403ZM83.4148 46.5369L90.5741 46.593C85.1268 65.7282 82.2216 75.7167 81.8584 76.6145C81.0803 78.6346 82.6885 81.721 83.4148 83.4044C81.184 84.4706 81.4434 80.4864 78.5901 81.8893C75.9962 83.18 74.0767 85.5368 71.1196 83.5166C70.7564 83.2922 70.3414 82.3382 71.3271 81.6648C73.7135 79.8692 77.1894 76.7267 77.6563 75.7167C78.3307 74.3138 80.2502 64.6059 83.4148 46.5369Z" fill="#AC5419"/>
<path d="M105.256 24.5397L108.109 24.0347C112.571 41.0936 135.449 52.7094 136.902 59.0504C137.421 61.4072 135.864 62.5857 136.642 63.259L132.959 66.177C132.336 65.3914 130.988 66.8504 128.238 65.8403C125.489 64.8303 105.256 44.7411 105.256 24.5397Z" fill="#897AB4"/>
<path d="M98.719 66.8503L110.755 111.518L116.358 145.075H122.012L116.358 66.8503H98.719Z" fill="#AC5419"/>
<path d="M93.3755 66.8503C94.2056 90.0819 93.8943 102.708 93.6868 104.84C93.4793 106.973 92.4417 121.057 85.1787 145.804H91.041C100.639 122.067 103.959 107.983 105.1 104.84C106.19 101.698 109.458 89.0719 114.179 66.8503H93.3755Z" fill="#AC5419"/>
<path d="M98.4597 66.8503C101.572 82.2258 106.968 106.748 114.646 140.473H122.946C123.569 105.85 120.975 83.1237 116.462 66.8503H98.4597Z" fill="#564394"/>
<path d="M93.3238 66.8503C94.1539 90.0819 92.0268 112.921 85.4382 140.866H94.2576C103.855 117.522 110.755 94.7395 115.476 66.8503H93.3238Z" fill="#705FA4"/>
<path d="M84.3486 150.406L84.6599 144.738C86.5794 145.355 88.9658 145.131 91.8192 144.009C94.88 146.365 98.7709 147.993 103.44 148.834C103.803 148.891 104.011 149.283 103.959 149.676V149.732L103.492 151.472H91.8192H85.0231L84.3486 150.406Z" fill="#BCB1D4"/>
<path d="M115.113 150.406L115.424 144.738C117.344 145.355 119.73 145.131 122.583 144.009C125.644 146.365 129.535 147.993 134.204 148.834C134.567 148.891 134.775 149.283 134.723 149.676V149.732L134.256 151.472H122.583H115.787L115.113 150.406Z" fill="#BCB1D4"/>
<path d="M103.388 14.7196C101.884 12.8117 100.846 10.4549 101.053 7.8175C101.52 0.24198 111.274 1.92543 113.193 5.74125C115.113 9.55707 114.853 19.265 112.415 19.9383C111.429 20.2189 109.354 19.5455 107.227 18.1427L108.576 28.2995H100.742L103.388 14.7196Z" fill="#AC5419"/>
<path d="M102.766 16.403C101.78 11.6332 98.9784 8.43467 99.3934 6.3023C99.7047 4.89943 100.431 4.00159 101.676 3.6649C102.299 0.859151 104.374 -0.319263 107.85 0.0735417C113.089 0.690806 116.306 3.04764 114.905 8.21021C113.66 8.21021 112.104 7.70518 109.977 8.5469C109.302 8.82748 108.835 9.6692 108.524 11.0721H107.59C106.656 9.38863 105.723 8.77136 104.841 9.22028C103.959 9.6692 103.751 10.7354 104.218 12.4188L103.751 16.3469H102.766V16.403Z" fill="#49220A"/>
<path d="M114.231 11.6895C114.438 12.1384 114.801 12.5873 114.957 13.0362C115.113 13.4851 115.216 14.1024 115.268 14.5513C115.32 15.2247 114.542 16.0664 113.867 16.0664" fill="#AC5419"/>
<path d="M113.868 10.5108C113.66 10.5108 113.453 10.5108 113.297 10.5108C113.141 10.5669 112.986 10.5669 112.778 10.623C112.415 10.7353 112.104 10.8475 111.689 10.9036C111.896 10.4547 112.259 10.2302 112.674 10.118C112.882 10.0619 113.089 10.0619 113.349 10.118C113.608 10.1741 113.816 10.2864 113.868 10.5108Z" fill="#49220A"/>
<path d="M113.868 17.806C113.66 17.8621 113.453 17.8621 113.297 17.806C113.09 17.7498 112.934 17.6376 112.726 17.5815C112.415 17.4131 112.104 17.1326 111.793 17.0203L112.156 16.7959C112.156 16.852 112.208 17.0203 112.311 17.1887C112.415 17.357 112.519 17.4693 112.623 17.6376C112.83 17.9182 113.09 18.2549 113.349 18.5354C113.141 18.4793 112.986 18.4232 112.778 18.311C112.623 18.1988 112.467 18.0865 112.311 17.9743C112.156 17.8621 112 17.6937 111.896 17.5254C111.793 17.357 111.637 17.1326 111.637 16.7959V16.4031L111.948 16.5714C112.363 16.7398 112.623 17.0203 112.934 17.3009C113.245 17.4693 113.505 17.6937 113.868 17.806Z" fill="#49220A"/>
<path d="M113.245 12.3065C113.474 12.3065 113.66 12.1055 113.66 11.8576C113.66 11.6097 113.474 11.4087 113.245 11.4087C113.016 11.4087 112.83 11.6097 112.83 11.8576C112.83 12.1055 113.016 12.3065 113.245 12.3065Z" fill="#49220A"/>
<path d="M110.028 26.7842C109.717 49.3425 121.753 55.1223 119.055 64.1568C116.825 71.6201 95.6062 79.6445 91.9228 72.3496C90.4184 69.3755 89.7439 65.7841 89.6921 61.9122C88.7582 64.8863 88.032 67.4676 87.4613 69.6561C86.5275 73.3597 82.8441 73.9769 82.8441 75.4359L78.0194 73.9769C78.3306 72.0129 76.0999 71.0589 76.6705 66.7381C79.4201 47.2101 86.735 33.013 98.6671 24.2591L98.7708 22.3511C98.8227 21.5655 99.4453 21.0044 100.172 21.0605L108.991 21.7339C109.717 21.79 110.236 22.4634 110.184 23.249L110.028 26.7842Z" fill="#A396C4"/>
<path d="M33.6633 67.5239L45.3879 112.023L53.9479 144.794H60.1733L51.0946 67.5239H33.6633Z" fill="#A4D5EA"/>
<path d="M30.5504 67.5239C30.291 90.4188 29.3572 102.932 29.046 105.009C28.7866 107.085 24.4806 120.328 16.1282 144.738H22.5611C33.1444 121.338 39.0585 108.095 40.3036 105.009C41.5487 101.922 45.3359 89.4088 51.0944 67.5239H30.5504Z" fill="#C1E3F2"/>
<path d="M15.5576 151.079L15.8689 143.728H22.665C25.8815 146.197 30.0836 148.161 35.2715 149.676V151.079H23.0281L18.826 150.406V151.079H15.5576Z" fill="#CD5605"/>
<path d="M53.0657 151.079L53.3769 143.728H60.1731C63.3895 146.197 67.5917 148.161 72.7796 149.676V151.079H60.4843L56.2822 150.406V151.079H53.0657Z" fill="#CD5605"/>
<path d="M39.0585 25.2693C37.554 23.3614 36.5684 21.0607 36.724 18.4794C37.1909 11.0161 46.8403 12.6434 48.708 16.4031C50.5756 20.1628 50.3681 29.7585 47.9298 30.4319C46.9441 30.7125 44.9208 30.0391 42.7938 28.6923L44.0908 38.7369H36.3608L39.0585 25.2693Z" fill="#FFCAA7"/>
<path d="M49.4344 18.1427C49.3825 17.6377 49.175 17.1326 49.0194 16.6276C48.8119 16.0103 48.5525 15.5053 48.1893 15.0003C47.5668 14.0463 46.8405 13.2046 46.0104 12.4751C44.5059 11.1844 42.6383 10.3988 40.7707 10.6794C39.8368 10.7916 38.903 11.1844 38.1767 11.8578C37.5023 12.419 36.8279 13.3168 35.8941 13.3729C34.9084 13.429 34.0264 12.4751 33.1964 11.9139C32.3144 11.2406 31.3806 10.7916 30.3431 10.6233C28.5792 10.2866 26.9709 10.96 25.7777 12.4751C24.4808 14.1024 23.547 16.5154 24.4289 18.7039C24.5845 19.0967 24.792 19.4333 25.0514 19.7139C25.3108 19.9945 25.7259 20.2751 25.8296 20.6679C25.9334 21.1168 25.6221 21.6779 25.4665 22.0708C25.2589 22.6319 25.1033 23.2492 25.1552 23.8664C25.259 24.8765 25.8296 25.8305 26.4522 26.5038C27.0747 27.1772 27.8529 27.57 28.6829 27.7384C29.2536 27.8506 29.8243 27.9067 30.3949 27.9067C30.6543 27.9067 30.9137 27.7945 31.1731 27.7384C31.4325 27.6822 31.5881 27.7384 31.7957 27.9067C32.8332 28.6362 33.9746 28.9168 35.1678 28.8045C36.2053 28.6923 37.3467 28.4679 38.1767 27.6822C39.1105 26.8405 39.0587 25.6621 38.8512 24.4276C39.0587 24.5398 39.7331 24.652 39.3181 24.147C39.1624 23.9787 38.903 23.8664 38.6955 23.7542C38.488 23.642 38.2286 23.4736 38.073 23.2492C37.3467 22.3513 38.073 20.5556 38.9549 20.2751C40.2519 19.8262 40.5632 21.8463 41.497 22.3513C42.0158 22.6319 42.5864 22.2391 43.0014 21.8463C43.5202 21.2851 43.9353 20.5556 44.2465 19.77C44.5059 19.1528 44.7653 18.5355 45.0247 17.9182C45.1285 17.6377 45.5954 16.7959 45.3879 16.4593C46.3217 16.2348 47.3593 16.6837 48.1893 17.2449C48.5006 17.4693 48.76 17.7499 48.9675 18.1427C49.0194 18.2549 49.0712 18.4794 49.175 18.4794C49.5382 18.4794 49.4863 18.2549 49.4344 18.1427Z" fill="#9E180A"/>
<path d="M49.59 22.0146C49.4343 23.3614 51.1982 24.3154 51.0944 25.7182C50.42 25.7182 49.7975 26.111 49.123 26.0549" fill="#FFCAA7"/>
<path d="M47.3591 21.8462C47.6185 21.6218 47.9817 21.5095 48.3448 21.5095C48.5005 21.5095 48.708 21.5656 48.8636 21.6779C49.0193 21.7901 49.123 21.9584 49.1749 22.1829C49.0192 21.8462 48.6561 21.734 48.3448 21.734C48.1892 21.734 48.0336 21.734 47.826 21.7901C47.7223 21.734 47.5148 21.7901 47.3591 21.8462Z" fill="#49220A"/>
<path d="M49.3824 27.7383C48.9674 27.7944 48.5005 27.8505 48.0854 27.7383C47.8779 27.6822 47.6704 27.6261 47.4629 27.5139C47.2554 27.4016 47.0997 27.2333 46.9441 27.0649C47.3072 27.3455 47.6704 27.5139 48.0854 27.6261C48.5005 27.7383 48.9674 27.6822 49.3824 27.7383Z" fill="#49220A"/>
<path d="M48.5524 23.1369C48.7529 23.1369 48.9155 22.9611 48.9155 22.7441C48.9155 22.5272 48.7529 22.3513 48.5524 22.3513C48.3518 22.3513 48.1892 22.5272 48.1892 22.7441C48.1892 22.9611 48.3518 23.1369 48.5524 23.1369Z" fill="#49220A"/>
<path d="M63.3897 57.3672L75.1143 51.8118C77.1894 49.6234 79.1608 47.9399 81.0803 46.7615C81.651 46.537 82.6367 46.4809 81.5991 48.1644C80.5615 49.7917 79.524 51.5874 79.939 52.1485C80.354 52.7097 81.5472 52.0924 82.0141 53.0464C82.3254 53.6636 80.3021 54.3931 75.9443 55.291L67.1768 62.5859L63.3897 57.3672ZM16.0245 58.8823L22.665 60.2852C16.0245 73.6967 12.4449 80.8233 11.9261 81.6089C10.8366 83.4046 11.8742 86.7153 12.2374 88.511C9.90282 89.1283 10.8366 85.2564 7.82767 86.0981C5.12999 86.8276 2.79545 88.6794 0.253395 86.1542C-0.0578771 85.8175 -0.265392 84.8636 0.772181 84.3585C3.41799 83.124 7.30889 80.8233 7.93143 79.8693C8.86525 78.747 11.5111 71.7327 16.0245 58.8823Z" fill="#FFCAA7"/>
<path d="M40.6668 32.1154L43.4682 31.6104C49.538 38.0075 52.0282 53.3268 56.0747 55.347C59.9137 57.2549 65.361 55.4031 71.794 52.8779L73.7654 57.6477C67.9031 64.4937 55.4003 70.3297 50.3162 67.0189C42.2231 61.7441 40.3555 42.8333 40.6668 32.1154Z" fill="#CD5605"/>
<path d="M28.4753 70.105C39.6811 70.105 47.9298 70.105 53.2214 70.105C54.3628 70.105 54.1553 68.3655 53.9996 67.4676C52.132 57.1986 44.7652 46.0878 44.7652 31.498L37.5541 30.2634C31.6918 40.4764 29.6167 53.1583 28.4753 70.105Z" fill="#E0E0E0"/>
<path d="M25.985 59.6676C20.9528 69.4878 16.6988 76.5582 13.2748 80.9352L8.08691 79.8129C11.4071 57.423 21.1085 40.8691 37.0871 30.2073H37.1908H39.9404C46.3215 53.8317 48.0853 69.5439 45.232 77.4H22.9761C23.3392 71.6762 24.4287 65.6158 25.985 59.6676Z" fill="#EA6206"/>
</svg>
