<svg width="360" height="280" viewBox="0 0 360 280" fill="none" xmlns="http://www.w3.org/2000/svg">
<g clip-path="url(#clip0)">
<path d="M360 0H0V213H360V0Z" fill="#8E776B"/>
<path d="M360 153H0V280H360V153Z" fill="#5A483C"/>
<path d="M166.343 39.4746H143V69.789H166.343V39.4746Z" fill="#CCC3C0"/>
<path d="M161.748 57.0081C161.643 57.0081 161.537 57.0081 161.431 57.0081C161.167 57.0081 160.903 57.0609 160.692 57.1665C160.534 57.2193 160.375 57.2721 160.217 57.2193C160.375 56.8496 160.534 56.48 160.692 56.1103C160.745 56.0046 160.798 55.8462 160.903 55.7406C161.167 55.3181 161.696 55.1596 162.224 55.1596C161.907 55.1596 161.59 55.1068 161.273 55.2124C160.956 55.3181 160.692 55.5821 160.481 55.8462C160.164 56.2687 159.9 56.7968 159.477 57.1665C159.108 57.4834 158.632 57.589 158.157 57.5362C158.051 57.5362 157.999 57.4834 157.946 57.4306C157.946 57.3778 157.946 57.3778 157.946 57.3249C158.051 57.0609 158.368 56.8496 158.368 56.5856C158.157 56.7968 157.946 57.0081 157.787 57.2193C157.735 57.2721 157.629 57.3778 157.576 57.3778C157.471 57.3778 157.365 57.2721 157.312 57.2193C157.048 56.9025 156.731 56.5856 156.467 56.2687C156.626 56.744 156.89 57.2193 157.259 57.5362C156.942 57.8003 156.414 57.8003 156.045 57.5362C155.675 57.2721 155.464 56.8496 155.358 56.4271C155.252 55.9518 155.305 55.4237 155.2 54.9484C155.2 54.8428 155.147 54.7899 155.041 54.7371C154.936 54.6843 154.83 54.6843 154.777 54.7899C154.883 54.6843 154.355 54.1034 154.724 54.1034C154.143 54.1562 153.615 53.7337 153.457 53.2056C154.355 53.5753 155.411 53.5224 156.309 53.1528C156.731 52.9415 157.154 52.6774 157.576 52.4662C157.999 52.2549 158.474 52.0437 158.949 52.0437C159.425 52.0437 159.953 52.2021 160.217 52.6246C159.794 52.3606 159.213 52.3078 158.738 52.4134C158.21 52.519 157.787 52.7831 157.365 53.1528C158.104 53.364 158.844 53.5753 159.583 53.7865C159.213 53.9449 158.791 53.8393 158.421 53.6809C158.051 53.5224 157.629 53.4168 157.259 53.5224C157.576 53.6281 157.84 53.7865 158.104 53.9449C157.312 53.7865 156.52 53.7865 155.728 53.9449C156.678 54.0506 157.735 54.209 158.474 54.8428C159.002 55.2653 159.425 55.899 160.217 55.7406C160.481 55.6878 160.745 55.5293 161.009 55.4237C161.062 55.3709 161.167 55.3709 161.22 55.3181C161.326 55.2653 161.379 55.2653 161.484 55.2124C161.537 55.1596 161.484 55.054 161.431 55.054C161.379 55.054 161.273 55.1068 161.22 55.1596C160.851 55.4237 160.322 55.5293 159.9 55.3709C159.847 55.3181 159.847 55.3181 159.794 55.2653C159.741 55.2124 159.689 55.1596 159.636 55.054C159.583 54.8956 159.741 54.7899 159.847 54.6843C160.745 53.8921 161.326 52.7303 161.484 51.5156C161.854 48.8749 160.956 46.6568 159.108 44.7556C157.576 43.1712 155.728 42.379 153.51 42.5902C152.929 42.6431 152.348 42.7487 151.82 43.0127C151.503 43.224 151.239 43.4881 151.291 43.9106C151.344 44.1218 151.397 44.2802 151.661 44.2274C151.978 44.1746 152.348 44.1746 152.665 44.1746C153.351 44.1746 154.038 44.2274 154.671 44.4387C154.566 44.4915 154.513 44.4915 154.407 44.4387C153.721 44.3859 153.034 44.4387 152.295 44.4915C151.397 44.5443 150.658 44.914 149.971 45.4421C149.39 45.8646 148.968 46.3927 148.651 47.0265C148.598 47.1321 148.492 47.2906 148.756 47.2906C149.918 47.1849 150.869 47.6602 151.767 48.3468C152.401 48.8221 152.823 49.4031 153.193 50.1424C153.351 50.4065 153.562 50.6178 153.879 50.5649C154.196 50.5121 154.196 50.2481 154.196 49.984L154.249 49.9312C154.407 50.1953 154.513 50.4065 154.355 50.6706C154.143 51.0931 153.721 51.1459 153.298 51.1459C153.721 51.4628 154.143 51.3043 154.619 51.1987C154.513 51.4099 154.407 51.5684 154.249 51.674C154.038 51.7268 153.774 51.8324 153.562 51.8853C153.826 51.9381 153.932 51.9381 154.355 51.7268C154.883 51.5156 155.358 51.6212 155.781 51.9381C155.886 51.9909 156.045 52.0965 155.939 52.2021C155.886 52.3078 155.675 52.3606 155.516 52.2549C155.041 51.9909 154.619 52.1493 154.143 52.2021C154.196 52.3606 154.302 52.3078 154.355 52.3606C155.252 52.5718 156.045 52.3606 156.731 51.7268C157.101 51.4099 157.418 51.0931 157.84 50.829C158.263 50.6178 158.685 50.4593 159.161 50.5649C159.53 50.6706 159.741 50.8818 159.794 51.2515C159.319 50.829 158.949 50.7762 158.368 51.1459C157.946 51.4099 157.629 51.8324 157.206 52.1493C156.361 52.8887 155.411 53.3112 154.302 53.1528C153.298 52.9943 152.876 52.6246 152.559 51.6212C152.506 51.4628 152.453 51.3043 152.348 51.1987C152.031 50.7762 151.82 50.3537 151.82 49.8256C151.82 49.6671 151.714 49.6143 151.608 49.5087C151.08 49.139 150.763 48.6637 150.763 47.9771C150.763 47.8187 150.658 47.7659 150.499 47.7131C149.918 47.449 149.285 47.3434 148.651 47.3434C148.44 47.3434 148.281 47.449 148.228 47.6603C147.806 48.8221 147.542 50.0368 147.964 51.2515C148.07 51.5684 148.017 51.9381 147.859 52.2021C147.647 52.6246 147.383 52.9943 147.119 53.4168C147.014 53.5224 146.908 53.6809 146.802 53.8393C146.538 54.209 146.697 54.5259 147.172 54.6315C147.331 54.6315 147.489 54.6843 147.647 54.6843C147.753 54.7371 147.859 54.7899 147.964 54.8428C148.07 55.0012 147.964 55.2124 147.964 55.3709C147.859 55.7934 147.911 55.899 148.334 56.0046C148.704 56.1103 149.021 56.1631 149.443 56.2687C149.126 56.3743 148.862 56.3743 148.598 56.3215C148.44 56.2687 148.228 56.2159 148.123 56.4271C148.017 56.6384 148.123 56.7968 148.281 56.9025C148.651 57.1665 148.704 57.4834 148.545 57.8531C148.334 58.3812 148.651 58.9093 149.179 59.015C149.39 59.0678 149.549 59.0678 149.76 59.0678C150.341 59.0678 150.922 58.9093 151.503 58.7509C152.189 58.5396 152.876 58.8565 153.14 59.4375C153.668 60.5993 154.196 61.7612 154.619 62.9231C154.777 63.3984 154.777 63.8209 154.513 64.2434C154.196 64.8243 154.091 65.5109 153.826 66.0918C153.721 66.3031 153.826 66.4615 154.091 66.4087C154.671 66.3559 155.358 66.1446 155.569 65.4581C155.992 64.2434 156.626 63.0815 157.523 62.1309C157.629 62.0253 157.629 61.9725 157.576 61.814C157.206 61.1275 157.312 60.4409 157.629 59.7543C157.735 59.4903 157.893 59.2262 157.999 58.9093C158.051 58.6453 158.104 58.3812 157.893 58.1171C157.787 58.0115 157.735 57.9587 157.576 58.0115C156.942 58.3284 156.15 58.17 155.622 57.6418C155.569 57.589 155.464 57.5362 155.569 57.4306C156.15 57.8531 156.784 57.8003 157.418 57.4834C157.471 57.4306 157.576 57.4306 157.629 57.4834C158.316 57.8531 159.002 57.6946 159.689 57.3778C160.27 57.1665 160.903 56.8496 161.537 56.9025C161.748 56.9025 161.96 57.0081 162.118 57.1137C162.435 57.3778 162.541 57.8003 162.435 58.17C162.593 57.9587 162.646 57.6418 162.593 57.3778C162.541 57.1137 162.329 56.9024 162.118 56.744C162.012 57.0609 161.907 57.0609 161.748 57.0081ZM155.675 49.9312C154.671 49.9312 153.932 49.1918 153.932 48.1884C153.932 47.1849 154.724 46.4456 155.675 46.3927C156.678 46.3927 157.418 47.1849 157.418 48.1356C157.471 49.139 156.678 49.984 155.675 49.9312ZM148.651 50.1953C148.756 50.1424 148.915 50.0896 149.073 50.0896C149.654 50.0896 150.235 50.1953 150.711 50.3537C150.077 50.3537 149.39 50.1953 148.756 50.4065C148.704 50.4065 148.598 50.4593 148.545 50.3537C148.492 50.3009 148.545 50.2481 148.651 50.1953ZM149.285 52.2021C149.179 52.2021 148.915 52.3606 149.021 51.9909C149.073 51.7796 149.073 51.4099 148.704 51.3043C148.651 51.3043 148.545 51.1987 148.545 51.0403C148.809 51.1987 149.073 51.1459 149.285 51.0931C149.496 51.0403 149.707 51.0931 149.918 51.2515C150.235 51.4628 150.552 51.6212 150.975 51.7796C150.394 51.8853 149.866 52.1493 149.285 52.2021Z" fill="#775D46"/>
<path d="M158.791 58.8037C158.844 59.1206 158.738 59.3846 158.632 59.5959C158.474 59.86 158.316 60.124 158.157 60.3353C157.946 60.6522 157.735 60.969 157.735 61.3387C157.735 61.55 157.682 61.814 157.84 61.9197C157.999 62.0253 158.157 61.7612 158.263 61.6556C158.421 61.55 158.632 61.4972 158.632 61.2331C158.632 60.7578 158.791 60.2825 158.897 59.8072C159.002 59.4903 158.949 59.1206 158.791 58.8037Z" fill="#775D46"/>
<path d="M152.612 59.6494C152.612 60.0719 152.4 60.3888 152.453 60.7585C152.506 61.1282 152.717 61.445 153.14 61.5507C152.876 61.181 152.823 60.9169 153.14 60.6C153.193 60.5472 153.193 60.4416 153.14 60.3888C153.034 60.1247 152.929 59.8607 152.612 59.6494Z" fill="#775D46"/>
<path d="M159.636 59.2793C159.636 59.7546 159.689 60.1771 159.794 60.5468C159.847 60.7052 159.847 60.8637 160.111 60.8109C160.375 60.758 160.428 60.6524 160.375 60.3884C160.27 59.913 159.9 59.7018 159.636 59.2793Z" fill="#775D46"/>
<path d="M159.319 59.9131C159.108 60.2828 158.949 60.6525 158.844 61.0221C158.844 61.1278 158.844 61.2862 159.002 61.1806C159.213 61.075 159.372 61.0222 159.583 60.9165C159.689 60.8637 159.742 60.8109 159.636 60.7581C159.478 60.5468 159.478 60.23 159.319 59.9131Z" fill="#775D46"/>
<path d="M153.298 62.0254C153.51 62.1838 153.668 62.3951 153.879 62.5535C153.932 62.131 153.563 62.131 153.298 62.0254Z" fill="#775D46"/>
<path d="M155.675 47.0264C155.041 47.0264 154.513 47.5545 154.513 48.1354C154.513 48.822 155.041 49.3501 155.675 49.3501C156.309 49.3501 156.837 48.822 156.837 48.1882C156.837 47.5545 156.309 47.0264 155.675 47.0264ZM155.675 48.822C155.305 48.822 155.041 48.5579 155.041 48.1882C155.041 47.8186 155.358 47.5017 155.728 47.5545C156.097 47.5545 156.362 47.8714 156.362 48.2411C156.309 48.5579 156.045 48.822 155.675 48.822Z" fill="#775D46"/>
<path d="M361.989 45.0176H190.717V134.06H361.989V45.0176Z" fill="#CCC3C0"/>
<path d="M355.915 74.4338C355.915 74.4338 350.423 73.5888 348.838 73.1135C348.838 73.1135 348.416 71.6347 347.888 71.3179C347.307 71.001 346.409 71.265 346.092 71.5819C346.092 71.5819 346.039 69.9447 345.353 69.4694C344.666 68.9941 344.191 68.8357 343.61 68.8885C343.082 68.9413 342.131 69.4166 342.131 69.4166C342.131 69.4166 341.867 68.3075 341.022 67.6738C340.124 67.04 339.543 67.4097 339.226 67.621C338.909 67.8322 338.329 68.2547 338.329 68.2547C338.329 68.2547 336.269 65.2972 334.262 64.5578C332.255 63.8185 327.977 64.0297 326.446 65.086C324.914 66.0894 324.069 66.776 324.069 66.776C324.069 66.776 323.858 65.8782 322.96 65.7197C322.062 65.5613 320.689 65.8253 320.319 66.4063C319.95 66.9872 319.686 67.3569 319.633 67.4097C319.633 67.4625 319.263 66.6703 318.524 66.776C317.784 66.8288 317.098 67.1457 316.781 67.4625C316.517 67.7794 316.306 67.9907 316.306 67.9907C316.306 67.9907 315.83 66.9872 314.933 67.1457C314.035 67.3041 314.14 67.4097 313.507 67.9378C313.507 67.9378 312.714 67.5153 312.186 67.5682C311.658 67.621 311.447 68.5188 311.447 68.5188C311.288 68.466 310.496 67.621 309.229 67.7266C307.961 67.8322 307.328 69.6278 307.328 69.6278C306.113 69.6278 306.166 69.4166 304.264 69.6278C302.363 69.8919 302.258 72.2157 301.941 72.1629C301.677 72.11 301.096 72.0044 300.251 72.2685C299.406 72.5854 299.67 73.3775 298.983 73.536C298.297 73.6944 292.223 74.381 292.223 74.381H297.768C298.191 74.4866 298.613 74.645 299.089 74.8035C300.145 75.1204 301.254 74.4338 302.205 74.6979C303.208 74.9619 303.631 75.8069 305.004 75.7013C307.38 75.5429 309.704 76.916 311.975 76.3879C312.767 76.2294 313.454 75.8597 314.246 75.7013C315.566 75.4372 316.887 75.9125 318.207 76.0182C319.316 76.1238 320.267 75.5957 321.376 75.49C322.643 75.3844 323.911 75.9125 325.125 76.1238C326.393 76.3879 327.713 76.3879 329.034 76.1238C330.301 75.8597 331.621 75.3316 332.942 75.3844C334.262 75.4372 335.318 75.8597 336.533 75.1204C336.903 75.5957 337.484 75.7013 338.064 75.49C338.54 75.3316 338.962 75.0675 339.438 75.0147C340.071 74.9091 340.758 75.1732 341.444 75.226C343.451 75.49 346.303 74.8563 348.257 74.4338C348.733 74.3282 349.366 74.3282 349.947 74.2754H355.915V74.4338Z" fill="#99847A"/>
<path d="M327.766 99.0978C327.766 99.0978 324.333 98.5697 322.696 98.2C322.749 98.2 322.749 98.2 322.802 98.2C322.802 97.7775 322.432 97.5662 321.957 97.4078C321.798 97.0909 321.64 96.774 321.428 96.6684C321.006 96.4044 320.267 96.6156 320.002 96.8797C320.002 96.8797 319.95 95.5594 319.422 95.1897C318.893 94.82 318.471 94.7144 318.048 94.7672C317.626 94.82 316.887 95.1897 316.887 95.1897C316.887 95.1897 316.675 94.2919 315.989 93.8165C315.302 93.3412 314.827 93.6053 314.563 93.7637C314.299 93.9222 313.876 94.2919 313.876 94.2919C313.876 94.2919 312.239 91.9681 310.655 91.3872C309.07 90.8062 305.69 90.9647 304.476 91.8097C303.261 92.6019 302.627 93.13 302.627 93.13C302.627 93.13 302.416 92.4962 301.729 92.285C300.832 92.0209 300.145 93.2356 300.145 93.2356C300.145 93.2356 298.297 91.2287 297.293 90.9647C296.237 90.7006 294.969 90.4894 293.596 91.3344C292.276 92.1265 292.329 94.3975 292.329 94.6087C292.223 94.6087 291.959 94.5559 291.061 94.4503C289.424 94.2919 288.579 97.4606 288.579 97.4606C287.47 97.8303 282.928 98.5169 282.928 98.5169C282.4 98.6225 277.594 99.1506 277.594 99.1506H283.667C285.199 99.4675 286.678 99.9956 288.368 99.89C288.368 99.7844 288.368 99.6259 288.421 99.5203C289.266 101.105 291.537 99.6787 292.804 99.7844C293.913 99.8372 294.811 100.312 296.026 100.312C296.923 100.312 297.821 100.048 298.666 100.048C300.356 100.048 302.046 100.577 303.789 100.312C304.74 100.207 305.373 99.7316 306.166 99.7316C307.908 99.7844 309.651 100.207 311.447 100.048C312.397 99.9956 313.137 99.5731 313.876 99.1506H327.766V99.0978Z" fill="#99847A"/>
<path d="M357.711 104.59C357.711 104.59 354.595 104.221 352.588 104.009C352.06 103.745 351.268 103.587 350.528 103.481C350.317 103.164 350.264 102.689 349.683 102.478C348.838 102.161 348.31 102.266 347.993 102.372C347.729 102.425 347.571 100.101 345.669 99.8371C343.768 99.573 343.821 99.7843 342.606 99.8371C342.606 99.8371 341.973 98.0943 340.705 97.9358C339.438 97.7774 338.645 98.6752 338.487 98.728C338.487 98.728 338.329 97.8302 337.748 97.7774C337.219 97.7246 336.427 98.1471 336.427 98.1471C335.741 97.6189 335.899 97.5661 335.001 97.3549C334.104 97.1964 333.628 98.1999 333.628 98.1999C333.628 98.1999 333.417 98.0414 333.153 97.6718C332.889 97.3549 332.202 97.038 331.41 96.9852C330.671 96.9324 330.354 97.7246 330.301 97.6189C330.301 97.5661 330.037 97.1964 329.614 96.6155C329.245 96.0346 327.819 95.7177 326.974 95.9289C326.076 96.0874 325.865 96.9852 325.865 96.9852C325.865 96.9852 325.02 96.2986 323.488 95.2952C321.957 94.2918 317.679 94.0805 315.672 94.7671C313.665 95.5064 311.605 98.4639 311.605 98.4639C311.605 98.4639 311.024 98.0414 310.708 97.8302C310.391 97.6189 309.81 97.2493 308.912 97.883C308.014 98.5168 307.803 99.6258 307.803 99.6258C307.803 99.6258 306.852 99.1505 306.324 99.0977C305.796 99.0449 305.268 99.1505 304.581 99.6786C303.895 100.154 303.842 101.791 303.842 101.791C303.525 101.474 302.627 101.157 302.046 101.527C301.465 101.844 301.096 103.323 301.096 103.323C299.458 103.798 294.019 104.643 294.019 104.643H297.346C298.402 104.801 299.511 105.013 300.568 105.171C301.729 105.33 302.733 105.118 303.842 105.066C304.687 105.066 305.373 105.33 306.377 105.435C308.331 105.646 310.338 105.911 312.345 105.805C313.454 105.752 314.14 105.277 315.091 105.066C315.989 104.854 316.358 105.066 317.362 105.277C318.788 105.594 320.161 105.541 321.64 105.541C322.221 105.541 322.854 105.594 323.435 105.541C323.858 105.488 323.911 105.066 324.439 105.066C325.389 105.118 326.129 106.491 327.185 105.435C327.924 106.069 328.453 105.382 329.034 105.33C330.724 105.171 332.572 105.805 334.262 105.805C335.741 105.805 337.114 105.752 338.54 105.435C339.385 105.224 340.388 104.696 341.233 104.643C342.395 104.59 344.032 105.277 345.353 105.277C346.514 105.33 347.571 105.277 348.68 105.066C349.63 104.907 350.634 104.801 351.584 104.59H357.711V104.59Z" fill="white"/>
<path d="M294.441 83.5172C294.441 83.5172 288.262 82.5665 286.414 82.0384C286.414 82.0384 285.939 80.3484 285.305 79.9787C284.671 79.609 283.668 79.9259 283.298 80.2956C283.298 80.2956 283.245 78.4472 282.506 77.8662C281.766 77.3381 281.185 77.1797 280.552 77.2325C279.918 77.2853 278.915 77.8662 278.915 77.8662C278.915 77.8662 278.598 76.5987 277.647 75.8594C276.644 75.1728 276.01 75.5425 275.64 75.8065C275.27 76.0178 274.637 76.5459 274.637 76.5459C274.637 76.5459 272.313 73.2187 269.989 72.3737C267.665 71.5815 262.86 71.7928 261.117 72.9547C259.374 74.1165 258.423 74.8559 258.423 74.8559C258.423 74.8559 258.159 73.8525 257.156 73.6412C256.152 73.43 254.568 73.7997 254.145 74.4334C253.723 75.0672 253.406 75.4897 253.406 75.5953C253.353 75.7009 252.984 74.8031 252.139 74.8559C251.294 74.9615 250.501 75.2784 250.185 75.6481C249.868 76.0178 249.656 76.229 249.656 76.229C249.656 76.229 249.128 75.0672 248.072 75.2784C247.069 75.4897 247.174 75.5953 246.435 76.1762C246.435 76.1762 245.537 75.7009 244.903 75.7537C244.27 75.8065 244.111 76.81 244.111 76.81C243.953 76.7572 243.055 75.8065 241.629 75.9122C240.203 76.0706 239.516 78.0247 239.516 78.0247C238.143 77.9719 238.196 77.7606 236.031 78.0775C233.918 78.3944 233.707 81.035 233.39 80.9294C233.073 80.8237 232.439 80.7181 231.489 81.0878C230.538 81.4575 230.802 82.3553 230.01 82.5665C229.218 82.725 222.352 83.5172 222.352 83.5172H229.165C230.327 83.6228 231.489 83.8341 232.704 83.9925C234.605 84.2566 236.559 83.7284 238.354 84.415C240.203 85.1544 242.051 85.7881 244.058 85.8937C245.959 85.9994 247.385 84.9959 249.181 84.7319C250.818 84.4678 251.505 85.9994 253.195 86.2634C254.251 86.4219 256.628 85.8409 256.945 84.7319C258.476 86.4219 259.744 85.5769 261.539 85.1544C262.648 84.8903 262.912 85.2072 264.127 85.8937C265.659 86.7916 266.873 87.2141 268.669 87.3197C272.155 87.4781 274.848 87.1084 277.7 85.1016C278.175 84.7319 278.915 83.9397 279.495 83.7812C280.182 83.6228 281.344 84.0981 282.136 84.2566C283.826 84.5734 284.83 84.1509 286.15 83.9925C286.625 83.9397 289.847 84.3622 290.216 83.5172H294.441V83.5172Z" fill="white"/>
<path fill-rule="evenodd" clip-rule="evenodd" d="M248.547 137.439H303.947H307.961H364.576V40H187.126V137.439H244.586H248.547ZM191.14 133.267V44.225H244.586V133.267H191.14ZM248.547 133.267V44.225H303.947V133.267H248.547ZM360.615 133.267H308.014V44.225H360.615V133.267Z" fill="#B5A8A3"/>
<path d="M198.111 40.3701H196.844V97.5133H198.111V40.3701Z" fill="white"/>
<path d="M254.832 41.1621H253.564V98.3053H254.832V41.1621Z" fill="white"/>
<path d="M356.232 42.0068H354.964V99.15H356.232V42.0068Z" fill="white"/>
<path d="M362.411 44.1191H188.869V45.3866H362.411V44.1191Z" fill="white"/>
<path d="M362.411 48.1855H188.869V49.453H362.411V48.1855Z" fill="white"/>
<path d="M362.411 52.6748H188.869V53.9423H362.411V52.6748Z" fill="white"/>
<path d="M362.411 57.3223H188.869V58.5898H362.411V57.3223Z" fill="white"/>
<path d="M362.411 61.5479H188.869V62.8154H362.411V61.5479Z" fill="white"/>
<path d="M362.411 66.248H188.869V67.5155H362.411V66.248Z" fill="white"/>
<path d="M362.411 71.1064H188.869V72.3739H362.411V71.1064Z" fill="white"/>
<path d="M181.105 144.517C185.86 144.517 189.714 144.186 189.714 143.777C189.714 143.369 185.86 143.038 181.105 143.038C176.351 143.038 172.497 143.369 172.497 143.777C172.497 144.186 176.351 144.517 181.105 144.517Z" fill="#4F3A29"/>
<path d="M197.794 93.1826C197.9 96.7739 197.213 99.9426 196.104 102.795L193.939 101.685L195.576 103.956C194.15 107.178 192.249 109.819 190.4 111.878L189.714 109.238V112.618C186.809 115.681 184.221 117.265 184.221 117.265C186.967 100.682 197.794 93.1826 197.794 93.1826Z" fill="#634C38"/>
<path d="M181.422 155.977C178.306 132.158 185.383 113.938 185.436 113.727L185.753 113.832C185.7 113.991 178.676 132.158 181.739 155.871L181.422 155.977Z" fill="#634C38"/>
<path d="M181.105 148.742H180.788C180.788 148.425 182.795 117.583 168.958 104.96L169.17 104.696C183.112 117.424 181.105 148.425 181.105 148.742Z" fill="#7F644F"/>
<path d="M147.622 100.048C147.622 100.048 172.972 94.5559 176.352 115.945C176.405 115.945 163.466 102.002 147.622 100.048Z" fill="#634C38"/>
<path d="M166.476 108.498L165.843 111.245C166.846 111.878 167.902 112.512 169.011 113.093L169.539 112.459V113.41C171.705 114.519 173.976 115.47 176.352 115.945C176.352 115.945 172.814 98.1472 147.622 100.048C147.622 100.048 149.893 104.115 154.699 105.488L156.231 104.273L155.227 105.647C155.333 105.647 155.438 105.699 155.544 105.699C158.29 106.227 161.459 108.498 165.05 110.769L166.476 108.498Z" fill="#7F644F"/>
<path d="M180.366 154.551C180.366 154.234 178.359 123.18 192.302 110.452L192.513 110.716C178.623 123.338 180.63 154.181 180.683 154.498L180.366 154.551Z" fill="#7F644F"/>
<path d="M213.849 105.858C213.849 105.858 188.499 100.365 185.119 121.755C185.119 121.755 198.005 107.812 213.849 105.858Z" fill="#634C38"/>
<path d="M194.995 114.308L195.629 117.054C194.625 117.688 193.569 118.322 192.46 118.903L191.932 118.269V119.22C189.767 120.329 187.496 121.279 185.119 121.755C185.119 121.755 188.658 103.957 213.849 105.858C213.849 105.858 211.578 109.925 206.772 111.298L205.241 110.083L206.244 111.456C206.139 111.456 206.033 111.509 205.927 111.509C203.181 112.037 200.012 114.308 196.421 116.579L194.995 114.308Z" fill="#7F644F"/>
<path d="M181.528 146.418C179.996 136.014 181.792 105.171 181.792 104.854H182.109C182.109 105.171 180.313 135.961 181.845 146.365L181.528 146.418Z" fill="#634C38"/>
<path d="M184.486 108.234L186.228 108.657C186.704 107.336 186.968 105.752 187.179 104.168L184.908 102.847L187.285 103.64C187.654 100.84 187.866 97.9358 188.394 95.612C188.552 94.9255 188.658 94.2917 188.658 93.6052L186.387 94.8199L188.605 92.4433C188.235 87.3205 184.433 83.2539 184.433 83.2539C182.162 87.6902 180.789 113.093 181.158 113.093C183.535 113.04 184.961 111.72 185.806 109.66L184.486 108.234Z" fill="#634C38"/>
<path d="M178.623 94.1862L180.736 94.1334L178.623 94.7143C178.623 95.0312 178.623 95.3481 178.676 95.6649C178.835 97.7774 178.835 99.7843 178.782 101.686L180.366 101.633L178.729 102.795C178.623 108.129 178.518 112.142 181.211 113.04L184.485 83.2012C184.485 83.2012 178.835 86.6868 178.623 94.1862Z" fill="#7F644F"/>
<path d="M164.205 87.9014C164.1 91.4926 164.786 94.6614 165.895 97.5133L168.061 96.4042L166.423 98.6751C167.849 101.844 169.751 104.537 171.599 106.597L172.286 103.956V107.336C175.19 110.4 177.778 111.984 177.778 111.984C175.032 95.4007 164.205 87.9014 164.205 87.9014Z" fill="#7F644F"/>
<path d="M180.577 150.695L180.26 150.642C183.376 126.93 176.352 108.762 176.247 108.604L176.564 108.498C176.616 108.656 183.693 126.877 180.577 150.695Z" fill="#7F644F"/>
<path d="M181.105 144.464C176.352 144.464 172.497 144.147 172.497 143.725L175.666 156.452C175.666 156.452 177.461 157.245 181.264 157.245C185.014 157.245 186.862 156.452 186.862 156.452L189.767 143.725C189.714 144.147 185.859 144.464 181.105 144.464Z" fill="#5B442F"/>
<path d="M364.735 144.729C369.226 144.729 372.868 144.421 372.868 144.042C372.868 143.663 369.226 143.355 364.735 143.355C360.243 143.355 356.602 143.663 356.602 144.042C356.602 144.421 360.243 144.729 364.735 144.729Z" fill="#7F644F"/>
<path d="M367.164 110.928C366.847 110.558 366.425 110.241 366.002 109.977C365.896 109.925 365.738 109.977 365.685 110.083C365.368 110.717 365.051 111.298 364.682 111.879C364.576 112.09 364.365 112.301 364.206 112.46L364.154 112.512C364.101 112.46 364.101 112.407 364.101 112.354C363.784 111.456 364.154 110.506 363.942 109.608C363.837 109.132 363.52 108.657 363.15 108.287C362.781 107.918 362.252 107.759 362.041 107.231C361.936 107.02 361.724 107.073 361.619 107.231C361.091 108.023 360.351 108.816 360.193 109.766C360.087 110.611 360.51 111.351 361.038 111.984C361.302 112.301 361.513 112.618 361.724 112.988C361.83 113.199 361.988 113.516 361.83 113.727C361.619 113.938 361.355 113.569 361.196 113.41C360.879 113.093 360.615 112.724 360.351 112.354C359.876 111.773 359.189 110.822 358.344 111.034C357.975 111.086 357.816 111.509 357.816 111.826C357.763 112.354 358.027 112.935 358.291 113.41C358.872 114.414 360.087 114.731 360.879 115.576C361.038 115.787 361.566 116.421 361.249 116.685C361.143 116.79 360.932 116.737 360.826 116.737C360.562 116.685 360.246 116.579 359.981 116.421C359.084 115.734 358.767 114.572 357.869 113.938C357.446 113.674 356.813 113.463 356.337 113.621C355.915 113.727 355.756 114.097 355.704 114.519C355.704 114.995 355.915 115.47 356.126 115.892C356.39 116.368 356.76 116.737 357.235 117.001C358.186 117.53 359.348 117.582 359.981 118.586C360.087 118.691 360.14 118.903 360.14 119.061C360.087 119.167 359.929 119.22 359.823 119.272C359.348 119.378 358.714 119.22 358.291 118.956C357.763 118.691 357.394 118.216 357.024 117.794C356.601 117.371 356.179 117.001 355.598 116.843C355.176 116.737 354.647 116.737 354.383 117.107C354.119 117.477 354.172 117.952 354.278 118.322C354.383 118.85 354.7 119.325 355.07 119.748C355.44 120.17 356.073 120.434 356.601 120.646C357.182 120.857 357.763 120.962 358.291 121.174C358.45 121.226 358.556 121.279 358.714 121.279C358.872 121.279 359.084 121.279 359.242 121.332C359.401 121.385 359.295 121.543 359.242 121.649C359.136 121.913 358.767 121.86 358.556 121.913C358.344 121.913 358.133 121.966 357.922 121.966C357.658 121.966 357.394 121.913 357.182 121.86C356.707 121.807 356.179 121.702 355.704 121.86C355.228 122.019 354.911 122.441 354.806 122.916C354.647 123.92 355.756 124.554 356.601 124.659C357.13 124.765 357.605 124.606 358.08 124.342C358.661 124.026 359.136 123.55 359.77 123.445C359.823 123.709 359.717 123.92 359.506 124.131C359.189 124.395 358.714 124.554 358.344 124.712C357.552 124.976 356.443 125.24 356.021 126.032C355.968 126.138 355.968 126.244 356.073 126.349C356.443 126.719 356.866 126.983 357.394 127.036C357.816 127.089 358.239 126.877 358.608 126.666C359.242 126.244 359.77 125.61 360.457 125.346C360.351 125.504 360.193 125.663 359.981 125.821C359.612 126.085 359.453 126.455 359.348 126.877C359.189 127.511 359.401 128.198 360.193 128.198C360.615 128.198 361.038 127.986 361.355 127.775C361.724 127.564 362.041 127.194 362.305 126.825C362.622 126.349 362.781 125.821 362.886 125.24C363.52 126.455 364.893 127.722 366.161 126.666C367.27 125.768 365.474 125.082 364.735 124.342C364.893 124.395 364.999 124.448 365.157 124.554C365.527 124.765 365.896 124.976 366.266 125.135C367.006 125.451 367.798 125.399 368.22 124.659C368.59 124.026 367.798 123.709 367.322 123.55C366.953 123.445 366.213 123.286 365.949 122.916C366.9 123.022 367.956 123.128 368.801 122.6C369.171 122.336 369.646 121.86 369.699 121.385C369.752 121.015 369.329 120.857 369.012 120.857C368.22 120.751 367.375 121.121 366.583 121.121C366.372 121.121 366.213 121.068 366.002 121.068C365.949 121.068 365.844 121.015 365.791 121.015C365.738 121.015 365.738 120.962 365.738 120.962C365.738 120.962 365.738 120.962 365.738 120.91C365.791 120.804 365.896 120.751 366.002 120.698C366.213 120.54 366.425 120.487 366.689 120.434C367.164 120.381 367.639 120.434 368.115 120.381C368.643 120.276 369.065 119.959 369.435 119.589C369.752 119.22 370.069 118.797 370.121 118.322C370.174 117.846 369.857 117.477 369.435 117.318C368.167 116.843 367.481 118.111 366.583 118.691C366.372 118.85 366.055 118.956 365.791 119.008C365.685 119.061 365.368 119.167 365.263 119.061C365.21 119.008 365.421 118.691 365.474 118.586C365.632 118.269 365.896 118.111 366.161 117.952C366.9 117.53 367.798 117.371 368.379 116.737C368.748 116.315 369.065 115.523 368.696 114.995C368.273 114.414 367.428 114.572 366.9 114.889C366.266 115.311 365.949 116.156 365.21 116.368C365.157 115.998 365.263 115.681 365.527 115.364C365.896 114.889 366.319 114.519 366.741 114.097C367.164 113.727 367.534 113.305 367.745 112.776C367.639 111.931 367.481 111.403 367.164 110.928Z" fill="#634C38"/>
<path d="M352.588 114.678C352.112 114.519 351.584 114.466 351.109 114.466C351.003 114.466 350.845 114.572 350.845 114.73C350.898 115.417 350.951 116.104 350.898 116.79C350.898 117.001 350.845 117.318 350.792 117.477L350.739 117.53C350.686 117.53 350.634 117.477 350.634 117.424C349.947 116.79 349.736 115.787 349.049 115.153C348.68 114.783 348.204 114.519 347.729 114.414C347.201 114.308 346.673 114.414 346.25 114.097C346.092 113.991 345.881 114.15 345.881 114.308C345.828 115.259 345.564 116.315 345.933 117.213C346.25 118.005 347.042 118.375 347.782 118.691C348.151 118.85 348.521 119.008 348.838 119.22C349.049 119.325 349.366 119.536 349.313 119.8C349.261 120.065 348.838 119.906 348.574 119.853C348.151 119.748 347.729 119.536 347.306 119.378C346.62 119.114 345.511 118.691 344.877 119.272C344.613 119.536 344.666 119.959 344.824 120.223C345.088 120.698 345.616 121.068 346.039 121.332C347.095 121.913 348.257 121.543 349.366 121.86C349.63 121.913 350.37 122.23 350.264 122.6C350.211 122.705 350 122.811 349.894 122.864C349.63 122.969 349.313 123.022 348.996 123.022C347.887 122.916 346.99 122.019 345.881 121.966C345.405 121.913 344.771 122.124 344.402 122.441C344.085 122.758 344.138 123.18 344.296 123.497C344.507 123.92 344.983 124.237 345.352 124.448C345.828 124.712 346.356 124.818 346.884 124.818C347.94 124.818 348.996 124.237 350.053 124.765C350.211 124.818 350.37 124.923 350.422 125.082C350.475 125.187 350.317 125.346 350.264 125.399C349.894 125.715 349.261 125.927 348.785 125.927C348.204 125.98 347.623 125.715 347.095 125.557C346.514 125.399 345.933 125.346 345.352 125.504C344.93 125.61 344.507 125.874 344.455 126.349C344.402 126.772 344.719 127.194 344.983 127.458C345.352 127.828 345.881 128.092 346.356 128.303C346.884 128.462 347.571 128.409 348.099 128.25C348.68 128.145 349.208 127.934 349.841 127.828C350 127.775 350.106 127.775 350.264 127.722C350.422 127.67 350.581 127.564 350.739 127.511C350.898 127.458 350.898 127.67 350.898 127.775C350.951 128.039 350.581 128.25 350.422 128.356C350.264 128.462 350.106 128.62 349.894 128.779C349.683 128.884 349.419 128.99 349.208 129.095C348.732 129.307 348.257 129.465 347.94 129.835C347.623 130.205 347.571 130.733 347.729 131.208C348.099 132.159 349.366 132.106 350.158 131.789C350.634 131.578 351.003 131.261 351.267 130.785C351.584 130.205 351.743 129.571 352.271 129.148C352.429 129.36 352.482 129.571 352.376 129.888C352.218 130.31 351.901 130.627 351.69 130.997C351.162 131.63 350.317 132.423 350.37 133.32C350.37 133.426 350.422 133.532 350.581 133.532C351.056 133.637 351.584 133.637 352.06 133.426C352.429 133.215 352.693 132.845 352.852 132.475C353.169 131.789 353.327 130.997 353.75 130.363C353.75 130.574 353.697 130.733 353.591 130.997C353.433 131.419 353.486 131.842 353.591 132.211C353.802 132.845 354.331 133.32 354.964 132.951C355.334 132.74 355.545 132.37 355.756 132C355.968 131.578 356.073 131.155 356.073 130.68C356.073 130.099 355.968 129.571 355.756 129.043C356.918 129.782 358.767 130.152 359.295 128.567C359.77 127.247 357.869 127.564 356.866 127.3C357.024 127.3 357.182 127.247 357.341 127.247C357.763 127.194 358.186 127.194 358.608 127.141C359.401 127.036 360.087 126.56 360.034 125.715C360.034 124.976 359.189 125.135 358.714 125.24C358.344 125.346 357.658 125.61 357.182 125.399C358.08 124.976 359.031 124.554 359.453 123.656C359.665 123.233 359.77 122.6 359.559 122.177C359.401 121.807 358.978 121.913 358.714 122.071C357.975 122.441 357.499 123.128 356.76 123.55C356.601 123.656 356.39 123.709 356.232 123.814C356.179 123.814 356.073 123.867 356.021 123.867C355.968 123.867 355.968 123.867 355.915 123.867V123.814C355.915 123.709 355.968 123.603 356.021 123.497C356.126 123.286 356.285 123.075 356.496 122.916C356.866 122.652 357.341 122.441 357.658 122.124C358.08 121.755 358.291 121.279 358.397 120.751C358.503 120.276 358.503 119.748 358.291 119.325C358.08 118.85 357.658 118.744 357.182 118.797C355.862 119.008 355.915 120.487 355.44 121.49C355.334 121.755 355.123 121.966 354.964 122.177C354.911 122.283 354.647 122.547 354.542 122.494C354.436 122.494 354.489 122.071 354.489 122.019C354.489 121.702 354.595 121.385 354.753 121.068C355.176 120.329 355.862 119.748 356.021 118.85C356.126 118.269 356.021 117.477 355.387 117.213C354.753 116.949 354.066 117.53 353.802 118.058C353.486 118.744 353.644 119.642 353.116 120.17C352.852 119.906 352.799 119.536 352.852 119.114C352.905 118.533 353.116 117.952 353.274 117.424C353.433 116.896 353.538 116.315 353.486 115.734C353.486 115.311 353.116 114.889 352.588 114.678Z" fill="#634C38"/>
<path d="M376.459 121.49C376.406 121.015 376.195 120.539 375.931 120.064C375.878 119.958 375.72 119.906 375.614 119.958C375.033 120.328 374.452 120.698 373.818 121.015C373.607 121.12 373.343 121.226 373.132 121.279H373.079C373.079 121.226 373.079 121.173 373.079 121.12C373.29 120.222 374.082 119.536 374.294 118.638C374.452 118.163 374.399 117.582 374.294 117.107C374.188 116.578 373.818 116.209 373.871 115.628C373.871 115.417 373.66 115.364 373.502 115.417C372.657 115.839 371.6 116.103 370.967 116.895C370.438 117.582 370.491 118.427 370.544 119.219C370.597 119.589 370.65 120.011 370.597 120.381C370.597 120.592 370.544 121.015 370.333 121.067C370.069 121.12 369.963 120.698 369.91 120.487C369.805 120.064 369.752 119.589 369.699 119.113C369.593 118.374 369.435 117.212 368.643 116.948C368.273 116.842 367.956 117.054 367.745 117.371C367.428 117.846 367.375 118.427 367.375 118.955C367.375 120.117 368.273 121.015 368.537 122.124C368.59 122.388 368.696 123.18 368.326 123.286C368.22 123.338 368.009 123.18 367.903 123.074C367.692 122.916 367.481 122.652 367.375 122.388C366.953 121.332 367.27 120.17 366.794 119.166C366.583 118.691 366.108 118.268 365.632 118.11C365.21 118.004 364.84 118.216 364.629 118.585C364.365 119.008 364.312 119.536 364.312 119.958C364.312 120.487 364.471 121.015 364.735 121.49C365.263 122.441 366.266 123.074 366.319 124.236C366.319 124.395 366.319 124.606 366.213 124.712C366.108 124.817 365.949 124.764 365.844 124.712C365.368 124.553 364.946 124.078 364.682 123.708C364.365 123.233 364.312 122.599 364.154 122.071C363.995 121.49 363.784 120.962 363.362 120.539C363.045 120.222 362.622 119.958 362.2 120.17C361.83 120.381 361.619 120.803 361.513 121.173C361.355 121.701 361.355 122.282 361.46 122.81C361.566 123.391 361.988 123.919 362.358 124.342C362.728 124.764 363.203 125.187 363.573 125.609C363.678 125.715 363.731 125.821 363.89 125.926C364.048 126.032 364.207 126.085 364.312 126.243C364.418 126.349 364.259 126.454 364.154 126.507C363.942 126.666 363.626 126.454 363.414 126.349C363.203 126.243 362.992 126.19 362.833 126.085C362.622 125.979 362.411 125.768 362.2 125.609C361.83 125.292 361.407 124.976 360.932 124.817C360.457 124.712 359.929 124.923 359.612 125.292C358.978 126.085 359.612 127.141 360.246 127.669C360.668 127.986 361.143 128.144 361.672 128.144C362.358 128.144 362.939 127.986 363.573 128.25C363.467 128.514 363.309 128.62 362.992 128.672C362.569 128.725 362.094 128.672 361.724 128.567C360.932 128.408 359.823 128.092 359.031 128.567C358.925 128.62 358.872 128.725 358.925 128.831C359.084 129.306 359.295 129.782 359.717 130.046C360.087 130.31 360.51 130.31 360.932 130.31C361.672 130.257 362.464 129.993 363.203 130.098C363.045 130.204 362.833 130.204 362.569 130.257C362.147 130.31 361.777 130.574 361.513 130.891C361.091 131.366 360.932 132.105 361.566 132.475C361.936 132.686 362.358 132.686 362.781 132.686C363.256 132.686 363.678 132.528 364.101 132.317C364.576 132.052 364.999 131.683 365.368 131.207C365.316 132.581 365.844 134.376 367.481 134.112C368.907 133.901 367.692 132.369 367.428 131.419C367.534 131.524 367.587 131.683 367.692 131.788C367.903 132.158 368.115 132.528 368.379 132.845C368.854 133.478 369.593 133.848 370.333 133.426C370.967 133.056 370.438 132.422 370.122 132.052C369.857 131.736 369.277 131.26 369.224 130.785C370.016 131.366 370.861 132 371.864 131.947C372.34 131.894 372.973 131.736 373.237 131.313C373.449 130.996 373.185 130.679 372.921 130.468C372.234 129.993 371.389 129.887 370.702 129.465C370.544 129.359 370.386 129.253 370.227 129.095C370.174 129.042 370.122 128.989 370.069 128.937L370.016 128.884C370.016 128.884 370.016 128.884 370.069 128.884C370.174 128.831 370.28 128.831 370.386 128.831C370.65 128.831 370.861 128.884 371.072 128.937C371.495 129.148 371.917 129.412 372.34 129.57C372.868 129.782 373.396 129.729 373.871 129.517C374.347 129.359 374.822 129.148 375.086 128.725C375.403 128.303 375.297 127.88 374.98 127.511C374.135 126.454 372.868 127.194 371.812 127.299C371.547 127.299 371.231 127.247 370.967 127.194C370.861 127.141 370.544 127.088 370.491 126.982C370.438 126.93 370.808 126.718 370.861 126.666C371.178 126.507 371.442 126.454 371.812 126.454C372.657 126.454 373.502 126.824 374.347 126.507C374.875 126.296 375.561 125.821 375.456 125.187C375.403 124.5 374.558 124.183 373.924 124.236C373.185 124.289 372.445 124.87 371.706 124.659C371.812 124.289 372.128 124.078 372.498 123.919C373.026 123.708 373.607 123.602 374.188 123.444C374.716 123.338 375.297 123.127 375.772 122.81C376.406 122.599 376.512 122.018 376.459 121.49Z" fill="#B5A8A3"/>
<path d="M364.787 144.464C364.523 142.087 363.414 139.922 362.252 137.862C361.143 135.803 359.929 133.69 359.559 131.313C359.506 130.997 359.031 131.155 359.084 131.419C359.77 136.119 363.731 139.658 364.259 144.411C364.312 144.728 364.84 144.728 364.787 144.464Z" fill="#7F644F"/>
<path d="M372.023 133.215C369.91 134.113 367.85 135.538 366.425 137.387C365.632 138.39 365.21 139.499 364.893 140.714C364.787 139.447 364.576 138.232 364.312 137.017C363.784 134.165 363.309 131.313 363.045 128.409C362.939 127.247 362.833 126.085 362.78 124.976C362.78 124.659 362.252 124.659 362.305 124.976C362.464 128.198 362.833 131.366 363.309 134.535C363.625 136.7 364.206 138.813 364.365 140.978C364.154 139.816 363.89 138.654 363.52 137.545C362.992 135.908 362.305 134.377 361.407 132.951C361.407 132.898 361.407 132.845 361.355 132.739C361.302 132.687 361.249 132.581 361.143 132.528C360.932 132.211 360.668 131.842 360.457 131.525C360.351 131.366 360.193 131.419 360.087 131.525C359.717 131.208 359.295 130.997 358.872 130.733C357.869 130.204 356.601 129.888 356.126 128.726C356.02 128.409 355.598 128.673 355.704 128.99C356.179 130.152 357.341 130.574 358.397 131.049C359.295 131.525 360.087 132.053 360.774 132.792C361.777 134.271 362.516 135.961 363.045 137.651C363.678 139.711 364.101 141.876 364.101 144.041C364.101 144.041 364.101 144.041 364.101 144.094C364.048 144.253 364.206 144.358 364.312 144.358C364.365 144.569 364.787 144.569 364.787 144.253C364.946 141.929 365.21 139.499 366.741 137.598C368.115 135.855 370.121 134.482 372.128 133.637C372.551 133.532 372.34 133.109 372.023 133.215Z" fill="#634C38"/>
<path d="M357.288 116.685C356.813 116.474 356.338 116.368 355.862 116.315C355.757 116.315 355.598 116.421 355.598 116.526C355.545 117.213 355.545 117.9 355.492 118.586C355.44 118.797 355.44 119.114 355.334 119.273L355.281 119.325C355.228 119.273 355.176 119.273 355.176 119.22C354.542 118.533 354.436 117.53 353.855 116.79C353.538 116.421 353.063 116.104 352.588 115.945C352.112 115.787 351.584 115.84 351.109 115.47C350.951 115.365 350.739 115.47 350.739 115.681C350.581 116.632 350.264 117.635 350.528 118.586C350.792 119.431 351.532 119.854 352.218 120.223C352.588 120.382 352.905 120.593 353.222 120.857C353.38 120.963 353.697 121.227 353.644 121.491C353.538 121.755 353.116 121.544 352.905 121.491C352.482 121.332 352.06 121.121 351.69 120.91C351.003 120.54 350 120.065 349.313 120.593C348.997 120.804 349.049 121.227 349.155 121.544C349.366 122.019 349.842 122.441 350.264 122.758C351.268 123.445 352.482 123.181 353.538 123.603C353.802 123.709 354.489 124.079 354.383 124.448C354.331 124.554 354.119 124.66 354.014 124.66C353.75 124.765 353.38 124.765 353.116 124.712C352.007 124.501 351.215 123.55 350.106 123.339C349.63 123.234 348.997 123.392 348.574 123.709C348.257 123.973 348.257 124.395 348.363 124.765C348.521 125.188 348.944 125.557 349.313 125.821C349.736 126.138 350.264 126.297 350.792 126.35C351.848 126.402 352.957 125.98 353.908 126.614C354.014 126.719 354.225 126.825 354.225 126.983C354.278 127.089 354.119 127.247 354.014 127.3C353.644 127.617 352.958 127.723 352.535 127.67C351.954 127.617 351.426 127.353 350.898 127.142C350.317 126.93 349.789 126.825 349.208 126.878C348.785 126.93 348.31 127.195 348.257 127.67C348.204 128.092 348.416 128.515 348.68 128.832C349.049 129.254 349.472 129.571 350 129.782C350.528 129.994 351.162 129.994 351.743 129.941C352.324 129.888 352.905 129.73 353.486 129.677C353.644 129.677 353.75 129.624 353.908 129.571C354.067 129.518 354.225 129.413 354.383 129.413C354.542 129.36 354.489 129.571 354.489 129.677C354.489 129.941 354.172 130.099 353.961 130.205C353.75 130.31 353.591 130.469 353.38 130.575C353.169 130.68 352.905 130.733 352.641 130.839C352.165 130.997 351.637 131.155 351.267 131.472C350.898 131.789 350.792 132.37 350.898 132.793C351.162 133.796 352.429 133.849 353.222 133.585C353.75 133.426 354.119 133.11 354.436 132.687C354.806 132.159 355.017 131.525 355.598 131.155C355.757 131.367 355.757 131.631 355.651 131.895C355.492 132.265 355.123 132.581 354.859 132.898C354.278 133.479 353.38 134.219 353.327 135.116C353.327 135.222 353.38 135.328 353.486 135.38C353.961 135.539 354.489 135.592 354.964 135.433C355.387 135.275 355.651 134.905 355.862 134.588C356.232 133.955 356.443 133.162 356.971 132.581C356.971 132.793 356.866 132.951 356.76 133.162C356.549 133.532 356.549 133.955 356.654 134.377C356.813 135.011 357.288 135.539 357.975 135.222C358.344 135.064 358.608 134.694 358.873 134.377C359.137 134.007 359.242 133.532 359.295 133.11C359.348 132.529 359.295 132 359.137 131.42C360.246 132.265 361.988 132.845 362.728 131.314C363.309 130.046 361.408 130.205 360.457 129.835C360.615 129.835 360.774 129.835 360.932 129.835C361.355 129.835 361.777 129.888 362.2 129.835C362.992 129.782 363.731 129.413 363.784 128.568C363.837 127.828 362.992 127.881 362.517 127.987C362.094 128.04 361.408 128.251 360.985 128.04C361.883 127.723 362.886 127.353 363.414 126.508C363.626 126.138 363.837 125.505 363.678 125.029C363.573 124.66 363.098 124.712 362.833 124.818C362.041 125.082 361.513 125.769 360.721 126.085C360.563 126.138 360.351 126.244 360.14 126.297C360.087 126.297 359.982 126.35 359.929 126.35C359.876 126.35 359.876 126.35 359.823 126.35V126.297C359.876 126.191 359.929 126.085 359.982 125.98C360.087 125.769 360.298 125.61 360.51 125.452C360.932 125.188 361.355 125.029 361.777 124.765C362.2 124.448 362.464 123.973 362.622 123.498C362.728 123.022 362.833 122.494 362.675 122.072C362.517 121.596 362.094 121.438 361.619 121.438C360.298 121.544 360.193 123.022 359.612 123.92C359.453 124.184 359.242 124.395 359.031 124.554C358.925 124.607 358.714 124.871 358.556 124.818C358.503 124.818 358.503 124.395 358.503 124.343C358.556 124.026 358.661 123.709 358.873 123.445C359.348 122.758 360.14 122.23 360.351 121.385C360.51 120.804 360.457 120.012 359.876 119.695C359.295 119.325 358.556 119.854 358.239 120.382C357.869 121.015 357.922 121.913 357.341 122.441C357.13 122.125 357.13 121.808 357.183 121.385C357.288 120.804 357.552 120.276 357.763 119.695C357.975 119.167 358.133 118.586 358.133 118.058C358.133 117.371 357.816 116.896 357.288 116.685Z" fill="#7F644F"/>
<path d="M364.735 144.728C360.246 144.728 356.602 144.411 356.602 144.041L359.559 156.029C359.559 156.029 361.302 156.769 364.84 156.769C368.379 156.769 370.122 156.029 370.122 156.029L372.868 144.041C372.868 144.411 369.224 144.728 364.735 144.728Z" fill="#B5A8A3"/>
<path d="M254.992 157.437L256.365 157.438L256.365 131.876L254.992 131.876L254.992 157.437Z" fill="#5B442F"/>
<path d="M257.97 158.614L259.344 158.614L259.344 136.855L257.97 136.855L257.97 158.614Z" fill="#5B442F"/>
<path d="M236.53 158.614L237.903 158.614L237.903 136.855L236.53 136.855L236.53 158.614Z" fill="#5B442F"/>
<path d="M239.614 157.437L240.987 157.438L240.987 131.876L239.614 131.876L239.614 157.437Z" fill="#5B442F"/>
<path d="M234.235 123.603V127.669C234.235 130.363 236.453 132.528 239.094 132.528H256.839C258.265 132.528 259.532 131.894 260.43 130.944C261.222 130.099 261.698 128.937 261.698 127.669V123.603C261.698 120.909 259.48 118.744 256.839 118.744H239.094C236.453 118.744 234.235 120.909 234.235 123.603Z" fill="#634C38"/>
<path d="M234.447 139.236V139.764H261.592V139.236C261.592 139.024 261.592 138.866 261.539 138.655C261.275 137.387 260.166 136.437 258.793 136.437H237.193C235.714 136.489 234.447 137.704 234.447 139.236Z" fill="#634C38"/>
<path d="M225.318 157.375L226.691 157.375L226.691 131.867L225.318 131.867L225.318 157.375Z" fill="#5B442F"/>
<path d="M228.296 158.614L229.669 158.614L229.669 136.855L228.296 136.855L228.296 158.614Z" fill="#5B442F"/>
<path d="M206.855 158.614L208.229 158.614L208.229 136.855L206.855 136.855L206.855 158.614Z" fill="#5B442F"/>
<path d="M209.94 157.375L211.313 157.375L211.313 131.867L209.94 131.867L209.94 157.375Z" fill="#5B442F"/>
<path d="M204.554 123.603V127.669C204.554 130.363 206.772 132.528 209.413 132.528H227.158C228.32 132.528 229.376 132.106 230.168 131.472C231.277 130.574 232.017 129.201 232.017 127.669V123.603C232.017 120.909 229.799 118.744 227.158 118.744H209.413C206.772 118.744 204.554 120.909 204.554 123.603Z" fill="#634C38"/>
<path d="M204.766 139.236V139.764H231.911V139.236C231.911 139.024 231.911 138.813 231.858 138.602C231.594 137.387 230.485 136.437 229.165 136.437H207.565C206.033 136.489 204.766 137.704 204.766 139.236Z" fill="#634C38"/>
<path d="M285.628 157.614L287.001 157.614L287.001 132.106L285.628 132.106L285.628 157.614Z" fill="#5B442F"/>
<path d="M288.606 158.801L289.979 158.801L289.979 137.042L288.606 137.042L288.606 158.801Z" fill="#5B442F"/>
<path d="M267.166 158.801L268.539 158.801L268.539 137.042L267.166 137.042L267.166 158.801Z" fill="#5B442F"/>
<path d="M270.25 157.614L271.623 157.614L271.623 132.106L270.25 132.106L270.25 157.614Z" fill="#5B442F"/>
<path d="M264.866 123.814V127.88C264.866 130.574 267.085 132.739 269.725 132.739H287.47C288.632 132.739 289.688 132.317 290.481 131.683C291.59 130.785 292.329 129.412 292.329 127.88V123.814C292.329 121.12 290.111 118.955 287.47 118.955H269.725C267.085 118.902 264.866 121.12 264.866 123.814Z" fill="#634C38"/>
<path d="M265.078 139.447V139.975H292.223V139.447C292.223 139.235 292.223 139.024 292.171 138.813C291.906 137.598 290.797 136.647 289.477 136.647H267.877C266.345 136.7 265.078 137.915 265.078 139.447Z" fill="#634C38"/>
<path opacity="0.1" d="M264.866 123.814V127.88C264.866 130.574 267.085 132.739 269.725 132.739H287.47C288.632 132.739 289.688 132.317 290.481 131.683C276.063 131.788 276.802 121.279 277.119 118.955H269.725C267.085 118.902 264.866 121.12 264.866 123.814Z" fill="#898989"/>
<path opacity="0.1" d="M265.078 139.447V139.975H292.223V139.447C292.223 139.235 292.223 139.024 292.171 138.813C282.981 139.447 279.601 137.809 278.334 136.647H267.824C266.345 136.7 265.078 137.915 265.078 139.447Z" fill="#898989"/>
<path d="M280.921 98.7806C283.192 98.7806 283.984 96.0871 285.252 94.6084C286.15 93.5521 287.734 93.869 288.209 92.3902C289.371 88.6406 286.255 86.0527 282.189 86.0527C278.122 86.0527 275.376 88.3765 274.795 91.8093C274.214 95.2421 276.855 98.7806 280.921 98.7806Z" fill="#7F644F"/>
<path d="M281.133 96.4043C280.235 95.3481 279.601 94.0277 279.707 92.549C280.024 88.324 285.886 89.2746 286.995 91.3871C288.157 93.4996 287.999 98.9393 286.52 99.309C285.939 99.4674 284.671 99.0977 283.404 98.3056L284.196 103.956H279.443L281.133 96.4043Z" fill="#5B442F"/>
<path d="M287.418 94.0283C287.735 94.1868 287.946 94.6621 288.104 94.9789C288.263 95.3486 288.474 95.7183 288.58 96.088C288.633 96.2993 288.738 96.4049 288.58 96.5633C288.316 96.8274 287.788 96.8274 287.471 96.8802C287.259 96.933 287.048 96.933 286.837 96.933" fill="#5B442F"/>
<path d="M287.471 97.9364C286.995 97.8836 286.626 97.6723 286.203 97.4611L286.045 97.3555V97.5667C286.045 97.7252 286.15 97.7252 286.15 97.778C286.203 97.8308 286.256 97.8308 286.309 97.8836C286.414 97.9364 286.52 97.9892 286.626 98.042C286.837 98.0948 287.048 98.2005 287.259 98.2533C287.048 98.1477 286.837 98.042 286.678 97.9364C286.573 97.8836 286.467 97.8308 286.414 97.778C286.309 97.7252 286.256 97.6195 286.256 97.6195L286.098 97.7252C286.52 97.778 286.995 97.9892 287.471 97.9364Z" fill="#7F644F"/>
<path d="M286.626 94.3445C286.771 94.3445 286.89 94.2263 286.89 94.0805C286.89 93.9346 286.771 93.8164 286.626 93.8164C286.48 93.8164 286.362 93.9346 286.362 94.0805C286.362 94.2263 286.48 94.3445 286.626 94.3445Z" fill="#7F644F"/>
<path d="M285.675 93.7638C285.781 93.8166 285.939 93.8166 286.098 93.7638C286.203 93.7638 286.362 93.711 286.467 93.6582C286.573 93.6054 286.679 93.6054 286.784 93.6054C286.837 93.6054 286.89 93.6054 286.943 93.6054C286.995 93.6054 287.048 93.6054 287.101 93.6582C287.101 93.4997 286.89 93.4469 286.784 93.3941C286.679 93.3413 286.467 93.3413 286.362 93.3941C286.256 93.4469 286.098 93.4997 285.992 93.5525C285.886 93.6582 285.781 93.711 285.675 93.7638Z" fill="#7F644F"/>
<path d="M303.737 130.204C302.311 129.095 299.881 128.672 298.878 131.049C298.244 132.528 296.818 136.753 295.392 141.611C294.547 144.463 293.65 149.269 292.699 155.976L295.34 156.716C298.772 148.636 301.307 142.456 302.892 138.179" fill="#5B442F"/>
<path d="M298.139 153.547C298.403 152.174 304.318 136.911 305.216 132.369C305.638 130.362 299.301 127.299 297.716 130.89L292.277 152.438L298.139 153.547Z" fill="#775D46"/>
<path d="M292.149 155.328C292.224 155.083 292.51 155.021 292.698 155.133C293.287 155.424 293.736 155.517 294.091 155.555C294.471 155.549 294.971 155.441 295.639 155.143L295.936 154.279C295.985 154.193 296.081 154.134 296.246 154.174L302.161 156.817C302.611 156.91 303.203 156.972 303.889 157.09C304.575 157.208 304.828 157.763 304.576 158.77C296.799 158.549 292.721 158.441 292.223 158.435C292.021 157.679 291.957 157.121 291.915 156.749C291.872 156.492 291.95 156.018 292.149 155.328Z" fill="#E4E4E4"/>
<path d="M302.997 138.232C302.786 139.763 302.574 141.506 302.363 143.354C301.835 147.791 301.994 157.35 302.152 160.096C302.258 161.839 304.634 161.522 304.845 160.149C305.109 158.776 309.863 137.123 310.021 132.475C310.074 130.943 307.064 129.465 305.268 130.521" fill="#5B442F"/>
<path d="M301.571 158.934C301.677 158.722 301.941 158.617 302.152 158.722C302.733 158.986 303.156 159.145 303.473 159.145C303.895 159.145 304.37 159.039 305.057 158.722L305.427 157.825C305.48 157.719 305.585 157.666 305.744 157.719L311.395 160.412C311.87 160.518 312.398 160.571 313.085 160.676C313.771 160.782 313.93 161.363 313.613 162.419C305.849 162.208 301.73 162.102 301.307 162.102C301.202 161.363 301.149 160.782 301.149 160.36C301.202 160.096 301.307 159.62 301.571 158.934C301.571 158.934 301.571 158.986 301.571 158.934Z" fill="#E4E4E4"/>
<path d="M307.856 130.045C302.786 128.936 289.055 125.82 286.414 125.503L273.422 125.187C273.422 132.844 276.063 137.017 282.611 137.228C287.153 137.333 302.311 136.013 302.733 136.224C302.997 136.383 302.522 142.456 301.36 154.497L307.275 154.656C307.328 153.388 310.391 139.921 310.549 134.112C310.602 132.475 310.021 130.521 307.856 130.045Z" fill="#7F644F"/>
<path d="M296.976 108.392L304.951 109.343C305.162 108.604 306.958 98.1468 306.958 98.1468L298.825 97.3018C298.825 97.3018 298.402 99.9424 297.98 102.636C297.927 102.953 297.874 103.27 297.821 103.534C297.768 103.798 297.769 104.009 297.716 104.273C297.716 104.379 297.663 104.484 297.663 104.643C297.61 104.801 297.61 105.012 297.557 105.171C297.557 105.224 297.557 105.276 297.557 105.329C297.557 105.435 297.61 105.488 297.663 105.541C297.927 105.857 298.614 105.435 298.93 105.91C299.089 106.121 298.508 106.491 297.24 106.914C297.135 107.653 297.029 108.181 296.976 108.392Z" fill="#7F644F"/>
<path d="M299.089 116.843C300.356 115.945 301.518 115.311 302.627 114.994C304.74 114.413 305.585 113.991 306.588 112.67C307.116 111.984 307.592 110.558 307.064 110.135C306.694 109.819 304.687 111.35 303.842 111.509C302.997 111.667 303.789 109.713 303.314 109.924C302.733 109.924 302.258 110.716 301.835 112.301L298.878 113.938L299.089 116.843Z" fill="#5B442F"/>
<path d="M288.051 109.291L294.758 105.594C295.868 104.273 296.977 103.217 298.033 102.531C298.35 102.372 298.931 102.319 298.403 103.27C297.874 104.221 297.346 105.277 297.61 105.541C297.874 105.858 298.561 105.435 298.878 105.911C299.089 106.228 297.927 106.756 295.339 107.442L290.481 111.878L288.051 109.291Z" fill="#5B442F"/>
<path d="M284.83 108.445C287.153 108.445 290.322 107.917 293.649 105.805L294.97 108.709C292.646 110.98 289.424 112.882 286.572 112.776C284.354 112.776 283.192 110.083 284.83 108.445Z" fill="#F29C03"/>
<path d="M287.946 113.146C290.428 113.78 294.6 113.04 300.462 110.928C301.941 113.938 302.575 116.103 302.469 117.371C297.452 120.012 293.121 121.173 289.583 121.226C289.688 123.339 289.424 125.346 288.579 127.194C286.784 130.944 276.432 127.458 272.947 128.145C270.782 121.068 275.007 118.163 275.007 113.621C275.007 108.657 279.02 100.999 279.601 100.999H284.935C285.252 104.854 286.731 109.027 287.946 113.146Z" fill="#FCB21D"/>
<path d="M283.034 93.8158C282.876 93.7102 282.664 93.6574 282.453 93.6574C281.767 93.6574 281.238 94.1855 281.238 94.8193C281.238 95.0833 281.344 95.3474 281.503 95.5058C281.238 95.9812 281.027 96.4565 280.974 96.9846C279.971 96.9846 276.327 93.2349 279.971 89.6437C283.615 86.1052 288.843 91.1752 287.259 91.4393C286.308 91.7562 284.513 92.6012 283.034 93.8158Z" fill="#7F644F"/>
<path d="M95.2481 111.383C96.36 110.069 97.1181 108.502 96.9665 106.733C96.6127 101.628 89.4862 102.74 88.0711 105.318C86.7064 107.896 86.858 114.466 88.627 114.921C89.3346 115.123 90.8509 114.668 92.4177 113.708L91.4574 120.582H97.2192L95.2481 111.383Z" fill="#4F3A29"/>
<path d="M85.5438 101.729C85.6448 101.325 85.9986 100.971 86.403 100.87C86.5041 100.82 86.6051 100.82 86.7062 100.82C86.7568 100.82 86.7568 100.82 86.7568 100.82C86.7568 100.82 86.7568 100.769 86.7568 100.718C86.7568 100.668 86.8073 100.567 86.8073 100.516C86.9084 100.264 87.06 100.061 87.2117 99.8592C87.5654 99.5054 88.0203 99.3033 88.4752 99.2527C88.7279 99.2527 88.9806 99.2527 89.2333 99.3538C89.385 99.4043 89.4861 99.4549 89.5871 99.5054C89.6377 99.5054 89.7388 99.6065 89.7893 99.6065C89.8399 99.6065 89.8904 99.5054 89.9409 99.4549C90.3453 99.1516 90.8507 99 91.3561 99C91.9121 99 92.468 99.0505 92.9735 99.4043C93.0745 99.4549 93.1756 99.556 93.2767 99.657C93.3273 99.7076 93.3778 99.7581 93.4283 99.8087C93.4789 99.8592 93.4789 99.8592 93.5294 99.9098C93.58 99.9603 93.58 99.9603 93.6305 99.9603C93.8832 99.8087 94.1359 99.7581 94.3887 99.8087C94.5403 99.8087 94.6919 99.8592 94.8435 99.9603C94.8941 99.9603 94.9952 100.061 95.0457 100.061C95.0962 100.061 95.1973 99.9603 95.2479 99.9603C95.5511 99.8592 95.8544 99.8087 96.1576 99.8592C96.4609 99.9098 96.8147 100.061 97.0674 100.213C97.219 100.314 97.3201 100.415 97.4212 100.516C97.4717 100.567 97.4717 100.617 97.5223 100.668C97.5728 100.718 97.6234 100.718 97.6234 100.769C97.6234 100.769 97.9771 100.617 98.0277 100.617C98.2299 100.567 98.3815 100.567 98.5837 100.617C98.9374 100.718 99.1902 100.971 99.4429 101.224C99.544 101.375 99.645 101.477 99.7461 101.628C99.7967 101.679 99.8472 101.78 99.8472 101.83C99.8472 101.881 99.8978 101.931 99.8978 101.931C99.9483 101.982 99.9483 101.982 99.9988 101.982C100.252 102.083 100.504 102.235 100.706 102.437C100.909 102.639 101.01 102.942 101.06 103.195V103.296C101.06 103.296 101.111 103.296 101.161 103.296C101.212 103.296 101.313 103.296 101.363 103.347C101.515 103.397 101.616 103.397 101.717 103.498C102.172 103.751 102.526 104.155 102.678 104.661C102.829 105.166 102.829 105.773 102.627 106.228C102.576 106.329 102.576 106.379 102.526 106.48C102.475 106.531 102.475 106.531 102.526 106.581C102.526 106.632 102.576 106.682 102.627 106.733C102.728 106.885 102.779 107.087 102.779 107.238C102.829 107.542 102.88 107.845 102.829 108.148C102.779 108.3 102.779 108.401 102.678 108.552C102.627 108.603 102.576 108.654 102.576 108.755C102.576 108.805 102.526 108.805 102.475 108.856L102.425 108.906C102.374 108.957 102.374 108.906 102.425 108.957C102.425 109.058 102.475 109.108 102.526 109.21C102.576 109.311 102.576 109.361 102.627 109.462C102.678 109.614 102.728 109.816 102.779 110.018C102.829 110.372 102.829 110.726 102.678 111.08C102.627 111.231 102.526 111.332 102.374 111.433C102.324 111.484 102.273 111.534 102.172 111.534C102.122 111.534 102.071 111.534 102.071 111.585C102.071 111.636 102.071 111.686 102.071 111.737C102.122 112.09 102.172 112.444 102.021 112.798C101.919 113.101 101.717 113.405 101.414 113.607C100.858 113.96 100.15 113.961 99.5945 113.657C99.4429 113.556 99.2913 113.506 99.1902 113.354C98.8869 113.758 98.2299 113.758 97.775 113.657C97.219 113.506 96.7641 113.101 96.4609 112.596C96.1071 113.051 95.349 112.899 95.0962 112.394C95.0457 112.293 94.9952 112.141 94.9952 112.04C94.9952 111.989 94.9952 111.888 94.9952 111.838C94.9952 111.737 94.9446 111.686 94.8941 111.585C94.8435 111.433 94.793 111.231 94.793 111.08C94.793 110.979 94.793 110.877 94.793 110.827C94.793 110.726 94.793 110.675 94.7424 110.574C94.8941 110.574 95.0457 110.574 95.1973 110.524C95.3489 110.473 95.45 110.372 95.5511 110.271C95.7533 110.018 95.9049 109.715 96.006 109.412C96.2082 108.755 96.1071 107.946 95.45 107.592C95.1468 107.441 94.1865 107.441 93.8327 107.491C93.4283 107.592 92.9735 108.451 92.9735 108.552C92.9735 108.603 92.9735 108.654 92.9229 108.704C92.8218 108.755 92.6702 108.654 92.5691 108.603C92.4175 108.502 92.367 108.35 92.2659 108.199C92.1142 107.895 91.9626 107.542 91.8615 107.188C91.7605 106.935 91.7604 106.632 91.6594 106.379C91.5583 106.126 91.4067 105.874 91.1539 105.722C90.9012 105.57 90.598 105.469 90.2947 105.368C89.9915 105.267 89.7388 105.166 89.4861 104.913C89.4355 104.863 89.385 104.812 89.3344 104.762C89.2839 104.711 89.2839 104.61 89.2333 104.61C89.1828 104.56 89.0312 104.661 88.9806 104.711C88.6774 104.913 88.4247 105.217 88.172 105.52C87.9698 105.823 87.7676 106.126 87.6665 106.48C87.5654 106.733 87.5149 107.036 87.3127 107.238C87.2117 107.339 86.6051 107.39 86.403 107.289C86.2008 107.188 85.9986 106.986 85.8976 106.885C85.847 106.733 85.7965 106.581 85.847 106.48C85.847 106.379 85.8976 106.329 85.8976 106.228C85.8976 106.177 85.9481 106.076 85.9481 106.025C85.9986 105.924 86.1503 105.823 86.2514 105.773C86.0997 105.621 85.9986 105.469 85.8976 105.318C85.7965 105.116 85.7459 104.913 85.7459 104.711C85.7459 104.56 85.7459 104.408 85.847 104.256C85.9481 104.105 86.0997 104.004 86.2514 103.903C86.0492 103.751 85.847 103.549 85.6954 103.296C85.5438 102.791 85.3921 102.235 85.5438 101.729Z" fill="#232323"/>
<path d="M87.3127 109.209C87.3127 110.068 86.4534 110.776 86.504 111.584C86.8578 111.635 87.2116 111.686 87.5654 111.736" fill="#4F3A29"/>
<path d="M87.515 112.95C87.8183 113.051 88.1215 113 88.3742 112.848C88.6269 112.697 88.8291 112.495 88.8796 112.191C88.6269 112.343 88.4248 112.444 88.1721 112.545C88.0204 112.697 87.7677 112.798 87.515 112.95Z" fill="#232323"/>
<path d="M88.7786 108.805C88.7786 108.653 88.728 108.502 88.6269 108.401C88.5259 108.3 88.3742 108.249 88.2226 108.249C88.071 108.249 87.9194 108.249 87.7677 108.3C87.6161 108.35 87.515 108.502 87.515 108.653C87.6666 108.603 87.7677 108.603 87.8688 108.552C87.9699 108.552 88.071 108.552 88.1721 108.552C88.2731 108.552 88.3742 108.603 88.4753 108.603C88.5259 108.704 88.6269 108.704 88.7786 108.805Z" fill="#232323"/>
<path d="M87.8203 109.613C87.9598 109.611 88.0714 109.497 88.0696 109.357C88.0677 109.218 87.953 109.106 87.8135 109.108C87.6739 109.11 87.5623 109.224 87.5642 109.364C87.5661 109.504 87.6807 109.615 87.8203 109.613Z" fill="#232323"/>
<path d="M87.7677 123.665L79.4283 119.116C78.0636 117.499 76.699 116.185 75.3343 115.275C74.93 115.123 74.2224 115.022 74.8794 116.185C75.5365 117.398 76.1935 118.661 75.8397 119.015C75.486 119.369 74.6267 118.863 74.2224 119.47C73.9697 119.874 75.3849 120.531 78.569 121.391L84.6341 126.9L87.7677 123.665Z" fill="#4F3A29"/>
<path d="M92.3165 123.008C89.385 122.957 85.5438 122.351 81.3488 119.723L79.7314 123.362C82.6124 126.192 86.6052 128.517 90.1431 128.416C92.923 128.315 94.3382 124.979 92.3165 123.008Z" fill="#775D46"/>
<path d="M60.4748 110.827C64.2149 109.968 67.955 108.907 71.6446 107.946C72.0995 107.845 73.9695 107.087 74.2728 107.239C74.2728 107.239 74.6266 109.21 74.6771 109.766C74.8793 111.636 75.1826 113.506 75.4353 115.376C75.6374 116.64 75.7891 117.752 75.8902 118.358C75.8902 118.51 75.9407 118.611 75.9407 118.661C75.9407 118.863 75.9407 118.965 75.8396 119.066C75.4858 119.419 74.6266 118.914 74.2223 119.52C74.0201 119.824 74.8793 120.279 76.7999 120.936C77.8108 123.362 81.3487 128.517 81.7531 128.921C78.8721 130.185 76.0418 131.448 73.1609 132.661C72.4533 132.965 68.2583 134.986 67.5001 134.784C66.742 134.582 65.6301 132.257 65.0236 130.994C63.5578 127.961 62.4459 124.726 61.6878 121.441C61.4856 120.531 59.7166 110.979 60.4748 110.827Z" fill="#F2F2F2"/>
<path d="M73.3632 136.3C71.6447 135.087 70.0779 134.228 68.6122 133.823C65.7818 133.065 64.6699 132.459 63.3053 130.69C62.5471 129.729 61.9406 127.859 62.6482 127.253C63.1031 126.848 65.8829 128.87 66.9948 129.123C68.1068 129.375 67.0959 126.697 67.7024 126.949C68.4606 126.949 69.1176 128.011 69.6736 130.134L73.6159 132.307L73.3632 136.3Z" fill="#4F3A29"/>
<path d="M86.8074 131.448C83.7243 132.206 78.5184 131.297 71.2404 128.719C69.4208 132.459 68.6122 135.138 68.7132 136.705C74.9805 139.99 80.2874 141.405 84.7351 141.506C84.5835 144.134 84.9373 146.611 85.9987 148.885C88.2225 153.586 101.06 149.239 105.407 150.098C108.136 141.304 102.88 137.716 102.88 132.055C102.88 125.889 97.9267 116.387 97.1685 116.387H90.4969C90.1432 121.138 88.3236 126.293 86.8074 131.448Z" fill="#7F644F"/>
<path d="M110.916 207.211H-5.38171V209.03H110.916V207.211Z" fill="#775D46"/>
<path d="M110.916 208.98H-5.38208V214.641H110.916V208.98Z" fill="#876E60"/>
<path d="M-12.1041 147.065V141.708H117.638V147.065H113.493H-7.90912H-12.1041Z" fill="#876E60"/>
<path d="M114.706 187.6H-9.1228V207.159H114.706V187.6Z" fill="#CCC3C0"/>
<path d="M114.706 149.289H-9.12231V186.438H114.706V149.289Z" fill="#CCC3C0"/>
<path d="M114.706 186.438H-9.1228V187.6H114.706V186.438Z" fill="#99847A"/>
<path d="M114.707 147.065H-9.12183V149.289H114.707V147.065Z" fill="#775D46"/>
<path d="M49.925 129.614L60.7411 130.928C60.9938 129.918 63.4704 115.715 63.4704 115.715L52.3511 114.553C52.3511 114.553 51.7951 118.141 51.1886 121.831C51.1381 122.235 51.037 122.639 50.9864 123.094C50.9359 123.398 50.8854 123.751 50.8348 124.055C50.7843 124.206 50.7843 124.358 50.7337 124.51C50.6832 124.762 50.6326 125.015 50.6326 125.268C50.6326 125.369 50.6326 125.419 50.6326 125.52C50.6326 125.621 50.7337 125.723 50.7843 125.824C51.1381 126.228 52.0984 125.672 52.5533 126.329C52.7554 126.632 51.9973 127.087 50.2283 127.694C50.0767 128.654 49.9756 129.362 49.925 129.614Z" fill="#FCB21D"/>
<path d="M52.8063 141.138C54.5247 139.874 56.1421 139.066 57.6078 138.661C60.4382 137.853 61.6006 137.246 63.0158 135.477C63.774 134.517 64.3805 132.647 63.6729 131.99C63.218 131.586 60.4382 133.658 59.2757 133.86C58.1132 134.113 59.1746 131.383 58.5681 131.687C57.81 131.687 57.1024 132.799 56.5464 134.921L52.5536 137.145L52.8063 141.138Z" fill="#CCC3C0"/>
<path d="M21.0656 153.218L33.7011 186.626L42.546 211.24H47.6002L35.4195 153.218H21.0656Z" fill="#775D46"/>
<path d="M17.9824 153.218C17.8308 164.691 17.9319 180.106 17.6286 180.814C17.4264 181.269 10.8054 186.727 -2.28503 197.088L0.292619 201.536C15.8091 191.529 23.9464 185.868 24.7045 184.554C25.9175 182.532 31.8815 164.185 34.9646 153.218H17.9824V153.218Z" fill="#7F644F"/>
<path d="M-6.85588 200.197L-2.36379 196.74L1.13508 200.927C1.37365 204.129 2.33216 207.707 4.15427 211.67L3.31974 212.373L-3.00391 204.806L-4.7893 201.859L-5.18669 202.194L-6.85588 200.197Z" fill="#4F3A29"/>
<path d="M42.0913 215.941L42.344 210.432H47.8531C50.4813 212.251 53.8676 213.767 58.1132 214.879V215.941H48.1564L44.7195 215.435V215.941H42.0913Z" fill="#4F3A29"/>
<path d="M28.1925 114.604C26.9795 113.188 26.1708 111.419 26.3224 109.499C26.7268 103.889 34.5608 105.102 36.0771 107.932C37.5933 110.762 37.4417 117.939 35.4706 118.495C34.6619 118.698 32.994 118.192 31.3261 117.181L32.3875 124.712H26.0697L28.1925 114.604Z" fill="#CCC3C0"/>
<path d="M33.5496 104.848C32.6904 104.596 31.4268 104.494 30.9214 104.545C31.2246 103.837 31.3257 103.029 31.2246 102.271C31.1236 101.512 30.7698 100.855 30.4665 100.198C30.3149 99.8951 30.1633 99.5918 29.9105 99.3391C29.6578 99.0864 29.3546 98.9348 29.0008 98.8842C28.647 98.7831 28.2932 98.8337 27.9899 98.8842C27.8383 98.9348 27.6867 98.9853 27.5856 99.0359C27.434 99.0864 27.3834 98.9853 27.2318 98.8842C26.9791 98.6821 26.5748 98.5304 26.2715 98.4799C25.9177 98.4293 25.5134 98.4799 25.1596 98.6315C24.8058 98.7326 24.5025 98.9348 24.2498 99.238C24.1487 99.3391 24.0476 99.4907 23.9971 99.6424C23.9466 99.6929 23.9466 99.7434 23.896 99.794C23.8455 99.794 23.7444 99.794 23.6938 99.8445C23.0873 100.047 22.5819 100.502 22.3292 101.108C22.1776 101.462 22.0765 102.068 22.127 102.725C22.127 103.382 22.7841 105.202 23.3401 105.809C23.8455 106.364 24.6036 106.769 25.3112 106.92C24.8058 107.476 24.5025 108.184 24.2498 108.841C23.9971 109.599 23.8455 110.408 23.7949 111.217C23.7444 111.975 23.7444 112.783 23.896 113.541C24.0476 114.249 24.4014 114.805 25.0079 115.159C25.2607 115.31 25.5639 115.462 25.8672 115.563C26.1704 115.664 26.4737 115.765 26.7769 115.866C27.3329 115.968 28.0405 115.968 28.4954 115.513C28.647 115.361 28.8492 115.159 28.9502 114.957C29.0008 114.906 29.0008 114.856 28.9502 114.754C28.8997 114.653 28.7986 114.603 28.6975 114.552C28.2426 114.148 27.9899 113.643 27.8889 113.036C27.8383 112.43 27.9899 111.621 28.5964 111.368C29.3546 111.014 30.1633 111.419 30.8203 111.772C31.1236 110.812 31.6795 109.902 32.5893 109.448C33.6001 108.942 34.7121 108.892 35.7229 108.437C35.9756 108.336 36.2789 108.184 36.4305 107.982C36.5316 107.881 36.6327 107.78 36.6327 107.628C36.6832 107.476 36.5821 107.325 36.481 107.173C36.0767 106.466 34.4593 105.101 33.5496 104.848Z" fill="#3A291D"/>
<path d="M36.9866 112.127C36.9361 113.087 37.7953 113.845 37.9469 114.755C38.048 115.715 36.8856 115.412 36.2285 115.614" fill="#CCC3C0"/>
<path d="M36.5826 116.574C36.2794 116.675 35.9761 116.624 35.6728 116.574C35.3696 116.472 35.1674 116.371 34.9147 116.371L35.1674 116.169C35.1674 116.27 35.1674 116.321 35.218 116.422C35.2685 116.523 35.3696 116.624 35.4707 116.776C35.5718 116.877 35.6728 117.028 35.7739 117.13C35.875 117.281 35.9761 117.382 36.0266 117.584C35.7739 117.382 35.4707 117.281 35.1674 117.079C35.0158 116.978 34.9147 116.877 34.7631 116.675C34.662 116.523 34.5609 116.27 34.6115 116.018L34.662 115.815H34.8642C35.218 115.866 35.4707 116.018 35.7234 116.169C36.0772 116.371 36.2794 116.523 36.5826 116.574Z" fill="#3A291D"/>
<path d="M36.1277 112.278C36.2952 112.278 36.431 112.143 36.431 111.975C36.431 111.808 36.2952 111.672 36.1277 111.672C35.9602 111.672 35.8245 111.808 35.8245 111.975C35.8245 112.143 35.9602 112.278 36.1277 112.278Z" fill="#3A291D"/>
<path d="M36.6837 111.217C36.532 111.116 36.3804 111.116 36.2793 111.116C36.1277 111.116 36.0266 111.116 35.875 111.116H35.4201C35.2685 111.116 35.1168 111.116 34.9147 111.116C34.9652 110.914 35.1674 110.813 35.319 110.711C35.4706 110.61 35.6728 110.61 35.8244 110.61C36.0266 110.61 36.1782 110.661 36.3804 110.762C36.5826 110.813 36.7342 111.015 36.6837 111.217Z" fill="#3A291D"/>
<path d="M37.7949 130.877L46.8925 125.874C48.4088 124.054 49.9251 122.689 51.3908 121.679C51.8457 121.476 52.6038 121.375 51.8962 122.689C51.1381 124.004 50.4305 125.419 50.8348 125.823C51.1886 126.227 52.1489 125.671 52.6038 126.328C52.9071 126.783 51.2897 127.491 47.8023 128.451L41.1813 134.516L37.7949 130.877Z" fill="#CCC3C0"/>
<path d="M33.3473 129.765C36.5315 129.715 40.777 129.058 45.3258 126.177L47.0948 130.17C43.9612 133.303 39.564 135.83 35.7228 135.729C32.6903 135.628 31.1235 131.939 33.3473 129.765Z" fill="#443123"/>
<path d="M37.6433 136.134C41.0296 136.993 46.7409 135.982 54.676 133.152C56.6471 137.246 57.5569 140.177 57.4053 141.896C50.5821 145.484 44.7192 147.051 39.8671 147.152C40.0187 150.033 39.665 152.762 38.5025 155.239C36.0765 160.343 21.9752 155.593 17.2242 156.553C14.2422 146.899 20.004 142.957 20.004 136.791C20.004 130.018 25.4626 119.606 26.2207 119.606H33.4988C33.9537 124.812 35.9754 130.524 37.6433 136.134Z" fill="#4F3A29"/>
<path d="M61.1316 177.527C59.4637 178.387 57.6947 179.195 55.8752 179.802C46.4744 183.138 23.1744 183.138 13.7735 179.903C11.8529 179.246 9.98286 178.437 8.21388 177.527L6.84924 179.044C8.66876 180.004 10.5894 180.813 12.5605 181.52C17.4631 183.239 29.3911 184.148 34.9002 184.148C40.5104 184.148 51.9835 183.239 56.9871 181.419C58.8572 180.762 60.6767 179.953 62.4457 179.044L61.1316 177.527Z" fill="#4F3A29"/>
<path d="M5.28237 177.78C3.61447 178.639 1.84549 179.448 0.0259741 180.055C-9.37488 183.39 -32.6749 183.39 -42.0757 180.156C-43.9963 179.499 -45.8664 178.69 -47.6354 177.78L-49 179.297C-47.1805 180.257 -45.2599 181.066 -43.2887 181.773C-38.3861 183.492 -26.4582 184.401 -20.9491 184.401C-15.3389 184.401 -3.86578 183.492 1.1379 181.672C3.00796 181.015 4.82749 180.206 6.59647 179.297L5.28237 177.78Z" fill="#4F3A29"/>
<path d="M12.7123 226.251C12.1563 225.695 10.9433 225.341 9.52812 225.341H7.9613V178.489V177.528H6.29341H4.57498V178.489V225.291H3.00817C1.59298 225.291 0.379969 225.695 -0.175995 226.2C-0.378164 226.403 -0.479248 226.605 -0.479248 226.858V227.06H12.965V226.858C12.965 226.655 12.8639 226.453 12.7123 226.251Z" fill="#4F3A29"/>
<path d="M8.97203 176.972H7.30413V171.514H5.2319V176.972H3.61455C3.36184 176.972 3.15967 177.174 3.15967 177.427C3.15967 177.68 3.36184 177.882 3.61455 177.882H5.2319V178.539H7.30413V177.882H8.97203C9.22474 177.882 9.42691 177.68 9.42691 177.427C9.42691 177.174 9.22474 176.972 8.97203 176.972Z" fill="#4F3A29"/>
<path d="M7.60728 167.015C7.20294 166.864 6.74806 166.763 6.24264 166.763C4.82746 166.763 3.66498 167.571 3.2101 168.683C3.10902 168.987 3.00793 169.29 3.00793 169.644C3.00793 171.21 4.42311 172.474 6.19209 172.474C7.96107 172.474 9.37626 171.21 9.37626 169.644C9.4268 168.431 8.71921 167.47 7.60728 167.015Z" fill="#4F3A29"/>
<path d="M69.1676 225.998C68.6116 225.442 67.3986 225.088 65.9834 225.088H64.4166V178.236V177.275H62.7487H61.0303V178.236V225.088H59.4635C58.0483 225.088 56.8353 225.493 56.2793 225.998C56.0772 226.2 55.9761 226.402 55.9761 226.655V226.857H69.4203V226.655C69.4203 226.402 69.3192 226.2 69.1676 225.998Z" fill="#4F3A29"/>
<path d="M65.4273 176.77H63.7595V171.312H61.6872V176.77H60.0699C59.8172 176.77 59.615 176.972 59.615 177.225C59.615 177.478 59.8172 177.68 60.0699 177.68H61.6872V178.337H63.7595V177.68H65.4273C65.6801 177.68 65.8822 177.478 65.8822 177.225C65.8822 176.972 65.6801 176.77 65.4273 176.77Z" fill="#4F3A29"/>
<path d="M64.063 166.762C63.6586 166.611 63.2037 166.51 62.6983 166.51C61.2831 166.51 60.1207 167.318 59.6658 168.43C59.5647 168.734 59.4636 169.037 59.4636 169.391C59.4636 170.957 60.8788 172.221 62.6478 172.221C64.4168 172.221 65.8319 170.957 65.8319 169.391C65.8825 168.178 65.1749 167.217 64.063 166.762Z" fill="#4F3A29"/>
</g>
<defs>
<clipPath id="clip0">
<rect width="360" height="280" fill="white"/>
</clipPath>
</defs>
</svg>
