<svg width="360" height="280" viewBox="0 0 360 280" fill="none" xmlns="http://www.w3.org/2000/svg">
<g clip-path="url(#clip0)">
<rect width="360" height="280" fill="#97D2F2"/>
<path d="M213.442 0H139.883V59.0882H213.442V0Z" fill="#F24C64"/>
<path d="M434.118 0H213.441V55.4706H434.118V0Z" fill="#1D67DD"/>
<path d="M434.117 55.4707H135.059V63.9119H434.117V55.4707Z" fill="#5EA7EF"/>
<path d="M434.117 63.9121H135.059V69.9415H434.117V63.9121Z" fill="#4390DD"/>
<path d="M213.441 44.6172H135.059V56.676H213.441V44.6172Z" fill="#5EA7EF"/>
<path d="M182.637 7.64912C181.602 7.34722 180.48 7.30409 179.445 7.64912C175.952 8.77048 176.167 13.3853 175.995 16.3612C173.752 16.4475 171.984 17.1376 171.423 19.5959C171.121 20.8467 171.725 22.5287 172.156 23.8657C172.156 23.8657 170.647 25.3753 170 26.4966C168.965 28.3081 169.353 30.7664 170.561 32.4485C172.156 34.6912 174.874 35.8126 177.418 36.4595C184.103 38.1415 193.937 37.4946 195.533 29.1275C196.093 26.281 194.239 24.7283 191.78 23.8657C191.694 23.8226 191.565 23.7795 191.522 23.6932C191.478 23.607 191.478 23.4776 191.522 23.3482C191.737 22.4856 192.125 21.623 192.212 20.7173C192.341 19.6391 191.996 18.5177 191.306 17.6982C190.271 16.4475 188.891 16.275 187.381 16.1025C187.252 16.1025 187.295 12.4796 187.209 12.0914C186.864 10.4957 185.656 9.11552 184.276 8.33919C183.758 8.03728 183.241 7.77851 182.637 7.64912Z" fill="#317FDD"/>
<path d="M190.405 28.0065L181.909 31.5L181.434 12.6094L181.52 23.1761L177.078 20.6746L181.52 23.6936L181.693 56.9463H182.469L181.909 31.9744L190.405 28.0065Z" fill="#97D2F2"/>
<path d="M146.231 21.796C145.627 18.4319 145.843 16.2323 148.517 13.7739C150.156 12.2644 152.399 12.3507 153.994 13.8602C154.124 10.3667 156.927 6.5282 160.722 6.87323C163.828 7.17514 165.165 10.798 165.639 13.472C168.184 12.4369 169.823 13.3426 170.254 16.0166C174.739 14.8953 178.794 19.0357 177.802 23.5643C177.327 25.7207 175.516 27.0577 173.359 27.1871C171.677 27.3165 171.505 26.9715 170.383 26.0658C170.901 28.3516 163.655 28.6967 162.534 26.6265C159.989 27.8772 157.445 29.6455 154.426 28.8692C153.39 28.6104 152.528 28.0066 151.752 27.3165C151.536 27.144 149.638 25.2032 149.595 25.2463C148.387 25.807 147.223 25.8501 146.188 24.8581C145.239 23.9524 145.153 22.6586 146.231 21.796Z" fill="#073199"/>
<path d="M166.677 23.6511L172.586 22.8316L167.022 23.2629L171.464 18.5187L165.599 24.3843L165.297 20.4595V24.6862L160.207 29.7754L159.949 15.974L162.45 12.9119L159.949 15.7153L159.862 11.4023V25.1606L152.574 19.1656L154.601 20.977L151.711 22.616L154.73 21.1064L159.862 25.7213L159.819 53.4103L160.639 53.4965L160.207 30.5949L166.677 23.6511Z" fill="#97D2F2"/>
<path d="M132.645 55.8685H163.568C163.568 55.8685 162.619 49.0972 158.263 48.1053C158.263 48.1053 160.161 37.3661 155.546 37.3229C150.931 37.2367 148.645 45.6038 148.645 45.6038C148.645 45.6038 145.066 44.9568 143.427 50.4342C143.427 50.4342 138.596 47.7171 132.645 55.8685Z" fill="#97D2F2"/>
<path d="M155.377 41.4199L152.617 55.8682" stroke="#092242" stroke-width="0.260267" stroke-miterlimit="10"/>
<path d="M151.363 39.9121L153.477 51.2982" stroke="#092242" stroke-width="0.260267" stroke-miterlimit="10"/>
<path d="M159.944 48.8809L152.914 54.272" stroke="#092242" stroke-width="0.260267" stroke-miterlimit="10"/>
<path d="M146.188 46.209L146.662 55.8699" stroke="#092242" stroke-width="0.260267" stroke-miterlimit="10"/>
<path d="M138.082 50.8223L139.29 55.8684" stroke="#092242" stroke-width="0.260267" stroke-miterlimit="10"/>
<path d="M300.132 7.50977H225.82V53.7875H300.132V7.50977Z" fill="#97D2F2"/>
<path d="M291.908 38.5586H227.41V53.0292H299.763L291.908 38.5586Z" fill="#5EA7EF"/>
<path d="M225 6V55.4412H302.176V6H225ZM250.236 52.9046H227.593V8.92348H250.236V52.9046ZM274.694 52.9906H252.051V9.00946H274.694V52.9906ZM299.108 52.9906H276.465V9.00946H299.108V52.9906Z" fill="#4390DD"/>
<path d="M299.765 8.41211L291.324 12.3336V47.6268L299.765 53.0298V8.41211Z" fill="#1D67DD"/>
<path d="M139.882 0H0V82H139.882V0Z" fill="#1D67DD"/>
<path d="M121 31H25V82H121V31Z" fill="#7CC1EF"/>
<path d="M71.1228 91.6637V82.382L60.7266 77.1055V85.6036L71.1228 91.6637Z" fill="#317FDD"/>
<path d="M71.1211 82.3819L87.4556 78.9688V87.5539L71.1211 91.6637V82.3819Z" fill="#4390DD"/>
<path d="M60.7266 77.1041L76.0162 74.2656L87.4573 78.9674L71.1228 82.3806L60.7266 77.1041Z" fill="#5EA7EF"/>
<path opacity="0.4" d="M81.6932 86.8906V88.9977L77.1133 90.1471V87.9355L81.6932 86.8906Z" fill="white"/>
<path opacity="0.4" d="M82.0058 82.7644V80.1001L71.1219 75.1719L66.8555 75.9729L76.8512 81.1798V84.0009L82.0058 82.7644Z" fill="white"/>
<path d="M79.8814 80.5524L69.2065 75.5371L68.9453 75.5894L79.6202 80.6046L79.8814 80.5524Z" fill="white"/>
<path d="M75.3008 81.1445V75.1889L81.9704 71.8105V77.2612L75.3008 81.1445Z" fill="#4390DD"/>
<path d="M75.3019 75.1904L64.8359 73.0137V78.5165L75.3019 81.1461V75.1904Z" fill="#317FDD"/>
<path d="M81.9715 71.8111L72.1673 70L64.8359 73.0126L75.3018 75.1894L81.9715 71.8111Z" fill="#5EA7EF"/>
<path opacity="0.4" d="M68.5312 78.0801V79.4384L71.4742 80.1698V78.7592L68.5312 78.0801Z" fill="white"/>
<path opacity="0.4" d="M68.3398 75.4502V73.7436L75.3055 70.5742L78.0395 71.0966L71.6311 74.4227V76.2338L68.3398 75.4502Z" fill="white"/>
<path d="M69.6992 74.0226L76.5256 70.8184L76.6997 70.8358L69.8559 74.0574L69.6992 74.0226Z" fill="white"/>
<path d="M49.7383 92.3252V76.8962L57.2264 72.9258V87.7626L49.7383 92.3252Z" fill="#5EA7EF"/>
<path d="M49.7371 76.8958L38 74.3359V89.2425L49.7371 92.3248V76.8958Z" fill="#4390DD"/>
<path d="M57.2252 72.9251L46.2195 70.7832L38 74.3357L49.7371 76.8956L57.2252 72.9251Z" fill="#7DC1EF"/>
<path opacity="0.4" d="M42.1602 88.7383V90.323L45.4514 91.1937V89.5219L42.1602 88.7383Z" fill="white"/>
<path opacity="0.4" d="M41.9336 77.1921V75.1895L49.7351 71.4629L52.8174 72.0724L45.6254 75.9906V78.1151L41.9336 77.1921Z" fill="white"/>
<path d="M43.4492 75.5211L51.1114 71.7422L51.3204 71.777L43.6408 75.5559L43.4492 75.5211Z" fill="white"/>
<path d="M61.0039 92.9857V87.2564L67.1337 84V89.2591L61.0039 92.9857Z" fill="#5EA7EF"/>
<path d="M61.0032 87.2575L51.3906 85.1504V90.4617L61.0032 92.9868V87.2575Z" fill="#4390DD"/>
<path d="M67.133 84.0012L58.1299 82.2598L51.3906 85.1505L61.0032 87.2576L67.133 84.0012Z" fill="#7DC1EF"/>
<path opacity="0.4" d="M54.7852 90.043V91.349L57.4844 92.063V90.7047L54.7852 90.043Z" fill="white"/>
<path opacity="0.4" d="M54.6133 87.5008V85.8639L61.0043 82.8164L63.5293 83.304L57.6433 86.5256V88.267L54.6133 87.5008Z" fill="white"/>
<path d="M55.8516 86.1253L62.1381 83.043L62.2948 83.0604L56.0083 86.1601L55.8516 86.1253Z" fill="white"/>
<path d="M81.0144 87.7096L80.2656 85.08L89.4429 84.6621L90.5226 87.0304L81.0144 87.7096Z" fill="#7DC1EF"/>
<path d="M81.0117 87.691V94.6567L90.5199 93.8905V87.0293L81.0117 87.691Z" fill="#0B45B7"/>
<path d="M84.0244 88.9802L81.0117 87.709V94.6746L84.0244 96.2767V88.9802Z" fill="#4390DD"/>
<path d="M94.5944 88.2483L90.5195 87.0293V93.8905L94.5944 95.3184V88.2483Z" fill="#8C694D"/>
<path d="M84.026 88.9627L81.4313 86.7511L78.4883 85.6191L81.0133 87.7088L84.026 88.9627Z" fill="#5EA7EF"/>
<path d="M94.5944 88.2496L97.2414 85.9858L93.1491 85.0977L90.5195 87.0306L94.5944 88.2496Z" fill="#7DC1EF"/>
<path d="M84.0234 88.9632L85.1031 86.9083L96.0044 86.2988L94.5938 88.2492L84.0234 88.9632Z" fill="#4390DD"/>
<path d="M84.0234 88.9814V96.2779L94.5938 95.3201V88.25L84.0234 88.9814Z" fill="#7DC1EF"/>
<path d="M82.5787 94.3791L83.5365 91.0008L71.782 90.4609L70.4062 93.5084L82.5787 94.3791Z" fill="#7DC1EF"/>
<path d="M82.5788 94.3611V97.5653L70.4062 96.4508V93.5078L82.5788 94.3611Z" fill="#0B45B7"/>
<path d="M78.7148 95.9984L82.5808 94.3789V97.5135L78.7148 99.5683V95.9984Z" fill="#7DC1EF"/>
<path d="M65.1836 95.0577L70.4078 93.5078V96.5205L65.1836 98.3489V95.0577Z" fill="#8C694D"/>
<path d="M78.7148 95.9811L82.0409 93.1426L85.8198 91.6973L82.5808 94.379L78.7148 95.9811Z" fill="#4390DD"/>
<path d="M65.183 95.0577L61.8047 92.1669L67.0463 91.0176L70.4073 93.5078L65.183 95.0577Z" fill="#7DC1EF"/>
<path d="M78.713 95.9815L77.3372 93.352L63.3711 92.5684L65.1822 95.0586L78.713 95.9815Z" fill="#5EA7EF"/>
<path d="M78.7144 95.999V99.5689L65.1836 98.3325V95.0586L78.7144 95.999Z" fill="#4390DD"/>
<path d="M19.2223 175.139C19.5135 179.229 38.8118 191.292 38.9366 191.667C38.9782 191.834 36.9818 196.592 32.9475 205.942L34.6527 206.61C40.8498 196.676 43.8028 191.208 43.5117 190.165C43.0541 188.662 38.0632 183.653 28.5388 175.222L19.2223 175.139Z" fill="#1D67DD"/>
<path d="M33.3625 203.813L36.1075 204.815C41.9303 198.262 44.1762 192.836 43.7603 190.039C43.4691 188.203 38.5198 183.236 28.829 175.139H18.9719C19.3046 184.655 37.1888 191.667 37.4384 192.085C37.7295 192.502 35.3588 196.467 33.3625 203.813Z" fill="#0B45B7"/>
<path d="M32.2826 205.607C31.9375 206 31.7098 206.349 31.6493 206.549C31.5389 206.856 31.4569 207.241 31.3144 207.826C31.62 207.936 34.5841 209.027 40.1001 211.048C40.6088 210.374 40.6233 209.925 40.1293 209.662C39.6495 209.438 39.2622 209.224 38.9814 209.061L35.5636 205.739C35.4961 205.675 35.4037 205.664 35.3397 205.732L34.8274 206.275C34.3155 206.329 33.9067 206.301 33.6011 206.19C33.3487 206.105 33.0929 205.888 32.7554 205.568C32.6737 205.464 32.4497 205.457 32.2826 205.607C32.3217 205.593 32.3217 205.593 32.2826 205.607Z" fill="#073199"/>
<path d="M21.4277 175.139L12.8598 195.841L4.41679 213.33H6.41317L28.207 175.139H21.4277Z" fill="#1D67DD"/>
<path d="M4.2888 212.539C4.12244 213.04 3.99766 213.415 3.99766 213.666C3.99766 213.958 4.03926 214.417 4.16403 215.001C4.49677 215.001 7.6161 215.001 13.5221 215.001C13.7716 214.208 13.6053 213.749 13.1062 213.708C12.5655 213.624 12.1496 213.582 11.8168 213.541L7.44973 211.579C7.36655 211.537 7.28337 211.579 7.24178 211.662L6.95063 212.33C6.45154 212.539 6.07722 212.664 5.78608 212.664C5.53653 212.664 5.2038 212.581 4.7463 212.372C4.57993 212.288 4.37199 212.33 4.2888 212.539Z" fill="#073199"/>
<path d="M5.16404 209.698L9.57273 210.533C12.9832 205.483 27.3322 184.78 28.8711 175.139H19.0139C13.815 182.109 8.44975 204.565 5.16404 209.698Z" fill="#1159CC"/>
<path d="M25.0875 150.138C24.3388 149.22 23.7982 148.135 23.8813 146.882C24.1309 143.335 29.0803 144.086 30.0369 145.881C30.9935 147.675 30.8687 152.225 29.6209 152.559C29.1218 152.684 28.0821 152.392 27.0007 151.724L27.6661 156.524H23.6734L25.0875 150.138Z" fill="#1D67DD"/>
<path d="M30.4115 146.715C30.3699 146.465 30.2868 146.214 30.2036 146.006C30.1204 145.714 29.954 145.463 29.7877 145.213C29.4549 144.754 29.0806 144.336 28.6647 144.002C27.9161 143.376 26.9179 143.001 25.9613 143.126C25.4622 143.168 25.0047 143.376 24.6303 143.668C24.256 143.961 23.9233 144.336 23.4658 144.378C22.9667 144.42 22.5092 143.961 22.0933 143.668C21.6358 143.376 21.1367 143.126 20.596 143.042C19.681 142.875 18.8492 143.209 18.2253 143.919C17.5598 144.712 17.1023 145.839 17.5182 146.882C17.6014 147.091 17.6846 147.258 17.8509 147.383C17.9757 147.508 18.1837 147.634 18.2669 147.842C18.3085 148.051 18.1421 148.343 18.1005 148.51C18.0173 148.802 17.9341 149.053 17.9341 149.345C17.9757 149.846 18.2669 150.305 18.5996 150.597C18.9323 150.931 19.3483 151.098 19.7642 151.181C20.0553 151.223 20.3464 151.265 20.6376 151.265C20.7623 151.265 20.9287 151.223 21.0535 151.181C21.1783 151.14 21.2614 151.181 21.3862 151.265C21.9269 151.599 22.5092 151.766 23.1331 151.682C23.6737 151.641 24.256 151.515 24.6719 151.14C25.1294 150.722 25.1294 150.18 25.0047 149.595C25.1294 149.637 25.4622 149.679 25.2542 149.47C25.171 149.387 25.0462 149.345 24.9215 149.303C24.7967 149.22 24.6719 149.178 24.5887 149.053C24.2144 148.635 24.5888 147.801 25.0463 147.634C25.7117 147.425 25.8781 148.385 26.3772 148.635C26.6683 148.761 26.9595 148.594 27.1674 148.385C27.4586 148.134 27.6249 147.759 27.7913 147.383C27.9161 147.091 28.0408 146.799 28.2072 146.507C28.2904 146.381 28.4983 145.964 28.3736 145.839C28.8727 145.755 29.4133 145.964 29.8293 146.214C29.9956 146.34 30.1204 146.465 30.2452 146.632C30.2452 146.674 30.3283 146.799 30.3699 146.799C30.4947 146.882 30.4531 146.757 30.4115 146.715Z" fill="#C1E7F7"/>
<path d="M32.6984 163.034L36.8992 159.194C39.1035 158.568 40.1017 158.15 39.9353 157.858C39.6442 157.441 39.0619 157.774 38.8124 157.524C38.5628 157.274 39.0203 156.397 39.4778 155.562C39.9353 154.728 39.4362 154.811 39.1451 154.936C38.2301 155.562 37.2735 156.439 36.3169 157.608L30.5357 160.78L32.6984 163.034Z" fill="#1D67DD"/>
<path d="M27.7488 160.03C29.7868 159.988 32.4486 159.571 35.3184 157.734L36.4414 160.239C34.445 162.2 31.6584 163.828 29.2461 163.745C27.3329 163.745 26.3763 161.407 27.7488 160.03Z" fill="#CE3A5E"/>
<path d="M47.7955 154.812L48.4609 151.431L40.4754 150.889L39.5604 153.936L47.7955 154.812Z" fill="#5EA7EF"/>
<path d="M47.7969 154.812V163.702L39.5618 162.742V153.936L47.7969 154.812Z" fill="#0B45B7"/>
<path d="M45.1766 156.44L47.7969 154.812V163.745L45.1766 165.79V156.44Z" fill="#5EA7EF"/>
<path d="M36.0272 155.48L39.5625 153.936V162.742L36.0272 164.579V155.48Z" fill="#8C694D"/>
<path d="M45.1754 156.398L47.4629 153.56L50 152.141L47.7957 154.812L45.1754 156.398Z" fill="#7DC1EF"/>
<path d="M36.0272 155.48L33.6981 152.6L37.275 151.432L39.5625 153.936L36.0272 155.48Z" fill="#5EA7EF"/>
<path d="M45.1758 156.399L44.2608 153.77L34.7779 152.977L36.0257 155.481L45.1758 156.399Z" fill="#4390DD"/>
<path d="M45.1758 156.44V165.79L36.0257 164.58V155.48L45.1758 156.44Z" fill="#7DC1EF"/>
<path d="M41.1811 167.752C42.2625 166.959 43.3023 166.416 44.2173 166.166C46.0057 165.665 46.7544 165.289 47.6278 164.162C48.0853 163.578 48.5012 162.367 48.0437 161.95C47.7526 161.699 46.0057 162.993 45.2571 163.16C44.5501 163.327 45.2155 161.616 44.7996 161.783C44.3005 161.783 43.8846 162.493 43.5103 163.828L40.9732 165.206L41.1811 167.752Z" fill="#1D67DD"/>
<path d="M30.4928 164.079C32.6555 164.622 36.2324 163.996 41.2649 162.201C42.5126 164.789 43.0949 166.667 43.0117 167.752C38.6862 170.006 34.9846 171.05 31.9069 171.091C31.99 172.928 31.7821 174.639 31.0334 176.225C29.4946 179.481 20.594 176.476 17.5994 177.06C15.7278 170.924 19.3463 168.462 19.3463 164.538C19.3463 160.239 22.7984 153.645 23.2974 153.645H27.9141C28.1636 156.9 29.4114 160.49 30.4928 164.079Z" fill="#F24C64"/>
<path d="M14.9453 237.605L24.8512 263.905L31.8034 283.292H35.7617L26.2175 237.605H14.9453Z" fill="#1D67DD"/>
<path d="M12.4952 237.605C12.3947 246.634 12.4751 258.786 12.2139 259.35C12.0531 259.733 6.84902 264.005 -3.39844 272.167L-1.36904 275.634C10.7873 267.774 17.1768 263.32 17.7997 262.272C18.724 260.7 23.4258 246.231 25.857 237.605H12.4952Z" fill="#317FDD"/>
<path d="M-6.99802 274.497L-3.55836 271.865L-0.781933 275.184C-0.573384 277.692 0.263972 280.512 1.7043 283.613L1.07299 284.145L-3.96332 278.125L-5.35748 275.799L-5.68083 276.072L-6.99802 274.497Z" fill="#191847"/>
<path d="M20.2938 207.538C19.3495 206.429 18.7065 205.059 18.807 203.507C19.1084 199.074 25.2568 200.061 26.4423 202.298C27.6278 204.535 27.4872 210.198 25.9601 210.601C25.3372 210.762 24.0312 210.379 22.705 209.573L23.5489 215.518H18.5859L20.2938 207.538Z" fill="#D6EEFC"/>
<path d="M22.9459 203.991C23.1268 206.631 23.6291 207.961 24.4529 207.961C25.6786 207.961 26.7033 207.175 27.2458 207.175C27.6276 207.175 27.5472 207.659 27.286 208.022C27.065 208.324 26.0402 208.606 26.0402 209.07C26.0402 209.533 26.8641 209.17 26.8641 209.453C26.8641 209.916 27.0047 210.762 26.2211 210.762C25.4174 210.762 23.1468 210.48 22.745 209.291C22.4838 208.526 22.323 206.933 22.2628 204.535C22.2226 204.535 22.1623 204.535 22.1221 204.535C21.4389 204.535 20.8763 205.1 20.8763 205.785C20.8763 206.127 21.017 206.45 21.2581 206.672C20.9768 207.075 20.6553 207.498 20.2936 207.941C18.9072 207.115 17.6815 204.676 19.0278 202.339C19.4095 201.19 20.4544 200.585 21.459 200.303C22.2628 199.961 23.1067 199.92 23.8099 200.122C25.1963 200.243 26.4421 200.666 26.7837 200.928C26.7837 202.238 26.5225 202.641 24.3524 202.601C23.7898 202.863 23.388 203.346 22.9459 203.991Z" fill="#CE3A5E"/>
<path d="M18.058 211.327C18.0982 211.166 18.1585 211.004 18.1987 210.863L18.3795 210.944C18.3996 210.924 18.4398 210.883 18.4599 210.863L24.2266 211.75C24.2266 214.995 25.5527 217.776 27.2004 220.395C29.7321 224.466 30.2344 228.96 27.341 235.006C24.7289 240.468 23.2018 241.657 12.2109 237.969C12.2109 235.026 12.3516 232.81 13.3161 229.081C13.3964 225.675 15.4057 214.813 18.058 211.327Z" fill="#0B45B7"/>
<path d="M21.4318 230.572C21.3916 230.693 21.3715 230.814 21.3313 230.935C14.7408 226.401 14.7408 220.899 16.6899 214.732C15.2231 220.798 15.8259 225.917 21.4318 230.572Z" fill="black" fill-opacity="0.2"/>
<path d="M31.3999 220.173C29.0691 219.649 25.9949 220.072 24.0057 220.999C23.3828 221.302 22.8001 221.725 22.4384 222.289C22.2174 222.632 22.0165 223.095 22.0365 223.518C22.0968 224.486 23.7846 224.445 24.4678 224.526C26.4168 224.768 28.4663 224.707 30.3953 224.385C31.42 224.204 32.6457 223.982 33.5097 223.377C34.0321 223.015 34.6952 222.41 34.4741 221.685C34.3134 221.14 33.6905 220.838 33.2083 220.657C32.7461 220.496 31.9022 220.294 31.3999 220.173Z" fill="#317FDD"/>
<path d="M23.264 219.227C23.2841 219.247 23.3042 219.247 23.3243 219.247C23.3444 219.247 23.3645 219.247 23.3846 219.287C23.3846 219.327 23.3645 219.327 23.3444 219.327C23.2238 219.368 23.2238 219.388 23.2841 219.509C23.3444 219.609 23.4449 219.69 23.5654 219.751C23.7262 219.831 23.907 219.912 24.0677 220.013C24.1883 220.093 24.2888 220.154 24.3892 220.254C24.6103 220.436 24.7911 220.637 24.8916 220.899C24.9518 221.04 24.992 221.202 25.0121 221.363C25.0523 221.605 25.0724 221.826 25.0724 222.068C25.0724 222.189 25.0724 222.31 25.0925 222.431C25.0925 222.572 25.1528 222.693 25.213 222.814C25.2532 222.935 25.3135 223.035 25.3537 223.156C25.3939 223.257 25.4542 223.358 25.4943 223.459C25.5546 223.58 25.5948 223.7 25.6551 223.821C25.7355 223.983 25.8158 224.144 25.8761 224.325C25.9364 224.446 25.9967 224.567 26.057 224.688C26.1172 224.829 26.1775 224.95 26.2378 225.091C26.278 225.212 26.3383 225.313 26.3784 225.434C26.4387 225.595 26.5191 225.756 26.5794 225.917C26.6597 226.139 26.7401 226.381 26.8004 226.602C26.8205 226.723 26.8607 226.824 26.8808 226.945C26.9009 227.046 26.921 227.147 26.941 227.227C26.9611 227.348 26.9611 227.489 26.9611 227.61C26.9611 227.812 26.921 227.993 26.8004 228.154C26.6196 228.376 26.2579 228.497 25.9967 228.356C25.9364 228.315 25.9364 228.315 25.8962 228.396C25.7957 228.638 25.5948 228.779 25.3336 228.799C25.193 228.819 25.0523 228.799 24.9116 228.718C24.8916 228.698 24.8715 228.718 24.8514 228.739C24.7509 228.9 24.5902 229.001 24.3892 229.021C24.128 229.061 23.9472 228.96 23.7663 228.799C23.6659 228.718 23.6056 228.618 23.5252 228.497C23.4047 228.315 23.3243 228.114 23.2439 227.912C23.1636 227.731 23.1033 227.55 23.0631 227.368C23.0028 227.147 22.9425 226.945 22.9023 226.723C22.8622 226.562 22.822 226.381 22.8019 226.22C22.7617 226.038 22.7416 225.877 22.7014 225.696C22.6612 225.534 22.6411 225.373 22.6009 225.212C22.5608 225.01 22.5206 224.809 22.5005 224.587C22.4804 224.446 22.4603 224.325 22.4201 224.184C22.4 224.083 22.3799 224.003 22.3799 223.902C22.3598 223.821 22.3397 223.721 22.3397 223.64C22.3196 223.499 22.2795 223.358 22.1991 223.257C22.1589 223.176 22.0986 223.096 22.0584 223.035C21.9379 222.854 21.8173 222.693 21.7369 222.491C21.6566 222.35 21.5963 222.209 21.5561 222.048C21.4958 221.867 21.4958 221.665 21.5159 221.484C21.536 221.222 21.6164 220.96 21.7169 220.718C21.7771 220.557 21.8575 220.416 21.9379 220.275C21.9982 220.174 22.0383 220.053 22.0584 219.932C22.0584 219.871 22.0383 219.811 22.0182 219.751C22.0182 219.73 21.9982 219.73 21.9781 219.73C21.958 219.73 21.9178 219.751 21.8977 219.751C21.8776 219.751 21.8575 219.751 21.8374 219.73C21.8374 219.71 21.8374 219.69 21.8374 219.67C21.8575 219.65 21.8977 219.65 21.8977 219.609H21.9178C22.2192 219.509 22.5407 219.408 22.8421 219.307C22.9626 219.307 23.1234 219.267 23.264 219.227Z" fill="#C3E3F6"/>
<path d="M23.2657 219.228C23.125 219.268 22.9844 219.308 22.8236 219.369C22.5222 219.469 22.2008 219.57 21.8994 219.671H21.8793C21.8391 219.691 21.819 219.671 21.7989 219.631C21.7989 219.57 21.7788 219.53 21.7587 219.49C21.7788 219.469 21.819 219.469 21.8391 219.429C21.7989 219.449 21.7788 219.449 21.7587 219.449C21.6984 219.207 21.6181 218.986 21.5578 218.764C21.5377 218.683 21.5578 218.623 21.6582 218.583C22.04 218.462 22.4419 218.341 22.8236 218.22C22.904 218.2 22.9844 218.24 23.0045 218.321C23.0648 218.522 23.125 218.724 23.1853 218.925C23.1853 218.945 23.2255 218.986 23.2255 219.006C23.1451 219.026 23.0447 219.066 22.9643 219.087V219.107C23.0648 219.087 23.1451 219.046 23.2255 219.026C23.2255 219.046 23.2456 219.087 23.2657 219.107C23.2858 219.147 23.2858 219.167 23.3059 219.207C23.3059 219.207 23.2858 219.207 23.2657 219.228ZM22.5423 219.207C22.4419 219.228 22.3414 219.268 22.2209 219.288C22.3414 219.268 22.4419 219.228 22.5423 219.207ZM22.5825 219.187C22.683 219.167 22.7835 219.127 22.904 219.087C22.7835 219.107 22.683 219.147 22.5825 219.187ZM21.8793 219.409C21.9797 219.389 22.0802 219.349 22.1807 219.328C22.0802 219.349 21.9797 219.369 21.8793 219.409Z" fill="#1A2CAF"/>
<path d="M23.2633 227.228C23.1829 226.926 23.1026 226.623 23.0423 226.321C22.9418 225.797 22.8414 225.273 22.7409 224.749C22.6605 224.306 22.6605 223.802 22.4797 223.379C22.3792 223.137 22.1984 222.915 22.0577 222.694C21.8769 222.391 21.7563 222.049 21.7362 221.686C21.7162 221.424 21.7362 220.84 21.9975 220.719C22.0979 220.9 22.0376 221.162 22.0175 221.384C21.9975 221.888 22.2587 222.351 22.5199 222.774C22.8012 223.198 22.9217 223.58 23.0222 224.064C23.1026 224.447 23.1829 224.85 23.2633 225.233C23.4442 226.16 23.625 227.087 23.8661 228.014C23.8862 228.054 23.8862 228.095 23.8661 228.135C23.8259 228.236 23.6652 228.175 23.625 228.115C23.4642 227.833 23.3638 227.53 23.2633 227.228Z" fill="#FEFEFE"/>
<path d="M32.6681 217.133C32.6681 217.153 32.7082 217.153 32.7283 217.173C32.7484 217.193 32.7685 217.193 32.7685 217.213C32.7685 217.254 32.7484 217.254 32.7082 217.254C32.5877 217.274 32.5676 217.294 32.6078 217.415C32.648 217.536 32.7283 217.637 32.8288 217.717C32.9694 217.838 33.1101 217.959 33.2508 218.08C33.3512 218.181 33.4316 218.282 33.512 218.382C33.6928 218.604 33.8134 218.846 33.8736 219.128C33.9138 219.289 33.8937 219.45 33.8937 219.612C33.8937 219.853 33.8535 220.075 33.7933 220.317C33.7732 220.438 33.7531 220.539 33.733 220.66C33.7129 220.801 33.733 220.942 33.7531 221.063C33.7732 221.183 33.7933 221.304 33.8334 221.425C33.8535 221.526 33.8937 221.647 33.9138 221.748C33.9339 221.869 33.9741 222.01 33.9942 222.131C34.0344 222.312 34.0746 222.493 34.1148 222.675C34.1348 222.816 34.175 222.937 34.1951 223.078C34.2353 223.219 34.2554 223.38 34.2755 223.521C34.2956 223.642 34.3157 223.763 34.3358 223.884C34.3559 224.045 34.3961 224.227 34.4161 224.388C34.4563 224.63 34.4764 224.871 34.4764 225.113C34.4764 225.234 34.4764 225.355 34.4764 225.456C34.4764 225.557 34.4563 225.657 34.4563 225.758C34.4563 225.879 34.4161 226.02 34.3961 226.141C34.3559 226.322 34.2755 226.504 34.1148 226.645C33.8937 226.826 33.512 226.846 33.2708 226.665C33.2106 226.605 33.2106 226.625 33.1704 226.685C33.0096 226.907 32.8087 226.987 32.5475 226.967C32.4068 226.947 32.2662 226.887 32.1657 226.786C32.1456 226.766 32.1255 226.766 32.1054 226.786C31.9648 226.927 31.784 226.967 31.6031 226.967C31.3419 226.967 31.1812 226.806 31.0405 226.605C30.9802 226.504 30.92 226.383 30.8798 226.262C30.7994 226.06 30.7592 225.839 30.7391 225.637C30.6989 225.456 30.6788 225.254 30.6788 225.073C30.6788 224.851 30.6587 224.63 30.6587 224.408C30.6587 224.227 30.6587 224.065 30.6587 223.884C30.6587 223.703 30.6788 223.521 30.6788 223.36C30.6788 223.199 30.6788 223.038 30.6989 222.876C30.719 222.675 30.719 222.453 30.7391 222.252C30.7592 222.111 30.7592 221.99 30.7592 221.849C30.7592 221.748 30.7592 221.667 30.7793 221.566C30.7793 221.486 30.7793 221.385 30.7793 221.304C30.7793 221.163 30.7793 221.022 30.719 220.881C30.6788 220.801 30.6587 220.72 30.6186 220.619C30.5382 220.418 30.4779 220.216 30.4176 220.015C30.3774 219.853 30.3574 219.692 30.3373 219.531C30.3172 219.329 30.3573 219.148 30.4176 218.967C30.498 218.705 30.6186 218.483 30.7793 218.261C30.8798 218.12 30.9802 217.999 31.1008 217.878C31.1812 217.798 31.2615 217.697 31.3017 217.576C31.3218 217.516 31.3017 217.455 31.3017 217.395C31.3017 217.375 31.2816 217.375 31.2615 217.375C31.2414 217.375 31.2013 217.375 31.1812 217.375C31.1611 217.375 31.141 217.375 31.141 217.354C31.141 217.334 31.141 217.314 31.1611 217.294C31.1812 217.274 31.2214 217.274 31.2414 217.254H31.2615C31.583 217.234 31.9045 217.193 32.2461 217.173C32.3667 217.153 32.5073 217.153 32.6681 217.133Z" fill="#7DC1EF"/>
<path d="M32.666 217.132C32.5053 217.152 32.3646 217.152 32.2039 217.172C31.8824 217.192 31.5609 217.233 31.2193 217.253H31.1992C31.139 217.273 31.139 217.233 31.139 217.192C31.139 217.132 31.139 217.092 31.139 217.031C31.1591 217.011 31.1992 217.031 31.2193 216.991C31.1792 216.991 31.1591 216.991 31.1189 216.991C31.1189 216.749 31.0787 216.507 31.0586 216.285C31.0586 216.205 31.0988 216.144 31.1792 216.124C31.581 216.084 32.003 216.064 32.4048 216.023C32.4852 216.023 32.5455 216.064 32.5656 216.144C32.5857 216.346 32.6058 216.568 32.6058 216.769C32.6058 216.809 32.6259 216.83 32.6259 216.85C32.5254 216.85 32.445 216.87 32.3446 216.87V216.89C32.445 216.89 32.5254 216.87 32.6259 216.87C32.6259 216.89 32.6259 216.93 32.6459 216.95C32.6459 216.991 32.6459 217.011 32.666 217.051C32.7062 217.112 32.6861 217.132 32.666 217.132ZM31.9628 216.95C31.8623 216.95 31.7418 216.95 31.6413 216.971C31.7418 216.971 31.8623 216.971 31.9628 216.95ZM32.003 216.95C32.1034 216.95 32.224 216.93 32.3245 216.93C32.224 216.93 32.1235 216.93 32.003 216.95ZM31.2796 217.011C31.3801 217.011 31.5006 216.991 31.6011 216.991C31.4806 216.991 31.3801 216.991 31.2796 217.011Z" fill="#1A2CAF"/>
<path d="M30.9186 224.952C30.8985 224.65 30.8985 224.327 30.8985 224.025C30.8985 223.501 30.9186 222.957 30.9588 222.433C30.9789 221.969 31.0995 221.486 30.999 221.042C30.9387 220.78 30.8182 220.538 30.7378 220.276C30.6373 219.934 30.5771 219.571 30.6373 219.229C30.6775 218.987 30.8182 218.402 31.0995 218.342C31.1598 218.543 31.0392 218.785 30.9789 218.987C30.8584 219.47 30.999 219.974 31.1597 220.438C31.3406 220.921 31.3808 221.304 31.3607 221.808C31.3406 222.211 31.3406 222.614 31.3205 222.997C31.3004 223.944 31.2602 224.891 31.2803 225.839C31.2803 225.879 31.2803 225.919 31.2602 225.959C31.1999 226.06 31.0593 225.96 31.0392 225.879C30.9789 225.577 30.9387 225.254 30.9186 224.952Z" fill="#FEFEFE"/>
<path d="M26.7384 218.48C26.7384 218.501 26.7785 218.501 26.7986 218.521C26.8187 218.541 26.8388 218.541 26.8388 218.561C26.8388 218.601 26.8187 218.601 26.7785 218.601C26.658 218.622 26.6379 218.642 26.6781 218.763C26.7183 218.884 26.7986 218.984 26.8991 219.065C27.0398 219.186 27.1804 219.307 27.3211 219.428C27.4215 219.528 27.5019 219.629 27.5823 219.73C27.7631 219.952 27.8837 220.193 27.9439 220.476C27.9841 220.637 27.964 220.798 27.964 220.959C27.964 221.201 27.9239 221.423 27.8636 221.665C27.8435 221.786 27.8234 221.886 27.8033 222.007C27.7832 222.148 27.8033 222.289 27.8234 222.41C27.8435 222.531 27.8636 222.652 27.9038 222.773C27.9239 222.874 27.964 222.995 27.9841 223.095C28.0042 223.216 28.0444 223.357 28.0645 223.478C28.1047 223.66 28.1449 223.841 28.1851 224.022C28.2052 224.164 28.2453 224.284 28.2654 224.426C28.3056 224.567 28.3257 224.728 28.3458 224.869C28.3659 224.99 28.386 225.111 28.4061 225.232C28.4262 225.393 28.4664 225.574 28.4865 225.735C28.5266 225.977 28.5467 226.219 28.5467 226.461C28.5467 226.582 28.5467 226.703 28.5467 226.804C28.5467 226.904 28.5266 227.005 28.5266 227.106C28.5266 227.227 28.4865 227.368 28.4664 227.489C28.4262 227.67 28.3458 227.851 28.1851 227.993C27.964 228.174 27.5823 228.194 27.3412 228.013C27.2809 227.952 27.2809 227.972 27.2407 228.033C27.0799 228.255 26.879 228.335 26.6178 228.315C26.4772 228.295 26.3365 228.234 26.236 228.134C26.2159 228.113 26.1959 228.113 26.1758 228.134C26.0351 228.275 25.8543 228.315 25.6734 228.315C25.4122 228.315 25.2515 228.154 25.1108 227.952C25.0505 227.851 24.9903 227.731 24.9501 227.61C24.8697 227.408 24.8295 227.186 24.8094 226.985C24.7692 226.804 24.7492 226.602 24.7492 226.421C24.7492 226.199 24.7291 225.977 24.7291 225.756C24.7291 225.574 24.7291 225.413 24.7291 225.232C24.7291 225.05 24.7492 224.869 24.7492 224.708C24.7492 224.546 24.7492 224.385 24.7692 224.224C24.7893 224.022 24.7893 223.801 24.8094 223.599C24.8295 223.458 24.8295 223.337 24.8295 223.196C24.8295 223.095 24.8295 223.015 24.8496 222.914C24.8496 222.833 24.8496 222.733 24.8496 222.652C24.8496 222.511 24.8496 222.37 24.7893 222.229C24.7492 222.148 24.7291 222.068 24.6889 221.967C24.6085 221.765 24.5482 221.564 24.4879 221.362C24.4478 221.201 24.4277 221.04 24.4076 220.879C24.3875 220.677 24.4277 220.496 24.4879 220.314C24.5683 220.052 24.6889 219.831 24.8496 219.609C24.9501 219.468 25.0505 219.347 25.1711 219.226C25.2515 219.146 25.3319 219.045 25.372 218.924C25.3921 218.863 25.372 218.803 25.372 218.742C25.372 218.722 25.3519 218.722 25.3318 218.722C25.3118 218.722 25.2716 218.722 25.2515 218.722C25.2314 218.722 25.2113 218.722 25.2113 218.702C25.2113 218.682 25.2113 218.662 25.2314 218.642C25.2515 218.622 25.2917 218.622 25.3118 218.601H25.3318C25.6533 218.581 25.9748 218.541 26.3164 218.521C26.437 218.501 26.5977 218.501 26.7384 218.48Z" fill="#7DC1EF"/>
<path d="M26.7364 218.479C26.5756 218.5 26.435 218.5 26.2742 218.52C25.9527 218.54 25.6312 218.58 25.2897 218.6H25.2696C25.2093 218.621 25.2093 218.58 25.2093 218.54C25.2093 218.479 25.2093 218.439 25.2093 218.379C25.2294 218.359 25.2696 218.379 25.2897 218.338C25.2495 218.338 25.2294 218.338 25.1892 218.338C25.1892 218.097 25.149 217.855 25.1289 217.633C25.1289 217.552 25.1691 217.492 25.2495 217.472C25.6513 217.432 26.0733 217.411 26.4751 217.371C26.5555 217.371 26.6158 217.411 26.6359 217.492C26.656 217.694 26.6761 217.915 26.6761 218.117C26.6761 218.157 26.6962 218.177 26.6962 218.197C26.5957 218.197 26.5153 218.218 26.4149 218.218V218.238C26.5153 218.238 26.5957 218.218 26.6962 218.218C26.6962 218.238 26.6962 218.278 26.7163 218.298C26.7163 218.338 26.7163 218.359 26.7364 218.399C26.7765 218.479 26.7564 218.479 26.7364 218.479ZM26.0331 218.318C26.0331 218.298 26.0331 218.298 26.0331 218.318C25.9326 218.318 25.8121 218.318 25.7116 218.338C25.8322 218.318 25.9326 218.318 26.0331 218.318ZM26.0934 218.298C26.1938 218.298 26.3144 218.278 26.4149 218.278C26.2943 218.278 26.1938 218.298 26.0934 218.298ZM25.3499 218.359C25.4504 218.359 25.571 218.338 25.6714 218.338C25.571 218.338 25.4504 218.359 25.3499 218.359Z" fill="#1A2CAF"/>
<path d="M24.9889 226.3C24.9689 225.997 24.9689 225.675 24.9689 225.372C24.9689 224.849 24.9889 224.304 25.0291 223.78C25.0492 223.317 25.1698 222.833 25.0693 222.39C25.009 222.128 24.8885 221.886 24.8081 221.624C24.7076 221.282 24.6474 220.919 24.7076 220.576C24.7478 220.334 24.8885 219.75 25.1698 219.689C25.2301 219.891 25.1095 220.133 25.0492 220.334C24.9287 220.818 25.0693 221.322 25.2301 221.785C25.4109 222.269 25.4511 222.652 25.431 223.156C25.4109 223.559 25.4109 223.962 25.3908 224.345C25.3707 225.292 25.3305 226.239 25.3506 227.186C25.3506 227.227 25.3506 227.267 25.3305 227.307C25.2702 227.408 25.1296 227.307 25.1095 227.227C25.0492 226.924 25.009 226.622 24.9889 226.3Z" fill="#FEFEFE"/>
<path d="M28.6295 216.566C28.6496 216.587 28.6697 216.587 28.6898 216.587C28.7099 216.587 28.73 216.587 28.7501 216.627C28.7501 216.667 28.73 216.667 28.7099 216.667C28.5894 216.707 28.5693 216.728 28.6496 216.849C28.7099 216.969 28.8104 217.03 28.9309 217.09C29.0917 217.171 29.2524 217.252 29.4132 217.373C29.5337 217.453 29.6342 217.534 29.7347 217.614C29.9557 217.796 30.1164 218.017 30.237 218.279C30.2973 218.441 30.3174 218.602 30.3576 218.743C30.3977 218.985 30.3977 219.206 30.3977 219.448C30.3977 219.569 30.3977 219.69 30.3977 219.811C30.3977 219.952 30.458 220.073 30.4982 220.214C30.5384 220.335 30.5987 220.436 30.6389 220.557C30.679 220.657 30.7393 220.758 30.7795 220.859C30.8398 220.98 30.88 221.101 30.9403 221.222C31.0206 221.383 31.0809 221.564 31.1613 221.725C31.2216 221.846 31.2617 221.967 31.322 222.108C31.3823 222.249 31.4426 222.391 31.5029 222.511C31.543 222.632 31.6033 222.733 31.6435 222.854C31.7038 223.015 31.7641 223.176 31.8243 223.338C31.9047 223.559 31.9851 223.801 32.0253 224.043C32.0454 224.164 32.0856 224.265 32.1056 224.386C32.1257 224.486 32.1257 224.587 32.1458 224.668C32.1659 224.789 32.1659 224.93 32.1458 225.051C32.1257 225.252 32.0856 225.434 31.965 225.595C31.7842 225.816 31.4225 225.917 31.1412 225.776C31.0809 225.736 31.0809 225.736 31.0407 225.816C30.9202 226.058 30.7393 226.179 30.4781 226.22C30.3375 226.24 30.1968 226.199 30.0762 226.119C30.0562 226.099 30.0361 226.119 30.016 226.139C29.9155 226.3 29.7548 226.381 29.5538 226.421C29.2926 226.461 29.1118 226.361 28.9309 226.179C28.8506 226.099 28.7702 225.978 28.7099 225.877C28.6095 225.696 28.509 225.494 28.4487 225.293C28.3884 225.111 28.3081 224.93 28.2679 224.748C28.2076 224.527 28.1674 224.325 28.1272 224.103C28.087 223.942 28.0669 223.761 28.0268 223.6C27.9866 223.418 27.9665 223.257 27.9464 223.076C27.9263 222.914 27.8861 222.753 27.866 222.592C27.8258 222.391 27.8057 222.189 27.7655 221.967C27.7455 221.826 27.7254 221.705 27.7053 221.564C27.6852 221.463 27.6852 221.383 27.6651 221.282C27.645 221.202 27.645 221.101 27.6249 221.02C27.6048 220.879 27.5646 220.738 27.4842 220.617C27.4441 220.536 27.3838 220.456 27.3436 220.395C27.223 220.214 27.1226 220.033 27.0221 219.851C26.9618 219.71 26.9015 219.549 26.8413 219.408C26.781 219.227 26.781 219.025 26.8011 218.844C26.8212 218.582 26.9015 218.32 27.0221 218.078C27.0824 217.917 27.1628 217.776 27.2632 217.634C27.3235 217.534 27.3838 217.413 27.3838 217.292C27.3838 217.231 27.3637 217.171 27.3436 217.111C27.3436 217.09 27.3235 217.09 27.3034 217.09C27.2833 217.09 27.2431 217.111 27.223 217.111C27.2029 217.111 27.1828 217.111 27.1628 217.09C27.1628 217.07 27.1628 217.05 27.1828 217.03C27.2029 217.01 27.2431 217.01 27.2431 216.969H27.2632C27.5847 216.869 27.8861 216.788 28.2076 216.687C28.3282 216.647 28.4688 216.607 28.6295 216.566Z" fill="#C3E3F6"/>
<path d="M28.6316 216.566C28.4909 216.606 28.3302 216.647 28.1895 216.687C27.868 216.788 27.5666 216.868 27.2451 216.969H27.225C27.1849 216.989 27.1648 216.969 27.1447 216.929C27.1447 216.868 27.1246 216.828 27.1045 216.788C27.1246 216.768 27.1648 216.768 27.1849 216.727C27.1447 216.747 27.1246 216.747 27.1045 216.747C27.0643 216.506 26.9839 216.284 26.9036 216.062C26.8835 215.982 26.9237 215.921 27.004 215.881C27.4059 215.76 27.7877 215.659 28.1895 215.538C28.2699 215.518 28.3503 215.558 28.3704 215.639C28.4306 215.841 28.4909 216.042 28.5512 216.244C28.5512 216.264 28.5914 216.304 28.5914 216.324C28.511 216.344 28.4105 216.385 28.3302 216.405V216.425C28.4306 216.405 28.511 216.365 28.5914 216.344C28.5914 216.365 28.6115 216.405 28.6316 216.425C28.6517 216.465 28.6517 216.486 28.6717 216.526C28.6717 216.546 28.6517 216.546 28.6316 216.566ZM27.9082 216.526C27.8077 216.546 27.6872 216.586 27.5867 216.606C27.7073 216.586 27.8077 216.566 27.9082 216.526ZM27.9484 216.506C28.0489 216.486 28.1493 216.445 28.2699 216.425C28.1493 216.445 28.0489 216.486 27.9484 216.506ZM27.2451 216.727C27.3456 216.707 27.4461 216.667 27.5465 216.647C27.4461 216.667 27.3456 216.687 27.2451 216.727Z" fill="#1A2CAF"/>
<path d="M28.4696 224.567C28.3892 224.264 28.3289 223.962 28.2686 223.66C28.1682 223.136 28.0878 222.612 28.0074 222.088C27.9471 221.644 27.9471 221.12 27.7663 220.717C27.6658 220.476 27.5051 220.254 27.3644 220.012C27.1836 219.71 27.063 219.347 27.063 219.004C27.043 218.742 27.0831 218.158 27.3443 218.037C27.4448 218.218 27.3644 218.501 27.3644 218.702C27.3444 219.206 27.5855 219.669 27.8467 220.093C28.1079 220.516 28.2284 220.899 28.3289 221.403C28.3892 221.786 28.4696 222.189 28.5298 222.571C28.6906 223.498 28.8513 224.446 29.0724 225.353C29.0724 225.393 29.0924 225.433 29.0724 225.473C29.0322 225.574 28.8714 225.514 28.8312 225.433C28.6705 225.171 28.57 224.869 28.4696 224.567Z" fill="#FEFEFE"/>
<path d="M34.4365 221.685C34.5168 221.02 34.8182 223.197 35.0995 223.922C35.5617 225.192 35.7827 226.744 36.3855 228.013C37.8523 231.036 38.6158 235.691 34.979 237.485C33.1706 238.372 27.5646 238.472 25.696 237.686C23.0236 236.578 23.3451 233.233 23.0035 230.814C22.6619 228.336 22.0592 225.978 22.0391 223.479C22.0391 223.479 24.4502 224.043 26.3189 224.023C28.1674 224.003 30.2973 223.62 31.3823 223.318C32.4674 223.015 34.3762 222.209 34.4365 221.685Z" fill="#5EA7EF"/>
<path d="M21.5348 230.936C21.354 228.76 21.9166 227.732 22.3185 227.147C25.3927 230.634 33.5907 235.37 34.0729 235.41C34.9771 235.491 37.0868 235.491 37.2677 235.712C37.5892 236.639 36.7051 238.977 35.0173 239.32C34.2135 239.481 32.4654 238.131 31.943 237.546C31.7421 237.325 23.3432 232.226 21.5348 230.936ZM35.2584 224.266C36.0621 224.266 36.4841 224.588 36.9462 225.253C37.4083 225.918 37.8705 229.062 37.1069 229.062C36.3434 229.062 33.1888 227.853 33.1888 227.027C33.1888 226.2 35.3588 225.858 35.3588 225.253C35.3588 224.649 34.4547 224.266 35.2584 224.266Z" fill="#D6EEFC"/>
<path d="M27.0391 204.898C27.0793 205.12 27.2802 205.382 27.4008 205.563C27.5414 205.805 27.6419 206.047 27.7826 206.289C27.9031 206.511 28.2246 206.853 27.9634 207.055C27.7625 207.216 26.9788 207.297 26.7578 207.216" fill="#D6EEFC"/>
<path d="M26.8228 204.132C26.6821 204.111 26.5817 204.091 26.5013 204.091C26.4209 204.091 26.3405 204.091 26.2602 204.111C26.1798 204.132 26.0793 204.132 25.9789 204.152C25.8784 204.152 25.7578 204.172 25.6172 204.132C25.6775 204.011 25.7779 203.93 25.8583 203.85C25.9588 203.789 26.0793 203.729 26.22 203.708C26.3606 203.688 26.5013 203.708 26.6218 203.789C26.7223 203.89 26.8027 204.011 26.8228 204.132Z" fill="#CE3A5E"/>
<path d="M26.5374 204.898C26.6595 204.898 26.7585 204.799 26.7585 204.677C26.7585 204.554 26.6595 204.455 26.5374 204.455C26.4154 204.455 26.3164 204.554 26.3164 204.677C26.3164 204.799 26.4154 204.898 26.5374 204.898Z" fill="#CE3A5E"/>
<path d="M335 0V63L376 96V0H335Z" fill="#4390DD"/>
<path d="M361 129L320 63.5059H336.005L361 83.5V109.5V129Z" fill="#5EA7EF"/>
<path d="M362.5 142.5L320 68.4422V63.5059L372.828 147.234L362.5 142.5Z" fill="#4390DD"/>
<path d="M340 27.6914L340.026 48.9114L357.057 57.0002L357.044 27.6914H340Z" fill="#1761CC"/>
<path d="M347.75 40.731L341.105 38.4199V47.9532L347.75 51.0259V40.731Z" fill="#97D2F2"/>
<path d="M355.708 43.2779L348.801 40.9668V51.6031L355.708 54.7414V43.2779Z" fill="#97D2F2"/>
<path d="M347.711 26.7858L341.066 25V37.1726L347.711 39.4706V26.7858Z" fill="#97D2F2"/>
<path d="M355.665 28.9382L348.758 27.1523V39.732L355.665 41.9775V28.9382Z" fill="#97D2F2"/>
<path d="M310.324 222.535L300.254 247.989L293.504 269.506H290.832L301.154 222.535H310.324Z" fill="#0B45B7"/>
<path d="M312.348 222.535C312.461 231.479 314.008 243.517 314.261 244.08C314.429 244.446 320.167 249.171 331.502 258.255L329.674 260.224C316.314 252.433 309.339 248.018 308.72 246.977C307.792 245.43 304.782 231.086 302.363 222.535H312.348Z" fill="#0B45B7"/>
<path d="M331.722 257.61C332.342 257.824 332.764 258.021 333.006 258.222C333.284 258.466 333.649 258.857 334.141 259.399C333.872 259.735 331.379 262.671 326.699 268.251C325.736 267.847 325.439 267.362 325.786 266.814C326.134 266.265 326.434 265.792 326.664 265.453L328.276 259.804C328.304 259.707 328.43 259.638 328.528 259.667L329.382 259.941C329.986 259.655 330.41 259.372 330.654 259.094C330.855 258.852 331.03 258.448 331.179 257.882C331.258 257.67 331.47 257.528 331.722 257.61C331.704 257.589 331.722 257.61 331.722 257.61Z" fill="#1D67DD"/>
<path d="M294.601 268.521C294.826 269.139 294.938 269.589 294.938 269.899C294.938 270.264 294.882 270.799 294.741 271.53C294.319 271.53 290.466 271.53 283.181 271.53C282.872 270.546 283.041 270.011 283.688 269.927C284.335 269.842 284.869 269.786 285.291 269.702L290.663 267.311C290.775 267.255 290.888 267.311 290.944 267.424L291.282 268.267C291.872 268.549 292.379 268.689 292.744 268.689C293.054 268.689 293.476 268.577 294.01 268.324C294.235 268.183 294.488 268.267 294.601 268.521C294.601 268.492 294.601 268.492 294.601 268.521Z" fill="#1D67DD"/>
<path d="M303.544 267.284L290.887 265.906L300.253 222.535H311.616L303.544 267.284Z" fill="#031F70"/>
<path d="M328.859 255.077L320.562 264.921C311.815 255.358 306.696 249.114 305.261 246.217C303.799 243.292 302.505 235.417 301.352 222.535H314.121C314.768 233.87 315.19 239.805 315.415 240.311C315.612 240.845 320.112 245.767 328.859 255.077Z" fill="#073199"/>
<path d="M309.335 196.547C310.292 195.45 310.911 194.072 310.826 192.553C310.517 188.165 304.413 189.122 303.232 191.344C302.051 193.566 302.191 199.163 303.71 199.556C304.329 199.725 305.623 199.331 306.945 198.516L306.101 204.422H311.023L309.335 196.547Z" fill="#0B45B7"/>
<path d="M301.039 188.278C301.151 187.913 301.404 187.603 301.77 187.519C301.854 187.491 301.939 187.491 302.051 187.491C302.079 187.491 302.108 187.491 302.108 187.491C302.108 187.463 302.108 187.434 302.136 187.406C302.164 187.35 302.164 187.294 302.192 187.209C302.276 187.013 302.389 186.816 302.558 186.675C302.839 186.394 303.233 186.197 303.655 186.169C303.88 186.141 304.105 186.197 304.301 186.253C304.414 186.281 304.527 186.338 304.611 186.394C304.639 186.422 304.752 186.478 304.78 186.478C304.808 186.478 304.892 186.394 304.92 186.366C305.258 186.084 305.708 186 306.13 186C306.608 186 307.086 186.028 307.508 186.338C307.592 186.394 307.677 186.478 307.761 186.534C307.789 186.563 307.845 186.619 307.874 186.647C307.902 186.675 307.93 186.703 307.93 186.731C307.958 186.788 307.958 186.788 308.014 186.759C308.211 186.647 308.436 186.591 308.661 186.619C308.802 186.647 308.942 186.675 309.055 186.731C309.111 186.759 309.195 186.816 309.252 186.816C309.308 186.816 309.392 186.759 309.449 186.731C309.702 186.647 309.983 186.619 310.236 186.647C310.517 186.703 310.771 186.788 311.024 186.956C311.136 187.041 311.221 187.097 311.305 187.209C311.333 187.266 311.361 187.294 311.417 187.35C311.446 187.378 311.474 187.406 311.502 187.434C311.502 187.406 311.811 187.294 311.839 187.294C311.98 187.266 312.149 187.266 312.289 187.322C312.571 187.406 312.824 187.631 313.021 187.828C313.133 187.941 313.217 188.053 313.302 188.194C313.33 188.25 313.358 188.306 313.414 188.391C313.443 188.419 313.443 188.475 313.471 188.503C313.499 188.531 313.527 188.531 313.555 188.559C313.78 188.644 314.005 188.784 314.174 188.953C314.343 189.15 314.455 189.375 314.483 189.628C314.483 189.656 314.483 189.713 314.483 189.713C314.483 189.713 314.539 189.713 314.568 189.713C314.624 189.713 314.68 189.741 314.736 189.741C314.849 189.769 314.961 189.797 315.046 189.853C315.439 190.05 315.721 190.416 315.861 190.838C316.002 191.26 316.002 191.766 315.833 192.188C315.805 192.244 315.777 192.328 315.721 192.385C315.693 192.413 315.693 192.413 315.693 192.469C315.721 192.525 315.749 192.553 315.749 192.61C315.805 192.75 315.861 192.919 315.89 193.06C315.946 193.313 315.974 193.594 315.918 193.847C315.889 193.96 315.861 194.072 315.805 194.185C315.777 194.241 315.749 194.297 315.693 194.325C315.664 194.353 315.636 194.382 315.636 194.41L315.608 194.438C315.58 194.466 315.58 194.438 315.58 194.494C315.608 194.579 315.636 194.635 315.664 194.719C315.693 194.804 315.721 194.86 315.749 194.944C315.805 195.085 315.833 195.254 315.861 195.394C315.918 195.704 315.89 196.013 315.749 196.294C315.693 196.407 315.608 196.519 315.496 196.604C315.439 196.632 315.383 196.688 315.327 196.716C315.299 196.744 315.271 196.744 315.243 196.772C315.214 196.8 315.243 196.857 315.243 196.913C315.299 197.222 315.299 197.532 315.214 197.841C315.13 198.122 314.933 198.347 314.708 198.516C314.258 198.826 313.611 198.797 313.133 198.572C312.992 198.516 312.88 198.432 312.796 198.319C312.514 198.685 311.98 198.657 311.586 198.572C311.108 198.432 310.714 198.094 310.461 197.644C310.152 198.01 309.505 197.897 309.28 197.504C309.224 197.391 309.195 197.307 309.167 197.194C309.167 197.138 309.167 197.082 309.167 197.025C309.167 196.941 309.111 196.885 309.083 196.8C309.027 196.66 308.999 196.519 308.999 196.379C308.999 196.294 308.999 196.21 309.027 196.154C309.027 196.069 309.027 196.013 308.999 195.957C309.111 195.985 309.28 195.957 309.392 195.9C309.505 195.872 309.617 195.76 309.702 195.675C309.899 195.479 310.011 195.225 310.096 194.944C310.264 194.382 310.208 193.678 309.617 193.369C309.336 193.228 308.549 193.228 308.211 193.285C307.874 193.369 307.508 194.1 307.48 194.185C307.48 194.241 307.48 194.269 307.424 194.297C307.339 194.353 307.198 194.241 307.142 194.185C307.03 194.1 306.945 193.96 306.889 193.847C306.748 193.566 306.608 193.285 306.523 192.975C306.467 192.75 306.411 192.497 306.327 192.272C306.242 192.047 306.102 191.85 305.905 191.71C305.68 191.569 305.427 191.485 305.173 191.4C304.92 191.316 304.695 191.203 304.498 191.035C304.47 191.006 304.414 190.95 304.386 190.894C304.358 190.866 304.33 190.781 304.301 190.753C304.245 190.725 304.133 190.81 304.105 190.838C303.823 191.006 303.598 191.26 303.43 191.513C303.261 191.766 303.092 192.019 302.98 192.328C302.895 192.553 302.839 192.807 302.67 193.003C302.614 193.088 302.079 193.144 301.911 193.06C301.742 193.003 301.545 192.807 301.489 192.694C301.433 192.582 301.404 192.441 301.433 192.328C301.461 192.244 301.489 192.188 301.489 192.103C301.489 192.047 301.517 191.991 301.545 191.935C301.601 191.822 301.686 191.766 301.826 191.71C301.714 191.597 301.601 191.456 301.545 191.316C301.461 191.175 301.404 190.978 301.404 190.81C301.404 190.669 301.404 190.528 301.489 190.416C301.573 190.303 301.714 190.219 301.826 190.135C301.629 189.994 301.489 189.825 301.348 189.628C301.067 189.206 300.898 188.728 301.039 188.278Z" fill="#02184C"/>
<path d="M302.472 194.494C302.5 195.282 301.797 196.013 301.797 196.8C301.797 197.363 302.387 197.419 302.894 197.391" fill="#0B45B7"/>
<path d="M302.672 194.1C302.672 193.931 302.784 193.79 302.953 193.706C303.122 193.65 303.291 193.622 303.431 193.65C303.6 193.678 303.741 193.734 303.881 193.79C304.022 193.875 304.134 193.959 304.219 194.1C304.078 194.043 303.938 194.015 303.797 193.987C303.656 193.959 303.516 193.931 303.403 193.903C303.263 193.875 303.15 193.875 303.009 193.875C302.897 193.959 302.784 193.987 302.672 194.1Z" fill="#02184C"/>
<path d="M302.863 198.262C303.06 198.234 303.257 198.122 303.426 198.037C303.595 197.953 303.791 197.84 304.045 197.812L304.466 197.756L304.157 198.065C304.016 198.206 303.848 198.375 303.679 198.515C303.51 198.656 303.313 198.797 303.06 198.825C303.398 198.543 303.623 198.178 303.932 197.84L304.045 198.065C303.876 198.093 303.679 198.15 303.482 198.206C303.285 198.29 303.06 198.318 302.863 198.262Z" fill="#02184C"/>
<path d="M303.006 194.747C303.131 194.747 303.231 194.646 303.231 194.522C303.231 194.398 303.131 194.297 303.006 194.297C302.882 194.297 302.781 194.398 302.781 194.522C302.781 194.646 302.882 194.747 303.006 194.747Z" fill="#02184C"/>
<path d="M291.447 218.289L285.878 214.014C283.094 213.508 281.8 213.057 282.025 212.692C282.334 212.129 283.094 212.523 283.347 212.186C283.6 211.848 282.953 210.807 282.306 209.851C281.659 208.895 282.278 208.923 282.616 209.035C283.825 209.71 285.091 210.695 286.385 211.989L293.81 215.251L291.447 218.289Z" fill="#0B45B7"/>
<path d="M308.21 200.456L306.438 200.146C302.585 203.887 301.01 212.888 298.422 214.069C296.004 215.194 292.544 214.097 288.438 212.635L287.172 215.447C290.885 219.469 298.816 222.872 302.051 220.932C307.226 217.838 308.407 206.728 308.21 200.456Z" fill="#CE3A5E"/>
<path d="M315.947 222.704C308.831 222.704 303.628 222.704 300.28 222.704C299.577 222.704 299.69 221.663 299.802 221.157C300.984 215.138 305.653 208.641 305.653 200.063L310.181 199.359C313.922 205.378 315.216 212.776 315.947 222.704Z" fill="#7DC1EF"/>
<path d="M315.805 212.129C319.742 217.248 317.774 219.02 319.967 221.551L325.002 219.526C322.893 206.391 320.614 205.603 310.489 199.359H310.433H308.689C304.639 213.197 303.514 222.423 305.342 227.036H319.461C319.208 223.66 316.761 215.616 315.805 212.129Z" fill="#F24C64"/>
<path d="M309.055 211.678C308.746 211.762 308.408 211.059 308.268 210.862C308.043 210.497 307.902 210.103 307.789 209.681C307.649 209.203 307.789 208.668 308.324 208.528C308.521 208.471 308.718 208.556 308.886 208.668C309.168 208.865 309.449 209.203 309.449 209.54C309.449 209.568 309.449 209.568 309.449 209.54C309.786 208.696 311.08 208.921 310.996 209.793C310.968 210.497 309.927 211.453 309.055 211.678Z" fill="#CE3A5E"/>
<path d="M307.816 279.632H308.829V233.646L308.885 233.449V233.365C308.885 231.761 310.179 230.468 311.782 230.468C313.385 230.468 314.679 231.761 314.679 233.365H315.692C315.692 231.199 313.948 229.455 311.782 229.455C309.645 229.455 307.901 231.171 307.873 233.28L307.816 233.477V279.632Z" fill="#CE3A5E"/>
<path d="M318.872 219.553L313.162 227.062C311.334 228.187 309.872 229.341 308.775 230.522C308.55 230.888 308.325 231.591 309.619 231.113C310.912 230.634 312.262 230.184 312.572 230.578C312.881 230.972 312.262 231.731 312.797 232.238C313.162 232.575 314.006 231.225 315.356 228.216L321.713 223.097L318.872 219.553Z" fill="#317FDD"/>
<path d="M347.475 223.098L337.715 252.911L332.849 275.384L328.715 275.244L334.621 222.676L347.475 223.098Z" fill="#317FDD"/>
<path d="M351.384 223.239C350.259 238.849 350.203 247.399 350.287 248.834C350.372 250.268 350.822 259.803 355.547 276.622L351.244 276.482C344.775 260.281 342.665 250.662 341.934 248.552C341.203 246.415 339.121 237.808 336.168 222.732L351.384 223.239Z" fill="#317FDD"/>
<path d="M347.643 223.098C345.027 233.392 340.527 249.789 334.199 272.319L328.18 272.122C328.517 248.805 330.936 233.504 334.564 222.676L347.643 223.098Z" fill="#1159CC"/>
<path d="M351.414 223.238C350.289 238.848 351.33 254.318 355.492 273.275L349.051 273.05C342.582 257.074 338.082 241.577 335.27 222.676L351.414 223.238Z" fill="#1D67DD"/>
<path d="M356.053 278.928L355.828 275.103C354.45 275.497 352.706 275.356 350.625 274.625C348.374 276.228 345.562 277.297 342.159 277.888C341.905 277.944 341.737 278.169 341.765 278.45C341.765 278.478 341.765 278.478 341.765 278.506L342.102 279.66H350.625H355.603L356.053 278.928Z" fill="#0B45B7"/>
<path d="M333.612 278.928L333.386 275.103C332.008 275.497 330.264 275.356 328.183 274.625C325.933 276.228 323.12 277.297 319.717 277.888C319.464 277.944 319.295 278.169 319.323 278.45C319.323 278.478 319.323 278.478 319.323 278.506L319.661 279.66H328.183H333.162L333.612 278.928Z" fill="#0B45B7"/>
<path d="M325.031 196.772C325.565 195.169 325.678 193.425 324.89 191.822C322.64 187.209 316.48 190.921 316.143 193.819C315.805 196.716 318.421 202.735 320.249 202.481C320.981 202.397 322.218 201.413 323.315 199.95L324.975 206.672L330.29 204.535L325.031 196.772Z" fill="#317FDD"/>
<path d="M320.671 194.128C321.6 197.053 321.628 198.684 320.756 199.022C319.434 199.556 317.999 199.162 317.437 199.387C317.015 199.556 317.324 200.034 317.746 200.315C318.112 200.54 319.349 200.4 319.546 200.906C319.743 201.412 318.703 201.384 318.815 201.665C319.012 202.144 319.237 203.128 320.081 202.79C320.924 202.453 323.259 201.159 323.175 199.697C323.118 198.768 322.612 196.996 321.656 194.381C321.712 194.353 321.768 194.324 321.796 194.296C322.528 194.015 323.371 194.353 323.653 195.084C323.793 195.45 323.793 195.843 323.625 196.209C324.103 196.518 324.637 196.828 325.228 197.137C326.353 195.646 326.718 192.468 324.271 190.556C323.371 189.487 321.881 189.318 320.699 189.459C319.687 189.43 318.759 189.768 318.084 190.302C316.649 191.034 315.496 192.018 315.215 192.44C315.777 193.846 316.227 194.156 318.534 193.171C319.265 193.284 319.94 193.621 320.671 194.128Z" fill="#D6EEFC"/>
<path d="M316.565 197.08C316.565 197.474 316.565 197.839 316.565 198.233C316.565 198.458 316.48 198.88 316.565 199.105C316.734 199.555 317.437 199.415 317.718 199.218" fill="#317FDD"/>
<path d="M316.676 195.928C316.704 195.787 316.816 195.647 316.929 195.562C317.07 195.478 317.21 195.422 317.351 195.422C317.491 195.394 317.632 195.422 317.773 195.45C317.913 195.478 318.054 195.506 318.195 195.562C317.913 195.675 317.632 195.675 317.379 195.703C317.238 195.703 317.126 195.731 317.013 195.759C316.929 195.787 316.788 195.872 316.676 195.928Z" fill="#D6EEFC"/>
<path d="M317.155 196.716C317.279 196.716 317.38 196.615 317.38 196.491C317.38 196.366 317.279 196.266 317.155 196.266C317.03 196.266 316.93 196.366 316.93 196.491C316.93 196.615 317.03 196.716 317.155 196.716Z" fill="#0B45B7"/>
<path d="M362.326 219.526C363.001 219.892 366.292 220.201 368.401 220.201C369.245 220.201 369.357 220.876 369.245 221.157C368.204 223.492 366.151 222.986 364.098 223.323C361.876 223.689 363.535 225.826 361.791 226.136C361.566 224.926 361.37 222.564 360.132 221.72C359.598 221.354 354.029 216.995 343.453 208.585L347.756 205.604C356.56 214.407 361.426 219.02 362.326 219.526Z" fill="#317FDD"/>
<path d="M328.628 202.201L326.547 202.145C325 213.986 313.581 218.655 313.187 223.042C313.046 224.646 314.284 225.264 313.778 225.827L316.731 227.374C317.097 226.783 318.193 227.599 320.106 226.642C321.991 225.686 330.625 215.673 328.628 202.201Z" fill="#C4E8F8"/>
<path d="M324.242 205.659C333.045 218.062 327.983 226.247 333.046 230.185C337.236 233.419 353.071 229.144 352.481 223.547C352.256 221.297 351.271 219.019 349.837 216.825C351.553 218.09 352.987 219.244 354.14 220.2C356.137 221.887 358.556 220.706 359.09 221.522L361.425 218.737C360.497 217.781 361.481 216.318 359.456 214.153C350.371 204.421 340.555 199.555 330.036 199.583L329.248 198.571C328.911 198.149 328.32 198.093 327.898 198.43L322.864 202.424C322.442 202.762 322.386 203.352 322.723 203.774L324.242 205.659Z" fill="#C1E7F7"/>
<path d="M322.161 221.69C321.429 221.69 320.107 221.409 319.714 222.112C319.207 222.984 320.079 225.009 320.754 225.572C322.554 226.978 325.142 224.7 324.608 222.647C324.298 221.465 323.229 221.69 322.161 221.69Z" fill="#0B45B7"/>
<path d="M254.565 93.1652L257.208 93.9937C257.208 93.9937 255.887 97.5148 255.643 98.1017C255.643 98.1017 249.557 95.9269 249.314 95.8233C249.071 95.7197 251.018 92.1641 251.018 92.1641L254.565 93.1652Z" fill="white"/>
<path d="M237.457 92.0273L241.874 107.182L243.96 118.574H246.047L243.96 92.0273H237.457Z" fill="#C1E7F7"/>
<path d="M235.44 92.0273C235.753 99.8982 235.613 104.213 235.544 104.904C235.474 105.629 235.092 110.427 232.414 118.816H234.605C238.152 110.772 239.404 105.974 239.786 104.904C240.169 103.834 241.386 99.553 243.16 92.0273H235.44Z" fill="#C1E7F7"/>
<path d="M237.352 92.0273C238.499 97.24 240.516 105.56 243.333 117.021H246.393C246.637 105.283 245.663 97.5507 243.994 92.0273H237.352Z" fill="#317FDD"/>
<path d="M235.441 92.0273C235.754 99.8982 234.954 107.665 232.52 117.124H235.788C239.336 109.184 241.874 101.486 243.613 92.0273H235.441Z" fill="#4390DD"/>
<path d="M232.137 120.37L232.241 118.437C232.937 118.644 233.841 118.575 234.884 118.195C236.032 118.989 237.457 119.542 239.196 119.818C239.335 119.852 239.405 119.956 239.405 120.094C239.405 120.094 239.405 120.094 239.405 120.128L239.231 120.715H234.919H232.38L232.137 120.37Z" fill="#0B45B7"/>
<path d="M243.508 120.37L243.612 118.437C244.308 118.644 245.212 118.575 246.255 118.195C247.403 118.989 248.828 119.542 250.567 119.818C250.706 119.852 250.776 119.956 250.776 120.094C250.776 120.094 250.776 120.094 250.776 120.128L250.602 120.715H246.29H243.751L243.508 120.37Z" fill="#0B45B7"/>
<path d="M239.161 74.3175C238.604 73.6616 238.222 72.8676 238.291 71.9701C238.465 69.4155 242.082 69.9678 242.777 71.2451C243.473 72.5569 243.403 75.8364 242.499 76.0781C242.152 76.1817 241.352 75.94 240.587 75.4912L241.073 78.9433H238.152L239.161 74.3175Z" fill="#C1E7F7"/>
<path d="M238.952 74.9044C238.604 73.2819 237.561 72.2117 237.7 71.4868C237.805 71.0035 238.083 70.6928 238.535 70.5892C238.778 69.6226 239.543 69.2429 240.83 69.381C242.777 69.5881 243.96 70.3821 243.438 72.1427C242.986 72.1427 242.395 71.9701 241.63 72.2462C241.386 72.3498 241.213 72.626 241.108 73.1093H240.76C240.413 72.5569 240.065 72.3498 239.752 72.4879C239.439 72.626 239.335 73.0057 239.509 73.5926L239.335 74.9044H238.952Z" fill="#0B45B7"/>
<path d="M248.548 88.1264L251.991 91.4404C252.999 91.8547 253.799 92.338 254.46 92.8558C254.599 93.0284 254.773 93.3391 254.077 93.201C253.417 93.0629 252.686 92.9248 252.547 93.132C252.408 93.3391 252.791 93.6843 252.547 93.9605C252.408 94.1676 251.852 93.5462 250.982 92.1654L247.401 90.0941L248.548 88.1264ZM231.786 85.123H234.429C232.412 91.613 231.334 95.0306 231.23 95.3068C230.952 95.9972 231.543 97.0328 231.786 97.6197C230.952 97.9994 231.056 96.6186 230.013 97.1019C229.074 97.5507 228.344 98.3447 227.231 97.6542C227.092 97.5852 226.953 97.2745 227.3 97.0328C228.204 96.4115 229.491 95.3758 229.63 95.0306C229.908 94.5473 230.604 91.2678 231.786 85.123Z" fill="#C1E7F7"/>
<path d="M239.855 77.6667L240.899 77.4941C242.533 83.2937 251.018 87.2291 251.54 89.3694C251.714 90.1634 251.158 90.5777 251.436 90.8193L250.079 91.8204C249.836 91.5443 249.349 92.0275 248.341 91.7169C247.332 91.3371 239.855 84.5019 239.855 77.6667Z" fill="#031F70"/>
<path d="M241.629 78.4261C241.524 86.0898 245.976 88.0229 244.967 91.0953C244.133 93.6499 236.308 96.3771 234.952 93.857C234.395 92.8559 234.152 91.6477 234.117 90.3013C233.769 91.3024 233.491 92.2 233.283 92.9249C232.935 94.2022 231.579 94.4094 231.579 94.8926L229.805 94.4094C229.909 93.7535 229.075 93.4082 229.318 91.9584C230.327 85.3303 233.039 80.5318 237.456 77.5285L237.49 76.8726C237.525 76.5964 237.734 76.4238 238.012 76.4238L241.281 76.6655C241.559 76.7 241.733 76.9071 241.733 77.1833L241.629 78.4261Z" fill="#073199"/>
<path d="M270.008 73.833C270.008 75.4555 271.051 76.8708 272.616 77.7684C272.964 77.9755 272.755 79.2183 272.825 79.4254C272.894 79.6325 274.216 78.4243 274.459 78.4933C275.085 78.6314 275.746 78.735 276.407 78.735C279.954 78.735 282.805 76.5601 282.805 73.8675C282.805 71.1748 279.954 69 276.407 69C272.859 69 270.008 71.1403 270.008 73.833Z" fill="#C1E7F7"/>
<path d="M280.058 96.893C280.788 96.3752 281.449 96.03 282.075 95.8574C283.257 95.5121 283.744 95.2705 284.335 94.5456C284.648 94.1658 284.892 93.3718 284.613 93.0957C284.405 92.9231 283.257 93.7861 282.77 93.8897C282.283 93.9932 282.736 92.854 282.492 92.9921C282.179 92.9921 281.901 93.4409 281.658 94.3384L279.988 95.236L280.058 96.893Z" fill="#4390DD"/>
<path d="M266.844 101.863L272.095 115.706L275.816 125.89H277.902L272.825 101.863H266.844Z" fill="#CE3A5E"/>
<path d="M265.556 101.863C265.486 106.592 265.556 113.013 265.417 113.289C265.312 113.496 262.565 115.74 257.105 120.021L258.184 121.85C264.652 117.708 268.025 115.36 268.373 114.808C268.86 113.98 271.363 106.385 272.65 101.828H265.556V101.863Z" fill="#F24C64"/>
<path d="M255.185 121.287L257.008 119.904L258.484 121.649C258.592 122.957 259.03 124.441 259.798 126.1L259.452 126.388L256.768 123.214L256.011 121.996L255.851 122.129L255.185 121.287Z" fill="#F7C1C9"/>
<path d="M275.605 127.857L275.71 125.578H278.005C279.083 126.338 280.509 126.959 282.282 127.442V127.857H278.109L276.684 127.649V127.857H275.605Z" fill="#F7C1C9"/>
<path d="M269.833 85.8807C269.312 85.2938 268.999 84.5689 269.034 83.7749C269.207 81.462 272.476 81.9453 273.102 83.119C273.728 84.2927 273.659 87.2616 272.824 87.4687C272.511 87.5377 271.816 87.3306 271.085 86.9163L271.537 90.0578H268.895L269.833 85.8807Z" fill="#4390DD"/>
<path d="M272.061 81.8422C271.713 81.7387 271.191 81.7041 270.948 81.7387C271.087 81.428 271.122 81.1173 271.087 80.8066C271.052 80.4959 270.913 80.2197 270.774 79.9436C270.704 79.8055 270.635 79.7019 270.531 79.5984C270.426 79.4948 270.287 79.4257 270.148 79.3912C270.009 79.3567 269.87 79.3567 269.731 79.3912C269.661 79.3912 269.626 79.4257 269.557 79.4603C269.487 79.4603 269.453 79.4257 269.418 79.3912C269.313 79.2877 269.14 79.2531 269 79.2186C268.861 79.1841 268.688 79.2186 268.548 79.2877C268.409 79.3222 268.27 79.4257 268.166 79.5293C268.131 79.5984 268.062 79.6329 268.062 79.7019C268.062 79.7364 268.062 79.7364 268.027 79.771C267.992 79.771 267.957 79.771 267.957 79.8055C267.714 79.8745 267.505 80.0816 267.366 80.3233C267.296 80.4614 267.262 80.703 267.262 81.0137C267.262 81.3244 267.54 82.0148 267.749 82.291C267.957 82.5327 268.27 82.6707 268.583 82.7398C268.375 82.9814 268.235 83.2576 268.166 83.5338C268.062 83.8445 267.992 84.1897 267.957 84.5004C267.922 84.811 267.922 85.1563 267.992 85.4669C268.062 85.7431 268.201 85.9848 268.479 86.1574C268.583 86.2264 268.722 86.2955 268.827 86.33C268.966 86.3645 269.07 86.4335 269.209 86.4335C269.453 86.4681 269.731 86.4681 269.905 86.2955C269.974 86.2264 270.044 86.1228 270.079 86.0538C270.113 86.0193 270.113 86.0193 270.079 85.9848C270.044 85.9502 270.009 85.9157 269.974 85.8812C269.8 85.7086 269.661 85.5015 269.626 85.2598C269.592 85.0182 269.661 84.673 269.905 84.5694C270.218 84.4313 270.565 84.6039 270.809 84.742C270.913 84.3278 271.157 83.9825 271.539 83.7754C271.956 83.5683 272.443 83.5338 272.861 83.3612C272.965 83.3266 273.069 83.2576 273.174 83.154C273.208 83.1195 273.243 83.0505 273.278 83.0159C273.313 82.9469 273.243 82.8779 273.208 82.8433C273.104 82.5327 272.408 81.9458 272.061 81.8422Z" fill="#02184C"/>
<path d="M273.801 92.6109L277.591 90.5397C278.217 89.7802 278.843 89.2279 279.469 88.8136C279.643 88.7446 279.991 88.6755 279.678 89.2279C279.365 89.7802 279.087 90.3671 279.226 90.5051C279.365 90.6778 279.782 90.4361 279.956 90.7123C280.095 90.8849 279.4 91.1956 277.974 91.5753L275.227 94.0953L273.801 92.6109Z" fill="#4390DD"/>
<path d="M271.959 92.1621C273.28 92.1621 275.054 91.886 276.967 90.6777L277.697 92.3348C276.376 93.612 274.567 94.6822 272.933 94.6477C271.681 94.5786 271.055 93.0597 271.959 92.1621Z" fill="#0B45B7"/>
<path d="M273.765 94.7864C275.191 95.1316 277.555 94.7173 280.859 93.5436C281.694 95.2351 282.076 96.4434 282.007 97.1683C279.155 98.6527 276.721 99.3086 274.704 99.3432C274.773 100.517 274.634 101.656 274.147 102.692C273.139 104.798 267.262 102.864 265.28 103.244C264.028 99.2396 266.427 97.6171 266.427 95.0625C266.427 92.2663 268.688 87.9512 269.035 87.9512H272.061C272.2 90.126 273.069 92.4734 273.765 94.7864Z" fill="#1159CC"/>
<path d="M278.91 92.1286L283.431 92.6464C283.535 92.2321 284.544 86.329 284.544 86.329L279.919 85.8457C279.919 85.8457 279.675 87.3301 279.432 88.849C279.397 89.0216 279.362 89.1943 279.362 89.3669C279.327 89.5049 279.327 89.643 279.293 89.7811C279.293 89.8502 279.258 89.9192 279.258 89.9882C279.223 90.0918 279.223 90.1954 279.223 90.2989C279.223 90.3335 279.223 90.368 279.223 90.4025C279.223 90.437 279.258 90.5061 279.293 90.5406C279.432 90.7132 279.849 90.4715 280.023 90.7477C280.127 90.8858 279.78 91.0584 279.049 91.3C278.98 91.7143 278.91 92.025 278.91 92.1286Z" fill="#F2F2F2"/>
<path d="M220.832 104.867L224.866 118.676L226.779 129.067H228.691L226.779 104.867H220.832Z" fill="#317FDD"/>
<path d="M219.025 104.867C219.303 112.048 219.198 115.948 219.129 116.604C219.059 117.26 218.712 121.61 216.277 129.274H218.26C221.494 121.955 222.607 117.571 222.989 116.604C223.372 115.638 224.45 111.737 226.049 104.867H219.025Z" fill="#317FDD"/>
<path d="M220.766 104.867C221.809 109.631 223.617 117.226 226.225 127.617H229.007C229.216 116.915 228.347 109.873 226.817 104.867H220.766Z" fill="#0B45B7"/>
<path d="M219.026 104.867C219.304 112.048 218.574 119.124 216.383 127.755H219.373C222.608 120.54 224.938 113.497 226.502 104.867H219.026Z" fill="#1159CC"/>
<path d="M216 130.688L216.104 128.928C216.73 129.1 217.53 129.031 218.504 128.721C219.547 129.446 220.834 129.963 222.433 130.205C222.538 130.24 222.642 130.343 222.607 130.447C222.607 130.447 222.607 130.447 222.607 130.481L222.468 130.999H218.539H216.243L216 130.688Z" fill="#073199"/>
<path d="M226.363 130.688L226.468 128.928C227.094 129.1 227.893 129.031 228.867 128.721C229.91 129.446 231.197 129.963 232.797 130.205C232.901 130.24 233.005 130.343 232.971 130.447C232.971 130.447 232.971 130.447 232.971 130.481L232.832 130.999H228.902H226.607L226.363 130.688Z" fill="#073199"/>
<path d="M223.439 87.883C222.917 87.2961 222.604 86.5712 222.639 85.7426C222.813 83.3952 226.082 83.913 226.743 85.0867C227.369 86.2605 227.299 89.2638 226.464 89.4709C226.151 89.54 225.421 89.3328 224.726 88.9186L225.178 92.06H222.5L223.439 87.883Z" fill="#317FDD"/>
<path d="M227.892 83.4635C227.822 83.2563 227.683 83.1183 227.474 83.0492C227.44 83.0492 227.37 83.0492 227.335 83.0492C227.3 83.0492 227.3 83.0492 227.3 83.0492V83.0147C227.3 82.9802 227.266 82.9456 227.266 82.9111C227.231 82.8076 227.161 82.704 227.057 82.635C226.883 82.4969 226.675 82.3933 226.466 82.3588C226.362 82.3588 226.222 82.3588 226.118 82.3933C226.049 82.4278 226.014 82.4278 225.944 82.4624C225.944 82.4624 225.875 82.4969 225.84 82.4969C225.805 82.4969 225.77 82.4623 225.77 82.4278C225.596 82.2897 225.353 82.2207 225.11 82.2207C224.831 82.2207 224.588 82.2207 224.379 82.3933C224.345 82.4278 224.275 82.4624 224.24 82.4969C224.205 82.5314 224.205 82.5314 224.171 82.5659L224.136 82.6004C224.101 82.635 224.136 82.635 224.101 82.6004C223.997 82.5314 223.858 82.4969 223.753 82.5314C223.684 82.5314 223.614 82.5659 223.545 82.6004C223.51 82.6004 223.475 82.635 223.44 82.635C223.406 82.635 223.371 82.6004 223.336 82.6004C223.197 82.5659 223.058 82.5314 222.919 82.5659C222.78 82.6004 222.641 82.635 222.501 82.7385C222.432 82.773 222.397 82.8076 222.362 82.8766C222.328 82.9111 222.328 82.9111 222.293 82.9456L222.258 82.9802L222.084 82.9111C222.015 82.8766 221.91 82.9111 221.841 82.9111C221.702 82.9456 221.562 83.0837 221.458 83.1873C221.389 83.2563 221.354 83.3254 221.319 83.3944C221.284 83.4289 221.284 83.4635 221.25 83.498C221.25 83.498 221.25 83.5325 221.215 83.567C221.215 83.6015 221.18 83.6015 221.18 83.6015C221.041 83.6361 220.937 83.7051 220.867 83.8087C220.763 83.9122 220.728 84.0158 220.693 84.1539V84.1884H220.658C220.624 84.1884 220.589 84.1884 220.554 84.1884C220.484 84.1884 220.45 84.2229 220.38 84.2574C220.171 84.361 219.998 84.5681 219.928 84.7753C219.858 85.0169 219.858 85.2586 219.928 85.5002C219.928 85.5347 219.963 85.5693 219.998 85.6038C219.998 85.6383 219.998 85.6383 219.998 85.6383C219.998 85.6728 219.963 85.6728 219.963 85.7073C219.928 85.7764 219.893 85.8799 219.893 85.949C219.858 86.0871 219.858 86.2252 219.893 86.3632C219.893 86.4323 219.928 86.5013 219.963 86.5358C219.963 86.5704 219.998 86.6049 220.032 86.6049L220.067 86.6394C220.067 86.6394 220.067 86.6394 220.102 86.6739C220.102 86.7085 220.137 86.6739 220.102 86.7085C220.102 86.743 220.067 86.7775 220.067 86.812C220.067 86.8465 220.032 86.8811 220.032 86.9156C219.998 86.9846 219.998 87.0882 219.963 87.1572C219.928 87.3298 219.928 87.5024 220.032 87.6405C220.067 87.7096 220.102 87.7441 220.171 87.8131C220.206 87.8476 220.241 87.8476 220.276 87.8822C220.276 87.8822 220.311 87.8822 220.311 87.9167C220.311 87.9167 220.311 87.9512 220.311 87.9857C220.276 88.1583 220.276 88.3309 220.311 88.469C220.345 88.6071 220.45 88.7452 220.589 88.8488C220.832 89.0214 221.18 89.0214 221.423 88.8833C221.493 88.8488 221.563 88.8142 221.597 88.7452C221.736 88.9523 222.049 88.9178 222.258 88.8833C222.536 88.8142 222.745 88.6416 222.849 88.4C223.023 88.6071 223.371 88.5381 223.475 88.3309C223.51 88.2619 223.51 88.2274 223.545 88.1583C223.545 88.1238 223.545 88.0893 223.545 88.0548C223.545 88.0203 223.579 87.9857 223.579 87.9512C223.614 87.8822 223.614 87.8131 223.614 87.7096C223.614 87.675 223.614 87.6405 223.614 87.5715C223.614 87.537 223.614 87.5024 223.614 87.4679C223.545 87.4679 223.475 87.4679 223.406 87.4334C223.336 87.3989 223.301 87.3644 223.232 87.3298C223.127 87.2263 223.058 87.0882 223.023 86.9501C222.919 86.6394 222.954 86.2942 223.266 86.1216C223.406 86.0526 223.858 86.0525 224.032 86.0871C224.205 86.1216 224.414 86.5358 224.414 86.5704C224.414 86.6049 224.414 86.6049 224.449 86.6394C224.484 86.6739 224.588 86.6049 224.623 86.5704C224.692 86.5358 224.727 86.4668 224.762 86.3978C224.831 86.2597 224.901 86.0871 224.936 85.949C224.97 85.8109 225.005 85.7073 225.04 85.5693C225.075 85.4657 225.144 85.3276 225.283 85.2586C225.423 85.1895 225.562 85.155 225.666 85.086C225.805 85.0514 225.944 84.9824 226.049 84.8788C226.083 84.8443 226.083 84.8443 226.118 84.8098C226.118 84.7753 226.153 84.7407 226.153 84.7407C226.188 84.7062 226.222 84.7753 226.257 84.7753C226.396 84.8788 226.535 84.9824 226.605 85.1205C226.709 85.2586 226.779 85.3966 226.848 85.5347C226.883 85.6383 226.918 85.8109 227.022 85.8799C227.057 85.9145 227.335 85.949 227.44 85.9145C227.544 85.8799 227.648 85.7764 227.648 85.7073C227.683 85.6383 227.683 85.5693 227.683 85.5002C227.683 85.4657 227.648 85.4312 227.648 85.3966C227.648 85.3621 227.648 85.3276 227.613 85.2931C227.579 85.224 227.544 85.1895 227.474 85.1895C227.544 85.1205 227.579 85.0514 227.613 84.9824C227.648 84.9134 227.683 84.8098 227.683 84.7062C227.683 84.6372 227.683 84.5681 227.648 84.4991C227.613 84.4301 227.544 84.3955 227.474 84.361C227.579 84.292 227.648 84.1884 227.718 84.0848C227.892 83.9468 227.961 83.7051 227.892 83.4635Z" fill="#C1E7F7"/>
<path d="M226.848 93.4755L230.673 91.4043C231.299 90.6448 231.925 90.0579 232.551 89.6437C232.725 89.5746 233.072 89.5056 232.759 90.0579C232.447 90.6103 232.134 91.1971 232.307 91.3697C232.481 91.5423 232.864 91.3007 233.038 91.5769C233.177 91.7495 232.481 92.0602 231.021 92.4399L228.239 94.9599L226.848 93.4755Z" fill="#317FDD"/>
<path d="M224.762 93.1641C226.119 93.1641 227.892 92.8534 229.805 91.6797L230.57 93.3367C229.249 94.6485 227.405 95.6841 225.771 95.6496C224.484 95.6151 223.858 94.0962 224.762 93.1641Z" fill="#C1E7F7"/>
<path d="M239.44 87.6066C237.701 87.2268 235.997 86.7435 234.293 86.2948C234.084 86.2257 233.215 85.8805 233.076 85.9841C233.076 85.9841 232.936 86.8816 232.902 87.1233C232.832 87.9863 232.693 88.8148 232.554 89.6778C232.45 90.2647 232.38 90.7825 232.345 91.0587C232.345 91.1277 232.311 91.1623 232.311 91.1968C232.311 91.2658 232.311 91.3349 232.345 91.3694C232.519 91.542 232.902 91.3003 233.076 91.5765C233.18 91.7146 232.797 91.9217 231.893 92.1979C231.441 93.3026 229.772 95.65 229.633 95.8571C230.954 96.444 232.276 96.9963 233.562 97.5832C233.875 97.7213 235.823 98.6533 236.171 98.5498C236.518 98.4462 237.04 97.4106 237.318 96.8237C237.979 95.4429 238.501 93.9585 238.848 92.4741C238.953 92.0598 239.752 87.7101 239.44 87.6066Z" fill="#97D2F2"/>
<path d="M233.633 96.6173L235.302 95.6852C235.545 94.7877 235.824 94.3389 236.137 94.3389C236.38 94.2353 235.963 95.34 236.415 95.2364C236.902 95.1329 238.049 94.2699 238.258 94.4425C238.571 94.6841 238.293 95.4781 237.98 95.8923C237.389 96.6173 236.902 96.8935 235.719 97.2041C235.093 97.3768 234.433 97.722 233.702 98.2398L233.633 96.6173Z" fill="#317FDD"/>
<path d="M227.303 97.0311C228.728 97.3763 231.128 96.9621 234.466 95.7884C235.301 97.4799 235.683 98.7227 235.614 99.4476C232.728 100.932 230.293 101.588 228.241 101.657C228.311 102.865 228.172 104.004 227.65 105.04C226.642 107.18 220.695 105.213 218.713 105.592C217.461 101.553 219.861 99.9309 219.895 97.3763C219.895 94.5456 222.191 90.2305 222.504 90.2305H225.564C225.772 92.3363 226.607 94.6837 227.303 97.0311Z" fill="#D6EEFC"/>
<path d="M293.133 77.2844C293.133 80.2878 296.506 82.7388 300.644 82.7388C303.253 82.7388 305.513 81.7722 306.869 80.3223C307.147 80.0461 309.721 79.9426 309.408 79.7354C308.921 79.3902 307.878 78.7343 307.982 78.3891C308.086 78.0439 308.121 77.6642 308.121 77.2844C308.121 74.2811 304.748 71.8301 300.61 71.8301C296.506 71.8301 293.133 74.2466 293.133 77.2844Z" fill="#C1E7F7"/>
<path d="M320.223 95.3398L315.494 111.737L312.086 123.82H309.582L313.233 95.3398H320.223Z" fill="#191847"/>
<path d="M321.476 95.3398C321.58 103.798 321.963 108.389 322.067 109.148C322.171 109.908 323.91 114.81 327.248 123.785H324.64C320.398 115.155 317.998 110.288 317.511 109.148C317.024 108.009 315.494 103.418 313.199 95.3398H321.476Z" fill="#2F3676"/>
<path d="M327.491 126.132L327.352 123.439H324.64C323.353 124.337 321.649 125.062 319.562 125.614V126.132H324.501L326.205 125.89V126.132H327.491Z" fill="#191847"/>
<path d="M312.433 126.132L312.294 123.439H309.581C308.294 124.337 306.59 125.062 304.504 125.614V126.132H309.442L311.146 125.89V126.132H312.433Z" fill="#191847"/>
<path d="M317.822 79.9791C318.413 79.2886 318.831 78.4256 318.761 77.459C318.552 74.6973 314.692 75.3187 313.962 76.6995C313.197 78.0804 313.301 81.6361 314.275 81.8777C314.657 81.9813 315.492 81.7396 316.327 81.2218L315.805 84.9156H318.935L317.822 79.9791Z" fill="#073199"/>
<path d="M316.155 77.7689C316.051 79.4259 315.738 80.2544 315.216 80.2544C314.451 80.2544 313.791 79.7711 313.478 79.7711C313.234 79.7711 313.304 80.0818 313.443 80.2889C313.582 80.4615 314.243 80.6686 314.243 80.9448C314.243 81.221 313.721 81.0139 313.721 81.1865C313.721 81.4626 313.617 82.015 314.138 82.015C314.625 82.015 316.086 81.8424 316.329 81.0829C316.503 80.5996 316.607 79.633 316.642 78.1141C316.677 78.1141 316.712 78.1141 316.746 78.1141C317.164 78.1141 317.511 78.4593 317.511 78.8735C317.511 79.0807 317.407 79.2878 317.268 79.4259C317.442 79.6675 317.651 79.9437 317.894 80.2199C318.763 79.7021 319.528 78.1831 318.694 76.7332C318.45 76.0083 317.79 75.6286 317.164 75.4559C316.642 75.2488 316.12 75.2143 315.668 75.3524C314.799 75.4214 313.999 75.6976 313.791 75.8357C313.791 76.6642 313.964 76.9058 315.321 76.8713C315.634 77.0784 315.877 77.3891 316.155 77.7689Z" fill="#02184C"/>
<path d="M308.541 92.4068L304.368 90.7844C302.559 90.957 301.725 90.9224 301.76 90.6463C301.864 90.2665 302.385 90.3356 302.49 90.0939C302.594 89.8523 302.003 89.2999 301.447 88.8512C300.855 88.3679 301.273 88.2988 301.516 88.2988C302.385 88.506 303.324 88.8857 304.333 89.438L309.445 90.1285L308.541 92.4068ZM329.267 101.935C329.441 102.314 330.832 103.454 331.771 104.11C332.153 104.386 331.979 104.696 331.84 104.8C330.658 105.525 329.893 104.662 328.884 104.213C327.772 103.695 327.876 105.145 326.972 104.765C327.25 104.144 327.876 103.039 327.563 102.28C327.424 101.935 325.789 98.31 322.694 91.3367H325.546C327.772 97.8612 329.024 101.417 329.267 101.935Z" fill="#073199"/>
<path d="M317.756 82.3613L315.531 82.4994C314.974 87.4359 311.983 90.5428 305.306 89.4727L304.402 95.8246C310.662 96.6186 316.122 94.133 317.235 87.4359C317.582 85.6754 317.791 83.8803 317.756 82.3613Z" fill="#CE3A5E"/>
<path d="M318.87 81.7051L315.497 82.4645C315.497 88.2296 313.654 91.8888 312.715 96.1349H321.826C321.965 97.5848 322.035 99.1037 322.069 100.657H328.885C327.355 92.5102 324.086 86.1928 319.114 81.7051H318.87Z" fill="#F24C64"/>
<path d="M320.367 87.9199C320.61 91.5101 320.471 94.2373 319.949 96.136H321.792C321.549 93.2362 321.097 90.509 320.367 87.9199Z" fill="#CE3A5E"/>
</g>
<defs>
<clipPath id="clip0">
<rect width="360" height="280" fill="white"/>
</clipPath>
</defs>
</svg>
