<svg width="360" height="280" viewBox="0 0 360 280" fill="none" xmlns="http://www.w3.org/2000/svg">
<g clip-path="url(#clip0)">
<rect width="360" height="280" fill="#EDC4FC"/>
<path d="M464.071 7H-4.22656V80.7278H464.071V7Z" fill="#EDC4FC"/>
<path d="M-7.58072 83.203C-6.3874 71.3665 6.44884 84.4286 8.77098 88.4923C8.19044 85.3961 10.3191 82.6225 13.7378 84.1383C15.5439 84.9446 17.5757 90.6209 18.0595 91.4917C18.253 87.7183 24.6389 83.4933 28.4446 84.6221C31.4118 85.5251 32.5084 89.2986 33.6049 91.9755C33.6049 92.3303 33.5727 92.3303 33.5404 91.9432C41.4421 84.3641 47.0862 93.1688 47.7313 93.0076C48.6988 92.7495 52.9883 88.3633 57.3101 91.3305C59.2774 92.685 60.245 94.2009 61.0513 96.7165C60.374 89.7179 71.4364 82.5902 77.8223 84.1383C83.8856 85.6219 85.9497 92.5883 88.2719 97.5228C88.7234 90.0404 95.077 95.0072 96.8509 98.1356C99.3665 93.9429 102.85 97.5551 103.753 99.716C104.817 84.6866 130.038 93.9106 129.812 105.876C124.039 105.618 118.363 107.714 112.751 108.875C96.7219 112.23 80.1121 114.294 63.8895 115.906C47.4087 117.519 29.3477 120.035 13.4153 114.455C5.77156 111.778 -1.61413 108.069 -8 104.005" fill="#DC8FEF"/>
<path d="M0.00195312 104.5C0.00195312 104.316 141.184 100.566 152.183 99.5213C255.06 90.2455 357.936 51.7293 461.002 66.2266V237H0.00195312V104.5Z" fill="#C259D8"/>
<path d="M79.2304 168L78 152.636C131.601 148.306 187.893 142.435 255.144 134.025C323.894 125.448 392.76 124.74 459.895 131.818C460.741 131.901 461.587 131.985 462.433 132.068C473.507 133.275 483.965 134.4 494.078 131.735L498 146.641C485.157 149.972 472.776 148.639 460.818 147.348C459.972 147.265 459.165 147.182 458.319 147.099C392.375 140.145 324.663 140.853 257.105 149.264C189.585 157.758 133.1 163.67 79.2304 168Z" fill="#DC8FEF"/>
<path d="M280.848 39.6064C280.848 39.6064 275.978 38.8646 274.559 38.4453C274.559 38.4453 274.204 37.123 273.688 36.8327C273.172 36.5425 272.398 36.8005 272.108 37.0908C272.108 37.0908 272.076 35.6394 271.463 35.1879C270.882 34.7686 270.398 34.6396 269.947 34.6719C269.463 34.7041 268.657 35.1557 268.657 35.1557C268.657 35.1557 268.431 34.1558 267.657 33.6076C266.883 33.0593 266.367 33.3818 266.077 33.5753C265.819 33.7688 265.303 34.1558 265.303 34.1558C265.303 34.1558 263.432 31.5112 261.626 30.8662C259.82 30.2211 256.046 30.4146 254.66 31.3177C253.305 32.2207 252.563 32.8335 252.563 32.8335C252.563 32.8335 252.37 32.0595 251.596 31.8982C250.822 31.737 249.596 32.0272 249.241 32.511C248.886 33.027 248.661 33.3173 248.661 33.4141C248.628 33.4786 248.338 32.769 247.693 32.8335C247.016 32.898 246.403 33.156 246.177 33.4463C245.919 33.7366 245.758 33.8978 245.758 33.8978C245.758 33.8978 245.339 32.9948 244.532 33.156C243.726 33.3173 243.855 33.3818 243.242 33.8333C243.242 33.8333 242.533 33.4463 242.049 33.4786C241.565 33.5108 241.404 34.3171 241.404 34.3171C241.275 34.2849 240.565 33.5108 239.437 33.6398C238.308 33.7688 237.76 35.3169 237.76 35.3169C236.695 35.2847 236.695 35.1234 235.05 35.3492C233.373 35.5749 233.244 37.6713 232.986 37.5745C232.728 37.51 232.244 37.4133 231.503 37.7035C230.761 37.9616 230.987 38.7034 230.374 38.8324C229.761 38.9614 224.375 39.5742 224.375 39.5742H229.277C229.632 39.6709 230.019 39.7999 230.471 39.9289C231.406 40.2192 232.373 39.6064 233.244 39.8644C234.147 40.1224 234.502 40.832 235.76 40.7352C237.856 40.574 239.92 41.7995 241.985 41.348C242.662 41.1868 243.307 40.8642 244.016 40.7352C245.21 40.5095 246.371 40.9287 247.532 41.0255C248.532 41.1222 249.37 40.6385 250.338 40.574C251.467 40.5095 252.563 40.9287 253.66 41.1545C254.789 41.3803 255.982 41.3803 257.111 41.1545C258.272 40.9287 259.401 40.4772 260.594 40.5095C261.755 40.574 262.722 40.9287 263.755 40.2514C264.109 40.6707 264.625 40.7675 265.141 40.6062C265.561 40.4772 265.915 40.2515 266.335 40.1869C266.915 40.0902 267.496 40.316 268.109 40.3805C269.882 40.6062 272.43 40.0257 274.172 39.6709C274.559 39.5742 275.172 39.6064 275.688 39.5419H280.848V39.6064Z" fill="#DC8FEF"/>
<path opacity="0.57" d="M379.731 22.6741C379.731 22.6741 374.216 21.8355 372.603 21.3517C372.603 21.3517 372.184 19.8681 371.636 19.5456C371.055 19.2231 370.152 19.4811 369.862 19.8359C369.862 19.8359 369.797 18.191 369.152 17.675C368.475 17.1912 367.959 17.0622 367.411 17.0945C366.862 17.159 365.927 17.6428 365.927 17.6428C365.927 17.6428 365.669 16.5139 364.798 15.8689C363.927 15.2561 363.315 15.6109 363.024 15.8044C362.702 15.9979 362.154 16.4494 362.154 16.4494C362.154 16.4494 360.09 13.4823 358.025 12.7405C355.994 12.0309 351.672 12.2244 350.124 13.2565C348.576 14.2886 347.737 14.9659 347.737 14.9659C347.737 14.9659 347.511 14.0951 346.608 13.9015C345.737 13.708 344.318 14.0306 343.931 14.6111C343.544 15.1916 343.286 15.5464 343.254 15.6109C343.222 15.6754 342.899 14.9014 342.125 14.9659C341.383 15.0304 340.674 15.3206 340.384 15.6754C340.093 15.9979 339.9 16.1914 339.9 16.1914C339.9 16.1914 339.416 15.1916 338.513 15.3529C337.61 15.5464 337.739 15.6109 337.062 16.1269C337.062 16.1269 336.255 15.6754 335.707 15.7399C335.159 15.8044 334.998 16.7075 334.998 16.7075C334.836 16.643 334.03 15.8044 332.772 15.9334C331.514 16.0624 330.869 17.8363 330.869 17.8363C329.644 17.804 329.676 17.6105 327.805 17.8685C325.903 18.1265 325.774 20.4809 325.483 20.4164C325.193 20.3519 324.645 20.2229 323.806 20.5454C322.968 20.868 323.226 21.6742 322.516 21.8355C321.807 21.9968 315.711 22.6741 315.711 22.6741H321.774C322.806 22.7708 323.838 22.9321 324.935 23.0933C326.644 23.3513 328.386 22.8353 329.966 23.4804C331.611 24.1576 333.224 24.7059 335.062 24.8027C336.739 24.8994 338.029 23.9964 339.61 23.7706C341.061 23.5449 341.674 24.8994 343.19 25.1252C344.125 25.2542 346.221 24.7382 346.544 23.7706C347.898 25.2865 349.027 24.5447 350.607 24.1254C351.607 23.8674 351.833 24.1576 352.93 24.8027C354.284 25.5767 355.381 25.996 356.961 26.0605C360.057 26.2218 362.444 25.8992 364.992 24.0931C365.411 23.8029 366.056 23.0611 366.572 22.9321C367.185 22.7708 368.217 23.2223 368.894 23.3513C370.378 23.6094 371.281 23.2868 372.474 23.0933C372.894 23.0288 375.764 23.4159 376.086 22.6741H379.731Z" fill="white"/>
<path d="M28.8634 66.6896C27.1218 64.4319 26.9283 60.6262 27.7669 58.6911C28.6377 56.756 32.3144 56.627 32.3144 56.627C32.3144 56.627 31.7661 48.4028 36.8619 49.2736C41.9577 50.1444 39.4743 61.9163 39.4743 61.9163C39.4743 61.9163 44.5701 63.3354 44.3443 69.173C44.1186 75.0106 40.8934 76.1071 40.8934 76.1071C40.8934 76.1071 46.6342 78.913 44.8926 85.7504C43.7638 90.2334 41.1191 94.7487 36.0233 95.1357C32.8304 95.3938 29.6052 93.8779 27.5088 91.459C25.606 89.2336 24.2191 86.202 24.3482 83.1703C24.4772 80.2999 26.3155 78.0422 28.0249 75.9136C28.0894 75.8491 28.1216 75.7846 28.1539 75.6879C28.1539 75.5911 28.0894 75.4943 28.0249 75.4298C27.1541 74.4945 25.6705 74.301 25.7027 71.6241C25.7027 67.7861 29.0569 66.9476 28.8634 66.6896Z" fill="#77057A"/>
<path d="M42.1192 79.8489L38.1845 83.9772L38.0877 84.0417L37.9265 79.7522L37.7007 84.461L35.7333 86.4928L35.4431 73.1728L40.5711 66.9804L38.0877 69.5606L38.0232 67.0449L37.7007 69.9476L35.4108 72.302L35.1205 59.5625V70.5926V76.656L32.7339 74.0436L32.3791 70.1089L32.4114 73.6888L29.6055 70.5926L35.1205 77.5913V112.359L36.3139 112.552L35.7333 87.0734L42.1192 79.8489Z" fill="#D26EEA"/>
<path d="M31.1841 81.6224C31.0874 81.5256 31.0229 81.4289 30.9261 81.3644C29.7973 80.1388 27.2172 78.2682 27.4429 76.5266C27.6364 74.9463 28.7007 73.3014 29.0555 71.6888C29.7328 68.3991 29.507 64.6579 26.8624 62.3035C26.1206 61.6262 25.0563 61.0779 24.508 60.2394C23.9275 59.3041 24.25 58.8203 24.4112 57.8205C24.7338 55.7241 24.4757 53.3697 23.0567 51.6926C20.4765 48.6287 17.1868 49.0157 17.1868 49.0157C17.1868 49.0157 12.4135 48.7577 11.575 53.402C10.7042 58.0463 11.704 58.6591 11.704 58.6591C11.704 58.6591 6.83396 61.8197 6.31793 67.3348C5.8019 72.8499 7.28548 74.656 8.28529 76.3653C8.28529 76.3653 6.09216 79.913 5.22136 82.3642C4.35056 84.8153 4.1248 88.8468 5.83415 91.3947C7.76926 94.3296 11.5105 95.3294 14.8324 95.523C19.638 95.781 25.3465 96.2647 29.8296 94.1039C32.4742 92.8138 34.6351 90.1046 34.3448 87.1697C34.1191 85.0088 32.6677 83.235 31.1841 81.6224Z" fill="#AE41C4"/>
<path d="M27.9915 83.7184L21.2509 85.847L23.0247 82.0413L20.7994 86.0083L17.8644 86.9436V85.2665L17.9289 53.0469L17.6064 71.5917L15.5746 69.9469L15.1553 66.2701L15.1875 69.6243L11.4141 66.4959L17.5742 72.2045L16.8001 116.648L17.7999 116.777L17.8644 87.5564L27.9915 83.7184Z" fill="#DC8FEF"/>
<path d="M46.2793 122.195C46.2793 122.195 45.1505 114.261 40.0547 113.132C40.0547 113.132 42.2801 100.586 36.894 100.489C31.5079 100.392 28.831 110.197 28.831 110.197C28.831 110.197 24.6705 109.455 22.7032 115.841C22.7032 115.841 17.1236 112.68 10.1572 122.098C9.64115 122.324 11.028 123.227 11.2537 123.323C12.2858 123.775 13.7694 123.743 14.8337 123.581C15.2852 123.517 16.2205 123.001 16.6721 123.098C17.0591 123.162 17.2203 123.581 17.5106 123.807C17.9944 124.226 18.5749 124.452 19.1555 124.71C21.1873 125.581 24.0255 125.549 26.1864 125.355C27.0249 125.258 27.8312 124.936 28.6053 124.613C29.5728 124.162 29.9598 124.388 31.0564 124.678C32.3142 125 34.0236 124.871 35.2169 124.388C35.7329 124.162 36.3457 123.646 36.8617 123.517C37.8293 123.259 39.0226 123.968 40.0869 124.001C40.99 124.033 41.7963 123.968 42.6671 123.775C43.6346 123.549 44.3764 123.194 45.215 122.807C45.731 122.582 46.0213 122.42 46.0858 122.227H46.2793V122.195Z" fill="#AE41C4"/>
<path d="M42.4749 115.453L42.2814 115.195L34.4119 121.613L37.1856 106.068L36.8631 106.003L34.8312 117.421L32.4768 104.133L32.1543 104.197L34.6699 118.356L33.6701 123.968L33.9604 124.032L34.3152 122.097L42.4749 115.453Z" fill="#E1ADF2"/>
<path d="M26.1562 112.034L26.7045 124.032L27.027 124L26.4788 112.002L26.1562 112.034Z" fill="#E1ADF2"/>
<path d="M16.6738 117.775L18.0929 124.065L18.3832 123.968L16.9641 117.711L16.6738 117.775Z" fill="#E1ADF2"/>
<path d="M302.456 18.2561C301.328 17.9336 300.166 17.9013 299.07 18.2561C295.361 19.4494 295.619 24.3194 295.393 27.4801C293.007 27.5769 291.136 28.3187 290.523 30.8988C290.233 32.2211 290.846 33.995 291.329 35.4463C291.329 35.4463 289.717 37.0267 289.04 38.22C287.911 40.1551 288.33 42.7353 289.652 44.5414C291.362 46.8958 294.2 48.0891 296.941 48.7986C304.004 50.6047 314.454 49.8952 316.131 41.0259C316.712 37.9942 314.744 36.3494 312.164 35.4463C312.067 35.4141 311.938 35.3818 311.906 35.2851C311.842 35.1883 311.874 35.0593 311.906 34.9303C312.132 33.995 312.519 33.1242 312.648 32.1566C312.777 31.0278 312.422 29.8345 311.68 28.9637C310.584 27.6414 309.1 27.4801 307.52 27.2866C307.391 27.2544 307.455 23.4486 307.359 23.0294C307.004 21.3523 305.714 19.9009 304.23 19.0301C303.617 18.6754 303.069 18.4173 302.456 18.2561Z" fill="#77057A"/>
<path d="M310.65 39.8331L301.651 43.5421L301.168 23.5137L301.232 34.7051L296.523 32.0604L301.232 35.2856L301.426 70.5369H302.264L301.651 44.0904L310.65 39.8331Z" fill="#500456"/>
<path d="M280.526 16.6431C279.849 16.7398 279.171 17.0946 278.429 17.7074C274.495 21.0293 272.753 27.2217 271.463 31.5434C269.947 36.6392 269.334 41.993 270.496 47.1211C271.463 51.4428 274.334 55.2486 280.107 55.4421C288.234 55.7323 291.104 49.2175 291.524 43.7024C291.943 38.1551 291.104 32.5432 289.169 27.2862C288.234 24.7705 285.267 15.8368 280.526 16.6431Z" fill="#AE41C4"/>
<path d="M285.267 42.832L281.526 45.9604L281.3 31.0601L283.719 28.5444L281.268 30.7053L281.139 21.707L281.01 37.962L277.043 32.7372L281.01 38.9295L280.72 76.6642H281.978L281.526 46.8312L285.267 42.832Z" fill="#DC8FEF"/>
<path d="M319.873 14.4503C319.325 14.547 318.744 14.805 318.164 15.3211C314.938 18.0302 313.519 23.126 312.455 26.6415C311.197 30.8342 310.713 35.1882 311.649 39.4132C312.455 42.9609 314.777 46.0571 319.518 46.2184C326.162 46.4441 328.516 41.1226 328.839 36.6073C329.161 32.0598 328.516 27.48 326.904 23.1583C326.162 21.1264 323.743 13.8052 319.873 14.4503Z" fill="#DC8FEF"/>
<path d="M320.679 39.1558L320.486 25.9648L320.357 18.6113L320.26 31.8991V32.7054L320.002 63.6027L321.034 63.5704L320.679 39.1558Z" fill="#AE41C4"/>
<path d="M309.229 72.7933C309.196 71.9225 308.842 70.9227 308.616 70.4067C308.293 69.5681 307.874 68.7618 307.294 68.0845C307.003 67.7298 306.681 67.4395 306.294 67.1815C306.197 67.117 305.036 66.5687 305.036 66.6332C305.036 66.6332 306.552 58.0865 302.875 58.0219C299.198 57.9574 297.392 64.6336 297.392 64.6336C297.392 64.6336 294.554 64.1176 293.232 68.4716C293.296 68.2135 291.264 68.149 291.135 68.149C288.458 68.3748 286.459 70.5034 284.878 72.4708C284.814 72.5675 284.717 72.6643 284.685 72.7611C284.62 72.9868 284.749 73.2126 284.911 73.3416C285.814 74.1156 287.201 74.4704 288.362 74.4382C288.813 74.4382 289.265 74.2446 289.716 74.2446C290.135 74.2446 290.523 74.5994 290.877 74.7929C291.329 75.0509 291.78 75.2445 292.264 75.4057C293.264 75.7282 294.328 75.8895 295.393 75.9862C296.296 76.083 297.199 76.1475 298.102 75.954C299.037 75.7605 299.65 75.1477 300.521 74.8252C301.327 74.5349 302.23 75.4057 303.004 75.567C304.326 75.8572 305.649 75.5347 306.681 74.6639C307.1 74.3092 307.487 74.4382 308.003 74.4059C309.035 74.4059 309.293 73.6641 309.229 72.7933Z" fill="#500456"/>
<path d="M302.941 62.0547L300.748 74.4717" stroke="#CF53E5" stroke-width="0.322519" stroke-miterlimit="10"/>
<path d="M299.715 60.7324L301.424 70.5692" stroke="#CF53E5" stroke-width="0.322519" stroke-miterlimit="10"/>
<path d="M306.584 68.4727L300.973 73.1169" stroke="#CF53E5" stroke-width="0.322519" stroke-miterlimit="10"/>
<path d="M295.619 66.1816L296.006 75.6314" stroke="#CF53E5" stroke-width="0.322519" stroke-miterlimit="10"/>
<path d="M289.17 70.1484L290.137 74.4702" stroke="#CF53E5" stroke-width="0.322519" stroke-miterlimit="10"/>
<path d="M289.814 69.6657C288.008 65.8278 285.073 68.0854 285.073 68.0854C283.589 63.2153 280.299 67.0533 280.299 67.0533C280.299 67.0533 278.526 60.6352 274.397 60.6997C270.301 60.7642 271.978 70.343 271.978 70.343C266.496 70.8913 267.108 76.4386 267.205 77.1804C267.399 78.6318 269.43 78.8575 270.592 78.7285C271.011 78.6963 271.495 78.3737 271.882 78.535C272.559 78.793 272.978 79.438 273.623 79.7606C274.397 80.1476 275.236 80.3734 276.074 80.4701C278.461 80.8249 281.396 81.0506 283.396 79.4058C283.589 79.2445 283.815 78.793 284.041 78.6963C284.363 78.535 284.718 78.8898 284.976 79.0188C285.331 79.18 285.718 79.2768 286.105 79.309C286.943 79.3735 287.782 79.1478 288.459 78.6963C288.653 78.5672 288.878 78.406 289.104 78.3092C289.685 78.0835 290.039 78.664 290.555 78.8253C290.91 78.9543 291.297 78.9543 291.684 78.922C292.491 78.8575 293.297 78.5995 293.974 78.1157C295.361 77.1159 295.103 75.3743 294.587 73.923C294.297 73.0522 293.781 72.2459 293.103 71.6331C292.168 70.73 291.039 70.4075 289.975 69.7947C289.91 69.7302 289.814 69.698 289.814 69.6657Z" fill="#861B8E"/>
<path d="M274.01 61.957L277.493 80.1793" stroke="#BC29D6" stroke-width="0.322519" stroke-miterlimit="10"/>
<path d="M277.171 68.6973L276.203 73.2125" stroke="#BC29D6" stroke-width="0.322519" stroke-miterlimit="10"/>
<path d="M285.201 70.5039L282.492 74.2451" stroke="#BC29D6" stroke-width="0.322519" stroke-miterlimit="10"/>
<path d="M271.85 72.1484L276.72 75.8574" stroke="#BC29D6" stroke-width="0.322519" stroke-miterlimit="10"/>
<path d="M282.718 66.9883L282.299 79.5343" stroke="#BC29D6" stroke-width="0.322519" stroke-miterlimit="10"/>
<path d="M289.975 71.2129L288.879 77.8245" stroke="#BC29D6" stroke-width="0.322519" stroke-miterlimit="10"/>
<path d="M73.1171 28.346C73.1171 28.346 68.8599 27.7009 66.828 27.2171C66.8603 27.2171 66.8925 27.1849 66.9248 27.1849C66.8925 26.6689 66.4732 26.3786 65.8927 26.2173C65.7314 25.8303 65.5057 25.4433 65.2477 25.3143C64.6994 24.9918 63.8286 25.2498 63.5061 25.6046C63.5061 25.6046 63.4416 23.992 62.7965 23.5082C62.1515 23.0244 61.6355 22.8954 61.1194 22.9599C60.6034 23.0244 59.7003 23.4759 59.7003 23.4759C59.7003 23.4759 59.4423 22.3794 58.6038 21.7666C57.7652 21.1538 57.1847 21.5086 56.8622 21.7021C56.5719 21.8956 56.0236 22.3149 56.0236 22.3149C56.0236 22.3149 54.024 19.4122 52.0244 18.7349C50.057 18.0254 45.8643 18.2189 44.3807 19.2509C42.8649 20.2507 42.0586 20.8958 42.0586 20.8958C42.0586 20.8958 41.8005 20.1217 40.9943 19.8637C39.8977 19.5089 38.9946 21.057 38.9946 21.057C38.9946 21.057 36.737 18.5736 35.4469 18.2834C34.1568 17.9931 32.5765 17.6706 30.8672 18.7349C29.2223 19.7347 29.2868 22.5084 29.2868 22.7664C29.1578 22.7341 28.803 22.6696 27.7065 22.5729C25.6746 22.3471 24.6103 26.2496 24.6103 26.2496C23.2557 26.7011 17.6116 27.5397 17.6116 27.5397C16.9343 27.7009 11 28.346 11 28.346H18.5147C20.3853 28.7652 22.2237 29.378 24.32 29.2813C24.32 29.12 24.3523 28.991 24.3845 28.8297C25.4166 30.7971 28.2548 29.0555 29.7706 29.12C31.1252 29.1845 32.2862 29.765 33.7376 29.765C34.8664 29.765 35.9307 29.4748 37.0273 29.4425C39.0914 29.4103 41.22 30.0553 43.3486 29.765C44.5097 29.6038 45.2838 29.0233 46.3158 29.0555C48.4767 29.12 50.6053 29.636 52.8307 29.4425C53.9918 29.3458 54.8948 28.8297 55.8624 28.346H73.1171Z" fill="#E1ADF2"/>
<path d="M110.078 35.1509C110.078 35.1509 106.24 34.7316 103.725 34.4091C103.08 34.0543 102.112 33.8931 101.209 33.7963C100.919 33.4093 100.854 32.8288 100.145 32.5385C99.1127 32.1515 98.4354 32.2805 98.0806 32.3772C97.7258 32.474 97.5323 29.5713 95.2102 29.2488C92.888 28.9263 92.9203 29.1843 91.4367 29.2166C91.4367 29.2166 90.6627 27.0557 89.1146 26.8944C87.5665 26.7332 86.5667 27.7975 86.3732 27.862C86.3732 27.862 86.1474 26.7654 85.4701 26.7009C84.7928 26.6364 83.8253 27.1847 83.8253 27.1847C82.9867 26.5397 83.148 26.4429 82.0514 26.2171C80.9549 25.9914 80.3421 27.2492 80.3421 27.2492C80.3421 27.2492 80.084 27.0234 79.7293 26.6042C79.3745 26.1849 78.536 25.8301 77.6007 25.7334C76.6654 25.6366 76.2783 26.6364 76.2461 26.5397C76.2138 26.4429 75.8913 25.9914 75.4075 25.3141C74.9237 24.6045 73.2144 24.2498 72.1501 24.4433C71.0858 24.669 70.7955 25.7334 70.7955 25.7334C70.7955 25.7334 69.7635 24.8948 67.8606 23.637C65.9577 22.3792 60.6684 22.1211 58.185 22.9919C55.6694 23.895 53.1215 27.5395 53.1215 27.5395C53.1215 27.5395 52.4119 26.9912 52.0572 26.7332C51.6701 26.4752 50.9606 26.0236 49.864 26.7977C48.7997 27.5717 48.4772 28.9585 48.4772 28.9585C48.4772 28.9585 47.3484 28.3458 46.6711 28.2813C45.9938 28.2168 45.381 28.378 44.5425 28.9908C43.7039 29.6036 43.6394 31.6355 43.6394 31.6355C43.2524 31.2162 42.1558 30.8614 41.4463 31.2807C40.7368 31.7 40.253 33.5061 40.253 33.5061C38.2534 34.0866 31.4805 35.1187 31.4805 35.1187H35.5765C36.8988 35.3444 38.2211 35.5702 39.5434 35.7637C40.9948 35.9895 42.2203 35.6669 43.5749 35.6669C44.607 35.6669 45.4778 35.9895 46.6711 36.1185C49.09 36.3765 51.5734 36.699 54.0245 36.6022C55.3791 36.5377 56.2177 35.9572 57.411 35.6992C58.5075 35.4412 58.9591 35.6992 60.2491 35.9895C61.9907 36.3442 63.7324 36.312 65.5062 36.312C66.248 36.312 67.022 36.3765 67.7316 36.2797C68.2476 36.2152 68.3444 35.6669 68.9571 35.6992C70.1182 35.7314 71.0213 37.4408 72.3436 36.1185C73.2467 36.8603 73.8917 36.0862 74.6335 36.0217C76.7299 35.8282 78.9875 36.6022 81.1161 36.6345C82.9545 36.6667 84.6316 36.6022 86.4054 36.183C87.4697 35.9572 88.6953 35.2477 89.7596 35.1832C91.1787 35.0864 93.2106 35.9572 94.8232 35.9895C96.2422 36.0217 97.5646 35.9572 98.9514 35.6992C100.112 35.4734 101.403 35.3767 102.564 35.1509H110.078Z" fill="#F0DCF9"/>
<path d="M112.981 28.1846C115.386 28.1846 117.335 26.2352 117.335 23.8306C117.335 21.4259 115.386 19.4766 112.981 19.4766C110.576 19.4766 108.627 21.4259 108.627 23.8306C108.627 26.2352 110.576 28.1846 112.981 28.1846Z" fill="#F0DCF9"/>
<path d="M-8 152.09C-8 152.394 42.7965 148.316 46.4463 148.194C71.8696 147.16 97.3428 150.264 122.616 157.263C162.288 168.34 201.461 189.095 241.283 197.007C268.831 202.485 296.454 199.989 324.077 199.685C336.052 199.563 348.026 199.502 360 199.502V279.842H-7.50003C-7.50003 279.903 -8 152.151 -8 152.09Z" fill="#AE41C4"/>
<path d="M221.949 85.3711L230.436 99.6086L236.845 111.664H238.196L227.526 85.3711H221.949Z" fill="#861B8E"/>
<path d="M235.977 111.109C235.839 111.455 235.77 111.698 235.77 111.871C235.77 112.079 235.804 112.39 235.873 112.772C236.116 112.772 238.264 112.772 242.351 112.772C242.525 112.217 242.421 111.906 242.074 111.871C241.728 111.836 241.416 111.802 241.174 111.767L238.16 110.416C238.09 110.381 238.021 110.416 238.021 110.485L237.813 110.97C237.467 111.143 237.19 111.213 236.982 111.213C236.809 111.213 236.566 111.143 236.289 111.005C236.185 110.901 236.047 110.97 235.977 111.109C236.012 111.074 235.977 111.074 235.977 111.109Z" fill="#DC8FEF"/>
<path d="M235.077 109.724L237.744 108.928C236.567 105.463 235.146 101.618 233.484 97.4614C231.786 93.3044 229.985 89.2514 228.045 85.4062H220.562C222.71 90.3253 224.997 94.7593 227.387 98.7777C229.777 102.761 232.34 106.433 235.077 109.724Z" fill="#DC8FEF"/>
<path d="M221.394 85.3711C220.597 90.3594 219.039 96.768 218.9 96.9412C218.796 97.0798 215.297 98.2576 208.369 100.475L208.681 101.687C216.925 100.509 221.29 99.5739 221.741 98.9158C222.399 97.9458 225.724 90.1516 227.041 85.3711H221.394Z" fill="#861B8E"/>
<path d="M210.795 99.47L211.315 101.41C217.481 101.964 221.257 101.548 222.677 100.232C224.097 98.9158 225.656 93.9621 227.423 85.3711H220.287C219.143 92.4032 218.52 96.0406 218.381 96.3523C218.243 96.6641 215.714 97.7033 210.795 99.47Z" fill="#E1ADF2"/>
<path d="M208.674 99.9836C208.309 99.9073 208.058 99.8812 207.888 99.9113C207.683 99.9473 207.382 100.036 207.019 100.17C207.061 100.409 207.434 102.524 208.144 106.549C208.72 106.624 209.009 106.467 208.983 106.12C208.957 105.773 208.937 105.46 208.929 105.215L209.736 102.013C209.758 101.938 209.712 101.876 209.643 101.888L209.13 101.768C208.899 101.457 208.783 101.196 208.746 100.991C208.716 100.82 208.743 100.57 208.831 100.273C208.915 100.152 208.823 100.028 208.674 99.9836C208.715 100.012 208.715 100.012 208.674 99.9836Z" fill="#DC8FEF"/>
<path d="M224.649 69.8526C225.966 69.8526 226.451 68.2938 227.178 67.4278C227.698 66.8042 228.633 67.0121 228.876 66.146C229.568 63.9637 227.732 62.4395 225.377 62.4395C223.021 62.4395 221.428 63.7905 221.081 65.7996C220.735 67.8088 222.294 69.8526 224.649 69.8526Z" fill="#3E0444"/>
<path d="M224.787 68.4676C224.267 67.8441 223.886 67.082 223.955 66.2506C224.129 63.7911 227.524 64.3453 228.216 65.5924C228.875 66.8395 228.805 69.9572 227.939 70.1997C227.593 70.3036 226.865 70.0611 226.138 69.6108L226.588 72.9017H223.852L224.787 68.4676Z" fill="#861B8E"/>
<path d="M225.931 66.8744C225.827 66.8052 225.723 66.8052 225.585 66.8052C225.204 66.8052 224.892 67.1169 224.892 67.498C224.892 67.6365 224.961 67.8098 225.03 67.9137C224.857 68.1908 224.753 68.4679 224.719 68.7797C224.13 68.7797 222.017 66.5973 224.13 64.5188C226.243 62.4404 229.291 65.3849 228.356 65.5581C227.836 65.662 226.797 66.1816 225.931 66.8744Z" fill="#3E0444"/>
<path d="M233.484 82.3933L236.74 85.5456C237.676 85.9613 238.472 86.377 239.061 86.8966C239.2 87.0699 239.338 87.3816 238.715 87.2431C238.091 87.1045 237.398 87.0006 237.295 87.2084C237.191 87.4163 237.537 87.728 237.295 88.0052C237.156 88.1784 236.636 87.6241 235.805 86.2731L232.445 84.2986L233.484 82.3933ZM217.618 79.5527H220.113C218.207 85.7535 217.203 88.9751 217.064 89.2869C216.787 89.9451 217.376 90.9497 217.584 91.4693C216.787 91.8157 216.891 90.534 215.886 90.9843C214.986 91.4 214.293 92.1621 213.254 91.5039C213.115 91.4346 212.976 91.1229 213.323 90.8804C214.154 90.2915 215.367 89.2869 215.54 88.9751C215.817 88.5248 216.475 85.3724 217.618 79.5527Z" fill="#861B8E"/>
<path d="M225.24 72.4154L226.245 72.2422C227.804 77.7501 235.806 81.526 236.325 83.5698C236.499 84.3319 235.944 84.713 236.256 84.9555L234.974 85.8908C234.767 85.6483 234.282 86.0986 233.312 85.7869C232.307 85.4751 225.24 78.9626 225.24 72.4154Z" fill="#3E0444"/>
<path d="M226.902 73.1434C226.798 80.4527 231.024 82.3233 230.054 85.2332C229.292 87.658 221.844 90.2561 220.563 87.8659C220.043 86.8959 219.8 85.7528 219.766 84.4711C219.454 85.441 219.177 86.2724 218.969 86.9652C218.623 88.1777 217.376 88.3509 217.376 88.8358L215.678 88.3855C215.782 87.762 214.985 87.4502 215.228 86.0299C216.198 79.6906 218.761 75.118 222.918 72.2774L222.953 71.6539C222.987 71.4114 223.195 71.2035 223.438 71.2382L226.521 71.446C226.763 71.4807 226.971 71.6885 226.937 71.931L226.902 73.1434Z" fill="#500456"/>
<path d="M322.753 62.3011C323.238 61.7122 323.584 61.0194 323.515 60.2227C323.342 57.9363 320.155 58.4213 319.531 59.5991C318.908 60.7423 318.977 63.6868 319.774 63.8946C320.085 63.9639 320.778 63.7907 321.471 63.3404L321.021 66.4234H323.584L322.753 62.3011Z" fill="#77057A"/>
<path d="M322.233 58.56C320.951 58.1097 319.254 58.6293 319.496 59.7032C319.635 60.3614 320.431 60.7078 321.193 61.0888C321.297 60.881 321.505 60.7424 321.782 60.7424C322.163 60.7424 322.44 61.0196 322.44 61.4006C322.44 61.5392 322.406 61.6431 322.337 61.747C322.579 61.9549 322.787 62.232 322.822 62.5784C323.237 62.5784 323.895 61.366 323.688 60.1882C323.757 60.1882 323.791 60.1882 323.861 60.1882C324.761 60.1882 325.454 59.4607 325.454 58.5947C325.454 57.694 324.727 57.0012 323.861 57.0012C322.96 56.9665 322.267 57.694 322.233 58.56Z" fill="#3E0444"/>
<path d="M324.934 77.8203L319.184 92.2657L315.062 104.355L313.814 104.563L319.773 78.6517L324.934 77.8203Z" fill="#77057A"/>
<path d="M315.614 104.218C315.718 104.529 315.787 104.772 315.787 104.945C315.787 105.153 315.752 105.43 315.683 105.776C315.475 105.776 313.431 105.707 309.621 105.603C309.482 105.084 309.586 104.807 309.898 104.772C310.244 104.737 310.521 104.703 310.729 104.668L313.57 103.49C313.639 103.456 313.674 103.49 313.708 103.559L313.882 104.01C314.193 104.148 314.436 104.252 314.644 104.252C314.817 104.252 315.025 104.183 315.302 104.079C315.44 104.044 315.544 104.079 315.614 104.218Z" fill="#DA6EF4"/>
<path d="M316.413 102.277L313.85 101.931C314.404 98.536 315.131 94.7947 316.067 90.6725C317.002 86.5502 318.076 82.5664 319.288 78.6866L326.216 77.5781C324.969 82.4279 323.514 86.8966 321.886 90.9842C320.258 95.0719 318.457 98.8478 316.413 102.277Z" fill="#931DA0"/>
<path d="M324.553 76.8496C326.944 80.9719 330.442 86.0295 330.615 86.1681C330.754 86.2373 334.218 86.0988 341.008 85.7177L341.146 86.8609C333.525 88.5929 329.403 89.2165 328.78 88.8008C327.879 88.1772 322.336 82.4615 319.6 78.7202L324.553 76.8496Z" fill="#77057A"/>
<path d="M338.548 85.614L338.755 87.4846C333.525 90.0134 330.095 90.9487 328.432 90.2559C326.77 89.5631 323.721 85.7526 319.287 78.859L325.523 76.4688C328.848 82.2538 330.649 85.233 330.857 85.4408C331.065 85.6486 333.629 85.7179 338.548 85.614Z" fill="#AE41C4"/>
<path d="M340.538 85.3862C340.821 85.1956 341.054 85.1193 341.219 85.0551C341.423 85.0191 341.702 85.005 342.084 84.973C342.12 85.1777 342.509 87.1844 343.239 90.925C342.757 91.1858 342.466 91.1316 342.378 90.8306C342.283 90.4955 342.167 90.2346 342.097 90.0359L340.313 87.5012C340.267 87.439 340.295 87.3989 340.357 87.3527L340.771 87.1039C340.853 86.7728 340.873 86.4879 340.843 86.3173C340.813 86.1467 340.709 85.9541 340.524 85.7052C340.432 85.5808 340.448 85.4724 340.538 85.3862Z" fill="#DA6EF4"/>
<path d="M317.659 70.2687L314.957 67.7745C313.536 67.3935 312.878 67.0817 313.017 66.9085C313.19 66.6314 313.571 66.8738 313.744 66.7006C313.883 66.5274 313.606 65.9732 313.294 65.4189C312.982 64.8647 313.329 64.9339 313.502 65.0032C314.091 65.4189 314.714 65.9732 315.338 66.7006L319.079 68.7445L317.659 70.2687ZM313.086 72.1393C312.393 71.6197 311.735 71.2733 311.112 71.1347C309.934 70.8229 309.483 70.5458 308.895 69.853C308.583 69.4719 308.34 68.6752 308.617 68.4327C308.825 68.2595 309.934 69.0909 310.419 69.1948C310.869 69.2987 310.453 68.1902 310.696 68.2941C311.008 68.2941 311.285 68.7445 311.527 69.6105L313.155 70.5112L313.086 72.1393Z" fill="#77057A"/>
<path d="M320.846 68.328C319.529 68.328 317.797 68.0508 315.927 66.873L315.199 68.5012C316.481 69.7829 318.282 70.8221 319.841 70.7875C321.123 70.7182 321.746 69.2286 320.846 68.328Z" fill="#DA6EF4"/>
<path d="M319.079 70.9264C317.694 71.2728 315.373 70.8571 312.117 69.7139C311.32 71.3767 310.939 72.5891 311.008 73.282C313.814 74.7369 316.204 75.3951 318.179 75.4297C318.109 76.6075 318.248 77.716 318.733 78.7206C319.703 80.7991 325.488 78.8592 327.428 79.2402C328.64 75.2912 326.285 73.6977 326.285 71.1689C326.285 68.3976 324.068 64.1367 323.721 64.1367H320.742C320.604 66.3191 319.772 68.6401 319.079 70.9264Z" fill="#DC8FEF"/>
<path d="M343.5 90.3242C343.292 93.1301 329.989 101.444 329.92 101.687C329.886 101.79 331.271 105.047 334.077 111.49L332.899 111.94C328.604 105.116 326.56 101.34 326.802 100.613C327.114 99.5734 330.544 96.1439 337.126 90.3589L343.5 90.3242Z" fill="#C259D8"/>
<path d="M333.731 110.035L331.825 110.728C327.807 106.224 326.248 102.483 326.525 100.578C326.733 99.2963 330.163 95.9014 336.814 90.3242H343.603C343.361 96.8367 331.029 101.687 330.89 101.964C330.717 102.275 332.345 105.012 333.731 110.035Z" fill="#DA6EF4"/>
<path d="M334.458 111.272C334.692 111.542 334.828 111.776 334.923 111.921C334.994 112.131 335.074 112.418 335.118 112.803C334.908 112.874 332.871 113.607 329.041 115.015C328.692 114.556 328.701 114.227 329.012 114.082C329.335 113.905 329.601 113.781 329.823 113.677L332.197 111.408C332.253 111.354 332.319 111.378 332.351 111.39L332.691 111.772C333.052 111.793 333.348 111.79 333.526 111.707C333.692 111.657 333.893 111.509 334.13 111.263C334.23 111.189 334.384 111.172 334.458 111.272Z" fill="#500456"/>
<path d="M341.975 90.3242L347.899 104.562L353.719 116.617H352.333L337.299 90.3242H341.975Z" fill="#C259D8"/>
<path d="M353.788 116.029C353.927 116.375 353.996 116.618 353.996 116.791C353.996 116.999 353.961 117.31 353.892 117.691C353.65 117.691 351.502 117.691 347.414 117.691C347.241 117.137 347.345 116.825 347.691 116.791C348.038 116.756 348.35 116.721 348.592 116.687L351.606 115.336C351.675 115.301 351.744 115.336 351.744 115.405L351.952 115.89C352.299 116.063 352.576 116.133 352.784 116.133C352.957 116.133 353.199 116.063 353.477 115.925C353.615 115.855 353.754 115.925 353.788 116.029Z" fill="#500456"/>
<path d="M353.198 114.088L350.149 114.677C347.794 111.213 337.921 96.9753 336.812 90.3242H343.602C347.205 95.1393 350.946 110.555 353.198 114.088Z" fill="#DC8FEF"/>
<path d="M341.356 76.0887C341.876 75.4652 342.257 74.7031 342.188 73.8717C342.014 71.4122 338.62 71.9664 337.927 73.2135C337.269 74.4606 337.338 77.5783 338.204 77.8208C338.55 77.9247 339.278 77.6822 340.005 77.2319L339.555 80.5228H342.292L341.356 76.0887Z" fill="#C259D8"/>
<path d="M338.998 71.8273C339.379 71.7234 339.933 71.6888 340.141 71.6888C340.003 71.377 339.968 71.0306 340.003 70.6842C340.037 70.3378 340.176 70.0606 340.314 69.7835C340.384 69.6449 340.453 69.5064 340.557 69.4025C340.661 69.2985 340.799 69.2292 340.938 69.1946C341.077 69.16 341.25 69.16 341.388 69.1946C341.458 69.1946 341.527 69.2293 341.562 69.2639C341.631 69.2639 341.665 69.2292 341.7 69.1946C341.804 69.0907 341.977 69.056 342.116 69.0214C342.289 68.9868 342.462 69.0214 342.601 69.0907C342.739 69.1253 342.913 69.2293 343.016 69.3332C343.051 69.4025 343.12 69.4371 343.12 69.5064C343.12 69.541 343.12 69.541 343.155 69.5757C343.19 69.5757 343.224 69.5757 343.224 69.6103C343.467 69.7142 343.709 69.8874 343.813 70.1646C343.882 70.3031 343.917 70.5803 343.917 70.892C343.917 71.2038 343.64 71.9659 343.398 72.243C343.19 72.4855 342.843 72.6587 342.531 72.728C342.739 72.9705 342.878 73.2823 342.982 73.5594C343.086 73.9058 343.155 74.2522 343.19 74.5986C343.224 74.945 343.224 75.2914 343.155 75.6032C343.086 75.915 342.913 76.1575 342.67 76.3307C342.566 76.4 342.428 76.4692 342.289 76.5039C342.15 76.5385 342.047 76.6078 341.908 76.6424C341.665 76.7117 341.354 76.6771 341.18 76.4692C341.111 76.4 341.042 76.296 340.973 76.2268C340.938 76.1921 340.938 76.1575 340.973 76.1575C341.007 76.1228 341.042 76.0882 341.077 76.0535C341.284 75.8803 341.388 75.6725 341.423 75.3954C341.458 75.1182 341.388 74.7718 341.111 74.6679C340.799 74.5293 340.418 74.7025 340.141 74.8411C340.003 74.4254 339.76 74.0097 339.379 73.8365C338.929 73.6287 338.444 73.594 337.993 73.4208C337.89 73.3862 337.751 73.3169 337.682 73.213C337.647 73.1783 337.612 73.1091 337.578 73.0744C337.543 73.0051 337.612 72.9359 337.647 72.9012C337.89 72.5548 338.617 71.9659 338.998 71.8273Z" fill="#AE41C4"/>
<path d="M334.285 90.9154L330.683 92.405C329.643 93.6174 329.089 94.1024 328.951 93.8946C328.777 93.5828 329.158 93.3403 329.089 93.0978C329.02 92.8553 328.327 92.89 327.669 92.9593C327.011 92.9939 327.219 92.7168 327.357 92.5782C328.015 92.1972 328.847 91.8507 329.851 91.5736L333.489 88.9062L334.285 90.9154ZM348.973 96.3194C349.146 96.6659 350.359 97.6704 351.19 98.2247C351.537 98.4672 351.398 98.7443 351.259 98.8482C350.22 99.5064 349.527 98.7443 348.627 98.3286C347.657 97.8783 347.726 99.16 346.929 98.8136C347.172 98.2593 347.726 97.2894 347.449 96.6312C347.345 96.3541 346.548 93.7906 345.059 89.0448H347.449C348.28 93.4442 348.765 95.8691 348.973 96.3194Z" fill="#C259D8"/>
<path d="M340.694 78.9642L339.69 78.791C336.018 81.978 334.494 88.0748 329.99 91.2965L331.064 92.6475C338.928 91.6775 340.868 84.2297 340.694 78.9642Z" fill="#5B0460"/>
<path d="M345.024 91.4001C341.04 91.4001 338.13 91.4001 336.26 91.4001C335.844 91.4001 335.948 90.8112 335.983 90.534C336.641 87.1738 339.273 83.5365 339.273 78.7561L341.802 78.375C343.881 81.7005 344.608 85.8575 345.024 91.4001Z" fill="#F0DCF9"/>
<path d="M344.955 81.6665C345.336 81.5626 345.613 81.3201 345.821 80.9391C346.756 79.2763 346.41 78.341 345.44 78.0639C344.435 77.7521 343.569 78.3756 342.01 78.3756C341.941 78.3756 341.837 78.3756 341.768 78.3756L340.971 78.4103C338.685 86.1006 338.061 91.2275 339.1 93.8256H345.994C346.41 94.7955 346.791 95.5923 347.172 96.2158H349.042C349.216 90.5 347.865 85.6503 344.955 81.6665Z" fill="#77057A"/>
<path d="M344.468 89.877C344.261 91.6783 343.914 92.9947 343.395 93.826H345.958C345.508 92.7175 344.988 91.4012 344.468 89.877Z" fill="black" fill-opacity="0.1"/>
<path d="M294.454 82.9125L290.713 83.0857C289.396 83.8478 288.738 84.0902 288.669 83.8824C288.6 83.5706 289.05 83.4321 289.05 83.2242C289.05 82.9817 288.426 82.8085 287.803 82.6353C287.214 82.4621 287.456 82.2543 287.664 82.185C288.392 82.0464 289.258 82.0118 290.228 82.0811L294.385 80.834L294.454 82.9125Z" fill="#AE41C4"/>
<path d="M299.821 85.6503L296.08 112.428L297.362 112.116L300.445 99.5068L304.983 84.334L299.821 85.6503Z" fill="#AE41C4"/>
<path d="M297.884 111.943C297.814 111.839 297.711 111.804 297.572 111.839C297.295 111.977 297.087 112.081 296.914 112.081C296.706 112.081 296.463 112.047 296.117 111.908L295.909 111.458C295.875 111.389 295.805 111.389 295.771 111.423L292.999 112.878C292.757 112.913 292.48 112.982 292.133 113.051C291.787 113.121 291.718 113.398 291.926 113.917C295.805 113.675 297.849 113.536 298.092 113.536C298.126 113.155 298.161 112.878 298.126 112.67C298.092 112.497 298.022 112.255 297.884 111.943Z" fill="#DC8FEF"/>
<path d="M303.078 97.9838C304.36 93.7229 305.434 89.0464 306.265 84.0234L299.337 85.7901C298.471 89.8431 297.709 93.9654 297.155 98.2263C296.566 102.487 296.15 106.332 295.873 109.831L298.506 109.935C300.272 106.228 301.797 102.245 303.078 97.9838Z" fill="#5B0460"/>
<path d="M299.719 85.7203C302.836 89.2884 308.933 94.5884 309.903 95.1427C310.561 95.5237 314.684 94.4845 322.27 92.0596L322.028 90.8818C315.169 91.8518 311.67 92.3368 311.531 92.2328C311.324 92.1289 307.34 87.2792 304.534 83.3301L299.719 85.7203Z" fill="#AE41C4"/>
<path d="M311.67 91.5397C311.428 91.3318 309.349 88.4566 305.469 82.9141L299.338 85.8932C304.43 92.5097 307.86 96.0777 309.626 96.6319C311.358 97.1862 314.788 95.9391 319.845 92.8907L319.464 90.9854C314.511 91.5743 311.913 91.7475 311.67 91.5397Z" fill="#77057A"/>
<path d="M321.489 90.6465C321.399 90.7328 321.389 90.8753 321.475 90.9656C321.694 91.2084 321.798 91.4011 321.863 91.5657C321.933 91.7643 321.907 92.0152 321.864 92.3744L321.497 92.6854C321.435 92.7315 321.447 92.7997 321.487 92.8278L323.492 95.2181C323.596 95.4107 323.718 95.7057 323.841 96.0008C323.963 96.2958 324.288 96.344 324.724 96.0209C323.646 92.3064 323.087 90.3297 323.045 90.0909C322.663 90.1229 322.391 90.1711 322.192 90.2413C321.987 90.2774 321.766 90.4218 321.489 90.6465C321.483 90.6124 321.483 90.6124 321.489 90.6465Z" fill="#DC8FEF"/>
<path d="M303.841 74.7031L301.243 74.9802L301.382 71.7932C300.723 72.2782 300.065 72.5553 299.719 72.5207C298.888 72.3821 298.506 69.4376 299.026 68.1905C299.546 66.9435 302.733 66.1121 303.114 68.433C303.252 69.2298 302.975 69.9919 302.559 70.6154L303.841 74.7031Z" fill="#AE41C4"/>
<path d="M302.421 71.1349L302.143 69.9571C302.247 69.4029 302.143 69.0911 301.832 68.9872C301.52 68.8833 301.243 69.0911 300.966 69.6454L300.654 69.68C300.515 69.2643 300.342 69.0218 300.1 68.9525C299.372 68.7793 298.887 68.9525 298.471 69.0218C297.848 67.463 298.852 66.6316 300.55 66.2852C301.693 66.0427 302.421 66.3198 302.732 67.1859C303.148 67.2551 303.425 67.4976 303.564 67.9133C303.772 68.5369 302.94 69.6454 302.767 71.1349H302.421Z" fill="#F0DCF9"/>
<path d="M311.53 89.5633C311.564 89.9097 312.292 91.226 312.881 92.0228C313.089 92.3346 312.881 92.577 312.742 92.577C311.599 92.7849 311.253 91.8842 310.594 91.226C309.867 90.4986 309.521 91.6764 308.932 91.0875C309.313 90.6718 310.179 89.979 310.144 89.3208C310.144 89.009 310.283 86.4802 310.56 81.7344L312.708 82.5311C311.876 86.7227 311.495 89.0783 311.53 89.5633Z" fill="#AE41C4"/>
<path d="M291.613 83.1551L291.059 81.5963C296.151 80.1413 299.476 75.153 303.807 73.4902L304.638 73.9752C303.079 78.7557 298.957 84.8179 291.613 83.1551Z" fill="#DA6EF4"/>
<path d="M303.253 73.0059L300.897 73.6294C301.347 78.1674 299.234 81.874 298.922 85.1302C298.888 85.4074 298.888 85.9616 299.269 85.927C301.036 85.7538 303.807 85.4767 307.583 85.0956C306.647 79.8302 305.573 75.985 303.253 73.0059Z" fill="#F0DCF9"/>
<path d="M306.579 75.8108C306.925 75.6722 307.168 75.4297 307.341 75.014C308.068 73.3513 307.653 72.5199 306.683 72.312C305.713 72.1042 304.951 72.797 303.461 72.9356C303.392 72.9356 303.322 72.9702 303.253 72.9702L302.491 73.0741C301.071 80.5913 300.967 85.5449 302.179 87.8659C304.258 87.5541 306.336 87.2424 308.415 86.9306C308.83 86.8613 309.246 86.792 309.696 86.7227C309.489 86.7574 308.934 85.3717 308.865 85.1985C308.623 84.6789 308.519 84.09 308.38 83.5011C308.068 82.3233 308.138 82.1501 307.826 81.0762C308.276 81.4573 308.796 81.7691 309.142 82.254C309.489 82.7044 309.593 83.3279 309.593 83.8822C309.627 84.8521 309.662 85.8221 309.696 86.792C309.731 87.6234 309.593 88.628 310.112 89.3555L311.913 89.1823C314.823 77.7507 310.389 78.3396 306.579 75.8108Z" fill="#E595F9"/>
<path d="M276.093 99.0909C278.14 99.0909 279.8 97.4314 279.8 95.3843C279.8 93.3372 278.14 91.6777 276.093 91.6777C274.046 91.6777 272.387 93.3372 272.387 95.3843C272.387 97.4314 274.046 99.0909 276.093 99.0909Z" fill="#F79F03"/>
<path d="M240.795 88.5233C241.661 91.4678 257.63 97.1836 257.769 97.3914C257.838 97.4953 257.111 101.271 255.656 108.719L256.972 108.927C259.951 100.717 261.233 96.2829 260.817 95.5554C260.229 94.5162 255.829 91.7103 247.55 87.0684L240.795 88.5233Z" fill="#C259D8"/>
<path d="M255.621 107.091L257.804 107.403C260.991 101.722 261.787 97.3918 261.06 95.4519C260.575 94.1702 256.141 91.3296 247.827 86.9648L240.656 88.5237C242.388 95.3826 256.557 97.6689 256.799 97.9114C257.042 98.1539 255.898 101.445 255.621 107.091Z" fill="#5B0460"/>
<path d="M255.122 108.568C254.926 108.903 254.819 109.196 254.793 109.37C254.754 109.578 254.745 109.906 254.766 110.356C255.017 110.374 257.332 110.7 261.688 111.29C261.934 110.716 261.878 110.364 261.508 110.266C261.138 110.168 260.801 110.082 260.573 110L257.534 108.119C257.469 108.096 257.392 108.104 257.368 108.17L257.081 108.655C256.705 108.776 256.397 108.812 256.178 108.806C256.003 108.779 255.743 108.684 255.453 108.468C255.367 108.4 255.201 108.45 255.122 108.568Z" fill="#5B0460"/>
<path d="M241.592 87L235.184 102.415L228.879 115.406H230.368L246.615 87H241.592Z" fill="#C259D8"/>
<path d="M228.776 114.817C228.638 115.198 228.568 115.475 228.568 115.648C228.568 115.856 228.603 116.202 228.672 116.618C228.915 116.618 231.27 116.618 235.67 116.618C235.843 116.029 235.739 115.683 235.358 115.648C234.977 115.613 234.631 115.544 234.388 115.51L231.132 114.055C231.063 114.02 230.993 114.055 230.959 114.124L230.751 114.644C230.404 114.817 230.093 114.886 229.885 114.886C229.712 114.886 229.434 114.817 229.123 114.678C229.019 114.644 228.845 114.678 228.776 114.817C228.811 114.817 228.776 114.817 228.776 114.817Z" fill="#5B0460"/>
<path d="M229.434 112.704L232.724 113.327C235.288 109.586 245.957 94.1707 247.135 87H239.791C235.911 92.1962 231.893 108.893 229.434 112.704Z" fill="#77057A"/>
<path d="M242.317 71.0303C241.762 70.3721 241.347 69.5408 241.416 68.6054C241.589 65.9381 245.296 66.527 246.023 67.878C246.751 69.229 246.647 72.6238 245.711 72.8663C245.33 72.9702 244.568 72.7277 243.737 72.2428L244.256 75.8108H241.277L242.317 71.0303Z" fill="#C259D8"/>
<path d="M243.909 68.9183C244.013 70.5118 244.325 71.3085 244.81 71.3085C245.538 71.3085 246.161 70.8582 246.473 70.8582C246.715 70.8582 246.646 71.1353 246.507 71.3778C246.369 71.551 245.745 71.7242 245.745 72.0013C245.745 72.2785 246.23 72.0706 246.23 72.2438C246.23 72.521 246.334 73.0406 245.849 73.0406C245.364 73.0406 243.979 72.8674 243.771 72.1399C243.632 71.6896 243.528 70.7196 243.459 69.2993C243.424 69.2993 243.39 69.2993 243.355 69.2993C242.939 69.2993 242.628 69.6457 242.628 70.0268C242.628 70.2346 242.697 70.4078 242.836 70.5464C242.662 70.7889 242.454 71.0314 242.247 71.3085C241.415 70.8235 240.792 69.3686 241.623 67.9483C241.831 67.2555 242.351 66.9091 242.939 66.7359C243.424 66.528 243.944 66.4934 244.36 66.632C245.191 66.7012 245.953 66.9437 246.161 67.1169C246.161 67.9137 246.022 68.1562 244.706 68.1215C244.394 68.2601 244.152 68.5372 243.909 68.9183Z" fill="#191847"/>
<path d="M251.672 83.0513L256.175 81.0768C256.972 80.28 257.734 79.6911 258.461 79.2755C258.669 79.2062 259.05 79.1715 258.669 79.7604C258.288 80.3493 257.873 80.9729 258.046 81.1807C258.219 81.3886 258.669 81.1461 258.843 81.4925C258.981 81.7003 258.184 81.9775 256.522 82.2892L253.161 84.8527L251.672 83.0513ZM233.52 83.5709L236.049 84.0906C233.485 88.8364 232.134 91.3652 231.926 91.6423C231.511 92.3005 231.892 93.4783 232.03 94.0672C231.13 94.2751 231.476 92.924 230.333 93.2012C229.294 93.4437 228.393 94.1365 227.423 93.2358C227.319 93.1319 227.215 92.7855 227.631 92.6123C228.635 92.1619 230.16 91.3652 230.402 91.0188C230.783 90.6031 231.788 88.1089 233.52 83.5709Z" fill="#C259D8"/>
<path d="M242.977 74.0795L244.051 73.9062C246.372 76.1579 247.342 81.5966 248.9 82.324C250.355 83.0169 252.469 82.3587 254.928 81.458L255.69 83.1554C253.438 85.5803 248.658 87.6588 246.683 86.481C243.566 84.5757 242.838 77.89 242.977 74.0795Z" fill="#931DA0"/>
<path d="M238.301 87.556C242.596 87.556 245.749 87.556 247.792 87.556C248.243 87.556 248.139 86.9324 248.07 86.6207C247.342 82.9833 244.536 79.0342 244.536 73.8727L241.8 73.457C239.513 77.0597 238.751 81.5284 238.301 87.556Z" fill="#DDE3E9"/>
<path d="M237.365 83.8488C235.425 87.3476 233.797 89.8418 232.48 91.366L230.506 90.9849C231.788 83.0521 235.494 77.1978 241.626 73.4219H241.66H242.7C245.159 81.805 245.817 87.3822 244.743 90.1535H236.222C236.326 88.1097 236.741 85.962 237.365 83.8488Z" fill="#AE41C4"/>
<path d="M58.7484 231.331H56.468V215.836H54.6846V230.395H54.6261V231.331H-17.9082V230.395V215.836H-19.6916V230.395V231.331H-21.9136L-26.3574 235.102V237.237H-23.697V257.526H-21.9136V254.427L-19.6916 251.562V253.112H-17.9082V237.207H54.6261V253.053H54.6846V253.112H56.468V251.562L58.6315 254.34V257.439H60.4148V237.207H63.1923V235.073L58.7484 231.331ZM-19.6916 248.697L-21.9136 251.562V237.237H-19.6916V248.697ZM58.6315 251.504L56.468 248.726V237.237H58.6315V251.504Z" fill="#9D2FAD"/>
<path d="M63.1929 234.781H-27V238.407H63.1929V234.781Z" fill="#E1ADF2"/>
<path d="M58.7479 212.035H-21.9141V215.807H58.7479V212.035Z" fill="#E1ADF2"/>
<path d="M58.7479 216.83H-21.9141V220.602H58.7479V216.83Z" fill="#E1ADF2"/>
<path d="M58.7479 221.742H-21.9141V225.514H58.7479V221.742Z" fill="#E1ADF2"/>
<path d="M58.7479 226.596H-21.9141V230.367H58.7479V226.596Z" fill="#E1ADF2"/>
<path d="M63.1929 234.782H-27L-22.6731 231.156H58.3105L63.1929 234.782Z" fill="#EEC5FC"/>
<path d="M77.3142 240.716C77.3142 240.716 77.285 248.113 78.6298 249.019C80.4425 250.247 77.0803 249.984 76.2617 249.955C75.4431 249.896 74.3906 240.336 74.3906 240.336H77.285L77.3142 240.716Z" fill="#F79F03"/>
<path d="M85.4715 240.803C85.4715 240.803 84.799 248.171 85.8515 249.194C87.3133 250.568 84.4482 250.042 83.7465 249.925C83.0449 249.808 83.0156 240.219 83.0156 240.219L85.4715 240.453V240.803Z" fill="#F79F03"/>
<path d="M70.1799 231.887C67.1101 233.495 69.0397 236.828 69.7706 237.909C69.9753 237.412 70.2676 236.915 70.6769 236.477C70.1214 235.863 69.3028 234.43 70.1799 231.887Z" fill="#FCBF35"/>
<path d="M87.9854 225.164C88.1315 225.164 88.307 225.164 88.4824 225.193L87.8099 223.205C87.8099 223.205 87.196 224.082 86.582 224.784L87.1668 225.339C87.2252 225.31 87.2545 225.31 87.3129 225.281C87.4883 225.193 87.693 225.164 87.9854 225.164Z" fill="#F48E06"/>
<path d="M83.9785 223.175C83.8615 223.496 84.8263 225.777 85.4695 225.689C85.7326 225.66 86.1419 225.251 86.5512 224.754C87.1652 224.052 87.7791 223.175 87.7791 223.175C87.7791 223.175 84.0954 222.882 83.9785 223.175Z" fill="#FCBF35"/>
<path d="M90.9375 226.595C91.3176 226.8 91.2299 227.268 91.493 227.706L92.4578 227.326C92.1362 226.449 91.8731 225.396 91.8731 225.396L90.9375 226.595Z" fill="#F48E06"/>
<path d="M91.8438 225.426C91.8438 225.426 92.1069 226.449 92.4285 227.355C92.6331 227.94 92.8962 228.466 93.1009 228.612C93.6564 228.934 95.3813 227.121 95.3813 226.8C95.4105 226.449 91.8438 225.426 91.8438 225.426Z" fill="#FCBF35"/>
<path d="M82.078 227.15C82.2534 227.062 82.4873 226.828 82.4289 226.595C82.4289 226.595 82.4289 226.595 82.4289 226.565C82.3704 226.39 82.1073 226.302 81.9611 226.215C81.8734 226.156 81.7564 226.098 81.6687 226.039C81.3764 225.834 81.0255 225.63 80.6747 225.659C80.2946 225.718 80.4408 226.215 80.5578 226.448C80.587 226.536 80.6455 226.624 80.6747 226.712C80.7332 226.858 80.8209 226.975 80.9378 227.062C81.2302 227.442 81.7272 227.355 82.078 227.15Z" fill="#77057A"/>
<path d="M86.6982 226.684C86.9566 226.684 87.166 226.487 87.166 226.245C87.166 226.003 86.9566 225.807 86.6982 225.807C86.4399 225.807 86.2305 226.003 86.2305 226.245C86.2305 226.487 86.4399 226.684 86.6982 226.684Z" fill="#77057A"/>
<path d="M81.6696 228.876C81.7573 228.906 81.845 228.935 81.9327 228.964C82.1959 229.022 82.459 229.081 82.7513 229.081C82.956 229.11 83.1899 229.11 83.3945 229.11C83.57 229.11 83.7454 229.11 83.95 229.081V228.876C83.6869 228.906 83.3945 228.906 83.1314 228.876C82.9268 228.876 82.6929 228.847 82.4882 228.818C82.342 228.789 82.1959 228.759 82.0497 228.73C81.9327 228.701 81.845 228.672 81.7573 228.642C81.7281 228.613 81.6696 228.613 81.6404 228.584C81.6111 228.584 81.6111 228.555 81.5819 228.555H81.5527C81.5234 228.584 81.5234 228.613 81.5234 228.642C81.5234 228.701 81.5527 228.73 81.5527 228.73C81.5234 228.847 81.6111 228.847 81.6696 228.876Z" fill="#77057A"/>
<path d="M89.0672 227.969C89.374 227.969 89.6227 227.746 89.6227 227.472C89.6227 227.197 89.374 226.975 89.0672 226.975C88.7604 226.975 88.5117 227.197 88.5117 227.472C88.5117 227.746 88.7604 227.969 89.0672 227.969Z" fill="#77057A"/>
<path d="M91.3469 225.806C91.0837 225.367 90.7329 225.045 90.3528 224.841C89.8851 224.578 89.3296 224.461 88.8326 224.402C88.6572 224.373 88.511 224.373 88.3356 224.373C88.0724 224.373 87.8386 224.402 87.6339 224.461C87.5754 224.49 87.517 224.49 87.4877 224.519C86.7276 224.841 86.5522 225.63 85.8213 226.069C85.7043 226.156 85.5582 226.186 85.412 226.244C84.4179 226.478 82.81 226.01 81.6405 226.069C81.7575 226.127 81.8452 226.215 81.9329 226.244C82.0791 226.332 82.3422 226.39 82.4007 226.595C82.4007 226.595 82.4007 226.595 82.4007 226.624C82.4591 226.858 82.2253 227.063 82.0498 227.18C81.699 227.355 81.202 227.443 80.8804 227.15C80.7635 227.034 80.705 226.917 80.6173 226.8C80.588 227.267 80.9681 227.94 81.4651 228.612C81.4944 228.612 81.5236 228.612 81.5236 228.641C81.5528 228.671 81.6113 228.7 81.6405 228.7C81.7282 228.729 81.8452 228.758 81.9329 228.788C82.0791 228.817 82.2253 228.846 82.3714 228.875C82.5761 228.905 82.81 228.934 83.0146 228.934C83.2777 228.934 83.5701 228.934 83.8332 228.934V229.139C83.6286 229.139 83.4532 229.168 83.2778 229.168C83.0731 229.168 82.8392 229.168 82.6346 229.139C82.3714 229.109 82.0791 229.08 81.816 229.022C81.7282 228.992 81.6405 228.963 81.5528 228.934C81.4944 228.905 81.4067 228.875 81.3774 228.846C81.3189 231.097 84.3595 230.425 85.8797 231.331C86.1136 231.477 86.4645 231.741 86.4645 232.091C86.4645 232.208 86.3768 232.325 86.3183 232.413C85.8213 233.085 85.0611 233.436 84.2133 233.553C78.1615 234.547 77.6937 233.173 72.8698 235.073C71.8465 235.483 71.1156 235.98 70.5893 236.564C70.18 237.003 69.8877 237.5 69.683 237.997C68.9229 239.897 69.5076 242.061 69.5369 243.318C68.2797 244.721 68.3674 248.873 68.4844 249.604C68.6013 250.335 71.4957 250.305 70.7355 249.253C69.9754 248.2 71.0571 244.37 71.0571 244.37C71.0571 244.37 74.7409 244.604 75.1502 241.564C75.2086 241.564 75.2379 241.564 75.2379 241.593V241.505C80.9389 245.452 85.6459 242.762 86.4937 242.207C86.5229 242.236 86.5229 242.265 86.5522 242.265L86.6399 242.207C86.6691 242.879 86.8153 247.294 87.3123 249.75C87.4585 250.364 90.119 250.773 89.4758 249.311C88.8326 247.879 88.2771 244.02 89.7097 237.88C90.3821 235.015 91.3761 232.238 91.6977 229.314C91.7269 229.168 91.7269 228.992 91.7562 228.846C91.9316 227.384 91.7269 226.449 91.3469 225.806ZM89.0665 227.034C89.3296 227.034 89.5342 227.238 89.5342 227.472C89.5342 227.706 89.3296 227.911 89.0665 227.911C88.8033 227.911 88.5987 227.706 88.5987 227.472C88.5987 227.209 88.8033 227.034 89.0665 227.034ZM86.2306 226.244C86.2306 226.01 86.4352 225.806 86.6984 225.806C86.9615 225.806 87.1661 226.01 87.1661 226.244C87.1661 226.478 86.9615 226.683 86.6984 226.683C86.4352 226.683 86.2306 226.478 86.2306 226.244Z" fill="#FCBF35"/>
<path d="M70.5317 226.828C72.1982 225.834 75.0341 227.121 75.0341 228.553C75.0341 232.88 71.0872 253.199 70.8826 254.485C70.6779 255.772 68.4852 256.123 68.339 254.485C68.1344 251.913 67.7543 242.996 68.1344 238.844C68.2806 237.149 68.456 235.511 68.6314 234.079C66.5556 237.821 63.3689 243.142 59.042 250.1L56.7031 249.018C58.545 242.937 60.0653 238.669 61.2347 236.155C63.252 231.886 65.1523 228.202 65.9417 226.916C67.1988 224.899 69.3623 225.6 70.5317 226.828Z" fill="#3E0444"/>
<path d="M56.5586 245.658L64.6277 226.567C66.5573 223.467 71.9659 227.21 71.3227 228.993C69.8317 233.086 62.2304 246.301 61.7918 247.529L56.5586 245.658Z" fill="#C259D8"/>
<path d="M56.1305 247.811C55.621 248.226 55.3004 248.548 55.1396 248.826C54.9496 249.155 54.7371 249.64 54.4876 250.306C54.8674 250.526 58.1842 252.441 64.438 256.051C65.1882 255.337 65.2994 254.793 64.7862 254.396C64.273 253.998 63.8465 253.684 63.496 253.414L60.0467 248.688C59.9746 248.579 59.8441 248.571 59.7603 248.658L59.0472 249.192C58.3946 249.152 57.9057 249.005 57.5766 248.815C57.3234 248.669 57.0021 248.348 56.6779 247.857C56.5952 247.708 56.3341 247.693 56.1305 247.811Z" fill="#77057A"/>
<path d="M67.5227 253.464C67.2888 254.078 67.1719 254.516 67.1719 254.838C67.1719 255.218 67.2303 255.744 67.3473 256.446C67.7858 256.446 71.6157 256.446 78.837 256.446C79.1294 255.452 78.954 254.926 78.3108 254.838C77.6676 254.75 77.1413 254.692 76.7028 254.633L71.3526 252.265C71.2357 252.207 71.1187 252.265 71.0895 252.382L70.7387 253.201C70.1539 253.493 69.6569 253.61 69.2769 253.61C68.9845 253.61 68.546 253.493 68.0197 253.23C67.8735 253.142 67.6397 253.23 67.5227 253.464C67.5227 253.435 67.5227 253.435 67.5227 253.464Z" fill="#77057A"/>
<path d="M75.2986 230.016C75.2986 235.424 72.7258 248.054 72.7258 249.253H67.2002C68.0188 237.997 68.3112 232.296 68.0481 232.179C67.6972 232.004 53.5763 233.583 49.3371 233.583C43.2268 233.583 40.7125 229.723 40.5078 222.59H52.6115C55.0673 222.853 67.9311 225.455 72.6966 226.332C74.7139 226.741 75.2986 228.525 75.2986 230.016Z" fill="#D26EEA"/>
<path d="M46.1528 193.032C45.2172 191.921 44.574 190.576 44.691 189.056C44.9833 184.7 51.0644 185.665 52.2631 187.857C53.4325 190.05 53.3156 195.634 51.7661 196.043C51.1521 196.19 49.8657 195.809 48.5501 195.02L49.3687 200.867H44.4863L46.1528 193.032Z" fill="#3E0444"/>
<path d="M59.453 206.92L67.2298 209.083C69.0424 208.908 70.6211 208.937 71.9952 209.171C72.3461 209.317 72.8431 209.668 71.7321 209.99C70.6211 210.311 69.4517 210.721 69.4517 211.13C69.4517 211.539 70.2703 211.744 70.1534 212.358C70.0656 212.767 68.8085 212.299 66.3527 210.925L59.3945 210.691L59.453 206.92Z" fill="#3E0444"/>
<path d="M33.9294 211.305L38.4025 211.334C35.0112 222.356 33.1985 228.115 32.9939 228.642C32.5261 229.811 33.5201 231.594 33.9587 232.559C32.5554 233.173 32.7308 230.864 30.9766 231.682C29.3686 232.413 28.17 233.787 26.2989 232.647C26.065 232.501 25.8311 231.974 26.4158 231.565C27.9068 230.542 30.0703 228.729 30.3627 228.145C30.7427 227.297 31.9414 221.713 33.9294 211.305Z" fill="#3E0444"/>
<path d="M46.209 202.71L48.7233 199.26C57.1725 204.581 62.8735 203.762 65.3878 206.54C66.3233 207.563 65.7971 208.615 66.4403 208.732L65.2416 211.305C64.6861 211.1 64.3645 212.211 62.5519 212.533C60.7685 212.884 51.7638 212.913 46.209 202.71Z" fill="#77057A"/>
<path d="M50.4775 199.961C50.2729 212.942 57.7865 216.275 56.1201 221.479C54.746 225.777 41.5313 230.396 39.2217 226.186C38.2861 224.49 37.8768 222.415 37.8184 220.163C37.2336 221.888 36.7659 223.379 36.4443 224.607C35.8595 226.742 33.5791 227.092 33.5791 227.911L30.5678 227.092C30.7725 225.981 29.3692 225.426 29.7492 222.912C31.4449 211.656 36.0057 203.499 43.4317 198.441L43.5194 197.33C43.5486 196.892 43.9287 196.541 44.3964 196.57L49.8928 196.95C50.3313 196.979 50.6822 197.359 50.6529 197.827L50.4775 199.961Z" fill="#861B8E"/>
<path d="M52.9322 190.84C52.9322 191.746 53.4877 192.477 53.6339 193.325C53.7216 193.793 53.7216 193.968 53.2246 194.056C52.8445 194.114 52.4937 194.056 52.2891 193.763" fill="#3E0444"/>
<path d="M52.1743 190.46C52.0281 190.402 51.9111 190.343 51.765 190.314C51.648 190.285 51.5018 190.285 51.3849 190.314C51.1218 190.343 50.8294 190.431 50.5078 190.431C50.6248 190.314 50.7417 190.226 50.8879 190.168C51.0341 190.109 51.1802 190.051 51.3557 190.021C51.5311 190.021 51.7065 190.021 51.8527 190.109C51.9988 190.197 52.1158 190.314 52.1743 190.46Z" fill="#E792FC"/>
<path d="M51.5874 191.396C51.7166 191.396 51.8213 191.291 51.8213 191.162C51.8213 191.032 51.7166 190.928 51.5874 190.928C51.4582 190.928 51.3535 191.032 51.3535 191.162C51.3535 191.291 51.4582 191.396 51.5874 191.396Z" fill="#DC8FEF"/>
<path d="M52.5798 194.845C52.3751 194.962 52.1997 194.991 51.9951 194.933C51.7904 194.904 51.5858 194.787 51.498 194.582C51.7319 194.582 51.8781 194.611 52.0535 194.641C52.2289 194.699 52.4044 194.728 52.5798 194.845Z" fill="#E792FC"/>
<path d="M75.1516 206.656C75.2686 206.48 75.2394 206.276 75.0932 206.1C74.9178 205.925 74.6546 205.896 74.4792 206.071C74.3038 206.246 74.3038 206.51 74.4792 206.685C74.6254 206.831 74.8593 206.86 75.0055 206.773L75.3271 207.123L75.444 207.007L75.1516 206.656Z" fill="#3E0444"/>
<path d="M76.2044 205.72C76.3213 205.545 76.2921 205.34 76.1459 205.165C75.9705 204.989 75.7074 204.96 75.532 205.135C75.3565 205.311 75.3565 205.574 75.532 205.749C75.6781 205.896 75.912 205.925 76.0582 205.837L76.3798 206.188L76.4967 206.071L76.2044 205.72Z" fill="#3E0444"/>
<path d="M77.3743 204.755C77.4912 204.58 77.462 204.375 77.3158 204.2C77.1404 204.024 76.8773 203.995 76.7019 204.171C76.5265 204.346 76.5265 204.609 76.7019 204.785C76.8481 204.931 77.0819 204.96 77.2281 204.872L77.5497 205.223L77.6667 205.106L77.3743 204.755Z" fill="#3E0444"/>
<path d="M59.9193 225.426C60.9425 224.754 62.609 225.251 64.1292 223.789C66.9359 220.251 63.8954 216.275 63.8954 216.275C63.8954 216.275 61.4395 211.89 57.0834 213.088C55.1246 213.907 54.9199 215.632 53.8967 216.304C52.5226 217.24 49.5697 215.544 45.9445 217.971C40.7697 221.45 45.0674 227.794 45.4767 228.35C45.8568 228.963 49.9498 235.425 55.183 232.063C58.896 229.694 58.5159 226.332 59.9193 225.426Z" fill="#EEC5FC"/>
<path d="M77.6935 209.989C77.6058 209.784 77.4011 209.696 77.1965 209.726L76.9918 209.287L76.8164 209.346L77.0211 209.784C76.8749 209.901 76.7872 210.106 76.9041 210.31C77.0211 210.544 77.2549 210.632 77.4888 210.544C77.6935 210.486 77.7812 210.223 77.6935 209.989Z" fill="#3E0444"/>
<path d="M78.9786 209.374C78.8909 209.169 78.6863 209.081 78.4816 209.11L78.277 208.672L78.1016 208.73L78.3062 209.169C78.16 209.286 78.0723 209.49 78.1893 209.695C78.3062 209.929 78.5401 210.017 78.774 209.929C78.9786 209.841 79.0663 209.607 78.9786 209.374Z" fill="#3E0444"/>
<path d="M80.3243 208.702C80.2366 208.497 80.032 208.409 79.8273 208.439L79.6227 208L79.4473 208.058L79.6519 208.497C79.5057 208.614 79.418 208.819 79.535 209.023C79.6519 209.257 79.8858 209.345 80.1197 209.257C80.3536 209.199 80.4413 208.936 80.3243 208.702Z" fill="#3E0444"/>
<path d="M59.1693 222.718C60.4028 221.89 60.7028 220.176 59.8392 218.888C58.9757 217.601 57.2757 217.229 56.0421 218.056C54.8086 218.884 54.5086 220.598 55.3722 221.885C56.2357 223.173 57.9357 223.545 59.1693 222.718Z" fill="#D26EEA"/>
<path d="M75.8818 209.842L74.537 207.824L57.6094 218.349L59.4805 221.185L75.8818 209.842Z" fill="#861B8E"/>
<path d="M58.7486 222.089C59.647 221.486 59.8648 220.237 59.2351 219.298C58.6054 218.36 57.3667 218.087 56.4684 218.69C55.57 219.293 55.3522 220.542 55.9819 221.481C56.6116 222.419 57.8503 222.692 58.7486 222.089Z" fill="#3E0444"/>
<path d="M49.1785 222.568L48.1523 223.242L51.2507 227.958L52.2768 227.283L49.1785 222.568Z" fill="#D26EEA"/>
<path d="M80.4719 206.45L80.1503 205.573L79.4487 204.93C79.0101 204.521 78.3377 204.521 77.8699 204.901L74.5078 207.824L75.8527 209.871L79.858 207.941C80.4135 207.649 80.6766 207.035 80.4719 206.45ZM76.0573 207.503C75.9404 207.327 75.9696 207.123 76.1158 207.006L78.1331 205.515C78.2792 205.398 78.5131 205.427 78.6301 205.573C78.747 205.719 78.7178 205.953 78.5716 206.07L76.5543 207.561C76.4081 207.678 76.1743 207.649 76.0573 207.503ZM77.256 208.731C77.0806 208.818 76.8759 208.76 76.7882 208.614C76.7005 208.438 76.759 208.234 76.9052 208.146L79.0686 206.889C79.244 206.801 79.4487 206.859 79.5364 207.006C79.6241 207.181 79.5656 207.386 79.4194 207.473L77.256 208.731Z" fill="#EEC5FC"/>
<path d="M74.005 208.242L73.8828 208.322L75.135 210.228L75.2571 210.148L74.005 208.242Z" fill="#BABABA"/>
<path d="M71.0597 210.195L70.9375 210.275L72.1897 212.181L72.3118 212.101L71.0597 210.195Z" fill="#BABABA"/>
<path d="M68.0968 212.123L67.9746 212.203L69.2268 214.109L69.3489 214.029L68.0968 212.123Z" fill="#BABABA"/>
<path d="M65.1495 214.076L65.0273 214.156L66.2795 216.062L66.4017 215.982L65.1495 214.076Z" fill="#BABABA"/>
<path d="M62.1886 216.004L62.0664 216.084L63.3186 217.99L63.4407 217.909L62.1886 216.004Z" fill="#BABABA"/>
<path d="M59.2179 217.972L59.0957 218.053L60.3479 219.958L60.47 219.878L59.2179 217.972Z" fill="#BABABA"/>
<path d="M76.2036 209.697L74.8002 207.592L74.5371 207.826L75.882 209.843L76.2036 209.697Z" fill="#3E0444"/>
<path d="M74.6253 207.949L49.7715 224.27L49.8196 224.343L74.6734 208.022L74.6253 207.949Z" fill="white"/>
<path d="M74.8361 208.265L49.9883 224.592L50.0364 224.665L74.8843 208.339L74.8361 208.265Z" fill="white"/>
<path d="M75.0812 208.606L50.2363 224.941L50.2845 225.015L75.1294 208.679L75.0812 208.606Z" fill="white"/>
<path d="M75.2853 208.971L50.4375 225.297L50.4857 225.37L75.3335 209.044L75.2853 208.971Z" fill="white"/>
<path d="M75.506 209.291L50.6582 225.617L50.7064 225.69L75.5542 209.364L75.506 209.291Z" fill="white"/>
<path d="M75.7522 209.639L50.8984 225.959L50.9466 226.032L75.8004 209.712L75.7522 209.639Z" fill="white"/>
<path d="M49.2219 223.438L48.9043 223.646L51.1518 227.067L51.4694 226.858L49.2219 223.438Z" fill="#861B8E"/>
<path d="M71.3805 212.766C71.1759 212.327 70.9712 211.713 71.0297 211.216C71.1466 210.514 71.936 210.456 72.5792 210.397C73.1347 210.368 73.6317 210.456 73.7486 211.07C73.8363 211.625 73.4563 211.918 73.1054 212.298C72.8715 212.619 71.7021 213.613 71.3805 212.766Z" fill="#3E0444"/>
<path d="M71.2634 209.082C71.5558 209.082 71.8189 209.141 72.1113 209.228C72.4036 209.316 72.7252 209.433 72.9006 209.696C73.0176 209.871 73.0761 210.076 72.8129 210.105C72.3452 210.193 71.9066 210.105 71.4389 210.076C71.0003 210.047 70.591 210.105 70.2109 210.105" fill="#3E0444"/>
<path d="M66.847 279.804H-4.69336C-4.69336 279.804 -2.50066 264.105 7.61497 261.853C7.61497 261.853 3.20034 237.032 13.8422 236.857C24.4841 236.681 29.8051 256.035 29.8051 256.035C29.8051 256.035 38.0496 254.574 41.9087 267.204C41.9087 267.204 53.0184 260.889 66.847 279.804Z" fill="#77057A"/>
<path d="M23.2556 242.762L18.5779 267.671L14.5141 246.27L13.9294 246.387L19.4549 275.389L3.81372 263.402L3.46289 263.87L19.6304 276.237L20.3028 279.833L20.8875 279.745L18.8702 269.249L23.8403 242.879L23.2556 242.762Z" fill="#AE41C4"/>
<path d="M35.1602 257.429L34.0684 279.768L34.6524 279.796L35.7442 257.457L35.1602 257.429Z" fill="#AE41C4"/>
<path d="M53.9334 268.06L51.1309 279.715L51.6994 279.852L54.5019 268.197L53.9334 268.06Z" fill="#AE41C4"/>
<path d="M271.559 222.86C272.159 221.789 273.616 220.889 274.859 222.131C275.63 222.903 277.644 225.174 279.83 227.874C281.115 229.46 282.915 232.245 285.315 236.231L283.815 237.388C279.53 233.188 276.316 229.931 274.216 227.66" fill="#B28B67"/>
<path d="M281.201 236.146C280.687 235.374 272.973 227.274 271.173 224.617C270.402 223.46 273.573 219.86 275.502 221.703L284.544 233.874L281.201 236.146Z" fill="#861B8E"/>
<path d="M285.431 235.923C285.304 235.801 285.113 235.789 285.027 235.938C284.738 236.266 284.477 236.461 284.243 236.524C283.987 236.624 283.62 236.66 283.142 236.631L282.671 236.161C282.597 236.118 282.501 236.112 282.48 236.149L279.473 239.214C279.196 239.351 278.877 239.562 278.44 239.805C278.003 240.047 278.038 240.414 278.519 241.038C283.455 239.088 286.07 238.074 286.363 237.995C286.259 237.49 286.149 237.08 286.049 236.824C285.971 236.532 285.775 236.27 285.431 235.923Z" fill="#9D2FAD"/>
<path d="M263.413 235.116C262.898 234.601 262.341 234.173 261.784 233.83L256.941 240.73L257.413 241.201L257.884 241.673L264.784 236.83C264.355 236.187 263.927 235.63 263.413 235.116Z" fill="#DC8FEF"/>
<path d="M256.814 228.945C249.743 228.945 244 234.688 244 241.759C244 248.83 249.743 254.573 256.814 254.573C263.885 254.573 269.628 248.83 269.628 241.759C269.628 234.688 263.885 228.945 256.814 228.945ZM256.814 252.173C251.071 252.173 246.4 247.502 246.4 241.759C246.4 236.016 251.071 231.345 256.814 231.345C262.557 231.345 267.228 236.016 267.228 241.759C267.228 247.502 262.599 252.173 256.814 252.173Z" fill="#77057A"/>
<path d="M250.17 248.317C250.685 248.831 251.242 249.26 251.799 249.602L256.641 242.703L256.17 242.231L255.699 241.76L248.799 246.602C249.27 247.288 249.699 247.802 250.17 248.317Z" fill="#DC8FEF"/>
<path d="M256.814 240.174C255.957 240.174 255.271 240.86 255.271 241.717C255.271 242.574 255.957 243.259 256.814 243.259C257.671 243.259 258.357 242.574 258.357 241.717C258.357 240.86 257.671 240.174 256.814 240.174Z" fill="#77057A"/>
<path d="M305.069 235.116C304.555 234.601 303.997 234.173 303.44 233.83L298.598 240.73L299.069 241.201L299.54 241.673L306.44 236.83C306.012 236.187 305.583 235.63 305.069 235.116Z" fill="#DC8FEF"/>
<path d="M298.47 228.945C291.399 228.945 285.656 234.688 285.656 241.759C285.656 248.83 291.399 254.573 298.47 254.573C305.541 254.573 311.284 248.83 311.284 241.759C311.284 234.688 305.541 228.945 298.47 228.945ZM298.47 252.173C292.727 252.173 288.056 247.502 288.056 241.759C288.056 236.016 292.727 231.345 298.47 231.345C304.213 231.345 308.884 236.016 308.884 241.759C308.884 247.502 304.213 252.173 298.47 252.173Z" fill="#77057A"/>
<path d="M291.869 248.317C292.384 248.831 292.941 249.26 293.498 249.602L298.341 242.703L297.869 242.231L297.398 241.76L290.498 246.602C290.927 247.288 291.355 247.802 291.869 248.317Z" fill="#DC8FEF"/>
<path d="M298.471 240.174C297.613 240.174 296.928 240.86 296.928 241.717C296.928 242.574 297.613 243.259 298.471 243.259C299.328 243.259 300.013 242.574 300.013 241.717C300.056 240.86 299.328 240.174 298.471 240.174Z" fill="#77057A"/>
<path d="M298.34 240.387L287.883 224.102L289.555 219.559L288.269 219.088L286.641 223.459H264.313L267.141 215.53C267.313 215.016 266.97 214.502 266.413 214.502H262.641C260.927 214.502 259.47 215.83 259.384 217.545C259.299 219.088 260.327 220.373 261.699 220.759C262.127 220.887 262.599 220.545 262.599 220.116C262.599 219.816 262.384 219.516 262.084 219.473C261.313 219.259 260.713 218.488 260.799 217.588C260.841 216.645 261.699 215.916 262.684 215.916H265.641L262.899 223.459L262.727 223.93L262.599 224.316L257.027 240.344C257.584 240.387 258.013 240.73 258.184 241.201L263.713 225.387L277.255 238.887C277.512 238.501 277.855 238.201 278.241 237.901L265.084 224.83H286.212L281.669 237.301C282.141 237.43 282.526 237.601 282.912 237.901L287.369 225.73L297.226 241.072H284.669C284.669 241.158 284.669 241.244 284.669 241.33C284.669 241.715 284.626 242.101 284.498 242.487H297.397C297.269 242.272 297.226 242.058 297.226 241.801C297.097 241.03 297.654 240.43 298.34 240.387Z" fill="#3E0444"/>
<path d="M261.655 220.802C262.084 220.931 262.555 220.588 262.555 220.159C262.555 219.859 262.341 219.559 262.041 219.517C261.27 219.302 260.67 218.531 260.755 217.631C260.798 216.774 261.441 216.131 262.255 215.96C262.17 215.231 261.87 214.888 261.612 214.717C260.37 215.102 259.427 216.217 259.341 217.588C259.255 219.131 260.241 220.417 261.655 220.802Z" fill="#3E0444"/>
<path d="M290.499 221.445C293.413 221.445 293.241 219.345 293.241 219.345C293.156 218.874 292.899 218.445 292.256 218.316C291.527 218.145 290.756 218.316 289.984 218.316C289.127 218.316 288.27 218.316 287.413 218.316H284.113C283.642 218.316 283.299 218.659 283.299 219.045C283.299 219.388 283.599 219.688 283.985 219.774C284.756 219.859 285.57 220.031 286.299 220.331C287.67 220.759 288.956 221.359 290.499 221.445C290.456 221.445 290.499 221.445 290.499 221.445Z" fill="#77057A"/>
<path d="M298.385 240.386L280.771 237.215L280.729 237.386L297.914 240.515C298.085 240.386 298.257 240.386 298.385 240.386Z" fill="#DC8FEF"/>
<path d="M297.829 242.916L280.43 245.145V245.316L298.258 243.045C298.129 243.045 298.001 243.002 297.829 242.916Z" fill="#DC8FEF"/>
<path d="M280.474 245.4C278.202 245.4 276.359 243.557 276.359 241.286C276.359 239.015 278.202 237.172 280.474 237.172C282.745 237.172 284.588 239.015 284.588 241.286C284.588 243.515 282.702 245.4 280.474 245.4ZM280.474 237.943C278.631 237.943 277.174 239.443 277.174 241.243C277.174 243.086 278.674 244.543 280.474 244.543C282.316 244.543 283.773 243.043 283.773 241.243C283.773 239.443 282.273 237.943 280.474 237.943Z" fill="#DC8FEF"/>
<path d="M280.476 240.215C279.876 240.215 279.404 240.686 279.404 241.286C279.404 241.886 279.876 242.358 280.476 242.358C281.076 242.358 281.547 241.886 281.547 241.286C281.547 240.686 281.033 240.215 280.476 240.215Z" fill="#DC8FEF"/>
<path d="M280.476 240.986C280.304 240.986 280.176 241.115 280.176 241.286C280.176 241.458 280.304 241.586 280.476 241.586C280.647 241.586 280.776 241.458 280.776 241.286C280.776 241.115 280.647 240.986 280.476 240.986Z" fill="#DC8FEF"/>
<path d="M279.888 241.523L275.611 244.455L275.926 244.915L280.203 241.982L279.888 241.523Z" fill="#DC8FEF"/>
<path d="M277.046 244.285H274.817C274.603 244.285 274.432 244.457 274.432 244.671V244.885C274.432 245.099 274.603 245.271 274.817 245.271H277.046C277.26 245.271 277.432 245.099 277.432 244.885V244.671C277.432 244.457 277.26 244.285 277.046 244.285Z" fill="#DC8FEF"/>
<path d="M274.127 227.745C274.684 228.645 275.284 229.716 275.884 230.788C277.384 233.445 279.784 239.53 280.384 241.33C280.77 242.445 279.184 242.873 278.67 242.102C278.156 241.33 269.456 228.859 268.17 225.945C267.742 224.959 269.242 223.288 270.656 223.459" fill="#B28B67"/>
<path d="M280.426 240.474C280.298 240.346 280.126 240.388 279.998 240.517C279.698 240.86 279.484 241.031 279.269 241.117C279.012 241.246 278.669 241.288 278.155 241.288L277.684 240.817C277.641 240.774 277.512 240.774 277.469 240.817L274.598 243.988C274.341 244.16 273.998 244.374 273.57 244.588C273.141 244.845 273.184 245.231 273.698 245.831C278.541 243.688 281.112 242.531 281.412 242.403C281.284 241.888 281.155 241.503 281.069 241.288C280.984 241.117 280.769 240.817 280.426 240.474Z" fill="#9D2FAD"/>
<path d="M268.942 223.845C271.856 221.831 279.699 216.26 281.285 215.36L289.384 211.76C291.356 216.602 290.841 219.945 286.727 221.745C283.899 222.988 273.956 226.159 273.785 226.374C273.656 226.545 275.542 230.273 279.442 237.559L275.713 239.187C275.37 238.373 269.885 230.702 268.256 227.059C267.828 226.116 267.656 224.745 268.942 223.845Z" fill="#9D2FAD"/>
<path d="M276.959 204.047L273.402 204.432L273.53 200.104C272.631 200.79 271.731 201.175 271.259 201.09C270.102 200.918 269.545 196.89 270.231 195.175C270.916 193.461 275.245 192.304 275.845 195.433C276.059 196.547 275.673 197.575 275.073 198.432L276.959 204.047Z" fill="#EEC5FC"/>
<path d="M270.185 194.447C270.056 194.918 270.228 195.432 271.042 195.304C271.985 196.204 273.228 196.718 273.356 196.718C273.356 196.718 273.828 195.947 274.342 196.204C274.942 196.504 274.942 197.147 274.685 197.661C274.556 197.961 274.342 198.347 274.77 198.604C275.499 198.989 277.042 197.747 277.256 196.804C277.599 195.047 276.613 192.861 274.728 192.732C274.813 192.39 275.242 192.218 275.542 192.132C276.27 191.918 277.042 191.961 277.77 192.047C278.67 192.132 279.57 192.304 280.513 192.218C280.985 192.175 281.413 192.047 281.842 191.832C282.27 191.618 282.613 191.318 282.956 191.018C283.299 190.718 283.727 190.718 284.156 190.804C284.584 190.89 285.013 191.018 285.442 191.147C286.342 191.49 287.156 191.918 288.099 192.175C288.784 192.347 289.513 192.39 290.241 192.347C291.484 192.218 292.941 191.79 293.627 190.675C294.098 189.904 294.013 189.004 293.584 188.233C293.198 187.504 292.598 187.033 291.87 186.647C291.098 186.261 290.284 185.961 289.384 186.004C288.441 186.047 287.584 186.433 286.856 186.99C286.127 187.547 285.527 188.104 284.627 188.361C283.727 188.618 282.827 188.575 281.927 188.404C280.985 188.19 280.085 187.975 279.142 188.018C278.242 188.061 277.299 188.233 276.528 188.661C275.799 189.047 275.285 189.69 274.942 190.461C274.77 190.847 274.642 191.275 274.599 191.704C274.599 191.875 274.556 192.004 274.556 192.175C274.556 192.304 274.599 192.475 274.556 192.604C274.47 192.732 274.299 192.732 274.171 192.732C273.956 192.775 272.671 192.947 272.199 193.075C271.471 193.29 270.314 193.975 270.185 194.447Z" fill="#3E0444"/>
<path d="M270.015 197.576C270.015 198.09 269.672 198.605 269.672 199.076C269.715 199.376 270.058 199.333 270.358 199.333" fill="#EEC5FC"/>
<path d="M270.357 197.148C270.4 197.019 270.486 196.933 270.572 196.89C270.7 196.848 270.829 196.805 270.915 196.805C271.043 196.805 271.172 196.848 271.257 196.89C271.343 196.933 271.472 197.019 271.515 197.148C271.3 197.062 271.129 197.019 270.915 197.019C270.743 197.019 270.572 197.019 270.357 197.148Z" fill="#3E0444"/>
<path d="M270.4 200.06C270.529 199.974 270.658 199.932 270.786 199.889C270.915 199.846 271.043 199.803 271.215 199.846C271.086 199.974 271 200.017 270.872 200.103C270.7 200.146 270.529 200.146 270.4 200.06Z" fill="#3E0444"/>
<path d="M270.701 197.661C270.795 197.661 270.872 197.584 270.872 197.49C270.872 197.395 270.795 197.318 270.701 197.318C270.606 197.318 270.529 197.395 270.529 197.49C270.529 197.584 270.606 197.661 270.701 197.661Z" fill="#3E0444"/>
<path d="M273.697 217.246L268.683 216.303C266.711 216.903 265.726 217.031 265.726 216.731C265.726 216.26 266.369 216.26 266.411 215.96C266.454 215.66 265.726 215.189 264.954 214.76C264.226 214.331 264.611 214.16 264.911 214.117C265.94 214.16 267.054 214.374 268.34 214.803L274.254 214.503L273.697 217.246Z" fill="#EEC5FC"/>
<path d="M267.955 217.672C266.755 217.587 265.726 217.672 264.869 217.93C263.241 218.401 262.512 218.444 261.312 218.015C260.669 217.801 259.812 217.03 259.941 216.515C260.026 216.172 261.998 216.344 262.641 216.13C263.241 215.915 261.955 214.93 262.341 214.844C262.726 214.63 263.369 214.93 264.269 215.787L266.883 215.658L267.955 217.672Z" fill="#EEC5FC"/>
<path d="M275.754 216.26C273.911 217.46 271.04 217.546 268.597 216.989L268.254 214.546C271.297 214.589 273.568 213.646 275.111 212.703C276.825 213.089 277.168 215.317 275.754 216.26Z" fill="#D26EEA"/>
<path d="M272.454 202.674L275.968 200.488C276.354 200.231 282.097 203.66 284.111 206.917C285.954 209.916 289.897 210.088 291.354 215.616C288.782 216.602 283.382 223.116 280.683 221.359C279.354 220.502 278.368 219.302 277.597 217.845C275.24 219.259 271.897 220.245 267.526 220.545C266.926 219.73 266.497 218.059 266.24 215.488C270.954 214.459 273.997 213.259 275.368 211.845C274.511 208.631 273.783 205.288 272.454 202.674Z" fill="#FCBF35"/>
<path d="M367.057 212.555C366.886 212.384 366.757 212.212 366.586 212.041C364.443 209.684 359.472 206.084 359.9 202.784C360.286 199.784 362.343 196.613 362.986 193.527C364.314 187.228 363.843 180.071 358.743 175.528C357.329 174.242 355.272 173.214 354.243 171.542C353.129 169.785 353.772 168.842 354.072 166.914C354.672 162.886 354.158 158.386 351.501 155.171C346.572 149.3 340.272 150.029 340.272 150.029C340.272 150.029 331.144 149.557 329.516 158.471C327.887 167.385 329.73 168.542 329.73 168.542C329.73 168.542 320.344 174.628 319.444 185.17C318.545 195.713 321.33 199.227 323.173 202.484C323.173 202.484 318.973 209.255 317.302 213.969C315.673 218.641 315.202 226.398 318.459 231.283C322.187 236.897 329.387 238.826 335.73 239.169C344.944 239.683 355.915 240.583 364.486 236.426C369.543 233.983 373.7 228.755 373.143 223.141C372.671 219.026 369.843 215.641 367.057 212.555Z" fill="#77057A"/>
<path d="M360.93 216.54L348.03 220.654L351.373 213.326L347.13 220.954L341.473 222.754V219.54L341.602 157.742L340.959 193.312L337.059 190.141L336.288 183.113L336.373 189.541L329.088 183.541L340.959 194.47L339.459 279.709L341.388 279.967L341.473 223.911L360.93 216.54Z" fill="#DC8FEF"/>
<path fill-rule="evenodd" clip-rule="evenodd" d="M308.258 271.653C325.957 268.096 334.614 275.81 337.314 279.881C337.7 278.51 331.357 272.424 324.029 270.839C319.872 269.896 310.015 270.11 308.258 271.653Z" fill="#A911BA"/>
<path fill-rule="evenodd" clip-rule="evenodd" d="M307.1 272.466C305.728 271.523 302.643 270.751 299 276.066C305.343 276.923 306.843 274.094 307.1 272.466Z" fill="#A911BA"/>
<path fill-rule="evenodd" clip-rule="evenodd" d="M310.357 269.853C310.4 268.181 309.329 265.181 302.9 265.096C305.686 270.881 308.857 270.581 310.357 269.853Z" fill="#A911BA"/>
<path fill-rule="evenodd" clip-rule="evenodd" d="M312.671 272.765C311.042 272.337 307.871 272.68 306.285 278.894C312.585 277.565 313.014 274.394 312.671 272.765Z" fill="#A911BA"/>
<path fill-rule="evenodd" clip-rule="evenodd" d="M317.471 269.252C318.157 267.752 318.371 264.538 312.543 261.924C312.8 268.352 315.8 269.338 317.471 269.252Z" fill="#A911BA"/>
<path fill-rule="evenodd" clip-rule="evenodd" d="M319.871 272.166C318.285 271.652 315.114 271.78 313.143 277.909C319.485 276.923 320.128 273.794 319.871 272.166Z" fill="#A911BA"/>
<path fill-rule="evenodd" clip-rule="evenodd" d="M324.799 269.467C325.485 267.967 325.699 264.753 319.871 262.139C320.128 268.567 323.128 269.553 324.799 269.467Z" fill="#A911BA"/>
<path fill-rule="evenodd" clip-rule="evenodd" d="M327.326 274.18C325.912 273.28 322.827 272.552 319.312 277.909C325.698 278.68 327.155 275.809 327.326 274.18Z" fill="#A911BA"/>
<path fill-rule="evenodd" clip-rule="evenodd" d="M332.256 272.939C333.285 271.653 334.313 268.611 329.256 264.625C327.928 270.882 330.628 272.596 332.256 272.939Z" fill="#A911BA"/>
<path fill-rule="evenodd" clip-rule="evenodd" d="M333.455 277.009C332.126 276.023 329.041 275.123 325.227 280.266C331.526 281.423 333.155 278.68 333.455 277.009Z" fill="#A911BA"/>
<path fill-rule="evenodd" clip-rule="evenodd" d="M338.04 278.08C339.326 277.009 340.868 274.181 336.626 269.338C334.183 275.295 336.497 277.438 338.04 278.08Z" fill="#A911BA"/>
<path fill-rule="evenodd" clip-rule="evenodd" d="M333.371 256.439C341.385 268.482 338.257 277.224 336.114 280.439C337.228 280.31 339.799 273.753 338.771 267.882C338.214 264.496 335.042 257.254 333.371 256.439Z" fill="#A911BA"/>
<path fill-rule="evenodd" clip-rule="evenodd" d="M332.428 255.796C332.728 254.51 332.342 251.982 327.328 250.91C328.614 255.881 331.142 256.139 332.428 255.796Z" fill="#A911BA"/>
<path fill-rule="evenodd" clip-rule="evenodd" d="M335.343 257.425C336.585 256.954 338.471 255.239 336.585 250.439C333.157 254.254 334.357 256.525 335.343 257.425Z" fill="#A911BA"/>
<path fill-rule="evenodd" clip-rule="evenodd" d="M333.885 260.038C333.714 258.71 332.514 256.481 327.414 257.167C330.328 261.41 332.771 260.767 333.885 260.038Z" fill="#A911BA"/>
<path fill-rule="evenodd" clip-rule="evenodd" d="M337.957 262.526C339.285 262.568 341.728 261.797 341.899 256.654C337.185 258.754 337.4 261.326 337.957 262.526Z" fill="#A911BA"/>
<path fill-rule="evenodd" clip-rule="evenodd" d="M336.542 265.181C336.456 263.852 335.385 261.538 330.242 261.924C332.899 266.338 335.385 265.866 336.542 265.181Z" fill="#A911BA"/>
<path fill-rule="evenodd" clip-rule="evenodd" d="M340.013 268.01C341.342 268.053 343.785 267.281 343.956 262.139C339.242 264.239 339.456 266.81 340.013 268.01Z" fill="#A911BA"/>
<path fill-rule="evenodd" clip-rule="evenodd" d="M337.314 271.31C337.571 269.981 337.143 267.495 332.086 266.51C333.5 271.481 336.029 271.695 337.314 271.31Z" fill="#A911BA"/>
<path fill-rule="evenodd" clip-rule="evenodd" d="M339.712 274.568C340.998 274.953 343.527 274.782 344.984 269.811C339.927 270.753 339.498 273.282 339.712 274.568Z" fill="#A911BA"/>
<path fill-rule="evenodd" clip-rule="evenodd" d="M337.055 276.709C337.398 275.424 337.141 272.895 332.127 271.609C333.241 276.623 335.77 276.966 337.055 276.709Z" fill="#A911BA"/>
<path fill-rule="evenodd" clip-rule="evenodd" d="M337.656 280.438C338.856 281.038 341.385 281.338 343.699 276.753C338.556 276.71 337.656 279.11 337.656 280.438Z" fill="#A911BA"/>
<path fill-rule="evenodd" clip-rule="evenodd" d="M312.07 260.125C331.398 264.153 336.755 275.638 337.784 280.867C338.769 279.667 334.955 270.839 328.355 266.082C324.498 263.339 314.513 259.353 312.07 260.125Z" fill="#E792FC"/>
<path fill-rule="evenodd" clip-rule="evenodd" d="M310.527 260.424C309.542 258.881 306.756 256.782 300.842 260.553C306.884 264.196 309.584 262.01 310.527 260.424Z" fill="#E792FC"/>
<path fill-rule="evenodd" clip-rule="evenodd" d="M314.943 259.225C315.671 257.554 315.885 254.082 309.457 251.254C309.8 258.239 313.1 259.311 314.943 259.225Z" fill="#E792FC"/>
<path fill-rule="evenodd" clip-rule="evenodd" d="M316.013 263.168C314.556 262.054 311.256 261.025 306.971 266.597C313.87 267.925 315.67 264.968 316.013 263.168Z" fill="#E792FC"/>
<path fill-rule="evenodd" clip-rule="evenodd" d="M322.356 261.711C323.685 260.468 325.313 257.383 320.556 252.197C318.028 258.754 320.642 261.068 322.356 261.711Z" fill="#E792FC"/>
<path fill-rule="evenodd" clip-rule="evenodd" d="M323.511 265.61C322.139 264.41 318.882 263.167 314.297 268.481C321.111 270.238 323.082 267.41 323.511 265.61Z" fill="#E792FC"/>
<path fill-rule="evenodd" clip-rule="evenodd" d="M329.641 265.053C330.97 263.81 332.598 260.725 327.841 255.539C325.313 262.139 327.927 264.41 329.641 265.053Z" fill="#E792FC"/>
<path fill-rule="evenodd" clip-rule="evenodd" d="M330.156 270.839C329.128 269.339 326.342 267.282 320.471 271.182C326.599 274.696 329.256 272.425 330.156 270.839Z" fill="#E792FC"/>
<path fill-rule="evenodd" clip-rule="evenodd" d="M335.641 271.74C337.27 270.883 339.541 268.269 336.199 262.098C332.17 267.797 334.141 270.669 335.641 271.74Z" fill="#E792FC"/>
<path fill-rule="evenodd" clip-rule="evenodd" d="M335.084 276.367C334.184 274.782 331.484 272.553 325.398 276.11C331.27 279.967 334.098 277.867 335.084 276.367Z" fill="#E792FC"/>
<path fill-rule="evenodd" clip-rule="evenodd" d="M339.241 279.411C340.998 278.854 343.741 276.711 341.598 270.025C336.541 274.911 337.955 278.125 339.241 279.411Z" fill="#E792FC"/>
<path d="M59.0004 118.586C59.0004 120.565 56.7746 122.148 54.0379 122.148C52.3229 122.148 50.8268 121.537 49.9146 120.565C49.7321 120.385 48.0171 120.313 48.2361 120.169C48.5645 119.917 49.2213 119.522 49.1848 119.27C49.1118 119.054 49.0753 118.802 49.0753 118.55C49.0753 116.571 51.3012 114.988 54.0379 114.988C56.7746 114.988 59.0004 116.607 59.0004 118.586Z" fill="white"/>
<path d="M15.541 112.217C15.541 113.944 16.7816 115.491 18.6791 116.427C19.117 116.643 18.825 117.974 18.898 118.19C18.971 118.406 20.613 117.11 20.8684 117.182C21.5982 117.362 22.401 117.434 23.2402 117.434C27.5095 117.434 30.9759 115.095 30.9759 112.217C30.9759 109.339 27.5095 107 23.2402 107C18.971 107 15.541 109.339 15.541 112.217Z" fill="white"/>
<path d="M5.98108 127.579L8.06099 127.436C6.85685 132.617 6.20002 135.315 6.12704 135.567C5.9446 136.107 6.45544 136.898 6.71086 137.33C6.09055 137.654 6.09054 136.61 5.28777 137.042C4.55799 137.438 4.04717 138.086 3.13494 137.618C3.02548 137.546 2.87951 137.33 3.17142 137.114C3.82823 136.61 4.77693 135.711 4.8864 135.423C5.03236 135.027 5.39725 132.401 5.98108 127.579Z" fill="#F9F1FD"/>
<path d="M11.8926 121.321L12.6953 121.141C14.3009 125.566 21.1973 128.157 21.7082 129.812C21.8906 130.423 21.4892 130.747 21.7082 130.927L20.6865 131.755C20.504 131.575 20.1391 131.97 19.2999 131.755C18.4971 131.539 12.2575 126.646 11.8926 121.321Z" fill="#610466"/>
<path d="M14.2654 116.75C14.5938 117.938 15.0316 120.636 14.5937 121.032H11.8206C10.7989 120.924 9.99609 120.061 9.99609 119.017V117.038C9.99609 115.923 10.9083 115.023 12.0395 115.023H12.2219C13.2801 115.059 14.1194 115.779 14.2654 116.75Z" fill="#AE41C4"/>
<path d="M11.0905 118.658C10.6526 118.155 10.3607 117.543 10.3972 116.823C10.5431 114.808 13.3893 115.24 13.9367 116.284C14.484 117.291 14.411 119.882 13.7177 120.061C13.4258 120.133 12.842 119.954 12.2216 119.594L12.6231 122.292H10.3242L11.0905 118.658Z" fill="#F9F1FD"/>
<path d="M11.7105 118.334C11.82 119.45 11.7835 120.709 11.4551 121.033H8.6819C8.53594 118.406 10.032 119.414 10.032 116.931C10.1415 116.859 10.2145 116.751 10.2874 116.679V116.607C10.7618 115.636 11.3821 115.168 12.1119 115.168C13.2066 115.168 13.5714 115.672 13.8634 116.103C13.6444 116.859 12.7687 116.967 12.0024 117.435C11.9294 117.363 11.7835 117.327 11.674 117.327C11.3821 117.327 11.1632 117.543 11.1632 117.83C11.1632 118.118 11.3821 118.334 11.7105 118.334C11.674 118.334 11.7105 118.334 11.7105 118.334Z" fill="#AE41C4"/>
<path d="M27.5455 136.936C25.6481 135.065 24.371 133.698 23.6412 132.762C22.437 131.179 21.4518 129.776 21.1234 129.236C20.3571 127.941 22.364 127.077 22.9114 127.689C23.7141 128.588 25.5386 131.431 28.3848 136.288L27.5455 136.936Z" fill="#B28B67"/>
<path d="M24.9191 136.575L20.9783 129.092C20.1755 127.724 23.3136 126.465 23.8609 127.077C25.138 128.48 28.4221 134.129 28.787 134.524L24.9191 136.575Z" fill="#F79F03"/>
<path d="M23.0075 137.403C22.5312 136.328 21.0383 132.493 20.5848 130.648C20.452 130.124 20.3191 129.601 20.2146 129.1C19.8833 127.677 22.5168 126.812 22.7684 128.218C23.3922 131.683 24.0622 136.576 24.1331 137.004C24.2253 137.633 23.2873 138.09 23.0075 137.403Z" fill="#B28B67"/>
<path d="M22.5462 137.015C22.4626 137.301 22.3841 137.507 22.3922 137.636C22.3819 137.797 22.4479 138.043 22.5088 138.37C22.7215 138.365 24.4915 138.287 27.8634 138.203C28.0072 137.743 27.8913 137.51 27.6155 137.478C27.3081 137.429 27.0639 137.415 26.8695 137.388L24.3521 136.374C24.3206 136.356 24.2524 136.401 24.234 136.432L24.0954 136.812C23.8093 136.941 23.5915 137.026 23.4286 137.017C23.2973 137.025 23.0714 136.98 22.8506 136.855C22.6878 136.846 22.588 136.872 22.5462 137.015C22.5646 136.984 22.5646 136.984 22.5462 137.015Z" fill="#500456"/>
<path d="M26.7806 136.72C26.7077 136.971 26.6712 137.187 26.7077 137.295C26.7077 137.439 26.7806 137.655 26.8536 137.943C27.0361 137.907 28.6416 137.763 31.6702 137.439C31.7432 137.007 31.6702 136.792 31.3783 136.792C31.1229 136.792 30.8674 136.792 30.685 136.756L28.3497 136C28.3132 136 28.2402 136 28.2402 136.072L28.1307 136.432C27.8753 136.576 27.6929 136.648 27.5469 136.684C27.4375 136.684 27.255 136.648 26.9996 136.576C26.9266 136.54 26.8171 136.612 26.7806 136.72C26.7806 136.684 26.7806 136.684 26.7806 136.72Z" fill="#500456"/>
<path d="M20.0292 132.187C18.9345 134.417 17.9858 135.785 15.5775 137.044C12.9138 138.087 10.7609 137.224 9.44727 134.237L13.8625 131.539C14.5558 131.359 17.3289 127.437 22.8023 126.718C23.824 126.61 24.2619 127.833 24.4443 128.265C24.4443 128.301 25.5755 130.927 26.8527 136.18L21.8171 136.108L20.4305 132.115C20.2846 131.935 20.1751 131.935 20.0292 132.187Z" fill="#FCBF35"/>
<path d="M13.3161 121.823C13.6445 127.796 17.257 129.091 16.6732 131.538C16.1623 133.553 10.1781 136.107 8.97393 134.272C8.49957 133.517 8.20764 132.581 8.13466 131.538C7.91572 132.365 7.76976 133.049 7.6238 133.625C7.40486 134.632 6.38315 134.848 6.38315 135.244L4.96011 134.956C5.03309 134.416 4.33978 134.236 4.44925 133.049C4.85063 127.832 6.71157 123.91 9.9956 121.356V120.852C9.9956 120.636 10.178 120.492 10.3605 120.492H12.9147C13.1337 120.492 13.2796 120.672 13.2796 120.852L13.3161 121.823Z" fill="#77057A"/>
<path d="M20.2845 127.293C20.2845 127.293 21.0872 128.409 21.2697 128.588C21.4521 128.768 21.5251 128.876 21.5616 128.768C21.7076 128.409 21.4521 128.049 21.4521 127.977C21.5251 127.761 22.2549 128.265 22.3279 128.301C22.4738 128.409 23.0941 128.804 22.9482 128.337C22.8022 127.869 22.036 126.61 21.5616 126.394C21.1967 126.25 20.2844 126.394 20.029 126.717C19.8466 126.933 19.5547 127.473 19.5547 127.545C19.5912 127.617 20.2845 127.293 20.2845 127.293Z" fill="#F9F1FD"/>
<path d="M13.7168 118.01C13.6803 118.01 13.6073 117.974 13.5343 118.01C13.4614 118.334 13.8627 118.154 13.7168 118.01Z" fill="#AE41C4"/>
<path d="M14.2641 118.514C14.2276 118.694 14.629 119.305 14.483 119.413C14.41 119.485 14.0816 119.377 14.0451 119.269C13.9356 119.161 14.1181 118.694 14.2641 118.514Z" fill="#F9F1FD"/>
<path d="M13.2422 117.939C13.3152 117.831 13.4247 117.759 13.5341 117.723C13.6436 117.687 13.7895 117.687 13.899 117.759C13.7895 117.795 13.6801 117.831 13.5706 117.867C13.4611 117.903 13.3881 117.903 13.2422 117.939Z" fill="#AE41C4"/>
<path d="M14.1178 119.629C14.0084 119.665 13.8989 119.665 13.7894 119.665C13.6799 119.665 13.5705 119.629 13.4975 119.665L13.534 119.557C13.607 119.629 13.68 119.701 13.7529 119.737C13.8259 119.809 13.8989 119.845 14.0083 119.881C13.8989 119.881 13.7894 119.881 13.7165 119.809C13.607 119.773 13.534 119.701 13.461 119.629L13.3516 119.521H13.534C13.6435 119.521 13.7529 119.557 13.8624 119.557L14.1178 119.629Z" fill="#AE41C4"/>
<path d="M33.7485 129.882L30.8294 127.292C29.2968 126.896 28.6035 126.608 28.7495 126.392C28.932 126.104 29.3698 126.356 29.5158 126.176C29.6617 125.996 29.3698 125.385 29.0414 124.845C28.713 124.269 29.0779 124.341 29.2604 124.413C29.9172 124.845 30.574 125.421 31.2308 126.212L35.2081 128.335L33.7485 129.882Z" fill="#500456"/>
<path d="M42.7625 128.084C39.7703 133.229 34.4794 133.589 29.5898 131.035L32.29 126.141C37.435 129.02 40.865 127.401 42.8354 123.551L44.6964 124.09C44.295 125.35 43.5287 126.753 42.7625 128.084Z" fill="#D26EEA"/>
<path d="M40.3904 133.805L46.1557 137.295C43.9663 140.569 41.6311 141.648 38.7119 139.885C36.705 138.662 31.633 134.416 31.4141 134.38" fill="#861B8E"/>
<path d="M30.0268 130.962C30.7565 131.538 31.2674 132.689 30.2092 133.481C29.5159 133.984 27.582 135.208 25.3196 136.539C24.006 137.33 21.6707 138.374 18.4231 139.705L17.6934 138.482C21.3423 135.747 24.1155 133.697 26.0859 132.365C29.4429 130.207 30.0268 130.962 30.0268 130.962Z" fill="#500456"/>
<path d="M31.8155 132.33C31.852 132.582 31.779 132.762 31.706 132.942C31.0857 134.489 29.8816 135.748 28.7504 136.864C27.5828 138.015 26.3056 139.022 24.9555 139.958C24.4447 140.318 23.7879 139.382 24.0433 138.987C24.3352 138.591 28.568 132.006 29.7721 130.963C30.283 130.495 31.6696 131.503 31.8155 132.258C31.8155 132.294 31.8155 132.294 31.8155 132.33Z" fill="#500456"/>
<path d="M19.7536 139.546C19.7771 139.434 19.7374 139.287 19.6244 139.264C19.3037 139.165 19.0828 139.04 18.9933 138.905C18.8223 138.766 18.7063 138.534 18.5823 138.171L18.7761 137.697C18.8128 137.635 18.768 137.568 18.7049 137.532L15.6711 136.391C15.4686 136.235 15.2345 136.06 14.9372 135.849C14.64 135.639 14.3854 135.786 14.0918 136.286C16.9362 139.113 18.4597 140.604 18.6307 140.743C18.972 140.52 19.2134 140.324 19.3367 140.185C19.4549 140.127 19.5833 139.908 19.7536 139.546C19.7352 139.577 19.7536 139.546 19.7536 139.546Z" fill="#F9F1FD"/>
<path d="M19.9922 136.035C20.649 135.747 27.7644 131.106 29.9903 130.134C30.9755 129.702 33.2378 132.545 31.5958 133.732L21.2328 138.841L19.9922 136.035Z" fill="#861B8E"/>
<path d="M26.3792 139.275C26.3427 139.167 26.1968 139.131 26.0873 139.167C25.7954 139.311 25.54 139.383 25.394 139.383C25.1751 139.383 24.9196 139.311 24.5912 139.167L24.4088 138.699C24.3723 138.627 24.2993 138.627 24.2628 138.627L21.2707 139.958C21.0153 139.994 20.7234 140.03 20.3585 140.066C19.9936 140.102 19.9206 140.39 20.0666 140.966C24.1169 140.93 26.2333 140.93 26.4887 140.93C26.5617 140.534 26.5981 140.246 26.5981 140.03C26.5616 139.85 26.5252 139.598 26.3792 139.275Z" fill="#F9F1FD"/>
<path d="M31.1217 129.883C33.6395 130.854 40.5359 133.337 41.7766 133.949L48.0527 134.812C48.4541 140.209 43.0172 141.792 40.0981 140.029C38.0912 138.806 32.2164 134.812 31.9975 134.812C31.8515 134.812 31.0488 135.028 27.2174 139.274L24.2617 137.582C24.6266 137.007 26.67 133.337 28.7864 130.854C29.3337 130.207 30.027 129.451 31.1217 129.883Z" fill="#9D2FAD"/>
<path d="M45.5363 125.78H42.7996L43.2739 122.541C42.5442 122.973 41.8144 123.189 41.486 123.117C40.6467 122.901 40.5372 119.807 41.2305 118.62C41.8873 117.396 45.2808 116.893 45.4633 119.267C45.5363 120.095 45.1714 120.85 44.6605 121.462L45.5363 125.78Z" fill="#500456"/>
<path d="M42.9455 119.592L43.1644 118.908L44.5145 118.801V118.693C42.9455 118.693 41.8508 118.621 41.2305 118.477C41.267 117.937 41.8143 117.361 43.2739 117.361C44.9159 117.361 45.7916 118.297 45.7916 119.376C45.7916 120.384 45.1348 121.571 44.6605 121.607C44.551 121.571 44.4415 121.427 44.3321 121.211C44.551 121.103 44.6605 120.887 44.6605 120.599C44.6605 120.312 44.405 120.024 44.0766 120.024C43.9672 120.024 43.8577 120.06 43.7482 120.132C43.5658 119.808 43.2739 119.592 42.9455 119.592Z" fill="#9D2FAD"/>
<path d="M54.5478 140.281C54.6937 140.605 55.9344 141.612 56.7737 142.152C57.1021 142.368 56.9561 142.655 56.8466 142.763C55.8249 143.375 55.1316 142.655 54.2559 142.224C53.2707 141.792 53.3437 143.051 52.5774 142.691C52.8328 142.152 53.3802 141.18 53.1247 140.533C53.0153 140.245 51.5922 137.079 48.8555 130.998H51.3368C53.2707 136.755 54.3288 139.849 54.5478 140.281Z" fill="#500456"/>
<path d="M45.4626 122.688H45.6451C50.0238 126.573 52.87 132.078 54.2201 139.202H48.2358C48.1993 137.871 48.1993 137.835 48.0899 136.576L40.3906 134.309C41.2299 130.639 42.4705 128.408 42.4705 123.407L45.4626 122.688Z" fill="#DC8FEF"/>
<path d="M48.0903 136.539L46.0469 135.928C46.4847 134.272 46.9956 131.214 46.7767 128.084C47.397 130.351 47.8713 134.021 48.0903 136.539Z" fill="#D26EEA"/>
<path d="M40.8289 120.383C40.9018 120.815 39.8436 121.822 40.8653 121.822L40.8289 120.383Z" fill="#500456"/>
<path d="M41.5221 120.275C41.2667 120.239 41.2667 120.526 41.4492 120.526C41.6681 120.526 41.6681 120.311 41.5221 120.275Z" fill="#9D2FAD"/>
<path d="M41.1582 119.988C41.2312 119.952 41.2677 119.916 41.3406 119.88C41.4136 119.844 41.4866 119.844 41.5961 119.844C41.6325 119.844 41.7055 119.88 41.742 119.88C41.7785 119.916 41.815 119.952 41.8515 119.952C41.888 120.024 41.9245 120.096 41.9609 120.168C41.888 120.168 41.815 120.096 41.742 120.096C41.669 120.06 41.6325 120.06 41.5961 120.06C41.5596 120.06 41.4866 120.06 41.4136 120.06C41.3041 120.024 41.2312 120.024 41.1582 119.988Z" fill="#9D2FAD"/>
<path d="M40.9023 122.326C41.0118 122.29 41.1578 122.254 41.2672 122.218C41.3767 122.182 41.4862 122.146 41.6321 122.146H41.6686L41.7051 122.182C41.7416 122.182 41.7416 122.254 41.7416 122.29C41.7051 122.362 41.6686 122.362 41.6686 122.362L41.5956 122.398C41.5591 122.434 41.4862 122.47 41.4497 122.47C41.3402 122.542 41.1943 122.578 41.0848 122.542C41.1943 122.47 41.3037 122.398 41.3767 122.326C41.4132 122.29 41.4862 122.254 41.5226 122.218L41.5956 122.182C41.5956 122.182 41.5956 122.146 41.5956 122.218C41.5956 122.254 41.5956 122.29 41.5956 122.29L41.6321 122.326C41.6321 122.326 41.6321 122.326 41.6686 122.326C41.5591 122.326 41.4132 122.362 41.3037 122.362C41.1578 122.362 41.0118 122.362 40.9023 122.326Z" fill="#9D2FAD"/>
</g>
<defs>
<clipPath id="clip0">
<rect width="360" height="280" fill="white"/>
</clipPath>
</defs>
</svg>
