<svg width="309" height="205" viewBox="0 0 309 205" fill="none" xmlns="http://www.w3.org/2000/svg">
<g filter="url(#filter0_d)">
<path d="M99.9862 89.1528L154.693 81.9463L164.584 156.913L109.877 164.12L99.9862 89.1528Z" fill="#27A8A5"/>
<path d="M131.313 125.296C135.342 124.771 139.371 124.245 143.225 123.72C146.028 123.37 147.254 121.795 146.904 118.994C146.203 113.393 145.502 107.967 144.802 102.366C144.451 100.44 143.575 98.8647 141.473 98.8647C139.897 98.8647 140.247 96.9393 138.846 96.9393C137.269 96.9393 138.145 99.0398 136.919 99.2148C135.692 99.3898 134.641 99.5649 134.116 97.9895C133.415 96.4142 133.065 94.3137 130.963 94.1387C128.335 93.7886 125.532 94.1387 123.08 95.3639C121.503 96.0641 121.678 97.9895 121.328 99.3899C121.153 100.265 121.328 101.315 120.102 101.49C119.051 101.665 118.175 101.84 117.649 100.44C117.124 99.3898 115.897 99.7399 115.722 100.79C115.547 102.015 114.846 102.19 113.97 102.716C112.569 103.416 112.043 104.816 112.219 106.391C112.919 112.168 113.62 117.944 114.496 123.545C114.846 125.996 116.423 127.046 119.051 126.871C122.904 126.346 127.109 125.821 131.313 125.296ZM128.16 103.066C132.014 102.541 136.043 102.015 139.897 101.49C141.473 101.315 142.174 101.665 142.349 103.416C143.05 108.667 143.575 113.918 144.451 119.169C144.626 120.745 144.101 121.445 142.524 121.62C134.641 122.67 126.758 123.72 119.051 124.771C117.474 124.946 116.598 124.595 116.423 122.845C115.897 117.594 115.197 112.518 114.321 107.442C114.146 105.691 114.671 104.991 116.423 104.816C120.277 104.116 124.131 103.416 128.16 103.066ZM127.809 100.44C126.758 100.615 125.707 100.79 124.831 100.79C124.306 100.79 123.78 100.965 123.605 100.265C123.255 98.8647 124.306 97.2894 125.707 97.1143C126.758 96.9393 127.809 96.9393 129.036 96.5892C131.138 96.2391 131.488 97.9895 131.663 99.0398C132.014 100.44 130.437 99.7399 129.736 99.915C129.211 100.44 128.51 100.265 127.809 100.44Z" fill="white"/>
<path d="M129.911 118.294C132.714 117.944 135.517 117.594 138.32 117.244C139.196 117.069 140.247 116.894 140.072 115.844C139.896 114.618 139.02 114.619 137.969 114.794C132.364 115.494 126.758 116.194 121.152 117.069C120.276 117.244 119.225 117.244 119.401 118.469C119.576 119.87 120.627 119.52 121.678 119.52C124.656 118.995 127.284 118.644 129.911 118.294Z" fill="white"/>
<path d="M129.386 110.067C132.014 109.717 134.816 109.367 137.444 109.017C138.32 108.842 139.371 108.842 139.196 107.616C139.021 106.391 137.97 106.566 137.094 106.741C131.488 107.441 125.882 108.142 120.277 109.017C119.401 109.192 118.525 109.192 118.525 110.242C118.7 111.467 119.576 111.467 120.452 111.292C123.43 110.767 126.408 110.417 129.386 110.067Z" fill="white"/>
<path d="M114.847 143.5L154.086 138.249C154.612 138.249 154.962 137.723 154.787 137.198C154.787 136.673 154.262 136.323 153.736 136.498L114.496 141.749C113.971 141.749 113.62 142.274 113.796 142.8C113.971 143.325 114.321 143.675 114.847 143.5Z" fill="white"/>
<path d="M121.503 148.925L147.78 145.425C148.305 145.425 148.656 144.899 148.481 144.374C148.481 143.849 147.955 143.499 147.429 143.674L121.153 147.175C120.627 147.175 120.277 147.7 120.452 148.225C120.627 148.575 121.153 148.925 121.503 148.925Z" fill="white"/>
<path d="M40.5422 65.0939L90.0723 40.781L123.362 108.682L73.8316 132.995L40.5422 65.0939Z" fill="#073099"/>
<path d="M74.7995 76.2629C73.184 75.4084 71.4489 75.1739 71.3091 72.8223C71.176 71.4613 69.8081 70.6049 68.4453 70.4914C65.595 70.1415 63.2467 70.7785 61.1561 72.8993C60.5412 73.5231 60.051 74.2698 60.799 75.0071C62.0455 76.2358 63.1691 77.5894 64.4157 78.8182C66.1593 80.2908 68.5126 80.3968 69.8637 78.7768C71.213 76.9092 72.2086 77.6446 73.3306 78.7505C71.4826 80.1266 70.1315 81.7466 68.5328 83.3684C67.4277 84.7389 65.568 84.3815 64.3365 85.3814C63.597 85.8823 62.2358 86.0165 62.8642 87.3738C63.4925 88.7311 64.478 87.9807 65.2176 87.4798C66.8213 86.6008 67.6888 86.7181 68.3206 88.5706C69.0769 90.5461 70.0792 92.272 70.9586 94.1227C71.7099 95.3552 71.4673 96.1 70.1095 96.7294C69.616 96.9808 69.1224 97.2322 68.7517 97.3589C68.1352 97.735 68.0139 98.1074 68.2666 98.8484C68.6422 99.4647 69.0145 99.5857 69.6328 99.4572C72.1058 98.9431 73.5815 97.446 73.8123 94.9678C73.9302 94.1002 74.3008 93.9735 74.9191 93.845C77.0197 93.2099 79.2451 92.6978 81.6018 93.299C85.943 94.3805 86.0659 94.2557 88.0201 90.2785C88.7512 88.5394 89.484 87.048 91.9671 88.0197C93.4562 88.5037 94.9319 87.0066 96.2897 86.3772C96.7833 86.1258 96.6553 85.5077 96.5289 85.1372C96.2779 84.6438 95.904 84.2751 95.2857 84.4036C94.9151 84.5303 94.2969 84.6588 93.9279 85.0331C92.4489 86.0349 91.5779 85.4224 90.8249 83.9422C89.9456 82.0915 89.1909 80.3637 88.1886 78.6378C87.4356 77.1576 87.5535 76.2899 89.2836 75.7815C89.7772 75.5301 90.2707 75.2787 90.6414 75.1521C91.1349 74.9007 91.0069 74.2825 90.7559 73.7891C90.5049 73.2957 90.1309 72.9271 89.5127 73.0557C88.1549 73.6851 86.4232 73.9459 85.6904 75.4373C85.0789 76.5564 84.09 76.8115 83.0995 76.819C81.4907 76.9551 79.7556 76.7206 78.4028 78.0929C77.9109 78.5919 77.537 78.2233 77.5336 77.728C77.2809 76.987 77.1512 76.1212 77.1462 75.3783C77.0164 74.5125 77.2624 74.263 78.1283 74.1326C81.7181 73.9816 83.8104 72.1083 83.7868 68.6414C83.6453 66.0422 83.1332 63.5696 82.6211 61.097C82.4914 60.2312 81.6238 60.114 80.8809 60.1196C76.7975 60.5221 73.5918 62.5276 71.7589 66.1324C70.6589 68.2457 70.9216 70.4726 72.7865 71.5728C75.0236 72.7941 74.9107 74.4047 74.7995 76.2629ZM80.8876 79.3123C82.7457 79.422 84.843 78.2917 86.2142 79.6433C87.5855 80.995 88.2189 83.0952 88.8506 84.9478C89.2296 86.0593 87.7455 86.3182 87.2553 87.0649C86.5225 88.5563 86.2917 91.0346 84.5599 91.2954C82.9528 91.679 81.2127 90.7016 79.4758 90.2195L79.2282 90.2214C78.4836 89.9794 77.2471 90.2364 77.3651 89.3688C77.4796 88.0058 77.4695 86.52 78.8256 85.643C82.1561 83.7603 82.5216 82.8908 80.8876 79.3123ZM71.4151 88.4233C71.4084 87.4328 69.5452 86.5802 70.5257 85.0868C72.3669 82.7202 74.4558 80.3517 78.0524 81.1912C78.6724 81.3103 79.4153 81.3046 79.422 82.2952C79.427 83.0381 78.8088 83.1666 78.0659 83.1723C77.0754 83.1798 76.0848 83.1873 75.096 83.4424C73.8595 83.6995 73.3726 84.9414 74.3665 85.4291C75.982 86.2837 75.2442 87.0322 75.0033 88.0246C74.7607 88.7694 74.5181 89.5142 74.8955 90.3781C75.1482 91.1191 74.7792 91.4934 74.161 91.6219C73.4198 91.8752 73.0475 91.7542 72.7948 91.0132C72.2945 90.274 71.7941 89.5349 71.4151 88.4233ZM78.3018 63.2348C79.7826 62.4806 80.7731 62.4731 80.9112 64.5771C81.0426 65.6905 81.2987 66.9268 81.4301 68.0402C81.5615 69.1536 81.1976 70.2708 80.4598 71.0193C79.7219 71.7679 78.979 71.7735 78.1098 71.4086C77.1159 70.9209 77.6061 70.1742 77.7257 69.5542C77.8453 68.9341 78.2125 68.3122 78.3321 67.6922C78.5747 66.9474 78.5697 66.2045 77.7004 65.8396C76.8312 65.4748 76.4639 66.0967 75.9737 66.8434C75.8524 67.2157 75.6082 67.7129 75.4869 68.0853C75.2426 68.5824 75.4987 69.8187 74.6294 69.4539C73.6372 69.2137 73.7534 68.0984 74.2437 67.3518C75.0978 65.4879 76.5751 64.2385 78.3018 63.2348ZM64.874 73.3664C66.1104 73.1094 67.8372 72.1057 68.7148 73.7087C69.2168 74.6955 68.9793 76.1832 67.8708 77.0584C67.0083 77.6841 64.7695 76.2152 64.0165 74.735C63.6392 73.8711 64.2574 73.7426 64.874 73.3664Z" fill="white"/>
<path d="M74.1996 115.519L109.743 98.1619C110.236 97.9105 110.358 97.5382 110.107 97.0448C109.856 96.5514 109.483 96.4304 108.99 96.6818L73.4466 114.039C72.953 114.291 72.8317 114.663 73.0827 115.156C73.3337 115.65 73.829 115.646 74.1996 115.519Z" fill="white"/>
<path d="M82.267 118.306L106.085 106.61C106.579 106.359 106.7 105.986 106.449 105.493C106.198 104.999 105.826 104.878 105.332 105.13L81.514 116.826C81.0204 117.078 80.8992 117.45 81.1502 117.943C81.4012 118.437 81.7735 118.558 82.267 118.306Z" fill="white"/>
<path d="M166.134 59.3099L219.389 73.7551L199.571 146.732L146.315 132.287L166.134 59.3099Z" fill="#1174BA"/>
<path d="M169.519 101.295C169.301 101.983 169.257 102.682 169.038 103.369C168.568 105.269 169.365 106.547 170.895 107.344C171.234 107.541 171.409 107.552 171.747 107.749C179.866 109.836 178.063 110.6 180.097 103.362C180.315 102.674 180.534 101.986 180.578 101.287C180.829 100.075 181.55 99.7698 182.589 100.01C183.801 100.262 184.468 100.83 184.031 102.205C183.385 104.094 183.079 106.179 182.434 108.068C181.789 109.957 182.434 110.874 184.346 111.17C185.559 111.421 186.586 111.836 187.799 112.088C191.077 112.995 192.355 112.198 193.438 108.934C193.634 108.595 193.656 108.246 193.853 107.908C194.083 107.045 194.312 106.183 194.367 105.309C194.597 104.447 194.291 103.726 193.417 103.671C192.554 103.442 192.171 103.944 191.952 104.631C191.723 105.494 191.504 106.182 191.285 106.87C190.87 107.896 191.121 109.49 189.886 109.588C188.466 109.85 186.936 109.052 185.384 108.604C184.696 108.386 185.1 107.534 185.133 107.01C185.582 105.46 186.041 103.735 186.489 102.184C186.981 99.9351 186.184 98.6574 184.13 97.827C181.037 96.7561 179.256 97.1705 178.24 99.3867C177.638 100.577 177.376 101.963 176.939 103.339C176.031 106.614 176.577 106.298 173.125 105.38C172.775 105.358 172.611 105.172 172.261 105.15C171.048 104.899 170.743 104.178 171.169 102.977C171.595 101.776 171.847 100.564 172.098 99.3522C172.328 98.4897 172.383 97.6162 171.345 97.3757C170.307 97.1352 170.088 97.823 169.859 98.6855C169.968 99.7447 169.749 100.433 169.519 101.295Z" fill="white"/>
<path d="M172.909 89.2308C173.094 91.8732 170.745 92.9535 168.559 94.2195C167.827 94.6997 166.232 94.9503 167.018 96.4028C167.794 98.0299 168.93 96.6981 169.837 96.2288C174.569 93.5442 179.476 90.8705 184.219 88.0111C186.044 86.8979 186.918 86.9527 187.847 88.9402C190.359 93.6578 193.221 98.3973 195.919 102.951C196.072 103.311 196.225 103.672 196.389 103.858C196.87 104.589 197.35 105.321 198.269 104.677C199.361 104.044 198.881 103.312 198.575 102.592C196.838 99.5011 195.101 96.4106 193.353 93.4948C191.922 91.1251 190.677 88.5916 189.246 86.2219C187.968 84.2125 186.427 83.5897 184.416 84.8666C182.395 86.3182 180.471 86.1976 178.242 85.3562C173.566 84.3613 174.462 84.0667 172.909 89.2308ZM178.22 88.5117C177.302 89.1556 176.559 89.8105 175.313 90.0832C175.455 87.8121 176.199 87.1572 178.22 88.5117Z" fill="white"/>
<path d="M177.675 74.7977C176.288 74.5352 175.392 74.8298 175.818 76.435C176.101 77.5051 175.194 77.9743 174.801 78.6512C174.56 79.6884 174.495 80.7365 174.964 81.6429C175.27 82.3636 175.773 82.7459 176.494 82.4404C177.204 82.3096 177.587 81.8074 177.292 80.912C177.15 80.377 176.822 80.0056 177.38 79.5145C179.052 78.0409 178.626 76.4357 177.675 74.7977Z" fill="white"/>
<path d="M183.128 80.2256C183.532 79.3741 183.762 78.5116 183.303 77.4305C182.997 76.7098 182.866 76 181.992 75.9452C181.118 75.8904 180.735 76.3925 180.506 77.255C180.986 77.9867 181.117 78.6965 180.199 79.3404C179.456 79.9953 179.226 80.8578 179.51 81.9279C179.805 82.8234 179.914 83.8825 181.149 83.7846C182.384 83.6867 182.264 82.8022 181.98 81.7321C181.849 81.0223 182.57 80.7168 183.128 80.2256Z" fill="white"/>
<path d="M178.22 88.5117C176.188 87.3319 175.455 87.8121 175.313 90.0832C176.559 89.8106 177.302 89.1556 178.22 88.5117Z" fill="white"/>
<path d="M156.502 118.543L194.647 128.828C195.16 129.036 195.532 128.709 195.74 128.195C195.947 127.682 195.62 127.311 195.106 127.103L156.961 116.818C156.447 116.611 156.076 116.938 155.868 117.451C155.66 117.964 155.988 118.336 156.502 118.543Z" fill="white"/>
<path d="M160.598 125.991L186.144 132.855C186.658 133.063 187.03 132.735 187.237 132.222C187.445 131.709 187.117 131.338 186.604 131.13L161.057 124.266C160.544 124.059 160.172 124.386 159.964 124.899C159.931 125.423 160.073 125.958 160.598 125.991Z" fill="white"/>
<path d="M207.261 52.3491L262.24 47.6987L268.574 123.058L213.595 127.709L207.261 52.3491Z" fill="#9E180A"/>
<path d="M235.275 61.5356C230.962 61.8734 226.492 62.2876 222.179 62.6254C220.846 62.6871 219.28 62.6676 219.102 64.3096C218.923 65.9517 218.425 68.1378 220.683 69.1838C221.929 69.7474 221.842 70.3727 220.657 71.141C219.315 71.9855 219.381 72.9259 220.784 73.4132C221.72 73.738 221.949 74.2107 221.939 74.9935C222.152 76.6404 222.132 78.2062 222.345 79.8531C222.335 80.6359 222.406 81.1849 221.384 81.4854C220.122 82.0961 220.107 83.2704 221.511 83.7576C222.604 84.0061 222.594 84.789 222.741 85.4955C222.802 86.8273 222.939 88.3167 223 89.6486C222.995 90.04 223.066 90.589 223.219 90.904C223.814 93.3387 225.528 94.0647 230.237 93.3404C232.826 93.0594 233.782 91.8185 233.813 89.47C233.676 87.9806 233.539 86.4912 233.325 84.8443C233.183 83.7463 233.193 82.9635 234.454 82.3528C235.558 81.8184 235.497 80.4866 234.246 80.3144C232.685 79.9035 233.087 79.1255 233.646 78.2712C235.009 75.8609 238.224 75.6661 239.841 77.8002C240.38 78.5116 241.153 79.3043 239.5 79.9101C238.396 80.4444 238.381 81.6187 239.708 81.9484C241.036 82.2781 241.025 83.061 241.091 84.0014C241.229 85.4908 241.208 87.0565 241.579 88.6271C241.94 90.9805 243.257 92.0931 245.607 92.1224C246.39 92.1321 247.097 91.9843 247.88 91.9941C251.644 91.7277 252.443 90.5632 252.255 86.9591C252.113 85.8612 252.128 84.6869 251.986 83.5889C251.843 82.491 251.62 81.6269 253.039 80.9399C254.3 80.3292 253.924 79.15 252.596 78.8203C251.503 78.5718 251.432 78.0228 251.442 77.24C251.305 75.7506 251.168 74.2612 250.954 72.6143C250.888 71.6739 250.893 71.2825 251.997 70.7481C253.258 70.1374 253.116 69.0395 251.712 68.5522C250.075 67.9837 250.395 67.4396 251.504 66.5139C253.167 65.1252 252.409 63.1583 252.038 61.5877C251.667 60.0171 250.253 60.3127 248.921 60.3744C244.216 60.7074 239.746 61.1215 235.275 61.5356ZM236.078 72.0376C238.743 71.9142 241.489 71.5569 244.154 71.4335C248.31 71.172 248.31 71.172 248.65 75.0912C248.914 78.8528 248.914 78.8528 245.15 79.1191C244.052 79.262 243.269 79.2523 242.816 77.9156C241.759 74.9271 239.272 73.4084 236.291 73.6845C233.469 73.8843 231.17 75.9697 230.661 78.9387C230.488 80.1894 230.015 80.4184 228.916 80.5613C224.837 80.9803 224.837 80.9803 224.578 76.8272C224.507 76.2783 224.593 75.653 224.522 75.104C224.151 73.5334 224.629 72.913 226.353 72.8561C229.41 72.7376 232.706 72.3088 236.078 72.0376ZM236.108 69.689C232.579 70.0366 229.049 70.3841 225.601 70.4978C224.894 70.6456 223.953 70.7122 224.045 69.6955C224.136 68.6787 225.072 69.0036 225.621 68.9321C232.523 68.3133 239.425 67.6946 246.403 67.2333C246.952 67.1619 248.056 66.6275 248.117 67.9594C248.259 69.0573 247.165 68.8088 246.458 68.9566C243.01 69.0703 239.48 69.4178 236.108 69.689ZM235.478 63.9654C239.557 63.5464 243.713 63.2849 247.634 62.9423C248.183 62.8708 249.287 62.3364 249.348 63.6683C249.49 64.7662 248.239 64.5941 247.69 64.6655C239.455 65.346 231.221 66.0265 222.987 66.7069C222.438 66.7784 221.258 67.1552 221.273 65.9809C221.365 64.9642 222.301 65.289 222.85 65.2176C227.244 64.6459 231.399 64.3844 235.478 63.9654ZM243.812 85.6012C243.746 84.6608 243.757 83.878 243.533 83.0139C243.538 82.6225 243.467 82.0735 244.016 82.002C245.506 81.864 247.475 81.1055 248.563 81.7454C250.348 83.0204 249.376 85.4356 249.742 87.3976C249.89 88.1042 250.037 88.8107 249.091 89.2687C246.019 90.5615 244.31 89.4441 243.96 86.3078C243.731 85.8351 243.812 85.6012 243.812 85.6012ZM225.304 87.1717C224.969 82.8611 224.415 83.324 227.787 83.0528C230.609 82.853 230.609 82.853 230.884 85.8318C231.026 86.9297 231.168 88.0277 231.077 89.0444C231.224 89.7509 231.061 90.2187 230.273 90.6004C226.733 91.7308 225.569 90.9333 225.223 87.4056C225.381 87.3292 225.381 87.3292 225.304 87.1717Z" fill="white"/>
<path d="M227.162 76.9379C228.103 76.8713 229.278 76.8859 229.217 75.5541C229.156 74.2223 228.057 74.3652 227.116 74.4318C226.175 74.4984 224.767 74.4026 224.904 75.8919C225.122 77.1474 226.379 76.9282 227.162 76.9379Z" fill="white"/>
<path d="M245.624 72.8619C244.683 72.9285 243.508 72.9138 243.493 74.0881C243.63 75.5775 244.886 75.3582 245.827 75.2916C246.768 75.2251 247.943 75.2397 247.882 73.9078C247.664 72.6524 246.407 72.8716 245.624 72.8619Z" fill="white"/>
<path d="M245.303 85.4636C245.369 86.404 245.353 87.5783 246.686 87.5166C248.018 87.4549 247.8 86.1994 247.734 85.259C247.668 84.3186 247.683 83.1443 246.351 83.206C245.094 83.4253 245.237 84.5232 245.303 85.4636Z" fill="white"/>
<path d="M226.952 86.9581C227.018 87.8985 227.003 89.0728 228.335 89.0111C229.668 88.9494 229.449 87.6939 229.46 86.911C229.393 85.9706 229.566 84.72 228.234 84.7817C226.744 84.9198 226.886 86.0177 226.952 86.9581Z" fill="white"/>
<path d="M220.232 109.659L259.679 106.313C260.228 106.242 260.467 105.931 260.396 105.382C260.325 104.833 260.015 104.595 259.466 104.666L220.019 108.012C219.469 108.083 219.23 108.393 219.302 108.942C219.296 109.334 219.841 109.654 220.232 109.659Z" fill="white"/>
<path d="M226.818 115.221L253.245 113.123C253.794 113.051 254.033 112.741 253.962 112.192C253.891 111.643 253.58 111.404 253.031 111.476L226.681 113.732C226.131 113.803 225.892 114.113 225.963 114.662C226.035 115.211 226.269 115.292 226.818 115.221Z" fill="white"/>
</g>
<defs>
<filter id="filter0_d" x="0.542236" y="0.781006" width="308.032" height="203.339" filterUnits="userSpaceOnUse" color-interpolation-filters="sRGB">
<feFlood flood-opacity="0" result="BackgroundImageFix"/>
<feColorMatrix in="SourceAlpha" type="matrix" values="0 0 0 0 0 0 0 0 0 0 0 0 0 0 0 0 0 0 127 0"/>
<feOffset/>
<feGaussianBlur stdDeviation="20"/>
<feColorMatrix type="matrix" values="0 0 0 0 0 0 0 0 0 0 0 0 0 0 0 0 0 0 0.25 0"/>
<feBlend mode="normal" in2="BackgroundImageFix" result="effect1_dropShadow"/>
<feBlend mode="normal" in="SourceGraphic" in2="effect1_dropShadow" result="shape"/>
</filter>
</defs>
</svg>
