<svg width="385" height="520" viewBox="0 0 385 520" fill="none" xmlns="http://www.w3.org/2000/svg">
<g clip-path="url(#clip0)">
<rect width="385" height="520" fill="white"/>
<path d="M386 -39H0V520H386V-39Z" fill="#E8F4E8"/>
<path d="M386 348H0V550H386V348Z" fill="url(#paint0_linear)"/>
<path d="M407 222C396.796 201.26 347 188 298.111 188C292.442 188 268.491 190.357 218.039 199.784C154.973 211.568 -24.3313 219.424 -30.0001 230.423C-35.6689 241.421 -65.1391 316.839 -18.0001 316.839C-10.1391 316.839 191.112 316.839 196.781 325.481C202.45 334.123 224.771 353.763 240.714 352.977C256.658 352.191 290.316 327.052 313.7 316.839C337.084 306.626 369.937 325.481 383.852 304.27C389.521 295.628 419.755 247.925 407 222Z" fill="#AFE868"/>
<path d="M248.103 152.934C245.393 149.323 244.941 143.305 246.447 140.145C247.802 136.985 253.673 136.835 253.673 136.835C253.673 136.835 252.77 123.744 260.9 125.098C269.03 126.452 265.116 145.261 265.116 145.261C265.116 145.261 273.246 147.518 272.944 156.846C272.643 166.175 267.374 167.981 267.374 167.981C267.374 167.981 276.558 172.495 273.697 183.328C271.891 190.55 267.675 197.622 259.545 198.375C254.426 198.826 249.307 196.419 245.995 192.507C242.984 189.046 240.726 184.08 241.027 179.266C241.328 174.752 244.189 170.99 246.899 167.68C247.049 167.529 247.049 167.529 247.049 167.379C247.049 167.228 246.899 167.078 246.748 166.927C245.393 165.423 242.984 165.122 242.984 160.909C243.135 154.74 248.404 153.386 248.103 152.934Z" fill="#137F3A"/>
<path d="M269.331 173.999L263.008 180.62L262.857 180.77L262.556 173.849L262.255 181.372L259.093 184.682L258.642 163.316L266.772 153.536L262.857 157.599L262.707 153.536L262.255 158.201L258.642 161.962L258.04 141.649V159.254V168.884L254.276 164.671L253.673 158.501L253.824 164.219L249.307 159.254L258.04 170.388V225.91L259.997 226.211L259.093 185.585L269.331 173.999Z" fill="#59C114"/>
<path d="M285.139 159.705C283.634 159.254 282.128 159.254 280.623 159.705C275.654 161.36 275.956 167.83 275.805 171.893C272.643 172.043 270.084 172.946 269.331 176.407C268.879 178.212 269.783 180.469 270.385 182.425C270.385 182.425 268.277 184.532 267.374 186.187C265.868 188.745 266.471 192.206 268.127 194.613C270.385 197.773 274.149 199.278 277.762 200.331C287.097 202.738 300.947 201.835 303.206 189.949C303.959 185.886 301.399 183.78 297.936 182.576C297.786 182.576 297.635 182.425 297.635 182.275C297.485 182.125 297.635 181.974 297.635 181.824C297.936 180.62 298.539 179.416 298.539 178.212C298.689 176.708 298.237 175.203 297.184 173.999C295.678 172.194 293.721 172.043 291.613 171.742C291.463 171.742 291.463 166.627 291.463 166.025C291.011 163.768 289.204 161.812 287.398 160.759C286.645 160.307 285.892 160.006 285.139 159.705Z" fill="#DC3579"/>
<path d="M295.979 188.444L284.085 193.259L283.483 166.777V181.522L277.16 178.062L283.483 182.275L283.784 229.22H284.838L284.085 194.011L295.979 188.444Z" fill="#137F3A"/>
<path d="M241.879 227.12C242.33 224.713 245.793 222.606 247.6 221.403C249.105 220.349 250.761 219.747 252.568 219.597C252.869 219.597 256.482 219.296 256.181 219.898C258.44 212.525 263.257 213.428 263.257 213.428C263.257 213.428 266.419 202.143 272.592 202.293C278.764 202.444 276.205 216.889 276.205 216.889C282.077 218.243 283.281 227.271 283.281 227.271C283.281 227.271 283.281 228.474 282.829 228.775C282.227 229.076 276.657 231.333 272.893 230.882C269.129 230.581 268.226 229.528 268.226 229.528C268.226 229.528 265.666 231.032 264.161 230.731C262.655 230.581 260.848 229.377 260.848 229.377C260.848 229.377 257.837 231.634 253.772 230.882C249.707 230.43 247.299 228.625 247.299 228.625C247.148 228.474 246.245 228.926 246.094 228.926C244.89 229.227 243.083 229.076 242.18 228.173C241.879 227.873 241.728 227.572 241.879 227.12Z" fill="#137F3A"/>
<path d="M272.291 207.861L268.226 229.227" stroke="#59C114" stroke-width="0.683999" stroke-miterlimit="10"/>
<path d="M266.87 205.754L269.731 221.102" stroke="#59C114" stroke-width="0.683999" stroke-miterlimit="10"/>
<path d="M278.463 217.942L268.978 225.165" stroke="#59C114" stroke-width="0.683999" stroke-miterlimit="10"/>
<path d="M259.945 214.331L260.848 229.528" stroke="#59C114" stroke-width="0.683999" stroke-miterlimit="10"/>
<path d="M249.105 220.5L251.514 230.581" stroke="#59C114" stroke-width="0.683999" stroke-miterlimit="10"/>
<path d="M201.016 200.145L206.645 219.917L210.761 234.483H213.752L209.389 200.145H201.016Z" fill="#59C114"/>
<path d="M199.502 200.145C199.361 210.347 198.939 215.871 198.798 216.821C198.658 217.736 196.582 223.646 192.606 234.483H195.702C200.804 224.069 203.618 218.193 204.216 216.821C204.814 215.449 206.644 209.89 209.388 200.145H199.502Z" fill="#70CE33"/>
<path d="M192.325 237.297L192.466 234.025H195.738C197.286 235.116 199.292 235.996 201.79 236.664V237.297H195.879L193.873 236.981V237.297H192.325Z" fill="#47AA0A"/>
<path d="M210.339 237.297L210.48 234.025H213.752C215.3 235.116 217.305 235.996 219.803 236.664V237.297H213.892L211.887 236.981V237.297H210.339Z" fill="#47AA0A"/>
<path d="M203.479 180.583C202.775 179.739 202.283 178.719 202.353 177.558C202.599 174.251 207.208 174.954 208.123 176.643C209.038 178.332 208.932 182.589 207.736 182.87C207.278 182.976 206.293 182.694 205.273 182.096L205.906 186.564H202.177L203.479 180.583Z" fill="#CB7A43"/>
<path d="M206.645 174.814C206.153 174.673 205.414 174.602 205.097 174.638C205.273 174.215 205.343 173.758 205.273 173.265C205.203 172.808 205.027 172.421 204.816 172.034C204.745 171.858 204.64 171.682 204.499 171.542C204.358 171.401 204.182 171.295 203.971 171.26C203.76 171.225 203.549 171.225 203.373 171.26C203.268 171.295 203.197 171.33 203.127 171.33C203.021 171.366 202.986 171.295 202.916 171.225C202.775 171.084 202.529 171.014 202.353 171.014C202.142 170.979 201.896 171.014 201.685 171.084C201.473 171.155 201.298 171.26 201.122 171.436C201.051 171.506 200.981 171.612 200.946 171.682C200.946 171.717 200.91 171.753 200.875 171.753C200.84 171.753 200.805 171.753 200.77 171.788C200.418 171.893 200.101 172.175 199.961 172.527C199.855 172.738 199.82 173.09 199.82 173.477C199.82 173.864 200.207 174.919 200.523 175.306C200.84 175.658 201.262 175.869 201.685 175.975C201.403 176.291 201.192 176.713 201.051 177.136C200.91 177.593 200.805 178.05 200.77 178.543C200.735 179 200.735 179.458 200.84 179.915C200.946 180.337 201.157 180.654 201.509 180.9C201.685 181.006 201.86 181.076 202.036 181.146C202.212 181.217 202.388 181.287 202.564 181.322C202.916 181.393 203.303 181.393 203.584 181.111C203.69 181.006 203.795 180.9 203.866 180.759C203.901 180.724 203.901 180.689 203.866 180.654C203.831 180.619 203.76 180.548 203.725 180.513C203.444 180.302 203.303 179.985 203.268 179.633C203.233 179.282 203.338 178.789 203.69 178.648C204.112 178.437 204.605 178.684 204.992 178.895C205.168 178.297 205.484 177.804 206.012 177.523C206.61 177.241 207.278 177.206 207.877 176.924C208.017 176.854 208.193 176.784 208.299 176.643C208.334 176.573 208.404 176.502 208.44 176.432C208.475 176.326 208.404 176.256 208.369 176.186C208.158 175.799 207.173 174.989 206.645 174.814Z" fill="#9B1558"/>
<path d="M208.545 179.106C208.545 179.739 209.213 180.267 209.213 180.9C208.967 180.971 208.686 181.006 208.439 181.041" fill="#CB7A43"/>
<path d="M208.44 181.955C208.228 182.026 207.982 181.991 207.806 181.885C207.63 181.78 207.454 181.604 207.384 181.393C207.595 181.498 207.736 181.568 207.912 181.674C208.052 181.744 208.228 181.815 208.44 181.955Z" fill="#307205"/>
<path d="M207.454 178.825C207.419 178.719 207.49 178.578 207.595 178.508C207.666 178.438 207.806 178.402 207.912 178.367C208.017 178.367 208.123 178.367 208.228 178.402C208.334 178.438 208.404 178.543 208.44 178.649C208.334 178.613 208.264 178.613 208.158 178.578C208.088 178.578 207.982 178.578 207.912 178.578C207.841 178.578 207.771 178.613 207.666 178.613C207.63 178.719 207.525 178.754 207.454 178.825Z" fill="#307205"/>
<path d="M208.158 179.422C208.255 179.422 208.334 179.343 208.334 179.246C208.334 179.149 208.255 179.07 208.158 179.07C208.061 179.07 207.982 179.149 207.982 179.246C207.982 179.343 208.061 179.422 208.158 179.422Z" fill="#307205"/>
<path d="M215.019 195.079L220.648 192.616C221.633 191.631 222.583 190.892 223.498 190.364C223.779 190.294 224.236 190.259 223.744 190.998C223.251 191.736 222.759 192.51 222.935 192.792C223.146 193.038 223.709 192.757 223.955 193.179C224.096 193.46 223.146 193.777 221.035 194.164L216.813 197.401L215.019 195.079Z" fill="#CB7A43"/>
<path d="M204.077 183.856L205.414 183.609C208.334 186.459 209.53 193.249 211.5 194.164C213.33 195.008 215.969 194.199 219.065 193.073L220.015 195.184C217.2 198.245 211.184 200.814 208.756 199.336C204.851 197.049 203.936 188.64 204.077 183.856Z" fill="#204F01"/>
<path d="M198.237 200.743C203.619 200.743 207.595 200.743 210.128 200.743C210.656 200.743 210.586 199.969 210.48 199.547C209.565 194.973 206.047 190.048 206.047 183.539L202.634 183.011C199.785 187.585 198.799 193.214 198.237 200.743Z" fill="#F2F9E5"/>
<path d="M197.04 196.134C194.613 200.497 192.572 203.663 190.919 205.563L185.629 198.442C187.248 188.486 194.683 187.761 202.353 183.046H202.388H203.69C206.751 193.531 207.63 200.532 206.223 204.015H195.527C195.774 201.447 196.301 198.773 197.04 196.134Z" fill="#307205"/>
<path d="M190.81 202.708L196.51 222.305L199.184 237.047H201.858L199.184 202.708H190.81Z" fill="#7A380C"/>
<path d="M188.242 202.708C188.629 212.911 188.488 218.435 188.383 219.385C188.277 220.3 187.785 226.492 184.337 237.363H187.116C191.655 226.949 193.273 220.757 193.766 219.385C194.293 218.013 195.841 212.454 198.093 202.708H188.242Z" fill="#7A380C"/>
<path d="M190.669 202.708C192.147 209.464 194.715 220.229 198.339 235.006H202.28C202.561 219.807 201.33 209.815 199.184 202.708H190.669Z" fill="#204F01"/>
<path d="M188.242 202.708C188.629 212.911 187.609 222.938 184.513 235.182H188.699C193.273 224.944 196.545 214.952 198.762 202.708H188.242Z" fill="#307205"/>
<path d="M183.985 239.368L184.126 236.87C185.04 237.152 186.166 237.046 187.503 236.554C188.981 237.574 190.81 238.278 193.027 238.665C193.203 238.7 193.308 238.841 193.273 239.016V239.052L193.062 239.79H187.503H184.266L183.985 239.368Z" fill="#59C114"/>
<path d="M198.586 239.368L198.726 236.87C199.641 237.152 200.767 237.046 202.104 236.554C203.582 237.574 205.411 238.278 207.628 238.665C207.803 238.7 207.909 238.841 207.874 239.016V239.052L207.663 239.79H202.104H198.867L198.586 239.368Z" fill="#59C114"/>
<path d="M192.183 183.112C191.479 182.267 190.986 181.247 191.057 180.086C191.303 176.779 195.912 177.483 196.827 179.171C197.741 180.86 197.636 185.117 196.44 185.399C195.982 185.504 194.997 185.223 193.977 184.625L194.61 189.093H190.881L192.183 183.112Z" fill="#7A380C"/>
<path d="M191.901 183.886C191.444 181.81 190.107 180.403 190.318 179.453C190.459 178.82 190.811 178.433 191.409 178.292C191.725 177.061 192.71 176.533 194.364 176.709C196.862 176.99 198.375 178.011 197.706 180.297C197.108 180.297 196.369 180.086 195.384 180.438C195.068 180.544 194.821 180.931 194.716 181.529H194.259C193.801 180.79 193.379 180.544 192.957 180.72C192.535 180.931 192.429 181.388 192.675 182.127L192.464 183.851H191.901V183.886Z" fill="#49220A"/>
<path d="M197.319 181.775C197.46 182.232 197.565 182.725 197.636 183.182C197.706 183.71 197.671 183.991 197.038 183.921" fill="#7A380C"/>
<path d="M196.721 181.423C196.545 181.388 196.405 181.353 196.264 181.318C196.123 181.318 195.947 181.318 195.771 181.282C195.842 181.247 195.912 181.212 196.018 181.177C196.088 181.142 196.193 181.142 196.299 181.142C196.44 181.177 196.616 181.282 196.721 181.423Z" fill="#49220A"/>
<path d="M196.475 182.127C196.591 182.127 196.686 182.032 196.686 181.916C196.686 181.799 196.591 181.705 196.475 181.705C196.358 181.705 196.264 181.799 196.264 181.916C196.264 182.032 196.358 182.127 196.475 182.127Z" fill="#49220A"/>
<path d="M197.038 184.66C196.897 184.73 196.721 184.765 196.545 184.695C196.369 184.625 196.299 184.484 196.193 184.378C196.264 184.378 196.369 184.414 196.44 184.449C196.51 184.484 196.58 184.519 196.651 184.554C196.721 184.59 196.897 184.59 197.038 184.66Z" fill="#49220A"/>
<path d="M202.913 200.211L207.557 203.624C208.824 203.975 209.879 204.398 210.724 204.89C210.935 205.066 211.181 205.453 210.337 205.383C209.492 205.312 208.613 205.277 208.507 205.559C208.402 205.84 208.894 206.192 208.648 206.579C208.507 206.825 207.768 206.192 206.467 204.679L201.858 202.779L202.913 200.211ZM185.005 200.316H188.066C186.166 206.403 185.181 209.64 185.005 209.992C184.654 210.836 185.392 212.103 185.674 212.806C184.689 213.264 184.794 211.61 183.528 212.173C182.367 212.701 181.522 213.686 180.185 212.841C180.01 212.736 179.834 212.349 180.291 212.067C181.382 211.329 182.93 210.027 183.141 209.605C183.422 209.077 184.055 205.981 185.005 200.316Z" fill="#7A380C"/>
<path d="M193.696 187.51L194.962 187.299C199.641 191.345 201.576 199.12 207.311 203.236L205.939 204.96C195.947 203.729 193.484 194.23 193.696 187.51Z" fill="#9B1558"/>
<path d="M188.172 203.377C193.238 203.377 196.967 203.377 199.36 203.377C199.888 203.377 199.782 202.638 199.712 202.251C198.867 197.959 195.525 193.315 195.525 187.228L192.288 186.736C189.614 191.028 188.7 196.305 188.172 203.377Z" fill="#DFFDAD"/>
<path d="M188.277 190.958C187.82 190.817 187.433 190.501 187.151 190.008C185.99 187.897 186.413 186.701 187.644 186.314C188.911 185.927 190.036 186.736 192.042 186.736C192.147 186.736 192.253 186.736 192.358 186.771L193.379 186.842C196.264 196.657 197.073 203.201 195.771 206.473H186.976C186.448 207.705 185.955 208.725 185.463 209.534H183.07C182.824 202.216 184.583 196.024 188.277 190.958Z" fill="#DC3579"/>
<path d="M188.875 201.407C189.157 203.729 189.614 205.418 190.212 206.438H186.94C187.574 205.031 188.207 203.377 188.875 201.407Z" fill="#9B1558"/>
<path d="M184.574 192.285C185.84 191.582 187.916 190.761 188.444 190.878L185.981 194.572L186.333 195.628L184.046 197.035C183.342 196.331 182.99 193.165 184.574 192.285Z" fill="#307205"/>
<path d="M186.509 199.849C185.383 199.286 184.632 197.621 184.398 196.859L185.981 195.627C186.157 195.745 186.649 196.12 187.212 196.683C187.916 197.387 187.916 197.738 187.74 197.738C187.564 197.738 186.509 197.387 186.685 197.738C186.825 198.02 187.564 199.38 187.916 200.025C187.916 200.201 187.634 200.412 186.509 199.849Z" fill="#CB7A43"/>
<path d="M-18.0816 296.913C3.55479 285.135 43.0927 281.139 60.1571 280.614C77.5434 276.933 118.498 269.887 143.225 271.149C174.134 272.727 256.719 283.768 266.861 287.975C277.004 292.181 290.043 304.8 278.452 322.151C266.861 339.503 159.646 374.731 132.6 376.834C105.555 378.937 7.98856 413.413 -6.5 405C-20.9886 396.587 -0.212151 340.554 -22.9111 331.09C-28.1707 328.897 -45.127 311.635 -18.0816 296.913Z" fill="#D6CDE4"/>
<path d="M14.2915 156.668V297.829L76.4588 304.291C76.4588 304.291 76.4588 184.671 76.4588 182.086L33.1561 138L14.2915 156.668Z" fill="#A396C4"/>
<path d="M128.05 182.086H76.4587V304.292H128.05V182.086Z" fill="#BCB1D4"/>
<path d="M33.156 138H82.3182L128.05 182.086H76.4588L33.156 138Z" fill="#F9AA38"/>
<path d="M85.1767 140.728H35.8716L37.0149 142.02H86.4629L85.1767 140.728Z" fill="#EA931F"/>
<path d="M93.3228 148.625H43.446L44.7323 149.774H94.609L93.3228 148.625Z" fill="#EA931F"/>
<path d="M101.469 156.38H51.1633L52.4495 157.673H102.755L101.469 156.38Z" fill="#EA931F"/>
<path d="M109.472 164.135H58.8804L60.0237 165.427H110.758L109.472 164.135Z" fill="#EA931F"/>
<path d="M117.618 172.033H66.4548L67.741 173.182H118.904L117.618 172.033Z" fill="#EA931F"/>
<path d="M125.621 179.788H74.1724L75.4586 181.08H126.907L125.621 179.788Z" fill="#EA931F"/>
<path d="M91.8936 195.872H85.7483V212.386H91.8936V195.872Z" fill="#EFE8F4"/>
<path d="M84.9998 304.557V259.374C84.9998 249.601 93.5105 241.605 104.116 241.605C114.591 241.605 123.233 249.601 123.233 259.374V304.557H84.9998Z" fill="#705FA4"/>
<path d="M119.859 304.557H88.3733V260.563C88.3733 252.016 95.3561 244.977 104.116 244.977C112.75 244.977 119.859 251.89 119.859 260.563V304.557Z" fill="#3D2884"/>
<path d="M159.217 304.557H123.233V258.903C123.233 250.034 131.213 242.729 141.225 242.729C151.091 242.729 159.217 249.903 159.217 258.903V304.557Z" fill="#3D2884"/>
<path d="M100.897 195.872H94.7517V212.386H100.897V195.872Z" fill="#EFE8F4"/>
<path d="M109.901 195.872H103.755V212.386H109.901V195.872Z" fill="#EFE8F4"/>
<path d="M118.904 195.872H112.759V212.386H118.904V195.872Z" fill="#EFE8F4"/>
<path d="M59.0234 234.069H69.1703V205.923H59.0234V234.069Z" fill="#897AB4"/>
<path d="M142.025 291.786L134.451 318.172L128.939 337.622H124.912L130.784 291.786H142.025Z" fill="#EA931F"/>
<path d="M144.038 291.786C144.206 305.396 144.805 312.809 144.997 314.048C145.188 315.288 147.945 323.154 153.313 337.622H149.167C142.336 323.726 138.526 315.86 137.711 314.048C136.896 312.237 134.451 304.8 130.76 291.786H144.038Z" fill="#F9AA38"/>
<path d="M153.696 341.34L153.481 336.979H149.095C147.01 338.433 144.301 339.6 140.97 340.506V341.34H148.903L151.611 340.935V341.34H153.696Z" fill="#564394"/>
<path d="M129.514 341.34L129.298 336.979H124.912C122.827 338.433 120.119 339.6 116.788 340.506V341.34H124.721L127.429 340.935V341.34H129.514Z" fill="#564394"/>
<path d="M138.31 266.138C139.269 265.018 139.916 263.635 139.82 262.11C139.508 257.676 133.301 258.654 132.078 260.894C130.88 263.135 131.024 268.808 132.582 269.213C133.205 269.38 134.523 268.975 135.889 268.164L135.05 274.123H140.059L138.31 266.138Z" fill="#FFE0CB"/>
<path d="M131.599 261.896C131.647 261.61 131.767 261.276 131.863 261.014C131.983 260.656 132.175 260.346 132.39 260.036C132.774 259.464 133.253 258.964 133.78 258.535C134.739 257.748 135.961 257.319 137.16 257.462C137.759 257.534 138.358 257.772 138.861 258.153C139.317 258.487 139.748 259.011 140.323 259.035C140.97 259.083 141.546 258.511 142.049 258.177C142.624 257.796 143.223 257.51 143.918 257.391C145.045 257.2 146.099 257.581 146.866 258.511C147.681 259.488 148.28 260.918 147.753 262.205C147.657 262.444 147.513 262.658 147.346 262.825C147.178 262.968 146.914 263.135 146.842 263.397C146.77 263.659 146.986 263.993 147.082 264.231C147.202 264.565 147.298 264.923 147.274 265.304C147.226 265.9 146.842 266.496 146.435 266.877C146.027 267.282 145.524 267.521 144.973 267.616C144.613 267.688 144.254 267.735 143.87 267.712C143.679 267.688 143.535 267.64 143.343 267.616C143.175 267.568 143.08 267.616 142.936 267.712C142.265 268.141 141.546 268.307 140.755 268.26C140.108 268.212 139.341 268.045 138.813 267.592C138.214 267.092 138.238 266.401 138.358 265.685C138.214 265.757 137.807 265.805 138.046 265.519C138.142 265.399 138.334 265.352 138.454 265.28C138.598 265.209 138.741 265.09 138.861 264.97C139.317 264.446 138.861 263.397 138.286 263.207C137.423 262.944 137.256 264.136 136.632 264.446C136.273 264.613 135.913 264.374 135.65 264.136C135.29 263.802 135.051 263.373 134.859 262.92C134.691 262.563 134.523 262.182 134.356 261.8C134.284 261.633 133.996 261.133 134.14 260.942C133.541 260.823 132.846 261.061 132.318 261.395C132.103 261.538 131.935 261.681 131.815 261.919C131.791 261.967 131.743 262.134 131.671 262.134C131.551 262.11 131.599 261.967 131.599 261.896Z" fill="#EA931F"/>
<path d="M131.359 264.303C131.407 264.732 131.095 265.113 130.856 265.423C130.712 265.614 130.113 266.353 130.472 266.567C130.808 266.782 131.287 266.734 131.671 266.71" fill="#FFE0CB"/>
<path d="M132.965 264.112C132.893 263.993 132.797 263.898 132.678 263.85C132.558 263.779 132.438 263.755 132.294 263.755C132.15 263.755 132.006 263.779 131.887 263.898C131.767 263.993 131.695 264.16 131.743 264.279C131.863 264.208 131.959 264.184 132.03 264.16C132.102 264.16 132.198 264.136 132.294 264.16C132.486 264.136 132.678 264.136 132.965 264.112Z" fill="#705FA4"/>
<path d="M131.671 267.616C131.935 267.783 132.222 267.807 132.534 267.759C132.846 267.711 133.133 267.497 133.229 267.187C132.917 267.259 132.702 267.33 132.462 267.354C132.198 267.425 131.935 267.449 131.671 267.616Z" fill="#705FA4"/>
<path d="M132.198 264.875C132.331 264.875 132.438 264.768 132.438 264.636C132.438 264.505 132.331 264.398 132.198 264.398C132.066 264.398 131.959 264.505 131.959 264.636C131.959 264.768 132.066 264.875 132.198 264.875Z" fill="#705FA4"/>
<path d="M158.586 299.151C158.994 299.675 161.51 301.058 163.212 301.797C163.907 302.083 163.739 302.678 163.547 302.845C161.917 304.347 160.432 303.227 158.682 302.798C156.765 302.321 157.364 304.585 155.854 304.252C156.094 303.203 156.741 301.248 156.046 300.176C155.734 299.699 153.433 295.48 149.143 287.519L153.409 286.685C156.309 294.264 158.035 298.412 158.586 299.151Z" fill="#FFE0CB"/>
<path d="M116.208 283.165L123.142 284.759L122.286 288.615L114.931 284.911C113.08 284.735 111.501 284.364 110.188 283.866C109.87 283.632 109.435 283.183 110.616 283.075C111.796 282.966 113.035 282.779 113.124 282.363C113.23 281.932 112.447 281.585 112.67 280.995C112.825 280.586 113.998 281.326 116.208 283.165Z" fill="#FFE0CB"/>
<path d="M137.519 270.763L135.721 270.453C131.791 274.243 130.185 283.348 127.573 284.54C125.104 285.684 121.581 284.587 117.411 283.086L116.14 285.922C119.927 289.998 128.004 293.43 131.264 291.476C136.512 288.353 137.711 277.127 137.519 270.763Z" fill="#A396C4"/>
<path d="M145.38 293.287C138.142 293.287 132.822 293.287 129.418 293.287C128.699 293.287 128.819 292.238 128.939 291.714C130.161 285.612 134.907 279.033 134.907 270.357L139.508 269.642C143.319 275.744 144.637 283.252 145.38 293.287Z" fill="#705FA4"/>
<path d="M146.986 287.114C150.246 292.954 152.978 297.149 155.183 299.723L158.538 299.079C156.381 285.803 150.15 275.983 139.82 269.666H139.772H137.998C133.876 283.682 132.726 293.001 134.571 297.673H148.927C148.712 294.241 147.969 290.642 146.986 287.114Z" fill="#BCB1D4"/>
<path d="M-18.2944 218.105C-19.987 208.842 -19.31 202.61 -11.8625 195.705C-7.29239 191.494 -1.0297 191.831 3.54036 195.873C3.87889 186.105 11.6649 175.495 22.3284 176.337C31.13 177.179 34.6845 187.284 36.0386 194.694C43.1476 191.831 47.7177 194.358 48.9025 201.768C61.4279 198.568 72.7684 210.189 70.0602 222.652C68.7061 228.715 63.6283 232.42 57.5349 232.757C52.7955 233.094 52.457 232.084 49.241 229.726C50.5951 236.126 30.453 236.968 27.237 231.242C20.128 234.778 13.019 239.663 4.55593 237.473C1.67848 236.799 -0.691179 235.115 -2.89158 233.263C-3.39937 232.757 -8.81574 227.368 -8.985 227.536C-12.3702 229.052 -15.5862 229.221 -18.4637 226.526C-21.0026 224.168 -21.3411 220.463 -18.2944 218.105Z" fill="#EA931F"/>
<path d="M39.286 223.85L55.8694 221.499L40.3013 222.675L52.6542 209.575L36.2401 225.698L35.394 214.949V226.706L21.1797 240.645L20.5029 202.521L27.4408 193.956L20.5029 201.682L20.3336 189.757L20.1644 227.881L-0.141695 211.254L5.61171 216.293L-2.51074 220.827L5.95014 216.629L20.1644 229.393V306.312L22.3643 306.48L21.1797 242.996L39.286 223.85Z" fill="#3D2884"/>
<path d="M10.3482 300.91C10.2585 295.259 12.0518 287.276 17.1627 294.362C17.073 291.581 18.956 284.136 22.9012 285.123C24.2462 285.482 25.9498 288.98 26.2188 289.697C25.8602 284.226 31.3297 275.974 37.6063 279.562C42.5378 282.342 41.3722 291.222 41.3722 296.066C41.3722 293.913 43.3448 293.016 44.8691 294.362C45.7658 295.169 46.3934 300.282 46.1244 301.358C45.5864 304.856 41.9998 305.664 38.6822 304.498C37.6063 309.969 27.6535 306.202 25.9498 303.062C25.2325 305.215 22.1839 305.395 21.0183 303.511C21.0183 305.753 16.0867 306.471 14.1141 305.843C12.0518 305.125 11.4241 303.152 10.3482 300.91Z" fill="#897AB4"/>
<path d="M34.7871 282.25L30.6604 303.652L31.0126 303.72L35.1393 282.318L34.7871 282.25Z" fill="#BCB1D4"/>
<path d="M37.821 288.023L32.9846 292.165L33.2179 292.437L38.0542 288.296L37.821 288.023Z" fill="#BCB1D4"/>
<path d="M32.1367 296.514L29.0881 291.402L29.3571 291.222L32.4057 296.335L32.1367 296.514Z" fill="#BCB1D4"/>
<path d="M14.4294 295.609L14.0923 295.732L16.8497 303.319L17.1868 303.196L14.4294 295.609Z" fill="#BCB1D4"/>
<path d="M12.3029 298.044L12.2043 298.389L15.3942 299.301L15.4928 298.956L12.3029 298.044Z" fill="#BCB1D4"/>
<path d="M24.2916 310.501C24.4709 303.056 22.05 292.382 15.0561 301.711C15.1458 298.033 12.6352 288.077 7.34494 289.332C5.46198 289.781 3.31003 294.535 2.8617 295.342C3.31003 288.077 -4.04249 277.044 -12.471 281.888C-19.1062 285.655 -17.5819 297.495 -17.5819 303.863C-17.6715 300.993 -20.2718 299.827 -22.2444 301.621C-23.4101 302.697 -24.2171 309.425 -23.9481 310.95C-23.1411 315.614 -18.2992 316.601 -13.9056 315.165C-12.471 322.521 0.978743 317.498 3.31003 313.282C4.29634 316.152 8.33126 316.331 9.94522 313.91C9.85556 316.959 16.5804 317.946 19.2704 316.959C21.8706 315.973 22.7673 313.461 24.2916 310.501Z" fill="#A396C4"/>
<path d="M8.0621 310.501L9.04842 295.791L8.51042 295.701L7.61377 310.412L8.0621 310.501Z" fill="#3D2884"/>
<path d="M8.24141 306.016L11.9177 303.325L11.6487 302.877L7.97241 305.658L8.24141 306.016Z" fill="#3D2884"/>
<path d="M8.33093 300.814L8.68959 300.635L6.26864 295.701L5.82031 295.881L8.33093 300.814Z" fill="#3D2884"/>
<path d="M15.5045 313.64L19.2704 303.505L18.8221 303.325L15.0562 313.461L15.5045 313.64Z" fill="#3D2884"/>
<path d="M17.3873 308.258L21.6912 307.003L21.6016 306.554L17.208 307.81L17.3873 308.258Z" fill="#3D2884"/>
<path d="M67.5728 296.775L75.9235 325.357L79.811 346.829H83.7344L79.811 296.775H67.5728Z" fill="#E8A16D"/>
<path d="M63.8657 296.775C64.4416 311.641 64.2256 319.719 64.0816 321.084C63.9376 322.448 63.2177 331.461 58.1785 347.295H62.2459C68.9049 332.107 71.2086 323.095 72.0005 321.084C72.7564 319.073 75.024 310.994 78.2996 296.775H63.8657Z" fill="#E8A16D"/>
<path d="M67.3928 296.775C69.5525 306.614 73.296 322.305 78.6232 343.884H84.3823C84.8143 321.73 83.0145 307.188 79.883 296.775H67.3928Z" fill="#705FA4"/>
<path d="M63.8294 296.775C64.4053 311.641 62.9295 326.254 58.3582 344.136H64.4773C71.1363 329.199 75.9236 314.621 79.1991 296.775H63.8294Z" fill="#897AB4"/>
<path d="M57.6021 350.24L57.818 346.613C59.1498 347.008 60.8056 346.865 62.7853 346.146C64.909 347.655 67.6086 348.696 70.8481 349.234C71.1001 349.27 71.2441 349.522 71.2081 349.773V349.809L70.8841 350.922H62.7853H58.07L57.6021 350.24Z" fill="#3D2884"/>
<path d="M78.947 350.24L79.163 346.613C80.4948 347.008 82.1506 346.865 84.1303 346.146C86.2539 347.655 88.9536 348.696 92.1931 349.234C92.445 349.27 92.589 349.522 92.553 349.773V349.809L92.2291 350.922H84.1303H79.415L78.947 350.24Z" fill="#3D2884"/>
<path d="M45.7552 308.443C46.337 308.5 46.9479 308.7 47.5006 308.328C47.5006 310.644 47.5006 312.961 47.5006 315.277C46.8897 315.306 46.3079 315.105 45.7261 315.02C45.7261 312.846 45.7552 310.644 45.7552 308.443Z" fill="#A396C4"/>
<path d="M46.9479 327.659C47.9952 327.716 49.0716 327.744 50.1189 327.802C50.2061 328.087 50.468 328.03 50.7007 328.059C52.1261 328.23 53.5225 328.373 54.9479 328.574C56.3152 328.774 57.1589 329.66 57.2752 331.033C57.5661 334.722 57.6243 338.411 57.7116 342.1C57.7989 345.588 57.6243 349.077 57.4789 352.566C57.4498 353.424 57.537 354.253 57.3916 355.111C57.2752 355.826 56.8971 356.884 56.1698 357.198C55.908 357.313 54.0752 358.199 53.8716 357.942C53.8134 357.856 54.0461 357.255 54.0752 357.141C54.1916 356.541 54.2498 355.94 54.2789 355.34C54.2789 355.168 54.337 355.025 54.337 354.853C54.4534 350.936 54.4243 347.018 54.5116 343.1C54.5407 341.728 54.5116 340.355 54.5116 339.011C54.5407 336.523 54.3661 334.035 54.337 331.548C54.337 330.861 54.1334 330.146 53.5516 329.746C53.028 329.374 52.417 329.088 51.7189 329.06C49.857 328.945 49.217 329.26 47.3552 329.146C46.5407 329.088 45.2025 329.346 44.388 329.289C43.6025 329.231 42.0316 329.431 41.2461 329.431C40.6934 329.431 40.0243 329.717 39.4716 329.746C38.948 329.775 37.4061 328.917 36.9407 328.545C37.1734 328.345 38.6861 327.973 38.948 327.887C41.537 327.087 44.2716 327.744 46.9479 327.659Z" fill="#564394"/>
<path d="M53.1731 327.974C54.104 327.974 54.8604 327.345 55.7913 327.316C56.4313 327.573 57.1004 327.545 57.7404 327.659C59.7476 327.888 60.475 329.089 60.5331 330.805C60.7077 335.38 60.9113 339.955 60.8531 344.531C60.7949 347.705 60.7077 350.879 60.504 354.053C60.4458 354.997 59.8931 355.655 59.0495 356.084C58.584 356.312 58.0895 356.455 57.5658 356.541C57.8277 355.998 58.1768 355.512 58.2059 354.883C58.264 352.852 58.4095 350.793 58.4386 348.763C58.5549 342.872 58.5258 337.01 58.1186 331.148C58.0022 329.403 57.2168 328.546 55.4422 328.288C54.7149 328.202 53.9295 328.088 53.1731 327.974Z" fill="#564394"/>
<path d="M53.1732 327.974C53.9296 328.088 54.715 328.202 55.4714 328.317C57.2459 328.574 58.0314 329.432 58.1477 331.176C58.555 337.039 58.5841 342.929 58.4677 348.792C58.4386 350.822 58.2932 352.881 58.235 354.911C58.2059 355.54 57.8568 356.026 57.595 356.57C57.2459 356.741 56.8968 356.999 56.4896 356.97C57.7405 355.712 57.3914 354.082 57.4787 352.566C57.6241 349.078 57.7986 345.589 57.7114 342.1C57.6241 338.411 57.5659 334.722 57.275 331.033C57.1586 329.689 56.315 328.803 54.9477 328.574C53.5514 328.374 52.1259 328.231 50.7005 328.059C50.4677 328.031 50.2059 328.088 50.1187 327.802C51.1368 327.773 52.155 327.945 53.1732 327.974Z" fill="#A396C4"/>
<path d="M55.9951 309.672C56.577 309.729 57.1879 309.872 57.7406 309.586C57.7406 311.531 57.7406 313.504 57.7406 315.449C57.1297 315.477 56.5479 315.306 55.9661 315.248C55.9952 313.39 55.9951 311.531 55.9951 309.672Z" fill="#A396C4"/>
<path d="M44.7659 315.048C46.2786 315.134 47.7623 315.22 49.275 315.306C49.275 315.363 49.275 315.42 49.275 315.506C47.4423 315.42 45.6386 315.334 43.8059 315.22C44.1259 315.163 44.4459 315.106 44.7659 315.048Z" fill="#3D2884"/>
<path d="M57.3916 326.515C57.1298 326.716 56.8389 326.887 56.4898 326.83C57.3335 326.201 57.3044 325.286 57.3625 324.371C57.3916 324.113 57.3625 323.827 57.3625 323.57C57.3625 322.455 57.3625 321.368 57.3625 320.253C57.4207 319.452 57.3044 318.652 57.2171 317.879C57.1007 316.764 55.9953 316.049 54.7444 316.164C54.5698 316.164 54.3662 316.135 54.1916 316.135C53.7843 315.706 53.2025 315.963 52.7371 315.792C52.5043 315.706 52.2425 315.82 51.9807 315.649C52.1553 315.477 52.3589 315.535 52.5043 315.535C53.7262 315.678 54.948 315.821 56.1698 316.021C57.1298 316.192 57.7698 316.85 57.8862 317.822C58.148 319.71 58.1189 321.597 58.0607 323.484C58.0607 323.856 58.0025 324.228 58.0025 324.6C58.0316 325.343 57.828 325.972 57.3916 326.515Z" fill="#3D2884"/>
<path d="M40.7805 327.459C41.1296 327.202 41.595 327.259 42.0023 327.116C43.4859 327.23 44.9696 327.344 46.4532 327.459C46.6278 327.459 46.8605 327.402 46.9477 327.63C44.8823 327.716 42.846 327.43 40.7805 327.459Z" fill="#A396C4"/>
<path d="M57.7987 308.242C57.7405 307.585 57.3914 306.984 56.8387 306.612C56.1405 306.155 55.2096 306.212 54.3951 306.155C53.1732 306.04 51.9514 305.955 50.7296 305.84C49.566 305.755 48.4314 305.583 47.2678 305.869C46.1332 306.212 45.4351 307.327 45.6387 308.471C45.6678 308.586 45.6678 308.729 45.8132 308.786C46.3078 308.957 46.8605 308.957 47.3551 308.843C47.8205 308.729 47.6169 308.3 47.646 307.985C47.6751 307.356 47.9078 307.127 48.5769 307.184C49.7696 307.27 50.9624 307.384 52.126 307.47C53.2024 307.556 54.366 307.527 55.3842 307.842C55.7914 308.014 55.8496 308.385 55.8496 308.757C55.8787 309.072 55.7333 309.415 56.0242 309.672C56.606 309.729 57.2169 309.872 57.7696 309.586C57.9151 309.157 57.8569 308.7 57.7987 308.242ZM56.4314 307.07C56.4605 307.184 56.5478 307.242 56.6351 307.299C56.5478 307.27 56.4605 307.213 56.4314 307.07ZM57.1587 308.414C57.1878 308.014 57.1587 307.642 56.7223 307.356C56.6351 307.242 56.5478 307.156 56.4605 307.041C56.5478 307.156 56.6351 307.242 56.7223 307.356C57.1587 307.642 57.1878 308.014 57.1587 308.414Z" fill="#3D2884"/>
<path d="M54.5116 339.012C54.5407 336.524 54.3661 334.036 54.337 331.548C54.337 330.862 54.1334 330.147 53.5516 329.746C53.028 329.375 52.417 329.089 51.7189 329.06C49.508 328.917 47.2971 328.746 45.1153 328.603C42.9043 328.488 40.6934 328.574 38.4825 328.345C36.6789 328.174 35.3698 329.346 35.3116 331.119C35.2243 333.578 35.1371 336.009 35.0498 338.468C34.9334 341.499 35.0498 344.674 35.108 347.733C35.1371 349.335 35.2243 350.936 35.3116 352.509C35.3698 353.596 35.2243 354.882 35.8643 355.826C36.4462 356.655 37.5225 356.913 38.4825 357.056C41.0716 357.485 43.6898 357.828 46.3371 358.114C47.6752 358.257 49.0134 358.371 50.3516 358.485C51.5443 358.571 52.6498 358.657 53.7261 358.028C53.7552 357.999 53.8134 357.971 53.8425 357.942C53.8716 357.885 53.9007 357.828 53.9298 357.771C54.1625 356.97 54.2498 356.141 54.308 355.34C54.308 355.168 54.3661 355.025 54.3661 354.854C54.4825 350.936 54.4534 347.018 54.5407 343.101C54.5407 341.728 54.5116 340.356 54.5116 339.012Z" fill="#3D2884"/>
<path d="M35.3696 354.654C35.3696 354.682 35.3986 354.711 35.4277 354.739C35.4277 354.711 35.4277 354.654 35.3986 354.625L35.3696 354.654Z" fill="#3D2884"/>
<path d="M59.7187 318.766C59.7187 318.28 59.7187 317.793 59.6314 317.336C59.5441 316.878 59.3405 316.392 58.9623 316.078C58.5551 315.706 58.0023 315.534 57.4496 315.449C57.1296 315.391 56.8096 315.363 56.4605 315.334C52.9114 314.934 49.3333 314.619 45.7551 314.705C45.4933 314.705 44.9405 314.877 44.766 315.048C46.2496 315.134 47.7623 315.22 49.246 315.306C49.246 315.363 49.246 315.42 49.246 315.506C47.4133 315.42 45.6096 315.334 43.7769 315.22C43.3696 315.191 42.7878 315.42 42.4096 315.534C41.9151 315.677 41.4205 315.849 40.9842 316.106C40.286 316.507 39.9951 317.222 39.9369 318.022C39.7624 319.995 39.7915 321.997 39.8787 323.97C39.9078 324.542 39.966 325.143 40.1696 325.686C40.5187 326.544 41.1878 326.83 41.9733 327.173C43.4569 327.287 44.9405 327.402 46.4242 327.516C46.5987 327.516 46.8314 327.459 46.9187 327.688C47.966 327.745 49.0424 327.774 50.0896 327.831C51.1078 327.802 52.126 327.945 53.1442 328.002C53.5514 328.031 53.8714 327.945 54.2205 327.831C54.5405 327.716 54.8896 327.573 55.2096 327.488C55.8496 327.287 56.4896 326.973 56.8678 326.401C57.1587 325.943 57.2751 325.429 57.3623 324.885C57.5369 323.627 57.566 322.34 57.5078 321.053C57.4787 320.224 57.4496 319.395 57.3333 318.566C57.2169 317.936 57.0714 316.993 56.5187 316.592C56.3151 316.449 56.0823 316.364 55.8496 316.307C55.1223 316.106 54.3951 315.963 53.6387 315.906C53.4642 315.878 52.0387 315.649 51.9805 315.735C52.0387 315.649 52.2132 315.62 52.3587 315.62C53.5514 315.735 54.7151 315.878 55.9078 316.078C56.3442 316.164 56.8096 316.249 57.1296 316.507C57.5369 316.821 57.7114 317.336 57.7987 317.822C58.2351 319.738 58.0314 321.711 58.0023 323.684C58.0023 324.599 58.0314 325.6 57.5078 326.372C57.4496 326.429 57.4205 326.515 57.4496 326.601C57.4787 326.63 57.886 326.429 57.9732 326.401C58.3223 326.287 58.6714 326.144 58.9623 325.915C59.3114 325.629 59.5151 325.2 59.6023 324.771C59.6896 324.342 59.6896 323.884 59.6896 323.456C59.7187 321.854 59.7187 320.31 59.7187 318.766Z" fill="#705FA4"/>
<path d="M40.1697 326.401L40.1987 326.429C40.1987 326.401 40.1987 326.401 40.1697 326.401C40.1697 326.372 40.1697 326.401 40.1697 326.401Z" fill="#564394"/>
<path d="M50.2931 316.335C51.835 316.507 54.3659 316.164 55.1804 317.88C55.3259 318.194 55.355 318.509 55.384 318.852C55.5586 321.454 55.6459 324.085 55.035 326.601C54.7441 327.745 54.0459 328.003 52.9113 327.945C52.5622 327.917 52.0095 328.003 51.6604 327.974C50.7586 327.917 49.8568 327.774 48.955 327.802C48.0241 327.745 47.0641 327.717 46.1332 327.659C46.0459 327.431 45.8713 327.488 45.6968 327.488C44.3877 327.373 43.0786 327.259 41.7695 327.145C41.0423 326.802 40.4604 326.516 40.1695 325.658C39.9659 325.114 39.9368 324.514 39.9077 323.942C39.8204 321.969 39.8204 319.967 39.9659 317.994C40.0241 317.222 40.2568 316.507 40.8968 316.078C41.275 315.821 43.0495 315.935 43.515 315.935L50.2931 316.335Z" fill="#705FA4"/>
<path d="M70.8125 263.418C69.7687 262.198 69.0488 260.69 69.1928 259.002C69.5167 254.155 76.2837 255.232 77.6156 257.673C78.9474 260.115 78.7674 266.327 77.0756 266.758C76.3917 266.937 74.9519 266.506 73.4762 265.609L74.412 272.108H68.9768L70.8125 263.418Z" fill="#E8A16D"/>
<path d="M70.38 264.496C69.6961 261.444 67.7524 259.397 68.0404 258.033C68.2563 257.135 68.7603 256.56 69.6241 256.345C70.0561 254.55 71.4959 253.796 73.9075 254.047C77.543 254.442 79.7747 255.95 78.8028 259.253C77.9389 259.253 76.8591 258.93 75.3833 259.469C74.9154 259.648 74.5914 260.187 74.3754 261.085H73.7275C73.0796 260.007 72.4317 259.613 71.8198 259.9C71.2079 260.187 71.0639 260.869 71.3879 261.946L71.0639 264.46H70.38V264.496Z" fill="#3D2884"/>
<path d="M78.335 261.479C78.4789 261.767 78.7309 262.054 78.8389 262.341C78.9469 262.628 79.0189 263.023 79.0549 263.311C79.0909 263.742 78.5509 264.28 78.083 264.28" fill="#E8A16D"/>
<path d="M78.0833 260.726C77.9393 260.726 77.7954 260.726 77.6874 260.726C77.5794 260.761 77.4714 260.761 77.3274 260.797C77.0755 260.869 76.8595 260.941 76.5715 260.977C76.7155 260.69 76.9675 260.546 77.2554 260.474C77.3994 260.438 77.5434 260.438 77.7234 260.474C77.9033 260.51 78.0473 260.582 78.0833 260.726Z" fill="#3D2884"/>
<path d="M78.0829 265.393C77.939 265.429 77.795 265.429 77.687 265.393C77.543 265.357 77.435 265.286 77.291 265.25C77.0751 265.142 76.8591 264.962 76.6431 264.891L76.8951 264.747C76.8951 264.783 76.9311 264.891 77.0031 264.998C77.0751 265.106 77.1471 265.178 77.2191 265.286C77.363 265.465 77.543 265.681 77.723 265.86C77.579 265.824 77.471 265.788 77.327 265.716C77.2191 265.645 77.1111 265.573 77.0031 265.501C76.8951 265.429 76.7871 265.321 76.7151 265.214C76.6431 265.106 76.5352 264.962 76.5352 264.747V264.496L76.7511 264.603C77.0391 264.711 77.2191 264.891 77.435 265.07C77.651 265.178 77.831 265.321 78.0829 265.393Z" fill="#3D2884"/>
<path d="M77.6512 261.875C77.8103 261.875 77.9392 261.746 77.9392 261.588C77.9392 261.429 77.8103 261.3 77.6512 261.3C77.4922 261.3 77.3633 261.429 77.3633 261.588C77.3633 261.746 77.4922 261.875 77.6512 261.875Z" fill="#3D2884"/>
<path d="M88.4138 289.451L94.8568 295.698C96.7286 296.488 98.2763 297.386 99.4642 298.319C99.7161 298.643 100.04 299.253 98.7443 299.002C97.4845 298.714 96.1527 298.499 95.9007 298.894C95.6487 299.289 96.3686 299.935 95.9367 300.474C95.6487 300.833 94.6409 299.684 92.9851 297.063L86.2901 293.113L88.4138 289.451ZM56.9543 283.777L61.9216 283.813C58.1422 296.057 56.1264 302.449 55.8745 303.023C55.3346 304.316 56.4504 306.291 56.9543 307.368C55.4065 308.05 55.5865 305.501 53.6068 306.398C51.8071 307.224 50.4753 308.732 48.4236 307.44C48.1716 307.296 47.8836 306.686 48.5675 306.255C50.2233 305.106 52.635 303.095 52.9589 302.449C53.4268 301.551 54.7586 295.339 56.9543 283.777Z" fill="#E8A16D"/>
<path d="M72.1084 269.702L74.0881 269.379C77.1837 280.294 93.0574 287.727 94.0652 291.784C94.4252 293.292 93.3453 294.046 93.8852 294.477L91.3296 296.344C90.8977 295.842 89.9618 296.775 88.0541 296.129C86.1464 295.483 72.1084 282.628 72.1084 269.702Z" fill="#564394"/>
<path d="M75.4197 271.139C75.2038 285.573 83.5545 289.271 81.6828 295.052C80.135 299.828 65.4132 304.962 62.8575 300.294C61.8137 298.391 61.3458 296.093 61.3098 293.616C60.6619 295.519 60.1579 297.171 59.762 298.571C59.1141 300.941 56.5585 301.336 56.5585 302.269L53.211 301.336C53.4269 300.079 51.8791 299.469 52.2751 296.704C54.1828 284.208 59.2581 275.124 67.5369 269.523L67.6089 268.302C67.6448 267.799 68.0768 267.44 68.5807 267.476L74.6998 267.907C75.2038 267.943 75.5637 268.374 75.5277 268.876L75.4197 271.139Z" fill="#705FA4"/>
<path d="M389.5 353C377.776 342.247 363.223 346.303 335.269 343.452C328.755 343.452 301.235 344.674 243.264 349.562C170.801 355.672 129.5 371 84.4999 383.5C56.774 391.201 -28.8262 406.919 -17.5001 410.251C-3.65869 414.325 -10.5136 522.019 -4.00006 526.5C2.51352 530.98 307.68 526.907 326 526.5C344.319 526.092 358.631 527.795 385.5 522.5C412.368 517.205 392 429.657 392 410.251C392 403.517 404.156 366.441 389.5 353Z" fill="#F7CDD4"/>
<mask id="mask0" mask-type="alpha" maskUnits="userSpaceOnUse" x="-18" y="342" width="420" height="187">
<path d="M391.026 352.548C379.301 341.795 364.749 345.851 336.795 343C330.281 343 302.761 344.222 244.79 349.11C172.327 355.219 131.026 370.548 86.0258 383.048C58.2998 390.749 -27.3003 406.466 -15.9742 409.799C-2.13281 413.872 -8.98776 521.567 -2.47418 526.048C4.0394 530.528 309.206 526.455 327.526 526.048C345.845 525.64 360.157 527.343 387.026 522.048C413.894 516.753 393.526 429.204 393.526 409.799C393.526 403.065 405.681 365.989 391.026 352.548Z" fill="#F7CDD4" stroke="#E78CA2" stroke-width="0.753009"/>
</mask>
<g mask="url(#mask0)">
<g opacity="0.25">
<path d="M-7.26021 313.58L1.40467 344.723C1.94295 346.658 1.88629 348.71 1.24205 350.612L-11.966 389.606C-12.6103 391.508 -12.667 393.56 -12.1287 395.495L1.49792 444.471C1.97773 446.195 1.98586 448.017 1.52146 449.746L-12.2025 500.833C-12.6939 502.663 -12.6556 504.594 -12.0921 506.403L-5.362 528" stroke="#E78CA2" stroke-width="2"/>
<path d="M-3.21504 313.58L5.44984 344.723C5.98812 346.658 5.93145 348.71 5.28722 350.612L-7.92088 389.606C-8.56512 391.508 -8.62179 393.56 -8.0835 395.495L5.54309 444.471C6.02289 446.195 6.03102 448.017 5.56663 449.746L-8.15729 500.833C-8.64875 502.663 -8.61046 504.594 -8.04689 506.403L-1.31683 528" stroke="#E78CA2" stroke-width="2"/>
<path d="M0.830124 313.58L9.495 344.723C10.0333 346.658 9.97662 348.71 9.33238 350.612L-3.87571 389.606C-4.51995 391.508 -4.57662 393.56 -4.03834 395.495L9.58825 444.471C10.0681 446.195 10.0762 448.017 9.6118 449.746L-4.11213 500.833C-4.60359 502.663 -4.5653 504.594 -4.00172 506.403L2.72833 528" stroke="#E78CA2" stroke-width="2"/>
<path d="M4.87578 313.58L13.5407 344.723C14.0789 346.658 14.0223 348.71 13.378 350.612L0.16994 389.606C-0.474298 391.508 -0.530966 393.56 0.00731565 395.495L13.6339 444.471C14.1137 446.195 14.1218 448.017 13.6575 449.746L-0.066472 500.833C-0.557931 502.663 -0.519644 504.594 0.0439314 506.403L6.77399 528" stroke="#E78CA2" stroke-width="2"/>
<path d="M8.9207 313.58L17.5856 344.723C18.1239 346.658 18.0672 348.71 17.423 350.612L4.21486 389.606C3.57062 391.508 3.51396 393.56 4.05224 395.495L17.6788 444.471C18.1586 446.195 18.1668 448.017 17.7024 449.746L3.97845 500.833C3.48699 502.663 3.52528 504.594 4.08885 506.403L10.8189 528" stroke="#E78CA2" stroke-width="2"/>
<path d="M12.9659 313.58L21.6307 344.723C22.169 346.658 22.1124 348.71 21.4681 350.612L8.26003 389.606C7.61579 391.508 7.55912 393.56 8.0974 395.495L21.724 444.471C22.2038 446.195 22.2119 448.017 21.7475 449.746L8.02362 500.833C7.53216 502.663 7.57044 504.594 8.13402 506.403L14.8641 528" stroke="#E78CA2" stroke-width="2"/>
<path d="M17.0113 313.58L25.6762 344.723C26.2144 346.658 26.1578 348.71 25.5135 350.612L12.3054 389.606C11.6612 391.508 11.6045 393.56 12.1428 395.495L25.7694 444.471C26.2492 446.195 26.2573 448.017 25.7929 449.746L12.069 500.833C11.5776 502.663 11.6159 504.594 12.1794 506.403L18.9095 528" stroke="#E78CA2" stroke-width="2"/>
<path d="M21.0564 313.58L29.7213 344.723C30.2596 346.658 30.2029 348.71 29.5587 350.612L16.3506 389.606C15.7064 391.508 15.6497 393.56 16.188 395.495L29.8146 444.471C30.2944 446.195 30.3025 448.017 29.8381 449.746L16.1142 500.833C15.6227 502.663 15.661 504.594 16.2246 506.403L22.9547 528" stroke="#E78CA2" stroke-width="2"/>
<path d="M25.1016 313.58L33.7665 344.723C34.3048 346.658 34.2481 348.71 33.6039 350.612L20.3958 389.606C19.7515 391.508 19.6949 393.56 20.2331 395.495L33.8597 444.471C34.3395 446.195 34.3477 448.017 33.8833 449.746L20.1594 500.833C19.6679 502.663 19.7062 504.594 20.2698 506.403L26.9998 528" stroke="#E78CA2" stroke-width="2"/>
<path d="M29.147 313.58L37.8119 344.723C38.3502 346.658 38.2935 348.71 37.6493 350.612L24.4412 389.606C23.7969 391.508 23.7403 393.56 24.2786 395.495L37.9051 444.471C38.385 446.195 38.3931 448.017 37.9287 449.746L24.2048 500.833C23.7133 502.663 23.7516 504.594 24.3152 506.403L31.0452 528" stroke="#E78CA2" stroke-width="2"/>
<path d="M33.1922 313.58L41.8571 344.723C42.3953 346.658 42.3387 348.71 41.6944 350.612L28.4863 389.606C27.8421 391.508 27.7854 393.56 28.3237 395.495L41.9503 444.471C42.4301 446.195 42.4382 448.017 41.9739 449.746L28.2499 500.833C27.7585 502.663 27.7968 504.594 28.3603 506.403L35.0904 528" stroke="#E78CA2" stroke-width="2"/>
<path d="M37.2374 313.58L45.9022 344.723C46.4405 346.658 46.3838 348.71 45.7396 350.612L32.5315 389.606C31.8873 391.508 31.8306 393.56 32.3689 395.495L45.9955 444.471C46.4753 446.195 46.4834 448.017 46.019 449.746L32.2951 500.833C31.8036 502.663 31.8419 504.594 32.4055 506.403L39.1356 528" stroke="#E78CA2" stroke-width="2"/>
<path d="M41.2825 313.58L49.9474 344.723C50.4857 346.658 50.429 348.71 49.7848 350.612L36.5767 389.606C35.9324 391.508 35.8758 393.56 36.4141 395.495L50.0406 444.471C50.5205 446.195 50.5286 448.017 50.0642 449.746L36.3403 500.833C35.8488 502.663 35.8871 504.594 36.4507 506.403L43.1807 528" stroke="#E78CA2" stroke-width="2"/>
<path d="M45.3279 313.58L53.9928 344.723C54.5311 346.658 54.4744 348.71 53.8302 350.612L40.6221 389.606C39.9779 391.508 39.9212 393.56 40.4595 395.495L54.0861 444.471C54.5659 446.195 54.574 448.017 54.1096 449.746L40.3857 500.833C39.8942 502.663 39.9325 504.594 40.4961 506.403L47.2261 528" stroke="#E78CA2" stroke-width="2"/>
<path d="M49.3728 313.58L58.0377 344.723C58.576 346.658 58.5193 348.71 57.8751 350.612L44.667 389.606C44.0228 391.508 43.9661 393.56 44.5044 395.495L58.131 444.471C58.6108 446.195 58.6189 448.017 58.1545 449.746L44.4306 500.833C43.9391 502.663 43.9774 504.594 44.541 506.403L51.2711 528" stroke="#E78CA2" stroke-width="2"/>
<path d="M53.418 313.58L62.0829 344.723C62.6212 346.658 62.5645 348.71 61.9203 350.612L48.7122 389.606C48.0679 391.508 48.0113 393.56 48.5496 395.495L62.1761 444.471C62.6559 446.195 62.6641 448.017 62.1997 449.746L48.4758 500.833C47.9843 502.663 48.0226 504.594 48.5862 506.403L55.3162 528" stroke="#E78CA2" stroke-width="2"/>
<path d="M57.4637 313.58L66.1285 344.723C66.6668 346.658 66.6102 348.71 65.9659 350.612L52.7578 389.606C52.1136 391.508 52.0569 393.56 52.5952 395.495L66.2218 444.471C66.7016 446.195 66.7097 448.017 66.2453 449.746L52.5214 500.833C52.03 502.663 52.0682 504.594 52.6318 506.403L59.3619 528" stroke="#E78CA2" stroke-width="2"/>
<path d="M61.5088 313.58L70.1737 344.723C70.712 346.658 70.6553 348.71 70.0111 350.612L56.803 389.606C56.1588 391.508 56.1021 393.56 56.6404 395.495L70.267 444.471C70.7468 446.195 70.7549 448.017 70.2905 449.746L56.5666 500.833C56.0751 502.663 56.1134 504.594 56.677 506.403L63.407 528" stroke="#E78CA2" stroke-width="2"/>
<path d="M65.5538 313.58L74.2186 344.723C74.7569 346.658 74.7003 348.71 74.056 350.612L60.8479 389.606C60.2037 391.508 60.147 393.56 60.6853 395.495L74.3119 444.471C74.7917 446.195 74.7998 448.017 74.3354 449.746L60.6115 500.833C60.12 502.663 60.1583 504.594 60.7219 506.403L67.452 528" stroke="#E78CA2" stroke-width="2"/>
<path d="M69.5992 313.58L78.264 344.723C78.8023 346.658 78.7457 348.71 78.1014 350.612L64.8933 389.606C64.2491 391.508 64.1924 393.56 64.7307 395.495L78.3573 444.471C78.8371 446.195 78.8452 448.017 78.3808 449.746L64.6569 500.833C64.1655 502.663 64.2037 504.594 64.7673 506.403L71.4974 528" stroke="#E78CA2" stroke-width="2"/>
<path d="M73.6443 313.58L82.3092 344.723C82.8475 346.658 82.7908 348.71 82.1466 350.612L68.9385 389.606C68.2943 391.508 68.2376 393.56 68.7759 395.495L82.4025 444.471C82.8823 446.195 82.8904 448.017 82.426 449.746L68.7021 500.833C68.2106 502.663 68.2489 504.594 68.8125 506.403L75.5425 528" stroke="#E78CA2" stroke-width="2"/>
<path d="M77.6895 313.58L86.3544 344.723C86.8927 346.658 86.836 348.71 86.1918 350.612L72.9837 389.606C72.3394 391.508 72.2828 393.56 72.821 395.495L86.4476 444.471C86.9274 446.195 86.9356 448.017 86.4712 449.746L72.7472 500.833C72.2558 502.663 72.2941 504.594 72.8577 506.403L79.5877 528" stroke="#E78CA2" stroke-width="2"/>
<path d="M81.7347 313.58L90.3995 344.723C90.9378 346.658 90.8812 348.71 90.2369 350.612L77.0288 389.606C76.3846 391.508 76.3279 393.56 76.8662 395.495L90.4928 444.471C90.9726 446.195 90.9807 448.017 90.5163 449.746L76.7924 500.833C76.301 502.663 76.3392 504.594 76.9028 506.403L83.6329 528" stroke="#E78CA2" stroke-width="2"/>
<path d="M85.7801 313.58L94.445 344.723C94.9832 346.658 94.9266 348.71 94.2823 350.612L81.0742 389.606C80.43 391.508 80.3733 393.56 80.9116 395.495L94.5382 444.471C95.018 446.195 95.0261 448.017 94.5617 449.746L80.8378 500.833C80.3464 502.663 80.3847 504.594 80.9482 506.403L87.6783 528" stroke="#E78CA2" stroke-width="2"/>
<path d="M89.8252 313.58L98.4901 344.723C99.0284 346.658 98.9717 348.71 98.3275 350.612L85.1194 389.606C84.4752 391.508 84.4185 393.56 84.9568 395.495L98.5834 444.471C99.0632 446.195 99.0713 448.017 98.6069 449.746L84.883 500.833C84.3915 502.663 84.4298 504.594 84.9934 506.403L91.7235 528" stroke="#E78CA2" stroke-width="2"/>
<path d="M93.8704 313.58L102.535 344.723C103.074 346.658 103.017 348.71 102.373 350.612L89.1646 389.606C88.5203 391.508 88.4637 393.56 89.0019 395.495L102.629 444.471C103.108 446.195 103.116 448.017 102.652 449.746L88.9282 500.833C88.4367 502.663 88.475 504.594 89.0386 506.403L95.7686 528" stroke="#E78CA2" stroke-width="2"/>
<path d="M97.9158 313.58L106.581 344.723C107.119 346.658 107.062 348.71 106.418 350.612L93.21 389.606C92.5657 391.508 92.5091 393.56 93.0474 395.495L106.674 444.471C107.154 446.195 107.162 448.017 106.697 449.746L92.9736 500.833C92.4821 502.663 92.5204 504.594 93.084 506.403L99.814 528" stroke="#E78CA2" stroke-width="2"/>
<path d="M101.961 313.58L110.626 344.723C111.164 346.658 111.107 348.71 110.463 350.612L97.2551 389.606C96.6109 391.508 96.5542 393.56 97.0925 395.495L110.719 444.471C111.199 446.195 111.207 448.017 110.743 449.746L97.0187 500.833C96.5273 502.663 96.5656 504.594 97.1291 506.403L103.859 528" stroke="#E78CA2" stroke-width="2"/>
<path d="M106.006 313.58L114.671 344.723C115.209 346.658 115.152 348.71 114.508 350.612L101.3 389.606C100.656 391.508 100.599 393.56 101.137 395.495L114.764 444.471C115.244 446.195 115.252 448.017 114.788 449.746L101.064 500.833C100.572 502.663 100.61 504.594 101.174 506.403L107.904 528" stroke="#E78CA2" stroke-width="2"/>
<path d="M110.051 313.58L118.716 344.723C119.254 346.658 119.198 348.71 118.554 350.612L105.345 389.606C104.701 391.508 104.645 393.56 105.183 395.495L118.809 444.471C119.289 446.195 119.297 448.017 118.833 449.746L105.109 500.833C104.618 502.663 104.656 504.594 105.219 506.403L111.95 528" stroke="#E78CA2" stroke-width="2"/>
<path d="M114.097 313.58L122.762 344.723C123.3 346.658 123.243 348.71 122.599 350.612L109.391 389.606C108.747 391.508 108.69 393.56 109.228 395.495L122.855 444.471C123.335 446.195 123.343 448.017 122.878 449.746L109.154 500.833C108.663 502.663 108.701 504.594 109.265 506.403L115.995 528" stroke="#E78CA2" stroke-width="2"/>
<path d="M118.142 313.58L126.807 344.723C127.345 346.658 127.288 348.71 126.644 350.612L113.436 389.606C112.792 391.508 112.735 393.56 113.273 395.495L126.9 444.471C127.38 446.195 127.388 448.017 126.924 449.746L113.2 500.833C112.708 502.663 112.746 504.594 113.31 506.403L120.04 528" stroke="#E78CA2" stroke-width="2"/>
<path d="M122.187 313.58L130.852 344.723C131.39 346.658 131.334 348.71 130.689 350.612L117.481 389.606C116.837 391.508 116.78 393.56 117.319 395.495L130.945 444.471C131.425 446.195 131.433 448.017 130.969 449.746L117.245 500.833C116.753 502.663 116.792 504.594 117.355 506.403L124.085 528" stroke="#E78CA2" stroke-width="2"/>
<path d="M126.232 313.58L134.897 344.723C135.435 346.658 135.379 348.71 134.734 350.612L121.526 389.606C120.882 391.508 120.825 393.56 121.364 395.495L134.99 444.471C135.47 446.195 135.478 448.017 135.014 449.746L121.29 500.833C120.799 502.663 120.837 504.594 121.4 506.403L128.13 528" stroke="#E78CA2" stroke-width="2"/>
<path d="M130.278 313.58L138.943 344.723C139.481 346.658 139.424 348.71 138.78 350.612L125.572 389.606C124.928 391.508 124.871 393.56 125.409 395.495L139.036 444.471C139.516 446.195 139.524 448.017 139.059 449.746L125.335 500.833C124.844 502.663 124.882 504.594 125.446 506.403L132.176 528" stroke="#E78CA2" stroke-width="2"/>
<path d="M134.323 313.58L142.987 344.723C143.526 346.658 143.469 348.71 142.825 350.612L129.617 389.606C128.972 391.508 128.916 393.56 129.454 395.495L143.081 444.471C143.56 446.195 143.569 448.017 143.104 449.746L129.38 500.833C128.889 502.663 128.927 504.594 129.491 506.403L136.221 528" stroke="#E78CA2" stroke-width="2"/>
<path d="M138.368 313.58L147.033 344.723C147.571 346.658 147.515 348.71 146.87 350.612L133.662 389.606C133.018 391.508 132.961 393.56 133.5 395.495L147.126 444.471C147.606 446.195 147.614 448.017 147.15 449.746L133.426 500.833C132.935 502.663 132.973 504.594 133.536 506.403L140.266 528" stroke="#E78CA2" stroke-width="2"/>
<path d="M142.413 313.58L151.078 344.723C151.617 346.658 151.56 348.71 150.916 350.612L137.708 389.606C137.063 391.508 137.007 393.56 137.545 395.495L151.172 444.471C151.651 446.195 151.659 448.017 151.195 449.746L137.471 500.833C136.98 502.663 137.018 504.594 137.582 506.403L144.312 528" stroke="#E78CA2" stroke-width="2"/>
<path d="M146.458 313.58L155.123 344.723C155.661 346.658 155.605 348.71 154.961 350.612L141.752 389.606C141.108 391.508 141.052 393.56 141.59 395.495L155.216 444.471C155.696 446.195 155.704 448.017 155.24 449.746L141.516 500.833C141.025 502.663 141.063 504.594 141.626 506.403L148.357 528" stroke="#E78CA2" stroke-width="2"/>
<path d="M150.504 313.58L159.169 344.723C159.707 346.658 159.65 348.71 159.006 350.612L145.798 389.606C145.154 391.508 145.097 393.56 145.635 395.495L159.262 444.471C159.742 446.195 159.75 448.017 159.285 449.746L145.561 500.833C145.07 502.663 145.108 504.594 145.672 506.403L152.402 528" stroke="#E78CA2" stroke-width="2"/>
<path d="M154.549 313.58L163.214 344.723C163.752 346.658 163.695 348.71 163.051 350.612L149.843 389.606C149.199 391.508 149.142 393.56 149.68 395.495L163.307 444.471C163.787 446.195 163.795 448.017 163.331 449.746L149.607 500.833C149.115 502.663 149.153 504.594 149.717 506.403L156.447 528" stroke="#E78CA2" stroke-width="2"/>
<path d="M158.594 313.58L167.259 344.723C167.797 346.658 167.741 348.71 167.096 350.612L153.888 389.606C153.244 391.508 153.187 393.56 153.726 395.495L167.352 444.471C167.832 446.195 167.84 448.017 167.376 449.746L153.652 500.833C153.16 502.663 153.199 504.594 153.762 506.403L160.492 528" stroke="#E78CA2" stroke-width="2"/>
<path d="M162.639 313.58L171.304 344.723C171.842 346.658 171.786 348.71 171.141 350.612L157.933 389.606C157.289 391.508 157.232 393.56 157.771 395.495L171.397 444.471C171.877 446.195 171.885 448.017 171.421 449.746L157.697 500.833C157.205 502.663 157.244 504.594 157.807 506.403L164.537 528" stroke="#E78CA2" stroke-width="2"/>
<path d="M166.685 313.58L175.349 344.723C175.888 346.658 175.831 348.71 175.187 350.612L161.979 389.606C161.335 391.508 161.278 393.56 161.816 395.495L175.443 444.471C175.923 446.195 175.931 448.017 175.466 449.746L161.742 500.833C161.251 502.663 161.289 504.594 161.853 506.403L168.583 528" stroke="#E78CA2" stroke-width="2"/>
<path d="M170.73 313.58L179.395 344.723C179.933 346.658 179.876 348.71 179.232 350.612L166.024 389.606C165.38 391.508 165.323 393.56 165.861 395.495L179.488 444.471C179.968 446.195 179.976 448.017 179.511 449.746L165.788 500.833C165.296 502.663 165.334 504.594 165.898 506.403L172.628 528" stroke="#E78CA2" stroke-width="2"/>
<path d="M174.775 313.58L183.44 344.723C183.978 346.658 183.921 348.71 183.277 350.612L170.069 389.606C169.425 391.508 169.368 393.56 169.906 395.495L183.533 444.471C184.013 446.195 184.021 448.017 183.557 449.746L169.833 500.833C169.341 502.663 169.38 504.594 169.943 506.403L176.673 528" stroke="#E78CA2" stroke-width="2"/>
<path d="M178.82 313.58L187.485 344.723C188.023 346.658 187.967 348.71 187.322 350.612L174.114 389.606C173.47 391.508 173.413 393.56 173.952 395.495L187.578 444.471C188.058 446.195 188.066 448.017 187.602 449.746L173.878 500.833C173.386 502.663 173.425 504.594 173.988 506.403L180.718 528" stroke="#E78CA2" stroke-width="2"/>
<path d="M182.866 313.58L191.53 344.723C192.069 346.658 192.012 348.71 191.368 350.612L178.16 389.606C177.515 391.508 177.459 393.56 177.997 395.495L191.624 444.471C192.103 446.195 192.112 448.017 191.647 449.746L177.923 500.833C177.432 502.663 177.47 504.594 178.034 506.403L184.764 528" stroke="#E78CA2" stroke-width="2"/>
<path d="M186.91 313.58L195.575 344.723C196.114 346.658 196.057 348.71 195.413 350.612L182.205 389.606C181.56 391.508 181.504 393.56 182.042 395.495L195.669 444.471C196.148 446.195 196.157 448.017 195.692 449.746L181.968 500.833C181.477 502.663 181.515 504.594 182.079 506.403L188.809 528" stroke="#E78CA2" stroke-width="2"/>
<path d="M190.956 313.58L199.621 344.723C200.159 346.658 200.103 348.71 199.458 350.612L186.25 389.606C185.606 391.508 185.549 393.56 186.088 395.495L199.714 444.471C200.194 446.195 200.202 448.017 199.738 449.746L186.014 500.833C185.522 502.663 185.561 504.594 186.124 506.403L192.854 528" stroke="#E78CA2" stroke-width="2"/>
<path d="M195.001 313.58L203.666 344.723C204.204 346.658 204.148 348.71 203.504 350.612L190.295 389.606C189.651 391.508 189.595 393.56 190.133 395.495L203.759 444.471C204.239 446.195 204.247 448.017 203.783 449.746L190.059 500.833C189.568 502.663 189.606 504.594 190.169 506.403L196.899 528" stroke="#E78CA2" stroke-width="2"/>
<path d="M199.046 313.58L207.711 344.723C208.249 346.658 208.193 348.71 207.548 350.612L194.34 389.606C193.696 391.508 193.639 393.56 194.178 395.495L207.804 444.471C208.284 446.195 208.292 448.017 207.828 449.746L194.104 500.833C193.612 502.663 193.651 504.594 194.214 506.403L200.944 528" stroke="#E78CA2" stroke-width="2"/>
<path d="M203.092 313.58L211.756 344.723C212.295 346.658 212.238 348.71 211.594 350.612L198.386 389.606C197.742 391.508 197.685 393.56 198.223 395.495L211.85 444.471C212.33 446.195 212.338 448.017 211.873 449.746L198.149 500.833C197.658 502.663 197.696 504.594 198.26 506.403L204.99 528" stroke="#E78CA2" stroke-width="2"/>
<path d="M207.137 313.58L215.802 344.723C216.34 346.658 216.283 348.71 215.639 350.612L202.431 389.606C201.787 391.508 201.73 393.56 202.268 395.495L215.895 444.471C216.375 446.195 216.383 448.017 215.918 449.746L202.195 500.833C201.703 502.663 201.741 504.594 202.305 506.403L209.035 528" stroke="#E78CA2" stroke-width="2"/>
<path d="M211.182 313.58L219.847 344.723C220.385 346.658 220.328 348.71 219.684 350.612L206.476 389.606C205.832 391.508 205.775 393.56 206.313 395.495L219.94 444.471C220.42 446.195 220.428 448.017 219.964 449.746L206.24 500.833C205.748 502.663 205.787 504.594 206.35 506.403L213.08 528" stroke="#E78CA2" stroke-width="2"/>
<path d="M215.227 313.58L223.892 344.723C224.43 346.658 224.374 348.71 223.729 350.612L210.521 389.606C209.877 391.508 209.82 393.56 210.359 395.495L223.985 444.471C224.465 446.195 224.473 448.017 224.009 449.746L210.285 500.833C209.793 502.663 209.832 504.594 210.395 506.403L217.125 528" stroke="#E78CA2" stroke-width="2"/>
<path d="M219.273 313.58L227.937 344.723C228.476 346.658 228.419 348.71 227.775 350.612L214.567 389.606C213.922 391.508 213.866 393.56 214.404 395.495L228.031 444.471C228.51 446.195 228.519 448.017 228.054 449.746L214.33 500.833C213.839 502.663 213.877 504.594 214.441 506.403L221.171 528" stroke="#E78CA2" stroke-width="2"/>
<path d="M223.318 313.58L231.983 344.723C232.521 346.658 232.464 348.71 231.82 350.612L218.612 389.606C217.968 391.508 217.911 393.56 218.449 395.495L232.076 444.471C232.556 446.195 232.564 448.017 232.1 449.746L218.376 500.833C217.884 502.663 217.922 504.594 218.486 506.403L225.216 528" stroke="#E78CA2" stroke-width="2"/>
<path d="M227.363 313.58L236.028 344.723C236.566 346.658 236.509 348.71 235.865 350.612L222.657 389.606C222.013 391.508 221.956 393.56 222.494 395.495L236.121 444.471C236.601 446.195 236.609 448.017 236.145 449.746L222.421 500.833C221.929 502.663 221.967 504.594 222.531 506.403L229.261 528" stroke="#E78CA2" stroke-width="2"/>
<path d="M231.408 313.58L240.073 344.723C240.611 346.658 240.555 348.71 239.911 350.612L226.702 389.606C226.058 391.508 226.002 393.56 226.54 395.495L240.166 444.471C240.646 446.195 240.654 448.017 240.19 449.746L226.466 500.833C225.975 502.663 226.013 504.594 226.576 506.403L233.306 528" stroke="#E78CA2" stroke-width="2"/>
<path d="M235.453 313.58L244.118 344.723C244.657 346.658 244.6 348.71 243.956 350.612L230.748 389.606C230.103 391.508 230.047 393.56 230.585 395.495L244.212 444.471C244.691 446.195 244.699 448.017 244.235 449.746L230.511 500.833C230.02 502.663 230.058 504.594 230.622 506.403L237.352 528" stroke="#E78CA2" stroke-width="2"/>
<path d="M239.498 313.58L248.163 344.723C248.701 346.658 248.645 348.71 248.001 350.612L234.792 389.606C234.148 391.508 234.092 393.56 234.63 395.495L248.256 444.471C248.736 446.195 248.744 448.017 248.28 449.746L234.556 500.833C234.065 502.663 234.103 504.594 234.666 506.403L241.397 528" stroke="#E78CA2" stroke-width="2"/>
<path d="M243.544 313.58L252.209 344.723C252.747 346.658 252.69 348.71 252.046 350.612L238.838 389.606C238.194 391.508 238.137 393.56 238.675 395.495L252.302 444.471C252.782 446.195 252.79 448.017 252.325 449.746L238.601 500.833C238.11 502.663 238.148 504.594 238.712 506.403L245.442 528" stroke="#E78CA2" stroke-width="2"/>
<path d="M247.589 313.58L256.254 344.723C256.792 346.658 256.736 348.71 256.091 350.612L242.883 389.606C242.239 391.508 242.182 393.56 242.721 395.495L256.347 444.471C256.827 446.195 256.835 448.017 256.371 449.746L242.647 500.833C242.155 502.663 242.194 504.594 242.757 506.403L249.487 528" stroke="#E78CA2" stroke-width="2"/>
<path d="M251.635 313.58L260.299 344.723C260.838 346.658 260.781 348.71 260.137 350.612L246.929 389.606C246.284 391.508 246.228 393.56 246.766 395.495L260.393 444.471C260.873 446.195 260.881 448.017 260.416 449.746L246.692 500.833C246.201 502.663 246.239 504.594 246.803 506.403L253.533 528" stroke="#E78CA2" stroke-width="2"/>
<path d="M255.679 313.58L264.344 344.723C264.883 346.658 264.826 348.71 264.182 350.612L250.974 389.606C250.329 391.508 250.273 393.56 250.811 395.495L264.438 444.471C264.917 446.195 264.926 448.017 264.461 449.746L250.737 500.833C250.246 502.663 250.284 504.594 250.848 506.403L257.578 528" stroke="#E78CA2" stroke-width="2"/>
<path d="M259.725 313.58L268.39 344.723C268.928 346.658 268.871 348.71 268.227 350.612L255.019 389.606C254.375 391.508 254.318 393.56 254.856 395.495L268.483 444.471C268.963 446.195 268.971 448.017 268.506 449.746L254.782 500.833C254.291 502.663 254.329 504.594 254.893 506.403L261.623 528" stroke="#E78CA2" stroke-width="2"/>
<path d="M263.77 313.58L272.435 344.723C272.973 346.658 272.917 348.71 272.272 350.612L259.064 389.606C258.42 391.508 258.363 393.56 258.902 395.495L272.528 444.471C273.008 446.195 273.016 448.017 272.552 449.746L258.828 500.833C258.336 502.663 258.375 504.594 258.938 506.403L265.668 528" stroke="#E78CA2" stroke-width="2"/>
<path d="M267.815 313.58L276.48 344.723C277.018 346.658 276.961 348.71 276.317 350.612L263.109 389.606C262.465 391.508 262.408 393.56 262.947 395.495L276.573 444.471C277.053 446.195 277.061 448.017 276.597 449.746L262.873 500.833C262.381 502.663 262.42 504.594 262.983 506.403L269.713 528" stroke="#E78CA2" stroke-width="2"/>
<path d="M271.86 313.58L280.525 344.723C281.064 346.658 281.007 348.71 280.363 350.612L267.155 389.606C266.51 391.508 266.454 393.56 266.992 395.495L280.619 444.471C281.098 446.195 281.106 448.017 280.642 449.746L266.918 500.833C266.427 502.663 266.465 504.594 267.029 506.403L273.759 528" stroke="#E78CA2" stroke-width="2"/>
<path d="M275.906 313.58L284.571 344.723C285.109 346.658 285.052 348.71 284.408 350.612L271.2 389.606C270.556 391.508 270.499 393.56 271.037 395.495L284.664 444.471C285.144 446.195 285.152 448.017 284.687 449.746L270.964 500.833C270.472 502.663 270.51 504.594 271.074 506.403L277.804 528" stroke="#E78CA2" stroke-width="2"/>
<path d="M279.951 313.58L288.616 344.723C289.154 346.658 289.097 348.71 288.453 350.612L275.245 389.606C274.601 391.508 274.544 393.56 275.082 395.495L288.709 444.471C289.189 446.195 289.197 448.017 288.732 449.746L275.008 500.833C274.517 502.663 274.555 504.594 275.119 506.403L281.849 528" stroke="#E78CA2" stroke-width="2"/>
<path d="M283.996 313.58L292.661 344.723C293.199 346.658 293.143 348.71 292.498 350.612L279.29 389.606C278.646 391.508 278.589 393.56 279.128 395.495L292.754 444.471C293.234 446.195 293.242 448.017 292.778 449.746L279.054 500.833C278.562 502.663 278.601 504.594 279.164 506.403L285.894 528" stroke="#E78CA2" stroke-width="2"/>
<path d="M288.041 313.58L296.706 344.723C297.244 346.658 297.188 348.71 296.544 350.612L283.335 389.606C282.691 391.508 282.635 393.56 283.173 395.495L296.799 444.471C297.279 446.195 297.287 448.017 296.823 449.746L283.099 500.833C282.608 502.663 282.646 504.594 283.209 506.403L289.94 528" stroke="#E78CA2" stroke-width="2"/>
<path d="M292.087 313.58L300.752 344.723C301.29 346.658 301.233 348.71 300.589 350.612L287.381 389.606C286.737 391.508 286.68 393.56 287.218 395.495L300.845 444.471C301.325 446.195 301.333 448.017 300.868 449.746L287.144 500.833C286.653 502.663 286.691 504.594 287.255 506.403L293.985 528" stroke="#E78CA2" stroke-width="2"/>
<path d="M296.132 313.58L304.797 344.723C305.335 346.658 305.278 348.71 304.634 350.612L291.426 389.606C290.782 391.508 290.725 393.56 291.263 395.495L304.89 444.471C305.37 446.195 305.378 448.017 304.913 449.746L291.189 500.833C290.698 502.663 290.736 504.594 291.3 506.403L298.03 528" stroke="#E78CA2" stroke-width="2"/>
<path d="M300.177 313.58L308.842 344.723C309.38 346.658 309.323 348.71 308.679 350.612L295.471 389.606C294.827 391.508 294.77 393.56 295.308 395.495L308.935 444.471C309.415 446.195 309.423 448.017 308.958 449.746L295.235 500.833C294.743 502.663 294.781 504.594 295.345 506.403L302.075 528" stroke="#E78CA2" stroke-width="2"/>
<path d="M304.222 313.58L312.887 344.723C313.426 346.658 313.369 348.71 312.725 350.612L299.517 389.606C298.872 391.508 298.816 393.56 299.354 395.495L312.981 444.471C313.46 446.195 313.469 448.017 313.004 449.746L299.28 500.833C298.789 502.663 298.827 504.594 299.391 506.403L306.121 528" stroke="#E78CA2" stroke-width="2"/>
<path d="M308.267 313.58L316.932 344.723C317.471 346.658 317.414 348.71 316.77 350.612L303.562 389.606C302.917 391.508 302.861 393.56 303.399 395.495L317.026 444.471C317.505 446.195 317.513 448.017 317.049 449.746L303.325 500.833C302.834 502.663 302.872 504.594 303.436 506.403L310.166 528" stroke="#E78CA2" stroke-width="2"/>
<path d="M312.313 313.58L320.978 344.723C321.516 346.658 321.459 348.71 320.815 350.612L307.607 389.606C306.963 391.508 306.906 393.56 307.444 395.495L321.071 444.471C321.551 446.195 321.559 448.017 321.094 449.746L307.371 500.833C306.879 502.663 306.917 504.594 307.481 506.403L314.211 528" stroke="#E78CA2" stroke-width="2"/>
<path d="M316.358 313.58L325.023 344.723C325.561 346.658 325.504 348.71 324.86 350.612L311.652 389.606C311.008 391.508 310.951 393.56 311.489 395.495L325.116 444.471C325.596 446.195 325.604 448.017 325.14 449.746L311.416 500.833C310.924 502.663 310.963 504.594 311.526 506.403L318.256 528" stroke="#E78CA2" stroke-width="2"/>
<path d="M320.403 313.58L329.068 344.723C329.606 346.658 329.549 348.71 328.905 350.612L315.697 389.606C315.053 391.508 314.996 393.56 315.534 395.495L329.161 444.471C329.641 446.195 329.649 448.017 329.185 449.746L315.461 500.833C314.969 502.663 315.007 504.594 315.571 506.403L322.301 528" stroke="#E78CA2" stroke-width="2"/>
<path d="M324.448 313.58L333.113 344.723C333.651 346.658 333.595 348.71 332.951 350.612L319.742 389.606C319.098 391.508 319.042 393.56 319.58 395.495L333.206 444.471C333.686 446.195 333.694 448.017 333.23 449.746L319.506 500.833C319.015 502.663 319.053 504.594 319.616 506.403L326.346 528" stroke="#E78CA2" stroke-width="2"/>
<path d="M328.494 313.58L337.159 344.723C337.697 346.658 337.64 348.71 336.996 350.612L323.788 389.606C323.144 391.508 323.087 393.56 323.625 395.495L337.252 444.471C337.732 446.195 337.74 448.017 337.275 449.746L323.551 500.833C323.06 502.663 323.098 504.594 323.662 506.403L330.392 528" stroke="#E78CA2" stroke-width="2"/>
<path d="M332.539 313.58L341.204 344.723C341.742 346.658 341.685 348.71 341.041 350.612L327.833 389.606C327.189 391.508 327.132 393.56 327.67 395.495L341.297 444.471C341.777 446.195 341.785 448.017 341.321 449.746L327.597 500.833C327.105 502.663 327.143 504.594 327.707 506.403L334.437 528" stroke="#E78CA2" stroke-width="2"/>
<path d="M336.584 313.58L345.249 344.723C345.787 346.658 345.731 348.71 345.086 350.612L331.878 389.606C331.234 391.508 331.177 393.56 331.716 395.495L345.342 444.471C345.822 446.195 345.83 448.017 345.366 449.746L331.642 500.833C331.15 502.663 331.189 504.594 331.752 506.403L338.482 528" stroke="#E78CA2" stroke-width="2"/>
<path d="M340.629 313.58L349.294 344.723C349.832 346.658 349.776 348.71 349.131 350.612L335.923 389.606C335.279 391.508 335.222 393.56 335.761 395.495L349.387 444.471C349.867 446.195 349.875 448.017 349.411 449.746L335.687 500.833C335.195 502.663 335.234 504.594 335.797 506.403L342.527 528" stroke="#E78CA2" stroke-width="2"/>
<path d="M344.675 313.58L353.339 344.723C353.878 346.658 353.821 348.71 353.177 350.612L339.969 389.606C339.325 391.508 339.268 393.56 339.806 395.495L353.433 444.471C353.913 446.195 353.921 448.017 353.456 449.746L339.732 500.833C339.241 502.663 339.279 504.594 339.843 506.403L346.573 528" stroke="#E78CA2" stroke-width="2"/>
<path d="M348.72 313.58L357.384 344.723C357.923 346.658 357.866 348.71 357.222 350.612L344.014 389.606C343.369 391.508 343.313 393.56 343.851 395.495L357.478 444.471C357.957 446.195 357.966 448.017 357.501 449.746L343.777 500.833C343.286 502.663 343.324 504.594 343.888 506.403L350.618 528" stroke="#E78CA2" stroke-width="2"/>
<path d="M352.765 313.58L361.43 344.723C361.968 346.658 361.911 348.71 361.267 350.612L348.059 389.606C347.415 391.508 347.358 393.56 347.896 395.495L361.523 444.471C362.003 446.195 362.011 448.017 361.546 449.746L347.822 500.833C347.331 502.663 347.369 504.594 347.933 506.403L354.663 528" stroke="#E78CA2" stroke-width="2"/>
<path d="M356.81 313.58L365.475 344.723C366.014 346.658 365.957 348.71 365.313 350.612L352.105 389.606C351.46 391.508 351.404 393.56 351.942 395.495L365.568 444.471C366.048 446.195 366.056 448.017 365.592 449.746L351.868 500.833C351.377 502.663 351.415 504.594 351.979 506.403L358.709 528" stroke="#E78CA2" stroke-width="2"/>
<path d="M360.855 313.58L369.52 344.723C370.058 346.658 370.002 348.71 369.358 350.612L356.149 389.606C355.505 391.508 355.449 393.56 355.987 395.495L369.613 444.471C370.093 446.195 370.101 448.017 369.637 449.746L355.913 500.833C355.422 502.663 355.46 504.594 356.023 506.403L362.753 528" stroke="#E78CA2" stroke-width="2"/>
<path d="M364.901 313.58L373.566 344.723C374.104 346.658 374.047 348.71 373.403 350.612L360.195 389.606C359.551 391.508 359.494 393.56 360.032 395.495L373.659 444.471C374.139 446.195 374.147 448.017 373.682 449.746L359.958 500.833C359.467 502.663 359.505 504.594 360.069 506.403L366.799 528" stroke="#E78CA2" stroke-width="2"/>
<path d="M368.946 313.58L377.611 344.723C378.149 346.658 378.092 348.71 377.448 350.612L364.24 389.606C363.596 391.508 363.539 393.56 364.077 395.495L377.704 444.471C378.184 446.195 378.192 448.017 377.728 449.746L364.004 500.833C363.512 502.663 363.55 504.594 364.114 506.403L370.844 528" stroke="#E78CA2" stroke-width="2"/>
<path d="M372.991 313.58L381.656 344.723C382.194 346.658 382.138 348.71 381.493 350.612L368.285 389.606C367.641 391.508 367.584 393.56 368.123 395.495L381.749 444.471C382.229 446.195 382.237 448.017 381.773 449.746L368.049 500.833C367.557 502.663 367.596 504.594 368.159 506.403L374.889 528" stroke="#E78CA2" stroke-width="2"/>
<path d="M377.373 313.58L386.038 344.723C386.576 346.658 386.52 348.71 385.876 350.612L372.667 389.606C372.023 391.508 371.967 393.56 372.505 395.495L386.131 444.471C386.611 446.195 386.619 448.017 386.155 449.746L372.431 500.833C371.94 502.663 371.978 504.594 372.541 506.403L379.272 528" stroke="#E78CA2" stroke-width="2"/>
<path d="M381.419 313.58L390.083 344.723C390.622 346.658 390.565 348.71 389.921 350.612L376.713 389.606C376.068 391.508 376.012 393.56 376.55 395.495L390.177 444.471C390.656 446.195 390.665 448.017 390.2 449.746L376.476 500.833C375.985 502.663 376.023 504.594 376.587 506.403L383.317 528" stroke="#E78CA2" stroke-width="2"/>
<path d="M385.464 313.58L394.129 344.723C394.667 346.658 394.61 348.71 393.966 350.612L380.758 389.606C380.114 391.508 380.057 393.56 380.595 395.495L394.222 444.471C394.702 446.195 394.71 448.017 394.245 449.746L380.521 500.833C380.03 502.663 380.068 504.594 380.632 506.403L387.362 528" stroke="#E78CA2" stroke-width="2"/>
<path d="M389.509 313.58L398.174 344.723C398.712 346.658 398.655 348.71 398.011 350.612L384.803 389.606C384.159 391.508 384.102 393.56 384.64 395.495L398.267 444.471C398.747 446.195 398.755 448.017 398.291 449.746L384.567 500.833C384.075 502.663 384.113 504.594 384.677 506.403L391.407 528" stroke="#E78CA2" stroke-width="2"/>
</g>
</g>
<path d="M224.131 336.517H229.113V385.813H258.489V307.458L224.131 336.517Z" fill="#910940"/>
<path d="M387.201 385.813H297.829V235.02H340.906L387.201 298.637V385.813Z" fill="#910940"/>
<path d="M344.227 385.813H251.534V298.637L300.32 238.341L344.227 298.637V385.813Z" fill="#E78CA2"/>
<path d="M344.227 385.398H251.534V298.222L300.32 237.926L344.227 298.222V385.398Z" fill="#FFEAF4"/>
<path d="M297.828 235.02L300.216 238.445L251.534 298.637H247.485L297.828 235.02Z" fill="#D64B71"/>
<path d="M297.829 235.02H340.906L391.041 303.723H344.227L297.829 235.02Z" fill="#EFACBB"/>
<path d="M331.991 243.678L318.913 243.678L318.913 218.044L331.991 218.044L331.991 243.678Z" fill="#910940"/>
<path d="M318.9 243.634V218H308.52V235.02H313.71L318.9 243.634Z" fill="#910940"/>
<path d="M251.528 385.749L226.616 385.749L226.616 372.673L251.528 372.673L251.528 385.749Z" fill="#DE6B8A"/>
<path d="M251.534 372.736H344.435V385.813H251.534V372.736Z" fill="#DE6B8A"/>
<path d="M389.01 385.749L344.48 385.749L344.48 372.673L389.01 372.673L389.01 385.749Z" fill="#D64B71"/>
<path d="M355.421 321.6L349.4 321.6L349.4 309.25L355.421 309.25L355.421 321.6Z" fill="#D64B71"/>
<path d="M355.421 338.618L349.4 338.618L349.4 326.268L355.421 326.268L355.421 338.618Z" fill="#D64B71"/>
<path d="M355.421 355.115L349.4 355.115L349.4 342.765L355.421 342.765L355.421 355.115Z" fill="#D64B71"/>
<path d="M364.344 321.6L358.323 321.6L358.323 309.25L364.344 309.25L364.344 321.6Z" fill="#D64B71"/>
<path d="M364.344 338.618L358.323 338.618L358.323 326.268L364.344 326.268L364.344 338.618Z" fill="#D64B71"/>
<path d="M364.344 355.115L358.323 355.115L358.323 342.765L364.344 342.765L364.344 355.115Z" fill="#D64B71"/>
<path d="M373.501 321.6L367.48 321.6L367.48 309.25L373.501 309.25L373.501 321.6Z" fill="#D64B71"/>
<path d="M373.501 338.618L367.48 338.618L367.48 326.268L373.501 326.268L373.501 338.618Z" fill="#D64B71"/>
<path d="M373.501 355.115L367.48 355.115L367.48 342.765L373.501 342.765L373.501 355.115Z" fill="#D64B71"/>
<path d="M251.534 385.813H241.881V363.915C241.881 358.519 246.24 354.264 251.534 354.264V385.813Z" fill="#DE6B8A"/>
<path d="M224.131 336.517L251.534 313.374V318.355L229.113 336.517H224.131Z" fill="#910940"/>
<rect x="278" y="330" width="30" height="56" fill="#D64B71"/>
<path d="M295.105 303.743C297.728 305.132 302.187 299.269 303.853 297.717C306.618 294.765 308.679 291.387 310.543 287.693C312.773 283.532 312.577 278.299 308.035 275.948C306.371 275.041 304.424 275.438 302.675 276.152C299.74 277.428 296.523 280.009 295.845 283.14C295.788 283.401 295.788 283.401 295.845 283.14C294.493 274.651 282.362 274.207 281.371 282.462C280.213 289.041 287.686 299.949 295.105 303.743Z" fill="#D64B71"/>
<path d="M363.476 392.315C363.28 384.179 365.927 372.515 373.575 382.709C373.477 378.69 376.222 367.81 382.007 369.182C384.066 369.672 386.419 374.867 386.909 375.749C386.419 367.81 394.459 355.753 403.675 361.046C410.93 365.163 409.263 378.102 409.263 385.062C409.361 381.925 412.205 380.651 414.362 382.611C415.636 383.787 416.519 391.139 416.224 392.805C415.342 397.903 410.048 398.981 405.243 397.413C403.675 405.45 388.968 399.961 386.419 395.354C385.34 398.491 380.928 398.687 379.164 396.04C379.262 399.373 371.908 400.451 368.967 399.373C366.124 398.295 365.143 395.55 363.476 392.315Z" fill="#1FC2C1"/>
<path d="M381.223 392.315L380.144 376.239L380.732 376.141L381.713 392.217L381.223 392.315Z" fill="#EFACBB"/>
<path d="M381.026 387.414L377.006 384.473L377.3 383.983L381.32 387.022L381.026 387.414Z" fill="#EFACBB"/>
<path d="M380.928 381.728L380.536 381.532L383.183 376.141L383.673 376.337L380.928 381.728Z" fill="#EFACBB"/>
<path d="M373.084 395.746L368.967 384.669L369.457 384.473L373.575 395.55L373.084 395.746Z" fill="#EFACBB"/>
<path d="M371.026 389.864L366.319 388.492L366.417 388.002L371.222 389.374L371.026 389.864Z" fill="#EFACBB"/>
<path d="M212.421 298.691C215.506 294.578 216.02 287.724 214.306 284.125C212.764 280.527 206.081 280.355 206.081 280.355C206.081 280.355 207.109 265.447 197.855 266.989C188.601 268.532 193.056 289.951 193.056 289.951C193.056 289.951 183.802 292.522 184.145 303.146C184.488 313.77 190.486 315.827 190.486 315.827C190.486 315.827 180.032 320.967 183.288 333.305C185.345 341.53 190.143 349.584 199.397 350.441C205.224 350.955 211.05 348.213 214.82 343.758C218.248 339.817 220.818 334.162 220.476 328.678C220.133 323.538 216.877 319.254 213.792 315.484C213.621 315.313 213.621 315.313 213.621 315.141C213.621 314.97 213.792 314.798 213.964 314.627C215.506 312.913 218.248 312.571 218.248 307.773C218.076 300.747 212.079 299.205 212.421 298.691Z" fill="#1FC2C1"/>
<path d="M188.258 322.681L195.456 330.221L195.627 330.392L195.97 322.51L196.313 331.078L199.911 334.847L200.426 310.515L191.172 299.376L195.627 304.003L195.799 299.376L196.313 304.688L200.426 308.972L201.111 285.839V305.888V316.855L205.395 312.057L206.081 305.031L205.909 311.543L211.051 305.888L201.111 318.568V381.8L198.883 382.142L199.911 335.876L188.258 322.681Z" fill="#910940"/>
<path d="M170.264 306.402C171.978 305.888 173.692 305.888 175.405 306.402C181.06 308.287 180.718 315.656 180.889 320.282C184.488 320.454 187.401 321.482 188.258 325.423C188.772 327.479 187.744 330.05 187.058 332.277C187.058 332.277 189.458 334.676 190.486 336.561C192.2 339.474 191.514 343.416 189.629 346.157C187.058 349.756 182.774 351.47 178.661 352.669C168.036 355.411 152.27 354.383 149.7 340.845C148.843 336.219 151.756 333.82 155.698 332.449C155.869 332.449 156.04 332.277 156.04 332.106C156.212 331.935 156.04 331.763 156.04 331.592C155.698 330.221 155.012 328.85 155.012 327.479C154.841 325.766 155.355 324.052 156.555 322.681C158.268 320.625 160.496 320.454 162.895 320.111C163.067 320.111 163.067 314.285 163.067 313.599C163.581 311.029 165.637 308.801 167.694 307.602C168.55 307.088 169.407 306.745 170.264 306.402Z" fill="#0EAAA6"/>
<path d="M157.926 339.131L171.464 344.615L172.149 314.456V331.249L179.347 327.307L172.149 332.106L171.807 385.569H170.607L171.464 345.471L157.926 339.131Z" fill="#D64B71"/>
<path d="M245.324 340.16C246.352 334.162 246.009 330.221 241.211 325.766C238.298 323.024 234.356 323.195 231.443 325.937C231.272 319.768 226.131 312.742 219.447 313.428C213.792 313.942 211.564 320.454 210.707 325.252C206.08 323.367 203.338 325.08 202.482 329.878C194.427 327.822 187.23 335.362 188.943 343.244C189.8 347.185 193.056 349.413 196.826 349.756C199.911 349.927 200.082 349.413 202.139 347.871C201.282 351.984 214.135 352.498 216.191 348.899C220.647 351.127 225.274 354.383 230.758 352.84C232.643 352.326 234.185 351.298 235.556 350.099C235.899 349.756 239.326 346.329 239.326 346.329C241.554 347.357 243.61 347.357 245.495 345.643C247.209 343.93 247.38 341.531 245.324 340.16Z" fill="#0EAAA6"/>
<path d="M208.822 343.415L198.197 342.045L208.137 342.73L200.254 334.333L210.707 344.615L211.393 337.761V345.3L220.475 354.382L220.818 329.707L216.362 324.223L220.818 329.193L220.989 321.481V346.157L234.014 335.362L230.415 338.617L235.556 341.53L230.072 338.789L220.989 347.014V396.537L219.618 396.708L220.304 355.753L208.822 343.415Z" fill="#D64B71"/>
<path d="M289.196 349.927C289.025 349.756 289.025 349.756 288.853 349.585C287.311 348.042 284.055 345.643 284.398 343.416C284.74 341.359 286.111 339.303 286.454 337.075C287.311 332.791 286.968 327.993 283.541 324.909C282.513 324.052 281.142 323.367 280.456 322.167C279.771 320.968 280.113 320.282 280.285 319.083C280.628 316.341 280.285 313.256 278.571 311.2C275.315 307.259 271.031 307.773 271.031 307.773C271.031 307.773 264.861 307.43 263.833 313.428C262.805 319.425 264.005 320.282 264.005 320.282C264.005 320.282 257.664 324.395 256.978 331.592C256.293 338.789 258.178 341.017 259.549 343.244C259.549 343.244 256.636 347.871 255.607 350.955C254.579 354.04 254.236 359.352 256.464 362.608C259.035 366.378 263.833 367.749 268.117 367.92C274.287 368.263 281.656 368.948 287.482 366.035C290.91 364.321 293.652 360.894 293.309 357.124C292.966 354.383 291.081 352.155 289.196 349.927Z" fill="#1FC2C1"/>
<path d="M284.912 352.669L276.172 355.582L278.571 350.613L275.658 355.753L271.887 356.953V354.725V313.085L271.545 337.075L268.803 334.848L268.289 330.221L268.46 334.505L263.49 330.392L271.545 337.761L270.517 395.337L271.716 395.509L271.887 357.638L284.912 352.669Z" fill="#B50437"/>
<path d="M292.28 404.934C291.766 402.192 287.825 399.793 285.768 398.422C284.054 397.222 282.169 396.537 280.113 396.366C279.77 396.366 275.657 396.023 276 396.708C273.429 388.312 267.946 389.34 267.946 389.34C267.946 389.34 264.347 376.488 257.321 376.659C250.295 376.831 253.208 393.281 253.208 393.281C246.524 394.823 245.153 405.105 245.153 405.105C245.153 405.105 245.153 406.476 245.668 406.819C246.353 407.161 252.694 409.732 256.978 409.218C261.262 408.875 262.29 407.675 262.29 407.675C262.29 407.675 265.204 409.389 266.917 409.046C268.631 408.875 270.688 407.504 270.688 407.504C270.688 407.504 274.115 410.074 278.742 409.218C283.369 408.703 286.111 406.647 286.111 406.647C286.282 406.476 287.31 406.99 287.482 406.99C288.853 407.333 290.909 407.161 291.937 406.133C292.28 405.79 292.452 405.448 292.28 404.934Z" fill="#0EAAA6"/>
<path d="M257.664 383L262.291 407.332" stroke="#E78CA2" stroke-miterlimit="10"/>
<path d="M263.833 380.601L260.577 398.079" stroke="#E78CA2" stroke-miterlimit="10"/>
<path d="M250.638 394.48L261.434 402.706" stroke="#E78CA2" stroke-miterlimit="10"/>
<path d="M271.716 390.368L270.688 407.675" stroke="#E78CA2" stroke-miterlimit="10"/>
<path d="M284.054 397.394L281.312 408.875" stroke="#E78CA2" stroke-miterlimit="10"/>
<path d="M386 343H0V520H386V343Z" fill="url(#paint1_linear)"/>
<path d="M177.652 389.91C177.742 384.259 175.948 376.276 170.837 383.362C170.927 380.581 169.044 373.136 165.099 374.123C163.754 374.482 162.05 377.98 161.781 378.697C162.14 373.226 156.67 364.974 150.394 368.562C145.462 371.342 146.628 380.222 146.628 385.066C146.628 382.913 144.655 382.016 143.131 383.362C142.234 384.169 141.607 389.282 141.876 390.358C142.414 393.856 146 394.664 149.318 393.498C150.394 398.969 160.347 395.202 162.05 392.062C162.767 394.215 165.816 394.395 166.982 392.511C166.982 394.753 171.913 395.471 173.886 394.843C175.948 394.125 176.576 392.152 177.652 389.91Z" fill="#E78CA2"/>
<path d="M153.213 371.25L157.34 392.652L156.987 392.72L152.861 371.318L153.213 371.25Z" fill="#D64B71"/>
<path d="M150.179 377.023L155.015 381.165L154.782 381.437L149.946 377.296L150.179 377.023Z" fill="#D64B71"/>
<path d="M155.863 385.514L158.912 380.402L158.643 380.222L155.594 385.335L155.863 385.514Z" fill="#D64B71"/>
<path d="M173.571 384.609L173.908 384.732L171.15 392.319L170.813 392.196L173.571 384.609Z" fill="#D64B71"/>
<path d="M175.697 387.044L175.796 387.389L172.606 388.301L172.507 387.956L175.697 387.044Z" fill="#D64B71"/>
<path d="M163.708 399.501C163.529 392.056 165.95 381.382 172.944 390.711C172.854 387.033 175.365 377.077 180.655 378.332C182.538 378.781 184.69 383.535 185.138 384.342C184.69 377.077 192.042 366.044 200.471 370.888C207.106 374.655 205.582 386.495 205.582 392.863C205.672 389.993 208.272 388.827 210.244 390.621C211.41 391.697 212.217 398.425 211.948 399.95C211.141 404.614 206.299 405.601 201.906 404.165C200.471 411.521 187.021 406.498 184.69 402.282C183.704 405.152 179.669 405.331 178.055 402.91C178.144 405.959 171.42 406.946 168.73 405.959C166.129 404.973 165.233 402.461 163.708 399.501Z" fill="#0EAAA6"/>
<path d="M191.504 403.178L191.056 403.089L196.705 374.565L197.153 374.655L191.504 403.178Z" fill="#1FC2C1"/>
<path d="M194.553 388.11L194.195 387.751L200.74 382.189L201.009 382.548L194.553 388.11Z" fill="#1FC2C1"/>
<path d="M193.029 393.491L188.994 386.764L189.442 386.584L193.477 393.312L193.029 393.491Z" fill="#1FC2C1"/>
<path d="M179.938 399.501L178.952 384.791L179.49 384.701L180.386 399.412L179.938 399.501Z" fill="#1FC2C1"/>
<path d="M179.759 395.016L176.082 392.325L176.351 391.877L180.028 394.658L179.759 395.016Z" fill="#1FC2C1"/>
<path d="M179.669 389.814L179.31 389.635L181.731 384.701L182.18 384.881L179.669 389.814Z" fill="#1FC2C1"/>
<path d="M172.496 402.64L168.73 392.505L169.178 392.325L172.944 402.461L172.496 402.64Z" fill="#1FC2C1"/>
<path d="M170.613 397.258L166.309 396.003L166.398 395.554L170.792 396.81L170.613 397.258Z" fill="#1FC2C1"/>
</g>
<defs>
<linearGradient id="paint0_linear" x1="191.041" y1="580.222" x2="194.624" y2="370.99" gradientUnits="userSpaceOnUse">
<stop stop-color="white"/>
<stop offset="1" stop-color="white" stop-opacity="0"/>
</linearGradient>
<linearGradient id="paint1_linear" x1="191.041" y1="546.481" x2="193.792" y2="363.132" gradientUnits="userSpaceOnUse">
<stop stop-color="white"/>
<stop offset="1" stop-color="white" stop-opacity="0"/>
</linearGradient>
<clipPath id="clip0">
<rect width="385" height="520" fill="white"/>
</clipPath>
</defs>
</svg>
