<svg width="360" height="280" viewBox="0 0 360 280" fill="none" xmlns="http://www.w3.org/2000/svg">
<g clip-path="url(#clip0)">
<path d="M154.774 103H360V280H0V103H99.5434H154.774Z" fill="#82F2DB"/>
<path d="M360 0H0V103H360V0Z" fill="#D7FAF2"/>
<path d="M160.998 15.0234H-106.512V22.8804H160.998V15.0234Z" fill="#3A827E"/>
<path d="M156.509 -5.74219H-121.477V15.9579H156.509V-5.74219Z" fill="#296D68"/>
<path d="M140.57 88.6152H-77.7773V112.074H140.57V88.6152Z" fill="#149295"/>
<path d="M146.406 81.9937L140.008 81.8066L140.569 112.112L146.406 103.133V81.9937Z" fill="#27A8A5"/>
<path d="M141.245 86.7448H-78.1875V80.9082H146.67L141.245 86.7448Z" fill="#27A8A5"/>
<path d="M141.057 86.6699H-78.3008V88.6529H141.057V86.6699Z" fill="#3A827E"/>
<path d="M141.059 88.6155V86.6699L146.671 80.9082V82.5918L141.059 88.6155Z" fill="#296D68"/>
<path fill-rule="evenodd" clip-rule="evenodd" d="M136.191 70.5079C134.695 69.9467 131.066 69.5352 126.838 69.5352C122.61 69.5352 118.981 69.9467 117.484 70.5079H116.848C116.661 70.5079 116.512 70.6576 116.512 70.8446C116.512 71.0317 116.661 71.1814 116.848 71.1814H136.827C137.015 71.1814 137.164 71.0317 137.164 70.8446C137.164 70.6576 137.015 70.5079 136.827 70.5079H136.191Z" fill="#149295"/>
<path fill-rule="evenodd" clip-rule="evenodd" d="M117.113 71.1816H136.569V82.1065C136.569 83.0044 135.82 83.7527 134.922 83.7527H118.572C117.787 83.7527 117.151 83.1167 117.151 82.331V71.1816H117.113Z" fill="#055E5A"/>
<path fill-rule="evenodd" clip-rule="evenodd" d="M124.594 66.9531H129.009C129.533 66.9531 130.056 67.1776 130.393 67.5143C130.767 67.8885 130.954 68.3749 130.954 68.8986V70.5449V70.8816H130.618H122.985H122.648V70.5823V68.9361C122.648 68.4123 122.873 67.8885 123.21 67.5517C123.584 67.1776 124.07 66.9531 124.594 66.9531ZM129.046 67.6266H124.631C124.257 67.6266 123.958 67.7762 123.696 68.0007C123.472 68.2252 123.322 68.5619 123.322 68.9361V70.2456H130.356V68.9361C130.356 68.5619 130.206 68.2626 129.982 68.0007C129.72 67.7762 129.42 67.6266 129.046 67.6266Z" fill="#149295"/>
<path fill-rule="evenodd" clip-rule="evenodd" d="M113.184 73.0896C113.184 72.6406 113.371 72.2291 113.67 71.9297C113.969 71.6304 114.381 71.4434 114.83 71.4434H118.01H118.347V71.7801V74.3616V74.6984H118.01H114.83C114.381 74.6984 113.969 74.5113 113.67 74.212C113.371 73.9501 113.184 73.5385 113.184 73.0896ZM113.857 73.0896C113.857 73.3515 113.969 73.6134 114.156 73.763C114.343 73.9501 114.568 74.0623 114.83 74.0623H117.673V72.1168H114.83C114.568 72.1168 114.306 72.229 114.156 72.4161C113.969 72.6032 113.857 72.8277 113.857 73.0896Z" fill="#055E5A"/>
<path fill-rule="evenodd" clip-rule="evenodd" d="M139.784 73.0893C139.784 72.8274 139.672 72.5655 139.485 72.4158C139.298 72.2287 139.073 72.1165 138.812 72.1165H135.968V74.062H138.812C139.073 74.062 139.335 73.9498 139.485 73.7627C139.672 73.6131 139.784 73.3512 139.784 73.0893ZM140.458 73.0893C140.458 73.5382 140.271 73.9498 139.971 74.2491C139.672 74.5484 139.26 74.7355 138.812 74.7355H135.631H135.332V74.3988V71.8172V71.4805H135.669H138.849C139.298 71.4805 139.709 71.6675 140.009 71.9669C140.271 72.2287 140.458 72.6403 140.458 73.0893Z" fill="#055E5A"/>
<path d="M126.802 111.027H94.2891V112.112H126.802V111.027Z" fill="#055E5A"/>
<path d="M127.515 88.5781H93.8047V110.69H127.515V88.5781Z" fill="#3A827E"/>
<path d="M103.568 106.91C102.259 106.91 101.211 106.012 101.211 104.927V99.9888C101.211 98.9038 102.259 98.0059 103.568 98.0059H117.898C119.207 98.0059 120.255 98.9038 120.255 99.9888V104.927C120.255 106.012 119.207 106.91 117.898 106.91H103.568Z" fill="#055E5A"/>
<path d="M103.756 95.5742C103.905 95.5742 104.055 95.6865 104.055 95.8361V96.2103H102.82V95.7239L103.756 95.5742Z" fill="#055E5A"/>
<path d="M117.749 95.5742C117.599 95.5742 117.449 95.6865 117.449 95.8361V96.2103H118.684V95.7239L117.749 95.5742Z" fill="#055E5A"/>
<path d="M120.779 95.7242L120.367 95.5371H117.748L118.422 95.7616C118.684 95.8364 118.609 96.1731 118.347 96.1731H110.864H110.752H103.269C102.97 96.1731 102.895 95.8364 103.194 95.7616L103.868 95.5371H101.211L100.8 95.7242C100.575 95.8364 100.426 96.0235 100.426 96.2106C100.426 96.5099 100.725 97.1833 101.099 97.1833H120.554C120.929 97.1833 121.228 96.5099 121.228 96.2106C121.153 96.0235 121.003 95.8364 120.779 95.7242Z" fill="#4FD3BC"/>
<path d="M127.664 94.6392H93.7296C93.5425 94.6392 93.3555 94.4895 93.3555 94.2651V94.2277C93.3555 94.0406 93.5051 93.8535 93.7296 93.8535H127.664C127.851 93.8535 128.038 94.0032 128.038 94.2277V94.2651C128.038 94.4895 127.851 94.6392 127.664 94.6392Z" fill="#4FD3BC"/>
<path d="M101.138 92.619C102.006 92.619 102.709 92.0327 102.709 91.3095C102.709 90.5863 102.006 90 101.138 90C100.27 90 99.5664 90.5863 99.5664 91.3095C99.5664 92.0327 100.27 92.619 101.138 92.619Z" fill="#4FD3BC"/>
<path d="M101.138 92.2457C101.758 92.2457 102.26 91.8269 102.26 91.3103C102.26 90.7938 101.758 90.375 101.138 90.375C100.518 90.375 100.016 90.7938 100.016 91.3103C100.016 91.8269 100.518 92.2457 101.138 92.2457Z" fill="#4FD3BC"/>
<path d="M101.288 90.1875H100.988V92.4698H101.288V90.1875Z" fill="#055E5A"/>
<path d="M112.063 92.2457C111.464 92.7695 110.454 92.7695 109.855 92.2457C109.257 91.7219 109.257 90.8988 109.855 90.4124C110.454 89.8886 111.464 89.8886 112.063 90.4124C112.661 90.8988 112.661 91.7219 112.063 92.2457Z" fill="#4FD3BC"/>
<path d="M111.726 91.9846C111.277 92.3588 110.566 92.3588 110.155 91.9846C109.743 91.6105 109.706 91.0119 110.155 90.6751C110.604 90.301 111.315 90.301 111.726 90.6751C112.175 91.0119 112.175 91.6105 111.726 91.9846Z" fill="#4FD3BC"/>
<path d="M110.119 92.208L109.895 92.0209L111.803 90.4121L112.027 90.5992L110.119 92.208Z" fill="#055E5A"/>
<path d="M120.778 92.619C121.646 92.619 122.35 92.0327 122.35 91.3095C122.35 90.5863 121.646 90 120.778 90C119.911 90 119.207 90.5863 119.207 91.3095C119.207 92.0327 119.911 92.619 120.778 92.619Z" fill="#4FD3BC"/>
<path d="M120.779 92.2457C121.399 92.2457 121.901 91.8269 121.901 91.3103C121.901 90.7938 121.399 90.375 120.779 90.375C120.159 90.375 119.656 90.7938 119.656 91.3103C119.656 91.8269 120.159 92.2457 120.779 92.2457Z" fill="#4FD3BC"/>
<path d="M120.928 90.1875H120.629V92.4698H120.928V90.1875Z" fill="#055E5A"/>
<path d="M126.879 111.289H94.4407C94.104 111.289 93.8047 110.99 93.8047 110.653V110.354H127.477V110.653C127.477 111.027 127.215 111.289 126.879 111.289Z" fill="#4FD3BC"/>
<path d="M63 31H15V61H63V31Z" fill="#81F2DC"/>
<path fill-rule="evenodd" clip-rule="evenodd" d="M51.7913 37H52.7267C53.2505 37 53.6995 37.449 53.6995 37.9728C53.6995 38.1972 53.5872 39.1326 53.5872 40.1428C53.5872 41.4148 53.2879 43.1733 54.9341 43.3604L56.6552 43.5849C57.1415 43.6597 57.5531 44.0712 57.4783 44.5576C56.8796 48.6731 57.1041 51.3295 57.4783 55.7818C57.5157 56.3056 57.0293 56.7546 56.5055 56.7546H47.9751C47.4513 56.7546 46.965 56.3056 47.0024 55.7818C47.3765 51.2547 47.5262 49.0847 47.0024 44.5576C46.965 44.0712 47.3765 43.6597 47.8255 43.5849L49.7336 43.323C51.0805 43.1359 50.9308 41.34 50.9308 40.1802C50.9308 39.17 50.7812 38.1972 50.7812 37.9728C50.8186 37.449 51.2676 37 51.7913 37ZM52.2403 37.8605C52.0532 37.8605 51.8662 38.0102 51.8662 38.2347C51.8662 38.4217 52.0158 38.6088 52.2403 38.6088C52.4274 38.6088 52.6145 38.4591 52.6145 38.2347C52.6145 38.0102 52.4648 37.8605 52.2403 37.8605Z" fill="#27A8A5"/>
<path d="M38.9744 51.1143C39.2737 51.5258 39.9098 51.5258 40.2465 51.1143C40.8451 50.3286 41.1818 49.3184 41.1818 48.2334C41.1818 48.196 41.1818 48.1586 41.1818 48.0837C41.1818 47.4477 40.8451 46.9987 40.3961 46.7743C40.022 46.5872 39.7975 46.213 39.7975 45.8015L39.9098 40.6758H39.3111L39.4234 45.8015C39.4234 46.213 39.1989 46.5872 38.8248 46.7743C38.3758 46.9987 38.0765 47.4477 38.0391 48.0837C38.0391 48.1212 38.0391 48.1586 38.0391 48.2334C38.0391 49.3558 38.3758 50.3286 38.9744 51.1143Z" fill="#4FD3BC"/>
<path d="M38.9728 51.1143C39.0102 51.1517 39.0476 51.2265 39.085 51.2639C38.7109 50.5905 38.5238 49.8048 38.5238 48.9443C38.5238 48.9068 38.5238 48.8694 38.5238 48.7946C38.5612 47.3355 40.2074 46.9613 41.0679 47.6348C40.9183 47.1484 40.5441 46.8491 40.0952 46.6994C39.9455 46.662 39.7959 46.6246 39.6462 46.6246C39.5714 46.6246 39.4591 46.5872 39.4217 46.5124C39.4217 46.4749 39.4217 46.4375 39.4217 46.4001C39.4217 46.4001 39.4217 46.4001 39.4217 46.3627C39.534 46.1382 39.6088 45.9137 39.6088 45.6518C39.6088 45.6144 39.6088 46.3253 39.6088 46.2879C39.534 44.3423 39.5714 42.8084 39.6088 40.8629C39.6088 40.788 39.6088 40.7506 39.6088 40.6758H39.2721L39.3843 45.8389C39.3843 46.2505 39.1598 46.5872 38.7857 46.7743C38.3741 46.9987 38.0374 47.4477 38 48.0837C38 48.1212 38 48.1586 38 48.2334C38.0374 49.3558 38.3741 50.3286 38.9728 51.1143Z" fill="#4FD3BC"/>
<path d="M39.273 41.2751H39.909C39.9839 41.2751 40.0587 41.2002 40.0587 41.1254V36.5235C40.0587 36.2616 39.8342 36.0371 39.5723 36.0371C39.3104 36.0371 39.0859 36.2616 39.0859 36.5235V41.1254C39.0859 41.2002 39.1608 41.2751 39.273 41.2751ZM39.4227 36.6731C39.4227 36.5983 39.4975 36.5235 39.5723 36.5235C39.6472 36.5235 39.722 36.5983 39.722 36.6731V37.384C39.722 37.4588 39.6472 37.5337 39.5723 37.5337C39.4975 37.5337 39.4227 37.4588 39.4227 37.384V36.6731Z" fill="#4FD3BC"/>
<path d="M39.909 36.2993V40.5645C39.909 40.7516 39.722 40.9012 39.5349 40.8264C39.4601 40.789 39.3852 40.789 39.273 40.789H39.0859V41.0135C39.0859 41.0883 39.1608 41.1631 39.2356 41.1631H39.8716C39.9465 41.1631 40.0213 41.0883 40.0213 41.0135V36.4116C40.0213 36.2619 39.9465 36.1122 39.7968 36C39.8716 36.1497 39.909 36.2245 39.909 36.2993Z" fill="#4FD3BC"/>
<path d="M32.5851 50.8524H35.7279C36.102 50.8524 36.4013 50.5156 36.3265 50.1415L35.9524 47.2232C35.9149 46.9613 35.6904 46.7368 35.4286 46.7368H35.0544C34.6803 46.7368 34.3436 46.4375 34.381 46.026L34.4558 40.6758H33.8572L33.9694 46.026C33.9694 46.4001 33.6701 46.7368 33.296 46.7368H32.9218C32.6599 46.7368 32.4354 46.9239 32.398 47.2232L32.0239 50.1415C31.9117 50.5531 32.211 50.8524 32.5851 50.8524ZM35.3911 47.5974C35.466 47.5974 35.5408 47.6722 35.5408 47.747L35.7653 49.8422C35.7653 49.917 35.6904 50.0293 35.6156 50.0293H35.5782C35.5034 50.0293 35.4286 49.9544 35.4286 49.8796L35.2415 47.7844C35.2415 47.6722 35.3163 47.5974 35.3911 47.5974ZM34.7551 47.5974C34.8299 47.5974 34.9048 47.6722 34.9048 47.747L35.017 49.8422C35.017 49.917 34.9422 49.9918 34.8673 49.9918H34.8299C34.7551 49.9918 34.6803 49.917 34.6803 49.8422L34.6054 47.747C34.6054 47.6722 34.6803 47.5974 34.7551 47.5974ZM33.9694 47.7844C33.9694 47.7096 34.0442 47.6348 34.1191 47.6348C34.1939 47.6348 34.2687 47.7096 34.2687 47.7844L34.3061 49.8796C34.3061 49.9544 34.2313 50.0293 34.1565 50.0293H34.1191C34.0442 50.0293 33.9694 49.9544 33.9694 49.8796V47.7844ZM33.3334 47.747C33.3334 47.6722 33.4082 47.5974 33.483 47.5974C33.5579 47.5974 33.6327 47.6722 33.6327 47.747L33.5579 49.8422C33.5579 49.917 33.483 49.9918 33.4082 49.9918H33.3708C33.296 49.9918 33.2211 49.917 33.2211 49.8422L33.3334 47.747ZM32.4729 49.8796L32.6973 47.7844C32.6973 47.7096 32.7722 47.6348 32.847 47.6348C32.9218 47.6348 32.9966 47.7096 32.9966 47.8218L32.8096 49.917C32.8096 49.9918 32.7348 50.0667 32.6599 50.0667H32.6225C32.5103 50.0293 32.4355 49.9544 32.4729 49.8796Z" fill="#27A8A5"/>
<path d="M32.3242 47.4474C32.399 47.1855 32.6235 46.961 32.8854 46.961H33.2596C33.6337 46.961 34.1201 46.6617 34.1201 46.2502V40.9H34.4568V40.7129H33.8582L33.9704 46.0631C33.9704 46.4372 33.6711 46.7739 33.297 46.7739H32.9228C32.6609 46.7739 32.4365 46.961 32.3991 47.2603L32.3242 47.4474Z" fill="#27A8A5"/>
<path d="M35.503 50.0293H35.5405C35.4656 50.0293 35.3908 49.9544 35.3908 49.8796L35.2037 47.7844C35.2037 47.7096 35.2411 47.6348 35.316 47.6348H35.2786C35.2037 47.6348 35.1289 47.7096 35.1289 47.8218L35.316 49.917C35.3534 49.9918 35.4282 50.0293 35.503 50.0293Z" fill="#27A8A5"/>
<path d="M34.7183 47.5977C34.6061 47.5977 34.5312 47.6725 34.5312 47.7473L34.6061 49.8425C34.6061 49.9173 34.6809 49.9921 34.7557 49.9921H34.7931C34.7183 49.9921 34.6435 49.9173 34.6435 49.8425L34.5687 47.7473C34.6061 47.7099 34.6435 47.6351 34.7183 47.5977Z" fill="#27A8A5"/>
<path d="M32.6229 50.0296C32.5481 50.0296 32.4733 49.9547 32.4733 49.8425L32.6977 47.7473C32.6977 47.6725 32.7726 47.6351 32.81 47.5977H32.7726C32.6977 47.5977 32.6229 47.6725 32.6229 47.7473L32.3984 49.8425C32.3984 49.9173 32.4733 50.0296 32.5481 50.0296H32.6229Z" fill="#27A8A5"/>
<path d="M33.2964 50.0293H33.3339C33.259 50.0293 33.1842 49.9544 33.1842 49.8796L33.2964 47.7844C33.2964 47.7096 33.3713 47.6722 33.4087 47.6348H33.3713C33.2964 47.6348 33.2216 47.7096 33.2216 47.7844L33.1094 49.8796C33.1468 49.9544 33.2216 50.0293 33.2964 50.0293Z" fill="#27A8A5"/>
<path d="M34.0839 47.5977C33.9716 47.5977 33.8968 47.6725 33.8968 47.7473L33.8594 49.8425C33.8594 49.9173 33.9342 49.9921 34.009 49.9921H34.0464C33.9716 49.9921 33.8968 49.9173 33.8968 49.8425L33.9342 47.7473C33.9716 47.7099 34.009 47.6351 34.0839 47.5977Z" fill="#27A8A5"/>
<path d="M33.8589 41.2751H34.495C34.5698 41.2751 34.6447 41.2002 34.6447 41.1254V36.5235C34.6447 36.2616 34.4202 36.0371 34.1583 36.0371C33.8964 36.0371 33.6719 36.2616 33.6719 36.5235V41.1254C33.6719 41.2002 33.7467 41.2751 33.8589 41.2751ZM34.0086 36.6731C34.0086 36.5983 34.0834 36.5235 34.1583 36.5235C34.2331 36.5235 34.3079 36.5983 34.3079 36.6731V37.384C34.3079 37.4588 34.2331 37.5337 34.1583 37.5337C34.0834 37.5337 34.0086 37.4588 34.0086 37.384V36.6731Z" fill="#27A8A5"/>
<path d="M34.495 36.2993V40.5645C34.495 40.7516 34.3079 40.9012 34.1208 40.8264C34.046 40.789 33.9712 40.789 33.8589 40.789H33.6719V41.0135C33.6719 41.0883 33.7467 41.1631 33.8215 41.1631H34.4576C34.5324 41.1631 34.6072 41.0883 34.6072 41.0135V36.4116C34.6072 36.2619 34.5324 36.1122 34.3827 36C34.4576 36.1497 34.495 36.2245 34.495 36.2993Z" fill="#27A8A5"/>
<path d="M26.5696 51.4523H29.8994C30.2361 51.4523 30.498 51.153 30.4606 50.8163L29.9368 47.8232C29.8994 47.5613 29.6749 47.3742 29.3756 47.3742H29.2634C28.8144 47.3742 28.4402 47.0001 28.4402 46.5137L28.5525 40.752H27.9539L28.0661 46.5137C28.0661 46.9627 27.692 47.3742 27.243 47.3742H27.1308C26.8689 47.3742 26.6444 47.5613 26.5696 47.8232L26.0457 50.8163C25.9335 51.1156 26.1954 51.4523 26.5696 51.4523Z" fill="#4FD3BC"/>
<path d="M26.2691 51.3778C26.1942 51.2656 26.1194 51.1159 26.1568 50.9288L26.6806 47.9357C26.718 47.6738 26.9425 47.4868 27.2418 47.4868H27.3541H27.3915H28.2146C28.3642 47.4868 28.4391 47.3371 28.4391 47.2249L28.2894 47.0378C28.252 47.0004 28.2146 46.9256 28.2146 46.8507L28.1772 46.2147L28.0649 40.8645H28.5139V40.7148H27.9153L28.0275 46.4766C28.0275 46.9256 27.6534 47.3371 27.2044 47.3371H27.0922C26.8303 47.3371 26.6058 47.5242 26.5309 47.7861L26.0072 50.7792C25.9698 51.0411 26.082 51.2656 26.2691 51.3778Z" fill="#4FD3BC"/>
<path d="M27.9136 41.2751H28.5497C28.6245 41.2751 28.6993 41.2002 28.6993 41.1254V36.5235C28.6993 36.2616 28.4748 36.0371 28.2129 36.0371C27.951 36.0371 27.7266 36.2616 27.7266 36.5235V41.1254C27.7266 41.2002 27.8014 41.2751 27.9136 41.2751ZM28.0633 36.6731C28.0633 36.5983 28.1381 36.5235 28.2129 36.5235C28.2878 36.5235 28.3626 36.5983 28.3626 36.6731V37.384C28.3626 37.4588 28.2878 37.5337 28.2129 37.5337C28.1381 37.5337 28.0633 37.4588 28.0633 37.384V36.6731Z" fill="#4FD3BC"/>
<path d="M28.5497 36.2993V40.5645C28.5497 40.7516 28.3626 40.9012 28.1755 40.8264C28.1007 40.789 28.0259 40.789 27.9136 40.789H27.7266V41.0135C27.7266 41.0883 27.8014 41.1631 27.8762 41.1631H28.5123C28.5871 41.1631 28.6619 41.0883 28.6619 41.0135V36.4116C28.6619 36.2619 28.5871 36.1122 28.4374 36C28.5123 36.1497 28.5497 36.2245 28.5497 36.2993Z" fill="#4FD3BC"/>
<path d="M19.4831 48.9451C20.0443 50.1049 21.2415 50.1049 21.3538 50.1049C21.3912 50.1049 22.6633 50.1423 23.2245 48.9451C24.2347 46.9247 22.4388 44.1935 21.5409 42.9588L21.6531 40.3398H21.0545L21.1667 42.9588C20.2314 44.1935 18.4729 46.9247 19.4831 48.9451ZM19.7076 48.8328C19.4083 48.2342 18.9593 46.5131 21.0171 43.5949C20.1191 45.8771 20.0817 47.3737 20.2314 48.1968C20.381 49.0947 20.6429 49.5437 20.8674 49.8056C20.4559 49.6933 19.9695 49.4314 19.7076 48.8328ZM21.2415 49.8056C21.1667 49.7682 21.0919 49.7307 21.0171 49.6185C20.83 49.4314 20.5681 48.9825 20.4559 48.1219C20.3436 47.2988 20.381 45.8771 21.2415 43.5949V49.8056ZM21.5034 49.8056V43.6323C22.4014 45.9145 22.4388 47.3362 22.2891 48.1594C22.1395 49.0199 21.915 49.4314 21.7279 49.6559C21.6157 49.7307 21.5409 49.8056 21.5034 49.8056ZM23.0374 48.8328C22.7381 49.4314 22.2517 49.6933 21.8776 49.8056C22.1021 49.5811 22.364 49.0947 22.5136 48.1968C22.6633 47.3737 22.6259 45.9145 21.7279 43.5949C23.7857 46.5506 23.3367 48.2342 23.0374 48.8328Z" fill="#4FD3BC"/>
<path d="M21.1669 42.9959C21.1669 42.9959 21.354 42.8089 21.354 42.0606C21.354 41.3497 21.5785 40.377 21.5785 40.377H21.0547L21.1669 42.9959Z" fill="#4FD3BC"/>
<path d="M21.0543 41.2751H21.6903C21.7651 41.2751 21.8399 41.2002 21.8399 41.1254V36.5235C21.8399 36.2616 21.6155 36.0371 21.3536 36.0371C21.0917 36.0371 20.8672 36.2616 20.8672 36.5235V41.1254C20.9046 41.2002 20.9794 41.2751 21.0543 41.2751Z" fill="#4FD3BC"/>
<path d="M21.6903 36.2993V40.5645C21.6903 40.7516 21.5032 40.9012 21.3162 40.8264C21.2413 40.789 21.1665 40.789 21.0543 40.789H20.8672V41.0135C20.8672 41.0883 20.942 41.1631 21.0169 41.1631H21.6529C21.7277 41.1631 21.8025 41.0883 21.8025 41.0135V36.4116C21.8025 36.2619 21.7277 36.1122 21.5781 36C21.6529 36.1497 21.6903 36.2245 21.6903 36.2993Z" fill="#4FD3BC"/>
<path d="M43.0032 48.2334L43.5644 53.8455C43.5644 53.9204 43.6766 53.883 43.6766 53.8455L43.6018 48.5702C43.6018 48.3457 43.7889 48.1586 44.0134 48.1586C44.2378 48.1586 44.4249 48.3457 44.4249 48.5702L44.3501 53.8455C44.3501 53.9204 44.4249 53.9204 44.4623 53.8455L45.0235 48.2334C45.0609 47.8967 44.799 47.5974 44.4623 47.5974H44.3501C44.2752 47.5974 44.2004 47.5226 44.2004 47.4478L44.3501 40.1895H43.6018L43.7514 47.4478C43.7514 47.5226 43.6766 47.5974 43.6018 47.5974C43.2651 47.5974 42.9658 47.8967 43.0032 48.2334Z" fill="#27A8A5"/>
<path d="M43.6764 45.0919C43.6764 45.0171 44.0131 41.2383 44.0131 41.2383H43.6016L43.6764 45.0919Z" fill="#27A8A5"/>
<path d="M43.6402 41.4621H44.2762C44.351 41.4621 44.4259 41.3873 44.4259 41.3125V36.5235C44.4259 36.2616 44.2014 36.0371 43.9395 36.0371C43.6776 36.0371 43.4531 36.2616 43.4531 36.5235V41.3125C43.4905 41.3873 43.5654 41.4621 43.6402 41.4621ZM43.7898 36.6731C43.7898 36.5983 43.8647 36.5235 43.9395 36.5235C44.0143 36.5235 44.0891 36.5983 44.0891 36.6731V37.3466C44.0891 37.4214 44.0143 37.4963 43.9395 37.4963C43.8647 37.4963 43.7898 37.4214 43.7898 37.3466V36.6731Z" fill="#27A8A5"/>
<path d="M44.2762 36.2993V40.7516C44.2762 40.9386 44.0891 41.0883 43.9021 41.0135C43.8272 40.9761 43.7524 40.9761 43.6402 40.9761H43.4531V41.2005C43.4531 41.2754 43.5279 41.3502 43.6028 41.3502H44.2388C44.3136 41.3502 44.3885 41.2754 44.3885 41.2005V36.4116C44.3885 36.2619 44.3136 36.1122 44.164 36C44.2388 36.1497 44.2762 36.2245 44.2762 36.2993Z" fill="#27A8A5"/>
<path d="M73.5273 82.2559L79.3265 102.572L83.5543 117.5H86.6222L82.1325 82.2559H73.5273Z" fill="#BC083C"/>
<path d="M71.9915 82.2559C71.8418 92.7318 71.3928 98.4187 71.2432 99.354C71.0935 100.289 68.9609 106.35 64.8828 117.5H68.063C73.3009 106.799 76.2192 100.776 76.8178 99.354C77.4165 97.9323 79.2872 92.2454 82.1306 82.2559H71.9915Z" fill="#DD0539"/>
<path d="M64.6211 120.381L64.7708 117.014H68.138C69.7094 118.136 71.8046 119.034 74.3487 119.707V120.344H68.2877L66.2299 120.007V120.344H64.6211V120.381Z" fill="#A7F9E9"/>
<path d="M83.1055 120.381L83.2551 117.014H86.6224C88.1938 118.136 90.2889 119.034 92.8331 119.707V120.344H86.772L84.7143 120.007V120.344H83.1055V120.381Z" fill="#A7F9E9"/>
<path d="M81.9032 58.4216C81.155 57.5611 80.6686 56.5135 80.7434 55.3162C80.9679 51.9116 85.7195 52.6598 86.6548 54.3809C87.5902 56.1019 87.4779 60.4794 86.2807 60.7787C85.7943 60.8909 84.7841 60.5916 83.7739 59.993L84.41 64.5949H80.5938L81.9032 58.4216Z" fill="#149295"/>
<path d="M81.6053 59.2082C81.1189 57.0756 79.772 55.6164 79.9591 54.6437C80.1088 54.0076 80.4829 53.5961 81.0815 53.4464C81.3808 52.1743 82.391 51.6505 84.112 51.8376C86.6562 52.1369 88.2276 53.1845 87.5541 55.5042C86.9181 55.5042 86.2072 55.2797 85.1596 55.6538C84.8229 55.7661 84.5984 56.1402 84.4488 56.7763H83.9998C83.5508 56.028 83.1019 55.7661 82.6529 55.9532C82.2039 56.1402 82.1291 56.6266 82.3536 57.4123L82.1291 59.1708H81.6053V59.2082Z" fill="#055E5A"/>
<path d="M89.6507 77.3159L94.4771 74.2854C96.7594 74.0983 97.8444 73.8364 97.7321 73.4997C97.5451 73.0133 96.8716 73.2752 96.6846 72.9759C96.4975 72.6766 97.0961 71.8909 97.6947 71.1426C98.2934 70.3943 97.807 70.3943 97.5077 70.4691C96.4601 70.9181 95.3751 71.629 94.2152 72.5643L87.9297 74.6595L89.6507 77.3159Z" fill="#149295"/>
<path d="M87.1067 76.8306C89.5012 77.3544 92.5691 76.232 94.8888 74.6606L94.2153 71.9668C91.0352 73.2389 88.304 73.2015 86.2836 72.8273C84.6374 73.9497 85.1986 76.4191 87.1067 76.8306Z" fill="#27A8A5"/>
<path d="M105.478 68.8242H88.3047C88.3047 68.8242 89.3523 76.4567 96.9099 76.4567C104.468 76.4567 105.478 68.8242 105.478 68.8242Z" fill="#4FD3BC"/>
<path d="M96.9099 69.9837C101.662 69.9837 105.515 69.4645 105.515 68.8239C105.515 68.1833 101.662 67.6641 96.9099 67.6641C92.1574 67.6641 88.3047 68.1833 88.3047 68.8239C88.3047 69.4645 92.1574 69.9837 96.9099 69.9837Z" fill="white"/>
<path d="M96.9118 69.6468C101.396 69.6468 105.031 69.2616 105.031 68.7863C105.031 68.3111 101.396 67.9258 96.9118 67.9258C92.4279 67.9258 88.793 68.3111 88.793 68.7863C88.793 69.2616 92.4279 69.6468 96.9118 69.6468Z" fill="#27A8A5"/>
<path d="M96.0884 72.9015L98.857 71.9662C99.4556 70.6941 99.9794 70.0955 100.503 70.1703C100.915 70.0581 99.942 71.6294 100.69 71.6294C101.439 71.6294 103.422 70.6193 103.646 70.956C104.02 71.4424 103.422 72.5274 102.823 73.0512C101.738 73.9865 100.952 74.2484 99.0815 74.4355C98.1087 74.5103 96.9863 74.847 95.7891 75.4457L96.0884 72.9015Z" fill="#149295"/>
<path d="M84.9752 61.6402L80.4107 60.8171C79.9243 60.7423 75.3224 66.6163 74.5367 70.844C73.8258 74.6977 69.7851 76.4936 70.5334 82.8913C73.6014 82.8539 81.9072 87.4184 84.0024 84.5001C85.0126 83.0784 85.5364 81.3948 85.7983 79.5989C88.8288 80.0853 92.6825 79.7486 97.3966 78.2894C97.6959 77.2044 97.434 75.2963 96.6858 72.4903C91.373 73.3508 87.7064 73.3134 85.6861 72.4154C85.2371 68.7115 84.6385 64.9327 84.9752 61.6402Z" fill="#27A8A5"/>
<path d="M218.961 245.23C219.472 251.925 251.074 271.667 251.245 272.221C251.33 272.477 248.05 280.238 241.406 295.588L244.175 296.654C254.354 280.408 259.209 271.454 258.698 269.706C257.932 267.233 249.754 259.088 234.166 245.273L218.961 245.23Z" fill="#B28B67"/>
<path d="M242.174 292.135L246.689 293.798C256.187 283.052 259.935 274.183 259.253 269.663C258.785 266.636 250.65 258.534 234.806 245.273H218.664C219.218 260.794 248.52 272.307 248.904 272.989C249.287 273.629 245.454 280.11 242.174 292.135Z" fill="#055E5A"/>
<path d="M222.623 245.23L208.526 279.087L194.684 307.74H197.963L233.697 245.23H222.623Z" fill="#997659"/>
<path d="M195.922 301.771L203.162 303.135C208.784 294.863 232.252 261.007 234.85 245.23H218.708C210.105 256.658 201.288 293.371 195.922 301.771Z" fill="#043A35"/>
<path d="M228.166 203.596C226.721 201.85 225.724 199.754 225.873 197.408C226.372 190.571 235.843 192.069 237.687 195.512C239.531 198.955 239.332 207.689 236.939 208.337C235.992 208.587 233.949 207.988 231.905 206.74L233.201 215.923H225.574L228.166 203.596Z" fill="#EDFDF9"/>
<path d="M232.255 198.157C232.554 202.249 233.302 204.295 234.598 204.295C236.492 204.295 238.087 203.098 238.884 203.098C239.483 203.098 239.333 203.846 238.934 204.395C238.585 204.844 236.99 205.293 236.99 206.042C236.99 206.741 238.236 206.192 238.236 206.641C238.236 207.339 238.436 208.687 237.24 208.687C235.993 208.687 232.454 208.238 231.856 206.391C231.457 205.194 231.208 202.748 231.108 199.055C231.059 199.055 230.959 199.055 230.859 199.055C229.812 199.055 228.965 199.904 228.965 200.952C228.965 201.501 229.164 201.95 229.563 202.299C229.114 202.948 228.616 203.597 228.068 204.245C225.924 202.948 224.03 199.205 226.124 195.612C226.722 193.865 228.317 192.917 229.862 192.468C231.108 191.969 232.404 191.869 233.501 192.219C235.644 192.418 237.539 193.067 238.087 193.466C238.087 195.512 237.688 196.111 234.348 196.061C233.551 196.41 232.953 197.159 232.255 198.157Z" fill="#27A8A5"/>
<path d="M238.635 199.654C238.535 200.702 239.981 201.601 239.782 202.898C239.233 202.948 238.685 202.898 238.137 202.998" fill="#EDFDF9"/>
<path d="M238.137 198.855C237.938 198.806 237.788 198.756 237.639 198.706C237.489 198.706 237.34 198.656 237.19 198.656C236.891 198.606 236.592 198.606 236.193 198.506C236.443 198.207 236.841 198.107 237.24 198.157C237.44 198.207 237.639 198.257 237.788 198.356C237.988 198.456 238.137 198.656 238.137 198.855Z" fill="#27A8A5"/>
<path d="M237.638 199.904C237.831 199.904 237.987 199.747 237.987 199.554C237.987 199.361 237.831 199.205 237.638 199.205C237.445 199.205 237.289 199.361 237.289 199.554C237.289 199.747 237.445 199.904 237.638 199.904Z" fill="#27A8A5"/>
<path d="M238.34 220.757L247.795 215.555C249.371 213.679 250.904 212.229 252.437 211.205C252.906 210.992 253.715 210.907 252.948 212.229C252.182 213.551 251.458 215.043 251.841 215.469C252.224 215.896 253.204 215.299 253.673 215.981C253.971 216.45 252.31 217.175 248.689 218.156L241.832 224.466L238.34 220.757Z" fill="#055E5A"/>
<path d="M233.741 219.604C237.063 219.562 241.45 218.879 246.177 215.895L248.009 220.031C244.772 223.271 240.172 225.915 236.211 225.787C233.059 225.702 231.441 221.907 233.741 219.604Z" fill="#27A8A5"/>
<path d="M268.111 212.442C268.026 211.461 263.426 210.693 257.804 210.693C252.182 210.693 247.582 211.461 247.497 212.442C247.454 213.039 247.625 219.733 247.71 222.675C247.753 223.741 248.221 224.765 249.073 225.404C250.478 226.513 253.162 227.323 257.804 227.323C262.404 227.323 265.087 226.47 266.535 225.404C267.387 224.765 267.898 223.741 267.941 222.675C268.026 219.69 268.196 213.039 268.111 212.442Z" fill="#DD0539"/>
<path d="M268.324 212.485C268.324 211.376 263.639 210.48 257.847 210.48C252.054 210.48 247.369 211.376 247.369 212.485C247.369 212.57 247.369 212.868 247.369 212.954C247.369 214.062 252.054 214.958 257.847 214.958C263.639 214.958 268.324 214.062 268.324 212.954C268.324 212.868 268.324 212.57 268.324 212.485Z" fill="#055E5A"/>
<path opacity="0.7" d="M257.804 214.489C263.59 214.489 268.281 213.591 268.281 212.485C268.281 211.378 263.59 210.48 257.804 210.48C252.017 210.48 247.326 211.378 247.326 212.485C247.326 213.591 252.017 214.489 257.804 214.489Z" fill="#055E5A"/>
<path d="M257.804 214.19C263.426 214.19 267.983 213.407 267.983 212.442C267.983 211.476 263.426 210.693 257.804 210.693C252.182 210.693 247.625 211.476 247.625 212.442C247.625 213.407 252.182 214.19 257.804 214.19Z" fill="url(#paint0_linear)"/>
<path d="M257.804 214.19C263.426 214.19 267.983 213.407 267.983 212.442C267.983 211.476 263.426 210.693 257.804 210.693C252.182 210.693 247.625 211.476 247.625 212.442C247.625 213.407 252.182 214.19 257.804 214.19Z" fill="url(#paint1_linear)"/>
<path d="M269.942 211.545C269.772 211.46 268.75 211.844 267.983 212.014C268.154 212.142 268.239 212.27 268.281 212.356C268.707 212.228 269.73 211.887 269.815 211.929C270.155 212.228 270.368 212.697 270.198 212.825C269.985 213.038 267.643 214.019 267.174 214.274C266.706 214.488 265.854 217.003 266.237 217.046C266.833 217.089 271.22 213.635 271.391 213.422C271.646 213.038 270.368 211.759 269.942 211.545Z" fill="#055E5A"/>
<path d="M245.665 211.545C245.836 211.46 246.858 211.844 247.624 212.014C247.454 212.142 247.369 212.27 247.326 212.356C246.9 212.228 245.878 211.887 245.793 211.929C245.452 212.228 245.239 212.697 245.41 212.825C245.623 213.038 247.965 214.019 248.434 214.274C248.902 214.488 249.754 217.003 249.371 217.046C248.774 217.089 244.387 213.635 244.217 213.422C244.004 213.038 245.282 211.759 245.665 211.545Z" fill="#055E5A"/>
<path d="M257.803 214.317C263.472 214.317 268.068 213.439 268.068 212.356C268.068 211.273 263.472 210.395 257.803 210.395C252.135 210.395 247.539 211.273 247.539 212.356C247.539 213.439 252.135 214.317 257.803 214.317Z" fill="#055E5A"/>
<path d="M260.317 208.774C260.317 208.561 259.21 208.391 257.847 208.391C256.484 208.391 255.377 208.561 255.377 208.774C255.377 208.86 255.547 209.116 255.803 209.371C256.101 209.67 256.186 210.139 256.101 210.565C256.101 210.693 256.868 210.821 257.847 210.821C258.827 210.821 259.593 210.693 259.593 210.565C259.508 210.139 259.593 209.712 259.892 209.371C260.19 209.116 260.317 208.86 260.317 208.774Z" fill="#187F73"/>
<path d="M253.758 227.152L257.889 224.85C258.485 222.632 259.167 221.524 259.976 221.481C260.615 221.183 259.508 223.997 260.7 223.741C261.893 223.485 264.746 221.353 265.257 221.78C265.981 222.419 265.343 224.381 264.576 225.404C263.128 227.238 261.935 227.877 258.996 228.687C257.463 229.114 255.802 229.967 254.013 231.288L253.758 227.152Z" fill="#EDFDF9"/>
<path d="M238.17 226.256C241.705 227.152 247.582 226.086 255.845 223.144C257.889 227.408 258.826 230.435 258.699 232.226C251.586 235.936 245.538 237.599 240.512 237.684C240.683 240.669 240.299 243.483 239.107 246.084C236.594 251.414 221.985 246.468 217.045 247.448C213.978 237.428 219.941 233.377 219.941 226.939C219.941 219.903 225.563 209.115 226.415 209.115H233.953C234.379 214.488 236.466 220.415 238.17 226.256Z" fill="#27A8A5"/>
<path d="M327.802 244.82L317.603 280.692L310.134 307.143H304.705L312.634 244.82H327.802Z" fill="#27A8A5"/>
<path d="M330.533 244.82C330.764 263.333 331.586 273.412 331.816 275.092C332.08 276.772 335.83 287.478 343.069 307.176H337.443C328.197 288.268 323.064 277.596 321.979 275.092C320.893 272.622 317.57 262.509 312.602 244.82H330.533Z" fill="#27A8A5"/>
<path d="M323.294 208.719C324.577 207.204 325.466 205.326 325.334 203.218C324.906 197.19 316.516 198.508 314.871 201.571C313.226 204.602 313.424 212.343 315.529 212.903C316.385 213.133 318.161 212.573 320.004 211.486L318.852 219.589H325.63L323.294 208.719Z" fill="#187F73"/>
<path d="M317.536 198.244C318.458 197.947 319.807 197.881 320.366 197.914C320.037 197.157 319.905 196.3 320.037 195.444C320.136 194.62 320.497 193.929 320.826 193.204C320.991 192.875 321.156 192.545 321.419 192.282C321.682 192.018 322.011 191.853 322.373 191.755C322.735 191.656 323.097 191.689 323.459 191.755C323.623 191.787 323.755 191.853 323.919 191.886C324.084 191.919 324.15 191.82 324.281 191.722C324.577 191.491 324.972 191.359 325.334 191.326C325.729 191.293 326.157 191.326 326.519 191.458C326.88 191.59 327.242 191.787 327.506 192.084C327.637 192.216 327.736 192.38 327.802 192.545C327.835 192.611 327.835 192.644 327.9 192.677C327.966 192.71 328.032 192.71 328.098 192.71C328.723 192.94 329.282 193.434 329.578 194.06C329.743 194.423 329.842 195.081 329.809 195.806C329.776 196.531 329.118 198.441 328.526 199.133C327.966 199.759 327.177 200.154 326.387 200.352C326.913 200.945 327.242 201.669 327.506 202.427C327.769 203.251 327.966 204.107 328.032 204.963C328.098 205.787 328.098 206.643 327.9 207.467C327.736 208.225 327.341 208.85 326.683 209.213C326.387 209.377 326.058 209.542 325.762 209.641C325.433 209.773 325.137 209.872 324.808 209.937C324.183 210.069 323.459 210.036 322.998 209.542C322.834 209.377 322.636 209.147 322.505 208.916C322.472 208.85 322.439 208.784 322.472 208.719C322.537 208.62 322.636 208.554 322.735 208.488C323.228 208.093 323.524 207.533 323.59 206.874C323.656 206.215 323.492 205.359 322.834 205.062C322.044 204.7 321.156 205.128 320.465 205.491C320.168 204.436 319.543 203.481 318.589 202.987C317.536 202.46 316.286 202.394 315.2 201.933C314.904 201.801 314.608 201.669 314.411 201.439C314.312 201.34 314.213 201.208 314.18 201.077C314.147 200.912 314.246 200.747 314.345 200.615C314.838 200.022 316.615 198.54 317.536 198.244Z" fill="#0F6D64"/>
<path d="M313.983 205.82C313.884 206.841 312.535 207.83 312.634 208.884C313.292 209.015 313.983 209.114 314.608 209.279" fill="#187F73"/>
<path d="M314.346 205.326C314.576 205.03 315.004 204.898 315.399 204.964C315.793 205.03 316.122 205.326 316.221 205.689C315.892 205.491 315.629 205.326 315.333 205.293C315.037 205.227 314.741 205.26 314.346 205.326Z" fill="#D7FAF2"/>
<path d="M314.246 211.091C314.575 210.959 314.904 210.894 315.2 210.795C315.496 210.696 315.825 210.597 316.154 210.531C315.924 210.828 315.628 210.992 315.266 211.091C314.937 211.19 314.575 211.223 314.246 211.091Z" fill="#D7FAF2"/>
<path d="M315.003 206.511C315.167 206.511 315.299 206.378 315.299 206.214C315.299 206.051 315.167 205.918 315.003 205.918C314.84 205.918 314.707 206.051 314.707 206.214C314.707 206.378 314.84 206.511 315.003 206.511Z" fill="#D7FAF2"/>
<path d="M282.826 227.327C282.826 227.327 284.142 227.69 285.294 228.316C286.445 228.941 289.966 231.708 290.69 232.433C291.414 233.158 293.848 235.365 294.605 234.805C295.362 234.212 292.532 232.235 290.065 230.687C287.597 229.139 285.393 227.294 283.649 227.163C281.872 227.031 282.826 227.327 282.826 227.327Z" fill="#187F73"/>
<path d="M283.385 227.525C281.871 227.756 280.391 226.372 280.062 224.495C279.733 222.617 281.016 221.036 282.464 220.608C283.648 220.246 283.78 220.904 284.536 223.836C285.326 226.965 284.602 227.328 283.385 227.525Z" fill="#187F73"/>
<path d="M283.089 226.603C283.747 226.504 284.109 225.318 283.879 224.001C283.648 222.683 282.924 221.695 282.266 221.794C282.036 221.827 281.872 221.992 281.707 222.222C281.608 222.815 281.608 223.507 281.74 224.231C281.904 225.154 282.234 225.944 282.628 226.504C282.76 226.57 282.924 226.603 283.089 226.603Z" fill="#055E5A"/>
<path d="M284.01 227.361C284.964 227.196 285.458 225.549 285.129 223.638C284.8 221.761 283.78 220.344 282.825 220.509C282.233 220.608 281.838 221.267 281.674 222.222C281.805 221.991 282.003 221.827 282.233 221.794C282.891 221.695 283.615 222.65 283.845 224.001C284.076 225.318 283.714 226.504 283.056 226.603C282.891 226.636 282.76 226.603 282.595 226.504C283.023 227.097 283.549 227.427 284.01 227.361Z" fill="#4FD3BC"/>
<path d="M283.944 227.296C284.865 227.131 285.359 225.484 285.03 223.639C284.701 221.795 283.714 220.411 282.793 220.576C282.233 220.675 281.805 221.333 281.674 222.256C281.805 222.025 282.003 221.86 282.2 221.828C282.858 221.729 283.549 222.684 283.78 223.969C284.01 225.286 283.648 226.439 283.023 226.538C282.858 226.571 282.727 226.538 282.562 226.439C282.99 227.065 283.483 227.394 283.944 227.296Z" fill="#055E5A"/>
<path d="M303.027 236.617L294.012 233.027C290.13 233.422 288.254 233.323 288.353 232.763C288.55 231.907 289.702 232.105 289.932 231.545C290.163 230.985 288.879 229.832 287.629 228.811C286.379 227.757 287.234 227.592 287.761 227.592C289.636 228.02 291.676 228.876 293.913 230.095L305.034 231.61L303.027 236.617ZM348.005 257.468C348.399 258.292 351.393 260.762 353.466 262.212C354.289 262.772 353.96 263.529 353.631 263.694C351.064 265.275 349.386 263.398 347.182 262.376C344.747 261.256 344.978 264.452 343.036 263.562C343.629 262.245 345.01 259.774 344.352 258.16C344.056 257.435 340.536 249.464 333.758 234.213L339.943 234.18C344.78 248.607 347.478 256.348 348.005 257.468Z" fill="#187F73"/>
<path d="M323.065 214.613L318.229 214.943C317.044 225.714 310.562 232.533 296.053 230.227L294.111 244.095C307.667 245.84 319.578 240.405 322.012 225.714C322.637 221.893 323.131 217.94 323.065 214.613Z" fill="#BC083C"/>
<path d="M325.434 213.23L318.13 214.91C318.13 227.526 314.116 235.564 312.076 244.82H331.85C332.114 248.015 332.311 251.309 332.377 254.702H347.183C343.827 236.848 336.753 223.014 325.961 213.23H325.434Z" fill="#DD0539"/>
<path d="M328.724 226.834C329.218 234.674 328.922 240.669 327.836 244.819H331.85C331.291 238.462 330.304 232.467 328.724 226.834Z" fill="black" fill-opacity="0.1"/>
<path d="M336.948 278.627H175.875V302H336.948V278.627Z" fill="#043A35"/>
<path d="M356.082 256.623H336.627V301.967H356.082V256.623Z" fill="#055E5A"/>
<path d="M339.357 272.199H176.078V253.152H357.001L339.357 272.199Z" fill="#27A8A5"/>
<path d="M339.536 272.133H175.875V278.625H339.536V272.133Z" fill="#052823"/>
<path d="M339.602 278.344V271.892L357 253.152V258.651L339.602 278.344Z" fill="#043A35"/>
<path d="M337.146 268.789H185.742V254.965H349.972L337.146 268.789Z" fill="#149295"/>
<path d="M293.697 265.748C298.51 265.748 302.412 264.304 302.412 262.523C302.412 260.741 298.51 259.297 293.697 259.297C288.884 259.297 284.982 260.741 284.982 262.523C284.982 264.304 288.884 265.748 293.697 265.748Z" fill="#187F73"/>
<path d="M293.697 265.38C297.934 265.38 301.368 264.101 301.368 262.523C301.368 260.945 297.934 259.666 293.697 259.666C289.46 259.666 286.025 260.945 286.025 262.523C286.025 264.101 289.46 265.38 293.697 265.38Z" fill="#055E5A"/>
<path d="M293.697 265.133C297.578 265.133 300.724 263.964 300.724 262.521C300.724 261.079 297.578 259.91 293.697 259.91C289.816 259.91 286.67 261.079 286.67 262.521C286.67 263.964 289.816 265.133 293.697 265.133Z" fill="#149295"/>
<path d="M293.696 264.919C296.899 264.919 299.496 263.915 299.496 262.676C299.496 261.438 296.899 260.434 293.696 260.434C290.493 260.434 287.896 261.438 287.896 262.676C287.896 263.915 290.493 264.919 293.696 264.919Z" fill="#187F73"/>
<path d="M293.696 263.536C295.73 263.536 297.378 262.917 297.378 262.154C297.378 261.39 295.73 260.771 293.696 260.771C291.662 260.771 290.014 261.39 290.014 262.154C290.014 262.917 291.662 263.536 293.696 263.536Z" fill="#149295"/>
<path d="M295.261 262C295.261 262.153 295.108 262.307 294.832 262.399C294.556 262.522 294.157 262.583 293.727 262.583C292.868 262.583 292.162 262.338 292.162 262C292.162 261.693 292.868 261.416 293.727 261.416C294.556 261.416 295.261 261.662 295.261 262Z" fill="#055E5A"/>
<path d="M298.023 263.414V263.076L302.718 264.52V265.134C302.718 265.442 302.074 265.626 301.583 265.503L298.975 264.735V264.397L301.522 265.165V264.612L298.023 263.414Z" fill="#055E5A"/>
<path d="M289.646 263.414V263.076L284.951 264.52V265.134C284.951 265.442 285.596 265.626 286.087 265.503L288.695 264.735V264.397L286.148 265.165V264.612L289.646 263.414Z" fill="#055E5A"/>
<path d="M297.256 260.095L301.061 258.375V259.051C301.061 259.204 300.938 259.327 300.723 259.42L298.299 260.464V260.126L300.355 259.204V258.989L297.256 260.372V260.095Z" fill="#055E5A"/>
<path d="M289.953 260.095L286.148 258.375V259.051C286.148 259.204 286.271 259.327 286.486 259.42L288.91 260.464V260.126L286.854 259.204V258.989L289.953 260.372V260.095Z" fill="#055E5A"/>
<path d="M341.565 240.465C341.443 239.021 334.569 237.885 326.192 237.885C317.815 237.885 310.941 239.052 310.818 240.465C310.757 241.326 311.002 251.341 311.125 255.703C311.156 257.3 311.923 258.806 313.181 259.758C315.298 261.386 319.288 262.615 326.192 262.615C333.035 262.615 337.055 261.356 339.172 259.727C340.461 258.744 341.197 257.239 341.259 255.642C341.381 251.279 341.627 241.326 341.565 240.465Z" fill="#81F2DC"/>
<path d="M341.842 240.527C341.842 238.899 334.846 237.578 326.193 237.578C317.57 237.578 310.543 238.899 310.543 240.527C310.543 240.65 310.543 241.08 310.543 241.203C310.543 242.831 317.539 244.152 326.193 244.152C334.815 244.152 341.842 242.831 341.842 241.203C341.842 241.08 341.842 240.65 341.842 240.527Z" fill="#055E5A"/>
<path opacity="0.7" d="M326.193 243.477C334.836 243.477 341.842 242.156 341.842 240.527C341.842 238.899 334.836 237.578 326.193 237.578C317.55 237.578 310.543 238.899 310.543 240.527C310.543 242.156 317.55 243.477 326.193 243.477Z" fill="#055E5A"/>
<path d="M326.192 243.046C334.564 243.046 341.351 241.891 341.351 240.465C341.351 239.04 334.564 237.885 326.192 237.885C317.82 237.885 311.033 239.04 311.033 240.465C311.033 241.891 317.82 243.046 326.192 243.046Z" fill="url(#paint2_linear)"/>
<path d="M326.192 243.046C334.564 243.046 341.351 241.891 341.351 240.465C341.351 239.04 334.564 237.885 326.192 237.885C317.82 237.885 311.033 239.04 311.033 240.465C311.033 241.891 317.82 243.046 326.192 243.046Z" fill="url(#paint3_linear)"/>
<path d="M344.267 239.144C344.052 239.021 342.487 239.605 341.352 239.82C341.597 240.004 341.72 240.158 341.782 240.342C342.457 240.158 343.96 239.635 344.083 239.727C344.605 240.158 344.881 240.895 344.666 241.079C344.328 241.356 340.861 242.892 340.155 243.23C339.449 243.568 338.161 247.316 338.774 247.346C339.695 247.408 346.231 242.308 346.446 241.909C346.783 241.356 344.881 239.451 344.267 239.144Z" fill="#055E5A"/>
<path d="M308.119 239.144C308.334 239.021 309.899 239.605 311.034 239.82C310.789 240.004 310.666 240.158 310.604 240.342C309.929 240.158 308.426 239.635 308.303 239.727C307.781 240.158 307.505 240.895 307.72 241.079C308.058 241.356 311.525 242.892 312.231 243.23C312.937 243.568 314.225 247.316 313.612 247.346C312.691 247.408 306.155 242.308 305.94 241.909C305.603 241.356 307.505 239.451 308.119 239.144Z" fill="#055E5A"/>
<path d="M326.194 243.291C334.633 243.291 341.475 241.971 341.475 240.342C341.475 238.713 334.633 237.393 326.194 237.393C317.754 237.393 310.912 238.713 310.912 240.342C310.912 241.971 317.754 243.291 326.194 243.291Z" fill="#055E5A"/>
<path d="M329.937 235.028C329.937 234.72 328.28 234.475 326.255 234.475C324.229 234.475 322.572 234.72 322.572 235.028C322.572 235.15 322.787 235.519 323.186 235.949C323.616 236.41 323.769 237.086 323.646 237.731V237.762C323.646 237.977 324.812 238.161 326.255 238.161C327.697 238.161 328.863 237.977 328.863 237.762C328.863 237.762 328.863 237.762 328.863 237.731C328.74 237.086 328.863 236.441 329.323 235.949C329.722 235.519 329.937 235.15 329.937 235.028Z" fill="#187F73"/>
<path d="M303.721 249.46C303.629 248.477 298.965 247.709 293.257 247.709C287.55 247.709 282.886 248.508 282.794 249.46C282.732 250.044 282.916 256.864 283.008 259.844C283.039 260.919 283.561 261.964 284.42 262.609C285.862 263.715 288.562 264.544 293.257 264.544C297.891 264.544 300.653 263.684 302.095 262.578C302.954 261.902 303.476 260.888 303.506 259.782C303.598 256.802 303.783 250.044 303.721 249.46Z" fill="#055E5A"/>
<path d="M303.905 249.49C303.905 248.385 299.149 247.463 293.257 247.463C287.396 247.463 282.609 248.354 282.609 249.49C282.609 249.583 282.609 249.859 282.609 249.951C282.609 251.057 287.366 251.979 293.257 251.979C299.118 251.979 303.905 251.088 303.905 249.951C303.905 249.89 303.905 249.583 303.905 249.49Z" fill="#187F73"/>
<path d="M293.257 251.518C299.138 251.518 303.905 250.61 303.905 249.49C303.905 248.371 299.138 247.463 293.257 247.463C287.377 247.463 282.609 248.371 282.609 249.49C282.609 250.61 287.377 251.518 293.257 251.518Z" fill="#27A8A5"/>
<path d="M293.258 251.211C298.952 251.211 303.568 250.427 303.568 249.46C303.568 248.493 298.952 247.709 293.258 247.709C287.563 247.709 282.947 248.493 282.947 249.46C282.947 250.427 287.563 251.211 293.258 251.211Z" fill="url(#paint4_linear)"/>
<path d="M293.258 251.211C298.952 251.211 303.568 250.427 303.568 249.46C303.568 248.493 298.952 247.709 293.258 247.709C287.563 247.709 282.947 248.493 282.947 249.46C282.947 250.427 287.563 251.211 293.258 251.211Z" fill="#055E5A"/>
<path d="M305.009 251.304L303.721 251.427C303.536 251.58 303.107 251.703 303.076 253.085C303.076 254.99 303.629 254.867 303.629 254.867L305.194 254.437C305.531 254.376 305.347 251.242 305.009 251.304Z" fill="#187F73"/>
<path d="M304.856 254.652C306.605 254.745 311.883 251.98 316.271 251.58C316.915 251.519 317.652 251.642 318.266 251.949C318.726 252.195 321.15 250.259 320.72 249.583C320.229 248.754 319.217 248.201 316.578 248.908C315.872 249.092 314.062 249.614 312.803 249.86C311.024 250.198 306.482 250.751 304.948 250.904C304.672 250.935 304.457 251.15 304.396 251.365C304.273 251.734 304.334 254.622 304.856 254.652Z" fill="#055E5A"/>
<path d="M249.094 258.697C249.278 259.987 249.431 261.185 249.554 262.015C249.677 262.967 250.536 263.827 251.855 264.38C254.034 265.302 258.085 266.008 265.02 266.008C271.863 266.008 275.944 265.302 278.153 264.349C279.503 263.796 280.363 262.906 280.485 261.953C280.608 261.124 280.761 259.926 280.946 258.666H249.094V258.697Z" fill="#27A8A5"/>
<path d="M281.13 258.297C281.13 257.068 273.919 256.055 265.02 256.055C256.121 256.055 248.91 257.068 248.91 258.297C248.91 258.389 248.91 258.42 248.91 258.512C248.91 259.741 256.121 260.755 265.02 260.755C273.919 260.755 281.13 259.741 281.13 258.512C281.13 258.42 281.13 258.359 281.13 258.297Z" fill="#187F73"/>
<path d="M265.02 260.54C273.917 260.54 281.13 259.536 281.13 258.297C281.13 257.059 273.917 256.055 265.02 256.055C256.123 256.055 248.91 257.059 248.91 258.297C248.91 259.536 256.123 260.54 265.02 260.54Z" fill="#4FD3BC"/>
<path d="M265.021 260.172C273.648 260.172 280.64 259.305 280.64 258.236C280.64 257.167 273.648 256.301 265.021 256.301C256.395 256.301 249.402 257.167 249.402 258.236C249.402 259.305 256.395 260.172 265.021 260.172Z" fill="url(#paint5_linear)"/>
<path d="M265.021 260.172C273.648 260.172 280.64 259.305 280.64 258.236C280.64 257.167 273.648 256.301 265.021 256.301C256.395 256.301 249.402 257.167 249.402 258.236C249.402 259.305 256.395 260.172 265.021 260.172Z" fill="#187F73"/>
<path d="M281.437 259.342L280.609 259.434C280.486 259.434 280.363 259.496 280.271 259.557C280.118 259.68 279.934 259.957 279.934 260.755C279.934 262.261 280.363 262.168 280.363 262.168L281.591 261.831C281.867 261.769 281.713 259.311 281.437 259.342Z" fill="#187F73"/>
<path d="M281.252 262.168C282.633 262.23 292.453 259.035 295.92 258.727C296.411 258.697 297.025 258.758 297.485 259.004C297.853 259.219 299.756 257.683 299.418 257.13C299.02 256.485 298.252 256.208 296.166 256.608C295.613 256.731 286.899 258.359 281.314 259.188C281.099 259.219 280.915 259.403 280.884 259.557C280.792 259.864 280.823 262.138 281.252 262.168Z" fill="#27A8A5"/>
</g>
<defs>
<linearGradient id="paint0_linear" x1="257.816" y1="214.43" x2="257.816" y2="208.564" gradientUnits="userSpaceOnUse">
<stop stop-color="#373C40"/>
<stop offset="1" stop-color="#212325"/>
</linearGradient>
<linearGradient id="paint1_linear" x1="257.816" y1="214.43" x2="257.816" y2="208.564" gradientUnits="userSpaceOnUse">
<stop stop-color="#373C40"/>
<stop offset="1" stop-color="#212325"/>
</linearGradient>
<linearGradient id="paint2_linear" x1="326.188" y1="243.439" x2="326.188" y2="234.701" gradientUnits="userSpaceOnUse">
<stop stop-color="#373C40"/>
<stop offset="1" stop-color="#212325"/>
</linearGradient>
<linearGradient id="paint3_linear" x1="326.188" y1="243.439" x2="326.188" y2="234.701" gradientUnits="userSpaceOnUse">
<stop stop-color="#373C40"/>
<stop offset="1" stop-color="#212325"/>
</linearGradient>
<linearGradient id="paint4_linear" x1="293.269" y1="251.479" x2="293.269" y2="245.534" gradientUnits="userSpaceOnUse">
<stop stop-color="#373C40"/>
<stop offset="1" stop-color="#212325"/>
</linearGradient>
<linearGradient id="paint5_linear" x1="265.014" y1="260.471" x2="265.014" y2="253.885" gradientUnits="userSpaceOnUse">
<stop stop-color="#373C40"/>
<stop offset="1" stop-color="#212325"/>
</linearGradient>
<clipPath id="clip0">
<rect width="360" height="280" fill="white"/>
</clipPath>
</defs>
</svg>
