<svg width="50" height="50" viewBox="0 0 50 50" fill="none" xmlns="http://www.w3.org/2000/svg">
<circle cx="25" cy="25" r="25" fill="white"/>
<path d="M26.9933 20.2041C26.9331 19.8227 26.7123 19.5015 26.4112 19.3007C26.3309 19.2405 26.2306 19.1803 26.1302 19.1401C25.9696 19.1 25.8291 19.0598 25.6886 19.0197C25.2872 18.9795 24.8858 19.0799 24.5847 19.381C23.9826 20.0033 23.7417 21.2079 23.6012 22.0309C23.3604 23.376 23.1195 24.7411 22.8786 26.0861C22.4973 28.2341 22.1159 30.3822 21.7546 32.5302C21.5941 33.5139 21.574 34.8389 22.7984 35.0998C22.8184 35.0998 22.8184 35.0998 22.8385 35.0998C22.8786 35.1199 22.9389 35.1199 22.9991 35.1199C23.0191 35.1199 23.0191 35.1199 23.0392 35.1199C23.0994 35.1199 23.1596 35.1199 23.2199 35.1199C24.0026 35.1199 24.3639 34.5377 24.5847 33.8351C24.7453 33.3131 24.8055 32.7109 24.8858 32.2291C25.2069 30.4625 25.5281 28.716 25.8492 26.9493C25.8893 26.7486 25.9094 26.5679 25.9496 26.3672C26.1302 25.3233 26.3309 24.2793 26.5116 23.2154C26.6521 22.3521 27.1338 21.1476 26.9933 20.2041Z" fill="#E8140F"/>
<path d="M27.0536 17.8554C26.4716 18.0763 25.749 18.016 25.3074 17.6145C24.1834 16.5907 25.0666 14.6836 26.6121 15.0449C27.3948 15.2256 28.0371 16.0687 27.8966 16.8918C27.8364 17.3535 27.4952 17.6948 27.0536 17.8554Z" fill="#E8140F"/>
<path d="M10.7757 27.09C10.9162 27.2506 11.0768 27.4112 11.2173 27.5718C12.6424 29.0172 14.0674 30.4626 15.5126 31.888C15.8137 32.1891 16.1147 32.4902 16.476 32.6709C16.8574 32.8516 17.319 32.9118 17.6803 32.711C18.0617 32.5103 18.2624 32.0486 18.2624 31.6069C18.2624 31.1653 18.1018 30.7437 17.881 30.3622C17.0179 28.7763 15.4323 27.7324 14.3484 26.287C14.1076 25.9658 13.8868 25.5844 13.947 25.1829C13.9872 24.8817 14.1879 24.6408 14.3886 24.3999C15.7133 22.8341 17.1785 21.3887 18.7642 20.1039C19.2258 19.7425 19.7477 19.2406 19.5871 18.6585C19.4867 18.2569 19.0452 17.996 18.6237 17.9759C17.1183 17.8755 15.4323 19.0198 14.4087 20.0236C13.7463 20.686 13.1442 21.3887 12.5019 22.0712C11.8997 22.6936 11.1772 23.2155 10.6352 23.8981C10.2338 24.3799 9.93274 25.0022 10.013 25.6245C10.1134 26.2067 10.4145 26.6684 10.7757 27.09Z" fill="#0421B1"/>
<path d="M38.7351 23.9583C38.5946 23.7977 38.434 23.6371 38.2735 23.4765C36.8082 22.0311 35.343 20.5857 33.8778 19.1604C33.5768 18.8593 33.2556 18.5581 32.8743 18.3775C32.4929 18.1968 32.0112 18.1366 31.6499 18.3373C31.2685 18.5581 31.0678 19.0199 31.0678 19.4615C31.0678 19.9032 31.2485 20.3247 31.4693 20.7062C32.3725 22.2921 33.9782 23.336 35.0821 24.7814C35.323 25.1026 35.5638 25.4841 35.5036 25.8856C35.4635 26.1867 35.2627 26.4477 35.062 26.6685C33.7574 28.2745 32.2922 29.74 30.6865 31.0649C30.2248 31.4464 29.703 31.9683 29.8635 32.5304C29.984 32.9319 30.4255 33.1929 30.847 33.213C32.3725 33.2933 34.0785 32.1088 35.0821 31.085C35.7445 30.4025 36.3466 29.6798 36.9889 28.9972C37.591 28.3548 38.3136 27.8128 38.8555 27.1302C39.257 26.6283 39.538 26.006 39.4777 25.3837C39.4376 24.8416 39.1165 24.3799 38.7351 23.9583Z" fill="#0421B1"/>
</svg>
