<svg width="50" height="50" viewBox="0 0 50 50" fill="none" xmlns="http://www.w3.org/2000/svg">
<circle cx="25" cy="25" r="25" fill="white"/>
<path d="M26.9933 20.2041C26.9331 19.8227 26.7123 19.5015 26.4112 19.3007C26.3309 19.2405 26.2306 19.1803 26.1302 19.1401C25.9696 19.1 25.8291 19.0598 25.6886 19.0197C25.2872 18.9795 24.8858 19.0799 24.5847 19.381C23.9826 20.0033 23.7417 21.2079 23.6012 22.0309C23.3604 23.376 23.1195 24.7411 22.8786 26.0861C22.4973 28.2341 22.1159 30.3822 21.7546 32.5302C21.5941 33.5139 21.574 34.8389 22.7984 35.0998C22.8184 35.0998 22.8184 35.0998 22.8385 35.0998C22.8786 35.1199 22.9389 35.1199 22.9991 35.1199C23.0191 35.1199 23.0191 35.1199 23.0392 35.1199C23.0994 35.1199 23.1596 35.1199 23.2199 35.1199C24.0026 35.1199 24.3639 34.5377 24.5847 33.8351C24.7453 33.3131 24.8055 32.7109 24.8858 32.2291C25.2069 30.4625 25.5281 28.716 25.8492 26.9493C25.8893 26.7486 25.9094 26.5679 25.9496 26.3672C26.1302 25.3233 26.3309 24.2793 26.5116 23.2154C26.6521 22.3521 27.1338 21.1476 26.9933 20.2041Z" fill="#E8140F"/>
<path d="M27.0536 17.8554C26.4716 18.0763 25.749 18.016 25.3074 17.6145C24.1834 16.5907 25.0666 14.6836 26.6121 15.0449C27.3948 15.2256 28.0371 16.0687 27.8966 16.8918C27.8364 17.3535 27.4952 17.6948 27.0536 17.8554Z" fill="#E8140F"/>
<path d="M10.7757 27.09C10.9162 27.2506 11.0768 27.4112 11.2173 27.5718C12.6424 29.0172 14.0674 30.4626 15.5126 31.888C15.8137 32.1891 16.1147 32.4902 16.476 32.6709C16.8574 32.8516 17.319 32.9118 17.6803 32.711C18.0617 32.5103 18.2624 32.0486 18.2624 31.6069C18.2624 31.1653 18.1018 30.7437 17.881 30.3622C17.0179 28.7763 15.4323 27.7324 14.3484 26.287C14.1076 25.9658 13.8868 25.5844 13.947 25.1829C13.9872 24.8817 14.1879 24.6408 14.3886 24.3999C15.7133 22.8341 17.1785 21.3887 18.7642 20.1039C19.2258 19.7425 19.7477 19.2406 19.5871 18.6585C19.4867 18.2569 19.0452 17.996 18.6237 17.9759C17.1183 17.8755 15.4323 19.0198 14.4087 20.0236C13.7463 20.686 13.1442 21.3887 12.5019 22.0712C11.8997 22.6936 11.1772 23.2155 10.6352 23.8981C10.2338 24.3799 9.93274 25.0022 10.013 25.6245C10.1134 26.2067 10.4145 26.6684 10.7757 27.09Z" fill="#0421B1"/>
<path d="M38.7351 23.9583C38.5946 23.7977 38.434 23.6371 38.2735 23.4765C36.8082 22.0311 35.343 20.5857 33.8778 19.1604C33.5768 18.8593 33.2556 18.5581 32.8743 18.3775C32.4929 18.1968 32.0112 18.1366 31.6499 18.3373C31.2685 18.5581 31.0678 19.0199 31.0678 19.4615C31.0678 19.9032 31.2485 20.3247 31.4693 20.7062C32.3725 22.2921 33.9782 23.336 35.0821 24.7814C35.323 25.1026 35.5638 25.4841 35.5036 25.8856C35.4635 26.1867 35.2627 26.4477 35.062 26.6685C33.7574 28.2745 32.2922 29.74 30.6865 31.0649C30.2248 31.4464 29.703 31.9683 29.8635 32.5304C29.984 32.9319 30.4255 33.1929 30.847 33.213C32.3725 33.2933 34.0785 32.1088 35.0821 31.085C35.7445 30.4025 36.3466 29.6798 36.9889 28.9972C37.591 28.3548 38.3136 27.8128 38.8555 27.1302C39.257 26.6283 39.538 26.006 39.4777 25.3837C39.4376 24.8416 39.1165 24.3799 38.7351 23.9583Z" fill="#0421B1"/>
<svg width="50" height="36" viewBox="0 0 50 36" fill="none" xmlns="http://www.w3.org/2000/svg">
<path d="M28.8161 9.7657C28.714 9.1189 28.3396 8.57423 27.8291 8.23381C27.6929 8.13168 27.5227 8.02956 27.3526 7.96148C27.0803 7.89339 26.842 7.82531 26.6038 7.75722C25.9231 7.68914 25.2424 7.85935 24.7318 8.36998C23.7108 9.42527 23.3023 11.4678 23.0641 12.8635C22.6556 15.1443 22.2472 17.4592 21.8388 19.74C21.1921 23.3825 20.5454 27.025 19.9328 30.6674C19.6605 32.3355 19.6265 34.5823 21.7027 35.0248C21.7367 35.0248 21.7367 35.0248 21.7707 35.0248C21.8388 35.0589 21.9409 35.0589 22.043 35.0589C22.077 35.0589 22.077 35.0589 22.1111 35.0589C22.2132 35.0589 22.3153 35.0589 22.4174 35.0589C23.7448 35.0589 24.3574 34.0716 24.7318 32.8802C25.0041 31.9951 25.1062 30.9738 25.2424 30.1568C25.7869 27.1611 26.3315 24.1995 26.8761 21.2038C26.9441 20.8634 26.9782 20.557 27.0462 20.2166C27.3526 18.4464 27.6929 16.6762 27.9992 14.872C28.2375 13.4082 29.0543 11.3657 28.8161 9.7657Z" fill="#E8140F"/>
<path d="M28.9183 5.78295C27.9313 6.15741 26.706 6.05528 25.9572 5.37444C24.0512 3.6383 25.5488 0.404321 28.1695 1.01708C29.4969 1.32345 30.5861 2.75321 30.3478 4.14893C30.2457 4.93189 29.6671 5.51061 28.9183 5.78295Z" fill="#E8140F"/>
<path d="M1.31544 21.4423C1.55369 21.7146 1.82598 21.987 2.06423 22.2593C4.48076 24.7103 6.89729 27.1614 9.34785 29.5783C9.85839 30.089 10.3689 30.5996 10.9816 30.906C11.6282 31.2123 12.4111 31.3145 13.0237 30.9741C13.6704 30.6336 14.0107 29.8507 14.0107 29.1018C14.0107 28.3528 13.7385 27.6379 13.3641 26.9911C11.9005 24.3018 9.21171 22.5317 7.37379 20.0806C6.96536 19.536 6.59097 18.8892 6.69307 18.2083C6.76114 17.6977 7.1015 17.2892 7.44186 16.8807C9.68821 14.2254 12.1728 11.7744 14.8616 9.59571C15.6444 8.98295 16.5294 8.13191 16.2571 7.1447C16.0869 6.46386 15.3381 6.0213 14.6234 5.98726C12.0707 5.81705 9.21171 7.75745 7.47589 9.45954C6.35272 10.5829 5.33165 11.7744 4.24251 12.9318C3.22144 13.9871 1.99615 14.8722 1.07719 16.0296C0.396479 16.8466 -0.114056 17.9019 0.022087 18.9572C0.192265 19.9445 0.7028 20.7274 1.31544 21.4423Z" fill="#0421B1"/>
<path d="M48.7269 16.1316C48.4886 15.8593 48.2164 15.5869 47.9441 15.3146C45.4595 12.8636 42.9749 10.4125 40.4903 7.99557C39.9797 7.48494 39.4352 6.9743 38.7885 6.66793C38.1418 6.36155 37.325 6.25943 36.7123 6.59985C36.0656 6.97431 35.7253 7.75728 35.7253 8.5062C35.7253 9.25512 36.0316 9.97 36.406 10.6168C37.9376 13.3061 40.6605 15.0763 42.5324 17.5273C42.9408 18.072 43.3493 18.7188 43.2472 19.3996C43.1791 19.9102 42.8387 20.3528 42.4984 20.7272C40.2861 23.4506 37.8015 25.9357 35.0786 28.1824C34.2958 28.8292 33.4109 29.7143 33.6831 30.6675C33.8874 31.3483 34.6361 31.7909 35.3509 31.8249C37.9376 31.9611 40.8306 29.9526 42.5324 28.2165C43.6556 27.059 44.6767 25.8335 45.7658 24.6761C46.7869 23.5868 48.0121 22.6676 48.9311 21.5102C49.6118 20.6592 50.0883 19.6039 49.9862 18.5486C49.9181 17.6294 49.3736 16.8465 48.7269 16.1316Z" fill="#0421B1"/>
</svg>
