<svg width="50" height="36" viewBox="0 0 50 36" fill="none" xmlns="http://www.w3.org/2000/svg">
<path d="M28.8161 9.7657C28.714 9.1189 28.3396 8.57423 27.8291 8.23381C27.6929 8.13168 27.5227 8.02956 27.3526 7.96148C27.0803 7.89339 26.842 7.82531 26.6038 7.75722C25.9231 7.68914 25.2424 7.85935 24.7318 8.36998C23.7108 9.42527 23.3023 11.4678 23.0641 12.8635C22.6556 15.1443 22.2472 17.4592 21.8388 19.74C21.1921 23.3825 20.5454 27.025 19.9328 30.6674C19.6605 32.3355 19.6265 34.5823 21.7027 35.0248C21.7367 35.0248 21.7367 35.0248 21.7707 35.0248C21.8388 35.0589 21.9409 35.0589 22.043 35.0589C22.077 35.0589 22.077 35.0589 22.1111 35.0589C22.2132 35.0589 22.3153 35.0589 22.4174 35.0589C23.7448 35.0589 24.3574 34.0716 24.7318 32.8802C25.0041 31.9951 25.1062 30.9738 25.2424 30.1568C25.7869 27.1611 26.3315 24.1995 26.8761 21.2038C26.9441 20.8634 26.9782 20.557 27.0462 20.2166C27.3526 18.4464 27.6929 16.6762 27.9992 14.872C28.2375 13.4082 29.0543 11.3657 28.8161 9.7657Z" fill="#E8140F"/>
<path d="M28.9183 5.78295C27.9313 6.15741 26.706 6.05528 25.9572 5.37444C24.0512 3.6383 25.5488 0.404321 28.1695 1.01708C29.4969 1.32345 30.5861 2.75321 30.3478 4.14893C30.2457 4.93189 29.6671 5.51061 28.9183 5.78295Z" fill="#E8140F"/>
<path d="M1.31544 21.4423C1.55369 21.7146 1.82598 21.987 2.06423 22.2593C4.48076 24.7103 6.89729 27.1614 9.34785 29.5783C9.85839 30.089 10.3689 30.5996 10.9816 30.906C11.6282 31.2123 12.4111 31.3145 13.0237 30.9741C13.6704 30.6336 14.0107 29.8507 14.0107 29.1018C14.0107 28.3528 13.7385 27.6379 13.3641 26.9911C11.9005 24.3018 9.21171 22.5317 7.37379 20.0806C6.96536 19.536 6.59097 18.8892 6.69307 18.2083C6.76114 17.6977 7.1015 17.2892 7.44186 16.8807C9.68821 14.2254 12.1728 11.7744 14.8616 9.59571C15.6444 8.98295 16.5294 8.13191 16.2571 7.1447C16.0869 6.46386 15.3381 6.0213 14.6234 5.98726C12.0707 5.81705 9.21171 7.75745 7.47589 9.45954C6.35272 10.5829 5.33165 11.7744 4.24251 12.9318C3.22144 13.9871 1.99615 14.8722 1.07719 16.0296C0.396479 16.8466 -0.114056 17.9019 0.022087 18.9572C0.192265 19.9445 0.7028 20.7274 1.31544 21.4423Z" fill="#0421B1"/>
<path d="M48.7269 16.1316C48.4886 15.8593 48.2164 15.5869 47.9441 15.3146C45.4595 12.8636 42.9749 10.4125 40.4903 7.99557C39.9797 7.48494 39.4352 6.9743 38.7885 6.66793C38.1418 6.36155 37.325 6.25943 36.7123 6.59985C36.0656 6.97431 35.7253 7.75728 35.7253 8.5062C35.7253 9.25512 36.0316 9.97 36.406 10.6168C37.9376 13.3061 40.6605 15.0763 42.5324 17.5273C42.9408 18.072 43.3493 18.7188 43.2472 19.3996C43.1791 19.9102 42.8387 20.3528 42.4984 20.7272C40.2861 23.4506 37.8015 25.9357 35.0786 28.1824C34.2958 28.8292 33.4109 29.7143 33.6831 30.6675C33.8874 31.3483 34.6361 31.7909 35.3509 31.8249C37.9376 31.9611 40.8306 29.9526 42.5324 28.2165C43.6556 27.059 44.6767 25.8335 45.7658 24.6761C46.7869 23.5868 48.0121 22.6676 48.9311 21.5102C49.6118 20.6592 50.0883 19.6039 49.9862 18.5486C49.9181 17.6294 49.3736 16.8465 48.7269 16.1316Z" fill="#0421B1"/>
</svg>
