<svg width="270" height="193" viewBox="0 0 270 193" fill="none" xmlns="http://www.w3.org/2000/svg">
<rect x="187.82" y="2.33643" width="82.1803" height="58.2111" fill="#EEF8FF"/>
<path d="M132.805 192.826C206.151 192.826 265.609 180.21 265.609 164.647C265.609 149.084 206.151 136.468 132.805 136.468C59.4587 136.468 0 149.084 0 164.647C0 180.21 59.4587 192.826 132.805 192.826Z" fill="#EEF8FF"/>
<path d="M155.026 44.5231H109.496C108.087 44.5231 106.96 43.396 106.96 41.987V11.5132C106.96 10.1042 108.087 8.97705 109.496 8.97705H155.026C156.435 8.97705 157.562 10.1042 157.562 11.5132V42.0273C157.522 43.396 156.395 44.5231 155.026 44.5231Z" fill="#F8C92C"/>
<path d="M106.96 42.0276C106.96 43.4366 108.087 44.5637 109.496 44.5637H155.026C156.435 44.5637 157.562 43.4366 157.562 42.0276L132.281 23.5903L106.96 42.0276Z" fill="#F5BD1F"/>
<path d="M157.522 14.2098C157.522 12.8008 157.723 9.94263 156.314 9.94263H108.007C106.598 9.94263 106.96 12.8411 106.96 14.2098L132.241 29.9901L157.522 14.2098Z" fill="#F5BD1F"/>
<path d="M157.522 11.5532C157.522 10.1443 156.395 9.01709 154.986 9.01709H109.496C108.087 9.01709 106.96 10.1443 106.96 11.5532L132.241 29.9905L157.522 11.5532Z" fill="#FCBF35"/>
<path d="M78.5798 46.6165C79.7875 45.8516 81.0355 45.127 82.2834 44.4427C83.5313 43.7583 84.7793 43.1142 86.0675 42.4701C87.3557 41.8663 88.6438 41.2222 89.932 40.6586C91.2202 40.095 92.5487 39.5314 93.8771 39.0483C92.6695 39.8132 91.4215 40.5378 90.1736 41.2222C88.9256 41.9065 87.6777 42.5506 86.3895 43.1947C85.1013 43.7986 83.8131 44.4427 82.5249 45.0062C81.2367 45.5698 79.9083 46.1334 78.5798 46.6165Z" fill="#0A54BF"/>
<path d="M80.7131 52.7754C81.9208 52.0105 83.1688 51.2859 84.4167 50.6016C85.6646 49.9172 86.9126 49.2731 88.2008 48.629C89.489 48.0252 90.7771 47.3811 92.0653 46.8175C93.3535 46.2539 94.682 45.6903 96.0104 45.2073C94.8028 45.9721 93.5548 46.6967 92.3069 47.3811C91.0589 48.0655 89.811 48.7095 88.5228 49.3536C87.2346 49.9575 85.9464 50.6016 84.6582 51.1652C83.37 51.769 82.0818 52.2923 80.7131 52.7754Z" fill="#0A54BF"/>
<path d="M84.2158 58.291C85.4235 57.5262 86.6714 56.8016 87.9194 56.1172C89.1673 55.4329 90.4153 54.7888 91.7034 54.1447C92.9916 53.5408 94.2798 52.8967 95.568 52.3331C96.8562 51.7696 98.1847 51.206 99.5131 50.7229C98.3054 51.4878 97.0575 52.2124 95.8096 52.8967C94.5616 53.5811 93.3137 54.2252 92.0255 54.8693C90.7373 55.4731 89.4491 56.1172 88.1609 56.6808C86.8727 57.2444 85.5443 57.808 84.2158 58.291Z" fill="#0A54BF"/>
<g opacity="0.58">
<path opacity="0.58" d="M211.706 83.2901C212.391 82.324 213.639 79.8683 214.605 79.5463C215.208 79.3048 215.047 81.6396 215.047 82.0422C215.088 83.7329 214.927 85.4237 214.725 87.1144C214.363 90.1336 213.155 92.8308 211.505 95.4072C210.66 96.7356 209.653 98.0641 208.284 98.9094C207.64 99.2718 206.875 99.3523 206.272 99.6743C205.547 100.037 205.95 99.7548 205.628 100.52C205.185 101.566 205.024 102.935 204.822 104.062C203.856 109.215 201.521 136.509 201.924 141.742C201.964 142.225 201.32 142.305 201.28 141.742C201.119 138.723 202.608 117.87 203.333 111.067C204.098 104.264 204.863 98.2251 205.628 95.85C206.553 92.9918 208.204 89.5298 209.613 86.8729C210.176 85.625 210.901 84.4173 211.706 83.2901Z" fill="#F5BD1F"/>
<path opacity="0.58" d="M216.698 116.743C218.469 115.455 220.361 117.87 218.751 119.198C217.865 119.923 216.94 119.641 216.416 119.078C216.094 119.48 215.772 119.923 215.45 120.285C214.524 121.372 213.639 122.499 212.833 123.667C211.102 126.082 209.613 128.618 208.083 131.114C206.554 133.57 205.024 136.025 203.655 138.562C202.488 140.695 200.918 143.191 200.515 145.566C201.119 140.615 203.454 135.824 206.191 131.436C208.929 127.089 212.069 122.338 216.295 118.917C215.893 118.232 215.893 117.347 216.698 116.743Z" fill="#FCBF35"/>
<path opacity="0.58" d="M183.326 104.626C184.292 104.827 185.902 107.041 186.748 107.887C187.714 108.893 188.599 109.98 189.404 111.107C191.176 113.522 192.786 116.099 194.114 118.796C196.328 123.184 198.1 127.692 199.348 132.443C200.113 135.381 200.636 138.401 200.958 141.42C200.998 141.983 201.602 146.371 200.757 146.492C199.992 146.613 200.233 143.191 200.193 142.708C199.791 137.434 198.502 132.322 196.771 127.37C196.409 126.284 196.047 124.955 195.443 123.989C195 123.305 195.443 123.546 194.678 123.264C194.034 123.023 193.269 123.103 192.585 122.822C191.095 122.218 189.928 121.05 188.881 119.843C186.868 117.548 185.258 115.052 184.453 112.113C184.01 110.463 183.567 108.853 183.326 107.162C183.205 106.759 182.682 104.505 183.326 104.626Z" fill="#F5BD1F"/>
<path opacity="0.58" d="M187.19 67.55C190.894 73.991 193.953 81.0358 195.926 88.2014C197.134 92.549 197.939 96.9772 198.784 101.405C200.072 108.249 201.28 115.092 201.642 122.057C202.005 129.061 202.689 137.153 200.394 143.875C201.522 137.032 200.435 129.746 200.274 122.862C200.193 119.561 199.911 116.3 199.549 113.039C199.227 109.859 198.663 106.719 198.14 103.579C197.898 102.049 197.617 100.52 197.335 98.99C197.254 98.5472 197.214 97.1785 196.932 96.8564C196.651 96.5344 195.161 96.4136 194.678 96.1721C193.752 95.689 192.866 95.0449 192.061 94.3605C190.572 93.0321 189.243 91.3011 188.237 89.5701C185.862 85.5847 184.896 80.754 184.936 76.1246C184.936 75.2389 186.385 65.6177 185.822 65.4567C185.862 65.4164 185.902 65.3762 185.902 65.3359C186.345 66.0605 186.788 66.8254 187.19 67.55Z" fill="#FCBF35"/>
<path opacity="0.58" d="M227.245 90.7376C227.285 90.6571 227.688 90.0935 227.487 90.1338C227.849 90.0532 226.963 90.7778 227.929 90.335C227.487 90.7778 227.728 91.3012 227.728 91.905C227.728 92.8309 227.567 93.7568 227.406 94.6827C227.124 96.1319 226.722 97.5409 226.118 98.8693C224.83 101.808 222.575 104.626 219.959 106.437C218.671 107.323 217.382 107.645 215.893 108.048C214.967 108.329 214.886 108.813 214.363 109.698C213.316 111.59 212.31 113.482 211.384 115.455C210.297 117.79 209.251 120.125 208.244 122.5C204.863 130.511 202.125 138.844 200.716 147.418C200.676 142.346 201.844 137.113 203.333 132.282C204.42 128.78 205.829 125.358 207.318 122.017C207.681 121.211 208.244 120.165 208.365 119.239C208.486 118.595 208.123 117.991 208.003 117.347C207.399 114.77 207.439 111.872 207.962 109.296C208.526 106.437 210.177 105.109 212.954 104.706C213.961 104.545 215.249 104.626 216.215 104.183C217.221 103.7 217.664 102.17 218.228 101.164C219.798 98.4668 221.649 95.9306 223.743 93.636C224.347 92.9919 224.95 92.4284 225.635 91.905C226.078 91.583 226.963 91.1804 227.245 90.7376Z" fill="#FCBF35"/>
<path opacity="0.58" d="M196.007 141.943H205.91C206.353 141.943 206.715 142.306 206.715 142.748C206.715 142.789 206.715 142.829 206.715 142.869L205.95 148.062C205.708 149.632 204.38 150.8 202.77 150.8H199.187C197.577 150.8 196.248 149.632 196.007 148.062L195.242 142.869C195.161 142.426 195.483 142.024 195.926 141.943C195.926 141.984 195.966 141.943 196.007 141.943Z" fill="#EA6206"/>
</g>
<path d="M86.9128 109.98C87.5166 109.9 88.1607 109.94 88.684 110.181C89.8515 110.664 90.2138 112.073 90.1735 113.201C90.1735 114.408 89.8917 115.737 90.8176 116.743C91.2604 117.186 91.7837 117.548 92.1863 117.991C92.6291 118.474 92.9914 119.038 93.233 119.642C93.716 120.769 93.9576 122.057 93.5148 123.224C93.1122 124.231 92.1461 125.157 92.3876 126.324C92.5889 127.532 93.8368 128.458 94.6017 129.383C95.4873 130.39 96.2522 131.718 96.4132 133.047C96.534 134.335 95.9704 135.623 95.125 136.63C93.394 138.562 90.8176 139.528 88.201 139.528C87.114 139.528 85.8259 139.488 84.9 138.884C84.6182 138.683 84.4571 138.481 84.2559 138.2C84.0948 137.958 83.8936 137.757 83.652 137.596C83.1287 137.193 82.7261 136.67 82.4846 136.066C81.5587 133.731 82.2833 130.833 83.6118 128.739C83.9338 128.256 84.1754 127.773 84.0143 127.169C83.8533 126.566 83.4507 126.002 83.1287 125.479C82.8066 124.955 82.4041 124.472 82.1223 123.909C81.8405 123.305 81.76 122.701 81.8002 122.057C81.8808 120.849 82.4041 119.722 83.169 118.756C83.8936 117.83 84.7389 116.904 84.7389 115.696C84.7389 114.408 83.8533 113.241 84.2559 111.912C84.4169 111.349 84.6987 110.785 85.222 110.463C85.7453 110.181 86.3492 110.061 86.9128 109.98Z" fill="#137F3A"/>
<path d="M86.5105 112.074C86.5105 111.913 86.7117 111.792 86.8728 111.833C87.074 111.873 87.074 112.074 87.074 112.275C87.074 112.839 87.1546 113.362 87.2753 113.886C87.5571 115.013 88.0402 116.019 88.4427 117.106C88.8453 118.153 89.0466 119.28 88.8051 120.407C88.5635 121.454 88.2415 122.5 87.9999 123.587C87.7987 124.513 87.5974 125.52 87.8792 126.445C88.161 127.331 88.8051 128.096 89.2881 128.901C90.2543 130.592 90.6971 132.444 90.7373 134.376C90.7776 135.262 90.7373 136.187 90.5361 137.033C90.4153 137.556 90.2543 138.2 89.8115 138.563C89.6102 138.724 89.2881 138.764 89.0868 138.522C88.9258 138.281 89.0868 137.959 89.1271 137.717C89.3284 136.67 89.3686 135.624 89.3284 134.577C89.2881 133.571 89.1674 132.564 88.8453 131.598C88.5635 130.713 88.0804 129.907 87.5571 129.102C87.0338 128.297 86.4702 127.492 86.2287 126.566C85.9871 125.6 86.1884 124.634 86.4299 123.668C86.6715 122.661 87.0338 121.695 87.3961 120.729C87.7584 119.763 87.8792 118.877 87.6779 117.911C87.3961 115.939 86.3897 114.127 86.5105 112.074Z" fill="#82E59B"/>
<path d="M102.693 112.356C103.418 112.597 104.183 112.96 104.706 113.523C105.833 114.731 105.471 116.542 104.867 117.871C104.183 119.32 103.176 120.729 103.78 122.38C104.022 123.144 104.464 123.829 104.746 124.594C105.028 125.399 105.109 126.244 105.109 127.09C105.068 128.66 104.666 130.31 103.539 131.477C102.532 132.484 100.922 133.088 100.56 134.577C100.157 136.147 101.123 137.878 101.526 139.327C102.009 140.978 102.25 142.95 101.687 144.601C101.163 146.171 99.7948 147.419 98.2651 148.143C95.2056 149.552 91.7033 149.351 88.6439 147.982C87.3557 147.419 85.9064 146.694 85.1013 145.487C84.8598 145.124 84.7793 144.802 84.739 144.359C84.6988 143.957 84.5377 143.675 84.3365 143.313C83.9339 142.548 83.7729 141.743 83.8131 140.897C83.9339 137.637 86.3493 134.617 89.0062 132.846C89.6503 132.444 90.1736 132.001 90.3346 131.236C90.4554 130.431 90.2944 129.585 90.1736 128.78C90.0528 127.975 89.8515 127.21 89.8515 126.405C89.8515 125.56 90.0528 124.795 90.4554 124.07C91.2202 122.702 92.4279 121.655 93.7966 120.85C95.1251 120.125 96.5743 119.481 97.2587 118.032C97.943 116.502 97.5404 114.65 98.6676 113.282C99.1507 112.718 99.7948 112.195 100.56 112.074C101.204 111.953 101.969 112.155 102.693 112.356Z" fill="#82E59B"/>
<path d="M101.163 114.932C101.284 114.731 101.566 114.731 101.727 114.851C101.928 115.053 101.848 115.254 101.727 115.496C101.405 116.14 101.244 116.824 101.123 117.508C100.882 118.958 100.922 120.447 100.841 121.937C100.761 123.426 100.399 124.795 99.5129 126.043C98.7078 127.17 97.7417 128.216 96.9366 129.384C96.212 130.39 95.4471 131.437 95.3263 132.725C95.2056 133.933 95.5679 135.141 95.6886 136.348C95.9302 138.844 95.4471 141.3 94.5212 143.594C94.0784 144.681 93.5953 145.728 92.8707 146.654C92.4681 147.177 91.9046 147.902 91.2202 148.103C90.8982 148.183 90.4553 148.063 90.4151 147.7C90.3346 147.338 90.6969 147.016 90.8579 146.775C91.663 145.688 92.2669 144.44 92.7499 143.192C93.233 141.984 93.5953 140.696 93.7563 139.408C93.8771 138.2 93.7966 136.992 93.5551 135.785C93.3538 134.537 93.1122 133.329 93.3538 132.081C93.5953 130.833 94.3199 129.746 95.0848 128.78C95.9302 127.733 96.8158 126.767 97.7417 125.801C98.6273 124.875 99.2312 123.869 99.5532 122.581C100.157 119.964 99.9558 117.267 101.163 114.932Z" fill="#137F3A"/>
<path d="M79.8277 121.614C81.0757 121.614 82.1223 122.258 82.8872 123.184C83.7728 124.271 83.9339 125.6 84.2962 126.888C84.4572 127.532 84.7792 128.176 85.3026 128.619C85.7856 129.021 86.3895 129.102 86.9933 129.303C88.1608 129.706 89.0866 130.632 89.4489 131.759C89.8918 133.127 89.4087 134.536 89.4892 135.945C89.5697 137.234 90.8176 138.039 91.8643 138.643C92.8707 139.246 93.7966 139.81 94.0784 141.018C94.4004 142.266 94.5212 143.675 94.0784 144.923C93.3538 147.016 91.1397 147.901 89.0464 148.062C87.1543 148.183 84.739 147.982 83.2898 146.613C82.4444 145.768 82.1223 144.641 82.1626 143.473C82.2029 142.749 82.3236 142.064 82.5249 141.34C82.6457 140.857 82.8469 140.374 82.8872 139.85C83.008 138.482 81.76 138.24 80.7134 137.878C79.3447 137.395 78.4188 136.509 77.7747 135.261C77.1708 134.094 76.8891 132.805 77.2916 131.558C77.4929 130.913 77.8149 130.31 78.298 129.826C78.4993 129.625 78.7811 129.424 78.9824 129.182C79.1434 128.981 79.1031 128.699 79.0629 128.418C78.7811 127.25 77.9357 126.284 77.6539 125.117C77.3721 124.07 77.5332 122.741 78.4993 122.057C78.8213 121.735 79.3447 121.614 79.8277 121.614Z" fill="#82E59B"/>
<path d="M81.5187 124.674C82.8069 126.043 83.1692 127.935 83.29 129.746C83.3302 130.753 83.29 131.839 83.5718 132.846C83.8133 133.691 84.4171 134.335 85.0612 134.939C86.3092 136.187 87.7181 137.435 88.0804 139.206C88.2817 140.253 88.1609 141.34 88.4427 142.387C88.7245 143.312 89.1673 144.238 89.7712 145.043C90.2543 145.688 90.8581 146.171 91.3412 146.774C91.5022 146.976 91.7035 147.217 91.6632 147.499C91.5827 147.781 91.2204 147.902 90.9386 147.861C90.2945 147.741 89.7712 147.137 89.3686 146.694C88.7648 146.05 88.2415 145.365 87.8389 144.56C87.3558 143.715 86.9935 142.789 86.8325 141.823C86.6715 140.817 86.752 139.77 86.3494 138.804C85.7053 137.193 84.1756 136.227 83.0484 134.939C81.6395 133.369 81.8407 131.397 82.0018 129.464C82.0823 128.418 82.1628 127.21 81.6395 126.204C81.4382 125.841 80.9954 125.479 80.8746 125.076C80.7538 124.714 81.1966 124.312 81.5187 124.674Z" fill="#137F3A"/>
<path d="M82.8872 147.458C82.8872 155.389 84.1754 159.535 91.0189 159.535C97.8625 159.535 99.1507 155.389 99.1507 147.458H82.8872Z" fill="#0A54BF"/>
<path d="M239.523 85.4634L228.413 124.512L220.281 153.295H214.363L222.978 85.4634H239.523Z" fill="#137F3A"/>
<path d="M242.502 85.4634C242.744 105.591 243.63 116.581 243.911 118.393C244.193 120.204 248.259 131.879 256.19 153.295H250.071C240.007 132.724 234.371 121.09 233.203 118.393C232.036 115.696 228.413 104.706 222.978 85.4634H242.502Z" fill="#82E59B"/>
<path d="M256.713 158.85L256.391 152.409H249.95C246.89 154.543 242.905 156.314 237.994 157.642V158.89H249.668L253.653 158.287V158.89H256.713V158.85Z" fill="#073099"/>
<path d="M221.126 158.85L220.804 152.409H214.363C211.304 154.543 207.318 156.314 202.407 157.642V158.89H214.081L218.067 158.287V158.89H221.126V158.85Z" fill="#073099"/>
<path d="M231.835 40.2163C233.244 38.5658 234.21 36.5127 234.049 34.2584C233.606 27.6966 224.428 29.1459 222.657 32.4468C220.885 35.7478 221.087 44.1614 223.381 44.7652C224.307 45.0067 226.239 44.4029 228.252 43.2355L227.004 52.0515H234.371L231.835 40.2163Z" fill="#B28B67"/>
<path d="M227.89 34.9832C227.608 38.9283 226.843 40.8606 225.636 40.8606C223.824 40.8606 222.294 39.6932 221.489 39.6932C220.926 39.6932 221.046 40.4178 221.409 40.9411C221.731 41.3839 223.26 41.8267 223.26 42.5111C223.26 43.1954 222.053 42.6721 222.053 43.0747C222.053 43.759 221.851 45.007 223.019 45.007C224.227 45.007 227.608 44.5641 228.212 42.7929C228.574 41.6657 228.816 39.2906 228.937 35.7078C229.017 35.7078 229.098 35.7078 229.138 35.7078C230.144 35.7078 230.99 36.5129 230.99 37.5596C230.99 38.0829 230.788 38.5257 230.426 38.888C230.869 39.4919 231.312 40.136 231.875 40.7801C233.928 39.5321 235.78 35.9493 233.767 32.4471C233.204 30.7563 231.634 29.8304 230.144 29.4279C228.937 28.9045 227.689 28.8643 226.642 29.1863C224.589 29.3474 222.737 29.9914 222.214 30.3538C222.214 32.3263 222.576 32.8899 225.837 32.8496C226.642 33.2924 227.246 34.0171 227.89 34.9832Z" fill="#0421B1"/>
<path d="M222.334 35.3049C222.012 36.2711 220.724 36.7542 220.281 37.5995C219.839 38.4852 221.127 39.25 221.771 39.6928C221.811 39.6123 221.851 39.4916 221.892 39.4111" fill="#B28B67"/>
<path d="M225.434 35.2653C225.394 35.064 225.233 34.8627 225.072 34.7419C224.911 34.6212 224.71 34.5004 224.508 34.4601C224.307 34.4199 224.106 34.3394 223.864 34.3796C223.743 34.3796 223.623 34.4199 223.542 34.5004C223.421 34.5809 223.381 34.7017 223.381 34.7822C223.542 34.6212 223.703 34.7017 223.864 34.7017C224.025 34.7419 224.186 34.7822 224.347 34.8627C224.508 34.903 224.669 34.9835 224.871 35.0237C225.072 35.1042 225.233 35.1445 225.434 35.2653Z" fill="#0421B1"/>
<path d="M223.583 36.1106C223.783 36.1106 223.945 35.9484 223.945 35.7483C223.945 35.5482 223.783 35.386 223.583 35.386C223.382 35.386 223.22 35.5482 223.22 35.7483C223.22 35.9484 223.382 36.1106 223.583 36.1106Z" fill="#0421B1"/>
<path d="M216.779 63.0812L209.05 55.9961C204.984 54.8689 203.092 54.0638 203.454 53.5405C203.978 52.7756 205.065 53.4197 205.507 52.9367C205.95 52.4536 205.105 50.8031 204.26 49.3136C203.414 47.7839 204.3 47.9046 204.863 48.1462C206.594 49.3136 208.325 50.9641 210.097 53.0574L220.765 58.8946L216.779 63.0812ZM203.776 68.4755C201.764 67.0263 199.872 66.0601 198.141 65.5771C194.799 64.6512 193.471 63.9266 191.861 61.8735C190.975 60.7463 190.25 58.5322 191.096 57.8076C191.659 57.3246 194.92 59.7399 196.249 60.0217C197.577 60.3035 196.369 57.1233 197.054 57.4453C197.98 57.4453 198.744 58.7335 199.429 61.2294L204.098 63.8058L203.776 68.4755Z" fill="#997659"/>
<path d="M225.917 57.5665C222.174 57.5263 217.222 56.7211 211.908 53.3799L209.815 58.0496C213.478 61.6726 218.631 64.6918 223.14 64.5308C226.682 64.41 228.494 60.1026 225.917 57.5665Z" fill="#0A54BF"/>
<path d="M220.885 65.0136C216.94 66.02 210.258 64.8526 200.958 61.5113C198.664 66.3018 197.577 69.7235 197.738 71.7363C205.749 75.923 212.592 77.7747 218.269 77.8955C218.108 81.2368 218.51 84.4572 219.879 87.3557C222.697 93.3538 239.202 87.7985 244.757 88.8854C248.219 77.6137 241.496 73.0245 241.496 65.7784C241.496 57.8883 235.136 45.6907 234.21 45.6907H225.676C225.193 51.7693 222.818 58.4518 220.885 65.0136Z" fill="#428EDD"/>
<path d="M154.744 22.9459C161.081 22.9459 166.217 17.8093 166.217 11.473C166.217 5.13663 161.081 0 154.744 0C148.408 0 143.271 5.13663 143.271 11.473C143.271 17.8093 148.408 22.9459 154.744 22.9459Z" fill="#009245"/>
<path d="M148.746 10.9901L152.409 15.7806L161.829 6.88403" stroke="white" stroke-width="5.6752" stroke-miterlimit="10"/>
<path d="M34.4189 60.1432C32.6878 58.6537 31.3997 56.6811 31.1984 54.306C30.675 47.4223 40.3768 47.5028 42.7116 50.683C45.0465 53.8632 46.1334 62.5988 43.8388 63.5649C42.9129 63.9675 40.8196 63.6454 38.5652 62.7196L41.2221 71.6564L33.5735 72.7836L34.4189 60.1432Z" fill="#B28B67"/>
<path d="M43.6779 52.1314C43.5169 51.6886 43.2753 51.2458 43.074 50.8432C42.7922 50.3199 42.4299 49.8771 42.0676 49.4745C41.343 48.7096 40.4977 48.0253 39.612 47.5019C37.9615 46.5358 36.0292 46.1332 34.2177 46.6163C33.3321 46.8579 32.4867 47.3409 31.8023 48.0655C31.1985 48.7096 30.6349 49.555 29.7493 49.7563C28.7831 49.9576 27.7767 49.233 26.9314 48.8304C25.9652 48.3473 24.9588 48.0655 23.9122 48.0655C22.1409 48.0253 20.6112 48.8707 19.645 50.4406C18.5984 52.1314 18.0348 54.4662 19.1619 56.318C19.3632 56.6803 19.6048 56.9621 19.9268 57.1634C20.2086 57.3647 20.6514 57.566 20.8124 57.9283C20.9735 58.3308 20.7319 58.8944 20.6514 59.2567C20.5306 59.8203 20.4904 60.3839 20.6112 60.9072C20.8527 61.8331 21.5371 62.6382 22.2617 63.1213C22.9863 63.6446 23.7914 63.8862 24.6368 63.9264C25.2004 63.9667 25.7639 63.9264 26.3275 63.8056C26.6093 63.7251 26.8509 63.6446 27.0924 63.5239C27.3339 63.4433 27.4949 63.4836 27.7365 63.5641C28.8637 64.0874 29.9908 64.1679 31.1985 63.8862C32.2049 63.6446 33.2918 63.2421 34.0164 62.4369C34.8215 61.5513 34.6203 60.5047 34.258 59.3775C34.4995 59.458 35.1436 59.4177 34.7008 59.0554C34.5398 58.8944 34.2177 58.8542 34.0164 58.8139C33.7749 58.7334 33.5334 58.6126 33.3321 58.4113C32.527 57.727 32.9698 55.996 33.8151 55.5934C35.0631 54.9896 35.6267 56.8011 36.6331 57.1231C37.1967 57.3244 37.72 56.8413 38.042 56.4388C38.4848 55.8349 38.7666 55.1103 38.9679 54.3857C39.1289 53.7819 39.29 53.1781 39.4913 52.5742C39.5718 52.2924 39.8938 51.4873 39.6523 51.2055C40.5379 50.8835 41.6651 51.125 42.5105 51.4873C42.8728 51.6483 43.1546 51.8496 43.3961 52.1717C43.4363 52.2522 43.5571 52.4534 43.6779 52.4534C43.7986 52.4534 43.6779 52.2119 43.6779 52.1314Z" fill="#0421B1"/>
<path d="M44.5637 55.7957C44.7247 56.6813 45.8519 57.2851 46.1337 58.05C46.4557 58.8954 45.2078 59.4187 44.604 59.7407C44.5637 59.6602 44.5234 59.5797 44.5234 59.4992" fill="#B28B67"/>
<path d="M41.8262 55.3928C41.8664 55.1915 42.0677 55.0708 42.1885 54.9903C42.3495 54.9097 42.5105 54.8292 42.7118 54.789C42.9131 54.7487 43.0741 54.7487 43.2754 54.789C43.3559 54.8292 43.4767 54.8695 43.5572 54.95C43.6377 55.0305 43.6779 55.1513 43.6779 55.2318C43.5572 55.0708 43.3962 55.111 43.2754 55.111C43.1144 55.111 42.9533 55.1513 42.8326 55.1915C42.6715 55.2318 42.5105 55.2721 42.3495 55.2721C42.1482 55.3123 41.9872 55.3123 41.8262 55.3928Z" fill="#0421B1"/>
<path d="M43.8791 61.1494C43.9193 61.1494 43.9596 61.1494 43.9998 61.1494C44.3621 61.0688 44.6439 60.9078 45.0062 60.7871C44.6842 60.7871 44.4024 60.8273 44.0803 60.8676C43.4363 60.9481 42.9129 60.8273 42.3091 60.7065C42.3493 60.9481 42.7116 61.2299 42.9129 61.2701C43.557 61.4311 44.2011 61.6727 44.9257 61.5922C44.6037 61.4714 44.2816 61.3506 43.9998 61.2299C43.9193 61.1494 43.9193 61.1494 43.8791 61.1494Z" fill="#0421B1"/>
<path d="M43.7255 56.0793C43.7465 55.9027 43.6204 55.7425 43.4438 55.7215C43.2672 55.7005 43.1069 55.8266 43.0859 56.0032C43.0649 56.1798 43.191 56.34 43.3676 56.3611C43.5443 56.3821 43.7045 56.256 43.7255 56.0793Z" fill="#0421B1"/>
<path d="M28.5818 106.961L41.3832 151.162L47.4216 184.333H53.46L47.4216 106.961H28.5818Z" fill="#997659"/>
<path d="M22.8254 106.961C23.711 129.907 23.3487 142.427 23.1474 144.52C22.9461 146.613 21.819 160.582 14.0496 185.017H20.3295C30.6351 161.548 34.2178 147.62 35.3853 144.52C36.5527 141.42 40.055 128.941 45.1272 106.961H22.8254Z" fill="#B28B67"/>
<path d="M28.3003 106.961C31.6415 122.178 37.3982 146.412 45.6104 179.744H54.4667C55.1108 145.526 52.3332 123.023 47.5427 106.961H28.3003Z" fill="#F8C92C"/>
<path d="M22.7448 106.961C23.6304 129.907 21.3359 152.531 14.3313 180.106H23.7915C34.0568 156.999 41.4236 134.496 46.4556 106.961H22.7448Z" fill="#FCBF35"/>
<path d="M13.1638 189.567L13.5261 183.971C15.5792 184.575 18.1153 184.333 21.1748 183.287C24.4758 185.621 28.6221 187.191 33.6139 188.077C33.9762 188.158 34.258 188.52 34.1775 188.882C34.1775 188.922 34.1775 188.922 34.1775 188.963L33.6944 190.653H21.1748H13.8884L13.1638 189.567Z" fill="#073099"/>
<path d="M46.0532 189.567L46.4155 183.971C48.4686 184.575 51.0047 184.333 54.0642 183.287C57.3652 185.621 61.5115 187.191 66.5033 188.077C66.8656 188.158 67.1474 188.52 67.0669 188.882C67.0669 188.922 67.0669 188.922 67.0669 188.963L66.5838 190.653H54.0642H46.7778L46.0532 189.567Z" fill="#073099"/>
<path d="M58.4919 64.7728L65.4965 56.8021C69.4416 55.3127 71.2531 54.3063 70.8505 53.7829C70.2467 53.0181 69.2403 53.7829 68.7572 53.3401C68.2742 52.8973 68.9585 51.126 69.6429 49.4755C70.3272 47.825 69.4416 48.0263 68.9585 48.3081C67.3483 49.6366 65.7783 51.4883 64.2083 53.8232L54.1443 60.7472L58.4919 64.7728ZM55.352 73.8304C57.083 72.6228 59.4983 71.9384 61.4709 71.093C63.5239 70.2074 65.6575 69.4425 67.7106 68.5971C69.2 67.9933 70.0454 66.1818 71.5349 65.6987C72.1387 65.4974 72.9841 64.8936 72.7023 65.8597C72.4205 66.8259 72.179 66.8661 73.1049 67.0674C74.0308 67.2687 78.2174 66.3428 79.4653 66.6649C80.3107 66.9064 75.1982 69.04 70.0857 70.3282L63.4837 75.5212C60.8268 74.9979 57.8076 74.7563 55.352 73.8304Z" fill="#B28B67"/>
<path d="M32.9295 79.3051C44.2012 78.5805 54.3457 74.7561 66.181 67.9126L68.7574 73.7497C59.3375 83.1696 50.8837 90.1742 40.9807 89.2081C38.5251 88.9263 34.6203 84.1358 30.8362 82.9281L32.9295 79.3051Z" fill="#073099"/>
<path d="M24.355 107.485H47.9853C42.6312 91.1407 39.8938 79.9495 39.773 73.8709C39.773 73.5488 39.2095 73.0255 38.9277 73.0658C37.0759 73.5891 35.1033 73.3878 32.9698 72.4619C27.4144 81.5195 25.4821 92.6302 24.355 107.485Z" fill="#F77B0B"/>
<path d="M35.6267 67.6714C37.3175 67.0273 39.129 66.7857 40.86 66.3429C43.5572 65.6988 46.1336 63.9276 48.5087 62.5186C49.7969 61.7135 60.988 54.0246 61.3906 54.4271L67.1472 59.902C59.0558 69.0401 49.8371 76.1654 40.4172 84.7802C40.6185 100.842 42.4703 115.053 34.3385 115.053C30.4337 115.053 26.2471 115.053 21.7384 115.053C19.9269 102.815 23.1474 89.2889 27.8171 77.9769C28.3404 76.7692 28.8637 75.5213 29.387 74.3136C30.3532 72.18 31.6011 70.0867 33.5737 68.718C34.2178 68.2752 34.9021 67.9532 35.6267 67.6714Z" fill="#073099"/>
<g opacity="0.98">
<path opacity="0.98" d="M157.442 112.959C159.575 112.838 162.192 114.086 162.393 116.38C162.554 118.071 162.514 119.722 162.755 121.412C162.957 122.741 163.4 124.029 163.963 125.237C164.527 126.404 165.694 127.411 166.016 128.659C166.217 129.464 166.097 130.591 165.815 131.356C165.493 132.322 165.654 132.241 166.298 133.006C167.586 134.576 168.713 136.146 169.518 138.038C170.686 140.735 171.451 143.835 171.008 146.774C170.968 147.136 170.887 148.465 170.364 148.585C169.8 148.706 170.042 147.941 170.082 147.659C170.283 146.089 170.444 144.721 170.203 143.11C169.277 136.951 164.849 132.845 161.991 127.612C161.83 127.33 161.508 126.686 161.266 126.283C160.904 125.599 160.541 124.351 160.018 123.828C159.092 122.902 159.938 124.794 160.139 125.116C160.38 125.559 160.622 126.042 160.863 126.444C161.95 128.296 163.158 130.309 164.285 132.201C159.454 133.288 156.033 127.491 154.745 123.667C153.738 120.607 152.45 113.24 157.442 112.959Z" fill="#82E59B"/>
<path opacity="0.98" d="M185.863 107.122C182.32 107.404 180.025 109.738 178.979 112.999C178.415 114.77 178.335 116.582 178.013 118.393C177.53 121.131 176.523 123.184 174.51 125.116C173.906 125.72 173.423 126.324 173.101 127.008C172.457 127.652 171.894 128.417 171.491 129.343C170.968 130.51 170.807 131.919 171.411 133.087C171.572 133.409 171.974 134.013 172.417 134.295C170.847 137.676 169.961 141.38 170.042 145.083C170.082 147.297 170.203 149.552 170.324 151.766C170.364 152.37 170.565 153.336 170.847 152.329C171.129 151.403 170.767 149.954 170.767 149.028C170.606 144.359 170.485 140.091 172.417 135.744C172.618 135.301 172.82 134.818 173.061 134.375C173.061 134.375 173.101 134.375 173.101 134.335C173.101 134.335 173.101 134.335 173.142 134.335C173.142 134.295 173.182 134.295 173.182 134.254C173.262 134.174 173.303 134.093 173.343 134.013C173.504 133.771 173.705 133.489 173.705 133.328C174.913 131.396 176.241 129.544 177.65 127.733C177.65 127.733 179.18 125.68 178.939 126.807C178.818 127.371 177.691 128.417 177.248 128.981C176.241 130.269 175.074 131.919 174.108 133.53C173.987 133.61 173.786 133.973 173.665 134.254C173.584 134.375 173.504 134.536 173.464 134.657C176.926 135.784 179.623 133.489 181.434 130.833C181.998 130.108 182.562 129.343 183.286 128.779C184.494 127.813 185.742 127.612 187.151 127.169C190.975 125.841 192.626 120.889 193.109 117.226C193.712 113.08 190.854 106.719 185.863 107.122Z" fill="#137F3A"/>
<path opacity="0.98" d="M178.858 95.4877C175.235 99.2718 173.464 104.545 172.055 109.457C170.485 114.972 169.478 120.567 169.438 126.324C169.398 130.108 169.317 133.892 169.519 137.636C169.599 138.964 169.72 140.293 169.961 141.621C169.961 141.742 170.444 144.681 170.887 143.996C171.129 143.594 170.404 140.937 170.364 140.494C170.042 137.998 169.961 135.462 170.002 132.926C170.042 128.779 169.921 124.633 170.324 120.487C170.404 119.883 170.444 119.239 170.565 118.635C170.726 117.991 170.525 118.273 171.048 118.031C171.531 117.79 172.135 117.83 172.659 117.508C174.671 116.26 175.718 113.12 176.523 111.027C177.449 108.651 178.013 106.115 178.455 103.619C178.777 101.768 179.019 99.9562 179.14 98.1044C179.18 97.5005 179.18 96.8967 179.301 96.3331C179.341 96.1721 179.502 95.8903 179.462 95.7695C179.462 95.4877 179.26 95.3267 179.26 95.0449C179.14 95.2059 179.019 95.3267 178.858 95.4877Z" fill="#137F3A"/>
<path opacity="0.98" d="M159.012 145.928C159.012 152.208 164.084 157.28 170.364 157.28C176.644 157.28 181.716 152.208 181.716 145.928" fill="#073099"/>
<path opacity="0.98" d="M171.29 145.969H170.686C170.726 145.204 170.766 144.479 170.927 143.714C171.41 140.856 172.9 136.71 176.201 136.227C176.322 136.227 176.764 136.227 177.328 136.227C177.57 136.066 177.892 135.985 178.173 135.985C180.991 135.784 184.131 138.038 185.46 140.413C186.547 142.305 186.386 144.801 185.701 146.814C185.258 148.183 184.252 150.075 182.642 150.115C180.589 150.155 180.468 147.579 180.428 146.13C180.387 144.157 180.106 142.426 178.576 141.098C178.214 140.776 177.811 140.494 177.449 140.212C176.885 139.729 176.241 139.246 176.161 138.441C176.04 137.354 176.684 137.153 177.65 137.354C177.811 137.394 179.462 138.119 179.22 137.555C179.14 137.394 178.858 137.233 178.536 137.153C177.65 137.072 176.603 136.951 176.281 137.032C173.021 137.756 171.732 142.265 171.41 145.123C171.33 145.325 171.29 145.647 171.29 145.969Z" fill="#82E59B"/>
</g>
</svg>
