<svg width="339" height="522" viewBox="0 0 339 522" fill="none" xmlns="http://www.w3.org/2000/svg">
<rect width="2644" height="1467" transform="translate(-768 -490)" fill="white"/>
<path d="M341.89 127H-0.509766V523.3H341.89V127Z" fill="#B2DD80"/>
<path opacity="0.9" d="M341.99 0H-0.00976562V127.4H341.99V0Z" fill="#D6E3FC"/>
<path d="M71.1902 40.6003C74.7902 41.8003 75.8902 45.1003 75.8902 45.1003C75.8902 45.1003 79.3902 42.3003 85.9902 37.9003C92.5902 33.5003 110.69 32.7003 119.29 35.7003C127.89 38.8003 136.69 51.3003 136.69 51.3003C136.69 51.3003 139.09 49.4003 140.39 48.6003C141.69 47.7003 144.19 46.2003 147.89 48.8003C151.59 51.4003 152.69 56.2003 152.69 56.2003C152.69 56.2003 156.59 54.1003 158.89 53.9003C161.19 53.7003 163.39 54.2003 166.19 56.3003C168.99 58.4003 169.29 65.4003 169.29 65.4003C170.59 64.0003 174.39 62.8003 176.79 64.2003C179.19 65.6003 180.89 71.9003 180.89 71.9003C187.79 73.9003 211.09 77.5003 211.09 77.5003L-0.409787 77.7003C-0.409787 77.7003 -3.70979 74.7003 -0.709787 74.0003C-0.709787 74.0003 -5.90979 70.3003 -0.00978708 68.3003C-0.00978708 68.3003 4.59021 51.2003 13.3902 52.2003C22.1902 53.2003 20.2902 53.2003 20.2902 53.2003C20.2902 53.2003 19.5902 40.2003 27.0902 35.6003C34.5902 31.0003 41.4902 32.3003 47.0902 33.6003C52.6902 34.9003 62.4902 45.7003 62.4902 45.7003C62.4902 45.7003 66.3902 39.1003 71.1902 40.6003Z" fill="white"/>
<path d="M324.39 31.1999C329.582 31.1999 333.79 26.9914 333.79 21.7999C333.79 16.6084 329.582 12.3999 324.39 12.3999C319.199 12.3999 314.99 16.6084 314.99 21.7999C314.99 26.9914 319.199 31.1999 324.39 31.1999Z" fill="#F7B237"/>
<path d="M282.09 87.3999H271.19V130.2H282.09V87.3999Z" fill="#55A6CE"/>
<path d="M286.89 87.3999H282.09V130.2H286.89V87.3999Z" fill="#043E75"/>
<path d="M280.391 90.1997H279.291V89.1997H280.391V90.1997Z" fill="#F0F0F0"/>
<path d="M279.291 92.4995H280.391V93.5995H279.291V92.4995Z" fill="#F0F0F0"/>
<path d="M279.291 95.8998L280.391 95.7998V96.8998H279.291V95.8998Z" fill="#F0F0F0"/>
<path d="M279.291 99.1997H280.391V100.2H279.291V99.1997Z" fill="#F0F0F0"/>
<path d="M279.291 102.5H280.391V103.5H279.291V102.5Z" fill="#F0F0F0"/>
<path d="M279.291 105.8H280.391V106.9H279.291V105.8Z" fill="#F0F0F0"/>
<path d="M279.291 109.2H280.391V110.2H279.291V109.2Z" fill="#F0F0F0"/>
<path d="M279.291 112.5H280.391V113.5H279.291V112.5Z" fill="#F0F0F0"/>
<path d="M279.291 115.8H280.391V116.9H279.291V115.8Z" fill="#F0F0F0"/>
<path d="M279.291 119.2H280.391V120.2H279.291V119.2Z" fill="#F0F0F0"/>
<path d="M280.391 123.5H279.291V122.5H280.391V123.5Z" fill="#F0F0F0"/>
<path d="M273.891 90.1997H272.791V89.1997H273.891V90.1997Z" fill="#F0F0F0"/>
<path d="M272.791 92.4995H273.891V93.5995H272.791V92.4995Z" fill="#F0F0F0"/>
<path d="M272.791 95.8998L273.891 95.7998V96.8998H272.791V95.8998Z" fill="#F0F0F0"/>
<path d="M272.791 99.1997H273.891V100.2H272.791V99.1997Z" fill="#F0F0F0"/>
<path d="M272.791 102.5H273.891V103.5H272.791V102.5Z" fill="#F0F0F0"/>
<path d="M272.791 105.8H273.891V106.9H272.791V105.8Z" fill="#F0F0F0"/>
<path d="M272.791 109.2H273.891V110.2H272.791V109.2Z" fill="#F0F0F0"/>
<path d="M272.791 112.5H273.891V113.5H272.791V112.5Z" fill="#F0F0F0"/>
<path d="M272.791 115.8H273.891V116.9H272.791V115.8Z" fill="#F0F0F0"/>
<path d="M272.791 119.2H273.891V120.2H272.791V119.2Z" fill="#F0F0F0"/>
<path d="M273.891 123.5H272.791V122.5H273.891V123.5Z" fill="#F0F0F0"/>
<path d="M277.19 90.1997H276.09V89.1997H277.19V90.1997Z" fill="#F0F0F0"/>
<path d="M276.09 92.4995H277.19V93.4995H276.09V92.4995Z" fill="#F0F0F0"/>
<path d="M276.09 95.7998H277.19V96.8998H276.09V95.7998Z" fill="#F0F0F0"/>
<path d="M276.09 99.0996H277.19V100.2H276.09V99.0996Z" fill="#F0F0F0"/>
<path d="M276.09 102.5H277.19V103.5H276.09V102.5Z" fill="#F0F0F0"/>
<path d="M276.09 105.8H277.19V106.8H276.09V105.8Z" fill="#F0F0F0"/>
<path d="M276.09 109.1H277.19V110.2H276.09V109.1Z" fill="#F0F0F0"/>
<path d="M276.09 112.5H277.19V113.5H276.09V112.5Z" fill="#F0F0F0"/>
<path d="M276.09 115.8H277.19V116.8H276.09V115.8Z" fill="#F0F0F0"/>
<path d="M276.09 119.1H277.19V120.2H276.09V119.1Z" fill="#F0F0F0"/>
<path d="M277.19 123.5H276.09V122.5H277.19V123.5Z" fill="#F0F0F0"/>
<path d="M271.69 113.5H252.89V133.2H271.89L271.69 113.5Z" fill="#55A6CE"/>
<path d="M278.09 107L271.69 113.5L271.89 133.2H284.39V113.3L278.09 107Z" fill="#1174BA"/>
<path d="M278.09 107H259.39L252.89 113.5H271.69L278.09 107Z" fill="#F77B0B"/>
<path d="M257.99 115.7H255.19V120.5H257.99V115.7Z" fill="white"/>
<path d="M269.39 115.7H266.59V120.5H269.39V115.7Z" fill="white"/>
<path d="M265.591 115.8H262.791V120.6H265.591V115.8Z" fill="white"/>
<path d="M261.79 115.7H258.99V120.5H261.79V115.7Z" fill="white"/>
<path d="M159.191 123.7H140.391V135.5H159.191V123.7Z" fill="#043E75"/>
<path d="M153.591 118.1H134.791L140.391 123.7H159.191L153.591 118.1Z" fill="#F7B237"/>
<path d="M132.291 135.3V120.5L134.791 118.1L140.391 123.7V135.4L132.291 135.3Z" fill="#1174BA"/>
<path d="M144.591 125.3H142.991V127.8H144.591V125.3Z" fill="#F0F0F0"/>
<path d="M146.991 125.3H145.391V127.8H146.991V125.3Z" fill="#F0F0F0"/>
<path d="M149.491 125.3H147.891V127.8H149.491V125.3Z" fill="#F0F0F0"/>
<path d="M151.891 125.3H150.291V127.8H151.891V125.3Z" fill="#F0F0F0"/>
<path d="M138.291 116.7L139.691 118.1H142.591L141.191 116.7H138.291Z" fill="#55A6CE"/>
<path d="M138.291 116.7V118.8L139.691 120.3V118.1L138.291 116.7Z" fill="#1174BA"/>
<path d="M142.49 118.1H139.69V120.3H142.49V118.1Z" fill="#043E75"/>
<path d="M335.09 81.1001H324.19V133H335.09V81.1001Z" fill="#55A6CE"/>
<path d="M341.79 81.1001H335.09V133H341.79V81.1001Z" fill="#043E75"/>
<path d="M333.791 84.4002H325.991V83.2002H333.691L333.791 84.4002Z" fill="#F0F0F0"/>
<path d="M325.991 87.2002H333.691L333.791 88.5002H325.991V87.2002Z" fill="#F0F0F0"/>
<path d="M325.991 91.2002H333.691L333.791 92.5002H325.991V91.2002Z" fill="#F0F0F0"/>
<path d="M325.991 95.3003H333.591L333.691 96.5003H325.991V95.3003Z" fill="#F0F0F0"/>
<path d="M325.991 99.3003H333.591L333.691 100.6H325.991V99.3003Z" fill="#F0F0F0"/>
<path d="M325.991 103.4H333.591L333.691 104.6H325.991V103.4Z" fill="#F0F0F0"/>
<path d="M325.891 107.4H333.591L333.691 108.7H325.891V107.4Z" fill="#F0F0F0"/>
<path d="M325.891 111.4H333.591L333.691 112.7H325.891V111.4Z" fill="#F0F0F0"/>
<path d="M325.891 115.5H333.591L333.691 116.7H325.891V115.5Z" fill="#F0F0F0"/>
<path d="M325.891 119.5H333.591L333.691 120.8H325.891V119.5Z" fill="#F0F0F0"/>
<path d="M333.691 124.8H325.891V123.6H333.591L333.691 124.8Z" fill="#F0F0F0"/>
<path d="M338.891 84.5002H336.891V83.2002H338.891V84.5002Z" fill="#F0F0F0"/>
<path d="M336.891 87.3003H338.891V88.5003H336.891V87.3003Z" fill="#F0F0F0"/>
<path d="M336.891 91.3003H338.891V92.6003H336.891V91.3003Z" fill="#F0F0F0"/>
<path d="M336.891 95.4004H338.891V96.6004H336.891V95.4004Z" fill="#F0F0F0"/>
<path d="M336.891 99.4004H338.891V100.7H336.891V99.4004Z" fill="#F0F0F0"/>
<path d="M336.891 103.4H338.891V104.7H336.891V103.4Z" fill="#F0F0F0"/>
<path d="M336.891 107.5H338.891V108.7H336.891V107.5Z" fill="#F0F0F0"/>
<path d="M336.891 111.5H338.891V112.8H336.891V111.5Z" fill="#F0F0F0"/>
<path d="M336.891 115.6H338.891V116.8H336.891V115.6Z" fill="#F0F0F0"/>
<path d="M336.891 119.6H338.891V120.9H336.891V119.6Z" fill="#F0F0F0"/>
<path d="M338.891 124.9H336.891V123.6H338.891V124.9Z" fill="#F0F0F0"/>
<path d="M277.99 112.5V133.5H301.79V122.3H297.69V118.8H293.89V112.6L277.99 112.5Z" fill="#55A6CE"/>
<path d="M282.89 114.2H279.69V116.2H282.89V114.2Z" fill="#F0F0F0"/>
<path d="M292.19 114.2H288.99V116.2H292.19V114.2Z" fill="#F0F0F0"/>
<path d="M287.49 114.2H284.29V116.2H287.49V114.2Z" fill="#F0F0F0"/>
<path d="M299.29 107.1H283.39L277.99 112.5L293.89 112.6L299.39 107.1" fill="#F7B237"/>
<path d="M301.69 109.5L299.39 107.1L293.89 112.6V118.8H297.69V122.4H301.79V114.3L301.69 109.5Z" fill="#043E75"/>
<path d="M201.39 135.3V128.3L193.69 120.6L188.19 126.1V135.3H201.39Z" fill="#55A6CE"/>
<path d="M193.69 120.6H206.69L214.39 128.3H201.39L193.69 120.6Z" fill="#F77B0B"/>
<path d="M201.391 128.3V135.3H214.391V128.3H201.391Z" fill="#043E75"/>
<path d="M195.39 129H192.19V135.3H195.39V129Z" fill="#F0F0F0"/>
<path d="M243.591 112C242.791 111 242.691 109.3 243.091 108.4C243.491 107.5 245.191 107.5 245.191 107.5C245.191 107.5 244.991 103.8 247.291 104.2C249.591 104.6 248.491 109.9 248.491 109.9C248.491 109.9 250.791 110.5 250.691 113.2C250.591 115.8 249.091 116.3 249.091 116.3C249.091 116.3 251.691 117.6 250.891 120.6C250.391 122.6 249.191 124.7 246.891 124.8C245.491 124.9 243.991 124.2 243.091 123.1C242.191 122.1 241.591 120.7 241.691 119.4C241.791 118.1 242.591 117.1 243.391 116.1L243.491 116C243.491 116 243.491 115.9 243.391 115.9C242.991 115.5 242.291 115.4 242.391 114.2C242.091 112.5 243.591 112.1 243.591 112Z" fill="#1A894C"/>
<path d="M249.491 118L247.791 119.8L247.691 119.9V117.9L247.491 120L246.691 121L246.491 114.9L248.791 112.2L247.691 113.3V112.2L247.491 113.5L246.491 114.6L246.391 108.8V113.8V116.5L245.291 115.3L245.191 113.6V115.2L243.891 113.8L246.391 117V132.6L246.891 132.7L246.691 121.2L249.491 118Z" fill="#754C24"/>
<path d="M224.891 120.6C224.491 118.5 224.691 117 226.391 115.5C227.491 114.5 228.891 114.6 229.891 115.6C229.991 113.4 231.791 110.9 234.191 111.1C236.191 111.3 236.991 113.6 237.291 115.3C238.891 114.6 239.991 115.2 240.291 116.9C243.191 116.2 245.791 118.8 245.091 121.7C244.791 123.1 243.591 123.9 242.291 124C241.191 124.1 241.091 123.9 240.391 123.3C240.691 124.8 236.091 125 235.391 123.7C233.791 124.5 232.091 125.6 230.191 125.1C229.591 124.9 228.991 124.5 228.491 124.1C228.391 124 227.191 122.8 227.091 122.8C226.291 123.2 225.591 123.2 224.891 122.6C224.291 122 224.191 121.1 224.891 120.6Z" fill="#619E0A"/>
<path d="M237.991 121.8L241.791 121.3L238.191 121.5L241.091 118.5L237.291 122.2L237.091 119.7V122.4L233.891 125.7L233.691 116.9L235.291 114.9L233.691 116.7L233.591 114V122.7L228.991 118.9L230.291 120.1L228.391 121.1L230.391 120.2L233.591 123.1V140.8H234.091L233.891 126.2L237.991 121.8Z" fill="#754C24"/>
<path d="M341.59 266.4C333.99 263.7 324.69 261.5 316.69 260C302.89 257.5 288.39 258.2 274.99 262.1C265.49 253.4 270.29 238.4 279.59 229.4C287.49 221.8 298.09 217.8 305.89 210.3C321.49 195.4 328.29 173.1 327.49 151.9C327.19 144 324.69 131.9 317.29 127.2C316.39 126.6 309.39 127 305.09 127.1C311.29 130.9 312.09 140 312.39 146.6C312.79 156.1 310.89 166.9 307.09 175.6C305.09 180.1 302.39 184.4 299.19 188.1C295.89 191.9 292.09 194.6 288.29 197.7C281.39 203.1 273.79 207.9 265.99 211.9C255.49 217.2 245.19 224.8 242.49 235.2C239.59 246.4 246.19 258.6 241.69 269.4C238.99 276 235.09 277 228.09 280C226.09 272.1 221.89 264.3 214.69 258C207.49 251.7 197.89 247.9 188.29 244.9C169.09 238.9 148.79 235.3 128.39 234.5C114.69 233.9 100.19 234.4 88.1904 228.5C78.2904 223.6 71.4904 215.1 63.1904 208.3C45.3904 193.9 22.9904 187.6 -0.509603 192.5C-0.509603 196.6 -0.609603 200.6 -0.609603 204.7C17.6904 203.1 35.6904 202.9 46.7904 215.9C50.1904 219.9 52.0904 224.7 54.7904 229.1C60.6904 238.8 70.5904 246.5 82.0904 250.6C95.1904 255.2 109.79 255 123.79 256.5C143.49 258.6 162.69 264 179.99 272.4C184.39 274.5 186.99 278.9 187.29 283.3C187.79 290.8 178.69 292 171.09 295.3C160.29 300 153.89 310.7 152.59 321.3C151.29 331.9 154.09 342.6 157.59 352.8C159.69 358.9 161.89 365.8 158.39 371.5C154.29 378.2 144.39 379.8 135.79 380.5C89.3904 384.4 45.5904 384.8 -1.0096 384.5C-1.6096 396.6 -1.4096 409.4 -2.0096 421.5C-2.3096 427.5 -1.7096 432.5 -2.0096 438.5C-2.1096 441.3 -2.6096 441.7 -2.3096 444.5C-1.9096 448.4 -5.0096 449.8 -0.609603 449.7C25.9904 448.9 52.5904 447.8 79.0904 445.6C112.39 442.9 145.59 438.5 177.89 430.7C190.79 427.6 203.99 423.7 213.59 415.5C230.29 401.3 231.59 376.8 221.19 358.5C215.89 349.2 207.69 338.9 212.59 329.3C217.69 319.2 233.19 318.2 244.49 313.3C259.09 306.9 267.39 292.8 281.09 284.9C292.39 278.4 306.49 276.7 319.89 277.9C333.29 279.1 328.29 278 340.99 281.8" fill="#CEEFA3"/>
<path d="M67.4902 327C68.2902 337.7 118.79 369.2 119.09 370.1C119.19 370.5 113.99 382.9 103.39 407.3L107.79 409C124.09 383.1 131.79 368.8 130.89 366.1C129.69 362.2 116.59 349.2 91.6902 327.1L67.4902 327Z" fill="#B28B67"/>
<path d="M104.49 401.8L111.69 404.4C126.89 387.3 132.79 373.1 131.79 365.9C131.09 361.1 118.09 348.1 92.7902 327H66.9902C67.8902 351.8 114.69 370.1 115.29 371.2C115.89 372.3 109.69 382.6 104.49 401.8Z" fill="#930527"/>
<path d="M101.645 406.455C100.731 407.506 100.201 408.377 99.9956 408.941C99.722 409.693 99.4397 410.761 99.2086 412.273C100.054 412.581 107.76 415.385 122.231 420.652C123.513 418.884 123.607 417.748 122.36 417.081C121.113 416.414 120.114 415.944 119.336 415.448L110.334 406.851C110.18 406.689 109.864 406.68 109.702 406.834L108.428 408.286C107.002 408.405 105.959 408.345 105.207 408.071C104.644 407.866 103.901 407.276 102.944 406.396C102.636 406.071 102.098 406.088 101.645 406.455C101.739 406.49 101.645 406.455 101.645 406.455Z" fill="#191847"/>
<path d="M73.2904 327L50.7904 381L28.6904 426.6H33.8904L90.8904 327H73.2904Z" fill="#997659"/>
<path d="M28.3904 424.5C27.8904 425.8 27.6904 426.8 27.6904 427.4C27.6904 428.2 27.7904 429.3 28.0904 430.8C28.9904 430.8 37.1904 430.8 52.5904 430.8C53.1904 428.7 52.8904 427.6 51.4904 427.4C50.0904 427.2 48.9904 427.1 48.0904 426.9L36.6904 421.8C36.4904 421.7 36.1904 421.8 36.0904 422L35.3904 423.8C34.0904 424.4 33.0904 424.7 32.2904 424.7C31.6904 424.7 30.7904 424.4 29.5904 423.9C29.0904 423.9 28.5904 424 28.3904 424.5Z" fill="#191847"/>
<path d="M30.6904 417.2L42.2904 419.4C51.2904 406.2 88.6904 352.2 92.8904 327.1H66.9904C53.2904 345.2 39.1904 403.8 30.6904 417.2Z" fill="#CE1B35"/>
<path d="M78.1903 274.9C76.1903 272.5 74.7903 269.7 75.0903 266.4C75.7903 257.1 88.6903 259.1 91.1903 263.8C93.6903 268.5 93.3903 280.4 90.1903 281.2C88.8903 281.5 86.0903 280.7 83.2903 279L85.0903 291.5H74.5903L78.1903 274.9Z" fill="#B28B67"/>
<path d="M85.1905 258.5C83.7905 258.3 80.0905 258.1 79.3905 258.1C78.9905 258.1 78.4905 258.2 78.1905 257.8C77.9905 257.5 78.0905 256.9 77.9905 256.5C77.8905 256.1 77.7905 255.6 77.6905 255.2C77.3905 254 76.8905 252.8 76.2905 251.7C75.0905 249.6 73.3905 248 71.1905 247.1C68.7905 246.1 65.9905 245.8 63.3905 246C60.5905 246.2 58.0905 247.2 55.3905 248C52.8905 248.8 50.1905 249.2 47.5905 248.7C44.8905 248.3 42.8905 246.9 40.6905 245.5C38.3905 244.1 35.7905 243.2 33.0905 243.4C30.5905 243.6 28.1905 244.6 26.1905 246C24.1905 247.3 22.5905 248.9 21.6905 251.1C20.6905 253.5 20.6905 256.1 22.2905 258.2C24.5905 261.2 28.9905 262 32.5905 262C34.6905 262 36.6905 261.6 38.6905 260.9C41.2905 260 43.5905 258.4 46.0905 257.1C47.2905 256.5 48.3905 256 49.6905 255.7C50.8905 255.4 52.0905 255.2 53.1905 255.9C54.3905 256.7 55.3905 257.4 56.6905 257.9C57.9905 258.4 59.2905 258.6 60.6905 258.6C63.2905 258.6 65.8905 257.8 68.4905 257.2C70.5905 256.8 72.7905 256.3 74.9905 256.7C75.8905 256.9 77.1905 257.3 77.4905 258.2C72.0905 259.2 69.9905 265.9 71.4905 270.8C72.2905 273.5 77.2905 276.6 79.1905 275.2C80.3905 274.3 79.6905 273.2 79.1905 272.4C78.2905 270.9 77.9905 269.1 79.6905 268C81.1905 267.1 82.6905 269.2 82.6905 269.2C83.0905 269.2 86.5905 267.2 88.9905 264.3C91.3905 264.4 91.6905 262.9 91.1905 261.6C90.6905 260.3 87.0905 258.8 85.1905 258.5Z" fill="#191847"/>
<path d="M106.59 309.9L123.79 307.6C127.19 305.7 130.39 304.4 133.29 303.7C134.09 303.7 135.39 304 133.49 305.6C131.59 307.2 129.59 309 129.99 309.8C130.29 310.7 132.09 310.3 132.39 311.7C132.59 312.6 129.69 312.7 123.69 312.1L109.79 317.6L106.59 309.9ZM52.6904 313.9H62.1904C51.7904 337.4 46.2904 349.7 45.8904 350.8C44.8904 353.3 46.9904 357.1 47.8904 359.1C44.8904 360.4 45.2904 355.5 41.4904 357.3C38.0904 358.9 35.4904 361.8 31.4904 359.3C30.9904 359 30.4904 357.9 31.7904 357C34.9904 354.8 39.5904 351 40.1904 349.7C41.0904 348 45.2904 336.1 52.6904 313.9Z" fill="#997659"/>
<path d="M78.6906 283.7L86.1906 284.2C87.9906 300.8 97.9906 311.3 120.391 307.7L123.391 329.1C102.491 331.8 84.0906 323.4 80.3906 300.8C79.3906 294.9 78.5906 288.8 78.6906 283.7Z" fill="#EF7B07"/>
<path d="M75.0903 281.6L86.3903 284.2C86.3903 303.6 92.5903 316 95.7903 330.3H65.1903C64.7903 335.2 64.4903 340.3 64.3903 345.5H41.5903C46.7903 318 57.6903 296.7 74.3903 281.6H75.0903Z" fill="#F7931E"/>
<path d="M69.9904 302.5C69.1904 314.6 69.6904 323.8 71.3904 330.2H65.1904C66.0904 320.5 67.5904 311.2 69.9904 302.5Z" fill="black" fill-opacity="0.1"/>
<path d="M276.391 310C275.491 310 274.791 311 274.791 312.3C274.791 312.5 274.791 312.6 274.791 312.8C274.791 313.3 274.791 313.7 274.791 314.2C274.791 314.9 274.791 315.6 274.791 316.4C274.791 317.3 274.791 318.3 274.791 319.2C274.791 320.3 274.791 321.4 274.791 322.5C274.791 323.8 274.791 325 274.791 326.3C274.791 327.7 274.791 329 274.791 330.4C274.791 331.8 274.791 333.2 274.791 334.6C274.791 336 274.791 337.5 274.791 338.9C274.791 340.3 274.791 341.7 274.791 343.1C274.791 344.5 274.791 345.8 274.791 347.2C274.791 348.5 274.791 349.7 274.791 351C274.791 352.1 274.791 353.2 274.791 354.4C274.791 355.3 274.791 356.3 274.791 357.2C274.791 357.9 274.791 358.7 274.791 359.4C274.791 359.9 274.791 360.3 274.791 360.8C274.791 361.1 274.791 361.4 274.791 361.7C274.791 362 275.191 362.2 275.391 362.3C275.691 362.4 276.091 362.5 276.491 362.5C276.791 362.5 277.091 362.5 277.391 362.4C277.591 362.3 277.991 362.2 278.091 362C278.091 362 278.091 361.9 278.091 361.8C278.091 361.5 278.091 361.2 278.091 360.9C278.091 360.4 278.091 360 278.091 359.5C278.091 358.8 278.091 358.1 278.091 357.4C278.091 356.5 278.091 355.6 278.091 354.7C278.091 353.6 278.091 352.6 278.091 351.5C278.091 350.3 278.091 349.1 278.091 347.9C278.091 346.6 278.091 345.3 278.091 344C278.091 342.6 278.091 341.3 278.091 339.9C278.091 338.5 278.091 337.1 278.091 335.7C278.091 334.3 278.091 332.9 278.091 331.6C278.091 330.3 278.091 328.9 278.091 327.6C278.091 326.4 278.091 325.1 278.091 323.9C278.091 322.8 278.091 321.6 278.091 320.5C278.091 319.5 278.091 318.5 278.091 317.6C278.091 316.8 278.091 316 278.091 315.2C278.091 314.6 278.091 314.1 278.091 313.5C278.091 313.2 278.091 312.9 278.091 312.6V312.5C277.991 311.1 277.291 310 276.391 310Z" fill="#8CAAEA"/>
<path d="M237.491 293.7L308.491 291.3L323.991 303.4L310.891 318.6L239.091 322.9L237.491 293.7Z" fill="white"/>
<path d="M308.491 291.3L237.491 293.7L239.091 322.9L237.991 321.4L236.391 292.2L307.391 290.2L308.491 291.3Z" fill="#8CAAEA"/>
<path d="M210.09 223.7C210.59 223.7 210.89 224.2 210.89 224.9C210.89 225 210.89 225.1 210.89 225.2C210.89 225.4 210.89 225.7 210.89 225.9C210.89 226.3 210.89 226.7 210.89 227C210.89 227.5 210.89 228 210.89 228.5C210.89 229.1 210.89 229.7 210.89 230.3C210.89 231 210.89 231.6 210.89 232.3C210.89 233 210.89 233.7 210.89 234.4C210.89 235.1 210.89 235.9 210.89 236.6C210.89 237.4 210.89 238.1 210.89 238.9C210.89 239.6 210.89 240.4 210.89 241.1C210.89 241.8 210.89 242.5 210.89 243.2C210.89 243.9 210.89 244.5 210.89 245.2C210.89 245.8 210.89 246.4 210.89 247C210.89 247.5 210.89 248 210.89 248.5C210.89 248.9 210.89 249.3 210.89 249.6C210.89 249.8 210.89 250.1 210.89 250.3C210.89 250.5 210.89 250.6 210.89 250.8C210.89 251 210.69 251 210.59 251.1C210.39 251.2 210.19 251.2 209.99 251.2C209.79 251.2 209.69 251.2 209.49 251.1C209.39 251.1 209.19 251 209.19 250.9V250.8C209.19 250.6 209.19 250.5 209.19 250.3C209.19 250.1 209.19 249.8 209.19 249.6C209.19 249.2 209.19 248.9 209.19 248.5C209.19 248 209.19 247.6 209.19 247.1C209.19 246.5 209.19 246 209.19 245.4C209.19 244.8 209.19 244.1 209.19 243.5C209.19 242.8 209.19 242.1 209.19 241.5C209.19 240.8 209.19 240.1 209.19 239.4C209.19 238.7 209.19 237.9 209.19 237.2C209.19 236.5 209.19 235.8 209.19 235C209.19 234.3 209.19 233.6 209.19 232.9C209.19 232.2 209.19 231.6 209.19 230.9C209.19 230.3 209.19 229.7 209.19 229.1C209.19 228.6 209.19 228.1 209.19 227.6C209.19 227.2 209.19 226.8 209.19 226.4C209.19 226.1 209.19 225.8 209.19 225.5C209.19 225.3 209.19 225.2 209.19 225C209.19 225 209.19 225 209.19 224.9C209.29 224.2 209.69 223.6 210.09 223.7Z" fill="#8CAAEA"/>
<path d="M230.69 215.3L193.39 213.6L185.19 219.8L191.99 227.9L229.59 230.6L230.69 215.3Z" fill="white"/>
<path d="M193.391 213.6L230.691 215.3L229.591 230.6L230.291 229.9L231.291 214.5L193.991 213L193.391 213.6Z" fill="#8CAAEA"/>
<path d="M291.59 251.7V236.8L299.79 228.7L308.19 237.1V251.7H291.69" fill="#55A6CE"/>
<path d="M330.991 237.1L322.591 228.7H299.791L308.191 237.1H330.991Z" fill="#F7B237"/>
<path d="M311.39 232.9H319.59L315.49 237.1L311.39 232.9Z" fill="#55A6CE"/>
<path d="M330.99 237.1H323.59L319.59 232.9L315.49 237.1H308.19V251.7H330.99V237.1Z" fill="#043E75"/>
<path d="M317.19 238V244.6H321.99V238H317.19ZM319.69 241.4H321.79V244.3H319.69V241.4ZM319.69 238.3H321.79V241.2H319.69V238.3ZM317.39 241.4H319.49V244.3H317.39V241.4ZM317.39 238.3H319.49V241.2H317.39V238.3Z" fill="white"/>
<path d="M316.952 245.046L322.152 245.046L322.152 244.546L316.952 244.546L316.952 245.046Z" fill="white"/>
<path d="M279.29 216.6C278.89 216.7 278.49 216.9 277.99 217.2C275.59 219.2 274.59 222.9 273.79 225.5C272.89 228.6 272.49 231.8 273.19 234.9C273.79 237.5 275.49 239.8 278.99 239.9C283.89 240.1 285.59 236.2 285.89 232.8C286.09 229.5 285.69 226.1 284.49 222.9C283.99 221.5 282.19 216.1 279.29 216.6Z" fill="#1A894C"/>
<path d="M282.19 232.3L279.89 234.2L279.79 225.2L281.19 223.7L279.79 225L279.69 219.6L279.59 229.4L277.19 226.2L279.59 230L279.39 252.6H280.19L279.89 234.7L282.19 232.3Z" fill="#754C24"/>
<path d="M72.4901 187.2V172.4L64.2901 164.2L55.8901 172.6V187.2H72.3901" fill="#043E75"/>
<path d="M32.9902 172.7L41.4902 164.2H64.2902L55.8902 172.6H32.9902" fill="#F77B0B"/>
<path d="M52.6902 168.5H44.4902L48.5902 172.6L52.6902 168.5Z" fill="#043E75"/>
<path d="M32.9902 172.6H40.4902L44.4902 168.5L48.5902 172.6H55.8902V187.2H32.9902V172.6Z" fill="#1174BA"/>
<path d="M40.4902 174H39.4902V176.9H40.4902V174Z" fill="white"/>
<path d="M44.79 174.1H43.79V177H44.79V174.1Z" fill="white"/>
<path d="M49.1904 174.1H48.1904V177H49.1904V174.1Z" fill="white"/>
<path d="M53.4902 174H52.4902V176.9H53.4902V174Z" fill="white"/>
<path d="M40.4902 179.2H39.4902V182.1H40.4902V179.2Z" fill="white"/>
<path d="M44.79 179.301H43.79V182.201H44.79V179.301Z" fill="white"/>
<path d="M49.1904 179.301H48.1904V182.201H49.1904V179.301Z" fill="white"/>
<path d="M53.4902 179.2H52.4902V182.1H53.4902V179.2Z" fill="white"/>
<path d="M78.79 190.9V176.1L86.99 167.9L95.39 176.3V190.9H78.89" fill="#55A6CE"/>
<path d="M118.19 176.3L109.79 167.9H86.9902L95.3902 176.3H118.19Z" fill="#F7B237"/>
<path d="M98.5898 172.1H106.79L102.69 176.3L98.5898 172.1Z" fill="#55A6CE"/>
<path d="M118.19 176.3H110.79L106.79 172.1L102.69 176.3H95.3901V190.9H118.19V176.3Z" fill="#043E75"/>
<path d="M104.39 177.3V183.9H109.19V177.3H104.39ZM106.89 180.6H108.99V183.5H106.89V180.6ZM106.89 177.5H108.99V180.4H106.89V177.5ZM104.59 180.6H106.69V183.5H104.59V180.6ZM104.59 177.5H106.69V180.4H104.59V177.5Z" fill="white"/>
<path d="M104.216 184.307L109.416 184.307L109.416 183.807L104.216 183.807L104.216 184.307Z" fill="white"/>
<path d="M17.0903 142.5C16.6903 142.6 16.2903 142.8 15.7903 143.1C13.3903 145.1 12.3903 148.8 11.5903 151.4C10.6903 154.5 10.2903 157.7 10.9903 160.8C11.5903 163.4 13.2903 165.7 16.7903 165.8C21.6903 166 23.3903 162.1 23.6903 158.7C23.8903 155.4 23.4903 152 22.2903 148.8C21.6903 147.4 19.8903 142 17.0903 142.5Z" fill="#1A894C"/>
<path d="M19.8902 158.2L17.6902 160.1L17.4902 151.1L18.9902 149.6L17.4902 150.9V145.5L17.3902 155.3L14.9902 152.1L17.3902 155.9L17.1902 178.5H17.9902L17.6902 160.6L19.8902 158.2Z" fill="#754C24"/>
<path d="M95.99 189.8H75.29V202.7H95.99V189.8Z" fill="#043E75"/>
<path d="M89.7903 183.6H69.0903L75.2903 189.8H95.9903L89.7903 183.6Z" fill="#F77B0B"/>
<path d="M66.4902 202.6V186.3L69.0902 183.6L75.2902 189.8V202.6H66.4902Z" fill="#55A6CE"/>
<path d="M80.8901 191.5H77.3901V194.3H80.8901V191.5Z" fill="#F0F0F0"/>
<path d="M342 342H0V523H342V342Z" fill="url(#paint0_linear)"/>
<defs>
<linearGradient id="paint0_linear" x1="169.052" y1="549.755" x2="172.054" y2="362.717" gradientUnits="userSpaceOnUse">
<stop stop-color="white"/>
<stop offset="1" stop-color="white" stop-opacity="0"/>
</linearGradient>
</defs>
</svg>
