<svg width="700" height="340" viewBox="0 0 700 340" fill="none" xmlns="http://www.w3.org/2000/svg">
<path d="M274.245 156.367C234.733 155.237 201.443 162.738 167.966 177.899C124.314 197.657 78.86 216.932 33.4526 232.093C-21.2889 250.4 -1.84865 300.481 41.6638 319.191C66.3677 329.836 97.1072 335.32 124.759 337.739C204.906 344.917 285.193 330.884 364.92 326.207C425.627 322.658 486.544 324.191 547.391 323.384C604.87 322.658 693.228 304.029 695.264 244.19C695.825 227.658 684.736 212.012 669.577 201.044C654.418 190.157 635.399 183.383 616.38 177.899C524.863 151.447 425.627 149.512 328.636 152.415" fill="#D6CDE4"/>
<path d="M147.162 110.993L160.648 158.441L170.5 193.441H177.687L167.269 110.993H147.162Z" fill="#FB9B5A"/>
<path d="M143.529 110.993C143.206 135.485 142.157 148.741 141.834 151.005C141.511 153.187 136.585 167.333 126.975 193.441H134.404C146.598 168.464 153.462 154.319 154.835 151.005C156.288 147.691 160.649 134.353 167.271 110.993H143.529Z" fill="#FF8F43"/>
<path d="M126.328 200.15L126.731 192.31H134.564C138.279 194.896 143.124 196.998 149.1 198.614V200.069H134.968L130.123 199.342V200.069H126.328V200.15Z" fill="#CE2105"/>
<path d="M169.531 200.15L169.935 192.31H177.768C181.482 194.896 186.328 196.998 192.303 198.614V200.069H178.172L173.326 199.342V200.069H169.531V200.15Z" fill="#CE2105"/>
<path d="M152.007 66.4541C150.311 64.4333 149.1 61.9275 149.342 59.1793C149.907 51.177 160.97 52.9552 163.151 56.9968C165.331 61.0384 165.089 71.2231 162.262 71.9506C161.132 72.2739 158.79 71.5465 156.368 70.0915L157.902 80.8421H148.938L152.007 66.4541Z" fill="#B28B67"/>
<path d="M159.194 57.5633C157.983 58.2099 157.094 59.5032 156.044 61.2007C155.802 61.1198 155.479 61.039 155.237 61.039C154.026 61.039 152.976 62.009 152.976 63.3023C152.976 63.9489 153.218 64.5148 153.622 64.9189C153.137 65.6464 152.491 66.3739 151.845 67.1822C149.342 65.7272 146.677 61.2007 149.019 56.9974C151.038 48.591 163.474 54.0067 165.654 52.6325C166.219 55.6233 164.685 58.0482 159.194 57.5633Z" fill="#230C01"/>
<path d="M171.792 110.589L180.029 122.794C182.774 124.734 184.955 126.674 186.57 128.614C186.893 129.261 187.135 130.312 185.197 129.423C183.259 128.533 181.159 127.725 180.675 128.291C180.19 128.857 181.078 130.15 180.19 130.878C179.625 131.363 178.414 129.18 176.556 124.411L167.108 115.843L171.792 110.589Z" fill="#B28B67"/>
<path d="M164.282 81.5699C166.139 95.1496 171.711 107.113 181.078 120.854L174.214 124.491C161.94 113.902 155.641 107.921 155.964 95.8771C156.045 92.8863 158.548 84.0757 159.679 79.3066L164.282 81.5699Z" fill="#CE2105"/>
<path d="M141.347 116.731H170.015C163.555 96.9275 160.163 83.267 160.082 75.9113C160.082 75.5072 159.355 74.8605 159.032 74.9413C156.771 75.588 154.349 75.3455 151.845 74.2139C145.062 85.1261 142.72 98.6249 141.347 116.731Z" fill="#F2F2F2"/>
<path d="M246.004 132.17H182.613C178.495 132.17 175.103 128.775 175.103 124.652V81.9734C175.103 77.851 178.495 74.4561 182.613 74.4561H246.004C250.123 74.4561 253.514 77.851 253.514 81.9734V124.652C253.514 128.775 250.123 132.17 246.004 132.17Z" fill="white"/>
<path d="M248.346 87.6316C254.322 87.6316 259.167 82.7822 259.167 76.8001C259.167 70.8181 254.322 65.9688 248.346 65.9688C242.37 65.9688 237.525 70.8181 237.525 76.8001C237.525 82.7822 242.37 87.6316 248.346 87.6316Z" fill="white"/>
<path d="M250.204 75.3452H254.484V78.9826H250.204V83.9133H246.247V78.9826H241.967V75.3452H246.247V70.5762H250.204V75.3452Z" fill="#ADA8D4"/>
<path d="M232.357 86.0156H188.508V88.4406H232.357V86.0156Z" fill="#ADA8D4"/>
<path d="M232.356 93.7764H188.507V96.2013H232.356V93.7764Z" fill="#ADA8D4"/>
<path d="M232.356 101.455H188.507V103.88H232.356V101.455Z" fill="#ADA8D4"/>
<path d="M232.356 109.215H188.507V111.64H232.356V109.215Z" fill="#ADA8D4"/>
<path d="M232.356 116.894H188.507V119.318H232.356V116.894Z" fill="#ADA8D4"/>
<path d="M179.221 76.963L194.16 72.5173C195.291 71.6282 196.098 71.1432 197.471 70.739C197.794 70.6582 199.248 70.1732 199.651 70.9007C199.732 71.0623 200.136 71.4665 200.217 71.5473C200.54 71.8706 200.621 71.8706 200.701 72.3556C200.782 72.679 201.186 72.8406 201.347 73.0831C201.751 73.5681 202.074 73.8914 201.993 74.3764C201.832 75.3464 200.136 75.7506 199.248 75.9122C197.713 76.3164 196.098 76.3972 194.564 76.478L182.936 83.3487L179.221 76.963Z" fill="#B28B67"/>
<path d="M154.349 74.2143C162.586 74.2951 175.91 75.75 191.334 70.8193L192.868 78.4175C181.24 85.9348 169.45 91.6738 159.113 90.8655C163.555 110.103 163.393 125.866 153.461 125.866C148.777 125.866 143.609 125.866 138.198 125.866C135.776 109.538 142.155 86.9048 148.05 75.4267C148.292 75.0226 148.777 74.1334 149.907 74.1334C150.877 74.2143 152.33 74.2143 154.349 74.2143Z" fill="#E83D0F"/>
<path d="M81.592 230.3L104.607 268.856L121.888 301.431H125.683L96.6929 230.3H81.592Z" fill="#997659"/>
<path d="M119.626 299.978C119.303 300.867 119.142 301.594 119.142 302.079C119.142 302.645 119.222 303.453 119.384 304.504C120.03 304.504 125.844 304.504 136.907 304.504C137.392 302.969 137.069 302.16 136.1 302.079C135.131 301.999 134.323 301.837 133.677 301.756L125.521 298.119C125.36 298.038 125.198 298.119 125.117 298.28L124.633 299.574C123.745 299.978 123.018 300.22 122.452 300.22C121.968 300.22 121.322 300.059 120.514 299.654C120.191 299.493 119.788 299.574 119.626 299.978C119.626 299.897 119.626 299.897 119.626 299.978Z" fill="#B50437"/>
<path d="M117.123 296.258L124.31 294.076C121.161 284.699 117.285 274.272 112.762 263.037C108.24 251.801 103.314 240.808 98.0654 230.3H77.7964C83.6106 243.637 89.8286 255.681 96.2888 266.512C102.83 277.344 109.775 287.286 117.123 296.258Z" fill="#CE0B39"/>
<path d="M80.0579 230.3C77.8776 243.879 73.6784 261.177 73.2746 261.743C73.0324 262.067 63.5035 265.3 44.7688 271.281L45.5763 274.595C67.9449 271.362 79.7349 268.856 80.9462 267.078C82.7227 264.411 91.7671 243.314 95.2395 230.3H80.0579Z" fill="#B28B67"/>
<path d="M51.3909 268.372L52.8444 273.626C69.5603 275.081 79.8159 274.03 83.6113 270.474C87.4067 266.917 91.6866 253.499 96.5318 230.22H77.2318C74.1632 249.215 72.4674 259.157 72.1444 259.966C71.5791 260.774 64.7151 263.603 51.3909 268.372Z" fill="#FC0E3B"/>
<path d="M45.7214 269.882C44.7905 269.718 44.0467 269.685 43.5696 269.769C43.0129 269.868 42.2317 270.088 41.2259 270.429C41.338 271.066 42.3477 276.798 44.2688 287.703C45.8639 287.914 46.6031 287.455 46.5143 286.486C46.4256 285.517 46.4444 284.693 46.4118 284.042L48.5741 275.37C48.6256 275.197 48.518 275.052 48.345 275L46.9884 274.747C46.4366 273.942 46.0718 273.268 45.9736 272.71C45.8895 272.233 45.9363 271.568 46.1938 270.702C46.2827 270.276 46.0676 269.985 45.7214 269.882Z" fill="#B50437"/>
<path d="M94.5926 189.48C98.1457 189.48 99.4378 185.196 101.457 182.932C102.91 181.235 105.333 181.801 106.06 179.457C107.917 173.556 102.991 169.434 96.6114 169.434C90.2319 169.434 85.8713 173.071 84.983 178.487C84.0947 183.902 88.2131 189.48 94.5926 189.48Z" fill="#B50437"/>
<path d="M94.9965 185.681C93.5429 183.983 92.5739 181.963 92.7354 179.618C93.2199 172.99 102.426 174.445 104.202 177.759C105.979 181.073 105.817 189.642 103.476 190.207C102.587 190.45 100.568 189.884 98.5496 188.672L99.8416 197.563H92.4124L94.9965 185.681Z" fill="#B28B67"/>
<path d="M98.1459 181.398C97.9036 181.236 97.5806 181.155 97.2576 181.155C96.2078 181.155 95.3195 181.963 95.3195 183.014C95.3195 183.418 95.481 183.822 95.7233 184.146C95.2387 184.873 94.9965 185.682 94.835 186.49C93.3007 186.49 87.5672 180.589 93.2199 174.931C98.8726 169.273 107.19 177.356 104.687 177.76C103.314 178.083 100.407 179.458 98.1459 181.398Z" fill="#B50437"/>
<path d="M105.899 214.538L114.862 207.91C119.304 207.183 121.323 206.536 121 205.97C120.515 205.081 119.304 205.647 118.9 205.081C118.496 204.515 119.546 202.899 120.596 201.363C121.646 199.827 120.677 199.908 120.111 200.069C118.173 201.12 116.154 202.656 114.055 204.677L102.184 209.608L105.899 214.538Z" fill="#997659"/>
<path d="M100.892 214.618C105.656 215.265 111.39 212.678 115.67 209.284L113.974 204.11C107.998 207.101 102.668 207.344 98.7116 206.939C95.8045 209.364 97.1773 214.133 100.892 214.618Z" fill="#F7929C"/>
<path d="M158.873 219.146H117.043C113.813 219.146 111.148 216.478 111.148 213.245V171.374C111.148 168.141 113.813 165.474 117.043 165.474H158.873C162.103 165.474 164.768 168.141 164.768 171.374V213.245C164.768 216.478 162.103 219.146 158.873 219.146Z" fill="white"/>
<path d="M161.296 179.699C167.227 179.699 172.036 174.886 172.036 168.949C172.036 163.011 167.227 158.198 161.296 158.198C155.364 158.198 150.555 163.011 150.555 168.949C150.555 174.886 155.364 179.699 161.296 179.699Z" fill="white" stroke="white" stroke-width="4" stroke-miterlimit="10"/>
<path d="M163.071 167.495H167.351V171.132H163.071V176.063H159.114V171.132H154.834V167.495H159.114V162.726H163.071V167.495Z" fill="#3E2884"/>
<path d="M143.61 186.408H120.515C119.626 186.408 118.98 185.681 118.98 184.873V179.538C118.98 178.649 119.707 178.002 120.515 178.002H143.61C144.498 178.002 145.144 178.729 145.144 179.538V184.873C145.225 185.681 144.498 186.408 143.61 186.408Z" fill="#3E2884"/>
<path d="M154.27 198.048H121.161C120.111 198.048 119.304 197.24 119.304 196.189V191.42C119.304 190.369 120.111 189.561 121.161 189.561H154.27C155.32 189.561 156.127 190.369 156.127 191.42V196.189C156.127 197.159 155.32 198.048 154.27 198.048Z" fill="#ADA8D4"/>
<path d="M147.648 209.284H121C120.111 209.284 119.304 208.556 119.304 207.586V202.413C119.304 201.524 120.031 200.716 121 200.716H147.648C148.536 200.716 149.344 201.443 149.344 202.413V207.586C149.344 208.556 148.536 209.284 147.648 209.284Z" fill="#ADA8D4"/>
<path d="M123.906 211.789L129.155 209.607C130.124 207.02 131.093 205.807 132.062 205.888C132.87 205.646 131.174 208.798 132.628 208.637C134.081 208.475 137.715 206.292 138.28 206.858C139.088 207.747 138.038 210.011 136.988 211.062C135.05 213.082 133.516 213.648 129.963 214.295C128.105 214.618 126.006 215.426 123.664 216.72L123.906 211.789Z" fill="#997659"/>
<path d="M100.73 191.501L91.7667 190.531C90.7977 190.45 82.7224 202.575 81.8341 210.9C81.0266 218.498 73.4358 222.621 75.8584 234.907C81.8341 234.341 98.55 242.101 102.184 236.039C103.96 233.129 104.768 229.815 104.929 226.258C110.905 226.743 118.334 225.531 127.217 222.055C127.621 219.953 126.894 216.235 124.956 210.9C114.781 213.325 107.675 213.81 103.557 212.355C102.265 205.242 100.569 197.967 100.73 191.501Z" fill="#FDA8AD"/>
<path d="M278.629 190.611V212.032C278.629 216.073 281.94 219.387 285.978 219.387H586.137C590.175 219.387 593.486 216.073 593.486 212.032V190.611H278.629Z" fill="#ADA8D4"/>
<path d="M593.486 190.612V7.60955C593.486 3.56799 590.175 0.253906 586.137 0.253906H285.978C281.94 0.253906 278.629 3.56799 278.629 7.60955V190.531H593.486V190.612Z" fill="#3E2884"/>
<path d="M583.715 9.79199H288.159V179.619H583.715V9.79199Z" fill="#F0E8F5"/>
<path d="M477.928 256.086H394.187L399.678 219.308H472.436L477.928 256.086Z" fill="#3E2884"/>
<path d="M489.556 259.723H381.993V265.866H489.556V259.723Z" fill="#3E2884"/>
<path d="M381.993 259.723L394.187 256.086H477.928L489.556 259.723H381.993Z" fill="#ADA8D4"/>
<path d="M434.886 209.364C437.651 209.364 439.893 207.12 439.893 204.352C439.893 201.585 437.651 199.341 434.886 199.341C432.121 199.341 429.879 201.585 429.879 204.352C429.879 207.12 432.121 209.364 434.886 209.364Z" fill="#3E2884"/>
<path d="M246.248 46.4092H321.994C323.932 46.4092 325.467 44.7926 325.467 42.9334V25.1505C325.467 23.2106 323.852 21.6748 321.994 21.6748H246.248C244.31 21.6748 242.776 23.2914 242.776 25.1505V42.9334C242.695 44.8734 244.31 46.4092 246.248 46.4092Z" fill="white"/>
<path d="M322.883 34.5265C328.235 34.5265 332.573 30.1838 332.573 24.8267C332.573 19.4697 328.235 15.127 322.883 15.127C317.531 15.127 313.192 19.4697 313.192 24.8267C313.192 30.1838 317.531 34.5265 322.883 34.5265Z" fill="white"/>
<path d="M321.267 19.25H324.82V23.5341H328.697V26.7673H324.82V31.213H321.267V26.8481H317.391V23.6149H321.267V19.25Z" fill="#3E2884"/>
<path d="M253.003 32.189C252.889 32.1775 252.776 32.1661 252.65 32.1661C252.172 32.1661 251.397 32.303 251.055 33.0444V32.2118H249.585V37.8235H251.1V35.2572C251.1 34.0481 251.773 33.6717 252.548 33.6717C252.684 33.6717 252.833 33.6831 253.003 33.7174V32.189Z" fill="#3E2884"/>
<path d="M258.424 29.8279H256.692L255.655 31.5388H256.874L258.424 29.8279ZM255.119 34.3789C255.153 33.8656 255.586 33.2725 256.373 33.2725C257.239 33.2725 257.603 33.82 257.626 34.3789H255.119ZM257.774 35.8389C257.592 36.3407 257.204 36.6943 256.498 36.6943C255.746 36.6943 255.119 36.1582 255.085 35.4168H259.096C259.096 35.394 259.119 35.1659 259.119 34.9492C259.119 33.1471 258.082 32.0407 256.35 32.0407C254.914 32.0407 253.592 33.2041 253.592 34.9948C253.592 36.8882 254.948 37.9946 256.487 37.9946C257.865 37.9946 258.754 37.1848 259.039 36.2153L257.774 35.8389Z" fill="#3E2884"/>
<path d="M262.91 30.8202C263.161 30.8202 263.309 30.8545 263.389 30.8773V29.5998C263.263 29.5428 262.956 29.4857 262.637 29.4857C261.395 29.4857 260.597 30.307 260.597 31.573V32.2118H259.663V33.512H260.597V37.8235H262.124V33.512H263.389V32.2118H262.124V31.5958C262.124 30.9685 262.568 30.8202 262.91 30.8202Z" fill="#3E2884"/>
<path d="M268.021 37.8235H269.468C269.445 37.6296 269.411 37.2418 269.411 36.8084V32.2118H267.895V35.4739C267.895 36.124 267.508 36.5802 266.836 36.5802C266.129 36.5802 265.81 36.0784 265.81 35.4511V32.2118H264.295V35.759C264.295 36.9795 265.069 37.9718 266.425 37.9718C267.018 37.9718 267.668 37.7437 267.975 37.219C267.975 37.4471 267.998 37.7094 268.021 37.8235Z" fill="#3E2884"/>
<path d="M270.607 38.1315C270.767 39.2036 271.792 40.1617 273.331 40.1617C275.439 40.1617 276.27 38.7588 276.27 37.219V32.2118H274.812V32.8733C274.618 32.4969 274.105 32.1091 273.217 32.1091C271.678 32.1091 270.607 33.3638 270.607 34.8465C270.607 36.4206 271.724 37.5726 273.217 37.5726C274.026 37.5726 274.55 37.219 274.778 36.854V37.2646C274.778 38.3482 274.242 38.8272 273.285 38.8272C272.567 38.8272 272.077 38.3824 271.975 37.7665L270.607 38.1315ZM273.479 36.2723C272.692 36.2723 272.134 35.7248 272.134 34.8465C272.134 33.9797 272.727 33.4322 273.479 33.4322C274.208 33.4322 274.801 33.9797 274.801 34.8465C274.801 35.7134 274.254 36.2723 273.479 36.2723Z" fill="#3E2884"/>
<path d="M279.321 37.8235V32.2118H277.805V37.8235H279.321ZM277.623 30.3754C277.623 30.8773 278.044 31.2993 278.557 31.2993C279.081 31.2993 279.492 30.8773 279.492 30.3754C279.492 29.8507 279.081 29.4287 278.557 29.4287C278.044 29.4287 277.623 29.8507 277.623 30.3754Z" fill="#3E2884"/>
<path d="M285.353 29.8279H283.621L282.584 31.5388H283.803L285.353 29.8279ZM282.049 34.3789C282.083 33.8656 282.516 33.2725 283.302 33.2725C284.168 33.2725 284.533 33.82 284.555 34.3789H282.049ZM284.704 35.8389C284.521 36.3407 284.134 36.6943 283.427 36.6943C282.675 36.6943 282.049 36.1582 282.014 35.4168H286.025C286.025 35.394 286.048 35.1659 286.048 34.9492C286.048 33.1471 285.011 32.0407 283.279 32.0407C281.843 32.0407 280.522 33.2041 280.522 34.9948C280.522 36.8882 281.878 37.9946 283.416 37.9946C284.795 37.9946 285.683 37.1848 285.968 36.2153L284.704 35.8389Z" fill="#3E2884"/>
<path d="M286.763 36.2609C286.831 36.8996 287.412 37.9946 289.099 37.9946C290.569 37.9946 291.275 37.0593 291.275 36.1468C291.275 35.3256 290.717 34.6526 289.612 34.4245L288.814 34.2534C288.506 34.1964 288.301 34.0253 288.301 33.7516C288.301 33.4322 288.62 33.1927 289.019 33.1927C289.657 33.1927 289.897 33.6147 289.942 33.9455L291.207 33.6603C291.139 33.0558 290.603 32.0407 289.008 32.0407C287.8 32.0407 286.911 32.8733 286.911 33.877C286.911 34.664 287.401 35.3142 288.484 35.5537L289.224 35.7248C289.657 35.816 289.828 36.0214 289.828 36.2723C289.828 36.5688 289.589 36.8312 289.088 36.8312C288.427 36.8312 288.096 36.4206 288.062 35.9757L286.763 36.2609Z" fill="#3E2884"/>
<path d="M292.414 36.8654C292.414 37.4357 292.881 37.9033 293.451 37.9033C294.032 37.9033 294.499 37.4357 294.499 36.8654C294.499 36.2951 294.032 35.8275 293.451 35.8275C292.881 35.8275 292.414 36.2951 292.414 36.8654Z" fill="#3E2884"/>
<path d="M297.548 37.8235V32.2118H296.033V37.8235H297.548ZM295.85 30.3754C295.85 30.8773 296.272 31.2993 296.785 31.2993C297.309 31.2993 297.719 30.8773 297.719 30.3754C297.719 29.8507 297.309 29.4287 296.785 29.4287C296.272 29.4287 295.85 29.8507 295.85 30.3754Z" fill="#3E2884"/>
<path d="M300.686 34.5956C300.686 33.9455 301.074 33.4322 301.734 33.4322C302.464 33.4322 302.771 33.9227 302.771 34.55V37.8235H304.287V34.2876C304.287 33.0558 303.649 32.0635 302.259 32.0635C301.655 32.0635 300.982 32.3258 300.641 32.9075V32.2118H299.171V37.8235H300.686V34.5956Z" fill="#3E2884"/>
<path d="M308.423 30.8202C308.674 30.8202 308.822 30.8545 308.902 30.8773V29.5998C308.776 29.5428 308.469 29.4857 308.15 29.4857C306.908 29.4857 306.11 30.307 306.11 31.573V32.2118H305.176V33.512H306.11V37.8235H307.637V33.512H308.902V32.2118H307.637V31.5958C307.637 30.9685 308.081 30.8202 308.423 30.8202Z" fill="#3E2884"/>
<path d="M312.283 36.6145C311.542 36.6145 310.858 36.067 310.858 35.0176C310.858 33.9569 311.542 33.4208 312.283 33.4208C313.023 33.4208 313.707 33.9569 313.707 35.0176C313.707 36.0784 313.023 36.6145 312.283 36.6145ZM312.283 32.0407C310.608 32.0407 309.343 33.2839 309.343 35.0176C309.343 36.7399 310.608 37.9946 312.283 37.9946C313.958 37.9946 315.222 36.7399 315.222 35.0176C315.222 33.2839 313.958 32.0407 312.283 32.0407Z" fill="#3E2884"/>
<path d="M603.581 119.723L596.636 114.226C591.226 112.852 585.896 110.589 586.704 110.347C587.996 109.942 592.437 110.993 593.406 110.751C594.375 110.589 594.133 110.508 593.81 109.457C593.487 108.407 594.375 109.053 595.021 109.296C596.556 109.862 597.525 111.721 599.059 112.367C601.239 113.256 603.5 114.065 605.681 115.035C607.78 115.924 610.284 116.651 612.141 117.945C609.476 118.915 606.327 119.157 603.581 119.723Z" fill="#B28B67"/>
<path d="M635.721 123.684C623.85 122.956 613.191 118.914 600.674 111.64L597.929 117.783C607.861 127.725 616.744 135.081 627.161 134.111C629.745 133.868 633.864 128.776 637.901 127.483L635.721 123.684Z" fill="#9B99C6"/>
<path d="M417.687 111.478H693.54C697.093 111.478 700 108.568 700 105.011V75.8311H411.227V105.011C411.227 108.649 414.134 111.478 417.687 111.478Z" fill="#2F1A70"/>
<path d="M410.904 75.9117H700V29.9187C700 26.3621 697.093 23.4521 693.539 23.4521H417.445C413.892 23.4521 410.985 26.3621 410.985 29.9187V75.9117H410.904Z" fill="#FCAD4F"/>
<path d="M517.207 46.0176L528.028 46.0176L528.028 32.1146L517.207 32.1146L517.207 46.0176Z" fill="#F0E8F5"/>
<path d="M508.21 50.8662L519.031 50.8662L519.031 36.9632L508.21 36.9632L508.21 50.8662Z" fill="#E4DAEA"/>
<path d="M676.581 82.2168C676.581 82.2168 675.047 78.8219 674.32 78.3369C673.513 77.7711 669.233 78.6602 669.233 78.6602C669.233 78.6602 665.195 69.6071 662.934 67.6671C661.884 66.778 664.63 67.5055 664.953 67.5863C667.941 68.5563 670.767 70.0113 673.109 72.1129C673.997 72.9212 676.097 74.6995 676.177 75.2653C676.258 75.7503 674.885 77.2053 674.966 77.8519C675.047 78.4986 676.5 80.8427 676.743 81.3276C676.904 81.8126 677.066 82.5401 677.066 82.5401L676.581 82.2168Z" fill="#8479C9"/>
<path d="M672.383 73.1632C672.383 69.8492 675.29 57.3203 675.29 57.3203C677.147 61.3619 680.297 73.8099 680.297 73.8099C679.489 74.2141 677.713 77.124 677.713 77.124L678.278 82.2972L677.713 82.378L677.067 77.124C677.067 77.124 672.383 73.6482 672.383 73.1632Z" fill="#8479C9"/>
<path d="M678.276 82.0559L679.73 78.0144C679.73 78.0144 683.364 76.8019 684.737 76.6402C684.737 76.6402 685.625 61.0398 685.14 59.1807C685.14 59.1807 676.096 72.3562 675.935 72.8412C675.773 73.3262 678.68 77.691 678.68 77.691L677.873 81.7326L678.276 82.0559Z" fill="#8479C9"/>
<path d="M682.315 80.9229H672.625L675.451 92.4818H679.004L682.315 80.9229Z" fill="#E4DAEA"/>
<path d="M515.56 67.3447C515.803 67.3447 516.045 67.7489 516.045 68.3147C516.045 68.3955 516.045 68.4764 516.045 68.5572C516.045 68.7189 516.045 68.9613 516.045 69.123C516.045 69.4463 516.045 69.7697 516.045 70.0122C516.045 70.4163 516.045 70.8205 516.045 71.2246C516.045 71.7096 516.045 72.1946 516.045 72.6796C516.045 73.2454 516.045 73.7304 516.045 74.2962C516.045 74.8621 516.045 75.4278 516.045 75.9937C516.045 76.5595 516.045 77.2062 516.045 77.772C516.045 78.4186 516.045 78.9844 516.045 79.6311C516.045 80.1969 516.045 80.8436 516.045 81.4094C516.045 81.9752 516.045 82.541 516.045 83.1068C516.045 83.6727 516.045 84.1577 516.045 84.7235C516.045 85.2085 516.045 85.6934 516.045 86.1784C516.045 86.5826 516.045 86.9867 516.045 87.3909C516.045 87.7142 516.045 88.0376 516.045 88.2801C516.045 88.4417 516.045 88.6842 516.045 88.8459C516.045 89.0075 516.045 89.0884 516.045 89.25C516.045 89.4117 515.964 89.4117 515.883 89.4925C515.803 89.5734 515.641 89.5734 515.56 89.5734C515.48 89.5734 515.399 89.5734 515.237 89.4925C515.157 89.4925 515.076 89.4117 514.995 89.3308V89.25C514.995 89.0884 514.995 89.0075 514.995 88.8459C514.995 88.6842 514.995 88.4417 514.995 88.2801C514.995 87.9567 514.995 87.7142 514.995 87.3909C514.995 86.9867 514.995 86.6634 514.995 86.2593C514.995 85.7743 514.995 85.3701 514.995 84.8851C514.995 84.4001 514.995 83.8343 514.995 83.3493C514.995 82.7835 514.995 82.2177 514.995 81.7327C514.995 81.1669 514.995 80.6011 514.995 80.0352C514.995 79.4694 514.995 78.8228 514.995 78.257C514.995 77.6911 514.995 77.1253 514.995 76.4787C514.995 75.9128 514.995 75.347 514.995 74.7812C514.995 74.2154 514.995 73.7304 514.995 73.1646C514.995 72.6796 514.995 72.1946 514.995 71.7096C514.995 71.3055 514.995 70.9013 514.995 70.4971C514.995 70.1738 514.995 69.8505 514.995 69.5272C514.995 69.2847 514.995 69.0422 514.995 68.7997C514.995 68.638 514.995 68.5572 514.995 68.3955C514.995 68.3955 514.995 68.3955 514.995 68.3147C515.076 67.7489 515.318 67.3447 515.56 67.3447Z" fill="#6D61AA"/>
<path d="M499.087 64.1924C499.329 64.1924 499.571 64.5965 499.571 65.1623C499.571 65.2432 499.571 65.324 499.571 65.4049C499.571 65.5665 499.571 65.809 499.571 65.9707C499.571 66.294 499.571 66.6173 499.571 66.8598C499.571 67.264 499.571 67.6681 499.571 68.0723C499.571 68.5573 499.571 69.0422 499.571 69.5272C499.571 70.0931 499.571 70.578 499.571 71.1439C499.571 71.7097 499.571 72.2755 499.571 72.8413C499.571 73.4071 499.571 74.0538 499.571 74.6196C499.571 75.2663 499.571 75.8321 499.571 76.4787C499.571 77.0446 499.571 77.6912 499.571 78.257C499.571 78.8229 499.571 79.3887 499.571 79.9545C499.571 80.5203 499.571 81.0053 499.571 81.5711C499.571 82.0561 499.571 82.5411 499.571 83.0261C499.571 83.4302 499.571 83.8344 499.571 84.2386C499.571 84.5619 499.571 84.8852 499.571 85.1277C499.571 85.2894 499.571 85.5318 499.571 85.6935C499.571 85.8552 499.571 85.936 499.571 86.0977C499.571 86.2593 499.491 86.2593 499.41 86.3402C499.329 86.421 499.168 86.421 499.087 86.421C499.006 86.421 498.925 86.421 498.764 86.3402C498.683 86.3402 498.602 86.2593 498.521 86.1785V86.0977C498.521 85.936 498.521 85.8552 498.521 85.6935C498.521 85.5318 498.521 85.2894 498.521 85.1277C498.521 84.8044 498.521 84.5619 498.521 84.2386C498.521 83.8344 498.521 83.5111 498.521 83.1069C498.521 82.6219 498.521 82.2178 498.521 81.7328C498.521 81.2478 498.521 80.682 498.521 80.197C498.521 79.6312 498.521 79.0653 498.521 78.5804C498.521 78.0145 498.521 77.4487 498.521 76.8829C498.521 76.3171 498.521 75.6704 498.521 75.1046C498.521 74.5388 498.521 73.973 498.521 73.3263C498.521 72.7605 498.521 72.1947 498.521 71.6289C498.521 71.063 498.521 70.578 498.521 70.0122C498.521 69.5272 498.521 69.0423 498.521 68.5573C498.521 68.1531 498.521 67.749 498.521 67.3448C498.521 67.0215 498.521 66.6981 498.521 66.3748C498.521 66.1323 498.521 65.8898 498.521 65.6473C498.521 65.4857 498.521 65.4048 498.521 65.2432C498.521 65.2432 498.521 65.2432 498.521 65.1623C498.602 64.5965 498.764 64.1924 499.087 64.1924Z" fill="#6D61AA"/>
<path d="M482.775 67.2637C483.017 67.2637 483.259 67.6678 483.259 68.2337C483.259 68.3145 483.259 68.3953 483.259 68.4761C483.259 68.6378 483.259 68.8803 483.259 69.042C483.259 69.3653 483.259 69.6078 483.259 69.9311C483.259 70.3353 483.259 70.7394 483.259 71.1436C483.259 71.6286 483.259 72.1136 483.259 72.5177C483.259 73.0835 483.259 73.5685 483.259 74.1343C483.259 74.7002 483.259 75.266 483.259 75.8318C483.259 76.3976 483.259 77.0443 483.259 77.6101C483.259 78.1759 483.259 78.8226 483.259 79.3884C483.259 79.9542 483.259 80.6009 483.259 81.1667C483.259 81.7325 483.259 82.2983 483.259 82.8641C483.259 83.4299 483.259 83.9149 483.259 84.4807C483.259 84.9657 483.259 85.4507 483.259 85.9357C483.259 86.3399 483.259 86.744 483.259 87.1482C483.259 87.4715 483.259 87.7949 483.259 88.0373C483.259 88.199 483.259 88.4415 483.259 88.6031C483.259 88.7648 483.259 88.8456 483.259 89.0073C483.259 89.169 483.178 89.169 483.098 89.2498C483.017 89.3306 482.855 89.3306 482.775 89.3306C482.694 89.3306 482.613 89.3306 482.452 89.2498C482.371 89.2498 482.29 89.169 482.209 89.0881V89.0073C482.209 88.8456 482.209 88.7648 482.209 88.6031C482.209 88.4415 482.209 88.199 482.209 88.0373C482.209 87.714 482.209 87.4715 482.209 87.1482C482.209 86.744 482.209 86.4207 482.209 86.0166C482.209 85.5316 482.209 85.1274 482.209 84.6424C482.209 84.1574 482.209 83.5916 482.209 83.1066C482.209 82.5408 482.209 81.975 482.209 81.49C482.209 80.9242 482.209 80.3584 482.209 79.7925C482.209 79.2267 482.209 78.6609 482.209 78.0142C482.209 77.4484 482.209 76.8826 482.209 76.236C482.209 75.6701 482.209 75.1043 482.209 74.5385C482.209 73.9727 482.209 73.4877 482.209 72.9219C482.209 72.4369 482.209 71.9519 482.209 71.4669C482.209 71.0628 482.209 70.6586 482.209 70.2544C482.209 69.9311 482.209 69.6078 482.209 69.2845C482.209 69.042 482.209 68.7995 482.209 68.557C482.209 68.3953 482.209 68.3145 482.209 68.1528C482.209 68.1528 482.209 68.1528 482.209 68.072C482.29 67.6678 482.532 67.2637 482.775 67.2637Z" fill="#6D61AA"/>
<path d="M480.514 65.9707C480.514 68.1532 488.912 69.9314 499.248 69.9314C509.585 69.9314 517.983 68.1532 517.983 65.9707V66.4557C517.983 68.6381 509.665 70.4164 499.329 70.4164C488.993 70.4164 480.917 68.719 480.594 66.5365L480.514 65.9707Z" fill="#6D61AA"/>
<path d="M499.249 70.0113C509.596 70.0113 517.983 68.238 517.983 66.0506C517.983 63.8631 509.596 62.0898 499.249 62.0898C488.902 62.0898 480.514 63.8631 480.514 66.0506C480.514 68.238 488.902 70.0113 499.249 70.0113Z" fill="#F0E8F5"/>
<path d="M585.088 62.1715L570.23 59.6657L569.503 53.1184L569.341 49.4001L569.745 41.8828L582.746 42.287L583.958 43.0953L584.604 45.3586L584.2 49.2385L584.038 52.9567L584.2 56.0283L584.523 59.0999L585.088 62.1715Z" fill="#6753A5"/>
<path d="M570.23 59.6655L570.714 59.5038C570.714 59.5038 569.988 56.5939 569.826 55.0581C569.422 51.9865 569.422 48.5916 569.826 44.3075V44.2267C569.907 43.0951 570.068 41.8018 569.503 40.751C569.18 40.1851 568.534 39.6193 567.807 39.781C567 40.0235 566.677 40.9934 566.515 41.7209C566.515 41.8017 566.435 41.8826 566.435 41.9634L566.919 42.1251C566.919 42.0442 567 41.9634 567 41.8826C567.161 41.3168 567.484 40.4276 567.969 40.3468C568.373 40.266 568.857 40.5893 569.019 40.9934C569.503 41.9634 569.422 43.0951 569.342 44.2267V44.3075C568.938 48.6724 568.938 52.1482 569.342 55.2198C569.584 56.7556 570.23 59.5847 570.23 59.6655Z" fill="white"/>
<path d="M583.312 42.2865L582.747 42.1248L568.292 39.7807C568.292 39.7807 567.081 39.3766 566.435 41.9632L581.293 44.4689C581.293 44.4689 581.616 43.499 581.616 43.4181C581.778 43.0948 582.02 42.7715 582.343 42.529C582.666 42.2865 582.989 42.2865 583.312 42.2865Z" fill="#F0E8F5"/>
<path d="M583.797 79.5489C583.877 79.5489 583.877 79.5489 583.797 79.5489C584.12 79.5489 584.281 79.3064 584.281 79.0639L581.616 46.4081C581.616 46.1656 581.374 46.0039 581.132 46.0039C580.889 46.0039 580.728 46.2464 580.728 46.4889L583.393 79.1448C583.393 79.3064 583.635 79.5489 583.797 79.5489Z" fill="#8479C9"/>
<path d="M576.367 87.1481C576.61 87.1481 576.771 86.9864 576.852 86.7439L577.336 66.2936C577.336 66.0511 577.175 65.8086 576.933 65.8086C576.69 65.8086 576.448 65.9703 576.448 66.2128L575.883 86.6631C575.883 86.9056 576.125 87.1481 576.367 87.1481Z" fill="#8479C9"/>
<path d="M561.589 82.5411C561.831 82.5411 561.993 82.3794 561.993 82.137L565.304 63.7882C565.384 63.5458 565.223 63.3033 564.981 63.3033C564.738 63.2224 564.496 63.3841 564.496 63.6266L561.185 81.9753C561.104 82.2178 561.266 82.4603 561.589 82.5411C561.508 82.4603 561.508 82.5411 561.589 82.5411Z" fill="#8479C9"/>
<path d="M581.373 44.3886L578.224 66.6172L563.042 63.384L566.515 41.8828L581.373 44.3886Z" fill="#F0E8F5"/>
<path d="M581.374 44.3884C581.535 43.5801 581.939 42.5293 582.746 42.2868C583.473 42.0443 584.119 42.6101 584.442 43.2568C585.007 44.3076 584.927 45.6009 584.765 46.7325V46.8134C584.361 51.0974 584.361 54.5732 584.765 57.5639C584.927 59.0997 585.653 61.848 585.653 61.9288L585.169 62.1713C585.169 62.0905 584.442 59.2614 584.281 57.6448C583.877 54.5732 583.877 51.0974 584.281 46.7325V46.6517C584.361 45.52 584.523 44.3884 583.958 43.4184C583.715 43.0143 583.312 42.6101 582.908 42.7718C581.777 43.0951 581.777 45.6009 581.616 46.5709C581.374 48.3491 581.131 50.0466 580.889 51.8249C580.566 53.9265 580.243 56.1089 580.001 58.2106C579.758 60.0697 579.435 61.9288 579.193 63.7071C579.032 64.5963 579.032 65.0812 578.87 65.9704L578.789 66.3745L578.305 66.617C578.386 65.8896 578.466 65.1621 578.628 64.5154C578.87 62.818 579.113 61.0397 579.355 59.3422C579.678 57.2406 579.92 55.139 580.243 53.0374C580.485 51.1782 580.728 49.3191 581.051 47.46C581.212 46.49 581.293 45.4392 581.454 44.4692C581.374 44.4692 581.374 44.4693 581.374 44.3884Z" fill="#8479C9"/>
<path d="M533.729 43.9838C533.729 46.8937 536.96 49.2378 540.836 49.2378C543.258 49.2378 545.439 48.3487 546.731 46.9745C546.973 46.732 549.476 46.5704 549.153 46.4087C548.669 46.0854 547.7 45.4387 547.78 45.1154C547.861 44.7921 547.942 44.3879 547.942 44.0646C547.942 41.1547 544.712 38.8105 540.836 38.8105C536.96 38.8105 533.729 41.1547 533.729 43.9838Z" fill="#E4DAEA"/>
<path d="M552.868 41.5593C552.464 42.9335 551.98 46.0859 552.464 46.5709H555.614C556.744 46.4092 557.713 45.4392 557.713 44.2268V41.9635C557.713 40.6702 556.664 39.6194 555.371 39.6194H555.129C553.999 39.5385 553.03 40.4277 552.868 41.5593Z" fill="#2F1A70"/>
<path d="M556.503 43.7412C556.987 43.1754 557.31 42.4479 557.31 41.6396C557.149 39.2955 553.918 39.8613 553.272 40.993C552.626 42.2054 552.707 45.1154 553.515 45.3578C553.838 45.4387 554.565 45.1962 555.211 44.792L554.807 47.9445H557.391L556.503 43.7412Z" fill="#E4DAEA"/>
<path d="M555.774 43.3374C555.694 44.6307 555.694 46.0857 556.097 46.4898H559.247C559.408 43.4182 557.713 44.6307 557.713 41.7208C557.632 41.6399 557.47 41.4783 557.39 41.3974V41.3166C556.824 40.185 556.178 39.6191 555.29 39.6191C553.998 39.6191 553.594 40.185 553.271 40.67C553.513 41.5591 554.482 41.6399 555.371 42.2058C555.451 42.1249 555.613 42.0441 555.774 42.0441C556.097 42.0441 556.34 42.2866 556.34 42.6099C556.34 42.9332 556.178 43.3374 555.774 43.3374C555.855 43.3374 555.855 43.3374 555.774 43.3374Z" fill="#2F1A70"/>
<path d="M559.086 81.8136C559.167 81.7328 559.247 81.652 559.409 81.7328C559.651 81.8945 559.893 81.9753 560.055 81.9753C560.216 81.9753 560.539 81.9753 560.862 81.8945L561.105 81.4903C561.105 81.4095 561.185 81.4095 561.266 81.4903L563.931 83.0261C564.173 83.1069 564.416 83.1878 564.739 83.2686C565.062 83.3494 565.142 83.5919 564.9 84.0769C561.105 83.5919 559.086 83.2686 558.844 83.2686C558.844 82.9453 558.844 82.6219 558.844 82.4603C558.844 82.2986 558.924 82.0561 559.086 81.8136Z" fill="#8479C9"/>
<path d="M554.16 70.9009C554.16 70.82 554.16 70.82 554.16 70.7392C554.079 69.8501 551.657 59.4228 551.657 57.6445L552.868 57.9679L558.844 58.7762C559.086 60.1503 559.813 68.3951 559.813 70.0117C560.297 72.6792 560.863 81.0856 560.943 81.6514C561.105 82.2981 559.732 82.7022 559.49 81.9748C559.086 80.7623 558.279 77.3674 557.956 75.2658C557.633 73.3258 557.471 71.6284 557.39 70.6584C557.39 70.6584 557.39 70.5775 557.309 70.4967C557.229 70.3351 557.067 69.8501 556.825 69.2034C556.744 69.7692 556.744 70.2542 556.663 70.5776C556.663 73.245 555.775 81.6514 555.856 82.2173C555.856 82.8639 554.402 83.1064 554.322 82.2981C554.16 81.0048 553.918 77.529 553.918 75.5083C553.999 73.5683 554.079 71.8708 554.16 70.9009Z" fill="#F0E8F5"/>
<path d="M553.999 82.1368C554.08 82.056 554.241 82.056 554.322 82.1368C554.564 82.2985 554.726 82.4601 554.887 82.4601C555.049 82.541 555.372 82.541 555.695 82.4601L556.018 82.1368C556.018 82.056 556.098 82.056 556.179 82.1368L558.521 84.0767C558.763 84.1576 559.005 84.3192 559.328 84.4001C559.651 84.5617 559.651 84.8042 559.328 85.2084C555.614 84.1576 553.676 83.5918 553.433 83.5109C553.514 83.1876 553.514 82.8643 553.595 82.7026C553.595 82.541 553.757 82.3793 553.999 82.1368Z" fill="#8479C9"/>
<path d="M551.817 57.0788C554.24 56.3513 556.582 56.3513 558.762 57.0788C559.489 60.5546 561.346 61.9287 561.669 67.1827V67.2636C561.508 67.3444 561.346 67.4252 561.265 67.4252C559.731 68.3952 558.116 68.7994 556.42 68.7994C554.563 68.7994 552.302 68.3952 549.637 67.6677C549.718 67.5869 549.799 67.5869 549.879 67.5869C549.799 67.5869 549.718 67.6677 549.637 67.6677C548.506 65.162 550.041 59.1804 551.817 57.0788Z" fill="#6753A5"/>
<path d="M562.315 52.7145L566.595 52.1487C567.484 51.6637 568.21 51.3404 568.937 51.1787C569.179 51.1787 569.502 51.2595 569.018 51.6637C568.533 52.0678 568.049 52.472 568.13 52.7145C568.21 52.957 568.695 52.8762 568.776 53.1995C568.856 53.442 568.13 53.442 566.595 53.2803L563.123 54.6545L562.315 52.7145ZM548.83 53.6845H551.171C548.587 59.5852 547.215 62.6568 547.053 62.8993C546.811 63.5459 547.295 64.435 547.538 65.0009C546.811 65.3242 546.892 64.1117 545.922 64.5159C545.034 64.92 544.388 65.6475 543.419 65.0009C543.258 64.92 543.177 64.6775 543.5 64.4351C544.307 63.8692 545.438 62.8993 545.599 62.5759C545.922 62.2526 546.972 59.2618 548.83 53.6845Z" fill="#E4DAEA"/>
<path d="M554.24 45.6016H554.402L557.228 46.2482C557.228 46.329 557.228 46.4907 557.228 46.5715C557.794 50.5323 560.297 53.0381 565.707 52.1489L566.434 57.4838C563.689 57.8071 561.024 57.4029 559.086 56.1096C559.247 56.6755 559.409 57.2413 559.489 57.8071H553.433H551.899C551.818 59.0196 551.737 60.3129 551.656 61.6062H545.923C547.377 54.7355 550.122 49.4006 554.24 45.6016Z" fill="#ADA8D4"/>
<path d="M457.338 73.002H465.736L466.786 86.5008H454.27L457.338 73.002Z" fill="#F0E8F5"/>
<path d="M457.338 73.002H459.922L461.457 86.5008H454.27L457.338 73.002Z" fill="#F0E8F5" fill-opacity="0.1"/>
<path d="M479.303 85.9347C477.041 83.1864 475.507 81.0848 474.7 79.7106C473.327 77.3665 472.196 75.3458 471.873 74.5374C470.985 72.6783 473.811 71.7892 474.457 72.6783C475.426 73.9716 477.445 78.1749 480.595 85.1264L479.303 85.9347Z" fill="#493A87"/>
<path d="M478.333 85.5314C478.171 85.8548 478.171 86.0973 478.171 86.3397C478.171 86.5822 478.171 86.8247 478.252 87.2289C478.494 87.2289 480.674 87.2289 484.793 87.2289C484.954 86.6631 484.874 86.3397 484.47 86.3397C484.066 86.2589 483.824 86.2589 483.582 86.2589L480.513 84.8848C480.432 84.8848 480.351 84.8848 480.351 84.9656L480.19 85.4506C479.867 85.6123 479.544 85.6931 479.382 85.6931C479.221 85.6931 478.979 85.6123 478.656 85.4506C478.494 85.3698 478.413 85.4506 478.333 85.5314Z" fill="#E4E4E4"/>
<path d="M457.983 67.3447H464.282C465.09 67.5872 468.562 69.0422 474.699 71.7905C475.426 72.1946 475.588 73.0029 475.507 73.7304C477.203 76.8828 479.706 82.3794 480.11 82.9452L474.619 85.1276L472.438 79.5503C471.711 80.8436 470.823 82.2985 469.854 84.0768L466.705 82.056C466.301 82.3793 465.897 82.7027 465.574 83.026L465.655 82.9452C465.736 82.9452 465.816 82.9452 465.816 82.9452L467.755 85.6126C467.916 85.7743 468.158 85.9359 468.481 86.1784C468.804 86.4209 468.724 86.7443 468.32 87.1484C464.767 85.1276 462.909 83.996 462.667 83.9152C462.829 83.511 462.909 83.2685 463.071 83.1068C463.152 82.9452 463.313 82.7835 463.636 82.541C463.717 82.4602 463.798 82.4602 463.798 82.541C464.121 82.1369 464.444 81.571 464.928 81.0052L464.767 80.8436L468.966 75.4279C469.047 75.1854 469.047 75.1045 468.966 75.0237C465.413 74.4579 463.071 74.0537 461.86 73.8112C458.387 73.2454 457.337 71.3863 457.983 67.3447Z" fill="#6D61AA"/>
<path d="M461.376 53.281C460.811 52.6343 460.488 51.9068 460.569 51.0177C460.73 48.5119 464.203 49.0777 464.849 50.371C465.495 51.5835 465.414 54.8167 464.607 54.9784C464.284 55.0592 463.557 54.8168 462.749 54.4126L463.234 57.7267H460.488L461.376 53.281Z" fill="#493A87"/>
<path d="M461.214 53.8453C460.891 52.3095 459.841 51.2587 460.002 50.5313C460.083 50.0463 460.406 49.8038 460.81 49.6421C461.052 48.753 461.779 48.3488 462.99 48.5105C464.847 48.753 465.978 49.4805 465.493 51.1779C465.009 51.1779 464.524 51.0163 463.717 51.2588C463.475 51.3396 463.313 51.5821 463.232 52.0671H462.909C462.586 51.5012 462.263 51.3396 461.94 51.5012C461.617 51.6629 461.537 51.9862 461.698 52.552L461.537 53.8453H461.214Z" fill="#8479C9"/>
<path d="M468.481 67.9095L472.115 69.4453C473.165 70.6577 473.73 71.1427 473.811 70.9811C473.972 70.6577 473.568 70.4152 473.649 70.1727C473.73 69.9303 474.457 70.0111 475.103 70.0111C475.749 70.0919 475.587 69.7686 475.426 69.6069C474.78 69.2028 473.891 68.8795 472.922 68.637L469.208 65.8887L468.481 67.9095ZM453.622 73.3252C453.461 73.6485 452.25 74.6993 451.361 75.2651C451.038 75.5076 451.2 75.831 451.28 75.9118C452.33 76.5584 453.057 75.8309 453.945 75.346C454.914 74.861 454.834 76.1543 455.641 75.8309C455.399 75.2651 454.834 74.2951 455.076 73.6485C455.157 73.3252 455.964 70.8194 457.498 65.9695H455.076C454.349 70.4152 453.865 72.921 453.622 73.3252Z" fill="#915B3C"/>
<path d="M458.225 66.7773C458.467 68.6365 458.79 69.9298 459.275 70.7381H456.691C457.175 69.6873 457.66 68.3131 458.225 66.7773Z" fill="#EA931F"/>
<path d="M462.02 55.7847L462.989 55.623C466.704 58.8563 468.238 64.9995 472.76 68.2327L471.63 69.6069C463.797 68.6369 461.858 61.1196 462.02 55.7847Z" fill="#2F1A70"/>
<path d="M457.66 68.3943C461.698 68.3943 464.605 68.3943 466.543 68.3943C466.947 68.3943 466.866 67.8284 466.785 67.5051C466.139 64.1102 463.474 60.392 463.474 55.6229L460.89 55.2188C458.79 58.6137 458.064 62.7361 457.66 68.3943Z" fill="#DDE3E9"/>
<path d="M457.742 58.5326C457.338 58.4518 457.096 58.2093 456.853 57.8051C455.884 56.1077 456.288 55.2185 457.257 54.8952C458.226 54.5719 459.114 55.2185 460.729 55.2185C460.81 55.2185 460.891 55.2185 460.972 55.2185L461.779 55.2994C464.04 63.0592 464.686 68.2324 463.637 70.8998H456.692C456.288 71.8698 455.884 72.6781 455.481 73.3248H453.542C453.462 67.4241 454.834 62.5742 457.742 58.5326Z" fill="#3E2884"/>
<path d="M644.361 52.9564C644.361 55.1389 642.827 56.998 640.485 58.2105C639.92 58.453 640.324 60.1504 640.162 60.3929C640.081 60.6354 638.062 59.0996 637.739 59.0996C636.851 59.3421 635.882 59.4229 634.832 59.4229C629.583 59.4229 625.384 56.513 625.384 52.9564C625.384 49.3999 629.583 46.4899 634.832 46.4899C640.162 46.4091 644.361 49.319 644.361 52.9564Z" fill="#E4DAEA"/>
<path d="M654.616 81.8125H645.894L644.764 95.7155H657.684L654.616 81.8125Z" fill="#F0E8F5"/>
<path d="M647.026 68.3937H644.442L644.846 65.3221C644.119 65.7262 643.473 65.9687 643.15 65.8879C642.343 65.6454 642.262 62.7355 642.908 61.6038C643.554 60.4722 646.703 59.9872 646.865 62.2505C646.946 63.0588 646.623 63.7054 646.138 64.3521L647.026 68.3937Z" fill="#8479C9"/>
<path d="M642.988 61.0393C642.826 61.3626 642.907 61.7668 643.553 61.6859C644.118 62.4134 645.007 62.8984 645.087 62.8984C645.087 62.8984 645.491 62.4134 645.814 62.5751C646.218 62.8176 646.137 63.3026 645.895 63.6259C645.814 63.7876 645.572 64.1109 645.895 64.2725C646.379 64.5959 647.591 63.8684 647.752 63.2217C648.156 62.0093 647.591 60.3926 646.299 60.1501C646.379 59.9077 646.702 59.8268 646.945 59.8268C647.429 59.746 647.994 59.8268 648.56 59.9076C649.206 60.0693 649.852 60.231 650.498 60.231C650.821 60.231 651.144 60.1501 651.467 60.0693C651.79 59.9885 652.032 59.746 652.355 59.5843C652.597 59.4227 652.92 59.4227 653.243 59.5035C653.566 59.5843 653.809 59.746 654.132 59.8268C654.697 60.1501 655.262 60.5543 655.908 60.716C656.393 60.8776 656.877 60.9585 657.362 60.9585C658.25 60.9585 659.3 60.7968 659.865 60.0693C660.269 59.5843 660.269 58.9377 660.027 58.3718C659.784 57.806 659.381 57.4827 658.896 57.1594C658.412 56.8361 657.846 56.5936 657.2 56.5127C656.554 56.4319 655.908 56.6744 655.343 56.9977C654.778 57.321 654.293 57.6444 653.647 57.806C653.001 57.8869 652.355 57.806 651.709 57.6444C651.063 57.4019 650.417 57.2402 649.771 57.1594C649.125 57.0785 648.479 57.1594 647.833 57.4019C647.268 57.6444 646.864 58.0485 646.541 58.5335C646.379 58.776 646.299 59.0993 646.218 59.4226C646.218 59.5035 646.137 59.6652 646.137 59.746C646.137 59.8268 646.137 59.9885 646.056 60.0693C645.976 60.1501 645.895 60.1501 645.733 60.1501C645.572 60.1501 644.684 60.1501 644.361 60.231C643.957 60.3926 643.149 60.7968 642.988 61.0393Z" fill="#3E2884"/>
<path d="M631.36 94.0991C631.522 93.2099 631.602 92.4016 631.764 91.5933H631.522C631.764 90.9466 632.571 82.2168 633.864 80.4386C634.025 80.0344 636.932 79.0644 642.585 77.6095C642.989 77.4478 643.312 77.367 643.554 77.2861H643.877H644.684H649.287C649.853 80.9235 648.884 82.621 645.734 83.1868C645.25 83.2677 644.684 83.3485 644.038 83.5102L646.057 84.2376V84.3185C646.703 84.561 647.268 84.7226 647.753 84.8843C647.753 84.8034 647.834 84.8035 647.914 84.8035C648.237 84.8035 648.48 84.8843 648.641 84.9651C648.803 85.0459 649.045 85.2076 649.368 85.4501C649.287 85.6118 648.399 87.4709 646.784 90.8658C646.219 90.785 646.057 90.5425 646.138 90.2192C646.219 89.8958 646.299 89.6533 646.38 89.4108L646.461 86.3393C646.461 86.2584 646.542 86.2584 646.542 86.2584H646.622C646.299 86.2584 645.896 86.1776 645.411 86.0967V86.1776C644.281 85.8543 641.131 86.6626 637.013 85.5309C636.044 87.7942 634.51 89.6533 633.864 91.9975H633.621C633.298 92.8058 632.894 93.6949 632.491 94.584L631.36 94.0991Z" fill="#6753A5"/>
<path d="M633.298 93.9377C633.218 93.8568 633.137 93.776 633.056 93.8568C632.814 94.0185 632.572 94.0185 632.41 94.0185C632.249 94.0185 631.926 93.9376 631.683 93.776L631.522 93.3718C631.522 93.291 631.441 93.291 631.36 93.291L628.615 94.5035C628.372 94.5035 628.13 94.5843 627.807 94.5843C627.484 94.6651 627.403 94.9076 627.565 95.3926C631.36 95.3926 633.298 95.3926 633.541 95.3926C633.621 94.9885 633.621 94.746 633.621 94.5843C633.46 94.5035 633.379 94.261 633.298 93.9377Z" fill="#E4E4E4"/>
<path d="M638.143 74.2958L634.267 72.5983C633.621 71.9517 632.975 71.3859 632.329 71.0625C632.167 70.9817 631.844 70.9817 632.167 71.4667C632.49 71.9517 632.813 72.5175 632.733 72.6792C632.652 72.8408 632.167 72.6792 632.006 72.9216C631.925 73.0833 632.571 73.3258 634.025 73.5683L636.932 75.7507L638.143 74.2958ZM653.648 74.7808L651.467 75.1849C653.648 79.2265 654.859 81.4089 655.02 81.6514C655.343 82.2172 655.02 83.1872 654.94 83.753C655.747 83.9147 655.424 82.7831 656.393 83.0256C657.282 83.2681 658.008 83.8339 658.897 83.0256C658.977 82.9447 659.058 82.6214 658.735 82.4597C657.847 82.0556 656.555 81.4089 656.393 81.0856C656.07 80.7623 655.182 78.6607 653.648 74.7808Z" fill="#6D61AA"/>
<path d="M642.424 77.2056C640.728 78.1756 636.69 76.4782 634.752 74.3765L635.398 72.9216C637.498 73.6491 639.274 74.2149 640.566 73.6491C641.858 73.0024 642.747 68.395 644.685 66.4551L645.573 66.6168C645.654 69.85 645.089 75.6698 642.424 77.2056Z" fill="#6753A5"/>
<path d="M646.623 66.0508L644.281 66.4549C644.281 70.9007 641.858 74.2956 641.212 77.3672C641.132 77.6097 641.051 78.1755 641.455 78.1755C643.15 78.1755 645.896 78.1755 649.611 78.1755C649.207 73.0023 648.561 69.2032 646.623 66.0508Z" fill="#DDE3E9"/>
<path d="M651.387 80.3579H644.038C643.069 77.933 643.635 73.1639 645.815 66.0508H646.703C651.952 69.284 655.102 74.2956 656.232 81.0854L654.536 81.4087C653.406 80.1154 652.033 77.933 650.337 74.9422C650.902 76.8014 651.306 78.6605 651.387 80.3579Z" fill="#6753A5"/>
<path d="M653.001 97.9768C653.082 97.4109 653.324 96.8451 653.405 96.2793C653.485 95.471 653.405 94.6627 653.485 93.8543C653.485 93.2885 653.647 92.8035 653.97 92.3186C654.131 91.9952 654.374 91.7527 654.697 91.5911C654.939 91.4294 655.262 91.2678 655.504 91.2678C655.989 90.9444 656.958 90.7828 657.523 90.6211C657.442 90.8636 657.119 91.1869 657.038 91.3486C657.038 91.4294 657.038 91.5911 656.715 91.5911C656.635 91.6719 656.473 91.6719 656.392 91.6719C656.231 91.6719 656.069 91.6719 655.989 91.7527C655.262 91.8336 654.697 92.6419 654.616 93.4502C654.535 94.1777 654.697 94.9052 654.858 95.5518C654.939 95.8751 654.858 96.1985 654.858 96.5218C654.858 96.6026 654.858 96.6835 654.858 96.8451C654.858 97.0068 654.777 97.1685 654.777 97.3301C654.697 98.0576 654.697 98.7851 655.262 99.3509C654.777 99.3509 654.374 99.1892 653.889 99.1084C653.162 99.0276 652.92 98.7042 653.001 97.9768Z" fill="#E4DAEA"/>
<path d="M658.248 90.6219C660.025 90.6219 661.882 90.541 663.659 90.6219C663.82 90.9452 663.82 91.2685 663.901 91.5918C663.901 91.6727 663.901 91.8343 663.739 91.8343C663.013 91.9152 662.286 91.996 661.559 91.996C660.509 92.0768 659.54 91.9152 658.49 91.8343C658.006 91.8343 658.006 91.7535 658.087 91.2685C658.248 91.026 658.167 90.7835 658.248 90.6219Z" fill="#E4DAEA"/>
<path d="M667.779 91.8341C668.344 92.3999 668.586 93.0466 668.667 93.8549C668.748 94.6632 668.586 95.4715 668.748 96.2798C668.748 96.4415 668.828 96.6031 668.909 96.7648C668.99 97.169 669.151 97.654 669.232 98.1389C669.232 98.6239 669.071 99.0281 668.667 99.1089C668.102 99.2706 667.536 99.4322 666.971 99.4322C667.213 99.1089 667.456 98.7047 667.456 98.3006C667.456 97.8964 667.375 97.4114 667.375 97.0073C667.375 96.9265 667.375 96.9265 667.294 96.8456C667.133 95.9565 667.375 95.1482 667.536 94.259C667.617 93.6124 667.617 92.9657 667.213 92.3191C666.89 91.9149 666.567 91.7533 666.002 91.6724C665.598 91.5916 665.598 91.5916 665.356 91.5108C665.275 91.5108 665.195 91.5107 665.195 91.3491C665.114 91.1066 664.872 90.7833 664.791 90.46C665.356 90.5408 666.083 90.7833 666.567 91.1066C666.971 91.3491 667.375 91.5108 667.779 91.8341Z" fill="#E4DAEA"/>
<path d="M654.778 97.4129C654.697 98.1404 654.697 98.8678 655.262 99.4337C655.747 99.6761 656.231 99.757 656.716 99.6762C658.815 99.5953 660.915 99.5145 663.015 99.5953C663.903 99.5953 664.791 99.5953 665.599 99.6762C666.083 99.757 666.487 99.5953 666.891 99.3528C667.133 99.0295 667.375 98.6253 667.375 98.2212C667.375 97.817 667.295 97.3321 667.295 96.9279C667.295 96.8471 667.295 96.8471 667.214 96.7662C667.052 95.8771 667.295 95.0688 667.456 94.1796C667.537 93.533 667.537 92.8863 667.133 92.2397C666.972 91.9972 666.81 91.8355 666.568 91.7547C666.568 91.7547 665.841 91.4314 665.276 91.4314C665.195 91.4314 665.114 91.4314 665.114 91.2697C664.953 90.8655 664.791 90.4614 664.549 90.0572C664.307 89.6531 664.064 89.3297 663.822 88.9256C663.661 88.6831 663.499 88.5214 663.338 88.2789C663.257 88.1981 663.176 88.0364 663.095 87.9556C663.095 87.8748 662.934 87.6323 662.853 87.6323C662.934 87.309 662.853 87.1473 662.53 86.9048C662.207 86.7431 661.884 86.6623 661.561 86.6623C660.915 86.6623 660.269 86.5815 659.623 86.9048C659.219 87.0665 659.138 87.2281 659.219 87.6323C658.412 88.7639 657.523 89.8956 657.039 91.1889C657.039 91.2697 656.958 91.3505 656.877 91.3505C656.554 91.3505 656.554 91.2697 655.908 91.4314C655.101 91.7547 654.697 92.3205 654.616 93.2097C654.536 93.9371 654.697 94.6646 654.859 95.3113C654.939 95.6346 654.859 95.9579 654.859 96.2812C654.939 96.2812 655.02 96.3621 655.101 96.4429C655.02 96.3621 654.939 96.3621 654.859 96.2812V96.6046C654.859 97.0895 654.778 97.2512 654.778 97.4129ZM663.822 91.7547C663.095 91.8355 662.369 91.9163 661.642 91.9163C660.592 91.9972 659.623 91.8355 658.573 91.7547C658.089 91.7547 658.089 91.6739 658.169 91.1889C658.25 90.7847 658.412 90.2997 658.654 89.8956C658.977 89.3297 659.3 88.7639 659.623 88.1981C660.431 87.7131 661.319 87.6323 662.126 88.0364C662.207 88.1173 662.288 88.1173 662.369 88.1173C662.611 88.5214 662.772 88.8448 663.015 89.2489C663.418 89.9764 663.822 90.7039 663.903 91.5122C663.984 91.6739 663.984 91.7547 663.822 91.7547ZM660.915 98.4637C661.48 98.4637 662.046 98.4637 662.611 98.3829C662.046 98.3829 661.48 98.4637 660.915 98.4637Z" fill="#8479C9"/>
<path d="M625.385 86.7441H631.441H634.106L637.175 100.647H629.826H624.254L625.385 86.7441Z" fill="#F0E8F5"/>
<path d="M616.181 83.3496C616.665 84.1579 617.876 86.5021 619.168 89.1695C619.895 90.7861 620.864 93.4536 621.995 97.3335L620.541 97.9801C617.876 93.6961 615.858 90.382 614.566 88.0379C614.646 88.7654 614.727 89.4928 614.808 90.2203C615.05 92.8069 614.808 98.4651 614.646 100.082C614.566 101.133 613.193 100.809 613.031 100.001C612.87 99.1926 610.447 86.2596 610.447 83.5113C610.447 82.4605 612.789 81.6522 613.677 82.8646C614.404 82.3797 615.535 82.218 616.181 83.3496Z" fill="#F0E8F5"/>
<path d="M618.603 96.3644C618.361 95.5561 613.515 87.2305 612.546 84.6439C612.143 83.5122 615.534 81.1681 616.745 83.1081L621.833 95.1519L618.603 96.3644Z" fill="#ADA8D4"/>
<path d="M611.981 82.2182C614 81.8949 618.199 81.4099 624.579 80.6016H632.089C631.927 85.1281 630.393 87.4722 626.517 87.3106C623.852 87.2297 614.888 85.8556 614.646 85.9364C614.565 86.0173 614.808 89.493 615.454 96.5254L611.82 96.687C611.82 95.9595 610.286 87.8764 610.286 84.4815C610.286 83.5115 610.689 82.3799 611.981 82.2182Z" fill="#C0B9DB"/>
<path d="M615.05 100.325C614.969 100.163 614.807 100.163 614.727 100.163C614.404 100.325 614.161 100.406 613.919 100.406C613.677 100.406 613.354 100.325 613.031 100.163L612.789 99.5974C612.789 99.5166 612.708 99.5166 612.627 99.5166L609.236 101.052C608.993 101.052 608.589 101.133 608.186 101.214C607.782 101.295 607.701 101.618 607.863 102.265C612.466 102.265 614.888 102.265 615.13 102.265C615.211 101.78 615.211 101.457 615.211 101.214C615.292 100.972 615.211 100.729 615.05 100.325Z" fill="#8479C9"/>
<path d="M622.237 96.6868C622.075 96.606 621.995 96.6868 621.914 96.7676C621.752 97.091 621.591 97.3334 621.429 97.4143C621.268 97.5759 620.945 97.6568 620.541 97.8184L620.056 97.576C619.976 97.576 619.895 97.576 619.895 97.6568L618.199 100.971C618.038 101.133 617.795 101.375 617.472 101.698C617.149 102.022 617.311 102.345 617.876 102.668C621.429 99.8392 623.367 98.3034 623.529 98.1418C623.287 97.7376 623.125 97.4143 622.964 97.2526C622.802 97.091 622.56 96.9293 622.237 96.6868Z" fill="#8479C9"/>
<path d="M628.938 69.932H625.87L626.354 66.2138C625.547 66.6987 624.739 66.9412 624.335 66.8604C623.366 66.6179 623.285 63.0613 624.012 61.6872C624.739 60.3131 628.615 59.6664 628.777 62.4147C628.857 63.3846 628.454 64.193 627.888 64.9204L628.938 69.932Z" fill="#F0E8F5"/>
<path d="M625.385 61.8485C624.012 61.8485 623.85 61.606 623.85 60.7977C624.093 60.6361 624.819 60.3936 625.708 60.3127C626.111 60.1511 626.677 60.2319 627.161 60.3936C627.807 60.5552 628.211 60.7169 628.615 61.4444C629.422 62.8993 628.776 64.6776 627.888 65.1626C627.646 64.9201 627.484 64.5968 627.242 64.3543C627.404 64.1926 627.484 64.031 627.484 63.7885C627.484 63.3843 627.161 62.9802 626.677 62.9802H626.596C626.515 64.516 626.435 65.4859 626.273 65.9709C626.031 66.6984 624.577 66.8601 624.093 66.8601C623.608 66.8601 623.689 66.2943 623.689 66.0518C623.689 65.8901 624.173 66.1326 624.173 65.8093C624.173 65.486 623.527 65.3243 623.366 65.1626C623.204 64.9201 623.124 64.5968 623.366 64.5968C623.689 64.5968 624.335 65.0818 625.142 65.0818C625.627 65.0818 625.95 64.2735 626.111 62.576C625.95 62.3335 625.708 62.0102 625.385 61.8485Z" fill="#191847"/>
<path d="M633.137 84.4809H630.23C630.795 83.5917 631.199 82.0559 631.441 80.0352C632.006 81.7326 632.572 83.1876 633.137 84.4809Z" fill="black" fill-opacity="0.1"/>
<path d="M619.086 78.9854L614.968 81.9761C613.837 82.2994 612.949 82.6228 612.141 83.1078C611.98 83.2694 611.738 83.5927 612.464 83.5119C613.191 83.4311 613.999 83.4311 614.08 83.6736C614.16 83.9161 613.756 84.2394 613.918 84.5627C614.079 84.8052 614.725 84.2394 615.856 82.8652L619.894 81.1678L619.086 78.9854ZM634.833 79.0662H632.168C633.864 84.4011 634.752 87.311 634.833 87.6343C635.156 88.3618 634.51 89.4934 634.268 90.1401C635.156 90.5442 635.075 89.0893 636.125 89.5743C637.175 90.0593 637.902 90.8676 639.113 90.1401C639.274 90.0592 639.436 89.7359 639.032 89.4934C638.063 88.8468 636.69 87.7151 636.529 87.311C636.287 86.7452 635.721 83.9969 634.833 79.0662Z" fill="#F0E8F5"/>
<path d="M616.421 83.1083L615.21 81.5725C620.297 77.9351 621.993 71.0644 626.112 67.5078L627.242 67.6695C627.404 73.651 625.223 82.0575 616.421 83.1083Z" fill="#6D61AA"/>
<path d="M628.454 67.0225L625.627 67.5074C625.627 72.9231 622.72 76.9647 621.913 80.7638C621.832 81.0871 621.751 81.7338 622.236 81.7338C624.335 81.7338 627.646 81.7338 632.088 81.7338C631.603 75.5097 630.796 70.8215 628.454 67.0225Z" fill="#DDE3E9"/>
<path d="M636.529 87.149H634.43C634.026 86.4215 633.542 85.5323 633.138 84.4815H625.385C624.255 81.5716 624.982 75.8326 627.485 67.1836L628.373 67.1028C628.454 67.1028 628.535 67.1028 628.616 67.1028C630.392 67.1028 631.361 66.3753 632.492 66.7795C633.622 67.1028 633.945 68.1536 632.976 70.0127C632.734 70.4169 632.411 70.7402 632.007 70.821C635.237 75.2668 636.772 80.7633 636.529 87.149Z" fill="#8479C9"/>
<path d="M435.373 74.9414H443.771L444.821 88.4403H432.304L435.373 74.9414Z" fill="#F0E8F5"/>
<path d="M443.932 70.4165C445.224 70.5782 452.088 71.9523 454.672 72.4373C455.802 72.6798 456.045 73.5689 456.045 74.3773C456.045 77.2872 454.672 83.9962 454.672 84.6429H454.026C453.864 85.4512 453.784 86.1787 453.622 86.6636L453.784 86.2595C453.784 86.1787 453.864 86.1786 453.945 86.1786L456.771 87.472C457.014 87.472 457.256 87.5528 457.66 87.5528C457.983 87.6336 458.064 87.8761 457.902 88.4419C454.026 88.4419 452.007 88.4419 451.765 88.4419C451.684 88.0378 451.684 87.7953 451.684 87.5528C451.684 87.3911 451.765 87.1486 451.846 86.8253C451.926 86.7445 452.007 86.7445 452.088 86.7445C452.088 86.1787 452.007 85.4512 452.007 84.6429H451.684C451.765 83.1071 451.845 81.8138 451.926 80.6821C451.926 80.1163 451.926 79.5505 452.007 79.0655C452.007 78.9038 452.007 78.6613 452.088 78.4997C452.088 78.0955 452.169 77.7722 452.169 77.368C450.715 80.1163 448.938 83.1879 448.858 83.6729L448.212 83.4304C448.05 83.7537 447.808 84.077 447.646 84.4004L447.808 84.2387C447.889 84.2387 447.889 84.2387 447.969 84.2387L449.827 86.7445C449.988 86.9061 450.23 87.0678 450.473 87.3103C450.715 87.5528 450.715 87.7953 450.311 88.1994C447 86.2595 445.224 85.2087 444.982 85.1279C445.143 84.8045 445.224 84.4812 445.305 84.3195C445.385 84.1579 445.547 83.9962 445.789 83.7537C445.87 83.6729 446.031 83.6729 446.112 83.8345C446.193 83.4304 446.354 83.1071 446.435 82.7837L446.031 82.6221L448.938 75.6706C446.516 75.9131 443.447 76.1556 442.155 76.1556C438.925 76.1556 437.552 74.1348 437.471 70.2549H443.932V70.4165Z" fill="#8479C9"/>
<path d="M440.945 57.1592C440.461 56.5934 440.138 55.8659 440.138 55.0576C440.299 52.7135 443.529 53.2793 444.175 54.4109C444.821 55.6234 444.741 58.5333 443.933 58.7758C443.61 58.8566 442.883 58.6141 442.237 58.21L442.641 61.3624H440.057L440.945 57.1592Z" fill="#6D61AA"/>
<path d="M439.006 54.2492C438.925 54.1683 438.844 54.0067 438.844 53.9258C438.763 53.845 438.763 53.6834 438.763 53.6025C438.683 53.36 438.683 53.0367 438.844 52.875C439.006 52.7134 439.167 52.6325 439.409 52.6325C439.571 52.6325 439.652 52.6325 439.813 52.7134C439.975 52.7134 440.055 52.7942 440.136 52.875C440.136 52.6325 440.217 52.3092 440.298 52.1475C440.459 51.905 440.621 51.8242 440.863 51.7434C441.105 51.7434 441.347 51.7434 441.59 51.9051C441.67 51.9051 441.67 51.9859 441.751 51.9859C441.832 51.9859 441.832 52.0667 441.913 52.0667C441.993 52.0667 441.993 52.0667 441.993 51.9859C442.074 51.9051 442.074 51.9051 442.155 51.8242C442.397 51.6626 442.639 51.5817 442.962 51.6626C443.043 51.7434 443.205 51.8242 443.286 51.9051C443.366 51.9859 443.447 52.1475 443.528 52.2284C443.608 52.2284 443.608 52.2284 443.608 52.2284C443.689 52.1475 443.689 52.1476 443.77 52.0667C443.851 51.9859 443.931 51.9859 444.012 51.9859C444.174 51.9859 444.335 51.9859 444.416 52.1475C444.416 52.2284 444.416 52.3092 444.416 52.39C444.416 52.4709 444.416 52.5517 444.416 52.7134C444.416 52.7942 444.416 52.875 444.416 52.9559C444.416 52.9559 444.416 53.0367 444.416 53.1175C444.416 53.1984 444.497 53.1175 444.578 53.1175C444.658 53.1175 444.739 53.1175 444.82 53.1984C444.901 53.1984 444.901 53.2792 444.981 53.36C444.981 53.36 444.981 53.4409 444.981 53.5217C444.981 53.6025 444.981 53.6025 444.981 53.6834C445.062 53.6025 445.466 53.5217 445.466 53.6834C445.466 53.7642 445.466 53.845 445.385 53.845C445.304 53.9258 445.304 54.0067 445.224 54.0875C445.062 54.2492 444.901 54.4108 444.739 54.4917C444.901 54.5725 444.981 54.815 444.82 54.9766C444.739 55.0575 444.658 55.0575 444.578 55.0575H444.497C444.497 55.0575 444.497 55.0575 444.416 55.0575C444.254 55.0575 444.093 55.0575 444.012 54.9766C443.77 54.8958 443.528 54.815 443.366 54.6533C443.286 54.5725 443.285 54.5725 443.205 54.5725C443.124 54.5725 443.124 54.5725 443.043 54.5725C442.882 54.5725 442.801 54.4917 442.639 54.4917C442.639 54.6533 442.559 54.8958 442.478 55.0575C442.397 55.2191 442.316 55.2191 442.155 55.2191C441.751 55.2191 441.347 55.2191 440.944 55.2191C441.347 55.3 441.751 55.3808 442.074 55.4616C442.236 55.5425 442.155 55.6233 442.074 55.7041C441.913 55.8658 441.832 56.0274 441.832 56.1891C441.67 55.9466 441.347 55.785 441.024 55.8658C440.701 55.9466 440.459 56.3508 440.701 56.6741C440.782 56.8358 441.024 56.9166 441.186 56.9974C441.024 57.1591 441.024 57.4016 440.944 57.5633C440.863 57.6441 440.863 57.7249 440.782 57.8057C440.782 57.8057 440.701 57.8057 440.701 57.8866L440.621 57.9674C440.459 58.0482 440.217 58.0482 440.055 57.8866C439.894 57.7249 439.975 57.4824 440.055 57.4016C439.894 57.3207 439.571 57.2399 439.571 56.9166C439.167 56.9166 438.198 56.2699 438.763 55.785C438.44 55.6233 438.198 55.2191 438.36 54.815C438.44 54.4108 438.763 54.2492 439.006 54.2492Z" fill="#191847"/>
<path d="M446.274 65.0815L449.019 62.5757C450.473 62.1716 451.119 61.8482 451.038 61.6866C450.876 61.4441 450.473 61.6057 450.311 61.4441C450.15 61.2824 450.473 60.7166 450.796 60.1508C451.119 59.5849 450.796 59.6658 450.553 59.7466C449.907 60.1508 449.342 60.7166 448.696 61.5249L444.901 63.6265L446.274 65.0815ZM450.876 67.0214C451.603 66.5364 452.249 66.1323 452.895 65.9706C454.107 65.6473 454.51 65.4048 455.156 64.6773C455.479 64.2732 455.722 63.4649 455.399 63.2224C455.237 63.0607 454.026 63.869 453.541 64.0307C453.057 64.1115 453.541 62.9799 453.218 63.1415C452.895 63.1415 452.653 63.6265 452.411 64.5157L450.715 65.4048L450.876 67.0214Z" fill="#6D61AA"/>
<path d="M437.553 66.0507C437.553 63.2216 439.814 58.9375 440.137 58.9375H443.125C443.205 60.2308 443.609 61.6049 444.013 63.0599C445.143 62.8982 446.597 62.5749 448.051 61.6049L448.777 63.2216C447.647 64.3532 446.193 65.2424 444.82 65.4848C444.82 65.5657 444.901 65.6465 444.901 65.7273C446.274 66.0507 448.697 65.6465 451.927 64.5149C452.734 66.2123 453.138 67.4248 453.057 68.1523C450.231 69.6072 447.808 70.3347 445.79 70.3347C445.87 71.5472 445.709 72.6788 445.224 73.6488C444.255 75.7504 438.36 73.8105 436.422 74.2146C435.211 70.2539 437.553 68.6373 437.553 66.0507Z" fill="#F0E8F5"/>
<path d="M483.016 48.5099C483.016 50.6115 484.308 52.4707 486.327 53.6023C486.812 53.8448 486.489 55.4614 486.57 55.7039C486.65 55.9464 488.346 54.4106 488.669 54.4915C489.477 54.6531 490.284 54.8148 491.172 54.8148C495.695 54.8148 499.409 51.9857 499.409 48.5099C499.409 45.0342 495.775 42.2051 491.172 42.2051C486.731 42.2051 483.016 45.0342 483.016 48.5099Z" fill="#E4DAEA"/>
<path d="M477.526 77.2051H485.924L487.054 90.7039H474.538L477.526 77.2051Z" fill="#F0E8F5"/>
<path d="M478.979 79.9539C479.06 79.9539 479.06 79.9539 478.979 79.9539C479.06 79.9539 479.14 79.9539 479.14 80.0347C479.625 79.8731 480.19 79.6306 480.836 79.3881V79.3073L482.936 78.5798C482.29 78.4181 481.725 78.3373 481.24 78.2565C478.01 77.6907 477.041 75.9124 477.606 72.1133H482.37H483.178H483.582C483.743 72.1941 484.066 72.2749 484.551 72.4366C490.446 73.9724 493.434 74.9424 493.595 75.4274C494.968 77.2865 495.695 86.2588 496.018 86.9054H495.776C495.856 87.5521 496.018 88.1987 496.099 88.8454L496.179 88.6837C496.179 88.6029 496.26 88.6029 496.341 88.6029L499.248 89.8962C499.49 89.8962 499.732 89.977 500.136 89.977C500.459 90.0579 500.54 90.3004 500.378 90.8662C496.502 90.8662 494.403 90.8662 494.161 90.8662C494.08 90.462 494.08 90.2195 494.08 89.977C494.08 89.8154 494.16 89.5729 494.241 89.2495C494.322 89.1687 494.403 89.0879 494.564 89.1687C494.241 88.4412 493.999 87.7946 493.676 87.1479H493.434C492.788 84.723 491.173 82.783 490.204 80.4389C486.004 81.5705 482.694 80.7622 481.563 81.0856V81.0047C481.078 81.0856 480.675 81.0856 480.352 81.1664H480.433C480.513 81.1664 480.513 81.2472 480.513 81.2472L480.594 84.3997C480.675 84.6422 480.756 84.8846 480.836 85.208C480.917 85.5313 480.755 85.7738 480.19 85.8546C478.494 82.3789 477.606 80.5197 477.445 80.2773C477.768 80.0348 478.01 79.8731 478.171 79.7923C478.414 80.1156 478.656 80.0348 478.979 79.9539Z" fill="#8479C9"/>
<path d="M480.919 58.857C480.434 58.2912 480.031 57.5637 480.111 56.7554C480.273 54.4113 483.584 54.8963 484.149 56.1087C484.795 57.3212 484.714 60.312 483.907 60.5545C483.584 60.6353 482.857 60.3928 482.13 59.9886L482.615 63.1411H479.95L480.919 58.857Z" fill="#6D61AA"/>
<path d="M480.352 54.815C480.594 54.7342 480.836 54.6533 481.159 54.6533C481.159 54.6533 481.159 54.6533 481.24 54.6533H481.321C481.482 54.6533 482.451 54.6533 482.774 54.7342C483.259 54.815 484.147 55.2191 484.308 55.5425C484.47 55.8658 484.389 56.2699 483.743 56.1891C483.178 56.9166 482.29 57.4016 482.128 57.4016C482.128 57.4016 481.724 56.8358 481.401 57.0783C480.998 57.3208 481.078 57.8057 481.321 58.2099C481.401 58.3716 481.644 58.6949 481.321 58.9374C480.836 59.2607 479.625 58.5332 479.383 57.8057C478.898 56.7549 479.302 55.3 480.352 54.815Z" fill="#180B4F"/>
<path d="M490.527 70.8199L493.515 68.5566C494.968 68.3141 495.695 68.0716 495.614 67.8291C495.453 67.5058 495.049 67.7483 494.888 67.5866C494.726 67.425 495.13 66.8592 495.453 66.2933C495.776 65.7275 495.453 65.8084 495.291 65.8892C494.645 66.2125 493.999 66.7783 493.273 67.5058L489.316 69.2841L490.527 70.8199ZM470.419 76.3164C470.177 76.6398 468.885 77.3672 467.997 77.6906C467.674 77.8522 467.674 78.1756 467.835 78.2564C468.724 79.0647 469.45 78.4989 470.419 78.2564C471.469 78.0139 471.146 79.2264 471.873 78.9839C471.711 78.418 471.388 77.3672 471.792 76.8014C471.954 76.5589 473.165 74.2956 475.426 70.0924L473.165 69.6074C471.631 73.7298 470.742 75.9123 470.419 76.3164Z" fill="#6D61AA"/>
<path d="M481.482 61.2818L482.451 61.1201C484.551 63.1409 485.358 67.91 486.731 68.5566C488.023 69.1224 489.881 68.5566 492.061 67.7483L492.707 69.2841C490.688 71.4665 486.489 73.2448 484.712 72.194C482.048 70.5774 481.402 64.6767 481.482 61.2818Z" fill="#5E509B"/>
<path d="M477.364 73.2447C481.16 73.2447 483.986 73.2447 485.763 73.2447C486.166 73.2447 486.086 72.6789 486.005 72.4364C485.359 69.2031 482.856 65.7274 482.856 61.12L480.433 60.7158C478.495 63.9491 477.768 67.9098 477.364 73.2447Z" fill="#DDE3E9"/>
<path d="M476.557 69.9306C474.861 73.0022 473.407 75.2655 472.277 76.6396L470.5 76.3163C471.631 69.284 474.942 64.1107 480.352 60.7158H481.321C483.502 68.1523 484.067 73.083 483.098 75.508H475.507C475.669 73.7297 475.992 71.7897 476.557 69.9306Z" fill="#5E509B"/>
<path d="M414.457 38.8103C420.522 38.8103 425.439 33.8886 425.439 27.8173C425.439 21.746 420.522 16.8242 414.457 16.8242C408.392 16.8242 403.475 21.746 403.475 27.8173C403.475 33.8886 408.392 38.8103 414.457 38.8103Z" fill="white" stroke="#FCAD4F" stroke-width="4" stroke-miterlimit="10"/>
<path d="M412.681 21.5127H416.719V26.3626H421.079V30.0808H416.719V35.0924H412.681V30.0808H408.32V26.3626H412.681V21.5127Z" fill="#2F1A70"/>
<path d="M639.193 151.408L623.284 191.662L612.625 225.692H608.426L624.738 151.408H639.193Z" fill="#997659"/>
<path d="M642.342 151.409C642.504 165.554 645.007 184.55 645.411 185.439C645.653 186.005 654.778 193.522 672.625 207.829L669.718 210.901C648.641 198.614 637.578 191.582 636.609 189.966C635.155 187.541 630.391 164.827 626.515 151.328H642.342V151.409Z" fill="#B28B67"/>
<path d="M672.961 206.854C673.903 207.224 674.566 207.511 674.939 207.831C675.365 208.212 675.998 208.841 676.724 209.708C676.281 210.186 672.43 214.898 664.954 223.71C663.463 223.063 662.954 222.33 663.55 221.407C664.085 220.535 664.548 219.83 664.887 219.229L667.441 210.33C667.513 210.164 667.637 210.06 667.865 210.08L669.2 210.541C670.098 210.103 670.768 209.646 671.211 209.168C671.531 208.794 671.818 208.131 672.063 207.292C672.207 206.96 672.568 206.762 672.961 206.854Z" fill="#ADA8D4"/>
<path d="M614.321 224.157C614.644 225.127 614.886 225.855 614.886 226.34C614.886 226.906 614.805 227.795 614.563 228.926C613.917 228.926 607.78 228.926 596.313 228.926C595.829 227.391 596.152 226.502 597.121 226.421C598.17 226.259 598.978 226.178 599.705 226.097L608.184 222.298C608.345 222.217 608.507 222.298 608.587 222.46L609.153 223.753C610.122 224.157 610.849 224.4 611.495 224.4C611.979 224.4 612.625 224.238 613.513 223.834C613.756 223.592 614.159 223.753 614.321 224.157C614.321 224.077 614.321 224.077 614.321 224.157Z" fill="#ADA8D4"/>
<path d="M628.453 222.216L608.507 220.034L623.285 151.408H641.212L628.453 222.216Z" fill="#3E2884"/>
<path d="M668.426 202.898L655.344 218.417C641.535 203.302 633.459 193.441 631.198 188.833C628.937 184.226 626.838 171.778 624.98 151.408H645.169C646.138 169.353 646.865 178.648 647.188 179.538C647.511 180.427 654.617 188.186 668.426 202.898Z" fill="#583F93"/>
<path d="M637.174 106.143C639.031 104.849 640.566 102.99 640.969 100.565C642.181 93.6946 632.49 92.8055 629.825 95.7962C627.161 98.7062 625.223 107.355 627.403 108.568C628.291 109.053 630.391 108.972 632.733 108.244L629.179 116.974L636.689 118.914L637.174 106.143Z" fill="#F9C59B"/>
<path d="M627.645 90.2995C627.968 89.8145 628.453 89.4103 629.099 89.4103C629.261 89.4103 629.422 89.4103 629.503 89.4912C629.584 89.4912 629.584 89.4912 629.584 89.4912L629.664 89.4103C629.745 89.3295 629.745 89.2487 629.826 89.1679C629.987 88.8445 630.31 88.6829 630.553 88.4404C631.118 88.1171 631.764 87.9554 632.41 88.0362C632.733 88.1171 633.056 88.1979 633.379 88.4404C633.54 88.5212 633.702 88.6829 633.783 88.7637C633.863 88.7637 633.944 88.9253 634.025 88.9253C634.106 88.9253 634.186 88.8445 634.267 88.7637C634.913 88.5212 635.64 88.5212 636.286 88.6829C637.013 88.8445 637.74 89.087 638.224 89.7337C638.305 89.8953 638.466 89.9762 638.547 90.1378C638.628 90.2187 638.628 90.2995 638.709 90.3803C638.709 90.4612 638.789 90.4611 638.789 90.542C638.789 90.6228 638.789 90.6228 638.87 90.6228C639.193 90.542 639.597 90.542 639.92 90.6228C640.162 90.7036 640.324 90.7845 640.485 90.9461C640.566 91.027 640.647 91.1078 640.727 91.1886C640.808 91.1886 640.97 91.1078 641.05 91.1078C641.454 91.027 641.858 91.1078 642.262 91.2695C642.665 91.4311 643.069 91.7545 643.312 91.997C643.473 92.1586 643.554 92.3203 643.635 92.4819C643.635 92.5628 643.715 92.6436 643.715 92.7244C643.715 92.8053 643.796 92.8053 643.796 92.8861C643.796 92.8861 644.281 92.8053 644.361 92.8053C644.604 92.8053 644.846 92.8861 645.088 93.0478C645.492 93.2902 645.815 93.6944 645.976 94.0986C646.057 94.3411 646.219 94.5027 646.219 94.7452C646.219 94.826 646.299 94.9877 646.299 95.0685C646.299 95.1494 646.299 95.1494 646.299 95.2302C646.299 95.311 646.38 95.311 646.38 95.311C646.703 95.5535 646.945 95.796 647.188 96.2002C647.349 96.5235 647.43 96.9277 647.43 97.3318C647.43 97.3318 647.43 97.4126 647.43 97.4935C647.43 97.4935 647.511 97.4935 647.511 97.5743C647.591 97.5743 647.672 97.6552 647.753 97.6552C647.914 97.736 648.076 97.8168 648.237 97.9785C648.803 98.4635 649.045 99.1101 649.126 99.7568C649.206 100.484 648.964 101.212 648.56 101.858C648.48 101.939 648.399 102.02 648.318 102.101C648.237 102.182 648.237 102.182 648.237 102.182C648.237 102.263 648.318 102.343 648.318 102.424C648.399 102.667 648.399 102.909 648.399 103.152C648.399 103.556 648.318 103.96 648.157 104.364C648.076 104.526 647.995 104.687 647.834 104.849C647.753 104.93 647.672 105.011 647.592 105.011C647.511 105.011 647.511 105.092 647.43 105.092C647.43 105.092 647.349 105.092 647.349 105.172C647.268 105.253 647.268 105.172 647.268 105.253C647.268 105.334 647.349 105.496 647.349 105.657C647.349 105.819 647.349 105.9 647.349 106.062C647.349 106.304 647.349 106.547 647.349 106.789C647.268 107.274 647.188 107.759 646.865 108.082C646.703 108.244 646.542 108.325 646.38 108.487C646.299 108.487 646.219 108.567 646.057 108.567C645.976 108.567 645.976 108.567 645.896 108.648C645.896 108.729 645.896 108.81 645.896 108.81C645.815 109.295 645.734 109.78 645.492 110.184C645.25 110.588 644.846 110.911 644.442 110.992C643.635 111.316 642.666 110.992 642.02 110.427C641.858 110.265 641.697 110.103 641.535 109.942C640.97 110.426 640.162 110.184 639.597 109.861C638.87 109.457 638.386 108.81 638.224 108.002C637.578 108.487 636.69 108.002 636.448 107.274C636.367 107.112 636.367 106.951 636.448 106.708C636.448 106.627 636.528 106.547 636.528 106.466C636.528 106.385 636.528 106.223 636.448 106.062C636.448 105.819 636.448 105.577 636.448 105.334C636.448 105.253 636.528 105.092 636.528 105.011C636.528 104.93 636.528 104.768 636.609 104.687C636.771 104.768 637.013 104.768 637.255 104.768C637.417 104.768 637.659 104.687 637.82 104.526C638.224 104.283 638.466 103.96 638.709 103.556C639.193 102.748 639.355 101.697 638.628 100.969C638.305 100.646 637.013 100.323 636.528 100.323C635.963 100.323 635.075 101.293 635.075 101.373C635.075 101.454 634.994 101.535 634.994 101.535C634.832 101.616 634.671 101.373 634.59 101.293C634.429 101.131 634.348 100.888 634.348 100.646C634.186 100.161 634.186 99.6759 634.106 99.1909C634.106 98.7868 634.106 98.4635 634.106 98.0593C634.025 97.6552 633.944 97.3318 633.702 97.0085C633.379 96.6852 633.056 96.5235 632.652 96.281C632.329 96.0385 632.006 95.796 631.764 95.4727C631.683 95.3919 631.683 95.311 631.602 95.2302C631.602 95.1494 631.602 95.0685 631.522 94.9877C631.441 94.9069 631.279 94.9877 631.199 95.0685C630.714 95.2302 630.31 95.4727 629.907 95.8769C629.503 96.2002 629.18 96.5235 628.937 96.9277C628.695 97.251 628.534 97.6551 628.211 97.8168C628.049 97.8976 627.242 97.8168 626.999 97.5743C626.757 97.4127 626.515 97.0893 626.515 96.8468C626.434 96.6852 626.515 96.4427 626.596 96.281C626.676 96.2002 626.757 96.1194 626.757 95.9577C626.838 95.8769 626.838 95.796 626.919 95.7152C627.08 95.5535 627.242 95.4727 627.403 95.4727C627.242 95.2302 627.161 94.9877 627.08 94.7452C626.999 94.5027 626.999 94.1794 627.08 93.9369C627.08 93.6944 627.161 93.5327 627.322 93.3711C627.484 93.2094 627.726 93.1286 627.968 93.0478C627.726 92.7244 627.565 92.4011 627.403 92.0778C627.322 91.7545 627.242 90.9461 627.645 90.2995Z" fill="#966A45"/>
<path d="M645.815 153.672H620.863C626.515 136.455 629.423 124.654 629.503 118.187C629.503 117.864 630.149 117.298 630.392 117.379C632.33 117.945 634.429 117.702 636.69 116.732C642.585 126.271 644.685 137.991 645.815 153.672Z" fill="#8D8ACE"/>
<path d="M613.836 103.799L603.985 98.4642C601.562 94.746 600.108 93.1293 599.624 93.6952C598.978 94.5035 600.028 95.3926 599.624 95.9584C599.301 96.5242 597.282 96.2818 595.425 95.9584C593.567 95.6351 593.971 96.5243 594.375 96.9284C596.152 98.2217 598.413 99.4342 601.158 100.485L610.606 109.215L613.836 103.799Z" fill="#B28B67"/>
<path d="M633.944 111.64C632.167 110.993 630.229 110.67 628.453 110.266C625.626 109.538 622.881 107.76 620.377 106.224C619.004 105.416 607.215 97.252 606.811 97.6561L600.754 103.476C609.314 113.095 619.004 120.612 628.937 129.746C628.695 146.64 626.757 161.675 635.397 161.675C639.516 161.675 643.957 161.675 648.722 161.675C650.66 148.742 647.187 134.515 642.261 122.552C641.696 121.259 641.131 119.966 640.565 118.672C639.596 116.409 638.224 114.227 636.124 112.772C635.397 112.287 634.671 111.963 633.944 111.64Z" fill="#ADA8D4"/>
<path d="M267.245 202.656L281.053 205.161C283.799 206.778 286.302 207.99 288.644 208.637C289.29 208.718 290.34 208.475 288.806 207.182C287.271 205.808 285.737 204.353 286.06 203.706C286.383 203.06 287.756 203.383 288.079 202.332C288.24 201.605 285.899 201.443 281.053 201.686L269.909 196.755L267.245 202.656Z" fill="#B28B67"/>
<path d="M245.521 172.101C253.597 183.255 264.175 191.096 279.034 198.856L274.754 205.322C258.926 201.847 250.447 199.502 245.037 188.752C243.664 186.004 241.726 177.031 240.434 172.343L245.521 172.101Z" fill="#680436"/>
<path d="M483.904 188.348L473.809 179.133C468.48 177.678 466.057 176.627 466.542 175.9C467.188 174.849 468.641 175.738 469.207 175.092C469.772 174.445 468.722 172.343 467.591 170.322C466.461 168.302 467.672 168.544 468.318 168.787C470.579 170.322 472.84 172.424 475.182 175.172L489.072 182.771L483.904 188.348Z" fill="#997659"/>
<path d="M495.29 180.911C490.445 180.83 483.904 179.86 477.04 175.414L474.294 181.476C479.058 186.245 485.761 190.125 491.656 189.964C496.259 189.802 498.601 184.225 495.29 180.911Z" fill="#FB9B5A"/>
<path d="M274.27 205.806H472.842C475.991 205.806 478.656 203.219 478.656 199.986V124.085C478.656 120.933 476.072 118.266 472.842 118.266H274.27C271.121 118.266 268.456 120.852 268.456 124.085V199.986C268.456 203.219 271.04 205.806 274.27 205.806Z" fill="white"/>
<path d="M272.655 129.26C278.007 129.26 282.345 124.917 282.345 119.56C282.345 114.203 278.007 109.86 272.655 109.86C267.303 109.86 262.964 114.203 262.964 119.56C262.964 124.917 267.303 129.26 272.655 129.26Z" fill="white" stroke="white" stroke-width="2" stroke-miterlimit="10"/>
<path d="M274.27 118.266H278.146V121.5H274.27V125.945H270.716V121.5H266.84V118.266H270.716V113.982H274.27V118.266Z" fill="#3E2884"/>
<path d="M430.85 158.602H279.519V160.218H430.85V158.602Z" fill="#ADA8D4"/>
<path d="M430.849 167.331H279.518V168.948H430.849V167.331Z" fill="#ADA8D4"/>
<path d="M430.849 176.062H279.518V177.678H430.849V176.062Z" fill="#ADA8D4"/>
<path d="M430.849 184.791H279.518V186.408H430.849V184.791Z" fill="#ADA8D4"/>
<path d="M430.849 193.521H279.518V195.138H430.849V193.521Z" fill="#ADA8D4"/>
<path d="M437.796 195.864H436.584V158.035H437.796L437.957 174.767L439.572 176.626L437.957 178.647L437.796 195.864Z" fill="#3E2884"/>
<path d="M450.474 169.11C452.392 169.11 453.946 167.554 453.946 165.634C453.946 163.714 452.392 162.158 450.474 162.158C448.556 162.158 447.002 163.714 447.002 165.634C447.002 167.554 448.556 169.11 450.474 169.11Z" fill="#ADA8D4"/>
<path d="M452.115 177.232C453.857 176.431 454.621 174.368 453.821 172.623C453.021 170.879 450.959 170.114 449.217 170.915C447.474 171.716 446.71 173.779 447.51 175.524C448.31 177.269 450.372 178.033 452.115 177.232Z" fill="#3E2884"/>
<path d="M460.6 168.847C462.343 168.046 463.107 165.982 462.307 164.237C461.507 162.493 459.445 161.728 457.702 162.529C455.959 163.33 455.195 165.394 455.996 167.138C456.796 168.883 458.857 169.648 460.6 168.847Z" fill="#ADA8D4"/>
<path d="M460.611 177.412C462.354 176.611 463.118 174.547 462.318 172.803C461.517 171.058 459.456 170.293 457.713 171.094C455.97 171.896 455.206 173.959 456.006 175.704C456.807 177.448 458.868 178.213 460.611 177.412Z" fill="#3E2884"/>
<path d="M283.283 144.781C285.015 144.781 286.393 143.721 286.393 141.736V136.512H284.821V141.622C284.821 142.683 284.24 143.242 283.283 143.242C282.348 143.242 281.756 142.683 281.756 141.622V136.512H280.183V141.736C280.183 143.721 281.562 144.781 283.283 144.781Z" fill="#3E2884"/>
<path d="M289.51 141.371C289.51 140.721 289.897 140.208 290.558 140.208C291.287 140.208 291.595 140.698 291.595 141.325V144.599H293.11V141.063C293.11 139.831 292.472 138.839 291.082 138.839C290.478 138.839 289.806 139.101 289.464 139.683V138.987H287.994V144.599H289.51V141.371Z" fill="#3E2884"/>
<path d="M295.754 141.154C295.788 140.641 296.221 140.048 297.007 140.048C297.873 140.048 298.238 140.595 298.261 141.154H295.754ZM298.409 142.614C298.226 143.116 297.839 143.47 297.133 143.47C296.381 143.47 295.754 142.934 295.72 142.192H299.731C299.731 142.169 299.753 141.941 299.753 141.725C299.753 139.922 298.716 138.816 296.984 138.816C295.549 138.816 294.227 139.979 294.227 141.77C294.227 143.664 295.583 144.77 297.121 144.77C298.5 144.77 299.389 143.96 299.674 142.991L298.409 142.614Z" fill="#3E2884"/>
<path d="M305.278 146.766V144.051C305.551 144.428 306.121 144.736 306.896 144.736C308.48 144.736 309.539 143.481 309.539 141.782C309.539 140.116 308.594 138.862 306.953 138.862C306.11 138.862 305.483 139.238 305.232 139.672V138.987H303.762V146.766H305.278ZM308.047 141.793C308.047 142.797 307.431 143.378 306.656 143.378C305.882 143.378 305.255 142.785 305.255 141.793C305.255 140.801 305.882 140.219 306.656 140.219C307.431 140.219 308.047 140.801 308.047 141.793Z" fill="#3E2884"/>
<path d="M312.255 144.599V136.341H310.739V144.599H312.255Z" fill="#3E2884"/>
<path d="M313.502 143.07C313.502 143.949 314.231 144.759 315.428 144.759C316.26 144.759 316.795 144.371 317.08 143.926C317.08 144.143 317.103 144.451 317.137 144.599H318.527C318.493 144.405 318.459 144.006 318.459 143.709V140.949C318.459 139.82 317.798 138.816 316.02 138.816C314.516 138.816 313.707 139.786 313.616 140.664L314.961 140.949C315.006 140.459 315.371 140.037 316.032 140.037C316.67 140.037 316.978 140.367 316.978 140.766C316.978 140.96 316.875 141.12 316.556 141.166L315.177 141.371C314.243 141.508 313.502 142.067 313.502 143.07ZM315.747 143.629C315.257 143.629 315.018 143.31 315.018 142.979C315.018 142.546 315.325 142.329 315.713 142.272L316.978 142.078V142.329C316.978 143.321 316.385 143.629 315.747 143.629Z" fill="#3E2884"/>
<path d="M321.822 137.31H320.455V138.097C320.455 138.599 320.181 138.987 319.589 138.987H319.304V140.333H320.318V142.945C320.318 144.029 321.002 144.679 322.095 144.679C322.54 144.679 322.813 144.599 322.95 144.542V143.287C322.87 143.31 322.665 143.333 322.483 143.333C322.05 143.333 321.822 143.173 321.822 142.683V140.333H322.95V138.987H321.822V137.31Z" fill="#3E2884"/>
<path d="M325.287 141.154C325.321 140.641 325.754 140.048 326.541 140.048C327.407 140.048 327.771 140.595 327.794 141.154H325.287ZM327.942 142.614C327.76 143.116 327.372 143.47 326.666 143.47C325.914 143.47 325.287 142.934 325.253 142.192H329.264C329.264 142.169 329.287 141.941 329.287 141.725C329.287 139.922 328.25 138.816 326.518 138.816C325.082 138.816 323.76 139.979 323.76 141.77C323.76 143.664 325.116 144.77 326.654 144.77C328.033 144.77 328.922 143.96 329.207 142.991L327.942 142.614Z" fill="#3E2884"/>
<path d="M333.078 137.596C333.329 137.596 333.477 137.63 333.557 137.653V136.375C333.431 136.318 333.124 136.261 332.805 136.261C331.563 136.261 330.765 137.082 330.765 138.348V138.987H329.831V140.287H330.765V144.599H332.292V140.287H333.557V138.987H332.292V138.371C332.292 137.744 332.736 137.596 333.078 137.596Z" fill="#3E2884"/>
<path d="M336.938 143.39C336.197 143.39 335.513 142.842 335.513 141.793C335.513 140.732 336.197 140.196 336.938 140.196C337.678 140.196 338.362 140.732 338.362 141.793C338.362 142.854 337.678 143.39 336.938 143.39ZM336.938 138.816C335.263 138.816 333.998 140.059 333.998 141.793C333.998 143.515 335.263 144.77 336.938 144.77C338.613 144.77 339.878 143.515 339.878 141.793C339.878 140.059 338.613 138.816 336.938 138.816Z" fill="#3E2884"/>
<path d="M344.492 138.964C344.378 138.953 344.264 138.942 344.139 138.942C343.66 138.942 342.886 139.078 342.544 139.82V138.987H341.074V144.599H342.589V142.033C342.589 140.824 343.262 140.447 344.037 140.447C344.173 140.447 344.321 140.459 344.492 140.493V138.964Z" fill="#3E2884"/>
<path d="M347.074 144.599V141.314C347.074 140.698 347.461 140.208 348.122 140.208C348.806 140.208 349.114 140.664 349.114 141.268V144.599H350.618V141.314C350.618 140.709 351.005 140.208 351.655 140.208C352.35 140.208 352.646 140.664 352.646 141.268V144.599H354.116V140.96C354.116 139.455 353.125 138.827 352.088 138.827C351.347 138.827 350.754 139.078 350.31 139.763C350.025 139.158 349.41 138.827 348.646 138.827C348.031 138.827 347.313 139.124 347.006 139.672V138.987H345.558V144.599H347.074Z" fill="#3E2884"/>
<path d="M356.757 141.154C356.791 140.641 357.224 140.048 358.01 140.048C358.876 140.048 359.241 140.595 359.263 141.154H356.757ZM359.412 142.614C359.229 143.116 358.842 143.47 358.135 143.47C357.383 143.47 356.757 142.934 356.722 142.192H360.733C360.733 142.169 360.756 141.941 360.756 141.725C360.756 139.922 359.719 138.816 357.987 138.816C356.551 138.816 355.23 139.979 355.23 141.77C355.23 143.664 356.586 144.77 358.124 144.77C359.503 144.77 360.392 143.96 360.676 142.991L359.412 142.614Z" fill="#3E2884"/>
<path d="M367.283 140.219C368.035 140.219 368.389 140.698 368.525 141.166L369.881 140.709C369.642 139.763 368.776 138.816 367.249 138.816C365.62 138.816 364.343 140.059 364.343 141.793C364.343 143.515 365.642 144.77 367.295 144.77C368.787 144.77 369.665 143.812 369.915 142.877L368.582 142.432C368.457 142.865 368.07 143.378 367.295 143.378C366.52 143.378 365.859 142.808 365.859 141.793C365.859 140.778 366.508 140.219 367.283 140.219Z" fill="#3E2884"/>
<path d="M373.493 143.39C372.752 143.39 372.068 142.842 372.068 141.793C372.068 140.732 372.752 140.196 373.493 140.196C374.233 140.196 374.917 140.732 374.917 141.793C374.917 142.854 374.233 143.39 373.493 143.39ZM373.493 138.816C371.818 138.816 370.553 140.059 370.553 141.793C370.553 143.515 371.818 144.77 373.493 144.77C375.168 144.77 376.432 143.515 376.432 141.793C376.432 140.059 375.168 138.816 373.493 138.816Z" fill="#3E2884"/>
<path d="M379.144 144.599V136.341H377.629V144.599H379.144Z" fill="#3E2884"/>
<path d="M382.282 144.599V136.341H380.767V144.599H382.282Z" fill="#3E2884"/>
<path d="M383.53 143.07C383.53 143.949 384.259 144.759 385.455 144.759C386.287 144.759 386.823 144.371 387.108 143.926C387.108 144.143 387.13 144.451 387.165 144.599H388.555C388.521 144.405 388.486 144.006 388.486 143.709V140.949C388.486 139.82 387.826 138.816 386.048 138.816C384.544 138.816 383.735 139.786 383.644 140.664L384.988 140.949C385.034 140.459 385.398 140.037 386.059 140.037C386.697 140.037 387.005 140.367 387.005 140.766C387.005 140.96 386.903 141.12 386.583 141.166L385.205 141.371C384.27 141.508 383.53 142.067 383.53 143.07ZM385.774 143.629C385.284 143.629 385.045 143.31 385.045 142.979C385.045 142.546 385.353 142.329 385.74 142.272L387.005 142.078V142.329C387.005 143.321 386.413 143.629 385.774 143.629Z" fill="#3E2884"/>
<path d="M391.484 144.599V143.915C391.78 144.394 392.373 144.736 393.148 144.736C394.743 144.736 395.791 143.47 395.791 141.77C395.791 140.105 394.845 138.839 393.205 138.839C392.373 138.839 391.757 139.204 391.507 139.603V136.341H390.014V144.599H391.484ZM394.276 141.782C394.276 142.808 393.66 143.378 392.886 143.378C392.122 143.378 391.484 142.797 391.484 141.782C391.484 140.755 392.122 140.196 392.886 140.196C393.66 140.196 394.276 140.755 394.276 141.782Z" fill="#3E2884"/>
<path d="M399.509 143.39C398.769 143.39 398.085 142.842 398.085 141.793C398.085 140.732 398.769 140.196 399.509 140.196C400.25 140.196 400.934 140.732 400.934 141.793C400.934 142.854 400.25 143.39 399.509 143.39ZM399.509 138.816C397.834 138.816 396.57 140.059 396.57 141.793C396.57 143.515 397.834 144.77 399.509 144.77C401.185 144.77 402.449 143.515 402.449 141.793C402.449 140.059 401.185 138.816 399.509 138.816Z" fill="#3E2884"/>
<path d="M407.064 138.964C406.95 138.953 406.836 138.942 406.711 138.942C406.232 138.942 405.457 139.078 405.116 139.82V138.987H403.646V144.599H405.161V142.033C405.161 140.824 405.833 140.447 406.608 140.447C406.745 140.447 406.893 140.459 407.064 140.493V138.964Z" fill="#3E2884"/>
<path d="M407.822 143.07C407.822 143.949 408.551 144.759 409.747 144.759C410.579 144.759 411.115 144.371 411.4 143.926C411.4 144.143 411.423 144.451 411.457 144.599H412.847C412.813 144.405 412.778 144.006 412.778 143.709V140.949C412.778 139.82 412.118 138.816 410.34 138.816C408.836 138.816 408.027 139.786 407.936 140.664L409.28 140.949C409.326 140.459 409.69 140.037 410.351 140.037C410.989 140.037 411.297 140.367 411.297 140.766C411.297 140.96 411.195 141.12 410.876 141.166L409.497 141.371C408.562 141.508 407.822 142.067 407.822 143.07ZM410.066 143.629C409.577 143.629 409.337 143.31 409.337 142.979C409.337 142.546 409.645 142.329 410.032 142.272L411.297 142.078V142.329C411.297 143.321 410.705 143.629 410.066 143.629Z" fill="#3E2884"/>
<path d="M416.141 137.31H414.774V138.097C414.774 138.599 414.501 138.987 413.908 138.987H413.623V140.333H414.637V142.945C414.637 144.029 415.321 144.679 416.415 144.679C416.859 144.679 417.133 144.599 417.27 144.542V143.287C417.19 143.31 416.985 143.333 416.802 143.333C416.369 143.333 416.141 143.173 416.141 142.683V140.333H417.27V138.987H416.141V137.31Z" fill="#3E2884"/>
<path d="M420.072 144.599V138.987H418.557V144.599H420.072ZM418.375 137.151C418.375 137.653 418.796 138.075 419.309 138.075C419.833 138.075 420.243 137.653 420.243 137.151C420.243 136.626 419.833 136.204 419.309 136.204C418.796 136.204 418.375 136.626 418.375 137.151Z" fill="#3E2884"/>
<path d="M426.982 138.987H425.387L424.054 142.751L422.664 138.987H421L423.29 144.599H424.806L426.982 138.987Z" fill="#3E2884"/>
<path d="M428.843 141.154C428.877 140.641 429.31 140.048 430.096 140.048C430.962 140.048 431.327 140.595 431.35 141.154H428.843ZM431.498 142.614C431.315 143.116 430.928 143.47 430.221 143.47C429.469 143.47 428.843 142.934 428.809 142.192H432.82C432.82 142.169 432.842 141.941 432.842 141.725C432.842 139.922 431.805 138.816 430.073 138.816C428.638 138.816 427.316 139.979 427.316 141.77C427.316 143.664 428.672 144.77 430.21 144.77C431.589 144.77 432.478 143.96 432.763 142.991L431.498 142.614Z" fill="#3E2884"/>
<path d="M509.099 214.778L494.645 265.702L484.066 303.208H476.314L487.538 214.778H509.099Z" fill="#CE2105"/>
<path d="M512.976 214.778C513.299 241.049 514.43 255.356 514.833 257.781C515.237 260.206 520.486 275.321 530.822 303.289H522.828C509.746 276.453 502.397 261.256 500.863 257.781C499.329 254.224 494.645 239.917 487.539 214.778H512.976Z" fill="#E83D0F"/>
<path d="M531.549 310.401L531.145 301.994H522.747C518.79 304.823 513.541 307.087 507.162 308.784V310.401H522.343L527.512 309.592V310.401H531.549Z" fill="#FB9B5A"/>
<path d="M485.116 310.401L484.712 301.994H476.314C472.357 304.823 467.108 307.087 460.729 308.784V310.401H475.91L481.078 309.592V310.401H485.116Z" fill="#FB9B5A"/>
<path d="M499.408 156.983C501.265 154.8 502.477 152.133 502.315 149.223C501.75 140.655 489.798 142.514 487.457 146.879C485.115 151.244 485.438 162.156 488.426 162.964C489.637 163.288 492.14 162.479 494.724 160.943L493.109 172.421H502.719L499.408 156.983Z" fill="#6D3815"/>
<path d="M494.24 150.114C493.836 155.206 492.867 157.793 491.333 157.793C488.991 157.793 486.972 156.257 485.922 156.257C485.196 156.257 485.357 157.227 485.842 157.874C486.245 158.439 488.264 159.005 488.264 159.894C488.264 160.783 486.649 160.137 486.649 160.622C486.649 161.511 486.407 163.128 487.86 163.128C489.395 163.128 493.836 162.562 494.644 160.298C495.128 158.844 495.451 155.772 495.613 151.084C495.693 151.084 495.774 151.084 495.936 151.084C497.228 151.084 498.358 152.135 498.358 153.509C498.358 154.155 498.116 154.802 497.632 155.206C498.197 156.014 498.843 156.823 499.489 157.631C502.154 156.014 504.173 151.326 501.508 146.8C500.781 144.617 499.166 143.405 497.228 142.839C495.693 142.192 493.998 142.111 492.625 142.516C489.96 142.758 487.537 143.566 486.811 144.051C486.811 146.638 487.295 147.365 491.494 147.285C492.625 147.931 493.432 148.901 494.24 150.114Z" fill="#230C01"/>
<path d="M462.908 194.491C460.243 192.551 457.821 191.339 455.56 190.692C451.199 189.479 449.503 188.59 447.323 185.842C446.192 184.387 445.223 181.477 446.273 180.507C447 179.86 451.199 183.013 452.976 183.336C454.671 183.66 453.137 179.537 454.025 180.022C455.237 180.022 456.206 181.72 457.094 184.953L463.231 188.267L462.908 194.491Z" fill="#6D3815"/>
<path d="M485.277 189.964C480.109 191.257 471.468 189.721 459.274 185.437C456.286 191.661 454.833 196.107 455.075 198.774C465.492 204.19 474.456 206.696 481.804 206.777C481.562 211.142 482.127 215.345 483.904 219.144C487.538 226.985 509.099 219.71 516.286 221.165C520.808 206.453 512.087 200.472 512.087 191.015C512.087 180.668 503.769 164.825 502.558 164.825H491.495C490.849 172.747 487.78 181.396 485.277 189.964Z" fill="#FF8F43"/>
<path d="M240.191 163.371C238.495 161.35 237.284 158.845 237.526 156.096C238.092 148.094 249.236 149.872 251.416 153.914C253.596 157.955 253.354 168.221 250.528 168.948C249.397 169.272 247.055 168.544 244.633 167.089L246.167 177.84H237.203L240.191 163.371Z" fill="#B28B67"/>
<path d="M246.248 149.225C245.037 149.064 241.887 148.902 241.322 148.902C240.918 148.902 240.515 148.983 240.353 148.659C240.192 148.417 240.272 147.932 240.192 147.609C240.111 147.204 240.03 146.881 239.949 146.477C239.707 145.426 239.303 144.375 238.738 143.405C237.688 141.627 236.235 140.253 234.297 139.364C232.197 138.475 229.855 138.232 227.594 138.475C225.172 138.636 222.991 139.445 220.73 140.253C218.55 140.98 216.289 141.223 214.028 140.9C211.767 140.576 209.99 139.283 208.133 138.151C206.195 136.939 203.934 136.131 201.592 136.373C199.411 136.535 197.393 137.424 195.616 138.636C193.92 139.768 192.547 141.142 191.74 143.001C190.932 145.022 190.932 147.285 192.305 149.144C194.324 151.731 198.039 152.459 201.188 152.378C202.964 152.378 204.741 151.974 206.437 151.408C208.698 150.599 210.636 149.225 212.736 148.174C213.705 147.689 214.754 147.205 215.804 146.962C216.854 146.639 217.904 146.558 218.792 147.124C219.761 147.77 220.649 148.417 221.861 148.902C222.991 149.306 224.122 149.549 225.252 149.549C227.513 149.549 229.774 148.821 231.955 148.336C233.731 147.932 235.669 147.528 237.527 147.932C238.254 148.094 239.384 148.417 239.707 149.225C235.023 150.034 233.247 155.853 234.539 160.057C235.266 162.32 239.546 164.987 241.161 163.775C242.21 163.047 241.564 161.997 241.161 161.35C240.353 160.057 240.111 158.44 241.564 157.551C242.856 156.823 244.149 158.602 244.149 158.602C244.472 158.602 247.459 156.904 249.559 154.398C251.578 154.479 251.901 153.186 251.416 152.054C250.932 150.923 247.863 149.468 246.248 149.225Z" fill="#56032D"/>
<path d="M233.004 210.253C233.65 219.468 277.176 246.627 277.419 247.355C277.499 247.678 273.058 258.428 263.852 279.445L267.647 280.9C281.618 258.59 288.32 246.304 287.593 243.879C286.544 240.484 275.319 229.248 253.839 210.334L233.004 210.253Z" fill="#B28B67"/>
<path d="M264.822 274.676L271.04 276.939C284.122 262.147 289.209 249.941 288.321 243.798C287.675 239.676 276.531 228.521 254.728 210.253H232.521C233.247 231.592 273.543 247.435 274.108 248.325C274.674 249.214 269.344 258.186 264.822 274.676Z" fill="#CE1560"/>
<path d="M262.487 278.736C261.721 279.662 261.217 280.338 261.024 280.87C260.803 281.478 260.52 282.493 260.306 283.791C261.064 284.067 267.666 286.472 280.111 291.006C281.25 289.529 281.305 288.431 280.195 287.94C279.084 287.45 278.229 286.966 277.601 286.565L269.911 279.118C269.786 278.987 269.531 278.98 269.4 279.104L268.268 280.326C267.04 280.395 266.123 280.319 265.516 280.098C264.984 279.904 264.384 279.428 263.536 278.688C263.212 278.398 262.777 278.412 262.487 278.736Z" fill="#680436"/>
<path d="M238.012 210.253L218.631 256.812L199.574 296.096H204.096L253.194 210.253H238.012Z" fill="#997659"/>
<path d="M199.33 294.318C198.927 295.449 198.684 296.258 198.684 296.823C198.684 297.47 198.765 298.521 199.007 299.814C199.815 299.814 206.84 299.814 220.084 299.814C220.649 298.036 220.326 296.985 219.115 296.904C217.904 296.743 216.934 296.662 216.208 296.5L206.437 292.135C206.275 292.054 206.033 292.135 205.952 292.297L205.306 293.833C204.175 294.318 203.287 294.56 202.641 294.56C202.076 294.56 201.349 294.318 200.299 293.914C199.976 293.752 199.492 293.914 199.33 294.318C199.33 294.237 199.33 294.318 199.33 294.318Z" fill="#680436"/>
<path d="M201.349 287.932L211.363 289.791C219.115 278.475 251.335 231.916 254.889 210.253H232.682C220.811 225.934 208.698 276.373 201.349 287.932Z" fill="#DD1D69"/>
<path d="M267.81 170.807L282.022 166.523C284.687 164.421 287.19 162.966 289.532 161.996C290.178 161.835 290.178 162.724 288.805 164.34C287.433 165.957 295.992 163.532 296.396 164.179C296.8 164.825 292.601 167.816 291.309 168.382C289.855 168.867 287.594 169.999 282.507 170.322L271.443 176.788L267.81 170.807Z" fill="#B28B67"/>
<path d="M229.856 212.679H258.685C252.144 192.794 248.833 179.053 248.671 171.697C248.671 171.293 247.944 170.647 247.621 170.727C245.36 171.374 242.938 171.132 240.354 170C233.57 180.912 231.229 194.492 229.856 212.679Z" fill="#F2F2F2"/>
<path d="M242.857 169.998C251.093 170.079 264.498 171.615 280.003 166.604L281.537 174.202C269.828 181.719 258.038 187.539 247.702 186.731C252.224 206.049 251.982 221.892 242.049 221.892C237.285 221.892 232.197 221.892 226.706 221.892C224.283 205.483 230.663 182.689 236.639 171.211C236.881 170.807 237.365 169.918 238.496 169.918C239.384 169.918 240.838 169.918 242.857 169.998C242.857 169.918 242.857 169.998 242.857 169.998Z" fill="#84033E"/>
</svg>
