<svg width="333" height="200" viewBox="0 0 333 200" fill="none" xmlns="http://www.w3.org/2000/svg">
<g clip-path="url(#clip0)">
<path d="M225.951 114.175L228.799 113.682C229.072 113.635 229.343 113.576 229.616 113.527C225.109 110.729 221.687 106.481 219.913 101.481C218.139 96.4807 218.119 91.0259 219.855 86.0127C221.591 80.9995 224.981 76.7261 229.468 73.8944C233.954 71.0628 239.271 69.8414 244.543 70.4309L240.81 79.3131L249.654 71.5911C249.675 71.5962 249.695 71.603 249.715 71.6113C252.61 72.6312 255.277 74.2116 257.562 76.2622C259.848 78.3128 261.706 80.7934 263.033 83.5624C264.359 86.3314 265.127 89.3345 265.293 92.4004C265.459 95.4662 265.019 98.5347 263.999 101.431C263.851 101.852 263.675 102.254 263.506 102.661C266.003 101.406 268.398 99.9461 270.351 98.0763C274.305 94.2872 276.471 89.0586 278.893 82.6168C283.689 69.8513 288.307 56.9011 292.741 43.9227C287.851 41.2765 284.064 36.9734 282.062 31.7864C280.059 26.5993 279.972 20.8682 281.815 15.6225C282.053 14.9476 282.328 14.2977 282.62 13.6595C282.692 13.4998 282.766 13.341 282.842 13.1836C283.139 12.5717 283.452 11.9722 283.795 11.3968C283.851 11.3025 283.914 11.2142 283.971 11.1209C284.27 10.6357 284.586 10.165 284.917 9.70856C285.041 9.5372 285.164 9.36631 285.292 9.19902C285.667 8.70757 286.057 8.22938 286.467 7.77285C286.604 7.6201 286.75 7.47738 286.89 7.32857C287.206 6.99588 287.53 6.67323 287.862 6.36063C288.038 6.19605 288.211 6.03029 288.391 5.87155C288.437 5.83082 288.48 5.78637 288.527 5.74598C288.529 5.74896 288.531 5.75216 288.533 5.7551C292.651 2.16638 297.897 0.13407 303.358 0.0113905C308.819 -0.111289 314.15 1.68342 318.425 5.08358L313.568 16.6422L322.311 9.01204C325.371 12.9104 327.105 17.6844 327.261 22.6377C327.416 27.591 325.985 32.4644 323.175 36.5469C323.183 36.5497 323.192 36.5519 323.2 36.5547C323.104 36.695 322.996 36.8234 322.898 36.9612C322.713 37.2199 322.525 37.4739 322.332 37.7233C322.083 38.0432 321.825 38.3523 321.562 38.6572C321.363 38.8874 321.167 39.1194 320.96 39.3408C320.657 39.6647 320.34 39.9713 320.021 40.2763C319.834 40.4541 319.656 40.641 319.465 40.8123C318.962 41.2613 318.442 41.6873 317.905 42.0903C317.716 42.2314 317.517 42.3559 317.325 42.4911C316.948 42.7565 316.569 43.0179 316.177 43.2601C315.934 43.4103 315.684 43.5476 315.436 43.6888C315.077 43.8934 314.716 44.0916 314.346 44.2767C314.084 44.4079 313.821 44.5325 313.554 44.6539C313.175 44.8267 312.791 44.987 312.403 45.1395C312.143 45.2417 311.884 45.3453 311.62 45.4382C311.185 45.5916 310.743 45.7249 310.298 45.8524C310.074 45.9169 309.853 45.9907 309.627 46.0484C308.96 46.2184 308.286 46.3632 307.604 46.4741C307.476 46.495 307.345 46.5029 307.216 46.5216C306.651 46.6039 306.083 46.6703 305.51 46.7109C305.263 46.7282 305.016 46.7307 304.768 46.7403C304.305 46.7584 303.842 46.7675 303.376 46.7576C303.104 46.7518 302.832 46.7377 302.56 46.7224C302.106 46.6967 301.652 46.6572 301.197 46.6038C300.928 46.5727 300.66 46.5418 300.391 46.5011C299.904 46.4272 299.418 46.3305 298.931 46.2247C298.899 46.2177 298.867 46.2135 298.835 46.2065C296.964 51.6819 295.058 57.1456 293.117 62.5976C295.484 60.4692 298.261 58.8469 301.278 57.8303C304.294 56.8137 307.486 56.4242 310.659 56.6857C313.831 56.9472 316.916 57.8542 319.726 59.351C322.535 60.8478 325.009 62.9029 326.995 65.3901L318.912 74.3291L329.856 69.9603C332.514 75.5346 332.851 81.9362 330.791 87.7583C330.078 89.8042 329.078 91.7387 327.822 93.504C325.118 97.3286 321.327 100.252 316.941 101.896C312.555 103.54 307.776 103.828 303.225 102.723C298.673 101.618 294.558 99.1705 291.415 95.6983C288.271 92.2261 286.243 87.8894 285.594 83.2507C285.388 83.8 285.19 84.3562 284.984 84.905C282.847 90.588 280.189 97.6605 274.851 102.774C271.233 106.24 266.781 108.439 262.51 110.298C259.729 111.508 256.911 112.627 254.056 113.655C250.881 115.579 247.295 116.722 243.593 116.989C239.088 118.241 234.526 119.285 229.921 120.092L227.05 120.587C224.469 121.029 221.824 121.484 219.198 122.008C219.576 122.121 219.954 122.228 220.331 122.36C225.009 124.007 229.044 127.099 231.85 131.189C234.656 135.279 236.09 140.155 235.943 145.113L217.943 150.638L234.231 153.224C232.741 156.886 230.347 160.11 227.273 162.596C224.199 165.082 220.545 166.748 216.653 167.439C212.76 168.13 208.756 167.823 205.014 166.547C201.273 165.27 197.916 163.067 195.257 160.141C195.422 160.695 195.588 161.248 195.755 161.8C196.085 162.898 196.413 163.989 196.728 165.07C201.014 179.797 199.17 191.381 191.534 197.688L187.39 192.672C194.822 186.533 192.516 173.882 190.482 166.887C190.172 165.826 189.849 164.754 189.525 163.676C186.733 154.402 183.569 143.89 187.667 134.231C193.844 119.672 211.646 116.624 225.951 114.175Z" fill="#F2F2F2"/>
<path d="M220.676 199.577H94.5587C90.4229 199.577 86.4566 197.935 83.5322 195.01C80.6078 192.086 78.9648 188.119 78.9648 183.984V126.203C78.9648 125.364 79.1358 124.534 79.4672 123.763C79.7986 122.992 80.2836 122.297 80.8926 121.72L147.722 58.3708C150.394 55.838 153.935 54.4263 157.617 54.4263C161.299 54.4263 164.84 55.838 167.512 58.3708L231.231 118.771C232.822 120.279 234.09 122.097 234.956 124.111C235.823 126.126 236.269 128.297 236.269 130.49V183.984C236.269 186.031 235.866 188.059 235.082 189.951C234.299 191.843 233.15 193.562 231.702 195.01C230.254 196.458 228.535 197.607 226.643 198.39C224.751 199.174 222.723 199.577 220.676 199.577Z" fill="#3F3D56"/>
<path opacity="0.1" d="M78.9648 127.152H234.958V190.161C234.958 192.658 233.966 195.053 232.201 196.819C230.435 198.585 228.04 199.577 225.542 199.577H88.3809C85.8836 199.577 83.4886 198.585 81.7227 196.819C79.9569 195.053 78.9648 192.658 78.9648 190.161V127.152Z" fill="black"/>
<path d="M206.879 77.5025H108.027C103.289 77.5025 99.4473 81.3439 99.4473 86.0825V184.935C99.4473 189.673 103.289 193.515 108.027 193.515H206.879C211.618 193.515 215.459 189.673 215.459 184.935V86.0825C215.459 81.3439 211.618 77.5025 206.879 77.5025Z" fill="#8BC34A"/>
<path opacity="0.1" d="M215.459 129.757V193.515H99.4473V129.757L157.453 157.794L215.459 129.757Z" fill="black"/>
<path d="M157.453 161.398L83.1287 125.475C82.669 125.253 82.1604 125.151 81.6505 125.179C81.1407 125.207 80.6463 125.364 80.2138 125.635C79.7813 125.907 79.4247 126.283 79.1776 126.73C78.9304 127.177 78.8008 127.679 78.8008 128.19V189.997C78.8008 191.234 79.0443 192.458 79.5175 193.601C79.9907 194.743 80.6843 195.781 81.5587 196.656C82.4331 197.53 83.4711 198.224 84.6135 198.697C85.7559 199.17 86.9803 199.413 88.2169 199.413H226.689C227.926 199.413 229.15 199.17 230.293 198.697C231.435 198.224 232.473 197.53 233.347 196.656C234.222 195.781 234.915 194.743 235.389 193.601C235.862 192.458 236.105 191.234 236.105 189.997V129.249C236.105 128.626 235.947 128.013 235.645 127.468C235.344 126.922 234.909 126.463 234.381 126.132C233.853 125.8 233.25 125.609 232.628 125.574C232.006 125.54 231.385 125.664 230.824 125.936L157.453 161.398Z" fill="#3F3D56"/>
<path d="M141.886 88.1532H109.442V92.7412H141.886V88.1532Z" fill="#F2F2F2"/>
<path d="M203.17 104.867H106.821V107.489H203.17V104.867Z" fill="#F2F2F2"/>
<path d="M203.17 113.715H106.821V116.337H203.17V113.715Z" fill="#F2F2F2"/>
<path d="M203.17 122.564H106.821V125.185H203.17V122.564Z" fill="#F2F2F2"/>
<path d="M19.9756 199.413H290.015" stroke="#3F3D56" stroke-miterlimit="10"/>
<path d="M0 159.059C0 178.381 12.1218 194.016 27.102 194.016L0 159.059Z" fill="#46455B"/>
<path d="M27.1016 194.017C27.1016 174.477 40.6288 158.666 57.3459 158.666L27.1016 194.017Z" fill="#212121"/>
<path d="M9.81934 160.81C9.81934 179.165 17.5492 194.017 27.1018 194.017L9.81934 160.81Z" fill="#212121"/>
<path d="M27.1016 194.017C27.1016 169.05 42.7369 148.847 62.0593 148.847L27.1016 194.017Z" fill="#46455B"/>
<path d="M21.4004 194.263C21.4004 194.263 25.2439 194.144 26.4022 193.32C27.5606 192.495 32.3145 191.51 32.6019 192.833C32.8892 194.156 38.378 199.412 34.0387 199.447C29.6994 199.482 23.9561 198.771 22.7999 198.067C21.6438 197.363 21.4004 194.263 21.4004 194.263Z" fill="#A8A8A8"/>
<path opacity="0.2" d="M34.1161 198.987C29.7768 199.022 24.0335 198.311 22.8774 197.607C21.9969 197.07 21.6461 195.146 21.5287 194.258C21.4474 194.261 21.4004 194.263 21.4004 194.263C21.4004 194.263 21.6438 197.363 22.7999 198.067C23.9561 198.771 29.6994 199.482 34.0387 199.447C35.2913 199.437 35.7239 198.991 35.7002 198.331C35.5262 198.73 35.0484 198.979 34.1161 198.987Z" fill="black"/>
<path d="M235.862 53.3428C235.666 55.0976 234.327 56.5111 233.831 58.2059C233.085 60.7566 234.375 63.4939 236.141 65.4805C237.566 67.0665 239.291 68.354 241.217 69.2684C243.142 70.1828 245.23 70.7059 247.36 70.8074C247.986 70.8624 248.616 70.7937 249.215 70.6052C249.75 70.39 250.231 70.0609 250.626 69.6408C251.956 68.3057 252.669 66.4558 252.954 64.5932C253.238 62.7305 253.128 60.8329 253.017 58.9519C253.017 58.5631 252.947 58.1775 252.808 57.8141C252.627 57.4679 252.378 57.1618 252.076 56.9138C251.119 56.0356 250.064 55.2697 248.933 54.6307C248.422 54.4017 247.971 54.0566 247.616 53.6231C247.402 53.2516 247.264 52.8416 247.209 52.4166L246.862 50.6473C246.8 50.1374 246.626 49.6476 246.352 49.2131C245.739 48.3857 244.565 48.2731 243.536 48.2327L239.766 48.0848C238.593 48.0388 237.048 47.7025 235.903 47.9328C234.834 48.1479 235.189 49.1331 235.383 50.0302C235.665 51.1133 235.825 52.2243 235.862 53.3428Z" fill="#A0616A"/>
<path opacity="0.1" d="M235.862 53.3428C235.666 55.0976 234.327 56.5111 233.831 58.2059C233.085 60.7566 234.375 63.4939 236.141 65.4805C237.566 67.0665 239.291 68.354 241.217 69.2684C243.142 70.1828 245.23 70.7059 247.36 70.8074C247.986 70.8624 248.616 70.7937 249.215 70.6052C249.75 70.39 250.231 70.0609 250.626 69.6408C251.956 68.3057 252.669 66.4558 252.954 64.5932C253.238 62.7305 253.128 60.8329 253.017 58.9519C253.017 58.5631 252.947 58.1775 252.808 57.8141C252.627 57.4679 252.378 57.1618 252.076 56.9138C251.119 56.0356 250.064 55.2697 248.933 54.6307C248.422 54.4017 247.971 54.0566 247.616 53.6231C247.402 53.2516 247.264 52.8416 247.209 52.4166L246.862 50.6473C246.8 50.1374 246.626 49.6476 246.352 49.2131C245.739 48.3857 244.565 48.2731 243.536 48.2327L239.766 48.0848C238.593 48.0388 237.048 47.7025 235.903 47.9328C234.834 48.1479 235.189 49.1331 235.383 50.0302C235.665 51.1133 235.825 52.2243 235.862 53.3428Z" fill="black"/>
<path d="M259.848 132.326C259.314 138.183 258.78 144.039 258.245 149.895C257.827 154.503 257.401 159.129 256.581 163.678C256.298 165.245 255.966 166.805 255.572 168.351C254.476 172.643 252.887 176.838 252.375 181.238C252.359 181.365 252.345 181.495 252.332 181.624C252.274 182.597 252.09 183.558 251.784 184.484C251.528 185.156 251.134 185.768 250.856 186.432C250.303 187.759 250.23 189.227 250.163 190.665C248.217 189.571 246.087 188.843 243.879 188.517C242.814 188.358 241.627 188.245 240.901 187.449C240.097 186.569 240.186 185.223 240.321 184.041C240.744 180.372 241.167 176.705 241.589 173.04C241.727 171.463 241.994 169.9 242.39 168.367C242.536 167.857 242.711 167.355 242.889 166.853C243.135 166.163 243.383 165.472 243.569 164.763C243.837 163.616 244.025 162.452 244.13 161.28C244.565 157.589 245.088 153.906 245.547 150.218L245.571 150.024C246.259 144.434 246.782 138.817 246.631 133.187C246.61 132.353 246.574 131.52 246.521 130.683C246.445 129.472 246.334 128.83 247.338 128.072C248.447 127.235 249.906 126.65 251.174 126.102C251.857 125.806 259.373 123.137 259.548 123.723C259.901 124.972 260.086 126.262 260.099 127.559C260.104 129.152 260.02 130.743 259.848 132.326Z" fill="#605D82"/>
<path opacity="0.1" d="M256.58 163.678C256.297 165.246 255.965 166.805 255.571 168.351C254.476 172.643 252.887 176.838 252.374 181.238C252.358 181.365 252.345 181.495 252.331 181.624C248.98 176.838 246.158 171.691 242.889 166.854C243.134 166.163 243.382 165.472 243.569 164.763C243.837 163.616 244.024 162.452 244.13 161.28C244.564 157.589 245.087 153.907 245.546 150.219L245.57 150.024C245.762 150.807 246.036 151.568 246.388 152.293C248.584 156.756 253.801 159.011 256.354 163.282C256.432 163.414 256.507 163.546 256.58 163.678Z" fill="black"/>
<path d="M229.391 124.44C229.502 128.019 230.075 131.566 230.647 135.101L231.826 142.394C232.472 146.385 233.144 150.458 235.033 154.033C236.446 156.707 238.482 158.989 240.323 161.389C244.851 167.287 248.252 173.969 252.545 180.04C253.793 181.804 255.577 183.713 257.706 183.344C259.104 183.103 260.119 181.939 261.218 181.042C262.513 179.984 264.075 179.21 265.094 177.884C266.113 176.558 266.313 174.354 264.932 173.411C264.432 173.134 263.902 172.917 263.351 172.764C261.211 171.95 259.825 169.86 258.944 167.746C258.062 165.632 257.528 163.36 256.354 161.394C253.802 157.123 248.583 154.868 246.387 150.404C245.156 147.904 245.039 145.022 244.945 142.237L244.705 135.138C244.679 134.362 244.659 133.555 244.974 132.845C245.815 130.955 248.351 130.779 250.406 130.54C252.737 130.266 254.995 129.554 257.062 128.44C258.245 127.801 259.401 126.986 260.034 125.8C260.611 124.718 260.691 123.448 260.758 122.223L261.47 109.358C261.531 108.251 261.587 107.106 261.196 106.069C260.217 103.463 256.927 102.612 254.146 102.736C248.971 102.968 244.194 105.194 239.315 106.697C238.107 107.078 236.88 107.398 235.639 107.656C234.544 107.875 233.219 107.784 232.175 108.136C230.317 108.762 230.364 112.824 230.101 114.509C229.557 117.79 229.32 121.115 229.391 124.44Z" fill="#605D82"/>
<path d="M257.004 183.884C257.461 184.344 257.61 185.018 257.729 185.655C258.388 189.189 258.731 192.775 258.753 196.369C258.723 196.705 258.789 197.042 258.946 197.34C259.074 197.518 259.248 197.658 259.45 197.745C260.769 198.374 262.299 197.498 263.398 196.535C265.436 194.75 267.159 192.355 267.275 189.649C267.254 188.952 267.278 188.255 267.348 187.561C267.527 186.542 268.122 185.655 268.646 184.763C269.538 183.245 270.257 181.633 270.791 179.955C270.991 179.325 271.125 178.531 270.631 178.091C270.456 177.954 270.257 177.85 270.044 177.786L264.086 175.574C263.57 175.382 262.285 178.682 262.081 179.043C261.583 179.925 261.087 180.426 260.086 180.63C259.065 180.838 257.849 180.539 256.896 181.049C255.284 181.911 256.091 182.963 257.004 183.884Z" fill="#535070"/>
<path d="M247.812 185.92C247.701 185.7 247.547 185.504 247.358 185.345C247.083 185.17 246.769 185.064 246.444 185.035C245.31 184.842 243.965 184.715 243.183 185.558C242.449 186.349 242.575 187.636 241.961 188.523C241.767 188.804 241.504 189.035 241.335 189.332C241.126 189.786 241.032 190.285 241.061 190.784C241.029 192.159 240.998 193.536 241.093 194.908C241.172 196.057 241.366 197.262 242.085 198.163C243.239 199.608 245.32 199.816 247.167 199.91L248.663 199.986C249.075 200.036 249.493 199.998 249.889 199.874C250.135 199.76 250.355 199.599 250.536 199.399C250.718 199.199 250.858 198.965 250.947 198.71C251.726 196.774 250.493 194.689 249.733 192.746C248.86 190.512 249.016 188.032 247.812 185.92Z" fill="#535070"/>
<path d="M235.429 43.4554C235.411 43.2592 235.439 43.0614 235.513 42.8786C235.732 42.4911 236.304 42.5966 236.736 42.7054C238.472 43.143 240.301 42.7469 242.088 42.8491C243.875 42.9514 245.889 43.8448 246.248 45.5986C247.545 44.6789 248.663 43.5299 249.548 42.2082C250.044 41.4659 250.476 40.6157 250.408 39.7255C250.311 38.4415 249.234 37.4812 248.236 36.6669L245.263 34.2395C244.873 33.8809 244.422 33.5943 243.931 33.3931C243.245 33.1584 242.496 33.2702 241.77 33.2707C239.606 33.2721 237.298 32.287 235.373 33.2766C234.569 33.6899 233.964 34.3983 233.38 35.089L230.726 38.2304C230.527 38.4306 230.381 38.6781 230.302 38.9498C230.227 39.3333 230.424 39.7117 230.492 40.0964C230.618 40.7982 230.315 41.5472 230.548 42.2212C230.934 43.3401 232.292 43.4985 233.123 44.1399C233.432 44.379 233.917 45.1892 234.286 45.1793C234.951 45.1614 235.412 43.9724 235.429 43.4554Z" fill="#3F3D56"/>
<path d="M239.932 52.7154C244.625 52.7154 248.43 48.9107 248.43 44.2172C248.43 39.5238 244.625 35.719 239.932 35.719C235.238 35.719 231.434 39.5238 231.434 44.2172C231.434 48.9107 235.238 52.7154 239.932 52.7154Z" fill="#A0616A"/>
<path d="M241.922 62.8158C241.634 61.9899 241.09 61.2773 240.369 60.7814C239.649 60.2855 238.789 60.032 237.915 60.0578C237.664 60.1043 237.406 60.0716 237.175 59.9643C237.045 59.8641 236.941 59.7337 236.871 59.5844C236.355 58.6552 235.939 57.6731 235.632 56.6551C235.497 56.2053 235.311 55.675 234.856 55.5581C234.668 55.5334 234.476 55.5604 234.302 55.6362C234.128 55.712 233.978 55.8337 233.867 55.9884C233.651 56.2996 233.415 56.5965 233.16 56.877C232.091 57.8326 230.197 56.9616 229.062 57.8384C228.877 57.9816 228.724 58.165 228.529 58.2953C228.335 58.4126 228.125 58.5026 227.905 58.5628C225.715 59.278 223.567 60.1191 221.474 61.0819C222.228 65.6263 223.001 70.2499 224.77 74.5035C225.612 76.5277 226.566 78.5101 227.24 80.5962C228.733 85.2182 228.8 90.1635 228.816 95.0208C228.828 98.3452 228.811 101.741 227.736 104.886C227.446 105.581 227.242 106.309 227.128 107.053C227.063 107.803 227.282 108.629 227.889 109.073C228.241 109.304 228.644 109.445 229.063 109.486C230.926 109.759 232.805 109.263 234.64 108.838C239.559 107.699 244.575 107.047 249.581 106.397L257.971 105.308C258.572 105.267 259.161 105.115 259.707 104.859C261.242 104.019 261.388 101.71 260.434 100.242C259.977 99.5381 259.332 98.9608 258.948 98.2147C258.564 97.4687 258.532 96.4254 259.193 95.9087C260.537 94.8576 260.136 92.9075 260.201 91.2019C260.38 86.4328 260.356 81.6618 260.128 76.889C260.06 75.901 260.045 74.9102 260.08 73.9205C260.229 72.2436 260.539 70.5848 261.006 68.9671L263.555 58.9298C262.889 57.8774 261.614 57.2098 260.406 56.9066C259.198 56.6035 257.94 56.5143 256.75 56.1457C254.313 55.3905 252.144 53.4741 249.599 53.6527C249.406 53.6562 249.217 53.7024 249.044 53.7881C248.47 54.1133 248.561 54.9405 248.525 55.5991C248.443 57.0565 247.372 58.2744 246.188 59.1284C245.004 59.9824 243.652 60.605 242.565 61.5789C242.373 61.7241 242.215 61.9105 242.104 62.1245C241.992 62.3385 241.93 62.5747 241.922 62.8158Z" fill="#3F3D56"/>
<path d="M208.25 72.3364C207.686 72.702 207.087 73.0102 206.462 73.2562C205.85 73.4383 205.272 73.7189 204.75 74.0871C204.509 74.2952 204.308 74.5443 204.154 74.8228C203.867 75.333 203.721 75.911 203.733 76.4965C203.745 77.0821 203.914 77.6537 204.222 78.1517C204.53 78.6497 204.967 79.0558 205.485 79.3277C206.004 79.5996 206.586 79.7272 207.171 79.6973C207.948 79.6102 208.704 79.3849 209.402 79.0321L215.396 76.4348C216.411 75.9951 217.506 75.4799 217.986 74.4837C218.042 74.3907 218.063 74.2809 218.044 74.174C217.996 74.061 217.909 73.9691 217.798 73.9152C216.446 73.0371 215.264 71.9222 214.308 70.6241C214.062 70.2902 213.761 69.5019 213.413 69.3017C212.145 68.571 209.265 71.6774 208.25 72.3364Z" fill="#A0616A"/>
<path d="M272.328 70.2051L274.537 72.7295C275.012 73.2715 275.487 73.814 275.919 74.39C276.981 75.8535 277.833 77.4584 278.45 79.1581C278.931 80.4185 279.329 81.7612 279.161 83.0996C279.05 83.7857 278.865 84.4578 278.609 85.1041C278.204 86.3471 277.702 87.5563 277.107 88.7206C276.607 89.6052 276.042 90.4516 275.417 91.2529C273.706 93.5205 271.834 95.662 269.815 97.6605C269.06 98.4084 268.743 99.6176 268.414 100.629C267.808 102.493 266.364 103.945 264.968 105.323C264.52 105.796 264.024 106.223 263.489 106.596C262.687 107.112 261.75 107.379 260.796 107.363C260.379 107.366 259.966 107.28 259.584 107.112C258.628 106.658 258.143 105.553 258.043 104.501C257.955 103.545 258.115 102.583 258.508 101.708C259.776 98.8993 263.033 97.682 265.334 95.6324C266.684 94.4306 267.716 92.9209 268.734 91.4276C269.426 90.4953 270.003 89.4835 270.454 88.4138C270.968 87.0422 270.768 85.4184 271.217 84.0242C271.406 83.4349 271.744 82.9027 271.948 82.3182C272.152 81.7336 272.204 81.0397 271.846 80.5339C271.577 80.2124 271.234 79.9611 270.846 79.8014C269.376 79.0551 267.729 78.0947 267.447 76.4699C267.335 75.5688 267.571 74.6589 268.106 73.9254C268.639 73.2016 269.262 72.5486 269.96 71.9821C270.603 71.4134 271.684 70.7738 272.328 70.2051Z" fill="#A0616A"/>
<path d="M206.831 75.8602C206.44 75.072 205.953 74.2678 205.165 73.8759C204.784 73.7102 204.372 73.6238 203.956 73.622C203.54 73.6203 203.128 73.7032 202.744 73.8657C201.981 74.1949 201.266 74.6272 200.62 75.1504L198.715 76.5545C198.283 76.8378 197.901 77.1905 197.584 77.5983C197.284 78.0931 197.084 78.6422 196.995 79.2143C196.663 80.519 196.562 81.8717 196.696 83.2113C196.998 85.3593 198.293 87.2345 199.719 88.8696C200.609 89.8913 201.709 90.9224 203.064 90.9659C203.649 90.9848 204.299 90.7543 204.542 90.2221C204.626 90.0111 204.671 89.7865 204.674 89.5593C204.82 87.1635 203.963 84.8233 202.964 82.6409C202.645 82.0695 202.457 81.4346 202.413 80.7819C202.405 80.672 202.434 80.5628 202.494 80.4705C202.58 80.3808 202.695 80.3245 202.819 80.3117C204.187 80.0412 206.543 81.1038 207.503 79.5848C208.125 78.6 207.273 76.7533 206.831 75.8602Z" fill="#A0616A"/>
<path d="M234.984 40.7814C234.965 40.5852 234.994 40.3874 235.068 40.2046C235.287 39.8171 235.859 39.9226 236.291 40.0314C238.026 40.469 239.856 40.0729 241.643 40.1751C243.43 40.2773 245.443 41.1708 245.803 42.9245C247.1 42.0049 248.218 40.8559 249.102 39.5342C249.598 38.7919 250.031 37.9417 249.963 37.0515C249.866 35.7675 248.788 34.8072 247.791 33.9929L244.817 31.5655C244.427 31.2069 243.976 30.9203 243.486 30.7191C242.799 30.4844 242.051 30.5962 241.325 30.5967C239.161 30.5981 236.853 29.613 234.928 30.6026C234.124 31.0159 233.518 31.7243 232.935 32.415L230.281 35.5564C230.081 35.7566 229.935 36.0041 229.857 36.2758C229.781 36.6593 229.978 37.0377 230.047 37.4224C230.172 38.1242 229.87 38.8732 230.102 39.5472C230.488 40.6661 231.847 40.8245 232.677 41.4659C232.987 41.705 233.472 42.5152 233.841 42.5053C234.506 42.4874 234.966 41.2984 234.984 40.7814Z" fill="#3F3D56"/>
<path d="M216.934 64.0704C216.591 64.2917 216.29 64.572 216.044 64.8985C215.733 65.3696 215.669 65.9643 215.402 66.4616C214.829 67.5259 213.49 67.9045 212.654 68.7777C212.521 68.8977 212.429 69.056 212.39 69.2307C212.386 69.4677 212.465 69.6985 212.614 69.8827L216.644 76.218C217.986 76.3362 219.273 75.4956 220.615 75.6071C221.117 75.6488 221.629 75.8219 222.11 75.6738C222.454 75.5212 222.777 75.324 223.069 75.0872C223.87 74.5809 224.937 74.5219 225.609 73.8538C226.253 73.2127 226.336 72.2095 226.328 71.3003C226.339 70.5106 226.258 69.7224 226.088 68.9512C225.495 66.5195 223.635 64.6534 222.469 62.4993C221.902 61.4506 221.593 60.8367 220.391 61.5568C219.184 62.2806 218.07 63.2393 216.934 64.0704Z" fill="#3F3D56"/>
<path d="M265.875 60.8666C266.633 61.3584 267.315 61.9564 267.903 62.6424C268.517 63.4339 268.864 64.4027 269.454 65.2125C270.026 65.9974 270.804 66.6053 271.452 67.3281C272.435 68.4242 273.101 69.7614 273.755 71.0808C272.158 73.1642 270.416 75.1328 268.543 76.9722C268.334 77.2179 268.059 77.3985 267.751 77.4925C267.542 77.5148 267.33 77.4847 267.134 77.4051C266.939 77.3255 266.767 77.1988 266.632 77.0363C266.342 76.7318 266.136 76.3564 265.859 76.0403C265.204 75.3647 264.331 74.9426 263.395 74.8487C262.467 74.759 261.534 74.7461 260.604 74.8102C260.4 74.833 260.193 74.7983 260.008 74.71C259.87 74.6148 259.758 74.4866 259.682 74.3369C258.591 72.4803 258.942 70.1493 259.327 68.0306L260.21 63.1687C260.338 62.2402 260.585 61.332 260.945 60.4666C261.28 59.7516 262.028 58.5392 262.948 58.7532C263.875 58.969 265.095 60.3054 265.875 60.8666Z" fill="#3F3D56"/>
<path d="M104.199 92.7901C111.62 92.7901 117.636 86.7635 117.636 79.3293C117.636 71.895 111.62 65.8684 104.199 65.8684C96.7784 65.8684 90.7627 71.895 90.7627 79.3293C90.7627 86.7635 96.7784 92.7901 104.199 92.7901Z" fill="white"/>
<path d="M104.199 63.5743C101.023 63.5743 97.9181 64.5161 95.2774 66.2806C92.6366 68.0451 90.5784 70.5531 89.363 73.4873C88.1476 76.4216 87.8296 79.6503 88.4492 82.7653C89.0688 85.8803 90.5982 88.7416 92.844 90.9874C95.0897 93.2331 97.951 94.7625 101.066 95.3821C104.181 96.0018 107.41 95.6837 110.344 94.4683C113.278 93.2529 115.786 91.1947 117.551 88.554C119.315 85.9132 120.257 82.8085 120.257 79.6325C120.245 75.3775 118.549 71.3002 115.54 68.2914C112.531 65.2826 108.454 63.5868 104.199 63.5743ZM100.902 88.1943L92.6724 79.9645L94.9808 77.6561L100.91 83.5853L113.425 71.0707L115.733 73.3791L100.902 88.1943L100.902 88.1943Z" fill="#4CAF50"/>
</g>
<defs>
<clipPath id="clip0">
<rect width="332.125" height="200" fill="white"/>
</clipPath>
</defs>
</svg>
