<svg width="652" height="362" viewBox="0 0 652 362" fill="none" xmlns="http://www.w3.org/2000/svg">
<path opacity="0.59" d="M119.682 131.118C108.732 130.069 100.113 138.222 90.445 141.774C65.8676 150.573 39.543 152.268 22.3039 173.498C13.0437 184.961 7.56916 198.845 4.42419 212.972C-1.28335 238.562 0.696816 266.815 15.5481 288.772C45.7748 333.573 117.177 340.596 167.497 344.874C232.493 350.444 297.897 346.328 362.951 350.041C431.908 353.996 500.922 366.751 569.587 359.163C587.409 357.225 605.463 353.673 620.955 345.036C636.447 336.318 649.085 321.707 651.182 304.593C652.987 289.417 646.173 274.08 635.399 262.779C624.566 251.558 610.123 243.97 595.155 238.642C553.804 223.87 508.202 224.758 465.512 213.86C387.121 193.921 318.805 124.661 234.59 128.697" fill="#AFE868"/>
<path d="M206.77 39.3764L217.867 33.4073C219.693 31.2303 221.519 29.5449 223.345 28.3511C223.907 28.1404 224.82 28 223.977 29.6151C223.064 31.2303 222.222 32.9157 222.643 33.4073C223.064 33.8988 224.258 33.1966 224.75 34.0393C225.101 34.6011 223.135 35.4438 218.921 36.5674L210.844 43.8708L206.77 39.3764Z" fill="#997659"/>
<path d="M180.361 27.5791L185.559 26.0342C191.037 36.919 200.589 41.4836 214.917 33.3376L222.432 47.1718C208.876 54.3348 194.197 53.3516 185.84 38.8853C183.662 35.023 181.555 31.0904 180.361 27.5791Z" fill="#153301"/>
<path d="M199.746 263.604H136.957L141.101 236.146H195.603L199.746 263.604Z" fill="#204F01"/>
<path d="M208.455 266.342H127.756V270.907H208.455V266.342Z" fill="#204F01"/>
<path d="M127.756 266.343L136.957 263.604H199.746L208.455 266.343H127.756Z" fill="#307205"/>
<path d="M50.2876 214.587V230.598C50.2876 233.618 52.7458 236.076 55.7659 236.076H280.937C283.957 236.076 286.415 233.618 286.415 230.598V214.587H50.2876Z" fill="#307205"/>
<path d="M286.415 214.587V77.5078C286.415 74.4881 283.957 72.0303 280.937 72.0303H55.7656C52.7456 72.0303 50.2874 74.4881 50.2874 77.5078V214.587H286.415Z" fill="#204F01"/>
<path d="M279.04 79.123H57.3809V206.37H279.04V79.123Z" fill="#DFFDAD"/>
<path d="M167.439 228.701C169.533 228.701 171.231 227.004 171.231 224.909C171.231 222.815 169.533 221.117 167.439 221.117C165.344 221.117 163.646 222.815 163.646 224.909C163.646 227.004 165.344 228.701 167.439 228.701Z" fill="#204F01"/>
<path d="M579.433 246.188C579.503 246.118 579.643 245.977 579.714 245.907C579.784 246.118 579.714 246.258 579.433 246.188Z" fill="#FEFEFE"/>
<path d="M431.511 183.148C432.916 193.331 437.06 202.25 444.083 212.573L438.956 215.311C429.755 207.376 425.049 202.952 425.26 193.893C425.33 191.646 427.227 185.044 428.07 181.533L431.511 183.148Z" fill="#680436"/>
<path d="M567.554 191.996C563.691 192.909 558.705 191.224 554.842 188.766L555.825 184.342C561.022 186.308 565.447 186.097 568.748 185.465C571.417 187.221 570.644 191.224 567.554 191.996Z" fill="#1E9ED1"/>
<path d="M446.26 230.409H514.387L532.437 240.873V230.409H552.594C556.668 230.409 559.969 227.109 559.969 223.036V186.308C559.969 182.235 556.668 178.935 552.594 178.935H446.26C442.186 178.935 438.885 182.235 438.885 186.308V223.036C438.885 227.109 442.256 230.409 446.26 230.409Z" fill="#F2F9E5"/>
<path d="M412.407 210.817H433.898C429.052 195.929 426.524 185.746 426.454 180.199C426.454 179.918 425.892 179.426 425.681 179.496C423.995 179.988 422.169 179.777 420.273 178.935C415.146 187.151 413.39 197.263 412.407 210.817Z" fill="#FDA5C4"/>
<path d="M416.48 210.113L428.911 243.119L437.62 267.417H442.607L430.597 210.113H416.48Z" fill="#CE1560"/>
<path d="M413.39 210.113C413.25 221.419 413.32 236.658 413.039 237.36C412.828 237.852 406.296 243.189 393.373 253.442L395.972 257.796C411.283 247.964 419.29 242.346 420.062 241.012C421.256 239.046 427.156 220.928 430.176 210.113H413.39Z" fill="#DD1D69"/>
<path d="M388.87 256.366L393.193 253.106L396.669 257.248C396.941 260.412 397.978 263.942 399.781 267.838L398.974 268.515L392.653 260.984L390.863 258.086L390.486 258.402L388.816 256.412L388.87 256.366Z" fill="#680436"/>
<path d="M437.199 272.052L437.48 266.645H442.888C445.487 268.47 448.858 269.945 453.002 271.069V272.122H443.169L439.798 271.63V272.122H437.199V272.052Z" fill="#680436"/>
<path d="M431.23 165.592C432.143 168.892 433.266 176.266 432.072 177.46H424.557C424.557 177.46 424.557 177.46 424.557 177.39C421.748 177.109 419.571 174.721 419.571 171.842V166.434C419.571 163.345 422.099 160.887 425.119 160.887H425.611C428.491 160.887 430.808 162.923 431.23 165.592Z" fill="#191847"/>
<path d="M422.52 170.858C421.326 169.454 420.484 167.768 420.624 165.802C421.045 160.254 428.701 161.448 430.246 164.257C431.721 167.066 431.581 174.159 429.614 174.651C428.841 174.861 427.156 174.37 425.54 173.316L426.594 180.76H420.343L422.52 170.858Z" fill="#B28B67"/>
<path d="M424.206 169.876C424.487 172.966 424.347 176.477 423.504 177.32H415.989C415.567 170.016 419.641 172.895 419.641 166.013C419.922 165.732 420.133 165.522 420.343 165.311V165.1C421.678 162.432 423.293 161.098 425.33 161.098C428.35 161.098 429.263 162.502 430.106 163.696C429.474 165.732 427.156 166.084 425.049 167.348C424.838 167.137 424.487 166.997 424.136 166.997C423.363 166.997 422.731 167.629 422.731 168.401C422.731 169.244 423.363 169.876 424.206 169.876C424.136 169.876 424.206 169.876 424.206 169.876Z" fill="#191847"/>
<path d="M598.457 235.605C591.153 237.642 584.832 238.695 579.494 238.695C574.156 238.695 569.24 237.15 564.675 233.99C571.839 231.883 577.738 230.83 582.374 230.83C587.009 230.83 592.417 232.375 598.457 235.605Z" fill="#085F9B"/>
<path d="M573.103 241.645C573.173 241.505 573.243 241.435 573.313 241.294C574.297 238.696 589.959 210.747 591.574 205.62H573.875C572.681 209.482 567.343 233.921 566.571 238.766C564.183 246.421 559.266 271.28 558.705 273.036C558.073 274.862 561.725 276.758 562.708 274.511C564.253 270.999 568.046 261.168 569.661 255.199C571.277 249.581 572.541 244.525 573.103 241.645Z" fill="#997659"/>
<path d="M587.571 245.086C594.735 246.912 621.003 250.213 622.829 250.704C624.655 251.266 626.341 247.404 624.023 246.561C620.371 245.227 610.327 242.207 604.217 240.943C599.3 239.96 594.876 239.117 591.856 238.626C592.137 230.199 593.26 209.974 592.488 205.62H576.825C577.528 209.834 583.708 240.381 584.902 243.401C585.324 244.525 586.377 245.016 587.571 245.086Z" fill="#B28B67"/>
<path d="M623.864 245.538C624.832 245.367 625.536 245.314 625.976 245.379C626.496 245.502 627.318 245.713 628.303 246.039C628.205 246.698 627.195 252.295 625.31 263.039C623.776 263.238 623.056 262.794 623.105 261.859C623.154 260.923 623.215 260.056 623.175 259.422L621.028 250.887C621.003 250.749 621.117 250.586 621.243 250.492L622.545 250.191C623.115 249.378 623.42 248.682 623.542 248.162C623.607 247.722 623.567 247.088 623.339 246.201C623.303 245.993 623.449 245.611 623.864 245.538C623.795 245.55 623.864 245.538 623.864 245.538Z" fill="#085F9B"/>
<path d="M563.832 274.229C564.183 275.142 564.324 275.844 564.324 276.266C564.324 276.828 564.253 277.6 564.043 278.653C563.41 278.653 557.651 278.653 546.835 278.653C546.414 277.179 546.624 276.406 547.608 276.266C548.591 276.125 549.364 276.055 549.996 275.915L558.002 272.333C558.143 272.263 558.354 272.333 558.424 272.474L558.915 273.738C559.829 274.159 560.531 274.37 561.093 274.37C561.514 274.37 562.146 274.159 562.989 273.808C563.34 273.738 563.691 273.878 563.832 274.229C563.832 274.159 563.832 274.229 563.832 274.229Z" fill="#085F9B"/>
<path d="M592.487 205.619C585.604 203.653 579.072 203.653 572.892 205.619C570.785 215.38 565.588 219.243 564.604 234.201C574.999 239.397 587.852 230.549 598.527 235.535C601.618 228.513 597.333 211.588 592.487 205.619Z" fill="#1174BA"/>
<path d="M572.542 167.98C573.665 166.646 574.438 165.031 574.298 163.205C573.946 157.938 566.572 159.062 565.167 161.73C563.762 164.399 563.903 171.14 565.729 171.632C566.502 171.842 568.047 171.351 569.662 170.368L568.679 177.46H574.578L572.542 167.98Z" fill="#B28B67"/>
<path d="M570.505 167.628C571.207 169.033 572.261 170.086 573.244 170.086C575.14 170.086 576.545 167.488 576.545 164.749C576.545 164.679 576.545 164.538 576.545 164.468C578.582 165.872 580.127 168.611 582.866 168.611C586.518 168.611 587.993 161.238 582.866 161.238C579.354 161.238 577.669 161.729 576.194 162.502C575.913 161.659 575.491 160.957 574.93 160.535C574.789 160.395 574.578 160.254 574.368 160.114C574.227 160.044 574.017 159.974 573.876 159.903C572.963 159.552 571.699 159.342 570.224 159.271C569.943 159.271 569.662 159.271 569.451 159.271C569.451 157.937 568.328 156.813 566.993 156.813C565.659 156.813 564.535 157.937 564.535 159.271C564.535 160.606 565.588 161.659 566.853 161.729C567.625 161.94 568.538 162.151 569.592 162.221C569.522 162.642 569.451 163.063 569.451 163.555C569.451 163.976 569.522 164.468 569.592 164.96C569.802 164.679 570.154 164.538 570.435 164.538C571.277 164.538 571.91 165.24 571.91 166.013C571.91 166.856 571.348 167.558 570.505 167.628Z" fill="#043054"/>
<path d="M440.781 181.042L451.949 177.671C452.792 176.969 453.424 176.688 454.477 176.337C454.688 176.266 455.812 175.915 456.163 176.407C456.233 176.547 456.514 176.828 456.584 176.898C456.865 177.109 456.865 177.179 456.935 177.46C457.006 177.741 457.287 177.811 457.427 178.022C457.778 178.373 457.989 178.654 457.919 179.005C457.778 179.707 456.514 180.058 455.882 180.199C454.758 180.48 453.494 180.55 452.37 180.62L443.661 185.747L440.781 181.042Z" fill="#B28B67"/>
<path d="M422.099 179.006C428.28 179.076 438.253 180.199 449.842 176.478L450.965 182.166C442.256 187.784 433.407 192.138 425.681 191.506C429.052 205.902 428.912 217.699 421.467 217.699C417.955 217.699 414.092 217.699 410.019 217.699C408.193 205.48 412.969 188.486 417.393 179.919C417.534 179.567 417.955 179.006 418.798 179.006C419.5 178.935 420.624 178.935 422.099 179.006C422.099 178.935 422.099 178.935 422.099 179.006Z" fill="#84033E"/>
<path d="M551.26 197.263C549.223 196.35 547.467 195.859 545.852 195.718C542.831 195.508 541.497 195.157 539.741 193.612C538.758 192.839 537.775 191.013 538.336 190.241C538.758 189.749 541.989 191.224 543.183 191.224C544.377 191.224 542.761 188.696 543.393 188.836C544.166 188.696 545.079 189.609 546.132 191.715L550.627 193.12L551.26 197.263Z" fill="#997659"/>
<path d="M568.256 174.44L575.631 172.895C576.473 172.755 584.129 182.165 585.534 188.977C586.798 195.227 593.47 198.036 592.487 208.429C587.5 208.499 574.156 216.224 570.644 211.519C568.958 209.272 568.045 206.533 567.554 203.583C562.637 204.496 556.387 204.075 548.661 201.898C548.169 200.142 548.45 196.982 549.644 192.488C558.283 193.682 564.253 193.541 567.554 191.926C568.116 185.957 568.958 179.777 568.256 174.44Z" fill="#5FB2D3"/>
<path d="M346.747 143.239H253.546C250.385 143.239 247.787 139.587 247.787 135.092V125.261L230.86 118.59L247.787 112.41V99.9801C247.787 95.4857 250.385 91.834 253.546 91.834H346.676C349.837 91.834 352.436 95.4857 352.436 99.9801V135.022C352.436 139.587 349.907 143.239 346.747 143.239Z" fill="#F2F9E5"/>
<path d="M121.997 180.401H109.917V191.777L95.1674 180.401H15.6622C11.5886 180.401 8.2876 177.1 8.2876 173.027V136.299C8.2876 132.226 11.5886 128.926 15.6622 128.926H121.997C126.07 128.926 129.371 132.226 129.371 136.299V173.027C129.371 177.03 126 180.401 121.997 180.401Z" fill="#F2F9E5"/>
<path d="M21.4214 176.96C20.0167 175.836 18.893 174.291 18.612 172.325C17.9799 166.777 25.7759 166.566 27.7425 169.024C29.709 171.482 30.903 178.505 29.0769 179.347C28.3746 179.699 26.6187 179.488 24.7926 178.856L27.2508 185.949L21.1405 187.142L21.4214 176.96Z" fill="#B28B67"/>
<path d="M21.2108 178.224C19.8061 174.923 17.1372 173.027 17.2074 171.482C17.2074 170.429 17.6991 169.657 18.6121 169.235C18.7526 167.128 20.1573 165.935 22.9666 165.724C27.1104 165.373 29.9198 166.637 29.5686 170.569C28.5854 170.78 27.3211 170.64 25.776 171.553C25.2844 171.833 25.0034 172.536 25.0034 173.589L24.2308 173.73C23.2476 172.676 22.475 172.395 21.8429 172.817C21.2108 173.238 21.2108 174.081 21.7726 175.204L21.9131 178.083L21.2108 178.224Z" fill="#191847"/>
<path d="M17.1375 220.498L28.2345 259.332L36.3114 287.984H42.2111L33.5723 220.498H17.1375Z" fill="#043054"/>
<path d="M14.1872 220.498C13.9063 240.512 13.0635 251.467 12.7825 253.293C12.5016 255.119 8.428 266.706 0.561768 288.054H6.67215C16.7156 267.549 22.2642 255.962 23.4581 253.293C24.6521 250.624 28.2341 239.669 33.6421 220.498H14.1872Z" fill="#043E75"/>
<path d="M0 293.532L0.280938 287.142H6.67225C9.69233 289.248 13.6957 291.004 18.6121 292.338V293.532H7.02343L3.02008 292.9V293.532H0Z" fill="#1174BA"/>
<path d="M35.4683 293.532L35.7492 287.142H42.1405C45.1606 289.248 49.1639 291.004 54.0803 292.338V293.532H42.4917L38.4883 292.9V293.532H35.4683Z" fill="#1174BA"/>
<path d="M45.0205 187.213C46.7061 186.019 49.0941 185.317 51.0607 184.544C53.0974 183.702 55.2045 182.929 57.2413 182.086C58.7162 181.454 59.559 179.699 61.0339 179.207C61.666 178.996 62.4386 178.364 62.2279 179.348C61.947 180.331 61.666 180.331 62.5791 180.541C63.4921 180.752 67.6359 179.839 68.8299 180.19C69.6727 180.401 64.6159 182.578 59.559 183.842L53.0272 188.968C50.4988 188.407 47.4787 188.126 45.0205 187.213Z" fill="#B28B67"/>
<path d="M22.9666 192.62C34.0637 191.918 44.0369 188.125 55.766 181.384L58.2945 187.142C49.0236 196.412 40.6657 203.294 30.9031 202.381C28.4449 202.17 24.582 197.395 20.8596 196.201L22.9666 192.62Z" fill="#1E9ED1"/>
<path d="M13.5552 220.569H36.8729C31.6054 204.488 28.8662 193.462 28.796 187.423C28.796 187.142 28.2341 186.58 27.9532 186.651C26.1271 187.142 24.1605 187.002 22.0535 186.089C16.5752 195.007 14.6087 205.892 13.5552 220.569Z" fill="#F2F2F2"/>
<path d="M43.4746 174.08L52.6753 169.094C54.993 165.583 56.3275 164.108 56.7489 164.6C57.381 165.372 56.3977 166.145 56.7489 166.707C57.1001 167.268 58.9261 166.987 60.682 166.707C62.4379 166.426 62.0165 167.198 61.6653 167.62C60.0499 168.884 57.9429 170.007 55.3442 170.99L46.4947 179.136L43.4746 174.08Z" fill="#B28B67"/>
<path d="M24.6521 181.384C26.3377 180.752 28.0936 180.471 29.7792 180.05C32.4481 179.418 34.9765 177.662 37.2943 176.258C38.5585 175.485 49.5853 167.901 50.0067 168.252L55.6956 173.659C47.6889 182.648 38.6287 189.671 29.3578 198.168C29.5685 213.968 31.3946 228.013 23.3177 228.013C19.4548 228.013 15.311 228.013 10.8862 228.013C9.0601 215.935 12.2909 202.592 16.8561 191.496C17.3477 190.303 17.9096 189.109 18.4013 187.915C19.3143 185.808 20.5785 183.702 22.5451 182.437C23.2474 181.946 23.9498 181.665 24.6521 181.384Z" fill="#84D1EF"/>
<path opacity="0.49" d="M54.6424 163.124H52.0437V154.627H42.7026V163.124H40.0337V143.812H42.6324V152.52H51.9735V143.812H54.5722V163.124H54.6424Z" fill="#307205"/>
<path opacity="0.49" d="M64.7561 163.405C62.7193 163.405 61.1039 162.773 59.9099 161.439C58.7159 160.105 58.1541 158.419 58.1541 156.242V155.681C58.1541 153.644 58.7159 151.888 59.9099 150.554C61.1039 149.22 62.5788 148.518 64.2644 148.518C66.1608 148.518 67.6357 149.079 68.5487 150.273C69.532 151.467 69.9534 153.082 69.9534 155.048V156.453H60.8932L60.823 156.523C60.823 157.998 61.1741 159.122 61.8062 160.034C62.4383 160.947 63.4216 161.369 64.7561 161.369C65.6691 161.369 66.4417 161.228 67.0738 161.018C67.7761 160.737 68.338 160.386 68.7594 159.964L69.8129 161.65C69.3213 162.141 68.619 162.563 67.7761 162.914C66.9333 163.265 65.9501 163.405 64.7561 163.405ZM64.3347 150.554C63.4216 150.554 62.649 150.905 62.0872 151.607C61.5253 152.31 61.1039 153.223 60.9634 154.276V154.346H67.425V154.136C67.425 153.082 67.144 152.239 66.6524 151.537C66.231 150.905 65.3882 150.554 64.3347 150.554Z" fill="#307205"/>
<path opacity="0.49" d="M75.8531 163.125H73.2544V142.479H75.8531V163.125Z" fill="#307205"/>
<path opacity="0.49" d="M82.6658 163.125H80.0671V142.479H82.6658V163.125Z" fill="#307205"/>
<path opacity="0.49" d="M85.8965 155.821C85.8965 153.714 86.4584 151.959 87.6523 150.554C88.7761 149.15 90.3915 148.518 92.358 148.518C94.3246 148.518 95.94 149.22 97.0637 150.554C98.1875 151.888 98.8196 153.644 98.8196 155.821V156.102C98.8196 158.209 98.2577 159.964 97.0637 161.369C95.94 162.703 94.3246 163.405 92.358 163.405C90.3915 163.405 88.8463 162.703 87.6523 161.369C86.5286 160.034 85.8965 158.279 85.8965 156.102V155.821ZM88.4951 156.102C88.4951 157.647 88.8463 158.911 89.4784 159.894C90.1105 160.877 91.0938 161.369 92.358 161.369C93.6223 161.369 94.5353 160.877 95.1674 159.894C95.7995 158.911 96.1507 157.647 96.1507 156.102V155.821C96.1507 154.346 95.7995 153.082 95.1674 152.099C94.5353 151.116 93.552 150.624 92.2878 150.624C91.0236 150.624 90.1105 151.116 89.4784 152.099C88.8463 153.082 88.4951 154.346 88.4951 155.821V156.102Z" fill="#307205"/>
<path d="M339.442 242.045L328.416 279.896L323.218 308.407H318.021L323.218 242.045H339.442Z" fill="#997659"/>
<path d="M344.359 242.045C343.586 261.708 343.867 272.452 344.078 274.278C344.218 276.034 345.202 288.042 351.874 309.039H346.466C337.687 288.885 334.596 276.947 333.613 274.278C332.63 271.61 329.61 260.865 325.255 242.045H344.359Z" fill="#B28B67"/>
<path d="M339.653 242.045C336.774 255.107 331.857 275.893 324.834 304.475H317.249C316.687 275.121 319.075 255.809 323.218 242.045H339.653Z" fill="#06508C"/>
<path d="M344.429 242.045C343.656 261.708 345.623 281.16 351.663 304.826H343.586C334.736 285.022 328.415 265.711 324.131 242.045H344.429Z" fill="#085F9B"/>
<path d="M352.647 312.902L352.366 308.127C350.61 308.619 348.432 308.408 345.834 307.495C343.024 309.461 339.442 310.866 335.158 311.568C334.807 311.638 334.596 311.919 334.667 312.27V312.341L335.088 313.815H345.834H352.085L352.647 312.902Z" fill="#043054"/>
<path d="M324.412 312.902L324.131 308.127C322.375 308.619 320.198 308.408 317.599 307.495C314.79 309.461 311.208 310.866 306.924 311.568C306.573 311.638 306.362 311.919 306.432 312.27V312.341L306.854 313.815H317.599H323.85L324.412 312.902Z" fill="#043054"/>
<path d="M333.402 197.382C334.806 195.767 335.72 193.801 335.579 191.554C335.158 185.093 326.168 186.568 324.412 189.798C322.656 193.028 322.867 201.245 325.114 201.877C326.027 202.087 327.924 201.526 329.89 200.402L328.696 209.04H335.93L333.402 197.382Z" fill="#B28B67"/>
<path d="M331.154 193.87C331.365 193.73 331.646 193.59 331.997 193.59C332.84 193.59 333.472 194.362 333.472 195.064C333.472 195.837 333.121 196.469 332.559 196.75C332.84 197.312 333.121 197.733 333.472 197.803C334.736 197.663 336.492 194.432 336.492 191.764C336.492 188.885 334.175 186.356 329.89 186.356C326.027 186.356 324.552 187.972 324.482 189.376C326.168 189.797 329.047 190.008 333.191 190.008V190.289L329.609 190.57L328.977 192.396C329.96 192.326 330.593 193.028 331.154 193.87Z" fill="#191847"/>
<path d="M327.713 215.851C324.061 215.781 319.215 215.009 314.018 211.778L311.981 216.343C315.563 219.924 320.62 222.804 324.974 222.663C328.416 222.593 330.171 218.379 327.713 215.851Z" fill="#1174BA"/>
<path d="M308.82 228.562H202.485C198.412 228.562 195.111 225.261 195.111 221.188V209.601L181.345 202.93L195.111 196.258V184.461C195.111 180.387 198.412 177.087 202.485 177.087H308.82C312.894 177.087 316.195 180.387 316.195 184.461V221.188C316.195 225.261 312.823 228.562 308.82 228.562Z" fill="#F2F9E5"/>
<path d="M306.502 226.525C304.536 225.12 302.71 224.137 300.954 223.646C297.723 222.733 296.389 222.031 294.773 219.994C293.93 218.941 293.228 216.764 294.001 215.991C294.563 215.5 297.723 217.887 299.057 218.168C300.392 218.449 299.198 215.359 299.83 215.64C300.743 215.64 301.516 216.904 302.148 219.362L306.713 221.89L306.502 226.525Z" fill="#997659"/>
<path d="M323.288 223.154C319.425 224.137 312.893 223.014 303.763 219.713C301.516 224.418 300.462 227.719 300.602 229.755C308.398 233.828 315.141 235.654 320.689 235.795C320.479 239.095 320.9 242.185 322.235 245.064C324.974 250.893 341.128 245.486 346.536 246.539C349.907 235.514 343.375 231.019 343.375 223.927C343.375 216.202 337.124 204.264 336.211 204.264H327.853C327.502 210.233 325.184 216.764 323.288 223.154Z" fill="#188CC6"/>
<g opacity="0.5">
<path d="M220.255 195.978C219.061 197.452 218.007 198.787 216.884 200.121C216.181 200.964 216.181 200.964 216.743 201.947C218.288 204.334 219.763 206.722 221.308 209.11C221.449 209.32 221.519 209.461 221.73 209.742C221.098 209.742 220.536 209.742 220.044 209.742C219.904 209.742 219.763 209.531 219.623 209.32C218.288 207.143 216.954 204.896 215.549 202.719C215.479 202.579 215.338 202.438 215.198 202.157C214.636 202.789 214.215 203.492 213.653 204.053C213.021 204.756 212.74 205.458 212.81 206.371C212.88 207.284 212.81 208.267 212.81 209.18C212.81 209.601 212.67 209.742 212.248 209.671C211.195 209.671 211.335 209.742 211.335 208.758C211.335 204.685 211.335 200.683 211.335 196.61C211.335 196.399 211.335 196.188 211.335 195.978C211.827 195.978 212.248 195.978 212.74 195.978C212.74 198.225 212.74 200.402 212.74 202.719C212.95 202.579 213.021 202.508 213.091 202.368C214.636 200.472 216.181 198.506 217.726 196.61C218.078 196.118 218.499 195.837 219.131 195.978C219.552 195.978 219.833 195.978 220.255 195.978Z" fill="#47AA0A"/>
<path d="M302.85 204.826C303.763 203.632 304.255 202.298 304.676 200.894C304.957 199.911 305.168 199.84 306.362 200.121C306.151 200.894 305.941 201.666 305.66 202.368C305.098 203.913 304.255 205.248 303.272 206.512C302.85 207.003 302.991 207.495 303.131 208.057C303.201 208.408 303.553 208.408 303.763 208.267C304.044 208.057 304.325 207.846 304.676 207.565C304.817 207.916 304.957 208.338 305.098 208.689C305.098 208.829 305.098 208.97 305.028 209.04C304.536 209.531 303.904 209.812 303.201 209.742C302.64 209.672 302.288 209.321 302.078 208.829C302.007 208.618 301.937 208.338 301.797 208.127C301.446 208.408 301.094 208.689 300.743 208.97C300.041 209.461 299.339 209.812 298.426 209.812C296.951 209.812 296.038 209.18 295.757 207.706C295.265 205.037 295.827 202.649 297.934 200.823C298.636 200.191 299.409 199.911 300.322 199.84C301.867 199.77 302.78 200.543 302.78 202.088C302.921 203 302.85 203.913 302.85 204.826ZM301.656 204.335C301.656 203.632 301.656 203 301.656 202.298C301.586 201.315 300.954 200.753 300.041 201.104C299.549 201.245 298.987 201.596 298.636 202.017C297.302 203.492 297.021 205.248 297.302 207.144C297.442 208.338 298.355 208.899 299.479 208.408C300.181 208.127 300.743 207.565 301.305 207.144C301.656 206.863 301.797 206.512 301.727 206.09C301.656 205.529 301.656 204.897 301.656 204.335Z" fill="#47AA0A"/>
<path d="M235.074 200.05C234.793 201.595 234.231 202.929 233.529 204.193C233.037 205.036 232.546 205.808 231.984 206.581C231.562 207.072 231.703 207.564 231.843 208.126C231.913 208.547 232.265 208.477 232.546 208.337C232.826 208.126 233.107 207.915 233.459 207.634C233.599 208.056 233.74 208.407 233.88 208.758C233.88 208.898 233.88 209.039 233.74 209.109C233.318 209.39 232.897 209.671 232.475 209.811C231.632 210.022 231.071 209.671 230.79 208.898C230.719 208.688 230.649 208.477 230.579 208.266C230.228 208.547 229.877 208.828 229.525 209.109C228.753 209.671 227.91 209.952 226.927 209.952C225.803 209.881 224.96 209.32 224.609 208.196C223.766 205.668 224.82 202.297 226.927 200.752C227.77 200.12 228.683 199.839 229.666 199.98C230.719 200.12 231.352 200.682 231.492 201.665C231.562 202.508 231.562 203.421 231.562 204.334C231.562 204.544 231.562 204.685 231.562 204.896C231.633 204.896 231.632 204.896 231.703 204.966C231.913 204.615 232.124 204.334 232.194 203.983C232.616 202.929 233.037 201.876 233.459 200.752C233.599 200.261 233.81 200.05 234.301 200.12C234.512 200.05 234.793 200.05 235.074 200.05ZM230.368 204.334C230.298 203.561 230.368 202.789 230.298 202.087C230.228 201.384 229.736 201.033 229.034 201.033C228.331 201.033 227.84 201.384 227.348 201.876C225.873 203.421 225.592 205.317 225.944 207.283C226.084 208.266 226.857 208.758 227.77 208.407C228.472 208.126 229.104 207.634 229.736 207.213C230.228 206.862 230.439 206.44 230.368 205.808C230.368 205.387 230.368 204.825 230.368 204.334Z" fill="#47AA0A"/>
<path d="M271.526 208.126C271.526 208.406 271.526 208.547 271.526 208.687C271.526 209.6 271.456 209.741 270.753 209.811C269.981 209.951 269.419 209.67 269.138 209.038C269.068 208.898 269.068 208.758 268.927 208.547C268.295 209.179 267.663 209.67 266.82 209.811C265.907 209.951 265.205 209.67 264.502 208.898C264.221 209.6 264.011 210.302 263.8 210.935C263.379 212.199 263.379 212.199 261.974 211.918C262.044 211.707 262.114 211.496 262.185 211.286C262.676 210.022 263.168 208.828 263.589 207.564C263.73 207.283 263.73 206.932 263.73 206.581C263.659 204.755 264.011 202.999 264.783 201.384C264.994 200.822 265.415 200.331 265.767 199.909C265.907 199.769 266.188 199.699 266.399 199.769C266.539 199.839 266.68 200.12 266.68 200.331C266.539 201.314 266.399 202.227 266.188 203.21C265.907 204.333 265.556 205.457 265.275 206.581C264.924 207.845 265.837 208.758 267.101 208.477C268.014 208.266 268.997 207.142 268.997 206.229C269.138 204.333 269.559 202.578 270.402 200.892C270.542 200.541 270.753 200.26 270.964 199.979C271.104 199.839 271.385 199.699 271.526 199.769C271.666 199.839 271.877 200.12 271.877 200.26C271.877 200.892 271.877 201.524 271.736 202.086C271.315 203.491 270.823 204.825 270.402 206.229C270.262 206.721 270.191 207.213 270.191 207.774C270.191 208.406 270.472 208.547 271.034 208.266C271.175 208.266 271.315 208.196 271.526 208.126Z" fill="#47AA0A"/>
<path d="M284.168 207.916C283.887 209.04 283.606 210.093 283.395 211.076C283.114 212.2 282.974 212.27 281.78 211.989C282.131 210.795 282.412 209.601 282.763 208.478C283.185 207.073 283.536 205.669 283.957 204.335C284.308 203 284.941 201.806 285.924 200.894C286.907 199.981 288.171 199.63 289.506 199.981C290.84 200.262 291.683 201.245 291.894 202.579C292.245 204.967 291.753 207.144 289.927 208.969C289.225 209.672 288.382 210.023 287.469 210.023C286.275 210.093 285.292 209.672 284.589 208.618C284.449 208.337 284.308 208.197 284.168 207.916ZM290.559 203.703C290.559 203.562 290.559 203.211 290.489 202.93C290.278 201.526 289.155 200.753 287.82 201.174C287.399 201.315 286.907 201.526 286.626 201.877C285.151 203.351 284.87 205.177 285.292 207.073C285.573 208.408 286.696 208.969 288.031 208.478C288.452 208.337 288.874 208.056 289.155 207.705C290.138 206.582 290.489 205.247 290.559 203.703Z" fill="#47AA0A"/>
<path d="M251.017 209.671C251.368 208.547 251.649 207.494 251.93 206.441C252.352 205.036 252.773 203.561 253.124 202.157C253.195 201.876 253.195 201.455 253.054 201.384C252.633 201.174 252.562 201.595 252.352 201.876C252.141 202.157 252.001 202.438 251.79 202.719C251.439 202.438 251.158 202.227 250.736 201.946C251.087 201.455 251.439 200.963 251.86 200.542C252.914 199.418 254.178 199.699 254.669 201.174C254.95 200.893 255.302 200.682 255.582 200.401C256.215 199.98 256.917 199.769 257.619 199.839C258.813 199.98 259.586 200.752 259.516 201.946C259.375 203.21 259.024 204.474 258.743 205.738C258.322 207.634 257.76 209.53 257.338 211.427C257.198 211.918 257.057 212.129 256.496 212.059C256.285 211.988 256.004 212.059 255.723 212.059C255.863 211.567 255.934 211.146 256.074 210.724C256.776 208.126 257.409 205.598 258.111 203C258.181 202.789 258.251 202.508 258.251 202.297C258.322 201.525 257.76 200.963 257.057 201.104C256.566 201.174 256.004 201.455 255.582 201.736C254.81 202.368 254.318 203.14 254.037 204.123C253.546 205.738 253.124 207.354 252.703 209.039C252.562 209.601 252.352 209.811 251.79 209.741C251.509 209.671 251.298 209.671 251.017 209.671Z" fill="#47AA0A"/>
<path d="M240.834 197.943C240.623 197.592 240.412 197.241 240.131 196.89C240.974 196.328 241.817 195.977 242.8 196.188C243.503 196.328 243.924 196.89 243.994 197.873C244.064 198.856 244.135 199.839 244.205 200.823C244.345 202.929 244.416 205.036 244.556 207.143C244.626 208.266 244.907 208.547 246.031 208.547C246.312 208.547 246.523 208.547 246.874 208.547C246.804 209.039 246.733 209.39 246.663 209.952C245.961 209.882 245.258 209.952 244.626 209.741C243.854 209.53 243.503 208.898 243.432 208.196C243.292 206.862 243.222 205.528 243.151 204.193C243.151 203.912 243.151 203.702 243.011 203.421C242.941 203.561 242.8 203.702 242.73 203.842C241.606 205.598 240.482 207.354 239.429 209.179C239.148 209.601 238.867 209.811 238.375 209.741C238.095 209.671 237.814 209.741 237.462 209.741C237.603 209.46 237.743 209.32 237.884 209.109C239.499 206.721 241.044 204.334 242.73 201.946C243.011 201.525 243.151 201.104 243.081 200.612C243.011 199.839 242.941 198.997 242.87 198.224C242.8 197.452 242.449 197.241 241.747 197.522C241.396 197.592 241.185 197.733 240.834 197.943Z" fill="#47AA0A"/>
<path d="M279.532 207.213C279.673 207.635 279.813 208.056 279.884 208.478C279.884 208.618 279.813 208.758 279.673 208.829C278.83 209.39 277.917 209.671 276.934 209.671C275.669 209.601 274.827 208.969 274.475 207.916C274.054 206.581 274.475 205.247 275.459 204.545C275.599 204.475 275.74 204.334 275.88 204.264C275.389 203.632 275.248 203 275.248 202.227C275.318 201.104 276.021 200.261 277.144 200.121C278.338 199.98 279.462 200.261 280.445 200.823C280.726 200.963 280.726 201.104 280.586 201.385C280.445 201.666 280.305 202.017 280.094 202.368C279.883 202.228 279.673 202.087 279.462 202.017C278.83 201.806 278.128 201.525 277.425 201.525C276.512 201.525 276.091 202.368 276.582 203.14C276.793 203.421 277.004 203.562 277.355 203.492C277.636 203.421 277.917 203.421 278.198 203.492C278.69 203.562 278.83 203.913 278.9 204.404C278.97 204.896 278.69 205.107 278.268 205.177C277.917 205.247 277.566 205.177 277.215 205.177C276.372 205.036 275.669 205.669 275.529 206.511C275.389 207.354 275.88 208.056 276.723 208.197C277.566 208.337 278.268 208.126 278.97 207.635C279.181 207.494 279.322 207.354 279.532 207.213Z" fill="#47AA0A"/>
<path d="M276.021 199.489C276.723 198.716 277.285 198.014 277.917 197.311C277.987 197.241 278.128 197.171 278.268 197.171C278.83 197.171 279.392 197.171 279.954 197.311C279.813 197.452 279.743 197.522 279.603 197.663C279.041 198.154 278.409 198.576 277.847 199.067C277.355 199.559 276.793 199.629 276.021 199.489Z" fill="#47AA0A"/>
</g>
<path d="M320.9 51.8762H301.726L283.676 62.3397V51.8762H214.566C210.492 51.8762 207.191 48.5757 207.191 44.5026V7.84528C207.191 3.77224 210.492 0.47168 214.566 0.47168H320.9C324.974 0.47168 328.275 3.77224 328.275 7.84528V44.5728C328.275 48.5757 324.974 51.8762 320.9 51.8762Z" fill="#F2F9E5"/>
<path d="M222.502 57.1424C221.87 57.2126 207.823 69.2211 202.204 72.6621C194.127 77.6481 187.666 74.6284 181.555 65.3587L197.569 55.457" fill="#307205"/>
<path d="M237.322 51.4538C242.8 55.1757 250.596 60.9342 260.64 68.6589L258.603 72.0999C249.472 68.378 243.081 65.3583 239.359 63.1814C233.037 59.3892 227.629 55.9482 225.733 54.5437C222.783 52.2965 224.188 49.0662 226.295 47.451C226.435 47.451 228.051 45.2741 237.322 51.4538Z" fill="#B28B67"/>
<path d="M221.448 51.1025C221.8 48.9957 225.663 46.1868 227.067 47.4508C230.368 50.4705 242.168 69.0098 243.01 70.1334C243.853 71.257 241.887 73.9255 240.482 72.8722C236.76 70.2036 233.178 67.3244 229.947 64.0941C226.786 60.934 223.485 57.4227 221.729 52.9986C221.519 52.4368 221.308 51.875 221.378 51.2429C221.449 51.1727 221.448 51.1727 221.448 51.1025Z" fill="#B28B67"/>
<path d="M255.066 71.6746C255.515 72.5824 255.887 73.2025 256.182 73.5348C256.598 73.9374 257.258 74.4803 258.135 75.0678C258.573 74.5907 262.79 70.3763 270.753 62.4852C270.019 61.0883 269.193 60.6927 268.432 61.3077C267.672 61.9228 266.981 62.4162 266.422 62.8231L257.923 66.0255C257.731 66.0769 257.686 66.2945 257.773 66.4255L258.324 67.7171C258.015 68.6739 257.629 69.3429 257.226 69.7592C256.894 70.0538 256.274 70.4256 255.436 70.7529C255.078 70.9516 254.963 71.2908 255.066 71.6746Z" fill="#D0F792"/>
<path d="M250.877 69.6424L222.081 55.2463C217.446 51.9458 223.767 43.9402 226.506 45.134C232.686 47.8727 252.492 60.9346 254.319 61.7772L250.877 69.6424Z" fill="#307205"/>
<path d="M236.633 70.8007C236.282 71.7136 236.071 72.4158 236.071 72.9074C236.071 73.4692 236.141 74.3119 236.352 75.4355C236.984 75.4355 242.954 75.5057 254.191 75.5759C254.683 74.031 254.402 73.1883 253.419 73.1181C252.435 72.9776 251.593 72.8372 250.96 72.767L242.673 68.9748C242.532 68.9046 242.322 68.9748 242.251 69.1153L241.69 70.3793C240.776 70.8007 240.004 71.0113 239.442 71.0113C238.95 71.0113 238.318 70.8007 237.475 70.4495C237.195 70.3091 236.843 70.4495 236.633 70.8007Z" fill="#D0F792"/>
<path d="M229.877 47.1001C235.846 54.1226 241.535 64.4457 242.519 66.0608L234.372 70.8361C223.696 58.8979 219.201 57.4934 218.78 57.5636C218.147 57.6339 204.101 69.6423 198.482 73.0833C190.405 78.0693 175.305 73.5749 176.428 58.3361L193.846 55.8782C197.288 54.1928 216.392 47.1704 223.485 44.4316C226.435 43.1675 228.331 45.3445 229.877 47.1001Z" fill="#378E04"/>
<path d="M185.91 20.6257C184.435 18.9403 183.452 16.8336 183.663 14.4459C184.154 7.70435 193.566 9.17907 195.392 12.5499C197.218 15.9909 197.007 24.6285 194.619 25.2605C193.706 25.4712 191.669 24.9094 189.633 23.6454L190.897 32.7746H183.312L185.91 20.6257Z" fill="#B28B67"/>
<path d="M188.228 16.9033C187.947 16.7629 187.666 16.6224 187.385 16.6224C186.542 16.6224 185.769 17.3949 185.769 18.2376C185.769 19.0803 186.191 19.7123 186.753 19.9932C186.472 20.555 186.121 20.9764 185.769 21.1168C184.435 20.9764 182.609 17.6056 182.609 14.7966C182.609 11.7067 185.067 9.1084 189.562 9.1084C193.636 9.1084 195.181 10.7938 195.251 12.2685C193.495 12.7601 190.475 12.9005 186.05 12.9005V13.2517L189.843 13.6028L190.475 15.4989C189.562 15.2882 188.79 15.9904 188.228 16.9033Z" fill="#191847"/>
<path d="M167.228 47.6621H174.181C166.596 64.797 162.592 73.7155 162.311 74.5582C161.609 76.384 163.154 79.1228 163.786 80.5975C161.609 81.5807 161.89 77.9992 159.151 79.2633C156.693 80.3869 154.796 82.4936 151.917 80.738C151.565 80.5273 151.144 79.6846 152.127 79.0526C154.445 77.4374 157.816 74.6284 158.238 73.7155C158.8 72.4515 161.82 63.8138 167.228 47.6621Z" fill="#997659"/>
<path d="M183.601 24.0312L191.818 25.9272C191.818 40.0424 195.33 46.2924 197.648 56.6857L176.297 63.0761C176.016 66.6576 175.945 66.7278 175.875 70.52H159.23C163.022 50.4357 170.959 34.9862 183.109 23.9609L183.601 24.0312Z" fill="#204F01"/>
<path d="M179.87 39.375C179.308 48.2233 180.643 56.7907 181.907 61.4256L176.218 63.1812C176.85 56.0183 178.114 45.6952 179.87 39.375Z" fill="black" fill-opacity="0.1"/>
<path d="M132.04 93.6594H119.047L118.625 104.123L104.508 93.6594H16.5048C12.361 93.6594 8.98975 90.1482 8.98975 85.8645V50.0498C8.98975 45.7661 12.361 42.2549 16.5048 42.2549H132.04C136.184 42.2549 139.555 45.7661 139.555 50.0498V85.8645C139.555 90.1482 136.184 93.6594 132.04 93.6594Z" fill="#F2F9E5"/>
<g opacity="0.66">
<path opacity="0.66" d="M71.7789 69.0104C69.8124 68.4486 67.8458 67.8166 65.8792 67.2548C64.896 66.9739 63.9127 67.1846 62.9996 67.8166C62.9294 67.8868 62.7187 67.8868 62.508 68.0273C62.508 67.6761 62.4378 67.3952 62.508 67.1143C62.9294 65.7801 64.2638 64.6565 65.6685 64.7969C67.0732 64.9374 68.4779 65.4289 69.8124 65.7801C71.7789 66.3419 73.6752 67.1143 75.5716 67.6761C76.2739 67.8868 77.1167 67.8868 78.0298 67.957C77.6786 68.7295 77.3977 69.3615 77.0465 69.9936C76.9762 70.134 76.6251 70.2042 76.4144 70.2042C74.0966 69.6424 72.1301 70.6958 70.1635 71.6087C68.1267 72.5919 66.1602 73.575 63.8424 73.7857C62.5782 73.9261 61.314 73.9964 60.12 73.9964C58.5046 73.9261 57.3809 73.1537 56.819 71.5385C56.6785 71.6087 56.6785 71.6087 56.6083 71.679C55.2739 73.575 53.0966 74.4177 50.7789 73.9261C49.2337 73.575 48.3909 72.5919 48.11 71.1172C47.829 69.502 47.6886 67.8868 47.5481 66.2014C47.3374 63.6733 47.1267 61.075 46.916 58.5469C46.8458 57.2829 47.5481 56.5104 48.3207 55.457C48.4611 55.8784 48.5314 56.0891 48.6016 56.2997C48.7421 58.1256 48.8825 60.0216 49.023 61.8475C49.1635 64.1649 49.2337 66.4823 49.4444 68.7997C49.5849 70.766 50.9193 71.7492 52.8859 71.4683C54.4311 71.2576 55.4846 70.4851 55.906 68.9402C56.0464 68.3784 56.2571 67.8166 56.3976 67.2548C56.6083 66.6228 56.9595 66.4121 57.6618 66.5525C58.2939 66.693 57.9428 67.1846 57.8725 67.5357C57.8023 68.1677 57.5214 68.7997 57.5916 69.4318C57.7321 70.766 58.7856 71.5385 60.4712 71.5385C63.4913 71.6087 66.4411 71.1172 69.2505 69.9233C70.0231 69.5722 70.7956 69.2913 71.6384 69.0104C71.7789 69.1509 71.7789 69.0806 71.7789 69.0104Z" fill="#59C114"/>
<path opacity="0.66" d="M91.3039 71.5384C89.5481 74.0665 87.5815 74.7687 85.2638 73.5749C85.1935 73.8558 85.1233 74.1367 85.1233 74.4176C84.7721 76.3839 83.9293 78.1395 82.5949 79.6844C80.6985 81.7912 78.3106 82.2125 75.5714 80.8783C75.2203 80.7378 74.7989 80.5974 74.5882 80.3165C74.3072 80.0356 74.1668 79.6142 74.0965 79.2631C74.0263 78.912 74.3072 78.7013 74.6584 78.912C77.3273 80.4569 79.5748 79.4035 81.6116 77.5777C82.5949 76.735 83.4377 75.6816 83.9293 74.4176C84.14 73.926 84.0698 73.5047 83.7889 73.0131C83.1567 72.1704 82.5949 71.2575 82.033 70.4148C81.5414 69.6423 81.8223 68.0271 82.5246 67.5356C82.5949 67.4653 83.0163 67.6058 83.0865 67.7462C83.4377 68.3783 83.7186 69.0103 84.0698 69.6423C84.8424 70.9766 85.9661 71.6086 87.5113 71.6788C89.1969 71.749 90.1099 71.1872 90.8123 69.6423C91.3742 68.4485 92.0063 67.1844 92.8491 66.2013C94.324 64.3754 96.3608 64.7266 97.4143 66.7631C98.1869 68.3783 98.6785 70.0637 97.9762 71.8193C97.8357 72.1704 97.625 72.5215 97.4845 72.8726C97.1334 73.5047 96.5715 73.8558 95.7989 73.5749C94.6752 73.1535 93.6216 72.7322 92.4979 72.2406C92.0063 72.1002 91.7253 71.8193 91.3039 71.5384ZM96.431 70.4148C96.2203 69.853 96.1501 69.221 95.8691 68.6592C95.518 67.8867 94.9561 67.2547 94.0431 67.3249C93.13 67.3951 92.7086 68.0271 92.4277 68.7996C92.3574 69.0103 92.4277 69.4316 92.5681 69.5019C93.4812 70.0637 94.4645 70.6254 95.4477 71.0468C96.1501 71.3979 96.3608 71.117 96.431 70.4148Z" fill="#59C114"/>
<path opacity="0.66" d="M55.2031 78.1399C55.2031 78.8423 54.2901 79.966 53.7282 80.0363C53.0258 80.0363 51.9021 79.053 51.9021 78.4209C51.9021 77.7185 52.8151 76.5948 53.377 76.5948C54.0794 76.4543 55.2031 77.5078 55.2031 78.1399Z" fill="#59C114"/>
</g>
<g clip-path="url(#clip0)">
<path d="M307.944 129.129C307.816 128.798 307.656 128.484 307.57 128.153C307.236 126.856 307.588 126.331 308.938 126.204C310.146 126.091 311.364 126.074 312.575 125.964C314.142 125.82 315.146 124.999 315.439 123.427C315.659 122.228 315.862 121.027 315.983 119.772C314.381 121.009 312.607 121.404 310.683 121.259C308.197 121.072 307.09 120.184 306.794 117.756C306.452 114.968 306.57 112.191 307.855 109.583C308.888 107.489 310.662 106.495 312.927 106.463C314.366 106.442 315.816 106.664 317.248 106.883C317.839 106.974 318.299 106.936 318.836 106.657C320.988 105.54 323.203 105.043 325.568 106.086C325.892 106.227 326.359 106.044 326.762 106.012C328.407 105.878 330.067 105.554 331.695 105.663C333.696 105.794 334.53 106.724 334.772 108.691C335.032 110.795 334.754 112.864 333.746 114.764C333.052 116.075 332.005 117.051 330.558 117.555C328.792 118.172 326.979 118.38 325.13 118.119C323.406 117.876 322.801 117.234 322.787 115.493C322.772 113.999 322.929 112.504 323.004 111.01C323.043 110.22 323.128 109.424 323.072 108.638C323.043 108.247 322.822 107.658 322.537 107.552C322.138 107.404 321.419 107.447 321.159 107.715C320.674 108.208 320.208 108.895 320.115 109.551C319.731 112.339 319.51 115.148 319.182 117.943C318.94 120.008 318.769 122.098 318.302 124.118C317.665 126.898 315.976 128.128 313.113 128.276C312.254 128.322 311.385 128.315 310.541 128.453C309.704 128.583 308.892 128.872 307.944 129.129ZM317.081 108.493C315.574 108.427 314.398 108.289 313.23 108.345C311.773 108.412 310.862 109.198 310.534 110.601C310.01 112.853 309.946 115.141 310.395 117.41C310.751 119.215 312.115 119.902 313.857 119.243C314.886 118.852 315.674 118.14 315.852 117.054C316.304 114.288 316.653 111.507 317.081 108.493ZM325.921 112.931C325.967 113.347 325.953 114.193 326.185 114.964C326.323 115.43 326.769 115.965 327.214 116.156C328.906 116.885 330.747 116.008 331.039 114.21C331.282 112.73 331.271 111.172 331.121 109.674C330.965 108.092 330.085 107.429 328.485 107.38C327.901 107.362 327.299 107.447 326.733 107.595C326.512 107.651 326.238 107.993 326.217 108.222C326.092 109.653 326.031 111.091 325.921 112.931Z" fill="#AFE868"/>
<path d="M273.398 128.911C272.821 128.992 272.102 129.143 271.375 129.182C270.414 129.235 269.961 128.886 269.911 127.927C269.705 124.001 269.548 120.068 270.271 116.166C270.812 113.248 272.191 111.003 275.397 110.273C275.3 109.262 275.507 108.261 274.624 107.464C274.257 107.133 274.456 106.608 274.923 106.477C275.909 106.202 276.921 105.987 277.936 105.846C278.456 105.776 278.606 106.209 278.602 106.678C278.595 107.788 278.599 108.902 278.599 110.048C278.973 110.118 279.286 110.182 279.599 110.231C282.428 110.668 283.478 111.764 283.557 114.612C283.614 116.811 283.496 119.01 283.485 121.213C283.478 122.944 283.489 124.671 283.557 126.398C283.571 126.743 283.838 127.127 284.084 127.409C284.479 127.86 284.476 128.414 283.888 128.593C282.937 128.879 281.94 129.045 280.953 129.147C280.754 129.168 280.326 128.706 280.301 128.438C280.223 127.596 280.283 126.74 280.29 125.89C280.315 122.81 280.355 119.729 280.358 116.649C280.358 116.039 280.258 115.419 280.134 114.82C279.678 112.617 278.043 111.577 275.806 112.007C274.527 112.254 273.815 113.132 273.605 114.27C273.27 116.078 272.96 117.925 272.96 119.754C272.964 122.732 273.231 125.71 273.398 128.911Z" fill="#AFE868"/>
<path d="M291.966 123.91C291.208 124.026 290.577 124.174 289.936 124.213C288.8 124.28 288.451 123.941 288.376 122.806C288.13 119.106 289.341 115.937 291.981 113.315C292.754 112.55 293.58 111.838 294.435 111.049C293.655 110.062 292.889 109.061 292.08 108.092C291.906 107.88 291.607 107.76 291.354 107.626C290.795 107.33 290.72 106.7 291.3 106.513C292.298 106.192 293.352 106.005 294.399 105.882C294.677 105.85 295.101 106.206 295.297 106.488C297.149 109.181 299.019 111.859 300.771 114.612C302.235 116.91 302.274 119.571 302.403 122.183C302.452 123.236 302.406 124.297 302.474 125.351C302.524 126.137 302.363 127.008 303.222 127.575C303.322 127.642 303.143 128.488 302.965 128.537C301.986 128.823 300.967 128.999 299.952 129.136C299.785 129.158 299.446 128.83 299.389 128.608C299.272 128.16 299.29 127.681 299.257 127.212C299.076 124.435 299.015 121.64 298.673 118.88C298.392 116.621 297.092 114.753 295.685 112.956C291.902 115.74 290.876 119.388 291.966 123.91Z" fill="#AFE868"/>
</g>
<path d="M536.775 209.309C534.427 208.432 533.222 206.054 530.961 205.169C529.708 204.684 528.417 204.606 527.431 205.834C527.243 206.069 526.985 206.32 527.134 206.617C527.282 206.914 527.658 206.852 527.916 206.844C529.802 206.805 531.203 207.72 532.69 209.011C532.291 209.066 532.174 209.105 532.056 209.105C530.491 209.105 528.973 209.043 527.431 209.105C526.054 209.183 525.083 209.105 525.154 207.274C525.178 206.895 525.057 206.522 524.813 206.231C524.57 205.939 524.224 205.753 523.847 205.709C522.861 205.576 522.384 206.249 522.008 206.969C520.936 209.043 521.593 210.396 524.082 211.304C522.36 214.129 521.601 214.434 516.131 214.606C520.466 216.585 523.534 216.39 525.177 211.734C525.467 210.905 526.077 211.03 526.664 211.03C529.685 211.03 532.706 211.03 535.726 211.03C536.126 211.03 536.697 211.233 536.822 210.654C536.955 210.248 536.963 209.379 536.775 209.309ZM523.808 209.129C523.291 209.082 522.83 208.894 522.751 208.346C522.697 207.916 522.978 207.689 523.448 207.658C523.715 207.707 523.958 207.845 524.137 208.049C524.316 208.254 524.421 208.513 524.434 208.784C524.512 209.199 524.113 209.16 523.808 209.129Z" fill="#AFE868"/>
<path d="M514.879 207.533C515.223 207.955 515.568 208.628 514.942 208.981C514.316 209.333 513.744 208.855 513.455 208.268C513.195 207.656 512.97 207.029 512.782 206.391C512.297 206.641 512.304 206.891 512.351 207.173C512.61 208.48 512.171 209.09 510.786 209.215C509.401 209.34 509.401 208.472 509.362 207.525C509.346 206.659 509.021 205.826 508.446 205.178C507.703 206.344 507.429 207.384 508.251 208.722C509.072 210.06 509.174 211.625 507.625 212.635C506.025 213.733 504.056 214.155 502.147 213.808C500.182 213.464 499.548 212.462 499.705 210.373C499.705 209.865 500.002 209.309 499.556 208.902C499.01 209.856 498.714 210.933 498.695 212.032C498.588 212.58 498.631 213.147 498.822 213.673C499.012 214.198 499.342 214.661 499.775 215.013C502.671 217.235 508.235 215.553 509.331 212.063C509.573 211.281 509.878 211.085 510.583 211.117C511.952 211.179 513.29 210.459 514.699 211.062C515.09 211.226 515.967 211.406 515.943 210.506C515.896 208.824 516.374 207.032 515.161 205.522C514.985 205.615 514.835 205.747 514.721 205.91C514.607 206.072 514.533 206.259 514.505 206.455C514.478 206.652 514.497 206.852 514.562 207.039C514.627 207.227 514.736 207.396 514.879 207.533Z" fill="#AFE868"/>
<path d="M487.231 206.438C486.675 205.014 485.783 205.1 484.828 205.953C483.874 206.806 483.201 207.62 482.371 208.441C482.092 208.736 481.741 208.951 481.352 209.065C480.963 209.179 480.55 209.188 480.157 209.091C479.272 208.856 479.695 207.972 479.593 207.377C479.233 205.241 478.732 203.222 476.424 202.213C476.126 203.449 476.158 204.31 477.331 204.991C478.505 205.671 478.732 206.955 478.897 208.207C478.944 208.629 478.983 209.161 478.325 209.114C476.76 209.013 475.039 209.607 473.34 208.332C473.34 209.529 472.832 210.937 474.303 210.937C477.308 210.937 480.446 211.947 483.302 210.225C483.905 209.865 484.202 210.272 484.617 210.468C485.697 210.976 487.168 211.602 487.904 210.851C488.78 209.951 488.217 208.433 487.677 207.236C487.528 206.978 487.333 206.72 487.231 206.438ZM484.758 207.776C484.703 207.424 485.212 206.876 485.611 206.994C486.488 207.228 486.652 208.034 486.769 209.114C485.822 208.746 484.899 208.723 484.758 207.776Z" fill="#AFE868"/>
<path d="M471.008 204.293C470.084 205.349 470.014 206.242 470.898 207.267C471.282 207.713 471.775 208.777 471.055 208.996C469.863 209.311 468.613 209.341 467.408 209.082C466.625 208.925 466.907 207.846 466.821 207.157C466.547 205.091 465.898 203.284 463.855 202.274C463.284 203.542 463.495 204.356 464.685 205.068C465.874 205.78 466.031 207.071 466.187 208.307C466.234 208.667 466.187 209.152 465.694 209.129C464.043 209.051 462.313 209.669 460.78 208.479C460.302 209.958 460.357 211.085 462.212 211.108C465.225 211.108 468.238 211.108 471.258 211.108C471.665 211.108 472.252 211.21 472.229 210.569C472.158 208.432 472.737 206.195 471.008 204.293Z" fill="#AFE868"/>
<path d="M490.744 211.156C492.482 206.876 491.049 202.603 490.556 198.323C488.819 202.588 491.245 206.868 490.744 211.156Z" fill="#AFE868"/>
<path d="M511.388 200.812C511.505 200.85 511.627 200.866 511.748 200.859C511.959 200.824 512.161 200.75 512.343 200.64C512.507 200.569 512.645 200.449 512.738 200.296C512.83 200.143 512.871 199.964 512.857 199.786C512.842 199.608 512.772 199.439 512.656 199.303C512.54 199.167 512.384 199.071 512.21 199.028C511.67 198.817 511.31 198.496 510.833 199.177C510.637 199.458 510.395 199.873 510.575 200.225C510.764 200.515 511.054 200.724 511.388 200.812Z" fill="#AFE868"/>
<path d="M512.876 201.829C512.952 202.125 513.106 202.395 513.322 202.612C513.42 202.717 513.544 202.794 513.681 202.837C513.819 202.88 513.965 202.886 514.105 202.855C514.246 202.824 514.376 202.758 514.483 202.661C514.59 202.565 514.67 202.443 514.715 202.306C514.957 201.798 515.122 201.383 514.511 201.086C513.901 200.788 512.946 200.303 512.805 201.242C512.786 201.441 512.81 201.641 512.876 201.829Z" fill="#AFE868"/>
<path d="M510.52 203.362C511.161 203.722 512.218 204.09 512.327 202.979C512.336 202.896 512.336 202.812 512.327 202.728C512.292 202.492 512.226 202.26 512.132 202.04C512.107 201.958 512.067 201.881 512.014 201.813C511.949 201.747 511.868 201.698 511.78 201.672C511.586 201.609 511.38 201.597 511.181 201.638C510.982 201.68 510.797 201.772 510.645 201.907C510.363 202.142 509.987 202.689 510.199 203.096C510.28 203.212 510.391 203.304 510.52 203.362Z" fill="#AFE868"/>
<path d="M471.243 212.634C470.766 212.336 470.304 212.203 470.03 212.837C469.686 213.62 469.248 213.988 468.41 213.424C467.675 212.947 467.628 213.776 467.44 214.113C467.252 214.449 467.15 214.715 467.589 215.161C469.154 216.727 469.819 213.048 471.267 214.653L471.987 213.62C472.027 213.546 472.064 213.47 472.096 213.393C472.057 212.9 471.587 212.845 471.243 212.634Z" fill="#AFE868"/>
<path d="M488.076 196.876C489.782 197.001 491.206 198.135 492.466 196.5C491.12 197.486 489.68 195.295 488.076 196.876Z" fill="#AFE868"/>
<path d="M530.882 202.791C531.101 202.645 531.284 202.451 531.42 202.225C531.555 201.999 531.639 201.746 531.665 201.484C531.712 200.608 530.796 200.475 530.272 200.365C529.747 200.256 529.434 201.101 529.395 201.539C529.333 202.416 530.326 202.298 530.882 202.791Z" fill="#AFE868"/>
<path d="M227.158 15.6157V32.9635H233.519C236.724 32.9635 238.861 30.9572 238.861 28.1678C238.861 26.1125 237.599 24.522 235.778 24.0327C237.259 23.4944 238.327 22.1242 238.327 20.2891C238.327 17.5731 236.385 15.6157 233.082 15.6157H227.158ZM230.047 22.9561V18.1114H232.621C234.394 18.1114 235.413 19.0657 235.413 20.5337C235.413 21.9774 234.394 22.9561 232.694 22.9561H230.047ZM230.047 30.4678V25.4274H233.107C234.903 25.4274 235.899 26.4795 235.899 27.972C235.899 29.5135 234.758 30.4678 233.01 30.4678H230.047Z" fill="#095411"/>
<path d="M246.978 30.7859C245.254 30.7859 243.676 29.4646 243.676 26.9933C243.676 24.522 245.254 23.2497 246.978 23.2497C248.726 23.2497 250.28 24.522 250.28 26.9933C250.28 29.4891 248.726 30.7859 246.978 30.7859ZM246.978 20.6806C243.458 20.6806 240.86 23.3476 240.86 26.9933C240.86 30.6635 243.458 33.3306 246.978 33.3306C250.523 33.3306 253.121 30.6635 253.121 26.9933C253.121 23.3476 250.523 20.6806 246.978 20.6806Z" fill="#095411"/>
<path d="M258.66 26.088C258.66 24.522 259.509 23.2742 261.112 23.2742C262.884 23.2742 263.54 24.4486 263.54 25.9167V32.9635H266.357V25.4274C266.357 22.8093 264.973 20.705 262.083 20.705C260.772 20.705 259.364 21.2678 258.587 22.638V21.0476H255.843V32.9635H258.66V26.088Z" fill="#095411"/>
<path d="M269.785 33.9423C269.785 34.921 269.397 35.4837 268.329 35.4837C268.013 35.4837 267.6 35.4348 267.479 35.4103V37.7593C267.6 37.8082 268.134 37.9795 269.081 37.9795C271.266 37.9795 272.602 36.3891 272.602 34.1625V21.0476H269.785V33.9423ZM269.348 16.8391C269.348 17.8423 270.174 18.6742 271.169 18.6742C272.189 18.6742 273.015 17.8423 273.015 16.8391C273.015 15.8114 272.189 14.9795 271.169 14.9795C270.174 14.9795 269.348 15.8114 269.348 16.8391Z" fill="#095411"/>
<path d="M281.431 30.7859C279.707 30.7859 278.129 29.4646 278.129 26.9933C278.129 24.522 279.707 23.2497 281.431 23.2497C283.179 23.2497 284.733 24.522 284.733 26.9933C284.733 29.4891 283.179 30.7859 281.431 30.7859ZM281.431 20.6806C277.91 20.6806 275.312 23.3476 275.312 26.9933C275.312 30.6635 277.91 33.3306 281.431 33.3306C284.976 33.3306 287.574 30.6635 287.574 26.9933C287.574 23.3476 284.976 20.6806 281.431 20.6806Z" fill="#095411"/>
<path d="M297.921 31.6423C297.921 32.1316 297.97 32.6944 298.019 32.9635H300.714C300.665 32.5231 300.592 31.7646 300.592 30.7859V21.0476H297.776V28.0944C297.776 29.6603 296.926 30.7614 295.299 30.7614C293.6 30.7614 292.92 29.5135 292.92 28.0455V21.0476H290.103V28.5593C290.103 31.2018 291.754 33.3061 294.571 33.3061C295.955 33.3061 297.339 32.7189 297.921 31.6423Z" fill="#095411"/>
<path d="M311.158 20.9742C311.037 20.9497 310.745 20.9008 310.405 20.9008C308.851 20.9008 307.54 21.6593 306.982 22.9561V21.0476H304.238V32.9635H307.055V27.2869C307.055 25.0603 308.05 23.788 310.235 23.788C310.527 23.788 310.842 23.8125 311.158 23.8614V20.9742Z" fill="#095411"/>
<defs>
<clipPath id="clip0">
<rect width="65.1316" height="23.681" fill="white" transform="translate(269.737 105.505)"/>
</clipPath>
</defs>
</svg>
