<svg fill="none" height="24" viewBox="0 0 26 24" width="26" xmlns="http://www.w3.org/2000/svg" xmlns:xlink="http://www.w3.org/1999/xlink"><linearGradient id="a" gradientUnits="userSpaceOnUse" x1="14.5323" x2="10.58" y1="7.82872" y2="18.6874"><stop offset="0" stop-color="#ffeb3b"/><stop offset="1" stop-color="#fca306"/></linearGradient><linearGradient id="b"><stop offset="0" stop-color="#f24c64"/><stop offset="1" stop-color="#e8140f"/></linearGradient><linearGradient id="c" gradientUnits="userSpaceOnUse" x1="5.69887" x2="6.28271" xlink:href="#b" y1="3.50991" y2="6.84392"/><linearGradient id="d" gradientUnits="userSpaceOnUse" x1="22.3786" x2="22.9624" xlink:href="#b" y1="9.6603" y2="12.9943"/><linearGradient id="e" gradientUnits="userSpaceOnUse" x1="14.6428" x2="15.4212" xlink:href="#b" y1="4.0845" y2="8.52985"/><clipPath id="f"><path d="m0 0h21.3322v16h-21.3322z" transform="matrix(.93969262 .34202014 -.34202014 .93969262 5.71094 .833984)"/></clipPath><g clip-path="url(#f)"><path d="m3.89813 16.2554 1.68675-9.95409s-.69789 4.63839 2.64307 5.85439c3.34095 1.216 6.30435-4.32698 6.30435-4.32698s-1.2929 6.15098 2.048 7.36698c3.341 1.216 5.7639-2.7198 5.7639-2.7198l-5.0822 8.6435z" fill="url(#a)"/><path d="m14.5403 7.83097c.9226.33579 1.9428-.13993 2.2786-1.06256s-.1399-1.94278-1.0625-2.27857-1.9427.13993-2.2785 1.06256.1399 1.94278 1.0624 2.27857z" fill="#ff808c"/><path d="m3.89813 16.2554 1.68675-9.95409s-.69789 4.63839 2.64307 5.85439c3.34095 1.216 6.30435-4.32698 6.30435-4.32698s-1.2929 6.15098 2.048 7.36698c3.341 1.216 5.7639-2.7198 5.7639-2.7198l-5.0822 8.6435z" stroke="url(#a)" stroke-linecap="round" stroke-linejoin="round" stroke-width=".888866"/><path d="m5.62206 6.31976c.69193.25184 1.45702-.10495 1.70888-.79692s-.1049-1.45708-.79683-1.70893c-.69194-.25184-1.45703.10495-1.70889.79692-.25185.69197.1049 1.45709.79684 1.70893z" fill="url(#c)"/><path d="m22.3017 12.4702c.692.2518 1.4571-.105 1.7089-.797.2519-.6919-.1049-1.4571-.7968-1.7089-.6919-.25184-1.457.105-1.7089.7969-.2518.692.1049 1.4571.7968 1.709z" fill="url(#d)"/><path d="m14.5403 7.83097c.9226.33579 1.9428-.13993 2.2786-1.06256s-.1399-1.94278-1.0625-2.27857-1.9427.13993-2.2785 1.06256.1399 1.94278 1.0624 2.27857z" fill="url(#e)"/></g></svg>