<svg width="288" height="204" viewBox="0 0 288 204" fill="none" xmlns="http://www.w3.org/2000/svg">
<path d="M-243.994 204.512C-341.469 234.831 -401.326 231.122 -419.07 225.477V247.249H287.149V204.512C151.11 134.359 -122.151 166.614 -243.994 204.512Z" fill="#C9C9FB"/>
<g opacity="0.7">
<ellipse opacity="0.81" cx="179.417" cy="206.034" rx="3.72849" ry="3.72849" transform="rotate(144 179.417 206.034)" fill="#E8140F"/>
<ellipse opacity="0.89" cx="17.0709" cy="71.5952" rx="2.30289" ry="2.30289" transform="rotate(172 17.0709 71.5952)" fill="#E8140F"/>
<ellipse opacity="0.74" cx="137.297" cy="112.401" rx="2.81464" ry="2.81464" transform="rotate(-68 137.297 112.401)" fill="#E8140F"/>
<ellipse opacity="0.97" cx="2.19323" cy="2.19323" rx="2.19323" ry="2.19323" transform="matrix(0.93358 0.358369 -0.358367 0.933581 26.9375 178.446)" fill="#E8140F"/>
<ellipse opacity="0.89" cx="213.395" cy="126.71" rx="4.13058" ry="4.13058" transform="rotate(-162 213.395 126.71)" fill="#E8140F"/>
<ellipse opacity="0.89" cx="119.145" cy="27.3191" rx="4.13058" ry="4.13058" transform="rotate(-162 119.145 27.3191)" fill="#C3C3FF"/>
<line opacity="0.83" x1="4.55267" y1="-0.374837" x2="11.1977" y2="4.45306" stroke="white" stroke-width="2.55877" stroke-linecap="round" stroke-linejoin="round"/>
<line opacity="0.89" x1="54.6492" y1="-8.5642" x2="50.2194" y2="-1.47512" stroke="white" stroke-width="2.55877" stroke-linecap="round" stroke-linejoin="round"/>
<line opacity="0.93" x1="1.27938" y1="-1.27938" x2="9.4931" y2="-1.27938" transform="matrix(-0.997564 -0.0697571 0.0697559 -0.997564 4.75 113.246)" stroke="white" stroke-width="2.55877" stroke-linecap="round" stroke-linejoin="round"/>
<line opacity="0.87" x1="1.27938" y1="-1.27938" x2="11.0944" y2="-1.27938" transform="matrix(-0.743144 0.669131 -0.66913 -0.743145 212.281 89.0991)" stroke="white" stroke-width="2.55877" stroke-linecap="round" stroke-linejoin="round"/>
<line opacity="0.79" x1="24.2769" y1="33.723" x2="15.2269" y2="24.9835" stroke="white" stroke-width="2.55877" stroke-linecap="round" stroke-linejoin="round"/>
<line opacity="0.79" x1="11.8472" y1="213.202" x2="2.79723" y2="204.463" stroke="white" stroke-width="2.55877" stroke-linecap="round" stroke-linejoin="round"/>
<path opacity="0.85" d="M170.451 21.6155C170.963 20.5021 172.535 20.4747 173.085 21.5695L174.07 23.528C174.554 24.4904 173.866 25.6279 172.789 25.6467L170.889 25.6799C169.812 25.6987 169.085 24.5859 169.535 23.6071L170.451 21.6155Z" fill="#E8140F"/>
<path opacity="0.91" d="M32.592 101.358C31.5607 100.696 31.7524 99.1352 32.9132 98.7424L36.8571 97.408C37.8775 97.0628 38.9082 97.902 38.7769 98.9712L38.337 102.555C38.2057 103.624 37.0025 104.189 36.0959 103.607L32.592 101.358Z" fill="#E8140F"/>
<path opacity="0.98" d="M214.69 26.0822C215.66 26.8315 215.333 28.3697 214.142 28.6598L207.33 30.3195C206.283 30.5745 205.33 29.6486 205.554 28.5949L206.818 22.6483C207.042 21.5946 208.29 21.1367 209.142 21.7953L214.69 26.0822Z" fill="#E8140F"/>
<path opacity="0.84" d="M175.604 175.65C175.781 176.863 174.477 177.742 173.419 177.124L169.447 174.802C168.517 174.258 168.474 172.93 169.367 172.327L172.675 170.096C173.568 169.494 174.784 170.031 174.939 171.097L175.604 175.65Z" fill="#E8140F"/>
<path opacity="0.84" d="M191.128 79.9383C191.305 81.1509 190.001 82.0302 188.943 81.4118L184.97 79.0897C184.04 78.5461 183.997 77.2176 184.89 76.6152L188.198 74.384C189.091 73.7816 190.307 74.319 190.463 75.3849L191.128 79.9383Z" fill="#8787E1"/>
<path opacity="0.97" d="M82.8373 16.34C82.8373 16.34 76.7543 19.2362 82.0888 24.6896" stroke="#8787E1" stroke-width="2.9243"/>
<path opacity="0.77" d="M114.405 199.52C114.405 199.52 108.791 206.826 118.677 210.159" stroke="#8787E1" stroke-width="2.9243"/>
<path opacity="0.92" d="M191.074 40.0616C191.074 40.0616 197.185 32.3897 186.725 28.6582" stroke="#8787E1" stroke-width="2.9243"/>
<path opacity="0.92" d="M71.1756 115.856C71.1756 115.856 77.2871 108.184 66.8262 104.452" stroke="#8787E1" stroke-width="2.9243"/>
<path opacity="0.7" d="M11.86 129.245C11.86 129.245 14.4335 135.792 20.5022 130.633" stroke="#8787E1" stroke-width="2.9243"/>
</g>
<path d="M145.433 63.2602C147.268 61.0964 148.538 58.4622 148.302 55.4987C147.691 46.9375 135.79 48.8191 133.485 53.1467C131.18 57.4743 131.462 68.3875 134.426 69.1871C135.602 69.5164 138.142 68.7638 140.729 67.1645L139.083 78.6421H148.679L145.433 63.2602Z" fill="#FFCAA7"/>
<path d="M132.493 57.1445C132.211 58.885 130.894 60.1551 130.376 61.7544C130.094 62.6481 130.047 62.9774 130.941 63.2596C131.647 63.4948 132.352 63.4948 132.823 62.9774" fill="#FFCAA7"/>
<path d="M133.672 58.1789C133.766 57.8967 134.001 57.6145 134.283 57.4733C134.566 57.3322 134.942 57.2381 135.271 57.2852C135.6 57.3322 135.883 57.4263 136.165 57.5674C136.447 57.7085 136.682 57.8967 136.918 58.1319C136.588 58.1789 136.306 58.1319 136.024 58.0848C135.742 58.0378 135.459 57.9908 135.224 57.9908C134.989 57.9908 134.707 57.9437 134.472 57.9908C134.236 57.9908 133.954 58.0849 133.672 58.1789Z" fill="#4D0351"/>
<path d="M134.799 60.0145C135.058 60.0145 135.269 59.8039 135.269 59.5441C135.269 59.2843 135.058 59.0737 134.799 59.0737C134.539 59.0737 134.328 59.2843 134.328 59.5441C134.328 59.8039 134.539 60.0145 134.799 60.0145Z" fill="#307205"/>
<path d="M141.245 65.0007C141.339 63.8247 141.198 62.6017 140.445 62.1784C140.163 62.0372 139.786 62.2254 139.363 62.5076C138.893 63.9188 138.146 63.8757 137.299 63.8757C134.9 63.9227 133.013 63.2132 131.978 63.2603C131.225 63.2603 131.413 64.2481 131.931 64.9066C132.354 65.4711 134.838 64.6857 134.838 65.5795C134.838 66.4732 132.825 67.1175 132.825 67.682C132.825 68.5757 132.589 70.2221 134.142 70.2221C135.694 70.1751 140.163 69.5165 140.868 67.1645C141.009 66.6941 141.198 65.8474 141.245 65.0007Z" fill="#4D0351"/>
<path d="M149.638 54.0964C149.881 53.854 150.026 53.4663 150.171 53.127C150.317 52.7878 150.414 52.4 150.511 52.0608C150.656 51.3338 150.656 50.4613 150.171 49.8797C149.735 49.4435 149.105 49.2012 148.523 49.1527C148.136 49.1043 147.748 49.2012 147.36 49.2981C146.973 49.4435 146.682 49.6859 146.294 49.8313C146.294 49.0558 146.149 48.1834 145.761 47.5048C145.373 46.8263 144.743 46.487 144.064 46.3901C143.337 46.2932 142.61 46.4386 141.98 46.8263C141.835 46.9232 141.641 47.0202 141.496 47.1171C141.35 47.214 141.253 47.311 141.06 47.3594C140.914 47.4079 140.817 47.311 140.72 47.1656C140.575 47.0202 140.429 46.8748 140.284 46.7778C139.606 46.2932 138.733 46.0508 137.909 46.3901C137.57 46.5355 137.182 46.7778 136.94 47.0686C136.697 47.3594 136.552 47.7956 136.261 47.9895C136.116 48.0864 136.019 47.941 135.922 47.8926C135.728 47.7472 135.583 47.6502 135.389 47.5048C135.147 47.311 134.856 47.214 134.565 47.1171C134.129 47.0202 133.547 47.0202 133.45 47.6018C133.402 47.7956 133.45 48.038 133.45 48.2318C133.45 48.5226 133.499 48.8135 133.499 49.1043C133.499 49.3466 133.547 49.5405 133.596 49.7343C133.596 49.8313 133.693 50.0736 133.644 50.1705C133.596 50.3159 133.305 50.219 133.159 50.219C132.917 50.219 132.675 50.2675 132.481 50.3644C132.287 50.4613 132.142 50.5583 132.045 50.7521C131.996 50.8491 131.996 50.9945 132.045 51.1399C132.093 51.2853 132.045 51.3822 132.045 51.5276C131.705 51.3822 130.639 51.0429 130.494 51.5761C130.445 51.77 130.542 51.9638 130.639 52.1577C130.784 52.4485 130.978 52.6908 131.172 52.9332C131.56 53.4663 132.045 53.9025 132.529 54.2902C131.948 54.5326 131.754 55.3565 132.287 55.7927C132.529 55.9866 132.82 56.0351 133.111 56.0351C133.208 56.0351 133.353 55.9866 133.45 55.9866C133.499 55.9866 133.547 56.0351 133.596 56.0351C133.983 56.0835 134.468 55.9866 134.856 55.8897C135.583 55.7443 136.213 55.405 136.794 54.8719C136.94 54.7265 137.037 54.678 137.231 54.678C137.376 54.678 137.57 54.7265 137.715 54.7265C138.152 54.7265 138.539 54.5326 138.975 54.3872C139.024 54.9203 139.169 55.5504 139.363 56.0351C139.557 56.4228 139.945 56.4713 140.284 56.5197C141.496 56.6167 142.707 56.5197 143.871 56.5197C142.707 56.7621 141.496 56.9075 140.333 57.1983C139.799 57.3437 140.187 57.683 140.429 57.9253C140.817 58.313 141.06 58.8462 141.253 59.3309C141.835 58.6038 142.804 58.1192 143.725 58.313C144.695 58.5554 145.422 59.9124 144.792 60.8333C144.404 61.3665 143.774 61.6088 143.241 61.8511C143.677 62.2873 143.774 62.9659 144.016 63.499C144.161 63.7898 144.307 64.0806 144.598 64.1776C144.695 64.226 144.84 64.226 144.888 64.323C144.985 64.4199 145.034 64.5653 145.131 64.6622C145.664 65.05 146.488 65.0015 146.924 64.5168C147.36 64.0806 147.215 63.4021 146.876 62.9659C147.457 62.7236 148.427 62.4327 148.233 61.5603C149.444 61.4634 152.401 59.5247 150.753 58.0707C151.625 57.586 152.449 56.3259 151.868 55.2596C151.528 54.5326 150.511 54.1448 149.638 54.0964Z" fill="#4D0351"/>
<path d="M142.627 91.353C149.231 96.4208 148.234 143.695 148.68 144.183C148.85 144.566 159.252 146.321 180.057 149.831L179.337 153.368C155.116 152.999 142.251 151.891 141.019 150.149C138.789 147.707 136.065 133.322 132.36 107.441L142.627 91.353Z" fill="#FAD0B7"/>
<path d="M176.188 148.354L174.896 154.213C157.087 156.933 145.029 154.544 140.697 150.981C137.915 148.328 134.809 134.114 132.038 108.273L143.281 91.2873C159.249 102.479 151.221 141.663 151.561 142.428C151.625 143.088 161.242 143.59 176.188 148.354Z" fill="#0202B2"/>
<path d="M180.205 148.618C181.245 148.38 182.179 148.42 182.455 148.525C183.007 148.737 183.835 149.053 184.939 149.476C184.727 150.03 183.223 156.444 180.533 168.441C178.941 168.467 178.113 168.151 178.261 166.936C178.409 165.722 178.451 164.785 178.663 164.231L177.045 154.399C177.151 154.121 177.151 154.121 177.257 153.844L178.679 153.435C179.379 152.432 179.867 151.983 179.909 151.046C180.121 150.492 180.057 149.832 179.823 148.79C179.717 149.067 179.929 148.512 180.205 148.618Z" fill="#600566"/>
<path d="M147.847 106.167L146.847 152.558L148.319 192.609L144.518 190.933L135.086 100.54L147.847 106.167Z" fill="#FAD0B7"/>
<path d="M150.362 188.002C150.865 188.791 151.367 189.579 151.51 190.152C151.653 190.726 151.868 191.586 151.866 192.805C151.29 192.948 144.956 194.528 133.151 197.473C132.147 195.896 132.22 194.964 133.372 194.677C134.523 194.39 135.315 193.887 135.891 193.744L143.527 187.575C143.815 187.503 143.815 187.503 144.175 187.718L145.037 188.722C146.044 189.08 146.907 188.864 147.483 188.72C148.059 188.577 148.563 188.146 149.356 187.644C149.643 187.572 150.291 187.716 150.362 188.002Z" fill="#600566"/>
<path d="M150.06 184.981L140.928 182.892C138.585 170.554 128.605 119.645 133.726 99.9418L152.46 108.204C156.664 125.883 148.108 172.493 150.06 184.981Z" fill="#8787E1"/>
<path d="M161.48 99.0718L168.602 97.5942C173.349 110.301 176.317 117.098 176.91 118.28C177.504 119.167 181.955 121.531 184.625 122.713C185.812 123.304 185.516 124.19 185.219 124.486C182.548 127.145 180.174 125.077 177.207 124.486C173.943 123.599 174.833 127.441 172.459 126.85C172.756 125.077 173.943 121.826 172.756 120.053C172.459 119.167 168.602 112.37 161.48 99.0718Z" fill="#FFCAA7"/>
<path d="M118.915 70.7661L113.084 58.5345C112.893 55.6091 112.508 52.9055 111.731 50.6452C111.481 50.0311 110.591 49.2462 110.309 51.3612C110.222 53.2545 109.717 55.1732 109.104 55.4203C108.491 55.6675 107.768 54.243 106.737 54.5156C106.124 54.7627 107.095 56.8013 110.266 60.3842L112.699 71.9837L118.915 70.7661Z" fill="#FFCAA7"/>
<path d="M151.412 75.9849L150.131 73.2439C141.264 71.6589 127.539 78.4326 123.412 76.3103C119.523 74.013 117.612 68.42 115.3 61.2814L110.26 62.4079C108.474 71.4544 111.858 85.5392 117.64 87.9178C126.96 92.1157 143.016 82.5245 151.412 75.9849Z" fill="#FFE2B8"/>
<path d="M155.484 109.039C143.615 109.039 134.713 109.039 129.075 109.039C127.888 109.039 128.184 107.266 128.184 106.379C130.262 96.3319 137.977 85.398 137.977 70.9179L145.692 69.7358C152.22 80.0788 154.297 92.4903 155.484 109.039Z" fill="white"/>
<path d="M127.294 110.769L127.327 110.772L127.36 110.775L127.393 110.777L127.426 110.78L127.459 110.783L127.493 110.785L127.526 110.788L127.559 110.791L127.593 110.794L127.627 110.796L127.66 110.799L127.694 110.802L127.728 110.805L127.762 110.807L127.796 110.81L127.83 110.813L127.864 110.816L127.898 110.818L127.933 110.821L127.967 110.824L128.002 110.827L128.036 110.829L128.071 110.832L128.105 110.835L128.14 110.838L128.175 110.841L128.21 110.844L128.245 110.846L128.28 110.849L128.315 110.852L128.35 110.855L128.385 110.858L128.421 110.861L128.456 110.863L128.492 110.866L128.527 110.869L128.563 110.872L128.599 110.875L128.634 110.878L128.67 110.881L128.706 110.884L128.742 110.887L128.778 110.89L128.814 110.892L128.851 110.895L128.887 110.898L128.923 110.901L128.96 110.904L128.996 110.907L129.033 110.91L129.069 110.913L129.106 110.916L129.143 110.919L129.18 110.922L129.217 110.925L129.254 110.928L129.291 110.931L129.328 110.934L129.366 110.937L129.403 110.94L129.44 110.943L129.478 110.946L129.515 110.949L129.553 110.952L129.591 110.955L129.628 110.958L129.666 110.961L129.704 110.965L129.742 110.968L129.78 110.971L129.818 110.974L129.857 110.977L129.895 110.98L129.933 110.983L129.972 110.986L130.01 110.989L130.049 110.992L130.087 110.996L130.126 110.999L130.165 111.002L130.204 111.005L130.243 111.008L130.282 111.011L130.321 111.015L130.36 111.018L130.399 111.021L130.439 111.024L130.478 111.027L130.518 111.03L130.557 111.034L130.597 111.037L130.636 111.04L130.676 111.043L130.716 111.047L130.756 111.05L130.796 111.053L130.836 111.056L130.876 111.059L130.916 111.063L130.957 111.066L130.997 111.069L131.037 111.073L131.078 111.076L131.118 111.079L131.159 111.082L131.2 111.086L131.24 111.089L131.281 111.092L131.322 111.096L131.363 111.099L131.404 111.102L131.445 111.106L131.487 111.109L131.528 111.112L131.569 111.116L131.611 111.119L131.652 111.122L131.694 111.126L131.736 111.129L131.777 111.132L131.819 111.136L131.861 111.139L131.903 111.143L131.945 111.146L131.987 111.149L132.029 111.153L132.071 111.156L132.114 111.16L132.156 111.163L132.199 111.167L132.241 111.17L132.284 111.174L132.326 111.177L132.369 111.18L132.412 111.184L132.455 111.187L132.498 111.191L132.541 111.194L132.584 111.198L132.627 111.201L132.67 111.205L132.714 111.208L132.757 111.212L132.801 111.215L132.844 111.219L132.888 111.222L132.932 111.226L132.975 111.23L133.019 111.233L133.063 111.237L133.107 111.24L133.151 111.244L133.195 111.247L133.239 111.251L133.284 111.254L133.328 111.258L133.372 111.262L133.417 111.265L133.462 111.269L133.506 111.273L133.551 111.276L133.596 111.28L133.641 111.283L133.685 111.287L133.73 111.291L133.776 111.294L133.821 111.298L133.866 111.302L133.911 111.305L133.957 111.309L134.002 111.313L134.047 111.316L134.093 111.32L134.139 111.324L134.184 111.327L134.23 111.331L134.276 111.335L134.322 111.339L134.368 111.342L134.414 111.346L134.46 111.35L134.506 111.354L134.553 111.357L134.599 111.361L134.646 111.365L134.692 111.369L134.739 111.372L134.785 111.376L134.832 111.38L134.879 111.384L134.926 111.387L134.973 111.391L135.02 111.395L135.067 111.399L135.114 111.403L135.161 111.407L135.208 111.41L135.256 111.414L135.303 111.418L135.351 111.422L135.398 111.426L135.446 111.43L135.494 111.434L135.542 111.437L135.59 111.441L135.637 111.445L135.685 111.449L135.734 111.453L135.782 111.457L135.83 111.461L135.878 111.465L135.927 111.469L135.975 111.472L136.024 111.476L136.072 111.48L136.121 111.484L136.17 111.488L136.218 111.492L136.267 111.496L136.316 111.5L136.365 111.504L136.414 111.508L136.464 111.512L136.513 111.516L136.562 111.52L136.612 111.524L136.661 111.528L136.711 111.532L136.76 111.536L136.81 111.54L136.86 111.544L136.909 111.548L136.959 111.552L137.009 111.556L137.059 111.56L137.109 111.564L137.159 111.568L137.21 111.572L137.26 111.577L137.31 111.581L137.361 111.585L137.411 111.589L137.462 111.593L137.513 111.597L137.563 111.601L137.614 111.605L137.665 111.609L137.716 111.613L137.767 111.618L137.818 111.622L137.869 111.626L137.921 111.63L137.972 111.634L138.023 111.638L138.075 111.643L138.126 111.647L138.178 111.651L138.229 111.655L138.281 111.659L138.333 111.663L138.385 111.668L138.437 111.672L138.489 111.676L138.541 111.68L138.593 111.685L138.645 111.689L138.698 111.693L138.75 111.697L138.802 111.701L138.855 111.706L138.908 111.71L138.96 111.714L139.013 111.719L139.066 111.723L139.119 111.727L139.172 111.731L139.225 111.736L139.278 111.74L139.331 111.744L139.384 111.749L139.437 111.753L139.491 111.757L139.544 111.762L139.598 111.766L139.651 111.77L139.705 111.775L139.759 111.779L139.812 111.783L139.866 111.788L139.92 111.792L139.974 111.796L140.028 111.801L140.082 111.805L140.137 111.81L140.191 111.814L140.245 111.818L140.3 111.823L140.354 111.827L140.409 111.832L140.463 111.836L140.518 111.84L140.573 111.845L140.628 111.849L140.683 111.854L140.738 111.858L140.793 111.863L140.848 111.867L140.903 111.872L140.958 111.876L141.014 111.881L141.069 111.885L141.125 111.89L141.18 111.894L141.236 111.899L141.291 111.903L141.347 111.908L141.403 111.912L141.459 111.917L141.515 111.921L141.571 111.926L141.627 111.93L141.683 111.935L141.739 111.939L141.796 111.944L141.852 111.948L141.909 111.953L141.965 111.958L142.022 111.962L142.078 111.967L142.135 111.971L142.192 111.976L142.249 111.981L142.306 111.985L142.363 111.99L142.42 111.994L142.477 111.999L142.534 112.004L142.592 112.008L142.649 112.013L142.707 112.018L142.764 112.022L142.822 112.027L142.879 112.032L142.937 112.036L142.995 112.041L143.053 112.046L143.111 112.05L143.169 112.055L143.227 112.06L143.285 112.065L143.343 112.069L143.401 112.074L143.46 112.079L143.518 112.083L143.577 112.088L143.635 112.093L143.694 112.098L143.753 112.102L143.811 112.107L143.87 112.112L143.929 112.117L143.988 112.121L144.047 112.126L144.106 112.131L144.165 112.136L144.225 112.141L144.284 112.145L144.343 112.15L144.403 112.155L144.462 112.16L144.522 112.165L144.582 112.17L144.641 112.174L144.701 112.179L144.761 112.184L144.821 112.189L144.881 112.194L144.941 112.199L145.001 112.204L145.062 112.208L145.122 112.213L145.182 112.218L145.243 112.223L145.303 112.228L145.364 112.233L145.424 112.238L145.485 112.243L145.546 112.248L145.607 112.253L145.668 112.258L145.729 112.262L145.79 112.267L145.851 112.272L145.912 112.277L145.973 112.282L146.035 112.287L146.096 112.292L146.158 112.297L146.219 112.302L146.281 112.307L146.343 112.312L146.404 112.317L146.466 112.322L146.528 112.327L146.59 112.332L146.652 112.337L146.714 112.342L146.776 112.347L146.839 112.352L146.901 112.357L146.963 112.362L147.026 112.368L147.088 112.373L147.151 112.378L147.214 112.383L147.276 112.388L147.339 112.393L147.402 112.398L147.465 112.403L147.528 112.408L147.591 112.413L147.654 112.418L147.717 112.424L147.781 112.429L147.844 112.434L147.907 112.439L147.971 112.444L148.034 112.449L148.098 112.454L148.162 112.46L148.225 112.465L148.289 112.47L148.353 112.475L148.417 112.48L148.481 112.485L148.545 112.491L148.609 112.496L148.674 112.501L148.738 112.506L148.802 112.511L148.867 112.517L148.931 112.522L148.996 112.527L149.061 112.532L149.125 112.538L149.19 112.543L149.255 112.548L149.32 112.553L149.385 112.559L149.45 112.564L149.515 112.569L149.58 112.574L149.646 112.58L149.711 112.585L149.776 112.59L149.842 112.596L149.907 112.601L149.973 112.606L150.039 112.612L150.104 112.617L150.17 112.622L150.236 112.628L150.302 112.633L150.368 112.638L150.434 112.644L150.5 112.649L150.566 112.654L150.633 112.66L150.699 112.665L150.766 112.67L150.832 112.676L150.899 112.681L150.965 112.687L151.032 112.692L151.099 112.697L151.166 112.703L151.232 112.708L151.299 112.714L151.367 112.719L151.434 112.725L151.501 112.73L151.568 112.735L151.635 112.741L151.703 112.746L151.77 112.752L151.838 112.757L151.905 112.763L151.973 112.768L152.041 112.774L152.109 112.779L152.176 112.785L152.244 112.79L152.312 112.796L152.38 112.801L152.449 112.807L152.517 112.812L152.585 112.818L152.653 112.823L152.722 112.829L152.79 112.834L152.859 112.84L152.927 112.846L152.996 112.851L153.065 112.857L153.134 112.862L153.202 112.868L153.228 112.87C153.455 95.2725 151.638 82.5922 146.187 71.1292L139.801 71.1293C139.121 78.8495 136.658 85.4807 134.003 91.4819C133.278 93.1199 132.541 94.7072 131.822 96.2553C129.865 100.47 128.043 104.394 126.97 108.26C126.957 108.407 126.936 108.578 126.915 108.753C126.901 108.864 126.888 108.976 126.876 109.084C126.842 109.393 126.818 109.699 126.829 109.971C126.841 110.25 126.889 110.453 126.965 110.581C127.028 110.685 127.116 110.755 127.294 110.769Z" stroke="#0202B2" stroke-width="0.731076"/>
<path d="M158.149 98.991C163.491 108.743 167.942 115.54 171.799 119.972L177.141 118.79C173.58 96.9224 163.194 80.6692 146.28 70.0308H143.312C136.487 93.0807 134.707 108.743 137.674 116.426H161.413C161.117 110.811 159.93 104.901 158.149 98.991Z" fill="#FFE2B8"/>
<path d="M73.9688 102.021L65.2756 147.21L56.6698 183.794L59.5583 186.351L85.5228 112.249L73.9688 102.021Z" fill="#B28B67"/>
<path d="M55.8667 181.113C55.0569 181.58 54.4693 182.244 54.2735 182.465C53.8817 182.908 53.2941 183.571 52.9287 184.432C53.3731 184.825 57.8169 188.759 66.4825 196.43C67.9062 195.717 68.2716 194.856 67.3829 194.069C66.7163 193.479 66.2456 192.668 65.8012 192.275L62.1261 183.891C61.9039 183.694 61.9039 183.694 61.708 183.915L60.4801 184.407C59.6177 184.038 58.7552 183.67 58.3109 183.276C57.8665 182.883 57.618 182.268 57.1472 181.457C56.7029 181.064 56.2848 181.088 55.8667 181.113Z" fill="#0202B2"/>
<path d="M56.6382 176.663L63.76 179.81C67.7796 170.344 71.7465 160.043 75.8303 148.266C79.9141 136.489 83.5798 124.737 86.6317 113.231L71.0781 99.4634C66.512 113.576 63.1738 127.196 60.8148 139.71C58.2601 152.446 56.9331 164.69 56.6382 176.663Z" fill="#E8140F"/>
<path d="M95.8941 65.472L104.14 55.9935C105.14 53.2494 106.18 51.0974 107.239 49.2414C107.809 48.9056 108.359 48.2737 108.184 50.07C108.009 51.8663 107.834 53.6625 108.443 53.9188C109.053 54.1751 109.878 53.2273 110.507 53.7797C111.117 54.036 109.448 55.6356 106.069 58.2427L101.106 68.0946L95.8941 65.472Z" fill="#B28B67"/>
<path d="M94.1324 112.527C90.3461 108.287 87.254 92.0813 86.1812 84.5088L80.3125 88.863V132.784L101.705 136.949C107.574 147.172 97.9186 116.768 94.1324 112.527Z" fill="#8787E1"/>
<path d="M93.943 65.01C94.0077 63.4548 94.4584 61.1908 95.2681 59.4546C95.673 58.5865 96.9569 57.8752 97.825 58.2801C98.3299 58.5288 98.6627 58.9483 98.7569 59.4546C99.0592 59.1464 99.3238 58.8338 99.6305 58.488L105.453 62.2076C97.6272 74.2266 91.4726 85.6377 80.3501 89.883C76.6021 91.3189 64.7521 89.3062 60.3672 88.9917L69.3322 77.8833C81.4859 73.5291 83.3414 77.694 93.943 65.01Z" fill="#8787E1"/>
<path d="M67.4661 120.132C80.1936 126.178 96.1372 134.978 96.6258 135.423C96.8299 135.789 97.3078 146.096 98.0593 166.344L101.43 166.367C104.487 143.491 105.221 131.059 103.835 129.437C101.757 127.003 83.4812 112.306 71.644 105.278L67.4661 120.132Z" fill="#B28B67"/>
<path d="M96.9662 164.801C96.4407 165.578 96.1997 166.435 96.1193 166.721C95.9586 167.292 96.0021 168.229 96.0455 169.166C96.6145 169.326 102.625 169.784 113.998 170.824C114.684 169.476 114.356 168.459 113.503 168.219C112.649 167.979 111.796 167.739 110.942 167.499L102.971 163.099C102.686 163.019 102.686 163.019 102.606 163.305L102.124 165.019C101.11 165.35 100.46 165.476 99.8913 165.316C99.3223 165.155 98.7534 164.995 97.9803 164.47C97.6958 164.39 97.0465 164.515 96.9662 164.801Z" fill="#0202B2"/>
<path d="M97.0583 158.974L102.581 158.986C108.663 142.818 110.337 132.5 107.968 127.826C105.599 123.153 93.4336 115.107 72.0416 103.85L66.6585 122.989C84.55 131.412 93.8203 135.561 94.5131 136.372C95.2862 136.898 95.9181 144.473 97.0583 158.974Z" fill="#E8140F"/>
<path d="M73.0266 67.8813C71.2849 65.8367 70.1112 63.3378 70.3005 60.4981C70.8684 52.3955 82.1515 54.175 84.3475 58.2642C86.5435 62.3534 86.2785 72.7277 83.4388 73.4471C82.303 73.75 79.9176 73.0306 77.4565 71.554L79.0089 82.4584H69.9219L73.0266 67.8813Z" fill="#B28B67"/>
<path d="M80.7496 53.7965C79.5002 53.4179 77.7206 53.3043 76.9634 53.3801C77.3798 52.3578 77.5692 51.184 77.4178 50.086C77.2663 48.988 76.812 48.0793 76.3576 47.0949C76.1683 46.6405 75.9032 46.1861 75.5625 45.8454C75.2217 45.5046 74.7674 45.2774 74.2752 45.1639C73.7829 45.0503 73.2907 45.0503 72.7985 45.1639C72.5713 45.2017 72.382 45.3153 72.1927 45.3532C71.9655 45.391 71.8898 45.2775 71.7005 45.126C71.3219 44.7852 70.7539 44.6338 70.2996 44.5959C69.7695 44.5202 69.2016 44.5959 68.7094 44.7852C68.2171 44.9745 67.7249 45.2396 67.3842 45.6561C67.2327 45.8454 67.0812 46.0347 66.9676 46.2619C66.9298 46.3376 66.9298 46.4133 66.8162 46.4512C66.7405 46.4891 66.6268 46.4891 66.5511 46.5269C65.6803 46.8298 64.961 47.4735 64.5445 48.3443C64.3173 48.8365 64.2037 49.7074 64.2415 50.6918C64.2794 51.6762 65.1502 54.213 65.9832 55.1596C66.7404 55.9926 67.8006 56.5227 68.8608 56.7877C68.1792 57.5828 67.687 58.5673 67.3463 59.5895C66.9676 60.6876 66.7404 61.8234 66.6647 62.9972C66.589 64.0952 66.589 65.2689 66.854 66.367C67.0812 67.3892 67.6113 68.2222 68.4822 68.7144C68.8608 68.9416 69.3151 69.1309 69.7316 69.3202C70.1481 69.4717 70.5646 69.6232 71.0189 69.7367C71.8519 69.9261 72.8363 69.8882 73.48 69.2067C73.7072 68.9795 73.9722 68.6766 74.1237 68.3737C74.1994 68.2601 74.2373 68.1844 74.1616 68.1087C74.0858 67.9951 73.9344 67.8815 73.8208 67.8057C73.1772 67.2378 72.7607 66.5184 72.6849 65.6476C72.5714 64.7767 72.8363 63.603 73.6693 63.2244C74.7295 62.7321 75.9033 63.3001 76.8498 63.7923C77.2663 62.3914 78.0614 61.1041 79.3866 60.4604C80.8254 59.741 82.4535 59.6653 83.9301 59.0216C84.3088 58.8702 84.6874 58.6808 84.9903 58.3401C85.1039 58.1886 85.2553 58.0372 85.2931 57.8479C85.3689 57.6207 85.2175 57.3935 85.066 57.2421C84.3466 56.1819 81.9612 54.1752 80.7496 53.7965Z" fill="#191847"/>
<path d="M46.7529 103.063L53.4167 104.275C45.6927 119.647 41.5279 127.75 40.9978 128.621C39.7483 130.59 40.9978 134.187 41.49 136.08C38.7639 136.761 39.7483 132.596 36.3028 133.543C33.1223 134.376 30.4719 136.458 27.4429 133.77C27.0643 133.429 26.7993 132.407 28.0109 131.839C31.0777 130.438 35.6213 127.864 36.3407 126.841C37.3251 125.516 40.8085 117.565 46.7529 103.063Z" fill="#B28B67"/>
<path d="M61.2891 117.641C73.1779 118.966 82.9843 118.966 89.7996 117.641C90.6326 117.489 90.1783 113.817 89.7996 112.832C83.6659 97.3085 81.4546 84.7002 78.2363 75.4238C77.1004 75.9918 76.5477 75.8403 73.7459 75.4238C66.2491 86.5555 62.8036 99.2773 61.2891 117.641Z" fill="white"/>
<path d="M59.0959 119.496C58.6794 119.118 58.4901 118.55 58.5658 117.944L58.7551 116.808C58.9065 116.051 59.5124 115.483 60.2317 115.407C60.3453 114.839 60.4589 114.271 60.5725 113.703C61.3298 108.97 60.0424 104.351 60.0803 99.7698C53.9844 104.957 48.5322 113.93 43.6858 126.69L36.5297 124.57C36.7948 123.548 37.0976 122.563 37.3627 121.579C36.5297 121.124 35.5832 118.966 36.2647 118.588C36.9841 118.209 37.7413 117.944 38.5365 117.792C45.0867 98.0281 55.8018 83.6024 70.7197 74.4775H72.7643H75.036C73.7866 91.2507 91.2792 127.864 85.1833 159.101C73.938 161.6 57.8843 153.8 42.2848 160.047C42.9285 147.515 54.5523 132.71 59.0959 119.496Z" fill="#8787E1"/>
<path d="M59.564 119.706L59.6304 119.474L59.4443 119.322C59.1137 119.051 58.9327 118.618 58.9674 118.115L59.0964 116.985C59.1889 116.371 59.6492 115.909 60.1933 115.823L60.459 115.782L60.4981 115.516L60.6243 114.656L60.7506 113.796L60.7516 113.789L60.7524 113.782C61.0138 111.351 60.7548 108.985 60.4123 106.674C60.3369 106.165 60.2576 105.66 60.1787 105.157C59.8973 103.365 59.6213 101.606 59.5447 99.8379L59.5101 99.0389L58.9286 99.5879C53.0906 105.099 48.1185 114.302 43.95 127.148L37.3685 125.562C37.467 125.101 37.5702 124.655 37.6734 124.209C37.7748 123.77 37.8761 123.332 37.9731 122.881L38.0335 122.599L37.7739 122.475C37.6319 122.406 37.4466 122.246 37.2521 122.003C37.0628 121.766 36.8865 121.477 36.754 121.187C36.6197 120.894 36.5408 120.624 36.5258 120.421C36.5183 120.32 36.5281 120.254 36.5406 120.217C36.5464 120.199 36.5519 120.191 36.5543 120.188C36.5556 120.186 36.5565 120.185 36.5575 120.184C37.2238 119.789 37.9308 119.5 38.6796 119.317L38.8883 119.266L38.9453 119.059C44.4394 99.0898 54.3257 84.2307 68.6236 74.4066L70.5625 74.3066L72.4415 74.2096C72.4205 78.4104 73.5531 83.6953 75.1922 89.7067C76.0994 93.0338 77.1702 96.6113 78.2938 100.366C79.2612 103.598 80.2678 106.961 81.2429 110.408C85.4513 125.284 89.134 141.919 86.9774 157.522C84.313 158.222 81.3269 158.354 78.0936 158.247C75.9777 158.177 73.7769 158.007 71.4999 157.83C70.1884 157.728 68.8516 157.625 67.4912 157.537C60.2449 157.072 52.4388 157.074 44.886 160.399C45.0413 154.359 47.6512 147.648 50.7489 140.767C51.45 139.209 52.1761 137.643 52.9028 136.076C55.4738 130.53 58.0531 124.967 59.564 119.706Z" stroke="#FFE5E4" stroke-width="0.731076"/>
<path d="M72.3415 74.894L70.3727 80.9142L74.3104 85.4199L70.7513 88.9411L79.3461 103.67L68.8203 88.979L72.3415 85.4199L68.8203 81.4443L72.3415 74.894Z" fill="black" fill-opacity="0.1"/>
<path d="M76.8192 109.348C75.9862 109.348 75.3047 108.667 75.3047 107.834C75.3047 107.001 75.9862 106.319 76.8192 106.319C77.6522 106.319 78.3337 107.001 78.3337 107.834C78.3337 108.667 77.69 109.348 76.8192 109.348ZM78.7123 118.057C77.8793 118.057 77.1978 117.375 77.1978 116.542C77.1978 115.709 77.8793 115.028 78.7123 115.028C79.5453 115.028 80.2268 115.709 80.2268 116.542C80.2268 117.375 79.5832 118.057 78.7123 118.057ZM79.091 126.765C78.258 126.765 77.5764 126.084 77.5764 125.251C77.5764 124.418 78.258 123.736 79.091 123.736C79.9239 123.736 80.6055 124.418 80.6055 125.251C80.6055 126.084 79.9618 126.765 79.091 126.765Z" fill="black" fill-opacity="0.4"/>
<path d="M85.3597 63.2358C85.6505 63.8175 86.0867 64.3022 86.3291 64.8838C86.523 65.417 87.5408 67.1134 87.5893 67.695C87.6862 68.519 85.7475 68.6644 84.875 68.616" fill="#B28B67"/>
<path d="M85.4206 61.7819C85.1298 61.7334 84.8874 61.7819 84.6936 61.7819C84.4512 61.8303 84.2573 61.8788 84.0635 61.9273C83.6272 62.0242 83.191 62.1696 82.6094 62.2666C82.7063 61.9758 82.9487 61.7819 83.1425 61.6365C83.3849 61.4911 83.6272 61.3456 83.9181 61.2972C84.2089 61.2487 84.4997 61.2002 84.7905 61.2972C85.0328 61.3456 85.2752 61.5395 85.4206 61.7819Z" fill="#191847"/>
<path d="M85.4114 70.7004C85.169 70.7973 84.8782 70.7973 84.6358 70.7004C84.3935 70.6519 84.1512 70.5065 83.9088 70.4095C83.4726 70.1672 83.0364 69.8764 82.6971 69.731L83.1333 69.4402C83.1333 69.4886 83.1818 69.731 83.3272 69.8764C83.4241 70.0703 83.5695 70.2641 83.7149 70.4095C84.0057 70.7973 84.345 71.1366 84.6843 71.4759C84.442 71.4274 84.1996 71.3305 83.9573 71.1851C83.7149 71.0397 83.521 70.9427 83.3272 70.7488C83.1333 70.6034 82.9394 70.4095 82.7455 70.1672C82.6001 69.9249 82.4062 69.6825 82.4062 69.2463L82.4547 68.8101L82.8909 68.9555C83.1818 69.0524 83.3756 69.1978 83.618 69.3432C83.8119 69.4886 84.0057 69.634 84.1996 69.8279C84.5874 70.2641 84.9267 70.6034 85.4114 70.7004Z" fill="#191847"/>
<path d="M84.5332 63.9145C84.8276 63.9145 85.0663 63.6758 85.0663 63.3813C85.0663 63.0868 84.8276 62.8481 84.5332 62.8481C84.2387 62.8481 84 63.0868 84 63.3813C84 63.6758 84.2387 63.9145 84.5332 63.9145Z" fill="black"/>
</svg>
