<svg fill="none" height="204" viewBox="0 0 288 204" width="288" xmlns="http://www.w3.org/2000/svg"><path d="m-243.994 204.512c-97.475 30.319-157.332 26.61-175.076 20.965v21.772h706.219v-42.737c-136.039-70.153-409.3-37.898-531.143 0z" fill="#c9c9fb"/><g opacity=".7"><ellipse cx="179.417" cy="206.034" fill="#e8140f" opacity=".81" rx="3.72849" ry="3.72849" transform="matrix(-.80901699 .58778525 -.58778525 -.80901699 445.672149 267.260341)"/><ellipse cx="17.0709" cy="71.5952" fill="#e8140f" opacity=".89" rx="2.30289" ry="2.30289" transform="matrix(-.99026807 .1391731 -.1391731 -.99026807 43.939793 140.11783)"/><ellipse cx="137.297" cy="112.401" fill="#e8140f" opacity=".74" rx="2.81464" ry="2.81464" transform="matrix(.37460659 -.92718385 .92718385 .37460659 -18.351754 197.594406)"/><ellipse cx="2.19323" cy="2.19323" fill="#e8140f" opacity=".97" rx="2.19323" ry="2.19323" transform="matrix(.93358 .358369 -.358367 .933581 26.9375 178.446)"/><ellipse cx="213.395" cy="126.71" fill="#e8140f" opacity=".89" rx="4.13058" ry="4.13058" transform="matrix(-.95105652 -.30901699 .30901699 -.95105652 377.190162 313.161053)"/><ellipse cx="119.145" cy="27.3191" fill="#c3c3ff" opacity=".89" rx="4.13058" ry="4.13058" transform="matrix(-.95105652 -.30901699 .30901699 -.95105652 224.016562 90.118938)"/><g stroke="#fff" stroke-linecap="round" stroke-linejoin="round" stroke-width="2.55877"><path d="m4.55267-.374837 6.64503 4.827897" opacity=".83"/><path d="m54.6492-8.5642-4.4298 7.08908" opacity=".89"/><path d="m1.27938-1.27938h8.21372" opacity=".93" transform="matrix(-.997564 -.0697571 .0697559 -.997564 4.75 113.246)"/><path d="m1.27938-1.27938h9.81502" opacity=".87" transform="matrix(-.743144 .669131 -.66913 -.743145 212.281 89.0991)"/><path d="m24.2769 33.723-9.05-8.7395" opacity=".79"/><path d="m11.8472 213.202-9.04997-8.739" opacity=".79"/></g><path d="m170.451 21.6155c.512-1.1134 2.084-1.1408 2.634-.046l.985 1.9585c.484.9624-.204 2.0999-1.281 2.1187l-1.9.0332c-1.077.0188-1.804-1.094-1.354-2.0728z" fill="#e8140f" opacity=".85"/><path d="m32.592 101.358c-1.0313-.662-.8396-2.2228.3212-2.6156l3.9439-1.3344c1.0204-.3452 2.0511.494 1.9198 1.5632l-.4399 3.5838c-.1313 1.069-1.3345 1.634-2.2411 1.052z" fill="#e8140f" opacity=".91"/><path d="m214.69 26.0822c.97.7493.643 2.2875-.548 2.5776l-6.812 1.6597c-1.047.255-2-.6709-1.776-1.7246l1.264-5.9466c.224-1.0537 1.472-1.5116 2.324-.853z" fill="#e8140f" opacity=".98"/><path d="m175.604 175.65c.177 1.213-1.127 2.092-2.185 1.474l-3.972-2.322c-.93-.544-.973-1.872-.08-2.475l3.308-2.231c.893-.602 2.109-.065 2.264 1.001z" fill="#e8140f" opacity=".84"/><path d="m191.128 79.9383c.177 1.2126-1.127 2.0919-2.185 1.4735l-3.973-2.3221c-.93-.5436-.973-1.8721-.08-2.4745l3.308-2.2312c.893-.6024 2.109-.065 2.265 1.0009z" fill="#8787e1" opacity=".84"/><path d="m82.8373 16.34s-6.083 2.8962-.7485 8.3496" opacity=".97" stroke="#8787e1" stroke-width="2.9243"/><path d="m114.405 199.52s-5.614 7.306 4.272 10.639" opacity=".77" stroke="#8787e1" stroke-width="2.9243"/><path d="m191.074 40.0616s6.111-7.6719-4.349-11.4034" opacity=".92" stroke="#8787e1" stroke-width="2.9243"/><path d="m71.1756 115.856s6.1115-7.672-4.3494-11.404" opacity=".92" stroke="#8787e1" stroke-width="2.9243"/><path d="m11.86 129.245s2.5735 6.547 8.6422 1.388" opacity=".7" stroke="#8787e1" stroke-width="2.9243"/></g><path d="m145.433 63.2602c1.835-2.1638 3.105-4.798 2.869-7.7615-.611-8.5612-12.512-6.6796-14.817-2.352s-2.023 15.2408.941 16.0404c1.176.3293 3.716-.4233 6.303-2.0226l-1.646 11.4776h9.596z" fill="#ffcaa7"/><path d="m132.493 57.1445c-.282 1.7405-1.599 3.0106-2.117 4.6099-.282.8937-.329 1.223.565 1.5052.706.2352 1.411.2352 1.882-.2822" fill="#ffcaa7"/><path d="m133.672 58.1789c.094-.2822.329-.5644.611-.7056.283-.1411.659-.2352.988-.1881.329.047.612.1411.894.2822s.517.3293.753.5645c-.33.047-.612 0-.894-.0471-.282-.047-.565-.094-.8-.094s-.517-.0471-.752 0c-.236 0-.518.0941-.8.1881z" fill="#4d0351"/><path d="m134.799 60.0145c.259 0 .47-.2106.47-.4704s-.211-.4704-.47-.4704c-.26 0-.471.2106-.471.4704s.211.4704.471.4704z" fill="#307205"/><path d="m141.245 65.0007c.094-1.176-.047-2.399-.8-2.8223-.282-.1412-.659.047-1.082.3292-.47 1.4112-1.217 1.3681-2.064 1.3681-2.399.047-4.286-.6625-5.321-.6154-.753 0-.565.9878-.047 1.6463.423.5645 2.907-.2209 2.907.6729 0 .8937-2.013 1.538-2.013 2.1025 0 .8937-.236 2.5401 1.317 2.5401 1.552-.047 6.021-.7056 6.726-3.0576.141-.4704.33-1.3171.377-2.1638z" fill="#4d0351"/><path d="m149.638 54.0964c.243-.2424.388-.6301.533-.9694.146-.3392.243-.727.34-1.0662.145-.727.145-1.5995-.34-2.1811-.436-.4362-1.066-.6785-1.648-.727-.387-.0484-.775.0485-1.163.1454-.387.1454-.678.3878-1.066.5332 0-.7755-.145-1.6479-.533-2.3265-.388-.6785-1.018-1.0178-1.697-1.1147-.727-.0969-1.454.0485-2.084.4362-.145.0969-.339.1939-.484.2908-.146.0969-.243.1939-.436.2423-.146.0485-.243-.0484-.34-.1938-.145-.1454-.291-.2908-.436-.3878-.678-.4846-1.551-.727-2.375-.3877-.339.1454-.727.3877-.969.6785-.243.2908-.388.727-.679.9209-.145.0969-.242-.0485-.339-.0969-.194-.1454-.339-.2424-.533-.3878-.242-.1938-.533-.2908-.824-.3877-.436-.0969-1.018-.0969-1.115.4847-.048.1938 0 .4362 0 .63 0 .2908.049.5817.049.8725 0 .2423.048.4362.097.63 0 .097.097.3393.048.4362-.048.1454-.339.0485-.485.0485-.242 0-.484.0485-.678.1454s-.339.1939-.436.3877c-.049.097-.049.2424 0 .3878.048.1454 0 .2423 0 .3877-.34-.1454-1.406-.4847-1.551.0485-.049.1939.048.3877.145.5816.145.2908.339.5331.533.7755.388.5331.873.9693 1.357 1.357-.581.2424-.775 1.0663-.242 1.5025.242.1939.533.2424.824.2424.097 0 .242-.0485.339-.0485.049 0 .097.0485.146.0485.387.0484.872-.0485 1.26-.1454.727-.1454 1.357-.4847 1.938-1.0178.146-.1454.243-.1939.437-.1939.145 0 .339.0485.484.0485.437 0 .824-.1939 1.26-.3393.049.5331.194 1.1632.388 1.6479.194.3877.582.4362.921.4846 1.212.097 2.423 0 3.587 0-1.164.2424-2.375.3878-3.538.6786-.534.1454-.146.4847.096.727.388.3877.631.9209.824 1.4056.582-.7271 1.551-1.2117 2.472-1.0179.97.2424 1.697 1.5994 1.067 2.5203-.388.5332-1.018.7755-1.551 1.0178.436.4362.533 1.1148.775 1.6479.145.2908.291.5816.582.6786.097.0484.242.0484.29.1454.097.0969.146.2423.243.3392.533.3878 1.357.3393 1.793-.1454.436-.4362.291-1.1147-.048-1.5509.581-.2423 1.551-.5332 1.357-1.4056 1.211-.0969 4.168-2.0356 2.52-3.4896.872-.4847 1.696-1.7448 1.115-2.8111-.34-.727-1.357-1.1148-2.23-1.1632z" fill="#4d0351"/><path d="m142.627 91.353c6.604 5.0678 5.607 52.342 6.053 52.83.17.383 10.572 2.138 31.377 5.648l-.72 3.537c-24.221-.369-37.086-1.477-38.318-3.219-2.23-2.442-4.954-16.827-8.659-42.708z" fill="#fad0b7"/><path d="m176.188 148.354-1.292 5.859c-17.809 2.72-29.867.331-34.199-3.232-2.782-2.653-5.888-16.867-8.659-42.708l11.243-16.9857c15.968 11.1917 7.94 50.3757 8.28 51.1407.064.66 9.681 1.162 24.627 5.926z" fill="#0202b2"/><path d="m180.205 148.618c1.04-.238 1.974-.198 2.25-.093.552.212 1.38.528 2.484.951-.212.554-1.716 6.968-4.406 18.965-1.592.026-2.42-.29-2.272-1.505.148-1.214.19-2.151.402-2.705l-1.618-9.832c.106-.278.106-.278.212-.555l1.422-.409c.7-1.003 1.188-1.452 1.23-2.389.212-.554.148-1.214-.086-2.256-.106.277.106-.278.382-.172z" fill="#600566"/><path d="m147.847 106.167-1 46.391 1.472 40.051-3.801-1.676-9.432-90.393z" fill="#fad0b7"/><path d="m150.362 188.002c.503.789 1.005 1.577 1.148 2.15.143.574.358 1.434.356 2.653-.576.143-6.91 1.723-18.715 4.668-1.004-1.577-.931-2.509.221-2.796 1.151-.287 1.943-.79 2.519-.933l7.636-6.169c.288-.072.288-.072.648.143l.862 1.004c1.007.358 1.87.142 2.446-.002.576-.143 1.08-.574 1.873-1.076.287-.072.935.072 1.006.358z" fill="#600566"/><path d="m150.06 184.981-9.132-2.089c-2.343-12.338-12.323-63.247-7.202-82.9502l18.734 8.2622c4.204 17.679-4.352 64.289-2.4 76.777z" fill="#8787e1"/><path d="m161.48 99.0718 7.122-1.4776c4.747 12.7068 7.715 19.5038 8.308 20.6858.594.887 5.045 3.251 7.715 4.433 1.187.591.891 1.477.594 1.773-2.671 2.659-5.045.591-8.012 0-3.264-.887-2.374 2.955-4.748 2.364.297-1.773 1.484-5.024.297-6.797-.297-.886-4.154-7.683-11.276-20.9812z" fill="#ffcaa7"/><path d="m118.915 70.7661-5.831-12.2316c-.191-2.9254-.576-5.629-1.353-7.8893-.25-.6141-1.14-1.399-1.422.716-.087 1.8933-.592 3.812-1.205 4.0591-.613.2472-1.336-1.1773-2.367-.9047-.613.2471.358 2.2857 3.529 5.8686l2.433 11.5995z" fill="#ffcaa7"/><path d="m151.412 75.9849-1.281-2.741c-8.867-1.585-22.592 5.1887-26.719 3.0664-3.889-2.2973-5.8-7.8903-8.112-15.0289l-5.04 1.1265c-1.786 9.0465 1.598 23.1313 7.38 25.5099 9.32 4.1979 25.376-5.3933 33.772-11.9329z" fill="#ffe2b8"/><path d="m155.484 109.039c-11.869 0-20.771 0-26.409 0-1.187 0-.891-1.773-.891-2.66 2.078-10.0471 9.793-20.981 9.793-35.4611l7.715-1.1821c6.528 10.343 8.605 22.7545 9.792 39.3032z" fill="#fff"/><path d="m127.294 110.769.033.003.033.003.033.002.033.003.033.003.034.002.033.003.033.003.034.003.034.002.033.003.034.003.034.003.034.002.034.003.034.003.034.003.034.002.035.003.034.003.035.003.034.002.035.003.034.003.035.003.035.003.035.003.035.002.035.003.035.003.035.003.035.003.036.003.035.002.036.003.035.003.036.003.036.003.035.003.036.003.036.003.036.003.036.003.036.002.037.003.036.003.036.003.037.003.036.003.037.003.036.003.037.003.037.003.037.003.037.003.037.003.037.003.037.003.038.003.037.003.037.003.038.003.037.003.038.003.038.003.037.003.038.003.038.004.038.003.038.003.038.003.039.003.038.003.038.003.039.003.038.003.039.003.038.004.039.003.039.003.039.003.039.003.039.003.039.004.039.003.039.003.04.003.039.003.04.003.039.004.04.003.039.003.04.003.04.004.04.003.04.003.04.003.04.003.04.004.041.003.04.003.04.004.041.003.04.003.041.003.041.004.04.003.041.003.041.004.041.003.041.003.041.004.042.003.041.003.041.004.042.003.041.003.042.004.042.003.041.003.042.004.042.003.042.004.042.003.042.003.042.004.042.003.043.004.042.003.043.004.042.003.043.004.042.003.043.003.043.004.043.003.043.004.043.003.043.004.043.003.043.004.044.003.043.004.044.003.043.004.044.003.044.004.043.004.044.003.044.004.044.003.044.004.044.003.044.004.045.003.044.004.044.004.045.003.045.004.044.004.045.003.045.004.045.003.044.004.045.004.046.003.045.004.045.004.045.003.046.004.045.004.045.003.046.004.046.004.045.003.046.004.046.004.046.004.046.003.046.004.046.004.046.004.047.003.046.004.047.004.046.004.047.003.046.004.047.004.047.004.047.003.047.004.047.004.047.004.047.004.047.004.047.003.048.004.047.004.048.004.047.004.048.004.048.004.048.003.048.004.047.004.048.004.049.004.048.004.048.004.048.004.049.004.048.003.049.004.048.004.049.004.049.004.048.004.049.004.049.004.049.004.049.004.05.004.049.004.049.004.05.004.049.004.05.004.049.004.05.004.05.004.049.004.05.004.05.004.05.004.05.004.05.004.051.004.05.005.05.004.051.004.05.004.051.004.051.004.05.004.051.004.051.004.051.004.051.005.051.004.051.004.052.004.051.004.051.004.052.005.051.004.052.004.051.004.052.004.052.004.052.005.052.004.052.004.052.004.052.005.052.004.053.004.052.004.052.004.053.005.053.004.052.004.053.005.053.004.053.004.053.004.053.005.053.004.053.004.053.005.053.004.054.004.053.005.054.004.053.004.054.005.054.004.053.004.054.005.054.004.054.004.054.005.054.004.055.005.054.004.054.004.055.005.054.004.055.005.054.004.055.004.055.005.055.004.055.005.055.004.055.005.055.004.055.005.055.004.056.005.055.004.056.005.055.004.056.005.055.004.056.005.056.004.056.005.056.004.056.005.056.004.056.005.056.004.057.005.056.004.057.005.056.005.057.004.056.005.057.004.057.005.057.005.057.004.057.005.057.004.057.005.057.005.058.004.057.005.058.005.057.004.058.005.057.005.058.004.058.005.058.005.058.004.058.005.058.005.058.005.058.004.058.005.059.005.058.004.059.005.058.005.059.005.059.004.058.005.059.005.059.005.059.004.059.005.059.005.059.005.06.005.059.004.059.005.06.005.059.005.06.005.06.005.059.004.06.005.06.005.06.005.06.005.06.005.06.005.061.004.06.005.06.005.061.005.06.005.061.005.06.005.061.005.061.005.061.005.061.005.061.004.061.005.061.005.061.005.061.005.062.005.061.005.062.005.061.005.062.005.062.005.061.005.062.005.062.005.062.005.062.005.062.005.062.005.063.005.062.005.062.005.063.006.062.005.063.005.063.005.062.005.063.005.063.005.063.005.063.005.063.005.063.005.063.006.064.005.063.005.063.005.064.005.063.005.064.005.064.006.063.005.064.005.064.005.064.005.064.005.064.006.064.005.065.005.064.005.064.005.065.006.064.005.065.005.065.005.064.006.065.005.065.005.065.005.065.006.065.005.065.005.065.005.066.006.065.005.065.005.066.006.065.005.066.005.066.006.065.005.066.005.066.006.066.005.066.005.066.006.066.005.066.005.067.006.066.005.067.005.066.006.067.005.066.006.067.005.067.005.067.006.066.005.067.006.068.005.067.006.067.005.067.005.067.006.068.005.067.006.068.005.067.006.068.005.068.006.068.005.067.006.068.005.068.006.068.005.069.006.068.005.068.006.068.005.069.006.068.005.069.006.068.006.069.005.069.006.069.005.068.006.026.002c.227-17.5975-1.59-30.2778-7.041-41.7408l-6.386.0001c-.68 7.7202-3.143 14.3514-5.798 20.3526-.725 1.638-1.462 3.2253-2.181 4.7734-1.957 4.2147-3.779 8.1387-4.852 12.0047-.013.147-.034.318-.055.493-.014.111-.027.223-.039.331-.034.309-.058.615-.047.887.012.279.06.482.136.61.063.104.151.174.329.188z" stroke="#0202b2" stroke-width=".731076"/><path d="m158.149 98.991c5.342 9.752 9.793 16.549 13.65 20.981l5.342-1.182c-3.561-21.8676-13.947-38.1208-30.861-48.7592h-2.968c-6.825 23.0499-8.605 38.7122-5.638 46.3952h23.739c-.296-5.615-1.483-11.525-3.264-17.435z" fill="#ffe2b8"/><path d="m73.9688 102.021-8.6932 45.189-8.6058 36.584 2.8885 2.557 25.9645-74.102z" fill="#b28b67"/><path d="m55.8667 181.113c-.8098.467-1.3974 1.131-1.5932 1.352-.3918.443-.9794 1.106-1.3448 1.967.4444.393 4.8882 4.327 13.5538 11.998 1.4237-.713 1.7891-1.574.9004-2.361-.6666-.59-1.1373-1.401-1.5817-1.794l-3.6751-8.384c-.2222-.197-.2222-.197-.4181.024l-1.2279.492c-.8624-.369-1.7249-.737-2.1692-1.131-.4444-.393-.6929-1.008-1.1637-1.819-.4443-.393-.8624-.369-1.2805-.344z" fill="#0202b2"/><path d="m56.6382 176.663 7.1218 3.147c4.0196-9.466 7.9865-19.767 12.0703-31.544s7.7495-23.529 10.8014-35.035l-15.5536-13.7676c-4.5661 14.1126-7.9043 27.7326-10.2633 40.2466-2.5547 12.736-3.8817 24.98-4.1766 36.953z" fill="#e8140f"/><path d="m95.8941 65.472 8.2459-9.4785c1-2.7441 2.04-4.8961 3.099-6.7521.57-.3358 1.12-.9677.945.8286s-.35 3.5925.259 3.8488c.61.2563 1.435-.6915 2.064-.1391.61.2563-1.059 1.8559-4.438 4.463l-4.963 9.8519z" fill="#b28b67"/><path d="m94.1324 112.527c-3.7863-4.24-6.8784-20.4457-7.9512-28.0182l-5.8687 4.3542v43.921l21.3925 4.165c5.869 10.223-3.7864-20.181-7.5726-24.422z" fill="#8787e1"/><path d="m93.943 65.01c.0647-1.5552.5154-3.8192 1.3251-5.5554.4049-.8681 1.6888-1.5794 2.5569-1.1745.5049.2487.8377.6682.9319 1.1745.3023-.3082.5669-.6208.8736-.9666l5.8225 3.7196c-7.8258 12.019-13.9804 23.4301-25.1029 27.6754-3.748 1.4359-15.598-.5768-19.9829-.8913l8.965-11.1084c12.1537-4.3542 14.0092-.1893 24.6108-12.8733z" fill="#8787e1"/><path d="m67.4661 120.132c12.7275 6.046 28.6711 14.846 29.1597 15.291.2041.366.682 10.673 1.4335 30.921l3.3707.023c3.057-22.876 3.791-35.308 2.405-36.93-2.078-2.434-20.3538-17.131-32.191-24.159z" fill="#b28b67"/><path d="m96.9662 164.801c-.5255.777-.7665 1.634-.8469 1.92-.1607.571-.1172 1.508-.0738 2.445.569.16 6.5795.618 17.9525 1.658.686-1.348.358-2.365-.495-2.605-.854-.24-1.707-.48-2.561-.72l-7.971-4.4c-.285-.08-.285-.08-.365.206l-.482 1.714c-1.014.331-1.664.457-2.2327.297-.569-.161-1.1379-.321-1.911-.846-.2845-.08-.9338.045-1.0141.331z" fill="#0202b2"/><path d="m97.0583 158.974 5.5227.012c6.082-16.168 7.756-26.486 5.387-31.16-2.369-4.673-14.5344-12.719-35.9264-23.976l-5.3831 19.139c17.8915 8.423 27.1618 12.572 27.8546 13.383.7731.526 1.405 8.101 2.5452 22.602z" fill="#e8140f"/><path d="m73.0266 67.8813c-1.7417-2.0446-2.9154-4.5435-2.7261-7.3832.5679-8.1026 11.851-6.3231 14.047-2.2339s1.931 14.4635-.9087 15.1829c-1.1358.3029-3.5212-.4165-5.9823-1.8931l1.5524 10.9044h-9.087z" fill="#b28b67"/><path d="m80.7496 53.7965c-1.2494-.3786-3.029-.4922-3.7862-.4164.4164-1.0223.6058-2.1961.4544-3.2941-.1515-1.098-.6058-2.0067-1.0602-2.9911-.1893-.4544-.4544-.9088-.7951-1.2495-.3408-.3408-.7951-.568-1.2873-.6815-.4923-.1136-.9845-.1136-1.4767 0-.2272.0378-.4165.1514-.6058.1893-.2272.0378-.3029-.0757-.4922-.2272-.3786-.3408-.9466-.4922-1.4009-.5301-.5301-.0757-1.098 0-1.5902.1893-.4923.1893-.9845.4544-1.3252.8709-.1515.1893-.303.3786-.4166.6058-.0378.0757-.0378.1514-.1514.1893-.0757.0379-.1894.0379-.2651.0757-.8708.3029-1.5901.9466-2.0066 1.8174-.2272.4922-.3408 1.3631-.303 2.3475.0379.9844.9087 3.5212 1.7417 4.4678.7572.833 1.8174 1.3631 2.8776 1.6281-.6816.7951-1.1738 1.7796-1.5145 2.8018-.3787 1.0981-.6059 2.2339-.6816 3.4077-.0757 1.098-.0757 2.2717.1893 3.3698.2272 1.0222.7573 1.8552 1.6282 2.3474.3786.2272.8329.4165 1.2494.6058.4165.1515.833.303 1.2873.4165.833.1894 1.8174.1515 2.4611-.53.2272-.2272.4922-.5301.6437-.833.0757-.1136.1136-.1893.0379-.265-.0758-.1136-.2272-.2272-.3408-.303-.6436-.5679-1.0601-1.2873-1.1359-2.1581-.1135-.8709.1514-2.0446.9844-2.4232 1.0602-.4923 2.234.0757 3.1805.5679.4165-1.4009 1.2116-2.6882 2.5368-3.3319 1.4388-.7194 3.0669-.7951 4.5435-1.4388.3787-.1514.7573-.3408 1.0602-.6815.1136-.1515.265-.3029.3028-.4922.0758-.2272-.0756-.4544-.2271-.6058-.7194-1.0602-3.1048-3.0669-4.3164-3.4456z" fill="#191847"/><path d="m46.7529 103.063 6.6638 1.212c-7.724 15.372-11.8888 23.475-12.4189 24.346-1.2495 1.969 0 5.566.4922 7.459-2.7261.681-1.7417-3.484-5.1872-2.537-3.1805.833-5.8309 2.915-8.8599.227-.3786-.341-.6436-1.363.568-1.931 3.0668-1.401 7.6104-3.975 8.3298-4.998.9844-1.325 4.4678-9.276 10.4122-23.778z" fill="#b28b67"/><path d="m61.2891 117.641c11.8888 1.325 21.6952 1.325 28.5105 0 .833-.152.3787-3.824 0-4.809-6.1337-15.5235-8.345-28.1318-11.5633-37.4082-1.1359.568-1.6886.4165-4.4904 0-7.4968 11.1317-10.9423 23.8535-12.4568 42.2172z" fill="#fff"/><path d="m59.0959 119.496c-.4165-.378-.6058-.946-.5301-1.552l.1893-1.136c.1514-.757.7573-1.325 1.4766-1.401.1136-.568.2272-1.136.3408-1.704.7573-4.733-.5301-9.352-.4922-13.9332-6.0959 5.1872-11.5481 14.1602-16.3945 26.9202l-7.1561-2.12c.2651-1.022.5679-2.007.833-2.991-.833-.455-1.7795-2.613-1.098-2.991.7194-.379 1.4766-.644 2.2718-.796 6.5502-19.7639 17.2653-34.1896 32.1832-43.3145h2.0446 2.2717c-1.2494 16.7732 16.2432 53.3865 10.1473 84.6235-11.2453 2.499-27.299-5.301-42.8985.946.6437-12.532 12.2675-27.337 16.8111-40.551z" fill="#8787e1"/><path d="m59.564 119.706.0664-.232-.1861-.152c-.3306-.271-.5116-.704-.4769-1.207l.129-1.13c.0925-.614.5528-1.076 1.0969-1.162l.2657-.041.0391-.266.1262-.86.1263-.86.001-.007.0008-.007c.2614-2.431.0024-4.797-.3401-7.108-.0754-.509-.1547-1.014-.2336-1.517-.2814-1.792-.5574-3.551-.634-5.3191l-.0346-.799-.5815.549c-5.838 5.5111-10.8101 14.7141-14.9786 27.5601l-6.5815-1.586c.0985-.461.2017-.907.3049-1.353.1014-.439.2027-.877.2997-1.328l.0604-.282-.2596-.124c-.142-.069-.3273-.229-.5218-.472-.1893-.237-.3656-.526-.4981-.816-.1343-.293-.2132-.563-.2282-.766-.0075-.101.0023-.167.0148-.204.0058-.018.0113-.026.0137-.029.0013-.002.0022-.003.0032-.004.6663-.395 1.3733-.684 2.1221-.867l.2087-.051.057-.207c5.4941-19.9692 15.3804-34.8283 29.6783-44.6524l1.9389-.1 1.879-.097c-.021 4.2008 1.1116 9.4857 2.7507 15.4971.9072 3.3271 1.978 6.9046 3.1016 10.6593.9674 3.232 1.974 6.595 2.9491 10.042 4.2084 14.876 7.8911 31.511 5.7345 47.114-2.6644.7-5.6505.832-8.8838.725-2.1159-.07-4.3167-.24-6.5937-.417-1.3115-.102-2.6483-.205-4.0087-.293-7.2463-.465-15.0524-.463-22.6052 2.862.1553-6.04 2.7652-12.751 5.8629-19.632.7011-1.558 1.4272-3.124 2.1539-4.691 2.571-5.546 5.1503-11.109 6.6612-16.37z" stroke="#ffe5e4" stroke-width=".731076"/><path d="m72.3415 74.894-1.9688 6.0202 3.9377 4.5057-3.5591 3.5212 8.5948 14.7289-10.5258-14.691 3.5212-3.5591-3.5212-3.9756z" fill="#000" fill-opacity=".1"/><path d="m76.8192 109.348c-.833 0-1.5145-.681-1.5145-1.514s.6815-1.515 1.5145-1.515 1.5145.682 1.5145 1.515-.6437 1.514-1.5145 1.514zm1.8931 8.709c-.833 0-1.5145-.682-1.5145-1.515s.6815-1.514 1.5145-1.514 1.5145.681 1.5145 1.514-.6436 1.515-1.5145 1.515zm.3787 8.708c-.833 0-1.5146-.681-1.5146-1.514s.6816-1.515 1.5146-1.515c.8329 0 1.5145.682 1.5145 1.515s-.6437 1.514-1.5145 1.514z" fill="#000" fill-opacity=".4"/><path d="m85.3597 63.2358c.2908.5817.727 1.0664.9694 1.648.1939.5332 1.2117 2.2296 1.2602 2.8112.0969.824-1.8418.9694-2.7143.921" fill="#b28b67"/><path d="m85.4206 61.7819c-.2908-.0485-.5332 0-.727 0-.2424.0484-.4363.0969-.6301.1454-.4363.0969-.8725.2423-1.4541.3393.0969-.2908.3393-.4847.5331-.6301.2424-.1454.4847-.2909.7756-.3393.2908-.0485.5816-.097.8724 0 .2423.0484.4847.2423.6301.4847z" fill="#191847"/><path d="m85.4114 70.7004c-.2424.0969-.5332.0969-.7756 0-.2423-.0485-.4846-.1939-.727-.2909-.4362-.2423-.8724-.5331-1.2117-.6785l.4362-.2908c0 .0484.0485.2908.1939.4362.0969.1939.2423.3877.3877.5331.2908.3878.6301.7271.9694 1.0664-.2423-.0485-.4847-.1454-.727-.2908-.2424-.1454-.4363-.2424-.6301-.4363-.1939-.1454-.3878-.3393-.5817-.5816-.1454-.2423-.3393-.4847-.3393-.9209l.0485-.4362.4362.1454c.2909.0969.4847.2423.7271.3877.1939.1454.3877.2908.5816.4847.3878.4362.7271.7755 1.2118.8725z" fill="#191847"/><path d="m84.5332 63.9145c.2944 0 .5331-.2387.5331-.5332s-.2387-.5332-.5331-.5332c-.2945 0-.5332.2387-.5332.5332s.2387.5332.5332.5332z" fill="#000"/></svg>