<svg fill="none" height="48" viewBox="0 0 48 48" width="48" xmlns="http://www.w3.org/2000/svg"><path d="m42.2401 39.4343c-1.414 0-2.4745-.7057-3.4172-1.2938-4.0064-2.7052-7.7771-5.7632-10.9586-9.4094-.4713-.4704-.707-.7057-1.2962-.1176-4.5955 4.7047-9.5446 9.0565-14.6115 13.0555-2.35666 1.8819-4.83118 3.7638-7.54137 5.1752-.35351.2352-.82484.3528-1.17835.5881-.23567.1176-.47134.1176-.58917 0-.11783-.2353-.11783-.4705.11784-.5881.47134-.5881.94266-1.2938 1.53184-1.8819 3.88854-3.7638 8.01281-7.4099 11.54781-11.5265 2.5924-2.8228 5.1847-5.7632 7.5414-8.8213.4713-.5881.4713-.9409 0-1.6466-2.2389-3.1757-4.0064-6.5866-5.4204-10.2327-.9427-2.5876-1.8854-5.17516-2.3567-7.88036-.1178-.35285-.2356-.82332.2357-1.05856.4713-.11761.707.23524.9427.58809 1.414 2.23473 2.7102 4.46946 4.242 6.58653 1.8854 2.5876 4.0064 5.0576 6.0096 7.6452.4713.588.707.2352 1.0605-.1177 2.7102-3.6461 5.4204-7.2922 7.8949-11.05598 1.1783-1.76426 2.2388-3.52852 3.6528-5.05754.8249-.94094 1.8854-1.764258 3.2994-1.881876.8249-.117617 1.2962.235236 1.6497.823326.9427 1.52902.4713 3.05804-.1178 4.46945-1.4141 3.41089-3.7707 6.23372-5.8918 9.29172-1.8853 2.7052-4.0063 5.2928-6.2452 7.8804-.4713.5881-.4713.9409 0 1.529 3.0637 3.0581 6.3631 5.8809 9.8981 8.4684.9427.7057 1.8854 1.4114 2.5924 2.47.5892.9409.5891 1.8819.1178 2.8228-.9427.7057-1.7675 1.1762-2.7102 1.1762z" fill="#ce0500"/></svg>