<svg width="24" height="24" viewBox="0 0 24 24" fill="none" xmlns="http://www.w3.org/2000/svg">
<path fill-rule="evenodd" clip-rule="evenodd" d="M12.384 0.690951L14.198 1.59795C15.2498 2.12369 15.7931 3.31139 15.503 4.45095L14.6 7.99995H21C22.1046 7.99995 23 8.89538 23 9.99995V12.104C23.0003 12.3653 22.9493 12.6242 22.85 12.866L19.755 20.381C19.6006 20.7557 19.2353 21 18.83 21H2C1.44772 21 1 20.5522 1 20V9.99995C1 9.44767 1.44772 8.99995 2 8.99995H5.482C5.80688 9.00003 6.11155 8.84229 6.299 8.57695L11.752 0.849951C11.8944 0.648084 12.163 0.580525 12.384 0.690951ZM12.643 3.05795L7.933 9.72995C7.683 10.084 7.363 10.374 7 10.588V19H18.16L21 12.104V9.99995H14.6C13.9827 9.99986 13.4001 9.71477 13.0213 9.22744C12.6424 8.74011 12.5098 8.10516 12.662 7.50695L13.565 3.95895C13.6232 3.73091 13.5145 3.49313 13.304 3.38795L12.643 3.05795Z" fill="#000091"/>
</svg>
