<svg fill="none" height="21" viewBox="0 0 22 21" width="22" xmlns="http://www.w3.org/2000/svg"><path clip-rule="evenodd" d="m21 0c.5523 0 1 .447715 1 1v10c0 .5523-.4477 1-1 1h-3.482c-.3249-.0001-.6295.1577-.817.423l-5.453 7.726c-.1424.2019-.411.2694-.632.159l-1.814-.908c-1.05184-.5257-1.59511-1.7134-1.305-2.853l.903-3.547h-6.4c-1.104567 0-1.99999894-.8954-1.99999894-2v-2.104c-.00026856-.26136.05069204-.52024.15000094-.762l3.095998-7.514c.15396-.374768.51884-.61960023.924-.62zm-5 2h-11.16l-2.84 6.896v2.104h6.4c.61726.0001 1.19989.2852 1.57873.7725.37887.4873.51147 1.1223.35927 1.7205l-.903 3.548c-.05823.228.05046.4658.261.571l.661.33 4.71-6.672c.25-.354.57-.644.933-.858z" fill="#000091" fill-rule="evenodd"/></svg>