<svg width="24" height="24" viewBox="0 0 24 24" fill="none" xmlns="http://www.w3.org/2000/svg">
<path fill-rule="evenodd" clip-rule="evenodd" d="M2 9.00012H5V21.0001H2C1.44772 21.0001 1 20.5524 1 20.0001V10.0001C1 9.44783 1.44772 9.00012 2 9.00012ZM7.293 7.70712L13.693 1.30712C13.8689 1.13075 14.1477 1.1107 14.347 1.26012L15.2 1.90012C15.6844 2.26378 15.9026 2.88313 15.753 3.47012L14.6 8.00012H21C22.1046 8.00012 23 8.89555 23 10.0001V12.1041C23.0003 12.3655 22.9493 12.6244 22.85 12.8661L19.755 20.3811C19.6006 20.7558 19.2353 21.0001 18.83 21.0001H8C7.44772 21.0001 7 20.5524 7 20.0001V8.41412C7 8.14892 7.10545 7.89461 7.293 7.70712Z" fill="white"/>
</svg>
