<svg fill="none" height="24" viewBox="0 0 24 24" width="24" xmlns="http://www.w3.org/2000/svg"><path clip-rule="evenodd" d="m2 9.00012h3v11.99998h-3c-.55228 0-1-.4477-1-1v-10c0-.55227.44772-.99998 1-.99998zm5.293-1.293 6.4-6.4c.1759-.17637.4547-.19642.654-.047l.853.64c.4844.36366.7026.98301.553 1.57l-1.153 4.53h6.4c1.1046 0 2 .89543 2 1.99998v2.104c.0003.2614-.0507.5203-.15.762l-3.095 7.515c-.1544.3747-.5197.619-.925.619h-10.83c-.55228 0-1-.4477-1-1v-11.58598c0-.2652.10545-.51951.293-.707z" fill="#fff" fill-rule="evenodd"/></svg>