<svg fill="none" height="24" viewBox="0 0 24 24" width="24" xmlns="http://www.w3.org/2000/svg"><path clip-rule="evenodd" d="m12.384.690951 1.814.906999c1.0518.52574 1.5951 1.71344 1.305 2.853l-.903 3.549h6.4c1.1046 0 2 .89543 2 2v2.10405c.0003.2613-.0507.5202-.15.762l-3.095 7.515c-.1544.3747-.5197.619-.925.619h-16.83c-.55228 0-1-.4478-1-1v-10.00005c0-.55228.44772-1 1-1h3.482c.32488.00008.62955-.15766.817-.423l5.453-7.726999c.1424-.201867.411-.269426.632-.159zm.259 2.366999-4.71 6.672c-.25.35405-.57.64405-.933.85805v8.412h11.16l2.84-6.896v-2.10405h-6.4c-.6173-.00009-1.1999-.28518-1.5787-.77251-.3789-.48733-.5115-1.12228-.3593-1.72049l.903-3.548c.0582-.22804-.0505-.46582-.261-.571z" fill="#000091" fill-rule="evenodd"/></svg>