<svg fill="none" height="33" viewBox="0 0 49 33" width="49" xmlns="http://www.w3.org/2000/svg"><path d="m30.4145 31.9359h-9.1567l.6013-3.9925h7.9536z" fill="#c1c1fb"/><path d="m31.6851 32.335h-11.7632v.6653h11.7632z" fill="#c1c1fb"/><path d="m19.9219 32.3347 1.337-.3992h9.1566l1.2696.3992z" fill="#adadf9"/><path d="m8.625 24.8154v2.3289c0 .4393.36106.7987.8022.7987h32.817c.4411 0 .8022-.3594.8022-.7987v-2.3289z" fill="#adadf9"/><path d="m43.0459 24.8156v-19.89679c0-.43921-.3611-.79869-.8022-.79869h-32.8165c-.44114 0-.8022.35948-.8022.79869v19.89679z" fill="#c1c1fb"/><path d="m41.9758 5.15137h-32.31174v18.46613h32.31174z" fill="#fff"/><path d="m25.6997 26.8615c.3045 0 .5513-.2458.5513-.5489 0-.3032-.2468-.5489-.5513-.5489-.3044 0-.5513.2457-.5513.5489 0 .3031.2469.5489.5513.5489z" fill="#c1c1fb"/><path d="m23.6594 13.1492c0 2.0808-1.6955 3.768-3.7875 3.768s-3.7875-1.6872-3.7875-3.768 1.6955-3.76795 3.7875-3.76795 3.7875 1.68715 3.7875 3.76795z" fill="#fff" stroke="#0063cb" stroke-width=".074992"/><path d="m27.175 19.4546c0 .7415-.6042 1.343-1.35 1.343s-1.35-.6015-1.35-1.343.6042-1.3429 1.35-1.3429 1.35.6014 1.35 1.3429z" fill="#adadf9" stroke="#0063cb" stroke-width=".074992"/><path d="m34.8938 13.1492c0 2.0808-1.6955 3.768-3.7875 3.768s-3.7876-1.6872-3.7876-3.768 1.6956-3.76795 3.7876-3.76795 3.7875 1.68715 3.7875 3.76795z" fill="#fff" stroke="#0063cb" stroke-width=".074992"/><ellipse cx=".637505" cy=".634247" fill="#adadf9" rx=".637505" ry=".634247" transform="matrix(1 0 0 -1 19.2656 13.7451)"/><ellipse cx=".675006" cy=".634247" fill="#adadf9" rx=".675006" ry=".634247" transform="matrix(1 0 0 -1 30.5312 13.7451)"/><g stroke="#0063cb"><path d="m28.0312 7.03027c.8827.84462 3.3783 2.02709 6.3001 0" stroke-width=".599937"/><path d="m23.0938 8.14941c-.8827-.84461-3.3783-2.02707-6.3001 0" stroke-width=".599937"/><path d="m8.96403 10.7979c-2.56252 1.5545-7.74005 4.9471-7.95006 6.0812-.262498 1.4178 7.95006 4.5517 7.95006 4.8875 0 .3357-.45 2.6489-2.13751 2.91" stroke-width=".599937"/><path d="m6.26562 23.5937c.68751-.1741 2.16002-.7834 2.55002-1.8281" stroke-width=".599937"/><path d="m6.07812 22.5126c.57501.1119 1.92752.1268 2.73752-.7089" stroke-width=".599937"/><path d="m42.7985 12.4383c1.5625-2.0022 4.8-6.76027 5.25-9.7748.45-3.014529-7.0125-1.25605-10.8 0-.825-.12435-2.5876-.02983-3.0376 1.34312" stroke-width=".599937"/><path d="m36.2344 4.08121c.15-.42283.5625-1.31326 1.0125-1.49234" stroke-width=".599937"/><path d="m37.3275 4.11852c-.2-.24873-.48-.90287 0-1.52965" stroke-width=".599937"/></g></svg>