<svg fill="none" height="48" viewBox="0 0 49 48" width="49" xmlns="http://www.w3.org/2000/svg"><path d="m8.05186 19.8019c-1.04242-.6503-2.21514-1.4307-3.77878-1.4307-1.04243 0-1.95454.5203-2.99697 1.3007-.521212 1.0405-.521242 2.081.13027 3.1215.78183 1.1706 1.82427 1.951 2.8667 2.7313 3.9091 2.8614 14.01042 11.3353 15.43222 12.2831 1.4218.9479 1.7553 1.0883 2.8435 0 1.0883-1.0882 8.0456-9.6818 10.9122-12.8033 3.9091-4.5522 8.4698-8.5842 12.7698-12.7462.6515-.6503 1.1727-1.4307 1.6939-2.081.2606-.1301.2606-.39022.1303-.65035-.1303-.13006-.3909-.13006-.6515 0-.3909.26013-.9121.39019-1.303.65035-2.997 1.5607-5.7334 3.6417-8.3394 5.7227-5.6031 4.4222-11.0759 9.2345-16.1577 14.4371-.6515.6503-.9121.3902-1.4333-.1301-3.5182-4.032-7.6879-7.4136-12.11824-10.4051z" fill="#18753c"/></svg>