<svg width="314" height="165" viewBox="0 0 314 165" fill="none" xmlns="http://www.w3.org/2000/svg">
<path d="M130.3 187.9L0 23.2V0.5L148.3 176.5L130.3 187.9Z" fill="#043A35"/>
<path d="M5.80005 30.5V179.9H124L5.80005 30.5Z" fill="#044F49"/>
<path d="M343 111.9H147L63 17.9H345L343 111.9Z" fill="#27A8A5"/>
<path d="M267.6 53.9C267.2 48.8 242.8 44.7 213 44.7C183.3 44.7 158.8 48.8 158.4 53.9C158.2 57 159.1 92.5 159.5 108C159.7 113.7 162.3 119 166.8 122.4C174.3 128.2 188.4 132.5 213 132.5C237.3 132.5 251.5 128 259.1 122.3C263.6 118.8 266.3 113.5 266.5 107.8C267 92.3 267.9 57 267.6 53.9Z" fill="#187F73"/>
<path d="M268.6 54.1C268.6 48.3 243.7 43.6 213.1 43.6C182.4 43.6 157.6 48.3 157.6 54.1C157.6 54.5 157.6 56.1 157.6 56.5C157.6 62.3 182.5 67 213.1 67C243.8 67 268.6 62.3 268.6 56.5C268.6 56.1 268.6 54.5 268.6 54.1Z" fill="#044F49"/>
<path opacity="0.7" d="M213.1 64.6C243.752 64.6 268.6 59.899 268.6 54.1C268.6 48.301 243.752 43.6 213.1 43.6C182.448 43.6 157.6 48.301 157.6 54.1C157.6 59.899 182.448 64.6 213.1 64.6Z" fill="#044F49"/>
<path d="M213.1 63C242.813 63 266.9 58.881 266.9 53.8C266.9 48.719 242.813 44.6 213.1 44.6C183.387 44.6 159.3 48.719 159.3 53.8C159.3 58.881 183.387 63 213.1 63Z" fill="url(#paint0_linear)"/>
<path d="M213.1 63C242.813 63 266.9 58.881 266.9 53.8C266.9 48.719 242.813 44.6 213.1 44.6C183.387 44.6 159.3 48.719 159.3 53.8C159.3 58.881 183.387 63 213.1 63Z" fill="url(#paint1_linear)"/>
<path d="M277.3 49.2C276.5 48.8 271 50.8 266.9 51.6C267.7 52.2 268.3 52.8 268.5 53.5C270.9 52.8 276.2 51 276.6 51.3C278.4 52.9 279.4 55.4 278.7 56.1C277.5 57.1 265.2 62.5 262.7 63.7C260.2 64.9 255.6 78.2 257.8 78.3C261 78.5 284.2 60.4 285 59.1C286.2 57 279.4 50.3 277.3 49.2Z" fill="#044F49"/>
<path d="M148.9 49.2C149.7 48.8 155.2 50.8 159.3 51.6C158.5 52.2 157.9 52.8 157.7 53.5C155.3 52.8 150 51 149.6 51.3C147.8 52.9 146.8 55.4 147.5 56.1C148.7 57.1 161 62.5 163.5 63.7C166 64.9 170.6 78.2 168.4 78.3C165.2 78.5 142 60.4 141.2 59.1C139.9 57 146.7 50.3 148.9 49.2Z" fill="#044F49"/>
<path d="M213.1 64C243.034 64 267.3 59.299 267.3 53.5C267.3 47.701 243.034 43 213.1 43C183.166 43 158.9 47.701 158.9 53.5C158.9 59.299 183.166 64 213.1 64Z" fill="#044F49"/>
<path d="M226.4 34.6C226.4 33.5 220.5 32.7 213.3 32.7C206.1 32.7 200.2 33.6 200.2 34.6C200.2 35 201 36.3 202.4 37.8C204 39.5 204.4 41.8 204 44.1V44.2C204 45 208.2 45.6 213.3 45.6C218.4 45.6 222.6 45 222.6 44.2C222.6 44.2 222.6 44.2 222.6 44.1C222.2 41.8 222.6 39.5 224.2 37.8C225.6 36.3 226.4 35 226.4 34.6Z" fill="#187F73"/>
<path d="M343.3 111.9H147.3L63.3 17.9H345.2V0.5H0.300049L159 189.5L345.2 179.9V22.8L343.3 111.9Z" fill="#149295"/>
<defs>
<linearGradient id="paint0_linear" x1="213.083" y1="64.4289" x2="213.083" y2="33.4362" gradientUnits="userSpaceOnUse">
<stop stop-color="#373C40"/>
<stop offset="1" stop-color="#212325"/>
</linearGradient>
<linearGradient id="paint1_linear" x1="213.083" y1="64.4289" x2="213.083" y2="33.4362" gradientUnits="userSpaceOnUse">
<stop stop-color="#373C40"/>
<stop offset="1" stop-color="#212325"/>
</linearGradient>
</defs>
</svg>
