<svg width="325" height="375" viewBox="0 0 325 375" fill="none" xmlns="http://www.w3.org/2000/svg">
<path d="M13.2002 120.9C14.4002 136.6 88.6002 182.9 89.0002 184.2C89.2002 184.8 81.5002 203 65.9002 239L72.4002 241.5C96.3002 203.4 107.7 182.4 106.5 178.3C104.7 172.5 85.5002 153.4 48.9002 121L13.2002 120.9Z" fill="#B28B67"/>
<path d="M67.7 230.9L78.3 234.8C100.6 209.6 109.4 188.8 107.8 178.2C106.7 171.1 87.6 152.1 50.4 121H12.5C13.8 157.4 82.6 184.4 83.5 186C84.4 187.5 75.4 202.7 67.7 230.9Z" fill="#044F49"/>
<path d="M63.5483 237.773C62.2407 239.319 61.386 240.498 61.0439 241.438C60.6335 242.565 60.2742 244.137 59.8976 246.341C61.1192 246.786 72.4895 250.925 93.8205 258.688C95.7265 256.083 95.8381 254.315 94.0271 253.443C92.2162 252.571 90.7213 251.707 89.5681 251.075L76.3464 238.281C76.0987 238.085 75.6886 238.042 75.4921 238.289L73.5691 240.356C71.4759 240.552 69.9295 240.415 68.8019 240.005C67.9562 239.697 66.7774 238.842 65.5475 237.543C64.924 237.21 64.1636 237.252 63.5483 237.773C63.6422 237.808 63.6422 237.808 63.5483 237.773Z" fill="#E4E4E4"/>
<path d="M21.8002 120.9L-11.2998 200.3L-43.7998 267.5H-36.0998L47.8002 120.9H21.8002Z" fill="#997659"/>
<path d="M-40.8999 253.5L-23.8999 256.7C-10.6999 237.3 44.4001 157.9 50.5001 120.9H12.6001C-7.5999 147.7 -28.2999 233.8 -40.8999 253.5Z" fill="#043A35"/>
<path d="M36.7 24.2C33.8 20.7 31.8 16.5 32.1 11.8C33.1 -1.89999 52.1 1.10001 55.8 8.00001C59.5 14.9 59.1 32.4 54.3 33.7C52.4 34.2 48.3 33 44.2 30.5L46.8 48.9H31.5L36.7 24.2Z" fill="#055E5A"/>
<path d="M44.9001 13.3C45.5001 21.5 47.0001 25.6 49.6001 25.6C53.4001 25.6 56.6001 23.2 58.2001 23.2C59.4001 23.2 59.1001 24.7 58.3001 25.8C57.6001 26.7 54.4001 27.6 54.4001 29.1C54.4001 30.5 56.9001 29.4 56.9001 30.3C56.9001 31.7 57.3001 34.4 54.9001 34.4C52.4001 34.4 45.3001 33.5 44.1001 29.8C43.3001 27.4 42.8001 22.5 42.6001 15.1C42.5001 15.1 42.3001 15.1 42.1001 15.1C40.0001 15.1 38.3001 16.8 38.3001 18.9C38.3001 20 38.7001 20.9 39.5001 21.6C38.6001 22.9 37.6001 24.2 36.5001 25.5C32.2001 22.9 28.4001 15.4 32.6001 8.20001C33.8001 4.70001 37.0001 2.80001 40.1001 1.90001C42.6001 0.90001 45.2001 0.70001 47.4001 1.40001C51.7001 1.80001 55.5001 3.10001 56.6001 3.90001C56.6001 8.00001 55.8001 9.20002 49.1001 9.10002C47.5001 9.80002 46.3001 11.3 44.9001 13.3Z" fill="#4FD3BD"/>
<path d="M57.7002 16.4C57.5002 18.5 60.4002 20.3 60.0002 22.9C58.9002 23 57.8002 22.9 56.7002 23.1" fill="#055E5A"/>
<path d="M56.7001 14.7C56.3001 14.6 56.0001 14.5 55.7001 14.4C55.4001 14.4 55.1 14.3 54.8 14.3C54.2 14.2 53.6 14.2 52.8 14C53.3 13.4 54.1001 13.2 54.9001 13.3C55.3001 13.4 55.7001 13.5 56.0001 13.7C56.4001 13.9 56.7001 14.3 56.7001 14.7Z" fill="#4FD3BD"/>
<path d="M55.7 16.8C56.0866 16.8 56.4 16.4866 56.4 16.1C56.4 15.7134 56.0866 15.4 55.7 15.4C55.3134 15.4 55 15.7134 55 16.1C55 16.4866 55.3134 16.8 55.7 16.8Z" fill="#4FD3BD"/>
<path d="M58.7002 63.5L80.9002 51.3C84.6002 46.9 88.2002 43.5 91.8002 41.1C92.9002 40.6 94.8002 40.4 93.0002 43.5C91.2002 46.7 89.5002 50.1 90.4002 51.1C91.3002 52.1 93.6002 50.7 94.7002 52.3C95.4002 53.4 91.5002 55.1 83.0002 57.4L66.9002 72.2L58.7002 63.5Z" fill="#055E5A"/>
<path d="M47.9002 60.8C55.7002 60.7 66.0002 59.1 77.1002 52.1L81.4002 61.8C73.8001 69.4 63.0002 75.6 53.7002 75.3C46.3002 75.1 42.5002 66.2 47.9002 60.8Z" fill="#3CBFB8"/>
<path d="M128.6 44C128.4 41.7 117.6 39.9 104.4 39.9C91.2001 39.9 80.4001 41.7 80.2001 44C80.1001 45.4 80.5001 61.1 80.7001 68C80.8001 70.5 81.9001 72.9 83.9001 74.4C87.2001 77 93.5001 78.9 104.4 78.9C115.2 78.9 121.5 76.9 124.9 74.4C126.9 72.9 128.1 70.5 128.2 68C128.4 61 128.8 45.4 128.6 44Z" fill="#149295"/>
<path d="M129.1 44.1C129.1 41.5 118.1 39.4 104.5 39.4C90.9002 39.4 79.9001 41.5 79.9001 44.1C79.9001 44.3 79.9001 45 79.9001 45.2C79.9001 47.8 90.9002 49.9 104.5 49.9C118.1 49.9 129.1 47.8 129.1 45.2C129.1 45 129.1 44.3 129.1 44.1Z" fill="#044F49"/>
<path opacity="0.7" d="M104.4 48.8C117.986 48.8 129 46.6957 129 44.1C129 41.5043 117.986 39.4 104.4 39.4C90.8139 39.4 79.8 41.5043 79.8 44.1C79.8 46.6957 90.8139 48.8 104.4 48.8Z" fill="#044F49"/>
<path d="M104.4 48.1C117.6 48.1 128.3 46.2644 128.3 44C128.3 41.7356 117.6 39.9 104.4 39.9C91.2006 39.9 80.5002 41.7356 80.5002 44C80.5002 46.2644 91.2006 48.1 104.4 48.1Z" fill="url(#paint0_linear)"/>
<path d="M104.4 48.1C117.6 48.1 128.3 46.2644 128.3 44C128.3 41.7356 117.6 39.9 104.4 39.9C91.2006 39.9 80.5002 41.7356 80.5002 44C80.5002 46.2644 91.2006 48.1 104.4 48.1Z" fill="url(#paint1_linear)"/>
<path d="M132.9 41.9C132.5 41.7 130.1 42.6 128.3 43C128.7 43.3 128.9 43.6 129 43.8C130 43.5 132.4 42.7 132.6 42.8C133.4 43.5 133.9 44.6 133.5 44.9C133 45.4 127.5 47.7 126.4 48.3C125.3 48.8 123.3 54.7 124.2 54.8C125.6 54.9 135.9 46.8 136.3 46.3C136.9 45.4 133.9 42.4 132.9 41.9Z" fill="#044F49"/>
<path d="M75.9001 41.9C76.3001 41.7 78.7001 42.6 80.5001 43C80.1001 43.3 79.9001 43.6 79.8001 43.8C78.8001 43.5 76.4002 42.7 76.2002 42.8C75.4002 43.5 74.9001 44.6 75.3001 44.9C75.8001 45.4 81.3001 47.7 82.4001 48.3C83.5001 48.8 85.5002 54.7 84.6002 54.8C83.2002 54.9 72.9001 46.8 72.5001 46.3C72.0001 45.4 75.0001 42.4 75.9001 41.9Z" fill="#044F49"/>
<path d="M104.4 48.4C117.71 48.4 128.5 46.3405 128.5 43.8C128.5 41.2595 117.71 39.2 104.4 39.2C91.09 39.2 80.3 41.2595 80.3 43.8C80.3 46.3405 91.09 48.4 104.4 48.4Z" fill="#044F49"/>
<path d="M110.3 35.4C110.3 34.9 107.7 34.5 104.5 34.5C101.3 34.5 98.7002 34.9 98.7002 35.4C98.7002 35.6 99.1002 36.2 99.7002 36.8C100.4 37.5 100.6 38.6 100.4 39.6C100.4 39.9 102.2 40.2 104.5 40.2C106.8 40.2 108.6 39.9 108.6 39.6C108.4 38.6 108.6 37.6 109.3 36.8C110 36.2 110.3 35.6 110.3 35.4Z" fill="#187F73"/>
<path d="M94.9001 78.5L104.6 73.1C106 67.9 107.6 65.3 109.5 65.2C111 64.5 108.4 71.1 111.2 70.5C114 69.9 120.7 64.9 121.9 65.9C123.6 67.4 122.1 72 120.3 74.4C116.9 78.7 114.1 80.2 107.2 82.1C103.6 83.1 99.7002 85.1 95.5002 88.2L94.9001 78.5Z" fill="#055E5A"/>
<path d="M58.3 76.4C66.6 78.5 80.4 76 99.8 69.1C104.6 79.1 106.8 86.2 106.5 90.4C89.8001 99.1 75.6001 103 63.8 103.2C64.2001 110.2 63.3001 116.8 60.5001 122.9C54.6001 135.4 20.3001 123.8 8.70007 126.1C1.50007 102.6 15.5001 93.1 15.5001 78C15.5001 61.5 28.7001 36.2 30.7001 36.2H48.4001C49.4001 48.8 54.3 62.7 58.3 76.4Z" fill="#4FD3BD"/>
<path d="M244.9 194.8L213.9 303.7L191.2 384H174.7L198.8 194.8H244.9Z" fill="#27A8A5"/>
<path d="M253.2 194.8C253.9 251 256.4 281.6 257.1 286.7C257.9 291.8 269.3 324.3 291.3 384.1H274.2C246.1 326.7 230.5 294.3 227.2 286.7C223.9 279.2 213.8 248.5 198.7 194.8H253.2Z" fill="#3CBFB8"/>
<path d="M231.2 85.2C235.1 80.6 237.8 74.9 237.4 68.5C236.1 50.2 210.6 54.2 205.6 63.5C200.6 72.7 201.2 96.2 207.6 97.9C210.2 98.6 215.6 96.9 221.2 93.6L217.7 118.2H238.3L231.2 85.2Z" fill="#4FD3BD"/>
<path d="M213.7 53.4C216.5 52.5 220.6 52.3 222.3 52.4C221.3 50.1 220.9 47.5 221.3 44.9C221.6 42.4 222.7 40.3 223.7 38.1C224.2 37.1 224.7 36.1 225.5 35.3C226.3 34.5 227.3 34 228.4 33.7C229.5 33.4 230.6 33.5 231.7 33.7C232.2 33.8 232.6 34 233.1 34.1C233.6 34.2 233.8 33.9 234.2 33.6C235.1 32.9 236.3 32.5 237.4 32.4C238.6 32.3 239.9 32.4 241 32.8C242.1 33.2 243.2 33.8 244 34.7C244.4 35.1 244.7 35.6 244.9 36.1C245 36.3 245 36.4 245.2 36.5C245.4 36.6 245.6 36.6 245.8 36.6C247.7 37.3 249.4 38.8 250.3 40.7C250.8 41.8 251.1 43.8 251 46C250.9 48.2 248.9 54 247.1 56.1C245.4 58 243 59.2 240.6 59.8C242.2 61.6 243.2 63.8 244 66.1C244.8 68.6 245.4 71.2 245.6 73.8C245.8 76.3 245.8 78.9 245.2 81.4C244.7 83.7 243.5 85.6 241.5 86.7C240.6 87.2 239.6 87.7 238.7 88C237.7 88.4 236.8 88.7 235.8 88.9C233.9 89.3 231.7 89.2 230.3 87.7C229.8 87.2 229.2 86.5 228.8 85.8C228.7 85.6 228.6 85.4 228.7 85.2C228.9 84.9 229.2 84.7 229.5 84.5C231 83.3 231.9 81.6 232.1 79.6C232.3 77.6 231.8 75 229.8 74.1C227.4 73 224.7 74.3 222.6 75.4C221.7 72.2 219.8 69.3 216.9 67.8C213.7 66.2 209.9 66 206.6 64.6C205.7 64.2 204.8 63.8 204.2 63.1C203.9 62.8 203.6 62.4 203.5 62C203.4 61.5 203.7 61 204 60.6C205.5 58.8 210.9 54.3 213.7 53.4Z" fill="#0F6D64"/>
<path d="M202.9 76.4C202.6 79.5 198.5 82.5 198.8 85.7C200.8 86.1 202.9 86.4 204.8 86.9" fill="#4FD3BD"/>
<path d="M204.1 74.9C204.8 74 206.1 73.6 207.3 73.8C208.5 74 209.5 74.9 209.8 76C208.8 75.4 208 74.9 207.1 74.8C206.1 74.6 205.2 74.7 204.1 74.9Z" fill="#0F6D64"/>
<path d="M203.7 92.4C204.7 92 205.7 91.8 206.6 91.5C207.5 91.2 208.5 90.9 209.5 90.7C208.8 91.6 207.9 92.1 206.8 92.4C205.9 92.7 204.7 92.7 203.7 92.4Z" fill="#0F6D64"/>
<path d="M206 78.5C206.497 78.5 206.9 78.097 206.9 77.6C206.9 77.1029 206.497 76.7 206 76.7C205.503 76.7 205.1 77.1029 205.1 77.6C205.1 78.097 205.503 78.5 206 78.5Z" fill="#0F6D64"/>
<path d="M108.2 141.7C108.2 141.7 112.2 142.8 115.7 144.7C119.2 146.6 129.9 155 132.1 157.2C134.3 159.4 141.7 166.1 144 164.4C146.3 162.6 137.7 156.6 130.2 151.9C122.7 147.2 116 141.6 110.7 141.2C105.3 140.8 108.2 141.7 108.2 141.7Z" fill="#187F73"/>
<path d="M109.9 142.3C105.3 143 100.8 138.8 99.7999 133.1C98.7999 127.4 102.7 122.6 107.1 121.3C110.7 120.2 111.1 122.2 113.4 131.1C115.8 140.6 113.6 141.7 109.9 142.3Z" fill="#187F73"/>
<path d="M109 139.4C111 139.1 112.1 135.5 111.4 131.5C110.7 127.5 108.5 124.5 106.5 124.8C105.8 124.9 105.3 125.4 104.8 126.1C104.5 127.9 104.5 130 104.9 132.2C105.4 135 106.4 137.4 107.6 139.1C108 139.4 108.5 139.5 109 139.4Z" fill="#044F49"/>
<path d="M111.9 141.7C114.8 141.2 116.3 136.2 115.3 130.4C114.3 124.7 111.2 120.4 108.3 120.9C106.5 121.2 105.3 123.2 104.8 126.1C105.2 125.4 105.8 124.9 106.5 124.8C108.5 124.5 110.7 127.4 111.4 131.5C112.1 135.5 111 139.1 109 139.4C108.5 139.5 108.1 139.4 107.6 139.1C108.8 141 110.4 142 111.9 141.7Z" fill="#4FD3BD"/>
<path d="M111.6 141.6C114.4 141.1 115.9 136.1 114.9 130.5C113.9 124.9 110.9 120.7 108.1 121.2C106.4 121.5 105.1 123.5 104.7 126.3C105.1 125.6 105.7 125.1 106.3 125C108.3 124.7 110.4 127.6 111.1 131.5C111.8 135.5 110.7 139 108.8 139.3C108.3 139.4 107.9 139.3 107.4 139C108.7 140.9 110.2 141.8 111.6 141.6Z" fill="#044F49"/>
<path d="M169.6 169.9L142.2 159C130.4 160.2 124.7 159.9 125 158.2C125.6 155.6 129.1 156.2 129.8 154.5C130.5 152.8 126.6 149.3 122.8 146.2C119 143 121.6 142.5 123.2 142.5C128.9 143.8 135.1 146.4 141.9 150.1L175.7 154.7L169.6 169.9ZM306.3 233.2C307.5 235.7 316.6 243.2 322.9 247.6C325.4 249.3 324.4 251.6 323.4 252.1C315.6 256.9 310.5 251.2 303.8 248.1C296.4 244.7 297.1 254.4 291.2 251.7C293 247.7 297.2 240.2 295.2 235.3C294.3 233.1 283.6 208.9 263 162.6L281.8 162.5C296.5 206.3 304.7 229.8 306.3 233.2Z" fill="#4FD3BD"/>
<path d="M230.5 103.1L215.8 104.1C212.2 136.8 192.5 157.5 148.4 150.5L142.5 192.6C183.7 197.9 219.9 181.4 227.3 136.8C229.2 125.2 230.8 113.2 230.5 103.1Z" fill="#BC083C"/>
<path d="M237.8 98.9L215.6 104C215.6 142.3 203.4 166.7 197.2 194.8H257.3C258.1 204.5 258.7 214.5 258.9 224.8H303.9C293.7 170.6 272.2 128.6 239.4 98.9H237.8Z" fill="#DD0539"/>
<path d="M247.7 140.2C249.2 164 248.3 182.2 245 194.8H257.2C255.5 175.5 252.5 157.3 247.7 140.2Z" fill="black" fill-opacity="0.1"/>
<defs>
<linearGradient id="paint0_linear" x1="104.427" y1="48.6657" x2="104.427" y2="34.9075" gradientUnits="userSpaceOnUse">
<stop stop-color="#373C40"/>
<stop offset="1" stop-color="#212325"/>
</linearGradient>
<linearGradient id="paint1_linear" x1="104.427" y1="48.6657" x2="104.427" y2="34.9075" gradientUnits="userSpaceOnUse">
<stop stop-color="#373C40"/>
<stop offset="1" stop-color="#212325"/>
</linearGradient>
</defs>
</svg>
