<svg width="717" height="420" viewBox="0 0 717 420" fill="none" xmlns="http://www.w3.org/2000/svg">
<path d="M384.3 106C388.276 106 391.5 102.866 391.5 99C391.5 95.134 388.276 92 384.3 92C380.324 92 377.1 95.134 377.1 99C377.1 102.866 380.324 106 384.3 106Z" fill="#307205"/>
<path d="M351.4 99.1002L384.5 73.2002L417.6 99.1002H351.4Z" fill="#153301"/>
<path d="M384.5 74.9002C384 74.9002 383.6 73.9002 383.6 72.6002L385.1 -31.4998C385.1 -32.7998 385.5 -33.7998 386 -33.7998C386.5 -33.7998 386.9 -32.7998 386.9 -31.4998L385.4 72.6002C385.4 73.9002 385 74.9002 384.5 74.9002Z" fill="#153301"/>
<path opacity="0.3" d="M0 348.6L351.6 98.7002H417.8L716.8 356.2C717.8 406.2 93 473.6 0 348.6Z" fill="url(#paint0_linear)"/>
<defs>
<linearGradient id="paint0_linear" x1="360.515" y1="95.4951" x2="357.711" y2="439.47" gradientUnits="userSpaceOnUse">
<stop stop-color="white"/>
<stop offset="0.8752" stop-color="white" stop-opacity="0"/>
</linearGradient>
</defs>
</svg>
